<svg height="512pt" viewBox="-26 0 512 512.00331" width="512pt" xmlns="http://www.w3.org/2000/svg"><g fill-rule="evenodd"><path d="m379.890625 395.730469h-316.753906c-29.226563 0-53.136719 23.910156-53.136719 53.132812 0 29.226563 23.910156 53.136719 53.136719 53.136719h333.726562c29.226563 0 53.136719-23.910156 53.136719-53.136719 0-29.222656-23.910156-53.132812-53.136719-53.132812zm0 0" fill="#c58965"/><path d="m63.515625 357.355469c0 15.046875 6.382813 28.683593 16.59375 38.375h299.78125c10.582031-10.042969 16.597656-23.828125 16.597656-38.375 0-29.226563-24.082031-53.136719-53.515625-53.136719h-225.945312c-29.433594 0-53.511719 23.910156-53.511719 53.136719zm0 0" fill="#dca98a"/><path d="m121.242188 304.21875h218.496093c18.308594-36.726562 4.808594-93.855469-66.628906-112.863281-49.558594-13.183594-52.238281-52.964844-48.492187-78.085938 1.539062-10.324219-5.734376-15.308593-16.675782-7.308593-58.304687 42.648437-57.480468 89.972656-37.398437 124.507812-29.433594 0-53.515625 23.910156-53.515625 53.136719 0 7.296875 1.503906 14.265625 4.214844 20.613281zm0 0" fill="#c58965"/></g><path d="m399.582031 385.800781c4.472657-8.769531 6.902344-18.523437 6.902344-28.445312 0-31.105469-22.75-57.011719-52.574219-62.179688 5.300782-18.5625 3.921875-39.039062-4.207031-57.046875-8.605469-19.050781-28.429687-44.308594-74.023437-56.4375-32.648438-8.6875-46.503907-31.210937-41.175782-66.949218 1.332032-8.910157-1.660156-16.515626-8-20.347657-3.242187-1.960937-12.113281-5.539062-24.46875 3.496094-9.441406 6.90625-17.777344 14.222656-24.777344 21.753906-3.757812 4.042969-3.527343 10.371094.515626 14.132813 4.046874 3.757812 10.375 3.527344 14.132812-.515625 6.136719-6.601563 13.519531-13.070313 21.9375-19.226563.21875-.160156.425781-.308594.625-.445312-2.394531 17.800781-.636719 33.667968 5.234375 47.179687 8.703125 20.046875 25.808594 33.589844 50.835937 40.25 38.007813 10.113281 54.117188 30.238281 60.9375 45.34375 6.863282 15.203125 7.402344 32.675781 1.703126 47.855469h-204.8125c-.890626-3.445312-1.339844-7-1.339844-10.613281 0-23.734375 19.433594-43.050781 43.359375-43.132813h.34375 69.304687c5.523438 0 10-4.480468 10-10 0-5.523437-4.476562-10-10-10h-63.539062c-3.273438-6.527344-5.605469-13.191406-6.953125-19.871094-1.089844-5.414062-6.359375-8.917968-11.777344-7.828124-5.414063 1.089843-8.917969 6.363281-7.824219 11.777343 1.203125 5.972657 3.015625 11.90625 5.417969 17.742188-27.714844 6.78125-48.332031 31.699219-48.332031 61.3125 0 3.808593.359375 7.566406 1.035156 11.257812-30.789062 4.34375-54.546875 30.707031-54.546875 62.492188 0 9.921875 2.429687 19.675781 6.902344 28.445312-33.554688 1.429688-60.417969 29.167969-60.417969 63.066407 0 34.8125 28.324219 63.136718 63.136719 63.136718h333.726562c34.8125 0 63.136719-28.324218 63.136719-63.136718-.003906-33.902344-26.863281-61.636719-60.417969-63.066407zm-2.71875 106.199219h-333.726562c-23.785157 0-43.136719-19.351562-43.136719-43.132812 0-23.785157 19.351562-43.136719 43.136719-43.136719h216.753906c5.523437 0 10-4.476563 10-10 0-5.523438-4.476563-10-10-10h-195.542969c-7.003906-7.882813-10.832031-17.820313-10.832031-28.375 0-23.785157 19.519531-43.136719 43.511719-43.136719h4.1875c.011718 0 .023437.003906.03125.003906.019531 0 .035156-.003906.050781-.003906h218.390625c.011719 0 .027344.003906.042969.003906.011719 0 .023437-.003906.035156-.003906h3.207031c23.992188 0 43.515625 19.351562 43.515625 43.136719 0 10.554687-3.828125 20.492187-10.835937 28.375h-15.761719c-5.519531 0-9.996094 4.476562-9.996094 10 0 5.523437 4.476563 10 9.996094 10h36.976563c23.78125 0 43.132812 19.351562 43.132812 43.136719 0 23.78125-19.351562 43.132812-43.136719 43.132812zm0 0"/><path d="m218.984375 52.261719c-2.761719 4.785156-1.121094 10.898437 3.660156 13.660156 1.574219.910156 3.292969 1.34375 4.988281 1.34375 3.457032 0 6.820313-1.796875 8.671876-5.003906 8.628906-14.949219 3.925781-26.316407.8125-33.835938-2.714844-6.566406-3.449219-8.859375-.8125-13.421875 2.761718-4.785156 1.121093-10.902344-3.660157-13.664062-4.78125-2.757813-10.898437-1.121094-13.660156 3.660156-7.691406 13.320312-3.269531 24.003906-.347656 31.074219 2.695312 6.511719 4.046875 9.777343.347656 16.1875zm0 0"/><path d="m328 141.253906c-2.761719 4.785156-1.121094 10.898438 3.660156 13.660156 1.574219.910157 3.292969 1.34375 4.992188 1.34375 3.453125 0 6.816406-1.792968 8.667968-5 8.632813-14.949218 3.929688-26.316406.8125-33.839843-2.714843-6.5625-3.449218-8.855469-.8125-13.421875 2.761719-4.785156 1.125-10.898438-3.660156-13.660156-4.785156-2.761719-10.898437-1.125-13.660156 3.660156-7.6875 13.320312-3.269531 24-.34375 31.070312 2.695312 6.507813 4.046875 9.777344.34375 16.1875zm0 0"/><path d="m70.171875 207.710938c-2.761719 4.78125-1.125 10.898437 3.660156 13.65625 1.574219.910156 3.292969 1.34375 4.988281 1.34375 3.457032 0 6.820313-1.792969 8.671876-5 8.628906-14.949219 3.925781-26.316407.8125-33.839844-2.714844-6.5625-3.449219-8.859375-.8125-13.421875 2.761718-4.78125 1.121093-10.898438-3.660157-13.660157-4.78125-2.761718-10.898437-1.125-13.660156 3.660157-7.691406 13.320312-3.273437 24.003906-.347656 31.070312 2.695312 6.511719 4.050781 9.777344.347656 16.191407zm0 0"/><path d="m319.894531 385.730469h-.007812c-5.519531 0-9.996094 4.476562-9.996094 10 0 5.523437 4.480469 10 10.003906 10 5.523438 0 10-4.476563 10-10 0-5.523438-4.476562-10-10-10zm0 0"/><path d="m158.832031 170.191406c1.285157.550782 2.621094.8125 3.933594.8125 3.882813 0 7.574219-2.273437 9.199219-6.066406 2.175781-5.074219-.175782-10.957031-5.25-13.128906-5.078125-2.175782-10.957032.175781-13.132813 5.25l-.003906.007812c-2.171875 5.074219.179687 10.949219 5.253906 13.125zm0 0"/></svg>