<svg height="512pt" viewBox="-66 0 512 512" width="512pt" xmlns="http://www.w3.org/2000/svg"><path d="m330 260c16.542969 0 30-13.457031 30-30v-170h10c5.523438 0 10-4.476562 10-10v-40c0-5.523438-4.476562-10-10-10h-360c-5.523438 0-10 4.476562-10 10v40c0 5.523438 4.476562 10 10 10h10v50c0 5.523438 4.476562 10 10 10s10-4.476562 10-10v-50h300v170c0 5.515625-4.484375 10-10 10h-10.226562c-3.570313-81.148438-54.269532-160-129.773438-160-76.886719 0-126.285156 80.71875-129.773438 160h-10.226562c-5.515625 0-10-4.484375-10-10v-40c0-5.523438-4.476562-10-10-10s-10 4.476562-10 10v40c0 16.542969 13.457031 30 30 30h10.210938c.628906 15.789062 2.683593 32.328125 5.714843 46.285156-14.621093 1.992188-25.925781 14.554688-25.925781 29.714844v20c0 5.523438 4.476562 10 10 10h13.484375c7.691406 32.851562 27.65625 62.757812 55.023437 82.390625l-17.925781 50.25c-1.09375 3.0625-.628906 6.464844 1.246094 9.121094 1.871094 2.65625 4.921875 4.238281 8.171875 4.238281h160c3.25 0 6.300781-1.582031 8.171875-4.238281 1.875-2.65625 2.339844-6.058594 1.246094-9.121094l-17.925781-50.25c27.371093-19.636719 47.332031-49.542969 55.023437-82.390625h13.484375c5.523438 0 10-4.476562 10-10v-20c0-15.160156-11.304688-27.722656-25.925781-29.714844 3.03125-13.957031 5.082031-30.496094 5.714843-46.285156zm-310-220v-20h340v20zm170 60c60.652344 0 110 67.289062 110 150 0 18.816406-2.441406 39.902344-6.367188 56h-20.960937c4.558594-16.75 7.328125-37.308594 7.328125-56 0-59.148438-33.140625-130-90-130-56.082031 0-90 69.558594-90 130 0 18.691406 2.769531 39.25 7.328125 56h-20.960937c-3.925782-16.097656-6.367188-37.183594-6.367188-56 0-82.710938 49.347656-150 110-150zm70 150c0 18.847656-3.195312 40.371094-8.15625 56h-123.6875c-4.960938-15.625-8.15625-37.152344-8.15625-56 0-45.617188 24.898438-110 70-110 45.042969 0 70 64.269531 70 110zm-135.816406 242 11.785156-33.03125c17.011719 8.546875 35.46875 13.03125 54.03125 13.03125s37.019531-4.484375 54.03125-13.03125l11.785156 33.03125zm65.816406-40c-49.964844 0-92.773438-38.59375-105.886719-86.011719h211.769531c-13.105468 47.410157-55.917968 86.011719-105.882812 86.011719zm130-116v10h-260v-10c0-5.515625 4.484375-10 10-10h240c5.515625 0 10 4.484375 10 10zm0 0"/><path d="m40 150c0 5.523438-4.476562 10-10 10s-10-4.476562-10-10 4.476562-10 10-10 10 4.476562 10 10zm0 0"/></svg>