<svg id="Capa_1" enable-background="new 0 0 512 512" height="512" viewBox="0 0 512 512" width="512" xmlns="http://www.w3.org/2000/svg"><g><g><path d="m383.291 470.424-.003.003-5.621-7.368 2.281-7.366c-3.036-11.099-6.951-20.999-11.275-29.738l-9.608-5.926 2.031-7.691c-16.042-25.783-33.82-37.899-33.82-37.899h-142.553s-17.778 12.118-33.82 37.902l-.059 8.888-7.497 4.711c-4.329 8.747-8.257 18.638-11.296 29.751l3.498 10.241-6.838 4.495c-1.903 10.449-3.012 21.794-3.012 34.073h57.65l6.294-4.965 8.706 4.965h50.15l7.5-4.965 7.5 4.965h50.15l8.706-4.965 6.294 4.965h57.65c.001-12.279-1.104-23.628-3.008-34.076z" fill="#ff889e"/><path d="m157.475 463.901c0-35.923 17.69-72.152 43.261-89.462h-16.014s-17.778 12.118-33.82 37.902l-.059 8.888-7.497 4.711c-4.329 8.747-8.257 18.638-11.296 29.751l3.498 10.241-6.838 4.495c-1.903 10.449-3.012 21.794-3.012 34.073h35.01c-2.611-12.197-3.233-25.99-3.233-40.599z" fill="#ff748f"/><path d="m46.986 216.514c0-115.251 93.764-209.014 209.014-209.014s209.014 93.763 209.014 209.014z" fill="#5c586f"/><g><circle cx="429.223" cy="226.74" fill="#ffbd86" r="48.913"/></g><path d="m112.043 199.755c0-73.651 31.564-139.392 80.972-182.55-84.564 26.784-146.029 106-146.029 199.309h65.617c-.363-5.537-.56-11.123-.56-16.759z" fill="#4f4c5f"/><path d="m424.955 178.158c-3.022-13.355-12.448-24.289-25.198-29.281-41.198-16.129-68.379-56.221-68.379-56.221-36.136 61.21-117.258 62.685-117.258 62.685 24.337-24.337 9.587-62.685 9.587-62.685-28.106 32.364-70.739 44.81-101.753 49.549-16.053 2.453-29.225 14.066-33.392 29.762-3.867 14.565-5.884 29.884-5.782 45.69.609 94.364 77.636 171.426 172 172.076 96.228.662 174.442-77.144 174.442-173.219.001-13.182-1.475-26.019-4.267-38.356z" fill="#fed2a4"/><path d="m183.946 373.952c-44.172-43.054-71.903-105.154-71.903-174.197 0-19.607 2.251-38.648 6.465-56.858-14.468 3.485-26.081 14.515-29.945 29.07-.534 2.012-1.025 4.042-1.488 6.082-1.327-.141-2.748-.222-4.298-.222-27.014 0-48.912 21.899-48.912 48.913s21.899 48.913 48.912 48.913c4.062 0 7.318-.504 9.938-1.437 15.725 44.18 48.947 80.243 91.231 99.736z" fill="#ffbd86"/><g><g><g><ellipse cx="150.844" cy="250.455" fill="#ff9db0" rx="38.801" ry="30.899"/></g><g><ellipse cx="361.156" cy="250.455" fill="#ff9db0" rx="38.801" ry="30.899"/></g></g></g></g><g><path d="m165.949 204.849v15.861c0 4.142 3.358 7.5 7.5 7.5 4.143 0 7.5-3.358 7.5-7.5v-15.861c0-4.142-3.357-7.5-7.5-7.5-4.142 0-7.5 3.358-7.5 7.5z"/><path d="m338.536 197.349c-4.142 0-7.5 3.358-7.5 7.5v15.861c0 4.142 3.358 7.5 7.5 7.5s7.5-3.358 7.5-7.5v-15.861c0-4.142-3.358-7.5-7.5-7.5z"/><path d="m272.1 215.311c-4.066 4.666-9.937 7.342-16.108 7.342s-12.042-2.676-16.108-7.341c-2.721-3.123-7.458-3.448-10.582-.727-3.123 2.721-3.448 7.459-.727 10.582 6.916 7.936 16.908 12.487 27.417 12.487 10.508 0 20.5-4.551 27.417-12.486 2.721-3.123 2.396-7.86-.727-10.582s-7.86-2.397-10.582.725z"/><path d="m400.295 55.234c-39.762-35.618-91.01-55.234-144.302-55.234-42.309 0-83.332 12.271-118.636 35.485-3.461 2.276-4.421 6.926-2.146 10.387s6.927 4.423 10.387 2.146c32.85-21.601 71.024-33.018 110.395-33.018 49.593 0 97.286 18.256 134.293 51.407 32.377 29.002 54.379 67.33 63.054 109.314-7.02-3.327-15.037-5.215-22.91-5.381-4.674-12.633-14.682-23.253-27.946-28.447-24.929-9.76-50.769-32.884-64.905-53.445-3.065-4.522-9.85-4.368-12.667.396-19.696 33.369-57.048 51.353-95.167 57.337 12.435-25.578 1.518-54.753.955-56.216-2.012-5.229-8.936-6.519-12.663-2.225-24.08 27.729-61.204 41.548-97.223 47.052-19.336 2.955-34.81 17.065-39.588 35.557-7.55.201-15.476 2.007-22.582 5.374 8.74-42.309 31-80.868 63.788-109.957 3.098-2.749 3.381-7.489.633-10.588-2.749-3.098-7.489-3.382-10.588-.633-39.271 34.842-64.471 82.344-71.168 133.992-9.274 10.057-14.952 23.477-14.952 38.203 0 33.029 28.444 59.244 61.646 56.157 15.9 39.853 45.641 72.863 83.172 93.004-31.306 28.782-52.982 74.253-52.982 128.599 0 4.142 3.358 7.5 7.5 7.5h260.601c4.143 0 7.5-3.358 7.5-7.5 0-53.765-21.313-99.383-52.822-128.451 13.71-7.318 26.54-16.449 38.158-27.269 3.031-2.823 3.2-7.569.376-10.6-2.823-3.031-7.568-3.2-10.6-.376-34.331 31.975-78.804 46.69-122.484 44.158-103.302-5.965-177.687-106.049-150.617-208.071 3.381-12.735 14.092-22.257 27.276-24.272 35.095-5.365 70.618-18.13 96.61-42.093 1.87 11.804 1.894 29.738-10.881 42.512-4.666 4.667-1.462 12.859 5.44 12.802 11.133-.205 30.079-3.198 47.25-8.752 27.873-9.014 53.077-24.777 70.311-48.457 17.094 20.996 40.091 40.396 65.206 50.229 17.821 6.977 20.535 23.747 20.593 23.859 10.527 44.6 1.463 95.971-29.431 136.756-2.501 3.302-1.852 8.006 1.45 10.507 3.301 2.5 8.006 1.852 10.507-1.45 10.024-13.235 18.062-27.543 24.026-42.621 51.429 4.602 81.194-56.77 46.516-94.376-6.651-51.277-31.572-98.535-70.383-133.301zm-86.653 332.609v24.495h-50.149v-15.259c17.71-.721 34.673-4.016 50.149-9.236zm58.554 67.848h-43.553v-28.354h32.331c4.64 9.014 8.391 18.47 11.222 28.354zm-58.554 0h-50.149v-28.354h50.149zm-162.63-28.353h32.331v28.354h-43.553c2.831-9.885 6.582-19.341 11.222-28.354zm47.331 0h50.15v28.354h-50.15zm0-39.572c16.168 5.493 32.958 8.603 50.15 9.305v15.267h-50.15zm50.15 82.925v26.309h-50.15v-26.309zm15 0h50.149v26.309h-50.149zm-80.15-85.538v27.185h-23.503c7.382-11.057 15.444-20.123 23.503-27.185zm-47.078 85.538h47.078v26.309h-50.009c.344-9.041 1.338-17.809 2.931-26.309zm192.377 26.309v-26.309h47.078c1.593 8.5 2.587 17.268 2.931 26.309zm23.503-84.662h-23.503v-27.185c7.977 6.99 16.099 16.081 23.503 27.185zm-269.309-144.186c-37.75 0-55.569-46.182-28.33-71.655.624-.427 8.849-9.182 23.406-10.877-4.608 26.748-3.301 55.15 4.924 82.532zm346.428-.001c8.132-27.367 9.393-56.029 4.815-82.53 20.577 2.392 36.548 19.964 36.548 41.119.001 22.819-18.551 41.385-41.363 41.411z"/></g></g></svg>