<svg id="Capa_1" enable-background="new 0 0 512 512" height="512" viewBox="0 0 512 512" width="512" xmlns="http://www.w3.org/2000/svg"><g><g><path d="m79.32 337.823v166.677h296.988v-166.677c0-33.474-27.136-60.61-60.61-60.61h-175.768c-33.474 0-60.61 27.136-60.61 60.61z" fill="#95d6a4"/></g><g><path d="m376.308 337.823v166.677h-26.264v-166.97c-.061-12.122-14.88-18.052-23.446-9.475l-27.941 27.931c-15.536 15.536-36.598 24.264-58.569 24.264h-74.55c-2.748 0-5.303 1.394-6.798 3.697-2.166 3.362-5.892 5.394-9.892 5.394h-20.029l11.253-17.435c5.576-8.657 15.173-13.88 25.466-13.88h74.55c16.073 0 31.488-6.385 42.853-17.75l57.699-57.699c6.081 2.758 11.627 6.475 16.445 10.98 0 .01.01.01.01.02 11.819 11.062 19.213 26.78 19.213 44.246z" fill="#78c2a4"/></g><g><path d="m147.001 111.769v84.631c0 44.632 36.181 80.813 80.813 80.813s80.813-36.181 80.813-80.813v-84.631z" fill="#ffddce"/></g><g><path d="m147.001 111.769v84.631c0 44.632 36.181 80.813 80.813 80.813s80.813-36.181 80.813-80.813v-84.631z" fill="#ffddce"/></g><g><path d="m227.814 221.877c-21.741 0-39.365 17.624-39.365 39.365v5.732c11.65 6.513 25.07 10.24 39.365 10.24 14.296 0 27.715-3.727 39.365-10.24v-5.732c0-21.741-17.624-39.365-39.365-39.365z" fill="#e28086"/></g><g><path d="m286.404 111.769v95.428c0 27.56-13.807 51.885-34.87 66.471 33.056-10.136 57.093-40.892 57.093-77.268v-84.631z" fill="#ffcbbe"/></g><g><path d="m340.952 120.638v56.569l-32.325 16.163-45.457-71.499-24.172 19.876c-7.231 5.946-16.302 9.196-25.663 9.196h-32.998l-33.335 42.427-32.325-16.163v-56.569c-.001-62.484 50.653-113.138 113.137-113.138 62.485 0 113.138 50.654 113.138 113.138z" fill="#30579d"/></g><g><path d="m272.747 16.782c22.077 20.647 35.88 50.031 35.88 82.643v61.62h32.325v-40.407c0-46.517-28.077-86.471-68.205-103.856z" fill="#26457d"/></g><g><path d="m324.79 193.37h-16.163v-48.488h16.163c8.926 0 16.163 7.236 16.163 16.163v16.163c-.001 8.926-7.237 16.162-16.163 16.162z" fill="#ffddce"/></g><g><path d="m130.838 193.37h16.163v-48.488h-16.163c-8.926 0-16.163 7.236-16.163 16.163v16.163c.001 8.926 7.237 16.162 16.163 16.162z" fill="#ffddce"/></g><g><path d="m336.017 172.913-95.425 95.425c-5.683 5.683-13.391 8.876-21.429 8.876h-79.233c-33.474 0-60.61 27.136-60.61 60.61v20.203h160.765c16.075 0 31.491-6.386 42.858-17.752l109.503-109.505z" fill="#95d6a4"/></g><g><path d="m363.809 145.12-27.792 27.792 56.336 57.836 28.539-28.485c15.661-15.627 15.833-40.946.386-56.785-15.712-16.107-41.558-16.269-57.469-.358z" fill="#ffcbbe"/></g><g><path d="m376.308 390.93c-4.143 0-7.5 3.357-7.5 7.5v98.57h-54.701v-31.896c0-4.143-3.357-7.5-7.5-7.5s-7.5 3.357-7.5 7.5v31.896h-212.289v-42.23c0-4.143-3.357-7.5-7.5-7.5s-7.5 3.357-7.5 7.5v49.73c0 4.143 3.357 7.5 7.5 7.5h296.99c4.143 0 7.5-3.357 7.5-7.5v-106.07c0-4.143-3.357-7.5-7.5-7.5z"/><path d="m352.992 280.832 6.139-6.138c2.93-2.929 2.93-7.678.001-10.606-2.93-2.929-7.679-2.93-10.606-.001l-70.894 70.883c-9.881 9.89-23.564 15.562-37.544 15.562h-74.55c-12.905 0-24.783 6.469-31.773 17.305l-11.25 17.439c-2.245 3.48-1.244 8.122 2.237 10.368 1.257.811 2.666 1.198 4.059 1.198 2.463 0 4.875-1.212 6.31-3.436l11.25-17.439c4.215-6.534 11.381-10.436 19.168-10.436h74.55c17.931 0 35.482-7.275 48.152-19.957l53.85-53.842c16.378 9.397 26.718 26.972 26.718 46.089v25.609c0 4.143 3.357 7.5 7.5 7.5s7.5-3.357 7.5-7.5v-25.61c-.001-23.146-11.821-44.531-30.817-56.988z"/><path d="m426.646 140.243c-9.01-9.237-21.077-14.369-33.98-14.45-.104-.001-.206-.001-.309-.001-12.788 0-24.8 4.974-33.852 14.024l-10.053 10.053v-29.231c.001-66.52-54.118-120.638-120.638-120.638s-120.638 54.118-120.638 120.638v56.569c0 13.048 10.615 23.663 23.662 23.663h8.779c1.438 28.503 16.546 53.691 39.028 68.84h-38.717c-37.557 0-68.11 30.554-68.11 68.11v20.21 61.739c0 4.143 3.357 7.5 7.5 7.5s7.5-3.357 7.5-7.5v-61.739-20.21c0-29.285 23.825-53.11 53.11-53.11h79.24c1.429-.005 2.854-.079 4.267-.256 8.423-.974 16.432-4.788 22.457-10.81l90.06-90.06 45.956 47.12-8.644 8.644c-2.929 2.929-2.929 7.678.001 10.606 2.928 2.928 7.677 2.929 10.606-.001l42.318-42.381c18.477-18.437 18.682-48.641.457-67.329zm-110.519 41.95v-29.812h8.662c4.776 0 8.663 3.887 8.663 8.663v3.824zm-88.313-167.193c58.249 0 105.639 47.389 105.639 105.638v18.394c-2.685-1.06-5.606-1.65-8.663-1.65h-16.162c-4.143 0-7.5 3.357-7.5 7.5v22.713l-31.629-49.748c-1.152-1.812-3.026-3.044-5.148-3.382-2.119-.338-4.285.249-5.944 1.613l-24.17 19.876c-5.875 4.829-13.298 7.489-20.901 7.489h-32.998c-2.302 0-4.476 1.057-5.897 2.866l-19.938 25.375v-26.803c0-4.143-3.357-7.5-7.5-7.5h-16.163c-3.057 0-5.977.589-8.662 1.649v-18.394c-.002-58.247 47.387-105.636 105.636-105.636zm-105.638 162.207v-16.162c0-4.776 3.886-8.663 8.662-8.663h8.663v33.488h-8.663c-4.776 0-8.662-3.887-8.662-8.663zm32.325 19.193v-.436l29.48-37.521h29.353c11.069 0 21.875-3.872 30.428-10.903l17.625-14.493 40.378 63.509-36.51 36.51c-8.743-11.594-22.553-18.689-37.442-18.689-23.13 0-42.387 16.847-46.177 38.912-16.58-13.506-27.135-34.08-27.135-56.889zm80.785 66.636c-3.508 3.508-8.134 5.773-13.023 6.454-9.385-.702-18.265-3.166-26.315-7.071v-1.176c0-17.571 14.295-31.866 31.866-31.866 10.848 0 20.848 5.545 26.676 14.455zm180.308-66.081-23.132 23.088-44.01-45.125v-3.835l20.659-20.66c6.217-6.217 14.465-9.632 23.247-9.632.07 0 .143 0 .213.001 8.861.056 17.148 3.579 23.336 9.923 12.517 12.835 12.377 33.577-.313 46.24z"/></g></g></svg>