<svg id="Capa_1" enable-background="new 0 0 512 512" height="512" viewBox="0 0 512 512" width="512" xmlns="http://www.w3.org/2000/svg"><g><g><g><path d="m7.5 229.736v21.213h32.325v75.762h90.915v-75.762h32.325v-21.213c0-26.779-21.709-48.488-48.488-48.488h-58.589c-26.779 0-48.488 21.709-48.488 48.488z" fill="#90d8f9"/></g><g><g><path d="m110.537 326.711h20.203v-95.965h-10.102c-5.579 0-10.102 4.523-10.102 10.102z" fill="#6bbef6"/></g><g><path d="m114.577 181.248h-20.203c26.779 0 48.488 21.709 48.488 48.488v21.213h20.203v-21.213c0-26.779-21.709-48.488-48.488-48.488z" fill="#6bbef6"/></g></g><g><path d="m163.065 250.949h-32.325v75.762c0 8.926 7.236 16.163 16.163 16.163 8.926 0 16.163-7.236 16.163-16.163z" fill="#ffddce"/></g><g><path d="m39.825 250.949h-32.325v75.762c0 8.926 7.236 16.163 16.163 16.163 8.926 0 16.163-7.236 16.163-16.163z" fill="#ffddce"/></g><g><circle cx="85.283" cy="140.841" fill="#ffddce" r="40.407"/></g><g><path d="m103.621 104.84c2.81 5.505 4.405 11.734 4.405 18.338 0 22.316-18.091 40.406-40.407 40.406-6.605 0-12.833-1.595-18.338-4.405 6.684 13.095 20.291 22.068 36.002 22.068 22.316 0 40.407-18.091 40.407-40.407-.001-15.71-8.974-29.316-22.069-36z" fill="#ffcbbe"/></g><g><path d="m39.825 326.711h90.915v145.463h-90.915z" fill="#e7a561"/></g><g><path d="m110.537 326.711h20.203v145.463h-20.203z" fill="#e49542"/></g><g><path d="m130.74 504.5h-45.457v-32.325h45.457c5.579 0 10.102 4.523 10.102 10.102v12.122c-.001 5.578-4.523 10.101-10.102 10.101z" fill="#6bbef6"/></g><g><path d="m39.825 504.5h45.457v-32.325h-45.457c-5.579 0-10.102 4.523-10.102 10.102v12.122c.001 5.578 4.523 10.101 10.102 10.101z" fill="#90d8f9"/></g></g><g><g><path d="m348.935 229.736v21.213h32.325v75.762h90.915v-75.762h32.325v-21.213c0-26.779-21.709-48.488-48.488-48.488h-58.589c-26.779 0-48.488 21.709-48.488 48.488z" fill="#e28086"/></g><g><g><path d="m451.972 326.711h20.203v-95.965h-10.102c-5.579 0-10.102 4.523-10.102 10.102z" fill="#dd636e"/></g><g><path d="m456.012 181.248h-20.203c26.779 0 48.488 21.709 48.488 48.488v21.213h20.203v-21.213c0-26.779-21.709-48.488-48.488-48.488z" fill="#dd636e"/></g></g><g><path d="m504.5 250.949h-32.325v75.762c0 8.926 7.236 16.163 16.163 16.163 8.926 0 16.163-7.236 16.163-16.163z" fill="#ffddce"/></g><g><path d="m381.26 250.949h-32.325v75.762c0 8.926 7.236 16.163 16.163 16.163 8.926 0 16.163-7.236 16.163-16.163z" fill="#ffddce"/></g><g><circle cx="426.717" cy="140.841" fill="#ffddce" r="40.407"/></g><g><path d="m445.056 104.84c2.81 5.505 4.405 11.734 4.405 18.338 0 22.316-18.091 40.406-40.407 40.406-6.605 0-12.833-1.595-18.338-4.405 6.684 13.095 20.291 22.068 36.002 22.068 22.316 0 40.407-18.091 40.407-40.407-.001-15.71-8.974-29.316-22.069-36z" fill="#ffcbbe"/></g><g><path d="m381.26 326.711h90.915v145.463h-90.915z" fill="#90d8f9"/></g><g><path d="m451.972 326.711h20.203v145.463h-20.203z" fill="#6bbef6"/></g><g><path d="m472.175 504.5h-45.457v-32.325h45.457c5.579 0 10.102 4.523 10.102 10.102v12.122c-.001 5.578-4.523 10.101-10.102 10.101z" fill="#26457d"/></g><g><path d="m381.26 504.5h45.457v-32.325h-45.457c-5.579 0-10.102 4.523-10.102 10.102v12.122c.001 5.578 4.523 10.101 10.102 10.101z" fill="#30579d"/></g></g><g><g><path d="m119.809 174.001c8.276-8.614 13.38-20.299 13.38-33.159 0-26.416-21.491-47.906-47.906-47.906-26.416 0-47.907 21.491-47.907 47.906 0 12.861 5.104 24.545 13.38 33.159-28.427 2.648-50.756 26.628-50.756 55.735v96.976c0 13.047 10.615 23.663 23.663 23.663 3.059 0 5.981-.59 8.667-1.651v117.651c-5.962 2.822-10.106 8.88-10.106 15.902v12.122c0 9.706 7.896 17.602 17.602 17.602h90.915c9.706 0 17.602-7.896 17.602-17.602v-12.122c0-7.021-4.142-13.077-10.101-15.9v-49.437c0-4.142-3.358-7.5-7.5-7.5s-7.5 3.358-7.5 7.5v47.73h-30.459v-96.113h5.632c4.142 0 7.5-3.358 7.5-7.5s-3.358-7.5-7.5-7.5h-26.265c-4.142 0-7.5 3.358-7.5 7.5s3.358 7.5 7.5 7.5h5.632v96.113h-30.452v-130.459h75.91v47.729c0 4.142 3.358 7.5 7.5 7.5s7.5-3.358 7.5-7.5v-33.215c2.685 1.06 5.605 1.649 8.662 1.649 13.047 0 23.663-10.615 23.663-23.663v-96.976c0-29.106-22.329-53.086-50.756-55.734zm-34.526-66.066c18.145 0 32.906 14.762 32.906 32.906 0 18.145-14.762 32.907-32.906 32.907-18.145 0-32.907-14.762-32.907-32.907 0-18.144 14.762-32.906 32.907-32.906zm-61.62 227.439c-4.776 0-8.663-3.886-8.663-8.663v-68.262h17.325v68.262c0 4.777-3.886 8.663-8.662 8.663zm13.561 159.024v-12.122c0-1.435 1.167-2.602 2.602-2.602h37.958v17.326h-37.959c-1.434 0-2.601-1.167-2.601-2.602zm96.117 0c0 1.435-1.167 2.602-2.602 2.602h-37.956v-17.325h37.957c1.435 0 2.602 1.167 2.602 2.602zm13.561-159.024c-4.773 0-8.657-3.881-8.662-8.653v-.011c0-.003 0-.006 0-.01v-68.251h17.325v68.262c0 4.777-3.886 8.663-8.663 8.663zm8.663-91.925h-17.325v-12.703c0-4.142-3.358-7.5-7.5-7.5s-7.5 3.358-7.5 7.5v88.464h-75.915v-88.464c0-4.142-3.358-7.5-7.5-7.5s-7.5 3.358-7.5 7.5v12.703h-17.325v-13.713c0-22.601 18.387-40.988 40.988-40.988h58.589c22.601 0 40.988 18.387 40.988 40.988z"/><path d="m461.244 174.001c8.276-8.614 13.38-20.299 13.38-33.159 0-26.416-21.491-47.906-47.907-47.906s-47.906 21.491-47.906 47.906c0 12.861 5.104 24.545 13.38 33.159-28.427 2.648-50.756 26.628-50.756 55.735l-.005 36.704c0 4.142 3.358 7.5 7.5 7.5s7.5-3.358 7.5-7.5v-7.991h17.33v68.251.01c0 2.317-.9 4.489-2.543 6.127-1.634 1.633-3.806 2.533-6.117 2.533-4.781 0-8.67-3.885-8.67-8.66v-25.27c0-4.142-3.358-7.5-7.5-7.5s-7.5 3.358-7.5 7.5v25.27c0 13.046 10.618 23.66 23.67 23.66 3.013 0 5.938-.566 8.66-1.635v117.641c-5.959 2.823-10.101 8.879-10.101 15.9v12.122c0 9.706 7.896 17.602 17.602 17.602h90.915c9.706 0 17.602-7.896 17.602-17.602v-12.122c0-7.023-4.144-13.08-10.106-15.902v-49.434c0-4.142-3.358-7.5-7.5-7.5s-7.5 3.358-7.5 7.5v47.73h-30.453v-96.113h5.632c4.142 0 7.5-3.358 7.5-7.5s-3.358-7.5-7.5-7.5h-26.264c-4.142 0-7.5 3.358-7.5 7.5s3.358 7.5 7.5 7.5h5.632v96.113h-30.459v-130.459h75.91v47.729c0 4.142 3.358 7.5 7.5 7.5s7.5-3.358 7.5-7.5v-33.217c2.686 1.062 5.608 1.651 8.667 1.651 13.047 0 23.663-10.615 23.663-23.663v-96.976c0-29.106-22.329-53.086-50.756-55.734zm-34.527-66.066c18.145 0 32.907 14.762 32.907 32.906 0 18.145-14.762 32.907-32.907 32.907s-32.906-14.762-32.906-32.907c0-18.144 14.762-32.906 32.906-32.906zm-70.282 135.514v-13.713c0-22.601 18.387-40.988 40.988-40.988h58.589c22.601 0 40.988 18.387 40.988 40.988v13.713h-17.325v-12.703c0-4.142-3.358-7.5-7.5-7.5s-7.5 3.358-7.5 7.5v88.464h-75.915v-88.464c0-4.142-3.358-7.5-7.5-7.5s-7.5 3.358-7.5 7.5v12.703zm22.224 250.949v-12.122c0-1.435 1.167-2.602 2.602-2.602h37.957v17.326h-37.958c-1.434 0-2.601-1.167-2.601-2.602zm96.117 0c0 1.435-1.167 2.602-2.602 2.602h-37.958v-17.325h37.958c1.435 0 2.602 1.167 2.602 2.602zm13.561-159.024c-4.776 0-8.663-3.886-8.663-8.663v-68.262h17.326v68.262c0 4.777-3.886 8.663-8.663 8.663z"/><path d="m359.289 135.538-25.254-25.254c-2.929-2.929-7.678-2.929-10.606 0-2.929 2.929-2.929 7.678 0 10.606l12.451 12.451h-159.759l12.451-12.451c2.929-2.929 2.929-7.678 0-10.606-2.929-2.929-7.678-2.929-10.606 0l-25.254 25.254c-2.929 2.929-2.929 7.678 0 10.606l25.254 25.254c1.464 1.465 3.384 2.197 5.303 2.197s3.839-.732 5.303-2.197c2.929-2.929 2.929-7.678 0-10.606l-12.451-12.451h159.759l-12.451 12.451c-2.929 2.929-2.929 7.678 0 10.606 1.464 1.464 3.384 2.197 5.303 2.197s3.839-.732 5.303-2.197l25.254-25.254c2.929-2.928 2.929-7.677 0-10.606z"/><path d="m254.266 79.026c4.071.732 7.978-1.972 8.713-6.049l6.833-37.863 11.259 38.163c.026.089.054.177.083.266 1.229 3.658 4.638 6.107 8.494 6.107h.046c3.874-.02 7.281-2.509 8.477-6.194.028-.086.054-.172.079-.259l10.87-38.133 7.26 37.989c.777 4.069 4.706 6.736 8.774 5.959s6.736-4.706 5.959-8.774l-12.051-63.067c-.812-3.984-4.215-6.927-8.275-7.157-4.061-.218-7.772 2.312-9.028 6.18-.028.086-.054.172-.079.259l-12.13 42.552-12.577-42.628c-.026-.089-.054-.178-.083-.266-1.295-3.856-5.042-6.348-9.094-6.088-4.059.272-7.431 3.252-8.215 7.332l-11.363 62.958c-.737 4.077 1.972 7.978 6.048 8.713z"/><path d="m186.806 27.94c4.065.798 8.007-1.85 8.805-5.914.8-4.071 4.4-7.026 8.562-7.026 4.676 0 8.504 3.696 8.716 8.32l-.191 1.497c-.785 3.093-2.633 6.733-5.499 10.827-10.04 14.345-16.031 22.189-19.25 26.404-4.04 5.289-5.883 7.703-4.61 11.841.75 2.438 2.595 4.308 5.062 5.131.986.329 1.931.645 14.391.645 4.836 0 11.408-.047 20.388-.16 4.142-.052 7.457-3.452 7.405-7.594s-3.455-7.488-7.594-7.405c-6.168.078-12.704.129-18.202.143 3.494-4.682 8.289-11.246 14.698-20.403 4.075-5.821 6.734-11.33 7.904-16.372.399-1.767.507-3.83.507-4.148 0-13.083-10.643-23.726-23.726-23.726-11.312 0-21.103 8.047-23.28 19.135-.798 4.065 1.85 8.007 5.914 8.805z"/></g></g></g></svg>