<svg id="Capa_1" enable-background="new 0 0 505 505" height="512" viewBox="0 0 505 505" width="512" xmlns="http://www.w3.org/2000/svg"><g><g><path d="m497.5 370.014v65.75c-49 0-49 30-98 30-48.99 0-48.99-30-97.99-30s-49 30-98 30-49-30-98.01-30c-49 0-49 30-98 30v-125.75c49 0 49 30 98 30s49-30 97.99-30c49 0 49 30 98 30 49.01 0 49.01-30 98.01-30s49 30 98 30z" fill="#85ccf8"/><circle cx="252.5" cy="157.739" fill="#da455f" r="146.488"/><circle cx="252.5" cy="157.739" fill="#416884" r="101.919"/><path d="m346.877 214.58v274.14h-188.76v-274.14c0-22.56 18.29-40.85 40.85-40.85h107.07c22.56 0 40.84 18.29 40.84 40.85z" fill="#85ce64"/><g fill="#75bb61"><path d="m300.118 189.539v300.681h-27v-316.49h11.191c8.731 0 15.809 7.078 15.809 15.809z"/><path d="m249.874 173.73v316.49h-38.867v-296.343c0-11.127 9.02-20.147 20.147-20.147z"/><path d="m227.97 173.731c-22.56 0-40.85 18.29-40.85 40.85v274.14h-29v-274.14c0-22.56 18.29-40.85 40.85-40.85z"/><path d="m497.503 435.76v65.49h-490v-35.49c49 0 49-30 98-30 49.01 0 49.01 30 98.01 30s49-30 98-30 49 30 97.99 30c49 0 49-30 98-30z"/></g></g><g><path d="m367.815 337.657c-3.888 1.428-5.882 5.738-4.454 9.626 1.429 3.888 5.738 5.884 9.626 4.454 7.853-2.884 16.276-4.228 26.51-4.228 22.387 0 33.412 6.75 45.085 13.896 12.329 7.548 26.304 16.104 52.918 16.104 4.143 0 7.5-3.358 7.5-7.5s-3.357-7.5-7.5-7.5c-22.388 0-33.413-6.75-45.086-13.896-12.329-7.548-26.303-16.104-52.917-16.104-11.889.001-22.252 1.684-31.682 5.148z"/><path d="m7.5 347.51c22.386 0 33.411 6.75 45.083 13.896 12.328 7.548 26.302 16.104 52.915 16.104 11.888 0 22.25-1.684 31.679-5.147 3.889-1.428 5.883-5.738 4.454-9.626s-5.738-5.885-9.626-4.454c-7.852 2.884-16.274 4.228-26.507 4.228-22.386 0-33.411-6.75-45.083-13.896-12.328-7.55-26.302-16.105-52.915-16.105-4.143 0-7.5 3.358-7.5 7.5s3.357 7.5 7.5 7.5z"/><path d="m137.161 255.551c1.618 0 3.249-.522 4.622-1.598 3.26-2.555 3.831-7.27 1.275-10.53-19.326-24.657-29.542-54.285-29.542-85.683 0-76.64 62.346-138.99 138.979-138.99 30.472 0 59.397 9.674 83.647 27.978 3.31 2.497 8.01 1.838 10.505-1.468s1.838-8.009-1.468-10.504c-26.873-20.285-58.923-31.006-92.683-31.006-84.904 0-153.979 69.08-153.979 153.99 0 34.785 11.32 67.614 32.737 94.937 1.479 1.887 3.682 2.874 5.907 2.874z"/><path d="m391.486 157.74c0 31.396-10.219 61.028-29.552 85.693-2.556 3.26-1.984 7.975 1.275 10.53 1.373 1.076 3.003 1.598 4.622 1.598 2.226 0 4.429-.986 5.907-2.874 21.424-27.331 32.747-60.163 32.747-94.947 0-39.055-14.643-76.3-41.23-104.875-2.821-3.033-7.566-3.204-10.601-.382-3.032 2.822-3.203 7.567-.381 10.6 23.998 25.79 37.213 59.406 37.213 94.657z"/><path d="m360.069 177.843c1.227-6.586 1.848-13.349 1.848-20.103 0-60.334-49.086-109.42-109.421-109.42-60.334 0-109.42 49.085-109.42 109.42 0 6.753.621 13.517 1.848 20.103.757 4.072 4.671 6.755 8.745 6.001 4.072-.758 6.759-4.674 6.001-8.746-1.058-5.683-1.594-11.522-1.594-17.357 0-52.063 42.356-94.42 94.42-94.42s94.421 42.356 94.421 94.42c0 5.835-.536 11.675-1.594 17.357-.758 4.072 1.929 7.988 6.001 8.746.464.086.925.128 1.381.128 3.542 0 6.693-2.521 7.364-6.129z"/><path d="m346.881 303.73c-4.143 0-7.5 3.358-7.5 7.5v112.984c0 4.142 3.357 7.5 7.5 7.5s7.5-3.358 7.5-7.5v-112.984c0-4.142-3.358-7.5-7.5-7.5z"/><path d="m354.381 214.581c0-26.658-21.688-48.347-48.347-48.347h-107.067c-26.658 0-48.347 21.688-48.347 48.347v209.634c0 4.142 3.357 7.5 7.5 7.5s7.5-3.358 7.5-7.5v-209.634c0-18.387 14.959-33.347 33.347-33.347h107.067c18.388 0 33.347 14.959 33.347 33.347v71.648c0 4.142 3.357 7.5 7.5 7.5s7.5-3.358 7.5-7.5z"/><path d="m497.5 428.264c-26.613 0-40.587 8.555-52.915 16.104-11.672 7.146-22.697 13.896-45.082 13.896-22.386 0-33.41-6.75-45.082-13.896-12.328-7.548-26.302-16.104-52.914-16.104-26.613 0-40.588 8.555-52.916 16.104-11.673 7.146-22.697 13.896-45.083 13.896-22.388 0-33.413-6.75-45.086-13.896-12.329-7.548-26.304-16.104-52.918-16.104s-40.589 8.555-52.918 16.104c-11.673 7.146-22.698 13.896-45.086 13.896-4.143 0-7.5 3.358-7.5 7.5s3.357 7.5 7.5 7.5c26.614 0 40.589-8.555 52.918-16.104 11.673-7.146 22.698-13.896 45.086-13.896s33.413 6.75 45.086 13.896c12.329 7.548 26.304 16.104 52.918 16.104 26.613 0 40.587-8.555 52.915-16.104 11.673-7.146 22.697-13.896 45.084-13.896 22.386 0 33.41 6.75 45.082 13.896 12.328 7.548 26.302 16.104 52.914 16.104s40.586-8.555 52.914-16.104c11.672-7.146 22.697-13.896 45.083-13.896 4.143 0 7.5-3.358 7.5-7.5s-3.357-7.5-7.5-7.5z"/><path d="m311.274 388.559c-1.786-2.718-5.309-3.96-8.411-3.009-3.124.958-5.322 3.905-5.319 7.179.006 6.666 8.482 9.992 13.014 5.074 2.321-2.516 2.595-6.398.716-9.244z"/><path d="m312.541 224.732c0-4.142-3.357-7.5-7.5-7.5s-7.5 3.358-7.5 7.5v145.282c0 4.142 3.357 7.5 7.5 7.5s7.5-3.358 7.5-7.5z"/><path d="m227.596 431.722c4.143 0 7.5-3.358 7.5-7.5v-88.993c0-4.142-3.357-7.5-7.5-7.5s-7.5 3.358-7.5 7.5v88.993c0 4.142 3.357 7.5 7.5 7.5z"/><path d="m235.096 248.73c0-4.142-3.357-7.5-7.5-7.5s-7.5 3.358-7.5 7.5v61.497c0 4.142 3.357 7.5 7.5 7.5s7.5-3.358 7.5-7.5z"/><path d="m220.675 227.599c1.158 2.897 4.184 4.779 7.287 4.62 3.127-.159 5.903-2.309 6.806-5.309 2.008-6.669-5.73-12.302-11.456-8.328-2.843 1.974-3.991 5.816-2.637 9.017z"/><path d="m183.547 224.732v133.493c0 4.142 3.357 7.5 7.5 7.5s7.5-3.358 7.5-7.5v-133.493c0-4.142-3.357-7.5-7.5-7.5s-7.5 3.358-7.5 7.5z"/></g></g></svg>