<svg id="Capa_1" enable-background="new 0 0 512.248 512.248" height="512" viewBox="0 0 512.248 512.248" width="512" xmlns="http://www.w3.org/2000/svg"><g><g><g><path d="m320.426 138.856-16.703 46.183-9.575 27.902h-206.34l-12.642-30.469-15.774-43.615-6.646-12.977 15.455-18.132v-15.01c0-.993.805-1.797 1.797-1.797h8.297c0-41.456 33.607-75.063 75.063-75.063h.715v-6.695c0-1.063.975-1.859 2.017-1.646l33.818 6.909 33.818-6.909c1.042-.213 2.017.583 2.017 1.646v6.692h.715c41.456 0 75.063 33.607 75.063 75.063h8.297c.993 0 1.797.805 1.797 1.797v15.01z" fill="#a79ba7"/></g><path d="m287.802 224.009c10.41 0 18.849-8.439 18.849-18.849v-10.033c0-10.41-8.439-18.849-18.849-18.849h-34.05v47.732h34.05z" fill="#eb9c8d"/><path d="m92.016 224.009c-10.41 0-18.849-8.439-18.849-18.849v-10.033c0-10.41 8.439-18.849 18.849-18.849h38.809v47.732h-38.809z" fill="#d78878"/><g><g><g id="XMLID_539_"><g><path d="m269.228 368.615-62.03 77.89-119.39-50.16 45.29-47 .48.46 5.6-2.28c.8-.33 1.32-1.1 1.32-1.96v-37.87-56.56h96.61v56.56 37.87c0 .86.52 1.63 1.32 1.96l7.57 3.09z" fill="#eb9c8d"/></g></g><path d="m169.822 351.945c0-7.323 6.198-13.039 13.508-12.605 1.679.1 3.363.15 5.053.15 9.782 0 19.417-1.659 28.634-4.929l.741-.263c6.811-2.416 13.275-5.458 19.352-9.034v-17.569-8.619h-67.287v-27.098h67.287v-20.844h-96.61v56.56 37.87c0 .86-.52 1.63-1.32 1.96l-5.6 2.28-.48-.46-42.971 44.594 72.906-23.546c4.116-1.329 6.893-5.176 6.859-9.501z" fill="#d78878"/></g><path d="m264.662 145.104c-.106-.319-.092-14.781-.06-27.256h-163.448v4.432l17.4-1.668-3.481 114.36 19.197 54.505 57.514 29.092 31.575-2.354c33.555-16.045 55.372-50.073 55.372-87.866v-74.192s-13.882-8.49-14.069-9.053z" fill="#f1b0a2"/><path d="m137.638 117.849h-6.813-29.705v110.799c0 41.102 25.795 77.782 64.475 91.683 15.351 5.517 32.139 5.552 47.513.097l.739-.262c3.263-1.158 6.449-2.484 9.523-3.955-7.196-.271-14.382-1.64-21.257-4.111-38.68-13.901-64.475-50.582-64.475-91.683v-20.577c0-6.841 7.387-11.251 13.328-7.859 11.494 6.561 24.787 10.313 38.943 10.313 30.791 0 57.515-17.742 70.488-43.54 1.425-2.833 4.349-4.598 7.521-4.598h10.78v-36.309h-141.06z" fill="#eb9c8d"/><path d="m317.755 139.157c6.762 0 12.244-5.482 12.244-12.244v-6.922c0-6.762-5.482-12.244-12.244-12.244h-255.692c-6.762 0-12.244 5.482-12.244 12.244v6.922c0 6.762 5.482 12.244 12.244 12.244z" fill="#efedef"/><circle cx="189.909" cy="123.452" fill="#c9bfc8" r="63.843"/><circle cx="189.909" cy="123.452" fill="#fee97d" r="25.243"/><g><path d="m117.132 365.915-34.433 4.65-4.33 1.77c-42.78 17.45-70.74 59.06-70.74 105.27v16.103c0 5.99 4.856 10.847 10.847 10.847h101.863l17.3-37.206z" fill="#f9f3f1"/><g id="XMLID_536_"><g><path d="m264.771 369.096-22.743 15.309c-30.62 24.11-73.77 24.11-104.39 0l-20.143-16.689-2.456 112.766 36.678 24.072h76.23l45.015-37.206z" fill="#e5e1e5"/><path d="m299.238 372.335-2.33-.95-31.575 4.45-19.164 108.262 13.169 20.458h99.793c5.99 0 10.847-4.856 10.847-10.847v-16.103c0-46.21-27.959-87.82-70.74-105.27z" fill="#f9f3f1"/><path d="m290.808 456.227 8.416-2.045c4.553-1.106 7.855-5.047 8.147-9.723l4.138-66.229c-3.938-2.187-8.028-4.164-12.271-5.895l-2.33-.95-31.575 4.45-19.164 108.262 13.169 20.458h15.36l9.049-41.113c.783-3.556 3.523-6.356 7.061-7.215z" fill="#f3eae6"/><path d="m293.129 361.415c2.59 1.27 4.16 3.98 3.98 6.85l-.2 3.12-4.31 68.97-20.21 4.91-13.05 59.29h-31.39l14.08-120.15 4.16-35.45c.57-4.89 5.81-7.75 10.24-5.57z" fill="#f9f3f1"/><path d="m124.098 400.373h-29.914c5.76-3.689 11.9-6.898 18.387-9.544l4.33-1.77 4.78-.646-4.549-22.498-34.433 4.65-4.33 1.77c-42.78 17.45-70.74 59.06-70.74 105.27v16.103c0 5.99 4.856 10.847 10.847 10.847h23.354v-8.456c0-24.002 7.551-46.758 20.798-65.535 2.689-3.812 8.662-2.162 8.953 2.494l.78 12.462c.253 4.046 3.111 7.456 7.051 8.412l9.817 2.384c3.318.806 5.887 3.431 6.621 6.765l9.129 41.475h15.359l17.3-37.206z" fill="#f3eae6"/><path d="m82.698 370.565-.14-2.3c-.18-2.87 1.39-5.58 3.98-6.85l36.71-18.03c4.42-2.18 9.66.68 10.23 5.57l4.16 35.45 14.08 120.15h-31.38l-13.05-59.29-20.22-4.91z" fill="#f9f3f1"/></g></g></g><circle cx="384.215" cy="384.414" fill="#c8effe" r="120.334"/><path d="m313.426 384.414c0-57.966 41.001-106.361 95.575-117.782-7.995-1.673-16.293-2.551-24.785-2.551-66.458 0-120.334 53.875-120.334 120.333s53.875 120.333 120.334 120.333c8.492 0 16.79-.882 24.785-2.555-54.574-11.421-95.575-59.812-95.575-117.778z" fill="#99e6fc"/></g></g><g><path d="m189.909 90.709c-18.054 0-32.743 14.688-32.743 32.743s14.688 32.743 32.743 32.743 32.743-14.688 32.743-32.743-14.688-32.743-32.743-32.743zm0 50.485c-9.783 0-17.743-7.959-17.743-17.743s7.959-17.743 17.743-17.743 17.743 7.959 17.743 17.743-7.959 17.743-17.743 17.743z"/><path d="m458.134 280.108c-3.376-2.398-8.06-1.604-10.457 1.774-2.397 3.377-1.604 8.059 1.774 10.457 29.804 21.158 47.598 55.578 47.598 92.074 0 62.217-50.617 112.833-112.833 112.833s-112.834-50.616-112.834-112.832 50.616-112.834 112.833-112.834c13.298 0 26.315 2.291 38.69 6.808 3.892 1.42 8.197-.583 9.617-4.474s-.583-8.197-4.474-9.617c-14.028-5.121-28.776-7.717-43.834-7.717-54.523 0-101.175 34.316-119.514 82.48l-4.896-2.406c-4.257-2.091-9.287-1.986-13.454.283-.586.319-1.137.684-1.667 1.074v-26.095c24.825-18.881 40.482-48.299 41.45-80.408h1.667c14.529 0 26.349-11.82 26.349-26.349v-10.034c0-3.786-.809-7.385-2.253-10.642l14.392-39.795c6.619-3.192 11.209-9.95 11.209-17.776v-6.922c0-10.428-8.132-18.971-18.384-19.675v-7.579c0-5.127-4.171-9.298-9.297-9.298h-1.135c-3.601-39.796-35.561-71.536-75.456-74.788-.147-2.566-1.354-4.941-3.36-6.579-2.145-1.751-4.93-2.44-7.643-1.883l-32.316 6.602-32.316-6.602c-2.713-.556-5.499.132-7.644 1.882-2.006 1.638-3.212 4.012-3.36 6.578-14.5 1.178-28.335 6.136-40.364 14.517-3.399 2.368-4.234 7.042-1.867 10.441 2.369 3.399 7.043 4.234 10.441 1.867 11.36-7.915 24.694-12.098 38.56-12.098h.715c3.996 0 7.263-3.126 7.488-7.066l26.846 5.484c.99.202 2.012.202 3.002 0l26.845-5.484c.225 3.94 3.492 7.066 7.488 7.066h.715c37.254 0 67.563 30.309 67.563 67.563 0 4.142 3.358 7.5 7.5 7.5h2.594v1.808h-46.759c-9.653-27.978-36.232-48.138-67.448-48.138s-57.795 20.161-67.448 48.138h-46.754v-1.808h2.594c4.142 0 7.5-3.358 7.5-7.5 0-12.102 3.25-23.986 9.398-34.367 2.111-3.564.933-8.164-2.631-10.275-3.563-2.11-8.164-.933-10.275 2.631-6.242 10.539-10.041 22.342-11.15 34.51h-1.139c-5.126 0-9.297 4.171-9.297 9.298v7.579c-10.252.704-18.384 9.247-18.384 19.675v6.922c0 7.827 4.589 14.584 11.208 17.776l14.392 39.795c-1.444 3.257-2.253 6.856-2.253 10.642v10.034c0 14.529 11.82 26.349 26.35 26.349h1.654c.237 8.695 1.544 17.328 3.914 25.703.935 3.303 3.942 5.46 7.213 5.46.676 0 1.363-.092 2.046-.285 3.986-1.128 6.302-5.273 5.175-9.259-2.254-7.965-3.397-16.201-3.397-24.48v-81.991h13.841c9.653 27.977 36.232 48.138 67.448 48.138s57.794-20.16 67.448-48.138h13.841v81.691c0 37.99-24.055 72.048-59.855 84.749l-.742.263c-13.703 4.861-28.786 4.83-42.468-.087-17.704-6.362-32.735-17.904-43.469-33.379-2.36-3.403-7.034-4.249-10.437-1.888-3.404 2.361-4.249 7.034-1.888 10.437 5.871 8.464 12.855 15.904 20.734 22.201v26.11c-4.088-2.07-8.932-2.126-13.06-.098l-36.708 18.037c-4.342 2.133-7.27 6.197-8.001 10.835-45.635 18.763-75.105 62.717-75.105 112.08v26.949c0 4.142 3.358 7.5 7.5 7.5s7.5-3.358 7.5-7.5v-26.949c0-41.401 23.667-78.443 60.758-95.958l3.701 59.176c.205 3.279 2.521 6.042 5.712 6.819l15.669 3.812 12.084 54.904c.771 3.502 3.874 5.889 7.317 5.889.534 0 1.077-.057 1.62-.177 4.045-.891 6.603-4.892 5.712-8.937l-13.09-59.474c-.616-2.796-2.77-4.999-5.552-5.675l-14.847-3.612-4.148-66.327 36.028-17.703 18.183 155.084c.482 4.114 4.21 7.062 8.322 6.576 4.114-.482 7.058-4.208 6.575-8.323l-12.23-104.316c13.421 7.117 28.154 10.694 42.894 10.694 14.742 0 29.474-3.581 42.895-10.701l-12.231 104.324c-.482 4.114 2.461 7.84 6.575 8.322.297.035.591.052.883.052 3.751 0 6.992-2.81 7.44-6.627l18.182-155.084 6.506 3.197c-2.462 9.891-3.778 20.23-3.778 30.872 0 19.465 4.381 37.925 12.196 54.455-1.726 1.047-2.995 2.758-3.443 4.793l-13.089 59.474c-.89 4.045 1.667 8.047 5.712 8.937.543.12 1.085.177 1.62.177 3.444 0 6.546-2.387 7.317-5.89l11.227-51.01c22.953 34.281 62.03 56.898 106.293 56.898 70.488 0 127.834-57.346 127.834-127.833.002-41.348-20.154-80.34-53.913-104.306zm-158.982-74.948c0 6.258-5.091 11.349-11.349 11.349h-1.604v-32.732h1.604c6.258 0 11.349 5.091 11.349 11.35zm-218.485 0v-10.034c0-6.258 5.091-11.35 11.35-11.35h1.604v32.732h-1.604c-6.259.001-11.35-5.091-11.35-11.348zm12.954-36.384h-1.604c-4.583 0-8.896 1.178-12.654 3.245l-9.173-25.364h23.432v22.119zm-31.558-37.119c-2.616 0-4.744-2.128-4.744-4.744v-6.922c0-2.616 2.128-4.744 4.744-4.744h56.989c-.31 2.694-.486 5.429-.486 8.205s.176 5.511.486 8.206h-56.989zm127.846 48.138c-31.068 0-56.343-25.275-56.343-56.343s25.275-56.343 56.343-56.343 56.343 25.275 56.343 56.343-25.275 56.343-56.343 56.343zm70.857-64.548h56.989c2.616 0 4.744 2.128 4.744 4.744v6.922c0 2.616-2.128 4.744-4.744 4.744h-56.989c.31-2.695.486-5.429.486-8.206.001-2.776-.176-5.51-.486-8.204zm48.863 31.41-9.173 25.364c-3.758-2.066-8.07-3.245-12.653-3.245h-1.604v-22.119zm-164.843 233.698-3.019-25.753.322-.131c3.635-1.483 5.983-4.978 5.983-8.903v-24.919c4.778 2.614 9.783 4.87 14.987 6.74 8.518 3.062 17.474 4.593 26.431 4.593 8.848 0 17.696-1.495 26.123-4.484l.742-.263c4.621-1.64 9.064-3.601 13.331-5.823v24.156c0 3.925 2.348 7.42 5.982 8.903l2.29.934-2.925 24.95c-26.981 19.583-63.266 19.584-90.247 0z"/><path d="m293.001 348.822v71.184c0 4.142 3.358 7.5 7.5 7.5s7.5-3.358 7.5-7.5v-71.184c0-4.142-3.358-7.5-7.5-7.5s-7.5 3.358-7.5 7.5z"/><path d="m367.565 356.322c5.63 0 11.06 1.657 15.701 4.793 3.432 2.318 8.094 1.417 10.413-2.016 2.319-3.432 1.417-8.094-2.016-10.413-7.13-4.818-15.463-7.364-24.098-7.364-23.761 0-43.092 19.331-43.092 43.092s19.331 43.092 43.092 43.092c9.456 0 17.935-3.101 24.522-8.966 1.29-1.149 2.517-2.415 3.646-3.761 2.662-3.174 2.247-7.904-.926-10.566-3.174-2.662-7.905-2.248-10.566.926-.665.792-1.381 1.532-2.13 2.199-3.851 3.429-8.745 5.168-14.546 5.168-15.49 0-28.092-12.602-28.092-28.092s12.602-28.092 28.092-28.092z"/><path d="m427.701 397.95v-49.515c0-4.142-3.358-7.5-7.5-7.5s-7.5 3.358-7.5 7.5v49.515c0 10.461 4.825 18.628 14.75 24.969 5.151 3.292 10.969 4.965 17.292 4.974h.051c5.458 0 10.579-1.185 15.22-3.521 14.619-7.362 17.688-18.46 17.688-26.473v-49.462c0-4.142-3.358-7.5-7.5-7.5s-7.5 3.358-7.5 7.5v49.462c0 3.574-.978 8.817-9.434 13.076-2.528 1.273-5.379 1.918-8.474 1.918-.01 0-.02 0-.03 0-3.47-.005-6.491-.859-9.236-2.614-5.56-3.552-7.827-7.124-7.827-12.329z"/></g></g></svg>