<?xml version="1.0" encoding="iso-8859-1"?>
<!-- Generator: Adobe Illustrator 19.0.0, SVG Export Plug-In . SVG Version: 6.00 Build 0)  -->
<svg version="1.1" id="Capa_1" xmlns="http://www.w3.org/2000/svg" xmlns:xlink="http://www.w3.org/1999/xlink" x="0px" y="0px"
	 viewBox="0 0 512 512" style="enable-background:new 0 0 512 512;" xml:space="preserve">
<path style="fill:#FFFFFF;" d="M82,431.716H50c-22.091,0-40-17.909-40-40V50c0-22.091,17.909-40,40-40h412c22.091,0,40,17.909,40,40
	v341.716c0,22.091-17.909,40-40,40h-41H82z"/>
<path style="fill:#FF5A5A;" d="M462,10H50c-22.091,0-40,17.909-40,40v32h492V50C502,27.909,484.091,10,462,10z"/>
<path style="fill:#231F20;" d="M21.004,82H496"/>
<rect x="56" y="392" style="fill:#A5DC69;" width="64" height="110"/>
<rect x="280" y="366" style="fill:#78D2FA;" width="64" height="136"/>
<rect x="168" y="281.43" style="fill:#F5C86E;" width="64" height="220.57"/>
<rect x="392" y="266.5" style="fill:#FF5A5A;" width="64" height="235.5"/>
<circle style="fill:#F5C86E;" cx="194.37" cy="171.94" r="26"/>
<circle style="fill:#78D2FA;" cx="311.07" cy="291" r="26"/>
<circle style="fill:#FF5A5A;" cx="424" cy="171.94" r="26"/>
<circle style="fill:#A5DC69;" cx="87.34" cy="281.43" r="26"/>
<path d="M477.083,440.502c19.253,0,34.917-15.664,34.917-34.918V50c0-27.57-22.43-50-50-50H50C22.43,0,0,22.43,0,50v355.584
	c0,19.254,15.664,34.918,34.917,34.918H46V492H10c-5.523,0-10,4.478-10,10s4.477,10,10,10h492c5.523,0,10-4.478,10-10
	s-4.477-10-10-10h-36v-51.498H477.083z M50,20h412c16.542,0,30,13.458,30,30v22H21.004c-0.339,0-0.674,0.018-1.004,0.051V50
	C20,33.458,33.458,20,50,20z M66,492v-90h44v90H66z M178,492V291.432h44V492H178z M290,492V376h44v116H290z M402,492V384.25
	c0-5.522-4.477-10-10-10s-10,4.478-10,10V492h-28V366c0-5.522-4.477-10-10-10h-64c-5.523,0-10,4.478-10,10v126h-28V281.432
	c0-5.522-4.477-10-10-10h-64c-5.523,0-10,4.478-10,10V492h-28V392c0-5.522-4.477-10-10-10H56c-5.523,0-10,4.478-10,10v28.502H34.917
	c-8.226,0-14.917-6.692-14.917-14.918V91.949C20.33,91.982,20.665,92,21.004,92H492v313.584c0,8.226-6.692,14.918-14.917,14.918H466
	V266.5c0-5.522-4.477-10-10-10h-64c-5.523,0-10,4.478-10,10v50.499c0,5.522,4.477,10,10,10s10-4.478,10-10V276.5h44V492H402z"/>
<path d="M222.065,56H448c5.523,0,10-4.478,10-10s-4.477-10-10-10H222.065c-5.523,0-10,4.478-10,10S216.542,56,222.065,56z"/>
<path d="M104,56c2.63,0,5.21-1.07,7.07-2.931C112.93,51.21,114,48.63,114,46s-1.07-5.21-2.93-7.07S106.63,36,104,36
	s-5.21,1.069-7.07,2.93C95.07,40.79,94,43.37,94,46s1.07,5.21,2.93,7.069C98.79,54.93,101.37,56,104,56z"/>
<path d="M64,56c2.63,0,5.21-1.07,7.07-2.931C72.93,51.21,74,48.63,74,46s-1.07-5.21-2.93-7.07S66.63,36,64,36
	c-2.63,0-5.21,1.069-7.07,2.93C55.07,40.79,54,43.37,54,46s1.07,5.21,2.93,7.069C58.79,54.93,61.37,56,64,56z"/>
<path d="M144,56c2.63,0,5.21-1.07,7.07-2.931C152.93,51.21,154,48.63,154,46s-1.07-5.21-2.93-7.07S146.64,36,144,36
	c-2.63,0-5.21,1.069-7.07,2.93C135.07,40.79,134,43.37,134,46s1.07,5.21,2.93,7.069C138.79,54.93,141.37,56,144,56z"/>
<path d="M392,342.64c-2.63,0-5.21,1.061-7.07,2.93c-1.86,1.86-2.93,4.44-2.93,7.07s1.07,5.21,2.93,7.07
	c1.86,1.859,4.44,2.93,7.07,2.93s5.21-1.07,7.07-2.93c1.86-1.86,2.93-4.44,2.93-7.07c0-2.64-1.07-5.21-2.93-7.07
	C397.21,343.7,394.63,342.64,392,342.64z"/>
<path d="M424,207.939c19.851,0,36-16.149,36-36s-16.149-36-36-36s-36,16.149-36,36c0,7.885,2.555,15.181,6.871,21.118
	l-66.425,66.425c-5.155-2.853-11.077-4.483-17.375-4.483c-5.675,0-11.045,1.325-15.824,3.674l-69.359-69.359
	c2.853-5.155,4.483-11.077,4.483-17.375c0-19.851-16.149-36-36-36s-36,16.149-36,36c0,6.938,1.978,13.42,5.392,18.922
	l-59.053,59.052c-5.155-2.853-11.077-4.483-17.374-4.483c-19.851,0-36,16.149-36,36s16.149,36,36,36s36-16.149,36-36
	c0-6.298-1.63-12.22-4.483-17.375l59.758-59.758c4.763,2.329,10.111,3.641,15.76,3.641c6.297,0,12.219-1.63,17.374-4.483
	l68.68,68.679c-3.391,5.49-5.354,11.95-5.354,18.863c0,19.851,16.149,36,36,36s36-16.149,36-36c0-6.298-1.63-12.22-4.483-17.375
	l68.205-68.205C414.886,207.039,419.339,207.939,424,207.939z M424,155.939c8.822,0,16,7.178,16,16s-7.178,16-16,16s-16-7.178-16-16
	S415.178,155.939,424,155.939z M87.337,297.432c-8.822,0-16-7.178-16-16s7.178-16,16-16s16,7.178,16,16
	S96.159,297.432,87.337,297.432z M194.372,187.939c-8.822,0-16-7.178-16-16s7.178-16,16-16s16,7.178,16,16
	S203.194,187.939,194.372,187.939z M311.072,306.999c-8.822,0-16-7.178-16-16s7.178-16,16-16s16,7.178,16,16
	S319.894,306.999,311.072,306.999z"/>
<path d="M141.26,146.02c2.63,0,5.2-1.069,7.07-2.93c1.86-1.86,2.93-4.44,2.93-7.07s-1.07-5.21-2.93-7.069
	c-1.87-1.86-4.44-2.931-7.07-2.931c-2.64,0-5.22,1.07-7.08,2.931c-1.86,1.859-2.92,4.439-2.92,7.069s1.06,5.21,2.92,7.07
	C136.05,144.95,138.62,146.02,141.26,146.02z"/>
<path d="M56,146.021h48c5.523,0,10-4.478,10-10s-4.477-10-10-10H56c-5.523,0-10,4.478-10,10S50.477,146.021,56,146.021z"/>
<path d="M104,194.021c5.523,0,10-4.478,10-10s-4.477-10-10-10H56c-5.523,0-10,4.478-10,10s4.477,10,10,10H104z"/>
<g>
</g>
<g>
</g>
<g>
</g>
<g>
</g>
<g>
</g>
<g>
</g>
<g>
</g>
<g>
</g>
<g>
</g>
<g>
</g>
<g>
</g>
<g>
</g>
<g>
</g>
<g>
</g>
<g>
</g>
</svg>
