<?xml version="1.0" encoding="utf-8" standalone="no"?>
<!DOCTYPE svg PUBLIC "-//W3C//DTD SVG 1.1//EN"
  "http://www.w3.org/Graphics/SVG/1.1/DTD/svg11.dtd">
<!-- Created with matplotlib (https://matplotlib.org/) -->
<svg height="144pt" version="1.1" viewBox="0 0 144 144" width="144pt" xmlns="http://www.w3.org/2000/svg" xmlns:xlink="http://www.w3.org/1999/xlink">
 <metadata>
  <rdf:RDF xmlns:cc="http://creativecommons.org/ns#" xmlns:dc="http://purl.org/dc/elements/1.1/" xmlns:rdf="http://www.w3.org/1999/02/22-rdf-syntax-ns#">
   <cc:Work>
    <dc:type rdf:resource="http://purl.org/dc/dcmitype/StillImage"/>
    <dc:date>2021-08-17T11:41:03.732907</dc:date>
    <dc:format>image/svg+xml</dc:format>
    <dc:creator>
     <cc:Agent>
      <dc:title>Matplotlib v3.3.2, https://matplotlib.org/</dc:title>
     </cc:Agent>
    </dc:creator>
   </cc:Work>
  </rdf:RDF>
 </metadata>
 <defs>
  <style type="text/css">*{stroke-linecap:butt;stroke-linejoin:round;}</style>
 </defs>
 <g id="figure_1">
  <g id="patch_1">
   <path d="M 0 144 
L 144 144 
L 144 0 
L 0 0 
z
" style="fill:#ffffff;"/>
  </g>
  <g id="axes_1">
   <g id="patch_2">
    <path d="M 0 144 
L 144 144 
L 144 0 
L 0 0 
z
" style="fill:#ffffff;"/>
   </g>
   <g id="line2d_1">
    <path clip-path="url(#p866166024b)" d="M 6.545455 119.565123 
L 7.271383 119.30436 
L 7.997311 118.809556 
L 8.481264 118.176677 
L 8.965216 117.190714 
L 9.449168 115.600216 
L 9.93312 113.303145 
L 10.659049 108.299636 
L 11.143001 103.953705 
L 11.86893 96.491159 
L 12.836834 86.400729 
L 13.804739 71.750169 
L 14.772643 55.779997 
L 15.014619 53.498313 
L 15.256596 52.276286 
L 15.498572 51.884735 
L 15.740548 52.803482 
L 16.2245 56.141585 
L 18.644261 82.173033 
L 19.854142 91.394925 
L 20.822047 97.396545 
L 21.547975 101.09259 
L 22.273904 104.151707 
L 22.999832 106.415576 
L 24.451689 109.483601 
L 24.935641 110.081253 
L 25.661569 110.433527 
L 26.87145 111.506141 
L 29.775164 115.168174 
L 31.468997 116.941288 
L 33.16283 118.150358 
L 33.888758 118.229721 
L 36.066543 118.178297 
L 36.792472 118.099339 
L 38.244329 118.318397 
L 38.970257 118.44392 
L 40.422114 118.607504 
L 42.599899 118.270617 
L 45.261637 116.793899 
L 45.745589 116.378054 
L 45.987565 116.098664 
L 49.617207 114.876232 
L 50.101159 114.851937 
L 52.036969 115.702659 
L 52.520921 115.501822 
L 53.004873 115.005399 
L 53.488825 114.242948 
L 54.214754 112.247942 
L 54.940682 109.041436 
L 56.392539 100.428533 
L 58.570324 84.44176 
L 59.296253 80.226211 
L 61.232062 71.854636 
L 61.716014 68.377649 
L 62.199966 64.799028 
L 62.925895 61.190444 
L 63.409847 59.516129 
L 63.893799 57.553516 
L 64.377752 56.834796 
L 64.861704 55.818869 
L 65.10368 55.922122 
L 65.587632 56.547712 
L 67.039489 59.384937 
L 68.007394 62.152112 
L 69.701227 68.747334 
L 70.185179 70.940343 
L 70.669131 72.348225 
L 71.637036 75.204886 
L 71.879012 75.569308 
L 72.120988 75.672155 
L 72.60494 76.335808 
L 72.846916 76.831421 
L 73.088893 77.034283 
L 73.572845 77.596302 
L 73.814821 77.697935 
L 74.540749 78.341747 
L 74.782726 78.323121 
L 75.266678 78.69807 
L 75.75063 78.7912 
L 75.992606 78.686732 
L 76.960511 76.864219 
L 77.928415 73.333783 
L 78.412368 70.497368 
L 80.348177 54.796869 
L 80.590153 53.560669 
L 81.074105 52.641922 
L 81.316081 52.8379 
L 81.558057 53.382508 
L 82.04201 55.841139 
L 82.525962 59.153327 
L 83.735843 68.056553 
L 84.461771 70.314752 
L 85.1877 71.384937 
L 85.429676 71.514104 
L 85.671652 71.413281 
L 85.913628 71.770819 
L 86.39758 72.926846 
L 87.123509 73.642732 
L 87.607461 73.972736 
L 89.785246 78.220678 
L 90.027222 78.541369 
L 91.721055 82.060062 
L 91.963031 82.202591 
L 92.205008 82.166149 
L 93.172912 81.037657 
L 93.414888 80.891888 
L 93.656864 81.006479 
L 94.382793 80.951006 
L 94.866745 81.325955 
L 95.350697 81.653934 
L 95.592674 81.684708 
L 95.83465 81.594817 
L 96.318602 81.76974 
L 96.560578 82.007423 
L 96.802554 82.062087 
L 97.286506 81.653529 
L 98.980339 78.72034 
L 99.706268 77.651775 
L 100.432196 75.58186 
L 101.884053 70.168174 
L 102.368005 68.099069 
L 103.093934 64.136996 
L 103.819862 61.096909 
L 104.545791 58.502227 
L 105.513695 56.644891 
L 105.997647 55.273046 
L 106.4816 53.862735 
L 106.723576 53.458631 
L 107.933457 49.944797 
L 108.659385 47.363882 
L 109.385313 45.213389 
L 109.62729 45 
L 109.869266 45.054258 
L 110.353218 45.626805 
L 111.079146 48.110136 
L 111.805075 52.358888 
L 113.014955 60.434472 
L 113.498908 63.113376 
L 113.98286 65.247267 
L 114.950765 69.981104 
L 116.160645 78.124308 
L 117.854478 91.083142 
L 118.822383 95.592658 
L 119.548311 97.781212 
L 120.758192 101.277635 
L 122.210049 106.407477 
L 122.694001 108.065596 
L 124.387834 112.411122 
L 125.355739 113.968822 
L 126.807595 115.569847 
L 126.807595 115.569847 
" style="fill:none;stroke:#add8e6;stroke-linecap:square;stroke-width:1.5;"/>
   </g>
   <g id="line2d_2">
    <path clip-path="url(#p866166024b)" d="M 31.952949 116.088339 
L 34.37271 116.939751 
L 35.582591 117.175647 
L 35.824567 117.241713 
L 38.486305 117.325336 
L 40.66409 116.854435 
L 40.906066 116.69715 
L 42.115947 116.508699 
L 42.357923 116.30134 
L 43.325828 115.819348 
L 47.197446 111.988326 
L 48.16535 111.52205 
L 49.859183 111.278306 
L 51.069064 111.253506 
L 52.036969 111.135958 
L 52.762897 110.71206 
L 53.246849 110.21405 
L 53.972778 109.16566 
L 54.698706 107.729941 
L 56.634515 102.78482 
L 58.086372 98.413875 
L 59.054277 94.996229 
L 59.780205 91.806418 
L 60.506133 87.747969 
L 61.716014 79.289463 
L 63.651823 64.961109 
L 64.619728 59.296581 
L 65.587632 54.771639 
L 66.071585 53.231733 
L 66.313561 52.712921 
L 66.555537 52.457119 
L 66.797513 52.420316 
L 67.039489 52.546595 
L 67.281465 52.890867 
L 67.523441 53.447096 
L 68.007394 55.340694 
L 69.217274 62.31479 
L 70.185179 67.616451 
L 70.911107 70.31907 
L 71.637036 72.182039 
L 72.60494 74.070316 
L 73.330869 75.343075 
L 73.814821 75.857938 
L 74.056797 75.951898 
L 74.540749 75.834132 
L 74.782726 75.648208 
L 75.266678 74.79094 
L 75.75063 73.028297 
L 76.718535 67.455702 
L 77.686439 60.141635 
L 78.89632 51.084396 
L 79.380272 48.854547 
L 79.864225 47.741551 
L 80.106201 47.508769 
L 80.348177 47.574111 
L 80.832129 48.668837 
L 81.316081 50.501795 
L 83.25189 59.909373 
L 83.735843 61.022483 
L 85.913628 68.254189 
L 87.607461 72.965625 
L 88.817342 75.734102 
L 91.237103 81.966578 
L 92.205008 83.72684 
L 92.68896 84.208421 
L 93.414888 83.432081 
L 94.140817 82.267928 
L 94.624769 81.147276 
L 95.592674 78.547365 
L 96.076626 77.617024 
L 96.802554 76.697805 
L 97.528483 75.747543 
L 98.496387 74.028904 
L 98.980339 72.75201 
L 99.948244 69.205489 
L 102.368005 59.326733 
L 103.093934 57.097703 
L 103.577886 56.45661 
L 104.061838 56.32533 
L 105.029743 56.677656 
L 106.239624 57.527125 
L 106.965552 56.752876 
L 108.901361 54.331354 
L 109.385313 54.240916 
L 109.62729 54.407438 
L 109.869266 54.735223 
L 110.595194 56.779075 
L 112.289027 63.042695 
L 113.014955 65.940147 
L 113.740884 68.001549 
L 114.708788 71.654781 
L 115.192741 73.777836 
L 118.096454 88.358079 
L 121.000168 98.4685 
L 121.48412 99.315663 
L 122.452025 102.551174 
L 122.935977 103.29405 
L 124.145858 106.533711 
L 124.871786 107.31647 
L 125.355739 107.806293 
L 125.597715 107.849033 
L 125.839691 107.655643 
L 126.081667 107.113056 
L 126.565619 104.753819 
L 127.049572 101.20692 
L 127.533524 96.032235 
L 128.259452 85.197736 
L 129.469333 66.093181 
L 130.195261 58.913914 
L 130.437237 57.507764 
L 130.679214 56.833541 
L 130.92119 56.964847 
L 131.405142 57.83047 
L 131.889094 60.483135 
L 132.615023 66.887736 
L 133.824903 77.573592 
L 134.308856 80.727027 
L 135.034784 83.876951 
L 135.518736 85.142511 
L 136.002689 85.893099 
L 137.454545 87.649751 
L 137.454545 87.649751 
" style="fill:none;stroke:#ff0000;stroke-linecap:square;stroke-width:1.5;"/>
   </g>
   <g id="patch_3">
    <path d="M 0 144 
L 0 0 
" style="fill:none;stroke:#ffffff;stroke-linecap:square;stroke-linejoin:miter;stroke-width:0.8;"/>
   </g>
   <g id="patch_4">
    <path d="M 144 144 
L 144 0 
" style="fill:none;stroke:#ffffff;stroke-linecap:square;stroke-linejoin:miter;stroke-width:0.8;"/>
   </g>
   <g id="patch_5">
    <path d="M 0 144 
L 144 144 
" style="fill:none;stroke:#ffffff;stroke-linecap:square;stroke-linejoin:miter;stroke-width:0.8;"/>
   </g>
   <g id="patch_6">
    <path d="M 0 0 
L 144 0 
" style="fill:none;stroke:#ffffff;stroke-linecap:square;stroke-linejoin:miter;stroke-width:0.8;"/>
   </g>
  </g>
  <g id="text_1">
   <g id="patch_7">
    <path d="M -64.84815 36.3681 
L 208.84815 36.3681 
L 208.84815 -7.65432 
L -64.84815 -7.65432 
z
" style="fill:#ffff00;stroke:#ffff00;stroke-linejoin:miter;"/>
   </g>
   <!--  -->
   <g transform="translate(72 9.45018)scale(0.1728 -0.1728)"/>
   <!--            CORONADATA            -->
   <g transform="translate(-60.87375 28.8)scale(0.1728 -0.1728)">
    <defs>
     <path id="DejaVuSans-Bold-32"/>
     <path d="M 67 4 
Q 61.8125 1.3125 56.203125 -0.046875 
Q 50.59375 -1.421875 44.484375 -1.421875 
Q 26.265625 -1.421875 15.625 8.765625 
Q 4.984375 18.953125 4.984375 36.375 
Q 4.984375 53.859375 15.625 64.03125 
Q 26.265625 74.21875 44.484375 74.21875 
Q 50.59375 74.21875 56.203125 72.84375 
Q 61.8125 71.484375 67 68.796875 
L 67 53.71875 
Q 61.765625 57.28125 56.6875 58.9375 
Q 51.609375 60.59375 46 60.59375 
Q 35.9375 60.59375 30.171875 54.140625 
Q 24.421875 47.703125 24.421875 36.375 
Q 24.421875 25.09375 30.171875 18.640625 
Q 35.9375 12.203125 46 12.203125 
Q 51.609375 12.203125 56.6875 13.859375 
Q 61.765625 15.53125 67 19.09375 
z
" id="DejaVuSans-Bold-67"/>
     <path d="M 42.484375 60.59375 
Q 33.890625 60.59375 29.15625 54.25 
Q 24.421875 47.90625 24.421875 36.375 
Q 24.421875 24.90625 29.15625 18.546875 
Q 33.890625 12.203125 42.484375 12.203125 
Q 51.125 12.203125 55.859375 18.546875 
Q 60.59375 24.90625 60.59375 36.375 
Q 60.59375 47.90625 55.859375 54.25 
Q 51.125 60.59375 42.484375 60.59375 
z
M 42.484375 74.21875 
Q 60.0625 74.21875 70.015625 64.15625 
Q 79.984375 54.109375 79.984375 36.375 
Q 79.984375 18.703125 70.015625 8.640625 
Q 60.0625 -1.421875 42.484375 -1.421875 
Q 24.953125 -1.421875 14.96875 8.640625 
Q 4.984375 18.703125 4.984375 36.375 
Q 4.984375 54.109375 14.96875 64.15625 
Q 24.953125 74.21875 42.484375 74.21875 
z
" id="DejaVuSans-Bold-79"/>
     <path d="M 35.890625 40.578125 
Q 41.796875 40.578125 44.359375 42.765625 
Q 46.921875 44.96875 46.921875 50 
Q 46.921875 54.984375 44.359375 57.125 
Q 41.796875 59.28125 35.890625 59.28125 
L 27.984375 59.28125 
L 27.984375 40.578125 
z
M 27.984375 27.59375 
L 27.984375 0 
L 9.1875 0 
L 9.1875 72.90625 
L 37.890625 72.90625 
Q 52.296875 72.90625 59 68.0625 
Q 65.71875 63.234375 65.71875 52.78125 
Q 65.71875 45.5625 62.21875 40.921875 
Q 58.734375 36.28125 51.703125 34.078125 
Q 55.5625 33.203125 58.609375 30.09375 
Q 61.671875 27 64.796875 20.703125 
L 75 0 
L 54.984375 0 
L 46.09375 18.109375 
Q 43.40625 23.578125 40.640625 25.578125 
Q 37.890625 27.59375 33.296875 27.59375 
z
" id="DejaVuSans-Bold-82"/>
     <path d="M 9.1875 72.90625 
L 30.171875 72.90625 
L 56.6875 22.90625 
L 56.6875 72.90625 
L 74.515625 72.90625 
L 74.515625 0 
L 53.515625 0 
L 27 50 
L 27 0 
L 9.1875 0 
z
" id="DejaVuSans-Bold-78"/>
     <path d="M 53.421875 13.28125 
L 24.03125 13.28125 
L 19.390625 0 
L 0.484375 0 
L 27.484375 72.90625 
L 49.90625 72.90625 
L 76.90625 0 
L 58.015625 0 
z
M 28.71875 26.8125 
L 48.6875 26.8125 
L 38.71875 55.8125 
z
" id="DejaVuSans-Bold-65"/>
     <path d="M 27.984375 58.6875 
L 27.984375 14.203125 
L 34.71875 14.203125 
Q 46.234375 14.203125 52.3125 19.921875 
Q 58.40625 25.640625 58.40625 36.53125 
Q 58.40625 47.359375 52.34375 53.015625 
Q 46.296875 58.6875 34.71875 58.6875 
z
M 9.1875 72.90625 
L 29 72.90625 
Q 45.609375 72.90625 53.734375 70.53125 
Q 61.859375 68.171875 67.671875 62.5 
Q 72.796875 57.5625 75.28125 51.109375 
Q 77.78125 44.671875 77.78125 36.53125 
Q 77.78125 28.265625 75.28125 21.796875 
Q 72.796875 15.328125 67.671875 10.40625 
Q 61.8125 4.734375 53.609375 2.359375 
Q 45.40625 0 29 0 
L 9.1875 0 
z
" id="DejaVuSans-Bold-68"/>
     <path d="M 0.484375 72.90625 
L 67.671875 72.90625 
L 67.671875 58.6875 
L 43.5 58.6875 
L 43.5 0 
L 24.703125 0 
L 24.703125 58.6875 
L 0.484375 58.6875 
z
" id="DejaVuSans-Bold-84"/>
    </defs>
    <use xlink:href="#DejaVuSans-Bold-32"/>
    <use x="34.814453" xlink:href="#DejaVuSans-Bold-32"/>
    <use x="69.628906" xlink:href="#DejaVuSans-Bold-32"/>
    <use x="104.443359" xlink:href="#DejaVuSans-Bold-32"/>
    <use x="139.257812" xlink:href="#DejaVuSans-Bold-32"/>
    <use x="174.072266" xlink:href="#DejaVuSans-Bold-32"/>
    <use x="208.886719" xlink:href="#DejaVuSans-Bold-32"/>
    <use x="243.701172" xlink:href="#DejaVuSans-Bold-32"/>
    <use x="278.515625" xlink:href="#DejaVuSans-Bold-32"/>
    <use x="313.330078" xlink:href="#DejaVuSans-Bold-32"/>
    <use x="348.144531" xlink:href="#DejaVuSans-Bold-32"/>
    <use x="382.958984" xlink:href="#DejaVuSans-Bold-67"/>
    <use x="456.347656" xlink:href="#DejaVuSans-Bold-79"/>
    <use x="541.357422" xlink:href="#DejaVuSans-Bold-82"/>
    <use x="618.359375" xlink:href="#DejaVuSans-Bold-79"/>
    <use x="703.369141" xlink:href="#DejaVuSans-Bold-78"/>
    <use x="787.060547" xlink:href="#DejaVuSans-Bold-65"/>
    <use x="864.453125" xlink:href="#DejaVuSans-Bold-68"/>
    <use x="947.460938" xlink:href="#DejaVuSans-Bold-65"/>
    <use x="1017.103516" xlink:href="#DejaVuSans-Bold-84"/>
    <use x="1077.566406" xlink:href="#DejaVuSans-Bold-65"/>
    <use x="1154.958984" xlink:href="#DejaVuSans-Bold-32"/>
    <use x="1189.773438" xlink:href="#DejaVuSans-Bold-32"/>
    <use x="1224.587891" xlink:href="#DejaVuSans-Bold-32"/>
    <use x="1259.402344" xlink:href="#DejaVuSans-Bold-32"/>
    <use x="1294.216797" xlink:href="#DejaVuSans-Bold-32"/>
    <use x="1329.03125" xlink:href="#DejaVuSans-Bold-32"/>
    <use x="1363.845703" xlink:href="#DejaVuSans-Bold-32"/>
    <use x="1398.660156" xlink:href="#DejaVuSans-Bold-32"/>
    <use x="1433.474609" xlink:href="#DejaVuSans-Bold-32"/>
    <use x="1468.289062" xlink:href="#DejaVuSans-Bold-32"/>
    <use x="1503.103516" xlink:href="#DejaVuSans-Bold-32"/>
   </g>
  </g>
  <g id="text_2">
   <!-- Rt=0,87 -->
   <g style="fill:#4169e1;opacity:0.5;" transform="translate(26.46875 141.12)scale(0.2 -0.2)">
    <defs>
     <path d="M 27.484375 70.21875 
L 27.484375 54.6875 
L 45.515625 54.6875 
L 45.515625 42.1875 
L 27.484375 42.1875 
L 27.484375 19 
Q 27.484375 15.1875 29 13.84375 
Q 30.515625 12.5 35.015625 12.5 
L 44 12.5 
L 44 0 
L 29 0 
Q 18.65625 0 14.328125 4.3125 
Q 10.015625 8.640625 10.015625 19 
L 10.015625 42.1875 
L 1.3125 42.1875 
L 1.3125 54.6875 
L 10.015625 54.6875 
L 10.015625 70.21875 
z
" id="DejaVuSans-Bold-116"/>
     <path d="M 10.59375 48.1875 
L 73.1875 48.1875 
L 73.1875 36.71875 
L 10.59375 36.71875 
z
M 10.59375 25.984375 
L 73.1875 25.984375 
L 73.1875 14.40625 
L 10.59375 14.40625 
z
" id="DejaVuSans-Bold-61"/>
     <path d="M 46 36.53125 
Q 46 50.203125 43.4375 55.78125 
Q 40.875 61.375 34.8125 61.375 
Q 28.765625 61.375 26.171875 55.78125 
Q 23.578125 50.203125 23.578125 36.53125 
Q 23.578125 22.703125 26.171875 17.03125 
Q 28.765625 11.375 34.8125 11.375 
Q 40.828125 11.375 43.40625 17.03125 
Q 46 22.703125 46 36.53125 
z
M 64.796875 36.375 
Q 64.796875 18.265625 56.984375 8.421875 
Q 49.171875 -1.421875 34.8125 -1.421875 
Q 20.40625 -1.421875 12.59375 8.421875 
Q 4.78125 18.265625 4.78125 36.375 
Q 4.78125 54.546875 12.59375 64.375 
Q 20.40625 74.21875 34.8125 74.21875 
Q 49.171875 74.21875 56.984375 64.375 
Q 64.796875 54.546875 64.796875 36.375 
z
" id="DejaVuSans-Bold-48"/>
     <path d="M 10.203125 18.890625 
L 27.78125 18.890625 
L 27.78125 4 
L 15.71875 -14.203125 
L 5.328125 -14.203125 
L 10.203125 4 
z
" id="DejaVuSans-Bold-44"/>
     <path d="M 34.8125 32.625 
Q 29.546875 32.625 26.703125 29.734375 
Q 23.875 26.859375 23.875 21.484375 
Q 23.875 16.109375 26.703125 13.25 
Q 29.546875 10.40625 34.8125 10.40625 
Q 40.046875 10.40625 42.828125 13.25 
Q 45.609375 16.109375 45.609375 21.484375 
Q 45.609375 26.90625 42.828125 29.765625 
Q 40.046875 32.625 34.8125 32.625 
z
M 21.09375 38.8125 
Q 14.453125 40.828125 11.078125 44.96875 
Q 7.71875 49.125 7.71875 55.328125 
Q 7.71875 64.546875 14.59375 69.375 
Q 21.484375 74.21875 34.8125 74.21875 
Q 48.046875 74.21875 54.921875 69.40625 
Q 61.8125 64.59375 61.8125 55.328125 
Q 61.8125 49.125 58.421875 44.96875 
Q 55.03125 40.828125 48.390625 38.8125 
Q 55.8125 36.765625 59.59375 32.15625 
Q 63.375 27.546875 63.375 20.515625 
Q 63.375 9.671875 56.171875 4.125 
Q 48.96875 -1.421875 34.8125 -1.421875 
Q 20.609375 -1.421875 13.359375 4.125 
Q 6.109375 9.671875 6.109375 20.515625 
Q 6.109375 27.546875 9.890625 32.15625 
Q 13.671875 36.765625 21.09375 38.8125 
z
M 25.484375 53.421875 
Q 25.484375 49.078125 27.90625 46.734375 
Q 30.328125 44.390625 34.8125 44.390625 
Q 39.203125 44.390625 41.59375 46.734375 
Q 44 49.078125 44 53.421875 
Q 44 57.765625 41.59375 60.078125 
Q 39.203125 62.40625 34.8125 62.40625 
Q 30.328125 62.40625 27.90625 60.0625 
Q 25.484375 57.71875 25.484375 53.421875 
z
" id="DejaVuSans-Bold-56"/>
     <path d="M 6.6875 72.90625 
L 61.625 72.90625 
L 61.625 62.3125 
L 33.203125 0 
L 14.890625 0 
L 41.796875 59.078125 
L 6.6875 59.078125 
z
" id="DejaVuSans-Bold-55"/>
    </defs>
    <use xlink:href="#DejaVuSans-Bold-82"/>
    <use x="77.001953" xlink:href="#DejaVuSans-Bold-116"/>
    <use x="124.804688" xlink:href="#DejaVuSans-Bold-61"/>
    <use x="208.59375" xlink:href="#DejaVuSans-Bold-48"/>
    <use x="278.173828" xlink:href="#DejaVuSans-Bold-44"/>
    <use x="316.162109" xlink:href="#DejaVuSans-Bold-56"/>
    <use x="385.742188" xlink:href="#DejaVuSans-Bold-55"/>
   </g>
  </g>
 </g>
 <defs>
  <clipPath id="p866166024b">
   <rect height="144" width="144" x="0" y="0"/>
  </clipPath>
 </defs>
</svg>
