<?xml version="1.0" encoding="utf-8" standalone="no"?>
<!DOCTYPE svg PUBLIC "-//W3C//DTD SVG 1.1//EN"
  "http://www.w3.org/Graphics/SVG/1.1/DTD/svg11.dtd">
<!-- Created with matplotlib (https://matplotlib.org/) -->
<svg height="144pt" version="1.1" viewBox="0 0 144 144" width="144pt" xmlns="http://www.w3.org/2000/svg" xmlns:xlink="http://www.w3.org/1999/xlink">
 <metadata>
  <rdf:RDF xmlns:cc="http://creativecommons.org/ns#" xmlns:dc="http://purl.org/dc/elements/1.1/" xmlns:rdf="http://www.w3.org/1999/02/22-rdf-syntax-ns#">
   <cc:Work>
    <dc:type rdf:resource="http://purl.org/dc/dcmitype/StillImage"/>
    <dc:date>2022-04-06T17:56:49.529807</dc:date>
    <dc:format>image/svg+xml</dc:format>
    <dc:creator>
     <cc:Agent>
      <dc:title>Matplotlib v3.3.2, https://matplotlib.org/</dc:title>
     </cc:Agent>
    </dc:creator>
   </cc:Work>
  </rdf:RDF>
 </metadata>
 <defs>
  <style type="text/css">*{stroke-linecap:butt;stroke-linejoin:round;}</style>
 </defs>
 <g id="figure_1">
  <g id="patch_1">
   <path d="M 0 144 
L 144 144 
L 144 0 
L 0 0 
z
" style="fill:#ffffff;"/>
  </g>
  <g id="axes_1">
   <g id="patch_2">
    <path d="M 0 144 
L 144 144 
L 144 0 
L 0 0 
z
" style="fill:#ffffff;"/>
   </g>
   <g id="line2d_1">
    <path clip-path="url(#p2dd4adf47e)" d="M 6.545455 119.922605 
L 7.726336 119.739856 
L 8.401125 119.373276 
L 8.907216 118.808165 
L 9.582006 117.570643 
L 10.931584 114.020361 
L 11.77507 110.651242 
L 12.281162 108.57081 
L 12.618557 107.947257 
L 12.787254 107.877573 
L 13.124649 108.300938 
L 13.462043 109.118626 
L 14.811621 112.856558 
L 15.48641 114.318554 
L 16.667291 116.222001 
L 17.679475 117.33464 
L 18.522962 117.883104 
L 19.366448 118.234767 
L 20.547329 118.441369 
L 25.270853 119.680621 
L 30.500469 119.738487 
L 32.693533 119.55444 
L 36.236176 119.091009 
L 37.585754 119.173664 
L 38.597938 119.199462 
L 39.272727 118.975421 
L 39.947516 118.450161 
L 40.791003 117.376652 
L 41.465792 116.188348 
L 42.477976 114.154468 
L 44.333646 111.811298 
L 44.67104 111.431603 
L 46.020619 109.396425 
L 46.695408 108.832828 
L 47.370197 108.596104 
L 48.213683 108.931697 
L 49.225867 109.580688 
L 50.069353 110.309812 
L 51.418932 111.658454 
L 52.093721 112.0927 
L 52.599813 112.229114 
L 53.105904 112.419069 
L 54.792877 112.666098 
L 55.130272 112.56831 
L 55.805061 112.182201 
L 56.47985 111.45841 
L 56.817245 110.832046 
L 57.660731 108.933571 
L 58.166823 108.175838 
L 58.504217 108.012329 
L 58.841612 108.144131 
L 59.347704 108.835566 
L 60.359888 110.75566 
L 61.034677 111.225001 
L 61.540769 111.370998 
L 61.878163 111.416686 
L 62.552952 111.711204 
L 63.565136 112.055516 
L 64.408622 112.499202 
L 65.420806 113.010483 
L 65.926898 113.247855 
L 66.264292 113.266736 
L 67.107779 113.039956 
L 69.469541 113.248216 
L 70.14433 113.029003 
L 71.662605 112.350322 
L 73.012184 111.131464 
L 73.518276 110.497318 
L 74.361762 109.517057 
L 75.205248 108.892423 
L 77.229616 107.532324 
L 77.904405 106.936731 
L 78.410497 106.652302 
L 78.916589 106.763854 
L 79.591378 107.436481 
L 80.09747 108.268942 
L 80.772259 109.399164 
L 81.447048 110.255694 
L 82.290534 111.368909 
L 82.965323 112.547412 
L 84.314902 115.079025 
L 84.820993 115.656242 
L 85.66448 116.278138 
L 87.182755 117.580948 
L 87.857545 118.119324 
L 88.869728 118.723348 
L 90.219306 119.16163 
L 90.388004 119.211569 
L 90.388004 119.211569 
" style="fill:none;stroke:#add8e6;stroke-linecap:square;stroke-width:1.5;"/>
   </g>
   <g id="line2d_2">
    <path clip-path="url(#p2dd4adf47e)" d="M 24.258669 118.910433 
L 26.957826 119.164863 
L 29.488285 119.115769 
L 31.512652 118.950686 
L 32.862231 118.666871 
L 35.39269 118.0087 
L 36.742268 117.91528 
L 38.429241 117.778237 
L 39.610122 117.428323 
L 40.791003 116.797911 
L 42.309278 115.761838 
L 43.490159 114.748067 
L 44.333646 113.67602 
L 45.345829 111.954166 
L 46.52671 109.947908 
L 47.370197 108.831472 
L 48.044986 108.253683 
L 48.551078 108.131762 
L 48.888472 108.247948 
L 49.394564 108.705796 
L 50.575445 110.370652 
L 51.250234 111.12486 
L 52.093721 111.618544 
L 53.105904 111.930517 
L 53.780694 111.966155 
L 54.286785 111.827164 
L 54.792877 111.43243 
L 55.636364 110.197056 
L 57.323336 107.37633 
L 57.829428 107.128177 
L 58.166823 107.18286 
L 58.672915 107.545028 
L 61.203374 110.103182 
L 63.059044 111.741668 
L 66.095595 113.476456 
L 66.770384 113.586947 
L 67.613871 113.316297 
L 68.457357 112.784069 
L 69.300843 112.358793 
L 70.650422 111.741841 
L 71.325211 111.202581 
L 73.686973 108.912572 
L 74.193065 108.704883 
L 75.036551 108.706549 
L 76.217432 108.801489 
L 77.398313 108.407417 
L 78.241799 108.255801 
L 78.916589 108.40377 
L 80.09747 109.119799 
L 81.278351 110.073796 
L 82.121837 110.969058 
L 84.314902 113.719167 
L 86.339269 115.557585 
L 86.845361 115.892005 
L 87.351453 116.38478 
L 88.026242 116.809408 
L 88.532334 117.169795 
L 89.713215 117.378483 
L 90.050609 117.09261 
L 90.556701 116.167323 
L 91.062793 114.620431 
L 92.581068 109.133793 
L 92.918463 108.647184 
L 93.08716 108.579599 
L 93.593252 108.825257 
L 94.099344 109.759022 
L 95.448922 112.820145 
L 95.955014 113.465091 
L 96.461106 113.827404 
L 97.135895 114.031633 
L 97.810684 114.056595 
L 99.835052 114.004352 
L 101.353327 114.329875 
L 104.052484 115.396397 
L 104.89597 115.637988 
L 105.570759 115.62701 
L 106.245548 115.372615 
L 106.920337 114.824586 
L 107.763824 113.865512 
L 108.944705 112.079206 
L 110.294283 109.546316 
L 111.306467 107.194207 
L 112.149953 104.54906 
L 113.330834 99.983626 
L 114.174321 97.153278 
L 114.680412 96.045003 
L 115.186504 95.448537 
L 115.523899 95.34194 
L 115.861293 95.427586 
L 116.367385 95.916581 
L 117.042174 97.021813 
L 118.054358 99.336934 
L 118.897844 101.113441 
L 119.403936 101.859746 
L 119.741331 102.058683 
L 120.078725 102.012069 
L 120.41612 101.541919 
L 120.922212 100.064275 
L 121.428304 97.745876 
L 122.103093 93.623254 
L 123.283974 84.664387 
L 124.12746 76.00164 
L 125.139644 62.284618 
L 126.151828 49.886671 
L 126.657919 46.228331 
L 126.995314 45.117467 
L 127.164011 45 
L 127.332709 45.193799 
L 127.670103 46.460465 
L 128.176195 50.293535 
L 128.850984 58.113092 
L 129.863168 70.163893 
L 130.200562 72.632976 
L 130.537957 73.764717 
L 130.706654 73.830023 
L 130.875351 73.566441 
L 131.212746 72.190002 
L 131.718838 68.375196 
L 132.393627 62.813512 
L 132.731022 61.357313 
L 132.899719 61.013894 
L 133.068416 61.012181 
L 133.237113 61.287324 
L 133.574508 62.703837 
L 134.0806 66.158223 
L 137.454545 95.277588 
L 137.454545 95.277588 
" style="fill:none;stroke:#ff0000;stroke-linecap:square;stroke-width:1.5;"/>
   </g>
   <g id="patch_3">
    <path d="M 0 144 
L 0 0 
" style="fill:none;stroke:#ffffff;stroke-linecap:square;stroke-linejoin:miter;stroke-width:0.8;"/>
   </g>
   <g id="patch_4">
    <path d="M 144 144 
L 144 0 
" style="fill:none;stroke:#ffffff;stroke-linecap:square;stroke-linejoin:miter;stroke-width:0.8;"/>
   </g>
   <g id="patch_5">
    <path d="M 0 144 
L 144 144 
" style="fill:none;stroke:#ffffff;stroke-linecap:square;stroke-linejoin:miter;stroke-width:0.8;"/>
   </g>
   <g id="patch_6">
    <path d="M 0 0 
L 144 0 
" style="fill:none;stroke:#ffffff;stroke-linecap:square;stroke-linejoin:miter;stroke-width:0.8;"/>
   </g>
  </g>
  <g id="text_1">
   <g id="patch_7">
    <path d="M -64.84815 36.3681 
L 208.84815 36.3681 
L 208.84815 -7.65432 
L -64.84815 -7.65432 
z
" style="fill:#ffff00;stroke:#ffff00;stroke-linejoin:miter;"/>
   </g>
   <!--  -->
   <g transform="translate(72 9.45018)scale(0.1728 -0.1728)"/>
   <!--            CORONADATA            -->
   <g transform="translate(-60.87375 28.8)scale(0.1728 -0.1728)">
    <defs>
     <path id="DejaVuSans-Bold-32"/>
     <path d="M 67 4 
Q 61.8125 1.3125 56.203125 -0.046875 
Q 50.59375 -1.421875 44.484375 -1.421875 
Q 26.265625 -1.421875 15.625 8.765625 
Q 4.984375 18.953125 4.984375 36.375 
Q 4.984375 53.859375 15.625 64.03125 
Q 26.265625 74.21875 44.484375 74.21875 
Q 50.59375 74.21875 56.203125 72.84375 
Q 61.8125 71.484375 67 68.796875 
L 67 53.71875 
Q 61.765625 57.28125 56.6875 58.9375 
Q 51.609375 60.59375 46 60.59375 
Q 35.9375 60.59375 30.171875 54.140625 
Q 24.421875 47.703125 24.421875 36.375 
Q 24.421875 25.09375 30.171875 18.640625 
Q 35.9375 12.203125 46 12.203125 
Q 51.609375 12.203125 56.6875 13.859375 
Q 61.765625 15.53125 67 19.09375 
z
" id="DejaVuSans-Bold-67"/>
     <path d="M 42.484375 60.59375 
Q 33.890625 60.59375 29.15625 54.25 
Q 24.421875 47.90625 24.421875 36.375 
Q 24.421875 24.90625 29.15625 18.546875 
Q 33.890625 12.203125 42.484375 12.203125 
Q 51.125 12.203125 55.859375 18.546875 
Q 60.59375 24.90625 60.59375 36.375 
Q 60.59375 47.90625 55.859375 54.25 
Q 51.125 60.59375 42.484375 60.59375 
z
M 42.484375 74.21875 
Q 60.0625 74.21875 70.015625 64.15625 
Q 79.984375 54.109375 79.984375 36.375 
Q 79.984375 18.703125 70.015625 8.640625 
Q 60.0625 -1.421875 42.484375 -1.421875 
Q 24.953125 -1.421875 14.96875 8.640625 
Q 4.984375 18.703125 4.984375 36.375 
Q 4.984375 54.109375 14.96875 64.15625 
Q 24.953125 74.21875 42.484375 74.21875 
z
" id="DejaVuSans-Bold-79"/>
     <path d="M 35.890625 40.578125 
Q 41.796875 40.578125 44.359375 42.765625 
Q 46.921875 44.96875 46.921875 50 
Q 46.921875 54.984375 44.359375 57.125 
Q 41.796875 59.28125 35.890625 59.28125 
L 27.984375 59.28125 
L 27.984375 40.578125 
z
M 27.984375 27.59375 
L 27.984375 0 
L 9.1875 0 
L 9.1875 72.90625 
L 37.890625 72.90625 
Q 52.296875 72.90625 59 68.0625 
Q 65.71875 63.234375 65.71875 52.78125 
Q 65.71875 45.5625 62.21875 40.921875 
Q 58.734375 36.28125 51.703125 34.078125 
Q 55.5625 33.203125 58.609375 30.09375 
Q 61.671875 27 64.796875 20.703125 
L 75 0 
L 54.984375 0 
L 46.09375 18.109375 
Q 43.40625 23.578125 40.640625 25.578125 
Q 37.890625 27.59375 33.296875 27.59375 
z
" id="DejaVuSans-Bold-82"/>
     <path d="M 9.1875 72.90625 
L 30.171875 72.90625 
L 56.6875 22.90625 
L 56.6875 72.90625 
L 74.515625 72.90625 
L 74.515625 0 
L 53.515625 0 
L 27 50 
L 27 0 
L 9.1875 0 
z
" id="DejaVuSans-Bold-78"/>
     <path d="M 53.421875 13.28125 
L 24.03125 13.28125 
L 19.390625 0 
L 0.484375 0 
L 27.484375 72.90625 
L 49.90625 72.90625 
L 76.90625 0 
L 58.015625 0 
z
M 28.71875 26.8125 
L 48.6875 26.8125 
L 38.71875 55.8125 
z
" id="DejaVuSans-Bold-65"/>
     <path d="M 27.984375 58.6875 
L 27.984375 14.203125 
L 34.71875 14.203125 
Q 46.234375 14.203125 52.3125 19.921875 
Q 58.40625 25.640625 58.40625 36.53125 
Q 58.40625 47.359375 52.34375 53.015625 
Q 46.296875 58.6875 34.71875 58.6875 
z
M 9.1875 72.90625 
L 29 72.90625 
Q 45.609375 72.90625 53.734375 70.53125 
Q 61.859375 68.171875 67.671875 62.5 
Q 72.796875 57.5625 75.28125 51.109375 
Q 77.78125 44.671875 77.78125 36.53125 
Q 77.78125 28.265625 75.28125 21.796875 
Q 72.796875 15.328125 67.671875 10.40625 
Q 61.8125 4.734375 53.609375 2.359375 
Q 45.40625 0 29 0 
L 9.1875 0 
z
" id="DejaVuSans-Bold-68"/>
     <path d="M 0.484375 72.90625 
L 67.671875 72.90625 
L 67.671875 58.6875 
L 43.5 58.6875 
L 43.5 0 
L 24.703125 0 
L 24.703125 58.6875 
L 0.484375 58.6875 
z
" id="DejaVuSans-Bold-84"/>
    </defs>
    <use xlink:href="#DejaVuSans-Bold-32"/>
    <use x="34.814453" xlink:href="#DejaVuSans-Bold-32"/>
    <use x="69.628906" xlink:href="#DejaVuSans-Bold-32"/>
    <use x="104.443359" xlink:href="#DejaVuSans-Bold-32"/>
    <use x="139.257812" xlink:href="#DejaVuSans-Bold-32"/>
    <use x="174.072266" xlink:href="#DejaVuSans-Bold-32"/>
    <use x="208.886719" xlink:href="#DejaVuSans-Bold-32"/>
    <use x="243.701172" xlink:href="#DejaVuSans-Bold-32"/>
    <use x="278.515625" xlink:href="#DejaVuSans-Bold-32"/>
    <use x="313.330078" xlink:href="#DejaVuSans-Bold-32"/>
    <use x="348.144531" xlink:href="#DejaVuSans-Bold-32"/>
    <use x="382.958984" xlink:href="#DejaVuSans-Bold-67"/>
    <use x="456.347656" xlink:href="#DejaVuSans-Bold-79"/>
    <use x="541.357422" xlink:href="#DejaVuSans-Bold-82"/>
    <use x="618.359375" xlink:href="#DejaVuSans-Bold-79"/>
    <use x="703.369141" xlink:href="#DejaVuSans-Bold-78"/>
    <use x="787.060547" xlink:href="#DejaVuSans-Bold-65"/>
    <use x="864.453125" xlink:href="#DejaVuSans-Bold-68"/>
    <use x="947.460938" xlink:href="#DejaVuSans-Bold-65"/>
    <use x="1017.103516" xlink:href="#DejaVuSans-Bold-84"/>
    <use x="1077.566406" xlink:href="#DejaVuSans-Bold-65"/>
    <use x="1154.958984" xlink:href="#DejaVuSans-Bold-32"/>
    <use x="1189.773438" xlink:href="#DejaVuSans-Bold-32"/>
    <use x="1224.587891" xlink:href="#DejaVuSans-Bold-32"/>
    <use x="1259.402344" xlink:href="#DejaVuSans-Bold-32"/>
    <use x="1294.216797" xlink:href="#DejaVuSans-Bold-32"/>
    <use x="1329.03125" xlink:href="#DejaVuSans-Bold-32"/>
    <use x="1363.845703" xlink:href="#DejaVuSans-Bold-32"/>
    <use x="1398.660156" xlink:href="#DejaVuSans-Bold-32"/>
    <use x="1433.474609" xlink:href="#DejaVuSans-Bold-32"/>
    <use x="1468.289062" xlink:href="#DejaVuSans-Bold-32"/>
    <use x="1503.103516" xlink:href="#DejaVuSans-Bold-32"/>
   </g>
  </g>
  <g id="text_2">
   <!-- Rt=0,79 -->
   <g style="fill:#4169e1;opacity:0.5;" transform="translate(26.46875 141.12)scale(0.2 -0.2)">
    <defs>
     <path d="M 27.484375 70.21875 
L 27.484375 54.6875 
L 45.515625 54.6875 
L 45.515625 42.1875 
L 27.484375 42.1875 
L 27.484375 19 
Q 27.484375 15.1875 29 13.84375 
Q 30.515625 12.5 35.015625 12.5 
L 44 12.5 
L 44 0 
L 29 0 
Q 18.65625 0 14.328125 4.3125 
Q 10.015625 8.640625 10.015625 19 
L 10.015625 42.1875 
L 1.3125 42.1875 
L 1.3125 54.6875 
L 10.015625 54.6875 
L 10.015625 70.21875 
z
" id="DejaVuSans-Bold-116"/>
     <path d="M 10.59375 48.1875 
L 73.1875 48.1875 
L 73.1875 36.71875 
L 10.59375 36.71875 
z
M 10.59375 25.984375 
L 73.1875 25.984375 
L 73.1875 14.40625 
L 10.59375 14.40625 
z
" id="DejaVuSans-Bold-61"/>
     <path d="M 46 36.53125 
Q 46 50.203125 43.4375 55.78125 
Q 40.875 61.375 34.8125 61.375 
Q 28.765625 61.375 26.171875 55.78125 
Q 23.578125 50.203125 23.578125 36.53125 
Q 23.578125 22.703125 26.171875 17.03125 
Q 28.765625 11.375 34.8125 11.375 
Q 40.828125 11.375 43.40625 17.03125 
Q 46 22.703125 46 36.53125 
z
M 64.796875 36.375 
Q 64.796875 18.265625 56.984375 8.421875 
Q 49.171875 -1.421875 34.8125 -1.421875 
Q 20.40625 -1.421875 12.59375 8.421875 
Q 4.78125 18.265625 4.78125 36.375 
Q 4.78125 54.546875 12.59375 64.375 
Q 20.40625 74.21875 34.8125 74.21875 
Q 49.171875 74.21875 56.984375 64.375 
Q 64.796875 54.546875 64.796875 36.375 
z
" id="DejaVuSans-Bold-48"/>
     <path d="M 10.203125 18.890625 
L 27.78125 18.890625 
L 27.78125 4 
L 15.71875 -14.203125 
L 5.328125 -14.203125 
L 10.203125 4 
z
" id="DejaVuSans-Bold-44"/>
     <path d="M 6.6875 72.90625 
L 61.625 72.90625 
L 61.625 62.3125 
L 33.203125 0 
L 14.890625 0 
L 41.796875 59.078125 
L 6.6875 59.078125 
z
" id="DejaVuSans-Bold-55"/>
     <path d="M 10.015625 1.609375 
L 10.015625 15.09375 
Q 14.5 12.984375 18.59375 11.9375 
Q 22.703125 10.890625 26.703125 10.890625 
Q 35.109375 10.890625 39.796875 15.546875 
Q 44.484375 20.21875 45.3125 29.390625 
Q 42 26.953125 38.234375 25.734375 
Q 34.46875 24.515625 30.078125 24.515625 
Q 18.890625 24.515625 12.03125 31.03125 
Q 5.171875 37.546875 5.171875 48.1875 
Q 5.171875 59.96875 12.8125 67.046875 
Q 20.453125 74.125 33.296875 74.125 
Q 47.5625 74.125 55.375 64.5 
Q 63.1875 54.890625 63.1875 37.3125 
Q 63.1875 19.234375 54.046875 8.90625 
Q 44.921875 -1.421875 29 -1.421875 
Q 23.875 -1.421875 19.1875 -0.65625 
Q 14.5 0.09375 10.015625 1.609375 
z
M 33.203125 36.71875 
Q 38.140625 36.71875 40.625 39.90625 
Q 43.109375 43.109375 43.109375 49.515625 
Q 43.109375 55.859375 40.625 59.078125 
Q 38.140625 62.3125 33.203125 62.3125 
Q 28.265625 62.3125 25.78125 59.078125 
Q 23.296875 55.859375 23.296875 49.515625 
Q 23.296875 43.109375 25.78125 39.90625 
Q 28.265625 36.71875 33.203125 36.71875 
z
" id="DejaVuSans-Bold-57"/>
    </defs>
    <use xlink:href="#DejaVuSans-Bold-82"/>
    <use x="77.001953" xlink:href="#DejaVuSans-Bold-116"/>
    <use x="124.804688" xlink:href="#DejaVuSans-Bold-61"/>
    <use x="208.59375" xlink:href="#DejaVuSans-Bold-48"/>
    <use x="278.173828" xlink:href="#DejaVuSans-Bold-44"/>
    <use x="316.162109" xlink:href="#DejaVuSans-Bold-55"/>
    <use x="385.742188" xlink:href="#DejaVuSans-Bold-57"/>
   </g>
  </g>
 </g>
 <defs>
  <clipPath id="p2dd4adf47e">
   <rect height="144" width="144" x="0" y="0"/>
  </clipPath>
 </defs>
</svg>
