<?xml version="1.0" encoding="utf-8" standalone="no"?>
<!DOCTYPE svg PUBLIC "-//W3C//DTD SVG 1.1//EN"
  "http://www.w3.org/Graphics/SVG/1.1/DTD/svg11.dtd">
<!-- Created with matplotlib (https://matplotlib.org/) -->
<svg height="144pt" version="1.1" viewBox="0 0 144 144" width="144pt" xmlns="http://www.w3.org/2000/svg" xmlns:xlink="http://www.w3.org/1999/xlink">
 <metadata>
  <rdf:RDF xmlns:cc="http://creativecommons.org/ns#" xmlns:dc="http://purl.org/dc/elements/1.1/" xmlns:rdf="http://www.w3.org/1999/02/22-rdf-syntax-ns#">
   <cc:Work>
    <dc:type rdf:resource="http://purl.org/dc/dcmitype/StillImage"/>
    <dc:date>2021-10-27T15:44:49.259185</dc:date>
    <dc:format>image/svg+xml</dc:format>
    <dc:creator>
     <cc:Agent>
      <dc:title>Matplotlib v3.3.2, https://matplotlib.org/</dc:title>
     </cc:Agent>
    </dc:creator>
   </cc:Work>
  </rdf:RDF>
 </metadata>
 <defs>
  <style type="text/css">*{stroke-linecap:butt;stroke-linejoin:round;}</style>
 </defs>
 <g id="figure_1">
  <g id="patch_1">
   <path d="M 0 144 
L 144 144 
L 144 0 
L 0 0 
z
" style="fill:#ffffff;"/>
  </g>
  <g id="axes_1">
   <g id="patch_2">
    <path d="M 0 144 
L 144 144 
L 144 0 
L 0 0 
z
" style="fill:#ffffff;"/>
   </g>
   <g id="line2d_1">
    <path clip-path="url(#p0b116741f4)" d="M 6.545455 119.565123 
L 7.184035 119.30436 
L 7.822616 118.809556 
L 8.248337 118.176677 
L 8.674058 117.190714 
L 9.099778 115.600216 
L 9.525499 113.303145 
L 10.16408 108.299636 
L 10.5898 103.953705 
L 11.228381 96.491159 
L 12.079823 86.400729 
L 12.931264 71.750169 
L 13.782705 55.779997 
L 14.208426 52.276286 
L 14.421286 51.884735 
L 14.634146 52.803482 
L 15.059867 56.141585 
L 17.18847 82.173033 
L 18.465632 93.035227 
L 19.529933 99.968957 
L 20.594235 105.023485 
L 21.232816 106.943582 
L 22.084257 109.088811 
L 22.722838 110.081253 
L 23.361419 110.433527 
L 24.425721 111.506141 
L 26.980044 115.168174 
L 28.470067 116.941288 
L 29.960089 118.150358 
L 30.59867 118.229721 
L 32.514412 118.178297 
L 33.152993 118.099339 
L 34.430155 118.318397 
L 35.068736 118.44392 
L 36.345898 118.607504 
L 38.261641 118.270617 
L 40.603104 116.793899 
L 41.028825 116.378054 
L 41.241685 116.098664 
L 44.43459 114.876232 
L 44.86031 114.851937 
L 46.563193 115.702659 
L 46.988914 115.501822 
L 47.414634 115.005399 
L 47.840355 114.242948 
L 48.478936 112.247942 
L 49.117517 109.041436 
L 50.394678 100.428533 
L 52.523282 82.842354 
L 52.949002 80.226211 
L 54.651885 71.854636 
L 55.077605 68.377649 
L 55.716186 63.448239 
L 56.780488 58.367391 
L 56.993348 57.553516 
L 57.419069 56.834796 
L 57.844789 55.818869 
L 58.05765 55.922122 
L 58.48337 56.547712 
L 59.760532 59.384937 
L 60.611973 62.152112 
L 62.101996 68.747334 
L 62.740576 71.549332 
L 63.804878 75.204886 
L 64.017738 75.569308 
L 64.230599 75.672155 
L 64.656319 76.335808 
L 64.86918 76.831421 
L 65.08204 77.034283 
L 65.507761 77.596302 
L 65.720621 77.697935 
L 66.359202 78.341747 
L 66.572062 78.323121 
L 66.997783 78.69807 
L 67.423503 78.7912 
L 67.636364 78.686732 
L 68.487805 76.864219 
L 69.339246 73.333783 
L 69.764967 70.497368 
L 71.467849 54.796869 
L 71.68071 53.560669 
L 72.10643 52.641922 
L 72.31929 52.8379 
L 72.532151 53.382508 
L 72.957871 55.841139 
L 73.383592 59.153327 
L 74.447894 68.056553 
L 75.086475 70.314752 
L 75.725055 71.384937 
L 75.937916 71.514104 
L 76.150776 71.413281 
L 76.363636 71.770819 
L 76.789357 72.926846 
L 77.427938 73.642732 
L 77.853659 73.972736 
L 79.769401 78.220678 
L 79.982262 78.541369 
L 81.472284 82.060062 
L 81.685144 82.202591 
L 81.898004 82.166149 
L 82.749446 81.037657 
L 82.962306 80.891888 
L 83.388027 80.997975 
L 83.600887 80.904441 
L 84.026608 81.097179 
L 84.665188 81.653934 
L 84.878049 81.684708 
L 85.090909 81.594817 
L 85.51663 81.76974 
L 85.72949 82.007423 
L 85.94235 82.062087 
L 86.368071 81.653529 
L 87.858093 78.72034 
L 88.496674 77.651775 
L 89.135255 75.58186 
L 90.412417 70.168174 
L 90.838137 68.099069 
L 91.476718 64.136996 
L 92.115299 61.096909 
L 92.966741 58.066136 
L 93.818182 56.074369 
L 94.456763 53.862735 
L 94.669623 53.458631 
L 95.733925 49.944797 
L 96.372506 47.363882 
L 97.011086 45.213389 
L 97.223947 45 
L 97.436807 45.054258 
L 97.862528 45.626805 
L 98.501109 48.110136 
L 99.13969 52.358888 
L 100.416851 61.880011 
L 101.268293 66.355109 
L 101.694013 68.561479 
L 102.758315 76.389661 
L 103.822616 85.886084 
L 104.461197 91.083142 
L 105.312639 95.592658 
L 105.95122 97.781212 
L 107.228381 102.081792 
L 109.569845 110.751788 
L 110.421286 112.826562 
L 111.272727 114.213794 
L 112.337029 115.569847 
L 112.337029 115.569847 
" style="fill:none;stroke:#add8e6;stroke-linecap:square;stroke-width:1.5;"/>
   </g>
   <g id="line2d_2">
    <path clip-path="url(#p0b116741f4)" d="M 28.895787 116.035611 
L 31.02439 116.942501 
L 32.088692 117.180517 
L 32.301552 117.246959 
L 34.643016 117.33635 
L 36.558758 116.880481 
L 36.771619 116.723867 
L 37.83592 116.540653 
L 38.04878 116.338236 
L 38.900222 115.86458 
L 42.518847 111.840034 
L 43.157428 111.497628 
L 45.073171 111.143058 
L 46.776053 110.837521 
L 47.414634 110.287003 
L 48.053215 109.371577 
L 48.691796 108.062565 
L 49.756098 105.125155 
L 51.033259 101.238295 
L 52.523282 95.842846 
L 53.374723 91.750458 
L 54.013304 87.731457 
L 55.077605 79.343314 
L 56.993348 63.528454 
L 57.844789 58.177291 
L 58.696231 54.083574 
L 59.121951 52.957815 
L 59.334812 52.732854 
L 59.547672 52.728105 
L 59.760532 52.888264 
L 60.186253 53.859256 
L 60.611973 55.801953 
L 61.889135 64.244286 
L 62.740576 69.041103 
L 63.379157 71.311158 
L 64.230599 73.378638 
L 65.507761 75.684259 
L 65.933481 75.972659 
L 66.359202 75.848008 
L 66.572062 75.658392 
L 66.997783 74.796209 
L 67.423503 73.038137 
L 68.274945 67.49163 
L 69.126386 60.203346 
L 70.190687 51.180728 
L 70.616408 48.955237 
L 71.042129 47.84025 
L 71.254989 47.605256 
L 71.467849 47.669204 
L 71.89357 48.758505 
L 72.31929 50.58576 
L 74.022173 59.978071 
L 74.660754 61.9325 
L 76.789357 69.79656 
L 81.685144 83.369169 
L 82.110865 84.014694 
L 82.323725 84.215725 
L 82.962306 83.436252 
L 83.600887 82.270174 
L 84.026608 81.148451 
L 85.090909 78.0078 
L 85.72949 76.989565 
L 86.580931 75.750392 
L 87.432373 74.032375 
L 88.070953 71.961014 
L 89.135255 67.199984 
L 91.263858 57.740675 
L 91.689579 56.717003 
L 92.115299 56.328885 
L 92.54102 56.407633 
L 93.392461 56.864933 
L 94.243902 57.525948 
L 94.882483 56.752018 
L 96.585366 54.330927 
L 97.011086 54.240777 
L 97.223947 54.407414 
L 97.436807 54.735303 
L 98.075388 56.780153 
L 99.778271 64.160787 
L 100.203991 65.940019 
L 100.842572 68.00002 
L 101.694013 71.65227 
L 102.332594 75.009533 
L 103.609756 82.493036 
L 104.674058 88.360673 
L 107.228381 98.436042 
L 107.654102 99.280283 
L 108.505543 102.526234 
L 108.931264 103.271927 
L 109.995565 106.524771 
L 110.634146 107.313058 
L 111.059867 107.805638 
L 111.272727 107.848492 
L 111.485588 107.654772 
L 111.698448 107.112193 
L 112.124169 104.752777 
L 112.549889 101.205796 
L 112.97561 96.03038 
L 113.614191 85.192535 
L 114.678492 66.078384 
L 115.317073 58.8924 
L 115.742794 56.806737 
L 115.955654 56.935841 
L 116.381375 57.799189 
L 116.807095 60.446933 
L 117.658537 69.115011 
L 118.722838 79.235465 
L 119.361419 82.763832 
L 119.78714 84.224568 
L 120.21286 85.097898 
L 120.851441 85.796744 
L 121.277162 85.946888 
L 121.915743 85.79221 
L 123.192905 85.54606 
L 124.044346 85.455363 
L 124.470067 85.717256 
L 125.108647 86.522863 
L 126.385809 88.594043 
L 127.450111 90.742045 
L 130.430155 96.590788 
L 130.855876 96.88652 
L 131.068736 96.918033 
L 131.494457 96.662206 
L 131.920177 96.06604 
L 132.345898 94.954178 
L 132.984479 92.407321 
L 133.83592 87.896781 
L 134.687361 82.042781 
L 137.454545 62.616514 
L 137.454545 62.616514 
" style="fill:none;stroke:#ff0000;stroke-linecap:square;stroke-width:1.5;"/>
   </g>
   <g id="patch_3">
    <path d="M 0 144 
L 0 0 
" style="fill:none;stroke:#ffffff;stroke-linecap:square;stroke-linejoin:miter;stroke-width:0.8;"/>
   </g>
   <g id="patch_4">
    <path d="M 144 144 
L 144 0 
" style="fill:none;stroke:#ffffff;stroke-linecap:square;stroke-linejoin:miter;stroke-width:0.8;"/>
   </g>
   <g id="patch_5">
    <path d="M -0 144 
L 144 144 
" style="fill:none;stroke:#ffffff;stroke-linecap:square;stroke-linejoin:miter;stroke-width:0.8;"/>
   </g>
   <g id="patch_6">
    <path d="M -0 0 
L 144 0 
" style="fill:none;stroke:#ffffff;stroke-linecap:square;stroke-linejoin:miter;stroke-width:0.8;"/>
   </g>
  </g>
  <g id="text_1">
   <g id="patch_7">
    <path d="M -64.84815 36.3681 
L 208.84815 36.3681 
L 208.84815 -7.65432 
L -64.84815 -7.65432 
z
" style="fill:#ffff00;stroke:#ffff00;stroke-linejoin:miter;"/>
   </g>
   <!--  -->
   <g transform="translate(72 9.45018)scale(0.1728 -0.1728)"/>
   <!--            CORONADATA            -->
   <g transform="translate(-60.87375 28.8)scale(0.1728 -0.1728)">
    <defs>
     <path id="DejaVuSans-Bold-32"/>
     <path d="M 67 4 
Q 61.8125 1.3125 56.203125 -0.046875 
Q 50.59375 -1.421875 44.484375 -1.421875 
Q 26.265625 -1.421875 15.625 8.765625 
Q 4.984375 18.953125 4.984375 36.375 
Q 4.984375 53.859375 15.625 64.03125 
Q 26.265625 74.21875 44.484375 74.21875 
Q 50.59375 74.21875 56.203125 72.84375 
Q 61.8125 71.484375 67 68.796875 
L 67 53.71875 
Q 61.765625 57.28125 56.6875 58.9375 
Q 51.609375 60.59375 46 60.59375 
Q 35.9375 60.59375 30.171875 54.140625 
Q 24.421875 47.703125 24.421875 36.375 
Q 24.421875 25.09375 30.171875 18.640625 
Q 35.9375 12.203125 46 12.203125 
Q 51.609375 12.203125 56.6875 13.859375 
Q 61.765625 15.53125 67 19.09375 
z
" id="DejaVuSans-Bold-67"/>
     <path d="M 42.484375 60.59375 
Q 33.890625 60.59375 29.15625 54.25 
Q 24.421875 47.90625 24.421875 36.375 
Q 24.421875 24.90625 29.15625 18.546875 
Q 33.890625 12.203125 42.484375 12.203125 
Q 51.125 12.203125 55.859375 18.546875 
Q 60.59375 24.90625 60.59375 36.375 
Q 60.59375 47.90625 55.859375 54.25 
Q 51.125 60.59375 42.484375 60.59375 
z
M 42.484375 74.21875 
Q 60.0625 74.21875 70.015625 64.15625 
Q 79.984375 54.109375 79.984375 36.375 
Q 79.984375 18.703125 70.015625 8.640625 
Q 60.0625 -1.421875 42.484375 -1.421875 
Q 24.953125 -1.421875 14.96875 8.640625 
Q 4.984375 18.703125 4.984375 36.375 
Q 4.984375 54.109375 14.96875 64.15625 
Q 24.953125 74.21875 42.484375 74.21875 
z
" id="DejaVuSans-Bold-79"/>
     <path d="M 35.890625 40.578125 
Q 41.796875 40.578125 44.359375 42.765625 
Q 46.921875 44.96875 46.921875 50 
Q 46.921875 54.984375 44.359375 57.125 
Q 41.796875 59.28125 35.890625 59.28125 
L 27.984375 59.28125 
L 27.984375 40.578125 
z
M 27.984375 27.59375 
L 27.984375 0 
L 9.1875 0 
L 9.1875 72.90625 
L 37.890625 72.90625 
Q 52.296875 72.90625 59 68.0625 
Q 65.71875 63.234375 65.71875 52.78125 
Q 65.71875 45.5625 62.21875 40.921875 
Q 58.734375 36.28125 51.703125 34.078125 
Q 55.5625 33.203125 58.609375 30.09375 
Q 61.671875 27 64.796875 20.703125 
L 75 0 
L 54.984375 0 
L 46.09375 18.109375 
Q 43.40625 23.578125 40.640625 25.578125 
Q 37.890625 27.59375 33.296875 27.59375 
z
" id="DejaVuSans-Bold-82"/>
     <path d="M 9.1875 72.90625 
L 30.171875 72.90625 
L 56.6875 22.90625 
L 56.6875 72.90625 
L 74.515625 72.90625 
L 74.515625 0 
L 53.515625 0 
L 27 50 
L 27 0 
L 9.1875 0 
z
" id="DejaVuSans-Bold-78"/>
     <path d="M 53.421875 13.28125 
L 24.03125 13.28125 
L 19.390625 0 
L 0.484375 0 
L 27.484375 72.90625 
L 49.90625 72.90625 
L 76.90625 0 
L 58.015625 0 
z
M 28.71875 26.8125 
L 48.6875 26.8125 
L 38.71875 55.8125 
z
" id="DejaVuSans-Bold-65"/>
     <path d="M 27.984375 58.6875 
L 27.984375 14.203125 
L 34.71875 14.203125 
Q 46.234375 14.203125 52.3125 19.921875 
Q 58.40625 25.640625 58.40625 36.53125 
Q 58.40625 47.359375 52.34375 53.015625 
Q 46.296875 58.6875 34.71875 58.6875 
z
M 9.1875 72.90625 
L 29 72.90625 
Q 45.609375 72.90625 53.734375 70.53125 
Q 61.859375 68.171875 67.671875 62.5 
Q 72.796875 57.5625 75.28125 51.109375 
Q 77.78125 44.671875 77.78125 36.53125 
Q 77.78125 28.265625 75.28125 21.796875 
Q 72.796875 15.328125 67.671875 10.40625 
Q 61.8125 4.734375 53.609375 2.359375 
Q 45.40625 0 29 0 
L 9.1875 0 
z
" id="DejaVuSans-Bold-68"/>
     <path d="M 0.484375 72.90625 
L 67.671875 72.90625 
L 67.671875 58.6875 
L 43.5 58.6875 
L 43.5 0 
L 24.703125 0 
L 24.703125 58.6875 
L 0.484375 58.6875 
z
" id="DejaVuSans-Bold-84"/>
    </defs>
    <use xlink:href="#DejaVuSans-Bold-32"/>
    <use x="34.814453" xlink:href="#DejaVuSans-Bold-32"/>
    <use x="69.628906" xlink:href="#DejaVuSans-Bold-32"/>
    <use x="104.443359" xlink:href="#DejaVuSans-Bold-32"/>
    <use x="139.257812" xlink:href="#DejaVuSans-Bold-32"/>
    <use x="174.072266" xlink:href="#DejaVuSans-Bold-32"/>
    <use x="208.886719" xlink:href="#DejaVuSans-Bold-32"/>
    <use x="243.701172" xlink:href="#DejaVuSans-Bold-32"/>
    <use x="278.515625" xlink:href="#DejaVuSans-Bold-32"/>
    <use x="313.330078" xlink:href="#DejaVuSans-Bold-32"/>
    <use x="348.144531" xlink:href="#DejaVuSans-Bold-32"/>
    <use x="382.958984" xlink:href="#DejaVuSans-Bold-67"/>
    <use x="456.347656" xlink:href="#DejaVuSans-Bold-79"/>
    <use x="541.357422" xlink:href="#DejaVuSans-Bold-82"/>
    <use x="618.359375" xlink:href="#DejaVuSans-Bold-79"/>
    <use x="703.369141" xlink:href="#DejaVuSans-Bold-78"/>
    <use x="787.060547" xlink:href="#DejaVuSans-Bold-65"/>
    <use x="864.453125" xlink:href="#DejaVuSans-Bold-68"/>
    <use x="947.460938" xlink:href="#DejaVuSans-Bold-65"/>
    <use x="1017.103516" xlink:href="#DejaVuSans-Bold-84"/>
    <use x="1077.566406" xlink:href="#DejaVuSans-Bold-65"/>
    <use x="1154.958984" xlink:href="#DejaVuSans-Bold-32"/>
    <use x="1189.773438" xlink:href="#DejaVuSans-Bold-32"/>
    <use x="1224.587891" xlink:href="#DejaVuSans-Bold-32"/>
    <use x="1259.402344" xlink:href="#DejaVuSans-Bold-32"/>
    <use x="1294.216797" xlink:href="#DejaVuSans-Bold-32"/>
    <use x="1329.03125" xlink:href="#DejaVuSans-Bold-32"/>
    <use x="1363.845703" xlink:href="#DejaVuSans-Bold-32"/>
    <use x="1398.660156" xlink:href="#DejaVuSans-Bold-32"/>
    <use x="1433.474609" xlink:href="#DejaVuSans-Bold-32"/>
    <use x="1468.289062" xlink:href="#DejaVuSans-Bold-32"/>
    <use x="1503.103516" xlink:href="#DejaVuSans-Bold-32"/>
   </g>
  </g>
  <g id="text_2">
   <!-- Rt=1,19 -->
   <g style="fill:#4169e1;opacity:0.5;" transform="translate(26.46875 141.12)scale(0.2 -0.2)">
    <defs>
     <path d="M 27.484375 70.21875 
L 27.484375 54.6875 
L 45.515625 54.6875 
L 45.515625 42.1875 
L 27.484375 42.1875 
L 27.484375 19 
Q 27.484375 15.1875 29 13.84375 
Q 30.515625 12.5 35.015625 12.5 
L 44 12.5 
L 44 0 
L 29 0 
Q 18.65625 0 14.328125 4.3125 
Q 10.015625 8.640625 10.015625 19 
L 10.015625 42.1875 
L 1.3125 42.1875 
L 1.3125 54.6875 
L 10.015625 54.6875 
L 10.015625 70.21875 
z
" id="DejaVuSans-Bold-116"/>
     <path d="M 10.59375 48.1875 
L 73.1875 48.1875 
L 73.1875 36.71875 
L 10.59375 36.71875 
z
M 10.59375 25.984375 
L 73.1875 25.984375 
L 73.1875 14.40625 
L 10.59375 14.40625 
z
" id="DejaVuSans-Bold-61"/>
     <path d="M 11.71875 12.984375 
L 28.328125 12.984375 
L 28.328125 60.109375 
L 11.28125 56.59375 
L 11.28125 69.390625 
L 28.21875 72.90625 
L 46.09375 72.90625 
L 46.09375 12.984375 
L 62.703125 12.984375 
L 62.703125 0 
L 11.71875 0 
z
" id="DejaVuSans-Bold-49"/>
     <path d="M 10.203125 18.890625 
L 27.78125 18.890625 
L 27.78125 4 
L 15.71875 -14.203125 
L 5.328125 -14.203125 
L 10.203125 4 
z
" id="DejaVuSans-Bold-44"/>
     <path d="M 10.015625 1.609375 
L 10.015625 15.09375 
Q 14.5 12.984375 18.59375 11.9375 
Q 22.703125 10.890625 26.703125 10.890625 
Q 35.109375 10.890625 39.796875 15.546875 
Q 44.484375 20.21875 45.3125 29.390625 
Q 42 26.953125 38.234375 25.734375 
Q 34.46875 24.515625 30.078125 24.515625 
Q 18.890625 24.515625 12.03125 31.03125 
Q 5.171875 37.546875 5.171875 48.1875 
Q 5.171875 59.96875 12.8125 67.046875 
Q 20.453125 74.125 33.296875 74.125 
Q 47.5625 74.125 55.375 64.5 
Q 63.1875 54.890625 63.1875 37.3125 
Q 63.1875 19.234375 54.046875 8.90625 
Q 44.921875 -1.421875 29 -1.421875 
Q 23.875 -1.421875 19.1875 -0.65625 
Q 14.5 0.09375 10.015625 1.609375 
z
M 33.203125 36.71875 
Q 38.140625 36.71875 40.625 39.90625 
Q 43.109375 43.109375 43.109375 49.515625 
Q 43.109375 55.859375 40.625 59.078125 
Q 38.140625 62.3125 33.203125 62.3125 
Q 28.265625 62.3125 25.78125 59.078125 
Q 23.296875 55.859375 23.296875 49.515625 
Q 23.296875 43.109375 25.78125 39.90625 
Q 28.265625 36.71875 33.203125 36.71875 
z
" id="DejaVuSans-Bold-57"/>
    </defs>
    <use xlink:href="#DejaVuSans-Bold-82"/>
    <use x="77.001953" xlink:href="#DejaVuSans-Bold-116"/>
    <use x="124.804688" xlink:href="#DejaVuSans-Bold-61"/>
    <use x="208.59375" xlink:href="#DejaVuSans-Bold-49"/>
    <use x="278.173828" xlink:href="#DejaVuSans-Bold-44"/>
    <use x="316.162109" xlink:href="#DejaVuSans-Bold-49"/>
    <use x="385.742188" xlink:href="#DejaVuSans-Bold-57"/>
   </g>
  </g>
 </g>
 <defs>
  <clipPath id="p0b116741f4">
   <rect height="144" width="144" x="0" y="0"/>
  </clipPath>
 </defs>
</svg>
