<?xml version="1.0" encoding="utf-8" standalone="no"?>
<!DOCTYPE svg PUBLIC "-//W3C//DTD SVG 1.1//EN"
  "http://www.w3.org/Graphics/SVG/1.1/DTD/svg11.dtd">
<!-- Created with matplotlib (https://matplotlib.org/) -->
<svg height="144pt" version="1.1" viewBox="0 0 144 144" width="144pt" xmlns="http://www.w3.org/2000/svg" xmlns:xlink="http://www.w3.org/1999/xlink">
 <metadata>
  <rdf:RDF xmlns:cc="http://creativecommons.org/ns#" xmlns:dc="http://purl.org/dc/elements/1.1/" xmlns:rdf="http://www.w3.org/1999/02/22-rdf-syntax-ns#">
   <cc:Work>
    <dc:type rdf:resource="http://purl.org/dc/dcmitype/StillImage"/>
    <dc:date>2024-05-19T17:37:41.182316</dc:date>
    <dc:format>image/svg+xml</dc:format>
    <dc:creator>
     <cc:Agent>
      <dc:title>Matplotlib v3.3.2, https://matplotlib.org/</dc:title>
     </cc:Agent>
    </dc:creator>
   </cc:Work>
  </rdf:RDF>
 </metadata>
 <defs>
  <style type="text/css">*{stroke-linecap:butt;stroke-linejoin:round;}</style>
 </defs>
 <g id="figure_1">
  <g id="patch_1">
   <path d="M 0 144 
L 144 144 
L 144 0 
L 0 0 
z
" style="fill:#ffffff;"/>
  </g>
  <g id="axes_1">
   <g id="patch_2">
    <path d="M 0 144 
L 144 144 
L 144 0 
L 0 0 
z
" style="fill:#ffffff;"/>
   </g>
   <g id="line2d_1">
    <path clip-path="url(#p153ce9ee91)" d="M 6.545455 119.581157 
L 6.897992 119.187971 
L 7.368043 118.255565 
L 7.838094 116.801567 
L 8.425657 114.990605 
L 9.130733 111.516767 
L 9.483271 110.085107 
L 9.718296 109.844534 
L 9.953321 110.199205 
L 10.305859 111.310244 
L 11.245961 114.360288 
L 12.068549 116.209585 
L 13.00865 117.637141 
L 13.596213 118.141648 
L 14.301289 118.521191 
L 15.241391 118.733631 
L 17.591644 119.571075 
L 18.531745 119.736729 
L 23.702301 119.60458 
L 26.170067 119.235602 
L 27.227681 119.345897 
L 27.697731 119.329356 
L 28.167782 119.141667 
L 28.637833 118.701635 
L 29.225396 117.802311 
L 29.812959 116.486439 
L 30.870573 114.23472 
L 32.163212 112.303502 
L 32.633263 111.401039 
L 33.220826 110.689706 
L 33.925902 110.488012 
L 34.74849 110.962757 
L 35.571079 111.743998 
L 37.098743 113.375723 
L 37.451281 113.490003 
L 37.921332 113.677933 
L 39.213971 113.774161 
L 39.684022 113.450702 
L 40.154072 112.844352 
L 40.50661 111.9731 
L 41.211686 110.278711 
L 41.446711 110.014776 
L 41.681737 109.986644 
L 41.916762 110.226492 
L 42.504325 111.488937 
L 42.974376 112.380594 
L 43.444426 112.703027 
L 46.029705 113.897496 
L 46.73478 114.343445 
L 47.087318 114.312898 
L 47.557369 114.169279 
L 49.320059 114.317909 
L 49.790109 114.104986 
L 50.495185 113.747357 
L 50.965236 113.377595 
L 51.905337 112.261968 
L 52.4929 111.328234 
L 53.903052 110.139439 
L 54.373103 109.790564 
L 55.430717 108.818073 
L 55.783254 108.911525 
L 56.370818 109.665056 
L 57.428432 111.655798 
L 58.368533 113.230535 
L 59.778685 116.229326 
L 60.601273 116.99149 
L 61.188836 117.579005 
L 62.24645 118.621162 
L 63.069039 119.100797 
L 63.774115 119.339498 
L 63.774115 119.339498 
" style="fill:none;stroke:#add8e6;stroke-linecap:square;stroke-width:1.5;"/>
   </g>
   <g id="line2d_2">
    <path clip-path="url(#p153ce9ee91)" d="M 75.290354 114.853656 
L 76.700506 112.011959 
L 77.75812 109.102689 
L 78.463196 106.628337 
L 79.285784 102.578983 
L 80.343398 97.075682 
L 80.813449 95.728732 
L 81.165987 95.302894 
L 81.401012 95.294252 
L 81.636037 95.484429 
L 81.988575 96.100213 
L 82.458626 97.302384 
L 83.868778 101.60529 
L 84.221315 101.99866 
L 84.456341 101.948568 
L 84.691366 101.474127 
L 85.043904 99.988153 
L 85.513955 96.723629 
L 86.219031 89.981391 
L 86.806594 82.963987 
L 87.394157 73.799871 
L 88.804309 48.343857 
L 89.156847 45.530326 
L 89.391872 45 
L 89.509385 45.198599 
L 89.74441 46.470491 
L 90.096948 50.308917 
L 90.684511 60.291156 
L 91.389587 71.599832 
L 91.742125 73.746466 
L 91.859638 73.812918 
L 91.97715 73.55252 
L 92.212176 72.187935 
L 92.564714 68.398971 
L 93.152277 62.031103 
L 93.387302 61.107196 
L 93.504815 61.111662 
L 93.622327 61.390546 
L 93.857353 62.808031 
L 94.327403 67.729497 
L 95.620042 83.271502 
L 96.677656 93.891301 
L 97.382732 98.963368 
L 97.970295 101.804564 
L 98.675371 104.093391 
L 99.145422 104.965507 
L 99.615472 105.420845 
L 100.085523 105.528712 
L 101.025624 105.654229 
L 102.200751 105.854739 
L 102.553289 105.641688 
L 102.905827 105.215315 
L 103.49339 104.044153 
L 105.843643 98.775109 
L 106.548719 97.89551 
L 107.253795 97.373872 
L 107.606333 97.232555 
L 108.076383 97.308977 
L 108.428921 97.524578 
L 108.898972 98.132714 
L 111.014199 101.002282 
L 114.069528 103.447269 
L 115.597193 103.776726 
L 116.067243 103.646958 
L 116.537294 103.22946 
L 118.064958 101.455899 
L 118.535009 101.306674 
L 119.122572 101.450596 
L 119.592623 101.717945 
L 120.180186 102.310668 
L 120.767749 103.292859 
L 122.060388 105.575487 
L 122.647952 106.074332 
L 123.118002 106.206664 
L 123.940591 106.119448 
L 125.23323 105.753499 
L 126.760894 105.555357 
L 127.818508 104.983661 
L 128.053534 105.065422 
L 128.641097 105.726982 
L 130.051249 107.611476 
L 130.521299 107.797548 
L 130.99135 107.589118 
L 131.578913 107.0062 
L 134.869267 103.340606 
L 135.339318 103.31314 
L 136.631957 103.831362 
L 137.454545 104.414639 
L 137.454545 104.414639 
" style="fill:none;stroke:#ff0000;stroke-linecap:square;stroke-width:1.5;"/>
   </g>
   <g id="patch_3">
    <path d="M 0 144 
L 0 -0 
" style="fill:none;stroke:#ffffff;stroke-linecap:square;stroke-linejoin:miter;stroke-width:0.8;"/>
   </g>
   <g id="patch_4">
    <path d="M 144 144 
L 144 -0 
" style="fill:none;stroke:#ffffff;stroke-linecap:square;stroke-linejoin:miter;stroke-width:0.8;"/>
   </g>
   <g id="patch_5">
    <path d="M 0 144 
L 144 144 
" style="fill:none;stroke:#ffffff;stroke-linecap:square;stroke-linejoin:miter;stroke-width:0.8;"/>
   </g>
   <g id="patch_6">
    <path d="M 0 0 
L 144 0 
" style="fill:none;stroke:#ffffff;stroke-linecap:square;stroke-linejoin:miter;stroke-width:0.8;"/>
   </g>
  </g>
  <g id="text_1">
   <g id="patch_7">
    <path d="M -64.84815 36.3681 
L 208.84815 36.3681 
L 208.84815 -7.65432 
L -64.84815 -7.65432 
z
" style="fill:#ffff00;stroke:#ffff00;stroke-linejoin:miter;"/>
   </g>
   <!--  -->
   <g transform="translate(72 9.45018)scale(0.1728 -0.1728)"/>
   <!--            CORONADATA            -->
   <g transform="translate(-60.87375 28.8)scale(0.1728 -0.1728)">
    <defs>
     <path id="DejaVuSans-Bold-32"/>
     <path d="M 67 4 
Q 61.8125 1.3125 56.203125 -0.046875 
Q 50.59375 -1.421875 44.484375 -1.421875 
Q 26.265625 -1.421875 15.625 8.765625 
Q 4.984375 18.953125 4.984375 36.375 
Q 4.984375 53.859375 15.625 64.03125 
Q 26.265625 74.21875 44.484375 74.21875 
Q 50.59375 74.21875 56.203125 72.84375 
Q 61.8125 71.484375 67 68.796875 
L 67 53.71875 
Q 61.765625 57.28125 56.6875 58.9375 
Q 51.609375 60.59375 46 60.59375 
Q 35.9375 60.59375 30.171875 54.140625 
Q 24.421875 47.703125 24.421875 36.375 
Q 24.421875 25.09375 30.171875 18.640625 
Q 35.9375 12.203125 46 12.203125 
Q 51.609375 12.203125 56.6875 13.859375 
Q 61.765625 15.53125 67 19.09375 
z
" id="DejaVuSans-Bold-67"/>
     <path d="M 42.484375 60.59375 
Q 33.890625 60.59375 29.15625 54.25 
Q 24.421875 47.90625 24.421875 36.375 
Q 24.421875 24.90625 29.15625 18.546875 
Q 33.890625 12.203125 42.484375 12.203125 
Q 51.125 12.203125 55.859375 18.546875 
Q 60.59375 24.90625 60.59375 36.375 
Q 60.59375 47.90625 55.859375 54.25 
Q 51.125 60.59375 42.484375 60.59375 
z
M 42.484375 74.21875 
Q 60.0625 74.21875 70.015625 64.15625 
Q 79.984375 54.109375 79.984375 36.375 
Q 79.984375 18.703125 70.015625 8.640625 
Q 60.0625 -1.421875 42.484375 -1.421875 
Q 24.953125 -1.421875 14.96875 8.640625 
Q 4.984375 18.703125 4.984375 36.375 
Q 4.984375 54.109375 14.96875 64.15625 
Q 24.953125 74.21875 42.484375 74.21875 
z
" id="DejaVuSans-Bold-79"/>
     <path d="M 35.890625 40.578125 
Q 41.796875 40.578125 44.359375 42.765625 
Q 46.921875 44.96875 46.921875 50 
Q 46.921875 54.984375 44.359375 57.125 
Q 41.796875 59.28125 35.890625 59.28125 
L 27.984375 59.28125 
L 27.984375 40.578125 
z
M 27.984375 27.59375 
L 27.984375 0 
L 9.1875 0 
L 9.1875 72.90625 
L 37.890625 72.90625 
Q 52.296875 72.90625 59 68.0625 
Q 65.71875 63.234375 65.71875 52.78125 
Q 65.71875 45.5625 62.21875 40.921875 
Q 58.734375 36.28125 51.703125 34.078125 
Q 55.5625 33.203125 58.609375 30.09375 
Q 61.671875 27 64.796875 20.703125 
L 75 0 
L 54.984375 0 
L 46.09375 18.109375 
Q 43.40625 23.578125 40.640625 25.578125 
Q 37.890625 27.59375 33.296875 27.59375 
z
" id="DejaVuSans-Bold-82"/>
     <path d="M 9.1875 72.90625 
L 30.171875 72.90625 
L 56.6875 22.90625 
L 56.6875 72.90625 
L 74.515625 72.90625 
L 74.515625 0 
L 53.515625 0 
L 27 50 
L 27 0 
L 9.1875 0 
z
" id="DejaVuSans-Bold-78"/>
     <path d="M 53.421875 13.28125 
L 24.03125 13.28125 
L 19.390625 0 
L 0.484375 0 
L 27.484375 72.90625 
L 49.90625 72.90625 
L 76.90625 0 
L 58.015625 0 
z
M 28.71875 26.8125 
L 48.6875 26.8125 
L 38.71875 55.8125 
z
" id="DejaVuSans-Bold-65"/>
     <path d="M 27.984375 58.6875 
L 27.984375 14.203125 
L 34.71875 14.203125 
Q 46.234375 14.203125 52.3125 19.921875 
Q 58.40625 25.640625 58.40625 36.53125 
Q 58.40625 47.359375 52.34375 53.015625 
Q 46.296875 58.6875 34.71875 58.6875 
z
M 9.1875 72.90625 
L 29 72.90625 
Q 45.609375 72.90625 53.734375 70.53125 
Q 61.859375 68.171875 67.671875 62.5 
Q 72.796875 57.5625 75.28125 51.109375 
Q 77.78125 44.671875 77.78125 36.53125 
Q 77.78125 28.265625 75.28125 21.796875 
Q 72.796875 15.328125 67.671875 10.40625 
Q 61.8125 4.734375 53.609375 2.359375 
Q 45.40625 0 29 0 
L 9.1875 0 
z
" id="DejaVuSans-Bold-68"/>
     <path d="M 0.484375 72.90625 
L 67.671875 72.90625 
L 67.671875 58.6875 
L 43.5 58.6875 
L 43.5 0 
L 24.703125 0 
L 24.703125 58.6875 
L 0.484375 58.6875 
z
" id="DejaVuSans-Bold-84"/>
    </defs>
    <use xlink:href="#DejaVuSans-Bold-32"/>
    <use x="34.814453" xlink:href="#DejaVuSans-Bold-32"/>
    <use x="69.628906" xlink:href="#DejaVuSans-Bold-32"/>
    <use x="104.443359" xlink:href="#DejaVuSans-Bold-32"/>
    <use x="139.257812" xlink:href="#DejaVuSans-Bold-32"/>
    <use x="174.072266" xlink:href="#DejaVuSans-Bold-32"/>
    <use x="208.886719" xlink:href="#DejaVuSans-Bold-32"/>
    <use x="243.701172" xlink:href="#DejaVuSans-Bold-32"/>
    <use x="278.515625" xlink:href="#DejaVuSans-Bold-32"/>
    <use x="313.330078" xlink:href="#DejaVuSans-Bold-32"/>
    <use x="348.144531" xlink:href="#DejaVuSans-Bold-32"/>
    <use x="382.958984" xlink:href="#DejaVuSans-Bold-67"/>
    <use x="456.347656" xlink:href="#DejaVuSans-Bold-79"/>
    <use x="541.357422" xlink:href="#DejaVuSans-Bold-82"/>
    <use x="618.359375" xlink:href="#DejaVuSans-Bold-79"/>
    <use x="703.369141" xlink:href="#DejaVuSans-Bold-78"/>
    <use x="787.060547" xlink:href="#DejaVuSans-Bold-65"/>
    <use x="864.453125" xlink:href="#DejaVuSans-Bold-68"/>
    <use x="947.460938" xlink:href="#DejaVuSans-Bold-65"/>
    <use x="1017.103516" xlink:href="#DejaVuSans-Bold-84"/>
    <use x="1077.566406" xlink:href="#DejaVuSans-Bold-65"/>
    <use x="1154.958984" xlink:href="#DejaVuSans-Bold-32"/>
    <use x="1189.773438" xlink:href="#DejaVuSans-Bold-32"/>
    <use x="1224.587891" xlink:href="#DejaVuSans-Bold-32"/>
    <use x="1259.402344" xlink:href="#DejaVuSans-Bold-32"/>
    <use x="1294.216797" xlink:href="#DejaVuSans-Bold-32"/>
    <use x="1329.03125" xlink:href="#DejaVuSans-Bold-32"/>
    <use x="1363.845703" xlink:href="#DejaVuSans-Bold-32"/>
    <use x="1398.660156" xlink:href="#DejaVuSans-Bold-32"/>
    <use x="1433.474609" xlink:href="#DejaVuSans-Bold-32"/>
    <use x="1468.289062" xlink:href="#DejaVuSans-Bold-32"/>
    <use x="1503.103516" xlink:href="#DejaVuSans-Bold-32"/>
   </g>
  </g>
  <g id="text_2">
   <!-- Rt=0,9 -->
   <g style="fill:#4169e1;opacity:0.5;" transform="translate(33.426562 141.12)scale(0.2 -0.2)">
    <defs>
     <path d="M 27.484375 70.21875 
L 27.484375 54.6875 
L 45.515625 54.6875 
L 45.515625 42.1875 
L 27.484375 42.1875 
L 27.484375 19 
Q 27.484375 15.1875 29 13.84375 
Q 30.515625 12.5 35.015625 12.5 
L 44 12.5 
L 44 0 
L 29 0 
Q 18.65625 0 14.328125 4.3125 
Q 10.015625 8.640625 10.015625 19 
L 10.015625 42.1875 
L 1.3125 42.1875 
L 1.3125 54.6875 
L 10.015625 54.6875 
L 10.015625 70.21875 
z
" id="DejaVuSans-Bold-116"/>
     <path d="M 10.59375 48.1875 
L 73.1875 48.1875 
L 73.1875 36.71875 
L 10.59375 36.71875 
z
M 10.59375 25.984375 
L 73.1875 25.984375 
L 73.1875 14.40625 
L 10.59375 14.40625 
z
" id="DejaVuSans-Bold-61"/>
     <path d="M 46 36.53125 
Q 46 50.203125 43.4375 55.78125 
Q 40.875 61.375 34.8125 61.375 
Q 28.765625 61.375 26.171875 55.78125 
Q 23.578125 50.203125 23.578125 36.53125 
Q 23.578125 22.703125 26.171875 17.03125 
Q 28.765625 11.375 34.8125 11.375 
Q 40.828125 11.375 43.40625 17.03125 
Q 46 22.703125 46 36.53125 
z
M 64.796875 36.375 
Q 64.796875 18.265625 56.984375 8.421875 
Q 49.171875 -1.421875 34.8125 -1.421875 
Q 20.40625 -1.421875 12.59375 8.421875 
Q 4.78125 18.265625 4.78125 36.375 
Q 4.78125 54.546875 12.59375 64.375 
Q 20.40625 74.21875 34.8125 74.21875 
Q 49.171875 74.21875 56.984375 64.375 
Q 64.796875 54.546875 64.796875 36.375 
z
" id="DejaVuSans-Bold-48"/>
     <path d="M 10.203125 18.890625 
L 27.78125 18.890625 
L 27.78125 4 
L 15.71875 -14.203125 
L 5.328125 -14.203125 
L 10.203125 4 
z
" id="DejaVuSans-Bold-44"/>
     <path d="M 10.015625 1.609375 
L 10.015625 15.09375 
Q 14.5 12.984375 18.59375 11.9375 
Q 22.703125 10.890625 26.703125 10.890625 
Q 35.109375 10.890625 39.796875 15.546875 
Q 44.484375 20.21875 45.3125 29.390625 
Q 42 26.953125 38.234375 25.734375 
Q 34.46875 24.515625 30.078125 24.515625 
Q 18.890625 24.515625 12.03125 31.03125 
Q 5.171875 37.546875 5.171875 48.1875 
Q 5.171875 59.96875 12.8125 67.046875 
Q 20.453125 74.125 33.296875 74.125 
Q 47.5625 74.125 55.375 64.5 
Q 63.1875 54.890625 63.1875 37.3125 
Q 63.1875 19.234375 54.046875 8.90625 
Q 44.921875 -1.421875 29 -1.421875 
Q 23.875 -1.421875 19.1875 -0.65625 
Q 14.5 0.09375 10.015625 1.609375 
z
M 33.203125 36.71875 
Q 38.140625 36.71875 40.625 39.90625 
Q 43.109375 43.109375 43.109375 49.515625 
Q 43.109375 55.859375 40.625 59.078125 
Q 38.140625 62.3125 33.203125 62.3125 
Q 28.265625 62.3125 25.78125 59.078125 
Q 23.296875 55.859375 23.296875 49.515625 
Q 23.296875 43.109375 25.78125 39.90625 
Q 28.265625 36.71875 33.203125 36.71875 
z
" id="DejaVuSans-Bold-57"/>
    </defs>
    <use xlink:href="#DejaVuSans-Bold-82"/>
    <use x="77.001953" xlink:href="#DejaVuSans-Bold-116"/>
    <use x="124.804688" xlink:href="#DejaVuSans-Bold-61"/>
    <use x="208.59375" xlink:href="#DejaVuSans-Bold-48"/>
    <use x="278.173828" xlink:href="#DejaVuSans-Bold-44"/>
    <use x="316.162109" xlink:href="#DejaVuSans-Bold-57"/>
   </g>
  </g>
 </g>
 <defs>
  <clipPath id="p153ce9ee91">
   <rect height="144" width="144" x="0" y="0"/>
  </clipPath>
 </defs>
</svg>
