<?xml version="1.0" encoding="utf-8" standalone="no"?>
<!DOCTYPE svg PUBLIC "-//W3C//DTD SVG 1.1//EN"
  "http://www.w3.org/Graphics/SVG/1.1/DTD/svg11.dtd">
<!-- Created with matplotlib (https://matplotlib.org/) -->
<svg height="144pt" version="1.1" viewBox="0 0 144 144" width="144pt" xmlns="http://www.w3.org/2000/svg" xmlns:xlink="http://www.w3.org/1999/xlink">
 <metadata>
  <rdf:RDF xmlns:cc="http://creativecommons.org/ns#" xmlns:dc="http://purl.org/dc/elements/1.1/" xmlns:rdf="http://www.w3.org/1999/02/22-rdf-syntax-ns#">
   <cc:Work>
    <dc:type rdf:resource="http://purl.org/dc/dcmitype/StillImage"/>
    <dc:date>2022-03-09T23:55:49.312115</dc:date>
    <dc:format>image/svg+xml</dc:format>
    <dc:creator>
     <cc:Agent>
      <dc:title>Matplotlib v3.3.2, https://matplotlib.org/</dc:title>
     </cc:Agent>
    </dc:creator>
   </cc:Work>
  </rdf:RDF>
 </metadata>
 <defs>
  <style type="text/css">*{stroke-linecap:butt;stroke-linejoin:round;}</style>
 </defs>
 <g id="figure_1">
  <g id="patch_1">
   <path d="M 0 144 
L 144 144 
L 144 0 
L 0 0 
z
" style="fill:#ffffff;"/>
  </g>
  <g id="axes_1">
   <g id="patch_2">
    <path d="M 0 144 
L 144 144 
L 144 0 
L 0 0 
z
" style="fill:#ffffff;"/>
   </g>
   <g id="line2d_1">
    <path clip-path="url(#pc79fe26edc)" d="M 6.545455 119.922836 
L 7.77054 119.740633 
L 8.470588 119.375147 
L 8.995625 118.811724 
L 9.695673 117.577897 
L 11.095771 114.038214 
L 11.970831 110.679155 
L 12.495868 108.604934 
L 12.845892 107.983243 
L 13.020904 107.913767 
L 13.370929 108.335868 
L 13.720953 109.151115 
L 15.12105 112.877886 
L 15.821099 114.335517 
L 17.046184 116.233281 
L 18.096257 117.342598 
L 18.971317 117.889425 
L 19.846378 118.240038 
L 21.071463 118.446023 
L 25.971804 119.681574 
L 31.39718 119.739268 
L 33.672338 119.55577 
L 37.347594 119.093723 
L 38.747691 119.176131 
L 39.797764 119.201853 
L 40.497812 118.97848 
L 41.197861 118.454788 
L 42.072922 117.384485 
L 42.77297 116.199729 
L 43.823043 114.171921 
L 45.748177 111.835747 
L 46.098201 111.457185 
L 47.498298 109.428084 
L 48.198347 108.86617 
L 48.898396 108.630153 
L 49.773456 108.964744 
L 50.823529 109.611797 
L 51.69859 110.338744 
L 53.098687 111.683359 
L 53.798736 112.116309 
L 54.323772 112.252315 
L 54.848809 112.441704 
L 56.59893 112.687995 
L 56.948955 112.590499 
L 57.649003 112.205543 
L 58.349052 111.483912 
L 58.699076 110.859419 
L 59.574137 108.966612 
L 60.099174 108.211141 
L 60.449198 108.048121 
L 60.799222 108.179529 
L 61.324259 108.8689 
L 62.374332 110.783261 
L 63.07438 111.2512 
L 63.599417 111.396762 
L 63.949441 111.442313 
L 64.64949 111.735951 
L 65.699562 112.079236 
L 66.574623 112.521597 
L 67.449684 112.922 
L 68.149733 113.268015 
L 68.674769 113.231661 
L 69.374818 113.060737 
L 71.824988 113.268374 
L 72.525036 113.049816 
L 74.100146 112.373162 
L 75.500243 111.157943 
L 76.02528 110.52569 
L 76.725328 109.679549 
L 78.125425 108.758399 
L 79.525523 107.849536 
L 81.100632 106.692154 
L 81.625668 106.803373 
L 82.325717 107.473992 
L 82.850754 108.303967 
L 83.550802 109.430815 
L 84.250851 110.284787 
L 85.125912 111.394678 
L 85.82596 112.569663 
L 87.226057 115.093717 
L 87.751094 115.669211 
L 88.626155 116.28925 
L 90.201264 117.588171 
L 90.901313 118.124939 
L 91.951386 118.72716 
L 93.351483 119.164133 
L 93.526495 119.213923 
L 93.526495 119.213923 
" style="fill:none;stroke:#add8e6;stroke-linecap:square;stroke-width:1.5;"/>
   </g>
   <g id="line2d_2">
    <path clip-path="url(#pc79fe26edc)" d="M 24.921731 118.913686 
L 27.721925 119.167357 
L 30.347107 119.118409 
L 32.447253 118.953819 
L 33.847351 118.670852 
L 36.472533 118.014645 
L 37.87263 117.921504 
L 39.622752 117.78487 
L 40.847837 117.436002 
L 42.072922 116.807472 
L 43.648031 115.774492 
L 44.873116 114.763748 
L 45.748177 113.694902 
L 46.79825 111.978188 
L 48.023335 109.977921 
L 48.898396 108.864818 
L 49.598444 108.288754 
L 50.123481 108.167197 
L 50.473505 108.283036 
L 50.998542 108.739517 
L 52.048614 110.160832 
L 52.748663 111.002678 
L 53.448712 111.478893 
L 54.323772 111.817009 
L 55.198833 112.007655 
L 55.898882 111.920081 
L 56.423918 111.628239 
L 56.948955 111.025631 
L 57.824016 109.611619 
L 58.874088 107.788218 
L 59.399125 107.295915 
L 59.924161 107.161369 
L 60.449198 107.430317 
L 61.149246 108.174037 
L 62.024307 109.0988 
L 62.724356 109.633944 
L 65.349538 111.867976 
L 67.97472 113.351895 
L 68.849781 113.638259 
L 69.899854 113.336252 
L 70.774915 112.805613 
L 71.649976 112.381607 
L 73.050073 111.766497 
L 73.750122 111.228847 
L 76.200292 108.945675 
L 76.725328 108.738607 
L 77.600389 108.740268 
L 78.825474 108.834924 
L 80.050559 108.442029 
L 80.92562 108.290866 
L 81.625668 108.438393 
L 82.850754 109.152283 
L 84.075839 110.103433 
L 84.950899 110.996022 
L 87.226057 113.737919 
L 89.326203 115.570849 
L 89.85124 115.90427 
L 90.376276 116.395574 
L 90.901313 116.686277 
L 91.601361 117.178245 
L 92.826446 117.38631 
L 93.176471 117.101291 
L 93.701507 116.178766 
L 94.226544 114.636493 
L 95.801653 109.166236 
L 96.151677 108.68108 
L 96.326689 108.613697 
L 96.851726 108.858621 
L 97.376762 109.789599 
L 98.77686 112.841582 
L 99.301896 113.484603 
L 99.826932 113.845834 
L 100.526981 114.049453 
L 101.22703 114.07434 
L 103.327175 114.022253 
L 104.902285 114.346804 
L 107.702479 115.410142 
L 108.57754 115.651012 
L 109.277589 115.640066 
L 109.977637 115.386431 
L 110.677686 114.840038 
L 111.552747 113.883827 
L 112.777832 112.102855 
L 114.177929 109.577539 
L 115.228002 107.232467 
L 116.103063 104.595216 
L 117.328148 100.043396 
L 118.203209 97.221487 
L 118.728245 96.11651 
L 119.253281 95.521798 
L 119.603306 95.415501 
L 119.95333 95.500877 
L 120.478367 95.988392 
L 121.178415 97.090329 
L 122.228488 99.398587 
L 123.103549 101.168306 
L 123.628585 101.909189 
L 123.97861 102.105061 
L 124.328634 102.056136 
L 124.678658 101.585455 
L 125.028683 100.69145 
L 125.553719 98.661374 
L 126.253768 94.830679 
L 127.478853 86.225094 
L 128.353913 77.958532 
L 129.228974 66.919058 
L 130.454059 51.490456 
L 130.979096 47.092901 
L 131.32912 45.51205 
L 131.504132 45.100535 
L 131.679144 45 
L 131.854157 45.211219 
L 132.204181 46.510558 
L 132.729217 50.377224 
L 133.429266 58.220739 
L 134.479339 70.285099 
L 134.829363 72.759411 
L 135.179387 73.904369 
L 135.3544 73.980419 
L 135.529412 73.692108 
L 135.879436 72.149735 
L 136.22946 69.443509 
L 137.104521 59.148223 
L 137.454545 54.919148 
L 137.454545 54.919148 
" style="fill:none;stroke:#ff0000;stroke-linecap:square;stroke-width:1.5;"/>
   </g>
   <g id="patch_3">
    <path d="M 0 144 
L 0 0 
" style="fill:none;stroke:#ffffff;stroke-linecap:square;stroke-linejoin:miter;stroke-width:0.8;"/>
   </g>
   <g id="patch_4">
    <path d="M 144 144 
L 144 0 
" style="fill:none;stroke:#ffffff;stroke-linecap:square;stroke-linejoin:miter;stroke-width:0.8;"/>
   </g>
   <g id="patch_5">
    <path d="M 0 144 
L 144 144 
" style="fill:none;stroke:#ffffff;stroke-linecap:square;stroke-linejoin:miter;stroke-width:0.8;"/>
   </g>
   <g id="patch_6">
    <path d="M 0 0 
L 144 0 
" style="fill:none;stroke:#ffffff;stroke-linecap:square;stroke-linejoin:miter;stroke-width:0.8;"/>
   </g>
  </g>
  <g id="text_1">
   <g id="patch_7">
    <path d="M -64.84815 36.3681 
L 208.84815 36.3681 
L 208.84815 -7.65432 
L -64.84815 -7.65432 
z
" style="fill:#ffff00;stroke:#ffff00;stroke-linejoin:miter;"/>
   </g>
   <!--  -->
   <g transform="translate(72 9.45018)scale(0.1728 -0.1728)"/>
   <!--            CORONADATA            -->
   <g transform="translate(-60.87375 28.8)scale(0.1728 -0.1728)">
    <defs>
     <path id="DejaVuSans-Bold-32"/>
     <path d="M 67 4 
Q 61.8125 1.3125 56.203125 -0.046875 
Q 50.59375 -1.421875 44.484375 -1.421875 
Q 26.265625 -1.421875 15.625 8.765625 
Q 4.984375 18.953125 4.984375 36.375 
Q 4.984375 53.859375 15.625 64.03125 
Q 26.265625 74.21875 44.484375 74.21875 
Q 50.59375 74.21875 56.203125 72.84375 
Q 61.8125 71.484375 67 68.796875 
L 67 53.71875 
Q 61.765625 57.28125 56.6875 58.9375 
Q 51.609375 60.59375 46 60.59375 
Q 35.9375 60.59375 30.171875 54.140625 
Q 24.421875 47.703125 24.421875 36.375 
Q 24.421875 25.09375 30.171875 18.640625 
Q 35.9375 12.203125 46 12.203125 
Q 51.609375 12.203125 56.6875 13.859375 
Q 61.765625 15.53125 67 19.09375 
z
" id="DejaVuSans-Bold-67"/>
     <path d="M 42.484375 60.59375 
Q 33.890625 60.59375 29.15625 54.25 
Q 24.421875 47.90625 24.421875 36.375 
Q 24.421875 24.90625 29.15625 18.546875 
Q 33.890625 12.203125 42.484375 12.203125 
Q 51.125 12.203125 55.859375 18.546875 
Q 60.59375 24.90625 60.59375 36.375 
Q 60.59375 47.90625 55.859375 54.25 
Q 51.125 60.59375 42.484375 60.59375 
z
M 42.484375 74.21875 
Q 60.0625 74.21875 70.015625 64.15625 
Q 79.984375 54.109375 79.984375 36.375 
Q 79.984375 18.703125 70.015625 8.640625 
Q 60.0625 -1.421875 42.484375 -1.421875 
Q 24.953125 -1.421875 14.96875 8.640625 
Q 4.984375 18.703125 4.984375 36.375 
Q 4.984375 54.109375 14.96875 64.15625 
Q 24.953125 74.21875 42.484375 74.21875 
z
" id="DejaVuSans-Bold-79"/>
     <path d="M 35.890625 40.578125 
Q 41.796875 40.578125 44.359375 42.765625 
Q 46.921875 44.96875 46.921875 50 
Q 46.921875 54.984375 44.359375 57.125 
Q 41.796875 59.28125 35.890625 59.28125 
L 27.984375 59.28125 
L 27.984375 40.578125 
z
M 27.984375 27.59375 
L 27.984375 0 
L 9.1875 0 
L 9.1875 72.90625 
L 37.890625 72.90625 
Q 52.296875 72.90625 59 68.0625 
Q 65.71875 63.234375 65.71875 52.78125 
Q 65.71875 45.5625 62.21875 40.921875 
Q 58.734375 36.28125 51.703125 34.078125 
Q 55.5625 33.203125 58.609375 30.09375 
Q 61.671875 27 64.796875 20.703125 
L 75 0 
L 54.984375 0 
L 46.09375 18.109375 
Q 43.40625 23.578125 40.640625 25.578125 
Q 37.890625 27.59375 33.296875 27.59375 
z
" id="DejaVuSans-Bold-82"/>
     <path d="M 9.1875 72.90625 
L 30.171875 72.90625 
L 56.6875 22.90625 
L 56.6875 72.90625 
L 74.515625 72.90625 
L 74.515625 0 
L 53.515625 0 
L 27 50 
L 27 0 
L 9.1875 0 
z
" id="DejaVuSans-Bold-78"/>
     <path d="M 53.421875 13.28125 
L 24.03125 13.28125 
L 19.390625 0 
L 0.484375 0 
L 27.484375 72.90625 
L 49.90625 72.90625 
L 76.90625 0 
L 58.015625 0 
z
M 28.71875 26.8125 
L 48.6875 26.8125 
L 38.71875 55.8125 
z
" id="DejaVuSans-Bold-65"/>
     <path d="M 27.984375 58.6875 
L 27.984375 14.203125 
L 34.71875 14.203125 
Q 46.234375 14.203125 52.3125 19.921875 
Q 58.40625 25.640625 58.40625 36.53125 
Q 58.40625 47.359375 52.34375 53.015625 
Q 46.296875 58.6875 34.71875 58.6875 
z
M 9.1875 72.90625 
L 29 72.90625 
Q 45.609375 72.90625 53.734375 70.53125 
Q 61.859375 68.171875 67.671875 62.5 
Q 72.796875 57.5625 75.28125 51.109375 
Q 77.78125 44.671875 77.78125 36.53125 
Q 77.78125 28.265625 75.28125 21.796875 
Q 72.796875 15.328125 67.671875 10.40625 
Q 61.8125 4.734375 53.609375 2.359375 
Q 45.40625 0 29 0 
L 9.1875 0 
z
" id="DejaVuSans-Bold-68"/>
     <path d="M 0.484375 72.90625 
L 67.671875 72.90625 
L 67.671875 58.6875 
L 43.5 58.6875 
L 43.5 0 
L 24.703125 0 
L 24.703125 58.6875 
L 0.484375 58.6875 
z
" id="DejaVuSans-Bold-84"/>
    </defs>
    <use xlink:href="#DejaVuSans-Bold-32"/>
    <use x="34.814453" xlink:href="#DejaVuSans-Bold-32"/>
    <use x="69.628906" xlink:href="#DejaVuSans-Bold-32"/>
    <use x="104.443359" xlink:href="#DejaVuSans-Bold-32"/>
    <use x="139.257812" xlink:href="#DejaVuSans-Bold-32"/>
    <use x="174.072266" xlink:href="#DejaVuSans-Bold-32"/>
    <use x="208.886719" xlink:href="#DejaVuSans-Bold-32"/>
    <use x="243.701172" xlink:href="#DejaVuSans-Bold-32"/>
    <use x="278.515625" xlink:href="#DejaVuSans-Bold-32"/>
    <use x="313.330078" xlink:href="#DejaVuSans-Bold-32"/>
    <use x="348.144531" xlink:href="#DejaVuSans-Bold-32"/>
    <use x="382.958984" xlink:href="#DejaVuSans-Bold-67"/>
    <use x="456.347656" xlink:href="#DejaVuSans-Bold-79"/>
    <use x="541.357422" xlink:href="#DejaVuSans-Bold-82"/>
    <use x="618.359375" xlink:href="#DejaVuSans-Bold-79"/>
    <use x="703.369141" xlink:href="#DejaVuSans-Bold-78"/>
    <use x="787.060547" xlink:href="#DejaVuSans-Bold-65"/>
    <use x="864.453125" xlink:href="#DejaVuSans-Bold-68"/>
    <use x="947.460938" xlink:href="#DejaVuSans-Bold-65"/>
    <use x="1017.103516" xlink:href="#DejaVuSans-Bold-84"/>
    <use x="1077.566406" xlink:href="#DejaVuSans-Bold-65"/>
    <use x="1154.958984" xlink:href="#DejaVuSans-Bold-32"/>
    <use x="1189.773438" xlink:href="#DejaVuSans-Bold-32"/>
    <use x="1224.587891" xlink:href="#DejaVuSans-Bold-32"/>
    <use x="1259.402344" xlink:href="#DejaVuSans-Bold-32"/>
    <use x="1294.216797" xlink:href="#DejaVuSans-Bold-32"/>
    <use x="1329.03125" xlink:href="#DejaVuSans-Bold-32"/>
    <use x="1363.845703" xlink:href="#DejaVuSans-Bold-32"/>
    <use x="1398.660156" xlink:href="#DejaVuSans-Bold-32"/>
    <use x="1433.474609" xlink:href="#DejaVuSans-Bold-32"/>
    <use x="1468.289062" xlink:href="#DejaVuSans-Bold-32"/>
    <use x="1503.103516" xlink:href="#DejaVuSans-Bold-32"/>
   </g>
  </g>
  <g id="text_2">
   <!-- Rt=1.0 -->
   <g style="fill:#4169e1;opacity:0.5;" transform="translate(33.426562 141.12)scale(0.2 -0.2)">
    <defs>
     <path d="M 27.484375 70.21875 
L 27.484375 54.6875 
L 45.515625 54.6875 
L 45.515625 42.1875 
L 27.484375 42.1875 
L 27.484375 19 
Q 27.484375 15.1875 29 13.84375 
Q 30.515625 12.5 35.015625 12.5 
L 44 12.5 
L 44 0 
L 29 0 
Q 18.65625 0 14.328125 4.3125 
Q 10.015625 8.640625 10.015625 19 
L 10.015625 42.1875 
L 1.3125 42.1875 
L 1.3125 54.6875 
L 10.015625 54.6875 
L 10.015625 70.21875 
z
" id="DejaVuSans-Bold-116"/>
     <path d="M 10.59375 48.1875 
L 73.1875 48.1875 
L 73.1875 36.71875 
L 10.59375 36.71875 
z
M 10.59375 25.984375 
L 73.1875 25.984375 
L 73.1875 14.40625 
L 10.59375 14.40625 
z
" id="DejaVuSans-Bold-61"/>
     <path d="M 11.71875 12.984375 
L 28.328125 12.984375 
L 28.328125 60.109375 
L 11.28125 56.59375 
L 11.28125 69.390625 
L 28.21875 72.90625 
L 46.09375 72.90625 
L 46.09375 12.984375 
L 62.703125 12.984375 
L 62.703125 0 
L 11.71875 0 
z
" id="DejaVuSans-Bold-49"/>
     <path d="M 10.203125 18.890625 
L 27.78125 18.890625 
L 27.78125 0 
L 10.203125 0 
z
" id="DejaVuSans-Bold-46"/>
     <path d="M 46 36.53125 
Q 46 50.203125 43.4375 55.78125 
Q 40.875 61.375 34.8125 61.375 
Q 28.765625 61.375 26.171875 55.78125 
Q 23.578125 50.203125 23.578125 36.53125 
Q 23.578125 22.703125 26.171875 17.03125 
Q 28.765625 11.375 34.8125 11.375 
Q 40.828125 11.375 43.40625 17.03125 
Q 46 22.703125 46 36.53125 
z
M 64.796875 36.375 
Q 64.796875 18.265625 56.984375 8.421875 
Q 49.171875 -1.421875 34.8125 -1.421875 
Q 20.40625 -1.421875 12.59375 8.421875 
Q 4.78125 18.265625 4.78125 36.375 
Q 4.78125 54.546875 12.59375 64.375 
Q 20.40625 74.21875 34.8125 74.21875 
Q 49.171875 74.21875 56.984375 64.375 
Q 64.796875 54.546875 64.796875 36.375 
z
" id="DejaVuSans-Bold-48"/>
    </defs>
    <use xlink:href="#DejaVuSans-Bold-82"/>
    <use x="77.001953" xlink:href="#DejaVuSans-Bold-116"/>
    <use x="124.804688" xlink:href="#DejaVuSans-Bold-61"/>
    <use x="208.59375" xlink:href="#DejaVuSans-Bold-49"/>
    <use x="278.173828" xlink:href="#DejaVuSans-Bold-46"/>
    <use x="316.162109" xlink:href="#DejaVuSans-Bold-48"/>
   </g>
  </g>
 </g>
 <defs>
  <clipPath id="pc79fe26edc">
   <rect height="144" width="144" x="0" y="0"/>
  </clipPath>
 </defs>
</svg>
