<?xml version="1.0" encoding="utf-8" standalone="no"?>
<!DOCTYPE svg PUBLIC "-//W3C//DTD SVG 1.1//EN"
  "http://www.w3.org/Graphics/SVG/1.1/DTD/svg11.dtd">
<svg xmlns:xlink="http://www.w3.org/1999/xlink" width="144pt" height="144pt" viewBox="0 0 144 144" xmlns="http://www.w3.org/2000/svg" version="1.1">
 <metadata>
  <rdf:RDF xmlns:dc="http://purl.org/dc/elements/1.1/" xmlns:cc="http://creativecommons.org/ns#" xmlns:rdf="http://www.w3.org/1999/02/22-rdf-syntax-ns#">
   <cc:Work>
    <dc:type rdf:resource="http://purl.org/dc/dcmitype/StillImage"/>
    <dc:date>2022-09-13T17:13:52.043035</dc:date>
    <dc:format>image/svg+xml</dc:format>
    <dc:creator>
     <cc:Agent>
      <dc:title>Matplotlib v3.5.3, https://matplotlib.org/</dc:title>
     </cc:Agent>
    </dc:creator>
   </cc:Work>
  </rdf:RDF>
 </metadata>
 <defs>
  <style type="text/css">*{stroke-linejoin: round; stroke-linecap: butt}</style>
 </defs>
 <g id="figure_1">
  <g id="patch_1">
   <path d="M 0 144 
L 144 144 
L 144 0 
L 0 0 
z
" style="fill: #ffffff"/>
  </g>
  <g id="axes_1">
   <g id="patch_2">
    <path d="M 0 144 
L 144 144 
L 144 0 
L 0 0 
z
" style="fill: #ffffff"/>
   </g>
   <g id="line2d_1">
    <path d="M 6.545455 119.500033 
L 6.970484 119.030693 
L 7.395514 118.255665 
L 7.96222 116.631458 
L 9.095632 112.810366 
L 10.087367 108.16474 
L 10.37072 107.877573 
L 10.654073 108.300938 
L 10.937426 109.118626 
L 12.070838 112.856558 
L 12.779221 114.619269 
L 13.770956 116.435089 
L 14.621015 117.470333 
L 15.612751 118.128404 
L 16.179457 118.274978 
L 17.029516 118.488354 
L 19.72137 119.455643 
L 21.138135 119.684945 
L 26.663518 119.618575 
L 28.930342 119.217478 
L 30.913813 119.126824 
L 32.047226 119.199462 
L 32.613932 118.975421 
L 33.180638 118.450161 
L 33.88902 117.376652 
L 34.455726 116.188348 
L 35.305785 114.154468 
L 36.864227 111.811298 
L 37.289256 111.160721 
L 37.855962 109.935522 
L 38.706021 108.886442 
L 39.55608 108.645683 
L 40.406139 109.116897 
L 41.114522 109.704851 
L 43.381346 112.0927 
L 43.806375 112.229114 
L 44.373081 112.453443 
L 45.931523 112.56831 
L 46.498229 112.182201 
L 47.064935 111.45841 
L 47.489965 110.41841 
L 48.198347 108.661969 
L 48.623377 108.080788 
L 48.90673 108.047207 
L 49.190083 108.33351 
L 49.756789 109.512085 
L 50.465171 110.904829 
L 50.890201 111.225001 
L 51.31523 111.370998 
L 51.598583 111.416686 
L 52.165289 111.711204 
L 53.015348 112.055516 
L 53.723731 112.499202 
L 54.57379 113.010483 
L 54.998819 113.247855 
L 55.423849 113.211392 
L 55.990555 113.039956 
L 57.974026 113.248216 
L 58.540732 113.029003 
L 59.815821 112.350322 
L 60.949233 111.131464 
L 61.374262 110.497318 
L 62.082645 109.517057 
L 62.791027 108.892423 
L 64.491145 107.532324 
L 65.199528 106.820566 
L 65.482881 106.652302 
L 65.90791 106.763854 
L 66.474616 107.436481 
L 66.899646 108.268942 
L 67.466352 109.399164 
L 68.033058 110.255694 
L 68.883117 111.616802 
L 70.866588 115.656242 
L 71.716647 116.408786 
L 72.42503 117.110094 
L 73.558442 118.241685 
L 74.408501 118.791375 
L 75.400236 119.16163 
L 75.541913 119.211569 
L 75.541913 119.211569 
" clip-path="url(#pa72805195a)" style="fill: none; stroke: #add8e6; stroke-width: 1.5; stroke-linecap: square"/>
   </g>
   <g id="line2d_2">
    <path d="M 89.42621 114.924484 
L 91.126328 112.079206 
L 92.25974 109.546316 
L 93.251476 106.718283 
L 94.101535 103.322415 
L 95.5183 97.153278 
L 95.943329 96.045003 
L 96.368359 95.448537 
L 96.651712 95.34194 
L 96.935065 95.427586 
L 97.360094 95.916581 
L 98.068477 97.371102 
L 99.768595 101.662663 
L 100.051948 101.983748 
L 100.335301 102.065476 
L 100.476978 102.012069 
L 100.760331 101.541919 
L 101.18536 100.064275 
L 101.752066 96.814136 
L 102.460449 91.265039 
L 103.168831 84.664387 
L 103.877214 76.00164 
L 105.010626 57.77862 
L 105.719008 48.382287 
L 106.144038 45.545484 
L 106.427391 45 
L 106.569067 45.193799 
L 106.85242 46.460465 
L 107.27745 50.293535 
L 107.844156 58.11289 
L 108.835891 71.611549 
L 109.119244 73.390532 
L 109.402597 73.828325 
L 109.544274 73.564761 
L 109.827627 72.188403 
L 110.252656 68.373786 
L 110.819362 62.812265 
L 111.102715 61.356205 
L 111.244392 61.012856 
L 111.386068 61.011165 
L 111.527745 61.286346 
L 111.811098 62.702898 
L 112.236128 66.156703 
L 114.219599 85.770064 
L 115.494687 95.767847 
L 116.344746 100.31979 
L 117.053129 102.750434 
L 117.761511 104.439892 
L 118.328217 105.201859 
L 118.894923 105.564072 
L 119.744982 105.650599 
L 120.736718 105.825776 
L 121.586777 106.007841 
L 122.011806 105.91952 
L 122.578512 105.50536 
L 123.145218 104.674379 
L 124.136954 102.708484 
L 125.695396 99.654136 
L 126.403778 98.625018 
L 127.253837 97.80862 
L 128.103896 97.314005 
L 128.670602 97.248421 
L 129.237308 97.434859 
L 129.662338 97.788374 
L 131.079103 99.617446 
L 131.929162 100.600386 
L 133.20425 101.545638 
L 134.054309 102.139102 
L 135.612751 103.297918 
L 136.321133 103.554362 
L 137.454545 103.744804 
L 137.454545 103.744804 
" clip-path="url(#pa72805195a)" style="fill: none; stroke: #ff0000; stroke-width: 1.5; stroke-linecap: square"/>
   </g>
   <g id="patch_3">
    <path d="M 0 144 
L 0 0 
" style="fill: none; stroke: #ffffff; stroke-width: 0.8; stroke-linejoin: miter; stroke-linecap: square"/>
   </g>
   <g id="patch_4">
    <path d="M 144 144 
L 144 0 
" style="fill: none; stroke: #ffffff; stroke-width: 0.8; stroke-linejoin: miter; stroke-linecap: square"/>
   </g>
   <g id="patch_5">
    <path d="M 0 144 
L 144 144 
" style="fill: none; stroke: #ffffff; stroke-width: 0.8; stroke-linejoin: miter; stroke-linecap: square"/>
   </g>
   <g id="patch_6">
    <path d="M 0 0 
L 144 0 
" style="fill: none; stroke: #ffffff; stroke-width: 0.8; stroke-linejoin: miter; stroke-linecap: square"/>
   </g>
  </g>
  <g id="text_1">
   <g id="patch_7">
    <path d="M -64.84815 36.3681 
L 208.84815 36.3681 
L 208.84815 -7.65432 
L -64.84815 -7.65432 
z
" style="fill: #ffff00; stroke: #ffff00; stroke-linejoin: miter"/>
   </g>
   <!--  -->
   <g transform="translate(72 9.45018)scale(0.1728 -0.1728)"/>
   <!--            CORONADATA            -->
   <g transform="translate(-60.87375 28.8)scale(0.1728 -0.1728)">
    <defs>
     <path id="DejaVuSans-Bold-20" transform="scale(0.015625)"/>
     <path id="DejaVuSans-Bold-43" d="M 4288 256 
Q 3956 84 3597 -3 
Q 3238 -91 2847 -91 
Q 1681 -91 1000 561 
Q 319 1213 319 2328 
Q 319 3447 1000 4098 
Q 1681 4750 2847 4750 
Q 3238 4750 3597 4662 
Q 3956 4575 4288 4403 
L 4288 3438 
Q 3953 3666 3628 3772 
Q 3303 3878 2944 3878 
Q 2300 3878 1931 3465 
Q 1563 3053 1563 2328 
Q 1563 1606 1931 1193 
Q 2300 781 2944 781 
Q 3303 781 3628 887 
Q 3953 994 4288 1222 
L 4288 256 
z
" transform="scale(0.015625)"/>
     <path id="DejaVuSans-Bold-4f" d="M 2719 3878 
Q 2169 3878 1866 3472 
Q 1563 3066 1563 2328 
Q 1563 1594 1866 1187 
Q 2169 781 2719 781 
Q 3272 781 3575 1187 
Q 3878 1594 3878 2328 
Q 3878 3066 3575 3472 
Q 3272 3878 2719 3878 
z
M 2719 4750 
Q 3844 4750 4481 4106 
Q 5119 3463 5119 2328 
Q 5119 1197 4481 553 
Q 3844 -91 2719 -91 
Q 1597 -91 958 553 
Q 319 1197 319 2328 
Q 319 3463 958 4106 
Q 1597 4750 2719 4750 
z
" transform="scale(0.015625)"/>
     <path id="DejaVuSans-Bold-52" d="M 2297 2597 
Q 2675 2597 2839 2737 
Q 3003 2878 3003 3200 
Q 3003 3519 2839 3656 
Q 2675 3794 2297 3794 
L 1791 3794 
L 1791 2597 
L 2297 2597 
z
M 1791 1766 
L 1791 0 
L 588 0 
L 588 4666 
L 2425 4666 
Q 3347 4666 3776 4356 
Q 4206 4047 4206 3378 
Q 4206 2916 3982 2619 
Q 3759 2322 3309 2181 
Q 3556 2125 3751 1926 
Q 3947 1728 4147 1325 
L 4800 0 
L 3519 0 
L 2950 1159 
Q 2778 1509 2601 1637 
Q 2425 1766 2131 1766 
L 1791 1766 
z
" transform="scale(0.015625)"/>
     <path id="DejaVuSans-Bold-4e" d="M 588 4666 
L 1931 4666 
L 3628 1466 
L 3628 4666 
L 4769 4666 
L 4769 0 
L 3425 0 
L 1728 3200 
L 1728 0 
L 588 0 
L 588 4666 
z
" transform="scale(0.015625)"/>
     <path id="DejaVuSans-Bold-41" d="M 3419 850 
L 1538 850 
L 1241 0 
L 31 0 
L 1759 4666 
L 3194 4666 
L 4922 0 
L 3713 0 
L 3419 850 
z
M 1838 1716 
L 3116 1716 
L 2478 3572 
L 1838 1716 
z
" transform="scale(0.015625)"/>
     <path id="DejaVuSans-Bold-44" d="M 1791 3756 
L 1791 909 
L 2222 909 
Q 2959 909 3348 1275 
Q 3738 1641 3738 2338 
Q 3738 3031 3350 3393 
Q 2963 3756 2222 3756 
L 1791 3756 
z
M 588 4666 
L 1856 4666 
Q 2919 4666 3439 4514 
Q 3959 4363 4331 4000 
Q 4659 3684 4818 3271 
Q 4978 2859 4978 2338 
Q 4978 1809 4818 1395 
Q 4659 981 4331 666 
Q 3956 303 3431 151 
Q 2906 0 1856 0 
L 588 0 
L 588 4666 
z
" transform="scale(0.015625)"/>
     <path id="DejaVuSans-Bold-54" d="M 31 4666 
L 4331 4666 
L 4331 3756 
L 2784 3756 
L 2784 0 
L 1581 0 
L 1581 3756 
L 31 3756 
L 31 4666 
z
" transform="scale(0.015625)"/>
    </defs>
    <use xlink:href="#DejaVuSans-Bold-20"/>
    <use xlink:href="#DejaVuSans-Bold-20" x="34.814453"/>
    <use xlink:href="#DejaVuSans-Bold-20" x="69.628906"/>
    <use xlink:href="#DejaVuSans-Bold-20" x="104.443359"/>
    <use xlink:href="#DejaVuSans-Bold-20" x="139.257812"/>
    <use xlink:href="#DejaVuSans-Bold-20" x="174.072266"/>
    <use xlink:href="#DejaVuSans-Bold-20" x="208.886719"/>
    <use xlink:href="#DejaVuSans-Bold-20" x="243.701172"/>
    <use xlink:href="#DejaVuSans-Bold-20" x="278.515625"/>
    <use xlink:href="#DejaVuSans-Bold-20" x="313.330078"/>
    <use xlink:href="#DejaVuSans-Bold-20" x="348.144531"/>
    <use xlink:href="#DejaVuSans-Bold-43" x="382.958984"/>
    <use xlink:href="#DejaVuSans-Bold-4f" x="456.347656"/>
    <use xlink:href="#DejaVuSans-Bold-52" x="541.357422"/>
    <use xlink:href="#DejaVuSans-Bold-4f" x="618.359375"/>
    <use xlink:href="#DejaVuSans-Bold-4e" x="703.369141"/>
    <use xlink:href="#DejaVuSans-Bold-41" x="787.060547"/>
    <use xlink:href="#DejaVuSans-Bold-44" x="864.453125"/>
    <use xlink:href="#DejaVuSans-Bold-41" x="947.460938"/>
    <use xlink:href="#DejaVuSans-Bold-54" x="1017.103516"/>
    <use xlink:href="#DejaVuSans-Bold-41" x="1077.566406"/>
    <use xlink:href="#DejaVuSans-Bold-20" x="1154.958984"/>
    <use xlink:href="#DejaVuSans-Bold-20" x="1189.773438"/>
    <use xlink:href="#DejaVuSans-Bold-20" x="1224.587891"/>
    <use xlink:href="#DejaVuSans-Bold-20" x="1259.402344"/>
    <use xlink:href="#DejaVuSans-Bold-20" x="1294.216797"/>
    <use xlink:href="#DejaVuSans-Bold-20" x="1329.03125"/>
    <use xlink:href="#DejaVuSans-Bold-20" x="1363.845703"/>
    <use xlink:href="#DejaVuSans-Bold-20" x="1398.660156"/>
    <use xlink:href="#DejaVuSans-Bold-20" x="1433.474609"/>
    <use xlink:href="#DejaVuSans-Bold-20" x="1468.289062"/>
    <use xlink:href="#DejaVuSans-Bold-20" x="1503.103516"/>
   </g>
  </g>
  <g id="text_2">
   <!-- Rt=1,04 -->
   <g style="fill: #4169e1; opacity: 0.5" transform="translate(26.46875 141.12)scale(0.2 -0.2)">
    <defs>
     <path id="DejaVuSans-Bold-74" d="M 1759 4494 
L 1759 3500 
L 2913 3500 
L 2913 2700 
L 1759 2700 
L 1759 1216 
Q 1759 972 1856 886 
Q 1953 800 2241 800 
L 2816 800 
L 2816 0 
L 1856 0 
Q 1194 0 917 276 
Q 641 553 641 1216 
L 641 2700 
L 84 2700 
L 84 3500 
L 641 3500 
L 641 4494 
L 1759 4494 
z
" transform="scale(0.015625)"/>
     <path id="DejaVuSans-Bold-3d" d="M 678 3084 
L 4684 3084 
L 4684 2350 
L 678 2350 
L 678 3084 
z
M 678 1663 
L 4684 1663 
L 4684 922 
L 678 922 
L 678 1663 
z
" transform="scale(0.015625)"/>
     <path id="DejaVuSans-Bold-31" d="M 750 831 
L 1813 831 
L 1813 3847 
L 722 3622 
L 722 4441 
L 1806 4666 
L 2950 4666 
L 2950 831 
L 4013 831 
L 4013 0 
L 750 0 
L 750 831 
z
" transform="scale(0.015625)"/>
     <path id="DejaVuSans-Bold-2c" d="M 653 1209 
L 1778 1209 
L 1778 256 
L 1006 -909 
L 341 -909 
L 653 256 
L 653 1209 
z
" transform="scale(0.015625)"/>
     <path id="DejaVuSans-Bold-30" d="M 2944 2338 
Q 2944 3213 2780 3570 
Q 2616 3928 2228 3928 
Q 1841 3928 1675 3570 
Q 1509 3213 1509 2338 
Q 1509 1453 1675 1090 
Q 1841 728 2228 728 
Q 2613 728 2778 1090 
Q 2944 1453 2944 2338 
z
M 4147 2328 
Q 4147 1169 3647 539 
Q 3147 -91 2228 -91 
Q 1306 -91 806 539 
Q 306 1169 306 2328 
Q 306 3491 806 4120 
Q 1306 4750 2228 4750 
Q 3147 4750 3647 4120 
Q 4147 3491 4147 2328 
z
" transform="scale(0.015625)"/>
     <path id="DejaVuSans-Bold-34" d="M 2356 3675 
L 1038 1722 
L 2356 1722 
L 2356 3675 
z
M 2156 4666 
L 3494 4666 
L 3494 1722 
L 4159 1722 
L 4159 850 
L 3494 850 
L 3494 0 
L 2356 0 
L 2356 850 
L 288 850 
L 288 1881 
L 2156 4666 
z
" transform="scale(0.015625)"/>
    </defs>
    <use xlink:href="#DejaVuSans-Bold-52"/>
    <use xlink:href="#DejaVuSans-Bold-74" x="77.001953"/>
    <use xlink:href="#DejaVuSans-Bold-3d" x="124.804688"/>
    <use xlink:href="#DejaVuSans-Bold-31" x="208.59375"/>
    <use xlink:href="#DejaVuSans-Bold-2c" x="278.173828"/>
    <use xlink:href="#DejaVuSans-Bold-30" x="316.162109"/>
    <use xlink:href="#DejaVuSans-Bold-34" x="385.742188"/>
   </g>
  </g>
 </g>
 <defs>
  <clipPath id="pa72805195a">
   <rect x="0" y="0" width="144" height="144"/>
  </clipPath>
 </defs>
</svg>
