<?xml version="1.0" encoding="utf-8" standalone="no"?>
<!DOCTYPE svg PUBLIC "-//W3C//DTD SVG 1.1//EN"
  "http://www.w3.org/Graphics/SVG/1.1/DTD/svg11.dtd">
<!-- Created with matplotlib (https://matplotlib.org/) -->
<svg height="144pt" version="1.1" viewBox="0 0 144 144" width="144pt" xmlns="http://www.w3.org/2000/svg" xmlns:xlink="http://www.w3.org/1999/xlink">
 <metadata>
  <rdf:RDF xmlns:cc="http://creativecommons.org/ns#" xmlns:dc="http://purl.org/dc/elements/1.1/" xmlns:rdf="http://www.w3.org/1999/02/22-rdf-syntax-ns#">
   <cc:Work>
    <dc:type rdf:resource="http://purl.org/dc/dcmitype/StillImage"/>
    <dc:date>2021-12-17T17:36:50.046575</dc:date>
    <dc:format>image/svg+xml</dc:format>
    <dc:creator>
     <cc:Agent>
      <dc:title>Matplotlib v3.3.2, https://matplotlib.org/</dc:title>
     </cc:Agent>
    </dc:creator>
   </cc:Work>
  </rdf:RDF>
 </metadata>
 <defs>
  <style type="text/css">*{stroke-linecap:butt;stroke-linejoin:round;}</style>
 </defs>
 <g id="figure_1">
  <g id="patch_1">
   <path d="M 0 144 
L 144 144 
L 144 0 
L 0 0 
z
" style="fill:#ffffff;"/>
  </g>
  <g id="axes_1">
   <g id="patch_2">
    <path d="M 0 144 
L 144 144 
L 144 0 
L 0 0 
z
" style="fill:#ffffff;"/>
   </g>
   <g id="line2d_1">
    <path clip-path="url(#p62fce26b52)" d="M 6.545455 119.764596 
L 7.331695 119.546069 
L 7.921376 119.208743 
L 8.511057 118.479297 
L 8.904177 117.618339 
L 9.297297 116.374905 
L 9.886978 113.66644 
L 10.280098 111.31393 
L 10.869779 107.274357 
L 11.65602 101.812275 
L 12.44226 93.881735 
L 13.228501 85.236872 
L 13.621622 83.340267 
L 13.818182 83.128315 
L 14.211302 84.416025 
L 14.604423 86.903114 
L 15.980344 96.965006 
L 16.766585 101.674408 
L 17.552826 105.403616 
L 18.535627 109.156934 
L 19.518428 111.893016 
L 20.108108 112.93239 
L 20.894349 114.093631 
L 21.484029 114.630852 
L 22.27027 114.932231 
L 23.056511 115.402163 
L 26.004914 117.868648 
L 27.970516 118.961065 
L 28.953317 119.043697 
L 30.525799 119.013888 
L 31.312039 118.982326 
L 34.850123 119.156577 
L 36.422604 118.839856 
L 37.405405 118.483461 
L 38.191646 118.174411 
L 38.781327 117.839935 
L 40.353808 117.455485 
L 41.336609 117.224684 
L 42.31941 117.344139 
L 43.498771 117.673793 
L 44.088452 117.449567 
L 44.678133 116.883632 
L 45.267813 115.803709 
L 45.857494 114.067986 
L 47.036855 109.405709 
L 49.002457 99.88608 
L 49.395577 98.469928 
L 50.968059 93.938284 
L 51.55774 90.993977 
L 52.14742 88.779554 
L 52.933661 86.637462 
L 53.130221 86.196901 
L 53.523342 85.807848 
L 53.916462 85.257914 
L 54.309582 85.464605 
L 55.095823 86.334549 
L 55.882064 87.524064 
L 56.668305 89.164223 
L 59.027027 95.026536 
L 59.616708 95.949085 
L 60.009828 96.16805 
L 60.992629 97.046323 
L 61.385749 97.227589 
L 61.77887 97.449842 
L 61.97543 97.43976 
L 62.565111 97.678452 
L 62.958231 97.636587 
L 63.744472 96.650037 
L 64.530713 94.738966 
L 64.923833 93.203577 
L 66.496314 84.704692 
L 66.889435 83.746416 
L 67.085995 83.538191 
L 67.282555 83.644276 
L 67.479115 83.939079 
L 67.872236 85.269969 
L 68.265356 87.062899 
L 69.248157 91.882332 
L 69.837838 93.104725 
L 70.427518 93.68403 
L 70.624079 93.75395 
L 70.820639 93.699373 
L 71.213759 94.212265 
L 71.60688 94.672115 
L 72.589681 95.351806 
L 73.179361 96.17068 
L 73.769042 96.975526 
L 74.751843 98.165699 
L 75.341523 99.049452 
L 75.734644 99.462615 
L 76.127764 99.520041 
L 76.914005 98.909174 
L 77.110565 98.830267 
L 77.503686 98.887694 
L 77.896806 98.862268 
L 78.879607 99.259431 
L 79.272727 99.260965 
L 80.058968 99.3699 
L 80.452088 99.004081 
L 81.041769 98.307512 
L 81.434889 97.827278 
L 82.22113 97.076351 
L 83.007371 95.502167 
L 84.579853 91.096555 
L 85.366093 88.515217 
L 85.759214 87.6433 
L 86.152334 86.710451 
L 87.135135 85.396219 
L 87.724816 84.199032 
L 88.117936 83.626084 
L 88.511057 82.932364 
L 90.083538 79.517029 
L 90.280098 79.401518 
L 90.673219 79.54881 
L 90.869779 79.740816 
L 91.459459 81.085076 
L 92.04914 83.384981 
L 93.228501 88.538889 
L 94.014742 90.961318 
L 94.407862 92.155655 
L 95.390663 96.393153 
L 96.570025 102.561886 
L 97.159705 105.032317 
L 97.749386 106.787986 
L 98.339066 107.972679 
L 99.518428 110.30064 
L 101.68059 114.993822 
L 102.663391 116.323835 
L 103.449631 117.01865 
L 104.235872 117.6019 
L 104.235872 117.6019 
" style="fill:none;stroke:#add8e6;stroke-linecap:square;stroke-width:1.5;"/>
   </g>
   <g id="line2d_2">
    <path clip-path="url(#p62fce26b52)" d="M 27.184275 116.657658 
L 29.149877 117.283012 
L 32.4914 117.482974 
L 36.422604 116.539991 
L 40.157248 113.925797 
L 40.943489 113.740284 
L 43.695332 113.230281 
L 44.481572 112.721719 
L 45.267813 111.957452 
L 46.250614 110.57544 
L 47.626536 108.244364 
L 49.199017 105.009911 
L 49.985258 102.858257 
L 50.771499 99.991282 
L 51.7543 95.527718 
L 52.933661 90.218486 
L 53.916462 86.614805 
L 54.702703 84.586189 
L 55.095823 84.038354 
L 55.488943 83.901458 
L 55.685504 84.01004 
L 56.078624 84.598098 
L 56.668305 86.28905 
L 58.633907 92.981428 
L 59.420147 94.252473 
L 60.009828 94.889486 
L 61.189189 95.617613 
L 61.58231 95.564182 
L 61.97543 95.35045 
L 62.36855 94.84726 
L 62.761671 93.940801 
L 63.547912 91.046216 
L 64.530713 86.291862 
L 65.316953 82.745302 
L 65.906634 81.243423 
L 66.299754 80.848946 
L 66.496314 80.832961 
L 66.889435 81.301819 
L 67.282555 82.116843 
L 69.641278 88.376091 
L 72.39312 94.881383 
L 75.734644 99.957349 
L 76.324324 100.475907 
L 76.520885 100.592123 
L 77.110565 100.227478 
L 77.700246 99.664961 
L 78.289926 98.738994 
L 79.272727 97.169141 
L 81.434889 94.546984 
L 82.02457 93.241581 
L 84.579853 86.570628 
L 85.169533 85.728555 
L 85.562654 85.544226 
L 86.348894 85.629252 
L 87.528256 86.036218 
L 88.117936 85.658607 
L 89.886978 84.284069 
L 90.476658 84.367288 
L 90.869779 84.728703 
L 91.85258 86.227477 
L 93.031941 88.543068 
L 93.818182 90.283872 
L 94.604423 92.531128 
L 97.159705 100.896004 
L 99.518428 106.487703 
L 99.911548 107.000942 
L 100.697789 109.003835 
L 101.090909 109.464635 
L 102.07371 111.391621 
L 103.253071 112.151883 
L 103.449631 112.026184 
L 103.646192 111.708054 
L 104.039312 110.398615 
L 104.432432 108.342152 
L 105.022113 103.637081 
L 106.594595 88.089535 
L 106.987715 86.046754 
L 107.184275 85.461563 
L 107.380835 85.25451 
L 107.577396 85.445164 
L 107.970516 85.998674 
L 108.363636 87.695928 
L 110.329238 98.929231 
L 110.918919 100.581028 
L 111.5086 101.440418 
L 112.09828 101.846561 
L 112.4914 101.948321 
L 113.277641 101.845866 
L 114.063882 101.780002 
L 115.439803 101.83842 
L 116.619165 102.461443 
L 117.405405 103.129635 
L 120.157248 105.99764 
L 120.746929 106.521233 
L 121.336609 106.781469 
L 121.72973 106.764571 
L 122.12285 106.575536 
L 122.515971 106.211982 
L 123.105651 105.184473 
L 123.891892 103.21107 
L 124.678133 100.633492 
L 126.054054 95.019747 
L 127.626536 87.096814 
L 128.609337 81.049862 
L 129.592138 73.004352 
L 130.771499 61.133171 
L 131.7543 51.996548 
L 132.34398 48.047935 
L 132.933661 45.798728 
L 133.326781 45.075307 
L 133.523342 45 
L 133.719902 45.045176 
L 134.113022 45.630284 
L 134.506143 46.75507 
L 135.292383 50.166959 
L 136.078624 54.999557 
L 137.454545 64.708965 
L 137.454545 64.708965 
" style="fill:none;stroke:#ff0000;stroke-linecap:square;stroke-width:1.5;"/>
   </g>
   <g id="patch_3">
    <path d="M 0 144 
L 0 0 
" style="fill:none;stroke:#ffffff;stroke-linecap:square;stroke-linejoin:miter;stroke-width:0.8;"/>
   </g>
   <g id="patch_4">
    <path d="M 144 144 
L 144 0 
" style="fill:none;stroke:#ffffff;stroke-linecap:square;stroke-linejoin:miter;stroke-width:0.8;"/>
   </g>
   <g id="patch_5">
    <path d="M 0 144 
L 144 144 
" style="fill:none;stroke:#ffffff;stroke-linecap:square;stroke-linejoin:miter;stroke-width:0.8;"/>
   </g>
   <g id="patch_6">
    <path d="M 0 0 
L 144 0 
" style="fill:none;stroke:#ffffff;stroke-linecap:square;stroke-linejoin:miter;stroke-width:0.8;"/>
   </g>
  </g>
  <g id="text_1">
   <g id="patch_7">
    <path d="M -64.84815 36.3681 
L 208.84815 36.3681 
L 208.84815 -7.65432 
L -64.84815 -7.65432 
z
" style="fill:#ffff00;stroke:#ffff00;stroke-linejoin:miter;"/>
   </g>
   <!--  -->
   <g transform="translate(72 9.45018)scale(0.1728 -0.1728)"/>
   <!--            CORONADATA            -->
   <g transform="translate(-60.87375 28.8)scale(0.1728 -0.1728)">
    <defs>
     <path id="DejaVuSans-Bold-32"/>
     <path d="M 67 4 
Q 61.8125 1.3125 56.203125 -0.046875 
Q 50.59375 -1.421875 44.484375 -1.421875 
Q 26.265625 -1.421875 15.625 8.765625 
Q 4.984375 18.953125 4.984375 36.375 
Q 4.984375 53.859375 15.625 64.03125 
Q 26.265625 74.21875 44.484375 74.21875 
Q 50.59375 74.21875 56.203125 72.84375 
Q 61.8125 71.484375 67 68.796875 
L 67 53.71875 
Q 61.765625 57.28125 56.6875 58.9375 
Q 51.609375 60.59375 46 60.59375 
Q 35.9375 60.59375 30.171875 54.140625 
Q 24.421875 47.703125 24.421875 36.375 
Q 24.421875 25.09375 30.171875 18.640625 
Q 35.9375 12.203125 46 12.203125 
Q 51.609375 12.203125 56.6875 13.859375 
Q 61.765625 15.53125 67 19.09375 
z
" id="DejaVuSans-Bold-67"/>
     <path d="M 42.484375 60.59375 
Q 33.890625 60.59375 29.15625 54.25 
Q 24.421875 47.90625 24.421875 36.375 
Q 24.421875 24.90625 29.15625 18.546875 
Q 33.890625 12.203125 42.484375 12.203125 
Q 51.125 12.203125 55.859375 18.546875 
Q 60.59375 24.90625 60.59375 36.375 
Q 60.59375 47.90625 55.859375 54.25 
Q 51.125 60.59375 42.484375 60.59375 
z
M 42.484375 74.21875 
Q 60.0625 74.21875 70.015625 64.15625 
Q 79.984375 54.109375 79.984375 36.375 
Q 79.984375 18.703125 70.015625 8.640625 
Q 60.0625 -1.421875 42.484375 -1.421875 
Q 24.953125 -1.421875 14.96875 8.640625 
Q 4.984375 18.703125 4.984375 36.375 
Q 4.984375 54.109375 14.96875 64.15625 
Q 24.953125 74.21875 42.484375 74.21875 
z
" id="DejaVuSans-Bold-79"/>
     <path d="M 35.890625 40.578125 
Q 41.796875 40.578125 44.359375 42.765625 
Q 46.921875 44.96875 46.921875 50 
Q 46.921875 54.984375 44.359375 57.125 
Q 41.796875 59.28125 35.890625 59.28125 
L 27.984375 59.28125 
L 27.984375 40.578125 
z
M 27.984375 27.59375 
L 27.984375 0 
L 9.1875 0 
L 9.1875 72.90625 
L 37.890625 72.90625 
Q 52.296875 72.90625 59 68.0625 
Q 65.71875 63.234375 65.71875 52.78125 
Q 65.71875 45.5625 62.21875 40.921875 
Q 58.734375 36.28125 51.703125 34.078125 
Q 55.5625 33.203125 58.609375 30.09375 
Q 61.671875 27 64.796875 20.703125 
L 75 0 
L 54.984375 0 
L 46.09375 18.109375 
Q 43.40625 23.578125 40.640625 25.578125 
Q 37.890625 27.59375 33.296875 27.59375 
z
" id="DejaVuSans-Bold-82"/>
     <path d="M 9.1875 72.90625 
L 30.171875 72.90625 
L 56.6875 22.90625 
L 56.6875 72.90625 
L 74.515625 72.90625 
L 74.515625 0 
L 53.515625 0 
L 27 50 
L 27 0 
L 9.1875 0 
z
" id="DejaVuSans-Bold-78"/>
     <path d="M 53.421875 13.28125 
L 24.03125 13.28125 
L 19.390625 0 
L 0.484375 0 
L 27.484375 72.90625 
L 49.90625 72.90625 
L 76.90625 0 
L 58.015625 0 
z
M 28.71875 26.8125 
L 48.6875 26.8125 
L 38.71875 55.8125 
z
" id="DejaVuSans-Bold-65"/>
     <path d="M 27.984375 58.6875 
L 27.984375 14.203125 
L 34.71875 14.203125 
Q 46.234375 14.203125 52.3125 19.921875 
Q 58.40625 25.640625 58.40625 36.53125 
Q 58.40625 47.359375 52.34375 53.015625 
Q 46.296875 58.6875 34.71875 58.6875 
z
M 9.1875 72.90625 
L 29 72.90625 
Q 45.609375 72.90625 53.734375 70.53125 
Q 61.859375 68.171875 67.671875 62.5 
Q 72.796875 57.5625 75.28125 51.109375 
Q 77.78125 44.671875 77.78125 36.53125 
Q 77.78125 28.265625 75.28125 21.796875 
Q 72.796875 15.328125 67.671875 10.40625 
Q 61.8125 4.734375 53.609375 2.359375 
Q 45.40625 0 29 0 
L 9.1875 0 
z
" id="DejaVuSans-Bold-68"/>
     <path d="M 0.484375 72.90625 
L 67.671875 72.90625 
L 67.671875 58.6875 
L 43.5 58.6875 
L 43.5 0 
L 24.703125 0 
L 24.703125 58.6875 
L 0.484375 58.6875 
z
" id="DejaVuSans-Bold-84"/>
    </defs>
    <use xlink:href="#DejaVuSans-Bold-32"/>
    <use x="34.814453" xlink:href="#DejaVuSans-Bold-32"/>
    <use x="69.628906" xlink:href="#DejaVuSans-Bold-32"/>
    <use x="104.443359" xlink:href="#DejaVuSans-Bold-32"/>
    <use x="139.257812" xlink:href="#DejaVuSans-Bold-32"/>
    <use x="174.072266" xlink:href="#DejaVuSans-Bold-32"/>
    <use x="208.886719" xlink:href="#DejaVuSans-Bold-32"/>
    <use x="243.701172" xlink:href="#DejaVuSans-Bold-32"/>
    <use x="278.515625" xlink:href="#DejaVuSans-Bold-32"/>
    <use x="313.330078" xlink:href="#DejaVuSans-Bold-32"/>
    <use x="348.144531" xlink:href="#DejaVuSans-Bold-32"/>
    <use x="382.958984" xlink:href="#DejaVuSans-Bold-67"/>
    <use x="456.347656" xlink:href="#DejaVuSans-Bold-79"/>
    <use x="541.357422" xlink:href="#DejaVuSans-Bold-82"/>
    <use x="618.359375" xlink:href="#DejaVuSans-Bold-79"/>
    <use x="703.369141" xlink:href="#DejaVuSans-Bold-78"/>
    <use x="787.060547" xlink:href="#DejaVuSans-Bold-65"/>
    <use x="864.453125" xlink:href="#DejaVuSans-Bold-68"/>
    <use x="947.460938" xlink:href="#DejaVuSans-Bold-65"/>
    <use x="1017.103516" xlink:href="#DejaVuSans-Bold-84"/>
    <use x="1077.566406" xlink:href="#DejaVuSans-Bold-65"/>
    <use x="1154.958984" xlink:href="#DejaVuSans-Bold-32"/>
    <use x="1189.773438" xlink:href="#DejaVuSans-Bold-32"/>
    <use x="1224.587891" xlink:href="#DejaVuSans-Bold-32"/>
    <use x="1259.402344" xlink:href="#DejaVuSans-Bold-32"/>
    <use x="1294.216797" xlink:href="#DejaVuSans-Bold-32"/>
    <use x="1329.03125" xlink:href="#DejaVuSans-Bold-32"/>
    <use x="1363.845703" xlink:href="#DejaVuSans-Bold-32"/>
    <use x="1398.660156" xlink:href="#DejaVuSans-Bold-32"/>
    <use x="1433.474609" xlink:href="#DejaVuSans-Bold-32"/>
    <use x="1468.289062" xlink:href="#DejaVuSans-Bold-32"/>
    <use x="1503.103516" xlink:href="#DejaVuSans-Bold-32"/>
   </g>
  </g>
  <g id="text_2">
   <!-- Rt=0,9 -->
   <g style="fill:#4169e1;opacity:0.5;" transform="translate(33.426562 141.12)scale(0.2 -0.2)">
    <defs>
     <path d="M 27.484375 70.21875 
L 27.484375 54.6875 
L 45.515625 54.6875 
L 45.515625 42.1875 
L 27.484375 42.1875 
L 27.484375 19 
Q 27.484375 15.1875 29 13.84375 
Q 30.515625 12.5 35.015625 12.5 
L 44 12.5 
L 44 0 
L 29 0 
Q 18.65625 0 14.328125 4.3125 
Q 10.015625 8.640625 10.015625 19 
L 10.015625 42.1875 
L 1.3125 42.1875 
L 1.3125 54.6875 
L 10.015625 54.6875 
L 10.015625 70.21875 
z
" id="DejaVuSans-Bold-116"/>
     <path d="M 10.59375 48.1875 
L 73.1875 48.1875 
L 73.1875 36.71875 
L 10.59375 36.71875 
z
M 10.59375 25.984375 
L 73.1875 25.984375 
L 73.1875 14.40625 
L 10.59375 14.40625 
z
" id="DejaVuSans-Bold-61"/>
     <path d="M 46 36.53125 
Q 46 50.203125 43.4375 55.78125 
Q 40.875 61.375 34.8125 61.375 
Q 28.765625 61.375 26.171875 55.78125 
Q 23.578125 50.203125 23.578125 36.53125 
Q 23.578125 22.703125 26.171875 17.03125 
Q 28.765625 11.375 34.8125 11.375 
Q 40.828125 11.375 43.40625 17.03125 
Q 46 22.703125 46 36.53125 
z
M 64.796875 36.375 
Q 64.796875 18.265625 56.984375 8.421875 
Q 49.171875 -1.421875 34.8125 -1.421875 
Q 20.40625 -1.421875 12.59375 8.421875 
Q 4.78125 18.265625 4.78125 36.375 
Q 4.78125 54.546875 12.59375 64.375 
Q 20.40625 74.21875 34.8125 74.21875 
Q 49.171875 74.21875 56.984375 64.375 
Q 64.796875 54.546875 64.796875 36.375 
z
" id="DejaVuSans-Bold-48"/>
     <path d="M 10.203125 18.890625 
L 27.78125 18.890625 
L 27.78125 4 
L 15.71875 -14.203125 
L 5.328125 -14.203125 
L 10.203125 4 
z
" id="DejaVuSans-Bold-44"/>
     <path d="M 10.015625 1.609375 
L 10.015625 15.09375 
Q 14.5 12.984375 18.59375 11.9375 
Q 22.703125 10.890625 26.703125 10.890625 
Q 35.109375 10.890625 39.796875 15.546875 
Q 44.484375 20.21875 45.3125 29.390625 
Q 42 26.953125 38.234375 25.734375 
Q 34.46875 24.515625 30.078125 24.515625 
Q 18.890625 24.515625 12.03125 31.03125 
Q 5.171875 37.546875 5.171875 48.1875 
Q 5.171875 59.96875 12.8125 67.046875 
Q 20.453125 74.125 33.296875 74.125 
Q 47.5625 74.125 55.375 64.5 
Q 63.1875 54.890625 63.1875 37.3125 
Q 63.1875 19.234375 54.046875 8.90625 
Q 44.921875 -1.421875 29 -1.421875 
Q 23.875 -1.421875 19.1875 -0.65625 
Q 14.5 0.09375 10.015625 1.609375 
z
M 33.203125 36.71875 
Q 38.140625 36.71875 40.625 39.90625 
Q 43.109375 43.109375 43.109375 49.515625 
Q 43.109375 55.859375 40.625 59.078125 
Q 38.140625 62.3125 33.203125 62.3125 
Q 28.265625 62.3125 25.78125 59.078125 
Q 23.296875 55.859375 23.296875 49.515625 
Q 23.296875 43.109375 25.78125 39.90625 
Q 28.265625 36.71875 33.203125 36.71875 
z
" id="DejaVuSans-Bold-57"/>
    </defs>
    <use xlink:href="#DejaVuSans-Bold-82"/>
    <use x="77.001953" xlink:href="#DejaVuSans-Bold-116"/>
    <use x="124.804688" xlink:href="#DejaVuSans-Bold-61"/>
    <use x="208.59375" xlink:href="#DejaVuSans-Bold-48"/>
    <use x="278.173828" xlink:href="#DejaVuSans-Bold-44"/>
    <use x="316.162109" xlink:href="#DejaVuSans-Bold-57"/>
   </g>
  </g>
 </g>
 <defs>
  <clipPath id="p62fce26b52">
   <rect height="144" width="144" x="0" y="0"/>
  </clipPath>
 </defs>
</svg>
