<?xml version="1.0" encoding="utf-8" standalone="no"?>
<!DOCTYPE svg PUBLIC "-//W3C//DTD SVG 1.1//EN"
  "http://www.w3.org/Graphics/SVG/1.1/DTD/svg11.dtd">
<!-- Created with matplotlib (https://matplotlib.org/) -->
<svg height="144pt" version="1.1" viewBox="0 0 144 144" width="144pt" xmlns="http://www.w3.org/2000/svg" xmlns:xlink="http://www.w3.org/1999/xlink">
 <metadata>
  <rdf:RDF xmlns:cc="http://creativecommons.org/ns#" xmlns:dc="http://purl.org/dc/elements/1.1/" xmlns:rdf="http://www.w3.org/1999/02/22-rdf-syntax-ns#">
   <cc:Work>
    <dc:type rdf:resource="http://purl.org/dc/dcmitype/StillImage"/>
    <dc:date>2021-03-25T17:21:05.488240</dc:date>
    <dc:format>image/svg+xml</dc:format>
    <dc:creator>
     <cc:Agent>
      <dc:title>Matplotlib v3.3.2, https://matplotlib.org/</dc:title>
     </cc:Agent>
    </dc:creator>
   </cc:Work>
  </rdf:RDF>
 </metadata>
 <defs>
  <style type="text/css">*{stroke-linecap:butt;stroke-linejoin:round;}</style>
 </defs>
 <g id="figure_1">
  <g id="patch_1">
   <path d="M 0 144 
L 144 144 
L 144 0 
L 0 0 
z
" style="fill:#ffffff;"/>
  </g>
  <g id="axes_1">
   <g id="patch_2">
    <path d="M 0 144 
L 144 144 
L 144 0 
L 0 0 
z
" style="fill:#ffffff;"/>
   </g>
   <g id="line2d_1">
    <path clip-path="url(#p9f8f6600fa)" d="M 6.545455 119.499099 
L 7.529733 119.204254 
L 8.514012 118.663566 
L 9.170198 117.972524 
L 9.826384 117.015535 
L 10.48257 115.472625 
L 11.138756 113.22946 
L 11.794942 110.174215 
L 12.779221 103.935987 
L 13.435407 98.483872 
L 14.419686 91.678989 
L 15.075871 86.054323 
L 16.06015 74.719971 
L 18.028708 50.989995 
L 18.356801 49.599953 
L 18.684894 49.089838 
L 19.012987 49.984423 
L 19.669173 53.332419 
L 22.950103 80.420024 
L 24.262474 88.408474 
L 25.902939 96.320281 
L 26.887218 100.162895 
L 27.871497 103.383153 
L 28.527683 105.145939 
L 29.840055 107.601443 
L 30.496241 108.645964 
L 31.152427 109.400666 
L 31.480519 109.666613 
L 32.136705 109.8689 
L 33.120984 110.393673 
L 33.449077 110.537326 
L 39.354751 116.117179 
L 42.307587 118.001422 
L 43.291866 118.141724 
L 44.604238 118.202871 
L 45.588517 118.212085 
L 46.244703 118.172298 
L 47.557075 118.006029 
L 49.525632 118.248103 
L 50.509911 118.395944 
L 52.150376 118.60912 
L 56.087491 117.951164 
L 59.696514 116.254131 
L 60.024607 115.97562 
L 63.305537 115.006905 
L 64.289815 114.696564 
L 65.602187 114.624947 
L 67.242652 115.270757 
L 67.898838 115.535447 
L 68.555024 115.462574 
L 69.21121 115.160609 
L 69.867396 114.559193 
L 70.523582 113.518441 
L 71.179768 112.062645 
L 71.835954 110.008784 
L 73.476418 103.336665 
L 74.460697 98.014382 
L 76.101162 87.840144 
L 78.06972 79.031238 
L 80.694463 70.422107 
L 81.350649 66.768377 
L 82.006835 62.934139 
L 82.663021 60.253313 
L 83.319207 58.212853 
L 84.303486 55.189857 
L 84.959672 54.575876 
L 85.287765 53.992888 
L 85.615858 53.654487 
L 85.943951 53.818662 
L 87.256323 55.338536 
L 88.240602 56.725228 
L 88.896787 57.815818 
L 89.881066 59.932083 
L 92.177717 66.714769 
L 92.833903 68.992277 
L 93.490089 70.443885 
L 94.802461 73.437564 
L 95.130554 73.865173 
L 95.458647 73.998774 
L 96.114833 74.709501 
L 96.442925 75.203282 
L 96.771018 75.428604 
L 97.099111 75.826896 
L 98.739576 76.883562 
L 99.067669 76.946803 
L 99.723855 77.366873 
L 100.380041 77.482047 
L 100.708134 77.411267 
L 102.020506 75.599899 
L 103.332878 72.302579 
L 103.989064 69.72562 
L 104.645249 65.778302 
L 105.957621 57.902513 
L 106.9419 53.612605 
L 107.598086 52.267376 
L 107.926179 52.366216 
L 108.254272 52.743567 
L 108.910458 54.618595 
L 109.238551 55.795043 
L 111.207109 65.876304 
L 112.191388 68.163445 
L 113.175666 69.331935 
L 113.503759 69.487315 
L 113.831852 69.430356 
L 114.159945 69.860478 
L 114.816131 71.120688 
L 115.80041 72.05171 
L 116.128503 72.172328 
L 116.456596 72.435762 
L 118.753247 76.015781 
L 119.737526 77.055276 
L 121.049897 79.278338 
L 121.706083 80.419605 
L 122.362269 80.899566 
L 122.690362 80.868155 
L 123.346548 80.194702 
L 124.330827 79.577371 
L 124.987013 79.705947 
L 125.315106 79.61297 
L 125.643199 79.66239 
L 126.299385 80.095862 
L 126.955571 80.440546 
L 127.283664 80.487034 
L 127.611757 80.415836 
L 128.924129 80.884907 
L 129.580314 80.338774 
L 131.220779 78.017291 
L 132.861244 76.571546 
L 134.501709 73.750418 
L 135.157895 72.602031 
L 135.157895 72.602031 
" style="fill:none;stroke:#add8e6;stroke-linecap:square;stroke-width:1.5;"/>
   </g>
   <g id="line2d_2">
    <path clip-path="url(#p9f8f6600fa)" d="M 40.995215 115.954052 
L 44.276145 116.834693 
L 45.91661 117.078687 
L 46.244703 117.147021 
L 49.853725 117.233515 
L 52.806562 116.746448 
L 53.134655 116.583763 
L 54.77512 116.388843 
L 55.103213 116.174365 
L 56.415584 115.675826 
L 61.665072 111.713286 
L 62.977444 111.231002 
L 65.274094 110.978891 
L 66.914559 110.95324 
L 68.226931 110.831656 
L 68.883117 110.573631 
L 69.539303 110.171006 
L 70.523582 109.202948 
L 71.507861 107.847066 
L 72.492139 106.082833 
L 75.444976 99.97586 
L 77.085441 96.02372 
L 78.06972 93.11646 
L 79.053999 89.552032 
L 80.038278 85.021 
L 81.350649 77.885251 
L 83.975393 63.046167 
L 85.287765 57.146073 
L 86.600137 52.431551 
L 87.256323 50.831954 
L 87.584416 50.291917 
L 87.912509 50.02392 
L 88.240602 49.981863 
L 88.568694 50.1226 
L 88.896787 50.488919 
L 89.22488 51.074472 
L 89.881066 53.053624 
L 91.193438 58.842936 
L 92.833903 65.80448 
L 93.490089 67.832336 
L 94.474368 69.96878 
L 95.78674 72.050055 
L 97.427204 74.089038 
L 98.08339 74.393129 
L 98.739576 74.257482 
L 99.067669 74.058303 
L 99.395762 73.700102 
L 99.723855 73.155559 
L 100.051948 72.390542 
L 100.708134 70.027132 
L 101.36432 67.187714 
L 102.348599 62.069584 
L 104.645249 48.686425 
L 105.301435 46.38477 
L 105.957621 45.237494 
L 106.285714 45 
L 106.613807 45.067796 
L 107.269993 46.200526 
L 107.598086 47.000538 
L 108.254272 49.379699 
L 108.910458 52.242661 
L 110.550923 57.848489 
L 111.207109 59.002658 
L 112.847573 63.19493 
L 113.503759 64.766314 
L 114.488038 67.228163 
L 115.144224 68.629567 
L 120.065619 78.271408 
L 121.049897 80.17619 
L 122.690362 82.461729 
L 123.346548 82.932741 
L 124.002734 82.426385 
L 124.987013 81.306137 
L 125.643199 80.305677 
L 127.611757 76.434147 
L 128.596036 75.419235 
L 129.908407 74.191816 
L 131.220779 72.452067 
L 131.876965 71.13421 
L 132.861244 68.454969 
L 134.829802 62.970304 
L 135.814081 60.528802 
L 137.454545 56.861717 
L 137.454545 56.861717 
" style="fill:none;stroke:#ff0000;stroke-linecap:square;stroke-width:1.5;"/>
   </g>
   <g id="patch_3">
    <path d="M 0 144 
L 0 0 
" style="fill:none;stroke:#ffffff;stroke-linecap:square;stroke-linejoin:miter;stroke-width:0.8;"/>
   </g>
   <g id="patch_4">
    <path d="M 144 144 
L 144 0 
" style="fill:none;stroke:#ffffff;stroke-linecap:square;stroke-linejoin:miter;stroke-width:0.8;"/>
   </g>
   <g id="patch_5">
    <path d="M 0 144 
L 144 144 
" style="fill:none;stroke:#ffffff;stroke-linecap:square;stroke-linejoin:miter;stroke-width:0.8;"/>
   </g>
   <g id="patch_6">
    <path d="M 0 0 
L 144 0 
" style="fill:none;stroke:#ffffff;stroke-linecap:square;stroke-linejoin:miter;stroke-width:0.8;"/>
   </g>
  </g>
  <g id="text_1">
   <g id="patch_7">
    <path d="M -64.84815 36.3681 
L 208.84815 36.3681 
L 208.84815 -7.65432 
L -64.84815 -7.65432 
z
" style="fill:#ffff00;stroke:#ffff00;stroke-linejoin:miter;"/>
   </g>
   <!--  -->
   <g transform="translate(72 9.45018)scale(0.1728 -0.1728)"/>
   <!--            CORONADATA            -->
   <g transform="translate(-60.87375 28.8)scale(0.1728 -0.1728)">
    <defs>
     <path id="DejaVuSans-Bold-32"/>
     <path d="M 67 4 
Q 61.8125 1.3125 56.203125 -0.046875 
Q 50.59375 -1.421875 44.484375 -1.421875 
Q 26.265625 -1.421875 15.625 8.765625 
Q 4.984375 18.953125 4.984375 36.375 
Q 4.984375 53.859375 15.625 64.03125 
Q 26.265625 74.21875 44.484375 74.21875 
Q 50.59375 74.21875 56.203125 72.84375 
Q 61.8125 71.484375 67 68.796875 
L 67 53.71875 
Q 61.765625 57.28125 56.6875 58.9375 
Q 51.609375 60.59375 46 60.59375 
Q 35.9375 60.59375 30.171875 54.140625 
Q 24.421875 47.703125 24.421875 36.375 
Q 24.421875 25.09375 30.171875 18.640625 
Q 35.9375 12.203125 46 12.203125 
Q 51.609375 12.203125 56.6875 13.859375 
Q 61.765625 15.53125 67 19.09375 
z
" id="DejaVuSans-Bold-67"/>
     <path d="M 42.484375 60.59375 
Q 33.890625 60.59375 29.15625 54.25 
Q 24.421875 47.90625 24.421875 36.375 
Q 24.421875 24.90625 29.15625 18.546875 
Q 33.890625 12.203125 42.484375 12.203125 
Q 51.125 12.203125 55.859375 18.546875 
Q 60.59375 24.90625 60.59375 36.375 
Q 60.59375 47.90625 55.859375 54.25 
Q 51.125 60.59375 42.484375 60.59375 
z
M 42.484375 74.21875 
Q 60.0625 74.21875 70.015625 64.15625 
Q 79.984375 54.109375 79.984375 36.375 
Q 79.984375 18.703125 70.015625 8.640625 
Q 60.0625 -1.421875 42.484375 -1.421875 
Q 24.953125 -1.421875 14.96875 8.640625 
Q 4.984375 18.703125 4.984375 36.375 
Q 4.984375 54.109375 14.96875 64.15625 
Q 24.953125 74.21875 42.484375 74.21875 
z
" id="DejaVuSans-Bold-79"/>
     <path d="M 35.890625 40.578125 
Q 41.796875 40.578125 44.359375 42.765625 
Q 46.921875 44.96875 46.921875 50 
Q 46.921875 54.984375 44.359375 57.125 
Q 41.796875 59.28125 35.890625 59.28125 
L 27.984375 59.28125 
L 27.984375 40.578125 
z
M 27.984375 27.59375 
L 27.984375 0 
L 9.1875 0 
L 9.1875 72.90625 
L 37.890625 72.90625 
Q 52.296875 72.90625 59 68.0625 
Q 65.71875 63.234375 65.71875 52.78125 
Q 65.71875 45.5625 62.21875 40.921875 
Q 58.734375 36.28125 51.703125 34.078125 
Q 55.5625 33.203125 58.609375 30.09375 
Q 61.671875 27 64.796875 20.703125 
L 75 0 
L 54.984375 0 
L 46.09375 18.109375 
Q 43.40625 23.578125 40.640625 25.578125 
Q 37.890625 27.59375 33.296875 27.59375 
z
" id="DejaVuSans-Bold-82"/>
     <path d="M 9.1875 72.90625 
L 30.171875 72.90625 
L 56.6875 22.90625 
L 56.6875 72.90625 
L 74.515625 72.90625 
L 74.515625 0 
L 53.515625 0 
L 27 50 
L 27 0 
L 9.1875 0 
z
" id="DejaVuSans-Bold-78"/>
     <path d="M 53.421875 13.28125 
L 24.03125 13.28125 
L 19.390625 0 
L 0.484375 0 
L 27.484375 72.90625 
L 49.90625 72.90625 
L 76.90625 0 
L 58.015625 0 
z
M 28.71875 26.8125 
L 48.6875 26.8125 
L 38.71875 55.8125 
z
" id="DejaVuSans-Bold-65"/>
     <path d="M 27.984375 58.6875 
L 27.984375 14.203125 
L 34.71875 14.203125 
Q 46.234375 14.203125 52.3125 19.921875 
Q 58.40625 25.640625 58.40625 36.53125 
Q 58.40625 47.359375 52.34375 53.015625 
Q 46.296875 58.6875 34.71875 58.6875 
z
M 9.1875 72.90625 
L 29 72.90625 
Q 45.609375 72.90625 53.734375 70.53125 
Q 61.859375 68.171875 67.671875 62.5 
Q 72.796875 57.5625 75.28125 51.109375 
Q 77.78125 44.671875 77.78125 36.53125 
Q 77.78125 28.265625 75.28125 21.796875 
Q 72.796875 15.328125 67.671875 10.40625 
Q 61.8125 4.734375 53.609375 2.359375 
Q 45.40625 0 29 0 
L 9.1875 0 
z
" id="DejaVuSans-Bold-68"/>
     <path d="M 0.484375 72.90625 
L 67.671875 72.90625 
L 67.671875 58.6875 
L 43.5 58.6875 
L 43.5 0 
L 24.703125 0 
L 24.703125 58.6875 
L 0.484375 58.6875 
z
" id="DejaVuSans-Bold-84"/>
    </defs>
    <use xlink:href="#DejaVuSans-Bold-32"/>
    <use x="34.814453" xlink:href="#DejaVuSans-Bold-32"/>
    <use x="69.628906" xlink:href="#DejaVuSans-Bold-32"/>
    <use x="104.443359" xlink:href="#DejaVuSans-Bold-32"/>
    <use x="139.257812" xlink:href="#DejaVuSans-Bold-32"/>
    <use x="174.072266" xlink:href="#DejaVuSans-Bold-32"/>
    <use x="208.886719" xlink:href="#DejaVuSans-Bold-32"/>
    <use x="243.701172" xlink:href="#DejaVuSans-Bold-32"/>
    <use x="278.515625" xlink:href="#DejaVuSans-Bold-32"/>
    <use x="313.330078" xlink:href="#DejaVuSans-Bold-32"/>
    <use x="348.144531" xlink:href="#DejaVuSans-Bold-32"/>
    <use x="382.958984" xlink:href="#DejaVuSans-Bold-67"/>
    <use x="456.347656" xlink:href="#DejaVuSans-Bold-79"/>
    <use x="541.357422" xlink:href="#DejaVuSans-Bold-82"/>
    <use x="618.359375" xlink:href="#DejaVuSans-Bold-79"/>
    <use x="703.369141" xlink:href="#DejaVuSans-Bold-78"/>
    <use x="787.060547" xlink:href="#DejaVuSans-Bold-65"/>
    <use x="864.453125" xlink:href="#DejaVuSans-Bold-68"/>
    <use x="947.460938" xlink:href="#DejaVuSans-Bold-65"/>
    <use x="1017.103516" xlink:href="#DejaVuSans-Bold-84"/>
    <use x="1077.566406" xlink:href="#DejaVuSans-Bold-65"/>
    <use x="1154.958984" xlink:href="#DejaVuSans-Bold-32"/>
    <use x="1189.773438" xlink:href="#DejaVuSans-Bold-32"/>
    <use x="1224.587891" xlink:href="#DejaVuSans-Bold-32"/>
    <use x="1259.402344" xlink:href="#DejaVuSans-Bold-32"/>
    <use x="1294.216797" xlink:href="#DejaVuSans-Bold-32"/>
    <use x="1329.03125" xlink:href="#DejaVuSans-Bold-32"/>
    <use x="1363.845703" xlink:href="#DejaVuSans-Bold-32"/>
    <use x="1398.660156" xlink:href="#DejaVuSans-Bold-32"/>
    <use x="1433.474609" xlink:href="#DejaVuSans-Bold-32"/>
    <use x="1468.289062" xlink:href="#DejaVuSans-Bold-32"/>
    <use x="1503.103516" xlink:href="#DejaVuSans-Bold-32"/>
   </g>
  </g>
  <g id="text_2">
   <!-- Rt=1,11 -->
   <g style="fill:#808080;opacity:0.3;" transform="translate(26.46875 141.12)scale(0.2 -0.2)">
    <defs>
     <path d="M 27.484375 70.21875 
L 27.484375 54.6875 
L 45.515625 54.6875 
L 45.515625 42.1875 
L 27.484375 42.1875 
L 27.484375 19 
Q 27.484375 15.1875 29 13.84375 
Q 30.515625 12.5 35.015625 12.5 
L 44 12.5 
L 44 0 
L 29 0 
Q 18.65625 0 14.328125 4.3125 
Q 10.015625 8.640625 10.015625 19 
L 10.015625 42.1875 
L 1.3125 42.1875 
L 1.3125 54.6875 
L 10.015625 54.6875 
L 10.015625 70.21875 
z
" id="DejaVuSans-Bold-116"/>
     <path d="M 10.59375 48.1875 
L 73.1875 48.1875 
L 73.1875 36.71875 
L 10.59375 36.71875 
z
M 10.59375 25.984375 
L 73.1875 25.984375 
L 73.1875 14.40625 
L 10.59375 14.40625 
z
" id="DejaVuSans-Bold-61"/>
     <path d="M 11.71875 12.984375 
L 28.328125 12.984375 
L 28.328125 60.109375 
L 11.28125 56.59375 
L 11.28125 69.390625 
L 28.21875 72.90625 
L 46.09375 72.90625 
L 46.09375 12.984375 
L 62.703125 12.984375 
L 62.703125 0 
L 11.71875 0 
z
" id="DejaVuSans-Bold-49"/>
     <path d="M 10.203125 18.890625 
L 27.78125 18.890625 
L 27.78125 4 
L 15.71875 -14.203125 
L 5.328125 -14.203125 
L 10.203125 4 
z
" id="DejaVuSans-Bold-44"/>
    </defs>
    <use xlink:href="#DejaVuSans-Bold-82"/>
    <use x="77.001953" xlink:href="#DejaVuSans-Bold-116"/>
    <use x="124.804688" xlink:href="#DejaVuSans-Bold-61"/>
    <use x="208.59375" xlink:href="#DejaVuSans-Bold-49"/>
    <use x="278.173828" xlink:href="#DejaVuSans-Bold-44"/>
    <use x="316.162109" xlink:href="#DejaVuSans-Bold-49"/>
    <use x="385.742188" xlink:href="#DejaVuSans-Bold-49"/>
   </g>
  </g>
 </g>
 <defs>
  <clipPath id="p9f8f6600fa">
   <rect height="144" width="144" x="0" y="0"/>
  </clipPath>
 </defs>
</svg>
