<?xml version="1.0" encoding="utf-8" standalone="no"?>
<!DOCTYPE svg PUBLIC "-//W3C//DTD SVG 1.1//EN"
  "http://www.w3.org/Graphics/SVG/1.1/DTD/svg11.dtd">
<!-- Created with matplotlib (https://matplotlib.org/) -->
<svg height="144pt" version="1.1" viewBox="0 0 144 144" width="144pt" xmlns="http://www.w3.org/2000/svg" xmlns:xlink="http://www.w3.org/1999/xlink">
 <metadata>
  <rdf:RDF xmlns:cc="http://creativecommons.org/ns#" xmlns:dc="http://purl.org/dc/elements/1.1/" xmlns:rdf="http://www.w3.org/1999/02/22-rdf-syntax-ns#">
   <cc:Work>
    <dc:type rdf:resource="http://purl.org/dc/dcmitype/StillImage"/>
    <dc:date>2021-02-10T17:19:49.053722</dc:date>
    <dc:format>image/svg+xml</dc:format>
    <dc:creator>
     <cc:Agent>
      <dc:title>Matplotlib v3.3.2, https://matplotlib.org/</dc:title>
     </cc:Agent>
    </dc:creator>
   </cc:Work>
  </rdf:RDF>
 </metadata>
 <defs>
  <style type="text/css">*{stroke-linecap:butt;stroke-linejoin:round;}</style>
 </defs>
 <g id="figure_1">
  <g id="patch_1">
   <path d="M 0 144 
L 144 144 
L 144 0 
L 0 0 
z
" style="fill:#ffffff;"/>
  </g>
  <g id="axes_1">
   <g id="patch_2">
    <path d="M 0 144 
L 144 144 
L 144 0 
L 0 0 
z
" style="fill:#ffffff;"/>
   </g>
   <g id="line2d_1">
    <path clip-path="url(#p4558077f5e)" d="M 6.545455 119.775224 
L 8.384065 119.526398 
L 9.11951 119.313416 
L 9.854954 118.901558 
L 10.590398 118.233011 
L 11.325843 117.232156 
L 12.061287 115.833319 
L 12.796731 113.996954 
L 13.532176 111.589631 
L 14.26762 108.492948 
L 15.370787 104.563068 
L 16.106231 101.190965 
L 17.209397 94.29344 
L 19.048008 82.069972 
L 19.41573 80.768491 
L 19.783453 80.107576 
L 20.151175 79.952406 
L 20.518897 80.578172 
L 21.254341 82.603931 
L 24.563841 96.382793 
L 25.667007 100.088822 
L 26.770174 103.174636 
L 27.87334 105.836336 
L 28.976507 108.187234 
L 30.447395 110.674802 
L 31.18284 111.679587 
L 32.653728 113.091606 
L 33.389173 113.673665 
L 34.492339 114.238843 
L 35.595506 114.434481 
L 38.169561 115.417992 
L 38.905005 115.778975 
L 40.008172 116.305533 
L 42.214505 117.352638 
L 43.317671 117.823234 
L 46.627171 118.866639 
L 48.465781 118.965845 
L 51.407559 118.954514 
L 52.878447 118.941333 
L 59.865169 119.117315 
L 62.071502 118.908264 
L 68.690501 117.504339 
L 69.793667 117.344082 
L 71.632278 117.02033 
L 73.103166 117.027037 
L 76.044944 117.48607 
L 76.780388 117.357957 
L 77.515832 117.045537 
L 78.251277 116.479897 
L 78.986721 115.707287 
L 80.089888 113.920179 
L 82.296221 109.247983 
L 83.767109 104.87965 
L 84.502554 102.529215 
L 86.341164 98.176608 
L 88.179775 95.232088 
L 89.282942 93.706756 
L 90.018386 92.213568 
L 91.489275 88.177775 
L 92.592441 86.263479 
L 93.695608 84.468971 
L 94.431052 84.090181 
L 94.798774 83.740298 
L 95.166496 83.565241 
L 95.901941 83.804355 
L 99.21144 85.589613 
L 100.314607 86.863113 
L 102.153218 89.681832 
L 103.256384 91.681228 
L 103.991828 92.567845 
L 105.094995 93.844119 
L 105.462717 94.280027 
L 105.830439 94.486535 
L 106.198161 94.551285 
L 109.875383 96.303705 
L 110.610827 96.556925 
L 111.346272 96.724351 
L 112.081716 96.611732 
L 113.552605 95.330601 
L 115.023493 93.230148 
L 115.758938 91.663653 
L 116.862104 88.120887 
L 117.597549 85.798895 
L 118.700715 82.963526 
L 119.436159 81.54642 
L 119.803882 80.873017 
L 120.539326 80.266214 
L 120.907048 80.218345 
L 120.907048 80.218345 
" style="fill:none;stroke:#4682b4;stroke-linecap:square;stroke-width:1.5;"/>
   </g>
   <g id="line2d_2">
    <path clip-path="url(#p4558077f5e)" d="M 44.78856 119.174525 
L 54.717058 119.862064 
L 59.129724 119.805551 
L 60.968335 119.51781 
L 63.174668 118.835754 
L 66.85189 117.3657 
L 68.322778 116.988675 
L 70.161389 117.374456 
L 72.367722 117.72157 
L 73.103166 117.897503 
L 74.941777 118.059996 
L 76.412666 118.214238 
L 77.14811 117.97299 
L 78.251277 117.225404 
L 78.986721 116.626233 
L 79.722165 115.634216 
L 81.560776 112.36188 
L 82.296221 111.250518 
L 84.134831 107.630548 
L 85.973442 103.428607 
L 86.341164 102.139584 
L 87.444331 94.884425 
L 88.547497 85.149585 
L 91.121553 60.528438 
L 91.856997 57.742981 
L 92.224719 57.170032 
L 92.592441 57.017399 
L 93.327886 54.556732 
L 93.695608 53.819577 
L 94.798774 53.047681 
L 95.901941 50.159207 
L 96.269663 48.470058 
L 96.637385 47.500464 
L 97.372829 45 
L 98.475996 50.996755 
L 98.843718 52.561543 
L 99.579162 57.294429 
L 101.050051 71.760468 
L 102.153218 79.964183 
L 103.256384 81.35059 
L 103.624106 81.989544 
L 104.359551 82.398509 
L 105.094995 81.67209 
L 105.462717 82.084162 
L 106.565884 84.006484 
L 107.301328 87.523625 
L 108.036772 91.045901 
L 109.139939 94.798478 
L 109.875383 97.154325 
L 110.610827 98.724874 
L 111.346272 99.742503 
L 111.713994 99.670051 
L 112.081716 99.390157 
L 112.449438 99.299562 
L 112.81716 99.013873 
L 113.552605 98.834544 
L 113.920327 98.543088 
L 115.023493 97.08528 
L 116.12666 94.246235 
L 117.229826 91.412351 
L 117.965271 90.290608 
L 118.332993 90.027357 
L 119.068437 90.47109 
L 119.436159 90.788685 
L 119.803882 91.285504 
L 120.539326 93.51147 
L 121.27477 96.271493 
L 122.377937 98.459133 
L 122.745659 99.0644 
L 123.113381 99.372915 
L 123.481103 99.235359 
L 123.848825 98.919885 
L 124.216547 98.424297 
L 124.951992 96.776399 
L 127.893769 89.126173 
L 129.364658 86.971777 
L 129.73238 86.21187 
L 130.467824 85.356169 
L 130.835546 85.05919 
L 131.203269 84.597808 
L 133.041879 86.558512 
L 133.409602 87.124005 
L 134.145046 89.440461 
L 136.351379 98.996256 
L 137.454545 104.0068 
L 137.454545 104.0068 
" style="fill:none;stroke:#ff0000;stroke-linecap:square;stroke-width:1.5;"/>
   </g>
   <g id="patch_3">
    <path d="M 0 144 
L 0 -0 
" style="fill:none;stroke:#ffffff;stroke-linecap:square;stroke-linejoin:miter;stroke-width:0.8;"/>
   </g>
   <g id="patch_4">
    <path d="M 144 144 
L 144 -0 
" style="fill:none;stroke:#ffffff;stroke-linecap:square;stroke-linejoin:miter;stroke-width:0.8;"/>
   </g>
   <g id="patch_5">
    <path d="M 0 144 
L 144 144 
" style="fill:none;stroke:#ffffff;stroke-linecap:square;stroke-linejoin:miter;stroke-width:0.8;"/>
   </g>
   <g id="patch_6">
    <path d="M 0 0 
L 144 0 
" style="fill:none;stroke:#ffffff;stroke-linecap:square;stroke-linejoin:miter;stroke-width:0.8;"/>
   </g>
  </g>
  <g id="text_1">
   <g id="patch_7">
    <path d="M -52.65765 36.3681 
L 196.65765 36.3681 
L 196.65765 -7.65432 
L -52.65765 -7.65432 
z
" style="fill:#ffff00;stroke:#ffff00;stroke-linejoin:miter;"/>
   </g>
   <!--  -->
   <g transform="translate(72 9.45018)scale(0.1728 -0.1728)"/>
   <!--            CORONADATA            -->
   <g transform="translate(-48.68325 28.8)scale(0.1728 -0.1728)">
    <defs>
     <path id="DejaVuSans-32"/>
     <path d="M 64.40625 67.28125 
L 64.40625 56.890625 
Q 59.421875 61.53125 53.78125 63.8125 
Q 48.140625 66.109375 41.796875 66.109375 
Q 29.296875 66.109375 22.65625 58.46875 
Q 16.015625 50.828125 16.015625 36.375 
Q 16.015625 21.96875 22.65625 14.328125 
Q 29.296875 6.6875 41.796875 6.6875 
Q 48.140625 6.6875 53.78125 8.984375 
Q 59.421875 11.28125 64.40625 15.921875 
L 64.40625 5.609375 
Q 59.234375 2.09375 53.4375 0.328125 
Q 47.65625 -1.421875 41.21875 -1.421875 
Q 24.65625 -1.421875 15.125 8.703125 
Q 5.609375 18.84375 5.609375 36.375 
Q 5.609375 53.953125 15.125 64.078125 
Q 24.65625 74.21875 41.21875 74.21875 
Q 47.75 74.21875 53.53125 72.484375 
Q 59.328125 70.75 64.40625 67.28125 
z
" id="DejaVuSans-67"/>
     <path d="M 39.40625 66.21875 
Q 28.65625 66.21875 22.328125 58.203125 
Q 16.015625 50.203125 16.015625 36.375 
Q 16.015625 22.609375 22.328125 14.59375 
Q 28.65625 6.59375 39.40625 6.59375 
Q 50.140625 6.59375 56.421875 14.59375 
Q 62.703125 22.609375 62.703125 36.375 
Q 62.703125 50.203125 56.421875 58.203125 
Q 50.140625 66.21875 39.40625 66.21875 
z
M 39.40625 74.21875 
Q 54.734375 74.21875 63.90625 63.9375 
Q 73.09375 53.65625 73.09375 36.375 
Q 73.09375 19.140625 63.90625 8.859375 
Q 54.734375 -1.421875 39.40625 -1.421875 
Q 24.03125 -1.421875 14.8125 8.828125 
Q 5.609375 19.09375 5.609375 36.375 
Q 5.609375 53.65625 14.8125 63.9375 
Q 24.03125 74.21875 39.40625 74.21875 
z
" id="DejaVuSans-79"/>
     <path d="M 44.390625 34.1875 
Q 47.5625 33.109375 50.5625 29.59375 
Q 53.5625 26.078125 56.59375 19.921875 
L 66.609375 0 
L 56 0 
L 46.6875 18.703125 
Q 43.0625 26.03125 39.671875 28.421875 
Q 36.28125 30.8125 30.421875 30.8125 
L 19.671875 30.8125 
L 19.671875 0 
L 9.8125 0 
L 9.8125 72.90625 
L 32.078125 72.90625 
Q 44.578125 72.90625 50.734375 67.671875 
Q 56.890625 62.453125 56.890625 51.90625 
Q 56.890625 45.015625 53.6875 40.46875 
Q 50.484375 35.9375 44.390625 34.1875 
z
M 19.671875 64.796875 
L 19.671875 38.921875 
L 32.078125 38.921875 
Q 39.203125 38.921875 42.84375 42.21875 
Q 46.484375 45.515625 46.484375 51.90625 
Q 46.484375 58.296875 42.84375 61.546875 
Q 39.203125 64.796875 32.078125 64.796875 
z
" id="DejaVuSans-82"/>
     <path d="M 9.8125 72.90625 
L 23.09375 72.90625 
L 55.421875 11.921875 
L 55.421875 72.90625 
L 64.984375 72.90625 
L 64.984375 0 
L 51.703125 0 
L 19.390625 60.984375 
L 19.390625 0 
L 9.8125 0 
z
" id="DejaVuSans-78"/>
     <path d="M 34.1875 63.1875 
L 20.796875 26.90625 
L 47.609375 26.90625 
z
M 28.609375 72.90625 
L 39.796875 72.90625 
L 67.578125 0 
L 57.328125 0 
L 50.6875 18.703125 
L 17.828125 18.703125 
L 11.1875 0 
L 0.78125 0 
z
" id="DejaVuSans-65"/>
     <path d="M 19.671875 64.796875 
L 19.671875 8.109375 
L 31.59375 8.109375 
Q 46.6875 8.109375 53.6875 14.9375 
Q 60.6875 21.78125 60.6875 36.53125 
Q 60.6875 51.171875 53.6875 57.984375 
Q 46.6875 64.796875 31.59375 64.796875 
z
M 9.8125 72.90625 
L 30.078125 72.90625 
Q 51.265625 72.90625 61.171875 64.09375 
Q 71.09375 55.28125 71.09375 36.53125 
Q 71.09375 17.671875 61.125 8.828125 
Q 51.171875 0 30.078125 0 
L 9.8125 0 
z
" id="DejaVuSans-68"/>
     <path d="M -0.296875 72.90625 
L 61.375 72.90625 
L 61.375 64.59375 
L 35.5 64.59375 
L 35.5 0 
L 25.59375 0 
L 25.59375 64.59375 
L -0.296875 64.59375 
z
" id="DejaVuSans-84"/>
    </defs>
    <use xlink:href="#DejaVuSans-32"/>
    <use x="31.787109" xlink:href="#DejaVuSans-32"/>
    <use x="63.574219" xlink:href="#DejaVuSans-32"/>
    <use x="95.361328" xlink:href="#DejaVuSans-32"/>
    <use x="127.148438" xlink:href="#DejaVuSans-32"/>
    <use x="158.935547" xlink:href="#DejaVuSans-32"/>
    <use x="190.722656" xlink:href="#DejaVuSans-32"/>
    <use x="222.509766" xlink:href="#DejaVuSans-32"/>
    <use x="254.296875" xlink:href="#DejaVuSans-32"/>
    <use x="286.083984" xlink:href="#DejaVuSans-32"/>
    <use x="317.871094" xlink:href="#DejaVuSans-32"/>
    <use x="349.658203" xlink:href="#DejaVuSans-67"/>
    <use x="419.482422" xlink:href="#DejaVuSans-79"/>
    <use x="498.193359" xlink:href="#DejaVuSans-82"/>
    <use x="567.675781" xlink:href="#DejaVuSans-79"/>
    <use x="646.386719" xlink:href="#DejaVuSans-78"/>
    <use x="721.191406" xlink:href="#DejaVuSans-65"/>
    <use x="789.599609" xlink:href="#DejaVuSans-68"/>
    <use x="864.851562" xlink:href="#DejaVuSans-65"/>
    <use x="925.509766" xlink:href="#DejaVuSans-84"/>
    <use x="978.84375" xlink:href="#DejaVuSans-65"/>
    <use x="1047.251953" xlink:href="#DejaVuSans-32"/>
    <use x="1079.039062" xlink:href="#DejaVuSans-32"/>
    <use x="1110.826172" xlink:href="#DejaVuSans-32"/>
    <use x="1142.613281" xlink:href="#DejaVuSans-32"/>
    <use x="1174.400391" xlink:href="#DejaVuSans-32"/>
    <use x="1206.1875" xlink:href="#DejaVuSans-32"/>
    <use x="1237.974609" xlink:href="#DejaVuSans-32"/>
    <use x="1269.761719" xlink:href="#DejaVuSans-32"/>
    <use x="1301.548828" xlink:href="#DejaVuSans-32"/>
    <use x="1333.335938" xlink:href="#DejaVuSans-32"/>
    <use x="1365.123047" xlink:href="#DejaVuSans-32"/>
   </g>
  </g>
 </g>
 <defs>
  <clipPath id="p4558077f5e">
   <rect height="144" width="144" x="0" y="0"/>
  </clipPath>
 </defs>
</svg>
