<?xml version="1.0" encoding="utf-8" standalone="no"?>
<!DOCTYPE svg PUBLIC "-//W3C//DTD SVG 1.1//EN"
  "http://www.w3.org/Graphics/SVG/1.1/DTD/svg11.dtd">
<!-- Created with matplotlib (https://matplotlib.org/) -->
<svg height="144pt" version="1.1" viewBox="0 0 144 144" width="144pt" xmlns="http://www.w3.org/2000/svg" xmlns:xlink="http://www.w3.org/1999/xlink">
 <metadata>
  <rdf:RDF xmlns:cc="http://creativecommons.org/ns#" xmlns:dc="http://purl.org/dc/elements/1.1/" xmlns:rdf="http://www.w3.org/1999/02/22-rdf-syntax-ns#">
   <cc:Work>
    <dc:type rdf:resource="http://purl.org/dc/dcmitype/StillImage"/>
    <dc:date>2022-01-25T11:50:02.467386</dc:date>
    <dc:format>image/svg+xml</dc:format>
    <dc:creator>
     <cc:Agent>
      <dc:title>Matplotlib v3.3.2, https://matplotlib.org/</dc:title>
     </cc:Agent>
    </dc:creator>
   </cc:Work>
  </rdf:RDF>
 </metadata>
 <defs>
  <style type="text/css">*{stroke-linecap:butt;stroke-linejoin:round;}</style>
 </defs>
 <g id="figure_1">
  <g id="patch_1">
   <path d="M 0 144 
L 144 144 
L 144 0 
L 0 0 
z
" style="fill:#ffffff;"/>
  </g>
  <g id="axes_1">
   <g id="patch_2">
    <path d="M 0 144 
L 144 144 
L 144 0 
L 0 0 
z
" style="fill:#ffffff;"/>
   </g>
   <g id="line2d_1">
    <path clip-path="url(#pfa9f159e3a)" d="M 6.545455 119.890403 
L 7.664336 119.699985 
L 8.223776 119.430992 
L 8.783217 118.891168 
L 9.342657 117.940304 
L 9.902098 116.559825 
L 11.393939 111.532325 
L 12.32634 106.761369 
L 12.885781 103.815301 
L 13.258741 102.932297 
L 13.445221 102.833618 
L 13.818182 103.433139 
L 14.191142 104.591054 
L 15.496503 109.275578 
L 16.428904 111.954592 
L 17.547786 114.303486 
L 18.293706 115.515793 
L 19.039627 116.417777 
L 20.158508 117.250167 
L 20.904429 117.522629 
L 22.20979 117.859381 
L 25.379953 119.115567 
L 27.058275 119.533854 
L 28.923077 119.567631 
L 30.601399 119.563447 
L 33.958042 119.57457 
L 34.890443 119.459871 
L 37.314685 118.978213 
L 40.298368 118.729833 
L 41.79021 118.895148 
L 42.34965 118.741263 
L 42.909091 118.400837 
L 43.468531 117.805297 
L 44.214452 116.595133 
L 44.773893 115.497424 
L 45.706294 113.111793 
L 46.265734 111.722233 
L 48.130536 108.678303 
L 48.876457 107.482834 
L 49.622378 105.747848 
L 50.554779 104.467375 
L 50.927739 104.18634 
L 51.67366 103.851119 
L 52.41958 104.219505 
L 53.351981 104.880151 
L 54.470862 106.044394 
L 55.403263 107.36844 
L 55.962704 107.990819 
L 56.708625 108.710753 
L 58.013986 109.264761 
L 59.692308 109.607738 
L 60.065268 109.588247 
L 60.997669 108.929336 
L 61.74359 107.904386 
L 62.11655 107.017402 
L 63.048951 104.329 
L 63.608392 103.255987 
L 63.981352 103.024444 
L 64.354312 103.211086 
L 64.913753 104.190218 
L 66.032634 106.909233 
L 66.592075 107.478344 
L 67.337995 107.780604 
L 67.524476 107.755195 
L 69.948718 109.04975 
L 71.440559 109.946939 
L 72.18648 110.438392 
L 72.559441 110.465128 
L 73.491841 110.143989 
L 75.356643 110.321141 
L 76.289044 110.395227 
L 76.848485 110.128478 
L 78.526807 109.167409 
L 79.645688 107.899488 
L 80.578089 106.543398 
L 81.324009 105.341603 
L 82.629371 104.124398 
L 83.002331 103.889488 
L 83.748252 103.230271 
L 84.867133 102.094397 
L 85.799534 101.152308 
L 86.172494 101.112204 
L 86.545455 101.256497 
L 87.291375 102.208995 
L 87.850816 103.38783 
L 88.410256 104.618403 
L 89.156177 105.895304 
L 90.461538 108.128683 
L 91.7669 111.402625 
L 92.512821 113.031483 
L 93.072261 113.848871 
L 93.818182 114.566663 
L 94.937063 115.690496 
L 96.615385 117.510078 
L 97.547786 118.192153 
L 98.853147 118.753304 
L 99.226107 118.883515 
L 99.226107 118.883515 
" style="fill:none;stroke:#add8e6;stroke-linecap:square;stroke-width:1.5;"/>
   </g>
   <g id="line2d_2">
    <path clip-path="url(#pfa9f159e3a)" d="M 26.125874 118.45708 
L 29.109557 118.817376 
L 31.5338 118.778937 
L 34.890443 118.38877 
L 38.620047 117.145886 
L 41.97669 116.804044 
L 43.095571 116.358288 
L 44.027972 115.749962 
L 45.706294 114.349475 
L 47.011655 113.021051 
L 47.757576 112.019304 
L 48.503497 110.684524 
L 49.622378 108.16137 
L 50.927739 105.398715 
L 51.86014 103.937158 
L 52.41958 103.366222 
L 52.792541 103.197753 
L 53.165501 103.244124 
L 53.538462 103.517906 
L 54.097902 104.305164 
L 55.962704 107.42094 
L 56.895105 108.124312 
L 57.827506 108.514837 
L 58.573427 108.653282 
L 59.319347 108.426574 
L 59.692308 108.109377 
L 60.251748 107.253477 
L 60.997669 105.699355 
L 62.30303 102.655299 
L 62.862471 101.956067 
L 63.235431 101.772411 
L 63.608392 101.849846 
L 64.167832 102.362706 
L 66.592075 105.501696 
L 68.270396 107.56214 
L 70.135198 109.175331 
L 72.18648 110.668726 
L 72.932401 110.964258 
L 73.864802 110.633003 
L 74.424242 110.272255 
L 75.543124 109.370618 
L 77.780886 107.967051 
L 78.526807 107.04849 
L 80.391608 104.609382 
L 81.137529 104.044214 
L 81.69697 103.956474 
L 83.748252 104.083189 
L 85.799534 103.369222 
L 86.358974 103.484381 
L 86.918415 103.846169 
L 88.223776 104.949414 
L 89.902098 106.941965 
L 90.648019 108.175984 
L 92.32634 110.849486 
L 93.072261 111.71871 
L 95.869464 114.880506 
L 96.428904 115.293423 
L 97.174825 115.99219 
L 98.293706 116.346145 
L 98.666667 116.139511 
L 99.039627 115.529875 
L 99.599068 113.949743 
L 100.158508 111.455061 
L 101.463869 105.143418 
L 101.83683 104.192358 
L 102.20979 103.823513 
L 102.769231 104.169974 
L 103.142191 104.960166 
L 105.193473 110.483872 
L 105.752914 111.123424 
L 106.312354 111.436308 
L 107.058275 111.595664 
L 110.414918 111.684884 
L 111.90676 112.235865 
L 113.585082 113.091413 
L 115.076923 113.782024 
L 115.822844 113.83797 
L 116.382284 113.682006 
L 116.941725 113.287257 
L 117.687646 112.434762 
L 118.433566 111.313046 
L 119.738928 108.783486 
L 121.044289 105.683509 
L 122.16317 102.49203 
L 122.909091 99.723609 
L 123.841492 95.457779 
L 125.146853 89.112875 
L 125.706294 87.032851 
L 126.265734 85.730067 
L 126.638695 85.232992 
L 127.011655 85.082016 
L 127.384615 85.203278 
L 127.757576 85.609795 
L 128.317016 86.618102 
L 128.876457 87.955453 
L 130.927739 93.666581 
L 131.300699 94.305165 
L 131.67366 94.583657 
L 132.04662 94.515205 
L 132.41958 93.848206 
L 132.792541 92.580067 
L 133.351981 89.699582 
L 134.097902 84.263508 
L 135.403263 72.131148 
L 136.335664 60.676539 
L 137.454545 45 
L 137.454545 45 
" style="fill:none;stroke:#ff0000;stroke-linecap:square;stroke-width:1.5;"/>
   </g>
   <g id="patch_3">
    <path d="M 0 144 
L 0 0 
" style="fill:none;stroke:#ffffff;stroke-linecap:square;stroke-linejoin:miter;stroke-width:0.8;"/>
   </g>
   <g id="patch_4">
    <path d="M 144 144 
L 144 0 
" style="fill:none;stroke:#ffffff;stroke-linecap:square;stroke-linejoin:miter;stroke-width:0.8;"/>
   </g>
   <g id="patch_5">
    <path d="M 0 144 
L 144 144 
" style="fill:none;stroke:#ffffff;stroke-linecap:square;stroke-linejoin:miter;stroke-width:0.8;"/>
   </g>
   <g id="patch_6">
    <path d="M 0 0 
L 144 0 
" style="fill:none;stroke:#ffffff;stroke-linecap:square;stroke-linejoin:miter;stroke-width:0.8;"/>
   </g>
  </g>
  <g id="text_1">
   <g id="patch_7">
    <path d="M -64.84815 36.3681 
L 208.84815 36.3681 
L 208.84815 -7.65432 
L -64.84815 -7.65432 
z
" style="fill:#ffff00;stroke:#ffff00;stroke-linejoin:miter;"/>
   </g>
   <!--  -->
   <g transform="translate(72 9.45018)scale(0.1728 -0.1728)"/>
   <!--            CORONADATA            -->
   <g transform="translate(-60.87375 28.8)scale(0.1728 -0.1728)">
    <defs>
     <path id="DejaVuSans-Bold-32"/>
     <path d="M 67 4 
Q 61.8125 1.3125 56.203125 -0.046875 
Q 50.59375 -1.421875 44.484375 -1.421875 
Q 26.265625 -1.421875 15.625 8.765625 
Q 4.984375 18.953125 4.984375 36.375 
Q 4.984375 53.859375 15.625 64.03125 
Q 26.265625 74.21875 44.484375 74.21875 
Q 50.59375 74.21875 56.203125 72.84375 
Q 61.8125 71.484375 67 68.796875 
L 67 53.71875 
Q 61.765625 57.28125 56.6875 58.9375 
Q 51.609375 60.59375 46 60.59375 
Q 35.9375 60.59375 30.171875 54.140625 
Q 24.421875 47.703125 24.421875 36.375 
Q 24.421875 25.09375 30.171875 18.640625 
Q 35.9375 12.203125 46 12.203125 
Q 51.609375 12.203125 56.6875 13.859375 
Q 61.765625 15.53125 67 19.09375 
z
" id="DejaVuSans-Bold-67"/>
     <path d="M 42.484375 60.59375 
Q 33.890625 60.59375 29.15625 54.25 
Q 24.421875 47.90625 24.421875 36.375 
Q 24.421875 24.90625 29.15625 18.546875 
Q 33.890625 12.203125 42.484375 12.203125 
Q 51.125 12.203125 55.859375 18.546875 
Q 60.59375 24.90625 60.59375 36.375 
Q 60.59375 47.90625 55.859375 54.25 
Q 51.125 60.59375 42.484375 60.59375 
z
M 42.484375 74.21875 
Q 60.0625 74.21875 70.015625 64.15625 
Q 79.984375 54.109375 79.984375 36.375 
Q 79.984375 18.703125 70.015625 8.640625 
Q 60.0625 -1.421875 42.484375 -1.421875 
Q 24.953125 -1.421875 14.96875 8.640625 
Q 4.984375 18.703125 4.984375 36.375 
Q 4.984375 54.109375 14.96875 64.15625 
Q 24.953125 74.21875 42.484375 74.21875 
z
" id="DejaVuSans-Bold-79"/>
     <path d="M 35.890625 40.578125 
Q 41.796875 40.578125 44.359375 42.765625 
Q 46.921875 44.96875 46.921875 50 
Q 46.921875 54.984375 44.359375 57.125 
Q 41.796875 59.28125 35.890625 59.28125 
L 27.984375 59.28125 
L 27.984375 40.578125 
z
M 27.984375 27.59375 
L 27.984375 0 
L 9.1875 0 
L 9.1875 72.90625 
L 37.890625 72.90625 
Q 52.296875 72.90625 59 68.0625 
Q 65.71875 63.234375 65.71875 52.78125 
Q 65.71875 45.5625 62.21875 40.921875 
Q 58.734375 36.28125 51.703125 34.078125 
Q 55.5625 33.203125 58.609375 30.09375 
Q 61.671875 27 64.796875 20.703125 
L 75 0 
L 54.984375 0 
L 46.09375 18.109375 
Q 43.40625 23.578125 40.640625 25.578125 
Q 37.890625 27.59375 33.296875 27.59375 
z
" id="DejaVuSans-Bold-82"/>
     <path d="M 9.1875 72.90625 
L 30.171875 72.90625 
L 56.6875 22.90625 
L 56.6875 72.90625 
L 74.515625 72.90625 
L 74.515625 0 
L 53.515625 0 
L 27 50 
L 27 0 
L 9.1875 0 
z
" id="DejaVuSans-Bold-78"/>
     <path d="M 53.421875 13.28125 
L 24.03125 13.28125 
L 19.390625 0 
L 0.484375 0 
L 27.484375 72.90625 
L 49.90625 72.90625 
L 76.90625 0 
L 58.015625 0 
z
M 28.71875 26.8125 
L 48.6875 26.8125 
L 38.71875 55.8125 
z
" id="DejaVuSans-Bold-65"/>
     <path d="M 27.984375 58.6875 
L 27.984375 14.203125 
L 34.71875 14.203125 
Q 46.234375 14.203125 52.3125 19.921875 
Q 58.40625 25.640625 58.40625 36.53125 
Q 58.40625 47.359375 52.34375 53.015625 
Q 46.296875 58.6875 34.71875 58.6875 
z
M 9.1875 72.90625 
L 29 72.90625 
Q 45.609375 72.90625 53.734375 70.53125 
Q 61.859375 68.171875 67.671875 62.5 
Q 72.796875 57.5625 75.28125 51.109375 
Q 77.78125 44.671875 77.78125 36.53125 
Q 77.78125 28.265625 75.28125 21.796875 
Q 72.796875 15.328125 67.671875 10.40625 
Q 61.8125 4.734375 53.609375 2.359375 
Q 45.40625 0 29 0 
L 9.1875 0 
z
" id="DejaVuSans-Bold-68"/>
     <path d="M 0.484375 72.90625 
L 67.671875 72.90625 
L 67.671875 58.6875 
L 43.5 58.6875 
L 43.5 0 
L 24.703125 0 
L 24.703125 58.6875 
L 0.484375 58.6875 
z
" id="DejaVuSans-Bold-84"/>
    </defs>
    <use xlink:href="#DejaVuSans-Bold-32"/>
    <use x="34.814453" xlink:href="#DejaVuSans-Bold-32"/>
    <use x="69.628906" xlink:href="#DejaVuSans-Bold-32"/>
    <use x="104.443359" xlink:href="#DejaVuSans-Bold-32"/>
    <use x="139.257812" xlink:href="#DejaVuSans-Bold-32"/>
    <use x="174.072266" xlink:href="#DejaVuSans-Bold-32"/>
    <use x="208.886719" xlink:href="#DejaVuSans-Bold-32"/>
    <use x="243.701172" xlink:href="#DejaVuSans-Bold-32"/>
    <use x="278.515625" xlink:href="#DejaVuSans-Bold-32"/>
    <use x="313.330078" xlink:href="#DejaVuSans-Bold-32"/>
    <use x="348.144531" xlink:href="#DejaVuSans-Bold-32"/>
    <use x="382.958984" xlink:href="#DejaVuSans-Bold-67"/>
    <use x="456.347656" xlink:href="#DejaVuSans-Bold-79"/>
    <use x="541.357422" xlink:href="#DejaVuSans-Bold-82"/>
    <use x="618.359375" xlink:href="#DejaVuSans-Bold-79"/>
    <use x="703.369141" xlink:href="#DejaVuSans-Bold-78"/>
    <use x="787.060547" xlink:href="#DejaVuSans-Bold-65"/>
    <use x="864.453125" xlink:href="#DejaVuSans-Bold-68"/>
    <use x="947.460938" xlink:href="#DejaVuSans-Bold-65"/>
    <use x="1017.103516" xlink:href="#DejaVuSans-Bold-84"/>
    <use x="1077.566406" xlink:href="#DejaVuSans-Bold-65"/>
    <use x="1154.958984" xlink:href="#DejaVuSans-Bold-32"/>
    <use x="1189.773438" xlink:href="#DejaVuSans-Bold-32"/>
    <use x="1224.587891" xlink:href="#DejaVuSans-Bold-32"/>
    <use x="1259.402344" xlink:href="#DejaVuSans-Bold-32"/>
    <use x="1294.216797" xlink:href="#DejaVuSans-Bold-32"/>
    <use x="1329.03125" xlink:href="#DejaVuSans-Bold-32"/>
    <use x="1363.845703" xlink:href="#DejaVuSans-Bold-32"/>
    <use x="1398.660156" xlink:href="#DejaVuSans-Bold-32"/>
    <use x="1433.474609" xlink:href="#DejaVuSans-Bold-32"/>
    <use x="1468.289062" xlink:href="#DejaVuSans-Bold-32"/>
    <use x="1503.103516" xlink:href="#DejaVuSans-Bold-32"/>
   </g>
  </g>
  <g id="text_2">
   <!-- Rt=1,11 -->
   <g style="fill:#4169e1;opacity:0.5;" transform="translate(26.46875 141.12)scale(0.2 -0.2)">
    <defs>
     <path d="M 27.484375 70.21875 
L 27.484375 54.6875 
L 45.515625 54.6875 
L 45.515625 42.1875 
L 27.484375 42.1875 
L 27.484375 19 
Q 27.484375 15.1875 29 13.84375 
Q 30.515625 12.5 35.015625 12.5 
L 44 12.5 
L 44 0 
L 29 0 
Q 18.65625 0 14.328125 4.3125 
Q 10.015625 8.640625 10.015625 19 
L 10.015625 42.1875 
L 1.3125 42.1875 
L 1.3125 54.6875 
L 10.015625 54.6875 
L 10.015625 70.21875 
z
" id="DejaVuSans-Bold-116"/>
     <path d="M 10.59375 48.1875 
L 73.1875 48.1875 
L 73.1875 36.71875 
L 10.59375 36.71875 
z
M 10.59375 25.984375 
L 73.1875 25.984375 
L 73.1875 14.40625 
L 10.59375 14.40625 
z
" id="DejaVuSans-Bold-61"/>
     <path d="M 11.71875 12.984375 
L 28.328125 12.984375 
L 28.328125 60.109375 
L 11.28125 56.59375 
L 11.28125 69.390625 
L 28.21875 72.90625 
L 46.09375 72.90625 
L 46.09375 12.984375 
L 62.703125 12.984375 
L 62.703125 0 
L 11.71875 0 
z
" id="DejaVuSans-Bold-49"/>
     <path d="M 10.203125 18.890625 
L 27.78125 18.890625 
L 27.78125 4 
L 15.71875 -14.203125 
L 5.328125 -14.203125 
L 10.203125 4 
z
" id="DejaVuSans-Bold-44"/>
    </defs>
    <use xlink:href="#DejaVuSans-Bold-82"/>
    <use x="77.001953" xlink:href="#DejaVuSans-Bold-116"/>
    <use x="124.804688" xlink:href="#DejaVuSans-Bold-61"/>
    <use x="208.59375" xlink:href="#DejaVuSans-Bold-49"/>
    <use x="278.173828" xlink:href="#DejaVuSans-Bold-44"/>
    <use x="316.162109" xlink:href="#DejaVuSans-Bold-49"/>
    <use x="385.742188" xlink:href="#DejaVuSans-Bold-49"/>
   </g>
  </g>
 </g>
 <defs>
  <clipPath id="pfa9f159e3a">
   <rect height="144" width="144" x="0" y="0"/>
  </clipPath>
 </defs>
</svg>
