<?xml version="1.0" encoding="utf-8" standalone="no"?>
<!DOCTYPE svg PUBLIC "-//W3C//DTD SVG 1.1//EN"
  "http://www.w3.org/Graphics/SVG/1.1/DTD/svg11.dtd">
<!-- Created with matplotlib (https://matplotlib.org/) -->
<svg height="144pt" version="1.1" viewBox="0 0 144 144" width="144pt" xmlns="http://www.w3.org/2000/svg" xmlns:xlink="http://www.w3.org/1999/xlink">
 <metadata>
  <rdf:RDF xmlns:cc="http://creativecommons.org/ns#" xmlns:dc="http://purl.org/dc/elements/1.1/" xmlns:rdf="http://www.w3.org/1999/02/22-rdf-syntax-ns#">
   <cc:Work>
    <dc:type rdf:resource="http://purl.org/dc/dcmitype/StillImage"/>
    <dc:date>2022-01-06T17:37:15.991070</dc:date>
    <dc:format>image/svg+xml</dc:format>
    <dc:creator>
     <cc:Agent>
      <dc:title>Matplotlib v3.3.2, https://matplotlib.org/</dc:title>
     </cc:Agent>
    </dc:creator>
   </cc:Work>
  </rdf:RDF>
 </metadata>
 <defs>
  <style type="text/css">*{stroke-linecap:butt;stroke-linejoin:round;}</style>
 </defs>
 <g id="figure_1">
  <g id="patch_1">
   <path d="M 0 144 
L 144 144 
L 144 0 
L 0 0 
z
" style="fill:#ffffff;"/>
  </g>
  <g id="axes_1">
   <g id="patch_2">
    <path d="M 0 144 
L 144 144 
L 144 0 
L 0 0 
z
" style="fill:#ffffff;"/>
   </g>
   <g id="line2d_1">
    <path clip-path="url(#p3f9d2c0a78)" d="M 6.545455 119.768187 
L 7.308773 119.552994 
L 7.881262 119.220816 
L 8.45375 118.502499 
L 8.835409 117.654677 
L 9.407898 115.643476 
L 9.980387 112.723586 
L 11.507024 102.089773 
L 12.461171 91.998584 
L 13.03366 85.767269 
L 13.415319 83.899602 
L 13.606149 83.690884 
L 13.987808 84.958947 
L 14.369467 87.408088 
L 15.705274 97.316461 
L 16.468593 101.95401 
L 17.231911 105.626319 
L 18.186059 109.322372 
L 19.140207 112.016708 
L 19.712695 113.040224 
L 20.476014 114.183747 
L 21.048503 114.712772 
L 21.811821 115.009552 
L 22.575139 115.472314 
L 25.437583 117.901167 
L 27.345879 118.976916 
L 28.300027 119.058288 
L 29.826663 119.028934 
L 30.589981 118.997853 
L 34.024914 119.169446 
L 35.55155 118.857556 
L 36.505698 118.5066 
L 37.269017 118.202265 
L 37.841505 117.872892 
L 39.368142 117.494308 
L 40.32229 117.267028 
L 41.276438 117.384661 
L 42.421415 117.709285 
L 42.993904 117.48848 
L 43.566393 116.93118 
L 44.138882 115.867734 
L 44.71137 114.158493 
L 45.856348 109.567351 
L 47.764644 100.192967 
L 48.337132 98.25105 
L 49.863769 93.524576 
L 50.627087 89.854856 
L 51.581235 87.14649 
L 51.962894 86.552065 
L 52.535383 85.78799 
L 52.917042 85.991527 
L 53.68036 86.848198 
L 54.443679 88.019564 
L 55.206997 89.634699 
L 57.496952 95.407568 
L 58.069441 96.316041 
L 58.4511 96.531665 
L 59.405248 97.396538 
L 59.786907 97.575038 
L 60.168566 97.7939 
L 60.359396 97.783972 
L 60.931884 98.019022 
L 61.313544 97.977796 
L 62.076862 97.006298 
L 62.84018 95.124385 
L 63.221839 93.612423 
L 64.939306 84.584248 
L 65.320965 84.094505 
L 65.511794 84.198972 
L 65.702624 84.489278 
L 66.084283 85.799861 
L 66.465942 87.565436 
L 67.42009 92.311336 
L 67.992579 93.515079 
L 68.565068 94.085545 
L 68.755897 94.154398 
L 68.946727 94.100654 
L 69.328386 94.605721 
L 69.710045 95.058554 
L 70.664193 95.727875 
L 71.236682 96.534255 
L 71.80917 97.326822 
L 72.763318 98.498835 
L 73.335807 99.369104 
L 73.717466 99.775963 
L 74.099125 99.832514 
L 74.862444 99.230966 
L 75.053273 99.153264 
L 75.434932 99.209814 
L 75.816592 99.184776 
L 76.770739 99.575879 
L 77.152399 99.57739 
L 77.915717 99.684663 
L 78.297376 99.324425 
L 78.869865 98.638484 
L 79.251524 98.165578 
L 80.014842 97.426108 
L 80.778161 95.875942 
L 82.304797 91.537548 
L 83.068116 88.995595 
L 83.449775 88.136982 
L 83.831434 87.218365 
L 84.785582 85.924185 
L 85.358071 84.745265 
L 85.73973 84.181058 
L 86.121389 83.497922 
L 87.648025 80.134696 
L 87.838855 80.020948 
L 88.220514 80.165993 
L 88.411344 80.355069 
L 88.983832 81.678819 
L 89.556321 83.943633 
L 90.701299 89.018906 
L 91.464617 91.404375 
L 91.846276 92.58049 
L 92.800424 96.753333 
L 93.945402 102.827948 
L 94.51789 105.260686 
L 95.090379 106.989568 
L 95.662868 108.156186 
L 96.807845 110.448627 
L 98.906971 115.070204 
L 99.861118 116.379924 
L 100.624437 117.064138 
L 101.387755 117.638489 
L 101.387755 117.638489 
" style="fill:none;stroke:#add8e6;stroke-linecap:square;stroke-width:1.5;"/>
   </g>
   <g id="line2d_2">
    <path clip-path="url(#p3f9d2c0a78)" d="M 26.58256 116.708654 
L 28.490856 117.324466 
L 31.734959 117.521378 
L 35.55155 116.592782 
L 39.177312 114.018474 
L 39.940631 113.835791 
L 42.803074 113.229618 
L 43.566393 112.678415 
L 44.329711 111.837026 
L 45.474689 110.113134 
L 46.619666 108.05031 
L 47.764644 105.69591 
L 48.527962 103.71326 
L 49.29128 101.058404 
L 50.245428 96.830908 
L 51.772065 89.891956 
L 52.535383 87.124179 
L 53.298701 85.126514 
L 53.68036 84.587037 
L 54.06202 84.45223 
L 54.252849 84.559156 
L 54.634508 85.138241 
L 55.206997 86.803394 
L 57.115293 93.393663 
L 57.878611 94.645315 
L 58.4511 95.272609 
L 59.596077 95.989627 
L 59.977737 95.937011 
L 60.359396 95.726539 
L 60.741055 95.231027 
L 61.122714 94.338399 
L 61.886032 91.487977 
L 62.84018 86.806163 
L 63.603499 83.313714 
L 64.175987 81.83475 
L 64.557646 81.446292 
L 64.748476 81.430551 
L 65.130135 81.892255 
L 65.511794 82.694844 
L 67.801749 88.858592 
L 70.473363 95.264629 
L 73.717466 100.263149 
L 74.289955 100.773795 
L 74.480785 100.888238 
L 75.053273 100.529157 
L 75.625762 99.975222 
L 76.198251 99.063383 
L 77.152399 97.517482 
L 79.251524 94.935332 
L 79.824013 93.649847 
L 82.304797 87.080676 
L 82.877286 86.25145 
L 83.258945 86.069933 
L 84.022263 86.153663 
L 85.167241 86.554419 
L 85.73973 86.18257 
L 87.457196 84.829003 
L 88.029685 84.910952 
L 88.411344 85.266854 
L 89.365492 86.74276 
L 90.510469 89.023021 
L 91.273787 90.737265 
L 92.037106 92.950233 
L 94.51789 101.187483 
L 96.807845 106.693866 
L 97.189504 107.199275 
L 97.952823 109.171609 
L 98.334482 109.625378 
L 99.28863 111.522963 
L 100.433607 112.271625 
L 100.624437 112.147845 
L 100.815266 111.834568 
L 101.196926 110.545107 
L 101.578585 108.520022 
L 102.151073 103.886738 
L 103.67771 88.576408 
L 104.059369 86.564794 
L 104.250199 85.988532 
L 104.441028 85.784638 
L 104.631858 85.972383 
L 105.013517 86.517448 
L 105.395176 88.188806 
L 107.494302 99.872158 
L 108.06679 101.224894 
L 108.639279 101.886684 
L 109.211768 102.199923 
L 109.784257 102.198301 
L 110.929234 102.057993 
L 112.265041 102.115519 
L 113.410019 102.729037 
L 114.173337 103.387034 
L 116.844951 106.21128 
L 117.41744 106.726885 
L 117.989928 106.98315 
L 118.371588 106.96651 
L 118.753247 106.780359 
L 119.134906 106.422353 
L 119.707395 105.410521 
L 120.470713 103.467226 
L 121.234031 100.928976 
L 122.569838 95.400882 
L 124.096475 87.598833 
L 125.050623 81.644143 
L 126.004771 73.721387 
L 127.149748 62.031329 
L 128.103896 53.034043 
L 128.676385 49.145578 
L 129.248874 46.93059 
L 129.630533 46.218141 
L 130.012192 46.188322 
L 130.393851 46.763837 
L 130.77551 47.865013 
L 131.538829 51.175521 
L 132.492976 56.887592 
L 133.447124 62.460957 
L 134.019613 65.070186 
L 134.401272 66.028892 
L 134.592102 66.259413 
L 134.782931 66.2883 
L 134.973761 66.140155 
L 135.35542 64.88151 
L 135.737079 62.694302 
L 136.309568 57.686084 
L 137.454545 45 
L 137.454545 45 
" style="fill:none;stroke:#ff0000;stroke-linecap:square;stroke-width:1.5;"/>
   </g>
   <g id="patch_3">
    <path d="M 0 144 
L 0 -0 
" style="fill:none;stroke:#ffffff;stroke-linecap:square;stroke-linejoin:miter;stroke-width:0.8;"/>
   </g>
   <g id="patch_4">
    <path d="M 144 144 
L 144 -0 
" style="fill:none;stroke:#ffffff;stroke-linecap:square;stroke-linejoin:miter;stroke-width:0.8;"/>
   </g>
   <g id="patch_5">
    <path d="M 0 144 
L 144 144 
" style="fill:none;stroke:#ffffff;stroke-linecap:square;stroke-linejoin:miter;stroke-width:0.8;"/>
   </g>
   <g id="patch_6">
    <path d="M 0 0 
L 144 0 
" style="fill:none;stroke:#ffffff;stroke-linecap:square;stroke-linejoin:miter;stroke-width:0.8;"/>
   </g>
  </g>
  <g id="text_1">
   <g id="patch_7">
    <path d="M -64.84815 36.3681 
L 208.84815 36.3681 
L 208.84815 -7.65432 
L -64.84815 -7.65432 
z
" style="fill:#ffff00;stroke:#ffff00;stroke-linejoin:miter;"/>
   </g>
   <!--  -->
   <g transform="translate(72 9.45018)scale(0.1728 -0.1728)"/>
   <!--            CORONADATA            -->
   <g transform="translate(-60.87375 28.8)scale(0.1728 -0.1728)">
    <defs>
     <path id="DejaVuSans-Bold-32"/>
     <path d="M 67 4 
Q 61.8125 1.3125 56.203125 -0.046875 
Q 50.59375 -1.421875 44.484375 -1.421875 
Q 26.265625 -1.421875 15.625 8.765625 
Q 4.984375 18.953125 4.984375 36.375 
Q 4.984375 53.859375 15.625 64.03125 
Q 26.265625 74.21875 44.484375 74.21875 
Q 50.59375 74.21875 56.203125 72.84375 
Q 61.8125 71.484375 67 68.796875 
L 67 53.71875 
Q 61.765625 57.28125 56.6875 58.9375 
Q 51.609375 60.59375 46 60.59375 
Q 35.9375 60.59375 30.171875 54.140625 
Q 24.421875 47.703125 24.421875 36.375 
Q 24.421875 25.09375 30.171875 18.640625 
Q 35.9375 12.203125 46 12.203125 
Q 51.609375 12.203125 56.6875 13.859375 
Q 61.765625 15.53125 67 19.09375 
z
" id="DejaVuSans-Bold-67"/>
     <path d="M 42.484375 60.59375 
Q 33.890625 60.59375 29.15625 54.25 
Q 24.421875 47.90625 24.421875 36.375 
Q 24.421875 24.90625 29.15625 18.546875 
Q 33.890625 12.203125 42.484375 12.203125 
Q 51.125 12.203125 55.859375 18.546875 
Q 60.59375 24.90625 60.59375 36.375 
Q 60.59375 47.90625 55.859375 54.25 
Q 51.125 60.59375 42.484375 60.59375 
z
M 42.484375 74.21875 
Q 60.0625 74.21875 70.015625 64.15625 
Q 79.984375 54.109375 79.984375 36.375 
Q 79.984375 18.703125 70.015625 8.640625 
Q 60.0625 -1.421875 42.484375 -1.421875 
Q 24.953125 -1.421875 14.96875 8.640625 
Q 4.984375 18.703125 4.984375 36.375 
Q 4.984375 54.109375 14.96875 64.15625 
Q 24.953125 74.21875 42.484375 74.21875 
z
" id="DejaVuSans-Bold-79"/>
     <path d="M 35.890625 40.578125 
Q 41.796875 40.578125 44.359375 42.765625 
Q 46.921875 44.96875 46.921875 50 
Q 46.921875 54.984375 44.359375 57.125 
Q 41.796875 59.28125 35.890625 59.28125 
L 27.984375 59.28125 
L 27.984375 40.578125 
z
M 27.984375 27.59375 
L 27.984375 0 
L 9.1875 0 
L 9.1875 72.90625 
L 37.890625 72.90625 
Q 52.296875 72.90625 59 68.0625 
Q 65.71875 63.234375 65.71875 52.78125 
Q 65.71875 45.5625 62.21875 40.921875 
Q 58.734375 36.28125 51.703125 34.078125 
Q 55.5625 33.203125 58.609375 30.09375 
Q 61.671875 27 64.796875 20.703125 
L 75 0 
L 54.984375 0 
L 46.09375 18.109375 
Q 43.40625 23.578125 40.640625 25.578125 
Q 37.890625 27.59375 33.296875 27.59375 
z
" id="DejaVuSans-Bold-82"/>
     <path d="M 9.1875 72.90625 
L 30.171875 72.90625 
L 56.6875 22.90625 
L 56.6875 72.90625 
L 74.515625 72.90625 
L 74.515625 0 
L 53.515625 0 
L 27 50 
L 27 0 
L 9.1875 0 
z
" id="DejaVuSans-Bold-78"/>
     <path d="M 53.421875 13.28125 
L 24.03125 13.28125 
L 19.390625 0 
L 0.484375 0 
L 27.484375 72.90625 
L 49.90625 72.90625 
L 76.90625 0 
L 58.015625 0 
z
M 28.71875 26.8125 
L 48.6875 26.8125 
L 38.71875 55.8125 
z
" id="DejaVuSans-Bold-65"/>
     <path d="M 27.984375 58.6875 
L 27.984375 14.203125 
L 34.71875 14.203125 
Q 46.234375 14.203125 52.3125 19.921875 
Q 58.40625 25.640625 58.40625 36.53125 
Q 58.40625 47.359375 52.34375 53.015625 
Q 46.296875 58.6875 34.71875 58.6875 
z
M 9.1875 72.90625 
L 29 72.90625 
Q 45.609375 72.90625 53.734375 70.53125 
Q 61.859375 68.171875 67.671875 62.5 
Q 72.796875 57.5625 75.28125 51.109375 
Q 77.78125 44.671875 77.78125 36.53125 
Q 77.78125 28.265625 75.28125 21.796875 
Q 72.796875 15.328125 67.671875 10.40625 
Q 61.8125 4.734375 53.609375 2.359375 
Q 45.40625 0 29 0 
L 9.1875 0 
z
" id="DejaVuSans-Bold-68"/>
     <path d="M 0.484375 72.90625 
L 67.671875 72.90625 
L 67.671875 58.6875 
L 43.5 58.6875 
L 43.5 0 
L 24.703125 0 
L 24.703125 58.6875 
L 0.484375 58.6875 
z
" id="DejaVuSans-Bold-84"/>
    </defs>
    <use xlink:href="#DejaVuSans-Bold-32"/>
    <use x="34.814453" xlink:href="#DejaVuSans-Bold-32"/>
    <use x="69.628906" xlink:href="#DejaVuSans-Bold-32"/>
    <use x="104.443359" xlink:href="#DejaVuSans-Bold-32"/>
    <use x="139.257812" xlink:href="#DejaVuSans-Bold-32"/>
    <use x="174.072266" xlink:href="#DejaVuSans-Bold-32"/>
    <use x="208.886719" xlink:href="#DejaVuSans-Bold-32"/>
    <use x="243.701172" xlink:href="#DejaVuSans-Bold-32"/>
    <use x="278.515625" xlink:href="#DejaVuSans-Bold-32"/>
    <use x="313.330078" xlink:href="#DejaVuSans-Bold-32"/>
    <use x="348.144531" xlink:href="#DejaVuSans-Bold-32"/>
    <use x="382.958984" xlink:href="#DejaVuSans-Bold-67"/>
    <use x="456.347656" xlink:href="#DejaVuSans-Bold-79"/>
    <use x="541.357422" xlink:href="#DejaVuSans-Bold-82"/>
    <use x="618.359375" xlink:href="#DejaVuSans-Bold-79"/>
    <use x="703.369141" xlink:href="#DejaVuSans-Bold-78"/>
    <use x="787.060547" xlink:href="#DejaVuSans-Bold-65"/>
    <use x="864.453125" xlink:href="#DejaVuSans-Bold-68"/>
    <use x="947.460938" xlink:href="#DejaVuSans-Bold-65"/>
    <use x="1017.103516" xlink:href="#DejaVuSans-Bold-84"/>
    <use x="1077.566406" xlink:href="#DejaVuSans-Bold-65"/>
    <use x="1154.958984" xlink:href="#DejaVuSans-Bold-32"/>
    <use x="1189.773438" xlink:href="#DejaVuSans-Bold-32"/>
    <use x="1224.587891" xlink:href="#DejaVuSans-Bold-32"/>
    <use x="1259.402344" xlink:href="#DejaVuSans-Bold-32"/>
    <use x="1294.216797" xlink:href="#DejaVuSans-Bold-32"/>
    <use x="1329.03125" xlink:href="#DejaVuSans-Bold-32"/>
    <use x="1363.845703" xlink:href="#DejaVuSans-Bold-32"/>
    <use x="1398.660156" xlink:href="#DejaVuSans-Bold-32"/>
    <use x="1433.474609" xlink:href="#DejaVuSans-Bold-32"/>
    <use x="1468.289062" xlink:href="#DejaVuSans-Bold-32"/>
    <use x="1503.103516" xlink:href="#DejaVuSans-Bold-32"/>
   </g>
  </g>
  <g id="text_2">
   <!-- Rt=1,02 -->
   <g style="fill:#4169e1;opacity:0.5;" transform="translate(26.46875 141.12)scale(0.2 -0.2)">
    <defs>
     <path d="M 27.484375 70.21875 
L 27.484375 54.6875 
L 45.515625 54.6875 
L 45.515625 42.1875 
L 27.484375 42.1875 
L 27.484375 19 
Q 27.484375 15.1875 29 13.84375 
Q 30.515625 12.5 35.015625 12.5 
L 44 12.5 
L 44 0 
L 29 0 
Q 18.65625 0 14.328125 4.3125 
Q 10.015625 8.640625 10.015625 19 
L 10.015625 42.1875 
L 1.3125 42.1875 
L 1.3125 54.6875 
L 10.015625 54.6875 
L 10.015625 70.21875 
z
" id="DejaVuSans-Bold-116"/>
     <path d="M 10.59375 48.1875 
L 73.1875 48.1875 
L 73.1875 36.71875 
L 10.59375 36.71875 
z
M 10.59375 25.984375 
L 73.1875 25.984375 
L 73.1875 14.40625 
L 10.59375 14.40625 
z
" id="DejaVuSans-Bold-61"/>
     <path d="M 11.71875 12.984375 
L 28.328125 12.984375 
L 28.328125 60.109375 
L 11.28125 56.59375 
L 11.28125 69.390625 
L 28.21875 72.90625 
L 46.09375 72.90625 
L 46.09375 12.984375 
L 62.703125 12.984375 
L 62.703125 0 
L 11.71875 0 
z
" id="DejaVuSans-Bold-49"/>
     <path d="M 10.203125 18.890625 
L 27.78125 18.890625 
L 27.78125 4 
L 15.71875 -14.203125 
L 5.328125 -14.203125 
L 10.203125 4 
z
" id="DejaVuSans-Bold-44"/>
     <path d="M 46 36.53125 
Q 46 50.203125 43.4375 55.78125 
Q 40.875 61.375 34.8125 61.375 
Q 28.765625 61.375 26.171875 55.78125 
Q 23.578125 50.203125 23.578125 36.53125 
Q 23.578125 22.703125 26.171875 17.03125 
Q 28.765625 11.375 34.8125 11.375 
Q 40.828125 11.375 43.40625 17.03125 
Q 46 22.703125 46 36.53125 
z
M 64.796875 36.375 
Q 64.796875 18.265625 56.984375 8.421875 
Q 49.171875 -1.421875 34.8125 -1.421875 
Q 20.40625 -1.421875 12.59375 8.421875 
Q 4.78125 18.265625 4.78125 36.375 
Q 4.78125 54.546875 12.59375 64.375 
Q 20.40625 74.21875 34.8125 74.21875 
Q 49.171875 74.21875 56.984375 64.375 
Q 64.796875 54.546875 64.796875 36.375 
z
" id="DejaVuSans-Bold-48"/>
     <path d="M 28.8125 13.8125 
L 60.890625 13.8125 
L 60.890625 0 
L 7.90625 0 
L 7.90625 13.8125 
L 34.515625 37.3125 
Q 38.09375 40.53125 39.796875 43.609375 
Q 41.5 46.6875 41.5 50 
Q 41.5 55.125 38.0625 58.25 
Q 34.625 61.375 28.90625 61.375 
Q 24.515625 61.375 19.28125 59.5 
Q 14.0625 57.625 8.109375 53.90625 
L 8.109375 69.921875 
Q 14.453125 72.015625 20.65625 73.109375 
Q 26.859375 74.21875 32.8125 74.21875 
Q 45.90625 74.21875 53.15625 68.453125 
Q 60.40625 62.703125 60.40625 52.390625 
Q 60.40625 46.4375 57.328125 41.28125 
Q 54.25 36.140625 44.390625 27.484375 
z
" id="DejaVuSans-Bold-50"/>
    </defs>
    <use xlink:href="#DejaVuSans-Bold-82"/>
    <use x="77.001953" xlink:href="#DejaVuSans-Bold-116"/>
    <use x="124.804688" xlink:href="#DejaVuSans-Bold-61"/>
    <use x="208.59375" xlink:href="#DejaVuSans-Bold-49"/>
    <use x="278.173828" xlink:href="#DejaVuSans-Bold-44"/>
    <use x="316.162109" xlink:href="#DejaVuSans-Bold-48"/>
    <use x="385.742188" xlink:href="#DejaVuSans-Bold-50"/>
   </g>
  </g>
 </g>
 <defs>
  <clipPath id="p3f9d2c0a78">
   <rect height="144" width="144" x="0" y="0"/>
  </clipPath>
 </defs>
</svg>
