<?xml version="1.0" encoding="utf-8" standalone="no"?>
<!DOCTYPE svg PUBLIC "-//W3C//DTD SVG 1.1//EN"
  "http://www.w3.org/Graphics/SVG/1.1/DTD/svg11.dtd">
<!-- Created with matplotlib (https://matplotlib.org/) -->
<svg height="144pt" version="1.1" viewBox="0 0 144 144" width="144pt" xmlns="http://www.w3.org/2000/svg" xmlns:xlink="http://www.w3.org/1999/xlink">
 <metadata>
  <rdf:RDF xmlns:cc="http://creativecommons.org/ns#" xmlns:dc="http://purl.org/dc/elements/1.1/" xmlns:rdf="http://www.w3.org/1999/02/22-rdf-syntax-ns#">
   <cc:Work>
    <dc:type rdf:resource="http://purl.org/dc/dcmitype/StillImage"/>
    <dc:date>2021-09-22T11:41:19.306250</dc:date>
    <dc:format>image/svg+xml</dc:format>
    <dc:creator>
     <cc:Agent>
      <dc:title>Matplotlib v3.3.2, https://matplotlib.org/</dc:title>
     </cc:Agent>
    </dc:creator>
   </cc:Work>
  </rdf:RDF>
 </metadata>
 <defs>
  <style type="text/css">*{stroke-linecap:butt;stroke-linejoin:round;}</style>
 </defs>
 <g id="figure_1">
  <g id="patch_1">
   <path d="M 0 144 
L 144 144 
L 144 0 
L 0 0 
z
" style="fill:#ffffff;"/>
  </g>
  <g id="axes_1">
   <g id="patch_2">
    <path d="M 0 144 
L 144 144 
L 144 0 
L 0 0 
z
" style="fill:#ffffff;"/>
   </g>
   <g id="line2d_1">
    <path clip-path="url(#pef1b5be4df)" d="M 6.545455 119.565123 
L 7.226091 119.30436 
L 7.906728 118.809556 
L 8.360485 118.176677 
L 8.814243 117.190714 
L 9.268001 115.600216 
L 9.721758 113.303145 
L 10.402395 108.299636 
L 10.856153 103.953705 
L 11.536789 96.491159 
L 12.444304 86.400729 
L 13.35182 71.750169 
L 14.259335 55.779997 
L 14.713093 52.276286 
L 14.939972 51.884735 
L 15.16685 52.803482 
L 15.620608 56.141585 
L 17.889397 82.173033 
L 19.023791 91.394925 
L 19.931306 97.396545 
L 20.611943 101.09259 
L 21.519458 105.023485 
L 22.200095 106.943582 
L 23.10761 109.088811 
L 23.788246 110.081253 
L 24.468883 110.433527 
L 25.603277 111.506141 
L 28.325823 115.168174 
L 29.913975 116.941288 
L 31.502127 118.150358 
L 32.182764 118.229721 
L 34.224673 118.178297 
L 34.90531 118.099339 
L 36.266583 118.318397 
L 36.947219 118.44392 
L 38.308492 118.607504 
L 40.350402 118.270617 
L 42.846069 116.793899 
L 43.299827 116.378054 
L 43.526706 116.098664 
L 46.929888 114.876232 
L 47.383646 114.851937 
L 49.198677 115.702659 
L 49.652434 115.501822 
L 50.106192 115.005399 
L 50.55995 114.242948 
L 51.240586 112.247942 
L 51.921223 109.041436 
L 53.282496 100.428533 
L 55.551284 82.842354 
L 56.005042 80.226211 
L 57.820072 71.854636 
L 58.27383 68.377649 
L 58.954467 63.448239 
L 59.635103 60.419085 
L 60.542619 57.252261 
L 61.223255 55.818869 
L 61.450134 55.922122 
L 61.903892 56.547712 
L 63.265165 59.384937 
L 64.17268 62.152112 
L 65.760832 68.747334 
L 66.21459 70.940343 
L 66.668347 72.348225 
L 67.575863 75.204886 
L 67.802741 75.569308 
L 68.02962 75.672155 
L 68.483378 76.335808 
L 68.710257 76.831421 
L 68.937136 77.034283 
L 69.390893 77.596302 
L 69.617772 77.697935 
L 70.298409 78.341747 
L 70.525288 78.323121 
L 70.979045 78.69807 
L 71.432803 78.7912 
L 71.659682 78.686732 
L 72.567197 76.864219 
L 73.474712 73.333783 
L 73.92847 70.497368 
L 75.743501 54.796869 
L 75.97038 53.560669 
L 76.424137 52.641922 
L 76.651016 52.8379 
L 76.877895 53.382508 
L 77.331653 55.841139 
L 77.78541 59.153327 
L 78.919805 68.056553 
L 79.600441 70.314752 
L 80.281078 71.384937 
L 80.507957 71.514104 
L 80.734835 71.413281 
L 80.961714 71.770819 
L 81.415472 72.926846 
L 82.096108 73.642732 
L 82.549866 73.972736 
L 84.591776 78.220678 
L 84.818654 78.541369 
L 86.406806 82.060062 
L 86.633685 82.202591 
L 86.860564 82.166149 
L 87.768079 81.037657 
L 87.994958 80.891888 
L 88.448716 80.997975 
L 88.675595 80.904441 
L 89.129352 81.097179 
L 89.809989 81.653934 
L 90.036868 81.684708 
L 90.263747 81.594817 
L 90.717504 81.76974 
L 90.944383 82.007423 
L 91.171262 82.062087 
L 91.62502 81.653529 
L 93.213172 78.72034 
L 93.893808 77.651775 
L 94.574445 75.58186 
L 95.935718 70.168174 
L 96.389475 68.099069 
L 97.070112 64.136996 
L 97.750748 61.096909 
L 98.431385 58.502227 
L 99.3389 56.644891 
L 99.792658 55.273046 
L 100.246416 53.862735 
L 100.473294 53.458631 
L 101.607689 49.944797 
L 102.288325 47.363882 
L 102.968962 45.213389 
L 103.195841 45 
L 103.422719 45.054258 
L 103.876477 45.626805 
L 104.557114 48.110136 
L 105.23775 52.358888 
L 106.599023 61.880011 
L 107.506539 66.355109 
L 107.960296 68.561479 
L 108.867812 74.595492 
L 111.363479 93.638143 
L 112.044115 96.438926 
L 112.724752 98.440815 
L 113.632267 101.277635 
L 114.99354 106.407477 
L 115.674177 108.72115 
L 116.808571 111.93049 
L 117.716086 113.595897 
L 118.169844 114.213794 
L 119.304238 115.569847 
L 119.304238 115.569847 
" style="fill:none;stroke:#add8e6;stroke-linecap:square;stroke-width:1.5;"/>
   </g>
   <g id="line2d_2">
    <path clip-path="url(#pef1b5be4df)" d="M 30.367733 116.083492 
L 32.636521 116.927141 
L 33.770915 117.164737 
L 33.997794 117.231732 
L 36.493461 117.318857 
L 38.535371 116.848315 
L 38.76225 116.690636 
L 39.896644 116.501718 
L 40.123523 116.293634 
L 41.031038 115.809656 
L 44.6611 111.954843 
L 45.568615 111.47822 
L 47.156767 111.227859 
L 48.291161 111.203444 
L 49.198677 111.091713 
L 49.879313 110.668201 
L 50.333071 110.171362 
L 51.013707 109.121126 
L 51.694344 107.677836 
L 53.509375 102.687794 
L 55.097526 97.522712 
L 56.005042 93.939466 
L 56.685678 90.533743 
L 57.593194 84.607277 
L 58.727588 75.576794 
L 60.088861 65.058297 
L 60.996376 59.398363 
L 61.903892 54.935602 
L 62.357649 53.444999 
L 62.584528 52.954893 
L 62.811407 52.730271 
L 63.038286 52.725853 
L 63.265165 52.886344 
L 63.718922 53.858022 
L 64.17268 55.801391 
L 65.307074 62.779028 
L 66.21459 68.006967 
L 66.895226 70.617298 
L 67.575863 72.391751 
L 68.483378 74.184637 
L 69.164014 75.395919 
L 69.617772 75.887421 
L 69.844651 75.973397 
L 70.298409 75.848734 
L 70.525288 75.659112 
L 70.979045 74.796922 
L 71.432803 73.038884 
L 72.340318 67.492489 
L 73.247834 60.204371 
L 74.382228 51.181923 
L 74.835986 48.956443 
L 75.289743 47.841467 
L 75.516622 47.606475 
L 75.743501 47.670425 
L 76.197259 48.759697 
L 76.651016 50.586924 
L 78.466047 59.979064 
L 79.146683 61.933447 
L 81.415472 69.797354 
L 85.272412 80.328764 
L 85.953049 81.979479 
L 86.860564 83.73657 
L 87.314322 84.216257 
L 87.994958 83.436805 
L 88.675595 82.270549 
L 89.129352 81.148567 
L 90.036868 78.547309 
L 90.490625 77.616792 
L 91.171262 76.69759 
L 91.851899 75.747615 
L 92.759414 74.029728 
L 93.44005 71.958097 
L 94.574445 67.1968 
L 96.843233 57.737023 
L 97.296991 56.713667 
L 97.750748 56.326113 
L 98.204506 56.405297 
L 99.112021 56.863224 
L 100.019537 57.524716 
L 100.700173 56.750751 
L 102.515204 54.329403 
L 102.968962 54.239051 
L 103.195841 54.405569 
L 103.422719 54.733358 
L 104.103356 56.777637 
L 105.691508 63.041556 
L 106.372144 65.938739 
L 107.052781 67.99961 
L 107.960296 71.652697 
L 108.414054 73.776311 
L 111.363479 89.231822 
L 112.270994 92.6762 
L 113.17851 95.962048 
L 113.859146 98.468915 
L 114.312904 99.316243 
L 115.220419 102.552123 
L 115.674177 103.295034 
L 116.808571 106.534623 
L 117.489207 107.317315 
L 117.942965 107.806872 
L 118.169844 107.849519 
L 118.396723 107.656035 
L 118.623602 107.113454 
L 119.077359 104.754082 
L 119.531117 101.20692 
L 119.984875 96.03192 
L 120.665511 85.196862 
L 121.799905 66.0909 
L 122.480542 58.910943 
L 122.707421 57.503261 
L 122.9343 56.827509 
L 123.161179 56.956744 
L 123.614936 57.820206 
L 124.068694 60.468548 
L 124.976209 69.133442 
L 126.110603 79.249733 
L 126.79124 82.777578 
L 127.244998 84.237567 
L 127.698755 85.111562 
L 128.379392 85.812776 
L 128.83315 85.965076 
L 129.513786 85.813649 
L 130.875059 85.573787 
L 131.782574 85.481261 
L 132.236332 85.741389 
L 132.916969 86.544842 
L 134.278242 88.615491 
L 135.185757 90.331869 
L 137.227667 93.079495 
L 137.454545 93.378765 
L 137.454545 93.378765 
" style="fill:none;stroke:#ff0000;stroke-linecap:square;stroke-width:1.5;"/>
   </g>
   <g id="patch_3">
    <path d="M 0 144 
L 0 0 
" style="fill:none;stroke:#ffffff;stroke-linecap:square;stroke-linejoin:miter;stroke-width:0.8;"/>
   </g>
   <g id="patch_4">
    <path d="M 144 144 
L 144 0 
" style="fill:none;stroke:#ffffff;stroke-linecap:square;stroke-linejoin:miter;stroke-width:0.8;"/>
   </g>
   <g id="patch_5">
    <path d="M -0 144 
L 144 144 
" style="fill:none;stroke:#ffffff;stroke-linecap:square;stroke-linejoin:miter;stroke-width:0.8;"/>
   </g>
   <g id="patch_6">
    <path d="M -0 0 
L 144 0 
" style="fill:none;stroke:#ffffff;stroke-linecap:square;stroke-linejoin:miter;stroke-width:0.8;"/>
   </g>
  </g>
  <g id="text_1">
   <g id="patch_7">
    <path d="M -64.84815 36.3681 
L 208.84815 36.3681 
L 208.84815 -7.65432 
L -64.84815 -7.65432 
z
" style="fill:#ffff00;stroke:#ffff00;stroke-linejoin:miter;"/>
   </g>
   <!--  -->
   <g transform="translate(72 9.45018)scale(0.1728 -0.1728)"/>
   <!--            CORONADATA            -->
   <g transform="translate(-60.87375 28.8)scale(0.1728 -0.1728)">
    <defs>
     <path id="DejaVuSans-Bold-32"/>
     <path d="M 67 4 
Q 61.8125 1.3125 56.203125 -0.046875 
Q 50.59375 -1.421875 44.484375 -1.421875 
Q 26.265625 -1.421875 15.625 8.765625 
Q 4.984375 18.953125 4.984375 36.375 
Q 4.984375 53.859375 15.625 64.03125 
Q 26.265625 74.21875 44.484375 74.21875 
Q 50.59375 74.21875 56.203125 72.84375 
Q 61.8125 71.484375 67 68.796875 
L 67 53.71875 
Q 61.765625 57.28125 56.6875 58.9375 
Q 51.609375 60.59375 46 60.59375 
Q 35.9375 60.59375 30.171875 54.140625 
Q 24.421875 47.703125 24.421875 36.375 
Q 24.421875 25.09375 30.171875 18.640625 
Q 35.9375 12.203125 46 12.203125 
Q 51.609375 12.203125 56.6875 13.859375 
Q 61.765625 15.53125 67 19.09375 
z
" id="DejaVuSans-Bold-67"/>
     <path d="M 42.484375 60.59375 
Q 33.890625 60.59375 29.15625 54.25 
Q 24.421875 47.90625 24.421875 36.375 
Q 24.421875 24.90625 29.15625 18.546875 
Q 33.890625 12.203125 42.484375 12.203125 
Q 51.125 12.203125 55.859375 18.546875 
Q 60.59375 24.90625 60.59375 36.375 
Q 60.59375 47.90625 55.859375 54.25 
Q 51.125 60.59375 42.484375 60.59375 
z
M 42.484375 74.21875 
Q 60.0625 74.21875 70.015625 64.15625 
Q 79.984375 54.109375 79.984375 36.375 
Q 79.984375 18.703125 70.015625 8.640625 
Q 60.0625 -1.421875 42.484375 -1.421875 
Q 24.953125 -1.421875 14.96875 8.640625 
Q 4.984375 18.703125 4.984375 36.375 
Q 4.984375 54.109375 14.96875 64.15625 
Q 24.953125 74.21875 42.484375 74.21875 
z
" id="DejaVuSans-Bold-79"/>
     <path d="M 35.890625 40.578125 
Q 41.796875 40.578125 44.359375 42.765625 
Q 46.921875 44.96875 46.921875 50 
Q 46.921875 54.984375 44.359375 57.125 
Q 41.796875 59.28125 35.890625 59.28125 
L 27.984375 59.28125 
L 27.984375 40.578125 
z
M 27.984375 27.59375 
L 27.984375 0 
L 9.1875 0 
L 9.1875 72.90625 
L 37.890625 72.90625 
Q 52.296875 72.90625 59 68.0625 
Q 65.71875 63.234375 65.71875 52.78125 
Q 65.71875 45.5625 62.21875 40.921875 
Q 58.734375 36.28125 51.703125 34.078125 
Q 55.5625 33.203125 58.609375 30.09375 
Q 61.671875 27 64.796875 20.703125 
L 75 0 
L 54.984375 0 
L 46.09375 18.109375 
Q 43.40625 23.578125 40.640625 25.578125 
Q 37.890625 27.59375 33.296875 27.59375 
z
" id="DejaVuSans-Bold-82"/>
     <path d="M 9.1875 72.90625 
L 30.171875 72.90625 
L 56.6875 22.90625 
L 56.6875 72.90625 
L 74.515625 72.90625 
L 74.515625 0 
L 53.515625 0 
L 27 50 
L 27 0 
L 9.1875 0 
z
" id="DejaVuSans-Bold-78"/>
     <path d="M 53.421875 13.28125 
L 24.03125 13.28125 
L 19.390625 0 
L 0.484375 0 
L 27.484375 72.90625 
L 49.90625 72.90625 
L 76.90625 0 
L 58.015625 0 
z
M 28.71875 26.8125 
L 48.6875 26.8125 
L 38.71875 55.8125 
z
" id="DejaVuSans-Bold-65"/>
     <path d="M 27.984375 58.6875 
L 27.984375 14.203125 
L 34.71875 14.203125 
Q 46.234375 14.203125 52.3125 19.921875 
Q 58.40625 25.640625 58.40625 36.53125 
Q 58.40625 47.359375 52.34375 53.015625 
Q 46.296875 58.6875 34.71875 58.6875 
z
M 9.1875 72.90625 
L 29 72.90625 
Q 45.609375 72.90625 53.734375 70.53125 
Q 61.859375 68.171875 67.671875 62.5 
Q 72.796875 57.5625 75.28125 51.109375 
Q 77.78125 44.671875 77.78125 36.53125 
Q 77.78125 28.265625 75.28125 21.796875 
Q 72.796875 15.328125 67.671875 10.40625 
Q 61.8125 4.734375 53.609375 2.359375 
Q 45.40625 0 29 0 
L 9.1875 0 
z
" id="DejaVuSans-Bold-68"/>
     <path d="M 0.484375 72.90625 
L 67.671875 72.90625 
L 67.671875 58.6875 
L 43.5 58.6875 
L 43.5 0 
L 24.703125 0 
L 24.703125 58.6875 
L 0.484375 58.6875 
z
" id="DejaVuSans-Bold-84"/>
    </defs>
    <use xlink:href="#DejaVuSans-Bold-32"/>
    <use x="34.814453" xlink:href="#DejaVuSans-Bold-32"/>
    <use x="69.628906" xlink:href="#DejaVuSans-Bold-32"/>
    <use x="104.443359" xlink:href="#DejaVuSans-Bold-32"/>
    <use x="139.257812" xlink:href="#DejaVuSans-Bold-32"/>
    <use x="174.072266" xlink:href="#DejaVuSans-Bold-32"/>
    <use x="208.886719" xlink:href="#DejaVuSans-Bold-32"/>
    <use x="243.701172" xlink:href="#DejaVuSans-Bold-32"/>
    <use x="278.515625" xlink:href="#DejaVuSans-Bold-32"/>
    <use x="313.330078" xlink:href="#DejaVuSans-Bold-32"/>
    <use x="348.144531" xlink:href="#DejaVuSans-Bold-32"/>
    <use x="382.958984" xlink:href="#DejaVuSans-Bold-67"/>
    <use x="456.347656" xlink:href="#DejaVuSans-Bold-79"/>
    <use x="541.357422" xlink:href="#DejaVuSans-Bold-82"/>
    <use x="618.359375" xlink:href="#DejaVuSans-Bold-79"/>
    <use x="703.369141" xlink:href="#DejaVuSans-Bold-78"/>
    <use x="787.060547" xlink:href="#DejaVuSans-Bold-65"/>
    <use x="864.453125" xlink:href="#DejaVuSans-Bold-68"/>
    <use x="947.460938" xlink:href="#DejaVuSans-Bold-65"/>
    <use x="1017.103516" xlink:href="#DejaVuSans-Bold-84"/>
    <use x="1077.566406" xlink:href="#DejaVuSans-Bold-65"/>
    <use x="1154.958984" xlink:href="#DejaVuSans-Bold-32"/>
    <use x="1189.773438" xlink:href="#DejaVuSans-Bold-32"/>
    <use x="1224.587891" xlink:href="#DejaVuSans-Bold-32"/>
    <use x="1259.402344" xlink:href="#DejaVuSans-Bold-32"/>
    <use x="1294.216797" xlink:href="#DejaVuSans-Bold-32"/>
    <use x="1329.03125" xlink:href="#DejaVuSans-Bold-32"/>
    <use x="1363.845703" xlink:href="#DejaVuSans-Bold-32"/>
    <use x="1398.660156" xlink:href="#DejaVuSans-Bold-32"/>
    <use x="1433.474609" xlink:href="#DejaVuSans-Bold-32"/>
    <use x="1468.289062" xlink:href="#DejaVuSans-Bold-32"/>
    <use x="1503.103516" xlink:href="#DejaVuSans-Bold-32"/>
   </g>
  </g>
  <g id="text_2">
   <!-- Rt=0,91 -->
   <g style="fill:#4169e1;opacity:0.5;" transform="translate(26.46875 141.12)scale(0.2 -0.2)">
    <defs>
     <path d="M 27.484375 70.21875 
L 27.484375 54.6875 
L 45.515625 54.6875 
L 45.515625 42.1875 
L 27.484375 42.1875 
L 27.484375 19 
Q 27.484375 15.1875 29 13.84375 
Q 30.515625 12.5 35.015625 12.5 
L 44 12.5 
L 44 0 
L 29 0 
Q 18.65625 0 14.328125 4.3125 
Q 10.015625 8.640625 10.015625 19 
L 10.015625 42.1875 
L 1.3125 42.1875 
L 1.3125 54.6875 
L 10.015625 54.6875 
L 10.015625 70.21875 
z
" id="DejaVuSans-Bold-116"/>
     <path d="M 10.59375 48.1875 
L 73.1875 48.1875 
L 73.1875 36.71875 
L 10.59375 36.71875 
z
M 10.59375 25.984375 
L 73.1875 25.984375 
L 73.1875 14.40625 
L 10.59375 14.40625 
z
" id="DejaVuSans-Bold-61"/>
     <path d="M 46 36.53125 
Q 46 50.203125 43.4375 55.78125 
Q 40.875 61.375 34.8125 61.375 
Q 28.765625 61.375 26.171875 55.78125 
Q 23.578125 50.203125 23.578125 36.53125 
Q 23.578125 22.703125 26.171875 17.03125 
Q 28.765625 11.375 34.8125 11.375 
Q 40.828125 11.375 43.40625 17.03125 
Q 46 22.703125 46 36.53125 
z
M 64.796875 36.375 
Q 64.796875 18.265625 56.984375 8.421875 
Q 49.171875 -1.421875 34.8125 -1.421875 
Q 20.40625 -1.421875 12.59375 8.421875 
Q 4.78125 18.265625 4.78125 36.375 
Q 4.78125 54.546875 12.59375 64.375 
Q 20.40625 74.21875 34.8125 74.21875 
Q 49.171875 74.21875 56.984375 64.375 
Q 64.796875 54.546875 64.796875 36.375 
z
" id="DejaVuSans-Bold-48"/>
     <path d="M 10.203125 18.890625 
L 27.78125 18.890625 
L 27.78125 4 
L 15.71875 -14.203125 
L 5.328125 -14.203125 
L 10.203125 4 
z
" id="DejaVuSans-Bold-44"/>
     <path d="M 10.015625 1.609375 
L 10.015625 15.09375 
Q 14.5 12.984375 18.59375 11.9375 
Q 22.703125 10.890625 26.703125 10.890625 
Q 35.109375 10.890625 39.796875 15.546875 
Q 44.484375 20.21875 45.3125 29.390625 
Q 42 26.953125 38.234375 25.734375 
Q 34.46875 24.515625 30.078125 24.515625 
Q 18.890625 24.515625 12.03125 31.03125 
Q 5.171875 37.546875 5.171875 48.1875 
Q 5.171875 59.96875 12.8125 67.046875 
Q 20.453125 74.125 33.296875 74.125 
Q 47.5625 74.125 55.375 64.5 
Q 63.1875 54.890625 63.1875 37.3125 
Q 63.1875 19.234375 54.046875 8.90625 
Q 44.921875 -1.421875 29 -1.421875 
Q 23.875 -1.421875 19.1875 -0.65625 
Q 14.5 0.09375 10.015625 1.609375 
z
M 33.203125 36.71875 
Q 38.140625 36.71875 40.625 39.90625 
Q 43.109375 43.109375 43.109375 49.515625 
Q 43.109375 55.859375 40.625 59.078125 
Q 38.140625 62.3125 33.203125 62.3125 
Q 28.265625 62.3125 25.78125 59.078125 
Q 23.296875 55.859375 23.296875 49.515625 
Q 23.296875 43.109375 25.78125 39.90625 
Q 28.265625 36.71875 33.203125 36.71875 
z
" id="DejaVuSans-Bold-57"/>
     <path d="M 11.71875 12.984375 
L 28.328125 12.984375 
L 28.328125 60.109375 
L 11.28125 56.59375 
L 11.28125 69.390625 
L 28.21875 72.90625 
L 46.09375 72.90625 
L 46.09375 12.984375 
L 62.703125 12.984375 
L 62.703125 0 
L 11.71875 0 
z
" id="DejaVuSans-Bold-49"/>
    </defs>
    <use xlink:href="#DejaVuSans-Bold-82"/>
    <use x="77.001953" xlink:href="#DejaVuSans-Bold-116"/>
    <use x="124.804688" xlink:href="#DejaVuSans-Bold-61"/>
    <use x="208.59375" xlink:href="#DejaVuSans-Bold-48"/>
    <use x="278.173828" xlink:href="#DejaVuSans-Bold-44"/>
    <use x="316.162109" xlink:href="#DejaVuSans-Bold-57"/>
    <use x="385.742188" xlink:href="#DejaVuSans-Bold-49"/>
   </g>
  </g>
 </g>
 <defs>
  <clipPath id="pef1b5be4df">
   <rect height="144" width="144" x="0" y="0"/>
  </clipPath>
 </defs>
</svg>
