<?xml version="1.0" encoding="utf-8" standalone="no"?>
<!DOCTYPE svg PUBLIC "-//W3C//DTD SVG 1.1//EN"
  "http://www.w3.org/Graphics/SVG/1.1/DTD/svg11.dtd">
<!-- Created with matplotlib (https://matplotlib.org/) -->
<svg height="144pt" version="1.1" viewBox="0 0 144 144" width="144pt" xmlns="http://www.w3.org/2000/svg" xmlns:xlink="http://www.w3.org/1999/xlink">
 <metadata>
  <rdf:RDF xmlns:cc="http://creativecommons.org/ns#" xmlns:dc="http://purl.org/dc/elements/1.1/" xmlns:rdf="http://www.w3.org/1999/02/22-rdf-syntax-ns#">
   <cc:Work>
    <dc:type rdf:resource="http://purl.org/dc/dcmitype/StillImage"/>
    <dc:date>2021-04-08T15:31:27.785468</dc:date>
    <dc:format>image/svg+xml</dc:format>
    <dc:creator>
     <cc:Agent>
      <dc:title>Matplotlib v3.3.2, https://matplotlib.org/</dc:title>
     </cc:Agent>
    </dc:creator>
   </cc:Work>
  </rdf:RDF>
 </metadata>
 <defs>
  <style type="text/css">*{stroke-linecap:butt;stroke-linejoin:round;}</style>
 </defs>
 <g id="figure_1">
  <g id="patch_1">
   <path d="M 0 144 
L 144 144 
L 144 0 
L 0 0 
z
" style="fill:#ffffff;"/>
  </g>
  <g id="axes_1">
   <g id="patch_2">
    <path d="M 0 144 
L 144 144 
L 144 0 
L 0 0 
z
" style="fill:#ffffff;"/>
   </g>
   <g id="line2d_1">
    <path clip-path="url(#pc89fd0c175)" d="M 6.545455 119.502031 
L 7.496368 119.20928 
L 8.447282 118.669429 
L 9.081224 117.987182 
L 9.715166 117.025586 
L 10.349109 115.478908 
L 10.983051 113.231554 
L 11.616993 110.158719 
L 12.567907 103.887405 
L 13.201849 98.422306 
L 14.152762 91.584337 
L 14.786705 85.914858 
L 16.054589 70.493724 
L 17.322474 53.507902 
L 17.639445 51.008841 
L 17.956416 49.657749 
L 18.273388 49.126274 
L 18.590359 49.983586 
L 19.224301 53.33912 
L 22.394013 80.380237 
L 23.978869 90.102575 
L 24.929782 94.829305 
L 25.880696 98.993987 
L 27.14858 103.417914 
L 27.782523 105.158504 
L 29.367378 108.154277 
L 30.318292 109.380982 
L 30.635263 109.657399 
L 31.586177 110.01004 
L 33.488004 111.440288 
L 37.9256 115.873849 
L 40.77834 117.864888 
L 41.412283 118.07262 
L 42.363196 118.135023 
L 45.215937 118.120784 
L 46.16685 118.031576 
L 48.068677 118.241402 
L 49.336562 118.4328 
L 50.604446 118.599906 
L 54.4081 117.942369 
L 57.894783 116.268371 
L 58.211754 115.976458 
L 62.966322 114.680649 
L 63.600264 114.629135 
L 65.18512 115.257355 
L 65.819062 115.526652 
L 66.453005 115.462993 
L 66.769976 115.370854 
L 67.403918 114.880423 
L 68.03786 114.10478 
L 68.988774 112.035004 
L 69.622716 109.989937 
L 71.207572 103.354674 
L 72.158486 97.973757 
L 73.743341 87.802451 
L 75.328197 80.139 
L 76.596082 75.665234 
L 77.863967 71.631221 
L 78.497909 68.728424 
L 79.448822 62.840743 
L 80.082765 60.142746 
L 80.716707 58.077158 
L 81.667621 55.101069 
L 82.301563 54.528132 
L 82.618534 53.941374 
L 82.935505 53.656162 
L 83.252476 53.790182 
L 83.886419 54.491276 
L 85.788246 57.160794 
L 86.739159 59.173193 
L 87.373101 60.795258 
L 89.274928 66.698854 
L 89.908871 68.992277 
L 90.542813 70.411636 
L 91.810698 73.352964 
L 92.127669 73.749999 
L 92.44464 73.892396 
L 94.346467 76.09703 
L 94.663438 76.200477 
L 95.614352 76.860527 
L 95.931323 76.89152 
L 96.565265 77.284367 
L 97.199208 77.407498 
L 97.516179 77.334624 
L 98.784063 75.527863 
L 100.051948 72.186149 
L 100.68589 69.59118 
L 101.636804 63.652404 
L 102.587717 57.871939 
L 103.538631 53.595434 
L 104.172573 52.257743 
L 104.489544 52.304232 
L 104.806516 52.690797 
L 105.440458 54.548235 
L 105.757429 55.730964 
L 107.659256 65.749822 
L 108.610169 68.101461 
L 109.561083 69.378423 
L 109.878054 69.530452 
L 110.195025 69.473075 
L 110.828968 70.516758 
L 111.145939 71.137859 
L 111.779881 71.728386 
L 112.730795 72.315563 
L 114.949593 75.937462 
L 116.217477 77.518484 
L 117.802333 80.389869 
L 118.436276 80.879044 
L 118.753247 80.854752 
L 119.70416 79.999954 
L 120.338103 79.594961 
L 120.972045 79.716836 
L 121.289016 79.606688 
L 121.922958 79.806043 
L 122.556901 80.249986 
L 123.190843 80.390707 
L 123.507814 80.284328 
L 124.141757 80.49918 
L 124.458728 80.729946 
L 124.775699 80.772246 
L 125.409641 80.270508 
L 127.311468 77.524347 
L 128.579353 76.158177 
L 129.530266 74.072067 
L 130.164209 72.21044 
L 131.749064 67.282261 
L 132.383007 64.443124 
L 133.33392 60.378538 
L 133.650891 59.199997 
L 133.967863 58.572196 
L 134.284834 57.6952 
L 134.601805 56.3395 
L 134.918776 55.906028 
L 135.235747 55.661441 
L 135.235747 55.661441 
" style="fill:none;stroke:#add8e6;stroke-linecap:square;stroke-width:1.5;"/>
   </g>
   <g id="line2d_2">
    <path clip-path="url(#pc89fd0c175)" d="M 39.827427 115.954052 
L 42.997138 116.834693 
L 44.581994 117.078687 
L 44.898965 117.147021 
L 48.385648 117.233515 
L 51.238389 116.746448 
L 51.55536 116.583763 
L 53.140216 116.388843 
L 53.457187 116.174365 
L 54.725072 115.675826 
L 59.79661 111.713286 
L 61.064495 111.231002 
L 63.283293 110.978891 
L 64.868149 110.95324 
L 66.136033 110.831656 
L 66.769976 110.573631 
L 67.403918 110.171006 
L 68.354832 109.202948 
L 69.305745 107.847066 
L 70.256659 106.082833 
L 73.109399 99.97586 
L 74.694255 96.02372 
L 75.645168 93.11646 
L 76.596082 89.552032 
L 77.546995 85.021 
L 78.81488 77.885251 
L 81.350649 63.046167 
L 82.618534 57.146073 
L 83.886419 52.431551 
L 84.520361 50.831954 
L 84.837332 50.291917 
L 85.154303 50.02392 
L 85.471274 49.981863 
L 85.788246 50.1226 
L 86.105217 50.488919 
L 86.422188 51.074472 
L 87.05613 53.053624 
L 88.324015 58.842936 
L 89.908871 65.80448 
L 90.542813 67.832336 
L 91.493727 69.96878 
L 92.761611 72.050055 
L 94.346467 74.089038 
L 94.980409 74.393129 
L 95.614352 74.257482 
L 95.931323 74.058303 
L 96.248294 73.700102 
L 96.882236 72.390542 
L 97.516179 70.027132 
L 98.150121 67.187714 
L 99.101035 62.069584 
L 101.319833 48.686425 
L 101.953775 46.38477 
L 102.587717 45.237494 
L 102.904689 45 
L 103.22166 45.067796 
L 103.855602 46.200526 
L 104.489544 48.096825 
L 106.708343 56.655286 
L 107.025314 57.848489 
L 107.659256 59.002658 
L 109.244112 63.19493 
L 109.878054 64.766314 
L 110.828968 67.228163 
L 111.46291 68.629567 
L 116.217477 78.271408 
L 117.168391 80.17619 
L 118.753247 82.461729 
L 119.387189 82.932741 
L 120.021131 82.426385 
L 120.972045 81.306137 
L 121.605987 80.305677 
L 123.507814 76.434147 
L 124.458728 75.418712 
L 125.726612 74.188138 
L 126.994497 72.443229 
L 127.628439 71.121765 
L 128.579353 68.42639 
L 130.164209 63.287581 
L 131.432093 58.957032 
L 132.383007 56.465172 
L 133.016949 55.106178 
L 133.33392 54.820418 
L 133.650891 54.685415 
L 133.967863 54.81302 
L 134.284834 55.225071 
L 134.918776 56.753021 
L 135.552718 58.900032 
L 137.454545 67.71678 
L 137.454545 67.71678 
" style="fill:none;stroke:#ff0000;stroke-linecap:square;stroke-width:1.5;"/>
   </g>
   <g id="patch_3">
    <path d="M 0 144 
L 0 0 
" style="fill:none;stroke:#ffffff;stroke-linecap:square;stroke-linejoin:miter;stroke-width:0.8;"/>
   </g>
   <g id="patch_4">
    <path d="M 144 144 
L 144 0 
" style="fill:none;stroke:#ffffff;stroke-linecap:square;stroke-linejoin:miter;stroke-width:0.8;"/>
   </g>
   <g id="patch_5">
    <path d="M 0 144 
L 144 144 
" style="fill:none;stroke:#ffffff;stroke-linecap:square;stroke-linejoin:miter;stroke-width:0.8;"/>
   </g>
   <g id="patch_6">
    <path d="M 0 0 
L 144 0 
" style="fill:none;stroke:#ffffff;stroke-linecap:square;stroke-linejoin:miter;stroke-width:0.8;"/>
   </g>
  </g>
  <g id="text_1">
   <g id="patch_7">
    <path d="M -64.84815 36.3681 
L 208.84815 36.3681 
L 208.84815 -7.65432 
L -64.84815 -7.65432 
z
" style="fill:#ffff00;stroke:#ffff00;stroke-linejoin:miter;"/>
   </g>
   <!--  -->
   <g transform="translate(72 9.45018)scale(0.1728 -0.1728)"/>
   <!--            CORONADATA            -->
   <g transform="translate(-60.87375 28.8)scale(0.1728 -0.1728)">
    <defs>
     <path id="DejaVuSans-Bold-32"/>
     <path d="M 67 4 
Q 61.8125 1.3125 56.203125 -0.046875 
Q 50.59375 -1.421875 44.484375 -1.421875 
Q 26.265625 -1.421875 15.625 8.765625 
Q 4.984375 18.953125 4.984375 36.375 
Q 4.984375 53.859375 15.625 64.03125 
Q 26.265625 74.21875 44.484375 74.21875 
Q 50.59375 74.21875 56.203125 72.84375 
Q 61.8125 71.484375 67 68.796875 
L 67 53.71875 
Q 61.765625 57.28125 56.6875 58.9375 
Q 51.609375 60.59375 46 60.59375 
Q 35.9375 60.59375 30.171875 54.140625 
Q 24.421875 47.703125 24.421875 36.375 
Q 24.421875 25.09375 30.171875 18.640625 
Q 35.9375 12.203125 46 12.203125 
Q 51.609375 12.203125 56.6875 13.859375 
Q 61.765625 15.53125 67 19.09375 
z
" id="DejaVuSans-Bold-67"/>
     <path d="M 42.484375 60.59375 
Q 33.890625 60.59375 29.15625 54.25 
Q 24.421875 47.90625 24.421875 36.375 
Q 24.421875 24.90625 29.15625 18.546875 
Q 33.890625 12.203125 42.484375 12.203125 
Q 51.125 12.203125 55.859375 18.546875 
Q 60.59375 24.90625 60.59375 36.375 
Q 60.59375 47.90625 55.859375 54.25 
Q 51.125 60.59375 42.484375 60.59375 
z
M 42.484375 74.21875 
Q 60.0625 74.21875 70.015625 64.15625 
Q 79.984375 54.109375 79.984375 36.375 
Q 79.984375 18.703125 70.015625 8.640625 
Q 60.0625 -1.421875 42.484375 -1.421875 
Q 24.953125 -1.421875 14.96875 8.640625 
Q 4.984375 18.703125 4.984375 36.375 
Q 4.984375 54.109375 14.96875 64.15625 
Q 24.953125 74.21875 42.484375 74.21875 
z
" id="DejaVuSans-Bold-79"/>
     <path d="M 35.890625 40.578125 
Q 41.796875 40.578125 44.359375 42.765625 
Q 46.921875 44.96875 46.921875 50 
Q 46.921875 54.984375 44.359375 57.125 
Q 41.796875 59.28125 35.890625 59.28125 
L 27.984375 59.28125 
L 27.984375 40.578125 
z
M 27.984375 27.59375 
L 27.984375 0 
L 9.1875 0 
L 9.1875 72.90625 
L 37.890625 72.90625 
Q 52.296875 72.90625 59 68.0625 
Q 65.71875 63.234375 65.71875 52.78125 
Q 65.71875 45.5625 62.21875 40.921875 
Q 58.734375 36.28125 51.703125 34.078125 
Q 55.5625 33.203125 58.609375 30.09375 
Q 61.671875 27 64.796875 20.703125 
L 75 0 
L 54.984375 0 
L 46.09375 18.109375 
Q 43.40625 23.578125 40.640625 25.578125 
Q 37.890625 27.59375 33.296875 27.59375 
z
" id="DejaVuSans-Bold-82"/>
     <path d="M 9.1875 72.90625 
L 30.171875 72.90625 
L 56.6875 22.90625 
L 56.6875 72.90625 
L 74.515625 72.90625 
L 74.515625 0 
L 53.515625 0 
L 27 50 
L 27 0 
L 9.1875 0 
z
" id="DejaVuSans-Bold-78"/>
     <path d="M 53.421875 13.28125 
L 24.03125 13.28125 
L 19.390625 0 
L 0.484375 0 
L 27.484375 72.90625 
L 49.90625 72.90625 
L 76.90625 0 
L 58.015625 0 
z
M 28.71875 26.8125 
L 48.6875 26.8125 
L 38.71875 55.8125 
z
" id="DejaVuSans-Bold-65"/>
     <path d="M 27.984375 58.6875 
L 27.984375 14.203125 
L 34.71875 14.203125 
Q 46.234375 14.203125 52.3125 19.921875 
Q 58.40625 25.640625 58.40625 36.53125 
Q 58.40625 47.359375 52.34375 53.015625 
Q 46.296875 58.6875 34.71875 58.6875 
z
M 9.1875 72.90625 
L 29 72.90625 
Q 45.609375 72.90625 53.734375 70.53125 
Q 61.859375 68.171875 67.671875 62.5 
Q 72.796875 57.5625 75.28125 51.109375 
Q 77.78125 44.671875 77.78125 36.53125 
Q 77.78125 28.265625 75.28125 21.796875 
Q 72.796875 15.328125 67.671875 10.40625 
Q 61.8125 4.734375 53.609375 2.359375 
Q 45.40625 0 29 0 
L 9.1875 0 
z
" id="DejaVuSans-Bold-68"/>
     <path d="M 0.484375 72.90625 
L 67.671875 72.90625 
L 67.671875 58.6875 
L 43.5 58.6875 
L 43.5 0 
L 24.703125 0 
L 24.703125 58.6875 
L 0.484375 58.6875 
z
" id="DejaVuSans-Bold-84"/>
    </defs>
    <use xlink:href="#DejaVuSans-Bold-32"/>
    <use x="34.814453" xlink:href="#DejaVuSans-Bold-32"/>
    <use x="69.628906" xlink:href="#DejaVuSans-Bold-32"/>
    <use x="104.443359" xlink:href="#DejaVuSans-Bold-32"/>
    <use x="139.257812" xlink:href="#DejaVuSans-Bold-32"/>
    <use x="174.072266" xlink:href="#DejaVuSans-Bold-32"/>
    <use x="208.886719" xlink:href="#DejaVuSans-Bold-32"/>
    <use x="243.701172" xlink:href="#DejaVuSans-Bold-32"/>
    <use x="278.515625" xlink:href="#DejaVuSans-Bold-32"/>
    <use x="313.330078" xlink:href="#DejaVuSans-Bold-32"/>
    <use x="348.144531" xlink:href="#DejaVuSans-Bold-32"/>
    <use x="382.958984" xlink:href="#DejaVuSans-Bold-67"/>
    <use x="456.347656" xlink:href="#DejaVuSans-Bold-79"/>
    <use x="541.357422" xlink:href="#DejaVuSans-Bold-82"/>
    <use x="618.359375" xlink:href="#DejaVuSans-Bold-79"/>
    <use x="703.369141" xlink:href="#DejaVuSans-Bold-78"/>
    <use x="787.060547" xlink:href="#DejaVuSans-Bold-65"/>
    <use x="864.453125" xlink:href="#DejaVuSans-Bold-68"/>
    <use x="947.460938" xlink:href="#DejaVuSans-Bold-65"/>
    <use x="1017.103516" xlink:href="#DejaVuSans-Bold-84"/>
    <use x="1077.566406" xlink:href="#DejaVuSans-Bold-65"/>
    <use x="1154.958984" xlink:href="#DejaVuSans-Bold-32"/>
    <use x="1189.773438" xlink:href="#DejaVuSans-Bold-32"/>
    <use x="1224.587891" xlink:href="#DejaVuSans-Bold-32"/>
    <use x="1259.402344" xlink:href="#DejaVuSans-Bold-32"/>
    <use x="1294.216797" xlink:href="#DejaVuSans-Bold-32"/>
    <use x="1329.03125" xlink:href="#DejaVuSans-Bold-32"/>
    <use x="1363.845703" xlink:href="#DejaVuSans-Bold-32"/>
    <use x="1398.660156" xlink:href="#DejaVuSans-Bold-32"/>
    <use x="1433.474609" xlink:href="#DejaVuSans-Bold-32"/>
    <use x="1468.289062" xlink:href="#DejaVuSans-Bold-32"/>
    <use x="1503.103516" xlink:href="#DejaVuSans-Bold-32"/>
   </g>
  </g>
  <g id="text_2">
   <!-- Rt=1,01 -->
   <g style="fill:#808080;opacity:0.3;" transform="translate(26.46875 141.12)scale(0.2 -0.2)">
    <defs>
     <path d="M 27.484375 70.21875 
L 27.484375 54.6875 
L 45.515625 54.6875 
L 45.515625 42.1875 
L 27.484375 42.1875 
L 27.484375 19 
Q 27.484375 15.1875 29 13.84375 
Q 30.515625 12.5 35.015625 12.5 
L 44 12.5 
L 44 0 
L 29 0 
Q 18.65625 0 14.328125 4.3125 
Q 10.015625 8.640625 10.015625 19 
L 10.015625 42.1875 
L 1.3125 42.1875 
L 1.3125 54.6875 
L 10.015625 54.6875 
L 10.015625 70.21875 
z
" id="DejaVuSans-Bold-116"/>
     <path d="M 10.59375 48.1875 
L 73.1875 48.1875 
L 73.1875 36.71875 
L 10.59375 36.71875 
z
M 10.59375 25.984375 
L 73.1875 25.984375 
L 73.1875 14.40625 
L 10.59375 14.40625 
z
" id="DejaVuSans-Bold-61"/>
     <path d="M 11.71875 12.984375 
L 28.328125 12.984375 
L 28.328125 60.109375 
L 11.28125 56.59375 
L 11.28125 69.390625 
L 28.21875 72.90625 
L 46.09375 72.90625 
L 46.09375 12.984375 
L 62.703125 12.984375 
L 62.703125 0 
L 11.71875 0 
z
" id="DejaVuSans-Bold-49"/>
     <path d="M 10.203125 18.890625 
L 27.78125 18.890625 
L 27.78125 4 
L 15.71875 -14.203125 
L 5.328125 -14.203125 
L 10.203125 4 
z
" id="DejaVuSans-Bold-44"/>
     <path d="M 46 36.53125 
Q 46 50.203125 43.4375 55.78125 
Q 40.875 61.375 34.8125 61.375 
Q 28.765625 61.375 26.171875 55.78125 
Q 23.578125 50.203125 23.578125 36.53125 
Q 23.578125 22.703125 26.171875 17.03125 
Q 28.765625 11.375 34.8125 11.375 
Q 40.828125 11.375 43.40625 17.03125 
Q 46 22.703125 46 36.53125 
z
M 64.796875 36.375 
Q 64.796875 18.265625 56.984375 8.421875 
Q 49.171875 -1.421875 34.8125 -1.421875 
Q 20.40625 -1.421875 12.59375 8.421875 
Q 4.78125 18.265625 4.78125 36.375 
Q 4.78125 54.546875 12.59375 64.375 
Q 20.40625 74.21875 34.8125 74.21875 
Q 49.171875 74.21875 56.984375 64.375 
Q 64.796875 54.546875 64.796875 36.375 
z
" id="DejaVuSans-Bold-48"/>
    </defs>
    <use xlink:href="#DejaVuSans-Bold-82"/>
    <use x="77.001953" xlink:href="#DejaVuSans-Bold-116"/>
    <use x="124.804688" xlink:href="#DejaVuSans-Bold-61"/>
    <use x="208.59375" xlink:href="#DejaVuSans-Bold-49"/>
    <use x="278.173828" xlink:href="#DejaVuSans-Bold-44"/>
    <use x="316.162109" xlink:href="#DejaVuSans-Bold-48"/>
    <use x="385.742188" xlink:href="#DejaVuSans-Bold-49"/>
   </g>
  </g>
 </g>
 <defs>
  <clipPath id="pc89fd0c175">
   <rect height="144" width="144" x="0" y="0"/>
  </clipPath>
 </defs>
</svg>
