<?xml version="1.0" encoding="utf-8" standalone="no"?>
<!DOCTYPE svg PUBLIC "-//W3C//DTD SVG 1.1//EN"
  "http://www.w3.org/Graphics/SVG/1.1/DTD/svg11.dtd">
<!-- Created with matplotlib (https://matplotlib.org/) -->
<svg height="144pt" version="1.1" viewBox="0 0 144 144" width="144pt" xmlns="http://www.w3.org/2000/svg" xmlns:xlink="http://www.w3.org/1999/xlink">
 <metadata>
  <rdf:RDF xmlns:cc="http://creativecommons.org/ns#" xmlns:dc="http://purl.org/dc/elements/1.1/" xmlns:rdf="http://www.w3.org/1999/02/22-rdf-syntax-ns#">
   <cc:Work>
    <dc:type rdf:resource="http://purl.org/dc/dcmitype/StillImage"/>
    <dc:date>2021-08-17T23:41:05.235165</dc:date>
    <dc:format>image/svg+xml</dc:format>
    <dc:creator>
     <cc:Agent>
      <dc:title>Matplotlib v3.3.2, https://matplotlib.org/</dc:title>
     </cc:Agent>
    </dc:creator>
   </cc:Work>
  </rdf:RDF>
 </metadata>
 <defs>
  <style type="text/css">*{stroke-linecap:butt;stroke-linejoin:round;}</style>
 </defs>
 <g id="figure_1">
  <g id="patch_1">
   <path d="M 0 144 
L 144 144 
L 144 0 
L 0 0 
z
" style="fill:#ffffff;"/>
  </g>
  <g id="axes_1">
   <g id="patch_2">
    <path d="M 0 144 
L 144 144 
L 144 0 
L 0 0 
z
" style="fill:#ffffff;"/>
   </g>
   <g id="line2d_1">
    <path clip-path="url(#p26e0403806)" d="M 6.545455 119.565123 
L 7.268709 119.30436 
L 7.991964 118.809556 
L 8.474134 118.176677 
L 8.956303 117.190714 
L 9.438473 115.600216 
L 9.920643 113.303145 
L 10.643898 108.299636 
L 11.126067 103.953705 
L 11.849322 96.491159 
L 12.813661 86.400729 
L 13.778001 71.750169 
L 14.742341 55.779997 
L 14.983425 53.498313 
L 15.22451 52.276286 
L 15.465595 51.884735 
L 15.70668 52.803482 
L 16.18885 56.141585 
L 18.599699 82.173033 
L 19.805123 91.394925 
L 20.769463 97.396545 
L 21.492717 101.09259 
L 22.215972 104.151707 
L 22.939227 106.415576 
L 24.385736 109.483601 
L 24.867906 110.081253 
L 25.59116 110.433527 
L 26.796585 111.506141 
L 29.689603 115.168174 
L 31.377197 116.941288 
L 33.064792 118.150358 
L 33.788046 118.229721 
L 35.95781 118.178297 
L 36.681065 118.099339 
L 38.127574 118.318397 
L 38.850829 118.44392 
L 40.297338 118.607504 
L 42.467102 118.270617 
L 45.119036 116.793899 
L 45.601205 116.378054 
L 45.84229 116.098664 
L 49.458564 114.876232 
L 49.940733 114.851937 
L 51.869412 115.702659 
L 52.351582 115.501822 
L 52.833752 115.005399 
L 53.315922 114.242948 
L 54.039176 112.247942 
L 54.762431 109.041436 
L 56.20894 100.428533 
L 58.378704 84.44176 
L 59.101959 80.226211 
L 61.030638 71.854636 
L 61.512808 68.377649 
L 61.994977 64.799028 
L 62.718232 61.190444 
L 63.200402 59.516129 
L 63.682572 57.553516 
L 64.164741 56.834796 
L 64.646911 55.818869 
L 64.887996 55.922122 
L 65.370166 56.547712 
L 66.816675 59.384937 
L 67.781015 62.152112 
L 69.468609 68.747334 
L 69.950779 70.940343 
L 70.432948 72.348225 
L 71.397288 75.204886 
L 71.638373 75.569308 
L 71.879458 75.672155 
L 72.361627 76.335808 
L 72.602712 76.831421 
L 72.843797 77.034283 
L 73.325967 77.596302 
L 73.567052 77.697935 
L 74.290306 78.341747 
L 74.531391 78.323121 
L 75.013561 78.69807 
L 75.495731 78.7912 
L 75.736816 78.686732 
L 76.701155 76.864219 
L 77.665495 73.333783 
L 78.147664 70.497368 
L 80.076344 54.796869 
L 80.317428 53.560669 
L 80.799598 52.641922 
L 81.040683 52.8379 
L 81.281768 53.382508 
L 81.763938 55.841139 
L 82.246107 59.153327 
L 83.451532 68.056553 
L 84.174787 70.314752 
L 84.898041 71.384937 
L 85.139126 71.514104 
L 85.380211 71.413281 
L 85.621296 71.770819 
L 86.103466 72.926846 
L 86.82672 73.642732 
L 87.30889 73.972736 
L 89.478654 78.220678 
L 89.719739 78.541369 
L 91.407333 82.060062 
L 91.648418 82.202591 
L 91.889503 82.166149 
L 92.853842 81.037657 
L 93.094927 80.891888 
L 93.336012 81.006479 
L 94.059267 80.951006 
L 94.541436 81.325955 
L 95.023606 81.653934 
L 95.264691 81.684708 
L 95.505776 81.594817 
L 95.987946 81.76974 
L 96.229031 82.007423 
L 96.470116 82.062087 
L 96.952285 81.653529 
L 98.639879 78.72034 
L 99.363134 77.651775 
L 100.086389 75.58186 
L 101.532898 70.168174 
L 102.015068 68.099069 
L 102.738322 64.136996 
L 103.461577 61.096909 
L 104.184832 58.502227 
L 105.149171 56.644891 
L 105.631341 55.273046 
L 106.113511 53.862735 
L 106.354596 53.458631 
L 107.56002 49.944797 
L 108.283275 47.363882 
L 109.006529 45.213389 
L 109.247614 45 
L 109.488699 45.054258 
L 109.970869 45.626805 
L 110.694124 48.110136 
L 111.417378 52.358888 
L 112.622803 60.434472 
L 113.104972 63.113376 
L 113.587142 65.247267 
L 114.551482 69.981104 
L 115.756906 78.124308 
L 117.4445 91.083142 
L 118.40884 95.592658 
L 119.132094 97.781212 
L 120.337519 101.277635 
L 121.784028 106.407477 
L 122.266198 108.065596 
L 123.953792 112.411122 
L 124.918132 113.968822 
L 126.364641 115.569847 
L 126.364641 115.569847 
" style="fill:none;stroke:#add8e6;stroke-linecap:square;stroke-width:1.5;"/>
   </g>
   <g id="line2d_2">
    <path clip-path="url(#p26e0403806)" d="M 31.859367 116.088339 
L 34.270216 116.939751 
L 35.47564 117.175647 
L 35.716725 117.241713 
L 38.368659 117.325336 
L 40.538423 116.854435 
L 40.779508 116.69715 
L 41.984932 116.508699 
L 42.226017 116.30134 
L 43.190357 115.819348 
L 47.047715 111.988326 
L 48.012054 111.52205 
L 49.699648 111.278306 
L 50.905073 111.253506 
L 51.869412 111.135958 
L 52.592667 110.71206 
L 53.074837 110.21405 
L 53.798091 109.16566 
L 54.521346 107.729941 
L 56.450025 102.78482 
L 57.896534 98.413875 
L 58.860874 94.996229 
L 59.584129 91.806418 
L 60.307383 87.747969 
L 61.512808 79.289463 
L 63.441487 64.961109 
L 64.405826 59.296581 
L 65.370166 54.771639 
L 65.852336 53.231733 
L 66.334505 52.457119 
L 66.57559 52.420316 
L 66.816675 52.546595 
L 67.05776 52.890867 
L 67.53993 54.28219 
L 68.022099 56.62309 
L 70.191863 68.680548 
L 70.915118 71.045746 
L 71.879458 73.215803 
L 73.325967 75.645885 
L 73.808137 75.951898 
L 74.290306 75.834132 
L 74.531391 75.648208 
L 75.013561 74.79094 
L 75.495731 73.028297 
L 76.46007 67.455702 
L 77.42441 60.141635 
L 78.629834 51.084396 
L 79.112004 48.854547 
L 79.594174 47.741551 
L 79.835259 47.508769 
L 80.076344 47.574111 
L 80.558513 48.668837 
L 81.040683 50.501795 
L 82.969362 59.909373 
L 83.451532 61.022483 
L 85.621296 68.254189 
L 87.30889 72.965625 
L 88.514314 75.734102 
L 90.925163 81.966578 
L 91.889503 83.72684 
L 92.371673 84.208421 
L 93.094927 83.432081 
L 93.818182 82.267928 
L 94.300352 81.147276 
L 95.264691 78.547365 
L 95.746861 77.617024 
L 96.470116 76.697805 
L 97.19337 75.747543 
L 98.15771 74.028904 
L 98.639879 72.75201 
L 99.604219 69.205489 
L 102.015068 59.326733 
L 102.738322 57.097703 
L 103.220492 56.45661 
L 103.702662 56.32533 
L 104.667002 56.677656 
L 105.872426 57.527125 
L 106.595681 56.752876 
L 108.52436 54.331354 
L 109.006529 54.240916 
L 109.247614 54.407438 
L 109.488699 54.735223 
L 110.211954 56.779075 
L 111.899548 63.042695 
L 112.622803 65.940147 
L 113.346057 68.001549 
L 114.310397 71.654781 
L 114.792567 73.777836 
L 117.685585 88.358079 
L 120.578604 98.4685 
L 121.060773 99.315663 
L 122.025113 102.551174 
L 122.507283 103.29405 
L 123.712707 106.533711 
L 124.435962 107.31647 
L 124.918132 107.806293 
L 125.159216 107.849033 
L 125.400301 107.655643 
L 125.641386 107.113056 
L 126.123556 104.753819 
L 126.605726 101.20692 
L 127.087896 96.032235 
L 127.81115 85.197736 
L 129.016575 66.093181 
L 129.739829 58.913914 
L 129.980914 57.507764 
L 130.221999 56.833541 
L 130.463084 56.964847 
L 130.945254 57.83047 
L 131.427423 60.483135 
L 132.150678 66.886697 
L 133.356102 77.567381 
L 133.838272 80.717114 
L 134.561527 83.847922 
L 135.284782 85.871519 
L 136.972376 89.300685 
L 137.454545 90.222639 
L 137.454545 90.222639 
" style="fill:none;stroke:#ff0000;stroke-linecap:square;stroke-width:1.5;"/>
   </g>
   <g id="patch_3">
    <path d="M 0 144 
L 0 0 
" style="fill:none;stroke:#ffffff;stroke-linecap:square;stroke-linejoin:miter;stroke-width:0.8;"/>
   </g>
   <g id="patch_4">
    <path d="M 144 144 
L 144 0 
" style="fill:none;stroke:#ffffff;stroke-linecap:square;stroke-linejoin:miter;stroke-width:0.8;"/>
   </g>
   <g id="patch_5">
    <path d="M 0 144 
L 144 144 
" style="fill:none;stroke:#ffffff;stroke-linecap:square;stroke-linejoin:miter;stroke-width:0.8;"/>
   </g>
   <g id="patch_6">
    <path d="M 0 0 
L 144 0 
" style="fill:none;stroke:#ffffff;stroke-linecap:square;stroke-linejoin:miter;stroke-width:0.8;"/>
   </g>
  </g>
  <g id="text_1">
   <g id="patch_7">
    <path d="M -64.84815 36.3681 
L 208.84815 36.3681 
L 208.84815 -7.65432 
L -64.84815 -7.65432 
z
" style="fill:#ffff00;stroke:#ffff00;stroke-linejoin:miter;"/>
   </g>
   <!--  -->
   <g transform="translate(72 9.45018)scale(0.1728 -0.1728)"/>
   <!--            CORONADATA            -->
   <g transform="translate(-60.87375 28.8)scale(0.1728 -0.1728)">
    <defs>
     <path id="DejaVuSans-Bold-32"/>
     <path d="M 67 4 
Q 61.8125 1.3125 56.203125 -0.046875 
Q 50.59375 -1.421875 44.484375 -1.421875 
Q 26.265625 -1.421875 15.625 8.765625 
Q 4.984375 18.953125 4.984375 36.375 
Q 4.984375 53.859375 15.625 64.03125 
Q 26.265625 74.21875 44.484375 74.21875 
Q 50.59375 74.21875 56.203125 72.84375 
Q 61.8125 71.484375 67 68.796875 
L 67 53.71875 
Q 61.765625 57.28125 56.6875 58.9375 
Q 51.609375 60.59375 46 60.59375 
Q 35.9375 60.59375 30.171875 54.140625 
Q 24.421875 47.703125 24.421875 36.375 
Q 24.421875 25.09375 30.171875 18.640625 
Q 35.9375 12.203125 46 12.203125 
Q 51.609375 12.203125 56.6875 13.859375 
Q 61.765625 15.53125 67 19.09375 
z
" id="DejaVuSans-Bold-67"/>
     <path d="M 42.484375 60.59375 
Q 33.890625 60.59375 29.15625 54.25 
Q 24.421875 47.90625 24.421875 36.375 
Q 24.421875 24.90625 29.15625 18.546875 
Q 33.890625 12.203125 42.484375 12.203125 
Q 51.125 12.203125 55.859375 18.546875 
Q 60.59375 24.90625 60.59375 36.375 
Q 60.59375 47.90625 55.859375 54.25 
Q 51.125 60.59375 42.484375 60.59375 
z
M 42.484375 74.21875 
Q 60.0625 74.21875 70.015625 64.15625 
Q 79.984375 54.109375 79.984375 36.375 
Q 79.984375 18.703125 70.015625 8.640625 
Q 60.0625 -1.421875 42.484375 -1.421875 
Q 24.953125 -1.421875 14.96875 8.640625 
Q 4.984375 18.703125 4.984375 36.375 
Q 4.984375 54.109375 14.96875 64.15625 
Q 24.953125 74.21875 42.484375 74.21875 
z
" id="DejaVuSans-Bold-79"/>
     <path d="M 35.890625 40.578125 
Q 41.796875 40.578125 44.359375 42.765625 
Q 46.921875 44.96875 46.921875 50 
Q 46.921875 54.984375 44.359375 57.125 
Q 41.796875 59.28125 35.890625 59.28125 
L 27.984375 59.28125 
L 27.984375 40.578125 
z
M 27.984375 27.59375 
L 27.984375 0 
L 9.1875 0 
L 9.1875 72.90625 
L 37.890625 72.90625 
Q 52.296875 72.90625 59 68.0625 
Q 65.71875 63.234375 65.71875 52.78125 
Q 65.71875 45.5625 62.21875 40.921875 
Q 58.734375 36.28125 51.703125 34.078125 
Q 55.5625 33.203125 58.609375 30.09375 
Q 61.671875 27 64.796875 20.703125 
L 75 0 
L 54.984375 0 
L 46.09375 18.109375 
Q 43.40625 23.578125 40.640625 25.578125 
Q 37.890625 27.59375 33.296875 27.59375 
z
" id="DejaVuSans-Bold-82"/>
     <path d="M 9.1875 72.90625 
L 30.171875 72.90625 
L 56.6875 22.90625 
L 56.6875 72.90625 
L 74.515625 72.90625 
L 74.515625 0 
L 53.515625 0 
L 27 50 
L 27 0 
L 9.1875 0 
z
" id="DejaVuSans-Bold-78"/>
     <path d="M 53.421875 13.28125 
L 24.03125 13.28125 
L 19.390625 0 
L 0.484375 0 
L 27.484375 72.90625 
L 49.90625 72.90625 
L 76.90625 0 
L 58.015625 0 
z
M 28.71875 26.8125 
L 48.6875 26.8125 
L 38.71875 55.8125 
z
" id="DejaVuSans-Bold-65"/>
     <path d="M 27.984375 58.6875 
L 27.984375 14.203125 
L 34.71875 14.203125 
Q 46.234375 14.203125 52.3125 19.921875 
Q 58.40625 25.640625 58.40625 36.53125 
Q 58.40625 47.359375 52.34375 53.015625 
Q 46.296875 58.6875 34.71875 58.6875 
z
M 9.1875 72.90625 
L 29 72.90625 
Q 45.609375 72.90625 53.734375 70.53125 
Q 61.859375 68.171875 67.671875 62.5 
Q 72.796875 57.5625 75.28125 51.109375 
Q 77.78125 44.671875 77.78125 36.53125 
Q 77.78125 28.265625 75.28125 21.796875 
Q 72.796875 15.328125 67.671875 10.40625 
Q 61.8125 4.734375 53.609375 2.359375 
Q 45.40625 0 29 0 
L 9.1875 0 
z
" id="DejaVuSans-Bold-68"/>
     <path d="M 0.484375 72.90625 
L 67.671875 72.90625 
L 67.671875 58.6875 
L 43.5 58.6875 
L 43.5 0 
L 24.703125 0 
L 24.703125 58.6875 
L 0.484375 58.6875 
z
" id="DejaVuSans-Bold-84"/>
    </defs>
    <use xlink:href="#DejaVuSans-Bold-32"/>
    <use x="34.814453" xlink:href="#DejaVuSans-Bold-32"/>
    <use x="69.628906" xlink:href="#DejaVuSans-Bold-32"/>
    <use x="104.443359" xlink:href="#DejaVuSans-Bold-32"/>
    <use x="139.257812" xlink:href="#DejaVuSans-Bold-32"/>
    <use x="174.072266" xlink:href="#DejaVuSans-Bold-32"/>
    <use x="208.886719" xlink:href="#DejaVuSans-Bold-32"/>
    <use x="243.701172" xlink:href="#DejaVuSans-Bold-32"/>
    <use x="278.515625" xlink:href="#DejaVuSans-Bold-32"/>
    <use x="313.330078" xlink:href="#DejaVuSans-Bold-32"/>
    <use x="348.144531" xlink:href="#DejaVuSans-Bold-32"/>
    <use x="382.958984" xlink:href="#DejaVuSans-Bold-67"/>
    <use x="456.347656" xlink:href="#DejaVuSans-Bold-79"/>
    <use x="541.357422" xlink:href="#DejaVuSans-Bold-82"/>
    <use x="618.359375" xlink:href="#DejaVuSans-Bold-79"/>
    <use x="703.369141" xlink:href="#DejaVuSans-Bold-78"/>
    <use x="787.060547" xlink:href="#DejaVuSans-Bold-65"/>
    <use x="864.453125" xlink:href="#DejaVuSans-Bold-68"/>
    <use x="947.460938" xlink:href="#DejaVuSans-Bold-65"/>
    <use x="1017.103516" xlink:href="#DejaVuSans-Bold-84"/>
    <use x="1077.566406" xlink:href="#DejaVuSans-Bold-65"/>
    <use x="1154.958984" xlink:href="#DejaVuSans-Bold-32"/>
    <use x="1189.773438" xlink:href="#DejaVuSans-Bold-32"/>
    <use x="1224.587891" xlink:href="#DejaVuSans-Bold-32"/>
    <use x="1259.402344" xlink:href="#DejaVuSans-Bold-32"/>
    <use x="1294.216797" xlink:href="#DejaVuSans-Bold-32"/>
    <use x="1329.03125" xlink:href="#DejaVuSans-Bold-32"/>
    <use x="1363.845703" xlink:href="#DejaVuSans-Bold-32"/>
    <use x="1398.660156" xlink:href="#DejaVuSans-Bold-32"/>
    <use x="1433.474609" xlink:href="#DejaVuSans-Bold-32"/>
    <use x="1468.289062" xlink:href="#DejaVuSans-Bold-32"/>
    <use x="1503.103516" xlink:href="#DejaVuSans-Bold-32"/>
   </g>
  </g>
  <g id="text_2">
   <!-- Rt=0,92 -->
   <g style="fill:#4169e1;opacity:0.5;" transform="translate(26.46875 141.12)scale(0.2 -0.2)">
    <defs>
     <path d="M 27.484375 70.21875 
L 27.484375 54.6875 
L 45.515625 54.6875 
L 45.515625 42.1875 
L 27.484375 42.1875 
L 27.484375 19 
Q 27.484375 15.1875 29 13.84375 
Q 30.515625 12.5 35.015625 12.5 
L 44 12.5 
L 44 0 
L 29 0 
Q 18.65625 0 14.328125 4.3125 
Q 10.015625 8.640625 10.015625 19 
L 10.015625 42.1875 
L 1.3125 42.1875 
L 1.3125 54.6875 
L 10.015625 54.6875 
L 10.015625 70.21875 
z
" id="DejaVuSans-Bold-116"/>
     <path d="M 10.59375 48.1875 
L 73.1875 48.1875 
L 73.1875 36.71875 
L 10.59375 36.71875 
z
M 10.59375 25.984375 
L 73.1875 25.984375 
L 73.1875 14.40625 
L 10.59375 14.40625 
z
" id="DejaVuSans-Bold-61"/>
     <path d="M 46 36.53125 
Q 46 50.203125 43.4375 55.78125 
Q 40.875 61.375 34.8125 61.375 
Q 28.765625 61.375 26.171875 55.78125 
Q 23.578125 50.203125 23.578125 36.53125 
Q 23.578125 22.703125 26.171875 17.03125 
Q 28.765625 11.375 34.8125 11.375 
Q 40.828125 11.375 43.40625 17.03125 
Q 46 22.703125 46 36.53125 
z
M 64.796875 36.375 
Q 64.796875 18.265625 56.984375 8.421875 
Q 49.171875 -1.421875 34.8125 -1.421875 
Q 20.40625 -1.421875 12.59375 8.421875 
Q 4.78125 18.265625 4.78125 36.375 
Q 4.78125 54.546875 12.59375 64.375 
Q 20.40625 74.21875 34.8125 74.21875 
Q 49.171875 74.21875 56.984375 64.375 
Q 64.796875 54.546875 64.796875 36.375 
z
" id="DejaVuSans-Bold-48"/>
     <path d="M 10.203125 18.890625 
L 27.78125 18.890625 
L 27.78125 4 
L 15.71875 -14.203125 
L 5.328125 -14.203125 
L 10.203125 4 
z
" id="DejaVuSans-Bold-44"/>
     <path d="M 10.015625 1.609375 
L 10.015625 15.09375 
Q 14.5 12.984375 18.59375 11.9375 
Q 22.703125 10.890625 26.703125 10.890625 
Q 35.109375 10.890625 39.796875 15.546875 
Q 44.484375 20.21875 45.3125 29.390625 
Q 42 26.953125 38.234375 25.734375 
Q 34.46875 24.515625 30.078125 24.515625 
Q 18.890625 24.515625 12.03125 31.03125 
Q 5.171875 37.546875 5.171875 48.1875 
Q 5.171875 59.96875 12.8125 67.046875 
Q 20.453125 74.125 33.296875 74.125 
Q 47.5625 74.125 55.375 64.5 
Q 63.1875 54.890625 63.1875 37.3125 
Q 63.1875 19.234375 54.046875 8.90625 
Q 44.921875 -1.421875 29 -1.421875 
Q 23.875 -1.421875 19.1875 -0.65625 
Q 14.5 0.09375 10.015625 1.609375 
z
M 33.203125 36.71875 
Q 38.140625 36.71875 40.625 39.90625 
Q 43.109375 43.109375 43.109375 49.515625 
Q 43.109375 55.859375 40.625 59.078125 
Q 38.140625 62.3125 33.203125 62.3125 
Q 28.265625 62.3125 25.78125 59.078125 
Q 23.296875 55.859375 23.296875 49.515625 
Q 23.296875 43.109375 25.78125 39.90625 
Q 28.265625 36.71875 33.203125 36.71875 
z
" id="DejaVuSans-Bold-57"/>
     <path d="M 28.8125 13.8125 
L 60.890625 13.8125 
L 60.890625 0 
L 7.90625 0 
L 7.90625 13.8125 
L 34.515625 37.3125 
Q 38.09375 40.53125 39.796875 43.609375 
Q 41.5 46.6875 41.5 50 
Q 41.5 55.125 38.0625 58.25 
Q 34.625 61.375 28.90625 61.375 
Q 24.515625 61.375 19.28125 59.5 
Q 14.0625 57.625 8.109375 53.90625 
L 8.109375 69.921875 
Q 14.453125 72.015625 20.65625 73.109375 
Q 26.859375 74.21875 32.8125 74.21875 
Q 45.90625 74.21875 53.15625 68.453125 
Q 60.40625 62.703125 60.40625 52.390625 
Q 60.40625 46.4375 57.328125 41.28125 
Q 54.25 36.140625 44.390625 27.484375 
z
" id="DejaVuSans-Bold-50"/>
    </defs>
    <use xlink:href="#DejaVuSans-Bold-82"/>
    <use x="77.001953" xlink:href="#DejaVuSans-Bold-116"/>
    <use x="124.804688" xlink:href="#DejaVuSans-Bold-61"/>
    <use x="208.59375" xlink:href="#DejaVuSans-Bold-48"/>
    <use x="278.173828" xlink:href="#DejaVuSans-Bold-44"/>
    <use x="316.162109" xlink:href="#DejaVuSans-Bold-57"/>
    <use x="385.742188" xlink:href="#DejaVuSans-Bold-50"/>
   </g>
  </g>
 </g>
 <defs>
  <clipPath id="p26e0403806">
   <rect height="144" width="144" x="0" y="0"/>
  </clipPath>
 </defs>
</svg>
