<?xml version="1.0" encoding="utf-8" standalone="no"?>
<!DOCTYPE svg PUBLIC "-//W3C//DTD SVG 1.1//EN"
  "http://www.w3.org/Graphics/SVG/1.1/DTD/svg11.dtd">
<!-- Created with matplotlib (https://matplotlib.org/) -->
<svg height="144pt" version="1.1" viewBox="0 0 144 144" width="144pt" xmlns="http://www.w3.org/2000/svg" xmlns:xlink="http://www.w3.org/1999/xlink">
 <metadata>
  <rdf:RDF xmlns:cc="http://creativecommons.org/ns#" xmlns:dc="http://purl.org/dc/elements/1.1/" xmlns:rdf="http://www.w3.org/1999/02/22-rdf-syntax-ns#">
   <cc:Work>
    <dc:type rdf:resource="http://purl.org/dc/dcmitype/StillImage"/>
    <dc:date>2021-05-26T23:40:21.634061</dc:date>
    <dc:format>image/svg+xml</dc:format>
    <dc:creator>
     <cc:Agent>
      <dc:title>Matplotlib v3.3.2, https://matplotlib.org/</dc:title>
     </cc:Agent>
    </dc:creator>
   </cc:Work>
  </rdf:RDF>
 </metadata>
 <defs>
  <style type="text/css">*{stroke-linecap:butt;stroke-linejoin:round;}</style>
 </defs>
 <g id="figure_1">
  <g id="patch_1">
   <path d="M 0 144 
L 144 144 
L 144 0 
L 0 0 
z
" style="fill:#ffffff;"/>
  </g>
  <g id="axes_1">
   <g id="patch_2">
    <path d="M 0 144 
L 144 144 
L 144 0 
L 0 0 
z
" style="fill:#ffffff;"/>
   </g>
   <g id="line2d_1">
    <path clip-path="url(#p4a8f5d0413)" d="M 6.545455 119.565292 
L 7.402938 119.308957 
L 8.260421 118.823227 
L 8.832076 118.19137 
L 9.403732 117.200725 
L 9.975387 115.615367 
L 10.547042 113.32019 
L 11.404526 108.314312 
L 11.976181 103.934577 
L 12.547836 98.495216 
L 13.40532 91.767241 
L 13.976975 86.227469 
L 15.120286 71.380045 
L 16.263597 55.155434 
L 16.549424 52.835358 
L 16.835252 51.600216 
L 17.12108 51.161018 
L 17.406908 52.058598 
L 17.978563 55.419524 
L 20.83684 81.742424 
L 22.265979 91.09824 
L 23.409289 97.137621 
L 24.266773 100.87611 
L 25.124256 103.990089 
L 25.695911 105.672185 
L 26.839222 107.974301 
L 27.410877 108.94168 
L 28.26836 109.944978 
L 29.125844 110.313561 
L 30.554982 111.403393 
L 33.984915 115.105963 
L 35.985709 116.918267 
L 37.986503 118.143205 
L 38.843986 118.204431 
L 41.130607 118.207288 
L 42.273918 118.079121 
L 43.988884 118.292189 
L 45.703851 118.580362 
L 46.561334 118.602403 
L 47.990472 118.378314 
L 48.847956 118.293005 
L 49.419611 118.133 
L 51.420405 117.177459 
L 52.277888 116.775405 
L 52.849543 116.355799 
L 53.135371 116.073341 
L 55.993648 115.123922 
L 56.565304 114.913711 
L 57.136959 114.801055 
L 58.28027 114.889629 
L 59.995236 115.682308 
L 60.566892 115.591285 
L 61.138547 115.265152 
L 61.710202 114.647989 
L 62.281858 113.609179 
L 62.853513 112.18301 
L 63.710996 108.957599 
L 65.425963 100.254457 
L 67.712584 85.672348 
L 69.141723 78.875392 
L 71.142517 71.350656 
L 71.714172 67.755845 
L 72.285828 64.01858 
L 73.143311 60.2556 
L 73.714966 58.565749 
L 74.286622 56.626502 
L 74.858277 56.083219 
L 75.144105 55.487281 
L 75.429933 55.168495 
L 75.71576 55.306459 
L 76.287416 55.994645 
L 77.716554 58.335537 
L 78.574037 60.167842 
L 79.43152 62.458937 
L 81.146487 68.255045 
L 81.718142 70.49022 
L 82.289798 71.899246 
L 83.433108 74.730359 
L 83.718936 75.093228 
L 84.004764 75.222211 
L 85.71973 77.272482 
L 86.005558 77.369628 
L 86.863041 78.001078 
L 87.148869 78.000261 
L 87.720524 78.378233 
L 88.292179 78.465991 
L 88.578007 78.383947 
L 89.721318 76.560622 
L 90.578801 74.162177 
L 91.150457 71.635564 
L 91.722112 68.061569 
L 92.865423 59.253935 
L 93.437078 55.744432 
L 94.008734 52.996996 
L 94.580389 52.032475 
L 94.866217 52.23044 
L 95.152044 52.773723 
L 95.7237 55.235028 
L 96.295355 58.566565 
L 97.724494 67.436243 
L 98.581977 69.750604 
L 99.43946 70.864926 
L 99.725288 71.032279 
L 100.011116 70.935133 
L 100.296943 71.300451 
L 100.868599 72.452325 
L 101.726082 73.196431 
L 102.297737 73.551953 
L 104.584359 77.444325 
L 105.441842 78.663548 
L 106.870981 81.47262 
L 107.442636 81.901613 
L 107.728464 81.846917 
L 108.300119 81.197508 
L 109.157602 80.596264 
L 109.729258 80.733412 
L 110.015085 80.646062 
L 110.586741 80.824843 
L 111.158396 81.270164 
L 111.730052 81.415475 
L 112.015879 81.322002 
L 113.15919 81.754261 
L 113.730846 81.266082 
L 115.445812 78.564361 
L 116.303295 77.554532 
L 116.87495 76.523478 
L 118.018261 73.340109 
L 119.4474 68.861595 
L 120.590711 63.687141 
L 121.162366 61.355636 
L 121.734021 59.742522 
L 122.019849 58.568606 
L 123.16316 56.581603 
L 123.448988 56.224448 
L 124.020643 54.85624 
L 124.592299 53.487624 
L 124.878126 53.071692 
L 126.307265 49.532801 
L 127.164748 47.067823 
L 128.022231 45.163679 
L 128.308059 45 
L 128.593886 45.124902 
L 129.165542 45.813904 
L 130.023025 48.313578 
L 130.880508 52.502694 
L 132.309647 60.334378 
L 132.881302 62.789152 
L 133.452958 64.599007 
L 135.739579 71.326982 
L 136.311235 72.588248 
L 136.597062 73.326639 
L 136.597062 73.326639 
" style="fill:none;stroke:#add8e6;stroke-linecap:square;stroke-width:1.5;"/>
   </g>
   <g id="line2d_2">
    <path clip-path="url(#p4a8f5d0413)" d="M 36.557364 116.056811 
L 39.415641 116.915085 
L 40.84478 117.152882 
L 41.130607 117.219481 
L 44.274712 117.303778 
L 46.847162 116.829081 
L 47.132989 116.670528 
L 48.562128 116.480559 
L 48.847956 116.271528 
L 49.991266 115.785651 
L 54.56451 111.923751 
L 55.707821 111.453716 
L 57.708615 111.208008 
L 59.137753 111.183008 
L 60.281064 111.064512 
L 60.852719 110.813041 
L 61.424375 110.420641 
L 62.281858 109.47717 
L 63.139341 108.155725 
L 63.996824 106.436301 
L 66.569274 100.484607 
L 67.998412 96.63367 
L 69.141723 92.745165 
L 69.999206 88.957464 
L 71.142517 82.598948 
L 74.858277 60.10926 
L 76.001588 55.267988 
L 76.573243 53.359432 
L 77.144899 52.170579 
L 77.430726 51.912715 
L 77.716554 51.875615 
L 78.002382 52.002912 
L 78.28821 52.349959 
L 78.574037 52.910671 
L 79.145693 54.819621 
L 80.289004 60.43177 
L 81.718142 67.19318 
L 82.289798 69.170011 
L 83.147281 71.252822 
L 84.290592 73.279574 
L 85.71973 75.290335 
L 86.291385 75.599731 
L 86.863041 75.481894 
L 87.148869 75.295262 
L 87.434696 74.953647 
L 88.006352 73.692955 
L 88.578007 71.386563 
L 89.43549 67.034074 
L 90.292973 61.676911 
L 91.722112 51.971157 
L 92.293767 49.322088 
L 92.865423 47.607923 
L 93.15125 47.159139 
L 93.437078 46.92448 
L 93.722906 46.990349 
L 94.294561 48.093898 
L 94.866217 49.942655 
L 97.152838 59.440561 
L 97.724494 60.564833 
L 99.153632 64.648784 
L 99.725288 66.180262 
L 100.582771 68.579704 
L 101.440254 70.558297 
L 102.297737 72.608729 
L 103.726876 75.39786 
L 106.585153 81.665494 
L 107.728464 83.43649 
L 108.300119 83.921321 
L 108.871775 83.453608 
L 109.729258 82.400958 
L 110.300913 81.452008 
L 112.301707 77.275111 
L 113.15919 76.347217 
L 114.016673 75.388355 
L 115.159984 73.65461 
L 115.73164 72.367476 
L 116.589123 69.742786 
L 118.018261 64.737006 
L 119.161572 60.506889 
L 120.304883 57.241073 
L 120.876538 56.210289 
L 121.448194 55.820245 
L 122.019849 55.900548 
L 123.16316 56.363427 
L 124.306471 57.029531 
L 125.163954 56.248376 
L 127.164748 53.989722 
L 127.736403 53.718192 
L 128.022231 53.711802 
L 128.308059 53.879439 
L 128.593886 54.209637 
L 129.45137 56.270914 
L 131.452164 62.594894 
L 132.023819 64.731247 
L 134.310441 71.34116 
L 135.739579 76.331239 
L 137.454545 83.535237 
L 137.454545 83.535237 
" style="fill:none;stroke:#ff0000;stroke-linecap:square;stroke-width:1.5;"/>
   </g>
   <g id="patch_3">
    <path d="M 0 144 
L 0 0 
" style="fill:none;stroke:#ffffff;stroke-linecap:square;stroke-linejoin:miter;stroke-width:0.8;"/>
   </g>
   <g id="patch_4">
    <path d="M 144 144 
L 144 0 
" style="fill:none;stroke:#ffffff;stroke-linecap:square;stroke-linejoin:miter;stroke-width:0.8;"/>
   </g>
   <g id="patch_5">
    <path d="M 0 144 
L 144 144 
" style="fill:none;stroke:#ffffff;stroke-linecap:square;stroke-linejoin:miter;stroke-width:0.8;"/>
   </g>
   <g id="patch_6">
    <path d="M 0 0 
L 144 0 
" style="fill:none;stroke:#ffffff;stroke-linecap:square;stroke-linejoin:miter;stroke-width:0.8;"/>
   </g>
  </g>
  <g id="text_1">
   <g id="patch_7">
    <path d="M -64.84815 36.3681 
L 208.84815 36.3681 
L 208.84815 -7.65432 
L -64.84815 -7.65432 
z
" style="fill:#ffff00;stroke:#ffff00;stroke-linejoin:miter;"/>
   </g>
   <!--  -->
   <g transform="translate(72 9.45018)scale(0.1728 -0.1728)"/>
   <!--            CORONADATA            -->
   <g transform="translate(-60.87375 28.8)scale(0.1728 -0.1728)">
    <defs>
     <path id="DejaVuSans-Bold-32"/>
     <path d="M 67 4 
Q 61.8125 1.3125 56.203125 -0.046875 
Q 50.59375 -1.421875 44.484375 -1.421875 
Q 26.265625 -1.421875 15.625 8.765625 
Q 4.984375 18.953125 4.984375 36.375 
Q 4.984375 53.859375 15.625 64.03125 
Q 26.265625 74.21875 44.484375 74.21875 
Q 50.59375 74.21875 56.203125 72.84375 
Q 61.8125 71.484375 67 68.796875 
L 67 53.71875 
Q 61.765625 57.28125 56.6875 58.9375 
Q 51.609375 60.59375 46 60.59375 
Q 35.9375 60.59375 30.171875 54.140625 
Q 24.421875 47.703125 24.421875 36.375 
Q 24.421875 25.09375 30.171875 18.640625 
Q 35.9375 12.203125 46 12.203125 
Q 51.609375 12.203125 56.6875 13.859375 
Q 61.765625 15.53125 67 19.09375 
z
" id="DejaVuSans-Bold-67"/>
     <path d="M 42.484375 60.59375 
Q 33.890625 60.59375 29.15625 54.25 
Q 24.421875 47.90625 24.421875 36.375 
Q 24.421875 24.90625 29.15625 18.546875 
Q 33.890625 12.203125 42.484375 12.203125 
Q 51.125 12.203125 55.859375 18.546875 
Q 60.59375 24.90625 60.59375 36.375 
Q 60.59375 47.90625 55.859375 54.25 
Q 51.125 60.59375 42.484375 60.59375 
z
M 42.484375 74.21875 
Q 60.0625 74.21875 70.015625 64.15625 
Q 79.984375 54.109375 79.984375 36.375 
Q 79.984375 18.703125 70.015625 8.640625 
Q 60.0625 -1.421875 42.484375 -1.421875 
Q 24.953125 -1.421875 14.96875 8.640625 
Q 4.984375 18.703125 4.984375 36.375 
Q 4.984375 54.109375 14.96875 64.15625 
Q 24.953125 74.21875 42.484375 74.21875 
z
" id="DejaVuSans-Bold-79"/>
     <path d="M 35.890625 40.578125 
Q 41.796875 40.578125 44.359375 42.765625 
Q 46.921875 44.96875 46.921875 50 
Q 46.921875 54.984375 44.359375 57.125 
Q 41.796875 59.28125 35.890625 59.28125 
L 27.984375 59.28125 
L 27.984375 40.578125 
z
M 27.984375 27.59375 
L 27.984375 0 
L 9.1875 0 
L 9.1875 72.90625 
L 37.890625 72.90625 
Q 52.296875 72.90625 59 68.0625 
Q 65.71875 63.234375 65.71875 52.78125 
Q 65.71875 45.5625 62.21875 40.921875 
Q 58.734375 36.28125 51.703125 34.078125 
Q 55.5625 33.203125 58.609375 30.09375 
Q 61.671875 27 64.796875 20.703125 
L 75 0 
L 54.984375 0 
L 46.09375 18.109375 
Q 43.40625 23.578125 40.640625 25.578125 
Q 37.890625 27.59375 33.296875 27.59375 
z
" id="DejaVuSans-Bold-82"/>
     <path d="M 9.1875 72.90625 
L 30.171875 72.90625 
L 56.6875 22.90625 
L 56.6875 72.90625 
L 74.515625 72.90625 
L 74.515625 0 
L 53.515625 0 
L 27 50 
L 27 0 
L 9.1875 0 
z
" id="DejaVuSans-Bold-78"/>
     <path d="M 53.421875 13.28125 
L 24.03125 13.28125 
L 19.390625 0 
L 0.484375 0 
L 27.484375 72.90625 
L 49.90625 72.90625 
L 76.90625 0 
L 58.015625 0 
z
M 28.71875 26.8125 
L 48.6875 26.8125 
L 38.71875 55.8125 
z
" id="DejaVuSans-Bold-65"/>
     <path d="M 27.984375 58.6875 
L 27.984375 14.203125 
L 34.71875 14.203125 
Q 46.234375 14.203125 52.3125 19.921875 
Q 58.40625 25.640625 58.40625 36.53125 
Q 58.40625 47.359375 52.34375 53.015625 
Q 46.296875 58.6875 34.71875 58.6875 
z
M 9.1875 72.90625 
L 29 72.90625 
Q 45.609375 72.90625 53.734375 70.53125 
Q 61.859375 68.171875 67.671875 62.5 
Q 72.796875 57.5625 75.28125 51.109375 
Q 77.78125 44.671875 77.78125 36.53125 
Q 77.78125 28.265625 75.28125 21.796875 
Q 72.796875 15.328125 67.671875 10.40625 
Q 61.8125 4.734375 53.609375 2.359375 
Q 45.40625 0 29 0 
L 9.1875 0 
z
" id="DejaVuSans-Bold-68"/>
     <path d="M 0.484375 72.90625 
L 67.671875 72.90625 
L 67.671875 58.6875 
L 43.5 58.6875 
L 43.5 0 
L 24.703125 0 
L 24.703125 58.6875 
L 0.484375 58.6875 
z
" id="DejaVuSans-Bold-84"/>
    </defs>
    <use xlink:href="#DejaVuSans-Bold-32"/>
    <use x="34.814453" xlink:href="#DejaVuSans-Bold-32"/>
    <use x="69.628906" xlink:href="#DejaVuSans-Bold-32"/>
    <use x="104.443359" xlink:href="#DejaVuSans-Bold-32"/>
    <use x="139.257812" xlink:href="#DejaVuSans-Bold-32"/>
    <use x="174.072266" xlink:href="#DejaVuSans-Bold-32"/>
    <use x="208.886719" xlink:href="#DejaVuSans-Bold-32"/>
    <use x="243.701172" xlink:href="#DejaVuSans-Bold-32"/>
    <use x="278.515625" xlink:href="#DejaVuSans-Bold-32"/>
    <use x="313.330078" xlink:href="#DejaVuSans-Bold-32"/>
    <use x="348.144531" xlink:href="#DejaVuSans-Bold-32"/>
    <use x="382.958984" xlink:href="#DejaVuSans-Bold-67"/>
    <use x="456.347656" xlink:href="#DejaVuSans-Bold-79"/>
    <use x="541.357422" xlink:href="#DejaVuSans-Bold-82"/>
    <use x="618.359375" xlink:href="#DejaVuSans-Bold-79"/>
    <use x="703.369141" xlink:href="#DejaVuSans-Bold-78"/>
    <use x="787.060547" xlink:href="#DejaVuSans-Bold-65"/>
    <use x="864.453125" xlink:href="#DejaVuSans-Bold-68"/>
    <use x="947.460938" xlink:href="#DejaVuSans-Bold-65"/>
    <use x="1017.103516" xlink:href="#DejaVuSans-Bold-84"/>
    <use x="1077.566406" xlink:href="#DejaVuSans-Bold-65"/>
    <use x="1154.958984" xlink:href="#DejaVuSans-Bold-32"/>
    <use x="1189.773438" xlink:href="#DejaVuSans-Bold-32"/>
    <use x="1224.587891" xlink:href="#DejaVuSans-Bold-32"/>
    <use x="1259.402344" xlink:href="#DejaVuSans-Bold-32"/>
    <use x="1294.216797" xlink:href="#DejaVuSans-Bold-32"/>
    <use x="1329.03125" xlink:href="#DejaVuSans-Bold-32"/>
    <use x="1363.845703" xlink:href="#DejaVuSans-Bold-32"/>
    <use x="1398.660156" xlink:href="#DejaVuSans-Bold-32"/>
    <use x="1433.474609" xlink:href="#DejaVuSans-Bold-32"/>
    <use x="1468.289062" xlink:href="#DejaVuSans-Bold-32"/>
    <use x="1503.103516" xlink:href="#DejaVuSans-Bold-32"/>
   </g>
  </g>
  <g id="text_2">
   <!-- Rt=0,82 -->
   <g style="fill:#4169e1;opacity:0.5;" transform="translate(26.46875 141.12)scale(0.2 -0.2)">
    <defs>
     <path d="M 27.484375 70.21875 
L 27.484375 54.6875 
L 45.515625 54.6875 
L 45.515625 42.1875 
L 27.484375 42.1875 
L 27.484375 19 
Q 27.484375 15.1875 29 13.84375 
Q 30.515625 12.5 35.015625 12.5 
L 44 12.5 
L 44 0 
L 29 0 
Q 18.65625 0 14.328125 4.3125 
Q 10.015625 8.640625 10.015625 19 
L 10.015625 42.1875 
L 1.3125 42.1875 
L 1.3125 54.6875 
L 10.015625 54.6875 
L 10.015625 70.21875 
z
" id="DejaVuSans-Bold-116"/>
     <path d="M 10.59375 48.1875 
L 73.1875 48.1875 
L 73.1875 36.71875 
L 10.59375 36.71875 
z
M 10.59375 25.984375 
L 73.1875 25.984375 
L 73.1875 14.40625 
L 10.59375 14.40625 
z
" id="DejaVuSans-Bold-61"/>
     <path d="M 46 36.53125 
Q 46 50.203125 43.4375 55.78125 
Q 40.875 61.375 34.8125 61.375 
Q 28.765625 61.375 26.171875 55.78125 
Q 23.578125 50.203125 23.578125 36.53125 
Q 23.578125 22.703125 26.171875 17.03125 
Q 28.765625 11.375 34.8125 11.375 
Q 40.828125 11.375 43.40625 17.03125 
Q 46 22.703125 46 36.53125 
z
M 64.796875 36.375 
Q 64.796875 18.265625 56.984375 8.421875 
Q 49.171875 -1.421875 34.8125 -1.421875 
Q 20.40625 -1.421875 12.59375 8.421875 
Q 4.78125 18.265625 4.78125 36.375 
Q 4.78125 54.546875 12.59375 64.375 
Q 20.40625 74.21875 34.8125 74.21875 
Q 49.171875 74.21875 56.984375 64.375 
Q 64.796875 54.546875 64.796875 36.375 
z
" id="DejaVuSans-Bold-48"/>
     <path d="M 10.203125 18.890625 
L 27.78125 18.890625 
L 27.78125 4 
L 15.71875 -14.203125 
L 5.328125 -14.203125 
L 10.203125 4 
z
" id="DejaVuSans-Bold-44"/>
     <path d="M 34.8125 32.625 
Q 29.546875 32.625 26.703125 29.734375 
Q 23.875 26.859375 23.875 21.484375 
Q 23.875 16.109375 26.703125 13.25 
Q 29.546875 10.40625 34.8125 10.40625 
Q 40.046875 10.40625 42.828125 13.25 
Q 45.609375 16.109375 45.609375 21.484375 
Q 45.609375 26.90625 42.828125 29.765625 
Q 40.046875 32.625 34.8125 32.625 
z
M 21.09375 38.8125 
Q 14.453125 40.828125 11.078125 44.96875 
Q 7.71875 49.125 7.71875 55.328125 
Q 7.71875 64.546875 14.59375 69.375 
Q 21.484375 74.21875 34.8125 74.21875 
Q 48.046875 74.21875 54.921875 69.40625 
Q 61.8125 64.59375 61.8125 55.328125 
Q 61.8125 49.125 58.421875 44.96875 
Q 55.03125 40.828125 48.390625 38.8125 
Q 55.8125 36.765625 59.59375 32.15625 
Q 63.375 27.546875 63.375 20.515625 
Q 63.375 9.671875 56.171875 4.125 
Q 48.96875 -1.421875 34.8125 -1.421875 
Q 20.609375 -1.421875 13.359375 4.125 
Q 6.109375 9.671875 6.109375 20.515625 
Q 6.109375 27.546875 9.890625 32.15625 
Q 13.671875 36.765625 21.09375 38.8125 
z
M 25.484375 53.421875 
Q 25.484375 49.078125 27.90625 46.734375 
Q 30.328125 44.390625 34.8125 44.390625 
Q 39.203125 44.390625 41.59375 46.734375 
Q 44 49.078125 44 53.421875 
Q 44 57.765625 41.59375 60.078125 
Q 39.203125 62.40625 34.8125 62.40625 
Q 30.328125 62.40625 27.90625 60.0625 
Q 25.484375 57.71875 25.484375 53.421875 
z
" id="DejaVuSans-Bold-56"/>
     <path d="M 28.8125 13.8125 
L 60.890625 13.8125 
L 60.890625 0 
L 7.90625 0 
L 7.90625 13.8125 
L 34.515625 37.3125 
Q 38.09375 40.53125 39.796875 43.609375 
Q 41.5 46.6875 41.5 50 
Q 41.5 55.125 38.0625 58.25 
Q 34.625 61.375 28.90625 61.375 
Q 24.515625 61.375 19.28125 59.5 
Q 14.0625 57.625 8.109375 53.90625 
L 8.109375 69.921875 
Q 14.453125 72.015625 20.65625 73.109375 
Q 26.859375 74.21875 32.8125 74.21875 
Q 45.90625 74.21875 53.15625 68.453125 
Q 60.40625 62.703125 60.40625 52.390625 
Q 60.40625 46.4375 57.328125 41.28125 
Q 54.25 36.140625 44.390625 27.484375 
z
" id="DejaVuSans-Bold-50"/>
    </defs>
    <use xlink:href="#DejaVuSans-Bold-82"/>
    <use x="77.001953" xlink:href="#DejaVuSans-Bold-116"/>
    <use x="124.804688" xlink:href="#DejaVuSans-Bold-61"/>
    <use x="208.59375" xlink:href="#DejaVuSans-Bold-48"/>
    <use x="278.173828" xlink:href="#DejaVuSans-Bold-44"/>
    <use x="316.162109" xlink:href="#DejaVuSans-Bold-56"/>
    <use x="385.742188" xlink:href="#DejaVuSans-Bold-50"/>
   </g>
  </g>
 </g>
 <defs>
  <clipPath id="p4a8f5d0413">
   <rect height="144" width="144" x="0" y="0"/>
  </clipPath>
 </defs>
</svg>
