<?xml version="1.0" encoding="utf-8"?>
<!-- Generator: Adobe Illustrator 25.2.3, SVG Export Plug-In . SVG Version: 6.00 Build 0)  -->
<svg version="1.1" id="Layer_1" xmlns="http://www.w3.org/2000/svg" xmlns:xlink="http://www.w3.org/1999/xlink" x="0px" y="0px"
	 viewBox="0 0 273.1 141.9" style="enable-background:new 0 0 273.1 141.9;" xml:space="preserve">
<style type="text/css">
	.st0{fill:none;}
	.st1{fill:#00318B;}
	.st2{fill:#008FE5;}
</style>
<path class="st0" d="M112.1,83.3c-3.1,0-5.7,2.5-5.7,5.7c0,3.1,2.5,5.7,5.7,5.7c3.1,0,5.7-2.5,5.7-5.7l0,0
	C117.7,85.9,115.2,83.3,112.1,83.3z"/>
<path class="st1" d="M134.9,82.2c-1.8-0.6-2.8-2.5-2.3-4.3c0.6-1.8,2.5-2.8,4.3-2.3l0,0l1,0.3l13.6-41.9c0-0.1,0.1-0.3,0.2-0.4H98.1
	v4.3h2.9v10.8c0,2.2,1.7,4,3.9,4.1c0,0,0.1,0,0.1,0h0.7v18.3c0,2.2,1.7,4,3.9,4.1c0,0,0.1,0,0.1,0h2.3c7.7,0,13.9,6.2,13.9,13.9
	l0.1,7.1c0,2.2,1.7,4,3.9,4.1c0,0,0.1,0,0.1,0h15.2l-10.4-3.4c-1.1-0.3-2-1.2-2.3-2.4c-0.5-1.6,0.3-3.3,1.8-4l0,0
	c0.8-0.4,1.7-0.4,2.5-0.2l0.9,0.3l2.2-6.6"/>
<path class="st1" d="M112.1,77.8c-6.1,0-11.1,4.9-11.1,11c0,6.1,4.9,11.1,11,11.1c6.1,0,11.1-4.9,11.1-11l0,0
	c0.1-6.1-4.8-11.1-10.8-11.1C112.2,77.8,112.1,77.8,112.1,77.8z M112.1,94.7c-3.1,0-5.7-2.5-5.7-5.7c0-3.1,2.5-5.7,5.7-5.7
	c3.1,0,5.7,2.5,5.7,5.7l0,0C117.7,92.1,115.2,94.7,112.1,94.7z"/>
<path class="st1" d="M155.7,28.2l-3.2-4.2c-0.7-1-1.9-1.6-3.1-1.6H147l-1.2-2.2c-0.4-0.9-1.3-1.6-2.3-1.6h-29.6
	c-1,0.1-1.9,0.7-2.3,1.6l-1.2,2.2h-2.4c-1.2,0-2.4,0.6-3.1,1.6l-6.3,8.2h53.7C153.2,30.7,154.3,29.3,155.7,28.2z"/>
<path class="st1" d="M141.5,83.9l-2.9,9L136,92c-0.9-0.2-1.7,0.3-2,1.1c-0.2,0.8,0.2,1.6,0.9,1.9l16.6,5.4c0.9,0.2,1.8-0.3,2-1.2
	c0.2-0.8-0.2-1.7-1-2l-3.1-0.9l2.9-9L141.5,83.9z"/>
<path class="st1" d="M172.9,1l-5.4,16.5c-0.6,0-1.2,0.2-1.7,0.5c-1,0.5-1.8,1.4-2.1,2.5c0,0,0,0.1-0.1,0.1c-0.3,0.8-0.6,1.6-0.8,2.4
	l-0.9,3c2.7,0,5.3,0.8,7.6,2.4c0.6-1.8,1.2-3.5,1.8-5.2c0.1-0.3,0.2-0.6,0.2-0.9c0.3-1.6-0.4-3.3-1.8-4.2L175,1.7
	c0.3-0.6,0-1.3-0.6-1.6c0,0-0.1,0-0.1,0c-0.6-0.3-1.3,0-1.6,0.6c0,0,0,0,0,0C172.9,0.9,172.9,0.9,172.9,1L172.9,1z"/>
<path class="st2" d="M153,34.4l-14.2,43.9l-2.8-1c-0.8-0.3-1.7,0.1-2,0.9c-0.3,0.8,0.1,1.7,0.8,2c0.1,0,0.2,0.1,0.3,0.1l24.6,7.9
	c0.8,0.3,1.7-0.1,2-0.9c0,0,0-0.1,0-0.1l0,0c0.3-0.8-0.1-1.6-0.8-1.9c-0.1,0-0.1,0-0.2-0.1l0,0l-2.9-0.9l14.2-43.8
	c1.6-5.2-1.3-10.8-6.5-12.5l0,0C160.2,26.4,154.7,29.2,153,34.4z M150.4,74.9c-0.1,0.5-0.6,0.7-1.1,0.6c0,0,0,0,0,0l-5.1-1.6
	c-0.5-0.1-0.8-0.5-0.9-1c0.1-0.5,0.5-0.8,1-0.8c0.1,0,0.3,0.1,0.4,0.1l5.1,1.6C150.2,73.9,150.4,74.4,150.4,74.9L150.4,74.9z
	 M152.2,69.1L152.2,69.1c-0.1,0.5-0.6,0.7-1.1,0.6c0,0,0,0,0,0L146,68c-0.5-0.1-0.7-0.6-0.6-1.1c0,0,0,0,0,0l0,0
	c0.1-0.5,0.6-0.7,1.1-0.6c0,0,0,0,0,0l5.1,1.6C152.1,68.1,152.3,68.6,152.2,69.1L152.2,69.1z M154.1,63.2L154.1,63.2
	c-0.1,0.5-0.7,0.7-1.1,0.6c0,0,0,0,0,0l-5-1.6c-0.5-0.3-0.6-0.8-0.4-1.3c0.2-0.3,0.6-0.5,0.9-0.5l5.1,1.6
	C154.1,62.2,154.3,62.7,154.1,63.2z M155.9,57.6L155.9,57.6c-0.1,0.5-0.6,0.7-1.1,0.6c0,0,0,0,0,0l-5.1-1.6
	c-0.5-0.3-0.6-0.8-0.4-1.3c0.2-0.3,0.6-0.5,0.9-0.5l5.1,1.6C155.8,56.6,156.1,57.1,155.9,57.6L155.9,57.6z M157.6,52.3
	c-0.2,0.5-0.6,0.8-1.1,0.7l0,0l-5.1-1.6c-0.5-0.1-0.9-0.5-0.8-1.1c0.1-0.5,0.5-0.9,1-0.8c0.1,0,0.3,0.1,0.4,0.1l5.1,1.6
	C157.5,51.4,157.8,51.9,157.6,52.3C157.6,52.3,157.6,52.3,157.6,52.3L157.6,52.3z M159.4,46.9c-0.1,0.5-0.7,0.7-1.1,0.6c0,0,0,0,0,0
	l-5.1-1.6c-0.5-0.1-0.7-0.6-0.6-1.1c0,0,0,0,0,0l0,0c0.1-0.5,0.6-0.7,1.1-0.6c0,0,0,0,0,0l5.1,1.6C159.3,45.9,159.6,46.4,159.4,46.9
	C159.4,46.9,159.4,46.9,159.4,46.9L159.4,46.9z M160.6,40.4c0.5,0.1,0.7,0.6,0.6,1.1c0,0,0,0,0,0l0,0c-0.1,0.5-0.7,0.7-1.1,0.6
	c0,0,0,0,0,0l-5.1-1.6c-0.5-0.1-0.9-0.5-0.9-1c0.1-0.5,0.5-0.9,1-0.8c0.1,0,0.3,0.1,0.4,0.1L160.6,40.4z M157.3,33.3l5.1,1.6
	c0.5,0.2,0.7,0.7,0.6,1.1l0,0c-0.1,0.5-0.6,0.7-1.1,0.6c0,0,0,0,0,0l-5.1-1.6c-0.5-0.1-0.7-0.6-0.6-1.1c0,0,0,0,0,0l0,0
	c0.1-0.4,0.6-0.7,1-0.6C157.3,33.2,157.3,33.2,157.3,33.3L157.3,33.3z"/>
<path class="st2" d="M165.5,28L165.5,28c-2.7-0.9-5.7-0.5-8.2,0.9V33h-2.9v6.1c0.2-0.3,0.6-0.4,1-0.4l5.1,1.6
	c0.5,0.1,0.7,0.6,0.6,1.1c0,0,0,0,0,0l0,0c-0.1,0.5-0.6,0.7-1.1,0.6c0,0,0,0,0,0l-5.1-1.6c-0.2-0.1-0.4-0.2-0.5-0.4v4.1l4.4,1.4
	c0.5,0.3,0.6,0.8,0.4,1.3c-0.2,0.3-0.6,0.5-0.9,0.5l-4.5-1.4c-0.8,1.1-2,1.9-3.4,1.9h-0.7v7.1c0.2-0.1,0.5-0.1,0.7,0l5.1,1.6
	c0.4,0.3,0.6,0.9,0.4,1.3c-0.2,0.3-0.6,0.5-0.9,0.5l-5.1-1.6h-0.1v4.2l3.9,1.2c0.5,0,0.9,0.5,0.9,1c0,0.5-0.5,0.9-1,0.9c0,0,0,0,0,0
	c-0.1,0-0.3-0.1-0.4-0.1l-3.3-1v4.5l2,0.7c0.5,0.1,0.8,0.6,0.7,1.1c-0.1,0.5-0.6,0.8-1.1,0.7c-0.1,0-0.1,0-0.2-0.1l-1.4-0.5v4.3h0.1
	c0.4,0.2,0.7,0.6,0.5,1.1c0,0,0,0.1-0.1,0.1c-0.1,0.3-0.4,0.5-0.7,0.6v6.2l0,0v3.4l10,3.2c0.8,0.3,1.7-0.1,2-0.9c0,0,0-0.1,0-0.1
	l0,0c0.3-0.8-0.1-1.7-0.9-2c0,0-0.1,0-0.1,0l0,0l-2.9-0.9l14.2-43.8c1.8-5.1-0.9-10.7-6-12.5C165.7,28.1,165.6,28,165.5,28z
	 M157.6,52.4c-0.2,0.5-0.6,0.8-1.1,0.7l0,0l-5.1-1.6c-0.5-0.1-0.9-0.5-0.8-1.1c0.1-0.5,0.5-0.9,1-0.8c0.1,0,0.3,0.1,0.4,0.1l5.1,1.6
	C157.5,51.4,157.7,51.9,157.6,52.4L157.6,52.4z M162.9,36c-0.1,0.5-0.6,0.7-1.1,0.6c0,0,0,0,0,0l-5.1-1.6c-0.4-0.3-0.6-0.9-0.4-1.3
	c0.2-0.3,0.6-0.5,0.9-0.5l5.1,1.6C162.8,35,163,35.5,162.9,36L162.9,36z"/>
<path class="st1" d="M0,118.5h6.6c4.9,0,8.3,1.7,8.3,6.6c0,4.9-3.5,7-8.2,7H3.4v8.3H0V118.5z M6.4,129.3c3.5,0,5.2-1.3,5.2-4.2
	s-1.8-3.8-5.3-3.8H3.4v8L6.4,129.3z"/>
<path class="st1" d="M18.9,124h2.8l0.3,3h0.1c1.1-2.1,2.9-3.4,4.6-3.4c0.6,0,1.3,0.1,1.8,0.4l-0.6,3c-0.5-0.2-1.1-0.3-1.6-0.3
	c-1.3,0-2.9,0.9-4,3.5v10.2h-3.4V124z"/>
<path class="st1" d="M30.8,134.3V124h3.4v9.9c0,2.8,0.8,3.9,2.7,3.9c1.5,0,2.5-0.7,3.9-2.4V124h3.4v16.3h-2.8l-0.3-2.5h-0.1
	c-1.5,1.7-3.1,2.9-5.3,2.9C32.4,140.7,30.8,138.4,30.8,134.3z"/>
<path class="st1" d="M49.5,136.5v-19.8h3.4v20c0,0.9,0.4,1.2,0.8,1.2c0.2,0,0.4,0,0.6-0.1l0.4,2.6c-0.6,0.2-1.2,0.3-1.8,0.3
	C50.4,140.7,49.5,139.1,49.5,136.5z"/>
<path class="st1" d="M58.3,136.5v-19.8h3.4v20c0,0.9,0.4,1.2,0.8,1.2c0.2,0,0.4,0,0.6-0.1l0.5,2.6c-0.6,0.2-1.2,0.3-1.8,0.3
	C59.2,140.7,58.3,139.1,58.3,136.5z"/>
<path class="st1" d="M66,132.2c0-5.3,3.7-8.6,7.4-8.6c4.3,0,6.7,3.1,6.7,7.7c0,0.6-0.1,1.2-0.2,1.8H69.3c0.3,3.1,2.2,5,5,5
	c1.4,0,2.7-0.4,3.9-1.2l1.2,2.2c-1.6,1.1-3.5,1.7-5.5,1.7C69.5,140.7,66,137.6,66,132.2z M77.2,130.7c0-2.8-1.3-4.4-3.7-4.4
	c-2,0-3.9,1.6-4.2,4.4H77.2z"/>
<path class="st1" d="M83.9,124h2.8l0.3,2.3h0.1c1.5-1.5,3.2-2.7,5.4-2.7c3.5,0,5,2.3,5,6.5v10.3h-3.4v-9.9c0-2.8-0.8-3.9-2.8-3.9
	c-1.5,0-2.6,0.8-4,2.2v11.6h-3.4V124z"/>
<path class="st1" d="M105.5,138.6L105.5,138.6l-0.4,1.7h-2.7v-23.7h3.4v6.3l-0.1,2.8c1.3-1.3,3-2,4.9-2.1c4.1,0,6.5,3.3,6.5,8.3
	c0,5.6-3.3,8.8-7,8.8C108.4,140.6,106.7,139.9,105.5,138.6z M113.5,132c0-3.4-1.1-5.5-3.8-5.5c-1.5,0.1-2.9,0.8-3.9,2v8
	c1,0.9,2.2,1.4,3.5,1.5C111.8,137.9,113.6,135.8,113.5,132L113.5,132z"/>
<path class="st1" d="M119.7,136c0-3.5,3-5.3,9.8-6.1c0-1.9-0.7-3.6-3.1-3.6c-1.7,0.1-3.3,0.7-4.7,1.7l-1.3-2.3
	c2-1.3,4.2-2.1,6.6-2.1c4.1,0,5.9,2.6,5.9,6.9v9.8h-2.8l-0.3-1.9h-0.1c-1.4,1.3-3.3,2.1-5.2,2.2c-2.5,0.2-4.6-1.7-4.8-4.2
	C119.7,136.4,119.7,136.2,119.7,136z M129.5,136.1v-4c-4.8,0.6-6.5,1.8-6.5,3.7c0,1.6,1.1,2.2,2.6,2.2
	C127.1,137.9,128.5,137.2,129.5,136.1z"/>
<path class="st1" d="M137.7,116.7h3.4v15.2h0.1l6.3-7.9h3.8l-5.5,6.7l6.1,9.7h-3.7l-4.4-7.3l-2.7,3.1v4.2h-3.4V116.7z"/>
<path class="st2" d="M152.6,124.2h2.8l3,9.2c0.5,1.6,1,3.2,1.5,4.8h0.1c0.5-1.5,1-3.2,1.5-4.8l3.1-9.2h2.7l-5.7,16.1h-3.1
	L152.6,124.2z"/>
<path class="st2" d="M168.8,136.1c0-3.5,3-5.2,9.9-6c0-2.1-0.7-4.1-3.3-4.1c-1.7,0.1-3.4,0.7-4.8,1.7l-1.1-1.9
	c1.9-1.3,4.1-2,6.4-2.1c3.9,0,5.6,2.6,5.6,6.6v9.9h-2.2l-0.2-1.9h-0.1c-1.5,1.4-3.3,2.2-5.3,2.3c-2.4,0.2-4.5-1.6-4.7-4
	C168.8,136.5,168.8,136.3,168.8,136.1z M178.7,136.4v-4.5c-5.4,0.6-7.3,2-7.3,4.1c0,1.8,1.2,2.6,2.9,2.6S177.1,137.8,178.7,136.4
	L178.7,136.4z"/>
<path class="st2" d="M185.3,132.3c0-5.4,3.6-8.5,7.8-8.5c1.8,0,3.4,0.7,4.7,1.9l-1.4,1.8c-0.8-0.9-2-1.4-3.2-1.4
	c-2.9,0-5.1,2.5-5.1,6.2s2,6.2,5,6.2c1.4,0,2.8-0.6,3.8-1.6l1.2,1.8c-1.4,1.3-3.3,2-5.2,2.1C188.6,140.7,185.3,137.6,185.3,132.3z"
	/>
<path class="st2" d="M199.7,132.3c0-5.4,3.6-8.5,7.8-8.5c1.8,0,3.4,0.7,4.7,1.9l-1.4,1.8c-0.8-0.9-2-1.4-3.2-1.4
	c-2.9,0-5.1,2.5-5.1,6.2s2,6.2,5,6.2c1.4,0,2.8-0.6,3.8-1.6l1.2,1.8c-1.4,1.3-3.3,2-5.2,2.1C203,140.7,199.7,137.6,199.7,132.3z"/>
<path class="st2" d="M215.6,119.1c0-1,0.8-1.8,1.8-1.8c1,0,1.8,0.8,1.8,1.8c0,1-0.8,1.8-1.8,1.8l0,0c-0.9,0.1-1.7-0.6-1.8-1.6
	C215.6,119.2,215.6,119.2,215.6,119.1z M216,124.2h2.7v16.1H216L216,124.2z"/>
<path class="st2" d="M224.2,124.2h2.2l0.2,2.3h0.1c1.6-1.5,3.2-2.7,5.4-2.7c3.4,0,4.9,2.2,4.9,6.3v10.2h-2.7v-9.9
	c0-3-0.9-4.3-3.1-4.3c-1.7,0-2.8,0.8-4.4,2.5v11.7h-2.7V124.2z"/>
<path class="st2" d="M241.8,138.7c-0.2-1.1,0.5-2.1,1.5-2.4c1.1-0.2,2.1,0.5,2.4,1.5c0.1,0.3,0.1,0.6,0,0.8c0.2,1.1-0.5,2.1-1.5,2.4
	c-1.1,0.2-2.1-0.5-2.4-1.5C241.7,139.2,241.7,138.9,241.8,138.7z"/>
<path class="st2" d="M250.6,124.2h2.2l0.2,2.3h0.1c1.5-1.5,3.2-2.7,5.4-2.7c3.4,0,4.9,2.2,4.9,6.3v10.2h-2.7v-9.9c0-3-0.9-4.3-3-4.3
	c-1.7,0-2.8,0.8-4.4,2.5v11.7h-2.7L250.6,124.2z"/>
<path class="st2" d="M268.7,137.1v-20.4h2.7v20.6c0,0.8,0.4,1.2,0.8,1.2c0.2,0,0.4,0,0.6-0.1l0.4,2.1c-0.5,0.2-1,0.3-1.6,0.2
	C269.5,140.7,268.7,139.4,268.7,137.1z"/>
</svg>
