<?xml version="1.0" encoding="utf-8" standalone="no"?>
<!DOCTYPE svg PUBLIC "-//W3C//DTD SVG 1.1//EN"
  "http://www.w3.org/Graphics/SVG/1.1/DTD/svg11.dtd">
<!-- Created with matplotlib (https://matplotlib.org/) -->
<svg height="360pt" version="1.1" viewBox="0 0 720 360" width="720pt" xmlns="http://www.w3.org/2000/svg" xmlns:xlink="http://www.w3.org/1999/xlink">
 <metadata>
  <rdf:RDF xmlns:cc="http://creativecommons.org/ns#" xmlns:dc="http://purl.org/dc/elements/1.1/" xmlns:rdf="http://www.w3.org/1999/02/22-rdf-syntax-ns#">
   <cc:Work>
    <dc:type rdf:resource="http://purl.org/dc/dcmitype/StillImage"/>
    <dc:date>2022-04-30T23:35:30.027256</dc:date>
    <dc:format>image/svg+xml</dc:format>
    <dc:creator>
     <cc:Agent>
      <dc:title>Matplotlib v3.3.2, https://matplotlib.org/</dc:title>
     </cc:Agent>
    </dc:creator>
   </cc:Work>
  </rdf:RDF>
 </metadata>
 <defs>
  <style type="text/css">*{stroke-linecap:butt;stroke-linejoin:round;}</style>
 </defs>
 <g id="figure_1">
  <g id="patch_1">
   <path d="M 0 360 
L 720 360 
L 720 0 
L 0 0 
z
" style="fill:#ffffff;"/>
  </g>
  <g id="axes_1">
   <g id="patch_2">
    <path d="M 64.8 313.2 
L 655.2 313.2 
L 655.2 28.8 
L 64.8 28.8 
z
" style="fill:#ffffff;"/>
   </g>
   <g id="PolyCollection_1">
    <path clip-path="url(#pb5a3872759)" d="M 91.636364 300.272727 
L 91.636364 300.272727 
L 92.656758 300.272727 
L 93.677152 300.272727 
L 94.697546 300.272727 
L 95.71794 300.272727 
L 96.738334 300.272727 
L 99.799516 300.272727 
L 100.81991 300.272727 
L 101.840304 300.272727 
L 102.860698 300.272727 
L 103.881092 300.272727 
L 104.901486 300.272727 
L 105.92188 300.272727 
L 106.942274 300.272727 
L 107.962669 300.272727 
L 108.983063 300.272727 
L 110.003457 300.272727 
L 111.023851 300.272727 
L 112.044245 300.272727 
L 113.064639 300.272727 
L 114.085033 300.272727 
L 115.105427 300.272727 
L 116.125821 300.272727 
L 117.146215 300.272727 
L 118.166609 300.272727 
L 119.187003 300.272727 
L 120.207397 300.272727 
L 121.227791 300.272727 
L 122.248185 300.272727 
L 123.268579 300.272727 
L 124.288973 300.272727 
L 125.309367 300.272727 
L 126.329761 300.272727 
L 127.350156 300.272727 
L 128.37055 300.272727 
L 129.390944 300.272727 
L 130.411338 300.272727 
L 131.431732 300.272727 
L 132.452126 300.272727 
L 133.47252 300.272727 
L 134.492914 300.272727 
L 135.513308 300.272727 
L 136.533702 300.272727 
L 137.554096 300.272727 
L 138.57449 300.272727 
L 139.594884 300.272727 
L 140.615278 300.272727 
L 141.635672 300.272727 
L 142.656066 300.272727 
L 143.67646 300.272727 
L 144.696854 300.272727 
L 145.717249 300.272727 
L 146.737643 300.272727 
L 147.758037 300.272727 
L 148.778431 300.272727 
L 149.798825 300.272727 
L 150.819219 300.272727 
L 151.839613 300.272727 
L 152.860007 300.272727 
L 153.880401 300.272727 
L 154.900795 300.272727 
L 155.921189 300.272727 
L 156.941583 300.272727 
L 157.961977 300.272727 
L 158.982371 300.272727 
L 160.002765 300.272727 
L 161.023159 300.272727 
L 162.043553 300.272727 
L 163.063947 300.272727 
L 164.084342 300.272727 
L 165.104736 300.272727 
L 166.12513 300.272727 
L 167.145524 300.272727 
L 168.165918 300.272727 
L 169.186312 300.272727 
L 170.206706 300.272727 
L 171.2271 300.272727 
L 172.247494 300.272727 
L 173.267888 300.272727 
L 174.288282 300.272727 
L 175.308676 300.272727 
L 176.32907 300.272727 
L 177.349464 300.272727 
L 178.369858 300.272727 
L 179.390252 300.272727 
L 180.410646 300.272727 
L 181.43104 300.272727 
L 182.451434 300.272727 
L 183.471829 300.272727 
L 184.492223 300.272727 
L 185.512617 300.272727 
L 186.533011 300.272727 
L 187.553405 300.272727 
L 188.573799 300.272727 
L 189.594193 300.272727 
L 190.614587 300.272727 
L 191.634981 300.272727 
L 192.655375 300.272727 
L 193.675769 300.272727 
L 194.696163 300.272727 
L 195.716557 300.272727 
L 196.736951 300.272727 
L 197.757345 300.272727 
L 198.777739 300.272727 
L 199.798133 300.272727 
L 200.818527 300.272727 
L 201.838922 300.272727 
L 202.859316 300.272727 
L 203.87971 300.272727 
L 204.900104 300.272727 
L 205.920498 300.272727 
L 206.940892 300.272727 
L 207.961286 300.272727 
L 208.98168 300.272727 
L 210.002074 300.272727 
L 211.022468 300.272727 
L 212.042862 300.272727 
L 214.08365 300.272727 
L 215.104044 300.272727 
L 216.124438 300.272727 
L 217.144832 300.272727 
L 218.165226 300.272727 
L 219.18562 300.272727 
L 220.206015 300.272727 
L 221.226409 300.272727 
L 222.246803 300.272727 
L 223.267197 300.272727 
L 224.287591 300.272727 
L 225.307985 300.272727 
L 226.328379 300.272727 
L 227.348773 300.272727 
L 228.369167 300.272727 
L 229.389561 300.272727 
L 230.409955 300.272727 
L 231.430349 300.272727 
L 232.450743 300.272727 
L 233.471137 300.272727 
L 234.491531 300.272727 
L 235.511925 300.272727 
L 236.532319 300.272727 
L 237.552713 300.272727 
L 238.573108 300.272727 
L 239.593502 300.272727 
L 240.613896 300.272727 
L 241.63429 300.272727 
L 242.654684 300.272727 
L 243.675078 300.272727 
L 244.695472 300.272727 
L 245.715866 300.272727 
L 246.73626 300.272727 
L 247.756654 300.272727 
L 248.777048 300.272727 
L 249.797442 300.272727 
L 250.817836 300.272727 
L 251.83823 300.272727 
L 252.858624 300.272727 
L 253.879018 300.272727 
L 254.899412 300.272727 
L 255.919806 300.272727 
L 256.9402 300.272727 
L 257.960595 300.272727 
L 258.980989 300.272727 
L 260.001383 300.272727 
L 261.021777 300.272727 
L 262.042171 300.272727 
L 263.062565 300.272727 
L 264.082959 300.272727 
L 265.103353 300.272727 
L 266.123747 300.272727 
L 267.144141 300.272727 
L 268.164535 300.272727 
L 269.184929 300.272727 
L 270.205323 300.272727 
L 271.225717 300.272727 
L 272.246111 300.272727 
L 273.266505 300.272727 
L 274.286899 300.272727 
L 275.307293 300.272727 
L 276.327688 300.272727 
L 277.348082 300.272727 
L 278.368476 300.272727 
L 279.38887 300.272727 
L 280.409264 300.272727 
L 281.429658 300.272727 
L 282.450052 300.272727 
L 283.470446 300.272727 
L 284.49084 300.272727 
L 285.511234 300.272727 
L 286.531628 300.272727 
L 287.552022 300.272727 
L 288.572416 300.272727 
L 289.59281 300.272727 
L 290.613204 300.272727 
L 291.633598 300.272727 
L 292.653992 300.272727 
L 293.674386 300.272727 
L 294.694781 300.272727 
L 295.715175 300.272727 
L 296.735569 300.272727 
L 297.755963 300.272727 
L 298.776357 300.272727 
L 299.796751 300.272727 
L 300.817145 300.272727 
L 301.837539 300.272727 
L 302.857933 300.272727 
L 304.898721 300.272727 
L 305.919115 300.272727 
L 306.939509 300.272727 
L 307.959903 300.272727 
L 308.980297 300.272727 
L 310.000691 300.272727 
L 311.021085 300.272727 
L 312.041479 300.272727 
L 313.061873 300.272727 
L 314.082268 300.272727 
L 315.102662 300.272727 
L 316.123056 300.272727 
L 317.14345 300.272727 
L 318.163844 300.272727 
L 319.184238 300.272727 
L 320.204632 300.272727 
L 321.225026 300.272727 
L 322.24542 300.272727 
L 323.265814 300.272727 
L 324.286208 300.272727 
L 325.306602 300.272727 
L 326.326996 300.272727 
L 327.34739 300.272727 
L 328.367784 300.272727 
L 329.388178 300.272727 
L 330.408572 300.272727 
L 331.428966 300.272727 
L 332.449361 300.272727 
L 333.469755 300.272727 
L 334.490149 300.272727 
L 335.510543 300.272727 
L 336.530937 300.272727 
L 337.551331 300.272727 
L 338.571725 300.272727 
L 339.592119 300.272727 
L 340.612513 300.272727 
L 341.632907 300.272727 
L 342.653301 300.272727 
L 343.673695 300.272727 
L 344.694089 300.272727 
L 345.714483 300.272727 
L 346.734877 300.272727 
L 347.755271 300.272727 
L 348.775665 300.272727 
L 349.796059 300.272727 
L 350.816454 300.272727 
L 351.836848 300.272727 
L 352.857242 300.272727 
L 353.877636 300.272727 
L 354.89803 300.272727 
L 355.918424 300.272727 
L 356.938818 300.272727 
L 357.959212 300.272727 
L 358.979606 300.272727 
L 360 300.272727 
L 361.020394 300.272727 
L 362.040788 300.272727 
L 363.061182 300.272727 
L 364.081576 300.272727 
L 365.10197 300.272727 
L 366.122364 300.272727 
L 367.142758 300.272727 
L 368.163152 300.272727 
L 369.183546 300.272727 
L 370.203941 300.272727 
L 371.224335 300.272727 
L 372.244729 300.272727 
L 373.265123 300.272727 
L 374.285517 300.272727 
L 375.305911 300.272727 
L 376.326305 300.272727 
L 377.346699 300.272727 
L 378.367093 300.272727 
L 379.387487 300.272727 
L 380.407881 300.272727 
L 381.428275 300.272727 
L 382.448669 300.272727 
L 383.469063 300.272727 
L 384.489457 300.272727 
L 385.509851 300.272727 
L 386.530245 300.272727 
L 387.550639 300.272727 
L 388.571034 300.272727 
L 389.591428 300.272727 
L 390.611822 300.272727 
L 391.632216 300.272727 
L 392.65261 300.272727 
L 393.673004 300.272727 
L 394.693398 300.272727 
L 395.713792 300.272727 
L 396.734186 300.272727 
L 397.75458 300.272727 
L 398.774974 300.272727 
L 399.795368 300.272727 
L 400.815762 300.272727 
L 401.836156 300.272727 
L 402.85655 300.272727 
L 403.876944 300.272727 
L 404.897338 300.272727 
L 405.917732 300.272727 
L 406.938127 300.272727 
L 407.958521 300.272727 
L 408.978915 300.272727 
L 409.999309 300.272727 
L 411.019703 300.272727 
L 412.040097 300.272727 
L 413.060491 300.272727 
L 414.080885 300.272727 
L 415.101279 300.272727 
L 416.121673 300.272727 
L 417.142067 300.272727 
L 418.162461 300.272727 
L 419.182855 300.272727 
L 420.203249 300.272727 
L 421.223643 300.272727 
L 422.244037 300.272727 
L 423.264431 300.272727 
L 424.284825 300.272727 
L 425.305219 300.272727 
L 426.325614 300.272727 
L 427.346008 300.272727 
L 428.366402 300.272727 
L 429.386796 300.272727 
L 430.40719 300.272727 
L 431.427584 300.272727 
L 432.447978 300.272727 
L 433.468372 300.272727 
L 434.488766 300.272727 
L 435.50916 300.272727 
L 436.529554 300.272727 
L 437.549948 300.272727 
L 438.570342 300.272727 
L 439.590736 300.272727 
L 440.61113 300.272727 
L 441.631524 300.272727 
L 442.651918 300.272727 
L 443.672312 300.272727 
L 444.692707 300.272727 
L 445.713101 300.272727 
L 446.733495 300.272727 
L 447.753889 300.272727 
L 448.774283 300.272727 
L 449.794677 300.272727 
L 450.815071 300.272727 
L 451.835465 300.272727 
L 452.855859 300.272727 
L 453.876253 300.272727 
L 454.896647 300.272727 
L 455.917041 300.272727 
L 456.937435 300.272727 
L 457.957829 300.272727 
L 458.978223 300.272727 
L 459.998617 300.272727 
L 461.019011 300.272727 
L 462.039405 300.272727 
L 463.0598 300.272727 
L 464.080194 300.272727 
L 465.100588 300.272727 
L 466.120982 300.272727 
L 467.141376 300.272727 
L 468.16177 300.272727 
L 469.182164 300.272727 
L 470.202558 300.272727 
L 471.222952 300.272727 
L 472.243346 300.272727 
L 473.26374 300.272727 
L 474.284134 300.272727 
L 475.304528 300.272727 
L 476.324922 300.272727 
L 477.345316 300.272727 
L 478.36571 300.272727 
L 479.386104 300.272727 
L 480.406498 300.272727 
L 481.426892 300.272727 
L 482.447287 300.272727 
L 483.467681 300.272727 
L 484.488075 300.272727 
L 485.508469 300.272727 
L 486.528863 300.272727 
L 487.549257 300.272727 
L 488.569651 300.272727 
L 489.590045 300.272727 
L 490.610439 300.272727 
L 491.630833 300.272727 
L 492.651227 300.272727 
L 493.671621 300.272727 
L 494.692015 300.272727 
L 495.712409 300.272727 
L 496.732803 300.272727 
L 497.753197 300.272727 
L 498.773591 300.272727 
L 499.793985 300.272727 
L 500.81438 300.272727 
L 501.834774 300.272727 
L 502.855168 300.272727 
L 503.875562 300.272727 
L 504.895956 300.272727 
L 505.91635 300.272727 
L 506.936744 300.272727 
L 507.957138 300.272727 
L 508.977532 300.272727 
L 509.997926 300.272727 
L 522.242655 300.272727 
L 523.263049 300.272727 
L 524.283443 300.272727 
L 525.303837 300.272727 
L 526.324231 300.272727 
L 527.344625 300.272727 
L 528.365019 300.272727 
L 529.385413 300.272727 
L 531.426201 300.272727 
L 532.446595 300.272727 
L 533.466989 300.272727 
L 534.487383 300.272727 
L 535.507777 300.272727 
L 536.528171 300.272727 
L 537.548566 300.272727 
L 538.56896 300.272727 
L 539.589354 300.272727 
L 540.609748 300.272727 
L 541.630142 300.272727 
L 542.650536 300.272727 
L 543.67093 300.272727 
L 544.691324 300.272727 
L 545.711718 300.272727 
L 546.732112 300.272727 
L 547.752506 300.272727 
L 548.7729 300.272727 
L 549.793294 300.272727 
L 550.813688 300.272727 
L 551.834082 300.272727 
L 552.854476 300.272727 
L 553.87487 300.272727 
L 554.895264 300.272727 
L 555.915658 300.272727 
L 556.936053 300.272727 
L 557.956447 300.272727 
L 558.976841 300.272727 
L 559.997235 300.272727 
L 561.017629 300.272727 
L 562.038023 300.272727 
L 563.058417 300.272727 
L 564.078811 300.272727 
L 565.099205 300.272727 
L 566.119599 300.272727 
L 567.139993 300.272727 
L 568.160387 300.272727 
L 569.180781 300.272727 
L 570.201175 300.272727 
L 573.262357 300.272727 
L 574.282751 300.272727 
L 575.303146 300.272727 
L 576.32354 300.272727 
L 577.343934 300.272727 
L 578.364328 300.272727 
L 579.384722 300.272727 
L 580.405116 300.272727 
L 581.42551 300.272727 
L 582.445904 300.272727 
L 583.466298 300.272727 
L 584.486692 300.272727 
L 585.507086 300.272727 
L 586.52748 300.272727 
L 587.547874 300.272727 
L 588.568268 300.272727 
L 589.588662 300.272727 
L 590.609056 300.272727 
L 591.62945 300.272727 
L 592.649844 300.272727 
L 593.670239 300.272727 
L 594.690633 300.272727 
L 595.711027 300.272727 
L 596.731421 300.272727 
L 597.751815 300.272727 
L 598.772209 300.272727 
L 599.792603 300.272727 
L 600.812997 300.272727 
L 601.833391 300.272727 
L 602.853785 300.272727 
L 603.874179 300.272727 
L 604.894573 300.272727 
L 605.914967 300.272727 
L 606.935361 300.272727 
L 607.955755 300.272727 
L 608.976149 300.272727 
L 609.996543 300.272727 
L 611.016937 300.272727 
L 612.037331 300.272727 
L 613.057726 300.272727 
L 614.07812 300.272727 
L 615.098514 300.272727 
L 616.118908 300.272727 
L 617.139302 300.272727 
L 618.159696 300.272727 
L 619.18009 300.272727 
L 620.200484 300.272727 
L 621.220878 300.272727 
L 622.241272 300.272727 
L 623.261666 300.272727 
L 624.28206 300.272727 
L 625.302454 300.272727 
L 626.322848 300.272727 
L 627.343242 300.272727 
L 628.363636 300.272727 
L 628.363636 300.272727 
L 628.363636 293.966741 
L 627.343242 287.660754 
L 626.322848 297.645233 
L 625.302454 296.068736 
L 624.28206 296.068736 
L 623.261666 295.543237 
L 622.241272 285.033259 
L 621.220878 296.068736 
L 620.200484 273.997783 
L 619.18009 285.558758 
L 618.159696 293.966741 
L 617.139302 293.966741 
L 616.118908 296.594235 
L 615.098514 296.594235 
L 614.07812 296.594235 
L 613.057726 287.660754 
L 612.037331 256.13082 
L 611.016937 247.197339 
L 609.996543 273.472284 
L 608.976149 288.711752 
L 607.955755 291.864745 
L 606.935361 278.727273 
L 605.914967 255.605322 
L 604.894573 244.044346 
L 603.874179 248.773836 
L 602.853785 248.248337 
L 601.833391 239.840355 
L 600.812997 294.492239 
L 599.792603 291.339246 
L 598.772209 254.554324 
L 597.751815 287.660754 
L 596.731421 288.186253 
L 595.711027 253.503326 
L 594.690633 295.017738 
L 593.670239 287.135255 
L 592.649844 290.813747 
L 591.62945 248.773836 
L 590.609056 225.126386 
L 589.588662 239.314856 
L 588.568268 266.640798 
L 587.547874 285.033259 
L 586.52748 290.288248 
L 585.507086 296.068736 
L 584.486692 248.248337 
L 583.466298 266.115299 
L 582.445904 283.982262 
L 581.42551 233.008869 
L 580.405116 238.263858 
L 579.384722 265.5898 
L 578.364328 271.370288 
L 577.343934 176.780488 
L 576.32354 289.762749 
L 575.303146 262.962306 
L 574.282751 202.529933 
L 573.262357 201.478936 
L 570.201175 273.472284 
L 569.180781 236.687361 
L 568.160387 191.494457 
L 567.139993 242.467849 
L 566.119599 243.518847 
L 565.099205 286.084257 
L 564.078811 272.421286 
L 563.058417 270.844789 
L 562.038023 174.152993 
L 561.017629 222.498891 
L 559.997235 282.405765 
L 558.976841 259.809313 
L 557.956447 265.5898 
L 556.936053 182.560976 
L 555.915658 228.804878 
L 554.895264 270.31929 
L 553.87487 228.279379 
L 552.854476 219.871397 
L 551.834082 237.21286 
L 550.813688 254.028825 
L 549.793294 262.962306 
L 548.7729 217.769401 
L 547.752506 213.039911 
L 546.732112 236.687361 
L 545.711718 224.600887 
L 544.691324 212.514412 
L 543.67093 265.5898 
L 542.650536 178.882483 
L 541.630142 219.871397 
L 540.609748 232.48337 
L 539.589354 209.886918 
L 538.56896 104.78714 
L 537.548566 246.146341 
L 536.528171 265.064302 
L 535.507777 189.91796 
L 534.487383 188.341463 
L 533.466989 239.840355 
L 532.446595 168.372506 
L 531.426201 67.476718 
L 529.385413 228.279379 
L 528.365019 244.044346 
L 527.344625 204.631929 
L 526.324231 220.396896 
L 525.303837 178.882483 
L 524.283443 160.490022 
L 523.263049 189.392461 
L 522.242655 262.962306 
L 509.997926 198.851441 
L 508.977532 188.866962 
L 507.957138 256.13082 
L 506.936744 288.711752 
L 505.91635 278.201774 
L 504.895956 276.625277 
L 503.875562 273.472284 
L 502.855168 247.197339 
L 501.834774 275.04878 
L 500.81438 285.033259 
L 499.793985 288.186253 
L 498.773591 251.926829 
L 497.753197 196.749446 
L 496.732803 142.62306 
L 495.712409 58.017738 
L 494.692015 161.54102 
L 493.671621 275.04878 
L 492.651227 275.574279 
L 491.630833 281.354767 
L 490.610439 270.844789 
L 489.590045 242.993348 
L 488.569651 272.946785 
L 487.549257 279.778271 
L 486.528863 286.609756 
L 485.508469 287.135255 
L 484.488075 289.237251 
L 483.467681 283.982262 
L 482.447287 274.523282 
L 481.426892 169.949002 
L 480.406498 167.321508 
L 479.386104 201.478936 
L 478.36571 190.443459 
L 477.345316 214.616408 
L 476.324922 279.778271 
L 475.304528 272.421286 
L 474.284134 241.416851 
L 473.26374 284.507761 
L 472.243346 273.997783 
L 471.222952 270.31929 
L 470.202558 254.554324 
L 469.182164 190.968958 
L 468.16177 198.851441 
L 467.141376 247.197339 
L 466.120982 204.631929 
L 465.100588 196.749446 
L 464.080194 180.45898 
L 463.0598 173.627494 
L 462.039405 171.525499 
L 461.019011 185.713969 
L 459.998617 144.725055 
L 458.978223 117.924612 
L 457.957829 171.525499 
L 456.937435 195.172949 
L 455.917041 190.443459 
L 454.896647 162.066519 
L 453.876253 179.933481 
L 452.855859 204.631929 
L 451.835465 149.454545 
L 450.815071 122.128603 
L 449.794677 157.337029 
L 448.774283 209.886918 
L 447.753889 210.937916 
L 446.733495 186.239468 
L 445.713101 207.259424 
L 444.692707 235.110865 
L 443.672312 292.390244 
L 442.651918 287.135255 
L 441.631524 230.906874 
L 440.61113 234.585366 
L 439.590736 288.711752 
L 438.570342 284.507761 
L 437.549948 229.855876 
L 436.529554 282.931264 
L 435.50916 289.762749 
L 434.488766 280.829268 
L 433.468372 262.962306 
L 432.447978 237.738359 
L 431.427584 291.864745 
L 430.40719 284.507761 
L 429.386796 286.609756 
L 428.366402 290.288248 
L 427.346008 213.56541 
L 426.325614 249.299335 
L 425.305219 292.390244 
L 424.284825 276.099778 
L 423.264431 272.421286 
L 422.244037 272.421286 
L 421.223643 287.660754 
L 420.203249 286.084257 
L 419.182855 291.864745 
L 418.162461 287.660754 
L 417.142067 288.186253 
L 416.121673 282.931264 
L 415.101279 291.864745 
L 414.080885 282.405765 
L 413.060491 290.813747 
L 412.040097 235.636364 
L 411.019703 258.758315 
L 409.999309 289.762749 
L 408.978915 230.381375 
L 407.958521 255.079823 
L 406.938127 288.711752 
L 405.917732 279.778271 
L 404.897338 290.288248 
L 403.876944 277.150776 
L 402.85655 256.13082 
L 401.836156 285.558758 
L 400.815762 290.813747 
L 399.795368 286.084257 
L 398.774974 284.507761 
L 397.75458 292.390244 
L 396.734186 279.778271 
L 395.713792 280.829268 
L 394.693398 271.895787 
L 393.673004 276.625277 
L 392.65261 276.099778 
L 391.632216 253.503326 
L 390.611822 275.574279 
L 389.591428 287.135255 
L 388.571034 265.5898 
L 387.550639 268.217295 
L 386.530245 213.039911 
L 385.509851 143.674058 
L 384.489457 189.392461 
L 383.469063 180.45898 
L 382.448669 292.915743 
L 381.428275 268.742794 
L 380.407881 268.217295 
L 379.387487 291.339246 
L 378.367093 291.339246 
L 377.346699 286.084257 
L 376.326305 270.31929 
L 375.305911 259.283814 
L 374.285517 261.385809 
L 373.265123 291.339246 
L 372.244729 291.864745 
L 371.224335 285.033259 
L 370.203941 251.926829 
L 369.183546 290.813747 
L 368.163152 287.660754 
L 367.142758 241.416851 
L 366.122364 261.385809 
L 365.10197 279.778271 
L 364.081576 284.507761 
L 363.061182 280.829268 
L 362.040788 267.691796 
L 361.020394 287.660754 
L 360 271.895787 
L 358.979606 278.727273 
L 357.959212 285.033259 
L 356.938818 285.558758 
L 355.918424 284.507761 
L 354.89803 281.880266 
L 353.877636 222.498891 
L 352.857242 258.232816 
L 351.836848 262.436807 
L 350.816454 282.931264 
L 349.796059 278.201774 
L 348.775665 267.691796 
L 347.755271 279.778271 
L 346.734877 242.993348 
L 345.714483 264.013304 
L 344.694089 277.676275 
L 343.673695 267.166297 
L 342.653301 275.574279 
L 341.632907 280.303769 
L 340.612513 207.784922 
L 339.592119 270.31929 
L 338.571725 278.201774 
L 337.551331 272.421286 
L 336.530937 273.997783 
L 335.510543 268.742794 
L 334.490149 265.5898 
L 333.469755 250.875831 
L 332.449361 224.600887 
L 331.428966 224.600887 
L 330.408572 235.110865 
L 329.388178 276.099778 
L 328.367784 270.31929 
L 327.34739 234.059867 
L 326.326996 186.764967 
L 325.306602 176.780488 
L 324.286208 226.702882 
L 323.265814 267.166297 
L 322.24542 270.844789 
L 321.225026 285.558758 
L 320.204632 229.330377 
L 319.184238 279.778271 
L 318.163844 279.252772 
L 317.14345 252.977827 
L 316.123056 269.793792 
L 315.102662 196.749446 
L 314.082268 222.498891 
L 313.061873 209.361419 
L 312.041479 235.636364 
L 311.021085 254.554324 
L 310.000691 267.691796 
L 308.980297 267.166297 
L 307.959903 277.676275 
L 306.939509 276.099778 
L 305.919115 244.044346 
L 304.898721 195.172949 
L 302.857933 277.150776 
L 301.837539 264.538803 
L 300.817145 247.722838 
L 299.796751 240.891353 
L 298.776357 261.911308 
L 297.755963 268.217295 
L 296.735569 242.467849 
L 295.715175 268.217295 
L 294.694781 247.197339 
L 293.674386 251.926829 
L 292.653992 230.906874 
L 291.633598 233.008869 
L 290.613204 246.67184 
L 289.59281 239.840355 
L 288.572416 203.055432 
L 287.552022 83.241685 
L 286.531628 167.321508 
L 285.511234 166.796009 
L 284.49084 161.54102 
L 283.470446 150.505543 
L 282.450052 260.86031 
L 281.429658 213.56541 
L 280.409264 257.181818 
L 279.38887 272.421286 
L 278.368476 269.268293 
L 277.348082 276.625277 
L 276.327688 268.217295 
L 275.307293 280.829268 
L 274.286899 237.21286 
L 273.266505 267.691796 
L 272.246111 270.31929 
L 271.225717 283.982262 
L 270.205323 227.228381 
L 269.184929 211.988914 
L 268.164535 266.640798 
L 267.144141 191.494457 
L 266.123747 197.800443 
L 265.103353 184.137472 
L 264.082959 199.902439 
L 263.062565 214.090909 
L 262.042171 199.37694 
L 261.021777 157.337029 
L 260.001383 220.396896 
L 258.980989 256.656319 
L 257.960595 280.303769 
L 256.9402 261.911308 
L 255.919806 277.676275 
L 254.899412 262.436807 
L 253.879018 276.625277 
L 252.858624 277.150776 
L 251.83823 267.166297 
L 250.817836 265.5898 
L 249.797442 269.268293 
L 248.777048 239.840355 
L 247.756654 261.385809 
L 246.73626 261.911308 
L 245.715866 255.605322 
L 244.695472 275.04878 
L 243.675078 279.778271 
L 242.654684 265.5898 
L 241.63429 235.110865 
L 240.613896 190.968958 
L 239.593502 242.993348 
L 238.573108 178.356984 
L 237.552713 180.45898 
L 236.532319 269.793792 
L 235.511925 287.135255 
L 234.491531 142.097561 
L 233.471137 124.230599 
L 232.450743 223.02439 
L 231.430349 249.299335 
L 230.409955 277.676275 
L 229.389561 287.660754 
L 228.369167 279.778271 
L 227.348773 202.529933 
L 226.328379 277.150776 
L 225.307985 257.181818 
L 224.287591 265.064302 
L 223.267197 282.931264 
L 222.246803 279.778271 
L 221.226409 278.201774 
L 220.206015 258.758315 
L 219.18562 241.94235 
L 218.165226 285.033259 
L 217.144832 285.558758 
L 216.124438 255.605322 
L 215.104044 192.545455 
L 214.08365 209.361419 
L 212.042862 268.742794 
L 211.022468 237.21286 
L 210.002074 224.075388 
L 208.98168 282.931264 
L 207.961286 271.370288 
L 206.940892 287.135255 
L 205.920498 253.503326 
L 204.900104 292.390244 
L 203.87971 285.558758 
L 202.859316 280.303769 
L 201.838922 282.405765 
L 200.818527 286.084257 
L 199.798133 272.421286 
L 198.777739 282.405765 
L 197.757345 277.676275 
L 196.736951 256.13082 
L 195.716557 286.084257 
L 194.696163 279.252772 
L 193.675769 236.687361 
L 192.655375 232.48337 
L 191.634981 286.609756 
L 190.614587 255.605322 
L 189.594193 254.028825 
L 188.573799 234.585366 
L 187.553405 255.079823 
L 186.533011 282.931264 
L 185.512617 286.084257 
L 184.492223 286.609756 
L 183.471829 266.640798 
L 182.451434 288.186253 
L 181.43104 194.121951 
L 180.410646 41.727273 
L 179.390252 128.43459 
L 178.369858 74.308204 
L 177.349464 84.818182 
L 176.32907 160.490022 
L 175.308676 115.822616 
L 174.288282 244.044346 
L 173.267888 271.895787 
L 172.247494 293.441242 
L 171.2271 229.330377 
L 170.206706 192.019956 
L 169.186312 189.392461 
L 168.165918 194.121951 
L 167.145524 185.713969 
L 166.12513 210.937916 
L 165.104736 211.463415 
L 164.084342 210.937916 
L 163.063947 240.891353 
L 162.043553 288.186253 
L 161.023159 279.252772 
L 160.002765 286.084257 
L 158.982371 276.625277 
L 157.961977 270.844789 
L 156.941583 269.268293 
L 155.921189 250.350333 
L 154.900795 282.405765 
L 153.880401 280.829268 
L 152.860007 255.079823 
L 151.839613 271.370288 
L 150.819219 257.181818 
L 149.798825 242.993348 
L 148.778431 269.793792 
L 147.758037 236.161863 
L 146.737643 261.911308 
L 145.717249 159.439024 
L 144.696854 96.379157 
L 143.67646 186.764967 
L 142.656066 187.290466 
L 141.635672 190.968958 
L 140.615278 196.223947 
L 139.594884 166.27051 
L 138.57449 190.968958 
L 137.554096 169.423503 
L 136.533702 183.086475 
L 135.513308 182.560976 
L 134.492914 192.545455 
L 133.47252 182.560976 
L 132.452126 228.804878 
L 131.431732 278.201774 
L 130.411338 194.121951 
L 129.390944 189.91796 
L 128.37055 177.831486 
L 127.350156 179.407982 
L 126.329761 203.055432 
L 125.309367 204.631929 
L 124.288973 128.960089 
L 123.268579 155.235033 
L 122.248185 66.95122 
L 121.227791 100.583149 
L 120.207397 119.501109 
L 119.187003 143.674058 
L 118.166609 203.055432 
L 117.146215 200.953437 
L 116.125821 209.886918 
L 115.105427 265.064302 
L 114.085033 283.982262 
L 113.064639 283.456763 
L 112.044245 188.866962 
L 111.023851 115.822616 
L 110.003457 139.995565 
L 108.983063 140.521064 
L 107.962669 197.274945 
L 106.942274 205.157428 
L 105.92188 204.631929 
L 104.901486 140.521064 
L 103.881092 208.310421 
L 102.860698 265.5898 
L 101.840304 238.263858 
L 100.81991 255.605322 
L 99.799516 285.558758 
L 96.738334 284.507761 
L 95.71794 197.274945 
L 94.697546 228.804878 
L 93.677152 262.962306 
L 92.656758 280.303769 
L 91.636364 275.04878 
z
" style="fill:#ffa07a;fill-opacity:0.3;"/>
   </g>
   <g id="matplotlib.axis_1">
    <g id="xtick_1">
     <g id="line2d_1">
      <path clip-path="url(#pb5a3872759)" d="M 91.636364 313.2 
L 91.636364 28.8 
" style="fill:none;stroke:#808080;stroke-dasharray:6.4,1.6,1,1.6;stroke-dashoffset:0;stroke-opacity:0.3;"/>
     </g>
     <g id="line2d_2">
      <defs>
       <path d="M 0 0 
L 0 3.5 
" id="md266badfb6" style="stroke:#000000;stroke-width:0.8;"/>
      </defs>
      <g>
       <use style="stroke:#000000;stroke-width:0.8;" x="91.636364" xlink:href="#md266badfb6" y="313.2"/>
      </g>
     </g>
     <g id="text_1">
      <!-- 2020-11-20 -->
      <g transform="translate(62.578551 327.798437)scale(0.1 -0.1)">
       <defs>
        <path d="M 19.1875 8.296875 
L 53.609375 8.296875 
L 53.609375 0 
L 7.328125 0 
L 7.328125 8.296875 
Q 12.9375 14.109375 22.625 23.890625 
Q 32.328125 33.6875 34.8125 36.53125 
Q 39.546875 41.84375 41.421875 45.53125 
Q 43.3125 49.21875 43.3125 52.78125 
Q 43.3125 58.59375 39.234375 62.25 
Q 35.15625 65.921875 28.609375 65.921875 
Q 23.96875 65.921875 18.8125 64.3125 
Q 13.671875 62.703125 7.8125 59.421875 
L 7.8125 69.390625 
Q 13.765625 71.78125 18.9375 73 
Q 24.125 74.21875 28.421875 74.21875 
Q 39.75 74.21875 46.484375 68.546875 
Q 53.21875 62.890625 53.21875 53.421875 
Q 53.21875 48.921875 51.53125 44.890625 
Q 49.859375 40.875 45.40625 35.40625 
Q 44.1875 33.984375 37.640625 27.21875 
Q 31.109375 20.453125 19.1875 8.296875 
z
" id="DejaVuSans-50"/>
        <path d="M 31.78125 66.40625 
Q 24.171875 66.40625 20.328125 58.90625 
Q 16.5 51.421875 16.5 36.375 
Q 16.5 21.390625 20.328125 13.890625 
Q 24.171875 6.390625 31.78125 6.390625 
Q 39.453125 6.390625 43.28125 13.890625 
Q 47.125 21.390625 47.125 36.375 
Q 47.125 51.421875 43.28125 58.90625 
Q 39.453125 66.40625 31.78125 66.40625 
z
M 31.78125 74.21875 
Q 44.046875 74.21875 50.515625 64.515625 
Q 56.984375 54.828125 56.984375 36.375 
Q 56.984375 17.96875 50.515625 8.265625 
Q 44.046875 -1.421875 31.78125 -1.421875 
Q 19.53125 -1.421875 13.0625 8.265625 
Q 6.59375 17.96875 6.59375 36.375 
Q 6.59375 54.828125 13.0625 64.515625 
Q 19.53125 74.21875 31.78125 74.21875 
z
" id="DejaVuSans-48"/>
        <path d="M 4.890625 31.390625 
L 31.203125 31.390625 
L 31.203125 23.390625 
L 4.890625 23.390625 
z
" id="DejaVuSans-45"/>
        <path d="M 12.40625 8.296875 
L 28.515625 8.296875 
L 28.515625 63.921875 
L 10.984375 60.40625 
L 10.984375 69.390625 
L 28.421875 72.90625 
L 38.28125 72.90625 
L 38.28125 8.296875 
L 54.390625 8.296875 
L 54.390625 0 
L 12.40625 0 
z
" id="DejaVuSans-49"/>
       </defs>
       <use xlink:href="#DejaVuSans-50"/>
       <use x="63.623047" xlink:href="#DejaVuSans-48"/>
       <use x="127.246094" xlink:href="#DejaVuSans-50"/>
       <use x="190.869141" xlink:href="#DejaVuSans-48"/>
       <use x="254.492188" xlink:href="#DejaVuSans-45"/>
       <use x="290.576172" xlink:href="#DejaVuSans-49"/>
       <use x="354.199219" xlink:href="#DejaVuSans-49"/>
       <use x="417.822266" xlink:href="#DejaVuSans-45"/>
       <use x="453.90625" xlink:href="#DejaVuSans-50"/>
       <use x="517.529297" xlink:href="#DejaVuSans-48"/>
      </g>
     </g>
    </g>
    <g id="xtick_2">
     <g id="line2d_3">
      <path clip-path="url(#pb5a3872759)" d="M 168.165918 313.2 
L 168.165918 28.8 
" style="fill:none;stroke:#808080;stroke-dasharray:6.4,1.6,1,1.6;stroke-dashoffset:0;stroke-opacity:0.3;"/>
     </g>
     <g id="line2d_4">
      <g>
       <use style="stroke:#000000;stroke-width:0.8;" x="168.165918" xlink:href="#md266badfb6" y="313.2"/>
      </g>
     </g>
     <g id="text_2">
      <!-- 2021-02-03 -->
      <g transform="translate(139.108105 327.798437)scale(0.1 -0.1)">
       <defs>
        <path d="M 40.578125 39.3125 
Q 47.65625 37.796875 51.625 33 
Q 55.609375 28.21875 55.609375 21.1875 
Q 55.609375 10.40625 48.1875 4.484375 
Q 40.765625 -1.421875 27.09375 -1.421875 
Q 22.515625 -1.421875 17.65625 -0.515625 
Q 12.796875 0.390625 7.625 2.203125 
L 7.625 11.71875 
Q 11.71875 9.328125 16.59375 8.109375 
Q 21.484375 6.890625 26.8125 6.890625 
Q 36.078125 6.890625 40.9375 10.546875 
Q 45.796875 14.203125 45.796875 21.1875 
Q 45.796875 27.640625 41.28125 31.265625 
Q 36.765625 34.90625 28.71875 34.90625 
L 20.21875 34.90625 
L 20.21875 43.015625 
L 29.109375 43.015625 
Q 36.375 43.015625 40.234375 45.921875 
Q 44.09375 48.828125 44.09375 54.296875 
Q 44.09375 59.90625 40.109375 62.90625 
Q 36.140625 65.921875 28.71875 65.921875 
Q 24.65625 65.921875 20.015625 65.03125 
Q 15.375 64.15625 9.8125 62.3125 
L 9.8125 71.09375 
Q 15.4375 72.65625 20.34375 73.4375 
Q 25.25 74.21875 29.59375 74.21875 
Q 40.828125 74.21875 47.359375 69.109375 
Q 53.90625 64.015625 53.90625 55.328125 
Q 53.90625 49.265625 50.4375 45.09375 
Q 46.96875 40.921875 40.578125 39.3125 
z
" id="DejaVuSans-51"/>
       </defs>
       <use xlink:href="#DejaVuSans-50"/>
       <use x="63.623047" xlink:href="#DejaVuSans-48"/>
       <use x="127.246094" xlink:href="#DejaVuSans-50"/>
       <use x="190.869141" xlink:href="#DejaVuSans-49"/>
       <use x="254.492188" xlink:href="#DejaVuSans-45"/>
       <use x="290.576172" xlink:href="#DejaVuSans-48"/>
       <use x="354.199219" xlink:href="#DejaVuSans-50"/>
       <use x="417.822266" xlink:href="#DejaVuSans-45"/>
       <use x="453.90625" xlink:href="#DejaVuSans-48"/>
       <use x="517.529297" xlink:href="#DejaVuSans-51"/>
      </g>
     </g>
    </g>
    <g id="xtick_3">
     <g id="line2d_5">
      <path clip-path="url(#pb5a3872759)" d="M 244.695472 313.2 
L 244.695472 28.8 
" style="fill:none;stroke:#808080;stroke-dasharray:6.4,1.6,1,1.6;stroke-dashoffset:0;stroke-opacity:0.3;"/>
     </g>
     <g id="line2d_6">
      <g>
       <use style="stroke:#000000;stroke-width:0.8;" x="244.695472" xlink:href="#md266badfb6" y="313.2"/>
      </g>
     </g>
     <g id="text_3">
      <!-- 2021-04-19 -->
      <g transform="translate(215.637659 327.798437)scale(0.1 -0.1)">
       <defs>
        <path d="M 37.796875 64.3125 
L 12.890625 25.390625 
L 37.796875 25.390625 
z
M 35.203125 72.90625 
L 47.609375 72.90625 
L 47.609375 25.390625 
L 58.015625 25.390625 
L 58.015625 17.1875 
L 47.609375 17.1875 
L 47.609375 0 
L 37.796875 0 
L 37.796875 17.1875 
L 4.890625 17.1875 
L 4.890625 26.703125 
z
" id="DejaVuSans-52"/>
        <path d="M 10.984375 1.515625 
L 10.984375 10.5 
Q 14.703125 8.734375 18.5 7.8125 
Q 22.3125 6.890625 25.984375 6.890625 
Q 35.75 6.890625 40.890625 13.453125 
Q 46.046875 20.015625 46.78125 33.40625 
Q 43.953125 29.203125 39.59375 26.953125 
Q 35.25 24.703125 29.984375 24.703125 
Q 19.046875 24.703125 12.671875 31.3125 
Q 6.296875 37.9375 6.296875 49.421875 
Q 6.296875 60.640625 12.9375 67.421875 
Q 19.578125 74.21875 30.609375 74.21875 
Q 43.265625 74.21875 49.921875 64.515625 
Q 56.59375 54.828125 56.59375 36.375 
Q 56.59375 19.140625 48.40625 8.859375 
Q 40.234375 -1.421875 26.421875 -1.421875 
Q 22.703125 -1.421875 18.890625 -0.6875 
Q 15.09375 0.046875 10.984375 1.515625 
z
M 30.609375 32.421875 
Q 37.25 32.421875 41.125 36.953125 
Q 45.015625 41.5 45.015625 49.421875 
Q 45.015625 57.28125 41.125 61.84375 
Q 37.25 66.40625 30.609375 66.40625 
Q 23.96875 66.40625 20.09375 61.84375 
Q 16.21875 57.28125 16.21875 49.421875 
Q 16.21875 41.5 20.09375 36.953125 
Q 23.96875 32.421875 30.609375 32.421875 
z
" id="DejaVuSans-57"/>
       </defs>
       <use xlink:href="#DejaVuSans-50"/>
       <use x="63.623047" xlink:href="#DejaVuSans-48"/>
       <use x="127.246094" xlink:href="#DejaVuSans-50"/>
       <use x="190.869141" xlink:href="#DejaVuSans-49"/>
       <use x="254.492188" xlink:href="#DejaVuSans-45"/>
       <use x="290.576172" xlink:href="#DejaVuSans-48"/>
       <use x="354.199219" xlink:href="#DejaVuSans-52"/>
       <use x="417.822266" xlink:href="#DejaVuSans-45"/>
       <use x="453.90625" xlink:href="#DejaVuSans-49"/>
       <use x="517.529297" xlink:href="#DejaVuSans-57"/>
      </g>
     </g>
    </g>
    <g id="xtick_4">
     <g id="line2d_7">
      <path clip-path="url(#pb5a3872759)" d="M 321.225026 313.2 
L 321.225026 28.8 
" style="fill:none;stroke:#808080;stroke-dasharray:6.4,1.6,1,1.6;stroke-dashoffset:0;stroke-opacity:0.3;"/>
     </g>
     <g id="line2d_8">
      <g>
       <use style="stroke:#000000;stroke-width:0.8;" x="321.225026" xlink:href="#md266badfb6" y="313.2"/>
      </g>
     </g>
     <g id="text_4">
      <!-- 2021-07-03 -->
      <g transform="translate(292.167213 327.798437)scale(0.1 -0.1)">
       <defs>
        <path d="M 8.203125 72.90625 
L 55.078125 72.90625 
L 55.078125 68.703125 
L 28.609375 0 
L 18.3125 0 
L 43.21875 64.59375 
L 8.203125 64.59375 
z
" id="DejaVuSans-55"/>
       </defs>
       <use xlink:href="#DejaVuSans-50"/>
       <use x="63.623047" xlink:href="#DejaVuSans-48"/>
       <use x="127.246094" xlink:href="#DejaVuSans-50"/>
       <use x="190.869141" xlink:href="#DejaVuSans-49"/>
       <use x="254.492188" xlink:href="#DejaVuSans-45"/>
       <use x="290.576172" xlink:href="#DejaVuSans-48"/>
       <use x="354.199219" xlink:href="#DejaVuSans-55"/>
       <use x="417.822266" xlink:href="#DejaVuSans-45"/>
       <use x="453.90625" xlink:href="#DejaVuSans-48"/>
       <use x="517.529297" xlink:href="#DejaVuSans-51"/>
      </g>
     </g>
    </g>
    <g id="xtick_5">
     <g id="line2d_9">
      <path clip-path="url(#pb5a3872759)" d="M 397.75458 313.2 
L 397.75458 28.8 
" style="fill:none;stroke:#808080;stroke-dasharray:6.4,1.6,1,1.6;stroke-dashoffset:0;stroke-opacity:0.3;"/>
     </g>
     <g id="line2d_10">
      <g>
       <use style="stroke:#000000;stroke-width:0.8;" x="397.75458" xlink:href="#md266badfb6" y="313.2"/>
      </g>
     </g>
     <g id="text_5">
      <!-- 2021-09-16 -->
      <g transform="translate(368.696768 327.798437)scale(0.1 -0.1)">
       <defs>
        <path d="M 33.015625 40.375 
Q 26.375 40.375 22.484375 35.828125 
Q 18.609375 31.296875 18.609375 23.390625 
Q 18.609375 15.53125 22.484375 10.953125 
Q 26.375 6.390625 33.015625 6.390625 
Q 39.65625 6.390625 43.53125 10.953125 
Q 47.40625 15.53125 47.40625 23.390625 
Q 47.40625 31.296875 43.53125 35.828125 
Q 39.65625 40.375 33.015625 40.375 
z
M 52.59375 71.296875 
L 52.59375 62.3125 
Q 48.875 64.0625 45.09375 64.984375 
Q 41.3125 65.921875 37.59375 65.921875 
Q 27.828125 65.921875 22.671875 59.328125 
Q 17.53125 52.734375 16.796875 39.40625 
Q 19.671875 43.65625 24.015625 45.921875 
Q 28.375 48.1875 33.59375 48.1875 
Q 44.578125 48.1875 50.953125 41.515625 
Q 57.328125 34.859375 57.328125 23.390625 
Q 57.328125 12.15625 50.6875 5.359375 
Q 44.046875 -1.421875 33.015625 -1.421875 
Q 20.359375 -1.421875 13.671875 8.265625 
Q 6.984375 17.96875 6.984375 36.375 
Q 6.984375 53.65625 15.1875 63.9375 
Q 23.390625 74.21875 37.203125 74.21875 
Q 40.921875 74.21875 44.703125 73.484375 
Q 48.484375 72.75 52.59375 71.296875 
z
" id="DejaVuSans-54"/>
       </defs>
       <use xlink:href="#DejaVuSans-50"/>
       <use x="63.623047" xlink:href="#DejaVuSans-48"/>
       <use x="127.246094" xlink:href="#DejaVuSans-50"/>
       <use x="190.869141" xlink:href="#DejaVuSans-49"/>
       <use x="254.492188" xlink:href="#DejaVuSans-45"/>
       <use x="290.576172" xlink:href="#DejaVuSans-48"/>
       <use x="354.199219" xlink:href="#DejaVuSans-57"/>
       <use x="417.822266" xlink:href="#DejaVuSans-45"/>
       <use x="453.90625" xlink:href="#DejaVuSans-49"/>
       <use x="517.529297" xlink:href="#DejaVuSans-54"/>
      </g>
     </g>
    </g>
    <g id="xtick_6">
     <g id="line2d_11">
      <path clip-path="url(#pb5a3872759)" d="M 474.284134 313.2 
L 474.284134 28.8 
" style="fill:none;stroke:#808080;stroke-dasharray:6.4,1.6,1,1.6;stroke-dashoffset:0;stroke-opacity:0.3;"/>
     </g>
     <g id="line2d_12">
      <g>
       <use style="stroke:#000000;stroke-width:0.8;" x="474.284134" xlink:href="#md266badfb6" y="313.2"/>
      </g>
     </g>
     <g id="text_6">
      <!-- 2021-11-30 -->
      <g transform="translate(445.226322 327.798437)scale(0.1 -0.1)">
       <use xlink:href="#DejaVuSans-50"/>
       <use x="63.623047" xlink:href="#DejaVuSans-48"/>
       <use x="127.246094" xlink:href="#DejaVuSans-50"/>
       <use x="190.869141" xlink:href="#DejaVuSans-49"/>
       <use x="254.492188" xlink:href="#DejaVuSans-45"/>
       <use x="290.576172" xlink:href="#DejaVuSans-49"/>
       <use x="354.199219" xlink:href="#DejaVuSans-49"/>
       <use x="417.822266" xlink:href="#DejaVuSans-45"/>
       <use x="453.90625" xlink:href="#DejaVuSans-51"/>
       <use x="517.529297" xlink:href="#DejaVuSans-48"/>
      </g>
     </g>
    </g>
    <g id="xtick_7">
     <g id="line2d_13">
      <path clip-path="url(#pb5a3872759)" d="M 550.813688 313.2 
L 550.813688 28.8 
" style="fill:none;stroke:#808080;stroke-dasharray:6.4,1.6,1,1.6;stroke-dashoffset:0;stroke-opacity:0.3;"/>
     </g>
     <g id="line2d_14">
      <g>
       <use style="stroke:#000000;stroke-width:0.8;" x="550.813688" xlink:href="#md266badfb6" y="313.2"/>
      </g>
     </g>
     <g id="text_7">
      <!-- 2022-02-13 -->
      <g transform="translate(521.755876 327.798437)scale(0.1 -0.1)">
       <use xlink:href="#DejaVuSans-50"/>
       <use x="63.623047" xlink:href="#DejaVuSans-48"/>
       <use x="127.246094" xlink:href="#DejaVuSans-50"/>
       <use x="190.869141" xlink:href="#DejaVuSans-50"/>
       <use x="254.492188" xlink:href="#DejaVuSans-45"/>
       <use x="290.576172" xlink:href="#DejaVuSans-48"/>
       <use x="354.199219" xlink:href="#DejaVuSans-50"/>
       <use x="417.822266" xlink:href="#DejaVuSans-45"/>
       <use x="453.90625" xlink:href="#DejaVuSans-49"/>
       <use x="517.529297" xlink:href="#DejaVuSans-51"/>
      </g>
     </g>
    </g>
    <g id="xtick_8">
     <g id="line2d_15">
      <path clip-path="url(#pb5a3872759)" d="M 628.363636 313.2 
L 628.363636 28.8 
" style="fill:none;stroke:#808080;stroke-dasharray:6.4,1.6,1,1.6;stroke-dashoffset:0;stroke-opacity:0.3;"/>
     </g>
     <g id="line2d_16">
      <g>
       <use style="stroke:#000000;stroke-width:0.8;" x="628.363636" xlink:href="#md266badfb6" y="313.2"/>
      </g>
     </g>
     <g id="text_8">
      <!-- 2022-04-30 -->
      <g transform="translate(599.305824 327.798437)scale(0.1 -0.1)">
       <use xlink:href="#DejaVuSans-50"/>
       <use x="63.623047" xlink:href="#DejaVuSans-48"/>
       <use x="127.246094" xlink:href="#DejaVuSans-50"/>
       <use x="190.869141" xlink:href="#DejaVuSans-50"/>
       <use x="254.492188" xlink:href="#DejaVuSans-45"/>
       <use x="290.576172" xlink:href="#DejaVuSans-48"/>
       <use x="354.199219" xlink:href="#DejaVuSans-52"/>
       <use x="417.822266" xlink:href="#DejaVuSans-45"/>
       <use x="453.90625" xlink:href="#DejaVuSans-51"/>
       <use x="517.529297" xlink:href="#DejaVuSans-48"/>
      </g>
     </g>
    </g>
    <g id="text_9">
     <!-- Datum -->
     <g transform="translate(343.086719 341.476562)scale(0.1 -0.1)">
      <defs>
       <path d="M 19.671875 64.796875 
L 19.671875 8.109375 
L 31.59375 8.109375 
Q 46.6875 8.109375 53.6875 14.9375 
Q 60.6875 21.78125 60.6875 36.53125 
Q 60.6875 51.171875 53.6875 57.984375 
Q 46.6875 64.796875 31.59375 64.796875 
z
M 9.8125 72.90625 
L 30.078125 72.90625 
Q 51.265625 72.90625 61.171875 64.09375 
Q 71.09375 55.28125 71.09375 36.53125 
Q 71.09375 17.671875 61.125 8.828125 
Q 51.171875 0 30.078125 0 
L 9.8125 0 
z
" id="DejaVuSans-68"/>
       <path d="M 34.28125 27.484375 
Q 23.390625 27.484375 19.1875 25 
Q 14.984375 22.515625 14.984375 16.5 
Q 14.984375 11.71875 18.140625 8.90625 
Q 21.296875 6.109375 26.703125 6.109375 
Q 34.1875 6.109375 38.703125 11.40625 
Q 43.21875 16.703125 43.21875 25.484375 
L 43.21875 27.484375 
z
M 52.203125 31.203125 
L 52.203125 0 
L 43.21875 0 
L 43.21875 8.296875 
Q 40.140625 3.328125 35.546875 0.953125 
Q 30.953125 -1.421875 24.3125 -1.421875 
Q 15.921875 -1.421875 10.953125 3.296875 
Q 6 8.015625 6 15.921875 
Q 6 25.140625 12.171875 29.828125 
Q 18.359375 34.515625 30.609375 34.515625 
L 43.21875 34.515625 
L 43.21875 35.40625 
Q 43.21875 41.609375 39.140625 45 
Q 35.0625 48.390625 27.6875 48.390625 
Q 23 48.390625 18.546875 47.265625 
Q 14.109375 46.140625 10.015625 43.890625 
L 10.015625 52.203125 
Q 14.9375 54.109375 19.578125 55.046875 
Q 24.21875 56 28.609375 56 
Q 40.484375 56 46.34375 49.84375 
Q 52.203125 43.703125 52.203125 31.203125 
z
" id="DejaVuSans-97"/>
       <path d="M 18.3125 70.21875 
L 18.3125 54.6875 
L 36.8125 54.6875 
L 36.8125 47.703125 
L 18.3125 47.703125 
L 18.3125 18.015625 
Q 18.3125 11.328125 20.140625 9.421875 
Q 21.96875 7.515625 27.59375 7.515625 
L 36.8125 7.515625 
L 36.8125 0 
L 27.59375 0 
Q 17.1875 0 13.234375 3.875 
Q 9.28125 7.765625 9.28125 18.015625 
L 9.28125 47.703125 
L 2.6875 47.703125 
L 2.6875 54.6875 
L 9.28125 54.6875 
L 9.28125 70.21875 
z
" id="DejaVuSans-116"/>
       <path d="M 8.5 21.578125 
L 8.5 54.6875 
L 17.484375 54.6875 
L 17.484375 21.921875 
Q 17.484375 14.15625 20.5 10.265625 
Q 23.53125 6.390625 29.59375 6.390625 
Q 36.859375 6.390625 41.078125 11.03125 
Q 45.3125 15.671875 45.3125 23.6875 
L 45.3125 54.6875 
L 54.296875 54.6875 
L 54.296875 0 
L 45.3125 0 
L 45.3125 8.40625 
Q 42.046875 3.421875 37.71875 1 
Q 33.40625 -1.421875 27.6875 -1.421875 
Q 18.265625 -1.421875 13.375 4.4375 
Q 8.5 10.296875 8.5 21.578125 
z
M 31.109375 56 
z
" id="DejaVuSans-117"/>
       <path d="M 52 44.1875 
Q 55.375 50.25 60.0625 53.125 
Q 64.75 56 71.09375 56 
Q 79.640625 56 84.28125 50.015625 
Q 88.921875 44.046875 88.921875 33.015625 
L 88.921875 0 
L 79.890625 0 
L 79.890625 32.71875 
Q 79.890625 40.578125 77.09375 44.375 
Q 74.3125 48.1875 68.609375 48.1875 
Q 61.625 48.1875 57.5625 43.546875 
Q 53.515625 38.921875 53.515625 30.90625 
L 53.515625 0 
L 44.484375 0 
L 44.484375 32.71875 
Q 44.484375 40.625 41.703125 44.40625 
Q 38.921875 48.1875 33.109375 48.1875 
Q 26.21875 48.1875 22.15625 43.53125 
Q 18.109375 38.875 18.109375 30.90625 
L 18.109375 0 
L 9.078125 0 
L 9.078125 54.6875 
L 18.109375 54.6875 
L 18.109375 46.1875 
Q 21.1875 51.21875 25.484375 53.609375 
Q 29.78125 56 35.6875 56 
Q 41.65625 56 45.828125 52.96875 
Q 50 49.953125 52 44.1875 
z
" id="DejaVuSans-109"/>
      </defs>
      <use xlink:href="#DejaVuSans-68"/>
      <use x="77.001953" xlink:href="#DejaVuSans-97"/>
      <use x="138.28125" xlink:href="#DejaVuSans-116"/>
      <use x="177.490234" xlink:href="#DejaVuSans-117"/>
      <use x="240.869141" xlink:href="#DejaVuSans-109"/>
     </g>
    </g>
   </g>
   <g id="matplotlib.axis_2">
    <g id="ytick_1">
     <g id="line2d_17">
      <path clip-path="url(#pb5a3872759)" d="M 64.8 300.272727 
L 655.2 300.272727 
" style="fill:none;stroke:#808080;stroke-dasharray:6.4,1.6,1,1.6;stroke-dashoffset:0;stroke-opacity:0.3;"/>
     </g>
     <g id="line2d_18">
      <defs>
       <path d="M 0 0 
L -3.5 0 
" id="m90801fe6ab" style="stroke:#000000;stroke-width:0.8;"/>
      </defs>
      <g>
       <use style="stroke:#000000;stroke-width:0.8;" x="64.8" xlink:href="#m90801fe6ab" y="300.272727"/>
      </g>
     </g>
     <g id="text_10">
      <!-- 0 -->
      <g transform="translate(51.4375 304.071946)scale(0.1 -0.1)">
       <use xlink:href="#DejaVuSans-48"/>
      </g>
     </g>
    </g>
    <g id="ytick_2">
     <g id="line2d_19">
      <path clip-path="url(#pb5a3872759)" d="M 64.8 237.21286 
L 655.2 237.21286 
" style="fill:none;stroke:#808080;stroke-dasharray:6.4,1.6,1,1.6;stroke-dashoffset:0;stroke-opacity:0.3;"/>
     </g>
     <g id="line2d_20">
      <g>
       <use style="stroke:#000000;stroke-width:0.8;" x="64.8" xlink:href="#m90801fe6ab" y="237.21286"/>
      </g>
     </g>
     <g id="text_11">
      <!-- 5 -->
      <g transform="translate(51.4375 241.012079)scale(0.1 -0.1)">
       <defs>
        <path d="M 10.796875 72.90625 
L 49.515625 72.90625 
L 49.515625 64.59375 
L 19.828125 64.59375 
L 19.828125 46.734375 
Q 21.96875 47.46875 24.109375 47.828125 
Q 26.265625 48.1875 28.421875 48.1875 
Q 40.625 48.1875 47.75 41.5 
Q 54.890625 34.8125 54.890625 23.390625 
Q 54.890625 11.625 47.5625 5.09375 
Q 40.234375 -1.421875 26.90625 -1.421875 
Q 22.3125 -1.421875 17.546875 -0.640625 
Q 12.796875 0.140625 7.71875 1.703125 
L 7.71875 11.625 
Q 12.109375 9.234375 16.796875 8.0625 
Q 21.484375 6.890625 26.703125 6.890625 
Q 35.15625 6.890625 40.078125 11.328125 
Q 45.015625 15.765625 45.015625 23.390625 
Q 45.015625 31 40.078125 35.4375 
Q 35.15625 39.890625 26.703125 39.890625 
Q 22.75 39.890625 18.8125 39.015625 
Q 14.890625 38.140625 10.796875 36.28125 
z
" id="DejaVuSans-53"/>
       </defs>
       <use xlink:href="#DejaVuSans-53"/>
      </g>
     </g>
    </g>
    <g id="ytick_3">
     <g id="line2d_21">
      <path clip-path="url(#pb5a3872759)" d="M 64.8 174.152993 
L 655.2 174.152993 
" style="fill:none;stroke:#808080;stroke-dasharray:6.4,1.6,1,1.6;stroke-dashoffset:0;stroke-opacity:0.3;"/>
     </g>
     <g id="line2d_22">
      <g>
       <use style="stroke:#000000;stroke-width:0.8;" x="64.8" xlink:href="#m90801fe6ab" y="174.152993"/>
      </g>
     </g>
     <g id="text_12">
      <!-- 10 -->
      <g transform="translate(45.075 177.952212)scale(0.1 -0.1)">
       <use xlink:href="#DejaVuSans-49"/>
       <use x="63.623047" xlink:href="#DejaVuSans-48"/>
      </g>
     </g>
    </g>
    <g id="ytick_4">
     <g id="line2d_23">
      <path clip-path="url(#pb5a3872759)" d="M 64.8 111.093126 
L 655.2 111.093126 
" style="fill:none;stroke:#808080;stroke-dasharray:6.4,1.6,1,1.6;stroke-dashoffset:0;stroke-opacity:0.3;"/>
     </g>
     <g id="line2d_24">
      <g>
       <use style="stroke:#000000;stroke-width:0.8;" x="64.8" xlink:href="#m90801fe6ab" y="111.093126"/>
      </g>
     </g>
     <g id="text_13">
      <!-- 15 -->
      <g transform="translate(45.075 114.892345)scale(0.1 -0.1)">
       <use xlink:href="#DejaVuSans-49"/>
       <use x="63.623047" xlink:href="#DejaVuSans-53"/>
      </g>
     </g>
    </g>
    <g id="ytick_5">
     <g id="line2d_25">
      <path clip-path="url(#pb5a3872759)" d="M 64.8 48.033259 
L 655.2 48.033259 
" style="fill:none;stroke:#808080;stroke-dasharray:6.4,1.6,1,1.6;stroke-dashoffset:0;stroke-opacity:0.3;"/>
     </g>
     <g id="line2d_26">
      <g>
       <use style="stroke:#000000;stroke-width:0.8;" x="64.8" xlink:href="#m90801fe6ab" y="48.033259"/>
      </g>
     </g>
     <g id="text_14">
      <!-- 20 -->
      <g transform="translate(45.075 51.832478)scale(0.1 -0.1)">
       <use xlink:href="#DejaVuSans-50"/>
       <use x="63.623047" xlink:href="#DejaVuSans-48"/>
      </g>
     </g>
    </g>
   </g>
   <g id="line2d_27">
    <path clip-path="url(#pb5a3872759)" d="M 91.636364 280.090993 
L 96.738334 246.739249 
L 99.799516 240.0689 
L 101.840304 228.336238 
L 103.881092 218.748215 
L 104.901486 214.491807 
L 108.983063 201.077815 
L 110.003457 197.940369 
L 111.023851 195.418596 
L 112.044245 193.456527 
L 113.064639 192.153662 
L 114.085033 190.387489 
L 115.105427 187.834621 
L 117.146215 181.590824 
L 119.187003 175.639316 
L 120.207397 173.565305 
L 121.227791 172.371272 
L 122.248185 172.293536 
L 124.288973 174.451502 
L 127.350156 178.195293 
L 128.37055 180.275522 
L 131.431732 188.500046 
L 132.452126 189.753159 
L 135.513308 190.676669 
L 136.533702 190.658012 
L 137.554096 190.829032 
L 138.57449 191.279904 
L 139.594884 192.287369 
L 140.615278 194.037996 
L 141.635672 196.189743 
L 142.656066 198.804799 
L 143.67646 201.808539 
L 144.696854 205.343996 
L 145.717249 210.987667 
L 148.778431 230.574161 
L 150.819219 242.228421 
L 151.839613 247.07918 
L 152.860007 251.099713 
L 153.880401 254.333552 
L 154.900795 256.503956 
L 155.921189 257.610924 
L 156.941583 257.984059 
L 157.961977 257.411918 
L 158.982371 255.561789 
L 161.023159 250.446726 
L 162.043553 247.312389 
L 164.084342 238.322938 
L 166.12513 227.46781 
L 169.186312 209.76254 
L 170.206706 205.057925 
L 171.2271 201.251945 
L 175.308676 188.509374 
L 176.32907 187.290466 
L 177.349464 187.100789 
L 178.369858 188.667957 
L 179.390252 192.302917 
L 180.410646 197.041735 
L 184.492223 223.83285 
L 189.594193 252.132054 
L 190.614587 257.082315 
L 191.634981 261.199242 
L 192.655375 264.09415 
L 193.675769 266.497763 
L 194.696163 268.046275 
L 197.757345 270.90076 
L 199.798133 272.197405 
L 200.818527 272.505241 
L 201.838922 272.076136 
L 203.87971 270.210459 
L 204.900104 269.035083 
L 206.940892 265.925622 
L 210.002074 260.278841 
L 211.022468 258.873365 
L 212.042862 257.825477 
L 214.08365 256.908186 
L 215.104044 256.323607 
L 216.124438 256.808683 
L 218.165226 258.397617 
L 219.18562 258.944883 
L 220.206015 259.678715 
L 221.226409 259.585431 
L 224.287591 256.957937 
L 225.307985 255.285047 
L 227.348773 250.518243 
L 228.369167 247.980923 
L 230.409955 241.025059 
L 232.450743 234.230887 
L 233.471137 231.320432 
L 234.491531 230.020677 
L 235.511925 230.232121 
L 237.552713 230.082866 
L 238.573108 231.049909 
L 239.593502 233.008869 
L 240.613896 235.372059 
L 241.63429 238.3105 
L 246.73626 255.157559 
L 247.756654 257.237788 
L 249.797442 258.795628 
L 250.817836 259.271376 
L 251.83823 258.854708 
L 252.858624 257.421247 
L 253.879018 255.316142 
L 255.919806 248.947966 
L 261.021777 230.633241 
L 262.042171 228.500151 
L 263.062565 227.088456 
L 264.082959 226.323528 
L 265.103353 226.401265 
L 266.123747 227.474029 
L 267.144141 229.457865 
L 268.164535 232.334116 
L 269.184929 234.871436 
L 271.225717 241.053045 
L 272.246111 243.2732 
L 273.266505 244.799945 
L 274.286899 245.452932 
L 275.307293 244.722208 
L 276.327688 243.049318 
L 277.348082 240.888243 
L 278.368476 238.095947 
L 279.38887 234.585366 
L 282.450052 221.665556 
L 283.470446 217.31542 
L 284.49084 213.963421 
L 285.511234 211.967147 
L 286.531628 211.14625 
L 287.552022 211.354584 
L 288.572416 213.447251 
L 289.59281 216.363925 
L 292.653992 226.304871 
L 297.755963 246.084152 
L 298.776357 248.814259 
L 299.796751 250.670607 
L 300.817145 251.9828 
L 301.837539 252.020113 
L 304.898721 251.065509 
L 305.919115 251.208544 
L 306.939509 251.497724 
L 308.980297 250.88205 
L 311.021085 249.967869 
L 312.041479 249.274459 
L 313.061873 248.425576 
L 314.082268 247.753933 
L 315.102662 247.259528 
L 318.163844 248.036894 
L 319.184238 247.502066 
L 320.204632 246.429302 
L 321.225026 245.760768 
L 324.286208 243.235886 
L 325.306602 242.847203 
L 326.326996 243.406906 
L 327.34739 244.59472 
L 328.367784 245.558653 
L 330.408572 246.693607 
L 331.428966 247.53627 
L 332.449361 249.016374 
L 337.551331 259.122122 
L 338.571725 260.972251 
L 339.592119 262.12897 
L 340.612513 262.719768 
L 344.694089 265.934951 
L 345.714483 266.423136 
L 346.734877 266.765177 
L 350.816454 268.895157 
L 351.836848 269.361577 
L 353.877636 270.776381 
L 356.938818 273.142681 
L 360 274.482859 
L 361.020394 274.852884 
L 363.061182 275.138955 
L 367.142758 275.390821 
L 368.163152 275.602265 
L 370.203941 275.707986 
L 371.224335 275.524528 
L 372.244729 274.775148 
L 373.265123 273.071163 
L 375.305911 268.702371 
L 377.346699 264.865296 
L 378.367093 262.956087 
L 379.387487 260.754589 
L 383.469063 250.729687 
L 384.489457 249.20916 
L 385.509851 248.86401 
L 386.530245 250.229064 
L 391.632216 261.653223 
L 396.734186 275.027014 
L 397.75458 276.951771 
L 398.774974 278.068067 
L 399.795368 278.061848 
L 400.815762 277.651399 
L 402.85655 276.382739 
L 404.897338 275.773285 
L 407.958521 274.255868 
L 408.978915 274.000892 
L 409.999309 274.293181 
L 411.019703 274.423779 
L 412.040097 274.855994 
L 413.060491 275.913211 
L 414.080885 276.696795 
L 416.121673 277.502145 
L 418.162461 277.900156 
L 419.182855 278.096052 
L 420.203249 277.900156 
L 421.223643 277.582991 
L 422.244037 277.032617 
L 423.264431 276.336097 
L 424.284825 275.804379 
L 425.305219 274.896417 
L 426.325614 273.605991 
L 427.346008 272.794421 
L 428.366402 272.51457 
L 431.427584 270.679988 
L 434.488766 267.84416 
L 435.50916 266.360947 
L 436.529554 264.302484 
L 437.549948 261.43867 
L 438.570342 258.21105 
L 439.590736 254.23094 
L 441.631524 244.361511 
L 443.672312 233.357129 
L 449.794677 194.690983 
L 450.815071 189.448431 
L 451.835465 185.18847 
L 452.855859 182.007492 
L 453.876253 179.324027 
L 454.896647 177.361957 
L 455.917041 176.024889 
L 456.937435 175.263071 
L 457.957829 175.427872 
L 458.978223 176.553497 
L 459.998617 179.13124 
L 461.019011 182.781747 
L 462.039405 186.911111 
L 464.080194 197.349572 
L 466.120982 207.716514 
L 467.141376 212.722746 
L 471.222952 228.904381 
L 472.243346 232.492699 
L 473.26374 235.235243 
L 475.304528 238.988362 
L 476.324922 240.219709 
L 477.345316 240.605282 
L 478.36571 241.121453 
L 479.386104 242.212873 
L 480.406498 243.761385 
L 482.447287 249.199832 
L 483.467681 250.204188 
L 484.488075 250.197969 
L 485.508469 249.532544 
L 487.549257 247.626445 
L 489.590045 245.334772 
L 490.610439 244.436138 
L 491.630833 243.220339 
L 492.651227 241.438618 
L 493.671621 239.23401 
L 494.692015 236.472809 
L 495.712409 234.321062 
L 496.732803 234.224668 
L 497.753197 235.297432 
L 499.793985 239.159383 
L 500.81438 240.244585 
L 501.834774 240.670581 
L 502.855168 240.760755 
L 503.875562 240.574188 
L 504.895956 240.197943 
L 505.91635 239.563613 
L 506.936744 237.666842 
L 507.957138 234.977158 
L 508.977532 231.631378 
L 509.997926 227.508233 
L 522.242655 222.999515 
L 523.263049 218.111442 
L 525.303837 210.172988 
L 526.324231 207.228329 
L 527.344625 204.678571 
L 529.385413 200.051693 
L 531.426201 198.139375 
L 532.446595 198.332161 
L 534.487383 200.885029 
L 535.507777 202.349585 
L 537.548566 205.689146 
L 538.56896 207.057309 
L 540.609748 211.89563 
L 542.650536 216.62512 
L 543.67093 219.775004 
L 544.691324 222.212821 
L 549.793294 231.44792 
L 551.834082 234.719073 
L 553.87487 237.144452 
L 554.895264 238.506396 
L 555.915658 239.103413 
L 556.936053 239.451672 
L 557.956447 240.829163 
L 558.976841 241.513245 
L 559.997235 241.650061 
L 561.017629 241.401304 
L 562.038023 241.494588 
L 564.078811 242.184888 
L 565.099205 242.359018 
L 566.119599 241.961007 
L 567.139993 241.360881 
L 568.160387 240.922447 
L 570.201175 241.883271 
L 573.262357 241.970335 
L 574.282751 242.962254 
L 576.32354 246.737139 
L 577.343934 247.996471 
L 580.405116 252.50208 
L 581.42551 254.656936 
L 582.445904 257.240898 
L 583.466298 259.398864 
L 586.52748 264.890172 
L 587.547874 266.003359 
L 588.568268 266.684331 
L 589.588662 267.184954 
L 590.609056 268.036946 
L 592.649844 269.554363 
L 593.670239 270.008344 
L 594.690633 270.123394 
L 595.711027 269.852871 
L 596.731421 269.971031 
L 597.751815 269.871528 
L 598.772209 269.299387 
L 601.833391 268.24839 
L 602.853785 268.354111 
L 603.874179 268.693042 
L 604.894573 269.159462 
L 605.914967 269.949265 
L 611.016937 275.80127 
L 612.037331 277.558115 
L 616.118908 285.254031 
L 617.139302 286.633965 
L 618.159696 287.764477 
L 619.18009 288.617579 
L 625.302454 292.675537 
L 628.363636 294.566867 
L 628.363636 294.566867 
" style="fill:none;stroke:#ff0000;stroke-linecap:square;stroke-width:1.5;"/>
   </g>
   <g id="patch_3">
    <path d="M 64.8 313.2 
L 64.8 28.8 
" style="fill:none;stroke:#000000;stroke-linecap:square;stroke-linejoin:miter;stroke-width:0.8;"/>
   </g>
   <g id="patch_4">
    <path d="M 655.2 313.2 
L 655.2 28.8 
" style="fill:none;stroke:#000000;stroke-linecap:square;stroke-linejoin:miter;stroke-width:0.8;"/>
   </g>
   <g id="patch_5">
    <path d="M 64.8 313.2 
L 655.2 313.2 
" style="fill:none;stroke:#000000;stroke-linecap:square;stroke-linejoin:miter;stroke-width:0.8;"/>
   </g>
   <g id="patch_6">
    <path d="M 64.8 28.8 
L 655.2 28.8 
" style="fill:none;stroke:#000000;stroke-linecap:square;stroke-linejoin:miter;stroke-width:0.8;"/>
   </g>
   <g id="text_15">
    <!-- Page hits per uur (gemiddeld ongeveer 0). -->
    <g transform="translate(232.46625 22.8)scale(0.12 -0.12)">
     <defs>
      <path d="M 19.671875 64.796875 
L 19.671875 37.40625 
L 32.078125 37.40625 
Q 38.96875 37.40625 42.71875 40.96875 
Q 46.484375 44.53125 46.484375 51.125 
Q 46.484375 57.671875 42.71875 61.234375 
Q 38.96875 64.796875 32.078125 64.796875 
z
M 9.8125 72.90625 
L 32.078125 72.90625 
Q 44.34375 72.90625 50.609375 67.359375 
Q 56.890625 61.8125 56.890625 51.125 
Q 56.890625 40.328125 50.609375 34.8125 
Q 44.34375 29.296875 32.078125 29.296875 
L 19.671875 29.296875 
L 19.671875 0 
L 9.8125 0 
z
" id="DejaVuSans-80"/>
      <path d="M 45.40625 27.984375 
Q 45.40625 37.75 41.375 43.109375 
Q 37.359375 48.484375 30.078125 48.484375 
Q 22.859375 48.484375 18.828125 43.109375 
Q 14.796875 37.75 14.796875 27.984375 
Q 14.796875 18.265625 18.828125 12.890625 
Q 22.859375 7.515625 30.078125 7.515625 
Q 37.359375 7.515625 41.375 12.890625 
Q 45.40625 18.265625 45.40625 27.984375 
z
M 54.390625 6.78125 
Q 54.390625 -7.171875 48.1875 -13.984375 
Q 42 -20.796875 29.203125 -20.796875 
Q 24.46875 -20.796875 20.265625 -20.09375 
Q 16.0625 -19.390625 12.109375 -17.921875 
L 12.109375 -9.1875 
Q 16.0625 -11.328125 19.921875 -12.34375 
Q 23.78125 -13.375 27.78125 -13.375 
Q 36.625 -13.375 41.015625 -8.765625 
Q 45.40625 -4.15625 45.40625 5.171875 
L 45.40625 9.625 
Q 42.625 4.78125 38.28125 2.390625 
Q 33.9375 0 27.875 0 
Q 17.828125 0 11.671875 7.65625 
Q 5.515625 15.328125 5.515625 27.984375 
Q 5.515625 40.671875 11.671875 48.328125 
Q 17.828125 56 27.875 56 
Q 33.9375 56 38.28125 53.609375 
Q 42.625 51.21875 45.40625 46.390625 
L 45.40625 54.6875 
L 54.390625 54.6875 
z
" id="DejaVuSans-103"/>
      <path d="M 56.203125 29.59375 
L 56.203125 25.203125 
L 14.890625 25.203125 
Q 15.484375 15.921875 20.484375 11.0625 
Q 25.484375 6.203125 34.421875 6.203125 
Q 39.59375 6.203125 44.453125 7.46875 
Q 49.3125 8.734375 54.109375 11.28125 
L 54.109375 2.78125 
Q 49.265625 0.734375 44.1875 -0.34375 
Q 39.109375 -1.421875 33.890625 -1.421875 
Q 20.796875 -1.421875 13.15625 6.1875 
Q 5.515625 13.8125 5.515625 26.8125 
Q 5.515625 40.234375 12.765625 48.109375 
Q 20.015625 56 32.328125 56 
Q 43.359375 56 49.78125 48.890625 
Q 56.203125 41.796875 56.203125 29.59375 
z
M 47.21875 32.234375 
Q 47.125 39.59375 43.09375 43.984375 
Q 39.0625 48.390625 32.421875 48.390625 
Q 24.90625 48.390625 20.390625 44.140625 
Q 15.875 39.890625 15.1875 32.171875 
z
" id="DejaVuSans-101"/>
      <path id="DejaVuSans-32"/>
      <path d="M 54.890625 33.015625 
L 54.890625 0 
L 45.90625 0 
L 45.90625 32.71875 
Q 45.90625 40.484375 42.875 44.328125 
Q 39.84375 48.1875 33.796875 48.1875 
Q 26.515625 48.1875 22.3125 43.546875 
Q 18.109375 38.921875 18.109375 30.90625 
L 18.109375 0 
L 9.078125 0 
L 9.078125 75.984375 
L 18.109375 75.984375 
L 18.109375 46.1875 
Q 21.34375 51.125 25.703125 53.5625 
Q 30.078125 56 35.796875 56 
Q 45.21875 56 50.046875 50.171875 
Q 54.890625 44.34375 54.890625 33.015625 
z
" id="DejaVuSans-104"/>
      <path d="M 9.421875 54.6875 
L 18.40625 54.6875 
L 18.40625 0 
L 9.421875 0 
z
M 9.421875 75.984375 
L 18.40625 75.984375 
L 18.40625 64.59375 
L 9.421875 64.59375 
z
" id="DejaVuSans-105"/>
      <path d="M 44.28125 53.078125 
L 44.28125 44.578125 
Q 40.484375 46.53125 36.375 47.5 
Q 32.28125 48.484375 27.875 48.484375 
Q 21.1875 48.484375 17.84375 46.4375 
Q 14.5 44.390625 14.5 40.28125 
Q 14.5 37.15625 16.890625 35.375 
Q 19.28125 33.59375 26.515625 31.984375 
L 29.59375 31.296875 
Q 39.15625 29.25 43.1875 25.515625 
Q 47.21875 21.78125 47.21875 15.09375 
Q 47.21875 7.46875 41.1875 3.015625 
Q 35.15625 -1.421875 24.609375 -1.421875 
Q 20.21875 -1.421875 15.453125 -0.5625 
Q 10.6875 0.296875 5.421875 2 
L 5.421875 11.28125 
Q 10.40625 8.6875 15.234375 7.390625 
Q 20.0625 6.109375 24.8125 6.109375 
Q 31.15625 6.109375 34.5625 8.28125 
Q 37.984375 10.453125 37.984375 14.40625 
Q 37.984375 18.0625 35.515625 20.015625 
Q 33.0625 21.96875 24.703125 23.78125 
L 21.578125 24.515625 
Q 13.234375 26.265625 9.515625 29.90625 
Q 5.8125 33.546875 5.8125 39.890625 
Q 5.8125 47.609375 11.28125 51.796875 
Q 16.75 56 26.8125 56 
Q 31.78125 56 36.171875 55.265625 
Q 40.578125 54.546875 44.28125 53.078125 
z
" id="DejaVuSans-115"/>
      <path d="M 18.109375 8.203125 
L 18.109375 -20.796875 
L 9.078125 -20.796875 
L 9.078125 54.6875 
L 18.109375 54.6875 
L 18.109375 46.390625 
Q 20.953125 51.265625 25.265625 53.625 
Q 29.59375 56 35.59375 56 
Q 45.5625 56 51.78125 48.09375 
Q 58.015625 40.1875 58.015625 27.296875 
Q 58.015625 14.40625 51.78125 6.484375 
Q 45.5625 -1.421875 35.59375 -1.421875 
Q 29.59375 -1.421875 25.265625 0.953125 
Q 20.953125 3.328125 18.109375 8.203125 
z
M 48.6875 27.296875 
Q 48.6875 37.203125 44.609375 42.84375 
Q 40.53125 48.484375 33.40625 48.484375 
Q 26.265625 48.484375 22.1875 42.84375 
Q 18.109375 37.203125 18.109375 27.296875 
Q 18.109375 17.390625 22.1875 11.75 
Q 26.265625 6.109375 33.40625 6.109375 
Q 40.53125 6.109375 44.609375 11.75 
Q 48.6875 17.390625 48.6875 27.296875 
z
" id="DejaVuSans-112"/>
      <path d="M 41.109375 46.296875 
Q 39.59375 47.171875 37.8125 47.578125 
Q 36.03125 48 33.890625 48 
Q 26.265625 48 22.1875 43.046875 
Q 18.109375 38.09375 18.109375 28.8125 
L 18.109375 0 
L 9.078125 0 
L 9.078125 54.6875 
L 18.109375 54.6875 
L 18.109375 46.1875 
Q 20.953125 51.171875 25.484375 53.578125 
Q 30.03125 56 36.53125 56 
Q 37.453125 56 38.578125 55.875 
Q 39.703125 55.765625 41.0625 55.515625 
z
" id="DejaVuSans-114"/>
      <path d="M 31 75.875 
Q 24.46875 64.65625 21.28125 53.65625 
Q 18.109375 42.671875 18.109375 31.390625 
Q 18.109375 20.125 21.3125 9.0625 
Q 24.515625 -2 31 -13.1875 
L 23.1875 -13.1875 
Q 15.875 -1.703125 12.234375 9.375 
Q 8.59375 20.453125 8.59375 31.390625 
Q 8.59375 42.28125 12.203125 53.3125 
Q 15.828125 64.359375 23.1875 75.875 
z
" id="DejaVuSans-40"/>
      <path d="M 45.40625 46.390625 
L 45.40625 75.984375 
L 54.390625 75.984375 
L 54.390625 0 
L 45.40625 0 
L 45.40625 8.203125 
Q 42.578125 3.328125 38.25 0.953125 
Q 33.9375 -1.421875 27.875 -1.421875 
Q 17.96875 -1.421875 11.734375 6.484375 
Q 5.515625 14.40625 5.515625 27.296875 
Q 5.515625 40.1875 11.734375 48.09375 
Q 17.96875 56 27.875 56 
Q 33.9375 56 38.25 53.625 
Q 42.578125 51.265625 45.40625 46.390625 
z
M 14.796875 27.296875 
Q 14.796875 17.390625 18.875 11.75 
Q 22.953125 6.109375 30.078125 6.109375 
Q 37.203125 6.109375 41.296875 11.75 
Q 45.40625 17.390625 45.40625 27.296875 
Q 45.40625 37.203125 41.296875 42.84375 
Q 37.203125 48.484375 30.078125 48.484375 
Q 22.953125 48.484375 18.875 42.84375 
Q 14.796875 37.203125 14.796875 27.296875 
z
" id="DejaVuSans-100"/>
      <path d="M 9.421875 75.984375 
L 18.40625 75.984375 
L 18.40625 0 
L 9.421875 0 
z
" id="DejaVuSans-108"/>
      <path d="M 30.609375 48.390625 
Q 23.390625 48.390625 19.1875 42.75 
Q 14.984375 37.109375 14.984375 27.296875 
Q 14.984375 17.484375 19.15625 11.84375 
Q 23.34375 6.203125 30.609375 6.203125 
Q 37.796875 6.203125 41.984375 11.859375 
Q 46.1875 17.53125 46.1875 27.296875 
Q 46.1875 37.015625 41.984375 42.703125 
Q 37.796875 48.390625 30.609375 48.390625 
z
M 30.609375 56 
Q 42.328125 56 49.015625 48.375 
Q 55.71875 40.765625 55.71875 27.296875 
Q 55.71875 13.875 49.015625 6.21875 
Q 42.328125 -1.421875 30.609375 -1.421875 
Q 18.84375 -1.421875 12.171875 6.21875 
Q 5.515625 13.875 5.515625 27.296875 
Q 5.515625 40.765625 12.171875 48.375 
Q 18.84375 56 30.609375 56 
z
" id="DejaVuSans-111"/>
      <path d="M 54.890625 33.015625 
L 54.890625 0 
L 45.90625 0 
L 45.90625 32.71875 
Q 45.90625 40.484375 42.875 44.328125 
Q 39.84375 48.1875 33.796875 48.1875 
Q 26.515625 48.1875 22.3125 43.546875 
Q 18.109375 38.921875 18.109375 30.90625 
L 18.109375 0 
L 9.078125 0 
L 9.078125 54.6875 
L 18.109375 54.6875 
L 18.109375 46.1875 
Q 21.34375 51.125 25.703125 53.5625 
Q 30.078125 56 35.796875 56 
Q 45.21875 56 50.046875 50.171875 
Q 54.890625 44.34375 54.890625 33.015625 
z
" id="DejaVuSans-110"/>
      <path d="M 2.984375 54.6875 
L 12.5 54.6875 
L 29.59375 8.796875 
L 46.6875 54.6875 
L 56.203125 54.6875 
L 35.6875 0 
L 23.484375 0 
z
" id="DejaVuSans-118"/>
      <path d="M 8.015625 75.875 
L 15.828125 75.875 
Q 23.140625 64.359375 26.78125 53.3125 
Q 30.421875 42.28125 30.421875 31.390625 
Q 30.421875 20.453125 26.78125 9.375 
Q 23.140625 -1.703125 15.828125 -13.1875 
L 8.015625 -13.1875 
Q 14.5 -2 17.703125 9.0625 
Q 20.90625 20.125 20.90625 31.390625 
Q 20.90625 42.671875 17.703125 53.65625 
Q 14.5 64.65625 8.015625 75.875 
z
" id="DejaVuSans-41"/>
      <path d="M 10.6875 12.40625 
L 21 12.40625 
L 21 0 
L 10.6875 0 
z
" id="DejaVuSans-46"/>
     </defs>
     <use xlink:href="#DejaVuSans-80"/>
     <use x="55.802734" xlink:href="#DejaVuSans-97"/>
     <use x="117.082031" xlink:href="#DejaVuSans-103"/>
     <use x="180.558594" xlink:href="#DejaVuSans-101"/>
     <use x="242.082031" xlink:href="#DejaVuSans-32"/>
     <use x="273.869141" xlink:href="#DejaVuSans-104"/>
     <use x="337.248047" xlink:href="#DejaVuSans-105"/>
     <use x="365.03125" xlink:href="#DejaVuSans-116"/>
     <use x="404.240234" xlink:href="#DejaVuSans-115"/>
     <use x="456.339844" xlink:href="#DejaVuSans-32"/>
     <use x="488.126953" xlink:href="#DejaVuSans-112"/>
     <use x="551.603516" xlink:href="#DejaVuSans-101"/>
     <use x="613.126953" xlink:href="#DejaVuSans-114"/>
     <use x="654.240234" xlink:href="#DejaVuSans-32"/>
     <use x="686.027344" xlink:href="#DejaVuSans-117"/>
     <use x="749.40625" xlink:href="#DejaVuSans-117"/>
     <use x="812.785156" xlink:href="#DejaVuSans-114"/>
     <use x="853.898438" xlink:href="#DejaVuSans-32"/>
     <use x="885.685547" xlink:href="#DejaVuSans-40"/>
     <use x="924.699219" xlink:href="#DejaVuSans-103"/>
     <use x="988.175781" xlink:href="#DejaVuSans-101"/>
     <use x="1049.699219" xlink:href="#DejaVuSans-109"/>
     <use x="1147.111328" xlink:href="#DejaVuSans-105"/>
     <use x="1174.894531" xlink:href="#DejaVuSans-100"/>
     <use x="1238.371094" xlink:href="#DejaVuSans-100"/>
     <use x="1301.847656" xlink:href="#DejaVuSans-101"/>
     <use x="1363.371094" xlink:href="#DejaVuSans-108"/>
     <use x="1391.154297" xlink:href="#DejaVuSans-100"/>
     <use x="1454.630859" xlink:href="#DejaVuSans-32"/>
     <use x="1486.417969" xlink:href="#DejaVuSans-111"/>
     <use x="1547.599609" xlink:href="#DejaVuSans-110"/>
     <use x="1610.978516" xlink:href="#DejaVuSans-103"/>
     <use x="1674.455078" xlink:href="#DejaVuSans-101"/>
     <use x="1735.978516" xlink:href="#DejaVuSans-118"/>
     <use x="1795.158203" xlink:href="#DejaVuSans-101"/>
     <use x="1856.681641" xlink:href="#DejaVuSans-101"/>
     <use x="1918.205078" xlink:href="#DejaVuSans-114"/>
     <use x="1959.318359" xlink:href="#DejaVuSans-32"/>
     <use x="1991.105469" xlink:href="#DejaVuSans-48"/>
     <use x="2054.728516" xlink:href="#DejaVuSans-41"/>
     <use x="2093.742188" xlink:href="#DejaVuSans-46"/>
    </g>
   </g>
  </g>
  <g id="text_16">
   <!-- Gegenereerd op 2022-04-30 23:35. -->
   <g style="fill:#808080;" transform="translate(7.2 356.4)scale(0.08 -0.08)">
    <defs>
     <path d="M 59.515625 10.40625 
L 59.515625 29.984375 
L 43.40625 29.984375 
L 43.40625 38.09375 
L 69.28125 38.09375 
L 69.28125 6.78125 
Q 63.578125 2.734375 56.6875 0.65625 
Q 49.8125 -1.421875 42 -1.421875 
Q 24.90625 -1.421875 15.25 8.5625 
Q 5.609375 18.5625 5.609375 36.375 
Q 5.609375 54.25 15.25 64.234375 
Q 24.90625 74.21875 42 74.21875 
Q 49.125 74.21875 55.546875 72.453125 
Q 61.96875 70.703125 67.390625 67.28125 
L 67.390625 56.78125 
Q 61.921875 61.421875 55.765625 63.765625 
Q 49.609375 66.109375 42.828125 66.109375 
Q 29.4375 66.109375 22.71875 58.640625 
Q 16.015625 51.171875 16.015625 36.375 
Q 16.015625 21.625 22.71875 14.15625 
Q 29.4375 6.6875 42.828125 6.6875 
Q 48.046875 6.6875 52.140625 7.59375 
Q 56.25 8.5 59.515625 10.40625 
z
" id="DejaVuSans-71"/>
     <path d="M 11.71875 12.40625 
L 22.015625 12.40625 
L 22.015625 0 
L 11.71875 0 
z
M 11.71875 51.703125 
L 22.015625 51.703125 
L 22.015625 39.3125 
L 11.71875 39.3125 
z
" id="DejaVuSans-58"/>
    </defs>
    <use xlink:href="#DejaVuSans-71"/>
    <use x="77.490234" xlink:href="#DejaVuSans-101"/>
    <use x="139.013672" xlink:href="#DejaVuSans-103"/>
    <use x="202.490234" xlink:href="#DejaVuSans-101"/>
    <use x="264.013672" xlink:href="#DejaVuSans-110"/>
    <use x="327.392578" xlink:href="#DejaVuSans-101"/>
    <use x="388.916016" xlink:href="#DejaVuSans-114"/>
    <use x="427.779297" xlink:href="#DejaVuSans-101"/>
    <use x="489.302734" xlink:href="#DejaVuSans-101"/>
    <use x="550.826172" xlink:href="#DejaVuSans-114"/>
    <use x="590.189453" xlink:href="#DejaVuSans-100"/>
    <use x="653.666016" xlink:href="#DejaVuSans-32"/>
    <use x="685.453125" xlink:href="#DejaVuSans-111"/>
    <use x="746.634766" xlink:href="#DejaVuSans-112"/>
    <use x="810.111328" xlink:href="#DejaVuSans-32"/>
    <use x="841.898438" xlink:href="#DejaVuSans-50"/>
    <use x="905.521484" xlink:href="#DejaVuSans-48"/>
    <use x="969.144531" xlink:href="#DejaVuSans-50"/>
    <use x="1032.767578" xlink:href="#DejaVuSans-50"/>
    <use x="1096.390625" xlink:href="#DejaVuSans-45"/>
    <use x="1132.474609" xlink:href="#DejaVuSans-48"/>
    <use x="1196.097656" xlink:href="#DejaVuSans-52"/>
    <use x="1259.720703" xlink:href="#DejaVuSans-45"/>
    <use x="1295.804688" xlink:href="#DejaVuSans-51"/>
    <use x="1359.427734" xlink:href="#DejaVuSans-48"/>
    <use x="1423.050781" xlink:href="#DejaVuSans-32"/>
    <use x="1454.837891" xlink:href="#DejaVuSans-50"/>
    <use x="1518.460938" xlink:href="#DejaVuSans-51"/>
    <use x="1582.083984" xlink:href="#DejaVuSans-58"/>
    <use x="1615.775391" xlink:href="#DejaVuSans-51"/>
    <use x="1679.398438" xlink:href="#DejaVuSans-53"/>
    <use x="1743.021484" xlink:href="#DejaVuSans-46"/>
   </g>
  </g>
  <g id="text_17">
   <!-- https://realrolfje.github.io/coronadata/ -->
   <g style="fill:#808080;" transform="translate(560.24375 356.4)scale(0.08 -0.08)">
    <defs>
     <path d="M 25.390625 72.90625 
L 33.6875 72.90625 
L 8.296875 -9.28125 
L 0 -9.28125 
z
" id="DejaVuSans-47"/>
     <path d="M 37.109375 75.984375 
L 37.109375 68.5 
L 28.515625 68.5 
Q 23.6875 68.5 21.796875 66.546875 
Q 19.921875 64.59375 19.921875 59.515625 
L 19.921875 54.6875 
L 34.71875 54.6875 
L 34.71875 47.703125 
L 19.921875 47.703125 
L 19.921875 0 
L 10.890625 0 
L 10.890625 47.703125 
L 2.296875 47.703125 
L 2.296875 54.6875 
L 10.890625 54.6875 
L 10.890625 58.5 
Q 10.890625 67.625 15.140625 71.796875 
Q 19.390625 75.984375 28.609375 75.984375 
z
" id="DejaVuSans-102"/>
     <path d="M 9.421875 54.6875 
L 18.40625 54.6875 
L 18.40625 -0.984375 
Q 18.40625 -11.421875 14.421875 -16.109375 
Q 10.453125 -20.796875 1.609375 -20.796875 
L -1.8125 -20.796875 
L -1.8125 -13.1875 
L 0.59375 -13.1875 
Q 5.71875 -13.1875 7.5625 -10.8125 
Q 9.421875 -8.453125 9.421875 -0.984375 
z
M 9.421875 75.984375 
L 18.40625 75.984375 
L 18.40625 64.59375 
L 9.421875 64.59375 
z
" id="DejaVuSans-106"/>
     <path d="M 48.6875 27.296875 
Q 48.6875 37.203125 44.609375 42.84375 
Q 40.53125 48.484375 33.40625 48.484375 
Q 26.265625 48.484375 22.1875 42.84375 
Q 18.109375 37.203125 18.109375 27.296875 
Q 18.109375 17.390625 22.1875 11.75 
Q 26.265625 6.109375 33.40625 6.109375 
Q 40.53125 6.109375 44.609375 11.75 
Q 48.6875 17.390625 48.6875 27.296875 
z
M 18.109375 46.390625 
Q 20.953125 51.265625 25.265625 53.625 
Q 29.59375 56 35.59375 56 
Q 45.5625 56 51.78125 48.09375 
Q 58.015625 40.1875 58.015625 27.296875 
Q 58.015625 14.40625 51.78125 6.484375 
Q 45.5625 -1.421875 35.59375 -1.421875 
Q 29.59375 -1.421875 25.265625 0.953125 
Q 20.953125 3.328125 18.109375 8.203125 
L 18.109375 0 
L 9.078125 0 
L 9.078125 75.984375 
L 18.109375 75.984375 
z
" id="DejaVuSans-98"/>
     <path d="M 48.78125 52.59375 
L 48.78125 44.1875 
Q 44.96875 46.296875 41.140625 47.34375 
Q 37.3125 48.390625 33.40625 48.390625 
Q 24.65625 48.390625 19.8125 42.84375 
Q 14.984375 37.3125 14.984375 27.296875 
Q 14.984375 17.28125 19.8125 11.734375 
Q 24.65625 6.203125 33.40625 6.203125 
Q 37.3125 6.203125 41.140625 7.25 
Q 44.96875 8.296875 48.78125 10.40625 
L 48.78125 2.09375 
Q 45.015625 0.34375 40.984375 -0.53125 
Q 36.96875 -1.421875 32.421875 -1.421875 
Q 20.0625 -1.421875 12.78125 6.34375 
Q 5.515625 14.109375 5.515625 27.296875 
Q 5.515625 40.671875 12.859375 48.328125 
Q 20.21875 56 33.015625 56 
Q 37.15625 56 41.109375 55.140625 
Q 45.0625 54.296875 48.78125 52.59375 
z
" id="DejaVuSans-99"/>
    </defs>
    <use xlink:href="#DejaVuSans-104"/>
    <use x="63.378906" xlink:href="#DejaVuSans-116"/>
    <use x="102.587891" xlink:href="#DejaVuSans-116"/>
    <use x="141.796875" xlink:href="#DejaVuSans-112"/>
    <use x="205.273438" xlink:href="#DejaVuSans-115"/>
    <use x="257.373047" xlink:href="#DejaVuSans-58"/>
    <use x="291.064453" xlink:href="#DejaVuSans-47"/>
    <use x="324.755859" xlink:href="#DejaVuSans-47"/>
    <use x="358.447266" xlink:href="#DejaVuSans-114"/>
    <use x="397.310547" xlink:href="#DejaVuSans-101"/>
    <use x="458.833984" xlink:href="#DejaVuSans-97"/>
    <use x="520.113281" xlink:href="#DejaVuSans-108"/>
    <use x="547.896484" xlink:href="#DejaVuSans-114"/>
    <use x="586.759766" xlink:href="#DejaVuSans-111"/>
    <use x="647.941406" xlink:href="#DejaVuSans-108"/>
    <use x="675.724609" xlink:href="#DejaVuSans-102"/>
    <use x="710.929688" xlink:href="#DejaVuSans-106"/>
    <use x="738.712891" xlink:href="#DejaVuSans-101"/>
    <use x="800.236328" xlink:href="#DejaVuSans-46"/>
    <use x="832.023438" xlink:href="#DejaVuSans-103"/>
    <use x="895.5" xlink:href="#DejaVuSans-105"/>
    <use x="923.283203" xlink:href="#DejaVuSans-116"/>
    <use x="962.492188" xlink:href="#DejaVuSans-104"/>
    <use x="1025.871094" xlink:href="#DejaVuSans-117"/>
    <use x="1089.25" xlink:href="#DejaVuSans-98"/>
    <use x="1152.726562" xlink:href="#DejaVuSans-46"/>
    <use x="1184.513672" xlink:href="#DejaVuSans-105"/>
    <use x="1212.296875" xlink:href="#DejaVuSans-111"/>
    <use x="1273.478516" xlink:href="#DejaVuSans-47"/>
    <use x="1307.169922" xlink:href="#DejaVuSans-99"/>
    <use x="1362.150391" xlink:href="#DejaVuSans-111"/>
    <use x="1423.332031" xlink:href="#DejaVuSans-114"/>
    <use x="1462.195312" xlink:href="#DejaVuSans-111"/>
    <use x="1523.376953" xlink:href="#DejaVuSans-110"/>
    <use x="1586.755859" xlink:href="#DejaVuSans-97"/>
    <use x="1648.035156" xlink:href="#DejaVuSans-100"/>
    <use x="1711.511719" xlink:href="#DejaVuSans-97"/>
    <use x="1772.791016" xlink:href="#DejaVuSans-116"/>
    <use x="1812" xlink:href="#DejaVuSans-97"/>
    <use x="1873.279297" xlink:href="#DejaVuSans-47"/>
   </g>
  </g>
 </g>
 <defs>
  <clipPath id="pb5a3872759">
   <rect height="284.4" width="590.4" x="64.8" y="28.8"/>
  </clipPath>
 </defs>
</svg>
