<?xml version="1.0" encoding="utf-8" standalone="no"?>
<!DOCTYPE svg PUBLIC "-//W3C//DTD SVG 1.1//EN"
  "http://www.w3.org/Graphics/SVG/1.1/DTD/svg11.dtd">
<!-- Created with matplotlib (https://matplotlib.org/) -->
<svg height="360pt" version="1.1" viewBox="0 0 720 360" width="720pt" xmlns="http://www.w3.org/2000/svg" xmlns:xlink="http://www.w3.org/1999/xlink">
 <metadata>
  <rdf:RDF xmlns:cc="http://creativecommons.org/ns#" xmlns:dc="http://purl.org/dc/elements/1.1/" xmlns:rdf="http://www.w3.org/1999/02/22-rdf-syntax-ns#">
   <cc:Work>
    <dc:type rdf:resource="http://purl.org/dc/dcmitype/StillImage"/>
    <dc:date>2021-07-09T23:40:32.388177</dc:date>
    <dc:format>image/svg+xml</dc:format>
    <dc:creator>
     <cc:Agent>
      <dc:title>Matplotlib v3.3.2, https://matplotlib.org/</dc:title>
     </cc:Agent>
    </dc:creator>
   </cc:Work>
  </rdf:RDF>
 </metadata>
 <defs>
  <style type="text/css">*{stroke-linecap:butt;stroke-linejoin:round;}</style>
 </defs>
 <g id="figure_1">
  <g id="patch_1">
   <path d="M 0 360 
L 720 360 
L 720 0 
L 0 0 
z
" style="fill:#ffffff;"/>
  </g>
  <g id="axes_1">
   <g id="patch_2">
    <path d="M 64.8 313.2 
L 655.2 313.2 
L 655.2 28.8 
L 64.8 28.8 
z
" style="fill:#ffffff;"/>
   </g>
   <g id="PolyCollection_1">
    <path clip-path="url(#p9280138021)" d="M 91.636364 313.2 
L 91.636364 313.2 
L 92.999071 313.2 
L 93.579743 313.2 
L 94.160523 313.2 
L 95.318401 313.2 
L 95.900337 313.2 
L 96.289513 313.2 
L 97.646871 313.2 
L 98.22464 313.2 
L 98.80542 313.2 
L 99.966685 313.2 
L 100.547357 313.2 
L 101.127896 313.2 
L 102.28916 313.2 
L 102.870236 313.2 
L 109.256774 313.2 
L 109.837339 313.2 
L 110.418012 313.2 
L 111.57925 313.2 
L 112.160433 313.2 
L 112.740541 313.2 
L 113.902021 313.2 
L 114.482478 313.2 
L 115.03463 313.2 
L 116.224388 313.2 
L 116.805007 313.2 
L 117.329526 313.2 
L 118.545788 313.2 
L 119.126488 313.2 
L 119.707833 313.2 
L 120.868318 313.2 
L 121.44942 313.2 
L 122.029582 313.2 
L 123.192997 313.2 
L 123.773723 313.2 
L 124.329317 313.2 
L 125.515311 313.2 
L 126.09593 313.2 
L 126.676495 313.2 
L 127.835905 313.2 
L 128.416712 313.2 
L 128.893303 313.2 
L 130.158676 313.2 
L 130.739187 313.2 
L 131.319887 313.2 
L 132.483328 313.2 
L 133.027282 313.2 
L 133.604568 313.2 
L 134.80575 313.2 
L 135.387578 313.2 
L 135.836483 313.2 
L 137.126048 313.2 
L 137.7075 313.2 
L 138.289517 313.2 
L 139.379871 313.2 
L 140.029438 313.2 
L 140.609895 313.2 
L 141.771241 313.2 
L 142.35323 313.2 
L 142.933849 313.2 
L 144.093823 313.2 
L 144.674845 313.2 
L 145.255061 313.2 
L 146.797491 313.2 
L 147.46859 313.2 
L 148.739715 313.2 
L 149.159992 313.2 
L 149.720504 313.2 
L 151.061411 313.2 
L 151.64203 313.2 
L 152.222702 313.2 
L 153.383994 313.2 
L 153.962247 313.2 
L 154.542946 313.2 
L 155.704372 313.2 
L 156.284857 313.2 
L 156.865475 313.2 
L 158.026821 313.2 
L 158.607413 313.2 
L 159.188005 313.2 
L 160.350022 313.2 
L 160.929969 313.2 
L 161.512738 313.2 
L 162.671906 313.2 
L 163.091376 313.2 
L 163.833224 313.2 
L 164.994515 313.2 
L 165.575349 313.2 
L 166.155834 313.2 
L 167.317206 313.2 
L 167.898067 313.2 
L 168.478282 313.2 
L 169.640487 313.2 
L 170.220273 313.2 
L 170.755948 313.2 
L 171.962291 313.2 
L 172.54291 313.2 
L 173.123502 313.2 
L 174.284766 313.2 
L 174.867697 313.2 
L 175.446649 313.2 
L 176.607403 313.2 
L 177.188237 313.2 
L 177.768721 313.2 
L 178.929851 313.2 
L 179.510497 313.2 
L 180.091304 313.2 
L 181.252542 313.2 
L 181.687307 313.2 
L 182.413618 313.2 
L 183.576253 313.2 
L 184.155528 313.2 
L 184.651178 313.2 
L 185.897492 313.2 
L 186.478219 313.2 
L 187.058784 313.2 
L 188.223166 313.2 
L 188.819241 313.2 
L 189.385022 313.2 
L 190.542739 313.2 
L 191.123277 313.2 
L 191.704084 313.2 
L 192.865402 313.2 
L 193.446263 313.2 
L 194.029059 313.2 
L 195.187716 313.2 
L 195.768389 313.2 
L 196.218825 313.2 
L 197.241118 313.2 
L 198.090945 313.2 
L 198.671725 313.2 
L 199.837908 313.2 
L 200.415759 313.2 
L 200.997238 313.2 
L 202.155384 313.2 
L 202.735895 313.2 
L 203.316756 313.2 
L 204.477994 313.2 
L 205.058424 313.2 
L 205.639043 313.2 
L 206.803399 313.2 
L 207.381061 313.2 
L 207.96176 313.2 
L 209.122998 313.2 
L 209.703644 313.2 
L 210.223459 313.2 
L 211.449049 313.2 
L 212.02956 313.2 
L 212.610313 313.2 
L 213.771416 313.2 
L 214.35182 313.2 
L 214.932869 313.2 
L 216.090451 313.2 
L 216.671177 313.2 
L 217.251608 313.2 
L 218.418007 313.2 
L 218.996851 313.2 
L 219.387506 313.2 
L 220.736342 313.2 
L 221.316504 313.2 
L 221.89672 313.2 
L 223.058119 313.2 
L 223.63863 313.2 
L 224.21941 313.2 
L 225.380513 313.2 
L 225.961132 313.2 
L 226.545837 313.2 
L 227.706322 313.2 
L 228.287075 313.2 
L 228.867909 313.2 
L 230.026244 313.2 
L 230.606674 313.2 
L 231.187078 313.2 
L 232.143029 313.2 
L 232.928773 313.2 
L 233.509338 313.2 
L 234.671248 313.2 
L 235.251786 313.2 
L 235.831814 313.2 
L 236.994153 313.2 
L 237.57367 313.2 
L 238.154397 313.2 
L 239.31558 313.2 
L 239.896226 313.2 
L 240.476845 313.2 
L 241.638136 313.2 
L 242.218782 313.2 
L 242.799293 313.2 
L 243.960612 313.2 
L 244.541365 313.2 
L 245.122683 313.2 
L 246.283652 313.2 
L 246.863706 313.2 
L 247.44454 313.2 
L 248.60567 313.2 
L 249.186289 313.2 
L 249.766908 313.2 
L 250.928253 313.2 
L 251.509409 313.2 
L 252.089356 313.2 
L 253.251857 313.2 
L 253.829116 313.2 
L 254.349442 313.2 
L 255.570972 313.2 
L 256.151591 313.2 
L 256.732291 313.2 
L 257.893475 313.2 
L 258.473851 313.2 
L 259.054685 313.2 
L 260.217025 313.2 
L 260.796381 313.2 
L 261.376919 313.2 
L 262.538721 313.2 
L 263.118856 313.2 
L 263.699502 313.2 
L 264.862755 313.2 
L 265.441708 313.2 
L 266.02195 313.2 
L 267.184236 313.2 
L 267.763833 313.2 
L 268.344506 313.2 
L 269.506147 313.2 
L 270.086362 313.2 
L 270.669374 313.2 
L 271.83045 313.2 
L 272.411015 313.2 
L 272.991903 313.2 
L 274.153409 313.2 
L 274.733732 313.2 
L 275.314244 313.2 
L 276.476557 313.2 
L 277.056235 313.2 
L 277.636827 313.2 
L 278.79801 313.2 
L 279.378549 313.2 
L 279.959302 313.2 
L 281.120781 313.2 
L 281.70097 313.2 
L 282.281697 313.2 
L 283.443203 313.2 
L 284.023607 313.2 
L 284.60436 313.2 
L 285.763904 313.2 
L 286.346109 313.2 
L 286.926755 313.2 
L 288.087992 313.2 
L 288.49542 313.2 
L 289.249203 313.2 
L 290.410548 313.2 
L 290.991328 313.2 
L 291.571786 313.2 
L 292.733158 313.2 
L 293.31375 313.2 
L 293.894826 313.2 
L 295.055768 313.2 
L 295.636145 313.2 
L 296.216737 313.2 
L 297.378055 313.2 
L 297.885908 313.2 
L 298.539454 313.2 
L 299.698649 313.2 
L 300.278891 313.2 
L 300.859617 313.2 
L 302.024995 313.2 
L 302.605291 313.2 
L 303.186044 313.2 
L 304.345346 313.2 
L 304.923896 313.2 
L 305.504676 313.2 
L 306.665806 313.2 
L 307.246451 313.2 
L 307.827742 313.2 
L 308.990593 313.2 
L 309.568981 313.2 
L 310.151911 313.2 
L 311.319761 313.2 
L 311.895622 313.2 
L 312.47901 313.2 
L 313.637022 313.2 
L 314.216243 313.2 
L 314.796808 313.2 
L 315.964201 313.2 
L 316.542885 313.2 
L 317.123611 313.2 
L 318.281811 313.2 
L 318.861435 313.2 
L 319.442484 313.2 
L 320.604125 313.2 
L 321.183857 313.2 
L 321.764583 313.2 
L 322.925848 313.2 
L 323.506413 313.2 
L 324.086951 313.2 
L 325.249372 313.2 
L 325.828942 313.2 
L 326.335425 313.2 
L 327.577384 313.2 
L 328.155933 313.2 
L 328.736606 313.2 
L 329.896204 313.2 
L 330.474054 313.2 
L 330.967607 313.2 
L 332.2179 313.2 
L 332.794003 313.2 
L 333.377229 313.2 
L 334.542391 313.2 
L 335.120644 313.2 
L 335.701156 313.2 
L 336.858334 313.2 
L 337.438899 313.2 
L 338.019465 313.2 
L 339.1821 313.2 
L 339.761563 313.2 
L 340.343929 313.2 
L 341.505866 313.2 
L 342.083823 313.2 
L 342.664523 313.2 
L 343.829873 313.2 
L 344.406433 313.2 
L 344.795071 313.2 
L 346.152859 313.2 
L 346.731247 313.2 
L 347.312 313.2 
L 348.47555 313.2 
L 349.053991 313.2 
L 349.634502 313.2 
L 350.798132 313.2 
L 351.376735 313.2 
L 351.957166 313.2 
L 353.118296 313.2 
L 353.698995 313.2 
L 354.279534 313.2 
L 355.445959 313.2 
L 356.022197 313.2 
L 356.529136 313.2 
L 357.765343 313.2 
L 358.345209 313.2 
L 358.924914 313.2 
L 360.666663 313.2 
L 361.247121 313.2 
L 362.415374 313.2 
L 362.989112 313.2 
L 363.569865 313.2 
L 364.732823 313.2 
L 365.314329 313.2 
L 369.375946 313.2 
L 369.95678 313.2 
L 370.537318 313.2 
L 371.698824 313.2 
L 372.279228 313.2 
L 372.859793 313.2 
L 374.610493 313.2 
L 375.182457 313.2 
L 376.924286 313.2 
L 377.504932 313.2 
L 379.249288 313.2 
L 379.827354 313.2 
L 381.571038 313.2 
L 382.153511 313.2 
L 383.893244 313.2 
L 384.473353 313.2 
L 385.636821 313.2 
L 386.183598 313.2 
L 386.78564 313.2 
L 387.924701 313.2 
L 388.348123 313.2 
L 389.114352 313.2 
L 390.282283 313.2 
L 390.767825 313.2 
L 391.415511 313.2 
L 393.007535 313.2 
L 393.598181 313.2 
L 394.940674 313.2 
L 395.331865 313.2 
L 396.072128 313.2 
L 397.260703 313.2 
L 397.837182 313.2 
L 398.417371 313.2 
L 399.5792 313.2 
L 399.972166 313.2 
L 400.742937 313.2 
L 401.904175 313.2 
L 402.294641 313.2 
L 403.065628 313.2 
L 404.22665 313.2 
L 404.617788 313.2 
L 405.388022 313.2 
L 406.517971 313.2 
L 406.940855 313.2 
L 407.710551 313.2 
L 408.872273 313.2 
L 409.262228 313.2 
L 410.032812 313.2 
L 411.195367 313.2 
L 411.590026 313.2 
L 412.307601 313.2 
L 413.518326 313.2 
L 413.909276 313.2 
L 414.57852 313.2 
L 415.840855 313.2 
L 416.231106 313.2 
L 417.000399 313.2 
L 418.162551 313.2 
L 418.552802 313.2 
L 419.323089 313.2 
L 420.397503 313.2 
L 420.820951 313.2 
L 421.646022 313.2 
L 422.808334 313.2 
L 423.197564 313.2 
L 423.968013 313.2 
L 425.130837 313.2 
L 425.520147 313.2 
L 426.290623 313.2 
L 427.452963 313.2 
L 427.842864 313.2 
L 428.613017 313.2 
L 430.16499 313.2 
L 430.935654 313.2 
L 431.977784 313.2 
L 432.487734 313.2 
L 433.261409 313.2 
L 434.41934 313.2 
L 434.81029 313.2 
L 435.580605 313.2 
L 436.741789 313.2 
L 437.138222 313.2 
L 437.902999 313.2 
L 439.066146 313.2 
L 439.455429 313.2 
L 440.225609 313.2 
L 441.068662 313.2 
L 441.779168 313.2 
L 442.548058 313.2 
L 443.71072 313.2 
L 444.100702 313.2 
L 444.759839 313.2 
L 446.032631 313.2 
L 446.422936 313.2 
L 447.193143 313.2 
L 448.356289 313.2 
L 448.745357 313.2 
L 449.515645 313.2 
L 450.443775 313.2 
L 451.068048 313.2 
L 451.838147 313.2 
L 453.390335 313.2 
L 454.160595 313.2 
L 455.323392 313.2 
L 455.712971 313.2 
L 456.483716 313.2 
L 458.035635 313.2 
L 458.805976 313.2 
L 459.968423 313.2 
L 460.358271 313.2 
L 461.128505 313.2 
L 462.290953 313.2 
L 462.681956 313.2 
L 463.112152 313.2 
L 465.003437 313.2 
L 465.773214 313.2 
L 466.934559 313.2 
L 467.32559 313.2 
L 468.095824 313.2 
L 469.257035 313.2 
L 469.648146 313.2 
L 470.430368 313.2 
L 471.579644 313.2 
L 471.970621 313.2 
L 472.733705 313.2 
L 473.902012 313.2 
L 474.493114 313.2 
L 475.063519 313.2 
L 476.022292 313.2 
L 476.809326 313.2 
L 477.401988 313.2 
L 478.56508 313.2 
L 478.954149 313.2 
L 479.72449 313.2 
L 481.277081 313.2 
L 482.046912 313.2 
L 483.209762 313.2 
L 483.59961 313.2 
L 484.369279 313.2 
L 485.530571 313.2 
L 485.921816 313.2 
L 486.69205 313.2 
L 488.252221 313.2 
L 489.014902 313.2 
L 490.559778 313.2 
L 491.33692 313.2 
L 492.890479 313.2 
L 493.660928 313.2 
L 494.823294 313.2 
L 495.212067 313.2 
L 495.981817 313.2 
L 497.144345 313.2 
L 497.534623 313.2 
L 498.304373 313.2 
L 499.466095 313.2 
L 499.857045 313.2 
L 500.626795 313.2 
L 501.788167 313.2 
L 502.17952 313.2 
L 502.638021 313.2 
L 504.113948 313.2 
L 504.503716 313.2 
L 505.27196 313.2 
L 506.824793 313.2 
L 507.594624 313.2 
L 508.758012 313.2 
L 509.148586 313.2 
L 509.916992 313.2 
L 511.080084 313.2 
L 511.470335 313.2 
L 512.239548 313.2 
L 513.792569 313.2 
L 514.562077 313.2 
L 515.723449 313.2 
L 516.114238 313.2 
L 516.884498 313.2 
L 518.047295 313.2 
L 518.43932 313.2 
L 519.207189 313.2 
L 520.370711 313.2 
L 520.759591 313.2 
L 521.530094 313.2 
L 522.693079 313.2 
L 523.082067 313.2 
L 523.851978 313.2 
L 525.016334 313.2 
L 525.405295 313.2 
L 526.174695 313.2 
L 527.338755 313.2 
L 527.727044 313.2 
L 528.497063 313.2 
L 530.052261 313.2 
L 530.81935 313.2 
L 531.98083 313.2 
L 532.372398 313.2 
L 533.14196 313.2 
L 534.303332 313.2 
L 534.694793 313.2 
L 535.464408 313.2 
L 536.619625 313.2 
L 537.017537 313.2 
L 537.786884 313.2 
L 539.339797 313.2 
L 540.109413 313.2 
L 541.273123 313.2 
L 541.662541 313.2 
L 542.432023 313.2 
L 543.689627 313.2 
L 544.17404 313.2 
L 544.754552 313.2 
L 546.307546 313.2 
L 547.076893 313.2 
L 548.238318 313.2 
L 548.630048 313.2 
L 549.399287 313.2 
L 550.560686 313.2 
L 550.95212 313.2 
L 551.721924 313.2 
L 552.885393 313.2 
L 553.274595 313.2 
L 554.044238 313.2 
L 555.597178 313.2 
L 556.36674 313.2 
L 557.530263 313.2 
L 557.919654 313.2 
L 558.689242 313.2 
L 559.852711 313.2 
L 560.24436 313.2 
L 561.011583 313.2 
L 562.174837 313.2 
L 562.564497 313.2 
L 563.334112 313.2 
L 564.495995 313.2 
L 564.887106 313.2 
L 565.656534 313.2 
L 566.818148 313.2 
L 567.209555 313.2 
L 567.979063 313.2 
L 569.140543 313.2 
L 569.532138 313.2 
L 570.301565 313.2 
L 572.277201 313.2 
L 576.109635 313.2 
L 576.500101 313.2 
L 577.269824 313.2 
L 578.82177 313.2 
L 579.591413 313.2 
L 580.754666 313.2 
L 581.144434 313.2 
L 581.913861 313.2 
L 583.075233 313.2 
L 583.467043 313.2 
L 584.236578 313.2 
L 585.401069 313.2 
L 585.790701 313.2 
L 586.559107 313.2 
L 588.113042 313.2 
L 588.881663 313.2 
L 590.437077 313.2 
L 591.204112 313.2 
L 592.759418 313.2 
L 593.526533 313.2 
L 594.690298 313.2 
L 595.079259 313.2 
L 595.849036 313.2 
L 597.010784 313.2 
L 597.401949 313.2 
L 598.171565 313.2 
L 599.332856 313.2 
L 599.917749 313.2 
L 600.493825 313.2 
L 602.047814 313.2 
L 602.81622 313.2 
L 604.369859 313.2 
L 605.138883 313.2 
L 606.302943 313.2 
L 606.691582 313.2 
L 607.461143 313.2 
L 608.625177 313.2 
L 609.014487 313.2 
L 609.783834 313.2 
L 610.94698 313.2 
L 611.336586 313.2 
L 612.106202 313.2 
L 613.267896 313.2 
L 613.659061 313.2 
L 614.428758 313.2 
L 615.590183 313.2 
L 615.981994 313.2 
L 616.75126 313.2 
L 618.30463 313.2 
L 619.073869 313.2 
L 620.627966 313.2 
L 621.39621 313.2 
L 622.94907 313.2 
L 623.718659 313.2 
L 625.271653 313.2 
L 626.041349 313.2 
L 627.203662 313.2 
L 627.783098 313.2 
L 628.363636 313.2 
L 628.363636 313.2 
L 628.363636 -39.97455 
L 627.783098 -40.001447 
L 627.203662 137.437858 
L 626.041349 47.939058 
L 625.271653 181.999252 
L 623.718659 49.833052 
L 622.94907 183.281647 
L 621.39621 51.476906 
L 620.627966 184.177461 
L 619.073869 53.067492 
L 618.30463 184.546809 
L 616.75126 53.653352 
L 615.981994 -195.986363 
L 615.590183 141.503614 
L 614.428758 54.298968 
L 613.659061 -196.05223 
L 613.267896 141.768399 
L 612.106202 54.522173 
L 611.336586 -196.447797 
L 610.94698 142.763128 
L 609.783834 55.639072 
L 609.014487 -195.385711 
L 608.625177 143.176718 
L 607.461143 56.059738 
L 606.691582 -195.716329 
L 606.302943 143.357959 
L 605.138883 56.224502 
L 604.369859 186.141141 
L 602.81622 56.823593 
L 602.047814 186.489963 
L 600.493825 -28.068323 
L 599.917749 -22.378756 
L 599.332856 144.463759 
L 598.171565 59.519222 
L 597.401949 -185.323001 
L 597.010784 145.631664 
L 595.849036 60.895187 
L 595.079259 -184.663449 
L 594.690298 147.151659 
L 593.526533 61.558477 
L 592.759418 189.276514 
L 591.204112 62.635315 
L 590.437077 189.851263 
L 588.881663 63.931095 
L 588.113042 190.15453 
L 586.559107 64.429329 
L 585.790701 -176.988734 
L 585.401069 149.305294 
L 584.236578 65.357445 
L 583.467043 -173.263764 
L 583.075233 149.137768 
L 581.913861 65.70739 
L 581.144434 -175.1604 
L 580.754666 149.639727 
L 579.591413 66.174982 
L 578.82177 190.830244 
L 577.269824 67.169917 
L 576.500101 -170.324266 
L 576.109635 188.322486 
L 572.277201 218.044999 
L 570.301565 69.257086 
L 569.532138 -165.536737 
L 569.140543 151.90741 
L 567.979063 69.890609 
L 567.209555 -164.307905 
L 566.818148 152.399898 
L 565.656534 70.759276 
L 564.887106 -162.962553 
L 564.495995 153.070698 
L 563.334112 71.828763 
L 562.564497 -162.86472 
L 562.174837 153.856802 
L 561.011583 71.730637 
L 560.24436 -159.129276 
L 559.852711 154.229215 
L 558.689242 73.018244 
L 557.919654 -160.436984 
L 557.530263 154.792394 
L 556.36674 73.980911 
L 555.597178 194.776332 
L 554.044238 74.563604 
L 553.274595 -157.66078 
L 552.885393 155.873148 
L 551.721924 75.516175 
L 550.95212 -153.62354 
L 550.560686 155.942278 
L 549.399287 76.164552 
L 548.630048 -151.268932 
L 548.238318 156.745636 
L 547.076893 77.366012 
L 546.307546 196.602565 
L 544.754552 2.180082 
L 544.17404 -58.936108 
L 543.689627 170.034808 
L 542.432023 79.475784 
L 541.662541 -147.75412 
L 541.273123 159.133915 
L 540.109413 80.532607 
L 539.339797 198.367365 
L 537.786884 82.117281 
L 537.017537 -130.651983 
L 536.619625 160.907422 
L 535.464408 85.89023 
L 534.694793 -131.657091 
L 534.303332 163.456316 
L 533.14196 88.136169 
L 532.372398 -127.388233 
L 531.98083 164.986627 
L 530.81935 89.677221 
L 530.052261 203.570498 
L 528.497063 92.898003 
L 527.727044 -121.5056 
L 527.338755 168.908728 
L 526.174695 95.269428 
L 525.405295 -117.163729 
L 525.016334 169.553992 
L 523.851978 96.08414 
L 523.082067 -114.463189 
L 522.693079 170.372615 
L 521.530094 97.724118 
L 520.759591 -112.847588 
L 520.370711 170.893938 
L 519.207189 97.719489 
L 518.43932 -108.516999 
L 518.047295 171.077274 
L 516.884498 98.862179 
L 516.114238 -108.654155 
L 515.723449 171.347248 
L 514.562077 99.169032 
L 513.792569 207.240025 
L 512.239548 99.500263 
L 511.470335 -107.401783 
L 511.080084 172.166351 
L 509.916992 99.822155 
L 509.148586 -106.437875 
L 508.758012 172.403257 
L 507.594624 100.53674 
L 506.824793 208.113321 
L 505.27196 101.183358 
L 504.503716 -104.183731 
L 504.113948 203.09242 
L 502.638021 -41.04101 
L 502.17952 -101.576057 
L 501.788167 173.539163 
L 500.626795 102.661538 
L 499.857045 -101.159104 
L 499.466095 173.806223 
L 498.304373 102.938624 
L 497.534623 -101.044035 
L 497.144345 174.26983 
L 495.981817 104.180981 
L 495.212067 -98.7192 
L 494.823294 175.635618 
L 493.660928 105.860089 
L 492.890479 210.460818 
L 491.33692 108.212447 
L 490.559778 210.498049 
L 489.014902 106.192869 
L 488.252221 212.39563 
L 486.69205 109.975207 
L 485.921816 -85.493993 
L 485.530571 179.151818 
L 484.369279 111.801666 
L 483.59961 -83.058517 
L 483.209762 180.591775 
L 482.046912 113.540525 
L 481.277081 214.50911 
L 479.72449 115.147863 
L 478.954149 -77.627795 
L 478.56508 182.738409 
L 477.401988 57.991686 
L 476.809326 121.456078 
L 476.022292 156.852725 
L 475.063519 51.317262 
L 474.493114 61.389562 
L 473.902012 186.081343 
L 472.733705 118.817912 
L 471.970621 -65.671783 
L 471.579644 184.485065 
L 470.430368 124.303937 
L 469.648146 -64.292683 
L 469.257035 186.092465 
L 468.095824 121.703178 
L 467.32559 -63.297244 
L 466.934559 186.533724 
L 465.773214 122.231543 
L 465.003437 235.546289 
L 463.112152 -27.486159 
L 462.681956 -61.387561 
L 462.290953 187.381805 
L 461.128505 123.382481 
L 460.358271 -61.580457 
L 459.968423 187.612629 
L 458.805976 123.801093 
L 458.035635 219.320829 
L 456.483716 124.302693 
L 455.712971 -59.825749 
L 455.323392 188.265723 
L 454.160595 124.737021 
L 453.390335 219.82023 
L 451.838147 125.292036 
L 451.068048 81.769216 
L 450.443775 157.69312 
L 449.515645 125.86978 
L 448.745357 -57.043952 
L 448.356289 189.640061 
L 447.193143 126.877354 
L 446.422936 -53.668257 
L 446.032631 200.765972 
L 444.759839 96.419798 
L 444.100702 -52.71837 
L 443.71072 190.55321 
L 442.548058 127.867756 
L 441.779168 113.198885 
L 441.068662 144.840132 
L 440.225609 128.94331 
L 439.455429 -51.024681 
L 439.066146 191.349549 
L 437.902999 128.073147 
L 437.138222 -43.53556 
L 436.741789 191.439859 
L 435.580605 129.752425 
L 434.81029 -48.028902 
L 434.41934 191.388966 
L 433.261409 131.133113 
L 432.487734 37.305681 
L 431.977784 178.282492 
L 430.935654 131.522421 
L 430.16499 223.384812 
L 428.613017 133.269387 
L 427.842864 -41.130094 
L 427.452963 194.413978 
L 426.290623 134.317992 
L 425.520147 -38.487265 
L 425.130837 195.865666 
L 423.968013 136.383432 
L 423.197564 -34.282437 
L 422.808334 197.204881 
L 421.646022 149.989355 
L 420.820951 -4.333248 
L 420.397503 188.182918 
L 419.323089 138.900878 
L 418.552802 -30.569709 
L 418.162551 197.792914 
L 417.000399 138.899081 
L 416.231106 -29.195218 
L 415.840855 207.808261 
L 414.57852 116.131308 
L 413.909276 -20.769031 
L 413.518326 205.872548 
L 412.307601 132.443829 
L 411.590026 -14.700881 
L 411.195367 202.289243 
L 410.032812 146.181659 
L 409.262228 -15.745195 
L 408.872273 202.90853 
L 407.710551 146.855334 
L 406.940855 10.780006 
L 406.517971 200.069089 
L 405.388022 147.356383 
L 404.617788 -13.132211 
L 404.22665 203.28065 
L 403.065628 147.732468 
L 402.294641 -13.32382 
L 401.904175 203.455048 
L 400.742937 148.0343 
L 399.972166 -9.355744 
L 399.5792 204.54846 
L 398.417371 95.980913 
L 397.837182 94.685322 
L 397.260703 207.351237 
L 396.072128 143.392647 
L 395.331865 -7.266836 
L 394.940674 219.897717 
L 393.598181 101.369384 
L 393.007535 234.72026 
L 391.415511 120.680287 
L 390.767825 56.636576 
L 390.282283 206.57583 
L 389.114352 150.7536 
L 388.348123 19.49965 
L 387.924701 204.116076 
L 386.78564 106.894735 
L 386.183598 86.350763 
L 385.636821 206.653003 
L 384.473353 99.585041 
L 383.893244 242.075809 
L 382.153511 101.385696 
L 381.571038 242.623685 
L 379.827354 101.091518 
L 379.249288 242.934847 
L 377.504932 102.37781 
L 376.924286 242.998864 
L 375.182457 99.514329 
L 374.610493 243.464541 
L 372.859793 103.694124 
L 372.279228 104.271186 
L 371.698824 209.162176 
L 370.537318 106.113894 
L 369.95678 106.793379 
L 369.375946 244.468732 
L 365.314329 108.500612 
L 364.732823 211.102334 
L 363.569865 108.951 
L 362.989112 106.484436 
L 362.415374 211.724106 
L 361.247121 110.262892 
L 360.666663 245.950208 
L 358.924914 111.726582 
L 358.345209 111.979376 
L 357.765343 218.855614 
L 356.529136 83.268818 
L 356.022197 111.034816 
L 355.445959 213.53517 
L 354.279534 113.058661 
L 353.698995 113.228101 
L 353.118296 213.246547 
L 351.957166 113.317934 
L 351.376735 113.169342 
L 350.798132 213.999324 
L 349.634502 114.40052 
L 349.053991 113.732084 
L 348.47555 214.092967 
L 347.312 114.661034 
L 346.731247 113.915107 
L 346.152859 228.363878 
L 344.795071 17.101815 
L 344.406433 113.797091 
L 343.829873 214.60036 
L 342.664523 115.424608 
L 342.083823 114.707912 
L 341.505866 214.535662 
L 340.343929 116.392248 
L 339.761563 115.496633 
L 339.1821 214.73109 
L 338.019465 116.101668 
L 337.438899 116.251186 
L 336.858334 214.439168 
L 335.701156 116.711585 
L 335.120644 116.177691 
L 334.542391 215.470134 
L 333.377229 118.027358 
L 332.794003 115.812167 
L 332.2179 222.356285 
L 330.967607 83.291365 
L 330.474054 117.373761 
L 329.896204 215.730973 
L 328.736606 118.673744 
L 328.155933 118.097601 
L 327.577384 222.383698 
L 326.335425 90.559625 
L 325.828942 118.738521 
L 325.249372 216.393785 
L 324.086951 119.422706 
L 323.506413 119.450888 
L 322.925848 216.48699 
L 321.764583 120.919 
L 321.183857 121.130583 
L 320.604125 217.667333 
L 319.442484 122.588735 
L 318.861435 122.222636 
L 318.281811 217.662733 
L 317.123611 122.755349 
L 316.542885 122.447122 
L 315.964201 218.910135 
L 314.796808 123.709743 
L 314.216243 123.372548 
L 313.637022 218.372005 
L 312.47901 125.664328 
L 311.895622 123.973398 
L 311.319761 220.219508 
L 310.151911 126.992612 
L 309.568981 125.692236 
L 308.990593 220.269394 
L 307.827742 127.485203 
L 307.246451 127.333803 
L 306.665806 220.350947 
L 305.504676 127.712842 
L 304.923896 127.052667 
L 304.345346 220.370721 
L 303.186044 128.024092 
L 302.605291 127.933241 
L 302.024995 221.037646 
L 300.859617 128.323549 
L 300.278891 128.2481 
L 299.698649 220.824575 
L 298.539454 149.597648 
L 297.885908 102.833466 
L 297.378055 221.242793 
L 296.216737 129.311675 
L 295.636145 129.843869 
L 295.055768 222.095975 
L 293.894826 131.856474 
L 293.31375 132.838777 
L 292.733158 224.054985 
L 291.571786 137.494868 
L 290.991328 138.773064 
L 290.410548 226.534262 
L 289.249203 180.883844 
L 288.49542 70.738479 
L 288.087992 228.796308 
L 286.926755 146.521412 
L 286.346109 148.051136 
L 285.763904 231.443943 
L 284.60436 151.409465 
L 284.023607 151.984004 
L 283.443203 232.979967 
L 282.281697 154.553332 
L 281.70097 155.458077 
L 281.120781 234.944704 
L 279.959302 158.71887 
L 279.378549 159.618068 
L 278.79801 236.536423 
L 277.636827 159.94396 
L 277.056235 159.734362 
L 276.476557 236.877252 
L 275.314244 160.56265 
L 274.733732 160.568901 
L 274.153409 236.966424 
L 272.991903 160.815503 
L 272.411015 160.822109 
L 271.83045 237.216649 
L 270.669374 162.963639 
L 270.086362 162.876621 
L 269.506147 238.408504 
L 268.344506 164.799342 
L 267.763833 165.20909 
L 267.184236 239.87068 
L 266.02195 167.191205 
L 265.441708 167.611096 
L 264.862755 241.055423 
L 263.699502 169.68606 
L 263.118856 170.303556 
L 262.538721 242.214795 
L 261.376919 172.243016 
L 260.796381 172.93767 
L 260.217025 243.638634 
L 259.054685 174.32846 
L 258.473851 174.393711 
L 257.893475 244.155948 
L 256.732291 176.298578 
L 256.151591 176.821344 
L 255.570972 248.535996 
L 254.349442 162.767499 
L 253.829116 178.208792 
L 253.251857 246.435807 
L 252.089356 179.478204 
L 251.509409 179.836321 
L 250.928253 246.529309 
L 249.766908 179.905515 
L 249.186289 180.044629 
L 248.60567 246.700641 
L 247.44454 180.428674 
L 246.863706 180.365775 
L 246.283652 246.904742 
L 245.122683 180.858726 
L 244.541365 180.86919 
L 243.960612 247.143893 
L 242.799293 181.208206 
L 242.218782 181.472692 
L 241.638136 247.462283 
L 240.476845 181.896221 
L 239.896226 182.077001 
L 239.31558 247.734667 
L 238.154397 182.619508 
L 237.57367 183.032521 
L 236.994153 248.433119 
L 235.831814 183.589029 
L 235.251786 183.818567 
L 234.671248 248.681525 
L 233.509338 184.110409 
L 232.928773 217.897394 
L 232.143029 235.033004 
L 231.187078 184.514684 
L 230.606674 184.778446 
L 230.026244 249.165442 
L 228.867909 185.628651 
L 228.287075 185.702756 
L 227.706322 249.645726 
L 226.545837 187.120334 
L 225.961132 186.704171 
L 225.380513 250.106213 
L 224.21941 187.239754 
L 223.63863 187.605194 
L 223.058119 250.501397 
L 221.89672 188.4097 
L 221.316504 188.786207 
L 220.736342 259.735634 
L 219.387506 128.913087 
L 218.996851 189.466257 
L 218.418007 252.014748 
L 217.251608 190.589517 
L 216.671177 191.12304 
L 216.090451 252.012312 
L 214.932869 191.584342 
L 214.35182 192.098331 
L 213.771416 253.086661 
L 212.610313 194.697294 
L 212.02956 196.280625 
L 211.449049 258.618872 
L 210.223459 186.05972 
L 209.703644 200.182534 
L 209.122998 256.998028 
L 207.96176 201.842469 
L 207.381061 201.897472 
L 206.803399 258.318486 
L 205.639043 204.374601 
L 205.058424 205.178426 
L 204.477994 259.563436 
L 203.316756 206.883594 
L 202.735895 207.457154 
L 202.155384 260.584615 
L 200.997238 209.339373 
L 200.415759 209.399084 
L 199.837908 262.221543 
L 198.671725 212.233664 
L 198.090945 244.76497 
L 197.241118 256.796692 
L 196.218825 186.65401 
L 195.768389 215.756862 
L 195.187716 264.823726 
L 194.029059 217.979369 
L 193.446263 218.346901 
L 192.865402 266.143143 
L 191.704084 220.294831 
L 191.123277 220.913359 
L 190.542739 267.27448 
L 189.385022 220.551202 
L 188.819241 225.858174 
L 188.223166 268.866828 
L 187.058784 225.339991 
L 186.478219 226.227115 
L 185.897492 273.045715 
L 184.651178 213.605212 
L 184.155528 228.503528 
L 183.576253 271.403582 
L 182.413618 246.381695 
L 181.687307 201.950019 
L 181.252542 271.590648 
L 180.091304 230.138537 
L 179.510497 230.706014 
L 178.929851 272.262253 
L 177.768721 232.486518 
L 177.188237 233.24395 
L 176.607403 273.529261 
L 175.446649 234.768447 
L 174.867697 235.9865 
L 174.284766 274.844184 
L 173.123502 237.75101 
L 172.54291 238.605896 
L 171.962291 277.652072 
L 170.755948 234.442745 
L 170.220273 241.050103 
L 169.640487 277.521391 
L 168.478282 242.623026 
L 167.898067 243.268344 
L 167.317206 278.508798 
L 166.155834 244.812797 
L 165.575349 245.657853 
L 164.994515 279.993081 
L 163.833224 262.71232 
L 163.091376 225.941046 
L 162.671906 281.97433 
L 161.512738 252.187932 
L 160.929969 253.550507 
L 160.350022 284.134982 
L 159.188005 257.220546 
L 158.607413 258.380601 
L 158.026821 286.43452 
L 156.865475 261.725934 
L 156.284857 262.791422 
L 155.704372 288.551166 
L 154.542946 265.808728 
L 153.962247 266.844585 
L 153.383994 290.722606 
L 152.222702 269.337366 
L 151.64203 269.889105 
L 151.061411 294.728885 
L 149.720504 270.31357 
L 149.159992 256.803214 
L 148.739715 294.748517 
L 147.46859 279.275569 
L 146.797491 298.912998 
L 145.255061 275.777127 
L 144.674845 276.159771 
L 144.093823 294.866726 
L 142.933849 276.597034 
L 142.35323 276.8361 
L 141.771241 295.042395 
L 140.609895 276.954127 
L 140.029438 280.90524 
L 139.379871 294.024232 
L 138.289517 277.42964 
L 137.7075 278.068485 
L 137.126048 297.754941 
L 135.836483 270.255852 
L 135.387578 280.550874 
L 134.80575 297.969985 
L 133.604568 284.001235 
L 133.027282 283.868214 
L 132.483328 299.97739 
L 131.319887 287.632387 
L 130.739187 288.666449 
L 130.158676 302.565018 
L 128.893303 286.565777 
L 128.416712 291.782621 
L 127.835905 302.821293 
L 126.676495 293.551765 
L 126.09593 294.11007 
L 125.515311 304.121349 
L 124.329317 294.947153 
L 123.773723 296.246168 
L 123.192997 305.033243 
L 122.029582 297.84283 
L 121.44942 298.8027 
L 120.868318 306.666687 
L 119.707833 301.471816 
L 119.126488 302.276036 
L 118.545788 308.482339 
L 117.329526 302.549125 
L 116.805007 304.194203 
L 116.224388 308.822501 
L 115.03463 303.979335 
L 114.482478 304.488019 
L 113.902021 309.124623 
L 112.740541 305.704527 
L 112.160433 306.274635 
L 111.57925 309.911775 
L 110.418012 306.718942 
L 109.837339 306.895311 
L 109.256774 311.149728 
L 102.870236 307.054827 
L 102.28916 310.154755 
L 101.127896 307.404778 
L 100.547357 308.164318 
L 99.966685 310.996031 
L 98.80542 309.729046 
L 98.22464 310.353922 
L 97.646871 312.353538 
L 96.289513 310.848753 
L 95.900337 311.875831 
L 95.318401 312.605804 
L 94.160523 312.181223 
L 93.579743 312.335044 
L 92.999071 312.89201 
L 91.636364 313.2 
z
" style="fill:#ffa07a;fill-opacity:0.3;"/>
   </g>
   <g id="matplotlib.axis_1">
    <g id="xtick_1">
     <g id="line2d_1">
      <path clip-path="url(#p9280138021)" d="M 91.636364 313.2 
L 91.636364 28.8 
" style="fill:none;stroke:#808080;stroke-dasharray:6.4,1.6,1,1.6;stroke-dashoffset:0;stroke-opacity:0.3;"/>
     </g>
     <g id="line2d_2">
      <defs>
       <path d="M 0 0 
L 0 3.5 
" id="me6f6c67ee8" style="stroke:#000000;stroke-width:0.8;"/>
      </defs>
      <g>
       <use style="stroke:#000000;stroke-width:0.8;" x="91.636364" xlink:href="#me6f6c67ee8" y="313.2"/>
      </g>
     </g>
     <g id="text_1">
      <!-- 2020-11-20 -->
      <g transform="translate(62.578551 327.798437)scale(0.1 -0.1)">
       <defs>
        <path d="M 19.1875 8.296875 
L 53.609375 8.296875 
L 53.609375 0 
L 7.328125 0 
L 7.328125 8.296875 
Q 12.9375 14.109375 22.625 23.890625 
Q 32.328125 33.6875 34.8125 36.53125 
Q 39.546875 41.84375 41.421875 45.53125 
Q 43.3125 49.21875 43.3125 52.78125 
Q 43.3125 58.59375 39.234375 62.25 
Q 35.15625 65.921875 28.609375 65.921875 
Q 23.96875 65.921875 18.8125 64.3125 
Q 13.671875 62.703125 7.8125 59.421875 
L 7.8125 69.390625 
Q 13.765625 71.78125 18.9375 73 
Q 24.125 74.21875 28.421875 74.21875 
Q 39.75 74.21875 46.484375 68.546875 
Q 53.21875 62.890625 53.21875 53.421875 
Q 53.21875 48.921875 51.53125 44.890625 
Q 49.859375 40.875 45.40625 35.40625 
Q 44.1875 33.984375 37.640625 27.21875 
Q 31.109375 20.453125 19.1875 8.296875 
z
" id="DejaVuSans-50"/>
        <path d="M 31.78125 66.40625 
Q 24.171875 66.40625 20.328125 58.90625 
Q 16.5 51.421875 16.5 36.375 
Q 16.5 21.390625 20.328125 13.890625 
Q 24.171875 6.390625 31.78125 6.390625 
Q 39.453125 6.390625 43.28125 13.890625 
Q 47.125 21.390625 47.125 36.375 
Q 47.125 51.421875 43.28125 58.90625 
Q 39.453125 66.40625 31.78125 66.40625 
z
M 31.78125 74.21875 
Q 44.046875 74.21875 50.515625 64.515625 
Q 56.984375 54.828125 56.984375 36.375 
Q 56.984375 17.96875 50.515625 8.265625 
Q 44.046875 -1.421875 31.78125 -1.421875 
Q 19.53125 -1.421875 13.0625 8.265625 
Q 6.59375 17.96875 6.59375 36.375 
Q 6.59375 54.828125 13.0625 64.515625 
Q 19.53125 74.21875 31.78125 74.21875 
z
" id="DejaVuSans-48"/>
        <path d="M 4.890625 31.390625 
L 31.203125 31.390625 
L 31.203125 23.390625 
L 4.890625 23.390625 
z
" id="DejaVuSans-45"/>
        <path d="M 12.40625 8.296875 
L 28.515625 8.296875 
L 28.515625 63.921875 
L 10.984375 60.40625 
L 10.984375 69.390625 
L 28.421875 72.90625 
L 38.28125 72.90625 
L 38.28125 8.296875 
L 54.390625 8.296875 
L 54.390625 0 
L 12.40625 0 
z
" id="DejaVuSans-49"/>
       </defs>
       <use xlink:href="#DejaVuSans-50"/>
       <use x="63.623047" xlink:href="#DejaVuSans-48"/>
       <use x="127.246094" xlink:href="#DejaVuSans-50"/>
       <use x="190.869141" xlink:href="#DejaVuSans-48"/>
       <use x="254.492188" xlink:href="#DejaVuSans-45"/>
       <use x="290.576172" xlink:href="#DejaVuSans-49"/>
       <use x="354.199219" xlink:href="#DejaVuSans-49"/>
       <use x="417.822266" xlink:href="#DejaVuSans-45"/>
       <use x="453.90625" xlink:href="#DejaVuSans-50"/>
       <use x="517.529297" xlink:href="#DejaVuSans-48"/>
      </g>
     </g>
    </g>
    <g id="xtick_2">
     <g id="line2d_3">
      <path clip-path="url(#p9280138021)" d="M 168.278049 313.2 
L 168.278049 28.8 
" style="fill:none;stroke:#808080;stroke-dasharray:6.4,1.6,1,1.6;stroke-dashoffset:0;stroke-opacity:0.3;"/>
     </g>
     <g id="line2d_4">
      <g>
       <use style="stroke:#000000;stroke-width:0.8;" x="168.278049" xlink:href="#me6f6c67ee8" y="313.2"/>
      </g>
     </g>
     <g id="text_2">
      <!-- 2020-12-23 -->
      <g transform="translate(139.220237 327.798437)scale(0.1 -0.1)">
       <defs>
        <path d="M 40.578125 39.3125 
Q 47.65625 37.796875 51.625 33 
Q 55.609375 28.21875 55.609375 21.1875 
Q 55.609375 10.40625 48.1875 4.484375 
Q 40.765625 -1.421875 27.09375 -1.421875 
Q 22.515625 -1.421875 17.65625 -0.515625 
Q 12.796875 0.390625 7.625 2.203125 
L 7.625 11.71875 
Q 11.71875 9.328125 16.59375 8.109375 
Q 21.484375 6.890625 26.8125 6.890625 
Q 36.078125 6.890625 40.9375 10.546875 
Q 45.796875 14.203125 45.796875 21.1875 
Q 45.796875 27.640625 41.28125 31.265625 
Q 36.765625 34.90625 28.71875 34.90625 
L 20.21875 34.90625 
L 20.21875 43.015625 
L 29.109375 43.015625 
Q 36.375 43.015625 40.234375 45.921875 
Q 44.09375 48.828125 44.09375 54.296875 
Q 44.09375 59.90625 40.109375 62.90625 
Q 36.140625 65.921875 28.71875 65.921875 
Q 24.65625 65.921875 20.015625 65.03125 
Q 15.375 64.15625 9.8125 62.3125 
L 9.8125 71.09375 
Q 15.4375 72.65625 20.34375 73.4375 
Q 25.25 74.21875 29.59375 74.21875 
Q 40.828125 74.21875 47.359375 69.109375 
Q 53.90625 64.015625 53.90625 55.328125 
Q 53.90625 49.265625 50.4375 45.09375 
Q 46.96875 40.921875 40.578125 39.3125 
z
" id="DejaVuSans-51"/>
       </defs>
       <use xlink:href="#DejaVuSans-50"/>
       <use x="63.623047" xlink:href="#DejaVuSans-48"/>
       <use x="127.246094" xlink:href="#DejaVuSans-50"/>
       <use x="190.869141" xlink:href="#DejaVuSans-48"/>
       <use x="254.492188" xlink:href="#DejaVuSans-45"/>
       <use x="290.576172" xlink:href="#DejaVuSans-49"/>
       <use x="354.199219" xlink:href="#DejaVuSans-50"/>
       <use x="417.822266" xlink:href="#DejaVuSans-45"/>
       <use x="453.90625" xlink:href="#DejaVuSans-50"/>
       <use x="517.529297" xlink:href="#DejaVuSans-51"/>
      </g>
     </g>
    </g>
    <g id="xtick_3">
     <g id="line2d_5">
      <path clip-path="url(#p9280138021)" d="M 244.919735 313.2 
L 244.919735 28.8 
" style="fill:none;stroke:#808080;stroke-dasharray:6.4,1.6,1,1.6;stroke-dashoffset:0;stroke-opacity:0.3;"/>
     </g>
     <g id="line2d_6">
      <g>
       <use style="stroke:#000000;stroke-width:0.8;" x="244.919735" xlink:href="#me6f6c67ee8" y="313.2"/>
      </g>
     </g>
     <g id="text_3">
      <!-- 2021-01-25 -->
      <g transform="translate(215.861922 327.798437)scale(0.1 -0.1)">
       <defs>
        <path d="M 10.796875 72.90625 
L 49.515625 72.90625 
L 49.515625 64.59375 
L 19.828125 64.59375 
L 19.828125 46.734375 
Q 21.96875 47.46875 24.109375 47.828125 
Q 26.265625 48.1875 28.421875 48.1875 
Q 40.625 48.1875 47.75 41.5 
Q 54.890625 34.8125 54.890625 23.390625 
Q 54.890625 11.625 47.5625 5.09375 
Q 40.234375 -1.421875 26.90625 -1.421875 
Q 22.3125 -1.421875 17.546875 -0.640625 
Q 12.796875 0.140625 7.71875 1.703125 
L 7.71875 11.625 
Q 12.109375 9.234375 16.796875 8.0625 
Q 21.484375 6.890625 26.703125 6.890625 
Q 35.15625 6.890625 40.078125 11.328125 
Q 45.015625 15.765625 45.015625 23.390625 
Q 45.015625 31 40.078125 35.4375 
Q 35.15625 39.890625 26.703125 39.890625 
Q 22.75 39.890625 18.8125 39.015625 
Q 14.890625 38.140625 10.796875 36.28125 
z
" id="DejaVuSans-53"/>
       </defs>
       <use xlink:href="#DejaVuSans-50"/>
       <use x="63.623047" xlink:href="#DejaVuSans-48"/>
       <use x="127.246094" xlink:href="#DejaVuSans-50"/>
       <use x="190.869141" xlink:href="#DejaVuSans-49"/>
       <use x="254.492188" xlink:href="#DejaVuSans-45"/>
       <use x="290.576172" xlink:href="#DejaVuSans-48"/>
       <use x="354.199219" xlink:href="#DejaVuSans-49"/>
       <use x="417.822266" xlink:href="#DejaVuSans-45"/>
       <use x="453.90625" xlink:href="#DejaVuSans-50"/>
       <use x="517.529297" xlink:href="#DejaVuSans-53"/>
      </g>
     </g>
    </g>
    <g id="xtick_4">
     <g id="line2d_7">
      <path clip-path="url(#p9280138021)" d="M 321.561421 313.2 
L 321.561421 28.8 
" style="fill:none;stroke:#808080;stroke-dasharray:6.4,1.6,1,1.6;stroke-dashoffset:0;stroke-opacity:0.3;"/>
     </g>
     <g id="line2d_8">
      <g>
       <use style="stroke:#000000;stroke-width:0.8;" x="321.561421" xlink:href="#me6f6c67ee8" y="313.2"/>
      </g>
     </g>
     <g id="text_4">
      <!-- 2021-02-27 -->
      <g transform="translate(292.503608 327.798437)scale(0.1 -0.1)">
       <defs>
        <path d="M 8.203125 72.90625 
L 55.078125 72.90625 
L 55.078125 68.703125 
L 28.609375 0 
L 18.3125 0 
L 43.21875 64.59375 
L 8.203125 64.59375 
z
" id="DejaVuSans-55"/>
       </defs>
       <use xlink:href="#DejaVuSans-50"/>
       <use x="63.623047" xlink:href="#DejaVuSans-48"/>
       <use x="127.246094" xlink:href="#DejaVuSans-50"/>
       <use x="190.869141" xlink:href="#DejaVuSans-49"/>
       <use x="254.492188" xlink:href="#DejaVuSans-45"/>
       <use x="290.576172" xlink:href="#DejaVuSans-48"/>
       <use x="354.199219" xlink:href="#DejaVuSans-50"/>
       <use x="417.822266" xlink:href="#DejaVuSans-45"/>
       <use x="453.90625" xlink:href="#DejaVuSans-50"/>
       <use x="517.529297" xlink:href="#DejaVuSans-55"/>
      </g>
     </g>
    </g>
    <g id="xtick_5">
     <g id="line2d_9">
      <path clip-path="url(#p9280138021)" d="M 398.203106 313.2 
L 398.203106 28.8 
" style="fill:none;stroke:#808080;stroke-dasharray:6.4,1.6,1,1.6;stroke-dashoffset:0;stroke-opacity:0.3;"/>
     </g>
     <g id="line2d_10">
      <g>
       <use style="stroke:#000000;stroke-width:0.8;" x="398.203106" xlink:href="#me6f6c67ee8" y="313.2"/>
      </g>
     </g>
     <g id="text_5">
      <!-- 2021-04-01 -->
      <g transform="translate(369.145294 327.798437)scale(0.1 -0.1)">
       <defs>
        <path d="M 37.796875 64.3125 
L 12.890625 25.390625 
L 37.796875 25.390625 
z
M 35.203125 72.90625 
L 47.609375 72.90625 
L 47.609375 25.390625 
L 58.015625 25.390625 
L 58.015625 17.1875 
L 47.609375 17.1875 
L 47.609375 0 
L 37.796875 0 
L 37.796875 17.1875 
L 4.890625 17.1875 
L 4.890625 26.703125 
z
" id="DejaVuSans-52"/>
       </defs>
       <use xlink:href="#DejaVuSans-50"/>
       <use x="63.623047" xlink:href="#DejaVuSans-48"/>
       <use x="127.246094" xlink:href="#DejaVuSans-50"/>
       <use x="190.869141" xlink:href="#DejaVuSans-49"/>
       <use x="254.492188" xlink:href="#DejaVuSans-45"/>
       <use x="290.576172" xlink:href="#DejaVuSans-48"/>
       <use x="354.199219" xlink:href="#DejaVuSans-52"/>
       <use x="417.822266" xlink:href="#DejaVuSans-45"/>
       <use x="453.90625" xlink:href="#DejaVuSans-48"/>
       <use x="517.529297" xlink:href="#DejaVuSans-49"/>
      </g>
     </g>
    </g>
    <g id="xtick_6">
     <g id="line2d_11">
      <path clip-path="url(#p9280138021)" d="M 474.844792 313.2 
L 474.844792 28.8 
" style="fill:none;stroke:#808080;stroke-dasharray:6.4,1.6,1,1.6;stroke-dashoffset:0;stroke-opacity:0.3;"/>
     </g>
     <g id="line2d_12">
      <g>
       <use style="stroke:#000000;stroke-width:0.8;" x="474.844792" xlink:href="#me6f6c67ee8" y="313.2"/>
      </g>
     </g>
     <g id="text_6">
      <!-- 2021-05-04 -->
      <g transform="translate(445.786979 327.798437)scale(0.1 -0.1)">
       <use xlink:href="#DejaVuSans-50"/>
       <use x="63.623047" xlink:href="#DejaVuSans-48"/>
       <use x="127.246094" xlink:href="#DejaVuSans-50"/>
       <use x="190.869141" xlink:href="#DejaVuSans-49"/>
       <use x="254.492188" xlink:href="#DejaVuSans-45"/>
       <use x="290.576172" xlink:href="#DejaVuSans-48"/>
       <use x="354.199219" xlink:href="#DejaVuSans-53"/>
       <use x="417.822266" xlink:href="#DejaVuSans-45"/>
       <use x="453.90625" xlink:href="#DejaVuSans-48"/>
       <use x="517.529297" xlink:href="#DejaVuSans-52"/>
      </g>
     </g>
    </g>
    <g id="xtick_7">
     <g id="line2d_13">
      <path clip-path="url(#p9280138021)" d="M 551.486478 313.2 
L 551.486478 28.8 
" style="fill:none;stroke:#808080;stroke-dasharray:6.4,1.6,1,1.6;stroke-dashoffset:0;stroke-opacity:0.3;"/>
     </g>
     <g id="line2d_14">
      <g>
       <use style="stroke:#000000;stroke-width:0.8;" x="551.486478" xlink:href="#me6f6c67ee8" y="313.2"/>
      </g>
     </g>
     <g id="text_7">
      <!-- 2021-06-06 -->
      <g transform="translate(522.428665 327.798437)scale(0.1 -0.1)">
       <defs>
        <path d="M 33.015625 40.375 
Q 26.375 40.375 22.484375 35.828125 
Q 18.609375 31.296875 18.609375 23.390625 
Q 18.609375 15.53125 22.484375 10.953125 
Q 26.375 6.390625 33.015625 6.390625 
Q 39.65625 6.390625 43.53125 10.953125 
Q 47.40625 15.53125 47.40625 23.390625 
Q 47.40625 31.296875 43.53125 35.828125 
Q 39.65625 40.375 33.015625 40.375 
z
M 52.59375 71.296875 
L 52.59375 62.3125 
Q 48.875 64.0625 45.09375 64.984375 
Q 41.3125 65.921875 37.59375 65.921875 
Q 27.828125 65.921875 22.671875 59.328125 
Q 17.53125 52.734375 16.796875 39.40625 
Q 19.671875 43.65625 24.015625 45.921875 
Q 28.375 48.1875 33.59375 48.1875 
Q 44.578125 48.1875 50.953125 41.515625 
Q 57.328125 34.859375 57.328125 23.390625 
Q 57.328125 12.15625 50.6875 5.359375 
Q 44.046875 -1.421875 33.015625 -1.421875 
Q 20.359375 -1.421875 13.671875 8.265625 
Q 6.984375 17.96875 6.984375 36.375 
Q 6.984375 53.65625 15.1875 63.9375 
Q 23.390625 74.21875 37.203125 74.21875 
Q 40.921875 74.21875 44.703125 73.484375 
Q 48.484375 72.75 52.59375 71.296875 
z
" id="DejaVuSans-54"/>
       </defs>
       <use xlink:href="#DejaVuSans-50"/>
       <use x="63.623047" xlink:href="#DejaVuSans-48"/>
       <use x="127.246094" xlink:href="#DejaVuSans-50"/>
       <use x="190.869141" xlink:href="#DejaVuSans-49"/>
       <use x="254.492188" xlink:href="#DejaVuSans-45"/>
       <use x="290.576172" xlink:href="#DejaVuSans-48"/>
       <use x="354.199219" xlink:href="#DejaVuSans-54"/>
       <use x="417.822266" xlink:href="#DejaVuSans-45"/>
       <use x="453.90625" xlink:href="#DejaVuSans-48"/>
       <use x="517.529297" xlink:href="#DejaVuSans-54"/>
      </g>
     </g>
    </g>
    <g id="xtick_8">
     <g id="line2d_15">
      <path clip-path="url(#p9280138021)" d="M 628.128163 313.2 
L 628.128163 28.8 
" style="fill:none;stroke:#808080;stroke-dasharray:6.4,1.6,1,1.6;stroke-dashoffset:0;stroke-opacity:0.3;"/>
     </g>
     <g id="line2d_16">
      <g>
       <use style="stroke:#000000;stroke-width:0.8;" x="628.128163" xlink:href="#me6f6c67ee8" y="313.2"/>
      </g>
     </g>
     <g id="text_8">
      <!-- 2021-07-09 -->
      <g transform="translate(599.070351 327.798437)scale(0.1 -0.1)">
       <defs>
        <path d="M 10.984375 1.515625 
L 10.984375 10.5 
Q 14.703125 8.734375 18.5 7.8125 
Q 22.3125 6.890625 25.984375 6.890625 
Q 35.75 6.890625 40.890625 13.453125 
Q 46.046875 20.015625 46.78125 33.40625 
Q 43.953125 29.203125 39.59375 26.953125 
Q 35.25 24.703125 29.984375 24.703125 
Q 19.046875 24.703125 12.671875 31.3125 
Q 6.296875 37.9375 6.296875 49.421875 
Q 6.296875 60.640625 12.9375 67.421875 
Q 19.578125 74.21875 30.609375 74.21875 
Q 43.265625 74.21875 49.921875 64.515625 
Q 56.59375 54.828125 56.59375 36.375 
Q 56.59375 19.140625 48.40625 8.859375 
Q 40.234375 -1.421875 26.421875 -1.421875 
Q 22.703125 -1.421875 18.890625 -0.6875 
Q 15.09375 0.046875 10.984375 1.515625 
z
M 30.609375 32.421875 
Q 37.25 32.421875 41.125 36.953125 
Q 45.015625 41.5 45.015625 49.421875 
Q 45.015625 57.28125 41.125 61.84375 
Q 37.25 66.40625 30.609375 66.40625 
Q 23.96875 66.40625 20.09375 61.84375 
Q 16.21875 57.28125 16.21875 49.421875 
Q 16.21875 41.5 20.09375 36.953125 
Q 23.96875 32.421875 30.609375 32.421875 
z
" id="DejaVuSans-57"/>
       </defs>
       <use xlink:href="#DejaVuSans-50"/>
       <use x="63.623047" xlink:href="#DejaVuSans-48"/>
       <use x="127.246094" xlink:href="#DejaVuSans-50"/>
       <use x="190.869141" xlink:href="#DejaVuSans-49"/>
       <use x="254.492188" xlink:href="#DejaVuSans-45"/>
       <use x="290.576172" xlink:href="#DejaVuSans-48"/>
       <use x="354.199219" xlink:href="#DejaVuSans-55"/>
       <use x="417.822266" xlink:href="#DejaVuSans-45"/>
       <use x="453.90625" xlink:href="#DejaVuSans-48"/>
       <use x="517.529297" xlink:href="#DejaVuSans-57"/>
      </g>
     </g>
    </g>
    <g id="text_9">
     <!-- Datum -->
     <g transform="translate(343.086719 341.476562)scale(0.1 -0.1)">
      <defs>
       <path d="M 19.671875 64.796875 
L 19.671875 8.109375 
L 31.59375 8.109375 
Q 46.6875 8.109375 53.6875 14.9375 
Q 60.6875 21.78125 60.6875 36.53125 
Q 60.6875 51.171875 53.6875 57.984375 
Q 46.6875 64.796875 31.59375 64.796875 
z
M 9.8125 72.90625 
L 30.078125 72.90625 
Q 51.265625 72.90625 61.171875 64.09375 
Q 71.09375 55.28125 71.09375 36.53125 
Q 71.09375 17.671875 61.125 8.828125 
Q 51.171875 0 30.078125 0 
L 9.8125 0 
z
" id="DejaVuSans-68"/>
       <path d="M 34.28125 27.484375 
Q 23.390625 27.484375 19.1875 25 
Q 14.984375 22.515625 14.984375 16.5 
Q 14.984375 11.71875 18.140625 8.90625 
Q 21.296875 6.109375 26.703125 6.109375 
Q 34.1875 6.109375 38.703125 11.40625 
Q 43.21875 16.703125 43.21875 25.484375 
L 43.21875 27.484375 
z
M 52.203125 31.203125 
L 52.203125 0 
L 43.21875 0 
L 43.21875 8.296875 
Q 40.140625 3.328125 35.546875 0.953125 
Q 30.953125 -1.421875 24.3125 -1.421875 
Q 15.921875 -1.421875 10.953125 3.296875 
Q 6 8.015625 6 15.921875 
Q 6 25.140625 12.171875 29.828125 
Q 18.359375 34.515625 30.609375 34.515625 
L 43.21875 34.515625 
L 43.21875 35.40625 
Q 43.21875 41.609375 39.140625 45 
Q 35.0625 48.390625 27.6875 48.390625 
Q 23 48.390625 18.546875 47.265625 
Q 14.109375 46.140625 10.015625 43.890625 
L 10.015625 52.203125 
Q 14.9375 54.109375 19.578125 55.046875 
Q 24.21875 56 28.609375 56 
Q 40.484375 56 46.34375 49.84375 
Q 52.203125 43.703125 52.203125 31.203125 
z
" id="DejaVuSans-97"/>
       <path d="M 18.3125 70.21875 
L 18.3125 54.6875 
L 36.8125 54.6875 
L 36.8125 47.703125 
L 18.3125 47.703125 
L 18.3125 18.015625 
Q 18.3125 11.328125 20.140625 9.421875 
Q 21.96875 7.515625 27.59375 7.515625 
L 36.8125 7.515625 
L 36.8125 0 
L 27.59375 0 
Q 17.1875 0 13.234375 3.875 
Q 9.28125 7.765625 9.28125 18.015625 
L 9.28125 47.703125 
L 2.6875 47.703125 
L 2.6875 54.6875 
L 9.28125 54.6875 
L 9.28125 70.21875 
z
" id="DejaVuSans-116"/>
       <path d="M 8.5 21.578125 
L 8.5 54.6875 
L 17.484375 54.6875 
L 17.484375 21.921875 
Q 17.484375 14.15625 20.5 10.265625 
Q 23.53125 6.390625 29.59375 6.390625 
Q 36.859375 6.390625 41.078125 11.03125 
Q 45.3125 15.671875 45.3125 23.6875 
L 45.3125 54.6875 
L 54.296875 54.6875 
L 54.296875 0 
L 45.3125 0 
L 45.3125 8.40625 
Q 42.046875 3.421875 37.71875 1 
Q 33.40625 -1.421875 27.6875 -1.421875 
Q 18.265625 -1.421875 13.375 4.4375 
Q 8.5 10.296875 8.5 21.578125 
z
M 31.109375 56 
z
" id="DejaVuSans-117"/>
       <path d="M 52 44.1875 
Q 55.375 50.25 60.0625 53.125 
Q 64.75 56 71.09375 56 
Q 79.640625 56 84.28125 50.015625 
Q 88.921875 44.046875 88.921875 33.015625 
L 88.921875 0 
L 79.890625 0 
L 79.890625 32.71875 
Q 79.890625 40.578125 77.09375 44.375 
Q 74.3125 48.1875 68.609375 48.1875 
Q 61.625 48.1875 57.5625 43.546875 
Q 53.515625 38.921875 53.515625 30.90625 
L 53.515625 0 
L 44.484375 0 
L 44.484375 32.71875 
Q 44.484375 40.625 41.703125 44.40625 
Q 38.921875 48.1875 33.109375 48.1875 
Q 26.21875 48.1875 22.15625 43.53125 
Q 18.109375 38.875 18.109375 30.90625 
L 18.109375 0 
L 9.078125 0 
L 9.078125 54.6875 
L 18.109375 54.6875 
L 18.109375 46.1875 
Q 21.1875 51.21875 25.484375 53.609375 
Q 29.78125 56 35.6875 56 
Q 41.65625 56 45.828125 52.96875 
Q 50 49.953125 52 44.1875 
z
" id="DejaVuSans-109"/>
      </defs>
      <use xlink:href="#DejaVuSans-68"/>
      <use x="77.001953" xlink:href="#DejaVuSans-97"/>
      <use x="138.28125" xlink:href="#DejaVuSans-116"/>
      <use x="177.490234" xlink:href="#DejaVuSans-117"/>
      <use x="240.869141" xlink:href="#DejaVuSans-109"/>
     </g>
    </g>
   </g>
   <g id="matplotlib.axis_2">
    <g id="ytick_1">
     <g id="line2d_17">
      <path clip-path="url(#p9280138021)" d="M 64.8 313.2 
L 655.2 313.2 
" style="fill:none;stroke:#808080;stroke-dasharray:6.4,1.6,1,1.6;stroke-dashoffset:0;stroke-opacity:0.3;"/>
     </g>
     <g id="line2d_18">
      <defs>
       <path d="M 0 0 
L -3.5 0 
" id="m02a5588360" style="stroke:#000000;stroke-width:0.8;"/>
      </defs>
      <g>
       <use style="stroke:#000000;stroke-width:0.8;" x="64.8" xlink:href="#m02a5588360" y="313.2"/>
      </g>
     </g>
     <g id="text_10">
      <!-- 0 -->
      <g transform="translate(51.4375 316.999219)scale(0.1 -0.1)">
       <use xlink:href="#DejaVuSans-48"/>
      </g>
     </g>
    </g>
    <g id="ytick_2">
     <g id="line2d_19">
      <path clip-path="url(#p9280138021)" d="M 64.8 277.65 
L 655.2 277.65 
" style="fill:none;stroke:#808080;stroke-dasharray:6.4,1.6,1,1.6;stroke-dashoffset:0;stroke-opacity:0.3;"/>
     </g>
     <g id="line2d_20">
      <g>
       <use style="stroke:#000000;stroke-width:0.8;" x="64.8" xlink:href="#m02a5588360" y="277.65"/>
      </g>
     </g>
     <g id="text_11">
      <!-- 500 -->
      <g transform="translate(38.7125 281.449219)scale(0.1 -0.1)">
       <use xlink:href="#DejaVuSans-53"/>
       <use x="63.623047" xlink:href="#DejaVuSans-48"/>
       <use x="127.246094" xlink:href="#DejaVuSans-48"/>
      </g>
     </g>
    </g>
    <g id="ytick_3">
     <g id="line2d_21">
      <path clip-path="url(#p9280138021)" d="M 64.8 242.1 
L 655.2 242.1 
" style="fill:none;stroke:#808080;stroke-dasharray:6.4,1.6,1,1.6;stroke-dashoffset:0;stroke-opacity:0.3;"/>
     </g>
     <g id="line2d_22">
      <g>
       <use style="stroke:#000000;stroke-width:0.8;" x="64.8" xlink:href="#m02a5588360" y="242.1"/>
      </g>
     </g>
     <g id="text_12">
      <!-- 1000 -->
      <g transform="translate(32.35 245.899219)scale(0.1 -0.1)">
       <use xlink:href="#DejaVuSans-49"/>
       <use x="63.623047" xlink:href="#DejaVuSans-48"/>
       <use x="127.246094" xlink:href="#DejaVuSans-48"/>
       <use x="190.869141" xlink:href="#DejaVuSans-48"/>
      </g>
     </g>
    </g>
    <g id="ytick_4">
     <g id="line2d_23">
      <path clip-path="url(#p9280138021)" d="M 64.8 206.55 
L 655.2 206.55 
" style="fill:none;stroke:#808080;stroke-dasharray:6.4,1.6,1,1.6;stroke-dashoffset:0;stroke-opacity:0.3;"/>
     </g>
     <g id="line2d_24">
      <g>
       <use style="stroke:#000000;stroke-width:0.8;" x="64.8" xlink:href="#m02a5588360" y="206.55"/>
      </g>
     </g>
     <g id="text_13">
      <!-- 1500 -->
      <g transform="translate(32.35 210.349219)scale(0.1 -0.1)">
       <use xlink:href="#DejaVuSans-49"/>
       <use x="63.623047" xlink:href="#DejaVuSans-53"/>
       <use x="127.246094" xlink:href="#DejaVuSans-48"/>
       <use x="190.869141" xlink:href="#DejaVuSans-48"/>
      </g>
     </g>
    </g>
    <g id="ytick_5">
     <g id="line2d_25">
      <path clip-path="url(#p9280138021)" d="M 64.8 171 
L 655.2 171 
" style="fill:none;stroke:#808080;stroke-dasharray:6.4,1.6,1,1.6;stroke-dashoffset:0;stroke-opacity:0.3;"/>
     </g>
     <g id="line2d_26">
      <g>
       <use style="stroke:#000000;stroke-width:0.8;" x="64.8" xlink:href="#m02a5588360" y="171"/>
      </g>
     </g>
     <g id="text_14">
      <!-- 2000 -->
      <g transform="translate(32.35 174.799219)scale(0.1 -0.1)">
       <use xlink:href="#DejaVuSans-50"/>
       <use x="63.623047" xlink:href="#DejaVuSans-48"/>
       <use x="127.246094" xlink:href="#DejaVuSans-48"/>
       <use x="190.869141" xlink:href="#DejaVuSans-48"/>
      </g>
     </g>
    </g>
    <g id="ytick_6">
     <g id="line2d_27">
      <path clip-path="url(#p9280138021)" d="M 64.8 135.45 
L 655.2 135.45 
" style="fill:none;stroke:#808080;stroke-dasharray:6.4,1.6,1,1.6;stroke-dashoffset:0;stroke-opacity:0.3;"/>
     </g>
     <g id="line2d_28">
      <g>
       <use style="stroke:#000000;stroke-width:0.8;" x="64.8" xlink:href="#m02a5588360" y="135.45"/>
      </g>
     </g>
     <g id="text_15">
      <!-- 2500 -->
      <g transform="translate(32.35 139.249219)scale(0.1 -0.1)">
       <use xlink:href="#DejaVuSans-50"/>
       <use x="63.623047" xlink:href="#DejaVuSans-53"/>
       <use x="127.246094" xlink:href="#DejaVuSans-48"/>
       <use x="190.869141" xlink:href="#DejaVuSans-48"/>
      </g>
     </g>
    </g>
    <g id="ytick_7">
     <g id="line2d_29">
      <path clip-path="url(#p9280138021)" d="M 64.8 99.9 
L 655.2 99.9 
" style="fill:none;stroke:#808080;stroke-dasharray:6.4,1.6,1,1.6;stroke-dashoffset:0;stroke-opacity:0.3;"/>
     </g>
     <g id="line2d_30">
      <g>
       <use style="stroke:#000000;stroke-width:0.8;" x="64.8" xlink:href="#m02a5588360" y="99.9"/>
      </g>
     </g>
     <g id="text_16">
      <!-- 3000 -->
      <g transform="translate(32.35 103.699219)scale(0.1 -0.1)">
       <use xlink:href="#DejaVuSans-51"/>
       <use x="63.623047" xlink:href="#DejaVuSans-48"/>
       <use x="127.246094" xlink:href="#DejaVuSans-48"/>
       <use x="190.869141" xlink:href="#DejaVuSans-48"/>
      </g>
     </g>
    </g>
    <g id="ytick_8">
     <g id="line2d_31">
      <path clip-path="url(#p9280138021)" d="M 64.8 64.35 
L 655.2 64.35 
" style="fill:none;stroke:#808080;stroke-dasharray:6.4,1.6,1,1.6;stroke-dashoffset:0;stroke-opacity:0.3;"/>
     </g>
     <g id="line2d_32">
      <g>
       <use style="stroke:#000000;stroke-width:0.8;" x="64.8" xlink:href="#m02a5588360" y="64.35"/>
      </g>
     </g>
     <g id="text_17">
      <!-- 3500 -->
      <g transform="translate(32.35 68.149219)scale(0.1 -0.1)">
       <use xlink:href="#DejaVuSans-51"/>
       <use x="63.623047" xlink:href="#DejaVuSans-53"/>
       <use x="127.246094" xlink:href="#DejaVuSans-48"/>
       <use x="190.869141" xlink:href="#DejaVuSans-48"/>
      </g>
     </g>
    </g>
    <g id="ytick_9">
     <g id="line2d_33">
      <path clip-path="url(#p9280138021)" d="M 64.8 28.8 
L 655.2 28.8 
" style="fill:none;stroke:#808080;stroke-dasharray:6.4,1.6,1,1.6;stroke-dashoffset:0;stroke-opacity:0.3;"/>
     </g>
     <g id="line2d_34">
      <g>
       <use style="stroke:#000000;stroke-width:0.8;" x="64.8" xlink:href="#m02a5588360" y="28.8"/>
      </g>
     </g>
     <g id="text_18">
      <!-- 4000 -->
      <g transform="translate(32.35 32.599219)scale(0.1 -0.1)">
       <use xlink:href="#DejaVuSans-52"/>
       <use x="63.623047" xlink:href="#DejaVuSans-48"/>
       <use x="127.246094" xlink:href="#DejaVuSans-48"/>
       <use x="190.869141" xlink:href="#DejaVuSans-48"/>
      </g>
     </g>
    </g>
   </g>
   <g id="line2d_35">
    <path clip-path="url(#p9280138021)" d="M 91.636364 313.117335 
L 92.999071 312.82312 
L 94.160523 312.229436 
L 95.318401 311.921476 
L 96.289513 311.27349 
L 97.646871 310.935238 
L 98.80542 310.247121 
L 99.966685 309.9064 
L 101.127896 309.250144 
L 102.28916 308.937332 
L 102.870236 308.633332 
L 109.256774 308.335078 
L 110.418012 307.73967 
L 111.57925 307.434313 
L 112.740541 306.790479 
L 113.902021 306.445554 
L 115.03463 305.691389 
L 116.224388 305.273232 
L 117.329526 304.33169 
L 118.545788 303.801564 
L 119.707833 302.620038 
L 120.868318 301.974382 
L 122.029582 300.599814 
L 123.192997 299.882701 
L 124.329317 298.410315 
L 125.515311 297.658013 
L 126.676495 296.113444 
L 127.835905 295.313434 
L 128.893303 293.635336 
L 130.158676 292.751346 
L 131.319887 290.902529 
L 132.483328 289.95582 
L 133.604568 288.10249 
L 134.80575 287.240363 
L 135.836483 285.7521 
L 137.126048 285.154708 
L 138.289517 284.266776 
L 144.093823 282.598126 
L 145.255061 281.760655 
L 146.797491 281.204241 
L 147.46859 280.560715 
L 148.739715 279.842613 
L 149.720504 278.249242 
L 151.061411 277.404146 
L 152.222702 275.652638 
L 153.383994 274.740303 
L 154.542946 272.793919 
L 155.704372 271.738786 
L 156.865475 269.440886 
L 158.026821 268.207684 
L 159.188005 265.648064 
L 160.350022 264.367188 
L 161.512738 261.925181 
L 162.671906 260.802621 
L 163.091376 259.759492 
L 163.833224 258.795525 
L 164.994515 257.902796 
L 166.155834 256.276683 
L 167.317206 255.514257 
L 168.478282 254.03843 
L 169.640487 253.316051 
L 170.755948 251.898342 
L 171.962291 251.201407 
L 173.123502 249.812435 
L 174.284766 249.107335 
L 175.446649 247.645595 
L 176.607403 246.885526 
L 177.768721 245.334942 
L 178.929851 244.569708 
L 180.091304 243.138303 
L 181.252542 242.499312 
L 181.687307 241.921473 
L 182.413618 241.404035 
L 183.576253 240.939306 
L 184.651178 240.109433 
L 185.897492 239.706584 
L 187.058784 238.826342 
L 188.223166 238.315387 
L 189.385022 237.101103 
L 190.542739 236.396585 
L 191.704084 234.847643 
L 192.865402 234.046319 
L 194.029059 232.518819 
L 195.187716 231.834052 
L 196.218825 230.649574 
L 198.090945 229.608843 
L 198.671725 229.076146 
L 199.837908 228.500543 
L 200.997238 227.164134 
L 202.155384 226.400132 
L 203.316756 224.725729 
L 204.477994 223.84009 
L 205.639043 222.020061 
L 206.803399 221.097585 
L 207.96176 219.249662 
L 209.122998 218.332077 
L 210.223459 216.516188 
L 211.449049 215.608326 
L 212.610313 213.733264 
L 213.771416 212.738295 
L 214.932869 210.61491 
L 216.090451 209.521396 
L 217.251608 207.480515 
L 218.418007 206.646336 
L 219.387506 205.591194 
L 221.316504 205.435876 
L 223.63863 206.275863 
L 224.21941 206.613953 
L 227.706322 207.432462 
L 228.867909 207.600152 
L 232.143029 207.701363 
L 233.509338 207.420203 
L 234.671248 207.154865 
L 235.831814 206.415475 
L 236.994153 205.983776 
L 238.154397 205.120428 
L 239.31558 204.728528 
L 240.476845 204.072921 
L 242.218782 203.581504 
L 242.799293 203.381674 
L 244.541365 203.032747 
L 245.122683 202.867028 
L 246.863706 202.510048 
L 247.44454 202.300908 
L 248.60567 202.060283 
L 249.766908 201.464288 
L 250.928253 201.108505 
L 252.089356 200.313745 
L 253.251857 199.897573 
L 254.349442 199.083755 
L 255.570972 198.698245 
L 256.732291 197.958777 
L 257.893475 197.585914 
L 259.054685 196.773922 
L 260.217025 196.31545 
L 261.376919 195.274071 
L 262.538721 194.695616 
L 263.699502 193.455082 
L 264.862755 192.809587 
L 266.02195 191.5098 
L 267.184236 190.871073 
L 268.344506 189.651756 
L 269.506147 189.08421 
L 270.669374 188.059331 
L 271.83045 187.607503 
L 272.991903 186.818351 
L 274.153409 186.468033 
L 275.314244 185.7962 
L 276.476557 185.441666 
L 277.636827 184.598297 
L 278.79801 184.068116 
L 279.959302 182.689722 
L 281.120781 181.806747 
L 282.281697 179.604897 
L 283.443203 178.294606 
L 284.60436 175.375612 
L 285.763904 173.853369 
L 286.926755 170.940691 
L 288.087992 169.636939 
L 288.49542 168.466291 
L 289.249203 167.427205 
L 290.410548 166.500186 
L 291.571786 164.859303 
L 292.733158 164.088988 
L 293.894826 162.595776 
L 295.055768 161.894648 
L 296.216737 160.694411 
L 297.378055 160.233392 
L 297.885908 159.874 
L 298.539454 159.608096 
L 306.665806 158.247292 
L 307.827742 157.848071 
L 308.990593 157.621421 
L 310.151911 157.111879 
L 311.319761 156.832581 
L 312.47901 156.244484 
L 313.637022 155.945236 
L 314.796808 155.353329 
L 315.964201 155.061094 
L 317.123611 154.462495 
L 318.281811 154.138824 
L 319.442484 153.388023 
L 320.604125 152.941487 
L 321.764583 151.887155 
L 322.925848 151.289762 
L 324.086951 150.026692 
L 325.249372 149.402803 
L 326.335425 148.281901 
L 327.577384 147.824848 
L 328.736606 147.192474 
L 330.474054 146.984559 
L 332.2179 147.174635 
L 333.377229 147.614788 
L 335.701156 148.152439 
L 336.858334 148.136414 
L 337.438899 147.957898 
L 338.019465 147.587734 
L 339.1821 147.010402 
L 340.343929 145.278534 
L 341.505866 144.213604 
L 342.664523 142.103707 
L 343.829873 141.267114 
L 344.795071 140.464281 
L 346.152859 140.569088 
L 346.731247 140.981344 
L 347.312 141.625548 
L 348.47555 142.400042 
L 349.634502 143.922112 
L 350.798132 144.512333 
L 351.376735 144.943808 
L 351.957166 145.233747 
L 353.698995 145.61514 
L 355.445959 146.222618 
L 356.022197 146.754169 
L 356.529136 147.457496 
L 357.765343 148.303857 
L 358.924914 150.173846 
L 360.666663 151.041101 
L 361.247121 151.768469 
L 363.569865 152.848959 
L 369.375946 153.143001 
L 369.95678 153.480814 
L 370.537318 154.087739 
L 371.698824 155.0068 
L 372.859793 157.679523 
L 374.610493 159.230438 
L 375.182457 160.700933 
L 376.924286 161.884665 
L 377.504932 162.576535 
L 379.249288 162.603199 
L 379.827354 161.851029 
L 381.571038 160.28696 
L 382.153511 157.968235 
L 383.893244 155.039323 
L 384.473353 151.71486 
L 385.636821 148.250885 
L 386.78564 141.914566 
L 387.924701 139.429805 
L 388.348123 137.525509 
L 389.114352 136.178698 
L 390.282283 135.28303 
L 390.767825 134.674383 
L 391.415511 134.164959 
L 393.007535 133.577762 
L 393.598181 132.774802 
L 394.940674 131.674816 
L 395.331865 130.258119 
L 396.072128 128.560157 
L 397.260703 126.657909 
L 398.417371 122.655071 
L 399.5792 120.766166 
L 399.972166 119.07112 
L 400.742937 117.629252 
L 401.904175 116.469926 
L 402.294641 115.591663 
L 403.065628 114.963933 
L 404.22665 114.531917 
L 404.617788 114.224364 
L 406.517971 113.672975 
L 406.940855 113.291099 
L 408.872273 112.101761 
L 409.262228 111.277993 
L 410.032812 110.328431 
L 411.195367 109.295591 
L 411.590026 108.232945 
L 412.307601 107.198262 
L 413.518326 106.246716 
L 413.909276 105.424896 
L 414.57852 104.765626 
L 415.840855 104.283794 
L 416.231106 103.974455 
L 417.000399 103.813508 
L 419.323089 103.800168 
L 421.646022 103.871705 
L 422.808334 104.007535 
L 425.130837 105.875667 
L 425.520147 107.169438 
L 426.290623 108.746553 
L 427.452963 110.460356 
L 427.842864 112.099232 
L 428.613017 113.420374 
L 430.16499 114.194745 
L 430.935654 114.253889 
L 431.977784 113.528017 
L 433.261409 110.02207 
L 434.41934 107.64255 
L 434.81029 105.206874 
L 435.580605 102.98318 
L 436.741789 101.179678 
L 437.138222 99.911659 
L 437.902999 99.187295 
L 439.455429 98.930359 
L 441.068662 99.05625 
L 441.779168 98.861893 
L 443.71072 97.794268 
L 444.100702 97.140723 
L 444.759839 96.674099 
L 446.032631 96.624888 
L 447.193143 98.486039 
L 448.356289 100.523274 
L 448.745357 103.191497 
L 449.515645 106.274787 
L 450.443775 109.481535 
L 451.068048 112.486988 
L 451.838147 114.978987 
L 454.160595 117.465988 
L 455.323392 117.203425 
L 456.483716 113.769095 
L 458.035635 110.909659 
L 458.805976 107.606187 
L 459.968423 104.137669 
L 460.358271 100.775987 
L 461.128505 97.751185 
L 462.290953 95.221465 
L 462.681956 93.255979 
L 463.112152 91.835766 
L 465.003437 90.873041 
L 465.773214 90.244694 
L 466.934559 89.831673 
L 467.32559 89.551684 
L 468.095824 89.375691 
L 469.257035 89.325382 
L 470.430368 89.817636 
L 471.579644 90.446753 
L 471.970621 91.330518 
L 472.733705 92.413759 
L 473.902012 93.607105 
L 475.063519 95.91035 
L 476.809326 97.538512 
L 477.401988 97.985607 
L 478.954149 98.202765 
L 479.72449 98.111577 
L 481.277081 98.054006 
L 482.046912 98.203825 
L 483.209762 98.748537 
L 483.59961 99.848904 
L 484.369279 101.587312 
L 485.530571 103.919182 
L 485.921816 106.644278 
L 486.69205 109.410966 
L 488.252221 111.759618 
L 489.014902 113.199428 
L 490.559778 113.301325 
L 492.890479 108.569621 
L 493.660928 103.800272 
L 494.823294 97.805076 
L 495.212067 91.037983 
L 495.981817 83.999547 
L 497.144345 77.165533 
L 497.534623 70.937711 
L 498.304373 65.620747 
L 499.466095 61.421456 
L 499.857045 58.46043 
L 500.626795 56.783173 
L 501.788167 56.363391 
L 502.17952 57.100857 
L 502.638021 58.819493 
L 504.113948 61.273394 
L 504.503716 64.168278 
L 505.27196 67.197913 
L 506.824793 70.08549 
L 507.594624 72.618398 
L 508.758012 74.666307 
L 509.148586 76.176394 
L 509.916992 77.148859 
L 511.080084 77.604581 
L 511.470335 77.558366 
L 513.792569 75.938664 
L 514.562077 74.349464 
L 515.723449 72.272757 
L 516.114238 69.792973 
L 516.884498 67.046587 
L 518.047295 64.207336 
L 518.43932 61.461442 
L 519.207189 58.980858 
L 520.370711 56.904117 
L 520.759591 55.328999 
L 521.530094 54.314124 
L 522.693079 53.884686 
L 523.082067 54.037241 
L 525.016334 55.911538 
L 525.405295 57.435973 
L 526.174695 59.13596 
L 527.338755 60.794738 
L 527.727044 62.180748 
L 528.497063 63.088878 
L 530.052261 63.384691 
L 530.81935 63.039295 
L 531.98083 62.14379 
L 532.372398 60.894804 
L 533.14196 59.552011 
L 534.303332 58.379184 
L 534.694793 57.584633 
L 535.464408 57.276634 
L 536.619625 57.446545 
L 537.017537 57.983393 
L 537.786884 58.712169 
L 539.339797 59.441636 
L 540.109413 60.006505 
L 541.273123 60.292057 
L 541.662541 60.236795 
L 543.689627 59.035658 
L 544.754552 56.405934 
L 546.307546 54.609757 
L 547.076893 52.582615 
L 548.238318 50.455323 
L 548.630048 48.405705 
L 549.399287 46.630148 
L 550.560686 45.298583 
L 550.95212 44.506314 
L 551.721924 44.237636 
L 552.885393 44.355264 
L 553.274595 44.622634 
L 554.044238 44.754052 
L 555.597178 44.478401 
L 556.36674 43.599991 
L 557.530263 42.040706 
L 557.919654 39.851999 
L 558.689242 37.19641 
L 559.852711 34.308495 
L 560.24436 31.447614 
L 561.011583 28.855147 
L 562.174837 26.727753 
L 562.564497 25.209825 
L 563.334112 24.399149 
L 564.495995 24.358569 
L 566.818148 29.09816 
L 567.209555 32.198658 
L 567.979063 35.863478 
L 569.140543 39.858717 
L 569.532138 43.876292 
L 570.301565 47.561387 
L 572.277201 50.555607 
L 576.109635 52.550909 
L 576.500101 53.345586 
L 577.269824 52.889987 
L 578.82177 51.31245 
L 579.591413 48.919801 
L 580.754666 46.168358 
L 581.144434 43.605974 
L 581.913861 41.791709 
L 583.075233 41.204379 
L 583.467043 42.153905 
L 585.401069 48.677065 
L 585.790701 53.589174 
L 586.559107 58.790509 
L 588.113042 63.531441 
L 588.881663 67.101254 
L 590.437077 68.959519 
L 591.204112 68.840112 
L 592.759418 66.805146 
L 593.526533 63.235106 
L 594.690298 58.755751 
L 595.079259 54.11639 
L 595.849036 50.0442 
L 597.010784 47.10499 
L 597.401949 45.599485 
L 598.171565 45.514241 
L 599.332856 46.535414 
L 600.493825 49.619491 
L 602.047814 50.391174 
L 602.81622 49.937218 
L 604.369859 47.982289 
L 606.302943 39.759448 
L 606.691582 34.146965 
L 607.461143 28.205736 
L 608.625177 22.489301 
L 609.014487 17.505254 
L 609.783834 13.672579 
L 611.336586 10.6231 
L 612.106202 11.751322 
L 613.267896 14.734449 
L 613.659061 19.520189 
L 614.428758 25.935943 
L 615.590183 33.657609 
L 615.981994 42.187096 
L 616.75126 50.851465 
L 618.30463 58.831787 
L 619.073869 65.225447 
L 620.627966 69.137827 
L 621.39621 69.788239 
L 622.94907 66.618765 
L 623.718659 59.380432 
L 625.271653 48.202846 
L 626.041349 33.580109 
L 627.203662 16.407774 
L 627.74365 -1 
L 627.74365 -1 
" style="fill:none;stroke:#ff0000;stroke-linecap:square;stroke-width:1.5;"/>
   </g>
   <g id="patch_3">
    <path d="M 64.8 313.2 
L 64.8 28.8 
" style="fill:none;stroke:#000000;stroke-linecap:square;stroke-linejoin:miter;stroke-width:0.8;"/>
   </g>
   <g id="patch_4">
    <path d="M 655.2 313.2 
L 655.2 28.8 
" style="fill:none;stroke:#000000;stroke-linecap:square;stroke-linejoin:miter;stroke-width:0.8;"/>
   </g>
   <g id="patch_5">
    <path d="M 64.8 313.2 
L 655.2 313.2 
" style="fill:none;stroke:#000000;stroke-linecap:square;stroke-linejoin:miter;stroke-width:0.8;"/>
   </g>
   <g id="patch_6">
    <path d="M 64.8 28.8 
L 655.2 28.8 
" style="fill:none;stroke:#000000;stroke-linecap:square;stroke-linejoin:miter;stroke-width:0.8;"/>
   </g>
   <g id="text_19">
    <!-- Page hits per uur (gemiddeld ongeveer 4700). -->
    <g transform="translate(221.01375 22.8)scale(0.12 -0.12)">
     <defs>
      <path d="M 19.671875 64.796875 
L 19.671875 37.40625 
L 32.078125 37.40625 
Q 38.96875 37.40625 42.71875 40.96875 
Q 46.484375 44.53125 46.484375 51.125 
Q 46.484375 57.671875 42.71875 61.234375 
Q 38.96875 64.796875 32.078125 64.796875 
z
M 9.8125 72.90625 
L 32.078125 72.90625 
Q 44.34375 72.90625 50.609375 67.359375 
Q 56.890625 61.8125 56.890625 51.125 
Q 56.890625 40.328125 50.609375 34.8125 
Q 44.34375 29.296875 32.078125 29.296875 
L 19.671875 29.296875 
L 19.671875 0 
L 9.8125 0 
z
" id="DejaVuSans-80"/>
      <path d="M 45.40625 27.984375 
Q 45.40625 37.75 41.375 43.109375 
Q 37.359375 48.484375 30.078125 48.484375 
Q 22.859375 48.484375 18.828125 43.109375 
Q 14.796875 37.75 14.796875 27.984375 
Q 14.796875 18.265625 18.828125 12.890625 
Q 22.859375 7.515625 30.078125 7.515625 
Q 37.359375 7.515625 41.375 12.890625 
Q 45.40625 18.265625 45.40625 27.984375 
z
M 54.390625 6.78125 
Q 54.390625 -7.171875 48.1875 -13.984375 
Q 42 -20.796875 29.203125 -20.796875 
Q 24.46875 -20.796875 20.265625 -20.09375 
Q 16.0625 -19.390625 12.109375 -17.921875 
L 12.109375 -9.1875 
Q 16.0625 -11.328125 19.921875 -12.34375 
Q 23.78125 -13.375 27.78125 -13.375 
Q 36.625 -13.375 41.015625 -8.765625 
Q 45.40625 -4.15625 45.40625 5.171875 
L 45.40625 9.625 
Q 42.625 4.78125 38.28125 2.390625 
Q 33.9375 0 27.875 0 
Q 17.828125 0 11.671875 7.65625 
Q 5.515625 15.328125 5.515625 27.984375 
Q 5.515625 40.671875 11.671875 48.328125 
Q 17.828125 56 27.875 56 
Q 33.9375 56 38.28125 53.609375 
Q 42.625 51.21875 45.40625 46.390625 
L 45.40625 54.6875 
L 54.390625 54.6875 
z
" id="DejaVuSans-103"/>
      <path d="M 56.203125 29.59375 
L 56.203125 25.203125 
L 14.890625 25.203125 
Q 15.484375 15.921875 20.484375 11.0625 
Q 25.484375 6.203125 34.421875 6.203125 
Q 39.59375 6.203125 44.453125 7.46875 
Q 49.3125 8.734375 54.109375 11.28125 
L 54.109375 2.78125 
Q 49.265625 0.734375 44.1875 -0.34375 
Q 39.109375 -1.421875 33.890625 -1.421875 
Q 20.796875 -1.421875 13.15625 6.1875 
Q 5.515625 13.8125 5.515625 26.8125 
Q 5.515625 40.234375 12.765625 48.109375 
Q 20.015625 56 32.328125 56 
Q 43.359375 56 49.78125 48.890625 
Q 56.203125 41.796875 56.203125 29.59375 
z
M 47.21875 32.234375 
Q 47.125 39.59375 43.09375 43.984375 
Q 39.0625 48.390625 32.421875 48.390625 
Q 24.90625 48.390625 20.390625 44.140625 
Q 15.875 39.890625 15.1875 32.171875 
z
" id="DejaVuSans-101"/>
      <path id="DejaVuSans-32"/>
      <path d="M 54.890625 33.015625 
L 54.890625 0 
L 45.90625 0 
L 45.90625 32.71875 
Q 45.90625 40.484375 42.875 44.328125 
Q 39.84375 48.1875 33.796875 48.1875 
Q 26.515625 48.1875 22.3125 43.546875 
Q 18.109375 38.921875 18.109375 30.90625 
L 18.109375 0 
L 9.078125 0 
L 9.078125 75.984375 
L 18.109375 75.984375 
L 18.109375 46.1875 
Q 21.34375 51.125 25.703125 53.5625 
Q 30.078125 56 35.796875 56 
Q 45.21875 56 50.046875 50.171875 
Q 54.890625 44.34375 54.890625 33.015625 
z
" id="DejaVuSans-104"/>
      <path d="M 9.421875 54.6875 
L 18.40625 54.6875 
L 18.40625 0 
L 9.421875 0 
z
M 9.421875 75.984375 
L 18.40625 75.984375 
L 18.40625 64.59375 
L 9.421875 64.59375 
z
" id="DejaVuSans-105"/>
      <path d="M 44.28125 53.078125 
L 44.28125 44.578125 
Q 40.484375 46.53125 36.375 47.5 
Q 32.28125 48.484375 27.875 48.484375 
Q 21.1875 48.484375 17.84375 46.4375 
Q 14.5 44.390625 14.5 40.28125 
Q 14.5 37.15625 16.890625 35.375 
Q 19.28125 33.59375 26.515625 31.984375 
L 29.59375 31.296875 
Q 39.15625 29.25 43.1875 25.515625 
Q 47.21875 21.78125 47.21875 15.09375 
Q 47.21875 7.46875 41.1875 3.015625 
Q 35.15625 -1.421875 24.609375 -1.421875 
Q 20.21875 -1.421875 15.453125 -0.5625 
Q 10.6875 0.296875 5.421875 2 
L 5.421875 11.28125 
Q 10.40625 8.6875 15.234375 7.390625 
Q 20.0625 6.109375 24.8125 6.109375 
Q 31.15625 6.109375 34.5625 8.28125 
Q 37.984375 10.453125 37.984375 14.40625 
Q 37.984375 18.0625 35.515625 20.015625 
Q 33.0625 21.96875 24.703125 23.78125 
L 21.578125 24.515625 
Q 13.234375 26.265625 9.515625 29.90625 
Q 5.8125 33.546875 5.8125 39.890625 
Q 5.8125 47.609375 11.28125 51.796875 
Q 16.75 56 26.8125 56 
Q 31.78125 56 36.171875 55.265625 
Q 40.578125 54.546875 44.28125 53.078125 
z
" id="DejaVuSans-115"/>
      <path d="M 18.109375 8.203125 
L 18.109375 -20.796875 
L 9.078125 -20.796875 
L 9.078125 54.6875 
L 18.109375 54.6875 
L 18.109375 46.390625 
Q 20.953125 51.265625 25.265625 53.625 
Q 29.59375 56 35.59375 56 
Q 45.5625 56 51.78125 48.09375 
Q 58.015625 40.1875 58.015625 27.296875 
Q 58.015625 14.40625 51.78125 6.484375 
Q 45.5625 -1.421875 35.59375 -1.421875 
Q 29.59375 -1.421875 25.265625 0.953125 
Q 20.953125 3.328125 18.109375 8.203125 
z
M 48.6875 27.296875 
Q 48.6875 37.203125 44.609375 42.84375 
Q 40.53125 48.484375 33.40625 48.484375 
Q 26.265625 48.484375 22.1875 42.84375 
Q 18.109375 37.203125 18.109375 27.296875 
Q 18.109375 17.390625 22.1875 11.75 
Q 26.265625 6.109375 33.40625 6.109375 
Q 40.53125 6.109375 44.609375 11.75 
Q 48.6875 17.390625 48.6875 27.296875 
z
" id="DejaVuSans-112"/>
      <path d="M 41.109375 46.296875 
Q 39.59375 47.171875 37.8125 47.578125 
Q 36.03125 48 33.890625 48 
Q 26.265625 48 22.1875 43.046875 
Q 18.109375 38.09375 18.109375 28.8125 
L 18.109375 0 
L 9.078125 0 
L 9.078125 54.6875 
L 18.109375 54.6875 
L 18.109375 46.1875 
Q 20.953125 51.171875 25.484375 53.578125 
Q 30.03125 56 36.53125 56 
Q 37.453125 56 38.578125 55.875 
Q 39.703125 55.765625 41.0625 55.515625 
z
" id="DejaVuSans-114"/>
      <path d="M 31 75.875 
Q 24.46875 64.65625 21.28125 53.65625 
Q 18.109375 42.671875 18.109375 31.390625 
Q 18.109375 20.125 21.3125 9.0625 
Q 24.515625 -2 31 -13.1875 
L 23.1875 -13.1875 
Q 15.875 -1.703125 12.234375 9.375 
Q 8.59375 20.453125 8.59375 31.390625 
Q 8.59375 42.28125 12.203125 53.3125 
Q 15.828125 64.359375 23.1875 75.875 
z
" id="DejaVuSans-40"/>
      <path d="M 45.40625 46.390625 
L 45.40625 75.984375 
L 54.390625 75.984375 
L 54.390625 0 
L 45.40625 0 
L 45.40625 8.203125 
Q 42.578125 3.328125 38.25 0.953125 
Q 33.9375 -1.421875 27.875 -1.421875 
Q 17.96875 -1.421875 11.734375 6.484375 
Q 5.515625 14.40625 5.515625 27.296875 
Q 5.515625 40.1875 11.734375 48.09375 
Q 17.96875 56 27.875 56 
Q 33.9375 56 38.25 53.625 
Q 42.578125 51.265625 45.40625 46.390625 
z
M 14.796875 27.296875 
Q 14.796875 17.390625 18.875 11.75 
Q 22.953125 6.109375 30.078125 6.109375 
Q 37.203125 6.109375 41.296875 11.75 
Q 45.40625 17.390625 45.40625 27.296875 
Q 45.40625 37.203125 41.296875 42.84375 
Q 37.203125 48.484375 30.078125 48.484375 
Q 22.953125 48.484375 18.875 42.84375 
Q 14.796875 37.203125 14.796875 27.296875 
z
" id="DejaVuSans-100"/>
      <path d="M 9.421875 75.984375 
L 18.40625 75.984375 
L 18.40625 0 
L 9.421875 0 
z
" id="DejaVuSans-108"/>
      <path d="M 30.609375 48.390625 
Q 23.390625 48.390625 19.1875 42.75 
Q 14.984375 37.109375 14.984375 27.296875 
Q 14.984375 17.484375 19.15625 11.84375 
Q 23.34375 6.203125 30.609375 6.203125 
Q 37.796875 6.203125 41.984375 11.859375 
Q 46.1875 17.53125 46.1875 27.296875 
Q 46.1875 37.015625 41.984375 42.703125 
Q 37.796875 48.390625 30.609375 48.390625 
z
M 30.609375 56 
Q 42.328125 56 49.015625 48.375 
Q 55.71875 40.765625 55.71875 27.296875 
Q 55.71875 13.875 49.015625 6.21875 
Q 42.328125 -1.421875 30.609375 -1.421875 
Q 18.84375 -1.421875 12.171875 6.21875 
Q 5.515625 13.875 5.515625 27.296875 
Q 5.515625 40.765625 12.171875 48.375 
Q 18.84375 56 30.609375 56 
z
" id="DejaVuSans-111"/>
      <path d="M 54.890625 33.015625 
L 54.890625 0 
L 45.90625 0 
L 45.90625 32.71875 
Q 45.90625 40.484375 42.875 44.328125 
Q 39.84375 48.1875 33.796875 48.1875 
Q 26.515625 48.1875 22.3125 43.546875 
Q 18.109375 38.921875 18.109375 30.90625 
L 18.109375 0 
L 9.078125 0 
L 9.078125 54.6875 
L 18.109375 54.6875 
L 18.109375 46.1875 
Q 21.34375 51.125 25.703125 53.5625 
Q 30.078125 56 35.796875 56 
Q 45.21875 56 50.046875 50.171875 
Q 54.890625 44.34375 54.890625 33.015625 
z
" id="DejaVuSans-110"/>
      <path d="M 2.984375 54.6875 
L 12.5 54.6875 
L 29.59375 8.796875 
L 46.6875 54.6875 
L 56.203125 54.6875 
L 35.6875 0 
L 23.484375 0 
z
" id="DejaVuSans-118"/>
      <path d="M 8.015625 75.875 
L 15.828125 75.875 
Q 23.140625 64.359375 26.78125 53.3125 
Q 30.421875 42.28125 30.421875 31.390625 
Q 30.421875 20.453125 26.78125 9.375 
Q 23.140625 -1.703125 15.828125 -13.1875 
L 8.015625 -13.1875 
Q 14.5 -2 17.703125 9.0625 
Q 20.90625 20.125 20.90625 31.390625 
Q 20.90625 42.671875 17.703125 53.65625 
Q 14.5 64.65625 8.015625 75.875 
z
" id="DejaVuSans-41"/>
      <path d="M 10.6875 12.40625 
L 21 12.40625 
L 21 0 
L 10.6875 0 
z
" id="DejaVuSans-46"/>
     </defs>
     <use xlink:href="#DejaVuSans-80"/>
     <use x="55.802734" xlink:href="#DejaVuSans-97"/>
     <use x="117.082031" xlink:href="#DejaVuSans-103"/>
     <use x="180.558594" xlink:href="#DejaVuSans-101"/>
     <use x="242.082031" xlink:href="#DejaVuSans-32"/>
     <use x="273.869141" xlink:href="#DejaVuSans-104"/>
     <use x="337.248047" xlink:href="#DejaVuSans-105"/>
     <use x="365.03125" xlink:href="#DejaVuSans-116"/>
     <use x="404.240234" xlink:href="#DejaVuSans-115"/>
     <use x="456.339844" xlink:href="#DejaVuSans-32"/>
     <use x="488.126953" xlink:href="#DejaVuSans-112"/>
     <use x="551.603516" xlink:href="#DejaVuSans-101"/>
     <use x="613.126953" xlink:href="#DejaVuSans-114"/>
     <use x="654.240234" xlink:href="#DejaVuSans-32"/>
     <use x="686.027344" xlink:href="#DejaVuSans-117"/>
     <use x="749.40625" xlink:href="#DejaVuSans-117"/>
     <use x="812.785156" xlink:href="#DejaVuSans-114"/>
     <use x="853.898438" xlink:href="#DejaVuSans-32"/>
     <use x="885.685547" xlink:href="#DejaVuSans-40"/>
     <use x="924.699219" xlink:href="#DejaVuSans-103"/>
     <use x="988.175781" xlink:href="#DejaVuSans-101"/>
     <use x="1049.699219" xlink:href="#DejaVuSans-109"/>
     <use x="1147.111328" xlink:href="#DejaVuSans-105"/>
     <use x="1174.894531" xlink:href="#DejaVuSans-100"/>
     <use x="1238.371094" xlink:href="#DejaVuSans-100"/>
     <use x="1301.847656" xlink:href="#DejaVuSans-101"/>
     <use x="1363.371094" xlink:href="#DejaVuSans-108"/>
     <use x="1391.154297" xlink:href="#DejaVuSans-100"/>
     <use x="1454.630859" xlink:href="#DejaVuSans-32"/>
     <use x="1486.417969" xlink:href="#DejaVuSans-111"/>
     <use x="1547.599609" xlink:href="#DejaVuSans-110"/>
     <use x="1610.978516" xlink:href="#DejaVuSans-103"/>
     <use x="1674.455078" xlink:href="#DejaVuSans-101"/>
     <use x="1735.978516" xlink:href="#DejaVuSans-118"/>
     <use x="1795.158203" xlink:href="#DejaVuSans-101"/>
     <use x="1856.681641" xlink:href="#DejaVuSans-101"/>
     <use x="1918.205078" xlink:href="#DejaVuSans-114"/>
     <use x="1959.318359" xlink:href="#DejaVuSans-32"/>
     <use x="1991.105469" xlink:href="#DejaVuSans-52"/>
     <use x="2054.728516" xlink:href="#DejaVuSans-55"/>
     <use x="2118.351562" xlink:href="#DejaVuSans-48"/>
     <use x="2181.974609" xlink:href="#DejaVuSans-48"/>
     <use x="2245.597656" xlink:href="#DejaVuSans-41"/>
     <use x="2284.611328" xlink:href="#DejaVuSans-46"/>
    </g>
   </g>
  </g>
  <g id="text_20">
   <!-- Gegenereerd op 2021-07-09 23:40. -->
   <g style="fill:#808080;" transform="translate(7.2 356.4)scale(0.08 -0.08)">
    <defs>
     <path d="M 59.515625 10.40625 
L 59.515625 29.984375 
L 43.40625 29.984375 
L 43.40625 38.09375 
L 69.28125 38.09375 
L 69.28125 6.78125 
Q 63.578125 2.734375 56.6875 0.65625 
Q 49.8125 -1.421875 42 -1.421875 
Q 24.90625 -1.421875 15.25 8.5625 
Q 5.609375 18.5625 5.609375 36.375 
Q 5.609375 54.25 15.25 64.234375 
Q 24.90625 74.21875 42 74.21875 
Q 49.125 74.21875 55.546875 72.453125 
Q 61.96875 70.703125 67.390625 67.28125 
L 67.390625 56.78125 
Q 61.921875 61.421875 55.765625 63.765625 
Q 49.609375 66.109375 42.828125 66.109375 
Q 29.4375 66.109375 22.71875 58.640625 
Q 16.015625 51.171875 16.015625 36.375 
Q 16.015625 21.625 22.71875 14.15625 
Q 29.4375 6.6875 42.828125 6.6875 
Q 48.046875 6.6875 52.140625 7.59375 
Q 56.25 8.5 59.515625 10.40625 
z
" id="DejaVuSans-71"/>
     <path d="M 11.71875 12.40625 
L 22.015625 12.40625 
L 22.015625 0 
L 11.71875 0 
z
M 11.71875 51.703125 
L 22.015625 51.703125 
L 22.015625 39.3125 
L 11.71875 39.3125 
z
" id="DejaVuSans-58"/>
    </defs>
    <use xlink:href="#DejaVuSans-71"/>
    <use x="77.490234" xlink:href="#DejaVuSans-101"/>
    <use x="139.013672" xlink:href="#DejaVuSans-103"/>
    <use x="202.490234" xlink:href="#DejaVuSans-101"/>
    <use x="264.013672" xlink:href="#DejaVuSans-110"/>
    <use x="327.392578" xlink:href="#DejaVuSans-101"/>
    <use x="388.916016" xlink:href="#DejaVuSans-114"/>
    <use x="427.779297" xlink:href="#DejaVuSans-101"/>
    <use x="489.302734" xlink:href="#DejaVuSans-101"/>
    <use x="550.826172" xlink:href="#DejaVuSans-114"/>
    <use x="590.189453" xlink:href="#DejaVuSans-100"/>
    <use x="653.666016" xlink:href="#DejaVuSans-32"/>
    <use x="685.453125" xlink:href="#DejaVuSans-111"/>
    <use x="746.634766" xlink:href="#DejaVuSans-112"/>
    <use x="810.111328" xlink:href="#DejaVuSans-32"/>
    <use x="841.898438" xlink:href="#DejaVuSans-50"/>
    <use x="905.521484" xlink:href="#DejaVuSans-48"/>
    <use x="969.144531" xlink:href="#DejaVuSans-50"/>
    <use x="1032.767578" xlink:href="#DejaVuSans-49"/>
    <use x="1096.390625" xlink:href="#DejaVuSans-45"/>
    <use x="1132.474609" xlink:href="#DejaVuSans-48"/>
    <use x="1196.097656" xlink:href="#DejaVuSans-55"/>
    <use x="1259.720703" xlink:href="#DejaVuSans-45"/>
    <use x="1295.804688" xlink:href="#DejaVuSans-48"/>
    <use x="1359.427734" xlink:href="#DejaVuSans-57"/>
    <use x="1423.050781" xlink:href="#DejaVuSans-32"/>
    <use x="1454.837891" xlink:href="#DejaVuSans-50"/>
    <use x="1518.460938" xlink:href="#DejaVuSans-51"/>
    <use x="1582.083984" xlink:href="#DejaVuSans-58"/>
    <use x="1615.775391" xlink:href="#DejaVuSans-52"/>
    <use x="1679.398438" xlink:href="#DejaVuSans-48"/>
    <use x="1743.021484" xlink:href="#DejaVuSans-46"/>
   </g>
  </g>
  <g id="text_21">
   <!-- https://realrolfje.github.io/coronadata/ -->
   <g style="fill:#808080;" transform="translate(560.24375 356.4)scale(0.08 -0.08)">
    <defs>
     <path d="M 25.390625 72.90625 
L 33.6875 72.90625 
L 8.296875 -9.28125 
L 0 -9.28125 
z
" id="DejaVuSans-47"/>
     <path d="M 37.109375 75.984375 
L 37.109375 68.5 
L 28.515625 68.5 
Q 23.6875 68.5 21.796875 66.546875 
Q 19.921875 64.59375 19.921875 59.515625 
L 19.921875 54.6875 
L 34.71875 54.6875 
L 34.71875 47.703125 
L 19.921875 47.703125 
L 19.921875 0 
L 10.890625 0 
L 10.890625 47.703125 
L 2.296875 47.703125 
L 2.296875 54.6875 
L 10.890625 54.6875 
L 10.890625 58.5 
Q 10.890625 67.625 15.140625 71.796875 
Q 19.390625 75.984375 28.609375 75.984375 
z
" id="DejaVuSans-102"/>
     <path d="M 9.421875 54.6875 
L 18.40625 54.6875 
L 18.40625 -0.984375 
Q 18.40625 -11.421875 14.421875 -16.109375 
Q 10.453125 -20.796875 1.609375 -20.796875 
L -1.8125 -20.796875 
L -1.8125 -13.1875 
L 0.59375 -13.1875 
Q 5.71875 -13.1875 7.5625 -10.8125 
Q 9.421875 -8.453125 9.421875 -0.984375 
z
M 9.421875 75.984375 
L 18.40625 75.984375 
L 18.40625 64.59375 
L 9.421875 64.59375 
z
" id="DejaVuSans-106"/>
     <path d="M 48.6875 27.296875 
Q 48.6875 37.203125 44.609375 42.84375 
Q 40.53125 48.484375 33.40625 48.484375 
Q 26.265625 48.484375 22.1875 42.84375 
Q 18.109375 37.203125 18.109375 27.296875 
Q 18.109375 17.390625 22.1875 11.75 
Q 26.265625 6.109375 33.40625 6.109375 
Q 40.53125 6.109375 44.609375 11.75 
Q 48.6875 17.390625 48.6875 27.296875 
z
M 18.109375 46.390625 
Q 20.953125 51.265625 25.265625 53.625 
Q 29.59375 56 35.59375 56 
Q 45.5625 56 51.78125 48.09375 
Q 58.015625 40.1875 58.015625 27.296875 
Q 58.015625 14.40625 51.78125 6.484375 
Q 45.5625 -1.421875 35.59375 -1.421875 
Q 29.59375 -1.421875 25.265625 0.953125 
Q 20.953125 3.328125 18.109375 8.203125 
L 18.109375 0 
L 9.078125 0 
L 9.078125 75.984375 
L 18.109375 75.984375 
z
" id="DejaVuSans-98"/>
     <path d="M 48.78125 52.59375 
L 48.78125 44.1875 
Q 44.96875 46.296875 41.140625 47.34375 
Q 37.3125 48.390625 33.40625 48.390625 
Q 24.65625 48.390625 19.8125 42.84375 
Q 14.984375 37.3125 14.984375 27.296875 
Q 14.984375 17.28125 19.8125 11.734375 
Q 24.65625 6.203125 33.40625 6.203125 
Q 37.3125 6.203125 41.140625 7.25 
Q 44.96875 8.296875 48.78125 10.40625 
L 48.78125 2.09375 
Q 45.015625 0.34375 40.984375 -0.53125 
Q 36.96875 -1.421875 32.421875 -1.421875 
Q 20.0625 -1.421875 12.78125 6.34375 
Q 5.515625 14.109375 5.515625 27.296875 
Q 5.515625 40.671875 12.859375 48.328125 
Q 20.21875 56 33.015625 56 
Q 37.15625 56 41.109375 55.140625 
Q 45.0625 54.296875 48.78125 52.59375 
z
" id="DejaVuSans-99"/>
    </defs>
    <use xlink:href="#DejaVuSans-104"/>
    <use x="63.378906" xlink:href="#DejaVuSans-116"/>
    <use x="102.587891" xlink:href="#DejaVuSans-116"/>
    <use x="141.796875" xlink:href="#DejaVuSans-112"/>
    <use x="205.273438" xlink:href="#DejaVuSans-115"/>
    <use x="257.373047" xlink:href="#DejaVuSans-58"/>
    <use x="291.064453" xlink:href="#DejaVuSans-47"/>
    <use x="324.755859" xlink:href="#DejaVuSans-47"/>
    <use x="358.447266" xlink:href="#DejaVuSans-114"/>
    <use x="397.310547" xlink:href="#DejaVuSans-101"/>
    <use x="458.833984" xlink:href="#DejaVuSans-97"/>
    <use x="520.113281" xlink:href="#DejaVuSans-108"/>
    <use x="547.896484" xlink:href="#DejaVuSans-114"/>
    <use x="586.759766" xlink:href="#DejaVuSans-111"/>
    <use x="647.941406" xlink:href="#DejaVuSans-108"/>
    <use x="675.724609" xlink:href="#DejaVuSans-102"/>
    <use x="710.929688" xlink:href="#DejaVuSans-106"/>
    <use x="738.712891" xlink:href="#DejaVuSans-101"/>
    <use x="800.236328" xlink:href="#DejaVuSans-46"/>
    <use x="832.023438" xlink:href="#DejaVuSans-103"/>
    <use x="895.5" xlink:href="#DejaVuSans-105"/>
    <use x="923.283203" xlink:href="#DejaVuSans-116"/>
    <use x="962.492188" xlink:href="#DejaVuSans-104"/>
    <use x="1025.871094" xlink:href="#DejaVuSans-117"/>
    <use x="1089.25" xlink:href="#DejaVuSans-98"/>
    <use x="1152.726562" xlink:href="#DejaVuSans-46"/>
    <use x="1184.513672" xlink:href="#DejaVuSans-105"/>
    <use x="1212.296875" xlink:href="#DejaVuSans-111"/>
    <use x="1273.478516" xlink:href="#DejaVuSans-47"/>
    <use x="1307.169922" xlink:href="#DejaVuSans-99"/>
    <use x="1362.150391" xlink:href="#DejaVuSans-111"/>
    <use x="1423.332031" xlink:href="#DejaVuSans-114"/>
    <use x="1462.195312" xlink:href="#DejaVuSans-111"/>
    <use x="1523.376953" xlink:href="#DejaVuSans-110"/>
    <use x="1586.755859" xlink:href="#DejaVuSans-97"/>
    <use x="1648.035156" xlink:href="#DejaVuSans-100"/>
    <use x="1711.511719" xlink:href="#DejaVuSans-97"/>
    <use x="1772.791016" xlink:href="#DejaVuSans-116"/>
    <use x="1812" xlink:href="#DejaVuSans-97"/>
    <use x="1873.279297" xlink:href="#DejaVuSans-47"/>
   </g>
  </g>
 </g>
 <defs>
  <clipPath id="p9280138021">
   <rect height="284.4" width="590.4" x="64.8" y="28.8"/>
  </clipPath>
 </defs>
</svg>
