<?xml version="1.0" encoding="utf-8" standalone="no"?>
<!DOCTYPE svg PUBLIC "-//W3C//DTD SVG 1.1//EN"
  "http://www.w3.org/Graphics/SVG/1.1/DTD/svg11.dtd">
<!-- Created with matplotlib (https://matplotlib.org/) -->
<svg height="360pt" version="1.1" viewBox="0 0 720 360" width="720pt" xmlns="http://www.w3.org/2000/svg" xmlns:xlink="http://www.w3.org/1999/xlink">
 <metadata>
  <rdf:RDF xmlns:cc="http://creativecommons.org/ns#" xmlns:dc="http://purl.org/dc/elements/1.1/" xmlns:rdf="http://www.w3.org/1999/02/22-rdf-syntax-ns#">
   <cc:Work>
    <dc:type rdf:resource="http://purl.org/dc/dcmitype/StillImage"/>
    <dc:date>2022-06-30T23:56:38.547186</dc:date>
    <dc:format>image/svg+xml</dc:format>
    <dc:creator>
     <cc:Agent>
      <dc:title>Matplotlib v3.3.2, https://matplotlib.org/</dc:title>
     </cc:Agent>
    </dc:creator>
   </cc:Work>
  </rdf:RDF>
 </metadata>
 <defs>
  <style type="text/css">*{stroke-linecap:butt;stroke-linejoin:round;}</style>
 </defs>
 <g id="figure_1">
  <g id="patch_1">
   <path d="M 0 360 
L 720 360 
L 720 0 
L 0 0 
z
" style="fill:#ffffff;"/>
  </g>
  <g id="axes_1">
   <g id="patch_2">
    <path d="M 64.8 313.2 
L 655.2 313.2 
L 655.2 28.8 
L 64.8 28.8 
z
" style="fill:#ffffff;"/>
   </g>
   <g id="PolyCollection_1">
    <path clip-path="url(#p3bfef1b7f9)" d="M 91.636364 300.272727 
L 91.636364 300.272727 
L 92.55072 300.272727 
L 93.465077 300.272727 
L 94.379433 300.272727 
L 95.29379 300.272727 
L 96.208146 300.272727 
L 98.951216 300.272727 
L 99.865572 300.272727 
L 100.779929 300.272727 
L 101.694285 300.272727 
L 102.608642 300.272727 
L 103.522998 300.272727 
L 104.437355 300.272727 
L 105.351711 300.272727 
L 106.266068 300.272727 
L 107.180424 300.272727 
L 108.094781 300.272727 
L 109.009137 300.272727 
L 109.923494 300.272727 
L 110.83785 300.272727 
L 111.752207 300.272727 
L 112.666563 300.272727 
L 113.58092 300.272727 
L 114.495276 300.272727 
L 115.409633 300.272727 
L 116.323989 300.272727 
L 117.238346 300.272727 
L 118.152702 300.272727 
L 119.067059 300.272727 
L 119.981416 300.272727 
L 120.895772 300.272727 
L 121.810129 300.272727 
L 122.724485 300.272727 
L 123.638842 300.272727 
L 124.553198 300.272727 
L 125.467555 300.272727 
L 126.381911 300.272727 
L 127.296268 300.272727 
L 128.210624 300.272727 
L 129.124981 300.272727 
L 130.039337 300.272727 
L 130.953694 300.272727 
L 131.86805 300.272727 
L 132.782407 300.272727 
L 133.696763 300.272727 
L 134.61112 300.272727 
L 135.525476 300.272727 
L 136.439833 300.272727 
L 137.354189 300.272727 
L 138.268546 300.272727 
L 139.182902 300.272727 
L 140.097259 300.272727 
L 141.011615 300.272727 
L 141.925972 300.272727 
L 142.840328 300.272727 
L 143.754685 300.272727 
L 144.669041 300.272727 
L 145.583398 300.272727 
L 146.497754 300.272727 
L 147.412111 300.272727 
L 148.326467 300.272727 
L 149.240824 300.272727 
L 150.15518 300.272727 
L 151.069537 300.272727 
L 151.983893 300.272727 
L 152.89825 300.272727 
L 153.812606 300.272727 
L 154.726963 300.272727 
L 155.641319 300.272727 
L 156.555676 300.272727 
L 157.470033 300.272727 
L 158.384389 300.272727 
L 159.298746 300.272727 
L 160.213102 300.272727 
L 161.127459 300.272727 
L 162.041815 300.272727 
L 162.956172 300.272727 
L 163.870528 300.272727 
L 164.784885 300.272727 
L 165.699241 300.272727 
L 166.613598 300.272727 
L 167.527954 300.272727 
L 168.442311 300.272727 
L 169.356667 300.272727 
L 170.271024 300.272727 
L 171.18538 300.272727 
L 172.099737 300.272727 
L 173.014093 300.272727 
L 173.92845 300.272727 
L 174.842806 300.272727 
L 175.757163 300.272727 
L 176.671519 300.272727 
L 177.585876 300.272727 
L 178.500232 300.272727 
L 179.414589 300.272727 
L 180.328945 300.272727 
L 181.243302 300.272727 
L 182.157658 300.272727 
L 183.072015 300.272727 
L 183.986371 300.272727 
L 184.900728 300.272727 
L 185.815084 300.272727 
L 186.729441 300.272727 
L 187.643797 300.272727 
L 188.558154 300.272727 
L 189.47251 300.272727 
L 190.386867 300.272727 
L 191.301223 300.272727 
L 192.21558 300.272727 
L 193.129937 300.272727 
L 194.044293 300.272727 
L 194.95865 300.272727 
L 195.873006 300.272727 
L 196.787363 300.272727 
L 197.701719 300.272727 
L 198.616076 300.272727 
L 199.530432 300.272727 
L 201.359145 300.272727 
L 202.273502 300.272727 
L 203.187858 300.272727 
L 204.102215 300.272727 
L 205.016571 300.272727 
L 205.930928 300.272727 
L 206.845284 300.272727 
L 207.759641 300.272727 
L 208.673997 300.272727 
L 209.588354 300.272727 
L 210.50271 300.272727 
L 211.417067 300.272727 
L 212.331423 300.272727 
L 213.24578 300.272727 
L 214.160136 300.272727 
L 215.074493 300.272727 
L 215.988849 300.272727 
L 216.903206 300.272727 
L 217.817562 300.272727 
L 218.731919 300.272727 
L 219.646275 300.272727 
L 220.560632 300.272727 
L 221.474988 300.272727 
L 222.389345 300.272727 
L 223.303701 300.272727 
L 224.218058 300.272727 
L 225.132414 300.272727 
L 226.046771 300.272727 
L 226.961127 300.272727 
L 227.875484 300.272727 
L 228.78984 300.272727 
L 229.704197 300.272727 
L 230.618554 300.272727 
L 231.53291 300.272727 
L 232.447267 300.272727 
L 233.361623 300.272727 
L 234.27598 300.272727 
L 235.190336 300.272727 
L 236.104693 300.272727 
L 237.019049 300.272727 
L 237.933406 300.272727 
L 238.847762 300.272727 
L 239.762119 300.272727 
L 240.676475 300.272727 
L 241.590832 300.272727 
L 242.505188 300.272727 
L 243.419545 300.272727 
L 244.333901 300.272727 
L 245.248258 300.272727 
L 246.162614 300.272727 
L 247.076971 300.272727 
L 247.991327 300.272727 
L 248.905684 300.272727 
L 249.82004 300.272727 
L 250.734397 300.272727 
L 251.648753 300.272727 
L 252.56311 300.272727 
L 253.477466 300.272727 
L 254.391823 300.272727 
L 255.306179 300.272727 
L 256.220536 300.272727 
L 257.134892 300.272727 
L 258.049249 300.272727 
L 258.963605 300.272727 
L 259.877962 300.272727 
L 260.792318 300.272727 
L 261.706675 300.272727 
L 262.621031 300.272727 
L 263.535388 300.272727 
L 264.449744 300.272727 
L 265.364101 300.272727 
L 266.278457 300.272727 
L 267.192814 300.272727 
L 268.107171 300.272727 
L 269.021527 300.272727 
L 269.935884 300.272727 
L 270.85024 300.272727 
L 271.764597 300.272727 
L 272.678953 300.272727 
L 273.59331 300.272727 
L 274.507666 300.272727 
L 275.422023 300.272727 
L 276.336379 300.272727 
L 277.250736 300.272727 
L 278.165092 300.272727 
L 279.079449 300.272727 
L 279.993805 300.272727 
L 280.908162 300.272727 
L 282.736875 300.272727 
L 283.651231 300.272727 
L 284.565588 300.272727 
L 285.479944 300.272727 
L 286.394301 300.272727 
L 287.308657 300.272727 
L 288.223014 300.272727 
L 289.13737 300.272727 
L 290.051727 300.272727 
L 290.966083 300.272727 
L 291.88044 300.272727 
L 292.794796 300.272727 
L 293.709153 300.272727 
L 294.623509 300.272727 
L 295.537866 300.272727 
L 296.452222 300.272727 
L 297.366579 300.272727 
L 298.280935 300.272727 
L 299.195292 300.272727 
L 300.109648 300.272727 
L 301.024005 300.272727 
L 301.938361 300.272727 
L 302.852718 300.272727 
L 303.767074 300.272727 
L 304.681431 300.272727 
L 305.595788 300.272727 
L 306.510144 300.272727 
L 307.424501 300.272727 
L 308.338857 300.272727 
L 309.253214 300.272727 
L 310.16757 300.272727 
L 311.081927 300.272727 
L 311.996283 300.272727 
L 312.91064 300.272727 
L 313.824996 300.272727 
L 314.739353 300.272727 
L 315.653709 300.272727 
L 316.568066 300.272727 
L 317.482422 300.272727 
L 318.396779 300.272727 
L 319.311135 300.272727 
L 320.225492 300.272727 
L 321.139848 300.272727 
L 322.054205 300.272727 
L 322.968561 300.272727 
L 323.882918 300.272727 
L 324.797274 300.272727 
L 325.711631 300.272727 
L 326.625987 300.272727 
L 327.540344 300.272727 
L 328.4547 300.272727 
L 329.369057 300.272727 
L 330.283413 300.272727 
L 331.19777 300.272727 
L 332.112126 300.272727 
L 333.026483 300.272727 
L 333.940839 300.272727 
L 334.855196 300.272727 
L 335.769552 300.272727 
L 336.683909 300.272727 
L 337.598265 300.272727 
L 338.512622 300.272727 
L 339.426978 300.272727 
L 340.341335 300.272727 
L 341.255691 300.272727 
L 342.170048 300.272727 
L 343.084405 300.272727 
L 343.998761 300.272727 
L 344.913118 300.272727 
L 345.827474 300.272727 
L 346.741831 300.272727 
L 347.656187 300.272727 
L 348.570544 300.272727 
L 349.4849 300.272727 
L 350.399257 300.272727 
L 351.313613 300.272727 
L 352.22797 300.272727 
L 353.142326 300.272727 
L 354.056683 300.272727 
L 354.971039 300.272727 
L 355.885396 300.272727 
L 356.799752 300.272727 
L 357.714109 300.272727 
L 358.628465 300.272727 
L 359.542822 300.272727 
L 360.457178 300.272727 
L 361.371535 300.272727 
L 362.285891 300.272727 
L 363.200248 300.272727 
L 364.114604 300.272727 
L 365.028961 300.272727 
L 365.943317 300.272727 
L 366.857674 300.272727 
L 367.77203 300.272727 
L 368.686387 300.272727 
L 369.600743 300.272727 
L 370.5151 300.272727 
L 371.429456 300.272727 
L 372.343813 300.272727 
L 373.258169 300.272727 
L 374.172526 300.272727 
L 375.086882 300.272727 
L 376.001239 300.272727 
L 376.915595 300.272727 
L 377.829952 300.272727 
L 378.744309 300.272727 
L 379.658665 300.272727 
L 380.573022 300.272727 
L 381.487378 300.272727 
L 382.401735 300.272727 
L 383.316091 300.272727 
L 384.230448 300.272727 
L 385.144804 300.272727 
L 386.059161 300.272727 
L 386.973517 300.272727 
L 387.887874 300.272727 
L 388.80223 300.272727 
L 389.716587 300.272727 
L 390.630943 300.272727 
L 391.5453 300.272727 
L 392.459656 300.272727 
L 393.374013 300.272727 
L 394.288369 300.272727 
L 395.202726 300.272727 
L 396.117082 300.272727 
L 397.031439 300.272727 
L 397.945795 300.272727 
L 398.860152 300.272727 
L 399.774508 300.272727 
L 400.688865 300.272727 
L 401.603221 300.272727 
L 402.517578 300.272727 
L 403.431934 300.272727 
L 404.346291 300.272727 
L 405.260647 300.272727 
L 406.175004 300.272727 
L 407.08936 300.272727 
L 408.003717 300.272727 
L 408.918073 300.272727 
L 409.83243 300.272727 
L 410.746786 300.272727 
L 411.661143 300.272727 
L 412.575499 300.272727 
L 413.489856 300.272727 
L 414.404212 300.272727 
L 415.318569 300.272727 
L 416.232926 300.272727 
L 417.147282 300.272727 
L 418.061639 300.272727 
L 418.975995 300.272727 
L 419.890352 300.272727 
L 420.804708 300.272727 
L 421.719065 300.272727 
L 422.633421 300.272727 
L 423.547778 300.272727 
L 424.462134 300.272727 
L 425.376491 300.272727 
L 426.290847 300.272727 
L 427.205204 300.272727 
L 428.11956 300.272727 
L 429.033917 300.272727 
L 429.948273 300.272727 
L 430.86263 300.272727 
L 431.776986 300.272727 
L 432.691343 300.272727 
L 433.605699 300.272727 
L 434.520056 300.272727 
L 435.434412 300.272727 
L 436.348769 300.272727 
L 437.263125 300.272727 
L 438.177482 300.272727 
L 439.091838 300.272727 
L 440.006195 300.272727 
L 440.920551 300.272727 
L 441.834908 300.272727 
L 442.749264 300.272727 
L 443.663621 300.272727 
L 444.577977 300.272727 
L 445.492334 300.272727 
L 446.40669 300.272727 
L 447.321047 300.272727 
L 448.235403 300.272727 
L 449.14976 300.272727 
L 450.064116 300.272727 
L 450.978473 300.272727 
L 451.892829 300.272727 
L 452.807186 300.272727 
L 453.721543 300.272727 
L 454.635899 300.272727 
L 455.550256 300.272727 
L 456.464612 300.272727 
L 457.378969 300.272727 
L 458.293325 300.272727 
L 459.207682 300.272727 
L 460.122038 300.272727 
L 461.036395 300.272727 
L 461.950751 300.272727 
L 462.865108 300.272727 
L 463.779464 300.272727 
L 464.693821 300.272727 
L 465.608177 300.272727 
L 466.522534 300.272727 
L 477.494812 300.272727 
L 478.409168 300.272727 
L 479.323525 300.272727 
L 480.237881 300.272727 
L 481.152238 300.272727 
L 482.066594 300.272727 
L 482.980951 300.272727 
L 483.895307 300.272727 
L 485.72402 300.272727 
L 486.638377 300.272727 
L 487.552733 300.272727 
L 488.46709 300.272727 
L 489.381446 300.272727 
L 490.295803 300.272727 
L 491.21016 300.272727 
L 492.124516 300.272727 
L 493.038873 300.272727 
L 493.953229 300.272727 
L 494.867586 300.272727 
L 495.781942 300.272727 
L 496.696299 300.272727 
L 497.610655 300.272727 
L 498.525012 300.272727 
L 499.439368 300.272727 
L 500.353725 300.272727 
L 501.268081 300.272727 
L 502.182438 300.272727 
L 503.096794 300.272727 
L 504.011151 300.272727 
L 504.925507 300.272727 
L 505.839864 300.272727 
L 506.75422 300.272727 
L 507.668577 300.272727 
L 508.582933 300.272727 
L 509.49729 300.272727 
L 510.411646 300.272727 
L 511.326003 300.272727 
L 512.240359 300.272727 
L 513.154716 300.272727 
L 514.069072 300.272727 
L 514.983429 300.272727 
L 515.897785 300.272727 
L 516.812142 300.272727 
L 517.726498 300.272727 
L 518.640855 300.272727 
L 519.555211 300.272727 
L 520.469568 300.272727 
L 523.212637 300.272727 
L 524.126994 300.272727 
L 525.04135 300.272727 
L 525.955707 300.272727 
L 526.870063 300.272727 
L 527.78442 300.272727 
L 528.698777 300.272727 
L 529.613133 300.272727 
L 530.52749 300.272727 
L 531.441846 300.272727 
L 532.356203 300.272727 
L 533.270559 300.272727 
L 534.184916 300.272727 
L 535.099272 300.272727 
L 536.013629 300.272727 
L 536.927985 300.272727 
L 537.842342 300.272727 
L 538.756698 300.272727 
L 539.671055 300.272727 
L 540.585411 300.272727 
L 541.499768 300.272727 
L 542.414124 300.272727 
L 543.328481 300.272727 
L 544.242837 300.272727 
L 545.157194 300.272727 
L 546.07155 300.272727 
L 546.985907 300.272727 
L 547.900263 300.272727 
L 548.81462 300.272727 
L 549.728976 300.272727 
L 550.643333 300.272727 
L 551.557689 300.272727 
L 552.472046 300.272727 
L 553.386402 300.272727 
L 554.300759 300.272727 
L 555.215115 300.272727 
L 556.129472 300.272727 
L 557.043828 300.272727 
L 557.958185 300.272727 
L 558.872541 300.272727 
L 559.786898 300.272727 
L 560.701254 300.272727 
L 561.615611 300.272727 
L 562.529967 300.272727 
L 563.444324 300.272727 
L 564.358681 300.272727 
L 565.273037 300.272727 
L 566.187394 300.272727 
L 567.10175 300.272727 
L 568.016107 300.272727 
L 568.930463 300.272727 
L 569.84482 300.272727 
L 570.759176 300.272727 
L 571.673533 300.272727 
L 572.587889 300.272727 
L 573.502246 300.272727 
L 574.416602 300.272727 
L 575.330959 300.272727 
L 576.245315 300.272727 
L 577.159672 300.272727 
L 578.074028 300.272727 
L 578.988385 300.272727 
L 579.902741 300.272727 
L 580.817098 300.272727 
L 581.731454 300.272727 
L 582.645811 300.272727 
L 583.560167 300.272727 
L 584.474524 300.272727 
L 585.38888 300.272727 
L 586.303237 300.272727 
L 587.217593 300.272727 
L 588.13195 300.272727 
L 589.046306 300.272727 
L 589.960663 300.272727 
L 590.875019 300.272727 
L 591.789376 300.272727 
L 592.703732 300.272727 
L 593.618089 300.272727 
L 594.532445 300.272727 
L 595.446802 300.272727 
L 596.361158 300.272727 
L 597.275515 300.272727 
L 598.189871 300.272727 
L 599.104228 300.272727 
L 600.018584 300.272727 
L 600.932941 300.272727 
L 601.847298 300.272727 
L 602.761654 300.272727 
L 603.676011 300.272727 
L 604.590367 300.272727 
L 605.504724 300.272727 
L 606.41908 300.272727 
L 607.333437 300.272727 
L 608.247793 300.272727 
L 609.16215 300.272727 
L 610.076506 300.272727 
L 610.990863 300.272727 
L 611.905219 300.272727 
L 612.819576 300.272727 
L 613.733932 300.272727 
L 614.648289 300.272727 
L 615.562645 300.272727 
L 616.477002 300.272727 
L 617.391358 300.272727 
L 618.305715 300.272727 
L 619.220071 300.272727 
L 620.134428 300.272727 
L 621.048784 300.272727 
L 621.963141 300.272727 
L 622.877497 300.272727 
L 623.791854 300.272727 
L 624.70621 300.272727 
L 625.620567 300.272727 
L 626.534923 300.272727 
L 627.44928 300.272727 
L 628.363636 300.272727 
L 628.363636 300.272727 
L 628.363636 241.94235 
L 627.44928 292.390244 
L 626.534923 293.441242 
L 625.620567 288.711752 
L 624.70621 285.033259 
L 623.791854 228.279379 
L 622.877497 226.177384 
L 621.963141 290.813747 
L 621.048784 291.339246 
L 620.134428 287.660754 
L 619.220071 289.237251 
L 618.305715 293.966741 
L 617.391358 295.017738 
L 616.477002 285.558758 
L 615.562645 292.915743 
L 614.648289 269.268293 
L 613.733932 200.953437 
L 612.819576 234.585366 
L 611.905219 295.543237 
L 610.990863 197.274945 
L 610.076506 185.18847 
L 609.16215 294.492239 
L 608.247793 288.711752 
L 607.333437 297.119734 
L 606.41908 270.844789 
L 605.504724 298.170732 
L 604.590367 245.620843 
L 603.676011 247.722838 
L 602.761654 296.068736 
L 601.847298 298.170732 
L 600.932941 297.119734 
L 600.018584 295.543237 
L 599.104228 298.170732 
L 598.189871 294.492239 
L 597.275515 293.441242 
L 596.361158 296.068736 
L 595.446802 200.953437 
L 594.532445 208.83592 
L 593.618089 266.640798 
L 592.703732 294.492239 
L 591.789376 282.931264 
L 590.875019 266.115299 
L 589.960663 243.518847 
L 589.046306 242.993348 
L 588.13195 205.157428 
L 587.217593 234.585366 
L 586.303237 273.472284 
L 585.38888 206.208426 
L 584.474524 248.248337 
L 583.560167 280.303769 
L 582.645811 287.660754 
L 581.731454 296.594235 
L 580.817098 295.543237 
L 579.902741 293.966741 
L 578.988385 296.068736 
L 578.074028 294.492239 
L 577.159672 287.135255 
L 576.245315 255.605322 
L 575.330959 290.288248 
L 574.416602 298.170732 
L 573.502246 295.543237 
L 572.587889 293.966741 
L 571.673533 287.660754 
L 570.759176 297.645233 
L 569.84482 296.068736 
L 568.930463 296.068736 
L 568.016107 295.543237 
L 567.10175 285.033259 
L 566.187394 296.068736 
L 565.273037 273.997783 
L 564.358681 285.558758 
L 563.444324 293.966741 
L 562.529967 293.966741 
L 561.615611 296.594235 
L 560.701254 296.594235 
L 559.786898 296.594235 
L 558.872541 287.660754 
L 557.958185 256.13082 
L 557.043828 247.197339 
L 556.129472 273.472284 
L 555.215115 288.711752 
L 554.300759 291.864745 
L 553.386402 278.727273 
L 552.472046 255.605322 
L 551.557689 244.044346 
L 550.643333 248.773836 
L 549.728976 248.248337 
L 548.81462 239.840355 
L 547.900263 294.492239 
L 546.985907 291.339246 
L 546.07155 254.554324 
L 545.157194 287.660754 
L 544.242837 288.186253 
L 543.328481 253.503326 
L 542.414124 295.017738 
L 541.499768 287.135255 
L 540.585411 290.813747 
L 539.671055 248.773836 
L 538.756698 225.126386 
L 537.842342 239.314856 
L 536.927985 266.640798 
L 536.013629 285.033259 
L 535.099272 290.288248 
L 534.184916 296.068736 
L 533.270559 248.248337 
L 532.356203 266.115299 
L 531.441846 283.982262 
L 530.52749 233.008869 
L 529.613133 238.263858 
L 528.698777 265.5898 
L 527.78442 271.370288 
L 526.870063 176.780488 
L 525.955707 289.762749 
L 525.04135 262.962306 
L 524.126994 202.529933 
L 523.212637 201.478936 
L 520.469568 273.472284 
L 519.555211 236.687361 
L 518.640855 191.494457 
L 517.726498 242.467849 
L 516.812142 243.518847 
L 515.897785 286.084257 
L 514.983429 272.421286 
L 514.069072 270.844789 
L 513.154716 174.152993 
L 512.240359 222.498891 
L 511.326003 282.405765 
L 510.411646 259.809313 
L 509.49729 265.5898 
L 508.582933 182.560976 
L 507.668577 228.804878 
L 506.75422 270.31929 
L 505.839864 228.279379 
L 504.925507 219.871397 
L 504.011151 237.21286 
L 503.096794 254.028825 
L 502.182438 262.962306 
L 501.268081 217.769401 
L 500.353725 213.039911 
L 499.439368 236.687361 
L 498.525012 224.600887 
L 497.610655 212.514412 
L 496.696299 265.5898 
L 495.781942 178.882483 
L 494.867586 219.871397 
L 493.953229 232.48337 
L 493.038873 209.886918 
L 492.124516 104.78714 
L 491.21016 246.146341 
L 490.295803 265.064302 
L 489.381446 189.91796 
L 488.46709 188.341463 
L 487.552733 239.840355 
L 486.638377 168.372506 
L 485.72402 67.476718 
L 483.895307 228.279379 
L 482.980951 244.044346 
L 482.066594 204.631929 
L 481.152238 220.396896 
L 480.237881 178.882483 
L 479.323525 160.490022 
L 478.409168 189.392461 
L 477.494812 262.962306 
L 466.522534 198.851441 
L 465.608177 188.866962 
L 464.693821 256.13082 
L 463.779464 288.711752 
L 462.865108 278.201774 
L 461.950751 276.625277 
L 461.036395 273.472284 
L 460.122038 247.197339 
L 459.207682 275.04878 
L 458.293325 285.033259 
L 457.378969 288.186253 
L 456.464612 251.926829 
L 455.550256 196.749446 
L 454.635899 142.62306 
L 453.721543 58.017738 
L 452.807186 161.54102 
L 451.892829 275.04878 
L 450.978473 275.574279 
L 450.064116 281.354767 
L 449.14976 270.844789 
L 448.235403 242.993348 
L 447.321047 272.946785 
L 446.40669 279.778271 
L 445.492334 286.609756 
L 444.577977 287.135255 
L 443.663621 289.237251 
L 442.749264 283.982262 
L 441.834908 274.523282 
L 440.920551 169.949002 
L 440.006195 167.321508 
L 439.091838 201.478936 
L 438.177482 190.443459 
L 437.263125 214.616408 
L 436.348769 279.778271 
L 435.434412 272.421286 
L 434.520056 241.416851 
L 433.605699 284.507761 
L 432.691343 273.997783 
L 431.776986 270.31929 
L 430.86263 254.554324 
L 429.948273 190.968958 
L 429.033917 198.851441 
L 428.11956 247.197339 
L 427.205204 204.631929 
L 426.290847 196.749446 
L 425.376491 180.45898 
L 424.462134 173.627494 
L 423.547778 171.525499 
L 422.633421 185.713969 
L 421.719065 144.725055 
L 420.804708 117.924612 
L 419.890352 171.525499 
L 418.975995 195.172949 
L 418.061639 190.443459 
L 417.147282 162.066519 
L 416.232926 179.933481 
L 415.318569 204.631929 
L 414.404212 149.454545 
L 413.489856 122.128603 
L 412.575499 157.337029 
L 411.661143 209.886918 
L 410.746786 210.937916 
L 409.83243 186.239468 
L 408.918073 207.259424 
L 408.003717 235.110865 
L 407.08936 292.390244 
L 406.175004 287.135255 
L 405.260647 230.906874 
L 404.346291 234.585366 
L 403.431934 288.711752 
L 402.517578 284.507761 
L 401.603221 229.855876 
L 400.688865 282.931264 
L 399.774508 289.762749 
L 398.860152 280.829268 
L 397.945795 262.962306 
L 397.031439 237.738359 
L 396.117082 291.864745 
L 395.202726 284.507761 
L 394.288369 286.609756 
L 393.374013 290.288248 
L 392.459656 213.56541 
L 391.5453 249.299335 
L 390.630943 292.390244 
L 389.716587 276.099778 
L 388.80223 272.421286 
L 387.887874 272.421286 
L 386.973517 287.660754 
L 386.059161 286.084257 
L 385.144804 291.864745 
L 384.230448 287.660754 
L 383.316091 288.186253 
L 382.401735 282.931264 
L 381.487378 291.864745 
L 380.573022 282.405765 
L 379.658665 290.813747 
L 378.744309 235.636364 
L 377.829952 258.758315 
L 376.915595 289.762749 
L 376.001239 230.381375 
L 375.086882 255.079823 
L 374.172526 288.711752 
L 373.258169 279.778271 
L 372.343813 290.288248 
L 371.429456 277.150776 
L 370.5151 256.13082 
L 369.600743 285.558758 
L 368.686387 290.813747 
L 367.77203 286.084257 
L 366.857674 284.507761 
L 365.943317 292.390244 
L 365.028961 279.778271 
L 364.114604 280.829268 
L 363.200248 271.895787 
L 362.285891 276.625277 
L 361.371535 276.099778 
L 360.457178 253.503326 
L 359.542822 275.574279 
L 358.628465 287.135255 
L 357.714109 265.5898 
L 356.799752 268.217295 
L 355.885396 213.039911 
L 354.971039 143.674058 
L 354.056683 189.392461 
L 353.142326 180.45898 
L 352.22797 292.915743 
L 351.313613 268.742794 
L 350.399257 268.217295 
L 349.4849 291.339246 
L 348.570544 291.339246 
L 347.656187 286.084257 
L 346.741831 270.31929 
L 345.827474 259.283814 
L 344.913118 261.385809 
L 343.998761 291.339246 
L 343.084405 291.864745 
L 342.170048 285.033259 
L 341.255691 251.926829 
L 340.341335 290.813747 
L 339.426978 287.660754 
L 338.512622 241.416851 
L 337.598265 261.385809 
L 336.683909 279.778271 
L 335.769552 284.507761 
L 334.855196 280.829268 
L 333.940839 267.691796 
L 333.026483 287.660754 
L 332.112126 271.895787 
L 331.19777 278.727273 
L 330.283413 285.033259 
L 329.369057 285.558758 
L 328.4547 284.507761 
L 327.540344 281.880266 
L 326.625987 222.498891 
L 325.711631 258.232816 
L 324.797274 262.436807 
L 323.882918 282.931264 
L 322.968561 278.201774 
L 322.054205 267.691796 
L 321.139848 279.778271 
L 320.225492 242.993348 
L 319.311135 264.013304 
L 318.396779 277.676275 
L 317.482422 267.166297 
L 316.568066 275.574279 
L 315.653709 280.303769 
L 314.739353 207.784922 
L 313.824996 270.31929 
L 312.91064 278.201774 
L 311.996283 272.421286 
L 311.081927 273.997783 
L 310.16757 268.742794 
L 309.253214 265.5898 
L 308.338857 250.875831 
L 307.424501 224.600887 
L 306.510144 224.600887 
L 305.595788 235.110865 
L 304.681431 276.099778 
L 303.767074 270.31929 
L 302.852718 234.059867 
L 301.938361 186.764967 
L 301.024005 176.780488 
L 300.109648 226.702882 
L 299.195292 267.166297 
L 298.280935 270.844789 
L 297.366579 285.558758 
L 296.452222 229.330377 
L 295.537866 279.778271 
L 294.623509 279.252772 
L 293.709153 252.977827 
L 292.794796 269.793792 
L 291.88044 196.749446 
L 290.966083 222.498891 
L 290.051727 209.361419 
L 289.13737 235.636364 
L 288.223014 254.554324 
L 287.308657 267.691796 
L 286.394301 267.166297 
L 285.479944 277.676275 
L 284.565588 276.099778 
L 283.651231 244.044346 
L 282.736875 195.172949 
L 280.908162 277.150776 
L 279.993805 264.538803 
L 279.079449 247.722838 
L 278.165092 240.891353 
L 277.250736 261.911308 
L 276.336379 268.217295 
L 275.422023 242.467849 
L 274.507666 268.217295 
L 273.59331 247.197339 
L 272.678953 251.926829 
L 271.764597 230.906874 
L 270.85024 233.008869 
L 269.935884 246.67184 
L 269.021527 239.840355 
L 268.107171 203.055432 
L 267.192814 83.241685 
L 266.278457 167.321508 
L 265.364101 166.796009 
L 264.449744 161.54102 
L 263.535388 150.505543 
L 262.621031 260.86031 
L 261.706675 213.56541 
L 260.792318 257.181818 
L 259.877962 272.421286 
L 258.963605 269.268293 
L 258.049249 276.625277 
L 257.134892 268.217295 
L 256.220536 280.829268 
L 255.306179 237.21286 
L 254.391823 267.691796 
L 253.477466 270.31929 
L 252.56311 283.982262 
L 251.648753 227.228381 
L 250.734397 211.988914 
L 249.82004 266.640798 
L 248.905684 191.494457 
L 247.991327 197.800443 
L 247.076971 184.137472 
L 246.162614 199.902439 
L 245.248258 214.090909 
L 244.333901 199.37694 
L 243.419545 157.337029 
L 242.505188 220.396896 
L 241.590832 256.656319 
L 240.676475 280.303769 
L 239.762119 261.911308 
L 238.847762 277.676275 
L 237.933406 262.436807 
L 237.019049 276.625277 
L 236.104693 277.150776 
L 235.190336 267.166297 
L 234.27598 265.5898 
L 233.361623 269.268293 
L 232.447267 239.840355 
L 231.53291 261.385809 
L 230.618554 261.911308 
L 229.704197 255.605322 
L 228.78984 275.04878 
L 227.875484 279.778271 
L 226.961127 265.5898 
L 226.046771 235.110865 
L 225.132414 190.968958 
L 224.218058 242.993348 
L 223.303701 178.356984 
L 222.389345 180.45898 
L 221.474988 269.793792 
L 220.560632 287.135255 
L 219.646275 142.097561 
L 218.731919 124.230599 
L 217.817562 223.02439 
L 216.903206 249.299335 
L 215.988849 277.676275 
L 215.074493 287.660754 
L 214.160136 279.778271 
L 213.24578 202.529933 
L 212.331423 277.150776 
L 211.417067 257.181818 
L 210.50271 265.064302 
L 209.588354 282.931264 
L 208.673997 279.778271 
L 207.759641 278.201774 
L 206.845284 258.758315 
L 205.930928 241.94235 
L 205.016571 285.033259 
L 204.102215 285.558758 
L 203.187858 255.605322 
L 202.273502 192.545455 
L 201.359145 209.361419 
L 199.530432 268.742794 
L 198.616076 237.21286 
L 197.701719 224.075388 
L 196.787363 282.931264 
L 195.873006 271.370288 
L 194.95865 287.135255 
L 194.044293 253.503326 
L 193.129937 292.390244 
L 192.21558 285.558758 
L 191.301223 280.303769 
L 190.386867 282.405765 
L 189.47251 286.084257 
L 188.558154 272.421286 
L 187.643797 282.405765 
L 186.729441 277.676275 
L 185.815084 256.13082 
L 184.900728 286.084257 
L 183.986371 279.252772 
L 183.072015 236.687361 
L 182.157658 232.48337 
L 181.243302 286.609756 
L 180.328945 255.605322 
L 179.414589 254.028825 
L 178.500232 234.585366 
L 177.585876 255.079823 
L 176.671519 282.931264 
L 175.757163 286.084257 
L 174.842806 286.609756 
L 173.92845 266.640798 
L 173.014093 288.186253 
L 172.099737 194.121951 
L 171.18538 41.727273 
L 170.271024 128.43459 
L 169.356667 74.308204 
L 168.442311 84.818182 
L 167.527954 160.490022 
L 166.613598 115.822616 
L 165.699241 244.044346 
L 164.784885 271.895787 
L 163.870528 293.441242 
L 162.956172 229.330377 
L 162.041815 192.019956 
L 161.127459 189.392461 
L 160.213102 194.121951 
L 159.298746 185.713969 
L 158.384389 210.937916 
L 157.470033 211.463415 
L 156.555676 210.937916 
L 155.641319 240.891353 
L 154.726963 288.186253 
L 153.812606 279.252772 
L 152.89825 286.084257 
L 151.983893 276.625277 
L 151.069537 270.844789 
L 150.15518 269.268293 
L 149.240824 250.350333 
L 148.326467 282.405765 
L 147.412111 280.829268 
L 146.497754 255.079823 
L 145.583398 271.370288 
L 144.669041 257.181818 
L 143.754685 242.993348 
L 142.840328 269.793792 
L 141.925972 236.161863 
L 141.011615 261.911308 
L 140.097259 159.439024 
L 139.182902 96.379157 
L 138.268546 186.764967 
L 137.354189 187.290466 
L 136.439833 190.968958 
L 135.525476 196.223947 
L 134.61112 166.27051 
L 133.696763 190.968958 
L 132.782407 169.423503 
L 131.86805 183.086475 
L 130.953694 182.560976 
L 130.039337 192.545455 
L 129.124981 182.560976 
L 128.210624 228.804878 
L 127.296268 278.201774 
L 126.381911 194.121951 
L 125.467555 189.91796 
L 124.553198 177.831486 
L 123.638842 179.407982 
L 122.724485 203.055432 
L 121.810129 204.631929 
L 120.895772 128.960089 
L 119.981416 155.235033 
L 119.067059 66.95122 
L 118.152702 100.583149 
L 117.238346 119.501109 
L 116.323989 143.674058 
L 115.409633 203.055432 
L 114.495276 200.953437 
L 113.58092 209.886918 
L 112.666563 265.064302 
L 111.752207 283.982262 
L 110.83785 283.456763 
L 109.923494 188.866962 
L 109.009137 115.822616 
L 108.094781 139.995565 
L 107.180424 140.521064 
L 106.266068 197.274945 
L 105.351711 205.157428 
L 104.437355 204.631929 
L 103.522998 140.521064 
L 102.608642 208.310421 
L 101.694285 265.5898 
L 100.779929 238.263858 
L 99.865572 255.605322 
L 98.951216 285.558758 
L 96.208146 284.507761 
L 95.29379 197.274945 
L 94.379433 228.804878 
L 93.465077 262.962306 
L 92.55072 280.303769 
L 91.636364 275.04878 
z
" style="fill:#ffa07a;fill-opacity:0.3;"/>
   </g>
   <g id="matplotlib.axis_1">
    <g id="xtick_1">
     <g id="line2d_1">
      <path clip-path="url(#p3bfef1b7f9)" d="M 91.636364 313.2 
L 91.636364 28.8 
" style="fill:none;stroke:#808080;stroke-dasharray:6.4,1.6,1,1.6;stroke-dashoffset:0;stroke-opacity:0.3;"/>
     </g>
     <g id="line2d_2">
      <defs>
       <path d="M 0 0 
L 0 3.5 
" id="me82a2cb109" style="stroke:#000000;stroke-width:0.8;"/>
      </defs>
      <g>
       <use style="stroke:#000000;stroke-width:0.8;" x="91.636364" xlink:href="#me82a2cb109" y="313.2"/>
      </g>
     </g>
     <g id="text_1">
      <!-- 2020-11-20 -->
      <g transform="translate(62.578551 327.798437)scale(0.1 -0.1)">
       <defs>
        <path d="M 19.1875 8.296875 
L 53.609375 8.296875 
L 53.609375 0 
L 7.328125 0 
L 7.328125 8.296875 
Q 12.9375 14.109375 22.625 23.890625 
Q 32.328125 33.6875 34.8125 36.53125 
Q 39.546875 41.84375 41.421875 45.53125 
Q 43.3125 49.21875 43.3125 52.78125 
Q 43.3125 58.59375 39.234375 62.25 
Q 35.15625 65.921875 28.609375 65.921875 
Q 23.96875 65.921875 18.8125 64.3125 
Q 13.671875 62.703125 7.8125 59.421875 
L 7.8125 69.390625 
Q 13.765625 71.78125 18.9375 73 
Q 24.125 74.21875 28.421875 74.21875 
Q 39.75 74.21875 46.484375 68.546875 
Q 53.21875 62.890625 53.21875 53.421875 
Q 53.21875 48.921875 51.53125 44.890625 
Q 49.859375 40.875 45.40625 35.40625 
Q 44.1875 33.984375 37.640625 27.21875 
Q 31.109375 20.453125 19.1875 8.296875 
z
" id="DejaVuSans-50"/>
        <path d="M 31.78125 66.40625 
Q 24.171875 66.40625 20.328125 58.90625 
Q 16.5 51.421875 16.5 36.375 
Q 16.5 21.390625 20.328125 13.890625 
Q 24.171875 6.390625 31.78125 6.390625 
Q 39.453125 6.390625 43.28125 13.890625 
Q 47.125 21.390625 47.125 36.375 
Q 47.125 51.421875 43.28125 58.90625 
Q 39.453125 66.40625 31.78125 66.40625 
z
M 31.78125 74.21875 
Q 44.046875 74.21875 50.515625 64.515625 
Q 56.984375 54.828125 56.984375 36.375 
Q 56.984375 17.96875 50.515625 8.265625 
Q 44.046875 -1.421875 31.78125 -1.421875 
Q 19.53125 -1.421875 13.0625 8.265625 
Q 6.59375 17.96875 6.59375 36.375 
Q 6.59375 54.828125 13.0625 64.515625 
Q 19.53125 74.21875 31.78125 74.21875 
z
" id="DejaVuSans-48"/>
        <path d="M 4.890625 31.390625 
L 31.203125 31.390625 
L 31.203125 23.390625 
L 4.890625 23.390625 
z
" id="DejaVuSans-45"/>
        <path d="M 12.40625 8.296875 
L 28.515625 8.296875 
L 28.515625 63.921875 
L 10.984375 60.40625 
L 10.984375 69.390625 
L 28.421875 72.90625 
L 38.28125 72.90625 
L 38.28125 8.296875 
L 54.390625 8.296875 
L 54.390625 0 
L 12.40625 0 
z
" id="DejaVuSans-49"/>
       </defs>
       <use xlink:href="#DejaVuSans-50"/>
       <use x="63.623047" xlink:href="#DejaVuSans-48"/>
       <use x="127.246094" xlink:href="#DejaVuSans-50"/>
       <use x="190.869141" xlink:href="#DejaVuSans-48"/>
       <use x="254.492188" xlink:href="#DejaVuSans-45"/>
       <use x="290.576172" xlink:href="#DejaVuSans-49"/>
       <use x="354.199219" xlink:href="#DejaVuSans-49"/>
       <use x="417.822266" xlink:href="#DejaVuSans-45"/>
       <use x="453.90625" xlink:href="#DejaVuSans-50"/>
       <use x="517.529297" xlink:href="#DejaVuSans-48"/>
      </g>
     </g>
    </g>
    <g id="xtick_2">
     <g id="line2d_3">
      <path clip-path="url(#p3bfef1b7f9)" d="M 167.527954 313.2 
L 167.527954 28.8 
" style="fill:none;stroke:#808080;stroke-dasharray:6.4,1.6,1,1.6;stroke-dashoffset:0;stroke-opacity:0.3;"/>
     </g>
     <g id="line2d_4">
      <g>
       <use style="stroke:#000000;stroke-width:0.8;" x="167.527954" xlink:href="#me82a2cb109" y="313.2"/>
      </g>
     </g>
     <g id="text_2">
      <!-- 2021-02-11 -->
      <g transform="translate(138.470142 327.798437)scale(0.1 -0.1)">
       <use xlink:href="#DejaVuSans-50"/>
       <use x="63.623047" xlink:href="#DejaVuSans-48"/>
       <use x="127.246094" xlink:href="#DejaVuSans-50"/>
       <use x="190.869141" xlink:href="#DejaVuSans-49"/>
       <use x="254.492188" xlink:href="#DejaVuSans-45"/>
       <use x="290.576172" xlink:href="#DejaVuSans-48"/>
       <use x="354.199219" xlink:href="#DejaVuSans-50"/>
       <use x="417.822266" xlink:href="#DejaVuSans-45"/>
       <use x="453.90625" xlink:href="#DejaVuSans-49"/>
       <use x="517.529297" xlink:href="#DejaVuSans-49"/>
      </g>
     </g>
    </g>
    <g id="xtick_3">
     <g id="line2d_5">
      <path clip-path="url(#p3bfef1b7f9)" d="M 244.333901 313.2 
L 244.333901 28.8 
" style="fill:none;stroke:#808080;stroke-dasharray:6.4,1.6,1,1.6;stroke-dashoffset:0;stroke-opacity:0.3;"/>
     </g>
     <g id="line2d_6">
      <g>
       <use style="stroke:#000000;stroke-width:0.8;" x="244.333901" xlink:href="#me82a2cb109" y="313.2"/>
      </g>
     </g>
     <g id="text_3">
      <!-- 2021-05-06 -->
      <g transform="translate(215.276089 327.798437)scale(0.1 -0.1)">
       <defs>
        <path d="M 10.796875 72.90625 
L 49.515625 72.90625 
L 49.515625 64.59375 
L 19.828125 64.59375 
L 19.828125 46.734375 
Q 21.96875 47.46875 24.109375 47.828125 
Q 26.265625 48.1875 28.421875 48.1875 
Q 40.625 48.1875 47.75 41.5 
Q 54.890625 34.8125 54.890625 23.390625 
Q 54.890625 11.625 47.5625 5.09375 
Q 40.234375 -1.421875 26.90625 -1.421875 
Q 22.3125 -1.421875 17.546875 -0.640625 
Q 12.796875 0.140625 7.71875 1.703125 
L 7.71875 11.625 
Q 12.109375 9.234375 16.796875 8.0625 
Q 21.484375 6.890625 26.703125 6.890625 
Q 35.15625 6.890625 40.078125 11.328125 
Q 45.015625 15.765625 45.015625 23.390625 
Q 45.015625 31 40.078125 35.4375 
Q 35.15625 39.890625 26.703125 39.890625 
Q 22.75 39.890625 18.8125 39.015625 
Q 14.890625 38.140625 10.796875 36.28125 
z
" id="DejaVuSans-53"/>
        <path d="M 33.015625 40.375 
Q 26.375 40.375 22.484375 35.828125 
Q 18.609375 31.296875 18.609375 23.390625 
Q 18.609375 15.53125 22.484375 10.953125 
Q 26.375 6.390625 33.015625 6.390625 
Q 39.65625 6.390625 43.53125 10.953125 
Q 47.40625 15.53125 47.40625 23.390625 
Q 47.40625 31.296875 43.53125 35.828125 
Q 39.65625 40.375 33.015625 40.375 
z
M 52.59375 71.296875 
L 52.59375 62.3125 
Q 48.875 64.0625 45.09375 64.984375 
Q 41.3125 65.921875 37.59375 65.921875 
Q 27.828125 65.921875 22.671875 59.328125 
Q 17.53125 52.734375 16.796875 39.40625 
Q 19.671875 43.65625 24.015625 45.921875 
Q 28.375 48.1875 33.59375 48.1875 
Q 44.578125 48.1875 50.953125 41.515625 
Q 57.328125 34.859375 57.328125 23.390625 
Q 57.328125 12.15625 50.6875 5.359375 
Q 44.046875 -1.421875 33.015625 -1.421875 
Q 20.359375 -1.421875 13.671875 8.265625 
Q 6.984375 17.96875 6.984375 36.375 
Q 6.984375 53.65625 15.1875 63.9375 
Q 23.390625 74.21875 37.203125 74.21875 
Q 40.921875 74.21875 44.703125 73.484375 
Q 48.484375 72.75 52.59375 71.296875 
z
" id="DejaVuSans-54"/>
       </defs>
       <use xlink:href="#DejaVuSans-50"/>
       <use x="63.623047" xlink:href="#DejaVuSans-48"/>
       <use x="127.246094" xlink:href="#DejaVuSans-50"/>
       <use x="190.869141" xlink:href="#DejaVuSans-49"/>
       <use x="254.492188" xlink:href="#DejaVuSans-45"/>
       <use x="290.576172" xlink:href="#DejaVuSans-48"/>
       <use x="354.199219" xlink:href="#DejaVuSans-53"/>
       <use x="417.822266" xlink:href="#DejaVuSans-45"/>
       <use x="453.90625" xlink:href="#DejaVuSans-48"/>
       <use x="517.529297" xlink:href="#DejaVuSans-54"/>
      </g>
     </g>
    </g>
    <g id="xtick_4">
     <g id="line2d_7">
      <path clip-path="url(#p3bfef1b7f9)" d="M 321.139848 313.2 
L 321.139848 28.8 
" style="fill:none;stroke:#808080;stroke-dasharray:6.4,1.6,1,1.6;stroke-dashoffset:0;stroke-opacity:0.3;"/>
     </g>
     <g id="line2d_8">
      <g>
       <use style="stroke:#000000;stroke-width:0.8;" x="321.139848" xlink:href="#me82a2cb109" y="313.2"/>
      </g>
     </g>
     <g id="text_4">
      <!-- 2021-07-29 -->
      <g transform="translate(292.082036 327.798437)scale(0.1 -0.1)">
       <defs>
        <path d="M 8.203125 72.90625 
L 55.078125 72.90625 
L 55.078125 68.703125 
L 28.609375 0 
L 18.3125 0 
L 43.21875 64.59375 
L 8.203125 64.59375 
z
" id="DejaVuSans-55"/>
        <path d="M 10.984375 1.515625 
L 10.984375 10.5 
Q 14.703125 8.734375 18.5 7.8125 
Q 22.3125 6.890625 25.984375 6.890625 
Q 35.75 6.890625 40.890625 13.453125 
Q 46.046875 20.015625 46.78125 33.40625 
Q 43.953125 29.203125 39.59375 26.953125 
Q 35.25 24.703125 29.984375 24.703125 
Q 19.046875 24.703125 12.671875 31.3125 
Q 6.296875 37.9375 6.296875 49.421875 
Q 6.296875 60.640625 12.9375 67.421875 
Q 19.578125 74.21875 30.609375 74.21875 
Q 43.265625 74.21875 49.921875 64.515625 
Q 56.59375 54.828125 56.59375 36.375 
Q 56.59375 19.140625 48.40625 8.859375 
Q 40.234375 -1.421875 26.421875 -1.421875 
Q 22.703125 -1.421875 18.890625 -0.6875 
Q 15.09375 0.046875 10.984375 1.515625 
z
M 30.609375 32.421875 
Q 37.25 32.421875 41.125 36.953125 
Q 45.015625 41.5 45.015625 49.421875 
Q 45.015625 57.28125 41.125 61.84375 
Q 37.25 66.40625 30.609375 66.40625 
Q 23.96875 66.40625 20.09375 61.84375 
Q 16.21875 57.28125 16.21875 49.421875 
Q 16.21875 41.5 20.09375 36.953125 
Q 23.96875 32.421875 30.609375 32.421875 
z
" id="DejaVuSans-57"/>
       </defs>
       <use xlink:href="#DejaVuSans-50"/>
       <use x="63.623047" xlink:href="#DejaVuSans-48"/>
       <use x="127.246094" xlink:href="#DejaVuSans-50"/>
       <use x="190.869141" xlink:href="#DejaVuSans-49"/>
       <use x="254.492188" xlink:href="#DejaVuSans-45"/>
       <use x="290.576172" xlink:href="#DejaVuSans-48"/>
       <use x="354.199219" xlink:href="#DejaVuSans-55"/>
       <use x="417.822266" xlink:href="#DejaVuSans-45"/>
       <use x="453.90625" xlink:href="#DejaVuSans-50"/>
       <use x="517.529297" xlink:href="#DejaVuSans-57"/>
      </g>
     </g>
    </g>
    <g id="xtick_5">
     <g id="line2d_9">
      <path clip-path="url(#p3bfef1b7f9)" d="M 397.945795 313.2 
L 397.945795 28.8 
" style="fill:none;stroke:#808080;stroke-dasharray:6.4,1.6,1,1.6;stroke-dashoffset:0;stroke-opacity:0.3;"/>
     </g>
     <g id="line2d_10">
      <g>
       <use style="stroke:#000000;stroke-width:0.8;" x="397.945795" xlink:href="#me82a2cb109" y="313.2"/>
      </g>
     </g>
     <g id="text_5">
      <!-- 2021-10-21 -->
      <g transform="translate(368.887983 327.798437)scale(0.1 -0.1)">
       <use xlink:href="#DejaVuSans-50"/>
       <use x="63.623047" xlink:href="#DejaVuSans-48"/>
       <use x="127.246094" xlink:href="#DejaVuSans-50"/>
       <use x="190.869141" xlink:href="#DejaVuSans-49"/>
       <use x="254.492188" xlink:href="#DejaVuSans-45"/>
       <use x="290.576172" xlink:href="#DejaVuSans-49"/>
       <use x="354.199219" xlink:href="#DejaVuSans-48"/>
       <use x="417.822266" xlink:href="#DejaVuSans-45"/>
       <use x="453.90625" xlink:href="#DejaVuSans-50"/>
       <use x="517.529297" xlink:href="#DejaVuSans-49"/>
      </g>
     </g>
    </g>
    <g id="xtick_6">
     <g id="line2d_11">
      <path clip-path="url(#p3bfef1b7f9)" d="M 474.751742 313.2 
L 474.751742 28.8 
" style="fill:none;stroke:#808080;stroke-dasharray:6.4,1.6,1,1.6;stroke-dashoffset:0;stroke-opacity:0.3;"/>
     </g>
     <g id="line2d_12">
      <g>
       <use style="stroke:#000000;stroke-width:0.8;" x="474.751742" xlink:href="#me82a2cb109" y="313.2"/>
      </g>
     </g>
     <g id="text_6">
      <!-- 2022-01-13 -->
      <g transform="translate(445.69393 327.798437)scale(0.1 -0.1)">
       <defs>
        <path d="M 40.578125 39.3125 
Q 47.65625 37.796875 51.625 33 
Q 55.609375 28.21875 55.609375 21.1875 
Q 55.609375 10.40625 48.1875 4.484375 
Q 40.765625 -1.421875 27.09375 -1.421875 
Q 22.515625 -1.421875 17.65625 -0.515625 
Q 12.796875 0.390625 7.625 2.203125 
L 7.625 11.71875 
Q 11.71875 9.328125 16.59375 8.109375 
Q 21.484375 6.890625 26.8125 6.890625 
Q 36.078125 6.890625 40.9375 10.546875 
Q 45.796875 14.203125 45.796875 21.1875 
Q 45.796875 27.640625 41.28125 31.265625 
Q 36.765625 34.90625 28.71875 34.90625 
L 20.21875 34.90625 
L 20.21875 43.015625 
L 29.109375 43.015625 
Q 36.375 43.015625 40.234375 45.921875 
Q 44.09375 48.828125 44.09375 54.296875 
Q 44.09375 59.90625 40.109375 62.90625 
Q 36.140625 65.921875 28.71875 65.921875 
Q 24.65625 65.921875 20.015625 65.03125 
Q 15.375 64.15625 9.8125 62.3125 
L 9.8125 71.09375 
Q 15.4375 72.65625 20.34375 73.4375 
Q 25.25 74.21875 29.59375 74.21875 
Q 40.828125 74.21875 47.359375 69.109375 
Q 53.90625 64.015625 53.90625 55.328125 
Q 53.90625 49.265625 50.4375 45.09375 
Q 46.96875 40.921875 40.578125 39.3125 
z
" id="DejaVuSans-51"/>
       </defs>
       <use xlink:href="#DejaVuSans-50"/>
       <use x="63.623047" xlink:href="#DejaVuSans-48"/>
       <use x="127.246094" xlink:href="#DejaVuSans-50"/>
       <use x="190.869141" xlink:href="#DejaVuSans-50"/>
       <use x="254.492188" xlink:href="#DejaVuSans-45"/>
       <use x="290.576172" xlink:href="#DejaVuSans-48"/>
       <use x="354.199219" xlink:href="#DejaVuSans-49"/>
       <use x="417.822266" xlink:href="#DejaVuSans-45"/>
       <use x="453.90625" xlink:href="#DejaVuSans-49"/>
       <use x="517.529297" xlink:href="#DejaVuSans-51"/>
      </g>
     </g>
    </g>
    <g id="xtick_7">
     <g id="line2d_13">
      <path clip-path="url(#p3bfef1b7f9)" d="M 551.557689 313.2 
L 551.557689 28.8 
" style="fill:none;stroke:#808080;stroke-dasharray:6.4,1.6,1,1.6;stroke-dashoffset:0;stroke-opacity:0.3;"/>
     </g>
     <g id="line2d_14">
      <g>
       <use style="stroke:#000000;stroke-width:0.8;" x="551.557689" xlink:href="#me82a2cb109" y="313.2"/>
      </g>
     </g>
     <g id="text_7">
      <!-- 2022-04-07 -->
      <g transform="translate(522.499877 327.798437)scale(0.1 -0.1)">
       <defs>
        <path d="M 37.796875 64.3125 
L 12.890625 25.390625 
L 37.796875 25.390625 
z
M 35.203125 72.90625 
L 47.609375 72.90625 
L 47.609375 25.390625 
L 58.015625 25.390625 
L 58.015625 17.1875 
L 47.609375 17.1875 
L 47.609375 0 
L 37.796875 0 
L 37.796875 17.1875 
L 4.890625 17.1875 
L 4.890625 26.703125 
z
" id="DejaVuSans-52"/>
       </defs>
       <use xlink:href="#DejaVuSans-50"/>
       <use x="63.623047" xlink:href="#DejaVuSans-48"/>
       <use x="127.246094" xlink:href="#DejaVuSans-50"/>
       <use x="190.869141" xlink:href="#DejaVuSans-50"/>
       <use x="254.492188" xlink:href="#DejaVuSans-45"/>
       <use x="290.576172" xlink:href="#DejaVuSans-48"/>
       <use x="354.199219" xlink:href="#DejaVuSans-52"/>
       <use x="417.822266" xlink:href="#DejaVuSans-45"/>
       <use x="453.90625" xlink:href="#DejaVuSans-48"/>
       <use x="517.529297" xlink:href="#DejaVuSans-55"/>
      </g>
     </g>
    </g>
    <g id="xtick_8">
     <g id="line2d_15">
      <path clip-path="url(#p3bfef1b7f9)" d="M 628.363636 313.2 
L 628.363636 28.8 
" style="fill:none;stroke:#808080;stroke-dasharray:6.4,1.6,1,1.6;stroke-dashoffset:0;stroke-opacity:0.3;"/>
     </g>
     <g id="line2d_16">
      <g>
       <use style="stroke:#000000;stroke-width:0.8;" x="628.363636" xlink:href="#me82a2cb109" y="313.2"/>
      </g>
     </g>
     <g id="text_8">
      <!-- 2022-06-30 -->
      <g transform="translate(599.305824 327.798437)scale(0.1 -0.1)">
       <use xlink:href="#DejaVuSans-50"/>
       <use x="63.623047" xlink:href="#DejaVuSans-48"/>
       <use x="127.246094" xlink:href="#DejaVuSans-50"/>
       <use x="190.869141" xlink:href="#DejaVuSans-50"/>
       <use x="254.492188" xlink:href="#DejaVuSans-45"/>
       <use x="290.576172" xlink:href="#DejaVuSans-48"/>
       <use x="354.199219" xlink:href="#DejaVuSans-54"/>
       <use x="417.822266" xlink:href="#DejaVuSans-45"/>
       <use x="453.90625" xlink:href="#DejaVuSans-51"/>
       <use x="517.529297" xlink:href="#DejaVuSans-48"/>
      </g>
     </g>
    </g>
    <g id="text_9">
     <!-- Datum -->
     <g transform="translate(343.086719 341.476562)scale(0.1 -0.1)">
      <defs>
       <path d="M 19.671875 64.796875 
L 19.671875 8.109375 
L 31.59375 8.109375 
Q 46.6875 8.109375 53.6875 14.9375 
Q 60.6875 21.78125 60.6875 36.53125 
Q 60.6875 51.171875 53.6875 57.984375 
Q 46.6875 64.796875 31.59375 64.796875 
z
M 9.8125 72.90625 
L 30.078125 72.90625 
Q 51.265625 72.90625 61.171875 64.09375 
Q 71.09375 55.28125 71.09375 36.53125 
Q 71.09375 17.671875 61.125 8.828125 
Q 51.171875 0 30.078125 0 
L 9.8125 0 
z
" id="DejaVuSans-68"/>
       <path d="M 34.28125 27.484375 
Q 23.390625 27.484375 19.1875 25 
Q 14.984375 22.515625 14.984375 16.5 
Q 14.984375 11.71875 18.140625 8.90625 
Q 21.296875 6.109375 26.703125 6.109375 
Q 34.1875 6.109375 38.703125 11.40625 
Q 43.21875 16.703125 43.21875 25.484375 
L 43.21875 27.484375 
z
M 52.203125 31.203125 
L 52.203125 0 
L 43.21875 0 
L 43.21875 8.296875 
Q 40.140625 3.328125 35.546875 0.953125 
Q 30.953125 -1.421875 24.3125 -1.421875 
Q 15.921875 -1.421875 10.953125 3.296875 
Q 6 8.015625 6 15.921875 
Q 6 25.140625 12.171875 29.828125 
Q 18.359375 34.515625 30.609375 34.515625 
L 43.21875 34.515625 
L 43.21875 35.40625 
Q 43.21875 41.609375 39.140625 45 
Q 35.0625 48.390625 27.6875 48.390625 
Q 23 48.390625 18.546875 47.265625 
Q 14.109375 46.140625 10.015625 43.890625 
L 10.015625 52.203125 
Q 14.9375 54.109375 19.578125 55.046875 
Q 24.21875 56 28.609375 56 
Q 40.484375 56 46.34375 49.84375 
Q 52.203125 43.703125 52.203125 31.203125 
z
" id="DejaVuSans-97"/>
       <path d="M 18.3125 70.21875 
L 18.3125 54.6875 
L 36.8125 54.6875 
L 36.8125 47.703125 
L 18.3125 47.703125 
L 18.3125 18.015625 
Q 18.3125 11.328125 20.140625 9.421875 
Q 21.96875 7.515625 27.59375 7.515625 
L 36.8125 7.515625 
L 36.8125 0 
L 27.59375 0 
Q 17.1875 0 13.234375 3.875 
Q 9.28125 7.765625 9.28125 18.015625 
L 9.28125 47.703125 
L 2.6875 47.703125 
L 2.6875 54.6875 
L 9.28125 54.6875 
L 9.28125 70.21875 
z
" id="DejaVuSans-116"/>
       <path d="M 8.5 21.578125 
L 8.5 54.6875 
L 17.484375 54.6875 
L 17.484375 21.921875 
Q 17.484375 14.15625 20.5 10.265625 
Q 23.53125 6.390625 29.59375 6.390625 
Q 36.859375 6.390625 41.078125 11.03125 
Q 45.3125 15.671875 45.3125 23.6875 
L 45.3125 54.6875 
L 54.296875 54.6875 
L 54.296875 0 
L 45.3125 0 
L 45.3125 8.40625 
Q 42.046875 3.421875 37.71875 1 
Q 33.40625 -1.421875 27.6875 -1.421875 
Q 18.265625 -1.421875 13.375 4.4375 
Q 8.5 10.296875 8.5 21.578125 
z
M 31.109375 56 
z
" id="DejaVuSans-117"/>
       <path d="M 52 44.1875 
Q 55.375 50.25 60.0625 53.125 
Q 64.75 56 71.09375 56 
Q 79.640625 56 84.28125 50.015625 
Q 88.921875 44.046875 88.921875 33.015625 
L 88.921875 0 
L 79.890625 0 
L 79.890625 32.71875 
Q 79.890625 40.578125 77.09375 44.375 
Q 74.3125 48.1875 68.609375 48.1875 
Q 61.625 48.1875 57.5625 43.546875 
Q 53.515625 38.921875 53.515625 30.90625 
L 53.515625 0 
L 44.484375 0 
L 44.484375 32.71875 
Q 44.484375 40.625 41.703125 44.40625 
Q 38.921875 48.1875 33.109375 48.1875 
Q 26.21875 48.1875 22.15625 43.53125 
Q 18.109375 38.875 18.109375 30.90625 
L 18.109375 0 
L 9.078125 0 
L 9.078125 54.6875 
L 18.109375 54.6875 
L 18.109375 46.1875 
Q 21.1875 51.21875 25.484375 53.609375 
Q 29.78125 56 35.6875 56 
Q 41.65625 56 45.828125 52.96875 
Q 50 49.953125 52 44.1875 
z
" id="DejaVuSans-109"/>
      </defs>
      <use xlink:href="#DejaVuSans-68"/>
      <use x="77.001953" xlink:href="#DejaVuSans-97"/>
      <use x="138.28125" xlink:href="#DejaVuSans-116"/>
      <use x="177.490234" xlink:href="#DejaVuSans-117"/>
      <use x="240.869141" xlink:href="#DejaVuSans-109"/>
     </g>
    </g>
   </g>
   <g id="matplotlib.axis_2">
    <g id="ytick_1">
     <g id="line2d_17">
      <path clip-path="url(#p3bfef1b7f9)" d="M 64.8 300.272727 
L 655.2 300.272727 
" style="fill:none;stroke:#808080;stroke-dasharray:6.4,1.6,1,1.6;stroke-dashoffset:0;stroke-opacity:0.3;"/>
     </g>
     <g id="line2d_18">
      <defs>
       <path d="M 0 0 
L -3.5 0 
" id="m93c6acd49f" style="stroke:#000000;stroke-width:0.8;"/>
      </defs>
      <g>
       <use style="stroke:#000000;stroke-width:0.8;" x="64.8" xlink:href="#m93c6acd49f" y="300.272727"/>
      </g>
     </g>
     <g id="text_10">
      <!-- 0 -->
      <g transform="translate(51.4375 304.071946)scale(0.1 -0.1)">
       <use xlink:href="#DejaVuSans-48"/>
      </g>
     </g>
    </g>
    <g id="ytick_2">
     <g id="line2d_19">
      <path clip-path="url(#p3bfef1b7f9)" d="M 64.8 237.21286 
L 655.2 237.21286 
" style="fill:none;stroke:#808080;stroke-dasharray:6.4,1.6,1,1.6;stroke-dashoffset:0;stroke-opacity:0.3;"/>
     </g>
     <g id="line2d_20">
      <g>
       <use style="stroke:#000000;stroke-width:0.8;" x="64.8" xlink:href="#m93c6acd49f" y="237.21286"/>
      </g>
     </g>
     <g id="text_11">
      <!-- 5 -->
      <g transform="translate(51.4375 241.012079)scale(0.1 -0.1)">
       <use xlink:href="#DejaVuSans-53"/>
      </g>
     </g>
    </g>
    <g id="ytick_3">
     <g id="line2d_21">
      <path clip-path="url(#p3bfef1b7f9)" d="M 64.8 174.152993 
L 655.2 174.152993 
" style="fill:none;stroke:#808080;stroke-dasharray:6.4,1.6,1,1.6;stroke-dashoffset:0;stroke-opacity:0.3;"/>
     </g>
     <g id="line2d_22">
      <g>
       <use style="stroke:#000000;stroke-width:0.8;" x="64.8" xlink:href="#m93c6acd49f" y="174.152993"/>
      </g>
     </g>
     <g id="text_12">
      <!-- 10 -->
      <g transform="translate(45.075 177.952212)scale(0.1 -0.1)">
       <use xlink:href="#DejaVuSans-49"/>
       <use x="63.623047" xlink:href="#DejaVuSans-48"/>
      </g>
     </g>
    </g>
    <g id="ytick_4">
     <g id="line2d_23">
      <path clip-path="url(#p3bfef1b7f9)" d="M 64.8 111.093126 
L 655.2 111.093126 
" style="fill:none;stroke:#808080;stroke-dasharray:6.4,1.6,1,1.6;stroke-dashoffset:0;stroke-opacity:0.3;"/>
     </g>
     <g id="line2d_24">
      <g>
       <use style="stroke:#000000;stroke-width:0.8;" x="64.8" xlink:href="#m93c6acd49f" y="111.093126"/>
      </g>
     </g>
     <g id="text_13">
      <!-- 15 -->
      <g transform="translate(45.075 114.892345)scale(0.1 -0.1)">
       <use xlink:href="#DejaVuSans-49"/>
       <use x="63.623047" xlink:href="#DejaVuSans-53"/>
      </g>
     </g>
    </g>
    <g id="ytick_5">
     <g id="line2d_25">
      <path clip-path="url(#p3bfef1b7f9)" d="M 64.8 48.033259 
L 655.2 48.033259 
" style="fill:none;stroke:#808080;stroke-dasharray:6.4,1.6,1,1.6;stroke-dashoffset:0;stroke-opacity:0.3;"/>
     </g>
     <g id="line2d_26">
      <g>
       <use style="stroke:#000000;stroke-width:0.8;" x="64.8" xlink:href="#m93c6acd49f" y="48.033259"/>
      </g>
     </g>
     <g id="text_14">
      <!-- 20 -->
      <g transform="translate(45.075 51.832478)scale(0.1 -0.1)">
       <use xlink:href="#DejaVuSans-50"/>
       <use x="63.623047" xlink:href="#DejaVuSans-48"/>
      </g>
     </g>
    </g>
   </g>
   <g id="line2d_27">
    <path clip-path="url(#p3bfef1b7f9)" d="M 91.636364 280.090993 
L 96.208146 246.739249 
L 98.951216 240.0689 
L 100.779929 228.336238 
L 102.608642 218.748215 
L 103.522998 214.491807 
L 108.094781 197.940369 
L 109.009137 195.418596 
L 109.923494 193.456527 
L 110.83785 192.153662 
L 111.752207 190.387489 
L 112.666563 187.834621 
L 114.495276 181.590824 
L 116.323989 175.639316 
L 117.238346 173.565305 
L 118.152702 172.371272 
L 119.067059 172.293536 
L 120.895772 174.451502 
L 123.638842 178.195293 
L 124.553198 180.275522 
L 127.296268 188.500046 
L 128.210624 189.753159 
L 130.953694 190.676669 
L 131.86805 190.658012 
L 132.782407 190.829032 
L 133.696763 191.279904 
L 134.61112 192.287369 
L 135.525476 194.037996 
L 136.439833 196.189743 
L 137.354189 198.804799 
L 138.268546 201.808539 
L 139.182902 205.343996 
L 140.097259 210.987667 
L 142.840328 230.574161 
L 144.669041 242.228421 
L 145.583398 247.07918 
L 146.497754 251.099713 
L 147.412111 254.333552 
L 148.326467 256.503956 
L 149.240824 257.610924 
L 150.15518 257.984059 
L 151.069537 257.411918 
L 151.983893 255.561789 
L 153.812606 250.446726 
L 154.726963 247.312389 
L 156.555676 238.322938 
L 158.384389 227.46781 
L 161.127459 209.76254 
L 162.041815 205.057925 
L 162.956172 201.251945 
L 166.613598 188.509374 
L 167.527954 187.290466 
L 168.442311 187.100789 
L 169.356667 188.667957 
L 170.271024 192.302917 
L 171.18538 197.041735 
L 174.842806 223.83285 
L 179.414589 252.132054 
L 180.328945 257.082315 
L 181.243302 261.199242 
L 182.157658 264.09415 
L 183.072015 266.497763 
L 183.986371 268.046275 
L 186.729441 270.90076 
L 188.558154 272.197405 
L 189.47251 272.505241 
L 190.386867 272.076136 
L 192.21558 270.210459 
L 193.129937 269.035083 
L 194.95865 265.925622 
L 197.701719 260.278841 
L 198.616076 258.873365 
L 199.530432 257.825477 
L 201.359145 256.908186 
L 202.273502 256.323607 
L 203.187858 256.808683 
L 205.016571 258.397617 
L 205.930928 258.944883 
L 206.845284 259.678715 
L 207.759641 259.585431 
L 210.50271 256.957937 
L 211.417067 255.285047 
L 213.24578 250.518243 
L 214.160136 247.980923 
L 215.988849 241.025059 
L 217.817562 234.230887 
L 218.731919 231.320432 
L 219.646275 230.020677 
L 220.560632 230.232121 
L 222.389345 230.082866 
L 223.303701 231.049909 
L 224.218058 233.008869 
L 225.132414 235.372059 
L 226.046771 238.3105 
L 230.618554 255.157559 
L 231.53291 257.237788 
L 233.361623 258.795628 
L 234.27598 259.271376 
L 235.190336 258.854708 
L 236.104693 257.421247 
L 237.019049 255.316142 
L 238.847762 248.947966 
L 243.419545 230.633241 
L 244.333901 228.500151 
L 245.248258 227.088456 
L 246.162614 226.323528 
L 247.076971 226.401265 
L 247.991327 227.474029 
L 248.905684 229.457865 
L 252.56311 241.053045 
L 253.477466 243.2732 
L 254.391823 244.799945 
L 255.306179 245.452932 
L 256.220536 244.722208 
L 257.134892 243.049318 
L 258.049249 240.888243 
L 258.963605 238.095947 
L 259.877962 234.585366 
L 264.449744 213.963421 
L 265.364101 211.967147 
L 266.278457 211.14625 
L 267.192814 211.354584 
L 268.107171 213.447251 
L 269.021527 216.363925 
L 271.764597 226.304871 
L 276.336379 246.084152 
L 277.250736 248.814259 
L 278.165092 250.670607 
L 279.079449 251.9828 
L 279.993805 252.020113 
L 282.736875 251.065509 
L 283.651231 251.208544 
L 284.565588 251.497724 
L 286.394301 250.88205 
L 288.223014 249.967869 
L 289.13737 249.274459 
L 290.051727 248.425576 
L 290.966083 247.753933 
L 291.88044 247.259528 
L 294.623509 248.036894 
L 295.537866 247.502066 
L 296.452222 246.429302 
L 297.366579 245.760768 
L 300.109648 243.235886 
L 301.024005 242.847203 
L 301.938361 243.406906 
L 302.852718 244.59472 
L 303.767074 245.558653 
L 305.595788 246.693607 
L 306.510144 247.53627 
L 307.424501 249.016374 
L 311.996283 259.122122 
L 312.91064 260.972251 
L 313.824996 262.12897 
L 314.739353 262.719768 
L 318.396779 265.934951 
L 319.311135 266.423136 
L 320.225492 266.765177 
L 323.882918 268.895157 
L 324.797274 269.361577 
L 326.625987 270.776381 
L 329.369057 273.142681 
L 332.112126 274.482859 
L 333.026483 274.852884 
L 334.855196 275.138955 
L 338.512622 275.390821 
L 339.426978 275.602265 
L 341.255691 275.707986 
L 342.170048 275.524528 
L 343.084405 274.775148 
L 343.998761 273.071163 
L 345.827474 268.702371 
L 349.4849 260.754589 
L 353.142326 250.729687 
L 354.056683 249.20916 
L 354.971039 248.86401 
L 355.885396 250.229064 
L 360.457178 261.653223 
L 365.028961 275.027014 
L 365.943317 276.951771 
L 366.857674 278.068067 
L 367.77203 278.061848 
L 368.686387 277.651399 
L 370.5151 276.382739 
L 372.343813 275.773285 
L 375.086882 274.255868 
L 376.001239 274.000892 
L 376.915595 274.293181 
L 377.829952 274.423779 
L 378.744309 274.855994 
L 379.658665 275.913211 
L 380.573022 276.696795 
L 382.401735 277.502145 
L 384.230448 277.900156 
L 385.144804 278.096052 
L 386.059161 277.900156 
L 386.973517 277.582991 
L 387.887874 277.032617 
L 388.80223 276.336097 
L 389.716587 275.804379 
L 390.630943 274.896417 
L 391.5453 273.605991 
L 392.459656 272.794421 
L 393.374013 272.51457 
L 396.117082 270.679988 
L 398.860152 267.84416 
L 399.774508 266.360947 
L 400.688865 264.302484 
L 402.517578 258.21105 
L 403.431934 254.23094 
L 405.260647 244.361511 
L 407.08936 233.357129 
L 412.575499 194.690983 
L 413.489856 189.448431 
L 414.404212 185.18847 
L 415.318569 182.007492 
L 416.232926 179.324027 
L 417.147282 177.361957 
L 418.061639 176.024889 
L 418.975995 175.263071 
L 419.890352 175.427872 
L 420.804708 176.553497 
L 421.719065 179.13124 
L 422.633421 182.781747 
L 423.547778 186.911111 
L 425.376491 197.349572 
L 428.11956 212.722746 
L 431.776986 228.904381 
L 432.691343 232.492699 
L 433.605699 235.235243 
L 435.434412 238.988362 
L 436.348769 240.219709 
L 437.263125 240.605282 
L 438.177482 241.121453 
L 439.091838 242.212873 
L 440.006195 243.761385 
L 441.834908 249.199832 
L 442.749264 250.204188 
L 443.663621 250.197969 
L 444.577977 249.532544 
L 446.40669 247.626445 
L 448.235403 245.334772 
L 449.14976 244.436138 
L 450.064116 243.220339 
L 450.978473 241.438618 
L 451.892829 239.23401 
L 452.807186 236.472809 
L 453.721543 234.321062 
L 454.635899 234.224668 
L 455.550256 235.297432 
L 457.378969 239.159383 
L 458.293325 240.244585 
L 459.207682 240.670581 
L 460.122038 240.760755 
L 461.036395 240.574188 
L 461.950751 240.197943 
L 462.865108 239.563613 
L 463.779464 237.666842 
L 464.693821 234.977158 
L 465.608177 231.631378 
L 466.522534 227.508233 
L 477.494812 222.999515 
L 478.409168 218.111442 
L 480.237881 210.172988 
L 481.152238 207.228329 
L 482.066594 204.678571 
L 483.895307 200.051693 
L 485.72402 198.139375 
L 486.638377 198.332161 
L 488.46709 200.885029 
L 489.381446 202.349585 
L 491.21016 205.689146 
L 492.124516 207.057309 
L 493.953229 211.89563 
L 495.781942 216.62512 
L 496.696299 219.775004 
L 497.610655 222.212821 
L 502.182438 231.44792 
L 504.011151 234.719073 
L 505.839864 237.144452 
L 506.75422 238.506396 
L 507.668577 239.103413 
L 508.582933 239.451672 
L 509.49729 240.829163 
L 510.411646 241.513245 
L 511.326003 241.650061 
L 512.240359 241.401304 
L 513.154716 241.494588 
L 514.983429 242.184888 
L 515.897785 242.359018 
L 516.812142 241.961007 
L 517.726498 241.360881 
L 518.640855 240.922447 
L 520.469568 241.883271 
L 523.212637 241.970335 
L 524.126994 242.962254 
L 525.955707 246.737139 
L 526.870063 247.996471 
L 529.613133 252.50208 
L 530.52749 254.656936 
L 531.441846 257.240898 
L 532.356203 259.398864 
L 535.099272 264.890172 
L 536.013629 266.003359 
L 536.927985 266.684331 
L 537.842342 267.184954 
L 539.671055 268.742794 
L 540.585411 269.554363 
L 541.499768 270.008344 
L 542.414124 270.123394 
L 543.328481 269.852871 
L 544.242837 269.971031 
L 545.157194 269.871528 
L 546.07155 269.299387 
L 548.81462 268.24839 
L 549.728976 268.354111 
L 550.643333 268.693042 
L 551.557689 269.159462 
L 552.472046 269.949265 
L 557.043828 275.80127 
L 558.872541 279.541951 
L 560.701254 283.606017 
L 561.615611 285.254031 
L 562.529967 286.609756 
L 563.444324 287.722943 
L 564.358681 288.518965 
L 566.187394 289.507774 
L 568.930463 291.081161 
L 569.84482 291.249072 
L 570.759176 291.183773 
L 572.587889 290.826185 
L 573.502246 290.397079 
L 574.416602 289.445584 
L 575.330959 288.323069 
L 577.159672 285.341096 
L 578.074028 283.450544 
L 579.902741 278.842323 
L 582.645811 271.211706 
L 583.560167 268.139558 
L 584.474524 264.641415 
L 585.38888 261.696755 
L 586.303237 259.796875 
L 587.217593 258.167517 
L 588.13195 257.244007 
L 589.046306 257.153833 
L 589.960663 257.645128 
L 590.875019 258.761424 
L 592.703732 261.559939 
L 593.618089 262.604718 
L 594.532445 264.013304 
L 595.446802 266.255225 
L 597.275515 272.489694 
L 598.189871 274.93373 
L 599.104228 276.60662 
L 600.018584 277.306249 
L 600.932941 277.471051 
L 601.847298 276.945552 
L 602.761654 275.521419 
L 603.676011 273.761464 
L 604.590367 272.477256 
L 605.504724 271.718548 
L 606.41908 270.754615 
L 607.333437 269.560582 
L 610.076506 264.181215 
L 610.990863 263.655716 
L 611.905219 263.898254 
L 612.819576 263.742781 
L 613.733932 264.255842 
L 614.648289 265.863433 
L 615.562645 267.772642 
L 616.477002 269.411328 
L 618.305715 271.5573 
L 620.134428 272.849947 
L 621.048784 273.283939 
L 621.963141 273.57534 
L 622.877497 273.080492 
L 628.363636 269.267848 
L 628.363636 269.267848 
" style="fill:none;stroke:#ff0000;stroke-linecap:square;stroke-width:1.5;"/>
   </g>
   <g id="patch_3">
    <path d="M 64.8 313.2 
L 64.8 28.8 
" style="fill:none;stroke:#000000;stroke-linecap:square;stroke-linejoin:miter;stroke-width:0.8;"/>
   </g>
   <g id="patch_4">
    <path d="M 655.2 313.2 
L 655.2 28.8 
" style="fill:none;stroke:#000000;stroke-linecap:square;stroke-linejoin:miter;stroke-width:0.8;"/>
   </g>
   <g id="patch_5">
    <path d="M 64.8 313.2 
L 655.2 313.2 
" style="fill:none;stroke:#000000;stroke-linecap:square;stroke-linejoin:miter;stroke-width:0.8;"/>
   </g>
   <g id="patch_6">
    <path d="M 64.8 28.8 
L 655.2 28.8 
" style="fill:none;stroke:#000000;stroke-linecap:square;stroke-linejoin:miter;stroke-width:0.8;"/>
   </g>
   <g id="text_15">
    <!-- Page hits per uur (gemiddeld ongeveer 2). -->
    <g transform="translate(232.46625 22.8)scale(0.12 -0.12)">
     <defs>
      <path d="M 19.671875 64.796875 
L 19.671875 37.40625 
L 32.078125 37.40625 
Q 38.96875 37.40625 42.71875 40.96875 
Q 46.484375 44.53125 46.484375 51.125 
Q 46.484375 57.671875 42.71875 61.234375 
Q 38.96875 64.796875 32.078125 64.796875 
z
M 9.8125 72.90625 
L 32.078125 72.90625 
Q 44.34375 72.90625 50.609375 67.359375 
Q 56.890625 61.8125 56.890625 51.125 
Q 56.890625 40.328125 50.609375 34.8125 
Q 44.34375 29.296875 32.078125 29.296875 
L 19.671875 29.296875 
L 19.671875 0 
L 9.8125 0 
z
" id="DejaVuSans-80"/>
      <path d="M 45.40625 27.984375 
Q 45.40625 37.75 41.375 43.109375 
Q 37.359375 48.484375 30.078125 48.484375 
Q 22.859375 48.484375 18.828125 43.109375 
Q 14.796875 37.75 14.796875 27.984375 
Q 14.796875 18.265625 18.828125 12.890625 
Q 22.859375 7.515625 30.078125 7.515625 
Q 37.359375 7.515625 41.375 12.890625 
Q 45.40625 18.265625 45.40625 27.984375 
z
M 54.390625 6.78125 
Q 54.390625 -7.171875 48.1875 -13.984375 
Q 42 -20.796875 29.203125 -20.796875 
Q 24.46875 -20.796875 20.265625 -20.09375 
Q 16.0625 -19.390625 12.109375 -17.921875 
L 12.109375 -9.1875 
Q 16.0625 -11.328125 19.921875 -12.34375 
Q 23.78125 -13.375 27.78125 -13.375 
Q 36.625 -13.375 41.015625 -8.765625 
Q 45.40625 -4.15625 45.40625 5.171875 
L 45.40625 9.625 
Q 42.625 4.78125 38.28125 2.390625 
Q 33.9375 0 27.875 0 
Q 17.828125 0 11.671875 7.65625 
Q 5.515625 15.328125 5.515625 27.984375 
Q 5.515625 40.671875 11.671875 48.328125 
Q 17.828125 56 27.875 56 
Q 33.9375 56 38.28125 53.609375 
Q 42.625 51.21875 45.40625 46.390625 
L 45.40625 54.6875 
L 54.390625 54.6875 
z
" id="DejaVuSans-103"/>
      <path d="M 56.203125 29.59375 
L 56.203125 25.203125 
L 14.890625 25.203125 
Q 15.484375 15.921875 20.484375 11.0625 
Q 25.484375 6.203125 34.421875 6.203125 
Q 39.59375 6.203125 44.453125 7.46875 
Q 49.3125 8.734375 54.109375 11.28125 
L 54.109375 2.78125 
Q 49.265625 0.734375 44.1875 -0.34375 
Q 39.109375 -1.421875 33.890625 -1.421875 
Q 20.796875 -1.421875 13.15625 6.1875 
Q 5.515625 13.8125 5.515625 26.8125 
Q 5.515625 40.234375 12.765625 48.109375 
Q 20.015625 56 32.328125 56 
Q 43.359375 56 49.78125 48.890625 
Q 56.203125 41.796875 56.203125 29.59375 
z
M 47.21875 32.234375 
Q 47.125 39.59375 43.09375 43.984375 
Q 39.0625 48.390625 32.421875 48.390625 
Q 24.90625 48.390625 20.390625 44.140625 
Q 15.875 39.890625 15.1875 32.171875 
z
" id="DejaVuSans-101"/>
      <path id="DejaVuSans-32"/>
      <path d="M 54.890625 33.015625 
L 54.890625 0 
L 45.90625 0 
L 45.90625 32.71875 
Q 45.90625 40.484375 42.875 44.328125 
Q 39.84375 48.1875 33.796875 48.1875 
Q 26.515625 48.1875 22.3125 43.546875 
Q 18.109375 38.921875 18.109375 30.90625 
L 18.109375 0 
L 9.078125 0 
L 9.078125 75.984375 
L 18.109375 75.984375 
L 18.109375 46.1875 
Q 21.34375 51.125 25.703125 53.5625 
Q 30.078125 56 35.796875 56 
Q 45.21875 56 50.046875 50.171875 
Q 54.890625 44.34375 54.890625 33.015625 
z
" id="DejaVuSans-104"/>
      <path d="M 9.421875 54.6875 
L 18.40625 54.6875 
L 18.40625 0 
L 9.421875 0 
z
M 9.421875 75.984375 
L 18.40625 75.984375 
L 18.40625 64.59375 
L 9.421875 64.59375 
z
" id="DejaVuSans-105"/>
      <path d="M 44.28125 53.078125 
L 44.28125 44.578125 
Q 40.484375 46.53125 36.375 47.5 
Q 32.28125 48.484375 27.875 48.484375 
Q 21.1875 48.484375 17.84375 46.4375 
Q 14.5 44.390625 14.5 40.28125 
Q 14.5 37.15625 16.890625 35.375 
Q 19.28125 33.59375 26.515625 31.984375 
L 29.59375 31.296875 
Q 39.15625 29.25 43.1875 25.515625 
Q 47.21875 21.78125 47.21875 15.09375 
Q 47.21875 7.46875 41.1875 3.015625 
Q 35.15625 -1.421875 24.609375 -1.421875 
Q 20.21875 -1.421875 15.453125 -0.5625 
Q 10.6875 0.296875 5.421875 2 
L 5.421875 11.28125 
Q 10.40625 8.6875 15.234375 7.390625 
Q 20.0625 6.109375 24.8125 6.109375 
Q 31.15625 6.109375 34.5625 8.28125 
Q 37.984375 10.453125 37.984375 14.40625 
Q 37.984375 18.0625 35.515625 20.015625 
Q 33.0625 21.96875 24.703125 23.78125 
L 21.578125 24.515625 
Q 13.234375 26.265625 9.515625 29.90625 
Q 5.8125 33.546875 5.8125 39.890625 
Q 5.8125 47.609375 11.28125 51.796875 
Q 16.75 56 26.8125 56 
Q 31.78125 56 36.171875 55.265625 
Q 40.578125 54.546875 44.28125 53.078125 
z
" id="DejaVuSans-115"/>
      <path d="M 18.109375 8.203125 
L 18.109375 -20.796875 
L 9.078125 -20.796875 
L 9.078125 54.6875 
L 18.109375 54.6875 
L 18.109375 46.390625 
Q 20.953125 51.265625 25.265625 53.625 
Q 29.59375 56 35.59375 56 
Q 45.5625 56 51.78125 48.09375 
Q 58.015625 40.1875 58.015625 27.296875 
Q 58.015625 14.40625 51.78125 6.484375 
Q 45.5625 -1.421875 35.59375 -1.421875 
Q 29.59375 -1.421875 25.265625 0.953125 
Q 20.953125 3.328125 18.109375 8.203125 
z
M 48.6875 27.296875 
Q 48.6875 37.203125 44.609375 42.84375 
Q 40.53125 48.484375 33.40625 48.484375 
Q 26.265625 48.484375 22.1875 42.84375 
Q 18.109375 37.203125 18.109375 27.296875 
Q 18.109375 17.390625 22.1875 11.75 
Q 26.265625 6.109375 33.40625 6.109375 
Q 40.53125 6.109375 44.609375 11.75 
Q 48.6875 17.390625 48.6875 27.296875 
z
" id="DejaVuSans-112"/>
      <path d="M 41.109375 46.296875 
Q 39.59375 47.171875 37.8125 47.578125 
Q 36.03125 48 33.890625 48 
Q 26.265625 48 22.1875 43.046875 
Q 18.109375 38.09375 18.109375 28.8125 
L 18.109375 0 
L 9.078125 0 
L 9.078125 54.6875 
L 18.109375 54.6875 
L 18.109375 46.1875 
Q 20.953125 51.171875 25.484375 53.578125 
Q 30.03125 56 36.53125 56 
Q 37.453125 56 38.578125 55.875 
Q 39.703125 55.765625 41.0625 55.515625 
z
" id="DejaVuSans-114"/>
      <path d="M 31 75.875 
Q 24.46875 64.65625 21.28125 53.65625 
Q 18.109375 42.671875 18.109375 31.390625 
Q 18.109375 20.125 21.3125 9.0625 
Q 24.515625 -2 31 -13.1875 
L 23.1875 -13.1875 
Q 15.875 -1.703125 12.234375 9.375 
Q 8.59375 20.453125 8.59375 31.390625 
Q 8.59375 42.28125 12.203125 53.3125 
Q 15.828125 64.359375 23.1875 75.875 
z
" id="DejaVuSans-40"/>
      <path d="M 45.40625 46.390625 
L 45.40625 75.984375 
L 54.390625 75.984375 
L 54.390625 0 
L 45.40625 0 
L 45.40625 8.203125 
Q 42.578125 3.328125 38.25 0.953125 
Q 33.9375 -1.421875 27.875 -1.421875 
Q 17.96875 -1.421875 11.734375 6.484375 
Q 5.515625 14.40625 5.515625 27.296875 
Q 5.515625 40.1875 11.734375 48.09375 
Q 17.96875 56 27.875 56 
Q 33.9375 56 38.25 53.625 
Q 42.578125 51.265625 45.40625 46.390625 
z
M 14.796875 27.296875 
Q 14.796875 17.390625 18.875 11.75 
Q 22.953125 6.109375 30.078125 6.109375 
Q 37.203125 6.109375 41.296875 11.75 
Q 45.40625 17.390625 45.40625 27.296875 
Q 45.40625 37.203125 41.296875 42.84375 
Q 37.203125 48.484375 30.078125 48.484375 
Q 22.953125 48.484375 18.875 42.84375 
Q 14.796875 37.203125 14.796875 27.296875 
z
" id="DejaVuSans-100"/>
      <path d="M 9.421875 75.984375 
L 18.40625 75.984375 
L 18.40625 0 
L 9.421875 0 
z
" id="DejaVuSans-108"/>
      <path d="M 30.609375 48.390625 
Q 23.390625 48.390625 19.1875 42.75 
Q 14.984375 37.109375 14.984375 27.296875 
Q 14.984375 17.484375 19.15625 11.84375 
Q 23.34375 6.203125 30.609375 6.203125 
Q 37.796875 6.203125 41.984375 11.859375 
Q 46.1875 17.53125 46.1875 27.296875 
Q 46.1875 37.015625 41.984375 42.703125 
Q 37.796875 48.390625 30.609375 48.390625 
z
M 30.609375 56 
Q 42.328125 56 49.015625 48.375 
Q 55.71875 40.765625 55.71875 27.296875 
Q 55.71875 13.875 49.015625 6.21875 
Q 42.328125 -1.421875 30.609375 -1.421875 
Q 18.84375 -1.421875 12.171875 6.21875 
Q 5.515625 13.875 5.515625 27.296875 
Q 5.515625 40.765625 12.171875 48.375 
Q 18.84375 56 30.609375 56 
z
" id="DejaVuSans-111"/>
      <path d="M 54.890625 33.015625 
L 54.890625 0 
L 45.90625 0 
L 45.90625 32.71875 
Q 45.90625 40.484375 42.875 44.328125 
Q 39.84375 48.1875 33.796875 48.1875 
Q 26.515625 48.1875 22.3125 43.546875 
Q 18.109375 38.921875 18.109375 30.90625 
L 18.109375 0 
L 9.078125 0 
L 9.078125 54.6875 
L 18.109375 54.6875 
L 18.109375 46.1875 
Q 21.34375 51.125 25.703125 53.5625 
Q 30.078125 56 35.796875 56 
Q 45.21875 56 50.046875 50.171875 
Q 54.890625 44.34375 54.890625 33.015625 
z
" id="DejaVuSans-110"/>
      <path d="M 2.984375 54.6875 
L 12.5 54.6875 
L 29.59375 8.796875 
L 46.6875 54.6875 
L 56.203125 54.6875 
L 35.6875 0 
L 23.484375 0 
z
" id="DejaVuSans-118"/>
      <path d="M 8.015625 75.875 
L 15.828125 75.875 
Q 23.140625 64.359375 26.78125 53.3125 
Q 30.421875 42.28125 30.421875 31.390625 
Q 30.421875 20.453125 26.78125 9.375 
Q 23.140625 -1.703125 15.828125 -13.1875 
L 8.015625 -13.1875 
Q 14.5 -2 17.703125 9.0625 
Q 20.90625 20.125 20.90625 31.390625 
Q 20.90625 42.671875 17.703125 53.65625 
Q 14.5 64.65625 8.015625 75.875 
z
" id="DejaVuSans-41"/>
      <path d="M 10.6875 12.40625 
L 21 12.40625 
L 21 0 
L 10.6875 0 
z
" id="DejaVuSans-46"/>
     </defs>
     <use xlink:href="#DejaVuSans-80"/>
     <use x="55.802734" xlink:href="#DejaVuSans-97"/>
     <use x="117.082031" xlink:href="#DejaVuSans-103"/>
     <use x="180.558594" xlink:href="#DejaVuSans-101"/>
     <use x="242.082031" xlink:href="#DejaVuSans-32"/>
     <use x="273.869141" xlink:href="#DejaVuSans-104"/>
     <use x="337.248047" xlink:href="#DejaVuSans-105"/>
     <use x="365.03125" xlink:href="#DejaVuSans-116"/>
     <use x="404.240234" xlink:href="#DejaVuSans-115"/>
     <use x="456.339844" xlink:href="#DejaVuSans-32"/>
     <use x="488.126953" xlink:href="#DejaVuSans-112"/>
     <use x="551.603516" xlink:href="#DejaVuSans-101"/>
     <use x="613.126953" xlink:href="#DejaVuSans-114"/>
     <use x="654.240234" xlink:href="#DejaVuSans-32"/>
     <use x="686.027344" xlink:href="#DejaVuSans-117"/>
     <use x="749.40625" xlink:href="#DejaVuSans-117"/>
     <use x="812.785156" xlink:href="#DejaVuSans-114"/>
     <use x="853.898438" xlink:href="#DejaVuSans-32"/>
     <use x="885.685547" xlink:href="#DejaVuSans-40"/>
     <use x="924.699219" xlink:href="#DejaVuSans-103"/>
     <use x="988.175781" xlink:href="#DejaVuSans-101"/>
     <use x="1049.699219" xlink:href="#DejaVuSans-109"/>
     <use x="1147.111328" xlink:href="#DejaVuSans-105"/>
     <use x="1174.894531" xlink:href="#DejaVuSans-100"/>
     <use x="1238.371094" xlink:href="#DejaVuSans-100"/>
     <use x="1301.847656" xlink:href="#DejaVuSans-101"/>
     <use x="1363.371094" xlink:href="#DejaVuSans-108"/>
     <use x="1391.154297" xlink:href="#DejaVuSans-100"/>
     <use x="1454.630859" xlink:href="#DejaVuSans-32"/>
     <use x="1486.417969" xlink:href="#DejaVuSans-111"/>
     <use x="1547.599609" xlink:href="#DejaVuSans-110"/>
     <use x="1610.978516" xlink:href="#DejaVuSans-103"/>
     <use x="1674.455078" xlink:href="#DejaVuSans-101"/>
     <use x="1735.978516" xlink:href="#DejaVuSans-118"/>
     <use x="1795.158203" xlink:href="#DejaVuSans-101"/>
     <use x="1856.681641" xlink:href="#DejaVuSans-101"/>
     <use x="1918.205078" xlink:href="#DejaVuSans-114"/>
     <use x="1959.318359" xlink:href="#DejaVuSans-32"/>
     <use x="1991.105469" xlink:href="#DejaVuSans-50"/>
     <use x="2054.728516" xlink:href="#DejaVuSans-41"/>
     <use x="2093.742188" xlink:href="#DejaVuSans-46"/>
    </g>
   </g>
  </g>
  <g id="text_16">
   <!-- Gegenereerd op 2022-06-30 23:56. -->
   <g style="fill:#808080;" transform="translate(7.2 356.4)scale(0.08 -0.08)">
    <defs>
     <path d="M 59.515625 10.40625 
L 59.515625 29.984375 
L 43.40625 29.984375 
L 43.40625 38.09375 
L 69.28125 38.09375 
L 69.28125 6.78125 
Q 63.578125 2.734375 56.6875 0.65625 
Q 49.8125 -1.421875 42 -1.421875 
Q 24.90625 -1.421875 15.25 8.5625 
Q 5.609375 18.5625 5.609375 36.375 
Q 5.609375 54.25 15.25 64.234375 
Q 24.90625 74.21875 42 74.21875 
Q 49.125 74.21875 55.546875 72.453125 
Q 61.96875 70.703125 67.390625 67.28125 
L 67.390625 56.78125 
Q 61.921875 61.421875 55.765625 63.765625 
Q 49.609375 66.109375 42.828125 66.109375 
Q 29.4375 66.109375 22.71875 58.640625 
Q 16.015625 51.171875 16.015625 36.375 
Q 16.015625 21.625 22.71875 14.15625 
Q 29.4375 6.6875 42.828125 6.6875 
Q 48.046875 6.6875 52.140625 7.59375 
Q 56.25 8.5 59.515625 10.40625 
z
" id="DejaVuSans-71"/>
     <path d="M 11.71875 12.40625 
L 22.015625 12.40625 
L 22.015625 0 
L 11.71875 0 
z
M 11.71875 51.703125 
L 22.015625 51.703125 
L 22.015625 39.3125 
L 11.71875 39.3125 
z
" id="DejaVuSans-58"/>
    </defs>
    <use xlink:href="#DejaVuSans-71"/>
    <use x="77.490234" xlink:href="#DejaVuSans-101"/>
    <use x="139.013672" xlink:href="#DejaVuSans-103"/>
    <use x="202.490234" xlink:href="#DejaVuSans-101"/>
    <use x="264.013672" xlink:href="#DejaVuSans-110"/>
    <use x="327.392578" xlink:href="#DejaVuSans-101"/>
    <use x="388.916016" xlink:href="#DejaVuSans-114"/>
    <use x="427.779297" xlink:href="#DejaVuSans-101"/>
    <use x="489.302734" xlink:href="#DejaVuSans-101"/>
    <use x="550.826172" xlink:href="#DejaVuSans-114"/>
    <use x="590.189453" xlink:href="#DejaVuSans-100"/>
    <use x="653.666016" xlink:href="#DejaVuSans-32"/>
    <use x="685.453125" xlink:href="#DejaVuSans-111"/>
    <use x="746.634766" xlink:href="#DejaVuSans-112"/>
    <use x="810.111328" xlink:href="#DejaVuSans-32"/>
    <use x="841.898438" xlink:href="#DejaVuSans-50"/>
    <use x="905.521484" xlink:href="#DejaVuSans-48"/>
    <use x="969.144531" xlink:href="#DejaVuSans-50"/>
    <use x="1032.767578" xlink:href="#DejaVuSans-50"/>
    <use x="1096.390625" xlink:href="#DejaVuSans-45"/>
    <use x="1132.474609" xlink:href="#DejaVuSans-48"/>
    <use x="1196.097656" xlink:href="#DejaVuSans-54"/>
    <use x="1259.720703" xlink:href="#DejaVuSans-45"/>
    <use x="1295.804688" xlink:href="#DejaVuSans-51"/>
    <use x="1359.427734" xlink:href="#DejaVuSans-48"/>
    <use x="1423.050781" xlink:href="#DejaVuSans-32"/>
    <use x="1454.837891" xlink:href="#DejaVuSans-50"/>
    <use x="1518.460938" xlink:href="#DejaVuSans-51"/>
    <use x="1582.083984" xlink:href="#DejaVuSans-58"/>
    <use x="1615.775391" xlink:href="#DejaVuSans-53"/>
    <use x="1679.398438" xlink:href="#DejaVuSans-54"/>
    <use x="1743.021484" xlink:href="#DejaVuSans-46"/>
   </g>
  </g>
  <g id="text_17">
   <!-- https://realrolfje.github.io/coronadata/ -->
   <g style="fill:#808080;" transform="translate(560.24375 356.4)scale(0.08 -0.08)">
    <defs>
     <path d="M 25.390625 72.90625 
L 33.6875 72.90625 
L 8.296875 -9.28125 
L 0 -9.28125 
z
" id="DejaVuSans-47"/>
     <path d="M 37.109375 75.984375 
L 37.109375 68.5 
L 28.515625 68.5 
Q 23.6875 68.5 21.796875 66.546875 
Q 19.921875 64.59375 19.921875 59.515625 
L 19.921875 54.6875 
L 34.71875 54.6875 
L 34.71875 47.703125 
L 19.921875 47.703125 
L 19.921875 0 
L 10.890625 0 
L 10.890625 47.703125 
L 2.296875 47.703125 
L 2.296875 54.6875 
L 10.890625 54.6875 
L 10.890625 58.5 
Q 10.890625 67.625 15.140625 71.796875 
Q 19.390625 75.984375 28.609375 75.984375 
z
" id="DejaVuSans-102"/>
     <path d="M 9.421875 54.6875 
L 18.40625 54.6875 
L 18.40625 -0.984375 
Q 18.40625 -11.421875 14.421875 -16.109375 
Q 10.453125 -20.796875 1.609375 -20.796875 
L -1.8125 -20.796875 
L -1.8125 -13.1875 
L 0.59375 -13.1875 
Q 5.71875 -13.1875 7.5625 -10.8125 
Q 9.421875 -8.453125 9.421875 -0.984375 
z
M 9.421875 75.984375 
L 18.40625 75.984375 
L 18.40625 64.59375 
L 9.421875 64.59375 
z
" id="DejaVuSans-106"/>
     <path d="M 48.6875 27.296875 
Q 48.6875 37.203125 44.609375 42.84375 
Q 40.53125 48.484375 33.40625 48.484375 
Q 26.265625 48.484375 22.1875 42.84375 
Q 18.109375 37.203125 18.109375 27.296875 
Q 18.109375 17.390625 22.1875 11.75 
Q 26.265625 6.109375 33.40625 6.109375 
Q 40.53125 6.109375 44.609375 11.75 
Q 48.6875 17.390625 48.6875 27.296875 
z
M 18.109375 46.390625 
Q 20.953125 51.265625 25.265625 53.625 
Q 29.59375 56 35.59375 56 
Q 45.5625 56 51.78125 48.09375 
Q 58.015625 40.1875 58.015625 27.296875 
Q 58.015625 14.40625 51.78125 6.484375 
Q 45.5625 -1.421875 35.59375 -1.421875 
Q 29.59375 -1.421875 25.265625 0.953125 
Q 20.953125 3.328125 18.109375 8.203125 
L 18.109375 0 
L 9.078125 0 
L 9.078125 75.984375 
L 18.109375 75.984375 
z
" id="DejaVuSans-98"/>
     <path d="M 48.78125 52.59375 
L 48.78125 44.1875 
Q 44.96875 46.296875 41.140625 47.34375 
Q 37.3125 48.390625 33.40625 48.390625 
Q 24.65625 48.390625 19.8125 42.84375 
Q 14.984375 37.3125 14.984375 27.296875 
Q 14.984375 17.28125 19.8125 11.734375 
Q 24.65625 6.203125 33.40625 6.203125 
Q 37.3125 6.203125 41.140625 7.25 
Q 44.96875 8.296875 48.78125 10.40625 
L 48.78125 2.09375 
Q 45.015625 0.34375 40.984375 -0.53125 
Q 36.96875 -1.421875 32.421875 -1.421875 
Q 20.0625 -1.421875 12.78125 6.34375 
Q 5.515625 14.109375 5.515625 27.296875 
Q 5.515625 40.671875 12.859375 48.328125 
Q 20.21875 56 33.015625 56 
Q 37.15625 56 41.109375 55.140625 
Q 45.0625 54.296875 48.78125 52.59375 
z
" id="DejaVuSans-99"/>
    </defs>
    <use xlink:href="#DejaVuSans-104"/>
    <use x="63.378906" xlink:href="#DejaVuSans-116"/>
    <use x="102.587891" xlink:href="#DejaVuSans-116"/>
    <use x="141.796875" xlink:href="#DejaVuSans-112"/>
    <use x="205.273438" xlink:href="#DejaVuSans-115"/>
    <use x="257.373047" xlink:href="#DejaVuSans-58"/>
    <use x="291.064453" xlink:href="#DejaVuSans-47"/>
    <use x="324.755859" xlink:href="#DejaVuSans-47"/>
    <use x="358.447266" xlink:href="#DejaVuSans-114"/>
    <use x="397.310547" xlink:href="#DejaVuSans-101"/>
    <use x="458.833984" xlink:href="#DejaVuSans-97"/>
    <use x="520.113281" xlink:href="#DejaVuSans-108"/>
    <use x="547.896484" xlink:href="#DejaVuSans-114"/>
    <use x="586.759766" xlink:href="#DejaVuSans-111"/>
    <use x="647.941406" xlink:href="#DejaVuSans-108"/>
    <use x="675.724609" xlink:href="#DejaVuSans-102"/>
    <use x="710.929688" xlink:href="#DejaVuSans-106"/>
    <use x="738.712891" xlink:href="#DejaVuSans-101"/>
    <use x="800.236328" xlink:href="#DejaVuSans-46"/>
    <use x="832.023438" xlink:href="#DejaVuSans-103"/>
    <use x="895.5" xlink:href="#DejaVuSans-105"/>
    <use x="923.283203" xlink:href="#DejaVuSans-116"/>
    <use x="962.492188" xlink:href="#DejaVuSans-104"/>
    <use x="1025.871094" xlink:href="#DejaVuSans-117"/>
    <use x="1089.25" xlink:href="#DejaVuSans-98"/>
    <use x="1152.726562" xlink:href="#DejaVuSans-46"/>
    <use x="1184.513672" xlink:href="#DejaVuSans-105"/>
    <use x="1212.296875" xlink:href="#DejaVuSans-111"/>
    <use x="1273.478516" xlink:href="#DejaVuSans-47"/>
    <use x="1307.169922" xlink:href="#DejaVuSans-99"/>
    <use x="1362.150391" xlink:href="#DejaVuSans-111"/>
    <use x="1423.332031" xlink:href="#DejaVuSans-114"/>
    <use x="1462.195312" xlink:href="#DejaVuSans-111"/>
    <use x="1523.376953" xlink:href="#DejaVuSans-110"/>
    <use x="1586.755859" xlink:href="#DejaVuSans-97"/>
    <use x="1648.035156" xlink:href="#DejaVuSans-100"/>
    <use x="1711.511719" xlink:href="#DejaVuSans-97"/>
    <use x="1772.791016" xlink:href="#DejaVuSans-116"/>
    <use x="1812" xlink:href="#DejaVuSans-97"/>
    <use x="1873.279297" xlink:href="#DejaVuSans-47"/>
   </g>
  </g>
 </g>
 <defs>
  <clipPath id="p3bfef1b7f9">
   <rect height="284.4" width="590.4" x="64.8" y="28.8"/>
  </clipPath>
 </defs>
</svg>
