<?xml version="1.0" encoding="utf-8" standalone="no"?>
<!DOCTYPE svg PUBLIC "-//W3C//DTD SVG 1.1//EN"
  "http://www.w3.org/Graphics/SVG/1.1/DTD/svg11.dtd">
<!-- Created with matplotlib (https://matplotlib.org/) -->
<svg height="360pt" version="1.1" viewBox="0 0 720 360" width="720pt" xmlns="http://www.w3.org/2000/svg" xmlns:xlink="http://www.w3.org/1999/xlink">
 <metadata>
  <rdf:RDF xmlns:cc="http://creativecommons.org/ns#" xmlns:dc="http://purl.org/dc/elements/1.1/" xmlns:rdf="http://www.w3.org/1999/02/22-rdf-syntax-ns#">
   <cc:Work>
    <dc:type rdf:resource="http://purl.org/dc/dcmitype/StillImage"/>
    <dc:date>2021-04-15T17:18:22.914360</dc:date>
    <dc:format>image/svg+xml</dc:format>
    <dc:creator>
     <cc:Agent>
      <dc:title>Matplotlib v3.3.3, https://matplotlib.org/</dc:title>
     </cc:Agent>
    </dc:creator>
   </cc:Work>
  </rdf:RDF>
 </metadata>
 <defs>
  <style type="text/css">*{stroke-linecap:butt;stroke-linejoin:round;}</style>
 </defs>
 <g id="figure_1">
  <g id="patch_1">
   <path d="M 0 360 
L 720 360 
L 720 0 
L 0 0 
z
" style="fill:#ffffff;"/>
  </g>
  <g id="axes_1">
   <g id="patch_2">
    <path d="M 64.8 313.2 
L 655.2 313.2 
L 655.2 28.8 
L 64.8 28.8 
z
" style="fill:#ffffff;"/>
   </g>
   <g id="PolyCollection_1">
    <path clip-path="url(#pf34f844165)" d="M 91.636364 313.2 
L 91.636364 313.2 
L 93.796896 313.2 
L 94.717535 313.2 
L 95.638345 313.2 
L 97.474127 313.2 
L 98.396769 313.2 
L 99.013796 313.2 
L 101.165847 313.2 
L 102.081884 313.2 
L 103.002694 313.2 
L 104.843845 313.2 
L 105.764485 313.2 
L 106.684911 313.2 
L 108.526062 313.2 
L 109.447341 313.2 
L 119.573011 313.2 
L 120.49348 313.2 
L 121.41412 313.2 
L 123.255228 313.2 
L 124.176677 313.2 
L 125.096422 313.2 
L 126.937914 313.2 
L 127.858212 313.2 
L 128.733634 313.2 
L 130.61996 313.2 
L 131.540515 313.2 
L 132.372125 313.2 
L 134.300473 313.2 
L 135.221155 313.2 
L 136.14286 313.2 
L 137.982775 313.2 
L 138.904096 313.2 
L 139.823926 313.2 
L 141.668486 313.2 
L 142.589211 313.2 
L 143.470088 313.2 
L 145.350448 313.2 
L 146.271002 313.2 
L 147.191471 313.2 
L 149.029681 313.2 
L 149.950534 313.2 
L 150.706155 313.2 
L 152.712367 313.2 
L 153.632751 313.2 
L 154.553433 313.2 
L 156.398036 313.2 
L 157.260459 313.2 
L 158.175729 313.2 
L 160.080168 313.2 
L 161.00264 313.2 
L 161.714365 313.2 
L 163.758933 313.2 
L 164.680808 313.2 
L 165.603578 313.2 
L 167.332303 313.2 
L 168.362173 313.2 
L 169.282471 313.2 
L 171.12375 313.2 
L 172.046478 313.2 
L 172.967032 313.2 
L 174.806138 313.2 
L 175.727331 313.2 
L 176.647246 313.2 
L 179.092724 313.2 
L 180.156731 313.2 
L 182.172063 313.2 
L 182.838399 313.2 
L 183.727075 313.2 
L 185.853044 313.2 
L 186.773598 313.2 
L 187.694238 313.2 
L 189.535432 313.2 
L 190.452235 313.2 
L 191.372917 313.2 
L 193.214324 313.2 
L 194.134665 313.2 
L 195.05522 313.2 
L 196.896499 313.2 
L 197.81701 313.2 
L 198.737522 313.2 
L 200.579866 313.2 
L 201.499355 313.2 
L 202.423319 313.2 
L 204.261146 313.2 
L 204.926203 313.2 
L 206.102382 313.2 
L 207.943576 313.2 
L 208.864471 313.2 
L 209.784812 313.2 
L 211.626134 313.2 
L 212.547071 313.2 
L 213.466986 313.2 
L 215.309629 313.2 
L 216.228862 313.2 
L 217.078159 313.2 
L 218.990781 313.2 
L 219.911335 313.2 
L 220.831846 313.2 
L 222.672997 313.2 
L 223.597217 313.2 
L 224.515129 313.2 
L 226.35547 313.2 
L 227.276365 313.2 
L 228.196706 313.2 
L 230.037644 313.2 
L 230.958241 313.2 
L 231.879094 313.2 
L 233.720202 313.2 
L 234.40951 313.2 
L 235.561055 313.2 
L 237.40438 313.2 
L 238.322803 313.2 
L 239.108641 313.2 
L 241.084636 313.2 
L 242.005361 313.2 
L 242.92583 313.2 
L 244.771925 313.2 
L 245.716984 313.2 
L 246.614013 313.2 
L 248.449539 313.2 
L 249.369965 313.2 
L 250.290818 313.2 
L 252.132054 313.2 
L 253.052992 313.2 
L 253.976998 313.2 
L 255.814015 313.2 
L 256.734655 313.2 
L 257.448809 313.2 
L 259.069624 313.2 
L 260.417 313.2 
L 261.33781 313.2 
L 263.18676 313.2 
L 264.102924 313.2 
L 265.024842 313.2 
L 266.86105 313.2 
L 267.781434 313.2 
L 268.702371 313.2 
L 270.54348 313.2 
L 271.463736 313.2 
L 272.38429 313.2 
L 274.230342 313.2 
L 275.146208 313.2 
L 276.066891 313.2 
L 277.907999 313.2 
L 278.828596 313.2 
L 279.652748 313.2 
L 281.595884 313.2 
L 282.516268 313.2 
L 283.437035 313.2 
L 285.277931 313.2 
L 286.198144 313.2 
L 287.11938 313.2 
L 288.954692 313.2 
L 289.875417 313.2 
L 290.795673 313.2 
L 292.644964 313.2 
L 293.562706 313.2 
L 294.182077 313.2 
L 296.320618 313.2 
L 297.240448 313.2 
L 298.160363 313.2 
L 300.001727 313.2 
L 300.922111 313.2 
L 301.842921 313.2 
L 303.683816 313.2 
L 304.60437 313.2 
L 305.531402 313.2 
L 307.371318 313.2 
L 308.292085 313.2 
L 309.21298 313.2 
L 311.049486 313.2 
L 311.969742 313.2 
L 312.889955 313.2 
L 314.405588 313.2 
L 315.651362 313.2 
L 316.571831 313.2 
L 318.414005 313.2 
L 319.334431 313.2 
L 320.254048 313.2 
L 322.096904 313.2 
L 323.015711 313.2 
L 323.936435 313.2 
L 325.777459 313.2 
L 326.698055 313.2 
L 327.61861 313.2 
L 329.459803 313.2 
L 330.3804 313.2 
L 331.300784 313.2 
L 333.14202 313.2 
L 334.062788 313.2 
L 334.98445 313.2 
L 336.825132 313.2 
L 337.744792 313.2 
L 338.665687 313.2 
L 340.506625 313.2 
L 341.427179 313.2 
L 342.347733 313.2 
L 344.189012 313.2 
L 345.110419 313.2 
L 346.029908 313.2 
L 347.873019 313.2 
L 348.788246 313.2 
L 349.613208 313.2 
L 351.549909 313.2 
L 352.470463 313.2 
L 353.391145 313.2 
L 355.232168 313.2 
L 356.152339 313.2 
L 357.073234 313.2 
L 358.91609 313.2 
L 359.834641 313.2 
L 360.755068 313.2 
L 362.597071 313.2 
L 363.516858 313.2 
L 364.437455 313.2 
L 366.28176 313.2 
L 367.199672 313.2 
L 368.119629 313.2 
L 369.9624 313.2 
L 370.881335 313.2 
L 371.801974 313.2 
L 373.643722 313.2 
L 374.563637 313.2 
L 375.487984 313.2 
L 377.328837 313.2 
L 378.249306 313.2 
L 379.170286 313.2 
L 381.011821 313.2 
L 381.931906 313.2 
L 382.85229 313.2 
L 384.695103 313.2 
L 385.614166 313.2 
L 386.534678 313.2 
L 388.375701 313.2 
L 389.296127 313.2 
L 390.216895 313.2 
L 392.058387 313.2 
L 392.978259 313.2 
L 393.898984 313.2 
L 395.740518 313.2 
L 396.660732 313.2 
L 397.581499 313.2 
L 399.419922 313.2 
L 400.342991 313.2 
L 401.263588 313.2 
L 403.104696 313.2 
L 403.750661 313.2 
L 404.945762 313.2 
L 406.787041 313.2 
L 407.707851 313.2 
L 408.62815 313.2 
L 410.469471 313.2 
L 411.389983 313.2 
L 412.311262 313.2 
L 414.151901 313.2 
L 415.072072 313.2 
L 415.992584 313.2 
L 417.83382 313.2 
L 418.639007 313.2 
L 419.675184 313.2 
L 421.513054 313.2 
L 422.433011 313.2 
L 423.353736 313.2 
L 425.201408 313.2 
L 426.12145 313.2 
L 427.042218 313.2 
L 428.880258 313.2 
L 429.79753 313.2 
L 430.71834 313.2 
L 432.559278 313.2 
L 433.479875 313.2 
L 434.401495 313.2 
L 436.24516 313.2 
L 437.162177 313.2 
L 438.086397 313.2 
L 439.937989 313.2 
L 440.851 313.2 
L 441.775944 313.2 
L 443.611938 313.2 
L 444.530276 313.2 
L 445.450745 313.2 
L 447.301613 313.2 
L 448.219099 313.2 
L 449.139824 313.2 
L 450.976116 313.2 
L 451.895094 313.2 
L 452.81633 313.2 
L 454.658078 313.2 
L 455.577226 313.2 
L 456.49795 313.2 
L 458.339101 313.2 
L 459.25957 313.2 
L 460.179997 313.2 
L 462.02298 313.2 
L 462.941873 313.2 
L 463.744886 313.2 
L 465.713977 313.2 
L 466.631249 313.2 
L 467.551889 313.2 
L 469.390398 313.2 
L 470.306562 313.2 
L 471.089076 313.2 
L 473.071379 313.2 
L 473.984773 313.2 
L 474.909461 313.2 
L 476.756792 313.2 
L 477.673596 313.2 
L 478.59398 313.2 
L 480.428653 313.2 
L 481.349122 313.2 
L 482.269591 313.2 
L 484.112915 313.2 
L 485.031637 313.2 
L 485.954961 313.2 
L 487.797178 313.2 
L 488.713513 313.2 
L 489.634195 313.2 
L 491.481824 313.2 
L 492.395943 313.2 
L 493.012118 313.2 
L 495.164851 313.2 
L 496.081868 313.2 
L 497.002635 313.2 
L 498.847409 313.2 
L 499.764511 313.2 
L 500.684895 313.2 
L 502.529796 313.2 
L 503.447154 313.2 
L 504.36741 313.2 
L 506.208348 313.2 
L 507.12903 313.2 
L 508.049456 313.2 
L 509.89879 313.2 
L 510.812398 313.2 
L 511.616135 313.2 
L 513.576106 313.2 
L 514.495467 313.2 
L 515.414572 313.2 
L 518.176064 313.2 
L 519.096363 313.2 
L 520.948595 313.2 
L 521.858239 313.2 
L 522.779006 313.2 
L 524.622842 313.2 
L 525.544803 313.2 
L 531.984378 313.2 
L 532.905273 313.2 
L 533.825699 313.2 
L 535.667234 313.2 
L 536.587447 313.2 
L 537.507916 313.2 
L 540.283601 313.2 
L 541.190432 313.2 
L 543.952052 313.2 
L 544.872649 313.2 
L 547.638275 313.2 
L 548.55478 313.2 
L 551.319341 313.2 
L 552.242836 313.2 
L 555.001132 313.2 
L 555.920876 313.2 
L 557.765522 313.2 
L 558.63242 313.2 
L 559.586941 313.2 
L 561.392889 313.2 
L 562.064212 313.2 
L 563.279045 313.2 
L 565.130766 313.2 
L 565.900579 313.2 
L 566.927466 313.2 
L 569.451575 313.2 
L 570.388025 313.2 
L 572.516509 313.2 
L 573.136732 313.2 
L 574.310396 313.2 
L 576.194848 313.2 
L 577.108839 313.2 
L 578.028711 313.2 
L 579.870757 313.2 
L 580.493793 313.2 
L 581.715829 313.2 
L 583.556937 313.2 
L 584.17601 313.2 
L 585.398387 313.2 
L 587.239154 313.2 
L 587.859293 313.2 
L 589.080476 313.2 
L 590.871977 313.2 
L 591.542447 313.2 
L 592.762778 313.2 
L 594.604654 313.2 
L 595.222917 313.2 
L 596.444654 313.2 
L 598.287851 313.2 
L 598.913572 313.2 
L 600.051266 313.2 
L 601.970835 313.2 
L 602.590675 313.2 
L 603.651741 313.2 
L 605.653137 313.2 
L 606.271869 313.2 
L 607.491561 313.2 
L 609.334118 313.2 
L 609.95285 313.2 
L 611.174119 313.2 
L 612.87757 313.2 
L 613.548935 313.2 
L 614.85706 313.2 
L 616.699873 313.2 
L 617.316986 313.2 
L 618.53851 313.2 
L 620.382133 313.2 
L 620.999373 313.2 
L 622.22094 313.2 
L 624.063796 313.2 
L 624.681973 313.2 
L 625.903029 313.2 
L 628.363636 313.2 
L 628.363636 313.2 
L 628.363636 223.384812 
L 625.903029 133.269387 
L 624.681973 -41.130094 
L 624.063796 194.413978 
L 622.22094 134.317992 
L 620.999373 -38.487265 
L 620.382133 195.865666 
L 618.53851 136.383432 
L 617.316986 -34.282437 
L 616.699873 197.204881 
L 614.85706 149.989355 
L 613.548935 -4.333248 
L 612.87757 188.182918 
L 611.174119 138.900878 
L 609.95285 -30.569709 
L 609.334118 197.792914 
L 607.491561 138.899081 
L 606.271869 -29.195218 
L 605.653137 207.808261 
L 603.651741 116.131308 
L 602.590675 -20.769031 
L 601.970835 205.872548 
L 600.051266 132.443829 
L 598.913572 -14.700881 
L 598.287851 202.289243 
L 596.444654 146.181659 
L 595.222917 -15.745195 
L 594.604654 202.90853 
L 592.762778 146.855334 
L 591.542447 10.780006 
L 590.871977 200.069089 
L 589.080476 147.356383 
L 587.859293 -13.132211 
L 587.239154 203.28065 
L 585.398387 147.732468 
L 584.17601 -13.32382 
L 583.556937 203.455048 
L 581.715829 148.0343 
L 580.493793 -9.355744 
L 579.870757 204.54846 
L 578.028711 95.980913 
L 577.108839 94.685322 
L 576.194848 207.351237 
L 574.310396 143.392647 
L 573.136732 -7.266836 
L 572.516509 219.897717 
L 570.388025 101.369384 
L 569.451575 234.72026 
L 566.927466 120.680287 
L 565.900579 56.636576 
L 565.130766 206.57583 
L 563.279045 150.7536 
L 562.064212 19.49965 
L 561.392889 204.116076 
L 559.586941 106.894735 
L 558.63242 86.350763 
L 557.765522 206.653003 
L 555.920876 99.585041 
L 555.001132 242.075809 
L 552.242836 101.385696 
L 551.319341 242.623685 
L 548.55478 101.091518 
L 547.638275 242.934847 
L 544.872649 102.37781 
L 543.952052 242.998864 
L 541.190432 99.514329 
L 540.283601 243.464541 
L 537.507916 103.694124 
L 536.587447 104.271186 
L 535.667234 209.162176 
L 533.825699 106.113894 
L 532.905273 106.793379 
L 531.984378 244.468732 
L 525.544803 108.500612 
L 524.622842 211.102334 
L 522.779006 108.951 
L 521.858239 106.484436 
L 520.948595 211.724106 
L 519.096363 110.262892 
L 518.176064 245.950208 
L 515.414572 111.726582 
L 514.495467 111.979376 
L 513.576106 218.855614 
L 511.616135 83.268818 
L 510.812398 111.034816 
L 509.89879 213.53517 
L 508.049456 113.058661 
L 507.12903 113.228101 
L 506.208348 213.246547 
L 504.36741 113.317934 
L 503.447154 113.169342 
L 502.529796 213.999324 
L 500.684895 114.40052 
L 499.764511 113.732084 
L 498.847409 214.092967 
L 497.002635 114.661034 
L 496.081868 113.915107 
L 495.164851 228.363878 
L 493.012118 17.101815 
L 492.395943 113.797091 
L 491.481824 214.60036 
L 489.634195 115.424608 
L 488.713513 114.707912 
L 487.797178 214.535662 
L 485.954961 116.392248 
L 485.031637 115.496633 
L 484.112915 214.73109 
L 482.269591 116.101668 
L 481.349122 116.251186 
L 480.428653 214.439168 
L 478.59398 116.711585 
L 477.673596 116.177691 
L 476.756792 215.470134 
L 474.909461 118.027358 
L 473.984773 115.812167 
L 473.071379 222.356285 
L 471.089076 83.291365 
L 470.306562 117.373761 
L 469.390398 215.730973 
L 467.551889 118.673744 
L 466.631249 118.097601 
L 465.713977 222.383698 
L 463.744886 90.559625 
L 462.941873 118.738521 
L 462.02298 216.393785 
L 460.179997 119.422706 
L 459.25957 119.450888 
L 458.339101 216.48699 
L 456.49795 120.919 
L 455.577226 121.130583 
L 454.658078 217.667333 
L 452.81633 122.588735 
L 451.895094 122.222636 
L 450.976116 217.662733 
L 449.139824 122.755349 
L 448.219099 122.447122 
L 447.301613 218.910135 
L 445.450745 123.709743 
L 444.530276 123.372548 
L 443.611938 218.372005 
L 441.775944 125.664328 
L 440.851 123.973398 
L 439.937989 220.219508 
L 438.086397 126.992612 
L 437.162177 125.692236 
L 436.24516 220.269394 
L 434.401495 127.485203 
L 433.479875 127.333803 
L 432.559278 220.350947 
L 430.71834 127.712842 
L 429.79753 127.052667 
L 428.880258 220.370721 
L 427.042218 128.024092 
L 426.12145 127.933241 
L 425.201408 221.037646 
L 423.353736 128.323549 
L 422.433011 128.2481 
L 421.513054 220.824575 
L 419.675184 149.597648 
L 418.639007 102.833466 
L 417.83382 221.242793 
L 415.992584 129.311675 
L 415.072072 129.843869 
L 414.151901 222.095975 
L 412.311262 131.856474 
L 411.389983 132.838777 
L 410.469471 224.054985 
L 408.62815 137.494868 
L 407.707851 138.773064 
L 406.787041 226.534262 
L 404.945762 180.883844 
L 403.750661 70.738479 
L 403.104696 228.796308 
L 401.263588 146.521412 
L 400.342991 148.051136 
L 399.419922 231.443943 
L 397.581499 151.409465 
L 396.660732 151.984004 
L 395.740518 232.979967 
L 393.898984 154.553332 
L 392.978259 155.458077 
L 392.058387 234.944704 
L 390.216895 158.71887 
L 389.296127 159.618068 
L 388.375701 236.536423 
L 386.534678 159.94396 
L 385.614166 159.734362 
L 384.695103 236.877252 
L 382.85229 160.56265 
L 381.931906 160.568901 
L 381.011821 236.966424 
L 379.170286 160.815503 
L 378.249306 160.822109 
L 377.328837 237.216649 
L 375.487984 162.963639 
L 374.563637 162.876621 
L 373.643722 238.408504 
L 371.801974 164.799342 
L 370.881335 165.20909 
L 369.9624 239.87068 
L 368.119629 167.191205 
L 367.199672 167.611096 
L 366.28176 241.055423 
L 364.437455 169.68606 
L 363.516858 170.303556 
L 362.597071 242.214795 
L 360.755068 172.243016 
L 359.834641 172.93767 
L 358.91609 243.638634 
L 357.073234 174.32846 
L 356.152339 174.393711 
L 355.232168 244.155948 
L 353.391145 176.298578 
L 352.470463 176.821344 
L 351.549909 248.535996 
L 349.613208 162.767499 
L 348.788246 178.208792 
L 347.873019 246.435807 
L 346.029908 179.478204 
L 345.110419 179.836321 
L 344.189012 246.529309 
L 342.347733 179.905515 
L 341.427179 180.044629 
L 340.506625 246.700641 
L 338.665687 180.428674 
L 337.744792 180.365775 
L 336.825132 246.904742 
L 334.98445 180.858726 
L 334.062788 180.86919 
L 333.14202 247.143893 
L 331.300784 181.208206 
L 330.3804 181.472692 
L 329.459803 247.462283 
L 327.61861 181.896221 
L 326.698055 182.077001 
L 325.777459 247.734667 
L 323.936435 182.619508 
L 323.015711 183.032521 
L 322.096904 248.433119 
L 320.254048 183.589029 
L 319.334431 183.818567 
L 318.414005 248.681525 
L 316.571831 184.110409 
L 315.651362 217.897394 
L 314.405588 235.033004 
L 312.889955 184.514684 
L 311.969742 184.778446 
L 311.049486 249.165442 
L 309.21298 185.628651 
L 308.292085 185.702756 
L 307.371318 249.645726 
L 305.531402 187.120334 
L 304.60437 186.704171 
L 303.683816 250.106213 
L 301.842921 187.239754 
L 300.922111 187.605194 
L 300.001727 250.501397 
L 298.160363 188.4097 
L 297.240448 188.786207 
L 296.320618 259.735634 
L 294.182077 128.913087 
L 293.562706 189.466257 
L 292.644964 252.014748 
L 290.795673 190.589517 
L 289.875417 191.12304 
L 288.954692 252.012312 
L 287.11938 191.584342 
L 286.198144 192.098331 
L 285.277931 253.086661 
L 283.437035 194.697294 
L 282.516268 196.280625 
L 281.595884 258.618872 
L 279.652748 186.05972 
L 278.828596 200.182534 
L 277.907999 256.998028 
L 276.066891 201.842469 
L 275.146208 201.897472 
L 274.230342 258.318486 
L 272.38429 204.374601 
L 271.463736 205.178426 
L 270.54348 259.563436 
L 268.702371 206.883594 
L 267.781434 207.457154 
L 266.86105 260.584615 
L 265.024842 209.339373 
L 264.102924 209.399084 
L 263.18676 262.221543 
L 261.33781 212.233664 
L 260.417 244.76497 
L 259.069624 256.796692 
L 257.448809 186.65401 
L 256.734655 215.756862 
L 255.814015 264.823726 
L 253.976998 217.979369 
L 253.052992 218.346901 
L 252.132054 266.143143 
L 250.290818 220.294831 
L 249.369965 220.913359 
L 248.449539 267.27448 
L 246.614013 220.551202 
L 245.716984 225.858174 
L 244.771925 268.866828 
L 242.92583 225.339991 
L 242.005361 226.227115 
L 241.084636 273.045715 
L 239.108641 213.605212 
L 238.322803 228.503528 
L 237.40438 271.403582 
L 235.561055 246.381695 
L 234.40951 201.950019 
L 233.720202 271.590648 
L 231.879094 230.138537 
L 230.958241 230.706014 
L 230.037644 272.262253 
L 228.196706 232.486518 
L 227.276365 233.24395 
L 226.35547 273.529261 
L 224.515129 234.768447 
L 223.597217 235.9865 
L 222.672997 274.844184 
L 220.831846 237.75101 
L 219.911335 238.605896 
L 218.990781 277.652072 
L 217.078159 234.442745 
L 216.228862 241.050103 
L 215.309629 277.521391 
L 213.466986 242.623026 
L 212.547071 243.268344 
L 211.626134 278.508798 
L 209.784812 244.812797 
L 208.864471 245.657853 
L 207.943576 279.993081 
L 206.102382 262.71232 
L 204.926203 225.941046 
L 204.261146 281.97433 
L 202.423319 252.187932 
L 201.499355 253.550507 
L 200.579866 284.134982 
L 198.737522 257.220546 
L 197.81701 258.380601 
L 196.896499 286.43452 
L 195.05522 261.725934 
L 194.134665 262.791422 
L 193.214324 288.551166 
L 191.372917 265.808728 
L 190.452235 266.844585 
L 189.535432 290.722606 
L 187.694238 269.337366 
L 186.773598 269.889105 
L 185.853044 294.728885 
L 183.727075 270.31357 
L 182.838399 256.803214 
L 182.172063 294.748517 
L 180.156731 279.275569 
L 179.092724 298.912998 
L 176.647246 275.777127 
L 175.727331 276.159771 
L 174.806138 294.866726 
L 172.967032 276.597034 
L 172.046478 276.8361 
L 171.12375 295.042395 
L 169.282471 276.954127 
L 168.362173 280.90524 
L 167.332303 294.024232 
L 165.603578 277.42964 
L 164.680808 278.068485 
L 163.758933 297.754941 
L 161.714365 270.255852 
L 161.00264 280.550874 
L 160.080168 297.969985 
L 158.175729 284.001235 
L 157.260459 283.868214 
L 156.398036 299.97739 
L 154.553433 287.632387 
L 153.632751 288.666449 
L 152.712367 302.565018 
L 150.706155 286.565777 
L 149.950534 291.782621 
L 149.029681 302.821293 
L 147.191471 293.551765 
L 146.271002 294.11007 
L 145.350448 304.121349 
L 143.470088 294.947153 
L 142.589211 296.246168 
L 141.668486 305.033243 
L 139.823926 297.84283 
L 138.904096 298.8027 
L 137.982775 306.666687 
L 136.14286 301.471816 
L 135.221155 302.276036 
L 134.300473 308.482339 
L 132.372125 302.549125 
L 131.540515 304.194203 
L 130.61996 308.822501 
L 128.733634 303.979335 
L 127.858212 304.488019 
L 126.937914 309.124623 
L 125.096422 305.704527 
L 124.176677 306.274635 
L 123.255228 309.911775 
L 121.41412 306.718942 
L 120.49348 306.895311 
L 119.573011 311.149728 
L 109.447341 307.054827 
L 108.526062 310.154755 
L 106.684911 307.404778 
L 105.764485 308.164318 
L 104.843845 310.996031 
L 103.002694 309.729046 
L 102.081884 310.353922 
L 101.165847 312.353538 
L 99.013796 310.848753 
L 98.396769 311.875831 
L 97.474127 312.605804 
L 95.638345 312.181223 
L 94.717535 312.335044 
L 93.796896 312.89201 
L 91.636364 313.2 
z
" style="fill:#ffa07a;fill-opacity:0.3;"/>
   </g>
   <g id="matplotlib.axis_1">
    <g id="xtick_1">
     <g id="line2d_1">
      <path clip-path="url(#pf34f844165)" d="M 91.636364 313.2 
L 91.636364 28.8 
" style="fill:none;stroke:#808080;stroke-dasharray:6.4,1.6,1,1.6;stroke-dashoffset:0;stroke-opacity:0.3;"/>
     </g>
     <g id="line2d_2">
      <defs>
       <path d="M 0 0 
L 0 3.5 
" id="m8799153b0e" style="stroke:#000000;stroke-width:0.8;"/>
      </defs>
      <g>
       <use style="stroke:#000000;stroke-width:0.8;" x="91.636364" xlink:href="#m8799153b0e" y="313.2"/>
      </g>
     </g>
     <g id="text_1">
      <!-- 2020-11-20 -->
      <g transform="translate(62.578551 327.798437)scale(0.1 -0.1)">
       <defs>
        <path d="M 19.1875 8.296875 
L 53.609375 8.296875 
L 53.609375 0 
L 7.328125 0 
L 7.328125 8.296875 
Q 12.9375 14.109375 22.625 23.890625 
Q 32.328125 33.6875 34.8125 36.53125 
Q 39.546875 41.84375 41.421875 45.53125 
Q 43.3125 49.21875 43.3125 52.78125 
Q 43.3125 58.59375 39.234375 62.25 
Q 35.15625 65.921875 28.609375 65.921875 
Q 23.96875 65.921875 18.8125 64.3125 
Q 13.671875 62.703125 7.8125 59.421875 
L 7.8125 69.390625 
Q 13.765625 71.78125 18.9375 73 
Q 24.125 74.21875 28.421875 74.21875 
Q 39.75 74.21875 46.484375 68.546875 
Q 53.21875 62.890625 53.21875 53.421875 
Q 53.21875 48.921875 51.53125 44.890625 
Q 49.859375 40.875 45.40625 35.40625 
Q 44.1875 33.984375 37.640625 27.21875 
Q 31.109375 20.453125 19.1875 8.296875 
z
" id="DejaVuSans-50"/>
        <path d="M 31.78125 66.40625 
Q 24.171875 66.40625 20.328125 58.90625 
Q 16.5 51.421875 16.5 36.375 
Q 16.5 21.390625 20.328125 13.890625 
Q 24.171875 6.390625 31.78125 6.390625 
Q 39.453125 6.390625 43.28125 13.890625 
Q 47.125 21.390625 47.125 36.375 
Q 47.125 51.421875 43.28125 58.90625 
Q 39.453125 66.40625 31.78125 66.40625 
z
M 31.78125 74.21875 
Q 44.046875 74.21875 50.515625 64.515625 
Q 56.984375 54.828125 56.984375 36.375 
Q 56.984375 17.96875 50.515625 8.265625 
Q 44.046875 -1.421875 31.78125 -1.421875 
Q 19.53125 -1.421875 13.0625 8.265625 
Q 6.59375 17.96875 6.59375 36.375 
Q 6.59375 54.828125 13.0625 64.515625 
Q 19.53125 74.21875 31.78125 74.21875 
z
" id="DejaVuSans-48"/>
        <path d="M 4.890625 31.390625 
L 31.203125 31.390625 
L 31.203125 23.390625 
L 4.890625 23.390625 
z
" id="DejaVuSans-45"/>
        <path d="M 12.40625 8.296875 
L 28.515625 8.296875 
L 28.515625 63.921875 
L 10.984375 60.40625 
L 10.984375 69.390625 
L 28.421875 72.90625 
L 38.28125 72.90625 
L 38.28125 8.296875 
L 54.390625 8.296875 
L 54.390625 0 
L 12.40625 0 
z
" id="DejaVuSans-49"/>
       </defs>
       <use xlink:href="#DejaVuSans-50"/>
       <use x="63.623047" xlink:href="#DejaVuSans-48"/>
       <use x="127.246094" xlink:href="#DejaVuSans-50"/>
       <use x="190.869141" xlink:href="#DejaVuSans-48"/>
       <use x="254.492188" xlink:href="#DejaVuSans-45"/>
       <use x="290.576172" xlink:href="#DejaVuSans-49"/>
       <use x="354.199219" xlink:href="#DejaVuSans-49"/>
       <use x="417.822266" xlink:href="#DejaVuSans-45"/>
       <use x="453.90625" xlink:href="#DejaVuSans-50"/>
       <use x="517.529297" xlink:href="#DejaVuSans-48"/>
      </g>
     </g>
    </g>
    <g id="xtick_2">
     <g id="line2d_3">
      <path clip-path="url(#pf34f844165)" d="M 167.910858 313.2 
L 167.910858 28.8 
" style="fill:none;stroke:#808080;stroke-dasharray:6.4,1.6,1,1.6;stroke-dashoffset:0;stroke-opacity:0.3;"/>
     </g>
     <g id="line2d_4">
      <g>
       <use style="stroke:#000000;stroke-width:0.8;" x="167.910858" xlink:href="#m8799153b0e" y="313.2"/>
      </g>
     </g>
     <g id="text_2">
      <!-- 2020-12-11 -->
      <g transform="translate(138.853045 327.798437)scale(0.1 -0.1)">
       <use xlink:href="#DejaVuSans-50"/>
       <use x="63.623047" xlink:href="#DejaVuSans-48"/>
       <use x="127.246094" xlink:href="#DejaVuSans-50"/>
       <use x="190.869141" xlink:href="#DejaVuSans-48"/>
       <use x="254.492188" xlink:href="#DejaVuSans-45"/>
       <use x="290.576172" xlink:href="#DejaVuSans-49"/>
       <use x="354.199219" xlink:href="#DejaVuSans-50"/>
       <use x="417.822266" xlink:href="#DejaVuSans-45"/>
       <use x="453.90625" xlink:href="#DejaVuSans-49"/>
       <use x="517.529297" xlink:href="#DejaVuSans-49"/>
      </g>
     </g>
    </g>
    <g id="xtick_3">
     <g id="line2d_5">
      <path clip-path="url(#pf34f844165)" d="M 244.185351 313.2 
L 244.185351 28.8 
" style="fill:none;stroke:#808080;stroke-dasharray:6.4,1.6,1,1.6;stroke-dashoffset:0;stroke-opacity:0.3;"/>
     </g>
     <g id="line2d_6">
      <g>
       <use style="stroke:#000000;stroke-width:0.8;" x="244.185351" xlink:href="#m8799153b0e" y="313.2"/>
      </g>
     </g>
     <g id="text_3">
      <!-- 2021-01-01 -->
      <g transform="translate(215.127539 327.798437)scale(0.1 -0.1)">
       <use xlink:href="#DejaVuSans-50"/>
       <use x="63.623047" xlink:href="#DejaVuSans-48"/>
       <use x="127.246094" xlink:href="#DejaVuSans-50"/>
       <use x="190.869141" xlink:href="#DejaVuSans-49"/>
       <use x="254.492188" xlink:href="#DejaVuSans-45"/>
       <use x="290.576172" xlink:href="#DejaVuSans-48"/>
       <use x="354.199219" xlink:href="#DejaVuSans-49"/>
       <use x="417.822266" xlink:href="#DejaVuSans-45"/>
       <use x="453.90625" xlink:href="#DejaVuSans-48"/>
       <use x="517.529297" xlink:href="#DejaVuSans-49"/>
      </g>
     </g>
    </g>
    <g id="xtick_4">
     <g id="line2d_7">
      <path clip-path="url(#pf34f844165)" d="M 320.459845 313.2 
L 320.459845 28.8 
" style="fill:none;stroke:#808080;stroke-dasharray:6.4,1.6,1,1.6;stroke-dashoffset:0;stroke-opacity:0.3;"/>
     </g>
     <g id="line2d_8">
      <g>
       <use style="stroke:#000000;stroke-width:0.8;" x="320.459845" xlink:href="#m8799153b0e" y="313.2"/>
      </g>
     </g>
     <g id="text_4">
      <!-- 2021-01-22 -->
      <g transform="translate(291.402033 327.798437)scale(0.1 -0.1)">
       <use xlink:href="#DejaVuSans-50"/>
       <use x="63.623047" xlink:href="#DejaVuSans-48"/>
       <use x="127.246094" xlink:href="#DejaVuSans-50"/>
       <use x="190.869141" xlink:href="#DejaVuSans-49"/>
       <use x="254.492188" xlink:href="#DejaVuSans-45"/>
       <use x="290.576172" xlink:href="#DejaVuSans-48"/>
       <use x="354.199219" xlink:href="#DejaVuSans-49"/>
       <use x="417.822266" xlink:href="#DejaVuSans-45"/>
       <use x="453.90625" xlink:href="#DejaVuSans-50"/>
       <use x="517.529297" xlink:href="#DejaVuSans-50"/>
      </g>
     </g>
    </g>
    <g id="xtick_5">
     <g id="line2d_9">
      <path clip-path="url(#pf34f844165)" d="M 396.734339 313.2 
L 396.734339 28.8 
" style="fill:none;stroke:#808080;stroke-dasharray:6.4,1.6,1,1.6;stroke-dashoffset:0;stroke-opacity:0.3;"/>
     </g>
     <g id="line2d_10">
      <g>
       <use style="stroke:#000000;stroke-width:0.8;" x="396.734339" xlink:href="#m8799153b0e" y="313.2"/>
      </g>
     </g>
     <g id="text_5">
      <!-- 2021-02-11 -->
      <g transform="translate(367.676527 327.798437)scale(0.1 -0.1)">
       <use xlink:href="#DejaVuSans-50"/>
       <use x="63.623047" xlink:href="#DejaVuSans-48"/>
       <use x="127.246094" xlink:href="#DejaVuSans-50"/>
       <use x="190.869141" xlink:href="#DejaVuSans-49"/>
       <use x="254.492188" xlink:href="#DejaVuSans-45"/>
       <use x="290.576172" xlink:href="#DejaVuSans-48"/>
       <use x="354.199219" xlink:href="#DejaVuSans-50"/>
       <use x="417.822266" xlink:href="#DejaVuSans-45"/>
       <use x="453.90625" xlink:href="#DejaVuSans-49"/>
       <use x="517.529297" xlink:href="#DejaVuSans-49"/>
      </g>
     </g>
    </g>
    <g id="xtick_6">
     <g id="line2d_11">
      <path clip-path="url(#pf34f844165)" d="M 473.008833 313.2 
L 473.008833 28.8 
" style="fill:none;stroke:#808080;stroke-dasharray:6.4,1.6,1,1.6;stroke-dashoffset:0;stroke-opacity:0.3;"/>
     </g>
     <g id="line2d_12">
      <g>
       <use style="stroke:#000000;stroke-width:0.8;" x="473.008833" xlink:href="#m8799153b0e" y="313.2"/>
      </g>
     </g>
     <g id="text_6">
      <!-- 2021-03-04 -->
      <g transform="translate(443.951021 327.798437)scale(0.1 -0.1)">
       <defs>
        <path d="M 40.578125 39.3125 
Q 47.65625 37.796875 51.625 33 
Q 55.609375 28.21875 55.609375 21.1875 
Q 55.609375 10.40625 48.1875 4.484375 
Q 40.765625 -1.421875 27.09375 -1.421875 
Q 22.515625 -1.421875 17.65625 -0.515625 
Q 12.796875 0.390625 7.625 2.203125 
L 7.625 11.71875 
Q 11.71875 9.328125 16.59375 8.109375 
Q 21.484375 6.890625 26.8125 6.890625 
Q 36.078125 6.890625 40.9375 10.546875 
Q 45.796875 14.203125 45.796875 21.1875 
Q 45.796875 27.640625 41.28125 31.265625 
Q 36.765625 34.90625 28.71875 34.90625 
L 20.21875 34.90625 
L 20.21875 43.015625 
L 29.109375 43.015625 
Q 36.375 43.015625 40.234375 45.921875 
Q 44.09375 48.828125 44.09375 54.296875 
Q 44.09375 59.90625 40.109375 62.90625 
Q 36.140625 65.921875 28.71875 65.921875 
Q 24.65625 65.921875 20.015625 65.03125 
Q 15.375 64.15625 9.8125 62.3125 
L 9.8125 71.09375 
Q 15.4375 72.65625 20.34375 73.4375 
Q 25.25 74.21875 29.59375 74.21875 
Q 40.828125 74.21875 47.359375 69.109375 
Q 53.90625 64.015625 53.90625 55.328125 
Q 53.90625 49.265625 50.4375 45.09375 
Q 46.96875 40.921875 40.578125 39.3125 
z
" id="DejaVuSans-51"/>
        <path d="M 37.796875 64.3125 
L 12.890625 25.390625 
L 37.796875 25.390625 
z
M 35.203125 72.90625 
L 47.609375 72.90625 
L 47.609375 25.390625 
L 58.015625 25.390625 
L 58.015625 17.1875 
L 47.609375 17.1875 
L 47.609375 0 
L 37.796875 0 
L 37.796875 17.1875 
L 4.890625 17.1875 
L 4.890625 26.703125 
z
" id="DejaVuSans-52"/>
       </defs>
       <use xlink:href="#DejaVuSans-50"/>
       <use x="63.623047" xlink:href="#DejaVuSans-48"/>
       <use x="127.246094" xlink:href="#DejaVuSans-50"/>
       <use x="190.869141" xlink:href="#DejaVuSans-49"/>
       <use x="254.492188" xlink:href="#DejaVuSans-45"/>
       <use x="290.576172" xlink:href="#DejaVuSans-48"/>
       <use x="354.199219" xlink:href="#DejaVuSans-51"/>
       <use x="417.822266" xlink:href="#DejaVuSans-45"/>
       <use x="453.90625" xlink:href="#DejaVuSans-48"/>
       <use x="517.529297" xlink:href="#DejaVuSans-52"/>
      </g>
     </g>
    </g>
    <g id="xtick_7">
     <g id="line2d_13">
      <path clip-path="url(#pf34f844165)" d="M 549.283327 313.2 
L 549.283327 28.8 
" style="fill:none;stroke:#808080;stroke-dasharray:6.4,1.6,1,1.6;stroke-dashoffset:0;stroke-opacity:0.3;"/>
     </g>
     <g id="line2d_14">
      <g>
       <use style="stroke:#000000;stroke-width:0.8;" x="549.283327" xlink:href="#m8799153b0e" y="313.2"/>
      </g>
     </g>
     <g id="text_7">
      <!-- 2021-03-25 -->
      <g transform="translate(520.225515 327.798437)scale(0.1 -0.1)">
       <defs>
        <path d="M 10.796875 72.90625 
L 49.515625 72.90625 
L 49.515625 64.59375 
L 19.828125 64.59375 
L 19.828125 46.734375 
Q 21.96875 47.46875 24.109375 47.828125 
Q 26.265625 48.1875 28.421875 48.1875 
Q 40.625 48.1875 47.75 41.5 
Q 54.890625 34.8125 54.890625 23.390625 
Q 54.890625 11.625 47.5625 5.09375 
Q 40.234375 -1.421875 26.90625 -1.421875 
Q 22.3125 -1.421875 17.546875 -0.640625 
Q 12.796875 0.140625 7.71875 1.703125 
L 7.71875 11.625 
Q 12.109375 9.234375 16.796875 8.0625 
Q 21.484375 6.890625 26.703125 6.890625 
Q 35.15625 6.890625 40.078125 11.328125 
Q 45.015625 15.765625 45.015625 23.390625 
Q 45.015625 31 40.078125 35.4375 
Q 35.15625 39.890625 26.703125 39.890625 
Q 22.75 39.890625 18.8125 39.015625 
Q 14.890625 38.140625 10.796875 36.28125 
z
" id="DejaVuSans-53"/>
       </defs>
       <use xlink:href="#DejaVuSans-50"/>
       <use x="63.623047" xlink:href="#DejaVuSans-48"/>
       <use x="127.246094" xlink:href="#DejaVuSans-50"/>
       <use x="190.869141" xlink:href="#DejaVuSans-49"/>
       <use x="254.492188" xlink:href="#DejaVuSans-45"/>
       <use x="290.576172" xlink:href="#DejaVuSans-48"/>
       <use x="354.199219" xlink:href="#DejaVuSans-51"/>
       <use x="417.822266" xlink:href="#DejaVuSans-45"/>
       <use x="453.90625" xlink:href="#DejaVuSans-50"/>
       <use x="517.529297" xlink:href="#DejaVuSans-53"/>
      </g>
     </g>
    </g>
    <g id="xtick_8">
     <g id="line2d_15">
      <path clip-path="url(#pf34f844165)" d="M 625.557821 313.2 
L 625.557821 28.8 
" style="fill:none;stroke:#808080;stroke-dasharray:6.4,1.6,1,1.6;stroke-dashoffset:0;stroke-opacity:0.3;"/>
     </g>
     <g id="line2d_16">
      <g>
       <use style="stroke:#000000;stroke-width:0.8;" x="625.557821" xlink:href="#m8799153b0e" y="313.2"/>
      </g>
     </g>
     <g id="text_8">
      <!-- 2021-04-14 -->
      <g transform="translate(596.500009 327.798437)scale(0.1 -0.1)">
       <use xlink:href="#DejaVuSans-50"/>
       <use x="63.623047" xlink:href="#DejaVuSans-48"/>
       <use x="127.246094" xlink:href="#DejaVuSans-50"/>
       <use x="190.869141" xlink:href="#DejaVuSans-49"/>
       <use x="254.492188" xlink:href="#DejaVuSans-45"/>
       <use x="290.576172" xlink:href="#DejaVuSans-48"/>
       <use x="354.199219" xlink:href="#DejaVuSans-52"/>
       <use x="417.822266" xlink:href="#DejaVuSans-45"/>
       <use x="453.90625" xlink:href="#DejaVuSans-49"/>
       <use x="517.529297" xlink:href="#DejaVuSans-52"/>
      </g>
     </g>
    </g>
    <g id="text_9">
     <!-- Datum -->
     <g transform="translate(343.086719 341.476562)scale(0.1 -0.1)">
      <defs>
       <path d="M 19.671875 64.796875 
L 19.671875 8.109375 
L 31.59375 8.109375 
Q 46.6875 8.109375 53.6875 14.9375 
Q 60.6875 21.78125 60.6875 36.53125 
Q 60.6875 51.171875 53.6875 57.984375 
Q 46.6875 64.796875 31.59375 64.796875 
z
M 9.8125 72.90625 
L 30.078125 72.90625 
Q 51.265625 72.90625 61.171875 64.09375 
Q 71.09375 55.28125 71.09375 36.53125 
Q 71.09375 17.671875 61.125 8.828125 
Q 51.171875 0 30.078125 0 
L 9.8125 0 
z
" id="DejaVuSans-68"/>
       <path d="M 34.28125 27.484375 
Q 23.390625 27.484375 19.1875 25 
Q 14.984375 22.515625 14.984375 16.5 
Q 14.984375 11.71875 18.140625 8.90625 
Q 21.296875 6.109375 26.703125 6.109375 
Q 34.1875 6.109375 38.703125 11.40625 
Q 43.21875 16.703125 43.21875 25.484375 
L 43.21875 27.484375 
z
M 52.203125 31.203125 
L 52.203125 0 
L 43.21875 0 
L 43.21875 8.296875 
Q 40.140625 3.328125 35.546875 0.953125 
Q 30.953125 -1.421875 24.3125 -1.421875 
Q 15.921875 -1.421875 10.953125 3.296875 
Q 6 8.015625 6 15.921875 
Q 6 25.140625 12.171875 29.828125 
Q 18.359375 34.515625 30.609375 34.515625 
L 43.21875 34.515625 
L 43.21875 35.40625 
Q 43.21875 41.609375 39.140625 45 
Q 35.0625 48.390625 27.6875 48.390625 
Q 23 48.390625 18.546875 47.265625 
Q 14.109375 46.140625 10.015625 43.890625 
L 10.015625 52.203125 
Q 14.9375 54.109375 19.578125 55.046875 
Q 24.21875 56 28.609375 56 
Q 40.484375 56 46.34375 49.84375 
Q 52.203125 43.703125 52.203125 31.203125 
z
" id="DejaVuSans-97"/>
       <path d="M 18.3125 70.21875 
L 18.3125 54.6875 
L 36.8125 54.6875 
L 36.8125 47.703125 
L 18.3125 47.703125 
L 18.3125 18.015625 
Q 18.3125 11.328125 20.140625 9.421875 
Q 21.96875 7.515625 27.59375 7.515625 
L 36.8125 7.515625 
L 36.8125 0 
L 27.59375 0 
Q 17.1875 0 13.234375 3.875 
Q 9.28125 7.765625 9.28125 18.015625 
L 9.28125 47.703125 
L 2.6875 47.703125 
L 2.6875 54.6875 
L 9.28125 54.6875 
L 9.28125 70.21875 
z
" id="DejaVuSans-116"/>
       <path d="M 8.5 21.578125 
L 8.5 54.6875 
L 17.484375 54.6875 
L 17.484375 21.921875 
Q 17.484375 14.15625 20.5 10.265625 
Q 23.53125 6.390625 29.59375 6.390625 
Q 36.859375 6.390625 41.078125 11.03125 
Q 45.3125 15.671875 45.3125 23.6875 
L 45.3125 54.6875 
L 54.296875 54.6875 
L 54.296875 0 
L 45.3125 0 
L 45.3125 8.40625 
Q 42.046875 3.421875 37.71875 1 
Q 33.40625 -1.421875 27.6875 -1.421875 
Q 18.265625 -1.421875 13.375 4.4375 
Q 8.5 10.296875 8.5 21.578125 
z
M 31.109375 56 
z
" id="DejaVuSans-117"/>
       <path d="M 52 44.1875 
Q 55.375 50.25 60.0625 53.125 
Q 64.75 56 71.09375 56 
Q 79.640625 56 84.28125 50.015625 
Q 88.921875 44.046875 88.921875 33.015625 
L 88.921875 0 
L 79.890625 0 
L 79.890625 32.71875 
Q 79.890625 40.578125 77.09375 44.375 
Q 74.3125 48.1875 68.609375 48.1875 
Q 61.625 48.1875 57.5625 43.546875 
Q 53.515625 38.921875 53.515625 30.90625 
L 53.515625 0 
L 44.484375 0 
L 44.484375 32.71875 
Q 44.484375 40.625 41.703125 44.40625 
Q 38.921875 48.1875 33.109375 48.1875 
Q 26.21875 48.1875 22.15625 43.53125 
Q 18.109375 38.875 18.109375 30.90625 
L 18.109375 0 
L 9.078125 0 
L 9.078125 54.6875 
L 18.109375 54.6875 
L 18.109375 46.1875 
Q 21.1875 51.21875 25.484375 53.609375 
Q 29.78125 56 35.6875 56 
Q 41.65625 56 45.828125 52.96875 
Q 50 49.953125 52 44.1875 
z
" id="DejaVuSans-109"/>
      </defs>
      <use xlink:href="#DejaVuSans-68"/>
      <use x="77.001953" xlink:href="#DejaVuSans-97"/>
      <use x="138.28125" xlink:href="#DejaVuSans-116"/>
      <use x="177.490234" xlink:href="#DejaVuSans-117"/>
      <use x="240.869141" xlink:href="#DejaVuSans-109"/>
     </g>
    </g>
   </g>
   <g id="matplotlib.axis_2">
    <g id="ytick_1">
     <g id="line2d_17">
      <path clip-path="url(#pf34f844165)" d="M 64.8 313.2 
L 655.2 313.2 
" style="fill:none;stroke:#808080;stroke-dasharray:6.4,1.6,1,1.6;stroke-dashoffset:0;stroke-opacity:0.3;"/>
     </g>
     <g id="line2d_18">
      <defs>
       <path d="M 0 0 
L -3.5 0 
" id="mcf181486d4" style="stroke:#000000;stroke-width:0.8;"/>
      </defs>
      <g>
       <use style="stroke:#000000;stroke-width:0.8;" x="64.8" xlink:href="#mcf181486d4" y="313.2"/>
      </g>
     </g>
     <g id="text_10">
      <!-- 0 -->
      <g transform="translate(51.4375 316.999219)scale(0.1 -0.1)">
       <use xlink:href="#DejaVuSans-48"/>
      </g>
     </g>
    </g>
    <g id="ytick_2">
     <g id="line2d_19">
      <path clip-path="url(#pf34f844165)" d="M 64.8 277.65 
L 655.2 277.65 
" style="fill:none;stroke:#808080;stroke-dasharray:6.4,1.6,1,1.6;stroke-dashoffset:0;stroke-opacity:0.3;"/>
     </g>
     <g id="line2d_20">
      <g>
       <use style="stroke:#000000;stroke-width:0.8;" x="64.8" xlink:href="#mcf181486d4" y="277.65"/>
      </g>
     </g>
     <g id="text_11">
      <!-- 500 -->
      <g transform="translate(38.7125 281.449219)scale(0.1 -0.1)">
       <use xlink:href="#DejaVuSans-53"/>
       <use x="63.623047" xlink:href="#DejaVuSans-48"/>
       <use x="127.246094" xlink:href="#DejaVuSans-48"/>
      </g>
     </g>
    </g>
    <g id="ytick_3">
     <g id="line2d_21">
      <path clip-path="url(#pf34f844165)" d="M 64.8 242.1 
L 655.2 242.1 
" style="fill:none;stroke:#808080;stroke-dasharray:6.4,1.6,1,1.6;stroke-dashoffset:0;stroke-opacity:0.3;"/>
     </g>
     <g id="line2d_22">
      <g>
       <use style="stroke:#000000;stroke-width:0.8;" x="64.8" xlink:href="#mcf181486d4" y="242.1"/>
      </g>
     </g>
     <g id="text_12">
      <!-- 1000 -->
      <g transform="translate(32.35 245.899219)scale(0.1 -0.1)">
       <use xlink:href="#DejaVuSans-49"/>
       <use x="63.623047" xlink:href="#DejaVuSans-48"/>
       <use x="127.246094" xlink:href="#DejaVuSans-48"/>
       <use x="190.869141" xlink:href="#DejaVuSans-48"/>
      </g>
     </g>
    </g>
    <g id="ytick_4">
     <g id="line2d_23">
      <path clip-path="url(#pf34f844165)" d="M 64.8 206.55 
L 655.2 206.55 
" style="fill:none;stroke:#808080;stroke-dasharray:6.4,1.6,1,1.6;stroke-dashoffset:0;stroke-opacity:0.3;"/>
     </g>
     <g id="line2d_24">
      <g>
       <use style="stroke:#000000;stroke-width:0.8;" x="64.8" xlink:href="#mcf181486d4" y="206.55"/>
      </g>
     </g>
     <g id="text_13">
      <!-- 1500 -->
      <g transform="translate(32.35 210.349219)scale(0.1 -0.1)">
       <use xlink:href="#DejaVuSans-49"/>
       <use x="63.623047" xlink:href="#DejaVuSans-53"/>
       <use x="127.246094" xlink:href="#DejaVuSans-48"/>
       <use x="190.869141" xlink:href="#DejaVuSans-48"/>
      </g>
     </g>
    </g>
    <g id="ytick_5">
     <g id="line2d_25">
      <path clip-path="url(#pf34f844165)" d="M 64.8 171 
L 655.2 171 
" style="fill:none;stroke:#808080;stroke-dasharray:6.4,1.6,1,1.6;stroke-dashoffset:0;stroke-opacity:0.3;"/>
     </g>
     <g id="line2d_26">
      <g>
       <use style="stroke:#000000;stroke-width:0.8;" x="64.8" xlink:href="#mcf181486d4" y="171"/>
      </g>
     </g>
     <g id="text_14">
      <!-- 2000 -->
      <g transform="translate(32.35 174.799219)scale(0.1 -0.1)">
       <use xlink:href="#DejaVuSans-50"/>
       <use x="63.623047" xlink:href="#DejaVuSans-48"/>
       <use x="127.246094" xlink:href="#DejaVuSans-48"/>
       <use x="190.869141" xlink:href="#DejaVuSans-48"/>
      </g>
     </g>
    </g>
    <g id="ytick_6">
     <g id="line2d_27">
      <path clip-path="url(#pf34f844165)" d="M 64.8 135.45 
L 655.2 135.45 
" style="fill:none;stroke:#808080;stroke-dasharray:6.4,1.6,1,1.6;stroke-dashoffset:0;stroke-opacity:0.3;"/>
     </g>
     <g id="line2d_28">
      <g>
       <use style="stroke:#000000;stroke-width:0.8;" x="64.8" xlink:href="#mcf181486d4" y="135.45"/>
      </g>
     </g>
     <g id="text_15">
      <!-- 2500 -->
      <g transform="translate(32.35 139.249219)scale(0.1 -0.1)">
       <use xlink:href="#DejaVuSans-50"/>
       <use x="63.623047" xlink:href="#DejaVuSans-53"/>
       <use x="127.246094" xlink:href="#DejaVuSans-48"/>
       <use x="190.869141" xlink:href="#DejaVuSans-48"/>
      </g>
     </g>
    </g>
    <g id="ytick_7">
     <g id="line2d_29">
      <path clip-path="url(#pf34f844165)" d="M 64.8 99.9 
L 655.2 99.9 
" style="fill:none;stroke:#808080;stroke-dasharray:6.4,1.6,1,1.6;stroke-dashoffset:0;stroke-opacity:0.3;"/>
     </g>
     <g id="line2d_30">
      <g>
       <use style="stroke:#000000;stroke-width:0.8;" x="64.8" xlink:href="#mcf181486d4" y="99.9"/>
      </g>
     </g>
     <g id="text_16">
      <!-- 3000 -->
      <g transform="translate(32.35 103.699219)scale(0.1 -0.1)">
       <use xlink:href="#DejaVuSans-51"/>
       <use x="63.623047" xlink:href="#DejaVuSans-48"/>
       <use x="127.246094" xlink:href="#DejaVuSans-48"/>
       <use x="190.869141" xlink:href="#DejaVuSans-48"/>
      </g>
     </g>
    </g>
    <g id="ytick_8">
     <g id="line2d_31">
      <path clip-path="url(#pf34f844165)" d="M 64.8 64.35 
L 655.2 64.35 
" style="fill:none;stroke:#808080;stroke-dasharray:6.4,1.6,1,1.6;stroke-dashoffset:0;stroke-opacity:0.3;"/>
     </g>
     <g id="line2d_32">
      <g>
       <use style="stroke:#000000;stroke-width:0.8;" x="64.8" xlink:href="#mcf181486d4" y="64.35"/>
      </g>
     </g>
     <g id="text_17">
      <!-- 3500 -->
      <g transform="translate(32.35 68.149219)scale(0.1 -0.1)">
       <use xlink:href="#DejaVuSans-51"/>
       <use x="63.623047" xlink:href="#DejaVuSans-53"/>
       <use x="127.246094" xlink:href="#DejaVuSans-48"/>
       <use x="190.869141" xlink:href="#DejaVuSans-48"/>
      </g>
     </g>
    </g>
    <g id="ytick_9">
     <g id="line2d_33">
      <path clip-path="url(#pf34f844165)" d="M 64.8 28.8 
L 655.2 28.8 
" style="fill:none;stroke:#808080;stroke-dasharray:6.4,1.6,1,1.6;stroke-dashoffset:0;stroke-opacity:0.3;"/>
     </g>
     <g id="line2d_34">
      <g>
       <use style="stroke:#000000;stroke-width:0.8;" x="64.8" xlink:href="#mcf181486d4" y="28.8"/>
      </g>
     </g>
     <g id="text_18">
      <!-- 4000 -->
      <g transform="translate(32.35 32.599219)scale(0.1 -0.1)">
       <use xlink:href="#DejaVuSans-52"/>
       <use x="63.623047" xlink:href="#DejaVuSans-48"/>
       <use x="127.246094" xlink:href="#DejaVuSans-48"/>
       <use x="190.869141" xlink:href="#DejaVuSans-48"/>
      </g>
     </g>
    </g>
   </g>
   <g id="line2d_35">
    <path clip-path="url(#pf34f844165)" d="M 91.636364 313.117335 
L 93.796896 312.82312 
L 95.638345 312.229436 
L 97.474127 311.921476 
L 99.013796 311.27349 
L 101.165847 310.935238 
L 103.002694 310.247121 
L 104.843845 309.9064 
L 106.684911 309.250144 
L 108.526062 308.937332 
L 109.447341 308.633332 
L 119.573011 308.335078 
L 121.41412 307.73967 
L 123.255228 307.434313 
L 125.096422 306.790479 
L 126.937914 306.445554 
L 128.733634 305.691389 
L 130.61996 305.273232 
L 132.372125 304.33169 
L 134.300473 303.801564 
L 136.14286 302.620038 
L 137.982775 301.974382 
L 139.823926 300.599814 
L 141.668486 299.882701 
L 143.470088 298.410315 
L 145.350448 297.658013 
L 147.191471 296.113444 
L 149.029681 295.313434 
L 149.950534 294.488723 
L 150.706155 293.635336 
L 152.712367 292.751346 
L 154.553433 290.902529 
L 156.398036 289.95582 
L 158.175729 288.10249 
L 160.080168 287.240363 
L 161.714365 285.7521 
L 163.758933 285.154708 
L 165.603578 284.266776 
L 174.806138 282.598126 
L 176.647246 281.760655 
L 179.092724 281.204241 
L 180.156731 280.560715 
L 182.172063 279.842613 
L 182.838399 279.066515 
L 183.727075 278.249242 
L 185.853044 277.404146 
L 187.694238 275.652638 
L 189.535432 274.740303 
L 191.372917 272.793919 
L 193.214324 271.738786 
L 195.05522 269.440886 
L 196.896499 268.207684 
L 198.737522 265.648064 
L 200.579866 264.367188 
L 202.423319 261.925181 
L 204.261146 260.802621 
L 204.926203 259.759492 
L 206.102382 258.795525 
L 207.943576 257.902796 
L 209.784812 256.276683 
L 211.626134 255.514257 
L 213.466986 254.03843 
L 215.309629 253.316051 
L 217.078159 251.898342 
L 218.990781 251.201407 
L 220.831846 249.812435 
L 222.672997 249.107335 
L 224.515129 247.645595 
L 226.35547 246.885526 
L 228.196706 245.334942 
L 230.037644 244.569708 
L 231.879094 243.138303 
L 233.720202 242.499312 
L 234.40951 241.921473 
L 235.561055 241.404035 
L 237.40438 240.939306 
L 239.108641 240.109433 
L 241.084636 239.706584 
L 242.92583 238.826342 
L 244.771925 238.315387 
L 246.614013 237.101103 
L 248.449539 236.396585 
L 250.290818 234.847643 
L 252.132054 234.046319 
L 253.976998 232.518819 
L 255.814015 231.834052 
L 257.448809 230.649574 
L 260.417 229.608843 
L 261.33781 229.076146 
L 263.18676 228.500543 
L 265.024842 227.164134 
L 266.86105 226.400132 
L 268.702371 224.725729 
L 270.54348 223.84009 
L 272.38429 222.020061 
L 274.230342 221.097585 
L 276.066891 219.249662 
L 277.907999 218.332077 
L 279.652748 216.516188 
L 281.595884 215.608326 
L 283.437035 213.733264 
L 285.277931 212.738295 
L 287.11938 210.61491 
L 288.954692 209.521396 
L 290.795673 207.480515 
L 292.644964 206.646336 
L 294.182077 205.591194 
L 297.240448 205.435876 
L 300.922111 206.275863 
L 301.842921 206.613953 
L 307.371318 207.432462 
L 309.21298 207.600152 
L 314.405588 207.701363 
L 316.571831 207.420203 
L 318.414005 207.154865 
L 320.254048 206.415475 
L 322.096904 205.983776 
L 323.936435 205.120428 
L 325.777459 204.728528 
L 327.61861 204.072921 
L 330.3804 203.581504 
L 331.300784 203.381674 
L 334.062788 203.032747 
L 334.98445 202.867028 
L 337.744792 202.510048 
L 338.665687 202.300908 
L 340.506625 202.060283 
L 342.347733 201.464288 
L 344.189012 201.108505 
L 346.029908 200.313745 
L 347.873019 199.897573 
L 349.613208 199.083755 
L 351.549909 198.698245 
L 353.391145 197.958777 
L 355.232168 197.585914 
L 357.073234 196.773922 
L 358.91609 196.31545 
L 360.755068 195.274071 
L 362.597071 194.695616 
L 364.437455 193.455082 
L 366.28176 192.809587 
L 368.119629 191.5098 
L 369.9624 190.871073 
L 371.801974 189.651756 
L 373.643722 189.08421 
L 375.487984 188.059331 
L 377.328837 187.607503 
L 379.170286 186.818351 
L 381.011821 186.468033 
L 382.85229 185.7962 
L 384.695103 185.441666 
L 386.534678 184.598297 
L 388.375701 184.068116 
L 390.216895 182.689722 
L 392.058387 181.806747 
L 393.898984 179.604897 
L 395.740518 178.294606 
L 397.581499 175.375612 
L 399.419922 173.853369 
L 401.263588 170.940691 
L 403.104696 169.636939 
L 403.750661 168.466291 
L 404.945762 167.427205 
L 406.787041 166.500186 
L 408.62815 164.859303 
L 410.469471 164.088988 
L 412.311262 162.595776 
L 414.151901 161.894648 
L 415.992584 160.694411 
L 417.83382 160.233392 
L 418.639007 159.874 
L 419.675184 159.608096 
L 432.559278 158.247292 
L 434.401495 157.848071 
L 436.24516 157.621421 
L 438.086397 157.111879 
L 439.937989 156.832581 
L 441.775944 156.244484 
L 443.611938 155.945236 
L 445.450745 155.353329 
L 447.301613 155.061094 
L 449.139824 154.462495 
L 450.976116 154.138824 
L 452.81633 153.388023 
L 454.658078 152.941487 
L 456.49795 151.887155 
L 458.339101 151.289762 
L 460.179997 150.026692 
L 462.02298 149.402803 
L 463.744886 148.281901 
L 465.713977 147.824848 
L 467.551889 147.192474 
L 470.306562 146.984559 
L 473.071379 147.174635 
L 474.909461 147.614788 
L 478.59398 148.152439 
L 480.428653 148.136414 
L 481.349122 147.957898 
L 482.269591 147.587734 
L 484.112915 147.010402 
L 485.031637 146.230499 
L 485.954961 145.278534 
L 487.797178 144.213604 
L 489.634195 142.103707 
L 491.481824 141.267114 
L 492.395943 140.701393 
L 493.012118 140.464281 
L 495.164851 140.569088 
L 496.081868 140.981344 
L 497.002635 141.625548 
L 498.847409 142.400042 
L 500.684895 143.922112 
L 502.529796 144.512333 
L 503.447154 144.943808 
L 504.36741 145.233747 
L 507.12903 145.61514 
L 508.049456 145.856334 
L 509.89879 146.222618 
L 510.812398 146.754169 
L 511.616135 147.457496 
L 513.576106 148.303857 
L 515.414572 150.173846 
L 518.176064 151.041101 
L 519.096363 151.768469 
L 522.779006 152.848959 
L 531.984378 153.143001 
L 532.905273 153.480814 
L 533.825699 154.087739 
L 535.667234 155.0068 
L 536.587447 156.227855 
L 537.507916 157.679523 
L 540.283601 159.230438 
L 541.190432 160.700933 
L 543.952052 161.884665 
L 544.872649 162.576535 
L 547.638275 162.603199 
L 548.55478 161.851029 
L 551.319341 160.28696 
L 552.242836 157.968235 
L 555.001132 155.039323 
L 555.920876 151.71486 
L 557.765522 148.250885 
L 558.63242 144.908328 
L 559.586941 141.914566 
L 561.392889 139.429805 
L 562.064212 137.525509 
L 563.279045 136.178698 
L 565.130766 135.28303 
L 565.900579 134.674383 
L 566.927466 134.164959 
L 569.451575 133.577762 
L 570.388025 132.774802 
L 572.516509 131.674816 
L 573.136732 130.258119 
L 574.310396 128.560157 
L 576.194848 126.657909 
L 578.028711 122.655071 
L 579.870757 120.766166 
L 580.493793 119.07112 
L 581.715829 117.629252 
L 583.556937 116.469926 
L 584.17601 115.591663 
L 585.398387 114.963933 
L 587.239154 114.531917 
L 587.859293 114.224364 
L 590.871977 113.672975 
L 591.542447 113.291099 
L 594.604654 112.101761 
L 595.222917 111.277993 
L 596.444654 110.328431 
L 598.287851 109.295591 
L 598.913572 108.232945 
L 600.051266 107.198262 
L 601.970835 106.246716 
L 602.590675 105.424896 
L 603.651741 104.765632 
L 605.653137 104.283865 
L 606.271869 103.974885 
L 607.491561 103.815386 
L 609.95285 103.791144 
L 612.87757 103.942688 
L 614.85706 104.407232 
L 616.699873 105.014407 
L 617.316986 106.111211 
L 620.382133 110.610018 
L 620.999373 114.347487 
L 622.22094 119.159793 
L 624.063796 124.96441 
L 624.681973 131.5313 
L 625.903029 138.561435 
L 628.363636 145.591569 
L 628.363636 145.591569 
" style="fill:none;stroke:#ff0000;stroke-linecap:square;stroke-width:1.5;"/>
   </g>
   <g id="patch_3">
    <path d="M 64.8 313.2 
L 64.8 28.8 
" style="fill:none;stroke:#000000;stroke-linecap:square;stroke-linejoin:miter;stroke-width:0.8;"/>
   </g>
   <g id="patch_4">
    <path d="M 655.2 313.2 
L 655.2 28.8 
" style="fill:none;stroke:#000000;stroke-linecap:square;stroke-linejoin:miter;stroke-width:0.8;"/>
   </g>
   <g id="patch_5">
    <path d="M 64.8 313.2 
L 655.2 313.2 
" style="fill:none;stroke:#000000;stroke-linecap:square;stroke-linejoin:miter;stroke-width:0.8;"/>
   </g>
   <g id="patch_6">
    <path d="M 64.8 28.8 
L 655.2 28.8 
" style="fill:none;stroke:#000000;stroke-linecap:square;stroke-linejoin:miter;stroke-width:0.8;"/>
   </g>
   <g id="text_19">
    <!-- Page hits per uur (gemiddeld ongeveer 2357). -->
    <g transform="translate(221.01375 22.8)scale(0.12 -0.12)">
     <defs>
      <path d="M 19.671875 64.796875 
L 19.671875 37.40625 
L 32.078125 37.40625 
Q 38.96875 37.40625 42.71875 40.96875 
Q 46.484375 44.53125 46.484375 51.125 
Q 46.484375 57.671875 42.71875 61.234375 
Q 38.96875 64.796875 32.078125 64.796875 
z
M 9.8125 72.90625 
L 32.078125 72.90625 
Q 44.34375 72.90625 50.609375 67.359375 
Q 56.890625 61.8125 56.890625 51.125 
Q 56.890625 40.328125 50.609375 34.8125 
Q 44.34375 29.296875 32.078125 29.296875 
L 19.671875 29.296875 
L 19.671875 0 
L 9.8125 0 
z
" id="DejaVuSans-80"/>
      <path d="M 45.40625 27.984375 
Q 45.40625 37.75 41.375 43.109375 
Q 37.359375 48.484375 30.078125 48.484375 
Q 22.859375 48.484375 18.828125 43.109375 
Q 14.796875 37.75 14.796875 27.984375 
Q 14.796875 18.265625 18.828125 12.890625 
Q 22.859375 7.515625 30.078125 7.515625 
Q 37.359375 7.515625 41.375 12.890625 
Q 45.40625 18.265625 45.40625 27.984375 
z
M 54.390625 6.78125 
Q 54.390625 -7.171875 48.1875 -13.984375 
Q 42 -20.796875 29.203125 -20.796875 
Q 24.46875 -20.796875 20.265625 -20.09375 
Q 16.0625 -19.390625 12.109375 -17.921875 
L 12.109375 -9.1875 
Q 16.0625 -11.328125 19.921875 -12.34375 
Q 23.78125 -13.375 27.78125 -13.375 
Q 36.625 -13.375 41.015625 -8.765625 
Q 45.40625 -4.15625 45.40625 5.171875 
L 45.40625 9.625 
Q 42.625 4.78125 38.28125 2.390625 
Q 33.9375 0 27.875 0 
Q 17.828125 0 11.671875 7.65625 
Q 5.515625 15.328125 5.515625 27.984375 
Q 5.515625 40.671875 11.671875 48.328125 
Q 17.828125 56 27.875 56 
Q 33.9375 56 38.28125 53.609375 
Q 42.625 51.21875 45.40625 46.390625 
L 45.40625 54.6875 
L 54.390625 54.6875 
z
" id="DejaVuSans-103"/>
      <path d="M 56.203125 29.59375 
L 56.203125 25.203125 
L 14.890625 25.203125 
Q 15.484375 15.921875 20.484375 11.0625 
Q 25.484375 6.203125 34.421875 6.203125 
Q 39.59375 6.203125 44.453125 7.46875 
Q 49.3125 8.734375 54.109375 11.28125 
L 54.109375 2.78125 
Q 49.265625 0.734375 44.1875 -0.34375 
Q 39.109375 -1.421875 33.890625 -1.421875 
Q 20.796875 -1.421875 13.15625 6.1875 
Q 5.515625 13.8125 5.515625 26.8125 
Q 5.515625 40.234375 12.765625 48.109375 
Q 20.015625 56 32.328125 56 
Q 43.359375 56 49.78125 48.890625 
Q 56.203125 41.796875 56.203125 29.59375 
z
M 47.21875 32.234375 
Q 47.125 39.59375 43.09375 43.984375 
Q 39.0625 48.390625 32.421875 48.390625 
Q 24.90625 48.390625 20.390625 44.140625 
Q 15.875 39.890625 15.1875 32.171875 
z
" id="DejaVuSans-101"/>
      <path id="DejaVuSans-32"/>
      <path d="M 54.890625 33.015625 
L 54.890625 0 
L 45.90625 0 
L 45.90625 32.71875 
Q 45.90625 40.484375 42.875 44.328125 
Q 39.84375 48.1875 33.796875 48.1875 
Q 26.515625 48.1875 22.3125 43.546875 
Q 18.109375 38.921875 18.109375 30.90625 
L 18.109375 0 
L 9.078125 0 
L 9.078125 75.984375 
L 18.109375 75.984375 
L 18.109375 46.1875 
Q 21.34375 51.125 25.703125 53.5625 
Q 30.078125 56 35.796875 56 
Q 45.21875 56 50.046875 50.171875 
Q 54.890625 44.34375 54.890625 33.015625 
z
" id="DejaVuSans-104"/>
      <path d="M 9.421875 54.6875 
L 18.40625 54.6875 
L 18.40625 0 
L 9.421875 0 
z
M 9.421875 75.984375 
L 18.40625 75.984375 
L 18.40625 64.59375 
L 9.421875 64.59375 
z
" id="DejaVuSans-105"/>
      <path d="M 44.28125 53.078125 
L 44.28125 44.578125 
Q 40.484375 46.53125 36.375 47.5 
Q 32.28125 48.484375 27.875 48.484375 
Q 21.1875 48.484375 17.84375 46.4375 
Q 14.5 44.390625 14.5 40.28125 
Q 14.5 37.15625 16.890625 35.375 
Q 19.28125 33.59375 26.515625 31.984375 
L 29.59375 31.296875 
Q 39.15625 29.25 43.1875 25.515625 
Q 47.21875 21.78125 47.21875 15.09375 
Q 47.21875 7.46875 41.1875 3.015625 
Q 35.15625 -1.421875 24.609375 -1.421875 
Q 20.21875 -1.421875 15.453125 -0.5625 
Q 10.6875 0.296875 5.421875 2 
L 5.421875 11.28125 
Q 10.40625 8.6875 15.234375 7.390625 
Q 20.0625 6.109375 24.8125 6.109375 
Q 31.15625 6.109375 34.5625 8.28125 
Q 37.984375 10.453125 37.984375 14.40625 
Q 37.984375 18.0625 35.515625 20.015625 
Q 33.0625 21.96875 24.703125 23.78125 
L 21.578125 24.515625 
Q 13.234375 26.265625 9.515625 29.90625 
Q 5.8125 33.546875 5.8125 39.890625 
Q 5.8125 47.609375 11.28125 51.796875 
Q 16.75 56 26.8125 56 
Q 31.78125 56 36.171875 55.265625 
Q 40.578125 54.546875 44.28125 53.078125 
z
" id="DejaVuSans-115"/>
      <path d="M 18.109375 8.203125 
L 18.109375 -20.796875 
L 9.078125 -20.796875 
L 9.078125 54.6875 
L 18.109375 54.6875 
L 18.109375 46.390625 
Q 20.953125 51.265625 25.265625 53.625 
Q 29.59375 56 35.59375 56 
Q 45.5625 56 51.78125 48.09375 
Q 58.015625 40.1875 58.015625 27.296875 
Q 58.015625 14.40625 51.78125 6.484375 
Q 45.5625 -1.421875 35.59375 -1.421875 
Q 29.59375 -1.421875 25.265625 0.953125 
Q 20.953125 3.328125 18.109375 8.203125 
z
M 48.6875 27.296875 
Q 48.6875 37.203125 44.609375 42.84375 
Q 40.53125 48.484375 33.40625 48.484375 
Q 26.265625 48.484375 22.1875 42.84375 
Q 18.109375 37.203125 18.109375 27.296875 
Q 18.109375 17.390625 22.1875 11.75 
Q 26.265625 6.109375 33.40625 6.109375 
Q 40.53125 6.109375 44.609375 11.75 
Q 48.6875 17.390625 48.6875 27.296875 
z
" id="DejaVuSans-112"/>
      <path d="M 41.109375 46.296875 
Q 39.59375 47.171875 37.8125 47.578125 
Q 36.03125 48 33.890625 48 
Q 26.265625 48 22.1875 43.046875 
Q 18.109375 38.09375 18.109375 28.8125 
L 18.109375 0 
L 9.078125 0 
L 9.078125 54.6875 
L 18.109375 54.6875 
L 18.109375 46.1875 
Q 20.953125 51.171875 25.484375 53.578125 
Q 30.03125 56 36.53125 56 
Q 37.453125 56 38.578125 55.875 
Q 39.703125 55.765625 41.0625 55.515625 
z
" id="DejaVuSans-114"/>
      <path d="M 31 75.875 
Q 24.46875 64.65625 21.28125 53.65625 
Q 18.109375 42.671875 18.109375 31.390625 
Q 18.109375 20.125 21.3125 9.0625 
Q 24.515625 -2 31 -13.1875 
L 23.1875 -13.1875 
Q 15.875 -1.703125 12.234375 9.375 
Q 8.59375 20.453125 8.59375 31.390625 
Q 8.59375 42.28125 12.203125 53.3125 
Q 15.828125 64.359375 23.1875 75.875 
z
" id="DejaVuSans-40"/>
      <path d="M 45.40625 46.390625 
L 45.40625 75.984375 
L 54.390625 75.984375 
L 54.390625 0 
L 45.40625 0 
L 45.40625 8.203125 
Q 42.578125 3.328125 38.25 0.953125 
Q 33.9375 -1.421875 27.875 -1.421875 
Q 17.96875 -1.421875 11.734375 6.484375 
Q 5.515625 14.40625 5.515625 27.296875 
Q 5.515625 40.1875 11.734375 48.09375 
Q 17.96875 56 27.875 56 
Q 33.9375 56 38.25 53.625 
Q 42.578125 51.265625 45.40625 46.390625 
z
M 14.796875 27.296875 
Q 14.796875 17.390625 18.875 11.75 
Q 22.953125 6.109375 30.078125 6.109375 
Q 37.203125 6.109375 41.296875 11.75 
Q 45.40625 17.390625 45.40625 27.296875 
Q 45.40625 37.203125 41.296875 42.84375 
Q 37.203125 48.484375 30.078125 48.484375 
Q 22.953125 48.484375 18.875 42.84375 
Q 14.796875 37.203125 14.796875 27.296875 
z
" id="DejaVuSans-100"/>
      <path d="M 9.421875 75.984375 
L 18.40625 75.984375 
L 18.40625 0 
L 9.421875 0 
z
" id="DejaVuSans-108"/>
      <path d="M 30.609375 48.390625 
Q 23.390625 48.390625 19.1875 42.75 
Q 14.984375 37.109375 14.984375 27.296875 
Q 14.984375 17.484375 19.15625 11.84375 
Q 23.34375 6.203125 30.609375 6.203125 
Q 37.796875 6.203125 41.984375 11.859375 
Q 46.1875 17.53125 46.1875 27.296875 
Q 46.1875 37.015625 41.984375 42.703125 
Q 37.796875 48.390625 30.609375 48.390625 
z
M 30.609375 56 
Q 42.328125 56 49.015625 48.375 
Q 55.71875 40.765625 55.71875 27.296875 
Q 55.71875 13.875 49.015625 6.21875 
Q 42.328125 -1.421875 30.609375 -1.421875 
Q 18.84375 -1.421875 12.171875 6.21875 
Q 5.515625 13.875 5.515625 27.296875 
Q 5.515625 40.765625 12.171875 48.375 
Q 18.84375 56 30.609375 56 
z
" id="DejaVuSans-111"/>
      <path d="M 54.890625 33.015625 
L 54.890625 0 
L 45.90625 0 
L 45.90625 32.71875 
Q 45.90625 40.484375 42.875 44.328125 
Q 39.84375 48.1875 33.796875 48.1875 
Q 26.515625 48.1875 22.3125 43.546875 
Q 18.109375 38.921875 18.109375 30.90625 
L 18.109375 0 
L 9.078125 0 
L 9.078125 54.6875 
L 18.109375 54.6875 
L 18.109375 46.1875 
Q 21.34375 51.125 25.703125 53.5625 
Q 30.078125 56 35.796875 56 
Q 45.21875 56 50.046875 50.171875 
Q 54.890625 44.34375 54.890625 33.015625 
z
" id="DejaVuSans-110"/>
      <path d="M 2.984375 54.6875 
L 12.5 54.6875 
L 29.59375 8.796875 
L 46.6875 54.6875 
L 56.203125 54.6875 
L 35.6875 0 
L 23.484375 0 
z
" id="DejaVuSans-118"/>
      <path d="M 8.203125 72.90625 
L 55.078125 72.90625 
L 55.078125 68.703125 
L 28.609375 0 
L 18.3125 0 
L 43.21875 64.59375 
L 8.203125 64.59375 
z
" id="DejaVuSans-55"/>
      <path d="M 8.015625 75.875 
L 15.828125 75.875 
Q 23.140625 64.359375 26.78125 53.3125 
Q 30.421875 42.28125 30.421875 31.390625 
Q 30.421875 20.453125 26.78125 9.375 
Q 23.140625 -1.703125 15.828125 -13.1875 
L 8.015625 -13.1875 
Q 14.5 -2 17.703125 9.0625 
Q 20.90625 20.125 20.90625 31.390625 
Q 20.90625 42.671875 17.703125 53.65625 
Q 14.5 64.65625 8.015625 75.875 
z
" id="DejaVuSans-41"/>
      <path d="M 10.6875 12.40625 
L 21 12.40625 
L 21 0 
L 10.6875 0 
z
" id="DejaVuSans-46"/>
     </defs>
     <use xlink:href="#DejaVuSans-80"/>
     <use x="55.802734" xlink:href="#DejaVuSans-97"/>
     <use x="117.082031" xlink:href="#DejaVuSans-103"/>
     <use x="180.558594" xlink:href="#DejaVuSans-101"/>
     <use x="242.082031" xlink:href="#DejaVuSans-32"/>
     <use x="273.869141" xlink:href="#DejaVuSans-104"/>
     <use x="337.248047" xlink:href="#DejaVuSans-105"/>
     <use x="365.03125" xlink:href="#DejaVuSans-116"/>
     <use x="404.240234" xlink:href="#DejaVuSans-115"/>
     <use x="456.339844" xlink:href="#DejaVuSans-32"/>
     <use x="488.126953" xlink:href="#DejaVuSans-112"/>
     <use x="551.603516" xlink:href="#DejaVuSans-101"/>
     <use x="613.126953" xlink:href="#DejaVuSans-114"/>
     <use x="654.240234" xlink:href="#DejaVuSans-32"/>
     <use x="686.027344" xlink:href="#DejaVuSans-117"/>
     <use x="749.40625" xlink:href="#DejaVuSans-117"/>
     <use x="812.785156" xlink:href="#DejaVuSans-114"/>
     <use x="853.898438" xlink:href="#DejaVuSans-32"/>
     <use x="885.685547" xlink:href="#DejaVuSans-40"/>
     <use x="924.699219" xlink:href="#DejaVuSans-103"/>
     <use x="988.175781" xlink:href="#DejaVuSans-101"/>
     <use x="1049.699219" xlink:href="#DejaVuSans-109"/>
     <use x="1147.111328" xlink:href="#DejaVuSans-105"/>
     <use x="1174.894531" xlink:href="#DejaVuSans-100"/>
     <use x="1238.371094" xlink:href="#DejaVuSans-100"/>
     <use x="1301.847656" xlink:href="#DejaVuSans-101"/>
     <use x="1363.371094" xlink:href="#DejaVuSans-108"/>
     <use x="1391.154297" xlink:href="#DejaVuSans-100"/>
     <use x="1454.630859" xlink:href="#DejaVuSans-32"/>
     <use x="1486.417969" xlink:href="#DejaVuSans-111"/>
     <use x="1547.599609" xlink:href="#DejaVuSans-110"/>
     <use x="1610.978516" xlink:href="#DejaVuSans-103"/>
     <use x="1674.455078" xlink:href="#DejaVuSans-101"/>
     <use x="1735.978516" xlink:href="#DejaVuSans-118"/>
     <use x="1795.158203" xlink:href="#DejaVuSans-101"/>
     <use x="1856.681641" xlink:href="#DejaVuSans-101"/>
     <use x="1918.205078" xlink:href="#DejaVuSans-114"/>
     <use x="1959.318359" xlink:href="#DejaVuSans-32"/>
     <use x="1991.105469" xlink:href="#DejaVuSans-50"/>
     <use x="2054.728516" xlink:href="#DejaVuSans-51"/>
     <use x="2118.351562" xlink:href="#DejaVuSans-53"/>
     <use x="2181.974609" xlink:href="#DejaVuSans-55"/>
     <use x="2245.597656" xlink:href="#DejaVuSans-41"/>
     <use x="2284.611328" xlink:href="#DejaVuSans-46"/>
    </g>
   </g>
  </g>
  <g id="text_20">
   <!-- Gegenereerd op 2021-04-15 17:18. -->
   <g style="fill:#808080;" transform="translate(7.2 356.4)scale(0.08 -0.08)">
    <defs>
     <path d="M 59.515625 10.40625 
L 59.515625 29.984375 
L 43.40625 29.984375 
L 43.40625 38.09375 
L 69.28125 38.09375 
L 69.28125 6.78125 
Q 63.578125 2.734375 56.6875 0.65625 
Q 49.8125 -1.421875 42 -1.421875 
Q 24.90625 -1.421875 15.25 8.5625 
Q 5.609375 18.5625 5.609375 36.375 
Q 5.609375 54.25 15.25 64.234375 
Q 24.90625 74.21875 42 74.21875 
Q 49.125 74.21875 55.546875 72.453125 
Q 61.96875 70.703125 67.390625 67.28125 
L 67.390625 56.78125 
Q 61.921875 61.421875 55.765625 63.765625 
Q 49.609375 66.109375 42.828125 66.109375 
Q 29.4375 66.109375 22.71875 58.640625 
Q 16.015625 51.171875 16.015625 36.375 
Q 16.015625 21.625 22.71875 14.15625 
Q 29.4375 6.6875 42.828125 6.6875 
Q 48.046875 6.6875 52.140625 7.59375 
Q 56.25 8.5 59.515625 10.40625 
z
" id="DejaVuSans-71"/>
     <path d="M 11.71875 12.40625 
L 22.015625 12.40625 
L 22.015625 0 
L 11.71875 0 
z
M 11.71875 51.703125 
L 22.015625 51.703125 
L 22.015625 39.3125 
L 11.71875 39.3125 
z
" id="DejaVuSans-58"/>
     <path d="M 31.78125 34.625 
Q 24.75 34.625 20.71875 30.859375 
Q 16.703125 27.09375 16.703125 20.515625 
Q 16.703125 13.921875 20.71875 10.15625 
Q 24.75 6.390625 31.78125 6.390625 
Q 38.8125 6.390625 42.859375 10.171875 
Q 46.921875 13.96875 46.921875 20.515625 
Q 46.921875 27.09375 42.890625 30.859375 
Q 38.875 34.625 31.78125 34.625 
z
M 21.921875 38.8125 
Q 15.578125 40.375 12.03125 44.71875 
Q 8.5 49.078125 8.5 55.328125 
Q 8.5 64.0625 14.71875 69.140625 
Q 20.953125 74.21875 31.78125 74.21875 
Q 42.671875 74.21875 48.875 69.140625 
Q 55.078125 64.0625 55.078125 55.328125 
Q 55.078125 49.078125 51.53125 44.71875 
Q 48 40.375 41.703125 38.8125 
Q 48.828125 37.15625 52.796875 32.3125 
Q 56.78125 27.484375 56.78125 20.515625 
Q 56.78125 9.90625 50.3125 4.234375 
Q 43.84375 -1.421875 31.78125 -1.421875 
Q 19.734375 -1.421875 13.25 4.234375 
Q 6.78125 9.90625 6.78125 20.515625 
Q 6.78125 27.484375 10.78125 32.3125 
Q 14.796875 37.15625 21.921875 38.8125 
z
M 18.3125 54.390625 
Q 18.3125 48.734375 21.84375 45.5625 
Q 25.390625 42.390625 31.78125 42.390625 
Q 38.140625 42.390625 41.71875 45.5625 
Q 45.3125 48.734375 45.3125 54.390625 
Q 45.3125 60.0625 41.71875 63.234375 
Q 38.140625 66.40625 31.78125 66.40625 
Q 25.390625 66.40625 21.84375 63.234375 
Q 18.3125 60.0625 18.3125 54.390625 
z
" id="DejaVuSans-56"/>
    </defs>
    <use xlink:href="#DejaVuSans-71"/>
    <use x="77.490234" xlink:href="#DejaVuSans-101"/>
    <use x="139.013672" xlink:href="#DejaVuSans-103"/>
    <use x="202.490234" xlink:href="#DejaVuSans-101"/>
    <use x="264.013672" xlink:href="#DejaVuSans-110"/>
    <use x="327.392578" xlink:href="#DejaVuSans-101"/>
    <use x="388.916016" xlink:href="#DejaVuSans-114"/>
    <use x="427.779297" xlink:href="#DejaVuSans-101"/>
    <use x="489.302734" xlink:href="#DejaVuSans-101"/>
    <use x="550.826172" xlink:href="#DejaVuSans-114"/>
    <use x="590.189453" xlink:href="#DejaVuSans-100"/>
    <use x="653.666016" xlink:href="#DejaVuSans-32"/>
    <use x="685.453125" xlink:href="#DejaVuSans-111"/>
    <use x="746.634766" xlink:href="#DejaVuSans-112"/>
    <use x="810.111328" xlink:href="#DejaVuSans-32"/>
    <use x="841.898438" xlink:href="#DejaVuSans-50"/>
    <use x="905.521484" xlink:href="#DejaVuSans-48"/>
    <use x="969.144531" xlink:href="#DejaVuSans-50"/>
    <use x="1032.767578" xlink:href="#DejaVuSans-49"/>
    <use x="1096.390625" xlink:href="#DejaVuSans-45"/>
    <use x="1132.474609" xlink:href="#DejaVuSans-48"/>
    <use x="1196.097656" xlink:href="#DejaVuSans-52"/>
    <use x="1259.720703" xlink:href="#DejaVuSans-45"/>
    <use x="1295.804688" xlink:href="#DejaVuSans-49"/>
    <use x="1359.427734" xlink:href="#DejaVuSans-53"/>
    <use x="1423.050781" xlink:href="#DejaVuSans-32"/>
    <use x="1454.837891" xlink:href="#DejaVuSans-49"/>
    <use x="1518.460938" xlink:href="#DejaVuSans-55"/>
    <use x="1582.083984" xlink:href="#DejaVuSans-58"/>
    <use x="1615.775391" xlink:href="#DejaVuSans-49"/>
    <use x="1679.398438" xlink:href="#DejaVuSans-56"/>
    <use x="1743.021484" xlink:href="#DejaVuSans-46"/>
   </g>
  </g>
  <g id="text_21">
   <!-- https://realrolfje.github.io/coronadata/ -->
   <g style="fill:#808080;" transform="translate(560.24375 356.4)scale(0.08 -0.08)">
    <defs>
     <path d="M 25.390625 72.90625 
L 33.6875 72.90625 
L 8.296875 -9.28125 
L 0 -9.28125 
z
" id="DejaVuSans-47"/>
     <path d="M 37.109375 75.984375 
L 37.109375 68.5 
L 28.515625 68.5 
Q 23.6875 68.5 21.796875 66.546875 
Q 19.921875 64.59375 19.921875 59.515625 
L 19.921875 54.6875 
L 34.71875 54.6875 
L 34.71875 47.703125 
L 19.921875 47.703125 
L 19.921875 0 
L 10.890625 0 
L 10.890625 47.703125 
L 2.296875 47.703125 
L 2.296875 54.6875 
L 10.890625 54.6875 
L 10.890625 58.5 
Q 10.890625 67.625 15.140625 71.796875 
Q 19.390625 75.984375 28.609375 75.984375 
z
" id="DejaVuSans-102"/>
     <path d="M 9.421875 54.6875 
L 18.40625 54.6875 
L 18.40625 -0.984375 
Q 18.40625 -11.421875 14.421875 -16.109375 
Q 10.453125 -20.796875 1.609375 -20.796875 
L -1.8125 -20.796875 
L -1.8125 -13.1875 
L 0.59375 -13.1875 
Q 5.71875 -13.1875 7.5625 -10.8125 
Q 9.421875 -8.453125 9.421875 -0.984375 
z
M 9.421875 75.984375 
L 18.40625 75.984375 
L 18.40625 64.59375 
L 9.421875 64.59375 
z
" id="DejaVuSans-106"/>
     <path d="M 48.6875 27.296875 
Q 48.6875 37.203125 44.609375 42.84375 
Q 40.53125 48.484375 33.40625 48.484375 
Q 26.265625 48.484375 22.1875 42.84375 
Q 18.109375 37.203125 18.109375 27.296875 
Q 18.109375 17.390625 22.1875 11.75 
Q 26.265625 6.109375 33.40625 6.109375 
Q 40.53125 6.109375 44.609375 11.75 
Q 48.6875 17.390625 48.6875 27.296875 
z
M 18.109375 46.390625 
Q 20.953125 51.265625 25.265625 53.625 
Q 29.59375 56 35.59375 56 
Q 45.5625 56 51.78125 48.09375 
Q 58.015625 40.1875 58.015625 27.296875 
Q 58.015625 14.40625 51.78125 6.484375 
Q 45.5625 -1.421875 35.59375 -1.421875 
Q 29.59375 -1.421875 25.265625 0.953125 
Q 20.953125 3.328125 18.109375 8.203125 
L 18.109375 0 
L 9.078125 0 
L 9.078125 75.984375 
L 18.109375 75.984375 
z
" id="DejaVuSans-98"/>
     <path d="M 48.78125 52.59375 
L 48.78125 44.1875 
Q 44.96875 46.296875 41.140625 47.34375 
Q 37.3125 48.390625 33.40625 48.390625 
Q 24.65625 48.390625 19.8125 42.84375 
Q 14.984375 37.3125 14.984375 27.296875 
Q 14.984375 17.28125 19.8125 11.734375 
Q 24.65625 6.203125 33.40625 6.203125 
Q 37.3125 6.203125 41.140625 7.25 
Q 44.96875 8.296875 48.78125 10.40625 
L 48.78125 2.09375 
Q 45.015625 0.34375 40.984375 -0.53125 
Q 36.96875 -1.421875 32.421875 -1.421875 
Q 20.0625 -1.421875 12.78125 6.34375 
Q 5.515625 14.109375 5.515625 27.296875 
Q 5.515625 40.671875 12.859375 48.328125 
Q 20.21875 56 33.015625 56 
Q 37.15625 56 41.109375 55.140625 
Q 45.0625 54.296875 48.78125 52.59375 
z
" id="DejaVuSans-99"/>
    </defs>
    <use xlink:href="#DejaVuSans-104"/>
    <use x="63.378906" xlink:href="#DejaVuSans-116"/>
    <use x="102.587891" xlink:href="#DejaVuSans-116"/>
    <use x="141.796875" xlink:href="#DejaVuSans-112"/>
    <use x="205.273438" xlink:href="#DejaVuSans-115"/>
    <use x="257.373047" xlink:href="#DejaVuSans-58"/>
    <use x="291.064453" xlink:href="#DejaVuSans-47"/>
    <use x="324.755859" xlink:href="#DejaVuSans-47"/>
    <use x="358.447266" xlink:href="#DejaVuSans-114"/>
    <use x="397.310547" xlink:href="#DejaVuSans-101"/>
    <use x="458.833984" xlink:href="#DejaVuSans-97"/>
    <use x="520.113281" xlink:href="#DejaVuSans-108"/>
    <use x="547.896484" xlink:href="#DejaVuSans-114"/>
    <use x="586.759766" xlink:href="#DejaVuSans-111"/>
    <use x="647.941406" xlink:href="#DejaVuSans-108"/>
    <use x="675.724609" xlink:href="#DejaVuSans-102"/>
    <use x="710.929688" xlink:href="#DejaVuSans-106"/>
    <use x="738.712891" xlink:href="#DejaVuSans-101"/>
    <use x="800.236328" xlink:href="#DejaVuSans-46"/>
    <use x="832.023438" xlink:href="#DejaVuSans-103"/>
    <use x="895.5" xlink:href="#DejaVuSans-105"/>
    <use x="923.283203" xlink:href="#DejaVuSans-116"/>
    <use x="962.492188" xlink:href="#DejaVuSans-104"/>
    <use x="1025.871094" xlink:href="#DejaVuSans-117"/>
    <use x="1089.25" xlink:href="#DejaVuSans-98"/>
    <use x="1152.726562" xlink:href="#DejaVuSans-46"/>
    <use x="1184.513672" xlink:href="#DejaVuSans-105"/>
    <use x="1212.296875" xlink:href="#DejaVuSans-111"/>
    <use x="1273.478516" xlink:href="#DejaVuSans-47"/>
    <use x="1307.169922" xlink:href="#DejaVuSans-99"/>
    <use x="1362.150391" xlink:href="#DejaVuSans-111"/>
    <use x="1423.332031" xlink:href="#DejaVuSans-114"/>
    <use x="1462.195312" xlink:href="#DejaVuSans-111"/>
    <use x="1523.376953" xlink:href="#DejaVuSans-110"/>
    <use x="1586.755859" xlink:href="#DejaVuSans-97"/>
    <use x="1648.035156" xlink:href="#DejaVuSans-100"/>
    <use x="1711.511719" xlink:href="#DejaVuSans-97"/>
    <use x="1772.791016" xlink:href="#DejaVuSans-116"/>
    <use x="1812" xlink:href="#DejaVuSans-97"/>
    <use x="1873.279297" xlink:href="#DejaVuSans-47"/>
   </g>
  </g>
 </g>
 <defs>
  <clipPath id="pf34f844165">
   <rect height="284.4" width="590.4" x="64.8" y="28.8"/>
  </clipPath>
 </defs>
</svg>
