<?xml version="1.0" encoding="utf-8" standalone="no"?>
<!DOCTYPE svg PUBLIC "-//W3C//DTD SVG 1.1//EN"
  "http://www.w3.org/Graphics/SVG/1.1/DTD/svg11.dtd">
<!-- Created with matplotlib (https://matplotlib.org/) -->
<svg height="360pt" version="1.1" viewBox="0 0 720 360" width="720pt" xmlns="http://www.w3.org/2000/svg" xmlns:xlink="http://www.w3.org/1999/xlink">
 <metadata>
  <rdf:RDF xmlns:cc="http://creativecommons.org/ns#" xmlns:dc="http://purl.org/dc/elements/1.1/" xmlns:rdf="http://www.w3.org/1999/02/22-rdf-syntax-ns#">
   <cc:Work>
    <dc:type rdf:resource="http://purl.org/dc/dcmitype/StillImage"/>
    <dc:date>2023-01-09T17:39:57.362010</dc:date>
    <dc:format>image/svg+xml</dc:format>
    <dc:creator>
     <cc:Agent>
      <dc:title>Matplotlib v3.3.2, https://matplotlib.org/</dc:title>
     </cc:Agent>
    </dc:creator>
   </cc:Work>
  </rdf:RDF>
 </metadata>
 <defs>
  <style type="text/css">*{stroke-linecap:butt;stroke-linejoin:round;}</style>
 </defs>
 <g id="figure_1">
  <g id="patch_1">
   <path d="M 0 360 
L 720 360 
L 720 0 
L 0 0 
z
" style="fill:#ffffff;"/>
  </g>
  <g id="axes_1">
   <g id="patch_2">
    <path d="M 64.8 313.2 
L 655.2 313.2 
L 655.2 28.8 
L 64.8 28.8 
z
" style="fill:#ffffff;"/>
   </g>
   <g id="PolyCollection_1">
    <path clip-path="url(#ped641df205)" d="M 91.636364 300.272727 
L 91.636364 300.272727 
L 92.324476 300.272727 
L 93.012587 300.272727 
L 93.700699 300.272727 
L 94.388811 300.272727 
L 95.076923 300.272727 
L 97.141259 300.272727 
L 97.829371 300.272727 
L 98.517483 300.272727 
L 99.205594 300.272727 
L 99.893706 300.272727 
L 100.581818 300.272727 
L 101.26993 300.272727 
L 101.958042 300.272727 
L 102.646154 300.272727 
L 103.334266 300.272727 
L 104.022378 300.272727 
L 104.71049 300.272727 
L 105.398601 300.272727 
L 106.086713 300.272727 
L 106.774825 300.272727 
L 107.462937 300.272727 
L 108.151049 300.272727 
L 108.839161 300.272727 
L 109.527273 300.272727 
L 110.215385 300.272727 
L 110.903497 300.272727 
L 111.591608 300.272727 
L 112.27972 300.272727 
L 112.967832 300.272727 
L 113.655944 300.272727 
L 114.344056 300.272727 
L 115.032168 300.272727 
L 115.72028 300.272727 
L 116.408392 300.272727 
L 117.096503 300.272727 
L 117.784615 300.272727 
L 118.472727 300.272727 
L 119.160839 300.272727 
L 119.848951 300.272727 
L 120.537063 300.272727 
L 121.225175 300.272727 
L 121.913287 300.272727 
L 122.601399 300.272727 
L 123.28951 300.272727 
L 123.977622 300.272727 
L 124.665734 300.272727 
L 125.353846 300.272727 
L 126.041958 300.272727 
L 126.73007 300.272727 
L 127.418182 300.272727 
L 128.106294 300.272727 
L 128.794406 300.272727 
L 129.482517 300.272727 
L 130.170629 300.272727 
L 130.858741 300.272727 
L 131.546853 300.272727 
L 132.234965 300.272727 
L 132.923077 300.272727 
L 133.611189 300.272727 
L 134.299301 300.272727 
L 134.987413 300.272727 
L 135.675524 300.272727 
L 136.363636 300.272727 
L 137.051748 300.272727 
L 137.73986 300.272727 
L 138.427972 300.272727 
L 139.116084 300.272727 
L 139.804196 300.272727 
L 140.492308 300.272727 
L 141.18042 300.272727 
L 141.868531 300.272727 
L 142.556643 300.272727 
L 143.244755 300.272727 
L 143.932867 300.272727 
L 144.620979 300.272727 
L 145.309091 300.272727 
L 145.997203 300.272727 
L 146.685315 300.272727 
L 147.373427 300.272727 
L 148.061538 300.272727 
L 148.74965 300.272727 
L 149.437762 300.272727 
L 150.125874 300.272727 
L 150.813986 300.272727 
L 151.502098 300.272727 
L 152.19021 300.272727 
L 152.878322 300.272727 
L 153.566434 300.272727 
L 154.254545 300.272727 
L 154.942657 300.272727 
L 155.630769 300.272727 
L 156.318881 300.272727 
L 157.006993 300.272727 
L 157.695105 300.272727 
L 158.383217 300.272727 
L 159.071329 300.272727 
L 159.759441 300.272727 
L 160.447552 300.272727 
L 161.135664 300.272727 
L 161.823776 300.272727 
L 162.511888 300.272727 
L 163.2 300.272727 
L 163.888112 300.272727 
L 164.576224 300.272727 
L 165.264336 300.272727 
L 165.952448 300.272727 
L 166.640559 300.272727 
L 167.328671 300.272727 
L 168.016783 300.272727 
L 168.704895 300.272727 
L 169.393007 300.272727 
L 170.081119 300.272727 
L 170.769231 300.272727 
L 171.457343 300.272727 
L 172.145455 300.272727 
L 172.833566 300.272727 
L 174.20979 300.272727 
L 174.897902 300.272727 
L 175.586014 300.272727 
L 176.274126 300.272727 
L 176.962238 300.272727 
L 177.65035 300.272727 
L 178.338462 300.272727 
L 179.026573 300.272727 
L 179.714685 300.272727 
L 180.402797 300.272727 
L 181.090909 300.272727 
L 181.779021 300.272727 
L 182.467133 300.272727 
L 183.155245 300.272727 
L 183.843357 300.272727 
L 184.531469 300.272727 
L 185.21958 300.272727 
L 185.907692 300.272727 
L 186.595804 300.272727 
L 187.283916 300.272727 
L 187.972028 300.272727 
L 188.66014 300.272727 
L 189.348252 300.272727 
L 190.036364 300.272727 
L 190.724476 300.272727 
L 191.412587 300.272727 
L 192.100699 300.272727 
L 192.788811 300.272727 
L 193.476923 300.272727 
L 194.165035 300.272727 
L 194.853147 300.272727 
L 195.541259 300.272727 
L 196.229371 300.272727 
L 196.917483 300.272727 
L 197.605594 300.272727 
L 198.293706 300.272727 
L 198.981818 300.272727 
L 199.66993 300.272727 
L 200.358042 300.272727 
L 201.046154 300.272727 
L 201.734266 300.272727 
L 202.422378 300.272727 
L 203.11049 300.272727 
L 203.798601 300.272727 
L 204.486713 300.272727 
L 205.174825 300.272727 
L 205.862937 300.272727 
L 206.551049 300.272727 
L 207.239161 300.272727 
L 207.927273 300.272727 
L 208.615385 300.272727 
L 209.303497 300.272727 
L 209.991608 300.272727 
L 210.67972 300.272727 
L 211.367832 300.272727 
L 212.055944 300.272727 
L 212.744056 300.272727 
L 213.432168 300.272727 
L 214.12028 300.272727 
L 214.808392 300.272727 
L 215.496503 300.272727 
L 216.184615 300.272727 
L 216.872727 300.272727 
L 217.560839 300.272727 
L 218.248951 300.272727 
L 218.937063 300.272727 
L 219.625175 300.272727 
L 220.313287 300.272727 
L 221.001399 300.272727 
L 221.68951 300.272727 
L 222.377622 300.272727 
L 223.065734 300.272727 
L 223.753846 300.272727 
L 224.441958 300.272727 
L 225.13007 300.272727 
L 225.818182 300.272727 
L 226.506294 300.272727 
L 227.194406 300.272727 
L 227.882517 300.272727 
L 228.570629 300.272727 
L 229.258741 300.272727 
L 229.946853 300.272727 
L 230.634965 300.272727 
L 231.323077 300.272727 
L 232.011189 300.272727 
L 232.699301 300.272727 
L 233.387413 300.272727 
L 234.075524 300.272727 
L 235.451748 300.272727 
L 236.13986 300.272727 
L 236.827972 300.272727 
L 237.516084 300.272727 
L 238.204196 300.272727 
L 238.892308 300.272727 
L 239.58042 300.272727 
L 240.268531 300.272727 
L 240.956643 300.272727 
L 241.644755 300.272727 
L 242.332867 300.272727 
L 243.020979 300.272727 
L 243.709091 300.272727 
L 244.397203 300.272727 
L 245.085315 300.272727 
L 245.773427 300.272727 
L 246.461538 300.272727 
L 247.14965 300.272727 
L 247.837762 300.272727 
L 248.525874 300.272727 
L 249.213986 300.272727 
L 249.902098 300.272727 
L 250.59021 300.272727 
L 251.278322 300.272727 
L 251.966434 300.272727 
L 252.654545 300.272727 
L 253.342657 300.272727 
L 254.030769 300.272727 
L 254.718881 300.272727 
L 255.406993 300.272727 
L 256.095105 300.272727 
L 256.783217 300.272727 
L 257.471329 300.272727 
L 258.159441 300.272727 
L 258.847552 300.272727 
L 259.535664 300.272727 
L 260.223776 300.272727 
L 260.911888 300.272727 
L 261.6 300.272727 
L 262.288112 300.272727 
L 262.976224 300.272727 
L 263.664336 300.272727 
L 264.352448 300.272727 
L 265.040559 300.272727 
L 265.728671 300.272727 
L 266.416783 300.272727 
L 267.104895 300.272727 
L 267.793007 300.272727 
L 268.481119 300.272727 
L 269.169231 300.272727 
L 269.857343 300.272727 
L 270.545455 300.272727 
L 271.233566 300.272727 
L 271.921678 300.272727 
L 272.60979 300.272727 
L 273.297902 300.272727 
L 273.986014 300.272727 
L 274.674126 300.272727 
L 275.362238 300.272727 
L 276.05035 300.272727 
L 276.738462 300.272727 
L 277.426573 300.272727 
L 278.114685 300.272727 
L 278.802797 300.272727 
L 279.490909 300.272727 
L 280.179021 300.272727 
L 280.867133 300.272727 
L 281.555245 300.272727 
L 282.243357 300.272727 
L 282.931469 300.272727 
L 283.61958 300.272727 
L 284.307692 300.272727 
L 284.995804 300.272727 
L 285.683916 300.272727 
L 286.372028 300.272727 
L 287.06014 300.272727 
L 287.748252 300.272727 
L 288.436364 300.272727 
L 289.124476 300.272727 
L 289.812587 300.272727 
L 290.500699 300.272727 
L 291.188811 300.272727 
L 291.876923 300.272727 
L 292.565035 300.272727 
L 293.253147 300.272727 
L 293.941259 300.272727 
L 294.629371 300.272727 
L 295.317483 300.272727 
L 296.005594 300.272727 
L 296.693706 300.272727 
L 297.381818 300.272727 
L 298.06993 300.272727 
L 298.758042 300.272727 
L 299.446154 300.272727 
L 300.134266 300.272727 
L 300.822378 300.272727 
L 301.51049 300.272727 
L 302.198601 300.272727 
L 302.886713 300.272727 
L 303.574825 300.272727 
L 304.262937 300.272727 
L 304.951049 300.272727 
L 305.639161 300.272727 
L 306.327273 300.272727 
L 307.015385 300.272727 
L 307.703497 300.272727 
L 308.391608 300.272727 
L 309.07972 300.272727 
L 309.767832 300.272727 
L 310.455944 300.272727 
L 311.144056 300.272727 
L 311.832168 300.272727 
L 312.52028 300.272727 
L 313.208392 300.272727 
L 313.896503 300.272727 
L 314.584615 300.272727 
L 315.272727 300.272727 
L 315.960839 300.272727 
L 316.648951 300.272727 
L 317.337063 300.272727 
L 318.025175 300.272727 
L 318.713287 300.272727 
L 319.401399 300.272727 
L 320.08951 300.272727 
L 320.777622 300.272727 
L 321.465734 300.272727 
L 322.153846 300.272727 
L 322.841958 300.272727 
L 323.53007 300.272727 
L 324.218182 300.272727 
L 324.906294 300.272727 
L 325.594406 300.272727 
L 326.282517 300.272727 
L 326.970629 300.272727 
L 327.658741 300.272727 
L 328.346853 300.272727 
L 329.034965 300.272727 
L 329.723077 300.272727 
L 330.411189 300.272727 
L 331.099301 300.272727 
L 331.787413 300.272727 
L 332.475524 300.272727 
L 333.163636 300.272727 
L 333.851748 300.272727 
L 334.53986 300.272727 
L 335.227972 300.272727 
L 335.916084 300.272727 
L 336.604196 300.272727 
L 337.292308 300.272727 
L 337.98042 300.272727 
L 338.668531 300.272727 
L 339.356643 300.272727 
L 340.044755 300.272727 
L 340.732867 300.272727 
L 341.420979 300.272727 
L 342.109091 300.272727 
L 342.797203 300.272727 
L 343.485315 300.272727 
L 344.173427 300.272727 
L 344.861538 300.272727 
L 345.54965 300.272727 
L 346.237762 300.272727 
L 346.925874 300.272727 
L 347.613986 300.272727 
L 348.302098 300.272727 
L 348.99021 300.272727 
L 349.678322 300.272727 
L 350.366434 300.272727 
L 351.054545 300.272727 
L 351.742657 300.272727 
L 352.430769 300.272727 
L 353.118881 300.272727 
L 353.806993 300.272727 
L 354.495105 300.272727 
L 355.183217 300.272727 
L 355.871329 300.272727 
L 356.559441 300.272727 
L 357.247552 300.272727 
L 357.935664 300.272727 
L 358.623776 300.272727 
L 359.311888 300.272727 
L 360 300.272727 
L 360.688112 300.272727 
L 361.376224 300.272727 
L 362.064336 300.272727 
L 362.752448 300.272727 
L 363.440559 300.272727 
L 364.128671 300.272727 
L 364.816783 300.272727 
L 365.504895 300.272727 
L 366.193007 300.272727 
L 366.881119 300.272727 
L 367.569231 300.272727 
L 368.257343 300.272727 
L 368.945455 300.272727 
L 369.633566 300.272727 
L 370.321678 300.272727 
L 371.00979 300.272727 
L 371.697902 300.272727 
L 372.386014 300.272727 
L 373.074126 300.272727 
L 373.762238 300.272727 
L 382.01958 300.272727 
L 382.707692 300.272727 
L 383.395804 300.272727 
L 384.083916 300.272727 
L 384.772028 300.272727 
L 385.46014 300.272727 
L 386.148252 300.272727 
L 386.836364 300.272727 
L 388.212587 300.272727 
L 388.900699 300.272727 
L 389.588811 300.272727 
L 390.276923 300.272727 
L 390.965035 300.272727 
L 391.653147 300.272727 
L 392.341259 300.272727 
L 393.029371 300.272727 
L 393.717483 300.272727 
L 394.405594 300.272727 
L 395.093706 300.272727 
L 395.781818 300.272727 
L 396.46993 300.272727 
L 397.158042 300.272727 
L 397.846154 300.272727 
L 398.534266 300.272727 
L 399.222378 300.272727 
L 399.91049 300.272727 
L 400.598601 300.272727 
L 401.286713 300.272727 
L 401.974825 300.272727 
L 402.662937 300.272727 
L 403.351049 300.272727 
L 404.039161 300.272727 
L 404.727273 300.272727 
L 405.415385 300.272727 
L 406.103497 300.272727 
L 406.791608 300.272727 
L 407.47972 300.272727 
L 408.167832 300.272727 
L 408.855944 300.272727 
L 409.544056 300.272727 
L 410.232168 300.272727 
L 410.92028 300.272727 
L 411.608392 300.272727 
L 412.296503 300.272727 
L 412.984615 300.272727 
L 413.672727 300.272727 
L 414.360839 300.272727 
L 416.425175 300.272727 
L 417.113287 300.272727 
L 417.801399 300.272727 
L 418.48951 300.272727 
L 419.177622 300.272727 
L 419.865734 300.272727 
L 420.553846 300.272727 
L 421.241958 300.272727 
L 421.93007 300.272727 
L 422.618182 300.272727 
L 423.306294 300.272727 
L 423.994406 300.272727 
L 424.682517 300.272727 
L 425.370629 300.272727 
L 426.058741 300.272727 
L 426.746853 300.272727 
L 427.434965 300.272727 
L 428.123077 300.272727 
L 428.811189 300.272727 
L 429.499301 300.272727 
L 430.187413 300.272727 
L 430.875524 300.272727 
L 431.563636 300.272727 
L 432.251748 300.272727 
L 432.93986 300.272727 
L 433.627972 300.272727 
L 434.316084 300.272727 
L 435.004196 300.272727 
L 435.692308 300.272727 
L 436.38042 300.272727 
L 437.068531 300.272727 
L 437.756643 300.272727 
L 438.444755 300.272727 
L 439.132867 300.272727 
L 439.820979 300.272727 
L 440.509091 300.272727 
L 441.197203 300.272727 
L 441.885315 300.272727 
L 442.573427 300.272727 
L 443.261538 300.272727 
L 443.94965 300.272727 
L 444.637762 300.272727 
L 445.325874 300.272727 
L 446.013986 300.272727 
L 446.702098 300.272727 
L 447.39021 300.272727 
L 448.078322 300.272727 
L 448.766434 300.272727 
L 449.454545 300.272727 
L 450.142657 300.272727 
L 450.830769 300.272727 
L 451.518881 300.272727 
L 452.206993 300.272727 
L 452.895105 300.272727 
L 453.583217 300.272727 
L 454.271329 300.272727 
L 454.959441 300.272727 
L 455.647552 300.272727 
L 456.335664 300.272727 
L 457.023776 300.272727 
L 457.711888 300.272727 
L 458.4 300.272727 
L 459.088112 300.272727 
L 459.776224 300.272727 
L 460.464336 300.272727 
L 461.152448 300.272727 
L 461.840559 300.272727 
L 462.528671 300.272727 
L 463.216783 300.272727 
L 463.904895 300.272727 
L 464.593007 300.272727 
L 465.281119 300.272727 
L 465.969231 300.272727 
L 466.657343 300.272727 
L 467.345455 300.272727 
L 468.033566 300.272727 
L 468.721678 300.272727 
L 469.40979 300.272727 
L 470.097902 300.272727 
L 470.786014 300.272727 
L 471.474126 300.272727 
L 472.162238 300.272727 
L 472.85035 300.272727 
L 473.538462 300.272727 
L 474.226573 300.272727 
L 474.914685 300.272727 
L 475.602797 300.272727 
L 476.290909 300.272727 
L 476.979021 300.272727 
L 477.667133 300.272727 
L 478.355245 300.272727 
L 479.043357 300.272727 
L 479.731469 300.272727 
L 480.41958 300.272727 
L 481.107692 300.272727 
L 481.795804 300.272727 
L 482.483916 300.272727 
L 483.172028 300.272727 
L 483.86014 300.272727 
L 484.548252 300.272727 
L 485.236364 300.272727 
L 485.924476 300.272727 
L 486.612587 300.272727 
L 487.300699 300.272727 
L 487.988811 300.272727 
L 488.676923 300.272727 
L 489.365035 300.272727 
L 490.053147 300.272727 
L 490.741259 300.272727 
L 491.429371 300.272727 
L 492.117483 300.272727 
L 492.805594 300.272727 
L 493.493706 300.272727 
L 494.181818 300.272727 
L 494.86993 300.272727 
L 495.558042 300.272727 
L 496.246154 300.272727 
L 496.934266 300.272727 
L 497.622378 300.272727 
L 498.31049 300.272727 
L 498.998601 300.272727 
L 499.686713 300.272727 
L 500.374825 300.272727 
L 501.062937 300.272727 
L 501.751049 300.272727 
L 502.439161 300.272727 
L 503.127273 300.272727 
L 503.815385 300.272727 
L 504.503497 300.272727 
L 505.191608 300.272727 
L 505.87972 300.272727 
L 506.567832 300.272727 
L 507.255944 300.272727 
L 507.944056 300.272727 
L 508.632168 300.272727 
L 509.32028 300.272727 
L 510.008392 300.272727 
L 510.696503 300.272727 
L 511.384615 300.272727 
L 512.072727 300.272727 
L 512.760839 300.272727 
L 513.448951 300.272727 
L 514.137063 300.272727 
L 514.825175 300.272727 
L 515.513287 300.272727 
L 516.201399 300.272727 
L 516.88951 300.272727 
L 517.577622 300.272727 
L 518.265734 300.272727 
L 518.953846 300.272727 
L 519.641958 300.272727 
L 520.33007 300.272727 
L 521.018182 300.272727 
L 521.706294 300.272727 
L 522.394406 300.272727 
L 523.082517 300.272727 
L 523.770629 300.272727 
L 524.458741 300.272727 
L 525.146853 300.272727 
L 525.834965 300.272727 
L 526.523077 300.272727 
L 527.211189 300.272727 
L 527.899301 300.272727 
L 528.587413 300.272727 
L 529.275524 300.272727 
L 529.963636 300.272727 
L 530.651748 300.272727 
L 531.33986 300.272727 
L 532.716084 300.272727 
L 533.404196 300.272727 
L 534.092308 300.272727 
L 534.78042 300.272727 
L 535.468531 300.272727 
L 536.156643 300.272727 
L 536.844755 300.272727 
L 537.532867 300.272727 
L 538.220979 300.272727 
L 538.909091 300.272727 
L 539.597203 300.272727 
L 540.285315 300.272727 
L 540.973427 300.272727 
L 541.661538 300.272727 
L 542.34965 300.272727 
L 543.037762 300.272727 
L 543.725874 300.272727 
L 544.413986 300.272727 
L 545.102098 300.272727 
L 545.79021 300.272727 
L 546.478322 300.272727 
L 547.166434 300.272727 
L 547.854545 300.272727 
L 548.542657 300.272727 
L 549.230769 300.272727 
L 549.918881 300.272727 
L 550.606993 300.272727 
L 551.295105 300.272727 
L 551.983217 300.272727 
L 552.671329 300.272727 
L 553.359441 300.272727 
L 554.047552 300.272727 
L 554.735664 300.272727 
L 555.423776 300.272727 
L 556.111888 300.272727 
L 556.8 300.272727 
L 557.488112 300.272727 
L 558.176224 300.272727 
L 558.864336 300.272727 
L 559.552448 300.272727 
L 560.240559 300.272727 
L 560.928671 300.272727 
L 561.616783 300.272727 
L 562.304895 300.272727 
L 562.993007 300.272727 
L 563.681119 300.272727 
L 564.369231 300.272727 
L 565.057343 300.272727 
L 565.745455 300.272727 
L 566.433566 300.272727 
L 567.121678 300.272727 
L 567.80979 300.272727 
L 568.497902 300.272727 
L 569.186014 300.272727 
L 569.874126 300.272727 
L 570.562238 300.272727 
L 571.25035 300.272727 
L 571.938462 300.272727 
L 572.626573 300.272727 
L 573.314685 300.272727 
L 574.002797 300.272727 
L 574.690909 300.272727 
L 575.379021 300.272727 
L 576.067133 300.272727 
L 576.755245 300.272727 
L 577.443357 300.272727 
L 578.131469 300.272727 
L 578.81958 300.272727 
L 579.507692 300.272727 
L 580.195804 300.272727 
L 580.883916 300.272727 
L 581.572028 300.272727 
L 582.26014 300.272727 
L 582.948252 300.272727 
L 583.636364 300.272727 
L 584.324476 300.272727 
L 585.012587 300.272727 
L 585.700699 300.272727 
L 586.388811 300.272727 
L 587.076923 300.272727 
L 587.765035 300.272727 
L 588.453147 300.272727 
L 589.141259 300.272727 
L 589.829371 300.272727 
L 590.517483 300.272727 
L 591.205594 300.272727 
L 591.893706 300.272727 
L 592.581818 300.272727 
L 593.26993 300.272727 
L 593.958042 300.272727 
L 594.646154 300.272727 
L 595.334266 300.272727 
L 596.022378 300.272727 
L 596.71049 300.272727 
L 597.398601 300.272727 
L 598.086713 300.272727 
L 598.774825 300.272727 
L 599.462937 300.272727 
L 600.151049 300.272727 
L 600.839161 300.272727 
L 601.527273 300.272727 
L 602.215385 300.272727 
L 602.903497 300.272727 
L 603.591608 300.272727 
L 604.27972 300.272727 
L 604.967832 300.272727 
L 605.655944 300.272727 
L 606.344056 300.272727 
L 607.032168 300.272727 
L 607.72028 300.272727 
L 608.408392 300.272727 
L 609.096503 300.272727 
L 609.784615 300.272727 
L 610.472727 300.272727 
L 611.160839 300.272727 
L 611.848951 300.272727 
L 612.537063 300.272727 
L 613.225175 300.272727 
L 613.913287 300.272727 
L 614.601399 300.272727 
L 615.28951 300.272727 
L 615.977622 300.272727 
L 616.665734 300.272727 
L 617.353846 300.272727 
L 618.041958 300.272727 
L 618.73007 300.272727 
L 619.418182 300.272727 
L 620.106294 300.272727 
L 620.794406 300.272727 
L 621.482517 300.272727 
L 622.170629 300.272727 
L 622.858741 300.272727 
L 623.546853 300.272727 
L 624.234965 300.272727 
L 624.923077 300.272727 
L 625.611189 300.272727 
L 626.299301 300.272727 
L 626.987413 300.272727 
L 627.675524 300.272727 
L 628.363636 300.272727 
L 628.363636 300.272727 
L 628.363636 296.594235 
L 627.675524 296.594235 
L 626.987413 297.645233 
L 626.299301 296.594235 
L 625.611189 259.809313 
L 624.923077 287.660754 
L 624.234965 287.660754 
L 623.546853 291.339246 
L 622.858741 293.441242 
L 622.170629 270.31929 
L 621.482517 297.645233 
L 620.794406 295.017738 
L 620.106294 295.017738 
L 619.418182 297.645233 
L 618.73007 296.594235 
L 618.041958 297.645233 
L 617.353846 297.645233 
L 616.665734 297.119734 
L 615.977622 297.645233 
L 615.28951 281.354767 
L 614.601399 296.594235 
L 613.913287 290.288248 
L 613.225175 298.170732 
L 612.537063 297.119734 
L 611.848951 271.895787 
L 611.160839 297.119734 
L 610.472727 296.594235 
L 609.784615 297.119734 
L 609.096503 281.880266 
L 608.408392 292.390244 
L 607.72028 298.170732 
L 607.032168 295.017738 
L 606.344056 296.594235 
L 605.655944 268.217295 
L 604.967832 248.773836 
L 604.27972 268.217295 
L 603.591608 292.915743 
L 602.903497 290.813747 
L 602.215385 238.789357 
L 601.527273 240.365854 
L 600.839161 295.543237 
L 600.151049 296.068736 
L 599.462937 297.119734 
L 598.774825 296.594235 
L 598.086713 297.645233 
L 597.398601 296.594235 
L 596.71049 294.492239 
L 596.022378 297.645233 
L 595.334266 298.170732 
L 594.646154 266.640798 
L 593.958042 298.170732 
L 593.26993 291.864745 
L 592.581818 297.119734 
L 591.893706 295.543237 
L 591.205594 297.119734 
L 590.517483 297.119734 
L 589.829371 294.492239 
L 589.141259 296.594235 
L 588.453147 296.594235 
L 587.765035 294.492239 
L 587.076923 278.727273 
L 586.388811 298.696231 
L 585.700699 292.915743 
L 585.012587 295.017738 
L 584.324476 295.017738 
L 583.636364 296.068736 
L 582.948252 278.727273 
L 582.26014 260.86031 
L 581.572028 277.150776 
L 580.883916 290.288248 
L 580.195804 295.543237 
L 579.507692 295.543237 
L 578.81958 296.068736 
L 578.131469 292.915743 
L 577.443357 292.915743 
L 576.755245 294.492239 
L 576.067133 282.405765 
L 575.379021 261.385809 
L 574.690909 290.813747 
L 574.002797 255.079823 
L 573.314685 251.926829 
L 572.626573 288.711752 
L 571.938462 292.390244 
L 571.25035 249.299335 
L 570.562238 290.813747 
L 569.874126 285.558758 
L 569.186014 290.813747 
L 568.497902 293.966741 
L 567.80979 289.762749 
L 567.121678 294.492239 
L 566.433566 278.201774 
L 565.745455 292.915743 
L 565.057343 296.594235 
L 564.369231 296.594235 
L 563.681119 297.119734 
L 562.993007 295.543237 
L 562.304895 274.523282 
L 561.616783 262.962306 
L 560.928671 272.421286 
L 560.240559 296.068736 
L 559.552448 293.441242 
L 558.864336 290.813747 
L 558.176224 291.339246 
L 557.488112 298.170732 
L 556.8 292.915743 
L 556.111888 296.594235 
L 555.423776 298.170732 
L 554.735664 296.068736 
L 554.047552 266.115299 
L 553.359441 266.115299 
L 552.671329 264.538803 
L 551.983217 230.906874 
L 551.295105 264.013304 
L 550.606993 298.170732 
L 549.918881 298.170732 
L 549.230769 293.966741 
L 548.542657 297.119734 
L 547.854545 274.523282 
L 547.166434 230.381375 
L 546.478322 251.926829 
L 545.79021 298.170732 
L 545.102098 297.119734 
L 544.413986 298.170732 
L 543.725874 288.711752 
L 543.037762 293.441242 
L 542.34965 290.813747 
L 541.661538 291.339246 
L 540.973427 293.441242 
L 540.285315 292.390244 
L 539.597203 293.966741 
L 538.909091 296.594235 
L 538.220979 298.170732 
L 537.532867 295.543237 
L 536.844755 297.645233 
L 536.156643 297.119734 
L 535.468531 296.594235 
L 534.78042 296.594235 
L 534.092308 297.119734 
L 533.404196 295.543237 
L 532.716084 288.186253 
L 531.33986 298.170732 
L 530.651748 297.119734 
L 529.963636 297.119734 
L 529.275524 297.119734 
L 528.587413 290.813747 
L 527.899301 298.170732 
L 527.211189 297.119734 
L 526.523077 297.119734 
L 525.834965 298.170732 
L 525.146853 298.170732 
L 524.458741 296.068736 
L 523.770629 299.221729 
L 523.082517 298.170732 
L 522.394406 288.186253 
L 521.706294 298.170732 
L 521.018182 297.119734 
L 520.33007 296.594235 
L 519.641958 295.543237 
L 518.953846 295.017738 
L 518.265734 297.645233 
L 517.577622 295.017738 
L 516.88951 297.119734 
L 516.201399 297.645233 
L 515.513287 297.119734 
L 514.825175 293.441242 
L 514.137063 297.645233 
L 513.448951 295.543237 
L 512.760839 297.119734 
L 512.072727 296.594235 
L 511.384615 295.017738 
L 510.696503 256.656319 
L 510.008392 279.252772 
L 509.32028 283.456763 
L 508.632168 293.966741 
L 507.944056 266.115299 
L 507.255944 298.170732 
L 506.567832 294.492239 
L 505.87972 297.119734 
L 505.191608 295.017738 
L 504.503497 293.966741 
L 503.815385 295.017738 
L 503.127273 295.017738 
L 502.439161 297.119734 
L 501.751049 296.594235 
L 501.062937 232.48337 
L 500.374825 173.627494 
L 499.686713 204.10643 
L 498.998601 233.008869 
L 498.31049 297.119734 
L 497.622378 294.492239 
L 496.934266 292.390244 
L 496.246154 229.855876 
L 495.558042 241.94235 
L 494.86993 292.390244 
L 494.181818 293.441242 
L 493.493706 288.711752 
L 492.805594 285.033259 
L 492.117483 228.279379 
L 491.429371 226.177384 
L 490.741259 290.813747 
L 490.053147 291.339246 
L 489.365035 287.660754 
L 488.676923 289.237251 
L 487.988811 293.966741 
L 487.300699 295.017738 
L 486.612587 285.558758 
L 485.924476 292.915743 
L 485.236364 269.268293 
L 484.548252 200.953437 
L 483.86014 234.585366 
L 483.172028 295.543237 
L 482.483916 197.274945 
L 481.795804 185.18847 
L 481.107692 294.492239 
L 480.41958 288.711752 
L 479.731469 297.119734 
L 479.043357 270.844789 
L 478.355245 298.170732 
L 477.667133 245.620843 
L 476.979021 247.722838 
L 476.290909 296.068736 
L 475.602797 298.170732 
L 474.914685 297.119734 
L 474.226573 295.543237 
L 473.538462 298.170732 
L 472.85035 294.492239 
L 472.162238 293.441242 
L 471.474126 296.068736 
L 470.786014 200.953437 
L 470.097902 208.83592 
L 469.40979 266.640798 
L 468.721678 294.492239 
L 468.033566 282.931264 
L 467.345455 266.115299 
L 466.657343 243.518847 
L 465.969231 242.993348 
L 465.281119 205.157428 
L 464.593007 234.585366 
L 463.904895 273.472284 
L 463.216783 206.208426 
L 462.528671 248.248337 
L 461.840559 280.303769 
L 461.152448 287.660754 
L 460.464336 296.594235 
L 459.776224 295.543237 
L 459.088112 293.966741 
L 458.4 296.068736 
L 457.711888 294.492239 
L 457.023776 287.135255 
L 456.335664 255.605322 
L 455.647552 290.288248 
L 454.959441 298.170732 
L 454.271329 295.543237 
L 453.583217 293.966741 
L 452.895105 287.660754 
L 452.206993 297.645233 
L 451.518881 296.068736 
L 450.830769 296.068736 
L 450.142657 295.543237 
L 449.454545 285.033259 
L 448.766434 296.068736 
L 448.078322 273.997783 
L 447.39021 285.558758 
L 446.702098 293.966741 
L 446.013986 293.966741 
L 445.325874 296.594235 
L 444.637762 296.594235 
L 443.94965 296.594235 
L 443.261538 287.660754 
L 442.573427 256.13082 
L 441.885315 247.197339 
L 441.197203 273.472284 
L 440.509091 288.711752 
L 439.820979 291.864745 
L 439.132867 278.727273 
L 438.444755 255.605322 
L 437.756643 244.044346 
L 437.068531 248.773836 
L 436.38042 248.248337 
L 435.692308 239.840355 
L 435.004196 294.492239 
L 434.316084 291.339246 
L 433.627972 254.554324 
L 432.93986 287.660754 
L 432.251748 288.186253 
L 431.563636 253.503326 
L 430.875524 295.017738 
L 430.187413 287.135255 
L 429.499301 290.813747 
L 428.811189 248.773836 
L 428.123077 225.126386 
L 427.434965 239.314856 
L 426.746853 266.640798 
L 426.058741 285.033259 
L 425.370629 290.288248 
L 424.682517 296.068736 
L 423.994406 248.248337 
L 423.306294 266.115299 
L 422.618182 283.982262 
L 421.93007 233.008869 
L 421.241958 238.263858 
L 420.553846 265.5898 
L 419.865734 271.370288 
L 419.177622 176.780488 
L 418.48951 289.762749 
L 417.801399 262.962306 
L 417.113287 202.529933 
L 416.425175 201.478936 
L 414.360839 273.472284 
L 413.672727 236.687361 
L 412.984615 191.494457 
L 412.296503 242.467849 
L 411.608392 243.518847 
L 410.92028 286.084257 
L 410.232168 272.421286 
L 409.544056 270.844789 
L 408.855944 174.152993 
L 408.167832 222.498891 
L 407.47972 282.405765 
L 406.791608 259.809313 
L 406.103497 265.5898 
L 405.415385 182.560976 
L 404.727273 228.804878 
L 404.039161 270.31929 
L 403.351049 228.279379 
L 402.662937 219.871397 
L 401.974825 237.21286 
L 401.286713 254.028825 
L 400.598601 262.962306 
L 399.91049 217.769401 
L 399.222378 213.039911 
L 398.534266 236.687361 
L 397.846154 224.600887 
L 397.158042 212.514412 
L 396.46993 265.5898 
L 395.781818 178.882483 
L 395.093706 219.871397 
L 394.405594 232.48337 
L 393.717483 209.886918 
L 393.029371 104.78714 
L 392.341259 246.146341 
L 391.653147 265.064302 
L 390.965035 189.91796 
L 390.276923 188.341463 
L 389.588811 239.840355 
L 388.900699 168.372506 
L 388.212587 67.476718 
L 386.836364 228.279379 
L 386.148252 244.044346 
L 385.46014 204.631929 
L 384.772028 220.396896 
L 384.083916 178.882483 
L 383.395804 160.490022 
L 382.707692 189.392461 
L 382.01958 262.962306 
L 373.762238 198.851441 
L 373.074126 188.866962 
L 372.386014 256.13082 
L 371.697902 288.711752 
L 371.00979 278.201774 
L 370.321678 276.625277 
L 369.633566 273.472284 
L 368.945455 247.197339 
L 368.257343 275.04878 
L 367.569231 285.033259 
L 366.881119 288.186253 
L 366.193007 251.926829 
L 365.504895 196.749446 
L 364.816783 142.62306 
L 364.128671 58.017738 
L 363.440559 161.54102 
L 362.752448 275.04878 
L 362.064336 275.574279 
L 361.376224 281.354767 
L 360.688112 270.844789 
L 360 242.993348 
L 359.311888 272.946785 
L 358.623776 279.778271 
L 357.935664 286.609756 
L 357.247552 287.135255 
L 356.559441 289.237251 
L 355.871329 283.982262 
L 355.183217 274.523282 
L 354.495105 169.949002 
L 353.806993 167.321508 
L 353.118881 201.478936 
L 352.430769 190.443459 
L 351.742657 214.616408 
L 351.054545 279.778271 
L 350.366434 272.421286 
L 349.678322 241.416851 
L 348.99021 284.507761 
L 348.302098 273.997783 
L 347.613986 270.31929 
L 346.925874 254.554324 
L 346.237762 190.968958 
L 345.54965 198.851441 
L 344.861538 247.197339 
L 344.173427 204.631929 
L 343.485315 196.749446 
L 342.797203 180.45898 
L 342.109091 173.627494 
L 341.420979 171.525499 
L 340.732867 185.713969 
L 340.044755 144.725055 
L 339.356643 117.924612 
L 338.668531 171.525499 
L 337.98042 195.172949 
L 337.292308 190.443459 
L 336.604196 162.066519 
L 335.916084 179.933481 
L 335.227972 204.631929 
L 334.53986 149.454545 
L 333.851748 122.128603 
L 333.163636 157.337029 
L 332.475524 209.886918 
L 331.787413 210.937916 
L 331.099301 186.239468 
L 330.411189 207.259424 
L 329.723077 235.110865 
L 329.034965 292.390244 
L 328.346853 287.135255 
L 327.658741 230.906874 
L 326.970629 234.585366 
L 326.282517 288.711752 
L 325.594406 284.507761 
L 324.906294 229.855876 
L 324.218182 282.931264 
L 323.53007 289.762749 
L 322.841958 280.829268 
L 322.153846 262.962306 
L 321.465734 237.738359 
L 320.777622 291.864745 
L 320.08951 284.507761 
L 319.401399 286.609756 
L 318.713287 290.288248 
L 318.025175 213.56541 
L 317.337063 249.299335 
L 316.648951 292.390244 
L 315.960839 276.099778 
L 315.272727 272.421286 
L 314.584615 272.421286 
L 313.896503 287.660754 
L 313.208392 286.084257 
L 312.52028 291.864745 
L 311.832168 287.660754 
L 311.144056 288.186253 
L 310.455944 282.931264 
L 309.767832 291.864745 
L 309.07972 282.405765 
L 308.391608 290.813747 
L 307.703497 235.636364 
L 307.015385 258.758315 
L 306.327273 289.762749 
L 305.639161 230.381375 
L 304.951049 255.079823 
L 304.262937 288.711752 
L 303.574825 279.778271 
L 302.886713 290.288248 
L 302.198601 277.150776 
L 301.51049 256.13082 
L 300.822378 285.558758 
L 300.134266 290.813747 
L 299.446154 286.084257 
L 298.758042 284.507761 
L 298.06993 292.390244 
L 297.381818 279.778271 
L 296.693706 280.829268 
L 296.005594 271.895787 
L 295.317483 276.625277 
L 294.629371 276.099778 
L 293.941259 253.503326 
L 293.253147 275.574279 
L 292.565035 287.135255 
L 291.876923 265.5898 
L 291.188811 268.217295 
L 290.500699 213.039911 
L 289.812587 143.674058 
L 289.124476 189.392461 
L 288.436364 180.45898 
L 287.748252 292.915743 
L 287.06014 268.742794 
L 286.372028 268.217295 
L 285.683916 291.339246 
L 284.995804 291.339246 
L 284.307692 286.084257 
L 283.61958 270.31929 
L 282.931469 259.283814 
L 282.243357 261.385809 
L 281.555245 291.339246 
L 280.867133 291.864745 
L 280.179021 285.033259 
L 279.490909 251.926829 
L 278.802797 290.813747 
L 278.114685 287.660754 
L 277.426573 241.416851 
L 276.738462 261.385809 
L 276.05035 279.778271 
L 275.362238 284.507761 
L 274.674126 280.829268 
L 273.986014 267.691796 
L 273.297902 287.660754 
L 272.60979 271.895787 
L 271.921678 278.727273 
L 271.233566 285.033259 
L 270.545455 285.558758 
L 269.857343 284.507761 
L 269.169231 281.880266 
L 268.481119 222.498891 
L 267.793007 258.232816 
L 267.104895 262.436807 
L 266.416783 282.931264 
L 265.728671 278.201774 
L 265.040559 267.691796 
L 264.352448 279.778271 
L 263.664336 242.993348 
L 262.976224 264.013304 
L 262.288112 277.676275 
L 261.6 267.166297 
L 260.911888 275.574279 
L 260.223776 280.303769 
L 259.535664 207.784922 
L 258.847552 270.31929 
L 258.159441 278.201774 
L 257.471329 272.421286 
L 256.783217 273.997783 
L 256.095105 268.742794 
L 255.406993 265.5898 
L 254.718881 250.875831 
L 254.030769 224.600887 
L 253.342657 224.600887 
L 252.654545 235.110865 
L 251.966434 276.099778 
L 251.278322 270.31929 
L 250.59021 234.059867 
L 249.902098 186.764967 
L 249.213986 176.780488 
L 248.525874 226.702882 
L 247.837762 267.166297 
L 247.14965 270.844789 
L 246.461538 285.558758 
L 245.773427 229.330377 
L 245.085315 279.778271 
L 244.397203 279.252772 
L 243.709091 252.977827 
L 243.020979 269.793792 
L 242.332867 196.749446 
L 241.644755 222.498891 
L 240.956643 209.361419 
L 240.268531 235.636364 
L 239.58042 254.554324 
L 238.892308 267.691796 
L 238.204196 267.166297 
L 237.516084 277.676275 
L 236.827972 276.099778 
L 236.13986 244.044346 
L 235.451748 195.172949 
L 234.075524 277.150776 
L 233.387413 264.538803 
L 232.699301 247.722838 
L 232.011189 240.891353 
L 231.323077 261.911308 
L 230.634965 268.217295 
L 229.946853 242.467849 
L 229.258741 268.217295 
L 228.570629 247.197339 
L 227.882517 251.926829 
L 227.194406 230.906874 
L 226.506294 233.008869 
L 225.818182 246.67184 
L 225.13007 239.840355 
L 224.441958 203.055432 
L 223.753846 83.241685 
L 223.065734 167.321508 
L 222.377622 166.796009 
L 221.68951 161.54102 
L 221.001399 150.505543 
L 220.313287 260.86031 
L 219.625175 213.56541 
L 218.937063 257.181818 
L 218.248951 272.421286 
L 217.560839 269.268293 
L 216.872727 276.625277 
L 216.184615 268.217295 
L 215.496503 280.829268 
L 214.808392 237.21286 
L 214.12028 267.691796 
L 213.432168 270.31929 
L 212.744056 283.982262 
L 212.055944 227.228381 
L 211.367832 211.988914 
L 210.67972 266.640798 
L 209.991608 191.494457 
L 209.303497 197.800443 
L 208.615385 184.137472 
L 207.927273 199.902439 
L 207.239161 214.090909 
L 206.551049 199.37694 
L 205.862937 157.337029 
L 205.174825 220.396896 
L 204.486713 256.656319 
L 203.798601 280.303769 
L 203.11049 261.911308 
L 202.422378 277.676275 
L 201.734266 262.436807 
L 201.046154 276.625277 
L 200.358042 277.150776 
L 199.66993 267.166297 
L 198.981818 265.5898 
L 198.293706 269.268293 
L 197.605594 239.840355 
L 196.917483 261.385809 
L 196.229371 261.911308 
L 195.541259 255.605322 
L 194.853147 275.04878 
L 194.165035 279.778271 
L 193.476923 265.5898 
L 192.788811 235.110865 
L 192.100699 190.968958 
L 191.412587 242.993348 
L 190.724476 178.356984 
L 190.036364 180.45898 
L 189.348252 269.793792 
L 188.66014 287.135255 
L 187.972028 142.097561 
L 187.283916 124.230599 
L 186.595804 223.02439 
L 185.907692 249.299335 
L 185.21958 277.676275 
L 184.531469 287.660754 
L 183.843357 279.778271 
L 183.155245 202.529933 
L 182.467133 277.150776 
L 181.779021 257.181818 
L 181.090909 265.064302 
L 180.402797 282.931264 
L 179.714685 279.778271 
L 179.026573 278.201774 
L 178.338462 258.758315 
L 177.65035 241.94235 
L 176.962238 285.033259 
L 176.274126 285.558758 
L 175.586014 255.605322 
L 174.897902 192.545455 
L 174.20979 209.361419 
L 172.833566 268.742794 
L 172.145455 237.21286 
L 171.457343 224.075388 
L 170.769231 282.931264 
L 170.081119 271.370288 
L 169.393007 287.135255 
L 168.704895 253.503326 
L 168.016783 292.390244 
L 167.328671 285.558758 
L 166.640559 280.303769 
L 165.952448 282.405765 
L 165.264336 286.084257 
L 164.576224 272.421286 
L 163.888112 282.405765 
L 163.2 277.676275 
L 162.511888 256.13082 
L 161.823776 286.084257 
L 161.135664 279.252772 
L 160.447552 236.687361 
L 159.759441 232.48337 
L 159.071329 286.609756 
L 158.383217 255.605322 
L 157.695105 254.028825 
L 157.006993 234.585366 
L 156.318881 255.079823 
L 155.630769 282.931264 
L 154.942657 286.084257 
L 154.254545 286.609756 
L 153.566434 266.640798 
L 152.878322 288.186253 
L 152.19021 194.121951 
L 151.502098 41.727273 
L 150.813986 128.43459 
L 150.125874 74.308204 
L 149.437762 84.818182 
L 148.74965 160.490022 
L 148.061538 115.822616 
L 147.373427 244.044346 
L 146.685315 271.895787 
L 145.997203 293.441242 
L 145.309091 229.330377 
L 144.620979 192.019956 
L 143.932867 189.392461 
L 143.244755 194.121951 
L 142.556643 185.713969 
L 141.868531 210.937916 
L 141.18042 211.463415 
L 140.492308 210.937916 
L 139.804196 240.891353 
L 139.116084 288.186253 
L 138.427972 279.252772 
L 137.73986 286.084257 
L 137.051748 276.625277 
L 136.363636 270.844789 
L 135.675524 269.268293 
L 134.987413 250.350333 
L 134.299301 282.405765 
L 133.611189 280.829268 
L 132.923077 255.079823 
L 132.234965 271.370288 
L 131.546853 257.181818 
L 130.858741 242.993348 
L 130.170629 269.793792 
L 129.482517 236.161863 
L 128.794406 261.911308 
L 128.106294 159.439024 
L 127.418182 96.379157 
L 126.73007 186.764967 
L 126.041958 187.290466 
L 125.353846 190.968958 
L 124.665734 196.223947 
L 123.977622 166.27051 
L 123.28951 190.968958 
L 122.601399 169.423503 
L 121.913287 183.086475 
L 121.225175 182.560976 
L 120.537063 192.545455 
L 119.848951 182.560976 
L 119.160839 228.804878 
L 118.472727 278.201774 
L 117.784615 194.121951 
L 117.096503 189.91796 
L 116.408392 177.831486 
L 115.72028 179.407982 
L 115.032168 203.055432 
L 114.344056 204.631929 
L 113.655944 128.960089 
L 112.967832 155.235033 
L 112.27972 66.95122 
L 111.591608 100.583149 
L 110.903497 119.501109 
L 110.215385 143.674058 
L 109.527273 203.055432 
L 108.839161 200.953437 
L 108.151049 209.886918 
L 107.462937 265.064302 
L 106.774825 283.982262 
L 106.086713 283.456763 
L 105.398601 188.866962 
L 104.71049 115.822616 
L 104.022378 139.995565 
L 103.334266 140.521064 
L 102.646154 197.274945 
L 101.958042 205.157428 
L 101.26993 204.631929 
L 100.581818 140.521064 
L 99.893706 208.310421 
L 99.205594 265.5898 
L 98.517483 238.263858 
L 97.829371 255.605322 
L 97.141259 285.558758 
L 95.076923 284.507761 
L 94.388811 197.274945 
L 93.700699 228.804878 
L 93.012587 262.962306 
L 92.324476 280.303769 
L 91.636364 275.04878 
z
" style="fill:#ffa07a;fill-opacity:0.3;"/>
   </g>
   <g id="matplotlib.axis_1">
    <g id="xtick_1">
     <g id="line2d_1">
      <path clip-path="url(#ped641df205)" d="M 91.636364 313.2 
L 91.636364 28.8 
" style="fill:none;stroke:#808080;stroke-dasharray:6.4,1.6,1,1.6;stroke-dashoffset:0;stroke-opacity:0.3;"/>
     </g>
     <g id="line2d_2">
      <defs>
       <path d="M 0 0 
L 0 3.5 
" id="m1fba7e4f3f" style="stroke:#000000;stroke-width:0.8;"/>
      </defs>
      <g>
       <use style="stroke:#000000;stroke-width:0.8;" x="91.636364" xlink:href="#m1fba7e4f3f" y="313.2"/>
      </g>
     </g>
     <g id="text_1">
      <!-- 2020-11-20 -->
      <g transform="translate(62.578551 327.798437)scale(0.1 -0.1)">
       <defs>
        <path d="M 19.1875 8.296875 
L 53.609375 8.296875 
L 53.609375 0 
L 7.328125 0 
L 7.328125 8.296875 
Q 12.9375 14.109375 22.625 23.890625 
Q 32.328125 33.6875 34.8125 36.53125 
Q 39.546875 41.84375 41.421875 45.53125 
Q 43.3125 49.21875 43.3125 52.78125 
Q 43.3125 58.59375 39.234375 62.25 
Q 35.15625 65.921875 28.609375 65.921875 
Q 23.96875 65.921875 18.8125 64.3125 
Q 13.671875 62.703125 7.8125 59.421875 
L 7.8125 69.390625 
Q 13.765625 71.78125 18.9375 73 
Q 24.125 74.21875 28.421875 74.21875 
Q 39.75 74.21875 46.484375 68.546875 
Q 53.21875 62.890625 53.21875 53.421875 
Q 53.21875 48.921875 51.53125 44.890625 
Q 49.859375 40.875 45.40625 35.40625 
Q 44.1875 33.984375 37.640625 27.21875 
Q 31.109375 20.453125 19.1875 8.296875 
z
" id="DejaVuSans-50"/>
        <path d="M 31.78125 66.40625 
Q 24.171875 66.40625 20.328125 58.90625 
Q 16.5 51.421875 16.5 36.375 
Q 16.5 21.390625 20.328125 13.890625 
Q 24.171875 6.390625 31.78125 6.390625 
Q 39.453125 6.390625 43.28125 13.890625 
Q 47.125 21.390625 47.125 36.375 
Q 47.125 51.421875 43.28125 58.90625 
Q 39.453125 66.40625 31.78125 66.40625 
z
M 31.78125 74.21875 
Q 44.046875 74.21875 50.515625 64.515625 
Q 56.984375 54.828125 56.984375 36.375 
Q 56.984375 17.96875 50.515625 8.265625 
Q 44.046875 -1.421875 31.78125 -1.421875 
Q 19.53125 -1.421875 13.0625 8.265625 
Q 6.59375 17.96875 6.59375 36.375 
Q 6.59375 54.828125 13.0625 64.515625 
Q 19.53125 74.21875 31.78125 74.21875 
z
" id="DejaVuSans-48"/>
        <path d="M 4.890625 31.390625 
L 31.203125 31.390625 
L 31.203125 23.390625 
L 4.890625 23.390625 
z
" id="DejaVuSans-45"/>
        <path d="M 12.40625 8.296875 
L 28.515625 8.296875 
L 28.515625 63.921875 
L 10.984375 60.40625 
L 10.984375 69.390625 
L 28.421875 72.90625 
L 38.28125 72.90625 
L 38.28125 8.296875 
L 54.390625 8.296875 
L 54.390625 0 
L 12.40625 0 
z
" id="DejaVuSans-49"/>
       </defs>
       <use xlink:href="#DejaVuSans-50"/>
       <use x="63.623047" xlink:href="#DejaVuSans-48"/>
       <use x="127.246094" xlink:href="#DejaVuSans-50"/>
       <use x="190.869141" xlink:href="#DejaVuSans-48"/>
       <use x="254.492188" xlink:href="#DejaVuSans-45"/>
       <use x="290.576172" xlink:href="#DejaVuSans-49"/>
       <use x="354.199219" xlink:href="#DejaVuSans-49"/>
       <use x="417.822266" xlink:href="#DejaVuSans-45"/>
       <use x="453.90625" xlink:href="#DejaVuSans-50"/>
       <use x="517.529297" xlink:href="#DejaVuSans-48"/>
      </g>
     </g>
    </g>
    <g id="xtick_2">
     <g id="line2d_3">
      <path clip-path="url(#ped641df205)" d="M 168.016783 313.2 
L 168.016783 28.8 
" style="fill:none;stroke:#808080;stroke-dasharray:6.4,1.6,1,1.6;stroke-dashoffset:0;stroke-opacity:0.3;"/>
     </g>
     <g id="line2d_4">
      <g>
       <use style="stroke:#000000;stroke-width:0.8;" x="168.016783" xlink:href="#m1fba7e4f3f" y="313.2"/>
      </g>
     </g>
     <g id="text_2">
      <!-- 2021-03-11 -->
      <g transform="translate(138.958971 327.798437)scale(0.1 -0.1)">
       <defs>
        <path d="M 40.578125 39.3125 
Q 47.65625 37.796875 51.625 33 
Q 55.609375 28.21875 55.609375 21.1875 
Q 55.609375 10.40625 48.1875 4.484375 
Q 40.765625 -1.421875 27.09375 -1.421875 
Q 22.515625 -1.421875 17.65625 -0.515625 
Q 12.796875 0.390625 7.625 2.203125 
L 7.625 11.71875 
Q 11.71875 9.328125 16.59375 8.109375 
Q 21.484375 6.890625 26.8125 6.890625 
Q 36.078125 6.890625 40.9375 10.546875 
Q 45.796875 14.203125 45.796875 21.1875 
Q 45.796875 27.640625 41.28125 31.265625 
Q 36.765625 34.90625 28.71875 34.90625 
L 20.21875 34.90625 
L 20.21875 43.015625 
L 29.109375 43.015625 
Q 36.375 43.015625 40.234375 45.921875 
Q 44.09375 48.828125 44.09375 54.296875 
Q 44.09375 59.90625 40.109375 62.90625 
Q 36.140625 65.921875 28.71875 65.921875 
Q 24.65625 65.921875 20.015625 65.03125 
Q 15.375 64.15625 9.8125 62.3125 
L 9.8125 71.09375 
Q 15.4375 72.65625 20.34375 73.4375 
Q 25.25 74.21875 29.59375 74.21875 
Q 40.828125 74.21875 47.359375 69.109375 
Q 53.90625 64.015625 53.90625 55.328125 
Q 53.90625 49.265625 50.4375 45.09375 
Q 46.96875 40.921875 40.578125 39.3125 
z
" id="DejaVuSans-51"/>
       </defs>
       <use xlink:href="#DejaVuSans-50"/>
       <use x="63.623047" xlink:href="#DejaVuSans-48"/>
       <use x="127.246094" xlink:href="#DejaVuSans-50"/>
       <use x="190.869141" xlink:href="#DejaVuSans-49"/>
       <use x="254.492188" xlink:href="#DejaVuSans-45"/>
       <use x="290.576172" xlink:href="#DejaVuSans-48"/>
       <use x="354.199219" xlink:href="#DejaVuSans-51"/>
       <use x="417.822266" xlink:href="#DejaVuSans-45"/>
       <use x="453.90625" xlink:href="#DejaVuSans-49"/>
       <use x="517.529297" xlink:href="#DejaVuSans-49"/>
      </g>
     </g>
    </g>
    <g id="xtick_3">
     <g id="line2d_5">
      <path clip-path="url(#ped641df205)" d="M 244.397203 313.2 
L 244.397203 28.8 
" style="fill:none;stroke:#808080;stroke-dasharray:6.4,1.6,1,1.6;stroke-dashoffset:0;stroke-opacity:0.3;"/>
     </g>
     <g id="line2d_6">
      <g>
       <use style="stroke:#000000;stroke-width:0.8;" x="244.397203" xlink:href="#m1fba7e4f3f" y="313.2"/>
      </g>
     </g>
     <g id="text_3">
      <!-- 2021-06-30 -->
      <g transform="translate(215.33939 327.798437)scale(0.1 -0.1)">
       <defs>
        <path d="M 33.015625 40.375 
Q 26.375 40.375 22.484375 35.828125 
Q 18.609375 31.296875 18.609375 23.390625 
Q 18.609375 15.53125 22.484375 10.953125 
Q 26.375 6.390625 33.015625 6.390625 
Q 39.65625 6.390625 43.53125 10.953125 
Q 47.40625 15.53125 47.40625 23.390625 
Q 47.40625 31.296875 43.53125 35.828125 
Q 39.65625 40.375 33.015625 40.375 
z
M 52.59375 71.296875 
L 52.59375 62.3125 
Q 48.875 64.0625 45.09375 64.984375 
Q 41.3125 65.921875 37.59375 65.921875 
Q 27.828125 65.921875 22.671875 59.328125 
Q 17.53125 52.734375 16.796875 39.40625 
Q 19.671875 43.65625 24.015625 45.921875 
Q 28.375 48.1875 33.59375 48.1875 
Q 44.578125 48.1875 50.953125 41.515625 
Q 57.328125 34.859375 57.328125 23.390625 
Q 57.328125 12.15625 50.6875 5.359375 
Q 44.046875 -1.421875 33.015625 -1.421875 
Q 20.359375 -1.421875 13.671875 8.265625 
Q 6.984375 17.96875 6.984375 36.375 
Q 6.984375 53.65625 15.1875 63.9375 
Q 23.390625 74.21875 37.203125 74.21875 
Q 40.921875 74.21875 44.703125 73.484375 
Q 48.484375 72.75 52.59375 71.296875 
z
" id="DejaVuSans-54"/>
       </defs>
       <use xlink:href="#DejaVuSans-50"/>
       <use x="63.623047" xlink:href="#DejaVuSans-48"/>
       <use x="127.246094" xlink:href="#DejaVuSans-50"/>
       <use x="190.869141" xlink:href="#DejaVuSans-49"/>
       <use x="254.492188" xlink:href="#DejaVuSans-45"/>
       <use x="290.576172" xlink:href="#DejaVuSans-48"/>
       <use x="354.199219" xlink:href="#DejaVuSans-54"/>
       <use x="417.822266" xlink:href="#DejaVuSans-45"/>
       <use x="453.90625" xlink:href="#DejaVuSans-51"/>
       <use x="517.529297" xlink:href="#DejaVuSans-48"/>
      </g>
     </g>
    </g>
    <g id="xtick_4">
     <g id="line2d_7">
      <path clip-path="url(#ped641df205)" d="M 321.465734 313.2 
L 321.465734 28.8 
" style="fill:none;stroke:#808080;stroke-dasharray:6.4,1.6,1,1.6;stroke-dashoffset:0;stroke-opacity:0.3;"/>
     </g>
     <g id="line2d_8">
      <g>
       <use style="stroke:#000000;stroke-width:0.8;" x="321.465734" xlink:href="#m1fba7e4f3f" y="313.2"/>
      </g>
     </g>
     <g id="text_4">
      <!-- 2021-10-20 -->
      <g transform="translate(292.407922 327.798437)scale(0.1 -0.1)">
       <use xlink:href="#DejaVuSans-50"/>
       <use x="63.623047" xlink:href="#DejaVuSans-48"/>
       <use x="127.246094" xlink:href="#DejaVuSans-50"/>
       <use x="190.869141" xlink:href="#DejaVuSans-49"/>
       <use x="254.492188" xlink:href="#DejaVuSans-45"/>
       <use x="290.576172" xlink:href="#DejaVuSans-49"/>
       <use x="354.199219" xlink:href="#DejaVuSans-48"/>
       <use x="417.822266" xlink:href="#DejaVuSans-45"/>
       <use x="453.90625" xlink:href="#DejaVuSans-50"/>
       <use x="517.529297" xlink:href="#DejaVuSans-48"/>
      </g>
     </g>
    </g>
    <g id="xtick_5">
     <g id="line2d_9">
      <path clip-path="url(#ped641df205)" d="M 397.846154 313.2 
L 397.846154 28.8 
" style="fill:none;stroke:#808080;stroke-dasharray:6.4,1.6,1,1.6;stroke-dashoffset:0;stroke-opacity:0.3;"/>
     </g>
     <g id="line2d_10">
      <g>
       <use style="stroke:#000000;stroke-width:0.8;" x="397.846154" xlink:href="#m1fba7e4f3f" y="313.2"/>
      </g>
     </g>
     <g id="text_5">
      <!-- 2022-02-08 -->
      <g transform="translate(368.788341 327.798437)scale(0.1 -0.1)">
       <defs>
        <path d="M 31.78125 34.625 
Q 24.75 34.625 20.71875 30.859375 
Q 16.703125 27.09375 16.703125 20.515625 
Q 16.703125 13.921875 20.71875 10.15625 
Q 24.75 6.390625 31.78125 6.390625 
Q 38.8125 6.390625 42.859375 10.171875 
Q 46.921875 13.96875 46.921875 20.515625 
Q 46.921875 27.09375 42.890625 30.859375 
Q 38.875 34.625 31.78125 34.625 
z
M 21.921875 38.8125 
Q 15.578125 40.375 12.03125 44.71875 
Q 8.5 49.078125 8.5 55.328125 
Q 8.5 64.0625 14.71875 69.140625 
Q 20.953125 74.21875 31.78125 74.21875 
Q 42.671875 74.21875 48.875 69.140625 
Q 55.078125 64.0625 55.078125 55.328125 
Q 55.078125 49.078125 51.53125 44.71875 
Q 48 40.375 41.703125 38.8125 
Q 48.828125 37.15625 52.796875 32.3125 
Q 56.78125 27.484375 56.78125 20.515625 
Q 56.78125 9.90625 50.3125 4.234375 
Q 43.84375 -1.421875 31.78125 -1.421875 
Q 19.734375 -1.421875 13.25 4.234375 
Q 6.78125 9.90625 6.78125 20.515625 
Q 6.78125 27.484375 10.78125 32.3125 
Q 14.796875 37.15625 21.921875 38.8125 
z
M 18.3125 54.390625 
Q 18.3125 48.734375 21.84375 45.5625 
Q 25.390625 42.390625 31.78125 42.390625 
Q 38.140625 42.390625 41.71875 45.5625 
Q 45.3125 48.734375 45.3125 54.390625 
Q 45.3125 60.0625 41.71875 63.234375 
Q 38.140625 66.40625 31.78125 66.40625 
Q 25.390625 66.40625 21.84375 63.234375 
Q 18.3125 60.0625 18.3125 54.390625 
z
" id="DejaVuSans-56"/>
       </defs>
       <use xlink:href="#DejaVuSans-50"/>
       <use x="63.623047" xlink:href="#DejaVuSans-48"/>
       <use x="127.246094" xlink:href="#DejaVuSans-50"/>
       <use x="190.869141" xlink:href="#DejaVuSans-50"/>
       <use x="254.492188" xlink:href="#DejaVuSans-45"/>
       <use x="290.576172" xlink:href="#DejaVuSans-48"/>
       <use x="354.199219" xlink:href="#DejaVuSans-50"/>
       <use x="417.822266" xlink:href="#DejaVuSans-45"/>
       <use x="453.90625" xlink:href="#DejaVuSans-48"/>
       <use x="517.529297" xlink:href="#DejaVuSans-56"/>
      </g>
     </g>
    </g>
    <g id="xtick_6">
     <g id="line2d_11">
      <path clip-path="url(#ped641df205)" d="M 474.914685 313.2 
L 474.914685 28.8 
" style="fill:none;stroke:#808080;stroke-dasharray:6.4,1.6,1,1.6;stroke-dashoffset:0;stroke-opacity:0.3;"/>
     </g>
     <g id="line2d_12">
      <g>
       <use style="stroke:#000000;stroke-width:0.8;" x="474.914685" xlink:href="#m1fba7e4f3f" y="313.2"/>
      </g>
     </g>
     <g id="text_6">
      <!-- 2022-05-31 -->
      <g transform="translate(445.856873 327.798437)scale(0.1 -0.1)">
       <defs>
        <path d="M 10.796875 72.90625 
L 49.515625 72.90625 
L 49.515625 64.59375 
L 19.828125 64.59375 
L 19.828125 46.734375 
Q 21.96875 47.46875 24.109375 47.828125 
Q 26.265625 48.1875 28.421875 48.1875 
Q 40.625 48.1875 47.75 41.5 
Q 54.890625 34.8125 54.890625 23.390625 
Q 54.890625 11.625 47.5625 5.09375 
Q 40.234375 -1.421875 26.90625 -1.421875 
Q 22.3125 -1.421875 17.546875 -0.640625 
Q 12.796875 0.140625 7.71875 1.703125 
L 7.71875 11.625 
Q 12.109375 9.234375 16.796875 8.0625 
Q 21.484375 6.890625 26.703125 6.890625 
Q 35.15625 6.890625 40.078125 11.328125 
Q 45.015625 15.765625 45.015625 23.390625 
Q 45.015625 31 40.078125 35.4375 
Q 35.15625 39.890625 26.703125 39.890625 
Q 22.75 39.890625 18.8125 39.015625 
Q 14.890625 38.140625 10.796875 36.28125 
z
" id="DejaVuSans-53"/>
       </defs>
       <use xlink:href="#DejaVuSans-50"/>
       <use x="63.623047" xlink:href="#DejaVuSans-48"/>
       <use x="127.246094" xlink:href="#DejaVuSans-50"/>
       <use x="190.869141" xlink:href="#DejaVuSans-50"/>
       <use x="254.492188" xlink:href="#DejaVuSans-45"/>
       <use x="290.576172" xlink:href="#DejaVuSans-48"/>
       <use x="354.199219" xlink:href="#DejaVuSans-53"/>
       <use x="417.822266" xlink:href="#DejaVuSans-45"/>
       <use x="453.90625" xlink:href="#DejaVuSans-51"/>
       <use x="517.529297" xlink:href="#DejaVuSans-49"/>
      </g>
     </g>
    </g>
    <g id="xtick_7">
     <g id="line2d_13">
      <path clip-path="url(#ped641df205)" d="M 551.295105 313.2 
L 551.295105 28.8 
" style="fill:none;stroke:#808080;stroke-dasharray:6.4,1.6,1,1.6;stroke-dashoffset:0;stroke-opacity:0.3;"/>
     </g>
     <g id="line2d_14">
      <g>
       <use style="stroke:#000000;stroke-width:0.8;" x="551.295105" xlink:href="#m1fba7e4f3f" y="313.2"/>
      </g>
     </g>
     <g id="text_7">
      <!-- 2022-09-19 -->
      <g transform="translate(522.237292 327.798437)scale(0.1 -0.1)">
       <defs>
        <path d="M 10.984375 1.515625 
L 10.984375 10.5 
Q 14.703125 8.734375 18.5 7.8125 
Q 22.3125 6.890625 25.984375 6.890625 
Q 35.75 6.890625 40.890625 13.453125 
Q 46.046875 20.015625 46.78125 33.40625 
Q 43.953125 29.203125 39.59375 26.953125 
Q 35.25 24.703125 29.984375 24.703125 
Q 19.046875 24.703125 12.671875 31.3125 
Q 6.296875 37.9375 6.296875 49.421875 
Q 6.296875 60.640625 12.9375 67.421875 
Q 19.578125 74.21875 30.609375 74.21875 
Q 43.265625 74.21875 49.921875 64.515625 
Q 56.59375 54.828125 56.59375 36.375 
Q 56.59375 19.140625 48.40625 8.859375 
Q 40.234375 -1.421875 26.421875 -1.421875 
Q 22.703125 -1.421875 18.890625 -0.6875 
Q 15.09375 0.046875 10.984375 1.515625 
z
M 30.609375 32.421875 
Q 37.25 32.421875 41.125 36.953125 
Q 45.015625 41.5 45.015625 49.421875 
Q 45.015625 57.28125 41.125 61.84375 
Q 37.25 66.40625 30.609375 66.40625 
Q 23.96875 66.40625 20.09375 61.84375 
Q 16.21875 57.28125 16.21875 49.421875 
Q 16.21875 41.5 20.09375 36.953125 
Q 23.96875 32.421875 30.609375 32.421875 
z
" id="DejaVuSans-57"/>
       </defs>
       <use xlink:href="#DejaVuSans-50"/>
       <use x="63.623047" xlink:href="#DejaVuSans-48"/>
       <use x="127.246094" xlink:href="#DejaVuSans-50"/>
       <use x="190.869141" xlink:href="#DejaVuSans-50"/>
       <use x="254.492188" xlink:href="#DejaVuSans-45"/>
       <use x="290.576172" xlink:href="#DejaVuSans-48"/>
       <use x="354.199219" xlink:href="#DejaVuSans-57"/>
       <use x="417.822266" xlink:href="#DejaVuSans-45"/>
       <use x="453.90625" xlink:href="#DejaVuSans-49"/>
       <use x="517.529297" xlink:href="#DejaVuSans-57"/>
      </g>
     </g>
    </g>
    <g id="xtick_8">
     <g id="line2d_15">
      <path clip-path="url(#ped641df205)" d="M 628.363636 313.2 
L 628.363636 28.8 
" style="fill:none;stroke:#808080;stroke-dasharray:6.4,1.6,1,1.6;stroke-dashoffset:0;stroke-opacity:0.3;"/>
     </g>
     <g id="line2d_16">
      <g>
       <use style="stroke:#000000;stroke-width:0.8;" x="628.363636" xlink:href="#m1fba7e4f3f" y="313.2"/>
      </g>
     </g>
     <g id="text_8">
      <!-- 2023-01-09 -->
      <g transform="translate(599.305824 327.798437)scale(0.1 -0.1)">
       <use xlink:href="#DejaVuSans-50"/>
       <use x="63.623047" xlink:href="#DejaVuSans-48"/>
       <use x="127.246094" xlink:href="#DejaVuSans-50"/>
       <use x="190.869141" xlink:href="#DejaVuSans-51"/>
       <use x="254.492188" xlink:href="#DejaVuSans-45"/>
       <use x="290.576172" xlink:href="#DejaVuSans-48"/>
       <use x="354.199219" xlink:href="#DejaVuSans-49"/>
       <use x="417.822266" xlink:href="#DejaVuSans-45"/>
       <use x="453.90625" xlink:href="#DejaVuSans-48"/>
       <use x="517.529297" xlink:href="#DejaVuSans-57"/>
      </g>
     </g>
    </g>
    <g id="text_9">
     <!-- Datum -->
     <g transform="translate(343.086719 341.476562)scale(0.1 -0.1)">
      <defs>
       <path d="M 19.671875 64.796875 
L 19.671875 8.109375 
L 31.59375 8.109375 
Q 46.6875 8.109375 53.6875 14.9375 
Q 60.6875 21.78125 60.6875 36.53125 
Q 60.6875 51.171875 53.6875 57.984375 
Q 46.6875 64.796875 31.59375 64.796875 
z
M 9.8125 72.90625 
L 30.078125 72.90625 
Q 51.265625 72.90625 61.171875 64.09375 
Q 71.09375 55.28125 71.09375 36.53125 
Q 71.09375 17.671875 61.125 8.828125 
Q 51.171875 0 30.078125 0 
L 9.8125 0 
z
" id="DejaVuSans-68"/>
       <path d="M 34.28125 27.484375 
Q 23.390625 27.484375 19.1875 25 
Q 14.984375 22.515625 14.984375 16.5 
Q 14.984375 11.71875 18.140625 8.90625 
Q 21.296875 6.109375 26.703125 6.109375 
Q 34.1875 6.109375 38.703125 11.40625 
Q 43.21875 16.703125 43.21875 25.484375 
L 43.21875 27.484375 
z
M 52.203125 31.203125 
L 52.203125 0 
L 43.21875 0 
L 43.21875 8.296875 
Q 40.140625 3.328125 35.546875 0.953125 
Q 30.953125 -1.421875 24.3125 -1.421875 
Q 15.921875 -1.421875 10.953125 3.296875 
Q 6 8.015625 6 15.921875 
Q 6 25.140625 12.171875 29.828125 
Q 18.359375 34.515625 30.609375 34.515625 
L 43.21875 34.515625 
L 43.21875 35.40625 
Q 43.21875 41.609375 39.140625 45 
Q 35.0625 48.390625 27.6875 48.390625 
Q 23 48.390625 18.546875 47.265625 
Q 14.109375 46.140625 10.015625 43.890625 
L 10.015625 52.203125 
Q 14.9375 54.109375 19.578125 55.046875 
Q 24.21875 56 28.609375 56 
Q 40.484375 56 46.34375 49.84375 
Q 52.203125 43.703125 52.203125 31.203125 
z
" id="DejaVuSans-97"/>
       <path d="M 18.3125 70.21875 
L 18.3125 54.6875 
L 36.8125 54.6875 
L 36.8125 47.703125 
L 18.3125 47.703125 
L 18.3125 18.015625 
Q 18.3125 11.328125 20.140625 9.421875 
Q 21.96875 7.515625 27.59375 7.515625 
L 36.8125 7.515625 
L 36.8125 0 
L 27.59375 0 
Q 17.1875 0 13.234375 3.875 
Q 9.28125 7.765625 9.28125 18.015625 
L 9.28125 47.703125 
L 2.6875 47.703125 
L 2.6875 54.6875 
L 9.28125 54.6875 
L 9.28125 70.21875 
z
" id="DejaVuSans-116"/>
       <path d="M 8.5 21.578125 
L 8.5 54.6875 
L 17.484375 54.6875 
L 17.484375 21.921875 
Q 17.484375 14.15625 20.5 10.265625 
Q 23.53125 6.390625 29.59375 6.390625 
Q 36.859375 6.390625 41.078125 11.03125 
Q 45.3125 15.671875 45.3125 23.6875 
L 45.3125 54.6875 
L 54.296875 54.6875 
L 54.296875 0 
L 45.3125 0 
L 45.3125 8.40625 
Q 42.046875 3.421875 37.71875 1 
Q 33.40625 -1.421875 27.6875 -1.421875 
Q 18.265625 -1.421875 13.375 4.4375 
Q 8.5 10.296875 8.5 21.578125 
z
M 31.109375 56 
z
" id="DejaVuSans-117"/>
       <path d="M 52 44.1875 
Q 55.375 50.25 60.0625 53.125 
Q 64.75 56 71.09375 56 
Q 79.640625 56 84.28125 50.015625 
Q 88.921875 44.046875 88.921875 33.015625 
L 88.921875 0 
L 79.890625 0 
L 79.890625 32.71875 
Q 79.890625 40.578125 77.09375 44.375 
Q 74.3125 48.1875 68.609375 48.1875 
Q 61.625 48.1875 57.5625 43.546875 
Q 53.515625 38.921875 53.515625 30.90625 
L 53.515625 0 
L 44.484375 0 
L 44.484375 32.71875 
Q 44.484375 40.625 41.703125 44.40625 
Q 38.921875 48.1875 33.109375 48.1875 
Q 26.21875 48.1875 22.15625 43.53125 
Q 18.109375 38.875 18.109375 30.90625 
L 18.109375 0 
L 9.078125 0 
L 9.078125 54.6875 
L 18.109375 54.6875 
L 18.109375 46.1875 
Q 21.1875 51.21875 25.484375 53.609375 
Q 29.78125 56 35.6875 56 
Q 41.65625 56 45.828125 52.96875 
Q 50 49.953125 52 44.1875 
z
" id="DejaVuSans-109"/>
      </defs>
      <use xlink:href="#DejaVuSans-68"/>
      <use x="77.001953" xlink:href="#DejaVuSans-97"/>
      <use x="138.28125" xlink:href="#DejaVuSans-116"/>
      <use x="177.490234" xlink:href="#DejaVuSans-117"/>
      <use x="240.869141" xlink:href="#DejaVuSans-109"/>
     </g>
    </g>
   </g>
   <g id="matplotlib.axis_2">
    <g id="ytick_1">
     <g id="line2d_17">
      <path clip-path="url(#ped641df205)" d="M 64.8 300.272727 
L 655.2 300.272727 
" style="fill:none;stroke:#808080;stroke-dasharray:6.4,1.6,1,1.6;stroke-dashoffset:0;stroke-opacity:0.3;"/>
     </g>
     <g id="line2d_18">
      <defs>
       <path d="M 0 0 
L -3.5 0 
" id="mcc4225fba2" style="stroke:#000000;stroke-width:0.8;"/>
      </defs>
      <g>
       <use style="stroke:#000000;stroke-width:0.8;" x="64.8" xlink:href="#mcc4225fba2" y="300.272727"/>
      </g>
     </g>
     <g id="text_10">
      <!-- 0 -->
      <g transform="translate(51.4375 304.071946)scale(0.1 -0.1)">
       <use xlink:href="#DejaVuSans-48"/>
      </g>
     </g>
    </g>
    <g id="ytick_2">
     <g id="line2d_19">
      <path clip-path="url(#ped641df205)" d="M 64.8 237.21286 
L 655.2 237.21286 
" style="fill:none;stroke:#808080;stroke-dasharray:6.4,1.6,1,1.6;stroke-dashoffset:0;stroke-opacity:0.3;"/>
     </g>
     <g id="line2d_20">
      <g>
       <use style="stroke:#000000;stroke-width:0.8;" x="64.8" xlink:href="#mcc4225fba2" y="237.21286"/>
      </g>
     </g>
     <g id="text_11">
      <!-- 5 -->
      <g transform="translate(51.4375 241.012079)scale(0.1 -0.1)">
       <use xlink:href="#DejaVuSans-53"/>
      </g>
     </g>
    </g>
    <g id="ytick_3">
     <g id="line2d_21">
      <path clip-path="url(#ped641df205)" d="M 64.8 174.152993 
L 655.2 174.152993 
" style="fill:none;stroke:#808080;stroke-dasharray:6.4,1.6,1,1.6;stroke-dashoffset:0;stroke-opacity:0.3;"/>
     </g>
     <g id="line2d_22">
      <g>
       <use style="stroke:#000000;stroke-width:0.8;" x="64.8" xlink:href="#mcc4225fba2" y="174.152993"/>
      </g>
     </g>
     <g id="text_12">
      <!-- 10 -->
      <g transform="translate(45.075 177.952212)scale(0.1 -0.1)">
       <use xlink:href="#DejaVuSans-49"/>
       <use x="63.623047" xlink:href="#DejaVuSans-48"/>
      </g>
     </g>
    </g>
    <g id="ytick_4">
     <g id="line2d_23">
      <path clip-path="url(#ped641df205)" d="M 64.8 111.093126 
L 655.2 111.093126 
" style="fill:none;stroke:#808080;stroke-dasharray:6.4,1.6,1,1.6;stroke-dashoffset:0;stroke-opacity:0.3;"/>
     </g>
     <g id="line2d_24">
      <g>
       <use style="stroke:#000000;stroke-width:0.8;" x="64.8" xlink:href="#mcc4225fba2" y="111.093126"/>
      </g>
     </g>
     <g id="text_13">
      <!-- 15 -->
      <g transform="translate(45.075 114.892345)scale(0.1 -0.1)">
       <use xlink:href="#DejaVuSans-49"/>
       <use x="63.623047" xlink:href="#DejaVuSans-53"/>
      </g>
     </g>
    </g>
    <g id="ytick_5">
     <g id="line2d_25">
      <path clip-path="url(#ped641df205)" d="M 64.8 48.033259 
L 655.2 48.033259 
" style="fill:none;stroke:#808080;stroke-dasharray:6.4,1.6,1,1.6;stroke-dashoffset:0;stroke-opacity:0.3;"/>
     </g>
     <g id="line2d_26">
      <g>
       <use style="stroke:#000000;stroke-width:0.8;" x="64.8" xlink:href="#mcc4225fba2" y="48.033259"/>
      </g>
     </g>
     <g id="text_14">
      <!-- 20 -->
      <g transform="translate(45.075 51.832478)scale(0.1 -0.1)">
       <use xlink:href="#DejaVuSans-50"/>
       <use x="63.623047" xlink:href="#DejaVuSans-48"/>
      </g>
     </g>
    </g>
   </g>
   <g id="line2d_27">
    <path clip-path="url(#ped641df205)" d="M 91.636364 280.090993 
L 95.076923 246.739249 
L 97.141259 240.0689 
L 98.517483 228.336238 
L 100.581818 214.491807 
L 104.022378 197.940369 
L 104.71049 195.418596 
L 105.398601 193.456527 
L 106.086713 192.153662 
L 106.774825 190.387489 
L 107.462937 187.834621 
L 109.527273 178.577756 
L 110.215385 175.639316 
L 110.903497 173.565305 
L 111.591608 172.371272 
L 112.27972 172.293536 
L 113.655944 174.451502 
L 115.72028 178.195293 
L 116.408392 180.275522 
L 118.472727 188.500046 
L 119.160839 189.753159 
L 121.225175 190.676669 
L 121.913287 190.658012 
L 122.601399 190.829032 
L 123.28951 191.279904 
L 123.977622 192.287369 
L 124.665734 194.037996 
L 125.353846 196.189743 
L 126.73007 201.808539 
L 127.418182 205.343996 
L 128.106294 210.987667 
L 130.170629 230.574161 
L 131.546853 242.228421 
L 132.234965 247.07918 
L 132.923077 251.099713 
L 133.611189 254.333552 
L 134.299301 256.503956 
L 134.987413 257.610924 
L 135.675524 257.984059 
L 136.363636 257.411918 
L 137.051748 255.561789 
L 138.427972 250.446726 
L 139.116084 247.312389 
L 140.492308 238.322938 
L 141.868531 227.46781 
L 143.932867 209.76254 
L 144.620979 205.057925 
L 145.997203 198.030544 
L 147.373427 191.450924 
L 148.061538 188.509374 
L 148.74965 187.290466 
L 149.437762 187.100789 
L 150.125874 188.667957 
L 150.813986 192.302917 
L 151.502098 197.041735 
L 154.254545 223.83285 
L 157.695105 252.132054 
L 158.383217 257.082315 
L 159.071329 261.199242 
L 159.759441 264.09415 
L 160.447552 266.497763 
L 161.135664 268.046275 
L 163.2 270.90076 
L 164.576224 272.197405 
L 165.264336 272.505241 
L 165.952448 272.076136 
L 167.328671 270.210459 
L 168.016783 269.035083 
L 169.393007 265.925622 
L 171.457343 260.278841 
L 172.145455 258.873365 
L 172.833566 257.825477 
L 174.897902 256.323607 
L 175.586014 256.808683 
L 176.962238 258.397617 
L 177.65035 258.944883 
L 178.338462 259.678715 
L 179.026573 259.585431 
L 181.090909 256.957937 
L 181.779021 255.285047 
L 183.155245 250.518243 
L 183.843357 247.980923 
L 185.21958 241.025059 
L 186.595804 234.230887 
L 187.283916 231.320432 
L 187.972028 230.020677 
L 188.66014 230.232121 
L 190.036364 230.082866 
L 190.724476 231.049909 
L 191.412587 233.008869 
L 192.100699 235.372059 
L 193.476923 241.674937 
L 195.541259 252.017004 
L 196.229371 255.157559 
L 196.917483 257.237788 
L 198.293706 258.795628 
L 198.981818 259.271376 
L 199.66993 258.854708 
L 200.358042 257.421247 
L 201.046154 255.316142 
L 202.422378 248.947966 
L 205.862937 230.633241 
L 206.551049 228.500151 
L 207.239161 227.088456 
L 207.927273 226.323528 
L 208.615385 226.401265 
L 209.303497 227.474029 
L 209.991608 229.457865 
L 212.744056 241.053045 
L 213.432168 243.2732 
L 214.12028 244.799945 
L 214.808392 245.452932 
L 215.496503 244.722208 
L 216.184615 243.049318 
L 216.872727 240.888243 
L 217.560839 238.095947 
L 218.248951 234.585366 
L 221.68951 213.963421 
L 222.377622 211.967147 
L 223.065734 211.14625 
L 223.753846 211.354584 
L 224.441958 213.447251 
L 225.818182 219.669282 
L 227.194406 226.304871 
L 230.634965 246.084152 
L 231.323077 248.814259 
L 232.011189 250.670607 
L 232.699301 251.9828 
L 233.387413 252.020113 
L 235.451748 251.065509 
L 236.13986 251.208544 
L 236.827972 251.497724 
L 238.204196 250.88205 
L 239.58042 249.967869 
L 242.332867 247.259528 
L 244.397203 248.036894 
L 245.085315 247.502066 
L 245.773427 246.429302 
L 246.461538 245.760768 
L 248.525874 243.235886 
L 249.213986 242.847203 
L 249.902098 243.406906 
L 250.59021 244.59472 
L 251.278322 245.558653 
L 252.654545 246.693607 
L 253.342657 247.53627 
L 254.030769 249.016374 
L 258.159441 260.972251 
L 258.847552 262.12897 
L 259.535664 262.719768 
L 262.288112 265.934951 
L 262.976224 266.423136 
L 263.664336 266.765177 
L 266.416783 268.895157 
L 267.104895 269.361577 
L 268.481119 270.776381 
L 270.545455 273.142681 
L 272.60979 274.482859 
L 273.297902 274.852884 
L 274.674126 275.138955 
L 277.426573 275.390821 
L 278.114685 275.602265 
L 279.490909 275.707986 
L 280.179021 275.524528 
L 280.867133 274.775148 
L 281.555245 273.071163 
L 282.931469 268.702371 
L 285.683916 260.754589 
L 288.436364 250.729687 
L 289.124476 249.20916 
L 289.812587 248.86401 
L 290.500699 250.229064 
L 293.941259 261.653223 
L 297.381818 275.027014 
L 298.06993 276.951771 
L 298.758042 278.068067 
L 299.446154 278.061848 
L 300.134266 277.651399 
L 301.51049 276.382739 
L 303.574825 275.263333 
L 305.639161 274.000892 
L 306.327273 274.293181 
L 307.015385 274.423779 
L 307.703497 274.855994 
L 308.391608 275.913211 
L 309.07972 276.696795 
L 310.455944 277.502145 
L 311.832168 277.900156 
L 312.52028 278.096052 
L 313.208392 277.900156 
L 313.896503 277.582991 
L 314.584615 277.032617 
L 315.272727 276.336097 
L 315.960839 275.804379 
L 316.648951 274.896417 
L 317.337063 273.605991 
L 318.025175 272.794421 
L 318.713287 272.51457 
L 320.777622 270.679988 
L 322.841958 267.84416 
L 323.53007 266.360947 
L 324.218182 264.302484 
L 325.594406 258.21105 
L 326.282517 254.23094 
L 327.658741 244.361511 
L 329.034965 233.357129 
L 333.851748 189.448431 
L 334.53986 185.18847 
L 335.916084 179.324027 
L 336.604196 177.361957 
L 337.292308 176.024889 
L 337.98042 175.263071 
L 338.668531 175.427872 
L 339.356643 176.553497 
L 340.044755 179.13124 
L 341.420979 186.911111 
L 342.797203 197.349572 
L 344.861538 212.722746 
L 347.613986 228.904381 
L 348.302098 232.492699 
L 348.99021 235.235243 
L 350.366434 238.988362 
L 351.054545 240.219709 
L 351.742657 240.605282 
L 352.430769 241.121453 
L 353.118881 242.212873 
L 353.806993 243.761385 
L 355.183217 249.199832 
L 355.871329 250.204188 
L 356.559441 250.197969 
L 357.247552 249.532544 
L 358.623776 247.626445 
L 360 245.334772 
L 360.688112 244.436138 
L 361.376224 243.220339 
L 362.064336 241.438618 
L 362.752448 239.23401 
L 363.440559 236.472809 
L 364.128671 234.321062 
L 364.816783 234.224668 
L 365.504895 235.297432 
L 366.881119 239.159383 
L 367.569231 240.244585 
L 368.257343 240.670581 
L 368.945455 240.760755 
L 369.633566 240.574188 
L 370.321678 240.197943 
L 371.00979 239.563613 
L 371.697902 237.666842 
L 372.386014 234.977158 
L 373.074126 231.631378 
L 373.762238 227.508233 
L 382.01958 222.999515 
L 383.395804 213.929217 
L 384.083916 210.172988 
L 385.46014 204.678571 
L 386.836364 200.051693 
L 388.212587 198.139375 
L 388.900699 198.332161 
L 390.276923 200.885029 
L 391.653147 204.031803 
L 393.029371 207.057309 
L 397.846154 224.106483 
L 399.222378 227.934229 
L 399.91049 229.902518 
L 402.662937 235.891339 
L 404.039161 238.506396 
L 404.727273 239.103413 
L 405.415385 239.451672 
L 406.103497 240.829163 
L 406.791608 241.513245 
L 407.47972 241.650061 
L 408.167832 241.401304 
L 408.855944 241.494588 
L 410.232168 242.184888 
L 410.92028 242.359018 
L 411.608392 241.961007 
L 412.296503 241.360881 
L 412.984615 240.922447 
L 414.360839 241.883271 
L 416.425175 241.970335 
L 417.113287 242.962254 
L 418.48951 246.737139 
L 419.177622 247.996471 
L 421.241958 252.50208 
L 421.93007 254.656936 
L 423.306294 259.398864 
L 425.370629 264.890172 
L 426.058741 266.003359 
L 426.746853 266.684331 
L 427.434965 267.184954 
L 428.811189 268.742794 
L 429.499301 269.554363 
L 430.187413 270.008344 
L 430.875524 270.123394 
L 431.563636 269.852871 
L 432.251748 269.971031 
L 432.93986 269.871528 
L 433.627972 269.299387 
L 435.692308 268.24839 
L 436.38042 268.354111 
L 437.068531 268.693042 
L 437.756643 269.159462 
L 438.444755 269.949265 
L 441.885315 275.80127 
L 443.261538 279.541951 
L 444.637762 283.606017 
L 445.325874 285.254031 
L 446.702098 287.722943 
L 447.39021 288.518965 
L 448.766434 289.507774 
L 450.830769 291.081161 
L 451.518881 291.249072 
L 452.206993 291.183773 
L 453.583217 290.826185 
L 454.271329 290.397079 
L 455.647552 288.323069 
L 457.023776 285.341096 
L 458.4 281.267702 
L 461.152448 271.211706 
L 463.216783 261.696755 
L 464.593007 258.167517 
L 465.281119 257.244007 
L 465.969231 257.153833 
L 466.657343 257.645128 
L 467.345455 258.761424 
L 468.721678 261.559939 
L 469.40979 262.604718 
L 470.097902 264.013304 
L 470.786014 266.255225 
L 472.162238 272.489694 
L 472.85035 274.93373 
L 473.538462 276.60662 
L 474.226573 277.306249 
L 474.914685 277.471051 
L 475.602797 276.945552 
L 476.290909 275.521419 
L 476.979021 273.761464 
L 477.667133 272.477256 
L 478.355245 271.718548 
L 479.043357 270.754615 
L 479.731469 269.560582 
L 481.795804 264.181215 
L 482.483916 263.655716 
L 483.172028 263.898254 
L 483.86014 263.742781 
L 484.548252 264.255842 
L 485.236364 265.863433 
L 486.612587 269.411328 
L 487.300699 270.555609 
L 488.676923 271.964195 
L 490.053147 273.444299 
L 490.741259 273.888952 
L 491.429371 273.195542 
L 492.117483 272.020166 
L 492.805594 271.267676 
L 493.493706 270.285086 
L 496.246154 264.678728 
L 498.998601 263.758328 
L 499.686713 264.025742 
L 500.374825 265.337934 
L 504.503497 278.826775 
L 505.191608 280.683124 
L 508.632168 287.931277 
L 509.32028 288.83613 
L 510.008392 289.175061 
L 510.696503 289.330534 
L 516.88951 294.83739 
L 518.953846 296.050079 
L 519.641958 296.323712 
L 526.523077 296.389011 
L 534.78042 295.748462 
L 537.532867 295.269605 
L 538.220979 294.912017 
L 539.597203 293.180047 
L 541.661538 290.633398 
L 543.037762 288.948071 
L 544.413986 286.339233 
L 545.79021 283.052533 
L 546.478322 281.301906 
L 547.166434 280.082998 
L 547.854545 279.657002 
L 549.918881 279.047547 
L 551.295105 278.388341 
L 551.983217 278.372794 
L 553.359441 279.706753 
L 554.047552 280.680014 
L 555.423776 283.360369 
L 556.111888 284.426915 
L 557.488112 285.667589 
L 559.552448 287.097941 
L 560.240559 287.642097 
L 560.928671 287.965481 
L 561.616783 288.120954 
L 562.304895 288.450557 
L 562.993007 288.581154 
L 564.369231 288.400806 
L 565.057343 288.02767 
L 568.497902 284.793831 
L 571.25035 282.045068 
L 573.314685 280.947428 
L 574.002797 280.888348 
L 575.379021 281.584867 
L 576.755245 283.06808 
L 579.507692 286.034506 
L 580.195804 286.662617 
L 581.572028 287.421325 
L 582.26014 288.005904 
L 584.324476 290.138994 
L 585.700699 291.009643 
L 587.076923 291.494719 
L 591.205594 293.892114 
L 592.581818 293.935646 
L 593.26993 293.56562 
L 594.646154 292.172582 
L 595.334266 291.755914 
L 596.022378 291.165116 
L 597.398601 289.025807 
L 600.151049 284.33674 
L 601.527273 281.790092 
L 602.215385 281.189966 
L 603.591608 281.239717 
L 604.27972 281.099791 
L 604.967832 281.314344 
L 605.655944 282.063724 
L 607.72028 285.132762 
L 609.096503 287.188116 
L 610.472727 289.64459 
L 611.160839 290.540115 
L 611.848951 291.078051 
L 613.225175 292.629672 
L 613.913287 293.052559 
L 614.601399 293.248455 
L 615.28951 293.245346 
L 616.665734 293.419475 
L 618.041958 293.052559 
L 621.482517 291.470732 
L 622.170629 291.0705 
L 624.923077 290.276477 
L 628.363636 289.549085 
L 628.363636 289.549085 
" style="fill:none;stroke:#ff0000;stroke-linecap:square;stroke-width:1.5;"/>
   </g>
   <g id="patch_3">
    <path d="M 64.8 313.2 
L 64.8 28.8 
" style="fill:none;stroke:#000000;stroke-linecap:square;stroke-linejoin:miter;stroke-width:0.8;"/>
   </g>
   <g id="patch_4">
    <path d="M 655.2 313.2 
L 655.2 28.8 
" style="fill:none;stroke:#000000;stroke-linecap:square;stroke-linejoin:miter;stroke-width:0.8;"/>
   </g>
   <g id="patch_5">
    <path d="M 64.8 313.2 
L 655.2 313.2 
" style="fill:none;stroke:#000000;stroke-linecap:square;stroke-linejoin:miter;stroke-width:0.8;"/>
   </g>
   <g id="patch_6">
    <path d="M 64.8 28.8 
L 655.2 28.8 
" style="fill:none;stroke:#000000;stroke-linecap:square;stroke-linejoin:miter;stroke-width:0.8;"/>
   </g>
   <g id="text_15">
    <!-- Page hits per uur (gemiddeld ongeveer 1). -->
    <g transform="translate(232.46625 22.8)scale(0.12 -0.12)">
     <defs>
      <path d="M 19.671875 64.796875 
L 19.671875 37.40625 
L 32.078125 37.40625 
Q 38.96875 37.40625 42.71875 40.96875 
Q 46.484375 44.53125 46.484375 51.125 
Q 46.484375 57.671875 42.71875 61.234375 
Q 38.96875 64.796875 32.078125 64.796875 
z
M 9.8125 72.90625 
L 32.078125 72.90625 
Q 44.34375 72.90625 50.609375 67.359375 
Q 56.890625 61.8125 56.890625 51.125 
Q 56.890625 40.328125 50.609375 34.8125 
Q 44.34375 29.296875 32.078125 29.296875 
L 19.671875 29.296875 
L 19.671875 0 
L 9.8125 0 
z
" id="DejaVuSans-80"/>
      <path d="M 45.40625 27.984375 
Q 45.40625 37.75 41.375 43.109375 
Q 37.359375 48.484375 30.078125 48.484375 
Q 22.859375 48.484375 18.828125 43.109375 
Q 14.796875 37.75 14.796875 27.984375 
Q 14.796875 18.265625 18.828125 12.890625 
Q 22.859375 7.515625 30.078125 7.515625 
Q 37.359375 7.515625 41.375 12.890625 
Q 45.40625 18.265625 45.40625 27.984375 
z
M 54.390625 6.78125 
Q 54.390625 -7.171875 48.1875 -13.984375 
Q 42 -20.796875 29.203125 -20.796875 
Q 24.46875 -20.796875 20.265625 -20.09375 
Q 16.0625 -19.390625 12.109375 -17.921875 
L 12.109375 -9.1875 
Q 16.0625 -11.328125 19.921875 -12.34375 
Q 23.78125 -13.375 27.78125 -13.375 
Q 36.625 -13.375 41.015625 -8.765625 
Q 45.40625 -4.15625 45.40625 5.171875 
L 45.40625 9.625 
Q 42.625 4.78125 38.28125 2.390625 
Q 33.9375 0 27.875 0 
Q 17.828125 0 11.671875 7.65625 
Q 5.515625 15.328125 5.515625 27.984375 
Q 5.515625 40.671875 11.671875 48.328125 
Q 17.828125 56 27.875 56 
Q 33.9375 56 38.28125 53.609375 
Q 42.625 51.21875 45.40625 46.390625 
L 45.40625 54.6875 
L 54.390625 54.6875 
z
" id="DejaVuSans-103"/>
      <path d="M 56.203125 29.59375 
L 56.203125 25.203125 
L 14.890625 25.203125 
Q 15.484375 15.921875 20.484375 11.0625 
Q 25.484375 6.203125 34.421875 6.203125 
Q 39.59375 6.203125 44.453125 7.46875 
Q 49.3125 8.734375 54.109375 11.28125 
L 54.109375 2.78125 
Q 49.265625 0.734375 44.1875 -0.34375 
Q 39.109375 -1.421875 33.890625 -1.421875 
Q 20.796875 -1.421875 13.15625 6.1875 
Q 5.515625 13.8125 5.515625 26.8125 
Q 5.515625 40.234375 12.765625 48.109375 
Q 20.015625 56 32.328125 56 
Q 43.359375 56 49.78125 48.890625 
Q 56.203125 41.796875 56.203125 29.59375 
z
M 47.21875 32.234375 
Q 47.125 39.59375 43.09375 43.984375 
Q 39.0625 48.390625 32.421875 48.390625 
Q 24.90625 48.390625 20.390625 44.140625 
Q 15.875 39.890625 15.1875 32.171875 
z
" id="DejaVuSans-101"/>
      <path id="DejaVuSans-32"/>
      <path d="M 54.890625 33.015625 
L 54.890625 0 
L 45.90625 0 
L 45.90625 32.71875 
Q 45.90625 40.484375 42.875 44.328125 
Q 39.84375 48.1875 33.796875 48.1875 
Q 26.515625 48.1875 22.3125 43.546875 
Q 18.109375 38.921875 18.109375 30.90625 
L 18.109375 0 
L 9.078125 0 
L 9.078125 75.984375 
L 18.109375 75.984375 
L 18.109375 46.1875 
Q 21.34375 51.125 25.703125 53.5625 
Q 30.078125 56 35.796875 56 
Q 45.21875 56 50.046875 50.171875 
Q 54.890625 44.34375 54.890625 33.015625 
z
" id="DejaVuSans-104"/>
      <path d="M 9.421875 54.6875 
L 18.40625 54.6875 
L 18.40625 0 
L 9.421875 0 
z
M 9.421875 75.984375 
L 18.40625 75.984375 
L 18.40625 64.59375 
L 9.421875 64.59375 
z
" id="DejaVuSans-105"/>
      <path d="M 44.28125 53.078125 
L 44.28125 44.578125 
Q 40.484375 46.53125 36.375 47.5 
Q 32.28125 48.484375 27.875 48.484375 
Q 21.1875 48.484375 17.84375 46.4375 
Q 14.5 44.390625 14.5 40.28125 
Q 14.5 37.15625 16.890625 35.375 
Q 19.28125 33.59375 26.515625 31.984375 
L 29.59375 31.296875 
Q 39.15625 29.25 43.1875 25.515625 
Q 47.21875 21.78125 47.21875 15.09375 
Q 47.21875 7.46875 41.1875 3.015625 
Q 35.15625 -1.421875 24.609375 -1.421875 
Q 20.21875 -1.421875 15.453125 -0.5625 
Q 10.6875 0.296875 5.421875 2 
L 5.421875 11.28125 
Q 10.40625 8.6875 15.234375 7.390625 
Q 20.0625 6.109375 24.8125 6.109375 
Q 31.15625 6.109375 34.5625 8.28125 
Q 37.984375 10.453125 37.984375 14.40625 
Q 37.984375 18.0625 35.515625 20.015625 
Q 33.0625 21.96875 24.703125 23.78125 
L 21.578125 24.515625 
Q 13.234375 26.265625 9.515625 29.90625 
Q 5.8125 33.546875 5.8125 39.890625 
Q 5.8125 47.609375 11.28125 51.796875 
Q 16.75 56 26.8125 56 
Q 31.78125 56 36.171875 55.265625 
Q 40.578125 54.546875 44.28125 53.078125 
z
" id="DejaVuSans-115"/>
      <path d="M 18.109375 8.203125 
L 18.109375 -20.796875 
L 9.078125 -20.796875 
L 9.078125 54.6875 
L 18.109375 54.6875 
L 18.109375 46.390625 
Q 20.953125 51.265625 25.265625 53.625 
Q 29.59375 56 35.59375 56 
Q 45.5625 56 51.78125 48.09375 
Q 58.015625 40.1875 58.015625 27.296875 
Q 58.015625 14.40625 51.78125 6.484375 
Q 45.5625 -1.421875 35.59375 -1.421875 
Q 29.59375 -1.421875 25.265625 0.953125 
Q 20.953125 3.328125 18.109375 8.203125 
z
M 48.6875 27.296875 
Q 48.6875 37.203125 44.609375 42.84375 
Q 40.53125 48.484375 33.40625 48.484375 
Q 26.265625 48.484375 22.1875 42.84375 
Q 18.109375 37.203125 18.109375 27.296875 
Q 18.109375 17.390625 22.1875 11.75 
Q 26.265625 6.109375 33.40625 6.109375 
Q 40.53125 6.109375 44.609375 11.75 
Q 48.6875 17.390625 48.6875 27.296875 
z
" id="DejaVuSans-112"/>
      <path d="M 41.109375 46.296875 
Q 39.59375 47.171875 37.8125 47.578125 
Q 36.03125 48 33.890625 48 
Q 26.265625 48 22.1875 43.046875 
Q 18.109375 38.09375 18.109375 28.8125 
L 18.109375 0 
L 9.078125 0 
L 9.078125 54.6875 
L 18.109375 54.6875 
L 18.109375 46.1875 
Q 20.953125 51.171875 25.484375 53.578125 
Q 30.03125 56 36.53125 56 
Q 37.453125 56 38.578125 55.875 
Q 39.703125 55.765625 41.0625 55.515625 
z
" id="DejaVuSans-114"/>
      <path d="M 31 75.875 
Q 24.46875 64.65625 21.28125 53.65625 
Q 18.109375 42.671875 18.109375 31.390625 
Q 18.109375 20.125 21.3125 9.0625 
Q 24.515625 -2 31 -13.1875 
L 23.1875 -13.1875 
Q 15.875 -1.703125 12.234375 9.375 
Q 8.59375 20.453125 8.59375 31.390625 
Q 8.59375 42.28125 12.203125 53.3125 
Q 15.828125 64.359375 23.1875 75.875 
z
" id="DejaVuSans-40"/>
      <path d="M 45.40625 46.390625 
L 45.40625 75.984375 
L 54.390625 75.984375 
L 54.390625 0 
L 45.40625 0 
L 45.40625 8.203125 
Q 42.578125 3.328125 38.25 0.953125 
Q 33.9375 -1.421875 27.875 -1.421875 
Q 17.96875 -1.421875 11.734375 6.484375 
Q 5.515625 14.40625 5.515625 27.296875 
Q 5.515625 40.1875 11.734375 48.09375 
Q 17.96875 56 27.875 56 
Q 33.9375 56 38.25 53.625 
Q 42.578125 51.265625 45.40625 46.390625 
z
M 14.796875 27.296875 
Q 14.796875 17.390625 18.875 11.75 
Q 22.953125 6.109375 30.078125 6.109375 
Q 37.203125 6.109375 41.296875 11.75 
Q 45.40625 17.390625 45.40625 27.296875 
Q 45.40625 37.203125 41.296875 42.84375 
Q 37.203125 48.484375 30.078125 48.484375 
Q 22.953125 48.484375 18.875 42.84375 
Q 14.796875 37.203125 14.796875 27.296875 
z
" id="DejaVuSans-100"/>
      <path d="M 9.421875 75.984375 
L 18.40625 75.984375 
L 18.40625 0 
L 9.421875 0 
z
" id="DejaVuSans-108"/>
      <path d="M 30.609375 48.390625 
Q 23.390625 48.390625 19.1875 42.75 
Q 14.984375 37.109375 14.984375 27.296875 
Q 14.984375 17.484375 19.15625 11.84375 
Q 23.34375 6.203125 30.609375 6.203125 
Q 37.796875 6.203125 41.984375 11.859375 
Q 46.1875 17.53125 46.1875 27.296875 
Q 46.1875 37.015625 41.984375 42.703125 
Q 37.796875 48.390625 30.609375 48.390625 
z
M 30.609375 56 
Q 42.328125 56 49.015625 48.375 
Q 55.71875 40.765625 55.71875 27.296875 
Q 55.71875 13.875 49.015625 6.21875 
Q 42.328125 -1.421875 30.609375 -1.421875 
Q 18.84375 -1.421875 12.171875 6.21875 
Q 5.515625 13.875 5.515625 27.296875 
Q 5.515625 40.765625 12.171875 48.375 
Q 18.84375 56 30.609375 56 
z
" id="DejaVuSans-111"/>
      <path d="M 54.890625 33.015625 
L 54.890625 0 
L 45.90625 0 
L 45.90625 32.71875 
Q 45.90625 40.484375 42.875 44.328125 
Q 39.84375 48.1875 33.796875 48.1875 
Q 26.515625 48.1875 22.3125 43.546875 
Q 18.109375 38.921875 18.109375 30.90625 
L 18.109375 0 
L 9.078125 0 
L 9.078125 54.6875 
L 18.109375 54.6875 
L 18.109375 46.1875 
Q 21.34375 51.125 25.703125 53.5625 
Q 30.078125 56 35.796875 56 
Q 45.21875 56 50.046875 50.171875 
Q 54.890625 44.34375 54.890625 33.015625 
z
" id="DejaVuSans-110"/>
      <path d="M 2.984375 54.6875 
L 12.5 54.6875 
L 29.59375 8.796875 
L 46.6875 54.6875 
L 56.203125 54.6875 
L 35.6875 0 
L 23.484375 0 
z
" id="DejaVuSans-118"/>
      <path d="M 8.015625 75.875 
L 15.828125 75.875 
Q 23.140625 64.359375 26.78125 53.3125 
Q 30.421875 42.28125 30.421875 31.390625 
Q 30.421875 20.453125 26.78125 9.375 
Q 23.140625 -1.703125 15.828125 -13.1875 
L 8.015625 -13.1875 
Q 14.5 -2 17.703125 9.0625 
Q 20.90625 20.125 20.90625 31.390625 
Q 20.90625 42.671875 17.703125 53.65625 
Q 14.5 64.65625 8.015625 75.875 
z
" id="DejaVuSans-41"/>
      <path d="M 10.6875 12.40625 
L 21 12.40625 
L 21 0 
L 10.6875 0 
z
" id="DejaVuSans-46"/>
     </defs>
     <use xlink:href="#DejaVuSans-80"/>
     <use x="55.802734" xlink:href="#DejaVuSans-97"/>
     <use x="117.082031" xlink:href="#DejaVuSans-103"/>
     <use x="180.558594" xlink:href="#DejaVuSans-101"/>
     <use x="242.082031" xlink:href="#DejaVuSans-32"/>
     <use x="273.869141" xlink:href="#DejaVuSans-104"/>
     <use x="337.248047" xlink:href="#DejaVuSans-105"/>
     <use x="365.03125" xlink:href="#DejaVuSans-116"/>
     <use x="404.240234" xlink:href="#DejaVuSans-115"/>
     <use x="456.339844" xlink:href="#DejaVuSans-32"/>
     <use x="488.126953" xlink:href="#DejaVuSans-112"/>
     <use x="551.603516" xlink:href="#DejaVuSans-101"/>
     <use x="613.126953" xlink:href="#DejaVuSans-114"/>
     <use x="654.240234" xlink:href="#DejaVuSans-32"/>
     <use x="686.027344" xlink:href="#DejaVuSans-117"/>
     <use x="749.40625" xlink:href="#DejaVuSans-117"/>
     <use x="812.785156" xlink:href="#DejaVuSans-114"/>
     <use x="853.898438" xlink:href="#DejaVuSans-32"/>
     <use x="885.685547" xlink:href="#DejaVuSans-40"/>
     <use x="924.699219" xlink:href="#DejaVuSans-103"/>
     <use x="988.175781" xlink:href="#DejaVuSans-101"/>
     <use x="1049.699219" xlink:href="#DejaVuSans-109"/>
     <use x="1147.111328" xlink:href="#DejaVuSans-105"/>
     <use x="1174.894531" xlink:href="#DejaVuSans-100"/>
     <use x="1238.371094" xlink:href="#DejaVuSans-100"/>
     <use x="1301.847656" xlink:href="#DejaVuSans-101"/>
     <use x="1363.371094" xlink:href="#DejaVuSans-108"/>
     <use x="1391.154297" xlink:href="#DejaVuSans-100"/>
     <use x="1454.630859" xlink:href="#DejaVuSans-32"/>
     <use x="1486.417969" xlink:href="#DejaVuSans-111"/>
     <use x="1547.599609" xlink:href="#DejaVuSans-110"/>
     <use x="1610.978516" xlink:href="#DejaVuSans-103"/>
     <use x="1674.455078" xlink:href="#DejaVuSans-101"/>
     <use x="1735.978516" xlink:href="#DejaVuSans-118"/>
     <use x="1795.158203" xlink:href="#DejaVuSans-101"/>
     <use x="1856.681641" xlink:href="#DejaVuSans-101"/>
     <use x="1918.205078" xlink:href="#DejaVuSans-114"/>
     <use x="1959.318359" xlink:href="#DejaVuSans-32"/>
     <use x="1991.105469" xlink:href="#DejaVuSans-49"/>
     <use x="2054.728516" xlink:href="#DejaVuSans-41"/>
     <use x="2093.742188" xlink:href="#DejaVuSans-46"/>
    </g>
   </g>
  </g>
  <g id="text_16">
   <!-- Gegenereerd op 2023-01-09 17:39. -->
   <g style="fill:#808080;" transform="translate(7.2 356.4)scale(0.08 -0.08)">
    <defs>
     <path d="M 59.515625 10.40625 
L 59.515625 29.984375 
L 43.40625 29.984375 
L 43.40625 38.09375 
L 69.28125 38.09375 
L 69.28125 6.78125 
Q 63.578125 2.734375 56.6875 0.65625 
Q 49.8125 -1.421875 42 -1.421875 
Q 24.90625 -1.421875 15.25 8.5625 
Q 5.609375 18.5625 5.609375 36.375 
Q 5.609375 54.25 15.25 64.234375 
Q 24.90625 74.21875 42 74.21875 
Q 49.125 74.21875 55.546875 72.453125 
Q 61.96875 70.703125 67.390625 67.28125 
L 67.390625 56.78125 
Q 61.921875 61.421875 55.765625 63.765625 
Q 49.609375 66.109375 42.828125 66.109375 
Q 29.4375 66.109375 22.71875 58.640625 
Q 16.015625 51.171875 16.015625 36.375 
Q 16.015625 21.625 22.71875 14.15625 
Q 29.4375 6.6875 42.828125 6.6875 
Q 48.046875 6.6875 52.140625 7.59375 
Q 56.25 8.5 59.515625 10.40625 
z
" id="DejaVuSans-71"/>
     <path d="M 8.203125 72.90625 
L 55.078125 72.90625 
L 55.078125 68.703125 
L 28.609375 0 
L 18.3125 0 
L 43.21875 64.59375 
L 8.203125 64.59375 
z
" id="DejaVuSans-55"/>
     <path d="M 11.71875 12.40625 
L 22.015625 12.40625 
L 22.015625 0 
L 11.71875 0 
z
M 11.71875 51.703125 
L 22.015625 51.703125 
L 22.015625 39.3125 
L 11.71875 39.3125 
z
" id="DejaVuSans-58"/>
    </defs>
    <use xlink:href="#DejaVuSans-71"/>
    <use x="77.490234" xlink:href="#DejaVuSans-101"/>
    <use x="139.013672" xlink:href="#DejaVuSans-103"/>
    <use x="202.490234" xlink:href="#DejaVuSans-101"/>
    <use x="264.013672" xlink:href="#DejaVuSans-110"/>
    <use x="327.392578" xlink:href="#DejaVuSans-101"/>
    <use x="388.916016" xlink:href="#DejaVuSans-114"/>
    <use x="427.779297" xlink:href="#DejaVuSans-101"/>
    <use x="489.302734" xlink:href="#DejaVuSans-101"/>
    <use x="550.826172" xlink:href="#DejaVuSans-114"/>
    <use x="590.189453" xlink:href="#DejaVuSans-100"/>
    <use x="653.666016" xlink:href="#DejaVuSans-32"/>
    <use x="685.453125" xlink:href="#DejaVuSans-111"/>
    <use x="746.634766" xlink:href="#DejaVuSans-112"/>
    <use x="810.111328" xlink:href="#DejaVuSans-32"/>
    <use x="841.898438" xlink:href="#DejaVuSans-50"/>
    <use x="905.521484" xlink:href="#DejaVuSans-48"/>
    <use x="969.144531" xlink:href="#DejaVuSans-50"/>
    <use x="1032.767578" xlink:href="#DejaVuSans-51"/>
    <use x="1096.390625" xlink:href="#DejaVuSans-45"/>
    <use x="1132.474609" xlink:href="#DejaVuSans-48"/>
    <use x="1196.097656" xlink:href="#DejaVuSans-49"/>
    <use x="1259.720703" xlink:href="#DejaVuSans-45"/>
    <use x="1295.804688" xlink:href="#DejaVuSans-48"/>
    <use x="1359.427734" xlink:href="#DejaVuSans-57"/>
    <use x="1423.050781" xlink:href="#DejaVuSans-32"/>
    <use x="1454.837891" xlink:href="#DejaVuSans-49"/>
    <use x="1518.460938" xlink:href="#DejaVuSans-55"/>
    <use x="1582.083984" xlink:href="#DejaVuSans-58"/>
    <use x="1615.775391" xlink:href="#DejaVuSans-51"/>
    <use x="1679.398438" xlink:href="#DejaVuSans-57"/>
    <use x="1743.021484" xlink:href="#DejaVuSans-46"/>
   </g>
  </g>
  <g id="text_17">
   <!-- https://realrolfje.github.io/coronadata/ -->
   <g style="fill:#808080;" transform="translate(560.24375 356.4)scale(0.08 -0.08)">
    <defs>
     <path d="M 25.390625 72.90625 
L 33.6875 72.90625 
L 8.296875 -9.28125 
L 0 -9.28125 
z
" id="DejaVuSans-47"/>
     <path d="M 37.109375 75.984375 
L 37.109375 68.5 
L 28.515625 68.5 
Q 23.6875 68.5 21.796875 66.546875 
Q 19.921875 64.59375 19.921875 59.515625 
L 19.921875 54.6875 
L 34.71875 54.6875 
L 34.71875 47.703125 
L 19.921875 47.703125 
L 19.921875 0 
L 10.890625 0 
L 10.890625 47.703125 
L 2.296875 47.703125 
L 2.296875 54.6875 
L 10.890625 54.6875 
L 10.890625 58.5 
Q 10.890625 67.625 15.140625 71.796875 
Q 19.390625 75.984375 28.609375 75.984375 
z
" id="DejaVuSans-102"/>
     <path d="M 9.421875 54.6875 
L 18.40625 54.6875 
L 18.40625 -0.984375 
Q 18.40625 -11.421875 14.421875 -16.109375 
Q 10.453125 -20.796875 1.609375 -20.796875 
L -1.8125 -20.796875 
L -1.8125 -13.1875 
L 0.59375 -13.1875 
Q 5.71875 -13.1875 7.5625 -10.8125 
Q 9.421875 -8.453125 9.421875 -0.984375 
z
M 9.421875 75.984375 
L 18.40625 75.984375 
L 18.40625 64.59375 
L 9.421875 64.59375 
z
" id="DejaVuSans-106"/>
     <path d="M 48.6875 27.296875 
Q 48.6875 37.203125 44.609375 42.84375 
Q 40.53125 48.484375 33.40625 48.484375 
Q 26.265625 48.484375 22.1875 42.84375 
Q 18.109375 37.203125 18.109375 27.296875 
Q 18.109375 17.390625 22.1875 11.75 
Q 26.265625 6.109375 33.40625 6.109375 
Q 40.53125 6.109375 44.609375 11.75 
Q 48.6875 17.390625 48.6875 27.296875 
z
M 18.109375 46.390625 
Q 20.953125 51.265625 25.265625 53.625 
Q 29.59375 56 35.59375 56 
Q 45.5625 56 51.78125 48.09375 
Q 58.015625 40.1875 58.015625 27.296875 
Q 58.015625 14.40625 51.78125 6.484375 
Q 45.5625 -1.421875 35.59375 -1.421875 
Q 29.59375 -1.421875 25.265625 0.953125 
Q 20.953125 3.328125 18.109375 8.203125 
L 18.109375 0 
L 9.078125 0 
L 9.078125 75.984375 
L 18.109375 75.984375 
z
" id="DejaVuSans-98"/>
     <path d="M 48.78125 52.59375 
L 48.78125 44.1875 
Q 44.96875 46.296875 41.140625 47.34375 
Q 37.3125 48.390625 33.40625 48.390625 
Q 24.65625 48.390625 19.8125 42.84375 
Q 14.984375 37.3125 14.984375 27.296875 
Q 14.984375 17.28125 19.8125 11.734375 
Q 24.65625 6.203125 33.40625 6.203125 
Q 37.3125 6.203125 41.140625 7.25 
Q 44.96875 8.296875 48.78125 10.40625 
L 48.78125 2.09375 
Q 45.015625 0.34375 40.984375 -0.53125 
Q 36.96875 -1.421875 32.421875 -1.421875 
Q 20.0625 -1.421875 12.78125 6.34375 
Q 5.515625 14.109375 5.515625 27.296875 
Q 5.515625 40.671875 12.859375 48.328125 
Q 20.21875 56 33.015625 56 
Q 37.15625 56 41.109375 55.140625 
Q 45.0625 54.296875 48.78125 52.59375 
z
" id="DejaVuSans-99"/>
    </defs>
    <use xlink:href="#DejaVuSans-104"/>
    <use x="63.378906" xlink:href="#DejaVuSans-116"/>
    <use x="102.587891" xlink:href="#DejaVuSans-116"/>
    <use x="141.796875" xlink:href="#DejaVuSans-112"/>
    <use x="205.273438" xlink:href="#DejaVuSans-115"/>
    <use x="257.373047" xlink:href="#DejaVuSans-58"/>
    <use x="291.064453" xlink:href="#DejaVuSans-47"/>
    <use x="324.755859" xlink:href="#DejaVuSans-47"/>
    <use x="358.447266" xlink:href="#DejaVuSans-114"/>
    <use x="397.310547" xlink:href="#DejaVuSans-101"/>
    <use x="458.833984" xlink:href="#DejaVuSans-97"/>
    <use x="520.113281" xlink:href="#DejaVuSans-108"/>
    <use x="547.896484" xlink:href="#DejaVuSans-114"/>
    <use x="586.759766" xlink:href="#DejaVuSans-111"/>
    <use x="647.941406" xlink:href="#DejaVuSans-108"/>
    <use x="675.724609" xlink:href="#DejaVuSans-102"/>
    <use x="710.929688" xlink:href="#DejaVuSans-106"/>
    <use x="738.712891" xlink:href="#DejaVuSans-101"/>
    <use x="800.236328" xlink:href="#DejaVuSans-46"/>
    <use x="832.023438" xlink:href="#DejaVuSans-103"/>
    <use x="895.5" xlink:href="#DejaVuSans-105"/>
    <use x="923.283203" xlink:href="#DejaVuSans-116"/>
    <use x="962.492188" xlink:href="#DejaVuSans-104"/>
    <use x="1025.871094" xlink:href="#DejaVuSans-117"/>
    <use x="1089.25" xlink:href="#DejaVuSans-98"/>
    <use x="1152.726562" xlink:href="#DejaVuSans-46"/>
    <use x="1184.513672" xlink:href="#DejaVuSans-105"/>
    <use x="1212.296875" xlink:href="#DejaVuSans-111"/>
    <use x="1273.478516" xlink:href="#DejaVuSans-47"/>
    <use x="1307.169922" xlink:href="#DejaVuSans-99"/>
    <use x="1362.150391" xlink:href="#DejaVuSans-111"/>
    <use x="1423.332031" xlink:href="#DejaVuSans-114"/>
    <use x="1462.195312" xlink:href="#DejaVuSans-111"/>
    <use x="1523.376953" xlink:href="#DejaVuSans-110"/>
    <use x="1586.755859" xlink:href="#DejaVuSans-97"/>
    <use x="1648.035156" xlink:href="#DejaVuSans-100"/>
    <use x="1711.511719" xlink:href="#DejaVuSans-97"/>
    <use x="1772.791016" xlink:href="#DejaVuSans-116"/>
    <use x="1812" xlink:href="#DejaVuSans-97"/>
    <use x="1873.279297" xlink:href="#DejaVuSans-47"/>
   </g>
  </g>
 </g>
 <defs>
  <clipPath id="ped641df205">
   <rect height="284.4" width="590.4" x="64.8" y="28.8"/>
  </clipPath>
 </defs>
</svg>
