<?xml version="1.0" encoding="utf-8" standalone="no"?>
<!DOCTYPE svg PUBLIC "-//W3C//DTD SVG 1.1//EN"
  "http://www.w3.org/Graphics/SVG/1.1/DTD/svg11.dtd">
<!-- Created with matplotlib (https://matplotlib.org/) -->
<svg height="360pt" version="1.1" viewBox="0 0 720 360" width="720pt" xmlns="http://www.w3.org/2000/svg" xmlns:xlink="http://www.w3.org/1999/xlink">
 <metadata>
  <rdf:RDF xmlns:cc="http://creativecommons.org/ns#" xmlns:dc="http://purl.org/dc/elements/1.1/" xmlns:rdf="http://www.w3.org/1999/02/22-rdf-syntax-ns#">
   <cc:Work>
    <dc:type rdf:resource="http://purl.org/dc/dcmitype/StillImage"/>
    <dc:date>2022-11-03T23:45:41.410019</dc:date>
    <dc:format>image/svg+xml</dc:format>
    <dc:creator>
     <cc:Agent>
      <dc:title>Matplotlib v3.3.2, https://matplotlib.org/</dc:title>
     </cc:Agent>
    </dc:creator>
   </cc:Work>
  </rdf:RDF>
 </metadata>
 <defs>
  <style type="text/css">*{stroke-linecap:butt;stroke-linejoin:round;}</style>
 </defs>
 <g id="figure_1">
  <g id="patch_1">
   <path d="M 0 360 
L 720 360 
L 720 0 
L 0 0 
z
" style="fill:#ffffff;"/>
  </g>
  <g id="axes_1">
   <g id="patch_2">
    <path d="M 64.8 313.2 
L 655.2 313.2 
L 655.2 28.8 
L 64.8 28.8 
z
" style="fill:#ffffff;"/>
   </g>
   <g id="PolyCollection_1">
    <path clip-path="url(#p1fb1e2402b)" d="M 91.636364 300.272727 
L 91.636364 300.272727 
L 92.389137 300.272727 
L 93.14191 300.272727 
L 93.894683 300.272727 
L 94.647456 300.272727 
L 95.40023 300.272727 
L 97.658549 300.272727 
L 98.411322 300.272727 
L 99.164095 300.272727 
L 99.916869 300.272727 
L 100.669642 300.272727 
L 101.422415 300.272727 
L 102.175188 300.272727 
L 102.927961 300.272727 
L 103.680734 300.272727 
L 104.433508 300.272727 
L 105.186281 300.272727 
L 105.939054 300.272727 
L 106.691827 300.272727 
L 107.4446 300.272727 
L 108.197373 300.272727 
L 108.950147 300.272727 
L 109.70292 300.272727 
L 110.455693 300.272727 
L 111.208466 300.272727 
L 111.961239 300.272727 
L 112.714012 300.272727 
L 113.466786 300.272727 
L 114.219559 300.272727 
L 114.972332 300.272727 
L 115.725105 300.272727 
L 116.477878 300.272727 
L 117.230652 300.272727 
L 117.983425 300.272727 
L 118.736198 300.272727 
L 119.488971 300.272727 
L 120.241744 300.272727 
L 120.994517 300.272727 
L 121.747291 300.272727 
L 122.500064 300.272727 
L 123.252837 300.272727 
L 124.00561 300.272727 
L 124.758383 300.272727 
L 125.511156 300.272727 
L 126.26393 300.272727 
L 127.016703 300.272727 
L 127.769476 300.272727 
L 128.522249 300.272727 
L 129.275022 300.272727 
L 130.027795 300.272727 
L 130.780569 300.272727 
L 131.533342 300.272727 
L 132.286115 300.272727 
L 133.038888 300.272727 
L 133.791661 300.272727 
L 134.544435 300.272727 
L 135.297208 300.272727 
L 136.049981 300.272727 
L 136.802754 300.272727 
L 137.555527 300.272727 
L 138.3083 300.272727 
L 139.061074 300.272727 
L 139.813847 300.272727 
L 140.56662 300.272727 
L 141.319393 300.272727 
L 142.072166 300.272727 
L 142.824939 300.272727 
L 143.577713 300.272727 
L 144.330486 300.272727 
L 145.083259 300.272727 
L 145.836032 300.272727 
L 146.588805 300.272727 
L 147.341578 300.272727 
L 148.094352 300.272727 
L 148.847125 300.272727 
L 149.599898 300.272727 
L 150.352671 300.272727 
L 151.105444 300.272727 
L 151.858218 300.272727 
L 152.610991 300.272727 
L 153.363764 300.272727 
L 154.116537 300.272727 
L 154.86931 300.272727 
L 155.622083 300.272727 
L 156.374857 300.272727 
L 157.12763 300.272727 
L 157.880403 300.272727 
L 158.633176 300.272727 
L 159.385949 300.272727 
L 160.138722 300.272727 
L 160.891496 300.272727 
L 161.644269 300.272727 
L 162.397042 300.272727 
L 163.149815 300.272727 
L 163.902588 300.272727 
L 164.655361 300.272727 
L 165.408135 300.272727 
L 166.160908 300.272727 
L 166.913681 300.272727 
L 167.666454 300.272727 
L 168.419227 300.272727 
L 169.172001 300.272727 
L 169.924774 300.272727 
L 170.677547 300.272727 
L 171.43032 300.272727 
L 172.183093 300.272727 
L 172.935866 300.272727 
L 173.68864 300.272727 
L 174.441413 300.272727 
L 175.194186 300.272727 
L 175.946959 300.272727 
L 176.699732 300.272727 
L 177.452505 300.272727 
L 178.205279 300.272727 
L 178.958052 300.272727 
L 179.710825 300.272727 
L 180.463598 300.272727 
L 181.969144 300.272727 
L 182.721918 300.272727 
L 183.474691 300.272727 
L 184.227464 300.272727 
L 184.980237 300.272727 
L 185.73301 300.272727 
L 186.485784 300.272727 
L 187.238557 300.272727 
L 187.99133 300.272727 
L 188.744103 300.272727 
L 189.496876 300.272727 
L 190.249649 300.272727 
L 191.002423 300.272727 
L 191.755196 300.272727 
L 192.507969 300.272727 
L 193.260742 300.272727 
L 194.013515 300.272727 
L 194.766288 300.272727 
L 195.519062 300.272727 
L 196.271835 300.272727 
L 197.024608 300.272727 
L 197.777381 300.272727 
L 198.530154 300.272727 
L 199.282927 300.272727 
L 200.035701 300.272727 
L 200.788474 300.272727 
L 201.541247 300.272727 
L 202.29402 300.272727 
L 203.046793 300.272727 
L 203.799566 300.272727 
L 204.55234 300.272727 
L 205.305113 300.272727 
L 206.057886 300.272727 
L 206.810659 300.272727 
L 207.563432 300.272727 
L 208.316206 300.272727 
L 209.068979 300.272727 
L 209.821752 300.272727 
L 210.574525 300.272727 
L 211.327298 300.272727 
L 212.080071 300.272727 
L 212.832845 300.272727 
L 213.585618 300.272727 
L 214.338391 300.272727 
L 215.091164 300.272727 
L 215.843937 300.272727 
L 216.59671 300.272727 
L 217.349484 300.272727 
L 218.102257 300.272727 
L 218.85503 300.272727 
L 219.607803 300.272727 
L 220.360576 300.272727 
L 221.113349 300.272727 
L 221.866123 300.272727 
L 222.618896 300.272727 
L 223.371669 300.272727 
L 224.124442 300.272727 
L 224.877215 300.272727 
L 225.629989 300.272727 
L 226.382762 300.272727 
L 227.135535 300.272727 
L 227.888308 300.272727 
L 228.641081 300.272727 
L 229.393854 300.272727 
L 230.146628 300.272727 
L 230.899401 300.272727 
L 231.652174 300.272727 
L 232.404947 300.272727 
L 233.15772 300.272727 
L 233.910493 300.272727 
L 234.663267 300.272727 
L 235.41604 300.272727 
L 236.168813 300.272727 
L 236.921586 300.272727 
L 237.674359 300.272727 
L 238.427132 300.272727 
L 239.179906 300.272727 
L 239.932679 300.272727 
L 240.685452 300.272727 
L 241.438225 300.272727 
L 242.190998 300.272727 
L 242.943772 300.272727 
L 243.696545 300.272727 
L 244.449318 300.272727 
L 245.202091 300.272727 
L 245.954864 300.272727 
L 246.707637 300.272727 
L 247.460411 300.272727 
L 248.965957 300.272727 
L 249.71873 300.272727 
L 250.471503 300.272727 
L 251.224276 300.272727 
L 251.97705 300.272727 
L 252.729823 300.272727 
L 253.482596 300.272727 
L 254.235369 300.272727 
L 254.988142 300.272727 
L 255.740915 300.272727 
L 256.493689 300.272727 
L 257.246462 300.272727 
L 257.999235 300.272727 
L 258.752008 300.272727 
L 259.504781 300.272727 
L 260.257555 300.272727 
L 261.010328 300.272727 
L 261.763101 300.272727 
L 262.515874 300.272727 
L 263.268647 300.272727 
L 264.02142 300.272727 
L 264.774194 300.272727 
L 265.526967 300.272727 
L 266.27974 300.272727 
L 267.032513 300.272727 
L 267.785286 300.272727 
L 268.538059 300.272727 
L 269.290833 300.272727 
L 270.043606 300.272727 
L 270.796379 300.272727 
L 271.549152 300.272727 
L 272.301925 300.272727 
L 273.054698 300.272727 
L 273.807472 300.272727 
L 274.560245 300.272727 
L 275.313018 300.272727 
L 276.065791 300.272727 
L 276.818564 300.272727 
L 277.571337 300.272727 
L 278.324111 300.272727 
L 279.076884 300.272727 
L 279.829657 300.272727 
L 280.58243 300.272727 
L 281.335203 300.272727 
L 282.087977 300.272727 
L 282.84075 300.272727 
L 283.593523 300.272727 
L 284.346296 300.272727 
L 285.099069 300.272727 
L 285.851842 300.272727 
L 286.604616 300.272727 
L 287.357389 300.272727 
L 288.110162 300.272727 
L 288.862935 300.272727 
L 289.615708 300.272727 
L 290.368481 300.272727 
L 291.121255 300.272727 
L 291.874028 300.272727 
L 292.626801 300.272727 
L 293.379574 300.272727 
L 294.132347 300.272727 
L 294.88512 300.272727 
L 295.637894 300.272727 
L 296.390667 300.272727 
L 297.14344 300.272727 
L 297.896213 300.272727 
L 298.648986 300.272727 
L 299.40176 300.272727 
L 300.154533 300.272727 
L 300.907306 300.272727 
L 301.660079 300.272727 
L 302.412852 300.272727 
L 303.165625 300.272727 
L 303.918399 300.272727 
L 304.671172 300.272727 
L 305.423945 300.272727 
L 306.176718 300.272727 
L 306.929491 300.272727 
L 307.682264 300.272727 
L 308.435038 300.272727 
L 309.187811 300.272727 
L 309.940584 300.272727 
L 310.693357 300.272727 
L 311.44613 300.272727 
L 312.198903 300.272727 
L 312.951677 300.272727 
L 313.70445 300.272727 
L 314.457223 300.272727 
L 315.209996 300.272727 
L 315.962769 300.272727 
L 316.715543 300.272727 
L 317.468316 300.272727 
L 318.221089 300.272727 
L 318.973862 300.272727 
L 319.726635 300.272727 
L 320.479408 300.272727 
L 321.232182 300.272727 
L 321.984955 300.272727 
L 322.737728 300.272727 
L 323.490501 300.272727 
L 324.243274 300.272727 
L 324.996047 300.272727 
L 325.748821 300.272727 
L 326.501594 300.272727 
L 327.254367 300.272727 
L 328.00714 300.272727 
L 328.759913 300.272727 
L 329.512686 300.272727 
L 330.26546 300.272727 
L 331.018233 300.272727 
L 331.771006 300.272727 
L 332.523779 300.272727 
L 333.276552 300.272727 
L 334.029326 300.272727 
L 334.782099 300.272727 
L 335.534872 300.272727 
L 336.287645 300.272727 
L 337.040418 300.272727 
L 337.793191 300.272727 
L 338.545965 300.272727 
L 339.298738 300.272727 
L 340.051511 300.272727 
L 340.804284 300.272727 
L 341.557057 300.272727 
L 342.30983 300.272727 
L 343.062604 300.272727 
L 343.815377 300.272727 
L 344.56815 300.272727 
L 345.320923 300.272727 
L 346.073696 300.272727 
L 346.826469 300.272727 
L 347.579243 300.272727 
L 348.332016 300.272727 
L 349.084789 300.272727 
L 349.837562 300.272727 
L 350.590335 300.272727 
L 351.343109 300.272727 
L 352.095882 300.272727 
L 352.848655 300.272727 
L 353.601428 300.272727 
L 354.354201 300.272727 
L 355.106974 300.272727 
L 355.859748 300.272727 
L 356.612521 300.272727 
L 357.365294 300.272727 
L 358.118067 300.272727 
L 358.87084 300.272727 
L 359.623613 300.272727 
L 360.376387 300.272727 
L 361.12916 300.272727 
L 361.881933 300.272727 
L 362.634706 300.272727 
L 363.387479 300.272727 
L 364.140252 300.272727 
L 364.893026 300.272727 
L 365.645799 300.272727 
L 366.398572 300.272727 
L 367.151345 300.272727 
L 367.904118 300.272727 
L 368.656891 300.272727 
L 369.409665 300.272727 
L 370.162438 300.272727 
L 370.915211 300.272727 
L 371.667984 300.272727 
L 372.420757 300.272727 
L 373.173531 300.272727 
L 373.926304 300.272727 
L 374.679077 300.272727 
L 375.43185 300.272727 
L 376.184623 300.272727 
L 376.937396 300.272727 
L 377.69017 300.272727 
L 378.442943 300.272727 
L 379.195716 300.272727 
L 379.948489 300.272727 
L 380.701262 300.272727 
L 381.454035 300.272727 
L 382.206809 300.272727 
L 382.959582 300.272727 
L 383.712355 300.272727 
L 384.465128 300.272727 
L 385.217901 300.272727 
L 385.970674 300.272727 
L 386.723448 300.272727 
L 387.476221 300.272727 
L 388.228994 300.272727 
L 388.981767 300.272727 
L 389.73454 300.272727 
L 390.487314 300.272727 
L 391.240087 300.272727 
L 391.99286 300.272727 
L 392.745633 300.272727 
L 393.498406 300.272727 
L 394.251179 300.272727 
L 395.003953 300.272727 
L 395.756726 300.272727 
L 396.509499 300.272727 
L 397.262272 300.272727 
L 398.015045 300.272727 
L 398.767818 300.272727 
L 399.520592 300.272727 
L 400.273365 300.272727 
L 409.306643 300.272727 
L 410.059416 300.272727 
L 410.812189 300.272727 
L 411.564962 300.272727 
L 412.317736 300.272727 
L 413.070509 300.272727 
L 413.823282 300.272727 
L 414.576055 300.272727 
L 416.081601 300.272727 
L 416.834375 300.272727 
L 417.587148 300.272727 
L 418.339921 300.272727 
L 419.092694 300.272727 
L 419.845467 300.272727 
L 420.59824 300.272727 
L 421.351014 300.272727 
L 422.103787 300.272727 
L 422.85656 300.272727 
L 423.609333 300.272727 
L 424.362106 300.272727 
L 425.11488 300.272727 
L 425.867653 300.272727 
L 426.620426 300.272727 
L 427.373199 300.272727 
L 428.125972 300.272727 
L 428.878745 300.272727 
L 429.631519 300.272727 
L 430.384292 300.272727 
L 431.137065 300.272727 
L 431.889838 300.272727 
L 432.642611 300.272727 
L 433.395384 300.272727 
L 434.148158 300.272727 
L 434.900931 300.272727 
L 435.653704 300.272727 
L 436.406477 300.272727 
L 437.15925 300.272727 
L 437.912023 300.272727 
L 438.664797 300.272727 
L 439.41757 300.272727 
L 440.170343 300.272727 
L 440.923116 300.272727 
L 441.675889 300.272727 
L 442.428663 300.272727 
L 443.181436 300.272727 
L 443.934209 300.272727 
L 444.686982 300.272727 
L 446.945302 300.272727 
L 447.698075 300.272727 
L 448.450848 300.272727 
L 449.203621 300.272727 
L 449.956394 300.272727 
L 450.709167 300.272727 
L 451.461941 300.272727 
L 452.214714 300.272727 
L 452.967487 300.272727 
L 453.72026 300.272727 
L 454.473033 300.272727 
L 455.225806 300.272727 
L 455.97858 300.272727 
L 456.731353 300.272727 
L 457.484126 300.272727 
L 458.236899 300.272727 
L 458.989672 300.272727 
L 459.742445 300.272727 
L 460.495219 300.272727 
L 461.247992 300.272727 
L 462.000765 300.272727 
L 462.753538 300.272727 
L 463.506311 300.272727 
L 464.259085 300.272727 
L 465.011858 300.272727 
L 465.764631 300.272727 
L 466.517404 300.272727 
L 467.270177 300.272727 
L 468.02295 300.272727 
L 468.775724 300.272727 
L 469.528497 300.272727 
L 470.28127 300.272727 
L 471.034043 300.272727 
L 471.786816 300.272727 
L 472.539589 300.272727 
L 473.292363 300.272727 
L 474.045136 300.272727 
L 474.797909 300.272727 
L 475.550682 300.272727 
L 476.303455 300.272727 
L 477.056228 300.272727 
L 477.809002 300.272727 
L 478.561775 300.272727 
L 479.314548 300.272727 
L 480.067321 300.272727 
L 480.820094 300.272727 
L 481.572868 300.272727 
L 482.325641 300.272727 
L 483.078414 300.272727 
L 483.831187 300.272727 
L 484.58396 300.272727 
L 485.336733 300.272727 
L 486.089507 300.272727 
L 486.84228 300.272727 
L 487.595053 300.272727 
L 488.347826 300.272727 
L 489.100599 300.272727 
L 489.853372 300.272727 
L 490.606146 300.272727 
L 491.358919 300.272727 
L 492.111692 300.272727 
L 492.864465 300.272727 
L 493.617238 300.272727 
L 494.370011 300.272727 
L 495.122785 300.272727 
L 495.875558 300.272727 
L 496.628331 300.272727 
L 497.381104 300.272727 
L 498.133877 300.272727 
L 498.886651 300.272727 
L 499.639424 300.272727 
L 500.392197 300.272727 
L 501.14497 300.272727 
L 501.897743 300.272727 
L 502.650516 300.272727 
L 503.40329 300.272727 
L 504.156063 300.272727 
L 504.908836 300.272727 
L 505.661609 300.272727 
L 506.414382 300.272727 
L 507.167155 300.272727 
L 507.919929 300.272727 
L 508.672702 300.272727 
L 509.425475 300.272727 
L 510.178248 300.272727 
L 510.931021 300.272727 
L 511.683794 300.272727 
L 512.436568 300.272727 
L 513.189341 300.272727 
L 513.942114 300.272727 
L 514.694887 300.272727 
L 515.44766 300.272727 
L 516.200434 300.272727 
L 516.953207 300.272727 
L 517.70598 300.272727 
L 518.458753 300.272727 
L 519.211526 300.272727 
L 519.964299 300.272727 
L 520.717073 300.272727 
L 521.469846 300.272727 
L 522.222619 300.272727 
L 522.975392 300.272727 
L 523.728165 300.272727 
L 524.480938 300.272727 
L 525.233712 300.272727 
L 525.986485 300.272727 
L 526.739258 300.272727 
L 527.492031 300.272727 
L 528.244804 300.272727 
L 528.997577 300.272727 
L 529.750351 300.272727 
L 530.503124 300.272727 
L 531.255897 300.272727 
L 532.00867 300.272727 
L 532.761443 300.272727 
L 533.514216 300.272727 
L 534.26699 300.272727 
L 535.019763 300.272727 
L 535.772536 300.272727 
L 536.525309 300.272727 
L 537.278082 300.272727 
L 538.030856 300.272727 
L 538.783629 300.272727 
L 539.536402 300.272727 
L 540.289175 300.272727 
L 541.041948 300.272727 
L 541.794721 300.272727 
L 542.547495 300.272727 
L 543.300268 300.272727 
L 544.053041 300.272727 
L 544.805814 300.272727 
L 545.558587 300.272727 
L 546.31136 300.272727 
L 547.064134 300.272727 
L 547.816907 300.272727 
L 548.56968 300.272727 
L 549.322453 300.272727 
L 550.075226 300.272727 
L 550.827999 300.272727 
L 551.580773 300.272727 
L 552.333546 300.272727 
L 553.086319 300.272727 
L 553.839092 300.272727 
L 554.591865 300.272727 
L 555.344639 300.272727 
L 556.097412 300.272727 
L 556.850185 300.272727 
L 557.602958 300.272727 
L 558.355731 300.272727 
L 559.108504 300.272727 
L 559.861278 300.272727 
L 560.614051 300.272727 
L 561.366824 300.272727 
L 562.119597 300.272727 
L 562.87237 300.272727 
L 563.625143 300.272727 
L 564.377917 300.272727 
L 565.13069 300.272727 
L 565.883463 300.272727 
L 566.636236 300.272727 
L 567.389009 300.272727 
L 568.141782 300.272727 
L 568.894556 300.272727 
L 569.647329 300.272727 
L 570.400102 300.272727 
L 571.152875 300.272727 
L 571.905648 300.272727 
L 572.658422 300.272727 
L 574.163968 300.272727 
L 574.916741 300.272727 
L 575.669514 300.272727 
L 576.422287 300.272727 
L 577.175061 300.272727 
L 577.927834 300.272727 
L 578.680607 300.272727 
L 579.43338 300.272727 
L 580.186153 300.272727 
L 580.938926 300.272727 
L 581.6917 300.272727 
L 582.444473 300.272727 
L 583.197246 300.272727 
L 583.950019 300.272727 
L 584.702792 300.272727 
L 585.455565 300.272727 
L 586.208339 300.272727 
L 586.961112 300.272727 
L 587.713885 300.272727 
L 588.466658 300.272727 
L 589.219431 300.272727 
L 589.972205 300.272727 
L 590.724978 300.272727 
L 591.477751 300.272727 
L 592.230524 300.272727 
L 592.983297 300.272727 
L 593.73607 300.272727 
L 594.488844 300.272727 
L 595.241617 300.272727 
L 595.99439 300.272727 
L 596.747163 300.272727 
L 597.499936 300.272727 
L 598.252709 300.272727 
L 599.005483 300.272727 
L 599.758256 300.272727 
L 600.511029 300.272727 
L 601.263802 300.272727 
L 602.016575 300.272727 
L 602.769348 300.272727 
L 603.522122 300.272727 
L 604.274895 300.272727 
L 605.027668 300.272727 
L 605.780441 300.272727 
L 606.533214 300.272727 
L 607.285988 300.272727 
L 608.038761 300.272727 
L 608.791534 300.272727 
L 609.544307 300.272727 
L 610.29708 300.272727 
L 611.049853 300.272727 
L 611.802627 300.272727 
L 612.5554 300.272727 
L 613.308173 300.272727 
L 614.060946 300.272727 
L 614.813719 300.272727 
L 615.566492 300.272727 
L 616.319266 300.272727 
L 617.072039 300.272727 
L 617.824812 300.272727 
L 618.577585 300.272727 
L 619.330358 300.272727 
L 620.083131 300.272727 
L 620.835905 300.272727 
L 621.588678 300.272727 
L 622.341451 300.272727 
L 623.094224 300.272727 
L 623.846997 300.272727 
L 624.59977 300.272727 
L 625.352544 300.272727 
L 626.105317 300.272727 
L 626.85809 300.272727 
L 627.610863 300.272727 
L 628.363636 300.272727 
L 628.363636 300.272727 
L 628.363636 260.86031 
L 627.610863 277.150776 
L 626.85809 290.288248 
L 626.105317 295.543237 
L 625.352544 295.543237 
L 624.59977 296.068736 
L 623.846997 292.915743 
L 623.094224 292.915743 
L 622.341451 294.492239 
L 621.588678 282.405765 
L 620.835905 261.385809 
L 620.083131 290.813747 
L 619.330358 255.079823 
L 618.577585 251.926829 
L 617.824812 288.711752 
L 617.072039 292.390244 
L 616.319266 249.299335 
L 615.566492 290.813747 
L 614.813719 285.558758 
L 614.060946 290.813747 
L 613.308173 293.966741 
L 612.5554 289.762749 
L 611.802627 294.492239 
L 611.049853 278.201774 
L 610.29708 292.915743 
L 609.544307 296.594235 
L 608.791534 296.594235 
L 608.038761 297.119734 
L 607.285988 295.543237 
L 606.533214 274.523282 
L 605.780441 262.962306 
L 605.027668 272.421286 
L 604.274895 296.068736 
L 603.522122 293.441242 
L 602.769348 290.813747 
L 602.016575 291.339246 
L 601.263802 298.170732 
L 600.511029 292.915743 
L 599.758256 296.594235 
L 599.005483 298.170732 
L 598.252709 296.068736 
L 597.499936 266.115299 
L 596.747163 266.115299 
L 595.99439 264.538803 
L 595.241617 230.906874 
L 594.488844 264.013304 
L 593.73607 298.170732 
L 592.983297 298.170732 
L 592.230524 293.966741 
L 591.477751 297.119734 
L 590.724978 274.523282 
L 589.972205 230.381375 
L 589.219431 251.926829 
L 588.466658 298.170732 
L 587.713885 297.119734 
L 586.961112 298.170732 
L 586.208339 288.711752 
L 585.455565 293.441242 
L 584.702792 290.813747 
L 583.950019 291.339246 
L 583.197246 293.441242 
L 582.444473 292.390244 
L 581.6917 293.966741 
L 580.938926 296.594235 
L 580.186153 298.170732 
L 579.43338 295.543237 
L 578.680607 297.645233 
L 577.927834 297.119734 
L 577.175061 296.594235 
L 576.422287 296.594235 
L 575.669514 297.119734 
L 574.916741 295.543237 
L 574.163968 288.186253 
L 572.658422 298.170732 
L 571.905648 297.119734 
L 571.152875 297.119734 
L 570.400102 297.119734 
L 569.647329 290.813747 
L 568.894556 298.170732 
L 568.141782 297.119734 
L 567.389009 297.119734 
L 566.636236 298.170732 
L 565.883463 298.170732 
L 565.13069 296.068736 
L 564.377917 299.221729 
L 563.625143 298.170732 
L 562.87237 288.186253 
L 562.119597 298.170732 
L 561.366824 297.119734 
L 560.614051 296.594235 
L 559.861278 295.543237 
L 559.108504 295.017738 
L 558.355731 297.645233 
L 557.602958 295.017738 
L 556.850185 297.119734 
L 556.097412 297.645233 
L 555.344639 297.119734 
L 554.591865 293.441242 
L 553.839092 297.645233 
L 553.086319 295.543237 
L 552.333546 297.119734 
L 551.580773 296.594235 
L 550.827999 295.017738 
L 550.075226 256.656319 
L 549.322453 279.252772 
L 548.56968 283.456763 
L 547.816907 293.966741 
L 547.064134 266.115299 
L 546.31136 298.170732 
L 545.558587 294.492239 
L 544.805814 297.119734 
L 544.053041 295.017738 
L 543.300268 293.966741 
L 542.547495 295.017738 
L 541.794721 295.017738 
L 541.041948 297.119734 
L 540.289175 296.594235 
L 539.536402 232.48337 
L 538.783629 173.627494 
L 538.030856 204.10643 
L 537.278082 233.008869 
L 536.525309 297.119734 
L 535.772536 294.492239 
L 535.019763 292.390244 
L 534.26699 229.855876 
L 533.514216 241.94235 
L 532.761443 292.390244 
L 532.00867 293.441242 
L 531.255897 288.711752 
L 530.503124 285.033259 
L 529.750351 228.279379 
L 528.997577 226.177384 
L 528.244804 290.813747 
L 527.492031 291.339246 
L 526.739258 287.660754 
L 525.986485 289.237251 
L 525.233712 293.966741 
L 524.480938 295.017738 
L 523.728165 285.558758 
L 522.975392 292.915743 
L 522.222619 269.268293 
L 521.469846 200.953437 
L 520.717073 234.585366 
L 519.964299 295.543237 
L 519.211526 197.274945 
L 518.458753 185.18847 
L 517.70598 294.492239 
L 516.953207 288.711752 
L 516.200434 297.119734 
L 515.44766 270.844789 
L 514.694887 298.170732 
L 513.942114 245.620843 
L 513.189341 247.722838 
L 512.436568 296.068736 
L 511.683794 298.170732 
L 510.931021 297.119734 
L 510.178248 295.543237 
L 509.425475 298.170732 
L 508.672702 294.492239 
L 507.919929 293.441242 
L 507.167155 296.068736 
L 506.414382 200.953437 
L 505.661609 208.83592 
L 504.908836 266.640798 
L 504.156063 294.492239 
L 503.40329 282.931264 
L 502.650516 266.115299 
L 501.897743 243.518847 
L 501.14497 242.993348 
L 500.392197 205.157428 
L 499.639424 234.585366 
L 498.886651 273.472284 
L 498.133877 206.208426 
L 497.381104 248.248337 
L 496.628331 280.303769 
L 495.875558 287.660754 
L 495.122785 296.594235 
L 494.370011 295.543237 
L 493.617238 293.966741 
L 492.864465 296.068736 
L 492.111692 294.492239 
L 491.358919 287.135255 
L 490.606146 255.605322 
L 489.853372 290.288248 
L 489.100599 298.170732 
L 488.347826 295.543237 
L 487.595053 293.966741 
L 486.84228 287.660754 
L 486.089507 297.645233 
L 485.336733 296.068736 
L 484.58396 296.068736 
L 483.831187 295.543237 
L 483.078414 285.033259 
L 482.325641 296.068736 
L 481.572868 273.997783 
L 480.820094 285.558758 
L 480.067321 293.966741 
L 479.314548 293.966741 
L 478.561775 296.594235 
L 477.809002 296.594235 
L 477.056228 296.594235 
L 476.303455 287.660754 
L 475.550682 256.13082 
L 474.797909 247.197339 
L 474.045136 273.472284 
L 473.292363 288.711752 
L 472.539589 291.864745 
L 471.786816 278.727273 
L 471.034043 255.605322 
L 470.28127 244.044346 
L 469.528497 248.773836 
L 468.775724 248.248337 
L 468.02295 239.840355 
L 467.270177 294.492239 
L 466.517404 291.339246 
L 465.764631 254.554324 
L 465.011858 287.660754 
L 464.259085 288.186253 
L 463.506311 253.503326 
L 462.753538 295.017738 
L 462.000765 287.135255 
L 461.247992 290.813747 
L 460.495219 248.773836 
L 459.742445 225.126386 
L 458.989672 239.314856 
L 458.236899 266.640798 
L 457.484126 285.033259 
L 456.731353 290.288248 
L 455.97858 296.068736 
L 455.225806 248.248337 
L 454.473033 266.115299 
L 453.72026 283.982262 
L 452.967487 233.008869 
L 452.214714 238.263858 
L 451.461941 265.5898 
L 450.709167 271.370288 
L 449.956394 176.780488 
L 449.203621 289.762749 
L 448.450848 262.962306 
L 447.698075 202.529933 
L 446.945302 201.478936 
L 444.686982 273.472284 
L 443.934209 236.687361 
L 443.181436 191.494457 
L 442.428663 242.467849 
L 441.675889 243.518847 
L 440.923116 286.084257 
L 440.170343 272.421286 
L 439.41757 270.844789 
L 438.664797 174.152993 
L 437.912023 222.498891 
L 437.15925 282.405765 
L 436.406477 259.809313 
L 435.653704 265.5898 
L 434.900931 182.560976 
L 434.148158 228.804878 
L 433.395384 270.31929 
L 432.642611 228.279379 
L 431.889838 219.871397 
L 431.137065 237.21286 
L 430.384292 254.028825 
L 429.631519 262.962306 
L 428.878745 217.769401 
L 428.125972 213.039911 
L 427.373199 236.687361 
L 426.620426 224.600887 
L 425.867653 212.514412 
L 425.11488 265.5898 
L 424.362106 178.882483 
L 423.609333 219.871397 
L 422.85656 232.48337 
L 422.103787 209.886918 
L 421.351014 104.78714 
L 420.59824 246.146341 
L 419.845467 265.064302 
L 419.092694 189.91796 
L 418.339921 188.341463 
L 417.587148 239.840355 
L 416.834375 168.372506 
L 416.081601 67.476718 
L 414.576055 228.279379 
L 413.823282 244.044346 
L 413.070509 204.631929 
L 412.317736 220.396896 
L 411.564962 178.882483 
L 410.812189 160.490022 
L 410.059416 189.392461 
L 409.306643 262.962306 
L 400.273365 198.851441 
L 399.520592 188.866962 
L 398.767818 256.13082 
L 398.015045 288.711752 
L 397.262272 278.201774 
L 396.509499 276.625277 
L 395.756726 273.472284 
L 395.003953 247.197339 
L 394.251179 275.04878 
L 393.498406 285.033259 
L 392.745633 288.186253 
L 391.99286 251.926829 
L 391.240087 196.749446 
L 390.487314 142.62306 
L 389.73454 58.017738 
L 388.981767 161.54102 
L 388.228994 275.04878 
L 387.476221 275.574279 
L 386.723448 281.354767 
L 385.970674 270.844789 
L 385.217901 242.993348 
L 384.465128 272.946785 
L 383.712355 279.778271 
L 382.959582 286.609756 
L 382.206809 287.135255 
L 381.454035 289.237251 
L 380.701262 283.982262 
L 379.948489 274.523282 
L 379.195716 169.949002 
L 378.442943 167.321508 
L 377.69017 201.478936 
L 376.937396 190.443459 
L 376.184623 214.616408 
L 375.43185 279.778271 
L 374.679077 272.421286 
L 373.926304 241.416851 
L 373.173531 284.507761 
L 372.420757 273.997783 
L 371.667984 270.31929 
L 370.915211 254.554324 
L 370.162438 190.968958 
L 369.409665 198.851441 
L 368.656891 247.197339 
L 367.904118 204.631929 
L 367.151345 196.749446 
L 366.398572 180.45898 
L 365.645799 173.627494 
L 364.893026 171.525499 
L 364.140252 185.713969 
L 363.387479 144.725055 
L 362.634706 117.924612 
L 361.881933 171.525499 
L 361.12916 195.172949 
L 360.376387 190.443459 
L 359.623613 162.066519 
L 358.87084 179.933481 
L 358.118067 204.631929 
L 357.365294 149.454545 
L 356.612521 122.128603 
L 355.859748 157.337029 
L 355.106974 209.886918 
L 354.354201 210.937916 
L 353.601428 186.239468 
L 352.848655 207.259424 
L 352.095882 235.110865 
L 351.343109 292.390244 
L 350.590335 287.135255 
L 349.837562 230.906874 
L 349.084789 234.585366 
L 348.332016 288.711752 
L 347.579243 284.507761 
L 346.826469 229.855876 
L 346.073696 282.931264 
L 345.320923 289.762749 
L 344.56815 280.829268 
L 343.815377 262.962306 
L 343.062604 237.738359 
L 342.30983 291.864745 
L 341.557057 284.507761 
L 340.804284 286.609756 
L 340.051511 290.288248 
L 339.298738 213.56541 
L 338.545965 249.299335 
L 337.793191 292.390244 
L 337.040418 276.099778 
L 336.287645 272.421286 
L 335.534872 272.421286 
L 334.782099 287.660754 
L 334.029326 286.084257 
L 333.276552 291.864745 
L 332.523779 287.660754 
L 331.771006 288.186253 
L 331.018233 282.931264 
L 330.26546 291.864745 
L 329.512686 282.405765 
L 328.759913 290.813747 
L 328.00714 235.636364 
L 327.254367 258.758315 
L 326.501594 289.762749 
L 325.748821 230.381375 
L 324.996047 255.079823 
L 324.243274 288.711752 
L 323.490501 279.778271 
L 322.737728 290.288248 
L 321.984955 277.150776 
L 321.232182 256.13082 
L 320.479408 285.558758 
L 319.726635 290.813747 
L 318.973862 286.084257 
L 318.221089 284.507761 
L 317.468316 292.390244 
L 316.715543 279.778271 
L 315.962769 280.829268 
L 315.209996 271.895787 
L 314.457223 276.625277 
L 313.70445 276.099778 
L 312.951677 253.503326 
L 312.198903 275.574279 
L 311.44613 287.135255 
L 310.693357 265.5898 
L 309.940584 268.217295 
L 309.187811 213.039911 
L 308.435038 143.674058 
L 307.682264 189.392461 
L 306.929491 180.45898 
L 306.176718 292.915743 
L 305.423945 268.742794 
L 304.671172 268.217295 
L 303.918399 291.339246 
L 303.165625 291.339246 
L 302.412852 286.084257 
L 301.660079 270.31929 
L 300.907306 259.283814 
L 300.154533 261.385809 
L 299.40176 291.339246 
L 298.648986 291.864745 
L 297.896213 285.033259 
L 297.14344 251.926829 
L 296.390667 290.813747 
L 295.637894 287.660754 
L 294.88512 241.416851 
L 294.132347 261.385809 
L 293.379574 279.778271 
L 292.626801 284.507761 
L 291.874028 280.829268 
L 291.121255 267.691796 
L 290.368481 287.660754 
L 289.615708 271.895787 
L 288.862935 278.727273 
L 288.110162 285.033259 
L 287.357389 285.558758 
L 286.604616 284.507761 
L 285.851842 281.880266 
L 285.099069 222.498891 
L 284.346296 258.232816 
L 283.593523 262.436807 
L 282.84075 282.931264 
L 282.087977 278.201774 
L 281.335203 267.691796 
L 280.58243 279.778271 
L 279.829657 242.993348 
L 279.076884 264.013304 
L 278.324111 277.676275 
L 277.571337 267.166297 
L 276.818564 275.574279 
L 276.065791 280.303769 
L 275.313018 207.784922 
L 274.560245 270.31929 
L 273.807472 278.201774 
L 273.054698 272.421286 
L 272.301925 273.997783 
L 271.549152 268.742794 
L 270.796379 265.5898 
L 270.043606 250.875831 
L 269.290833 224.600887 
L 268.538059 224.600887 
L 267.785286 235.110865 
L 267.032513 276.099778 
L 266.27974 270.31929 
L 265.526967 234.059867 
L 264.774194 186.764967 
L 264.02142 176.780488 
L 263.268647 226.702882 
L 262.515874 267.166297 
L 261.763101 270.844789 
L 261.010328 285.558758 
L 260.257555 229.330377 
L 259.504781 279.778271 
L 258.752008 279.252772 
L 257.999235 252.977827 
L 257.246462 269.793792 
L 256.493689 196.749446 
L 255.740915 222.498891 
L 254.988142 209.361419 
L 254.235369 235.636364 
L 253.482596 254.554324 
L 252.729823 267.691796 
L 251.97705 267.166297 
L 251.224276 277.676275 
L 250.471503 276.099778 
L 249.71873 244.044346 
L 248.965957 195.172949 
L 247.460411 277.150776 
L 246.707637 264.538803 
L 245.954864 247.722838 
L 245.202091 240.891353 
L 244.449318 261.911308 
L 243.696545 268.217295 
L 242.943772 242.467849 
L 242.190998 268.217295 
L 241.438225 247.197339 
L 240.685452 251.926829 
L 239.932679 230.906874 
L 239.179906 233.008869 
L 238.427132 246.67184 
L 237.674359 239.840355 
L 236.921586 203.055432 
L 236.168813 83.241685 
L 235.41604 167.321508 
L 234.663267 166.796009 
L 233.910493 161.54102 
L 233.15772 150.505543 
L 232.404947 260.86031 
L 231.652174 213.56541 
L 230.899401 257.181818 
L 230.146628 272.421286 
L 229.393854 269.268293 
L 228.641081 276.625277 
L 227.888308 268.217295 
L 227.135535 280.829268 
L 226.382762 237.21286 
L 225.629989 267.691796 
L 224.877215 270.31929 
L 224.124442 283.982262 
L 223.371669 227.228381 
L 222.618896 211.988914 
L 221.866123 266.640798 
L 221.113349 191.494457 
L 220.360576 197.800443 
L 219.607803 184.137472 
L 218.85503 199.902439 
L 218.102257 214.090909 
L 217.349484 199.37694 
L 216.59671 157.337029 
L 215.843937 220.396896 
L 215.091164 256.656319 
L 214.338391 280.303769 
L 213.585618 261.911308 
L 212.832845 277.676275 
L 212.080071 262.436807 
L 211.327298 276.625277 
L 210.574525 277.150776 
L 209.821752 267.166297 
L 209.068979 265.5898 
L 208.316206 269.268293 
L 207.563432 239.840355 
L 206.810659 261.385809 
L 206.057886 261.911308 
L 205.305113 255.605322 
L 204.55234 275.04878 
L 203.799566 279.778271 
L 203.046793 265.5898 
L 202.29402 235.110865 
L 201.541247 190.968958 
L 200.788474 242.993348 
L 200.035701 178.356984 
L 199.282927 180.45898 
L 198.530154 269.793792 
L 197.777381 287.135255 
L 197.024608 142.097561 
L 196.271835 124.230599 
L 195.519062 223.02439 
L 194.766288 249.299335 
L 194.013515 277.676275 
L 193.260742 287.660754 
L 192.507969 279.778271 
L 191.755196 202.529933 
L 191.002423 277.150776 
L 190.249649 257.181818 
L 189.496876 265.064302 
L 188.744103 282.931264 
L 187.99133 279.778271 
L 187.238557 278.201774 
L 186.485784 258.758315 
L 185.73301 241.94235 
L 184.980237 285.033259 
L 184.227464 285.558758 
L 183.474691 255.605322 
L 182.721918 192.545455 
L 181.969144 209.361419 
L 180.463598 268.742794 
L 179.710825 237.21286 
L 178.958052 224.075388 
L 178.205279 282.931264 
L 177.452505 271.370288 
L 176.699732 287.135255 
L 175.946959 253.503326 
L 175.194186 292.390244 
L 174.441413 285.558758 
L 173.68864 280.303769 
L 172.935866 282.405765 
L 172.183093 286.084257 
L 171.43032 272.421286 
L 170.677547 282.405765 
L 169.924774 277.676275 
L 169.172001 256.13082 
L 168.419227 286.084257 
L 167.666454 279.252772 
L 166.913681 236.687361 
L 166.160908 232.48337 
L 165.408135 286.609756 
L 164.655361 255.605322 
L 163.902588 254.028825 
L 163.149815 234.585366 
L 162.397042 255.079823 
L 161.644269 282.931264 
L 160.891496 286.084257 
L 160.138722 286.609756 
L 159.385949 266.640798 
L 158.633176 288.186253 
L 157.880403 194.121951 
L 157.12763 41.727273 
L 156.374857 128.43459 
L 155.622083 74.308204 
L 154.86931 84.818182 
L 154.116537 160.490022 
L 153.363764 115.822616 
L 152.610991 244.044346 
L 151.858218 271.895787 
L 151.105444 293.441242 
L 150.352671 229.330377 
L 149.599898 192.019956 
L 148.847125 189.392461 
L 148.094352 194.121951 
L 147.341578 185.713969 
L 146.588805 210.937916 
L 145.836032 211.463415 
L 145.083259 210.937916 
L 144.330486 240.891353 
L 143.577713 288.186253 
L 142.824939 279.252772 
L 142.072166 286.084257 
L 141.319393 276.625277 
L 140.56662 270.844789 
L 139.813847 269.268293 
L 139.061074 250.350333 
L 138.3083 282.405765 
L 137.555527 280.829268 
L 136.802754 255.079823 
L 136.049981 271.370288 
L 135.297208 257.181818 
L 134.544435 242.993348 
L 133.791661 269.793792 
L 133.038888 236.161863 
L 132.286115 261.911308 
L 131.533342 159.439024 
L 130.780569 96.379157 
L 130.027795 186.764967 
L 129.275022 187.290466 
L 128.522249 190.968958 
L 127.769476 196.223947 
L 127.016703 166.27051 
L 126.26393 190.968958 
L 125.511156 169.423503 
L 124.758383 183.086475 
L 124.00561 182.560976 
L 123.252837 192.545455 
L 122.500064 182.560976 
L 121.747291 228.804878 
L 120.994517 278.201774 
L 120.241744 194.121951 
L 119.488971 189.91796 
L 118.736198 177.831486 
L 117.983425 179.407982 
L 117.230652 203.055432 
L 116.477878 204.631929 
L 115.725105 128.960089 
L 114.972332 155.235033 
L 114.219559 66.95122 
L 113.466786 100.583149 
L 112.714012 119.501109 
L 111.961239 143.674058 
L 111.208466 203.055432 
L 110.455693 200.953437 
L 109.70292 209.886918 
L 108.950147 265.064302 
L 108.197373 283.982262 
L 107.4446 283.456763 
L 106.691827 188.866962 
L 105.939054 115.822616 
L 105.186281 139.995565 
L 104.433508 140.521064 
L 103.680734 197.274945 
L 102.927961 205.157428 
L 102.175188 204.631929 
L 101.422415 140.521064 
L 100.669642 208.310421 
L 99.916869 265.5898 
L 99.164095 238.263858 
L 98.411322 255.605322 
L 97.658549 285.558758 
L 95.40023 284.507761 
L 94.647456 197.274945 
L 93.894683 228.804878 
L 93.14191 262.962306 
L 92.389137 280.303769 
L 91.636364 275.04878 
z
" style="fill:#ffa07a;fill-opacity:0.3;"/>
   </g>
   <g id="matplotlib.axis_1">
    <g id="xtick_1">
     <g id="line2d_1">
      <path clip-path="url(#p1fb1e2402b)" d="M 91.636364 313.2 
L 91.636364 28.8 
" style="fill:none;stroke:#808080;stroke-dasharray:6.4,1.6,1,1.6;stroke-dashoffset:0;stroke-opacity:0.3;"/>
     </g>
     <g id="line2d_2">
      <defs>
       <path d="M 0 0 
L 0 3.5 
" id="m3f912138e8" style="stroke:#000000;stroke-width:0.8;"/>
      </defs>
      <g>
       <use style="stroke:#000000;stroke-width:0.8;" x="91.636364" xlink:href="#m3f912138e8" y="313.2"/>
      </g>
     </g>
     <g id="text_1">
      <!-- 2020-11-20 -->
      <g transform="translate(62.578551 327.798437)scale(0.1 -0.1)">
       <defs>
        <path d="M 19.1875 8.296875 
L 53.609375 8.296875 
L 53.609375 0 
L 7.328125 0 
L 7.328125 8.296875 
Q 12.9375 14.109375 22.625 23.890625 
Q 32.328125 33.6875 34.8125 36.53125 
Q 39.546875 41.84375 41.421875 45.53125 
Q 43.3125 49.21875 43.3125 52.78125 
Q 43.3125 58.59375 39.234375 62.25 
Q 35.15625 65.921875 28.609375 65.921875 
Q 23.96875 65.921875 18.8125 64.3125 
Q 13.671875 62.703125 7.8125 59.421875 
L 7.8125 69.390625 
Q 13.765625 71.78125 18.9375 73 
Q 24.125 74.21875 28.421875 74.21875 
Q 39.75 74.21875 46.484375 68.546875 
Q 53.21875 62.890625 53.21875 53.421875 
Q 53.21875 48.921875 51.53125 44.890625 
Q 49.859375 40.875 45.40625 35.40625 
Q 44.1875 33.984375 37.640625 27.21875 
Q 31.109375 20.453125 19.1875 8.296875 
z
" id="DejaVuSans-50"/>
        <path d="M 31.78125 66.40625 
Q 24.171875 66.40625 20.328125 58.90625 
Q 16.5 51.421875 16.5 36.375 
Q 16.5 21.390625 20.328125 13.890625 
Q 24.171875 6.390625 31.78125 6.390625 
Q 39.453125 6.390625 43.28125 13.890625 
Q 47.125 21.390625 47.125 36.375 
Q 47.125 51.421875 43.28125 58.90625 
Q 39.453125 66.40625 31.78125 66.40625 
z
M 31.78125 74.21875 
Q 44.046875 74.21875 50.515625 64.515625 
Q 56.984375 54.828125 56.984375 36.375 
Q 56.984375 17.96875 50.515625 8.265625 
Q 44.046875 -1.421875 31.78125 -1.421875 
Q 19.53125 -1.421875 13.0625 8.265625 
Q 6.59375 17.96875 6.59375 36.375 
Q 6.59375 54.828125 13.0625 64.515625 
Q 19.53125 74.21875 31.78125 74.21875 
z
" id="DejaVuSans-48"/>
        <path d="M 4.890625 31.390625 
L 31.203125 31.390625 
L 31.203125 23.390625 
L 4.890625 23.390625 
z
" id="DejaVuSans-45"/>
        <path d="M 12.40625 8.296875 
L 28.515625 8.296875 
L 28.515625 63.921875 
L 10.984375 60.40625 
L 10.984375 69.390625 
L 28.421875 72.90625 
L 38.28125 72.90625 
L 38.28125 8.296875 
L 54.390625 8.296875 
L 54.390625 0 
L 12.40625 0 
z
" id="DejaVuSans-49"/>
       </defs>
       <use xlink:href="#DejaVuSans-50"/>
       <use x="63.623047" xlink:href="#DejaVuSans-48"/>
       <use x="127.246094" xlink:href="#DejaVuSans-50"/>
       <use x="190.869141" xlink:href="#DejaVuSans-48"/>
       <use x="254.492188" xlink:href="#DejaVuSans-45"/>
       <use x="290.576172" xlink:href="#DejaVuSans-49"/>
       <use x="354.199219" xlink:href="#DejaVuSans-49"/>
       <use x="417.822266" xlink:href="#DejaVuSans-45"/>
       <use x="453.90625" xlink:href="#DejaVuSans-50"/>
       <use x="517.529297" xlink:href="#DejaVuSans-48"/>
      </g>
     </g>
    </g>
    <g id="xtick_2">
     <g id="line2d_3">
      <path clip-path="url(#p1fb1e2402b)" d="M 167.666454 313.2 
L 167.666454 28.8 
" style="fill:none;stroke:#808080;stroke-dasharray:6.4,1.6,1,1.6;stroke-dashoffset:0;stroke-opacity:0.3;"/>
     </g>
     <g id="line2d_4">
      <g>
       <use style="stroke:#000000;stroke-width:0.8;" x="167.666454" xlink:href="#m3f912138e8" y="313.2"/>
      </g>
     </g>
     <g id="text_2">
      <!-- 2021-03-01 -->
      <g transform="translate(138.608642 327.798437)scale(0.1 -0.1)">
       <defs>
        <path d="M 40.578125 39.3125 
Q 47.65625 37.796875 51.625 33 
Q 55.609375 28.21875 55.609375 21.1875 
Q 55.609375 10.40625 48.1875 4.484375 
Q 40.765625 -1.421875 27.09375 -1.421875 
Q 22.515625 -1.421875 17.65625 -0.515625 
Q 12.796875 0.390625 7.625 2.203125 
L 7.625 11.71875 
Q 11.71875 9.328125 16.59375 8.109375 
Q 21.484375 6.890625 26.8125 6.890625 
Q 36.078125 6.890625 40.9375 10.546875 
Q 45.796875 14.203125 45.796875 21.1875 
Q 45.796875 27.640625 41.28125 31.265625 
Q 36.765625 34.90625 28.71875 34.90625 
L 20.21875 34.90625 
L 20.21875 43.015625 
L 29.109375 43.015625 
Q 36.375 43.015625 40.234375 45.921875 
Q 44.09375 48.828125 44.09375 54.296875 
Q 44.09375 59.90625 40.109375 62.90625 
Q 36.140625 65.921875 28.71875 65.921875 
Q 24.65625 65.921875 20.015625 65.03125 
Q 15.375 64.15625 9.8125 62.3125 
L 9.8125 71.09375 
Q 15.4375 72.65625 20.34375 73.4375 
Q 25.25 74.21875 29.59375 74.21875 
Q 40.828125 74.21875 47.359375 69.109375 
Q 53.90625 64.015625 53.90625 55.328125 
Q 53.90625 49.265625 50.4375 45.09375 
Q 46.96875 40.921875 40.578125 39.3125 
z
" id="DejaVuSans-51"/>
       </defs>
       <use xlink:href="#DejaVuSans-50"/>
       <use x="63.623047" xlink:href="#DejaVuSans-48"/>
       <use x="127.246094" xlink:href="#DejaVuSans-50"/>
       <use x="190.869141" xlink:href="#DejaVuSans-49"/>
       <use x="254.492188" xlink:href="#DejaVuSans-45"/>
       <use x="290.576172" xlink:href="#DejaVuSans-48"/>
       <use x="354.199219" xlink:href="#DejaVuSans-51"/>
       <use x="417.822266" xlink:href="#DejaVuSans-45"/>
       <use x="453.90625" xlink:href="#DejaVuSans-48"/>
       <use x="517.529297" xlink:href="#DejaVuSans-49"/>
      </g>
     </g>
    </g>
    <g id="xtick_3">
     <g id="line2d_5">
      <path clip-path="url(#p1fb1e2402b)" d="M 244.449318 313.2 
L 244.449318 28.8 
" style="fill:none;stroke:#808080;stroke-dasharray:6.4,1.6,1,1.6;stroke-dashoffset:0;stroke-opacity:0.3;"/>
     </g>
     <g id="line2d_6">
      <g>
       <use style="stroke:#000000;stroke-width:0.8;" x="244.449318" xlink:href="#m3f912138e8" y="313.2"/>
      </g>
     </g>
     <g id="text_3">
      <!-- 2021-06-11 -->
      <g transform="translate(215.391505 327.798437)scale(0.1 -0.1)">
       <defs>
        <path d="M 33.015625 40.375 
Q 26.375 40.375 22.484375 35.828125 
Q 18.609375 31.296875 18.609375 23.390625 
Q 18.609375 15.53125 22.484375 10.953125 
Q 26.375 6.390625 33.015625 6.390625 
Q 39.65625 6.390625 43.53125 10.953125 
Q 47.40625 15.53125 47.40625 23.390625 
Q 47.40625 31.296875 43.53125 35.828125 
Q 39.65625 40.375 33.015625 40.375 
z
M 52.59375 71.296875 
L 52.59375 62.3125 
Q 48.875 64.0625 45.09375 64.984375 
Q 41.3125 65.921875 37.59375 65.921875 
Q 27.828125 65.921875 22.671875 59.328125 
Q 17.53125 52.734375 16.796875 39.40625 
Q 19.671875 43.65625 24.015625 45.921875 
Q 28.375 48.1875 33.59375 48.1875 
Q 44.578125 48.1875 50.953125 41.515625 
Q 57.328125 34.859375 57.328125 23.390625 
Q 57.328125 12.15625 50.6875 5.359375 
Q 44.046875 -1.421875 33.015625 -1.421875 
Q 20.359375 -1.421875 13.671875 8.265625 
Q 6.984375 17.96875 6.984375 36.375 
Q 6.984375 53.65625 15.1875 63.9375 
Q 23.390625 74.21875 37.203125 74.21875 
Q 40.921875 74.21875 44.703125 73.484375 
Q 48.484375 72.75 52.59375 71.296875 
z
" id="DejaVuSans-54"/>
       </defs>
       <use xlink:href="#DejaVuSans-50"/>
       <use x="63.623047" xlink:href="#DejaVuSans-48"/>
       <use x="127.246094" xlink:href="#DejaVuSans-50"/>
       <use x="190.869141" xlink:href="#DejaVuSans-49"/>
       <use x="254.492188" xlink:href="#DejaVuSans-45"/>
       <use x="290.576172" xlink:href="#DejaVuSans-48"/>
       <use x="354.199219" xlink:href="#DejaVuSans-54"/>
       <use x="417.822266" xlink:href="#DejaVuSans-45"/>
       <use x="453.90625" xlink:href="#DejaVuSans-49"/>
       <use x="517.529297" xlink:href="#DejaVuSans-49"/>
      </g>
     </g>
    </g>
    <g id="xtick_4">
     <g id="line2d_7">
      <path clip-path="url(#p1fb1e2402b)" d="M 321.232182 313.2 
L 321.232182 28.8 
" style="fill:none;stroke:#808080;stroke-dasharray:6.4,1.6,1,1.6;stroke-dashoffset:0;stroke-opacity:0.3;"/>
     </g>
     <g id="line2d_8">
      <g>
       <use style="stroke:#000000;stroke-width:0.8;" x="321.232182" xlink:href="#m3f912138e8" y="313.2"/>
      </g>
     </g>
     <g id="text_4">
      <!-- 2021-09-21 -->
      <g transform="translate(292.174369 327.798437)scale(0.1 -0.1)">
       <defs>
        <path d="M 10.984375 1.515625 
L 10.984375 10.5 
Q 14.703125 8.734375 18.5 7.8125 
Q 22.3125 6.890625 25.984375 6.890625 
Q 35.75 6.890625 40.890625 13.453125 
Q 46.046875 20.015625 46.78125 33.40625 
Q 43.953125 29.203125 39.59375 26.953125 
Q 35.25 24.703125 29.984375 24.703125 
Q 19.046875 24.703125 12.671875 31.3125 
Q 6.296875 37.9375 6.296875 49.421875 
Q 6.296875 60.640625 12.9375 67.421875 
Q 19.578125 74.21875 30.609375 74.21875 
Q 43.265625 74.21875 49.921875 64.515625 
Q 56.59375 54.828125 56.59375 36.375 
Q 56.59375 19.140625 48.40625 8.859375 
Q 40.234375 -1.421875 26.421875 -1.421875 
Q 22.703125 -1.421875 18.890625 -0.6875 
Q 15.09375 0.046875 10.984375 1.515625 
z
M 30.609375 32.421875 
Q 37.25 32.421875 41.125 36.953125 
Q 45.015625 41.5 45.015625 49.421875 
Q 45.015625 57.28125 41.125 61.84375 
Q 37.25 66.40625 30.609375 66.40625 
Q 23.96875 66.40625 20.09375 61.84375 
Q 16.21875 57.28125 16.21875 49.421875 
Q 16.21875 41.5 20.09375 36.953125 
Q 23.96875 32.421875 30.609375 32.421875 
z
" id="DejaVuSans-57"/>
       </defs>
       <use xlink:href="#DejaVuSans-50"/>
       <use x="63.623047" xlink:href="#DejaVuSans-48"/>
       <use x="127.246094" xlink:href="#DejaVuSans-50"/>
       <use x="190.869141" xlink:href="#DejaVuSans-49"/>
       <use x="254.492188" xlink:href="#DejaVuSans-45"/>
       <use x="290.576172" xlink:href="#DejaVuSans-48"/>
       <use x="354.199219" xlink:href="#DejaVuSans-57"/>
       <use x="417.822266" xlink:href="#DejaVuSans-45"/>
       <use x="453.90625" xlink:href="#DejaVuSans-50"/>
       <use x="517.529297" xlink:href="#DejaVuSans-49"/>
      </g>
     </g>
    </g>
    <g id="xtick_5">
     <g id="line2d_9">
      <path clip-path="url(#p1fb1e2402b)" d="M 398.015045 313.2 
L 398.015045 28.8 
" style="fill:none;stroke:#808080;stroke-dasharray:6.4,1.6,1,1.6;stroke-dashoffset:0;stroke-opacity:0.3;"/>
     </g>
     <g id="line2d_10">
      <g>
       <use style="stroke:#000000;stroke-width:0.8;" x="398.015045" xlink:href="#m3f912138e8" y="313.2"/>
      </g>
     </g>
     <g id="text_5">
      <!-- 2022-01-01 -->
      <g transform="translate(368.957233 327.798437)scale(0.1 -0.1)">
       <use xlink:href="#DejaVuSans-50"/>
       <use x="63.623047" xlink:href="#DejaVuSans-48"/>
       <use x="127.246094" xlink:href="#DejaVuSans-50"/>
       <use x="190.869141" xlink:href="#DejaVuSans-50"/>
       <use x="254.492188" xlink:href="#DejaVuSans-45"/>
       <use x="290.576172" xlink:href="#DejaVuSans-48"/>
       <use x="354.199219" xlink:href="#DejaVuSans-49"/>
       <use x="417.822266" xlink:href="#DejaVuSans-45"/>
       <use x="453.90625" xlink:href="#DejaVuSans-48"/>
       <use x="517.529297" xlink:href="#DejaVuSans-49"/>
      </g>
     </g>
    </g>
    <g id="xtick_6">
     <g id="line2d_11">
      <path clip-path="url(#p1fb1e2402b)" d="M 474.797909 313.2 
L 474.797909 28.8 
" style="fill:none;stroke:#808080;stroke-dasharray:6.4,1.6,1,1.6;stroke-dashoffset:0;stroke-opacity:0.3;"/>
     </g>
     <g id="line2d_12">
      <g>
       <use style="stroke:#000000;stroke-width:0.8;" x="474.797909" xlink:href="#m3f912138e8" y="313.2"/>
      </g>
     </g>
     <g id="text_6">
      <!-- 2022-04-13 -->
      <g transform="translate(445.740096 327.798437)scale(0.1 -0.1)">
       <defs>
        <path d="M 37.796875 64.3125 
L 12.890625 25.390625 
L 37.796875 25.390625 
z
M 35.203125 72.90625 
L 47.609375 72.90625 
L 47.609375 25.390625 
L 58.015625 25.390625 
L 58.015625 17.1875 
L 47.609375 17.1875 
L 47.609375 0 
L 37.796875 0 
L 37.796875 17.1875 
L 4.890625 17.1875 
L 4.890625 26.703125 
z
" id="DejaVuSans-52"/>
       </defs>
       <use xlink:href="#DejaVuSans-50"/>
       <use x="63.623047" xlink:href="#DejaVuSans-48"/>
       <use x="127.246094" xlink:href="#DejaVuSans-50"/>
       <use x="190.869141" xlink:href="#DejaVuSans-50"/>
       <use x="254.492188" xlink:href="#DejaVuSans-45"/>
       <use x="290.576172" xlink:href="#DejaVuSans-48"/>
       <use x="354.199219" xlink:href="#DejaVuSans-52"/>
       <use x="417.822266" xlink:href="#DejaVuSans-45"/>
       <use x="453.90625" xlink:href="#DejaVuSans-49"/>
       <use x="517.529297" xlink:href="#DejaVuSans-51"/>
      </g>
     </g>
    </g>
    <g id="xtick_7">
     <g id="line2d_13">
      <path clip-path="url(#p1fb1e2402b)" d="M 551.580773 313.2 
L 551.580773 28.8 
" style="fill:none;stroke:#808080;stroke-dasharray:6.4,1.6,1,1.6;stroke-dashoffset:0;stroke-opacity:0.3;"/>
     </g>
     <g id="line2d_14">
      <g>
       <use style="stroke:#000000;stroke-width:0.8;" x="551.580773" xlink:href="#m3f912138e8" y="313.2"/>
      </g>
     </g>
     <g id="text_7">
      <!-- 2022-07-24 -->
      <g transform="translate(522.52296 327.798437)scale(0.1 -0.1)">
       <defs>
        <path d="M 8.203125 72.90625 
L 55.078125 72.90625 
L 55.078125 68.703125 
L 28.609375 0 
L 18.3125 0 
L 43.21875 64.59375 
L 8.203125 64.59375 
z
" id="DejaVuSans-55"/>
       </defs>
       <use xlink:href="#DejaVuSans-50"/>
       <use x="63.623047" xlink:href="#DejaVuSans-48"/>
       <use x="127.246094" xlink:href="#DejaVuSans-50"/>
       <use x="190.869141" xlink:href="#DejaVuSans-50"/>
       <use x="254.492188" xlink:href="#DejaVuSans-45"/>
       <use x="290.576172" xlink:href="#DejaVuSans-48"/>
       <use x="354.199219" xlink:href="#DejaVuSans-55"/>
       <use x="417.822266" xlink:href="#DejaVuSans-45"/>
       <use x="453.90625" xlink:href="#DejaVuSans-50"/>
       <use x="517.529297" xlink:href="#DejaVuSans-52"/>
      </g>
     </g>
    </g>
    <g id="xtick_8">
     <g id="line2d_15">
      <path clip-path="url(#p1fb1e2402b)" d="M 628.363636 313.2 
L 628.363636 28.8 
" style="fill:none;stroke:#808080;stroke-dasharray:6.4,1.6,1,1.6;stroke-dashoffset:0;stroke-opacity:0.3;"/>
     </g>
     <g id="line2d_16">
      <g>
       <use style="stroke:#000000;stroke-width:0.8;" x="628.363636" xlink:href="#m3f912138e8" y="313.2"/>
      </g>
     </g>
     <g id="text_8">
      <!-- 2022-11-03 -->
      <g transform="translate(599.305824 327.798437)scale(0.1 -0.1)">
       <use xlink:href="#DejaVuSans-50"/>
       <use x="63.623047" xlink:href="#DejaVuSans-48"/>
       <use x="127.246094" xlink:href="#DejaVuSans-50"/>
       <use x="190.869141" xlink:href="#DejaVuSans-50"/>
       <use x="254.492188" xlink:href="#DejaVuSans-45"/>
       <use x="290.576172" xlink:href="#DejaVuSans-49"/>
       <use x="354.199219" xlink:href="#DejaVuSans-49"/>
       <use x="417.822266" xlink:href="#DejaVuSans-45"/>
       <use x="453.90625" xlink:href="#DejaVuSans-48"/>
       <use x="517.529297" xlink:href="#DejaVuSans-51"/>
      </g>
     </g>
    </g>
    <g id="text_9">
     <!-- Datum -->
     <g transform="translate(343.086719 341.476562)scale(0.1 -0.1)">
      <defs>
       <path d="M 19.671875 64.796875 
L 19.671875 8.109375 
L 31.59375 8.109375 
Q 46.6875 8.109375 53.6875 14.9375 
Q 60.6875 21.78125 60.6875 36.53125 
Q 60.6875 51.171875 53.6875 57.984375 
Q 46.6875 64.796875 31.59375 64.796875 
z
M 9.8125 72.90625 
L 30.078125 72.90625 
Q 51.265625 72.90625 61.171875 64.09375 
Q 71.09375 55.28125 71.09375 36.53125 
Q 71.09375 17.671875 61.125 8.828125 
Q 51.171875 0 30.078125 0 
L 9.8125 0 
z
" id="DejaVuSans-68"/>
       <path d="M 34.28125 27.484375 
Q 23.390625 27.484375 19.1875 25 
Q 14.984375 22.515625 14.984375 16.5 
Q 14.984375 11.71875 18.140625 8.90625 
Q 21.296875 6.109375 26.703125 6.109375 
Q 34.1875 6.109375 38.703125 11.40625 
Q 43.21875 16.703125 43.21875 25.484375 
L 43.21875 27.484375 
z
M 52.203125 31.203125 
L 52.203125 0 
L 43.21875 0 
L 43.21875 8.296875 
Q 40.140625 3.328125 35.546875 0.953125 
Q 30.953125 -1.421875 24.3125 -1.421875 
Q 15.921875 -1.421875 10.953125 3.296875 
Q 6 8.015625 6 15.921875 
Q 6 25.140625 12.171875 29.828125 
Q 18.359375 34.515625 30.609375 34.515625 
L 43.21875 34.515625 
L 43.21875 35.40625 
Q 43.21875 41.609375 39.140625 45 
Q 35.0625 48.390625 27.6875 48.390625 
Q 23 48.390625 18.546875 47.265625 
Q 14.109375 46.140625 10.015625 43.890625 
L 10.015625 52.203125 
Q 14.9375 54.109375 19.578125 55.046875 
Q 24.21875 56 28.609375 56 
Q 40.484375 56 46.34375 49.84375 
Q 52.203125 43.703125 52.203125 31.203125 
z
" id="DejaVuSans-97"/>
       <path d="M 18.3125 70.21875 
L 18.3125 54.6875 
L 36.8125 54.6875 
L 36.8125 47.703125 
L 18.3125 47.703125 
L 18.3125 18.015625 
Q 18.3125 11.328125 20.140625 9.421875 
Q 21.96875 7.515625 27.59375 7.515625 
L 36.8125 7.515625 
L 36.8125 0 
L 27.59375 0 
Q 17.1875 0 13.234375 3.875 
Q 9.28125 7.765625 9.28125 18.015625 
L 9.28125 47.703125 
L 2.6875 47.703125 
L 2.6875 54.6875 
L 9.28125 54.6875 
L 9.28125 70.21875 
z
" id="DejaVuSans-116"/>
       <path d="M 8.5 21.578125 
L 8.5 54.6875 
L 17.484375 54.6875 
L 17.484375 21.921875 
Q 17.484375 14.15625 20.5 10.265625 
Q 23.53125 6.390625 29.59375 6.390625 
Q 36.859375 6.390625 41.078125 11.03125 
Q 45.3125 15.671875 45.3125 23.6875 
L 45.3125 54.6875 
L 54.296875 54.6875 
L 54.296875 0 
L 45.3125 0 
L 45.3125 8.40625 
Q 42.046875 3.421875 37.71875 1 
Q 33.40625 -1.421875 27.6875 -1.421875 
Q 18.265625 -1.421875 13.375 4.4375 
Q 8.5 10.296875 8.5 21.578125 
z
M 31.109375 56 
z
" id="DejaVuSans-117"/>
       <path d="M 52 44.1875 
Q 55.375 50.25 60.0625 53.125 
Q 64.75 56 71.09375 56 
Q 79.640625 56 84.28125 50.015625 
Q 88.921875 44.046875 88.921875 33.015625 
L 88.921875 0 
L 79.890625 0 
L 79.890625 32.71875 
Q 79.890625 40.578125 77.09375 44.375 
Q 74.3125 48.1875 68.609375 48.1875 
Q 61.625 48.1875 57.5625 43.546875 
Q 53.515625 38.921875 53.515625 30.90625 
L 53.515625 0 
L 44.484375 0 
L 44.484375 32.71875 
Q 44.484375 40.625 41.703125 44.40625 
Q 38.921875 48.1875 33.109375 48.1875 
Q 26.21875 48.1875 22.15625 43.53125 
Q 18.109375 38.875 18.109375 30.90625 
L 18.109375 0 
L 9.078125 0 
L 9.078125 54.6875 
L 18.109375 54.6875 
L 18.109375 46.1875 
Q 21.1875 51.21875 25.484375 53.609375 
Q 29.78125 56 35.6875 56 
Q 41.65625 56 45.828125 52.96875 
Q 50 49.953125 52 44.1875 
z
" id="DejaVuSans-109"/>
      </defs>
      <use xlink:href="#DejaVuSans-68"/>
      <use x="77.001953" xlink:href="#DejaVuSans-97"/>
      <use x="138.28125" xlink:href="#DejaVuSans-116"/>
      <use x="177.490234" xlink:href="#DejaVuSans-117"/>
      <use x="240.869141" xlink:href="#DejaVuSans-109"/>
     </g>
    </g>
   </g>
   <g id="matplotlib.axis_2">
    <g id="ytick_1">
     <g id="line2d_17">
      <path clip-path="url(#p1fb1e2402b)" d="M 64.8 300.272727 
L 655.2 300.272727 
" style="fill:none;stroke:#808080;stroke-dasharray:6.4,1.6,1,1.6;stroke-dashoffset:0;stroke-opacity:0.3;"/>
     </g>
     <g id="line2d_18">
      <defs>
       <path d="M 0 0 
L -3.5 0 
" id="m8ae2fbd3c2" style="stroke:#000000;stroke-width:0.8;"/>
      </defs>
      <g>
       <use style="stroke:#000000;stroke-width:0.8;" x="64.8" xlink:href="#m8ae2fbd3c2" y="300.272727"/>
      </g>
     </g>
     <g id="text_10">
      <!-- 0 -->
      <g transform="translate(51.4375 304.071946)scale(0.1 -0.1)">
       <use xlink:href="#DejaVuSans-48"/>
      </g>
     </g>
    </g>
    <g id="ytick_2">
     <g id="line2d_19">
      <path clip-path="url(#p1fb1e2402b)" d="M 64.8 237.21286 
L 655.2 237.21286 
" style="fill:none;stroke:#808080;stroke-dasharray:6.4,1.6,1,1.6;stroke-dashoffset:0;stroke-opacity:0.3;"/>
     </g>
     <g id="line2d_20">
      <g>
       <use style="stroke:#000000;stroke-width:0.8;" x="64.8" xlink:href="#m8ae2fbd3c2" y="237.21286"/>
      </g>
     </g>
     <g id="text_11">
      <!-- 5 -->
      <g transform="translate(51.4375 241.012079)scale(0.1 -0.1)">
       <defs>
        <path d="M 10.796875 72.90625 
L 49.515625 72.90625 
L 49.515625 64.59375 
L 19.828125 64.59375 
L 19.828125 46.734375 
Q 21.96875 47.46875 24.109375 47.828125 
Q 26.265625 48.1875 28.421875 48.1875 
Q 40.625 48.1875 47.75 41.5 
Q 54.890625 34.8125 54.890625 23.390625 
Q 54.890625 11.625 47.5625 5.09375 
Q 40.234375 -1.421875 26.90625 -1.421875 
Q 22.3125 -1.421875 17.546875 -0.640625 
Q 12.796875 0.140625 7.71875 1.703125 
L 7.71875 11.625 
Q 12.109375 9.234375 16.796875 8.0625 
Q 21.484375 6.890625 26.703125 6.890625 
Q 35.15625 6.890625 40.078125 11.328125 
Q 45.015625 15.765625 45.015625 23.390625 
Q 45.015625 31 40.078125 35.4375 
Q 35.15625 39.890625 26.703125 39.890625 
Q 22.75 39.890625 18.8125 39.015625 
Q 14.890625 38.140625 10.796875 36.28125 
z
" id="DejaVuSans-53"/>
       </defs>
       <use xlink:href="#DejaVuSans-53"/>
      </g>
     </g>
    </g>
    <g id="ytick_3">
     <g id="line2d_21">
      <path clip-path="url(#p1fb1e2402b)" d="M 64.8 174.152993 
L 655.2 174.152993 
" style="fill:none;stroke:#808080;stroke-dasharray:6.4,1.6,1,1.6;stroke-dashoffset:0;stroke-opacity:0.3;"/>
     </g>
     <g id="line2d_22">
      <g>
       <use style="stroke:#000000;stroke-width:0.8;" x="64.8" xlink:href="#m8ae2fbd3c2" y="174.152993"/>
      </g>
     </g>
     <g id="text_12">
      <!-- 10 -->
      <g transform="translate(45.075 177.952212)scale(0.1 -0.1)">
       <use xlink:href="#DejaVuSans-49"/>
       <use x="63.623047" xlink:href="#DejaVuSans-48"/>
      </g>
     </g>
    </g>
    <g id="ytick_4">
     <g id="line2d_23">
      <path clip-path="url(#p1fb1e2402b)" d="M 64.8 111.093126 
L 655.2 111.093126 
" style="fill:none;stroke:#808080;stroke-dasharray:6.4,1.6,1,1.6;stroke-dashoffset:0;stroke-opacity:0.3;"/>
     </g>
     <g id="line2d_24">
      <g>
       <use style="stroke:#000000;stroke-width:0.8;" x="64.8" xlink:href="#m8ae2fbd3c2" y="111.093126"/>
      </g>
     </g>
     <g id="text_13">
      <!-- 15 -->
      <g transform="translate(45.075 114.892345)scale(0.1 -0.1)">
       <use xlink:href="#DejaVuSans-49"/>
       <use x="63.623047" xlink:href="#DejaVuSans-53"/>
      </g>
     </g>
    </g>
    <g id="ytick_5">
     <g id="line2d_25">
      <path clip-path="url(#p1fb1e2402b)" d="M 64.8 48.033259 
L 655.2 48.033259 
" style="fill:none;stroke:#808080;stroke-dasharray:6.4,1.6,1,1.6;stroke-dashoffset:0;stroke-opacity:0.3;"/>
     </g>
     <g id="line2d_26">
      <g>
       <use style="stroke:#000000;stroke-width:0.8;" x="64.8" xlink:href="#m8ae2fbd3c2" y="48.033259"/>
      </g>
     </g>
     <g id="text_14">
      <!-- 20 -->
      <g transform="translate(45.075 51.832478)scale(0.1 -0.1)">
       <use xlink:href="#DejaVuSans-50"/>
       <use x="63.623047" xlink:href="#DejaVuSans-48"/>
      </g>
     </g>
    </g>
   </g>
   <g id="line2d_27">
    <path clip-path="url(#p1fb1e2402b)" d="M 91.636364 280.090993 
L 95.40023 246.739249 
L 97.658549 240.0689 
L 99.164095 228.336238 
L 100.669642 218.748215 
L 101.422415 214.491807 
L 105.186281 197.940369 
L 105.939054 195.418596 
L 106.691827 193.456527 
L 107.4446 192.153662 
L 108.197373 190.387489 
L 108.950147 187.834621 
L 111.208466 178.577756 
L 111.961239 175.639316 
L 112.714012 173.565305 
L 113.466786 172.371272 
L 114.219559 172.293536 
L 115.725105 174.451502 
L 117.983425 178.195293 
L 118.736198 180.275522 
L 120.994517 188.500046 
L 121.747291 189.753159 
L 124.00561 190.676669 
L 124.758383 190.658012 
L 125.511156 190.829032 
L 126.26393 191.279904 
L 127.016703 192.287369 
L 127.769476 194.037996 
L 128.522249 196.189743 
L 130.027795 201.808539 
L 130.780569 205.343996 
L 131.533342 210.987667 
L 133.791661 230.574161 
L 135.297208 242.228421 
L 136.049981 247.07918 
L 136.802754 251.099713 
L 137.555527 254.333552 
L 138.3083 256.503956 
L 139.061074 257.610924 
L 139.813847 257.984059 
L 140.56662 257.411918 
L 141.319393 255.561789 
L 142.824939 250.446726 
L 143.577713 247.312389 
L 145.083259 238.322938 
L 146.588805 227.46781 
L 148.847125 209.76254 
L 149.599898 205.057925 
L 150.352671 201.251945 
L 153.363764 188.509374 
L 154.116537 187.290466 
L 154.86931 187.100789 
L 155.622083 188.667957 
L 156.374857 192.302917 
L 157.12763 197.041735 
L 160.138722 223.83285 
L 163.902588 252.132054 
L 164.655361 257.082315 
L 165.408135 261.199242 
L 166.160908 264.09415 
L 166.913681 266.497763 
L 167.666454 268.046275 
L 169.924774 270.90076 
L 171.43032 272.197405 
L 172.183093 272.505241 
L 172.935866 272.076136 
L 174.441413 270.210459 
L 175.194186 269.035083 
L 176.699732 265.925622 
L 178.958052 260.278841 
L 179.710825 258.873365 
L 180.463598 257.825477 
L 182.721918 256.323607 
L 183.474691 256.808683 
L 184.980237 258.397617 
L 185.73301 258.944883 
L 186.485784 259.678715 
L 187.238557 259.585431 
L 189.496876 256.957937 
L 190.249649 255.285047 
L 191.755196 250.518243 
L 192.507969 247.980923 
L 194.013515 241.025059 
L 195.519062 234.230887 
L 196.271835 231.320432 
L 197.024608 230.020677 
L 197.777381 230.232121 
L 199.282927 230.082866 
L 200.035701 231.049909 
L 200.788474 233.008869 
L 201.541247 235.372059 
L 203.046793 241.674937 
L 205.305113 252.017004 
L 206.057886 255.157559 
L 206.810659 257.237788 
L 208.316206 258.795628 
L 209.068979 259.271376 
L 209.821752 258.854708 
L 210.574525 257.421247 
L 211.327298 255.316142 
L 212.832845 248.947966 
L 216.59671 230.633241 
L 217.349484 228.500151 
L 218.102257 227.088456 
L 218.85503 226.323528 
L 219.607803 226.401265 
L 220.360576 227.474029 
L 221.113349 229.457865 
L 224.124442 241.053045 
L 224.877215 243.2732 
L 225.629989 244.799945 
L 226.382762 245.452932 
L 227.135535 244.722208 
L 227.888308 243.049318 
L 228.641081 240.888243 
L 229.393854 238.095947 
L 230.146628 234.585366 
L 233.910493 213.963421 
L 234.663267 211.967147 
L 235.41604 211.14625 
L 236.168813 211.354584 
L 236.921586 213.447251 
L 238.427132 219.669282 
L 239.932679 226.304871 
L 243.696545 246.084152 
L 244.449318 248.814259 
L 245.202091 250.670607 
L 245.954864 251.9828 
L 246.707637 252.020113 
L 248.965957 251.065509 
L 249.71873 251.208544 
L 250.471503 251.497724 
L 251.97705 250.88205 
L 253.482596 249.967869 
L 254.235369 249.274459 
L 254.988142 248.425576 
L 255.740915 247.753933 
L 256.493689 247.259528 
L 258.752008 248.036894 
L 259.504781 247.502066 
L 260.257555 246.429302 
L 261.010328 245.760768 
L 263.268647 243.235886 
L 264.02142 242.847203 
L 264.774194 243.406906 
L 265.526967 244.59472 
L 266.27974 245.558653 
L 267.785286 246.693607 
L 268.538059 247.53627 
L 269.290833 249.016374 
L 273.807472 260.972251 
L 274.560245 262.12897 
L 275.313018 262.719768 
L 278.324111 265.934951 
L 279.076884 266.423136 
L 279.829657 266.765177 
L 282.84075 268.895157 
L 283.593523 269.361577 
L 285.099069 270.776381 
L 287.357389 273.142681 
L 289.615708 274.482859 
L 290.368481 274.852884 
L 291.874028 275.138955 
L 294.88512 275.390821 
L 295.637894 275.602265 
L 297.14344 275.707986 
L 297.896213 275.524528 
L 298.648986 274.775148 
L 299.40176 273.071163 
L 300.907306 268.702371 
L 303.918399 260.754589 
L 306.929491 250.729687 
L 307.682264 249.20916 
L 308.435038 248.86401 
L 309.187811 250.229064 
L 312.951677 261.653223 
L 316.715543 275.027014 
L 317.468316 276.951771 
L 318.221089 278.068067 
L 318.973862 278.061848 
L 319.726635 277.651399 
L 321.232182 276.382739 
L 323.490501 275.263333 
L 325.748821 274.000892 
L 326.501594 274.293181 
L 327.254367 274.423779 
L 328.00714 274.855994 
L 328.759913 275.913211 
L 329.512686 276.696795 
L 331.018233 277.502145 
L 332.523779 277.900156 
L 333.276552 278.096052 
L 334.029326 277.900156 
L 334.782099 277.582991 
L 335.534872 277.032617 
L 336.287645 276.336097 
L 337.040418 275.804379 
L 337.793191 274.896417 
L 338.545965 273.605991 
L 339.298738 272.794421 
L 340.051511 272.51457 
L 342.30983 270.679988 
L 344.56815 267.84416 
L 345.320923 266.360947 
L 346.073696 264.302484 
L 347.579243 258.21105 
L 348.332016 254.23094 
L 349.837562 244.361511 
L 351.343109 233.357129 
L 355.859748 194.690983 
L 356.612521 189.448431 
L 357.365294 185.18847 
L 358.118067 182.007492 
L 358.87084 179.324027 
L 359.623613 177.361957 
L 360.376387 176.024889 
L 361.12916 175.263071 
L 361.881933 175.427872 
L 362.634706 176.553497 
L 363.387479 179.13124 
L 364.893026 186.911111 
L 366.398572 197.349572 
L 368.656891 212.722746 
L 371.667984 228.904381 
L 372.420757 232.492699 
L 373.173531 235.235243 
L 374.679077 238.988362 
L 375.43185 240.219709 
L 376.184623 240.605282 
L 376.937396 241.121453 
L 377.69017 242.212873 
L 378.442943 243.761385 
L 379.948489 249.199832 
L 380.701262 250.204188 
L 381.454035 250.197969 
L 382.206809 249.532544 
L 383.712355 247.626445 
L 385.217901 245.334772 
L 385.970674 244.436138 
L 386.723448 243.220339 
L 387.476221 241.438618 
L 388.228994 239.23401 
L 388.981767 236.472809 
L 389.73454 234.321062 
L 390.487314 234.224668 
L 391.240087 235.297432 
L 392.745633 239.159383 
L 393.498406 240.244585 
L 394.251179 240.670581 
L 395.003953 240.760755 
L 395.756726 240.574188 
L 396.509499 240.197943 
L 397.262272 239.563613 
L 398.015045 237.666842 
L 398.767818 234.977158 
L 399.520592 231.631378 
L 400.273365 227.508233 
L 409.306643 222.999515 
L 410.812189 213.929217 
L 411.564962 210.172988 
L 413.070509 204.678571 
L 414.576055 200.051693 
L 416.081601 198.139375 
L 416.834375 198.332161 
L 418.339921 200.885029 
L 419.845467 204.031803 
L 420.59824 205.689146 
L 421.351014 207.057309 
L 426.620426 224.106483 
L 427.373199 225.875766 
L 428.878745 229.902518 
L 431.889838 235.891339 
L 433.395384 238.506396 
L 434.148158 239.103413 
L 434.900931 239.451672 
L 435.653704 240.829163 
L 436.406477 241.513245 
L 437.15925 241.650061 
L 437.912023 241.401304 
L 438.664797 241.494588 
L 440.170343 242.184888 
L 440.923116 242.359018 
L 441.675889 241.961007 
L 442.428663 241.360881 
L 443.181436 240.922447 
L 444.686982 241.883271 
L 446.945302 241.970335 
L 447.698075 242.962254 
L 449.203621 246.737139 
L 449.956394 247.996471 
L 452.214714 252.50208 
L 452.967487 254.656936 
L 453.72026 257.240898 
L 455.225806 261.245884 
L 455.97858 263.257705 
L 456.731353 264.890172 
L 457.484126 266.003359 
L 458.236899 266.684331 
L 458.989672 267.184954 
L 460.495219 268.742794 
L 461.247992 269.554363 
L 462.000765 270.008344 
L 462.753538 270.123394 
L 463.506311 269.852871 
L 464.259085 269.971031 
L 465.011858 269.871528 
L 465.764631 269.299387 
L 468.02295 268.24839 
L 468.775724 268.354111 
L 469.528497 268.693042 
L 470.28127 269.159462 
L 471.034043 269.949265 
L 474.797909 275.80127 
L 476.303455 279.541951 
L 477.809002 283.606017 
L 478.561775 285.254031 
L 479.314548 286.609756 
L 480.067321 287.722943 
L 480.820094 288.518965 
L 482.325641 289.507774 
L 484.58396 291.081161 
L 485.336733 291.249072 
L 486.089507 291.183773 
L 487.595053 290.826185 
L 488.347826 290.397079 
L 489.853372 288.323069 
L 491.358919 285.341096 
L 492.864465 281.267702 
L 495.875558 271.211706 
L 498.133877 261.696755 
L 499.639424 258.167517 
L 500.392197 257.244007 
L 501.14497 257.153833 
L 501.897743 257.645128 
L 502.650516 258.761424 
L 504.156063 261.559939 
L 504.908836 262.604718 
L 505.661609 264.013304 
L 506.414382 266.255225 
L 507.919929 272.489694 
L 508.672702 274.93373 
L 509.425475 276.60662 
L 510.178248 277.306249 
L 510.931021 277.471051 
L 511.683794 276.945552 
L 512.436568 275.521419 
L 513.189341 273.761464 
L 513.942114 272.477256 
L 514.694887 271.718548 
L 515.44766 270.754615 
L 516.200434 269.560582 
L 518.458753 264.181215 
L 519.211526 263.655716 
L 519.964299 263.898254 
L 520.717073 263.742781 
L 521.469846 264.255842 
L 522.222619 265.863433 
L 523.728165 269.411328 
L 524.480938 270.555609 
L 525.986485 271.964195 
L 527.492031 273.444299 
L 528.244804 273.888952 
L 528.997577 273.195542 
L 529.750351 272.020166 
L 530.503124 271.267676 
L 531.255897 270.285086 
L 532.761443 267.247143 
L 533.514216 265.679975 
L 534.26699 264.678728 
L 537.278082 263.758328 
L 538.030856 264.025742 
L 538.783629 265.337934 
L 543.300268 278.826775 
L 544.053041 280.683124 
L 547.816907 287.931277 
L 548.56968 288.83613 
L 549.322453 289.175061 
L 550.075226 289.330534 
L 556.850185 294.83739 
L 559.108504 296.050079 
L 559.861278 296.323712 
L 567.389009 296.389011 
L 576.422287 295.748462 
L 579.43338 295.269605 
L 580.186153 294.912017 
L 581.6917 293.180047 
L 583.950019 290.633398 
L 585.455565 288.948071 
L 586.961112 286.339233 
L 588.466658 283.052533 
L 589.219431 281.301906 
L 589.972205 280.082998 
L 590.724978 279.657002 
L 592.983297 279.047547 
L 594.488844 278.388341 
L 595.241617 278.372794 
L 596.747163 279.706753 
L 597.499936 280.680014 
L 599.005483 283.360369 
L 599.758256 284.426915 
L 601.263802 285.667589 
L 603.522122 287.097941 
L 604.274895 287.642097 
L 605.027668 287.965481 
L 605.780441 288.120954 
L 606.533214 288.450557 
L 607.285988 288.581154 
L 608.791534 288.400806 
L 609.544307 288.02767 
L 613.308173 284.793831 
L 616.319266 282.045068 
L 618.577585 280.947428 
L 619.330358 280.888348 
L 620.835905 281.434503 
L 622.341451 282.477727 
L 624.59977 284.412145 
L 628.363636 287.688739 
L 628.363636 287.688739 
" style="fill:none;stroke:#ff0000;stroke-linecap:square;stroke-width:1.5;"/>
   </g>
   <g id="patch_3">
    <path d="M 64.8 313.2 
L 64.8 28.8 
" style="fill:none;stroke:#000000;stroke-linecap:square;stroke-linejoin:miter;stroke-width:0.8;"/>
   </g>
   <g id="patch_4">
    <path d="M 655.2 313.2 
L 655.2 28.8 
" style="fill:none;stroke:#000000;stroke-linecap:square;stroke-linejoin:miter;stroke-width:0.8;"/>
   </g>
   <g id="patch_5">
    <path d="M 64.8 313.2 
L 655.2 313.2 
" style="fill:none;stroke:#000000;stroke-linecap:square;stroke-linejoin:miter;stroke-width:0.8;"/>
   </g>
   <g id="patch_6">
    <path d="M 64.8 28.8 
L 655.2 28.8 
" style="fill:none;stroke:#000000;stroke-linecap:square;stroke-linejoin:miter;stroke-width:0.8;"/>
   </g>
   <g id="text_15">
    <!-- Page hits per uur (gemiddeld ongeveer 1). -->
    <g transform="translate(232.46625 22.8)scale(0.12 -0.12)">
     <defs>
      <path d="M 19.671875 64.796875 
L 19.671875 37.40625 
L 32.078125 37.40625 
Q 38.96875 37.40625 42.71875 40.96875 
Q 46.484375 44.53125 46.484375 51.125 
Q 46.484375 57.671875 42.71875 61.234375 
Q 38.96875 64.796875 32.078125 64.796875 
z
M 9.8125 72.90625 
L 32.078125 72.90625 
Q 44.34375 72.90625 50.609375 67.359375 
Q 56.890625 61.8125 56.890625 51.125 
Q 56.890625 40.328125 50.609375 34.8125 
Q 44.34375 29.296875 32.078125 29.296875 
L 19.671875 29.296875 
L 19.671875 0 
L 9.8125 0 
z
" id="DejaVuSans-80"/>
      <path d="M 45.40625 27.984375 
Q 45.40625 37.75 41.375 43.109375 
Q 37.359375 48.484375 30.078125 48.484375 
Q 22.859375 48.484375 18.828125 43.109375 
Q 14.796875 37.75 14.796875 27.984375 
Q 14.796875 18.265625 18.828125 12.890625 
Q 22.859375 7.515625 30.078125 7.515625 
Q 37.359375 7.515625 41.375 12.890625 
Q 45.40625 18.265625 45.40625 27.984375 
z
M 54.390625 6.78125 
Q 54.390625 -7.171875 48.1875 -13.984375 
Q 42 -20.796875 29.203125 -20.796875 
Q 24.46875 -20.796875 20.265625 -20.09375 
Q 16.0625 -19.390625 12.109375 -17.921875 
L 12.109375 -9.1875 
Q 16.0625 -11.328125 19.921875 -12.34375 
Q 23.78125 -13.375 27.78125 -13.375 
Q 36.625 -13.375 41.015625 -8.765625 
Q 45.40625 -4.15625 45.40625 5.171875 
L 45.40625 9.625 
Q 42.625 4.78125 38.28125 2.390625 
Q 33.9375 0 27.875 0 
Q 17.828125 0 11.671875 7.65625 
Q 5.515625 15.328125 5.515625 27.984375 
Q 5.515625 40.671875 11.671875 48.328125 
Q 17.828125 56 27.875 56 
Q 33.9375 56 38.28125 53.609375 
Q 42.625 51.21875 45.40625 46.390625 
L 45.40625 54.6875 
L 54.390625 54.6875 
z
" id="DejaVuSans-103"/>
      <path d="M 56.203125 29.59375 
L 56.203125 25.203125 
L 14.890625 25.203125 
Q 15.484375 15.921875 20.484375 11.0625 
Q 25.484375 6.203125 34.421875 6.203125 
Q 39.59375 6.203125 44.453125 7.46875 
Q 49.3125 8.734375 54.109375 11.28125 
L 54.109375 2.78125 
Q 49.265625 0.734375 44.1875 -0.34375 
Q 39.109375 -1.421875 33.890625 -1.421875 
Q 20.796875 -1.421875 13.15625 6.1875 
Q 5.515625 13.8125 5.515625 26.8125 
Q 5.515625 40.234375 12.765625 48.109375 
Q 20.015625 56 32.328125 56 
Q 43.359375 56 49.78125 48.890625 
Q 56.203125 41.796875 56.203125 29.59375 
z
M 47.21875 32.234375 
Q 47.125 39.59375 43.09375 43.984375 
Q 39.0625 48.390625 32.421875 48.390625 
Q 24.90625 48.390625 20.390625 44.140625 
Q 15.875 39.890625 15.1875 32.171875 
z
" id="DejaVuSans-101"/>
      <path id="DejaVuSans-32"/>
      <path d="M 54.890625 33.015625 
L 54.890625 0 
L 45.90625 0 
L 45.90625 32.71875 
Q 45.90625 40.484375 42.875 44.328125 
Q 39.84375 48.1875 33.796875 48.1875 
Q 26.515625 48.1875 22.3125 43.546875 
Q 18.109375 38.921875 18.109375 30.90625 
L 18.109375 0 
L 9.078125 0 
L 9.078125 75.984375 
L 18.109375 75.984375 
L 18.109375 46.1875 
Q 21.34375 51.125 25.703125 53.5625 
Q 30.078125 56 35.796875 56 
Q 45.21875 56 50.046875 50.171875 
Q 54.890625 44.34375 54.890625 33.015625 
z
" id="DejaVuSans-104"/>
      <path d="M 9.421875 54.6875 
L 18.40625 54.6875 
L 18.40625 0 
L 9.421875 0 
z
M 9.421875 75.984375 
L 18.40625 75.984375 
L 18.40625 64.59375 
L 9.421875 64.59375 
z
" id="DejaVuSans-105"/>
      <path d="M 44.28125 53.078125 
L 44.28125 44.578125 
Q 40.484375 46.53125 36.375 47.5 
Q 32.28125 48.484375 27.875 48.484375 
Q 21.1875 48.484375 17.84375 46.4375 
Q 14.5 44.390625 14.5 40.28125 
Q 14.5 37.15625 16.890625 35.375 
Q 19.28125 33.59375 26.515625 31.984375 
L 29.59375 31.296875 
Q 39.15625 29.25 43.1875 25.515625 
Q 47.21875 21.78125 47.21875 15.09375 
Q 47.21875 7.46875 41.1875 3.015625 
Q 35.15625 -1.421875 24.609375 -1.421875 
Q 20.21875 -1.421875 15.453125 -0.5625 
Q 10.6875 0.296875 5.421875 2 
L 5.421875 11.28125 
Q 10.40625 8.6875 15.234375 7.390625 
Q 20.0625 6.109375 24.8125 6.109375 
Q 31.15625 6.109375 34.5625 8.28125 
Q 37.984375 10.453125 37.984375 14.40625 
Q 37.984375 18.0625 35.515625 20.015625 
Q 33.0625 21.96875 24.703125 23.78125 
L 21.578125 24.515625 
Q 13.234375 26.265625 9.515625 29.90625 
Q 5.8125 33.546875 5.8125 39.890625 
Q 5.8125 47.609375 11.28125 51.796875 
Q 16.75 56 26.8125 56 
Q 31.78125 56 36.171875 55.265625 
Q 40.578125 54.546875 44.28125 53.078125 
z
" id="DejaVuSans-115"/>
      <path d="M 18.109375 8.203125 
L 18.109375 -20.796875 
L 9.078125 -20.796875 
L 9.078125 54.6875 
L 18.109375 54.6875 
L 18.109375 46.390625 
Q 20.953125 51.265625 25.265625 53.625 
Q 29.59375 56 35.59375 56 
Q 45.5625 56 51.78125 48.09375 
Q 58.015625 40.1875 58.015625 27.296875 
Q 58.015625 14.40625 51.78125 6.484375 
Q 45.5625 -1.421875 35.59375 -1.421875 
Q 29.59375 -1.421875 25.265625 0.953125 
Q 20.953125 3.328125 18.109375 8.203125 
z
M 48.6875 27.296875 
Q 48.6875 37.203125 44.609375 42.84375 
Q 40.53125 48.484375 33.40625 48.484375 
Q 26.265625 48.484375 22.1875 42.84375 
Q 18.109375 37.203125 18.109375 27.296875 
Q 18.109375 17.390625 22.1875 11.75 
Q 26.265625 6.109375 33.40625 6.109375 
Q 40.53125 6.109375 44.609375 11.75 
Q 48.6875 17.390625 48.6875 27.296875 
z
" id="DejaVuSans-112"/>
      <path d="M 41.109375 46.296875 
Q 39.59375 47.171875 37.8125 47.578125 
Q 36.03125 48 33.890625 48 
Q 26.265625 48 22.1875 43.046875 
Q 18.109375 38.09375 18.109375 28.8125 
L 18.109375 0 
L 9.078125 0 
L 9.078125 54.6875 
L 18.109375 54.6875 
L 18.109375 46.1875 
Q 20.953125 51.171875 25.484375 53.578125 
Q 30.03125 56 36.53125 56 
Q 37.453125 56 38.578125 55.875 
Q 39.703125 55.765625 41.0625 55.515625 
z
" id="DejaVuSans-114"/>
      <path d="M 31 75.875 
Q 24.46875 64.65625 21.28125 53.65625 
Q 18.109375 42.671875 18.109375 31.390625 
Q 18.109375 20.125 21.3125 9.0625 
Q 24.515625 -2 31 -13.1875 
L 23.1875 -13.1875 
Q 15.875 -1.703125 12.234375 9.375 
Q 8.59375 20.453125 8.59375 31.390625 
Q 8.59375 42.28125 12.203125 53.3125 
Q 15.828125 64.359375 23.1875 75.875 
z
" id="DejaVuSans-40"/>
      <path d="M 45.40625 46.390625 
L 45.40625 75.984375 
L 54.390625 75.984375 
L 54.390625 0 
L 45.40625 0 
L 45.40625 8.203125 
Q 42.578125 3.328125 38.25 0.953125 
Q 33.9375 -1.421875 27.875 -1.421875 
Q 17.96875 -1.421875 11.734375 6.484375 
Q 5.515625 14.40625 5.515625 27.296875 
Q 5.515625 40.1875 11.734375 48.09375 
Q 17.96875 56 27.875 56 
Q 33.9375 56 38.25 53.625 
Q 42.578125 51.265625 45.40625 46.390625 
z
M 14.796875 27.296875 
Q 14.796875 17.390625 18.875 11.75 
Q 22.953125 6.109375 30.078125 6.109375 
Q 37.203125 6.109375 41.296875 11.75 
Q 45.40625 17.390625 45.40625 27.296875 
Q 45.40625 37.203125 41.296875 42.84375 
Q 37.203125 48.484375 30.078125 48.484375 
Q 22.953125 48.484375 18.875 42.84375 
Q 14.796875 37.203125 14.796875 27.296875 
z
" id="DejaVuSans-100"/>
      <path d="M 9.421875 75.984375 
L 18.40625 75.984375 
L 18.40625 0 
L 9.421875 0 
z
" id="DejaVuSans-108"/>
      <path d="M 30.609375 48.390625 
Q 23.390625 48.390625 19.1875 42.75 
Q 14.984375 37.109375 14.984375 27.296875 
Q 14.984375 17.484375 19.15625 11.84375 
Q 23.34375 6.203125 30.609375 6.203125 
Q 37.796875 6.203125 41.984375 11.859375 
Q 46.1875 17.53125 46.1875 27.296875 
Q 46.1875 37.015625 41.984375 42.703125 
Q 37.796875 48.390625 30.609375 48.390625 
z
M 30.609375 56 
Q 42.328125 56 49.015625 48.375 
Q 55.71875 40.765625 55.71875 27.296875 
Q 55.71875 13.875 49.015625 6.21875 
Q 42.328125 -1.421875 30.609375 -1.421875 
Q 18.84375 -1.421875 12.171875 6.21875 
Q 5.515625 13.875 5.515625 27.296875 
Q 5.515625 40.765625 12.171875 48.375 
Q 18.84375 56 30.609375 56 
z
" id="DejaVuSans-111"/>
      <path d="M 54.890625 33.015625 
L 54.890625 0 
L 45.90625 0 
L 45.90625 32.71875 
Q 45.90625 40.484375 42.875 44.328125 
Q 39.84375 48.1875 33.796875 48.1875 
Q 26.515625 48.1875 22.3125 43.546875 
Q 18.109375 38.921875 18.109375 30.90625 
L 18.109375 0 
L 9.078125 0 
L 9.078125 54.6875 
L 18.109375 54.6875 
L 18.109375 46.1875 
Q 21.34375 51.125 25.703125 53.5625 
Q 30.078125 56 35.796875 56 
Q 45.21875 56 50.046875 50.171875 
Q 54.890625 44.34375 54.890625 33.015625 
z
" id="DejaVuSans-110"/>
      <path d="M 2.984375 54.6875 
L 12.5 54.6875 
L 29.59375 8.796875 
L 46.6875 54.6875 
L 56.203125 54.6875 
L 35.6875 0 
L 23.484375 0 
z
" id="DejaVuSans-118"/>
      <path d="M 8.015625 75.875 
L 15.828125 75.875 
Q 23.140625 64.359375 26.78125 53.3125 
Q 30.421875 42.28125 30.421875 31.390625 
Q 30.421875 20.453125 26.78125 9.375 
Q 23.140625 -1.703125 15.828125 -13.1875 
L 8.015625 -13.1875 
Q 14.5 -2 17.703125 9.0625 
Q 20.90625 20.125 20.90625 31.390625 
Q 20.90625 42.671875 17.703125 53.65625 
Q 14.5 64.65625 8.015625 75.875 
z
" id="DejaVuSans-41"/>
      <path d="M 10.6875 12.40625 
L 21 12.40625 
L 21 0 
L 10.6875 0 
z
" id="DejaVuSans-46"/>
     </defs>
     <use xlink:href="#DejaVuSans-80"/>
     <use x="55.802734" xlink:href="#DejaVuSans-97"/>
     <use x="117.082031" xlink:href="#DejaVuSans-103"/>
     <use x="180.558594" xlink:href="#DejaVuSans-101"/>
     <use x="242.082031" xlink:href="#DejaVuSans-32"/>
     <use x="273.869141" xlink:href="#DejaVuSans-104"/>
     <use x="337.248047" xlink:href="#DejaVuSans-105"/>
     <use x="365.03125" xlink:href="#DejaVuSans-116"/>
     <use x="404.240234" xlink:href="#DejaVuSans-115"/>
     <use x="456.339844" xlink:href="#DejaVuSans-32"/>
     <use x="488.126953" xlink:href="#DejaVuSans-112"/>
     <use x="551.603516" xlink:href="#DejaVuSans-101"/>
     <use x="613.126953" xlink:href="#DejaVuSans-114"/>
     <use x="654.240234" xlink:href="#DejaVuSans-32"/>
     <use x="686.027344" xlink:href="#DejaVuSans-117"/>
     <use x="749.40625" xlink:href="#DejaVuSans-117"/>
     <use x="812.785156" xlink:href="#DejaVuSans-114"/>
     <use x="853.898438" xlink:href="#DejaVuSans-32"/>
     <use x="885.685547" xlink:href="#DejaVuSans-40"/>
     <use x="924.699219" xlink:href="#DejaVuSans-103"/>
     <use x="988.175781" xlink:href="#DejaVuSans-101"/>
     <use x="1049.699219" xlink:href="#DejaVuSans-109"/>
     <use x="1147.111328" xlink:href="#DejaVuSans-105"/>
     <use x="1174.894531" xlink:href="#DejaVuSans-100"/>
     <use x="1238.371094" xlink:href="#DejaVuSans-100"/>
     <use x="1301.847656" xlink:href="#DejaVuSans-101"/>
     <use x="1363.371094" xlink:href="#DejaVuSans-108"/>
     <use x="1391.154297" xlink:href="#DejaVuSans-100"/>
     <use x="1454.630859" xlink:href="#DejaVuSans-32"/>
     <use x="1486.417969" xlink:href="#DejaVuSans-111"/>
     <use x="1547.599609" xlink:href="#DejaVuSans-110"/>
     <use x="1610.978516" xlink:href="#DejaVuSans-103"/>
     <use x="1674.455078" xlink:href="#DejaVuSans-101"/>
     <use x="1735.978516" xlink:href="#DejaVuSans-118"/>
     <use x="1795.158203" xlink:href="#DejaVuSans-101"/>
     <use x="1856.681641" xlink:href="#DejaVuSans-101"/>
     <use x="1918.205078" xlink:href="#DejaVuSans-114"/>
     <use x="1959.318359" xlink:href="#DejaVuSans-32"/>
     <use x="1991.105469" xlink:href="#DejaVuSans-49"/>
     <use x="2054.728516" xlink:href="#DejaVuSans-41"/>
     <use x="2093.742188" xlink:href="#DejaVuSans-46"/>
    </g>
   </g>
  </g>
  <g id="text_16">
   <!-- Gegenereerd op 2022-11-03 23:45. -->
   <g style="fill:#808080;" transform="translate(7.2 356.4)scale(0.08 -0.08)">
    <defs>
     <path d="M 59.515625 10.40625 
L 59.515625 29.984375 
L 43.40625 29.984375 
L 43.40625 38.09375 
L 69.28125 38.09375 
L 69.28125 6.78125 
Q 63.578125 2.734375 56.6875 0.65625 
Q 49.8125 -1.421875 42 -1.421875 
Q 24.90625 -1.421875 15.25 8.5625 
Q 5.609375 18.5625 5.609375 36.375 
Q 5.609375 54.25 15.25 64.234375 
Q 24.90625 74.21875 42 74.21875 
Q 49.125 74.21875 55.546875 72.453125 
Q 61.96875 70.703125 67.390625 67.28125 
L 67.390625 56.78125 
Q 61.921875 61.421875 55.765625 63.765625 
Q 49.609375 66.109375 42.828125 66.109375 
Q 29.4375 66.109375 22.71875 58.640625 
Q 16.015625 51.171875 16.015625 36.375 
Q 16.015625 21.625 22.71875 14.15625 
Q 29.4375 6.6875 42.828125 6.6875 
Q 48.046875 6.6875 52.140625 7.59375 
Q 56.25 8.5 59.515625 10.40625 
z
" id="DejaVuSans-71"/>
     <path d="M 11.71875 12.40625 
L 22.015625 12.40625 
L 22.015625 0 
L 11.71875 0 
z
M 11.71875 51.703125 
L 22.015625 51.703125 
L 22.015625 39.3125 
L 11.71875 39.3125 
z
" id="DejaVuSans-58"/>
    </defs>
    <use xlink:href="#DejaVuSans-71"/>
    <use x="77.490234" xlink:href="#DejaVuSans-101"/>
    <use x="139.013672" xlink:href="#DejaVuSans-103"/>
    <use x="202.490234" xlink:href="#DejaVuSans-101"/>
    <use x="264.013672" xlink:href="#DejaVuSans-110"/>
    <use x="327.392578" xlink:href="#DejaVuSans-101"/>
    <use x="388.916016" xlink:href="#DejaVuSans-114"/>
    <use x="427.779297" xlink:href="#DejaVuSans-101"/>
    <use x="489.302734" xlink:href="#DejaVuSans-101"/>
    <use x="550.826172" xlink:href="#DejaVuSans-114"/>
    <use x="590.189453" xlink:href="#DejaVuSans-100"/>
    <use x="653.666016" xlink:href="#DejaVuSans-32"/>
    <use x="685.453125" xlink:href="#DejaVuSans-111"/>
    <use x="746.634766" xlink:href="#DejaVuSans-112"/>
    <use x="810.111328" xlink:href="#DejaVuSans-32"/>
    <use x="841.898438" xlink:href="#DejaVuSans-50"/>
    <use x="905.521484" xlink:href="#DejaVuSans-48"/>
    <use x="969.144531" xlink:href="#DejaVuSans-50"/>
    <use x="1032.767578" xlink:href="#DejaVuSans-50"/>
    <use x="1096.390625" xlink:href="#DejaVuSans-45"/>
    <use x="1132.474609" xlink:href="#DejaVuSans-49"/>
    <use x="1196.097656" xlink:href="#DejaVuSans-49"/>
    <use x="1259.720703" xlink:href="#DejaVuSans-45"/>
    <use x="1295.804688" xlink:href="#DejaVuSans-48"/>
    <use x="1359.427734" xlink:href="#DejaVuSans-51"/>
    <use x="1423.050781" xlink:href="#DejaVuSans-32"/>
    <use x="1454.837891" xlink:href="#DejaVuSans-50"/>
    <use x="1518.460938" xlink:href="#DejaVuSans-51"/>
    <use x="1582.083984" xlink:href="#DejaVuSans-58"/>
    <use x="1615.775391" xlink:href="#DejaVuSans-52"/>
    <use x="1679.398438" xlink:href="#DejaVuSans-53"/>
    <use x="1743.021484" xlink:href="#DejaVuSans-46"/>
   </g>
  </g>
  <g id="text_17">
   <!-- https://realrolfje.github.io/coronadata/ -->
   <g style="fill:#808080;" transform="translate(560.24375 356.4)scale(0.08 -0.08)">
    <defs>
     <path d="M 25.390625 72.90625 
L 33.6875 72.90625 
L 8.296875 -9.28125 
L 0 -9.28125 
z
" id="DejaVuSans-47"/>
     <path d="M 37.109375 75.984375 
L 37.109375 68.5 
L 28.515625 68.5 
Q 23.6875 68.5 21.796875 66.546875 
Q 19.921875 64.59375 19.921875 59.515625 
L 19.921875 54.6875 
L 34.71875 54.6875 
L 34.71875 47.703125 
L 19.921875 47.703125 
L 19.921875 0 
L 10.890625 0 
L 10.890625 47.703125 
L 2.296875 47.703125 
L 2.296875 54.6875 
L 10.890625 54.6875 
L 10.890625 58.5 
Q 10.890625 67.625 15.140625 71.796875 
Q 19.390625 75.984375 28.609375 75.984375 
z
" id="DejaVuSans-102"/>
     <path d="M 9.421875 54.6875 
L 18.40625 54.6875 
L 18.40625 -0.984375 
Q 18.40625 -11.421875 14.421875 -16.109375 
Q 10.453125 -20.796875 1.609375 -20.796875 
L -1.8125 -20.796875 
L -1.8125 -13.1875 
L 0.59375 -13.1875 
Q 5.71875 -13.1875 7.5625 -10.8125 
Q 9.421875 -8.453125 9.421875 -0.984375 
z
M 9.421875 75.984375 
L 18.40625 75.984375 
L 18.40625 64.59375 
L 9.421875 64.59375 
z
" id="DejaVuSans-106"/>
     <path d="M 48.6875 27.296875 
Q 48.6875 37.203125 44.609375 42.84375 
Q 40.53125 48.484375 33.40625 48.484375 
Q 26.265625 48.484375 22.1875 42.84375 
Q 18.109375 37.203125 18.109375 27.296875 
Q 18.109375 17.390625 22.1875 11.75 
Q 26.265625 6.109375 33.40625 6.109375 
Q 40.53125 6.109375 44.609375 11.75 
Q 48.6875 17.390625 48.6875 27.296875 
z
M 18.109375 46.390625 
Q 20.953125 51.265625 25.265625 53.625 
Q 29.59375 56 35.59375 56 
Q 45.5625 56 51.78125 48.09375 
Q 58.015625 40.1875 58.015625 27.296875 
Q 58.015625 14.40625 51.78125 6.484375 
Q 45.5625 -1.421875 35.59375 -1.421875 
Q 29.59375 -1.421875 25.265625 0.953125 
Q 20.953125 3.328125 18.109375 8.203125 
L 18.109375 0 
L 9.078125 0 
L 9.078125 75.984375 
L 18.109375 75.984375 
z
" id="DejaVuSans-98"/>
     <path d="M 48.78125 52.59375 
L 48.78125 44.1875 
Q 44.96875 46.296875 41.140625 47.34375 
Q 37.3125 48.390625 33.40625 48.390625 
Q 24.65625 48.390625 19.8125 42.84375 
Q 14.984375 37.3125 14.984375 27.296875 
Q 14.984375 17.28125 19.8125 11.734375 
Q 24.65625 6.203125 33.40625 6.203125 
Q 37.3125 6.203125 41.140625 7.25 
Q 44.96875 8.296875 48.78125 10.40625 
L 48.78125 2.09375 
Q 45.015625 0.34375 40.984375 -0.53125 
Q 36.96875 -1.421875 32.421875 -1.421875 
Q 20.0625 -1.421875 12.78125 6.34375 
Q 5.515625 14.109375 5.515625 27.296875 
Q 5.515625 40.671875 12.859375 48.328125 
Q 20.21875 56 33.015625 56 
Q 37.15625 56 41.109375 55.140625 
Q 45.0625 54.296875 48.78125 52.59375 
z
" id="DejaVuSans-99"/>
    </defs>
    <use xlink:href="#DejaVuSans-104"/>
    <use x="63.378906" xlink:href="#DejaVuSans-116"/>
    <use x="102.587891" xlink:href="#DejaVuSans-116"/>
    <use x="141.796875" xlink:href="#DejaVuSans-112"/>
    <use x="205.273438" xlink:href="#DejaVuSans-115"/>
    <use x="257.373047" xlink:href="#DejaVuSans-58"/>
    <use x="291.064453" xlink:href="#DejaVuSans-47"/>
    <use x="324.755859" xlink:href="#DejaVuSans-47"/>
    <use x="358.447266" xlink:href="#DejaVuSans-114"/>
    <use x="397.310547" xlink:href="#DejaVuSans-101"/>
    <use x="458.833984" xlink:href="#DejaVuSans-97"/>
    <use x="520.113281" xlink:href="#DejaVuSans-108"/>
    <use x="547.896484" xlink:href="#DejaVuSans-114"/>
    <use x="586.759766" xlink:href="#DejaVuSans-111"/>
    <use x="647.941406" xlink:href="#DejaVuSans-108"/>
    <use x="675.724609" xlink:href="#DejaVuSans-102"/>
    <use x="710.929688" xlink:href="#DejaVuSans-106"/>
    <use x="738.712891" xlink:href="#DejaVuSans-101"/>
    <use x="800.236328" xlink:href="#DejaVuSans-46"/>
    <use x="832.023438" xlink:href="#DejaVuSans-103"/>
    <use x="895.5" xlink:href="#DejaVuSans-105"/>
    <use x="923.283203" xlink:href="#DejaVuSans-116"/>
    <use x="962.492188" xlink:href="#DejaVuSans-104"/>
    <use x="1025.871094" xlink:href="#DejaVuSans-117"/>
    <use x="1089.25" xlink:href="#DejaVuSans-98"/>
    <use x="1152.726562" xlink:href="#DejaVuSans-46"/>
    <use x="1184.513672" xlink:href="#DejaVuSans-105"/>
    <use x="1212.296875" xlink:href="#DejaVuSans-111"/>
    <use x="1273.478516" xlink:href="#DejaVuSans-47"/>
    <use x="1307.169922" xlink:href="#DejaVuSans-99"/>
    <use x="1362.150391" xlink:href="#DejaVuSans-111"/>
    <use x="1423.332031" xlink:href="#DejaVuSans-114"/>
    <use x="1462.195312" xlink:href="#DejaVuSans-111"/>
    <use x="1523.376953" xlink:href="#DejaVuSans-110"/>
    <use x="1586.755859" xlink:href="#DejaVuSans-97"/>
    <use x="1648.035156" xlink:href="#DejaVuSans-100"/>
    <use x="1711.511719" xlink:href="#DejaVuSans-97"/>
    <use x="1772.791016" xlink:href="#DejaVuSans-116"/>
    <use x="1812" xlink:href="#DejaVuSans-97"/>
    <use x="1873.279297" xlink:href="#DejaVuSans-47"/>
   </g>
  </g>
 </g>
 <defs>
  <clipPath id="p1fb1e2402b">
   <rect height="284.4" width="590.4" x="64.8" y="28.8"/>
  </clipPath>
 </defs>
</svg>
