<?xml version="1.0" encoding="utf-8" standalone="no"?>
<!DOCTYPE svg PUBLIC "-//W3C//DTD SVG 1.1//EN"
  "http://www.w3.org/Graphics/SVG/1.1/DTD/svg11.dtd">
<!-- Created with matplotlib (https://matplotlib.org/) -->
<svg height="360pt" version="1.1" viewBox="0 0 720 360" width="720pt" xmlns="http://www.w3.org/2000/svg" xmlns:xlink="http://www.w3.org/1999/xlink">
 <metadata>
  <rdf:RDF xmlns:cc="http://creativecommons.org/ns#" xmlns:dc="http://purl.org/dc/elements/1.1/" xmlns:rdf="http://www.w3.org/1999/02/22-rdf-syntax-ns#">
   <cc:Work>
    <dc:type rdf:resource="http://purl.org/dc/dcmitype/StillImage"/>
    <dc:date>2021-06-16T11:35:37.114977</dc:date>
    <dc:format>image/svg+xml</dc:format>
    <dc:creator>
     <cc:Agent>
      <dc:title>Matplotlib v3.3.2, https://matplotlib.org/</dc:title>
     </cc:Agent>
    </dc:creator>
   </cc:Work>
  </rdf:RDF>
 </metadata>
 <defs>
  <style type="text/css">*{stroke-linecap:butt;stroke-linejoin:round;}</style>
 </defs>
 <g id="figure_1">
  <g id="patch_1">
   <path d="M 0 360 
L 720 360 
L 720 0 
L 0 0 
z
" style="fill:#ffffff;"/>
  </g>
  <g id="axes_1">
   <g id="patch_2">
    <path d="M 64.8 313.2 
L 655.2 313.2 
L 655.2 28.8 
L 64.8 28.8 
z
" style="fill:#ffffff;"/>
   </g>
   <g id="PolyCollection_1">
    <path clip-path="url(#p2907e35e72)" d="M 91.636364 313.2 
L 91.636364 313.2 
L 93.157013 313.2 
L 93.804988 313.2 
L 94.453083 313.2 
L 95.745162 313.2 
L 96.394547 313.2 
L 96.82883 313.2 
L 98.34351 313.2 
L 98.988245 313.2 
L 99.63634 313.2 
L 100.932199 313.2 
L 101.580174 313.2 
L 102.227998 313.2 
L 103.523858 313.2 
L 104.172282 313.2 
L 111.299043 313.2 
L 111.946898 313.2 
L 112.594873 313.2 
L 113.890702 313.2 
L 114.539246 313.2 
L 115.186591 313.2 
L 116.48269 313.2 
L 117.130425 313.2 
L 117.746574 313.2 
L 119.074229 313.2 
L 119.722144 313.2 
L 120.307457 313.2 
L 121.664688 313.2 
L 122.312692 313.2 
L 122.961417 313.2 
L 124.256406 313.2 
L 124.904861 313.2 
L 125.552266 313.2 
L 126.850525 313.2 
L 127.498559 313.2 
L 128.118548 313.2 
L 129.442003 313.2 
L 130.089918 313.2 
L 130.737773 313.2 
L 132.031562 313.2 
L 132.679687 313.2 
L 133.211517 313.2 
L 134.623551 313.2 
L 135.271345 313.2 
L 135.91935 313.2 
L 137.217639 313.2 
L 137.824639 313.2 
L 138.468834 313.2 
L 139.809237 313.2 
L 140.458502 313.2 
L 140.959436 313.2 
L 142.398466 313.2 
L 143.047311 313.2 
L 143.696785 313.2 
L 144.913515 313.2 
L 145.63837 313.2 
L 146.286104 313.2 
L 147.582053 313.2 
L 148.231498 313.2 
L 148.879413 313.2 
L 150.173832 313.2 
L 150.822197 313.2 
L 151.469661 313.2 
L 153.190865 313.2 
L 153.939746 313.2 
L 155.358199 313.2 
L 155.827187 313.2 
L 156.452665 313.2 
L 157.948988 313.2 
L 158.596902 313.2 
L 159.244877 313.2 
L 160.540766 313.2 
L 161.186041 313.2 
L 161.834046 313.2 
L 163.130085 313.2 
L 163.77785 313.2 
L 164.425765 313.2 
L 165.721714 313.2 
L 166.369598 313.2 
L 167.017483 313.2 
L 168.314182 313.2 
L 168.961347 313.2 
L 169.611661 313.2 
L 170.905181 313.2 
L 171.373269 313.2 
L 172.2011 313.2 
L 173.496989 313.2 
L 174.145144 313.2 
L 174.792909 313.2 
L 176.088888 313.2 
L 176.737073 313.2 
L 177.384537 313.2 
L 178.681447 313.2 
L 179.328431 313.2 
L 179.926193 313.2 
L 181.272355 313.2 
L 181.92027 313.2 
L 182.568154 313.2 
L 183.864014 313.2 
L 184.514508 313.2 
L 185.160563 313.2 
L 186.455852 313.2 
L 187.104007 313.2 
L 187.751772 313.2 
L 189.047481 313.2 
L 189.695426 313.2 
L 190.34355 313.2 
L 191.639379 313.2 
L 192.124536 313.2 
L 192.935029 313.2 
L 194.232418 313.2 
L 194.878833 313.2 
L 195.43193 313.2 
L 196.822697 313.2 
L 197.470731 313.2 
L 198.118586 313.2 
L 199.417925 313.2 
L 200.083087 313.2 
L 200.714444 313.2 
L 202.006344 313.2 
L 202.654168 313.2 
L 203.302293 313.2 
L 204.598212 313.2 
L 205.246397 313.2 
L 205.896741 313.2 
L 207.189691 313.2 
L 207.837666 313.2 
L 208.340309 313.2 
L 209.481089 313.2 
L 210.429414 313.2 
L 211.077509 313.2 
L 212.378857 313.2 
L 213.023682 313.2 
L 213.672557 313.2 
L 214.964937 313.2 
L 215.612731 313.2 
L 216.260916 313.2 
L 217.556745 313.2 
L 218.20445 313.2 
L 218.852364 313.2 
L 220.151673 313.2 
L 220.796288 313.2 
L 221.444293 313.2 
L 222.740122 313.2 
L 223.388067 313.2 
L 223.968131 313.2 
L 225.33577 313.2 
L 225.983565 313.2 
L 226.63163 313.2 
L 227.927309 313.2 
L 228.574984 313.2 
L 229.223378 313.2 
L 230.515128 313.2 
L 231.163163 313.2 
L 231.810867 313.2 
L 233.112456 313.2 
L 233.758391 313.2 
L 234.194323 313.2 
L 235.699495 313.2 
L 236.3469 313.2 
L 236.994364 313.2 
L 238.290374 313.2 
L 238.938168 313.2 
L 239.586263 313.2 
L 240.881942 313.2 
L 241.529857 313.2 
L 242.182331 313.2 
L 243.47732 313.2 
L 244.125385 313.2 
L 244.77354 313.2 
L 246.066129 313.2 
L 246.713834 313.2 
L 247.361509 313.2 
L 248.428258 313.2 
L 249.305073 313.2 
L 249.952927 313.2 
L 251.249507 313.2 
L 251.897331 313.2 
L 252.544586 313.2 
L 253.841645 313.2 
L 254.48833 313.2 
L 255.136365 313.2 
L 256.432134 313.2 
L 257.080078 313.2 
L 257.727993 313.2 
L 259.023882 313.2 
L 259.671827 313.2 
L 260.319622 313.2 
L 261.615541 313.2 
L 262.263606 313.2 
L 262.9123 313.2 
L 264.207829 313.2 
L 264.855114 313.2 
L 265.503269 313.2 
L 266.798978 313.2 
L 267.446893 313.2 
L 268.094807 313.2 
L 269.390757 313.2 
L 270.039271 313.2 
L 270.686436 313.2 
L 271.983675 313.2 
L 272.62784 313.2 
L 273.208474 313.2 
L 274.571584 313.2 
L 275.219499 313.2 
L 275.867503 313.2 
L 277.163273 313.2 
L 277.810917 313.2 
L 278.459072 313.2 
L 279.756131 313.2 
L 280.402636 313.2 
L 281.050461 313.2 
L 282.34692 313.2 
L 282.994295 313.2 
L 283.642239 313.2 
L 284.940318 313.2 
L 285.586373 313.2 
L 286.233868 313.2 
L 287.530867 313.2 
L 288.177642 313.2 
L 288.825616 313.2 
L 290.121896 313.2 
L 290.76936 313.2 
L 291.419945 313.2 
L 292.715594 313.2 
L 293.363449 313.2 
L 294.011663 313.2 
L 295.307792 313.2 
L 295.955377 313.2 
L 296.603172 313.2 
L 297.900201 313.2 
L 298.547066 313.2 
L 299.19495 313.2 
L 300.49072 313.2 
L 301.138544 313.2 
L 301.786609 313.2 
L 303.082708 313.2 
L 303.730143 313.2 
L 304.378177 313.2 
L 305.674307 313.2 
L 306.321981 313.2 
L 306.970046 313.2 
L 308.263986 313.2 
L 308.91367 313.2 
L 309.561615 313.2 
L 310.857444 313.2 
L 311.312094 313.2 
L 312.153243 313.2 
L 313.449193 313.2 
L 314.097287 313.2 
L 314.745022 313.2 
L 316.041001 313.2 
L 316.688886 313.2 
L 317.33731 313.2 
L 318.63281 313.2 
L 319.280454 313.2 
L 319.928339 313.2 
L 321.224258 313.2 
L 321.790974 313.2 
L 322.520267 313.2 
L 323.813817 313.2 
L 324.461312 313.2 
L 325.109346 313.2 
L 326.409795 313.2 
L 327.05735 313.2 
L 327.705414 313.2 
L 328.999084 313.2 
L 329.644689 313.2 
L 330.292784 313.2 
L 331.588493 313.2 
L 332.236438 313.2 
L 332.885102 313.2 
L 334.182731 313.2 
L 334.828156 313.2 
L 335.47865 313.2 
L 336.781859 313.2 
L 337.424464 313.2 
L 338.075468 313.2 
L 339.367698 313.2 
L 340.014053 313.2 
L 340.661908 313.2 
L 341.964606 313.2 
L 342.610361 313.2 
L 343.258396 313.2 
L 344.550835 313.2 
L 345.19764 313.2 
L 345.846035 313.2 
L 347.142314 313.2 
L 347.789239 313.2 
L 348.437273 313.2 
L 349.733133 313.2 
L 350.380987 313.2 
L 351.028812 313.2 
L 352.325961 313.2 
L 352.972706 313.2 
L 353.537891 313.2 
L 354.923799 313.2 
L 355.569404 313.2 
L 356.217378 313.2 
L 357.511378 313.2 
L 358.156203 313.2 
L 358.70696 313.2 
L 360.102167 313.2 
L 360.745042 313.2 
L 361.395866 313.2 
L 362.696075 313.2 
L 363.34135 313.2 
L 363.989144 313.2 
L 365.280444 313.2 
L 365.928299 313.2 
L 366.576154 313.2 
L 367.873543 313.2 
L 368.520168 313.2 
L 369.170032 313.2 
L 370.466641 313.2 
L 371.111586 313.2 
L 371.759591 313.2 
L 373.06001 313.2 
L 373.703395 313.2 
L 374.137078 313.2 
L 375.652238 313.2 
L 376.297663 313.2 
L 376.945728 313.2 
L 378.244137 313.2 
L 378.889622 313.2 
L 379.537416 313.2 
L 380.835915 313.2 
L 381.48158 313.2 
L 382.129285 313.2 
L 383.424994 313.2 
L 384.072999 313.2 
L 384.720823 313.2 
L 386.022442 313.2 
L 386.665467 313.2 
L 387.231163 313.2 
L 388.610651 313.2 
L 389.257726 313.2 
L 389.90462 313.2 
L 391.848244 313.2 
L 392.495979 313.2 
L 393.799637 313.2 
L 394.439873 313.2 
L 395.087938 313.2 
L 396.385687 313.2 
L 397.034591 313.2 
L 401.566964 313.2 
L 402.215119 313.2 
L 402.862943 313.2 
L 404.159073 313.2 
L 404.806747 313.2 
L 405.454602 313.2 
L 407.408215 313.2 
L 408.04647 313.2 
L 409.990184 313.2 
L 410.638129 313.2 
L 412.584663 313.2 
L 413.229728 313.2 
L 415.175511 313.2 
L 415.825496 313.2 
L 417.76687 313.2 
L 418.414215 313.2 
L 419.712534 313.2 
L 420.322683 313.2 
L 420.994505 313.2 
L 422.265587 313.2 
L 422.738085 313.2 
L 423.593122 313.2 
L 424.896421 313.2 
L 425.438239 313.2 
L 426.160994 313.2 
L 427.93754 313.2 
L 428.596643 313.2 
L 430.094736 313.2 
L 430.531268 313.2 
L 431.35733 313.2 
L 432.683665 313.2 
L 433.32696 313.2 
L 433.974395 313.2 
L 435.270884 313.2 
L 435.709396 313.2 
L 436.569503 313.2 
L 437.865332 313.2 
L 438.301055 313.2 
L 439.161401 313.2 
L 440.456991 313.2 
L 440.893463 313.2 
L 441.75297 313.2 
L 443.013884 313.2 
L 443.485782 313.2 
L 444.344689 313.2 
L 445.641058 313.2 
L 446.076211 313.2 
L 446.936107 313.2 
L 448.233406 313.2 
L 448.673808 313.2 
L 449.474553 313.2 
L 450.825605 313.2 
L 451.261867 313.2 
L 452.008679 313.2 
L 453.417323 313.2 
L 453.852806 313.2 
L 454.711263 313.2 
L 456.008112 313.2 
L 456.443595 313.2 
L 457.303161 313.2 
L 458.502104 313.2 
L 458.974631 313.2 
L 459.89533 313.2 
L 461.192359 313.2 
L 461.626702 313.2 
L 462.486449 313.2 
L 463.784048 313.2 
L 464.21848 313.2 
L 465.078257 313.2 
L 466.375316 313.2 
L 466.810409 313.2 
L 467.669826 313.2 
L 469.401678 313.2 
L 470.261664 313.2 
L 471.424581 313.2 
L 471.993636 313.2 
L 472.856982 313.2 
L 474.149122 313.2 
L 474.585385 313.2 
L 475.444982 313.2 
L 476.740751 313.2 
L 477.183133 313.2 
L 478.03655 313.2 
L 479.334509 313.2 
L 479.768912 313.2 
L 480.628359 313.2 
L 481.569125 313.2 
L 482.36198 313.2 
L 483.219987 313.2 
L 484.517406 313.2 
L 484.952589 313.2 
L 485.688122 313.2 
L 487.108435 313.2 
L 487.543978 313.2 
L 488.403454 313.2 
L 489.701413 313.2 
L 490.135576 313.2 
L 490.995143 313.2 
L 492.030847 313.2 
L 492.727475 313.2 
L 493.586832 313.2 
L 495.318923 313.2 
L 496.17846 313.2 
L 497.476029 313.2 
L 497.910762 313.2 
L 498.770839 313.2 
L 500.50263 313.2 
L 501.362257 313.2 
L 502.659436 313.2 
L 503.094469 313.2 
L 503.953976 313.2 
L 505.251155 313.2 
L 505.687477 313.2 
L 506.167534 313.2 
L 508.278026 313.2 
L 509.137023 313.2 
L 510.432972 313.2 
L 510.869325 313.2 
L 511.728832 313.2 
L 513.024631 313.2 
L 513.461073 313.2 
L 514.333958 313.2 
L 515.616439 313.2 
L 516.052732 313.2 
L 516.90426 313.2 
L 518.207978 313.2 
L 518.867591 313.2 
L 519.504107 313.2 
L 520.574006 313.2 
L 521.452261 313.2 
L 522.113614 313.2 
L 523.411513 313.2 
L 523.845675 313.2 
L 524.705302 313.2 
L 526.437844 313.2 
L 527.296901 313.2 
L 528.59453 313.2 
L 529.029562 313.2 
L 529.888439 313.2 
L 531.184329 313.2 
L 531.620921 313.2 
L 532.480428 313.2 
L 534.221428 313.2 
L 535.072506 313.2 
L 536.796439 313.2 
L 537.663655 313.2 
L 539.397277 313.2 
L 540.257023 313.2 
L 541.554112 313.2 
L 541.987945 313.2 
L 542.846912 313.2 
L 544.144181 313.2 
L 544.579694 313.2 
L 545.438661 313.2 
L 546.73503 313.2 
L 547.171292 313.2 
L 548.030259 313.2 
L 549.326239 313.2 
L 549.762951 313.2 
L 550.274594 313.2 
L 551.921587 313.2 
L 552.356529 313.2 
L 553.213816 313.2 
L 554.946628 313.2 
L 555.805685 313.2 
L 557.103914 313.2 
L 557.539757 313.2 
L 558.397224 313.2 
L 559.695123 313.2 
L 560.130605 313.2 
L 560.988972 313.2 
L 562.721994 313.2 
L 563.580691 313.2 
L 564.87667 313.2 
L 565.312753 313.2 
L 566.172289 313.2 
L 567.469858 313.2 
L 567.907321 313.2 
L 568.764188 313.2 
L 570.062567 313.2 
L 570.49652 313.2 
L 571.356326 313.2 
L 572.654105 313.2 
L 573.088178 313.2 
L 573.947325 313.2 
L 575.246634 313.2 
L 575.680677 313.2 
L 576.539254 313.2 
L 577.838232 313.2 
L 578.271525 313.2 
L 579.130792 313.2 
L 580.866244 313.2 
L 581.722241 313.2 
L 583.01834 313.2 
L 583.455292 313.2 
L 584.314049 313.2 
L 585.610029 313.2 
L 586.046861 313.2 
L 586.905678 313.2 
L 588.194788 313.2 
L 588.63882 313.2 
L 589.497337 313.2 
L 591.230238 313.2 
L 592.089055 313.2 
L 593.387644 313.2 
L 593.822197 313.2 
L 594.680864 313.2 
L 596.084229 313.2 
L 596.624788 313.2 
L 597.272582 313.2 
L 599.005574 313.2 
L 599.864091 313.2 
L 601.16013 313.2 
L 601.597263 313.2 
L 602.455659 313.2 
L 603.751669 313.2 
L 604.188471 313.2 
L 605.047498 313.2 
L 606.345817 313.2 
L 606.78013 313.2 
L 607.638977 313.2 
L 609.371908 313.2 
L 610.230665 313.2 
L 611.529044 313.2 
L 611.963567 313.2 
L 612.822354 313.2 
L 614.120673 313.2 
L 614.557715 313.2 
L 615.413862 313.2 
L 616.711941 313.2 
L 617.146764 313.2 
L 618.005581 313.2 
L 619.30213 313.2 
L 619.738573 313.2 
L 620.597179 313.2 
L 621.893429 313.2 
L 622.330201 313.2 
L 623.188898 313.2 
L 624.484997 313.2 
L 624.92198 313.2 
L 625.780587 313.2 
L 627.504849 313.2 
L 628.363636 313.2 
L 628.363636 313.2 
L 628.363636 68.848719 
L 627.504849 191.6474 
L 625.780587 69.257086 
L 624.92198 -165.536737 
L 624.484997 151.90741 
L 623.188898 69.890609 
L 622.330201 -164.307905 
L 621.893429 152.399898 
L 620.597179 70.759276 
L 619.738573 -162.962553 
L 619.30213 153.070698 
L 618.005581 71.828763 
L 617.146764 -162.86472 
L 616.711941 153.856802 
L 615.413862 71.730637 
L 614.557715 -159.129276 
L 614.120673 154.229215 
L 612.822354 73.018244 
L 611.963567 -160.436984 
L 611.529044 154.792394 
L 610.230665 73.980911 
L 609.371908 194.776332 
L 607.638977 74.563604 
L 606.78013 -157.66078 
L 606.345817 155.873148 
L 605.047498 75.516175 
L 604.188471 -153.62354 
L 603.751669 155.942278 
L 602.455659 76.164552 
L 601.597263 -151.268932 
L 601.16013 156.745636 
L 599.864091 77.366012 
L 599.005574 196.602565 
L 597.272582 2.180082 
L 596.624788 -58.936108 
L 596.084229 170.034808 
L 594.680864 79.475784 
L 593.822197 -147.75412 
L 593.387644 159.133915 
L 592.089055 80.532607 
L 591.230238 198.367365 
L 589.497337 82.117281 
L 588.63882 -130.651983 
L 588.194788 160.907422 
L 586.905678 85.89023 
L 586.046861 -131.657091 
L 585.610029 163.456316 
L 584.314049 88.136169 
L 583.455292 -127.388233 
L 583.01834 164.986627 
L 581.722241 89.677221 
L 580.866244 203.570498 
L 579.130792 92.898003 
L 578.271525 -121.5056 
L 577.838232 168.908728 
L 576.539254 95.269428 
L 575.680677 -117.163729 
L 575.246634 169.553992 
L 573.947325 96.08414 
L 573.088178 -114.463189 
L 572.654105 170.372615 
L 571.356326 97.724118 
L 570.49652 -112.847588 
L 570.062567 170.893938 
L 568.764188 97.719489 
L 567.907321 -108.516999 
L 567.469858 171.077274 
L 566.172289 98.862179 
L 565.312753 -108.654155 
L 564.87667 171.347248 
L 563.580691 99.169032 
L 562.721994 207.240025 
L 560.988972 99.500263 
L 560.130605 -107.401783 
L 559.695123 172.166351 
L 558.397224 99.822155 
L 557.539757 -106.437875 
L 557.103914 172.403257 
L 555.805685 100.53674 
L 554.946628 208.113321 
L 553.213816 101.183358 
L 552.356529 -104.183731 
L 551.921587 203.09242 
L 550.274594 -41.04101 
L 549.762951 -101.576057 
L 549.326239 173.539163 
L 548.030259 102.661538 
L 547.171292 -101.159104 
L 546.73503 173.806223 
L 545.438661 102.938624 
L 544.579694 -101.044035 
L 544.144181 174.26983 
L 542.846912 104.180981 
L 541.987945 -98.7192 
L 541.554112 175.635618 
L 540.257023 105.860089 
L 539.397277 210.460818 
L 537.663655 108.212447 
L 536.796439 210.498049 
L 535.072506 106.192869 
L 534.221428 212.39563 
L 532.480428 109.975207 
L 531.620921 -85.493993 
L 531.184329 179.151818 
L 529.888439 111.801666 
L 529.029562 -83.058517 
L 528.59453 180.591775 
L 527.296901 113.540525 
L 526.437844 214.50911 
L 524.705302 115.147863 
L 523.845675 -77.627795 
L 523.411513 182.738409 
L 522.113614 57.991686 
L 521.452261 121.456078 
L 520.574006 156.852725 
L 519.504107 51.317262 
L 518.867591 61.389562 
L 518.207978 186.081343 
L 516.90426 118.817912 
L 516.052732 -65.671783 
L 515.616439 184.485065 
L 514.333958 124.303937 
L 513.461073 -64.292683 
L 513.024631 186.092465 
L 511.728832 121.703178 
L 510.869325 -63.297244 
L 510.432972 186.533724 
L 509.137023 122.231543 
L 508.278026 235.546289 
L 506.167534 -27.486159 
L 505.687477 -61.387561 
L 505.251155 187.381805 
L 503.953976 123.382481 
L 503.094469 -61.580457 
L 502.659436 187.612629 
L 501.362257 123.801093 
L 500.50263 219.320829 
L 498.770839 124.302693 
L 497.910762 -59.825749 
L 497.476029 188.265723 
L 496.17846 124.737021 
L 495.318923 219.82023 
L 493.586832 125.292036 
L 492.727475 81.769216 
L 492.030847 157.69312 
L 490.995143 125.86978 
L 490.135576 -57.043952 
L 489.701413 189.640061 
L 488.403454 126.877354 
L 487.543978 -53.668257 
L 487.108435 200.765972 
L 485.688122 96.419798 
L 484.952589 -52.71837 
L 484.517406 190.55321 
L 483.219987 127.867756 
L 482.36198 113.198885 
L 481.569125 144.840132 
L 480.628359 128.94331 
L 479.768912 -51.024681 
L 479.334509 191.349549 
L 478.03655 128.073147 
L 477.183133 -43.53556 
L 476.740751 191.439859 
L 475.444982 129.752425 
L 474.585385 -48.028902 
L 474.149122 191.388966 
L 472.856982 131.133113 
L 471.993636 37.305681 
L 471.424581 178.282492 
L 470.261664 131.522421 
L 469.401678 223.384812 
L 467.669826 133.269387 
L 466.810409 -41.130094 
L 466.375316 194.413978 
L 465.078257 134.317992 
L 464.21848 -38.487265 
L 463.784048 195.865666 
L 462.486449 136.383432 
L 461.626702 -34.282437 
L 461.192359 197.204881 
L 459.89533 149.989355 
L 458.974631 -4.333248 
L 458.502104 188.182918 
L 457.303161 138.900878 
L 456.443595 -30.569709 
L 456.008112 197.792914 
L 454.711263 138.899081 
L 453.852806 -29.195218 
L 453.417323 207.808261 
L 452.008679 116.131308 
L 451.261867 -20.769031 
L 450.825605 205.872548 
L 449.474553 132.443829 
L 448.673808 -14.700881 
L 448.233406 202.289243 
L 446.936107 146.181659 
L 446.076211 -15.745195 
L 445.641058 202.90853 
L 444.344689 146.855334 
L 443.485782 10.780006 
L 443.013884 200.069089 
L 441.75297 147.356383 
L 440.893463 -13.132211 
L 440.456991 203.28065 
L 439.161401 147.732468 
L 438.301055 -13.32382 
L 437.865332 203.455048 
L 436.569503 148.0343 
L 435.709396 -9.355744 
L 435.270884 204.54846 
L 433.974395 95.980913 
L 433.32696 94.685322 
L 432.683665 207.351237 
L 431.35733 143.392647 
L 430.531268 -7.266836 
L 430.094736 219.897717 
L 428.596643 101.369384 
L 427.93754 234.72026 
L 426.160994 120.680287 
L 425.438239 56.636576 
L 424.896421 206.57583 
L 423.593122 150.7536 
L 422.738085 19.49965 
L 422.265587 204.116076 
L 420.994505 106.894735 
L 420.322683 86.350763 
L 419.712534 206.653003 
L 418.414215 99.585041 
L 417.76687 242.075809 
L 415.825496 101.385696 
L 415.175511 242.623685 
L 413.229728 101.091518 
L 412.584663 242.934847 
L 410.638129 102.37781 
L 409.990184 242.998864 
L 408.04647 99.514329 
L 407.408215 243.464541 
L 405.454602 103.694124 
L 404.806747 104.271186 
L 404.159073 209.162176 
L 402.862943 106.113894 
L 402.215119 106.793379 
L 401.566964 244.468732 
L 397.034591 108.500612 
L 396.385687 211.102334 
L 395.087938 108.951 
L 394.439873 106.484436 
L 393.799637 211.724106 
L 392.495979 110.262892 
L 391.848244 245.950208 
L 389.90462 111.726582 
L 389.257726 111.979376 
L 388.610651 218.855614 
L 387.231163 83.268818 
L 386.665467 111.034816 
L 386.022442 213.53517 
L 384.720823 113.058661 
L 384.072999 113.228101 
L 383.424994 213.246547 
L 382.129285 113.317934 
L 381.48158 113.169342 
L 380.835915 213.999324 
L 379.537416 114.40052 
L 378.889622 113.732084 
L 378.244137 214.092967 
L 376.945728 114.661034 
L 376.297663 113.915107 
L 375.652238 228.363878 
L 374.137078 17.101815 
L 373.703395 113.797091 
L 373.06001 214.60036 
L 371.759591 115.424608 
L 371.111586 114.707912 
L 370.466641 214.535662 
L 369.170032 116.392248 
L 368.520168 115.496633 
L 367.873543 214.73109 
L 366.576154 116.101668 
L 365.928299 116.251186 
L 365.280444 214.439168 
L 363.989144 116.711585 
L 363.34135 116.177691 
L 362.696075 215.470134 
L 361.395866 118.027358 
L 360.745042 115.812167 
L 360.102167 222.356285 
L 358.70696 83.291365 
L 358.156203 117.373761 
L 357.511378 215.730973 
L 356.217378 118.673744 
L 355.569404 118.097601 
L 354.923799 222.383698 
L 353.537891 90.559625 
L 352.972706 118.738521 
L 352.325961 216.393785 
L 351.028812 119.422706 
L 350.380987 119.450888 
L 349.733133 216.48699 
L 348.437273 120.919 
L 347.789239 121.130583 
L 347.142314 217.667333 
L 345.846035 122.588735 
L 345.19764 122.222636 
L 344.550835 217.662733 
L 343.258396 122.755349 
L 342.610361 122.447122 
L 341.964606 218.910135 
L 340.661908 123.709743 
L 340.014053 123.372548 
L 339.367698 218.372005 
L 338.075468 125.664328 
L 337.424464 123.973398 
L 336.781859 220.219508 
L 335.47865 126.992612 
L 334.828156 125.692236 
L 334.182731 220.269394 
L 332.885102 127.485203 
L 332.236438 127.333803 
L 331.588493 220.350947 
L 330.292784 127.712842 
L 329.644689 127.052667 
L 328.999084 220.370721 
L 327.705414 128.024092 
L 327.05735 127.933241 
L 326.409795 221.037646 
L 325.109346 128.323549 
L 324.461312 128.2481 
L 323.813817 220.824575 
L 322.520267 149.597648 
L 321.790974 102.833466 
L 321.224258 221.242793 
L 319.928339 129.311675 
L 319.280454 129.843869 
L 318.63281 222.095975 
L 317.33731 131.856474 
L 316.688886 132.838777 
L 316.041001 224.054985 
L 314.745022 137.494868 
L 314.097287 138.773064 
L 313.449193 226.534262 
L 312.153243 180.883844 
L 311.312094 70.738479 
L 310.857444 228.796308 
L 309.561615 146.521412 
L 308.91367 148.051136 
L 308.263986 231.443943 
L 306.970046 151.409465 
L 306.321981 151.984004 
L 305.674307 232.979967 
L 304.378177 154.553332 
L 303.730143 155.458077 
L 303.082708 234.944704 
L 301.786609 158.71887 
L 301.138544 159.618068 
L 300.49072 236.536423 
L 299.19495 159.94396 
L 298.547066 159.734362 
L 297.900201 236.877252 
L 296.603172 160.56265 
L 295.955377 160.568901 
L 295.307792 236.966424 
L 294.011663 160.815503 
L 293.363449 160.822109 
L 292.715594 237.216649 
L 291.419945 162.963639 
L 290.76936 162.876621 
L 290.121896 238.408504 
L 288.825616 164.799342 
L 288.177642 165.20909 
L 287.530867 239.87068 
L 286.233868 167.191205 
L 285.586373 167.611096 
L 284.940318 241.055423 
L 283.642239 169.68606 
L 282.994295 170.303556 
L 282.34692 242.214795 
L 281.050461 172.243016 
L 280.402636 172.93767 
L 279.756131 243.638634 
L 278.459072 174.32846 
L 277.810917 174.393711 
L 277.163273 244.155948 
L 275.867503 176.298578 
L 275.219499 176.821344 
L 274.571584 248.535996 
L 273.208474 162.767499 
L 272.62784 178.208792 
L 271.983675 246.435807 
L 270.686436 179.478204 
L 270.039271 179.836321 
L 269.390757 246.529309 
L 268.094807 179.905515 
L 267.446893 180.044629 
L 266.798978 246.700641 
L 265.503269 180.428674 
L 264.855114 180.365775 
L 264.207829 246.904742 
L 262.9123 180.858726 
L 262.263606 180.86919 
L 261.615541 247.143893 
L 260.319622 181.208206 
L 259.671827 181.472692 
L 259.023882 247.462283 
L 257.727993 181.896221 
L 257.080078 182.077001 
L 256.432134 247.734667 
L 255.136365 182.619508 
L 254.48833 183.032521 
L 253.841645 248.433119 
L 252.544586 183.589029 
L 251.897331 183.818567 
L 251.249507 248.681525 
L 249.952927 184.110409 
L 249.305073 217.897394 
L 248.428258 235.033004 
L 247.361509 184.514684 
L 246.713834 184.778446 
L 246.066129 249.165442 
L 244.77354 185.628651 
L 244.125385 185.702756 
L 243.47732 249.645726 
L 242.182331 187.120334 
L 241.529857 186.704171 
L 240.881942 250.106213 
L 239.586263 187.239754 
L 238.938168 187.605194 
L 238.290374 250.501397 
L 236.994364 188.4097 
L 236.3469 188.786207 
L 235.699495 259.735634 
L 234.194323 128.913087 
L 233.758391 189.466257 
L 233.112456 252.014748 
L 231.810867 190.589517 
L 231.163163 191.12304 
L 230.515128 252.012312 
L 229.223378 191.584342 
L 228.574984 192.098331 
L 227.927309 253.086661 
L 226.63163 194.697294 
L 225.983565 196.280625 
L 225.33577 258.618872 
L 223.968131 186.05972 
L 223.388067 200.182534 
L 222.740122 256.998028 
L 221.444293 201.842469 
L 220.796288 201.897472 
L 220.151673 258.318486 
L 218.852364 204.374601 
L 218.20445 205.178426 
L 217.556745 259.563436 
L 216.260916 206.883594 
L 215.612731 207.457154 
L 214.964937 260.584615 
L 213.672557 209.339373 
L 213.023682 209.399084 
L 212.378857 262.221543 
L 211.077509 212.233664 
L 210.429414 244.76497 
L 209.481089 256.796692 
L 208.340309 186.65401 
L 207.837666 215.756862 
L 207.189691 264.823726 
L 205.896741 217.979369 
L 205.246397 218.346901 
L 204.598212 266.143143 
L 203.302293 220.294831 
L 202.654168 220.913359 
L 202.006344 267.27448 
L 200.714444 220.551202 
L 200.083087 225.858174 
L 199.417925 268.866828 
L 198.118586 225.339991 
L 197.470731 226.227115 
L 196.822697 273.045715 
L 195.43193 213.605212 
L 194.878833 228.503528 
L 194.232418 271.403582 
L 192.935029 246.381695 
L 192.124536 201.950019 
L 191.639379 271.590648 
L 190.34355 230.138537 
L 189.695426 230.706014 
L 189.047481 272.262253 
L 187.751772 232.486518 
L 187.104007 233.24395 
L 186.455852 273.529261 
L 185.160563 234.768447 
L 184.514508 235.9865 
L 183.864014 274.844184 
L 182.568154 237.75101 
L 181.92027 238.605896 
L 181.272355 277.652072 
L 179.926193 234.442745 
L 179.328431 241.050103 
L 178.681447 277.521391 
L 177.384537 242.623026 
L 176.737073 243.268344 
L 176.088888 278.508798 
L 174.792909 244.812797 
L 174.145144 245.657853 
L 173.496989 279.993081 
L 172.2011 262.71232 
L 171.373269 225.941046 
L 170.905181 281.97433 
L 169.611661 252.187932 
L 168.961347 253.550507 
L 168.314182 284.134982 
L 167.017483 257.220546 
L 166.369598 258.380601 
L 165.721714 286.43452 
L 164.425765 261.725934 
L 163.77785 262.791422 
L 163.130085 288.551166 
L 161.834046 265.808728 
L 161.186041 266.844585 
L 160.540766 290.722606 
L 159.244877 269.337366 
L 158.596902 269.889105 
L 157.948988 294.728885 
L 156.452665 270.31357 
L 155.827187 256.803214 
L 155.358199 294.748517 
L 153.939746 279.275569 
L 153.190865 298.912998 
L 151.469661 275.777127 
L 150.822197 276.159771 
L 150.173832 294.866726 
L 148.879413 276.597034 
L 148.231498 276.8361 
L 147.582053 295.042395 
L 146.286104 276.954127 
L 145.63837 280.90524 
L 144.913515 294.024232 
L 143.696785 277.42964 
L 143.047311 278.068485 
L 142.398466 297.754941 
L 140.959436 270.255852 
L 140.458502 280.550874 
L 139.809237 297.969985 
L 138.468834 284.001235 
L 137.824639 283.868214 
L 137.217639 299.97739 
L 135.91935 287.632387 
L 135.271345 288.666449 
L 134.623551 302.565018 
L 133.211517 286.565777 
L 132.679687 291.782621 
L 132.031562 302.821293 
L 130.737773 293.551765 
L 130.089918 294.11007 
L 129.442003 304.121349 
L 128.118548 294.947153 
L 127.498559 296.246168 
L 126.850525 305.033243 
L 125.552266 297.84283 
L 124.904861 298.8027 
L 124.256406 306.666687 
L 122.961417 301.471816 
L 122.312692 302.276036 
L 121.664688 308.482339 
L 120.307457 302.549125 
L 119.722144 304.194203 
L 119.074229 308.822501 
L 117.746574 303.979335 
L 117.130425 304.488019 
L 116.48269 309.124623 
L 115.186591 305.704527 
L 114.539246 306.274635 
L 113.890702 309.911775 
L 112.594873 306.718942 
L 111.946898 306.895311 
L 111.299043 311.149728 
L 104.172282 307.054827 
L 103.523858 310.154755 
L 102.227998 307.404778 
L 101.580174 308.164318 
L 100.932199 310.996031 
L 99.63634 309.729046 
L 98.988245 310.353922 
L 98.34351 312.353538 
L 96.82883 310.848753 
L 96.394547 311.875831 
L 95.745162 312.605804 
L 94.453083 312.181223 
L 93.804988 312.335044 
L 93.157013 312.89201 
L 91.636364 313.2 
z
" style="fill:#ffa07a;fill-opacity:0.3;"/>
   </g>
   <g id="matplotlib.axis_1">
    <g id="xtick_1">
     <g id="line2d_1">
      <path clip-path="url(#p2907e35e72)" d="M 91.636364 313.2 
L 91.636364 28.8 
" style="fill:none;stroke:#808080;stroke-dasharray:6.4,1.6,1,1.6;stroke-dashoffset:0;stroke-opacity:0.3;"/>
     </g>
     <g id="line2d_2">
      <defs>
       <path d="M 0 0 
L 0 3.5 
" id="me404286cc5" style="stroke:#000000;stroke-width:0.8;"/>
      </defs>
      <g>
       <use style="stroke:#000000;stroke-width:0.8;" x="91.636364" xlink:href="#me404286cc5" y="313.2"/>
      </g>
     </g>
     <g id="text_1">
      <!-- 2020-11-20 -->
      <g transform="translate(62.578551 327.798437)scale(0.1 -0.1)">
       <defs>
        <path d="M 19.1875 8.296875 
L 53.609375 8.296875 
L 53.609375 0 
L 7.328125 0 
L 7.328125 8.296875 
Q 12.9375 14.109375 22.625 23.890625 
Q 32.328125 33.6875 34.8125 36.53125 
Q 39.546875 41.84375 41.421875 45.53125 
Q 43.3125 49.21875 43.3125 52.78125 
Q 43.3125 58.59375 39.234375 62.25 
Q 35.15625 65.921875 28.609375 65.921875 
Q 23.96875 65.921875 18.8125 64.3125 
Q 13.671875 62.703125 7.8125 59.421875 
L 7.8125 69.390625 
Q 13.765625 71.78125 18.9375 73 
Q 24.125 74.21875 28.421875 74.21875 
Q 39.75 74.21875 46.484375 68.546875 
Q 53.21875 62.890625 53.21875 53.421875 
Q 53.21875 48.921875 51.53125 44.890625 
Q 49.859375 40.875 45.40625 35.40625 
Q 44.1875 33.984375 37.640625 27.21875 
Q 31.109375 20.453125 19.1875 8.296875 
z
" id="DejaVuSans-50"/>
        <path d="M 31.78125 66.40625 
Q 24.171875 66.40625 20.328125 58.90625 
Q 16.5 51.421875 16.5 36.375 
Q 16.5 21.390625 20.328125 13.890625 
Q 24.171875 6.390625 31.78125 6.390625 
Q 39.453125 6.390625 43.28125 13.890625 
Q 47.125 21.390625 47.125 36.375 
Q 47.125 51.421875 43.28125 58.90625 
Q 39.453125 66.40625 31.78125 66.40625 
z
M 31.78125 74.21875 
Q 44.046875 74.21875 50.515625 64.515625 
Q 56.984375 54.828125 56.984375 36.375 
Q 56.984375 17.96875 50.515625 8.265625 
Q 44.046875 -1.421875 31.78125 -1.421875 
Q 19.53125 -1.421875 13.0625 8.265625 
Q 6.59375 17.96875 6.59375 36.375 
Q 6.59375 54.828125 13.0625 64.515625 
Q 19.53125 74.21875 31.78125 74.21875 
z
" id="DejaVuSans-48"/>
        <path d="M 4.890625 31.390625 
L 31.203125 31.390625 
L 31.203125 23.390625 
L 4.890625 23.390625 
z
" id="DejaVuSans-45"/>
        <path d="M 12.40625 8.296875 
L 28.515625 8.296875 
L 28.515625 63.921875 
L 10.984375 60.40625 
L 10.984375 69.390625 
L 28.421875 72.90625 
L 38.28125 72.90625 
L 38.28125 8.296875 
L 54.390625 8.296875 
L 54.390625 0 
L 12.40625 0 
z
" id="DejaVuSans-49"/>
       </defs>
       <use xlink:href="#DejaVuSans-50"/>
       <use x="63.623047" xlink:href="#DejaVuSans-48"/>
       <use x="127.246094" xlink:href="#DejaVuSans-50"/>
       <use x="190.869141" xlink:href="#DejaVuSans-48"/>
       <use x="254.492188" xlink:href="#DejaVuSans-45"/>
       <use x="290.576172" xlink:href="#DejaVuSans-49"/>
       <use x="354.199219" xlink:href="#DejaVuSans-49"/>
       <use x="417.822266" xlink:href="#DejaVuSans-45"/>
       <use x="453.90625" xlink:href="#DejaVuSans-50"/>
       <use x="517.529297" xlink:href="#DejaVuSans-48"/>
      </g>
     </g>
    </g>
    <g id="xtick_2">
     <g id="line2d_3">
      <path clip-path="url(#p2907e35e72)" d="M 168.27541 313.2 
L 168.27541 28.8 
" style="fill:none;stroke:#808080;stroke-dasharray:6.4,1.6,1,1.6;stroke-dashoffset:0;stroke-opacity:0.3;"/>
     </g>
     <g id="line2d_4">
      <g>
       <use style="stroke:#000000;stroke-width:0.8;" x="168.27541" xlink:href="#me404286cc5" y="313.2"/>
      </g>
     </g>
     <g id="text_2">
      <!-- 2020-12-20 -->
      <g transform="translate(139.217598 327.798437)scale(0.1 -0.1)">
       <use xlink:href="#DejaVuSans-50"/>
       <use x="63.623047" xlink:href="#DejaVuSans-48"/>
       <use x="127.246094" xlink:href="#DejaVuSans-50"/>
       <use x="190.869141" xlink:href="#DejaVuSans-48"/>
       <use x="254.492188" xlink:href="#DejaVuSans-45"/>
       <use x="290.576172" xlink:href="#DejaVuSans-49"/>
       <use x="354.199219" xlink:href="#DejaVuSans-50"/>
       <use x="417.822266" xlink:href="#DejaVuSans-45"/>
       <use x="453.90625" xlink:href="#DejaVuSans-50"/>
       <use x="517.529297" xlink:href="#DejaVuSans-48"/>
      </g>
     </g>
    </g>
    <g id="xtick_3">
     <g id="line2d_5">
      <path clip-path="url(#p2907e35e72)" d="M 244.914457 313.2 
L 244.914457 28.8 
" style="fill:none;stroke:#808080;stroke-dasharray:6.4,1.6,1,1.6;stroke-dashoffset:0;stroke-opacity:0.3;"/>
     </g>
     <g id="line2d_6">
      <g>
       <use style="stroke:#000000;stroke-width:0.8;" x="244.914457" xlink:href="#me404286cc5" y="313.2"/>
      </g>
     </g>
     <g id="text_3">
      <!-- 2021-01-19 -->
      <g transform="translate(215.856644 327.798437)scale(0.1 -0.1)">
       <defs>
        <path d="M 10.984375 1.515625 
L 10.984375 10.5 
Q 14.703125 8.734375 18.5 7.8125 
Q 22.3125 6.890625 25.984375 6.890625 
Q 35.75 6.890625 40.890625 13.453125 
Q 46.046875 20.015625 46.78125 33.40625 
Q 43.953125 29.203125 39.59375 26.953125 
Q 35.25 24.703125 29.984375 24.703125 
Q 19.046875 24.703125 12.671875 31.3125 
Q 6.296875 37.9375 6.296875 49.421875 
Q 6.296875 60.640625 12.9375 67.421875 
Q 19.578125 74.21875 30.609375 74.21875 
Q 43.265625 74.21875 49.921875 64.515625 
Q 56.59375 54.828125 56.59375 36.375 
Q 56.59375 19.140625 48.40625 8.859375 
Q 40.234375 -1.421875 26.421875 -1.421875 
Q 22.703125 -1.421875 18.890625 -0.6875 
Q 15.09375 0.046875 10.984375 1.515625 
z
M 30.609375 32.421875 
Q 37.25 32.421875 41.125 36.953125 
Q 45.015625 41.5 45.015625 49.421875 
Q 45.015625 57.28125 41.125 61.84375 
Q 37.25 66.40625 30.609375 66.40625 
Q 23.96875 66.40625 20.09375 61.84375 
Q 16.21875 57.28125 16.21875 49.421875 
Q 16.21875 41.5 20.09375 36.953125 
Q 23.96875 32.421875 30.609375 32.421875 
z
" id="DejaVuSans-57"/>
       </defs>
       <use xlink:href="#DejaVuSans-50"/>
       <use x="63.623047" xlink:href="#DejaVuSans-48"/>
       <use x="127.246094" xlink:href="#DejaVuSans-50"/>
       <use x="190.869141" xlink:href="#DejaVuSans-49"/>
       <use x="254.492188" xlink:href="#DejaVuSans-45"/>
       <use x="290.576172" xlink:href="#DejaVuSans-48"/>
       <use x="354.199219" xlink:href="#DejaVuSans-49"/>
       <use x="417.822266" xlink:href="#DejaVuSans-45"/>
       <use x="453.90625" xlink:href="#DejaVuSans-49"/>
       <use x="517.529297" xlink:href="#DejaVuSans-57"/>
      </g>
     </g>
    </g>
    <g id="xtick_4">
     <g id="line2d_7">
      <path clip-path="url(#p2907e35e72)" d="M 321.553503 313.2 
L 321.553503 28.8 
" style="fill:none;stroke:#808080;stroke-dasharray:6.4,1.6,1,1.6;stroke-dashoffset:0;stroke-opacity:0.3;"/>
     </g>
     <g id="line2d_8">
      <g>
       <use style="stroke:#000000;stroke-width:0.8;" x="321.553503" xlink:href="#me404286cc5" y="313.2"/>
      </g>
     </g>
     <g id="text_4">
      <!-- 2021-02-17 -->
      <g transform="translate(292.495691 327.798437)scale(0.1 -0.1)">
       <defs>
        <path d="M 8.203125 72.90625 
L 55.078125 72.90625 
L 55.078125 68.703125 
L 28.609375 0 
L 18.3125 0 
L 43.21875 64.59375 
L 8.203125 64.59375 
z
" id="DejaVuSans-55"/>
       </defs>
       <use xlink:href="#DejaVuSans-50"/>
       <use x="63.623047" xlink:href="#DejaVuSans-48"/>
       <use x="127.246094" xlink:href="#DejaVuSans-50"/>
       <use x="190.869141" xlink:href="#DejaVuSans-49"/>
       <use x="254.492188" xlink:href="#DejaVuSans-45"/>
       <use x="290.576172" xlink:href="#DejaVuSans-48"/>
       <use x="354.199219" xlink:href="#DejaVuSans-50"/>
       <use x="417.822266" xlink:href="#DejaVuSans-45"/>
       <use x="453.90625" xlink:href="#DejaVuSans-49"/>
       <use x="517.529297" xlink:href="#DejaVuSans-55"/>
      </g>
     </g>
    </g>
    <g id="xtick_5">
     <g id="line2d_9">
      <path clip-path="url(#p2907e35e72)" d="M 398.19255 313.2 
L 398.19255 28.8 
" style="fill:none;stroke:#808080;stroke-dasharray:6.4,1.6,1,1.6;stroke-dashoffset:0;stroke-opacity:0.3;"/>
     </g>
     <g id="line2d_10">
      <g>
       <use style="stroke:#000000;stroke-width:0.8;" x="398.19255" xlink:href="#me404286cc5" y="313.2"/>
      </g>
     </g>
     <g id="text_5">
      <!-- 2021-03-19 -->
      <g transform="translate(369.134738 327.798437)scale(0.1 -0.1)">
       <defs>
        <path d="M 40.578125 39.3125 
Q 47.65625 37.796875 51.625 33 
Q 55.609375 28.21875 55.609375 21.1875 
Q 55.609375 10.40625 48.1875 4.484375 
Q 40.765625 -1.421875 27.09375 -1.421875 
Q 22.515625 -1.421875 17.65625 -0.515625 
Q 12.796875 0.390625 7.625 2.203125 
L 7.625 11.71875 
Q 11.71875 9.328125 16.59375 8.109375 
Q 21.484375 6.890625 26.8125 6.890625 
Q 36.078125 6.890625 40.9375 10.546875 
Q 45.796875 14.203125 45.796875 21.1875 
Q 45.796875 27.640625 41.28125 31.265625 
Q 36.765625 34.90625 28.71875 34.90625 
L 20.21875 34.90625 
L 20.21875 43.015625 
L 29.109375 43.015625 
Q 36.375 43.015625 40.234375 45.921875 
Q 44.09375 48.828125 44.09375 54.296875 
Q 44.09375 59.90625 40.109375 62.90625 
Q 36.140625 65.921875 28.71875 65.921875 
Q 24.65625 65.921875 20.015625 65.03125 
Q 15.375 64.15625 9.8125 62.3125 
L 9.8125 71.09375 
Q 15.4375 72.65625 20.34375 73.4375 
Q 25.25 74.21875 29.59375 74.21875 
Q 40.828125 74.21875 47.359375 69.109375 
Q 53.90625 64.015625 53.90625 55.328125 
Q 53.90625 49.265625 50.4375 45.09375 
Q 46.96875 40.921875 40.578125 39.3125 
z
" id="DejaVuSans-51"/>
       </defs>
       <use xlink:href="#DejaVuSans-50"/>
       <use x="63.623047" xlink:href="#DejaVuSans-48"/>
       <use x="127.246094" xlink:href="#DejaVuSans-50"/>
       <use x="190.869141" xlink:href="#DejaVuSans-49"/>
       <use x="254.492188" xlink:href="#DejaVuSans-45"/>
       <use x="290.576172" xlink:href="#DejaVuSans-48"/>
       <use x="354.199219" xlink:href="#DejaVuSans-51"/>
       <use x="417.822266" xlink:href="#DejaVuSans-45"/>
       <use x="453.90625" xlink:href="#DejaVuSans-49"/>
       <use x="517.529297" xlink:href="#DejaVuSans-57"/>
      </g>
     </g>
    </g>
    <g id="xtick_6">
     <g id="line2d_11">
      <path clip-path="url(#p2907e35e72)" d="M 474.831597 313.2 
L 474.831597 28.8 
" style="fill:none;stroke:#808080;stroke-dasharray:6.4,1.6,1,1.6;stroke-dashoffset:0;stroke-opacity:0.3;"/>
     </g>
     <g id="line2d_12">
      <g>
       <use style="stroke:#000000;stroke-width:0.8;" x="474.831597" xlink:href="#me404286cc5" y="313.2"/>
      </g>
     </g>
     <g id="text_6">
      <!-- 2021-04-17 -->
      <g transform="translate(445.773784 327.798437)scale(0.1 -0.1)">
       <defs>
        <path d="M 37.796875 64.3125 
L 12.890625 25.390625 
L 37.796875 25.390625 
z
M 35.203125 72.90625 
L 47.609375 72.90625 
L 47.609375 25.390625 
L 58.015625 25.390625 
L 58.015625 17.1875 
L 47.609375 17.1875 
L 47.609375 0 
L 37.796875 0 
L 37.796875 17.1875 
L 4.890625 17.1875 
L 4.890625 26.703125 
z
" id="DejaVuSans-52"/>
       </defs>
       <use xlink:href="#DejaVuSans-50"/>
       <use x="63.623047" xlink:href="#DejaVuSans-48"/>
       <use x="127.246094" xlink:href="#DejaVuSans-50"/>
       <use x="190.869141" xlink:href="#DejaVuSans-49"/>
       <use x="254.492188" xlink:href="#DejaVuSans-45"/>
       <use x="290.576172" xlink:href="#DejaVuSans-48"/>
       <use x="354.199219" xlink:href="#DejaVuSans-52"/>
       <use x="417.822266" xlink:href="#DejaVuSans-45"/>
       <use x="453.90625" xlink:href="#DejaVuSans-49"/>
       <use x="517.529297" xlink:href="#DejaVuSans-55"/>
      </g>
     </g>
    </g>
    <g id="xtick_7">
     <g id="line2d_13">
      <path clip-path="url(#p2907e35e72)" d="M 551.470643 313.2 
L 551.470643 28.8 
" style="fill:none;stroke:#808080;stroke-dasharray:6.4,1.6,1,1.6;stroke-dashoffset:0;stroke-opacity:0.3;"/>
     </g>
     <g id="line2d_14">
      <g>
       <use style="stroke:#000000;stroke-width:0.8;" x="551.470643" xlink:href="#me404286cc5" y="313.2"/>
      </g>
     </g>
     <g id="text_7">
      <!-- 2021-05-17 -->
      <g transform="translate(522.412831 327.798437)scale(0.1 -0.1)">
       <defs>
        <path d="M 10.796875 72.90625 
L 49.515625 72.90625 
L 49.515625 64.59375 
L 19.828125 64.59375 
L 19.828125 46.734375 
Q 21.96875 47.46875 24.109375 47.828125 
Q 26.265625 48.1875 28.421875 48.1875 
Q 40.625 48.1875 47.75 41.5 
Q 54.890625 34.8125 54.890625 23.390625 
Q 54.890625 11.625 47.5625 5.09375 
Q 40.234375 -1.421875 26.90625 -1.421875 
Q 22.3125 -1.421875 17.546875 -0.640625 
Q 12.796875 0.140625 7.71875 1.703125 
L 7.71875 11.625 
Q 12.109375 9.234375 16.796875 8.0625 
Q 21.484375 6.890625 26.703125 6.890625 
Q 35.15625 6.890625 40.078125 11.328125 
Q 45.015625 15.765625 45.015625 23.390625 
Q 45.015625 31 40.078125 35.4375 
Q 35.15625 39.890625 26.703125 39.890625 
Q 22.75 39.890625 18.8125 39.015625 
Q 14.890625 38.140625 10.796875 36.28125 
z
" id="DejaVuSans-53"/>
       </defs>
       <use xlink:href="#DejaVuSans-50"/>
       <use x="63.623047" xlink:href="#DejaVuSans-48"/>
       <use x="127.246094" xlink:href="#DejaVuSans-50"/>
       <use x="190.869141" xlink:href="#DejaVuSans-49"/>
       <use x="254.492188" xlink:href="#DejaVuSans-45"/>
       <use x="290.576172" xlink:href="#DejaVuSans-48"/>
       <use x="354.199219" xlink:href="#DejaVuSans-53"/>
       <use x="417.822266" xlink:href="#DejaVuSans-45"/>
       <use x="453.90625" xlink:href="#DejaVuSans-49"/>
       <use x="517.529297" xlink:href="#DejaVuSans-55"/>
      </g>
     </g>
    </g>
    <g id="xtick_8">
     <g id="line2d_15">
      <path clip-path="url(#p2907e35e72)" d="M 628.10969 313.2 
L 628.10969 28.8 
" style="fill:none;stroke:#808080;stroke-dasharray:6.4,1.6,1,1.6;stroke-dashoffset:0;stroke-opacity:0.3;"/>
     </g>
     <g id="line2d_16">
      <g>
       <use style="stroke:#000000;stroke-width:0.8;" x="628.10969" xlink:href="#me404286cc5" y="313.2"/>
      </g>
     </g>
     <g id="text_8">
      <!-- 2021-06-15 -->
      <g transform="translate(599.051877 327.798437)scale(0.1 -0.1)">
       <defs>
        <path d="M 33.015625 40.375 
Q 26.375 40.375 22.484375 35.828125 
Q 18.609375 31.296875 18.609375 23.390625 
Q 18.609375 15.53125 22.484375 10.953125 
Q 26.375 6.390625 33.015625 6.390625 
Q 39.65625 6.390625 43.53125 10.953125 
Q 47.40625 15.53125 47.40625 23.390625 
Q 47.40625 31.296875 43.53125 35.828125 
Q 39.65625 40.375 33.015625 40.375 
z
M 52.59375 71.296875 
L 52.59375 62.3125 
Q 48.875 64.0625 45.09375 64.984375 
Q 41.3125 65.921875 37.59375 65.921875 
Q 27.828125 65.921875 22.671875 59.328125 
Q 17.53125 52.734375 16.796875 39.40625 
Q 19.671875 43.65625 24.015625 45.921875 
Q 28.375 48.1875 33.59375 48.1875 
Q 44.578125 48.1875 50.953125 41.515625 
Q 57.328125 34.859375 57.328125 23.390625 
Q 57.328125 12.15625 50.6875 5.359375 
Q 44.046875 -1.421875 33.015625 -1.421875 
Q 20.359375 -1.421875 13.671875 8.265625 
Q 6.984375 17.96875 6.984375 36.375 
Q 6.984375 53.65625 15.1875 63.9375 
Q 23.390625 74.21875 37.203125 74.21875 
Q 40.921875 74.21875 44.703125 73.484375 
Q 48.484375 72.75 52.59375 71.296875 
z
" id="DejaVuSans-54"/>
       </defs>
       <use xlink:href="#DejaVuSans-50"/>
       <use x="63.623047" xlink:href="#DejaVuSans-48"/>
       <use x="127.246094" xlink:href="#DejaVuSans-50"/>
       <use x="190.869141" xlink:href="#DejaVuSans-49"/>
       <use x="254.492188" xlink:href="#DejaVuSans-45"/>
       <use x="290.576172" xlink:href="#DejaVuSans-48"/>
       <use x="354.199219" xlink:href="#DejaVuSans-54"/>
       <use x="417.822266" xlink:href="#DejaVuSans-45"/>
       <use x="453.90625" xlink:href="#DejaVuSans-49"/>
       <use x="517.529297" xlink:href="#DejaVuSans-53"/>
      </g>
     </g>
    </g>
    <g id="text_9">
     <!-- Datum -->
     <g transform="translate(343.086719 341.476562)scale(0.1 -0.1)">
      <defs>
       <path d="M 19.671875 64.796875 
L 19.671875 8.109375 
L 31.59375 8.109375 
Q 46.6875 8.109375 53.6875 14.9375 
Q 60.6875 21.78125 60.6875 36.53125 
Q 60.6875 51.171875 53.6875 57.984375 
Q 46.6875 64.796875 31.59375 64.796875 
z
M 9.8125 72.90625 
L 30.078125 72.90625 
Q 51.265625 72.90625 61.171875 64.09375 
Q 71.09375 55.28125 71.09375 36.53125 
Q 71.09375 17.671875 61.125 8.828125 
Q 51.171875 0 30.078125 0 
L 9.8125 0 
z
" id="DejaVuSans-68"/>
       <path d="M 34.28125 27.484375 
Q 23.390625 27.484375 19.1875 25 
Q 14.984375 22.515625 14.984375 16.5 
Q 14.984375 11.71875 18.140625 8.90625 
Q 21.296875 6.109375 26.703125 6.109375 
Q 34.1875 6.109375 38.703125 11.40625 
Q 43.21875 16.703125 43.21875 25.484375 
L 43.21875 27.484375 
z
M 52.203125 31.203125 
L 52.203125 0 
L 43.21875 0 
L 43.21875 8.296875 
Q 40.140625 3.328125 35.546875 0.953125 
Q 30.953125 -1.421875 24.3125 -1.421875 
Q 15.921875 -1.421875 10.953125 3.296875 
Q 6 8.015625 6 15.921875 
Q 6 25.140625 12.171875 29.828125 
Q 18.359375 34.515625 30.609375 34.515625 
L 43.21875 34.515625 
L 43.21875 35.40625 
Q 43.21875 41.609375 39.140625 45 
Q 35.0625 48.390625 27.6875 48.390625 
Q 23 48.390625 18.546875 47.265625 
Q 14.109375 46.140625 10.015625 43.890625 
L 10.015625 52.203125 
Q 14.9375 54.109375 19.578125 55.046875 
Q 24.21875 56 28.609375 56 
Q 40.484375 56 46.34375 49.84375 
Q 52.203125 43.703125 52.203125 31.203125 
z
" id="DejaVuSans-97"/>
       <path d="M 18.3125 70.21875 
L 18.3125 54.6875 
L 36.8125 54.6875 
L 36.8125 47.703125 
L 18.3125 47.703125 
L 18.3125 18.015625 
Q 18.3125 11.328125 20.140625 9.421875 
Q 21.96875 7.515625 27.59375 7.515625 
L 36.8125 7.515625 
L 36.8125 0 
L 27.59375 0 
Q 17.1875 0 13.234375 3.875 
Q 9.28125 7.765625 9.28125 18.015625 
L 9.28125 47.703125 
L 2.6875 47.703125 
L 2.6875 54.6875 
L 9.28125 54.6875 
L 9.28125 70.21875 
z
" id="DejaVuSans-116"/>
       <path d="M 8.5 21.578125 
L 8.5 54.6875 
L 17.484375 54.6875 
L 17.484375 21.921875 
Q 17.484375 14.15625 20.5 10.265625 
Q 23.53125 6.390625 29.59375 6.390625 
Q 36.859375 6.390625 41.078125 11.03125 
Q 45.3125 15.671875 45.3125 23.6875 
L 45.3125 54.6875 
L 54.296875 54.6875 
L 54.296875 0 
L 45.3125 0 
L 45.3125 8.40625 
Q 42.046875 3.421875 37.71875 1 
Q 33.40625 -1.421875 27.6875 -1.421875 
Q 18.265625 -1.421875 13.375 4.4375 
Q 8.5 10.296875 8.5 21.578125 
z
M 31.109375 56 
z
" id="DejaVuSans-117"/>
       <path d="M 52 44.1875 
Q 55.375 50.25 60.0625 53.125 
Q 64.75 56 71.09375 56 
Q 79.640625 56 84.28125 50.015625 
Q 88.921875 44.046875 88.921875 33.015625 
L 88.921875 0 
L 79.890625 0 
L 79.890625 32.71875 
Q 79.890625 40.578125 77.09375 44.375 
Q 74.3125 48.1875 68.609375 48.1875 
Q 61.625 48.1875 57.5625 43.546875 
Q 53.515625 38.921875 53.515625 30.90625 
L 53.515625 0 
L 44.484375 0 
L 44.484375 32.71875 
Q 44.484375 40.625 41.703125 44.40625 
Q 38.921875 48.1875 33.109375 48.1875 
Q 26.21875 48.1875 22.15625 43.53125 
Q 18.109375 38.875 18.109375 30.90625 
L 18.109375 0 
L 9.078125 0 
L 9.078125 54.6875 
L 18.109375 54.6875 
L 18.109375 46.1875 
Q 21.1875 51.21875 25.484375 53.609375 
Q 29.78125 56 35.6875 56 
Q 41.65625 56 45.828125 52.96875 
Q 50 49.953125 52 44.1875 
z
" id="DejaVuSans-109"/>
      </defs>
      <use xlink:href="#DejaVuSans-68"/>
      <use x="77.001953" xlink:href="#DejaVuSans-97"/>
      <use x="138.28125" xlink:href="#DejaVuSans-116"/>
      <use x="177.490234" xlink:href="#DejaVuSans-117"/>
      <use x="240.869141" xlink:href="#DejaVuSans-109"/>
     </g>
    </g>
   </g>
   <g id="matplotlib.axis_2">
    <g id="ytick_1">
     <g id="line2d_17">
      <path clip-path="url(#p2907e35e72)" d="M 64.8 313.2 
L 655.2 313.2 
" style="fill:none;stroke:#808080;stroke-dasharray:6.4,1.6,1,1.6;stroke-dashoffset:0;stroke-opacity:0.3;"/>
     </g>
     <g id="line2d_18">
      <defs>
       <path d="M 0 0 
L -3.5 0 
" id="m36a220a336" style="stroke:#000000;stroke-width:0.8;"/>
      </defs>
      <g>
       <use style="stroke:#000000;stroke-width:0.8;" x="64.8" xlink:href="#m36a220a336" y="313.2"/>
      </g>
     </g>
     <g id="text_10">
      <!-- 0 -->
      <g transform="translate(51.4375 316.999219)scale(0.1 -0.1)">
       <use xlink:href="#DejaVuSans-48"/>
      </g>
     </g>
    </g>
    <g id="ytick_2">
     <g id="line2d_19">
      <path clip-path="url(#p2907e35e72)" d="M 64.8 277.65 
L 655.2 277.65 
" style="fill:none;stroke:#808080;stroke-dasharray:6.4,1.6,1,1.6;stroke-dashoffset:0;stroke-opacity:0.3;"/>
     </g>
     <g id="line2d_20">
      <g>
       <use style="stroke:#000000;stroke-width:0.8;" x="64.8" xlink:href="#m36a220a336" y="277.65"/>
      </g>
     </g>
     <g id="text_11">
      <!-- 500 -->
      <g transform="translate(38.7125 281.449219)scale(0.1 -0.1)">
       <use xlink:href="#DejaVuSans-53"/>
       <use x="63.623047" xlink:href="#DejaVuSans-48"/>
       <use x="127.246094" xlink:href="#DejaVuSans-48"/>
      </g>
     </g>
    </g>
    <g id="ytick_3">
     <g id="line2d_21">
      <path clip-path="url(#p2907e35e72)" d="M 64.8 242.1 
L 655.2 242.1 
" style="fill:none;stroke:#808080;stroke-dasharray:6.4,1.6,1,1.6;stroke-dashoffset:0;stroke-opacity:0.3;"/>
     </g>
     <g id="line2d_22">
      <g>
       <use style="stroke:#000000;stroke-width:0.8;" x="64.8" xlink:href="#m36a220a336" y="242.1"/>
      </g>
     </g>
     <g id="text_12">
      <!-- 1000 -->
      <g transform="translate(32.35 245.899219)scale(0.1 -0.1)">
       <use xlink:href="#DejaVuSans-49"/>
       <use x="63.623047" xlink:href="#DejaVuSans-48"/>
       <use x="127.246094" xlink:href="#DejaVuSans-48"/>
       <use x="190.869141" xlink:href="#DejaVuSans-48"/>
      </g>
     </g>
    </g>
    <g id="ytick_4">
     <g id="line2d_23">
      <path clip-path="url(#p2907e35e72)" d="M 64.8 206.55 
L 655.2 206.55 
" style="fill:none;stroke:#808080;stroke-dasharray:6.4,1.6,1,1.6;stroke-dashoffset:0;stroke-opacity:0.3;"/>
     </g>
     <g id="line2d_24">
      <g>
       <use style="stroke:#000000;stroke-width:0.8;" x="64.8" xlink:href="#m36a220a336" y="206.55"/>
      </g>
     </g>
     <g id="text_13">
      <!-- 1500 -->
      <g transform="translate(32.35 210.349219)scale(0.1 -0.1)">
       <use xlink:href="#DejaVuSans-49"/>
       <use x="63.623047" xlink:href="#DejaVuSans-53"/>
       <use x="127.246094" xlink:href="#DejaVuSans-48"/>
       <use x="190.869141" xlink:href="#DejaVuSans-48"/>
      </g>
     </g>
    </g>
    <g id="ytick_5">
     <g id="line2d_25">
      <path clip-path="url(#p2907e35e72)" d="M 64.8 171 
L 655.2 171 
" style="fill:none;stroke:#808080;stroke-dasharray:6.4,1.6,1,1.6;stroke-dashoffset:0;stroke-opacity:0.3;"/>
     </g>
     <g id="line2d_26">
      <g>
       <use style="stroke:#000000;stroke-width:0.8;" x="64.8" xlink:href="#m36a220a336" y="171"/>
      </g>
     </g>
     <g id="text_14">
      <!-- 2000 -->
      <g transform="translate(32.35 174.799219)scale(0.1 -0.1)">
       <use xlink:href="#DejaVuSans-50"/>
       <use x="63.623047" xlink:href="#DejaVuSans-48"/>
       <use x="127.246094" xlink:href="#DejaVuSans-48"/>
       <use x="190.869141" xlink:href="#DejaVuSans-48"/>
      </g>
     </g>
    </g>
    <g id="ytick_6">
     <g id="line2d_27">
      <path clip-path="url(#p2907e35e72)" d="M 64.8 135.45 
L 655.2 135.45 
" style="fill:none;stroke:#808080;stroke-dasharray:6.4,1.6,1,1.6;stroke-dashoffset:0;stroke-opacity:0.3;"/>
     </g>
     <g id="line2d_28">
      <g>
       <use style="stroke:#000000;stroke-width:0.8;" x="64.8" xlink:href="#m36a220a336" y="135.45"/>
      </g>
     </g>
     <g id="text_15">
      <!-- 2500 -->
      <g transform="translate(32.35 139.249219)scale(0.1 -0.1)">
       <use xlink:href="#DejaVuSans-50"/>
       <use x="63.623047" xlink:href="#DejaVuSans-53"/>
       <use x="127.246094" xlink:href="#DejaVuSans-48"/>
       <use x="190.869141" xlink:href="#DejaVuSans-48"/>
      </g>
     </g>
    </g>
    <g id="ytick_7">
     <g id="line2d_29">
      <path clip-path="url(#p2907e35e72)" d="M 64.8 99.9 
L 655.2 99.9 
" style="fill:none;stroke:#808080;stroke-dasharray:6.4,1.6,1,1.6;stroke-dashoffset:0;stroke-opacity:0.3;"/>
     </g>
     <g id="line2d_30">
      <g>
       <use style="stroke:#000000;stroke-width:0.8;" x="64.8" xlink:href="#m36a220a336" y="99.9"/>
      </g>
     </g>
     <g id="text_16">
      <!-- 3000 -->
      <g transform="translate(32.35 103.699219)scale(0.1 -0.1)">
       <use xlink:href="#DejaVuSans-51"/>
       <use x="63.623047" xlink:href="#DejaVuSans-48"/>
       <use x="127.246094" xlink:href="#DejaVuSans-48"/>
       <use x="190.869141" xlink:href="#DejaVuSans-48"/>
      </g>
     </g>
    </g>
    <g id="ytick_8">
     <g id="line2d_31">
      <path clip-path="url(#p2907e35e72)" d="M 64.8 64.35 
L 655.2 64.35 
" style="fill:none;stroke:#808080;stroke-dasharray:6.4,1.6,1,1.6;stroke-dashoffset:0;stroke-opacity:0.3;"/>
     </g>
     <g id="line2d_32">
      <g>
       <use style="stroke:#000000;stroke-width:0.8;" x="64.8" xlink:href="#m36a220a336" y="64.35"/>
      </g>
     </g>
     <g id="text_17">
      <!-- 3500 -->
      <g transform="translate(32.35 68.149219)scale(0.1 -0.1)">
       <use xlink:href="#DejaVuSans-51"/>
       <use x="63.623047" xlink:href="#DejaVuSans-53"/>
       <use x="127.246094" xlink:href="#DejaVuSans-48"/>
       <use x="190.869141" xlink:href="#DejaVuSans-48"/>
      </g>
     </g>
    </g>
    <g id="ytick_9">
     <g id="line2d_33">
      <path clip-path="url(#p2907e35e72)" d="M 64.8 28.8 
L 655.2 28.8 
" style="fill:none;stroke:#808080;stroke-dasharray:6.4,1.6,1,1.6;stroke-dashoffset:0;stroke-opacity:0.3;"/>
     </g>
     <g id="line2d_34">
      <g>
       <use style="stroke:#000000;stroke-width:0.8;" x="64.8" xlink:href="#m36a220a336" y="28.8"/>
      </g>
     </g>
     <g id="text_18">
      <!-- 4000 -->
      <g transform="translate(32.35 32.599219)scale(0.1 -0.1)">
       <use xlink:href="#DejaVuSans-52"/>
       <use x="63.623047" xlink:href="#DejaVuSans-48"/>
       <use x="127.246094" xlink:href="#DejaVuSans-48"/>
       <use x="190.869141" xlink:href="#DejaVuSans-48"/>
      </g>
     </g>
    </g>
   </g>
   <g id="line2d_35">
    <path clip-path="url(#p2907e35e72)" d="M 91.636364 313.117335 
L 93.157013 312.82312 
L 94.453083 312.229436 
L 95.745162 311.921476 
L 96.82883 311.27349 
L 98.34351 310.935238 
L 99.63634 310.247121 
L 100.932199 309.9064 
L 102.227998 309.250144 
L 103.523858 308.937332 
L 104.172282 308.633332 
L 111.299043 308.335078 
L 112.594873 307.73967 
L 113.890702 307.434313 
L 115.186591 306.790479 
L 116.48269 306.445554 
L 117.746574 305.691389 
L 119.074229 305.273232 
L 120.307457 304.33169 
L 121.664688 303.801564 
L 122.961417 302.620038 
L 124.256406 301.974382 
L 125.552266 300.599814 
L 126.850525 299.882701 
L 128.118548 298.410315 
L 129.442003 297.658013 
L 130.737773 296.113444 
L 132.031562 295.313434 
L 133.211517 293.635336 
L 134.623551 292.751346 
L 135.91935 290.902529 
L 137.217639 289.95582 
L 138.468834 288.10249 
L 139.809237 287.240363 
L 140.959436 285.7521 
L 142.398466 285.154708 
L 143.696785 284.266776 
L 150.173832 282.598126 
L 151.469661 281.760655 
L 153.190865 281.204241 
L 153.939746 280.560715 
L 155.358199 279.842613 
L 155.827187 279.066515 
L 156.452665 278.249242 
L 157.948988 277.404146 
L 159.244877 275.652638 
L 160.540766 274.740303 
L 161.834046 272.793919 
L 163.130085 271.738786 
L 164.425765 269.440886 
L 165.721714 268.207684 
L 167.017483 265.648064 
L 168.314182 264.367188 
L 169.611661 261.925181 
L 170.905181 260.802621 
L 171.373269 259.759492 
L 172.2011 258.795525 
L 173.496989 257.902796 
L 174.792909 256.276683 
L 176.088888 255.514257 
L 177.384537 254.03843 
L 178.681447 253.316051 
L 179.926193 251.898342 
L 181.272355 251.201407 
L 182.568154 249.812435 
L 183.864014 249.107335 
L 185.160563 247.645595 
L 186.455852 246.885526 
L 187.751772 245.334942 
L 189.047481 244.569708 
L 190.34355 243.138303 
L 191.639379 242.499312 
L 192.124536 241.921473 
L 192.935029 241.404035 
L 194.232418 240.939306 
L 195.43193 240.109433 
L 196.822697 239.706584 
L 198.118586 238.826342 
L 199.417925 238.315387 
L 200.714444 237.101103 
L 202.006344 236.396585 
L 203.302293 234.847643 
L 204.598212 234.046319 
L 205.896741 232.518819 
L 207.189691 231.834052 
L 208.340309 230.649574 
L 210.429414 229.608843 
L 211.077509 229.076146 
L 212.378857 228.500543 
L 213.672557 227.164134 
L 214.964937 226.400132 
L 216.260916 224.725729 
L 217.556745 223.84009 
L 218.852364 222.020061 
L 220.151673 221.097585 
L 221.444293 219.249662 
L 222.740122 218.332077 
L 223.968131 216.516188 
L 225.33577 215.608326 
L 226.63163 213.733264 
L 227.927309 212.738295 
L 229.223378 210.61491 
L 230.515128 209.521396 
L 231.810867 207.480515 
L 233.112456 206.646336 
L 234.194323 205.591194 
L 236.3469 205.435876 
L 238.938168 206.275863 
L 239.586263 206.613953 
L 243.47732 207.432462 
L 244.77354 207.600152 
L 248.428258 207.701363 
L 249.952927 207.420203 
L 251.249507 207.154865 
L 252.544586 206.415475 
L 253.841645 205.983776 
L 255.136365 205.120428 
L 256.432134 204.728528 
L 257.727993 204.072921 
L 259.671827 203.581504 
L 260.319622 203.381674 
L 262.263606 203.032747 
L 262.9123 202.867028 
L 264.855114 202.510048 
L 265.503269 202.300908 
L 266.798978 202.060283 
L 268.094807 201.464288 
L 269.390757 201.108505 
L 270.686436 200.313745 
L 271.983675 199.897573 
L 273.208474 199.083755 
L 274.571584 198.698245 
L 275.867503 197.958777 
L 277.163273 197.585914 
L 278.459072 196.773922 
L 279.756131 196.31545 
L 281.050461 195.274071 
L 282.34692 194.695616 
L 283.642239 193.455082 
L 284.940318 192.809587 
L 286.233868 191.5098 
L 287.530867 190.871073 
L 288.825616 189.651756 
L 290.121896 189.08421 
L 291.419945 188.059331 
L 292.715594 187.607503 
L 294.011663 186.818351 
L 295.307792 186.468033 
L 296.603172 185.7962 
L 297.900201 185.441666 
L 299.19495 184.598297 
L 300.49072 184.068116 
L 301.786609 182.689722 
L 303.082708 181.806747 
L 304.378177 179.604897 
L 305.674307 178.294606 
L 306.970046 175.375612 
L 308.263986 173.853369 
L 309.561615 170.940691 
L 310.857444 169.636939 
L 311.312094 168.466291 
L 312.153243 167.427205 
L 313.449193 166.500186 
L 314.745022 164.859303 
L 316.041001 164.088988 
L 317.33731 162.595776 
L 318.63281 161.894648 
L 319.928339 160.694411 
L 321.224258 160.233392 
L 321.790974 159.874 
L 322.520267 159.608096 
L 331.588493 158.247292 
L 332.885102 157.848071 
L 334.182731 157.621421 
L 335.47865 157.111879 
L 336.781859 156.832581 
L 338.075468 156.244484 
L 339.367698 155.945236 
L 340.661908 155.353329 
L 341.964606 155.061094 
L 343.258396 154.462495 
L 344.550835 154.138824 
L 345.846035 153.388023 
L 347.142314 152.941487 
L 348.437273 151.887155 
L 349.733133 151.289762 
L 351.028812 150.026692 
L 352.325961 149.402803 
L 353.537891 148.281901 
L 354.923799 147.824848 
L 356.217378 147.192474 
L 358.156203 146.984559 
L 360.102167 147.174635 
L 361.395866 147.614788 
L 363.989144 148.152439 
L 365.280444 148.136414 
L 365.928299 147.957898 
L 366.576154 147.587734 
L 367.873543 147.010402 
L 369.170032 145.278534 
L 370.466641 144.213604 
L 371.759591 142.103707 
L 373.06001 141.267114 
L 374.137078 140.464281 
L 375.652238 140.569088 
L 376.297663 140.981344 
L 376.945728 141.625548 
L 378.244137 142.400042 
L 379.537416 143.922112 
L 380.835915 144.512333 
L 381.48158 144.943808 
L 382.129285 145.233747 
L 384.072999 145.61514 
L 386.022442 146.222618 
L 386.665467 146.754169 
L 387.231163 147.457496 
L 388.610651 148.303857 
L 389.90462 150.173846 
L 391.848244 151.041101 
L 392.495979 151.768469 
L 395.087938 152.848959 
L 401.566964 153.143001 
L 402.215119 153.480814 
L 402.862943 154.087739 
L 404.159073 155.0068 
L 405.454602 157.679523 
L 407.408215 159.230438 
L 408.04647 160.700933 
L 409.990184 161.884665 
L 410.638129 162.576535 
L 412.584663 162.603199 
L 413.229728 161.851029 
L 415.175511 160.28696 
L 415.825496 157.968235 
L 417.76687 155.039323 
L 418.414215 151.71486 
L 419.712534 148.250885 
L 420.322683 144.908328 
L 420.994505 141.914566 
L 422.265587 139.429805 
L 422.738085 137.525509 
L 423.593122 136.178698 
L 424.896421 135.28303 
L 425.438239 134.674383 
L 426.160994 134.164959 
L 427.93754 133.577762 
L 428.596643 132.774802 
L 430.094736 131.674816 
L 430.531268 130.258119 
L 431.35733 128.560157 
L 432.683665 126.657909 
L 433.974395 122.655071 
L 435.270884 120.766166 
L 435.709396 119.07112 
L 436.569503 117.629252 
L 437.865332 116.469926 
L 438.301055 115.591663 
L 439.161401 114.963933 
L 440.456991 114.531917 
L 440.893463 114.224364 
L 443.013884 113.672975 
L 443.485782 113.291099 
L 445.641058 112.101761 
L 446.076211 111.277993 
L 446.936107 110.328431 
L 448.233406 109.295591 
L 448.673808 108.232945 
L 449.474553 107.198262 
L 450.825605 106.246716 
L 451.261867 105.424896 
L 452.008679 104.765626 
L 453.417323 104.283794 
L 453.852806 103.974455 
L 454.711263 103.813508 
L 457.303161 103.800168 
L 459.89533 103.871705 
L 461.192359 104.007535 
L 463.784048 105.875667 
L 464.21848 107.169438 
L 465.078257 108.746553 
L 466.375316 110.460356 
L 466.810409 112.099232 
L 467.669826 113.420374 
L 469.401678 114.194745 
L 470.261664 114.253889 
L 471.424581 113.528017 
L 472.856982 110.02207 
L 474.149122 107.64255 
L 474.585385 105.206874 
L 475.444982 102.98318 
L 476.740751 101.179678 
L 477.183133 99.911659 
L 478.03655 99.187295 
L 479.768912 98.930359 
L 481.569125 99.05625 
L 482.36198 98.861893 
L 484.517406 97.794268 
L 484.952589 97.140723 
L 485.688122 96.674099 
L 487.108435 96.624888 
L 487.543978 97.189552 
L 489.701413 100.523274 
L 490.135576 103.191497 
L 490.995143 106.274787 
L 492.030847 109.481535 
L 492.727475 112.486988 
L 493.586832 114.978987 
L 496.17846 117.465988 
L 497.476029 117.203425 
L 497.910762 115.932282 
L 498.770839 113.769095 
L 500.50263 110.909659 
L 501.362257 107.606187 
L 502.659436 104.137669 
L 503.094469 100.775987 
L 503.953976 97.751185 
L 505.251155 95.221465 
L 505.687477 93.255979 
L 506.167534 91.835766 
L 508.278026 90.873041 
L 509.137023 90.244694 
L 510.432972 89.831673 
L 510.869325 89.551684 
L 511.728832 89.375691 
L 513.024631 89.325382 
L 514.333958 89.817636 
L 515.616439 90.446753 
L 516.052732 91.330518 
L 516.90426 92.413759 
L 518.207978 93.607105 
L 519.504107 95.91035 
L 521.452261 97.538512 
L 522.113614 97.985607 
L 523.845675 98.202765 
L 524.705302 98.111577 
L 526.437844 98.054006 
L 527.296901 98.203825 
L 528.59453 98.748537 
L 529.029562 99.848904 
L 529.888439 101.587312 
L 531.184329 103.919182 
L 531.620921 106.644278 
L 532.480428 109.410966 
L 534.221428 111.759618 
L 535.072506 113.199428 
L 536.796439 113.301325 
L 539.397277 108.569621 
L 540.257023 103.800272 
L 541.554112 97.805076 
L 541.987945 91.037983 
L 542.846912 83.999547 
L 544.144181 77.165533 
L 544.579694 70.937711 
L 545.438661 65.620747 
L 546.73503 61.421456 
L 547.171292 58.46043 
L 548.030259 56.783173 
L 549.326239 56.363391 
L 549.762951 57.100857 
L 550.274594 58.819493 
L 551.921587 61.273394 
L 552.356529 64.168278 
L 553.213816 67.197913 
L 554.946628 70.08549 
L 555.805685 72.618398 
L 557.103914 74.666307 
L 557.539757 76.176394 
L 558.397224 77.148859 
L 559.695123 77.604581 
L 560.130605 77.558366 
L 562.721994 75.938664 
L 563.580691 74.349464 
L 564.87667 72.272757 
L 565.312753 69.792973 
L 566.172289 67.046587 
L 567.469858 64.207336 
L 567.907321 61.461442 
L 568.764188 58.980858 
L 570.062567 56.904117 
L 570.49652 55.328999 
L 571.356326 54.314124 
L 572.654105 53.884686 
L 573.088178 54.037241 
L 575.246634 55.911538 
L 575.680677 57.435973 
L 576.539254 59.13596 
L 577.838232 60.794738 
L 578.271525 62.180748 
L 579.130792 63.088878 
L 580.866244 63.384691 
L 581.722241 63.039295 
L 583.01834 62.14379 
L 583.455292 60.894804 
L 584.314049 59.552011 
L 585.610029 58.379184 
L 586.046861 57.584633 
L 586.905678 57.276634 
L 588.194788 57.446545 
L 588.63882 57.983393 
L 589.497337 58.712169 
L 591.230238 59.441636 
L 592.089055 60.006505 
L 593.387644 60.292057 
L 593.822197 60.236795 
L 596.084229 59.035658 
L 597.272582 56.405934 
L 599.005574 54.609757 
L 599.864091 52.582615 
L 601.16013 50.455323 
L 601.597263 48.405705 
L 602.455659 46.630148 
L 603.751669 45.298583 
L 604.188471 44.506314 
L 605.047498 44.237636 
L 606.345817 44.355264 
L 606.78013 44.622634 
L 607.638977 44.754052 
L 609.371908 44.478398 
L 610.230665 43.599951 
L 611.529044 42.040477 
L 611.963567 39.851145 
L 612.822354 37.19399 
L 614.120673 34.302975 
L 614.557715 31.437541 
L 615.413862 28.841773 
L 616.711941 26.721329 
L 617.146764 25.241843 
L 618.005581 24.542875 
L 619.30213 24.758703 
L 621.893429 32.430251 
L 622.330201 37.843465 
L 623.188898 44.84106 
L 624.484997 53.370797 
L 624.92198 63.251678 
L 625.780587 74.142009 
L 627.504849 85.634666 
L 628.363636 97.127322 
L 628.363636 97.127322 
" style="fill:none;stroke:#ff0000;stroke-linecap:square;stroke-width:1.5;"/>
   </g>
   <g id="patch_3">
    <path d="M 64.8 313.2 
L 64.8 28.8 
" style="fill:none;stroke:#000000;stroke-linecap:square;stroke-linejoin:miter;stroke-width:0.8;"/>
   </g>
   <g id="patch_4">
    <path d="M 655.2 313.2 
L 655.2 28.8 
" style="fill:none;stroke:#000000;stroke-linecap:square;stroke-linejoin:miter;stroke-width:0.8;"/>
   </g>
   <g id="patch_5">
    <path d="M 64.8 313.2 
L 655.2 313.2 
" style="fill:none;stroke:#000000;stroke-linecap:square;stroke-linejoin:miter;stroke-width:0.8;"/>
   </g>
   <g id="patch_6">
    <path d="M 64.8 28.8 
L 655.2 28.8 
" style="fill:none;stroke:#000000;stroke-linecap:square;stroke-linejoin:miter;stroke-width:0.8;"/>
   </g>
   <g id="text_19">
    <!-- Page hits per uur (gemiddeld ongeveer 3039). -->
    <g transform="translate(221.01375 22.8)scale(0.12 -0.12)">
     <defs>
      <path d="M 19.671875 64.796875 
L 19.671875 37.40625 
L 32.078125 37.40625 
Q 38.96875 37.40625 42.71875 40.96875 
Q 46.484375 44.53125 46.484375 51.125 
Q 46.484375 57.671875 42.71875 61.234375 
Q 38.96875 64.796875 32.078125 64.796875 
z
M 9.8125 72.90625 
L 32.078125 72.90625 
Q 44.34375 72.90625 50.609375 67.359375 
Q 56.890625 61.8125 56.890625 51.125 
Q 56.890625 40.328125 50.609375 34.8125 
Q 44.34375 29.296875 32.078125 29.296875 
L 19.671875 29.296875 
L 19.671875 0 
L 9.8125 0 
z
" id="DejaVuSans-80"/>
      <path d="M 45.40625 27.984375 
Q 45.40625 37.75 41.375 43.109375 
Q 37.359375 48.484375 30.078125 48.484375 
Q 22.859375 48.484375 18.828125 43.109375 
Q 14.796875 37.75 14.796875 27.984375 
Q 14.796875 18.265625 18.828125 12.890625 
Q 22.859375 7.515625 30.078125 7.515625 
Q 37.359375 7.515625 41.375 12.890625 
Q 45.40625 18.265625 45.40625 27.984375 
z
M 54.390625 6.78125 
Q 54.390625 -7.171875 48.1875 -13.984375 
Q 42 -20.796875 29.203125 -20.796875 
Q 24.46875 -20.796875 20.265625 -20.09375 
Q 16.0625 -19.390625 12.109375 -17.921875 
L 12.109375 -9.1875 
Q 16.0625 -11.328125 19.921875 -12.34375 
Q 23.78125 -13.375 27.78125 -13.375 
Q 36.625 -13.375 41.015625 -8.765625 
Q 45.40625 -4.15625 45.40625 5.171875 
L 45.40625 9.625 
Q 42.625 4.78125 38.28125 2.390625 
Q 33.9375 0 27.875 0 
Q 17.828125 0 11.671875 7.65625 
Q 5.515625 15.328125 5.515625 27.984375 
Q 5.515625 40.671875 11.671875 48.328125 
Q 17.828125 56 27.875 56 
Q 33.9375 56 38.28125 53.609375 
Q 42.625 51.21875 45.40625 46.390625 
L 45.40625 54.6875 
L 54.390625 54.6875 
z
" id="DejaVuSans-103"/>
      <path d="M 56.203125 29.59375 
L 56.203125 25.203125 
L 14.890625 25.203125 
Q 15.484375 15.921875 20.484375 11.0625 
Q 25.484375 6.203125 34.421875 6.203125 
Q 39.59375 6.203125 44.453125 7.46875 
Q 49.3125 8.734375 54.109375 11.28125 
L 54.109375 2.78125 
Q 49.265625 0.734375 44.1875 -0.34375 
Q 39.109375 -1.421875 33.890625 -1.421875 
Q 20.796875 -1.421875 13.15625 6.1875 
Q 5.515625 13.8125 5.515625 26.8125 
Q 5.515625 40.234375 12.765625 48.109375 
Q 20.015625 56 32.328125 56 
Q 43.359375 56 49.78125 48.890625 
Q 56.203125 41.796875 56.203125 29.59375 
z
M 47.21875 32.234375 
Q 47.125 39.59375 43.09375 43.984375 
Q 39.0625 48.390625 32.421875 48.390625 
Q 24.90625 48.390625 20.390625 44.140625 
Q 15.875 39.890625 15.1875 32.171875 
z
" id="DejaVuSans-101"/>
      <path id="DejaVuSans-32"/>
      <path d="M 54.890625 33.015625 
L 54.890625 0 
L 45.90625 0 
L 45.90625 32.71875 
Q 45.90625 40.484375 42.875 44.328125 
Q 39.84375 48.1875 33.796875 48.1875 
Q 26.515625 48.1875 22.3125 43.546875 
Q 18.109375 38.921875 18.109375 30.90625 
L 18.109375 0 
L 9.078125 0 
L 9.078125 75.984375 
L 18.109375 75.984375 
L 18.109375 46.1875 
Q 21.34375 51.125 25.703125 53.5625 
Q 30.078125 56 35.796875 56 
Q 45.21875 56 50.046875 50.171875 
Q 54.890625 44.34375 54.890625 33.015625 
z
" id="DejaVuSans-104"/>
      <path d="M 9.421875 54.6875 
L 18.40625 54.6875 
L 18.40625 0 
L 9.421875 0 
z
M 9.421875 75.984375 
L 18.40625 75.984375 
L 18.40625 64.59375 
L 9.421875 64.59375 
z
" id="DejaVuSans-105"/>
      <path d="M 44.28125 53.078125 
L 44.28125 44.578125 
Q 40.484375 46.53125 36.375 47.5 
Q 32.28125 48.484375 27.875 48.484375 
Q 21.1875 48.484375 17.84375 46.4375 
Q 14.5 44.390625 14.5 40.28125 
Q 14.5 37.15625 16.890625 35.375 
Q 19.28125 33.59375 26.515625 31.984375 
L 29.59375 31.296875 
Q 39.15625 29.25 43.1875 25.515625 
Q 47.21875 21.78125 47.21875 15.09375 
Q 47.21875 7.46875 41.1875 3.015625 
Q 35.15625 -1.421875 24.609375 -1.421875 
Q 20.21875 -1.421875 15.453125 -0.5625 
Q 10.6875 0.296875 5.421875 2 
L 5.421875 11.28125 
Q 10.40625 8.6875 15.234375 7.390625 
Q 20.0625 6.109375 24.8125 6.109375 
Q 31.15625 6.109375 34.5625 8.28125 
Q 37.984375 10.453125 37.984375 14.40625 
Q 37.984375 18.0625 35.515625 20.015625 
Q 33.0625 21.96875 24.703125 23.78125 
L 21.578125 24.515625 
Q 13.234375 26.265625 9.515625 29.90625 
Q 5.8125 33.546875 5.8125 39.890625 
Q 5.8125 47.609375 11.28125 51.796875 
Q 16.75 56 26.8125 56 
Q 31.78125 56 36.171875 55.265625 
Q 40.578125 54.546875 44.28125 53.078125 
z
" id="DejaVuSans-115"/>
      <path d="M 18.109375 8.203125 
L 18.109375 -20.796875 
L 9.078125 -20.796875 
L 9.078125 54.6875 
L 18.109375 54.6875 
L 18.109375 46.390625 
Q 20.953125 51.265625 25.265625 53.625 
Q 29.59375 56 35.59375 56 
Q 45.5625 56 51.78125 48.09375 
Q 58.015625 40.1875 58.015625 27.296875 
Q 58.015625 14.40625 51.78125 6.484375 
Q 45.5625 -1.421875 35.59375 -1.421875 
Q 29.59375 -1.421875 25.265625 0.953125 
Q 20.953125 3.328125 18.109375 8.203125 
z
M 48.6875 27.296875 
Q 48.6875 37.203125 44.609375 42.84375 
Q 40.53125 48.484375 33.40625 48.484375 
Q 26.265625 48.484375 22.1875 42.84375 
Q 18.109375 37.203125 18.109375 27.296875 
Q 18.109375 17.390625 22.1875 11.75 
Q 26.265625 6.109375 33.40625 6.109375 
Q 40.53125 6.109375 44.609375 11.75 
Q 48.6875 17.390625 48.6875 27.296875 
z
" id="DejaVuSans-112"/>
      <path d="M 41.109375 46.296875 
Q 39.59375 47.171875 37.8125 47.578125 
Q 36.03125 48 33.890625 48 
Q 26.265625 48 22.1875 43.046875 
Q 18.109375 38.09375 18.109375 28.8125 
L 18.109375 0 
L 9.078125 0 
L 9.078125 54.6875 
L 18.109375 54.6875 
L 18.109375 46.1875 
Q 20.953125 51.171875 25.484375 53.578125 
Q 30.03125 56 36.53125 56 
Q 37.453125 56 38.578125 55.875 
Q 39.703125 55.765625 41.0625 55.515625 
z
" id="DejaVuSans-114"/>
      <path d="M 31 75.875 
Q 24.46875 64.65625 21.28125 53.65625 
Q 18.109375 42.671875 18.109375 31.390625 
Q 18.109375 20.125 21.3125 9.0625 
Q 24.515625 -2 31 -13.1875 
L 23.1875 -13.1875 
Q 15.875 -1.703125 12.234375 9.375 
Q 8.59375 20.453125 8.59375 31.390625 
Q 8.59375 42.28125 12.203125 53.3125 
Q 15.828125 64.359375 23.1875 75.875 
z
" id="DejaVuSans-40"/>
      <path d="M 45.40625 46.390625 
L 45.40625 75.984375 
L 54.390625 75.984375 
L 54.390625 0 
L 45.40625 0 
L 45.40625 8.203125 
Q 42.578125 3.328125 38.25 0.953125 
Q 33.9375 -1.421875 27.875 -1.421875 
Q 17.96875 -1.421875 11.734375 6.484375 
Q 5.515625 14.40625 5.515625 27.296875 
Q 5.515625 40.1875 11.734375 48.09375 
Q 17.96875 56 27.875 56 
Q 33.9375 56 38.25 53.625 
Q 42.578125 51.265625 45.40625 46.390625 
z
M 14.796875 27.296875 
Q 14.796875 17.390625 18.875 11.75 
Q 22.953125 6.109375 30.078125 6.109375 
Q 37.203125 6.109375 41.296875 11.75 
Q 45.40625 17.390625 45.40625 27.296875 
Q 45.40625 37.203125 41.296875 42.84375 
Q 37.203125 48.484375 30.078125 48.484375 
Q 22.953125 48.484375 18.875 42.84375 
Q 14.796875 37.203125 14.796875 27.296875 
z
" id="DejaVuSans-100"/>
      <path d="M 9.421875 75.984375 
L 18.40625 75.984375 
L 18.40625 0 
L 9.421875 0 
z
" id="DejaVuSans-108"/>
      <path d="M 30.609375 48.390625 
Q 23.390625 48.390625 19.1875 42.75 
Q 14.984375 37.109375 14.984375 27.296875 
Q 14.984375 17.484375 19.15625 11.84375 
Q 23.34375 6.203125 30.609375 6.203125 
Q 37.796875 6.203125 41.984375 11.859375 
Q 46.1875 17.53125 46.1875 27.296875 
Q 46.1875 37.015625 41.984375 42.703125 
Q 37.796875 48.390625 30.609375 48.390625 
z
M 30.609375 56 
Q 42.328125 56 49.015625 48.375 
Q 55.71875 40.765625 55.71875 27.296875 
Q 55.71875 13.875 49.015625 6.21875 
Q 42.328125 -1.421875 30.609375 -1.421875 
Q 18.84375 -1.421875 12.171875 6.21875 
Q 5.515625 13.875 5.515625 27.296875 
Q 5.515625 40.765625 12.171875 48.375 
Q 18.84375 56 30.609375 56 
z
" id="DejaVuSans-111"/>
      <path d="M 54.890625 33.015625 
L 54.890625 0 
L 45.90625 0 
L 45.90625 32.71875 
Q 45.90625 40.484375 42.875 44.328125 
Q 39.84375 48.1875 33.796875 48.1875 
Q 26.515625 48.1875 22.3125 43.546875 
Q 18.109375 38.921875 18.109375 30.90625 
L 18.109375 0 
L 9.078125 0 
L 9.078125 54.6875 
L 18.109375 54.6875 
L 18.109375 46.1875 
Q 21.34375 51.125 25.703125 53.5625 
Q 30.078125 56 35.796875 56 
Q 45.21875 56 50.046875 50.171875 
Q 54.890625 44.34375 54.890625 33.015625 
z
" id="DejaVuSans-110"/>
      <path d="M 2.984375 54.6875 
L 12.5 54.6875 
L 29.59375 8.796875 
L 46.6875 54.6875 
L 56.203125 54.6875 
L 35.6875 0 
L 23.484375 0 
z
" id="DejaVuSans-118"/>
      <path d="M 8.015625 75.875 
L 15.828125 75.875 
Q 23.140625 64.359375 26.78125 53.3125 
Q 30.421875 42.28125 30.421875 31.390625 
Q 30.421875 20.453125 26.78125 9.375 
Q 23.140625 -1.703125 15.828125 -13.1875 
L 8.015625 -13.1875 
Q 14.5 -2 17.703125 9.0625 
Q 20.90625 20.125 20.90625 31.390625 
Q 20.90625 42.671875 17.703125 53.65625 
Q 14.5 64.65625 8.015625 75.875 
z
" id="DejaVuSans-41"/>
      <path d="M 10.6875 12.40625 
L 21 12.40625 
L 21 0 
L 10.6875 0 
z
" id="DejaVuSans-46"/>
     </defs>
     <use xlink:href="#DejaVuSans-80"/>
     <use x="55.802734" xlink:href="#DejaVuSans-97"/>
     <use x="117.082031" xlink:href="#DejaVuSans-103"/>
     <use x="180.558594" xlink:href="#DejaVuSans-101"/>
     <use x="242.082031" xlink:href="#DejaVuSans-32"/>
     <use x="273.869141" xlink:href="#DejaVuSans-104"/>
     <use x="337.248047" xlink:href="#DejaVuSans-105"/>
     <use x="365.03125" xlink:href="#DejaVuSans-116"/>
     <use x="404.240234" xlink:href="#DejaVuSans-115"/>
     <use x="456.339844" xlink:href="#DejaVuSans-32"/>
     <use x="488.126953" xlink:href="#DejaVuSans-112"/>
     <use x="551.603516" xlink:href="#DejaVuSans-101"/>
     <use x="613.126953" xlink:href="#DejaVuSans-114"/>
     <use x="654.240234" xlink:href="#DejaVuSans-32"/>
     <use x="686.027344" xlink:href="#DejaVuSans-117"/>
     <use x="749.40625" xlink:href="#DejaVuSans-117"/>
     <use x="812.785156" xlink:href="#DejaVuSans-114"/>
     <use x="853.898438" xlink:href="#DejaVuSans-32"/>
     <use x="885.685547" xlink:href="#DejaVuSans-40"/>
     <use x="924.699219" xlink:href="#DejaVuSans-103"/>
     <use x="988.175781" xlink:href="#DejaVuSans-101"/>
     <use x="1049.699219" xlink:href="#DejaVuSans-109"/>
     <use x="1147.111328" xlink:href="#DejaVuSans-105"/>
     <use x="1174.894531" xlink:href="#DejaVuSans-100"/>
     <use x="1238.371094" xlink:href="#DejaVuSans-100"/>
     <use x="1301.847656" xlink:href="#DejaVuSans-101"/>
     <use x="1363.371094" xlink:href="#DejaVuSans-108"/>
     <use x="1391.154297" xlink:href="#DejaVuSans-100"/>
     <use x="1454.630859" xlink:href="#DejaVuSans-32"/>
     <use x="1486.417969" xlink:href="#DejaVuSans-111"/>
     <use x="1547.599609" xlink:href="#DejaVuSans-110"/>
     <use x="1610.978516" xlink:href="#DejaVuSans-103"/>
     <use x="1674.455078" xlink:href="#DejaVuSans-101"/>
     <use x="1735.978516" xlink:href="#DejaVuSans-118"/>
     <use x="1795.158203" xlink:href="#DejaVuSans-101"/>
     <use x="1856.681641" xlink:href="#DejaVuSans-101"/>
     <use x="1918.205078" xlink:href="#DejaVuSans-114"/>
     <use x="1959.318359" xlink:href="#DejaVuSans-32"/>
     <use x="1991.105469" xlink:href="#DejaVuSans-51"/>
     <use x="2054.728516" xlink:href="#DejaVuSans-48"/>
     <use x="2118.351562" xlink:href="#DejaVuSans-51"/>
     <use x="2181.974609" xlink:href="#DejaVuSans-57"/>
     <use x="2245.597656" xlink:href="#DejaVuSans-41"/>
     <use x="2284.611328" xlink:href="#DejaVuSans-46"/>
    </g>
   </g>
  </g>
  <g id="text_20">
   <!-- Gegenereerd op 2021-06-16 11:35. -->
   <g style="fill:#808080;" transform="translate(7.2 356.4)scale(0.08 -0.08)">
    <defs>
     <path d="M 59.515625 10.40625 
L 59.515625 29.984375 
L 43.40625 29.984375 
L 43.40625 38.09375 
L 69.28125 38.09375 
L 69.28125 6.78125 
Q 63.578125 2.734375 56.6875 0.65625 
Q 49.8125 -1.421875 42 -1.421875 
Q 24.90625 -1.421875 15.25 8.5625 
Q 5.609375 18.5625 5.609375 36.375 
Q 5.609375 54.25 15.25 64.234375 
Q 24.90625 74.21875 42 74.21875 
Q 49.125 74.21875 55.546875 72.453125 
Q 61.96875 70.703125 67.390625 67.28125 
L 67.390625 56.78125 
Q 61.921875 61.421875 55.765625 63.765625 
Q 49.609375 66.109375 42.828125 66.109375 
Q 29.4375 66.109375 22.71875 58.640625 
Q 16.015625 51.171875 16.015625 36.375 
Q 16.015625 21.625 22.71875 14.15625 
Q 29.4375 6.6875 42.828125 6.6875 
Q 48.046875 6.6875 52.140625 7.59375 
Q 56.25 8.5 59.515625 10.40625 
z
" id="DejaVuSans-71"/>
     <path d="M 11.71875 12.40625 
L 22.015625 12.40625 
L 22.015625 0 
L 11.71875 0 
z
M 11.71875 51.703125 
L 22.015625 51.703125 
L 22.015625 39.3125 
L 11.71875 39.3125 
z
" id="DejaVuSans-58"/>
    </defs>
    <use xlink:href="#DejaVuSans-71"/>
    <use x="77.490234" xlink:href="#DejaVuSans-101"/>
    <use x="139.013672" xlink:href="#DejaVuSans-103"/>
    <use x="202.490234" xlink:href="#DejaVuSans-101"/>
    <use x="264.013672" xlink:href="#DejaVuSans-110"/>
    <use x="327.392578" xlink:href="#DejaVuSans-101"/>
    <use x="388.916016" xlink:href="#DejaVuSans-114"/>
    <use x="427.779297" xlink:href="#DejaVuSans-101"/>
    <use x="489.302734" xlink:href="#DejaVuSans-101"/>
    <use x="550.826172" xlink:href="#DejaVuSans-114"/>
    <use x="590.189453" xlink:href="#DejaVuSans-100"/>
    <use x="653.666016" xlink:href="#DejaVuSans-32"/>
    <use x="685.453125" xlink:href="#DejaVuSans-111"/>
    <use x="746.634766" xlink:href="#DejaVuSans-112"/>
    <use x="810.111328" xlink:href="#DejaVuSans-32"/>
    <use x="841.898438" xlink:href="#DejaVuSans-50"/>
    <use x="905.521484" xlink:href="#DejaVuSans-48"/>
    <use x="969.144531" xlink:href="#DejaVuSans-50"/>
    <use x="1032.767578" xlink:href="#DejaVuSans-49"/>
    <use x="1096.390625" xlink:href="#DejaVuSans-45"/>
    <use x="1132.474609" xlink:href="#DejaVuSans-48"/>
    <use x="1196.097656" xlink:href="#DejaVuSans-54"/>
    <use x="1259.720703" xlink:href="#DejaVuSans-45"/>
    <use x="1295.804688" xlink:href="#DejaVuSans-49"/>
    <use x="1359.427734" xlink:href="#DejaVuSans-54"/>
    <use x="1423.050781" xlink:href="#DejaVuSans-32"/>
    <use x="1454.837891" xlink:href="#DejaVuSans-49"/>
    <use x="1518.460938" xlink:href="#DejaVuSans-49"/>
    <use x="1582.083984" xlink:href="#DejaVuSans-58"/>
    <use x="1615.775391" xlink:href="#DejaVuSans-51"/>
    <use x="1679.398438" xlink:href="#DejaVuSans-53"/>
    <use x="1743.021484" xlink:href="#DejaVuSans-46"/>
   </g>
  </g>
  <g id="text_21">
   <!-- https://realrolfje.github.io/coronadata/ -->
   <g style="fill:#808080;" transform="translate(560.24375 356.4)scale(0.08 -0.08)">
    <defs>
     <path d="M 25.390625 72.90625 
L 33.6875 72.90625 
L 8.296875 -9.28125 
L 0 -9.28125 
z
" id="DejaVuSans-47"/>
     <path d="M 37.109375 75.984375 
L 37.109375 68.5 
L 28.515625 68.5 
Q 23.6875 68.5 21.796875 66.546875 
Q 19.921875 64.59375 19.921875 59.515625 
L 19.921875 54.6875 
L 34.71875 54.6875 
L 34.71875 47.703125 
L 19.921875 47.703125 
L 19.921875 0 
L 10.890625 0 
L 10.890625 47.703125 
L 2.296875 47.703125 
L 2.296875 54.6875 
L 10.890625 54.6875 
L 10.890625 58.5 
Q 10.890625 67.625 15.140625 71.796875 
Q 19.390625 75.984375 28.609375 75.984375 
z
" id="DejaVuSans-102"/>
     <path d="M 9.421875 54.6875 
L 18.40625 54.6875 
L 18.40625 -0.984375 
Q 18.40625 -11.421875 14.421875 -16.109375 
Q 10.453125 -20.796875 1.609375 -20.796875 
L -1.8125 -20.796875 
L -1.8125 -13.1875 
L 0.59375 -13.1875 
Q 5.71875 -13.1875 7.5625 -10.8125 
Q 9.421875 -8.453125 9.421875 -0.984375 
z
M 9.421875 75.984375 
L 18.40625 75.984375 
L 18.40625 64.59375 
L 9.421875 64.59375 
z
" id="DejaVuSans-106"/>
     <path d="M 48.6875 27.296875 
Q 48.6875 37.203125 44.609375 42.84375 
Q 40.53125 48.484375 33.40625 48.484375 
Q 26.265625 48.484375 22.1875 42.84375 
Q 18.109375 37.203125 18.109375 27.296875 
Q 18.109375 17.390625 22.1875 11.75 
Q 26.265625 6.109375 33.40625 6.109375 
Q 40.53125 6.109375 44.609375 11.75 
Q 48.6875 17.390625 48.6875 27.296875 
z
M 18.109375 46.390625 
Q 20.953125 51.265625 25.265625 53.625 
Q 29.59375 56 35.59375 56 
Q 45.5625 56 51.78125 48.09375 
Q 58.015625 40.1875 58.015625 27.296875 
Q 58.015625 14.40625 51.78125 6.484375 
Q 45.5625 -1.421875 35.59375 -1.421875 
Q 29.59375 -1.421875 25.265625 0.953125 
Q 20.953125 3.328125 18.109375 8.203125 
L 18.109375 0 
L 9.078125 0 
L 9.078125 75.984375 
L 18.109375 75.984375 
z
" id="DejaVuSans-98"/>
     <path d="M 48.78125 52.59375 
L 48.78125 44.1875 
Q 44.96875 46.296875 41.140625 47.34375 
Q 37.3125 48.390625 33.40625 48.390625 
Q 24.65625 48.390625 19.8125 42.84375 
Q 14.984375 37.3125 14.984375 27.296875 
Q 14.984375 17.28125 19.8125 11.734375 
Q 24.65625 6.203125 33.40625 6.203125 
Q 37.3125 6.203125 41.140625 7.25 
Q 44.96875 8.296875 48.78125 10.40625 
L 48.78125 2.09375 
Q 45.015625 0.34375 40.984375 -0.53125 
Q 36.96875 -1.421875 32.421875 -1.421875 
Q 20.0625 -1.421875 12.78125 6.34375 
Q 5.515625 14.109375 5.515625 27.296875 
Q 5.515625 40.671875 12.859375 48.328125 
Q 20.21875 56 33.015625 56 
Q 37.15625 56 41.109375 55.140625 
Q 45.0625 54.296875 48.78125 52.59375 
z
" id="DejaVuSans-99"/>
    </defs>
    <use xlink:href="#DejaVuSans-104"/>
    <use x="63.378906" xlink:href="#DejaVuSans-116"/>
    <use x="102.587891" xlink:href="#DejaVuSans-116"/>
    <use x="141.796875" xlink:href="#DejaVuSans-112"/>
    <use x="205.273438" xlink:href="#DejaVuSans-115"/>
    <use x="257.373047" xlink:href="#DejaVuSans-58"/>
    <use x="291.064453" xlink:href="#DejaVuSans-47"/>
    <use x="324.755859" xlink:href="#DejaVuSans-47"/>
    <use x="358.447266" xlink:href="#DejaVuSans-114"/>
    <use x="397.310547" xlink:href="#DejaVuSans-101"/>
    <use x="458.833984" xlink:href="#DejaVuSans-97"/>
    <use x="520.113281" xlink:href="#DejaVuSans-108"/>
    <use x="547.896484" xlink:href="#DejaVuSans-114"/>
    <use x="586.759766" xlink:href="#DejaVuSans-111"/>
    <use x="647.941406" xlink:href="#DejaVuSans-108"/>
    <use x="675.724609" xlink:href="#DejaVuSans-102"/>
    <use x="710.929688" xlink:href="#DejaVuSans-106"/>
    <use x="738.712891" xlink:href="#DejaVuSans-101"/>
    <use x="800.236328" xlink:href="#DejaVuSans-46"/>
    <use x="832.023438" xlink:href="#DejaVuSans-103"/>
    <use x="895.5" xlink:href="#DejaVuSans-105"/>
    <use x="923.283203" xlink:href="#DejaVuSans-116"/>
    <use x="962.492188" xlink:href="#DejaVuSans-104"/>
    <use x="1025.871094" xlink:href="#DejaVuSans-117"/>
    <use x="1089.25" xlink:href="#DejaVuSans-98"/>
    <use x="1152.726562" xlink:href="#DejaVuSans-46"/>
    <use x="1184.513672" xlink:href="#DejaVuSans-105"/>
    <use x="1212.296875" xlink:href="#DejaVuSans-111"/>
    <use x="1273.478516" xlink:href="#DejaVuSans-47"/>
    <use x="1307.169922" xlink:href="#DejaVuSans-99"/>
    <use x="1362.150391" xlink:href="#DejaVuSans-111"/>
    <use x="1423.332031" xlink:href="#DejaVuSans-114"/>
    <use x="1462.195312" xlink:href="#DejaVuSans-111"/>
    <use x="1523.376953" xlink:href="#DejaVuSans-110"/>
    <use x="1586.755859" xlink:href="#DejaVuSans-97"/>
    <use x="1648.035156" xlink:href="#DejaVuSans-100"/>
    <use x="1711.511719" xlink:href="#DejaVuSans-97"/>
    <use x="1772.791016" xlink:href="#DejaVuSans-116"/>
    <use x="1812" xlink:href="#DejaVuSans-97"/>
    <use x="1873.279297" xlink:href="#DejaVuSans-47"/>
   </g>
  </g>
 </g>
 <defs>
  <clipPath id="p2907e35e72">
   <rect height="284.4" width="590.4" x="64.8" y="28.8"/>
  </clipPath>
 </defs>
</svg>
