<?xml version="1.0" encoding="utf-8" standalone="no"?>
<!DOCTYPE svg PUBLIC "-//W3C//DTD SVG 1.1//EN"
  "http://www.w3.org/Graphics/SVG/1.1/DTD/svg11.dtd">
<!-- Created with matplotlib (https://matplotlib.org/) -->
<svg height="360pt" version="1.1" viewBox="0 0 720 360" width="720pt" xmlns="http://www.w3.org/2000/svg" xmlns:xlink="http://www.w3.org/1999/xlink">
 <metadata>
  <rdf:RDF xmlns:cc="http://creativecommons.org/ns#" xmlns:dc="http://purl.org/dc/elements/1.1/" xmlns:rdf="http://www.w3.org/1999/02/22-rdf-syntax-ns#">
   <cc:Work>
    <dc:type rdf:resource="http://purl.org/dc/dcmitype/StillImage"/>
    <dc:date>2023-01-28T11:38:49.765905</dc:date>
    <dc:format>image/svg+xml</dc:format>
    <dc:creator>
     <cc:Agent>
      <dc:title>Matplotlib v3.3.2, https://matplotlib.org/</dc:title>
     </cc:Agent>
    </dc:creator>
   </cc:Work>
  </rdf:RDF>
 </metadata>
 <defs>
  <style type="text/css">*{stroke-linecap:butt;stroke-linejoin:round;}</style>
 </defs>
 <g id="figure_1">
  <g id="patch_1">
   <path d="M 0 360 
L 720 360 
L 720 0 
L 0 0 
z
" style="fill:#ffffff;"/>
  </g>
  <g id="axes_1">
   <g id="patch_2">
    <path d="M 64.8 313.2 
L 655.2 313.2 
L 655.2 28.8 
L 64.8 28.8 
z
" style="fill:#ffffff;"/>
   </g>
   <g id="PolyCollection_1">
    <path clip-path="url(#p840351e169)" d="M 91.636364 300.272727 
L 91.636364 300.272727 
L 92.308112 300.272727 
L 92.979861 300.272727 
L 93.65161 300.272727 
L 94.323359 300.272727 
L 94.995108 300.272727 
L 97.010354 300.272727 
L 97.682103 300.272727 
L 98.353851 300.272727 
L 99.0256 300.272727 
L 99.697349 300.272727 
L 100.369098 300.272727 
L 101.040847 300.272727 
L 101.712595 300.272727 
L 102.384344 300.272727 
L 103.056093 300.272727 
L 103.727842 300.272727 
L 104.39959 300.272727 
L 105.071339 300.272727 
L 105.743088 300.272727 
L 106.414837 300.272727 
L 107.086586 300.272727 
L 107.758334 300.272727 
L 108.430083 300.272727 
L 109.101832 300.272727 
L 109.773581 300.272727 
L 110.445329 300.272727 
L 111.117078 300.272727 
L 111.788827 300.272727 
L 112.460576 300.272727 
L 113.132324 300.272727 
L 113.804073 300.272727 
L 114.475822 300.272727 
L 115.147571 300.272727 
L 115.81932 300.272727 
L 116.491068 300.272727 
L 117.162817 300.272727 
L 117.834566 300.272727 
L 118.506315 300.272727 
L 119.178063 300.272727 
L 119.849812 300.272727 
L 120.521561 300.272727 
L 121.19331 300.272727 
L 121.865059 300.272727 
L 122.536807 300.272727 
L 123.208556 300.272727 
L 123.880305 300.272727 
L 124.552054 300.272727 
L 125.223802 300.272727 
L 125.895551 300.272727 
L 126.5673 300.272727 
L 127.239049 300.272727 
L 127.910798 300.272727 
L 128.582546 300.272727 
L 129.254295 300.272727 
L 129.926044 300.272727 
L 130.597793 300.272727 
L 131.269541 300.272727 
L 131.94129 300.272727 
L 132.613039 300.272727 
L 133.284788 300.272727 
L 133.956537 300.272727 
L 134.628285 300.272727 
L 135.300034 300.272727 
L 135.971783 300.272727 
L 136.643532 300.272727 
L 137.31528 300.272727 
L 137.987029 300.272727 
L 138.658778 300.272727 
L 139.330527 300.272727 
L 140.002276 300.272727 
L 140.674024 300.272727 
L 141.345773 300.272727 
L 142.017522 300.272727 
L 142.689271 300.272727 
L 143.361019 300.272727 
L 144.032768 300.272727 
L 144.704517 300.272727 
L 145.376266 300.272727 
L 146.048015 300.272727 
L 146.719763 300.272727 
L 147.391512 300.272727 
L 148.063261 300.272727 
L 148.73501 300.272727 
L 149.406758 300.272727 
L 150.078507 300.272727 
L 150.750256 300.272727 
L 151.422005 300.272727 
L 152.093754 300.272727 
L 152.765502 300.272727 
L 153.437251 300.272727 
L 154.109 300.272727 
L 154.780749 300.272727 
L 155.452497 300.272727 
L 156.124246 300.272727 
L 156.795995 300.272727 
L 157.467744 300.272727 
L 158.139493 300.272727 
L 158.811241 300.272727 
L 159.48299 300.272727 
L 160.154739 300.272727 
L 160.826488 300.272727 
L 161.498236 300.272727 
L 162.169985 300.272727 
L 162.841734 300.272727 
L 163.513483 300.272727 
L 164.185232 300.272727 
L 164.85698 300.272727 
L 165.528729 300.272727 
L 166.200478 300.272727 
L 166.872227 300.272727 
L 167.543975 300.272727 
L 168.215724 300.272727 
L 168.887473 300.272727 
L 169.559222 300.272727 
L 170.230971 300.272727 
L 170.902719 300.272727 
L 172.246217 300.272727 
L 172.917966 300.272727 
L 173.589714 300.272727 
L 174.261463 300.272727 
L 174.933212 300.272727 
L 175.604961 300.272727 
L 176.27671 300.272727 
L 176.948458 300.272727 
L 177.620207 300.272727 
L 178.291956 300.272727 
L 178.963705 300.272727 
L 179.635453 300.272727 
L 180.307202 300.272727 
L 180.978951 300.272727 
L 181.6507 300.272727 
L 182.322449 300.272727 
L 182.994197 300.272727 
L 183.665946 300.272727 
L 184.337695 300.272727 
L 185.009444 300.272727 
L 185.681192 300.272727 
L 186.352941 300.272727 
L 187.02469 300.272727 
L 187.696439 300.272727 
L 188.368188 300.272727 
L 189.039936 300.272727 
L 189.711685 300.272727 
L 190.383434 300.272727 
L 191.055183 300.272727 
L 191.726931 300.272727 
L 192.39868 300.272727 
L 193.070429 300.272727 
L 193.742178 300.272727 
L 194.413926 300.272727 
L 195.085675 300.272727 
L 195.757424 300.272727 
L 196.429173 300.272727 
L 197.100922 300.272727 
L 197.77267 300.272727 
L 198.444419 300.272727 
L 199.116168 300.272727 
L 199.787917 300.272727 
L 200.459665 300.272727 
L 201.131414 300.272727 
L 201.803163 300.272727 
L 202.474912 300.272727 
L 203.146661 300.272727 
L 203.818409 300.272727 
L 204.490158 300.272727 
L 205.161907 300.272727 
L 205.833656 300.272727 
L 206.505404 300.272727 
L 207.177153 300.272727 
L 207.848902 300.272727 
L 208.520651 300.272727 
L 209.1924 300.272727 
L 209.864148 300.272727 
L 210.535897 300.272727 
L 211.207646 300.272727 
L 211.879395 300.272727 
L 212.551143 300.272727 
L 213.222892 300.272727 
L 213.894641 300.272727 
L 214.56639 300.272727 
L 215.238139 300.272727 
L 215.909887 300.272727 
L 216.581636 300.272727 
L 217.253385 300.272727 
L 217.925134 300.272727 
L 218.596882 300.272727 
L 219.268631 300.272727 
L 219.94038 300.272727 
L 220.612129 300.272727 
L 221.283878 300.272727 
L 221.955626 300.272727 
L 222.627375 300.272727 
L 223.299124 300.272727 
L 223.970873 300.272727 
L 224.642621 300.272727 
L 225.31437 300.272727 
L 225.986119 300.272727 
L 226.657868 300.272727 
L 227.329617 300.272727 
L 228.001365 300.272727 
L 228.673114 300.272727 
L 229.344863 300.272727 
L 230.016612 300.272727 
L 230.68836 300.272727 
L 232.031858 300.272727 
L 232.703607 300.272727 
L 233.375356 300.272727 
L 234.047104 300.272727 
L 234.718853 300.272727 
L 235.390602 300.272727 
L 236.062351 300.272727 
L 236.734099 300.272727 
L 237.405848 300.272727 
L 238.077597 300.272727 
L 238.749346 300.272727 
L 239.421095 300.272727 
L 240.092843 300.272727 
L 240.764592 300.272727 
L 241.436341 300.272727 
L 242.10809 300.272727 
L 242.779838 300.272727 
L 243.451587 300.272727 
L 244.123336 300.272727 
L 244.795085 300.272727 
L 245.466834 300.272727 
L 246.138582 300.272727 
L 246.810331 300.272727 
L 247.48208 300.272727 
L 248.153829 300.272727 
L 248.825577 300.272727 
L 249.497326 300.272727 
L 250.169075 300.272727 
L 250.840824 300.272727 
L 251.512573 300.272727 
L 252.184321 300.272727 
L 252.85607 300.272727 
L 253.527819 300.272727 
L 254.199568 300.272727 
L 254.871316 300.272727 
L 255.543065 300.272727 
L 256.214814 300.272727 
L 256.886563 300.272727 
L 257.558312 300.272727 
L 258.23006 300.272727 
L 258.901809 300.272727 
L 259.573558 300.272727 
L 260.245307 300.272727 
L 260.917055 300.272727 
L 261.588804 300.272727 
L 262.260553 300.272727 
L 262.932302 300.272727 
L 263.604051 300.272727 
L 264.275799 300.272727 
L 264.947548 300.272727 
L 265.619297 300.272727 
L 266.291046 300.272727 
L 266.962794 300.272727 
L 267.634543 300.272727 
L 268.306292 300.272727 
L 268.978041 300.272727 
L 269.64979 300.272727 
L 270.321538 300.272727 
L 270.993287 300.272727 
L 271.665036 300.272727 
L 272.336785 300.272727 
L 273.008533 300.272727 
L 273.680282 300.272727 
L 274.352031 300.272727 
L 275.02378 300.272727 
L 275.695529 300.272727 
L 276.367277 300.272727 
L 277.039026 300.272727 
L 277.710775 300.272727 
L 278.382524 300.272727 
L 279.054272 300.272727 
L 279.726021 300.272727 
L 280.39777 300.272727 
L 281.069519 300.272727 
L 281.741267 300.272727 
L 282.413016 300.272727 
L 283.084765 300.272727 
L 283.756514 300.272727 
L 284.428263 300.272727 
L 285.100011 300.272727 
L 285.77176 300.272727 
L 286.443509 300.272727 
L 287.115258 300.272727 
L 287.787006 300.272727 
L 288.458755 300.272727 
L 289.130504 300.272727 
L 289.802253 300.272727 
L 290.474002 300.272727 
L 291.14575 300.272727 
L 291.817499 300.272727 
L 292.489248 300.272727 
L 293.160997 300.272727 
L 293.832745 300.272727 
L 294.504494 300.272727 
L 295.176243 300.272727 
L 295.847992 300.272727 
L 296.519741 300.272727 
L 297.191489 300.272727 
L 297.863238 300.272727 
L 298.534987 300.272727 
L 299.206736 300.272727 
L 299.878484 300.272727 
L 300.550233 300.272727 
L 301.221982 300.272727 
L 301.893731 300.272727 
L 302.56548 300.272727 
L 303.237228 300.272727 
L 303.908977 300.272727 
L 304.580726 300.272727 
L 305.252475 300.272727 
L 305.924223 300.272727 
L 306.595972 300.272727 
L 307.267721 300.272727 
L 307.93947 300.272727 
L 308.611219 300.272727 
L 309.282967 300.272727 
L 309.954716 300.272727 
L 310.626465 300.272727 
L 311.298214 300.272727 
L 311.969962 300.272727 
L 312.641711 300.272727 
L 313.31346 300.272727 
L 313.985209 300.272727 
L 314.656958 300.272727 
L 315.328706 300.272727 
L 316.000455 300.272727 
L 316.672204 300.272727 
L 317.343953 300.272727 
L 318.015701 300.272727 
L 318.68745 300.272727 
L 319.359199 300.272727 
L 320.030948 300.272727 
L 320.702697 300.272727 
L 321.374445 300.272727 
L 322.046194 300.272727 
L 322.717943 300.272727 
L 323.389692 300.272727 
L 324.06144 300.272727 
L 324.733189 300.272727 
L 325.404938 300.272727 
L 326.076687 300.272727 
L 326.748436 300.272727 
L 327.420184 300.272727 
L 328.091933 300.272727 
L 328.763682 300.272727 
L 329.435431 300.272727 
L 330.107179 300.272727 
L 330.778928 300.272727 
L 331.450677 300.272727 
L 332.122426 300.272727 
L 332.794175 300.272727 
L 333.465923 300.272727 
L 334.137672 300.272727 
L 334.809421 300.272727 
L 335.48117 300.272727 
L 336.152918 300.272727 
L 336.824667 300.272727 
L 337.496416 300.272727 
L 338.168165 300.272727 
L 338.839914 300.272727 
L 339.511662 300.272727 
L 340.183411 300.272727 
L 340.85516 300.272727 
L 341.526909 300.272727 
L 342.198657 300.272727 
L 342.870406 300.272727 
L 343.542155 300.272727 
L 344.213904 300.272727 
L 344.885653 300.272727 
L 345.557401 300.272727 
L 346.22915 300.272727 
L 346.900899 300.272727 
L 347.572648 300.272727 
L 348.244396 300.272727 
L 348.916145 300.272727 
L 349.587894 300.272727 
L 350.259643 300.272727 
L 350.931392 300.272727 
L 351.60314 300.272727 
L 352.274889 300.272727 
L 352.946638 300.272727 
L 353.618387 300.272727 
L 354.290135 300.272727 
L 354.961884 300.272727 
L 355.633633 300.272727 
L 356.305382 300.272727 
L 356.977131 300.272727 
L 357.648879 300.272727 
L 358.320628 300.272727 
L 358.992377 300.272727 
L 359.664126 300.272727 
L 360.335874 300.272727 
L 361.007623 300.272727 
L 361.679372 300.272727 
L 362.351121 300.272727 
L 363.022869 300.272727 
L 363.694618 300.272727 
L 364.366367 300.272727 
L 365.038116 300.272727 
L 365.709865 300.272727 
L 366.381613 300.272727 
L 367.053362 300.272727 
L 375.114347 300.272727 
L 375.786096 300.272727 
L 376.457845 300.272727 
L 377.129594 300.272727 
L 377.801343 300.272727 
L 378.473091 300.272727 
L 379.14484 300.272727 
L 379.816589 300.272727 
L 381.160086 300.272727 
L 381.831835 300.272727 
L 382.503584 300.272727 
L 383.175333 300.272727 
L 383.847082 300.272727 
L 384.51883 300.272727 
L 385.190579 300.272727 
L 385.862328 300.272727 
L 386.534077 300.272727 
L 387.205825 300.272727 
L 387.877574 300.272727 
L 388.549323 300.272727 
L 389.221072 300.272727 
L 389.892821 300.272727 
L 390.564569 300.272727 
L 391.236318 300.272727 
L 391.908067 300.272727 
L 392.579816 300.272727 
L 393.251564 300.272727 
L 393.923313 300.272727 
L 394.595062 300.272727 
L 395.266811 300.272727 
L 395.93856 300.272727 
L 396.610308 300.272727 
L 397.282057 300.272727 
L 397.953806 300.272727 
L 398.625555 300.272727 
L 399.297303 300.272727 
L 399.969052 300.272727 
L 400.640801 300.272727 
L 401.31255 300.272727 
L 401.984299 300.272727 
L 402.656047 300.272727 
L 403.327796 300.272727 
L 403.999545 300.272727 
L 404.671294 300.272727 
L 405.343042 300.272727 
L 406.014791 300.272727 
L 406.68654 300.272727 
L 408.701786 300.272727 
L 409.373535 300.272727 
L 410.045284 300.272727 
L 410.717033 300.272727 
L 411.388781 300.272727 
L 412.06053 300.272727 
L 412.732279 300.272727 
L 413.404028 300.272727 
L 414.075777 300.272727 
L 414.747525 300.272727 
L 415.419274 300.272727 
L 416.091023 300.272727 
L 416.762772 300.272727 
L 417.43452 300.272727 
L 418.106269 300.272727 
L 418.778018 300.272727 
L 419.449767 300.272727 
L 420.121516 300.272727 
L 420.793264 300.272727 
L 421.465013 300.272727 
L 422.136762 300.272727 
L 422.808511 300.272727 
L 423.480259 300.272727 
L 424.152008 300.272727 
L 424.823757 300.272727 
L 425.495506 300.272727 
L 426.167255 300.272727 
L 426.839003 300.272727 
L 427.510752 300.272727 
L 428.182501 300.272727 
L 428.85425 300.272727 
L 429.525998 300.272727 
L 430.197747 300.272727 
L 430.869496 300.272727 
L 431.541245 300.272727 
L 432.212994 300.272727 
L 432.884742 300.272727 
L 433.556491 300.272727 
L 434.22824 300.272727 
L 434.899989 300.272727 
L 435.571737 300.272727 
L 436.243486 300.272727 
L 436.915235 300.272727 
L 437.586984 300.272727 
L 438.258733 300.272727 
L 438.930481 300.272727 
L 439.60223 300.272727 
L 440.273979 300.272727 
L 440.945728 300.272727 
L 441.617476 300.272727 
L 442.289225 300.272727 
L 442.960974 300.272727 
L 443.632723 300.272727 
L 444.304471 300.272727 
L 444.97622 300.272727 
L 445.647969 300.272727 
L 446.319718 300.272727 
L 446.991467 300.272727 
L 447.663215 300.272727 
L 448.334964 300.272727 
L 449.006713 300.272727 
L 449.678462 300.272727 
L 450.35021 300.272727 
L 451.021959 300.272727 
L 451.693708 300.272727 
L 452.365457 300.272727 
L 453.037206 300.272727 
L 453.708954 300.272727 
L 454.380703 300.272727 
L 455.052452 300.272727 
L 455.724201 300.272727 
L 456.395949 300.272727 
L 457.067698 300.272727 
L 457.739447 300.272727 
L 458.411196 300.272727 
L 459.082945 300.272727 
L 459.754693 300.272727 
L 460.426442 300.272727 
L 461.098191 300.272727 
L 461.76994 300.272727 
L 462.441688 300.272727 
L 463.113437 300.272727 
L 463.785186 300.272727 
L 464.456935 300.272727 
L 465.128684 300.272727 
L 465.800432 300.272727 
L 466.472181 300.272727 
L 467.14393 300.272727 
L 467.815679 300.272727 
L 468.487427 300.272727 
L 469.159176 300.272727 
L 469.830925 300.272727 
L 470.502674 300.272727 
L 471.174423 300.272727 
L 471.846171 300.272727 
L 472.51792 300.272727 
L 473.189669 300.272727 
L 473.861418 300.272727 
L 474.533166 300.272727 
L 475.204915 300.272727 
L 475.876664 300.272727 
L 476.548413 300.272727 
L 477.220162 300.272727 
L 477.89191 300.272727 
L 478.563659 300.272727 
L 479.235408 300.272727 
L 479.907157 300.272727 
L 480.578905 300.272727 
L 481.250654 300.272727 
L 481.922403 300.272727 
L 482.594152 300.272727 
L 483.265901 300.272727 
L 483.937649 300.272727 
L 484.609398 300.272727 
L 485.281147 300.272727 
L 485.952896 300.272727 
L 486.624644 300.272727 
L 487.296393 300.272727 
L 487.968142 300.272727 
L 488.639891 300.272727 
L 489.31164 300.272727 
L 489.983388 300.272727 
L 490.655137 300.272727 
L 491.326886 300.272727 
L 491.998635 300.272727 
L 492.670383 300.272727 
L 493.342132 300.272727 
L 494.013881 300.272727 
L 494.68563 300.272727 
L 495.357379 300.272727 
L 496.029127 300.272727 
L 496.700876 300.272727 
L 497.372625 300.272727 
L 498.044374 300.272727 
L 498.716122 300.272727 
L 499.387871 300.272727 
L 500.05962 300.272727 
L 500.731369 300.272727 
L 501.403118 300.272727 
L 502.074866 300.272727 
L 502.746615 300.272727 
L 503.418364 300.272727 
L 504.090113 300.272727 
L 504.761861 300.272727 
L 505.43361 300.272727 
L 506.105359 300.272727 
L 506.777108 300.272727 
L 507.448857 300.272727 
L 508.120605 300.272727 
L 508.792354 300.272727 
L 509.464103 300.272727 
L 510.135852 300.272727 
L 510.8076 300.272727 
L 511.479349 300.272727 
L 512.151098 300.272727 
L 512.822847 300.272727 
L 513.494596 300.272727 
L 514.166344 300.272727 
L 514.838093 300.272727 
L 515.509842 300.272727 
L 516.181591 300.272727 
L 516.853339 300.272727 
L 517.525088 300.272727 
L 518.196837 300.272727 
L 518.868586 300.272727 
L 519.540335 300.272727 
L 520.212083 300.272727 
L 520.883832 300.272727 
L 522.22733 300.272727 
L 522.899078 300.272727 
L 523.570827 300.272727 
L 524.242576 300.272727 
L 524.914325 300.272727 
L 525.586074 300.272727 
L 526.257822 300.272727 
L 526.929571 300.272727 
L 527.60132 300.272727 
L 528.273069 300.272727 
L 528.944817 300.272727 
L 529.616566 300.272727 
L 530.288315 300.272727 
L 530.960064 300.272727 
L 531.631812 300.272727 
L 532.303561 300.272727 
L 532.97531 300.272727 
L 533.647059 300.272727 
L 534.318808 300.272727 
L 534.990556 300.272727 
L 535.662305 300.272727 
L 536.334054 300.272727 
L 537.005803 300.272727 
L 537.677551 300.272727 
L 538.3493 300.272727 
L 539.021049 300.272727 
L 539.692798 300.272727 
L 540.364547 300.272727 
L 541.036295 300.272727 
L 541.708044 300.272727 
L 542.379793 300.272727 
L 543.051542 300.272727 
L 543.72329 300.272727 
L 544.395039 300.272727 
L 545.066788 300.272727 
L 545.738537 300.272727 
L 546.410286 300.272727 
L 547.082034 300.272727 
L 547.753783 300.272727 
L 548.425532 300.272727 
L 549.097281 300.272727 
L 549.769029 300.272727 
L 550.440778 300.272727 
L 551.112527 300.272727 
L 551.784276 300.272727 
L 552.456025 300.272727 
L 553.127773 300.272727 
L 553.799522 300.272727 
L 554.471271 300.272727 
L 555.14302 300.272727 
L 555.814768 300.272727 
L 556.486517 300.272727 
L 557.158266 300.272727 
L 557.830015 300.272727 
L 558.501764 300.272727 
L 559.173512 300.272727 
L 559.845261 300.272727 
L 560.51701 300.272727 
L 561.188759 300.272727 
L 561.860507 300.272727 
L 562.532256 300.272727 
L 563.204005 300.272727 
L 563.875754 300.272727 
L 564.547503 300.272727 
L 565.219251 300.272727 
L 565.891 300.272727 
L 566.562749 300.272727 
L 567.234498 300.272727 
L 567.906246 300.272727 
L 568.577995 300.272727 
L 569.249744 300.272727 
L 569.921493 300.272727 
L 570.593242 300.272727 
L 571.26499 300.272727 
L 571.936739 300.272727 
L 572.608488 300.272727 
L 573.280237 300.272727 
L 573.951985 300.272727 
L 574.623734 300.272727 
L 575.295483 300.272727 
L 575.967232 300.272727 
L 576.638981 300.272727 
L 577.310729 300.272727 
L 577.982478 300.272727 
L 578.654227 300.272727 
L 579.325976 300.272727 
L 579.997724 300.272727 
L 580.669473 300.272727 
L 581.341222 300.272727 
L 582.012971 300.272727 
L 582.68472 300.272727 
L 583.356468 300.272727 
L 584.028217 300.272727 
L 584.699966 300.272727 
L 585.371715 300.272727 
L 586.043463 300.272727 
L 586.715212 300.272727 
L 587.386961 300.272727 
L 588.05871 300.272727 
L 588.730459 300.272727 
L 589.402207 300.272727 
L 590.073956 300.272727 
L 590.745705 300.272727 
L 591.417454 300.272727 
L 592.089202 300.272727 
L 592.760951 300.272727 
L 593.4327 300.272727 
L 594.104449 300.272727 
L 594.776198 300.272727 
L 595.447946 300.272727 
L 596.119695 300.272727 
L 596.791444 300.272727 
L 597.463193 300.272727 
L 598.134941 300.272727 
L 598.80669 300.272727 
L 599.478439 300.272727 
L 600.150188 300.272727 
L 600.821937 300.272727 
L 601.493685 300.272727 
L 602.165434 300.272727 
L 602.837183 300.272727 
L 603.508932 300.272727 
L 604.18068 300.272727 
L 604.852429 300.272727 
L 605.524178 300.272727 
L 606.195927 300.272727 
L 606.867676 300.272727 
L 607.539424 300.272727 
L 608.211173 300.272727 
L 608.882922 300.272727 
L 609.554671 300.272727 
L 610.226419 300.272727 
L 610.898168 300.272727 
L 611.569917 300.272727 
L 612.241666 300.272727 
L 612.913414 300.272727 
L 613.585163 300.272727 
L 614.256912 300.272727 
L 614.928661 300.272727 
L 615.60041 300.272727 
L 616.272158 300.272727 
L 616.943907 300.272727 
L 617.615656 300.272727 
L 618.287405 300.272727 
L 618.959153 300.272727 
L 619.630902 300.272727 
L 620.302651 300.272727 
L 620.9744 300.272727 
L 621.646149 300.272727 
L 622.317897 300.272727 
L 622.989646 300.272727 
L 623.661395 300.272727 
L 624.333144 300.272727 
L 625.004892 300.272727 
L 625.676641 300.272727 
L 626.34839 300.272727 
L 627.020139 300.272727 
L 627.691888 300.272727 
L 628.363636 300.272727 
L 628.363636 300.272727 
L 628.363636 299.221729 
L 627.691888 298.170732 
L 627.020139 296.068736 
L 626.34839 295.543237 
L 625.676641 297.119734 
L 625.004892 298.170732 
L 624.333144 297.645233 
L 623.661395 297.119734 
L 622.989646 295.017738 
L 622.317897 295.017738 
L 621.646149 293.966741 
L 620.9744 294.492239 
L 620.302651 289.762749 
L 619.630902 295.543237 
L 618.959153 297.645233 
L 618.287405 296.068736 
L 617.615656 297.645233 
L 616.943907 297.645233 
L 616.272158 295.543237 
L 615.60041 295.543237 
L 614.928661 296.594235 
L 614.256912 297.645233 
L 613.585163 296.594235 
L 612.913414 259.809313 
L 612.241666 287.660754 
L 611.569917 287.660754 
L 610.898168 291.339246 
L 610.226419 293.441242 
L 609.554671 270.31929 
L 608.882922 297.645233 
L 608.211173 295.017738 
L 607.539424 295.017738 
L 606.867676 297.645233 
L 606.195927 296.594235 
L 605.524178 297.645233 
L 604.852429 297.645233 
L 604.18068 297.119734 
L 603.508932 297.645233 
L 602.837183 281.354767 
L 602.165434 296.594235 
L 601.493685 290.288248 
L 600.821937 298.170732 
L 600.150188 297.119734 
L 599.478439 271.895787 
L 598.80669 297.119734 
L 598.134941 296.594235 
L 597.463193 297.119734 
L 596.791444 281.880266 
L 596.119695 292.390244 
L 595.447946 298.170732 
L 594.776198 295.017738 
L 594.104449 296.594235 
L 593.4327 268.217295 
L 592.760951 248.773836 
L 592.089202 268.217295 
L 591.417454 292.915743 
L 590.745705 290.813747 
L 590.073956 238.789357 
L 589.402207 240.365854 
L 588.730459 295.543237 
L 588.05871 296.068736 
L 587.386961 297.119734 
L 586.715212 296.594235 
L 586.043463 297.645233 
L 585.371715 296.594235 
L 584.699966 294.492239 
L 584.028217 297.645233 
L 583.356468 298.170732 
L 582.68472 266.640798 
L 582.012971 298.170732 
L 581.341222 291.864745 
L 580.669473 297.119734 
L 579.997724 295.543237 
L 579.325976 297.119734 
L 578.654227 297.119734 
L 577.982478 294.492239 
L 577.310729 296.594235 
L 576.638981 296.594235 
L 575.967232 294.492239 
L 575.295483 278.727273 
L 574.623734 298.696231 
L 573.951985 292.915743 
L 573.280237 295.017738 
L 572.608488 295.017738 
L 571.936739 296.068736 
L 571.26499 278.727273 
L 570.593242 260.86031 
L 569.921493 277.150776 
L 569.249744 290.288248 
L 568.577995 295.543237 
L 567.906246 295.543237 
L 567.234498 296.068736 
L 566.562749 292.915743 
L 565.891 292.915743 
L 565.219251 294.492239 
L 564.547503 282.405765 
L 563.875754 261.385809 
L 563.204005 290.813747 
L 562.532256 255.079823 
L 561.860507 251.926829 
L 561.188759 288.711752 
L 560.51701 292.390244 
L 559.845261 249.299335 
L 559.173512 290.813747 
L 558.501764 285.558758 
L 557.830015 290.813747 
L 557.158266 293.966741 
L 556.486517 289.762749 
L 555.814768 294.492239 
L 555.14302 278.201774 
L 554.471271 292.915743 
L 553.799522 296.594235 
L 553.127773 296.594235 
L 552.456025 297.119734 
L 551.784276 295.543237 
L 551.112527 274.523282 
L 550.440778 262.962306 
L 549.769029 272.421286 
L 549.097281 296.068736 
L 548.425532 293.441242 
L 547.753783 290.813747 
L 547.082034 291.339246 
L 546.410286 298.170732 
L 545.738537 292.915743 
L 545.066788 296.594235 
L 544.395039 298.170732 
L 543.72329 296.068736 
L 543.051542 266.115299 
L 542.379793 266.115299 
L 541.708044 264.538803 
L 541.036295 230.906874 
L 540.364547 264.013304 
L 539.692798 298.170732 
L 539.021049 298.170732 
L 538.3493 293.966741 
L 537.677551 297.119734 
L 537.005803 274.523282 
L 536.334054 230.381375 
L 535.662305 251.926829 
L 534.990556 298.170732 
L 534.318808 297.119734 
L 533.647059 298.170732 
L 532.97531 288.711752 
L 532.303561 293.441242 
L 531.631812 290.813747 
L 530.960064 291.339246 
L 530.288315 293.441242 
L 529.616566 292.390244 
L 528.944817 293.966741 
L 528.273069 296.594235 
L 527.60132 298.170732 
L 526.929571 295.543237 
L 526.257822 297.645233 
L 525.586074 297.119734 
L 524.914325 296.594235 
L 524.242576 296.594235 
L 523.570827 297.119734 
L 522.899078 295.543237 
L 522.22733 288.186253 
L 520.883832 298.170732 
L 520.212083 297.119734 
L 519.540335 297.119734 
L 518.868586 297.119734 
L 518.196837 290.813747 
L 517.525088 298.170732 
L 516.853339 297.119734 
L 516.181591 297.119734 
L 515.509842 298.170732 
L 514.838093 298.170732 
L 514.166344 296.068736 
L 513.494596 299.221729 
L 512.822847 298.170732 
L 512.151098 288.186253 
L 511.479349 298.170732 
L 510.8076 297.119734 
L 510.135852 296.594235 
L 509.464103 295.543237 
L 508.792354 295.017738 
L 508.120605 297.645233 
L 507.448857 295.017738 
L 506.777108 297.119734 
L 506.105359 297.645233 
L 505.43361 297.119734 
L 504.761861 293.441242 
L 504.090113 297.645233 
L 503.418364 295.543237 
L 502.746615 297.119734 
L 502.074866 296.594235 
L 501.403118 295.017738 
L 500.731369 256.656319 
L 500.05962 279.252772 
L 499.387871 283.456763 
L 498.716122 293.966741 
L 498.044374 266.115299 
L 497.372625 298.170732 
L 496.700876 294.492239 
L 496.029127 297.119734 
L 495.357379 295.017738 
L 494.68563 293.966741 
L 494.013881 295.017738 
L 493.342132 295.017738 
L 492.670383 297.119734 
L 491.998635 296.594235 
L 491.326886 232.48337 
L 490.655137 173.627494 
L 489.983388 204.10643 
L 489.31164 233.008869 
L 488.639891 297.119734 
L 487.968142 294.492239 
L 487.296393 292.390244 
L 486.624644 229.855876 
L 485.952896 241.94235 
L 485.281147 292.390244 
L 484.609398 293.441242 
L 483.937649 288.711752 
L 483.265901 285.033259 
L 482.594152 228.279379 
L 481.922403 226.177384 
L 481.250654 290.813747 
L 480.578905 291.339246 
L 479.907157 287.660754 
L 479.235408 289.237251 
L 478.563659 293.966741 
L 477.89191 295.017738 
L 477.220162 285.558758 
L 476.548413 292.915743 
L 475.876664 269.268293 
L 475.204915 200.953437 
L 474.533166 234.585366 
L 473.861418 295.543237 
L 473.189669 197.274945 
L 472.51792 185.18847 
L 471.846171 294.492239 
L 471.174423 288.711752 
L 470.502674 297.119734 
L 469.830925 270.844789 
L 469.159176 298.170732 
L 468.487427 245.620843 
L 467.815679 247.722838 
L 467.14393 296.068736 
L 466.472181 298.170732 
L 465.800432 297.119734 
L 465.128684 295.543237 
L 464.456935 298.170732 
L 463.785186 294.492239 
L 463.113437 293.441242 
L 462.441688 296.068736 
L 461.76994 200.953437 
L 461.098191 208.83592 
L 460.426442 266.640798 
L 459.754693 294.492239 
L 459.082945 282.931264 
L 458.411196 266.115299 
L 457.739447 243.518847 
L 457.067698 242.993348 
L 456.395949 205.157428 
L 455.724201 234.585366 
L 455.052452 273.472284 
L 454.380703 206.208426 
L 453.708954 248.248337 
L 453.037206 280.303769 
L 452.365457 287.660754 
L 451.693708 296.594235 
L 451.021959 295.543237 
L 450.35021 293.966741 
L 449.678462 296.068736 
L 449.006713 294.492239 
L 448.334964 287.135255 
L 447.663215 255.605322 
L 446.991467 290.288248 
L 446.319718 298.170732 
L 445.647969 295.543237 
L 444.97622 293.966741 
L 444.304471 287.660754 
L 443.632723 297.645233 
L 442.960974 296.068736 
L 442.289225 296.068736 
L 441.617476 295.543237 
L 440.945728 285.033259 
L 440.273979 296.068736 
L 439.60223 273.997783 
L 438.930481 285.558758 
L 438.258733 293.966741 
L 437.586984 293.966741 
L 436.915235 296.594235 
L 436.243486 296.594235 
L 435.571737 296.594235 
L 434.899989 287.660754 
L 434.22824 256.13082 
L 433.556491 247.197339 
L 432.884742 273.472284 
L 432.212994 288.711752 
L 431.541245 291.864745 
L 430.869496 278.727273 
L 430.197747 255.605322 
L 429.525998 244.044346 
L 428.85425 248.773836 
L 428.182501 248.248337 
L 427.510752 239.840355 
L 426.839003 294.492239 
L 426.167255 291.339246 
L 425.495506 254.554324 
L 424.823757 287.660754 
L 424.152008 288.186253 
L 423.480259 253.503326 
L 422.808511 295.017738 
L 422.136762 287.135255 
L 421.465013 290.813747 
L 420.793264 248.773836 
L 420.121516 225.126386 
L 419.449767 239.314856 
L 418.778018 266.640798 
L 418.106269 285.033259 
L 417.43452 290.288248 
L 416.762772 296.068736 
L 416.091023 248.248337 
L 415.419274 266.115299 
L 414.747525 283.982262 
L 414.075777 233.008869 
L 413.404028 238.263858 
L 412.732279 265.5898 
L 412.06053 271.370288 
L 411.388781 176.780488 
L 410.717033 289.762749 
L 410.045284 262.962306 
L 409.373535 202.529933 
L 408.701786 201.478936 
L 406.68654 273.472284 
L 406.014791 236.687361 
L 405.343042 191.494457 
L 404.671294 242.467849 
L 403.999545 243.518847 
L 403.327796 286.084257 
L 402.656047 272.421286 
L 401.984299 270.844789 
L 401.31255 174.152993 
L 400.640801 222.498891 
L 399.969052 282.405765 
L 399.297303 259.809313 
L 398.625555 265.5898 
L 397.953806 182.560976 
L 397.282057 228.804878 
L 396.610308 270.31929 
L 395.93856 228.279379 
L 395.266811 219.871397 
L 394.595062 237.21286 
L 393.923313 254.028825 
L 393.251564 262.962306 
L 392.579816 217.769401 
L 391.908067 213.039911 
L 391.236318 236.687361 
L 390.564569 224.600887 
L 389.892821 212.514412 
L 389.221072 265.5898 
L 388.549323 178.882483 
L 387.877574 219.871397 
L 387.205825 232.48337 
L 386.534077 209.886918 
L 385.862328 104.78714 
L 385.190579 246.146341 
L 384.51883 265.064302 
L 383.847082 189.91796 
L 383.175333 188.341463 
L 382.503584 239.840355 
L 381.831835 168.372506 
L 381.160086 67.476718 
L 379.816589 228.279379 
L 379.14484 244.044346 
L 378.473091 204.631929 
L 377.801343 220.396896 
L 377.129594 178.882483 
L 376.457845 160.490022 
L 375.786096 189.392461 
L 375.114347 262.962306 
L 367.053362 198.851441 
L 366.381613 188.866962 
L 365.709865 256.13082 
L 365.038116 288.711752 
L 364.366367 278.201774 
L 363.694618 276.625277 
L 363.022869 273.472284 
L 362.351121 247.197339 
L 361.679372 275.04878 
L 361.007623 285.033259 
L 360.335874 288.186253 
L 359.664126 251.926829 
L 358.992377 196.749446 
L 358.320628 142.62306 
L 357.648879 58.017738 
L 356.977131 161.54102 
L 356.305382 275.04878 
L 355.633633 275.574279 
L 354.961884 281.354767 
L 354.290135 270.844789 
L 353.618387 242.993348 
L 352.946638 272.946785 
L 352.274889 279.778271 
L 351.60314 286.609756 
L 350.931392 287.135255 
L 350.259643 289.237251 
L 349.587894 283.982262 
L 348.916145 274.523282 
L 348.244396 169.949002 
L 347.572648 167.321508 
L 346.900899 201.478936 
L 346.22915 190.443459 
L 345.557401 214.616408 
L 344.885653 279.778271 
L 344.213904 272.421286 
L 343.542155 241.416851 
L 342.870406 284.507761 
L 342.198657 273.997783 
L 341.526909 270.31929 
L 340.85516 254.554324 
L 340.183411 190.968958 
L 339.511662 198.851441 
L 338.839914 247.197339 
L 338.168165 204.631929 
L 337.496416 196.749446 
L 336.824667 180.45898 
L 336.152918 173.627494 
L 335.48117 171.525499 
L 334.809421 185.713969 
L 334.137672 144.725055 
L 333.465923 117.924612 
L 332.794175 171.525499 
L 332.122426 195.172949 
L 331.450677 190.443459 
L 330.778928 162.066519 
L 330.107179 179.933481 
L 329.435431 204.631929 
L 328.763682 149.454545 
L 328.091933 122.128603 
L 327.420184 157.337029 
L 326.748436 209.886918 
L 326.076687 210.937916 
L 325.404938 186.239468 
L 324.733189 207.259424 
L 324.06144 235.110865 
L 323.389692 292.390244 
L 322.717943 287.135255 
L 322.046194 230.906874 
L 321.374445 234.585366 
L 320.702697 288.711752 
L 320.030948 284.507761 
L 319.359199 229.855876 
L 318.68745 282.931264 
L 318.015701 289.762749 
L 317.343953 280.829268 
L 316.672204 262.962306 
L 316.000455 237.738359 
L 315.328706 291.864745 
L 314.656958 284.507761 
L 313.985209 286.609756 
L 313.31346 290.288248 
L 312.641711 213.56541 
L 311.969962 249.299335 
L 311.298214 292.390244 
L 310.626465 276.099778 
L 309.954716 272.421286 
L 309.282967 272.421286 
L 308.611219 287.660754 
L 307.93947 286.084257 
L 307.267721 291.864745 
L 306.595972 287.660754 
L 305.924223 288.186253 
L 305.252475 282.931264 
L 304.580726 291.864745 
L 303.908977 282.405765 
L 303.237228 290.813747 
L 302.56548 235.636364 
L 301.893731 258.758315 
L 301.221982 289.762749 
L 300.550233 230.381375 
L 299.878484 255.079823 
L 299.206736 288.711752 
L 298.534987 279.778271 
L 297.863238 290.288248 
L 297.191489 277.150776 
L 296.519741 256.13082 
L 295.847992 285.558758 
L 295.176243 290.813747 
L 294.504494 286.084257 
L 293.832745 284.507761 
L 293.160997 292.390244 
L 292.489248 279.778271 
L 291.817499 280.829268 
L 291.14575 271.895787 
L 290.474002 276.625277 
L 289.802253 276.099778 
L 289.130504 253.503326 
L 288.458755 275.574279 
L 287.787006 287.135255 
L 287.115258 265.5898 
L 286.443509 268.217295 
L 285.77176 213.039911 
L 285.100011 143.674058 
L 284.428263 189.392461 
L 283.756514 180.45898 
L 283.084765 292.915743 
L 282.413016 268.742794 
L 281.741267 268.217295 
L 281.069519 291.339246 
L 280.39777 291.339246 
L 279.726021 286.084257 
L 279.054272 270.31929 
L 278.382524 259.283814 
L 277.710775 261.385809 
L 277.039026 291.339246 
L 276.367277 291.864745 
L 275.695529 285.033259 
L 275.02378 251.926829 
L 274.352031 290.813747 
L 273.680282 287.660754 
L 273.008533 241.416851 
L 272.336785 261.385809 
L 271.665036 279.778271 
L 270.993287 284.507761 
L 270.321538 280.829268 
L 269.64979 267.691796 
L 268.978041 287.660754 
L 268.306292 271.895787 
L 267.634543 278.727273 
L 266.962794 285.033259 
L 266.291046 285.558758 
L 265.619297 284.507761 
L 264.947548 281.880266 
L 264.275799 222.498891 
L 263.604051 258.232816 
L 262.932302 262.436807 
L 262.260553 282.931264 
L 261.588804 278.201774 
L 260.917055 267.691796 
L 260.245307 279.778271 
L 259.573558 242.993348 
L 258.901809 264.013304 
L 258.23006 277.676275 
L 257.558312 267.166297 
L 256.886563 275.574279 
L 256.214814 280.303769 
L 255.543065 207.784922 
L 254.871316 270.31929 
L 254.199568 278.201774 
L 253.527819 272.421286 
L 252.85607 273.997783 
L 252.184321 268.742794 
L 251.512573 265.5898 
L 250.840824 250.875831 
L 250.169075 224.600887 
L 249.497326 224.600887 
L 248.825577 235.110865 
L 248.153829 276.099778 
L 247.48208 270.31929 
L 246.810331 234.059867 
L 246.138582 186.764967 
L 245.466834 176.780488 
L 244.795085 226.702882 
L 244.123336 267.166297 
L 243.451587 270.844789 
L 242.779838 285.558758 
L 242.10809 229.330377 
L 241.436341 279.778271 
L 240.764592 279.252772 
L 240.092843 252.977827 
L 239.421095 269.793792 
L 238.749346 196.749446 
L 238.077597 222.498891 
L 237.405848 209.361419 
L 236.734099 235.636364 
L 236.062351 254.554324 
L 235.390602 267.691796 
L 234.718853 267.166297 
L 234.047104 277.676275 
L 233.375356 276.099778 
L 232.703607 244.044346 
L 232.031858 195.172949 
L 230.68836 277.150776 
L 230.016612 264.538803 
L 229.344863 247.722838 
L 228.673114 240.891353 
L 228.001365 261.911308 
L 227.329617 268.217295 
L 226.657868 242.467849 
L 225.986119 268.217295 
L 225.31437 247.197339 
L 224.642621 251.926829 
L 223.970873 230.906874 
L 223.299124 233.008869 
L 222.627375 246.67184 
L 221.955626 239.840355 
L 221.283878 203.055432 
L 220.612129 83.241685 
L 219.94038 167.321508 
L 219.268631 166.796009 
L 218.596882 161.54102 
L 217.925134 150.505543 
L 217.253385 260.86031 
L 216.581636 213.56541 
L 215.909887 257.181818 
L 215.238139 272.421286 
L 214.56639 269.268293 
L 213.894641 276.625277 
L 213.222892 268.217295 
L 212.551143 280.829268 
L 211.879395 237.21286 
L 211.207646 267.691796 
L 210.535897 270.31929 
L 209.864148 283.982262 
L 209.1924 227.228381 
L 208.520651 211.988914 
L 207.848902 266.640798 
L 207.177153 191.494457 
L 206.505404 197.800443 
L 205.833656 184.137472 
L 205.161907 199.902439 
L 204.490158 214.090909 
L 203.818409 199.37694 
L 203.146661 157.337029 
L 202.474912 220.396896 
L 201.803163 256.656319 
L 201.131414 280.303769 
L 200.459665 261.911308 
L 199.787917 277.676275 
L 199.116168 262.436807 
L 198.444419 276.625277 
L 197.77267 277.150776 
L 197.100922 267.166297 
L 196.429173 265.5898 
L 195.757424 269.268293 
L 195.085675 239.840355 
L 194.413926 261.385809 
L 193.742178 261.911308 
L 193.070429 255.605322 
L 192.39868 275.04878 
L 191.726931 279.778271 
L 191.055183 265.5898 
L 190.383434 235.110865 
L 189.711685 190.968958 
L 189.039936 242.993348 
L 188.368188 178.356984 
L 187.696439 180.45898 
L 187.02469 269.793792 
L 186.352941 287.135255 
L 185.681192 142.097561 
L 185.009444 124.230599 
L 184.337695 223.02439 
L 183.665946 249.299335 
L 182.994197 277.676275 
L 182.322449 287.660754 
L 181.6507 279.778271 
L 180.978951 202.529933 
L 180.307202 277.150776 
L 179.635453 257.181818 
L 178.963705 265.064302 
L 178.291956 282.931264 
L 177.620207 279.778271 
L 176.948458 278.201774 
L 176.27671 258.758315 
L 175.604961 241.94235 
L 174.933212 285.033259 
L 174.261463 285.558758 
L 173.589714 255.605322 
L 172.917966 192.545455 
L 172.246217 209.361419 
L 170.902719 268.742794 
L 170.230971 237.21286 
L 169.559222 224.075388 
L 168.887473 282.931264 
L 168.215724 271.370288 
L 167.543975 287.135255 
L 166.872227 253.503326 
L 166.200478 292.390244 
L 165.528729 285.558758 
L 164.85698 280.303769 
L 164.185232 282.405765 
L 163.513483 286.084257 
L 162.841734 272.421286 
L 162.169985 282.405765 
L 161.498236 277.676275 
L 160.826488 256.13082 
L 160.154739 286.084257 
L 159.48299 279.252772 
L 158.811241 236.687361 
L 158.139493 232.48337 
L 157.467744 286.609756 
L 156.795995 255.605322 
L 156.124246 254.028825 
L 155.452497 234.585366 
L 154.780749 255.079823 
L 154.109 282.931264 
L 153.437251 286.084257 
L 152.765502 286.609756 
L 152.093754 266.640798 
L 151.422005 288.186253 
L 150.750256 194.121951 
L 150.078507 41.727273 
L 149.406758 128.43459 
L 148.73501 74.308204 
L 148.063261 84.818182 
L 147.391512 160.490022 
L 146.719763 115.822616 
L 146.048015 244.044346 
L 145.376266 271.895787 
L 144.704517 293.441242 
L 144.032768 229.330377 
L 143.361019 192.019956 
L 142.689271 189.392461 
L 142.017522 194.121951 
L 141.345773 185.713969 
L 140.674024 210.937916 
L 140.002276 211.463415 
L 139.330527 210.937916 
L 138.658778 240.891353 
L 137.987029 288.186253 
L 137.31528 279.252772 
L 136.643532 286.084257 
L 135.971783 276.625277 
L 135.300034 270.844789 
L 134.628285 269.268293 
L 133.956537 250.350333 
L 133.284788 282.405765 
L 132.613039 280.829268 
L 131.94129 255.079823 
L 131.269541 271.370288 
L 130.597793 257.181818 
L 129.926044 242.993348 
L 129.254295 269.793792 
L 128.582546 236.161863 
L 127.910798 261.911308 
L 127.239049 159.439024 
L 126.5673 96.379157 
L 125.895551 186.764967 
L 125.223802 187.290466 
L 124.552054 190.968958 
L 123.880305 196.223947 
L 123.208556 166.27051 
L 122.536807 190.968958 
L 121.865059 169.423503 
L 121.19331 183.086475 
L 120.521561 182.560976 
L 119.849812 192.545455 
L 119.178063 182.560976 
L 118.506315 228.804878 
L 117.834566 278.201774 
L 117.162817 194.121951 
L 116.491068 189.91796 
L 115.81932 177.831486 
L 115.147571 179.407982 
L 114.475822 203.055432 
L 113.804073 204.631929 
L 113.132324 128.960089 
L 112.460576 155.235033 
L 111.788827 66.95122 
L 111.117078 100.583149 
L 110.445329 119.501109 
L 109.773581 143.674058 
L 109.101832 203.055432 
L 108.430083 200.953437 
L 107.758334 209.886918 
L 107.086586 265.064302 
L 106.414837 283.982262 
L 105.743088 283.456763 
L 105.071339 188.866962 
L 104.39959 115.822616 
L 103.727842 139.995565 
L 103.056093 140.521064 
L 102.384344 197.274945 
L 101.712595 205.157428 
L 101.040847 204.631929 
L 100.369098 140.521064 
L 99.697349 208.310421 
L 99.0256 265.5898 
L 98.353851 238.263858 
L 97.682103 255.605322 
L 97.010354 285.558758 
L 94.995108 284.507761 
L 94.323359 197.274945 
L 93.65161 228.804878 
L 92.979861 262.962306 
L 92.308112 280.303769 
L 91.636364 275.04878 
z
" style="fill:#ffa07a;fill-opacity:0.3;"/>
   </g>
   <g id="matplotlib.axis_1">
    <g id="xtick_1">
     <g id="line2d_1">
      <path clip-path="url(#p840351e169)" d="M 91.636364 313.2 
L 91.636364 28.8 
" style="fill:none;stroke:#808080;stroke-dasharray:6.4,1.6,1,1.6;stroke-dashoffset:0;stroke-opacity:0.3;"/>
     </g>
     <g id="line2d_2">
      <defs>
       <path d="M 0 0 
L 0 3.5 
" id="m43aaa1a82c" style="stroke:#000000;stroke-width:0.8;"/>
      </defs>
      <g>
       <use style="stroke:#000000;stroke-width:0.8;" x="91.636364" xlink:href="#m43aaa1a82c" y="313.2"/>
      </g>
     </g>
     <g id="text_1">
      <!-- 2020-11-20 -->
      <g transform="translate(62.578551 327.798437)scale(0.1 -0.1)">
       <defs>
        <path d="M 19.1875 8.296875 
L 53.609375 8.296875 
L 53.609375 0 
L 7.328125 0 
L 7.328125 8.296875 
Q 12.9375 14.109375 22.625 23.890625 
Q 32.328125 33.6875 34.8125 36.53125 
Q 39.546875 41.84375 41.421875 45.53125 
Q 43.3125 49.21875 43.3125 52.78125 
Q 43.3125 58.59375 39.234375 62.25 
Q 35.15625 65.921875 28.609375 65.921875 
Q 23.96875 65.921875 18.8125 64.3125 
Q 13.671875 62.703125 7.8125 59.421875 
L 7.8125 69.390625 
Q 13.765625 71.78125 18.9375 73 
Q 24.125 74.21875 28.421875 74.21875 
Q 39.75 74.21875 46.484375 68.546875 
Q 53.21875 62.890625 53.21875 53.421875 
Q 53.21875 48.921875 51.53125 44.890625 
Q 49.859375 40.875 45.40625 35.40625 
Q 44.1875 33.984375 37.640625 27.21875 
Q 31.109375 20.453125 19.1875 8.296875 
z
" id="DejaVuSans-50"/>
        <path d="M 31.78125 66.40625 
Q 24.171875 66.40625 20.328125 58.90625 
Q 16.5 51.421875 16.5 36.375 
Q 16.5 21.390625 20.328125 13.890625 
Q 24.171875 6.390625 31.78125 6.390625 
Q 39.453125 6.390625 43.28125 13.890625 
Q 47.125 21.390625 47.125 36.375 
Q 47.125 51.421875 43.28125 58.90625 
Q 39.453125 66.40625 31.78125 66.40625 
z
M 31.78125 74.21875 
Q 44.046875 74.21875 50.515625 64.515625 
Q 56.984375 54.828125 56.984375 36.375 
Q 56.984375 17.96875 50.515625 8.265625 
Q 44.046875 -1.421875 31.78125 -1.421875 
Q 19.53125 -1.421875 13.0625 8.265625 
Q 6.59375 17.96875 6.59375 36.375 
Q 6.59375 54.828125 13.0625 64.515625 
Q 19.53125 74.21875 31.78125 74.21875 
z
" id="DejaVuSans-48"/>
        <path d="M 4.890625 31.390625 
L 31.203125 31.390625 
L 31.203125 23.390625 
L 4.890625 23.390625 
z
" id="DejaVuSans-45"/>
        <path d="M 12.40625 8.296875 
L 28.515625 8.296875 
L 28.515625 63.921875 
L 10.984375 60.40625 
L 10.984375 69.390625 
L 28.421875 72.90625 
L 38.28125 72.90625 
L 38.28125 8.296875 
L 54.390625 8.296875 
L 54.390625 0 
L 12.40625 0 
z
" id="DejaVuSans-49"/>
       </defs>
       <use xlink:href="#DejaVuSans-50"/>
       <use x="63.623047" xlink:href="#DejaVuSans-48"/>
       <use x="127.246094" xlink:href="#DejaVuSans-50"/>
       <use x="190.869141" xlink:href="#DejaVuSans-48"/>
       <use x="254.492188" xlink:href="#DejaVuSans-45"/>
       <use x="290.576172" xlink:href="#DejaVuSans-49"/>
       <use x="354.199219" xlink:href="#DejaVuSans-49"/>
       <use x="417.822266" xlink:href="#DejaVuSans-45"/>
       <use x="453.90625" xlink:href="#DejaVuSans-50"/>
       <use x="517.529297" xlink:href="#DejaVuSans-48"/>
      </g>
     </g>
    </g>
    <g id="xtick_2">
     <g id="line2d_3">
      <path clip-path="url(#p840351e169)" d="M 168.215724 313.2 
L 168.215724 28.8 
" style="fill:none;stroke:#808080;stroke-dasharray:6.4,1.6,1,1.6;stroke-dashoffset:0;stroke-opacity:0.3;"/>
     </g>
     <g id="line2d_4">
      <g>
       <use style="stroke:#000000;stroke-width:0.8;" x="168.215724" xlink:href="#m43aaa1a82c" y="313.2"/>
      </g>
     </g>
     <g id="text_2">
      <!-- 2021-03-14 -->
      <g transform="translate(139.157912 327.798437)scale(0.1 -0.1)">
       <defs>
        <path d="M 40.578125 39.3125 
Q 47.65625 37.796875 51.625 33 
Q 55.609375 28.21875 55.609375 21.1875 
Q 55.609375 10.40625 48.1875 4.484375 
Q 40.765625 -1.421875 27.09375 -1.421875 
Q 22.515625 -1.421875 17.65625 -0.515625 
Q 12.796875 0.390625 7.625 2.203125 
L 7.625 11.71875 
Q 11.71875 9.328125 16.59375 8.109375 
Q 21.484375 6.890625 26.8125 6.890625 
Q 36.078125 6.890625 40.9375 10.546875 
Q 45.796875 14.203125 45.796875 21.1875 
Q 45.796875 27.640625 41.28125 31.265625 
Q 36.765625 34.90625 28.71875 34.90625 
L 20.21875 34.90625 
L 20.21875 43.015625 
L 29.109375 43.015625 
Q 36.375 43.015625 40.234375 45.921875 
Q 44.09375 48.828125 44.09375 54.296875 
Q 44.09375 59.90625 40.109375 62.90625 
Q 36.140625 65.921875 28.71875 65.921875 
Q 24.65625 65.921875 20.015625 65.03125 
Q 15.375 64.15625 9.8125 62.3125 
L 9.8125 71.09375 
Q 15.4375 72.65625 20.34375 73.4375 
Q 25.25 74.21875 29.59375 74.21875 
Q 40.828125 74.21875 47.359375 69.109375 
Q 53.90625 64.015625 53.90625 55.328125 
Q 53.90625 49.265625 50.4375 45.09375 
Q 46.96875 40.921875 40.578125 39.3125 
z
" id="DejaVuSans-51"/>
        <path d="M 37.796875 64.3125 
L 12.890625 25.390625 
L 37.796875 25.390625 
z
M 35.203125 72.90625 
L 47.609375 72.90625 
L 47.609375 25.390625 
L 58.015625 25.390625 
L 58.015625 17.1875 
L 47.609375 17.1875 
L 47.609375 0 
L 37.796875 0 
L 37.796875 17.1875 
L 4.890625 17.1875 
L 4.890625 26.703125 
z
" id="DejaVuSans-52"/>
       </defs>
       <use xlink:href="#DejaVuSans-50"/>
       <use x="63.623047" xlink:href="#DejaVuSans-48"/>
       <use x="127.246094" xlink:href="#DejaVuSans-50"/>
       <use x="190.869141" xlink:href="#DejaVuSans-49"/>
       <use x="254.492188" xlink:href="#DejaVuSans-45"/>
       <use x="290.576172" xlink:href="#DejaVuSans-48"/>
       <use x="354.199219" xlink:href="#DejaVuSans-51"/>
       <use x="417.822266" xlink:href="#DejaVuSans-45"/>
       <use x="453.90625" xlink:href="#DejaVuSans-49"/>
       <use x="517.529297" xlink:href="#DejaVuSans-52"/>
      </g>
     </g>
    </g>
    <g id="xtick_3">
     <g id="line2d_5">
      <path clip-path="url(#p840351e169)" d="M 244.795085 313.2 
L 244.795085 28.8 
" style="fill:none;stroke:#808080;stroke-dasharray:6.4,1.6,1,1.6;stroke-dashoffset:0;stroke-opacity:0.3;"/>
     </g>
     <g id="line2d_6">
      <g>
       <use style="stroke:#000000;stroke-width:0.8;" x="244.795085" xlink:href="#m43aaa1a82c" y="313.2"/>
      </g>
     </g>
     <g id="text_3">
      <!-- 2021-07-06 -->
      <g transform="translate(215.737272 327.798437)scale(0.1 -0.1)">
       <defs>
        <path d="M 8.203125 72.90625 
L 55.078125 72.90625 
L 55.078125 68.703125 
L 28.609375 0 
L 18.3125 0 
L 43.21875 64.59375 
L 8.203125 64.59375 
z
" id="DejaVuSans-55"/>
        <path d="M 33.015625 40.375 
Q 26.375 40.375 22.484375 35.828125 
Q 18.609375 31.296875 18.609375 23.390625 
Q 18.609375 15.53125 22.484375 10.953125 
Q 26.375 6.390625 33.015625 6.390625 
Q 39.65625 6.390625 43.53125 10.953125 
Q 47.40625 15.53125 47.40625 23.390625 
Q 47.40625 31.296875 43.53125 35.828125 
Q 39.65625 40.375 33.015625 40.375 
z
M 52.59375 71.296875 
L 52.59375 62.3125 
Q 48.875 64.0625 45.09375 64.984375 
Q 41.3125 65.921875 37.59375 65.921875 
Q 27.828125 65.921875 22.671875 59.328125 
Q 17.53125 52.734375 16.796875 39.40625 
Q 19.671875 43.65625 24.015625 45.921875 
Q 28.375 48.1875 33.59375 48.1875 
Q 44.578125 48.1875 50.953125 41.515625 
Q 57.328125 34.859375 57.328125 23.390625 
Q 57.328125 12.15625 50.6875 5.359375 
Q 44.046875 -1.421875 33.015625 -1.421875 
Q 20.359375 -1.421875 13.671875 8.265625 
Q 6.984375 17.96875 6.984375 36.375 
Q 6.984375 53.65625 15.1875 63.9375 
Q 23.390625 74.21875 37.203125 74.21875 
Q 40.921875 74.21875 44.703125 73.484375 
Q 48.484375 72.75 52.59375 71.296875 
z
" id="DejaVuSans-54"/>
       </defs>
       <use xlink:href="#DejaVuSans-50"/>
       <use x="63.623047" xlink:href="#DejaVuSans-48"/>
       <use x="127.246094" xlink:href="#DejaVuSans-50"/>
       <use x="190.869141" xlink:href="#DejaVuSans-49"/>
       <use x="254.492188" xlink:href="#DejaVuSans-45"/>
       <use x="290.576172" xlink:href="#DejaVuSans-48"/>
       <use x="354.199219" xlink:href="#DejaVuSans-55"/>
       <use x="417.822266" xlink:href="#DejaVuSans-45"/>
       <use x="453.90625" xlink:href="#DejaVuSans-48"/>
       <use x="517.529297" xlink:href="#DejaVuSans-54"/>
      </g>
     </g>
    </g>
    <g id="xtick_4">
     <g id="line2d_7">
      <path clip-path="url(#p840351e169)" d="M 321.374445 313.2 
L 321.374445 28.8 
" style="fill:none;stroke:#808080;stroke-dasharray:6.4,1.6,1,1.6;stroke-dashoffset:0;stroke-opacity:0.3;"/>
     </g>
     <g id="line2d_8">
      <g>
       <use style="stroke:#000000;stroke-width:0.8;" x="321.374445" xlink:href="#m43aaa1a82c" y="313.2"/>
      </g>
     </g>
     <g id="text_4">
      <!-- 2021-10-28 -->
      <g transform="translate(292.316633 327.798437)scale(0.1 -0.1)">
       <defs>
        <path d="M 31.78125 34.625 
Q 24.75 34.625 20.71875 30.859375 
Q 16.703125 27.09375 16.703125 20.515625 
Q 16.703125 13.921875 20.71875 10.15625 
Q 24.75 6.390625 31.78125 6.390625 
Q 38.8125 6.390625 42.859375 10.171875 
Q 46.921875 13.96875 46.921875 20.515625 
Q 46.921875 27.09375 42.890625 30.859375 
Q 38.875 34.625 31.78125 34.625 
z
M 21.921875 38.8125 
Q 15.578125 40.375 12.03125 44.71875 
Q 8.5 49.078125 8.5 55.328125 
Q 8.5 64.0625 14.71875 69.140625 
Q 20.953125 74.21875 31.78125 74.21875 
Q 42.671875 74.21875 48.875 69.140625 
Q 55.078125 64.0625 55.078125 55.328125 
Q 55.078125 49.078125 51.53125 44.71875 
Q 48 40.375 41.703125 38.8125 
Q 48.828125 37.15625 52.796875 32.3125 
Q 56.78125 27.484375 56.78125 20.515625 
Q 56.78125 9.90625 50.3125 4.234375 
Q 43.84375 -1.421875 31.78125 -1.421875 
Q 19.734375 -1.421875 13.25 4.234375 
Q 6.78125 9.90625 6.78125 20.515625 
Q 6.78125 27.484375 10.78125 32.3125 
Q 14.796875 37.15625 21.921875 38.8125 
z
M 18.3125 54.390625 
Q 18.3125 48.734375 21.84375 45.5625 
Q 25.390625 42.390625 31.78125 42.390625 
Q 38.140625 42.390625 41.71875 45.5625 
Q 45.3125 48.734375 45.3125 54.390625 
Q 45.3125 60.0625 41.71875 63.234375 
Q 38.140625 66.40625 31.78125 66.40625 
Q 25.390625 66.40625 21.84375 63.234375 
Q 18.3125 60.0625 18.3125 54.390625 
z
" id="DejaVuSans-56"/>
       </defs>
       <use xlink:href="#DejaVuSans-50"/>
       <use x="63.623047" xlink:href="#DejaVuSans-48"/>
       <use x="127.246094" xlink:href="#DejaVuSans-50"/>
       <use x="190.869141" xlink:href="#DejaVuSans-49"/>
       <use x="254.492188" xlink:href="#DejaVuSans-45"/>
       <use x="290.576172" xlink:href="#DejaVuSans-49"/>
       <use x="354.199219" xlink:href="#DejaVuSans-48"/>
       <use x="417.822266" xlink:href="#DejaVuSans-45"/>
       <use x="453.90625" xlink:href="#DejaVuSans-50"/>
       <use x="517.529297" xlink:href="#DejaVuSans-56"/>
      </g>
     </g>
    </g>
    <g id="xtick_5">
     <g id="line2d_9">
      <path clip-path="url(#p840351e169)" d="M 397.953806 313.2 
L 397.953806 28.8 
" style="fill:none;stroke:#808080;stroke-dasharray:6.4,1.6,1,1.6;stroke-dashoffset:0;stroke-opacity:0.3;"/>
     </g>
     <g id="line2d_10">
      <g>
       <use style="stroke:#000000;stroke-width:0.8;" x="397.953806" xlink:href="#m43aaa1a82c" y="313.2"/>
      </g>
     </g>
     <g id="text_5">
      <!-- 2022-02-19 -->
      <g transform="translate(368.895993 327.798437)scale(0.1 -0.1)">
       <defs>
        <path d="M 10.984375 1.515625 
L 10.984375 10.5 
Q 14.703125 8.734375 18.5 7.8125 
Q 22.3125 6.890625 25.984375 6.890625 
Q 35.75 6.890625 40.890625 13.453125 
Q 46.046875 20.015625 46.78125 33.40625 
Q 43.953125 29.203125 39.59375 26.953125 
Q 35.25 24.703125 29.984375 24.703125 
Q 19.046875 24.703125 12.671875 31.3125 
Q 6.296875 37.9375 6.296875 49.421875 
Q 6.296875 60.640625 12.9375 67.421875 
Q 19.578125 74.21875 30.609375 74.21875 
Q 43.265625 74.21875 49.921875 64.515625 
Q 56.59375 54.828125 56.59375 36.375 
Q 56.59375 19.140625 48.40625 8.859375 
Q 40.234375 -1.421875 26.421875 -1.421875 
Q 22.703125 -1.421875 18.890625 -0.6875 
Q 15.09375 0.046875 10.984375 1.515625 
z
M 30.609375 32.421875 
Q 37.25 32.421875 41.125 36.953125 
Q 45.015625 41.5 45.015625 49.421875 
Q 45.015625 57.28125 41.125 61.84375 
Q 37.25 66.40625 30.609375 66.40625 
Q 23.96875 66.40625 20.09375 61.84375 
Q 16.21875 57.28125 16.21875 49.421875 
Q 16.21875 41.5 20.09375 36.953125 
Q 23.96875 32.421875 30.609375 32.421875 
z
" id="DejaVuSans-57"/>
       </defs>
       <use xlink:href="#DejaVuSans-50"/>
       <use x="63.623047" xlink:href="#DejaVuSans-48"/>
       <use x="127.246094" xlink:href="#DejaVuSans-50"/>
       <use x="190.869141" xlink:href="#DejaVuSans-50"/>
       <use x="254.492188" xlink:href="#DejaVuSans-45"/>
       <use x="290.576172" xlink:href="#DejaVuSans-48"/>
       <use x="354.199219" xlink:href="#DejaVuSans-50"/>
       <use x="417.822266" xlink:href="#DejaVuSans-45"/>
       <use x="453.90625" xlink:href="#DejaVuSans-49"/>
       <use x="517.529297" xlink:href="#DejaVuSans-57"/>
      </g>
     </g>
    </g>
    <g id="xtick_6">
     <g id="line2d_11">
      <path clip-path="url(#p840351e169)" d="M 474.533166 313.2 
L 474.533166 28.8 
" style="fill:none;stroke:#808080;stroke-dasharray:6.4,1.6,1,1.6;stroke-dashoffset:0;stroke-opacity:0.3;"/>
     </g>
     <g id="line2d_12">
      <g>
       <use style="stroke:#000000;stroke-width:0.8;" x="474.533166" xlink:href="#m43aaa1a82c" y="313.2"/>
      </g>
     </g>
     <g id="text_6">
      <!-- 2022-06-13 -->
      <g transform="translate(445.475354 327.798437)scale(0.1 -0.1)">
       <use xlink:href="#DejaVuSans-50"/>
       <use x="63.623047" xlink:href="#DejaVuSans-48"/>
       <use x="127.246094" xlink:href="#DejaVuSans-50"/>
       <use x="190.869141" xlink:href="#DejaVuSans-50"/>
       <use x="254.492188" xlink:href="#DejaVuSans-45"/>
       <use x="290.576172" xlink:href="#DejaVuSans-48"/>
       <use x="354.199219" xlink:href="#DejaVuSans-54"/>
       <use x="417.822266" xlink:href="#DejaVuSans-45"/>
       <use x="453.90625" xlink:href="#DejaVuSans-49"/>
       <use x="517.529297" xlink:href="#DejaVuSans-51"/>
      </g>
     </g>
    </g>
    <g id="xtick_7">
     <g id="line2d_13">
      <path clip-path="url(#p840351e169)" d="M 551.112527 313.2 
L 551.112527 28.8 
" style="fill:none;stroke:#808080;stroke-dasharray:6.4,1.6,1,1.6;stroke-dashoffset:0;stroke-opacity:0.3;"/>
     </g>
     <g id="line2d_14">
      <g>
       <use style="stroke:#000000;stroke-width:0.8;" x="551.112527" xlink:href="#m43aaa1a82c" y="313.2"/>
      </g>
     </g>
     <g id="text_7">
      <!-- 2022-10-05 -->
      <g transform="translate(522.054715 327.798437)scale(0.1 -0.1)">
       <defs>
        <path d="M 10.796875 72.90625 
L 49.515625 72.90625 
L 49.515625 64.59375 
L 19.828125 64.59375 
L 19.828125 46.734375 
Q 21.96875 47.46875 24.109375 47.828125 
Q 26.265625 48.1875 28.421875 48.1875 
Q 40.625 48.1875 47.75 41.5 
Q 54.890625 34.8125 54.890625 23.390625 
Q 54.890625 11.625 47.5625 5.09375 
Q 40.234375 -1.421875 26.90625 -1.421875 
Q 22.3125 -1.421875 17.546875 -0.640625 
Q 12.796875 0.140625 7.71875 1.703125 
L 7.71875 11.625 
Q 12.109375 9.234375 16.796875 8.0625 
Q 21.484375 6.890625 26.703125 6.890625 
Q 35.15625 6.890625 40.078125 11.328125 
Q 45.015625 15.765625 45.015625 23.390625 
Q 45.015625 31 40.078125 35.4375 
Q 35.15625 39.890625 26.703125 39.890625 
Q 22.75 39.890625 18.8125 39.015625 
Q 14.890625 38.140625 10.796875 36.28125 
z
" id="DejaVuSans-53"/>
       </defs>
       <use xlink:href="#DejaVuSans-50"/>
       <use x="63.623047" xlink:href="#DejaVuSans-48"/>
       <use x="127.246094" xlink:href="#DejaVuSans-50"/>
       <use x="190.869141" xlink:href="#DejaVuSans-50"/>
       <use x="254.492188" xlink:href="#DejaVuSans-45"/>
       <use x="290.576172" xlink:href="#DejaVuSans-49"/>
       <use x="354.199219" xlink:href="#DejaVuSans-48"/>
       <use x="417.822266" xlink:href="#DejaVuSans-45"/>
       <use x="453.90625" xlink:href="#DejaVuSans-48"/>
       <use x="517.529297" xlink:href="#DejaVuSans-53"/>
      </g>
     </g>
    </g>
    <g id="xtick_8">
     <g id="line2d_15">
      <path clip-path="url(#p840351e169)" d="M 628.363636 313.2 
L 628.363636 28.8 
" style="fill:none;stroke:#808080;stroke-dasharray:6.4,1.6,1,1.6;stroke-dashoffset:0;stroke-opacity:0.3;"/>
     </g>
     <g id="line2d_16">
      <g>
       <use style="stroke:#000000;stroke-width:0.8;" x="628.363636" xlink:href="#m43aaa1a82c" y="313.2"/>
      </g>
     </g>
     <g id="text_8">
      <!-- 2023-01-28 -->
      <g transform="translate(599.305824 327.798437)scale(0.1 -0.1)">
       <use xlink:href="#DejaVuSans-50"/>
       <use x="63.623047" xlink:href="#DejaVuSans-48"/>
       <use x="127.246094" xlink:href="#DejaVuSans-50"/>
       <use x="190.869141" xlink:href="#DejaVuSans-51"/>
       <use x="254.492188" xlink:href="#DejaVuSans-45"/>
       <use x="290.576172" xlink:href="#DejaVuSans-48"/>
       <use x="354.199219" xlink:href="#DejaVuSans-49"/>
       <use x="417.822266" xlink:href="#DejaVuSans-45"/>
       <use x="453.90625" xlink:href="#DejaVuSans-50"/>
       <use x="517.529297" xlink:href="#DejaVuSans-56"/>
      </g>
     </g>
    </g>
    <g id="text_9">
     <!-- Datum -->
     <g transform="translate(343.086719 341.476562)scale(0.1 -0.1)">
      <defs>
       <path d="M 19.671875 64.796875 
L 19.671875 8.109375 
L 31.59375 8.109375 
Q 46.6875 8.109375 53.6875 14.9375 
Q 60.6875 21.78125 60.6875 36.53125 
Q 60.6875 51.171875 53.6875 57.984375 
Q 46.6875 64.796875 31.59375 64.796875 
z
M 9.8125 72.90625 
L 30.078125 72.90625 
Q 51.265625 72.90625 61.171875 64.09375 
Q 71.09375 55.28125 71.09375 36.53125 
Q 71.09375 17.671875 61.125 8.828125 
Q 51.171875 0 30.078125 0 
L 9.8125 0 
z
" id="DejaVuSans-68"/>
       <path d="M 34.28125 27.484375 
Q 23.390625 27.484375 19.1875 25 
Q 14.984375 22.515625 14.984375 16.5 
Q 14.984375 11.71875 18.140625 8.90625 
Q 21.296875 6.109375 26.703125 6.109375 
Q 34.1875 6.109375 38.703125 11.40625 
Q 43.21875 16.703125 43.21875 25.484375 
L 43.21875 27.484375 
z
M 52.203125 31.203125 
L 52.203125 0 
L 43.21875 0 
L 43.21875 8.296875 
Q 40.140625 3.328125 35.546875 0.953125 
Q 30.953125 -1.421875 24.3125 -1.421875 
Q 15.921875 -1.421875 10.953125 3.296875 
Q 6 8.015625 6 15.921875 
Q 6 25.140625 12.171875 29.828125 
Q 18.359375 34.515625 30.609375 34.515625 
L 43.21875 34.515625 
L 43.21875 35.40625 
Q 43.21875 41.609375 39.140625 45 
Q 35.0625 48.390625 27.6875 48.390625 
Q 23 48.390625 18.546875 47.265625 
Q 14.109375 46.140625 10.015625 43.890625 
L 10.015625 52.203125 
Q 14.9375 54.109375 19.578125 55.046875 
Q 24.21875 56 28.609375 56 
Q 40.484375 56 46.34375 49.84375 
Q 52.203125 43.703125 52.203125 31.203125 
z
" id="DejaVuSans-97"/>
       <path d="M 18.3125 70.21875 
L 18.3125 54.6875 
L 36.8125 54.6875 
L 36.8125 47.703125 
L 18.3125 47.703125 
L 18.3125 18.015625 
Q 18.3125 11.328125 20.140625 9.421875 
Q 21.96875 7.515625 27.59375 7.515625 
L 36.8125 7.515625 
L 36.8125 0 
L 27.59375 0 
Q 17.1875 0 13.234375 3.875 
Q 9.28125 7.765625 9.28125 18.015625 
L 9.28125 47.703125 
L 2.6875 47.703125 
L 2.6875 54.6875 
L 9.28125 54.6875 
L 9.28125 70.21875 
z
" id="DejaVuSans-116"/>
       <path d="M 8.5 21.578125 
L 8.5 54.6875 
L 17.484375 54.6875 
L 17.484375 21.921875 
Q 17.484375 14.15625 20.5 10.265625 
Q 23.53125 6.390625 29.59375 6.390625 
Q 36.859375 6.390625 41.078125 11.03125 
Q 45.3125 15.671875 45.3125 23.6875 
L 45.3125 54.6875 
L 54.296875 54.6875 
L 54.296875 0 
L 45.3125 0 
L 45.3125 8.40625 
Q 42.046875 3.421875 37.71875 1 
Q 33.40625 -1.421875 27.6875 -1.421875 
Q 18.265625 -1.421875 13.375 4.4375 
Q 8.5 10.296875 8.5 21.578125 
z
M 31.109375 56 
z
" id="DejaVuSans-117"/>
       <path d="M 52 44.1875 
Q 55.375 50.25 60.0625 53.125 
Q 64.75 56 71.09375 56 
Q 79.640625 56 84.28125 50.015625 
Q 88.921875 44.046875 88.921875 33.015625 
L 88.921875 0 
L 79.890625 0 
L 79.890625 32.71875 
Q 79.890625 40.578125 77.09375 44.375 
Q 74.3125 48.1875 68.609375 48.1875 
Q 61.625 48.1875 57.5625 43.546875 
Q 53.515625 38.921875 53.515625 30.90625 
L 53.515625 0 
L 44.484375 0 
L 44.484375 32.71875 
Q 44.484375 40.625 41.703125 44.40625 
Q 38.921875 48.1875 33.109375 48.1875 
Q 26.21875 48.1875 22.15625 43.53125 
Q 18.109375 38.875 18.109375 30.90625 
L 18.109375 0 
L 9.078125 0 
L 9.078125 54.6875 
L 18.109375 54.6875 
L 18.109375 46.1875 
Q 21.1875 51.21875 25.484375 53.609375 
Q 29.78125 56 35.6875 56 
Q 41.65625 56 45.828125 52.96875 
Q 50 49.953125 52 44.1875 
z
" id="DejaVuSans-109"/>
      </defs>
      <use xlink:href="#DejaVuSans-68"/>
      <use x="77.001953" xlink:href="#DejaVuSans-97"/>
      <use x="138.28125" xlink:href="#DejaVuSans-116"/>
      <use x="177.490234" xlink:href="#DejaVuSans-117"/>
      <use x="240.869141" xlink:href="#DejaVuSans-109"/>
     </g>
    </g>
   </g>
   <g id="matplotlib.axis_2">
    <g id="ytick_1">
     <g id="line2d_17">
      <path clip-path="url(#p840351e169)" d="M 64.8 300.272727 
L 655.2 300.272727 
" style="fill:none;stroke:#808080;stroke-dasharray:6.4,1.6,1,1.6;stroke-dashoffset:0;stroke-opacity:0.3;"/>
     </g>
     <g id="line2d_18">
      <defs>
       <path d="M 0 0 
L -3.5 0 
" id="m83ff30baf0" style="stroke:#000000;stroke-width:0.8;"/>
      </defs>
      <g>
       <use style="stroke:#000000;stroke-width:0.8;" x="64.8" xlink:href="#m83ff30baf0" y="300.272727"/>
      </g>
     </g>
     <g id="text_10">
      <!-- 0 -->
      <g transform="translate(51.4375 304.071946)scale(0.1 -0.1)">
       <use xlink:href="#DejaVuSans-48"/>
      </g>
     </g>
    </g>
    <g id="ytick_2">
     <g id="line2d_19">
      <path clip-path="url(#p840351e169)" d="M 64.8 237.21286 
L 655.2 237.21286 
" style="fill:none;stroke:#808080;stroke-dasharray:6.4,1.6,1,1.6;stroke-dashoffset:0;stroke-opacity:0.3;"/>
     </g>
     <g id="line2d_20">
      <g>
       <use style="stroke:#000000;stroke-width:0.8;" x="64.8" xlink:href="#m83ff30baf0" y="237.21286"/>
      </g>
     </g>
     <g id="text_11">
      <!-- 5 -->
      <g transform="translate(51.4375 241.012079)scale(0.1 -0.1)">
       <use xlink:href="#DejaVuSans-53"/>
      </g>
     </g>
    </g>
    <g id="ytick_3">
     <g id="line2d_21">
      <path clip-path="url(#p840351e169)" d="M 64.8 174.152993 
L 655.2 174.152993 
" style="fill:none;stroke:#808080;stroke-dasharray:6.4,1.6,1,1.6;stroke-dashoffset:0;stroke-opacity:0.3;"/>
     </g>
     <g id="line2d_22">
      <g>
       <use style="stroke:#000000;stroke-width:0.8;" x="64.8" xlink:href="#m83ff30baf0" y="174.152993"/>
      </g>
     </g>
     <g id="text_12">
      <!-- 10 -->
      <g transform="translate(45.075 177.952212)scale(0.1 -0.1)">
       <use xlink:href="#DejaVuSans-49"/>
       <use x="63.623047" xlink:href="#DejaVuSans-48"/>
      </g>
     </g>
    </g>
    <g id="ytick_4">
     <g id="line2d_23">
      <path clip-path="url(#p840351e169)" d="M 64.8 111.093126 
L 655.2 111.093126 
" style="fill:none;stroke:#808080;stroke-dasharray:6.4,1.6,1,1.6;stroke-dashoffset:0;stroke-opacity:0.3;"/>
     </g>
     <g id="line2d_24">
      <g>
       <use style="stroke:#000000;stroke-width:0.8;" x="64.8" xlink:href="#m83ff30baf0" y="111.093126"/>
      </g>
     </g>
     <g id="text_13">
      <!-- 15 -->
      <g transform="translate(45.075 114.892345)scale(0.1 -0.1)">
       <use xlink:href="#DejaVuSans-49"/>
       <use x="63.623047" xlink:href="#DejaVuSans-53"/>
      </g>
     </g>
    </g>
    <g id="ytick_5">
     <g id="line2d_25">
      <path clip-path="url(#p840351e169)" d="M 64.8 48.033259 
L 655.2 48.033259 
" style="fill:none;stroke:#808080;stroke-dasharray:6.4,1.6,1,1.6;stroke-dashoffset:0;stroke-opacity:0.3;"/>
     </g>
     <g id="line2d_26">
      <g>
       <use style="stroke:#000000;stroke-width:0.8;" x="64.8" xlink:href="#m83ff30baf0" y="48.033259"/>
      </g>
     </g>
     <g id="text_14">
      <!-- 20 -->
      <g transform="translate(45.075 51.832478)scale(0.1 -0.1)">
       <use xlink:href="#DejaVuSans-50"/>
       <use x="63.623047" xlink:href="#DejaVuSans-48"/>
      </g>
     </g>
    </g>
   </g>
   <g id="line2d_27">
    <path clip-path="url(#p840351e169)" d="M 91.636364 280.090993 
L 94.995108 246.739249 
L 97.010354 240.0689 
L 98.353851 228.336238 
L 100.369098 214.491807 
L 103.727842 197.940369 
L 104.39959 195.418596 
L 105.071339 193.456527 
L 105.743088 192.153662 
L 106.414837 190.387489 
L 107.086586 187.834621 
L 109.101832 178.577756 
L 109.773581 175.639316 
L 110.445329 173.565305 
L 111.117078 172.371272 
L 111.788827 172.293536 
L 113.132324 174.451502 
L 115.147571 178.195293 
L 115.81932 180.275522 
L 117.834566 188.500046 
L 118.506315 189.753159 
L 120.521561 190.676669 
L 121.19331 190.658012 
L 121.865059 190.829032 
L 122.536807 191.279904 
L 123.208556 192.287369 
L 123.880305 194.037996 
L 124.552054 196.189743 
L 125.895551 201.808539 
L 126.5673 205.343996 
L 127.239049 210.987667 
L 129.254295 230.574161 
L 130.597793 242.228421 
L 131.269541 247.07918 
L 131.94129 251.099713 
L 132.613039 254.333552 
L 133.284788 256.503956 
L 133.956537 257.610924 
L 134.628285 257.984059 
L 135.300034 257.411918 
L 135.971783 255.561789 
L 137.31528 250.446726 
L 137.987029 247.312389 
L 139.330527 238.322938 
L 140.674024 227.46781 
L 142.689271 209.76254 
L 143.361019 205.057925 
L 144.704517 198.030544 
L 146.048015 191.450924 
L 146.719763 188.509374 
L 147.391512 187.290466 
L 148.063261 187.100789 
L 148.73501 188.667957 
L 149.406758 192.302917 
L 150.078507 197.041735 
L 152.765502 223.83285 
L 156.124246 252.132054 
L 156.795995 257.082315 
L 157.467744 261.199242 
L 158.811241 266.497763 
L 159.48299 268.046275 
L 161.498236 270.90076 
L 162.841734 272.197405 
L 163.513483 272.505241 
L 164.185232 272.076136 
L 165.528729 270.210459 
L 166.200478 269.035083 
L 167.543975 265.925622 
L 169.559222 260.278841 
L 170.230971 258.873365 
L 170.902719 257.825477 
L 172.917966 256.323607 
L 173.589714 256.808683 
L 174.933212 258.397617 
L 175.604961 258.944883 
L 176.27671 259.678715 
L 176.948458 259.585431 
L 178.963705 256.957937 
L 179.635453 255.285047 
L 180.978951 250.518243 
L 181.6507 247.980923 
L 182.994197 241.025059 
L 184.337695 234.230887 
L 185.009444 231.320432 
L 185.681192 230.020677 
L 186.352941 230.232121 
L 187.696439 230.082866 
L 188.368188 231.049909 
L 189.039936 233.008869 
L 189.711685 235.372059 
L 191.055183 241.674937 
L 193.070429 252.017004 
L 193.742178 255.157559 
L 194.413926 257.237788 
L 195.757424 258.795628 
L 196.429173 259.271376 
L 197.100922 258.854708 
L 197.77267 257.421247 
L 198.444419 255.316142 
L 199.787917 248.947966 
L 203.146661 230.633241 
L 203.818409 228.500151 
L 204.490158 227.088456 
L 205.161907 226.323528 
L 205.833656 226.401265 
L 206.505404 227.474029 
L 207.177153 229.457865 
L 209.864148 241.053045 
L 210.535897 243.2732 
L 211.207646 244.799945 
L 211.879395 245.452932 
L 212.551143 244.722208 
L 213.222892 243.049318 
L 213.894641 240.888243 
L 214.56639 238.095947 
L 215.238139 234.585366 
L 218.596882 213.963421 
L 219.268631 211.967147 
L 219.94038 211.14625 
L 220.612129 211.354584 
L 221.283878 213.447251 
L 222.627375 219.669282 
L 223.970873 226.304871 
L 227.329617 246.084152 
L 228.001365 248.814259 
L 228.673114 250.670607 
L 229.344863 251.9828 
L 230.016612 252.020113 
L 232.031858 251.065509 
L 232.703607 251.208544 
L 233.375356 251.497724 
L 234.718853 250.88205 
L 236.062351 249.967869 
L 238.749346 247.259528 
L 240.764592 248.036894 
L 241.436341 247.502066 
L 242.10809 246.429302 
L 242.779838 245.760768 
L 244.795085 243.235886 
L 245.466834 242.847203 
L 246.138582 243.406906 
L 247.48208 245.558653 
L 248.825577 246.693607 
L 249.497326 247.53627 
L 250.169075 249.016374 
L 254.199568 260.972251 
L 254.871316 262.12897 
L 255.543065 262.719768 
L 258.23006 265.934951 
L 258.901809 266.423136 
L 259.573558 266.765177 
L 262.260553 268.895157 
L 262.932302 269.361577 
L 264.275799 270.776381 
L 266.291046 273.142681 
L 268.306292 274.482859 
L 268.978041 274.852884 
L 270.321538 275.138955 
L 273.008533 275.390821 
L 273.680282 275.602265 
L 275.02378 275.707986 
L 275.695529 275.524528 
L 276.367277 274.775148 
L 277.039026 273.071163 
L 278.382524 268.702371 
L 281.069519 260.754589 
L 283.756514 250.729687 
L 284.428263 249.20916 
L 285.100011 248.86401 
L 285.77176 250.229064 
L 289.130504 261.653223 
L 292.489248 275.027014 
L 293.160997 276.951771 
L 293.832745 278.068067 
L 294.504494 278.061848 
L 295.176243 277.651399 
L 296.519741 276.382739 
L 298.534987 275.263333 
L 300.550233 274.000892 
L 301.221982 274.293181 
L 301.893731 274.423779 
L 302.56548 274.855994 
L 303.237228 275.913211 
L 303.908977 276.696795 
L 305.252475 277.502145 
L 306.595972 277.900156 
L 307.267721 278.096052 
L 307.93947 277.900156 
L 308.611219 277.582991 
L 309.282967 277.032617 
L 309.954716 276.336097 
L 310.626465 275.804379 
L 311.298214 274.896417 
L 311.969962 273.605991 
L 312.641711 272.794421 
L 313.31346 272.51457 
L 315.328706 270.679988 
L 317.343953 267.84416 
L 318.015701 266.360947 
L 318.68745 264.302484 
L 320.030948 258.21105 
L 320.702697 254.23094 
L 322.046194 244.361511 
L 323.389692 233.357129 
L 328.091933 189.448431 
L 328.763682 185.18847 
L 330.107179 179.324027 
L 330.778928 177.361957 
L 331.450677 176.024889 
L 332.122426 175.263071 
L 332.794175 175.427872 
L 333.465923 176.553497 
L 334.137672 179.13124 
L 335.48117 186.911111 
L 336.824667 197.349572 
L 338.839914 212.722746 
L 341.526909 228.904381 
L 342.198657 232.492699 
L 342.870406 235.235243 
L 344.213904 238.988362 
L 344.885653 240.219709 
L 345.557401 240.605282 
L 346.22915 241.121453 
L 346.900899 242.212873 
L 347.572648 243.761385 
L 348.916145 249.199832 
L 349.587894 250.204188 
L 350.259643 250.197969 
L 350.931392 249.532544 
L 352.274889 247.626445 
L 353.618387 245.334772 
L 354.290135 244.436138 
L 354.961884 243.220339 
L 355.633633 241.438618 
L 356.305382 239.23401 
L 356.977131 236.472809 
L 357.648879 234.321062 
L 358.320628 234.224668 
L 358.992377 235.297432 
L 360.335874 239.159383 
L 361.007623 240.244585 
L 361.679372 240.670581 
L 362.351121 240.760755 
L 363.022869 240.574188 
L 363.694618 240.197943 
L 364.366367 239.563613 
L 365.038116 237.666842 
L 365.709865 234.977158 
L 366.381613 231.631378 
L 367.053362 227.508233 
L 375.114347 222.999515 
L 376.457845 213.929217 
L 377.129594 210.172988 
L 378.473091 204.678571 
L 379.816589 200.051693 
L 381.160086 198.139375 
L 381.831835 198.332161 
L 383.175333 200.885029 
L 384.51883 204.031803 
L 385.862328 207.057309 
L 390.564569 224.106483 
L 391.908067 227.934229 
L 392.579816 229.902518 
L 395.266811 235.891339 
L 396.610308 238.506396 
L 397.282057 239.103413 
L 397.953806 239.451672 
L 398.625555 240.829163 
L 399.297303 241.513245 
L 399.969052 241.650061 
L 400.640801 241.401304 
L 401.31255 241.494588 
L 402.656047 242.184888 
L 403.327796 242.359018 
L 403.999545 241.961007 
L 404.671294 241.360881 
L 405.343042 240.922447 
L 406.68654 241.883271 
L 408.701786 241.970335 
L 409.373535 242.962254 
L 410.717033 246.737139 
L 411.388781 247.996471 
L 413.404028 252.50208 
L 414.075777 254.656936 
L 415.419274 259.398864 
L 417.43452 264.890172 
L 418.106269 266.003359 
L 418.778018 266.684331 
L 419.449767 267.184954 
L 420.793264 268.742794 
L 421.465013 269.554363 
L 422.136762 270.008344 
L 422.808511 270.123394 
L 423.480259 269.852871 
L 424.152008 269.971031 
L 424.823757 269.871528 
L 425.495506 269.299387 
L 427.510752 268.24839 
L 428.182501 268.354111 
L 428.85425 268.693042 
L 429.525998 269.159462 
L 430.197747 269.949265 
L 433.556491 275.80127 
L 434.899989 279.541951 
L 436.243486 283.606017 
L 437.586984 286.609756 
L 438.258733 287.722943 
L 438.930481 288.518965 
L 440.273979 289.507774 
L 442.289225 291.081161 
L 442.960974 291.249072 
L 443.632723 291.183773 
L 444.97622 290.826185 
L 445.647969 290.397079 
L 446.991467 288.323069 
L 448.334964 285.341096 
L 449.678462 281.267702 
L 452.365457 271.211706 
L 454.380703 261.696755 
L 455.724201 258.167517 
L 456.395949 257.244007 
L 457.067698 257.153833 
L 457.739447 257.645128 
L 458.411196 258.761424 
L 459.754693 261.559939 
L 460.426442 262.604718 
L 461.098191 264.013304 
L 461.76994 266.255225 
L 463.113437 272.489694 
L 463.785186 274.93373 
L 464.456935 276.60662 
L 465.128684 277.306249 
L 465.800432 277.471051 
L 466.472181 276.945552 
L 467.14393 275.521419 
L 467.815679 273.761464 
L 468.487427 272.477256 
L 469.159176 271.718548 
L 469.830925 270.754615 
L 470.502674 269.560582 
L 472.51792 264.181215 
L 473.189669 263.655716 
L 473.861418 263.898254 
L 474.533166 263.742781 
L 475.204915 264.255842 
L 475.876664 265.863433 
L 477.220162 269.411328 
L 477.89191 270.555609 
L 479.235408 271.964195 
L 480.578905 273.444299 
L 481.250654 273.888952 
L 481.922403 273.195542 
L 482.594152 272.020166 
L 483.265901 271.267676 
L 483.937649 270.285086 
L 486.624644 264.678728 
L 489.31164 263.758328 
L 489.983388 264.025742 
L 490.655137 265.337934 
L 494.68563 278.826775 
L 495.357379 280.683124 
L 498.716122 287.931277 
L 499.387871 288.83613 
L 500.05962 289.175061 
L 500.731369 289.330534 
L 506.777108 294.83739 
L 508.792354 296.050079 
L 509.464103 296.323712 
L 516.181591 296.389011 
L 524.242576 295.748462 
L 526.929571 295.269605 
L 527.60132 294.912017 
L 528.944817 293.180047 
L 530.960064 290.633398 
L 532.303561 288.948071 
L 533.647059 286.339233 
L 534.990556 283.052533 
L 535.662305 281.301906 
L 536.334054 280.082998 
L 537.005803 279.657002 
L 539.021049 279.047547 
L 540.364547 278.388341 
L 541.036295 278.372794 
L 542.379793 279.706753 
L 543.051542 280.680014 
L 545.066788 284.426915 
L 546.410286 285.667589 
L 548.425532 287.097941 
L 549.097281 287.642097 
L 549.769029 287.965481 
L 550.440778 288.120954 
L 551.112527 288.450557 
L 551.784276 288.581154 
L 553.127773 288.400806 
L 553.799522 288.02767 
L 557.158266 284.793831 
L 559.845261 282.045068 
L 561.860507 280.947428 
L 562.532256 280.888348 
L 563.875754 281.584867 
L 565.219251 283.06808 
L 567.906246 286.034506 
L 568.577995 286.662617 
L 569.921493 287.421325 
L 570.593242 288.005904 
L 572.608488 290.138994 
L 573.951985 291.009643 
L 575.295483 291.494719 
L 579.325976 293.892114 
L 580.669473 293.935646 
L 581.341222 293.56562 
L 582.68472 292.172582 
L 583.356468 291.755914 
L 584.028217 291.165116 
L 585.371715 289.025807 
L 588.05871 284.33674 
L 589.402207 281.790092 
L 590.073956 281.189966 
L 591.417454 281.239717 
L 592.089202 281.099791 
L 592.760951 281.314344 
L 593.4327 282.063724 
L 595.447946 285.132762 
L 596.791444 287.188116 
L 598.134941 289.64459 
L 598.80669 290.540115 
L 599.478439 291.078051 
L 600.821937 292.629672 
L 601.493685 293.052559 
L 602.165434 293.248455 
L 602.837183 293.245346 
L 604.18068 293.419475 
L 605.524178 293.052559 
L 608.211173 291.858526 
L 609.554671 291.022081 
L 612.241666 290.717354 
L 612.913414 290.751558 
L 618.287405 294.395846 
L 621.646149 295.825754 
L 622.989646 296.133591 
L 625.004892 296.907846 
L 628.363636 298.289335 
L 628.363636 298.289335 
" style="fill:none;stroke:#ff0000;stroke-linecap:square;stroke-width:1.5;"/>
   </g>
   <g id="patch_3">
    <path d="M 64.8 313.2 
L 64.8 28.8 
" style="fill:none;stroke:#000000;stroke-linecap:square;stroke-linejoin:miter;stroke-width:0.8;"/>
   </g>
   <g id="patch_4">
    <path d="M 655.2 313.2 
L 655.2 28.8 
" style="fill:none;stroke:#000000;stroke-linecap:square;stroke-linejoin:miter;stroke-width:0.8;"/>
   </g>
   <g id="patch_5">
    <path d="M 64.8 313.2 
L 655.2 313.2 
" style="fill:none;stroke:#000000;stroke-linecap:square;stroke-linejoin:miter;stroke-width:0.8;"/>
   </g>
   <g id="patch_6">
    <path d="M 64.8 28.8 
L 655.2 28.8 
" style="fill:none;stroke:#000000;stroke-linecap:square;stroke-linejoin:miter;stroke-width:0.8;"/>
   </g>
   <g id="text_15">
    <!-- Page hits per uur (gemiddeld ongeveer 0). -->
    <g transform="translate(232.46625 22.8)scale(0.12 -0.12)">
     <defs>
      <path d="M 19.671875 64.796875 
L 19.671875 37.40625 
L 32.078125 37.40625 
Q 38.96875 37.40625 42.71875 40.96875 
Q 46.484375 44.53125 46.484375 51.125 
Q 46.484375 57.671875 42.71875 61.234375 
Q 38.96875 64.796875 32.078125 64.796875 
z
M 9.8125 72.90625 
L 32.078125 72.90625 
Q 44.34375 72.90625 50.609375 67.359375 
Q 56.890625 61.8125 56.890625 51.125 
Q 56.890625 40.328125 50.609375 34.8125 
Q 44.34375 29.296875 32.078125 29.296875 
L 19.671875 29.296875 
L 19.671875 0 
L 9.8125 0 
z
" id="DejaVuSans-80"/>
      <path d="M 45.40625 27.984375 
Q 45.40625 37.75 41.375 43.109375 
Q 37.359375 48.484375 30.078125 48.484375 
Q 22.859375 48.484375 18.828125 43.109375 
Q 14.796875 37.75 14.796875 27.984375 
Q 14.796875 18.265625 18.828125 12.890625 
Q 22.859375 7.515625 30.078125 7.515625 
Q 37.359375 7.515625 41.375 12.890625 
Q 45.40625 18.265625 45.40625 27.984375 
z
M 54.390625 6.78125 
Q 54.390625 -7.171875 48.1875 -13.984375 
Q 42 -20.796875 29.203125 -20.796875 
Q 24.46875 -20.796875 20.265625 -20.09375 
Q 16.0625 -19.390625 12.109375 -17.921875 
L 12.109375 -9.1875 
Q 16.0625 -11.328125 19.921875 -12.34375 
Q 23.78125 -13.375 27.78125 -13.375 
Q 36.625 -13.375 41.015625 -8.765625 
Q 45.40625 -4.15625 45.40625 5.171875 
L 45.40625 9.625 
Q 42.625 4.78125 38.28125 2.390625 
Q 33.9375 0 27.875 0 
Q 17.828125 0 11.671875 7.65625 
Q 5.515625 15.328125 5.515625 27.984375 
Q 5.515625 40.671875 11.671875 48.328125 
Q 17.828125 56 27.875 56 
Q 33.9375 56 38.28125 53.609375 
Q 42.625 51.21875 45.40625 46.390625 
L 45.40625 54.6875 
L 54.390625 54.6875 
z
" id="DejaVuSans-103"/>
      <path d="M 56.203125 29.59375 
L 56.203125 25.203125 
L 14.890625 25.203125 
Q 15.484375 15.921875 20.484375 11.0625 
Q 25.484375 6.203125 34.421875 6.203125 
Q 39.59375 6.203125 44.453125 7.46875 
Q 49.3125 8.734375 54.109375 11.28125 
L 54.109375 2.78125 
Q 49.265625 0.734375 44.1875 -0.34375 
Q 39.109375 -1.421875 33.890625 -1.421875 
Q 20.796875 -1.421875 13.15625 6.1875 
Q 5.515625 13.8125 5.515625 26.8125 
Q 5.515625 40.234375 12.765625 48.109375 
Q 20.015625 56 32.328125 56 
Q 43.359375 56 49.78125 48.890625 
Q 56.203125 41.796875 56.203125 29.59375 
z
M 47.21875 32.234375 
Q 47.125 39.59375 43.09375 43.984375 
Q 39.0625 48.390625 32.421875 48.390625 
Q 24.90625 48.390625 20.390625 44.140625 
Q 15.875 39.890625 15.1875 32.171875 
z
" id="DejaVuSans-101"/>
      <path id="DejaVuSans-32"/>
      <path d="M 54.890625 33.015625 
L 54.890625 0 
L 45.90625 0 
L 45.90625 32.71875 
Q 45.90625 40.484375 42.875 44.328125 
Q 39.84375 48.1875 33.796875 48.1875 
Q 26.515625 48.1875 22.3125 43.546875 
Q 18.109375 38.921875 18.109375 30.90625 
L 18.109375 0 
L 9.078125 0 
L 9.078125 75.984375 
L 18.109375 75.984375 
L 18.109375 46.1875 
Q 21.34375 51.125 25.703125 53.5625 
Q 30.078125 56 35.796875 56 
Q 45.21875 56 50.046875 50.171875 
Q 54.890625 44.34375 54.890625 33.015625 
z
" id="DejaVuSans-104"/>
      <path d="M 9.421875 54.6875 
L 18.40625 54.6875 
L 18.40625 0 
L 9.421875 0 
z
M 9.421875 75.984375 
L 18.40625 75.984375 
L 18.40625 64.59375 
L 9.421875 64.59375 
z
" id="DejaVuSans-105"/>
      <path d="M 44.28125 53.078125 
L 44.28125 44.578125 
Q 40.484375 46.53125 36.375 47.5 
Q 32.28125 48.484375 27.875 48.484375 
Q 21.1875 48.484375 17.84375 46.4375 
Q 14.5 44.390625 14.5 40.28125 
Q 14.5 37.15625 16.890625 35.375 
Q 19.28125 33.59375 26.515625 31.984375 
L 29.59375 31.296875 
Q 39.15625 29.25 43.1875 25.515625 
Q 47.21875 21.78125 47.21875 15.09375 
Q 47.21875 7.46875 41.1875 3.015625 
Q 35.15625 -1.421875 24.609375 -1.421875 
Q 20.21875 -1.421875 15.453125 -0.5625 
Q 10.6875 0.296875 5.421875 2 
L 5.421875 11.28125 
Q 10.40625 8.6875 15.234375 7.390625 
Q 20.0625 6.109375 24.8125 6.109375 
Q 31.15625 6.109375 34.5625 8.28125 
Q 37.984375 10.453125 37.984375 14.40625 
Q 37.984375 18.0625 35.515625 20.015625 
Q 33.0625 21.96875 24.703125 23.78125 
L 21.578125 24.515625 
Q 13.234375 26.265625 9.515625 29.90625 
Q 5.8125 33.546875 5.8125 39.890625 
Q 5.8125 47.609375 11.28125 51.796875 
Q 16.75 56 26.8125 56 
Q 31.78125 56 36.171875 55.265625 
Q 40.578125 54.546875 44.28125 53.078125 
z
" id="DejaVuSans-115"/>
      <path d="M 18.109375 8.203125 
L 18.109375 -20.796875 
L 9.078125 -20.796875 
L 9.078125 54.6875 
L 18.109375 54.6875 
L 18.109375 46.390625 
Q 20.953125 51.265625 25.265625 53.625 
Q 29.59375 56 35.59375 56 
Q 45.5625 56 51.78125 48.09375 
Q 58.015625 40.1875 58.015625 27.296875 
Q 58.015625 14.40625 51.78125 6.484375 
Q 45.5625 -1.421875 35.59375 -1.421875 
Q 29.59375 -1.421875 25.265625 0.953125 
Q 20.953125 3.328125 18.109375 8.203125 
z
M 48.6875 27.296875 
Q 48.6875 37.203125 44.609375 42.84375 
Q 40.53125 48.484375 33.40625 48.484375 
Q 26.265625 48.484375 22.1875 42.84375 
Q 18.109375 37.203125 18.109375 27.296875 
Q 18.109375 17.390625 22.1875 11.75 
Q 26.265625 6.109375 33.40625 6.109375 
Q 40.53125 6.109375 44.609375 11.75 
Q 48.6875 17.390625 48.6875 27.296875 
z
" id="DejaVuSans-112"/>
      <path d="M 41.109375 46.296875 
Q 39.59375 47.171875 37.8125 47.578125 
Q 36.03125 48 33.890625 48 
Q 26.265625 48 22.1875 43.046875 
Q 18.109375 38.09375 18.109375 28.8125 
L 18.109375 0 
L 9.078125 0 
L 9.078125 54.6875 
L 18.109375 54.6875 
L 18.109375 46.1875 
Q 20.953125 51.171875 25.484375 53.578125 
Q 30.03125 56 36.53125 56 
Q 37.453125 56 38.578125 55.875 
Q 39.703125 55.765625 41.0625 55.515625 
z
" id="DejaVuSans-114"/>
      <path d="M 31 75.875 
Q 24.46875 64.65625 21.28125 53.65625 
Q 18.109375 42.671875 18.109375 31.390625 
Q 18.109375 20.125 21.3125 9.0625 
Q 24.515625 -2 31 -13.1875 
L 23.1875 -13.1875 
Q 15.875 -1.703125 12.234375 9.375 
Q 8.59375 20.453125 8.59375 31.390625 
Q 8.59375 42.28125 12.203125 53.3125 
Q 15.828125 64.359375 23.1875 75.875 
z
" id="DejaVuSans-40"/>
      <path d="M 45.40625 46.390625 
L 45.40625 75.984375 
L 54.390625 75.984375 
L 54.390625 0 
L 45.40625 0 
L 45.40625 8.203125 
Q 42.578125 3.328125 38.25 0.953125 
Q 33.9375 -1.421875 27.875 -1.421875 
Q 17.96875 -1.421875 11.734375 6.484375 
Q 5.515625 14.40625 5.515625 27.296875 
Q 5.515625 40.1875 11.734375 48.09375 
Q 17.96875 56 27.875 56 
Q 33.9375 56 38.25 53.625 
Q 42.578125 51.265625 45.40625 46.390625 
z
M 14.796875 27.296875 
Q 14.796875 17.390625 18.875 11.75 
Q 22.953125 6.109375 30.078125 6.109375 
Q 37.203125 6.109375 41.296875 11.75 
Q 45.40625 17.390625 45.40625 27.296875 
Q 45.40625 37.203125 41.296875 42.84375 
Q 37.203125 48.484375 30.078125 48.484375 
Q 22.953125 48.484375 18.875 42.84375 
Q 14.796875 37.203125 14.796875 27.296875 
z
" id="DejaVuSans-100"/>
      <path d="M 9.421875 75.984375 
L 18.40625 75.984375 
L 18.40625 0 
L 9.421875 0 
z
" id="DejaVuSans-108"/>
      <path d="M 30.609375 48.390625 
Q 23.390625 48.390625 19.1875 42.75 
Q 14.984375 37.109375 14.984375 27.296875 
Q 14.984375 17.484375 19.15625 11.84375 
Q 23.34375 6.203125 30.609375 6.203125 
Q 37.796875 6.203125 41.984375 11.859375 
Q 46.1875 17.53125 46.1875 27.296875 
Q 46.1875 37.015625 41.984375 42.703125 
Q 37.796875 48.390625 30.609375 48.390625 
z
M 30.609375 56 
Q 42.328125 56 49.015625 48.375 
Q 55.71875 40.765625 55.71875 27.296875 
Q 55.71875 13.875 49.015625 6.21875 
Q 42.328125 -1.421875 30.609375 -1.421875 
Q 18.84375 -1.421875 12.171875 6.21875 
Q 5.515625 13.875 5.515625 27.296875 
Q 5.515625 40.765625 12.171875 48.375 
Q 18.84375 56 30.609375 56 
z
" id="DejaVuSans-111"/>
      <path d="M 54.890625 33.015625 
L 54.890625 0 
L 45.90625 0 
L 45.90625 32.71875 
Q 45.90625 40.484375 42.875 44.328125 
Q 39.84375 48.1875 33.796875 48.1875 
Q 26.515625 48.1875 22.3125 43.546875 
Q 18.109375 38.921875 18.109375 30.90625 
L 18.109375 0 
L 9.078125 0 
L 9.078125 54.6875 
L 18.109375 54.6875 
L 18.109375 46.1875 
Q 21.34375 51.125 25.703125 53.5625 
Q 30.078125 56 35.796875 56 
Q 45.21875 56 50.046875 50.171875 
Q 54.890625 44.34375 54.890625 33.015625 
z
" id="DejaVuSans-110"/>
      <path d="M 2.984375 54.6875 
L 12.5 54.6875 
L 29.59375 8.796875 
L 46.6875 54.6875 
L 56.203125 54.6875 
L 35.6875 0 
L 23.484375 0 
z
" id="DejaVuSans-118"/>
      <path d="M 8.015625 75.875 
L 15.828125 75.875 
Q 23.140625 64.359375 26.78125 53.3125 
Q 30.421875 42.28125 30.421875 31.390625 
Q 30.421875 20.453125 26.78125 9.375 
Q 23.140625 -1.703125 15.828125 -13.1875 
L 8.015625 -13.1875 
Q 14.5 -2 17.703125 9.0625 
Q 20.90625 20.125 20.90625 31.390625 
Q 20.90625 42.671875 17.703125 53.65625 
Q 14.5 64.65625 8.015625 75.875 
z
" id="DejaVuSans-41"/>
      <path d="M 10.6875 12.40625 
L 21 12.40625 
L 21 0 
L 10.6875 0 
z
" id="DejaVuSans-46"/>
     </defs>
     <use xlink:href="#DejaVuSans-80"/>
     <use x="55.802734" xlink:href="#DejaVuSans-97"/>
     <use x="117.082031" xlink:href="#DejaVuSans-103"/>
     <use x="180.558594" xlink:href="#DejaVuSans-101"/>
     <use x="242.082031" xlink:href="#DejaVuSans-32"/>
     <use x="273.869141" xlink:href="#DejaVuSans-104"/>
     <use x="337.248047" xlink:href="#DejaVuSans-105"/>
     <use x="365.03125" xlink:href="#DejaVuSans-116"/>
     <use x="404.240234" xlink:href="#DejaVuSans-115"/>
     <use x="456.339844" xlink:href="#DejaVuSans-32"/>
     <use x="488.126953" xlink:href="#DejaVuSans-112"/>
     <use x="551.603516" xlink:href="#DejaVuSans-101"/>
     <use x="613.126953" xlink:href="#DejaVuSans-114"/>
     <use x="654.240234" xlink:href="#DejaVuSans-32"/>
     <use x="686.027344" xlink:href="#DejaVuSans-117"/>
     <use x="749.40625" xlink:href="#DejaVuSans-117"/>
     <use x="812.785156" xlink:href="#DejaVuSans-114"/>
     <use x="853.898438" xlink:href="#DejaVuSans-32"/>
     <use x="885.685547" xlink:href="#DejaVuSans-40"/>
     <use x="924.699219" xlink:href="#DejaVuSans-103"/>
     <use x="988.175781" xlink:href="#DejaVuSans-101"/>
     <use x="1049.699219" xlink:href="#DejaVuSans-109"/>
     <use x="1147.111328" xlink:href="#DejaVuSans-105"/>
     <use x="1174.894531" xlink:href="#DejaVuSans-100"/>
     <use x="1238.371094" xlink:href="#DejaVuSans-100"/>
     <use x="1301.847656" xlink:href="#DejaVuSans-101"/>
     <use x="1363.371094" xlink:href="#DejaVuSans-108"/>
     <use x="1391.154297" xlink:href="#DejaVuSans-100"/>
     <use x="1454.630859" xlink:href="#DejaVuSans-32"/>
     <use x="1486.417969" xlink:href="#DejaVuSans-111"/>
     <use x="1547.599609" xlink:href="#DejaVuSans-110"/>
     <use x="1610.978516" xlink:href="#DejaVuSans-103"/>
     <use x="1674.455078" xlink:href="#DejaVuSans-101"/>
     <use x="1735.978516" xlink:href="#DejaVuSans-118"/>
     <use x="1795.158203" xlink:href="#DejaVuSans-101"/>
     <use x="1856.681641" xlink:href="#DejaVuSans-101"/>
     <use x="1918.205078" xlink:href="#DejaVuSans-114"/>
     <use x="1959.318359" xlink:href="#DejaVuSans-32"/>
     <use x="1991.105469" xlink:href="#DejaVuSans-48"/>
     <use x="2054.728516" xlink:href="#DejaVuSans-41"/>
     <use x="2093.742188" xlink:href="#DejaVuSans-46"/>
    </g>
   </g>
  </g>
  <g id="text_16">
   <!-- Gegenereerd op 2023-01-28 11:38. -->
   <g style="fill:#808080;" transform="translate(7.2 356.4)scale(0.08 -0.08)">
    <defs>
     <path d="M 59.515625 10.40625 
L 59.515625 29.984375 
L 43.40625 29.984375 
L 43.40625 38.09375 
L 69.28125 38.09375 
L 69.28125 6.78125 
Q 63.578125 2.734375 56.6875 0.65625 
Q 49.8125 -1.421875 42 -1.421875 
Q 24.90625 -1.421875 15.25 8.5625 
Q 5.609375 18.5625 5.609375 36.375 
Q 5.609375 54.25 15.25 64.234375 
Q 24.90625 74.21875 42 74.21875 
Q 49.125 74.21875 55.546875 72.453125 
Q 61.96875 70.703125 67.390625 67.28125 
L 67.390625 56.78125 
Q 61.921875 61.421875 55.765625 63.765625 
Q 49.609375 66.109375 42.828125 66.109375 
Q 29.4375 66.109375 22.71875 58.640625 
Q 16.015625 51.171875 16.015625 36.375 
Q 16.015625 21.625 22.71875 14.15625 
Q 29.4375 6.6875 42.828125 6.6875 
Q 48.046875 6.6875 52.140625 7.59375 
Q 56.25 8.5 59.515625 10.40625 
z
" id="DejaVuSans-71"/>
     <path d="M 11.71875 12.40625 
L 22.015625 12.40625 
L 22.015625 0 
L 11.71875 0 
z
M 11.71875 51.703125 
L 22.015625 51.703125 
L 22.015625 39.3125 
L 11.71875 39.3125 
z
" id="DejaVuSans-58"/>
    </defs>
    <use xlink:href="#DejaVuSans-71"/>
    <use x="77.490234" xlink:href="#DejaVuSans-101"/>
    <use x="139.013672" xlink:href="#DejaVuSans-103"/>
    <use x="202.490234" xlink:href="#DejaVuSans-101"/>
    <use x="264.013672" xlink:href="#DejaVuSans-110"/>
    <use x="327.392578" xlink:href="#DejaVuSans-101"/>
    <use x="388.916016" xlink:href="#DejaVuSans-114"/>
    <use x="427.779297" xlink:href="#DejaVuSans-101"/>
    <use x="489.302734" xlink:href="#DejaVuSans-101"/>
    <use x="550.826172" xlink:href="#DejaVuSans-114"/>
    <use x="590.189453" xlink:href="#DejaVuSans-100"/>
    <use x="653.666016" xlink:href="#DejaVuSans-32"/>
    <use x="685.453125" xlink:href="#DejaVuSans-111"/>
    <use x="746.634766" xlink:href="#DejaVuSans-112"/>
    <use x="810.111328" xlink:href="#DejaVuSans-32"/>
    <use x="841.898438" xlink:href="#DejaVuSans-50"/>
    <use x="905.521484" xlink:href="#DejaVuSans-48"/>
    <use x="969.144531" xlink:href="#DejaVuSans-50"/>
    <use x="1032.767578" xlink:href="#DejaVuSans-51"/>
    <use x="1096.390625" xlink:href="#DejaVuSans-45"/>
    <use x="1132.474609" xlink:href="#DejaVuSans-48"/>
    <use x="1196.097656" xlink:href="#DejaVuSans-49"/>
    <use x="1259.720703" xlink:href="#DejaVuSans-45"/>
    <use x="1295.804688" xlink:href="#DejaVuSans-50"/>
    <use x="1359.427734" xlink:href="#DejaVuSans-56"/>
    <use x="1423.050781" xlink:href="#DejaVuSans-32"/>
    <use x="1454.837891" xlink:href="#DejaVuSans-49"/>
    <use x="1518.460938" xlink:href="#DejaVuSans-49"/>
    <use x="1582.083984" xlink:href="#DejaVuSans-58"/>
    <use x="1615.775391" xlink:href="#DejaVuSans-51"/>
    <use x="1679.398438" xlink:href="#DejaVuSans-56"/>
    <use x="1743.021484" xlink:href="#DejaVuSans-46"/>
   </g>
  </g>
  <g id="text_17">
   <!-- https://realrolfje.github.io/coronadata/ -->
   <g style="fill:#808080;" transform="translate(560.24375 356.4)scale(0.08 -0.08)">
    <defs>
     <path d="M 25.390625 72.90625 
L 33.6875 72.90625 
L 8.296875 -9.28125 
L 0 -9.28125 
z
" id="DejaVuSans-47"/>
     <path d="M 37.109375 75.984375 
L 37.109375 68.5 
L 28.515625 68.5 
Q 23.6875 68.5 21.796875 66.546875 
Q 19.921875 64.59375 19.921875 59.515625 
L 19.921875 54.6875 
L 34.71875 54.6875 
L 34.71875 47.703125 
L 19.921875 47.703125 
L 19.921875 0 
L 10.890625 0 
L 10.890625 47.703125 
L 2.296875 47.703125 
L 2.296875 54.6875 
L 10.890625 54.6875 
L 10.890625 58.5 
Q 10.890625 67.625 15.140625 71.796875 
Q 19.390625 75.984375 28.609375 75.984375 
z
" id="DejaVuSans-102"/>
     <path d="M 9.421875 54.6875 
L 18.40625 54.6875 
L 18.40625 -0.984375 
Q 18.40625 -11.421875 14.421875 -16.109375 
Q 10.453125 -20.796875 1.609375 -20.796875 
L -1.8125 -20.796875 
L -1.8125 -13.1875 
L 0.59375 -13.1875 
Q 5.71875 -13.1875 7.5625 -10.8125 
Q 9.421875 -8.453125 9.421875 -0.984375 
z
M 9.421875 75.984375 
L 18.40625 75.984375 
L 18.40625 64.59375 
L 9.421875 64.59375 
z
" id="DejaVuSans-106"/>
     <path d="M 48.6875 27.296875 
Q 48.6875 37.203125 44.609375 42.84375 
Q 40.53125 48.484375 33.40625 48.484375 
Q 26.265625 48.484375 22.1875 42.84375 
Q 18.109375 37.203125 18.109375 27.296875 
Q 18.109375 17.390625 22.1875 11.75 
Q 26.265625 6.109375 33.40625 6.109375 
Q 40.53125 6.109375 44.609375 11.75 
Q 48.6875 17.390625 48.6875 27.296875 
z
M 18.109375 46.390625 
Q 20.953125 51.265625 25.265625 53.625 
Q 29.59375 56 35.59375 56 
Q 45.5625 56 51.78125 48.09375 
Q 58.015625 40.1875 58.015625 27.296875 
Q 58.015625 14.40625 51.78125 6.484375 
Q 45.5625 -1.421875 35.59375 -1.421875 
Q 29.59375 -1.421875 25.265625 0.953125 
Q 20.953125 3.328125 18.109375 8.203125 
L 18.109375 0 
L 9.078125 0 
L 9.078125 75.984375 
L 18.109375 75.984375 
z
" id="DejaVuSans-98"/>
     <path d="M 48.78125 52.59375 
L 48.78125 44.1875 
Q 44.96875 46.296875 41.140625 47.34375 
Q 37.3125 48.390625 33.40625 48.390625 
Q 24.65625 48.390625 19.8125 42.84375 
Q 14.984375 37.3125 14.984375 27.296875 
Q 14.984375 17.28125 19.8125 11.734375 
Q 24.65625 6.203125 33.40625 6.203125 
Q 37.3125 6.203125 41.140625 7.25 
Q 44.96875 8.296875 48.78125 10.40625 
L 48.78125 2.09375 
Q 45.015625 0.34375 40.984375 -0.53125 
Q 36.96875 -1.421875 32.421875 -1.421875 
Q 20.0625 -1.421875 12.78125 6.34375 
Q 5.515625 14.109375 5.515625 27.296875 
Q 5.515625 40.671875 12.859375 48.328125 
Q 20.21875 56 33.015625 56 
Q 37.15625 56 41.109375 55.140625 
Q 45.0625 54.296875 48.78125 52.59375 
z
" id="DejaVuSans-99"/>
    </defs>
    <use xlink:href="#DejaVuSans-104"/>
    <use x="63.378906" xlink:href="#DejaVuSans-116"/>
    <use x="102.587891" xlink:href="#DejaVuSans-116"/>
    <use x="141.796875" xlink:href="#DejaVuSans-112"/>
    <use x="205.273438" xlink:href="#DejaVuSans-115"/>
    <use x="257.373047" xlink:href="#DejaVuSans-58"/>
    <use x="291.064453" xlink:href="#DejaVuSans-47"/>
    <use x="324.755859" xlink:href="#DejaVuSans-47"/>
    <use x="358.447266" xlink:href="#DejaVuSans-114"/>
    <use x="397.310547" xlink:href="#DejaVuSans-101"/>
    <use x="458.833984" xlink:href="#DejaVuSans-97"/>
    <use x="520.113281" xlink:href="#DejaVuSans-108"/>
    <use x="547.896484" xlink:href="#DejaVuSans-114"/>
    <use x="586.759766" xlink:href="#DejaVuSans-111"/>
    <use x="647.941406" xlink:href="#DejaVuSans-108"/>
    <use x="675.724609" xlink:href="#DejaVuSans-102"/>
    <use x="710.929688" xlink:href="#DejaVuSans-106"/>
    <use x="738.712891" xlink:href="#DejaVuSans-101"/>
    <use x="800.236328" xlink:href="#DejaVuSans-46"/>
    <use x="832.023438" xlink:href="#DejaVuSans-103"/>
    <use x="895.5" xlink:href="#DejaVuSans-105"/>
    <use x="923.283203" xlink:href="#DejaVuSans-116"/>
    <use x="962.492188" xlink:href="#DejaVuSans-104"/>
    <use x="1025.871094" xlink:href="#DejaVuSans-117"/>
    <use x="1089.25" xlink:href="#DejaVuSans-98"/>
    <use x="1152.726562" xlink:href="#DejaVuSans-46"/>
    <use x="1184.513672" xlink:href="#DejaVuSans-105"/>
    <use x="1212.296875" xlink:href="#DejaVuSans-111"/>
    <use x="1273.478516" xlink:href="#DejaVuSans-47"/>
    <use x="1307.169922" xlink:href="#DejaVuSans-99"/>
    <use x="1362.150391" xlink:href="#DejaVuSans-111"/>
    <use x="1423.332031" xlink:href="#DejaVuSans-114"/>
    <use x="1462.195312" xlink:href="#DejaVuSans-111"/>
    <use x="1523.376953" xlink:href="#DejaVuSans-110"/>
    <use x="1586.755859" xlink:href="#DejaVuSans-97"/>
    <use x="1648.035156" xlink:href="#DejaVuSans-100"/>
    <use x="1711.511719" xlink:href="#DejaVuSans-97"/>
    <use x="1772.791016" xlink:href="#DejaVuSans-116"/>
    <use x="1812" xlink:href="#DejaVuSans-97"/>
    <use x="1873.279297" xlink:href="#DejaVuSans-47"/>
   </g>
  </g>
 </g>
 <defs>
  <clipPath id="p840351e169">
   <rect height="284.4" width="590.4" x="64.8" y="28.8"/>
  </clipPath>
 </defs>
</svg>
