<?xml version="1.0" encoding="utf-8" standalone="no"?>
<!DOCTYPE svg PUBLIC "-//W3C//DTD SVG 1.1//EN"
  "http://www.w3.org/Graphics/SVG/1.1/DTD/svg11.dtd">
<!-- Created with matplotlib (https://matplotlib.org/) -->
<svg height="360pt" version="1.1" viewBox="0 0 720 360" width="720pt" xmlns="http://www.w3.org/2000/svg" xmlns:xlink="http://www.w3.org/1999/xlink">
 <metadata>
  <rdf:RDF xmlns:cc="http://creativecommons.org/ns#" xmlns:dc="http://purl.org/dc/elements/1.1/" xmlns:rdf="http://www.w3.org/1999/02/22-rdf-syntax-ns#">
   <cc:Work>
    <dc:type rdf:resource="http://purl.org/dc/dcmitype/StillImage"/>
    <dc:date>2021-06-12T11:40:48.884725</dc:date>
    <dc:format>image/svg+xml</dc:format>
    <dc:creator>
     <cc:Agent>
      <dc:title>Matplotlib v3.3.2, https://matplotlib.org/</dc:title>
     </cc:Agent>
    </dc:creator>
   </cc:Work>
  </rdf:RDF>
 </metadata>
 <defs>
  <style type="text/css">*{stroke-linecap:butt;stroke-linejoin:round;}</style>
 </defs>
 <g id="figure_1">
  <g id="patch_1">
   <path d="M 0 360 
L 720 360 
L 720 0 
L 0 0 
z
" style="fill:#ffffff;"/>
  </g>
  <g id="axes_1">
   <g id="patch_2">
    <path d="M 64.8 313.2 
L 655.2 313.2 
L 655.2 28.8 
L 64.8 28.8 
z
" style="fill:#ffffff;"/>
   </g>
   <g id="PolyCollection_1">
    <path clip-path="url(#p1b9789048c)" d="M 91.636364 313.2 
L 91.636364 313.2 
L 93.183127 313.2 
L 93.842229 313.2 
L 94.501454 313.2 
L 95.815722 313.2 
L 96.476258 313.2 
L 96.917999 313.2 
L 98.458691 313.2 
L 99.114498 313.2 
L 99.773722 313.2 
L 101.091835 313.2 
L 101.750937 313.2 
L 102.409886 313.2 
L 103.727999 313.2 
L 104.387559 313.2 
L 111.636707 313.2 
L 112.295687 313.2 
L 112.954789 313.2 
L 114.272872 313.2 
L 114.932553 313.2 
L 115.591015 313.2 
L 116.909372 313.2 
L 117.56823 313.2 
L 118.19496 313.2 
L 119.545414 313.2 
L 120.204456 313.2 
L 120.79982 313.2 
L 122.180359 313.2 
L 122.839491 313.2 
L 123.499356 313.2 
L 124.816584 313.2 
L 125.476175 313.2 
L 126.134697 313.2 
L 127.455251 313.2 
L 128.114414 313.2 
L 128.745049 313.2 
L 130.091232 313.2 
L 130.750274 313.2 
L 131.409254 313.2 
L 132.725261 313.2 
L 133.384516 313.2 
L 133.925479 313.2 
L 135.361762 313.2 
L 136.020681 313.2 
L 136.679813 313.2 
L 138.000398 313.2 
L 138.617822 313.2 
L 139.273079 313.2 
L 140.636501 313.2 
L 141.296915 313.2 
L 141.806452 313.2 
L 143.270195 313.2 
L 143.930182 313.2 
L 144.590809 313.2 
L 145.828434 313.2 
L 146.565736 313.2 
L 147.224594 313.2 
L 148.542798 313.2 
L 149.203396 313.2 
L 149.862437 313.2 
L 151.179085 313.2 
L 151.838584 313.2 
L 152.497167 313.2 
L 154.247929 313.2 
L 155.00967 313.2 
L 156.452482 313.2 
L 156.929524 313.2 
L 157.565743 313.2 
L 159.087762 313.2 
L 159.746803 313.2 
L 160.405905 313.2 
L 161.724049 313.2 
L 162.380405 313.2 
L 163.039538 313.2 
L 164.357834 313.2 
L 165.016722 313.2 
L 165.675763 313.2 
L 166.993968 313.2 
L 167.652978 313.2 
L 168.311989 313.2 
L 169.630956 313.2 
L 170.289235 313.2 
L 170.950717 313.2 
L 172.26645 313.2 
L 172.742576 313.2 
L 173.584623 313.2 
L 174.902767 313.2 
L 175.562052 313.2 
L 176.220941 313.2 
L 177.539176 313.2 
L 178.198491 313.2 
L 178.857075 313.2 
L 180.176256 313.2 
L 180.834351 313.2 
L 181.442377 313.2 
L 182.811657 313.2 
L 183.470699 313.2 
L 184.129709 313.2 
L 185.447822 313.2 
L 186.109487 313.2 
L 186.766637 313.2 
L 188.08417 313.2 
L 188.743455 313.2 
L 189.402344 313.2 
L 190.720304 313.2 
L 191.379376 313.2 
L 192.03863 313.2 
L 193.356713 313.2 
L 193.8502 313.2 
L 194.674612 313.2 
L 195.994281 313.2 
L 196.651796 313.2 
L 197.214392 313.2 
L 198.629042 313.2 
L 199.288205 313.2 
L 199.947185 313.2 
L 201.268837 313.2 
L 201.945423 313.2 
L 202.587622 313.2 
L 203.901707 313.2 
L 204.560657 313.2 
L 205.219911 313.2 
L 206.538085 313.2 
L 207.197401 313.2 
L 207.858913 313.2 
L 209.174067 313.2 
L 209.833169 313.2 
L 210.344445 313.2 
L 211.504815 313.2 
L 212.469425 313.2 
L 213.128649 313.2 
L 214.452346 313.2 
L 215.108244 313.2 
L 215.768262 313.2 
L 217.082835 313.2 
L 217.741754 313.2 
L 218.40107 313.2 
L 219.719152 313.2 
L 220.37798 313.2 
L 221.037021 313.2 
L 222.358643 313.2 
L 223.014328 313.2 
L 223.67346 313.2 
L 224.991543 313.2 
L 225.650615 313.2 
L 226.240639 313.2 
L 227.631765 313.2 
L 228.290685 313.2 
L 228.949878 313.2 
L 230.267808 313.2 
L 230.926605 313.2 
L 231.586134 313.2 
L 232.900067 313.2 
L 233.559231 313.2 
L 234.218058 313.2 
L 235.541999 313.2 
L 236.199026 313.2 
L 236.642445 313.2 
L 238.173464 313.2 
L 238.831987 313.2 
L 239.49057 313.2 
L 240.808836 313.2 
L 241.467755 313.2 
L 242.126979 313.2 
L 243.444909 313.2 
L 244.10395 313.2 
L 244.767629 313.2 
L 246.084857 313.2 
L 246.744051 313.2 
L 247.403336 313.2 
L 248.718123 313.2 
L 249.376951 313.2 
L 250.035748 313.2 
L 251.120816 313.2 
L 252.012688 313.2 
L 252.671668 313.2 
L 253.990513 313.2 
L 254.649463 313.2 
L 255.307833 313.2 
L 256.627166 313.2 
L 257.284956 313.2 
L 257.94412 313.2 
L 259.262141 313.2 
L 259.921213 313.2 
L 260.580254 313.2 
L 261.898397 313.2 
L 262.557469 313.2 
L 263.216388 313.2 
L 264.534562 313.2 
L 265.193756 313.2 
L 265.85359 313.2 
L 267.171367 313.2 
L 267.829768 313.2 
L 268.489053 313.2 
L 269.807013 313.2 
L 270.466054 313.2 
L 271.125095 313.2 
L 272.4433 313.2 
L 273.102951 313.2 
L 273.76123 313.2 
L 275.080746 313.2 
L 275.735973 313.2 
L 276.326578 313.2 
L 277.713097 313.2 
L 278.372138 313.2 
L 279.031271 313.2 
L 280.349292 313.2 
L 281.008058 313.2 
L 281.667344 313.2 
L 282.986677 313.2 
L 283.644284 313.2 
L 284.303234 313.2 
L 285.621957 313.2 
L 286.280449 313.2 
L 286.93952 313.2 
L 288.259891 313.2 
L 288.917041 313.2 
L 289.575655 313.2 
L 290.894927 313.2 
L 291.552809 313.2 
L 292.211911 313.2 
L 293.530451 313.2 
L 294.189034 313.2 
L 294.850791 313.2 
L 296.16869 313.2 
L 296.82767 313.2 
L 297.487017 313.2 
L 298.805404 313.2 
L 299.46411 313.2 
L 300.123029 313.2 
L 301.442331 313.2 
L 302.100305 313.2 
L 302.759315 313.2 
L 304.077337 313.2 
L 304.736286 313.2 
L 305.39548 313.2 
L 306.713837 313.2 
L 307.37239 313.2 
L 308.031553 313.2 
L 309.349941 313.2 
L 310.008738 313.2 
L 310.667931 313.2 
L 311.984092 313.2 
L 312.644933 313.2 
L 313.304005 313.2 
L 314.622087 313.2 
L 315.084545 313.2 
L 315.940139 313.2 
L 317.258343 313.2 
L 317.917567 313.2 
L 318.576425 313.2 
L 319.89466 313.2 
L 320.553671 313.2 
L 321.213231 313.2 
L 322.530977 313.2 
L 323.189744 313.2 
L 323.848755 313.2 
L 325.166929 313.2 
L 325.743376 313.2 
L 326.485194 313.2 
L 327.800957 313.2 
L 328.459571 313.2 
L 329.118735 313.2 
L 330.441516 313.2 
L 331.100191 313.2 
L 331.759384 313.2 
L 333.07527 313.2 
L 333.731962 313.2 
L 334.391186 313.2 
L 335.709146 313.2 
L 336.368218 313.2 
L 337.028022 313.2 
L 338.347935 313.2 
L 339.004444 313.2 
L 339.666109 313.2 
L 340.991697 313.2 
L 341.645337 313.2 
L 342.307521 313.2 
L 343.621942 313.2 
L 344.279397 313.2 
L 344.938377 313.2 
L 346.263446 313.2 
L 346.920291 313.2 
L 347.579454 313.2 
L 348.894089 313.2 
L 349.552001 313.2 
L 350.21153 313.2 
L 351.53007 313.2 
L 352.188104 313.2 
L 352.847268 313.2 
L 354.16538 313.2 
L 354.824361 313.2 
L 355.48331 313.2 
L 356.802735 313.2 
L 357.460586 313.2 
L 358.035478 313.2 
L 359.445185 313.2 
L 360.101877 313.2 
L 360.760979 313.2 
L 362.0772 313.2 
L 362.733099 313.2 
L 363.293314 313.2 
L 364.71248 313.2 
L 365.366395 313.2 
L 366.028396 313.2 
L 367.350933 313.2 
L 368.007289 313.2 
L 368.666208 313.2 
L 369.979683 313.2 
L 370.638664 313.2 
L 371.297644 313.2 
L 372.617313 313.2 
L 373.275042 313.2 
L 373.936066 313.2 
L 375.254942 313.2 
L 375.910962 313.2 
L 376.570095 313.2 
L 377.892846 313.2 
L 378.54728 313.2 
L 378.98841 313.2 
L 380.52959 313.2 
L 381.186099 313.2 
L 381.845292 313.2 
L 383.165999 313.2 
L 383.822568 313.2 
L 384.481488 313.2 
L 385.802285 313.2 
L 386.459038 313.2 
L 387.117866 313.2 
L 388.435826 313.2 
L 389.094959 313.2 
L 389.753908 313.2 
L 391.077879 313.2 
L 391.731947 313.2 
L 392.307357 313.2 
L 393.710535 313.2 
L 394.368722 313.2 
L 395.026726 313.2 
L 397.003727 313.2 
L 397.662585 313.2 
L 398.988631 313.2 
L 399.639861 313.2 
L 400.299055 313.2 
L 401.61909 313.2 
L 402.279138 313.2 
L 406.889345 313.2 
L 407.54863 313.2 
L 408.20758 313.2 
L 409.525967 313.2 
L 410.184764 313.2 
L 410.843744 313.2 
L 412.830906 313.2 
L 413.480122 313.2 
L 415.457215 313.2 
L 416.116287 313.2 
L 418.096248 313.2 
L 418.752391 313.2 
L 420.731589 313.2 
L 421.392735 313.2 
L 423.367449 313.2 
L 424.02591 313.2 
L 425.346525 313.2 
L 425.967152 313.2 
L 426.650511 313.2 
L 427.943422 313.2 
L 428.424033 313.2 
L 429.293754 313.2 
L 430.619434 313.2 
L 431.170557 313.2 
L 431.905723 313.2 
L 433.712778 313.2 
L 434.3832 313.2 
L 435.907019 313.2 
L 436.351048 313.2 
L 437.191295 313.2 
L 438.540407 313.2 
L 439.194749 313.2 
L 439.853302 313.2 
L 441.172056 313.2 
L 441.618099 313.2 
L 442.492976 313.2 
L 443.811058 313.2 
L 444.254263 313.2 
L 445.129384 313.2 
L 446.447223 313.2 
L 446.891191 313.2 
L 447.765458 313.2 
L 449.048025 313.2 
L 449.528027 313.2 
L 450.401683 313.2 
L 451.720315 313.2 
L 452.16294 313.2 
L 453.037604 313.2 
L 454.357181 313.2 
L 454.805146 313.2 
L 455.619642 313.2 
L 456.993895 313.2 
L 457.437649 313.2 
L 458.197286 313.2 
L 459.630121 313.2 
L 460.073082 313.2 
L 460.946281 313.2 
L 462.265401 313.2 
L 462.708362 313.2 
L 463.58269 313.2 
L 464.802221 313.2 
L 465.282863 313.2 
L 466.219373 313.2 
L 467.538676 313.2 
L 467.980477 313.2 
L 468.854988 313.2 
L 470.174871 313.2 
L 470.616764 313.2 
L 471.491306 313.2 
L 472.810639 313.2 
L 473.253203 313.2 
L 474.127379 313.2 
L 475.888971 313.2 
L 476.763726 313.2 
L 477.946614 313.2 
L 478.525441 313.2 
L 479.403613 313.2 
L 480.717943 313.2 
L 481.161697 313.2 
L 482.036056 313.2 
L 483.354077 313.2 
L 483.804056 313.2 
L 484.672129 313.2 
L 485.992377 313.2 
L 486.43424 313.2 
L 487.308446 313.2 
L 488.265368 313.2 
L 489.071839 313.2 
L 489.94458 313.2 
L 491.26428 313.2 
L 491.706936 313.2 
L 492.4551 313.2 
L 493.899803 313.2 
L 494.342826 313.2 
L 495.217062 313.2 
L 496.537311 313.2 
L 496.978929 313.2 
L 497.853257 313.2 
L 498.906747 313.2 
L 499.615338 313.2 
L 500.489452 313.2 
L 502.251289 313.2 
L 503.125586 313.2 
L 504.445438 313.2 
L 504.887637 313.2 
L 505.762483 313.2 
L 507.524015 313.2 
L 508.398404 313.2 
L 509.717859 313.2 
L 510.160363 313.2 
L 511.03463 313.2 
L 512.354085 313.2 
L 512.7979 313.2 
L 513.286201 313.2 
L 515.432936 313.2 
L 516.306684 313.2 
L 517.624889 313.2 
L 518.068735 313.2 
L 518.943002 313.2 
L 520.261053 313.2 
L 520.704991 313.2 
L 521.592866 313.2 
L 522.897371 313.2 
L 523.341155 313.2 
L 524.207306 313.2 
L 525.533413 313.2 
L 526.204354 313.2 
L 526.851801 313.2 
L 527.940073 313.2 
L 528.833409 313.2 
L 529.506119 313.2 
L 530.826307 313.2 
L 531.267926 313.2 
L 532.142315 313.2 
L 533.904609 313.2 
L 534.778418 313.2 
L 536.098331 313.2 
L 536.540835 313.2 
L 537.414461 313.2 
L 538.732604 313.2 
L 539.176694 313.2 
L 540.050961 313.2 
L 541.82186 313.2 
L 542.687553 313.2 
L 544.441091 313.2 
L 545.323199 313.2 
L 547.086592 313.2 
L 547.961103 313.2 
L 549.280466 313.2 
L 549.721749 313.2 
L 550.595467 313.2 
L 551.915014 313.2 
L 552.358006 313.2 
L 553.231723 313.2 
L 554.550355 313.2 
L 554.994109 313.2 
L 555.867827 313.2 
L 557.186062 313.2 
L 557.630274 313.2 
L 558.150703 313.2 
L 559.825979 313.2 
L 560.268391 313.2 
L 561.1404 313.2 
L 562.902969 313.2 
L 563.776779 313.2 
L 565.097302 313.2 
L 565.540629 313.2 
L 566.412821 313.2 
L 567.733009 313.2 
L 568.17597 313.2 
L 569.049077 313.2 
L 570.81186 313.2 
L 571.685303 313.2 
L 573.003538 313.2 
L 573.447109 313.2 
L 574.321407 313.2 
L 575.641259 313.2 
L 576.086233 313.2 
L 576.957815 313.2 
L 578.278491 313.2 
L 578.719896 313.2 
L 579.594468 313.2 
L 580.914534 313.2 
L 581.356061 313.2 
L 582.229962 313.2 
L 583.551583 313.2 
L 583.99308 313.2 
L 584.866401 313.2 
L 586.187687 313.2 
L 586.628421 313.2 
L 587.502444 313.2 
L 589.267697 313.2 
L 590.138395 313.2 
L 591.456752 313.2 
L 591.901208 313.2 
L 592.774712 313.2 
L 594.092947 313.2 
L 594.537281 313.2 
L 595.410846 313.2 
L 596.722094 313.2 
L 597.173751 313.2 
L 598.047011 313.2 
L 599.809671 313.2 
L 600.683236 313.2 
L 602.004126 313.2 
L 602.446141 313.2 
L 603.319553 313.2 
L 604.747018 313.2 
L 605.29686 313.2 
L 605.955779 313.2 
L 607.718531 313.2 
L 608.591791 313.2 
L 609.910087 313.2 
L 610.354726 313.2 
L 611.227864 313.2 
L 612.54613 313.2 
L 612.990433 313.2 
L 613.864212 313.2 
L 615.184827 313.2 
L 615.626598 313.2 
L 616.500194 313.2 
L 618.262885 313.2 
L 619.136389 313.2 
L 620.457065 313.2 
L 620.899049 313.2 
L 621.772584 313.2 
L 623.093199 313.2 
L 623.537746 313.2 
L 624.408596 313.2 
L 625.728967 313.2 
L 626.171257 313.2 
L 627.044822 313.2 
L 628.363636 313.2 
L 628.363636 313.2 
L 628.363636 153.070698 
L 627.044822 71.828763 
L 626.171257 -162.86472 
L 625.728967 153.856802 
L 624.408596 71.730637 
L 623.537746 -159.129276 
L 623.093199 154.229215 
L 621.772584 73.018244 
L 620.899049 -160.436984 
L 620.457065 154.792394 
L 619.136389 73.980911 
L 618.262885 194.776332 
L 616.500194 74.563604 
L 615.626598 -157.66078 
L 615.184827 155.873148 
L 613.864212 75.516175 
L 612.990433 -153.62354 
L 612.54613 155.942278 
L 611.227864 76.164552 
L 610.354726 -151.268932 
L 609.910087 156.745636 
L 608.591791 77.366012 
L 607.718531 196.602565 
L 605.955779 2.180082 
L 605.29686 -58.936108 
L 604.747018 170.034808 
L 603.319553 79.475784 
L 602.446141 -147.75412 
L 602.004126 159.133915 
L 600.683236 80.532607 
L 599.809671 198.367365 
L 598.047011 82.117281 
L 597.173751 -130.651983 
L 596.722094 160.907422 
L 595.410846 85.89023 
L 594.537281 -131.657091 
L 594.092947 163.456316 
L 592.774712 88.136169 
L 591.901208 -127.388233 
L 591.456752 164.986627 
L 590.138395 89.677221 
L 589.267697 203.570498 
L 587.502444 92.898003 
L 586.628421 -121.5056 
L 586.187687 168.908728 
L 584.866401 95.269428 
L 583.99308 -117.163729 
L 583.551583 169.553992 
L 582.229962 96.08414 
L 581.356061 -114.463189 
L 580.914534 170.372615 
L 579.594468 97.724118 
L 578.719896 -112.847588 
L 578.278491 170.893938 
L 576.957815 97.719489 
L 576.086233 -108.516999 
L 575.641259 171.077274 
L 574.321407 98.862179 
L 573.447109 -108.654155 
L 573.003538 171.347248 
L 571.685303 99.169032 
L 570.81186 207.240025 
L 569.049077 99.500263 
L 568.17597 -107.401783 
L 567.733009 172.166351 
L 566.412821 99.822155 
L 565.540629 -106.437875 
L 565.097302 172.403257 
L 563.776779 100.53674 
L 562.902969 208.113321 
L 561.1404 101.183358 
L 560.268391 -104.183731 
L 559.825979 203.09242 
L 558.150703 -41.04101 
L 557.630274 -101.576057 
L 557.186062 173.539163 
L 555.867827 102.661538 
L 554.994109 -101.159104 
L 554.550355 173.806223 
L 553.231723 102.938624 
L 552.358006 -101.044035 
L 551.915014 174.26983 
L 550.595467 104.180981 
L 549.721749 -98.7192 
L 549.280466 175.635618 
L 547.961103 105.860089 
L 547.086592 210.460818 
L 545.323199 108.212447 
L 544.441091 210.498049 
L 542.687553 106.192869 
L 541.82186 212.39563 
L 540.050961 109.975207 
L 539.176694 -85.493993 
L 538.732604 179.151818 
L 537.414461 111.801666 
L 536.540835 -83.058517 
L 536.098331 180.591775 
L 534.778418 113.540525 
L 533.904609 214.50911 
L 532.142315 115.147863 
L 531.267926 -77.627795 
L 530.826307 182.738409 
L 529.506119 57.991686 
L 528.833409 121.456078 
L 527.940073 156.852725 
L 526.851801 51.317262 
L 526.204354 61.389562 
L 525.533413 186.081343 
L 524.207306 118.817912 
L 523.341155 -65.671783 
L 522.897371 184.485065 
L 521.592866 124.303937 
L 520.704991 -64.292683 
L 520.261053 186.092465 
L 518.943002 121.703178 
L 518.068735 -63.297244 
L 517.624889 186.533724 
L 516.306684 122.231543 
L 515.432936 235.546289 
L 513.286201 -27.486159 
L 512.7979 -61.387561 
L 512.354085 187.381805 
L 511.03463 123.382481 
L 510.160363 -61.580457 
L 509.717859 187.612629 
L 508.398404 123.801093 
L 507.524015 219.320829 
L 505.762483 124.302693 
L 504.887637 -59.825749 
L 504.445438 188.265723 
L 503.125586 124.737021 
L 502.251289 219.82023 
L 500.489452 125.292036 
L 499.615338 81.769216 
L 498.906747 157.69312 
L 497.853257 125.86978 
L 496.978929 -57.043952 
L 496.537311 189.640061 
L 495.217062 126.877354 
L 494.342826 -53.668257 
L 493.899803 200.765972 
L 492.4551 96.419798 
L 491.706936 -52.71837 
L 491.26428 190.55321 
L 489.94458 127.867756 
L 489.071839 113.198885 
L 488.265368 144.840132 
L 487.308446 128.94331 
L 486.43424 -51.024681 
L 485.992377 191.349549 
L 484.672129 128.073147 
L 483.804056 -43.53556 
L 483.354077 191.439859 
L 482.036056 129.752425 
L 481.161697 -48.028902 
L 480.717943 191.388966 
L 479.403613 131.133113 
L 478.525441 37.305681 
L 477.946614 178.282492 
L 476.763726 131.522421 
L 475.888971 223.384812 
L 474.127379 133.269387 
L 473.253203 -41.130094 
L 472.810639 194.413978 
L 471.491306 134.317992 
L 470.616764 -38.487265 
L 470.174871 195.865666 
L 468.854988 136.383432 
L 467.980477 -34.282437 
L 467.538676 197.204881 
L 466.219373 149.989355 
L 465.282863 -4.333248 
L 464.802221 188.182918 
L 463.58269 138.900878 
L 462.708362 -30.569709 
L 462.265401 197.792914 
L 460.946281 138.899081 
L 460.073082 -29.195218 
L 459.630121 207.808261 
L 458.197286 116.131308 
L 457.437649 -20.769031 
L 456.993895 205.872548 
L 455.619642 132.443829 
L 454.805146 -14.700881 
L 454.357181 202.289243 
L 453.037604 146.181659 
L 452.16294 -15.745195 
L 451.720315 202.90853 
L 450.401683 146.855334 
L 449.528027 10.780006 
L 449.048025 200.069089 
L 447.765458 147.356383 
L 446.891191 -13.132211 
L 446.447223 203.28065 
L 445.129384 147.732468 
L 444.254263 -13.32382 
L 443.811058 203.455048 
L 442.492976 148.0343 
L 441.618099 -9.355744 
L 441.172056 204.54846 
L 439.853302 95.980913 
L 439.194749 94.685322 
L 438.540407 207.351237 
L 437.191295 143.392647 
L 436.351048 -7.266836 
L 435.907019 219.897717 
L 434.3832 101.369384 
L 433.712778 234.72026 
L 431.905723 120.680287 
L 431.170557 56.636576 
L 430.619434 206.57583 
L 429.293754 150.7536 
L 428.424033 19.49965 
L 427.943422 204.116076 
L 426.650511 106.894735 
L 425.967152 86.350763 
L 425.346525 206.653003 
L 424.02591 99.585041 
L 423.367449 242.075809 
L 421.392735 101.385696 
L 420.731589 242.623685 
L 418.752391 101.091518 
L 418.096248 242.934847 
L 416.116287 102.37781 
L 415.457215 242.998864 
L 413.480122 99.514329 
L 412.830906 243.464541 
L 410.843744 103.694124 
L 410.184764 104.271186 
L 409.525967 209.162176 
L 408.20758 106.113894 
L 407.54863 106.793379 
L 406.889345 244.468732 
L 402.279138 108.500612 
L 401.61909 211.102334 
L 400.299055 108.951 
L 399.639861 106.484436 
L 398.988631 211.724106 
L 397.662585 110.262892 
L 397.003727 245.950208 
L 395.026726 111.726582 
L 394.368722 111.979376 
L 393.710535 218.855614 
L 392.307357 83.268818 
L 391.731947 111.034816 
L 391.077879 213.53517 
L 389.753908 113.058661 
L 389.094959 113.228101 
L 388.435826 213.246547 
L 387.117866 113.317934 
L 386.459038 113.169342 
L 385.802285 213.999324 
L 384.481488 114.40052 
L 383.822568 113.732084 
L 383.165999 214.092967 
L 381.845292 114.661034 
L 381.186099 113.915107 
L 380.52959 228.363878 
L 378.98841 17.101815 
L 378.54728 113.797091 
L 377.892846 214.60036 
L 376.570095 115.424608 
L 375.910962 114.707912 
L 375.254942 214.535662 
L 373.936066 116.392248 
L 373.275042 115.496633 
L 372.617313 214.73109 
L 371.297644 116.101668 
L 370.638664 116.251186 
L 369.979683 214.439168 
L 368.666208 116.711585 
L 368.007289 116.177691 
L 367.350933 215.470134 
L 366.028396 118.027358 
L 365.366395 115.812167 
L 364.71248 222.356285 
L 363.293314 83.291365 
L 362.733099 117.373761 
L 362.0772 215.730973 
L 360.760979 118.673744 
L 360.101877 118.097601 
L 359.445185 222.383698 
L 358.035478 90.559625 
L 357.460586 118.738521 
L 356.802735 216.393785 
L 355.48331 119.422706 
L 354.824361 119.450888 
L 354.16538 216.48699 
L 352.847268 120.919 
L 352.188104 121.130583 
L 351.53007 217.667333 
L 350.21153 122.588735 
L 349.552001 122.222636 
L 348.894089 217.662733 
L 347.579454 122.755349 
L 346.920291 122.447122 
L 346.263446 218.910135 
L 344.938377 123.709743 
L 344.279397 123.372548 
L 343.621942 218.372005 
L 342.307521 125.664328 
L 341.645337 123.973398 
L 340.991697 220.219508 
L 339.666109 126.992612 
L 339.004444 125.692236 
L 338.347935 220.269394 
L 337.028022 127.485203 
L 336.368218 127.333803 
L 335.709146 220.350947 
L 334.391186 127.712842 
L 333.731962 127.052667 
L 333.07527 220.370721 
L 331.759384 128.024092 
L 331.100191 127.933241 
L 330.441516 221.037646 
L 329.118735 128.323549 
L 328.459571 128.2481 
L 327.800957 220.824575 
L 326.485194 149.597648 
L 325.743376 102.833466 
L 325.166929 221.242793 
L 323.848755 129.311675 
L 323.189744 129.843869 
L 322.530977 222.095975 
L 321.213231 131.856474 
L 320.553671 132.838777 
L 319.89466 224.054985 
L 318.576425 137.494868 
L 317.917567 138.773064 
L 317.258343 226.534262 
L 315.940139 180.883844 
L 315.084545 70.738479 
L 314.622087 228.796308 
L 313.304005 146.521412 
L 312.644933 148.051136 
L 311.984092 231.443943 
L 310.667931 151.409465 
L 310.008738 151.984004 
L 309.349941 232.979967 
L 308.031553 154.553332 
L 307.37239 155.458077 
L 306.713837 234.944704 
L 305.39548 158.71887 
L 304.736286 159.618068 
L 304.077337 236.536423 
L 302.759315 159.94396 
L 302.100305 159.734362 
L 301.442331 236.877252 
L 300.123029 160.56265 
L 299.46411 160.568901 
L 298.805404 236.966424 
L 297.487017 160.815503 
L 296.82767 160.822109 
L 296.16869 237.216649 
L 294.850791 162.963639 
L 294.189034 162.876621 
L 293.530451 238.408504 
L 292.211911 164.799342 
L 291.552809 165.20909 
L 290.894927 239.87068 
L 289.575655 167.191205 
L 288.917041 167.611096 
L 288.259891 241.055423 
L 286.93952 169.68606 
L 286.280449 170.303556 
L 285.621957 242.214795 
L 284.303234 172.243016 
L 283.644284 172.93767 
L 282.986677 243.638634 
L 281.667344 174.32846 
L 281.008058 174.393711 
L 280.349292 244.155948 
L 279.031271 176.298578 
L 278.372138 176.821344 
L 277.713097 248.535996 
L 276.326578 162.767499 
L 275.735973 178.208792 
L 275.080746 246.435807 
L 273.76123 179.478204 
L 273.102951 179.836321 
L 272.4433 246.529309 
L 271.125095 179.905515 
L 270.466054 180.044629 
L 269.807013 246.700641 
L 268.489053 180.428674 
L 267.829768 180.365775 
L 267.171367 246.904742 
L 265.85359 180.858726 
L 265.193756 180.86919 
L 264.534562 247.143893 
L 263.216388 181.208206 
L 262.557469 181.472692 
L 261.898397 247.462283 
L 260.580254 181.896221 
L 259.921213 182.077001 
L 259.262141 247.734667 
L 257.94412 182.619508 
L 257.284956 183.032521 
L 256.627166 248.433119 
L 255.307833 183.589029 
L 254.649463 183.818567 
L 253.990513 248.681525 
L 252.671668 184.110409 
L 252.012688 217.897394 
L 251.120816 235.033004 
L 250.035748 184.514684 
L 249.376951 184.778446 
L 248.718123 249.165442 
L 247.403336 185.628651 
L 246.744051 185.702756 
L 246.084857 249.645726 
L 244.767629 187.120334 
L 244.10395 186.704171 
L 243.444909 250.106213 
L 242.126979 187.239754 
L 241.467755 187.605194 
L 240.808836 250.501397 
L 239.49057 188.4097 
L 238.831987 188.786207 
L 238.173464 259.735634 
L 236.642445 128.913087 
L 236.199026 189.466257 
L 235.541999 252.014748 
L 234.218058 190.589517 
L 233.559231 191.12304 
L 232.900067 252.012312 
L 231.586134 191.584342 
L 230.926605 192.098331 
L 230.267808 253.086661 
L 228.949878 194.697294 
L 228.290685 196.280625 
L 227.631765 258.618872 
L 226.240639 186.05972 
L 225.650615 200.182534 
L 224.991543 256.998028 
L 223.67346 201.842469 
L 223.014328 201.897472 
L 222.358643 258.318486 
L 221.037021 204.374601 
L 220.37798 205.178426 
L 219.719152 259.563436 
L 218.40107 206.883594 
L 217.741754 207.457154 
L 217.082835 260.584615 
L 215.768262 209.339373 
L 215.108244 209.399084 
L 214.452346 262.221543 
L 213.128649 212.233664 
L 212.469425 244.76497 
L 211.504815 256.796692 
L 210.344445 186.65401 
L 209.833169 215.756862 
L 209.174067 264.823726 
L 207.858913 217.979369 
L 207.197401 218.346901 
L 206.538085 266.143143 
L 205.219911 220.294831 
L 204.560657 220.913359 
L 203.901707 267.27448 
L 202.587622 220.551202 
L 201.945423 225.858174 
L 201.268837 268.866828 
L 199.947185 225.339991 
L 199.288205 226.227115 
L 198.629042 273.045715 
L 197.214392 213.605212 
L 196.651796 228.503528 
L 195.994281 271.403582 
L 194.674612 246.381695 
L 193.8502 201.950019 
L 193.356713 271.590648 
L 192.03863 230.138537 
L 191.379376 230.706014 
L 190.720304 272.262253 
L 189.402344 232.486518 
L 188.743455 233.24395 
L 188.08417 273.529261 
L 186.766637 234.768447 
L 186.109487 235.9865 
L 185.447822 274.844184 
L 184.129709 237.75101 
L 183.470699 238.605896 
L 182.811657 277.652072 
L 181.442377 234.442745 
L 180.834351 241.050103 
L 180.176256 277.521391 
L 178.857075 242.623026 
L 178.198491 243.268344 
L 177.539176 278.508798 
L 176.220941 244.812797 
L 175.562052 245.657853 
L 174.902767 279.993081 
L 173.584623 262.71232 
L 172.742576 225.941046 
L 172.26645 281.97433 
L 170.950717 252.187932 
L 170.289235 253.550507 
L 169.630956 284.134982 
L 168.311989 257.220546 
L 167.652978 258.380601 
L 166.993968 286.43452 
L 165.675763 261.725934 
L 165.016722 262.791422 
L 164.357834 288.551166 
L 163.039538 265.808728 
L 162.380405 266.844585 
L 161.724049 290.722606 
L 160.405905 269.337366 
L 159.746803 269.889105 
L 159.087762 294.728885 
L 157.565743 270.31357 
L 156.929524 256.803214 
L 156.452482 294.748517 
L 155.00967 279.275569 
L 154.247929 298.912998 
L 152.497167 275.777127 
L 151.838584 276.159771 
L 151.179085 294.866726 
L 149.862437 276.597034 
L 149.203396 276.8361 
L 148.542798 295.042395 
L 147.224594 276.954127 
L 146.565736 280.90524 
L 145.828434 294.024232 
L 144.590809 277.42964 
L 143.930182 278.068485 
L 143.270195 297.754941 
L 141.806452 270.255852 
L 141.296915 280.550874 
L 140.636501 297.969985 
L 139.273079 284.001235 
L 138.617822 283.868214 
L 138.000398 299.97739 
L 136.679813 287.632387 
L 136.020681 288.666449 
L 135.361762 302.565018 
L 133.925479 286.565777 
L 133.384516 291.782621 
L 132.725261 302.821293 
L 131.409254 293.551765 
L 130.750274 294.11007 
L 130.091232 304.121349 
L 128.745049 294.947153 
L 128.114414 296.246168 
L 127.455251 305.033243 
L 126.134697 297.84283 
L 125.476175 298.8027 
L 124.816584 306.666687 
L 123.499356 301.471816 
L 122.839491 302.276036 
L 122.180359 308.482339 
L 120.79982 302.549125 
L 120.204456 304.194203 
L 119.545414 308.822501 
L 118.19496 303.979335 
L 117.56823 304.488019 
L 116.909372 309.124623 
L 115.591015 305.704527 
L 114.932553 306.274635 
L 114.272872 309.911775 
L 112.954789 306.718942 
L 112.295687 306.895311 
L 111.636707 311.149728 
L 104.387559 307.054827 
L 103.727999 310.154755 
L 102.409886 307.404778 
L 101.750937 308.164318 
L 101.091835 310.996031 
L 99.773722 309.729046 
L 99.114498 310.353922 
L 98.458691 312.353538 
L 96.917999 310.848753 
L 96.476258 311.875831 
L 95.815722 312.605804 
L 94.501454 312.181223 
L 93.842229 312.335044 
L 93.183127 312.89201 
L 91.636364 313.2 
z
" style="fill:#ffa07a;fill-opacity:0.3;"/>
   </g>
   <g id="matplotlib.axis_1">
    <g id="xtick_1">
     <g id="line2d_1">
      <path clip-path="url(#p1b9789048c)" d="M 91.636364 313.2 
L 91.636364 28.8 
" style="fill:none;stroke:#808080;stroke-dasharray:6.4,1.6,1,1.6;stroke-dashoffset:0;stroke-opacity:0.3;"/>
     </g>
     <g id="line2d_2">
      <defs>
       <path d="M 0 0 
L 0 3.5 
" id="mc4b8c9f141" style="stroke:#000000;stroke-width:0.8;"/>
      </defs>
      <g>
       <use style="stroke:#000000;stroke-width:0.8;" x="91.636364" xlink:href="#mc4b8c9f141" y="313.2"/>
      </g>
     </g>
     <g id="text_1">
      <!-- 2020-11-20 -->
      <g transform="translate(62.578551 327.798437)scale(0.1 -0.1)">
       <defs>
        <path d="M 19.1875 8.296875 
L 53.609375 8.296875 
L 53.609375 0 
L 7.328125 0 
L 7.328125 8.296875 
Q 12.9375 14.109375 22.625 23.890625 
Q 32.328125 33.6875 34.8125 36.53125 
Q 39.546875 41.84375 41.421875 45.53125 
Q 43.3125 49.21875 43.3125 52.78125 
Q 43.3125 58.59375 39.234375 62.25 
Q 35.15625 65.921875 28.609375 65.921875 
Q 23.96875 65.921875 18.8125 64.3125 
Q 13.671875 62.703125 7.8125 59.421875 
L 7.8125 69.390625 
Q 13.765625 71.78125 18.9375 73 
Q 24.125 74.21875 28.421875 74.21875 
Q 39.75 74.21875 46.484375 68.546875 
Q 53.21875 62.890625 53.21875 53.421875 
Q 53.21875 48.921875 51.53125 44.890625 
Q 49.859375 40.875 45.40625 35.40625 
Q 44.1875 33.984375 37.640625 27.21875 
Q 31.109375 20.453125 19.1875 8.296875 
z
" id="DejaVuSans-50"/>
        <path d="M 31.78125 66.40625 
Q 24.171875 66.40625 20.328125 58.90625 
Q 16.5 51.421875 16.5 36.375 
Q 16.5 21.390625 20.328125 13.890625 
Q 24.171875 6.390625 31.78125 6.390625 
Q 39.453125 6.390625 43.28125 13.890625 
Q 47.125 21.390625 47.125 36.375 
Q 47.125 51.421875 43.28125 58.90625 
Q 39.453125 66.40625 31.78125 66.40625 
z
M 31.78125 74.21875 
Q 44.046875 74.21875 50.515625 64.515625 
Q 56.984375 54.828125 56.984375 36.375 
Q 56.984375 17.96875 50.515625 8.265625 
Q 44.046875 -1.421875 31.78125 -1.421875 
Q 19.53125 -1.421875 13.0625 8.265625 
Q 6.59375 17.96875 6.59375 36.375 
Q 6.59375 54.828125 13.0625 64.515625 
Q 19.53125 74.21875 31.78125 74.21875 
z
" id="DejaVuSans-48"/>
        <path d="M 4.890625 31.390625 
L 31.203125 31.390625 
L 31.203125 23.390625 
L 4.890625 23.390625 
z
" id="DejaVuSans-45"/>
        <path d="M 12.40625 8.296875 
L 28.515625 8.296875 
L 28.515625 63.921875 
L 10.984375 60.40625 
L 10.984375 69.390625 
L 28.421875 72.90625 
L 38.28125 72.90625 
L 38.28125 8.296875 
L 54.390625 8.296875 
L 54.390625 0 
L 12.40625 0 
z
" id="DejaVuSans-49"/>
       </defs>
       <use xlink:href="#DejaVuSans-50"/>
       <use x="63.623047" xlink:href="#DejaVuSans-48"/>
       <use x="127.246094" xlink:href="#DejaVuSans-50"/>
       <use x="190.869141" xlink:href="#DejaVuSans-48"/>
       <use x="254.492188" xlink:href="#DejaVuSans-45"/>
       <use x="290.576172" xlink:href="#DejaVuSans-49"/>
       <use x="354.199219" xlink:href="#DejaVuSans-49"/>
       <use x="417.822266" xlink:href="#DejaVuSans-45"/>
       <use x="453.90625" xlink:href="#DejaVuSans-50"/>
       <use x="517.529297" xlink:href="#DejaVuSans-48"/>
      </g>
     </g>
    </g>
    <g id="xtick_2">
     <g id="line2d_3">
      <path clip-path="url(#p1b9789048c)" d="M 168.085139 313.2 
L 168.085139 28.8 
" style="fill:none;stroke:#808080;stroke-dasharray:6.4,1.6,1,1.6;stroke-dashoffset:0;stroke-opacity:0.3;"/>
     </g>
     <g id="line2d_4">
      <g>
       <use style="stroke:#000000;stroke-width:0.8;" x="168.085139" xlink:href="#mc4b8c9f141" y="313.2"/>
      </g>
     </g>
     <g id="text_2">
      <!-- 2020-12-19 -->
      <g transform="translate(139.027326 327.798437)scale(0.1 -0.1)">
       <defs>
        <path d="M 10.984375 1.515625 
L 10.984375 10.5 
Q 14.703125 8.734375 18.5 7.8125 
Q 22.3125 6.890625 25.984375 6.890625 
Q 35.75 6.890625 40.890625 13.453125 
Q 46.046875 20.015625 46.78125 33.40625 
Q 43.953125 29.203125 39.59375 26.953125 
Q 35.25 24.703125 29.984375 24.703125 
Q 19.046875 24.703125 12.671875 31.3125 
Q 6.296875 37.9375 6.296875 49.421875 
Q 6.296875 60.640625 12.9375 67.421875 
Q 19.578125 74.21875 30.609375 74.21875 
Q 43.265625 74.21875 49.921875 64.515625 
Q 56.59375 54.828125 56.59375 36.375 
Q 56.59375 19.140625 48.40625 8.859375 
Q 40.234375 -1.421875 26.421875 -1.421875 
Q 22.703125 -1.421875 18.890625 -0.6875 
Q 15.09375 0.046875 10.984375 1.515625 
z
M 30.609375 32.421875 
Q 37.25 32.421875 41.125 36.953125 
Q 45.015625 41.5 45.015625 49.421875 
Q 45.015625 57.28125 41.125 61.84375 
Q 37.25 66.40625 30.609375 66.40625 
Q 23.96875 66.40625 20.09375 61.84375 
Q 16.21875 57.28125 16.21875 49.421875 
Q 16.21875 41.5 20.09375 36.953125 
Q 23.96875 32.421875 30.609375 32.421875 
z
" id="DejaVuSans-57"/>
       </defs>
       <use xlink:href="#DejaVuSans-50"/>
       <use x="63.623047" xlink:href="#DejaVuSans-48"/>
       <use x="127.246094" xlink:href="#DejaVuSans-50"/>
       <use x="190.869141" xlink:href="#DejaVuSans-48"/>
       <use x="254.492188" xlink:href="#DejaVuSans-45"/>
       <use x="290.576172" xlink:href="#DejaVuSans-49"/>
       <use x="354.199219" xlink:href="#DejaVuSans-50"/>
       <use x="417.822266" xlink:href="#DejaVuSans-45"/>
       <use x="453.90625" xlink:href="#DejaVuSans-49"/>
       <use x="517.529297" xlink:href="#DejaVuSans-57"/>
      </g>
     </g>
    </g>
    <g id="xtick_3">
     <g id="line2d_5">
      <path clip-path="url(#p1b9789048c)" d="M 244.533913 313.2 
L 244.533913 28.8 
" style="fill:none;stroke:#808080;stroke-dasharray:6.4,1.6,1,1.6;stroke-dashoffset:0;stroke-opacity:0.3;"/>
     </g>
     <g id="line2d_6">
      <g>
       <use style="stroke:#000000;stroke-width:0.8;" x="244.533913" xlink:href="#mc4b8c9f141" y="313.2"/>
      </g>
     </g>
     <g id="text_3">
      <!-- 2021-01-17 -->
      <g transform="translate(215.476101 327.798437)scale(0.1 -0.1)">
       <defs>
        <path d="M 8.203125 72.90625 
L 55.078125 72.90625 
L 55.078125 68.703125 
L 28.609375 0 
L 18.3125 0 
L 43.21875 64.59375 
L 8.203125 64.59375 
z
" id="DejaVuSans-55"/>
       </defs>
       <use xlink:href="#DejaVuSans-50"/>
       <use x="63.623047" xlink:href="#DejaVuSans-48"/>
       <use x="127.246094" xlink:href="#DejaVuSans-50"/>
       <use x="190.869141" xlink:href="#DejaVuSans-49"/>
       <use x="254.492188" xlink:href="#DejaVuSans-45"/>
       <use x="290.576172" xlink:href="#DejaVuSans-48"/>
       <use x="354.199219" xlink:href="#DejaVuSans-49"/>
       <use x="417.822266" xlink:href="#DejaVuSans-45"/>
       <use x="453.90625" xlink:href="#DejaVuSans-49"/>
       <use x="517.529297" xlink:href="#DejaVuSans-55"/>
      </g>
     </g>
    </g>
    <g id="xtick_4">
     <g id="line2d_7">
      <path clip-path="url(#p1b9789048c)" d="M 320.982688 313.2 
L 320.982688 28.8 
" style="fill:none;stroke:#808080;stroke-dasharray:6.4,1.6,1,1.6;stroke-dashoffset:0;stroke-opacity:0.3;"/>
     </g>
     <g id="line2d_8">
      <g>
       <use style="stroke:#000000;stroke-width:0.8;" x="320.982688" xlink:href="#mc4b8c9f141" y="313.2"/>
      </g>
     </g>
     <g id="text_4">
      <!-- 2021-02-15 -->
      <g transform="translate(291.924876 327.798437)scale(0.1 -0.1)">
       <defs>
        <path d="M 10.796875 72.90625 
L 49.515625 72.90625 
L 49.515625 64.59375 
L 19.828125 64.59375 
L 19.828125 46.734375 
Q 21.96875 47.46875 24.109375 47.828125 
Q 26.265625 48.1875 28.421875 48.1875 
Q 40.625 48.1875 47.75 41.5 
Q 54.890625 34.8125 54.890625 23.390625 
Q 54.890625 11.625 47.5625 5.09375 
Q 40.234375 -1.421875 26.90625 -1.421875 
Q 22.3125 -1.421875 17.546875 -0.640625 
Q 12.796875 0.140625 7.71875 1.703125 
L 7.71875 11.625 
Q 12.109375 9.234375 16.796875 8.0625 
Q 21.484375 6.890625 26.703125 6.890625 
Q 35.15625 6.890625 40.078125 11.328125 
Q 45.015625 15.765625 45.015625 23.390625 
Q 45.015625 31 40.078125 35.4375 
Q 35.15625 39.890625 26.703125 39.890625 
Q 22.75 39.890625 18.8125 39.015625 
Q 14.890625 38.140625 10.796875 36.28125 
z
" id="DejaVuSans-53"/>
       </defs>
       <use xlink:href="#DejaVuSans-50"/>
       <use x="63.623047" xlink:href="#DejaVuSans-48"/>
       <use x="127.246094" xlink:href="#DejaVuSans-50"/>
       <use x="190.869141" xlink:href="#DejaVuSans-49"/>
       <use x="254.492188" xlink:href="#DejaVuSans-45"/>
       <use x="290.576172" xlink:href="#DejaVuSans-48"/>
       <use x="354.199219" xlink:href="#DejaVuSans-50"/>
       <use x="417.822266" xlink:href="#DejaVuSans-45"/>
       <use x="453.90625" xlink:href="#DejaVuSans-49"/>
       <use x="517.529297" xlink:href="#DejaVuSans-53"/>
      </g>
     </g>
    </g>
    <g id="xtick_5">
     <g id="line2d_9">
      <path clip-path="url(#p1b9789048c)" d="M 397.431463 313.2 
L 397.431463 28.8 
" style="fill:none;stroke:#808080;stroke-dasharray:6.4,1.6,1,1.6;stroke-dashoffset:0;stroke-opacity:0.3;"/>
     </g>
     <g id="line2d_10">
      <g>
       <use style="stroke:#000000;stroke-width:0.8;" x="397.431463" xlink:href="#mc4b8c9f141" y="313.2"/>
      </g>
     </g>
     <g id="text_5">
      <!-- 2021-03-16 -->
      <g transform="translate(368.373651 327.798437)scale(0.1 -0.1)">
       <defs>
        <path d="M 40.578125 39.3125 
Q 47.65625 37.796875 51.625 33 
Q 55.609375 28.21875 55.609375 21.1875 
Q 55.609375 10.40625 48.1875 4.484375 
Q 40.765625 -1.421875 27.09375 -1.421875 
Q 22.515625 -1.421875 17.65625 -0.515625 
Q 12.796875 0.390625 7.625 2.203125 
L 7.625 11.71875 
Q 11.71875 9.328125 16.59375 8.109375 
Q 21.484375 6.890625 26.8125 6.890625 
Q 36.078125 6.890625 40.9375 10.546875 
Q 45.796875 14.203125 45.796875 21.1875 
Q 45.796875 27.640625 41.28125 31.265625 
Q 36.765625 34.90625 28.71875 34.90625 
L 20.21875 34.90625 
L 20.21875 43.015625 
L 29.109375 43.015625 
Q 36.375 43.015625 40.234375 45.921875 
Q 44.09375 48.828125 44.09375 54.296875 
Q 44.09375 59.90625 40.109375 62.90625 
Q 36.140625 65.921875 28.71875 65.921875 
Q 24.65625 65.921875 20.015625 65.03125 
Q 15.375 64.15625 9.8125 62.3125 
L 9.8125 71.09375 
Q 15.4375 72.65625 20.34375 73.4375 
Q 25.25 74.21875 29.59375 74.21875 
Q 40.828125 74.21875 47.359375 69.109375 
Q 53.90625 64.015625 53.90625 55.328125 
Q 53.90625 49.265625 50.4375 45.09375 
Q 46.96875 40.921875 40.578125 39.3125 
z
" id="DejaVuSans-51"/>
        <path d="M 33.015625 40.375 
Q 26.375 40.375 22.484375 35.828125 
Q 18.609375 31.296875 18.609375 23.390625 
Q 18.609375 15.53125 22.484375 10.953125 
Q 26.375 6.390625 33.015625 6.390625 
Q 39.65625 6.390625 43.53125 10.953125 
Q 47.40625 15.53125 47.40625 23.390625 
Q 47.40625 31.296875 43.53125 35.828125 
Q 39.65625 40.375 33.015625 40.375 
z
M 52.59375 71.296875 
L 52.59375 62.3125 
Q 48.875 64.0625 45.09375 64.984375 
Q 41.3125 65.921875 37.59375 65.921875 
Q 27.828125 65.921875 22.671875 59.328125 
Q 17.53125 52.734375 16.796875 39.40625 
Q 19.671875 43.65625 24.015625 45.921875 
Q 28.375 48.1875 33.59375 48.1875 
Q 44.578125 48.1875 50.953125 41.515625 
Q 57.328125 34.859375 57.328125 23.390625 
Q 57.328125 12.15625 50.6875 5.359375 
Q 44.046875 -1.421875 33.015625 -1.421875 
Q 20.359375 -1.421875 13.671875 8.265625 
Q 6.984375 17.96875 6.984375 36.375 
Q 6.984375 53.65625 15.1875 63.9375 
Q 23.390625 74.21875 37.203125 74.21875 
Q 40.921875 74.21875 44.703125 73.484375 
Q 48.484375 72.75 52.59375 71.296875 
z
" id="DejaVuSans-54"/>
       </defs>
       <use xlink:href="#DejaVuSans-50"/>
       <use x="63.623047" xlink:href="#DejaVuSans-48"/>
       <use x="127.246094" xlink:href="#DejaVuSans-50"/>
       <use x="190.869141" xlink:href="#DejaVuSans-49"/>
       <use x="254.492188" xlink:href="#DejaVuSans-45"/>
       <use x="290.576172" xlink:href="#DejaVuSans-48"/>
       <use x="354.199219" xlink:href="#DejaVuSans-51"/>
       <use x="417.822266" xlink:href="#DejaVuSans-45"/>
       <use x="453.90625" xlink:href="#DejaVuSans-49"/>
       <use x="517.529297" xlink:href="#DejaVuSans-54"/>
      </g>
     </g>
    </g>
    <g id="xtick_6">
     <g id="line2d_11">
      <path clip-path="url(#p1b9789048c)" d="M 473.880238 313.2 
L 473.880238 28.8 
" style="fill:none;stroke:#808080;stroke-dasharray:6.4,1.6,1,1.6;stroke-dashoffset:0;stroke-opacity:0.3;"/>
     </g>
     <g id="line2d_12">
      <g>
       <use style="stroke:#000000;stroke-width:0.8;" x="473.880238" xlink:href="#mc4b8c9f141" y="313.2"/>
      </g>
     </g>
     <g id="text_6">
      <!-- 2021-04-14 -->
      <g transform="translate(444.822426 327.798437)scale(0.1 -0.1)">
       <defs>
        <path d="M 37.796875 64.3125 
L 12.890625 25.390625 
L 37.796875 25.390625 
z
M 35.203125 72.90625 
L 47.609375 72.90625 
L 47.609375 25.390625 
L 58.015625 25.390625 
L 58.015625 17.1875 
L 47.609375 17.1875 
L 47.609375 0 
L 37.796875 0 
L 37.796875 17.1875 
L 4.890625 17.1875 
L 4.890625 26.703125 
z
" id="DejaVuSans-52"/>
       </defs>
       <use xlink:href="#DejaVuSans-50"/>
       <use x="63.623047" xlink:href="#DejaVuSans-48"/>
       <use x="127.246094" xlink:href="#DejaVuSans-50"/>
       <use x="190.869141" xlink:href="#DejaVuSans-49"/>
       <use x="254.492188" xlink:href="#DejaVuSans-45"/>
       <use x="290.576172" xlink:href="#DejaVuSans-48"/>
       <use x="354.199219" xlink:href="#DejaVuSans-52"/>
       <use x="417.822266" xlink:href="#DejaVuSans-45"/>
       <use x="453.90625" xlink:href="#DejaVuSans-49"/>
       <use x="517.529297" xlink:href="#DejaVuSans-52"/>
      </g>
     </g>
    </g>
    <g id="xtick_7">
     <g id="line2d_13">
      <path clip-path="url(#p1b9789048c)" d="M 550.329013 313.2 
L 550.329013 28.8 
" style="fill:none;stroke:#808080;stroke-dasharray:6.4,1.6,1,1.6;stroke-dashoffset:0;stroke-opacity:0.3;"/>
     </g>
     <g id="line2d_14">
      <g>
       <use style="stroke:#000000;stroke-width:0.8;" x="550.329013" xlink:href="#mc4b8c9f141" y="313.2"/>
      </g>
     </g>
     <g id="text_7">
      <!-- 2021-05-13 -->
      <g transform="translate(521.271201 327.798437)scale(0.1 -0.1)">
       <use xlink:href="#DejaVuSans-50"/>
       <use x="63.623047" xlink:href="#DejaVuSans-48"/>
       <use x="127.246094" xlink:href="#DejaVuSans-50"/>
       <use x="190.869141" xlink:href="#DejaVuSans-49"/>
       <use x="254.492188" xlink:href="#DejaVuSans-45"/>
       <use x="290.576172" xlink:href="#DejaVuSans-48"/>
       <use x="354.199219" xlink:href="#DejaVuSans-53"/>
       <use x="417.822266" xlink:href="#DejaVuSans-45"/>
       <use x="453.90625" xlink:href="#DejaVuSans-49"/>
       <use x="517.529297" xlink:href="#DejaVuSans-51"/>
      </g>
     </g>
    </g>
    <g id="xtick_8">
     <g id="line2d_15">
      <path clip-path="url(#p1b9789048c)" d="M 626.777788 313.2 
L 626.777788 28.8 
" style="fill:none;stroke:#808080;stroke-dasharray:6.4,1.6,1,1.6;stroke-dashoffset:0;stroke-opacity:0.3;"/>
     </g>
     <g id="line2d_16">
      <g>
       <use style="stroke:#000000;stroke-width:0.8;" x="626.777788" xlink:href="#mc4b8c9f141" y="313.2"/>
      </g>
     </g>
     <g id="text_8">
      <!-- 2021-06-11 -->
      <g transform="translate(597.719976 327.798437)scale(0.1 -0.1)">
       <use xlink:href="#DejaVuSans-50"/>
       <use x="63.623047" xlink:href="#DejaVuSans-48"/>
       <use x="127.246094" xlink:href="#DejaVuSans-50"/>
       <use x="190.869141" xlink:href="#DejaVuSans-49"/>
       <use x="254.492188" xlink:href="#DejaVuSans-45"/>
       <use x="290.576172" xlink:href="#DejaVuSans-48"/>
       <use x="354.199219" xlink:href="#DejaVuSans-54"/>
       <use x="417.822266" xlink:href="#DejaVuSans-45"/>
       <use x="453.90625" xlink:href="#DejaVuSans-49"/>
       <use x="517.529297" xlink:href="#DejaVuSans-49"/>
      </g>
     </g>
    </g>
    <g id="text_9">
     <!-- Datum -->
     <g transform="translate(343.086719 341.476562)scale(0.1 -0.1)">
      <defs>
       <path d="M 19.671875 64.796875 
L 19.671875 8.109375 
L 31.59375 8.109375 
Q 46.6875 8.109375 53.6875 14.9375 
Q 60.6875 21.78125 60.6875 36.53125 
Q 60.6875 51.171875 53.6875 57.984375 
Q 46.6875 64.796875 31.59375 64.796875 
z
M 9.8125 72.90625 
L 30.078125 72.90625 
Q 51.265625 72.90625 61.171875 64.09375 
Q 71.09375 55.28125 71.09375 36.53125 
Q 71.09375 17.671875 61.125 8.828125 
Q 51.171875 0 30.078125 0 
L 9.8125 0 
z
" id="DejaVuSans-68"/>
       <path d="M 34.28125 27.484375 
Q 23.390625 27.484375 19.1875 25 
Q 14.984375 22.515625 14.984375 16.5 
Q 14.984375 11.71875 18.140625 8.90625 
Q 21.296875 6.109375 26.703125 6.109375 
Q 34.1875 6.109375 38.703125 11.40625 
Q 43.21875 16.703125 43.21875 25.484375 
L 43.21875 27.484375 
z
M 52.203125 31.203125 
L 52.203125 0 
L 43.21875 0 
L 43.21875 8.296875 
Q 40.140625 3.328125 35.546875 0.953125 
Q 30.953125 -1.421875 24.3125 -1.421875 
Q 15.921875 -1.421875 10.953125 3.296875 
Q 6 8.015625 6 15.921875 
Q 6 25.140625 12.171875 29.828125 
Q 18.359375 34.515625 30.609375 34.515625 
L 43.21875 34.515625 
L 43.21875 35.40625 
Q 43.21875 41.609375 39.140625 45 
Q 35.0625 48.390625 27.6875 48.390625 
Q 23 48.390625 18.546875 47.265625 
Q 14.109375 46.140625 10.015625 43.890625 
L 10.015625 52.203125 
Q 14.9375 54.109375 19.578125 55.046875 
Q 24.21875 56 28.609375 56 
Q 40.484375 56 46.34375 49.84375 
Q 52.203125 43.703125 52.203125 31.203125 
z
" id="DejaVuSans-97"/>
       <path d="M 18.3125 70.21875 
L 18.3125 54.6875 
L 36.8125 54.6875 
L 36.8125 47.703125 
L 18.3125 47.703125 
L 18.3125 18.015625 
Q 18.3125 11.328125 20.140625 9.421875 
Q 21.96875 7.515625 27.59375 7.515625 
L 36.8125 7.515625 
L 36.8125 0 
L 27.59375 0 
Q 17.1875 0 13.234375 3.875 
Q 9.28125 7.765625 9.28125 18.015625 
L 9.28125 47.703125 
L 2.6875 47.703125 
L 2.6875 54.6875 
L 9.28125 54.6875 
L 9.28125 70.21875 
z
" id="DejaVuSans-116"/>
       <path d="M 8.5 21.578125 
L 8.5 54.6875 
L 17.484375 54.6875 
L 17.484375 21.921875 
Q 17.484375 14.15625 20.5 10.265625 
Q 23.53125 6.390625 29.59375 6.390625 
Q 36.859375 6.390625 41.078125 11.03125 
Q 45.3125 15.671875 45.3125 23.6875 
L 45.3125 54.6875 
L 54.296875 54.6875 
L 54.296875 0 
L 45.3125 0 
L 45.3125 8.40625 
Q 42.046875 3.421875 37.71875 1 
Q 33.40625 -1.421875 27.6875 -1.421875 
Q 18.265625 -1.421875 13.375 4.4375 
Q 8.5 10.296875 8.5 21.578125 
z
M 31.109375 56 
z
" id="DejaVuSans-117"/>
       <path d="M 52 44.1875 
Q 55.375 50.25 60.0625 53.125 
Q 64.75 56 71.09375 56 
Q 79.640625 56 84.28125 50.015625 
Q 88.921875 44.046875 88.921875 33.015625 
L 88.921875 0 
L 79.890625 0 
L 79.890625 32.71875 
Q 79.890625 40.578125 77.09375 44.375 
Q 74.3125 48.1875 68.609375 48.1875 
Q 61.625 48.1875 57.5625 43.546875 
Q 53.515625 38.921875 53.515625 30.90625 
L 53.515625 0 
L 44.484375 0 
L 44.484375 32.71875 
Q 44.484375 40.625 41.703125 44.40625 
Q 38.921875 48.1875 33.109375 48.1875 
Q 26.21875 48.1875 22.15625 43.53125 
Q 18.109375 38.875 18.109375 30.90625 
L 18.109375 0 
L 9.078125 0 
L 9.078125 54.6875 
L 18.109375 54.6875 
L 18.109375 46.1875 
Q 21.1875 51.21875 25.484375 53.609375 
Q 29.78125 56 35.6875 56 
Q 41.65625 56 45.828125 52.96875 
Q 50 49.953125 52 44.1875 
z
" id="DejaVuSans-109"/>
      </defs>
      <use xlink:href="#DejaVuSans-68"/>
      <use x="77.001953" xlink:href="#DejaVuSans-97"/>
      <use x="138.28125" xlink:href="#DejaVuSans-116"/>
      <use x="177.490234" xlink:href="#DejaVuSans-117"/>
      <use x="240.869141" xlink:href="#DejaVuSans-109"/>
     </g>
    </g>
   </g>
   <g id="matplotlib.axis_2">
    <g id="ytick_1">
     <g id="line2d_17">
      <path clip-path="url(#p1b9789048c)" d="M 64.8 313.2 
L 655.2 313.2 
" style="fill:none;stroke:#808080;stroke-dasharray:6.4,1.6,1,1.6;stroke-dashoffset:0;stroke-opacity:0.3;"/>
     </g>
     <g id="line2d_18">
      <defs>
       <path d="M 0 0 
L -3.5 0 
" id="m0b6451dad0" style="stroke:#000000;stroke-width:0.8;"/>
      </defs>
      <g>
       <use style="stroke:#000000;stroke-width:0.8;" x="64.8" xlink:href="#m0b6451dad0" y="313.2"/>
      </g>
     </g>
     <g id="text_10">
      <!-- 0 -->
      <g transform="translate(51.4375 316.999219)scale(0.1 -0.1)">
       <use xlink:href="#DejaVuSans-48"/>
      </g>
     </g>
    </g>
    <g id="ytick_2">
     <g id="line2d_19">
      <path clip-path="url(#p1b9789048c)" d="M 64.8 277.65 
L 655.2 277.65 
" style="fill:none;stroke:#808080;stroke-dasharray:6.4,1.6,1,1.6;stroke-dashoffset:0;stroke-opacity:0.3;"/>
     </g>
     <g id="line2d_20">
      <g>
       <use style="stroke:#000000;stroke-width:0.8;" x="64.8" xlink:href="#m0b6451dad0" y="277.65"/>
      </g>
     </g>
     <g id="text_11">
      <!-- 500 -->
      <g transform="translate(38.7125 281.449219)scale(0.1 -0.1)">
       <use xlink:href="#DejaVuSans-53"/>
       <use x="63.623047" xlink:href="#DejaVuSans-48"/>
       <use x="127.246094" xlink:href="#DejaVuSans-48"/>
      </g>
     </g>
    </g>
    <g id="ytick_3">
     <g id="line2d_21">
      <path clip-path="url(#p1b9789048c)" d="M 64.8 242.1 
L 655.2 242.1 
" style="fill:none;stroke:#808080;stroke-dasharray:6.4,1.6,1,1.6;stroke-dashoffset:0;stroke-opacity:0.3;"/>
     </g>
     <g id="line2d_22">
      <g>
       <use style="stroke:#000000;stroke-width:0.8;" x="64.8" xlink:href="#m0b6451dad0" y="242.1"/>
      </g>
     </g>
     <g id="text_12">
      <!-- 1000 -->
      <g transform="translate(32.35 245.899219)scale(0.1 -0.1)">
       <use xlink:href="#DejaVuSans-49"/>
       <use x="63.623047" xlink:href="#DejaVuSans-48"/>
       <use x="127.246094" xlink:href="#DejaVuSans-48"/>
       <use x="190.869141" xlink:href="#DejaVuSans-48"/>
      </g>
     </g>
    </g>
    <g id="ytick_4">
     <g id="line2d_23">
      <path clip-path="url(#p1b9789048c)" d="M 64.8 206.55 
L 655.2 206.55 
" style="fill:none;stroke:#808080;stroke-dasharray:6.4,1.6,1,1.6;stroke-dashoffset:0;stroke-opacity:0.3;"/>
     </g>
     <g id="line2d_24">
      <g>
       <use style="stroke:#000000;stroke-width:0.8;" x="64.8" xlink:href="#m0b6451dad0" y="206.55"/>
      </g>
     </g>
     <g id="text_13">
      <!-- 1500 -->
      <g transform="translate(32.35 210.349219)scale(0.1 -0.1)">
       <use xlink:href="#DejaVuSans-49"/>
       <use x="63.623047" xlink:href="#DejaVuSans-53"/>
       <use x="127.246094" xlink:href="#DejaVuSans-48"/>
       <use x="190.869141" xlink:href="#DejaVuSans-48"/>
      </g>
     </g>
    </g>
    <g id="ytick_5">
     <g id="line2d_25">
      <path clip-path="url(#p1b9789048c)" d="M 64.8 171 
L 655.2 171 
" style="fill:none;stroke:#808080;stroke-dasharray:6.4,1.6,1,1.6;stroke-dashoffset:0;stroke-opacity:0.3;"/>
     </g>
     <g id="line2d_26">
      <g>
       <use style="stroke:#000000;stroke-width:0.8;" x="64.8" xlink:href="#m0b6451dad0" y="171"/>
      </g>
     </g>
     <g id="text_14">
      <!-- 2000 -->
      <g transform="translate(32.35 174.799219)scale(0.1 -0.1)">
       <use xlink:href="#DejaVuSans-50"/>
       <use x="63.623047" xlink:href="#DejaVuSans-48"/>
       <use x="127.246094" xlink:href="#DejaVuSans-48"/>
       <use x="190.869141" xlink:href="#DejaVuSans-48"/>
      </g>
     </g>
    </g>
    <g id="ytick_6">
     <g id="line2d_27">
      <path clip-path="url(#p1b9789048c)" d="M 64.8 135.45 
L 655.2 135.45 
" style="fill:none;stroke:#808080;stroke-dasharray:6.4,1.6,1,1.6;stroke-dashoffset:0;stroke-opacity:0.3;"/>
     </g>
     <g id="line2d_28">
      <g>
       <use style="stroke:#000000;stroke-width:0.8;" x="64.8" xlink:href="#m0b6451dad0" y="135.45"/>
      </g>
     </g>
     <g id="text_15">
      <!-- 2500 -->
      <g transform="translate(32.35 139.249219)scale(0.1 -0.1)">
       <use xlink:href="#DejaVuSans-50"/>
       <use x="63.623047" xlink:href="#DejaVuSans-53"/>
       <use x="127.246094" xlink:href="#DejaVuSans-48"/>
       <use x="190.869141" xlink:href="#DejaVuSans-48"/>
      </g>
     </g>
    </g>
    <g id="ytick_7">
     <g id="line2d_29">
      <path clip-path="url(#p1b9789048c)" d="M 64.8 99.9 
L 655.2 99.9 
" style="fill:none;stroke:#808080;stroke-dasharray:6.4,1.6,1,1.6;stroke-dashoffset:0;stroke-opacity:0.3;"/>
     </g>
     <g id="line2d_30">
      <g>
       <use style="stroke:#000000;stroke-width:0.8;" x="64.8" xlink:href="#m0b6451dad0" y="99.9"/>
      </g>
     </g>
     <g id="text_16">
      <!-- 3000 -->
      <g transform="translate(32.35 103.699219)scale(0.1 -0.1)">
       <use xlink:href="#DejaVuSans-51"/>
       <use x="63.623047" xlink:href="#DejaVuSans-48"/>
       <use x="127.246094" xlink:href="#DejaVuSans-48"/>
       <use x="190.869141" xlink:href="#DejaVuSans-48"/>
      </g>
     </g>
    </g>
    <g id="ytick_8">
     <g id="line2d_31">
      <path clip-path="url(#p1b9789048c)" d="M 64.8 64.35 
L 655.2 64.35 
" style="fill:none;stroke:#808080;stroke-dasharray:6.4,1.6,1,1.6;stroke-dashoffset:0;stroke-opacity:0.3;"/>
     </g>
     <g id="line2d_32">
      <g>
       <use style="stroke:#000000;stroke-width:0.8;" x="64.8" xlink:href="#m0b6451dad0" y="64.35"/>
      </g>
     </g>
     <g id="text_17">
      <!-- 3500 -->
      <g transform="translate(32.35 68.149219)scale(0.1 -0.1)">
       <use xlink:href="#DejaVuSans-51"/>
       <use x="63.623047" xlink:href="#DejaVuSans-53"/>
       <use x="127.246094" xlink:href="#DejaVuSans-48"/>
       <use x="190.869141" xlink:href="#DejaVuSans-48"/>
      </g>
     </g>
    </g>
    <g id="ytick_9">
     <g id="line2d_33">
      <path clip-path="url(#p1b9789048c)" d="M 64.8 28.8 
L 655.2 28.8 
" style="fill:none;stroke:#808080;stroke-dasharray:6.4,1.6,1,1.6;stroke-dashoffset:0;stroke-opacity:0.3;"/>
     </g>
     <g id="line2d_34">
      <g>
       <use style="stroke:#000000;stroke-width:0.8;" x="64.8" xlink:href="#m0b6451dad0" y="28.8"/>
      </g>
     </g>
     <g id="text_18">
      <!-- 4000 -->
      <g transform="translate(32.35 32.599219)scale(0.1 -0.1)">
       <use xlink:href="#DejaVuSans-52"/>
       <use x="63.623047" xlink:href="#DejaVuSans-48"/>
       <use x="127.246094" xlink:href="#DejaVuSans-48"/>
       <use x="190.869141" xlink:href="#DejaVuSans-48"/>
      </g>
     </g>
    </g>
   </g>
   <g id="line2d_35">
    <path clip-path="url(#p1b9789048c)" d="M 91.636364 313.117335 
L 93.183127 312.82312 
L 94.501454 312.229436 
L 95.815722 311.921476 
L 96.917999 311.27349 
L 98.458691 310.935238 
L 99.773722 310.247121 
L 101.091835 309.9064 
L 102.409886 309.250144 
L 103.727999 308.937332 
L 104.387559 308.633332 
L 111.636707 308.335078 
L 112.954789 307.73967 
L 114.272872 307.434313 
L 115.591015 306.790479 
L 116.909372 306.445554 
L 118.19496 305.691389 
L 119.545414 305.273232 
L 120.79982 304.33169 
L 122.180359 303.801564 
L 123.499356 302.620038 
L 124.816584 301.974382 
L 126.134697 300.599814 
L 127.455251 299.882701 
L 128.745049 298.410315 
L 130.091232 297.658013 
L 131.409254 296.113444 
L 132.725261 295.313434 
L 133.925479 293.635336 
L 135.361762 292.751346 
L 136.679813 290.902529 
L 138.000398 289.95582 
L 139.273079 288.10249 
L 140.636501 287.240363 
L 141.806452 285.7521 
L 143.270195 285.154708 
L 144.590809 284.266776 
L 151.179085 282.598126 
L 152.497167 281.760655 
L 154.247929 281.204241 
L 155.00967 280.560715 
L 156.452482 279.842613 
L 156.929524 279.066515 
L 157.565743 278.249242 
L 159.087762 277.404146 
L 160.405905 275.652638 
L 161.724049 274.740303 
L 163.039538 272.793919 
L 164.357834 271.738786 
L 165.675763 269.440886 
L 166.993968 268.207684 
L 168.311989 265.648064 
L 169.630956 264.367188 
L 170.950717 261.925181 
L 172.26645 260.802621 
L 172.742576 259.759492 
L 173.584623 258.795525 
L 174.902767 257.902796 
L 176.220941 256.276683 
L 177.539176 255.514257 
L 178.857075 254.03843 
L 180.176256 253.316051 
L 181.442377 251.898342 
L 182.811657 251.201407 
L 184.129709 249.812435 
L 185.447822 249.107335 
L 186.766637 247.645595 
L 188.08417 246.885526 
L 189.402344 245.334942 
L 190.720304 244.569708 
L 192.03863 243.138303 
L 193.356713 242.499312 
L 193.8502 241.921473 
L 194.674612 241.404035 
L 195.994281 240.939306 
L 197.214392 240.109433 
L 198.629042 239.706584 
L 199.947185 238.826342 
L 201.268837 238.315387 
L 202.587622 237.101103 
L 203.901707 236.396585 
L 205.219911 234.847643 
L 206.538085 234.046319 
L 207.858913 232.518819 
L 209.174067 231.834052 
L 210.344445 230.649574 
L 212.469425 229.608843 
L 213.128649 229.076146 
L 214.452346 228.500543 
L 215.768262 227.164134 
L 217.082835 226.400132 
L 218.40107 224.725729 
L 219.719152 223.84009 
L 221.037021 222.020061 
L 222.358643 221.097585 
L 223.67346 219.249662 
L 224.991543 218.332077 
L 226.240639 216.516188 
L 227.631765 215.608326 
L 228.949878 213.733264 
L 230.267808 212.738295 
L 231.586134 210.61491 
L 232.900067 209.521396 
L 234.218058 207.480515 
L 235.541999 206.646336 
L 236.642445 205.591194 
L 238.831987 205.435876 
L 241.467755 206.275863 
L 242.126979 206.613953 
L 246.084857 207.432462 
L 247.403336 207.600152 
L 251.120816 207.701363 
L 252.671668 207.420203 
L 253.990513 207.154865 
L 255.307833 206.415475 
L 256.627166 205.983776 
L 257.94412 205.120428 
L 259.262141 204.728528 
L 260.580254 204.072921 
L 262.557469 203.581504 
L 263.216388 203.381674 
L 265.193756 203.032747 
L 265.85359 202.867028 
L 267.829768 202.510048 
L 268.489053 202.300908 
L 269.807013 202.060283 
L 271.125095 201.464288 
L 272.4433 201.108505 
L 273.76123 200.313745 
L 275.080746 199.897573 
L 276.326578 199.083755 
L 277.713097 198.698245 
L 279.031271 197.958777 
L 280.349292 197.585914 
L 281.667344 196.773922 
L 282.986677 196.31545 
L 284.303234 195.274071 
L 285.621957 194.695616 
L 286.93952 193.455082 
L 288.259891 192.809587 
L 289.575655 191.5098 
L 290.894927 190.871073 
L 292.211911 189.651756 
L 293.530451 189.08421 
L 294.850791 188.059331 
L 296.16869 187.607503 
L 297.487017 186.818351 
L 298.805404 186.468033 
L 300.123029 185.7962 
L 301.442331 185.441666 
L 302.759315 184.598297 
L 304.077337 184.068116 
L 305.39548 182.689722 
L 306.713837 181.806747 
L 308.031553 179.604897 
L 309.349941 178.294606 
L 310.667931 175.375612 
L 311.984092 173.853369 
L 313.304005 170.940691 
L 314.622087 169.636939 
L 315.084545 168.466291 
L 315.940139 167.427205 
L 317.258343 166.500186 
L 318.576425 164.859303 
L 319.89466 164.088988 
L 321.213231 162.595776 
L 322.530977 161.894648 
L 323.848755 160.694411 
L 325.166929 160.233392 
L 325.743376 159.874 
L 326.485194 159.608096 
L 335.709146 158.247292 
L 337.028022 157.848071 
L 338.347935 157.621421 
L 339.666109 157.111879 
L 340.991697 156.832581 
L 342.307521 156.244484 
L 343.621942 155.945236 
L 344.938377 155.353329 
L 346.263446 155.061094 
L 347.579454 154.462495 
L 348.894089 154.138824 
L 350.21153 153.388023 
L 351.53007 152.941487 
L 352.847268 151.887155 
L 354.16538 151.289762 
L 355.48331 150.026692 
L 356.802735 149.402803 
L 358.035478 148.281901 
L 359.445185 147.824848 
L 360.760979 147.192474 
L 362.733099 146.984559 
L 364.71248 147.174635 
L 366.028396 147.614788 
L 368.666208 148.152439 
L 369.979683 148.136414 
L 370.638664 147.957898 
L 371.297644 147.587734 
L 372.617313 147.010402 
L 373.936066 145.278534 
L 375.254942 144.213604 
L 376.570095 142.103707 
L 377.892846 141.267114 
L 378.98841 140.464281 
L 380.52959 140.569088 
L 381.186099 140.981344 
L 381.845292 141.625548 
L 383.165999 142.400042 
L 384.481488 143.922112 
L 385.802285 144.512333 
L 386.459038 144.943808 
L 387.117866 145.233747 
L 389.094959 145.61514 
L 389.753908 145.856334 
L 391.077879 146.222618 
L 391.731947 146.754169 
L 392.307357 147.457496 
L 393.710535 148.303857 
L 395.026726 150.173846 
L 397.003727 151.041101 
L 397.662585 151.768469 
L 400.299055 152.848959 
L 406.889345 153.143001 
L 407.54863 153.480814 
L 408.20758 154.087739 
L 409.525967 155.0068 
L 410.843744 157.679523 
L 412.830906 159.230438 
L 413.480122 160.700933 
L 415.457215 161.884665 
L 416.116287 162.576535 
L 418.096248 162.603199 
L 418.752391 161.851029 
L 420.731589 160.28696 
L 421.392735 157.968235 
L 423.367449 155.039323 
L 424.02591 151.71486 
L 425.346525 148.250885 
L 425.967152 144.908328 
L 426.650511 141.914566 
L 427.943422 139.429805 
L 428.424033 137.525509 
L 429.293754 136.178698 
L 430.619434 135.28303 
L 431.170557 134.674383 
L 431.905723 134.164959 
L 433.712778 133.577762 
L 434.3832 132.774802 
L 435.907019 131.674816 
L 436.351048 130.258119 
L 437.191295 128.560157 
L 438.540407 126.657909 
L 439.853302 122.655071 
L 441.172056 120.766166 
L 441.618099 119.07112 
L 442.492976 117.629252 
L 443.811058 116.469926 
L 444.254263 115.591663 
L 445.129384 114.963933 
L 446.447223 114.531917 
L 446.891191 114.224364 
L 449.048025 113.672975 
L 449.528027 113.291099 
L 451.720315 112.101761 
L 452.16294 111.277993 
L 453.037604 110.328431 
L 454.357181 109.295591 
L 454.805146 108.232945 
L 455.619642 107.198262 
L 456.993895 106.246716 
L 457.437649 105.424896 
L 458.197286 104.765626 
L 459.630121 104.283794 
L 460.073082 103.974455 
L 460.946281 103.813508 
L 463.58269 103.800168 
L 466.219373 103.871705 
L 467.538676 104.007535 
L 470.174871 105.875667 
L 470.616764 107.169438 
L 471.491306 108.746553 
L 472.810639 110.460356 
L 473.253203 112.099232 
L 474.127379 113.420374 
L 475.888971 114.194745 
L 476.763726 114.253889 
L 477.946614 113.528017 
L 479.403613 110.02207 
L 480.717943 107.64255 
L 481.161697 105.206874 
L 482.036056 102.98318 
L 483.354077 101.179678 
L 483.804056 99.911659 
L 484.672129 99.187295 
L 486.43424 98.930359 
L 488.265368 99.05625 
L 489.071839 98.861893 
L 491.26428 97.794268 
L 491.706936 97.140723 
L 492.4551 96.674099 
L 493.899803 96.624888 
L 494.342826 97.189552 
L 496.537311 100.523274 
L 496.978929 103.191497 
L 497.853257 106.274787 
L 498.906747 109.481535 
L 499.615338 112.486988 
L 500.489452 114.978987 
L 503.125586 117.465988 
L 504.445438 117.203425 
L 504.887637 115.932282 
L 505.762483 113.769095 
L 507.524015 110.909659 
L 508.398404 107.606187 
L 509.717859 104.137669 
L 510.160363 100.775987 
L 511.03463 97.751185 
L 512.354085 95.221465 
L 512.7979 93.255979 
L 513.286201 91.835766 
L 515.432936 90.873041 
L 516.306684 90.244694 
L 517.624889 89.831673 
L 518.068735 89.551684 
L 518.943002 89.375691 
L 520.261053 89.325382 
L 521.592866 89.817636 
L 522.897371 90.446753 
L 523.341155 91.330518 
L 524.207306 92.413759 
L 525.533413 93.607105 
L 526.851801 95.91035 
L 528.833409 97.538512 
L 529.506119 97.985607 
L 531.267926 98.202765 
L 532.142315 98.111577 
L 533.904609 98.054006 
L 534.778418 98.203825 
L 536.098331 98.748537 
L 536.540835 99.848904 
L 537.414461 101.587312 
L 538.732604 103.919182 
L 539.176694 106.644278 
L 540.050961 109.410966 
L 541.82186 111.759618 
L 542.687553 113.199428 
L 544.441091 113.301325 
L 547.086592 108.569621 
L 547.961103 103.800272 
L 549.280466 97.805076 
L 549.721749 91.037983 
L 550.595467 83.999547 
L 551.915014 77.165533 
L 552.358006 70.937711 
L 553.231723 65.620747 
L 554.550355 61.421456 
L 554.994109 58.46043 
L 555.867827 56.783173 
L 557.186062 56.363391 
L 557.630274 57.100857 
L 558.150703 58.819493 
L 559.825979 61.273394 
L 560.268391 64.168278 
L 561.1404 67.197913 
L 562.902969 70.08549 
L 563.776779 72.618398 
L 565.097302 74.666307 
L 565.540629 76.176394 
L 566.412821 77.148859 
L 567.733009 77.604581 
L 568.17597 77.558366 
L 570.81186 75.938664 
L 571.685303 74.349464 
L 573.003538 72.272757 
L 573.447109 69.792973 
L 574.321407 67.046587 
L 575.641259 64.207336 
L 576.086233 61.461442 
L 576.957815 58.980858 
L 578.278491 56.904117 
L 578.719896 55.328999 
L 579.594468 54.314124 
L 580.914534 53.884686 
L 581.356061 54.037241 
L 583.551583 55.911538 
L 583.99308 57.435973 
L 584.866401 59.13596 
L 586.187687 60.794738 
L 586.628421 62.180748 
L 587.502444 63.088878 
L 589.267697 63.384691 
L 590.138395 63.039295 
L 591.456752 62.14379 
L 591.901208 60.894804 
L 592.774712 59.552011 
L 594.092947 58.379184 
L 594.537281 57.584633 
L 595.410846 57.276634 
L 596.722094 57.446545 
L 597.173751 57.983393 
L 598.047011 58.712169 
L 599.809671 59.441636 
L 600.683236 60.006505 
L 602.004126 60.292057 
L 602.446141 60.236795 
L 604.747018 59.035658 
L 605.955779 56.405934 
L 607.718531 54.609757 
L 608.591791 52.582615 
L 609.910087 50.455323 
L 610.354726 48.405733 
L 611.227864 46.630443 
L 612.54613 45.300244 
L 612.990433 44.513078 
L 613.864212 44.259946 
L 615.184827 44.418335 
L 615.626598 44.780377 
L 616.500194 45.110353 
L 618.262885 45.215967 
L 619.136389 45.014176 
L 620.457065 44.572251 
L 620.899049 44.108999 
L 621.772584 43.95428 
L 623.093199 44.474616 
L 624.408596 48.668635 
L 625.728967 52.517179 
L 626.171257 57.301745 
L 627.044822 62.670677 
L 628.363636 68.039609 
L 628.363636 68.039609 
" style="fill:none;stroke:#ff0000;stroke-linecap:square;stroke-width:1.5;"/>
   </g>
   <g id="patch_3">
    <path d="M 64.8 313.2 
L 64.8 28.8 
" style="fill:none;stroke:#000000;stroke-linecap:square;stroke-linejoin:miter;stroke-width:0.8;"/>
   </g>
   <g id="patch_4">
    <path d="M 655.2 313.2 
L 655.2 28.8 
" style="fill:none;stroke:#000000;stroke-linecap:square;stroke-linejoin:miter;stroke-width:0.8;"/>
   </g>
   <g id="patch_5">
    <path d="M 64.8 313.2 
L 655.2 313.2 
" style="fill:none;stroke:#000000;stroke-linecap:square;stroke-linejoin:miter;stroke-width:0.8;"/>
   </g>
   <g id="patch_6">
    <path d="M 64.8 28.8 
L 655.2 28.8 
" style="fill:none;stroke:#000000;stroke-linecap:square;stroke-linejoin:miter;stroke-width:0.8;"/>
   </g>
   <g id="text_19">
    <!-- Page hits per uur (gemiddeld ongeveer 3448). -->
    <g transform="translate(221.01375 22.8)scale(0.12 -0.12)">
     <defs>
      <path d="M 19.671875 64.796875 
L 19.671875 37.40625 
L 32.078125 37.40625 
Q 38.96875 37.40625 42.71875 40.96875 
Q 46.484375 44.53125 46.484375 51.125 
Q 46.484375 57.671875 42.71875 61.234375 
Q 38.96875 64.796875 32.078125 64.796875 
z
M 9.8125 72.90625 
L 32.078125 72.90625 
Q 44.34375 72.90625 50.609375 67.359375 
Q 56.890625 61.8125 56.890625 51.125 
Q 56.890625 40.328125 50.609375 34.8125 
Q 44.34375 29.296875 32.078125 29.296875 
L 19.671875 29.296875 
L 19.671875 0 
L 9.8125 0 
z
" id="DejaVuSans-80"/>
      <path d="M 45.40625 27.984375 
Q 45.40625 37.75 41.375 43.109375 
Q 37.359375 48.484375 30.078125 48.484375 
Q 22.859375 48.484375 18.828125 43.109375 
Q 14.796875 37.75 14.796875 27.984375 
Q 14.796875 18.265625 18.828125 12.890625 
Q 22.859375 7.515625 30.078125 7.515625 
Q 37.359375 7.515625 41.375 12.890625 
Q 45.40625 18.265625 45.40625 27.984375 
z
M 54.390625 6.78125 
Q 54.390625 -7.171875 48.1875 -13.984375 
Q 42 -20.796875 29.203125 -20.796875 
Q 24.46875 -20.796875 20.265625 -20.09375 
Q 16.0625 -19.390625 12.109375 -17.921875 
L 12.109375 -9.1875 
Q 16.0625 -11.328125 19.921875 -12.34375 
Q 23.78125 -13.375 27.78125 -13.375 
Q 36.625 -13.375 41.015625 -8.765625 
Q 45.40625 -4.15625 45.40625 5.171875 
L 45.40625 9.625 
Q 42.625 4.78125 38.28125 2.390625 
Q 33.9375 0 27.875 0 
Q 17.828125 0 11.671875 7.65625 
Q 5.515625 15.328125 5.515625 27.984375 
Q 5.515625 40.671875 11.671875 48.328125 
Q 17.828125 56 27.875 56 
Q 33.9375 56 38.28125 53.609375 
Q 42.625 51.21875 45.40625 46.390625 
L 45.40625 54.6875 
L 54.390625 54.6875 
z
" id="DejaVuSans-103"/>
      <path d="M 56.203125 29.59375 
L 56.203125 25.203125 
L 14.890625 25.203125 
Q 15.484375 15.921875 20.484375 11.0625 
Q 25.484375 6.203125 34.421875 6.203125 
Q 39.59375 6.203125 44.453125 7.46875 
Q 49.3125 8.734375 54.109375 11.28125 
L 54.109375 2.78125 
Q 49.265625 0.734375 44.1875 -0.34375 
Q 39.109375 -1.421875 33.890625 -1.421875 
Q 20.796875 -1.421875 13.15625 6.1875 
Q 5.515625 13.8125 5.515625 26.8125 
Q 5.515625 40.234375 12.765625 48.109375 
Q 20.015625 56 32.328125 56 
Q 43.359375 56 49.78125 48.890625 
Q 56.203125 41.796875 56.203125 29.59375 
z
M 47.21875 32.234375 
Q 47.125 39.59375 43.09375 43.984375 
Q 39.0625 48.390625 32.421875 48.390625 
Q 24.90625 48.390625 20.390625 44.140625 
Q 15.875 39.890625 15.1875 32.171875 
z
" id="DejaVuSans-101"/>
      <path id="DejaVuSans-32"/>
      <path d="M 54.890625 33.015625 
L 54.890625 0 
L 45.90625 0 
L 45.90625 32.71875 
Q 45.90625 40.484375 42.875 44.328125 
Q 39.84375 48.1875 33.796875 48.1875 
Q 26.515625 48.1875 22.3125 43.546875 
Q 18.109375 38.921875 18.109375 30.90625 
L 18.109375 0 
L 9.078125 0 
L 9.078125 75.984375 
L 18.109375 75.984375 
L 18.109375 46.1875 
Q 21.34375 51.125 25.703125 53.5625 
Q 30.078125 56 35.796875 56 
Q 45.21875 56 50.046875 50.171875 
Q 54.890625 44.34375 54.890625 33.015625 
z
" id="DejaVuSans-104"/>
      <path d="M 9.421875 54.6875 
L 18.40625 54.6875 
L 18.40625 0 
L 9.421875 0 
z
M 9.421875 75.984375 
L 18.40625 75.984375 
L 18.40625 64.59375 
L 9.421875 64.59375 
z
" id="DejaVuSans-105"/>
      <path d="M 44.28125 53.078125 
L 44.28125 44.578125 
Q 40.484375 46.53125 36.375 47.5 
Q 32.28125 48.484375 27.875 48.484375 
Q 21.1875 48.484375 17.84375 46.4375 
Q 14.5 44.390625 14.5 40.28125 
Q 14.5 37.15625 16.890625 35.375 
Q 19.28125 33.59375 26.515625 31.984375 
L 29.59375 31.296875 
Q 39.15625 29.25 43.1875 25.515625 
Q 47.21875 21.78125 47.21875 15.09375 
Q 47.21875 7.46875 41.1875 3.015625 
Q 35.15625 -1.421875 24.609375 -1.421875 
Q 20.21875 -1.421875 15.453125 -0.5625 
Q 10.6875 0.296875 5.421875 2 
L 5.421875 11.28125 
Q 10.40625 8.6875 15.234375 7.390625 
Q 20.0625 6.109375 24.8125 6.109375 
Q 31.15625 6.109375 34.5625 8.28125 
Q 37.984375 10.453125 37.984375 14.40625 
Q 37.984375 18.0625 35.515625 20.015625 
Q 33.0625 21.96875 24.703125 23.78125 
L 21.578125 24.515625 
Q 13.234375 26.265625 9.515625 29.90625 
Q 5.8125 33.546875 5.8125 39.890625 
Q 5.8125 47.609375 11.28125 51.796875 
Q 16.75 56 26.8125 56 
Q 31.78125 56 36.171875 55.265625 
Q 40.578125 54.546875 44.28125 53.078125 
z
" id="DejaVuSans-115"/>
      <path d="M 18.109375 8.203125 
L 18.109375 -20.796875 
L 9.078125 -20.796875 
L 9.078125 54.6875 
L 18.109375 54.6875 
L 18.109375 46.390625 
Q 20.953125 51.265625 25.265625 53.625 
Q 29.59375 56 35.59375 56 
Q 45.5625 56 51.78125 48.09375 
Q 58.015625 40.1875 58.015625 27.296875 
Q 58.015625 14.40625 51.78125 6.484375 
Q 45.5625 -1.421875 35.59375 -1.421875 
Q 29.59375 -1.421875 25.265625 0.953125 
Q 20.953125 3.328125 18.109375 8.203125 
z
M 48.6875 27.296875 
Q 48.6875 37.203125 44.609375 42.84375 
Q 40.53125 48.484375 33.40625 48.484375 
Q 26.265625 48.484375 22.1875 42.84375 
Q 18.109375 37.203125 18.109375 27.296875 
Q 18.109375 17.390625 22.1875 11.75 
Q 26.265625 6.109375 33.40625 6.109375 
Q 40.53125 6.109375 44.609375 11.75 
Q 48.6875 17.390625 48.6875 27.296875 
z
" id="DejaVuSans-112"/>
      <path d="M 41.109375 46.296875 
Q 39.59375 47.171875 37.8125 47.578125 
Q 36.03125 48 33.890625 48 
Q 26.265625 48 22.1875 43.046875 
Q 18.109375 38.09375 18.109375 28.8125 
L 18.109375 0 
L 9.078125 0 
L 9.078125 54.6875 
L 18.109375 54.6875 
L 18.109375 46.1875 
Q 20.953125 51.171875 25.484375 53.578125 
Q 30.03125 56 36.53125 56 
Q 37.453125 56 38.578125 55.875 
Q 39.703125 55.765625 41.0625 55.515625 
z
" id="DejaVuSans-114"/>
      <path d="M 31 75.875 
Q 24.46875 64.65625 21.28125 53.65625 
Q 18.109375 42.671875 18.109375 31.390625 
Q 18.109375 20.125 21.3125 9.0625 
Q 24.515625 -2 31 -13.1875 
L 23.1875 -13.1875 
Q 15.875 -1.703125 12.234375 9.375 
Q 8.59375 20.453125 8.59375 31.390625 
Q 8.59375 42.28125 12.203125 53.3125 
Q 15.828125 64.359375 23.1875 75.875 
z
" id="DejaVuSans-40"/>
      <path d="M 45.40625 46.390625 
L 45.40625 75.984375 
L 54.390625 75.984375 
L 54.390625 0 
L 45.40625 0 
L 45.40625 8.203125 
Q 42.578125 3.328125 38.25 0.953125 
Q 33.9375 -1.421875 27.875 -1.421875 
Q 17.96875 -1.421875 11.734375 6.484375 
Q 5.515625 14.40625 5.515625 27.296875 
Q 5.515625 40.1875 11.734375 48.09375 
Q 17.96875 56 27.875 56 
Q 33.9375 56 38.25 53.625 
Q 42.578125 51.265625 45.40625 46.390625 
z
M 14.796875 27.296875 
Q 14.796875 17.390625 18.875 11.75 
Q 22.953125 6.109375 30.078125 6.109375 
Q 37.203125 6.109375 41.296875 11.75 
Q 45.40625 17.390625 45.40625 27.296875 
Q 45.40625 37.203125 41.296875 42.84375 
Q 37.203125 48.484375 30.078125 48.484375 
Q 22.953125 48.484375 18.875 42.84375 
Q 14.796875 37.203125 14.796875 27.296875 
z
" id="DejaVuSans-100"/>
      <path d="M 9.421875 75.984375 
L 18.40625 75.984375 
L 18.40625 0 
L 9.421875 0 
z
" id="DejaVuSans-108"/>
      <path d="M 30.609375 48.390625 
Q 23.390625 48.390625 19.1875 42.75 
Q 14.984375 37.109375 14.984375 27.296875 
Q 14.984375 17.484375 19.15625 11.84375 
Q 23.34375 6.203125 30.609375 6.203125 
Q 37.796875 6.203125 41.984375 11.859375 
Q 46.1875 17.53125 46.1875 27.296875 
Q 46.1875 37.015625 41.984375 42.703125 
Q 37.796875 48.390625 30.609375 48.390625 
z
M 30.609375 56 
Q 42.328125 56 49.015625 48.375 
Q 55.71875 40.765625 55.71875 27.296875 
Q 55.71875 13.875 49.015625 6.21875 
Q 42.328125 -1.421875 30.609375 -1.421875 
Q 18.84375 -1.421875 12.171875 6.21875 
Q 5.515625 13.875 5.515625 27.296875 
Q 5.515625 40.765625 12.171875 48.375 
Q 18.84375 56 30.609375 56 
z
" id="DejaVuSans-111"/>
      <path d="M 54.890625 33.015625 
L 54.890625 0 
L 45.90625 0 
L 45.90625 32.71875 
Q 45.90625 40.484375 42.875 44.328125 
Q 39.84375 48.1875 33.796875 48.1875 
Q 26.515625 48.1875 22.3125 43.546875 
Q 18.109375 38.921875 18.109375 30.90625 
L 18.109375 0 
L 9.078125 0 
L 9.078125 54.6875 
L 18.109375 54.6875 
L 18.109375 46.1875 
Q 21.34375 51.125 25.703125 53.5625 
Q 30.078125 56 35.796875 56 
Q 45.21875 56 50.046875 50.171875 
Q 54.890625 44.34375 54.890625 33.015625 
z
" id="DejaVuSans-110"/>
      <path d="M 2.984375 54.6875 
L 12.5 54.6875 
L 29.59375 8.796875 
L 46.6875 54.6875 
L 56.203125 54.6875 
L 35.6875 0 
L 23.484375 0 
z
" id="DejaVuSans-118"/>
      <path d="M 31.78125 34.625 
Q 24.75 34.625 20.71875 30.859375 
Q 16.703125 27.09375 16.703125 20.515625 
Q 16.703125 13.921875 20.71875 10.15625 
Q 24.75 6.390625 31.78125 6.390625 
Q 38.8125 6.390625 42.859375 10.171875 
Q 46.921875 13.96875 46.921875 20.515625 
Q 46.921875 27.09375 42.890625 30.859375 
Q 38.875 34.625 31.78125 34.625 
z
M 21.921875 38.8125 
Q 15.578125 40.375 12.03125 44.71875 
Q 8.5 49.078125 8.5 55.328125 
Q 8.5 64.0625 14.71875 69.140625 
Q 20.953125 74.21875 31.78125 74.21875 
Q 42.671875 74.21875 48.875 69.140625 
Q 55.078125 64.0625 55.078125 55.328125 
Q 55.078125 49.078125 51.53125 44.71875 
Q 48 40.375 41.703125 38.8125 
Q 48.828125 37.15625 52.796875 32.3125 
Q 56.78125 27.484375 56.78125 20.515625 
Q 56.78125 9.90625 50.3125 4.234375 
Q 43.84375 -1.421875 31.78125 -1.421875 
Q 19.734375 -1.421875 13.25 4.234375 
Q 6.78125 9.90625 6.78125 20.515625 
Q 6.78125 27.484375 10.78125 32.3125 
Q 14.796875 37.15625 21.921875 38.8125 
z
M 18.3125 54.390625 
Q 18.3125 48.734375 21.84375 45.5625 
Q 25.390625 42.390625 31.78125 42.390625 
Q 38.140625 42.390625 41.71875 45.5625 
Q 45.3125 48.734375 45.3125 54.390625 
Q 45.3125 60.0625 41.71875 63.234375 
Q 38.140625 66.40625 31.78125 66.40625 
Q 25.390625 66.40625 21.84375 63.234375 
Q 18.3125 60.0625 18.3125 54.390625 
z
" id="DejaVuSans-56"/>
      <path d="M 8.015625 75.875 
L 15.828125 75.875 
Q 23.140625 64.359375 26.78125 53.3125 
Q 30.421875 42.28125 30.421875 31.390625 
Q 30.421875 20.453125 26.78125 9.375 
Q 23.140625 -1.703125 15.828125 -13.1875 
L 8.015625 -13.1875 
Q 14.5 -2 17.703125 9.0625 
Q 20.90625 20.125 20.90625 31.390625 
Q 20.90625 42.671875 17.703125 53.65625 
Q 14.5 64.65625 8.015625 75.875 
z
" id="DejaVuSans-41"/>
      <path d="M 10.6875 12.40625 
L 21 12.40625 
L 21 0 
L 10.6875 0 
z
" id="DejaVuSans-46"/>
     </defs>
     <use xlink:href="#DejaVuSans-80"/>
     <use x="55.802734" xlink:href="#DejaVuSans-97"/>
     <use x="117.082031" xlink:href="#DejaVuSans-103"/>
     <use x="180.558594" xlink:href="#DejaVuSans-101"/>
     <use x="242.082031" xlink:href="#DejaVuSans-32"/>
     <use x="273.869141" xlink:href="#DejaVuSans-104"/>
     <use x="337.248047" xlink:href="#DejaVuSans-105"/>
     <use x="365.03125" xlink:href="#DejaVuSans-116"/>
     <use x="404.240234" xlink:href="#DejaVuSans-115"/>
     <use x="456.339844" xlink:href="#DejaVuSans-32"/>
     <use x="488.126953" xlink:href="#DejaVuSans-112"/>
     <use x="551.603516" xlink:href="#DejaVuSans-101"/>
     <use x="613.126953" xlink:href="#DejaVuSans-114"/>
     <use x="654.240234" xlink:href="#DejaVuSans-32"/>
     <use x="686.027344" xlink:href="#DejaVuSans-117"/>
     <use x="749.40625" xlink:href="#DejaVuSans-117"/>
     <use x="812.785156" xlink:href="#DejaVuSans-114"/>
     <use x="853.898438" xlink:href="#DejaVuSans-32"/>
     <use x="885.685547" xlink:href="#DejaVuSans-40"/>
     <use x="924.699219" xlink:href="#DejaVuSans-103"/>
     <use x="988.175781" xlink:href="#DejaVuSans-101"/>
     <use x="1049.699219" xlink:href="#DejaVuSans-109"/>
     <use x="1147.111328" xlink:href="#DejaVuSans-105"/>
     <use x="1174.894531" xlink:href="#DejaVuSans-100"/>
     <use x="1238.371094" xlink:href="#DejaVuSans-100"/>
     <use x="1301.847656" xlink:href="#DejaVuSans-101"/>
     <use x="1363.371094" xlink:href="#DejaVuSans-108"/>
     <use x="1391.154297" xlink:href="#DejaVuSans-100"/>
     <use x="1454.630859" xlink:href="#DejaVuSans-32"/>
     <use x="1486.417969" xlink:href="#DejaVuSans-111"/>
     <use x="1547.599609" xlink:href="#DejaVuSans-110"/>
     <use x="1610.978516" xlink:href="#DejaVuSans-103"/>
     <use x="1674.455078" xlink:href="#DejaVuSans-101"/>
     <use x="1735.978516" xlink:href="#DejaVuSans-118"/>
     <use x="1795.158203" xlink:href="#DejaVuSans-101"/>
     <use x="1856.681641" xlink:href="#DejaVuSans-101"/>
     <use x="1918.205078" xlink:href="#DejaVuSans-114"/>
     <use x="1959.318359" xlink:href="#DejaVuSans-32"/>
     <use x="1991.105469" xlink:href="#DejaVuSans-51"/>
     <use x="2054.728516" xlink:href="#DejaVuSans-52"/>
     <use x="2118.351562" xlink:href="#DejaVuSans-52"/>
     <use x="2181.974609" xlink:href="#DejaVuSans-56"/>
     <use x="2245.597656" xlink:href="#DejaVuSans-41"/>
     <use x="2284.611328" xlink:href="#DejaVuSans-46"/>
    </g>
   </g>
  </g>
  <g id="text_20">
   <!-- Gegenereerd op 2021-06-12 11:40. -->
   <g style="fill:#808080;" transform="translate(7.2 356.4)scale(0.08 -0.08)">
    <defs>
     <path d="M 59.515625 10.40625 
L 59.515625 29.984375 
L 43.40625 29.984375 
L 43.40625 38.09375 
L 69.28125 38.09375 
L 69.28125 6.78125 
Q 63.578125 2.734375 56.6875 0.65625 
Q 49.8125 -1.421875 42 -1.421875 
Q 24.90625 -1.421875 15.25 8.5625 
Q 5.609375 18.5625 5.609375 36.375 
Q 5.609375 54.25 15.25 64.234375 
Q 24.90625 74.21875 42 74.21875 
Q 49.125 74.21875 55.546875 72.453125 
Q 61.96875 70.703125 67.390625 67.28125 
L 67.390625 56.78125 
Q 61.921875 61.421875 55.765625 63.765625 
Q 49.609375 66.109375 42.828125 66.109375 
Q 29.4375 66.109375 22.71875 58.640625 
Q 16.015625 51.171875 16.015625 36.375 
Q 16.015625 21.625 22.71875 14.15625 
Q 29.4375 6.6875 42.828125 6.6875 
Q 48.046875 6.6875 52.140625 7.59375 
Q 56.25 8.5 59.515625 10.40625 
z
" id="DejaVuSans-71"/>
     <path d="M 11.71875 12.40625 
L 22.015625 12.40625 
L 22.015625 0 
L 11.71875 0 
z
M 11.71875 51.703125 
L 22.015625 51.703125 
L 22.015625 39.3125 
L 11.71875 39.3125 
z
" id="DejaVuSans-58"/>
    </defs>
    <use xlink:href="#DejaVuSans-71"/>
    <use x="77.490234" xlink:href="#DejaVuSans-101"/>
    <use x="139.013672" xlink:href="#DejaVuSans-103"/>
    <use x="202.490234" xlink:href="#DejaVuSans-101"/>
    <use x="264.013672" xlink:href="#DejaVuSans-110"/>
    <use x="327.392578" xlink:href="#DejaVuSans-101"/>
    <use x="388.916016" xlink:href="#DejaVuSans-114"/>
    <use x="427.779297" xlink:href="#DejaVuSans-101"/>
    <use x="489.302734" xlink:href="#DejaVuSans-101"/>
    <use x="550.826172" xlink:href="#DejaVuSans-114"/>
    <use x="590.189453" xlink:href="#DejaVuSans-100"/>
    <use x="653.666016" xlink:href="#DejaVuSans-32"/>
    <use x="685.453125" xlink:href="#DejaVuSans-111"/>
    <use x="746.634766" xlink:href="#DejaVuSans-112"/>
    <use x="810.111328" xlink:href="#DejaVuSans-32"/>
    <use x="841.898438" xlink:href="#DejaVuSans-50"/>
    <use x="905.521484" xlink:href="#DejaVuSans-48"/>
    <use x="969.144531" xlink:href="#DejaVuSans-50"/>
    <use x="1032.767578" xlink:href="#DejaVuSans-49"/>
    <use x="1096.390625" xlink:href="#DejaVuSans-45"/>
    <use x="1132.474609" xlink:href="#DejaVuSans-48"/>
    <use x="1196.097656" xlink:href="#DejaVuSans-54"/>
    <use x="1259.720703" xlink:href="#DejaVuSans-45"/>
    <use x="1295.804688" xlink:href="#DejaVuSans-49"/>
    <use x="1359.427734" xlink:href="#DejaVuSans-50"/>
    <use x="1423.050781" xlink:href="#DejaVuSans-32"/>
    <use x="1454.837891" xlink:href="#DejaVuSans-49"/>
    <use x="1518.460938" xlink:href="#DejaVuSans-49"/>
    <use x="1582.083984" xlink:href="#DejaVuSans-58"/>
    <use x="1615.775391" xlink:href="#DejaVuSans-52"/>
    <use x="1679.398438" xlink:href="#DejaVuSans-48"/>
    <use x="1743.021484" xlink:href="#DejaVuSans-46"/>
   </g>
  </g>
  <g id="text_21">
   <!-- https://realrolfje.github.io/coronadata/ -->
   <g style="fill:#808080;" transform="translate(560.24375 356.4)scale(0.08 -0.08)">
    <defs>
     <path d="M 25.390625 72.90625 
L 33.6875 72.90625 
L 8.296875 -9.28125 
L 0 -9.28125 
z
" id="DejaVuSans-47"/>
     <path d="M 37.109375 75.984375 
L 37.109375 68.5 
L 28.515625 68.5 
Q 23.6875 68.5 21.796875 66.546875 
Q 19.921875 64.59375 19.921875 59.515625 
L 19.921875 54.6875 
L 34.71875 54.6875 
L 34.71875 47.703125 
L 19.921875 47.703125 
L 19.921875 0 
L 10.890625 0 
L 10.890625 47.703125 
L 2.296875 47.703125 
L 2.296875 54.6875 
L 10.890625 54.6875 
L 10.890625 58.5 
Q 10.890625 67.625 15.140625 71.796875 
Q 19.390625 75.984375 28.609375 75.984375 
z
" id="DejaVuSans-102"/>
     <path d="M 9.421875 54.6875 
L 18.40625 54.6875 
L 18.40625 -0.984375 
Q 18.40625 -11.421875 14.421875 -16.109375 
Q 10.453125 -20.796875 1.609375 -20.796875 
L -1.8125 -20.796875 
L -1.8125 -13.1875 
L 0.59375 -13.1875 
Q 5.71875 -13.1875 7.5625 -10.8125 
Q 9.421875 -8.453125 9.421875 -0.984375 
z
M 9.421875 75.984375 
L 18.40625 75.984375 
L 18.40625 64.59375 
L 9.421875 64.59375 
z
" id="DejaVuSans-106"/>
     <path d="M 48.6875 27.296875 
Q 48.6875 37.203125 44.609375 42.84375 
Q 40.53125 48.484375 33.40625 48.484375 
Q 26.265625 48.484375 22.1875 42.84375 
Q 18.109375 37.203125 18.109375 27.296875 
Q 18.109375 17.390625 22.1875 11.75 
Q 26.265625 6.109375 33.40625 6.109375 
Q 40.53125 6.109375 44.609375 11.75 
Q 48.6875 17.390625 48.6875 27.296875 
z
M 18.109375 46.390625 
Q 20.953125 51.265625 25.265625 53.625 
Q 29.59375 56 35.59375 56 
Q 45.5625 56 51.78125 48.09375 
Q 58.015625 40.1875 58.015625 27.296875 
Q 58.015625 14.40625 51.78125 6.484375 
Q 45.5625 -1.421875 35.59375 -1.421875 
Q 29.59375 -1.421875 25.265625 0.953125 
Q 20.953125 3.328125 18.109375 8.203125 
L 18.109375 0 
L 9.078125 0 
L 9.078125 75.984375 
L 18.109375 75.984375 
z
" id="DejaVuSans-98"/>
     <path d="M 48.78125 52.59375 
L 48.78125 44.1875 
Q 44.96875 46.296875 41.140625 47.34375 
Q 37.3125 48.390625 33.40625 48.390625 
Q 24.65625 48.390625 19.8125 42.84375 
Q 14.984375 37.3125 14.984375 27.296875 
Q 14.984375 17.28125 19.8125 11.734375 
Q 24.65625 6.203125 33.40625 6.203125 
Q 37.3125 6.203125 41.140625 7.25 
Q 44.96875 8.296875 48.78125 10.40625 
L 48.78125 2.09375 
Q 45.015625 0.34375 40.984375 -0.53125 
Q 36.96875 -1.421875 32.421875 -1.421875 
Q 20.0625 -1.421875 12.78125 6.34375 
Q 5.515625 14.109375 5.515625 27.296875 
Q 5.515625 40.671875 12.859375 48.328125 
Q 20.21875 56 33.015625 56 
Q 37.15625 56 41.109375 55.140625 
Q 45.0625 54.296875 48.78125 52.59375 
z
" id="DejaVuSans-99"/>
    </defs>
    <use xlink:href="#DejaVuSans-104"/>
    <use x="63.378906" xlink:href="#DejaVuSans-116"/>
    <use x="102.587891" xlink:href="#DejaVuSans-116"/>
    <use x="141.796875" xlink:href="#DejaVuSans-112"/>
    <use x="205.273438" xlink:href="#DejaVuSans-115"/>
    <use x="257.373047" xlink:href="#DejaVuSans-58"/>
    <use x="291.064453" xlink:href="#DejaVuSans-47"/>
    <use x="324.755859" xlink:href="#DejaVuSans-47"/>
    <use x="358.447266" xlink:href="#DejaVuSans-114"/>
    <use x="397.310547" xlink:href="#DejaVuSans-101"/>
    <use x="458.833984" xlink:href="#DejaVuSans-97"/>
    <use x="520.113281" xlink:href="#DejaVuSans-108"/>
    <use x="547.896484" xlink:href="#DejaVuSans-114"/>
    <use x="586.759766" xlink:href="#DejaVuSans-111"/>
    <use x="647.941406" xlink:href="#DejaVuSans-108"/>
    <use x="675.724609" xlink:href="#DejaVuSans-102"/>
    <use x="710.929688" xlink:href="#DejaVuSans-106"/>
    <use x="738.712891" xlink:href="#DejaVuSans-101"/>
    <use x="800.236328" xlink:href="#DejaVuSans-46"/>
    <use x="832.023438" xlink:href="#DejaVuSans-103"/>
    <use x="895.5" xlink:href="#DejaVuSans-105"/>
    <use x="923.283203" xlink:href="#DejaVuSans-116"/>
    <use x="962.492188" xlink:href="#DejaVuSans-104"/>
    <use x="1025.871094" xlink:href="#DejaVuSans-117"/>
    <use x="1089.25" xlink:href="#DejaVuSans-98"/>
    <use x="1152.726562" xlink:href="#DejaVuSans-46"/>
    <use x="1184.513672" xlink:href="#DejaVuSans-105"/>
    <use x="1212.296875" xlink:href="#DejaVuSans-111"/>
    <use x="1273.478516" xlink:href="#DejaVuSans-47"/>
    <use x="1307.169922" xlink:href="#DejaVuSans-99"/>
    <use x="1362.150391" xlink:href="#DejaVuSans-111"/>
    <use x="1423.332031" xlink:href="#DejaVuSans-114"/>
    <use x="1462.195312" xlink:href="#DejaVuSans-111"/>
    <use x="1523.376953" xlink:href="#DejaVuSans-110"/>
    <use x="1586.755859" xlink:href="#DejaVuSans-97"/>
    <use x="1648.035156" xlink:href="#DejaVuSans-100"/>
    <use x="1711.511719" xlink:href="#DejaVuSans-97"/>
    <use x="1772.791016" xlink:href="#DejaVuSans-116"/>
    <use x="1812" xlink:href="#DejaVuSans-97"/>
    <use x="1873.279297" xlink:href="#DejaVuSans-47"/>
   </g>
  </g>
 </g>
 <defs>
  <clipPath id="p1b9789048c">
   <rect height="284.4" width="590.4" x="64.8" y="28.8"/>
  </clipPath>
 </defs>
</svg>
