<?xml version="1.0" encoding="utf-8" standalone="no"?>
<!DOCTYPE svg PUBLIC "-//W3C//DTD SVG 1.1//EN"
  "http://www.w3.org/Graphics/SVG/1.1/DTD/svg11.dtd">
<!-- Created with matplotlib (https://matplotlib.org/) -->
<svg height="360pt" version="1.1" viewBox="0 0 720 360" width="720pt" xmlns="http://www.w3.org/2000/svg" xmlns:xlink="http://www.w3.org/1999/xlink">
 <metadata>
  <rdf:RDF xmlns:cc="http://creativecommons.org/ns#" xmlns:dc="http://purl.org/dc/elements/1.1/" xmlns:rdf="http://www.w3.org/1999/02/22-rdf-syntax-ns#">
   <cc:Work>
    <dc:type rdf:resource="http://purl.org/dc/dcmitype/StillImage"/>
    <dc:date>2023-01-04T15:37:52.853635</dc:date>
    <dc:format>image/svg+xml</dc:format>
    <dc:creator>
     <cc:Agent>
      <dc:title>Matplotlib v3.3.2, https://matplotlib.org/</dc:title>
     </cc:Agent>
    </dc:creator>
   </cc:Work>
  </rdf:RDF>
 </metadata>
 <defs>
  <style type="text/css">*{stroke-linecap:butt;stroke-linejoin:round;}</style>
 </defs>
 <g id="figure_1">
  <g id="patch_1">
   <path d="M 0 360 
L 720 360 
L 720 0 
L 0 0 
z
" style="fill:#ffffff;"/>
  </g>
  <g id="axes_1">
   <g id="patch_2">
    <path d="M 64.8 313.2 
L 655.2 313.2 
L 655.2 28.8 
L 64.8 28.8 
z
" style="fill:#ffffff;"/>
   </g>
   <g id="PolyCollection_1">
    <path clip-path="url(#peb47ce98ff)" d="M 91.636364 300.272727 
L 91.636364 300.272727 
L 92.328915 300.272727 
L 93.021466 300.272727 
L 93.714018 300.272727 
L 94.406569 300.272727 
L 95.09912 300.272727 
L 97.176774 300.272727 
L 97.869326 300.272727 
L 98.561877 300.272727 
L 99.254428 300.272727 
L 99.946979 300.272727 
L 100.639531 300.272727 
L 101.332082 300.272727 
L 102.024633 300.272727 
L 102.717185 300.272727 
L 103.409736 300.272727 
L 104.102287 300.272727 
L 104.794839 300.272727 
L 105.48739 300.272727 
L 106.179941 300.272727 
L 106.872493 300.272727 
L 107.565044 300.272727 
L 108.257595 300.272727 
L 108.950147 300.272727 
L 109.642698 300.272727 
L 110.335249 300.272727 
L 111.027801 300.272727 
L 111.720352 300.272727 
L 112.412903 300.272727 
L 113.105455 300.272727 
L 113.798006 300.272727 
L 114.490557 300.272727 
L 115.183109 300.272727 
L 115.87566 300.272727 
L 116.568211 300.272727 
L 117.260762 300.272727 
L 117.953314 300.272727 
L 118.645865 300.272727 
L 119.338416 300.272727 
L 120.030968 300.272727 
L 120.723519 300.272727 
L 121.41607 300.272727 
L 122.108622 300.272727 
L 122.801173 300.272727 
L 123.493724 300.272727 
L 124.186276 300.272727 
L 124.878827 300.272727 
L 125.571378 300.272727 
L 126.26393 300.272727 
L 126.956481 300.272727 
L 127.649032 300.272727 
L 128.341584 300.272727 
L 129.034135 300.272727 
L 129.726686 300.272727 
L 130.419238 300.272727 
L 131.111789 300.272727 
L 131.80434 300.272727 
L 132.496891 300.272727 
L 133.189443 300.272727 
L 133.881994 300.272727 
L 134.574545 300.272727 
L 135.267097 300.272727 
L 135.959648 300.272727 
L 136.652199 300.272727 
L 137.344751 300.272727 
L 138.037302 300.272727 
L 138.729853 300.272727 
L 139.422405 300.272727 
L 140.114956 300.272727 
L 140.807507 300.272727 
L 141.500059 300.272727 
L 142.19261 300.272727 
L 142.885161 300.272727 
L 143.577713 300.272727 
L 144.270264 300.272727 
L 144.962815 300.272727 
L 145.655367 300.272727 
L 146.347918 300.272727 
L 147.040469 300.272727 
L 147.733021 300.272727 
L 148.425572 300.272727 
L 149.118123 300.272727 
L 149.810674 300.272727 
L 150.503226 300.272727 
L 151.195777 300.272727 
L 151.888328 300.272727 
L 152.58088 300.272727 
L 153.273431 300.272727 
L 153.965982 300.272727 
L 154.658534 300.272727 
L 155.351085 300.272727 
L 156.043636 300.272727 
L 156.736188 300.272727 
L 157.428739 300.272727 
L 158.12129 300.272727 
L 158.813842 300.272727 
L 159.506393 300.272727 
L 160.198944 300.272727 
L 160.891496 300.272727 
L 161.584047 300.272727 
L 162.276598 300.272727 
L 162.96915 300.272727 
L 163.661701 300.272727 
L 164.354252 300.272727 
L 165.046804 300.272727 
L 165.739355 300.272727 
L 166.431906 300.272727 
L 167.124457 300.272727 
L 167.817009 300.272727 
L 168.50956 300.272727 
L 169.202111 300.272727 
L 169.894663 300.272727 
L 170.587214 300.272727 
L 171.279765 300.272727 
L 171.972317 300.272727 
L 172.664868 300.272727 
L 173.357419 300.272727 
L 174.742522 300.272727 
L 175.435073 300.272727 
L 176.127625 300.272727 
L 176.820176 300.272727 
L 177.512727 300.272727 
L 178.205279 300.272727 
L 178.89783 300.272727 
L 179.590381 300.272727 
L 180.282933 300.272727 
L 180.975484 300.272727 
L 181.668035 300.272727 
L 182.360587 300.272727 
L 183.053138 300.272727 
L 183.745689 300.272727 
L 184.43824 300.272727 
L 185.130792 300.272727 
L 185.823343 300.272727 
L 186.515894 300.272727 
L 187.208446 300.272727 
L 187.900997 300.272727 
L 188.593548 300.272727 
L 189.2861 300.272727 
L 189.978651 300.272727 
L 190.671202 300.272727 
L 191.363754 300.272727 
L 192.056305 300.272727 
L 192.748856 300.272727 
L 193.441408 300.272727 
L 194.133959 300.272727 
L 194.82651 300.272727 
L 195.519062 300.272727 
L 196.211613 300.272727 
L 196.904164 300.272727 
L 197.596716 300.272727 
L 198.289267 300.272727 
L 198.981818 300.272727 
L 199.67437 300.272727 
L 200.366921 300.272727 
L 201.059472 300.272727 
L 201.752023 300.272727 
L 202.444575 300.272727 
L 203.137126 300.272727 
L 203.829677 300.272727 
L 204.522229 300.272727 
L 205.21478 300.272727 
L 205.907331 300.272727 
L 206.599883 300.272727 
L 207.292434 300.272727 
L 207.984985 300.272727 
L 208.677537 300.272727 
L 209.370088 300.272727 
L 210.062639 300.272727 
L 210.755191 300.272727 
L 211.447742 300.272727 
L 212.140293 300.272727 
L 212.832845 300.272727 
L 213.525396 300.272727 
L 214.217947 300.272727 
L 214.910499 300.272727 
L 215.60305 300.272727 
L 216.295601 300.272727 
L 216.988152 300.272727 
L 217.680704 300.272727 
L 218.373255 300.272727 
L 219.065806 300.272727 
L 219.758358 300.272727 
L 220.450909 300.272727 
L 221.14346 300.272727 
L 221.836012 300.272727 
L 222.528563 300.272727 
L 223.221114 300.272727 
L 223.913666 300.272727 
L 224.606217 300.272727 
L 225.298768 300.272727 
L 225.99132 300.272727 
L 226.683871 300.272727 
L 227.376422 300.272727 
L 228.068974 300.272727 
L 228.761525 300.272727 
L 229.454076 300.272727 
L 230.146628 300.272727 
L 230.839179 300.272727 
L 231.53173 300.272727 
L 232.224282 300.272727 
L 232.916833 300.272727 
L 233.609384 300.272727 
L 234.301935 300.272727 
L 234.994487 300.272727 
L 236.379589 300.272727 
L 237.072141 300.272727 
L 237.764692 300.272727 
L 238.457243 300.272727 
L 239.149795 300.272727 
L 239.842346 300.272727 
L 240.534897 300.272727 
L 241.227449 300.272727 
L 241.92 300.272727 
L 242.612551 300.272727 
L 243.305103 300.272727 
L 243.997654 300.272727 
L 244.690205 300.272727 
L 245.382757 300.272727 
L 246.075308 300.272727 
L 246.767859 300.272727 
L 247.460411 300.272727 
L 248.152962 300.272727 
L 248.845513 300.272727 
L 249.538065 300.272727 
L 250.230616 300.272727 
L 250.923167 300.272727 
L 251.615718 300.272727 
L 252.30827 300.272727 
L 253.000821 300.272727 
L 253.693372 300.272727 
L 254.385924 300.272727 
L 255.078475 300.272727 
L 255.771026 300.272727 
L 256.463578 300.272727 
L 257.156129 300.272727 
L 257.84868 300.272727 
L 258.541232 300.272727 
L 259.233783 300.272727 
L 259.926334 300.272727 
L 260.618886 300.272727 
L 261.311437 300.272727 
L 262.003988 300.272727 
L 262.69654 300.272727 
L 263.389091 300.272727 
L 264.081642 300.272727 
L 264.774194 300.272727 
L 265.466745 300.272727 
L 266.159296 300.272727 
L 266.851848 300.272727 
L 267.544399 300.272727 
L 268.23695 300.272727 
L 268.929501 300.272727 
L 269.622053 300.272727 
L 270.314604 300.272727 
L 271.007155 300.272727 
L 271.699707 300.272727 
L 272.392258 300.272727 
L 273.084809 300.272727 
L 273.777361 300.272727 
L 274.469912 300.272727 
L 275.162463 300.272727 
L 275.855015 300.272727 
L 276.547566 300.272727 
L 277.240117 300.272727 
L 277.932669 300.272727 
L 278.62522 300.272727 
L 279.317771 300.272727 
L 280.010323 300.272727 
L 280.702874 300.272727 
L 281.395425 300.272727 
L 282.087977 300.272727 
L 282.780528 300.272727 
L 283.473079 300.272727 
L 284.16563 300.272727 
L 284.858182 300.272727 
L 285.550733 300.272727 
L 286.243284 300.272727 
L 286.935836 300.272727 
L 287.628387 300.272727 
L 288.320938 300.272727 
L 289.01349 300.272727 
L 289.706041 300.272727 
L 290.398592 300.272727 
L 291.091144 300.272727 
L 291.783695 300.272727 
L 292.476246 300.272727 
L 293.168798 300.272727 
L 293.861349 300.272727 
L 294.5539 300.272727 
L 295.246452 300.272727 
L 295.939003 300.272727 
L 296.631554 300.272727 
L 297.324106 300.272727 
L 298.016657 300.272727 
L 298.709208 300.272727 
L 299.40176 300.272727 
L 300.094311 300.272727 
L 300.786862 300.272727 
L 301.479413 300.272727 
L 302.171965 300.272727 
L 302.864516 300.272727 
L 303.557067 300.272727 
L 304.249619 300.272727 
L 304.94217 300.272727 
L 305.634721 300.272727 
L 306.327273 300.272727 
L 307.019824 300.272727 
L 307.712375 300.272727 
L 308.404927 300.272727 
L 309.097478 300.272727 
L 309.790029 300.272727 
L 310.482581 300.272727 
L 311.175132 300.272727 
L 311.867683 300.272727 
L 312.560235 300.272727 
L 313.252786 300.272727 
L 313.945337 300.272727 
L 314.637889 300.272727 
L 315.33044 300.272727 
L 316.022991 300.272727 
L 316.715543 300.272727 
L 317.408094 300.272727 
L 318.100645 300.272727 
L 318.793196 300.272727 
L 319.485748 300.272727 
L 320.178299 300.272727 
L 320.87085 300.272727 
L 321.563402 300.272727 
L 322.255953 300.272727 
L 322.948504 300.272727 
L 323.641056 300.272727 
L 324.333607 300.272727 
L 325.026158 300.272727 
L 325.71871 300.272727 
L 326.411261 300.272727 
L 327.103812 300.272727 
L 327.796364 300.272727 
L 328.488915 300.272727 
L 329.181466 300.272727 
L 329.874018 300.272727 
L 330.566569 300.272727 
L 331.25912 300.272727 
L 331.951672 300.272727 
L 332.644223 300.272727 
L 333.336774 300.272727 
L 334.029326 300.272727 
L 334.721877 300.272727 
L 335.414428 300.272727 
L 336.106979 300.272727 
L 336.799531 300.272727 
L 337.492082 300.272727 
L 338.184633 300.272727 
L 338.877185 300.272727 
L 339.569736 300.272727 
L 340.262287 300.272727 
L 340.954839 300.272727 
L 341.64739 300.272727 
L 342.339941 300.272727 
L 343.032493 300.272727 
L 343.725044 300.272727 
L 344.417595 300.272727 
L 345.110147 300.272727 
L 345.802698 300.272727 
L 346.495249 300.272727 
L 347.187801 300.272727 
L 347.880352 300.272727 
L 348.572903 300.272727 
L 349.265455 300.272727 
L 349.958006 300.272727 
L 350.650557 300.272727 
L 351.343109 300.272727 
L 352.03566 300.272727 
L 352.728211 300.272727 
L 353.420762 300.272727 
L 354.113314 300.272727 
L 354.805865 300.272727 
L 355.498416 300.272727 
L 356.190968 300.272727 
L 356.883519 300.272727 
L 357.57607 300.272727 
L 358.268622 300.272727 
L 358.961173 300.272727 
L 359.653724 300.272727 
L 360.346276 300.272727 
L 361.038827 300.272727 
L 361.731378 300.272727 
L 362.42393 300.272727 
L 363.116481 300.272727 
L 363.809032 300.272727 
L 364.501584 300.272727 
L 365.194135 300.272727 
L 365.886686 300.272727 
L 366.579238 300.272727 
L 367.271789 300.272727 
L 367.96434 300.272727 
L 368.656891 300.272727 
L 369.349443 300.272727 
L 370.041994 300.272727 
L 370.734545 300.272727 
L 371.427097 300.272727 
L 372.119648 300.272727 
L 372.812199 300.272727 
L 373.504751 300.272727 
L 374.197302 300.272727 
L 374.889853 300.272727 
L 375.582405 300.272727 
L 383.893021 300.272727 
L 384.585572 300.272727 
L 385.278123 300.272727 
L 385.970674 300.272727 
L 386.663226 300.272727 
L 387.355777 300.272727 
L 388.048328 300.272727 
L 388.74088 300.272727 
L 390.125982 300.272727 
L 390.818534 300.272727 
L 391.511085 300.272727 
L 392.203636 300.272727 
L 392.896188 300.272727 
L 393.588739 300.272727 
L 394.28129 300.272727 
L 394.973842 300.272727 
L 395.666393 300.272727 
L 396.358944 300.272727 
L 397.051496 300.272727 
L 397.744047 300.272727 
L 398.436598 300.272727 
L 399.12915 300.272727 
L 399.821701 300.272727 
L 400.514252 300.272727 
L 401.206804 300.272727 
L 401.899355 300.272727 
L 402.591906 300.272727 
L 403.284457 300.272727 
L 403.977009 300.272727 
L 404.66956 300.272727 
L 405.362111 300.272727 
L 406.054663 300.272727 
L 406.747214 300.272727 
L 407.439765 300.272727 
L 408.132317 300.272727 
L 408.824868 300.272727 
L 409.517419 300.272727 
L 410.209971 300.272727 
L 410.902522 300.272727 
L 411.595073 300.272727 
L 412.287625 300.272727 
L 412.980176 300.272727 
L 413.672727 300.272727 
L 414.365279 300.272727 
L 415.05783 300.272727 
L 415.750381 300.272727 
L 416.442933 300.272727 
L 418.520587 300.272727 
L 419.213138 300.272727 
L 419.905689 300.272727 
L 420.59824 300.272727 
L 421.290792 300.272727 
L 421.983343 300.272727 
L 422.675894 300.272727 
L 423.368446 300.272727 
L 424.060997 300.272727 
L 424.753548 300.272727 
L 425.4461 300.272727 
L 426.138651 300.272727 
L 426.831202 300.272727 
L 427.523754 300.272727 
L 428.216305 300.272727 
L 428.908856 300.272727 
L 429.601408 300.272727 
L 430.293959 300.272727 
L 430.98651 300.272727 
L 431.679062 300.272727 
L 432.371613 300.272727 
L 433.064164 300.272727 
L 433.756716 300.272727 
L 434.449267 300.272727 
L 435.141818 300.272727 
L 435.83437 300.272727 
L 436.526921 300.272727 
L 437.219472 300.272727 
L 437.912023 300.272727 
L 438.604575 300.272727 
L 439.297126 300.272727 
L 439.989677 300.272727 
L 440.682229 300.272727 
L 441.37478 300.272727 
L 442.067331 300.272727 
L 442.759883 300.272727 
L 443.452434 300.272727 
L 444.144985 300.272727 
L 444.837537 300.272727 
L 445.530088 300.272727 
L 446.222639 300.272727 
L 446.915191 300.272727 
L 447.607742 300.272727 
L 448.300293 300.272727 
L 448.992845 300.272727 
L 449.685396 300.272727 
L 450.377947 300.272727 
L 451.070499 300.272727 
L 451.76305 300.272727 
L 452.455601 300.272727 
L 453.148152 300.272727 
L 453.840704 300.272727 
L 454.533255 300.272727 
L 455.225806 300.272727 
L 455.918358 300.272727 
L 456.610909 300.272727 
L 457.30346 300.272727 
L 457.996012 300.272727 
L 458.688563 300.272727 
L 459.381114 300.272727 
L 460.073666 300.272727 
L 460.766217 300.272727 
L 461.458768 300.272727 
L 462.15132 300.272727 
L 462.843871 300.272727 
L 463.536422 300.272727 
L 464.228974 300.272727 
L 464.921525 300.272727 
L 465.614076 300.272727 
L 466.306628 300.272727 
L 466.999179 300.272727 
L 467.69173 300.272727 
L 468.384282 300.272727 
L 469.076833 300.272727 
L 469.769384 300.272727 
L 470.461935 300.272727 
L 471.154487 300.272727 
L 471.847038 300.272727 
L 472.539589 300.272727 
L 473.232141 300.272727 
L 473.924692 300.272727 
L 474.617243 300.272727 
L 475.309795 300.272727 
L 476.002346 300.272727 
L 476.694897 300.272727 
L 477.387449 300.272727 
L 478.08 300.272727 
L 478.772551 300.272727 
L 479.465103 300.272727 
L 480.157654 300.272727 
L 480.850205 300.272727 
L 481.542757 300.272727 
L 482.235308 300.272727 
L 482.927859 300.272727 
L 483.620411 300.272727 
L 484.312962 300.272727 
L 485.005513 300.272727 
L 485.698065 300.272727 
L 486.390616 300.272727 
L 487.083167 300.272727 
L 487.775718 300.272727 
L 488.46827 300.272727 
L 489.160821 300.272727 
L 489.853372 300.272727 
L 490.545924 300.272727 
L 491.238475 300.272727 
L 491.931026 300.272727 
L 492.623578 300.272727 
L 493.316129 300.272727 
L 494.00868 300.272727 
L 494.701232 300.272727 
L 495.393783 300.272727 
L 496.086334 300.272727 
L 496.778886 300.272727 
L 497.471437 300.272727 
L 498.163988 300.272727 
L 498.85654 300.272727 
L 499.549091 300.272727 
L 500.241642 300.272727 
L 500.934194 300.272727 
L 501.626745 300.272727 
L 502.319296 300.272727 
L 503.011848 300.272727 
L 503.704399 300.272727 
L 504.39695 300.272727 
L 505.089501 300.272727 
L 505.782053 300.272727 
L 506.474604 300.272727 
L 507.167155 300.272727 
L 507.859707 300.272727 
L 508.552258 300.272727 
L 509.244809 300.272727 
L 509.937361 300.272727 
L 510.629912 300.272727 
L 511.322463 300.272727 
L 512.015015 300.272727 
L 512.707566 300.272727 
L 513.400117 300.272727 
L 514.092669 300.272727 
L 514.78522 300.272727 
L 515.477771 300.272727 
L 516.170323 300.272727 
L 516.862874 300.272727 
L 517.555425 300.272727 
L 518.247977 300.272727 
L 518.940528 300.272727 
L 519.633079 300.272727 
L 520.32563 300.272727 
L 521.018182 300.272727 
L 521.710733 300.272727 
L 522.403284 300.272727 
L 523.095836 300.272727 
L 523.788387 300.272727 
L 524.480938 300.272727 
L 525.17349 300.272727 
L 525.866041 300.272727 
L 526.558592 300.272727 
L 527.251144 300.272727 
L 527.943695 300.272727 
L 528.636246 300.272727 
L 529.328798 300.272727 
L 530.021349 300.272727 
L 530.7139 300.272727 
L 531.406452 300.272727 
L 532.099003 300.272727 
L 532.791554 300.272727 
L 533.484106 300.272727 
L 534.176657 300.272727 
L 535.56176 300.272727 
L 536.254311 300.272727 
L 536.946862 300.272727 
L 537.639413 300.272727 
L 538.331965 300.272727 
L 539.024516 300.272727 
L 539.717067 300.272727 
L 540.409619 300.272727 
L 541.10217 300.272727 
L 541.794721 300.272727 
L 542.487273 300.272727 
L 543.179824 300.272727 
L 543.872375 300.272727 
L 544.564927 300.272727 
L 545.257478 300.272727 
L 545.950029 300.272727 
L 546.642581 300.272727 
L 547.335132 300.272727 
L 548.027683 300.272727 
L 548.720235 300.272727 
L 549.412786 300.272727 
L 550.105337 300.272727 
L 550.797889 300.272727 
L 551.49044 300.272727 
L 552.182991 300.272727 
L 552.875543 300.272727 
L 553.568094 300.272727 
L 554.260645 300.272727 
L 554.953196 300.272727 
L 555.645748 300.272727 
L 556.338299 300.272727 
L 557.03085 300.272727 
L 557.723402 300.272727 
L 558.415953 300.272727 
L 559.108504 300.272727 
L 559.801056 300.272727 
L 560.493607 300.272727 
L 561.186158 300.272727 
L 561.87871 300.272727 
L 562.571261 300.272727 
L 563.263812 300.272727 
L 563.956364 300.272727 
L 564.648915 300.272727 
L 565.341466 300.272727 
L 566.034018 300.272727 
L 566.726569 300.272727 
L 567.41912 300.272727 
L 568.111672 300.272727 
L 568.804223 300.272727 
L 569.496774 300.272727 
L 570.189326 300.272727 
L 570.881877 300.272727 
L 571.574428 300.272727 
L 572.266979 300.272727 
L 572.959531 300.272727 
L 573.652082 300.272727 
L 574.344633 300.272727 
L 575.037185 300.272727 
L 575.729736 300.272727 
L 576.422287 300.272727 
L 577.114839 300.272727 
L 577.80739 300.272727 
L 578.499941 300.272727 
L 579.192493 300.272727 
L 579.885044 300.272727 
L 580.577595 300.272727 
L 581.270147 300.272727 
L 581.962698 300.272727 
L 582.655249 300.272727 
L 583.347801 300.272727 
L 584.040352 300.272727 
L 584.732903 300.272727 
L 585.425455 300.272727 
L 586.118006 300.272727 
L 586.810557 300.272727 
L 587.503109 300.272727 
L 588.19566 300.272727 
L 588.888211 300.272727 
L 589.580762 300.272727 
L 590.273314 300.272727 
L 590.965865 300.272727 
L 591.658416 300.272727 
L 592.350968 300.272727 
L 593.043519 300.272727 
L 593.73607 300.272727 
L 594.428622 300.272727 
L 595.121173 300.272727 
L 595.813724 300.272727 
L 596.506276 300.272727 
L 597.198827 300.272727 
L 597.891378 300.272727 
L 598.58393 300.272727 
L 599.276481 300.272727 
L 599.969032 300.272727 
L 600.661584 300.272727 
L 601.354135 300.272727 
L 602.046686 300.272727 
L 602.739238 300.272727 
L 603.431789 300.272727 
L 604.12434 300.272727 
L 604.816891 300.272727 
L 605.509443 300.272727 
L 606.201994 300.272727 
L 606.894545 300.272727 
L 607.587097 300.272727 
L 608.279648 300.272727 
L 608.972199 300.272727 
L 609.664751 300.272727 
L 610.357302 300.272727 
L 611.049853 300.272727 
L 611.742405 300.272727 
L 612.434956 300.272727 
L 613.127507 300.272727 
L 613.820059 300.272727 
L 614.51261 300.272727 
L 615.205161 300.272727 
L 615.897713 300.272727 
L 616.590264 300.272727 
L 617.282815 300.272727 
L 617.975367 300.272727 
L 618.667918 300.272727 
L 619.360469 300.272727 
L 620.053021 300.272727 
L 620.745572 300.272727 
L 621.438123 300.272727 
L 622.130674 300.272727 
L 622.823226 300.272727 
L 623.515777 300.272727 
L 624.208328 300.272727 
L 624.90088 300.272727 
L 625.593431 300.272727 
L 626.285982 300.272727 
L 626.978534 300.272727 
L 627.671085 300.272727 
L 628.363636 300.272727 
L 628.363636 300.272727 
L 628.363636 293.966741 
L 627.671085 287.660754 
L 626.978534 291.339246 
L 626.285982 293.441242 
L 625.593431 270.31929 
L 624.90088 297.645233 
L 624.208328 295.017738 
L 623.515777 295.017738 
L 622.823226 297.645233 
L 622.130674 296.594235 
L 621.438123 297.645233 
L 620.745572 297.645233 
L 620.053021 297.119734 
L 619.360469 297.645233 
L 618.667918 281.354767 
L 617.975367 296.594235 
L 617.282815 290.288248 
L 616.590264 298.170732 
L 615.897713 297.119734 
L 615.205161 271.895787 
L 614.51261 297.119734 
L 613.820059 296.594235 
L 613.127507 297.119734 
L 612.434956 281.880266 
L 611.742405 292.390244 
L 611.049853 298.170732 
L 610.357302 295.017738 
L 609.664751 296.594235 
L 608.972199 268.217295 
L 608.279648 248.773836 
L 607.587097 268.217295 
L 606.894545 292.915743 
L 606.201994 290.813747 
L 605.509443 238.789357 
L 604.816891 240.365854 
L 604.12434 295.543237 
L 603.431789 296.068736 
L 602.739238 297.119734 
L 602.046686 296.594235 
L 601.354135 297.645233 
L 600.661584 296.594235 
L 599.969032 294.492239 
L 599.276481 297.645233 
L 598.58393 298.170732 
L 597.891378 266.640798 
L 597.198827 298.170732 
L 596.506276 291.864745 
L 595.813724 297.119734 
L 595.121173 295.543237 
L 594.428622 297.119734 
L 593.73607 297.119734 
L 593.043519 294.492239 
L 592.350968 296.594235 
L 591.658416 296.594235 
L 590.965865 294.492239 
L 590.273314 278.727273 
L 589.580762 298.696231 
L 588.888211 292.915743 
L 588.19566 295.017738 
L 587.503109 295.017738 
L 586.810557 296.068736 
L 586.118006 278.727273 
L 585.425455 260.86031 
L 584.732903 277.150776 
L 584.040352 290.288248 
L 583.347801 295.543237 
L 582.655249 295.543237 
L 581.962698 296.068736 
L 581.270147 292.915743 
L 580.577595 292.915743 
L 579.885044 294.492239 
L 579.192493 282.405765 
L 578.499941 261.385809 
L 577.80739 290.813747 
L 577.114839 255.079823 
L 576.422287 251.926829 
L 575.729736 288.711752 
L 575.037185 292.390244 
L 574.344633 249.299335 
L 573.652082 290.813747 
L 572.959531 285.558758 
L 572.266979 290.813747 
L 571.574428 293.966741 
L 570.881877 289.762749 
L 570.189326 294.492239 
L 569.496774 278.201774 
L 568.804223 292.915743 
L 568.111672 296.594235 
L 567.41912 296.594235 
L 566.726569 297.119734 
L 566.034018 295.543237 
L 565.341466 274.523282 
L 564.648915 262.962306 
L 563.956364 272.421286 
L 563.263812 296.068736 
L 562.571261 293.441242 
L 561.87871 290.813747 
L 561.186158 291.339246 
L 560.493607 298.170732 
L 559.801056 292.915743 
L 559.108504 296.594235 
L 558.415953 298.170732 
L 557.723402 296.068736 
L 557.03085 266.115299 
L 556.338299 266.115299 
L 555.645748 264.538803 
L 554.953196 230.906874 
L 554.260645 264.013304 
L 553.568094 298.170732 
L 552.875543 298.170732 
L 552.182991 293.966741 
L 551.49044 297.119734 
L 550.797889 274.523282 
L 550.105337 230.381375 
L 549.412786 251.926829 
L 548.720235 298.170732 
L 548.027683 297.119734 
L 547.335132 298.170732 
L 546.642581 288.711752 
L 545.950029 293.441242 
L 545.257478 290.813747 
L 544.564927 291.339246 
L 543.872375 293.441242 
L 543.179824 292.390244 
L 542.487273 293.966741 
L 541.794721 296.594235 
L 541.10217 298.170732 
L 540.409619 295.543237 
L 539.717067 297.645233 
L 539.024516 297.119734 
L 538.331965 296.594235 
L 537.639413 296.594235 
L 536.946862 297.119734 
L 536.254311 295.543237 
L 535.56176 288.186253 
L 534.176657 298.170732 
L 533.484106 297.119734 
L 532.791554 297.119734 
L 532.099003 297.119734 
L 531.406452 290.813747 
L 530.7139 298.170732 
L 530.021349 297.119734 
L 529.328798 297.119734 
L 528.636246 298.170732 
L 527.943695 298.170732 
L 527.251144 296.068736 
L 526.558592 299.221729 
L 525.866041 298.170732 
L 525.17349 288.186253 
L 524.480938 298.170732 
L 523.788387 297.119734 
L 523.095836 296.594235 
L 522.403284 295.543237 
L 521.710733 295.017738 
L 521.018182 297.645233 
L 520.32563 295.017738 
L 519.633079 297.119734 
L 518.940528 297.645233 
L 518.247977 297.119734 
L 517.555425 293.441242 
L 516.862874 297.645233 
L 516.170323 295.543237 
L 515.477771 297.119734 
L 514.78522 296.594235 
L 514.092669 295.017738 
L 513.400117 256.656319 
L 512.707566 279.252772 
L 512.015015 283.456763 
L 511.322463 293.966741 
L 510.629912 266.115299 
L 509.937361 298.170732 
L 509.244809 294.492239 
L 508.552258 297.119734 
L 507.859707 295.017738 
L 507.167155 293.966741 
L 506.474604 295.017738 
L 505.782053 295.017738 
L 505.089501 297.119734 
L 504.39695 296.594235 
L 503.704399 232.48337 
L 503.011848 173.627494 
L 502.319296 204.10643 
L 501.626745 233.008869 
L 500.934194 297.119734 
L 500.241642 294.492239 
L 499.549091 292.390244 
L 498.85654 229.855876 
L 498.163988 241.94235 
L 497.471437 292.390244 
L 496.778886 293.441242 
L 496.086334 288.711752 
L 495.393783 285.033259 
L 494.701232 228.279379 
L 494.00868 226.177384 
L 493.316129 290.813747 
L 492.623578 291.339246 
L 491.931026 287.660754 
L 491.238475 289.237251 
L 490.545924 293.966741 
L 489.853372 295.017738 
L 489.160821 285.558758 
L 488.46827 292.915743 
L 487.775718 269.268293 
L 487.083167 200.953437 
L 486.390616 234.585366 
L 485.698065 295.543237 
L 485.005513 197.274945 
L 484.312962 185.18847 
L 483.620411 294.492239 
L 482.927859 288.711752 
L 482.235308 297.119734 
L 481.542757 270.844789 
L 480.850205 298.170732 
L 480.157654 245.620843 
L 479.465103 247.722838 
L 478.772551 296.068736 
L 478.08 298.170732 
L 477.387449 297.119734 
L 476.694897 295.543237 
L 476.002346 298.170732 
L 475.309795 294.492239 
L 474.617243 293.441242 
L 473.924692 296.068736 
L 473.232141 200.953437 
L 472.539589 208.83592 
L 471.847038 266.640798 
L 471.154487 294.492239 
L 470.461935 282.931264 
L 469.769384 266.115299 
L 469.076833 243.518847 
L 468.384282 242.993348 
L 467.69173 205.157428 
L 466.999179 234.585366 
L 466.306628 273.472284 
L 465.614076 206.208426 
L 464.921525 248.248337 
L 464.228974 280.303769 
L 463.536422 287.660754 
L 462.843871 296.594235 
L 462.15132 295.543237 
L 461.458768 293.966741 
L 460.766217 296.068736 
L 460.073666 294.492239 
L 459.381114 287.135255 
L 458.688563 255.605322 
L 457.996012 290.288248 
L 457.30346 298.170732 
L 456.610909 295.543237 
L 455.918358 293.966741 
L 455.225806 287.660754 
L 454.533255 297.645233 
L 453.840704 296.068736 
L 453.148152 296.068736 
L 452.455601 295.543237 
L 451.76305 285.033259 
L 451.070499 296.068736 
L 450.377947 273.997783 
L 449.685396 285.558758 
L 448.992845 293.966741 
L 448.300293 293.966741 
L 447.607742 296.594235 
L 446.915191 296.594235 
L 446.222639 296.594235 
L 445.530088 287.660754 
L 444.837537 256.13082 
L 444.144985 247.197339 
L 443.452434 273.472284 
L 442.759883 288.711752 
L 442.067331 291.864745 
L 441.37478 278.727273 
L 440.682229 255.605322 
L 439.989677 244.044346 
L 439.297126 248.773836 
L 438.604575 248.248337 
L 437.912023 239.840355 
L 437.219472 294.492239 
L 436.526921 291.339246 
L 435.83437 254.554324 
L 435.141818 287.660754 
L 434.449267 288.186253 
L 433.756716 253.503326 
L 433.064164 295.017738 
L 432.371613 287.135255 
L 431.679062 290.813747 
L 430.98651 248.773836 
L 430.293959 225.126386 
L 429.601408 239.314856 
L 428.908856 266.640798 
L 428.216305 285.033259 
L 427.523754 290.288248 
L 426.831202 296.068736 
L 426.138651 248.248337 
L 425.4461 266.115299 
L 424.753548 283.982262 
L 424.060997 233.008869 
L 423.368446 238.263858 
L 422.675894 265.5898 
L 421.983343 271.370288 
L 421.290792 176.780488 
L 420.59824 289.762749 
L 419.905689 262.962306 
L 419.213138 202.529933 
L 418.520587 201.478936 
L 416.442933 273.472284 
L 415.750381 236.687361 
L 415.05783 191.494457 
L 414.365279 242.467849 
L 413.672727 243.518847 
L 412.980176 286.084257 
L 412.287625 272.421286 
L 411.595073 270.844789 
L 410.902522 174.152993 
L 410.209971 222.498891 
L 409.517419 282.405765 
L 408.824868 259.809313 
L 408.132317 265.5898 
L 407.439765 182.560976 
L 406.747214 228.804878 
L 406.054663 270.31929 
L 405.362111 228.279379 
L 404.66956 219.871397 
L 403.977009 237.21286 
L 403.284457 254.028825 
L 402.591906 262.962306 
L 401.899355 217.769401 
L 401.206804 213.039911 
L 400.514252 236.687361 
L 399.821701 224.600887 
L 399.12915 212.514412 
L 398.436598 265.5898 
L 397.744047 178.882483 
L 397.051496 219.871397 
L 396.358944 232.48337 
L 395.666393 209.886918 
L 394.973842 104.78714 
L 394.28129 246.146341 
L 393.588739 265.064302 
L 392.896188 189.91796 
L 392.203636 188.341463 
L 391.511085 239.840355 
L 390.818534 168.372506 
L 390.125982 67.476718 
L 388.74088 228.279379 
L 388.048328 244.044346 
L 387.355777 204.631929 
L 386.663226 220.396896 
L 385.970674 178.882483 
L 385.278123 160.490022 
L 384.585572 189.392461 
L 383.893021 262.962306 
L 375.582405 198.851441 
L 374.889853 188.866962 
L 374.197302 256.13082 
L 373.504751 288.711752 
L 372.812199 278.201774 
L 372.119648 276.625277 
L 371.427097 273.472284 
L 370.734545 247.197339 
L 370.041994 275.04878 
L 369.349443 285.033259 
L 368.656891 288.186253 
L 367.96434 251.926829 
L 367.271789 196.749446 
L 366.579238 142.62306 
L 365.886686 58.017738 
L 365.194135 161.54102 
L 364.501584 275.04878 
L 363.809032 275.574279 
L 363.116481 281.354767 
L 362.42393 270.844789 
L 361.731378 242.993348 
L 361.038827 272.946785 
L 360.346276 279.778271 
L 359.653724 286.609756 
L 358.961173 287.135255 
L 358.268622 289.237251 
L 357.57607 283.982262 
L 356.883519 274.523282 
L 356.190968 169.949002 
L 355.498416 167.321508 
L 354.805865 201.478936 
L 354.113314 190.443459 
L 353.420762 214.616408 
L 352.728211 279.778271 
L 352.03566 272.421286 
L 351.343109 241.416851 
L 350.650557 284.507761 
L 349.958006 273.997783 
L 349.265455 270.31929 
L 348.572903 254.554324 
L 347.880352 190.968958 
L 347.187801 198.851441 
L 346.495249 247.197339 
L 345.802698 204.631929 
L 345.110147 196.749446 
L 344.417595 180.45898 
L 343.725044 173.627494 
L 343.032493 171.525499 
L 342.339941 185.713969 
L 341.64739 144.725055 
L 340.954839 117.924612 
L 340.262287 171.525499 
L 339.569736 195.172949 
L 338.877185 190.443459 
L 338.184633 162.066519 
L 337.492082 179.933481 
L 336.799531 204.631929 
L 336.106979 149.454545 
L 335.414428 122.128603 
L 334.721877 157.337029 
L 334.029326 209.886918 
L 333.336774 210.937916 
L 332.644223 186.239468 
L 331.951672 207.259424 
L 331.25912 235.110865 
L 330.566569 292.390244 
L 329.874018 287.135255 
L 329.181466 230.906874 
L 328.488915 234.585366 
L 327.796364 288.711752 
L 327.103812 284.507761 
L 326.411261 229.855876 
L 325.71871 282.931264 
L 325.026158 289.762749 
L 324.333607 280.829268 
L 323.641056 262.962306 
L 322.948504 237.738359 
L 322.255953 291.864745 
L 321.563402 284.507761 
L 320.87085 286.609756 
L 320.178299 290.288248 
L 319.485748 213.56541 
L 318.793196 249.299335 
L 318.100645 292.390244 
L 317.408094 276.099778 
L 316.715543 272.421286 
L 316.022991 272.421286 
L 315.33044 287.660754 
L 314.637889 286.084257 
L 313.945337 291.864745 
L 313.252786 287.660754 
L 312.560235 288.186253 
L 311.867683 282.931264 
L 311.175132 291.864745 
L 310.482581 282.405765 
L 309.790029 290.813747 
L 309.097478 235.636364 
L 308.404927 258.758315 
L 307.712375 289.762749 
L 307.019824 230.381375 
L 306.327273 255.079823 
L 305.634721 288.711752 
L 304.94217 279.778271 
L 304.249619 290.288248 
L 303.557067 277.150776 
L 302.864516 256.13082 
L 302.171965 285.558758 
L 301.479413 290.813747 
L 300.786862 286.084257 
L 300.094311 284.507761 
L 299.40176 292.390244 
L 298.709208 279.778271 
L 298.016657 280.829268 
L 297.324106 271.895787 
L 296.631554 276.625277 
L 295.939003 276.099778 
L 295.246452 253.503326 
L 294.5539 275.574279 
L 293.861349 287.135255 
L 293.168798 265.5898 
L 292.476246 268.217295 
L 291.783695 213.039911 
L 291.091144 143.674058 
L 290.398592 189.392461 
L 289.706041 180.45898 
L 289.01349 292.915743 
L 288.320938 268.742794 
L 287.628387 268.217295 
L 286.935836 291.339246 
L 286.243284 291.339246 
L 285.550733 286.084257 
L 284.858182 270.31929 
L 284.16563 259.283814 
L 283.473079 261.385809 
L 282.780528 291.339246 
L 282.087977 291.864745 
L 281.395425 285.033259 
L 280.702874 251.926829 
L 280.010323 290.813747 
L 279.317771 287.660754 
L 278.62522 241.416851 
L 277.932669 261.385809 
L 277.240117 279.778271 
L 276.547566 284.507761 
L 275.855015 280.829268 
L 275.162463 267.691796 
L 274.469912 287.660754 
L 273.777361 271.895787 
L 273.084809 278.727273 
L 272.392258 285.033259 
L 271.699707 285.558758 
L 271.007155 284.507761 
L 270.314604 281.880266 
L 269.622053 222.498891 
L 268.929501 258.232816 
L 268.23695 262.436807 
L 267.544399 282.931264 
L 266.851848 278.201774 
L 266.159296 267.691796 
L 265.466745 279.778271 
L 264.774194 242.993348 
L 264.081642 264.013304 
L 263.389091 277.676275 
L 262.69654 267.166297 
L 262.003988 275.574279 
L 261.311437 280.303769 
L 260.618886 207.784922 
L 259.926334 270.31929 
L 259.233783 278.201774 
L 258.541232 272.421286 
L 257.84868 273.997783 
L 257.156129 268.742794 
L 256.463578 265.5898 
L 255.771026 250.875831 
L 255.078475 224.600887 
L 254.385924 224.600887 
L 253.693372 235.110865 
L 253.000821 276.099778 
L 252.30827 270.31929 
L 251.615718 234.059867 
L 250.923167 186.764967 
L 250.230616 176.780488 
L 249.538065 226.702882 
L 248.845513 267.166297 
L 248.152962 270.844789 
L 247.460411 285.558758 
L 246.767859 229.330377 
L 246.075308 279.778271 
L 245.382757 279.252772 
L 244.690205 252.977827 
L 243.997654 269.793792 
L 243.305103 196.749446 
L 242.612551 222.498891 
L 241.92 209.361419 
L 241.227449 235.636364 
L 240.534897 254.554324 
L 239.842346 267.691796 
L 239.149795 267.166297 
L 238.457243 277.676275 
L 237.764692 276.099778 
L 237.072141 244.044346 
L 236.379589 195.172949 
L 234.994487 277.150776 
L 234.301935 264.538803 
L 233.609384 247.722838 
L 232.916833 240.891353 
L 232.224282 261.911308 
L 231.53173 268.217295 
L 230.839179 242.467849 
L 230.146628 268.217295 
L 229.454076 247.197339 
L 228.761525 251.926829 
L 228.068974 230.906874 
L 227.376422 233.008869 
L 226.683871 246.67184 
L 225.99132 239.840355 
L 225.298768 203.055432 
L 224.606217 83.241685 
L 223.913666 167.321508 
L 223.221114 166.796009 
L 222.528563 161.54102 
L 221.836012 150.505543 
L 221.14346 260.86031 
L 220.450909 213.56541 
L 219.758358 257.181818 
L 219.065806 272.421286 
L 218.373255 269.268293 
L 217.680704 276.625277 
L 216.988152 268.217295 
L 216.295601 280.829268 
L 215.60305 237.21286 
L 214.910499 267.691796 
L 214.217947 270.31929 
L 213.525396 283.982262 
L 212.832845 227.228381 
L 212.140293 211.988914 
L 211.447742 266.640798 
L 210.755191 191.494457 
L 210.062639 197.800443 
L 209.370088 184.137472 
L 208.677537 199.902439 
L 207.984985 214.090909 
L 207.292434 199.37694 
L 206.599883 157.337029 
L 205.907331 220.396896 
L 205.21478 256.656319 
L 204.522229 280.303769 
L 203.829677 261.911308 
L 203.137126 277.676275 
L 202.444575 262.436807 
L 201.752023 276.625277 
L 201.059472 277.150776 
L 200.366921 267.166297 
L 199.67437 265.5898 
L 198.981818 269.268293 
L 198.289267 239.840355 
L 197.596716 261.385809 
L 196.904164 261.911308 
L 196.211613 255.605322 
L 195.519062 275.04878 
L 194.82651 279.778271 
L 194.133959 265.5898 
L 193.441408 235.110865 
L 192.748856 190.968958 
L 192.056305 242.993348 
L 191.363754 178.356984 
L 190.671202 180.45898 
L 189.978651 269.793792 
L 189.2861 287.135255 
L 188.593548 142.097561 
L 187.900997 124.230599 
L 187.208446 223.02439 
L 186.515894 249.299335 
L 185.823343 277.676275 
L 185.130792 287.660754 
L 184.43824 279.778271 
L 183.745689 202.529933 
L 183.053138 277.150776 
L 182.360587 257.181818 
L 181.668035 265.064302 
L 180.975484 282.931264 
L 180.282933 279.778271 
L 179.590381 278.201774 
L 178.89783 258.758315 
L 178.205279 241.94235 
L 177.512727 285.033259 
L 176.820176 285.558758 
L 176.127625 255.605322 
L 175.435073 192.545455 
L 174.742522 209.361419 
L 173.357419 268.742794 
L 172.664868 237.21286 
L 171.972317 224.075388 
L 171.279765 282.931264 
L 170.587214 271.370288 
L 169.894663 287.135255 
L 169.202111 253.503326 
L 168.50956 292.390244 
L 167.817009 285.558758 
L 167.124457 280.303769 
L 166.431906 282.405765 
L 165.739355 286.084257 
L 165.046804 272.421286 
L 164.354252 282.405765 
L 163.661701 277.676275 
L 162.96915 256.13082 
L 162.276598 286.084257 
L 161.584047 279.252772 
L 160.891496 236.687361 
L 160.198944 232.48337 
L 159.506393 286.609756 
L 158.813842 255.605322 
L 158.12129 254.028825 
L 157.428739 234.585366 
L 156.736188 255.079823 
L 156.043636 282.931264 
L 155.351085 286.084257 
L 154.658534 286.609756 
L 153.965982 266.640798 
L 153.273431 288.186253 
L 152.58088 194.121951 
L 151.888328 41.727273 
L 151.195777 128.43459 
L 150.503226 74.308204 
L 149.810674 84.818182 
L 149.118123 160.490022 
L 148.425572 115.822616 
L 147.733021 244.044346 
L 147.040469 271.895787 
L 146.347918 293.441242 
L 145.655367 229.330377 
L 144.962815 192.019956 
L 144.270264 189.392461 
L 143.577713 194.121951 
L 142.885161 185.713969 
L 142.19261 210.937916 
L 141.500059 211.463415 
L 140.807507 210.937916 
L 140.114956 240.891353 
L 139.422405 288.186253 
L 138.729853 279.252772 
L 138.037302 286.084257 
L 137.344751 276.625277 
L 136.652199 270.844789 
L 135.959648 269.268293 
L 135.267097 250.350333 
L 134.574545 282.405765 
L 133.881994 280.829268 
L 133.189443 255.079823 
L 132.496891 271.370288 
L 131.80434 257.181818 
L 131.111789 242.993348 
L 130.419238 269.793792 
L 129.726686 236.161863 
L 129.034135 261.911308 
L 128.341584 159.439024 
L 127.649032 96.379157 
L 126.956481 186.764967 
L 126.26393 187.290466 
L 125.571378 190.968958 
L 124.878827 196.223947 
L 124.186276 166.27051 
L 123.493724 190.968958 
L 122.801173 169.423503 
L 122.108622 183.086475 
L 121.41607 182.560976 
L 120.723519 192.545455 
L 120.030968 182.560976 
L 119.338416 228.804878 
L 118.645865 278.201774 
L 117.953314 194.121951 
L 117.260762 189.91796 
L 116.568211 177.831486 
L 115.87566 179.407982 
L 115.183109 203.055432 
L 114.490557 204.631929 
L 113.798006 128.960089 
L 113.105455 155.235033 
L 112.412903 66.95122 
L 111.720352 100.583149 
L 111.027801 119.501109 
L 110.335249 143.674058 
L 109.642698 203.055432 
L 108.950147 200.953437 
L 108.257595 209.886918 
L 107.565044 265.064302 
L 106.872493 283.982262 
L 106.179941 283.456763 
L 105.48739 188.866962 
L 104.794839 115.822616 
L 104.102287 139.995565 
L 103.409736 140.521064 
L 102.717185 197.274945 
L 102.024633 205.157428 
L 101.332082 204.631929 
L 100.639531 140.521064 
L 99.946979 208.310421 
L 99.254428 265.5898 
L 98.561877 238.263858 
L 97.869326 255.605322 
L 97.176774 285.558758 
L 95.09912 284.507761 
L 94.406569 197.274945 
L 93.714018 228.804878 
L 93.021466 262.962306 
L 92.328915 280.303769 
L 91.636364 275.04878 
z
" style="fill:#ffa07a;fill-opacity:0.3;"/>
   </g>
   <g id="matplotlib.axis_1">
    <g id="xtick_1">
     <g id="line2d_1">
      <path clip-path="url(#peb47ce98ff)" d="M 91.636364 313.2 
L 91.636364 28.8 
" style="fill:none;stroke:#808080;stroke-dasharray:6.4,1.6,1,1.6;stroke-dashoffset:0;stroke-opacity:0.3;"/>
     </g>
     <g id="line2d_2">
      <defs>
       <path d="M 0 0 
L 0 3.5 
" id="m818bf7659f" style="stroke:#000000;stroke-width:0.8;"/>
      </defs>
      <g>
       <use style="stroke:#000000;stroke-width:0.8;" x="91.636364" xlink:href="#m818bf7659f" y="313.2"/>
      </g>
     </g>
     <g id="text_1">
      <!-- 2020-11-20 -->
      <g transform="translate(62.578551 327.798437)scale(0.1 -0.1)">
       <defs>
        <path d="M 19.1875 8.296875 
L 53.609375 8.296875 
L 53.609375 0 
L 7.328125 0 
L 7.328125 8.296875 
Q 12.9375 14.109375 22.625 23.890625 
Q 32.328125 33.6875 34.8125 36.53125 
Q 39.546875 41.84375 41.421875 45.53125 
Q 43.3125 49.21875 43.3125 52.78125 
Q 43.3125 58.59375 39.234375 62.25 
Q 35.15625 65.921875 28.609375 65.921875 
Q 23.96875 65.921875 18.8125 64.3125 
Q 13.671875 62.703125 7.8125 59.421875 
L 7.8125 69.390625 
Q 13.765625 71.78125 18.9375 73 
Q 24.125 74.21875 28.421875 74.21875 
Q 39.75 74.21875 46.484375 68.546875 
Q 53.21875 62.890625 53.21875 53.421875 
Q 53.21875 48.921875 51.53125 44.890625 
Q 49.859375 40.875 45.40625 35.40625 
Q 44.1875 33.984375 37.640625 27.21875 
Q 31.109375 20.453125 19.1875 8.296875 
z
" id="DejaVuSans-50"/>
        <path d="M 31.78125 66.40625 
Q 24.171875 66.40625 20.328125 58.90625 
Q 16.5 51.421875 16.5 36.375 
Q 16.5 21.390625 20.328125 13.890625 
Q 24.171875 6.390625 31.78125 6.390625 
Q 39.453125 6.390625 43.28125 13.890625 
Q 47.125 21.390625 47.125 36.375 
Q 47.125 51.421875 43.28125 58.90625 
Q 39.453125 66.40625 31.78125 66.40625 
z
M 31.78125 74.21875 
Q 44.046875 74.21875 50.515625 64.515625 
Q 56.984375 54.828125 56.984375 36.375 
Q 56.984375 17.96875 50.515625 8.265625 
Q 44.046875 -1.421875 31.78125 -1.421875 
Q 19.53125 -1.421875 13.0625 8.265625 
Q 6.59375 17.96875 6.59375 36.375 
Q 6.59375 54.828125 13.0625 64.515625 
Q 19.53125 74.21875 31.78125 74.21875 
z
" id="DejaVuSans-48"/>
        <path d="M 4.890625 31.390625 
L 31.203125 31.390625 
L 31.203125 23.390625 
L 4.890625 23.390625 
z
" id="DejaVuSans-45"/>
        <path d="M 12.40625 8.296875 
L 28.515625 8.296875 
L 28.515625 63.921875 
L 10.984375 60.40625 
L 10.984375 69.390625 
L 28.421875 72.90625 
L 38.28125 72.90625 
L 38.28125 8.296875 
L 54.390625 8.296875 
L 54.390625 0 
L 12.40625 0 
z
" id="DejaVuSans-49"/>
       </defs>
       <use xlink:href="#DejaVuSans-50"/>
       <use x="63.623047" xlink:href="#DejaVuSans-48"/>
       <use x="127.246094" xlink:href="#DejaVuSans-50"/>
       <use x="190.869141" xlink:href="#DejaVuSans-48"/>
       <use x="254.492188" xlink:href="#DejaVuSans-45"/>
       <use x="290.576172" xlink:href="#DejaVuSans-49"/>
       <use x="354.199219" xlink:href="#DejaVuSans-49"/>
       <use x="417.822266" xlink:href="#DejaVuSans-45"/>
       <use x="453.90625" xlink:href="#DejaVuSans-50"/>
       <use x="517.529297" xlink:href="#DejaVuSans-48"/>
      </g>
     </g>
    </g>
    <g id="xtick_2">
     <g id="line2d_3">
      <path clip-path="url(#peb47ce98ff)" d="M 167.817009 313.2 
L 167.817009 28.8 
" style="fill:none;stroke:#808080;stroke-dasharray:6.4,1.6,1,1.6;stroke-dashoffset:0;stroke-opacity:0.3;"/>
     </g>
     <g id="line2d_4">
      <g>
       <use style="stroke:#000000;stroke-width:0.8;" x="167.817009" xlink:href="#m818bf7659f" y="313.2"/>
      </g>
     </g>
     <g id="text_2">
      <!-- 2021-03-10 -->
      <g transform="translate(138.759196 327.798437)scale(0.1 -0.1)">
       <defs>
        <path d="M 40.578125 39.3125 
Q 47.65625 37.796875 51.625 33 
Q 55.609375 28.21875 55.609375 21.1875 
Q 55.609375 10.40625 48.1875 4.484375 
Q 40.765625 -1.421875 27.09375 -1.421875 
Q 22.515625 -1.421875 17.65625 -0.515625 
Q 12.796875 0.390625 7.625 2.203125 
L 7.625 11.71875 
Q 11.71875 9.328125 16.59375 8.109375 
Q 21.484375 6.890625 26.8125 6.890625 
Q 36.078125 6.890625 40.9375 10.546875 
Q 45.796875 14.203125 45.796875 21.1875 
Q 45.796875 27.640625 41.28125 31.265625 
Q 36.765625 34.90625 28.71875 34.90625 
L 20.21875 34.90625 
L 20.21875 43.015625 
L 29.109375 43.015625 
Q 36.375 43.015625 40.234375 45.921875 
Q 44.09375 48.828125 44.09375 54.296875 
Q 44.09375 59.90625 40.109375 62.90625 
Q 36.140625 65.921875 28.71875 65.921875 
Q 24.65625 65.921875 20.015625 65.03125 
Q 15.375 64.15625 9.8125 62.3125 
L 9.8125 71.09375 
Q 15.4375 72.65625 20.34375 73.4375 
Q 25.25 74.21875 29.59375 74.21875 
Q 40.828125 74.21875 47.359375 69.109375 
Q 53.90625 64.015625 53.90625 55.328125 
Q 53.90625 49.265625 50.4375 45.09375 
Q 46.96875 40.921875 40.578125 39.3125 
z
" id="DejaVuSans-51"/>
       </defs>
       <use xlink:href="#DejaVuSans-50"/>
       <use x="63.623047" xlink:href="#DejaVuSans-48"/>
       <use x="127.246094" xlink:href="#DejaVuSans-50"/>
       <use x="190.869141" xlink:href="#DejaVuSans-49"/>
       <use x="254.492188" xlink:href="#DejaVuSans-45"/>
       <use x="290.576172" xlink:href="#DejaVuSans-48"/>
       <use x="354.199219" xlink:href="#DejaVuSans-51"/>
       <use x="417.822266" xlink:href="#DejaVuSans-45"/>
       <use x="453.90625" xlink:href="#DejaVuSans-49"/>
       <use x="517.529297" xlink:href="#DejaVuSans-48"/>
      </g>
     </g>
    </g>
    <g id="xtick_3">
     <g id="line2d_5">
      <path clip-path="url(#peb47ce98ff)" d="M 244.690205 313.2 
L 244.690205 28.8 
" style="fill:none;stroke:#808080;stroke-dasharray:6.4,1.6,1,1.6;stroke-dashoffset:0;stroke-opacity:0.3;"/>
     </g>
     <g id="line2d_6">
      <g>
       <use style="stroke:#000000;stroke-width:0.8;" x="244.690205" xlink:href="#m818bf7659f" y="313.2"/>
      </g>
     </g>
     <g id="text_3">
      <!-- 2021-06-29 -->
      <g transform="translate(215.632393 327.798437)scale(0.1 -0.1)">
       <defs>
        <path d="M 33.015625 40.375 
Q 26.375 40.375 22.484375 35.828125 
Q 18.609375 31.296875 18.609375 23.390625 
Q 18.609375 15.53125 22.484375 10.953125 
Q 26.375 6.390625 33.015625 6.390625 
Q 39.65625 6.390625 43.53125 10.953125 
Q 47.40625 15.53125 47.40625 23.390625 
Q 47.40625 31.296875 43.53125 35.828125 
Q 39.65625 40.375 33.015625 40.375 
z
M 52.59375 71.296875 
L 52.59375 62.3125 
Q 48.875 64.0625 45.09375 64.984375 
Q 41.3125 65.921875 37.59375 65.921875 
Q 27.828125 65.921875 22.671875 59.328125 
Q 17.53125 52.734375 16.796875 39.40625 
Q 19.671875 43.65625 24.015625 45.921875 
Q 28.375 48.1875 33.59375 48.1875 
Q 44.578125 48.1875 50.953125 41.515625 
Q 57.328125 34.859375 57.328125 23.390625 
Q 57.328125 12.15625 50.6875 5.359375 
Q 44.046875 -1.421875 33.015625 -1.421875 
Q 20.359375 -1.421875 13.671875 8.265625 
Q 6.984375 17.96875 6.984375 36.375 
Q 6.984375 53.65625 15.1875 63.9375 
Q 23.390625 74.21875 37.203125 74.21875 
Q 40.921875 74.21875 44.703125 73.484375 
Q 48.484375 72.75 52.59375 71.296875 
z
" id="DejaVuSans-54"/>
        <path d="M 10.984375 1.515625 
L 10.984375 10.5 
Q 14.703125 8.734375 18.5 7.8125 
Q 22.3125 6.890625 25.984375 6.890625 
Q 35.75 6.890625 40.890625 13.453125 
Q 46.046875 20.015625 46.78125 33.40625 
Q 43.953125 29.203125 39.59375 26.953125 
Q 35.25 24.703125 29.984375 24.703125 
Q 19.046875 24.703125 12.671875 31.3125 
Q 6.296875 37.9375 6.296875 49.421875 
Q 6.296875 60.640625 12.9375 67.421875 
Q 19.578125 74.21875 30.609375 74.21875 
Q 43.265625 74.21875 49.921875 64.515625 
Q 56.59375 54.828125 56.59375 36.375 
Q 56.59375 19.140625 48.40625 8.859375 
Q 40.234375 -1.421875 26.421875 -1.421875 
Q 22.703125 -1.421875 18.890625 -0.6875 
Q 15.09375 0.046875 10.984375 1.515625 
z
M 30.609375 32.421875 
Q 37.25 32.421875 41.125 36.953125 
Q 45.015625 41.5 45.015625 49.421875 
Q 45.015625 57.28125 41.125 61.84375 
Q 37.25 66.40625 30.609375 66.40625 
Q 23.96875 66.40625 20.09375 61.84375 
Q 16.21875 57.28125 16.21875 49.421875 
Q 16.21875 41.5 20.09375 36.953125 
Q 23.96875 32.421875 30.609375 32.421875 
z
" id="DejaVuSans-57"/>
       </defs>
       <use xlink:href="#DejaVuSans-50"/>
       <use x="63.623047" xlink:href="#DejaVuSans-48"/>
       <use x="127.246094" xlink:href="#DejaVuSans-50"/>
       <use x="190.869141" xlink:href="#DejaVuSans-49"/>
       <use x="254.492188" xlink:href="#DejaVuSans-45"/>
       <use x="290.576172" xlink:href="#DejaVuSans-48"/>
       <use x="354.199219" xlink:href="#DejaVuSans-54"/>
       <use x="417.822266" xlink:href="#DejaVuSans-45"/>
       <use x="453.90625" xlink:href="#DejaVuSans-50"/>
       <use x="517.529297" xlink:href="#DejaVuSans-57"/>
      </g>
     </g>
    </g>
    <g id="xtick_4">
     <g id="line2d_7">
      <path clip-path="url(#peb47ce98ff)" d="M 321.563402 313.2 
L 321.563402 28.8 
" style="fill:none;stroke:#808080;stroke-dasharray:6.4,1.6,1,1.6;stroke-dashoffset:0;stroke-opacity:0.3;"/>
     </g>
     <g id="line2d_8">
      <g>
       <use style="stroke:#000000;stroke-width:0.8;" x="321.563402" xlink:href="#m818bf7659f" y="313.2"/>
      </g>
     </g>
     <g id="text_4">
      <!-- 2021-10-18 -->
      <g transform="translate(292.505589 327.798437)scale(0.1 -0.1)">
       <defs>
        <path d="M 31.78125 34.625 
Q 24.75 34.625 20.71875 30.859375 
Q 16.703125 27.09375 16.703125 20.515625 
Q 16.703125 13.921875 20.71875 10.15625 
Q 24.75 6.390625 31.78125 6.390625 
Q 38.8125 6.390625 42.859375 10.171875 
Q 46.921875 13.96875 46.921875 20.515625 
Q 46.921875 27.09375 42.890625 30.859375 
Q 38.875 34.625 31.78125 34.625 
z
M 21.921875 38.8125 
Q 15.578125 40.375 12.03125 44.71875 
Q 8.5 49.078125 8.5 55.328125 
Q 8.5 64.0625 14.71875 69.140625 
Q 20.953125 74.21875 31.78125 74.21875 
Q 42.671875 74.21875 48.875 69.140625 
Q 55.078125 64.0625 55.078125 55.328125 
Q 55.078125 49.078125 51.53125 44.71875 
Q 48 40.375 41.703125 38.8125 
Q 48.828125 37.15625 52.796875 32.3125 
Q 56.78125 27.484375 56.78125 20.515625 
Q 56.78125 9.90625 50.3125 4.234375 
Q 43.84375 -1.421875 31.78125 -1.421875 
Q 19.734375 -1.421875 13.25 4.234375 
Q 6.78125 9.90625 6.78125 20.515625 
Q 6.78125 27.484375 10.78125 32.3125 
Q 14.796875 37.15625 21.921875 38.8125 
z
M 18.3125 54.390625 
Q 18.3125 48.734375 21.84375 45.5625 
Q 25.390625 42.390625 31.78125 42.390625 
Q 38.140625 42.390625 41.71875 45.5625 
Q 45.3125 48.734375 45.3125 54.390625 
Q 45.3125 60.0625 41.71875 63.234375 
Q 38.140625 66.40625 31.78125 66.40625 
Q 25.390625 66.40625 21.84375 63.234375 
Q 18.3125 60.0625 18.3125 54.390625 
z
" id="DejaVuSans-56"/>
       </defs>
       <use xlink:href="#DejaVuSans-50"/>
       <use x="63.623047" xlink:href="#DejaVuSans-48"/>
       <use x="127.246094" xlink:href="#DejaVuSans-50"/>
       <use x="190.869141" xlink:href="#DejaVuSans-49"/>
       <use x="254.492188" xlink:href="#DejaVuSans-45"/>
       <use x="290.576172" xlink:href="#DejaVuSans-49"/>
       <use x="354.199219" xlink:href="#DejaVuSans-48"/>
       <use x="417.822266" xlink:href="#DejaVuSans-45"/>
       <use x="453.90625" xlink:href="#DejaVuSans-49"/>
       <use x="517.529297" xlink:href="#DejaVuSans-56"/>
      </g>
     </g>
    </g>
    <g id="xtick_5">
     <g id="line2d_9">
      <path clip-path="url(#peb47ce98ff)" d="M 397.744047 313.2 
L 397.744047 28.8 
" style="fill:none;stroke:#808080;stroke-dasharray:6.4,1.6,1,1.6;stroke-dashoffset:0;stroke-opacity:0.3;"/>
     </g>
     <g id="line2d_10">
      <g>
       <use style="stroke:#000000;stroke-width:0.8;" x="397.744047" xlink:href="#m818bf7659f" y="313.2"/>
      </g>
     </g>
     <g id="text_5">
      <!-- 2022-02-05 -->
      <g transform="translate(368.686234 327.798437)scale(0.1 -0.1)">
       <defs>
        <path d="M 10.796875 72.90625 
L 49.515625 72.90625 
L 49.515625 64.59375 
L 19.828125 64.59375 
L 19.828125 46.734375 
Q 21.96875 47.46875 24.109375 47.828125 
Q 26.265625 48.1875 28.421875 48.1875 
Q 40.625 48.1875 47.75 41.5 
Q 54.890625 34.8125 54.890625 23.390625 
Q 54.890625 11.625 47.5625 5.09375 
Q 40.234375 -1.421875 26.90625 -1.421875 
Q 22.3125 -1.421875 17.546875 -0.640625 
Q 12.796875 0.140625 7.71875 1.703125 
L 7.71875 11.625 
Q 12.109375 9.234375 16.796875 8.0625 
Q 21.484375 6.890625 26.703125 6.890625 
Q 35.15625 6.890625 40.078125 11.328125 
Q 45.015625 15.765625 45.015625 23.390625 
Q 45.015625 31 40.078125 35.4375 
Q 35.15625 39.890625 26.703125 39.890625 
Q 22.75 39.890625 18.8125 39.015625 
Q 14.890625 38.140625 10.796875 36.28125 
z
" id="DejaVuSans-53"/>
       </defs>
       <use xlink:href="#DejaVuSans-50"/>
       <use x="63.623047" xlink:href="#DejaVuSans-48"/>
       <use x="127.246094" xlink:href="#DejaVuSans-50"/>
       <use x="190.869141" xlink:href="#DejaVuSans-50"/>
       <use x="254.492188" xlink:href="#DejaVuSans-45"/>
       <use x="290.576172" xlink:href="#DejaVuSans-48"/>
       <use x="354.199219" xlink:href="#DejaVuSans-50"/>
       <use x="417.822266" xlink:href="#DejaVuSans-45"/>
       <use x="453.90625" xlink:href="#DejaVuSans-48"/>
       <use x="517.529297" xlink:href="#DejaVuSans-53"/>
      </g>
     </g>
    </g>
    <g id="xtick_6">
     <g id="line2d_11">
      <path clip-path="url(#peb47ce98ff)" d="M 474.617243 313.2 
L 474.617243 28.8 
" style="fill:none;stroke:#808080;stroke-dasharray:6.4,1.6,1,1.6;stroke-dashoffset:0;stroke-opacity:0.3;"/>
     </g>
     <g id="line2d_12">
      <g>
       <use style="stroke:#000000;stroke-width:0.8;" x="474.617243" xlink:href="#m818bf7659f" y="313.2"/>
      </g>
     </g>
     <g id="text_6">
      <!-- 2022-05-27 -->
      <g transform="translate(445.559431 327.798437)scale(0.1 -0.1)">
       <defs>
        <path d="M 8.203125 72.90625 
L 55.078125 72.90625 
L 55.078125 68.703125 
L 28.609375 0 
L 18.3125 0 
L 43.21875 64.59375 
L 8.203125 64.59375 
z
" id="DejaVuSans-55"/>
       </defs>
       <use xlink:href="#DejaVuSans-50"/>
       <use x="63.623047" xlink:href="#DejaVuSans-48"/>
       <use x="127.246094" xlink:href="#DejaVuSans-50"/>
       <use x="190.869141" xlink:href="#DejaVuSans-50"/>
       <use x="254.492188" xlink:href="#DejaVuSans-45"/>
       <use x="290.576172" xlink:href="#DejaVuSans-48"/>
       <use x="354.199219" xlink:href="#DejaVuSans-53"/>
       <use x="417.822266" xlink:href="#DejaVuSans-45"/>
       <use x="453.90625" xlink:href="#DejaVuSans-50"/>
       <use x="517.529297" xlink:href="#DejaVuSans-55"/>
      </g>
     </g>
    </g>
    <g id="xtick_7">
     <g id="line2d_13">
      <path clip-path="url(#peb47ce98ff)" d="M 551.49044 313.2 
L 551.49044 28.8 
" style="fill:none;stroke:#808080;stroke-dasharray:6.4,1.6,1,1.6;stroke-dashoffset:0;stroke-opacity:0.3;"/>
     </g>
     <g id="line2d_14">
      <g>
       <use style="stroke:#000000;stroke-width:0.8;" x="551.49044" xlink:href="#m818bf7659f" y="313.2"/>
      </g>
     </g>
     <g id="text_7">
      <!-- 2022-09-15 -->
      <g transform="translate(522.432627 327.798437)scale(0.1 -0.1)">
       <use xlink:href="#DejaVuSans-50"/>
       <use x="63.623047" xlink:href="#DejaVuSans-48"/>
       <use x="127.246094" xlink:href="#DejaVuSans-50"/>
       <use x="190.869141" xlink:href="#DejaVuSans-50"/>
       <use x="254.492188" xlink:href="#DejaVuSans-45"/>
       <use x="290.576172" xlink:href="#DejaVuSans-48"/>
       <use x="354.199219" xlink:href="#DejaVuSans-57"/>
       <use x="417.822266" xlink:href="#DejaVuSans-45"/>
       <use x="453.90625" xlink:href="#DejaVuSans-49"/>
       <use x="517.529297" xlink:href="#DejaVuSans-53"/>
      </g>
     </g>
    </g>
    <g id="xtick_8">
     <g id="line2d_15">
      <path clip-path="url(#peb47ce98ff)" d="M 628.363636 313.2 
L 628.363636 28.8 
" style="fill:none;stroke:#808080;stroke-dasharray:6.4,1.6,1,1.6;stroke-dashoffset:0;stroke-opacity:0.3;"/>
     </g>
     <g id="line2d_16">
      <g>
       <use style="stroke:#000000;stroke-width:0.8;" x="628.363636" xlink:href="#m818bf7659f" y="313.2"/>
      </g>
     </g>
     <g id="text_8">
      <!-- 2023-01-04 -->
      <g transform="translate(599.305824 327.798437)scale(0.1 -0.1)">
       <defs>
        <path d="M 37.796875 64.3125 
L 12.890625 25.390625 
L 37.796875 25.390625 
z
M 35.203125 72.90625 
L 47.609375 72.90625 
L 47.609375 25.390625 
L 58.015625 25.390625 
L 58.015625 17.1875 
L 47.609375 17.1875 
L 47.609375 0 
L 37.796875 0 
L 37.796875 17.1875 
L 4.890625 17.1875 
L 4.890625 26.703125 
z
" id="DejaVuSans-52"/>
       </defs>
       <use xlink:href="#DejaVuSans-50"/>
       <use x="63.623047" xlink:href="#DejaVuSans-48"/>
       <use x="127.246094" xlink:href="#DejaVuSans-50"/>
       <use x="190.869141" xlink:href="#DejaVuSans-51"/>
       <use x="254.492188" xlink:href="#DejaVuSans-45"/>
       <use x="290.576172" xlink:href="#DejaVuSans-48"/>
       <use x="354.199219" xlink:href="#DejaVuSans-49"/>
       <use x="417.822266" xlink:href="#DejaVuSans-45"/>
       <use x="453.90625" xlink:href="#DejaVuSans-48"/>
       <use x="517.529297" xlink:href="#DejaVuSans-52"/>
      </g>
     </g>
    </g>
    <g id="text_9">
     <!-- Datum -->
     <g transform="translate(343.086719 341.476562)scale(0.1 -0.1)">
      <defs>
       <path d="M 19.671875 64.796875 
L 19.671875 8.109375 
L 31.59375 8.109375 
Q 46.6875 8.109375 53.6875 14.9375 
Q 60.6875 21.78125 60.6875 36.53125 
Q 60.6875 51.171875 53.6875 57.984375 
Q 46.6875 64.796875 31.59375 64.796875 
z
M 9.8125 72.90625 
L 30.078125 72.90625 
Q 51.265625 72.90625 61.171875 64.09375 
Q 71.09375 55.28125 71.09375 36.53125 
Q 71.09375 17.671875 61.125 8.828125 
Q 51.171875 0 30.078125 0 
L 9.8125 0 
z
" id="DejaVuSans-68"/>
       <path d="M 34.28125 27.484375 
Q 23.390625 27.484375 19.1875 25 
Q 14.984375 22.515625 14.984375 16.5 
Q 14.984375 11.71875 18.140625 8.90625 
Q 21.296875 6.109375 26.703125 6.109375 
Q 34.1875 6.109375 38.703125 11.40625 
Q 43.21875 16.703125 43.21875 25.484375 
L 43.21875 27.484375 
z
M 52.203125 31.203125 
L 52.203125 0 
L 43.21875 0 
L 43.21875 8.296875 
Q 40.140625 3.328125 35.546875 0.953125 
Q 30.953125 -1.421875 24.3125 -1.421875 
Q 15.921875 -1.421875 10.953125 3.296875 
Q 6 8.015625 6 15.921875 
Q 6 25.140625 12.171875 29.828125 
Q 18.359375 34.515625 30.609375 34.515625 
L 43.21875 34.515625 
L 43.21875 35.40625 
Q 43.21875 41.609375 39.140625 45 
Q 35.0625 48.390625 27.6875 48.390625 
Q 23 48.390625 18.546875 47.265625 
Q 14.109375 46.140625 10.015625 43.890625 
L 10.015625 52.203125 
Q 14.9375 54.109375 19.578125 55.046875 
Q 24.21875 56 28.609375 56 
Q 40.484375 56 46.34375 49.84375 
Q 52.203125 43.703125 52.203125 31.203125 
z
" id="DejaVuSans-97"/>
       <path d="M 18.3125 70.21875 
L 18.3125 54.6875 
L 36.8125 54.6875 
L 36.8125 47.703125 
L 18.3125 47.703125 
L 18.3125 18.015625 
Q 18.3125 11.328125 20.140625 9.421875 
Q 21.96875 7.515625 27.59375 7.515625 
L 36.8125 7.515625 
L 36.8125 0 
L 27.59375 0 
Q 17.1875 0 13.234375 3.875 
Q 9.28125 7.765625 9.28125 18.015625 
L 9.28125 47.703125 
L 2.6875 47.703125 
L 2.6875 54.6875 
L 9.28125 54.6875 
L 9.28125 70.21875 
z
" id="DejaVuSans-116"/>
       <path d="M 8.5 21.578125 
L 8.5 54.6875 
L 17.484375 54.6875 
L 17.484375 21.921875 
Q 17.484375 14.15625 20.5 10.265625 
Q 23.53125 6.390625 29.59375 6.390625 
Q 36.859375 6.390625 41.078125 11.03125 
Q 45.3125 15.671875 45.3125 23.6875 
L 45.3125 54.6875 
L 54.296875 54.6875 
L 54.296875 0 
L 45.3125 0 
L 45.3125 8.40625 
Q 42.046875 3.421875 37.71875 1 
Q 33.40625 -1.421875 27.6875 -1.421875 
Q 18.265625 -1.421875 13.375 4.4375 
Q 8.5 10.296875 8.5 21.578125 
z
M 31.109375 56 
z
" id="DejaVuSans-117"/>
       <path d="M 52 44.1875 
Q 55.375 50.25 60.0625 53.125 
Q 64.75 56 71.09375 56 
Q 79.640625 56 84.28125 50.015625 
Q 88.921875 44.046875 88.921875 33.015625 
L 88.921875 0 
L 79.890625 0 
L 79.890625 32.71875 
Q 79.890625 40.578125 77.09375 44.375 
Q 74.3125 48.1875 68.609375 48.1875 
Q 61.625 48.1875 57.5625 43.546875 
Q 53.515625 38.921875 53.515625 30.90625 
L 53.515625 0 
L 44.484375 0 
L 44.484375 32.71875 
Q 44.484375 40.625 41.703125 44.40625 
Q 38.921875 48.1875 33.109375 48.1875 
Q 26.21875 48.1875 22.15625 43.53125 
Q 18.109375 38.875 18.109375 30.90625 
L 18.109375 0 
L 9.078125 0 
L 9.078125 54.6875 
L 18.109375 54.6875 
L 18.109375 46.1875 
Q 21.1875 51.21875 25.484375 53.609375 
Q 29.78125 56 35.6875 56 
Q 41.65625 56 45.828125 52.96875 
Q 50 49.953125 52 44.1875 
z
" id="DejaVuSans-109"/>
      </defs>
      <use xlink:href="#DejaVuSans-68"/>
      <use x="77.001953" xlink:href="#DejaVuSans-97"/>
      <use x="138.28125" xlink:href="#DejaVuSans-116"/>
      <use x="177.490234" xlink:href="#DejaVuSans-117"/>
      <use x="240.869141" xlink:href="#DejaVuSans-109"/>
     </g>
    </g>
   </g>
   <g id="matplotlib.axis_2">
    <g id="ytick_1">
     <g id="line2d_17">
      <path clip-path="url(#peb47ce98ff)" d="M 64.8 300.272727 
L 655.2 300.272727 
" style="fill:none;stroke:#808080;stroke-dasharray:6.4,1.6,1,1.6;stroke-dashoffset:0;stroke-opacity:0.3;"/>
     </g>
     <g id="line2d_18">
      <defs>
       <path d="M 0 0 
L -3.5 0 
" id="m25baa1dee3" style="stroke:#000000;stroke-width:0.8;"/>
      </defs>
      <g>
       <use style="stroke:#000000;stroke-width:0.8;" x="64.8" xlink:href="#m25baa1dee3" y="300.272727"/>
      </g>
     </g>
     <g id="text_10">
      <!-- 0 -->
      <g transform="translate(51.4375 304.071946)scale(0.1 -0.1)">
       <use xlink:href="#DejaVuSans-48"/>
      </g>
     </g>
    </g>
    <g id="ytick_2">
     <g id="line2d_19">
      <path clip-path="url(#peb47ce98ff)" d="M 64.8 237.21286 
L 655.2 237.21286 
" style="fill:none;stroke:#808080;stroke-dasharray:6.4,1.6,1,1.6;stroke-dashoffset:0;stroke-opacity:0.3;"/>
     </g>
     <g id="line2d_20">
      <g>
       <use style="stroke:#000000;stroke-width:0.8;" x="64.8" xlink:href="#m25baa1dee3" y="237.21286"/>
      </g>
     </g>
     <g id="text_11">
      <!-- 5 -->
      <g transform="translate(51.4375 241.012079)scale(0.1 -0.1)">
       <use xlink:href="#DejaVuSans-53"/>
      </g>
     </g>
    </g>
    <g id="ytick_3">
     <g id="line2d_21">
      <path clip-path="url(#peb47ce98ff)" d="M 64.8 174.152993 
L 655.2 174.152993 
" style="fill:none;stroke:#808080;stroke-dasharray:6.4,1.6,1,1.6;stroke-dashoffset:0;stroke-opacity:0.3;"/>
     </g>
     <g id="line2d_22">
      <g>
       <use style="stroke:#000000;stroke-width:0.8;" x="64.8" xlink:href="#m25baa1dee3" y="174.152993"/>
      </g>
     </g>
     <g id="text_12">
      <!-- 10 -->
      <g transform="translate(45.075 177.952212)scale(0.1 -0.1)">
       <use xlink:href="#DejaVuSans-49"/>
       <use x="63.623047" xlink:href="#DejaVuSans-48"/>
      </g>
     </g>
    </g>
    <g id="ytick_4">
     <g id="line2d_23">
      <path clip-path="url(#peb47ce98ff)" d="M 64.8 111.093126 
L 655.2 111.093126 
" style="fill:none;stroke:#808080;stroke-dasharray:6.4,1.6,1,1.6;stroke-dashoffset:0;stroke-opacity:0.3;"/>
     </g>
     <g id="line2d_24">
      <g>
       <use style="stroke:#000000;stroke-width:0.8;" x="64.8" xlink:href="#m25baa1dee3" y="111.093126"/>
      </g>
     </g>
     <g id="text_13">
      <!-- 15 -->
      <g transform="translate(45.075 114.892345)scale(0.1 -0.1)">
       <use xlink:href="#DejaVuSans-49"/>
       <use x="63.623047" xlink:href="#DejaVuSans-53"/>
      </g>
     </g>
    </g>
    <g id="ytick_5">
     <g id="line2d_25">
      <path clip-path="url(#peb47ce98ff)" d="M 64.8 48.033259 
L 655.2 48.033259 
" style="fill:none;stroke:#808080;stroke-dasharray:6.4,1.6,1,1.6;stroke-dashoffset:0;stroke-opacity:0.3;"/>
     </g>
     <g id="line2d_26">
      <g>
       <use style="stroke:#000000;stroke-width:0.8;" x="64.8" xlink:href="#m25baa1dee3" y="48.033259"/>
      </g>
     </g>
     <g id="text_14">
      <!-- 20 -->
      <g transform="translate(45.075 51.832478)scale(0.1 -0.1)">
       <use xlink:href="#DejaVuSans-50"/>
       <use x="63.623047" xlink:href="#DejaVuSans-48"/>
      </g>
     </g>
    </g>
   </g>
   <g id="line2d_27">
    <path clip-path="url(#peb47ce98ff)" d="M 91.636364 280.090993 
L 95.09912 246.739249 
L 97.176774 240.0689 
L 98.561877 228.336238 
L 100.639531 214.491807 
L 104.102287 197.940369 
L 104.794839 195.418596 
L 105.48739 193.456527 
L 106.179941 192.153662 
L 106.872493 190.387489 
L 107.565044 187.834621 
L 109.642698 178.577756 
L 110.335249 175.639316 
L 111.027801 173.565305 
L 111.720352 172.371272 
L 112.412903 172.293536 
L 113.798006 174.451502 
L 115.87566 178.195293 
L 116.568211 180.275522 
L 118.645865 188.500046 
L 119.338416 189.753159 
L 121.41607 190.676669 
L 122.108622 190.658012 
L 122.801173 190.829032 
L 123.493724 191.279904 
L 124.186276 192.287369 
L 124.878827 194.037996 
L 125.571378 196.189743 
L 126.956481 201.808539 
L 127.649032 205.343996 
L 128.341584 210.987667 
L 130.419238 230.574161 
L 131.80434 242.228421 
L 132.496891 247.07918 
L 133.189443 251.099713 
L 133.881994 254.333552 
L 134.574545 256.503956 
L 135.267097 257.610924 
L 135.959648 257.984059 
L 136.652199 257.411918 
L 137.344751 255.561789 
L 138.729853 250.446726 
L 139.422405 247.312389 
L 140.807507 238.322938 
L 142.19261 227.46781 
L 144.270264 209.76254 
L 144.962815 205.057925 
L 146.347918 198.030544 
L 147.733021 191.450924 
L 148.425572 188.509374 
L 149.118123 187.290466 
L 149.810674 187.100789 
L 150.503226 188.667957 
L 151.195777 192.302917 
L 151.888328 197.041735 
L 154.658534 223.83285 
L 158.12129 252.132054 
L 158.813842 257.082315 
L 159.506393 261.199242 
L 160.198944 264.09415 
L 160.891496 266.497763 
L 161.584047 268.046275 
L 163.661701 270.90076 
L 165.046804 272.197405 
L 165.739355 272.505241 
L 166.431906 272.076136 
L 167.817009 270.210459 
L 168.50956 269.035083 
L 169.894663 265.925622 
L 171.972317 260.278841 
L 172.664868 258.873365 
L 173.357419 257.825477 
L 175.435073 256.323607 
L 176.127625 256.808683 
L 177.512727 258.397617 
L 178.205279 258.944883 
L 178.89783 259.678715 
L 179.590381 259.585431 
L 181.668035 256.957937 
L 182.360587 255.285047 
L 183.745689 250.518243 
L 184.43824 247.980923 
L 185.823343 241.025059 
L 187.208446 234.230887 
L 187.900997 231.320432 
L 188.593548 230.020677 
L 189.2861 230.232121 
L 190.671202 230.082866 
L 191.363754 231.049909 
L 192.056305 233.008869 
L 192.748856 235.372059 
L 194.133959 241.674937 
L 196.211613 252.017004 
L 196.904164 255.157559 
L 197.596716 257.237788 
L 198.981818 258.795628 
L 199.67437 259.271376 
L 200.366921 258.854708 
L 201.059472 257.421247 
L 201.752023 255.316142 
L 203.137126 248.947966 
L 206.599883 230.633241 
L 207.292434 228.500151 
L 207.984985 227.088456 
L 208.677537 226.323528 
L 209.370088 226.401265 
L 210.062639 227.474029 
L 210.755191 229.457865 
L 213.525396 241.053045 
L 214.217947 243.2732 
L 214.910499 244.799945 
L 215.60305 245.452932 
L 216.295601 244.722208 
L 216.988152 243.049318 
L 217.680704 240.888243 
L 218.373255 238.095947 
L 219.065806 234.585366 
L 222.528563 213.963421 
L 223.221114 211.967147 
L 223.913666 211.14625 
L 224.606217 211.354584 
L 225.298768 213.447251 
L 226.683871 219.669282 
L 228.068974 226.304871 
L 231.53173 246.084152 
L 232.224282 248.814259 
L 232.916833 250.670607 
L 233.609384 251.9828 
L 234.301935 252.020113 
L 236.379589 251.065509 
L 237.072141 251.208544 
L 237.764692 251.497724 
L 239.149795 250.88205 
L 240.534897 249.967869 
L 243.305103 247.259528 
L 245.382757 248.036894 
L 246.075308 247.502066 
L 246.767859 246.429302 
L 247.460411 245.760768 
L 249.538065 243.235886 
L 250.230616 242.847203 
L 250.923167 243.406906 
L 251.615718 244.59472 
L 252.30827 245.558653 
L 253.693372 246.693607 
L 254.385924 247.53627 
L 255.078475 249.016374 
L 259.233783 260.972251 
L 259.926334 262.12897 
L 260.618886 262.719768 
L 263.389091 265.934951 
L 264.081642 266.423136 
L 264.774194 266.765177 
L 267.544399 268.895157 
L 268.23695 269.361577 
L 269.622053 270.776381 
L 271.699707 273.142681 
L 273.777361 274.482859 
L 274.469912 274.852884 
L 275.855015 275.138955 
L 278.62522 275.390821 
L 279.317771 275.602265 
L 280.702874 275.707986 
L 281.395425 275.524528 
L 282.087977 274.775148 
L 282.780528 273.071163 
L 284.16563 268.702371 
L 286.935836 260.754589 
L 289.706041 250.729687 
L 290.398592 249.20916 
L 291.091144 248.86401 
L 291.783695 250.229064 
L 295.246452 261.653223 
L 298.709208 275.027014 
L 299.40176 276.951771 
L 300.094311 278.068067 
L 300.786862 278.061848 
L 301.479413 277.651399 
L 302.864516 276.382739 
L 304.94217 275.263333 
L 307.019824 274.000892 
L 307.712375 274.293181 
L 308.404927 274.423779 
L 309.097478 274.855994 
L 309.790029 275.913211 
L 310.482581 276.696795 
L 311.867683 277.502145 
L 313.252786 277.900156 
L 313.945337 278.096052 
L 314.637889 277.900156 
L 315.33044 277.582991 
L 316.022991 277.032617 
L 316.715543 276.336097 
L 317.408094 275.804379 
L 318.100645 274.896417 
L 318.793196 273.605991 
L 319.485748 272.794421 
L 320.178299 272.51457 
L 322.255953 270.679988 
L 324.333607 267.84416 
L 325.026158 266.360947 
L 325.71871 264.302484 
L 327.103812 258.21105 
L 327.796364 254.23094 
L 329.181466 244.361511 
L 330.566569 233.357129 
L 335.414428 189.448431 
L 336.106979 185.18847 
L 337.492082 179.324027 
L 338.184633 177.361957 
L 338.877185 176.024889 
L 339.569736 175.263071 
L 340.262287 175.427872 
L 340.954839 176.553497 
L 341.64739 179.13124 
L 343.032493 186.911111 
L 344.417595 197.349572 
L 346.495249 212.722746 
L 349.265455 228.904381 
L 349.958006 232.492699 
L 350.650557 235.235243 
L 352.03566 238.988362 
L 352.728211 240.219709 
L 353.420762 240.605282 
L 354.113314 241.121453 
L 354.805865 242.212873 
L 355.498416 243.761385 
L 356.883519 249.199832 
L 357.57607 250.204188 
L 358.268622 250.197969 
L 358.961173 249.532544 
L 360.346276 247.626445 
L 361.731378 245.334772 
L 362.42393 244.436138 
L 363.116481 243.220339 
L 363.809032 241.438618 
L 364.501584 239.23401 
L 365.194135 236.472809 
L 365.886686 234.321062 
L 366.579238 234.224668 
L 367.271789 235.297432 
L 368.656891 239.159383 
L 369.349443 240.244585 
L 370.041994 240.670581 
L 370.734545 240.760755 
L 371.427097 240.574188 
L 372.119648 240.197943 
L 372.812199 239.563613 
L 373.504751 237.666842 
L 374.197302 234.977158 
L 374.889853 231.631378 
L 375.582405 227.508233 
L 383.893021 222.999515 
L 385.278123 213.929217 
L 385.970674 210.172988 
L 387.355777 204.678571 
L 388.74088 200.051693 
L 390.125982 198.139375 
L 390.818534 198.332161 
L 392.203636 200.885029 
L 393.588739 204.031803 
L 394.28129 205.689146 
L 394.973842 207.057309 
L 399.821701 224.106483 
L 401.206804 227.934229 
L 401.899355 229.902518 
L 404.66956 235.891339 
L 406.054663 238.506396 
L 406.747214 239.103413 
L 407.439765 239.451672 
L 408.132317 240.829163 
L 408.824868 241.513245 
L 409.517419 241.650061 
L 410.209971 241.401304 
L 410.902522 241.494588 
L 412.287625 242.184888 
L 412.980176 242.359018 
L 413.672727 241.961007 
L 414.365279 241.360881 
L 415.05783 240.922447 
L 416.442933 241.883271 
L 418.520587 241.970335 
L 419.213138 242.962254 
L 420.59824 246.737139 
L 421.290792 247.996471 
L 423.368446 252.50208 
L 424.060997 254.656936 
L 425.4461 259.398864 
L 427.523754 264.890172 
L 428.216305 266.003359 
L 428.908856 266.684331 
L 429.601408 267.184954 
L 430.98651 268.742794 
L 431.679062 269.554363 
L 432.371613 270.008344 
L 433.064164 270.123394 
L 433.756716 269.852871 
L 434.449267 269.971031 
L 435.141818 269.871528 
L 435.83437 269.299387 
L 437.912023 268.24839 
L 438.604575 268.354111 
L 439.297126 268.693042 
L 439.989677 269.159462 
L 440.682229 269.949265 
L 444.144985 275.80127 
L 445.530088 279.541951 
L 446.915191 283.606017 
L 447.607742 285.254031 
L 448.992845 287.722943 
L 449.685396 288.518965 
L 451.070499 289.507774 
L 453.148152 291.081161 
L 453.840704 291.249072 
L 454.533255 291.183773 
L 455.918358 290.826185 
L 456.610909 290.397079 
L 457.996012 288.323069 
L 459.381114 285.341096 
L 460.766217 281.267702 
L 463.536422 271.211706 
L 465.614076 261.696755 
L 466.999179 258.167517 
L 467.69173 257.244007 
L 468.384282 257.153833 
L 469.076833 257.645128 
L 469.769384 258.761424 
L 471.154487 261.559939 
L 471.847038 262.604718 
L 472.539589 264.013304 
L 473.232141 266.255225 
L 474.617243 272.489694 
L 475.309795 274.93373 
L 476.002346 276.60662 
L 476.694897 277.306249 
L 477.387449 277.471051 
L 478.08 276.945552 
L 478.772551 275.521419 
L 479.465103 273.761464 
L 480.157654 272.477256 
L 480.850205 271.718548 
L 481.542757 270.754615 
L 482.235308 269.560582 
L 484.312962 264.181215 
L 485.005513 263.655716 
L 485.698065 263.898254 
L 486.390616 263.742781 
L 487.083167 264.255842 
L 487.775718 265.863433 
L 489.160821 269.411328 
L 489.853372 270.555609 
L 491.238475 271.964195 
L 492.623578 273.444299 
L 493.316129 273.888952 
L 494.00868 273.195542 
L 494.701232 272.020166 
L 495.393783 271.267676 
L 496.086334 270.285086 
L 498.85654 264.678728 
L 501.626745 263.758328 
L 502.319296 264.025742 
L 503.011848 265.337934 
L 507.167155 278.826775 
L 507.859707 280.683124 
L 511.322463 287.931277 
L 512.015015 288.83613 
L 512.707566 289.175061 
L 513.400117 289.330534 
L 519.633079 294.83739 
L 521.710733 296.050079 
L 522.403284 296.323712 
L 529.328798 296.389011 
L 537.639413 295.748462 
L 540.409619 295.269605 
L 541.10217 294.912017 
L 542.487273 293.180047 
L 544.564927 290.633398 
L 545.950029 288.948071 
L 547.335132 286.339233 
L 548.720235 283.052533 
L 549.412786 281.301906 
L 550.105337 280.082998 
L 550.797889 279.657002 
L 552.875543 279.047547 
L 554.260645 278.388341 
L 554.953196 278.372794 
L 556.338299 279.706753 
L 557.03085 280.680014 
L 558.415953 283.360369 
L 559.108504 284.426915 
L 560.493607 285.667589 
L 562.571261 287.097941 
L 563.263812 287.642097 
L 563.956364 287.965481 
L 564.648915 288.120954 
L 565.341466 288.450557 
L 566.034018 288.581154 
L 567.41912 288.400806 
L 568.111672 288.02767 
L 571.574428 284.793831 
L 574.344633 282.045068 
L 576.422287 280.947428 
L 577.114839 280.888348 
L 578.499941 281.584867 
L 579.885044 283.06808 
L 582.655249 286.034506 
L 583.347801 286.662617 
L 584.732903 287.421325 
L 585.425455 288.005904 
L 587.503109 290.138994 
L 588.888211 291.009643 
L 590.273314 291.494719 
L 594.428622 293.892114 
L 595.813724 293.935646 
L 596.506276 293.56562 
L 597.891378 292.172582 
L 598.58393 291.755914 
L 599.276481 291.165116 
L 600.661584 289.025807 
L 603.431789 284.33674 
L 604.816891 281.790092 
L 605.509443 281.189966 
L 606.894545 281.239717 
L 607.587097 281.099791 
L 608.279648 281.314344 
L 608.972199 282.063724 
L 611.049853 285.132762 
L 612.434956 287.188116 
L 613.820059 289.64459 
L 614.51261 290.540115 
L 615.205161 291.078051 
L 616.590264 292.629672 
L 617.282815 293.052559 
L 617.975367 293.248455 
L 618.667918 293.245346 
L 620.053021 293.456789 
L 621.438123 293.415033 
L 622.823226 292.895753 
L 624.208328 292.116611 
L 628.363636 288.787711 
L 628.363636 288.787711 
" style="fill:none;stroke:#ff0000;stroke-linecap:square;stroke-width:1.5;"/>
   </g>
   <g id="patch_3">
    <path d="M 64.8 313.2 
L 64.8 28.8 
" style="fill:none;stroke:#000000;stroke-linecap:square;stroke-linejoin:miter;stroke-width:0.8;"/>
   </g>
   <g id="patch_4">
    <path d="M 655.2 313.2 
L 655.2 28.8 
" style="fill:none;stroke:#000000;stroke-linecap:square;stroke-linejoin:miter;stroke-width:0.8;"/>
   </g>
   <g id="patch_5">
    <path d="M 64.8 313.2 
L 655.2 313.2 
" style="fill:none;stroke:#000000;stroke-linecap:square;stroke-linejoin:miter;stroke-width:0.8;"/>
   </g>
   <g id="patch_6">
    <path d="M 64.8 28.8 
L 655.2 28.8 
" style="fill:none;stroke:#000000;stroke-linecap:square;stroke-linejoin:miter;stroke-width:0.8;"/>
   </g>
   <g id="text_15">
    <!-- Page hits per uur (gemiddeld ongeveer 1). -->
    <g transform="translate(232.46625 22.8)scale(0.12 -0.12)">
     <defs>
      <path d="M 19.671875 64.796875 
L 19.671875 37.40625 
L 32.078125 37.40625 
Q 38.96875 37.40625 42.71875 40.96875 
Q 46.484375 44.53125 46.484375 51.125 
Q 46.484375 57.671875 42.71875 61.234375 
Q 38.96875 64.796875 32.078125 64.796875 
z
M 9.8125 72.90625 
L 32.078125 72.90625 
Q 44.34375 72.90625 50.609375 67.359375 
Q 56.890625 61.8125 56.890625 51.125 
Q 56.890625 40.328125 50.609375 34.8125 
Q 44.34375 29.296875 32.078125 29.296875 
L 19.671875 29.296875 
L 19.671875 0 
L 9.8125 0 
z
" id="DejaVuSans-80"/>
      <path d="M 45.40625 27.984375 
Q 45.40625 37.75 41.375 43.109375 
Q 37.359375 48.484375 30.078125 48.484375 
Q 22.859375 48.484375 18.828125 43.109375 
Q 14.796875 37.75 14.796875 27.984375 
Q 14.796875 18.265625 18.828125 12.890625 
Q 22.859375 7.515625 30.078125 7.515625 
Q 37.359375 7.515625 41.375 12.890625 
Q 45.40625 18.265625 45.40625 27.984375 
z
M 54.390625 6.78125 
Q 54.390625 -7.171875 48.1875 -13.984375 
Q 42 -20.796875 29.203125 -20.796875 
Q 24.46875 -20.796875 20.265625 -20.09375 
Q 16.0625 -19.390625 12.109375 -17.921875 
L 12.109375 -9.1875 
Q 16.0625 -11.328125 19.921875 -12.34375 
Q 23.78125 -13.375 27.78125 -13.375 
Q 36.625 -13.375 41.015625 -8.765625 
Q 45.40625 -4.15625 45.40625 5.171875 
L 45.40625 9.625 
Q 42.625 4.78125 38.28125 2.390625 
Q 33.9375 0 27.875 0 
Q 17.828125 0 11.671875 7.65625 
Q 5.515625 15.328125 5.515625 27.984375 
Q 5.515625 40.671875 11.671875 48.328125 
Q 17.828125 56 27.875 56 
Q 33.9375 56 38.28125 53.609375 
Q 42.625 51.21875 45.40625 46.390625 
L 45.40625 54.6875 
L 54.390625 54.6875 
z
" id="DejaVuSans-103"/>
      <path d="M 56.203125 29.59375 
L 56.203125 25.203125 
L 14.890625 25.203125 
Q 15.484375 15.921875 20.484375 11.0625 
Q 25.484375 6.203125 34.421875 6.203125 
Q 39.59375 6.203125 44.453125 7.46875 
Q 49.3125 8.734375 54.109375 11.28125 
L 54.109375 2.78125 
Q 49.265625 0.734375 44.1875 -0.34375 
Q 39.109375 -1.421875 33.890625 -1.421875 
Q 20.796875 -1.421875 13.15625 6.1875 
Q 5.515625 13.8125 5.515625 26.8125 
Q 5.515625 40.234375 12.765625 48.109375 
Q 20.015625 56 32.328125 56 
Q 43.359375 56 49.78125 48.890625 
Q 56.203125 41.796875 56.203125 29.59375 
z
M 47.21875 32.234375 
Q 47.125 39.59375 43.09375 43.984375 
Q 39.0625 48.390625 32.421875 48.390625 
Q 24.90625 48.390625 20.390625 44.140625 
Q 15.875 39.890625 15.1875 32.171875 
z
" id="DejaVuSans-101"/>
      <path id="DejaVuSans-32"/>
      <path d="M 54.890625 33.015625 
L 54.890625 0 
L 45.90625 0 
L 45.90625 32.71875 
Q 45.90625 40.484375 42.875 44.328125 
Q 39.84375 48.1875 33.796875 48.1875 
Q 26.515625 48.1875 22.3125 43.546875 
Q 18.109375 38.921875 18.109375 30.90625 
L 18.109375 0 
L 9.078125 0 
L 9.078125 75.984375 
L 18.109375 75.984375 
L 18.109375 46.1875 
Q 21.34375 51.125 25.703125 53.5625 
Q 30.078125 56 35.796875 56 
Q 45.21875 56 50.046875 50.171875 
Q 54.890625 44.34375 54.890625 33.015625 
z
" id="DejaVuSans-104"/>
      <path d="M 9.421875 54.6875 
L 18.40625 54.6875 
L 18.40625 0 
L 9.421875 0 
z
M 9.421875 75.984375 
L 18.40625 75.984375 
L 18.40625 64.59375 
L 9.421875 64.59375 
z
" id="DejaVuSans-105"/>
      <path d="M 44.28125 53.078125 
L 44.28125 44.578125 
Q 40.484375 46.53125 36.375 47.5 
Q 32.28125 48.484375 27.875 48.484375 
Q 21.1875 48.484375 17.84375 46.4375 
Q 14.5 44.390625 14.5 40.28125 
Q 14.5 37.15625 16.890625 35.375 
Q 19.28125 33.59375 26.515625 31.984375 
L 29.59375 31.296875 
Q 39.15625 29.25 43.1875 25.515625 
Q 47.21875 21.78125 47.21875 15.09375 
Q 47.21875 7.46875 41.1875 3.015625 
Q 35.15625 -1.421875 24.609375 -1.421875 
Q 20.21875 -1.421875 15.453125 -0.5625 
Q 10.6875 0.296875 5.421875 2 
L 5.421875 11.28125 
Q 10.40625 8.6875 15.234375 7.390625 
Q 20.0625 6.109375 24.8125 6.109375 
Q 31.15625 6.109375 34.5625 8.28125 
Q 37.984375 10.453125 37.984375 14.40625 
Q 37.984375 18.0625 35.515625 20.015625 
Q 33.0625 21.96875 24.703125 23.78125 
L 21.578125 24.515625 
Q 13.234375 26.265625 9.515625 29.90625 
Q 5.8125 33.546875 5.8125 39.890625 
Q 5.8125 47.609375 11.28125 51.796875 
Q 16.75 56 26.8125 56 
Q 31.78125 56 36.171875 55.265625 
Q 40.578125 54.546875 44.28125 53.078125 
z
" id="DejaVuSans-115"/>
      <path d="M 18.109375 8.203125 
L 18.109375 -20.796875 
L 9.078125 -20.796875 
L 9.078125 54.6875 
L 18.109375 54.6875 
L 18.109375 46.390625 
Q 20.953125 51.265625 25.265625 53.625 
Q 29.59375 56 35.59375 56 
Q 45.5625 56 51.78125 48.09375 
Q 58.015625 40.1875 58.015625 27.296875 
Q 58.015625 14.40625 51.78125 6.484375 
Q 45.5625 -1.421875 35.59375 -1.421875 
Q 29.59375 -1.421875 25.265625 0.953125 
Q 20.953125 3.328125 18.109375 8.203125 
z
M 48.6875 27.296875 
Q 48.6875 37.203125 44.609375 42.84375 
Q 40.53125 48.484375 33.40625 48.484375 
Q 26.265625 48.484375 22.1875 42.84375 
Q 18.109375 37.203125 18.109375 27.296875 
Q 18.109375 17.390625 22.1875 11.75 
Q 26.265625 6.109375 33.40625 6.109375 
Q 40.53125 6.109375 44.609375 11.75 
Q 48.6875 17.390625 48.6875 27.296875 
z
" id="DejaVuSans-112"/>
      <path d="M 41.109375 46.296875 
Q 39.59375 47.171875 37.8125 47.578125 
Q 36.03125 48 33.890625 48 
Q 26.265625 48 22.1875 43.046875 
Q 18.109375 38.09375 18.109375 28.8125 
L 18.109375 0 
L 9.078125 0 
L 9.078125 54.6875 
L 18.109375 54.6875 
L 18.109375 46.1875 
Q 20.953125 51.171875 25.484375 53.578125 
Q 30.03125 56 36.53125 56 
Q 37.453125 56 38.578125 55.875 
Q 39.703125 55.765625 41.0625 55.515625 
z
" id="DejaVuSans-114"/>
      <path d="M 31 75.875 
Q 24.46875 64.65625 21.28125 53.65625 
Q 18.109375 42.671875 18.109375 31.390625 
Q 18.109375 20.125 21.3125 9.0625 
Q 24.515625 -2 31 -13.1875 
L 23.1875 -13.1875 
Q 15.875 -1.703125 12.234375 9.375 
Q 8.59375 20.453125 8.59375 31.390625 
Q 8.59375 42.28125 12.203125 53.3125 
Q 15.828125 64.359375 23.1875 75.875 
z
" id="DejaVuSans-40"/>
      <path d="M 45.40625 46.390625 
L 45.40625 75.984375 
L 54.390625 75.984375 
L 54.390625 0 
L 45.40625 0 
L 45.40625 8.203125 
Q 42.578125 3.328125 38.25 0.953125 
Q 33.9375 -1.421875 27.875 -1.421875 
Q 17.96875 -1.421875 11.734375 6.484375 
Q 5.515625 14.40625 5.515625 27.296875 
Q 5.515625 40.1875 11.734375 48.09375 
Q 17.96875 56 27.875 56 
Q 33.9375 56 38.25 53.625 
Q 42.578125 51.265625 45.40625 46.390625 
z
M 14.796875 27.296875 
Q 14.796875 17.390625 18.875 11.75 
Q 22.953125 6.109375 30.078125 6.109375 
Q 37.203125 6.109375 41.296875 11.75 
Q 45.40625 17.390625 45.40625 27.296875 
Q 45.40625 37.203125 41.296875 42.84375 
Q 37.203125 48.484375 30.078125 48.484375 
Q 22.953125 48.484375 18.875 42.84375 
Q 14.796875 37.203125 14.796875 27.296875 
z
" id="DejaVuSans-100"/>
      <path d="M 9.421875 75.984375 
L 18.40625 75.984375 
L 18.40625 0 
L 9.421875 0 
z
" id="DejaVuSans-108"/>
      <path d="M 30.609375 48.390625 
Q 23.390625 48.390625 19.1875 42.75 
Q 14.984375 37.109375 14.984375 27.296875 
Q 14.984375 17.484375 19.15625 11.84375 
Q 23.34375 6.203125 30.609375 6.203125 
Q 37.796875 6.203125 41.984375 11.859375 
Q 46.1875 17.53125 46.1875 27.296875 
Q 46.1875 37.015625 41.984375 42.703125 
Q 37.796875 48.390625 30.609375 48.390625 
z
M 30.609375 56 
Q 42.328125 56 49.015625 48.375 
Q 55.71875 40.765625 55.71875 27.296875 
Q 55.71875 13.875 49.015625 6.21875 
Q 42.328125 -1.421875 30.609375 -1.421875 
Q 18.84375 -1.421875 12.171875 6.21875 
Q 5.515625 13.875 5.515625 27.296875 
Q 5.515625 40.765625 12.171875 48.375 
Q 18.84375 56 30.609375 56 
z
" id="DejaVuSans-111"/>
      <path d="M 54.890625 33.015625 
L 54.890625 0 
L 45.90625 0 
L 45.90625 32.71875 
Q 45.90625 40.484375 42.875 44.328125 
Q 39.84375 48.1875 33.796875 48.1875 
Q 26.515625 48.1875 22.3125 43.546875 
Q 18.109375 38.921875 18.109375 30.90625 
L 18.109375 0 
L 9.078125 0 
L 9.078125 54.6875 
L 18.109375 54.6875 
L 18.109375 46.1875 
Q 21.34375 51.125 25.703125 53.5625 
Q 30.078125 56 35.796875 56 
Q 45.21875 56 50.046875 50.171875 
Q 54.890625 44.34375 54.890625 33.015625 
z
" id="DejaVuSans-110"/>
      <path d="M 2.984375 54.6875 
L 12.5 54.6875 
L 29.59375 8.796875 
L 46.6875 54.6875 
L 56.203125 54.6875 
L 35.6875 0 
L 23.484375 0 
z
" id="DejaVuSans-118"/>
      <path d="M 8.015625 75.875 
L 15.828125 75.875 
Q 23.140625 64.359375 26.78125 53.3125 
Q 30.421875 42.28125 30.421875 31.390625 
Q 30.421875 20.453125 26.78125 9.375 
Q 23.140625 -1.703125 15.828125 -13.1875 
L 8.015625 -13.1875 
Q 14.5 -2 17.703125 9.0625 
Q 20.90625 20.125 20.90625 31.390625 
Q 20.90625 42.671875 17.703125 53.65625 
Q 14.5 64.65625 8.015625 75.875 
z
" id="DejaVuSans-41"/>
      <path d="M 10.6875 12.40625 
L 21 12.40625 
L 21 0 
L 10.6875 0 
z
" id="DejaVuSans-46"/>
     </defs>
     <use xlink:href="#DejaVuSans-80"/>
     <use x="55.802734" xlink:href="#DejaVuSans-97"/>
     <use x="117.082031" xlink:href="#DejaVuSans-103"/>
     <use x="180.558594" xlink:href="#DejaVuSans-101"/>
     <use x="242.082031" xlink:href="#DejaVuSans-32"/>
     <use x="273.869141" xlink:href="#DejaVuSans-104"/>
     <use x="337.248047" xlink:href="#DejaVuSans-105"/>
     <use x="365.03125" xlink:href="#DejaVuSans-116"/>
     <use x="404.240234" xlink:href="#DejaVuSans-115"/>
     <use x="456.339844" xlink:href="#DejaVuSans-32"/>
     <use x="488.126953" xlink:href="#DejaVuSans-112"/>
     <use x="551.603516" xlink:href="#DejaVuSans-101"/>
     <use x="613.126953" xlink:href="#DejaVuSans-114"/>
     <use x="654.240234" xlink:href="#DejaVuSans-32"/>
     <use x="686.027344" xlink:href="#DejaVuSans-117"/>
     <use x="749.40625" xlink:href="#DejaVuSans-117"/>
     <use x="812.785156" xlink:href="#DejaVuSans-114"/>
     <use x="853.898438" xlink:href="#DejaVuSans-32"/>
     <use x="885.685547" xlink:href="#DejaVuSans-40"/>
     <use x="924.699219" xlink:href="#DejaVuSans-103"/>
     <use x="988.175781" xlink:href="#DejaVuSans-101"/>
     <use x="1049.699219" xlink:href="#DejaVuSans-109"/>
     <use x="1147.111328" xlink:href="#DejaVuSans-105"/>
     <use x="1174.894531" xlink:href="#DejaVuSans-100"/>
     <use x="1238.371094" xlink:href="#DejaVuSans-100"/>
     <use x="1301.847656" xlink:href="#DejaVuSans-101"/>
     <use x="1363.371094" xlink:href="#DejaVuSans-108"/>
     <use x="1391.154297" xlink:href="#DejaVuSans-100"/>
     <use x="1454.630859" xlink:href="#DejaVuSans-32"/>
     <use x="1486.417969" xlink:href="#DejaVuSans-111"/>
     <use x="1547.599609" xlink:href="#DejaVuSans-110"/>
     <use x="1610.978516" xlink:href="#DejaVuSans-103"/>
     <use x="1674.455078" xlink:href="#DejaVuSans-101"/>
     <use x="1735.978516" xlink:href="#DejaVuSans-118"/>
     <use x="1795.158203" xlink:href="#DejaVuSans-101"/>
     <use x="1856.681641" xlink:href="#DejaVuSans-101"/>
     <use x="1918.205078" xlink:href="#DejaVuSans-114"/>
     <use x="1959.318359" xlink:href="#DejaVuSans-32"/>
     <use x="1991.105469" xlink:href="#DejaVuSans-49"/>
     <use x="2054.728516" xlink:href="#DejaVuSans-41"/>
     <use x="2093.742188" xlink:href="#DejaVuSans-46"/>
    </g>
   </g>
  </g>
  <g id="text_16">
   <!-- Gegenereerd op 2023-01-04 15:37. -->
   <g style="fill:#808080;" transform="translate(7.2 356.4)scale(0.08 -0.08)">
    <defs>
     <path d="M 59.515625 10.40625 
L 59.515625 29.984375 
L 43.40625 29.984375 
L 43.40625 38.09375 
L 69.28125 38.09375 
L 69.28125 6.78125 
Q 63.578125 2.734375 56.6875 0.65625 
Q 49.8125 -1.421875 42 -1.421875 
Q 24.90625 -1.421875 15.25 8.5625 
Q 5.609375 18.5625 5.609375 36.375 
Q 5.609375 54.25 15.25 64.234375 
Q 24.90625 74.21875 42 74.21875 
Q 49.125 74.21875 55.546875 72.453125 
Q 61.96875 70.703125 67.390625 67.28125 
L 67.390625 56.78125 
Q 61.921875 61.421875 55.765625 63.765625 
Q 49.609375 66.109375 42.828125 66.109375 
Q 29.4375 66.109375 22.71875 58.640625 
Q 16.015625 51.171875 16.015625 36.375 
Q 16.015625 21.625 22.71875 14.15625 
Q 29.4375 6.6875 42.828125 6.6875 
Q 48.046875 6.6875 52.140625 7.59375 
Q 56.25 8.5 59.515625 10.40625 
z
" id="DejaVuSans-71"/>
     <path d="M 11.71875 12.40625 
L 22.015625 12.40625 
L 22.015625 0 
L 11.71875 0 
z
M 11.71875 51.703125 
L 22.015625 51.703125 
L 22.015625 39.3125 
L 11.71875 39.3125 
z
" id="DejaVuSans-58"/>
    </defs>
    <use xlink:href="#DejaVuSans-71"/>
    <use x="77.490234" xlink:href="#DejaVuSans-101"/>
    <use x="139.013672" xlink:href="#DejaVuSans-103"/>
    <use x="202.490234" xlink:href="#DejaVuSans-101"/>
    <use x="264.013672" xlink:href="#DejaVuSans-110"/>
    <use x="327.392578" xlink:href="#DejaVuSans-101"/>
    <use x="388.916016" xlink:href="#DejaVuSans-114"/>
    <use x="427.779297" xlink:href="#DejaVuSans-101"/>
    <use x="489.302734" xlink:href="#DejaVuSans-101"/>
    <use x="550.826172" xlink:href="#DejaVuSans-114"/>
    <use x="590.189453" xlink:href="#DejaVuSans-100"/>
    <use x="653.666016" xlink:href="#DejaVuSans-32"/>
    <use x="685.453125" xlink:href="#DejaVuSans-111"/>
    <use x="746.634766" xlink:href="#DejaVuSans-112"/>
    <use x="810.111328" xlink:href="#DejaVuSans-32"/>
    <use x="841.898438" xlink:href="#DejaVuSans-50"/>
    <use x="905.521484" xlink:href="#DejaVuSans-48"/>
    <use x="969.144531" xlink:href="#DejaVuSans-50"/>
    <use x="1032.767578" xlink:href="#DejaVuSans-51"/>
    <use x="1096.390625" xlink:href="#DejaVuSans-45"/>
    <use x="1132.474609" xlink:href="#DejaVuSans-48"/>
    <use x="1196.097656" xlink:href="#DejaVuSans-49"/>
    <use x="1259.720703" xlink:href="#DejaVuSans-45"/>
    <use x="1295.804688" xlink:href="#DejaVuSans-48"/>
    <use x="1359.427734" xlink:href="#DejaVuSans-52"/>
    <use x="1423.050781" xlink:href="#DejaVuSans-32"/>
    <use x="1454.837891" xlink:href="#DejaVuSans-49"/>
    <use x="1518.460938" xlink:href="#DejaVuSans-53"/>
    <use x="1582.083984" xlink:href="#DejaVuSans-58"/>
    <use x="1615.775391" xlink:href="#DejaVuSans-51"/>
    <use x="1679.398438" xlink:href="#DejaVuSans-55"/>
    <use x="1743.021484" xlink:href="#DejaVuSans-46"/>
   </g>
  </g>
  <g id="text_17">
   <!-- https://realrolfje.github.io/coronadata/ -->
   <g style="fill:#808080;" transform="translate(560.24375 356.4)scale(0.08 -0.08)">
    <defs>
     <path d="M 25.390625 72.90625 
L 33.6875 72.90625 
L 8.296875 -9.28125 
L 0 -9.28125 
z
" id="DejaVuSans-47"/>
     <path d="M 37.109375 75.984375 
L 37.109375 68.5 
L 28.515625 68.5 
Q 23.6875 68.5 21.796875 66.546875 
Q 19.921875 64.59375 19.921875 59.515625 
L 19.921875 54.6875 
L 34.71875 54.6875 
L 34.71875 47.703125 
L 19.921875 47.703125 
L 19.921875 0 
L 10.890625 0 
L 10.890625 47.703125 
L 2.296875 47.703125 
L 2.296875 54.6875 
L 10.890625 54.6875 
L 10.890625 58.5 
Q 10.890625 67.625 15.140625 71.796875 
Q 19.390625 75.984375 28.609375 75.984375 
z
" id="DejaVuSans-102"/>
     <path d="M 9.421875 54.6875 
L 18.40625 54.6875 
L 18.40625 -0.984375 
Q 18.40625 -11.421875 14.421875 -16.109375 
Q 10.453125 -20.796875 1.609375 -20.796875 
L -1.8125 -20.796875 
L -1.8125 -13.1875 
L 0.59375 -13.1875 
Q 5.71875 -13.1875 7.5625 -10.8125 
Q 9.421875 -8.453125 9.421875 -0.984375 
z
M 9.421875 75.984375 
L 18.40625 75.984375 
L 18.40625 64.59375 
L 9.421875 64.59375 
z
" id="DejaVuSans-106"/>
     <path d="M 48.6875 27.296875 
Q 48.6875 37.203125 44.609375 42.84375 
Q 40.53125 48.484375 33.40625 48.484375 
Q 26.265625 48.484375 22.1875 42.84375 
Q 18.109375 37.203125 18.109375 27.296875 
Q 18.109375 17.390625 22.1875 11.75 
Q 26.265625 6.109375 33.40625 6.109375 
Q 40.53125 6.109375 44.609375 11.75 
Q 48.6875 17.390625 48.6875 27.296875 
z
M 18.109375 46.390625 
Q 20.953125 51.265625 25.265625 53.625 
Q 29.59375 56 35.59375 56 
Q 45.5625 56 51.78125 48.09375 
Q 58.015625 40.1875 58.015625 27.296875 
Q 58.015625 14.40625 51.78125 6.484375 
Q 45.5625 -1.421875 35.59375 -1.421875 
Q 29.59375 -1.421875 25.265625 0.953125 
Q 20.953125 3.328125 18.109375 8.203125 
L 18.109375 0 
L 9.078125 0 
L 9.078125 75.984375 
L 18.109375 75.984375 
z
" id="DejaVuSans-98"/>
     <path d="M 48.78125 52.59375 
L 48.78125 44.1875 
Q 44.96875 46.296875 41.140625 47.34375 
Q 37.3125 48.390625 33.40625 48.390625 
Q 24.65625 48.390625 19.8125 42.84375 
Q 14.984375 37.3125 14.984375 27.296875 
Q 14.984375 17.28125 19.8125 11.734375 
Q 24.65625 6.203125 33.40625 6.203125 
Q 37.3125 6.203125 41.140625 7.25 
Q 44.96875 8.296875 48.78125 10.40625 
L 48.78125 2.09375 
Q 45.015625 0.34375 40.984375 -0.53125 
Q 36.96875 -1.421875 32.421875 -1.421875 
Q 20.0625 -1.421875 12.78125 6.34375 
Q 5.515625 14.109375 5.515625 27.296875 
Q 5.515625 40.671875 12.859375 48.328125 
Q 20.21875 56 33.015625 56 
Q 37.15625 56 41.109375 55.140625 
Q 45.0625 54.296875 48.78125 52.59375 
z
" id="DejaVuSans-99"/>
    </defs>
    <use xlink:href="#DejaVuSans-104"/>
    <use x="63.378906" xlink:href="#DejaVuSans-116"/>
    <use x="102.587891" xlink:href="#DejaVuSans-116"/>
    <use x="141.796875" xlink:href="#DejaVuSans-112"/>
    <use x="205.273438" xlink:href="#DejaVuSans-115"/>
    <use x="257.373047" xlink:href="#DejaVuSans-58"/>
    <use x="291.064453" xlink:href="#DejaVuSans-47"/>
    <use x="324.755859" xlink:href="#DejaVuSans-47"/>
    <use x="358.447266" xlink:href="#DejaVuSans-114"/>
    <use x="397.310547" xlink:href="#DejaVuSans-101"/>
    <use x="458.833984" xlink:href="#DejaVuSans-97"/>
    <use x="520.113281" xlink:href="#DejaVuSans-108"/>
    <use x="547.896484" xlink:href="#DejaVuSans-114"/>
    <use x="586.759766" xlink:href="#DejaVuSans-111"/>
    <use x="647.941406" xlink:href="#DejaVuSans-108"/>
    <use x="675.724609" xlink:href="#DejaVuSans-102"/>
    <use x="710.929688" xlink:href="#DejaVuSans-106"/>
    <use x="738.712891" xlink:href="#DejaVuSans-101"/>
    <use x="800.236328" xlink:href="#DejaVuSans-46"/>
    <use x="832.023438" xlink:href="#DejaVuSans-103"/>
    <use x="895.5" xlink:href="#DejaVuSans-105"/>
    <use x="923.283203" xlink:href="#DejaVuSans-116"/>
    <use x="962.492188" xlink:href="#DejaVuSans-104"/>
    <use x="1025.871094" xlink:href="#DejaVuSans-117"/>
    <use x="1089.25" xlink:href="#DejaVuSans-98"/>
    <use x="1152.726562" xlink:href="#DejaVuSans-46"/>
    <use x="1184.513672" xlink:href="#DejaVuSans-105"/>
    <use x="1212.296875" xlink:href="#DejaVuSans-111"/>
    <use x="1273.478516" xlink:href="#DejaVuSans-47"/>
    <use x="1307.169922" xlink:href="#DejaVuSans-99"/>
    <use x="1362.150391" xlink:href="#DejaVuSans-111"/>
    <use x="1423.332031" xlink:href="#DejaVuSans-114"/>
    <use x="1462.195312" xlink:href="#DejaVuSans-111"/>
    <use x="1523.376953" xlink:href="#DejaVuSans-110"/>
    <use x="1586.755859" xlink:href="#DejaVuSans-97"/>
    <use x="1648.035156" xlink:href="#DejaVuSans-100"/>
    <use x="1711.511719" xlink:href="#DejaVuSans-97"/>
    <use x="1772.791016" xlink:href="#DejaVuSans-116"/>
    <use x="1812" xlink:href="#DejaVuSans-97"/>
    <use x="1873.279297" xlink:href="#DejaVuSans-47"/>
   </g>
  </g>
 </g>
 <defs>
  <clipPath id="peb47ce98ff">
   <rect height="284.4" width="590.4" x="64.8" y="28.8"/>
  </clipPath>
 </defs>
</svg>
