<?xml version="1.0" encoding="utf-8" standalone="no"?>
<!DOCTYPE svg PUBLIC "-//W3C//DTD SVG 1.1//EN"
  "http://www.w3.org/Graphics/SVG/1.1/DTD/svg11.dtd">
<!-- Created with matplotlib (https://matplotlib.org/) -->
<svg height="360pt" version="1.1" viewBox="0 0 720 360" width="720pt" xmlns="http://www.w3.org/2000/svg" xmlns:xlink="http://www.w3.org/1999/xlink">
 <metadata>
  <rdf:RDF xmlns:cc="http://creativecommons.org/ns#" xmlns:dc="http://purl.org/dc/elements/1.1/" xmlns:rdf="http://www.w3.org/1999/02/22-rdf-syntax-ns#">
   <cc:Work>
    <dc:type rdf:resource="http://purl.org/dc/dcmitype/StillImage"/>
    <dc:date>2023-05-05T17:38:38.938128</dc:date>
    <dc:format>image/svg+xml</dc:format>
    <dc:creator>
     <cc:Agent>
      <dc:title>Matplotlib v3.3.2, https://matplotlib.org/</dc:title>
     </cc:Agent>
    </dc:creator>
   </cc:Work>
  </rdf:RDF>
 </metadata>
 <defs>
  <style type="text/css">*{stroke-linecap:butt;stroke-linejoin:round;}</style>
 </defs>
 <g id="figure_1">
  <g id="patch_1">
   <path d="M 0 360 
L 720 360 
L 720 0 
L 0 0 
z
" style="fill:#ffffff;"/>
  </g>
  <g id="axes_1">
   <g id="patch_2">
    <path d="M 64.8 313.2 
L 655.2 313.2 
L 655.2 28.8 
L 64.8 28.8 
z
" style="fill:#ffffff;"/>
   </g>
   <g id="PolyCollection_1">
    <path clip-path="url(#p669f5e6b3f)" d="M 91.636364 300.272727 
L 91.636364 300.272727 
L 92.23539 300.272727 
L 92.834416 300.272727 
L 93.433442 300.272727 
L 94.032468 300.272727 
L 94.631494 300.272727 
L 96.428571 300.272727 
L 97.027597 300.272727 
L 97.626623 300.272727 
L 98.225649 300.272727 
L 98.824675 300.272727 
L 99.423701 300.272727 
L 100.022727 300.272727 
L 100.621753 300.272727 
L 101.220779 300.272727 
L 101.819805 300.272727 
L 102.418831 300.272727 
L 103.017857 300.272727 
L 103.616883 300.272727 
L 104.215909 300.272727 
L 104.814935 300.272727 
L 105.413961 300.272727 
L 106.012987 300.272727 
L 106.612013 300.272727 
L 107.211039 300.272727 
L 107.810065 300.272727 
L 108.409091 300.272727 
L 109.008117 300.272727 
L 109.607143 300.272727 
L 110.206169 300.272727 
L 110.805195 300.272727 
L 111.404221 300.272727 
L 112.003247 300.272727 
L 112.602273 300.272727 
L 113.201299 300.272727 
L 113.800325 300.272727 
L 114.399351 300.272727 
L 114.998377 300.272727 
L 115.597403 300.272727 
L 116.196429 300.272727 
L 116.795455 300.272727 
L 117.394481 300.272727 
L 117.993506 300.272727 
L 118.592532 300.272727 
L 119.191558 300.272727 
L 119.790584 300.272727 
L 120.38961 300.272727 
L 120.988636 300.272727 
L 121.587662 300.272727 
L 122.186688 300.272727 
L 122.785714 300.272727 
L 123.38474 300.272727 
L 123.983766 300.272727 
L 124.582792 300.272727 
L 125.181818 300.272727 
L 125.780844 300.272727 
L 126.37987 300.272727 
L 126.978896 300.272727 
L 127.577922 300.272727 
L 128.176948 300.272727 
L 128.775974 300.272727 
L 129.375 300.272727 
L 129.974026 300.272727 
L 130.573052 300.272727 
L 131.172078 300.272727 
L 131.771104 300.272727 
L 132.37013 300.272727 
L 132.969156 300.272727 
L 133.568182 300.272727 
L 134.167208 300.272727 
L 134.766234 300.272727 
L 135.36526 300.272727 
L 135.964286 300.272727 
L 136.563312 300.272727 
L 137.162338 300.272727 
L 137.761364 300.272727 
L 138.36039 300.272727 
L 138.959416 300.272727 
L 139.558442 300.272727 
L 140.157468 300.272727 
L 140.756494 300.272727 
L 141.355519 300.272727 
L 141.954545 300.272727 
L 142.553571 300.272727 
L 143.152597 300.272727 
L 143.751623 300.272727 
L 144.350649 300.272727 
L 144.949675 300.272727 
L 145.548701 300.272727 
L 146.147727 300.272727 
L 146.746753 300.272727 
L 147.345779 300.272727 
L 147.944805 300.272727 
L 148.543831 300.272727 
L 149.142857 300.272727 
L 149.741883 300.272727 
L 150.340909 300.272727 
L 150.939935 300.272727 
L 151.538961 300.272727 
L 152.137987 300.272727 
L 152.737013 300.272727 
L 153.336039 300.272727 
L 153.935065 300.272727 
L 154.534091 300.272727 
L 155.133117 300.272727 
L 155.732143 300.272727 
L 156.331169 300.272727 
L 156.930195 300.272727 
L 157.529221 300.272727 
L 158.128247 300.272727 
L 158.727273 300.272727 
L 159.326299 300.272727 
L 159.925325 300.272727 
L 160.524351 300.272727 
L 161.123377 300.272727 
L 161.722403 300.272727 
L 162.321429 300.272727 
L 163.519481 300.272727 
L 164.118506 300.272727 
L 164.717532 300.272727 
L 165.316558 300.272727 
L 165.915584 300.272727 
L 166.51461 300.272727 
L 167.113636 300.272727 
L 167.712662 300.272727 
L 168.311688 300.272727 
L 168.910714 300.272727 
L 169.50974 300.272727 
L 170.108766 300.272727 
L 170.707792 300.272727 
L 171.306818 300.272727 
L 171.905844 300.272727 
L 172.50487 300.272727 
L 173.103896 300.272727 
L 173.702922 300.272727 
L 174.301948 300.272727 
L 174.900974 300.272727 
L 175.5 300.272727 
L 176.099026 300.272727 
L 176.698052 300.272727 
L 177.297078 300.272727 
L 177.896104 300.272727 
L 178.49513 300.272727 
L 179.094156 300.272727 
L 179.693182 300.272727 
L 180.292208 300.272727 
L 180.891234 300.272727 
L 181.49026 300.272727 
L 182.089286 300.272727 
L 182.688312 300.272727 
L 183.287338 300.272727 
L 183.886364 300.272727 
L 184.48539 300.272727 
L 185.084416 300.272727 
L 185.683442 300.272727 
L 186.282468 300.272727 
L 186.881494 300.272727 
L 187.480519 300.272727 
L 188.079545 300.272727 
L 188.678571 300.272727 
L 189.277597 300.272727 
L 189.876623 300.272727 
L 190.475649 300.272727 
L 191.074675 300.272727 
L 191.673701 300.272727 
L 192.272727 300.272727 
L 192.871753 300.272727 
L 193.470779 300.272727 
L 194.069805 300.272727 
L 194.668831 300.272727 
L 195.267857 300.272727 
L 195.866883 300.272727 
L 196.465909 300.272727 
L 197.064935 300.272727 
L 197.663961 300.272727 
L 198.262987 300.272727 
L 198.862013 300.272727 
L 199.461039 300.272727 
L 200.060065 300.272727 
L 200.659091 300.272727 
L 201.258117 300.272727 
L 201.857143 300.272727 
L 202.456169 300.272727 
L 203.055195 300.272727 
L 203.654221 300.272727 
L 204.253247 300.272727 
L 204.852273 300.272727 
L 205.451299 300.272727 
L 206.050325 300.272727 
L 206.649351 300.272727 
L 207.248377 300.272727 
L 207.847403 300.272727 
L 208.446429 300.272727 
L 209.045455 300.272727 
L 209.644481 300.272727 
L 210.243506 300.272727 
L 210.842532 300.272727 
L 211.441558 300.272727 
L 212.040584 300.272727 
L 212.63961 300.272727 
L 213.238636 300.272727 
L 213.837662 300.272727 
L 214.436688 300.272727 
L 215.035714 300.272727 
L 215.63474 300.272727 
L 216.832792 300.272727 
L 217.431818 300.272727 
L 218.030844 300.272727 
L 218.62987 300.272727 
L 219.228896 300.272727 
L 219.827922 300.272727 
L 220.426948 300.272727 
L 221.025974 300.272727 
L 221.625 300.272727 
L 222.224026 300.272727 
L 222.823052 300.272727 
L 223.422078 300.272727 
L 224.021104 300.272727 
L 224.62013 300.272727 
L 225.219156 300.272727 
L 225.818182 300.272727 
L 226.417208 300.272727 
L 227.016234 300.272727 
L 227.61526 300.272727 
L 228.214286 300.272727 
L 228.813312 300.272727 
L 229.412338 300.272727 
L 230.011364 300.272727 
L 230.61039 300.272727 
L 231.209416 300.272727 
L 231.808442 300.272727 
L 232.407468 300.272727 
L 233.006494 300.272727 
L 233.605519 300.272727 
L 234.204545 300.272727 
L 234.803571 300.272727 
L 235.402597 300.272727 
L 236.001623 300.272727 
L 236.600649 300.272727 
L 237.199675 300.272727 
L 237.798701 300.272727 
L 238.397727 300.272727 
L 238.996753 300.272727 
L 239.595779 300.272727 
L 240.194805 300.272727 
L 240.793831 300.272727 
L 241.392857 300.272727 
L 241.991883 300.272727 
L 242.590909 300.272727 
L 243.189935 300.272727 
L 243.788961 300.272727 
L 244.387987 300.272727 
L 244.987013 300.272727 
L 245.586039 300.272727 
L 246.185065 300.272727 
L 246.784091 300.272727 
L 247.383117 300.272727 
L 247.982143 300.272727 
L 248.581169 300.272727 
L 249.180195 300.272727 
L 249.779221 300.272727 
L 250.378247 300.272727 
L 250.977273 300.272727 
L 251.576299 300.272727 
L 252.175325 300.272727 
L 252.774351 300.272727 
L 253.373377 300.272727 
L 253.972403 300.272727 
L 254.571429 300.272727 
L 255.170455 300.272727 
L 255.769481 300.272727 
L 256.368506 300.272727 
L 256.967532 300.272727 
L 257.566558 300.272727 
L 258.165584 300.272727 
L 258.76461 300.272727 
L 259.363636 300.272727 
L 259.962662 300.272727 
L 260.561688 300.272727 
L 261.160714 300.272727 
L 261.75974 300.272727 
L 262.358766 300.272727 
L 262.957792 300.272727 
L 263.556818 300.272727 
L 264.155844 300.272727 
L 264.75487 300.272727 
L 265.353896 300.272727 
L 265.952922 300.272727 
L 266.551948 300.272727 
L 267.150974 300.272727 
L 267.75 300.272727 
L 268.349026 300.272727 
L 268.948052 300.272727 
L 269.547078 300.272727 
L 270.146104 300.272727 
L 270.74513 300.272727 
L 271.344156 300.272727 
L 271.943182 300.272727 
L 272.542208 300.272727 
L 273.141234 300.272727 
L 273.74026 300.272727 
L 274.339286 300.272727 
L 274.938312 300.272727 
L 275.537338 300.272727 
L 276.136364 300.272727 
L 276.73539 300.272727 
L 277.334416 300.272727 
L 277.933442 300.272727 
L 278.532468 300.272727 
L 279.131494 300.272727 
L 279.730519 300.272727 
L 280.329545 300.272727 
L 280.928571 300.272727 
L 281.527597 300.272727 
L 282.126623 300.272727 
L 282.725649 300.272727 
L 283.324675 300.272727 
L 283.923701 300.272727 
L 284.522727 300.272727 
L 285.121753 300.272727 
L 285.720779 300.272727 
L 286.319805 300.272727 
L 286.918831 300.272727 
L 287.517857 300.272727 
L 288.116883 300.272727 
L 288.715909 300.272727 
L 289.314935 300.272727 
L 289.913961 300.272727 
L 290.512987 300.272727 
L 291.112013 300.272727 
L 291.711039 300.272727 
L 292.310065 300.272727 
L 292.909091 300.272727 
L 293.508117 300.272727 
L 294.107143 300.272727 
L 294.706169 300.272727 
L 295.305195 300.272727 
L 295.904221 300.272727 
L 296.503247 300.272727 
L 297.102273 300.272727 
L 297.701299 300.272727 
L 298.300325 300.272727 
L 298.899351 300.272727 
L 299.498377 300.272727 
L 300.097403 300.272727 
L 300.696429 300.272727 
L 301.295455 300.272727 
L 301.894481 300.272727 
L 302.493506 300.272727 
L 303.092532 300.272727 
L 303.691558 300.272727 
L 304.290584 300.272727 
L 304.88961 300.272727 
L 305.488636 300.272727 
L 306.087662 300.272727 
L 306.686688 300.272727 
L 307.285714 300.272727 
L 307.88474 300.272727 
L 308.483766 300.272727 
L 309.082792 300.272727 
L 309.681818 300.272727 
L 310.280844 300.272727 
L 310.87987 300.272727 
L 311.478896 300.272727 
L 312.077922 300.272727 
L 312.676948 300.272727 
L 313.275974 300.272727 
L 313.875 300.272727 
L 314.474026 300.272727 
L 315.073052 300.272727 
L 315.672078 300.272727 
L 316.271104 300.272727 
L 316.87013 300.272727 
L 317.469156 300.272727 
L 318.068182 300.272727 
L 318.667208 300.272727 
L 319.266234 300.272727 
L 319.86526 300.272727 
L 320.464286 300.272727 
L 321.063312 300.272727 
L 321.662338 300.272727 
L 322.261364 300.272727 
L 322.86039 300.272727 
L 323.459416 300.272727 
L 324.058442 300.272727 
L 324.657468 300.272727 
L 325.256494 300.272727 
L 325.855519 300.272727 
L 326.454545 300.272727 
L 327.053571 300.272727 
L 327.652597 300.272727 
L 328.251623 300.272727 
L 328.850649 300.272727 
L 329.449675 300.272727 
L 330.048701 300.272727 
L 330.647727 300.272727 
L 331.246753 300.272727 
L 331.845779 300.272727 
L 332.444805 300.272727 
L 333.043831 300.272727 
L 333.642857 300.272727 
L 334.241883 300.272727 
L 334.840909 300.272727 
L 335.439935 300.272727 
L 336.038961 300.272727 
L 336.637987 300.272727 
L 337.237013 300.272727 
L 344.425325 300.272727 
L 345.024351 300.272727 
L 345.623377 300.272727 
L 346.222403 300.272727 
L 346.821429 300.272727 
L 347.420455 300.272727 
L 348.019481 300.272727 
L 348.618506 300.272727 
L 349.816558 300.272727 
L 350.415584 300.272727 
L 351.01461 300.272727 
L 351.613636 300.272727 
L 352.212662 300.272727 
L 352.811688 300.272727 
L 353.410714 300.272727 
L 354.00974 300.272727 
L 354.608766 300.272727 
L 355.207792 300.272727 
L 355.806818 300.272727 
L 356.405844 300.272727 
L 357.00487 300.272727 
L 357.603896 300.272727 
L 358.202922 300.272727 
L 358.801948 300.272727 
L 359.400974 300.272727 
L 360 300.272727 
L 360.599026 300.272727 
L 361.198052 300.272727 
L 361.797078 300.272727 
L 362.396104 300.272727 
L 362.99513 300.272727 
L 363.594156 300.272727 
L 364.193182 300.272727 
L 364.792208 300.272727 
L 365.391234 300.272727 
L 365.99026 300.272727 
L 366.589286 300.272727 
L 367.188312 300.272727 
L 367.787338 300.272727 
L 368.386364 300.272727 
L 368.98539 300.272727 
L 369.584416 300.272727 
L 370.183442 300.272727 
L 370.782468 300.272727 
L 371.381494 300.272727 
L 371.980519 300.272727 
L 372.579545 300.272727 
L 374.376623 300.272727 
L 374.975649 300.272727 
L 375.574675 300.272727 
L 376.173701 300.272727 
L 376.772727 300.272727 
L 377.371753 300.272727 
L 377.970779 300.272727 
L 378.569805 300.272727 
L 379.168831 300.272727 
L 379.767857 300.272727 
L 380.366883 300.272727 
L 380.965909 300.272727 
L 381.564935 300.272727 
L 382.163961 300.272727 
L 382.762987 300.272727 
L 383.362013 300.272727 
L 383.961039 300.272727 
L 384.560065 300.272727 
L 385.159091 300.272727 
L 385.758117 300.272727 
L 386.357143 300.272727 
L 386.956169 300.272727 
L 387.555195 300.272727 
L 388.154221 300.272727 
L 388.753247 300.272727 
L 389.352273 300.272727 
L 389.951299 300.272727 
L 390.550325 300.272727 
L 391.149351 300.272727 
L 391.748377 300.272727 
L 392.347403 300.272727 
L 392.946429 300.272727 
L 393.545455 300.272727 
L 394.144481 300.272727 
L 394.743506 300.272727 
L 395.342532 300.272727 
L 395.941558 300.272727 
L 396.540584 300.272727 
L 397.13961 300.272727 
L 397.738636 300.272727 
L 398.337662 300.272727 
L 398.936688 300.272727 
L 399.535714 300.272727 
L 400.13474 300.272727 
L 400.733766 300.272727 
L 401.332792 300.272727 
L 401.931818 300.272727 
L 402.530844 300.272727 
L 403.12987 300.272727 
L 403.728896 300.272727 
L 404.327922 300.272727 
L 404.926948 300.272727 
L 405.525974 300.272727 
L 406.125 300.272727 
L 406.724026 300.272727 
L 407.323052 300.272727 
L 407.922078 300.272727 
L 408.521104 300.272727 
L 409.12013 300.272727 
L 409.719156 300.272727 
L 410.318182 300.272727 
L 410.917208 300.272727 
L 411.516234 300.272727 
L 412.11526 300.272727 
L 412.714286 300.272727 
L 413.313312 300.272727 
L 413.912338 300.272727 
L 414.511364 300.272727 
L 415.11039 300.272727 
L 415.709416 300.272727 
L 416.308442 300.272727 
L 416.907468 300.272727 
L 417.506494 300.272727 
L 418.105519 300.272727 
L 418.704545 300.272727 
L 419.303571 300.272727 
L 419.902597 300.272727 
L 420.501623 300.272727 
L 421.100649 300.272727 
L 421.699675 300.272727 
L 422.298701 300.272727 
L 422.897727 300.272727 
L 423.496753 300.272727 
L 424.095779 300.272727 
L 424.694805 300.272727 
L 425.293831 300.272727 
L 425.892857 300.272727 
L 426.491883 300.272727 
L 427.090909 300.272727 
L 427.689935 300.272727 
L 428.288961 300.272727 
L 428.887987 300.272727 
L 429.487013 300.272727 
L 430.086039 300.272727 
L 430.685065 300.272727 
L 431.284091 300.272727 
L 431.883117 300.272727 
L 432.482143 300.272727 
L 433.081169 300.272727 
L 433.680195 300.272727 
L 434.279221 300.272727 
L 434.878247 300.272727 
L 435.477273 300.272727 
L 436.076299 300.272727 
L 436.675325 300.272727 
L 437.274351 300.272727 
L 437.873377 300.272727 
L 438.472403 300.272727 
L 439.071429 300.272727 
L 439.670455 300.272727 
L 440.269481 300.272727 
L 440.868506 300.272727 
L 441.467532 300.272727 
L 442.066558 300.272727 
L 442.665584 300.272727 
L 443.26461 300.272727 
L 443.863636 300.272727 
L 444.462662 300.272727 
L 445.061688 300.272727 
L 445.660714 300.272727 
L 446.25974 300.272727 
L 446.858766 300.272727 
L 447.457792 300.272727 
L 448.056818 300.272727 
L 448.655844 300.272727 
L 449.25487 300.272727 
L 449.853896 300.272727 
L 450.452922 300.272727 
L 451.051948 300.272727 
L 451.650974 300.272727 
L 452.25 300.272727 
L 452.849026 300.272727 
L 453.448052 300.272727 
L 454.047078 300.272727 
L 454.646104 300.272727 
L 455.24513 300.272727 
L 455.844156 300.272727 
L 456.443182 300.272727 
L 457.042208 300.272727 
L 457.641234 300.272727 
L 458.24026 300.272727 
L 458.839286 300.272727 
L 459.438312 300.272727 
L 460.037338 300.272727 
L 460.636364 300.272727 
L 461.23539 300.272727 
L 461.834416 300.272727 
L 462.433442 300.272727 
L 463.032468 300.272727 
L 463.631494 300.272727 
L 464.230519 300.272727 
L 464.829545 300.272727 
L 465.428571 300.272727 
L 466.027597 300.272727 
L 466.626623 300.272727 
L 467.225649 300.272727 
L 467.824675 300.272727 
L 468.423701 300.272727 
L 469.022727 300.272727 
L 469.621753 300.272727 
L 470.220779 300.272727 
L 470.819805 300.272727 
L 471.418831 300.272727 
L 472.017857 300.272727 
L 472.616883 300.272727 
L 473.215909 300.272727 
L 473.814935 300.272727 
L 474.413961 300.272727 
L 475.612013 300.272727 
L 476.211039 300.272727 
L 476.810065 300.272727 
L 477.409091 300.272727 
L 478.008117 300.272727 
L 478.607143 300.272727 
L 479.206169 300.272727 
L 479.805195 300.272727 
L 480.404221 300.272727 
L 481.003247 300.272727 
L 481.602273 300.272727 
L 482.201299 300.272727 
L 482.800325 300.272727 
L 483.399351 300.272727 
L 483.998377 300.272727 
L 484.597403 300.272727 
L 485.196429 300.272727 
L 485.795455 300.272727 
L 486.394481 300.272727 
L 486.993506 300.272727 
L 487.592532 300.272727 
L 488.191558 300.272727 
L 488.790584 300.272727 
L 489.38961 300.272727 
L 489.988636 300.272727 
L 490.587662 300.272727 
L 491.186688 300.272727 
L 491.785714 300.272727 
L 492.38474 300.272727 
L 492.983766 300.272727 
L 493.582792 300.272727 
L 494.181818 300.272727 
L 494.780844 300.272727 
L 495.37987 300.272727 
L 495.978896 300.272727 
L 496.577922 300.272727 
L 497.176948 300.272727 
L 497.775974 300.272727 
L 498.375 300.272727 
L 498.974026 300.272727 
L 499.573052 300.272727 
L 500.172078 300.272727 
L 500.771104 300.272727 
L 501.37013 300.272727 
L 501.969156 300.272727 
L 502.568182 300.272727 
L 503.167208 300.272727 
L 503.766234 300.272727 
L 504.36526 300.272727 
L 504.964286 300.272727 
L 505.563312 300.272727 
L 506.162338 300.272727 
L 506.761364 300.272727 
L 507.36039 300.272727 
L 507.959416 300.272727 
L 508.558442 300.272727 
L 509.157468 300.272727 
L 509.756494 300.272727 
L 510.355519 300.272727 
L 510.954545 300.272727 
L 511.553571 300.272727 
L 512.152597 300.272727 
L 512.751623 300.272727 
L 513.350649 300.272727 
L 513.949675 300.272727 
L 514.548701 300.272727 
L 515.147727 300.272727 
L 515.746753 300.272727 
L 516.345779 300.272727 
L 516.944805 300.272727 
L 517.543831 300.272727 
L 518.142857 300.272727 
L 518.741883 300.272727 
L 519.340909 300.272727 
L 519.939935 300.272727 
L 520.538961 300.272727 
L 521.137987 300.272727 
L 521.737013 300.272727 
L 522.336039 300.272727 
L 522.935065 300.272727 
L 523.534091 300.272727 
L 524.133117 300.272727 
L 524.732143 300.272727 
L 525.331169 300.272727 
L 525.930195 300.272727 
L 526.529221 300.272727 
L 527.128247 300.272727 
L 527.727273 300.272727 
L 528.326299 300.272727 
L 528.925325 300.272727 
L 529.524351 300.272727 
L 530.123377 300.272727 
L 530.722403 300.272727 
L 531.321429 300.272727 
L 531.920455 300.272727 
L 532.519481 300.272727 
L 533.118506 300.272727 
L 533.717532 300.272727 
L 534.316558 300.272727 
L 534.915584 300.272727 
L 535.51461 300.272727 
L 536.113636 300.272727 
L 536.712662 300.272727 
L 537.311688 300.272727 
L 537.910714 300.272727 
L 538.50974 300.272727 
L 539.108766 300.272727 
L 539.707792 300.272727 
L 540.306818 300.272727 
L 540.905844 300.272727 
L 541.50487 300.272727 
L 542.103896 300.272727 
L 542.702922 300.272727 
L 543.301948 300.272727 
L 543.900974 300.272727 
L 544.5 300.272727 
L 545.099026 300.272727 
L 545.698052 300.272727 
L 546.297078 300.272727 
L 546.896104 300.272727 
L 547.49513 300.272727 
L 548.094156 300.272727 
L 548.693182 300.272727 
L 549.292208 300.272727 
L 549.891234 300.272727 
L 550.49026 300.272727 
L 551.089286 300.272727 
L 551.688312 300.272727 
L 552.287338 300.272727 
L 552.886364 300.272727 
L 553.48539 300.272727 
L 554.084416 300.272727 
L 554.683442 300.272727 
L 555.282468 300.272727 
L 555.881494 300.272727 
L 556.480519 300.272727 
L 557.079545 300.272727 
L 557.678571 300.272727 
L 558.277597 300.272727 
L 558.876623 300.272727 
L 559.475649 300.272727 
L 560.074675 300.272727 
L 560.673701 300.272727 
L 561.272727 300.272727 
L 561.871753 300.272727 
L 562.470779 300.272727 
L 563.069805 300.272727 
L 563.668831 300.272727 
L 564.267857 300.272727 
L 564.866883 300.272727 
L 565.465909 300.272727 
L 566.064935 300.272727 
L 566.663961 300.272727 
L 567.262987 300.272727 
L 567.862013 300.272727 
L 568.461039 300.272727 
L 569.060065 300.272727 
L 569.659091 300.272727 
L 570.258117 300.272727 
L 570.857143 300.272727 
L 571.456169 300.272727 
L 572.055195 300.272727 
L 572.654221 300.272727 
L 573.253247 300.272727 
L 573.852273 300.272727 
L 574.451299 300.272727 
L 575.050325 300.272727 
L 575.649351 300.272727 
L 576.248377 300.272727 
L 576.847403 300.272727 
L 577.446429 300.272727 
L 578.045455 300.272727 
L 578.644481 300.272727 
L 579.243506 300.272727 
L 579.842532 300.272727 
L 580.441558 300.272727 
L 581.040584 300.272727 
L 581.63961 300.272727 
L 582.238636 300.272727 
L 582.837662 300.272727 
L 583.436688 300.272727 
L 584.035714 300.272727 
L 584.63474 300.272727 
L 585.233766 300.272727 
L 585.832792 300.272727 
L 586.431818 300.272727 
L 587.030844 300.272727 
L 587.62987 300.272727 
L 588.228896 300.272727 
L 588.827922 300.272727 
L 589.426948 300.272727 
L 590.025974 300.272727 
L 590.625 300.272727 
L 591.224026 300.272727 
L 591.823052 300.272727 
L 592.422078 300.272727 
L 593.021104 300.272727 
L 593.62013 300.272727 
L 594.219156 300.272727 
L 594.818182 300.272727 
L 595.417208 300.272727 
L 596.016234 300.272727 
L 596.61526 300.272727 
L 597.214286 300.272727 
L 597.813312 300.272727 
L 598.412338 300.272727 
L 599.011364 300.272727 
L 599.61039 300.272727 
L 600.209416 300.272727 
L 600.808442 300.272727 
L 601.407468 300.272727 
L 602.006494 300.272727 
L 602.605519 300.272727 
L 612.788961 300.272727 
L 613.387987 300.272727 
L 613.987013 300.272727 
L 614.586039 300.272727 
L 615.185065 300.272727 
L 615.784091 300.272727 
L 616.383117 300.272727 
L 616.982143 300.272727 
L 617.581169 300.272727 
L 618.180195 300.272727 
L 618.779221 300.272727 
L 619.378247 300.272727 
L 619.977273 300.272727 
L 620.576299 300.272727 
L 621.175325 300.272727 
L 621.774351 300.272727 
L 622.373377 300.272727 
L 622.972403 300.272727 
L 623.571429 300.272727 
L 624.170455 300.272727 
L 624.769481 300.272727 
L 625.368506 300.272727 
L 625.967532 300.272727 
L 626.566558 300.272727 
L 627.165584 300.272727 
L 627.76461 300.272727 
L 628.363636 300.272727 
L 628.363636 300.272727 
L 628.363636 298.696231 
L 627.76461 298.170732 
L 627.165584 297.645233 
L 626.566558 298.170732 
L 625.967532 298.170732 
L 625.368506 297.119734 
L 624.769481 297.119734 
L 624.170455 297.119734 
L 623.571429 298.696231 
L 622.972403 298.170732 
L 622.373377 298.170732 
L 621.774351 295.543237 
L 621.175325 296.594235 
L 620.576299 297.119734 
L 619.977273 297.119734 
L 619.378247 298.170732 
L 618.779221 297.645233 
L 618.180195 298.170732 
L 617.581169 297.645233 
L 616.982143 298.170732 
L 616.383117 296.594235 
L 615.784091 296.068736 
L 615.185065 298.170732 
L 614.586039 299.747228 
L 613.987013 296.068736 
L 613.387987 292.915743 
L 612.788961 209.886918 
L 602.605519 298.170732 
L 602.006494 297.645233 
L 601.407468 295.543237 
L 600.808442 297.645233 
L 600.209416 294.492239 
L 599.61039 297.645233 
L 599.011364 246.67184 
L 598.412338 296.594235 
L 597.813312 289.762749 
L 597.214286 296.068736 
L 596.61526 295.543237 
L 596.016234 262.436807 
L 595.417208 291.864745 
L 594.818182 297.645233 
L 594.219156 294.492239 
L 593.62013 290.813747 
L 593.021104 296.594235 
L 592.422078 297.645233 
L 591.823052 298.170732 
L 591.224026 298.170732 
L 590.625 298.170732 
L 590.025974 297.645233 
L 589.426948 298.170732 
L 588.827922 298.170732 
L 588.228896 297.119734 
L 587.62987 297.645233 
L 587.030844 296.068736 
L 586.431818 297.119734 
L 585.832792 293.441242 
L 585.233766 297.645233 
L 584.63474 297.119734 
L 584.035714 298.170732 
L 583.436688 297.645233 
L 582.837662 297.645233 
L 582.238636 298.170732 
L 581.63961 297.645233 
L 581.040584 297.119734 
L 580.441558 297.119734 
L 579.842532 297.119734 
L 579.243506 295.543237 
L 578.644481 296.594235 
L 578.045455 286.609756 
L 577.446429 297.119734 
L 576.847403 293.441242 
L 576.248377 295.543237 
L 575.649351 297.119734 
L 575.050325 297.645233 
L 574.451299 298.170732 
L 573.852273 295.543237 
L 573.253247 296.068736 
L 572.654221 297.119734 
L 572.055195 293.966741 
L 571.456169 298.170732 
L 570.857143 295.543237 
L 570.258117 296.594235 
L 569.659091 298.170732 
L 569.060065 296.068736 
L 568.461039 295.543237 
L 567.862013 297.119734 
L 567.262987 298.170732 
L 566.663961 297.645233 
L 566.064935 297.119734 
L 565.465909 295.017738 
L 564.866883 295.017738 
L 564.267857 293.966741 
L 563.668831 294.492239 
L 563.069805 289.762749 
L 562.470779 295.543237 
L 561.871753 297.645233 
L 561.272727 296.068736 
L 560.673701 297.645233 
L 560.074675 297.645233 
L 559.475649 295.543237 
L 558.876623 295.543237 
L 558.277597 296.594235 
L 557.678571 297.645233 
L 557.079545 296.594235 
L 556.480519 259.809313 
L 555.881494 287.660754 
L 555.282468 287.660754 
L 554.683442 291.339246 
L 554.084416 293.441242 
L 553.48539 270.31929 
L 552.886364 297.645233 
L 552.287338 295.017738 
L 551.688312 295.017738 
L 551.089286 297.645233 
L 550.49026 296.594235 
L 549.891234 297.645233 
L 549.292208 297.645233 
L 548.693182 297.119734 
L 548.094156 297.645233 
L 547.49513 281.354767 
L 546.896104 296.594235 
L 546.297078 290.288248 
L 545.698052 298.170732 
L 545.099026 297.119734 
L 544.5 271.895787 
L 543.900974 297.119734 
L 543.301948 296.594235 
L 542.702922 297.119734 
L 542.103896 281.880266 
L 541.50487 292.390244 
L 540.905844 298.170732 
L 540.306818 295.017738 
L 539.707792 296.594235 
L 539.108766 268.217295 
L 538.50974 248.773836 
L 537.910714 268.217295 
L 537.311688 292.915743 
L 536.712662 290.813747 
L 536.113636 238.789357 
L 535.51461 240.365854 
L 534.915584 295.543237 
L 534.316558 296.068736 
L 533.717532 297.119734 
L 533.118506 296.594235 
L 532.519481 297.645233 
L 531.920455 296.594235 
L 531.321429 294.492239 
L 530.722403 297.645233 
L 530.123377 298.170732 
L 529.524351 266.640798 
L 528.925325 298.170732 
L 528.326299 291.864745 
L 527.727273 297.119734 
L 527.128247 295.543237 
L 526.529221 297.119734 
L 525.930195 297.119734 
L 525.331169 294.492239 
L 524.732143 296.594235 
L 524.133117 296.594235 
L 523.534091 294.492239 
L 522.935065 278.727273 
L 522.336039 298.696231 
L 521.737013 292.915743 
L 521.137987 295.017738 
L 520.538961 295.017738 
L 519.939935 296.068736 
L 519.340909 278.727273 
L 518.741883 260.86031 
L 518.142857 277.150776 
L 517.543831 290.288248 
L 516.944805 295.543237 
L 516.345779 295.543237 
L 515.746753 296.068736 
L 515.147727 292.915743 
L 514.548701 292.915743 
L 513.949675 294.492239 
L 513.350649 282.405765 
L 512.751623 261.385809 
L 512.152597 290.813747 
L 511.553571 255.079823 
L 510.954545 251.926829 
L 510.355519 288.711752 
L 509.756494 292.390244 
L 509.157468 249.299335 
L 508.558442 290.813747 
L 507.959416 285.558758 
L 507.36039 290.813747 
L 506.761364 293.966741 
L 506.162338 289.762749 
L 505.563312 294.492239 
L 504.964286 278.201774 
L 504.36526 292.915743 
L 503.766234 296.594235 
L 503.167208 296.594235 
L 502.568182 297.119734 
L 501.969156 295.543237 
L 501.37013 274.523282 
L 500.771104 262.962306 
L 500.172078 272.421286 
L 499.573052 296.068736 
L 498.974026 293.441242 
L 498.375 290.813747 
L 497.775974 291.339246 
L 497.176948 298.170732 
L 496.577922 292.915743 
L 495.978896 296.594235 
L 495.37987 298.170732 
L 494.780844 296.068736 
L 494.181818 266.115299 
L 493.582792 266.115299 
L 492.983766 264.538803 
L 492.38474 230.906874 
L 491.785714 264.013304 
L 491.186688 298.170732 
L 490.587662 298.170732 
L 489.988636 293.966741 
L 489.38961 297.119734 
L 488.790584 274.523282 
L 488.191558 230.381375 
L 487.592532 251.926829 
L 486.993506 298.170732 
L 486.394481 297.119734 
L 485.795455 298.170732 
L 485.196429 288.711752 
L 484.597403 293.441242 
L 483.998377 290.813747 
L 483.399351 291.339246 
L 482.800325 293.441242 
L 482.201299 292.390244 
L 481.602273 293.966741 
L 481.003247 296.594235 
L 480.404221 298.170732 
L 479.805195 295.543237 
L 479.206169 297.645233 
L 478.607143 297.119734 
L 478.008117 296.594235 
L 477.409091 296.594235 
L 476.810065 297.119734 
L 476.211039 295.543237 
L 475.612013 288.186253 
L 474.413961 298.170732 
L 473.814935 297.119734 
L 473.215909 297.119734 
L 472.616883 297.119734 
L 472.017857 290.813747 
L 471.418831 298.170732 
L 470.819805 297.119734 
L 470.220779 297.119734 
L 469.621753 298.170732 
L 469.022727 298.170732 
L 468.423701 296.068736 
L 467.824675 299.221729 
L 467.225649 298.170732 
L 466.626623 288.186253 
L 466.027597 298.170732 
L 465.428571 297.119734 
L 464.829545 296.594235 
L 464.230519 295.543237 
L 463.631494 295.017738 
L 463.032468 297.645233 
L 462.433442 295.017738 
L 461.834416 297.119734 
L 461.23539 297.645233 
L 460.636364 297.119734 
L 460.037338 293.441242 
L 459.438312 297.645233 
L 458.839286 295.543237 
L 458.24026 297.119734 
L 457.641234 296.594235 
L 457.042208 295.017738 
L 456.443182 256.656319 
L 455.844156 279.252772 
L 455.24513 283.456763 
L 454.646104 293.966741 
L 454.047078 266.115299 
L 453.448052 298.170732 
L 452.849026 294.492239 
L 452.25 297.119734 
L 451.650974 295.017738 
L 451.051948 293.966741 
L 450.452922 295.017738 
L 449.853896 295.017738 
L 449.25487 297.119734 
L 448.655844 296.594235 
L 448.056818 232.48337 
L 447.457792 173.627494 
L 446.858766 204.10643 
L 446.25974 233.008869 
L 445.660714 297.119734 
L 445.061688 294.492239 
L 444.462662 292.390244 
L 443.863636 229.855876 
L 443.26461 241.94235 
L 442.665584 292.390244 
L 442.066558 293.441242 
L 441.467532 288.711752 
L 440.868506 285.033259 
L 440.269481 228.279379 
L 439.670455 226.177384 
L 439.071429 290.813747 
L 438.472403 291.339246 
L 437.873377 287.660754 
L 437.274351 289.237251 
L 436.675325 293.966741 
L 436.076299 295.017738 
L 435.477273 285.558758 
L 434.878247 292.915743 
L 434.279221 269.268293 
L 433.680195 200.953437 
L 433.081169 234.585366 
L 432.482143 295.543237 
L 431.883117 197.274945 
L 431.284091 185.18847 
L 430.685065 294.492239 
L 430.086039 288.711752 
L 429.487013 297.119734 
L 428.887987 270.844789 
L 428.288961 298.170732 
L 427.689935 245.620843 
L 427.090909 247.722838 
L 426.491883 296.068736 
L 425.892857 298.170732 
L 425.293831 297.119734 
L 424.694805 295.543237 
L 424.095779 298.170732 
L 423.496753 294.492239 
L 422.897727 293.441242 
L 422.298701 296.068736 
L 421.699675 200.953437 
L 421.100649 208.83592 
L 420.501623 266.640798 
L 419.902597 294.492239 
L 419.303571 282.931264 
L 418.704545 266.115299 
L 418.105519 243.518847 
L 417.506494 242.993348 
L 416.907468 205.157428 
L 416.308442 234.585366 
L 415.709416 273.472284 
L 415.11039 206.208426 
L 414.511364 248.248337 
L 413.912338 280.303769 
L 413.313312 287.660754 
L 412.714286 296.594235 
L 412.11526 295.543237 
L 411.516234 293.966741 
L 410.917208 296.068736 
L 410.318182 294.492239 
L 409.719156 287.135255 
L 409.12013 255.605322 
L 408.521104 290.288248 
L 407.922078 298.170732 
L 407.323052 295.543237 
L 406.724026 293.966741 
L 406.125 287.660754 
L 405.525974 297.645233 
L 404.926948 296.068736 
L 404.327922 296.068736 
L 403.728896 295.543237 
L 403.12987 285.033259 
L 402.530844 296.068736 
L 401.931818 273.997783 
L 401.332792 285.558758 
L 400.733766 293.966741 
L 400.13474 293.966741 
L 399.535714 296.594235 
L 398.936688 296.594235 
L 398.337662 296.594235 
L 397.738636 287.660754 
L 397.13961 256.13082 
L 396.540584 247.197339 
L 395.941558 273.472284 
L 395.342532 288.711752 
L 394.743506 291.864745 
L 394.144481 278.727273 
L 393.545455 255.605322 
L 392.946429 244.044346 
L 392.347403 248.773836 
L 391.748377 248.248337 
L 391.149351 239.840355 
L 390.550325 294.492239 
L 389.951299 291.339246 
L 389.352273 254.554324 
L 388.753247 287.660754 
L 388.154221 288.186253 
L 387.555195 253.503326 
L 386.956169 295.017738 
L 386.357143 287.135255 
L 385.758117 290.813747 
L 385.159091 248.773836 
L 384.560065 225.126386 
L 383.961039 239.314856 
L 383.362013 266.640798 
L 382.762987 285.033259 
L 382.163961 290.288248 
L 381.564935 296.068736 
L 380.965909 248.248337 
L 380.366883 266.115299 
L 379.767857 283.982262 
L 379.168831 233.008869 
L 378.569805 238.263858 
L 377.970779 265.5898 
L 377.371753 271.370288 
L 376.772727 176.780488 
L 376.173701 289.762749 
L 375.574675 262.962306 
L 374.975649 202.529933 
L 374.376623 201.478936 
L 372.579545 273.472284 
L 371.980519 236.687361 
L 371.381494 191.494457 
L 370.782468 242.467849 
L 370.183442 243.518847 
L 369.584416 286.084257 
L 368.98539 272.421286 
L 368.386364 270.844789 
L 367.787338 174.152993 
L 367.188312 222.498891 
L 366.589286 282.405765 
L 365.99026 259.809313 
L 365.391234 265.5898 
L 364.792208 182.560976 
L 364.193182 228.804878 
L 363.594156 270.31929 
L 362.99513 228.279379 
L 362.396104 219.871397 
L 361.797078 237.21286 
L 361.198052 254.028825 
L 360.599026 262.962306 
L 360 217.769401 
L 359.400974 213.039911 
L 358.801948 236.687361 
L 358.202922 224.600887 
L 357.603896 212.514412 
L 357.00487 265.5898 
L 356.405844 178.882483 
L 355.806818 219.871397 
L 355.207792 232.48337 
L 354.608766 209.886918 
L 354.00974 104.78714 
L 353.410714 246.146341 
L 352.811688 265.064302 
L 352.212662 189.91796 
L 351.613636 188.341463 
L 351.01461 239.840355 
L 350.415584 168.372506 
L 349.816558 67.476718 
L 348.618506 228.279379 
L 348.019481 244.044346 
L 347.420455 204.631929 
L 346.821429 220.396896 
L 346.222403 178.882483 
L 345.623377 160.490022 
L 345.024351 189.392461 
L 344.425325 262.962306 
L 337.237013 198.851441 
L 336.637987 188.866962 
L 336.038961 256.13082 
L 335.439935 288.711752 
L 334.840909 278.201774 
L 334.241883 276.625277 
L 333.642857 273.472284 
L 333.043831 247.197339 
L 332.444805 275.04878 
L 331.845779 285.033259 
L 331.246753 288.186253 
L 330.647727 251.926829 
L 330.048701 196.749446 
L 329.449675 142.62306 
L 328.850649 58.017738 
L 328.251623 161.54102 
L 327.652597 275.04878 
L 327.053571 275.574279 
L 326.454545 281.354767 
L 325.855519 270.844789 
L 325.256494 242.993348 
L 324.657468 272.946785 
L 324.058442 279.778271 
L 323.459416 286.609756 
L 322.86039 287.135255 
L 322.261364 289.237251 
L 321.662338 283.982262 
L 321.063312 274.523282 
L 320.464286 169.949002 
L 319.86526 167.321508 
L 319.266234 201.478936 
L 318.667208 190.443459 
L 318.068182 214.616408 
L 317.469156 279.778271 
L 316.87013 272.421286 
L 316.271104 241.416851 
L 315.672078 284.507761 
L 315.073052 273.997783 
L 314.474026 270.31929 
L 313.875 254.554324 
L 313.275974 190.968958 
L 312.676948 198.851441 
L 312.077922 247.197339 
L 311.478896 204.631929 
L 310.87987 196.749446 
L 310.280844 180.45898 
L 309.681818 173.627494 
L 309.082792 171.525499 
L 308.483766 185.713969 
L 307.88474 144.725055 
L 307.285714 117.924612 
L 306.686688 171.525499 
L 306.087662 195.172949 
L 305.488636 190.443459 
L 304.88961 162.066519 
L 304.290584 179.933481 
L 303.691558 204.631929 
L 303.092532 149.454545 
L 302.493506 122.128603 
L 301.894481 157.337029 
L 301.295455 209.886918 
L 300.696429 210.937916 
L 300.097403 186.239468 
L 299.498377 207.259424 
L 298.899351 235.110865 
L 298.300325 292.390244 
L 297.701299 287.135255 
L 297.102273 230.906874 
L 296.503247 234.585366 
L 295.904221 288.711752 
L 295.305195 284.507761 
L 294.706169 229.855876 
L 294.107143 282.931264 
L 293.508117 289.762749 
L 292.909091 280.829268 
L 292.310065 262.962306 
L 291.711039 237.738359 
L 291.112013 291.864745 
L 290.512987 284.507761 
L 289.913961 286.609756 
L 289.314935 290.288248 
L 288.715909 213.56541 
L 288.116883 249.299335 
L 287.517857 292.390244 
L 286.918831 276.099778 
L 286.319805 272.421286 
L 285.720779 272.421286 
L 285.121753 287.660754 
L 284.522727 286.084257 
L 283.923701 291.864745 
L 283.324675 287.660754 
L 282.725649 288.186253 
L 282.126623 282.931264 
L 281.527597 291.864745 
L 280.928571 282.405765 
L 280.329545 290.813747 
L 279.730519 235.636364 
L 279.131494 258.758315 
L 278.532468 289.762749 
L 277.933442 230.381375 
L 277.334416 255.079823 
L 276.73539 288.711752 
L 276.136364 279.778271 
L 275.537338 290.288248 
L 274.938312 277.150776 
L 274.339286 256.13082 
L 273.74026 285.558758 
L 273.141234 290.813747 
L 272.542208 286.084257 
L 271.943182 284.507761 
L 271.344156 292.390244 
L 270.74513 279.778271 
L 270.146104 280.829268 
L 269.547078 271.895787 
L 268.948052 276.625277 
L 268.349026 276.099778 
L 267.75 253.503326 
L 267.150974 275.574279 
L 266.551948 287.135255 
L 265.952922 265.5898 
L 265.353896 268.217295 
L 264.75487 213.039911 
L 264.155844 143.674058 
L 263.556818 189.392461 
L 262.957792 180.45898 
L 262.358766 292.915743 
L 261.75974 268.742794 
L 261.160714 268.217295 
L 260.561688 291.339246 
L 259.962662 291.339246 
L 259.363636 286.084257 
L 258.76461 270.31929 
L 258.165584 259.283814 
L 257.566558 261.385809 
L 256.967532 291.339246 
L 256.368506 291.864745 
L 255.769481 285.033259 
L 255.170455 251.926829 
L 254.571429 290.813747 
L 253.972403 287.660754 
L 253.373377 241.416851 
L 252.774351 261.385809 
L 252.175325 279.778271 
L 251.576299 284.507761 
L 250.977273 280.829268 
L 250.378247 267.691796 
L 249.779221 287.660754 
L 249.180195 271.895787 
L 248.581169 278.727273 
L 247.982143 285.033259 
L 247.383117 285.558758 
L 246.784091 284.507761 
L 246.185065 281.880266 
L 245.586039 222.498891 
L 244.987013 258.232816 
L 244.387987 262.436807 
L 243.788961 282.931264 
L 243.189935 278.201774 
L 242.590909 267.691796 
L 241.991883 279.778271 
L 241.392857 242.993348 
L 240.793831 264.013304 
L 240.194805 277.676275 
L 239.595779 267.166297 
L 238.996753 275.574279 
L 238.397727 280.303769 
L 237.798701 207.784922 
L 237.199675 270.31929 
L 236.600649 278.201774 
L 236.001623 272.421286 
L 235.402597 273.997783 
L 234.803571 268.742794 
L 234.204545 265.5898 
L 233.605519 250.875831 
L 233.006494 224.600887 
L 232.407468 224.600887 
L 231.808442 235.110865 
L 231.209416 276.099778 
L 230.61039 270.31929 
L 230.011364 234.059867 
L 229.412338 186.764967 
L 228.813312 176.780488 
L 228.214286 226.702882 
L 227.61526 267.166297 
L 227.016234 270.844789 
L 226.417208 285.558758 
L 225.818182 229.330377 
L 225.219156 279.778271 
L 224.62013 279.252772 
L 224.021104 252.977827 
L 223.422078 269.793792 
L 222.823052 196.749446 
L 222.224026 222.498891 
L 221.625 209.361419 
L 221.025974 235.636364 
L 220.426948 254.554324 
L 219.827922 267.691796 
L 219.228896 267.166297 
L 218.62987 277.676275 
L 218.030844 276.099778 
L 217.431818 244.044346 
L 216.832792 195.172949 
L 215.63474 277.150776 
L 215.035714 264.538803 
L 214.436688 247.722838 
L 213.837662 240.891353 
L 213.238636 261.911308 
L 212.63961 268.217295 
L 212.040584 242.467849 
L 211.441558 268.217295 
L 210.842532 247.197339 
L 210.243506 251.926829 
L 209.644481 230.906874 
L 209.045455 233.008869 
L 208.446429 246.67184 
L 207.847403 239.840355 
L 207.248377 203.055432 
L 206.649351 83.241685 
L 206.050325 167.321508 
L 205.451299 166.796009 
L 204.852273 161.54102 
L 204.253247 150.505543 
L 203.654221 260.86031 
L 203.055195 213.56541 
L 202.456169 257.181818 
L 201.857143 272.421286 
L 201.258117 269.268293 
L 200.659091 276.625277 
L 200.060065 268.217295 
L 199.461039 280.829268 
L 198.862013 237.21286 
L 198.262987 267.691796 
L 197.663961 270.31929 
L 197.064935 283.982262 
L 196.465909 227.228381 
L 195.866883 211.988914 
L 195.267857 266.640798 
L 194.668831 191.494457 
L 194.069805 197.800443 
L 193.470779 184.137472 
L 192.871753 199.902439 
L 192.272727 214.090909 
L 191.673701 199.37694 
L 191.074675 157.337029 
L 190.475649 220.396896 
L 189.876623 256.656319 
L 189.277597 280.303769 
L 188.678571 261.911308 
L 188.079545 277.676275 
L 187.480519 262.436807 
L 186.881494 276.625277 
L 186.282468 277.150776 
L 185.683442 267.166297 
L 185.084416 265.5898 
L 184.48539 269.268293 
L 183.886364 239.840355 
L 183.287338 261.385809 
L 182.688312 261.911308 
L 182.089286 255.605322 
L 181.49026 275.04878 
L 180.891234 279.778271 
L 180.292208 265.5898 
L 179.693182 235.110865 
L 179.094156 190.968958 
L 178.49513 242.993348 
L 177.896104 178.356984 
L 177.297078 180.45898 
L 176.698052 269.793792 
L 176.099026 287.135255 
L 175.5 142.097561 
L 174.900974 124.230599 
L 174.301948 223.02439 
L 173.702922 249.299335 
L 173.103896 277.676275 
L 172.50487 287.660754 
L 171.905844 279.778271 
L 171.306818 202.529933 
L 170.707792 277.150776 
L 170.108766 257.181818 
L 169.50974 265.064302 
L 168.910714 282.931264 
L 168.311688 279.778271 
L 167.712662 278.201774 
L 167.113636 258.758315 
L 166.51461 241.94235 
L 165.915584 285.033259 
L 165.316558 285.558758 
L 164.717532 255.605322 
L 164.118506 192.545455 
L 163.519481 209.361419 
L 162.321429 268.742794 
L 161.722403 237.21286 
L 161.123377 224.075388 
L 160.524351 282.931264 
L 159.925325 271.370288 
L 159.326299 287.135255 
L 158.727273 253.503326 
L 158.128247 292.390244 
L 157.529221 285.558758 
L 156.930195 280.303769 
L 156.331169 282.405765 
L 155.732143 286.084257 
L 155.133117 272.421286 
L 154.534091 282.405765 
L 153.935065 277.676275 
L 153.336039 256.13082 
L 152.737013 286.084257 
L 152.137987 279.252772 
L 151.538961 236.687361 
L 150.939935 232.48337 
L 150.340909 286.609756 
L 149.741883 255.605322 
L 149.142857 254.028825 
L 148.543831 234.585366 
L 147.944805 255.079823 
L 147.345779 282.931264 
L 146.746753 286.084257 
L 146.147727 286.609756 
L 145.548701 266.640798 
L 144.949675 288.186253 
L 144.350649 194.121951 
L 143.751623 41.727273 
L 143.152597 128.43459 
L 142.553571 74.308204 
L 141.954545 84.818182 
L 141.355519 160.490022 
L 140.756494 115.822616 
L 140.157468 244.044346 
L 139.558442 271.895787 
L 138.959416 293.441242 
L 138.36039 229.330377 
L 137.761364 192.019956 
L 137.162338 189.392461 
L 136.563312 194.121951 
L 135.964286 185.713969 
L 135.36526 210.937916 
L 134.766234 211.463415 
L 134.167208 210.937916 
L 133.568182 240.891353 
L 132.969156 288.186253 
L 132.37013 279.252772 
L 131.771104 286.084257 
L 131.172078 276.625277 
L 130.573052 270.844789 
L 129.974026 269.268293 
L 129.375 250.350333 
L 128.775974 282.405765 
L 128.176948 280.829268 
L 127.577922 255.079823 
L 126.978896 271.370288 
L 126.37987 257.181818 
L 125.780844 242.993348 
L 125.181818 269.793792 
L 124.582792 236.161863 
L 123.983766 261.911308 
L 123.38474 159.439024 
L 122.785714 96.379157 
L 122.186688 186.764967 
L 121.587662 187.290466 
L 120.988636 190.968958 
L 120.38961 196.223947 
L 119.790584 166.27051 
L 119.191558 190.968958 
L 118.592532 169.423503 
L 117.993506 183.086475 
L 117.394481 182.560976 
L 116.795455 192.545455 
L 116.196429 182.560976 
L 115.597403 228.804878 
L 114.998377 278.201774 
L 114.399351 194.121951 
L 113.800325 189.91796 
L 113.201299 177.831486 
L 112.602273 179.407982 
L 112.003247 203.055432 
L 111.404221 204.631929 
L 110.805195 128.960089 
L 110.206169 155.235033 
L 109.607143 66.95122 
L 109.008117 100.583149 
L 108.409091 119.501109 
L 107.810065 143.674058 
L 107.211039 203.055432 
L 106.612013 200.953437 
L 106.012987 209.886918 
L 105.413961 265.064302 
L 104.814935 283.982262 
L 104.215909 283.456763 
L 103.616883 188.866962 
L 103.017857 115.822616 
L 102.418831 139.995565 
L 101.819805 140.521064 
L 101.220779 197.274945 
L 100.621753 205.157428 
L 100.022727 204.631929 
L 99.423701 140.521064 
L 98.824675 208.310421 
L 98.225649 265.5898 
L 97.626623 238.263858 
L 97.027597 255.605322 
L 96.428571 285.558758 
L 94.631494 284.507761 
L 94.032468 197.274945 
L 93.433442 228.804878 
L 92.834416 262.962306 
L 92.23539 280.303769 
L 91.636364 275.04878 
z
" style="fill:#ffa07a;fill-opacity:0.3;"/>
   </g>
   <g id="matplotlib.axis_1">
    <g id="xtick_1">
     <g id="line2d_1">
      <path clip-path="url(#p669f5e6b3f)" d="M 91.636364 313.2 
L 91.636364 28.8 
" style="fill:none;stroke:#808080;stroke-dasharray:6.4,1.6,1,1.6;stroke-dashoffset:0;stroke-opacity:0.3;"/>
     </g>
     <g id="line2d_2">
      <defs>
       <path d="M 0 0 
L 0 3.5 
" id="mc899ccf6ce" style="stroke:#000000;stroke-width:0.8;"/>
      </defs>
      <g>
       <use style="stroke:#000000;stroke-width:0.8;" x="91.636364" xlink:href="#mc899ccf6ce" y="313.2"/>
      </g>
     </g>
     <g id="text_1">
      <!-- 2020-11-20 -->
      <g transform="translate(62.578551 327.798437)scale(0.1 -0.1)">
       <defs>
        <path d="M 19.1875 8.296875 
L 53.609375 8.296875 
L 53.609375 0 
L 7.328125 0 
L 7.328125 8.296875 
Q 12.9375 14.109375 22.625 23.890625 
Q 32.328125 33.6875 34.8125 36.53125 
Q 39.546875 41.84375 41.421875 45.53125 
Q 43.3125 49.21875 43.3125 52.78125 
Q 43.3125 58.59375 39.234375 62.25 
Q 35.15625 65.921875 28.609375 65.921875 
Q 23.96875 65.921875 18.8125 64.3125 
Q 13.671875 62.703125 7.8125 59.421875 
L 7.8125 69.390625 
Q 13.765625 71.78125 18.9375 73 
Q 24.125 74.21875 28.421875 74.21875 
Q 39.75 74.21875 46.484375 68.546875 
Q 53.21875 62.890625 53.21875 53.421875 
Q 53.21875 48.921875 51.53125 44.890625 
Q 49.859375 40.875 45.40625 35.40625 
Q 44.1875 33.984375 37.640625 27.21875 
Q 31.109375 20.453125 19.1875 8.296875 
z
" id="DejaVuSans-50"/>
        <path d="M 31.78125 66.40625 
Q 24.171875 66.40625 20.328125 58.90625 
Q 16.5 51.421875 16.5 36.375 
Q 16.5 21.390625 20.328125 13.890625 
Q 24.171875 6.390625 31.78125 6.390625 
Q 39.453125 6.390625 43.28125 13.890625 
Q 47.125 21.390625 47.125 36.375 
Q 47.125 51.421875 43.28125 58.90625 
Q 39.453125 66.40625 31.78125 66.40625 
z
M 31.78125 74.21875 
Q 44.046875 74.21875 50.515625 64.515625 
Q 56.984375 54.828125 56.984375 36.375 
Q 56.984375 17.96875 50.515625 8.265625 
Q 44.046875 -1.421875 31.78125 -1.421875 
Q 19.53125 -1.421875 13.0625 8.265625 
Q 6.59375 17.96875 6.59375 36.375 
Q 6.59375 54.828125 13.0625 64.515625 
Q 19.53125 74.21875 31.78125 74.21875 
z
" id="DejaVuSans-48"/>
        <path d="M 4.890625 31.390625 
L 31.203125 31.390625 
L 31.203125 23.390625 
L 4.890625 23.390625 
z
" id="DejaVuSans-45"/>
        <path d="M 12.40625 8.296875 
L 28.515625 8.296875 
L 28.515625 63.921875 
L 10.984375 60.40625 
L 10.984375 69.390625 
L 28.421875 72.90625 
L 38.28125 72.90625 
L 38.28125 8.296875 
L 54.390625 8.296875 
L 54.390625 0 
L 12.40625 0 
z
" id="DejaVuSans-49"/>
       </defs>
       <use xlink:href="#DejaVuSans-50"/>
       <use x="63.623047" xlink:href="#DejaVuSans-48"/>
       <use x="127.246094" xlink:href="#DejaVuSans-50"/>
       <use x="190.869141" xlink:href="#DejaVuSans-48"/>
       <use x="254.492188" xlink:href="#DejaVuSans-45"/>
       <use x="290.576172" xlink:href="#DejaVuSans-49"/>
       <use x="354.199219" xlink:href="#DejaVuSans-49"/>
       <use x="417.822266" xlink:href="#DejaVuSans-45"/>
       <use x="453.90625" xlink:href="#DejaVuSans-50"/>
       <use x="517.529297" xlink:href="#DejaVuSans-48"/>
      </g>
     </g>
    </g>
    <g id="xtick_2">
     <g id="line2d_3">
      <path clip-path="url(#p669f5e6b3f)" d="M 168.311688 313.2 
L 168.311688 28.8 
" style="fill:none;stroke:#808080;stroke-dasharray:6.4,1.6,1,1.6;stroke-dashoffset:0;stroke-opacity:0.3;"/>
     </g>
     <g id="line2d_4">
      <g>
       <use style="stroke:#000000;stroke-width:0.8;" x="168.311688" xlink:href="#mc899ccf6ce" y="313.2"/>
      </g>
     </g>
     <g id="text_2">
      <!-- 2021-03-28 -->
      <g transform="translate(139.253876 327.798437)scale(0.1 -0.1)">
       <defs>
        <path d="M 40.578125 39.3125 
Q 47.65625 37.796875 51.625 33 
Q 55.609375 28.21875 55.609375 21.1875 
Q 55.609375 10.40625 48.1875 4.484375 
Q 40.765625 -1.421875 27.09375 -1.421875 
Q 22.515625 -1.421875 17.65625 -0.515625 
Q 12.796875 0.390625 7.625 2.203125 
L 7.625 11.71875 
Q 11.71875 9.328125 16.59375 8.109375 
Q 21.484375 6.890625 26.8125 6.890625 
Q 36.078125 6.890625 40.9375 10.546875 
Q 45.796875 14.203125 45.796875 21.1875 
Q 45.796875 27.640625 41.28125 31.265625 
Q 36.765625 34.90625 28.71875 34.90625 
L 20.21875 34.90625 
L 20.21875 43.015625 
L 29.109375 43.015625 
Q 36.375 43.015625 40.234375 45.921875 
Q 44.09375 48.828125 44.09375 54.296875 
Q 44.09375 59.90625 40.109375 62.90625 
Q 36.140625 65.921875 28.71875 65.921875 
Q 24.65625 65.921875 20.015625 65.03125 
Q 15.375 64.15625 9.8125 62.3125 
L 9.8125 71.09375 
Q 15.4375 72.65625 20.34375 73.4375 
Q 25.25 74.21875 29.59375 74.21875 
Q 40.828125 74.21875 47.359375 69.109375 
Q 53.90625 64.015625 53.90625 55.328125 
Q 53.90625 49.265625 50.4375 45.09375 
Q 46.96875 40.921875 40.578125 39.3125 
z
" id="DejaVuSans-51"/>
        <path d="M 31.78125 34.625 
Q 24.75 34.625 20.71875 30.859375 
Q 16.703125 27.09375 16.703125 20.515625 
Q 16.703125 13.921875 20.71875 10.15625 
Q 24.75 6.390625 31.78125 6.390625 
Q 38.8125 6.390625 42.859375 10.171875 
Q 46.921875 13.96875 46.921875 20.515625 
Q 46.921875 27.09375 42.890625 30.859375 
Q 38.875 34.625 31.78125 34.625 
z
M 21.921875 38.8125 
Q 15.578125 40.375 12.03125 44.71875 
Q 8.5 49.078125 8.5 55.328125 
Q 8.5 64.0625 14.71875 69.140625 
Q 20.953125 74.21875 31.78125 74.21875 
Q 42.671875 74.21875 48.875 69.140625 
Q 55.078125 64.0625 55.078125 55.328125 
Q 55.078125 49.078125 51.53125 44.71875 
Q 48 40.375 41.703125 38.8125 
Q 48.828125 37.15625 52.796875 32.3125 
Q 56.78125 27.484375 56.78125 20.515625 
Q 56.78125 9.90625 50.3125 4.234375 
Q 43.84375 -1.421875 31.78125 -1.421875 
Q 19.734375 -1.421875 13.25 4.234375 
Q 6.78125 9.90625 6.78125 20.515625 
Q 6.78125 27.484375 10.78125 32.3125 
Q 14.796875 37.15625 21.921875 38.8125 
z
M 18.3125 54.390625 
Q 18.3125 48.734375 21.84375 45.5625 
Q 25.390625 42.390625 31.78125 42.390625 
Q 38.140625 42.390625 41.71875 45.5625 
Q 45.3125 48.734375 45.3125 54.390625 
Q 45.3125 60.0625 41.71875 63.234375 
Q 38.140625 66.40625 31.78125 66.40625 
Q 25.390625 66.40625 21.84375 63.234375 
Q 18.3125 60.0625 18.3125 54.390625 
z
" id="DejaVuSans-56"/>
       </defs>
       <use xlink:href="#DejaVuSans-50"/>
       <use x="63.623047" xlink:href="#DejaVuSans-48"/>
       <use x="127.246094" xlink:href="#DejaVuSans-50"/>
       <use x="190.869141" xlink:href="#DejaVuSans-49"/>
       <use x="254.492188" xlink:href="#DejaVuSans-45"/>
       <use x="290.576172" xlink:href="#DejaVuSans-48"/>
       <use x="354.199219" xlink:href="#DejaVuSans-51"/>
       <use x="417.822266" xlink:href="#DejaVuSans-45"/>
       <use x="453.90625" xlink:href="#DejaVuSans-50"/>
       <use x="517.529297" xlink:href="#DejaVuSans-56"/>
      </g>
     </g>
    </g>
    <g id="xtick_3">
     <g id="line2d_5">
      <path clip-path="url(#p669f5e6b3f)" d="M 244.987013 313.2 
L 244.987013 28.8 
" style="fill:none;stroke:#808080;stroke-dasharray:6.4,1.6,1,1.6;stroke-dashoffset:0;stroke-opacity:0.3;"/>
     </g>
     <g id="line2d_6">
      <g>
       <use style="stroke:#000000;stroke-width:0.8;" x="244.987013" xlink:href="#mc899ccf6ce" y="313.2"/>
      </g>
     </g>
     <g id="text_3">
      <!-- 2021-08-03 -->
      <g transform="translate(215.9292 327.798437)scale(0.1 -0.1)">
       <use xlink:href="#DejaVuSans-50"/>
       <use x="63.623047" xlink:href="#DejaVuSans-48"/>
       <use x="127.246094" xlink:href="#DejaVuSans-50"/>
       <use x="190.869141" xlink:href="#DejaVuSans-49"/>
       <use x="254.492188" xlink:href="#DejaVuSans-45"/>
       <use x="290.576172" xlink:href="#DejaVuSans-48"/>
       <use x="354.199219" xlink:href="#DejaVuSans-56"/>
       <use x="417.822266" xlink:href="#DejaVuSans-45"/>
       <use x="453.90625" xlink:href="#DejaVuSans-48"/>
       <use x="517.529297" xlink:href="#DejaVuSans-51"/>
      </g>
     </g>
    </g>
    <g id="xtick_4">
     <g id="line2d_7">
      <path clip-path="url(#p669f5e6b3f)" d="M 321.662338 313.2 
L 321.662338 28.8 
" style="fill:none;stroke:#808080;stroke-dasharray:6.4,1.6,1,1.6;stroke-dashoffset:0;stroke-opacity:0.3;"/>
     </g>
     <g id="line2d_8">
      <g>
       <use style="stroke:#000000;stroke-width:0.8;" x="321.662338" xlink:href="#mc899ccf6ce" y="313.2"/>
      </g>
     </g>
     <g id="text_4">
      <!-- 2021-12-09 -->
      <g transform="translate(292.604525 327.798437)scale(0.1 -0.1)">
       <defs>
        <path d="M 10.984375 1.515625 
L 10.984375 10.5 
Q 14.703125 8.734375 18.5 7.8125 
Q 22.3125 6.890625 25.984375 6.890625 
Q 35.75 6.890625 40.890625 13.453125 
Q 46.046875 20.015625 46.78125 33.40625 
Q 43.953125 29.203125 39.59375 26.953125 
Q 35.25 24.703125 29.984375 24.703125 
Q 19.046875 24.703125 12.671875 31.3125 
Q 6.296875 37.9375 6.296875 49.421875 
Q 6.296875 60.640625 12.9375 67.421875 
Q 19.578125 74.21875 30.609375 74.21875 
Q 43.265625 74.21875 49.921875 64.515625 
Q 56.59375 54.828125 56.59375 36.375 
Q 56.59375 19.140625 48.40625 8.859375 
Q 40.234375 -1.421875 26.421875 -1.421875 
Q 22.703125 -1.421875 18.890625 -0.6875 
Q 15.09375 0.046875 10.984375 1.515625 
z
M 30.609375 32.421875 
Q 37.25 32.421875 41.125 36.953125 
Q 45.015625 41.5 45.015625 49.421875 
Q 45.015625 57.28125 41.125 61.84375 
Q 37.25 66.40625 30.609375 66.40625 
Q 23.96875 66.40625 20.09375 61.84375 
Q 16.21875 57.28125 16.21875 49.421875 
Q 16.21875 41.5 20.09375 36.953125 
Q 23.96875 32.421875 30.609375 32.421875 
z
" id="DejaVuSans-57"/>
       </defs>
       <use xlink:href="#DejaVuSans-50"/>
       <use x="63.623047" xlink:href="#DejaVuSans-48"/>
       <use x="127.246094" xlink:href="#DejaVuSans-50"/>
       <use x="190.869141" xlink:href="#DejaVuSans-49"/>
       <use x="254.492188" xlink:href="#DejaVuSans-45"/>
       <use x="290.576172" xlink:href="#DejaVuSans-49"/>
       <use x="354.199219" xlink:href="#DejaVuSans-50"/>
       <use x="417.822266" xlink:href="#DejaVuSans-45"/>
       <use x="453.90625" xlink:href="#DejaVuSans-48"/>
       <use x="517.529297" xlink:href="#DejaVuSans-57"/>
      </g>
     </g>
    </g>
    <g id="xtick_5">
     <g id="line2d_9">
      <path clip-path="url(#p669f5e6b3f)" d="M 398.337662 313.2 
L 398.337662 28.8 
" style="fill:none;stroke:#808080;stroke-dasharray:6.4,1.6,1,1.6;stroke-dashoffset:0;stroke-opacity:0.3;"/>
     </g>
     <g id="line2d_10">
      <g>
       <use style="stroke:#000000;stroke-width:0.8;" x="398.337662" xlink:href="#mc899ccf6ce" y="313.2"/>
      </g>
     </g>
     <g id="text_5">
      <!-- 2022-04-16 -->
      <g transform="translate(369.27985 327.798437)scale(0.1 -0.1)">
       <defs>
        <path d="M 37.796875 64.3125 
L 12.890625 25.390625 
L 37.796875 25.390625 
z
M 35.203125 72.90625 
L 47.609375 72.90625 
L 47.609375 25.390625 
L 58.015625 25.390625 
L 58.015625 17.1875 
L 47.609375 17.1875 
L 47.609375 0 
L 37.796875 0 
L 37.796875 17.1875 
L 4.890625 17.1875 
L 4.890625 26.703125 
z
" id="DejaVuSans-52"/>
        <path d="M 33.015625 40.375 
Q 26.375 40.375 22.484375 35.828125 
Q 18.609375 31.296875 18.609375 23.390625 
Q 18.609375 15.53125 22.484375 10.953125 
Q 26.375 6.390625 33.015625 6.390625 
Q 39.65625 6.390625 43.53125 10.953125 
Q 47.40625 15.53125 47.40625 23.390625 
Q 47.40625 31.296875 43.53125 35.828125 
Q 39.65625 40.375 33.015625 40.375 
z
M 52.59375 71.296875 
L 52.59375 62.3125 
Q 48.875 64.0625 45.09375 64.984375 
Q 41.3125 65.921875 37.59375 65.921875 
Q 27.828125 65.921875 22.671875 59.328125 
Q 17.53125 52.734375 16.796875 39.40625 
Q 19.671875 43.65625 24.015625 45.921875 
Q 28.375 48.1875 33.59375 48.1875 
Q 44.578125 48.1875 50.953125 41.515625 
Q 57.328125 34.859375 57.328125 23.390625 
Q 57.328125 12.15625 50.6875 5.359375 
Q 44.046875 -1.421875 33.015625 -1.421875 
Q 20.359375 -1.421875 13.671875 8.265625 
Q 6.984375 17.96875 6.984375 36.375 
Q 6.984375 53.65625 15.1875 63.9375 
Q 23.390625 74.21875 37.203125 74.21875 
Q 40.921875 74.21875 44.703125 73.484375 
Q 48.484375 72.75 52.59375 71.296875 
z
" id="DejaVuSans-54"/>
       </defs>
       <use xlink:href="#DejaVuSans-50"/>
       <use x="63.623047" xlink:href="#DejaVuSans-48"/>
       <use x="127.246094" xlink:href="#DejaVuSans-50"/>
       <use x="190.869141" xlink:href="#DejaVuSans-50"/>
       <use x="254.492188" xlink:href="#DejaVuSans-45"/>
       <use x="290.576172" xlink:href="#DejaVuSans-48"/>
       <use x="354.199219" xlink:href="#DejaVuSans-52"/>
       <use x="417.822266" xlink:href="#DejaVuSans-45"/>
       <use x="453.90625" xlink:href="#DejaVuSans-49"/>
       <use x="517.529297" xlink:href="#DejaVuSans-54"/>
      </g>
     </g>
    </g>
    <g id="xtick_6">
     <g id="line2d_11">
      <path clip-path="url(#p669f5e6b3f)" d="M 475.012987 313.2 
L 475.012987 28.8 
" style="fill:none;stroke:#808080;stroke-dasharray:6.4,1.6,1,1.6;stroke-dashoffset:0;stroke-opacity:0.3;"/>
     </g>
     <g id="line2d_12">
      <g>
       <use style="stroke:#000000;stroke-width:0.8;" x="475.012987" xlink:href="#mc899ccf6ce" y="313.2"/>
      </g>
     </g>
     <g id="text_6">
      <!-- 2022-08-22 -->
      <g transform="translate(445.955175 327.798437)scale(0.1 -0.1)">
       <use xlink:href="#DejaVuSans-50"/>
       <use x="63.623047" xlink:href="#DejaVuSans-48"/>
       <use x="127.246094" xlink:href="#DejaVuSans-50"/>
       <use x="190.869141" xlink:href="#DejaVuSans-50"/>
       <use x="254.492188" xlink:href="#DejaVuSans-45"/>
       <use x="290.576172" xlink:href="#DejaVuSans-48"/>
       <use x="354.199219" xlink:href="#DejaVuSans-56"/>
       <use x="417.822266" xlink:href="#DejaVuSans-45"/>
       <use x="453.90625" xlink:href="#DejaVuSans-50"/>
       <use x="517.529297" xlink:href="#DejaVuSans-50"/>
      </g>
     </g>
    </g>
    <g id="xtick_7">
     <g id="line2d_13">
      <path clip-path="url(#p669f5e6b3f)" d="M 551.688312 313.2 
L 551.688312 28.8 
" style="fill:none;stroke:#808080;stroke-dasharray:6.4,1.6,1,1.6;stroke-dashoffset:0;stroke-opacity:0.3;"/>
     </g>
     <g id="line2d_14">
      <g>
       <use style="stroke:#000000;stroke-width:0.8;" x="551.688312" xlink:href="#mc899ccf6ce" y="313.2"/>
      </g>
     </g>
     <g id="text_7">
      <!-- 2022-12-28 -->
      <g transform="translate(522.630499 327.798437)scale(0.1 -0.1)">
       <use xlink:href="#DejaVuSans-50"/>
       <use x="63.623047" xlink:href="#DejaVuSans-48"/>
       <use x="127.246094" xlink:href="#DejaVuSans-50"/>
       <use x="190.869141" xlink:href="#DejaVuSans-50"/>
       <use x="254.492188" xlink:href="#DejaVuSans-45"/>
       <use x="290.576172" xlink:href="#DejaVuSans-49"/>
       <use x="354.199219" xlink:href="#DejaVuSans-50"/>
       <use x="417.822266" xlink:href="#DejaVuSans-45"/>
       <use x="453.90625" xlink:href="#DejaVuSans-50"/>
       <use x="517.529297" xlink:href="#DejaVuSans-56"/>
      </g>
     </g>
    </g>
    <g id="xtick_8">
     <g id="line2d_15">
      <path clip-path="url(#p669f5e6b3f)" d="M 628.363636 313.2 
L 628.363636 28.8 
" style="fill:none;stroke:#808080;stroke-dasharray:6.4,1.6,1,1.6;stroke-dashoffset:0;stroke-opacity:0.3;"/>
     </g>
     <g id="line2d_16">
      <g>
       <use style="stroke:#000000;stroke-width:0.8;" x="628.363636" xlink:href="#mc899ccf6ce" y="313.2"/>
      </g>
     </g>
     <g id="text_8">
      <!-- 2023-05-05 -->
      <g transform="translate(599.305824 327.798437)scale(0.1 -0.1)">
       <defs>
        <path d="M 10.796875 72.90625 
L 49.515625 72.90625 
L 49.515625 64.59375 
L 19.828125 64.59375 
L 19.828125 46.734375 
Q 21.96875 47.46875 24.109375 47.828125 
Q 26.265625 48.1875 28.421875 48.1875 
Q 40.625 48.1875 47.75 41.5 
Q 54.890625 34.8125 54.890625 23.390625 
Q 54.890625 11.625 47.5625 5.09375 
Q 40.234375 -1.421875 26.90625 -1.421875 
Q 22.3125 -1.421875 17.546875 -0.640625 
Q 12.796875 0.140625 7.71875 1.703125 
L 7.71875 11.625 
Q 12.109375 9.234375 16.796875 8.0625 
Q 21.484375 6.890625 26.703125 6.890625 
Q 35.15625 6.890625 40.078125 11.328125 
Q 45.015625 15.765625 45.015625 23.390625 
Q 45.015625 31 40.078125 35.4375 
Q 35.15625 39.890625 26.703125 39.890625 
Q 22.75 39.890625 18.8125 39.015625 
Q 14.890625 38.140625 10.796875 36.28125 
z
" id="DejaVuSans-53"/>
       </defs>
       <use xlink:href="#DejaVuSans-50"/>
       <use x="63.623047" xlink:href="#DejaVuSans-48"/>
       <use x="127.246094" xlink:href="#DejaVuSans-50"/>
       <use x="190.869141" xlink:href="#DejaVuSans-51"/>
       <use x="254.492188" xlink:href="#DejaVuSans-45"/>
       <use x="290.576172" xlink:href="#DejaVuSans-48"/>
       <use x="354.199219" xlink:href="#DejaVuSans-53"/>
       <use x="417.822266" xlink:href="#DejaVuSans-45"/>
       <use x="453.90625" xlink:href="#DejaVuSans-48"/>
       <use x="517.529297" xlink:href="#DejaVuSans-53"/>
      </g>
     </g>
    </g>
    <g id="text_9">
     <!-- Datum -->
     <g transform="translate(343.086719 341.476562)scale(0.1 -0.1)">
      <defs>
       <path d="M 19.671875 64.796875 
L 19.671875 8.109375 
L 31.59375 8.109375 
Q 46.6875 8.109375 53.6875 14.9375 
Q 60.6875 21.78125 60.6875 36.53125 
Q 60.6875 51.171875 53.6875 57.984375 
Q 46.6875 64.796875 31.59375 64.796875 
z
M 9.8125 72.90625 
L 30.078125 72.90625 
Q 51.265625 72.90625 61.171875 64.09375 
Q 71.09375 55.28125 71.09375 36.53125 
Q 71.09375 17.671875 61.125 8.828125 
Q 51.171875 0 30.078125 0 
L 9.8125 0 
z
" id="DejaVuSans-68"/>
       <path d="M 34.28125 27.484375 
Q 23.390625 27.484375 19.1875 25 
Q 14.984375 22.515625 14.984375 16.5 
Q 14.984375 11.71875 18.140625 8.90625 
Q 21.296875 6.109375 26.703125 6.109375 
Q 34.1875 6.109375 38.703125 11.40625 
Q 43.21875 16.703125 43.21875 25.484375 
L 43.21875 27.484375 
z
M 52.203125 31.203125 
L 52.203125 0 
L 43.21875 0 
L 43.21875 8.296875 
Q 40.140625 3.328125 35.546875 0.953125 
Q 30.953125 -1.421875 24.3125 -1.421875 
Q 15.921875 -1.421875 10.953125 3.296875 
Q 6 8.015625 6 15.921875 
Q 6 25.140625 12.171875 29.828125 
Q 18.359375 34.515625 30.609375 34.515625 
L 43.21875 34.515625 
L 43.21875 35.40625 
Q 43.21875 41.609375 39.140625 45 
Q 35.0625 48.390625 27.6875 48.390625 
Q 23 48.390625 18.546875 47.265625 
Q 14.109375 46.140625 10.015625 43.890625 
L 10.015625 52.203125 
Q 14.9375 54.109375 19.578125 55.046875 
Q 24.21875 56 28.609375 56 
Q 40.484375 56 46.34375 49.84375 
Q 52.203125 43.703125 52.203125 31.203125 
z
" id="DejaVuSans-97"/>
       <path d="M 18.3125 70.21875 
L 18.3125 54.6875 
L 36.8125 54.6875 
L 36.8125 47.703125 
L 18.3125 47.703125 
L 18.3125 18.015625 
Q 18.3125 11.328125 20.140625 9.421875 
Q 21.96875 7.515625 27.59375 7.515625 
L 36.8125 7.515625 
L 36.8125 0 
L 27.59375 0 
Q 17.1875 0 13.234375 3.875 
Q 9.28125 7.765625 9.28125 18.015625 
L 9.28125 47.703125 
L 2.6875 47.703125 
L 2.6875 54.6875 
L 9.28125 54.6875 
L 9.28125 70.21875 
z
" id="DejaVuSans-116"/>
       <path d="M 8.5 21.578125 
L 8.5 54.6875 
L 17.484375 54.6875 
L 17.484375 21.921875 
Q 17.484375 14.15625 20.5 10.265625 
Q 23.53125 6.390625 29.59375 6.390625 
Q 36.859375 6.390625 41.078125 11.03125 
Q 45.3125 15.671875 45.3125 23.6875 
L 45.3125 54.6875 
L 54.296875 54.6875 
L 54.296875 0 
L 45.3125 0 
L 45.3125 8.40625 
Q 42.046875 3.421875 37.71875 1 
Q 33.40625 -1.421875 27.6875 -1.421875 
Q 18.265625 -1.421875 13.375 4.4375 
Q 8.5 10.296875 8.5 21.578125 
z
M 31.109375 56 
z
" id="DejaVuSans-117"/>
       <path d="M 52 44.1875 
Q 55.375 50.25 60.0625 53.125 
Q 64.75 56 71.09375 56 
Q 79.640625 56 84.28125 50.015625 
Q 88.921875 44.046875 88.921875 33.015625 
L 88.921875 0 
L 79.890625 0 
L 79.890625 32.71875 
Q 79.890625 40.578125 77.09375 44.375 
Q 74.3125 48.1875 68.609375 48.1875 
Q 61.625 48.1875 57.5625 43.546875 
Q 53.515625 38.921875 53.515625 30.90625 
L 53.515625 0 
L 44.484375 0 
L 44.484375 32.71875 
Q 44.484375 40.625 41.703125 44.40625 
Q 38.921875 48.1875 33.109375 48.1875 
Q 26.21875 48.1875 22.15625 43.53125 
Q 18.109375 38.875 18.109375 30.90625 
L 18.109375 0 
L 9.078125 0 
L 9.078125 54.6875 
L 18.109375 54.6875 
L 18.109375 46.1875 
Q 21.1875 51.21875 25.484375 53.609375 
Q 29.78125 56 35.6875 56 
Q 41.65625 56 45.828125 52.96875 
Q 50 49.953125 52 44.1875 
z
" id="DejaVuSans-109"/>
      </defs>
      <use xlink:href="#DejaVuSans-68"/>
      <use x="77.001953" xlink:href="#DejaVuSans-97"/>
      <use x="138.28125" xlink:href="#DejaVuSans-116"/>
      <use x="177.490234" xlink:href="#DejaVuSans-117"/>
      <use x="240.869141" xlink:href="#DejaVuSans-109"/>
     </g>
    </g>
   </g>
   <g id="matplotlib.axis_2">
    <g id="ytick_1">
     <g id="line2d_17">
      <path clip-path="url(#p669f5e6b3f)" d="M 64.8 300.272727 
L 655.2 300.272727 
" style="fill:none;stroke:#808080;stroke-dasharray:6.4,1.6,1,1.6;stroke-dashoffset:0;stroke-opacity:0.3;"/>
     </g>
     <g id="line2d_18">
      <defs>
       <path d="M 0 0 
L -3.5 0 
" id="mb65c52efa9" style="stroke:#000000;stroke-width:0.8;"/>
      </defs>
      <g>
       <use style="stroke:#000000;stroke-width:0.8;" x="64.8" xlink:href="#mb65c52efa9" y="300.272727"/>
      </g>
     </g>
     <g id="text_10">
      <!-- 0 -->
      <g transform="translate(51.4375 304.071946)scale(0.1 -0.1)">
       <use xlink:href="#DejaVuSans-48"/>
      </g>
     </g>
    </g>
    <g id="ytick_2">
     <g id="line2d_19">
      <path clip-path="url(#p669f5e6b3f)" d="M 64.8 237.21286 
L 655.2 237.21286 
" style="fill:none;stroke:#808080;stroke-dasharray:6.4,1.6,1,1.6;stroke-dashoffset:0;stroke-opacity:0.3;"/>
     </g>
     <g id="line2d_20">
      <g>
       <use style="stroke:#000000;stroke-width:0.8;" x="64.8" xlink:href="#mb65c52efa9" y="237.21286"/>
      </g>
     </g>
     <g id="text_11">
      <!-- 5 -->
      <g transform="translate(51.4375 241.012079)scale(0.1 -0.1)">
       <use xlink:href="#DejaVuSans-53"/>
      </g>
     </g>
    </g>
    <g id="ytick_3">
     <g id="line2d_21">
      <path clip-path="url(#p669f5e6b3f)" d="M 64.8 174.152993 
L 655.2 174.152993 
" style="fill:none;stroke:#808080;stroke-dasharray:6.4,1.6,1,1.6;stroke-dashoffset:0;stroke-opacity:0.3;"/>
     </g>
     <g id="line2d_22">
      <g>
       <use style="stroke:#000000;stroke-width:0.8;" x="64.8" xlink:href="#mb65c52efa9" y="174.152993"/>
      </g>
     </g>
     <g id="text_12">
      <!-- 10 -->
      <g transform="translate(45.075 177.952212)scale(0.1 -0.1)">
       <use xlink:href="#DejaVuSans-49"/>
       <use x="63.623047" xlink:href="#DejaVuSans-48"/>
      </g>
     </g>
    </g>
    <g id="ytick_4">
     <g id="line2d_23">
      <path clip-path="url(#p669f5e6b3f)" d="M 64.8 111.093126 
L 655.2 111.093126 
" style="fill:none;stroke:#808080;stroke-dasharray:6.4,1.6,1,1.6;stroke-dashoffset:0;stroke-opacity:0.3;"/>
     </g>
     <g id="line2d_24">
      <g>
       <use style="stroke:#000000;stroke-width:0.8;" x="64.8" xlink:href="#mb65c52efa9" y="111.093126"/>
      </g>
     </g>
     <g id="text_13">
      <!-- 15 -->
      <g transform="translate(45.075 114.892345)scale(0.1 -0.1)">
       <use xlink:href="#DejaVuSans-49"/>
       <use x="63.623047" xlink:href="#DejaVuSans-53"/>
      </g>
     </g>
    </g>
    <g id="ytick_5">
     <g id="line2d_25">
      <path clip-path="url(#p669f5e6b3f)" d="M 64.8 48.033259 
L 655.2 48.033259 
" style="fill:none;stroke:#808080;stroke-dasharray:6.4,1.6,1,1.6;stroke-dashoffset:0;stroke-opacity:0.3;"/>
     </g>
     <g id="line2d_26">
      <g>
       <use style="stroke:#000000;stroke-width:0.8;" x="64.8" xlink:href="#mb65c52efa9" y="48.033259"/>
      </g>
     </g>
     <g id="text_14">
      <!-- 20 -->
      <g transform="translate(45.075 51.832478)scale(0.1 -0.1)">
       <use xlink:href="#DejaVuSans-50"/>
       <use x="63.623047" xlink:href="#DejaVuSans-48"/>
      </g>
     </g>
    </g>
   </g>
   <g id="line2d_27">
    <path clip-path="url(#p669f5e6b3f)" d="M 91.636364 280.090993 
L 94.631494 246.739249 
L 96.428571 240.0689 
L 97.626623 228.336238 
L 99.423701 214.491807 
L 102.418831 197.940369 
L 103.017857 195.418596 
L 103.616883 193.456527 
L 104.215909 192.153662 
L 104.814935 190.387489 
L 105.413961 187.834621 
L 107.211039 178.577756 
L 107.810065 175.639316 
L 108.409091 173.565305 
L 109.008117 172.371272 
L 109.607143 172.293536 
L 110.805195 174.451502 
L 112.602273 178.195293 
L 113.201299 180.275522 
L 114.998377 188.500046 
L 115.597403 189.753159 
L 117.394481 190.676669 
L 117.993506 190.658012 
L 118.592532 190.829032 
L 119.191558 191.279904 
L 119.790584 192.287369 
L 120.38961 194.037996 
L 120.988636 196.189743 
L 122.186688 201.808539 
L 122.785714 205.343996 
L 123.38474 210.987667 
L 125.181818 230.574161 
L 126.37987 242.228421 
L 127.577922 251.099713 
L 128.176948 254.333552 
L 128.775974 256.503956 
L 129.375 257.610924 
L 129.974026 257.984059 
L 130.573052 257.411918 
L 131.172078 255.561789 
L 132.37013 250.446726 
L 132.969156 247.312389 
L 134.167208 238.322938 
L 135.36526 227.46781 
L 137.162338 209.76254 
L 137.761364 205.057925 
L 138.959416 198.030544 
L 140.756494 188.509374 
L 141.355519 187.290466 
L 141.954545 187.100789 
L 142.553571 188.667957 
L 143.152597 192.302917 
L 143.751623 197.041735 
L 146.746753 229.588462 
L 149.142857 252.132054 
L 150.340909 261.199242 
L 151.538961 266.497763 
L 152.137987 268.046275 
L 153.935065 270.90076 
L 155.133117 272.197405 
L 155.732143 272.505241 
L 156.331169 272.076136 
L 157.529221 270.210459 
L 158.128247 269.035083 
L 159.326299 265.925622 
L 161.123377 260.278841 
L 161.722403 258.873365 
L 162.321429 257.825477 
L 164.118506 256.323607 
L 164.717532 256.808683 
L 165.915584 258.397617 
L 166.51461 258.944883 
L 167.113636 259.678715 
L 167.712662 259.585431 
L 169.50974 256.957937 
L 170.108766 255.285047 
L 171.306818 250.518243 
L 171.905844 247.980923 
L 174.900974 231.320432 
L 175.5 230.020677 
L 176.099026 230.232121 
L 177.297078 230.082866 
L 177.896104 231.049909 
L 178.49513 233.008869 
L 179.094156 235.372059 
L 180.292208 241.674937 
L 182.089286 252.017004 
L 182.688312 255.157559 
L 183.287338 257.237788 
L 184.48539 258.795628 
L 185.084416 259.271376 
L 185.683442 258.854708 
L 186.282468 257.421247 
L 186.881494 255.316142 
L 188.079545 248.947966 
L 191.074675 230.633241 
L 191.673701 228.500151 
L 192.272727 227.088456 
L 192.871753 226.323528 
L 193.470779 226.401265 
L 194.069805 227.474029 
L 194.668831 229.457865 
L 197.064935 241.053045 
L 197.663961 243.2732 
L 198.262987 244.799945 
L 198.862013 245.452932 
L 199.461039 244.722208 
L 200.060065 243.049318 
L 200.659091 240.888243 
L 201.258117 238.095947 
L 201.857143 234.585366 
L 204.852273 213.963421 
L 205.451299 211.967147 
L 206.050325 211.14625 
L 206.649351 211.354584 
L 207.248377 213.447251 
L 208.446429 219.669282 
L 209.644481 226.304871 
L 212.63961 246.084152 
L 213.238636 248.814259 
L 213.837662 250.670607 
L 214.436688 251.9828 
L 215.035714 252.020113 
L 216.832792 251.065509 
L 217.431818 251.208544 
L 218.030844 251.497724 
L 219.228896 250.88205 
L 220.426948 249.967869 
L 222.823052 247.259528 
L 224.62013 248.036894 
L 225.219156 247.502066 
L 225.818182 246.429302 
L 227.016234 244.927433 
L 228.214286 243.235886 
L 228.813312 242.847203 
L 229.412338 243.406906 
L 230.61039 245.558653 
L 231.808442 246.693607 
L 232.407468 247.53627 
L 233.006494 249.016374 
L 236.600649 260.972251 
L 237.199675 262.12897 
L 237.798701 262.719768 
L 240.194805 265.934951 
L 240.793831 266.423136 
L 241.392857 266.765177 
L 243.788961 268.895157 
L 244.387987 269.361577 
L 245.586039 270.776381 
L 247.383117 273.142681 
L 249.180195 274.482859 
L 249.779221 274.852884 
L 250.977273 275.138955 
L 253.373377 275.390821 
L 253.972403 275.602265 
L 255.170455 275.707986 
L 255.769481 275.524528 
L 256.368506 274.775148 
L 256.967532 273.071163 
L 258.165584 268.702371 
L 260.561688 260.754589 
L 262.957792 250.729687 
L 263.556818 249.20916 
L 264.155844 248.86401 
L 264.75487 250.229064 
L 267.75 261.653223 
L 270.74513 275.027014 
L 271.344156 276.951771 
L 271.943182 278.068067 
L 272.542208 278.061848 
L 273.141234 277.651399 
L 274.339286 276.382739 
L 276.136364 275.263333 
L 277.933442 274.000892 
L 278.532468 274.293181 
L 279.131494 274.423779 
L 279.730519 274.855994 
L 280.329545 275.913211 
L 280.928571 276.696795 
L 282.126623 277.502145 
L 283.324675 277.900156 
L 283.923701 278.096052 
L 284.522727 277.900156 
L 285.121753 277.582991 
L 286.918831 275.804379 
L 287.517857 274.896417 
L 288.116883 273.605991 
L 288.715909 272.794421 
L 289.314935 272.51457 
L 291.112013 270.679988 
L 292.909091 267.84416 
L 293.508117 266.360947 
L 294.107143 264.302484 
L 295.305195 258.21105 
L 296.503247 249.520107 
L 298.300325 233.357129 
L 302.493506 189.448431 
L 303.092532 185.18847 
L 304.290584 179.324027 
L 304.88961 177.361957 
L 305.488636 176.024889 
L 306.087662 175.263071 
L 306.686688 175.427872 
L 307.285714 176.553497 
L 307.88474 179.13124 
L 309.082792 186.911111 
L 310.87987 202.691625 
L 312.676948 216.858329 
L 313.875 224.843425 
L 315.073052 232.492699 
L 315.672078 235.235243 
L 316.87013 238.988362 
L 317.469156 240.219709 
L 318.667208 241.121453 
L 319.266234 242.212873 
L 319.86526 243.761385 
L 321.063312 249.199832 
L 321.662338 250.204188 
L 322.261364 250.197969 
L 322.86039 249.532544 
L 324.657468 246.475944 
L 325.256494 245.334772 
L 325.855519 244.436138 
L 326.454545 243.220339 
L 327.053571 241.438618 
L 327.652597 239.23401 
L 328.251623 236.472809 
L 328.850649 234.321062 
L 329.449675 234.224668 
L 330.048701 235.297432 
L 331.246753 239.159383 
L 331.845779 240.244585 
L 332.444805 240.670581 
L 333.043831 240.760755 
L 333.642857 240.574188 
L 334.241883 240.197943 
L 334.840909 239.563613 
L 335.439935 237.666842 
L 336.038961 234.977158 
L 336.637987 231.631378 
L 337.237013 227.508233 
L 344.425325 222.999515 
L 345.623377 213.929217 
L 346.222403 210.172988 
L 347.420455 204.678571 
L 348.618506 200.051693 
L 349.816558 198.139375 
L 350.415584 198.332161 
L 351.613636 200.885029 
L 352.811688 204.031803 
L 354.00974 207.057309 
L 358.202922 224.106483 
L 359.400974 227.934229 
L 360 229.902518 
L 362.396104 235.891339 
L 363.594156 238.506396 
L 364.193182 239.103413 
L 364.792208 239.451672 
L 365.391234 240.829163 
L 365.99026 241.513245 
L 366.589286 241.650061 
L 367.188312 241.401304 
L 367.787338 241.494588 
L 368.98539 242.184888 
L 369.584416 242.359018 
L 370.183442 241.961007 
L 370.782468 241.360881 
L 371.381494 240.922447 
L 372.579545 241.883271 
L 374.376623 241.970335 
L 374.975649 242.962254 
L 376.173701 246.737139 
L 376.772727 247.996471 
L 378.569805 252.50208 
L 379.168831 254.656936 
L 380.366883 259.398864 
L 382.163961 264.890172 
L 382.762987 266.003359 
L 383.362013 266.684331 
L 383.961039 267.184954 
L 385.758117 269.554363 
L 386.357143 270.008344 
L 386.956169 270.123394 
L 387.555195 269.852871 
L 388.154221 269.971031 
L 388.753247 269.871528 
L 389.352273 269.299387 
L 391.149351 268.24839 
L 391.748377 268.354111 
L 392.946429 269.159462 
L 393.545455 269.949265 
L 396.540584 275.80127 
L 397.738636 279.541951 
L 398.936688 283.606017 
L 400.13474 286.609756 
L 400.733766 287.722943 
L 401.332792 288.518965 
L 402.530844 289.507774 
L 404.327922 291.081161 
L 404.926948 291.249072 
L 405.525974 291.183773 
L 406.724026 290.826185 
L 407.323052 290.397079 
L 408.521104 288.323069 
L 409.719156 285.341096 
L 410.917208 281.267702 
L 413.313312 271.211706 
L 415.11039 261.696755 
L 416.308442 258.167517 
L 416.907468 257.244007 
L 417.506494 257.153833 
L 418.105519 257.645128 
L 418.704545 258.761424 
L 419.902597 261.559939 
L 420.501623 262.604718 
L 421.100649 264.013304 
L 421.699675 266.255225 
L 422.897727 272.489694 
L 423.496753 274.93373 
L 424.095779 276.60662 
L 424.694805 277.306249 
L 425.293831 277.471051 
L 425.892857 276.945552 
L 426.491883 275.521419 
L 427.090909 273.761464 
L 427.689935 272.477256 
L 428.288961 271.718548 
L 428.887987 270.754615 
L 429.487013 269.560582 
L 431.284091 264.181215 
L 431.883117 263.655716 
L 432.482143 263.898254 
L 433.081169 263.742781 
L 433.680195 264.255842 
L 434.878247 267.772642 
L 435.477273 269.411328 
L 436.076299 270.555609 
L 437.274351 271.964195 
L 438.472403 273.444299 
L 439.071429 273.888952 
L 439.670455 273.195542 
L 440.269481 272.020166 
L 440.868506 271.267676 
L 441.467532 270.285086 
L 443.863636 264.678728 
L 446.25974 263.758328 
L 446.858766 264.025742 
L 447.457792 265.337934 
L 451.051948 278.826775 
L 451.650974 280.683124 
L 454.646104 287.931277 
L 455.24513 288.83613 
L 455.844156 289.175061 
L 456.443182 289.330534 
L 461.834416 294.83739 
L 463.631494 296.050079 
L 464.230519 296.323712 
L 470.220779 296.389011 
L 477.409091 295.748462 
L 479.805195 295.269605 
L 480.404221 294.912017 
L 481.602273 293.180047 
L 483.399351 290.633398 
L 484.597403 288.948071 
L 485.795455 286.339233 
L 486.993506 283.052533 
L 487.592532 281.301906 
L 488.191558 280.082998 
L 488.790584 279.657002 
L 490.587662 279.047547 
L 491.785714 278.388341 
L 492.38474 278.372794 
L 493.582792 279.706753 
L 494.181818 280.680014 
L 495.978896 284.426915 
L 497.176948 285.667589 
L 498.974026 287.097941 
L 499.573052 287.642097 
L 500.172078 287.965481 
L 500.771104 288.120954 
L 501.37013 288.450557 
L 501.969156 288.581154 
L 503.167208 288.400806 
L 503.766234 288.02767 
L 506.761364 284.793831 
L 509.157468 282.045068 
L 510.954545 280.947428 
L 511.553571 280.888348 
L 512.751623 281.584867 
L 513.949675 283.06808 
L 516.345779 286.034506 
L 516.944805 286.662617 
L 518.142857 287.421325 
L 518.741883 288.005904 
L 520.538961 290.138994 
L 521.737013 291.009643 
L 522.935065 291.494719 
L 526.529221 293.892114 
L 527.727273 293.935646 
L 528.326299 293.56562 
L 529.524351 292.172582 
L 530.123377 291.755914 
L 530.722403 291.165116 
L 531.920455 289.025807 
L 534.915584 283.058752 
L 535.51461 281.790092 
L 536.113636 281.189966 
L 537.311688 281.239717 
L 537.910714 281.099791 
L 538.50974 281.314344 
L 539.108766 282.063724 
L 541.50487 286.130899 
L 542.702922 288.422572 
L 543.301948 289.64459 
L 543.900974 290.540115 
L 544.5 291.078051 
L 545.698052 292.629672 
L 546.297078 293.052559 
L 546.896104 293.248455 
L 547.49513 293.245346 
L 548.693182 293.419475 
L 549.891234 293.052559 
L 552.287338 291.858526 
L 553.48539 291.022081 
L 555.881494 290.717354 
L 556.480519 290.751558 
L 561.272727 294.395846 
L 564.267857 295.754681 
L 566.663961 296.074955 
L 570.258117 296.457419 
L 572.055195 296.317493 
L 577.446429 295.863512 
L 578.644481 295.98789 
L 585.832792 297.181923 
L 588.228896 297.113515 
L 590.025974 296.298836 
L 591.224026 295.620974 
L 595.417208 291.165116 
L 596.016234 290.120337 
L 597.813312 288.214238 
L 599.011364 287.200554 
L 601.407468 287.676301 
L 602.605519 287.903292 
L 612.788961 287.999685 
L 613.987013 290.036382 
L 616.383117 293.593605 
L 619.378247 296.367244 
L 620.576299 297.436899 
L 624.769481 297.764947 
L 628.363636 298.262683 
L 628.363636 298.262683 
" style="fill:none;stroke:#ff0000;stroke-linecap:square;stroke-width:1.5;"/>
   </g>
   <g id="patch_3">
    <path d="M 64.8 313.2 
L 64.8 28.8 
" style="fill:none;stroke:#000000;stroke-linecap:square;stroke-linejoin:miter;stroke-width:0.8;"/>
   </g>
   <g id="patch_4">
    <path d="M 655.2 313.2 
L 655.2 28.8 
" style="fill:none;stroke:#000000;stroke-linecap:square;stroke-linejoin:miter;stroke-width:0.8;"/>
   </g>
   <g id="patch_5">
    <path d="M 64.8 313.2 
L 655.2 313.2 
" style="fill:none;stroke:#000000;stroke-linecap:square;stroke-linejoin:miter;stroke-width:0.8;"/>
   </g>
   <g id="patch_6">
    <path d="M 64.8 28.8 
L 655.2 28.8 
" style="fill:none;stroke:#000000;stroke-linecap:square;stroke-linejoin:miter;stroke-width:0.8;"/>
   </g>
   <g id="text_15">
    <!-- Page hits per uur (gemiddeld ongeveer 0). -->
    <g transform="translate(232.46625 22.8)scale(0.12 -0.12)">
     <defs>
      <path d="M 19.671875 64.796875 
L 19.671875 37.40625 
L 32.078125 37.40625 
Q 38.96875 37.40625 42.71875 40.96875 
Q 46.484375 44.53125 46.484375 51.125 
Q 46.484375 57.671875 42.71875 61.234375 
Q 38.96875 64.796875 32.078125 64.796875 
z
M 9.8125 72.90625 
L 32.078125 72.90625 
Q 44.34375 72.90625 50.609375 67.359375 
Q 56.890625 61.8125 56.890625 51.125 
Q 56.890625 40.328125 50.609375 34.8125 
Q 44.34375 29.296875 32.078125 29.296875 
L 19.671875 29.296875 
L 19.671875 0 
L 9.8125 0 
z
" id="DejaVuSans-80"/>
      <path d="M 45.40625 27.984375 
Q 45.40625 37.75 41.375 43.109375 
Q 37.359375 48.484375 30.078125 48.484375 
Q 22.859375 48.484375 18.828125 43.109375 
Q 14.796875 37.75 14.796875 27.984375 
Q 14.796875 18.265625 18.828125 12.890625 
Q 22.859375 7.515625 30.078125 7.515625 
Q 37.359375 7.515625 41.375 12.890625 
Q 45.40625 18.265625 45.40625 27.984375 
z
M 54.390625 6.78125 
Q 54.390625 -7.171875 48.1875 -13.984375 
Q 42 -20.796875 29.203125 -20.796875 
Q 24.46875 -20.796875 20.265625 -20.09375 
Q 16.0625 -19.390625 12.109375 -17.921875 
L 12.109375 -9.1875 
Q 16.0625 -11.328125 19.921875 -12.34375 
Q 23.78125 -13.375 27.78125 -13.375 
Q 36.625 -13.375 41.015625 -8.765625 
Q 45.40625 -4.15625 45.40625 5.171875 
L 45.40625 9.625 
Q 42.625 4.78125 38.28125 2.390625 
Q 33.9375 0 27.875 0 
Q 17.828125 0 11.671875 7.65625 
Q 5.515625 15.328125 5.515625 27.984375 
Q 5.515625 40.671875 11.671875 48.328125 
Q 17.828125 56 27.875 56 
Q 33.9375 56 38.28125 53.609375 
Q 42.625 51.21875 45.40625 46.390625 
L 45.40625 54.6875 
L 54.390625 54.6875 
z
" id="DejaVuSans-103"/>
      <path d="M 56.203125 29.59375 
L 56.203125 25.203125 
L 14.890625 25.203125 
Q 15.484375 15.921875 20.484375 11.0625 
Q 25.484375 6.203125 34.421875 6.203125 
Q 39.59375 6.203125 44.453125 7.46875 
Q 49.3125 8.734375 54.109375 11.28125 
L 54.109375 2.78125 
Q 49.265625 0.734375 44.1875 -0.34375 
Q 39.109375 -1.421875 33.890625 -1.421875 
Q 20.796875 -1.421875 13.15625 6.1875 
Q 5.515625 13.8125 5.515625 26.8125 
Q 5.515625 40.234375 12.765625 48.109375 
Q 20.015625 56 32.328125 56 
Q 43.359375 56 49.78125 48.890625 
Q 56.203125 41.796875 56.203125 29.59375 
z
M 47.21875 32.234375 
Q 47.125 39.59375 43.09375 43.984375 
Q 39.0625 48.390625 32.421875 48.390625 
Q 24.90625 48.390625 20.390625 44.140625 
Q 15.875 39.890625 15.1875 32.171875 
z
" id="DejaVuSans-101"/>
      <path id="DejaVuSans-32"/>
      <path d="M 54.890625 33.015625 
L 54.890625 0 
L 45.90625 0 
L 45.90625 32.71875 
Q 45.90625 40.484375 42.875 44.328125 
Q 39.84375 48.1875 33.796875 48.1875 
Q 26.515625 48.1875 22.3125 43.546875 
Q 18.109375 38.921875 18.109375 30.90625 
L 18.109375 0 
L 9.078125 0 
L 9.078125 75.984375 
L 18.109375 75.984375 
L 18.109375 46.1875 
Q 21.34375 51.125 25.703125 53.5625 
Q 30.078125 56 35.796875 56 
Q 45.21875 56 50.046875 50.171875 
Q 54.890625 44.34375 54.890625 33.015625 
z
" id="DejaVuSans-104"/>
      <path d="M 9.421875 54.6875 
L 18.40625 54.6875 
L 18.40625 0 
L 9.421875 0 
z
M 9.421875 75.984375 
L 18.40625 75.984375 
L 18.40625 64.59375 
L 9.421875 64.59375 
z
" id="DejaVuSans-105"/>
      <path d="M 44.28125 53.078125 
L 44.28125 44.578125 
Q 40.484375 46.53125 36.375 47.5 
Q 32.28125 48.484375 27.875 48.484375 
Q 21.1875 48.484375 17.84375 46.4375 
Q 14.5 44.390625 14.5 40.28125 
Q 14.5 37.15625 16.890625 35.375 
Q 19.28125 33.59375 26.515625 31.984375 
L 29.59375 31.296875 
Q 39.15625 29.25 43.1875 25.515625 
Q 47.21875 21.78125 47.21875 15.09375 
Q 47.21875 7.46875 41.1875 3.015625 
Q 35.15625 -1.421875 24.609375 -1.421875 
Q 20.21875 -1.421875 15.453125 -0.5625 
Q 10.6875 0.296875 5.421875 2 
L 5.421875 11.28125 
Q 10.40625 8.6875 15.234375 7.390625 
Q 20.0625 6.109375 24.8125 6.109375 
Q 31.15625 6.109375 34.5625 8.28125 
Q 37.984375 10.453125 37.984375 14.40625 
Q 37.984375 18.0625 35.515625 20.015625 
Q 33.0625 21.96875 24.703125 23.78125 
L 21.578125 24.515625 
Q 13.234375 26.265625 9.515625 29.90625 
Q 5.8125 33.546875 5.8125 39.890625 
Q 5.8125 47.609375 11.28125 51.796875 
Q 16.75 56 26.8125 56 
Q 31.78125 56 36.171875 55.265625 
Q 40.578125 54.546875 44.28125 53.078125 
z
" id="DejaVuSans-115"/>
      <path d="M 18.109375 8.203125 
L 18.109375 -20.796875 
L 9.078125 -20.796875 
L 9.078125 54.6875 
L 18.109375 54.6875 
L 18.109375 46.390625 
Q 20.953125 51.265625 25.265625 53.625 
Q 29.59375 56 35.59375 56 
Q 45.5625 56 51.78125 48.09375 
Q 58.015625 40.1875 58.015625 27.296875 
Q 58.015625 14.40625 51.78125 6.484375 
Q 45.5625 -1.421875 35.59375 -1.421875 
Q 29.59375 -1.421875 25.265625 0.953125 
Q 20.953125 3.328125 18.109375 8.203125 
z
M 48.6875 27.296875 
Q 48.6875 37.203125 44.609375 42.84375 
Q 40.53125 48.484375 33.40625 48.484375 
Q 26.265625 48.484375 22.1875 42.84375 
Q 18.109375 37.203125 18.109375 27.296875 
Q 18.109375 17.390625 22.1875 11.75 
Q 26.265625 6.109375 33.40625 6.109375 
Q 40.53125 6.109375 44.609375 11.75 
Q 48.6875 17.390625 48.6875 27.296875 
z
" id="DejaVuSans-112"/>
      <path d="M 41.109375 46.296875 
Q 39.59375 47.171875 37.8125 47.578125 
Q 36.03125 48 33.890625 48 
Q 26.265625 48 22.1875 43.046875 
Q 18.109375 38.09375 18.109375 28.8125 
L 18.109375 0 
L 9.078125 0 
L 9.078125 54.6875 
L 18.109375 54.6875 
L 18.109375 46.1875 
Q 20.953125 51.171875 25.484375 53.578125 
Q 30.03125 56 36.53125 56 
Q 37.453125 56 38.578125 55.875 
Q 39.703125 55.765625 41.0625 55.515625 
z
" id="DejaVuSans-114"/>
      <path d="M 31 75.875 
Q 24.46875 64.65625 21.28125 53.65625 
Q 18.109375 42.671875 18.109375 31.390625 
Q 18.109375 20.125 21.3125 9.0625 
Q 24.515625 -2 31 -13.1875 
L 23.1875 -13.1875 
Q 15.875 -1.703125 12.234375 9.375 
Q 8.59375 20.453125 8.59375 31.390625 
Q 8.59375 42.28125 12.203125 53.3125 
Q 15.828125 64.359375 23.1875 75.875 
z
" id="DejaVuSans-40"/>
      <path d="M 45.40625 46.390625 
L 45.40625 75.984375 
L 54.390625 75.984375 
L 54.390625 0 
L 45.40625 0 
L 45.40625 8.203125 
Q 42.578125 3.328125 38.25 0.953125 
Q 33.9375 -1.421875 27.875 -1.421875 
Q 17.96875 -1.421875 11.734375 6.484375 
Q 5.515625 14.40625 5.515625 27.296875 
Q 5.515625 40.1875 11.734375 48.09375 
Q 17.96875 56 27.875 56 
Q 33.9375 56 38.25 53.625 
Q 42.578125 51.265625 45.40625 46.390625 
z
M 14.796875 27.296875 
Q 14.796875 17.390625 18.875 11.75 
Q 22.953125 6.109375 30.078125 6.109375 
Q 37.203125 6.109375 41.296875 11.75 
Q 45.40625 17.390625 45.40625 27.296875 
Q 45.40625 37.203125 41.296875 42.84375 
Q 37.203125 48.484375 30.078125 48.484375 
Q 22.953125 48.484375 18.875 42.84375 
Q 14.796875 37.203125 14.796875 27.296875 
z
" id="DejaVuSans-100"/>
      <path d="M 9.421875 75.984375 
L 18.40625 75.984375 
L 18.40625 0 
L 9.421875 0 
z
" id="DejaVuSans-108"/>
      <path d="M 30.609375 48.390625 
Q 23.390625 48.390625 19.1875 42.75 
Q 14.984375 37.109375 14.984375 27.296875 
Q 14.984375 17.484375 19.15625 11.84375 
Q 23.34375 6.203125 30.609375 6.203125 
Q 37.796875 6.203125 41.984375 11.859375 
Q 46.1875 17.53125 46.1875 27.296875 
Q 46.1875 37.015625 41.984375 42.703125 
Q 37.796875 48.390625 30.609375 48.390625 
z
M 30.609375 56 
Q 42.328125 56 49.015625 48.375 
Q 55.71875 40.765625 55.71875 27.296875 
Q 55.71875 13.875 49.015625 6.21875 
Q 42.328125 -1.421875 30.609375 -1.421875 
Q 18.84375 -1.421875 12.171875 6.21875 
Q 5.515625 13.875 5.515625 27.296875 
Q 5.515625 40.765625 12.171875 48.375 
Q 18.84375 56 30.609375 56 
z
" id="DejaVuSans-111"/>
      <path d="M 54.890625 33.015625 
L 54.890625 0 
L 45.90625 0 
L 45.90625 32.71875 
Q 45.90625 40.484375 42.875 44.328125 
Q 39.84375 48.1875 33.796875 48.1875 
Q 26.515625 48.1875 22.3125 43.546875 
Q 18.109375 38.921875 18.109375 30.90625 
L 18.109375 0 
L 9.078125 0 
L 9.078125 54.6875 
L 18.109375 54.6875 
L 18.109375 46.1875 
Q 21.34375 51.125 25.703125 53.5625 
Q 30.078125 56 35.796875 56 
Q 45.21875 56 50.046875 50.171875 
Q 54.890625 44.34375 54.890625 33.015625 
z
" id="DejaVuSans-110"/>
      <path d="M 2.984375 54.6875 
L 12.5 54.6875 
L 29.59375 8.796875 
L 46.6875 54.6875 
L 56.203125 54.6875 
L 35.6875 0 
L 23.484375 0 
z
" id="DejaVuSans-118"/>
      <path d="M 8.015625 75.875 
L 15.828125 75.875 
Q 23.140625 64.359375 26.78125 53.3125 
Q 30.421875 42.28125 30.421875 31.390625 
Q 30.421875 20.453125 26.78125 9.375 
Q 23.140625 -1.703125 15.828125 -13.1875 
L 8.015625 -13.1875 
Q 14.5 -2 17.703125 9.0625 
Q 20.90625 20.125 20.90625 31.390625 
Q 20.90625 42.671875 17.703125 53.65625 
Q 14.5 64.65625 8.015625 75.875 
z
" id="DejaVuSans-41"/>
      <path d="M 10.6875 12.40625 
L 21 12.40625 
L 21 0 
L 10.6875 0 
z
" id="DejaVuSans-46"/>
     </defs>
     <use xlink:href="#DejaVuSans-80"/>
     <use x="55.802734" xlink:href="#DejaVuSans-97"/>
     <use x="117.082031" xlink:href="#DejaVuSans-103"/>
     <use x="180.558594" xlink:href="#DejaVuSans-101"/>
     <use x="242.082031" xlink:href="#DejaVuSans-32"/>
     <use x="273.869141" xlink:href="#DejaVuSans-104"/>
     <use x="337.248047" xlink:href="#DejaVuSans-105"/>
     <use x="365.03125" xlink:href="#DejaVuSans-116"/>
     <use x="404.240234" xlink:href="#DejaVuSans-115"/>
     <use x="456.339844" xlink:href="#DejaVuSans-32"/>
     <use x="488.126953" xlink:href="#DejaVuSans-112"/>
     <use x="551.603516" xlink:href="#DejaVuSans-101"/>
     <use x="613.126953" xlink:href="#DejaVuSans-114"/>
     <use x="654.240234" xlink:href="#DejaVuSans-32"/>
     <use x="686.027344" xlink:href="#DejaVuSans-117"/>
     <use x="749.40625" xlink:href="#DejaVuSans-117"/>
     <use x="812.785156" xlink:href="#DejaVuSans-114"/>
     <use x="853.898438" xlink:href="#DejaVuSans-32"/>
     <use x="885.685547" xlink:href="#DejaVuSans-40"/>
     <use x="924.699219" xlink:href="#DejaVuSans-103"/>
     <use x="988.175781" xlink:href="#DejaVuSans-101"/>
     <use x="1049.699219" xlink:href="#DejaVuSans-109"/>
     <use x="1147.111328" xlink:href="#DejaVuSans-105"/>
     <use x="1174.894531" xlink:href="#DejaVuSans-100"/>
     <use x="1238.371094" xlink:href="#DejaVuSans-100"/>
     <use x="1301.847656" xlink:href="#DejaVuSans-101"/>
     <use x="1363.371094" xlink:href="#DejaVuSans-108"/>
     <use x="1391.154297" xlink:href="#DejaVuSans-100"/>
     <use x="1454.630859" xlink:href="#DejaVuSans-32"/>
     <use x="1486.417969" xlink:href="#DejaVuSans-111"/>
     <use x="1547.599609" xlink:href="#DejaVuSans-110"/>
     <use x="1610.978516" xlink:href="#DejaVuSans-103"/>
     <use x="1674.455078" xlink:href="#DejaVuSans-101"/>
     <use x="1735.978516" xlink:href="#DejaVuSans-118"/>
     <use x="1795.158203" xlink:href="#DejaVuSans-101"/>
     <use x="1856.681641" xlink:href="#DejaVuSans-101"/>
     <use x="1918.205078" xlink:href="#DejaVuSans-114"/>
     <use x="1959.318359" xlink:href="#DejaVuSans-32"/>
     <use x="1991.105469" xlink:href="#DejaVuSans-48"/>
     <use x="2054.728516" xlink:href="#DejaVuSans-41"/>
     <use x="2093.742188" xlink:href="#DejaVuSans-46"/>
    </g>
   </g>
  </g>
  <g id="text_16">
   <!-- Gegenereerd op 2023-05-05 17:38. -->
   <g style="fill:#808080;" transform="translate(7.2 356.4)scale(0.08 -0.08)">
    <defs>
     <path d="M 59.515625 10.40625 
L 59.515625 29.984375 
L 43.40625 29.984375 
L 43.40625 38.09375 
L 69.28125 38.09375 
L 69.28125 6.78125 
Q 63.578125 2.734375 56.6875 0.65625 
Q 49.8125 -1.421875 42 -1.421875 
Q 24.90625 -1.421875 15.25 8.5625 
Q 5.609375 18.5625 5.609375 36.375 
Q 5.609375 54.25 15.25 64.234375 
Q 24.90625 74.21875 42 74.21875 
Q 49.125 74.21875 55.546875 72.453125 
Q 61.96875 70.703125 67.390625 67.28125 
L 67.390625 56.78125 
Q 61.921875 61.421875 55.765625 63.765625 
Q 49.609375 66.109375 42.828125 66.109375 
Q 29.4375 66.109375 22.71875 58.640625 
Q 16.015625 51.171875 16.015625 36.375 
Q 16.015625 21.625 22.71875 14.15625 
Q 29.4375 6.6875 42.828125 6.6875 
Q 48.046875 6.6875 52.140625 7.59375 
Q 56.25 8.5 59.515625 10.40625 
z
" id="DejaVuSans-71"/>
     <path d="M 8.203125 72.90625 
L 55.078125 72.90625 
L 55.078125 68.703125 
L 28.609375 0 
L 18.3125 0 
L 43.21875 64.59375 
L 8.203125 64.59375 
z
" id="DejaVuSans-55"/>
     <path d="M 11.71875 12.40625 
L 22.015625 12.40625 
L 22.015625 0 
L 11.71875 0 
z
M 11.71875 51.703125 
L 22.015625 51.703125 
L 22.015625 39.3125 
L 11.71875 39.3125 
z
" id="DejaVuSans-58"/>
    </defs>
    <use xlink:href="#DejaVuSans-71"/>
    <use x="77.490234" xlink:href="#DejaVuSans-101"/>
    <use x="139.013672" xlink:href="#DejaVuSans-103"/>
    <use x="202.490234" xlink:href="#DejaVuSans-101"/>
    <use x="264.013672" xlink:href="#DejaVuSans-110"/>
    <use x="327.392578" xlink:href="#DejaVuSans-101"/>
    <use x="388.916016" xlink:href="#DejaVuSans-114"/>
    <use x="427.779297" xlink:href="#DejaVuSans-101"/>
    <use x="489.302734" xlink:href="#DejaVuSans-101"/>
    <use x="550.826172" xlink:href="#DejaVuSans-114"/>
    <use x="590.189453" xlink:href="#DejaVuSans-100"/>
    <use x="653.666016" xlink:href="#DejaVuSans-32"/>
    <use x="685.453125" xlink:href="#DejaVuSans-111"/>
    <use x="746.634766" xlink:href="#DejaVuSans-112"/>
    <use x="810.111328" xlink:href="#DejaVuSans-32"/>
    <use x="841.898438" xlink:href="#DejaVuSans-50"/>
    <use x="905.521484" xlink:href="#DejaVuSans-48"/>
    <use x="969.144531" xlink:href="#DejaVuSans-50"/>
    <use x="1032.767578" xlink:href="#DejaVuSans-51"/>
    <use x="1096.390625" xlink:href="#DejaVuSans-45"/>
    <use x="1132.474609" xlink:href="#DejaVuSans-48"/>
    <use x="1196.097656" xlink:href="#DejaVuSans-53"/>
    <use x="1259.720703" xlink:href="#DejaVuSans-45"/>
    <use x="1295.804688" xlink:href="#DejaVuSans-48"/>
    <use x="1359.427734" xlink:href="#DejaVuSans-53"/>
    <use x="1423.050781" xlink:href="#DejaVuSans-32"/>
    <use x="1454.837891" xlink:href="#DejaVuSans-49"/>
    <use x="1518.460938" xlink:href="#DejaVuSans-55"/>
    <use x="1582.083984" xlink:href="#DejaVuSans-58"/>
    <use x="1615.775391" xlink:href="#DejaVuSans-51"/>
    <use x="1679.398438" xlink:href="#DejaVuSans-56"/>
    <use x="1743.021484" xlink:href="#DejaVuSans-46"/>
   </g>
  </g>
  <g id="text_17">
   <!-- https://realrolfje.github.io/coronadata/ -->
   <g style="fill:#808080;" transform="translate(560.24375 356.4)scale(0.08 -0.08)">
    <defs>
     <path d="M 25.390625 72.90625 
L 33.6875 72.90625 
L 8.296875 -9.28125 
L 0 -9.28125 
z
" id="DejaVuSans-47"/>
     <path d="M 37.109375 75.984375 
L 37.109375 68.5 
L 28.515625 68.5 
Q 23.6875 68.5 21.796875 66.546875 
Q 19.921875 64.59375 19.921875 59.515625 
L 19.921875 54.6875 
L 34.71875 54.6875 
L 34.71875 47.703125 
L 19.921875 47.703125 
L 19.921875 0 
L 10.890625 0 
L 10.890625 47.703125 
L 2.296875 47.703125 
L 2.296875 54.6875 
L 10.890625 54.6875 
L 10.890625 58.5 
Q 10.890625 67.625 15.140625 71.796875 
Q 19.390625 75.984375 28.609375 75.984375 
z
" id="DejaVuSans-102"/>
     <path d="M 9.421875 54.6875 
L 18.40625 54.6875 
L 18.40625 -0.984375 
Q 18.40625 -11.421875 14.421875 -16.109375 
Q 10.453125 -20.796875 1.609375 -20.796875 
L -1.8125 -20.796875 
L -1.8125 -13.1875 
L 0.59375 -13.1875 
Q 5.71875 -13.1875 7.5625 -10.8125 
Q 9.421875 -8.453125 9.421875 -0.984375 
z
M 9.421875 75.984375 
L 18.40625 75.984375 
L 18.40625 64.59375 
L 9.421875 64.59375 
z
" id="DejaVuSans-106"/>
     <path d="M 48.6875 27.296875 
Q 48.6875 37.203125 44.609375 42.84375 
Q 40.53125 48.484375 33.40625 48.484375 
Q 26.265625 48.484375 22.1875 42.84375 
Q 18.109375 37.203125 18.109375 27.296875 
Q 18.109375 17.390625 22.1875 11.75 
Q 26.265625 6.109375 33.40625 6.109375 
Q 40.53125 6.109375 44.609375 11.75 
Q 48.6875 17.390625 48.6875 27.296875 
z
M 18.109375 46.390625 
Q 20.953125 51.265625 25.265625 53.625 
Q 29.59375 56 35.59375 56 
Q 45.5625 56 51.78125 48.09375 
Q 58.015625 40.1875 58.015625 27.296875 
Q 58.015625 14.40625 51.78125 6.484375 
Q 45.5625 -1.421875 35.59375 -1.421875 
Q 29.59375 -1.421875 25.265625 0.953125 
Q 20.953125 3.328125 18.109375 8.203125 
L 18.109375 0 
L 9.078125 0 
L 9.078125 75.984375 
L 18.109375 75.984375 
z
" id="DejaVuSans-98"/>
     <path d="M 48.78125 52.59375 
L 48.78125 44.1875 
Q 44.96875 46.296875 41.140625 47.34375 
Q 37.3125 48.390625 33.40625 48.390625 
Q 24.65625 48.390625 19.8125 42.84375 
Q 14.984375 37.3125 14.984375 27.296875 
Q 14.984375 17.28125 19.8125 11.734375 
Q 24.65625 6.203125 33.40625 6.203125 
Q 37.3125 6.203125 41.140625 7.25 
Q 44.96875 8.296875 48.78125 10.40625 
L 48.78125 2.09375 
Q 45.015625 0.34375 40.984375 -0.53125 
Q 36.96875 -1.421875 32.421875 -1.421875 
Q 20.0625 -1.421875 12.78125 6.34375 
Q 5.515625 14.109375 5.515625 27.296875 
Q 5.515625 40.671875 12.859375 48.328125 
Q 20.21875 56 33.015625 56 
Q 37.15625 56 41.109375 55.140625 
Q 45.0625 54.296875 48.78125 52.59375 
z
" id="DejaVuSans-99"/>
    </defs>
    <use xlink:href="#DejaVuSans-104"/>
    <use x="63.378906" xlink:href="#DejaVuSans-116"/>
    <use x="102.587891" xlink:href="#DejaVuSans-116"/>
    <use x="141.796875" xlink:href="#DejaVuSans-112"/>
    <use x="205.273438" xlink:href="#DejaVuSans-115"/>
    <use x="257.373047" xlink:href="#DejaVuSans-58"/>
    <use x="291.064453" xlink:href="#DejaVuSans-47"/>
    <use x="324.755859" xlink:href="#DejaVuSans-47"/>
    <use x="358.447266" xlink:href="#DejaVuSans-114"/>
    <use x="397.310547" xlink:href="#DejaVuSans-101"/>
    <use x="458.833984" xlink:href="#DejaVuSans-97"/>
    <use x="520.113281" xlink:href="#DejaVuSans-108"/>
    <use x="547.896484" xlink:href="#DejaVuSans-114"/>
    <use x="586.759766" xlink:href="#DejaVuSans-111"/>
    <use x="647.941406" xlink:href="#DejaVuSans-108"/>
    <use x="675.724609" xlink:href="#DejaVuSans-102"/>
    <use x="710.929688" xlink:href="#DejaVuSans-106"/>
    <use x="738.712891" xlink:href="#DejaVuSans-101"/>
    <use x="800.236328" xlink:href="#DejaVuSans-46"/>
    <use x="832.023438" xlink:href="#DejaVuSans-103"/>
    <use x="895.5" xlink:href="#DejaVuSans-105"/>
    <use x="923.283203" xlink:href="#DejaVuSans-116"/>
    <use x="962.492188" xlink:href="#DejaVuSans-104"/>
    <use x="1025.871094" xlink:href="#DejaVuSans-117"/>
    <use x="1089.25" xlink:href="#DejaVuSans-98"/>
    <use x="1152.726562" xlink:href="#DejaVuSans-46"/>
    <use x="1184.513672" xlink:href="#DejaVuSans-105"/>
    <use x="1212.296875" xlink:href="#DejaVuSans-111"/>
    <use x="1273.478516" xlink:href="#DejaVuSans-47"/>
    <use x="1307.169922" xlink:href="#DejaVuSans-99"/>
    <use x="1362.150391" xlink:href="#DejaVuSans-111"/>
    <use x="1423.332031" xlink:href="#DejaVuSans-114"/>
    <use x="1462.195312" xlink:href="#DejaVuSans-111"/>
    <use x="1523.376953" xlink:href="#DejaVuSans-110"/>
    <use x="1586.755859" xlink:href="#DejaVuSans-97"/>
    <use x="1648.035156" xlink:href="#DejaVuSans-100"/>
    <use x="1711.511719" xlink:href="#DejaVuSans-97"/>
    <use x="1772.791016" xlink:href="#DejaVuSans-116"/>
    <use x="1812" xlink:href="#DejaVuSans-97"/>
    <use x="1873.279297" xlink:href="#DejaVuSans-47"/>
   </g>
  </g>
 </g>
 <defs>
  <clipPath id="p669f5e6b3f">
   <rect height="284.4" width="590.4" x="64.8" y="28.8"/>
  </clipPath>
 </defs>
</svg>
