<?xml version="1.0" encoding="utf-8" standalone="no"?>
<!DOCTYPE svg PUBLIC "-//W3C//DTD SVG 1.1//EN"
  "http://www.w3.org/Graphics/SVG/1.1/DTD/svg11.dtd">
<!-- Created with matplotlib (https://matplotlib.org/) -->
<svg height="360pt" version="1.1" viewBox="0 0 720 360" width="720pt" xmlns="http://www.w3.org/2000/svg" xmlns:xlink="http://www.w3.org/1999/xlink">
 <metadata>
  <rdf:RDF xmlns:cc="http://creativecommons.org/ns#" xmlns:dc="http://purl.org/dc/elements/1.1/" xmlns:rdf="http://www.w3.org/1999/02/22-rdf-syntax-ns#">
   <cc:Work>
    <dc:type rdf:resource="http://purl.org/dc/dcmitype/StillImage"/>
    <dc:date>2022-10-06T23:47:23.521170</dc:date>
    <dc:format>image/svg+xml</dc:format>
    <dc:creator>
     <cc:Agent>
      <dc:title>Matplotlib v3.3.2, https://matplotlib.org/</dc:title>
     </cc:Agent>
    </dc:creator>
   </cc:Work>
  </rdf:RDF>
 </metadata>
 <defs>
  <style type="text/css">*{stroke-linecap:butt;stroke-linejoin:round;}</style>
 </defs>
 <g id="figure_1">
  <g id="patch_1">
   <path d="M 0 360 
L 720 360 
L 720 0 
L 0 0 
z
" style="fill:#ffffff;"/>
  </g>
  <g id="axes_1">
   <g id="patch_2">
    <path d="M 64.8 313.2 
L 655.2 313.2 
L 655.2 28.8 
L 64.8 28.8 
z
" style="fill:#ffffff;"/>
   </g>
   <g id="PolyCollection_1">
    <path clip-path="url(#p0e257e75dc)" d="M 91.636364 300.272727 
L 91.636364 300.272727 
L 92.419907 300.272727 
L 93.203451 300.272727 
L 93.986994 300.272727 
L 94.770537 300.272727 
L 95.554081 300.272727 
L 97.904711 300.272727 
L 98.688255 300.272727 
L 99.471798 300.272727 
L 100.255342 300.272727 
L 101.038885 300.272727 
L 101.822429 300.272727 
L 102.605972 300.272727 
L 103.389516 300.272727 
L 104.173059 300.272727 
L 104.956603 300.272727 
L 105.740146 300.272727 
L 106.523689 300.272727 
L 107.307233 300.272727 
L 108.090776 300.272727 
L 108.87432 300.272727 
L 109.657863 300.272727 
L 110.441407 300.272727 
L 111.22495 300.272727 
L 112.008494 300.272727 
L 112.792037 300.272727 
L 113.575581 300.272727 
L 114.359124 300.272727 
L 115.142668 300.272727 
L 115.926211 300.272727 
L 116.709754 300.272727 
L 117.493298 300.272727 
L 118.276841 300.272727 
L 119.060385 300.272727 
L 119.843928 300.272727 
L 120.627472 300.272727 
L 121.411015 300.272727 
L 122.194559 300.272727 
L 122.978102 300.272727 
L 123.761646 300.272727 
L 124.545189 300.272727 
L 125.328733 300.272727 
L 126.112276 300.272727 
L 126.89582 300.272727 
L 127.679363 300.272727 
L 128.462906 300.272727 
L 129.24645 300.272727 
L 130.029993 300.272727 
L 130.813537 300.272727 
L 131.59708 300.272727 
L 132.380624 300.272727 
L 133.164167 300.272727 
L 133.947711 300.272727 
L 134.731254 300.272727 
L 135.514798 300.272727 
L 136.298341 300.272727 
L 137.081885 300.272727 
L 137.865428 300.272727 
L 138.648971 300.272727 
L 139.432515 300.272727 
L 140.216058 300.272727 
L 140.999602 300.272727 
L 141.783145 300.272727 
L 142.566689 300.272727 
L 143.350232 300.272727 
L 144.133776 300.272727 
L 144.917319 300.272727 
L 145.700863 300.272727 
L 146.484406 300.272727 
L 147.26795 300.272727 
L 148.051493 300.272727 
L 148.835036 300.272727 
L 149.61858 300.272727 
L 150.402123 300.272727 
L 151.185667 300.272727 
L 151.96921 300.272727 
L 152.752754 300.272727 
L 153.536297 300.272727 
L 154.319841 300.272727 
L 155.103384 300.272727 
L 155.886928 300.272727 
L 156.670471 300.272727 
L 157.454015 300.272727 
L 158.237558 300.272727 
L 159.021102 300.272727 
L 159.804645 300.272727 
L 160.588188 300.272727 
L 161.371732 300.272727 
L 162.155275 300.272727 
L 162.938819 300.272727 
L 163.722362 300.272727 
L 164.505906 300.272727 
L 165.289449 300.272727 
L 166.072993 300.272727 
L 166.856536 300.272727 
L 167.64008 300.272727 
L 168.423623 300.272727 
L 169.207167 300.272727 
L 169.99071 300.272727 
L 170.774253 300.272727 
L 171.557797 300.272727 
L 172.34134 300.272727 
L 173.124884 300.272727 
L 173.908427 300.272727 
L 174.691971 300.272727 
L 175.475514 300.272727 
L 176.259058 300.272727 
L 177.042601 300.272727 
L 177.826145 300.272727 
L 178.609688 300.272727 
L 179.393232 300.272727 
L 180.176775 300.272727 
L 180.960319 300.272727 
L 181.743862 300.272727 
L 182.527405 300.272727 
L 183.310949 300.272727 
L 184.094492 300.272727 
L 185.661579 300.272727 
L 186.445123 300.272727 
L 187.228666 300.272727 
L 188.01221 300.272727 
L 188.795753 300.272727 
L 189.579297 300.272727 
L 190.36284 300.272727 
L 191.146384 300.272727 
L 191.929927 300.272727 
L 192.71347 300.272727 
L 193.497014 300.272727 
L 194.280557 300.272727 
L 195.064101 300.272727 
L 195.847644 300.272727 
L 196.631188 300.272727 
L 197.414731 300.272727 
L 198.198275 300.272727 
L 198.981818 300.272727 
L 199.765362 300.272727 
L 200.548905 300.272727 
L 201.332449 300.272727 
L 202.115992 300.272727 
L 202.899536 300.272727 
L 203.683079 300.272727 
L 204.466622 300.272727 
L 205.250166 300.272727 
L 206.033709 300.272727 
L 206.817253 300.272727 
L 207.600796 300.272727 
L 208.38434 300.272727 
L 209.167883 300.272727 
L 209.951427 300.272727 
L 210.73497 300.272727 
L 211.518514 300.272727 
L 212.302057 300.272727 
L 213.085601 300.272727 
L 213.869144 300.272727 
L 214.652687 300.272727 
L 215.436231 300.272727 
L 216.219774 300.272727 
L 217.003318 300.272727 
L 217.786861 300.272727 
L 218.570405 300.272727 
L 219.353948 300.272727 
L 220.137492 300.272727 
L 220.921035 300.272727 
L 221.704579 300.272727 
L 222.488122 300.272727 
L 223.271666 300.272727 
L 224.055209 300.272727 
L 224.838752 300.272727 
L 225.622296 300.272727 
L 226.405839 300.272727 
L 227.189383 300.272727 
L 227.972926 300.272727 
L 228.75647 300.272727 
L 229.540013 300.272727 
L 230.323557 300.272727 
L 231.1071 300.272727 
L 231.890644 300.272727 
L 232.674187 300.272727 
L 233.457731 300.272727 
L 234.241274 300.272727 
L 235.024818 300.272727 
L 235.808361 300.272727 
L 236.591904 300.272727 
L 237.375448 300.272727 
L 238.158991 300.272727 
L 238.942535 300.272727 
L 239.726078 300.272727 
L 240.509622 300.272727 
L 241.293165 300.272727 
L 242.076709 300.272727 
L 242.860252 300.272727 
L 243.643796 300.272727 
L 244.427339 300.272727 
L 245.210883 300.272727 
L 245.994426 300.272727 
L 246.777969 300.272727 
L 247.561513 300.272727 
L 248.345056 300.272727 
L 249.1286 300.272727 
L 249.912143 300.272727 
L 250.695687 300.272727 
L 251.47923 300.272727 
L 252.262774 300.272727 
L 253.046317 300.272727 
L 253.829861 300.272727 
L 255.396948 300.272727 
L 256.180491 300.272727 
L 256.964035 300.272727 
L 257.747578 300.272727 
L 258.531121 300.272727 
L 259.314665 300.272727 
L 260.098208 300.272727 
L 260.881752 300.272727 
L 261.665295 300.272727 
L 262.448839 300.272727 
L 263.232382 300.272727 
L 264.015926 300.272727 
L 264.799469 300.272727 
L 265.583013 300.272727 
L 266.366556 300.272727 
L 267.1501 300.272727 
L 267.933643 300.272727 
L 268.717186 300.272727 
L 269.50073 300.272727 
L 270.284273 300.272727 
L 271.067817 300.272727 
L 271.85136 300.272727 
L 272.634904 300.272727 
L 273.418447 300.272727 
L 274.201991 300.272727 
L 274.985534 300.272727 
L 275.769078 300.272727 
L 276.552621 300.272727 
L 277.336165 300.272727 
L 278.119708 300.272727 
L 278.903251 300.272727 
L 279.686795 300.272727 
L 280.470338 300.272727 
L 281.253882 300.272727 
L 282.037425 300.272727 
L 282.820969 300.272727 
L 283.604512 300.272727 
L 284.388056 300.272727 
L 285.171599 300.272727 
L 285.955143 300.272727 
L 286.738686 300.272727 
L 287.52223 300.272727 
L 288.305773 300.272727 
L 289.089317 300.272727 
L 289.87286 300.272727 
L 290.656403 300.272727 
L 291.439947 300.272727 
L 292.22349 300.272727 
L 293.007034 300.272727 
L 293.790577 300.272727 
L 294.574121 300.272727 
L 295.357664 300.272727 
L 296.141208 300.272727 
L 296.924751 300.272727 
L 297.708295 300.272727 
L 298.491838 300.272727 
L 299.275382 300.272727 
L 300.058925 300.272727 
L 300.842468 300.272727 
L 301.626012 300.272727 
L 302.409555 300.272727 
L 303.193099 300.272727 
L 303.976642 300.272727 
L 304.760186 300.272727 
L 305.543729 300.272727 
L 306.327273 300.272727 
L 307.110816 300.272727 
L 307.89436 300.272727 
L 308.677903 300.272727 
L 309.461447 300.272727 
L 310.24499 300.272727 
L 311.028534 300.272727 
L 311.812077 300.272727 
L 312.59562 300.272727 
L 313.379164 300.272727 
L 314.162707 300.272727 
L 314.946251 300.272727 
L 315.729794 300.272727 
L 316.513338 300.272727 
L 317.296881 300.272727 
L 318.080425 300.272727 
L 318.863968 300.272727 
L 319.647512 300.272727 
L 320.431055 300.272727 
L 321.214599 300.272727 
L 321.998142 300.272727 
L 322.781685 300.272727 
L 323.565229 300.272727 
L 324.348772 300.272727 
L 325.132316 300.272727 
L 325.915859 300.272727 
L 326.699403 300.272727 
L 327.482946 300.272727 
L 328.26649 300.272727 
L 329.050033 300.272727 
L 329.833577 300.272727 
L 330.61712 300.272727 
L 331.400664 300.272727 
L 332.184207 300.272727 
L 332.96775 300.272727 
L 333.751294 300.272727 
L 334.534837 300.272727 
L 335.318381 300.272727 
L 336.101924 300.272727 
L 336.885468 300.272727 
L 337.669011 300.272727 
L 338.452555 300.272727 
L 339.236098 300.272727 
L 340.019642 300.272727 
L 340.803185 300.272727 
L 341.586729 300.272727 
L 342.370272 300.272727 
L 343.153816 300.272727 
L 343.937359 300.272727 
L 344.720902 300.272727 
L 345.504446 300.272727 
L 346.287989 300.272727 
L 347.071533 300.272727 
L 347.855076 300.272727 
L 348.63862 300.272727 
L 349.422163 300.272727 
L 350.205707 300.272727 
L 350.98925 300.272727 
L 351.772794 300.272727 
L 352.556337 300.272727 
L 353.339881 300.272727 
L 354.123424 300.272727 
L 354.906967 300.272727 
L 355.690511 300.272727 
L 356.474054 300.272727 
L 357.257598 300.272727 
L 358.041141 300.272727 
L 358.824685 300.272727 
L 359.608228 300.272727 
L 360.391772 300.272727 
L 361.175315 300.272727 
L 361.958859 300.272727 
L 362.742402 300.272727 
L 363.525946 300.272727 
L 364.309489 300.272727 
L 365.093033 300.272727 
L 365.876576 300.272727 
L 366.660119 300.272727 
L 367.443663 300.272727 
L 368.227206 300.272727 
L 369.01075 300.272727 
L 369.794293 300.272727 
L 370.577837 300.272727 
L 371.36138 300.272727 
L 372.144924 300.272727 
L 372.928467 300.272727 
L 373.712011 300.272727 
L 374.495554 300.272727 
L 375.279098 300.272727 
L 376.062641 300.272727 
L 376.846184 300.272727 
L 377.629728 300.272727 
L 378.413271 300.272727 
L 379.196815 300.272727 
L 379.980358 300.272727 
L 380.763902 300.272727 
L 381.547445 300.272727 
L 382.330989 300.272727 
L 383.114532 300.272727 
L 383.898076 300.272727 
L 384.681619 300.272727 
L 385.465163 300.272727 
L 386.248706 300.272727 
L 387.03225 300.272727 
L 387.815793 300.272727 
L 388.599336 300.272727 
L 389.38288 300.272727 
L 390.166423 300.272727 
L 390.949967 300.272727 
L 391.73351 300.272727 
L 392.517054 300.272727 
L 393.300597 300.272727 
L 394.084141 300.272727 
L 394.867684 300.272727 
L 395.651228 300.272727 
L 396.434771 300.272727 
L 397.218315 300.272727 
L 398.001858 300.272727 
L 398.785401 300.272727 
L 399.568945 300.272727 
L 400.352488 300.272727 
L 401.136032 300.272727 
L 401.919575 300.272727 
L 402.703119 300.272727 
L 403.486662 300.272727 
L 404.270206 300.272727 
L 405.053749 300.272727 
L 405.837293 300.272727 
L 406.620836 300.272727 
L 407.40438 300.272727 
L 408.187923 300.272727 
L 408.971466 300.272727 
L 409.75501 300.272727 
L 410.538553 300.272727 
L 411.322097 300.272727 
L 412.10564 300.272727 
L 412.889184 300.272727 
L 422.291705 300.272727 
L 423.075249 300.272727 
L 423.858792 300.272727 
L 424.642336 300.272727 
L 425.425879 300.272727 
L 426.209423 300.272727 
L 426.992966 300.272727 
L 427.77651 300.272727 
L 429.343597 300.272727 
L 430.12714 300.272727 
L 430.910683 300.272727 
L 431.694227 300.272727 
L 432.47777 300.272727 
L 433.261314 300.272727 
L 434.044857 300.272727 
L 434.828401 300.272727 
L 435.611944 300.272727 
L 436.395488 300.272727 
L 437.179031 300.272727 
L 437.962575 300.272727 
L 438.746118 300.272727 
L 439.529662 300.272727 
L 440.313205 300.272727 
L 441.096749 300.272727 
L 441.880292 300.272727 
L 442.663835 300.272727 
L 443.447379 300.272727 
L 444.230922 300.272727 
L 445.014466 300.272727 
L 445.798009 300.272727 
L 446.581553 300.272727 
L 447.365096 300.272727 
L 448.14864 300.272727 
L 448.932183 300.272727 
L 449.715727 300.272727 
L 450.49927 300.272727 
L 451.282814 300.272727 
L 452.066357 300.272727 
L 452.8499 300.272727 
L 453.633444 300.272727 
L 454.416987 300.272727 
L 455.200531 300.272727 
L 455.984074 300.272727 
L 456.767618 300.272727 
L 457.551161 300.272727 
L 458.334705 300.272727 
L 459.118248 300.272727 
L 461.468879 300.272727 
L 462.252422 300.272727 
L 463.035965 300.272727 
L 463.819509 300.272727 
L 464.603052 300.272727 
L 465.386596 300.272727 
L 466.170139 300.272727 
L 466.953683 300.272727 
L 467.737226 300.272727 
L 468.52077 300.272727 
L 469.304313 300.272727 
L 470.087857 300.272727 
L 470.8714 300.272727 
L 471.654944 300.272727 
L 472.438487 300.272727 
L 473.222031 300.272727 
L 474.005574 300.272727 
L 474.789117 300.272727 
L 475.572661 300.272727 
L 476.356204 300.272727 
L 477.139748 300.272727 
L 477.923291 300.272727 
L 478.706835 300.272727 
L 479.490378 300.272727 
L 480.273922 300.272727 
L 481.057465 300.272727 
L 481.841009 300.272727 
L 482.624552 300.272727 
L 483.408096 300.272727 
L 484.191639 300.272727 
L 484.975182 300.272727 
L 485.758726 300.272727 
L 486.542269 300.272727 
L 487.325813 300.272727 
L 488.109356 300.272727 
L 488.8929 300.272727 
L 489.676443 300.272727 
L 490.459987 300.272727 
L 491.24353 300.272727 
L 492.027074 300.272727 
L 492.810617 300.272727 
L 493.594161 300.272727 
L 494.377704 300.272727 
L 495.161248 300.272727 
L 495.944791 300.272727 
L 496.728334 300.272727 
L 497.511878 300.272727 
L 498.295421 300.272727 
L 499.078965 300.272727 
L 499.862508 300.272727 
L 500.646052 300.272727 
L 501.429595 300.272727 
L 502.213139 300.272727 
L 502.996682 300.272727 
L 503.780226 300.272727 
L 504.563769 300.272727 
L 505.347313 300.272727 
L 506.130856 300.272727 
L 506.914399 300.272727 
L 507.697943 300.272727 
L 508.481486 300.272727 
L 509.26503 300.272727 
L 510.048573 300.272727 
L 510.832117 300.272727 
L 511.61566 300.272727 
L 512.399204 300.272727 
L 513.182747 300.272727 
L 513.966291 300.272727 
L 514.749834 300.272727 
L 515.533378 300.272727 
L 516.316921 300.272727 
L 517.100464 300.272727 
L 517.884008 300.272727 
L 518.667551 300.272727 
L 519.451095 300.272727 
L 520.234638 300.272727 
L 521.018182 300.272727 
L 521.801725 300.272727 
L 522.585269 300.272727 
L 523.368812 300.272727 
L 524.152356 300.272727 
L 524.935899 300.272727 
L 525.719443 300.272727 
L 526.502986 300.272727 
L 527.28653 300.272727 
L 528.070073 300.272727 
L 528.853616 300.272727 
L 529.63716 300.272727 
L 530.420703 300.272727 
L 531.204247 300.272727 
L 531.98779 300.272727 
L 532.771334 300.272727 
L 533.554877 300.272727 
L 534.338421 300.272727 
L 535.121964 300.272727 
L 535.905508 300.272727 
L 536.689051 300.272727 
L 537.472595 300.272727 
L 538.256138 300.272727 
L 539.039681 300.272727 
L 539.823225 300.272727 
L 540.606768 300.272727 
L 541.390312 300.272727 
L 542.173855 300.272727 
L 542.957399 300.272727 
L 543.740942 300.272727 
L 544.524486 300.272727 
L 545.308029 300.272727 
L 546.091573 300.272727 
L 546.875116 300.272727 
L 547.65866 300.272727 
L 548.442203 300.272727 
L 549.225747 300.272727 
L 550.00929 300.272727 
L 550.792833 300.272727 
L 551.576377 300.272727 
L 552.35992 300.272727 
L 553.143464 300.272727 
L 553.927007 300.272727 
L 554.710551 300.272727 
L 555.494094 300.272727 
L 556.277638 300.272727 
L 557.061181 300.272727 
L 557.844725 300.272727 
L 558.628268 300.272727 
L 559.411812 300.272727 
L 560.195355 300.272727 
L 560.978898 300.272727 
L 561.762442 300.272727 
L 562.545985 300.272727 
L 563.329529 300.272727 
L 564.113072 300.272727 
L 564.896616 300.272727 
L 565.680159 300.272727 
L 566.463703 300.272727 
L 567.247246 300.272727 
L 568.03079 300.272727 
L 568.814333 300.272727 
L 569.597877 300.272727 
L 570.38142 300.272727 
L 571.164964 300.272727 
L 571.948507 300.272727 
L 572.73205 300.272727 
L 573.515594 300.272727 
L 574.299137 300.272727 
L 575.082681 300.272727 
L 575.866224 300.272727 
L 576.649768 300.272727 
L 577.433311 300.272727 
L 578.216855 300.272727 
L 579.000398 300.272727 
L 579.783942 300.272727 
L 580.567485 300.272727 
L 581.351029 300.272727 
L 582.134572 300.272727 
L 582.918115 300.272727 
L 583.701659 300.272727 
L 584.485202 300.272727 
L 585.268746 300.272727 
L 586.052289 300.272727 
L 586.835833 300.272727 
L 587.619376 300.272727 
L 588.40292 300.272727 
L 589.186463 300.272727 
L 589.970007 300.272727 
L 590.75355 300.272727 
L 591.537094 300.272727 
L 592.320637 300.272727 
L 593.887724 300.272727 
L 594.671267 300.272727 
L 595.454811 300.272727 
L 596.238354 300.272727 
L 597.021898 300.272727 
L 597.805441 300.272727 
L 598.588985 300.272727 
L 599.372528 300.272727 
L 600.156072 300.272727 
L 600.939615 300.272727 
L 601.723159 300.272727 
L 602.506702 300.272727 
L 603.290246 300.272727 
L 604.073789 300.272727 
L 604.857332 300.272727 
L 605.640876 300.272727 
L 606.424419 300.272727 
L 607.207963 300.272727 
L 607.991506 300.272727 
L 608.77505 300.272727 
L 609.558593 300.272727 
L 610.342137 300.272727 
L 611.12568 300.272727 
L 611.909224 300.272727 
L 612.692767 300.272727 
L 613.476311 300.272727 
L 614.259854 300.272727 
L 615.043397 300.272727 
L 615.826941 300.272727 
L 616.610484 300.272727 
L 617.394028 300.272727 
L 618.177571 300.272727 
L 618.961115 300.272727 
L 619.744658 300.272727 
L 620.528202 300.272727 
L 621.311745 300.272727 
L 622.095289 300.272727 
L 622.878832 300.272727 
L 623.662376 300.272727 
L 624.445919 300.272727 
L 625.229463 300.272727 
L 626.013006 300.272727 
L 626.796549 300.272727 
L 627.580093 300.272727 
L 628.363636 300.272727 
L 628.363636 300.272727 
L 628.363636 295.543237 
L 627.580093 274.523282 
L 626.796549 262.962306 
L 626.013006 272.421286 
L 625.229463 296.068736 
L 624.445919 293.441242 
L 623.662376 290.813747 
L 622.878832 291.339246 
L 622.095289 298.170732 
L 621.311745 292.915743 
L 620.528202 296.594235 
L 619.744658 298.170732 
L 618.961115 296.068736 
L 618.177571 266.115299 
L 617.394028 266.115299 
L 616.610484 264.538803 
L 615.826941 230.906874 
L 615.043397 264.013304 
L 614.259854 298.170732 
L 613.476311 298.170732 
L 612.692767 293.966741 
L 611.909224 297.119734 
L 611.12568 274.523282 
L 610.342137 230.381375 
L 609.558593 251.926829 
L 608.77505 298.170732 
L 607.991506 297.119734 
L 607.207963 298.170732 
L 606.424419 288.711752 
L 605.640876 293.441242 
L 604.857332 290.813747 
L 604.073789 291.339246 
L 603.290246 293.441242 
L 602.506702 292.390244 
L 601.723159 293.966741 
L 600.939615 296.594235 
L 600.156072 298.170732 
L 599.372528 295.543237 
L 598.588985 297.645233 
L 597.805441 297.119734 
L 597.021898 296.594235 
L 596.238354 296.594235 
L 595.454811 297.119734 
L 594.671267 295.543237 
L 593.887724 288.186253 
L 592.320637 298.170732 
L 591.537094 297.119734 
L 590.75355 297.119734 
L 589.970007 297.119734 
L 589.186463 290.813747 
L 588.40292 298.170732 
L 587.619376 297.119734 
L 586.835833 297.119734 
L 586.052289 298.170732 
L 585.268746 298.170732 
L 584.485202 296.068736 
L 583.701659 299.221729 
L 582.918115 298.170732 
L 582.134572 288.186253 
L 581.351029 298.170732 
L 580.567485 297.119734 
L 579.783942 296.594235 
L 579.000398 295.543237 
L 578.216855 295.017738 
L 577.433311 297.645233 
L 576.649768 295.017738 
L 575.866224 297.119734 
L 575.082681 297.645233 
L 574.299137 297.119734 
L 573.515594 293.441242 
L 572.73205 297.645233 
L 571.948507 295.543237 
L 571.164964 297.119734 
L 570.38142 296.594235 
L 569.597877 295.017738 
L 568.814333 256.656319 
L 568.03079 279.252772 
L 567.247246 283.456763 
L 566.463703 293.966741 
L 565.680159 266.115299 
L 564.896616 298.170732 
L 564.113072 294.492239 
L 563.329529 297.119734 
L 562.545985 295.017738 
L 561.762442 293.966741 
L 560.978898 295.017738 
L 560.195355 295.017738 
L 559.411812 297.119734 
L 558.628268 296.594235 
L 557.844725 232.48337 
L 557.061181 173.627494 
L 556.277638 204.10643 
L 555.494094 233.008869 
L 554.710551 297.119734 
L 553.927007 294.492239 
L 553.143464 292.390244 
L 552.35992 229.855876 
L 551.576377 241.94235 
L 550.792833 292.390244 
L 550.00929 293.441242 
L 549.225747 288.711752 
L 548.442203 285.033259 
L 547.65866 228.279379 
L 546.875116 226.177384 
L 546.091573 290.813747 
L 545.308029 291.339246 
L 544.524486 287.660754 
L 543.740942 289.237251 
L 542.957399 293.966741 
L 542.173855 295.017738 
L 541.390312 285.558758 
L 540.606768 292.915743 
L 539.823225 269.268293 
L 539.039681 200.953437 
L 538.256138 234.585366 
L 537.472595 295.543237 
L 536.689051 197.274945 
L 535.905508 185.18847 
L 535.121964 294.492239 
L 534.338421 288.711752 
L 533.554877 297.119734 
L 532.771334 270.844789 
L 531.98779 298.170732 
L 531.204247 245.620843 
L 530.420703 247.722838 
L 529.63716 296.068736 
L 528.853616 298.170732 
L 528.070073 297.119734 
L 527.28653 295.543237 
L 526.502986 298.170732 
L 525.719443 294.492239 
L 524.935899 293.441242 
L 524.152356 296.068736 
L 523.368812 200.953437 
L 522.585269 208.83592 
L 521.801725 266.640798 
L 521.018182 294.492239 
L 520.234638 282.931264 
L 519.451095 266.115299 
L 518.667551 243.518847 
L 517.884008 242.993348 
L 517.100464 205.157428 
L 516.316921 234.585366 
L 515.533378 273.472284 
L 514.749834 206.208426 
L 513.966291 248.248337 
L 513.182747 280.303769 
L 512.399204 287.660754 
L 511.61566 296.594235 
L 510.832117 295.543237 
L 510.048573 293.966741 
L 509.26503 296.068736 
L 508.481486 294.492239 
L 507.697943 287.135255 
L 506.914399 255.605322 
L 506.130856 290.288248 
L 505.347313 298.170732 
L 504.563769 295.543237 
L 503.780226 293.966741 
L 502.996682 287.660754 
L 502.213139 297.645233 
L 501.429595 296.068736 
L 500.646052 296.068736 
L 499.862508 295.543237 
L 499.078965 285.033259 
L 498.295421 296.068736 
L 497.511878 273.997783 
L 496.728334 285.558758 
L 495.944791 293.966741 
L 495.161248 293.966741 
L 494.377704 296.594235 
L 493.594161 296.594235 
L 492.810617 296.594235 
L 492.027074 287.660754 
L 491.24353 256.13082 
L 490.459987 247.197339 
L 489.676443 273.472284 
L 488.8929 288.711752 
L 488.109356 291.864745 
L 487.325813 278.727273 
L 486.542269 255.605322 
L 485.758726 244.044346 
L 484.975182 248.773836 
L 484.191639 248.248337 
L 483.408096 239.840355 
L 482.624552 294.492239 
L 481.841009 291.339246 
L 481.057465 254.554324 
L 480.273922 287.660754 
L 479.490378 288.186253 
L 478.706835 253.503326 
L 477.923291 295.017738 
L 477.139748 287.135255 
L 476.356204 290.813747 
L 475.572661 248.773836 
L 474.789117 225.126386 
L 474.005574 239.314856 
L 473.222031 266.640798 
L 472.438487 285.033259 
L 471.654944 290.288248 
L 470.8714 296.068736 
L 470.087857 248.248337 
L 469.304313 266.115299 
L 468.52077 283.982262 
L 467.737226 233.008869 
L 466.953683 238.263858 
L 466.170139 265.5898 
L 465.386596 271.370288 
L 464.603052 176.780488 
L 463.819509 289.762749 
L 463.035965 262.962306 
L 462.252422 202.529933 
L 461.468879 201.478936 
L 459.118248 273.472284 
L 458.334705 236.687361 
L 457.551161 191.494457 
L 456.767618 242.467849 
L 455.984074 243.518847 
L 455.200531 286.084257 
L 454.416987 272.421286 
L 453.633444 270.844789 
L 452.8499 174.152993 
L 452.066357 222.498891 
L 451.282814 282.405765 
L 450.49927 259.809313 
L 449.715727 265.5898 
L 448.932183 182.560976 
L 448.14864 228.804878 
L 447.365096 270.31929 
L 446.581553 228.279379 
L 445.798009 219.871397 
L 445.014466 237.21286 
L 444.230922 254.028825 
L 443.447379 262.962306 
L 442.663835 217.769401 
L 441.880292 213.039911 
L 441.096749 236.687361 
L 440.313205 224.600887 
L 439.529662 212.514412 
L 438.746118 265.5898 
L 437.962575 178.882483 
L 437.179031 219.871397 
L 436.395488 232.48337 
L 435.611944 209.886918 
L 434.828401 104.78714 
L 434.044857 246.146341 
L 433.261314 265.064302 
L 432.47777 189.91796 
L 431.694227 188.341463 
L 430.910683 239.840355 
L 430.12714 168.372506 
L 429.343597 67.476718 
L 427.77651 228.279379 
L 426.992966 244.044346 
L 426.209423 204.631929 
L 425.425879 220.396896 
L 424.642336 178.882483 
L 423.858792 160.490022 
L 423.075249 189.392461 
L 422.291705 262.962306 
L 412.889184 198.851441 
L 412.10564 188.866962 
L 411.322097 256.13082 
L 410.538553 288.711752 
L 409.75501 278.201774 
L 408.971466 276.625277 
L 408.187923 273.472284 
L 407.40438 247.197339 
L 406.620836 275.04878 
L 405.837293 285.033259 
L 405.053749 288.186253 
L 404.270206 251.926829 
L 403.486662 196.749446 
L 402.703119 142.62306 
L 401.919575 58.017738 
L 401.136032 161.54102 
L 400.352488 275.04878 
L 399.568945 275.574279 
L 398.785401 281.354767 
L 398.001858 270.844789 
L 397.218315 242.993348 
L 396.434771 272.946785 
L 395.651228 279.778271 
L 394.867684 286.609756 
L 394.084141 287.135255 
L 393.300597 289.237251 
L 392.517054 283.982262 
L 391.73351 274.523282 
L 390.949967 169.949002 
L 390.166423 167.321508 
L 389.38288 201.478936 
L 388.599336 190.443459 
L 387.815793 214.616408 
L 387.03225 279.778271 
L 386.248706 272.421286 
L 385.465163 241.416851 
L 384.681619 284.507761 
L 383.898076 273.997783 
L 383.114532 270.31929 
L 382.330989 254.554324 
L 381.547445 190.968958 
L 380.763902 198.851441 
L 379.980358 247.197339 
L 379.196815 204.631929 
L 378.413271 196.749446 
L 377.629728 180.45898 
L 376.846184 173.627494 
L 376.062641 171.525499 
L 375.279098 185.713969 
L 374.495554 144.725055 
L 373.712011 117.924612 
L 372.928467 171.525499 
L 372.144924 195.172949 
L 371.36138 190.443459 
L 370.577837 162.066519 
L 369.794293 179.933481 
L 369.01075 204.631929 
L 368.227206 149.454545 
L 367.443663 122.128603 
L 366.660119 157.337029 
L 365.876576 209.886918 
L 365.093033 210.937916 
L 364.309489 186.239468 
L 363.525946 207.259424 
L 362.742402 235.110865 
L 361.958859 292.390244 
L 361.175315 287.135255 
L 360.391772 230.906874 
L 359.608228 234.585366 
L 358.824685 288.711752 
L 358.041141 284.507761 
L 357.257598 229.855876 
L 356.474054 282.931264 
L 355.690511 289.762749 
L 354.906967 280.829268 
L 354.123424 262.962306 
L 353.339881 237.738359 
L 352.556337 291.864745 
L 351.772794 284.507761 
L 350.98925 286.609756 
L 350.205707 290.288248 
L 349.422163 213.56541 
L 348.63862 249.299335 
L 347.855076 292.390244 
L 347.071533 276.099778 
L 346.287989 272.421286 
L 345.504446 272.421286 
L 344.720902 287.660754 
L 343.937359 286.084257 
L 343.153816 291.864745 
L 342.370272 287.660754 
L 341.586729 288.186253 
L 340.803185 282.931264 
L 340.019642 291.864745 
L 339.236098 282.405765 
L 338.452555 290.813747 
L 337.669011 235.636364 
L 336.885468 258.758315 
L 336.101924 289.762749 
L 335.318381 230.381375 
L 334.534837 255.079823 
L 333.751294 288.711752 
L 332.96775 279.778271 
L 332.184207 290.288248 
L 331.400664 277.150776 
L 330.61712 256.13082 
L 329.833577 285.558758 
L 329.050033 290.813747 
L 328.26649 286.084257 
L 327.482946 284.507761 
L 326.699403 292.390244 
L 325.915859 279.778271 
L 325.132316 280.829268 
L 324.348772 271.895787 
L 323.565229 276.625277 
L 322.781685 276.099778 
L 321.998142 253.503326 
L 321.214599 275.574279 
L 320.431055 287.135255 
L 319.647512 265.5898 
L 318.863968 268.217295 
L 318.080425 213.039911 
L 317.296881 143.674058 
L 316.513338 189.392461 
L 315.729794 180.45898 
L 314.946251 292.915743 
L 314.162707 268.742794 
L 313.379164 268.217295 
L 312.59562 291.339246 
L 311.812077 291.339246 
L 311.028534 286.084257 
L 310.24499 270.31929 
L 309.461447 259.283814 
L 308.677903 261.385809 
L 307.89436 291.339246 
L 307.110816 291.864745 
L 306.327273 285.033259 
L 305.543729 251.926829 
L 304.760186 290.813747 
L 303.976642 287.660754 
L 303.193099 241.416851 
L 302.409555 261.385809 
L 301.626012 279.778271 
L 300.842468 284.507761 
L 300.058925 280.829268 
L 299.275382 267.691796 
L 298.491838 287.660754 
L 297.708295 271.895787 
L 296.924751 278.727273 
L 296.141208 285.033259 
L 295.357664 285.558758 
L 294.574121 284.507761 
L 293.790577 281.880266 
L 293.007034 222.498891 
L 292.22349 258.232816 
L 291.439947 262.436807 
L 290.656403 282.931264 
L 289.87286 278.201774 
L 289.089317 267.691796 
L 288.305773 279.778271 
L 287.52223 242.993348 
L 286.738686 264.013304 
L 285.955143 277.676275 
L 285.171599 267.166297 
L 284.388056 275.574279 
L 283.604512 280.303769 
L 282.820969 207.784922 
L 282.037425 270.31929 
L 281.253882 278.201774 
L 280.470338 272.421286 
L 279.686795 273.997783 
L 278.903251 268.742794 
L 278.119708 265.5898 
L 277.336165 250.875831 
L 276.552621 224.600887 
L 275.769078 224.600887 
L 274.985534 235.110865 
L 274.201991 276.099778 
L 273.418447 270.31929 
L 272.634904 234.059867 
L 271.85136 186.764967 
L 271.067817 176.780488 
L 270.284273 226.702882 
L 269.50073 267.166297 
L 268.717186 270.844789 
L 267.933643 285.558758 
L 267.1501 229.330377 
L 266.366556 279.778271 
L 265.583013 279.252772 
L 264.799469 252.977827 
L 264.015926 269.793792 
L 263.232382 196.749446 
L 262.448839 222.498891 
L 261.665295 209.361419 
L 260.881752 235.636364 
L 260.098208 254.554324 
L 259.314665 267.691796 
L 258.531121 267.166297 
L 257.747578 277.676275 
L 256.964035 276.099778 
L 256.180491 244.044346 
L 255.396948 195.172949 
L 253.829861 277.150776 
L 253.046317 264.538803 
L 252.262774 247.722838 
L 251.47923 240.891353 
L 250.695687 261.911308 
L 249.912143 268.217295 
L 249.1286 242.467849 
L 248.345056 268.217295 
L 247.561513 247.197339 
L 246.777969 251.926829 
L 245.994426 230.906874 
L 245.210883 233.008869 
L 244.427339 246.67184 
L 243.643796 239.840355 
L 242.860252 203.055432 
L 242.076709 83.241685 
L 241.293165 167.321508 
L 240.509622 166.796009 
L 239.726078 161.54102 
L 238.942535 150.505543 
L 238.158991 260.86031 
L 237.375448 213.56541 
L 236.591904 257.181818 
L 235.808361 272.421286 
L 235.024818 269.268293 
L 234.241274 276.625277 
L 233.457731 268.217295 
L 232.674187 280.829268 
L 231.890644 237.21286 
L 231.1071 267.691796 
L 230.323557 270.31929 
L 229.540013 283.982262 
L 228.75647 227.228381 
L 227.972926 211.988914 
L 227.189383 266.640798 
L 226.405839 191.494457 
L 225.622296 197.800443 
L 224.838752 184.137472 
L 224.055209 199.902439 
L 223.271666 214.090909 
L 222.488122 199.37694 
L 221.704579 157.337029 
L 220.921035 220.396896 
L 220.137492 256.656319 
L 219.353948 280.303769 
L 218.570405 261.911308 
L 217.786861 277.676275 
L 217.003318 262.436807 
L 216.219774 276.625277 
L 215.436231 277.150776 
L 214.652687 267.166297 
L 213.869144 265.5898 
L 213.085601 269.268293 
L 212.302057 239.840355 
L 211.518514 261.385809 
L 210.73497 261.911308 
L 209.951427 255.605322 
L 209.167883 275.04878 
L 208.38434 279.778271 
L 207.600796 265.5898 
L 206.817253 235.110865 
L 206.033709 190.968958 
L 205.250166 242.993348 
L 204.466622 178.356984 
L 203.683079 180.45898 
L 202.899536 269.793792 
L 202.115992 287.135255 
L 201.332449 142.097561 
L 200.548905 124.230599 
L 199.765362 223.02439 
L 198.981818 249.299335 
L 198.198275 277.676275 
L 197.414731 287.660754 
L 196.631188 279.778271 
L 195.847644 202.529933 
L 195.064101 277.150776 
L 194.280557 257.181818 
L 193.497014 265.064302 
L 192.71347 282.931264 
L 191.929927 279.778271 
L 191.146384 278.201774 
L 190.36284 258.758315 
L 189.579297 241.94235 
L 188.795753 285.033259 
L 188.01221 285.558758 
L 187.228666 255.605322 
L 186.445123 192.545455 
L 185.661579 209.361419 
L 184.094492 268.742794 
L 183.310949 237.21286 
L 182.527405 224.075388 
L 181.743862 282.931264 
L 180.960319 271.370288 
L 180.176775 287.135255 
L 179.393232 253.503326 
L 178.609688 292.390244 
L 177.826145 285.558758 
L 177.042601 280.303769 
L 176.259058 282.405765 
L 175.475514 286.084257 
L 174.691971 272.421286 
L 173.908427 282.405765 
L 173.124884 277.676275 
L 172.34134 256.13082 
L 171.557797 286.084257 
L 170.774253 279.252772 
L 169.99071 236.687361 
L 169.207167 232.48337 
L 168.423623 286.609756 
L 167.64008 255.605322 
L 166.856536 254.028825 
L 166.072993 234.585366 
L 165.289449 255.079823 
L 164.505906 282.931264 
L 163.722362 286.084257 
L 162.938819 286.609756 
L 162.155275 266.640798 
L 161.371732 288.186253 
L 160.588188 194.121951 
L 159.804645 41.727273 
L 159.021102 128.43459 
L 158.237558 74.308204 
L 157.454015 84.818182 
L 156.670471 160.490022 
L 155.886928 115.822616 
L 155.103384 244.044346 
L 154.319841 271.895787 
L 153.536297 293.441242 
L 152.752754 229.330377 
L 151.96921 192.019956 
L 151.185667 189.392461 
L 150.402123 194.121951 
L 149.61858 185.713969 
L 148.835036 210.937916 
L 148.051493 211.463415 
L 147.26795 210.937916 
L 146.484406 240.891353 
L 145.700863 288.186253 
L 144.917319 279.252772 
L 144.133776 286.084257 
L 143.350232 276.625277 
L 142.566689 270.844789 
L 141.783145 269.268293 
L 140.999602 250.350333 
L 140.216058 282.405765 
L 139.432515 280.829268 
L 138.648971 255.079823 
L 137.865428 271.370288 
L 137.081885 257.181818 
L 136.298341 242.993348 
L 135.514798 269.793792 
L 134.731254 236.161863 
L 133.947711 261.911308 
L 133.164167 159.439024 
L 132.380624 96.379157 
L 131.59708 186.764967 
L 130.813537 187.290466 
L 130.029993 190.968958 
L 129.24645 196.223947 
L 128.462906 166.27051 
L 127.679363 190.968958 
L 126.89582 169.423503 
L 126.112276 183.086475 
L 125.328733 182.560976 
L 124.545189 192.545455 
L 123.761646 182.560976 
L 122.978102 228.804878 
L 122.194559 278.201774 
L 121.411015 194.121951 
L 120.627472 189.91796 
L 119.843928 177.831486 
L 119.060385 179.407982 
L 118.276841 203.055432 
L 117.493298 204.631929 
L 116.709754 128.960089 
L 115.926211 155.235033 
L 115.142668 66.95122 
L 114.359124 100.583149 
L 113.575581 119.501109 
L 112.792037 143.674058 
L 112.008494 203.055432 
L 111.22495 200.953437 
L 110.441407 209.886918 
L 109.657863 265.064302 
L 108.87432 283.982262 
L 108.090776 283.456763 
L 107.307233 188.866962 
L 106.523689 115.822616 
L 105.740146 139.995565 
L 104.956603 140.521064 
L 104.173059 197.274945 
L 103.389516 205.157428 
L 102.605972 204.631929 
L 101.822429 140.521064 
L 101.038885 208.310421 
L 100.255342 265.5898 
L 99.471798 238.263858 
L 98.688255 255.605322 
L 97.904711 285.558758 
L 95.554081 284.507761 
L 94.770537 197.274945 
L 93.986994 228.804878 
L 93.203451 262.962306 
L 92.419907 280.303769 
L 91.636364 275.04878 
z
" style="fill:#ffa07a;fill-opacity:0.3;"/>
   </g>
   <g id="matplotlib.axis_1">
    <g id="xtick_1">
     <g id="line2d_1">
      <path clip-path="url(#p0e257e75dc)" d="M 91.636364 313.2 
L 91.636364 28.8 
" style="fill:none;stroke:#808080;stroke-dasharray:6.4,1.6,1,1.6;stroke-dashoffset:0;stroke-opacity:0.3;"/>
     </g>
     <g id="line2d_2">
      <defs>
       <path d="M 0 0 
L 0 3.5 
" id="m9fe94be830" style="stroke:#000000;stroke-width:0.8;"/>
      </defs>
      <g>
       <use style="stroke:#000000;stroke-width:0.8;" x="91.636364" xlink:href="#m9fe94be830" y="313.2"/>
      </g>
     </g>
     <g id="text_1">
      <!-- 2020-11-20 -->
      <g transform="translate(62.578551 327.798437)scale(0.1 -0.1)">
       <defs>
        <path d="M 19.1875 8.296875 
L 53.609375 8.296875 
L 53.609375 0 
L 7.328125 0 
L 7.328125 8.296875 
Q 12.9375 14.109375 22.625 23.890625 
Q 32.328125 33.6875 34.8125 36.53125 
Q 39.546875 41.84375 41.421875 45.53125 
Q 43.3125 49.21875 43.3125 52.78125 
Q 43.3125 58.59375 39.234375 62.25 
Q 35.15625 65.921875 28.609375 65.921875 
Q 23.96875 65.921875 18.8125 64.3125 
Q 13.671875 62.703125 7.8125 59.421875 
L 7.8125 69.390625 
Q 13.765625 71.78125 18.9375 73 
Q 24.125 74.21875 28.421875 74.21875 
Q 39.75 74.21875 46.484375 68.546875 
Q 53.21875 62.890625 53.21875 53.421875 
Q 53.21875 48.921875 51.53125 44.890625 
Q 49.859375 40.875 45.40625 35.40625 
Q 44.1875 33.984375 37.640625 27.21875 
Q 31.109375 20.453125 19.1875 8.296875 
z
" id="DejaVuSans-50"/>
        <path d="M 31.78125 66.40625 
Q 24.171875 66.40625 20.328125 58.90625 
Q 16.5 51.421875 16.5 36.375 
Q 16.5 21.390625 20.328125 13.890625 
Q 24.171875 6.390625 31.78125 6.390625 
Q 39.453125 6.390625 43.28125 13.890625 
Q 47.125 21.390625 47.125 36.375 
Q 47.125 51.421875 43.28125 58.90625 
Q 39.453125 66.40625 31.78125 66.40625 
z
M 31.78125 74.21875 
Q 44.046875 74.21875 50.515625 64.515625 
Q 56.984375 54.828125 56.984375 36.375 
Q 56.984375 17.96875 50.515625 8.265625 
Q 44.046875 -1.421875 31.78125 -1.421875 
Q 19.53125 -1.421875 13.0625 8.265625 
Q 6.59375 17.96875 6.59375 36.375 
Q 6.59375 54.828125 13.0625 64.515625 
Q 19.53125 74.21875 31.78125 74.21875 
z
" id="DejaVuSans-48"/>
        <path d="M 4.890625 31.390625 
L 31.203125 31.390625 
L 31.203125 23.390625 
L 4.890625 23.390625 
z
" id="DejaVuSans-45"/>
        <path d="M 12.40625 8.296875 
L 28.515625 8.296875 
L 28.515625 63.921875 
L 10.984375 60.40625 
L 10.984375 69.390625 
L 28.421875 72.90625 
L 38.28125 72.90625 
L 38.28125 8.296875 
L 54.390625 8.296875 
L 54.390625 0 
L 12.40625 0 
z
" id="DejaVuSans-49"/>
       </defs>
       <use xlink:href="#DejaVuSans-50"/>
       <use x="63.623047" xlink:href="#DejaVuSans-48"/>
       <use x="127.246094" xlink:href="#DejaVuSans-50"/>
       <use x="190.869141" xlink:href="#DejaVuSans-48"/>
       <use x="254.492188" xlink:href="#DejaVuSans-45"/>
       <use x="290.576172" xlink:href="#DejaVuSans-49"/>
       <use x="354.199219" xlink:href="#DejaVuSans-49"/>
       <use x="417.822266" xlink:href="#DejaVuSans-45"/>
       <use x="453.90625" xlink:href="#DejaVuSans-50"/>
       <use x="517.529297" xlink:href="#DejaVuSans-48"/>
      </g>
     </g>
    </g>
    <g id="xtick_2">
     <g id="line2d_3">
      <path clip-path="url(#p0e257e75dc)" d="M 167.64008 313.2 
L 167.64008 28.8 
" style="fill:none;stroke:#808080;stroke-dasharray:6.4,1.6,1,1.6;stroke-dashoffset:0;stroke-opacity:0.3;"/>
     </g>
     <g id="line2d_4">
      <g>
       <use style="stroke:#000000;stroke-width:0.8;" x="167.64008" xlink:href="#m9fe94be830" y="313.2"/>
      </g>
     </g>
     <g id="text_2">
      <!-- 2021-02-25 -->
      <g transform="translate(138.582267 327.798437)scale(0.1 -0.1)">
       <defs>
        <path d="M 10.796875 72.90625 
L 49.515625 72.90625 
L 49.515625 64.59375 
L 19.828125 64.59375 
L 19.828125 46.734375 
Q 21.96875 47.46875 24.109375 47.828125 
Q 26.265625 48.1875 28.421875 48.1875 
Q 40.625 48.1875 47.75 41.5 
Q 54.890625 34.8125 54.890625 23.390625 
Q 54.890625 11.625 47.5625 5.09375 
Q 40.234375 -1.421875 26.90625 -1.421875 
Q 22.3125 -1.421875 17.546875 -0.640625 
Q 12.796875 0.140625 7.71875 1.703125 
L 7.71875 11.625 
Q 12.109375 9.234375 16.796875 8.0625 
Q 21.484375 6.890625 26.703125 6.890625 
Q 35.15625 6.890625 40.078125 11.328125 
Q 45.015625 15.765625 45.015625 23.390625 
Q 45.015625 31 40.078125 35.4375 
Q 35.15625 39.890625 26.703125 39.890625 
Q 22.75 39.890625 18.8125 39.015625 
Q 14.890625 38.140625 10.796875 36.28125 
z
" id="DejaVuSans-53"/>
       </defs>
       <use xlink:href="#DejaVuSans-50"/>
       <use x="63.623047" xlink:href="#DejaVuSans-48"/>
       <use x="127.246094" xlink:href="#DejaVuSans-50"/>
       <use x="190.869141" xlink:href="#DejaVuSans-49"/>
       <use x="254.492188" xlink:href="#DejaVuSans-45"/>
       <use x="290.576172" xlink:href="#DejaVuSans-48"/>
       <use x="354.199219" xlink:href="#DejaVuSans-50"/>
       <use x="417.822266" xlink:href="#DejaVuSans-45"/>
       <use x="453.90625" xlink:href="#DejaVuSans-50"/>
       <use x="517.529297" xlink:href="#DejaVuSans-53"/>
      </g>
     </g>
    </g>
    <g id="xtick_3">
     <g id="line2d_5">
      <path clip-path="url(#p0e257e75dc)" d="M 244.427339 313.2 
L 244.427339 28.8 
" style="fill:none;stroke:#808080;stroke-dasharray:6.4,1.6,1,1.6;stroke-dashoffset:0;stroke-opacity:0.3;"/>
     </g>
     <g id="line2d_6">
      <g>
       <use style="stroke:#000000;stroke-width:0.8;" x="244.427339" xlink:href="#m9fe94be830" y="313.2"/>
      </g>
     </g>
     <g id="text_3">
      <!-- 2021-06-03 -->
      <g transform="translate(215.369527 327.798437)scale(0.1 -0.1)">
       <defs>
        <path d="M 33.015625 40.375 
Q 26.375 40.375 22.484375 35.828125 
Q 18.609375 31.296875 18.609375 23.390625 
Q 18.609375 15.53125 22.484375 10.953125 
Q 26.375 6.390625 33.015625 6.390625 
Q 39.65625 6.390625 43.53125 10.953125 
Q 47.40625 15.53125 47.40625 23.390625 
Q 47.40625 31.296875 43.53125 35.828125 
Q 39.65625 40.375 33.015625 40.375 
z
M 52.59375 71.296875 
L 52.59375 62.3125 
Q 48.875 64.0625 45.09375 64.984375 
Q 41.3125 65.921875 37.59375 65.921875 
Q 27.828125 65.921875 22.671875 59.328125 
Q 17.53125 52.734375 16.796875 39.40625 
Q 19.671875 43.65625 24.015625 45.921875 
Q 28.375 48.1875 33.59375 48.1875 
Q 44.578125 48.1875 50.953125 41.515625 
Q 57.328125 34.859375 57.328125 23.390625 
Q 57.328125 12.15625 50.6875 5.359375 
Q 44.046875 -1.421875 33.015625 -1.421875 
Q 20.359375 -1.421875 13.671875 8.265625 
Q 6.984375 17.96875 6.984375 36.375 
Q 6.984375 53.65625 15.1875 63.9375 
Q 23.390625 74.21875 37.203125 74.21875 
Q 40.921875 74.21875 44.703125 73.484375 
Q 48.484375 72.75 52.59375 71.296875 
z
" id="DejaVuSans-54"/>
        <path d="M 40.578125 39.3125 
Q 47.65625 37.796875 51.625 33 
Q 55.609375 28.21875 55.609375 21.1875 
Q 55.609375 10.40625 48.1875 4.484375 
Q 40.765625 -1.421875 27.09375 -1.421875 
Q 22.515625 -1.421875 17.65625 -0.515625 
Q 12.796875 0.390625 7.625 2.203125 
L 7.625 11.71875 
Q 11.71875 9.328125 16.59375 8.109375 
Q 21.484375 6.890625 26.8125 6.890625 
Q 36.078125 6.890625 40.9375 10.546875 
Q 45.796875 14.203125 45.796875 21.1875 
Q 45.796875 27.640625 41.28125 31.265625 
Q 36.765625 34.90625 28.71875 34.90625 
L 20.21875 34.90625 
L 20.21875 43.015625 
L 29.109375 43.015625 
Q 36.375 43.015625 40.234375 45.921875 
Q 44.09375 48.828125 44.09375 54.296875 
Q 44.09375 59.90625 40.109375 62.90625 
Q 36.140625 65.921875 28.71875 65.921875 
Q 24.65625 65.921875 20.015625 65.03125 
Q 15.375 64.15625 9.8125 62.3125 
L 9.8125 71.09375 
Q 15.4375 72.65625 20.34375 73.4375 
Q 25.25 74.21875 29.59375 74.21875 
Q 40.828125 74.21875 47.359375 69.109375 
Q 53.90625 64.015625 53.90625 55.328125 
Q 53.90625 49.265625 50.4375 45.09375 
Q 46.96875 40.921875 40.578125 39.3125 
z
" id="DejaVuSans-51"/>
       </defs>
       <use xlink:href="#DejaVuSans-50"/>
       <use x="63.623047" xlink:href="#DejaVuSans-48"/>
       <use x="127.246094" xlink:href="#DejaVuSans-50"/>
       <use x="190.869141" xlink:href="#DejaVuSans-49"/>
       <use x="254.492188" xlink:href="#DejaVuSans-45"/>
       <use x="290.576172" xlink:href="#DejaVuSans-48"/>
       <use x="354.199219" xlink:href="#DejaVuSans-54"/>
       <use x="417.822266" xlink:href="#DejaVuSans-45"/>
       <use x="453.90625" xlink:href="#DejaVuSans-48"/>
       <use x="517.529297" xlink:href="#DejaVuSans-51"/>
      </g>
     </g>
    </g>
    <g id="xtick_4">
     <g id="line2d_7">
      <path clip-path="url(#p0e257e75dc)" d="M 321.214599 313.2 
L 321.214599 28.8 
" style="fill:none;stroke:#808080;stroke-dasharray:6.4,1.6,1,1.6;stroke-dashoffset:0;stroke-opacity:0.3;"/>
     </g>
     <g id="line2d_8">
      <g>
       <use style="stroke:#000000;stroke-width:0.8;" x="321.214599" xlink:href="#m9fe94be830" y="313.2"/>
      </g>
     </g>
     <g id="text_4">
      <!-- 2021-09-09 -->
      <g transform="translate(292.156786 327.798437)scale(0.1 -0.1)">
       <defs>
        <path d="M 10.984375 1.515625 
L 10.984375 10.5 
Q 14.703125 8.734375 18.5 7.8125 
Q 22.3125 6.890625 25.984375 6.890625 
Q 35.75 6.890625 40.890625 13.453125 
Q 46.046875 20.015625 46.78125 33.40625 
Q 43.953125 29.203125 39.59375 26.953125 
Q 35.25 24.703125 29.984375 24.703125 
Q 19.046875 24.703125 12.671875 31.3125 
Q 6.296875 37.9375 6.296875 49.421875 
Q 6.296875 60.640625 12.9375 67.421875 
Q 19.578125 74.21875 30.609375 74.21875 
Q 43.265625 74.21875 49.921875 64.515625 
Q 56.59375 54.828125 56.59375 36.375 
Q 56.59375 19.140625 48.40625 8.859375 
Q 40.234375 -1.421875 26.421875 -1.421875 
Q 22.703125 -1.421875 18.890625 -0.6875 
Q 15.09375 0.046875 10.984375 1.515625 
z
M 30.609375 32.421875 
Q 37.25 32.421875 41.125 36.953125 
Q 45.015625 41.5 45.015625 49.421875 
Q 45.015625 57.28125 41.125 61.84375 
Q 37.25 66.40625 30.609375 66.40625 
Q 23.96875 66.40625 20.09375 61.84375 
Q 16.21875 57.28125 16.21875 49.421875 
Q 16.21875 41.5 20.09375 36.953125 
Q 23.96875 32.421875 30.609375 32.421875 
z
" id="DejaVuSans-57"/>
       </defs>
       <use xlink:href="#DejaVuSans-50"/>
       <use x="63.623047" xlink:href="#DejaVuSans-48"/>
       <use x="127.246094" xlink:href="#DejaVuSans-50"/>
       <use x="190.869141" xlink:href="#DejaVuSans-49"/>
       <use x="254.492188" xlink:href="#DejaVuSans-45"/>
       <use x="290.576172" xlink:href="#DejaVuSans-48"/>
       <use x="354.199219" xlink:href="#DejaVuSans-57"/>
       <use x="417.822266" xlink:href="#DejaVuSans-45"/>
       <use x="453.90625" xlink:href="#DejaVuSans-48"/>
       <use x="517.529297" xlink:href="#DejaVuSans-57"/>
      </g>
     </g>
    </g>
    <g id="xtick_5">
     <g id="line2d_9">
      <path clip-path="url(#p0e257e75dc)" d="M 398.001858 313.2 
L 398.001858 28.8 
" style="fill:none;stroke:#808080;stroke-dasharray:6.4,1.6,1,1.6;stroke-dashoffset:0;stroke-opacity:0.3;"/>
     </g>
     <g id="line2d_10">
      <g>
       <use style="stroke:#000000;stroke-width:0.8;" x="398.001858" xlink:href="#m9fe94be830" y="313.2"/>
      </g>
     </g>
     <g id="text_5">
      <!-- 2021-12-16 -->
      <g transform="translate(368.944045 327.798437)scale(0.1 -0.1)">
       <use xlink:href="#DejaVuSans-50"/>
       <use x="63.623047" xlink:href="#DejaVuSans-48"/>
       <use x="127.246094" xlink:href="#DejaVuSans-50"/>
       <use x="190.869141" xlink:href="#DejaVuSans-49"/>
       <use x="254.492188" xlink:href="#DejaVuSans-45"/>
       <use x="290.576172" xlink:href="#DejaVuSans-49"/>
       <use x="354.199219" xlink:href="#DejaVuSans-50"/>
       <use x="417.822266" xlink:href="#DejaVuSans-45"/>
       <use x="453.90625" xlink:href="#DejaVuSans-49"/>
       <use x="517.529297" xlink:href="#DejaVuSans-54"/>
      </g>
     </g>
    </g>
    <g id="xtick_6">
     <g id="line2d_11">
      <path clip-path="url(#p0e257e75dc)" d="M 474.789117 313.2 
L 474.789117 28.8 
" style="fill:none;stroke:#808080;stroke-dasharray:6.4,1.6,1,1.6;stroke-dashoffset:0;stroke-opacity:0.3;"/>
     </g>
     <g id="line2d_12">
      <g>
       <use style="stroke:#000000;stroke-width:0.8;" x="474.789117" xlink:href="#m9fe94be830" y="313.2"/>
      </g>
     </g>
     <g id="text_6">
      <!-- 2022-03-24 -->
      <g transform="translate(445.731305 327.798437)scale(0.1 -0.1)">
       <defs>
        <path d="M 37.796875 64.3125 
L 12.890625 25.390625 
L 37.796875 25.390625 
z
M 35.203125 72.90625 
L 47.609375 72.90625 
L 47.609375 25.390625 
L 58.015625 25.390625 
L 58.015625 17.1875 
L 47.609375 17.1875 
L 47.609375 0 
L 37.796875 0 
L 37.796875 17.1875 
L 4.890625 17.1875 
L 4.890625 26.703125 
z
" id="DejaVuSans-52"/>
       </defs>
       <use xlink:href="#DejaVuSans-50"/>
       <use x="63.623047" xlink:href="#DejaVuSans-48"/>
       <use x="127.246094" xlink:href="#DejaVuSans-50"/>
       <use x="190.869141" xlink:href="#DejaVuSans-50"/>
       <use x="254.492188" xlink:href="#DejaVuSans-45"/>
       <use x="290.576172" xlink:href="#DejaVuSans-48"/>
       <use x="354.199219" xlink:href="#DejaVuSans-51"/>
       <use x="417.822266" xlink:href="#DejaVuSans-45"/>
       <use x="453.90625" xlink:href="#DejaVuSans-50"/>
       <use x="517.529297" xlink:href="#DejaVuSans-52"/>
      </g>
     </g>
    </g>
    <g id="xtick_7">
     <g id="line2d_13">
      <path clip-path="url(#p0e257e75dc)" d="M 551.576377 313.2 
L 551.576377 28.8 
" style="fill:none;stroke:#808080;stroke-dasharray:6.4,1.6,1,1.6;stroke-dashoffset:0;stroke-opacity:0.3;"/>
     </g>
     <g id="line2d_14">
      <g>
       <use style="stroke:#000000;stroke-width:0.8;" x="551.576377" xlink:href="#m9fe94be830" y="313.2"/>
      </g>
     </g>
     <g id="text_7">
      <!-- 2022-06-30 -->
      <g transform="translate(522.518564 327.798437)scale(0.1 -0.1)">
       <use xlink:href="#DejaVuSans-50"/>
       <use x="63.623047" xlink:href="#DejaVuSans-48"/>
       <use x="127.246094" xlink:href="#DejaVuSans-50"/>
       <use x="190.869141" xlink:href="#DejaVuSans-50"/>
       <use x="254.492188" xlink:href="#DejaVuSans-45"/>
       <use x="290.576172" xlink:href="#DejaVuSans-48"/>
       <use x="354.199219" xlink:href="#DejaVuSans-54"/>
       <use x="417.822266" xlink:href="#DejaVuSans-45"/>
       <use x="453.90625" xlink:href="#DejaVuSans-51"/>
       <use x="517.529297" xlink:href="#DejaVuSans-48"/>
      </g>
     </g>
    </g>
    <g id="xtick_8">
     <g id="line2d_15">
      <path clip-path="url(#p0e257e75dc)" d="M 628.363636 313.2 
L 628.363636 28.8 
" style="fill:none;stroke:#808080;stroke-dasharray:6.4,1.6,1,1.6;stroke-dashoffset:0;stroke-opacity:0.3;"/>
     </g>
     <g id="line2d_16">
      <g>
       <use style="stroke:#000000;stroke-width:0.8;" x="628.363636" xlink:href="#m9fe94be830" y="313.2"/>
      </g>
     </g>
     <g id="text_8">
      <!-- 2022-10-06 -->
      <g transform="translate(599.305824 327.798437)scale(0.1 -0.1)">
       <use xlink:href="#DejaVuSans-50"/>
       <use x="63.623047" xlink:href="#DejaVuSans-48"/>
       <use x="127.246094" xlink:href="#DejaVuSans-50"/>
       <use x="190.869141" xlink:href="#DejaVuSans-50"/>
       <use x="254.492188" xlink:href="#DejaVuSans-45"/>
       <use x="290.576172" xlink:href="#DejaVuSans-49"/>
       <use x="354.199219" xlink:href="#DejaVuSans-48"/>
       <use x="417.822266" xlink:href="#DejaVuSans-45"/>
       <use x="453.90625" xlink:href="#DejaVuSans-48"/>
       <use x="517.529297" xlink:href="#DejaVuSans-54"/>
      </g>
     </g>
    </g>
    <g id="text_9">
     <!-- Datum -->
     <g transform="translate(343.086719 341.476562)scale(0.1 -0.1)">
      <defs>
       <path d="M 19.671875 64.796875 
L 19.671875 8.109375 
L 31.59375 8.109375 
Q 46.6875 8.109375 53.6875 14.9375 
Q 60.6875 21.78125 60.6875 36.53125 
Q 60.6875 51.171875 53.6875 57.984375 
Q 46.6875 64.796875 31.59375 64.796875 
z
M 9.8125 72.90625 
L 30.078125 72.90625 
Q 51.265625 72.90625 61.171875 64.09375 
Q 71.09375 55.28125 71.09375 36.53125 
Q 71.09375 17.671875 61.125 8.828125 
Q 51.171875 0 30.078125 0 
L 9.8125 0 
z
" id="DejaVuSans-68"/>
       <path d="M 34.28125 27.484375 
Q 23.390625 27.484375 19.1875 25 
Q 14.984375 22.515625 14.984375 16.5 
Q 14.984375 11.71875 18.140625 8.90625 
Q 21.296875 6.109375 26.703125 6.109375 
Q 34.1875 6.109375 38.703125 11.40625 
Q 43.21875 16.703125 43.21875 25.484375 
L 43.21875 27.484375 
z
M 52.203125 31.203125 
L 52.203125 0 
L 43.21875 0 
L 43.21875 8.296875 
Q 40.140625 3.328125 35.546875 0.953125 
Q 30.953125 -1.421875 24.3125 -1.421875 
Q 15.921875 -1.421875 10.953125 3.296875 
Q 6 8.015625 6 15.921875 
Q 6 25.140625 12.171875 29.828125 
Q 18.359375 34.515625 30.609375 34.515625 
L 43.21875 34.515625 
L 43.21875 35.40625 
Q 43.21875 41.609375 39.140625 45 
Q 35.0625 48.390625 27.6875 48.390625 
Q 23 48.390625 18.546875 47.265625 
Q 14.109375 46.140625 10.015625 43.890625 
L 10.015625 52.203125 
Q 14.9375 54.109375 19.578125 55.046875 
Q 24.21875 56 28.609375 56 
Q 40.484375 56 46.34375 49.84375 
Q 52.203125 43.703125 52.203125 31.203125 
z
" id="DejaVuSans-97"/>
       <path d="M 18.3125 70.21875 
L 18.3125 54.6875 
L 36.8125 54.6875 
L 36.8125 47.703125 
L 18.3125 47.703125 
L 18.3125 18.015625 
Q 18.3125 11.328125 20.140625 9.421875 
Q 21.96875 7.515625 27.59375 7.515625 
L 36.8125 7.515625 
L 36.8125 0 
L 27.59375 0 
Q 17.1875 0 13.234375 3.875 
Q 9.28125 7.765625 9.28125 18.015625 
L 9.28125 47.703125 
L 2.6875 47.703125 
L 2.6875 54.6875 
L 9.28125 54.6875 
L 9.28125 70.21875 
z
" id="DejaVuSans-116"/>
       <path d="M 8.5 21.578125 
L 8.5 54.6875 
L 17.484375 54.6875 
L 17.484375 21.921875 
Q 17.484375 14.15625 20.5 10.265625 
Q 23.53125 6.390625 29.59375 6.390625 
Q 36.859375 6.390625 41.078125 11.03125 
Q 45.3125 15.671875 45.3125 23.6875 
L 45.3125 54.6875 
L 54.296875 54.6875 
L 54.296875 0 
L 45.3125 0 
L 45.3125 8.40625 
Q 42.046875 3.421875 37.71875 1 
Q 33.40625 -1.421875 27.6875 -1.421875 
Q 18.265625 -1.421875 13.375 4.4375 
Q 8.5 10.296875 8.5 21.578125 
z
M 31.109375 56 
z
" id="DejaVuSans-117"/>
       <path d="M 52 44.1875 
Q 55.375 50.25 60.0625 53.125 
Q 64.75 56 71.09375 56 
Q 79.640625 56 84.28125 50.015625 
Q 88.921875 44.046875 88.921875 33.015625 
L 88.921875 0 
L 79.890625 0 
L 79.890625 32.71875 
Q 79.890625 40.578125 77.09375 44.375 
Q 74.3125 48.1875 68.609375 48.1875 
Q 61.625 48.1875 57.5625 43.546875 
Q 53.515625 38.921875 53.515625 30.90625 
L 53.515625 0 
L 44.484375 0 
L 44.484375 32.71875 
Q 44.484375 40.625 41.703125 44.40625 
Q 38.921875 48.1875 33.109375 48.1875 
Q 26.21875 48.1875 22.15625 43.53125 
Q 18.109375 38.875 18.109375 30.90625 
L 18.109375 0 
L 9.078125 0 
L 9.078125 54.6875 
L 18.109375 54.6875 
L 18.109375 46.1875 
Q 21.1875 51.21875 25.484375 53.609375 
Q 29.78125 56 35.6875 56 
Q 41.65625 56 45.828125 52.96875 
Q 50 49.953125 52 44.1875 
z
" id="DejaVuSans-109"/>
      </defs>
      <use xlink:href="#DejaVuSans-68"/>
      <use x="77.001953" xlink:href="#DejaVuSans-97"/>
      <use x="138.28125" xlink:href="#DejaVuSans-116"/>
      <use x="177.490234" xlink:href="#DejaVuSans-117"/>
      <use x="240.869141" xlink:href="#DejaVuSans-109"/>
     </g>
    </g>
   </g>
   <g id="matplotlib.axis_2">
    <g id="ytick_1">
     <g id="line2d_17">
      <path clip-path="url(#p0e257e75dc)" d="M 64.8 300.272727 
L 655.2 300.272727 
" style="fill:none;stroke:#808080;stroke-dasharray:6.4,1.6,1,1.6;stroke-dashoffset:0;stroke-opacity:0.3;"/>
     </g>
     <g id="line2d_18">
      <defs>
       <path d="M 0 0 
L -3.5 0 
" id="me21b7a656d" style="stroke:#000000;stroke-width:0.8;"/>
      </defs>
      <g>
       <use style="stroke:#000000;stroke-width:0.8;" x="64.8" xlink:href="#me21b7a656d" y="300.272727"/>
      </g>
     </g>
     <g id="text_10">
      <!-- 0 -->
      <g transform="translate(51.4375 304.071946)scale(0.1 -0.1)">
       <use xlink:href="#DejaVuSans-48"/>
      </g>
     </g>
    </g>
    <g id="ytick_2">
     <g id="line2d_19">
      <path clip-path="url(#p0e257e75dc)" d="M 64.8 237.21286 
L 655.2 237.21286 
" style="fill:none;stroke:#808080;stroke-dasharray:6.4,1.6,1,1.6;stroke-dashoffset:0;stroke-opacity:0.3;"/>
     </g>
     <g id="line2d_20">
      <g>
       <use style="stroke:#000000;stroke-width:0.8;" x="64.8" xlink:href="#me21b7a656d" y="237.21286"/>
      </g>
     </g>
     <g id="text_11">
      <!-- 5 -->
      <g transform="translate(51.4375 241.012079)scale(0.1 -0.1)">
       <use xlink:href="#DejaVuSans-53"/>
      </g>
     </g>
    </g>
    <g id="ytick_3">
     <g id="line2d_21">
      <path clip-path="url(#p0e257e75dc)" d="M 64.8 174.152993 
L 655.2 174.152993 
" style="fill:none;stroke:#808080;stroke-dasharray:6.4,1.6,1,1.6;stroke-dashoffset:0;stroke-opacity:0.3;"/>
     </g>
     <g id="line2d_22">
      <g>
       <use style="stroke:#000000;stroke-width:0.8;" x="64.8" xlink:href="#me21b7a656d" y="174.152993"/>
      </g>
     </g>
     <g id="text_12">
      <!-- 10 -->
      <g transform="translate(45.075 177.952212)scale(0.1 -0.1)">
       <use xlink:href="#DejaVuSans-49"/>
       <use x="63.623047" xlink:href="#DejaVuSans-48"/>
      </g>
     </g>
    </g>
    <g id="ytick_4">
     <g id="line2d_23">
      <path clip-path="url(#p0e257e75dc)" d="M 64.8 111.093126 
L 655.2 111.093126 
" style="fill:none;stroke:#808080;stroke-dasharray:6.4,1.6,1,1.6;stroke-dashoffset:0;stroke-opacity:0.3;"/>
     </g>
     <g id="line2d_24">
      <g>
       <use style="stroke:#000000;stroke-width:0.8;" x="64.8" xlink:href="#me21b7a656d" y="111.093126"/>
      </g>
     </g>
     <g id="text_13">
      <!-- 15 -->
      <g transform="translate(45.075 114.892345)scale(0.1 -0.1)">
       <use xlink:href="#DejaVuSans-49"/>
       <use x="63.623047" xlink:href="#DejaVuSans-53"/>
      </g>
     </g>
    </g>
    <g id="ytick_5">
     <g id="line2d_25">
      <path clip-path="url(#p0e257e75dc)" d="M 64.8 48.033259 
L 655.2 48.033259 
" style="fill:none;stroke:#808080;stroke-dasharray:6.4,1.6,1,1.6;stroke-dashoffset:0;stroke-opacity:0.3;"/>
     </g>
     <g id="line2d_26">
      <g>
       <use style="stroke:#000000;stroke-width:0.8;" x="64.8" xlink:href="#me21b7a656d" y="48.033259"/>
      </g>
     </g>
     <g id="text_14">
      <!-- 20 -->
      <g transform="translate(45.075 51.832478)scale(0.1 -0.1)">
       <use xlink:href="#DejaVuSans-50"/>
       <use x="63.623047" xlink:href="#DejaVuSans-48"/>
      </g>
     </g>
    </g>
   </g>
   <g id="line2d_27">
    <path clip-path="url(#p0e257e75dc)" d="M 91.636364 280.090993 
L 95.554081 246.739249 
L 97.904711 240.0689 
L 99.471798 228.336238 
L 101.038885 218.748215 
L 101.822429 214.491807 
L 105.740146 197.940369 
L 106.523689 195.418596 
L 107.307233 193.456527 
L 108.090776 192.153662 
L 108.87432 190.387489 
L 109.657863 187.834621 
L 112.008494 178.577756 
L 112.792037 175.639316 
L 113.575581 173.565305 
L 114.359124 172.371272 
L 115.142668 172.293536 
L 116.709754 174.451502 
L 119.060385 178.195293 
L 119.843928 180.275522 
L 122.194559 188.500046 
L 122.978102 189.753159 
L 125.328733 190.676669 
L 126.112276 190.658012 
L 126.89582 190.829032 
L 127.679363 191.279904 
L 128.462906 192.287369 
L 129.24645 194.037996 
L 130.029993 196.189743 
L 130.813537 198.804799 
L 131.59708 201.808539 
L 132.380624 205.343996 
L 133.164167 210.987667 
L 135.514798 230.574161 
L 137.081885 242.228421 
L 137.865428 247.07918 
L 138.648971 251.099713 
L 139.432515 254.333552 
L 140.216058 256.503956 
L 140.999602 257.610924 
L 141.783145 257.984059 
L 142.566689 257.411918 
L 143.350232 255.561789 
L 144.917319 250.446726 
L 145.700863 247.312389 
L 147.26795 238.322938 
L 148.835036 227.46781 
L 151.185667 209.76254 
L 151.96921 205.057925 
L 152.752754 201.251945 
L 155.886928 188.509374 
L 156.670471 187.290466 
L 157.454015 187.100789 
L 158.237558 188.667957 
L 159.021102 192.302917 
L 159.804645 197.041735 
L 162.938819 223.83285 
L 166.856536 252.132054 
L 167.64008 257.082315 
L 168.423623 261.199242 
L 169.207167 264.09415 
L 169.99071 266.497763 
L 170.774253 268.046275 
L 173.124884 270.90076 
L 174.691971 272.197405 
L 175.475514 272.505241 
L 176.259058 272.076136 
L 177.826145 270.210459 
L 178.609688 269.035083 
L 180.176775 265.925622 
L 182.527405 260.278841 
L 183.310949 258.873365 
L 184.094492 257.825477 
L 186.445123 256.323607 
L 187.228666 256.808683 
L 188.795753 258.397617 
L 189.579297 258.944883 
L 190.36284 259.678715 
L 191.146384 259.585431 
L 193.497014 256.957937 
L 194.280557 255.285047 
L 195.847644 250.518243 
L 196.631188 247.980923 
L 198.198275 241.025059 
L 199.765362 234.230887 
L 200.548905 231.320432 
L 201.332449 230.020677 
L 202.115992 230.232121 
L 203.683079 230.082866 
L 204.466622 231.049909 
L 205.250166 233.008869 
L 206.033709 235.372059 
L 207.600796 241.674937 
L 209.951427 252.017004 
L 210.73497 255.157559 
L 211.518514 257.237788 
L 213.085601 258.795628 
L 213.869144 259.271376 
L 214.652687 258.854708 
L 215.436231 257.421247 
L 216.219774 255.316142 
L 217.786861 248.947966 
L 221.704579 230.633241 
L 222.488122 228.500151 
L 223.271666 227.088456 
L 224.055209 226.323528 
L 224.838752 226.401265 
L 225.622296 227.474029 
L 226.405839 229.457865 
L 229.540013 241.053045 
L 230.323557 243.2732 
L 231.1071 244.799945 
L 231.890644 245.452932 
L 232.674187 244.722208 
L 233.457731 243.049318 
L 234.241274 240.888243 
L 235.024818 238.095947 
L 235.808361 234.585366 
L 239.726078 213.963421 
L 240.509622 211.967147 
L 241.293165 211.14625 
L 242.076709 211.354584 
L 242.860252 213.447251 
L 244.427339 219.669282 
L 245.994426 226.304871 
L 249.912143 246.084152 
L 250.695687 248.814259 
L 251.47923 250.670607 
L 252.262774 251.9828 
L 253.046317 252.020113 
L 255.396948 251.065509 
L 256.180491 251.208544 
L 256.964035 251.497724 
L 258.531121 250.88205 
L 260.098208 249.967869 
L 260.881752 249.274459 
L 261.665295 248.425576 
L 262.448839 247.753933 
L 263.232382 247.259528 
L 265.583013 248.036894 
L 266.366556 247.502066 
L 267.1501 246.429302 
L 267.933643 245.760768 
L 270.284273 243.235886 
L 271.067817 242.847203 
L 271.85136 243.406906 
L 272.634904 244.59472 
L 273.418447 245.558653 
L 274.985534 246.693607 
L 275.769078 247.53627 
L 276.552621 249.016374 
L 281.253882 260.972251 
L 282.037425 262.12897 
L 282.820969 262.719768 
L 285.955143 265.934951 
L 286.738686 266.423136 
L 287.52223 266.765177 
L 290.656403 268.895157 
L 291.439947 269.361577 
L 293.007034 270.776381 
L 295.357664 273.142681 
L 297.708295 274.482859 
L 298.491838 274.852884 
L 300.058925 275.138955 
L 303.193099 275.390821 
L 303.976642 275.602265 
L 305.543729 275.707986 
L 306.327273 275.524528 
L 307.110816 274.775148 
L 307.89436 273.071163 
L 309.461447 268.702371 
L 312.59562 260.754589 
L 315.729794 250.729687 
L 316.513338 249.20916 
L 317.296881 248.86401 
L 318.080425 250.229064 
L 321.998142 261.653223 
L 325.915859 275.027014 
L 326.699403 276.951771 
L 327.482946 278.068067 
L 328.26649 278.061848 
L 329.050033 277.651399 
L 330.61712 276.382739 
L 332.184207 275.773285 
L 334.534837 274.255868 
L 335.318381 274.000892 
L 336.101924 274.293181 
L 336.885468 274.423779 
L 337.669011 274.855994 
L 338.452555 275.913211 
L 339.236098 276.696795 
L 340.803185 277.502145 
L 342.370272 277.900156 
L 343.153816 278.096052 
L 343.937359 277.900156 
L 344.720902 277.582991 
L 345.504446 277.032617 
L 346.287989 276.336097 
L 347.071533 275.804379 
L 347.855076 274.896417 
L 348.63862 273.605991 
L 349.422163 272.794421 
L 350.205707 272.51457 
L 352.556337 270.679988 
L 354.906967 267.84416 
L 355.690511 266.360947 
L 356.474054 264.302484 
L 358.041141 258.21105 
L 358.824685 254.23094 
L 360.391772 244.361511 
L 361.958859 233.357129 
L 366.660119 194.690983 
L 367.443663 189.448431 
L 368.227206 185.18847 
L 369.01075 182.007492 
L 369.794293 179.324027 
L 370.577837 177.361957 
L 371.36138 176.024889 
L 372.144924 175.263071 
L 372.928467 175.427872 
L 373.712011 176.553497 
L 374.495554 179.13124 
L 376.062641 186.911111 
L 377.629728 197.349572 
L 379.980358 212.722746 
L 383.114532 228.904381 
L 383.898076 232.492699 
L 384.681619 235.235243 
L 386.248706 238.988362 
L 387.03225 240.219709 
L 387.815793 240.605282 
L 388.599336 241.121453 
L 389.38288 242.212873 
L 390.166423 243.761385 
L 391.73351 249.199832 
L 392.517054 250.204188 
L 393.300597 250.197969 
L 394.084141 249.532544 
L 395.651228 247.626445 
L 397.218315 245.334772 
L 398.001858 244.436138 
L 398.785401 243.220339 
L 399.568945 241.438618 
L 400.352488 239.23401 
L 401.136032 236.472809 
L 401.919575 234.321062 
L 402.703119 234.224668 
L 403.486662 235.297432 
L 405.053749 239.159383 
L 405.837293 240.244585 
L 406.620836 240.670581 
L 407.40438 240.760755 
L 408.187923 240.574188 
L 408.971466 240.197943 
L 409.75501 239.563613 
L 410.538553 237.666842 
L 411.322097 234.977158 
L 412.10564 231.631378 
L 412.889184 227.508233 
L 422.291705 222.999515 
L 423.075249 218.111442 
L 424.642336 210.172988 
L 426.209423 204.678571 
L 427.77651 200.051693 
L 429.343597 198.139375 
L 430.12714 198.332161 
L 431.694227 200.885029 
L 433.261314 204.031803 
L 434.044857 205.689146 
L 434.828401 207.057309 
L 440.313205 224.106483 
L 441.096749 225.875766 
L 442.663835 229.902518 
L 445.798009 235.891339 
L 447.365096 238.506396 
L 448.14864 239.103413 
L 448.932183 239.451672 
L 449.715727 240.829163 
L 450.49927 241.513245 
L 451.282814 241.650061 
L 452.066357 241.401304 
L 452.8499 241.494588 
L 454.416987 242.184888 
L 455.200531 242.359018 
L 455.984074 241.961007 
L 456.767618 241.360881 
L 457.551161 240.922447 
L 459.118248 241.883271 
L 461.468879 241.970335 
L 462.252422 242.962254 
L 463.819509 246.737139 
L 464.603052 247.996471 
L 466.953683 252.50208 
L 467.737226 254.656936 
L 468.52077 257.240898 
L 470.087857 261.245884 
L 470.8714 263.257705 
L 471.654944 264.890172 
L 472.438487 266.003359 
L 473.222031 266.684331 
L 474.005574 267.184954 
L 475.572661 268.742794 
L 476.356204 269.554363 
L 477.139748 270.008344 
L 477.923291 270.123394 
L 478.706835 269.852871 
L 479.490378 269.971031 
L 480.273922 269.871528 
L 481.057465 269.299387 
L 483.408096 268.24839 
L 484.191639 268.354111 
L 484.975182 268.693042 
L 485.758726 269.159462 
L 486.542269 269.949265 
L 490.459987 275.80127 
L 492.027074 279.541951 
L 493.594161 283.606017 
L 494.377704 285.254031 
L 495.161248 286.609756 
L 495.944791 287.722943 
L 496.728334 288.518965 
L 498.295421 289.507774 
L 500.646052 291.081161 
L 501.429595 291.249072 
L 502.213139 291.183773 
L 503.780226 290.826185 
L 504.563769 290.397079 
L 506.130856 288.323069 
L 507.697943 285.341096 
L 508.481486 283.450544 
L 510.048573 278.842323 
L 512.399204 271.211706 
L 514.749834 261.696755 
L 516.316921 258.167517 
L 517.100464 257.244007 
L 517.884008 257.153833 
L 518.667551 257.645128 
L 519.451095 258.761424 
L 521.018182 261.559939 
L 521.801725 262.604718 
L 522.585269 264.013304 
L 523.368812 266.255225 
L 524.935899 272.489694 
L 525.719443 274.93373 
L 526.502986 276.60662 
L 527.28653 277.306249 
L 528.070073 277.471051 
L 528.853616 276.945552 
L 529.63716 275.521419 
L 530.420703 273.761464 
L 531.204247 272.477256 
L 531.98779 271.718548 
L 532.771334 270.754615 
L 533.554877 269.560582 
L 535.905508 264.181215 
L 536.689051 263.655716 
L 537.472595 263.898254 
L 538.256138 263.742781 
L 539.039681 264.255842 
L 539.823225 265.863433 
L 541.390312 269.411328 
L 542.173855 270.555609 
L 543.740942 271.964195 
L 545.308029 273.444299 
L 546.091573 273.888952 
L 546.875116 273.195542 
L 547.65866 272.020166 
L 548.442203 271.267676 
L 549.225747 270.285086 
L 550.792833 267.247143 
L 551.576377 265.679975 
L 552.35992 264.678728 
L 555.494094 263.758328 
L 556.277638 264.025742 
L 557.061181 265.337934 
L 561.762442 278.826775 
L 562.545985 280.683124 
L 566.463703 287.931277 
L 567.247246 288.83613 
L 568.03079 289.175061 
L 568.814333 289.330534 
L 575.866224 294.83739 
L 578.216855 296.050079 
L 579.000398 296.323712 
L 586.835833 296.389011 
L 596.238354 295.748462 
L 599.372528 295.269605 
L 600.156072 294.912017 
L 601.723159 293.180047 
L 604.073789 290.633398 
L 605.640876 288.948071 
L 607.207963 286.339233 
L 608.77505 283.052533 
L 609.558593 281.301906 
L 610.342137 280.082998 
L 611.12568 279.657002 
L 613.476311 279.047547 
L 615.043397 278.388341 
L 615.826941 278.372794 
L 617.394028 279.706753 
L 618.177571 280.680014 
L 619.744658 283.219111 
L 620.528202 284.018687 
L 621.311745 284.291431 
L 622.095289 284.320304 
L 622.878832 284.20792 
L 624.445919 283.818793 
L 628.363636 283.032543 
L 628.363636 283.032543 
" style="fill:none;stroke:#ff0000;stroke-linecap:square;stroke-width:1.5;"/>
   </g>
   <g id="patch_3">
    <path d="M 64.8 313.2 
L 64.8 28.8 
" style="fill:none;stroke:#000000;stroke-linecap:square;stroke-linejoin:miter;stroke-width:0.8;"/>
   </g>
   <g id="patch_4">
    <path d="M 655.2 313.2 
L 655.2 28.8 
" style="fill:none;stroke:#000000;stroke-linecap:square;stroke-linejoin:miter;stroke-width:0.8;"/>
   </g>
   <g id="patch_5">
    <path d="M 64.8 313.2 
L 655.2 313.2 
" style="fill:none;stroke:#000000;stroke-linecap:square;stroke-linejoin:miter;stroke-width:0.8;"/>
   </g>
   <g id="patch_6">
    <path d="M 64.8 28.8 
L 655.2 28.8 
" style="fill:none;stroke:#000000;stroke-linecap:square;stroke-linejoin:miter;stroke-width:0.8;"/>
   </g>
   <g id="text_15">
    <!-- Page hits per uur (gemiddeld ongeveer 1). -->
    <g transform="translate(232.46625 22.8)scale(0.12 -0.12)">
     <defs>
      <path d="M 19.671875 64.796875 
L 19.671875 37.40625 
L 32.078125 37.40625 
Q 38.96875 37.40625 42.71875 40.96875 
Q 46.484375 44.53125 46.484375 51.125 
Q 46.484375 57.671875 42.71875 61.234375 
Q 38.96875 64.796875 32.078125 64.796875 
z
M 9.8125 72.90625 
L 32.078125 72.90625 
Q 44.34375 72.90625 50.609375 67.359375 
Q 56.890625 61.8125 56.890625 51.125 
Q 56.890625 40.328125 50.609375 34.8125 
Q 44.34375 29.296875 32.078125 29.296875 
L 19.671875 29.296875 
L 19.671875 0 
L 9.8125 0 
z
" id="DejaVuSans-80"/>
      <path d="M 45.40625 27.984375 
Q 45.40625 37.75 41.375 43.109375 
Q 37.359375 48.484375 30.078125 48.484375 
Q 22.859375 48.484375 18.828125 43.109375 
Q 14.796875 37.75 14.796875 27.984375 
Q 14.796875 18.265625 18.828125 12.890625 
Q 22.859375 7.515625 30.078125 7.515625 
Q 37.359375 7.515625 41.375 12.890625 
Q 45.40625 18.265625 45.40625 27.984375 
z
M 54.390625 6.78125 
Q 54.390625 -7.171875 48.1875 -13.984375 
Q 42 -20.796875 29.203125 -20.796875 
Q 24.46875 -20.796875 20.265625 -20.09375 
Q 16.0625 -19.390625 12.109375 -17.921875 
L 12.109375 -9.1875 
Q 16.0625 -11.328125 19.921875 -12.34375 
Q 23.78125 -13.375 27.78125 -13.375 
Q 36.625 -13.375 41.015625 -8.765625 
Q 45.40625 -4.15625 45.40625 5.171875 
L 45.40625 9.625 
Q 42.625 4.78125 38.28125 2.390625 
Q 33.9375 0 27.875 0 
Q 17.828125 0 11.671875 7.65625 
Q 5.515625 15.328125 5.515625 27.984375 
Q 5.515625 40.671875 11.671875 48.328125 
Q 17.828125 56 27.875 56 
Q 33.9375 56 38.28125 53.609375 
Q 42.625 51.21875 45.40625 46.390625 
L 45.40625 54.6875 
L 54.390625 54.6875 
z
" id="DejaVuSans-103"/>
      <path d="M 56.203125 29.59375 
L 56.203125 25.203125 
L 14.890625 25.203125 
Q 15.484375 15.921875 20.484375 11.0625 
Q 25.484375 6.203125 34.421875 6.203125 
Q 39.59375 6.203125 44.453125 7.46875 
Q 49.3125 8.734375 54.109375 11.28125 
L 54.109375 2.78125 
Q 49.265625 0.734375 44.1875 -0.34375 
Q 39.109375 -1.421875 33.890625 -1.421875 
Q 20.796875 -1.421875 13.15625 6.1875 
Q 5.515625 13.8125 5.515625 26.8125 
Q 5.515625 40.234375 12.765625 48.109375 
Q 20.015625 56 32.328125 56 
Q 43.359375 56 49.78125 48.890625 
Q 56.203125 41.796875 56.203125 29.59375 
z
M 47.21875 32.234375 
Q 47.125 39.59375 43.09375 43.984375 
Q 39.0625 48.390625 32.421875 48.390625 
Q 24.90625 48.390625 20.390625 44.140625 
Q 15.875 39.890625 15.1875 32.171875 
z
" id="DejaVuSans-101"/>
      <path id="DejaVuSans-32"/>
      <path d="M 54.890625 33.015625 
L 54.890625 0 
L 45.90625 0 
L 45.90625 32.71875 
Q 45.90625 40.484375 42.875 44.328125 
Q 39.84375 48.1875 33.796875 48.1875 
Q 26.515625 48.1875 22.3125 43.546875 
Q 18.109375 38.921875 18.109375 30.90625 
L 18.109375 0 
L 9.078125 0 
L 9.078125 75.984375 
L 18.109375 75.984375 
L 18.109375 46.1875 
Q 21.34375 51.125 25.703125 53.5625 
Q 30.078125 56 35.796875 56 
Q 45.21875 56 50.046875 50.171875 
Q 54.890625 44.34375 54.890625 33.015625 
z
" id="DejaVuSans-104"/>
      <path d="M 9.421875 54.6875 
L 18.40625 54.6875 
L 18.40625 0 
L 9.421875 0 
z
M 9.421875 75.984375 
L 18.40625 75.984375 
L 18.40625 64.59375 
L 9.421875 64.59375 
z
" id="DejaVuSans-105"/>
      <path d="M 44.28125 53.078125 
L 44.28125 44.578125 
Q 40.484375 46.53125 36.375 47.5 
Q 32.28125 48.484375 27.875 48.484375 
Q 21.1875 48.484375 17.84375 46.4375 
Q 14.5 44.390625 14.5 40.28125 
Q 14.5 37.15625 16.890625 35.375 
Q 19.28125 33.59375 26.515625 31.984375 
L 29.59375 31.296875 
Q 39.15625 29.25 43.1875 25.515625 
Q 47.21875 21.78125 47.21875 15.09375 
Q 47.21875 7.46875 41.1875 3.015625 
Q 35.15625 -1.421875 24.609375 -1.421875 
Q 20.21875 -1.421875 15.453125 -0.5625 
Q 10.6875 0.296875 5.421875 2 
L 5.421875 11.28125 
Q 10.40625 8.6875 15.234375 7.390625 
Q 20.0625 6.109375 24.8125 6.109375 
Q 31.15625 6.109375 34.5625 8.28125 
Q 37.984375 10.453125 37.984375 14.40625 
Q 37.984375 18.0625 35.515625 20.015625 
Q 33.0625 21.96875 24.703125 23.78125 
L 21.578125 24.515625 
Q 13.234375 26.265625 9.515625 29.90625 
Q 5.8125 33.546875 5.8125 39.890625 
Q 5.8125 47.609375 11.28125 51.796875 
Q 16.75 56 26.8125 56 
Q 31.78125 56 36.171875 55.265625 
Q 40.578125 54.546875 44.28125 53.078125 
z
" id="DejaVuSans-115"/>
      <path d="M 18.109375 8.203125 
L 18.109375 -20.796875 
L 9.078125 -20.796875 
L 9.078125 54.6875 
L 18.109375 54.6875 
L 18.109375 46.390625 
Q 20.953125 51.265625 25.265625 53.625 
Q 29.59375 56 35.59375 56 
Q 45.5625 56 51.78125 48.09375 
Q 58.015625 40.1875 58.015625 27.296875 
Q 58.015625 14.40625 51.78125 6.484375 
Q 45.5625 -1.421875 35.59375 -1.421875 
Q 29.59375 -1.421875 25.265625 0.953125 
Q 20.953125 3.328125 18.109375 8.203125 
z
M 48.6875 27.296875 
Q 48.6875 37.203125 44.609375 42.84375 
Q 40.53125 48.484375 33.40625 48.484375 
Q 26.265625 48.484375 22.1875 42.84375 
Q 18.109375 37.203125 18.109375 27.296875 
Q 18.109375 17.390625 22.1875 11.75 
Q 26.265625 6.109375 33.40625 6.109375 
Q 40.53125 6.109375 44.609375 11.75 
Q 48.6875 17.390625 48.6875 27.296875 
z
" id="DejaVuSans-112"/>
      <path d="M 41.109375 46.296875 
Q 39.59375 47.171875 37.8125 47.578125 
Q 36.03125 48 33.890625 48 
Q 26.265625 48 22.1875 43.046875 
Q 18.109375 38.09375 18.109375 28.8125 
L 18.109375 0 
L 9.078125 0 
L 9.078125 54.6875 
L 18.109375 54.6875 
L 18.109375 46.1875 
Q 20.953125 51.171875 25.484375 53.578125 
Q 30.03125 56 36.53125 56 
Q 37.453125 56 38.578125 55.875 
Q 39.703125 55.765625 41.0625 55.515625 
z
" id="DejaVuSans-114"/>
      <path d="M 31 75.875 
Q 24.46875 64.65625 21.28125 53.65625 
Q 18.109375 42.671875 18.109375 31.390625 
Q 18.109375 20.125 21.3125 9.0625 
Q 24.515625 -2 31 -13.1875 
L 23.1875 -13.1875 
Q 15.875 -1.703125 12.234375 9.375 
Q 8.59375 20.453125 8.59375 31.390625 
Q 8.59375 42.28125 12.203125 53.3125 
Q 15.828125 64.359375 23.1875 75.875 
z
" id="DejaVuSans-40"/>
      <path d="M 45.40625 46.390625 
L 45.40625 75.984375 
L 54.390625 75.984375 
L 54.390625 0 
L 45.40625 0 
L 45.40625 8.203125 
Q 42.578125 3.328125 38.25 0.953125 
Q 33.9375 -1.421875 27.875 -1.421875 
Q 17.96875 -1.421875 11.734375 6.484375 
Q 5.515625 14.40625 5.515625 27.296875 
Q 5.515625 40.1875 11.734375 48.09375 
Q 17.96875 56 27.875 56 
Q 33.9375 56 38.25 53.625 
Q 42.578125 51.265625 45.40625 46.390625 
z
M 14.796875 27.296875 
Q 14.796875 17.390625 18.875 11.75 
Q 22.953125 6.109375 30.078125 6.109375 
Q 37.203125 6.109375 41.296875 11.75 
Q 45.40625 17.390625 45.40625 27.296875 
Q 45.40625 37.203125 41.296875 42.84375 
Q 37.203125 48.484375 30.078125 48.484375 
Q 22.953125 48.484375 18.875 42.84375 
Q 14.796875 37.203125 14.796875 27.296875 
z
" id="DejaVuSans-100"/>
      <path d="M 9.421875 75.984375 
L 18.40625 75.984375 
L 18.40625 0 
L 9.421875 0 
z
" id="DejaVuSans-108"/>
      <path d="M 30.609375 48.390625 
Q 23.390625 48.390625 19.1875 42.75 
Q 14.984375 37.109375 14.984375 27.296875 
Q 14.984375 17.484375 19.15625 11.84375 
Q 23.34375 6.203125 30.609375 6.203125 
Q 37.796875 6.203125 41.984375 11.859375 
Q 46.1875 17.53125 46.1875 27.296875 
Q 46.1875 37.015625 41.984375 42.703125 
Q 37.796875 48.390625 30.609375 48.390625 
z
M 30.609375 56 
Q 42.328125 56 49.015625 48.375 
Q 55.71875 40.765625 55.71875 27.296875 
Q 55.71875 13.875 49.015625 6.21875 
Q 42.328125 -1.421875 30.609375 -1.421875 
Q 18.84375 -1.421875 12.171875 6.21875 
Q 5.515625 13.875 5.515625 27.296875 
Q 5.515625 40.765625 12.171875 48.375 
Q 18.84375 56 30.609375 56 
z
" id="DejaVuSans-111"/>
      <path d="M 54.890625 33.015625 
L 54.890625 0 
L 45.90625 0 
L 45.90625 32.71875 
Q 45.90625 40.484375 42.875 44.328125 
Q 39.84375 48.1875 33.796875 48.1875 
Q 26.515625 48.1875 22.3125 43.546875 
Q 18.109375 38.921875 18.109375 30.90625 
L 18.109375 0 
L 9.078125 0 
L 9.078125 54.6875 
L 18.109375 54.6875 
L 18.109375 46.1875 
Q 21.34375 51.125 25.703125 53.5625 
Q 30.078125 56 35.796875 56 
Q 45.21875 56 50.046875 50.171875 
Q 54.890625 44.34375 54.890625 33.015625 
z
" id="DejaVuSans-110"/>
      <path d="M 2.984375 54.6875 
L 12.5 54.6875 
L 29.59375 8.796875 
L 46.6875 54.6875 
L 56.203125 54.6875 
L 35.6875 0 
L 23.484375 0 
z
" id="DejaVuSans-118"/>
      <path d="M 8.015625 75.875 
L 15.828125 75.875 
Q 23.140625 64.359375 26.78125 53.3125 
Q 30.421875 42.28125 30.421875 31.390625 
Q 30.421875 20.453125 26.78125 9.375 
Q 23.140625 -1.703125 15.828125 -13.1875 
L 8.015625 -13.1875 
Q 14.5 -2 17.703125 9.0625 
Q 20.90625 20.125 20.90625 31.390625 
Q 20.90625 42.671875 17.703125 53.65625 
Q 14.5 64.65625 8.015625 75.875 
z
" id="DejaVuSans-41"/>
      <path d="M 10.6875 12.40625 
L 21 12.40625 
L 21 0 
L 10.6875 0 
z
" id="DejaVuSans-46"/>
     </defs>
     <use xlink:href="#DejaVuSans-80"/>
     <use x="55.802734" xlink:href="#DejaVuSans-97"/>
     <use x="117.082031" xlink:href="#DejaVuSans-103"/>
     <use x="180.558594" xlink:href="#DejaVuSans-101"/>
     <use x="242.082031" xlink:href="#DejaVuSans-32"/>
     <use x="273.869141" xlink:href="#DejaVuSans-104"/>
     <use x="337.248047" xlink:href="#DejaVuSans-105"/>
     <use x="365.03125" xlink:href="#DejaVuSans-116"/>
     <use x="404.240234" xlink:href="#DejaVuSans-115"/>
     <use x="456.339844" xlink:href="#DejaVuSans-32"/>
     <use x="488.126953" xlink:href="#DejaVuSans-112"/>
     <use x="551.603516" xlink:href="#DejaVuSans-101"/>
     <use x="613.126953" xlink:href="#DejaVuSans-114"/>
     <use x="654.240234" xlink:href="#DejaVuSans-32"/>
     <use x="686.027344" xlink:href="#DejaVuSans-117"/>
     <use x="749.40625" xlink:href="#DejaVuSans-117"/>
     <use x="812.785156" xlink:href="#DejaVuSans-114"/>
     <use x="853.898438" xlink:href="#DejaVuSans-32"/>
     <use x="885.685547" xlink:href="#DejaVuSans-40"/>
     <use x="924.699219" xlink:href="#DejaVuSans-103"/>
     <use x="988.175781" xlink:href="#DejaVuSans-101"/>
     <use x="1049.699219" xlink:href="#DejaVuSans-109"/>
     <use x="1147.111328" xlink:href="#DejaVuSans-105"/>
     <use x="1174.894531" xlink:href="#DejaVuSans-100"/>
     <use x="1238.371094" xlink:href="#DejaVuSans-100"/>
     <use x="1301.847656" xlink:href="#DejaVuSans-101"/>
     <use x="1363.371094" xlink:href="#DejaVuSans-108"/>
     <use x="1391.154297" xlink:href="#DejaVuSans-100"/>
     <use x="1454.630859" xlink:href="#DejaVuSans-32"/>
     <use x="1486.417969" xlink:href="#DejaVuSans-111"/>
     <use x="1547.599609" xlink:href="#DejaVuSans-110"/>
     <use x="1610.978516" xlink:href="#DejaVuSans-103"/>
     <use x="1674.455078" xlink:href="#DejaVuSans-101"/>
     <use x="1735.978516" xlink:href="#DejaVuSans-118"/>
     <use x="1795.158203" xlink:href="#DejaVuSans-101"/>
     <use x="1856.681641" xlink:href="#DejaVuSans-101"/>
     <use x="1918.205078" xlink:href="#DejaVuSans-114"/>
     <use x="1959.318359" xlink:href="#DejaVuSans-32"/>
     <use x="1991.105469" xlink:href="#DejaVuSans-49"/>
     <use x="2054.728516" xlink:href="#DejaVuSans-41"/>
     <use x="2093.742188" xlink:href="#DejaVuSans-46"/>
    </g>
   </g>
  </g>
  <g id="text_16">
   <!-- Gegenereerd op 2022-10-06 23:47. -->
   <g style="fill:#808080;" transform="translate(7.2 356.4)scale(0.08 -0.08)">
    <defs>
     <path d="M 59.515625 10.40625 
L 59.515625 29.984375 
L 43.40625 29.984375 
L 43.40625 38.09375 
L 69.28125 38.09375 
L 69.28125 6.78125 
Q 63.578125 2.734375 56.6875 0.65625 
Q 49.8125 -1.421875 42 -1.421875 
Q 24.90625 -1.421875 15.25 8.5625 
Q 5.609375 18.5625 5.609375 36.375 
Q 5.609375 54.25 15.25 64.234375 
Q 24.90625 74.21875 42 74.21875 
Q 49.125 74.21875 55.546875 72.453125 
Q 61.96875 70.703125 67.390625 67.28125 
L 67.390625 56.78125 
Q 61.921875 61.421875 55.765625 63.765625 
Q 49.609375 66.109375 42.828125 66.109375 
Q 29.4375 66.109375 22.71875 58.640625 
Q 16.015625 51.171875 16.015625 36.375 
Q 16.015625 21.625 22.71875 14.15625 
Q 29.4375 6.6875 42.828125 6.6875 
Q 48.046875 6.6875 52.140625 7.59375 
Q 56.25 8.5 59.515625 10.40625 
z
" id="DejaVuSans-71"/>
     <path d="M 11.71875 12.40625 
L 22.015625 12.40625 
L 22.015625 0 
L 11.71875 0 
z
M 11.71875 51.703125 
L 22.015625 51.703125 
L 22.015625 39.3125 
L 11.71875 39.3125 
z
" id="DejaVuSans-58"/>
     <path d="M 8.203125 72.90625 
L 55.078125 72.90625 
L 55.078125 68.703125 
L 28.609375 0 
L 18.3125 0 
L 43.21875 64.59375 
L 8.203125 64.59375 
z
" id="DejaVuSans-55"/>
    </defs>
    <use xlink:href="#DejaVuSans-71"/>
    <use x="77.490234" xlink:href="#DejaVuSans-101"/>
    <use x="139.013672" xlink:href="#DejaVuSans-103"/>
    <use x="202.490234" xlink:href="#DejaVuSans-101"/>
    <use x="264.013672" xlink:href="#DejaVuSans-110"/>
    <use x="327.392578" xlink:href="#DejaVuSans-101"/>
    <use x="388.916016" xlink:href="#DejaVuSans-114"/>
    <use x="427.779297" xlink:href="#DejaVuSans-101"/>
    <use x="489.302734" xlink:href="#DejaVuSans-101"/>
    <use x="550.826172" xlink:href="#DejaVuSans-114"/>
    <use x="590.189453" xlink:href="#DejaVuSans-100"/>
    <use x="653.666016" xlink:href="#DejaVuSans-32"/>
    <use x="685.453125" xlink:href="#DejaVuSans-111"/>
    <use x="746.634766" xlink:href="#DejaVuSans-112"/>
    <use x="810.111328" xlink:href="#DejaVuSans-32"/>
    <use x="841.898438" xlink:href="#DejaVuSans-50"/>
    <use x="905.521484" xlink:href="#DejaVuSans-48"/>
    <use x="969.144531" xlink:href="#DejaVuSans-50"/>
    <use x="1032.767578" xlink:href="#DejaVuSans-50"/>
    <use x="1096.390625" xlink:href="#DejaVuSans-45"/>
    <use x="1132.474609" xlink:href="#DejaVuSans-49"/>
    <use x="1196.097656" xlink:href="#DejaVuSans-48"/>
    <use x="1259.720703" xlink:href="#DejaVuSans-45"/>
    <use x="1295.804688" xlink:href="#DejaVuSans-48"/>
    <use x="1359.427734" xlink:href="#DejaVuSans-54"/>
    <use x="1423.050781" xlink:href="#DejaVuSans-32"/>
    <use x="1454.837891" xlink:href="#DejaVuSans-50"/>
    <use x="1518.460938" xlink:href="#DejaVuSans-51"/>
    <use x="1582.083984" xlink:href="#DejaVuSans-58"/>
    <use x="1615.775391" xlink:href="#DejaVuSans-52"/>
    <use x="1679.398438" xlink:href="#DejaVuSans-55"/>
    <use x="1743.021484" xlink:href="#DejaVuSans-46"/>
   </g>
  </g>
  <g id="text_17">
   <!-- https://realrolfje.github.io/coronadata/ -->
   <g style="fill:#808080;" transform="translate(560.24375 356.4)scale(0.08 -0.08)">
    <defs>
     <path d="M 25.390625 72.90625 
L 33.6875 72.90625 
L 8.296875 -9.28125 
L 0 -9.28125 
z
" id="DejaVuSans-47"/>
     <path d="M 37.109375 75.984375 
L 37.109375 68.5 
L 28.515625 68.5 
Q 23.6875 68.5 21.796875 66.546875 
Q 19.921875 64.59375 19.921875 59.515625 
L 19.921875 54.6875 
L 34.71875 54.6875 
L 34.71875 47.703125 
L 19.921875 47.703125 
L 19.921875 0 
L 10.890625 0 
L 10.890625 47.703125 
L 2.296875 47.703125 
L 2.296875 54.6875 
L 10.890625 54.6875 
L 10.890625 58.5 
Q 10.890625 67.625 15.140625 71.796875 
Q 19.390625 75.984375 28.609375 75.984375 
z
" id="DejaVuSans-102"/>
     <path d="M 9.421875 54.6875 
L 18.40625 54.6875 
L 18.40625 -0.984375 
Q 18.40625 -11.421875 14.421875 -16.109375 
Q 10.453125 -20.796875 1.609375 -20.796875 
L -1.8125 -20.796875 
L -1.8125 -13.1875 
L 0.59375 -13.1875 
Q 5.71875 -13.1875 7.5625 -10.8125 
Q 9.421875 -8.453125 9.421875 -0.984375 
z
M 9.421875 75.984375 
L 18.40625 75.984375 
L 18.40625 64.59375 
L 9.421875 64.59375 
z
" id="DejaVuSans-106"/>
     <path d="M 48.6875 27.296875 
Q 48.6875 37.203125 44.609375 42.84375 
Q 40.53125 48.484375 33.40625 48.484375 
Q 26.265625 48.484375 22.1875 42.84375 
Q 18.109375 37.203125 18.109375 27.296875 
Q 18.109375 17.390625 22.1875 11.75 
Q 26.265625 6.109375 33.40625 6.109375 
Q 40.53125 6.109375 44.609375 11.75 
Q 48.6875 17.390625 48.6875 27.296875 
z
M 18.109375 46.390625 
Q 20.953125 51.265625 25.265625 53.625 
Q 29.59375 56 35.59375 56 
Q 45.5625 56 51.78125 48.09375 
Q 58.015625 40.1875 58.015625 27.296875 
Q 58.015625 14.40625 51.78125 6.484375 
Q 45.5625 -1.421875 35.59375 -1.421875 
Q 29.59375 -1.421875 25.265625 0.953125 
Q 20.953125 3.328125 18.109375 8.203125 
L 18.109375 0 
L 9.078125 0 
L 9.078125 75.984375 
L 18.109375 75.984375 
z
" id="DejaVuSans-98"/>
     <path d="M 48.78125 52.59375 
L 48.78125 44.1875 
Q 44.96875 46.296875 41.140625 47.34375 
Q 37.3125 48.390625 33.40625 48.390625 
Q 24.65625 48.390625 19.8125 42.84375 
Q 14.984375 37.3125 14.984375 27.296875 
Q 14.984375 17.28125 19.8125 11.734375 
Q 24.65625 6.203125 33.40625 6.203125 
Q 37.3125 6.203125 41.140625 7.25 
Q 44.96875 8.296875 48.78125 10.40625 
L 48.78125 2.09375 
Q 45.015625 0.34375 40.984375 -0.53125 
Q 36.96875 -1.421875 32.421875 -1.421875 
Q 20.0625 -1.421875 12.78125 6.34375 
Q 5.515625 14.109375 5.515625 27.296875 
Q 5.515625 40.671875 12.859375 48.328125 
Q 20.21875 56 33.015625 56 
Q 37.15625 56 41.109375 55.140625 
Q 45.0625 54.296875 48.78125 52.59375 
z
" id="DejaVuSans-99"/>
    </defs>
    <use xlink:href="#DejaVuSans-104"/>
    <use x="63.378906" xlink:href="#DejaVuSans-116"/>
    <use x="102.587891" xlink:href="#DejaVuSans-116"/>
    <use x="141.796875" xlink:href="#DejaVuSans-112"/>
    <use x="205.273438" xlink:href="#DejaVuSans-115"/>
    <use x="257.373047" xlink:href="#DejaVuSans-58"/>
    <use x="291.064453" xlink:href="#DejaVuSans-47"/>
    <use x="324.755859" xlink:href="#DejaVuSans-47"/>
    <use x="358.447266" xlink:href="#DejaVuSans-114"/>
    <use x="397.310547" xlink:href="#DejaVuSans-101"/>
    <use x="458.833984" xlink:href="#DejaVuSans-97"/>
    <use x="520.113281" xlink:href="#DejaVuSans-108"/>
    <use x="547.896484" xlink:href="#DejaVuSans-114"/>
    <use x="586.759766" xlink:href="#DejaVuSans-111"/>
    <use x="647.941406" xlink:href="#DejaVuSans-108"/>
    <use x="675.724609" xlink:href="#DejaVuSans-102"/>
    <use x="710.929688" xlink:href="#DejaVuSans-106"/>
    <use x="738.712891" xlink:href="#DejaVuSans-101"/>
    <use x="800.236328" xlink:href="#DejaVuSans-46"/>
    <use x="832.023438" xlink:href="#DejaVuSans-103"/>
    <use x="895.5" xlink:href="#DejaVuSans-105"/>
    <use x="923.283203" xlink:href="#DejaVuSans-116"/>
    <use x="962.492188" xlink:href="#DejaVuSans-104"/>
    <use x="1025.871094" xlink:href="#DejaVuSans-117"/>
    <use x="1089.25" xlink:href="#DejaVuSans-98"/>
    <use x="1152.726562" xlink:href="#DejaVuSans-46"/>
    <use x="1184.513672" xlink:href="#DejaVuSans-105"/>
    <use x="1212.296875" xlink:href="#DejaVuSans-111"/>
    <use x="1273.478516" xlink:href="#DejaVuSans-47"/>
    <use x="1307.169922" xlink:href="#DejaVuSans-99"/>
    <use x="1362.150391" xlink:href="#DejaVuSans-111"/>
    <use x="1423.332031" xlink:href="#DejaVuSans-114"/>
    <use x="1462.195312" xlink:href="#DejaVuSans-111"/>
    <use x="1523.376953" xlink:href="#DejaVuSans-110"/>
    <use x="1586.755859" xlink:href="#DejaVuSans-97"/>
    <use x="1648.035156" xlink:href="#DejaVuSans-100"/>
    <use x="1711.511719" xlink:href="#DejaVuSans-97"/>
    <use x="1772.791016" xlink:href="#DejaVuSans-116"/>
    <use x="1812" xlink:href="#DejaVuSans-97"/>
    <use x="1873.279297" xlink:href="#DejaVuSans-47"/>
   </g>
  </g>
 </g>
 <defs>
  <clipPath id="p0e257e75dc">
   <rect height="284.4" width="590.4" x="64.8" y="28.8"/>
  </clipPath>
 </defs>
</svg>
