<?xml version="1.0" encoding="utf-8" standalone="no"?>
<!DOCTYPE svg PUBLIC "-//W3C//DTD SVG 1.1//EN"
  "http://www.w3.org/Graphics/SVG/1.1/DTD/svg11.dtd">
<!-- Created with matplotlib (https://matplotlib.org/) -->
<svg height="360pt" version="1.1" viewBox="0 0 720 360" width="720pt" xmlns="http://www.w3.org/2000/svg" xmlns:xlink="http://www.w3.org/1999/xlink">
 <metadata>
  <rdf:RDF xmlns:cc="http://creativecommons.org/ns#" xmlns:dc="http://purl.org/dc/elements/1.1/" xmlns:rdf="http://www.w3.org/1999/02/22-rdf-syntax-ns#">
   <cc:Work>
    <dc:type rdf:resource="http://purl.org/dc/dcmitype/StillImage"/>
    <dc:date>2023-05-19T11:38:47.352394</dc:date>
    <dc:format>image/svg+xml</dc:format>
    <dc:creator>
     <cc:Agent>
      <dc:title>Matplotlib v3.3.2, https://matplotlib.org/</dc:title>
     </cc:Agent>
    </dc:creator>
   </cc:Work>
  </rdf:RDF>
 </metadata>
 <defs>
  <style type="text/css">*{stroke-linecap:butt;stroke-linejoin:round;}</style>
 </defs>
 <g id="figure_1">
  <g id="patch_1">
   <path d="M 0 360 
L 720 360 
L 720 0 
L 0 0 
z
" style="fill:#ffffff;"/>
  </g>
  <g id="axes_1">
   <g id="patch_2">
    <path d="M 64.8 313.2 
L 655.2 313.2 
L 655.2 28.8 
L 64.8 28.8 
z
" style="fill:#ffffff;"/>
   </g>
   <g id="PolyCollection_1">
    <path clip-path="url(#pbcf8c111dc)" d="M 91.636364 300.272727 
L 91.636364 300.272727 
L 92.226174 300.272727 
L 92.815984 300.272727 
L 93.405794 300.272727 
L 93.995604 300.272727 
L 94.585415 300.272727 
L 96.354845 300.272727 
L 96.944655 300.272727 
L 97.534466 300.272727 
L 98.124276 300.272727 
L 98.714086 300.272727 
L 99.303896 300.272727 
L 99.893706 300.272727 
L 100.483516 300.272727 
L 101.073327 300.272727 
L 101.663137 300.272727 
L 102.252947 300.272727 
L 102.842757 300.272727 
L 103.432567 300.272727 
L 104.022378 300.272727 
L 104.612188 300.272727 
L 105.201998 300.272727 
L 105.791808 300.272727 
L 106.381618 300.272727 
L 106.971429 300.272727 
L 107.561239 300.272727 
L 108.151049 300.272727 
L 108.740859 300.272727 
L 109.330669 300.272727 
L 109.92048 300.272727 
L 110.51029 300.272727 
L 111.1001 300.272727 
L 111.68991 300.272727 
L 112.27972 300.272727 
L 112.86953 300.272727 
L 113.459341 300.272727 
L 114.049151 300.272727 
L 114.638961 300.272727 
L 115.228771 300.272727 
L 115.818581 300.272727 
L 116.408392 300.272727 
L 116.998202 300.272727 
L 117.588012 300.272727 
L 118.177822 300.272727 
L 118.767632 300.272727 
L 119.357443 300.272727 
L 119.947253 300.272727 
L 120.537063 300.272727 
L 121.126873 300.272727 
L 121.716683 300.272727 
L 122.306494 300.272727 
L 122.896304 300.272727 
L 123.486114 300.272727 
L 124.075924 300.272727 
L 124.665734 300.272727 
L 125.255544 300.272727 
L 125.845355 300.272727 
L 126.435165 300.272727 
L 127.024975 300.272727 
L 127.614785 300.272727 
L 128.204595 300.272727 
L 128.794406 300.272727 
L 129.384216 300.272727 
L 129.974026 300.272727 
L 130.563836 300.272727 
L 131.153646 300.272727 
L 131.743457 300.272727 
L 132.333267 300.272727 
L 132.923077 300.272727 
L 133.512887 300.272727 
L 134.102697 300.272727 
L 134.692507 300.272727 
L 135.282318 300.272727 
L 135.872128 300.272727 
L 136.461938 300.272727 
L 137.051748 300.272727 
L 137.641558 300.272727 
L 138.231369 300.272727 
L 138.821179 300.272727 
L 139.410989 300.272727 
L 140.000799 300.272727 
L 140.590609 300.272727 
L 141.18042 300.272727 
L 141.77023 300.272727 
L 142.36004 300.272727 
L 142.94985 300.272727 
L 143.53966 300.272727 
L 144.129471 300.272727 
L 144.719281 300.272727 
L 145.309091 300.272727 
L 145.898901 300.272727 
L 146.488711 300.272727 
L 147.078521 300.272727 
L 147.668332 300.272727 
L 148.258142 300.272727 
L 148.847952 300.272727 
L 149.437762 300.272727 
L 150.027572 300.272727 
L 150.617383 300.272727 
L 151.207193 300.272727 
L 151.797003 300.272727 
L 152.386813 300.272727 
L 152.976623 300.272727 
L 153.566434 300.272727 
L 154.156244 300.272727 
L 154.746054 300.272727 
L 155.335864 300.272727 
L 155.925674 300.272727 
L 156.515485 300.272727 
L 157.105295 300.272727 
L 157.695105 300.272727 
L 158.284915 300.272727 
L 158.874725 300.272727 
L 159.464535 300.272727 
L 160.054346 300.272727 
L 160.644156 300.272727 
L 161.233966 300.272727 
L 162.413586 300.272727 
L 163.003397 300.272727 
L 163.593207 300.272727 
L 164.183017 300.272727 
L 164.772827 300.272727 
L 165.362637 300.272727 
L 165.952448 300.272727 
L 166.542258 300.272727 
L 167.132068 300.272727 
L 167.721878 300.272727 
L 168.311688 300.272727 
L 168.901499 300.272727 
L 169.491309 300.272727 
L 170.081119 300.272727 
L 170.670929 300.272727 
L 171.260739 300.272727 
L 171.850549 300.272727 
L 172.44036 300.272727 
L 173.03017 300.272727 
L 173.61998 300.272727 
L 174.20979 300.272727 
L 174.7996 300.272727 
L 175.389411 300.272727 
L 175.979221 300.272727 
L 176.569031 300.272727 
L 177.158841 300.272727 
L 177.748651 300.272727 
L 178.338462 300.272727 
L 178.928272 300.272727 
L 179.518082 300.272727 
L 180.107892 300.272727 
L 180.697702 300.272727 
L 181.287512 300.272727 
L 181.877323 300.272727 
L 182.467133 300.272727 
L 183.056943 300.272727 
L 183.646753 300.272727 
L 184.236563 300.272727 
L 184.826374 300.272727 
L 185.416184 300.272727 
L 186.005994 300.272727 
L 186.595804 300.272727 
L 187.185614 300.272727 
L 187.775425 300.272727 
L 188.365235 300.272727 
L 188.955045 300.272727 
L 189.544855 300.272727 
L 190.134665 300.272727 
L 190.724476 300.272727 
L 191.314286 300.272727 
L 191.904096 300.272727 
L 192.493906 300.272727 
L 193.083716 300.272727 
L 193.673526 300.272727 
L 194.263337 300.272727 
L 194.853147 300.272727 
L 195.442957 300.272727 
L 196.032767 300.272727 
L 196.622577 300.272727 
L 197.212388 300.272727 
L 197.802198 300.272727 
L 198.392008 300.272727 
L 198.981818 300.272727 
L 199.571628 300.272727 
L 200.161439 300.272727 
L 200.751249 300.272727 
L 201.341059 300.272727 
L 201.930869 300.272727 
L 202.520679 300.272727 
L 203.11049 300.272727 
L 203.7003 300.272727 
L 204.29011 300.272727 
L 204.87992 300.272727 
L 205.46973 300.272727 
L 206.05954 300.272727 
L 206.649351 300.272727 
L 207.239161 300.272727 
L 207.828971 300.272727 
L 208.418781 300.272727 
L 209.008591 300.272727 
L 209.598402 300.272727 
L 210.188212 300.272727 
L 210.778022 300.272727 
L 211.367832 300.272727 
L 211.957642 300.272727 
L 212.547453 300.272727 
L 213.137263 300.272727 
L 213.727073 300.272727 
L 214.906693 300.272727 
L 215.496503 300.272727 
L 216.086314 300.272727 
L 216.676124 300.272727 
L 217.265934 300.272727 
L 217.855744 300.272727 
L 218.445554 300.272727 
L 219.035365 300.272727 
L 219.625175 300.272727 
L 220.214985 300.272727 
L 220.804795 300.272727 
L 221.394605 300.272727 
L 221.984416 300.272727 
L 222.574226 300.272727 
L 223.164036 300.272727 
L 223.753846 300.272727 
L 224.343656 300.272727 
L 224.933467 300.272727 
L 225.523277 300.272727 
L 226.113087 300.272727 
L 226.702897 300.272727 
L 227.292707 300.272727 
L 227.882517 300.272727 
L 228.472328 300.272727 
L 229.062138 300.272727 
L 229.651948 300.272727 
L 230.241758 300.272727 
L 230.831568 300.272727 
L 231.421379 300.272727 
L 232.011189 300.272727 
L 232.600999 300.272727 
L 233.190809 300.272727 
L 233.780619 300.272727 
L 234.37043 300.272727 
L 234.96024 300.272727 
L 235.55005 300.272727 
L 236.13986 300.272727 
L 236.72967 300.272727 
L 237.319481 300.272727 
L 237.909291 300.272727 
L 238.499101 300.272727 
L 239.088911 300.272727 
L 239.678721 300.272727 
L 240.268531 300.272727 
L 240.858342 300.272727 
L 241.448152 300.272727 
L 242.037962 300.272727 
L 242.627772 300.272727 
L 243.217582 300.272727 
L 243.807393 300.272727 
L 244.397203 300.272727 
L 244.987013 300.272727 
L 245.576823 300.272727 
L 246.166633 300.272727 
L 246.756444 300.272727 
L 247.346254 300.272727 
L 247.936064 300.272727 
L 248.525874 300.272727 
L 249.115684 300.272727 
L 249.705495 300.272727 
L 250.295305 300.272727 
L 250.885115 300.272727 
L 251.474925 300.272727 
L 252.064735 300.272727 
L 252.654545 300.272727 
L 253.244356 300.272727 
L 253.834166 300.272727 
L 254.423976 300.272727 
L 255.013786 300.272727 
L 255.603596 300.272727 
L 256.193407 300.272727 
L 256.783217 300.272727 
L 257.373027 300.272727 
L 257.962837 300.272727 
L 258.552647 300.272727 
L 259.142458 300.272727 
L 259.732268 300.272727 
L 260.322078 300.272727 
L 260.911888 300.272727 
L 261.501698 300.272727 
L 262.091508 300.272727 
L 262.681319 300.272727 
L 263.271129 300.272727 
L 263.860939 300.272727 
L 264.450749 300.272727 
L 265.040559 300.272727 
L 265.63037 300.272727 
L 266.22018 300.272727 
L 266.80999 300.272727 
L 267.3998 300.272727 
L 267.98961 300.272727 
L 268.579421 300.272727 
L 269.169231 300.272727 
L 269.759041 300.272727 
L 270.348851 300.272727 
L 270.938661 300.272727 
L 271.528472 300.272727 
L 272.118282 300.272727 
L 272.708092 300.272727 
L 273.297902 300.272727 
L 273.887712 300.272727 
L 274.477522 300.272727 
L 275.067333 300.272727 
L 275.657143 300.272727 
L 276.246953 300.272727 
L 276.836763 300.272727 
L 277.426573 300.272727 
L 278.016384 300.272727 
L 278.606194 300.272727 
L 279.196004 300.272727 
L 279.785814 300.272727 
L 280.375624 300.272727 
L 280.965435 300.272727 
L 281.555245 300.272727 
L 282.145055 300.272727 
L 282.734865 300.272727 
L 283.324675 300.272727 
L 283.914486 300.272727 
L 284.504296 300.272727 
L 285.094106 300.272727 
L 285.683916 300.272727 
L 286.273726 300.272727 
L 286.863536 300.272727 
L 287.453347 300.272727 
L 288.043157 300.272727 
L 288.632967 300.272727 
L 289.222777 300.272727 
L 289.812587 300.272727 
L 290.402398 300.272727 
L 290.992208 300.272727 
L 291.582018 300.272727 
L 292.171828 300.272727 
L 292.761638 300.272727 
L 293.351449 300.272727 
L 293.941259 300.272727 
L 294.531069 300.272727 
L 295.120879 300.272727 
L 295.710689 300.272727 
L 296.3005 300.272727 
L 296.89031 300.272727 
L 297.48012 300.272727 
L 298.06993 300.272727 
L 298.65974 300.272727 
L 299.24955 300.272727 
L 299.839361 300.272727 
L 300.429171 300.272727 
L 301.018981 300.272727 
L 301.608791 300.272727 
L 302.198601 300.272727 
L 302.788412 300.272727 
L 303.378222 300.272727 
L 303.968032 300.272727 
L 304.557842 300.272727 
L 305.147652 300.272727 
L 305.737463 300.272727 
L 306.327273 300.272727 
L 306.917083 300.272727 
L 307.506893 300.272727 
L 308.096703 300.272727 
L 308.686513 300.272727 
L 309.276324 300.272727 
L 309.866134 300.272727 
L 310.455944 300.272727 
L 311.045754 300.272727 
L 311.635564 300.272727 
L 312.225375 300.272727 
L 312.815185 300.272727 
L 313.404995 300.272727 
L 313.994805 300.272727 
L 314.584615 300.272727 
L 315.174426 300.272727 
L 315.764236 300.272727 
L 316.354046 300.272727 
L 316.943856 300.272727 
L 317.533666 300.272727 
L 318.123477 300.272727 
L 318.713287 300.272727 
L 319.303097 300.272727 
L 319.892907 300.272727 
L 320.482717 300.272727 
L 321.072527 300.272727 
L 321.662338 300.272727 
L 322.252148 300.272727 
L 322.841958 300.272727 
L 323.431768 300.272727 
L 324.021578 300.272727 
L 324.611389 300.272727 
L 325.201199 300.272727 
L 325.791009 300.272727 
L 326.380819 300.272727 
L 326.970629 300.272727 
L 327.56044 300.272727 
L 328.15025 300.272727 
L 328.74006 300.272727 
L 329.32987 300.272727 
L 329.91968 300.272727 
L 330.509491 300.272727 
L 331.099301 300.272727 
L 331.689111 300.272727 
L 332.278921 300.272727 
L 332.868731 300.272727 
L 333.458541 300.272727 
L 340.536264 300.272727 
L 341.126074 300.272727 
L 341.715884 300.272727 
L 342.305694 300.272727 
L 342.895504 300.272727 
L 343.485315 300.272727 
L 344.075125 300.272727 
L 344.664935 300.272727 
L 345.844555 300.272727 
L 346.434366 300.272727 
L 347.024176 300.272727 
L 347.613986 300.272727 
L 348.203796 300.272727 
L 348.793606 300.272727 
L 349.383417 300.272727 
L 349.973227 300.272727 
L 350.563037 300.272727 
L 351.152847 300.272727 
L 351.742657 300.272727 
L 352.332468 300.272727 
L 352.922278 300.272727 
L 353.512088 300.272727 
L 354.101898 300.272727 
L 354.691708 300.272727 
L 355.281518 300.272727 
L 355.871329 300.272727 
L 356.461139 300.272727 
L 357.050949 300.272727 
L 357.640759 300.272727 
L 358.230569 300.272727 
L 358.82038 300.272727 
L 359.41019 300.272727 
L 360 300.272727 
L 360.58981 300.272727 
L 361.17962 300.272727 
L 361.769431 300.272727 
L 362.359241 300.272727 
L 362.949051 300.272727 
L 363.538861 300.272727 
L 364.128671 300.272727 
L 364.718482 300.272727 
L 365.308292 300.272727 
L 365.898102 300.272727 
L 366.487912 300.272727 
L 367.077722 300.272727 
L 367.667532 300.272727 
L 368.257343 300.272727 
L 370.026773 300.272727 
L 370.616583 300.272727 
L 371.206394 300.272727 
L 371.796204 300.272727 
L 372.386014 300.272727 
L 372.975824 300.272727 
L 373.565634 300.272727 
L 374.155445 300.272727 
L 374.745255 300.272727 
L 375.335065 300.272727 
L 375.924875 300.272727 
L 376.514685 300.272727 
L 377.104496 300.272727 
L 377.694306 300.272727 
L 378.284116 300.272727 
L 378.873926 300.272727 
L 379.463736 300.272727 
L 380.053546 300.272727 
L 380.643357 300.272727 
L 381.233167 300.272727 
L 381.822977 300.272727 
L 382.412787 300.272727 
L 383.002597 300.272727 
L 383.592408 300.272727 
L 384.182218 300.272727 
L 384.772028 300.272727 
L 385.361838 300.272727 
L 385.951648 300.272727 
L 386.541459 300.272727 
L 387.131269 300.272727 
L 387.721079 300.272727 
L 388.310889 300.272727 
L 388.900699 300.272727 
L 389.490509 300.272727 
L 390.08032 300.272727 
L 390.67013 300.272727 
L 391.25994 300.272727 
L 391.84975 300.272727 
L 392.43956 300.272727 
L 393.029371 300.272727 
L 393.619181 300.272727 
L 394.208991 300.272727 
L 394.798801 300.272727 
L 395.388611 300.272727 
L 395.978422 300.272727 
L 396.568232 300.272727 
L 397.158042 300.272727 
L 397.747852 300.272727 
L 398.337662 300.272727 
L 398.927473 300.272727 
L 399.517283 300.272727 
L 400.107093 300.272727 
L 400.696903 300.272727 
L 401.286713 300.272727 
L 401.876523 300.272727 
L 402.466334 300.272727 
L 403.056144 300.272727 
L 403.645954 300.272727 
L 404.235764 300.272727 
L 404.825574 300.272727 
L 405.415385 300.272727 
L 406.005195 300.272727 
L 406.595005 300.272727 
L 407.184815 300.272727 
L 407.774625 300.272727 
L 408.364436 300.272727 
L 408.954246 300.272727 
L 409.544056 300.272727 
L 410.133866 300.272727 
L 410.723676 300.272727 
L 411.313487 300.272727 
L 411.903297 300.272727 
L 412.493107 300.272727 
L 413.082917 300.272727 
L 413.672727 300.272727 
L 414.262537 300.272727 
L 414.852348 300.272727 
L 415.442158 300.272727 
L 416.031968 300.272727 
L 416.621778 300.272727 
L 417.211588 300.272727 
L 417.801399 300.272727 
L 418.391209 300.272727 
L 418.981019 300.272727 
L 419.570829 300.272727 
L 420.160639 300.272727 
L 420.75045 300.272727 
L 421.34026 300.272727 
L 421.93007 300.272727 
L 422.51988 300.272727 
L 423.10969 300.272727 
L 423.6995 300.272727 
L 424.289311 300.272727 
L 424.879121 300.272727 
L 425.468931 300.272727 
L 426.058741 300.272727 
L 426.648551 300.272727 
L 427.238362 300.272727 
L 427.828172 300.272727 
L 428.417982 300.272727 
L 429.007792 300.272727 
L 429.597602 300.272727 
L 430.187413 300.272727 
L 430.777223 300.272727 
L 431.367033 300.272727 
L 431.956843 300.272727 
L 432.546653 300.272727 
L 433.136464 300.272727 
L 433.726274 300.272727 
L 434.316084 300.272727 
L 434.905894 300.272727 
L 435.495704 300.272727 
L 436.085514 300.272727 
L 436.675325 300.272727 
L 437.265135 300.272727 
L 437.854945 300.272727 
L 438.444755 300.272727 
L 439.034565 300.272727 
L 439.624376 300.272727 
L 440.214186 300.272727 
L 440.803996 300.272727 
L 441.393806 300.272727 
L 441.983616 300.272727 
L 442.573427 300.272727 
L 443.163237 300.272727 
L 443.753047 300.272727 
L 444.342857 300.272727 
L 444.932667 300.272727 
L 445.522478 300.272727 
L 446.112288 300.272727 
L 446.702098 300.272727 
L 447.291908 300.272727 
L 447.881718 300.272727 
L 448.471528 300.272727 
L 449.061339 300.272727 
L 449.651149 300.272727 
L 450.240959 300.272727 
L 450.830769 300.272727 
L 451.420579 300.272727 
L 452.01039 300.272727 
L 452.6002 300.272727 
L 453.19001 300.272727 
L 453.77982 300.272727 
L 454.36963 300.272727 
L 454.959441 300.272727 
L 455.549251 300.272727 
L 456.139061 300.272727 
L 456.728871 300.272727 
L 457.318681 300.272727 
L 457.908492 300.272727 
L 458.498302 300.272727 
L 459.088112 300.272727 
L 459.677922 300.272727 
L 460.267732 300.272727 
L 460.857542 300.272727 
L 461.447353 300.272727 
L 462.037163 300.272727 
L 462.626973 300.272727 
L 463.216783 300.272727 
L 463.806593 300.272727 
L 464.396404 300.272727 
L 464.986214 300.272727 
L 465.576024 300.272727 
L 466.165834 300.272727 
L 466.755644 300.272727 
L 467.345455 300.272727 
L 467.935265 300.272727 
L 468.525075 300.272727 
L 469.704695 300.272727 
L 470.294505 300.272727 
L 470.884316 300.272727 
L 471.474126 300.272727 
L 472.063936 300.272727 
L 472.653746 300.272727 
L 473.243556 300.272727 
L 473.833367 300.272727 
L 474.423177 300.272727 
L 475.012987 300.272727 
L 475.602797 300.272727 
L 476.192607 300.272727 
L 476.782418 300.272727 
L 477.372228 300.272727 
L 477.962038 300.272727 
L 478.551848 300.272727 
L 479.141658 300.272727 
L 479.731469 300.272727 
L 480.321279 300.272727 
L 480.911089 300.272727 
L 481.500899 300.272727 
L 482.090709 300.272727 
L 482.680519 300.272727 
L 483.27033 300.272727 
L 483.86014 300.272727 
L 484.44995 300.272727 
L 485.03976 300.272727 
L 485.62957 300.272727 
L 486.219381 300.272727 
L 486.809191 300.272727 
L 487.399001 300.272727 
L 487.988811 300.272727 
L 488.578621 300.272727 
L 489.168432 300.272727 
L 489.758242 300.272727 
L 490.348052 300.272727 
L 490.937862 300.272727 
L 491.527672 300.272727 
L 492.117483 300.272727 
L 492.707293 300.272727 
L 493.297103 300.272727 
L 493.886913 300.272727 
L 494.476723 300.272727 
L 495.066533 300.272727 
L 495.656344 300.272727 
L 496.246154 300.272727 
L 496.835964 300.272727 
L 497.425774 300.272727 
L 498.015584 300.272727 
L 498.605395 300.272727 
L 499.195205 300.272727 
L 499.785015 300.272727 
L 500.374825 300.272727 
L 500.964635 300.272727 
L 501.554446 300.272727 
L 502.144256 300.272727 
L 502.734066 300.272727 
L 503.323876 300.272727 
L 503.913686 300.272727 
L 504.503497 300.272727 
L 505.093307 300.272727 
L 505.683117 300.272727 
L 506.272927 300.272727 
L 506.862737 300.272727 
L 507.452547 300.272727 
L 508.042358 300.272727 
L 508.632168 300.272727 
L 509.221978 300.272727 
L 509.811788 300.272727 
L 510.401598 300.272727 
L 510.991409 300.272727 
L 511.581219 300.272727 
L 512.171029 300.272727 
L 512.760839 300.272727 
L 513.350649 300.272727 
L 513.94046 300.272727 
L 514.53027 300.272727 
L 515.12008 300.272727 
L 515.70989 300.272727 
L 516.2997 300.272727 
L 516.88951 300.272727 
L 517.479321 300.272727 
L 518.069131 300.272727 
L 518.658941 300.272727 
L 519.248751 300.272727 
L 519.838561 300.272727 
L 520.428372 300.272727 
L 521.018182 300.272727 
L 521.607992 300.272727 
L 522.197802 300.272727 
L 522.787612 300.272727 
L 523.377423 300.272727 
L 523.967233 300.272727 
L 524.557043 300.272727 
L 525.146853 300.272727 
L 525.736663 300.272727 
L 526.326474 300.272727 
L 526.916284 300.272727 
L 527.506094 300.272727 
L 528.095904 300.272727 
L 528.685714 300.272727 
L 529.275524 300.272727 
L 529.865335 300.272727 
L 530.455145 300.272727 
L 531.044955 300.272727 
L 531.634765 300.272727 
L 532.224575 300.272727 
L 532.814386 300.272727 
L 533.404196 300.272727 
L 533.994006 300.272727 
L 534.583816 300.272727 
L 535.173626 300.272727 
L 535.763437 300.272727 
L 536.353247 300.272727 
L 536.943057 300.272727 
L 537.532867 300.272727 
L 538.122677 300.272727 
L 538.712488 300.272727 
L 539.302298 300.272727 
L 539.892108 300.272727 
L 540.481918 300.272727 
L 541.071728 300.272727 
L 541.661538 300.272727 
L 542.251349 300.272727 
L 542.841159 300.272727 
L 543.430969 300.272727 
L 544.020779 300.272727 
L 544.610589 300.272727 
L 545.2004 300.272727 
L 545.79021 300.272727 
L 546.38002 300.272727 
L 546.96983 300.272727 
L 547.55964 300.272727 
L 548.149451 300.272727 
L 548.739261 300.272727 
L 549.329071 300.272727 
L 549.918881 300.272727 
L 550.508691 300.272727 
L 551.098501 300.272727 
L 551.688312 300.272727 
L 552.278122 300.272727 
L 552.867932 300.272727 
L 553.457742 300.272727 
L 554.047552 300.272727 
L 554.637363 300.272727 
L 555.227173 300.272727 
L 555.816983 300.272727 
L 556.406793 300.272727 
L 556.996603 300.272727 
L 557.586414 300.272727 
L 558.176224 300.272727 
L 558.766034 300.272727 
L 559.355844 300.272727 
L 559.945654 300.272727 
L 560.535465 300.272727 
L 561.125275 300.272727 
L 561.715085 300.272727 
L 562.304895 300.272727 
L 562.894705 300.272727 
L 563.484515 300.272727 
L 564.074326 300.272727 
L 564.664136 300.272727 
L 565.253946 300.272727 
L 565.843756 300.272727 
L 566.433566 300.272727 
L 567.023377 300.272727 
L 567.613187 300.272727 
L 568.202997 300.272727 
L 568.792807 300.272727 
L 569.382617 300.272727 
L 569.972428 300.272727 
L 570.562238 300.272727 
L 571.152048 300.272727 
L 571.741858 300.272727 
L 572.331668 300.272727 
L 572.921479 300.272727 
L 573.511289 300.272727 
L 574.101099 300.272727 
L 574.690909 300.272727 
L 575.280719 300.272727 
L 575.870529 300.272727 
L 576.46034 300.272727 
L 577.05015 300.272727 
L 577.63996 300.272727 
L 578.22977 300.272727 
L 578.81958 300.272727 
L 579.409391 300.272727 
L 579.999201 300.272727 
L 580.589011 300.272727 
L 581.178821 300.272727 
L 581.768631 300.272727 
L 582.358442 300.272727 
L 582.948252 300.272727 
L 583.538062 300.272727 
L 584.127872 300.272727 
L 584.717682 300.272727 
L 585.307493 300.272727 
L 585.897303 300.272727 
L 586.487113 300.272727 
L 587.076923 300.272727 
L 587.666733 300.272727 
L 588.256543 300.272727 
L 588.846354 300.272727 
L 589.436164 300.272727 
L 590.025974 300.272727 
L 590.615784 300.272727 
L 591.205594 300.272727 
L 591.795405 300.272727 
L 592.385215 300.272727 
L 592.975025 300.272727 
L 593.564835 300.272727 
L 594.154645 300.272727 
L 594.744456 300.272727 
L 604.771229 300.272727 
L 605.361039 300.272727 
L 605.950849 300.272727 
L 606.540659 300.272727 
L 607.13047 300.272727 
L 607.72028 300.272727 
L 608.31009 300.272727 
L 608.8999 300.272727 
L 609.48971 300.272727 
L 610.07952 300.272727 
L 610.669331 300.272727 
L 611.259141 300.272727 
L 611.848951 300.272727 
L 612.438761 300.272727 
L 613.028571 300.272727 
L 613.618382 300.272727 
L 614.208192 300.272727 
L 614.798002 300.272727 
L 615.387812 300.272727 
L 615.977622 300.272727 
L 616.567433 300.272727 
L 617.157243 300.272727 
L 617.747053 300.272727 
L 618.336863 300.272727 
L 618.926673 300.272727 
L 619.516484 300.272727 
L 620.106294 300.272727 
L 620.696104 300.272727 
L 621.285914 300.272727 
L 621.875724 300.272727 
L 622.465534 300.272727 
L 623.055345 300.272727 
L 623.645155 300.272727 
L 624.234965 300.272727 
L 624.824775 300.272727 
L 625.414585 300.272727 
L 626.004396 300.272727 
L 626.594206 300.272727 
L 627.184016 300.272727 
L 627.773826 300.272727 
L 628.363636 300.272727 
L 628.363636 300.272727 
L 628.363636 299.747228 
L 627.773826 297.645233 
L 627.184016 297.645233 
L 626.594206 297.645233 
L 626.004396 296.594235 
L 625.414585 298.170732 
L 624.824775 298.170732 
L 624.234965 298.170732 
L 623.645155 297.645233 
L 623.055345 297.119734 
L 622.465534 297.645233 
L 621.875724 294.492239 
L 621.285914 296.594235 
L 620.696104 296.068736 
L 620.106294 298.170732 
L 619.516484 298.170732 
L 618.926673 297.645233 
L 618.336863 298.170732 
L 617.747053 298.170732 
L 617.157243 297.119734 
L 616.567433 297.119734 
L 615.977622 297.119734 
L 615.387812 298.696231 
L 614.798002 298.170732 
L 614.208192 298.170732 
L 613.618382 295.543237 
L 613.028571 296.594235 
L 612.438761 297.119734 
L 611.848951 297.119734 
L 611.259141 298.170732 
L 610.669331 297.645233 
L 610.07952 298.170732 
L 609.48971 297.645233 
L 608.8999 298.170732 
L 608.31009 296.594235 
L 607.72028 296.068736 
L 607.13047 298.170732 
L 606.540659 299.747228 
L 605.950849 296.068736 
L 605.361039 292.915743 
L 604.771229 209.886918 
L 594.744456 298.170732 
L 594.154645 297.645233 
L 593.564835 295.543237 
L 592.975025 297.645233 
L 592.385215 294.492239 
L 591.795405 297.645233 
L 591.205594 246.67184 
L 590.615784 296.594235 
L 590.025974 289.762749 
L 589.436164 296.068736 
L 588.846354 295.543237 
L 588.256543 262.436807 
L 587.666733 291.864745 
L 587.076923 297.645233 
L 586.487113 294.492239 
L 585.897303 290.813747 
L 585.307493 296.594235 
L 584.717682 297.645233 
L 584.127872 298.170732 
L 583.538062 298.170732 
L 582.948252 298.170732 
L 582.358442 297.645233 
L 581.768631 298.170732 
L 581.178821 298.170732 
L 580.589011 297.119734 
L 579.999201 297.645233 
L 579.409391 296.068736 
L 578.81958 297.119734 
L 578.22977 293.441242 
L 577.63996 297.645233 
L 577.05015 297.119734 
L 576.46034 298.170732 
L 575.870529 297.645233 
L 575.280719 297.645233 
L 574.690909 298.170732 
L 574.101099 297.645233 
L 573.511289 297.119734 
L 572.921479 297.119734 
L 572.331668 297.119734 
L 571.741858 295.543237 
L 571.152048 296.594235 
L 570.562238 286.609756 
L 569.972428 297.119734 
L 569.382617 293.441242 
L 568.792807 295.543237 
L 568.202997 297.119734 
L 567.613187 297.645233 
L 567.023377 298.170732 
L 566.433566 295.543237 
L 565.843756 296.068736 
L 565.253946 297.119734 
L 564.664136 293.966741 
L 564.074326 298.170732 
L 563.484515 295.543237 
L 562.894705 296.594235 
L 562.304895 298.170732 
L 561.715085 296.068736 
L 561.125275 295.543237 
L 560.535465 297.119734 
L 559.945654 298.170732 
L 559.355844 297.645233 
L 558.766034 297.119734 
L 558.176224 295.017738 
L 557.586414 295.017738 
L 556.996603 293.966741 
L 556.406793 294.492239 
L 555.816983 289.762749 
L 555.227173 295.543237 
L 554.637363 297.645233 
L 554.047552 296.068736 
L 553.457742 297.645233 
L 552.867932 297.645233 
L 552.278122 295.543237 
L 551.688312 295.543237 
L 551.098501 296.594235 
L 550.508691 297.645233 
L 549.918881 296.594235 
L 549.329071 259.809313 
L 548.739261 287.660754 
L 548.149451 287.660754 
L 547.55964 291.339246 
L 546.96983 293.441242 
L 546.38002 270.31929 
L 545.79021 297.645233 
L 545.2004 295.017738 
L 544.610589 295.017738 
L 544.020779 297.645233 
L 543.430969 296.594235 
L 542.841159 297.645233 
L 542.251349 297.645233 
L 541.661538 297.119734 
L 541.071728 297.645233 
L 540.481918 281.354767 
L 539.892108 296.594235 
L 539.302298 290.288248 
L 538.712488 298.170732 
L 538.122677 297.119734 
L 537.532867 271.895787 
L 536.943057 297.119734 
L 536.353247 296.594235 
L 535.763437 297.119734 
L 535.173626 281.880266 
L 534.583816 292.390244 
L 533.994006 298.170732 
L 533.404196 295.017738 
L 532.814386 296.594235 
L 532.224575 268.217295 
L 531.634765 248.773836 
L 531.044955 268.217295 
L 530.455145 292.915743 
L 529.865335 290.813747 
L 529.275524 238.789357 
L 528.685714 240.365854 
L 528.095904 295.543237 
L 527.506094 296.068736 
L 526.916284 297.119734 
L 526.326474 296.594235 
L 525.736663 297.645233 
L 525.146853 296.594235 
L 524.557043 294.492239 
L 523.967233 297.645233 
L 523.377423 298.170732 
L 522.787612 266.640798 
L 522.197802 298.170732 
L 521.607992 291.864745 
L 521.018182 297.119734 
L 520.428372 295.543237 
L 519.838561 297.119734 
L 519.248751 297.119734 
L 518.658941 294.492239 
L 518.069131 296.594235 
L 517.479321 296.594235 
L 516.88951 294.492239 
L 516.2997 278.727273 
L 515.70989 298.696231 
L 515.12008 292.915743 
L 514.53027 295.017738 
L 513.94046 295.017738 
L 513.350649 296.068736 
L 512.760839 278.727273 
L 512.171029 260.86031 
L 511.581219 277.150776 
L 510.991409 290.288248 
L 510.401598 295.543237 
L 509.811788 295.543237 
L 509.221978 296.068736 
L 508.632168 292.915743 
L 508.042358 292.915743 
L 507.452547 294.492239 
L 506.862737 282.405765 
L 506.272927 261.385809 
L 505.683117 290.813747 
L 505.093307 255.079823 
L 504.503497 251.926829 
L 503.913686 288.711752 
L 503.323876 292.390244 
L 502.734066 249.299335 
L 502.144256 290.813747 
L 501.554446 285.558758 
L 500.964635 290.813747 
L 500.374825 293.966741 
L 499.785015 289.762749 
L 499.195205 294.492239 
L 498.605395 278.201774 
L 498.015584 292.915743 
L 497.425774 296.594235 
L 496.835964 296.594235 
L 496.246154 297.119734 
L 495.656344 295.543237 
L 495.066533 274.523282 
L 494.476723 262.962306 
L 493.886913 272.421286 
L 493.297103 296.068736 
L 492.707293 293.441242 
L 492.117483 290.813747 
L 491.527672 291.339246 
L 490.937862 298.170732 
L 490.348052 292.915743 
L 489.758242 296.594235 
L 489.168432 298.170732 
L 488.578621 296.068736 
L 487.988811 266.115299 
L 487.399001 266.115299 
L 486.809191 264.538803 
L 486.219381 230.906874 
L 485.62957 264.013304 
L 485.03976 298.170732 
L 484.44995 298.170732 
L 483.86014 293.966741 
L 483.27033 297.119734 
L 482.680519 274.523282 
L 482.090709 230.381375 
L 481.500899 251.926829 
L 480.911089 298.170732 
L 480.321279 297.119734 
L 479.731469 298.170732 
L 479.141658 288.711752 
L 478.551848 293.441242 
L 477.962038 290.813747 
L 477.372228 291.339246 
L 476.782418 293.441242 
L 476.192607 292.390244 
L 475.602797 293.966741 
L 475.012987 296.594235 
L 474.423177 298.170732 
L 473.833367 295.543237 
L 473.243556 297.645233 
L 472.653746 297.119734 
L 472.063936 296.594235 
L 471.474126 296.594235 
L 470.884316 297.119734 
L 470.294505 295.543237 
L 469.704695 288.186253 
L 468.525075 298.170732 
L 467.935265 297.119734 
L 467.345455 297.119734 
L 466.755644 297.119734 
L 466.165834 290.813747 
L 465.576024 298.170732 
L 464.986214 297.119734 
L 464.396404 297.119734 
L 463.806593 298.170732 
L 463.216783 298.170732 
L 462.626973 296.068736 
L 462.037163 299.221729 
L 461.447353 298.170732 
L 460.857542 288.186253 
L 460.267732 298.170732 
L 459.677922 297.119734 
L 459.088112 296.594235 
L 458.498302 295.543237 
L 457.908492 295.017738 
L 457.318681 297.645233 
L 456.728871 295.017738 
L 456.139061 297.119734 
L 455.549251 297.645233 
L 454.959441 297.119734 
L 454.36963 293.441242 
L 453.77982 297.645233 
L 453.19001 295.543237 
L 452.6002 297.119734 
L 452.01039 296.594235 
L 451.420579 295.017738 
L 450.830769 256.656319 
L 450.240959 279.252772 
L 449.651149 283.456763 
L 449.061339 293.966741 
L 448.471528 266.115299 
L 447.881718 298.170732 
L 447.291908 294.492239 
L 446.702098 297.119734 
L 446.112288 295.017738 
L 445.522478 293.966741 
L 444.932667 295.017738 
L 444.342857 295.017738 
L 443.753047 297.119734 
L 443.163237 296.594235 
L 442.573427 232.48337 
L 441.983616 173.627494 
L 441.393806 204.10643 
L 440.803996 233.008869 
L 440.214186 297.119734 
L 439.624376 294.492239 
L 439.034565 292.390244 
L 438.444755 229.855876 
L 437.854945 241.94235 
L 437.265135 292.390244 
L 436.675325 293.441242 
L 436.085514 288.711752 
L 435.495704 285.033259 
L 434.905894 228.279379 
L 434.316084 226.177384 
L 433.726274 290.813747 
L 433.136464 291.339246 
L 432.546653 287.660754 
L 431.956843 289.237251 
L 431.367033 293.966741 
L 430.777223 295.017738 
L 430.187413 285.558758 
L 429.597602 292.915743 
L 429.007792 269.268293 
L 428.417982 200.953437 
L 427.828172 234.585366 
L 427.238362 295.543237 
L 426.648551 197.274945 
L 426.058741 185.18847 
L 425.468931 294.492239 
L 424.879121 288.711752 
L 424.289311 297.119734 
L 423.6995 270.844789 
L 423.10969 298.170732 
L 422.51988 245.620843 
L 421.93007 247.722838 
L 421.34026 296.068736 
L 420.75045 298.170732 
L 420.160639 297.119734 
L 419.570829 295.543237 
L 418.981019 298.170732 
L 418.391209 294.492239 
L 417.801399 293.441242 
L 417.211588 296.068736 
L 416.621778 200.953437 
L 416.031968 208.83592 
L 415.442158 266.640798 
L 414.852348 294.492239 
L 414.262537 282.931264 
L 413.672727 266.115299 
L 413.082917 243.518847 
L 412.493107 242.993348 
L 411.903297 205.157428 
L 411.313487 234.585366 
L 410.723676 273.472284 
L 410.133866 206.208426 
L 409.544056 248.248337 
L 408.954246 280.303769 
L 408.364436 287.660754 
L 407.774625 296.594235 
L 407.184815 295.543237 
L 406.595005 293.966741 
L 406.005195 296.068736 
L 405.415385 294.492239 
L 404.825574 287.135255 
L 404.235764 255.605322 
L 403.645954 290.288248 
L 403.056144 298.170732 
L 402.466334 295.543237 
L 401.876523 293.966741 
L 401.286713 287.660754 
L 400.696903 297.645233 
L 400.107093 296.068736 
L 399.517283 296.068736 
L 398.927473 295.543237 
L 398.337662 285.033259 
L 397.747852 296.068736 
L 397.158042 273.997783 
L 396.568232 285.558758 
L 395.978422 293.966741 
L 395.388611 293.966741 
L 394.798801 296.594235 
L 394.208991 296.594235 
L 393.619181 296.594235 
L 393.029371 287.660754 
L 392.43956 256.13082 
L 391.84975 247.197339 
L 391.25994 273.472284 
L 390.67013 288.711752 
L 390.08032 291.864745 
L 389.490509 278.727273 
L 388.900699 255.605322 
L 388.310889 244.044346 
L 387.721079 248.773836 
L 387.131269 248.248337 
L 386.541459 239.840355 
L 385.951648 294.492239 
L 385.361838 291.339246 
L 384.772028 254.554324 
L 384.182218 287.660754 
L 383.592408 288.186253 
L 383.002597 253.503326 
L 382.412787 295.017738 
L 381.822977 287.135255 
L 381.233167 290.813747 
L 380.643357 248.773836 
L 380.053546 225.126386 
L 379.463736 239.314856 
L 378.873926 266.640798 
L 378.284116 285.033259 
L 377.694306 290.288248 
L 377.104496 296.068736 
L 376.514685 248.248337 
L 375.924875 266.115299 
L 375.335065 283.982262 
L 374.745255 233.008869 
L 374.155445 238.263858 
L 373.565634 265.5898 
L 372.975824 271.370288 
L 372.386014 176.780488 
L 371.796204 289.762749 
L 371.206394 262.962306 
L 370.616583 202.529933 
L 370.026773 201.478936 
L 368.257343 273.472284 
L 367.667532 236.687361 
L 367.077722 191.494457 
L 366.487912 242.467849 
L 365.898102 243.518847 
L 365.308292 286.084257 
L 364.718482 272.421286 
L 364.128671 270.844789 
L 363.538861 174.152993 
L 362.949051 222.498891 
L 362.359241 282.405765 
L 361.769431 259.809313 
L 361.17962 265.5898 
L 360.58981 182.560976 
L 360 228.804878 
L 359.41019 270.31929 
L 358.82038 228.279379 
L 358.230569 219.871397 
L 357.640759 237.21286 
L 357.050949 254.028825 
L 356.461139 262.962306 
L 355.871329 217.769401 
L 355.281518 213.039911 
L 354.691708 236.687361 
L 354.101898 224.600887 
L 353.512088 212.514412 
L 352.922278 265.5898 
L 352.332468 178.882483 
L 351.742657 219.871397 
L 351.152847 232.48337 
L 350.563037 209.886918 
L 349.973227 104.78714 
L 349.383417 246.146341 
L 348.793606 265.064302 
L 348.203796 189.91796 
L 347.613986 188.341463 
L 347.024176 239.840355 
L 346.434366 168.372506 
L 345.844555 67.476718 
L 344.664935 228.279379 
L 344.075125 244.044346 
L 343.485315 204.631929 
L 342.895504 220.396896 
L 342.305694 178.882483 
L 341.715884 160.490022 
L 341.126074 189.392461 
L 340.536264 262.962306 
L 333.458541 198.851441 
L 332.868731 188.866962 
L 332.278921 256.13082 
L 331.689111 288.711752 
L 331.099301 278.201774 
L 330.509491 276.625277 
L 329.91968 273.472284 
L 329.32987 247.197339 
L 328.74006 275.04878 
L 328.15025 285.033259 
L 327.56044 288.186253 
L 326.970629 251.926829 
L 326.380819 196.749446 
L 325.791009 142.62306 
L 325.201199 58.017738 
L 324.611389 161.54102 
L 324.021578 275.04878 
L 323.431768 275.574279 
L 322.841958 281.354767 
L 322.252148 270.844789 
L 321.662338 242.993348 
L 321.072527 272.946785 
L 320.482717 279.778271 
L 319.892907 286.609756 
L 319.303097 287.135255 
L 318.713287 289.237251 
L 318.123477 283.982262 
L 317.533666 274.523282 
L 316.943856 169.949002 
L 316.354046 167.321508 
L 315.764236 201.478936 
L 315.174426 190.443459 
L 314.584615 214.616408 
L 313.994805 279.778271 
L 313.404995 272.421286 
L 312.815185 241.416851 
L 312.225375 284.507761 
L 311.635564 273.997783 
L 311.045754 270.31929 
L 310.455944 254.554324 
L 309.866134 190.968958 
L 309.276324 198.851441 
L 308.686513 247.197339 
L 308.096703 204.631929 
L 307.506893 196.749446 
L 306.917083 180.45898 
L 306.327273 173.627494 
L 305.737463 171.525499 
L 305.147652 185.713969 
L 304.557842 144.725055 
L 303.968032 117.924612 
L 303.378222 171.525499 
L 302.788412 195.172949 
L 302.198601 190.443459 
L 301.608791 162.066519 
L 301.018981 179.933481 
L 300.429171 204.631929 
L 299.839361 149.454545 
L 299.24955 122.128603 
L 298.65974 157.337029 
L 298.06993 209.886918 
L 297.48012 210.937916 
L 296.89031 186.239468 
L 296.3005 207.259424 
L 295.710689 235.110865 
L 295.120879 292.390244 
L 294.531069 287.135255 
L 293.941259 230.906874 
L 293.351449 234.585366 
L 292.761638 288.711752 
L 292.171828 284.507761 
L 291.582018 229.855876 
L 290.992208 282.931264 
L 290.402398 289.762749 
L 289.812587 280.829268 
L 289.222777 262.962306 
L 288.632967 237.738359 
L 288.043157 291.864745 
L 287.453347 284.507761 
L 286.863536 286.609756 
L 286.273726 290.288248 
L 285.683916 213.56541 
L 285.094106 249.299335 
L 284.504296 292.390244 
L 283.914486 276.099778 
L 283.324675 272.421286 
L 282.734865 272.421286 
L 282.145055 287.660754 
L 281.555245 286.084257 
L 280.965435 291.864745 
L 280.375624 287.660754 
L 279.785814 288.186253 
L 279.196004 282.931264 
L 278.606194 291.864745 
L 278.016384 282.405765 
L 277.426573 290.813747 
L 276.836763 235.636364 
L 276.246953 258.758315 
L 275.657143 289.762749 
L 275.067333 230.381375 
L 274.477522 255.079823 
L 273.887712 288.711752 
L 273.297902 279.778271 
L 272.708092 290.288248 
L 272.118282 277.150776 
L 271.528472 256.13082 
L 270.938661 285.558758 
L 270.348851 290.813747 
L 269.759041 286.084257 
L 269.169231 284.507761 
L 268.579421 292.390244 
L 267.98961 279.778271 
L 267.3998 280.829268 
L 266.80999 271.895787 
L 266.22018 276.625277 
L 265.63037 276.099778 
L 265.040559 253.503326 
L 264.450749 275.574279 
L 263.860939 287.135255 
L 263.271129 265.5898 
L 262.681319 268.217295 
L 262.091508 213.039911 
L 261.501698 143.674058 
L 260.911888 189.392461 
L 260.322078 180.45898 
L 259.732268 292.915743 
L 259.142458 268.742794 
L 258.552647 268.217295 
L 257.962837 291.339246 
L 257.373027 291.339246 
L 256.783217 286.084257 
L 256.193407 270.31929 
L 255.603596 259.283814 
L 255.013786 261.385809 
L 254.423976 291.339246 
L 253.834166 291.864745 
L 253.244356 285.033259 
L 252.654545 251.926829 
L 252.064735 290.813747 
L 251.474925 287.660754 
L 250.885115 241.416851 
L 250.295305 261.385809 
L 249.705495 279.778271 
L 249.115684 284.507761 
L 248.525874 280.829268 
L 247.936064 267.691796 
L 247.346254 287.660754 
L 246.756444 271.895787 
L 246.166633 278.727273 
L 245.576823 285.033259 
L 244.987013 285.558758 
L 244.397203 284.507761 
L 243.807393 281.880266 
L 243.217582 222.498891 
L 242.627772 258.232816 
L 242.037962 262.436807 
L 241.448152 282.931264 
L 240.858342 278.201774 
L 240.268531 267.691796 
L 239.678721 279.778271 
L 239.088911 242.993348 
L 238.499101 264.013304 
L 237.909291 277.676275 
L 237.319481 267.166297 
L 236.72967 275.574279 
L 236.13986 280.303769 
L 235.55005 207.784922 
L 234.96024 270.31929 
L 234.37043 278.201774 
L 233.780619 272.421286 
L 233.190809 273.997783 
L 232.600999 268.742794 
L 232.011189 265.5898 
L 231.421379 250.875831 
L 230.831568 224.600887 
L 230.241758 224.600887 
L 229.651948 235.110865 
L 229.062138 276.099778 
L 228.472328 270.31929 
L 227.882517 234.059867 
L 227.292707 186.764967 
L 226.702897 176.780488 
L 226.113087 226.702882 
L 225.523277 267.166297 
L 224.933467 270.844789 
L 224.343656 285.558758 
L 223.753846 229.330377 
L 223.164036 279.778271 
L 222.574226 279.252772 
L 221.984416 252.977827 
L 221.394605 269.793792 
L 220.804795 196.749446 
L 220.214985 222.498891 
L 219.625175 209.361419 
L 219.035365 235.636364 
L 218.445554 254.554324 
L 217.855744 267.691796 
L 217.265934 267.166297 
L 216.676124 277.676275 
L 216.086314 276.099778 
L 215.496503 244.044346 
L 214.906693 195.172949 
L 213.727073 277.150776 
L 213.137263 264.538803 
L 212.547453 247.722838 
L 211.957642 240.891353 
L 211.367832 261.911308 
L 210.778022 268.217295 
L 210.188212 242.467849 
L 209.598402 268.217295 
L 209.008591 247.197339 
L 208.418781 251.926829 
L 207.828971 230.906874 
L 207.239161 233.008869 
L 206.649351 246.67184 
L 206.05954 239.840355 
L 205.46973 203.055432 
L 204.87992 83.241685 
L 204.29011 167.321508 
L 203.7003 166.796009 
L 203.11049 161.54102 
L 202.520679 150.505543 
L 201.930869 260.86031 
L 201.341059 213.56541 
L 200.751249 257.181818 
L 200.161439 272.421286 
L 199.571628 269.268293 
L 198.981818 276.625277 
L 198.392008 268.217295 
L 197.802198 280.829268 
L 197.212388 237.21286 
L 196.622577 267.691796 
L 196.032767 270.31929 
L 195.442957 283.982262 
L 194.853147 227.228381 
L 194.263337 211.988914 
L 193.673526 266.640798 
L 193.083716 191.494457 
L 192.493906 197.800443 
L 191.904096 184.137472 
L 191.314286 199.902439 
L 190.724476 214.090909 
L 190.134665 199.37694 
L 189.544855 157.337029 
L 188.955045 220.396896 
L 188.365235 256.656319 
L 187.775425 280.303769 
L 187.185614 261.911308 
L 186.595804 277.676275 
L 186.005994 262.436807 
L 185.416184 276.625277 
L 184.826374 277.150776 
L 184.236563 267.166297 
L 183.646753 265.5898 
L 183.056943 269.268293 
L 182.467133 239.840355 
L 181.877323 261.385809 
L 181.287512 261.911308 
L 180.697702 255.605322 
L 180.107892 275.04878 
L 179.518082 279.778271 
L 178.928272 265.5898 
L 178.338462 235.110865 
L 177.748651 190.968958 
L 177.158841 242.993348 
L 176.569031 178.356984 
L 175.979221 180.45898 
L 175.389411 269.793792 
L 174.7996 287.135255 
L 174.20979 142.097561 
L 173.61998 124.230599 
L 173.03017 223.02439 
L 172.44036 249.299335 
L 171.850549 277.676275 
L 171.260739 287.660754 
L 170.670929 279.778271 
L 170.081119 202.529933 
L 169.491309 277.150776 
L 168.901499 257.181818 
L 168.311688 265.064302 
L 167.721878 282.931264 
L 167.132068 279.778271 
L 166.542258 278.201774 
L 165.952448 258.758315 
L 165.362637 241.94235 
L 164.772827 285.033259 
L 164.183017 285.558758 
L 163.593207 255.605322 
L 163.003397 192.545455 
L 162.413586 209.361419 
L 161.233966 268.742794 
L 160.644156 237.21286 
L 160.054346 224.075388 
L 159.464535 282.931264 
L 158.874725 271.370288 
L 158.284915 287.135255 
L 157.695105 253.503326 
L 157.105295 292.390244 
L 156.515485 285.558758 
L 155.925674 280.303769 
L 155.335864 282.405765 
L 154.746054 286.084257 
L 154.156244 272.421286 
L 153.566434 282.405765 
L 152.976623 277.676275 
L 152.386813 256.13082 
L 151.797003 286.084257 
L 151.207193 279.252772 
L 150.617383 236.687361 
L 150.027572 232.48337 
L 149.437762 286.609756 
L 148.847952 255.605322 
L 148.258142 254.028825 
L 147.668332 234.585366 
L 147.078521 255.079823 
L 146.488711 282.931264 
L 145.898901 286.084257 
L 145.309091 286.609756 
L 144.719281 266.640798 
L 144.129471 288.186253 
L 143.53966 194.121951 
L 142.94985 41.727273 
L 142.36004 128.43459 
L 141.77023 74.308204 
L 141.18042 84.818182 
L 140.590609 160.490022 
L 140.000799 115.822616 
L 139.410989 244.044346 
L 138.821179 271.895787 
L 138.231369 293.441242 
L 137.641558 229.330377 
L 137.051748 192.019956 
L 136.461938 189.392461 
L 135.872128 194.121951 
L 135.282318 185.713969 
L 134.692507 210.937916 
L 134.102697 211.463415 
L 133.512887 210.937916 
L 132.923077 240.891353 
L 132.333267 288.186253 
L 131.743457 279.252772 
L 131.153646 286.084257 
L 130.563836 276.625277 
L 129.974026 270.844789 
L 129.384216 269.268293 
L 128.794406 250.350333 
L 128.204595 282.405765 
L 127.614785 280.829268 
L 127.024975 255.079823 
L 126.435165 271.370288 
L 125.845355 257.181818 
L 125.255544 242.993348 
L 124.665734 269.793792 
L 124.075924 236.161863 
L 123.486114 261.911308 
L 122.896304 159.439024 
L 122.306494 96.379157 
L 121.716683 186.764967 
L 121.126873 187.290466 
L 120.537063 190.968958 
L 119.947253 196.223947 
L 119.357443 166.27051 
L 118.767632 190.968958 
L 118.177822 169.423503 
L 117.588012 183.086475 
L 116.998202 182.560976 
L 116.408392 192.545455 
L 115.818581 182.560976 
L 115.228771 228.804878 
L 114.638961 278.201774 
L 114.049151 194.121951 
L 113.459341 189.91796 
L 112.86953 177.831486 
L 112.27972 179.407982 
L 111.68991 203.055432 
L 111.1001 204.631929 
L 110.51029 128.960089 
L 109.92048 155.235033 
L 109.330669 66.95122 
L 108.740859 100.583149 
L 108.151049 119.501109 
L 107.561239 143.674058 
L 106.971429 203.055432 
L 106.381618 200.953437 
L 105.791808 209.886918 
L 105.201998 265.064302 
L 104.612188 283.982262 
L 104.022378 283.456763 
L 103.432567 188.866962 
L 102.842757 115.822616 
L 102.252947 139.995565 
L 101.663137 140.521064 
L 101.073327 197.274945 
L 100.483516 205.157428 
L 99.893706 204.631929 
L 99.303896 140.521064 
L 98.714086 208.310421 
L 98.124276 265.5898 
L 97.534466 238.263858 
L 96.944655 255.605322 
L 96.354845 285.558758 
L 94.585415 284.507761 
L 93.995604 197.274945 
L 93.405794 228.804878 
L 92.815984 262.962306 
L 92.226174 280.303769 
L 91.636364 275.04878 
z
" style="fill:#ffa07a;fill-opacity:0.3;"/>
   </g>
   <g id="matplotlib.axis_1">
    <g id="xtick_1">
     <g id="line2d_1">
      <path clip-path="url(#pbcf8c111dc)" d="M 91.636364 313.2 
L 91.636364 28.8 
" style="fill:none;stroke:#808080;stroke-dasharray:6.4,1.6,1,1.6;stroke-dashoffset:0;stroke-opacity:0.3;"/>
     </g>
     <g id="line2d_2">
      <defs>
       <path d="M 0 0 
L 0 3.5 
" id="m628becb910" style="stroke:#000000;stroke-width:0.8;"/>
      </defs>
      <g>
       <use style="stroke:#000000;stroke-width:0.8;" x="91.636364" xlink:href="#m628becb910" y="313.2"/>
      </g>
     </g>
     <g id="text_1">
      <!-- 2020-11-20 -->
      <g transform="translate(62.578551 327.798437)scale(0.1 -0.1)">
       <defs>
        <path d="M 19.1875 8.296875 
L 53.609375 8.296875 
L 53.609375 0 
L 7.328125 0 
L 7.328125 8.296875 
Q 12.9375 14.109375 22.625 23.890625 
Q 32.328125 33.6875 34.8125 36.53125 
Q 39.546875 41.84375 41.421875 45.53125 
Q 43.3125 49.21875 43.3125 52.78125 
Q 43.3125 58.59375 39.234375 62.25 
Q 35.15625 65.921875 28.609375 65.921875 
Q 23.96875 65.921875 18.8125 64.3125 
Q 13.671875 62.703125 7.8125 59.421875 
L 7.8125 69.390625 
Q 13.765625 71.78125 18.9375 73 
Q 24.125 74.21875 28.421875 74.21875 
Q 39.75 74.21875 46.484375 68.546875 
Q 53.21875 62.890625 53.21875 53.421875 
Q 53.21875 48.921875 51.53125 44.890625 
Q 49.859375 40.875 45.40625 35.40625 
Q 44.1875 33.984375 37.640625 27.21875 
Q 31.109375 20.453125 19.1875 8.296875 
z
" id="DejaVuSans-50"/>
        <path d="M 31.78125 66.40625 
Q 24.171875 66.40625 20.328125 58.90625 
Q 16.5 51.421875 16.5 36.375 
Q 16.5 21.390625 20.328125 13.890625 
Q 24.171875 6.390625 31.78125 6.390625 
Q 39.453125 6.390625 43.28125 13.890625 
Q 47.125 21.390625 47.125 36.375 
Q 47.125 51.421875 43.28125 58.90625 
Q 39.453125 66.40625 31.78125 66.40625 
z
M 31.78125 74.21875 
Q 44.046875 74.21875 50.515625 64.515625 
Q 56.984375 54.828125 56.984375 36.375 
Q 56.984375 17.96875 50.515625 8.265625 
Q 44.046875 -1.421875 31.78125 -1.421875 
Q 19.53125 -1.421875 13.0625 8.265625 
Q 6.59375 17.96875 6.59375 36.375 
Q 6.59375 54.828125 13.0625 64.515625 
Q 19.53125 74.21875 31.78125 74.21875 
z
" id="DejaVuSans-48"/>
        <path d="M 4.890625 31.390625 
L 31.203125 31.390625 
L 31.203125 23.390625 
L 4.890625 23.390625 
z
" id="DejaVuSans-45"/>
        <path d="M 12.40625 8.296875 
L 28.515625 8.296875 
L 28.515625 63.921875 
L 10.984375 60.40625 
L 10.984375 69.390625 
L 28.421875 72.90625 
L 38.28125 72.90625 
L 38.28125 8.296875 
L 54.390625 8.296875 
L 54.390625 0 
L 12.40625 0 
z
" id="DejaVuSans-49"/>
       </defs>
       <use xlink:href="#DejaVuSans-50"/>
       <use x="63.623047" xlink:href="#DejaVuSans-48"/>
       <use x="127.246094" xlink:href="#DejaVuSans-50"/>
       <use x="190.869141" xlink:href="#DejaVuSans-48"/>
       <use x="254.492188" xlink:href="#DejaVuSans-45"/>
       <use x="290.576172" xlink:href="#DejaVuSans-49"/>
       <use x="354.199219" xlink:href="#DejaVuSans-49"/>
       <use x="417.822266" xlink:href="#DejaVuSans-45"/>
       <use x="453.90625" xlink:href="#DejaVuSans-50"/>
       <use x="517.529297" xlink:href="#DejaVuSans-48"/>
      </g>
     </g>
    </g>
    <g id="xtick_2">
     <g id="line2d_3">
      <path clip-path="url(#pbcf8c111dc)" d="M 168.311688 313.2 
L 168.311688 28.8 
" style="fill:none;stroke:#808080;stroke-dasharray:6.4,1.6,1,1.6;stroke-dashoffset:0;stroke-opacity:0.3;"/>
     </g>
     <g id="line2d_4">
      <g>
       <use style="stroke:#000000;stroke-width:0.8;" x="168.311688" xlink:href="#m628becb910" y="313.2"/>
      </g>
     </g>
     <g id="text_2">
      <!-- 2021-03-30 -->
      <g transform="translate(139.253876 327.798437)scale(0.1 -0.1)">
       <defs>
        <path d="M 40.578125 39.3125 
Q 47.65625 37.796875 51.625 33 
Q 55.609375 28.21875 55.609375 21.1875 
Q 55.609375 10.40625 48.1875 4.484375 
Q 40.765625 -1.421875 27.09375 -1.421875 
Q 22.515625 -1.421875 17.65625 -0.515625 
Q 12.796875 0.390625 7.625 2.203125 
L 7.625 11.71875 
Q 11.71875 9.328125 16.59375 8.109375 
Q 21.484375 6.890625 26.8125 6.890625 
Q 36.078125 6.890625 40.9375 10.546875 
Q 45.796875 14.203125 45.796875 21.1875 
Q 45.796875 27.640625 41.28125 31.265625 
Q 36.765625 34.90625 28.71875 34.90625 
L 20.21875 34.90625 
L 20.21875 43.015625 
L 29.109375 43.015625 
Q 36.375 43.015625 40.234375 45.921875 
Q 44.09375 48.828125 44.09375 54.296875 
Q 44.09375 59.90625 40.109375 62.90625 
Q 36.140625 65.921875 28.71875 65.921875 
Q 24.65625 65.921875 20.015625 65.03125 
Q 15.375 64.15625 9.8125 62.3125 
L 9.8125 71.09375 
Q 15.4375 72.65625 20.34375 73.4375 
Q 25.25 74.21875 29.59375 74.21875 
Q 40.828125 74.21875 47.359375 69.109375 
Q 53.90625 64.015625 53.90625 55.328125 
Q 53.90625 49.265625 50.4375 45.09375 
Q 46.96875 40.921875 40.578125 39.3125 
z
" id="DejaVuSans-51"/>
       </defs>
       <use xlink:href="#DejaVuSans-50"/>
       <use x="63.623047" xlink:href="#DejaVuSans-48"/>
       <use x="127.246094" xlink:href="#DejaVuSans-50"/>
       <use x="190.869141" xlink:href="#DejaVuSans-49"/>
       <use x="254.492188" xlink:href="#DejaVuSans-45"/>
       <use x="290.576172" xlink:href="#DejaVuSans-48"/>
       <use x="354.199219" xlink:href="#DejaVuSans-51"/>
       <use x="417.822266" xlink:href="#DejaVuSans-45"/>
       <use x="453.90625" xlink:href="#DejaVuSans-51"/>
       <use x="517.529297" xlink:href="#DejaVuSans-48"/>
      </g>
     </g>
    </g>
    <g id="xtick_3">
     <g id="line2d_5">
      <path clip-path="url(#pbcf8c111dc)" d="M 244.987013 313.2 
L 244.987013 28.8 
" style="fill:none;stroke:#808080;stroke-dasharray:6.4,1.6,1,1.6;stroke-dashoffset:0;stroke-opacity:0.3;"/>
     </g>
     <g id="line2d_6">
      <g>
       <use style="stroke:#000000;stroke-width:0.8;" x="244.987013" xlink:href="#m628becb910" y="313.2"/>
      </g>
     </g>
     <g id="text_3">
      <!-- 2021-08-07 -->
      <g transform="translate(215.9292 327.798437)scale(0.1 -0.1)">
       <defs>
        <path d="M 31.78125 34.625 
Q 24.75 34.625 20.71875 30.859375 
Q 16.703125 27.09375 16.703125 20.515625 
Q 16.703125 13.921875 20.71875 10.15625 
Q 24.75 6.390625 31.78125 6.390625 
Q 38.8125 6.390625 42.859375 10.171875 
Q 46.921875 13.96875 46.921875 20.515625 
Q 46.921875 27.09375 42.890625 30.859375 
Q 38.875 34.625 31.78125 34.625 
z
M 21.921875 38.8125 
Q 15.578125 40.375 12.03125 44.71875 
Q 8.5 49.078125 8.5 55.328125 
Q 8.5 64.0625 14.71875 69.140625 
Q 20.953125 74.21875 31.78125 74.21875 
Q 42.671875 74.21875 48.875 69.140625 
Q 55.078125 64.0625 55.078125 55.328125 
Q 55.078125 49.078125 51.53125 44.71875 
Q 48 40.375 41.703125 38.8125 
Q 48.828125 37.15625 52.796875 32.3125 
Q 56.78125 27.484375 56.78125 20.515625 
Q 56.78125 9.90625 50.3125 4.234375 
Q 43.84375 -1.421875 31.78125 -1.421875 
Q 19.734375 -1.421875 13.25 4.234375 
Q 6.78125 9.90625 6.78125 20.515625 
Q 6.78125 27.484375 10.78125 32.3125 
Q 14.796875 37.15625 21.921875 38.8125 
z
M 18.3125 54.390625 
Q 18.3125 48.734375 21.84375 45.5625 
Q 25.390625 42.390625 31.78125 42.390625 
Q 38.140625 42.390625 41.71875 45.5625 
Q 45.3125 48.734375 45.3125 54.390625 
Q 45.3125 60.0625 41.71875 63.234375 
Q 38.140625 66.40625 31.78125 66.40625 
Q 25.390625 66.40625 21.84375 63.234375 
Q 18.3125 60.0625 18.3125 54.390625 
z
" id="DejaVuSans-56"/>
        <path d="M 8.203125 72.90625 
L 55.078125 72.90625 
L 55.078125 68.703125 
L 28.609375 0 
L 18.3125 0 
L 43.21875 64.59375 
L 8.203125 64.59375 
z
" id="DejaVuSans-55"/>
       </defs>
       <use xlink:href="#DejaVuSans-50"/>
       <use x="63.623047" xlink:href="#DejaVuSans-48"/>
       <use x="127.246094" xlink:href="#DejaVuSans-50"/>
       <use x="190.869141" xlink:href="#DejaVuSans-49"/>
       <use x="254.492188" xlink:href="#DejaVuSans-45"/>
       <use x="290.576172" xlink:href="#DejaVuSans-48"/>
       <use x="354.199219" xlink:href="#DejaVuSans-56"/>
       <use x="417.822266" xlink:href="#DejaVuSans-45"/>
       <use x="453.90625" xlink:href="#DejaVuSans-48"/>
       <use x="517.529297" xlink:href="#DejaVuSans-55"/>
      </g>
     </g>
    </g>
    <g id="xtick_4">
     <g id="line2d_7">
      <path clip-path="url(#pbcf8c111dc)" d="M 321.662338 313.2 
L 321.662338 28.8 
" style="fill:none;stroke:#808080;stroke-dasharray:6.4,1.6,1,1.6;stroke-dashoffset:0;stroke-opacity:0.3;"/>
     </g>
     <g id="line2d_8">
      <g>
       <use style="stroke:#000000;stroke-width:0.8;" x="321.662338" xlink:href="#m628becb910" y="313.2"/>
      </g>
     </g>
     <g id="text_4">
      <!-- 2021-12-15 -->
      <g transform="translate(292.604525 327.798437)scale(0.1 -0.1)">
       <defs>
        <path d="M 10.796875 72.90625 
L 49.515625 72.90625 
L 49.515625 64.59375 
L 19.828125 64.59375 
L 19.828125 46.734375 
Q 21.96875 47.46875 24.109375 47.828125 
Q 26.265625 48.1875 28.421875 48.1875 
Q 40.625 48.1875 47.75 41.5 
Q 54.890625 34.8125 54.890625 23.390625 
Q 54.890625 11.625 47.5625 5.09375 
Q 40.234375 -1.421875 26.90625 -1.421875 
Q 22.3125 -1.421875 17.546875 -0.640625 
Q 12.796875 0.140625 7.71875 1.703125 
L 7.71875 11.625 
Q 12.109375 9.234375 16.796875 8.0625 
Q 21.484375 6.890625 26.703125 6.890625 
Q 35.15625 6.890625 40.078125 11.328125 
Q 45.015625 15.765625 45.015625 23.390625 
Q 45.015625 31 40.078125 35.4375 
Q 35.15625 39.890625 26.703125 39.890625 
Q 22.75 39.890625 18.8125 39.015625 
Q 14.890625 38.140625 10.796875 36.28125 
z
" id="DejaVuSans-53"/>
       </defs>
       <use xlink:href="#DejaVuSans-50"/>
       <use x="63.623047" xlink:href="#DejaVuSans-48"/>
       <use x="127.246094" xlink:href="#DejaVuSans-50"/>
       <use x="190.869141" xlink:href="#DejaVuSans-49"/>
       <use x="254.492188" xlink:href="#DejaVuSans-45"/>
       <use x="290.576172" xlink:href="#DejaVuSans-49"/>
       <use x="354.199219" xlink:href="#DejaVuSans-50"/>
       <use x="417.822266" xlink:href="#DejaVuSans-45"/>
       <use x="453.90625" xlink:href="#DejaVuSans-49"/>
       <use x="517.529297" xlink:href="#DejaVuSans-53"/>
      </g>
     </g>
    </g>
    <g id="xtick_5">
     <g id="line2d_9">
      <path clip-path="url(#pbcf8c111dc)" d="M 398.337662 313.2 
L 398.337662 28.8 
" style="fill:none;stroke:#808080;stroke-dasharray:6.4,1.6,1,1.6;stroke-dashoffset:0;stroke-opacity:0.3;"/>
     </g>
     <g id="line2d_10">
      <g>
       <use style="stroke:#000000;stroke-width:0.8;" x="398.337662" xlink:href="#m628becb910" y="313.2"/>
      </g>
     </g>
     <g id="text_5">
      <!-- 2022-04-24 -->
      <g transform="translate(369.27985 327.798437)scale(0.1 -0.1)">
       <defs>
        <path d="M 37.796875 64.3125 
L 12.890625 25.390625 
L 37.796875 25.390625 
z
M 35.203125 72.90625 
L 47.609375 72.90625 
L 47.609375 25.390625 
L 58.015625 25.390625 
L 58.015625 17.1875 
L 47.609375 17.1875 
L 47.609375 0 
L 37.796875 0 
L 37.796875 17.1875 
L 4.890625 17.1875 
L 4.890625 26.703125 
z
" id="DejaVuSans-52"/>
       </defs>
       <use xlink:href="#DejaVuSans-50"/>
       <use x="63.623047" xlink:href="#DejaVuSans-48"/>
       <use x="127.246094" xlink:href="#DejaVuSans-50"/>
       <use x="190.869141" xlink:href="#DejaVuSans-50"/>
       <use x="254.492188" xlink:href="#DejaVuSans-45"/>
       <use x="290.576172" xlink:href="#DejaVuSans-48"/>
       <use x="354.199219" xlink:href="#DejaVuSans-52"/>
       <use x="417.822266" xlink:href="#DejaVuSans-45"/>
       <use x="453.90625" xlink:href="#DejaVuSans-50"/>
       <use x="517.529297" xlink:href="#DejaVuSans-52"/>
      </g>
     </g>
    </g>
    <g id="xtick_6">
     <g id="line2d_11">
      <path clip-path="url(#pbcf8c111dc)" d="M 475.012987 313.2 
L 475.012987 28.8 
" style="fill:none;stroke:#808080;stroke-dasharray:6.4,1.6,1,1.6;stroke-dashoffset:0;stroke-opacity:0.3;"/>
     </g>
     <g id="line2d_12">
      <g>
       <use style="stroke:#000000;stroke-width:0.8;" x="475.012987" xlink:href="#m628becb910" y="313.2"/>
      </g>
     </g>
     <g id="text_6">
      <!-- 2022-09-01 -->
      <g transform="translate(445.955175 327.798437)scale(0.1 -0.1)">
       <defs>
        <path d="M 10.984375 1.515625 
L 10.984375 10.5 
Q 14.703125 8.734375 18.5 7.8125 
Q 22.3125 6.890625 25.984375 6.890625 
Q 35.75 6.890625 40.890625 13.453125 
Q 46.046875 20.015625 46.78125 33.40625 
Q 43.953125 29.203125 39.59375 26.953125 
Q 35.25 24.703125 29.984375 24.703125 
Q 19.046875 24.703125 12.671875 31.3125 
Q 6.296875 37.9375 6.296875 49.421875 
Q 6.296875 60.640625 12.9375 67.421875 
Q 19.578125 74.21875 30.609375 74.21875 
Q 43.265625 74.21875 49.921875 64.515625 
Q 56.59375 54.828125 56.59375 36.375 
Q 56.59375 19.140625 48.40625 8.859375 
Q 40.234375 -1.421875 26.421875 -1.421875 
Q 22.703125 -1.421875 18.890625 -0.6875 
Q 15.09375 0.046875 10.984375 1.515625 
z
M 30.609375 32.421875 
Q 37.25 32.421875 41.125 36.953125 
Q 45.015625 41.5 45.015625 49.421875 
Q 45.015625 57.28125 41.125 61.84375 
Q 37.25 66.40625 30.609375 66.40625 
Q 23.96875 66.40625 20.09375 61.84375 
Q 16.21875 57.28125 16.21875 49.421875 
Q 16.21875 41.5 20.09375 36.953125 
Q 23.96875 32.421875 30.609375 32.421875 
z
" id="DejaVuSans-57"/>
       </defs>
       <use xlink:href="#DejaVuSans-50"/>
       <use x="63.623047" xlink:href="#DejaVuSans-48"/>
       <use x="127.246094" xlink:href="#DejaVuSans-50"/>
       <use x="190.869141" xlink:href="#DejaVuSans-50"/>
       <use x="254.492188" xlink:href="#DejaVuSans-45"/>
       <use x="290.576172" xlink:href="#DejaVuSans-48"/>
       <use x="354.199219" xlink:href="#DejaVuSans-57"/>
       <use x="417.822266" xlink:href="#DejaVuSans-45"/>
       <use x="453.90625" xlink:href="#DejaVuSans-48"/>
       <use x="517.529297" xlink:href="#DejaVuSans-49"/>
      </g>
     </g>
    </g>
    <g id="xtick_7">
     <g id="line2d_13">
      <path clip-path="url(#pbcf8c111dc)" d="M 551.688312 313.2 
L 551.688312 28.8 
" style="fill:none;stroke:#808080;stroke-dasharray:6.4,1.6,1,1.6;stroke-dashoffset:0;stroke-opacity:0.3;"/>
     </g>
     <g id="line2d_14">
      <g>
       <use style="stroke:#000000;stroke-width:0.8;" x="551.688312" xlink:href="#m628becb910" y="313.2"/>
      </g>
     </g>
     <g id="text_7">
      <!-- 2023-01-09 -->
      <g transform="translate(522.630499 327.798437)scale(0.1 -0.1)">
       <use xlink:href="#DejaVuSans-50"/>
       <use x="63.623047" xlink:href="#DejaVuSans-48"/>
       <use x="127.246094" xlink:href="#DejaVuSans-50"/>
       <use x="190.869141" xlink:href="#DejaVuSans-51"/>
       <use x="254.492188" xlink:href="#DejaVuSans-45"/>
       <use x="290.576172" xlink:href="#DejaVuSans-48"/>
       <use x="354.199219" xlink:href="#DejaVuSans-49"/>
       <use x="417.822266" xlink:href="#DejaVuSans-45"/>
       <use x="453.90625" xlink:href="#DejaVuSans-48"/>
       <use x="517.529297" xlink:href="#DejaVuSans-57"/>
      </g>
     </g>
    </g>
    <g id="xtick_8">
     <g id="line2d_15">
      <path clip-path="url(#pbcf8c111dc)" d="M 628.363636 313.2 
L 628.363636 28.8 
" style="fill:none;stroke:#808080;stroke-dasharray:6.4,1.6,1,1.6;stroke-dashoffset:0;stroke-opacity:0.3;"/>
     </g>
     <g id="line2d_16">
      <g>
       <use style="stroke:#000000;stroke-width:0.8;" x="628.363636" xlink:href="#m628becb910" y="313.2"/>
      </g>
     </g>
     <g id="text_8">
      <!-- 2023-05-19 -->
      <g transform="translate(599.305824 327.798437)scale(0.1 -0.1)">
       <use xlink:href="#DejaVuSans-50"/>
       <use x="63.623047" xlink:href="#DejaVuSans-48"/>
       <use x="127.246094" xlink:href="#DejaVuSans-50"/>
       <use x="190.869141" xlink:href="#DejaVuSans-51"/>
       <use x="254.492188" xlink:href="#DejaVuSans-45"/>
       <use x="290.576172" xlink:href="#DejaVuSans-48"/>
       <use x="354.199219" xlink:href="#DejaVuSans-53"/>
       <use x="417.822266" xlink:href="#DejaVuSans-45"/>
       <use x="453.90625" xlink:href="#DejaVuSans-49"/>
       <use x="517.529297" xlink:href="#DejaVuSans-57"/>
      </g>
     </g>
    </g>
    <g id="text_9">
     <!-- Datum -->
     <g transform="translate(343.086719 341.476562)scale(0.1 -0.1)">
      <defs>
       <path d="M 19.671875 64.796875 
L 19.671875 8.109375 
L 31.59375 8.109375 
Q 46.6875 8.109375 53.6875 14.9375 
Q 60.6875 21.78125 60.6875 36.53125 
Q 60.6875 51.171875 53.6875 57.984375 
Q 46.6875 64.796875 31.59375 64.796875 
z
M 9.8125 72.90625 
L 30.078125 72.90625 
Q 51.265625 72.90625 61.171875 64.09375 
Q 71.09375 55.28125 71.09375 36.53125 
Q 71.09375 17.671875 61.125 8.828125 
Q 51.171875 0 30.078125 0 
L 9.8125 0 
z
" id="DejaVuSans-68"/>
       <path d="M 34.28125 27.484375 
Q 23.390625 27.484375 19.1875 25 
Q 14.984375 22.515625 14.984375 16.5 
Q 14.984375 11.71875 18.140625 8.90625 
Q 21.296875 6.109375 26.703125 6.109375 
Q 34.1875 6.109375 38.703125 11.40625 
Q 43.21875 16.703125 43.21875 25.484375 
L 43.21875 27.484375 
z
M 52.203125 31.203125 
L 52.203125 0 
L 43.21875 0 
L 43.21875 8.296875 
Q 40.140625 3.328125 35.546875 0.953125 
Q 30.953125 -1.421875 24.3125 -1.421875 
Q 15.921875 -1.421875 10.953125 3.296875 
Q 6 8.015625 6 15.921875 
Q 6 25.140625 12.171875 29.828125 
Q 18.359375 34.515625 30.609375 34.515625 
L 43.21875 34.515625 
L 43.21875 35.40625 
Q 43.21875 41.609375 39.140625 45 
Q 35.0625 48.390625 27.6875 48.390625 
Q 23 48.390625 18.546875 47.265625 
Q 14.109375 46.140625 10.015625 43.890625 
L 10.015625 52.203125 
Q 14.9375 54.109375 19.578125 55.046875 
Q 24.21875 56 28.609375 56 
Q 40.484375 56 46.34375 49.84375 
Q 52.203125 43.703125 52.203125 31.203125 
z
" id="DejaVuSans-97"/>
       <path d="M 18.3125 70.21875 
L 18.3125 54.6875 
L 36.8125 54.6875 
L 36.8125 47.703125 
L 18.3125 47.703125 
L 18.3125 18.015625 
Q 18.3125 11.328125 20.140625 9.421875 
Q 21.96875 7.515625 27.59375 7.515625 
L 36.8125 7.515625 
L 36.8125 0 
L 27.59375 0 
Q 17.1875 0 13.234375 3.875 
Q 9.28125 7.765625 9.28125 18.015625 
L 9.28125 47.703125 
L 2.6875 47.703125 
L 2.6875 54.6875 
L 9.28125 54.6875 
L 9.28125 70.21875 
z
" id="DejaVuSans-116"/>
       <path d="M 8.5 21.578125 
L 8.5 54.6875 
L 17.484375 54.6875 
L 17.484375 21.921875 
Q 17.484375 14.15625 20.5 10.265625 
Q 23.53125 6.390625 29.59375 6.390625 
Q 36.859375 6.390625 41.078125 11.03125 
Q 45.3125 15.671875 45.3125 23.6875 
L 45.3125 54.6875 
L 54.296875 54.6875 
L 54.296875 0 
L 45.3125 0 
L 45.3125 8.40625 
Q 42.046875 3.421875 37.71875 1 
Q 33.40625 -1.421875 27.6875 -1.421875 
Q 18.265625 -1.421875 13.375 4.4375 
Q 8.5 10.296875 8.5 21.578125 
z
M 31.109375 56 
z
" id="DejaVuSans-117"/>
       <path d="M 52 44.1875 
Q 55.375 50.25 60.0625 53.125 
Q 64.75 56 71.09375 56 
Q 79.640625 56 84.28125 50.015625 
Q 88.921875 44.046875 88.921875 33.015625 
L 88.921875 0 
L 79.890625 0 
L 79.890625 32.71875 
Q 79.890625 40.578125 77.09375 44.375 
Q 74.3125 48.1875 68.609375 48.1875 
Q 61.625 48.1875 57.5625 43.546875 
Q 53.515625 38.921875 53.515625 30.90625 
L 53.515625 0 
L 44.484375 0 
L 44.484375 32.71875 
Q 44.484375 40.625 41.703125 44.40625 
Q 38.921875 48.1875 33.109375 48.1875 
Q 26.21875 48.1875 22.15625 43.53125 
Q 18.109375 38.875 18.109375 30.90625 
L 18.109375 0 
L 9.078125 0 
L 9.078125 54.6875 
L 18.109375 54.6875 
L 18.109375 46.1875 
Q 21.1875 51.21875 25.484375 53.609375 
Q 29.78125 56 35.6875 56 
Q 41.65625 56 45.828125 52.96875 
Q 50 49.953125 52 44.1875 
z
" id="DejaVuSans-109"/>
      </defs>
      <use xlink:href="#DejaVuSans-68"/>
      <use x="77.001953" xlink:href="#DejaVuSans-97"/>
      <use x="138.28125" xlink:href="#DejaVuSans-116"/>
      <use x="177.490234" xlink:href="#DejaVuSans-117"/>
      <use x="240.869141" xlink:href="#DejaVuSans-109"/>
     </g>
    </g>
   </g>
   <g id="matplotlib.axis_2">
    <g id="ytick_1">
     <g id="line2d_17">
      <path clip-path="url(#pbcf8c111dc)" d="M 64.8 300.272727 
L 655.2 300.272727 
" style="fill:none;stroke:#808080;stroke-dasharray:6.4,1.6,1,1.6;stroke-dashoffset:0;stroke-opacity:0.3;"/>
     </g>
     <g id="line2d_18">
      <defs>
       <path d="M 0 0 
L -3.5 0 
" id="m61488e9109" style="stroke:#000000;stroke-width:0.8;"/>
      </defs>
      <g>
       <use style="stroke:#000000;stroke-width:0.8;" x="64.8" xlink:href="#m61488e9109" y="300.272727"/>
      </g>
     </g>
     <g id="text_10">
      <!-- 0 -->
      <g transform="translate(51.4375 304.071946)scale(0.1 -0.1)">
       <use xlink:href="#DejaVuSans-48"/>
      </g>
     </g>
    </g>
    <g id="ytick_2">
     <g id="line2d_19">
      <path clip-path="url(#pbcf8c111dc)" d="M 64.8 237.21286 
L 655.2 237.21286 
" style="fill:none;stroke:#808080;stroke-dasharray:6.4,1.6,1,1.6;stroke-dashoffset:0;stroke-opacity:0.3;"/>
     </g>
     <g id="line2d_20">
      <g>
       <use style="stroke:#000000;stroke-width:0.8;" x="64.8" xlink:href="#m61488e9109" y="237.21286"/>
      </g>
     </g>
     <g id="text_11">
      <!-- 5 -->
      <g transform="translate(51.4375 241.012079)scale(0.1 -0.1)">
       <use xlink:href="#DejaVuSans-53"/>
      </g>
     </g>
    </g>
    <g id="ytick_3">
     <g id="line2d_21">
      <path clip-path="url(#pbcf8c111dc)" d="M 64.8 174.152993 
L 655.2 174.152993 
" style="fill:none;stroke:#808080;stroke-dasharray:6.4,1.6,1,1.6;stroke-dashoffset:0;stroke-opacity:0.3;"/>
     </g>
     <g id="line2d_22">
      <g>
       <use style="stroke:#000000;stroke-width:0.8;" x="64.8" xlink:href="#m61488e9109" y="174.152993"/>
      </g>
     </g>
     <g id="text_12">
      <!-- 10 -->
      <g transform="translate(45.075 177.952212)scale(0.1 -0.1)">
       <use xlink:href="#DejaVuSans-49"/>
       <use x="63.623047" xlink:href="#DejaVuSans-48"/>
      </g>
     </g>
    </g>
    <g id="ytick_4">
     <g id="line2d_23">
      <path clip-path="url(#pbcf8c111dc)" d="M 64.8 111.093126 
L 655.2 111.093126 
" style="fill:none;stroke:#808080;stroke-dasharray:6.4,1.6,1,1.6;stroke-dashoffset:0;stroke-opacity:0.3;"/>
     </g>
     <g id="line2d_24">
      <g>
       <use style="stroke:#000000;stroke-width:0.8;" x="64.8" xlink:href="#m61488e9109" y="111.093126"/>
      </g>
     </g>
     <g id="text_13">
      <!-- 15 -->
      <g transform="translate(45.075 114.892345)scale(0.1 -0.1)">
       <use xlink:href="#DejaVuSans-49"/>
       <use x="63.623047" xlink:href="#DejaVuSans-53"/>
      </g>
     </g>
    </g>
    <g id="ytick_5">
     <g id="line2d_25">
      <path clip-path="url(#pbcf8c111dc)" d="M 64.8 48.033259 
L 655.2 48.033259 
" style="fill:none;stroke:#808080;stroke-dasharray:6.4,1.6,1,1.6;stroke-dashoffset:0;stroke-opacity:0.3;"/>
     </g>
     <g id="line2d_26">
      <g>
       <use style="stroke:#000000;stroke-width:0.8;" x="64.8" xlink:href="#m61488e9109" y="48.033259"/>
      </g>
     </g>
     <g id="text_14">
      <!-- 20 -->
      <g transform="translate(45.075 51.832478)scale(0.1 -0.1)">
       <use xlink:href="#DejaVuSans-50"/>
       <use x="63.623047" xlink:href="#DejaVuSans-48"/>
      </g>
     </g>
    </g>
   </g>
   <g id="line2d_27">
    <path clip-path="url(#pbcf8c111dc)" d="M 91.636364 280.090993 
L 94.585415 246.739249 
L 96.354845 240.0689 
L 97.534466 228.336238 
L 99.303896 214.491807 
L 102.252947 197.940369 
L 102.842757 195.418596 
L 103.432567 193.456527 
L 104.022378 192.153662 
L 104.612188 190.387489 
L 105.201998 187.834621 
L 106.971429 178.577756 
L 107.561239 175.639316 
L 108.151049 173.565305 
L 108.740859 172.371272 
L 109.330669 172.293536 
L 110.51029 174.451502 
L 112.27972 178.195293 
L 112.86953 180.275522 
L 114.638961 188.500046 
L 115.228771 189.753159 
L 116.998202 190.676669 
L 117.588012 190.658012 
L 118.177822 190.829032 
L 118.767632 191.279904 
L 119.357443 192.287369 
L 119.947253 194.037996 
L 120.537063 196.189743 
L 121.716683 201.808539 
L 122.306494 205.343996 
L 122.896304 210.987667 
L 124.665734 230.574161 
L 125.845355 242.228421 
L 127.024975 251.099713 
L 127.614785 254.333552 
L 128.204595 256.503956 
L 128.794406 257.610924 
L 129.384216 257.984059 
L 129.974026 257.411918 
L 130.563836 255.561789 
L 131.743457 250.446726 
L 132.333267 247.312389 
L 133.512887 238.322938 
L 134.692507 227.46781 
L 136.461938 209.76254 
L 137.051748 205.057925 
L 138.231369 198.030544 
L 140.000799 188.509374 
L 140.590609 187.290466 
L 141.18042 187.100789 
L 141.77023 188.667957 
L 142.36004 192.302917 
L 142.94985 197.041735 
L 145.898901 229.588462 
L 148.258142 252.132054 
L 149.437762 261.199242 
L 150.617383 266.497763 
L 151.207193 268.046275 
L 152.976623 270.90076 
L 154.156244 272.197405 
L 154.746054 272.505241 
L 155.335864 272.076136 
L 156.515485 270.210459 
L 157.105295 269.035083 
L 158.284915 265.925622 
L 160.054346 260.278841 
L 160.644156 258.873365 
L 161.233966 257.825477 
L 163.003397 256.323607 
L 163.593207 256.808683 
L 164.772827 258.397617 
L 165.362637 258.944883 
L 165.952448 259.678715 
L 166.542258 259.585431 
L 168.311688 256.957937 
L 168.901499 255.285047 
L 170.081119 250.518243 
L 170.670929 247.980923 
L 173.61998 231.320432 
L 174.20979 230.020677 
L 174.7996 230.232121 
L 175.979221 230.082866 
L 176.569031 231.049909 
L 177.158841 233.008869 
L 177.748651 235.372059 
L 178.928272 241.674937 
L 180.697702 252.017004 
L 181.287512 255.157559 
L 181.877323 257.237788 
L 183.056943 258.795628 
L 183.646753 259.271376 
L 184.236563 258.854708 
L 184.826374 257.421247 
L 185.416184 255.316142 
L 186.595804 248.947966 
L 189.544855 230.633241 
L 190.134665 228.500151 
L 190.724476 227.088456 
L 191.314286 226.323528 
L 191.904096 226.401265 
L 192.493906 227.474029 
L 193.083716 229.457865 
L 195.442957 241.053045 
L 196.032767 243.2732 
L 196.622577 244.799945 
L 197.212388 245.452932 
L 197.802198 244.722208 
L 198.392008 243.049318 
L 198.981818 240.888243 
L 199.571628 238.095947 
L 200.161439 234.585366 
L 203.11049 213.963421 
L 203.7003 211.967147 
L 204.29011 211.14625 
L 204.87992 211.354584 
L 205.46973 213.447251 
L 206.649351 219.669282 
L 207.828971 226.304871 
L 210.778022 246.084152 
L 211.367832 248.814259 
L 211.957642 250.670607 
L 212.547453 251.9828 
L 213.137263 252.020113 
L 214.906693 251.065509 
L 215.496503 251.208544 
L 216.086314 251.497724 
L 217.265934 250.88205 
L 218.445554 249.967869 
L 220.804795 247.259528 
L 222.574226 248.036894 
L 223.164036 247.502066 
L 223.753846 246.429302 
L 224.933467 244.927433 
L 226.113087 243.235886 
L 226.702897 242.847203 
L 227.292707 243.406906 
L 228.472328 245.558653 
L 229.651948 246.693607 
L 230.241758 247.53627 
L 230.831568 249.016374 
L 234.37043 260.972251 
L 234.96024 262.12897 
L 235.55005 262.719768 
L 237.909291 265.934951 
L 238.499101 266.423136 
L 239.088911 266.765177 
L 241.448152 268.895157 
L 242.037962 269.361577 
L 243.217582 270.776381 
L 244.987013 273.142681 
L 246.756444 274.482859 
L 247.346254 274.852884 
L 248.525874 275.138955 
L 250.885115 275.390821 
L 251.474925 275.602265 
L 252.654545 275.707986 
L 253.244356 275.524528 
L 253.834166 274.775148 
L 254.423976 273.071163 
L 255.603596 268.702371 
L 257.962837 260.754589 
L 260.322078 250.729687 
L 260.911888 249.20916 
L 261.501698 248.86401 
L 262.091508 250.229064 
L 265.040559 261.653223 
L 267.98961 275.027014 
L 268.579421 276.951771 
L 269.169231 278.068067 
L 269.759041 278.061848 
L 270.348851 277.651399 
L 271.528472 276.382739 
L 273.297902 275.263333 
L 275.067333 274.000892 
L 275.657143 274.293181 
L 276.246953 274.423779 
L 276.836763 274.855994 
L 277.426573 275.913211 
L 278.016384 276.696795 
L 279.196004 277.502145 
L 280.375624 277.900156 
L 280.965435 278.096052 
L 281.555245 277.900156 
L 282.145055 277.582991 
L 283.914486 275.804379 
L 284.504296 274.896417 
L 285.094106 273.605991 
L 285.683916 272.794421 
L 286.273726 272.51457 
L 288.043157 270.679988 
L 289.812587 267.84416 
L 290.402398 266.360947 
L 290.992208 264.302484 
L 292.171828 258.21105 
L 293.351449 249.520107 
L 295.120879 233.357129 
L 299.24955 189.448431 
L 299.839361 185.18847 
L 301.018981 179.324027 
L 301.608791 177.361957 
L 302.198601 176.024889 
L 302.788412 175.263071 
L 303.378222 175.427872 
L 303.968032 176.553497 
L 304.557842 179.13124 
L 305.737463 186.911111 
L 307.506893 202.691625 
L 309.276324 216.858329 
L 310.455944 224.843425 
L 311.635564 232.492699 
L 312.225375 235.235243 
L 313.404995 238.988362 
L 313.994805 240.219709 
L 315.174426 241.121453 
L 315.764236 242.212873 
L 316.354046 243.761385 
L 317.533666 249.199832 
L 318.123477 250.204188 
L 318.713287 250.197969 
L 319.303097 249.532544 
L 321.072527 246.475944 
L 321.662338 245.334772 
L 322.252148 244.436138 
L 322.841958 243.220339 
L 323.431768 241.438618 
L 324.021578 239.23401 
L 324.611389 236.472809 
L 325.201199 234.321062 
L 325.791009 234.224668 
L 326.380819 235.297432 
L 327.56044 239.159383 
L 328.15025 240.244585 
L 328.74006 240.670581 
L 329.32987 240.760755 
L 329.91968 240.574188 
L 330.509491 240.197943 
L 331.099301 239.563613 
L 331.689111 237.666842 
L 332.278921 234.977158 
L 332.868731 231.631378 
L 333.458541 227.508233 
L 340.536264 222.999515 
L 341.715884 213.929217 
L 342.305694 210.172988 
L 343.485315 204.678571 
L 344.664935 200.051693 
L 345.844555 198.139375 
L 346.434366 198.332161 
L 347.613986 200.885029 
L 348.793606 204.031803 
L 349.973227 207.057309 
L 354.101898 224.106483 
L 355.281518 227.934229 
L 355.871329 229.902518 
L 358.230569 235.891339 
L 359.41019 238.506396 
L 360 239.103413 
L 360.58981 239.451672 
L 361.17962 240.829163 
L 361.769431 241.513245 
L 362.359241 241.650061 
L 362.949051 241.401304 
L 363.538861 241.494588 
L 364.718482 242.184888 
L 365.308292 242.359018 
L 365.898102 241.961007 
L 366.487912 241.360881 
L 367.077722 240.922447 
L 368.257343 241.883271 
L 370.026773 241.970335 
L 370.616583 242.962254 
L 371.796204 246.737139 
L 372.386014 247.996471 
L 374.155445 252.50208 
L 374.745255 254.656936 
L 375.924875 259.398864 
L 377.694306 264.890172 
L 378.284116 266.003359 
L 378.873926 266.684331 
L 379.463736 267.184954 
L 381.233167 269.554363 
L 381.822977 270.008344 
L 382.412787 270.123394 
L 383.002597 269.852871 
L 383.592408 269.971031 
L 384.182218 269.871528 
L 384.772028 269.299387 
L 386.541459 268.24839 
L 387.131269 268.354111 
L 388.310889 269.159462 
L 388.900699 269.949265 
L 391.84975 275.80127 
L 393.029371 279.541951 
L 394.208991 283.606017 
L 395.388611 286.609756 
L 395.978422 287.722943 
L 396.568232 288.518965 
L 397.747852 289.507774 
L 399.517283 291.081161 
L 400.107093 291.249072 
L 400.696903 291.183773 
L 401.876523 290.826185 
L 402.466334 290.397079 
L 403.645954 288.323069 
L 404.825574 285.341096 
L 406.005195 281.267702 
L 408.364436 271.211706 
L 410.133866 261.696755 
L 411.313487 258.167517 
L 411.903297 257.244007 
L 412.493107 257.153833 
L 413.082917 257.645128 
L 413.672727 258.761424 
L 414.852348 261.559939 
L 415.442158 262.604718 
L 416.031968 264.013304 
L 416.621778 266.255225 
L 417.801399 272.489694 
L 418.391209 274.93373 
L 418.981019 276.60662 
L 419.570829 277.306249 
L 420.160639 277.471051 
L 420.75045 276.945552 
L 421.34026 275.521419 
L 421.93007 273.761464 
L 422.51988 272.477256 
L 423.10969 271.718548 
L 423.6995 270.754615 
L 424.289311 269.560582 
L 426.058741 264.181215 
L 426.648551 263.655716 
L 427.238362 263.898254 
L 427.828172 263.742781 
L 428.417982 264.255842 
L 429.597602 267.772642 
L 430.187413 269.411328 
L 430.777223 270.555609 
L 431.956843 271.964195 
L 433.136464 273.444299 
L 433.726274 273.888952 
L 434.316084 273.195542 
L 434.905894 272.020166 
L 435.495704 271.267676 
L 436.085514 270.285086 
L 438.444755 264.678728 
L 440.803996 263.758328 
L 441.393806 264.025742 
L 441.983616 265.337934 
L 445.522478 278.826775 
L 446.112288 280.683124 
L 449.061339 287.931277 
L 449.651149 288.83613 
L 450.240959 289.175061 
L 450.830769 289.330534 
L 456.139061 294.83739 
L 457.908492 296.050079 
L 458.498302 296.323712 
L 464.396404 296.389011 
L 471.474126 295.748462 
L 473.833367 295.269605 
L 474.423177 294.912017 
L 475.602797 293.180047 
L 477.372228 290.633398 
L 478.551848 288.948071 
L 479.731469 286.339233 
L 480.911089 283.052533 
L 481.500899 281.301906 
L 482.090709 280.082998 
L 482.680519 279.657002 
L 484.44995 279.047547 
L 485.62957 278.388341 
L 486.219381 278.372794 
L 487.399001 279.706753 
L 487.988811 280.680014 
L 489.758242 284.426915 
L 490.937862 285.667589 
L 492.707293 287.097941 
L 493.297103 287.642097 
L 493.886913 287.965481 
L 494.476723 288.120954 
L 495.066533 288.450557 
L 495.656344 288.581154 
L 496.835964 288.400806 
L 497.425774 288.02767 
L 500.374825 284.793831 
L 502.734066 282.045068 
L 504.503497 280.947428 
L 505.093307 280.888348 
L 506.272927 281.584867 
L 507.452547 283.06808 
L 509.811788 286.034506 
L 510.401598 286.662617 
L 511.581219 287.421325 
L 512.171029 288.005904 
L 513.94046 290.138994 
L 515.12008 291.009643 
L 516.88951 291.914496 
L 519.248751 293.599824 
L 519.838561 293.892114 
L 521.018182 293.935646 
L 521.607992 293.56562 
L 522.787612 292.172582 
L 523.377423 291.755914 
L 523.967233 291.165116 
L 525.146853 289.025807 
L 528.095904 283.058752 
L 528.685714 281.790092 
L 529.275524 281.189966 
L 530.455145 281.239717 
L 531.044955 281.099791 
L 531.634765 281.314344 
L 532.224575 282.063724 
L 534.583816 286.130899 
L 535.763437 288.422572 
L 536.353247 289.64459 
L 536.943057 290.540115 
L 537.532867 291.078051 
L 538.712488 292.629672 
L 539.302298 293.052559 
L 539.892108 293.248455 
L 540.481918 293.245346 
L 541.661538 293.419475 
L 542.841159 293.052559 
L 545.2004 291.858526 
L 546.38002 291.022081 
L 548.739261 290.717354 
L 549.329071 290.751558 
L 554.047552 294.395846 
L 556.996603 295.754681 
L 559.355844 296.074955 
L 562.894705 296.457419 
L 564.664136 296.317493 
L 569.972428 295.863512 
L 571.152048 295.98789 
L 578.22977 297.181923 
L 580.589011 297.113515 
L 582.358442 296.298836 
L 583.538062 295.620974 
L 587.666733 291.165116 
L 588.256543 290.120337 
L 590.025974 288.214238 
L 591.205594 287.200554 
L 593.564835 287.676301 
L 594.744456 287.903292 
L 604.771229 287.999685 
L 605.950849 290.036382 
L 608.31009 293.593605 
L 611.259141 296.367244 
L 612.438761 297.436899 
L 615.387812 297.492869 
L 621.285914 297.337396 
L 623.055345 297.433345 
L 626.004396 297.924196 
L 628.363636 298.367072 
L 628.363636 298.367072 
" style="fill:none;stroke:#ff0000;stroke-linecap:square;stroke-width:1.5;"/>
   </g>
   <g id="patch_3">
    <path d="M 64.8 313.2 
L 64.8 28.8 
" style="fill:none;stroke:#000000;stroke-linecap:square;stroke-linejoin:miter;stroke-width:0.8;"/>
   </g>
   <g id="patch_4">
    <path d="M 655.2 313.2 
L 655.2 28.8 
" style="fill:none;stroke:#000000;stroke-linecap:square;stroke-linejoin:miter;stroke-width:0.8;"/>
   </g>
   <g id="patch_5">
    <path d="M 64.8 313.2 
L 655.2 313.2 
" style="fill:none;stroke:#000000;stroke-linecap:square;stroke-linejoin:miter;stroke-width:0.8;"/>
   </g>
   <g id="patch_6">
    <path d="M 64.8 28.8 
L 655.2 28.8 
" style="fill:none;stroke:#000000;stroke-linecap:square;stroke-linejoin:miter;stroke-width:0.8;"/>
   </g>
   <g id="text_15">
    <!-- Page hits per uur (gemiddeld ongeveer 0). -->
    <g transform="translate(232.46625 22.8)scale(0.12 -0.12)">
     <defs>
      <path d="M 19.671875 64.796875 
L 19.671875 37.40625 
L 32.078125 37.40625 
Q 38.96875 37.40625 42.71875 40.96875 
Q 46.484375 44.53125 46.484375 51.125 
Q 46.484375 57.671875 42.71875 61.234375 
Q 38.96875 64.796875 32.078125 64.796875 
z
M 9.8125 72.90625 
L 32.078125 72.90625 
Q 44.34375 72.90625 50.609375 67.359375 
Q 56.890625 61.8125 56.890625 51.125 
Q 56.890625 40.328125 50.609375 34.8125 
Q 44.34375 29.296875 32.078125 29.296875 
L 19.671875 29.296875 
L 19.671875 0 
L 9.8125 0 
z
" id="DejaVuSans-80"/>
      <path d="M 45.40625 27.984375 
Q 45.40625 37.75 41.375 43.109375 
Q 37.359375 48.484375 30.078125 48.484375 
Q 22.859375 48.484375 18.828125 43.109375 
Q 14.796875 37.75 14.796875 27.984375 
Q 14.796875 18.265625 18.828125 12.890625 
Q 22.859375 7.515625 30.078125 7.515625 
Q 37.359375 7.515625 41.375 12.890625 
Q 45.40625 18.265625 45.40625 27.984375 
z
M 54.390625 6.78125 
Q 54.390625 -7.171875 48.1875 -13.984375 
Q 42 -20.796875 29.203125 -20.796875 
Q 24.46875 -20.796875 20.265625 -20.09375 
Q 16.0625 -19.390625 12.109375 -17.921875 
L 12.109375 -9.1875 
Q 16.0625 -11.328125 19.921875 -12.34375 
Q 23.78125 -13.375 27.78125 -13.375 
Q 36.625 -13.375 41.015625 -8.765625 
Q 45.40625 -4.15625 45.40625 5.171875 
L 45.40625 9.625 
Q 42.625 4.78125 38.28125 2.390625 
Q 33.9375 0 27.875 0 
Q 17.828125 0 11.671875 7.65625 
Q 5.515625 15.328125 5.515625 27.984375 
Q 5.515625 40.671875 11.671875 48.328125 
Q 17.828125 56 27.875 56 
Q 33.9375 56 38.28125 53.609375 
Q 42.625 51.21875 45.40625 46.390625 
L 45.40625 54.6875 
L 54.390625 54.6875 
z
" id="DejaVuSans-103"/>
      <path d="M 56.203125 29.59375 
L 56.203125 25.203125 
L 14.890625 25.203125 
Q 15.484375 15.921875 20.484375 11.0625 
Q 25.484375 6.203125 34.421875 6.203125 
Q 39.59375 6.203125 44.453125 7.46875 
Q 49.3125 8.734375 54.109375 11.28125 
L 54.109375 2.78125 
Q 49.265625 0.734375 44.1875 -0.34375 
Q 39.109375 -1.421875 33.890625 -1.421875 
Q 20.796875 -1.421875 13.15625 6.1875 
Q 5.515625 13.8125 5.515625 26.8125 
Q 5.515625 40.234375 12.765625 48.109375 
Q 20.015625 56 32.328125 56 
Q 43.359375 56 49.78125 48.890625 
Q 56.203125 41.796875 56.203125 29.59375 
z
M 47.21875 32.234375 
Q 47.125 39.59375 43.09375 43.984375 
Q 39.0625 48.390625 32.421875 48.390625 
Q 24.90625 48.390625 20.390625 44.140625 
Q 15.875 39.890625 15.1875 32.171875 
z
" id="DejaVuSans-101"/>
      <path id="DejaVuSans-32"/>
      <path d="M 54.890625 33.015625 
L 54.890625 0 
L 45.90625 0 
L 45.90625 32.71875 
Q 45.90625 40.484375 42.875 44.328125 
Q 39.84375 48.1875 33.796875 48.1875 
Q 26.515625 48.1875 22.3125 43.546875 
Q 18.109375 38.921875 18.109375 30.90625 
L 18.109375 0 
L 9.078125 0 
L 9.078125 75.984375 
L 18.109375 75.984375 
L 18.109375 46.1875 
Q 21.34375 51.125 25.703125 53.5625 
Q 30.078125 56 35.796875 56 
Q 45.21875 56 50.046875 50.171875 
Q 54.890625 44.34375 54.890625 33.015625 
z
" id="DejaVuSans-104"/>
      <path d="M 9.421875 54.6875 
L 18.40625 54.6875 
L 18.40625 0 
L 9.421875 0 
z
M 9.421875 75.984375 
L 18.40625 75.984375 
L 18.40625 64.59375 
L 9.421875 64.59375 
z
" id="DejaVuSans-105"/>
      <path d="M 44.28125 53.078125 
L 44.28125 44.578125 
Q 40.484375 46.53125 36.375 47.5 
Q 32.28125 48.484375 27.875 48.484375 
Q 21.1875 48.484375 17.84375 46.4375 
Q 14.5 44.390625 14.5 40.28125 
Q 14.5 37.15625 16.890625 35.375 
Q 19.28125 33.59375 26.515625 31.984375 
L 29.59375 31.296875 
Q 39.15625 29.25 43.1875 25.515625 
Q 47.21875 21.78125 47.21875 15.09375 
Q 47.21875 7.46875 41.1875 3.015625 
Q 35.15625 -1.421875 24.609375 -1.421875 
Q 20.21875 -1.421875 15.453125 -0.5625 
Q 10.6875 0.296875 5.421875 2 
L 5.421875 11.28125 
Q 10.40625 8.6875 15.234375 7.390625 
Q 20.0625 6.109375 24.8125 6.109375 
Q 31.15625 6.109375 34.5625 8.28125 
Q 37.984375 10.453125 37.984375 14.40625 
Q 37.984375 18.0625 35.515625 20.015625 
Q 33.0625 21.96875 24.703125 23.78125 
L 21.578125 24.515625 
Q 13.234375 26.265625 9.515625 29.90625 
Q 5.8125 33.546875 5.8125 39.890625 
Q 5.8125 47.609375 11.28125 51.796875 
Q 16.75 56 26.8125 56 
Q 31.78125 56 36.171875 55.265625 
Q 40.578125 54.546875 44.28125 53.078125 
z
" id="DejaVuSans-115"/>
      <path d="M 18.109375 8.203125 
L 18.109375 -20.796875 
L 9.078125 -20.796875 
L 9.078125 54.6875 
L 18.109375 54.6875 
L 18.109375 46.390625 
Q 20.953125 51.265625 25.265625 53.625 
Q 29.59375 56 35.59375 56 
Q 45.5625 56 51.78125 48.09375 
Q 58.015625 40.1875 58.015625 27.296875 
Q 58.015625 14.40625 51.78125 6.484375 
Q 45.5625 -1.421875 35.59375 -1.421875 
Q 29.59375 -1.421875 25.265625 0.953125 
Q 20.953125 3.328125 18.109375 8.203125 
z
M 48.6875 27.296875 
Q 48.6875 37.203125 44.609375 42.84375 
Q 40.53125 48.484375 33.40625 48.484375 
Q 26.265625 48.484375 22.1875 42.84375 
Q 18.109375 37.203125 18.109375 27.296875 
Q 18.109375 17.390625 22.1875 11.75 
Q 26.265625 6.109375 33.40625 6.109375 
Q 40.53125 6.109375 44.609375 11.75 
Q 48.6875 17.390625 48.6875 27.296875 
z
" id="DejaVuSans-112"/>
      <path d="M 41.109375 46.296875 
Q 39.59375 47.171875 37.8125 47.578125 
Q 36.03125 48 33.890625 48 
Q 26.265625 48 22.1875 43.046875 
Q 18.109375 38.09375 18.109375 28.8125 
L 18.109375 0 
L 9.078125 0 
L 9.078125 54.6875 
L 18.109375 54.6875 
L 18.109375 46.1875 
Q 20.953125 51.171875 25.484375 53.578125 
Q 30.03125 56 36.53125 56 
Q 37.453125 56 38.578125 55.875 
Q 39.703125 55.765625 41.0625 55.515625 
z
" id="DejaVuSans-114"/>
      <path d="M 31 75.875 
Q 24.46875 64.65625 21.28125 53.65625 
Q 18.109375 42.671875 18.109375 31.390625 
Q 18.109375 20.125 21.3125 9.0625 
Q 24.515625 -2 31 -13.1875 
L 23.1875 -13.1875 
Q 15.875 -1.703125 12.234375 9.375 
Q 8.59375 20.453125 8.59375 31.390625 
Q 8.59375 42.28125 12.203125 53.3125 
Q 15.828125 64.359375 23.1875 75.875 
z
" id="DejaVuSans-40"/>
      <path d="M 45.40625 46.390625 
L 45.40625 75.984375 
L 54.390625 75.984375 
L 54.390625 0 
L 45.40625 0 
L 45.40625 8.203125 
Q 42.578125 3.328125 38.25 0.953125 
Q 33.9375 -1.421875 27.875 -1.421875 
Q 17.96875 -1.421875 11.734375 6.484375 
Q 5.515625 14.40625 5.515625 27.296875 
Q 5.515625 40.1875 11.734375 48.09375 
Q 17.96875 56 27.875 56 
Q 33.9375 56 38.25 53.625 
Q 42.578125 51.265625 45.40625 46.390625 
z
M 14.796875 27.296875 
Q 14.796875 17.390625 18.875 11.75 
Q 22.953125 6.109375 30.078125 6.109375 
Q 37.203125 6.109375 41.296875 11.75 
Q 45.40625 17.390625 45.40625 27.296875 
Q 45.40625 37.203125 41.296875 42.84375 
Q 37.203125 48.484375 30.078125 48.484375 
Q 22.953125 48.484375 18.875 42.84375 
Q 14.796875 37.203125 14.796875 27.296875 
z
" id="DejaVuSans-100"/>
      <path d="M 9.421875 75.984375 
L 18.40625 75.984375 
L 18.40625 0 
L 9.421875 0 
z
" id="DejaVuSans-108"/>
      <path d="M 30.609375 48.390625 
Q 23.390625 48.390625 19.1875 42.75 
Q 14.984375 37.109375 14.984375 27.296875 
Q 14.984375 17.484375 19.15625 11.84375 
Q 23.34375 6.203125 30.609375 6.203125 
Q 37.796875 6.203125 41.984375 11.859375 
Q 46.1875 17.53125 46.1875 27.296875 
Q 46.1875 37.015625 41.984375 42.703125 
Q 37.796875 48.390625 30.609375 48.390625 
z
M 30.609375 56 
Q 42.328125 56 49.015625 48.375 
Q 55.71875 40.765625 55.71875 27.296875 
Q 55.71875 13.875 49.015625 6.21875 
Q 42.328125 -1.421875 30.609375 -1.421875 
Q 18.84375 -1.421875 12.171875 6.21875 
Q 5.515625 13.875 5.515625 27.296875 
Q 5.515625 40.765625 12.171875 48.375 
Q 18.84375 56 30.609375 56 
z
" id="DejaVuSans-111"/>
      <path d="M 54.890625 33.015625 
L 54.890625 0 
L 45.90625 0 
L 45.90625 32.71875 
Q 45.90625 40.484375 42.875 44.328125 
Q 39.84375 48.1875 33.796875 48.1875 
Q 26.515625 48.1875 22.3125 43.546875 
Q 18.109375 38.921875 18.109375 30.90625 
L 18.109375 0 
L 9.078125 0 
L 9.078125 54.6875 
L 18.109375 54.6875 
L 18.109375 46.1875 
Q 21.34375 51.125 25.703125 53.5625 
Q 30.078125 56 35.796875 56 
Q 45.21875 56 50.046875 50.171875 
Q 54.890625 44.34375 54.890625 33.015625 
z
" id="DejaVuSans-110"/>
      <path d="M 2.984375 54.6875 
L 12.5 54.6875 
L 29.59375 8.796875 
L 46.6875 54.6875 
L 56.203125 54.6875 
L 35.6875 0 
L 23.484375 0 
z
" id="DejaVuSans-118"/>
      <path d="M 8.015625 75.875 
L 15.828125 75.875 
Q 23.140625 64.359375 26.78125 53.3125 
Q 30.421875 42.28125 30.421875 31.390625 
Q 30.421875 20.453125 26.78125 9.375 
Q 23.140625 -1.703125 15.828125 -13.1875 
L 8.015625 -13.1875 
Q 14.5 -2 17.703125 9.0625 
Q 20.90625 20.125 20.90625 31.390625 
Q 20.90625 42.671875 17.703125 53.65625 
Q 14.5 64.65625 8.015625 75.875 
z
" id="DejaVuSans-41"/>
      <path d="M 10.6875 12.40625 
L 21 12.40625 
L 21 0 
L 10.6875 0 
z
" id="DejaVuSans-46"/>
     </defs>
     <use xlink:href="#DejaVuSans-80"/>
     <use x="55.802734" xlink:href="#DejaVuSans-97"/>
     <use x="117.082031" xlink:href="#DejaVuSans-103"/>
     <use x="180.558594" xlink:href="#DejaVuSans-101"/>
     <use x="242.082031" xlink:href="#DejaVuSans-32"/>
     <use x="273.869141" xlink:href="#DejaVuSans-104"/>
     <use x="337.248047" xlink:href="#DejaVuSans-105"/>
     <use x="365.03125" xlink:href="#DejaVuSans-116"/>
     <use x="404.240234" xlink:href="#DejaVuSans-115"/>
     <use x="456.339844" xlink:href="#DejaVuSans-32"/>
     <use x="488.126953" xlink:href="#DejaVuSans-112"/>
     <use x="551.603516" xlink:href="#DejaVuSans-101"/>
     <use x="613.126953" xlink:href="#DejaVuSans-114"/>
     <use x="654.240234" xlink:href="#DejaVuSans-32"/>
     <use x="686.027344" xlink:href="#DejaVuSans-117"/>
     <use x="749.40625" xlink:href="#DejaVuSans-117"/>
     <use x="812.785156" xlink:href="#DejaVuSans-114"/>
     <use x="853.898438" xlink:href="#DejaVuSans-32"/>
     <use x="885.685547" xlink:href="#DejaVuSans-40"/>
     <use x="924.699219" xlink:href="#DejaVuSans-103"/>
     <use x="988.175781" xlink:href="#DejaVuSans-101"/>
     <use x="1049.699219" xlink:href="#DejaVuSans-109"/>
     <use x="1147.111328" xlink:href="#DejaVuSans-105"/>
     <use x="1174.894531" xlink:href="#DejaVuSans-100"/>
     <use x="1238.371094" xlink:href="#DejaVuSans-100"/>
     <use x="1301.847656" xlink:href="#DejaVuSans-101"/>
     <use x="1363.371094" xlink:href="#DejaVuSans-108"/>
     <use x="1391.154297" xlink:href="#DejaVuSans-100"/>
     <use x="1454.630859" xlink:href="#DejaVuSans-32"/>
     <use x="1486.417969" xlink:href="#DejaVuSans-111"/>
     <use x="1547.599609" xlink:href="#DejaVuSans-110"/>
     <use x="1610.978516" xlink:href="#DejaVuSans-103"/>
     <use x="1674.455078" xlink:href="#DejaVuSans-101"/>
     <use x="1735.978516" xlink:href="#DejaVuSans-118"/>
     <use x="1795.158203" xlink:href="#DejaVuSans-101"/>
     <use x="1856.681641" xlink:href="#DejaVuSans-101"/>
     <use x="1918.205078" xlink:href="#DejaVuSans-114"/>
     <use x="1959.318359" xlink:href="#DejaVuSans-32"/>
     <use x="1991.105469" xlink:href="#DejaVuSans-48"/>
     <use x="2054.728516" xlink:href="#DejaVuSans-41"/>
     <use x="2093.742188" xlink:href="#DejaVuSans-46"/>
    </g>
   </g>
  </g>
  <g id="text_16">
   <!-- Gegenereerd op 2023-05-19 11:38. -->
   <g style="fill:#808080;" transform="translate(7.2 356.4)scale(0.08 -0.08)">
    <defs>
     <path d="M 59.515625 10.40625 
L 59.515625 29.984375 
L 43.40625 29.984375 
L 43.40625 38.09375 
L 69.28125 38.09375 
L 69.28125 6.78125 
Q 63.578125 2.734375 56.6875 0.65625 
Q 49.8125 -1.421875 42 -1.421875 
Q 24.90625 -1.421875 15.25 8.5625 
Q 5.609375 18.5625 5.609375 36.375 
Q 5.609375 54.25 15.25 64.234375 
Q 24.90625 74.21875 42 74.21875 
Q 49.125 74.21875 55.546875 72.453125 
Q 61.96875 70.703125 67.390625 67.28125 
L 67.390625 56.78125 
Q 61.921875 61.421875 55.765625 63.765625 
Q 49.609375 66.109375 42.828125 66.109375 
Q 29.4375 66.109375 22.71875 58.640625 
Q 16.015625 51.171875 16.015625 36.375 
Q 16.015625 21.625 22.71875 14.15625 
Q 29.4375 6.6875 42.828125 6.6875 
Q 48.046875 6.6875 52.140625 7.59375 
Q 56.25 8.5 59.515625 10.40625 
z
" id="DejaVuSans-71"/>
     <path d="M 11.71875 12.40625 
L 22.015625 12.40625 
L 22.015625 0 
L 11.71875 0 
z
M 11.71875 51.703125 
L 22.015625 51.703125 
L 22.015625 39.3125 
L 11.71875 39.3125 
z
" id="DejaVuSans-58"/>
    </defs>
    <use xlink:href="#DejaVuSans-71"/>
    <use x="77.490234" xlink:href="#DejaVuSans-101"/>
    <use x="139.013672" xlink:href="#DejaVuSans-103"/>
    <use x="202.490234" xlink:href="#DejaVuSans-101"/>
    <use x="264.013672" xlink:href="#DejaVuSans-110"/>
    <use x="327.392578" xlink:href="#DejaVuSans-101"/>
    <use x="388.916016" xlink:href="#DejaVuSans-114"/>
    <use x="427.779297" xlink:href="#DejaVuSans-101"/>
    <use x="489.302734" xlink:href="#DejaVuSans-101"/>
    <use x="550.826172" xlink:href="#DejaVuSans-114"/>
    <use x="590.189453" xlink:href="#DejaVuSans-100"/>
    <use x="653.666016" xlink:href="#DejaVuSans-32"/>
    <use x="685.453125" xlink:href="#DejaVuSans-111"/>
    <use x="746.634766" xlink:href="#DejaVuSans-112"/>
    <use x="810.111328" xlink:href="#DejaVuSans-32"/>
    <use x="841.898438" xlink:href="#DejaVuSans-50"/>
    <use x="905.521484" xlink:href="#DejaVuSans-48"/>
    <use x="969.144531" xlink:href="#DejaVuSans-50"/>
    <use x="1032.767578" xlink:href="#DejaVuSans-51"/>
    <use x="1096.390625" xlink:href="#DejaVuSans-45"/>
    <use x="1132.474609" xlink:href="#DejaVuSans-48"/>
    <use x="1196.097656" xlink:href="#DejaVuSans-53"/>
    <use x="1259.720703" xlink:href="#DejaVuSans-45"/>
    <use x="1295.804688" xlink:href="#DejaVuSans-49"/>
    <use x="1359.427734" xlink:href="#DejaVuSans-57"/>
    <use x="1423.050781" xlink:href="#DejaVuSans-32"/>
    <use x="1454.837891" xlink:href="#DejaVuSans-49"/>
    <use x="1518.460938" xlink:href="#DejaVuSans-49"/>
    <use x="1582.083984" xlink:href="#DejaVuSans-58"/>
    <use x="1615.775391" xlink:href="#DejaVuSans-51"/>
    <use x="1679.398438" xlink:href="#DejaVuSans-56"/>
    <use x="1743.021484" xlink:href="#DejaVuSans-46"/>
   </g>
  </g>
  <g id="text_17">
   <!-- https://realrolfje.github.io/coronadata/ -->
   <g style="fill:#808080;" transform="translate(560.24375 356.4)scale(0.08 -0.08)">
    <defs>
     <path d="M 25.390625 72.90625 
L 33.6875 72.90625 
L 8.296875 -9.28125 
L 0 -9.28125 
z
" id="DejaVuSans-47"/>
     <path d="M 37.109375 75.984375 
L 37.109375 68.5 
L 28.515625 68.5 
Q 23.6875 68.5 21.796875 66.546875 
Q 19.921875 64.59375 19.921875 59.515625 
L 19.921875 54.6875 
L 34.71875 54.6875 
L 34.71875 47.703125 
L 19.921875 47.703125 
L 19.921875 0 
L 10.890625 0 
L 10.890625 47.703125 
L 2.296875 47.703125 
L 2.296875 54.6875 
L 10.890625 54.6875 
L 10.890625 58.5 
Q 10.890625 67.625 15.140625 71.796875 
Q 19.390625 75.984375 28.609375 75.984375 
z
" id="DejaVuSans-102"/>
     <path d="M 9.421875 54.6875 
L 18.40625 54.6875 
L 18.40625 -0.984375 
Q 18.40625 -11.421875 14.421875 -16.109375 
Q 10.453125 -20.796875 1.609375 -20.796875 
L -1.8125 -20.796875 
L -1.8125 -13.1875 
L 0.59375 -13.1875 
Q 5.71875 -13.1875 7.5625 -10.8125 
Q 9.421875 -8.453125 9.421875 -0.984375 
z
M 9.421875 75.984375 
L 18.40625 75.984375 
L 18.40625 64.59375 
L 9.421875 64.59375 
z
" id="DejaVuSans-106"/>
     <path d="M 48.6875 27.296875 
Q 48.6875 37.203125 44.609375 42.84375 
Q 40.53125 48.484375 33.40625 48.484375 
Q 26.265625 48.484375 22.1875 42.84375 
Q 18.109375 37.203125 18.109375 27.296875 
Q 18.109375 17.390625 22.1875 11.75 
Q 26.265625 6.109375 33.40625 6.109375 
Q 40.53125 6.109375 44.609375 11.75 
Q 48.6875 17.390625 48.6875 27.296875 
z
M 18.109375 46.390625 
Q 20.953125 51.265625 25.265625 53.625 
Q 29.59375 56 35.59375 56 
Q 45.5625 56 51.78125 48.09375 
Q 58.015625 40.1875 58.015625 27.296875 
Q 58.015625 14.40625 51.78125 6.484375 
Q 45.5625 -1.421875 35.59375 -1.421875 
Q 29.59375 -1.421875 25.265625 0.953125 
Q 20.953125 3.328125 18.109375 8.203125 
L 18.109375 0 
L 9.078125 0 
L 9.078125 75.984375 
L 18.109375 75.984375 
z
" id="DejaVuSans-98"/>
     <path d="M 48.78125 52.59375 
L 48.78125 44.1875 
Q 44.96875 46.296875 41.140625 47.34375 
Q 37.3125 48.390625 33.40625 48.390625 
Q 24.65625 48.390625 19.8125 42.84375 
Q 14.984375 37.3125 14.984375 27.296875 
Q 14.984375 17.28125 19.8125 11.734375 
Q 24.65625 6.203125 33.40625 6.203125 
Q 37.3125 6.203125 41.140625 7.25 
Q 44.96875 8.296875 48.78125 10.40625 
L 48.78125 2.09375 
Q 45.015625 0.34375 40.984375 -0.53125 
Q 36.96875 -1.421875 32.421875 -1.421875 
Q 20.0625 -1.421875 12.78125 6.34375 
Q 5.515625 14.109375 5.515625 27.296875 
Q 5.515625 40.671875 12.859375 48.328125 
Q 20.21875 56 33.015625 56 
Q 37.15625 56 41.109375 55.140625 
Q 45.0625 54.296875 48.78125 52.59375 
z
" id="DejaVuSans-99"/>
    </defs>
    <use xlink:href="#DejaVuSans-104"/>
    <use x="63.378906" xlink:href="#DejaVuSans-116"/>
    <use x="102.587891" xlink:href="#DejaVuSans-116"/>
    <use x="141.796875" xlink:href="#DejaVuSans-112"/>
    <use x="205.273438" xlink:href="#DejaVuSans-115"/>
    <use x="257.373047" xlink:href="#DejaVuSans-58"/>
    <use x="291.064453" xlink:href="#DejaVuSans-47"/>
    <use x="324.755859" xlink:href="#DejaVuSans-47"/>
    <use x="358.447266" xlink:href="#DejaVuSans-114"/>
    <use x="397.310547" xlink:href="#DejaVuSans-101"/>
    <use x="458.833984" xlink:href="#DejaVuSans-97"/>
    <use x="520.113281" xlink:href="#DejaVuSans-108"/>
    <use x="547.896484" xlink:href="#DejaVuSans-114"/>
    <use x="586.759766" xlink:href="#DejaVuSans-111"/>
    <use x="647.941406" xlink:href="#DejaVuSans-108"/>
    <use x="675.724609" xlink:href="#DejaVuSans-102"/>
    <use x="710.929688" xlink:href="#DejaVuSans-106"/>
    <use x="738.712891" xlink:href="#DejaVuSans-101"/>
    <use x="800.236328" xlink:href="#DejaVuSans-46"/>
    <use x="832.023438" xlink:href="#DejaVuSans-103"/>
    <use x="895.5" xlink:href="#DejaVuSans-105"/>
    <use x="923.283203" xlink:href="#DejaVuSans-116"/>
    <use x="962.492188" xlink:href="#DejaVuSans-104"/>
    <use x="1025.871094" xlink:href="#DejaVuSans-117"/>
    <use x="1089.25" xlink:href="#DejaVuSans-98"/>
    <use x="1152.726562" xlink:href="#DejaVuSans-46"/>
    <use x="1184.513672" xlink:href="#DejaVuSans-105"/>
    <use x="1212.296875" xlink:href="#DejaVuSans-111"/>
    <use x="1273.478516" xlink:href="#DejaVuSans-47"/>
    <use x="1307.169922" xlink:href="#DejaVuSans-99"/>
    <use x="1362.150391" xlink:href="#DejaVuSans-111"/>
    <use x="1423.332031" xlink:href="#DejaVuSans-114"/>
    <use x="1462.195312" xlink:href="#DejaVuSans-111"/>
    <use x="1523.376953" xlink:href="#DejaVuSans-110"/>
    <use x="1586.755859" xlink:href="#DejaVuSans-97"/>
    <use x="1648.035156" xlink:href="#DejaVuSans-100"/>
    <use x="1711.511719" xlink:href="#DejaVuSans-97"/>
    <use x="1772.791016" xlink:href="#DejaVuSans-116"/>
    <use x="1812" xlink:href="#DejaVuSans-97"/>
    <use x="1873.279297" xlink:href="#DejaVuSans-47"/>
   </g>
  </g>
 </g>
 <defs>
  <clipPath id="pbcf8c111dc">
   <rect height="284.4" width="590.4" x="64.8" y="28.8"/>
  </clipPath>
 </defs>
</svg>
