<?xml version="1.0" encoding="utf-8" standalone="no"?>
<!DOCTYPE svg PUBLIC "-//W3C//DTD SVG 1.1//EN"
  "http://www.w3.org/Graphics/SVG/1.1/DTD/svg11.dtd">
<!-- Created with matplotlib (https://matplotlib.org/) -->
<svg height="360pt" version="1.1" viewBox="0 0 720 360" width="720pt" xmlns="http://www.w3.org/2000/svg" xmlns:xlink="http://www.w3.org/1999/xlink">
 <metadata>
  <rdf:RDF xmlns:cc="http://creativecommons.org/ns#" xmlns:dc="http://purl.org/dc/elements/1.1/" xmlns:rdf="http://www.w3.org/1999/02/22-rdf-syntax-ns#">
   <cc:Work>
    <dc:type rdf:resource="http://purl.org/dc/dcmitype/StillImage"/>
    <dc:date>2021-09-13T23:41:26.601240</dc:date>
    <dc:format>image/svg+xml</dc:format>
    <dc:creator>
     <cc:Agent>
      <dc:title>Matplotlib v3.3.2, https://matplotlib.org/</dc:title>
     </cc:Agent>
    </dc:creator>
   </cc:Work>
  </rdf:RDF>
 </metadata>
 <defs>
  <style type="text/css">*{stroke-linecap:butt;stroke-linejoin:round;}</style>
 </defs>
 <g id="figure_1">
  <g id="patch_1">
   <path d="M 0 360 
L 720 360 
L 720 0 
L 0 0 
z
" style="fill:#ffffff;"/>
  </g>
  <g id="axes_1">
   <g id="patch_2">
    <path d="M 64.8 313.2 
L 655.2 313.2 
L 655.2 28.8 
L 64.8 28.8 
z
" style="fill:#ffffff;"/>
   </g>
   <g id="PolyCollection_1">
    <path clip-path="url(#p36573b96ec)" d="M 91.636364 300.272727 
L 91.636364 300.272727 
L 93.443526 300.272727 
L 95.250689 300.272727 
L 97.057851 300.272727 
L 98.865014 300.272727 
L 100.672176 300.272727 
L 106.093664 300.272727 
L 107.900826 300.272727 
L 109.707989 300.272727 
L 111.515152 300.272727 
L 113.322314 300.272727 
L 115.129477 300.272727 
L 116.936639 300.272727 
L 118.743802 300.272727 
L 120.550964 300.272727 
L 122.358127 300.272727 
L 124.165289 300.272727 
L 125.972452 300.272727 
L 127.779614 300.272727 
L 129.586777 300.272727 
L 131.393939 300.272727 
L 133.201102 300.272727 
L 135.008264 300.272727 
L 136.815427 300.272727 
L 138.62259 300.272727 
L 140.429752 300.272727 
L 142.236915 300.272727 
L 144.044077 300.272727 
L 145.85124 300.272727 
L 147.658402 300.272727 
L 149.465565 300.272727 
L 151.272727 300.272727 
L 153.07989 300.272727 
L 154.887052 300.272727 
L 156.694215 300.272727 
L 158.501377 300.272727 
L 160.30854 300.272727 
L 162.115702 300.272727 
L 163.922865 300.272727 
L 165.730028 300.272727 
L 167.53719 300.272727 
L 169.344353 300.272727 
L 171.151515 300.272727 
L 172.958678 300.272727 
L 174.76584 300.272727 
L 176.573003 300.272727 
L 178.380165 300.272727 
L 180.187328 300.272727 
L 181.99449 300.272727 
L 183.801653 300.272727 
L 185.608815 300.272727 
L 187.415978 300.272727 
L 189.22314 300.272727 
L 191.030303 300.272727 
L 192.837466 300.272727 
L 194.644628 300.272727 
L 196.451791 300.272727 
L 198.258953 300.272727 
L 200.066116 300.272727 
L 201.873278 300.272727 
L 203.680441 300.272727 
L 205.487603 300.272727 
L 207.294766 300.272727 
L 209.101928 300.272727 
L 210.909091 300.272727 
L 212.716253 300.272727 
L 214.523416 300.272727 
L 216.330579 300.272727 
L 218.137741 300.272727 
L 219.944904 300.272727 
L 221.752066 300.272727 
L 223.559229 300.272727 
L 225.366391 300.272727 
L 227.173554 300.272727 
L 228.980716 300.272727 
L 230.787879 300.272727 
L 232.595041 300.272727 
L 234.402204 300.272727 
L 236.209366 300.272727 
L 238.016529 300.272727 
L 239.823691 300.272727 
L 241.630854 300.272727 
L 243.438017 300.272727 
L 245.245179 300.272727 
L 247.052342 300.272727 
L 248.859504 300.272727 
L 250.666667 300.272727 
L 252.473829 300.272727 
L 254.280992 300.272727 
L 256.088154 300.272727 
L 257.895317 300.272727 
L 259.702479 300.272727 
L 261.509642 300.272727 
L 263.316804 300.272727 
L 265.123967 300.272727 
L 266.931129 300.272727 
L 268.738292 300.272727 
L 270.545455 300.272727 
L 272.352617 300.272727 
L 274.15978 300.272727 
L 275.966942 300.272727 
L 277.774105 300.272727 
L 279.581267 300.272727 
L 281.38843 300.272727 
L 283.195592 300.272727 
L 285.002755 300.272727 
L 286.809917 300.272727 
L 288.61708 300.272727 
L 290.424242 300.272727 
L 292.231405 300.272727 
L 294.038567 300.272727 
L 295.84573 300.272727 
L 297.652893 300.272727 
L 299.460055 300.272727 
L 301.267218 300.272727 
L 303.07438 300.272727 
L 304.881543 300.272727 
L 308.495868 300.272727 
L 310.30303 300.272727 
L 312.110193 300.272727 
L 313.917355 300.272727 
L 315.724518 300.272727 
L 317.53168 300.272727 
L 319.338843 300.272727 
L 321.146006 300.272727 
L 322.953168 300.272727 
L 324.760331 300.272727 
L 326.567493 300.272727 
L 328.374656 300.272727 
L 330.181818 300.272727 
L 331.988981 300.272727 
L 333.796143 300.272727 
L 335.603306 300.272727 
L 337.410468 300.272727 
L 339.217631 300.272727 
L 341.024793 300.272727 
L 342.831956 300.272727 
L 344.639118 300.272727 
L 346.446281 300.272727 
L 348.253444 300.272727 
L 350.060606 300.272727 
L 351.867769 300.272727 
L 353.674931 300.272727 
L 355.482094 300.272727 
L 357.289256 300.272727 
L 359.096419 300.272727 
L 360.903581 300.272727 
L 362.710744 300.272727 
L 364.517906 300.272727 
L 366.325069 300.272727 
L 368.132231 300.272727 
L 369.939394 300.272727 
L 371.746556 300.272727 
L 373.553719 300.272727 
L 375.360882 300.272727 
L 377.168044 300.272727 
L 378.975207 300.272727 
L 380.782369 300.272727 
L 382.589532 300.272727 
L 384.396694 300.272727 
L 386.203857 300.272727 
L 388.011019 300.272727 
L 389.818182 300.272727 
L 391.625344 300.272727 
L 393.432507 300.272727 
L 395.239669 300.272727 
L 397.046832 300.272727 
L 398.853994 300.272727 
L 400.661157 300.272727 
L 402.46832 300.272727 
L 404.275482 300.272727 
L 406.082645 300.272727 
L 407.889807 300.272727 
L 409.69697 300.272727 
L 411.504132 300.272727 
L 413.311295 300.272727 
L 415.118457 300.272727 
L 416.92562 300.272727 
L 418.732782 300.272727 
L 420.539945 300.272727 
L 422.347107 300.272727 
L 424.15427 300.272727 
L 425.961433 300.272727 
L 427.768595 300.272727 
L 429.575758 300.272727 
L 431.38292 300.272727 
L 433.190083 300.272727 
L 434.997245 300.272727 
L 436.804408 300.272727 
L 438.61157 300.272727 
L 440.418733 300.272727 
L 442.225895 300.272727 
L 444.033058 300.272727 
L 445.84022 300.272727 
L 447.647383 300.272727 
L 449.454545 300.272727 
L 451.261708 300.272727 
L 453.068871 300.272727 
L 454.876033 300.272727 
L 456.683196 300.272727 
L 458.490358 300.272727 
L 460.297521 300.272727 
L 462.104683 300.272727 
L 463.911846 300.272727 
L 465.719008 300.272727 
L 469.333333 300.272727 
L 471.140496 300.272727 
L 472.947658 300.272727 
L 474.754821 300.272727 
L 476.561983 300.272727 
L 478.369146 300.272727 
L 480.176309 300.272727 
L 481.983471 300.272727 
L 483.790634 300.272727 
L 485.597796 300.272727 
L 487.404959 300.272727 
L 489.212121 300.272727 
L 491.019284 300.272727 
L 492.826446 300.272727 
L 494.633609 300.272727 
L 496.440771 300.272727 
L 498.247934 300.272727 
L 500.055096 300.272727 
L 501.862259 300.272727 
L 503.669421 300.272727 
L 505.476584 300.272727 
L 507.283747 300.272727 
L 509.090909 300.272727 
L 510.898072 300.272727 
L 512.705234 300.272727 
L 514.512397 300.272727 
L 516.319559 300.272727 
L 518.126722 300.272727 
L 519.933884 300.272727 
L 521.741047 300.272727 
L 523.548209 300.272727 
L 525.355372 300.272727 
L 527.162534 300.272727 
L 528.969697 300.272727 
L 530.77686 300.272727 
L 532.584022 300.272727 
L 534.391185 300.272727 
L 536.198347 300.272727 
L 538.00551 300.272727 
L 539.812672 300.272727 
L 541.619835 300.272727 
L 543.426997 300.272727 
L 545.23416 300.272727 
L 547.041322 300.272727 
L 548.848485 300.272727 
L 550.655647 300.272727 
L 552.46281 300.272727 
L 554.269972 300.272727 
L 556.077135 300.272727 
L 557.884298 300.272727 
L 559.69146 300.272727 
L 561.498623 300.272727 
L 563.305785 300.272727 
L 565.112948 300.272727 
L 566.92011 300.272727 
L 568.727273 300.272727 
L 570.534435 300.272727 
L 572.341598 300.272727 
L 574.14876 300.272727 
L 575.955923 300.272727 
L 577.763085 300.272727 
L 579.570248 300.272727 
L 581.37741 300.272727 
L 583.184573 300.272727 
L 584.991736 300.272727 
L 586.798898 300.272727 
L 588.606061 300.272727 
L 590.413223 300.272727 
L 592.220386 300.272727 
L 594.027548 300.272727 
L 595.834711 300.272727 
L 597.641873 300.272727 
L 599.449036 300.272727 
L 601.256198 300.272727 
L 603.063361 300.272727 
L 604.870523 300.272727 
L 606.677686 300.272727 
L 608.484848 300.272727 
L 610.292011 300.272727 
L 612.099174 300.272727 
L 613.906336 300.272727 
L 615.713499 300.272727 
L 617.520661 300.272727 
L 619.327824 300.272727 
L 621.134986 300.272727 
L 622.942149 300.272727 
L 624.749311 300.272727 
L 626.556474 300.272727 
L 628.363636 300.272727 
L 628.363636 300.272727 
L 628.363636 271.895787 
L 626.556474 276.625277 
L 624.749311 276.099778 
L 622.942149 253.503326 
L 621.134986 275.574279 
L 619.327824 287.135255 
L 617.520661 265.5898 
L 615.713499 268.217295 
L 613.906336 213.039911 
L 612.099174 143.674058 
L 610.292011 189.392461 
L 608.484848 180.45898 
L 606.677686 292.915743 
L 604.870523 268.742794 
L 603.063361 268.217295 
L 601.256198 291.339246 
L 599.449036 291.339246 
L 597.641873 286.084257 
L 595.834711 270.31929 
L 594.027548 259.283814 
L 592.220386 261.385809 
L 590.413223 291.339246 
L 588.606061 291.864745 
L 586.798898 285.033259 
L 584.991736 251.926829 
L 583.184573 290.813747 
L 581.37741 287.660754 
L 579.570248 241.416851 
L 577.763085 261.385809 
L 575.955923 279.778271 
L 574.14876 284.507761 
L 572.341598 280.829268 
L 570.534435 267.691796 
L 568.727273 287.660754 
L 566.92011 271.895787 
L 565.112948 278.727273 
L 563.305785 285.033259 
L 561.498623 285.558758 
L 559.69146 284.507761 
L 557.884298 281.880266 
L 556.077135 222.498891 
L 554.269972 258.232816 
L 552.46281 262.436807 
L 550.655647 282.931264 
L 548.848485 278.201774 
L 547.041322 267.691796 
L 545.23416 279.778271 
L 543.426997 242.993348 
L 541.619835 264.013304 
L 539.812672 277.676275 
L 538.00551 267.166297 
L 536.198347 275.574279 
L 534.391185 280.303769 
L 532.584022 207.784922 
L 530.77686 270.31929 
L 528.969697 278.201774 
L 527.162534 272.421286 
L 525.355372 273.997783 
L 523.548209 268.742794 
L 521.741047 265.5898 
L 519.933884 250.875831 
L 518.126722 224.600887 
L 516.319559 224.600887 
L 514.512397 235.110865 
L 512.705234 276.099778 
L 510.898072 270.31929 
L 509.090909 234.059867 
L 507.283747 186.764967 
L 505.476584 176.780488 
L 503.669421 226.702882 
L 501.862259 267.166297 
L 500.055096 270.844789 
L 498.247934 285.558758 
L 496.440771 229.330377 
L 494.633609 279.778271 
L 492.826446 279.252772 
L 491.019284 252.977827 
L 489.212121 269.793792 
L 487.404959 196.749446 
L 485.597796 222.498891 
L 483.790634 209.361419 
L 481.983471 235.636364 
L 480.176309 254.554324 
L 478.369146 267.691796 
L 476.561983 267.166297 
L 474.754821 277.676275 
L 472.947658 276.099778 
L 471.140496 244.044346 
L 469.333333 195.172949 
L 465.719008 277.150776 
L 463.911846 264.538803 
L 462.104683 247.722838 
L 460.297521 240.891353 
L 458.490358 261.911308 
L 456.683196 268.217295 
L 454.876033 242.467849 
L 453.068871 268.217295 
L 451.261708 247.197339 
L 449.454545 251.926829 
L 447.647383 230.906874 
L 445.84022 233.008869 
L 444.033058 246.67184 
L 442.225895 239.840355 
L 440.418733 203.055432 
L 438.61157 83.241685 
L 436.804408 167.321508 
L 434.997245 166.796009 
L 433.190083 161.54102 
L 431.38292 150.505543 
L 429.575758 260.86031 
L 427.768595 213.56541 
L 425.961433 257.181818 
L 424.15427 272.421286 
L 422.347107 269.268293 
L 420.539945 276.625277 
L 418.732782 268.217295 
L 416.92562 280.829268 
L 415.118457 237.21286 
L 413.311295 267.691796 
L 411.504132 270.31929 
L 409.69697 283.982262 
L 407.889807 227.228381 
L 406.082645 211.988914 
L 404.275482 266.640798 
L 402.46832 191.494457 
L 400.661157 197.800443 
L 398.853994 184.137472 
L 397.046832 199.902439 
L 395.239669 214.090909 
L 393.432507 199.37694 
L 391.625344 157.337029 
L 389.818182 220.396896 
L 388.011019 256.656319 
L 386.203857 280.303769 
L 384.396694 261.911308 
L 382.589532 277.676275 
L 380.782369 262.436807 
L 378.975207 276.625277 
L 377.168044 277.150776 
L 375.360882 267.166297 
L 373.553719 265.5898 
L 371.746556 269.268293 
L 369.939394 239.840355 
L 368.132231 261.385809 
L 366.325069 261.911308 
L 364.517906 255.605322 
L 362.710744 275.04878 
L 360.903581 279.778271 
L 359.096419 265.5898 
L 357.289256 235.110865 
L 355.482094 190.968958 
L 353.674931 242.993348 
L 351.867769 178.356984 
L 350.060606 180.45898 
L 348.253444 269.793792 
L 346.446281 287.135255 
L 344.639118 142.097561 
L 342.831956 124.230599 
L 341.024793 223.02439 
L 339.217631 249.299335 
L 337.410468 277.676275 
L 335.603306 287.660754 
L 333.796143 279.778271 
L 331.988981 202.529933 
L 330.181818 277.150776 
L 328.374656 257.181818 
L 326.567493 265.064302 
L 324.760331 282.931264 
L 322.953168 279.778271 
L 321.146006 278.201774 
L 319.338843 258.758315 
L 317.53168 241.94235 
L 315.724518 285.033259 
L 313.917355 285.558758 
L 312.110193 255.605322 
L 310.30303 192.545455 
L 308.495868 209.361419 
L 304.881543 268.742794 
L 303.07438 237.21286 
L 301.267218 224.075388 
L 299.460055 282.931264 
L 297.652893 271.370288 
L 295.84573 287.135255 
L 294.038567 253.503326 
L 292.231405 292.390244 
L 290.424242 285.558758 
L 288.61708 280.303769 
L 286.809917 282.405765 
L 285.002755 286.084257 
L 283.195592 272.421286 
L 281.38843 282.405765 
L 279.581267 277.676275 
L 277.774105 256.13082 
L 275.966942 286.084257 
L 274.15978 279.252772 
L 272.352617 236.687361 
L 270.545455 232.48337 
L 268.738292 286.609756 
L 266.931129 255.605322 
L 265.123967 254.028825 
L 263.316804 234.585366 
L 261.509642 255.079823 
L 259.702479 282.931264 
L 257.895317 286.084257 
L 256.088154 286.609756 
L 254.280992 266.640798 
L 252.473829 288.186253 
L 250.666667 194.121951 
L 248.859504 41.727273 
L 247.052342 128.43459 
L 245.245179 74.308204 
L 243.438017 84.818182 
L 241.630854 160.490022 
L 239.823691 115.822616 
L 238.016529 244.044346 
L 236.209366 271.895787 
L 234.402204 293.441242 
L 232.595041 229.330377 
L 230.787879 192.019956 
L 228.980716 189.392461 
L 227.173554 194.121951 
L 225.366391 185.713969 
L 223.559229 210.937916 
L 221.752066 211.463415 
L 219.944904 210.937916 
L 218.137741 240.891353 
L 216.330579 288.186253 
L 214.523416 279.252772 
L 212.716253 286.084257 
L 210.909091 276.625277 
L 209.101928 270.844789 
L 207.294766 269.268293 
L 205.487603 250.350333 
L 203.680441 282.405765 
L 201.873278 280.829268 
L 200.066116 255.079823 
L 198.258953 271.370288 
L 196.451791 257.181818 
L 194.644628 242.993348 
L 192.837466 269.793792 
L 191.030303 236.161863 
L 189.22314 261.911308 
L 187.415978 159.439024 
L 185.608815 96.379157 
L 183.801653 186.764967 
L 181.99449 187.290466 
L 180.187328 190.968958 
L 178.380165 196.223947 
L 176.573003 166.27051 
L 174.76584 190.968958 
L 172.958678 169.423503 
L 171.151515 183.086475 
L 169.344353 182.560976 
L 167.53719 192.545455 
L 165.730028 182.560976 
L 163.922865 228.804878 
L 162.115702 278.201774 
L 160.30854 194.121951 
L 158.501377 189.91796 
L 156.694215 177.831486 
L 154.887052 179.407982 
L 153.07989 203.055432 
L 151.272727 204.631929 
L 149.465565 128.960089 
L 147.658402 155.235033 
L 145.85124 66.95122 
L 144.044077 100.583149 
L 142.236915 119.501109 
L 140.429752 143.674058 
L 138.62259 203.055432 
L 136.815427 200.953437 
L 135.008264 209.886918 
L 133.201102 265.064302 
L 131.393939 283.982262 
L 129.586777 283.456763 
L 127.779614 188.866962 
L 125.972452 115.822616 
L 124.165289 139.995565 
L 122.358127 140.521064 
L 120.550964 197.274945 
L 118.743802 205.157428 
L 116.936639 204.631929 
L 115.129477 140.521064 
L 113.322314 208.310421 
L 111.515152 265.5898 
L 109.707989 238.263858 
L 107.900826 255.605322 
L 106.093664 285.558758 
L 100.672176 284.507761 
L 98.865014 197.274945 
L 97.057851 228.804878 
L 95.250689 262.962306 
L 93.443526 280.303769 
L 91.636364 275.04878 
z
" style="fill:#ffa07a;fill-opacity:0.3;"/>
   </g>
   <g id="matplotlib.axis_1">
    <g id="xtick_1">
     <g id="line2d_1">
      <path clip-path="url(#p36573b96ec)" d="M 91.636364 313.2 
L 91.636364 28.8 
" style="fill:none;stroke:#808080;stroke-dasharray:6.4,1.6,1,1.6;stroke-dashoffset:0;stroke-opacity:0.3;"/>
     </g>
     <g id="line2d_2">
      <defs>
       <path d="M 0 0 
L 0 3.5 
" id="mac46765d3f" style="stroke:#000000;stroke-width:0.8;"/>
      </defs>
      <g>
       <use style="stroke:#000000;stroke-width:0.8;" x="91.636364" xlink:href="#mac46765d3f" y="313.2"/>
      </g>
     </g>
     <g id="text_1">
      <!-- 2020-11-20 -->
      <g transform="translate(62.578551 327.798437)scale(0.1 -0.1)">
       <defs>
        <path d="M 19.1875 8.296875 
L 53.609375 8.296875 
L 53.609375 0 
L 7.328125 0 
L 7.328125 8.296875 
Q 12.9375 14.109375 22.625 23.890625 
Q 32.328125 33.6875 34.8125 36.53125 
Q 39.546875 41.84375 41.421875 45.53125 
Q 43.3125 49.21875 43.3125 52.78125 
Q 43.3125 58.59375 39.234375 62.25 
Q 35.15625 65.921875 28.609375 65.921875 
Q 23.96875 65.921875 18.8125 64.3125 
Q 13.671875 62.703125 7.8125 59.421875 
L 7.8125 69.390625 
Q 13.765625 71.78125 18.9375 73 
Q 24.125 74.21875 28.421875 74.21875 
Q 39.75 74.21875 46.484375 68.546875 
Q 53.21875 62.890625 53.21875 53.421875 
Q 53.21875 48.921875 51.53125 44.890625 
Q 49.859375 40.875 45.40625 35.40625 
Q 44.1875 33.984375 37.640625 27.21875 
Q 31.109375 20.453125 19.1875 8.296875 
z
" id="DejaVuSans-50"/>
        <path d="M 31.78125 66.40625 
Q 24.171875 66.40625 20.328125 58.90625 
Q 16.5 51.421875 16.5 36.375 
Q 16.5 21.390625 20.328125 13.890625 
Q 24.171875 6.390625 31.78125 6.390625 
Q 39.453125 6.390625 43.28125 13.890625 
Q 47.125 21.390625 47.125 36.375 
Q 47.125 51.421875 43.28125 58.90625 
Q 39.453125 66.40625 31.78125 66.40625 
z
M 31.78125 74.21875 
Q 44.046875 74.21875 50.515625 64.515625 
Q 56.984375 54.828125 56.984375 36.375 
Q 56.984375 17.96875 50.515625 8.265625 
Q 44.046875 -1.421875 31.78125 -1.421875 
Q 19.53125 -1.421875 13.0625 8.265625 
Q 6.59375 17.96875 6.59375 36.375 
Q 6.59375 54.828125 13.0625 64.515625 
Q 19.53125 74.21875 31.78125 74.21875 
z
" id="DejaVuSans-48"/>
        <path d="M 4.890625 31.390625 
L 31.203125 31.390625 
L 31.203125 23.390625 
L 4.890625 23.390625 
z
" id="DejaVuSans-45"/>
        <path d="M 12.40625 8.296875 
L 28.515625 8.296875 
L 28.515625 63.921875 
L 10.984375 60.40625 
L 10.984375 69.390625 
L 28.421875 72.90625 
L 38.28125 72.90625 
L 38.28125 8.296875 
L 54.390625 8.296875 
L 54.390625 0 
L 12.40625 0 
z
" id="DejaVuSans-49"/>
       </defs>
       <use xlink:href="#DejaVuSans-50"/>
       <use x="63.623047" xlink:href="#DejaVuSans-48"/>
       <use x="127.246094" xlink:href="#DejaVuSans-50"/>
       <use x="190.869141" xlink:href="#DejaVuSans-48"/>
       <use x="254.492188" xlink:href="#DejaVuSans-45"/>
       <use x="290.576172" xlink:href="#DejaVuSans-49"/>
       <use x="354.199219" xlink:href="#DejaVuSans-49"/>
       <use x="417.822266" xlink:href="#DejaVuSans-45"/>
       <use x="453.90625" xlink:href="#DejaVuSans-50"/>
       <use x="517.529297" xlink:href="#DejaVuSans-48"/>
      </g>
     </g>
    </g>
    <g id="xtick_2">
     <g id="line2d_3">
      <path clip-path="url(#p36573b96ec)" d="M 167.53719 313.2 
L 167.53719 28.8 
" style="fill:none;stroke:#808080;stroke-dasharray:6.4,1.6,1,1.6;stroke-dashoffset:0;stroke-opacity:0.3;"/>
     </g>
     <g id="line2d_4">
      <g>
       <use style="stroke:#000000;stroke-width:0.8;" x="167.53719" xlink:href="#mac46765d3f" y="313.2"/>
      </g>
     </g>
     <g id="text_2">
      <!-- 2021-01-01 -->
      <g transform="translate(138.479378 327.798437)scale(0.1 -0.1)">
       <use xlink:href="#DejaVuSans-50"/>
       <use x="63.623047" xlink:href="#DejaVuSans-48"/>
       <use x="127.246094" xlink:href="#DejaVuSans-50"/>
       <use x="190.869141" xlink:href="#DejaVuSans-49"/>
       <use x="254.492188" xlink:href="#DejaVuSans-45"/>
       <use x="290.576172" xlink:href="#DejaVuSans-48"/>
       <use x="354.199219" xlink:href="#DejaVuSans-49"/>
       <use x="417.822266" xlink:href="#DejaVuSans-45"/>
       <use x="453.90625" xlink:href="#DejaVuSans-48"/>
       <use x="517.529297" xlink:href="#DejaVuSans-49"/>
      </g>
     </g>
    </g>
    <g id="xtick_3">
     <g id="line2d_5">
      <path clip-path="url(#p36573b96ec)" d="M 243.438017 313.2 
L 243.438017 28.8 
" style="fill:none;stroke:#808080;stroke-dasharray:6.4,1.6,1,1.6;stroke-dashoffset:0;stroke-opacity:0.3;"/>
     </g>
     <g id="line2d_6">
      <g>
       <use style="stroke:#000000;stroke-width:0.8;" x="243.438017" xlink:href="#mac46765d3f" y="313.2"/>
      </g>
     </g>
     <g id="text_3">
      <!-- 2021-02-12 -->
      <g transform="translate(214.380204 327.798437)scale(0.1 -0.1)">
       <use xlink:href="#DejaVuSans-50"/>
       <use x="63.623047" xlink:href="#DejaVuSans-48"/>
       <use x="127.246094" xlink:href="#DejaVuSans-50"/>
       <use x="190.869141" xlink:href="#DejaVuSans-49"/>
       <use x="254.492188" xlink:href="#DejaVuSans-45"/>
       <use x="290.576172" xlink:href="#DejaVuSans-48"/>
       <use x="354.199219" xlink:href="#DejaVuSans-50"/>
       <use x="417.822266" xlink:href="#DejaVuSans-45"/>
       <use x="453.90625" xlink:href="#DejaVuSans-49"/>
       <use x="517.529297" xlink:href="#DejaVuSans-50"/>
      </g>
     </g>
    </g>
    <g id="xtick_4">
     <g id="line2d_7">
      <path clip-path="url(#p36573b96ec)" d="M 321.146006 313.2 
L 321.146006 28.8 
" style="fill:none;stroke:#808080;stroke-dasharray:6.4,1.6,1,1.6;stroke-dashoffset:0;stroke-opacity:0.3;"/>
     </g>
     <g id="line2d_8">
      <g>
       <use style="stroke:#000000;stroke-width:0.8;" x="321.146006" xlink:href="#mac46765d3f" y="313.2"/>
      </g>
     </g>
     <g id="text_4">
      <!-- 2021-03-27 -->
      <g transform="translate(292.088193 327.798437)scale(0.1 -0.1)">
       <defs>
        <path d="M 40.578125 39.3125 
Q 47.65625 37.796875 51.625 33 
Q 55.609375 28.21875 55.609375 21.1875 
Q 55.609375 10.40625 48.1875 4.484375 
Q 40.765625 -1.421875 27.09375 -1.421875 
Q 22.515625 -1.421875 17.65625 -0.515625 
Q 12.796875 0.390625 7.625 2.203125 
L 7.625 11.71875 
Q 11.71875 9.328125 16.59375 8.109375 
Q 21.484375 6.890625 26.8125 6.890625 
Q 36.078125 6.890625 40.9375 10.546875 
Q 45.796875 14.203125 45.796875 21.1875 
Q 45.796875 27.640625 41.28125 31.265625 
Q 36.765625 34.90625 28.71875 34.90625 
L 20.21875 34.90625 
L 20.21875 43.015625 
L 29.109375 43.015625 
Q 36.375 43.015625 40.234375 45.921875 
Q 44.09375 48.828125 44.09375 54.296875 
Q 44.09375 59.90625 40.109375 62.90625 
Q 36.140625 65.921875 28.71875 65.921875 
Q 24.65625 65.921875 20.015625 65.03125 
Q 15.375 64.15625 9.8125 62.3125 
L 9.8125 71.09375 
Q 15.4375 72.65625 20.34375 73.4375 
Q 25.25 74.21875 29.59375 74.21875 
Q 40.828125 74.21875 47.359375 69.109375 
Q 53.90625 64.015625 53.90625 55.328125 
Q 53.90625 49.265625 50.4375 45.09375 
Q 46.96875 40.921875 40.578125 39.3125 
z
" id="DejaVuSans-51"/>
        <path d="M 8.203125 72.90625 
L 55.078125 72.90625 
L 55.078125 68.703125 
L 28.609375 0 
L 18.3125 0 
L 43.21875 64.59375 
L 8.203125 64.59375 
z
" id="DejaVuSans-55"/>
       </defs>
       <use xlink:href="#DejaVuSans-50"/>
       <use x="63.623047" xlink:href="#DejaVuSans-48"/>
       <use x="127.246094" xlink:href="#DejaVuSans-50"/>
       <use x="190.869141" xlink:href="#DejaVuSans-49"/>
       <use x="254.492188" xlink:href="#DejaVuSans-45"/>
       <use x="290.576172" xlink:href="#DejaVuSans-48"/>
       <use x="354.199219" xlink:href="#DejaVuSans-51"/>
       <use x="417.822266" xlink:href="#DejaVuSans-45"/>
       <use x="453.90625" xlink:href="#DejaVuSans-50"/>
       <use x="517.529297" xlink:href="#DejaVuSans-55"/>
      </g>
     </g>
    </g>
    <g id="xtick_5">
     <g id="line2d_9">
      <path clip-path="url(#p36573b96ec)" d="M 397.046832 313.2 
L 397.046832 28.8 
" style="fill:none;stroke:#808080;stroke-dasharray:6.4,1.6,1,1.6;stroke-dashoffset:0;stroke-opacity:0.3;"/>
     </g>
     <g id="line2d_10">
      <g>
       <use style="stroke:#000000;stroke-width:0.8;" x="397.046832" xlink:href="#mac46765d3f" y="313.2"/>
      </g>
     </g>
     <g id="text_5">
      <!-- 2021-05-08 -->
      <g transform="translate(367.989019 327.798437)scale(0.1 -0.1)">
       <defs>
        <path d="M 10.796875 72.90625 
L 49.515625 72.90625 
L 49.515625 64.59375 
L 19.828125 64.59375 
L 19.828125 46.734375 
Q 21.96875 47.46875 24.109375 47.828125 
Q 26.265625 48.1875 28.421875 48.1875 
Q 40.625 48.1875 47.75 41.5 
Q 54.890625 34.8125 54.890625 23.390625 
Q 54.890625 11.625 47.5625 5.09375 
Q 40.234375 -1.421875 26.90625 -1.421875 
Q 22.3125 -1.421875 17.546875 -0.640625 
Q 12.796875 0.140625 7.71875 1.703125 
L 7.71875 11.625 
Q 12.109375 9.234375 16.796875 8.0625 
Q 21.484375 6.890625 26.703125 6.890625 
Q 35.15625 6.890625 40.078125 11.328125 
Q 45.015625 15.765625 45.015625 23.390625 
Q 45.015625 31 40.078125 35.4375 
Q 35.15625 39.890625 26.703125 39.890625 
Q 22.75 39.890625 18.8125 39.015625 
Q 14.890625 38.140625 10.796875 36.28125 
z
" id="DejaVuSans-53"/>
        <path d="M 31.78125 34.625 
Q 24.75 34.625 20.71875 30.859375 
Q 16.703125 27.09375 16.703125 20.515625 
Q 16.703125 13.921875 20.71875 10.15625 
Q 24.75 6.390625 31.78125 6.390625 
Q 38.8125 6.390625 42.859375 10.171875 
Q 46.921875 13.96875 46.921875 20.515625 
Q 46.921875 27.09375 42.890625 30.859375 
Q 38.875 34.625 31.78125 34.625 
z
M 21.921875 38.8125 
Q 15.578125 40.375 12.03125 44.71875 
Q 8.5 49.078125 8.5 55.328125 
Q 8.5 64.0625 14.71875 69.140625 
Q 20.953125 74.21875 31.78125 74.21875 
Q 42.671875 74.21875 48.875 69.140625 
Q 55.078125 64.0625 55.078125 55.328125 
Q 55.078125 49.078125 51.53125 44.71875 
Q 48 40.375 41.703125 38.8125 
Q 48.828125 37.15625 52.796875 32.3125 
Q 56.78125 27.484375 56.78125 20.515625 
Q 56.78125 9.90625 50.3125 4.234375 
Q 43.84375 -1.421875 31.78125 -1.421875 
Q 19.734375 -1.421875 13.25 4.234375 
Q 6.78125 9.90625 6.78125 20.515625 
Q 6.78125 27.484375 10.78125 32.3125 
Q 14.796875 37.15625 21.921875 38.8125 
z
M 18.3125 54.390625 
Q 18.3125 48.734375 21.84375 45.5625 
Q 25.390625 42.390625 31.78125 42.390625 
Q 38.140625 42.390625 41.71875 45.5625 
Q 45.3125 48.734375 45.3125 54.390625 
Q 45.3125 60.0625 41.71875 63.234375 
Q 38.140625 66.40625 31.78125 66.40625 
Q 25.390625 66.40625 21.84375 63.234375 
Q 18.3125 60.0625 18.3125 54.390625 
z
" id="DejaVuSans-56"/>
       </defs>
       <use xlink:href="#DejaVuSans-50"/>
       <use x="63.623047" xlink:href="#DejaVuSans-48"/>
       <use x="127.246094" xlink:href="#DejaVuSans-50"/>
       <use x="190.869141" xlink:href="#DejaVuSans-49"/>
       <use x="254.492188" xlink:href="#DejaVuSans-45"/>
       <use x="290.576172" xlink:href="#DejaVuSans-48"/>
       <use x="354.199219" xlink:href="#DejaVuSans-53"/>
       <use x="417.822266" xlink:href="#DejaVuSans-45"/>
       <use x="453.90625" xlink:href="#DejaVuSans-48"/>
       <use x="517.529297" xlink:href="#DejaVuSans-56"/>
      </g>
     </g>
    </g>
    <g id="xtick_6">
     <g id="line2d_11">
      <path clip-path="url(#p36573b96ec)" d="M 474.754821 313.2 
L 474.754821 28.8 
" style="fill:none;stroke:#808080;stroke-dasharray:6.4,1.6,1,1.6;stroke-dashoffset:0;stroke-opacity:0.3;"/>
     </g>
     <g id="line2d_12">
      <g>
       <use style="stroke:#000000;stroke-width:0.8;" x="474.754821" xlink:href="#mac46765d3f" y="313.2"/>
      </g>
     </g>
     <g id="text_6">
      <!-- 2021-06-20 -->
      <g transform="translate(445.697008 327.798437)scale(0.1 -0.1)">
       <defs>
        <path d="M 33.015625 40.375 
Q 26.375 40.375 22.484375 35.828125 
Q 18.609375 31.296875 18.609375 23.390625 
Q 18.609375 15.53125 22.484375 10.953125 
Q 26.375 6.390625 33.015625 6.390625 
Q 39.65625 6.390625 43.53125 10.953125 
Q 47.40625 15.53125 47.40625 23.390625 
Q 47.40625 31.296875 43.53125 35.828125 
Q 39.65625 40.375 33.015625 40.375 
z
M 52.59375 71.296875 
L 52.59375 62.3125 
Q 48.875 64.0625 45.09375 64.984375 
Q 41.3125 65.921875 37.59375 65.921875 
Q 27.828125 65.921875 22.671875 59.328125 
Q 17.53125 52.734375 16.796875 39.40625 
Q 19.671875 43.65625 24.015625 45.921875 
Q 28.375 48.1875 33.59375 48.1875 
Q 44.578125 48.1875 50.953125 41.515625 
Q 57.328125 34.859375 57.328125 23.390625 
Q 57.328125 12.15625 50.6875 5.359375 
Q 44.046875 -1.421875 33.015625 -1.421875 
Q 20.359375 -1.421875 13.671875 8.265625 
Q 6.984375 17.96875 6.984375 36.375 
Q 6.984375 53.65625 15.1875 63.9375 
Q 23.390625 74.21875 37.203125 74.21875 
Q 40.921875 74.21875 44.703125 73.484375 
Q 48.484375 72.75 52.59375 71.296875 
z
" id="DejaVuSans-54"/>
       </defs>
       <use xlink:href="#DejaVuSans-50"/>
       <use x="63.623047" xlink:href="#DejaVuSans-48"/>
       <use x="127.246094" xlink:href="#DejaVuSans-50"/>
       <use x="190.869141" xlink:href="#DejaVuSans-49"/>
       <use x="254.492188" xlink:href="#DejaVuSans-45"/>
       <use x="290.576172" xlink:href="#DejaVuSans-48"/>
       <use x="354.199219" xlink:href="#DejaVuSans-54"/>
       <use x="417.822266" xlink:href="#DejaVuSans-45"/>
       <use x="453.90625" xlink:href="#DejaVuSans-50"/>
       <use x="517.529297" xlink:href="#DejaVuSans-48"/>
      </g>
     </g>
    </g>
    <g id="xtick_7">
     <g id="line2d_13">
      <path clip-path="url(#p36573b96ec)" d="M 550.655647 313.2 
L 550.655647 28.8 
" style="fill:none;stroke:#808080;stroke-dasharray:6.4,1.6,1,1.6;stroke-dashoffset:0;stroke-opacity:0.3;"/>
     </g>
     <g id="line2d_14">
      <g>
       <use style="stroke:#000000;stroke-width:0.8;" x="550.655647" xlink:href="#mac46765d3f" y="313.2"/>
      </g>
     </g>
     <g id="text_7">
      <!-- 2021-08-01 -->
      <g transform="translate(521.597835 327.798437)scale(0.1 -0.1)">
       <use xlink:href="#DejaVuSans-50"/>
       <use x="63.623047" xlink:href="#DejaVuSans-48"/>
       <use x="127.246094" xlink:href="#DejaVuSans-50"/>
       <use x="190.869141" xlink:href="#DejaVuSans-49"/>
       <use x="254.492188" xlink:href="#DejaVuSans-45"/>
       <use x="290.576172" xlink:href="#DejaVuSans-48"/>
       <use x="354.199219" xlink:href="#DejaVuSans-56"/>
       <use x="417.822266" xlink:href="#DejaVuSans-45"/>
       <use x="453.90625" xlink:href="#DejaVuSans-48"/>
       <use x="517.529297" xlink:href="#DejaVuSans-49"/>
      </g>
     </g>
    </g>
    <g id="xtick_8">
     <g id="line2d_15">
      <path clip-path="url(#p36573b96ec)" d="M 628.363636 313.2 
L 628.363636 28.8 
" style="fill:none;stroke:#808080;stroke-dasharray:6.4,1.6,1,1.6;stroke-dashoffset:0;stroke-opacity:0.3;"/>
     </g>
     <g id="line2d_16">
      <g>
       <use style="stroke:#000000;stroke-width:0.8;" x="628.363636" xlink:href="#mac46765d3f" y="313.2"/>
      </g>
     </g>
     <g id="text_8">
      <!-- 2021-09-13 -->
      <g transform="translate(599.305824 327.798437)scale(0.1 -0.1)">
       <defs>
        <path d="M 10.984375 1.515625 
L 10.984375 10.5 
Q 14.703125 8.734375 18.5 7.8125 
Q 22.3125 6.890625 25.984375 6.890625 
Q 35.75 6.890625 40.890625 13.453125 
Q 46.046875 20.015625 46.78125 33.40625 
Q 43.953125 29.203125 39.59375 26.953125 
Q 35.25 24.703125 29.984375 24.703125 
Q 19.046875 24.703125 12.671875 31.3125 
Q 6.296875 37.9375 6.296875 49.421875 
Q 6.296875 60.640625 12.9375 67.421875 
Q 19.578125 74.21875 30.609375 74.21875 
Q 43.265625 74.21875 49.921875 64.515625 
Q 56.59375 54.828125 56.59375 36.375 
Q 56.59375 19.140625 48.40625 8.859375 
Q 40.234375 -1.421875 26.421875 -1.421875 
Q 22.703125 -1.421875 18.890625 -0.6875 
Q 15.09375 0.046875 10.984375 1.515625 
z
M 30.609375 32.421875 
Q 37.25 32.421875 41.125 36.953125 
Q 45.015625 41.5 45.015625 49.421875 
Q 45.015625 57.28125 41.125 61.84375 
Q 37.25 66.40625 30.609375 66.40625 
Q 23.96875 66.40625 20.09375 61.84375 
Q 16.21875 57.28125 16.21875 49.421875 
Q 16.21875 41.5 20.09375 36.953125 
Q 23.96875 32.421875 30.609375 32.421875 
z
" id="DejaVuSans-57"/>
       </defs>
       <use xlink:href="#DejaVuSans-50"/>
       <use x="63.623047" xlink:href="#DejaVuSans-48"/>
       <use x="127.246094" xlink:href="#DejaVuSans-50"/>
       <use x="190.869141" xlink:href="#DejaVuSans-49"/>
       <use x="254.492188" xlink:href="#DejaVuSans-45"/>
       <use x="290.576172" xlink:href="#DejaVuSans-48"/>
       <use x="354.199219" xlink:href="#DejaVuSans-57"/>
       <use x="417.822266" xlink:href="#DejaVuSans-45"/>
       <use x="453.90625" xlink:href="#DejaVuSans-49"/>
       <use x="517.529297" xlink:href="#DejaVuSans-51"/>
      </g>
     </g>
    </g>
    <g id="text_9">
     <!-- Datum -->
     <g transform="translate(343.086719 341.476562)scale(0.1 -0.1)">
      <defs>
       <path d="M 19.671875 64.796875 
L 19.671875 8.109375 
L 31.59375 8.109375 
Q 46.6875 8.109375 53.6875 14.9375 
Q 60.6875 21.78125 60.6875 36.53125 
Q 60.6875 51.171875 53.6875 57.984375 
Q 46.6875 64.796875 31.59375 64.796875 
z
M 9.8125 72.90625 
L 30.078125 72.90625 
Q 51.265625 72.90625 61.171875 64.09375 
Q 71.09375 55.28125 71.09375 36.53125 
Q 71.09375 17.671875 61.125 8.828125 
Q 51.171875 0 30.078125 0 
L 9.8125 0 
z
" id="DejaVuSans-68"/>
       <path d="M 34.28125 27.484375 
Q 23.390625 27.484375 19.1875 25 
Q 14.984375 22.515625 14.984375 16.5 
Q 14.984375 11.71875 18.140625 8.90625 
Q 21.296875 6.109375 26.703125 6.109375 
Q 34.1875 6.109375 38.703125 11.40625 
Q 43.21875 16.703125 43.21875 25.484375 
L 43.21875 27.484375 
z
M 52.203125 31.203125 
L 52.203125 0 
L 43.21875 0 
L 43.21875 8.296875 
Q 40.140625 3.328125 35.546875 0.953125 
Q 30.953125 -1.421875 24.3125 -1.421875 
Q 15.921875 -1.421875 10.953125 3.296875 
Q 6 8.015625 6 15.921875 
Q 6 25.140625 12.171875 29.828125 
Q 18.359375 34.515625 30.609375 34.515625 
L 43.21875 34.515625 
L 43.21875 35.40625 
Q 43.21875 41.609375 39.140625 45 
Q 35.0625 48.390625 27.6875 48.390625 
Q 23 48.390625 18.546875 47.265625 
Q 14.109375 46.140625 10.015625 43.890625 
L 10.015625 52.203125 
Q 14.9375 54.109375 19.578125 55.046875 
Q 24.21875 56 28.609375 56 
Q 40.484375 56 46.34375 49.84375 
Q 52.203125 43.703125 52.203125 31.203125 
z
" id="DejaVuSans-97"/>
       <path d="M 18.3125 70.21875 
L 18.3125 54.6875 
L 36.8125 54.6875 
L 36.8125 47.703125 
L 18.3125 47.703125 
L 18.3125 18.015625 
Q 18.3125 11.328125 20.140625 9.421875 
Q 21.96875 7.515625 27.59375 7.515625 
L 36.8125 7.515625 
L 36.8125 0 
L 27.59375 0 
Q 17.1875 0 13.234375 3.875 
Q 9.28125 7.765625 9.28125 18.015625 
L 9.28125 47.703125 
L 2.6875 47.703125 
L 2.6875 54.6875 
L 9.28125 54.6875 
L 9.28125 70.21875 
z
" id="DejaVuSans-116"/>
       <path d="M 8.5 21.578125 
L 8.5 54.6875 
L 17.484375 54.6875 
L 17.484375 21.921875 
Q 17.484375 14.15625 20.5 10.265625 
Q 23.53125 6.390625 29.59375 6.390625 
Q 36.859375 6.390625 41.078125 11.03125 
Q 45.3125 15.671875 45.3125 23.6875 
L 45.3125 54.6875 
L 54.296875 54.6875 
L 54.296875 0 
L 45.3125 0 
L 45.3125 8.40625 
Q 42.046875 3.421875 37.71875 1 
Q 33.40625 -1.421875 27.6875 -1.421875 
Q 18.265625 -1.421875 13.375 4.4375 
Q 8.5 10.296875 8.5 21.578125 
z
M 31.109375 56 
z
" id="DejaVuSans-117"/>
       <path d="M 52 44.1875 
Q 55.375 50.25 60.0625 53.125 
Q 64.75 56 71.09375 56 
Q 79.640625 56 84.28125 50.015625 
Q 88.921875 44.046875 88.921875 33.015625 
L 88.921875 0 
L 79.890625 0 
L 79.890625 32.71875 
Q 79.890625 40.578125 77.09375 44.375 
Q 74.3125 48.1875 68.609375 48.1875 
Q 61.625 48.1875 57.5625 43.546875 
Q 53.515625 38.921875 53.515625 30.90625 
L 53.515625 0 
L 44.484375 0 
L 44.484375 32.71875 
Q 44.484375 40.625 41.703125 44.40625 
Q 38.921875 48.1875 33.109375 48.1875 
Q 26.21875 48.1875 22.15625 43.53125 
Q 18.109375 38.875 18.109375 30.90625 
L 18.109375 0 
L 9.078125 0 
L 9.078125 54.6875 
L 18.109375 54.6875 
L 18.109375 46.1875 
Q 21.1875 51.21875 25.484375 53.609375 
Q 29.78125 56 35.6875 56 
Q 41.65625 56 45.828125 52.96875 
Q 50 49.953125 52 44.1875 
z
" id="DejaVuSans-109"/>
      </defs>
      <use xlink:href="#DejaVuSans-68"/>
      <use x="77.001953" xlink:href="#DejaVuSans-97"/>
      <use x="138.28125" xlink:href="#DejaVuSans-116"/>
      <use x="177.490234" xlink:href="#DejaVuSans-117"/>
      <use x="240.869141" xlink:href="#DejaVuSans-109"/>
     </g>
    </g>
   </g>
   <g id="matplotlib.axis_2">
    <g id="ytick_1">
     <g id="line2d_17">
      <path clip-path="url(#p36573b96ec)" d="M 64.8 300.272727 
L 655.2 300.272727 
" style="fill:none;stroke:#808080;stroke-dasharray:6.4,1.6,1,1.6;stroke-dashoffset:0;stroke-opacity:0.3;"/>
     </g>
     <g id="line2d_18">
      <defs>
       <path d="M 0 0 
L -3.5 0 
" id="mccc1ec01e4" style="stroke:#000000;stroke-width:0.8;"/>
      </defs>
      <g>
       <use style="stroke:#000000;stroke-width:0.8;" x="64.8" xlink:href="#mccc1ec01e4" y="300.272727"/>
      </g>
     </g>
     <g id="text_10">
      <!-- 0 -->
      <g transform="translate(51.4375 304.071946)scale(0.1 -0.1)">
       <use xlink:href="#DejaVuSans-48"/>
      </g>
     </g>
    </g>
    <g id="ytick_2">
     <g id="line2d_19">
      <path clip-path="url(#p36573b96ec)" d="M 64.8 237.21286 
L 655.2 237.21286 
" style="fill:none;stroke:#808080;stroke-dasharray:6.4,1.6,1,1.6;stroke-dashoffset:0;stroke-opacity:0.3;"/>
     </g>
     <g id="line2d_20">
      <g>
       <use style="stroke:#000000;stroke-width:0.8;" x="64.8" xlink:href="#mccc1ec01e4" y="237.21286"/>
      </g>
     </g>
     <g id="text_11">
      <!-- 5 -->
      <g transform="translate(51.4375 241.012079)scale(0.1 -0.1)">
       <use xlink:href="#DejaVuSans-53"/>
      </g>
     </g>
    </g>
    <g id="ytick_3">
     <g id="line2d_21">
      <path clip-path="url(#p36573b96ec)" d="M 64.8 174.152993 
L 655.2 174.152993 
" style="fill:none;stroke:#808080;stroke-dasharray:6.4,1.6,1,1.6;stroke-dashoffset:0;stroke-opacity:0.3;"/>
     </g>
     <g id="line2d_22">
      <g>
       <use style="stroke:#000000;stroke-width:0.8;" x="64.8" xlink:href="#mccc1ec01e4" y="174.152993"/>
      </g>
     </g>
     <g id="text_12">
      <!-- 10 -->
      <g transform="translate(45.075 177.952212)scale(0.1 -0.1)">
       <use xlink:href="#DejaVuSans-49"/>
       <use x="63.623047" xlink:href="#DejaVuSans-48"/>
      </g>
     </g>
    </g>
    <g id="ytick_4">
     <g id="line2d_23">
      <path clip-path="url(#p36573b96ec)" d="M 64.8 111.093126 
L 655.2 111.093126 
" style="fill:none;stroke:#808080;stroke-dasharray:6.4,1.6,1,1.6;stroke-dashoffset:0;stroke-opacity:0.3;"/>
     </g>
     <g id="line2d_24">
      <g>
       <use style="stroke:#000000;stroke-width:0.8;" x="64.8" xlink:href="#mccc1ec01e4" y="111.093126"/>
      </g>
     </g>
     <g id="text_13">
      <!-- 15 -->
      <g transform="translate(45.075 114.892345)scale(0.1 -0.1)">
       <use xlink:href="#DejaVuSans-49"/>
       <use x="63.623047" xlink:href="#DejaVuSans-53"/>
      </g>
     </g>
    </g>
    <g id="ytick_5">
     <g id="line2d_25">
      <path clip-path="url(#p36573b96ec)" d="M 64.8 48.033259 
L 655.2 48.033259 
" style="fill:none;stroke:#808080;stroke-dasharray:6.4,1.6,1,1.6;stroke-dashoffset:0;stroke-opacity:0.3;"/>
     </g>
     <g id="line2d_26">
      <g>
       <use style="stroke:#000000;stroke-width:0.8;" x="64.8" xlink:href="#mccc1ec01e4" y="48.033259"/>
      </g>
     </g>
     <g id="text_14">
      <!-- 20 -->
      <g transform="translate(45.075 51.832478)scale(0.1 -0.1)">
       <use xlink:href="#DejaVuSans-50"/>
       <use x="63.623047" xlink:href="#DejaVuSans-48"/>
      </g>
     </g>
    </g>
   </g>
   <g id="line2d_27">
    <path clip-path="url(#p36573b96ec)" d="M 91.636364 280.090993 
L 100.672176 246.739249 
L 106.093664 240.0689 
L 107.900826 233.869968 
L 109.707989 228.336238 
L 113.322314 218.748215 
L 115.129477 214.491807 
L 122.358127 201.077815 
L 124.165289 197.940369 
L 125.972452 195.418596 
L 127.779614 193.456527 
L 129.586777 192.153662 
L 131.393939 190.387489 
L 133.201102 187.834621 
L 136.815427 181.590824 
L 140.429752 175.639316 
L 142.236915 173.565305 
L 144.044077 172.371272 
L 145.85124 172.293536 
L 149.465565 174.451502 
L 151.272727 175.72949 
L 153.07989 176.833349 
L 154.887052 178.195293 
L 156.694215 180.275522 
L 160.30854 185.726407 
L 162.115702 188.500046 
L 163.922865 189.753159 
L 169.344353 190.676669 
L 171.151515 190.658012 
L 172.958678 190.829032 
L 174.76584 191.279904 
L 176.573003 192.287369 
L 178.380165 194.037996 
L 180.187328 196.189743 
L 181.99449 198.804799 
L 183.801653 201.808539 
L 185.608815 205.343996 
L 187.415978 210.987667 
L 191.030303 224.156234 
L 194.644628 236.584749 
L 196.451791 242.228421 
L 198.258953 247.07918 
L 200.066116 251.099713 
L 201.873278 254.333552 
L 203.680441 256.503956 
L 205.487603 257.610924 
L 207.294766 257.984059 
L 209.101928 257.411918 
L 210.909091 255.561789 
L 212.716253 253.117753 
L 214.523416 250.446726 
L 216.330579 247.312389 
L 218.137741 243.049318 
L 219.944904 238.322938 
L 221.752066 233.123919 
L 225.366391 221.58471 
L 227.173554 215.41243 
L 228.980716 209.76254 
L 230.787879 205.057925 
L 232.595041 201.251945 
L 239.823691 188.509374 
L 241.630854 187.290466 
L 243.438017 187.100789 
L 245.245179 188.667957 
L 247.052342 192.302917 
L 248.859504 197.041735 
L 250.666667 203.786156 
L 252.473829 211.034309 
L 254.280992 217.685446 
L 257.895317 229.588462 
L 263.316804 246.783781 
L 265.123967 252.132054 
L 266.931129 257.082315 
L 268.738292 261.199242 
L 270.545455 264.09415 
L 272.352617 266.497763 
L 274.15978 268.046275 
L 277.774105 270.03633 
L 279.581267 270.90076 
L 283.195592 272.197405 
L 285.002755 272.505241 
L 286.809917 272.076136 
L 288.61708 271.205487 
L 290.424242 270.210459 
L 292.231405 269.035083 
L 295.84573 265.925622 
L 299.460055 262.116533 
L 301.267218 260.278841 
L 303.07438 258.873365 
L 304.881543 257.825477 
L 308.495868 256.908186 
L 310.30303 256.323607 
L 312.110193 256.808683 
L 315.724518 258.397617 
L 317.53168 258.944883 
L 319.338843 259.678715 
L 321.146006 259.585431 
L 326.567493 256.957937 
L 328.374656 255.285047 
L 330.181818 253.027578 
L 333.796143 247.980923 
L 335.603306 244.663129 
L 339.217631 237.44607 
L 341.024793 234.230887 
L 342.831956 231.320432 
L 344.639118 230.020677 
L 346.446281 230.232121 
L 350.060606 230.082866 
L 351.867769 231.049909 
L 353.674931 233.008869 
L 355.482094 235.372059 
L 357.289256 238.3105 
L 360.903581 245.241488 
L 364.517906 252.017004 
L 366.325069 255.157559 
L 368.132231 257.237788 
L 371.746556 258.795628 
L 373.553719 259.271376 
L 375.360882 258.854708 
L 377.168044 257.421247 
L 378.975207 255.316142 
L 382.589532 248.947966 
L 391.625344 230.633241 
L 393.432507 228.500151 
L 395.239669 227.088456 
L 397.046832 226.323528 
L 398.853994 226.401265 
L 400.661157 227.474029 
L 402.46832 229.457865 
L 404.275482 232.334116 
L 406.082645 234.871436 
L 407.889807 238.086619 
L 409.69697 241.053045 
L 411.504132 243.2732 
L 413.311295 244.799945 
L 415.118457 245.452932 
L 416.92562 244.722208 
L 418.732782 243.049318 
L 420.539945 240.888243 
L 422.347107 238.095947 
L 424.15427 234.585366 
L 425.961433 230.387594 
L 427.768595 225.770044 
L 431.38292 217.31542 
L 433.190083 213.963421 
L 434.997245 211.967147 
L 436.804408 211.14625 
L 438.61157 211.354584 
L 440.418733 213.447251 
L 442.225895 216.363925 
L 447.647383 226.304871 
L 451.261708 234.429893 
L 454.876033 242.530038 
L 456.683196 246.084152 
L 458.490358 248.814259 
L 460.297521 250.670607 
L 462.104683 251.9828 
L 463.911846 252.020113 
L 469.333333 251.065509 
L 471.140496 251.208544 
L 472.947658 251.497724 
L 476.561983 250.88205 
L 480.176309 249.967869 
L 481.983471 249.274459 
L 483.790634 248.425576 
L 485.597796 247.753933 
L 487.404959 247.259528 
L 492.826446 248.036894 
L 494.633609 247.502066 
L 496.440771 246.429302 
L 498.247934 245.760768 
L 503.669421 243.235886 
L 505.476584 242.847203 
L 507.283747 243.406906 
L 509.090909 244.59472 
L 510.898072 245.558653 
L 514.512397 246.693607 
L 516.319559 247.53627 
L 518.126722 249.016374 
L 519.933884 251.05618 
L 521.741047 252.921857 
L 527.162534 259.122122 
L 528.969697 260.972251 
L 530.77686 262.12897 
L 532.584022 262.719768 
L 539.812672 265.934951 
L 541.619835 266.423136 
L 543.426997 266.765177 
L 550.655647 268.895157 
L 552.46281 269.361577 
L 556.077135 270.776381 
L 561.498623 273.142681 
L 566.92011 274.482859 
L 568.727273 274.852884 
L 572.341598 275.138955 
L 579.570248 275.390821 
L 581.37741 275.602265 
L 584.991736 275.707986 
L 586.798898 275.524528 
L 588.606061 274.775148 
L 590.413223 273.071163 
L 592.220386 270.788819 
L 595.834711 266.702987 
L 599.449036 262.956087 
L 601.256198 260.754589 
L 606.677686 253.260788 
L 608.484848 251.29783 
L 610.292011 250.254384 
L 612.099174 250.273484 
L 613.906336 251.666079 
L 615.713499 254.018608 
L 619.327824 259.792433 
L 628.363636 274.617898 
L 628.363636 274.617898 
" style="fill:none;stroke:#ff0000;stroke-linecap:square;stroke-width:1.5;"/>
   </g>
   <g id="patch_3">
    <path d="M 64.8 313.2 
L 64.8 28.8 
" style="fill:none;stroke:#000000;stroke-linecap:square;stroke-linejoin:miter;stroke-width:0.8;"/>
   </g>
   <g id="patch_4">
    <path d="M 655.2 313.2 
L 655.2 28.8 
" style="fill:none;stroke:#000000;stroke-linecap:square;stroke-linejoin:miter;stroke-width:0.8;"/>
   </g>
   <g id="patch_5">
    <path d="M 64.8 313.2 
L 655.2 313.2 
" style="fill:none;stroke:#000000;stroke-linecap:square;stroke-linejoin:miter;stroke-width:0.8;"/>
   </g>
   <g id="patch_6">
    <path d="M 64.8 28.8 
L 655.2 28.8 
" style="fill:none;stroke:#000000;stroke-linecap:square;stroke-linejoin:miter;stroke-width:0.8;"/>
   </g>
   <g id="text_15">
    <!-- Page hits per uur (gemiddeld ongeveer 2). -->
    <g transform="translate(232.46625 22.8)scale(0.12 -0.12)">
     <defs>
      <path d="M 19.671875 64.796875 
L 19.671875 37.40625 
L 32.078125 37.40625 
Q 38.96875 37.40625 42.71875 40.96875 
Q 46.484375 44.53125 46.484375 51.125 
Q 46.484375 57.671875 42.71875 61.234375 
Q 38.96875 64.796875 32.078125 64.796875 
z
M 9.8125 72.90625 
L 32.078125 72.90625 
Q 44.34375 72.90625 50.609375 67.359375 
Q 56.890625 61.8125 56.890625 51.125 
Q 56.890625 40.328125 50.609375 34.8125 
Q 44.34375 29.296875 32.078125 29.296875 
L 19.671875 29.296875 
L 19.671875 0 
L 9.8125 0 
z
" id="DejaVuSans-80"/>
      <path d="M 45.40625 27.984375 
Q 45.40625 37.75 41.375 43.109375 
Q 37.359375 48.484375 30.078125 48.484375 
Q 22.859375 48.484375 18.828125 43.109375 
Q 14.796875 37.75 14.796875 27.984375 
Q 14.796875 18.265625 18.828125 12.890625 
Q 22.859375 7.515625 30.078125 7.515625 
Q 37.359375 7.515625 41.375 12.890625 
Q 45.40625 18.265625 45.40625 27.984375 
z
M 54.390625 6.78125 
Q 54.390625 -7.171875 48.1875 -13.984375 
Q 42 -20.796875 29.203125 -20.796875 
Q 24.46875 -20.796875 20.265625 -20.09375 
Q 16.0625 -19.390625 12.109375 -17.921875 
L 12.109375 -9.1875 
Q 16.0625 -11.328125 19.921875 -12.34375 
Q 23.78125 -13.375 27.78125 -13.375 
Q 36.625 -13.375 41.015625 -8.765625 
Q 45.40625 -4.15625 45.40625 5.171875 
L 45.40625 9.625 
Q 42.625 4.78125 38.28125 2.390625 
Q 33.9375 0 27.875 0 
Q 17.828125 0 11.671875 7.65625 
Q 5.515625 15.328125 5.515625 27.984375 
Q 5.515625 40.671875 11.671875 48.328125 
Q 17.828125 56 27.875 56 
Q 33.9375 56 38.28125 53.609375 
Q 42.625 51.21875 45.40625 46.390625 
L 45.40625 54.6875 
L 54.390625 54.6875 
z
" id="DejaVuSans-103"/>
      <path d="M 56.203125 29.59375 
L 56.203125 25.203125 
L 14.890625 25.203125 
Q 15.484375 15.921875 20.484375 11.0625 
Q 25.484375 6.203125 34.421875 6.203125 
Q 39.59375 6.203125 44.453125 7.46875 
Q 49.3125 8.734375 54.109375 11.28125 
L 54.109375 2.78125 
Q 49.265625 0.734375 44.1875 -0.34375 
Q 39.109375 -1.421875 33.890625 -1.421875 
Q 20.796875 -1.421875 13.15625 6.1875 
Q 5.515625 13.8125 5.515625 26.8125 
Q 5.515625 40.234375 12.765625 48.109375 
Q 20.015625 56 32.328125 56 
Q 43.359375 56 49.78125 48.890625 
Q 56.203125 41.796875 56.203125 29.59375 
z
M 47.21875 32.234375 
Q 47.125 39.59375 43.09375 43.984375 
Q 39.0625 48.390625 32.421875 48.390625 
Q 24.90625 48.390625 20.390625 44.140625 
Q 15.875 39.890625 15.1875 32.171875 
z
" id="DejaVuSans-101"/>
      <path id="DejaVuSans-32"/>
      <path d="M 54.890625 33.015625 
L 54.890625 0 
L 45.90625 0 
L 45.90625 32.71875 
Q 45.90625 40.484375 42.875 44.328125 
Q 39.84375 48.1875 33.796875 48.1875 
Q 26.515625 48.1875 22.3125 43.546875 
Q 18.109375 38.921875 18.109375 30.90625 
L 18.109375 0 
L 9.078125 0 
L 9.078125 75.984375 
L 18.109375 75.984375 
L 18.109375 46.1875 
Q 21.34375 51.125 25.703125 53.5625 
Q 30.078125 56 35.796875 56 
Q 45.21875 56 50.046875 50.171875 
Q 54.890625 44.34375 54.890625 33.015625 
z
" id="DejaVuSans-104"/>
      <path d="M 9.421875 54.6875 
L 18.40625 54.6875 
L 18.40625 0 
L 9.421875 0 
z
M 9.421875 75.984375 
L 18.40625 75.984375 
L 18.40625 64.59375 
L 9.421875 64.59375 
z
" id="DejaVuSans-105"/>
      <path d="M 44.28125 53.078125 
L 44.28125 44.578125 
Q 40.484375 46.53125 36.375 47.5 
Q 32.28125 48.484375 27.875 48.484375 
Q 21.1875 48.484375 17.84375 46.4375 
Q 14.5 44.390625 14.5 40.28125 
Q 14.5 37.15625 16.890625 35.375 
Q 19.28125 33.59375 26.515625 31.984375 
L 29.59375 31.296875 
Q 39.15625 29.25 43.1875 25.515625 
Q 47.21875 21.78125 47.21875 15.09375 
Q 47.21875 7.46875 41.1875 3.015625 
Q 35.15625 -1.421875 24.609375 -1.421875 
Q 20.21875 -1.421875 15.453125 -0.5625 
Q 10.6875 0.296875 5.421875 2 
L 5.421875 11.28125 
Q 10.40625 8.6875 15.234375 7.390625 
Q 20.0625 6.109375 24.8125 6.109375 
Q 31.15625 6.109375 34.5625 8.28125 
Q 37.984375 10.453125 37.984375 14.40625 
Q 37.984375 18.0625 35.515625 20.015625 
Q 33.0625 21.96875 24.703125 23.78125 
L 21.578125 24.515625 
Q 13.234375 26.265625 9.515625 29.90625 
Q 5.8125 33.546875 5.8125 39.890625 
Q 5.8125 47.609375 11.28125 51.796875 
Q 16.75 56 26.8125 56 
Q 31.78125 56 36.171875 55.265625 
Q 40.578125 54.546875 44.28125 53.078125 
z
" id="DejaVuSans-115"/>
      <path d="M 18.109375 8.203125 
L 18.109375 -20.796875 
L 9.078125 -20.796875 
L 9.078125 54.6875 
L 18.109375 54.6875 
L 18.109375 46.390625 
Q 20.953125 51.265625 25.265625 53.625 
Q 29.59375 56 35.59375 56 
Q 45.5625 56 51.78125 48.09375 
Q 58.015625 40.1875 58.015625 27.296875 
Q 58.015625 14.40625 51.78125 6.484375 
Q 45.5625 -1.421875 35.59375 -1.421875 
Q 29.59375 -1.421875 25.265625 0.953125 
Q 20.953125 3.328125 18.109375 8.203125 
z
M 48.6875 27.296875 
Q 48.6875 37.203125 44.609375 42.84375 
Q 40.53125 48.484375 33.40625 48.484375 
Q 26.265625 48.484375 22.1875 42.84375 
Q 18.109375 37.203125 18.109375 27.296875 
Q 18.109375 17.390625 22.1875 11.75 
Q 26.265625 6.109375 33.40625 6.109375 
Q 40.53125 6.109375 44.609375 11.75 
Q 48.6875 17.390625 48.6875 27.296875 
z
" id="DejaVuSans-112"/>
      <path d="M 41.109375 46.296875 
Q 39.59375 47.171875 37.8125 47.578125 
Q 36.03125 48 33.890625 48 
Q 26.265625 48 22.1875 43.046875 
Q 18.109375 38.09375 18.109375 28.8125 
L 18.109375 0 
L 9.078125 0 
L 9.078125 54.6875 
L 18.109375 54.6875 
L 18.109375 46.1875 
Q 20.953125 51.171875 25.484375 53.578125 
Q 30.03125 56 36.53125 56 
Q 37.453125 56 38.578125 55.875 
Q 39.703125 55.765625 41.0625 55.515625 
z
" id="DejaVuSans-114"/>
      <path d="M 31 75.875 
Q 24.46875 64.65625 21.28125 53.65625 
Q 18.109375 42.671875 18.109375 31.390625 
Q 18.109375 20.125 21.3125 9.0625 
Q 24.515625 -2 31 -13.1875 
L 23.1875 -13.1875 
Q 15.875 -1.703125 12.234375 9.375 
Q 8.59375 20.453125 8.59375 31.390625 
Q 8.59375 42.28125 12.203125 53.3125 
Q 15.828125 64.359375 23.1875 75.875 
z
" id="DejaVuSans-40"/>
      <path d="M 45.40625 46.390625 
L 45.40625 75.984375 
L 54.390625 75.984375 
L 54.390625 0 
L 45.40625 0 
L 45.40625 8.203125 
Q 42.578125 3.328125 38.25 0.953125 
Q 33.9375 -1.421875 27.875 -1.421875 
Q 17.96875 -1.421875 11.734375 6.484375 
Q 5.515625 14.40625 5.515625 27.296875 
Q 5.515625 40.1875 11.734375 48.09375 
Q 17.96875 56 27.875 56 
Q 33.9375 56 38.25 53.625 
Q 42.578125 51.265625 45.40625 46.390625 
z
M 14.796875 27.296875 
Q 14.796875 17.390625 18.875 11.75 
Q 22.953125 6.109375 30.078125 6.109375 
Q 37.203125 6.109375 41.296875 11.75 
Q 45.40625 17.390625 45.40625 27.296875 
Q 45.40625 37.203125 41.296875 42.84375 
Q 37.203125 48.484375 30.078125 48.484375 
Q 22.953125 48.484375 18.875 42.84375 
Q 14.796875 37.203125 14.796875 27.296875 
z
" id="DejaVuSans-100"/>
      <path d="M 9.421875 75.984375 
L 18.40625 75.984375 
L 18.40625 0 
L 9.421875 0 
z
" id="DejaVuSans-108"/>
      <path d="M 30.609375 48.390625 
Q 23.390625 48.390625 19.1875 42.75 
Q 14.984375 37.109375 14.984375 27.296875 
Q 14.984375 17.484375 19.15625 11.84375 
Q 23.34375 6.203125 30.609375 6.203125 
Q 37.796875 6.203125 41.984375 11.859375 
Q 46.1875 17.53125 46.1875 27.296875 
Q 46.1875 37.015625 41.984375 42.703125 
Q 37.796875 48.390625 30.609375 48.390625 
z
M 30.609375 56 
Q 42.328125 56 49.015625 48.375 
Q 55.71875 40.765625 55.71875 27.296875 
Q 55.71875 13.875 49.015625 6.21875 
Q 42.328125 -1.421875 30.609375 -1.421875 
Q 18.84375 -1.421875 12.171875 6.21875 
Q 5.515625 13.875 5.515625 27.296875 
Q 5.515625 40.765625 12.171875 48.375 
Q 18.84375 56 30.609375 56 
z
" id="DejaVuSans-111"/>
      <path d="M 54.890625 33.015625 
L 54.890625 0 
L 45.90625 0 
L 45.90625 32.71875 
Q 45.90625 40.484375 42.875 44.328125 
Q 39.84375 48.1875 33.796875 48.1875 
Q 26.515625 48.1875 22.3125 43.546875 
Q 18.109375 38.921875 18.109375 30.90625 
L 18.109375 0 
L 9.078125 0 
L 9.078125 54.6875 
L 18.109375 54.6875 
L 18.109375 46.1875 
Q 21.34375 51.125 25.703125 53.5625 
Q 30.078125 56 35.796875 56 
Q 45.21875 56 50.046875 50.171875 
Q 54.890625 44.34375 54.890625 33.015625 
z
" id="DejaVuSans-110"/>
      <path d="M 2.984375 54.6875 
L 12.5 54.6875 
L 29.59375 8.796875 
L 46.6875 54.6875 
L 56.203125 54.6875 
L 35.6875 0 
L 23.484375 0 
z
" id="DejaVuSans-118"/>
      <path d="M 8.015625 75.875 
L 15.828125 75.875 
Q 23.140625 64.359375 26.78125 53.3125 
Q 30.421875 42.28125 30.421875 31.390625 
Q 30.421875 20.453125 26.78125 9.375 
Q 23.140625 -1.703125 15.828125 -13.1875 
L 8.015625 -13.1875 
Q 14.5 -2 17.703125 9.0625 
Q 20.90625 20.125 20.90625 31.390625 
Q 20.90625 42.671875 17.703125 53.65625 
Q 14.5 64.65625 8.015625 75.875 
z
" id="DejaVuSans-41"/>
      <path d="M 10.6875 12.40625 
L 21 12.40625 
L 21 0 
L 10.6875 0 
z
" id="DejaVuSans-46"/>
     </defs>
     <use xlink:href="#DejaVuSans-80"/>
     <use x="55.802734" xlink:href="#DejaVuSans-97"/>
     <use x="117.082031" xlink:href="#DejaVuSans-103"/>
     <use x="180.558594" xlink:href="#DejaVuSans-101"/>
     <use x="242.082031" xlink:href="#DejaVuSans-32"/>
     <use x="273.869141" xlink:href="#DejaVuSans-104"/>
     <use x="337.248047" xlink:href="#DejaVuSans-105"/>
     <use x="365.03125" xlink:href="#DejaVuSans-116"/>
     <use x="404.240234" xlink:href="#DejaVuSans-115"/>
     <use x="456.339844" xlink:href="#DejaVuSans-32"/>
     <use x="488.126953" xlink:href="#DejaVuSans-112"/>
     <use x="551.603516" xlink:href="#DejaVuSans-101"/>
     <use x="613.126953" xlink:href="#DejaVuSans-114"/>
     <use x="654.240234" xlink:href="#DejaVuSans-32"/>
     <use x="686.027344" xlink:href="#DejaVuSans-117"/>
     <use x="749.40625" xlink:href="#DejaVuSans-117"/>
     <use x="812.785156" xlink:href="#DejaVuSans-114"/>
     <use x="853.898438" xlink:href="#DejaVuSans-32"/>
     <use x="885.685547" xlink:href="#DejaVuSans-40"/>
     <use x="924.699219" xlink:href="#DejaVuSans-103"/>
     <use x="988.175781" xlink:href="#DejaVuSans-101"/>
     <use x="1049.699219" xlink:href="#DejaVuSans-109"/>
     <use x="1147.111328" xlink:href="#DejaVuSans-105"/>
     <use x="1174.894531" xlink:href="#DejaVuSans-100"/>
     <use x="1238.371094" xlink:href="#DejaVuSans-100"/>
     <use x="1301.847656" xlink:href="#DejaVuSans-101"/>
     <use x="1363.371094" xlink:href="#DejaVuSans-108"/>
     <use x="1391.154297" xlink:href="#DejaVuSans-100"/>
     <use x="1454.630859" xlink:href="#DejaVuSans-32"/>
     <use x="1486.417969" xlink:href="#DejaVuSans-111"/>
     <use x="1547.599609" xlink:href="#DejaVuSans-110"/>
     <use x="1610.978516" xlink:href="#DejaVuSans-103"/>
     <use x="1674.455078" xlink:href="#DejaVuSans-101"/>
     <use x="1735.978516" xlink:href="#DejaVuSans-118"/>
     <use x="1795.158203" xlink:href="#DejaVuSans-101"/>
     <use x="1856.681641" xlink:href="#DejaVuSans-101"/>
     <use x="1918.205078" xlink:href="#DejaVuSans-114"/>
     <use x="1959.318359" xlink:href="#DejaVuSans-32"/>
     <use x="1991.105469" xlink:href="#DejaVuSans-50"/>
     <use x="2054.728516" xlink:href="#DejaVuSans-41"/>
     <use x="2093.742188" xlink:href="#DejaVuSans-46"/>
    </g>
   </g>
  </g>
  <g id="text_16">
   <!-- Gegenereerd op 2021-09-13 23:41. -->
   <g style="fill:#808080;" transform="translate(7.2 356.4)scale(0.08 -0.08)">
    <defs>
     <path d="M 59.515625 10.40625 
L 59.515625 29.984375 
L 43.40625 29.984375 
L 43.40625 38.09375 
L 69.28125 38.09375 
L 69.28125 6.78125 
Q 63.578125 2.734375 56.6875 0.65625 
Q 49.8125 -1.421875 42 -1.421875 
Q 24.90625 -1.421875 15.25 8.5625 
Q 5.609375 18.5625 5.609375 36.375 
Q 5.609375 54.25 15.25 64.234375 
Q 24.90625 74.21875 42 74.21875 
Q 49.125 74.21875 55.546875 72.453125 
Q 61.96875 70.703125 67.390625 67.28125 
L 67.390625 56.78125 
Q 61.921875 61.421875 55.765625 63.765625 
Q 49.609375 66.109375 42.828125 66.109375 
Q 29.4375 66.109375 22.71875 58.640625 
Q 16.015625 51.171875 16.015625 36.375 
Q 16.015625 21.625 22.71875 14.15625 
Q 29.4375 6.6875 42.828125 6.6875 
Q 48.046875 6.6875 52.140625 7.59375 
Q 56.25 8.5 59.515625 10.40625 
z
" id="DejaVuSans-71"/>
     <path d="M 11.71875 12.40625 
L 22.015625 12.40625 
L 22.015625 0 
L 11.71875 0 
z
M 11.71875 51.703125 
L 22.015625 51.703125 
L 22.015625 39.3125 
L 11.71875 39.3125 
z
" id="DejaVuSans-58"/>
     <path d="M 37.796875 64.3125 
L 12.890625 25.390625 
L 37.796875 25.390625 
z
M 35.203125 72.90625 
L 47.609375 72.90625 
L 47.609375 25.390625 
L 58.015625 25.390625 
L 58.015625 17.1875 
L 47.609375 17.1875 
L 47.609375 0 
L 37.796875 0 
L 37.796875 17.1875 
L 4.890625 17.1875 
L 4.890625 26.703125 
z
" id="DejaVuSans-52"/>
    </defs>
    <use xlink:href="#DejaVuSans-71"/>
    <use x="77.490234" xlink:href="#DejaVuSans-101"/>
    <use x="139.013672" xlink:href="#DejaVuSans-103"/>
    <use x="202.490234" xlink:href="#DejaVuSans-101"/>
    <use x="264.013672" xlink:href="#DejaVuSans-110"/>
    <use x="327.392578" xlink:href="#DejaVuSans-101"/>
    <use x="388.916016" xlink:href="#DejaVuSans-114"/>
    <use x="427.779297" xlink:href="#DejaVuSans-101"/>
    <use x="489.302734" xlink:href="#DejaVuSans-101"/>
    <use x="550.826172" xlink:href="#DejaVuSans-114"/>
    <use x="590.189453" xlink:href="#DejaVuSans-100"/>
    <use x="653.666016" xlink:href="#DejaVuSans-32"/>
    <use x="685.453125" xlink:href="#DejaVuSans-111"/>
    <use x="746.634766" xlink:href="#DejaVuSans-112"/>
    <use x="810.111328" xlink:href="#DejaVuSans-32"/>
    <use x="841.898438" xlink:href="#DejaVuSans-50"/>
    <use x="905.521484" xlink:href="#DejaVuSans-48"/>
    <use x="969.144531" xlink:href="#DejaVuSans-50"/>
    <use x="1032.767578" xlink:href="#DejaVuSans-49"/>
    <use x="1096.390625" xlink:href="#DejaVuSans-45"/>
    <use x="1132.474609" xlink:href="#DejaVuSans-48"/>
    <use x="1196.097656" xlink:href="#DejaVuSans-57"/>
    <use x="1259.720703" xlink:href="#DejaVuSans-45"/>
    <use x="1295.804688" xlink:href="#DejaVuSans-49"/>
    <use x="1359.427734" xlink:href="#DejaVuSans-51"/>
    <use x="1423.050781" xlink:href="#DejaVuSans-32"/>
    <use x="1454.837891" xlink:href="#DejaVuSans-50"/>
    <use x="1518.460938" xlink:href="#DejaVuSans-51"/>
    <use x="1582.083984" xlink:href="#DejaVuSans-58"/>
    <use x="1615.775391" xlink:href="#DejaVuSans-52"/>
    <use x="1679.398438" xlink:href="#DejaVuSans-49"/>
    <use x="1743.021484" xlink:href="#DejaVuSans-46"/>
   </g>
  </g>
  <g id="text_17">
   <!-- https://realrolfje.github.io/coronadata/ -->
   <g style="fill:#808080;" transform="translate(560.24375 356.4)scale(0.08 -0.08)">
    <defs>
     <path d="M 25.390625 72.90625 
L 33.6875 72.90625 
L 8.296875 -9.28125 
L 0 -9.28125 
z
" id="DejaVuSans-47"/>
     <path d="M 37.109375 75.984375 
L 37.109375 68.5 
L 28.515625 68.5 
Q 23.6875 68.5 21.796875 66.546875 
Q 19.921875 64.59375 19.921875 59.515625 
L 19.921875 54.6875 
L 34.71875 54.6875 
L 34.71875 47.703125 
L 19.921875 47.703125 
L 19.921875 0 
L 10.890625 0 
L 10.890625 47.703125 
L 2.296875 47.703125 
L 2.296875 54.6875 
L 10.890625 54.6875 
L 10.890625 58.5 
Q 10.890625 67.625 15.140625 71.796875 
Q 19.390625 75.984375 28.609375 75.984375 
z
" id="DejaVuSans-102"/>
     <path d="M 9.421875 54.6875 
L 18.40625 54.6875 
L 18.40625 -0.984375 
Q 18.40625 -11.421875 14.421875 -16.109375 
Q 10.453125 -20.796875 1.609375 -20.796875 
L -1.8125 -20.796875 
L -1.8125 -13.1875 
L 0.59375 -13.1875 
Q 5.71875 -13.1875 7.5625 -10.8125 
Q 9.421875 -8.453125 9.421875 -0.984375 
z
M 9.421875 75.984375 
L 18.40625 75.984375 
L 18.40625 64.59375 
L 9.421875 64.59375 
z
" id="DejaVuSans-106"/>
     <path d="M 48.6875 27.296875 
Q 48.6875 37.203125 44.609375 42.84375 
Q 40.53125 48.484375 33.40625 48.484375 
Q 26.265625 48.484375 22.1875 42.84375 
Q 18.109375 37.203125 18.109375 27.296875 
Q 18.109375 17.390625 22.1875 11.75 
Q 26.265625 6.109375 33.40625 6.109375 
Q 40.53125 6.109375 44.609375 11.75 
Q 48.6875 17.390625 48.6875 27.296875 
z
M 18.109375 46.390625 
Q 20.953125 51.265625 25.265625 53.625 
Q 29.59375 56 35.59375 56 
Q 45.5625 56 51.78125 48.09375 
Q 58.015625 40.1875 58.015625 27.296875 
Q 58.015625 14.40625 51.78125 6.484375 
Q 45.5625 -1.421875 35.59375 -1.421875 
Q 29.59375 -1.421875 25.265625 0.953125 
Q 20.953125 3.328125 18.109375 8.203125 
L 18.109375 0 
L 9.078125 0 
L 9.078125 75.984375 
L 18.109375 75.984375 
z
" id="DejaVuSans-98"/>
     <path d="M 48.78125 52.59375 
L 48.78125 44.1875 
Q 44.96875 46.296875 41.140625 47.34375 
Q 37.3125 48.390625 33.40625 48.390625 
Q 24.65625 48.390625 19.8125 42.84375 
Q 14.984375 37.3125 14.984375 27.296875 
Q 14.984375 17.28125 19.8125 11.734375 
Q 24.65625 6.203125 33.40625 6.203125 
Q 37.3125 6.203125 41.140625 7.25 
Q 44.96875 8.296875 48.78125 10.40625 
L 48.78125 2.09375 
Q 45.015625 0.34375 40.984375 -0.53125 
Q 36.96875 -1.421875 32.421875 -1.421875 
Q 20.0625 -1.421875 12.78125 6.34375 
Q 5.515625 14.109375 5.515625 27.296875 
Q 5.515625 40.671875 12.859375 48.328125 
Q 20.21875 56 33.015625 56 
Q 37.15625 56 41.109375 55.140625 
Q 45.0625 54.296875 48.78125 52.59375 
z
" id="DejaVuSans-99"/>
    </defs>
    <use xlink:href="#DejaVuSans-104"/>
    <use x="63.378906" xlink:href="#DejaVuSans-116"/>
    <use x="102.587891" xlink:href="#DejaVuSans-116"/>
    <use x="141.796875" xlink:href="#DejaVuSans-112"/>
    <use x="205.273438" xlink:href="#DejaVuSans-115"/>
    <use x="257.373047" xlink:href="#DejaVuSans-58"/>
    <use x="291.064453" xlink:href="#DejaVuSans-47"/>
    <use x="324.755859" xlink:href="#DejaVuSans-47"/>
    <use x="358.447266" xlink:href="#DejaVuSans-114"/>
    <use x="397.310547" xlink:href="#DejaVuSans-101"/>
    <use x="458.833984" xlink:href="#DejaVuSans-97"/>
    <use x="520.113281" xlink:href="#DejaVuSans-108"/>
    <use x="547.896484" xlink:href="#DejaVuSans-114"/>
    <use x="586.759766" xlink:href="#DejaVuSans-111"/>
    <use x="647.941406" xlink:href="#DejaVuSans-108"/>
    <use x="675.724609" xlink:href="#DejaVuSans-102"/>
    <use x="710.929688" xlink:href="#DejaVuSans-106"/>
    <use x="738.712891" xlink:href="#DejaVuSans-101"/>
    <use x="800.236328" xlink:href="#DejaVuSans-46"/>
    <use x="832.023438" xlink:href="#DejaVuSans-103"/>
    <use x="895.5" xlink:href="#DejaVuSans-105"/>
    <use x="923.283203" xlink:href="#DejaVuSans-116"/>
    <use x="962.492188" xlink:href="#DejaVuSans-104"/>
    <use x="1025.871094" xlink:href="#DejaVuSans-117"/>
    <use x="1089.25" xlink:href="#DejaVuSans-98"/>
    <use x="1152.726562" xlink:href="#DejaVuSans-46"/>
    <use x="1184.513672" xlink:href="#DejaVuSans-105"/>
    <use x="1212.296875" xlink:href="#DejaVuSans-111"/>
    <use x="1273.478516" xlink:href="#DejaVuSans-47"/>
    <use x="1307.169922" xlink:href="#DejaVuSans-99"/>
    <use x="1362.150391" xlink:href="#DejaVuSans-111"/>
    <use x="1423.332031" xlink:href="#DejaVuSans-114"/>
    <use x="1462.195312" xlink:href="#DejaVuSans-111"/>
    <use x="1523.376953" xlink:href="#DejaVuSans-110"/>
    <use x="1586.755859" xlink:href="#DejaVuSans-97"/>
    <use x="1648.035156" xlink:href="#DejaVuSans-100"/>
    <use x="1711.511719" xlink:href="#DejaVuSans-97"/>
    <use x="1772.791016" xlink:href="#DejaVuSans-116"/>
    <use x="1812" xlink:href="#DejaVuSans-97"/>
    <use x="1873.279297" xlink:href="#DejaVuSans-47"/>
   </g>
  </g>
 </g>
 <defs>
  <clipPath id="p36573b96ec">
   <rect height="284.4" width="590.4" x="64.8" y="28.8"/>
  </clipPath>
 </defs>
</svg>
