<?xml version="1.0" encoding="utf-8" standalone="no"?>
<!DOCTYPE svg PUBLIC "-//W3C//DTD SVG 1.1//EN"
  "http://www.w3.org/Graphics/SVG/1.1/DTD/svg11.dtd">
<svg xmlns:xlink="http://www.w3.org/1999/xlink" width="720pt" height="360pt" viewBox="0 0 720 360" xmlns="http://www.w3.org/2000/svg" version="1.1">
 <metadata>
  <rdf:RDF xmlns:dc="http://purl.org/dc/elements/1.1/" xmlns:cc="http://creativecommons.org/ns#" xmlns:rdf="http://www.w3.org/1999/02/22-rdf-syntax-ns#">
   <cc:Work>
    <dc:type rdf:resource="http://purl.org/dc/dcmitype/StillImage"/>
    <dc:date>2023-02-03T20:24:36.868716</dc:date>
    <dc:format>image/svg+xml</dc:format>
    <dc:creator>
     <cc:Agent>
      <dc:title>Matplotlib v3.6.2, https://matplotlib.org/</dc:title>
     </cc:Agent>
    </dc:creator>
   </cc:Work>
  </rdf:RDF>
 </metadata>
 <defs>
  <style type="text/css">*{stroke-linejoin: round; stroke-linecap: butt}</style>
 </defs>
 <g id="figure_1">
  <g id="patch_1">
   <path d="M 0 360 
L 720 360 
L 720 0 
L 0 0 
z
" style="fill: #ffffff"/>
  </g>
  <g id="axes_1">
   <g id="patch_2">
    <path d="M 64.8 313.2 
L 655.2 313.2 
L 655.2 28.8 
L 64.8 28.8 
z
" style="fill: #ffffff"/>
   </g>
   <g id="PolyCollection_1">
    <path d="M 91.636364 300.272727 
L 91.636364 300.272727 
L 92.303106 300.272727 
L 92.969848 300.272727 
L 93.636589 300.272727 
L 94.303331 300.272727 
L 94.970073 300.272727 
L 96.970299 300.272727 
L 97.637041 300.272727 
L 98.303783 300.272727 
L 98.970525 300.272727 
L 99.637267 300.272727 
L 100.304009 300.272727 
L 100.970751 300.272727 
L 101.637493 300.272727 
L 102.304235 300.272727 
L 102.970977 300.272727 
L 103.637719 300.272727 
L 104.304461 300.272727 
L 104.971203 300.272727 
L 105.637945 300.272727 
L 106.304687 300.272727 
L 106.971429 300.272727 
L 107.638171 300.272727 
L 108.304912 300.272727 
L 108.971654 300.272727 
L 109.638396 300.272727 
L 110.305138 300.272727 
L 110.97188 300.272727 
L 111.638622 300.272727 
L 112.305364 300.272727 
L 112.972106 300.272727 
L 113.638848 300.272727 
L 114.30559 300.272727 
L 114.972332 300.272727 
L 115.639074 300.272727 
L 116.305816 300.272727 
L 116.972558 300.272727 
L 117.6393 300.272727 
L 118.306042 300.272727 
L 118.972784 300.272727 
L 119.639526 300.272727 
L 120.306268 300.272727 
L 120.97301 300.272727 
L 121.639752 300.272727 
L 122.306494 300.272727 
L 122.973235 300.272727 
L 123.639977 300.272727 
L 124.306719 300.272727 
L 124.973461 300.272727 
L 125.640203 300.272727 
L 126.306945 300.272727 
L 126.973687 300.272727 
L 127.640429 300.272727 
L 128.307171 300.272727 
L 128.973913 300.272727 
L 129.640655 300.272727 
L 130.307397 300.272727 
L 130.974139 300.272727 
L 131.640881 300.272727 
L 132.307623 300.272727 
L 132.974365 300.272727 
L 133.641107 300.272727 
L 134.307849 300.272727 
L 134.974591 300.272727 
L 135.641333 300.272727 
L 136.308075 300.272727 
L 136.974816 300.272727 
L 137.641558 300.272727 
L 138.3083 300.272727 
L 138.975042 300.272727 
L 139.641784 300.272727 
L 140.308526 300.272727 
L 140.975268 300.272727 
L 141.64201 300.272727 
L 142.308752 300.272727 
L 142.975494 300.272727 
L 143.642236 300.272727 
L 144.308978 300.272727 
L 144.97572 300.272727 
L 145.642462 300.272727 
L 146.309204 300.272727 
L 146.975946 300.272727 
L 147.642688 300.272727 
L 148.30943 300.272727 
L 148.976172 300.272727 
L 149.642914 300.272727 
L 150.309656 300.272727 
L 150.976398 300.272727 
L 151.643139 300.272727 
L 152.309881 300.272727 
L 152.976623 300.272727 
L 153.643365 300.272727 
L 154.310107 300.272727 
L 154.976849 300.272727 
L 155.643591 300.272727 
L 156.310333 300.272727 
L 156.977075 300.272727 
L 157.643817 300.272727 
L 158.310559 300.272727 
L 158.977301 300.272727 
L 159.644043 300.272727 
L 160.310785 300.272727 
L 160.977527 300.272727 
L 161.644269 300.272727 
L 162.311011 300.272727 
L 162.977753 300.272727 
L 163.644495 300.272727 
L 164.311237 300.272727 
L 164.977979 300.272727 
L 165.64472 300.272727 
L 166.311462 300.272727 
L 166.978204 300.272727 
L 167.644946 300.272727 
L 168.311688 300.272727 
L 168.97843 300.272727 
L 169.645172 300.272727 
L 170.311914 300.272727 
L 171.645398 300.272727 
L 172.31214 300.272727 
L 172.978882 300.272727 
L 173.645624 300.272727 
L 174.312366 300.272727 
L 174.979108 300.272727 
L 175.64585 300.272727 
L 176.312592 300.272727 
L 176.979334 300.272727 
L 177.646076 300.272727 
L 178.312818 300.272727 
L 178.97956 300.272727 
L 179.646302 300.272727 
L 180.313043 300.272727 
L 180.979785 300.272727 
L 181.646527 300.272727 
L 182.313269 300.272727 
L 182.980011 300.272727 
L 183.646753 300.272727 
L 184.313495 300.272727 
L 184.980237 300.272727 
L 185.646979 300.272727 
L 186.313721 300.272727 
L 186.980463 300.272727 
L 187.647205 300.272727 
L 188.313947 300.272727 
L 188.980689 300.272727 
L 189.647431 300.272727 
L 190.314173 300.272727 
L 190.980915 300.272727 
L 191.647657 300.272727 
L 192.314399 300.272727 
L 192.981141 300.272727 
L 193.647883 300.272727 
L 194.314625 300.272727 
L 194.981366 300.272727 
L 195.648108 300.272727 
L 196.31485 300.272727 
L 196.981592 300.272727 
L 197.648334 300.272727 
L 198.315076 300.272727 
L 198.981818 300.272727 
L 199.64856 300.272727 
L 200.315302 300.272727 
L 200.982044 300.272727 
L 201.648786 300.272727 
L 202.315528 300.272727 
L 202.98227 300.272727 
L 203.649012 300.272727 
L 204.315754 300.272727 
L 204.982496 300.272727 
L 205.649238 300.272727 
L 206.31598 300.272727 
L 206.982722 300.272727 
L 207.649464 300.272727 
L 208.316206 300.272727 
L 208.982947 300.272727 
L 209.649689 300.272727 
L 210.316431 300.272727 
L 210.983173 300.272727 
L 211.649915 300.272727 
L 212.316657 300.272727 
L 212.983399 300.272727 
L 213.650141 300.272727 
L 214.316883 300.272727 
L 214.983625 300.272727 
L 215.650367 300.272727 
L 216.317109 300.272727 
L 216.983851 300.272727 
L 217.650593 300.272727 
L 218.317335 300.272727 
L 218.984077 300.272727 
L 219.650819 300.272727 
L 220.317561 300.272727 
L 220.984303 300.272727 
L 221.651045 300.272727 
L 222.317787 300.272727 
L 222.984529 300.272727 
L 223.65127 300.272727 
L 224.318012 300.272727 
L 224.984754 300.272727 
L 225.651496 300.272727 
L 226.318238 300.272727 
L 226.98498 300.272727 
L 227.651722 300.272727 
L 228.318464 300.272727 
L 228.985206 300.272727 
L 229.651948 300.272727 
L 230.985432 300.272727 
L 231.652174 300.272727 
L 232.318916 300.272727 
L 232.985658 300.272727 
L 233.6524 300.272727 
L 234.319142 300.272727 
L 234.985884 300.272727 
L 235.652626 300.272727 
L 236.319368 300.272727 
L 236.98611 300.272727 
L 237.652851 300.272727 
L 238.319593 300.272727 
L 238.986335 300.272727 
L 239.653077 300.272727 
L 240.319819 300.272727 
L 240.986561 300.272727 
L 241.653303 300.272727 
L 242.320045 300.272727 
L 242.986787 300.272727 
L 243.653529 300.272727 
L 244.320271 300.272727 
L 244.987013 300.272727 
L 245.653755 300.272727 
L 246.320497 300.272727 
L 246.987239 300.272727 
L 247.653981 300.272727 
L 248.320723 300.272727 
L 248.987465 300.272727 
L 249.654207 300.272727 
L 250.320949 300.272727 
L 250.987691 300.272727 
L 251.654433 300.272727 
L 252.321174 300.272727 
L 252.987916 300.272727 
L 253.654658 300.272727 
L 254.3214 300.272727 
L 254.988142 300.272727 
L 255.654884 300.272727 
L 256.321626 300.272727 
L 256.988368 300.272727 
L 257.65511 300.272727 
L 258.321852 300.272727 
L 258.988594 300.272727 
L 259.655336 300.272727 
L 260.322078 300.272727 
L 260.98882 300.272727 
L 261.655562 300.272727 
L 262.322304 300.272727 
L 262.989046 300.272727 
L 263.655788 300.272727 
L 264.32253 300.272727 
L 264.989272 300.272727 
L 265.656014 300.272727 
L 266.322756 300.272727 
L 266.989497 300.272727 
L 267.656239 300.272727 
L 268.322981 300.272727 
L 268.989723 300.272727 
L 269.656465 300.272727 
L 270.323207 300.272727 
L 270.989949 300.272727 
L 271.656691 300.272727 
L 272.323433 300.272727 
L 272.990175 300.272727 
L 273.656917 300.272727 
L 274.323659 300.272727 
L 274.990401 300.272727 
L 275.657143 300.272727 
L 276.323885 300.272727 
L 276.990627 300.272727 
L 277.657369 300.272727 
L 278.324111 300.272727 
L 278.990853 300.272727 
L 279.657595 300.272727 
L 280.324337 300.272727 
L 280.991078 300.272727 
L 281.65782 300.272727 
L 282.324562 300.272727 
L 282.991304 300.272727 
L 283.658046 300.272727 
L 284.324788 300.272727 
L 284.99153 300.272727 
L 285.658272 300.272727 
L 286.325014 300.272727 
L 286.991756 300.272727 
L 287.658498 300.272727 
L 288.32524 300.272727 
L 288.991982 300.272727 
L 289.658724 300.272727 
L 290.325466 300.272727 
L 290.992208 300.272727 
L 291.65895 300.272727 
L 292.325692 300.272727 
L 292.992434 300.272727 
L 293.659176 300.272727 
L 294.325918 300.272727 
L 294.99266 300.272727 
L 295.659401 300.272727 
L 296.326143 300.272727 
L 296.992885 300.272727 
L 297.659627 300.272727 
L 298.326369 300.272727 
L 298.993111 300.272727 
L 299.659853 300.272727 
L 300.326595 300.272727 
L 300.993337 300.272727 
L 301.660079 300.272727 
L 302.326821 300.272727 
L 302.993563 300.272727 
L 303.660305 300.272727 
L 304.327047 300.272727 
L 304.993789 300.272727 
L 305.660531 300.272727 
L 306.327273 300.272727 
L 306.994015 300.272727 
L 307.660757 300.272727 
L 308.327499 300.272727 
L 308.994241 300.272727 
L 309.660982 300.272727 
L 310.327724 300.272727 
L 310.994466 300.272727 
L 311.661208 300.272727 
L 312.32795 300.272727 
L 312.994692 300.272727 
L 313.661434 300.272727 
L 314.328176 300.272727 
L 314.994918 300.272727 
L 315.66166 300.272727 
L 316.328402 300.272727 
L 316.995144 300.272727 
L 317.661886 300.272727 
L 318.328628 300.272727 
L 318.99537 300.272727 
L 319.662112 300.272727 
L 320.328854 300.272727 
L 320.995596 300.272727 
L 321.662338 300.272727 
L 322.32908 300.272727 
L 322.995822 300.272727 
L 323.662564 300.272727 
L 324.329305 300.272727 
L 324.996047 300.272727 
L 325.662789 300.272727 
L 326.329531 300.272727 
L 326.996273 300.272727 
L 327.663015 300.272727 
L 328.329757 300.272727 
L 328.996499 300.272727 
L 329.663241 300.272727 
L 330.329983 300.272727 
L 330.996725 300.272727 
L 331.663467 300.272727 
L 332.330209 300.272727 
L 332.996951 300.272727 
L 333.663693 300.272727 
L 334.330435 300.272727 
L 334.997177 300.272727 
L 335.663919 300.272727 
L 336.330661 300.272727 
L 336.997403 300.272727 
L 337.664145 300.272727 
L 338.330887 300.272727 
L 338.997628 300.272727 
L 339.66437 300.272727 
L 340.331112 300.272727 
L 340.997854 300.272727 
L 341.664596 300.272727 
L 342.331338 300.272727 
L 342.99808 300.272727 
L 343.664822 300.272727 
L 344.331564 300.272727 
L 344.998306 300.272727 
L 345.665048 300.272727 
L 346.33179 300.272727 
L 346.998532 300.272727 
L 347.665274 300.272727 
L 348.332016 300.272727 
L 348.998758 300.272727 
L 349.6655 300.272727 
L 350.332242 300.272727 
L 350.998984 300.272727 
L 351.665726 300.272727 
L 352.332468 300.272727 
L 352.999209 300.272727 
L 353.665951 300.272727 
L 354.332693 300.272727 
L 354.999435 300.272727 
L 355.666177 300.272727 
L 356.332919 300.272727 
L 356.999661 300.272727 
L 357.666403 300.272727 
L 358.333145 300.272727 
L 358.999887 300.272727 
L 359.666629 300.272727 
L 360.333371 300.272727 
L 361.000113 300.272727 
L 361.666855 300.272727 
L 362.333597 300.272727 
L 363.000339 300.272727 
L 363.667081 300.272727 
L 364.333823 300.272727 
L 365.000565 300.272727 
L 373.001468 300.272727 
L 373.66821 300.272727 
L 374.334952 300.272727 
L 375.001694 300.272727 
L 375.668436 300.272727 
L 376.335178 300.272727 
L 377.00192 300.272727 
L 377.668662 300.272727 
L 379.002146 300.272727 
L 379.668888 300.272727 
L 380.33563 300.272727 
L 381.002372 300.272727 
L 381.669113 300.272727 
L 382.335855 300.272727 
L 383.002597 300.272727 
L 383.669339 300.272727 
L 384.336081 300.272727 
L 385.002823 300.272727 
L 385.669565 300.272727 
L 386.336307 300.272727 
L 387.003049 300.272727 
L 387.669791 300.272727 
L 388.336533 300.272727 
L 389.003275 300.272727 
L 389.670017 300.272727 
L 390.336759 300.272727 
L 391.003501 300.272727 
L 391.670243 300.272727 
L 392.336985 300.272727 
L 393.003727 300.272727 
L 393.670469 300.272727 
L 394.337211 300.272727 
L 395.003953 300.272727 
L 395.670695 300.272727 
L 396.337436 300.272727 
L 397.004178 300.272727 
L 397.67092 300.272727 
L 398.337662 300.272727 
L 399.004404 300.272727 
L 399.671146 300.272727 
L 400.337888 300.272727 
L 401.00463 300.272727 
L 401.671372 300.272727 
L 402.338114 300.272727 
L 403.004856 300.272727 
L 403.671598 300.272727 
L 404.33834 300.272727 
L 406.338566 300.272727 
L 407.005308 300.272727 
L 407.67205 300.272727 
L 408.338792 300.272727 
L 409.005534 300.272727 
L 409.672276 300.272727 
L 410.339018 300.272727 
L 411.005759 300.272727 
L 411.672501 300.272727 
L 412.339243 300.272727 
L 413.005985 300.272727 
L 413.672727 300.272727 
L 414.339469 300.272727 
L 415.006211 300.272727 
L 415.672953 300.272727 
L 416.339695 300.272727 
L 417.006437 300.272727 
L 417.673179 300.272727 
L 418.339921 300.272727 
L 419.006663 300.272727 
L 419.673405 300.272727 
L 420.340147 300.272727 
L 421.006889 300.272727 
L 421.673631 300.272727 
L 422.340373 300.272727 
L 423.007115 300.272727 
L 423.673857 300.272727 
L 424.340599 300.272727 
L 425.00734 300.272727 
L 425.674082 300.272727 
L 426.340824 300.272727 
L 427.007566 300.272727 
L 427.674308 300.272727 
L 428.34105 300.272727 
L 429.007792 300.272727 
L 429.674534 300.272727 
L 430.341276 300.272727 
L 431.008018 300.272727 
L 431.67476 300.272727 
L 432.341502 300.272727 
L 433.008244 300.272727 
L 433.674986 300.272727 
L 434.341728 300.272727 
L 435.00847 300.272727 
L 435.675212 300.272727 
L 436.341954 300.272727 
L 437.008696 300.272727 
L 437.675438 300.272727 
L 438.34218 300.272727 
L 439.008922 300.272727 
L 439.675663 300.272727 
L 440.342405 300.272727 
L 441.009147 300.272727 
L 441.675889 300.272727 
L 442.342631 300.272727 
L 443.009373 300.272727 
L 443.676115 300.272727 
L 444.342857 300.272727 
L 445.009599 300.272727 
L 445.676341 300.272727 
L 446.343083 300.272727 
L 447.009825 300.272727 
L 447.676567 300.272727 
L 448.343309 300.272727 
L 449.010051 300.272727 
L 449.676793 300.272727 
L 450.343535 300.272727 
L 451.010277 300.272727 
L 451.677019 300.272727 
L 452.343761 300.272727 
L 453.010503 300.272727 
L 453.677244 300.272727 
L 454.343986 300.272727 
L 455.010728 300.272727 
L 455.67747 300.272727 
L 456.344212 300.272727 
L 457.010954 300.272727 
L 457.677696 300.272727 
L 458.344438 300.272727 
L 459.01118 300.272727 
L 459.677922 300.272727 
L 460.344664 300.272727 
L 461.011406 300.272727 
L 461.678148 300.272727 
L 462.34489 300.272727 
L 463.011632 300.272727 
L 463.678374 300.272727 
L 464.345116 300.272727 
L 465.011858 300.272727 
L 465.6786 300.272727 
L 466.345342 300.272727 
L 467.012084 300.272727 
L 467.678826 300.272727 
L 468.345567 300.272727 
L 469.012309 300.272727 
L 469.679051 300.272727 
L 470.345793 300.272727 
L 471.012535 300.272727 
L 471.679277 300.272727 
L 472.346019 300.272727 
L 473.012761 300.272727 
L 473.679503 300.272727 
L 474.346245 300.272727 
L 475.012987 300.272727 
L 475.679729 300.272727 
L 476.346471 300.272727 
L 477.013213 300.272727 
L 477.679955 300.272727 
L 478.346697 300.272727 
L 479.013439 300.272727 
L 479.680181 300.272727 
L 480.346923 300.272727 
L 481.013665 300.272727 
L 481.680407 300.272727 
L 482.347149 300.272727 
L 483.01389 300.272727 
L 483.680632 300.272727 
L 484.347374 300.272727 
L 485.014116 300.272727 
L 485.680858 300.272727 
L 486.3476 300.272727 
L 487.014342 300.272727 
L 487.681084 300.272727 
L 488.347826 300.272727 
L 489.014568 300.272727 
L 489.68131 300.272727 
L 490.348052 300.272727 
L 491.014794 300.272727 
L 491.681536 300.272727 
L 492.348278 300.272727 
L 493.01502 300.272727 
L 493.681762 300.272727 
L 494.348504 300.272727 
L 495.015246 300.272727 
L 495.681988 300.272727 
L 496.34873 300.272727 
L 497.015471 300.272727 
L 497.682213 300.272727 
L 498.348955 300.272727 
L 499.015697 300.272727 
L 499.682439 300.272727 
L 500.349181 300.272727 
L 501.015923 300.272727 
L 501.682665 300.272727 
L 502.349407 300.272727 
L 503.016149 300.272727 
L 503.682891 300.272727 
L 504.349633 300.272727 
L 505.016375 300.272727 
L 505.683117 300.272727 
L 506.349859 300.272727 
L 507.016601 300.272727 
L 507.683343 300.272727 
L 508.350085 300.272727 
L 509.016827 300.272727 
L 509.683569 300.272727 
L 510.350311 300.272727 
L 511.017053 300.272727 
L 511.683794 300.272727 
L 512.350536 300.272727 
L 513.017278 300.272727 
L 513.68402 300.272727 
L 514.350762 300.272727 
L 515.017504 300.272727 
L 515.684246 300.272727 
L 516.350988 300.272727 
L 517.01773 300.272727 
L 517.684472 300.272727 
L 519.017956 300.272727 
L 519.684698 300.272727 
L 520.35144 300.272727 
L 521.018182 300.272727 
L 521.684924 300.272727 
L 522.351666 300.272727 
L 523.018408 300.272727 
L 523.68515 300.272727 
L 524.351892 300.272727 
L 525.018634 300.272727 
L 525.685375 300.272727 
L 526.352117 300.272727 
L 527.018859 300.272727 
L 527.685601 300.272727 
L 528.352343 300.272727 
L 529.019085 300.272727 
L 529.685827 300.272727 
L 530.352569 300.272727 
L 531.019311 300.272727 
L 531.686053 300.272727 
L 532.352795 300.272727 
L 533.019537 300.272727 
L 533.686279 300.272727 
L 534.353021 300.272727 
L 535.019763 300.272727 
L 535.686505 300.272727 
L 536.353247 300.272727 
L 537.019989 300.272727 
L 537.686731 300.272727 
L 538.353473 300.272727 
L 539.020215 300.272727 
L 539.686957 300.272727 
L 540.353698 300.272727 
L 541.02044 300.272727 
L 541.687182 300.272727 
L 542.353924 300.272727 
L 543.020666 300.272727 
L 543.687408 300.272727 
L 544.35415 300.272727 
L 545.020892 300.272727 
L 545.687634 300.272727 
L 546.354376 300.272727 
L 547.021118 300.272727 
L 547.68786 300.272727 
L 548.354602 300.272727 
L 549.021344 300.272727 
L 549.688086 300.272727 
L 550.354828 300.272727 
L 551.02157 300.272727 
L 551.688312 300.272727 
L 552.355054 300.272727 
L 553.021796 300.272727 
L 553.688538 300.272727 
L 554.35528 300.272727 
L 555.022021 300.272727 
L 555.688763 300.272727 
L 556.355505 300.272727 
L 557.022247 300.272727 
L 557.688989 300.272727 
L 558.355731 300.272727 
L 559.022473 300.272727 
L 559.689215 300.272727 
L 560.355957 300.272727 
L 561.022699 300.272727 
L 561.689441 300.272727 
L 562.356183 300.272727 
L 563.022925 300.272727 
L 563.689667 300.272727 
L 564.356409 300.272727 
L 565.023151 300.272727 
L 565.689893 300.272727 
L 566.356635 300.272727 
L 567.023377 300.272727 
L 567.690119 300.272727 
L 568.356861 300.272727 
L 569.023602 300.272727 
L 569.690344 300.272727 
L 570.357086 300.272727 
L 571.023828 300.272727 
L 571.69057 300.272727 
L 572.357312 300.272727 
L 573.024054 300.272727 
L 573.690796 300.272727 
L 574.357538 300.272727 
L 575.02428 300.272727 
L 575.691022 300.272727 
L 576.357764 300.272727 
L 577.024506 300.272727 
L 577.691248 300.272727 
L 578.35799 300.272727 
L 579.024732 300.272727 
L 579.691474 300.272727 
L 580.358216 300.272727 
L 581.024958 300.272727 
L 581.6917 300.272727 
L 582.358442 300.272727 
L 583.025184 300.272727 
L 583.691925 300.272727 
L 584.358667 300.272727 
L 585.025409 300.272727 
L 585.692151 300.272727 
L 586.358893 300.272727 
L 587.025635 300.272727 
L 587.692377 300.272727 
L 588.359119 300.272727 
L 589.025861 300.272727 
L 589.692603 300.272727 
L 590.359345 300.272727 
L 591.026087 300.272727 
L 591.692829 300.272727 
L 592.359571 300.272727 
L 593.026313 300.272727 
L 593.693055 300.272727 
L 594.359797 300.272727 
L 595.026539 300.272727 
L 595.693281 300.272727 
L 596.360023 300.272727 
L 597.026765 300.272727 
L 597.693506 300.272727 
L 598.360248 300.272727 
L 599.02699 300.272727 
L 599.693732 300.272727 
L 600.360474 300.272727 
L 601.027216 300.272727 
L 601.693958 300.272727 
L 602.3607 300.272727 
L 603.027442 300.272727 
L 603.694184 300.272727 
L 604.360926 300.272727 
L 605.027668 300.272727 
L 605.69441 300.272727 
L 606.361152 300.272727 
L 607.027894 300.272727 
L 607.694636 300.272727 
L 608.361378 300.272727 
L 609.02812 300.272727 
L 609.694862 300.272727 
L 610.361604 300.272727 
L 611.028346 300.272727 
L 611.695088 300.272727 
L 612.361829 300.272727 
L 613.028571 300.272727 
L 613.695313 300.272727 
L 614.362055 300.272727 
L 615.028797 300.272727 
L 615.695539 300.272727 
L 616.362281 300.272727 
L 617.029023 300.272727 
L 617.695765 300.272727 
L 618.362507 300.272727 
L 619.029249 300.272727 
L 619.695991 300.272727 
L 620.362733 300.272727 
L 621.029475 300.272727 
L 621.696217 300.272727 
L 622.362959 300.272727 
L 623.029701 300.272727 
L 623.696443 300.272727 
L 624.363185 300.272727 
L 625.029927 300.272727 
L 625.696669 300.272727 
L 626.363411 300.272727 
L 627.030152 300.272727 
L 627.696894 300.272727 
L 628.363636 300.272727 
L 628.363636 300.272727 
L 628.363636 296.594235 
L 627.696894 296.068736 
L 627.030152 297.119734 
L 626.363411 293.966741 
L 625.696669 298.170732 
L 625.029927 295.543237 
L 624.363185 296.594235 
L 623.696443 298.170732 
L 623.029701 296.068736 
L 622.362959 295.543237 
L 621.696217 297.119734 
L 621.029475 298.170732 
L 620.362733 297.645233 
L 619.695991 297.119734 
L 619.029249 295.017738 
L 618.362507 295.017738 
L 617.695765 293.966741 
L 617.029023 294.492239 
L 616.362281 289.762749 
L 615.695539 295.543237 
L 615.028797 297.645233 
L 614.362055 296.068736 
L 613.695313 297.645233 
L 613.028571 297.645233 
L 612.361829 295.543237 
L 611.695088 295.543237 
L 611.028346 296.594235 
L 610.361604 297.645233 
L 609.694862 296.594235 
L 609.02812 259.809313 
L 608.361378 287.660754 
L 607.694636 287.660754 
L 607.027894 291.339246 
L 606.361152 293.441242 
L 605.69441 270.31929 
L 605.027668 297.645233 
L 604.360926 295.017738 
L 603.694184 295.017738 
L 603.027442 297.645233 
L 602.3607 296.594235 
L 601.693958 297.645233 
L 601.027216 297.645233 
L 600.360474 297.119734 
L 599.693732 297.645233 
L 599.02699 281.354767 
L 598.360248 296.594235 
L 597.693506 290.288248 
L 597.026765 298.170732 
L 596.360023 297.119734 
L 595.693281 271.895787 
L 595.026539 297.119734 
L 594.359797 296.594235 
L 593.693055 297.119734 
L 593.026313 281.880266 
L 592.359571 292.390244 
L 591.692829 298.170732 
L 591.026087 295.017738 
L 590.359345 296.594235 
L 589.692603 268.217295 
L 589.025861 248.773836 
L 588.359119 268.217295 
L 587.692377 292.915743 
L 587.025635 290.813747 
L 586.358893 238.789357 
L 585.692151 240.365854 
L 585.025409 295.543237 
L 584.358667 296.068736 
L 583.691925 297.119734 
L 583.025184 296.594235 
L 582.358442 297.645233 
L 581.6917 296.594235 
L 581.024958 294.492239 
L 580.358216 297.645233 
L 579.691474 298.170732 
L 579.024732 266.640798 
L 578.35799 298.170732 
L 577.691248 291.864745 
L 577.024506 297.119734 
L 576.357764 295.543237 
L 575.691022 297.119734 
L 575.02428 297.119734 
L 574.357538 294.492239 
L 573.690796 296.594235 
L 573.024054 296.594235 
L 572.357312 294.492239 
L 571.69057 278.727273 
L 571.023828 298.696231 
L 570.357086 292.915743 
L 569.690344 295.017738 
L 569.023602 295.017738 
L 568.356861 296.068736 
L 567.690119 278.727273 
L 567.023377 260.86031 
L 566.356635 277.150776 
L 565.689893 290.288248 
L 565.023151 295.543237 
L 564.356409 295.543237 
L 563.689667 296.068736 
L 563.022925 292.915743 
L 562.356183 292.915743 
L 561.689441 294.492239 
L 561.022699 282.405765 
L 560.355957 261.385809 
L 559.689215 290.813747 
L 559.022473 255.079823 
L 558.355731 251.926829 
L 557.688989 288.711752 
L 557.022247 292.390244 
L 556.355505 249.299335 
L 555.688763 290.813747 
L 555.022021 285.558758 
L 554.35528 290.813747 
L 553.688538 293.966741 
L 553.021796 289.762749 
L 552.355054 294.492239 
L 551.688312 278.201774 
L 551.02157 292.915743 
L 550.354828 296.594235 
L 549.688086 296.594235 
L 549.021344 297.119734 
L 548.354602 295.543237 
L 547.68786 274.523282 
L 547.021118 262.962306 
L 546.354376 272.421286 
L 545.687634 296.068736 
L 545.020892 293.441242 
L 544.35415 290.813747 
L 543.687408 291.339246 
L 543.020666 298.170732 
L 542.353924 292.915743 
L 541.687182 296.594235 
L 541.02044 298.170732 
L 540.353698 296.068736 
L 539.686957 266.115299 
L 539.020215 266.115299 
L 538.353473 264.538803 
L 537.686731 230.906874 
L 537.019989 264.013304 
L 536.353247 298.170732 
L 535.686505 298.170732 
L 535.019763 293.966741 
L 534.353021 297.119734 
L 533.686279 274.523282 
L 533.019537 230.381375 
L 532.352795 251.926829 
L 531.686053 298.170732 
L 531.019311 297.119734 
L 530.352569 298.170732 
L 529.685827 288.711752 
L 529.019085 293.441242 
L 528.352343 290.813747 
L 527.685601 291.339246 
L 527.018859 293.441242 
L 526.352117 292.390244 
L 525.685375 293.966741 
L 525.018634 296.594235 
L 524.351892 298.170732 
L 523.68515 295.543237 
L 523.018408 297.645233 
L 522.351666 297.119734 
L 521.684924 296.594235 
L 521.018182 296.594235 
L 520.35144 297.119734 
L 519.684698 295.543237 
L 519.017956 288.186253 
L 517.684472 298.170732 
L 517.01773 297.119734 
L 516.350988 297.119734 
L 515.684246 297.119734 
L 515.017504 290.813747 
L 514.350762 298.170732 
L 513.68402 297.119734 
L 513.017278 297.119734 
L 512.350536 298.170732 
L 511.683794 298.170732 
L 511.017053 296.068736 
L 510.350311 299.221729 
L 509.683569 298.170732 
L 509.016827 288.186253 
L 508.350085 298.170732 
L 507.683343 297.119734 
L 507.016601 296.594235 
L 506.349859 295.543237 
L 505.683117 295.017738 
L 505.016375 297.645233 
L 504.349633 295.017738 
L 503.682891 297.119734 
L 503.016149 297.645233 
L 502.349407 297.119734 
L 501.682665 293.441242 
L 501.015923 297.645233 
L 500.349181 295.543237 
L 499.682439 297.119734 
L 499.015697 296.594235 
L 498.348955 295.017738 
L 497.682213 256.656319 
L 497.015471 279.252772 
L 496.34873 283.456763 
L 495.681988 293.966741 
L 495.015246 266.115299 
L 494.348504 298.170732 
L 493.681762 294.492239 
L 493.01502 297.119734 
L 492.348278 295.017738 
L 491.681536 293.966741 
L 491.014794 295.017738 
L 490.348052 295.017738 
L 489.68131 297.119734 
L 489.014568 296.594235 
L 488.347826 232.48337 
L 487.681084 173.627494 
L 487.014342 204.10643 
L 486.3476 233.008869 
L 485.680858 297.119734 
L 485.014116 294.492239 
L 484.347374 292.390244 
L 483.680632 229.855876 
L 483.01389 241.94235 
L 482.347149 292.390244 
L 481.680407 293.441242 
L 481.013665 288.711752 
L 480.346923 285.033259 
L 479.680181 228.279379 
L 479.013439 226.177384 
L 478.346697 290.813747 
L 477.679955 291.339246 
L 477.013213 287.660754 
L 476.346471 289.237251 
L 475.679729 293.966741 
L 475.012987 295.017738 
L 474.346245 285.558758 
L 473.679503 292.915743 
L 473.012761 269.268293 
L 472.346019 200.953437 
L 471.679277 234.585366 
L 471.012535 295.543237 
L 470.345793 197.274945 
L 469.679051 185.18847 
L 469.012309 294.492239 
L 468.345567 288.711752 
L 467.678826 297.119734 
L 467.012084 270.844789 
L 466.345342 298.170732 
L 465.6786 245.620843 
L 465.011858 247.722838 
L 464.345116 296.068736 
L 463.678374 298.170732 
L 463.011632 297.119734 
L 462.34489 295.543237 
L 461.678148 298.170732 
L 461.011406 294.492239 
L 460.344664 293.441242 
L 459.677922 296.068736 
L 459.01118 200.953437 
L 458.344438 208.83592 
L 457.677696 266.640798 
L 457.010954 294.492239 
L 456.344212 282.931264 
L 455.67747 266.115299 
L 455.010728 243.518847 
L 454.343986 242.993348 
L 453.677244 205.157428 
L 453.010503 234.585366 
L 452.343761 273.472284 
L 451.677019 206.208426 
L 451.010277 248.248337 
L 450.343535 280.303769 
L 449.676793 287.660754 
L 449.010051 296.594235 
L 448.343309 295.543237 
L 447.676567 293.966741 
L 447.009825 296.068736 
L 446.343083 294.492239 
L 445.676341 287.135255 
L 445.009599 255.605322 
L 444.342857 290.288248 
L 443.676115 298.170732 
L 443.009373 295.543237 
L 442.342631 293.966741 
L 441.675889 287.660754 
L 441.009147 297.645233 
L 440.342405 296.068736 
L 439.675663 296.068736 
L 439.008922 295.543237 
L 438.34218 285.033259 
L 437.675438 296.068736 
L 437.008696 273.997783 
L 436.341954 285.558758 
L 435.675212 293.966741 
L 435.00847 293.966741 
L 434.341728 296.594235 
L 433.674986 296.594235 
L 433.008244 296.594235 
L 432.341502 287.660754 
L 431.67476 256.13082 
L 431.008018 247.197339 
L 430.341276 273.472284 
L 429.674534 288.711752 
L 429.007792 291.864745 
L 428.34105 278.727273 
L 427.674308 255.605322 
L 427.007566 244.044346 
L 426.340824 248.773836 
L 425.674082 248.248337 
L 425.00734 239.840355 
L 424.340599 294.492239 
L 423.673857 291.339246 
L 423.007115 254.554324 
L 422.340373 287.660754 
L 421.673631 288.186253 
L 421.006889 253.503326 
L 420.340147 295.017738 
L 419.673405 287.135255 
L 419.006663 290.813747 
L 418.339921 248.773836 
L 417.673179 225.126386 
L 417.006437 239.314856 
L 416.339695 266.640798 
L 415.672953 285.033259 
L 415.006211 290.288248 
L 414.339469 296.068736 
L 413.672727 248.248337 
L 413.005985 266.115299 
L 412.339243 283.982262 
L 411.672501 233.008869 
L 411.005759 238.263858 
L 410.339018 265.5898 
L 409.672276 271.370288 
L 409.005534 176.780488 
L 408.338792 289.762749 
L 407.67205 262.962306 
L 407.005308 202.529933 
L 406.338566 201.478936 
L 404.33834 273.472284 
L 403.671598 236.687361 
L 403.004856 191.494457 
L 402.338114 242.467849 
L 401.671372 243.518847 
L 401.00463 286.084257 
L 400.337888 272.421286 
L 399.671146 270.844789 
L 399.004404 174.152993 
L 398.337662 222.498891 
L 397.67092 282.405765 
L 397.004178 259.809313 
L 396.337436 265.5898 
L 395.670695 182.560976 
L 395.003953 228.804878 
L 394.337211 270.31929 
L 393.670469 228.279379 
L 393.003727 219.871397 
L 392.336985 237.21286 
L 391.670243 254.028825 
L 391.003501 262.962306 
L 390.336759 217.769401 
L 389.670017 213.039911 
L 389.003275 236.687361 
L 388.336533 224.600887 
L 387.669791 212.514412 
L 387.003049 265.5898 
L 386.336307 178.882483 
L 385.669565 219.871397 
L 385.002823 232.48337 
L 384.336081 209.886918 
L 383.669339 104.78714 
L 383.002597 246.146341 
L 382.335855 265.064302 
L 381.669113 189.91796 
L 381.002372 188.341463 
L 380.33563 239.840355 
L 379.668888 168.372506 
L 379.002146 67.476718 
L 377.668662 228.279379 
L 377.00192 244.044346 
L 376.335178 204.631929 
L 375.668436 220.396896 
L 375.001694 178.882483 
L 374.334952 160.490022 
L 373.66821 189.392461 
L 373.001468 262.962306 
L 365.000565 198.851441 
L 364.333823 188.866962 
L 363.667081 256.13082 
L 363.000339 288.711752 
L 362.333597 278.201774 
L 361.666855 276.625277 
L 361.000113 273.472284 
L 360.333371 247.197339 
L 359.666629 275.04878 
L 358.999887 285.033259 
L 358.333145 288.186253 
L 357.666403 251.926829 
L 356.999661 196.749446 
L 356.332919 142.62306 
L 355.666177 58.017738 
L 354.999435 161.54102 
L 354.332693 275.04878 
L 353.665951 275.574279 
L 352.999209 281.354767 
L 352.332468 270.844789 
L 351.665726 242.993348 
L 350.998984 272.946785 
L 350.332242 279.778271 
L 349.6655 286.609756 
L 348.998758 287.135255 
L 348.332016 289.237251 
L 347.665274 283.982262 
L 346.998532 274.523282 
L 346.33179 169.949002 
L 345.665048 167.321508 
L 344.998306 201.478936 
L 344.331564 190.443459 
L 343.664822 214.616408 
L 342.99808 279.778271 
L 342.331338 272.421286 
L 341.664596 241.416851 
L 340.997854 284.507761 
L 340.331112 273.997783 
L 339.66437 270.31929 
L 338.997628 254.554324 
L 338.330887 190.968958 
L 337.664145 198.851441 
L 336.997403 247.197339 
L 336.330661 204.631929 
L 335.663919 196.749446 
L 334.997177 180.45898 
L 334.330435 173.627494 
L 333.663693 171.525499 
L 332.996951 185.713969 
L 332.330209 144.725055 
L 331.663467 117.924612 
L 330.996725 171.525499 
L 330.329983 195.172949 
L 329.663241 190.443459 
L 328.996499 162.066519 
L 328.329757 179.933481 
L 327.663015 204.631929 
L 326.996273 149.454545 
L 326.329531 122.128603 
L 325.662789 157.337029 
L 324.996047 209.886918 
L 324.329305 210.937916 
L 323.662564 186.239468 
L 322.995822 207.259424 
L 322.32908 235.110865 
L 321.662338 292.390244 
L 320.995596 287.135255 
L 320.328854 230.906874 
L 319.662112 234.585366 
L 318.99537 288.711752 
L 318.328628 284.507761 
L 317.661886 229.855876 
L 316.995144 282.931264 
L 316.328402 289.762749 
L 315.66166 280.829268 
L 314.994918 262.962306 
L 314.328176 237.738359 
L 313.661434 291.864745 
L 312.994692 284.507761 
L 312.32795 286.609756 
L 311.661208 290.288248 
L 310.994466 213.56541 
L 310.327724 249.299335 
L 309.660982 292.390244 
L 308.994241 276.099778 
L 308.327499 272.421286 
L 307.660757 272.421286 
L 306.994015 287.660754 
L 306.327273 286.084257 
L 305.660531 291.864745 
L 304.993789 287.660754 
L 304.327047 288.186253 
L 303.660305 282.931264 
L 302.993563 291.864745 
L 302.326821 282.405765 
L 301.660079 290.813747 
L 300.993337 235.636364 
L 300.326595 258.758315 
L 299.659853 289.762749 
L 298.993111 230.381375 
L 298.326369 255.079823 
L 297.659627 288.711752 
L 296.992885 279.778271 
L 296.326143 290.288248 
L 295.659401 277.150776 
L 294.99266 256.13082 
L 294.325918 285.558758 
L 293.659176 290.813747 
L 292.992434 286.084257 
L 292.325692 284.507761 
L 291.65895 292.390244 
L 290.992208 279.778271 
L 290.325466 280.829268 
L 289.658724 271.895787 
L 288.991982 276.625277 
L 288.32524 276.099778 
L 287.658498 253.503326 
L 286.991756 275.574279 
L 286.325014 287.135255 
L 285.658272 265.5898 
L 284.99153 268.217295 
L 284.324788 213.039911 
L 283.658046 143.674058 
L 282.991304 189.392461 
L 282.324562 180.45898 
L 281.65782 292.915743 
L 280.991078 268.742794 
L 280.324337 268.217295 
L 279.657595 291.339246 
L 278.990853 291.339246 
L 278.324111 286.084257 
L 277.657369 270.31929 
L 276.990627 259.283814 
L 276.323885 261.385809 
L 275.657143 291.339246 
L 274.990401 291.864745 
L 274.323659 285.033259 
L 273.656917 251.926829 
L 272.990175 290.813747 
L 272.323433 287.660754 
L 271.656691 241.416851 
L 270.989949 261.385809 
L 270.323207 279.778271 
L 269.656465 284.507761 
L 268.989723 280.829268 
L 268.322981 267.691796 
L 267.656239 287.660754 
L 266.989497 271.895787 
L 266.322756 278.727273 
L 265.656014 285.033259 
L 264.989272 285.558758 
L 264.32253 284.507761 
L 263.655788 281.880266 
L 262.989046 222.498891 
L 262.322304 258.232816 
L 261.655562 262.436807 
L 260.98882 282.931264 
L 260.322078 278.201774 
L 259.655336 267.691796 
L 258.988594 279.778271 
L 258.321852 242.993348 
L 257.65511 264.013304 
L 256.988368 277.676275 
L 256.321626 267.166297 
L 255.654884 275.574279 
L 254.988142 280.303769 
L 254.3214 207.784922 
L 253.654658 270.31929 
L 252.987916 278.201774 
L 252.321174 272.421286 
L 251.654433 273.997783 
L 250.987691 268.742794 
L 250.320949 265.5898 
L 249.654207 250.875831 
L 248.987465 224.600887 
L 248.320723 224.600887 
L 247.653981 235.110865 
L 246.987239 276.099778 
L 246.320497 270.31929 
L 245.653755 234.059867 
L 244.987013 186.764967 
L 244.320271 176.780488 
L 243.653529 226.702882 
L 242.986787 267.166297 
L 242.320045 270.844789 
L 241.653303 285.558758 
L 240.986561 229.330377 
L 240.319819 279.778271 
L 239.653077 279.252772 
L 238.986335 252.977827 
L 238.319593 269.793792 
L 237.652851 196.749446 
L 236.98611 222.498891 
L 236.319368 209.361419 
L 235.652626 235.636364 
L 234.985884 254.554324 
L 234.319142 267.691796 
L 233.6524 267.166297 
L 232.985658 277.676275 
L 232.318916 276.099778 
L 231.652174 244.044346 
L 230.985432 195.172949 
L 229.651948 277.150776 
L 228.985206 264.538803 
L 228.318464 247.722838 
L 227.651722 240.891353 
L 226.98498 261.911308 
L 226.318238 268.217295 
L 225.651496 242.467849 
L 224.984754 268.217295 
L 224.318012 247.197339 
L 223.65127 251.926829 
L 222.984529 230.906874 
L 222.317787 233.008869 
L 221.651045 246.67184 
L 220.984303 239.840355 
L 220.317561 203.055432 
L 219.650819 83.241685 
L 218.984077 167.321508 
L 218.317335 166.796009 
L 217.650593 161.54102 
L 216.983851 150.505543 
L 216.317109 260.86031 
L 215.650367 213.56541 
L 214.983625 257.181818 
L 214.316883 272.421286 
L 213.650141 269.268293 
L 212.983399 276.625277 
L 212.316657 268.217295 
L 211.649915 280.829268 
L 210.983173 237.21286 
L 210.316431 267.691796 
L 209.649689 270.31929 
L 208.982947 283.982262 
L 208.316206 227.228381 
L 207.649464 211.988914 
L 206.982722 266.640798 
L 206.31598 191.494457 
L 205.649238 197.800443 
L 204.982496 184.137472 
L 204.315754 199.902439 
L 203.649012 214.090909 
L 202.98227 199.37694 
L 202.315528 157.337029 
L 201.648786 220.396896 
L 200.982044 256.656319 
L 200.315302 280.303769 
L 199.64856 261.911308 
L 198.981818 277.676275 
L 198.315076 262.436807 
L 197.648334 276.625277 
L 196.981592 277.150776 
L 196.31485 267.166297 
L 195.648108 265.5898 
L 194.981366 269.268293 
L 194.314625 239.840355 
L 193.647883 261.385809 
L 192.981141 261.911308 
L 192.314399 255.605322 
L 191.647657 275.04878 
L 190.980915 279.778271 
L 190.314173 265.5898 
L 189.647431 235.110865 
L 188.980689 190.968958 
L 188.313947 242.993348 
L 187.647205 178.356984 
L 186.980463 180.45898 
L 186.313721 269.793792 
L 185.646979 287.135255 
L 184.980237 142.097561 
L 184.313495 124.230599 
L 183.646753 223.02439 
L 182.980011 249.299335 
L 182.313269 277.676275 
L 181.646527 287.660754 
L 180.979785 279.778271 
L 180.313043 202.529933 
L 179.646302 277.150776 
L 178.97956 257.181818 
L 178.312818 265.064302 
L 177.646076 282.931264 
L 176.979334 279.778271 
L 176.312592 278.201774 
L 175.64585 258.758315 
L 174.979108 241.94235 
L 174.312366 285.033259 
L 173.645624 285.558758 
L 172.978882 255.605322 
L 172.31214 192.545455 
L 171.645398 209.361419 
L 170.311914 268.742794 
L 169.645172 237.21286 
L 168.97843 224.075388 
L 168.311688 282.931264 
L 167.644946 271.370288 
L 166.978204 287.135255 
L 166.311462 253.503326 
L 165.64472 292.390244 
L 164.977979 285.558758 
L 164.311237 280.303769 
L 163.644495 282.405765 
L 162.977753 286.084257 
L 162.311011 272.421286 
L 161.644269 282.405765 
L 160.977527 277.676275 
L 160.310785 256.13082 
L 159.644043 286.084257 
L 158.977301 279.252772 
L 158.310559 236.687361 
L 157.643817 232.48337 
L 156.977075 286.609756 
L 156.310333 255.605322 
L 155.643591 254.028825 
L 154.976849 234.585366 
L 154.310107 255.079823 
L 153.643365 282.931264 
L 152.976623 286.084257 
L 152.309881 286.609756 
L 151.643139 266.640798 
L 150.976398 288.186253 
L 150.309656 194.121951 
L 149.642914 41.727273 
L 148.976172 128.43459 
L 148.30943 74.308204 
L 147.642688 84.818182 
L 146.975946 160.490022 
L 146.309204 115.822616 
L 145.642462 244.044346 
L 144.97572 271.895787 
L 144.308978 293.441242 
L 143.642236 229.330377 
L 142.975494 192.019956 
L 142.308752 189.392461 
L 141.64201 194.121951 
L 140.975268 185.713969 
L 140.308526 210.937916 
L 139.641784 211.463415 
L 138.975042 210.937916 
L 138.3083 240.891353 
L 137.641558 288.186253 
L 136.974816 279.252772 
L 136.308075 286.084257 
L 135.641333 276.625277 
L 134.974591 270.844789 
L 134.307849 269.268293 
L 133.641107 250.350333 
L 132.974365 282.405765 
L 132.307623 280.829268 
L 131.640881 255.079823 
L 130.974139 271.370288 
L 130.307397 257.181818 
L 129.640655 242.993348 
L 128.973913 269.793792 
L 128.307171 236.161863 
L 127.640429 261.911308 
L 126.973687 159.439024 
L 126.306945 96.379157 
L 125.640203 186.764967 
L 124.973461 187.290466 
L 124.306719 190.968958 
L 123.639977 196.223947 
L 122.973235 166.27051 
L 122.306494 190.968958 
L 121.639752 169.423503 
L 120.97301 183.086475 
L 120.306268 182.560976 
L 119.639526 192.545455 
L 118.972784 182.560976 
L 118.306042 228.804878 
L 117.6393 278.201774 
L 116.972558 194.121951 
L 116.305816 189.91796 
L 115.639074 177.831486 
L 114.972332 179.407982 
L 114.30559 203.055432 
L 113.638848 204.631929 
L 112.972106 128.960089 
L 112.305364 155.235033 
L 111.638622 66.95122 
L 110.97188 100.583149 
L 110.305138 119.501109 
L 109.638396 143.674058 
L 108.971654 203.055432 
L 108.304912 200.953437 
L 107.638171 209.886918 
L 106.971429 265.064302 
L 106.304687 283.982262 
L 105.637945 283.456763 
L 104.971203 188.866962 
L 104.304461 115.822616 
L 103.637719 139.995565 
L 102.970977 140.521064 
L 102.304235 197.274945 
L 101.637493 205.157428 
L 100.970751 204.631929 
L 100.304009 140.521064 
L 99.637267 208.310421 
L 98.970525 265.5898 
L 98.303783 238.263858 
L 97.637041 255.605322 
L 96.970299 285.558758 
L 94.970073 284.507761 
L 94.303331 197.274945 
L 93.636589 228.804878 
L 92.969848 262.962306 
L 92.303106 280.303769 
L 91.636364 275.04878 
z
" clip-path="url(#p7f4aa0384a)" style="fill: #ffa07a; fill-opacity: 0.3"/>
   </g>
   <g id="matplotlib.axis_1">
    <g id="xtick_1">
     <g id="line2d_1">
      <path d="M 91.636364 313.2 
L 91.636364 28.8 
" clip-path="url(#p7f4aa0384a)" style="fill: none; stroke-dasharray: 6.4,1.6,1,1.6; stroke-dashoffset: 0; stroke: #808080; stroke-opacity: 0.3"/>
     </g>
     <g id="line2d_2">
      <defs>
       <path id="mcafa36b0a7" d="M 0 0 
L 0 3.5 
" style="stroke: #000000; stroke-width: 0.8"/>
      </defs>
      <g>
       <use xlink:href="#mcafa36b0a7" x="91.636364" y="313.2" style="stroke: #000000; stroke-width: 0.8"/>
      </g>
     </g>
     <g id="text_1">
      <!-- 2020-11-20 -->
      <g transform="translate(62.578551 327.798437) scale(0.1 -0.1)">
       <defs>
        <path id="DejaVuSans-32" d="M 1228 531 
L 3431 531 
L 3431 0 
L 469 0 
L 469 531 
Q 828 903 1448 1529 
Q 2069 2156 2228 2338 
Q 2531 2678 2651 2914 
Q 2772 3150 2772 3378 
Q 2772 3750 2511 3984 
Q 2250 4219 1831 4219 
Q 1534 4219 1204 4116 
Q 875 4013 500 3803 
L 500 4441 
Q 881 4594 1212 4672 
Q 1544 4750 1819 4750 
Q 2544 4750 2975 4387 
Q 3406 4025 3406 3419 
Q 3406 3131 3298 2873 
Q 3191 2616 2906 2266 
Q 2828 2175 2409 1742 
Q 1991 1309 1228 531 
z
" transform="scale(0.015625)"/>
        <path id="DejaVuSans-30" d="M 2034 4250 
Q 1547 4250 1301 3770 
Q 1056 3291 1056 2328 
Q 1056 1369 1301 889 
Q 1547 409 2034 409 
Q 2525 409 2770 889 
Q 3016 1369 3016 2328 
Q 3016 3291 2770 3770 
Q 2525 4250 2034 4250 
z
M 2034 4750 
Q 2819 4750 3233 4129 
Q 3647 3509 3647 2328 
Q 3647 1150 3233 529 
Q 2819 -91 2034 -91 
Q 1250 -91 836 529 
Q 422 1150 422 2328 
Q 422 3509 836 4129 
Q 1250 4750 2034 4750 
z
" transform="scale(0.015625)"/>
        <path id="DejaVuSans-2d" d="M 313 2009 
L 1997 2009 
L 1997 1497 
L 313 1497 
L 313 2009 
z
" transform="scale(0.015625)"/>
        <path id="DejaVuSans-31" d="M 794 531 
L 1825 531 
L 1825 4091 
L 703 3866 
L 703 4441 
L 1819 4666 
L 2450 4666 
L 2450 531 
L 3481 531 
L 3481 0 
L 794 0 
L 794 531 
z
" transform="scale(0.015625)"/>
       </defs>
       <use xlink:href="#DejaVuSans-32"/>
       <use xlink:href="#DejaVuSans-30" x="63.623047"/>
       <use xlink:href="#DejaVuSans-32" x="127.246094"/>
       <use xlink:href="#DejaVuSans-30" x="190.869141"/>
       <use xlink:href="#DejaVuSans-2d" x="254.492188"/>
       <use xlink:href="#DejaVuSans-31" x="290.576172"/>
       <use xlink:href="#DejaVuSans-31" x="354.199219"/>
       <use xlink:href="#DejaVuSans-2d" x="417.822266"/>
       <use xlink:href="#DejaVuSans-32" x="453.90625"/>
       <use xlink:href="#DejaVuSans-30" x="517.529297"/>
      </g>
     </g>
    </g>
    <g id="xtick_2">
     <g id="line2d_3">
      <path d="M 168.311688 313.2 
L 168.311688 28.8 
" clip-path="url(#p7f4aa0384a)" style="fill: none; stroke-dasharray: 6.4,1.6,1,1.6; stroke-dashoffset: 0; stroke: #808080; stroke-opacity: 0.3"/>
     </g>
     <g id="line2d_4">
      <g>
       <use xlink:href="#mcafa36b0a7" x="168.311688" y="313.2" style="stroke: #000000; stroke-width: 0.8"/>
      </g>
     </g>
     <g id="text_2">
      <!-- 2021-03-15 -->
      <g transform="translate(139.253876 327.798437) scale(0.1 -0.1)">
       <defs>
        <path id="DejaVuSans-33" d="M 2597 2516 
Q 3050 2419 3304 2112 
Q 3559 1806 3559 1356 
Q 3559 666 3084 287 
Q 2609 -91 1734 -91 
Q 1441 -91 1130 -33 
Q 819 25 488 141 
L 488 750 
Q 750 597 1062 519 
Q 1375 441 1716 441 
Q 2309 441 2620 675 
Q 2931 909 2931 1356 
Q 2931 1769 2642 2001 
Q 2353 2234 1838 2234 
L 1294 2234 
L 1294 2753 
L 1863 2753 
Q 2328 2753 2575 2939 
Q 2822 3125 2822 3475 
Q 2822 3834 2567 4026 
Q 2313 4219 1838 4219 
Q 1578 4219 1281 4162 
Q 984 4106 628 3988 
L 628 4550 
Q 988 4650 1302 4700 
Q 1616 4750 1894 4750 
Q 2613 4750 3031 4423 
Q 3450 4097 3450 3541 
Q 3450 3153 3228 2886 
Q 3006 2619 2597 2516 
z
" transform="scale(0.015625)"/>
        <path id="DejaVuSans-35" d="M 691 4666 
L 3169 4666 
L 3169 4134 
L 1269 4134 
L 1269 2991 
Q 1406 3038 1543 3061 
Q 1681 3084 1819 3084 
Q 2600 3084 3056 2656 
Q 3513 2228 3513 1497 
Q 3513 744 3044 326 
Q 2575 -91 1722 -91 
Q 1428 -91 1123 -41 
Q 819 9 494 109 
L 494 744 
Q 775 591 1075 516 
Q 1375 441 1709 441 
Q 2250 441 2565 725 
Q 2881 1009 2881 1497 
Q 2881 1984 2565 2268 
Q 2250 2553 1709 2553 
Q 1456 2553 1204 2497 
Q 953 2441 691 2322 
L 691 4666 
z
" transform="scale(0.015625)"/>
       </defs>
       <use xlink:href="#DejaVuSans-32"/>
       <use xlink:href="#DejaVuSans-30" x="63.623047"/>
       <use xlink:href="#DejaVuSans-32" x="127.246094"/>
       <use xlink:href="#DejaVuSans-31" x="190.869141"/>
       <use xlink:href="#DejaVuSans-2d" x="254.492188"/>
       <use xlink:href="#DejaVuSans-30" x="290.576172"/>
       <use xlink:href="#DejaVuSans-33" x="354.199219"/>
       <use xlink:href="#DejaVuSans-2d" x="417.822266"/>
       <use xlink:href="#DejaVuSans-31" x="453.90625"/>
       <use xlink:href="#DejaVuSans-35" x="517.529297"/>
      </g>
     </g>
    </g>
    <g id="xtick_3">
     <g id="line2d_5">
      <path d="M 244.987013 313.2 
L 244.987013 28.8 
" clip-path="url(#p7f4aa0384a)" style="fill: none; stroke-dasharray: 6.4,1.6,1,1.6; stroke-dashoffset: 0; stroke: #808080; stroke-opacity: 0.3"/>
     </g>
     <g id="line2d_6">
      <g>
       <use xlink:href="#mcafa36b0a7" x="244.987013" y="313.2" style="stroke: #000000; stroke-width: 0.8"/>
      </g>
     </g>
     <g id="text_3">
      <!-- 2021-07-08 -->
      <g transform="translate(215.9292 327.798437) scale(0.1 -0.1)">
       <defs>
        <path id="DejaVuSans-37" d="M 525 4666 
L 3525 4666 
L 3525 4397 
L 1831 0 
L 1172 0 
L 2766 4134 
L 525 4134 
L 525 4666 
z
" transform="scale(0.015625)"/>
        <path id="DejaVuSans-38" d="M 2034 2216 
Q 1584 2216 1326 1975 
Q 1069 1734 1069 1313 
Q 1069 891 1326 650 
Q 1584 409 2034 409 
Q 2484 409 2743 651 
Q 3003 894 3003 1313 
Q 3003 1734 2745 1975 
Q 2488 2216 2034 2216 
z
M 1403 2484 
Q 997 2584 770 2862 
Q 544 3141 544 3541 
Q 544 4100 942 4425 
Q 1341 4750 2034 4750 
Q 2731 4750 3128 4425 
Q 3525 4100 3525 3541 
Q 3525 3141 3298 2862 
Q 3072 2584 2669 2484 
Q 3125 2378 3379 2068 
Q 3634 1759 3634 1313 
Q 3634 634 3220 271 
Q 2806 -91 2034 -91 
Q 1263 -91 848 271 
Q 434 634 434 1313 
Q 434 1759 690 2068 
Q 947 2378 1403 2484 
z
M 1172 3481 
Q 1172 3119 1398 2916 
Q 1625 2713 2034 2713 
Q 2441 2713 2670 2916 
Q 2900 3119 2900 3481 
Q 2900 3844 2670 4047 
Q 2441 4250 2034 4250 
Q 1625 4250 1398 4047 
Q 1172 3844 1172 3481 
z
" transform="scale(0.015625)"/>
       </defs>
       <use xlink:href="#DejaVuSans-32"/>
       <use xlink:href="#DejaVuSans-30" x="63.623047"/>
       <use xlink:href="#DejaVuSans-32" x="127.246094"/>
       <use xlink:href="#DejaVuSans-31" x="190.869141"/>
       <use xlink:href="#DejaVuSans-2d" x="254.492188"/>
       <use xlink:href="#DejaVuSans-30" x="290.576172"/>
       <use xlink:href="#DejaVuSans-37" x="354.199219"/>
       <use xlink:href="#DejaVuSans-2d" x="417.822266"/>
       <use xlink:href="#DejaVuSans-30" x="453.90625"/>
       <use xlink:href="#DejaVuSans-38" x="517.529297"/>
      </g>
     </g>
    </g>
    <g id="xtick_4">
     <g id="line2d_7">
      <path d="M 321.662338 313.2 
L 321.662338 28.8 
" clip-path="url(#p7f4aa0384a)" style="fill: none; stroke-dasharray: 6.4,1.6,1,1.6; stroke-dashoffset: 0; stroke: #808080; stroke-opacity: 0.3"/>
     </g>
     <g id="line2d_8">
      <g>
       <use xlink:href="#mcafa36b0a7" x="321.662338" y="313.2" style="stroke: #000000; stroke-width: 0.8"/>
      </g>
     </g>
     <g id="text_4">
      <!-- 2021-10-31 -->
      <g transform="translate(292.604525 327.798437) scale(0.1 -0.1)">
       <use xlink:href="#DejaVuSans-32"/>
       <use xlink:href="#DejaVuSans-30" x="63.623047"/>
       <use xlink:href="#DejaVuSans-32" x="127.246094"/>
       <use xlink:href="#DejaVuSans-31" x="190.869141"/>
       <use xlink:href="#DejaVuSans-2d" x="254.492188"/>
       <use xlink:href="#DejaVuSans-31" x="290.576172"/>
       <use xlink:href="#DejaVuSans-30" x="354.199219"/>
       <use xlink:href="#DejaVuSans-2d" x="417.822266"/>
       <use xlink:href="#DejaVuSans-33" x="453.90625"/>
       <use xlink:href="#DejaVuSans-31" x="517.529297"/>
      </g>
     </g>
    </g>
    <g id="xtick_5">
     <g id="line2d_9">
      <path d="M 398.337662 313.2 
L 398.337662 28.8 
" clip-path="url(#p7f4aa0384a)" style="fill: none; stroke-dasharray: 6.4,1.6,1,1.6; stroke-dashoffset: 0; stroke: #808080; stroke-opacity: 0.3"/>
     </g>
     <g id="line2d_10">
      <g>
       <use xlink:href="#mcafa36b0a7" x="398.337662" y="313.2" style="stroke: #000000; stroke-width: 0.8"/>
      </g>
     </g>
     <g id="text_5">
      <!-- 2022-02-23 -->
      <g transform="translate(369.27985 327.798437) scale(0.1 -0.1)">
       <use xlink:href="#DejaVuSans-32"/>
       <use xlink:href="#DejaVuSans-30" x="63.623047"/>
       <use xlink:href="#DejaVuSans-32" x="127.246094"/>
       <use xlink:href="#DejaVuSans-32" x="190.869141"/>
       <use xlink:href="#DejaVuSans-2d" x="254.492188"/>
       <use xlink:href="#DejaVuSans-30" x="290.576172"/>
       <use xlink:href="#DejaVuSans-32" x="354.199219"/>
       <use xlink:href="#DejaVuSans-2d" x="417.822266"/>
       <use xlink:href="#DejaVuSans-32" x="453.90625"/>
       <use xlink:href="#DejaVuSans-33" x="517.529297"/>
      </g>
     </g>
    </g>
    <g id="xtick_6">
     <g id="line2d_11">
      <path d="M 475.012987 313.2 
L 475.012987 28.8 
" clip-path="url(#p7f4aa0384a)" style="fill: none; stroke-dasharray: 6.4,1.6,1,1.6; stroke-dashoffset: 0; stroke: #808080; stroke-opacity: 0.3"/>
     </g>
     <g id="line2d_12">
      <g>
       <use xlink:href="#mcafa36b0a7" x="475.012987" y="313.2" style="stroke: #000000; stroke-width: 0.8"/>
      </g>
     </g>
     <g id="text_6">
      <!-- 2022-06-18 -->
      <g transform="translate(445.955175 327.798437) scale(0.1 -0.1)">
       <defs>
        <path id="DejaVuSans-36" d="M 2113 2584 
Q 1688 2584 1439 2293 
Q 1191 2003 1191 1497 
Q 1191 994 1439 701 
Q 1688 409 2113 409 
Q 2538 409 2786 701 
Q 3034 994 3034 1497 
Q 3034 2003 2786 2293 
Q 2538 2584 2113 2584 
z
M 3366 4563 
L 3366 3988 
Q 3128 4100 2886 4159 
Q 2644 4219 2406 4219 
Q 1781 4219 1451 3797 
Q 1122 3375 1075 2522 
Q 1259 2794 1537 2939 
Q 1816 3084 2150 3084 
Q 2853 3084 3261 2657 
Q 3669 2231 3669 1497 
Q 3669 778 3244 343 
Q 2819 -91 2113 -91 
Q 1303 -91 875 529 
Q 447 1150 447 2328 
Q 447 3434 972 4092 
Q 1497 4750 2381 4750 
Q 2619 4750 2861 4703 
Q 3103 4656 3366 4563 
z
" transform="scale(0.015625)"/>
       </defs>
       <use xlink:href="#DejaVuSans-32"/>
       <use xlink:href="#DejaVuSans-30" x="63.623047"/>
       <use xlink:href="#DejaVuSans-32" x="127.246094"/>
       <use xlink:href="#DejaVuSans-32" x="190.869141"/>
       <use xlink:href="#DejaVuSans-2d" x="254.492188"/>
       <use xlink:href="#DejaVuSans-30" x="290.576172"/>
       <use xlink:href="#DejaVuSans-36" x="354.199219"/>
       <use xlink:href="#DejaVuSans-2d" x="417.822266"/>
       <use xlink:href="#DejaVuSans-31" x="453.90625"/>
       <use xlink:href="#DejaVuSans-38" x="517.529297"/>
      </g>
     </g>
    </g>
    <g id="xtick_7">
     <g id="line2d_13">
      <path d="M 551.688312 313.2 
L 551.688312 28.8 
" clip-path="url(#p7f4aa0384a)" style="fill: none; stroke-dasharray: 6.4,1.6,1,1.6; stroke-dashoffset: 0; stroke: #808080; stroke-opacity: 0.3"/>
     </g>
     <g id="line2d_14">
      <g>
       <use xlink:href="#mcafa36b0a7" x="551.688312" y="313.2" style="stroke: #000000; stroke-width: 0.8"/>
      </g>
     </g>
     <g id="text_7">
      <!-- 2022-10-11 -->
      <g transform="translate(522.630499 327.798437) scale(0.1 -0.1)">
       <use xlink:href="#DejaVuSans-32"/>
       <use xlink:href="#DejaVuSans-30" x="63.623047"/>
       <use xlink:href="#DejaVuSans-32" x="127.246094"/>
       <use xlink:href="#DejaVuSans-32" x="190.869141"/>
       <use xlink:href="#DejaVuSans-2d" x="254.492188"/>
       <use xlink:href="#DejaVuSans-31" x="290.576172"/>
       <use xlink:href="#DejaVuSans-30" x="354.199219"/>
       <use xlink:href="#DejaVuSans-2d" x="417.822266"/>
       <use xlink:href="#DejaVuSans-31" x="453.90625"/>
       <use xlink:href="#DejaVuSans-31" x="517.529297"/>
      </g>
     </g>
    </g>
    <g id="xtick_8">
     <g id="line2d_15">
      <path d="M 628.363636 313.2 
L 628.363636 28.8 
" clip-path="url(#p7f4aa0384a)" style="fill: none; stroke-dasharray: 6.4,1.6,1,1.6; stroke-dashoffset: 0; stroke: #808080; stroke-opacity: 0.3"/>
     </g>
     <g id="line2d_16">
      <g>
       <use xlink:href="#mcafa36b0a7" x="628.363636" y="313.2" style="stroke: #000000; stroke-width: 0.8"/>
      </g>
     </g>
     <g id="text_8">
      <!-- 2023-02-03 -->
      <g transform="translate(599.305824 327.798437) scale(0.1 -0.1)">
       <use xlink:href="#DejaVuSans-32"/>
       <use xlink:href="#DejaVuSans-30" x="63.623047"/>
       <use xlink:href="#DejaVuSans-32" x="127.246094"/>
       <use xlink:href="#DejaVuSans-33" x="190.869141"/>
       <use xlink:href="#DejaVuSans-2d" x="254.492188"/>
       <use xlink:href="#DejaVuSans-30" x="290.576172"/>
       <use xlink:href="#DejaVuSans-32" x="354.199219"/>
       <use xlink:href="#DejaVuSans-2d" x="417.822266"/>
       <use xlink:href="#DejaVuSans-30" x="453.90625"/>
       <use xlink:href="#DejaVuSans-33" x="517.529297"/>
      </g>
     </g>
    </g>
    <g id="text_9">
     <!-- Datum -->
     <g transform="translate(343.086719 341.476562) scale(0.1 -0.1)">
      <defs>
       <path id="DejaVuSans-44" d="M 1259 4147 
L 1259 519 
L 2022 519 
Q 2988 519 3436 956 
Q 3884 1394 3884 2338 
Q 3884 3275 3436 3711 
Q 2988 4147 2022 4147 
L 1259 4147 
z
M 628 4666 
L 1925 4666 
Q 3281 4666 3915 4102 
Q 4550 3538 4550 2338 
Q 4550 1131 3912 565 
Q 3275 0 1925 0 
L 628 0 
L 628 4666 
z
" transform="scale(0.015625)"/>
       <path id="DejaVuSans-61" d="M 2194 1759 
Q 1497 1759 1228 1600 
Q 959 1441 959 1056 
Q 959 750 1161 570 
Q 1363 391 1709 391 
Q 2188 391 2477 730 
Q 2766 1069 2766 1631 
L 2766 1759 
L 2194 1759 
z
M 3341 1997 
L 3341 0 
L 2766 0 
L 2766 531 
Q 2569 213 2275 61 
Q 1981 -91 1556 -91 
Q 1019 -91 701 211 
Q 384 513 384 1019 
Q 384 1609 779 1909 
Q 1175 2209 1959 2209 
L 2766 2209 
L 2766 2266 
Q 2766 2663 2505 2880 
Q 2244 3097 1772 3097 
Q 1472 3097 1187 3025 
Q 903 2953 641 2809 
L 641 3341 
Q 956 3463 1253 3523 
Q 1550 3584 1831 3584 
Q 2591 3584 2966 3190 
Q 3341 2797 3341 1997 
z
" transform="scale(0.015625)"/>
       <path id="DejaVuSans-74" d="M 1172 4494 
L 1172 3500 
L 2356 3500 
L 2356 3053 
L 1172 3053 
L 1172 1153 
Q 1172 725 1289 603 
Q 1406 481 1766 481 
L 2356 481 
L 2356 0 
L 1766 0 
Q 1100 0 847 248 
Q 594 497 594 1153 
L 594 3053 
L 172 3053 
L 172 3500 
L 594 3500 
L 594 4494 
L 1172 4494 
z
" transform="scale(0.015625)"/>
       <path id="DejaVuSans-75" d="M 544 1381 
L 544 3500 
L 1119 3500 
L 1119 1403 
Q 1119 906 1312 657 
Q 1506 409 1894 409 
Q 2359 409 2629 706 
Q 2900 1003 2900 1516 
L 2900 3500 
L 3475 3500 
L 3475 0 
L 2900 0 
L 2900 538 
Q 2691 219 2414 64 
Q 2138 -91 1772 -91 
Q 1169 -91 856 284 
Q 544 659 544 1381 
z
M 1991 3584 
L 1991 3584 
z
" transform="scale(0.015625)"/>
       <path id="DejaVuSans-6d" d="M 3328 2828 
Q 3544 3216 3844 3400 
Q 4144 3584 4550 3584 
Q 5097 3584 5394 3201 
Q 5691 2819 5691 2113 
L 5691 0 
L 5113 0 
L 5113 2094 
Q 5113 2597 4934 2840 
Q 4756 3084 4391 3084 
Q 3944 3084 3684 2787 
Q 3425 2491 3425 1978 
L 3425 0 
L 2847 0 
L 2847 2094 
Q 2847 2600 2669 2842 
Q 2491 3084 2119 3084 
Q 1678 3084 1418 2786 
Q 1159 2488 1159 1978 
L 1159 0 
L 581 0 
L 581 3500 
L 1159 3500 
L 1159 2956 
Q 1356 3278 1631 3431 
Q 1906 3584 2284 3584 
Q 2666 3584 2933 3390 
Q 3200 3197 3328 2828 
z
" transform="scale(0.015625)"/>
      </defs>
      <use xlink:href="#DejaVuSans-44"/>
      <use xlink:href="#DejaVuSans-61" x="77.001953"/>
      <use xlink:href="#DejaVuSans-74" x="138.28125"/>
      <use xlink:href="#DejaVuSans-75" x="177.490234"/>
      <use xlink:href="#DejaVuSans-6d" x="240.869141"/>
     </g>
    </g>
   </g>
   <g id="matplotlib.axis_2">
    <g id="ytick_1">
     <g id="line2d_17">
      <path d="M 64.8 300.272727 
L 655.2 300.272727 
" clip-path="url(#p7f4aa0384a)" style="fill: none; stroke-dasharray: 6.4,1.6,1,1.6; stroke-dashoffset: 0; stroke: #808080; stroke-opacity: 0.3"/>
     </g>
     <g id="line2d_18">
      <defs>
       <path id="m6290a91af0" d="M 0 0 
L -3.5 0 
" style="stroke: #000000; stroke-width: 0.8"/>
      </defs>
      <g>
       <use xlink:href="#m6290a91af0" x="64.8" y="300.272727" style="stroke: #000000; stroke-width: 0.8"/>
      </g>
     </g>
     <g id="text_10">
      <!-- 0 -->
      <g transform="translate(51.4375 304.071946) scale(0.1 -0.1)">
       <use xlink:href="#DejaVuSans-30"/>
      </g>
     </g>
    </g>
    <g id="ytick_2">
     <g id="line2d_19">
      <path d="M 64.8 237.21286 
L 655.2 237.21286 
" clip-path="url(#p7f4aa0384a)" style="fill: none; stroke-dasharray: 6.4,1.6,1,1.6; stroke-dashoffset: 0; stroke: #808080; stroke-opacity: 0.3"/>
     </g>
     <g id="line2d_20">
      <g>
       <use xlink:href="#m6290a91af0" x="64.8" y="237.21286" style="stroke: #000000; stroke-width: 0.8"/>
      </g>
     </g>
     <g id="text_11">
      <!-- 5 -->
      <g transform="translate(51.4375 241.012079) scale(0.1 -0.1)">
       <use xlink:href="#DejaVuSans-35"/>
      </g>
     </g>
    </g>
    <g id="ytick_3">
     <g id="line2d_21">
      <path d="M 64.8 174.152993 
L 655.2 174.152993 
" clip-path="url(#p7f4aa0384a)" style="fill: none; stroke-dasharray: 6.4,1.6,1,1.6; stroke-dashoffset: 0; stroke: #808080; stroke-opacity: 0.3"/>
     </g>
     <g id="line2d_22">
      <g>
       <use xlink:href="#m6290a91af0" x="64.8" y="174.152993" style="stroke: #000000; stroke-width: 0.8"/>
      </g>
     </g>
     <g id="text_12">
      <!-- 10 -->
      <g transform="translate(45.075 177.952212) scale(0.1 -0.1)">
       <use xlink:href="#DejaVuSans-31"/>
       <use xlink:href="#DejaVuSans-30" x="63.623047"/>
      </g>
     </g>
    </g>
    <g id="ytick_4">
     <g id="line2d_23">
      <path d="M 64.8 111.093126 
L 655.2 111.093126 
" clip-path="url(#p7f4aa0384a)" style="fill: none; stroke-dasharray: 6.4,1.6,1,1.6; stroke-dashoffset: 0; stroke: #808080; stroke-opacity: 0.3"/>
     </g>
     <g id="line2d_24">
      <g>
       <use xlink:href="#m6290a91af0" x="64.8" y="111.093126" style="stroke: #000000; stroke-width: 0.8"/>
      </g>
     </g>
     <g id="text_13">
      <!-- 15 -->
      <g transform="translate(45.075 114.892345) scale(0.1 -0.1)">
       <use xlink:href="#DejaVuSans-31"/>
       <use xlink:href="#DejaVuSans-35" x="63.623047"/>
      </g>
     </g>
    </g>
    <g id="ytick_5">
     <g id="line2d_25">
      <path d="M 64.8 48.033259 
L 655.2 48.033259 
" clip-path="url(#p7f4aa0384a)" style="fill: none; stroke-dasharray: 6.4,1.6,1,1.6; stroke-dashoffset: 0; stroke: #808080; stroke-opacity: 0.3"/>
     </g>
     <g id="line2d_26">
      <g>
       <use xlink:href="#m6290a91af0" x="64.8" y="48.033259" style="stroke: #000000; stroke-width: 0.8"/>
      </g>
     </g>
     <g id="text_14">
      <!-- 20 -->
      <g transform="translate(45.075 51.832478) scale(0.1 -0.1)">
       <use xlink:href="#DejaVuSans-32"/>
       <use xlink:href="#DejaVuSans-30" x="63.623047"/>
      </g>
     </g>
    </g>
   </g>
   <g id="line2d_27">
    <path d="M 91.636364 280.090993 
L 94.970073 246.739249 
L 96.970299 240.0689 
L 98.303783 228.336238 
L 100.304009 214.491807 
L 103.637719 197.940369 
L 104.304461 195.418596 
L 104.971203 193.456527 
L 105.637945 192.153662 
L 106.304687 190.387489 
L 106.971429 187.834621 
L 108.971654 178.577756 
L 109.638396 175.639316 
L 110.305138 173.565305 
L 110.97188 172.371272 
L 111.638622 172.293536 
L 112.972106 174.451502 
L 114.972332 178.195293 
L 115.639074 180.275522 
L 117.6393 188.500046 
L 118.306042 189.753159 
L 120.306268 190.676669 
L 120.97301 190.658012 
L 121.639752 190.829032 
L 122.306494 191.279904 
L 122.973235 192.287369 
L 123.639977 194.037996 
L 124.306719 196.189743 
L 125.640203 201.808539 
L 126.306945 205.343996 
L 126.973687 210.987667 
L 128.973913 230.574161 
L 130.307397 242.228421 
L 130.974139 247.07918 
L 131.640881 251.099713 
L 132.307623 254.333552 
L 132.974365 256.503956 
L 133.641107 257.610924 
L 134.307849 257.984059 
L 134.974591 257.411918 
L 135.641333 255.561789 
L 136.974816 250.446726 
L 137.641558 247.312389 
L 138.975042 238.322938 
L 140.308526 227.46781 
L 142.308752 209.76254 
L 142.975494 205.057925 
L 144.308978 198.030544 
L 145.642462 191.450924 
L 146.309204 188.509374 
L 146.975946 187.290466 
L 147.642688 187.100789 
L 148.30943 188.667957 
L 148.976172 192.302917 
L 149.642914 197.041735 
L 152.309881 223.83285 
L 155.643591 252.132054 
L 156.310333 257.082315 
L 156.977075 261.199242 
L 158.310559 266.497763 
L 158.977301 268.046275 
L 160.977527 270.90076 
L 162.311011 272.197405 
L 162.977753 272.505241 
L 163.644495 272.076136 
L 164.977979 270.210459 
L 165.64472 269.035083 
L 166.978204 265.925622 
L 168.97843 260.278841 
L 169.645172 258.873365 
L 170.311914 257.825477 
L 172.31214 256.323607 
L 172.978882 256.808683 
L 174.312366 258.397617 
L 174.979108 258.944883 
L 175.64585 259.678715 
L 176.312592 259.585431 
L 178.312818 256.957937 
L 178.97956 255.285047 
L 180.313043 250.518243 
L 180.979785 247.980923 
L 182.313269 241.025059 
L 183.646753 234.230887 
L 184.313495 231.320432 
L 184.980237 230.020677 
L 185.646979 230.232121 
L 186.980463 230.082866 
L 187.647205 231.049909 
L 188.313947 233.008869 
L 188.980689 235.372059 
L 190.314173 241.674937 
L 192.314399 252.017004 
L 192.981141 255.157559 
L 193.647883 257.237788 
L 194.981366 258.795628 
L 195.648108 259.271376 
L 196.31485 258.854708 
L 196.981592 257.421247 
L 197.648334 255.316142 
L 198.981818 248.947966 
L 202.315528 230.633241 
L 202.98227 228.500151 
L 203.649012 227.088456 
L 204.315754 226.323528 
L 204.982496 226.401265 
L 205.649238 227.474029 
L 206.31598 229.457865 
L 208.982947 241.053045 
L 209.649689 243.2732 
L 210.316431 244.799945 
L 210.983173 245.452932 
L 211.649915 244.722208 
L 212.316657 243.049318 
L 212.983399 240.888243 
L 213.650141 238.095947 
L 214.316883 234.585366 
L 217.650593 213.963421 
L 218.317335 211.967147 
L 218.984077 211.14625 
L 219.650819 211.354584 
L 220.317561 213.447251 
L 221.651045 219.669282 
L 222.984529 226.304871 
L 226.318238 246.084152 
L 226.98498 248.814259 
L 227.651722 250.670607 
L 228.318464 251.9828 
L 228.985206 252.020113 
L 230.985432 251.065509 
L 231.652174 251.208544 
L 232.318916 251.497724 
L 233.6524 250.88205 
L 234.985884 249.967869 
L 237.652851 247.259528 
L 239.653077 248.036894 
L 240.319819 247.502066 
L 240.986561 246.429302 
L 241.653303 245.760768 
L 243.653529 243.235886 
L 244.320271 242.847203 
L 244.987013 243.406906 
L 246.320497 245.558653 
L 247.653981 246.693607 
L 248.320723 247.53627 
L 248.987465 249.016374 
L 252.987916 260.972251 
L 253.654658 262.12897 
L 254.3214 262.719768 
L 256.988368 265.934951 
L 257.65511 266.423136 
L 258.321852 266.765177 
L 260.98882 268.895157 
L 261.655562 269.361577 
L 262.989046 270.776381 
L 264.989272 273.142681 
L 266.989497 274.482859 
L 267.656239 274.852884 
L 268.989723 275.138955 
L 271.656691 275.390821 
L 272.323433 275.602265 
L 273.656917 275.707986 
L 274.323659 275.524528 
L 274.990401 274.775148 
L 275.657143 273.071163 
L 276.990627 268.702371 
L 279.657595 260.754589 
L 282.324562 250.729687 
L 282.991304 249.20916 
L 283.658046 248.86401 
L 284.324788 250.229064 
L 287.658498 261.653223 
L 290.992208 275.027014 
L 291.65895 276.951771 
L 292.325692 278.068067 
L 292.992434 278.061848 
L 293.659176 277.651399 
L 294.99266 276.382739 
L 296.992885 275.263333 
L 298.993111 274.000892 
L 299.659853 274.293181 
L 300.326595 274.423779 
L 300.993337 274.855994 
L 301.660079 275.913211 
L 302.326821 276.696795 
L 303.660305 277.502145 
L 304.993789 277.900156 
L 305.660531 278.096052 
L 306.327273 277.900156 
L 306.994015 277.582991 
L 307.660757 277.032617 
L 308.327499 276.336097 
L 308.994241 275.804379 
L 309.660982 274.896417 
L 310.327724 273.605991 
L 310.994466 272.794421 
L 311.661208 272.51457 
L 313.661434 270.679988 
L 315.66166 267.84416 
L 316.328402 266.360947 
L 316.995144 264.302484 
L 318.328628 258.21105 
L 318.99537 254.23094 
L 320.328854 244.361511 
L 321.662338 233.357129 
L 326.329531 189.448431 
L 326.996273 185.18847 
L 328.329757 179.324027 
L 328.996499 177.361957 
L 329.663241 176.024889 
L 330.329983 175.263071 
L 330.996725 175.427872 
L 331.663467 176.553497 
L 332.330209 179.13124 
L 333.663693 186.911111 
L 334.997177 197.349572 
L 336.997403 212.722746 
L 339.66437 228.904381 
L 340.331112 232.492699 
L 340.997854 235.235243 
L 342.331338 238.988362 
L 342.99808 240.219709 
L 343.664822 240.605282 
L 344.331564 241.121453 
L 344.998306 242.212873 
L 345.665048 243.761385 
L 346.998532 249.199832 
L 347.665274 250.204188 
L 348.332016 250.197969 
L 348.998758 249.532544 
L 350.332242 247.626445 
L 351.665726 245.334772 
L 352.332468 244.436138 
L 352.999209 243.220339 
L 353.665951 241.438618 
L 354.332693 239.23401 
L 354.999435 236.472809 
L 355.666177 234.321062 
L 356.332919 234.224668 
L 356.999661 235.297432 
L 358.333145 239.159383 
L 358.999887 240.244585 
L 359.666629 240.670581 
L 360.333371 240.760755 
L 361.000113 240.574188 
L 361.666855 240.197943 
L 362.333597 239.563613 
L 363.000339 237.666842 
L 363.667081 234.977158 
L 364.333823 231.631378 
L 365.000565 227.508233 
L 373.001468 222.999515 
L 374.334952 213.929217 
L 375.001694 210.172988 
L 376.335178 204.678571 
L 377.668662 200.051693 
L 379.002146 198.139375 
L 379.668888 198.332161 
L 381.002372 200.885029 
L 382.335855 204.031803 
L 383.669339 207.057309 
L 388.336533 224.106483 
L 389.670017 227.934229 
L 390.336759 229.902518 
L 393.003727 235.891339 
L 394.337211 238.506396 
L 395.003953 239.103413 
L 395.670695 239.451672 
L 396.337436 240.829163 
L 397.004178 241.513245 
L 397.67092 241.650061 
L 398.337662 241.401304 
L 399.004404 241.494588 
L 400.337888 242.184888 
L 401.00463 242.359018 
L 401.671372 241.961007 
L 402.338114 241.360881 
L 403.004856 240.922447 
L 404.33834 241.883271 
L 406.338566 241.970335 
L 407.005308 242.962254 
L 408.338792 246.737139 
L 409.005534 247.996471 
L 411.005759 252.50208 
L 411.672501 254.656936 
L 413.005985 259.398864 
L 415.006211 264.890172 
L 415.672953 266.003359 
L 416.339695 266.684331 
L 417.006437 267.184954 
L 418.339921 268.742794 
L 419.006663 269.554363 
L 419.673405 270.008344 
L 420.340147 270.123394 
L 421.006889 269.852871 
L 421.673631 269.971031 
L 422.340373 269.871528 
L 423.007115 269.299387 
L 425.00734 268.24839 
L 425.674082 268.354111 
L 426.340824 268.693042 
L 427.007566 269.159462 
L 427.674308 269.949265 
L 431.008018 275.80127 
L 432.341502 279.541951 
L 433.674986 283.606017 
L 435.00847 286.609756 
L 435.675212 287.722943 
L 436.341954 288.518965 
L 437.675438 289.507774 
L 439.675663 291.081161 
L 440.342405 291.249072 
L 441.009147 291.183773 
L 442.342631 290.826185 
L 443.009373 290.397079 
L 444.342857 288.323069 
L 445.676341 285.341096 
L 447.009825 281.267702 
L 449.676793 271.211706 
L 451.677019 261.696755 
L 453.010503 258.167517 
L 453.677244 257.244007 
L 454.343986 257.153833 
L 455.010728 257.645128 
L 455.67747 258.761424 
L 457.010954 261.559939 
L 457.677696 262.604718 
L 458.344438 264.013304 
L 459.01118 266.255225 
L 460.344664 272.489694 
L 461.011406 274.93373 
L 461.678148 276.60662 
L 462.34489 277.306249 
L 463.011632 277.471051 
L 463.678374 276.945552 
L 464.345116 275.521419 
L 465.011858 273.761464 
L 465.6786 272.477256 
L 466.345342 271.718548 
L 467.012084 270.754615 
L 467.678826 269.560582 
L 469.679051 264.181215 
L 470.345793 263.655716 
L 471.012535 263.898254 
L 471.679277 263.742781 
L 472.346019 264.255842 
L 473.012761 265.863433 
L 474.346245 269.411328 
L 475.012987 270.555609 
L 476.346471 271.964195 
L 477.679955 273.444299 
L 478.346697 273.888952 
L 479.013439 273.195542 
L 479.680181 272.020166 
L 480.346923 271.267676 
L 481.013665 270.285086 
L 483.680632 264.678728 
L 486.3476 263.758328 
L 487.014342 264.025742 
L 487.681084 265.337934 
L 491.681536 278.826775 
L 492.348278 280.683124 
L 495.681988 287.931277 
L 496.34873 288.83613 
L 497.015471 289.175061 
L 497.682213 289.330534 
L 503.682891 294.83739 
L 505.683117 296.050079 
L 506.349859 296.323712 
L 513.017278 296.389011 
L 521.018182 295.748462 
L 523.68515 295.269605 
L 524.351892 294.912017 
L 525.685375 293.180047 
L 527.685601 290.633398 
L 529.019085 288.948071 
L 530.352569 286.339233 
L 531.686053 283.052533 
L 532.352795 281.301906 
L 533.019537 280.082998 
L 533.686279 279.657002 
L 535.686505 279.047547 
L 537.019989 278.388341 
L 537.686731 278.372794 
L 539.020215 279.706753 
L 539.686957 280.680014 
L 541.687182 284.426915 
L 543.020666 285.667589 
L 545.020892 287.097941 
L 545.687634 287.642097 
L 546.354376 287.965481 
L 547.021118 288.120954 
L 547.68786 288.450557 
L 548.354602 288.581154 
L 549.688086 288.400806 
L 550.354828 288.02767 
L 553.688538 284.793831 
L 556.355505 282.045068 
L 558.355731 280.947428 
L 559.022473 280.888348 
L 560.355957 281.584867 
L 561.689441 283.06808 
L 564.356409 286.034506 
L 565.023151 286.662617 
L 566.356635 287.421325 
L 567.023377 288.005904 
L 569.023602 290.138994 
L 570.357086 291.009643 
L 571.69057 291.494719 
L 575.691022 293.892114 
L 577.024506 293.935646 
L 577.691248 293.56562 
L 579.024732 292.172582 
L 579.691474 291.755914 
L 580.358216 291.165116 
L 581.6917 289.025807 
L 584.358667 284.33674 
L 585.692151 281.790092 
L 586.358893 281.189966 
L 587.692377 281.239717 
L 588.359119 281.099791 
L 589.025861 281.314344 
L 589.692603 282.063724 
L 591.692829 285.132762 
L 593.026313 287.188116 
L 594.359797 289.64459 
L 595.026539 290.540115 
L 595.693281 291.078051 
L 597.026765 292.629672 
L 597.693506 293.052559 
L 598.360248 293.248455 
L 599.02699 293.245346 
L 600.360474 293.419475 
L 601.693958 293.052559 
L 604.360926 291.858526 
L 605.69441 291.022081 
L 608.361378 290.717354 
L 609.02812 290.751558 
L 614.362055 294.395846 
L 617.695765 295.754681 
L 620.362733 296.081174 
L 623.029701 296.292173 
L 625.696669 296.352141 
L 628.363636 296.340592 
L 628.363636 296.340592 
" clip-path="url(#p7f4aa0384a)" style="fill: none; stroke: #ff0000; stroke-width: 1.5; stroke-linecap: square"/>
   </g>
   <g id="patch_3">
    <path d="M 64.8 313.2 
L 64.8 28.8 
" style="fill: none; stroke: #000000; stroke-width: 0.8; stroke-linejoin: miter; stroke-linecap: square"/>
   </g>
   <g id="patch_4">
    <path d="M 655.2 313.2 
L 655.2 28.8 
" style="fill: none; stroke: #000000; stroke-width: 0.8; stroke-linejoin: miter; stroke-linecap: square"/>
   </g>
   <g id="patch_5">
    <path d="M 64.8 313.2 
L 655.2 313.2 
" style="fill: none; stroke: #000000; stroke-width: 0.8; stroke-linejoin: miter; stroke-linecap: square"/>
   </g>
   <g id="patch_6">
    <path d="M 64.8 28.8 
L 655.2 28.8 
" style="fill: none; stroke: #000000; stroke-width: 0.8; stroke-linejoin: miter; stroke-linecap: square"/>
   </g>
   <g id="text_15">
    <!-- Page hits per uur (gemiddeld ongeveer 0). -->
    <g transform="translate(232.46625 22.8) scale(0.12 -0.12)">
     <defs>
      <path id="DejaVuSans-50" d="M 1259 4147 
L 1259 2394 
L 2053 2394 
Q 2494 2394 2734 2622 
Q 2975 2850 2975 3272 
Q 2975 3691 2734 3919 
Q 2494 4147 2053 4147 
L 1259 4147 
z
M 628 4666 
L 2053 4666 
Q 2838 4666 3239 4311 
Q 3641 3956 3641 3272 
Q 3641 2581 3239 2228 
Q 2838 1875 2053 1875 
L 1259 1875 
L 1259 0 
L 628 0 
L 628 4666 
z
" transform="scale(0.015625)"/>
      <path id="DejaVuSans-67" d="M 2906 1791 
Q 2906 2416 2648 2759 
Q 2391 3103 1925 3103 
Q 1463 3103 1205 2759 
Q 947 2416 947 1791 
Q 947 1169 1205 825 
Q 1463 481 1925 481 
Q 2391 481 2648 825 
Q 2906 1169 2906 1791 
z
M 3481 434 
Q 3481 -459 3084 -895 
Q 2688 -1331 1869 -1331 
Q 1566 -1331 1297 -1286 
Q 1028 -1241 775 -1147 
L 775 -588 
Q 1028 -725 1275 -790 
Q 1522 -856 1778 -856 
Q 2344 -856 2625 -561 
Q 2906 -266 2906 331 
L 2906 616 
Q 2728 306 2450 153 
Q 2172 0 1784 0 
Q 1141 0 747 490 
Q 353 981 353 1791 
Q 353 2603 747 3093 
Q 1141 3584 1784 3584 
Q 2172 3584 2450 3431 
Q 2728 3278 2906 2969 
L 2906 3500 
L 3481 3500 
L 3481 434 
z
" transform="scale(0.015625)"/>
      <path id="DejaVuSans-65" d="M 3597 1894 
L 3597 1613 
L 953 1613 
Q 991 1019 1311 708 
Q 1631 397 2203 397 
Q 2534 397 2845 478 
Q 3156 559 3463 722 
L 3463 178 
Q 3153 47 2828 -22 
Q 2503 -91 2169 -91 
Q 1331 -91 842 396 
Q 353 884 353 1716 
Q 353 2575 817 3079 
Q 1281 3584 2069 3584 
Q 2775 3584 3186 3129 
Q 3597 2675 3597 1894 
z
M 3022 2063 
Q 3016 2534 2758 2815 
Q 2500 3097 2075 3097 
Q 1594 3097 1305 2825 
Q 1016 2553 972 2059 
L 3022 2063 
z
" transform="scale(0.015625)"/>
      <path id="DejaVuSans-20" transform="scale(0.015625)"/>
      <path id="DejaVuSans-68" d="M 3513 2113 
L 3513 0 
L 2938 0 
L 2938 2094 
Q 2938 2591 2744 2837 
Q 2550 3084 2163 3084 
Q 1697 3084 1428 2787 
Q 1159 2491 1159 1978 
L 1159 0 
L 581 0 
L 581 4863 
L 1159 4863 
L 1159 2956 
Q 1366 3272 1645 3428 
Q 1925 3584 2291 3584 
Q 2894 3584 3203 3211 
Q 3513 2838 3513 2113 
z
" transform="scale(0.015625)"/>
      <path id="DejaVuSans-69" d="M 603 3500 
L 1178 3500 
L 1178 0 
L 603 0 
L 603 3500 
z
M 603 4863 
L 1178 4863 
L 1178 4134 
L 603 4134 
L 603 4863 
z
" transform="scale(0.015625)"/>
      <path id="DejaVuSans-73" d="M 2834 3397 
L 2834 2853 
Q 2591 2978 2328 3040 
Q 2066 3103 1784 3103 
Q 1356 3103 1142 2972 
Q 928 2841 928 2578 
Q 928 2378 1081 2264 
Q 1234 2150 1697 2047 
L 1894 2003 
Q 2506 1872 2764 1633 
Q 3022 1394 3022 966 
Q 3022 478 2636 193 
Q 2250 -91 1575 -91 
Q 1294 -91 989 -36 
Q 684 19 347 128 
L 347 722 
Q 666 556 975 473 
Q 1284 391 1588 391 
Q 1994 391 2212 530 
Q 2431 669 2431 922 
Q 2431 1156 2273 1281 
Q 2116 1406 1581 1522 
L 1381 1569 
Q 847 1681 609 1914 
Q 372 2147 372 2553 
Q 372 3047 722 3315 
Q 1072 3584 1716 3584 
Q 2034 3584 2315 3537 
Q 2597 3491 2834 3397 
z
" transform="scale(0.015625)"/>
      <path id="DejaVuSans-70" d="M 1159 525 
L 1159 -1331 
L 581 -1331 
L 581 3500 
L 1159 3500 
L 1159 2969 
Q 1341 3281 1617 3432 
Q 1894 3584 2278 3584 
Q 2916 3584 3314 3078 
Q 3713 2572 3713 1747 
Q 3713 922 3314 415 
Q 2916 -91 2278 -91 
Q 1894 -91 1617 61 
Q 1341 213 1159 525 
z
M 3116 1747 
Q 3116 2381 2855 2742 
Q 2594 3103 2138 3103 
Q 1681 3103 1420 2742 
Q 1159 2381 1159 1747 
Q 1159 1113 1420 752 
Q 1681 391 2138 391 
Q 2594 391 2855 752 
Q 3116 1113 3116 1747 
z
" transform="scale(0.015625)"/>
      <path id="DejaVuSans-72" d="M 2631 2963 
Q 2534 3019 2420 3045 
Q 2306 3072 2169 3072 
Q 1681 3072 1420 2755 
Q 1159 2438 1159 1844 
L 1159 0 
L 581 0 
L 581 3500 
L 1159 3500 
L 1159 2956 
Q 1341 3275 1631 3429 
Q 1922 3584 2338 3584 
Q 2397 3584 2469 3576 
Q 2541 3569 2628 3553 
L 2631 2963 
z
" transform="scale(0.015625)"/>
      <path id="DejaVuSans-28" d="M 1984 4856 
Q 1566 4138 1362 3434 
Q 1159 2731 1159 2009 
Q 1159 1288 1364 580 
Q 1569 -128 1984 -844 
L 1484 -844 
Q 1016 -109 783 600 
Q 550 1309 550 2009 
Q 550 2706 781 3412 
Q 1013 4119 1484 4856 
L 1984 4856 
z
" transform="scale(0.015625)"/>
      <path id="DejaVuSans-64" d="M 2906 2969 
L 2906 4863 
L 3481 4863 
L 3481 0 
L 2906 0 
L 2906 525 
Q 2725 213 2448 61 
Q 2172 -91 1784 -91 
Q 1150 -91 751 415 
Q 353 922 353 1747 
Q 353 2572 751 3078 
Q 1150 3584 1784 3584 
Q 2172 3584 2448 3432 
Q 2725 3281 2906 2969 
z
M 947 1747 
Q 947 1113 1208 752 
Q 1469 391 1925 391 
Q 2381 391 2643 752 
Q 2906 1113 2906 1747 
Q 2906 2381 2643 2742 
Q 2381 3103 1925 3103 
Q 1469 3103 1208 2742 
Q 947 2381 947 1747 
z
" transform="scale(0.015625)"/>
      <path id="DejaVuSans-6c" d="M 603 4863 
L 1178 4863 
L 1178 0 
L 603 0 
L 603 4863 
z
" transform="scale(0.015625)"/>
      <path id="DejaVuSans-6f" d="M 1959 3097 
Q 1497 3097 1228 2736 
Q 959 2375 959 1747 
Q 959 1119 1226 758 
Q 1494 397 1959 397 
Q 2419 397 2687 759 
Q 2956 1122 2956 1747 
Q 2956 2369 2687 2733 
Q 2419 3097 1959 3097 
z
M 1959 3584 
Q 2709 3584 3137 3096 
Q 3566 2609 3566 1747 
Q 3566 888 3137 398 
Q 2709 -91 1959 -91 
Q 1206 -91 779 398 
Q 353 888 353 1747 
Q 353 2609 779 3096 
Q 1206 3584 1959 3584 
z
" transform="scale(0.015625)"/>
      <path id="DejaVuSans-6e" d="M 3513 2113 
L 3513 0 
L 2938 0 
L 2938 2094 
Q 2938 2591 2744 2837 
Q 2550 3084 2163 3084 
Q 1697 3084 1428 2787 
Q 1159 2491 1159 1978 
L 1159 0 
L 581 0 
L 581 3500 
L 1159 3500 
L 1159 2956 
Q 1366 3272 1645 3428 
Q 1925 3584 2291 3584 
Q 2894 3584 3203 3211 
Q 3513 2838 3513 2113 
z
" transform="scale(0.015625)"/>
      <path id="DejaVuSans-76" d="M 191 3500 
L 800 3500 
L 1894 563 
L 2988 3500 
L 3597 3500 
L 2284 0 
L 1503 0 
L 191 3500 
z
" transform="scale(0.015625)"/>
      <path id="DejaVuSans-29" d="M 513 4856 
L 1013 4856 
Q 1481 4119 1714 3412 
Q 1947 2706 1947 2009 
Q 1947 1309 1714 600 
Q 1481 -109 1013 -844 
L 513 -844 
Q 928 -128 1133 580 
Q 1338 1288 1338 2009 
Q 1338 2731 1133 3434 
Q 928 4138 513 4856 
z
" transform="scale(0.015625)"/>
      <path id="DejaVuSans-2e" d="M 684 794 
L 1344 794 
L 1344 0 
L 684 0 
L 684 794 
z
" transform="scale(0.015625)"/>
     </defs>
     <use xlink:href="#DejaVuSans-50"/>
     <use xlink:href="#DejaVuSans-61" x="55.802734"/>
     <use xlink:href="#DejaVuSans-67" x="117.082031"/>
     <use xlink:href="#DejaVuSans-65" x="180.558594"/>
     <use xlink:href="#DejaVuSans-20" x="242.082031"/>
     <use xlink:href="#DejaVuSans-68" x="273.869141"/>
     <use xlink:href="#DejaVuSans-69" x="337.248047"/>
     <use xlink:href="#DejaVuSans-74" x="365.03125"/>
     <use xlink:href="#DejaVuSans-73" x="404.240234"/>
     <use xlink:href="#DejaVuSans-20" x="456.339844"/>
     <use xlink:href="#DejaVuSans-70" x="488.126953"/>
     <use xlink:href="#DejaVuSans-65" x="551.603516"/>
     <use xlink:href="#DejaVuSans-72" x="613.126953"/>
     <use xlink:href="#DejaVuSans-20" x="654.240234"/>
     <use xlink:href="#DejaVuSans-75" x="686.027344"/>
     <use xlink:href="#DejaVuSans-75" x="749.40625"/>
     <use xlink:href="#DejaVuSans-72" x="812.785156"/>
     <use xlink:href="#DejaVuSans-20" x="853.898438"/>
     <use xlink:href="#DejaVuSans-28" x="885.685547"/>
     <use xlink:href="#DejaVuSans-67" x="924.699219"/>
     <use xlink:href="#DejaVuSans-65" x="988.175781"/>
     <use xlink:href="#DejaVuSans-6d" x="1049.699219"/>
     <use xlink:href="#DejaVuSans-69" x="1147.111328"/>
     <use xlink:href="#DejaVuSans-64" x="1174.894531"/>
     <use xlink:href="#DejaVuSans-64" x="1238.371094"/>
     <use xlink:href="#DejaVuSans-65" x="1301.847656"/>
     <use xlink:href="#DejaVuSans-6c" x="1363.371094"/>
     <use xlink:href="#DejaVuSans-64" x="1391.154297"/>
     <use xlink:href="#DejaVuSans-20" x="1454.630859"/>
     <use xlink:href="#DejaVuSans-6f" x="1486.417969"/>
     <use xlink:href="#DejaVuSans-6e" x="1547.599609"/>
     <use xlink:href="#DejaVuSans-67" x="1610.978516"/>
     <use xlink:href="#DejaVuSans-65" x="1674.455078"/>
     <use xlink:href="#DejaVuSans-76" x="1735.978516"/>
     <use xlink:href="#DejaVuSans-65" x="1795.158203"/>
     <use xlink:href="#DejaVuSans-65" x="1856.681641"/>
     <use xlink:href="#DejaVuSans-72" x="1918.205078"/>
     <use xlink:href="#DejaVuSans-20" x="1959.318359"/>
     <use xlink:href="#DejaVuSans-30" x="1991.105469"/>
     <use xlink:href="#DejaVuSans-29" x="2054.728516"/>
     <use xlink:href="#DejaVuSans-2e" x="2093.742188"/>
    </g>
   </g>
  </g>
  <g id="text_16">
   <!-- Gegenereerd op 2023-02-03 20:24. -->
   <g style="fill: #808080" transform="translate(7.2 356.4) scale(0.08 -0.08)">
    <defs>
     <path id="DejaVuSans-47" d="M 3809 666 
L 3809 1919 
L 2778 1919 
L 2778 2438 
L 4434 2438 
L 4434 434 
Q 4069 175 3628 42 
Q 3188 -91 2688 -91 
Q 1594 -91 976 548 
Q 359 1188 359 2328 
Q 359 3472 976 4111 
Q 1594 4750 2688 4750 
Q 3144 4750 3555 4637 
Q 3966 4525 4313 4306 
L 4313 3634 
Q 3963 3931 3569 4081 
Q 3175 4231 2741 4231 
Q 1884 4231 1454 3753 
Q 1025 3275 1025 2328 
Q 1025 1384 1454 906 
Q 1884 428 2741 428 
Q 3075 428 3337 486 
Q 3600 544 3809 666 
z
" transform="scale(0.015625)"/>
     <path id="DejaVuSans-3a" d="M 750 794 
L 1409 794 
L 1409 0 
L 750 0 
L 750 794 
z
M 750 3309 
L 1409 3309 
L 1409 2516 
L 750 2516 
L 750 3309 
z
" transform="scale(0.015625)"/>
     <path id="DejaVuSans-34" d="M 2419 4116 
L 825 1625 
L 2419 1625 
L 2419 4116 
z
M 2253 4666 
L 3047 4666 
L 3047 1625 
L 3713 1625 
L 3713 1100 
L 3047 1100 
L 3047 0 
L 2419 0 
L 2419 1100 
L 313 1100 
L 313 1709 
L 2253 4666 
z
" transform="scale(0.015625)"/>
    </defs>
    <use xlink:href="#DejaVuSans-47"/>
    <use xlink:href="#DejaVuSans-65" x="77.490234"/>
    <use xlink:href="#DejaVuSans-67" x="139.013672"/>
    <use xlink:href="#DejaVuSans-65" x="202.490234"/>
    <use xlink:href="#DejaVuSans-6e" x="264.013672"/>
    <use xlink:href="#DejaVuSans-65" x="327.392578"/>
    <use xlink:href="#DejaVuSans-72" x="388.916016"/>
    <use xlink:href="#DejaVuSans-65" x="427.779297"/>
    <use xlink:href="#DejaVuSans-65" x="489.302734"/>
    <use xlink:href="#DejaVuSans-72" x="550.826172"/>
    <use xlink:href="#DejaVuSans-64" x="590.189453"/>
    <use xlink:href="#DejaVuSans-20" x="653.666016"/>
    <use xlink:href="#DejaVuSans-6f" x="685.453125"/>
    <use xlink:href="#DejaVuSans-70" x="746.634766"/>
    <use xlink:href="#DejaVuSans-20" x="810.111328"/>
    <use xlink:href="#DejaVuSans-32" x="841.898438"/>
    <use xlink:href="#DejaVuSans-30" x="905.521484"/>
    <use xlink:href="#DejaVuSans-32" x="969.144531"/>
    <use xlink:href="#DejaVuSans-33" x="1032.767578"/>
    <use xlink:href="#DejaVuSans-2d" x="1096.390625"/>
    <use xlink:href="#DejaVuSans-30" x="1132.474609"/>
    <use xlink:href="#DejaVuSans-32" x="1196.097656"/>
    <use xlink:href="#DejaVuSans-2d" x="1259.720703"/>
    <use xlink:href="#DejaVuSans-30" x="1295.804688"/>
    <use xlink:href="#DejaVuSans-33" x="1359.427734"/>
    <use xlink:href="#DejaVuSans-20" x="1423.050781"/>
    <use xlink:href="#DejaVuSans-32" x="1454.837891"/>
    <use xlink:href="#DejaVuSans-30" x="1518.460938"/>
    <use xlink:href="#DejaVuSans-3a" x="1582.083984"/>
    <use xlink:href="#DejaVuSans-32" x="1615.775391"/>
    <use xlink:href="#DejaVuSans-34" x="1679.398438"/>
    <use xlink:href="#DejaVuSans-2e" x="1743.021484"/>
   </g>
  </g>
  <g id="text_17">
   <!-- https://realrolfje.github.io/coronadata/ -->
   <g style="fill: #808080" transform="translate(560.24375 356.4) scale(0.08 -0.08)">
    <defs>
     <path id="DejaVuSans-2f" d="M 1625 4666 
L 2156 4666 
L 531 -594 
L 0 -594 
L 1625 4666 
z
" transform="scale(0.015625)"/>
     <path id="DejaVuSans-66" d="M 2375 4863 
L 2375 4384 
L 1825 4384 
Q 1516 4384 1395 4259 
Q 1275 4134 1275 3809 
L 1275 3500 
L 2222 3500 
L 2222 3053 
L 1275 3053 
L 1275 0 
L 697 0 
L 697 3053 
L 147 3053 
L 147 3500 
L 697 3500 
L 697 3744 
Q 697 4328 969 4595 
Q 1241 4863 1831 4863 
L 2375 4863 
z
" transform="scale(0.015625)"/>
     <path id="DejaVuSans-6a" d="M 603 3500 
L 1178 3500 
L 1178 -63 
Q 1178 -731 923 -1031 
Q 669 -1331 103 -1331 
L -116 -1331 
L -116 -844 
L 38 -844 
Q 366 -844 484 -692 
Q 603 -541 603 -63 
L 603 3500 
z
M 603 4863 
L 1178 4863 
L 1178 4134 
L 603 4134 
L 603 4863 
z
" transform="scale(0.015625)"/>
     <path id="DejaVuSans-62" d="M 3116 1747 
Q 3116 2381 2855 2742 
Q 2594 3103 2138 3103 
Q 1681 3103 1420 2742 
Q 1159 2381 1159 1747 
Q 1159 1113 1420 752 
Q 1681 391 2138 391 
Q 2594 391 2855 752 
Q 3116 1113 3116 1747 
z
M 1159 2969 
Q 1341 3281 1617 3432 
Q 1894 3584 2278 3584 
Q 2916 3584 3314 3078 
Q 3713 2572 3713 1747 
Q 3713 922 3314 415 
Q 2916 -91 2278 -91 
Q 1894 -91 1617 61 
Q 1341 213 1159 525 
L 1159 0 
L 581 0 
L 581 4863 
L 1159 4863 
L 1159 2969 
z
" transform="scale(0.015625)"/>
     <path id="DejaVuSans-63" d="M 3122 3366 
L 3122 2828 
Q 2878 2963 2633 3030 
Q 2388 3097 2138 3097 
Q 1578 3097 1268 2742 
Q 959 2388 959 1747 
Q 959 1106 1268 751 
Q 1578 397 2138 397 
Q 2388 397 2633 464 
Q 2878 531 3122 666 
L 3122 134 
Q 2881 22 2623 -34 
Q 2366 -91 2075 -91 
Q 1284 -91 818 406 
Q 353 903 353 1747 
Q 353 2603 823 3093 
Q 1294 3584 2113 3584 
Q 2378 3584 2631 3529 
Q 2884 3475 3122 3366 
z
" transform="scale(0.015625)"/>
    </defs>
    <use xlink:href="#DejaVuSans-68"/>
    <use xlink:href="#DejaVuSans-74" x="63.378906"/>
    <use xlink:href="#DejaVuSans-74" x="102.587891"/>
    <use xlink:href="#DejaVuSans-70" x="141.796875"/>
    <use xlink:href="#DejaVuSans-73" x="205.273438"/>
    <use xlink:href="#DejaVuSans-3a" x="257.373047"/>
    <use xlink:href="#DejaVuSans-2f" x="291.064453"/>
    <use xlink:href="#DejaVuSans-2f" x="324.755859"/>
    <use xlink:href="#DejaVuSans-72" x="358.447266"/>
    <use xlink:href="#DejaVuSans-65" x="397.310547"/>
    <use xlink:href="#DejaVuSans-61" x="458.833984"/>
    <use xlink:href="#DejaVuSans-6c" x="520.113281"/>
    <use xlink:href="#DejaVuSans-72" x="547.896484"/>
    <use xlink:href="#DejaVuSans-6f" x="586.759766"/>
    <use xlink:href="#DejaVuSans-6c" x="647.941406"/>
    <use xlink:href="#DejaVuSans-66" x="675.724609"/>
    <use xlink:href="#DejaVuSans-6a" x="710.929688"/>
    <use xlink:href="#DejaVuSans-65" x="738.712891"/>
    <use xlink:href="#DejaVuSans-2e" x="800.236328"/>
    <use xlink:href="#DejaVuSans-67" x="832.023438"/>
    <use xlink:href="#DejaVuSans-69" x="895.5"/>
    <use xlink:href="#DejaVuSans-74" x="923.283203"/>
    <use xlink:href="#DejaVuSans-68" x="962.492188"/>
    <use xlink:href="#DejaVuSans-75" x="1025.871094"/>
    <use xlink:href="#DejaVuSans-62" x="1089.25"/>
    <use xlink:href="#DejaVuSans-2e" x="1152.726562"/>
    <use xlink:href="#DejaVuSans-69" x="1184.513672"/>
    <use xlink:href="#DejaVuSans-6f" x="1212.296875"/>
    <use xlink:href="#DejaVuSans-2f" x="1273.478516"/>
    <use xlink:href="#DejaVuSans-63" x="1307.169922"/>
    <use xlink:href="#DejaVuSans-6f" x="1362.150391"/>
    <use xlink:href="#DejaVuSans-72" x="1423.332031"/>
    <use xlink:href="#DejaVuSans-6f" x="1462.195312"/>
    <use xlink:href="#DejaVuSans-6e" x="1523.376953"/>
    <use xlink:href="#DejaVuSans-61" x="1586.755859"/>
    <use xlink:href="#DejaVuSans-64" x="1648.035156"/>
    <use xlink:href="#DejaVuSans-61" x="1711.511719"/>
    <use xlink:href="#DejaVuSans-74" x="1772.791016"/>
    <use xlink:href="#DejaVuSans-61" x="1812"/>
    <use xlink:href="#DejaVuSans-2f" x="1873.279297"/>
   </g>
  </g>
 </g>
 <defs>
  <clipPath id="p7f4aa0384a">
   <rect x="64.8" y="28.8" width="590.4" height="284.4"/>
  </clipPath>
 </defs>
</svg>
