<?xml version="1.0" encoding="utf-8" standalone="no"?>
<!DOCTYPE svg PUBLIC "-//W3C//DTD SVG 1.1//EN"
  "http://www.w3.org/Graphics/SVG/1.1/DTD/svg11.dtd">
<!-- Created with matplotlib (https://matplotlib.org/) -->
<svg height="360pt" version="1.1" viewBox="0 0 720 360" width="720pt" xmlns="http://www.w3.org/2000/svg" xmlns:xlink="http://www.w3.org/1999/xlink">
 <metadata>
  <rdf:RDF xmlns:cc="http://creativecommons.org/ns#" xmlns:dc="http://purl.org/dc/elements/1.1/" xmlns:rdf="http://www.w3.org/1999/02/22-rdf-syntax-ns#">
   <cc:Work>
    <dc:type rdf:resource="http://purl.org/dc/dcmitype/StillImage"/>
    <dc:date>2022-11-19T11:39:57.685892</dc:date>
    <dc:format>image/svg+xml</dc:format>
    <dc:creator>
     <cc:Agent>
      <dc:title>Matplotlib v3.3.2, https://matplotlib.org/</dc:title>
     </cc:Agent>
    </dc:creator>
   </cc:Work>
  </rdf:RDF>
 </metadata>
 <defs>
  <style type="text/css">*{stroke-linecap:butt;stroke-linejoin:round;}</style>
 </defs>
 <g id="figure_1">
  <g id="patch_1">
   <path d="M 0 360 
L 720 360 
L 720 0 
L 0 0 
z
" style="fill:#ffffff;"/>
  </g>
  <g id="axes_1">
   <g id="patch_2">
    <path d="M 64.8 313.2 
L 655.2 313.2 
L 655.2 28.8 
L 64.8 28.8 
z
" style="fill:#ffffff;"/>
   </g>
   <g id="PolyCollection_1">
    <path clip-path="url(#pefc55e1ee0)" d="M 91.636364 300.272727 
L 91.636364 300.272727 
L 92.372615 300.272727 
L 93.108866 300.272727 
L 93.845118 300.272727 
L 94.581369 300.272727 
L 95.317621 300.272727 
L 97.526375 300.272727 
L 98.262626 300.272727 
L 98.998878 300.272727 
L 99.735129 300.272727 
L 100.47138 300.272727 
L 101.207632 300.272727 
L 101.943883 300.272727 
L 102.680135 300.272727 
L 103.416386 300.272727 
L 104.152637 300.272727 
L 104.888889 300.272727 
L 105.62514 300.272727 
L 106.361392 300.272727 
L 107.097643 300.272727 
L 107.833895 300.272727 
L 108.570146 300.272727 
L 109.306397 300.272727 
L 110.042649 300.272727 
L 110.7789 300.272727 
L 111.515152 300.272727 
L 112.251403 300.272727 
L 112.987654 300.272727 
L 113.723906 300.272727 
L 114.460157 300.272727 
L 115.196409 300.272727 
L 115.93266 300.272727 
L 116.668911 300.272727 
L 117.405163 300.272727 
L 118.141414 300.272727 
L 118.877666 300.272727 
L 119.613917 300.272727 
L 120.350168 300.272727 
L 121.08642 300.272727 
L 121.822671 300.272727 
L 122.558923 300.272727 
L 123.295174 300.272727 
L 124.031425 300.272727 
L 124.767677 300.272727 
L 125.503928 300.272727 
L 126.24018 300.272727 
L 126.976431 300.272727 
L 127.712682 300.272727 
L 128.448934 300.272727 
L 129.185185 300.272727 
L 129.921437 300.272727 
L 130.657688 300.272727 
L 131.393939 300.272727 
L 132.130191 300.272727 
L 132.866442 300.272727 
L 133.602694 300.272727 
L 134.338945 300.272727 
L 135.075196 300.272727 
L 135.811448 300.272727 
L 136.547699 300.272727 
L 137.283951 300.272727 
L 138.020202 300.272727 
L 138.756453 300.272727 
L 139.492705 300.272727 
L 140.228956 300.272727 
L 140.965208 300.272727 
L 141.701459 300.272727 
L 142.43771 300.272727 
L 143.173962 300.272727 
L 143.910213 300.272727 
L 144.646465 300.272727 
L 145.382716 300.272727 
L 146.118967 300.272727 
L 146.855219 300.272727 
L 147.59147 300.272727 
L 148.327722 300.272727 
L 149.063973 300.272727 
L 149.800224 300.272727 
L 150.536476 300.272727 
L 151.272727 300.272727 
L 152.008979 300.272727 
L 152.74523 300.272727 
L 153.481481 300.272727 
L 154.217733 300.272727 
L 154.953984 300.272727 
L 155.690236 300.272727 
L 156.426487 300.272727 
L 157.162738 300.272727 
L 157.89899 300.272727 
L 158.635241 300.272727 
L 159.371493 300.272727 
L 160.107744 300.272727 
L 160.843996 300.272727 
L 161.580247 300.272727 
L 162.316498 300.272727 
L 163.05275 300.272727 
L 163.789001 300.272727 
L 164.525253 300.272727 
L 165.261504 300.272727 
L 165.997755 300.272727 
L 166.734007 300.272727 
L 167.470258 300.272727 
L 168.20651 300.272727 
L 168.942761 300.272727 
L 169.679012 300.272727 
L 170.415264 300.272727 
L 171.151515 300.272727 
L 171.887767 300.272727 
L 172.624018 300.272727 
L 173.360269 300.272727 
L 174.096521 300.272727 
L 174.832772 300.272727 
L 175.569024 300.272727 
L 176.305275 300.272727 
L 177.041526 300.272727 
L 177.777778 300.272727 
L 178.514029 300.272727 
L 179.986532 300.272727 
L 180.722783 300.272727 
L 181.459035 300.272727 
L 182.195286 300.272727 
L 182.931538 300.272727 
L 183.667789 300.272727 
L 184.40404 300.272727 
L 185.140292 300.272727 
L 185.876543 300.272727 
L 186.612795 300.272727 
L 187.349046 300.272727 
L 188.085297 300.272727 
L 188.821549 300.272727 
L 189.5578 300.272727 
L 190.294052 300.272727 
L 191.030303 300.272727 
L 191.766554 300.272727 
L 192.502806 300.272727 
L 193.239057 300.272727 
L 193.975309 300.272727 
L 194.71156 300.272727 
L 195.447811 300.272727 
L 196.184063 300.272727 
L 196.920314 300.272727 
L 197.656566 300.272727 
L 198.392817 300.272727 
L 199.129068 300.272727 
L 199.86532 300.272727 
L 200.601571 300.272727 
L 201.337823 300.272727 
L 202.074074 300.272727 
L 202.810325 300.272727 
L 203.546577 300.272727 
L 204.282828 300.272727 
L 205.01908 300.272727 
L 205.755331 300.272727 
L 206.491582 300.272727 
L 207.227834 300.272727 
L 207.964085 300.272727 
L 208.700337 300.272727 
L 209.436588 300.272727 
L 210.17284 300.272727 
L 210.909091 300.272727 
L 211.645342 300.272727 
L 212.381594 300.272727 
L 213.117845 300.272727 
L 213.854097 300.272727 
L 214.590348 300.272727 
L 215.326599 300.272727 
L 216.062851 300.272727 
L 216.799102 300.272727 
L 217.535354 300.272727 
L 218.271605 300.272727 
L 219.007856 300.272727 
L 219.744108 300.272727 
L 220.480359 300.272727 
L 221.216611 300.272727 
L 221.952862 300.272727 
L 222.689113 300.272727 
L 223.425365 300.272727 
L 224.161616 300.272727 
L 224.897868 300.272727 
L 225.634119 300.272727 
L 226.37037 300.272727 
L 227.106622 300.272727 
L 227.842873 300.272727 
L 228.579125 300.272727 
L 229.315376 300.272727 
L 230.051627 300.272727 
L 230.787879 300.272727 
L 231.52413 300.272727 
L 232.260382 300.272727 
L 232.996633 300.272727 
L 233.732884 300.272727 
L 234.469136 300.272727 
L 235.205387 300.272727 
L 235.941639 300.272727 
L 236.67789 300.272727 
L 237.414141 300.272727 
L 238.150393 300.272727 
L 238.886644 300.272727 
L 239.622896 300.272727 
L 240.359147 300.272727 
L 241.095398 300.272727 
L 241.83165 300.272727 
L 242.567901 300.272727 
L 243.304153 300.272727 
L 244.040404 300.272727 
L 245.512907 300.272727 
L 246.249158 300.272727 
L 246.98541 300.272727 
L 247.721661 300.272727 
L 248.457912 300.272727 
L 249.194164 300.272727 
L 249.930415 300.272727 
L 250.666667 300.272727 
L 251.402918 300.272727 
L 252.139169 300.272727 
L 252.875421 300.272727 
L 253.611672 300.272727 
L 254.347924 300.272727 
L 255.084175 300.272727 
L 255.820426 300.272727 
L 256.556678 300.272727 
L 257.292929 300.272727 
L 258.029181 300.272727 
L 258.765432 300.272727 
L 259.501684 300.272727 
L 260.237935 300.272727 
L 260.974186 300.272727 
L 261.710438 300.272727 
L 262.446689 300.272727 
L 263.182941 300.272727 
L 263.919192 300.272727 
L 264.655443 300.272727 
L 265.391695 300.272727 
L 266.127946 300.272727 
L 266.864198 300.272727 
L 267.600449 300.272727 
L 268.3367 300.272727 
L 269.072952 300.272727 
L 269.809203 300.272727 
L 270.545455 300.272727 
L 271.281706 300.272727 
L 272.017957 300.272727 
L 272.754209 300.272727 
L 273.49046 300.272727 
L 274.226712 300.272727 
L 274.962963 300.272727 
L 275.699214 300.272727 
L 276.435466 300.272727 
L 277.171717 300.272727 
L 277.907969 300.272727 
L 278.64422 300.272727 
L 279.380471 300.272727 
L 280.116723 300.272727 
L 280.852974 300.272727 
L 281.589226 300.272727 
L 282.325477 300.272727 
L 283.061728 300.272727 
L 283.79798 300.272727 
L 284.534231 300.272727 
L 285.270483 300.272727 
L 286.006734 300.272727 
L 286.742985 300.272727 
L 287.479237 300.272727 
L 288.215488 300.272727 
L 288.95174 300.272727 
L 289.687991 300.272727 
L 290.424242 300.272727 
L 291.160494 300.272727 
L 291.896745 300.272727 
L 292.632997 300.272727 
L 293.369248 300.272727 
L 294.105499 300.272727 
L 294.841751 300.272727 
L 295.578002 300.272727 
L 296.314254 300.272727 
L 297.050505 300.272727 
L 297.786756 300.272727 
L 298.523008 300.272727 
L 299.259259 300.272727 
L 299.995511 300.272727 
L 300.731762 300.272727 
L 301.468013 300.272727 
L 302.204265 300.272727 
L 302.940516 300.272727 
L 303.676768 300.272727 
L 304.413019 300.272727 
L 305.14927 300.272727 
L 305.885522 300.272727 
L 306.621773 300.272727 
L 307.358025 300.272727 
L 308.094276 300.272727 
L 308.830527 300.272727 
L 309.566779 300.272727 
L 310.30303 300.272727 
L 311.039282 300.272727 
L 311.775533 300.272727 
L 312.511785 300.272727 
L 313.248036 300.272727 
L 313.984287 300.272727 
L 314.720539 300.272727 
L 315.45679 300.272727 
L 316.193042 300.272727 
L 316.929293 300.272727 
L 317.665544 300.272727 
L 318.401796 300.272727 
L 319.138047 300.272727 
L 319.874299 300.272727 
L 320.61055 300.272727 
L 321.346801 300.272727 
L 322.083053 300.272727 
L 322.819304 300.272727 
L 323.555556 300.272727 
L 324.291807 300.272727 
L 325.028058 300.272727 
L 325.76431 300.272727 
L 326.500561 300.272727 
L 327.236813 300.272727 
L 327.973064 300.272727 
L 328.709315 300.272727 
L 329.445567 300.272727 
L 330.181818 300.272727 
L 330.91807 300.272727 
L 331.654321 300.272727 
L 332.390572 300.272727 
L 333.126824 300.272727 
L 333.863075 300.272727 
L 334.599327 300.272727 
L 335.335578 300.272727 
L 336.071829 300.272727 
L 336.808081 300.272727 
L 337.544332 300.272727 
L 338.280584 300.272727 
L 339.016835 300.272727 
L 339.753086 300.272727 
L 340.489338 300.272727 
L 341.225589 300.272727 
L 341.961841 300.272727 
L 342.698092 300.272727 
L 343.434343 300.272727 
L 344.170595 300.272727 
L 344.906846 300.272727 
L 345.643098 300.272727 
L 346.379349 300.272727 
L 347.1156 300.272727 
L 347.851852 300.272727 
L 348.588103 300.272727 
L 349.324355 300.272727 
L 350.060606 300.272727 
L 350.796857 300.272727 
L 351.533109 300.272727 
L 352.26936 300.272727 
L 353.005612 300.272727 
L 353.741863 300.272727 
L 354.478114 300.272727 
L 355.214366 300.272727 
L 355.950617 300.272727 
L 356.686869 300.272727 
L 357.42312 300.272727 
L 358.159371 300.272727 
L 358.895623 300.272727 
L 359.631874 300.272727 
L 360.368126 300.272727 
L 361.104377 300.272727 
L 361.840629 300.272727 
L 362.57688 300.272727 
L 363.313131 300.272727 
L 364.049383 300.272727 
L 364.785634 300.272727 
L 365.521886 300.272727 
L 366.258137 300.272727 
L 366.994388 300.272727 
L 367.73064 300.272727 
L 368.466891 300.272727 
L 369.203143 300.272727 
L 369.939394 300.272727 
L 370.675645 300.272727 
L 371.411897 300.272727 
L 372.148148 300.272727 
L 372.8844 300.272727 
L 373.620651 300.272727 
L 374.356902 300.272727 
L 375.093154 300.272727 
L 375.829405 300.272727 
L 376.565657 300.272727 
L 377.301908 300.272727 
L 378.038159 300.272727 
L 378.774411 300.272727 
L 379.510662 300.272727 
L 380.246914 300.272727 
L 380.983165 300.272727 
L 381.719416 300.272727 
L 382.455668 300.272727 
L 383.191919 300.272727 
L 383.928171 300.272727 
L 384.664422 300.272727 
L 385.400673 300.272727 
L 386.136925 300.272727 
L 386.873176 300.272727 
L 387.609428 300.272727 
L 388.345679 300.272727 
L 389.08193 300.272727 
L 389.818182 300.272727 
L 390.554433 300.272727 
L 391.290685 300.272727 
L 392.026936 300.272727 
L 392.763187 300.272727 
L 393.499439 300.272727 
L 402.334456 300.272727 
L 403.070707 300.272727 
L 403.806958 300.272727 
L 404.54321 300.272727 
L 405.279461 300.272727 
L 406.015713 300.272727 
L 406.751964 300.272727 
L 407.488215 300.272727 
L 408.960718 300.272727 
L 409.69697 300.272727 
L 410.433221 300.272727 
L 411.169473 300.272727 
L 411.905724 300.272727 
L 412.641975 300.272727 
L 413.378227 300.272727 
L 414.114478 300.272727 
L 414.85073 300.272727 
L 415.586981 300.272727 
L 416.323232 300.272727 
L 417.059484 300.272727 
L 417.795735 300.272727 
L 418.531987 300.272727 
L 419.268238 300.272727 
L 420.004489 300.272727 
L 420.740741 300.272727 
L 421.476992 300.272727 
L 422.213244 300.272727 
L 422.949495 300.272727 
L 423.685746 300.272727 
L 424.421998 300.272727 
L 425.158249 300.272727 
L 425.894501 300.272727 
L 426.630752 300.272727 
L 427.367003 300.272727 
L 428.103255 300.272727 
L 428.839506 300.272727 
L 429.575758 300.272727 
L 430.312009 300.272727 
L 431.04826 300.272727 
L 431.784512 300.272727 
L 432.520763 300.272727 
L 433.257015 300.272727 
L 433.993266 300.272727 
L 434.729517 300.272727 
L 435.465769 300.272727 
L 436.20202 300.272727 
L 436.938272 300.272727 
L 439.147026 300.272727 
L 439.883277 300.272727 
L 440.619529 300.272727 
L 441.35578 300.272727 
L 442.092031 300.272727 
L 442.828283 300.272727 
L 443.564534 300.272727 
L 444.300786 300.272727 
L 445.037037 300.272727 
L 445.773288 300.272727 
L 446.50954 300.272727 
L 447.245791 300.272727 
L 447.982043 300.272727 
L 448.718294 300.272727 
L 449.454545 300.272727 
L 450.190797 300.272727 
L 450.927048 300.272727 
L 451.6633 300.272727 
L 452.399551 300.272727 
L 453.135802 300.272727 
L 453.872054 300.272727 
L 454.608305 300.272727 
L 455.344557 300.272727 
L 456.080808 300.272727 
L 456.817059 300.272727 
L 457.553311 300.272727 
L 458.289562 300.272727 
L 459.025814 300.272727 
L 459.762065 300.272727 
L 460.498316 300.272727 
L 461.234568 300.272727 
L 461.970819 300.272727 
L 462.707071 300.272727 
L 463.443322 300.272727 
L 464.179574 300.272727 
L 464.915825 300.272727 
L 465.652076 300.272727 
L 466.388328 300.272727 
L 467.124579 300.272727 
L 467.860831 300.272727 
L 468.597082 300.272727 
L 469.333333 300.272727 
L 470.069585 300.272727 
L 470.805836 300.272727 
L 471.542088 300.272727 
L 472.278339 300.272727 
L 473.01459 300.272727 
L 473.750842 300.272727 
L 474.487093 300.272727 
L 475.223345 300.272727 
L 475.959596 300.272727 
L 476.695847 300.272727 
L 477.432099 300.272727 
L 478.16835 300.272727 
L 478.904602 300.272727 
L 479.640853 300.272727 
L 480.377104 300.272727 
L 481.113356 300.272727 
L 481.849607 300.272727 
L 482.585859 300.272727 
L 483.32211 300.272727 
L 484.058361 300.272727 
L 484.794613 300.272727 
L 485.530864 300.272727 
L 486.267116 300.272727 
L 487.003367 300.272727 
L 487.739618 300.272727 
L 488.47587 300.272727 
L 489.212121 300.272727 
L 489.948373 300.272727 
L 490.684624 300.272727 
L 491.420875 300.272727 
L 492.157127 300.272727 
L 492.893378 300.272727 
L 493.62963 300.272727 
L 494.365881 300.272727 
L 495.102132 300.272727 
L 495.838384 300.272727 
L 496.574635 300.272727 
L 497.310887 300.272727 
L 498.047138 300.272727 
L 498.783389 300.272727 
L 499.519641 300.272727 
L 500.255892 300.272727 
L 500.992144 300.272727 
L 501.728395 300.272727 
L 502.464646 300.272727 
L 503.200898 300.272727 
L 503.937149 300.272727 
L 504.673401 300.272727 
L 505.409652 300.272727 
L 506.145903 300.272727 
L 506.882155 300.272727 
L 507.618406 300.272727 
L 508.354658 300.272727 
L 509.090909 300.272727 
L 509.82716 300.272727 
L 510.563412 300.272727 
L 511.299663 300.272727 
L 512.035915 300.272727 
L 512.772166 300.272727 
L 513.508418 300.272727 
L 514.244669 300.272727 
L 514.98092 300.272727 
L 515.717172 300.272727 
L 516.453423 300.272727 
L 517.189675 300.272727 
L 517.925926 300.272727 
L 518.662177 300.272727 
L 519.398429 300.272727 
L 520.13468 300.272727 
L 520.870932 300.272727 
L 521.607183 300.272727 
L 522.343434 300.272727 
L 523.079686 300.272727 
L 523.815937 300.272727 
L 524.552189 300.272727 
L 525.28844 300.272727 
L 526.024691 300.272727 
L 526.760943 300.272727 
L 527.497194 300.272727 
L 528.233446 300.272727 
L 528.969697 300.272727 
L 529.705948 300.272727 
L 530.4422 300.272727 
L 531.178451 300.272727 
L 531.914703 300.272727 
L 532.650954 300.272727 
L 533.387205 300.272727 
L 534.123457 300.272727 
L 534.859708 300.272727 
L 535.59596 300.272727 
L 536.332211 300.272727 
L 537.068462 300.272727 
L 537.804714 300.272727 
L 538.540965 300.272727 
L 539.277217 300.272727 
L 540.013468 300.272727 
L 540.749719 300.272727 
L 541.485971 300.272727 
L 542.222222 300.272727 
L 542.958474 300.272727 
L 543.694725 300.272727 
L 544.430976 300.272727 
L 545.167228 300.272727 
L 545.903479 300.272727 
L 546.639731 300.272727 
L 547.375982 300.272727 
L 548.112233 300.272727 
L 548.848485 300.272727 
L 549.584736 300.272727 
L 550.320988 300.272727 
L 551.057239 300.272727 
L 551.79349 300.272727 
L 552.529742 300.272727 
L 553.265993 300.272727 
L 554.002245 300.272727 
L 554.738496 300.272727 
L 555.474747 300.272727 
L 556.210999 300.272727 
L 556.94725 300.272727 
L 557.683502 300.272727 
L 558.419753 300.272727 
L 559.156004 300.272727 
L 559.892256 300.272727 
L 560.628507 300.272727 
L 561.364759 300.272727 
L 562.10101 300.272727 
L 563.573513 300.272727 
L 564.309764 300.272727 
L 565.046016 300.272727 
L 565.782267 300.272727 
L 566.518519 300.272727 
L 567.25477 300.272727 
L 567.991021 300.272727 
L 568.727273 300.272727 
L 569.463524 300.272727 
L 570.199776 300.272727 
L 570.936027 300.272727 
L 571.672278 300.272727 
L 572.40853 300.272727 
L 573.144781 300.272727 
L 573.881033 300.272727 
L 574.617284 300.272727 
L 575.353535 300.272727 
L 576.089787 300.272727 
L 576.826038 300.272727 
L 577.56229 300.272727 
L 578.298541 300.272727 
L 579.034792 300.272727 
L 579.771044 300.272727 
L 580.507295 300.272727 
L 581.243547 300.272727 
L 581.979798 300.272727 
L 582.716049 300.272727 
L 583.452301 300.272727 
L 584.188552 300.272727 
L 584.924804 300.272727 
L 585.661055 300.272727 
L 586.397306 300.272727 
L 587.133558 300.272727 
L 587.869809 300.272727 
L 588.606061 300.272727 
L 589.342312 300.272727 
L 590.078563 300.272727 
L 590.814815 300.272727 
L 591.551066 300.272727 
L 592.287318 300.272727 
L 593.023569 300.272727 
L 593.75982 300.272727 
L 594.496072 300.272727 
L 595.232323 300.272727 
L 595.968575 300.272727 
L 596.704826 300.272727 
L 597.441077 300.272727 
L 598.177329 300.272727 
L 598.91358 300.272727 
L 599.649832 300.272727 
L 600.386083 300.272727 
L 601.122334 300.272727 
L 601.858586 300.272727 
L 602.594837 300.272727 
L 603.331089 300.272727 
L 604.06734 300.272727 
L 604.803591 300.272727 
L 605.539843 300.272727 
L 606.276094 300.272727 
L 607.012346 300.272727 
L 607.748597 300.272727 
L 608.484848 300.272727 
L 609.2211 300.272727 
L 609.957351 300.272727 
L 610.693603 300.272727 
L 611.429854 300.272727 
L 612.166105 300.272727 
L 612.902357 300.272727 
L 613.638608 300.272727 
L 614.37486 300.272727 
L 615.111111 300.272727 
L 615.847363 300.272727 
L 616.583614 300.272727 
L 617.319865 300.272727 
L 618.056117 300.272727 
L 618.792368 300.272727 
L 619.52862 300.272727 
L 620.264871 300.272727 
L 621.001122 300.272727 
L 621.737374 300.272727 
L 622.473625 300.272727 
L 623.209877 300.272727 
L 623.946128 300.272727 
L 624.682379 300.272727 
L 625.418631 300.272727 
L 626.154882 300.272727 
L 626.891134 300.272727 
L 627.627385 300.272727 
L 628.363636 300.272727 
L 628.363636 300.272727 
L 628.363636 294.492239 
L 627.627385 297.119734 
L 626.891134 295.543237 
L 626.154882 297.119734 
L 625.418631 297.119734 
L 624.682379 294.492239 
L 623.946128 296.594235 
L 623.209877 296.594235 
L 622.473625 294.492239 
L 621.737374 278.727273 
L 621.001122 298.696231 
L 620.264871 292.915743 
L 619.52862 295.017738 
L 618.792368 295.017738 
L 618.056117 296.068736 
L 617.319865 278.727273 
L 616.583614 260.86031 
L 615.847363 277.150776 
L 615.111111 290.288248 
L 614.37486 295.543237 
L 613.638608 295.543237 
L 612.902357 296.068736 
L 612.166105 292.915743 
L 611.429854 292.915743 
L 610.693603 294.492239 
L 609.957351 282.405765 
L 609.2211 261.385809 
L 608.484848 290.813747 
L 607.748597 255.079823 
L 607.012346 251.926829 
L 606.276094 288.711752 
L 605.539843 292.390244 
L 604.803591 249.299335 
L 604.06734 290.813747 
L 603.331089 285.558758 
L 602.594837 290.813747 
L 601.858586 293.966741 
L 601.122334 289.762749 
L 600.386083 294.492239 
L 599.649832 278.201774 
L 598.91358 292.915743 
L 598.177329 296.594235 
L 597.441077 296.594235 
L 596.704826 297.119734 
L 595.968575 295.543237 
L 595.232323 274.523282 
L 594.496072 262.962306 
L 593.75982 272.421286 
L 593.023569 296.068736 
L 592.287318 293.441242 
L 591.551066 290.813747 
L 590.814815 291.339246 
L 590.078563 298.170732 
L 589.342312 292.915743 
L 588.606061 296.594235 
L 587.869809 298.170732 
L 587.133558 296.068736 
L 586.397306 266.115299 
L 585.661055 266.115299 
L 584.924804 264.538803 
L 584.188552 230.906874 
L 583.452301 264.013304 
L 582.716049 298.170732 
L 581.979798 298.170732 
L 581.243547 293.966741 
L 580.507295 297.119734 
L 579.771044 274.523282 
L 579.034792 230.381375 
L 578.298541 251.926829 
L 577.56229 298.170732 
L 576.826038 297.119734 
L 576.089787 298.170732 
L 575.353535 288.711752 
L 574.617284 293.441242 
L 573.881033 290.813747 
L 573.144781 291.339246 
L 572.40853 293.441242 
L 571.672278 292.390244 
L 570.936027 293.966741 
L 570.199776 296.594235 
L 569.463524 298.170732 
L 568.727273 295.543237 
L 567.991021 297.645233 
L 567.25477 297.119734 
L 566.518519 296.594235 
L 565.782267 296.594235 
L 565.046016 297.119734 
L 564.309764 295.543237 
L 563.573513 288.186253 
L 562.10101 298.170732 
L 561.364759 297.119734 
L 560.628507 297.119734 
L 559.892256 297.119734 
L 559.156004 290.813747 
L 558.419753 298.170732 
L 557.683502 297.119734 
L 556.94725 297.119734 
L 556.210999 298.170732 
L 555.474747 298.170732 
L 554.738496 296.068736 
L 554.002245 299.221729 
L 553.265993 298.170732 
L 552.529742 288.186253 
L 551.79349 298.170732 
L 551.057239 297.119734 
L 550.320988 296.594235 
L 549.584736 295.543237 
L 548.848485 295.017738 
L 548.112233 297.645233 
L 547.375982 295.017738 
L 546.639731 297.119734 
L 545.903479 297.645233 
L 545.167228 297.119734 
L 544.430976 293.441242 
L 543.694725 297.645233 
L 542.958474 295.543237 
L 542.222222 297.119734 
L 541.485971 296.594235 
L 540.749719 295.017738 
L 540.013468 256.656319 
L 539.277217 279.252772 
L 538.540965 283.456763 
L 537.804714 293.966741 
L 537.068462 266.115299 
L 536.332211 298.170732 
L 535.59596 294.492239 
L 534.859708 297.119734 
L 534.123457 295.017738 
L 533.387205 293.966741 
L 532.650954 295.017738 
L 531.914703 295.017738 
L 531.178451 297.119734 
L 530.4422 296.594235 
L 529.705948 232.48337 
L 528.969697 173.627494 
L 528.233446 204.10643 
L 527.497194 233.008869 
L 526.760943 297.119734 
L 526.024691 294.492239 
L 525.28844 292.390244 
L 524.552189 229.855876 
L 523.815937 241.94235 
L 523.079686 292.390244 
L 522.343434 293.441242 
L 521.607183 288.711752 
L 520.870932 285.033259 
L 520.13468 228.279379 
L 519.398429 226.177384 
L 518.662177 290.813747 
L 517.925926 291.339246 
L 517.189675 287.660754 
L 516.453423 289.237251 
L 515.717172 293.966741 
L 514.98092 295.017738 
L 514.244669 285.558758 
L 513.508418 292.915743 
L 512.772166 269.268293 
L 512.035915 200.953437 
L 511.299663 234.585366 
L 510.563412 295.543237 
L 509.82716 197.274945 
L 509.090909 185.18847 
L 508.354658 294.492239 
L 507.618406 288.711752 
L 506.882155 297.119734 
L 506.145903 270.844789 
L 505.409652 298.170732 
L 504.673401 245.620843 
L 503.937149 247.722838 
L 503.200898 296.068736 
L 502.464646 298.170732 
L 501.728395 297.119734 
L 500.992144 295.543237 
L 500.255892 298.170732 
L 499.519641 294.492239 
L 498.783389 293.441242 
L 498.047138 296.068736 
L 497.310887 200.953437 
L 496.574635 208.83592 
L 495.838384 266.640798 
L 495.102132 294.492239 
L 494.365881 282.931264 
L 493.62963 266.115299 
L 492.893378 243.518847 
L 492.157127 242.993348 
L 491.420875 205.157428 
L 490.684624 234.585366 
L 489.948373 273.472284 
L 489.212121 206.208426 
L 488.47587 248.248337 
L 487.739618 280.303769 
L 487.003367 287.660754 
L 486.267116 296.594235 
L 485.530864 295.543237 
L 484.794613 293.966741 
L 484.058361 296.068736 
L 483.32211 294.492239 
L 482.585859 287.135255 
L 481.849607 255.605322 
L 481.113356 290.288248 
L 480.377104 298.170732 
L 479.640853 295.543237 
L 478.904602 293.966741 
L 478.16835 287.660754 
L 477.432099 297.645233 
L 476.695847 296.068736 
L 475.959596 296.068736 
L 475.223345 295.543237 
L 474.487093 285.033259 
L 473.750842 296.068736 
L 473.01459 273.997783 
L 472.278339 285.558758 
L 471.542088 293.966741 
L 470.805836 293.966741 
L 470.069585 296.594235 
L 469.333333 296.594235 
L 468.597082 296.594235 
L 467.860831 287.660754 
L 467.124579 256.13082 
L 466.388328 247.197339 
L 465.652076 273.472284 
L 464.915825 288.711752 
L 464.179574 291.864745 
L 463.443322 278.727273 
L 462.707071 255.605322 
L 461.970819 244.044346 
L 461.234568 248.773836 
L 460.498316 248.248337 
L 459.762065 239.840355 
L 459.025814 294.492239 
L 458.289562 291.339246 
L 457.553311 254.554324 
L 456.817059 287.660754 
L 456.080808 288.186253 
L 455.344557 253.503326 
L 454.608305 295.017738 
L 453.872054 287.135255 
L 453.135802 290.813747 
L 452.399551 248.773836 
L 451.6633 225.126386 
L 450.927048 239.314856 
L 450.190797 266.640798 
L 449.454545 285.033259 
L 448.718294 290.288248 
L 447.982043 296.068736 
L 447.245791 248.248337 
L 446.50954 266.115299 
L 445.773288 283.982262 
L 445.037037 233.008869 
L 444.300786 238.263858 
L 443.564534 265.5898 
L 442.828283 271.370288 
L 442.092031 176.780488 
L 441.35578 289.762749 
L 440.619529 262.962306 
L 439.883277 202.529933 
L 439.147026 201.478936 
L 436.938272 273.472284 
L 436.20202 236.687361 
L 435.465769 191.494457 
L 434.729517 242.467849 
L 433.993266 243.518847 
L 433.257015 286.084257 
L 432.520763 272.421286 
L 431.784512 270.844789 
L 431.04826 174.152993 
L 430.312009 222.498891 
L 429.575758 282.405765 
L 428.839506 259.809313 
L 428.103255 265.5898 
L 427.367003 182.560976 
L 426.630752 228.804878 
L 425.894501 270.31929 
L 425.158249 228.279379 
L 424.421998 219.871397 
L 423.685746 237.21286 
L 422.949495 254.028825 
L 422.213244 262.962306 
L 421.476992 217.769401 
L 420.740741 213.039911 
L 420.004489 236.687361 
L 419.268238 224.600887 
L 418.531987 212.514412 
L 417.795735 265.5898 
L 417.059484 178.882483 
L 416.323232 219.871397 
L 415.586981 232.48337 
L 414.85073 209.886918 
L 414.114478 104.78714 
L 413.378227 246.146341 
L 412.641975 265.064302 
L 411.905724 189.91796 
L 411.169473 188.341463 
L 410.433221 239.840355 
L 409.69697 168.372506 
L 408.960718 67.476718 
L 407.488215 228.279379 
L 406.751964 244.044346 
L 406.015713 204.631929 
L 405.279461 220.396896 
L 404.54321 178.882483 
L 403.806958 160.490022 
L 403.070707 189.392461 
L 402.334456 262.962306 
L 393.499439 198.851441 
L 392.763187 188.866962 
L 392.026936 256.13082 
L 391.290685 288.711752 
L 390.554433 278.201774 
L 389.818182 276.625277 
L 389.08193 273.472284 
L 388.345679 247.197339 
L 387.609428 275.04878 
L 386.873176 285.033259 
L 386.136925 288.186253 
L 385.400673 251.926829 
L 384.664422 196.749446 
L 383.928171 142.62306 
L 383.191919 58.017738 
L 382.455668 161.54102 
L 381.719416 275.04878 
L 380.983165 275.574279 
L 380.246914 281.354767 
L 379.510662 270.844789 
L 378.774411 242.993348 
L 378.038159 272.946785 
L 377.301908 279.778271 
L 376.565657 286.609756 
L 375.829405 287.135255 
L 375.093154 289.237251 
L 374.356902 283.982262 
L 373.620651 274.523282 
L 372.8844 169.949002 
L 372.148148 167.321508 
L 371.411897 201.478936 
L 370.675645 190.443459 
L 369.939394 214.616408 
L 369.203143 279.778271 
L 368.466891 272.421286 
L 367.73064 241.416851 
L 366.994388 284.507761 
L 366.258137 273.997783 
L 365.521886 270.31929 
L 364.785634 254.554324 
L 364.049383 190.968958 
L 363.313131 198.851441 
L 362.57688 247.197339 
L 361.840629 204.631929 
L 361.104377 196.749446 
L 360.368126 180.45898 
L 359.631874 173.627494 
L 358.895623 171.525499 
L 358.159371 185.713969 
L 357.42312 144.725055 
L 356.686869 117.924612 
L 355.950617 171.525499 
L 355.214366 195.172949 
L 354.478114 190.443459 
L 353.741863 162.066519 
L 353.005612 179.933481 
L 352.26936 204.631929 
L 351.533109 149.454545 
L 350.796857 122.128603 
L 350.060606 157.337029 
L 349.324355 209.886918 
L 348.588103 210.937916 
L 347.851852 186.239468 
L 347.1156 207.259424 
L 346.379349 235.110865 
L 345.643098 292.390244 
L 344.906846 287.135255 
L 344.170595 230.906874 
L 343.434343 234.585366 
L 342.698092 288.711752 
L 341.961841 284.507761 
L 341.225589 229.855876 
L 340.489338 282.931264 
L 339.753086 289.762749 
L 339.016835 280.829268 
L 338.280584 262.962306 
L 337.544332 237.738359 
L 336.808081 291.864745 
L 336.071829 284.507761 
L 335.335578 286.609756 
L 334.599327 290.288248 
L 333.863075 213.56541 
L 333.126824 249.299335 
L 332.390572 292.390244 
L 331.654321 276.099778 
L 330.91807 272.421286 
L 330.181818 272.421286 
L 329.445567 287.660754 
L 328.709315 286.084257 
L 327.973064 291.864745 
L 327.236813 287.660754 
L 326.500561 288.186253 
L 325.76431 282.931264 
L 325.028058 291.864745 
L 324.291807 282.405765 
L 323.555556 290.813747 
L 322.819304 235.636364 
L 322.083053 258.758315 
L 321.346801 289.762749 
L 320.61055 230.381375 
L 319.874299 255.079823 
L 319.138047 288.711752 
L 318.401796 279.778271 
L 317.665544 290.288248 
L 316.929293 277.150776 
L 316.193042 256.13082 
L 315.45679 285.558758 
L 314.720539 290.813747 
L 313.984287 286.084257 
L 313.248036 284.507761 
L 312.511785 292.390244 
L 311.775533 279.778271 
L 311.039282 280.829268 
L 310.30303 271.895787 
L 309.566779 276.625277 
L 308.830527 276.099778 
L 308.094276 253.503326 
L 307.358025 275.574279 
L 306.621773 287.135255 
L 305.885522 265.5898 
L 305.14927 268.217295 
L 304.413019 213.039911 
L 303.676768 143.674058 
L 302.940516 189.392461 
L 302.204265 180.45898 
L 301.468013 292.915743 
L 300.731762 268.742794 
L 299.995511 268.217295 
L 299.259259 291.339246 
L 298.523008 291.339246 
L 297.786756 286.084257 
L 297.050505 270.31929 
L 296.314254 259.283814 
L 295.578002 261.385809 
L 294.841751 291.339246 
L 294.105499 291.864745 
L 293.369248 285.033259 
L 292.632997 251.926829 
L 291.896745 290.813747 
L 291.160494 287.660754 
L 290.424242 241.416851 
L 289.687991 261.385809 
L 288.95174 279.778271 
L 288.215488 284.507761 
L 287.479237 280.829268 
L 286.742985 267.691796 
L 286.006734 287.660754 
L 285.270483 271.895787 
L 284.534231 278.727273 
L 283.79798 285.033259 
L 283.061728 285.558758 
L 282.325477 284.507761 
L 281.589226 281.880266 
L 280.852974 222.498891 
L 280.116723 258.232816 
L 279.380471 262.436807 
L 278.64422 282.931264 
L 277.907969 278.201774 
L 277.171717 267.691796 
L 276.435466 279.778271 
L 275.699214 242.993348 
L 274.962963 264.013304 
L 274.226712 277.676275 
L 273.49046 267.166297 
L 272.754209 275.574279 
L 272.017957 280.303769 
L 271.281706 207.784922 
L 270.545455 270.31929 
L 269.809203 278.201774 
L 269.072952 272.421286 
L 268.3367 273.997783 
L 267.600449 268.742794 
L 266.864198 265.5898 
L 266.127946 250.875831 
L 265.391695 224.600887 
L 264.655443 224.600887 
L 263.919192 235.110865 
L 263.182941 276.099778 
L 262.446689 270.31929 
L 261.710438 234.059867 
L 260.974186 186.764967 
L 260.237935 176.780488 
L 259.501684 226.702882 
L 258.765432 267.166297 
L 258.029181 270.844789 
L 257.292929 285.558758 
L 256.556678 229.330377 
L 255.820426 279.778271 
L 255.084175 279.252772 
L 254.347924 252.977827 
L 253.611672 269.793792 
L 252.875421 196.749446 
L 252.139169 222.498891 
L 251.402918 209.361419 
L 250.666667 235.636364 
L 249.930415 254.554324 
L 249.194164 267.691796 
L 248.457912 267.166297 
L 247.721661 277.676275 
L 246.98541 276.099778 
L 246.249158 244.044346 
L 245.512907 195.172949 
L 244.040404 277.150776 
L 243.304153 264.538803 
L 242.567901 247.722838 
L 241.83165 240.891353 
L 241.095398 261.911308 
L 240.359147 268.217295 
L 239.622896 242.467849 
L 238.886644 268.217295 
L 238.150393 247.197339 
L 237.414141 251.926829 
L 236.67789 230.906874 
L 235.941639 233.008869 
L 235.205387 246.67184 
L 234.469136 239.840355 
L 233.732884 203.055432 
L 232.996633 83.241685 
L 232.260382 167.321508 
L 231.52413 166.796009 
L 230.787879 161.54102 
L 230.051627 150.505543 
L 229.315376 260.86031 
L 228.579125 213.56541 
L 227.842873 257.181818 
L 227.106622 272.421286 
L 226.37037 269.268293 
L 225.634119 276.625277 
L 224.897868 268.217295 
L 224.161616 280.829268 
L 223.425365 237.21286 
L 222.689113 267.691796 
L 221.952862 270.31929 
L 221.216611 283.982262 
L 220.480359 227.228381 
L 219.744108 211.988914 
L 219.007856 266.640798 
L 218.271605 191.494457 
L 217.535354 197.800443 
L 216.799102 184.137472 
L 216.062851 199.902439 
L 215.326599 214.090909 
L 214.590348 199.37694 
L 213.854097 157.337029 
L 213.117845 220.396896 
L 212.381594 256.656319 
L 211.645342 280.303769 
L 210.909091 261.911308 
L 210.17284 277.676275 
L 209.436588 262.436807 
L 208.700337 276.625277 
L 207.964085 277.150776 
L 207.227834 267.166297 
L 206.491582 265.5898 
L 205.755331 269.268293 
L 205.01908 239.840355 
L 204.282828 261.385809 
L 203.546577 261.911308 
L 202.810325 255.605322 
L 202.074074 275.04878 
L 201.337823 279.778271 
L 200.601571 265.5898 
L 199.86532 235.110865 
L 199.129068 190.968958 
L 198.392817 242.993348 
L 197.656566 178.356984 
L 196.920314 180.45898 
L 196.184063 269.793792 
L 195.447811 287.135255 
L 194.71156 142.097561 
L 193.975309 124.230599 
L 193.239057 223.02439 
L 192.502806 249.299335 
L 191.766554 277.676275 
L 191.030303 287.660754 
L 190.294052 279.778271 
L 189.5578 202.529933 
L 188.821549 277.150776 
L 188.085297 257.181818 
L 187.349046 265.064302 
L 186.612795 282.931264 
L 185.876543 279.778271 
L 185.140292 278.201774 
L 184.40404 258.758315 
L 183.667789 241.94235 
L 182.931538 285.033259 
L 182.195286 285.558758 
L 181.459035 255.605322 
L 180.722783 192.545455 
L 179.986532 209.361419 
L 178.514029 268.742794 
L 177.777778 237.21286 
L 177.041526 224.075388 
L 176.305275 282.931264 
L 175.569024 271.370288 
L 174.832772 287.135255 
L 174.096521 253.503326 
L 173.360269 292.390244 
L 172.624018 285.558758 
L 171.887767 280.303769 
L 171.151515 282.405765 
L 170.415264 286.084257 
L 169.679012 272.421286 
L 168.942761 282.405765 
L 168.20651 277.676275 
L 167.470258 256.13082 
L 166.734007 286.084257 
L 165.997755 279.252772 
L 165.261504 236.687361 
L 164.525253 232.48337 
L 163.789001 286.609756 
L 163.05275 255.605322 
L 162.316498 254.028825 
L 161.580247 234.585366 
L 160.843996 255.079823 
L 160.107744 282.931264 
L 159.371493 286.084257 
L 158.635241 286.609756 
L 157.89899 266.640798 
L 157.162738 288.186253 
L 156.426487 194.121951 
L 155.690236 41.727273 
L 154.953984 128.43459 
L 154.217733 74.308204 
L 153.481481 84.818182 
L 152.74523 160.490022 
L 152.008979 115.822616 
L 151.272727 244.044346 
L 150.536476 271.895787 
L 149.800224 293.441242 
L 149.063973 229.330377 
L 148.327722 192.019956 
L 147.59147 189.392461 
L 146.855219 194.121951 
L 146.118967 185.713969 
L 145.382716 210.937916 
L 144.646465 211.463415 
L 143.910213 210.937916 
L 143.173962 240.891353 
L 142.43771 288.186253 
L 141.701459 279.252772 
L 140.965208 286.084257 
L 140.228956 276.625277 
L 139.492705 270.844789 
L 138.756453 269.268293 
L 138.020202 250.350333 
L 137.283951 282.405765 
L 136.547699 280.829268 
L 135.811448 255.079823 
L 135.075196 271.370288 
L 134.338945 257.181818 
L 133.602694 242.993348 
L 132.866442 269.793792 
L 132.130191 236.161863 
L 131.393939 261.911308 
L 130.657688 159.439024 
L 129.921437 96.379157 
L 129.185185 186.764967 
L 128.448934 187.290466 
L 127.712682 190.968958 
L 126.976431 196.223947 
L 126.24018 166.27051 
L 125.503928 190.968958 
L 124.767677 169.423503 
L 124.031425 183.086475 
L 123.295174 182.560976 
L 122.558923 192.545455 
L 121.822671 182.560976 
L 121.08642 228.804878 
L 120.350168 278.201774 
L 119.613917 194.121951 
L 118.877666 189.91796 
L 118.141414 177.831486 
L 117.405163 179.407982 
L 116.668911 203.055432 
L 115.93266 204.631929 
L 115.196409 128.960089 
L 114.460157 155.235033 
L 113.723906 66.95122 
L 112.987654 100.583149 
L 112.251403 119.501109 
L 111.515152 143.674058 
L 110.7789 203.055432 
L 110.042649 200.953437 
L 109.306397 209.886918 
L 108.570146 265.064302 
L 107.833895 283.982262 
L 107.097643 283.456763 
L 106.361392 188.866962 
L 105.62514 115.822616 
L 104.888889 139.995565 
L 104.152637 140.521064 
L 103.416386 197.274945 
L 102.680135 205.157428 
L 101.943883 204.631929 
L 101.207632 140.521064 
L 100.47138 208.310421 
L 99.735129 265.5898 
L 98.998878 238.263858 
L 98.262626 255.605322 
L 97.526375 285.558758 
L 95.317621 284.507761 
L 94.581369 197.274945 
L 93.845118 228.804878 
L 93.108866 262.962306 
L 92.372615 280.303769 
L 91.636364 275.04878 
z
" style="fill:#ffa07a;fill-opacity:0.3;"/>
   </g>
   <g id="matplotlib.axis_1">
    <g id="xtick_1">
     <g id="line2d_1">
      <path clip-path="url(#pefc55e1ee0)" d="M 91.636364 313.2 
L 91.636364 28.8 
" style="fill:none;stroke:#808080;stroke-dasharray:6.4,1.6,1,1.6;stroke-dashoffset:0;stroke-opacity:0.3;"/>
     </g>
     <g id="line2d_2">
      <defs>
       <path d="M 0 0 
L 0 3.5 
" id="mdfb90e1417" style="stroke:#000000;stroke-width:0.8;"/>
      </defs>
      <g>
       <use style="stroke:#000000;stroke-width:0.8;" x="91.636364" xlink:href="#mdfb90e1417" y="313.2"/>
      </g>
     </g>
     <g id="text_1">
      <!-- 2020-11-20 -->
      <g transform="translate(62.578551 327.798437)scale(0.1 -0.1)">
       <defs>
        <path d="M 19.1875 8.296875 
L 53.609375 8.296875 
L 53.609375 0 
L 7.328125 0 
L 7.328125 8.296875 
Q 12.9375 14.109375 22.625 23.890625 
Q 32.328125 33.6875 34.8125 36.53125 
Q 39.546875 41.84375 41.421875 45.53125 
Q 43.3125 49.21875 43.3125 52.78125 
Q 43.3125 58.59375 39.234375 62.25 
Q 35.15625 65.921875 28.609375 65.921875 
Q 23.96875 65.921875 18.8125 64.3125 
Q 13.671875 62.703125 7.8125 59.421875 
L 7.8125 69.390625 
Q 13.765625 71.78125 18.9375 73 
Q 24.125 74.21875 28.421875 74.21875 
Q 39.75 74.21875 46.484375 68.546875 
Q 53.21875 62.890625 53.21875 53.421875 
Q 53.21875 48.921875 51.53125 44.890625 
Q 49.859375 40.875 45.40625 35.40625 
Q 44.1875 33.984375 37.640625 27.21875 
Q 31.109375 20.453125 19.1875 8.296875 
z
" id="DejaVuSans-50"/>
        <path d="M 31.78125 66.40625 
Q 24.171875 66.40625 20.328125 58.90625 
Q 16.5 51.421875 16.5 36.375 
Q 16.5 21.390625 20.328125 13.890625 
Q 24.171875 6.390625 31.78125 6.390625 
Q 39.453125 6.390625 43.28125 13.890625 
Q 47.125 21.390625 47.125 36.375 
Q 47.125 51.421875 43.28125 58.90625 
Q 39.453125 66.40625 31.78125 66.40625 
z
M 31.78125 74.21875 
Q 44.046875 74.21875 50.515625 64.515625 
Q 56.984375 54.828125 56.984375 36.375 
Q 56.984375 17.96875 50.515625 8.265625 
Q 44.046875 -1.421875 31.78125 -1.421875 
Q 19.53125 -1.421875 13.0625 8.265625 
Q 6.59375 17.96875 6.59375 36.375 
Q 6.59375 54.828125 13.0625 64.515625 
Q 19.53125 74.21875 31.78125 74.21875 
z
" id="DejaVuSans-48"/>
        <path d="M 4.890625 31.390625 
L 31.203125 31.390625 
L 31.203125 23.390625 
L 4.890625 23.390625 
z
" id="DejaVuSans-45"/>
        <path d="M 12.40625 8.296875 
L 28.515625 8.296875 
L 28.515625 63.921875 
L 10.984375 60.40625 
L 10.984375 69.390625 
L 28.421875 72.90625 
L 38.28125 72.90625 
L 38.28125 8.296875 
L 54.390625 8.296875 
L 54.390625 0 
L 12.40625 0 
z
" id="DejaVuSans-49"/>
       </defs>
       <use xlink:href="#DejaVuSans-50"/>
       <use x="63.623047" xlink:href="#DejaVuSans-48"/>
       <use x="127.246094" xlink:href="#DejaVuSans-50"/>
       <use x="190.869141" xlink:href="#DejaVuSans-48"/>
       <use x="254.492188" xlink:href="#DejaVuSans-45"/>
       <use x="290.576172" xlink:href="#DejaVuSans-49"/>
       <use x="354.199219" xlink:href="#DejaVuSans-49"/>
       <use x="417.822266" xlink:href="#DejaVuSans-45"/>
       <use x="453.90625" xlink:href="#DejaVuSans-50"/>
       <use x="517.529297" xlink:href="#DejaVuSans-48"/>
      </g>
     </g>
    </g>
    <g id="xtick_2">
     <g id="line2d_3">
      <path clip-path="url(#pefc55e1ee0)" d="M 168.20651 313.2 
L 168.20651 28.8 
" style="fill:none;stroke:#808080;stroke-dasharray:6.4,1.6,1,1.6;stroke-dashoffset:0;stroke-opacity:0.3;"/>
     </g>
     <g id="line2d_4">
      <g>
       <use style="stroke:#000000;stroke-width:0.8;" x="168.20651" xlink:href="#mdfb90e1417" y="313.2"/>
      </g>
     </g>
     <g id="text_2">
      <!-- 2021-03-04 -->
      <g transform="translate(139.148697 327.798437)scale(0.1 -0.1)">
       <defs>
        <path d="M 40.578125 39.3125 
Q 47.65625 37.796875 51.625 33 
Q 55.609375 28.21875 55.609375 21.1875 
Q 55.609375 10.40625 48.1875 4.484375 
Q 40.765625 -1.421875 27.09375 -1.421875 
Q 22.515625 -1.421875 17.65625 -0.515625 
Q 12.796875 0.390625 7.625 2.203125 
L 7.625 11.71875 
Q 11.71875 9.328125 16.59375 8.109375 
Q 21.484375 6.890625 26.8125 6.890625 
Q 36.078125 6.890625 40.9375 10.546875 
Q 45.796875 14.203125 45.796875 21.1875 
Q 45.796875 27.640625 41.28125 31.265625 
Q 36.765625 34.90625 28.71875 34.90625 
L 20.21875 34.90625 
L 20.21875 43.015625 
L 29.109375 43.015625 
Q 36.375 43.015625 40.234375 45.921875 
Q 44.09375 48.828125 44.09375 54.296875 
Q 44.09375 59.90625 40.109375 62.90625 
Q 36.140625 65.921875 28.71875 65.921875 
Q 24.65625 65.921875 20.015625 65.03125 
Q 15.375 64.15625 9.8125 62.3125 
L 9.8125 71.09375 
Q 15.4375 72.65625 20.34375 73.4375 
Q 25.25 74.21875 29.59375 74.21875 
Q 40.828125 74.21875 47.359375 69.109375 
Q 53.90625 64.015625 53.90625 55.328125 
Q 53.90625 49.265625 50.4375 45.09375 
Q 46.96875 40.921875 40.578125 39.3125 
z
" id="DejaVuSans-51"/>
        <path d="M 37.796875 64.3125 
L 12.890625 25.390625 
L 37.796875 25.390625 
z
M 35.203125 72.90625 
L 47.609375 72.90625 
L 47.609375 25.390625 
L 58.015625 25.390625 
L 58.015625 17.1875 
L 47.609375 17.1875 
L 47.609375 0 
L 37.796875 0 
L 37.796875 17.1875 
L 4.890625 17.1875 
L 4.890625 26.703125 
z
" id="DejaVuSans-52"/>
       </defs>
       <use xlink:href="#DejaVuSans-50"/>
       <use x="63.623047" xlink:href="#DejaVuSans-48"/>
       <use x="127.246094" xlink:href="#DejaVuSans-50"/>
       <use x="190.869141" xlink:href="#DejaVuSans-49"/>
       <use x="254.492188" xlink:href="#DejaVuSans-45"/>
       <use x="290.576172" xlink:href="#DejaVuSans-48"/>
       <use x="354.199219" xlink:href="#DejaVuSans-51"/>
       <use x="417.822266" xlink:href="#DejaVuSans-45"/>
       <use x="453.90625" xlink:href="#DejaVuSans-48"/>
       <use x="517.529297" xlink:href="#DejaVuSans-52"/>
      </g>
     </g>
    </g>
    <g id="xtick_3">
     <g id="line2d_5">
      <path clip-path="url(#pefc55e1ee0)" d="M 244.776655 313.2 
L 244.776655 28.8 
" style="fill:none;stroke:#808080;stroke-dasharray:6.4,1.6,1,1.6;stroke-dashoffset:0;stroke-opacity:0.3;"/>
     </g>
     <g id="line2d_6">
      <g>
       <use style="stroke:#000000;stroke-width:0.8;" x="244.776655" xlink:href="#mdfb90e1417" y="313.2"/>
      </g>
     </g>
     <g id="text_3">
      <!-- 2021-06-16 -->
      <g transform="translate(215.718843 327.798437)scale(0.1 -0.1)">
       <defs>
        <path d="M 33.015625 40.375 
Q 26.375 40.375 22.484375 35.828125 
Q 18.609375 31.296875 18.609375 23.390625 
Q 18.609375 15.53125 22.484375 10.953125 
Q 26.375 6.390625 33.015625 6.390625 
Q 39.65625 6.390625 43.53125 10.953125 
Q 47.40625 15.53125 47.40625 23.390625 
Q 47.40625 31.296875 43.53125 35.828125 
Q 39.65625 40.375 33.015625 40.375 
z
M 52.59375 71.296875 
L 52.59375 62.3125 
Q 48.875 64.0625 45.09375 64.984375 
Q 41.3125 65.921875 37.59375 65.921875 
Q 27.828125 65.921875 22.671875 59.328125 
Q 17.53125 52.734375 16.796875 39.40625 
Q 19.671875 43.65625 24.015625 45.921875 
Q 28.375 48.1875 33.59375 48.1875 
Q 44.578125 48.1875 50.953125 41.515625 
Q 57.328125 34.859375 57.328125 23.390625 
Q 57.328125 12.15625 50.6875 5.359375 
Q 44.046875 -1.421875 33.015625 -1.421875 
Q 20.359375 -1.421875 13.671875 8.265625 
Q 6.984375 17.96875 6.984375 36.375 
Q 6.984375 53.65625 15.1875 63.9375 
Q 23.390625 74.21875 37.203125 74.21875 
Q 40.921875 74.21875 44.703125 73.484375 
Q 48.484375 72.75 52.59375 71.296875 
z
" id="DejaVuSans-54"/>
       </defs>
       <use xlink:href="#DejaVuSans-50"/>
       <use x="63.623047" xlink:href="#DejaVuSans-48"/>
       <use x="127.246094" xlink:href="#DejaVuSans-50"/>
       <use x="190.869141" xlink:href="#DejaVuSans-49"/>
       <use x="254.492188" xlink:href="#DejaVuSans-45"/>
       <use x="290.576172" xlink:href="#DejaVuSans-48"/>
       <use x="354.199219" xlink:href="#DejaVuSans-54"/>
       <use x="417.822266" xlink:href="#DejaVuSans-45"/>
       <use x="453.90625" xlink:href="#DejaVuSans-49"/>
       <use x="517.529297" xlink:href="#DejaVuSans-54"/>
      </g>
     </g>
    </g>
    <g id="xtick_4">
     <g id="line2d_7">
      <path clip-path="url(#pefc55e1ee0)" d="M 321.346801 313.2 
L 321.346801 28.8 
" style="fill:none;stroke:#808080;stroke-dasharray:6.4,1.6,1,1.6;stroke-dashoffset:0;stroke-opacity:0.3;"/>
     </g>
     <g id="line2d_8">
      <g>
       <use style="stroke:#000000;stroke-width:0.8;" x="321.346801" xlink:href="#mdfb90e1417" y="313.2"/>
      </g>
     </g>
     <g id="text_4">
      <!-- 2021-09-28 -->
      <g transform="translate(292.288989 327.798437)scale(0.1 -0.1)">
       <defs>
        <path d="M 10.984375 1.515625 
L 10.984375 10.5 
Q 14.703125 8.734375 18.5 7.8125 
Q 22.3125 6.890625 25.984375 6.890625 
Q 35.75 6.890625 40.890625 13.453125 
Q 46.046875 20.015625 46.78125 33.40625 
Q 43.953125 29.203125 39.59375 26.953125 
Q 35.25 24.703125 29.984375 24.703125 
Q 19.046875 24.703125 12.671875 31.3125 
Q 6.296875 37.9375 6.296875 49.421875 
Q 6.296875 60.640625 12.9375 67.421875 
Q 19.578125 74.21875 30.609375 74.21875 
Q 43.265625 74.21875 49.921875 64.515625 
Q 56.59375 54.828125 56.59375 36.375 
Q 56.59375 19.140625 48.40625 8.859375 
Q 40.234375 -1.421875 26.421875 -1.421875 
Q 22.703125 -1.421875 18.890625 -0.6875 
Q 15.09375 0.046875 10.984375 1.515625 
z
M 30.609375 32.421875 
Q 37.25 32.421875 41.125 36.953125 
Q 45.015625 41.5 45.015625 49.421875 
Q 45.015625 57.28125 41.125 61.84375 
Q 37.25 66.40625 30.609375 66.40625 
Q 23.96875 66.40625 20.09375 61.84375 
Q 16.21875 57.28125 16.21875 49.421875 
Q 16.21875 41.5 20.09375 36.953125 
Q 23.96875 32.421875 30.609375 32.421875 
z
" id="DejaVuSans-57"/>
        <path d="M 31.78125 34.625 
Q 24.75 34.625 20.71875 30.859375 
Q 16.703125 27.09375 16.703125 20.515625 
Q 16.703125 13.921875 20.71875 10.15625 
Q 24.75 6.390625 31.78125 6.390625 
Q 38.8125 6.390625 42.859375 10.171875 
Q 46.921875 13.96875 46.921875 20.515625 
Q 46.921875 27.09375 42.890625 30.859375 
Q 38.875 34.625 31.78125 34.625 
z
M 21.921875 38.8125 
Q 15.578125 40.375 12.03125 44.71875 
Q 8.5 49.078125 8.5 55.328125 
Q 8.5 64.0625 14.71875 69.140625 
Q 20.953125 74.21875 31.78125 74.21875 
Q 42.671875 74.21875 48.875 69.140625 
Q 55.078125 64.0625 55.078125 55.328125 
Q 55.078125 49.078125 51.53125 44.71875 
Q 48 40.375 41.703125 38.8125 
Q 48.828125 37.15625 52.796875 32.3125 
Q 56.78125 27.484375 56.78125 20.515625 
Q 56.78125 9.90625 50.3125 4.234375 
Q 43.84375 -1.421875 31.78125 -1.421875 
Q 19.734375 -1.421875 13.25 4.234375 
Q 6.78125 9.90625 6.78125 20.515625 
Q 6.78125 27.484375 10.78125 32.3125 
Q 14.796875 37.15625 21.921875 38.8125 
z
M 18.3125 54.390625 
Q 18.3125 48.734375 21.84375 45.5625 
Q 25.390625 42.390625 31.78125 42.390625 
Q 38.140625 42.390625 41.71875 45.5625 
Q 45.3125 48.734375 45.3125 54.390625 
Q 45.3125 60.0625 41.71875 63.234375 
Q 38.140625 66.40625 31.78125 66.40625 
Q 25.390625 66.40625 21.84375 63.234375 
Q 18.3125 60.0625 18.3125 54.390625 
z
" id="DejaVuSans-56"/>
       </defs>
       <use xlink:href="#DejaVuSans-50"/>
       <use x="63.623047" xlink:href="#DejaVuSans-48"/>
       <use x="127.246094" xlink:href="#DejaVuSans-50"/>
       <use x="190.869141" xlink:href="#DejaVuSans-49"/>
       <use x="254.492188" xlink:href="#DejaVuSans-45"/>
       <use x="290.576172" xlink:href="#DejaVuSans-48"/>
       <use x="354.199219" xlink:href="#DejaVuSans-57"/>
       <use x="417.822266" xlink:href="#DejaVuSans-45"/>
       <use x="453.90625" xlink:href="#DejaVuSans-50"/>
       <use x="517.529297" xlink:href="#DejaVuSans-56"/>
      </g>
     </g>
    </g>
    <g id="xtick_5">
     <g id="line2d_9">
      <path clip-path="url(#pefc55e1ee0)" d="M 397.916947 313.2 
L 397.916947 28.8 
" style="fill:none;stroke:#808080;stroke-dasharray:6.4,1.6,1,1.6;stroke-dashoffset:0;stroke-opacity:0.3;"/>
     </g>
     <g id="line2d_10">
      <g>
       <use style="stroke:#000000;stroke-width:0.8;" x="397.916947" xlink:href="#mdfb90e1417" y="313.2"/>
      </g>
     </g>
     <g id="text_5">
      <!-- 2022-01-10 -->
      <g transform="translate(368.859135 327.798437)scale(0.1 -0.1)">
       <use xlink:href="#DejaVuSans-50"/>
       <use x="63.623047" xlink:href="#DejaVuSans-48"/>
       <use x="127.246094" xlink:href="#DejaVuSans-50"/>
       <use x="190.869141" xlink:href="#DejaVuSans-50"/>
       <use x="254.492188" xlink:href="#DejaVuSans-45"/>
       <use x="290.576172" xlink:href="#DejaVuSans-48"/>
       <use x="354.199219" xlink:href="#DejaVuSans-49"/>
       <use x="417.822266" xlink:href="#DejaVuSans-45"/>
       <use x="453.90625" xlink:href="#DejaVuSans-49"/>
       <use x="517.529297" xlink:href="#DejaVuSans-48"/>
      </g>
     </g>
    </g>
    <g id="xtick_6">
     <g id="line2d_11">
      <path clip-path="url(#pefc55e1ee0)" d="M 474.487093 313.2 
L 474.487093 28.8 
" style="fill:none;stroke:#808080;stroke-dasharray:6.4,1.6,1,1.6;stroke-dashoffset:0;stroke-opacity:0.3;"/>
     </g>
     <g id="line2d_12">
      <g>
       <use style="stroke:#000000;stroke-width:0.8;" x="474.487093" xlink:href="#mdfb90e1417" y="313.2"/>
      </g>
     </g>
     <g id="text_6">
      <!-- 2022-04-24 -->
      <g transform="translate(445.429281 327.798437)scale(0.1 -0.1)">
       <use xlink:href="#DejaVuSans-50"/>
       <use x="63.623047" xlink:href="#DejaVuSans-48"/>
       <use x="127.246094" xlink:href="#DejaVuSans-50"/>
       <use x="190.869141" xlink:href="#DejaVuSans-50"/>
       <use x="254.492188" xlink:href="#DejaVuSans-45"/>
       <use x="290.576172" xlink:href="#DejaVuSans-48"/>
       <use x="354.199219" xlink:href="#DejaVuSans-52"/>
       <use x="417.822266" xlink:href="#DejaVuSans-45"/>
       <use x="453.90625" xlink:href="#DejaVuSans-50"/>
       <use x="517.529297" xlink:href="#DejaVuSans-52"/>
      </g>
     </g>
    </g>
    <g id="xtick_7">
     <g id="line2d_13">
      <path clip-path="url(#pefc55e1ee0)" d="M 551.057239 313.2 
L 551.057239 28.8 
" style="fill:none;stroke:#808080;stroke-dasharray:6.4,1.6,1,1.6;stroke-dashoffset:0;stroke-opacity:0.3;"/>
     </g>
     <g id="line2d_14">
      <g>
       <use style="stroke:#000000;stroke-width:0.8;" x="551.057239" xlink:href="#mdfb90e1417" y="313.2"/>
      </g>
     </g>
     <g id="text_7">
      <!-- 2022-08-06 -->
      <g transform="translate(521.999427 327.798437)scale(0.1 -0.1)">
       <use xlink:href="#DejaVuSans-50"/>
       <use x="63.623047" xlink:href="#DejaVuSans-48"/>
       <use x="127.246094" xlink:href="#DejaVuSans-50"/>
       <use x="190.869141" xlink:href="#DejaVuSans-50"/>
       <use x="254.492188" xlink:href="#DejaVuSans-45"/>
       <use x="290.576172" xlink:href="#DejaVuSans-48"/>
       <use x="354.199219" xlink:href="#DejaVuSans-56"/>
       <use x="417.822266" xlink:href="#DejaVuSans-45"/>
       <use x="453.90625" xlink:href="#DejaVuSans-48"/>
       <use x="517.529297" xlink:href="#DejaVuSans-54"/>
      </g>
     </g>
    </g>
    <g id="xtick_8">
     <g id="line2d_15">
      <path clip-path="url(#pefc55e1ee0)" d="M 628.363636 313.2 
L 628.363636 28.8 
" style="fill:none;stroke:#808080;stroke-dasharray:6.4,1.6,1,1.6;stroke-dashoffset:0;stroke-opacity:0.3;"/>
     </g>
     <g id="line2d_16">
      <g>
       <use style="stroke:#000000;stroke-width:0.8;" x="628.363636" xlink:href="#mdfb90e1417" y="313.2"/>
      </g>
     </g>
     <g id="text_8">
      <!-- 2022-11-19 -->
      <g transform="translate(599.305824 327.798437)scale(0.1 -0.1)">
       <use xlink:href="#DejaVuSans-50"/>
       <use x="63.623047" xlink:href="#DejaVuSans-48"/>
       <use x="127.246094" xlink:href="#DejaVuSans-50"/>
       <use x="190.869141" xlink:href="#DejaVuSans-50"/>
       <use x="254.492188" xlink:href="#DejaVuSans-45"/>
       <use x="290.576172" xlink:href="#DejaVuSans-49"/>
       <use x="354.199219" xlink:href="#DejaVuSans-49"/>
       <use x="417.822266" xlink:href="#DejaVuSans-45"/>
       <use x="453.90625" xlink:href="#DejaVuSans-49"/>
       <use x="517.529297" xlink:href="#DejaVuSans-57"/>
      </g>
     </g>
    </g>
    <g id="text_9">
     <!-- Datum -->
     <g transform="translate(343.086719 341.476562)scale(0.1 -0.1)">
      <defs>
       <path d="M 19.671875 64.796875 
L 19.671875 8.109375 
L 31.59375 8.109375 
Q 46.6875 8.109375 53.6875 14.9375 
Q 60.6875 21.78125 60.6875 36.53125 
Q 60.6875 51.171875 53.6875 57.984375 
Q 46.6875 64.796875 31.59375 64.796875 
z
M 9.8125 72.90625 
L 30.078125 72.90625 
Q 51.265625 72.90625 61.171875 64.09375 
Q 71.09375 55.28125 71.09375 36.53125 
Q 71.09375 17.671875 61.125 8.828125 
Q 51.171875 0 30.078125 0 
L 9.8125 0 
z
" id="DejaVuSans-68"/>
       <path d="M 34.28125 27.484375 
Q 23.390625 27.484375 19.1875 25 
Q 14.984375 22.515625 14.984375 16.5 
Q 14.984375 11.71875 18.140625 8.90625 
Q 21.296875 6.109375 26.703125 6.109375 
Q 34.1875 6.109375 38.703125 11.40625 
Q 43.21875 16.703125 43.21875 25.484375 
L 43.21875 27.484375 
z
M 52.203125 31.203125 
L 52.203125 0 
L 43.21875 0 
L 43.21875 8.296875 
Q 40.140625 3.328125 35.546875 0.953125 
Q 30.953125 -1.421875 24.3125 -1.421875 
Q 15.921875 -1.421875 10.953125 3.296875 
Q 6 8.015625 6 15.921875 
Q 6 25.140625 12.171875 29.828125 
Q 18.359375 34.515625 30.609375 34.515625 
L 43.21875 34.515625 
L 43.21875 35.40625 
Q 43.21875 41.609375 39.140625 45 
Q 35.0625 48.390625 27.6875 48.390625 
Q 23 48.390625 18.546875 47.265625 
Q 14.109375 46.140625 10.015625 43.890625 
L 10.015625 52.203125 
Q 14.9375 54.109375 19.578125 55.046875 
Q 24.21875 56 28.609375 56 
Q 40.484375 56 46.34375 49.84375 
Q 52.203125 43.703125 52.203125 31.203125 
z
" id="DejaVuSans-97"/>
       <path d="M 18.3125 70.21875 
L 18.3125 54.6875 
L 36.8125 54.6875 
L 36.8125 47.703125 
L 18.3125 47.703125 
L 18.3125 18.015625 
Q 18.3125 11.328125 20.140625 9.421875 
Q 21.96875 7.515625 27.59375 7.515625 
L 36.8125 7.515625 
L 36.8125 0 
L 27.59375 0 
Q 17.1875 0 13.234375 3.875 
Q 9.28125 7.765625 9.28125 18.015625 
L 9.28125 47.703125 
L 2.6875 47.703125 
L 2.6875 54.6875 
L 9.28125 54.6875 
L 9.28125 70.21875 
z
" id="DejaVuSans-116"/>
       <path d="M 8.5 21.578125 
L 8.5 54.6875 
L 17.484375 54.6875 
L 17.484375 21.921875 
Q 17.484375 14.15625 20.5 10.265625 
Q 23.53125 6.390625 29.59375 6.390625 
Q 36.859375 6.390625 41.078125 11.03125 
Q 45.3125 15.671875 45.3125 23.6875 
L 45.3125 54.6875 
L 54.296875 54.6875 
L 54.296875 0 
L 45.3125 0 
L 45.3125 8.40625 
Q 42.046875 3.421875 37.71875 1 
Q 33.40625 -1.421875 27.6875 -1.421875 
Q 18.265625 -1.421875 13.375 4.4375 
Q 8.5 10.296875 8.5 21.578125 
z
M 31.109375 56 
z
" id="DejaVuSans-117"/>
       <path d="M 52 44.1875 
Q 55.375 50.25 60.0625 53.125 
Q 64.75 56 71.09375 56 
Q 79.640625 56 84.28125 50.015625 
Q 88.921875 44.046875 88.921875 33.015625 
L 88.921875 0 
L 79.890625 0 
L 79.890625 32.71875 
Q 79.890625 40.578125 77.09375 44.375 
Q 74.3125 48.1875 68.609375 48.1875 
Q 61.625 48.1875 57.5625 43.546875 
Q 53.515625 38.921875 53.515625 30.90625 
L 53.515625 0 
L 44.484375 0 
L 44.484375 32.71875 
Q 44.484375 40.625 41.703125 44.40625 
Q 38.921875 48.1875 33.109375 48.1875 
Q 26.21875 48.1875 22.15625 43.53125 
Q 18.109375 38.875 18.109375 30.90625 
L 18.109375 0 
L 9.078125 0 
L 9.078125 54.6875 
L 18.109375 54.6875 
L 18.109375 46.1875 
Q 21.1875 51.21875 25.484375 53.609375 
Q 29.78125 56 35.6875 56 
Q 41.65625 56 45.828125 52.96875 
Q 50 49.953125 52 44.1875 
z
" id="DejaVuSans-109"/>
      </defs>
      <use xlink:href="#DejaVuSans-68"/>
      <use x="77.001953" xlink:href="#DejaVuSans-97"/>
      <use x="138.28125" xlink:href="#DejaVuSans-116"/>
      <use x="177.490234" xlink:href="#DejaVuSans-117"/>
      <use x="240.869141" xlink:href="#DejaVuSans-109"/>
     </g>
    </g>
   </g>
   <g id="matplotlib.axis_2">
    <g id="ytick_1">
     <g id="line2d_17">
      <path clip-path="url(#pefc55e1ee0)" d="M 64.8 300.272727 
L 655.2 300.272727 
" style="fill:none;stroke:#808080;stroke-dasharray:6.4,1.6,1,1.6;stroke-dashoffset:0;stroke-opacity:0.3;"/>
     </g>
     <g id="line2d_18">
      <defs>
       <path d="M 0 0 
L -3.5 0 
" id="mb91d81b7c0" style="stroke:#000000;stroke-width:0.8;"/>
      </defs>
      <g>
       <use style="stroke:#000000;stroke-width:0.8;" x="64.8" xlink:href="#mb91d81b7c0" y="300.272727"/>
      </g>
     </g>
     <g id="text_10">
      <!-- 0 -->
      <g transform="translate(51.4375 304.071946)scale(0.1 -0.1)">
       <use xlink:href="#DejaVuSans-48"/>
      </g>
     </g>
    </g>
    <g id="ytick_2">
     <g id="line2d_19">
      <path clip-path="url(#pefc55e1ee0)" d="M 64.8 237.21286 
L 655.2 237.21286 
" style="fill:none;stroke:#808080;stroke-dasharray:6.4,1.6,1,1.6;stroke-dashoffset:0;stroke-opacity:0.3;"/>
     </g>
     <g id="line2d_20">
      <g>
       <use style="stroke:#000000;stroke-width:0.8;" x="64.8" xlink:href="#mb91d81b7c0" y="237.21286"/>
      </g>
     </g>
     <g id="text_11">
      <!-- 5 -->
      <g transform="translate(51.4375 241.012079)scale(0.1 -0.1)">
       <defs>
        <path d="M 10.796875 72.90625 
L 49.515625 72.90625 
L 49.515625 64.59375 
L 19.828125 64.59375 
L 19.828125 46.734375 
Q 21.96875 47.46875 24.109375 47.828125 
Q 26.265625 48.1875 28.421875 48.1875 
Q 40.625 48.1875 47.75 41.5 
Q 54.890625 34.8125 54.890625 23.390625 
Q 54.890625 11.625 47.5625 5.09375 
Q 40.234375 -1.421875 26.90625 -1.421875 
Q 22.3125 -1.421875 17.546875 -0.640625 
Q 12.796875 0.140625 7.71875 1.703125 
L 7.71875 11.625 
Q 12.109375 9.234375 16.796875 8.0625 
Q 21.484375 6.890625 26.703125 6.890625 
Q 35.15625 6.890625 40.078125 11.328125 
Q 45.015625 15.765625 45.015625 23.390625 
Q 45.015625 31 40.078125 35.4375 
Q 35.15625 39.890625 26.703125 39.890625 
Q 22.75 39.890625 18.8125 39.015625 
Q 14.890625 38.140625 10.796875 36.28125 
z
" id="DejaVuSans-53"/>
       </defs>
       <use xlink:href="#DejaVuSans-53"/>
      </g>
     </g>
    </g>
    <g id="ytick_3">
     <g id="line2d_21">
      <path clip-path="url(#pefc55e1ee0)" d="M 64.8 174.152993 
L 655.2 174.152993 
" style="fill:none;stroke:#808080;stroke-dasharray:6.4,1.6,1,1.6;stroke-dashoffset:0;stroke-opacity:0.3;"/>
     </g>
     <g id="line2d_22">
      <g>
       <use style="stroke:#000000;stroke-width:0.8;" x="64.8" xlink:href="#mb91d81b7c0" y="174.152993"/>
      </g>
     </g>
     <g id="text_12">
      <!-- 10 -->
      <g transform="translate(45.075 177.952212)scale(0.1 -0.1)">
       <use xlink:href="#DejaVuSans-49"/>
       <use x="63.623047" xlink:href="#DejaVuSans-48"/>
      </g>
     </g>
    </g>
    <g id="ytick_4">
     <g id="line2d_23">
      <path clip-path="url(#pefc55e1ee0)" d="M 64.8 111.093126 
L 655.2 111.093126 
" style="fill:none;stroke:#808080;stroke-dasharray:6.4,1.6,1,1.6;stroke-dashoffset:0;stroke-opacity:0.3;"/>
     </g>
     <g id="line2d_24">
      <g>
       <use style="stroke:#000000;stroke-width:0.8;" x="64.8" xlink:href="#mb91d81b7c0" y="111.093126"/>
      </g>
     </g>
     <g id="text_13">
      <!-- 15 -->
      <g transform="translate(45.075 114.892345)scale(0.1 -0.1)">
       <use xlink:href="#DejaVuSans-49"/>
       <use x="63.623047" xlink:href="#DejaVuSans-53"/>
      </g>
     </g>
    </g>
    <g id="ytick_5">
     <g id="line2d_25">
      <path clip-path="url(#pefc55e1ee0)" d="M 64.8 48.033259 
L 655.2 48.033259 
" style="fill:none;stroke:#808080;stroke-dasharray:6.4,1.6,1,1.6;stroke-dashoffset:0;stroke-opacity:0.3;"/>
     </g>
     <g id="line2d_26">
      <g>
       <use style="stroke:#000000;stroke-width:0.8;" x="64.8" xlink:href="#mb91d81b7c0" y="48.033259"/>
      </g>
     </g>
     <g id="text_14">
      <!-- 20 -->
      <g transform="translate(45.075 51.832478)scale(0.1 -0.1)">
       <use xlink:href="#DejaVuSans-50"/>
       <use x="63.623047" xlink:href="#DejaVuSans-48"/>
      </g>
     </g>
    </g>
   </g>
   <g id="line2d_27">
    <path clip-path="url(#pefc55e1ee0)" d="M 91.636364 280.090993 
L 95.317621 246.739249 
L 97.526375 240.0689 
L 98.998878 228.336238 
L 100.47138 218.748215 
L 101.207632 214.491807 
L 104.888889 197.940369 
L 105.62514 195.418596 
L 106.361392 193.456527 
L 107.097643 192.153662 
L 107.833895 190.387489 
L 108.570146 187.834621 
L 110.7789 178.577756 
L 111.515152 175.639316 
L 112.251403 173.565305 
L 112.987654 172.371272 
L 113.723906 172.293536 
L 115.196409 174.451502 
L 117.405163 178.195293 
L 118.141414 180.275522 
L 120.350168 188.500046 
L 121.08642 189.753159 
L 123.295174 190.676669 
L 124.031425 190.658012 
L 124.767677 190.829032 
L 125.503928 191.279904 
L 126.24018 192.287369 
L 126.976431 194.037996 
L 127.712682 196.189743 
L 129.185185 201.808539 
L 129.921437 205.343996 
L 130.657688 210.987667 
L 132.866442 230.574161 
L 134.338945 242.228421 
L 135.075196 247.07918 
L 135.811448 251.099713 
L 136.547699 254.333552 
L 137.283951 256.503956 
L 138.020202 257.610924 
L 138.756453 257.984059 
L 139.492705 257.411918 
L 140.228956 255.561789 
L 141.701459 250.446726 
L 142.43771 247.312389 
L 143.910213 238.322938 
L 145.382716 227.46781 
L 147.59147 209.76254 
L 148.327722 205.057925 
L 149.800224 198.030544 
L 151.272727 191.450924 
L 152.008979 188.509374 
L 152.74523 187.290466 
L 153.481481 187.100789 
L 154.217733 188.667957 
L 154.953984 192.302917 
L 155.690236 197.041735 
L 158.635241 223.83285 
L 162.316498 252.132054 
L 163.05275 257.082315 
L 163.789001 261.199242 
L 164.525253 264.09415 
L 165.261504 266.497763 
L 165.997755 268.046275 
L 168.20651 270.90076 
L 169.679012 272.197405 
L 170.415264 272.505241 
L 171.151515 272.076136 
L 172.624018 270.210459 
L 173.360269 269.035083 
L 174.832772 265.925622 
L 177.041526 260.278841 
L 177.777778 258.873365 
L 178.514029 257.825477 
L 180.722783 256.323607 
L 181.459035 256.808683 
L 182.931538 258.397617 
L 183.667789 258.944883 
L 184.40404 259.678715 
L 185.140292 259.585431 
L 187.349046 256.957937 
L 188.085297 255.285047 
L 189.5578 250.518243 
L 190.294052 247.980923 
L 191.766554 241.025059 
L 193.239057 234.230887 
L 193.975309 231.320432 
L 194.71156 230.020677 
L 195.447811 230.232121 
L 196.920314 230.082866 
L 197.656566 231.049909 
L 198.392817 233.008869 
L 199.129068 235.372059 
L 200.601571 241.674937 
L 202.810325 252.017004 
L 203.546577 255.157559 
L 204.282828 257.237788 
L 205.755331 258.795628 
L 206.491582 259.271376 
L 207.227834 258.854708 
L 207.964085 257.421247 
L 208.700337 255.316142 
L 210.17284 248.947966 
L 213.854097 230.633241 
L 214.590348 228.500151 
L 215.326599 227.088456 
L 216.062851 226.323528 
L 216.799102 226.401265 
L 217.535354 227.474029 
L 218.271605 229.457865 
L 221.216611 241.053045 
L 221.952862 243.2732 
L 222.689113 244.799945 
L 223.425365 245.452932 
L 224.161616 244.722208 
L 224.897868 243.049318 
L 225.634119 240.888243 
L 226.37037 238.095947 
L 227.106622 234.585366 
L 230.787879 213.963421 
L 231.52413 211.967147 
L 232.260382 211.14625 
L 232.996633 211.354584 
L 233.732884 213.447251 
L 235.205387 219.669282 
L 236.67789 226.304871 
L 240.359147 246.084152 
L 241.095398 248.814259 
L 241.83165 250.670607 
L 242.567901 251.9828 
L 243.304153 252.020113 
L 245.512907 251.065509 
L 246.249158 251.208544 
L 246.98541 251.497724 
L 248.457912 250.88205 
L 249.930415 249.967869 
L 250.666667 249.274459 
L 251.402918 248.425576 
L 252.139169 247.753933 
L 252.875421 247.259528 
L 255.084175 248.036894 
L 255.820426 247.502066 
L 256.556678 246.429302 
L 257.292929 245.760768 
L 259.501684 243.235886 
L 260.237935 242.847203 
L 260.974186 243.406906 
L 261.710438 244.59472 
L 262.446689 245.558653 
L 263.919192 246.693607 
L 264.655443 247.53627 
L 265.391695 249.016374 
L 269.809203 260.972251 
L 270.545455 262.12897 
L 271.281706 262.719768 
L 274.226712 265.934951 
L 274.962963 266.423136 
L 275.699214 266.765177 
L 278.64422 268.895157 
L 279.380471 269.361577 
L 280.852974 270.776381 
L 283.061728 273.142681 
L 285.270483 274.482859 
L 286.006734 274.852884 
L 287.479237 275.138955 
L 290.424242 275.390821 
L 291.160494 275.602265 
L 292.632997 275.707986 
L 293.369248 275.524528 
L 294.105499 274.775148 
L 294.841751 273.071163 
L 296.314254 268.702371 
L 299.259259 260.754589 
L 302.204265 250.729687 
L 302.940516 249.20916 
L 303.676768 248.86401 
L 304.413019 250.229064 
L 308.094276 261.653223 
L 311.775533 275.027014 
L 312.511785 276.951771 
L 313.248036 278.068067 
L 313.984287 278.061848 
L 314.720539 277.651399 
L 316.193042 276.382739 
L 318.401796 275.263333 
L 320.61055 274.000892 
L 321.346801 274.293181 
L 322.083053 274.423779 
L 322.819304 274.855994 
L 323.555556 275.913211 
L 324.291807 276.696795 
L 325.76431 277.502145 
L 327.236813 277.900156 
L 327.973064 278.096052 
L 328.709315 277.900156 
L 329.445567 277.582991 
L 330.181818 277.032617 
L 330.91807 276.336097 
L 331.654321 275.804379 
L 332.390572 274.896417 
L 333.126824 273.605991 
L 333.863075 272.794421 
L 334.599327 272.51457 
L 336.808081 270.679988 
L 339.016835 267.84416 
L 339.753086 266.360947 
L 340.489338 264.302484 
L 341.961841 258.21105 
L 342.698092 254.23094 
L 344.170595 244.361511 
L 345.643098 233.357129 
L 350.796857 189.448431 
L 351.533109 185.18847 
L 352.26936 182.007492 
L 353.005612 179.324027 
L 353.741863 177.361957 
L 354.478114 176.024889 
L 355.214366 175.263071 
L 355.950617 175.427872 
L 356.686869 176.553497 
L 357.42312 179.13124 
L 358.895623 186.911111 
L 360.368126 197.349572 
L 362.57688 212.722746 
L 365.521886 228.904381 
L 366.258137 232.492699 
L 366.994388 235.235243 
L 368.466891 238.988362 
L 369.203143 240.219709 
L 369.939394 240.605282 
L 370.675645 241.121453 
L 371.411897 242.212873 
L 372.148148 243.761385 
L 373.620651 249.199832 
L 374.356902 250.204188 
L 375.093154 250.197969 
L 375.829405 249.532544 
L 377.301908 247.626445 
L 378.774411 245.334772 
L 379.510662 244.436138 
L 380.246914 243.220339 
L 380.983165 241.438618 
L 381.719416 239.23401 
L 382.455668 236.472809 
L 383.191919 234.321062 
L 383.928171 234.224668 
L 384.664422 235.297432 
L 386.136925 239.159383 
L 386.873176 240.244585 
L 387.609428 240.670581 
L 388.345679 240.760755 
L 389.08193 240.574188 
L 389.818182 240.197943 
L 390.554433 239.563613 
L 391.290685 237.666842 
L 392.026936 234.977158 
L 392.763187 231.631378 
L 393.499439 227.508233 
L 402.334456 222.999515 
L 403.806958 213.929217 
L 404.54321 210.172988 
L 406.015713 204.678571 
L 407.488215 200.051693 
L 408.960718 198.139375 
L 409.69697 198.332161 
L 411.169473 200.885029 
L 412.641975 204.031803 
L 413.378227 205.689146 
L 414.114478 207.057309 
L 419.268238 224.106483 
L 420.740741 227.934229 
L 421.476992 229.902518 
L 424.421998 235.891339 
L 425.894501 238.506396 
L 426.630752 239.103413 
L 427.367003 239.451672 
L 428.103255 240.829163 
L 428.839506 241.513245 
L 429.575758 241.650061 
L 430.312009 241.401304 
L 431.04826 241.494588 
L 432.520763 242.184888 
L 433.257015 242.359018 
L 433.993266 241.961007 
L 434.729517 241.360881 
L 435.465769 240.922447 
L 436.938272 241.883271 
L 439.147026 241.970335 
L 439.883277 242.962254 
L 441.35578 246.737139 
L 442.092031 247.996471 
L 444.300786 252.50208 
L 445.037037 254.656936 
L 445.773288 257.240898 
L 447.245791 261.245884 
L 447.982043 263.257705 
L 448.718294 264.890172 
L 449.454545 266.003359 
L 450.190797 266.684331 
L 450.927048 267.184954 
L 452.399551 268.742794 
L 453.135802 269.554363 
L 453.872054 270.008344 
L 454.608305 270.123394 
L 455.344557 269.852871 
L 456.080808 269.971031 
L 456.817059 269.871528 
L 457.553311 269.299387 
L 459.762065 268.24839 
L 460.498316 268.354111 
L 461.234568 268.693042 
L 461.970819 269.159462 
L 462.707071 269.949265 
L 466.388328 275.80127 
L 467.860831 279.541951 
L 469.333333 283.606017 
L 470.069585 285.254031 
L 470.805836 286.609756 
L 471.542088 287.722943 
L 472.278339 288.518965 
L 473.750842 289.507774 
L 475.959596 291.081161 
L 476.695847 291.249072 
L 477.432099 291.183773 
L 478.904602 290.826185 
L 479.640853 290.397079 
L 481.113356 288.323069 
L 482.585859 285.341096 
L 484.058361 281.267702 
L 487.003367 271.211706 
L 489.212121 261.696755 
L 490.684624 258.167517 
L 491.420875 257.244007 
L 492.157127 257.153833 
L 492.893378 257.645128 
L 493.62963 258.761424 
L 495.102132 261.559939 
L 495.838384 262.604718 
L 496.574635 264.013304 
L 497.310887 266.255225 
L 498.783389 272.489694 
L 499.519641 274.93373 
L 500.255892 276.60662 
L 500.992144 277.306249 
L 501.728395 277.471051 
L 502.464646 276.945552 
L 503.200898 275.521419 
L 503.937149 273.761464 
L 504.673401 272.477256 
L 505.409652 271.718548 
L 506.145903 270.754615 
L 506.882155 269.560582 
L 509.090909 264.181215 
L 509.82716 263.655716 
L 510.563412 263.898254 
L 511.299663 263.742781 
L 512.035915 264.255842 
L 512.772166 265.863433 
L 514.244669 269.411328 
L 514.98092 270.555609 
L 516.453423 271.964195 
L 517.925926 273.444299 
L 518.662177 273.888952 
L 519.398429 273.195542 
L 520.13468 272.020166 
L 520.870932 271.267676 
L 521.607183 270.285086 
L 523.079686 267.247143 
L 523.815937 265.679975 
L 524.552189 264.678728 
L 527.497194 263.758328 
L 528.233446 264.025742 
L 528.969697 265.337934 
L 533.387205 278.826775 
L 534.123457 280.683124 
L 537.804714 287.931277 
L 538.540965 288.83613 
L 539.277217 289.175061 
L 540.013468 289.330534 
L 546.639731 294.83739 
L 548.848485 296.050079 
L 549.584736 296.323712 
L 556.94725 296.389011 
L 565.782267 295.748462 
L 568.727273 295.269605 
L 569.463524 294.912017 
L 570.936027 293.180047 
L 573.144781 290.633398 
L 574.617284 288.948071 
L 576.089787 286.339233 
L 577.56229 283.052533 
L 578.298541 281.301906 
L 579.034792 280.082998 
L 579.771044 279.657002 
L 581.979798 279.047547 
L 583.452301 278.388341 
L 584.188552 278.372794 
L 585.661055 279.706753 
L 586.397306 280.680014 
L 587.869809 283.360369 
L 588.606061 284.426915 
L 590.078563 285.667589 
L 592.287318 287.097941 
L 593.023569 287.642097 
L 593.75982 287.965481 
L 594.496072 288.120954 
L 595.232323 288.450557 
L 595.968575 288.581154 
L 597.441077 288.400806 
L 598.177329 288.02767 
L 601.858586 284.793831 
L 604.803591 282.045068 
L 607.012346 280.947428 
L 607.748597 280.888348 
L 609.2211 281.584867 
L 610.693603 283.06808 
L 613.638608 286.034506 
L 614.37486 286.662617 
L 615.847363 287.421325 
L 616.583614 288.005904 
L 618.792368 290.138994 
L 622.473625 292.54705 
L 626.154882 295.702375 
L 628.363636 297.623022 
L 628.363636 297.623022 
" style="fill:none;stroke:#ff0000;stroke-linecap:square;stroke-width:1.5;"/>
   </g>
   <g id="patch_3">
    <path d="M 64.8 313.2 
L 64.8 28.8 
" style="fill:none;stroke:#000000;stroke-linecap:square;stroke-linejoin:miter;stroke-width:0.8;"/>
   </g>
   <g id="patch_4">
    <path d="M 655.2 313.2 
L 655.2 28.8 
" style="fill:none;stroke:#000000;stroke-linecap:square;stroke-linejoin:miter;stroke-width:0.8;"/>
   </g>
   <g id="patch_5">
    <path d="M 64.8 313.2 
L 655.2 313.2 
" style="fill:none;stroke:#000000;stroke-linecap:square;stroke-linejoin:miter;stroke-width:0.8;"/>
   </g>
   <g id="patch_6">
    <path d="M 64.8 28.8 
L 655.2 28.8 
" style="fill:none;stroke:#000000;stroke-linecap:square;stroke-linejoin:miter;stroke-width:0.8;"/>
   </g>
   <g id="text_15">
    <!-- Page hits per uur (gemiddeld ongeveer 0). -->
    <g transform="translate(232.46625 22.8)scale(0.12 -0.12)">
     <defs>
      <path d="M 19.671875 64.796875 
L 19.671875 37.40625 
L 32.078125 37.40625 
Q 38.96875 37.40625 42.71875 40.96875 
Q 46.484375 44.53125 46.484375 51.125 
Q 46.484375 57.671875 42.71875 61.234375 
Q 38.96875 64.796875 32.078125 64.796875 
z
M 9.8125 72.90625 
L 32.078125 72.90625 
Q 44.34375 72.90625 50.609375 67.359375 
Q 56.890625 61.8125 56.890625 51.125 
Q 56.890625 40.328125 50.609375 34.8125 
Q 44.34375 29.296875 32.078125 29.296875 
L 19.671875 29.296875 
L 19.671875 0 
L 9.8125 0 
z
" id="DejaVuSans-80"/>
      <path d="M 45.40625 27.984375 
Q 45.40625 37.75 41.375 43.109375 
Q 37.359375 48.484375 30.078125 48.484375 
Q 22.859375 48.484375 18.828125 43.109375 
Q 14.796875 37.75 14.796875 27.984375 
Q 14.796875 18.265625 18.828125 12.890625 
Q 22.859375 7.515625 30.078125 7.515625 
Q 37.359375 7.515625 41.375 12.890625 
Q 45.40625 18.265625 45.40625 27.984375 
z
M 54.390625 6.78125 
Q 54.390625 -7.171875 48.1875 -13.984375 
Q 42 -20.796875 29.203125 -20.796875 
Q 24.46875 -20.796875 20.265625 -20.09375 
Q 16.0625 -19.390625 12.109375 -17.921875 
L 12.109375 -9.1875 
Q 16.0625 -11.328125 19.921875 -12.34375 
Q 23.78125 -13.375 27.78125 -13.375 
Q 36.625 -13.375 41.015625 -8.765625 
Q 45.40625 -4.15625 45.40625 5.171875 
L 45.40625 9.625 
Q 42.625 4.78125 38.28125 2.390625 
Q 33.9375 0 27.875 0 
Q 17.828125 0 11.671875 7.65625 
Q 5.515625 15.328125 5.515625 27.984375 
Q 5.515625 40.671875 11.671875 48.328125 
Q 17.828125 56 27.875 56 
Q 33.9375 56 38.28125 53.609375 
Q 42.625 51.21875 45.40625 46.390625 
L 45.40625 54.6875 
L 54.390625 54.6875 
z
" id="DejaVuSans-103"/>
      <path d="M 56.203125 29.59375 
L 56.203125 25.203125 
L 14.890625 25.203125 
Q 15.484375 15.921875 20.484375 11.0625 
Q 25.484375 6.203125 34.421875 6.203125 
Q 39.59375 6.203125 44.453125 7.46875 
Q 49.3125 8.734375 54.109375 11.28125 
L 54.109375 2.78125 
Q 49.265625 0.734375 44.1875 -0.34375 
Q 39.109375 -1.421875 33.890625 -1.421875 
Q 20.796875 -1.421875 13.15625 6.1875 
Q 5.515625 13.8125 5.515625 26.8125 
Q 5.515625 40.234375 12.765625 48.109375 
Q 20.015625 56 32.328125 56 
Q 43.359375 56 49.78125 48.890625 
Q 56.203125 41.796875 56.203125 29.59375 
z
M 47.21875 32.234375 
Q 47.125 39.59375 43.09375 43.984375 
Q 39.0625 48.390625 32.421875 48.390625 
Q 24.90625 48.390625 20.390625 44.140625 
Q 15.875 39.890625 15.1875 32.171875 
z
" id="DejaVuSans-101"/>
      <path id="DejaVuSans-32"/>
      <path d="M 54.890625 33.015625 
L 54.890625 0 
L 45.90625 0 
L 45.90625 32.71875 
Q 45.90625 40.484375 42.875 44.328125 
Q 39.84375 48.1875 33.796875 48.1875 
Q 26.515625 48.1875 22.3125 43.546875 
Q 18.109375 38.921875 18.109375 30.90625 
L 18.109375 0 
L 9.078125 0 
L 9.078125 75.984375 
L 18.109375 75.984375 
L 18.109375 46.1875 
Q 21.34375 51.125 25.703125 53.5625 
Q 30.078125 56 35.796875 56 
Q 45.21875 56 50.046875 50.171875 
Q 54.890625 44.34375 54.890625 33.015625 
z
" id="DejaVuSans-104"/>
      <path d="M 9.421875 54.6875 
L 18.40625 54.6875 
L 18.40625 0 
L 9.421875 0 
z
M 9.421875 75.984375 
L 18.40625 75.984375 
L 18.40625 64.59375 
L 9.421875 64.59375 
z
" id="DejaVuSans-105"/>
      <path d="M 44.28125 53.078125 
L 44.28125 44.578125 
Q 40.484375 46.53125 36.375 47.5 
Q 32.28125 48.484375 27.875 48.484375 
Q 21.1875 48.484375 17.84375 46.4375 
Q 14.5 44.390625 14.5 40.28125 
Q 14.5 37.15625 16.890625 35.375 
Q 19.28125 33.59375 26.515625 31.984375 
L 29.59375 31.296875 
Q 39.15625 29.25 43.1875 25.515625 
Q 47.21875 21.78125 47.21875 15.09375 
Q 47.21875 7.46875 41.1875 3.015625 
Q 35.15625 -1.421875 24.609375 -1.421875 
Q 20.21875 -1.421875 15.453125 -0.5625 
Q 10.6875 0.296875 5.421875 2 
L 5.421875 11.28125 
Q 10.40625 8.6875 15.234375 7.390625 
Q 20.0625 6.109375 24.8125 6.109375 
Q 31.15625 6.109375 34.5625 8.28125 
Q 37.984375 10.453125 37.984375 14.40625 
Q 37.984375 18.0625 35.515625 20.015625 
Q 33.0625 21.96875 24.703125 23.78125 
L 21.578125 24.515625 
Q 13.234375 26.265625 9.515625 29.90625 
Q 5.8125 33.546875 5.8125 39.890625 
Q 5.8125 47.609375 11.28125 51.796875 
Q 16.75 56 26.8125 56 
Q 31.78125 56 36.171875 55.265625 
Q 40.578125 54.546875 44.28125 53.078125 
z
" id="DejaVuSans-115"/>
      <path d="M 18.109375 8.203125 
L 18.109375 -20.796875 
L 9.078125 -20.796875 
L 9.078125 54.6875 
L 18.109375 54.6875 
L 18.109375 46.390625 
Q 20.953125 51.265625 25.265625 53.625 
Q 29.59375 56 35.59375 56 
Q 45.5625 56 51.78125 48.09375 
Q 58.015625 40.1875 58.015625 27.296875 
Q 58.015625 14.40625 51.78125 6.484375 
Q 45.5625 -1.421875 35.59375 -1.421875 
Q 29.59375 -1.421875 25.265625 0.953125 
Q 20.953125 3.328125 18.109375 8.203125 
z
M 48.6875 27.296875 
Q 48.6875 37.203125 44.609375 42.84375 
Q 40.53125 48.484375 33.40625 48.484375 
Q 26.265625 48.484375 22.1875 42.84375 
Q 18.109375 37.203125 18.109375 27.296875 
Q 18.109375 17.390625 22.1875 11.75 
Q 26.265625 6.109375 33.40625 6.109375 
Q 40.53125 6.109375 44.609375 11.75 
Q 48.6875 17.390625 48.6875 27.296875 
z
" id="DejaVuSans-112"/>
      <path d="M 41.109375 46.296875 
Q 39.59375 47.171875 37.8125 47.578125 
Q 36.03125 48 33.890625 48 
Q 26.265625 48 22.1875 43.046875 
Q 18.109375 38.09375 18.109375 28.8125 
L 18.109375 0 
L 9.078125 0 
L 9.078125 54.6875 
L 18.109375 54.6875 
L 18.109375 46.1875 
Q 20.953125 51.171875 25.484375 53.578125 
Q 30.03125 56 36.53125 56 
Q 37.453125 56 38.578125 55.875 
Q 39.703125 55.765625 41.0625 55.515625 
z
" id="DejaVuSans-114"/>
      <path d="M 31 75.875 
Q 24.46875 64.65625 21.28125 53.65625 
Q 18.109375 42.671875 18.109375 31.390625 
Q 18.109375 20.125 21.3125 9.0625 
Q 24.515625 -2 31 -13.1875 
L 23.1875 -13.1875 
Q 15.875 -1.703125 12.234375 9.375 
Q 8.59375 20.453125 8.59375 31.390625 
Q 8.59375 42.28125 12.203125 53.3125 
Q 15.828125 64.359375 23.1875 75.875 
z
" id="DejaVuSans-40"/>
      <path d="M 45.40625 46.390625 
L 45.40625 75.984375 
L 54.390625 75.984375 
L 54.390625 0 
L 45.40625 0 
L 45.40625 8.203125 
Q 42.578125 3.328125 38.25 0.953125 
Q 33.9375 -1.421875 27.875 -1.421875 
Q 17.96875 -1.421875 11.734375 6.484375 
Q 5.515625 14.40625 5.515625 27.296875 
Q 5.515625 40.1875 11.734375 48.09375 
Q 17.96875 56 27.875 56 
Q 33.9375 56 38.25 53.625 
Q 42.578125 51.265625 45.40625 46.390625 
z
M 14.796875 27.296875 
Q 14.796875 17.390625 18.875 11.75 
Q 22.953125 6.109375 30.078125 6.109375 
Q 37.203125 6.109375 41.296875 11.75 
Q 45.40625 17.390625 45.40625 27.296875 
Q 45.40625 37.203125 41.296875 42.84375 
Q 37.203125 48.484375 30.078125 48.484375 
Q 22.953125 48.484375 18.875 42.84375 
Q 14.796875 37.203125 14.796875 27.296875 
z
" id="DejaVuSans-100"/>
      <path d="M 9.421875 75.984375 
L 18.40625 75.984375 
L 18.40625 0 
L 9.421875 0 
z
" id="DejaVuSans-108"/>
      <path d="M 30.609375 48.390625 
Q 23.390625 48.390625 19.1875 42.75 
Q 14.984375 37.109375 14.984375 27.296875 
Q 14.984375 17.484375 19.15625 11.84375 
Q 23.34375 6.203125 30.609375 6.203125 
Q 37.796875 6.203125 41.984375 11.859375 
Q 46.1875 17.53125 46.1875 27.296875 
Q 46.1875 37.015625 41.984375 42.703125 
Q 37.796875 48.390625 30.609375 48.390625 
z
M 30.609375 56 
Q 42.328125 56 49.015625 48.375 
Q 55.71875 40.765625 55.71875 27.296875 
Q 55.71875 13.875 49.015625 6.21875 
Q 42.328125 -1.421875 30.609375 -1.421875 
Q 18.84375 -1.421875 12.171875 6.21875 
Q 5.515625 13.875 5.515625 27.296875 
Q 5.515625 40.765625 12.171875 48.375 
Q 18.84375 56 30.609375 56 
z
" id="DejaVuSans-111"/>
      <path d="M 54.890625 33.015625 
L 54.890625 0 
L 45.90625 0 
L 45.90625 32.71875 
Q 45.90625 40.484375 42.875 44.328125 
Q 39.84375 48.1875 33.796875 48.1875 
Q 26.515625 48.1875 22.3125 43.546875 
Q 18.109375 38.921875 18.109375 30.90625 
L 18.109375 0 
L 9.078125 0 
L 9.078125 54.6875 
L 18.109375 54.6875 
L 18.109375 46.1875 
Q 21.34375 51.125 25.703125 53.5625 
Q 30.078125 56 35.796875 56 
Q 45.21875 56 50.046875 50.171875 
Q 54.890625 44.34375 54.890625 33.015625 
z
" id="DejaVuSans-110"/>
      <path d="M 2.984375 54.6875 
L 12.5 54.6875 
L 29.59375 8.796875 
L 46.6875 54.6875 
L 56.203125 54.6875 
L 35.6875 0 
L 23.484375 0 
z
" id="DejaVuSans-118"/>
      <path d="M 8.015625 75.875 
L 15.828125 75.875 
Q 23.140625 64.359375 26.78125 53.3125 
Q 30.421875 42.28125 30.421875 31.390625 
Q 30.421875 20.453125 26.78125 9.375 
Q 23.140625 -1.703125 15.828125 -13.1875 
L 8.015625 -13.1875 
Q 14.5 -2 17.703125 9.0625 
Q 20.90625 20.125 20.90625 31.390625 
Q 20.90625 42.671875 17.703125 53.65625 
Q 14.5 64.65625 8.015625 75.875 
z
" id="DejaVuSans-41"/>
      <path d="M 10.6875 12.40625 
L 21 12.40625 
L 21 0 
L 10.6875 0 
z
" id="DejaVuSans-46"/>
     </defs>
     <use xlink:href="#DejaVuSans-80"/>
     <use x="55.802734" xlink:href="#DejaVuSans-97"/>
     <use x="117.082031" xlink:href="#DejaVuSans-103"/>
     <use x="180.558594" xlink:href="#DejaVuSans-101"/>
     <use x="242.082031" xlink:href="#DejaVuSans-32"/>
     <use x="273.869141" xlink:href="#DejaVuSans-104"/>
     <use x="337.248047" xlink:href="#DejaVuSans-105"/>
     <use x="365.03125" xlink:href="#DejaVuSans-116"/>
     <use x="404.240234" xlink:href="#DejaVuSans-115"/>
     <use x="456.339844" xlink:href="#DejaVuSans-32"/>
     <use x="488.126953" xlink:href="#DejaVuSans-112"/>
     <use x="551.603516" xlink:href="#DejaVuSans-101"/>
     <use x="613.126953" xlink:href="#DejaVuSans-114"/>
     <use x="654.240234" xlink:href="#DejaVuSans-32"/>
     <use x="686.027344" xlink:href="#DejaVuSans-117"/>
     <use x="749.40625" xlink:href="#DejaVuSans-117"/>
     <use x="812.785156" xlink:href="#DejaVuSans-114"/>
     <use x="853.898438" xlink:href="#DejaVuSans-32"/>
     <use x="885.685547" xlink:href="#DejaVuSans-40"/>
     <use x="924.699219" xlink:href="#DejaVuSans-103"/>
     <use x="988.175781" xlink:href="#DejaVuSans-101"/>
     <use x="1049.699219" xlink:href="#DejaVuSans-109"/>
     <use x="1147.111328" xlink:href="#DejaVuSans-105"/>
     <use x="1174.894531" xlink:href="#DejaVuSans-100"/>
     <use x="1238.371094" xlink:href="#DejaVuSans-100"/>
     <use x="1301.847656" xlink:href="#DejaVuSans-101"/>
     <use x="1363.371094" xlink:href="#DejaVuSans-108"/>
     <use x="1391.154297" xlink:href="#DejaVuSans-100"/>
     <use x="1454.630859" xlink:href="#DejaVuSans-32"/>
     <use x="1486.417969" xlink:href="#DejaVuSans-111"/>
     <use x="1547.599609" xlink:href="#DejaVuSans-110"/>
     <use x="1610.978516" xlink:href="#DejaVuSans-103"/>
     <use x="1674.455078" xlink:href="#DejaVuSans-101"/>
     <use x="1735.978516" xlink:href="#DejaVuSans-118"/>
     <use x="1795.158203" xlink:href="#DejaVuSans-101"/>
     <use x="1856.681641" xlink:href="#DejaVuSans-101"/>
     <use x="1918.205078" xlink:href="#DejaVuSans-114"/>
     <use x="1959.318359" xlink:href="#DejaVuSans-32"/>
     <use x="1991.105469" xlink:href="#DejaVuSans-48"/>
     <use x="2054.728516" xlink:href="#DejaVuSans-41"/>
     <use x="2093.742188" xlink:href="#DejaVuSans-46"/>
    </g>
   </g>
  </g>
  <g id="text_16">
   <!-- Gegenereerd op 2022-11-19 11:39. -->
   <g style="fill:#808080;" transform="translate(7.2 356.4)scale(0.08 -0.08)">
    <defs>
     <path d="M 59.515625 10.40625 
L 59.515625 29.984375 
L 43.40625 29.984375 
L 43.40625 38.09375 
L 69.28125 38.09375 
L 69.28125 6.78125 
Q 63.578125 2.734375 56.6875 0.65625 
Q 49.8125 -1.421875 42 -1.421875 
Q 24.90625 -1.421875 15.25 8.5625 
Q 5.609375 18.5625 5.609375 36.375 
Q 5.609375 54.25 15.25 64.234375 
Q 24.90625 74.21875 42 74.21875 
Q 49.125 74.21875 55.546875 72.453125 
Q 61.96875 70.703125 67.390625 67.28125 
L 67.390625 56.78125 
Q 61.921875 61.421875 55.765625 63.765625 
Q 49.609375 66.109375 42.828125 66.109375 
Q 29.4375 66.109375 22.71875 58.640625 
Q 16.015625 51.171875 16.015625 36.375 
Q 16.015625 21.625 22.71875 14.15625 
Q 29.4375 6.6875 42.828125 6.6875 
Q 48.046875 6.6875 52.140625 7.59375 
Q 56.25 8.5 59.515625 10.40625 
z
" id="DejaVuSans-71"/>
     <path d="M 11.71875 12.40625 
L 22.015625 12.40625 
L 22.015625 0 
L 11.71875 0 
z
M 11.71875 51.703125 
L 22.015625 51.703125 
L 22.015625 39.3125 
L 11.71875 39.3125 
z
" id="DejaVuSans-58"/>
    </defs>
    <use xlink:href="#DejaVuSans-71"/>
    <use x="77.490234" xlink:href="#DejaVuSans-101"/>
    <use x="139.013672" xlink:href="#DejaVuSans-103"/>
    <use x="202.490234" xlink:href="#DejaVuSans-101"/>
    <use x="264.013672" xlink:href="#DejaVuSans-110"/>
    <use x="327.392578" xlink:href="#DejaVuSans-101"/>
    <use x="388.916016" xlink:href="#DejaVuSans-114"/>
    <use x="427.779297" xlink:href="#DejaVuSans-101"/>
    <use x="489.302734" xlink:href="#DejaVuSans-101"/>
    <use x="550.826172" xlink:href="#DejaVuSans-114"/>
    <use x="590.189453" xlink:href="#DejaVuSans-100"/>
    <use x="653.666016" xlink:href="#DejaVuSans-32"/>
    <use x="685.453125" xlink:href="#DejaVuSans-111"/>
    <use x="746.634766" xlink:href="#DejaVuSans-112"/>
    <use x="810.111328" xlink:href="#DejaVuSans-32"/>
    <use x="841.898438" xlink:href="#DejaVuSans-50"/>
    <use x="905.521484" xlink:href="#DejaVuSans-48"/>
    <use x="969.144531" xlink:href="#DejaVuSans-50"/>
    <use x="1032.767578" xlink:href="#DejaVuSans-50"/>
    <use x="1096.390625" xlink:href="#DejaVuSans-45"/>
    <use x="1132.474609" xlink:href="#DejaVuSans-49"/>
    <use x="1196.097656" xlink:href="#DejaVuSans-49"/>
    <use x="1259.720703" xlink:href="#DejaVuSans-45"/>
    <use x="1295.804688" xlink:href="#DejaVuSans-49"/>
    <use x="1359.427734" xlink:href="#DejaVuSans-57"/>
    <use x="1423.050781" xlink:href="#DejaVuSans-32"/>
    <use x="1454.837891" xlink:href="#DejaVuSans-49"/>
    <use x="1518.460938" xlink:href="#DejaVuSans-49"/>
    <use x="1582.083984" xlink:href="#DejaVuSans-58"/>
    <use x="1615.775391" xlink:href="#DejaVuSans-51"/>
    <use x="1679.398438" xlink:href="#DejaVuSans-57"/>
    <use x="1743.021484" xlink:href="#DejaVuSans-46"/>
   </g>
  </g>
  <g id="text_17">
   <!-- https://realrolfje.github.io/coronadata/ -->
   <g style="fill:#808080;" transform="translate(560.24375 356.4)scale(0.08 -0.08)">
    <defs>
     <path d="M 25.390625 72.90625 
L 33.6875 72.90625 
L 8.296875 -9.28125 
L 0 -9.28125 
z
" id="DejaVuSans-47"/>
     <path d="M 37.109375 75.984375 
L 37.109375 68.5 
L 28.515625 68.5 
Q 23.6875 68.5 21.796875 66.546875 
Q 19.921875 64.59375 19.921875 59.515625 
L 19.921875 54.6875 
L 34.71875 54.6875 
L 34.71875 47.703125 
L 19.921875 47.703125 
L 19.921875 0 
L 10.890625 0 
L 10.890625 47.703125 
L 2.296875 47.703125 
L 2.296875 54.6875 
L 10.890625 54.6875 
L 10.890625 58.5 
Q 10.890625 67.625 15.140625 71.796875 
Q 19.390625 75.984375 28.609375 75.984375 
z
" id="DejaVuSans-102"/>
     <path d="M 9.421875 54.6875 
L 18.40625 54.6875 
L 18.40625 -0.984375 
Q 18.40625 -11.421875 14.421875 -16.109375 
Q 10.453125 -20.796875 1.609375 -20.796875 
L -1.8125 -20.796875 
L -1.8125 -13.1875 
L 0.59375 -13.1875 
Q 5.71875 -13.1875 7.5625 -10.8125 
Q 9.421875 -8.453125 9.421875 -0.984375 
z
M 9.421875 75.984375 
L 18.40625 75.984375 
L 18.40625 64.59375 
L 9.421875 64.59375 
z
" id="DejaVuSans-106"/>
     <path d="M 48.6875 27.296875 
Q 48.6875 37.203125 44.609375 42.84375 
Q 40.53125 48.484375 33.40625 48.484375 
Q 26.265625 48.484375 22.1875 42.84375 
Q 18.109375 37.203125 18.109375 27.296875 
Q 18.109375 17.390625 22.1875 11.75 
Q 26.265625 6.109375 33.40625 6.109375 
Q 40.53125 6.109375 44.609375 11.75 
Q 48.6875 17.390625 48.6875 27.296875 
z
M 18.109375 46.390625 
Q 20.953125 51.265625 25.265625 53.625 
Q 29.59375 56 35.59375 56 
Q 45.5625 56 51.78125 48.09375 
Q 58.015625 40.1875 58.015625 27.296875 
Q 58.015625 14.40625 51.78125 6.484375 
Q 45.5625 -1.421875 35.59375 -1.421875 
Q 29.59375 -1.421875 25.265625 0.953125 
Q 20.953125 3.328125 18.109375 8.203125 
L 18.109375 0 
L 9.078125 0 
L 9.078125 75.984375 
L 18.109375 75.984375 
z
" id="DejaVuSans-98"/>
     <path d="M 48.78125 52.59375 
L 48.78125 44.1875 
Q 44.96875 46.296875 41.140625 47.34375 
Q 37.3125 48.390625 33.40625 48.390625 
Q 24.65625 48.390625 19.8125 42.84375 
Q 14.984375 37.3125 14.984375 27.296875 
Q 14.984375 17.28125 19.8125 11.734375 
Q 24.65625 6.203125 33.40625 6.203125 
Q 37.3125 6.203125 41.140625 7.25 
Q 44.96875 8.296875 48.78125 10.40625 
L 48.78125 2.09375 
Q 45.015625 0.34375 40.984375 -0.53125 
Q 36.96875 -1.421875 32.421875 -1.421875 
Q 20.0625 -1.421875 12.78125 6.34375 
Q 5.515625 14.109375 5.515625 27.296875 
Q 5.515625 40.671875 12.859375 48.328125 
Q 20.21875 56 33.015625 56 
Q 37.15625 56 41.109375 55.140625 
Q 45.0625 54.296875 48.78125 52.59375 
z
" id="DejaVuSans-99"/>
    </defs>
    <use xlink:href="#DejaVuSans-104"/>
    <use x="63.378906" xlink:href="#DejaVuSans-116"/>
    <use x="102.587891" xlink:href="#DejaVuSans-116"/>
    <use x="141.796875" xlink:href="#DejaVuSans-112"/>
    <use x="205.273438" xlink:href="#DejaVuSans-115"/>
    <use x="257.373047" xlink:href="#DejaVuSans-58"/>
    <use x="291.064453" xlink:href="#DejaVuSans-47"/>
    <use x="324.755859" xlink:href="#DejaVuSans-47"/>
    <use x="358.447266" xlink:href="#DejaVuSans-114"/>
    <use x="397.310547" xlink:href="#DejaVuSans-101"/>
    <use x="458.833984" xlink:href="#DejaVuSans-97"/>
    <use x="520.113281" xlink:href="#DejaVuSans-108"/>
    <use x="547.896484" xlink:href="#DejaVuSans-114"/>
    <use x="586.759766" xlink:href="#DejaVuSans-111"/>
    <use x="647.941406" xlink:href="#DejaVuSans-108"/>
    <use x="675.724609" xlink:href="#DejaVuSans-102"/>
    <use x="710.929688" xlink:href="#DejaVuSans-106"/>
    <use x="738.712891" xlink:href="#DejaVuSans-101"/>
    <use x="800.236328" xlink:href="#DejaVuSans-46"/>
    <use x="832.023438" xlink:href="#DejaVuSans-103"/>
    <use x="895.5" xlink:href="#DejaVuSans-105"/>
    <use x="923.283203" xlink:href="#DejaVuSans-116"/>
    <use x="962.492188" xlink:href="#DejaVuSans-104"/>
    <use x="1025.871094" xlink:href="#DejaVuSans-117"/>
    <use x="1089.25" xlink:href="#DejaVuSans-98"/>
    <use x="1152.726562" xlink:href="#DejaVuSans-46"/>
    <use x="1184.513672" xlink:href="#DejaVuSans-105"/>
    <use x="1212.296875" xlink:href="#DejaVuSans-111"/>
    <use x="1273.478516" xlink:href="#DejaVuSans-47"/>
    <use x="1307.169922" xlink:href="#DejaVuSans-99"/>
    <use x="1362.150391" xlink:href="#DejaVuSans-111"/>
    <use x="1423.332031" xlink:href="#DejaVuSans-114"/>
    <use x="1462.195312" xlink:href="#DejaVuSans-111"/>
    <use x="1523.376953" xlink:href="#DejaVuSans-110"/>
    <use x="1586.755859" xlink:href="#DejaVuSans-97"/>
    <use x="1648.035156" xlink:href="#DejaVuSans-100"/>
    <use x="1711.511719" xlink:href="#DejaVuSans-97"/>
    <use x="1772.791016" xlink:href="#DejaVuSans-116"/>
    <use x="1812" xlink:href="#DejaVuSans-97"/>
    <use x="1873.279297" xlink:href="#DejaVuSans-47"/>
   </g>
  </g>
 </g>
 <defs>
  <clipPath id="pefc55e1ee0">
   <rect height="284.4" width="590.4" x="64.8" y="28.8"/>
  </clipPath>
 </defs>
</svg>
