<?xml version="1.0" encoding="utf-8" standalone="no"?>
<!DOCTYPE svg PUBLIC "-//W3C//DTD SVG 1.1//EN"
  "http://www.w3.org/Graphics/SVG/1.1/DTD/svg11.dtd">
<!-- Created with matplotlib (https://matplotlib.org/) -->
<svg height="360pt" version="1.1" viewBox="0 0 720 360" width="720pt" xmlns="http://www.w3.org/2000/svg" xmlns:xlink="http://www.w3.org/1999/xlink">
 <metadata>
  <rdf:RDF xmlns:cc="http://creativecommons.org/ns#" xmlns:dc="http://purl.org/dc/elements/1.1/" xmlns:rdf="http://www.w3.org/1999/02/22-rdf-syntax-ns#">
   <cc:Work>
    <dc:type rdf:resource="http://purl.org/dc/dcmitype/StillImage"/>
    <dc:date>2023-01-23T23:38:50.449875</dc:date>
    <dc:format>image/svg+xml</dc:format>
    <dc:creator>
     <cc:Agent>
      <dc:title>Matplotlib v3.3.2, https://matplotlib.org/</dc:title>
     </cc:Agent>
    </dc:creator>
   </cc:Work>
  </rdf:RDF>
 </metadata>
 <defs>
  <style type="text/css">*{stroke-linecap:butt;stroke-linejoin:round;}</style>
 </defs>
 <g id="figure_1">
  <g id="patch_1">
   <path d="M 0 360 
L 720 360 
L 720 0 
L 0 0 
z
" style="fill:#ffffff;"/>
  </g>
  <g id="axes_1">
   <g id="patch_2">
    <path d="M 64.8 313.2 
L 655.2 313.2 
L 655.2 28.8 
L 64.8 28.8 
z
" style="fill:#ffffff;"/>
   </g>
   <g id="PolyCollection_1">
    <path clip-path="url(#p1cc958adf9)" d="M 91.636364 300.272727 
L 91.636364 300.272727 
L 92.312343 300.272727 
L 92.988322 300.272727 
L 93.6643 300.272727 
L 94.340279 300.272727 
L 95.016258 300.272727 
L 97.044195 300.272727 
L 97.720174 300.272727 
L 98.396153 300.272727 
L 99.072132 300.272727 
L 99.748111 300.272727 
L 100.42409 300.272727 
L 101.100069 300.272727 
L 101.776048 300.272727 
L 102.452027 300.272727 
L 103.128005 300.272727 
L 103.803984 300.272727 
L 104.479963 300.272727 
L 105.155942 300.272727 
L 105.831921 300.272727 
L 106.5079 300.272727 
L 107.183879 300.272727 
L 107.859858 300.272727 
L 108.535837 300.272727 
L 109.211816 300.272727 
L 109.887795 300.272727 
L 110.563774 300.272727 
L 111.239753 300.272727 
L 111.915732 300.272727 
L 112.591711 300.272727 
L 113.267689 300.272727 
L 113.943668 300.272727 
L 114.619647 300.272727 
L 115.295626 300.272727 
L 115.971605 300.272727 
L 116.647584 300.272727 
L 117.323563 300.272727 
L 117.999542 300.272727 
L 118.675521 300.272727 
L 119.3515 300.272727 
L 120.027479 300.272727 
L 120.703458 300.272727 
L 121.379437 300.272727 
L 122.055416 300.272727 
L 122.731395 300.272727 
L 123.407373 300.272727 
L 124.083352 300.272727 
L 124.759331 300.272727 
L 125.43531 300.272727 
L 126.111289 300.272727 
L 126.787268 300.272727 
L 127.463247 300.272727 
L 128.139226 300.272727 
L 128.815205 300.272727 
L 129.491184 300.272727 
L 130.167163 300.272727 
L 130.843142 300.272727 
L 131.519121 300.272727 
L 132.1951 300.272727 
L 132.871079 300.272727 
L 133.547057 300.272727 
L 134.223036 300.272727 
L 134.899015 300.272727 
L 135.574994 300.272727 
L 136.250973 300.272727 
L 136.926952 300.272727 
L 137.602931 300.272727 
L 138.27891 300.272727 
L 138.954889 300.272727 
L 139.630868 300.272727 
L 140.306847 300.272727 
L 140.982826 300.272727 
L 141.658805 300.272727 
L 142.334784 300.272727 
L 143.010763 300.272727 
L 143.686741 300.272727 
L 144.36272 300.272727 
L 145.038699 300.272727 
L 145.714678 300.272727 
L 146.390657 300.272727 
L 147.066636 300.272727 
L 147.742615 300.272727 
L 148.418594 300.272727 
L 149.094573 300.272727 
L 149.770552 300.272727 
L 150.446531 300.272727 
L 151.12251 300.272727 
L 151.798489 300.272727 
L 152.474468 300.272727 
L 153.150447 300.272727 
L 153.826425 300.272727 
L 154.502404 300.272727 
L 155.178383 300.272727 
L 155.854362 300.272727 
L 156.530341 300.272727 
L 157.20632 300.272727 
L 157.882299 300.272727 
L 158.558278 300.272727 
L 159.234257 300.272727 
L 159.910236 300.272727 
L 160.586215 300.272727 
L 161.262194 300.272727 
L 161.938173 300.272727 
L 162.614152 300.272727 
L 163.290131 300.272727 
L 163.966109 300.272727 
L 164.642088 300.272727 
L 165.318067 300.272727 
L 165.994046 300.272727 
L 166.670025 300.272727 
L 167.346004 300.272727 
L 168.021983 300.272727 
L 168.697962 300.272727 
L 169.373941 300.272727 
L 170.04992 300.272727 
L 170.725899 300.272727 
L 171.401878 300.272727 
L 172.753836 300.272727 
L 173.429815 300.272727 
L 174.105793 300.272727 
L 174.781772 300.272727 
L 175.457751 300.272727 
L 176.13373 300.272727 
L 176.809709 300.272727 
L 177.485688 300.272727 
L 178.161667 300.272727 
L 178.837646 300.272727 
L 179.513625 300.272727 
L 180.189604 300.272727 
L 180.865583 300.272727 
L 181.541562 300.272727 
L 182.217541 300.272727 
L 182.89352 300.272727 
L 183.569499 300.272727 
L 184.245477 300.272727 
L 184.921456 300.272727 
L 185.597435 300.272727 
L 186.273414 300.272727 
L 186.949393 300.272727 
L 187.625372 300.272727 
L 188.301351 300.272727 
L 188.97733 300.272727 
L 189.653309 300.272727 
L 190.329288 300.272727 
L 191.005267 300.272727 
L 191.681246 300.272727 
L 192.357225 300.272727 
L 193.033204 300.272727 
L 193.709183 300.272727 
L 194.385161 300.272727 
L 195.06114 300.272727 
L 195.737119 300.272727 
L 196.413098 300.272727 
L 197.089077 300.272727 
L 197.765056 300.272727 
L 198.441035 300.272727 
L 199.117014 300.272727 
L 199.792993 300.272727 
L 200.468972 300.272727 
L 201.144951 300.272727 
L 201.82093 300.272727 
L 202.496909 300.272727 
L 203.172888 300.272727 
L 203.848866 300.272727 
L 204.524845 300.272727 
L 205.200824 300.272727 
L 205.876803 300.272727 
L 206.552782 300.272727 
L 207.228761 300.272727 
L 207.90474 300.272727 
L 208.580719 300.272727 
L 209.256698 300.272727 
L 209.932677 300.272727 
L 210.608656 300.272727 
L 211.284635 300.272727 
L 211.960614 300.272727 
L 212.636593 300.272727 
L 213.312572 300.272727 
L 213.98855 300.272727 
L 214.664529 300.272727 
L 215.340508 300.272727 
L 216.016487 300.272727 
L 216.692466 300.272727 
L 217.368445 300.272727 
L 218.044424 300.272727 
L 218.720403 300.272727 
L 219.396382 300.272727 
L 220.072361 300.272727 
L 220.74834 300.272727 
L 221.424319 300.272727 
L 222.100298 300.272727 
L 222.776277 300.272727 
L 223.452256 300.272727 
L 224.128234 300.272727 
L 224.804213 300.272727 
L 225.480192 300.272727 
L 226.156171 300.272727 
L 226.83215 300.272727 
L 227.508129 300.272727 
L 228.184108 300.272727 
L 228.860087 300.272727 
L 229.536066 300.272727 
L 230.212045 300.272727 
L 230.888024 300.272727 
L 231.564003 300.272727 
L 232.915961 300.272727 
L 233.59194 300.272727 
L 234.267918 300.272727 
L 234.943897 300.272727 
L 235.619876 300.272727 
L 236.295855 300.272727 
L 236.971834 300.272727 
L 237.647813 300.272727 
L 238.323792 300.272727 
L 238.999771 300.272727 
L 239.67575 300.272727 
L 240.351729 300.272727 
L 241.027708 300.272727 
L 241.703687 300.272727 
L 242.379666 300.272727 
L 243.055645 300.272727 
L 243.731624 300.272727 
L 244.407602 300.272727 
L 245.083581 300.272727 
L 245.75956 300.272727 
L 246.435539 300.272727 
L 247.111518 300.272727 
L 247.787497 300.272727 
L 248.463476 300.272727 
L 249.139455 300.272727 
L 249.815434 300.272727 
L 250.491413 300.272727 
L 251.167392 300.272727 
L 251.843371 300.272727 
L 252.51935 300.272727 
L 253.195329 300.272727 
L 253.871308 300.272727 
L 254.547286 300.272727 
L 255.223265 300.272727 
L 255.899244 300.272727 
L 256.575223 300.272727 
L 257.251202 300.272727 
L 257.927181 300.272727 
L 258.60316 300.272727 
L 259.279139 300.272727 
L 259.955118 300.272727 
L 260.631097 300.272727 
L 261.307076 300.272727 
L 261.983055 300.272727 
L 262.659034 300.272727 
L 263.335013 300.272727 
L 264.010992 300.272727 
L 264.68697 300.272727 
L 265.362949 300.272727 
L 266.038928 300.272727 
L 266.714907 300.272727 
L 267.390886 300.272727 
L 268.066865 300.272727 
L 268.742844 300.272727 
L 269.418823 300.272727 
L 270.094802 300.272727 
L 270.770781 300.272727 
L 271.44676 300.272727 
L 272.122739 300.272727 
L 272.798718 300.272727 
L 273.474697 300.272727 
L 274.150676 300.272727 
L 274.826654 300.272727 
L 275.502633 300.272727 
L 276.178612 300.272727 
L 276.854591 300.272727 
L 277.53057 300.272727 
L 278.206549 300.272727 
L 278.882528 300.272727 
L 279.558507 300.272727 
L 280.234486 300.272727 
L 280.910465 300.272727 
L 281.586444 300.272727 
L 282.262423 300.272727 
L 282.938402 300.272727 
L 283.614381 300.272727 
L 284.29036 300.272727 
L 284.966338 300.272727 
L 285.642317 300.272727 
L 286.318296 300.272727 
L 286.994275 300.272727 
L 287.670254 300.272727 
L 288.346233 300.272727 
L 289.022212 300.272727 
L 289.698191 300.272727 
L 290.37417 300.272727 
L 291.050149 300.272727 
L 291.726128 300.272727 
L 292.402107 300.272727 
L 293.078086 300.272727 
L 293.754065 300.272727 
L 294.430044 300.272727 
L 295.106022 300.272727 
L 295.782001 300.272727 
L 296.45798 300.272727 
L 297.133959 300.272727 
L 297.809938 300.272727 
L 298.485917 300.272727 
L 299.161896 300.272727 
L 299.837875 300.272727 
L 300.513854 300.272727 
L 301.189833 300.272727 
L 301.865812 300.272727 
L 302.541791 300.272727 
L 303.21777 300.272727 
L 303.893749 300.272727 
L 304.569728 300.272727 
L 305.245706 300.272727 
L 305.921685 300.272727 
L 306.597664 300.272727 
L 307.273643 300.272727 
L 307.949622 300.272727 
L 308.625601 300.272727 
L 309.30158 300.272727 
L 309.977559 300.272727 
L 310.653538 300.272727 
L 311.329517 300.272727 
L 312.005496 300.272727 
L 312.681475 300.272727 
L 313.357454 300.272727 
L 314.033433 300.272727 
L 314.709411 300.272727 
L 315.38539 300.272727 
L 316.061369 300.272727 
L 316.737348 300.272727 
L 317.413327 300.272727 
L 318.089306 300.272727 
L 318.765285 300.272727 
L 319.441264 300.272727 
L 320.117243 300.272727 
L 320.793222 300.272727 
L 321.469201 300.272727 
L 322.14518 300.272727 
L 322.821159 300.272727 
L 323.497138 300.272727 
L 324.173117 300.272727 
L 324.849095 300.272727 
L 325.525074 300.272727 
L 326.201053 300.272727 
L 326.877032 300.272727 
L 327.553011 300.272727 
L 328.22899 300.272727 
L 328.904969 300.272727 
L 329.580948 300.272727 
L 330.256927 300.272727 
L 330.932906 300.272727 
L 331.608885 300.272727 
L 332.284864 300.272727 
L 332.960843 300.272727 
L 333.636822 300.272727 
L 334.312801 300.272727 
L 334.988779 300.272727 
L 335.664758 300.272727 
L 336.340737 300.272727 
L 337.016716 300.272727 
L 337.692695 300.272727 
L 338.368674 300.272727 
L 339.044653 300.272727 
L 339.720632 300.272727 
L 340.396611 300.272727 
L 341.07259 300.272727 
L 341.748569 300.272727 
L 342.424548 300.272727 
L 343.100527 300.272727 
L 343.776506 300.272727 
L 344.452485 300.272727 
L 345.128463 300.272727 
L 345.804442 300.272727 
L 346.480421 300.272727 
L 347.1564 300.272727 
L 347.832379 300.272727 
L 348.508358 300.272727 
L 349.184337 300.272727 
L 349.860316 300.272727 
L 350.536295 300.272727 
L 351.212274 300.272727 
L 351.888253 300.272727 
L 352.564232 300.272727 
L 353.240211 300.272727 
L 353.91619 300.272727 
L 354.592169 300.272727 
L 355.268147 300.272727 
L 355.944126 300.272727 
L 356.620105 300.272727 
L 357.296084 300.272727 
L 357.972063 300.272727 
L 358.648042 300.272727 
L 359.324021 300.272727 
L 360 300.272727 
L 360.675979 300.272727 
L 361.351958 300.272727 
L 362.027937 300.272727 
L 362.703916 300.272727 
L 363.379895 300.272727 
L 364.055874 300.272727 
L 364.731853 300.272727 
L 365.407831 300.272727 
L 366.08381 300.272727 
L 366.759789 300.272727 
L 367.435768 300.272727 
L 368.111747 300.272727 
L 368.787726 300.272727 
L 376.899473 300.272727 
L 377.575452 300.272727 
L 378.251431 300.272727 
L 378.92741 300.272727 
L 379.603389 300.272727 
L 380.279368 300.272727 
L 380.955347 300.272727 
L 381.631326 300.272727 
L 382.983284 300.272727 
L 383.659263 300.272727 
L 384.335242 300.272727 
L 385.011221 300.272727 
L 385.687199 300.272727 
L 386.363178 300.272727 
L 387.039157 300.272727 
L 387.715136 300.272727 
L 388.391115 300.272727 
L 389.067094 300.272727 
L 389.743073 300.272727 
L 390.419052 300.272727 
L 391.095031 300.272727 
L 391.77101 300.272727 
L 392.446989 300.272727 
L 393.122968 300.272727 
L 393.798947 300.272727 
L 394.474926 300.272727 
L 395.150905 300.272727 
L 395.826883 300.272727 
L 396.502862 300.272727 
L 397.178841 300.272727 
L 397.85482 300.272727 
L 398.530799 300.272727 
L 399.206778 300.272727 
L 399.882757 300.272727 
L 400.558736 300.272727 
L 401.234715 300.272727 
L 401.910694 300.272727 
L 402.586673 300.272727 
L 403.262652 300.272727 
L 403.938631 300.272727 
L 404.61461 300.272727 
L 405.290589 300.272727 
L 405.966567 300.272727 
L 406.642546 300.272727 
L 407.318525 300.272727 
L 407.994504 300.272727 
L 408.670483 300.272727 
L 410.69842 300.272727 
L 411.374399 300.272727 
L 412.050378 300.272727 
L 412.726357 300.272727 
L 413.402336 300.272727 
L 414.078315 300.272727 
L 414.754294 300.272727 
L 415.430272 300.272727 
L 416.106251 300.272727 
L 416.78223 300.272727 
L 417.458209 300.272727 
L 418.134188 300.272727 
L 418.810167 300.272727 
L 419.486146 300.272727 
L 420.162125 300.272727 
L 420.838104 300.272727 
L 421.514083 300.272727 
L 422.190062 300.272727 
L 422.866041 300.272727 
L 423.54202 300.272727 
L 424.217999 300.272727 
L 424.893978 300.272727 
L 425.569956 300.272727 
L 426.245935 300.272727 
L 426.921914 300.272727 
L 427.597893 300.272727 
L 428.273872 300.272727 
L 428.949851 300.272727 
L 429.62583 300.272727 
L 430.301809 300.272727 
L 430.977788 300.272727 
L 431.653767 300.272727 
L 432.329746 300.272727 
L 433.005725 300.272727 
L 433.681704 300.272727 
L 434.357683 300.272727 
L 435.033662 300.272727 
L 435.70964 300.272727 
L 436.385619 300.272727 
L 437.061598 300.272727 
L 437.737577 300.272727 
L 438.413556 300.272727 
L 439.089535 300.272727 
L 439.765514 300.272727 
L 440.441493 300.272727 
L 441.117472 300.272727 
L 441.793451 300.272727 
L 442.46943 300.272727 
L 443.145409 300.272727 
L 443.821388 300.272727 
L 444.497367 300.272727 
L 445.173346 300.272727 
L 445.849324 300.272727 
L 446.525303 300.272727 
L 447.201282 300.272727 
L 447.877261 300.272727 
L 448.55324 300.272727 
L 449.229219 300.272727 
L 449.905198 300.272727 
L 450.581177 300.272727 
L 451.257156 300.272727 
L 451.933135 300.272727 
L 452.609114 300.272727 
L 453.285093 300.272727 
L 453.961072 300.272727 
L 454.637051 300.272727 
L 455.31303 300.272727 
L 455.989008 300.272727 
L 456.664987 300.272727 
L 457.340966 300.272727 
L 458.016945 300.272727 
L 458.692924 300.272727 
L 459.368903 300.272727 
L 460.044882 300.272727 
L 460.720861 300.272727 
L 461.39684 300.272727 
L 462.072819 300.272727 
L 462.748798 300.272727 
L 463.424777 300.272727 
L 464.100756 300.272727 
L 464.776735 300.272727 
L 465.452714 300.272727 
L 466.128692 300.272727 
L 466.804671 300.272727 
L 467.48065 300.272727 
L 468.156629 300.272727 
L 468.832608 300.272727 
L 469.508587 300.272727 
L 470.184566 300.272727 
L 470.860545 300.272727 
L 471.536524 300.272727 
L 472.212503 300.272727 
L 472.888482 300.272727 
L 473.564461 300.272727 
L 474.24044 300.272727 
L 474.916419 300.272727 
L 475.592398 300.272727 
L 476.268376 300.272727 
L 476.944355 300.272727 
L 477.620334 300.272727 
L 478.296313 300.272727 
L 478.972292 300.272727 
L 479.648271 300.272727 
L 480.32425 300.272727 
L 481.000229 300.272727 
L 481.676208 300.272727 
L 482.352187 300.272727 
L 483.028166 300.272727 
L 483.704145 300.272727 
L 484.380124 300.272727 
L 485.056103 300.272727 
L 485.732082 300.272727 
L 486.40806 300.272727 
L 487.084039 300.272727 
L 487.760018 300.272727 
L 488.435997 300.272727 
L 489.111976 300.272727 
L 489.787955 300.272727 
L 490.463934 300.272727 
L 491.139913 300.272727 
L 491.815892 300.272727 
L 492.491871 300.272727 
L 493.16785 300.272727 
L 493.843829 300.272727 
L 494.519808 300.272727 
L 495.195787 300.272727 
L 495.871766 300.272727 
L 496.547744 300.272727 
L 497.223723 300.272727 
L 497.899702 300.272727 
L 498.575681 300.272727 
L 499.25166 300.272727 
L 499.927639 300.272727 
L 500.603618 300.272727 
L 501.279597 300.272727 
L 501.955576 300.272727 
L 502.631555 300.272727 
L 503.307534 300.272727 
L 503.983513 300.272727 
L 504.659492 300.272727 
L 505.335471 300.272727 
L 506.01145 300.272727 
L 506.687428 300.272727 
L 507.363407 300.272727 
L 508.039386 300.272727 
L 508.715365 300.272727 
L 509.391344 300.272727 
L 510.067323 300.272727 
L 510.743302 300.272727 
L 511.419281 300.272727 
L 512.09526 300.272727 
L 512.771239 300.272727 
L 513.447218 300.272727 
L 514.123197 300.272727 
L 514.799176 300.272727 
L 515.475155 300.272727 
L 516.151134 300.272727 
L 516.827112 300.272727 
L 517.503091 300.272727 
L 518.17907 300.272727 
L 518.855049 300.272727 
L 519.531028 300.272727 
L 520.207007 300.272727 
L 520.882986 300.272727 
L 521.558965 300.272727 
L 522.234944 300.272727 
L 522.910923 300.272727 
L 523.586902 300.272727 
L 524.93886 300.272727 
L 525.614839 300.272727 
L 526.290817 300.272727 
L 526.966796 300.272727 
L 527.642775 300.272727 
L 528.318754 300.272727 
L 528.994733 300.272727 
L 529.670712 300.272727 
L 530.346691 300.272727 
L 531.02267 300.272727 
L 531.698649 300.272727 
L 532.374628 300.272727 
L 533.050607 300.272727 
L 533.726586 300.272727 
L 534.402565 300.272727 
L 535.078544 300.272727 
L 535.754523 300.272727 
L 536.430501 300.272727 
L 537.10648 300.272727 
L 537.782459 300.272727 
L 538.458438 300.272727 
L 539.134417 300.272727 
L 539.810396 300.272727 
L 540.486375 300.272727 
L 541.162354 300.272727 
L 541.838333 300.272727 
L 542.514312 300.272727 
L 543.190291 300.272727 
L 543.86627 300.272727 
L 544.542249 300.272727 
L 545.218228 300.272727 
L 545.894207 300.272727 
L 546.570185 300.272727 
L 547.246164 300.272727 
L 547.922143 300.272727 
L 548.598122 300.272727 
L 549.274101 300.272727 
L 549.95008 300.272727 
L 550.626059 300.272727 
L 551.302038 300.272727 
L 551.978017 300.272727 
L 552.653996 300.272727 
L 553.329975 300.272727 
L 554.005954 300.272727 
L 554.681933 300.272727 
L 555.357912 300.272727 
L 556.033891 300.272727 
L 556.709869 300.272727 
L 557.385848 300.272727 
L 558.061827 300.272727 
L 558.737806 300.272727 
L 559.413785 300.272727 
L 560.089764 300.272727 
L 560.765743 300.272727 
L 561.441722 300.272727 
L 562.117701 300.272727 
L 562.79368 300.272727 
L 563.469659 300.272727 
L 564.145638 300.272727 
L 564.821617 300.272727 
L 565.497596 300.272727 
L 566.173575 300.272727 
L 566.849553 300.272727 
L 567.525532 300.272727 
L 568.201511 300.272727 
L 568.87749 300.272727 
L 569.553469 300.272727 
L 570.229448 300.272727 
L 570.905427 300.272727 
L 571.581406 300.272727 
L 572.257385 300.272727 
L 572.933364 300.272727 
L 573.609343 300.272727 
L 574.285322 300.272727 
L 574.961301 300.272727 
L 575.63728 300.272727 
L 576.313259 300.272727 
L 576.989237 300.272727 
L 577.665216 300.272727 
L 578.341195 300.272727 
L 579.017174 300.272727 
L 579.693153 300.272727 
L 580.369132 300.272727 
L 581.045111 300.272727 
L 581.72109 300.272727 
L 582.397069 300.272727 
L 583.073048 300.272727 
L 583.749027 300.272727 
L 584.425006 300.272727 
L 585.100985 300.272727 
L 585.776964 300.272727 
L 586.452943 300.272727 
L 587.128921 300.272727 
L 587.8049 300.272727 
L 588.480879 300.272727 
L 589.156858 300.272727 
L 589.832837 300.272727 
L 590.508816 300.272727 
L 591.184795 300.272727 
L 591.860774 300.272727 
L 592.536753 300.272727 
L 593.212732 300.272727 
L 593.888711 300.272727 
L 594.56469 300.272727 
L 595.240669 300.272727 
L 595.916648 300.272727 
L 596.592627 300.272727 
L 597.268605 300.272727 
L 597.944584 300.272727 
L 598.620563 300.272727 
L 599.296542 300.272727 
L 599.972521 300.272727 
L 600.6485 300.272727 
L 601.324479 300.272727 
L 602.000458 300.272727 
L 602.676437 300.272727 
L 603.352416 300.272727 
L 604.028395 300.272727 
L 604.704374 300.272727 
L 605.380353 300.272727 
L 606.056332 300.272727 
L 606.732311 300.272727 
L 607.408289 300.272727 
L 608.084268 300.272727 
L 608.760247 300.272727 
L 609.436226 300.272727 
L 610.112205 300.272727 
L 610.788184 300.272727 
L 611.464163 300.272727 
L 612.140142 300.272727 
L 612.816121 300.272727 
L 613.4921 300.272727 
L 614.168079 300.272727 
L 614.844058 300.272727 
L 615.520037 300.272727 
L 616.196016 300.272727 
L 616.871995 300.272727 
L 617.547973 300.272727 
L 618.223952 300.272727 
L 618.899931 300.272727 
L 619.57591 300.272727 
L 620.251889 300.272727 
L 620.927868 300.272727 
L 621.603847 300.272727 
L 622.279826 300.272727 
L 622.955805 300.272727 
L 623.631784 300.272727 
L 624.307763 300.272727 
L 624.983742 300.272727 
L 625.659721 300.272727 
L 626.3357 300.272727 
L 627.011678 300.272727 
L 627.687657 300.272727 
L 628.363636 300.272727 
L 628.363636 300.272727 
L 628.363636 298.170732 
L 627.687657 297.645233 
L 627.011678 297.119734 
L 626.3357 295.017738 
L 625.659721 295.017738 
L 624.983742 293.966741 
L 624.307763 294.492239 
L 623.631784 289.762749 
L 622.955805 295.543237 
L 622.279826 297.645233 
L 621.603847 296.068736 
L 620.927868 297.645233 
L 620.251889 297.645233 
L 619.57591 295.543237 
L 618.899931 295.543237 
L 618.223952 296.594235 
L 617.547973 297.645233 
L 616.871995 296.594235 
L 616.196016 259.809313 
L 615.520037 287.660754 
L 614.844058 287.660754 
L 614.168079 291.339246 
L 613.4921 293.441242 
L 612.816121 270.31929 
L 612.140142 297.645233 
L 611.464163 295.017738 
L 610.788184 295.017738 
L 610.112205 297.645233 
L 609.436226 296.594235 
L 608.760247 297.645233 
L 608.084268 297.645233 
L 607.408289 297.119734 
L 606.732311 297.645233 
L 606.056332 281.354767 
L 605.380353 296.594235 
L 604.704374 290.288248 
L 604.028395 298.170732 
L 603.352416 297.119734 
L 602.676437 271.895787 
L 602.000458 297.119734 
L 601.324479 296.594235 
L 600.6485 297.119734 
L 599.972521 281.880266 
L 599.296542 292.390244 
L 598.620563 298.170732 
L 597.944584 295.017738 
L 597.268605 296.594235 
L 596.592627 268.217295 
L 595.916648 248.773836 
L 595.240669 268.217295 
L 594.56469 292.915743 
L 593.888711 290.813747 
L 593.212732 238.789357 
L 592.536753 240.365854 
L 591.860774 295.543237 
L 591.184795 296.068736 
L 590.508816 297.119734 
L 589.832837 296.594235 
L 589.156858 297.645233 
L 588.480879 296.594235 
L 587.8049 294.492239 
L 587.128921 297.645233 
L 586.452943 298.170732 
L 585.776964 266.640798 
L 585.100985 298.170732 
L 584.425006 291.864745 
L 583.749027 297.119734 
L 583.073048 295.543237 
L 582.397069 297.119734 
L 581.72109 297.119734 
L 581.045111 294.492239 
L 580.369132 296.594235 
L 579.693153 296.594235 
L 579.017174 294.492239 
L 578.341195 278.727273 
L 577.665216 298.696231 
L 576.989237 292.915743 
L 576.313259 295.017738 
L 575.63728 295.017738 
L 574.961301 296.068736 
L 574.285322 278.727273 
L 573.609343 260.86031 
L 572.933364 277.150776 
L 572.257385 290.288248 
L 571.581406 295.543237 
L 570.905427 295.543237 
L 570.229448 296.068736 
L 569.553469 292.915743 
L 568.87749 292.915743 
L 568.201511 294.492239 
L 567.525532 282.405765 
L 566.849553 261.385809 
L 566.173575 290.813747 
L 565.497596 255.079823 
L 564.821617 251.926829 
L 564.145638 288.711752 
L 563.469659 292.390244 
L 562.79368 249.299335 
L 562.117701 290.813747 
L 561.441722 285.558758 
L 560.765743 290.813747 
L 560.089764 293.966741 
L 559.413785 289.762749 
L 558.737806 294.492239 
L 558.061827 278.201774 
L 557.385848 292.915743 
L 556.709869 296.594235 
L 556.033891 296.594235 
L 555.357912 297.119734 
L 554.681933 295.543237 
L 554.005954 274.523282 
L 553.329975 262.962306 
L 552.653996 272.421286 
L 551.978017 296.068736 
L 551.302038 293.441242 
L 550.626059 290.813747 
L 549.95008 291.339246 
L 549.274101 298.170732 
L 548.598122 292.915743 
L 547.922143 296.594235 
L 547.246164 298.170732 
L 546.570185 296.068736 
L 545.894207 266.115299 
L 545.218228 266.115299 
L 544.542249 264.538803 
L 543.86627 230.906874 
L 543.190291 264.013304 
L 542.514312 298.170732 
L 541.838333 298.170732 
L 541.162354 293.966741 
L 540.486375 297.119734 
L 539.810396 274.523282 
L 539.134417 230.381375 
L 538.458438 251.926829 
L 537.782459 298.170732 
L 537.10648 297.119734 
L 536.430501 298.170732 
L 535.754523 288.711752 
L 535.078544 293.441242 
L 534.402565 290.813747 
L 533.726586 291.339246 
L 533.050607 293.441242 
L 532.374628 292.390244 
L 531.698649 293.966741 
L 531.02267 296.594235 
L 530.346691 298.170732 
L 529.670712 295.543237 
L 528.994733 297.645233 
L 528.318754 297.119734 
L 527.642775 296.594235 
L 526.966796 296.594235 
L 526.290817 297.119734 
L 525.614839 295.543237 
L 524.93886 288.186253 
L 523.586902 298.170732 
L 522.910923 297.119734 
L 522.234944 297.119734 
L 521.558965 297.119734 
L 520.882986 290.813747 
L 520.207007 298.170732 
L 519.531028 297.119734 
L 518.855049 297.119734 
L 518.17907 298.170732 
L 517.503091 298.170732 
L 516.827112 296.068736 
L 516.151134 299.221729 
L 515.475155 298.170732 
L 514.799176 288.186253 
L 514.123197 298.170732 
L 513.447218 297.119734 
L 512.771239 296.594235 
L 512.09526 295.543237 
L 511.419281 295.017738 
L 510.743302 297.645233 
L 510.067323 295.017738 
L 509.391344 297.119734 
L 508.715365 297.645233 
L 508.039386 297.119734 
L 507.363407 293.441242 
L 506.687428 297.645233 
L 506.01145 295.543237 
L 505.335471 297.119734 
L 504.659492 296.594235 
L 503.983513 295.017738 
L 503.307534 256.656319 
L 502.631555 279.252772 
L 501.955576 283.456763 
L 501.279597 293.966741 
L 500.603618 266.115299 
L 499.927639 298.170732 
L 499.25166 294.492239 
L 498.575681 297.119734 
L 497.899702 295.017738 
L 497.223723 293.966741 
L 496.547744 295.017738 
L 495.871766 295.017738 
L 495.195787 297.119734 
L 494.519808 296.594235 
L 493.843829 232.48337 
L 493.16785 173.627494 
L 492.491871 204.10643 
L 491.815892 233.008869 
L 491.139913 297.119734 
L 490.463934 294.492239 
L 489.787955 292.390244 
L 489.111976 229.855876 
L 488.435997 241.94235 
L 487.760018 292.390244 
L 487.084039 293.441242 
L 486.40806 288.711752 
L 485.732082 285.033259 
L 485.056103 228.279379 
L 484.380124 226.177384 
L 483.704145 290.813747 
L 483.028166 291.339246 
L 482.352187 287.660754 
L 481.676208 289.237251 
L 481.000229 293.966741 
L 480.32425 295.017738 
L 479.648271 285.558758 
L 478.972292 292.915743 
L 478.296313 269.268293 
L 477.620334 200.953437 
L 476.944355 234.585366 
L 476.268376 295.543237 
L 475.592398 197.274945 
L 474.916419 185.18847 
L 474.24044 294.492239 
L 473.564461 288.711752 
L 472.888482 297.119734 
L 472.212503 270.844789 
L 471.536524 298.170732 
L 470.860545 245.620843 
L 470.184566 247.722838 
L 469.508587 296.068736 
L 468.832608 298.170732 
L 468.156629 297.119734 
L 467.48065 295.543237 
L 466.804671 298.170732 
L 466.128692 294.492239 
L 465.452714 293.441242 
L 464.776735 296.068736 
L 464.100756 200.953437 
L 463.424777 208.83592 
L 462.748798 266.640798 
L 462.072819 294.492239 
L 461.39684 282.931264 
L 460.720861 266.115299 
L 460.044882 243.518847 
L 459.368903 242.993348 
L 458.692924 205.157428 
L 458.016945 234.585366 
L 457.340966 273.472284 
L 456.664987 206.208426 
L 455.989008 248.248337 
L 455.31303 280.303769 
L 454.637051 287.660754 
L 453.961072 296.594235 
L 453.285093 295.543237 
L 452.609114 293.966741 
L 451.933135 296.068736 
L 451.257156 294.492239 
L 450.581177 287.135255 
L 449.905198 255.605322 
L 449.229219 290.288248 
L 448.55324 298.170732 
L 447.877261 295.543237 
L 447.201282 293.966741 
L 446.525303 287.660754 
L 445.849324 297.645233 
L 445.173346 296.068736 
L 444.497367 296.068736 
L 443.821388 295.543237 
L 443.145409 285.033259 
L 442.46943 296.068736 
L 441.793451 273.997783 
L 441.117472 285.558758 
L 440.441493 293.966741 
L 439.765514 293.966741 
L 439.089535 296.594235 
L 438.413556 296.594235 
L 437.737577 296.594235 
L 437.061598 287.660754 
L 436.385619 256.13082 
L 435.70964 247.197339 
L 435.033662 273.472284 
L 434.357683 288.711752 
L 433.681704 291.864745 
L 433.005725 278.727273 
L 432.329746 255.605322 
L 431.653767 244.044346 
L 430.977788 248.773836 
L 430.301809 248.248337 
L 429.62583 239.840355 
L 428.949851 294.492239 
L 428.273872 291.339246 
L 427.597893 254.554324 
L 426.921914 287.660754 
L 426.245935 288.186253 
L 425.569956 253.503326 
L 424.893978 295.017738 
L 424.217999 287.135255 
L 423.54202 290.813747 
L 422.866041 248.773836 
L 422.190062 225.126386 
L 421.514083 239.314856 
L 420.838104 266.640798 
L 420.162125 285.033259 
L 419.486146 290.288248 
L 418.810167 296.068736 
L 418.134188 248.248337 
L 417.458209 266.115299 
L 416.78223 283.982262 
L 416.106251 233.008869 
L 415.430272 238.263858 
L 414.754294 265.5898 
L 414.078315 271.370288 
L 413.402336 176.780488 
L 412.726357 289.762749 
L 412.050378 262.962306 
L 411.374399 202.529933 
L 410.69842 201.478936 
L 408.670483 273.472284 
L 407.994504 236.687361 
L 407.318525 191.494457 
L 406.642546 242.467849 
L 405.966567 243.518847 
L 405.290589 286.084257 
L 404.61461 272.421286 
L 403.938631 270.844789 
L 403.262652 174.152993 
L 402.586673 222.498891 
L 401.910694 282.405765 
L 401.234715 259.809313 
L 400.558736 265.5898 
L 399.882757 182.560976 
L 399.206778 228.804878 
L 398.530799 270.31929 
L 397.85482 228.279379 
L 397.178841 219.871397 
L 396.502862 237.21286 
L 395.826883 254.028825 
L 395.150905 262.962306 
L 394.474926 217.769401 
L 393.798947 213.039911 
L 393.122968 236.687361 
L 392.446989 224.600887 
L 391.77101 212.514412 
L 391.095031 265.5898 
L 390.419052 178.882483 
L 389.743073 219.871397 
L 389.067094 232.48337 
L 388.391115 209.886918 
L 387.715136 104.78714 
L 387.039157 246.146341 
L 386.363178 265.064302 
L 385.687199 189.91796 
L 385.011221 188.341463 
L 384.335242 239.840355 
L 383.659263 168.372506 
L 382.983284 67.476718 
L 381.631326 228.279379 
L 380.955347 244.044346 
L 380.279368 204.631929 
L 379.603389 220.396896 
L 378.92741 178.882483 
L 378.251431 160.490022 
L 377.575452 189.392461 
L 376.899473 262.962306 
L 368.787726 198.851441 
L 368.111747 188.866962 
L 367.435768 256.13082 
L 366.759789 288.711752 
L 366.08381 278.201774 
L 365.407831 276.625277 
L 364.731853 273.472284 
L 364.055874 247.197339 
L 363.379895 275.04878 
L 362.703916 285.033259 
L 362.027937 288.186253 
L 361.351958 251.926829 
L 360.675979 196.749446 
L 360 142.62306 
L 359.324021 58.017738 
L 358.648042 161.54102 
L 357.972063 275.04878 
L 357.296084 275.574279 
L 356.620105 281.354767 
L 355.944126 270.844789 
L 355.268147 242.993348 
L 354.592169 272.946785 
L 353.91619 279.778271 
L 353.240211 286.609756 
L 352.564232 287.135255 
L 351.888253 289.237251 
L 351.212274 283.982262 
L 350.536295 274.523282 
L 349.860316 169.949002 
L 349.184337 167.321508 
L 348.508358 201.478936 
L 347.832379 190.443459 
L 347.1564 214.616408 
L 346.480421 279.778271 
L 345.804442 272.421286 
L 345.128463 241.416851 
L 344.452485 284.507761 
L 343.776506 273.997783 
L 343.100527 270.31929 
L 342.424548 254.554324 
L 341.748569 190.968958 
L 341.07259 198.851441 
L 340.396611 247.197339 
L 339.720632 204.631929 
L 339.044653 196.749446 
L 338.368674 180.45898 
L 337.692695 173.627494 
L 337.016716 171.525499 
L 336.340737 185.713969 
L 335.664758 144.725055 
L 334.988779 117.924612 
L 334.312801 171.525499 
L 333.636822 195.172949 
L 332.960843 190.443459 
L 332.284864 162.066519 
L 331.608885 179.933481 
L 330.932906 204.631929 
L 330.256927 149.454545 
L 329.580948 122.128603 
L 328.904969 157.337029 
L 328.22899 209.886918 
L 327.553011 210.937916 
L 326.877032 186.239468 
L 326.201053 207.259424 
L 325.525074 235.110865 
L 324.849095 292.390244 
L 324.173117 287.135255 
L 323.497138 230.906874 
L 322.821159 234.585366 
L 322.14518 288.711752 
L 321.469201 284.507761 
L 320.793222 229.855876 
L 320.117243 282.931264 
L 319.441264 289.762749 
L 318.765285 280.829268 
L 318.089306 262.962306 
L 317.413327 237.738359 
L 316.737348 291.864745 
L 316.061369 284.507761 
L 315.38539 286.609756 
L 314.709411 290.288248 
L 314.033433 213.56541 
L 313.357454 249.299335 
L 312.681475 292.390244 
L 312.005496 276.099778 
L 311.329517 272.421286 
L 310.653538 272.421286 
L 309.977559 287.660754 
L 309.30158 286.084257 
L 308.625601 291.864745 
L 307.949622 287.660754 
L 307.273643 288.186253 
L 306.597664 282.931264 
L 305.921685 291.864745 
L 305.245706 282.405765 
L 304.569728 290.813747 
L 303.893749 235.636364 
L 303.21777 258.758315 
L 302.541791 289.762749 
L 301.865812 230.381375 
L 301.189833 255.079823 
L 300.513854 288.711752 
L 299.837875 279.778271 
L 299.161896 290.288248 
L 298.485917 277.150776 
L 297.809938 256.13082 
L 297.133959 285.558758 
L 296.45798 290.813747 
L 295.782001 286.084257 
L 295.106022 284.507761 
L 294.430044 292.390244 
L 293.754065 279.778271 
L 293.078086 280.829268 
L 292.402107 271.895787 
L 291.726128 276.625277 
L 291.050149 276.099778 
L 290.37417 253.503326 
L 289.698191 275.574279 
L 289.022212 287.135255 
L 288.346233 265.5898 
L 287.670254 268.217295 
L 286.994275 213.039911 
L 286.318296 143.674058 
L 285.642317 189.392461 
L 284.966338 180.45898 
L 284.29036 292.915743 
L 283.614381 268.742794 
L 282.938402 268.217295 
L 282.262423 291.339246 
L 281.586444 291.339246 
L 280.910465 286.084257 
L 280.234486 270.31929 
L 279.558507 259.283814 
L 278.882528 261.385809 
L 278.206549 291.339246 
L 277.53057 291.864745 
L 276.854591 285.033259 
L 276.178612 251.926829 
L 275.502633 290.813747 
L 274.826654 287.660754 
L 274.150676 241.416851 
L 273.474697 261.385809 
L 272.798718 279.778271 
L 272.122739 284.507761 
L 271.44676 280.829268 
L 270.770781 267.691796 
L 270.094802 287.660754 
L 269.418823 271.895787 
L 268.742844 278.727273 
L 268.066865 285.033259 
L 267.390886 285.558758 
L 266.714907 284.507761 
L 266.038928 281.880266 
L 265.362949 222.498891 
L 264.68697 258.232816 
L 264.010992 262.436807 
L 263.335013 282.931264 
L 262.659034 278.201774 
L 261.983055 267.691796 
L 261.307076 279.778271 
L 260.631097 242.993348 
L 259.955118 264.013304 
L 259.279139 277.676275 
L 258.60316 267.166297 
L 257.927181 275.574279 
L 257.251202 280.303769 
L 256.575223 207.784922 
L 255.899244 270.31929 
L 255.223265 278.201774 
L 254.547286 272.421286 
L 253.871308 273.997783 
L 253.195329 268.742794 
L 252.51935 265.5898 
L 251.843371 250.875831 
L 251.167392 224.600887 
L 250.491413 224.600887 
L 249.815434 235.110865 
L 249.139455 276.099778 
L 248.463476 270.31929 
L 247.787497 234.059867 
L 247.111518 186.764967 
L 246.435539 176.780488 
L 245.75956 226.702882 
L 245.083581 267.166297 
L 244.407602 270.844789 
L 243.731624 285.558758 
L 243.055645 229.330377 
L 242.379666 279.778271 
L 241.703687 279.252772 
L 241.027708 252.977827 
L 240.351729 269.793792 
L 239.67575 196.749446 
L 238.999771 222.498891 
L 238.323792 209.361419 
L 237.647813 235.636364 
L 236.971834 254.554324 
L 236.295855 267.691796 
L 235.619876 267.166297 
L 234.943897 277.676275 
L 234.267918 276.099778 
L 233.59194 244.044346 
L 232.915961 195.172949 
L 231.564003 277.150776 
L 230.888024 264.538803 
L 230.212045 247.722838 
L 229.536066 240.891353 
L 228.860087 261.911308 
L 228.184108 268.217295 
L 227.508129 242.467849 
L 226.83215 268.217295 
L 226.156171 247.197339 
L 225.480192 251.926829 
L 224.804213 230.906874 
L 224.128234 233.008869 
L 223.452256 246.67184 
L 222.776277 239.840355 
L 222.100298 203.055432 
L 221.424319 83.241685 
L 220.74834 167.321508 
L 220.072361 166.796009 
L 219.396382 161.54102 
L 218.720403 150.505543 
L 218.044424 260.86031 
L 217.368445 213.56541 
L 216.692466 257.181818 
L 216.016487 272.421286 
L 215.340508 269.268293 
L 214.664529 276.625277 
L 213.98855 268.217295 
L 213.312572 280.829268 
L 212.636593 237.21286 
L 211.960614 267.691796 
L 211.284635 270.31929 
L 210.608656 283.982262 
L 209.932677 227.228381 
L 209.256698 211.988914 
L 208.580719 266.640798 
L 207.90474 191.494457 
L 207.228761 197.800443 
L 206.552782 184.137472 
L 205.876803 199.902439 
L 205.200824 214.090909 
L 204.524845 199.37694 
L 203.848866 157.337029 
L 203.172888 220.396896 
L 202.496909 256.656319 
L 201.82093 280.303769 
L 201.144951 261.911308 
L 200.468972 277.676275 
L 199.792993 262.436807 
L 199.117014 276.625277 
L 198.441035 277.150776 
L 197.765056 267.166297 
L 197.089077 265.5898 
L 196.413098 269.268293 
L 195.737119 239.840355 
L 195.06114 261.385809 
L 194.385161 261.911308 
L 193.709183 255.605322 
L 193.033204 275.04878 
L 192.357225 279.778271 
L 191.681246 265.5898 
L 191.005267 235.110865 
L 190.329288 190.968958 
L 189.653309 242.993348 
L 188.97733 178.356984 
L 188.301351 180.45898 
L 187.625372 269.793792 
L 186.949393 287.135255 
L 186.273414 142.097561 
L 185.597435 124.230599 
L 184.921456 223.02439 
L 184.245477 249.299335 
L 183.569499 277.676275 
L 182.89352 287.660754 
L 182.217541 279.778271 
L 181.541562 202.529933 
L 180.865583 277.150776 
L 180.189604 257.181818 
L 179.513625 265.064302 
L 178.837646 282.931264 
L 178.161667 279.778271 
L 177.485688 278.201774 
L 176.809709 258.758315 
L 176.13373 241.94235 
L 175.457751 285.033259 
L 174.781772 285.558758 
L 174.105793 255.605322 
L 173.429815 192.545455 
L 172.753836 209.361419 
L 171.401878 268.742794 
L 170.725899 237.21286 
L 170.04992 224.075388 
L 169.373941 282.931264 
L 168.697962 271.370288 
L 168.021983 287.135255 
L 167.346004 253.503326 
L 166.670025 292.390244 
L 165.994046 285.558758 
L 165.318067 280.303769 
L 164.642088 282.405765 
L 163.966109 286.084257 
L 163.290131 272.421286 
L 162.614152 282.405765 
L 161.938173 277.676275 
L 161.262194 256.13082 
L 160.586215 286.084257 
L 159.910236 279.252772 
L 159.234257 236.687361 
L 158.558278 232.48337 
L 157.882299 286.609756 
L 157.20632 255.605322 
L 156.530341 254.028825 
L 155.854362 234.585366 
L 155.178383 255.079823 
L 154.502404 282.931264 
L 153.826425 286.084257 
L 153.150447 286.609756 
L 152.474468 266.640798 
L 151.798489 288.186253 
L 151.12251 194.121951 
L 150.446531 41.727273 
L 149.770552 128.43459 
L 149.094573 74.308204 
L 148.418594 84.818182 
L 147.742615 160.490022 
L 147.066636 115.822616 
L 146.390657 244.044346 
L 145.714678 271.895787 
L 145.038699 293.441242 
L 144.36272 229.330377 
L 143.686741 192.019956 
L 143.010763 189.392461 
L 142.334784 194.121951 
L 141.658805 185.713969 
L 140.982826 210.937916 
L 140.306847 211.463415 
L 139.630868 210.937916 
L 138.954889 240.891353 
L 138.27891 288.186253 
L 137.602931 279.252772 
L 136.926952 286.084257 
L 136.250973 276.625277 
L 135.574994 270.844789 
L 134.899015 269.268293 
L 134.223036 250.350333 
L 133.547057 282.405765 
L 132.871079 280.829268 
L 132.1951 255.079823 
L 131.519121 271.370288 
L 130.843142 257.181818 
L 130.167163 242.993348 
L 129.491184 269.793792 
L 128.815205 236.161863 
L 128.139226 261.911308 
L 127.463247 159.439024 
L 126.787268 96.379157 
L 126.111289 186.764967 
L 125.43531 187.290466 
L 124.759331 190.968958 
L 124.083352 196.223947 
L 123.407373 166.27051 
L 122.731395 190.968958 
L 122.055416 169.423503 
L 121.379437 183.086475 
L 120.703458 182.560976 
L 120.027479 192.545455 
L 119.3515 182.560976 
L 118.675521 228.804878 
L 117.999542 278.201774 
L 117.323563 194.121951 
L 116.647584 189.91796 
L 115.971605 177.831486 
L 115.295626 179.407982 
L 114.619647 203.055432 
L 113.943668 204.631929 
L 113.267689 128.960089 
L 112.591711 155.235033 
L 111.915732 66.95122 
L 111.239753 100.583149 
L 110.563774 119.501109 
L 109.887795 143.674058 
L 109.211816 203.055432 
L 108.535837 200.953437 
L 107.859858 209.886918 
L 107.183879 265.064302 
L 106.5079 283.982262 
L 105.831921 283.456763 
L 105.155942 188.866962 
L 104.479963 115.822616 
L 103.803984 139.995565 
L 103.128005 140.521064 
L 102.452027 197.274945 
L 101.776048 205.157428 
L 101.100069 204.631929 
L 100.42409 140.521064 
L 99.748111 208.310421 
L 99.072132 265.5898 
L 98.396153 238.263858 
L 97.720174 255.605322 
L 97.044195 285.558758 
L 95.016258 284.507761 
L 94.340279 197.274945 
L 93.6643 228.804878 
L 92.988322 262.962306 
L 92.312343 280.303769 
L 91.636364 275.04878 
z
" style="fill:#ffa07a;fill-opacity:0.3;"/>
   </g>
   <g id="matplotlib.axis_1">
    <g id="xtick_1">
     <g id="line2d_1">
      <path clip-path="url(#p1cc958adf9)" d="M 91.636364 313.2 
L 91.636364 28.8 
" style="fill:none;stroke:#808080;stroke-dasharray:6.4,1.6,1,1.6;stroke-dashoffset:0;stroke-opacity:0.3;"/>
     </g>
     <g id="line2d_2">
      <defs>
       <path d="M 0 0 
L 0 3.5 
" id="m097dd0fbcd" style="stroke:#000000;stroke-width:0.8;"/>
      </defs>
      <g>
       <use style="stroke:#000000;stroke-width:0.8;" x="91.636364" xlink:href="#m097dd0fbcd" y="313.2"/>
      </g>
     </g>
     <g id="text_1">
      <!-- 2020-11-20 -->
      <g transform="translate(62.578551 327.798437)scale(0.1 -0.1)">
       <defs>
        <path d="M 19.1875 8.296875 
L 53.609375 8.296875 
L 53.609375 0 
L 7.328125 0 
L 7.328125 8.296875 
Q 12.9375 14.109375 22.625 23.890625 
Q 32.328125 33.6875 34.8125 36.53125 
Q 39.546875 41.84375 41.421875 45.53125 
Q 43.3125 49.21875 43.3125 52.78125 
Q 43.3125 58.59375 39.234375 62.25 
Q 35.15625 65.921875 28.609375 65.921875 
Q 23.96875 65.921875 18.8125 64.3125 
Q 13.671875 62.703125 7.8125 59.421875 
L 7.8125 69.390625 
Q 13.765625 71.78125 18.9375 73 
Q 24.125 74.21875 28.421875 74.21875 
Q 39.75 74.21875 46.484375 68.546875 
Q 53.21875 62.890625 53.21875 53.421875 
Q 53.21875 48.921875 51.53125 44.890625 
Q 49.859375 40.875 45.40625 35.40625 
Q 44.1875 33.984375 37.640625 27.21875 
Q 31.109375 20.453125 19.1875 8.296875 
z
" id="DejaVuSans-50"/>
        <path d="M 31.78125 66.40625 
Q 24.171875 66.40625 20.328125 58.90625 
Q 16.5 51.421875 16.5 36.375 
Q 16.5 21.390625 20.328125 13.890625 
Q 24.171875 6.390625 31.78125 6.390625 
Q 39.453125 6.390625 43.28125 13.890625 
Q 47.125 21.390625 47.125 36.375 
Q 47.125 51.421875 43.28125 58.90625 
Q 39.453125 66.40625 31.78125 66.40625 
z
M 31.78125 74.21875 
Q 44.046875 74.21875 50.515625 64.515625 
Q 56.984375 54.828125 56.984375 36.375 
Q 56.984375 17.96875 50.515625 8.265625 
Q 44.046875 -1.421875 31.78125 -1.421875 
Q 19.53125 -1.421875 13.0625 8.265625 
Q 6.59375 17.96875 6.59375 36.375 
Q 6.59375 54.828125 13.0625 64.515625 
Q 19.53125 74.21875 31.78125 74.21875 
z
" id="DejaVuSans-48"/>
        <path d="M 4.890625 31.390625 
L 31.203125 31.390625 
L 31.203125 23.390625 
L 4.890625 23.390625 
z
" id="DejaVuSans-45"/>
        <path d="M 12.40625 8.296875 
L 28.515625 8.296875 
L 28.515625 63.921875 
L 10.984375 60.40625 
L 10.984375 69.390625 
L 28.421875 72.90625 
L 38.28125 72.90625 
L 38.28125 8.296875 
L 54.390625 8.296875 
L 54.390625 0 
L 12.40625 0 
z
" id="DejaVuSans-49"/>
       </defs>
       <use xlink:href="#DejaVuSans-50"/>
       <use x="63.623047" xlink:href="#DejaVuSans-48"/>
       <use x="127.246094" xlink:href="#DejaVuSans-50"/>
       <use x="190.869141" xlink:href="#DejaVuSans-48"/>
       <use x="254.492188" xlink:href="#DejaVuSans-45"/>
       <use x="290.576172" xlink:href="#DejaVuSans-49"/>
       <use x="354.199219" xlink:href="#DejaVuSans-49"/>
       <use x="417.822266" xlink:href="#DejaVuSans-45"/>
       <use x="453.90625" xlink:href="#DejaVuSans-50"/>
       <use x="517.529297" xlink:href="#DejaVuSans-48"/>
      </g>
     </g>
    </g>
    <g id="xtick_2">
     <g id="line2d_3">
      <path clip-path="url(#p1cc958adf9)" d="M 168.021983 313.2 
L 168.021983 28.8 
" style="fill:none;stroke:#808080;stroke-dasharray:6.4,1.6,1,1.6;stroke-dashoffset:0;stroke-opacity:0.3;"/>
     </g>
     <g id="line2d_4">
      <g>
       <use style="stroke:#000000;stroke-width:0.8;" x="168.021983" xlink:href="#m097dd0fbcd" y="313.2"/>
      </g>
     </g>
     <g id="text_2">
      <!-- 2021-03-13 -->
      <g transform="translate(138.964171 327.798437)scale(0.1 -0.1)">
       <defs>
        <path d="M 40.578125 39.3125 
Q 47.65625 37.796875 51.625 33 
Q 55.609375 28.21875 55.609375 21.1875 
Q 55.609375 10.40625 48.1875 4.484375 
Q 40.765625 -1.421875 27.09375 -1.421875 
Q 22.515625 -1.421875 17.65625 -0.515625 
Q 12.796875 0.390625 7.625 2.203125 
L 7.625 11.71875 
Q 11.71875 9.328125 16.59375 8.109375 
Q 21.484375 6.890625 26.8125 6.890625 
Q 36.078125 6.890625 40.9375 10.546875 
Q 45.796875 14.203125 45.796875 21.1875 
Q 45.796875 27.640625 41.28125 31.265625 
Q 36.765625 34.90625 28.71875 34.90625 
L 20.21875 34.90625 
L 20.21875 43.015625 
L 29.109375 43.015625 
Q 36.375 43.015625 40.234375 45.921875 
Q 44.09375 48.828125 44.09375 54.296875 
Q 44.09375 59.90625 40.109375 62.90625 
Q 36.140625 65.921875 28.71875 65.921875 
Q 24.65625 65.921875 20.015625 65.03125 
Q 15.375 64.15625 9.8125 62.3125 
L 9.8125 71.09375 
Q 15.4375 72.65625 20.34375 73.4375 
Q 25.25 74.21875 29.59375 74.21875 
Q 40.828125 74.21875 47.359375 69.109375 
Q 53.90625 64.015625 53.90625 55.328125 
Q 53.90625 49.265625 50.4375 45.09375 
Q 46.96875 40.921875 40.578125 39.3125 
z
" id="DejaVuSans-51"/>
       </defs>
       <use xlink:href="#DejaVuSans-50"/>
       <use x="63.623047" xlink:href="#DejaVuSans-48"/>
       <use x="127.246094" xlink:href="#DejaVuSans-50"/>
       <use x="190.869141" xlink:href="#DejaVuSans-49"/>
       <use x="254.492188" xlink:href="#DejaVuSans-45"/>
       <use x="290.576172" xlink:href="#DejaVuSans-48"/>
       <use x="354.199219" xlink:href="#DejaVuSans-51"/>
       <use x="417.822266" xlink:href="#DejaVuSans-45"/>
       <use x="453.90625" xlink:href="#DejaVuSans-49"/>
       <use x="517.529297" xlink:href="#DejaVuSans-51"/>
      </g>
     </g>
    </g>
    <g id="xtick_3">
     <g id="line2d_5">
      <path clip-path="url(#p1cc958adf9)" d="M 244.407602 313.2 
L 244.407602 28.8 
" style="fill:none;stroke:#808080;stroke-dasharray:6.4,1.6,1,1.6;stroke-dashoffset:0;stroke-opacity:0.3;"/>
     </g>
     <g id="line2d_6">
      <g>
       <use style="stroke:#000000;stroke-width:0.8;" x="244.407602" xlink:href="#m097dd0fbcd" y="313.2"/>
      </g>
     </g>
     <g id="text_3">
      <!-- 2021-07-04 -->
      <g transform="translate(215.34979 327.798437)scale(0.1 -0.1)">
       <defs>
        <path d="M 8.203125 72.90625 
L 55.078125 72.90625 
L 55.078125 68.703125 
L 28.609375 0 
L 18.3125 0 
L 43.21875 64.59375 
L 8.203125 64.59375 
z
" id="DejaVuSans-55"/>
        <path d="M 37.796875 64.3125 
L 12.890625 25.390625 
L 37.796875 25.390625 
z
M 35.203125 72.90625 
L 47.609375 72.90625 
L 47.609375 25.390625 
L 58.015625 25.390625 
L 58.015625 17.1875 
L 47.609375 17.1875 
L 47.609375 0 
L 37.796875 0 
L 37.796875 17.1875 
L 4.890625 17.1875 
L 4.890625 26.703125 
z
" id="DejaVuSans-52"/>
       </defs>
       <use xlink:href="#DejaVuSans-50"/>
       <use x="63.623047" xlink:href="#DejaVuSans-48"/>
       <use x="127.246094" xlink:href="#DejaVuSans-50"/>
       <use x="190.869141" xlink:href="#DejaVuSans-49"/>
       <use x="254.492188" xlink:href="#DejaVuSans-45"/>
       <use x="290.576172" xlink:href="#DejaVuSans-48"/>
       <use x="354.199219" xlink:href="#DejaVuSans-55"/>
       <use x="417.822266" xlink:href="#DejaVuSans-45"/>
       <use x="453.90625" xlink:href="#DejaVuSans-48"/>
       <use x="517.529297" xlink:href="#DejaVuSans-52"/>
      </g>
     </g>
    </g>
    <g id="xtick_4">
     <g id="line2d_7">
      <path clip-path="url(#p1cc958adf9)" d="M 321.469201 313.2 
L 321.469201 28.8 
" style="fill:none;stroke:#808080;stroke-dasharray:6.4,1.6,1,1.6;stroke-dashoffset:0;stroke-opacity:0.3;"/>
     </g>
     <g id="line2d_8">
      <g>
       <use style="stroke:#000000;stroke-width:0.8;" x="321.469201" xlink:href="#m097dd0fbcd" y="313.2"/>
      </g>
     </g>
     <g id="text_4">
      <!-- 2021-10-26 -->
      <g transform="translate(292.411388 327.798437)scale(0.1 -0.1)">
       <defs>
        <path d="M 33.015625 40.375 
Q 26.375 40.375 22.484375 35.828125 
Q 18.609375 31.296875 18.609375 23.390625 
Q 18.609375 15.53125 22.484375 10.953125 
Q 26.375 6.390625 33.015625 6.390625 
Q 39.65625 6.390625 43.53125 10.953125 
Q 47.40625 15.53125 47.40625 23.390625 
Q 47.40625 31.296875 43.53125 35.828125 
Q 39.65625 40.375 33.015625 40.375 
z
M 52.59375 71.296875 
L 52.59375 62.3125 
Q 48.875 64.0625 45.09375 64.984375 
Q 41.3125 65.921875 37.59375 65.921875 
Q 27.828125 65.921875 22.671875 59.328125 
Q 17.53125 52.734375 16.796875 39.40625 
Q 19.671875 43.65625 24.015625 45.921875 
Q 28.375 48.1875 33.59375 48.1875 
Q 44.578125 48.1875 50.953125 41.515625 
Q 57.328125 34.859375 57.328125 23.390625 
Q 57.328125 12.15625 50.6875 5.359375 
Q 44.046875 -1.421875 33.015625 -1.421875 
Q 20.359375 -1.421875 13.671875 8.265625 
Q 6.984375 17.96875 6.984375 36.375 
Q 6.984375 53.65625 15.1875 63.9375 
Q 23.390625 74.21875 37.203125 74.21875 
Q 40.921875 74.21875 44.703125 73.484375 
Q 48.484375 72.75 52.59375 71.296875 
z
" id="DejaVuSans-54"/>
       </defs>
       <use xlink:href="#DejaVuSans-50"/>
       <use x="63.623047" xlink:href="#DejaVuSans-48"/>
       <use x="127.246094" xlink:href="#DejaVuSans-50"/>
       <use x="190.869141" xlink:href="#DejaVuSans-49"/>
       <use x="254.492188" xlink:href="#DejaVuSans-45"/>
       <use x="290.576172" xlink:href="#DejaVuSans-49"/>
       <use x="354.199219" xlink:href="#DejaVuSans-48"/>
       <use x="417.822266" xlink:href="#DejaVuSans-45"/>
       <use x="453.90625" xlink:href="#DejaVuSans-50"/>
       <use x="517.529297" xlink:href="#DejaVuSans-54"/>
      </g>
     </g>
    </g>
    <g id="xtick_5">
     <g id="line2d_9">
      <path clip-path="url(#p1cc958adf9)" d="M 397.85482 313.2 
L 397.85482 28.8 
" style="fill:none;stroke:#808080;stroke-dasharray:6.4,1.6,1,1.6;stroke-dashoffset:0;stroke-opacity:0.3;"/>
     </g>
     <g id="line2d_10">
      <g>
       <use style="stroke:#000000;stroke-width:0.8;" x="397.85482" xlink:href="#m097dd0fbcd" y="313.2"/>
      </g>
     </g>
     <g id="text_5">
      <!-- 2022-02-16 -->
      <g transform="translate(368.797008 327.798437)scale(0.1 -0.1)">
       <use xlink:href="#DejaVuSans-50"/>
       <use x="63.623047" xlink:href="#DejaVuSans-48"/>
       <use x="127.246094" xlink:href="#DejaVuSans-50"/>
       <use x="190.869141" xlink:href="#DejaVuSans-50"/>
       <use x="254.492188" xlink:href="#DejaVuSans-45"/>
       <use x="290.576172" xlink:href="#DejaVuSans-48"/>
       <use x="354.199219" xlink:href="#DejaVuSans-50"/>
       <use x="417.822266" xlink:href="#DejaVuSans-45"/>
       <use x="453.90625" xlink:href="#DejaVuSans-49"/>
       <use x="517.529297" xlink:href="#DejaVuSans-54"/>
      </g>
     </g>
    </g>
    <g id="xtick_6">
     <g id="line2d_11">
      <path clip-path="url(#p1cc958adf9)" d="M 474.916419 313.2 
L 474.916419 28.8 
" style="fill:none;stroke:#808080;stroke-dasharray:6.4,1.6,1,1.6;stroke-dashoffset:0;stroke-opacity:0.3;"/>
     </g>
     <g id="line2d_12">
      <g>
       <use style="stroke:#000000;stroke-width:0.8;" x="474.916419" xlink:href="#m097dd0fbcd" y="313.2"/>
      </g>
     </g>
     <g id="text_6">
      <!-- 2022-06-10 -->
      <g transform="translate(445.858606 327.798437)scale(0.1 -0.1)">
       <use xlink:href="#DejaVuSans-50"/>
       <use x="63.623047" xlink:href="#DejaVuSans-48"/>
       <use x="127.246094" xlink:href="#DejaVuSans-50"/>
       <use x="190.869141" xlink:href="#DejaVuSans-50"/>
       <use x="254.492188" xlink:href="#DejaVuSans-45"/>
       <use x="290.576172" xlink:href="#DejaVuSans-48"/>
       <use x="354.199219" xlink:href="#DejaVuSans-54"/>
       <use x="417.822266" xlink:href="#DejaVuSans-45"/>
       <use x="453.90625" xlink:href="#DejaVuSans-49"/>
       <use x="517.529297" xlink:href="#DejaVuSans-48"/>
      </g>
     </g>
    </g>
    <g id="xtick_7">
     <g id="line2d_13">
      <path clip-path="url(#p1cc958adf9)" d="M 551.302038 313.2 
L 551.302038 28.8 
" style="fill:none;stroke:#808080;stroke-dasharray:6.4,1.6,1,1.6;stroke-dashoffset:0;stroke-opacity:0.3;"/>
     </g>
     <g id="line2d_14">
      <g>
       <use style="stroke:#000000;stroke-width:0.8;" x="551.302038" xlink:href="#m097dd0fbcd" y="313.2"/>
      </g>
     </g>
     <g id="text_7">
      <!-- 2022-10-01 -->
      <g transform="translate(522.244226 327.798437)scale(0.1 -0.1)">
       <use xlink:href="#DejaVuSans-50"/>
       <use x="63.623047" xlink:href="#DejaVuSans-48"/>
       <use x="127.246094" xlink:href="#DejaVuSans-50"/>
       <use x="190.869141" xlink:href="#DejaVuSans-50"/>
       <use x="254.492188" xlink:href="#DejaVuSans-45"/>
       <use x="290.576172" xlink:href="#DejaVuSans-49"/>
       <use x="354.199219" xlink:href="#DejaVuSans-48"/>
       <use x="417.822266" xlink:href="#DejaVuSans-45"/>
       <use x="453.90625" xlink:href="#DejaVuSans-48"/>
       <use x="517.529297" xlink:href="#DejaVuSans-49"/>
      </g>
     </g>
    </g>
    <g id="xtick_8">
     <g id="line2d_15">
      <path clip-path="url(#p1cc958adf9)" d="M 628.363636 313.2 
L 628.363636 28.8 
" style="fill:none;stroke:#808080;stroke-dasharray:6.4,1.6,1,1.6;stroke-dashoffset:0;stroke-opacity:0.3;"/>
     </g>
     <g id="line2d_16">
      <g>
       <use style="stroke:#000000;stroke-width:0.8;" x="628.363636" xlink:href="#m097dd0fbcd" y="313.2"/>
      </g>
     </g>
     <g id="text_8">
      <!-- 2023-01-23 -->
      <g transform="translate(599.305824 327.798437)scale(0.1 -0.1)">
       <use xlink:href="#DejaVuSans-50"/>
       <use x="63.623047" xlink:href="#DejaVuSans-48"/>
       <use x="127.246094" xlink:href="#DejaVuSans-50"/>
       <use x="190.869141" xlink:href="#DejaVuSans-51"/>
       <use x="254.492188" xlink:href="#DejaVuSans-45"/>
       <use x="290.576172" xlink:href="#DejaVuSans-48"/>
       <use x="354.199219" xlink:href="#DejaVuSans-49"/>
       <use x="417.822266" xlink:href="#DejaVuSans-45"/>
       <use x="453.90625" xlink:href="#DejaVuSans-50"/>
       <use x="517.529297" xlink:href="#DejaVuSans-51"/>
      </g>
     </g>
    </g>
    <g id="text_9">
     <!-- Datum -->
     <g transform="translate(343.086719 341.476562)scale(0.1 -0.1)">
      <defs>
       <path d="M 19.671875 64.796875 
L 19.671875 8.109375 
L 31.59375 8.109375 
Q 46.6875 8.109375 53.6875 14.9375 
Q 60.6875 21.78125 60.6875 36.53125 
Q 60.6875 51.171875 53.6875 57.984375 
Q 46.6875 64.796875 31.59375 64.796875 
z
M 9.8125 72.90625 
L 30.078125 72.90625 
Q 51.265625 72.90625 61.171875 64.09375 
Q 71.09375 55.28125 71.09375 36.53125 
Q 71.09375 17.671875 61.125 8.828125 
Q 51.171875 0 30.078125 0 
L 9.8125 0 
z
" id="DejaVuSans-68"/>
       <path d="M 34.28125 27.484375 
Q 23.390625 27.484375 19.1875 25 
Q 14.984375 22.515625 14.984375 16.5 
Q 14.984375 11.71875 18.140625 8.90625 
Q 21.296875 6.109375 26.703125 6.109375 
Q 34.1875 6.109375 38.703125 11.40625 
Q 43.21875 16.703125 43.21875 25.484375 
L 43.21875 27.484375 
z
M 52.203125 31.203125 
L 52.203125 0 
L 43.21875 0 
L 43.21875 8.296875 
Q 40.140625 3.328125 35.546875 0.953125 
Q 30.953125 -1.421875 24.3125 -1.421875 
Q 15.921875 -1.421875 10.953125 3.296875 
Q 6 8.015625 6 15.921875 
Q 6 25.140625 12.171875 29.828125 
Q 18.359375 34.515625 30.609375 34.515625 
L 43.21875 34.515625 
L 43.21875 35.40625 
Q 43.21875 41.609375 39.140625 45 
Q 35.0625 48.390625 27.6875 48.390625 
Q 23 48.390625 18.546875 47.265625 
Q 14.109375 46.140625 10.015625 43.890625 
L 10.015625 52.203125 
Q 14.9375 54.109375 19.578125 55.046875 
Q 24.21875 56 28.609375 56 
Q 40.484375 56 46.34375 49.84375 
Q 52.203125 43.703125 52.203125 31.203125 
z
" id="DejaVuSans-97"/>
       <path d="M 18.3125 70.21875 
L 18.3125 54.6875 
L 36.8125 54.6875 
L 36.8125 47.703125 
L 18.3125 47.703125 
L 18.3125 18.015625 
Q 18.3125 11.328125 20.140625 9.421875 
Q 21.96875 7.515625 27.59375 7.515625 
L 36.8125 7.515625 
L 36.8125 0 
L 27.59375 0 
Q 17.1875 0 13.234375 3.875 
Q 9.28125 7.765625 9.28125 18.015625 
L 9.28125 47.703125 
L 2.6875 47.703125 
L 2.6875 54.6875 
L 9.28125 54.6875 
L 9.28125 70.21875 
z
" id="DejaVuSans-116"/>
       <path d="M 8.5 21.578125 
L 8.5 54.6875 
L 17.484375 54.6875 
L 17.484375 21.921875 
Q 17.484375 14.15625 20.5 10.265625 
Q 23.53125 6.390625 29.59375 6.390625 
Q 36.859375 6.390625 41.078125 11.03125 
Q 45.3125 15.671875 45.3125 23.6875 
L 45.3125 54.6875 
L 54.296875 54.6875 
L 54.296875 0 
L 45.3125 0 
L 45.3125 8.40625 
Q 42.046875 3.421875 37.71875 1 
Q 33.40625 -1.421875 27.6875 -1.421875 
Q 18.265625 -1.421875 13.375 4.4375 
Q 8.5 10.296875 8.5 21.578125 
z
M 31.109375 56 
z
" id="DejaVuSans-117"/>
       <path d="M 52 44.1875 
Q 55.375 50.25 60.0625 53.125 
Q 64.75 56 71.09375 56 
Q 79.640625 56 84.28125 50.015625 
Q 88.921875 44.046875 88.921875 33.015625 
L 88.921875 0 
L 79.890625 0 
L 79.890625 32.71875 
Q 79.890625 40.578125 77.09375 44.375 
Q 74.3125 48.1875 68.609375 48.1875 
Q 61.625 48.1875 57.5625 43.546875 
Q 53.515625 38.921875 53.515625 30.90625 
L 53.515625 0 
L 44.484375 0 
L 44.484375 32.71875 
Q 44.484375 40.625 41.703125 44.40625 
Q 38.921875 48.1875 33.109375 48.1875 
Q 26.21875 48.1875 22.15625 43.53125 
Q 18.109375 38.875 18.109375 30.90625 
L 18.109375 0 
L 9.078125 0 
L 9.078125 54.6875 
L 18.109375 54.6875 
L 18.109375 46.1875 
Q 21.1875 51.21875 25.484375 53.609375 
Q 29.78125 56 35.6875 56 
Q 41.65625 56 45.828125 52.96875 
Q 50 49.953125 52 44.1875 
z
" id="DejaVuSans-109"/>
      </defs>
      <use xlink:href="#DejaVuSans-68"/>
      <use x="77.001953" xlink:href="#DejaVuSans-97"/>
      <use x="138.28125" xlink:href="#DejaVuSans-116"/>
      <use x="177.490234" xlink:href="#DejaVuSans-117"/>
      <use x="240.869141" xlink:href="#DejaVuSans-109"/>
     </g>
    </g>
   </g>
   <g id="matplotlib.axis_2">
    <g id="ytick_1">
     <g id="line2d_17">
      <path clip-path="url(#p1cc958adf9)" d="M 64.8 300.272727 
L 655.2 300.272727 
" style="fill:none;stroke:#808080;stroke-dasharray:6.4,1.6,1,1.6;stroke-dashoffset:0;stroke-opacity:0.3;"/>
     </g>
     <g id="line2d_18">
      <defs>
       <path d="M 0 0 
L -3.5 0 
" id="m26c41de8e0" style="stroke:#000000;stroke-width:0.8;"/>
      </defs>
      <g>
       <use style="stroke:#000000;stroke-width:0.8;" x="64.8" xlink:href="#m26c41de8e0" y="300.272727"/>
      </g>
     </g>
     <g id="text_10">
      <!-- 0 -->
      <g transform="translate(51.4375 304.071946)scale(0.1 -0.1)">
       <use xlink:href="#DejaVuSans-48"/>
      </g>
     </g>
    </g>
    <g id="ytick_2">
     <g id="line2d_19">
      <path clip-path="url(#p1cc958adf9)" d="M 64.8 237.21286 
L 655.2 237.21286 
" style="fill:none;stroke:#808080;stroke-dasharray:6.4,1.6,1,1.6;stroke-dashoffset:0;stroke-opacity:0.3;"/>
     </g>
     <g id="line2d_20">
      <g>
       <use style="stroke:#000000;stroke-width:0.8;" x="64.8" xlink:href="#m26c41de8e0" y="237.21286"/>
      </g>
     </g>
     <g id="text_11">
      <!-- 5 -->
      <g transform="translate(51.4375 241.012079)scale(0.1 -0.1)">
       <defs>
        <path d="M 10.796875 72.90625 
L 49.515625 72.90625 
L 49.515625 64.59375 
L 19.828125 64.59375 
L 19.828125 46.734375 
Q 21.96875 47.46875 24.109375 47.828125 
Q 26.265625 48.1875 28.421875 48.1875 
Q 40.625 48.1875 47.75 41.5 
Q 54.890625 34.8125 54.890625 23.390625 
Q 54.890625 11.625 47.5625 5.09375 
Q 40.234375 -1.421875 26.90625 -1.421875 
Q 22.3125 -1.421875 17.546875 -0.640625 
Q 12.796875 0.140625 7.71875 1.703125 
L 7.71875 11.625 
Q 12.109375 9.234375 16.796875 8.0625 
Q 21.484375 6.890625 26.703125 6.890625 
Q 35.15625 6.890625 40.078125 11.328125 
Q 45.015625 15.765625 45.015625 23.390625 
Q 45.015625 31 40.078125 35.4375 
Q 35.15625 39.890625 26.703125 39.890625 
Q 22.75 39.890625 18.8125 39.015625 
Q 14.890625 38.140625 10.796875 36.28125 
z
" id="DejaVuSans-53"/>
       </defs>
       <use xlink:href="#DejaVuSans-53"/>
      </g>
     </g>
    </g>
    <g id="ytick_3">
     <g id="line2d_21">
      <path clip-path="url(#p1cc958adf9)" d="M 64.8 174.152993 
L 655.2 174.152993 
" style="fill:none;stroke:#808080;stroke-dasharray:6.4,1.6,1,1.6;stroke-dashoffset:0;stroke-opacity:0.3;"/>
     </g>
     <g id="line2d_22">
      <g>
       <use style="stroke:#000000;stroke-width:0.8;" x="64.8" xlink:href="#m26c41de8e0" y="174.152993"/>
      </g>
     </g>
     <g id="text_12">
      <!-- 10 -->
      <g transform="translate(45.075 177.952212)scale(0.1 -0.1)">
       <use xlink:href="#DejaVuSans-49"/>
       <use x="63.623047" xlink:href="#DejaVuSans-48"/>
      </g>
     </g>
    </g>
    <g id="ytick_4">
     <g id="line2d_23">
      <path clip-path="url(#p1cc958adf9)" d="M 64.8 111.093126 
L 655.2 111.093126 
" style="fill:none;stroke:#808080;stroke-dasharray:6.4,1.6,1,1.6;stroke-dashoffset:0;stroke-opacity:0.3;"/>
     </g>
     <g id="line2d_24">
      <g>
       <use style="stroke:#000000;stroke-width:0.8;" x="64.8" xlink:href="#m26c41de8e0" y="111.093126"/>
      </g>
     </g>
     <g id="text_13">
      <!-- 15 -->
      <g transform="translate(45.075 114.892345)scale(0.1 -0.1)">
       <use xlink:href="#DejaVuSans-49"/>
       <use x="63.623047" xlink:href="#DejaVuSans-53"/>
      </g>
     </g>
    </g>
    <g id="ytick_5">
     <g id="line2d_25">
      <path clip-path="url(#p1cc958adf9)" d="M 64.8 48.033259 
L 655.2 48.033259 
" style="fill:none;stroke:#808080;stroke-dasharray:6.4,1.6,1,1.6;stroke-dashoffset:0;stroke-opacity:0.3;"/>
     </g>
     <g id="line2d_26">
      <g>
       <use style="stroke:#000000;stroke-width:0.8;" x="64.8" xlink:href="#m26c41de8e0" y="48.033259"/>
      </g>
     </g>
     <g id="text_14">
      <!-- 20 -->
      <g transform="translate(45.075 51.832478)scale(0.1 -0.1)">
       <use xlink:href="#DejaVuSans-50"/>
       <use x="63.623047" xlink:href="#DejaVuSans-48"/>
      </g>
     </g>
    </g>
   </g>
   <g id="line2d_27">
    <path clip-path="url(#p1cc958adf9)" d="M 91.636364 280.090993 
L 95.016258 246.739249 
L 97.044195 240.0689 
L 98.396153 228.336238 
L 100.42409 214.491807 
L 103.803984 197.940369 
L 104.479963 195.418596 
L 105.155942 193.456527 
L 105.831921 192.153662 
L 106.5079 190.387489 
L 107.183879 187.834621 
L 109.211816 178.577756 
L 109.887795 175.639316 
L 110.563774 173.565305 
L 111.239753 172.371272 
L 111.915732 172.293536 
L 113.267689 174.451502 
L 115.295626 178.195293 
L 115.971605 180.275522 
L 117.999542 188.500046 
L 118.675521 189.753159 
L 120.703458 190.676669 
L 121.379437 190.658012 
L 122.055416 190.829032 
L 122.731395 191.279904 
L 123.407373 192.287369 
L 124.083352 194.037996 
L 124.759331 196.189743 
L 126.111289 201.808539 
L 126.787268 205.343996 
L 127.463247 210.987667 
L 129.491184 230.574161 
L 130.843142 242.228421 
L 131.519121 247.07918 
L 132.1951 251.099713 
L 132.871079 254.333552 
L 133.547057 256.503956 
L 134.223036 257.610924 
L 134.899015 257.984059 
L 135.574994 257.411918 
L 136.250973 255.561789 
L 137.602931 250.446726 
L 138.27891 247.312389 
L 139.630868 238.322938 
L 140.982826 227.46781 
L 143.010763 209.76254 
L 143.686741 205.057925 
L 145.038699 198.030544 
L 146.390657 191.450924 
L 147.066636 188.509374 
L 147.742615 187.290466 
L 148.418594 187.100789 
L 149.094573 188.667957 
L 149.770552 192.302917 
L 150.446531 197.041735 
L 153.150447 223.83285 
L 156.530341 252.132054 
L 157.20632 257.082315 
L 157.882299 261.199242 
L 158.558278 264.09415 
L 159.234257 266.497763 
L 159.910236 268.046275 
L 161.938173 270.90076 
L 163.290131 272.197405 
L 163.966109 272.505241 
L 164.642088 272.076136 
L 165.994046 270.210459 
L 166.670025 269.035083 
L 168.021983 265.925622 
L 170.04992 260.278841 
L 170.725899 258.873365 
L 171.401878 257.825477 
L 173.429815 256.323607 
L 174.105793 256.808683 
L 175.457751 258.397617 
L 176.13373 258.944883 
L 176.809709 259.678715 
L 177.485688 259.585431 
L 179.513625 256.957937 
L 180.189604 255.285047 
L 181.541562 250.518243 
L 182.217541 247.980923 
L 183.569499 241.025059 
L 184.921456 234.230887 
L 185.597435 231.320432 
L 186.273414 230.020677 
L 186.949393 230.232121 
L 188.301351 230.082866 
L 188.97733 231.049909 
L 189.653309 233.008869 
L 190.329288 235.372059 
L 191.681246 241.674937 
L 193.709183 252.017004 
L 194.385161 255.157559 
L 195.06114 257.237788 
L 196.413098 258.795628 
L 197.089077 259.271376 
L 197.765056 258.854708 
L 198.441035 257.421247 
L 199.117014 255.316142 
L 200.468972 248.947966 
L 203.848866 230.633241 
L 204.524845 228.500151 
L 205.200824 227.088456 
L 205.876803 226.323528 
L 206.552782 226.401265 
L 207.228761 227.474029 
L 207.90474 229.457865 
L 210.608656 241.053045 
L 211.284635 243.2732 
L 211.960614 244.799945 
L 212.636593 245.452932 
L 213.312572 244.722208 
L 213.98855 243.049318 
L 214.664529 240.888243 
L 215.340508 238.095947 
L 216.016487 234.585366 
L 219.396382 213.963421 
L 220.072361 211.967147 
L 220.74834 211.14625 
L 221.424319 211.354584 
L 222.100298 213.447251 
L 223.452256 219.669282 
L 224.804213 226.304871 
L 228.184108 246.084152 
L 228.860087 248.814259 
L 229.536066 250.670607 
L 230.212045 251.9828 
L 230.888024 252.020113 
L 232.915961 251.065509 
L 233.59194 251.208544 
L 234.267918 251.497724 
L 235.619876 250.88205 
L 236.971834 249.967869 
L 239.67575 247.259528 
L 241.703687 248.036894 
L 242.379666 247.502066 
L 243.055645 246.429302 
L 243.731624 245.760768 
L 245.75956 243.235886 
L 246.435539 242.847203 
L 247.111518 243.406906 
L 248.463476 245.558653 
L 249.815434 246.693607 
L 250.491413 247.53627 
L 251.167392 249.016374 
L 255.223265 260.972251 
L 255.899244 262.12897 
L 256.575223 262.719768 
L 259.279139 265.934951 
L 259.955118 266.423136 
L 260.631097 266.765177 
L 263.335013 268.895157 
L 264.010992 269.361577 
L 265.362949 270.776381 
L 267.390886 273.142681 
L 269.418823 274.482859 
L 270.094802 274.852884 
L 271.44676 275.138955 
L 274.150676 275.390821 
L 274.826654 275.602265 
L 276.178612 275.707986 
L 276.854591 275.524528 
L 277.53057 274.775148 
L 278.206549 273.071163 
L 279.558507 268.702371 
L 282.262423 260.754589 
L 284.966338 250.729687 
L 285.642317 249.20916 
L 286.318296 248.86401 
L 286.994275 250.229064 
L 290.37417 261.653223 
L 293.754065 275.027014 
L 294.430044 276.951771 
L 295.106022 278.068067 
L 295.782001 278.061848 
L 296.45798 277.651399 
L 297.809938 276.382739 
L 299.837875 275.263333 
L 301.865812 274.000892 
L 302.541791 274.293181 
L 303.21777 274.423779 
L 303.893749 274.855994 
L 304.569728 275.913211 
L 305.245706 276.696795 
L 306.597664 277.502145 
L 307.949622 277.900156 
L 308.625601 278.096052 
L 309.30158 277.900156 
L 309.977559 277.582991 
L 310.653538 277.032617 
L 311.329517 276.336097 
L 312.005496 275.804379 
L 312.681475 274.896417 
L 313.357454 273.605991 
L 314.033433 272.794421 
L 314.709411 272.51457 
L 316.737348 270.679988 
L 318.765285 267.84416 
L 319.441264 266.360947 
L 320.117243 264.302484 
L 321.469201 258.21105 
L 322.14518 254.23094 
L 323.497138 244.361511 
L 324.849095 233.357129 
L 329.580948 189.448431 
L 330.256927 185.18847 
L 331.608885 179.324027 
L 332.284864 177.361957 
L 332.960843 176.024889 
L 333.636822 175.263071 
L 334.312801 175.427872 
L 334.988779 176.553497 
L 335.664758 179.13124 
L 337.016716 186.911111 
L 338.368674 197.349572 
L 340.396611 212.722746 
L 343.100527 228.904381 
L 343.776506 232.492699 
L 344.452485 235.235243 
L 345.804442 238.988362 
L 346.480421 240.219709 
L 347.1564 240.605282 
L 347.832379 241.121453 
L 348.508358 242.212873 
L 349.184337 243.761385 
L 350.536295 249.199832 
L 351.212274 250.204188 
L 351.888253 250.197969 
L 352.564232 249.532544 
L 353.91619 247.626445 
L 355.268147 245.334772 
L 355.944126 244.436138 
L 356.620105 243.220339 
L 357.296084 241.438618 
L 357.972063 239.23401 
L 358.648042 236.472809 
L 359.324021 234.321062 
L 360 234.224668 
L 360.675979 235.297432 
L 362.027937 239.159383 
L 362.703916 240.244585 
L 363.379895 240.670581 
L 364.055874 240.760755 
L 364.731853 240.574188 
L 365.407831 240.197943 
L 366.08381 239.563613 
L 366.759789 237.666842 
L 367.435768 234.977158 
L 368.111747 231.631378 
L 368.787726 227.508233 
L 376.899473 222.999515 
L 378.251431 213.929217 
L 378.92741 210.172988 
L 380.279368 204.678571 
L 381.631326 200.051693 
L 382.983284 198.139375 
L 383.659263 198.332161 
L 385.011221 200.885029 
L 386.363178 204.031803 
L 387.715136 207.057309 
L 392.446989 224.106483 
L 393.798947 227.934229 
L 394.474926 229.902518 
L 397.178841 235.891339 
L 398.530799 238.506396 
L 399.206778 239.103413 
L 399.882757 239.451672 
L 400.558736 240.829163 
L 401.234715 241.513245 
L 401.910694 241.650061 
L 402.586673 241.401304 
L 403.262652 241.494588 
L 404.61461 242.184888 
L 405.290589 242.359018 
L 405.966567 241.961007 
L 406.642546 241.360881 
L 407.318525 240.922447 
L 408.670483 241.883271 
L 410.69842 241.970335 
L 411.374399 242.962254 
L 412.726357 246.737139 
L 413.402336 247.996471 
L 415.430272 252.50208 
L 416.106251 254.656936 
L 417.458209 259.398864 
L 419.486146 264.890172 
L 420.162125 266.003359 
L 420.838104 266.684331 
L 421.514083 267.184954 
L 422.866041 268.742794 
L 423.54202 269.554363 
L 424.217999 270.008344 
L 424.893978 270.123394 
L 425.569956 269.852871 
L 426.245935 269.971031 
L 426.921914 269.871528 
L 427.597893 269.299387 
L 429.62583 268.24839 
L 430.301809 268.354111 
L 430.977788 268.693042 
L 431.653767 269.159462 
L 432.329746 269.949265 
L 435.70964 275.80127 
L 437.061598 279.541951 
L 438.413556 283.606017 
L 439.765514 286.609756 
L 440.441493 287.722943 
L 441.117472 288.518965 
L 442.46943 289.507774 
L 444.497367 291.081161 
L 445.173346 291.249072 
L 445.849324 291.183773 
L 447.201282 290.826185 
L 447.877261 290.397079 
L 449.229219 288.323069 
L 450.581177 285.341096 
L 451.933135 281.267702 
L 454.637051 271.211706 
L 456.664987 261.696755 
L 458.016945 258.167517 
L 458.692924 257.244007 
L 459.368903 257.153833 
L 460.044882 257.645128 
L 460.720861 258.761424 
L 462.072819 261.559939 
L 462.748798 262.604718 
L 463.424777 264.013304 
L 464.100756 266.255225 
L 465.452714 272.489694 
L 466.128692 274.93373 
L 466.804671 276.60662 
L 467.48065 277.306249 
L 468.156629 277.471051 
L 468.832608 276.945552 
L 469.508587 275.521419 
L 470.184566 273.761464 
L 470.860545 272.477256 
L 471.536524 271.718548 
L 472.212503 270.754615 
L 472.888482 269.560582 
L 474.916419 264.181215 
L 475.592398 263.655716 
L 476.268376 263.898254 
L 476.944355 263.742781 
L 477.620334 264.255842 
L 478.296313 265.863433 
L 479.648271 269.411328 
L 480.32425 270.555609 
L 481.676208 271.964195 
L 483.028166 273.444299 
L 483.704145 273.888952 
L 484.380124 273.195542 
L 485.056103 272.020166 
L 485.732082 271.267676 
L 486.40806 270.285086 
L 489.111976 264.678728 
L 491.815892 263.758328 
L 492.491871 264.025742 
L 493.16785 265.337934 
L 497.223723 278.826775 
L 497.899702 280.683124 
L 501.279597 287.931277 
L 501.955576 288.83613 
L 502.631555 289.175061 
L 503.307534 289.330534 
L 509.391344 294.83739 
L 511.419281 296.050079 
L 512.09526 296.323712 
L 518.855049 296.389011 
L 526.966796 295.748462 
L 529.670712 295.269605 
L 530.346691 294.912017 
L 531.698649 293.180047 
L 533.726586 290.633398 
L 535.078544 288.948071 
L 536.430501 286.339233 
L 537.782459 283.052533 
L 538.458438 281.301906 
L 539.134417 280.082998 
L 539.810396 279.657002 
L 541.838333 279.047547 
L 543.190291 278.388341 
L 543.86627 278.372794 
L 545.218228 279.706753 
L 545.894207 280.680014 
L 547.246164 283.360369 
L 547.922143 284.426915 
L 549.274101 285.667589 
L 551.302038 287.097941 
L 551.978017 287.642097 
L 552.653996 287.965481 
L 553.329975 288.120954 
L 554.005954 288.450557 
L 554.681933 288.581154 
L 556.033891 288.400806 
L 556.709869 288.02767 
L 560.089764 284.793831 
L 562.79368 282.045068 
L 564.821617 280.947428 
L 565.497596 280.888348 
L 566.849553 281.584867 
L 568.201511 283.06808 
L 570.905427 286.034506 
L 571.581406 286.662617 
L 572.933364 287.421325 
L 573.609343 288.005904 
L 575.63728 290.138994 
L 576.989237 291.009643 
L 578.341195 291.494719 
L 582.397069 293.892114 
L 583.749027 293.935646 
L 584.425006 293.56562 
L 585.776964 292.172582 
L 586.452943 291.755914 
L 587.128921 291.165116 
L 588.480879 289.025807 
L 591.184795 284.33674 
L 592.536753 281.790092 
L 593.212732 281.189966 
L 594.56469 281.239717 
L 595.240669 281.099791 
L 595.916648 281.314344 
L 596.592627 282.063724 
L 598.620563 285.132762 
L 599.972521 287.188116 
L 601.324479 289.64459 
L 602.000458 290.540115 
L 602.676437 291.078051 
L 604.028395 292.629672 
L 604.704374 293.052559 
L 605.380353 293.248455 
L 606.056332 293.245346 
L 607.408289 293.419475 
L 608.760247 293.052559 
L 611.464163 291.858526 
L 612.816121 291.022081 
L 615.520037 290.717354 
L 616.196016 290.751558 
L 622.279826 294.732112 
L 624.307763 295.544792 
L 628.363636 296.234426 
L 628.363636 296.234426 
" style="fill:none;stroke:#ff0000;stroke-linecap:square;stroke-width:1.5;"/>
   </g>
   <g id="patch_3">
    <path d="M 64.8 313.2 
L 64.8 28.8 
" style="fill:none;stroke:#000000;stroke-linecap:square;stroke-linejoin:miter;stroke-width:0.8;"/>
   </g>
   <g id="patch_4">
    <path d="M 655.2 313.2 
L 655.2 28.8 
" style="fill:none;stroke:#000000;stroke-linecap:square;stroke-linejoin:miter;stroke-width:0.8;"/>
   </g>
   <g id="patch_5">
    <path d="M 64.8 313.2 
L 655.2 313.2 
" style="fill:none;stroke:#000000;stroke-linecap:square;stroke-linejoin:miter;stroke-width:0.8;"/>
   </g>
   <g id="patch_6">
    <path d="M 64.8 28.8 
L 655.2 28.8 
" style="fill:none;stroke:#000000;stroke-linecap:square;stroke-linejoin:miter;stroke-width:0.8;"/>
   </g>
   <g id="text_15">
    <!-- Page hits per uur (gemiddeld ongeveer 0). -->
    <g transform="translate(232.46625 22.8)scale(0.12 -0.12)">
     <defs>
      <path d="M 19.671875 64.796875 
L 19.671875 37.40625 
L 32.078125 37.40625 
Q 38.96875 37.40625 42.71875 40.96875 
Q 46.484375 44.53125 46.484375 51.125 
Q 46.484375 57.671875 42.71875 61.234375 
Q 38.96875 64.796875 32.078125 64.796875 
z
M 9.8125 72.90625 
L 32.078125 72.90625 
Q 44.34375 72.90625 50.609375 67.359375 
Q 56.890625 61.8125 56.890625 51.125 
Q 56.890625 40.328125 50.609375 34.8125 
Q 44.34375 29.296875 32.078125 29.296875 
L 19.671875 29.296875 
L 19.671875 0 
L 9.8125 0 
z
" id="DejaVuSans-80"/>
      <path d="M 45.40625 27.984375 
Q 45.40625 37.75 41.375 43.109375 
Q 37.359375 48.484375 30.078125 48.484375 
Q 22.859375 48.484375 18.828125 43.109375 
Q 14.796875 37.75 14.796875 27.984375 
Q 14.796875 18.265625 18.828125 12.890625 
Q 22.859375 7.515625 30.078125 7.515625 
Q 37.359375 7.515625 41.375 12.890625 
Q 45.40625 18.265625 45.40625 27.984375 
z
M 54.390625 6.78125 
Q 54.390625 -7.171875 48.1875 -13.984375 
Q 42 -20.796875 29.203125 -20.796875 
Q 24.46875 -20.796875 20.265625 -20.09375 
Q 16.0625 -19.390625 12.109375 -17.921875 
L 12.109375 -9.1875 
Q 16.0625 -11.328125 19.921875 -12.34375 
Q 23.78125 -13.375 27.78125 -13.375 
Q 36.625 -13.375 41.015625 -8.765625 
Q 45.40625 -4.15625 45.40625 5.171875 
L 45.40625 9.625 
Q 42.625 4.78125 38.28125 2.390625 
Q 33.9375 0 27.875 0 
Q 17.828125 0 11.671875 7.65625 
Q 5.515625 15.328125 5.515625 27.984375 
Q 5.515625 40.671875 11.671875 48.328125 
Q 17.828125 56 27.875 56 
Q 33.9375 56 38.28125 53.609375 
Q 42.625 51.21875 45.40625 46.390625 
L 45.40625 54.6875 
L 54.390625 54.6875 
z
" id="DejaVuSans-103"/>
      <path d="M 56.203125 29.59375 
L 56.203125 25.203125 
L 14.890625 25.203125 
Q 15.484375 15.921875 20.484375 11.0625 
Q 25.484375 6.203125 34.421875 6.203125 
Q 39.59375 6.203125 44.453125 7.46875 
Q 49.3125 8.734375 54.109375 11.28125 
L 54.109375 2.78125 
Q 49.265625 0.734375 44.1875 -0.34375 
Q 39.109375 -1.421875 33.890625 -1.421875 
Q 20.796875 -1.421875 13.15625 6.1875 
Q 5.515625 13.8125 5.515625 26.8125 
Q 5.515625 40.234375 12.765625 48.109375 
Q 20.015625 56 32.328125 56 
Q 43.359375 56 49.78125 48.890625 
Q 56.203125 41.796875 56.203125 29.59375 
z
M 47.21875 32.234375 
Q 47.125 39.59375 43.09375 43.984375 
Q 39.0625 48.390625 32.421875 48.390625 
Q 24.90625 48.390625 20.390625 44.140625 
Q 15.875 39.890625 15.1875 32.171875 
z
" id="DejaVuSans-101"/>
      <path id="DejaVuSans-32"/>
      <path d="M 54.890625 33.015625 
L 54.890625 0 
L 45.90625 0 
L 45.90625 32.71875 
Q 45.90625 40.484375 42.875 44.328125 
Q 39.84375 48.1875 33.796875 48.1875 
Q 26.515625 48.1875 22.3125 43.546875 
Q 18.109375 38.921875 18.109375 30.90625 
L 18.109375 0 
L 9.078125 0 
L 9.078125 75.984375 
L 18.109375 75.984375 
L 18.109375 46.1875 
Q 21.34375 51.125 25.703125 53.5625 
Q 30.078125 56 35.796875 56 
Q 45.21875 56 50.046875 50.171875 
Q 54.890625 44.34375 54.890625 33.015625 
z
" id="DejaVuSans-104"/>
      <path d="M 9.421875 54.6875 
L 18.40625 54.6875 
L 18.40625 0 
L 9.421875 0 
z
M 9.421875 75.984375 
L 18.40625 75.984375 
L 18.40625 64.59375 
L 9.421875 64.59375 
z
" id="DejaVuSans-105"/>
      <path d="M 44.28125 53.078125 
L 44.28125 44.578125 
Q 40.484375 46.53125 36.375 47.5 
Q 32.28125 48.484375 27.875 48.484375 
Q 21.1875 48.484375 17.84375 46.4375 
Q 14.5 44.390625 14.5 40.28125 
Q 14.5 37.15625 16.890625 35.375 
Q 19.28125 33.59375 26.515625 31.984375 
L 29.59375 31.296875 
Q 39.15625 29.25 43.1875 25.515625 
Q 47.21875 21.78125 47.21875 15.09375 
Q 47.21875 7.46875 41.1875 3.015625 
Q 35.15625 -1.421875 24.609375 -1.421875 
Q 20.21875 -1.421875 15.453125 -0.5625 
Q 10.6875 0.296875 5.421875 2 
L 5.421875 11.28125 
Q 10.40625 8.6875 15.234375 7.390625 
Q 20.0625 6.109375 24.8125 6.109375 
Q 31.15625 6.109375 34.5625 8.28125 
Q 37.984375 10.453125 37.984375 14.40625 
Q 37.984375 18.0625 35.515625 20.015625 
Q 33.0625 21.96875 24.703125 23.78125 
L 21.578125 24.515625 
Q 13.234375 26.265625 9.515625 29.90625 
Q 5.8125 33.546875 5.8125 39.890625 
Q 5.8125 47.609375 11.28125 51.796875 
Q 16.75 56 26.8125 56 
Q 31.78125 56 36.171875 55.265625 
Q 40.578125 54.546875 44.28125 53.078125 
z
" id="DejaVuSans-115"/>
      <path d="M 18.109375 8.203125 
L 18.109375 -20.796875 
L 9.078125 -20.796875 
L 9.078125 54.6875 
L 18.109375 54.6875 
L 18.109375 46.390625 
Q 20.953125 51.265625 25.265625 53.625 
Q 29.59375 56 35.59375 56 
Q 45.5625 56 51.78125 48.09375 
Q 58.015625 40.1875 58.015625 27.296875 
Q 58.015625 14.40625 51.78125 6.484375 
Q 45.5625 -1.421875 35.59375 -1.421875 
Q 29.59375 -1.421875 25.265625 0.953125 
Q 20.953125 3.328125 18.109375 8.203125 
z
M 48.6875 27.296875 
Q 48.6875 37.203125 44.609375 42.84375 
Q 40.53125 48.484375 33.40625 48.484375 
Q 26.265625 48.484375 22.1875 42.84375 
Q 18.109375 37.203125 18.109375 27.296875 
Q 18.109375 17.390625 22.1875 11.75 
Q 26.265625 6.109375 33.40625 6.109375 
Q 40.53125 6.109375 44.609375 11.75 
Q 48.6875 17.390625 48.6875 27.296875 
z
" id="DejaVuSans-112"/>
      <path d="M 41.109375 46.296875 
Q 39.59375 47.171875 37.8125 47.578125 
Q 36.03125 48 33.890625 48 
Q 26.265625 48 22.1875 43.046875 
Q 18.109375 38.09375 18.109375 28.8125 
L 18.109375 0 
L 9.078125 0 
L 9.078125 54.6875 
L 18.109375 54.6875 
L 18.109375 46.1875 
Q 20.953125 51.171875 25.484375 53.578125 
Q 30.03125 56 36.53125 56 
Q 37.453125 56 38.578125 55.875 
Q 39.703125 55.765625 41.0625 55.515625 
z
" id="DejaVuSans-114"/>
      <path d="M 31 75.875 
Q 24.46875 64.65625 21.28125 53.65625 
Q 18.109375 42.671875 18.109375 31.390625 
Q 18.109375 20.125 21.3125 9.0625 
Q 24.515625 -2 31 -13.1875 
L 23.1875 -13.1875 
Q 15.875 -1.703125 12.234375 9.375 
Q 8.59375 20.453125 8.59375 31.390625 
Q 8.59375 42.28125 12.203125 53.3125 
Q 15.828125 64.359375 23.1875 75.875 
z
" id="DejaVuSans-40"/>
      <path d="M 45.40625 46.390625 
L 45.40625 75.984375 
L 54.390625 75.984375 
L 54.390625 0 
L 45.40625 0 
L 45.40625 8.203125 
Q 42.578125 3.328125 38.25 0.953125 
Q 33.9375 -1.421875 27.875 -1.421875 
Q 17.96875 -1.421875 11.734375 6.484375 
Q 5.515625 14.40625 5.515625 27.296875 
Q 5.515625 40.1875 11.734375 48.09375 
Q 17.96875 56 27.875 56 
Q 33.9375 56 38.25 53.625 
Q 42.578125 51.265625 45.40625 46.390625 
z
M 14.796875 27.296875 
Q 14.796875 17.390625 18.875 11.75 
Q 22.953125 6.109375 30.078125 6.109375 
Q 37.203125 6.109375 41.296875 11.75 
Q 45.40625 17.390625 45.40625 27.296875 
Q 45.40625 37.203125 41.296875 42.84375 
Q 37.203125 48.484375 30.078125 48.484375 
Q 22.953125 48.484375 18.875 42.84375 
Q 14.796875 37.203125 14.796875 27.296875 
z
" id="DejaVuSans-100"/>
      <path d="M 9.421875 75.984375 
L 18.40625 75.984375 
L 18.40625 0 
L 9.421875 0 
z
" id="DejaVuSans-108"/>
      <path d="M 30.609375 48.390625 
Q 23.390625 48.390625 19.1875 42.75 
Q 14.984375 37.109375 14.984375 27.296875 
Q 14.984375 17.484375 19.15625 11.84375 
Q 23.34375 6.203125 30.609375 6.203125 
Q 37.796875 6.203125 41.984375 11.859375 
Q 46.1875 17.53125 46.1875 27.296875 
Q 46.1875 37.015625 41.984375 42.703125 
Q 37.796875 48.390625 30.609375 48.390625 
z
M 30.609375 56 
Q 42.328125 56 49.015625 48.375 
Q 55.71875 40.765625 55.71875 27.296875 
Q 55.71875 13.875 49.015625 6.21875 
Q 42.328125 -1.421875 30.609375 -1.421875 
Q 18.84375 -1.421875 12.171875 6.21875 
Q 5.515625 13.875 5.515625 27.296875 
Q 5.515625 40.765625 12.171875 48.375 
Q 18.84375 56 30.609375 56 
z
" id="DejaVuSans-111"/>
      <path d="M 54.890625 33.015625 
L 54.890625 0 
L 45.90625 0 
L 45.90625 32.71875 
Q 45.90625 40.484375 42.875 44.328125 
Q 39.84375 48.1875 33.796875 48.1875 
Q 26.515625 48.1875 22.3125 43.546875 
Q 18.109375 38.921875 18.109375 30.90625 
L 18.109375 0 
L 9.078125 0 
L 9.078125 54.6875 
L 18.109375 54.6875 
L 18.109375 46.1875 
Q 21.34375 51.125 25.703125 53.5625 
Q 30.078125 56 35.796875 56 
Q 45.21875 56 50.046875 50.171875 
Q 54.890625 44.34375 54.890625 33.015625 
z
" id="DejaVuSans-110"/>
      <path d="M 2.984375 54.6875 
L 12.5 54.6875 
L 29.59375 8.796875 
L 46.6875 54.6875 
L 56.203125 54.6875 
L 35.6875 0 
L 23.484375 0 
z
" id="DejaVuSans-118"/>
      <path d="M 8.015625 75.875 
L 15.828125 75.875 
Q 23.140625 64.359375 26.78125 53.3125 
Q 30.421875 42.28125 30.421875 31.390625 
Q 30.421875 20.453125 26.78125 9.375 
Q 23.140625 -1.703125 15.828125 -13.1875 
L 8.015625 -13.1875 
Q 14.5 -2 17.703125 9.0625 
Q 20.90625 20.125 20.90625 31.390625 
Q 20.90625 42.671875 17.703125 53.65625 
Q 14.5 64.65625 8.015625 75.875 
z
" id="DejaVuSans-41"/>
      <path d="M 10.6875 12.40625 
L 21 12.40625 
L 21 0 
L 10.6875 0 
z
" id="DejaVuSans-46"/>
     </defs>
     <use xlink:href="#DejaVuSans-80"/>
     <use x="55.802734" xlink:href="#DejaVuSans-97"/>
     <use x="117.082031" xlink:href="#DejaVuSans-103"/>
     <use x="180.558594" xlink:href="#DejaVuSans-101"/>
     <use x="242.082031" xlink:href="#DejaVuSans-32"/>
     <use x="273.869141" xlink:href="#DejaVuSans-104"/>
     <use x="337.248047" xlink:href="#DejaVuSans-105"/>
     <use x="365.03125" xlink:href="#DejaVuSans-116"/>
     <use x="404.240234" xlink:href="#DejaVuSans-115"/>
     <use x="456.339844" xlink:href="#DejaVuSans-32"/>
     <use x="488.126953" xlink:href="#DejaVuSans-112"/>
     <use x="551.603516" xlink:href="#DejaVuSans-101"/>
     <use x="613.126953" xlink:href="#DejaVuSans-114"/>
     <use x="654.240234" xlink:href="#DejaVuSans-32"/>
     <use x="686.027344" xlink:href="#DejaVuSans-117"/>
     <use x="749.40625" xlink:href="#DejaVuSans-117"/>
     <use x="812.785156" xlink:href="#DejaVuSans-114"/>
     <use x="853.898438" xlink:href="#DejaVuSans-32"/>
     <use x="885.685547" xlink:href="#DejaVuSans-40"/>
     <use x="924.699219" xlink:href="#DejaVuSans-103"/>
     <use x="988.175781" xlink:href="#DejaVuSans-101"/>
     <use x="1049.699219" xlink:href="#DejaVuSans-109"/>
     <use x="1147.111328" xlink:href="#DejaVuSans-105"/>
     <use x="1174.894531" xlink:href="#DejaVuSans-100"/>
     <use x="1238.371094" xlink:href="#DejaVuSans-100"/>
     <use x="1301.847656" xlink:href="#DejaVuSans-101"/>
     <use x="1363.371094" xlink:href="#DejaVuSans-108"/>
     <use x="1391.154297" xlink:href="#DejaVuSans-100"/>
     <use x="1454.630859" xlink:href="#DejaVuSans-32"/>
     <use x="1486.417969" xlink:href="#DejaVuSans-111"/>
     <use x="1547.599609" xlink:href="#DejaVuSans-110"/>
     <use x="1610.978516" xlink:href="#DejaVuSans-103"/>
     <use x="1674.455078" xlink:href="#DejaVuSans-101"/>
     <use x="1735.978516" xlink:href="#DejaVuSans-118"/>
     <use x="1795.158203" xlink:href="#DejaVuSans-101"/>
     <use x="1856.681641" xlink:href="#DejaVuSans-101"/>
     <use x="1918.205078" xlink:href="#DejaVuSans-114"/>
     <use x="1959.318359" xlink:href="#DejaVuSans-32"/>
     <use x="1991.105469" xlink:href="#DejaVuSans-48"/>
     <use x="2054.728516" xlink:href="#DejaVuSans-41"/>
     <use x="2093.742188" xlink:href="#DejaVuSans-46"/>
    </g>
   </g>
  </g>
  <g id="text_16">
   <!-- Gegenereerd op 2023-01-23 23:38. -->
   <g style="fill:#808080;" transform="translate(7.2 356.4)scale(0.08 -0.08)">
    <defs>
     <path d="M 59.515625 10.40625 
L 59.515625 29.984375 
L 43.40625 29.984375 
L 43.40625 38.09375 
L 69.28125 38.09375 
L 69.28125 6.78125 
Q 63.578125 2.734375 56.6875 0.65625 
Q 49.8125 -1.421875 42 -1.421875 
Q 24.90625 -1.421875 15.25 8.5625 
Q 5.609375 18.5625 5.609375 36.375 
Q 5.609375 54.25 15.25 64.234375 
Q 24.90625 74.21875 42 74.21875 
Q 49.125 74.21875 55.546875 72.453125 
Q 61.96875 70.703125 67.390625 67.28125 
L 67.390625 56.78125 
Q 61.921875 61.421875 55.765625 63.765625 
Q 49.609375 66.109375 42.828125 66.109375 
Q 29.4375 66.109375 22.71875 58.640625 
Q 16.015625 51.171875 16.015625 36.375 
Q 16.015625 21.625 22.71875 14.15625 
Q 29.4375 6.6875 42.828125 6.6875 
Q 48.046875 6.6875 52.140625 7.59375 
Q 56.25 8.5 59.515625 10.40625 
z
" id="DejaVuSans-71"/>
     <path d="M 11.71875 12.40625 
L 22.015625 12.40625 
L 22.015625 0 
L 11.71875 0 
z
M 11.71875 51.703125 
L 22.015625 51.703125 
L 22.015625 39.3125 
L 11.71875 39.3125 
z
" id="DejaVuSans-58"/>
     <path d="M 31.78125 34.625 
Q 24.75 34.625 20.71875 30.859375 
Q 16.703125 27.09375 16.703125 20.515625 
Q 16.703125 13.921875 20.71875 10.15625 
Q 24.75 6.390625 31.78125 6.390625 
Q 38.8125 6.390625 42.859375 10.171875 
Q 46.921875 13.96875 46.921875 20.515625 
Q 46.921875 27.09375 42.890625 30.859375 
Q 38.875 34.625 31.78125 34.625 
z
M 21.921875 38.8125 
Q 15.578125 40.375 12.03125 44.71875 
Q 8.5 49.078125 8.5 55.328125 
Q 8.5 64.0625 14.71875 69.140625 
Q 20.953125 74.21875 31.78125 74.21875 
Q 42.671875 74.21875 48.875 69.140625 
Q 55.078125 64.0625 55.078125 55.328125 
Q 55.078125 49.078125 51.53125 44.71875 
Q 48 40.375 41.703125 38.8125 
Q 48.828125 37.15625 52.796875 32.3125 
Q 56.78125 27.484375 56.78125 20.515625 
Q 56.78125 9.90625 50.3125 4.234375 
Q 43.84375 -1.421875 31.78125 -1.421875 
Q 19.734375 -1.421875 13.25 4.234375 
Q 6.78125 9.90625 6.78125 20.515625 
Q 6.78125 27.484375 10.78125 32.3125 
Q 14.796875 37.15625 21.921875 38.8125 
z
M 18.3125 54.390625 
Q 18.3125 48.734375 21.84375 45.5625 
Q 25.390625 42.390625 31.78125 42.390625 
Q 38.140625 42.390625 41.71875 45.5625 
Q 45.3125 48.734375 45.3125 54.390625 
Q 45.3125 60.0625 41.71875 63.234375 
Q 38.140625 66.40625 31.78125 66.40625 
Q 25.390625 66.40625 21.84375 63.234375 
Q 18.3125 60.0625 18.3125 54.390625 
z
" id="DejaVuSans-56"/>
    </defs>
    <use xlink:href="#DejaVuSans-71"/>
    <use x="77.490234" xlink:href="#DejaVuSans-101"/>
    <use x="139.013672" xlink:href="#DejaVuSans-103"/>
    <use x="202.490234" xlink:href="#DejaVuSans-101"/>
    <use x="264.013672" xlink:href="#DejaVuSans-110"/>
    <use x="327.392578" xlink:href="#DejaVuSans-101"/>
    <use x="388.916016" xlink:href="#DejaVuSans-114"/>
    <use x="427.779297" xlink:href="#DejaVuSans-101"/>
    <use x="489.302734" xlink:href="#DejaVuSans-101"/>
    <use x="550.826172" xlink:href="#DejaVuSans-114"/>
    <use x="590.189453" xlink:href="#DejaVuSans-100"/>
    <use x="653.666016" xlink:href="#DejaVuSans-32"/>
    <use x="685.453125" xlink:href="#DejaVuSans-111"/>
    <use x="746.634766" xlink:href="#DejaVuSans-112"/>
    <use x="810.111328" xlink:href="#DejaVuSans-32"/>
    <use x="841.898438" xlink:href="#DejaVuSans-50"/>
    <use x="905.521484" xlink:href="#DejaVuSans-48"/>
    <use x="969.144531" xlink:href="#DejaVuSans-50"/>
    <use x="1032.767578" xlink:href="#DejaVuSans-51"/>
    <use x="1096.390625" xlink:href="#DejaVuSans-45"/>
    <use x="1132.474609" xlink:href="#DejaVuSans-48"/>
    <use x="1196.097656" xlink:href="#DejaVuSans-49"/>
    <use x="1259.720703" xlink:href="#DejaVuSans-45"/>
    <use x="1295.804688" xlink:href="#DejaVuSans-50"/>
    <use x="1359.427734" xlink:href="#DejaVuSans-51"/>
    <use x="1423.050781" xlink:href="#DejaVuSans-32"/>
    <use x="1454.837891" xlink:href="#DejaVuSans-50"/>
    <use x="1518.460938" xlink:href="#DejaVuSans-51"/>
    <use x="1582.083984" xlink:href="#DejaVuSans-58"/>
    <use x="1615.775391" xlink:href="#DejaVuSans-51"/>
    <use x="1679.398438" xlink:href="#DejaVuSans-56"/>
    <use x="1743.021484" xlink:href="#DejaVuSans-46"/>
   </g>
  </g>
  <g id="text_17">
   <!-- https://realrolfje.github.io/coronadata/ -->
   <g style="fill:#808080;" transform="translate(560.24375 356.4)scale(0.08 -0.08)">
    <defs>
     <path d="M 25.390625 72.90625 
L 33.6875 72.90625 
L 8.296875 -9.28125 
L 0 -9.28125 
z
" id="DejaVuSans-47"/>
     <path d="M 37.109375 75.984375 
L 37.109375 68.5 
L 28.515625 68.5 
Q 23.6875 68.5 21.796875 66.546875 
Q 19.921875 64.59375 19.921875 59.515625 
L 19.921875 54.6875 
L 34.71875 54.6875 
L 34.71875 47.703125 
L 19.921875 47.703125 
L 19.921875 0 
L 10.890625 0 
L 10.890625 47.703125 
L 2.296875 47.703125 
L 2.296875 54.6875 
L 10.890625 54.6875 
L 10.890625 58.5 
Q 10.890625 67.625 15.140625 71.796875 
Q 19.390625 75.984375 28.609375 75.984375 
z
" id="DejaVuSans-102"/>
     <path d="M 9.421875 54.6875 
L 18.40625 54.6875 
L 18.40625 -0.984375 
Q 18.40625 -11.421875 14.421875 -16.109375 
Q 10.453125 -20.796875 1.609375 -20.796875 
L -1.8125 -20.796875 
L -1.8125 -13.1875 
L 0.59375 -13.1875 
Q 5.71875 -13.1875 7.5625 -10.8125 
Q 9.421875 -8.453125 9.421875 -0.984375 
z
M 9.421875 75.984375 
L 18.40625 75.984375 
L 18.40625 64.59375 
L 9.421875 64.59375 
z
" id="DejaVuSans-106"/>
     <path d="M 48.6875 27.296875 
Q 48.6875 37.203125 44.609375 42.84375 
Q 40.53125 48.484375 33.40625 48.484375 
Q 26.265625 48.484375 22.1875 42.84375 
Q 18.109375 37.203125 18.109375 27.296875 
Q 18.109375 17.390625 22.1875 11.75 
Q 26.265625 6.109375 33.40625 6.109375 
Q 40.53125 6.109375 44.609375 11.75 
Q 48.6875 17.390625 48.6875 27.296875 
z
M 18.109375 46.390625 
Q 20.953125 51.265625 25.265625 53.625 
Q 29.59375 56 35.59375 56 
Q 45.5625 56 51.78125 48.09375 
Q 58.015625 40.1875 58.015625 27.296875 
Q 58.015625 14.40625 51.78125 6.484375 
Q 45.5625 -1.421875 35.59375 -1.421875 
Q 29.59375 -1.421875 25.265625 0.953125 
Q 20.953125 3.328125 18.109375 8.203125 
L 18.109375 0 
L 9.078125 0 
L 9.078125 75.984375 
L 18.109375 75.984375 
z
" id="DejaVuSans-98"/>
     <path d="M 48.78125 52.59375 
L 48.78125 44.1875 
Q 44.96875 46.296875 41.140625 47.34375 
Q 37.3125 48.390625 33.40625 48.390625 
Q 24.65625 48.390625 19.8125 42.84375 
Q 14.984375 37.3125 14.984375 27.296875 
Q 14.984375 17.28125 19.8125 11.734375 
Q 24.65625 6.203125 33.40625 6.203125 
Q 37.3125 6.203125 41.140625 7.25 
Q 44.96875 8.296875 48.78125 10.40625 
L 48.78125 2.09375 
Q 45.015625 0.34375 40.984375 -0.53125 
Q 36.96875 -1.421875 32.421875 -1.421875 
Q 20.0625 -1.421875 12.78125 6.34375 
Q 5.515625 14.109375 5.515625 27.296875 
Q 5.515625 40.671875 12.859375 48.328125 
Q 20.21875 56 33.015625 56 
Q 37.15625 56 41.109375 55.140625 
Q 45.0625 54.296875 48.78125 52.59375 
z
" id="DejaVuSans-99"/>
    </defs>
    <use xlink:href="#DejaVuSans-104"/>
    <use x="63.378906" xlink:href="#DejaVuSans-116"/>
    <use x="102.587891" xlink:href="#DejaVuSans-116"/>
    <use x="141.796875" xlink:href="#DejaVuSans-112"/>
    <use x="205.273438" xlink:href="#DejaVuSans-115"/>
    <use x="257.373047" xlink:href="#DejaVuSans-58"/>
    <use x="291.064453" xlink:href="#DejaVuSans-47"/>
    <use x="324.755859" xlink:href="#DejaVuSans-47"/>
    <use x="358.447266" xlink:href="#DejaVuSans-114"/>
    <use x="397.310547" xlink:href="#DejaVuSans-101"/>
    <use x="458.833984" xlink:href="#DejaVuSans-97"/>
    <use x="520.113281" xlink:href="#DejaVuSans-108"/>
    <use x="547.896484" xlink:href="#DejaVuSans-114"/>
    <use x="586.759766" xlink:href="#DejaVuSans-111"/>
    <use x="647.941406" xlink:href="#DejaVuSans-108"/>
    <use x="675.724609" xlink:href="#DejaVuSans-102"/>
    <use x="710.929688" xlink:href="#DejaVuSans-106"/>
    <use x="738.712891" xlink:href="#DejaVuSans-101"/>
    <use x="800.236328" xlink:href="#DejaVuSans-46"/>
    <use x="832.023438" xlink:href="#DejaVuSans-103"/>
    <use x="895.5" xlink:href="#DejaVuSans-105"/>
    <use x="923.283203" xlink:href="#DejaVuSans-116"/>
    <use x="962.492188" xlink:href="#DejaVuSans-104"/>
    <use x="1025.871094" xlink:href="#DejaVuSans-117"/>
    <use x="1089.25" xlink:href="#DejaVuSans-98"/>
    <use x="1152.726562" xlink:href="#DejaVuSans-46"/>
    <use x="1184.513672" xlink:href="#DejaVuSans-105"/>
    <use x="1212.296875" xlink:href="#DejaVuSans-111"/>
    <use x="1273.478516" xlink:href="#DejaVuSans-47"/>
    <use x="1307.169922" xlink:href="#DejaVuSans-99"/>
    <use x="1362.150391" xlink:href="#DejaVuSans-111"/>
    <use x="1423.332031" xlink:href="#DejaVuSans-114"/>
    <use x="1462.195312" xlink:href="#DejaVuSans-111"/>
    <use x="1523.376953" xlink:href="#DejaVuSans-110"/>
    <use x="1586.755859" xlink:href="#DejaVuSans-97"/>
    <use x="1648.035156" xlink:href="#DejaVuSans-100"/>
    <use x="1711.511719" xlink:href="#DejaVuSans-97"/>
    <use x="1772.791016" xlink:href="#DejaVuSans-116"/>
    <use x="1812" xlink:href="#DejaVuSans-97"/>
    <use x="1873.279297" xlink:href="#DejaVuSans-47"/>
   </g>
  </g>
 </g>
 <defs>
  <clipPath id="p1cc958adf9">
   <rect height="284.4" width="590.4" x="64.8" y="28.8"/>
  </clipPath>
 </defs>
</svg>
