<?xml version="1.0" encoding="utf-8" standalone="no"?>
<!DOCTYPE svg PUBLIC "-//W3C//DTD SVG 1.1//EN"
  "http://www.w3.org/Graphics/SVG/1.1/DTD/svg11.dtd">
<!-- Created with matplotlib (https://matplotlib.org/) -->
<svg height="360pt" version="1.1" viewBox="0 0 720 360" width="720pt" xmlns="http://www.w3.org/2000/svg" xmlns:xlink="http://www.w3.org/1999/xlink">
 <metadata>
  <rdf:RDF xmlns:cc="http://creativecommons.org/ns#" xmlns:dc="http://purl.org/dc/elements/1.1/" xmlns:rdf="http://www.w3.org/1999/02/22-rdf-syntax-ns#">
   <cc:Work>
    <dc:type rdf:resource="http://purl.org/dc/dcmitype/StillImage"/>
    <dc:date>2021-03-28T18:13:03.118393</dc:date>
    <dc:format>image/svg+xml</dc:format>
    <dc:creator>
     <cc:Agent>
      <dc:title>Matplotlib v3.3.3, https://matplotlib.org/</dc:title>
     </cc:Agent>
    </dc:creator>
   </cc:Work>
  </rdf:RDF>
 </metadata>
 <defs>
  <style type="text/css">*{stroke-linecap:butt;stroke-linejoin:round;}</style>
 </defs>
 <g id="figure_1">
  <g id="patch_1">
   <path d="M 0 360 
L 720 360 
L 720 0 
L 0 0 
z
" style="fill:#ffffff;"/>
  </g>
  <g id="axes_1">
   <g id="patch_2">
    <path d="M 64.8 313.2 
L 655.2 313.2 
L 655.2 28.8 
L 64.8 28.8 
z
" style="fill:#ffffff;"/>
   </g>
   <g id="PolyCollection_1">
    <path clip-path="url(#p7387196706)" d="M 91.636364 313.2 
L 91.636364 313.2 
L 94.101389 313.2 
L 95.151778 313.2 
L 96.202362 313.2 
L 98.296868 313.2 
L 99.349542 313.2 
L 100.053529 313.2 
L 102.508879 313.2 
L 103.554016 313.2 
L 104.6046 313.2 
L 106.705232 313.2 
L 107.755622 313.2 
L 108.805768 313.2 
L 110.9064 313.2 
L 111.957519 313.2 
L 123.510243 313.2 
L 124.560438 313.2 
L 125.610827 313.2 
L 127.711411 313.2 
L 128.762724 313.2 
L 129.812092 313.2 
L 131.913114 313.2 
L 132.963114 313.2 
L 133.961912 313.2 
L 136.114087 313.2 
L 137.164379 313.2 
L 138.113191 313.2 
L 140.313309 313.2 
L 141.363747 313.2 
L 142.415352 313.2 
L 144.514574 313.2 
L 145.565741 313.2 
L 146.615207 313.2 
L 148.719729 313.2 
L 149.770216 313.2 
L 150.775238 313.2 
L 152.920605 313.2 
L 153.970897 313.2 
L 155.021092 313.2 
L 157.118369 313.2 
L 158.169001 313.2 
L 159.031116 313.2 
L 161.320071 313.2 
L 162.370169 313.2 
L 163.420607 313.2 
L 165.525178 313.2 
L 166.509146 313.2 
L 167.553408 313.2 
L 169.726248 313.2 
L 170.778728 313.2 
L 171.590759 313.2 
L 173.923477 313.2 
L 174.975276 313.2 
L 176.028097 313.2 
L 178.000458 313.2 
L 179.175472 313.2 
L 180.225472 313.2 
L 182.32625 313.2 
L 183.379022 313.2 
L 184.429314 313.2 
L 186.527612 313.2 
L 187.578634 313.2 
L 188.628196 313.2 
L 191.418326 313.2 
L 192.632288 313.2 
L 194.931649 313.2 
L 195.691895 313.2 
L 196.705816 313.2 
L 199.131407 313.2 
L 200.181699 313.2 
L 201.232088 313.2 
L 203.332769 313.2 
L 204.378782 313.2 
L 205.42922 313.2 
L 207.530144 313.2 
L 208.580193 313.2 
L 209.630485 313.2 
L 211.731263 313.2 
L 212.781506 313.2 
L 213.83175 313.2 
L 215.933744 313.2 
L 216.98282 313.2 
L 218.037002 313.2 
L 220.133842 313.2 
L 220.892629 313.2 
L 222.234571 313.2 
L 224.335252 313.2 
L 225.385933 313.2 
L 226.435982 313.2 
L 228.536809 313.2 
L 229.587538 313.2 
L 230.637101 313.2 
L 232.739435 313.2 
L 233.78822 313.2 
L 234.757211 313.2 
L 236.939387 313.2 
L 237.989679 313.2 
L 239.039923 313.2 
L 241.140555 313.2 
L 242.195029 313.2 
L 243.242306 313.2 
L 245.342014 313.2 
L 246.392695 313.2 
L 247.442744 313.2 
L 249.543133 313.2 
L 250.593474 313.2 
L 251.644106 313.2 
L 253.74469 313.2 
L 254.531145 313.2 
L 255.844982 313.2 
L 257.948094 313.2 
L 258.995955 313.2 
L 259.892545 313.2 
L 262.147025 313.2 
L 263.197512 313.2 
L 264.247706 313.2 
L 266.353979 313.2 
L 267.43223 313.2 
L 268.455682 313.2 
L 270.549896 313.2 
L 271.600042 313.2 
L 272.650674 313.2 
L 274.751404 313.2 
L 275.802133 313.2 
L 276.856364 313.2 
L 278.95228 313.2 
L 280.002669 313.2 
L 280.817472 313.2 
L 282.666715 313.2 
L 284.203982 313.2 
L 285.254566 313.2 
L 287.364097 313.2 
L 288.40938 313.2 
L 289.461228 313.2 
L 291.55622 313.2 
L 292.606318 313.2 
L 293.657047 313.2 
L 295.757631 313.2 
L 296.807582 313.2 
L 297.857874 313.2 
L 299.964099 313.2 
L 301.009042 313.2 
L 302.05948 313.2 
L 304.160063 313.2 
L 305.210404 313.2 
L 306.150707 313.2 
L 308.367698 313.2 
L 309.417796 313.2 
L 310.468331 313.2 
L 312.568671 313.2 
L 313.618574 313.2 
L 314.669644 313.2 
L 316.763615 313.2 
L 317.814101 313.2 
L 318.864053 313.2 
L 320.973973 313.2 
L 322.021055 313.2 
L 322.727717 313.2 
L 325.167652 313.2 
L 326.217117 313.2 
L 327.26668 313.2 
L 329.367556 313.2 
L 330.417653 313.2 
L 331.468237 313.2 
L 333.568577 313.2 
L 334.618869 313.2 
L 335.676552 313.2 
L 337.775774 313.2 
L 338.82631 313.2 
L 339.87699 313.2 
L 341.972323 313.2 
L 343.022274 313.2 
L 344.072177 313.2 
L 345.801415 313.2 
L 347.222761 313.2 
L 348.272956 313.2 
L 350.374755 313.2 
L 351.424901 313.2 
L 352.474124 313.2 
L 354.576701 313.2 
L 355.624999 313.2 
L 356.675486 313.2 
L 358.775972 313.2 
L 359.826313 313.2 
L 360.876605 313.2 
L 362.977286 313.2 
L 364.027626 313.2 
L 365.077724 313.2 
L 367.178453 313.2 
L 368.228989 313.2 
L 369.280545 313.2 
L 371.380642 313.2 
L 372.429913 313.2 
L 373.480594 313.2 
L 375.580983 313.2 
L 376.631275 313.2 
L 377.681567 313.2 
L 379.782345 313.2 
L 380.83361 313.2 
L 381.882686 313.2 
L 383.985555 313.2 
L 385.029769 313.2 
L 385.970996 313.2 
L 388.180645 313.2 
L 389.230937 313.2 
L 390.281375 313.2 
L 392.381861 313.2 
L 393.431715 313.2 
L 394.482396 313.2 
L 396.584974 313.2 
L 397.63298 313.2 
L 398.683126 313.2 
L 400.784731 313.2 
L 401.834148 313.2 
L 402.884489 313.2 
L 404.988719 313.2 
L 406.035996 313.2 
L 407.085608 313.2 
L 409.188088 313.2 
L 410.236532 313.2 
L 411.286921 313.2 
L 413.388234 313.2 
L 414.437797 313.2 
L 415.492416 313.2 
L 417.592708 313.2 
L 418.642903 313.2 
L 419.693681 313.2 
L 421.794751 313.2 
L 422.844508 313.2 
L 423.894606 313.2 
L 425.997135 313.2 
L 427.045725 313.2 
L 428.095968 313.2 
L 430.196455 313.2 
L 431.246601 313.2 
L 432.297136 313.2 
L 434.398157 313.2 
L 435.447671 313.2 
L 436.498157 313.2 
L 438.599227 313.2 
L 439.64913 313.2 
L 440.699665 313.2 
L 442.797186 313.2 
L 443.850347 313.2 
L 444.900687 313.2 
L 447.001271 313.2 
L 447.738274 313.2 
L 449.101806 313.2 
L 451.202585 313.2 
L 452.253168 313.2 
L 453.303168 313.2 
L 455.403995 313.2 
L 456.454239 313.2 
L 457.505357 313.2 
L 459.605406 313.2 
L 460.65526 313.2 
L 461.705504 313.2 
L 463.806233 313.2 
L 464.724898 313.2 
L 465.907109 313.2 
L 468.003997 313.2 
L 469.053608 313.2 
L 470.104095 313.2 
L 472.212167 313.2 
L 473.261875 313.2 
L 474.31241 313.2 
L 476.409493 313.2 
L 477.456041 313.2 
L 478.506625 313.2 
L 480.607014 313.2 
L 481.657355 313.2 
L 482.708862 313.2 
L 484.812363 313.2 
L 485.858619 313.2 
L 486.913093 313.2 
L 489.025639 313.2 
L 490.067324 313.2 
L 491.122624 313.2 
L 493.217373 313.2 
L 494.265136 313.2 
L 495.315331 313.2 
L 497.42705 313.2 
L 498.473841 313.2 
L 499.524327 313.2 
L 501.619417 313.2 
L 502.667909 313.2 
L 503.718979 313.2 
L 505.820293 313.2 
L 506.86898 313.2 
L 507.919466 313.2 
L 510.020099 313.2 
L 511.070293 313.2 
L 512.120439 313.2 
L 514.223163 313.2 
L 515.271558 313.2 
L 516.187743 313.2 
L 518.434347 313.2 
L 519.480895 313.2 
L 520.531284 313.2 
L 522.628902 313.2 
L 523.674185 313.2 
L 524.566982 313.2 
L 526.828659 313.2 
L 527.870782 313.2 
L 528.925791 313.2 
L 531.033474 313.2 
L 532.079487 313.2 
L 533.129584 313.2 
L 535.222826 313.2 
L 536.27302 313.2 
L 537.323215 313.2 
L 539.426327 313.2 
L 540.474528 313.2 
L 541.527981 313.2 
L 543.629829 313.2 
L 544.675307 313.2 
L 545.725745 313.2 
L 547.833768 313.2 
L 548.876718 313.2 
L 549.579733 313.2 
L 552.03586 313.2 
L 553.082116 313.2 
L 554.132651 313.2 
L 556.237416 313.2 
L 557.28377 313.2 
L 558.333867 313.2 
L 560.438778 313.2 
L 561.485424 313.2 
L 562.535375 313.2 
L 564.635764 313.2 
L 565.686202 313.2 
L 566.736348 313.2 
L 568.846317 313.2 
L 569.888683 313.2 
L 570.805695 313.2 
L 573.041892 313.2 
L 574.090823 313.2 
L 575.139462 313.2 
L 578.290143 313.2 
L 579.340143 313.2 
L 581.453418 313.2 
L 582.491262 313.2 
L 583.541797 313.2 
L 585.645493 313.2 
L 586.697389 313.2 
L 594.044521 313.2 
L 595.095202 313.2 
L 596.145348 313.2 
L 598.246419 313.2 
L 599.296321 313.2 
L 600.346516 313.2 
L 603.513389 313.2 
L 604.548024 313.2 
L 607.698851 313.2 
L 608.749192 313.2 
L 611.90459 313.2 
L 612.950262 313.2 
L 616.104444 313.2 
L 617.158091 313.2 
L 620.305126 313.2 
L 621.354494 313.2 
L 623.459114 313.2 
L 624.448187 313.2 
L 625.537233 313.2 
L 627.597701 313.2 
L 628.363636 313.2 
L 628.363636 313.2 
L 628.363636 19.49965 
L 627.597701 204.116076 
L 625.537233 106.894735 
L 624.448187 86.350763 
L 623.459114 206.653003 
L 621.354494 99.585041 
L 620.305126 242.075809 
L 617.158091 101.385696 
L 616.104444 242.623685 
L 612.950262 101.091518 
L 611.90459 242.934847 
L 608.749192 102.37781 
L 607.698851 242.998864 
L 604.548024 99.514329 
L 603.513389 243.464541 
L 600.346516 103.694124 
L 599.296321 104.271186 
L 598.246419 209.162176 
L 596.145348 106.113894 
L 595.095202 106.793379 
L 594.044521 244.468732 
L 586.697389 108.500612 
L 585.645493 211.102334 
L 583.541797 108.951 
L 582.491262 106.484436 
L 581.453418 211.724106 
L 579.340143 110.262892 
L 578.290143 245.950208 
L 575.139462 111.726582 
L 574.090823 111.979376 
L 573.041892 218.855614 
L 570.805695 83.268818 
L 569.888683 111.034816 
L 568.846317 213.53517 
L 566.736348 113.058661 
L 565.686202 113.228101 
L 564.635764 213.246547 
L 562.535375 113.317934 
L 561.485424 113.169342 
L 560.438778 213.999324 
L 558.333867 114.40052 
L 557.28377 113.732084 
L 556.237416 214.092967 
L 554.132651 114.661034 
L 553.082116 113.915107 
L 552.03586 228.363878 
L 549.579733 17.101815 
L 548.876718 113.797091 
L 547.833768 214.60036 
L 545.725745 115.424608 
L 544.675307 114.707912 
L 543.629829 214.535662 
L 541.527981 116.392248 
L 540.474528 115.496633 
L 539.426327 214.73109 
L 537.323215 116.101668 
L 536.27302 116.251186 
L 535.222826 214.439168 
L 533.129584 116.711585 
L 532.079487 116.177691 
L 531.033474 215.470134 
L 528.925791 118.027358 
L 527.870782 115.812167 
L 526.828659 222.356285 
L 524.566982 83.291365 
L 523.674185 117.373761 
L 522.628902 215.730973 
L 520.531284 118.673744 
L 519.480895 118.097601 
L 518.434347 222.383698 
L 516.187743 90.559625 
L 515.271558 118.738521 
L 514.223163 216.393785 
L 512.120439 119.422706 
L 511.070293 119.450888 
L 510.020099 216.48699 
L 507.919466 120.919 
L 506.86898 121.130583 
L 505.820293 217.667333 
L 503.718979 122.588735 
L 502.667909 122.222636 
L 501.619417 217.662733 
L 499.524327 122.755349 
L 498.473841 122.447122 
L 497.42705 218.910135 
L 495.315331 123.709743 
L 494.265136 123.372548 
L 493.217373 218.372005 
L 491.122624 125.664328 
L 490.067324 123.973398 
L 489.025639 220.219508 
L 486.913093 126.992612 
L 485.858619 125.692236 
L 484.812363 220.269394 
L 482.708862 127.485203 
L 481.657355 127.333803 
L 480.607014 220.350947 
L 478.506625 127.712842 
L 477.456041 127.052667 
L 476.409493 220.370721 
L 474.31241 128.024092 
L 473.261875 127.933241 
L 472.212167 221.037646 
L 470.104095 128.323549 
L 469.053608 128.2481 
L 468.003997 220.824575 
L 465.907109 149.597648 
L 464.724898 102.833466 
L 463.806233 221.242793 
L 461.705504 129.311675 
L 460.65526 129.843869 
L 459.605406 222.095975 
L 457.505357 131.856474 
L 456.454239 132.838777 
L 455.403995 224.054985 
L 453.303168 137.494868 
L 452.253168 138.773064 
L 451.202585 226.534262 
L 449.101806 180.883844 
L 447.738274 70.738479 
L 447.001271 228.796308 
L 444.900687 146.521412 
L 443.850347 148.051136 
L 442.797186 231.443943 
L 440.699665 151.409465 
L 439.64913 151.984004 
L 438.599227 232.979967 
L 436.498157 154.553332 
L 435.447671 155.458077 
L 434.398157 234.944704 
L 432.297136 158.71887 
L 431.246601 159.618068 
L 430.196455 236.536423 
L 428.095968 159.94396 
L 427.045725 159.734362 
L 425.997135 236.877252 
L 423.894606 160.56265 
L 422.844508 160.568901 
L 421.794751 236.966424 
L 419.693681 160.815503 
L 418.642903 160.822109 
L 417.592708 237.216649 
L 415.492416 162.963639 
L 414.437797 162.876621 
L 413.388234 238.408504 
L 411.286921 164.799342 
L 410.236532 165.20909 
L 409.188088 239.87068 
L 407.085608 167.191205 
L 406.035996 167.611096 
L 404.988719 241.055423 
L 402.884489 169.68606 
L 401.834148 170.303556 
L 400.784731 242.214795 
L 398.683126 172.243016 
L 397.63298 172.93767 
L 396.584974 243.638634 
L 394.482396 174.32846 
L 393.431715 174.393711 
L 392.381861 244.155948 
L 390.281375 176.298578 
L 389.230937 176.821344 
L 388.180645 248.535996 
L 385.970996 162.767499 
L 385.029769 178.208792 
L 383.985555 246.435807 
L 381.882686 179.478204 
L 380.83361 179.836321 
L 379.782345 246.529309 
L 377.681567 179.905515 
L 376.631275 180.044629 
L 375.580983 246.700641 
L 373.480594 180.428674 
L 372.429913 180.365775 
L 371.380642 246.904742 
L 369.280545 180.858726 
L 368.228989 180.86919 
L 367.178453 247.143893 
L 365.077724 181.208206 
L 364.027626 181.472692 
L 362.977286 247.462283 
L 360.876605 181.896221 
L 359.826313 182.077001 
L 358.775972 247.734667 
L 356.675486 182.619508 
L 355.624999 183.032521 
L 354.576701 248.433119 
L 352.474124 183.589029 
L 351.424901 183.818567 
L 350.374755 248.681525 
L 348.272956 184.110409 
L 347.222761 217.897394 
L 345.801415 235.033004 
L 344.072177 184.514684 
L 343.022274 184.778446 
L 341.972323 249.165442 
L 339.87699 185.628651 
L 338.82631 185.702756 
L 337.775774 249.645726 
L 335.676552 187.120334 
L 334.618869 186.704171 
L 333.568577 250.106213 
L 331.468237 187.239754 
L 330.417653 187.605194 
L 329.367556 250.501397 
L 327.26668 188.4097 
L 326.217117 188.786207 
L 325.167652 259.735634 
L 322.727717 128.913087 
L 322.021055 189.466257 
L 320.973973 252.014748 
L 318.864053 190.589517 
L 317.814101 191.12304 
L 316.763615 252.012312 
L 314.669644 191.584342 
L 313.618574 192.098331 
L 312.568671 253.086661 
L 310.468331 194.697294 
L 309.417796 196.280625 
L 308.367698 258.618872 
L 306.150707 186.05972 
L 305.210404 200.182534 
L 304.160063 256.998028 
L 302.05948 201.842469 
L 301.009042 201.897472 
L 299.964099 258.318486 
L 297.857874 204.374601 
L 296.807582 205.178426 
L 295.757631 259.563436 
L 293.657047 206.883594 
L 292.606318 207.457154 
L 291.55622 260.584615 
L 289.461228 209.339373 
L 288.40938 209.399084 
L 287.364097 262.221543 
L 285.254566 212.233664 
L 284.203982 244.76497 
L 282.666715 256.796692 
L 280.817472 186.65401 
L 280.002669 215.756862 
L 278.95228 264.823726 
L 276.856364 217.979369 
L 275.802133 218.346901 
L 274.751404 266.143143 
L 272.650674 220.294831 
L 271.600042 220.913359 
L 270.549896 267.27448 
L 268.455682 220.551202 
L 267.43223 225.858174 
L 266.353979 268.866828 
L 264.247706 225.339991 
L 263.197512 226.227115 
L 262.147025 273.045715 
L 259.892545 213.605212 
L 258.995955 228.503528 
L 257.948094 271.403582 
L 255.844982 246.381695 
L 254.531145 201.950019 
L 253.74469 271.590648 
L 251.644106 230.138537 
L 250.593474 230.706014 
L 249.543133 272.262253 
L 247.442744 232.486518 
L 246.392695 233.24395 
L 245.342014 273.529261 
L 243.242306 234.768447 
L 242.195029 235.9865 
L 241.140555 274.844184 
L 239.039923 237.75101 
L 237.989679 238.605896 
L 236.939387 277.652072 
L 234.757211 234.442745 
L 233.78822 241.050103 
L 232.739435 277.521391 
L 230.637101 242.623026 
L 229.587538 243.268344 
L 228.536809 278.508798 
L 226.435982 244.812797 
L 225.385933 245.657853 
L 224.335252 279.993081 
L 222.234571 262.71232 
L 220.892629 225.941046 
L 220.133842 281.97433 
L 218.037002 252.187932 
L 216.98282 253.550507 
L 215.933744 284.134982 
L 213.83175 257.220546 
L 212.781506 258.380601 
L 211.731263 286.43452 
L 209.630485 261.725934 
L 208.580193 262.791422 
L 207.530144 288.551166 
L 205.42922 265.808728 
L 204.378782 266.844585 
L 203.332769 290.722606 
L 201.232088 269.337366 
L 200.181699 269.889105 
L 199.131407 294.728885 
L 196.705816 270.31357 
L 195.691895 256.803214 
L 194.931649 294.748517 
L 192.632288 279.275569 
L 191.418326 298.912998 
L 188.628196 275.777127 
L 187.578634 276.159771 
L 186.527612 294.866726 
L 184.429314 276.597034 
L 183.379022 276.8361 
L 182.32625 295.042395 
L 180.225472 276.954127 
L 179.175472 280.90524 
L 178.000458 294.024232 
L 176.028097 277.42964 
L 174.975276 278.068485 
L 173.923477 297.754941 
L 171.590759 270.255852 
L 170.778728 280.550874 
L 169.726248 297.969985 
L 167.553408 284.001235 
L 166.509146 283.868214 
L 165.525178 299.97739 
L 163.420607 287.632387 
L 162.370169 288.666449 
L 161.320071 302.565018 
L 159.031116 286.565777 
L 158.169001 291.782621 
L 157.118369 302.821293 
L 155.021092 293.551765 
L 153.970897 294.11007 
L 152.920605 304.121349 
L 150.775238 294.947153 
L 149.770216 296.246168 
L 148.719729 305.033243 
L 146.615207 297.84283 
L 145.565741 298.8027 
L 144.514574 306.666687 
L 142.415352 301.471816 
L 141.363747 302.276036 
L 140.313309 308.482339 
L 138.113191 302.549125 
L 137.164379 304.194203 
L 136.114087 308.822501 
L 133.961912 303.979335 
L 132.963114 304.488019 
L 131.913114 309.124623 
L 129.812092 305.704527 
L 128.762724 306.274635 
L 127.711411 309.911775 
L 125.610827 306.718942 
L 124.560438 306.895311 
L 123.510243 311.149728 
L 111.957519 307.054827 
L 110.9064 310.154755 
L 108.805768 307.404778 
L 107.755622 308.164318 
L 106.705232 310.996031 
L 104.6046 309.729046 
L 103.554016 310.353922 
L 102.508879 312.353538 
L 100.053529 310.848753 
L 99.349542 311.875831 
L 98.296868 312.605804 
L 96.202362 312.181223 
L 95.151778 312.335044 
L 94.101389 312.89201 
L 91.636364 313.2 
z
" style="fill:#ffa07a;fill-opacity:0.3;"/>
   </g>
   <g id="matplotlib.axis_1">
    <g id="xtick_1">
     <g id="line2d_1">
      <path clip-path="url(#p7387196706)" d="M 91.636364 313.2 
L 91.636364 28.8 
" style="fill:none;stroke:#808080;stroke-dasharray:6.4,1.6,1,1.6;stroke-dashoffset:0;stroke-opacity:0.3;"/>
     </g>
     <g id="line2d_2">
      <defs>
       <path d="M 0 0 
L 0 3.5 
" id="m60404016b9" style="stroke:#000000;stroke-width:0.8;"/>
      </defs>
      <g>
       <use style="stroke:#000000;stroke-width:0.8;" x="91.636364" xlink:href="#m60404016b9" y="313.2"/>
      </g>
     </g>
     <g id="text_1">
      <!-- 2020-11-20 -->
      <g transform="translate(62.578551 327.798437)scale(0.1 -0.1)">
       <defs>
        <path d="M 19.1875 8.296875 
L 53.609375 8.296875 
L 53.609375 0 
L 7.328125 0 
L 7.328125 8.296875 
Q 12.9375 14.109375 22.625 23.890625 
Q 32.328125 33.6875 34.8125 36.53125 
Q 39.546875 41.84375 41.421875 45.53125 
Q 43.3125 49.21875 43.3125 52.78125 
Q 43.3125 58.59375 39.234375 62.25 
Q 35.15625 65.921875 28.609375 65.921875 
Q 23.96875 65.921875 18.8125 64.3125 
Q 13.671875 62.703125 7.8125 59.421875 
L 7.8125 69.390625 
Q 13.765625 71.78125 18.9375 73 
Q 24.125 74.21875 28.421875 74.21875 
Q 39.75 74.21875 46.484375 68.546875 
Q 53.21875 62.890625 53.21875 53.421875 
Q 53.21875 48.921875 51.53125 44.890625 
Q 49.859375 40.875 45.40625 35.40625 
Q 44.1875 33.984375 37.640625 27.21875 
Q 31.109375 20.453125 19.1875 8.296875 
z
" id="DejaVuSans-50"/>
        <path d="M 31.78125 66.40625 
Q 24.171875 66.40625 20.328125 58.90625 
Q 16.5 51.421875 16.5 36.375 
Q 16.5 21.390625 20.328125 13.890625 
Q 24.171875 6.390625 31.78125 6.390625 
Q 39.453125 6.390625 43.28125 13.890625 
Q 47.125 21.390625 47.125 36.375 
Q 47.125 51.421875 43.28125 58.90625 
Q 39.453125 66.40625 31.78125 66.40625 
z
M 31.78125 74.21875 
Q 44.046875 74.21875 50.515625 64.515625 
Q 56.984375 54.828125 56.984375 36.375 
Q 56.984375 17.96875 50.515625 8.265625 
Q 44.046875 -1.421875 31.78125 -1.421875 
Q 19.53125 -1.421875 13.0625 8.265625 
Q 6.59375 17.96875 6.59375 36.375 
Q 6.59375 54.828125 13.0625 64.515625 
Q 19.53125 74.21875 31.78125 74.21875 
z
" id="DejaVuSans-48"/>
        <path d="M 4.890625 31.390625 
L 31.203125 31.390625 
L 31.203125 23.390625 
L 4.890625 23.390625 
z
" id="DejaVuSans-45"/>
        <path d="M 12.40625 8.296875 
L 28.515625 8.296875 
L 28.515625 63.921875 
L 10.984375 60.40625 
L 10.984375 69.390625 
L 28.421875 72.90625 
L 38.28125 72.90625 
L 38.28125 8.296875 
L 54.390625 8.296875 
L 54.390625 0 
L 12.40625 0 
z
" id="DejaVuSans-49"/>
       </defs>
       <use xlink:href="#DejaVuSans-50"/>
       <use x="63.623047" xlink:href="#DejaVuSans-48"/>
       <use x="127.246094" xlink:href="#DejaVuSans-50"/>
       <use x="190.869141" xlink:href="#DejaVuSans-48"/>
       <use x="254.492188" xlink:href="#DejaVuSans-45"/>
       <use x="290.576172" xlink:href="#DejaVuSans-49"/>
       <use x="354.199219" xlink:href="#DejaVuSans-49"/>
       <use x="417.822266" xlink:href="#DejaVuSans-45"/>
       <use x="453.90625" xlink:href="#DejaVuSans-50"/>
       <use x="517.529297" xlink:href="#DejaVuSans-48"/>
      </g>
     </g>
    </g>
    <g id="xtick_2">
     <g id="line2d_3">
      <path clip-path="url(#p7387196706)" d="M 167.857548 313.2 
L 167.857548 28.8 
" style="fill:none;stroke:#808080;stroke-dasharray:6.4,1.6,1,1.6;stroke-dashoffset:0;stroke-opacity:0.3;"/>
     </g>
     <g id="line2d_4">
      <g>
       <use style="stroke:#000000;stroke-width:0.8;" x="167.857548" xlink:href="#m60404016b9" y="313.2"/>
      </g>
     </g>
     <g id="text_2">
      <!-- 2020-12-09 -->
      <g transform="translate(138.799736 327.798437)scale(0.1 -0.1)">
       <defs>
        <path d="M 10.984375 1.515625 
L 10.984375 10.5 
Q 14.703125 8.734375 18.5 7.8125 
Q 22.3125 6.890625 25.984375 6.890625 
Q 35.75 6.890625 40.890625 13.453125 
Q 46.046875 20.015625 46.78125 33.40625 
Q 43.953125 29.203125 39.59375 26.953125 
Q 35.25 24.703125 29.984375 24.703125 
Q 19.046875 24.703125 12.671875 31.3125 
Q 6.296875 37.9375 6.296875 49.421875 
Q 6.296875 60.640625 12.9375 67.421875 
Q 19.578125 74.21875 30.609375 74.21875 
Q 43.265625 74.21875 49.921875 64.515625 
Q 56.59375 54.828125 56.59375 36.375 
Q 56.59375 19.140625 48.40625 8.859375 
Q 40.234375 -1.421875 26.421875 -1.421875 
Q 22.703125 -1.421875 18.890625 -0.6875 
Q 15.09375 0.046875 10.984375 1.515625 
z
M 30.609375 32.421875 
Q 37.25 32.421875 41.125 36.953125 
Q 45.015625 41.5 45.015625 49.421875 
Q 45.015625 57.28125 41.125 61.84375 
Q 37.25 66.40625 30.609375 66.40625 
Q 23.96875 66.40625 20.09375 61.84375 
Q 16.21875 57.28125 16.21875 49.421875 
Q 16.21875 41.5 20.09375 36.953125 
Q 23.96875 32.421875 30.609375 32.421875 
z
" id="DejaVuSans-57"/>
       </defs>
       <use xlink:href="#DejaVuSans-50"/>
       <use x="63.623047" xlink:href="#DejaVuSans-48"/>
       <use x="127.246094" xlink:href="#DejaVuSans-50"/>
       <use x="190.869141" xlink:href="#DejaVuSans-48"/>
       <use x="254.492188" xlink:href="#DejaVuSans-45"/>
       <use x="290.576172" xlink:href="#DejaVuSans-49"/>
       <use x="354.199219" xlink:href="#DejaVuSans-50"/>
       <use x="417.822266" xlink:href="#DejaVuSans-45"/>
       <use x="453.90625" xlink:href="#DejaVuSans-48"/>
       <use x="517.529297" xlink:href="#DejaVuSans-57"/>
      </g>
     </g>
    </g>
    <g id="xtick_3">
     <g id="line2d_5">
      <path clip-path="url(#p7387196706)" d="M 244.078733 313.2 
L 244.078733 28.8 
" style="fill:none;stroke:#808080;stroke-dasharray:6.4,1.6,1,1.6;stroke-dashoffset:0;stroke-opacity:0.3;"/>
     </g>
     <g id="line2d_6">
      <g>
       <use style="stroke:#000000;stroke-width:0.8;" x="244.078733" xlink:href="#m60404016b9" y="313.2"/>
      </g>
     </g>
     <g id="text_3">
      <!-- 2020-12-27 -->
      <g transform="translate(215.02092 327.798437)scale(0.1 -0.1)">
       <defs>
        <path d="M 8.203125 72.90625 
L 55.078125 72.90625 
L 55.078125 68.703125 
L 28.609375 0 
L 18.3125 0 
L 43.21875 64.59375 
L 8.203125 64.59375 
z
" id="DejaVuSans-55"/>
       </defs>
       <use xlink:href="#DejaVuSans-50"/>
       <use x="63.623047" xlink:href="#DejaVuSans-48"/>
       <use x="127.246094" xlink:href="#DejaVuSans-50"/>
       <use x="190.869141" xlink:href="#DejaVuSans-48"/>
       <use x="254.492188" xlink:href="#DejaVuSans-45"/>
       <use x="290.576172" xlink:href="#DejaVuSans-49"/>
       <use x="354.199219" xlink:href="#DejaVuSans-50"/>
       <use x="417.822266" xlink:href="#DejaVuSans-45"/>
       <use x="453.90625" xlink:href="#DejaVuSans-50"/>
       <use x="517.529297" xlink:href="#DejaVuSans-55"/>
      </g>
     </g>
    </g>
    <g id="xtick_4">
     <g id="line2d_7">
      <path clip-path="url(#p7387196706)" d="M 320.299917 313.2 
L 320.299917 28.8 
" style="fill:none;stroke:#808080;stroke-dasharray:6.4,1.6,1,1.6;stroke-dashoffset:0;stroke-opacity:0.3;"/>
     </g>
     <g id="line2d_8">
      <g>
       <use style="stroke:#000000;stroke-width:0.8;" x="320.299917" xlink:href="#m60404016b9" y="313.2"/>
      </g>
     </g>
     <g id="text_4">
      <!-- 2021-01-14 -->
      <g transform="translate(291.242105 327.798437)scale(0.1 -0.1)">
       <defs>
        <path d="M 37.796875 64.3125 
L 12.890625 25.390625 
L 37.796875 25.390625 
z
M 35.203125 72.90625 
L 47.609375 72.90625 
L 47.609375 25.390625 
L 58.015625 25.390625 
L 58.015625 17.1875 
L 47.609375 17.1875 
L 47.609375 0 
L 37.796875 0 
L 37.796875 17.1875 
L 4.890625 17.1875 
L 4.890625 26.703125 
z
" id="DejaVuSans-52"/>
       </defs>
       <use xlink:href="#DejaVuSans-50"/>
       <use x="63.623047" xlink:href="#DejaVuSans-48"/>
       <use x="127.246094" xlink:href="#DejaVuSans-50"/>
       <use x="190.869141" xlink:href="#DejaVuSans-49"/>
       <use x="254.492188" xlink:href="#DejaVuSans-45"/>
       <use x="290.576172" xlink:href="#DejaVuSans-48"/>
       <use x="354.199219" xlink:href="#DejaVuSans-49"/>
       <use x="417.822266" xlink:href="#DejaVuSans-45"/>
       <use x="453.90625" xlink:href="#DejaVuSans-49"/>
       <use x="517.529297" xlink:href="#DejaVuSans-52"/>
      </g>
     </g>
    </g>
    <g id="xtick_5">
     <g id="line2d_9">
      <path clip-path="url(#p7387196706)" d="M 396.521102 313.2 
L 396.521102 28.8 
" style="fill:none;stroke:#808080;stroke-dasharray:6.4,1.6,1,1.6;stroke-dashoffset:0;stroke-opacity:0.3;"/>
     </g>
     <g id="line2d_10">
      <g>
       <use style="stroke:#000000;stroke-width:0.8;" x="396.521102" xlink:href="#m60404016b9" y="313.2"/>
      </g>
     </g>
     <g id="text_5">
      <!-- 2021-02-01 -->
      <g transform="translate(367.463289 327.798437)scale(0.1 -0.1)">
       <use xlink:href="#DejaVuSans-50"/>
       <use x="63.623047" xlink:href="#DejaVuSans-48"/>
       <use x="127.246094" xlink:href="#DejaVuSans-50"/>
       <use x="190.869141" xlink:href="#DejaVuSans-49"/>
       <use x="254.492188" xlink:href="#DejaVuSans-45"/>
       <use x="290.576172" xlink:href="#DejaVuSans-48"/>
       <use x="354.199219" xlink:href="#DejaVuSans-50"/>
       <use x="417.822266" xlink:href="#DejaVuSans-45"/>
       <use x="453.90625" xlink:href="#DejaVuSans-48"/>
       <use x="517.529297" xlink:href="#DejaVuSans-49"/>
      </g>
     </g>
    </g>
    <g id="xtick_6">
     <g id="line2d_11">
      <path clip-path="url(#p7387196706)" d="M 472.742286 313.2 
L 472.742286 28.8 
" style="fill:none;stroke:#808080;stroke-dasharray:6.4,1.6,1,1.6;stroke-dashoffset:0;stroke-opacity:0.3;"/>
     </g>
     <g id="line2d_12">
      <g>
       <use style="stroke:#000000;stroke-width:0.8;" x="472.742286" xlink:href="#m60404016b9" y="313.2"/>
      </g>
     </g>
     <g id="text_6">
      <!-- 2021-02-19 -->
      <g transform="translate(443.684474 327.798437)scale(0.1 -0.1)">
       <use xlink:href="#DejaVuSans-50"/>
       <use x="63.623047" xlink:href="#DejaVuSans-48"/>
       <use x="127.246094" xlink:href="#DejaVuSans-50"/>
       <use x="190.869141" xlink:href="#DejaVuSans-49"/>
       <use x="254.492188" xlink:href="#DejaVuSans-45"/>
       <use x="290.576172" xlink:href="#DejaVuSans-48"/>
       <use x="354.199219" xlink:href="#DejaVuSans-50"/>
       <use x="417.822266" xlink:href="#DejaVuSans-45"/>
       <use x="453.90625" xlink:href="#DejaVuSans-49"/>
       <use x="517.529297" xlink:href="#DejaVuSans-57"/>
      </g>
     </g>
    </g>
    <g id="xtick_7">
     <g id="line2d_13">
      <path clip-path="url(#p7387196706)" d="M 548.963471 313.2 
L 548.963471 28.8 
" style="fill:none;stroke:#808080;stroke-dasharray:6.4,1.6,1,1.6;stroke-dashoffset:0;stroke-opacity:0.3;"/>
     </g>
     <g id="line2d_14">
      <g>
       <use style="stroke:#000000;stroke-width:0.8;" x="548.963471" xlink:href="#m60404016b9" y="313.2"/>
      </g>
     </g>
     <g id="text_7">
      <!-- 2021-03-09 -->
      <g transform="translate(519.905659 327.798437)scale(0.1 -0.1)">
       <defs>
        <path d="M 40.578125 39.3125 
Q 47.65625 37.796875 51.625 33 
Q 55.609375 28.21875 55.609375 21.1875 
Q 55.609375 10.40625 48.1875 4.484375 
Q 40.765625 -1.421875 27.09375 -1.421875 
Q 22.515625 -1.421875 17.65625 -0.515625 
Q 12.796875 0.390625 7.625 2.203125 
L 7.625 11.71875 
Q 11.71875 9.328125 16.59375 8.109375 
Q 21.484375 6.890625 26.8125 6.890625 
Q 36.078125 6.890625 40.9375 10.546875 
Q 45.796875 14.203125 45.796875 21.1875 
Q 45.796875 27.640625 41.28125 31.265625 
Q 36.765625 34.90625 28.71875 34.90625 
L 20.21875 34.90625 
L 20.21875 43.015625 
L 29.109375 43.015625 
Q 36.375 43.015625 40.234375 45.921875 
Q 44.09375 48.828125 44.09375 54.296875 
Q 44.09375 59.90625 40.109375 62.90625 
Q 36.140625 65.921875 28.71875 65.921875 
Q 24.65625 65.921875 20.015625 65.03125 
Q 15.375 64.15625 9.8125 62.3125 
L 9.8125 71.09375 
Q 15.4375 72.65625 20.34375 73.4375 
Q 25.25 74.21875 29.59375 74.21875 
Q 40.828125 74.21875 47.359375 69.109375 
Q 53.90625 64.015625 53.90625 55.328125 
Q 53.90625 49.265625 50.4375 45.09375 
Q 46.96875 40.921875 40.578125 39.3125 
z
" id="DejaVuSans-51"/>
       </defs>
       <use xlink:href="#DejaVuSans-50"/>
       <use x="63.623047" xlink:href="#DejaVuSans-48"/>
       <use x="127.246094" xlink:href="#DejaVuSans-50"/>
       <use x="190.869141" xlink:href="#DejaVuSans-49"/>
       <use x="254.492188" xlink:href="#DejaVuSans-45"/>
       <use x="290.576172" xlink:href="#DejaVuSans-48"/>
       <use x="354.199219" xlink:href="#DejaVuSans-51"/>
       <use x="417.822266" xlink:href="#DejaVuSans-45"/>
       <use x="453.90625" xlink:href="#DejaVuSans-48"/>
       <use x="517.529297" xlink:href="#DejaVuSans-57"/>
      </g>
     </g>
    </g>
    <g id="xtick_8">
     <g id="line2d_15">
      <path clip-path="url(#p7387196706)" d="M 625.184656 313.2 
L 625.184656 28.8 
" style="fill:none;stroke:#808080;stroke-dasharray:6.4,1.6,1,1.6;stroke-dashoffset:0;stroke-opacity:0.3;"/>
     </g>
     <g id="line2d_16">
      <g>
       <use style="stroke:#000000;stroke-width:0.8;" x="625.184656" xlink:href="#m60404016b9" y="313.2"/>
      </g>
     </g>
     <g id="text_8">
      <!-- 2021-03-27 -->
      <g transform="translate(596.126843 327.798437)scale(0.1 -0.1)">
       <use xlink:href="#DejaVuSans-50"/>
       <use x="63.623047" xlink:href="#DejaVuSans-48"/>
       <use x="127.246094" xlink:href="#DejaVuSans-50"/>
       <use x="190.869141" xlink:href="#DejaVuSans-49"/>
       <use x="254.492188" xlink:href="#DejaVuSans-45"/>
       <use x="290.576172" xlink:href="#DejaVuSans-48"/>
       <use x="354.199219" xlink:href="#DejaVuSans-51"/>
       <use x="417.822266" xlink:href="#DejaVuSans-45"/>
       <use x="453.90625" xlink:href="#DejaVuSans-50"/>
       <use x="517.529297" xlink:href="#DejaVuSans-55"/>
      </g>
     </g>
    </g>
    <g id="text_9">
     <!-- Datum -->
     <g transform="translate(343.086719 341.476562)scale(0.1 -0.1)">
      <defs>
       <path d="M 19.671875 64.796875 
L 19.671875 8.109375 
L 31.59375 8.109375 
Q 46.6875 8.109375 53.6875 14.9375 
Q 60.6875 21.78125 60.6875 36.53125 
Q 60.6875 51.171875 53.6875 57.984375 
Q 46.6875 64.796875 31.59375 64.796875 
z
M 9.8125 72.90625 
L 30.078125 72.90625 
Q 51.265625 72.90625 61.171875 64.09375 
Q 71.09375 55.28125 71.09375 36.53125 
Q 71.09375 17.671875 61.125 8.828125 
Q 51.171875 0 30.078125 0 
L 9.8125 0 
z
" id="DejaVuSans-68"/>
       <path d="M 34.28125 27.484375 
Q 23.390625 27.484375 19.1875 25 
Q 14.984375 22.515625 14.984375 16.5 
Q 14.984375 11.71875 18.140625 8.90625 
Q 21.296875 6.109375 26.703125 6.109375 
Q 34.1875 6.109375 38.703125 11.40625 
Q 43.21875 16.703125 43.21875 25.484375 
L 43.21875 27.484375 
z
M 52.203125 31.203125 
L 52.203125 0 
L 43.21875 0 
L 43.21875 8.296875 
Q 40.140625 3.328125 35.546875 0.953125 
Q 30.953125 -1.421875 24.3125 -1.421875 
Q 15.921875 -1.421875 10.953125 3.296875 
Q 6 8.015625 6 15.921875 
Q 6 25.140625 12.171875 29.828125 
Q 18.359375 34.515625 30.609375 34.515625 
L 43.21875 34.515625 
L 43.21875 35.40625 
Q 43.21875 41.609375 39.140625 45 
Q 35.0625 48.390625 27.6875 48.390625 
Q 23 48.390625 18.546875 47.265625 
Q 14.109375 46.140625 10.015625 43.890625 
L 10.015625 52.203125 
Q 14.9375 54.109375 19.578125 55.046875 
Q 24.21875 56 28.609375 56 
Q 40.484375 56 46.34375 49.84375 
Q 52.203125 43.703125 52.203125 31.203125 
z
" id="DejaVuSans-97"/>
       <path d="M 18.3125 70.21875 
L 18.3125 54.6875 
L 36.8125 54.6875 
L 36.8125 47.703125 
L 18.3125 47.703125 
L 18.3125 18.015625 
Q 18.3125 11.328125 20.140625 9.421875 
Q 21.96875 7.515625 27.59375 7.515625 
L 36.8125 7.515625 
L 36.8125 0 
L 27.59375 0 
Q 17.1875 0 13.234375 3.875 
Q 9.28125 7.765625 9.28125 18.015625 
L 9.28125 47.703125 
L 2.6875 47.703125 
L 2.6875 54.6875 
L 9.28125 54.6875 
L 9.28125 70.21875 
z
" id="DejaVuSans-116"/>
       <path d="M 8.5 21.578125 
L 8.5 54.6875 
L 17.484375 54.6875 
L 17.484375 21.921875 
Q 17.484375 14.15625 20.5 10.265625 
Q 23.53125 6.390625 29.59375 6.390625 
Q 36.859375 6.390625 41.078125 11.03125 
Q 45.3125 15.671875 45.3125 23.6875 
L 45.3125 54.6875 
L 54.296875 54.6875 
L 54.296875 0 
L 45.3125 0 
L 45.3125 8.40625 
Q 42.046875 3.421875 37.71875 1 
Q 33.40625 -1.421875 27.6875 -1.421875 
Q 18.265625 -1.421875 13.375 4.4375 
Q 8.5 10.296875 8.5 21.578125 
z
M 31.109375 56 
z
" id="DejaVuSans-117"/>
       <path d="M 52 44.1875 
Q 55.375 50.25 60.0625 53.125 
Q 64.75 56 71.09375 56 
Q 79.640625 56 84.28125 50.015625 
Q 88.921875 44.046875 88.921875 33.015625 
L 88.921875 0 
L 79.890625 0 
L 79.890625 32.71875 
Q 79.890625 40.578125 77.09375 44.375 
Q 74.3125 48.1875 68.609375 48.1875 
Q 61.625 48.1875 57.5625 43.546875 
Q 53.515625 38.921875 53.515625 30.90625 
L 53.515625 0 
L 44.484375 0 
L 44.484375 32.71875 
Q 44.484375 40.625 41.703125 44.40625 
Q 38.921875 48.1875 33.109375 48.1875 
Q 26.21875 48.1875 22.15625 43.53125 
Q 18.109375 38.875 18.109375 30.90625 
L 18.109375 0 
L 9.078125 0 
L 9.078125 54.6875 
L 18.109375 54.6875 
L 18.109375 46.1875 
Q 21.1875 51.21875 25.484375 53.609375 
Q 29.78125 56 35.6875 56 
Q 41.65625 56 45.828125 52.96875 
Q 50 49.953125 52 44.1875 
z
" id="DejaVuSans-109"/>
      </defs>
      <use xlink:href="#DejaVuSans-68"/>
      <use x="77.001953" xlink:href="#DejaVuSans-97"/>
      <use x="138.28125" xlink:href="#DejaVuSans-116"/>
      <use x="177.490234" xlink:href="#DejaVuSans-117"/>
      <use x="240.869141" xlink:href="#DejaVuSans-109"/>
     </g>
    </g>
   </g>
   <g id="matplotlib.axis_2">
    <g id="ytick_1">
     <g id="line2d_17">
      <path clip-path="url(#p7387196706)" d="M 64.8 313.2 
L 655.2 313.2 
" style="fill:none;stroke:#808080;stroke-dasharray:6.4,1.6,1,1.6;stroke-dashoffset:0;stroke-opacity:0.3;"/>
     </g>
     <g id="line2d_18">
      <defs>
       <path d="M 0 0 
L -3.5 0 
" id="mbfad38cc10" style="stroke:#000000;stroke-width:0.8;"/>
      </defs>
      <g>
       <use style="stroke:#000000;stroke-width:0.8;" x="64.8" xlink:href="#mbfad38cc10" y="313.2"/>
      </g>
     </g>
     <g id="text_10">
      <!-- 0 -->
      <g transform="translate(51.4375 316.999219)scale(0.1 -0.1)">
       <use xlink:href="#DejaVuSans-48"/>
      </g>
     </g>
    </g>
    <g id="ytick_2">
     <g id="line2d_19">
      <path clip-path="url(#p7387196706)" d="M 64.8 277.65 
L 655.2 277.65 
" style="fill:none;stroke:#808080;stroke-dasharray:6.4,1.6,1,1.6;stroke-dashoffset:0;stroke-opacity:0.3;"/>
     </g>
     <g id="line2d_20">
      <g>
       <use style="stroke:#000000;stroke-width:0.8;" x="64.8" xlink:href="#mbfad38cc10" y="277.65"/>
      </g>
     </g>
     <g id="text_11">
      <!-- 500 -->
      <g transform="translate(38.7125 281.449219)scale(0.1 -0.1)">
       <defs>
        <path d="M 10.796875 72.90625 
L 49.515625 72.90625 
L 49.515625 64.59375 
L 19.828125 64.59375 
L 19.828125 46.734375 
Q 21.96875 47.46875 24.109375 47.828125 
Q 26.265625 48.1875 28.421875 48.1875 
Q 40.625 48.1875 47.75 41.5 
Q 54.890625 34.8125 54.890625 23.390625 
Q 54.890625 11.625 47.5625 5.09375 
Q 40.234375 -1.421875 26.90625 -1.421875 
Q 22.3125 -1.421875 17.546875 -0.640625 
Q 12.796875 0.140625 7.71875 1.703125 
L 7.71875 11.625 
Q 12.109375 9.234375 16.796875 8.0625 
Q 21.484375 6.890625 26.703125 6.890625 
Q 35.15625 6.890625 40.078125 11.328125 
Q 45.015625 15.765625 45.015625 23.390625 
Q 45.015625 31 40.078125 35.4375 
Q 35.15625 39.890625 26.703125 39.890625 
Q 22.75 39.890625 18.8125 39.015625 
Q 14.890625 38.140625 10.796875 36.28125 
z
" id="DejaVuSans-53"/>
       </defs>
       <use xlink:href="#DejaVuSans-53"/>
       <use x="63.623047" xlink:href="#DejaVuSans-48"/>
       <use x="127.246094" xlink:href="#DejaVuSans-48"/>
      </g>
     </g>
    </g>
    <g id="ytick_3">
     <g id="line2d_21">
      <path clip-path="url(#p7387196706)" d="M 64.8 242.1 
L 655.2 242.1 
" style="fill:none;stroke:#808080;stroke-dasharray:6.4,1.6,1,1.6;stroke-dashoffset:0;stroke-opacity:0.3;"/>
     </g>
     <g id="line2d_22">
      <g>
       <use style="stroke:#000000;stroke-width:0.8;" x="64.8" xlink:href="#mbfad38cc10" y="242.1"/>
      </g>
     </g>
     <g id="text_12">
      <!-- 1000 -->
      <g transform="translate(32.35 245.899219)scale(0.1 -0.1)">
       <use xlink:href="#DejaVuSans-49"/>
       <use x="63.623047" xlink:href="#DejaVuSans-48"/>
       <use x="127.246094" xlink:href="#DejaVuSans-48"/>
       <use x="190.869141" xlink:href="#DejaVuSans-48"/>
      </g>
     </g>
    </g>
    <g id="ytick_4">
     <g id="line2d_23">
      <path clip-path="url(#p7387196706)" d="M 64.8 206.55 
L 655.2 206.55 
" style="fill:none;stroke:#808080;stroke-dasharray:6.4,1.6,1,1.6;stroke-dashoffset:0;stroke-opacity:0.3;"/>
     </g>
     <g id="line2d_24">
      <g>
       <use style="stroke:#000000;stroke-width:0.8;" x="64.8" xlink:href="#mbfad38cc10" y="206.55"/>
      </g>
     </g>
     <g id="text_13">
      <!-- 1500 -->
      <g transform="translate(32.35 210.349219)scale(0.1 -0.1)">
       <use xlink:href="#DejaVuSans-49"/>
       <use x="63.623047" xlink:href="#DejaVuSans-53"/>
       <use x="127.246094" xlink:href="#DejaVuSans-48"/>
       <use x="190.869141" xlink:href="#DejaVuSans-48"/>
      </g>
     </g>
    </g>
    <g id="ytick_5">
     <g id="line2d_25">
      <path clip-path="url(#p7387196706)" d="M 64.8 171 
L 655.2 171 
" style="fill:none;stroke:#808080;stroke-dasharray:6.4,1.6,1,1.6;stroke-dashoffset:0;stroke-opacity:0.3;"/>
     </g>
     <g id="line2d_26">
      <g>
       <use style="stroke:#000000;stroke-width:0.8;" x="64.8" xlink:href="#mbfad38cc10" y="171"/>
      </g>
     </g>
     <g id="text_14">
      <!-- 2000 -->
      <g transform="translate(32.35 174.799219)scale(0.1 -0.1)">
       <use xlink:href="#DejaVuSans-50"/>
       <use x="63.623047" xlink:href="#DejaVuSans-48"/>
       <use x="127.246094" xlink:href="#DejaVuSans-48"/>
       <use x="190.869141" xlink:href="#DejaVuSans-48"/>
      </g>
     </g>
    </g>
    <g id="ytick_6">
     <g id="line2d_27">
      <path clip-path="url(#p7387196706)" d="M 64.8 135.45 
L 655.2 135.45 
" style="fill:none;stroke:#808080;stroke-dasharray:6.4,1.6,1,1.6;stroke-dashoffset:0;stroke-opacity:0.3;"/>
     </g>
     <g id="line2d_28">
      <g>
       <use style="stroke:#000000;stroke-width:0.8;" x="64.8" xlink:href="#mbfad38cc10" y="135.45"/>
      </g>
     </g>
     <g id="text_15">
      <!-- 2500 -->
      <g transform="translate(32.35 139.249219)scale(0.1 -0.1)">
       <use xlink:href="#DejaVuSans-50"/>
       <use x="63.623047" xlink:href="#DejaVuSans-53"/>
       <use x="127.246094" xlink:href="#DejaVuSans-48"/>
       <use x="190.869141" xlink:href="#DejaVuSans-48"/>
      </g>
     </g>
    </g>
    <g id="ytick_7">
     <g id="line2d_29">
      <path clip-path="url(#p7387196706)" d="M 64.8 99.9 
L 655.2 99.9 
" style="fill:none;stroke:#808080;stroke-dasharray:6.4,1.6,1,1.6;stroke-dashoffset:0;stroke-opacity:0.3;"/>
     </g>
     <g id="line2d_30">
      <g>
       <use style="stroke:#000000;stroke-width:0.8;" x="64.8" xlink:href="#mbfad38cc10" y="99.9"/>
      </g>
     </g>
     <g id="text_16">
      <!-- 3000 -->
      <g transform="translate(32.35 103.699219)scale(0.1 -0.1)">
       <use xlink:href="#DejaVuSans-51"/>
       <use x="63.623047" xlink:href="#DejaVuSans-48"/>
       <use x="127.246094" xlink:href="#DejaVuSans-48"/>
       <use x="190.869141" xlink:href="#DejaVuSans-48"/>
      </g>
     </g>
    </g>
    <g id="ytick_8">
     <g id="line2d_31">
      <path clip-path="url(#p7387196706)" d="M 64.8 64.35 
L 655.2 64.35 
" style="fill:none;stroke:#808080;stroke-dasharray:6.4,1.6,1,1.6;stroke-dashoffset:0;stroke-opacity:0.3;"/>
     </g>
     <g id="line2d_32">
      <g>
       <use style="stroke:#000000;stroke-width:0.8;" x="64.8" xlink:href="#mbfad38cc10" y="64.35"/>
      </g>
     </g>
     <g id="text_17">
      <!-- 3500 -->
      <g transform="translate(32.35 68.149219)scale(0.1 -0.1)">
       <use xlink:href="#DejaVuSans-51"/>
       <use x="63.623047" xlink:href="#DejaVuSans-53"/>
       <use x="127.246094" xlink:href="#DejaVuSans-48"/>
       <use x="190.869141" xlink:href="#DejaVuSans-48"/>
      </g>
     </g>
    </g>
    <g id="ytick_9">
     <g id="line2d_33">
      <path clip-path="url(#p7387196706)" d="M 64.8 28.8 
L 655.2 28.8 
" style="fill:none;stroke:#808080;stroke-dasharray:6.4,1.6,1,1.6;stroke-dashoffset:0;stroke-opacity:0.3;"/>
     </g>
     <g id="line2d_34">
      <g>
       <use style="stroke:#000000;stroke-width:0.8;" x="64.8" xlink:href="#mbfad38cc10" y="28.8"/>
      </g>
     </g>
     <g id="text_18">
      <!-- 4000 -->
      <g transform="translate(32.35 32.599219)scale(0.1 -0.1)">
       <use xlink:href="#DejaVuSans-52"/>
       <use x="63.623047" xlink:href="#DejaVuSans-48"/>
       <use x="127.246094" xlink:href="#DejaVuSans-48"/>
       <use x="190.869141" xlink:href="#DejaVuSans-48"/>
      </g>
     </g>
    </g>
   </g>
   <g id="line2d_35">
    <path clip-path="url(#p7387196706)" d="M 91.636364 313.117335 
L 94.101389 312.82312 
L 96.202362 312.229436 
L 98.296868 311.921476 
L 99.349542 311.602847 
L 100.053529 311.27349 
L 102.508879 310.935238 
L 104.6046 310.247121 
L 106.705232 309.9064 
L 108.805768 309.250144 
L 110.9064 308.937332 
L 111.957519 308.633332 
L 123.510243 308.335078 
L 125.610827 307.73967 
L 127.711411 307.434313 
L 129.812092 306.790479 
L 131.913114 306.445554 
L 133.961912 305.691389 
L 136.114087 305.273232 
L 138.113191 304.33169 
L 140.313309 303.801564 
L 142.415352 302.620038 
L 144.514574 301.974382 
L 146.615207 300.599814 
L 148.719729 299.882701 
L 150.775238 298.410315 
L 152.920605 297.658013 
L 155.021092 296.113444 
L 157.118369 295.313434 
L 158.169001 294.488723 
L 159.031116 293.635336 
L 161.320071 292.751346 
L 163.420607 290.902529 
L 165.525178 289.95582 
L 167.553408 288.10249 
L 169.726248 287.240363 
L 171.590759 285.7521 
L 173.923477 285.154708 
L 176.028097 284.266776 
L 186.527612 282.598126 
L 188.628196 281.760655 
L 191.418326 281.204241 
L 192.632288 280.560715 
L 194.931649 279.842613 
L 195.691895 279.066515 
L 196.705816 278.249242 
L 199.131407 277.404146 
L 201.232088 275.652638 
L 203.332769 274.740303 
L 205.42922 272.793919 
L 207.530144 271.738786 
L 209.630485 269.440886 
L 211.731263 268.207684 
L 213.83175 265.648064 
L 215.933744 264.367188 
L 218.037002 261.925181 
L 220.133842 260.802621 
L 220.892629 259.759492 
L 222.234571 258.795525 
L 224.335252 257.902796 
L 226.435982 256.276683 
L 228.536809 255.514257 
L 230.637101 254.03843 
L 232.739435 253.316051 
L 234.757211 251.898342 
L 236.939387 251.201407 
L 239.039923 249.812435 
L 241.140555 249.107335 
L 243.242306 247.645595 
L 245.342014 246.885526 
L 247.442744 245.334942 
L 249.543133 244.569708 
L 251.644106 243.138303 
L 253.74469 242.499312 
L 254.531145 241.921473 
L 255.844982 241.404035 
L 257.948094 240.939306 
L 259.892545 240.109433 
L 262.147025 239.706584 
L 264.247706 238.826342 
L 266.353979 238.315387 
L 268.455682 237.101103 
L 270.549896 236.396585 
L 272.650674 234.847643 
L 274.751404 234.046319 
L 276.856364 232.518819 
L 278.95228 231.834052 
L 280.817472 230.649574 
L 284.203982 229.608843 
L 285.254566 229.076146 
L 287.364097 228.500543 
L 289.461228 227.164134 
L 291.55622 226.400132 
L 293.657047 224.725729 
L 295.757631 223.84009 
L 297.857874 222.020061 
L 299.964099 221.097585 
L 302.05948 219.249662 
L 304.160063 218.332077 
L 306.150707 216.516188 
L 308.367698 215.608326 
L 310.468331 213.733264 
L 312.568671 212.738295 
L 314.669644 210.61491 
L 316.763615 209.521396 
L 318.864053 207.480515 
L 320.973973 206.646336 
L 322.727717 205.591194 
L 326.217117 205.435876 
L 330.417653 206.275863 
L 331.468237 206.613953 
L 337.775774 207.432462 
L 339.87699 207.600152 
L 345.801415 207.701363 
L 348.272956 207.420203 
L 350.374755 207.154865 
L 352.474124 206.415475 
L 354.576701 205.983776 
L 356.675486 205.120428 
L 358.775972 204.728528 
L 360.876605 204.072921 
L 364.027626 203.581504 
L 365.077724 203.381674 
L 368.228989 203.032747 
L 369.280545 202.867028 
L 372.429913 202.510048 
L 373.480594 202.300908 
L 375.580983 202.060283 
L 377.681567 201.464288 
L 379.782345 201.108505 
L 381.882686 200.313745 
L 383.985555 199.897573 
L 385.970996 199.083755 
L 388.180645 198.698245 
L 390.281375 197.958777 
L 392.381861 197.585914 
L 394.482396 196.773922 
L 396.584974 196.31545 
L 398.683126 195.274071 
L 400.784731 194.695616 
L 402.884489 193.455082 
L 404.988719 192.809587 
L 407.085608 191.5098 
L 409.188088 190.871073 
L 411.286921 189.651756 
L 413.388234 189.08421 
L 415.492416 188.059331 
L 417.592708 187.607503 
L 419.693681 186.818351 
L 421.794751 186.468033 
L 423.894606 185.7962 
L 425.997135 185.441666 
L 428.095968 184.598297 
L 430.196455 184.068116 
L 432.297136 182.689722 
L 434.398157 181.806747 
L 436.498157 179.604897 
L 438.599227 178.294606 
L 440.699665 175.375612 
L 442.797186 173.853369 
L 444.900687 170.940691 
L 447.001271 169.636939 
L 447.738274 168.466291 
L 449.101806 167.427205 
L 451.202585 166.500186 
L 453.303168 164.859303 
L 455.403995 164.088988 
L 457.505357 162.595776 
L 459.605406 161.894648 
L 461.705504 160.694411 
L 463.806233 160.233392 
L 464.724898 159.874 
L 465.907109 159.608096 
L 480.607014 158.247292 
L 482.708862 157.848071 
L 484.812363 157.621421 
L 486.913093 157.111879 
L 489.025639 156.832581 
L 491.122624 156.244484 
L 493.217373 155.945236 
L 495.315331 155.353329 
L 497.42705 155.061094 
L 499.524327 154.462495 
L 501.619417 154.138824 
L 503.718979 153.388023 
L 505.820293 152.941487 
L 507.919466 151.887155 
L 510.020099 151.289762 
L 512.120439 150.026692 
L 514.223163 149.402803 
L 516.187743 148.281901 
L 518.434347 147.824848 
L 520.531284 147.192474 
L 523.674185 146.984559 
L 526.828659 147.174635 
L 528.925791 147.614788 
L 533.129584 148.152439 
L 535.222826 148.136414 
L 536.27302 147.957898 
L 537.323215 147.587734 
L 539.426327 147.010402 
L 540.474528 146.230499 
L 541.527981 145.278534 
L 543.629829 144.213604 
L 545.725745 142.103707 
L 547.833768 141.267114 
L 548.876718 140.701393 
L 549.579733 140.464281 
L 552.03586 140.569088 
L 553.082116 140.981344 
L 554.132651 141.625548 
L 556.237416 142.400042 
L 558.333867 143.922112 
L 560.438778 144.512333 
L 561.485424 144.943808 
L 562.535375 145.233747 
L 565.686202 145.61514 
L 566.736348 145.856334 
L 568.846317 146.222618 
L 569.888683 146.754169 
L 570.805695 147.457496 
L 573.041892 148.303857 
L 575.139462 150.173846 
L 578.290143 151.041101 
L 579.340143 151.768469 
L 583.541797 152.848959 
L 594.044521 153.143001 
L 595.095202 153.480807 
L 596.145348 154.087639 
L 598.246419 155.006133 
L 599.296321 156.224775 
L 600.346516 157.668344 
L 603.513389 159.196264 
L 604.548024 160.609465 
L 608.749192 162.096079 
L 611.90459 161.632671 
L 612.950262 160.024759 
L 616.104444 157.062832 
L 617.158091 152.596968 
L 620.305126 146.555259 
L 621.354494 138.957068 
L 623.459114 129.92659 
L 625.537233 108.56589 
L 627.597701 96.934268 
L 628.363636 85.302645 
L 628.363636 85.302645 
" style="fill:none;stroke:#ff0000;stroke-linecap:square;stroke-width:1.5;"/>
   </g>
   <g id="patch_3">
    <path d="M 64.8 313.2 
L 64.8 28.8 
" style="fill:none;stroke:#000000;stroke-linecap:square;stroke-linejoin:miter;stroke-width:0.8;"/>
   </g>
   <g id="patch_4">
    <path d="M 655.2 313.2 
L 655.2 28.8 
" style="fill:none;stroke:#000000;stroke-linecap:square;stroke-linejoin:miter;stroke-width:0.8;"/>
   </g>
   <g id="patch_5">
    <path d="M 64.8 313.2 
L 655.2 313.2 
" style="fill:none;stroke:#000000;stroke-linecap:square;stroke-linejoin:miter;stroke-width:0.8;"/>
   </g>
   <g id="patch_6">
    <path d="M 64.8 28.8 
L 655.2 28.8 
" style="fill:none;stroke:#000000;stroke-linecap:square;stroke-linejoin:miter;stroke-width:0.8;"/>
   </g>
   <g id="text_19">
    <!-- Page hits per uur (gemiddeld ongeveer 3205). -->
    <g transform="translate(221.01375 22.8)scale(0.12 -0.12)">
     <defs>
      <path d="M 19.671875 64.796875 
L 19.671875 37.40625 
L 32.078125 37.40625 
Q 38.96875 37.40625 42.71875 40.96875 
Q 46.484375 44.53125 46.484375 51.125 
Q 46.484375 57.671875 42.71875 61.234375 
Q 38.96875 64.796875 32.078125 64.796875 
z
M 9.8125 72.90625 
L 32.078125 72.90625 
Q 44.34375 72.90625 50.609375 67.359375 
Q 56.890625 61.8125 56.890625 51.125 
Q 56.890625 40.328125 50.609375 34.8125 
Q 44.34375 29.296875 32.078125 29.296875 
L 19.671875 29.296875 
L 19.671875 0 
L 9.8125 0 
z
" id="DejaVuSans-80"/>
      <path d="M 45.40625 27.984375 
Q 45.40625 37.75 41.375 43.109375 
Q 37.359375 48.484375 30.078125 48.484375 
Q 22.859375 48.484375 18.828125 43.109375 
Q 14.796875 37.75 14.796875 27.984375 
Q 14.796875 18.265625 18.828125 12.890625 
Q 22.859375 7.515625 30.078125 7.515625 
Q 37.359375 7.515625 41.375 12.890625 
Q 45.40625 18.265625 45.40625 27.984375 
z
M 54.390625 6.78125 
Q 54.390625 -7.171875 48.1875 -13.984375 
Q 42 -20.796875 29.203125 -20.796875 
Q 24.46875 -20.796875 20.265625 -20.09375 
Q 16.0625 -19.390625 12.109375 -17.921875 
L 12.109375 -9.1875 
Q 16.0625 -11.328125 19.921875 -12.34375 
Q 23.78125 -13.375 27.78125 -13.375 
Q 36.625 -13.375 41.015625 -8.765625 
Q 45.40625 -4.15625 45.40625 5.171875 
L 45.40625 9.625 
Q 42.625 4.78125 38.28125 2.390625 
Q 33.9375 0 27.875 0 
Q 17.828125 0 11.671875 7.65625 
Q 5.515625 15.328125 5.515625 27.984375 
Q 5.515625 40.671875 11.671875 48.328125 
Q 17.828125 56 27.875 56 
Q 33.9375 56 38.28125 53.609375 
Q 42.625 51.21875 45.40625 46.390625 
L 45.40625 54.6875 
L 54.390625 54.6875 
z
" id="DejaVuSans-103"/>
      <path d="M 56.203125 29.59375 
L 56.203125 25.203125 
L 14.890625 25.203125 
Q 15.484375 15.921875 20.484375 11.0625 
Q 25.484375 6.203125 34.421875 6.203125 
Q 39.59375 6.203125 44.453125 7.46875 
Q 49.3125 8.734375 54.109375 11.28125 
L 54.109375 2.78125 
Q 49.265625 0.734375 44.1875 -0.34375 
Q 39.109375 -1.421875 33.890625 -1.421875 
Q 20.796875 -1.421875 13.15625 6.1875 
Q 5.515625 13.8125 5.515625 26.8125 
Q 5.515625 40.234375 12.765625 48.109375 
Q 20.015625 56 32.328125 56 
Q 43.359375 56 49.78125 48.890625 
Q 56.203125 41.796875 56.203125 29.59375 
z
M 47.21875 32.234375 
Q 47.125 39.59375 43.09375 43.984375 
Q 39.0625 48.390625 32.421875 48.390625 
Q 24.90625 48.390625 20.390625 44.140625 
Q 15.875 39.890625 15.1875 32.171875 
z
" id="DejaVuSans-101"/>
      <path id="DejaVuSans-32"/>
      <path d="M 54.890625 33.015625 
L 54.890625 0 
L 45.90625 0 
L 45.90625 32.71875 
Q 45.90625 40.484375 42.875 44.328125 
Q 39.84375 48.1875 33.796875 48.1875 
Q 26.515625 48.1875 22.3125 43.546875 
Q 18.109375 38.921875 18.109375 30.90625 
L 18.109375 0 
L 9.078125 0 
L 9.078125 75.984375 
L 18.109375 75.984375 
L 18.109375 46.1875 
Q 21.34375 51.125 25.703125 53.5625 
Q 30.078125 56 35.796875 56 
Q 45.21875 56 50.046875 50.171875 
Q 54.890625 44.34375 54.890625 33.015625 
z
" id="DejaVuSans-104"/>
      <path d="M 9.421875 54.6875 
L 18.40625 54.6875 
L 18.40625 0 
L 9.421875 0 
z
M 9.421875 75.984375 
L 18.40625 75.984375 
L 18.40625 64.59375 
L 9.421875 64.59375 
z
" id="DejaVuSans-105"/>
      <path d="M 44.28125 53.078125 
L 44.28125 44.578125 
Q 40.484375 46.53125 36.375 47.5 
Q 32.28125 48.484375 27.875 48.484375 
Q 21.1875 48.484375 17.84375 46.4375 
Q 14.5 44.390625 14.5 40.28125 
Q 14.5 37.15625 16.890625 35.375 
Q 19.28125 33.59375 26.515625 31.984375 
L 29.59375 31.296875 
Q 39.15625 29.25 43.1875 25.515625 
Q 47.21875 21.78125 47.21875 15.09375 
Q 47.21875 7.46875 41.1875 3.015625 
Q 35.15625 -1.421875 24.609375 -1.421875 
Q 20.21875 -1.421875 15.453125 -0.5625 
Q 10.6875 0.296875 5.421875 2 
L 5.421875 11.28125 
Q 10.40625 8.6875 15.234375 7.390625 
Q 20.0625 6.109375 24.8125 6.109375 
Q 31.15625 6.109375 34.5625 8.28125 
Q 37.984375 10.453125 37.984375 14.40625 
Q 37.984375 18.0625 35.515625 20.015625 
Q 33.0625 21.96875 24.703125 23.78125 
L 21.578125 24.515625 
Q 13.234375 26.265625 9.515625 29.90625 
Q 5.8125 33.546875 5.8125 39.890625 
Q 5.8125 47.609375 11.28125 51.796875 
Q 16.75 56 26.8125 56 
Q 31.78125 56 36.171875 55.265625 
Q 40.578125 54.546875 44.28125 53.078125 
z
" id="DejaVuSans-115"/>
      <path d="M 18.109375 8.203125 
L 18.109375 -20.796875 
L 9.078125 -20.796875 
L 9.078125 54.6875 
L 18.109375 54.6875 
L 18.109375 46.390625 
Q 20.953125 51.265625 25.265625 53.625 
Q 29.59375 56 35.59375 56 
Q 45.5625 56 51.78125 48.09375 
Q 58.015625 40.1875 58.015625 27.296875 
Q 58.015625 14.40625 51.78125 6.484375 
Q 45.5625 -1.421875 35.59375 -1.421875 
Q 29.59375 -1.421875 25.265625 0.953125 
Q 20.953125 3.328125 18.109375 8.203125 
z
M 48.6875 27.296875 
Q 48.6875 37.203125 44.609375 42.84375 
Q 40.53125 48.484375 33.40625 48.484375 
Q 26.265625 48.484375 22.1875 42.84375 
Q 18.109375 37.203125 18.109375 27.296875 
Q 18.109375 17.390625 22.1875 11.75 
Q 26.265625 6.109375 33.40625 6.109375 
Q 40.53125 6.109375 44.609375 11.75 
Q 48.6875 17.390625 48.6875 27.296875 
z
" id="DejaVuSans-112"/>
      <path d="M 41.109375 46.296875 
Q 39.59375 47.171875 37.8125 47.578125 
Q 36.03125 48 33.890625 48 
Q 26.265625 48 22.1875 43.046875 
Q 18.109375 38.09375 18.109375 28.8125 
L 18.109375 0 
L 9.078125 0 
L 9.078125 54.6875 
L 18.109375 54.6875 
L 18.109375 46.1875 
Q 20.953125 51.171875 25.484375 53.578125 
Q 30.03125 56 36.53125 56 
Q 37.453125 56 38.578125 55.875 
Q 39.703125 55.765625 41.0625 55.515625 
z
" id="DejaVuSans-114"/>
      <path d="M 31 75.875 
Q 24.46875 64.65625 21.28125 53.65625 
Q 18.109375 42.671875 18.109375 31.390625 
Q 18.109375 20.125 21.3125 9.0625 
Q 24.515625 -2 31 -13.1875 
L 23.1875 -13.1875 
Q 15.875 -1.703125 12.234375 9.375 
Q 8.59375 20.453125 8.59375 31.390625 
Q 8.59375 42.28125 12.203125 53.3125 
Q 15.828125 64.359375 23.1875 75.875 
z
" id="DejaVuSans-40"/>
      <path d="M 45.40625 46.390625 
L 45.40625 75.984375 
L 54.390625 75.984375 
L 54.390625 0 
L 45.40625 0 
L 45.40625 8.203125 
Q 42.578125 3.328125 38.25 0.953125 
Q 33.9375 -1.421875 27.875 -1.421875 
Q 17.96875 -1.421875 11.734375 6.484375 
Q 5.515625 14.40625 5.515625 27.296875 
Q 5.515625 40.1875 11.734375 48.09375 
Q 17.96875 56 27.875 56 
Q 33.9375 56 38.25 53.625 
Q 42.578125 51.265625 45.40625 46.390625 
z
M 14.796875 27.296875 
Q 14.796875 17.390625 18.875 11.75 
Q 22.953125 6.109375 30.078125 6.109375 
Q 37.203125 6.109375 41.296875 11.75 
Q 45.40625 17.390625 45.40625 27.296875 
Q 45.40625 37.203125 41.296875 42.84375 
Q 37.203125 48.484375 30.078125 48.484375 
Q 22.953125 48.484375 18.875 42.84375 
Q 14.796875 37.203125 14.796875 27.296875 
z
" id="DejaVuSans-100"/>
      <path d="M 9.421875 75.984375 
L 18.40625 75.984375 
L 18.40625 0 
L 9.421875 0 
z
" id="DejaVuSans-108"/>
      <path d="M 30.609375 48.390625 
Q 23.390625 48.390625 19.1875 42.75 
Q 14.984375 37.109375 14.984375 27.296875 
Q 14.984375 17.484375 19.15625 11.84375 
Q 23.34375 6.203125 30.609375 6.203125 
Q 37.796875 6.203125 41.984375 11.859375 
Q 46.1875 17.53125 46.1875 27.296875 
Q 46.1875 37.015625 41.984375 42.703125 
Q 37.796875 48.390625 30.609375 48.390625 
z
M 30.609375 56 
Q 42.328125 56 49.015625 48.375 
Q 55.71875 40.765625 55.71875 27.296875 
Q 55.71875 13.875 49.015625 6.21875 
Q 42.328125 -1.421875 30.609375 -1.421875 
Q 18.84375 -1.421875 12.171875 6.21875 
Q 5.515625 13.875 5.515625 27.296875 
Q 5.515625 40.765625 12.171875 48.375 
Q 18.84375 56 30.609375 56 
z
" id="DejaVuSans-111"/>
      <path d="M 54.890625 33.015625 
L 54.890625 0 
L 45.90625 0 
L 45.90625 32.71875 
Q 45.90625 40.484375 42.875 44.328125 
Q 39.84375 48.1875 33.796875 48.1875 
Q 26.515625 48.1875 22.3125 43.546875 
Q 18.109375 38.921875 18.109375 30.90625 
L 18.109375 0 
L 9.078125 0 
L 9.078125 54.6875 
L 18.109375 54.6875 
L 18.109375 46.1875 
Q 21.34375 51.125 25.703125 53.5625 
Q 30.078125 56 35.796875 56 
Q 45.21875 56 50.046875 50.171875 
Q 54.890625 44.34375 54.890625 33.015625 
z
" id="DejaVuSans-110"/>
      <path d="M 2.984375 54.6875 
L 12.5 54.6875 
L 29.59375 8.796875 
L 46.6875 54.6875 
L 56.203125 54.6875 
L 35.6875 0 
L 23.484375 0 
z
" id="DejaVuSans-118"/>
      <path d="M 8.015625 75.875 
L 15.828125 75.875 
Q 23.140625 64.359375 26.78125 53.3125 
Q 30.421875 42.28125 30.421875 31.390625 
Q 30.421875 20.453125 26.78125 9.375 
Q 23.140625 -1.703125 15.828125 -13.1875 
L 8.015625 -13.1875 
Q 14.5 -2 17.703125 9.0625 
Q 20.90625 20.125 20.90625 31.390625 
Q 20.90625 42.671875 17.703125 53.65625 
Q 14.5 64.65625 8.015625 75.875 
z
" id="DejaVuSans-41"/>
      <path d="M 10.6875 12.40625 
L 21 12.40625 
L 21 0 
L 10.6875 0 
z
" id="DejaVuSans-46"/>
     </defs>
     <use xlink:href="#DejaVuSans-80"/>
     <use x="55.802734" xlink:href="#DejaVuSans-97"/>
     <use x="117.082031" xlink:href="#DejaVuSans-103"/>
     <use x="180.558594" xlink:href="#DejaVuSans-101"/>
     <use x="242.082031" xlink:href="#DejaVuSans-32"/>
     <use x="273.869141" xlink:href="#DejaVuSans-104"/>
     <use x="337.248047" xlink:href="#DejaVuSans-105"/>
     <use x="365.03125" xlink:href="#DejaVuSans-116"/>
     <use x="404.240234" xlink:href="#DejaVuSans-115"/>
     <use x="456.339844" xlink:href="#DejaVuSans-32"/>
     <use x="488.126953" xlink:href="#DejaVuSans-112"/>
     <use x="551.603516" xlink:href="#DejaVuSans-101"/>
     <use x="613.126953" xlink:href="#DejaVuSans-114"/>
     <use x="654.240234" xlink:href="#DejaVuSans-32"/>
     <use x="686.027344" xlink:href="#DejaVuSans-117"/>
     <use x="749.40625" xlink:href="#DejaVuSans-117"/>
     <use x="812.785156" xlink:href="#DejaVuSans-114"/>
     <use x="853.898438" xlink:href="#DejaVuSans-32"/>
     <use x="885.685547" xlink:href="#DejaVuSans-40"/>
     <use x="924.699219" xlink:href="#DejaVuSans-103"/>
     <use x="988.175781" xlink:href="#DejaVuSans-101"/>
     <use x="1049.699219" xlink:href="#DejaVuSans-109"/>
     <use x="1147.111328" xlink:href="#DejaVuSans-105"/>
     <use x="1174.894531" xlink:href="#DejaVuSans-100"/>
     <use x="1238.371094" xlink:href="#DejaVuSans-100"/>
     <use x="1301.847656" xlink:href="#DejaVuSans-101"/>
     <use x="1363.371094" xlink:href="#DejaVuSans-108"/>
     <use x="1391.154297" xlink:href="#DejaVuSans-100"/>
     <use x="1454.630859" xlink:href="#DejaVuSans-32"/>
     <use x="1486.417969" xlink:href="#DejaVuSans-111"/>
     <use x="1547.599609" xlink:href="#DejaVuSans-110"/>
     <use x="1610.978516" xlink:href="#DejaVuSans-103"/>
     <use x="1674.455078" xlink:href="#DejaVuSans-101"/>
     <use x="1735.978516" xlink:href="#DejaVuSans-118"/>
     <use x="1795.158203" xlink:href="#DejaVuSans-101"/>
     <use x="1856.681641" xlink:href="#DejaVuSans-101"/>
     <use x="1918.205078" xlink:href="#DejaVuSans-114"/>
     <use x="1959.318359" xlink:href="#DejaVuSans-32"/>
     <use x="1991.105469" xlink:href="#DejaVuSans-51"/>
     <use x="2054.728516" xlink:href="#DejaVuSans-50"/>
     <use x="2118.351562" xlink:href="#DejaVuSans-48"/>
     <use x="2181.974609" xlink:href="#DejaVuSans-53"/>
     <use x="2245.597656" xlink:href="#DejaVuSans-41"/>
     <use x="2284.611328" xlink:href="#DejaVuSans-46"/>
    </g>
   </g>
  </g>
  <g id="text_20">
   <!-- Gegenereerd op 2021-03-28 18:13. -->
   <g style="fill:#808080;" transform="translate(7.2 356.4)scale(0.08 -0.08)">
    <defs>
     <path d="M 59.515625 10.40625 
L 59.515625 29.984375 
L 43.40625 29.984375 
L 43.40625 38.09375 
L 69.28125 38.09375 
L 69.28125 6.78125 
Q 63.578125 2.734375 56.6875 0.65625 
Q 49.8125 -1.421875 42 -1.421875 
Q 24.90625 -1.421875 15.25 8.5625 
Q 5.609375 18.5625 5.609375 36.375 
Q 5.609375 54.25 15.25 64.234375 
Q 24.90625 74.21875 42 74.21875 
Q 49.125 74.21875 55.546875 72.453125 
Q 61.96875 70.703125 67.390625 67.28125 
L 67.390625 56.78125 
Q 61.921875 61.421875 55.765625 63.765625 
Q 49.609375 66.109375 42.828125 66.109375 
Q 29.4375 66.109375 22.71875 58.640625 
Q 16.015625 51.171875 16.015625 36.375 
Q 16.015625 21.625 22.71875 14.15625 
Q 29.4375 6.6875 42.828125 6.6875 
Q 48.046875 6.6875 52.140625 7.59375 
Q 56.25 8.5 59.515625 10.40625 
z
" id="DejaVuSans-71"/>
     <path d="M 31.78125 34.625 
Q 24.75 34.625 20.71875 30.859375 
Q 16.703125 27.09375 16.703125 20.515625 
Q 16.703125 13.921875 20.71875 10.15625 
Q 24.75 6.390625 31.78125 6.390625 
Q 38.8125 6.390625 42.859375 10.171875 
Q 46.921875 13.96875 46.921875 20.515625 
Q 46.921875 27.09375 42.890625 30.859375 
Q 38.875 34.625 31.78125 34.625 
z
M 21.921875 38.8125 
Q 15.578125 40.375 12.03125 44.71875 
Q 8.5 49.078125 8.5 55.328125 
Q 8.5 64.0625 14.71875 69.140625 
Q 20.953125 74.21875 31.78125 74.21875 
Q 42.671875 74.21875 48.875 69.140625 
Q 55.078125 64.0625 55.078125 55.328125 
Q 55.078125 49.078125 51.53125 44.71875 
Q 48 40.375 41.703125 38.8125 
Q 48.828125 37.15625 52.796875 32.3125 
Q 56.78125 27.484375 56.78125 20.515625 
Q 56.78125 9.90625 50.3125 4.234375 
Q 43.84375 -1.421875 31.78125 -1.421875 
Q 19.734375 -1.421875 13.25 4.234375 
Q 6.78125 9.90625 6.78125 20.515625 
Q 6.78125 27.484375 10.78125 32.3125 
Q 14.796875 37.15625 21.921875 38.8125 
z
M 18.3125 54.390625 
Q 18.3125 48.734375 21.84375 45.5625 
Q 25.390625 42.390625 31.78125 42.390625 
Q 38.140625 42.390625 41.71875 45.5625 
Q 45.3125 48.734375 45.3125 54.390625 
Q 45.3125 60.0625 41.71875 63.234375 
Q 38.140625 66.40625 31.78125 66.40625 
Q 25.390625 66.40625 21.84375 63.234375 
Q 18.3125 60.0625 18.3125 54.390625 
z
" id="DejaVuSans-56"/>
     <path d="M 11.71875 12.40625 
L 22.015625 12.40625 
L 22.015625 0 
L 11.71875 0 
z
M 11.71875 51.703125 
L 22.015625 51.703125 
L 22.015625 39.3125 
L 11.71875 39.3125 
z
" id="DejaVuSans-58"/>
    </defs>
    <use xlink:href="#DejaVuSans-71"/>
    <use x="77.490234" xlink:href="#DejaVuSans-101"/>
    <use x="139.013672" xlink:href="#DejaVuSans-103"/>
    <use x="202.490234" xlink:href="#DejaVuSans-101"/>
    <use x="264.013672" xlink:href="#DejaVuSans-110"/>
    <use x="327.392578" xlink:href="#DejaVuSans-101"/>
    <use x="388.916016" xlink:href="#DejaVuSans-114"/>
    <use x="427.779297" xlink:href="#DejaVuSans-101"/>
    <use x="489.302734" xlink:href="#DejaVuSans-101"/>
    <use x="550.826172" xlink:href="#DejaVuSans-114"/>
    <use x="590.189453" xlink:href="#DejaVuSans-100"/>
    <use x="653.666016" xlink:href="#DejaVuSans-32"/>
    <use x="685.453125" xlink:href="#DejaVuSans-111"/>
    <use x="746.634766" xlink:href="#DejaVuSans-112"/>
    <use x="810.111328" xlink:href="#DejaVuSans-32"/>
    <use x="841.898438" xlink:href="#DejaVuSans-50"/>
    <use x="905.521484" xlink:href="#DejaVuSans-48"/>
    <use x="969.144531" xlink:href="#DejaVuSans-50"/>
    <use x="1032.767578" xlink:href="#DejaVuSans-49"/>
    <use x="1096.390625" xlink:href="#DejaVuSans-45"/>
    <use x="1132.474609" xlink:href="#DejaVuSans-48"/>
    <use x="1196.097656" xlink:href="#DejaVuSans-51"/>
    <use x="1259.720703" xlink:href="#DejaVuSans-45"/>
    <use x="1295.804688" xlink:href="#DejaVuSans-50"/>
    <use x="1359.427734" xlink:href="#DejaVuSans-56"/>
    <use x="1423.050781" xlink:href="#DejaVuSans-32"/>
    <use x="1454.837891" xlink:href="#DejaVuSans-49"/>
    <use x="1518.460938" xlink:href="#DejaVuSans-56"/>
    <use x="1582.083984" xlink:href="#DejaVuSans-58"/>
    <use x="1615.775391" xlink:href="#DejaVuSans-49"/>
    <use x="1679.398438" xlink:href="#DejaVuSans-51"/>
    <use x="1743.021484" xlink:href="#DejaVuSans-46"/>
   </g>
  </g>
  <g id="text_21">
   <!-- https://realrolfje.github.io/coronadata/ -->
   <g style="fill:#808080;" transform="translate(560.24375 356.4)scale(0.08 -0.08)">
    <defs>
     <path d="M 25.390625 72.90625 
L 33.6875 72.90625 
L 8.296875 -9.28125 
L 0 -9.28125 
z
" id="DejaVuSans-47"/>
     <path d="M 37.109375 75.984375 
L 37.109375 68.5 
L 28.515625 68.5 
Q 23.6875 68.5 21.796875 66.546875 
Q 19.921875 64.59375 19.921875 59.515625 
L 19.921875 54.6875 
L 34.71875 54.6875 
L 34.71875 47.703125 
L 19.921875 47.703125 
L 19.921875 0 
L 10.890625 0 
L 10.890625 47.703125 
L 2.296875 47.703125 
L 2.296875 54.6875 
L 10.890625 54.6875 
L 10.890625 58.5 
Q 10.890625 67.625 15.140625 71.796875 
Q 19.390625 75.984375 28.609375 75.984375 
z
" id="DejaVuSans-102"/>
     <path d="M 9.421875 54.6875 
L 18.40625 54.6875 
L 18.40625 -0.984375 
Q 18.40625 -11.421875 14.421875 -16.109375 
Q 10.453125 -20.796875 1.609375 -20.796875 
L -1.8125 -20.796875 
L -1.8125 -13.1875 
L 0.59375 -13.1875 
Q 5.71875 -13.1875 7.5625 -10.8125 
Q 9.421875 -8.453125 9.421875 -0.984375 
z
M 9.421875 75.984375 
L 18.40625 75.984375 
L 18.40625 64.59375 
L 9.421875 64.59375 
z
" id="DejaVuSans-106"/>
     <path d="M 48.6875 27.296875 
Q 48.6875 37.203125 44.609375 42.84375 
Q 40.53125 48.484375 33.40625 48.484375 
Q 26.265625 48.484375 22.1875 42.84375 
Q 18.109375 37.203125 18.109375 27.296875 
Q 18.109375 17.390625 22.1875 11.75 
Q 26.265625 6.109375 33.40625 6.109375 
Q 40.53125 6.109375 44.609375 11.75 
Q 48.6875 17.390625 48.6875 27.296875 
z
M 18.109375 46.390625 
Q 20.953125 51.265625 25.265625 53.625 
Q 29.59375 56 35.59375 56 
Q 45.5625 56 51.78125 48.09375 
Q 58.015625 40.1875 58.015625 27.296875 
Q 58.015625 14.40625 51.78125 6.484375 
Q 45.5625 -1.421875 35.59375 -1.421875 
Q 29.59375 -1.421875 25.265625 0.953125 
Q 20.953125 3.328125 18.109375 8.203125 
L 18.109375 0 
L 9.078125 0 
L 9.078125 75.984375 
L 18.109375 75.984375 
z
" id="DejaVuSans-98"/>
     <path d="M 48.78125 52.59375 
L 48.78125 44.1875 
Q 44.96875 46.296875 41.140625 47.34375 
Q 37.3125 48.390625 33.40625 48.390625 
Q 24.65625 48.390625 19.8125 42.84375 
Q 14.984375 37.3125 14.984375 27.296875 
Q 14.984375 17.28125 19.8125 11.734375 
Q 24.65625 6.203125 33.40625 6.203125 
Q 37.3125 6.203125 41.140625 7.25 
Q 44.96875 8.296875 48.78125 10.40625 
L 48.78125 2.09375 
Q 45.015625 0.34375 40.984375 -0.53125 
Q 36.96875 -1.421875 32.421875 -1.421875 
Q 20.0625 -1.421875 12.78125 6.34375 
Q 5.515625 14.109375 5.515625 27.296875 
Q 5.515625 40.671875 12.859375 48.328125 
Q 20.21875 56 33.015625 56 
Q 37.15625 56 41.109375 55.140625 
Q 45.0625 54.296875 48.78125 52.59375 
z
" id="DejaVuSans-99"/>
    </defs>
    <use xlink:href="#DejaVuSans-104"/>
    <use x="63.378906" xlink:href="#DejaVuSans-116"/>
    <use x="102.587891" xlink:href="#DejaVuSans-116"/>
    <use x="141.796875" xlink:href="#DejaVuSans-112"/>
    <use x="205.273438" xlink:href="#DejaVuSans-115"/>
    <use x="257.373047" xlink:href="#DejaVuSans-58"/>
    <use x="291.064453" xlink:href="#DejaVuSans-47"/>
    <use x="324.755859" xlink:href="#DejaVuSans-47"/>
    <use x="358.447266" xlink:href="#DejaVuSans-114"/>
    <use x="397.310547" xlink:href="#DejaVuSans-101"/>
    <use x="458.833984" xlink:href="#DejaVuSans-97"/>
    <use x="520.113281" xlink:href="#DejaVuSans-108"/>
    <use x="547.896484" xlink:href="#DejaVuSans-114"/>
    <use x="586.759766" xlink:href="#DejaVuSans-111"/>
    <use x="647.941406" xlink:href="#DejaVuSans-108"/>
    <use x="675.724609" xlink:href="#DejaVuSans-102"/>
    <use x="710.929688" xlink:href="#DejaVuSans-106"/>
    <use x="738.712891" xlink:href="#DejaVuSans-101"/>
    <use x="800.236328" xlink:href="#DejaVuSans-46"/>
    <use x="832.023438" xlink:href="#DejaVuSans-103"/>
    <use x="895.5" xlink:href="#DejaVuSans-105"/>
    <use x="923.283203" xlink:href="#DejaVuSans-116"/>
    <use x="962.492188" xlink:href="#DejaVuSans-104"/>
    <use x="1025.871094" xlink:href="#DejaVuSans-117"/>
    <use x="1089.25" xlink:href="#DejaVuSans-98"/>
    <use x="1152.726562" xlink:href="#DejaVuSans-46"/>
    <use x="1184.513672" xlink:href="#DejaVuSans-105"/>
    <use x="1212.296875" xlink:href="#DejaVuSans-111"/>
    <use x="1273.478516" xlink:href="#DejaVuSans-47"/>
    <use x="1307.169922" xlink:href="#DejaVuSans-99"/>
    <use x="1362.150391" xlink:href="#DejaVuSans-111"/>
    <use x="1423.332031" xlink:href="#DejaVuSans-114"/>
    <use x="1462.195312" xlink:href="#DejaVuSans-111"/>
    <use x="1523.376953" xlink:href="#DejaVuSans-110"/>
    <use x="1586.755859" xlink:href="#DejaVuSans-97"/>
    <use x="1648.035156" xlink:href="#DejaVuSans-100"/>
    <use x="1711.511719" xlink:href="#DejaVuSans-97"/>
    <use x="1772.791016" xlink:href="#DejaVuSans-116"/>
    <use x="1812" xlink:href="#DejaVuSans-97"/>
    <use x="1873.279297" xlink:href="#DejaVuSans-47"/>
   </g>
  </g>
 </g>
 <defs>
  <clipPath id="p7387196706">
   <rect height="284.4" width="590.4" x="64.8" y="28.8"/>
  </clipPath>
 </defs>
</svg>
