<?xml version="1.0" encoding="utf-8" standalone="no"?>
<!DOCTYPE svg PUBLIC "-//W3C//DTD SVG 1.1//EN"
  "http://www.w3.org/Graphics/SVG/1.1/DTD/svg11.dtd">
<!-- Created with matplotlib (https://matplotlib.org/) -->
<svg height="216pt" version="1.1" viewBox="0 0 720 216" width="720pt" xmlns="http://www.w3.org/2000/svg" xmlns:xlink="http://www.w3.org/1999/xlink">
 <metadata>
  <rdf:RDF xmlns:cc="http://creativecommons.org/ns#" xmlns:dc="http://purl.org/dc/elements/1.1/" xmlns:rdf="http://www.w3.org/1999/02/22-rdf-syntax-ns#">
   <cc:Work>
    <dc:type rdf:resource="http://purl.org/dc/dcmitype/StillImage"/>
    <dc:date>2022-10-26T23:36:26.454158</dc:date>
    <dc:format>image/svg+xml</dc:format>
    <dc:creator>
     <cc:Agent>
      <dc:title>Matplotlib v3.3.2, https://matplotlib.org/</dc:title>
     </cc:Agent>
    </dc:creator>
   </cc:Work>
  </rdf:RDF>
 </metadata>
 <defs>
  <style type="text/css">*{stroke-linecap:butt;stroke-linejoin:round;}</style>
 </defs>
 <g id="figure_1">
  <g id="patch_1">
   <path d="M 0 216 
L 720 216 
L 720 0 
L 0 0 
z
" style="fill:#ffffff;"/>
  </g>
  <g id="axes_1">
   <g id="patch_2">
    <path d="M 64.8 172.8 
L 655.2 172.8 
L 655.2 25.92 
L 64.8 25.92 
z
" style="fill:#ffffff;"/>
   </g>
   <g id="PolyCollection_1">
    <path clip-path="url(#p68ab8b773d)" d="M 417.223385 123.84 
L 417.223385 123.84 
L 417.828923 123.84 
L 418.434462 123.84 
L 419.04 123.84 
L 419.645538 123.84 
L 420.251077 123.84 
L 420.856615 123.84 
L 421.462154 123.84 
L 422.067692 123.84 
L 422.673231 123.84 
L 423.278769 123.84 
L 423.884308 123.84 
L 424.489846 123.84 
L 425.095385 123.84 
L 425.700923 123.84 
L 426.306462 123.84 
L 426.912 123.84 
L 427.517538 123.84 
L 428.123077 123.84 
L 428.728615 123.84 
L 429.334154 123.84 
L 429.939692 123.84 
L 430.545231 123.84 
L 431.150769 123.84 
L 431.756308 123.84 
L 432.361846 123.84 
L 432.967385 123.84 
L 433.572923 123.84 
L 434.178462 123.84 
L 434.784 123.84 
L 435.389538 123.84 
L 435.995077 123.84 
L 436.600615 123.84 
L 437.206154 123.84 
L 437.811692 123.84 
L 438.417231 123.84 
L 439.022769 123.84 
L 439.628308 123.84 
L 440.233846 123.84 
L 440.839385 123.84 
L 441.444923 123.84 
L 442.050462 123.84 
L 442.656 123.84 
L 443.261538 123.84 
L 443.867077 123.84 
L 443.261538 122.8608 
L 442.656 120.9024 
L 442.050462 118.944 
L 441.444923 116.496 
L 440.839385 115.5168 
L 440.233846 115.0272 
L 439.628308 115.0272 
L 439.022769 114.5376 
L 438.417231 113.5584 
L 437.811692 112.0896 
L 437.206154 110.6208 
L 436.600615 110.1312 
L 435.995077 111.1104 
L 435.389538 112.0896 
L 434.784 113.0688 
L 434.178462 113.0688 
L 433.572923 111.6 
L 432.967385 110.6208 
L 432.361846 111.6 
L 431.756308 113.0688 
L 431.150769 114.5376 
L 430.545231 115.0272 
L 429.939692 114.5376 
L 429.334154 113.5584 
L 428.728615 112.5792 
L 428.123077 113.5584 
L 427.517538 115.0272 
L 426.912 116.0064 
L 426.306462 115.5168 
L 425.700923 113.5584 
L 425.095385 110.1312 
L 424.489846 108.1728 
L 423.884308 108.6624 
L 423.278769 111.1104 
L 422.673231 113.0688 
L 422.067692 114.048 
L 421.462154 114.048 
L 420.856615 112.5792 
L 420.251077 111.1104 
L 419.645538 110.6208 
L 419.04 111.6 
L 418.434462 113.0688 
L 417.828923 114.048 
L 417.223385 114.048 
z
" style="fill:#ff0000;fill-opacity:0.3;"/>
    <path clip-path="url(#p68ab8b773d)" d="M 463.244308 123.84 
L 463.849846 123.84 
L 464.455385 123.84 
L 465.060923 123.84 
L 465.666462 123.84 
L 466.272 123.84 
L 466.877538 123.84 
L 467.483077 123.84 
L 468.088615 123.84 
L 468.694154 123.84 
L 469.299692 123.84 
L 469.905231 123.84 
L 470.510769 123.84 
L 471.116308 123.84 
L 471.721846 123.84 
L 472.327385 123.84 
L 472.932923 123.84 
L 473.538462 123.84 
L 474.144 123.84 
L 474.749538 123.84 
L 475.355077 123.84 
L 475.960615 123.84 
L 476.566154 123.84 
L 477.171692 123.84 
L 477.777231 123.84 
L 478.382769 123.84 
L 478.988308 123.84 
L 479.593846 123.84 
L 480.199385 123.84 
L 480.804923 123.84 
L 481.410462 123.84 
L 482.016 123.84 
L 482.621538 123.84 
L 483.227077 123.84 
L 483.832615 123.84 
L 484.438154 123.84 
L 485.043692 123.84 
L 485.649231 123.84 
L 486.254769 123.84 
L 486.860308 123.84 
L 487.465846 123.84 
L 488.071385 123.84 
L 488.676923 123.84 
L 488.071385 122.8608 
L 487.465846 122.8608 
L 486.860308 122.3712 
L 486.254769 121.392 
L 485.649231 120.4128 
L 485.043692 118.944 
L 484.438154 117.4752 
L 483.832615 116.9856 
L 483.227077 116.9856 
L 482.621538 116.9856 
L 482.016 116.496 
L 481.410462 115.0272 
L 480.804923 112.5792 
L 480.199385 110.6208 
L 479.593846 109.152 
L 478.988308 109.152 
L 478.382769 110.1312 
L 477.777231 111.6 
L 477.171692 113.5584 
L 476.566154 114.5376 
L 475.960615 115.0272 
L 475.355077 115.5168 
L 474.749538 116.9856 
L 474.144 117.9648 
L 473.538462 118.944 
L 472.932923 118.944 
L 472.327385 116.496 
L 471.721846 112.0896 
L 471.116308 106.704 
L 470.510769 105.2352 
L 469.905231 107.1936 
L 469.299692 110.1312 
L 468.694154 112.5792 
L 468.088615 113.0688 
L 467.483077 112.0896 
L 466.877538 112.0896 
L 466.272 114.5376 
L 465.666462 117.4752 
L 465.060923 120.4128 
L 464.455385 122.3712 
L 463.849846 123.3504 
z
" style="fill:#ff0000;fill-opacity:0.3;"/>
    <path clip-path="url(#p68ab8b773d)" d="M 501.393231 123.84 
L 501.998769 123.84 
L 502.604308 123.84 
L 503.209846 123.84 
L 503.815385 123.84 
L 504.420923 123.84 
L 505.026462 123.84 
L 505.632 123.84 
L 506.237538 123.84 
L 506.843077 123.84 
L 507.448615 123.84 
L 508.054154 123.84 
L 508.659692 123.84 
L 508.962462 123.84 
L 508.659692 122.8608 
L 508.054154 120.9024 
L 507.448615 117.9648 
L 506.843077 114.048 
L 506.237538 109.6416 
L 505.632 106.2144 
L 505.026462 105.7248 
L 504.420923 108.6624 
L 503.815385 113.5584 
L 503.209846 118.4544 
L 502.604308 121.8816 
L 501.998769 123.3504 
z
" style="fill:#ff0000;fill-opacity:0.3;"/>
    <path clip-path="url(#p68ab8b773d)" d="M 540.955077 123.84 
L 541.358769 123.84 
L 541.964308 123.84 
L 542.569846 123.84 
L 542.973538 123.84 
L 542.569846 122.8608 
L 541.964308 122.3712 
L 541.358769 122.8608 
z
" style="fill:#ff0000;fill-opacity:0.3;"/>
    <path clip-path="url(#p68ab8b773d)" d="M 550.926277 123.84 
L 551.047385 123.84 
L 551.652923 123.84 
L 551.895138 123.84 
L 551.652923 122.8608 
L 551.047385 123.3504 
z
" style="fill:#ff0000;fill-opacity:0.3;"/>
    <path clip-path="url(#p68ab8b773d)" d="M 555.084308 123.84 
L 555.286154 123.84 
L 555.891692 123.84 
L 556.497231 123.84 
L 557.102769 123.84 
L 557.708308 123.84 
L 558.313846 123.84 
L 558.919385 123.84 
L 559.524923 123.84 
L 560.130462 123.84 
L 560.736 123.84 
L 561.341538 123.84 
L 561.947077 123.84 
L 562.552615 123.84 
L 563.158154 123.84 
L 563.763692 123.84 
L 564.369231 123.84 
L 564.974769 123.84 
L 565.580308 123.84 
L 566.185846 123.84 
L 566.791385 123.84 
L 567.396923 123.84 
L 568.002462 123.84 
L 568.608 123.84 
L 569.213538 123.84 
L 569.819077 123.84 
L 570.424615 123.84 
L 571.030154 123.84 
L 571.635692 123.84 
L 572.241231 123.84 
L 572.846769 123.84 
L 573.452308 123.84 
L 574.057846 123.84 
L 574.663385 123.84 
L 575.268923 123.84 
L 575.874462 123.84 
L 576.48 123.84 
L 577.085538 123.84 
L 577.691077 123.84 
L 578.296615 123.84 
L 578.902154 123.84 
L 578.296615 122.3712 
L 577.691077 119.9232 
L 577.085538 118.4544 
L 576.48 118.4544 
L 575.874462 119.9232 
L 575.268923 120.9024 
L 574.663385 120.9024 
L 574.057846 119.4336 
L 573.452308 116.9856 
L 572.846769 115.5168 
L 572.241231 115.5168 
L 571.635692 116.9856 
L 571.030154 117.4752 
L 570.424615 116.9856 
L 569.819077 114.048 
L 569.213538 110.1312 
L 568.608 107.6832 
L 568.002462 108.1728 
L 567.396923 110.1312 
L 566.791385 112.0896 
L 566.185846 112.0896 
L 565.580308 110.6208 
L 564.974769 108.6624 
L 564.369231 108.6624 
L 563.763692 111.1104 
L 563.158154 113.5584 
L 562.552615 116.0064 
L 561.947077 116.496 
L 561.341538 116.0064 
L 560.736 114.048 
L 560.130462 112.5792 
L 559.524923 112.5792 
L 558.919385 114.048 
L 558.313846 116.496 
L 557.708308 118.944 
L 557.102769 120.4128 
L 556.497231 120.9024 
L 555.891692 120.9024 
L 555.286154 122.8608 
z
" style="fill:#ff0000;fill-opacity:0.3;"/>
    <path clip-path="url(#p68ab8b773d)" d="M 579.507692 123.84 
L 580.113231 123.84 
L 580.718769 123.84 
L 581.324308 123.84 
L 581.929846 123.84 
L 582.535385 123.84 
L 582.686769 123.84 
L 582.535385 123.3504 
L 581.929846 120.4128 
L 581.324308 118.944 
L 580.718769 119.4336 
L 580.113231 121.8816 
z
" style="fill:#ff0000;fill-opacity:0.3;"/>
    <path clip-path="url(#p68ab8b773d)" d="M 614.427077 123.84 
L 614.628923 123.84 
L 615.234462 123.84 
L 615.84 123.84 
L 616.445538 123.84 
L 617.051077 123.84 
L 617.656615 123.84 
L 618.262154 123.84 
L 618.867692 123.84 
L 619.473231 123.84 
L 620.078769 123.84 
L 620.442092 123.84 
L 620.078769 122.3712 
L 619.473231 120.4128 
L 618.867692 119.4336 
L 618.262154 119.9232 
L 617.656615 120.9024 
L 617.051077 120.9024 
L 616.445538 120.4128 
L 615.84 120.9024 
L 615.234462 121.8816 
L 614.628923 123.3504 
z
" style="fill:#ff0000;fill-opacity:0.3;"/>
    <path clip-path="url(#p68ab8b773d)" d="M 622.016492 123.84 
L 622.500923 123.84 
L 623.106462 123.84 
L 623.712 123.84 
L 624.317538 123.84 
L 624.923077 123.84 
L 625.528615 123.84 
L 626.134154 123.84 
L 626.739692 123.84 
L 627.345231 123.84 
L 627.950769 123.84 
L 628.556308 123.84 
L 629.161846 123.84 
L 629.767385 123.84 
L 630.372923 123.84 
L 630.978462 123.84 
L 631.584 123.84 
L 632.189538 123.84 
L 632.795077 123.84 
L 633.400615 123.84 
L 634.006154 123.84 
L 634.611692 123.84 
L 635.217231 123.84 
L 635.822769 123.84 
L 636.428308 123.84 
L 637.033846 123.84 
L 637.639385 123.84 
L 637.841231 123.84 
L 637.639385 122.8608 
L 637.033846 118.944 
L 636.428308 116.496 
L 635.822769 116.496 
L 635.217231 117.4752 
L 634.611692 118.4544 
L 634.006154 117.4752 
L 633.400615 115.0272 
L 632.795077 112.0896 
L 632.189538 110.1312 
L 631.584 110.6208 
L 630.978462 112.5792 
L 630.372923 114.5376 
L 629.767385 115.0272 
L 629.161846 114.048 
L 628.556308 112.0896 
L 627.950769 111.1104 
L 627.345231 112.5792 
L 626.739692 116.496 
L 626.134154 119.9232 
L 625.528615 121.8816 
L 624.923077 121.392 
L 624.317538 119.9232 
L 623.712 118.4544 
L 623.106462 119.4336 
L 622.500923 121.8816 
z
" style="fill:#ff0000;fill-opacity:0.3;"/>
    <path clip-path="url(#p68ab8b773d)" d="M 640.364308 123.84 
L 640.667077 123.84 
L 640.969846 123.84 
L 640.667077 123.3504 
z
" style="fill:#ff0000;fill-opacity:0.3;"/>
   </g>
   <g id="PolyCollection_2">
    <path clip-path="url(#p68ab8b773d)" d="M 443.867077 123.84 
L 443.867077 123.84 
L 444.472615 123.84 
L 445.078154 123.84 
L 445.683692 123.84 
L 446.289231 123.84 
L 446.894769 123.84 
L 447.500308 123.84 
L 448.105846 123.84 
L 448.711385 123.84 
L 449.316923 123.84 
L 449.922462 123.84 
L 450.528 123.84 
L 451.133538 123.84 
L 451.739077 123.84 
L 452.344615 123.84 
L 452.950154 123.84 
L 453.555692 123.84 
L 454.161231 123.84 
L 454.766769 123.84 
L 455.372308 123.84 
L 455.977846 123.84 
L 456.583385 123.84 
L 457.188923 123.84 
L 457.794462 123.84 
L 458.4 123.84 
L 459.005538 123.84 
L 459.611077 123.84 
L 460.216615 123.84 
L 460.822154 123.84 
L 461.427692 123.84 
L 462.033231 123.84 
L 462.638769 123.84 
L 463.244308 123.84 
L 463.244308 123.84 
L 463.244308 123.84 
L 462.638769 123.84 
L 462.033231 125.3088 
L 461.427692 126.7776 
L 460.822154 128.2464 
L 460.216615 129.2256 
L 459.611077 128.736 
L 459.005538 128.2464 
L 458.4 127.7568 
L 457.794462 128.2464 
L 457.188923 129.2256 
L 456.583385 130.2048 
L 455.977846 130.6944 
L 455.372308 130.2048 
L 454.766769 129.2256 
L 454.161231 128.736 
L 453.555692 128.736 
L 452.950154 128.736 
L 452.344615 128.736 
L 451.739077 128.736 
L 451.133538 127.7568 
L 450.528 126.7776 
L 449.922462 125.3088 
L 449.316923 125.3088 
L 448.711385 125.7984 
L 448.105846 126.288 
L 447.500308 126.288 
L 446.894769 126.288 
L 446.289231 125.7984 
L 445.683692 125.3088 
L 445.078154 124.8192 
L 444.472615 124.3296 
L 443.867077 123.84 
z
" style="fill:#008000;fill-opacity:0.3;"/>
    <path clip-path="url(#p68ab8b773d)" d="M 488.676923 123.84 
L 488.676923 123.84 
L 489.282462 123.84 
L 489.888 123.84 
L 490.493538 123.84 
L 491.099077 123.84 
L 491.704615 123.84 
L 492.310154 123.84 
L 492.915692 123.84 
L 493.521231 123.84 
L 494.126769 123.84 
L 494.732308 123.84 
L 495.337846 123.84 
L 495.943385 123.84 
L 496.548923 123.84 
L 497.154462 123.84 
L 497.76 123.84 
L 498.365538 123.84 
L 498.971077 123.84 
L 499.576615 123.84 
L 500.182154 123.84 
L 500.787692 123.84 
L 501.393231 123.84 
L 501.393231 123.84 
L 501.393231 123.84 
L 500.787692 125.3088 
L 500.182154 127.2672 
L 499.576615 130.2048 
L 498.971077 132.6528 
L 498.365538 134.1216 
L 497.76 134.1216 
L 497.154462 133.1424 
L 496.548923 132.6528 
L 495.943385 133.1424 
L 495.337846 133.632 
L 494.732308 133.632 
L 494.126769 132.6528 
L 493.521231 131.184 
L 492.915692 129.7152 
L 492.310154 128.736 
L 491.704615 128.736 
L 491.099077 128.736 
L 490.493538 127.7568 
L 489.888 126.7776 
L 489.282462 124.8192 
L 488.676923 123.84 
z
" style="fill:#008000;fill-opacity:0.3;"/>
    <path clip-path="url(#p68ab8b773d)" d="M 508.962462 123.84 
L 509.265231 123.84 
L 509.870769 123.84 
L 510.476308 123.84 
L 511.081846 123.84 
L 511.687385 123.84 
L 512.292923 123.84 
L 512.898462 123.84 
L 513.504 123.84 
L 514.109538 123.84 
L 514.715077 123.84 
L 515.320615 123.84 
L 515.926154 123.84 
L 516.531692 123.84 
L 517.137231 123.84 
L 517.742769 123.84 
L 518.348308 123.84 
L 518.953846 123.84 
L 519.559385 123.84 
L 520.164923 123.84 
L 520.770462 123.84 
L 521.376 123.84 
L 521.981538 123.84 
L 522.587077 123.84 
L 523.192615 123.84 
L 523.798154 123.84 
L 524.403692 123.84 
L 525.009231 123.84 
L 525.614769 123.84 
L 526.220308 123.84 
L 526.825846 123.84 
L 527.431385 123.84 
L 528.036923 123.84 
L 528.642462 123.84 
L 529.248 123.84 
L 529.853538 123.84 
L 530.459077 123.84 
L 531.064615 123.84 
L 531.670154 123.84 
L 532.275692 123.84 
L 532.881231 123.84 
L 533.486769 123.84 
L 534.092308 123.84 
L 534.697846 123.84 
L 535.303385 123.84 
L 535.908923 123.84 
L 536.514462 123.84 
L 537.12 123.84 
L 537.725538 123.84 
L 538.331077 123.84 
L 538.936615 123.84 
L 539.542154 123.84 
L 540.147692 123.84 
L 540.753231 123.84 
L 540.955077 123.84 
L 540.753231 124.3296 
L 540.147692 126.7776 
L 539.542154 128.2464 
L 538.936615 129.7152 
L 538.331077 132.1632 
L 537.725538 135.1008 
L 537.12 137.0592 
L 536.514462 137.5488 
L 535.908923 136.5696 
L 535.303385 134.1216 
L 534.697846 133.1424 
L 534.092308 134.6112 
L 533.486769 137.0592 
L 532.881231 139.0176 
L 532.275692 140.4864 
L 531.670154 141.4656 
L 531.064615 141.4656 
L 530.459077 141.9552 
L 529.853538 142.4448 
L 529.248 142.9344 
L 528.642462 142.4448 
L 528.036923 140.976 
L 527.431385 138.528 
L 526.825846 136.5696 
L 526.220308 136.08 
L 525.614769 137.0592 
L 525.009231 139.0176 
L 524.403692 140.4864 
L 523.798154 139.9968 
L 523.192615 138.528 
L 522.587077 135.5904 
L 521.981538 133.632 
L 521.376 133.632 
L 520.770462 134.1216 
L 520.164923 135.1008 
L 519.559385 134.6112 
L 518.953846 133.632 
L 518.348308 131.6736 
L 517.742769 130.2048 
L 517.137231 130.2048 
L 516.531692 131.6736 
L 515.926154 132.6528 
L 515.320615 132.6528 
L 514.715077 132.1632 
L 514.109538 131.184 
L 513.504 130.6944 
L 512.898462 130.6944 
L 512.292923 131.184 
L 511.687385 131.6736 
L 511.081846 130.6944 
L 510.476308 129.2256 
L 509.870769 127.2672 
L 509.265231 124.8192 
z
" style="fill:#008000;fill-opacity:0.3;"/>
    <path clip-path="url(#p68ab8b773d)" d="M 542.973538 123.84 
L 543.175385 123.84 
L 543.780923 123.84 
L 544.386462 123.84 
L 544.992 123.84 
L 545.597538 123.84 
L 546.203077 123.84 
L 546.808615 123.84 
L 547.414154 123.84 
L 548.019692 123.84 
L 548.625231 123.84 
L 549.230769 123.84 
L 549.836308 123.84 
L 550.441846 123.84 
L 550.926277 123.84 
L 550.441846 125.7984 
L 549.836308 127.7568 
L 549.230769 129.2256 
L 548.625231 129.7152 
L 548.019692 128.736 
L 547.414154 127.2672 
L 546.808615 126.7776 
L 546.203077 127.7568 
L 545.597538 128.736 
L 544.992 129.2256 
L 544.386462 128.736 
L 543.780923 126.288 
L 543.175385 124.3296 
z
" style="fill:#008000;fill-opacity:0.3;"/>
    <path clip-path="url(#p68ab8b773d)" d="M 551.895138 123.84 
L 552.258462 123.84 
L 552.864 123.84 
L 553.469538 123.84 
L 554.075077 123.84 
L 554.680615 123.84 
L 555.084308 123.84 
L 554.680615 125.7984 
L 554.075077 128.2464 
L 553.469538 129.7152 
L 552.864 128.2464 
L 552.258462 125.3088 
z
" style="fill:#008000;fill-opacity:0.3;"/>
    <path clip-path="url(#p68ab8b773d)" d="M 578.902154 123.84 
L 578.902154 123.84 
L 579.507692 123.84 
L 579.507692 123.84 
L 579.507692 123.84 
L 578.902154 123.84 
z
" style="fill:#008000;fill-opacity:0.3;"/>
    <path clip-path="url(#p68ab8b773d)" d="M 582.686769 123.84 
L 583.140923 123.84 
L 583.746462 123.84 
L 584.352 123.84 
L 584.957538 123.84 
L 585.563077 123.84 
L 586.168615 123.84 
L 586.774154 123.84 
L 587.379692 123.84 
L 587.985231 123.84 
L 588.590769 123.84 
L 589.196308 123.84 
L 589.801846 123.84 
L 590.407385 123.84 
L 591.012923 123.84 
L 591.618462 123.84 
L 592.224 123.84 
L 592.829538 123.84 
L 593.435077 123.84 
L 594.040615 123.84 
L 594.646154 123.84 
L 595.251692 123.84 
L 595.857231 123.84 
L 596.462769 123.84 
L 597.068308 123.84 
L 597.673846 123.84 
L 598.279385 123.84 
L 598.884923 123.84 
L 599.490462 123.84 
L 600.096 123.84 
L 600.701538 123.84 
L 601.307077 123.84 
L 601.912615 123.84 
L 602.518154 123.84 
L 603.123692 123.84 
L 603.729231 123.84 
L 604.334769 123.84 
L 604.940308 123.84 
L 605.545846 123.84 
L 606.151385 123.84 
L 606.756923 123.84 
L 607.362462 123.84 
L 607.968 123.84 
L 608.573538 123.84 
L 609.179077 123.84 
L 609.784615 123.84 
L 610.390154 123.84 
L 610.995692 123.84 
L 611.601231 123.84 
L 612.206769 123.84 
L 612.812308 123.84 
L 613.417846 123.84 
L 614.023385 123.84 
L 614.427077 123.84 
L 614.023385 124.8192 
L 613.417846 126.288 
L 612.812308 127.2672 
L 612.206769 127.2672 
L 611.601231 126.288 
L 610.995692 125.3088 
L 610.390154 125.7984 
L 609.784615 127.2672 
L 609.179077 128.736 
L 608.573538 129.7152 
L 607.968 130.6944 
L 607.362462 130.2048 
L 606.756923 129.2256 
L 606.151385 129.2256 
L 605.545846 130.2048 
L 604.940308 130.6944 
L 604.334769 130.6944 
L 603.729231 129.7152 
L 603.123692 128.2464 
L 602.518154 127.2672 
L 601.912615 128.2464 
L 601.307077 130.2048 
L 600.701538 132.1632 
L 600.096 133.1424 
L 599.490462 133.1424 
L 598.884923 132.1632 
L 598.279385 130.6944 
L 597.673846 130.2048 
L 597.068308 130.6944 
L 596.462769 132.1632 
L 595.857231 133.1424 
L 595.251692 132.6528 
L 594.646154 130.6944 
L 594.040615 128.736 
L 593.435077 128.2464 
L 592.829538 129.2256 
L 592.224 130.2048 
L 591.618462 130.2048 
L 591.012923 129.7152 
L 590.407385 128.736 
L 589.801846 129.2256 
L 589.196308 130.6944 
L 588.590769 132.6528 
L 587.985231 133.632 
L 587.379692 132.6528 
L 586.774154 130.6944 
L 586.168615 127.2672 
L 585.563077 124.8192 
L 584.957538 124.3296 
L 584.352 125.3088 
L 583.746462 125.7984 
L 583.140923 125.3088 
z
" style="fill:#008000;fill-opacity:0.3;"/>
    <path clip-path="url(#p68ab8b773d)" d="M 620.442092 123.84 
L 620.684308 123.84 
L 621.289846 123.84 
L 621.895385 123.84 
L 622.016492 123.84 
L 621.895385 124.3296 
L 621.289846 125.3088 
L 620.684308 124.8192 
z
" style="fill:#008000;fill-opacity:0.3;"/>
    <path clip-path="url(#p68ab8b773d)" d="M 637.841231 123.84 
L 638.244923 123.84 
L 638.850462 123.84 
L 639.456 123.84 
L 640.061538 123.84 
L 640.364308 123.84 
L 640.061538 124.3296 
L 639.456 125.7984 
L 638.850462 126.7776 
L 638.244923 125.7984 
z
" style="fill:#008000;fill-opacity:0.3;"/>
    <path clip-path="url(#p68ab8b773d)" d="M 640.969846 123.84 
L 641.272615 123.84 
L 641.878154 123.84 
L 642.483692 123.84 
L 642.483692 123.84 
L 642.483692 128.2464 
L 641.878154 126.7776 
L 641.272615 124.3296 
z
" style="fill:#008000;fill-opacity:0.3;"/>
   </g>
   <g id="matplotlib.axis_1">
    <g id="xtick_1">
     <g id="line2d_1">
      <path clip-path="url(#p68ab8b773d)" d="M 83.571692 172.8 
L 83.571692 25.92 
" style="fill:none;stroke:#808080;stroke-dasharray:6.4,1.6,1,1.6;stroke-dashoffset:0;stroke-opacity:0.3;"/>
     </g>
     <g id="line2d_2">
      <defs>
       <path d="M 0 0 
L 0 3.5 
" id="mdc4b64bd4e" style="stroke:#000000;stroke-width:0.8;"/>
      </defs>
      <g>
       <use style="stroke:#000000;stroke-width:0.8;" x="83.571692" xlink:href="#mdc4b64bd4e" y="172.8"/>
      </g>
     </g>
     <g id="text_1">
      <!-- 2020-04 -->
      <g transform="translate(62.680286 187.398438)scale(0.1 -0.1)">
       <defs>
        <path d="M 19.1875 8.296875 
L 53.609375 8.296875 
L 53.609375 0 
L 7.328125 0 
L 7.328125 8.296875 
Q 12.9375 14.109375 22.625 23.890625 
Q 32.328125 33.6875 34.8125 36.53125 
Q 39.546875 41.84375 41.421875 45.53125 
Q 43.3125 49.21875 43.3125 52.78125 
Q 43.3125 58.59375 39.234375 62.25 
Q 35.15625 65.921875 28.609375 65.921875 
Q 23.96875 65.921875 18.8125 64.3125 
Q 13.671875 62.703125 7.8125 59.421875 
L 7.8125 69.390625 
Q 13.765625 71.78125 18.9375 73 
Q 24.125 74.21875 28.421875 74.21875 
Q 39.75 74.21875 46.484375 68.546875 
Q 53.21875 62.890625 53.21875 53.421875 
Q 53.21875 48.921875 51.53125 44.890625 
Q 49.859375 40.875 45.40625 35.40625 
Q 44.1875 33.984375 37.640625 27.21875 
Q 31.109375 20.453125 19.1875 8.296875 
z
" id="DejaVuSans-50"/>
        <path d="M 31.78125 66.40625 
Q 24.171875 66.40625 20.328125 58.90625 
Q 16.5 51.421875 16.5 36.375 
Q 16.5 21.390625 20.328125 13.890625 
Q 24.171875 6.390625 31.78125 6.390625 
Q 39.453125 6.390625 43.28125 13.890625 
Q 47.125 21.390625 47.125 36.375 
Q 47.125 51.421875 43.28125 58.90625 
Q 39.453125 66.40625 31.78125 66.40625 
z
M 31.78125 74.21875 
Q 44.046875 74.21875 50.515625 64.515625 
Q 56.984375 54.828125 56.984375 36.375 
Q 56.984375 17.96875 50.515625 8.265625 
Q 44.046875 -1.421875 31.78125 -1.421875 
Q 19.53125 -1.421875 13.0625 8.265625 
Q 6.59375 17.96875 6.59375 36.375 
Q 6.59375 54.828125 13.0625 64.515625 
Q 19.53125 74.21875 31.78125 74.21875 
z
" id="DejaVuSans-48"/>
        <path d="M 4.890625 31.390625 
L 31.203125 31.390625 
L 31.203125 23.390625 
L 4.890625 23.390625 
z
" id="DejaVuSans-45"/>
        <path d="M 37.796875 64.3125 
L 12.890625 25.390625 
L 37.796875 25.390625 
z
M 35.203125 72.90625 
L 47.609375 72.90625 
L 47.609375 25.390625 
L 58.015625 25.390625 
L 58.015625 17.1875 
L 47.609375 17.1875 
L 47.609375 0 
L 37.796875 0 
L 37.796875 17.1875 
L 4.890625 17.1875 
L 4.890625 26.703125 
z
" id="DejaVuSans-52"/>
       </defs>
       <use xlink:href="#DejaVuSans-50"/>
       <use x="63.623047" xlink:href="#DejaVuSans-48"/>
       <use x="127.246094" xlink:href="#DejaVuSans-50"/>
       <use x="190.869141" xlink:href="#DejaVuSans-48"/>
       <use x="254.492188" xlink:href="#DejaVuSans-45"/>
       <use x="290.576172" xlink:href="#DejaVuSans-48"/>
       <use x="354.199219" xlink:href="#DejaVuSans-52"/>
      </g>
     </g>
    </g>
    <g id="xtick_2">
     <g id="line2d_3">
      <path clip-path="url(#p68ab8b773d)" d="M 138.675692 172.8 
L 138.675692 25.92 
" style="fill:none;stroke:#808080;stroke-dasharray:6.4,1.6,1,1.6;stroke-dashoffset:0;stroke-opacity:0.3;"/>
     </g>
     <g id="line2d_4">
      <g>
       <use style="stroke:#000000;stroke-width:0.8;" x="138.675692" xlink:href="#mdc4b64bd4e" y="172.8"/>
      </g>
     </g>
     <g id="text_2">
      <!-- 2020-07 -->
      <g transform="translate(117.784286 187.398438)scale(0.1 -0.1)">
       <defs>
        <path d="M 8.203125 72.90625 
L 55.078125 72.90625 
L 55.078125 68.703125 
L 28.609375 0 
L 18.3125 0 
L 43.21875 64.59375 
L 8.203125 64.59375 
z
" id="DejaVuSans-55"/>
       </defs>
       <use xlink:href="#DejaVuSans-50"/>
       <use x="63.623047" xlink:href="#DejaVuSans-48"/>
       <use x="127.246094" xlink:href="#DejaVuSans-50"/>
       <use x="190.869141" xlink:href="#DejaVuSans-48"/>
       <use x="254.492188" xlink:href="#DejaVuSans-45"/>
       <use x="290.576172" xlink:href="#DejaVuSans-48"/>
       <use x="354.199219" xlink:href="#DejaVuSans-55"/>
      </g>
     </g>
    </g>
    <g id="xtick_3">
     <g id="line2d_5">
      <path clip-path="url(#p68ab8b773d)" d="M 194.385231 172.8 
L 194.385231 25.92 
" style="fill:none;stroke:#808080;stroke-dasharray:6.4,1.6,1,1.6;stroke-dashoffset:0;stroke-opacity:0.3;"/>
     </g>
     <g id="line2d_6">
      <g>
       <use style="stroke:#000000;stroke-width:0.8;" x="194.385231" xlink:href="#mdc4b64bd4e" y="172.8"/>
      </g>
     </g>
     <g id="text_3">
      <!-- 2020-10 -->
      <g transform="translate(173.493825 187.398438)scale(0.1 -0.1)">
       <defs>
        <path d="M 12.40625 8.296875 
L 28.515625 8.296875 
L 28.515625 63.921875 
L 10.984375 60.40625 
L 10.984375 69.390625 
L 28.421875 72.90625 
L 38.28125 72.90625 
L 38.28125 8.296875 
L 54.390625 8.296875 
L 54.390625 0 
L 12.40625 0 
z
" id="DejaVuSans-49"/>
       </defs>
       <use xlink:href="#DejaVuSans-50"/>
       <use x="63.623047" xlink:href="#DejaVuSans-48"/>
       <use x="127.246094" xlink:href="#DejaVuSans-50"/>
       <use x="190.869141" xlink:href="#DejaVuSans-48"/>
       <use x="254.492188" xlink:href="#DejaVuSans-45"/>
       <use x="290.576172" xlink:href="#DejaVuSans-49"/>
       <use x="354.199219" xlink:href="#DejaVuSans-48"/>
      </g>
     </g>
    </g>
    <g id="xtick_4">
     <g id="line2d_7">
      <path clip-path="url(#p68ab8b773d)" d="M 250.094769 172.8 
L 250.094769 25.92 
" style="fill:none;stroke:#808080;stroke-dasharray:6.4,1.6,1,1.6;stroke-dashoffset:0;stroke-opacity:0.3;"/>
     </g>
     <g id="line2d_8">
      <g>
       <use style="stroke:#000000;stroke-width:0.8;" x="250.094769" xlink:href="#mdc4b64bd4e" y="172.8"/>
      </g>
     </g>
     <g id="text_4">
      <!-- 2021-01 -->
      <g transform="translate(229.203363 187.398438)scale(0.1 -0.1)">
       <use xlink:href="#DejaVuSans-50"/>
       <use x="63.623047" xlink:href="#DejaVuSans-48"/>
       <use x="127.246094" xlink:href="#DejaVuSans-50"/>
       <use x="190.869141" xlink:href="#DejaVuSans-49"/>
       <use x="254.492188" xlink:href="#DejaVuSans-45"/>
       <use x="290.576172" xlink:href="#DejaVuSans-48"/>
       <use x="354.199219" xlink:href="#DejaVuSans-49"/>
      </g>
     </g>
    </g>
    <g id="xtick_5">
     <g id="line2d_9">
      <path clip-path="url(#p68ab8b773d)" d="M 304.593231 172.8 
L 304.593231 25.92 
" style="fill:none;stroke:#808080;stroke-dasharray:6.4,1.6,1,1.6;stroke-dashoffset:0;stroke-opacity:0.3;"/>
     </g>
     <g id="line2d_10">
      <g>
       <use style="stroke:#000000;stroke-width:0.8;" x="304.593231" xlink:href="#mdc4b64bd4e" y="172.8"/>
      </g>
     </g>
     <g id="text_5">
      <!-- 2021-04 -->
      <g transform="translate(283.701825 187.398438)scale(0.1 -0.1)">
       <use xlink:href="#DejaVuSans-50"/>
       <use x="63.623047" xlink:href="#DejaVuSans-48"/>
       <use x="127.246094" xlink:href="#DejaVuSans-50"/>
       <use x="190.869141" xlink:href="#DejaVuSans-49"/>
       <use x="254.492188" xlink:href="#DejaVuSans-45"/>
       <use x="290.576172" xlink:href="#DejaVuSans-48"/>
       <use x="354.199219" xlink:href="#DejaVuSans-52"/>
      </g>
     </g>
    </g>
    <g id="xtick_6">
     <g id="line2d_11">
      <path clip-path="url(#p68ab8b773d)" d="M 359.697231 172.8 
L 359.697231 25.92 
" style="fill:none;stroke:#808080;stroke-dasharray:6.4,1.6,1,1.6;stroke-dashoffset:0;stroke-opacity:0.3;"/>
     </g>
     <g id="line2d_12">
      <g>
       <use style="stroke:#000000;stroke-width:0.8;" x="359.697231" xlink:href="#mdc4b64bd4e" y="172.8"/>
      </g>
     </g>
     <g id="text_6">
      <!-- 2021-07 -->
      <g transform="translate(338.805825 187.398438)scale(0.1 -0.1)">
       <use xlink:href="#DejaVuSans-50"/>
       <use x="63.623047" xlink:href="#DejaVuSans-48"/>
       <use x="127.246094" xlink:href="#DejaVuSans-50"/>
       <use x="190.869141" xlink:href="#DejaVuSans-49"/>
       <use x="254.492188" xlink:href="#DejaVuSans-45"/>
       <use x="290.576172" xlink:href="#DejaVuSans-48"/>
       <use x="354.199219" xlink:href="#DejaVuSans-55"/>
      </g>
     </g>
    </g>
    <g id="xtick_7">
     <g id="line2d_13">
      <path clip-path="url(#p68ab8b773d)" d="M 415.406769 172.8 
L 415.406769 25.92 
" style="fill:none;stroke:#808080;stroke-dasharray:6.4,1.6,1,1.6;stroke-dashoffset:0;stroke-opacity:0.3;"/>
     </g>
     <g id="line2d_14">
      <g>
       <use style="stroke:#000000;stroke-width:0.8;" x="415.406769" xlink:href="#mdc4b64bd4e" y="172.8"/>
      </g>
     </g>
     <g id="text_7">
      <!-- 2021-10 -->
      <g transform="translate(394.515363 187.398438)scale(0.1 -0.1)">
       <use xlink:href="#DejaVuSans-50"/>
       <use x="63.623047" xlink:href="#DejaVuSans-48"/>
       <use x="127.246094" xlink:href="#DejaVuSans-50"/>
       <use x="190.869141" xlink:href="#DejaVuSans-49"/>
       <use x="254.492188" xlink:href="#DejaVuSans-45"/>
       <use x="290.576172" xlink:href="#DejaVuSans-49"/>
       <use x="354.199219" xlink:href="#DejaVuSans-48"/>
      </g>
     </g>
    </g>
    <g id="xtick_8">
     <g id="line2d_15">
      <path clip-path="url(#p68ab8b773d)" d="M 471.116308 172.8 
L 471.116308 25.92 
" style="fill:none;stroke:#808080;stroke-dasharray:6.4,1.6,1,1.6;stroke-dashoffset:0;stroke-opacity:0.3;"/>
     </g>
     <g id="line2d_16">
      <g>
       <use style="stroke:#000000;stroke-width:0.8;" x="471.116308" xlink:href="#mdc4b64bd4e" y="172.8"/>
      </g>
     </g>
     <g id="text_8">
      <!-- 2022-01 -->
      <g transform="translate(450.224901 187.398438)scale(0.1 -0.1)">
       <use xlink:href="#DejaVuSans-50"/>
       <use x="63.623047" xlink:href="#DejaVuSans-48"/>
       <use x="127.246094" xlink:href="#DejaVuSans-50"/>
       <use x="190.869141" xlink:href="#DejaVuSans-50"/>
       <use x="254.492188" xlink:href="#DejaVuSans-45"/>
       <use x="290.576172" xlink:href="#DejaVuSans-48"/>
       <use x="354.199219" xlink:href="#DejaVuSans-49"/>
      </g>
     </g>
    </g>
    <g id="xtick_9">
     <g id="line2d_17">
      <path clip-path="url(#p68ab8b773d)" d="M 525.614769 172.8 
L 525.614769 25.92 
" style="fill:none;stroke:#808080;stroke-dasharray:6.4,1.6,1,1.6;stroke-dashoffset:0;stroke-opacity:0.3;"/>
     </g>
     <g id="line2d_18">
      <g>
       <use style="stroke:#000000;stroke-width:0.8;" x="525.614769" xlink:href="#mdc4b64bd4e" y="172.8"/>
      </g>
     </g>
     <g id="text_9">
      <!-- 2022-04 -->
      <g transform="translate(504.723363 187.398438)scale(0.1 -0.1)">
       <use xlink:href="#DejaVuSans-50"/>
       <use x="63.623047" xlink:href="#DejaVuSans-48"/>
       <use x="127.246094" xlink:href="#DejaVuSans-50"/>
       <use x="190.869141" xlink:href="#DejaVuSans-50"/>
       <use x="254.492188" xlink:href="#DejaVuSans-45"/>
       <use x="290.576172" xlink:href="#DejaVuSans-48"/>
       <use x="354.199219" xlink:href="#DejaVuSans-52"/>
      </g>
     </g>
    </g>
    <g id="xtick_10">
     <g id="line2d_19">
      <path clip-path="url(#p68ab8b773d)" d="M 580.718769 172.8 
L 580.718769 25.92 
" style="fill:none;stroke:#808080;stroke-dasharray:6.4,1.6,1,1.6;stroke-dashoffset:0;stroke-opacity:0.3;"/>
     </g>
     <g id="line2d_20">
      <g>
       <use style="stroke:#000000;stroke-width:0.8;" x="580.718769" xlink:href="#mdc4b64bd4e" y="172.8"/>
      </g>
     </g>
     <g id="text_10">
      <!-- 2022-07 -->
      <g transform="translate(559.827363 187.398438)scale(0.1 -0.1)">
       <use xlink:href="#DejaVuSans-50"/>
       <use x="63.623047" xlink:href="#DejaVuSans-48"/>
       <use x="127.246094" xlink:href="#DejaVuSans-50"/>
       <use x="190.869141" xlink:href="#DejaVuSans-50"/>
       <use x="254.492188" xlink:href="#DejaVuSans-45"/>
       <use x="290.576172" xlink:href="#DejaVuSans-48"/>
       <use x="354.199219" xlink:href="#DejaVuSans-55"/>
      </g>
     </g>
    </g>
    <g id="xtick_11">
     <g id="line2d_21">
      <path clip-path="url(#p68ab8b773d)" d="M 636.428308 172.8 
L 636.428308 25.92 
" style="fill:none;stroke:#808080;stroke-dasharray:6.4,1.6,1,1.6;stroke-dashoffset:0;stroke-opacity:0.3;"/>
     </g>
     <g id="line2d_22">
      <g>
       <use style="stroke:#000000;stroke-width:0.8;" x="636.428308" xlink:href="#mdc4b64bd4e" y="172.8"/>
      </g>
     </g>
     <g id="text_11">
      <!-- 2022-10 -->
      <g transform="translate(615.536901 187.398438)scale(0.1 -0.1)">
       <use xlink:href="#DejaVuSans-50"/>
       <use x="63.623047" xlink:href="#DejaVuSans-48"/>
       <use x="127.246094" xlink:href="#DejaVuSans-50"/>
       <use x="190.869141" xlink:href="#DejaVuSans-50"/>
       <use x="254.492188" xlink:href="#DejaVuSans-45"/>
       <use x="290.576172" xlink:href="#DejaVuSans-49"/>
       <use x="354.199219" xlink:href="#DejaVuSans-48"/>
      </g>
     </g>
    </g>
    <g id="text_12">
     <!-- Datum -->
     <g transform="translate(343.086719 201.076562)scale(0.1 -0.1)">
      <defs>
       <path d="M 19.671875 64.796875 
L 19.671875 8.109375 
L 31.59375 8.109375 
Q 46.6875 8.109375 53.6875 14.9375 
Q 60.6875 21.78125 60.6875 36.53125 
Q 60.6875 51.171875 53.6875 57.984375 
Q 46.6875 64.796875 31.59375 64.796875 
z
M 9.8125 72.90625 
L 30.078125 72.90625 
Q 51.265625 72.90625 61.171875 64.09375 
Q 71.09375 55.28125 71.09375 36.53125 
Q 71.09375 17.671875 61.125 8.828125 
Q 51.171875 0 30.078125 0 
L 9.8125 0 
z
" id="DejaVuSans-68"/>
       <path d="M 34.28125 27.484375 
Q 23.390625 27.484375 19.1875 25 
Q 14.984375 22.515625 14.984375 16.5 
Q 14.984375 11.71875 18.140625 8.90625 
Q 21.296875 6.109375 26.703125 6.109375 
Q 34.1875 6.109375 38.703125 11.40625 
Q 43.21875 16.703125 43.21875 25.484375 
L 43.21875 27.484375 
z
M 52.203125 31.203125 
L 52.203125 0 
L 43.21875 0 
L 43.21875 8.296875 
Q 40.140625 3.328125 35.546875 0.953125 
Q 30.953125 -1.421875 24.3125 -1.421875 
Q 15.921875 -1.421875 10.953125 3.296875 
Q 6 8.015625 6 15.921875 
Q 6 25.140625 12.171875 29.828125 
Q 18.359375 34.515625 30.609375 34.515625 
L 43.21875 34.515625 
L 43.21875 35.40625 
Q 43.21875 41.609375 39.140625 45 
Q 35.0625 48.390625 27.6875 48.390625 
Q 23 48.390625 18.546875 47.265625 
Q 14.109375 46.140625 10.015625 43.890625 
L 10.015625 52.203125 
Q 14.9375 54.109375 19.578125 55.046875 
Q 24.21875 56 28.609375 56 
Q 40.484375 56 46.34375 49.84375 
Q 52.203125 43.703125 52.203125 31.203125 
z
" id="DejaVuSans-97"/>
       <path d="M 18.3125 70.21875 
L 18.3125 54.6875 
L 36.8125 54.6875 
L 36.8125 47.703125 
L 18.3125 47.703125 
L 18.3125 18.015625 
Q 18.3125 11.328125 20.140625 9.421875 
Q 21.96875 7.515625 27.59375 7.515625 
L 36.8125 7.515625 
L 36.8125 0 
L 27.59375 0 
Q 17.1875 0 13.234375 3.875 
Q 9.28125 7.765625 9.28125 18.015625 
L 9.28125 47.703125 
L 2.6875 47.703125 
L 2.6875 54.6875 
L 9.28125 54.6875 
L 9.28125 70.21875 
z
" id="DejaVuSans-116"/>
       <path d="M 8.5 21.578125 
L 8.5 54.6875 
L 17.484375 54.6875 
L 17.484375 21.921875 
Q 17.484375 14.15625 20.5 10.265625 
Q 23.53125 6.390625 29.59375 6.390625 
Q 36.859375 6.390625 41.078125 11.03125 
Q 45.3125 15.671875 45.3125 23.6875 
L 45.3125 54.6875 
L 54.296875 54.6875 
L 54.296875 0 
L 45.3125 0 
L 45.3125 8.40625 
Q 42.046875 3.421875 37.71875 1 
Q 33.40625 -1.421875 27.6875 -1.421875 
Q 18.265625 -1.421875 13.375 4.4375 
Q 8.5 10.296875 8.5 21.578125 
z
M 31.109375 56 
z
" id="DejaVuSans-117"/>
       <path d="M 52 44.1875 
Q 55.375 50.25 60.0625 53.125 
Q 64.75 56 71.09375 56 
Q 79.640625 56 84.28125 50.015625 
Q 88.921875 44.046875 88.921875 33.015625 
L 88.921875 0 
L 79.890625 0 
L 79.890625 32.71875 
Q 79.890625 40.578125 77.09375 44.375 
Q 74.3125 48.1875 68.609375 48.1875 
Q 61.625 48.1875 57.5625 43.546875 
Q 53.515625 38.921875 53.515625 30.90625 
L 53.515625 0 
L 44.484375 0 
L 44.484375 32.71875 
Q 44.484375 40.625 41.703125 44.40625 
Q 38.921875 48.1875 33.109375 48.1875 
Q 26.21875 48.1875 22.15625 43.53125 
Q 18.109375 38.875 18.109375 30.90625 
L 18.109375 0 
L 9.078125 0 
L 9.078125 54.6875 
L 18.109375 54.6875 
L 18.109375 46.1875 
Q 21.1875 51.21875 25.484375 53.609375 
Q 29.78125 56 35.6875 56 
Q 41.65625 56 45.828125 52.96875 
Q 50 49.953125 52 44.1875 
z
" id="DejaVuSans-109"/>
      </defs>
      <use xlink:href="#DejaVuSans-68"/>
      <use x="77.001953" xlink:href="#DejaVuSans-97"/>
      <use x="138.28125" xlink:href="#DejaVuSans-116"/>
      <use x="177.490234" xlink:href="#DejaVuSans-117"/>
      <use x="240.869141" xlink:href="#DejaVuSans-109"/>
     </g>
    </g>
   </g>
   <g id="matplotlib.axis_2">
    <g id="ytick_1">
     <g id="line2d_23">
      <path clip-path="url(#p68ab8b773d)" d="M 64.8 172.8 
L 655.2 172.8 
" style="fill:none;stroke:#808080;stroke-dasharray:6.4,1.6,1,1.6;stroke-dashoffset:0;stroke-opacity:0.3;"/>
     </g>
     <g id="line2d_24">
      <defs>
       <path d="M 0 0 
L -3.5 0 
" id="m62167a520d" style="stroke:#000000;stroke-width:0.8;"/>
      </defs>
      <g>
       <use style="stroke:#000000;stroke-width:0.8;" x="64.8" xlink:href="#m62167a520d" y="172.8"/>
      </g>
     </g>
     <g id="text_13">
      <!-- 0.0 -->
      <g transform="translate(41.896875 176.599219)scale(0.1 -0.1)">
       <defs>
        <path d="M 10.6875 12.40625 
L 21 12.40625 
L 21 0 
L 10.6875 0 
z
" id="DejaVuSans-46"/>
       </defs>
       <use xlink:href="#DejaVuSans-48"/>
       <use x="63.623047" xlink:href="#DejaVuSans-46"/>
       <use x="95.410156" xlink:href="#DejaVuSans-48"/>
      </g>
     </g>
    </g>
    <g id="ytick_2">
     <g id="line2d_25">
      <path clip-path="url(#p68ab8b773d)" d="M 64.8 148.32 
L 655.2 148.32 
" style="fill:none;stroke:#808080;stroke-dasharray:6.4,1.6,1,1.6;stroke-dashoffset:0;stroke-opacity:0.3;"/>
     </g>
     <g id="line2d_26">
      <g>
       <use style="stroke:#000000;stroke-width:0.8;" x="64.8" xlink:href="#m62167a520d" y="148.32"/>
      </g>
     </g>
     <g id="text_14">
      <!-- 0.5 -->
      <g transform="translate(41.896875 152.119219)scale(0.1 -0.1)">
       <defs>
        <path d="M 10.796875 72.90625 
L 49.515625 72.90625 
L 49.515625 64.59375 
L 19.828125 64.59375 
L 19.828125 46.734375 
Q 21.96875 47.46875 24.109375 47.828125 
Q 26.265625 48.1875 28.421875 48.1875 
Q 40.625 48.1875 47.75 41.5 
Q 54.890625 34.8125 54.890625 23.390625 
Q 54.890625 11.625 47.5625 5.09375 
Q 40.234375 -1.421875 26.90625 -1.421875 
Q 22.3125 -1.421875 17.546875 -0.640625 
Q 12.796875 0.140625 7.71875 1.703125 
L 7.71875 11.625 
Q 12.109375 9.234375 16.796875 8.0625 
Q 21.484375 6.890625 26.703125 6.890625 
Q 35.15625 6.890625 40.078125 11.328125 
Q 45.015625 15.765625 45.015625 23.390625 
Q 45.015625 31 40.078125 35.4375 
Q 35.15625 39.890625 26.703125 39.890625 
Q 22.75 39.890625 18.8125 39.015625 
Q 14.890625 38.140625 10.796875 36.28125 
z
" id="DejaVuSans-53"/>
       </defs>
       <use xlink:href="#DejaVuSans-48"/>
       <use x="63.623047" xlink:href="#DejaVuSans-46"/>
       <use x="95.410156" xlink:href="#DejaVuSans-53"/>
      </g>
     </g>
    </g>
    <g id="ytick_3">
     <g id="line2d_27">
      <path clip-path="url(#p68ab8b773d)" d="M 64.8 123.84 
L 655.2 123.84 
" style="fill:none;stroke:#808080;stroke-dasharray:6.4,1.6,1,1.6;stroke-dashoffset:0;stroke-opacity:0.3;"/>
     </g>
     <g id="line2d_28">
      <g>
       <use style="stroke:#000000;stroke-width:0.8;" x="64.8" xlink:href="#m62167a520d" y="123.84"/>
      </g>
     </g>
     <g id="text_15">
      <!-- 1.0 -->
      <g transform="translate(41.896875 127.639219)scale(0.1 -0.1)">
       <use xlink:href="#DejaVuSans-49"/>
       <use x="63.623047" xlink:href="#DejaVuSans-46"/>
       <use x="95.410156" xlink:href="#DejaVuSans-48"/>
      </g>
     </g>
    </g>
    <g id="ytick_4">
     <g id="line2d_29">
      <path clip-path="url(#p68ab8b773d)" d="M 64.8 99.36 
L 655.2 99.36 
" style="fill:none;stroke:#808080;stroke-dasharray:6.4,1.6,1,1.6;stroke-dashoffset:0;stroke-opacity:0.3;"/>
     </g>
     <g id="line2d_30">
      <g>
       <use style="stroke:#000000;stroke-width:0.8;" x="64.8" xlink:href="#m62167a520d" y="99.36"/>
      </g>
     </g>
     <g id="text_16">
      <!-- 1.5 -->
      <g transform="translate(41.896875 103.159219)scale(0.1 -0.1)">
       <use xlink:href="#DejaVuSans-49"/>
       <use x="63.623047" xlink:href="#DejaVuSans-46"/>
       <use x="95.410156" xlink:href="#DejaVuSans-53"/>
      </g>
     </g>
    </g>
    <g id="ytick_5">
     <g id="line2d_31">
      <path clip-path="url(#p68ab8b773d)" d="M 64.8 74.88 
L 655.2 74.88 
" style="fill:none;stroke:#808080;stroke-dasharray:6.4,1.6,1,1.6;stroke-dashoffset:0;stroke-opacity:0.3;"/>
     </g>
     <g id="line2d_32">
      <g>
       <use style="stroke:#000000;stroke-width:0.8;" x="64.8" xlink:href="#m62167a520d" y="74.88"/>
      </g>
     </g>
     <g id="text_17">
      <!-- 2.0 -->
      <g transform="translate(41.896875 78.679219)scale(0.1 -0.1)">
       <use xlink:href="#DejaVuSans-50"/>
       <use x="63.623047" xlink:href="#DejaVuSans-46"/>
       <use x="95.410156" xlink:href="#DejaVuSans-48"/>
      </g>
     </g>
    </g>
    <g id="ytick_6">
     <g id="line2d_33">
      <path clip-path="url(#p68ab8b773d)" d="M 64.8 50.4 
L 655.2 50.4 
" style="fill:none;stroke:#808080;stroke-dasharray:6.4,1.6,1,1.6;stroke-dashoffset:0;stroke-opacity:0.3;"/>
     </g>
     <g id="line2d_34">
      <g>
       <use style="stroke:#000000;stroke-width:0.8;" x="64.8" xlink:href="#m62167a520d" y="50.4"/>
      </g>
     </g>
     <g id="text_18">
      <!-- 2.5 -->
      <g transform="translate(41.896875 54.199219)scale(0.1 -0.1)">
       <use xlink:href="#DejaVuSans-50"/>
       <use x="63.623047" xlink:href="#DejaVuSans-46"/>
       <use x="95.410156" xlink:href="#DejaVuSans-53"/>
      </g>
     </g>
    </g>
    <g id="ytick_7">
     <g id="line2d_35">
      <path clip-path="url(#p68ab8b773d)" d="M 64.8 25.92 
L 655.2 25.92 
" style="fill:none;stroke:#808080;stroke-dasharray:6.4,1.6,1,1.6;stroke-dashoffset:0;stroke-opacity:0.3;"/>
     </g>
     <g id="line2d_36">
      <g>
       <use style="stroke:#000000;stroke-width:0.8;" x="64.8" xlink:href="#m62167a520d" y="25.92"/>
      </g>
     </g>
     <g id="text_19">
      <!-- 3.0 -->
      <g transform="translate(41.896875 29.719219)scale(0.1 -0.1)">
       <defs>
        <path d="M 40.578125 39.3125 
Q 47.65625 37.796875 51.625 33 
Q 55.609375 28.21875 55.609375 21.1875 
Q 55.609375 10.40625 48.1875 4.484375 
Q 40.765625 -1.421875 27.09375 -1.421875 
Q 22.515625 -1.421875 17.65625 -0.515625 
Q 12.796875 0.390625 7.625 2.203125 
L 7.625 11.71875 
Q 11.71875 9.328125 16.59375 8.109375 
Q 21.484375 6.890625 26.8125 6.890625 
Q 36.078125 6.890625 40.9375 10.546875 
Q 45.796875 14.203125 45.796875 21.1875 
Q 45.796875 27.640625 41.28125 31.265625 
Q 36.765625 34.90625 28.71875 34.90625 
L 20.21875 34.90625 
L 20.21875 43.015625 
L 29.109375 43.015625 
Q 36.375 43.015625 40.234375 45.921875 
Q 44.09375 48.828125 44.09375 54.296875 
Q 44.09375 59.90625 40.109375 62.90625 
Q 36.140625 65.921875 28.71875 65.921875 
Q 24.65625 65.921875 20.015625 65.03125 
Q 15.375 64.15625 9.8125 62.3125 
L 9.8125 71.09375 
Q 15.4375 72.65625 20.34375 73.4375 
Q 25.25 74.21875 29.59375 74.21875 
Q 40.828125 74.21875 47.359375 69.109375 
Q 53.90625 64.015625 53.90625 55.328125 
Q 53.90625 49.265625 50.4375 45.09375 
Q 46.96875 40.921875 40.578125 39.3125 
z
" id="DejaVuSans-51"/>
       </defs>
       <use xlink:href="#DejaVuSans-51"/>
       <use x="63.623047" xlink:href="#DejaVuSans-46"/>
       <use x="95.410156" xlink:href="#DejaVuSans-48"/>
      </g>
     </g>
    </g>
    <g id="text_20">
     <!-- Reproductiegetal -->
     <g transform="translate(35.817187 142.044375)rotate(-90)scale(0.1 -0.1)">
      <defs>
       <path d="M 44.390625 34.1875 
Q 47.5625 33.109375 50.5625 29.59375 
Q 53.5625 26.078125 56.59375 19.921875 
L 66.609375 0 
L 56 0 
L 46.6875 18.703125 
Q 43.0625 26.03125 39.671875 28.421875 
Q 36.28125 30.8125 30.421875 30.8125 
L 19.671875 30.8125 
L 19.671875 0 
L 9.8125 0 
L 9.8125 72.90625 
L 32.078125 72.90625 
Q 44.578125 72.90625 50.734375 67.671875 
Q 56.890625 62.453125 56.890625 51.90625 
Q 56.890625 45.015625 53.6875 40.46875 
Q 50.484375 35.9375 44.390625 34.1875 
z
M 19.671875 64.796875 
L 19.671875 38.921875 
L 32.078125 38.921875 
Q 39.203125 38.921875 42.84375 42.21875 
Q 46.484375 45.515625 46.484375 51.90625 
Q 46.484375 58.296875 42.84375 61.546875 
Q 39.203125 64.796875 32.078125 64.796875 
z
" id="DejaVuSans-82"/>
       <path d="M 56.203125 29.59375 
L 56.203125 25.203125 
L 14.890625 25.203125 
Q 15.484375 15.921875 20.484375 11.0625 
Q 25.484375 6.203125 34.421875 6.203125 
Q 39.59375 6.203125 44.453125 7.46875 
Q 49.3125 8.734375 54.109375 11.28125 
L 54.109375 2.78125 
Q 49.265625 0.734375 44.1875 -0.34375 
Q 39.109375 -1.421875 33.890625 -1.421875 
Q 20.796875 -1.421875 13.15625 6.1875 
Q 5.515625 13.8125 5.515625 26.8125 
Q 5.515625 40.234375 12.765625 48.109375 
Q 20.015625 56 32.328125 56 
Q 43.359375 56 49.78125 48.890625 
Q 56.203125 41.796875 56.203125 29.59375 
z
M 47.21875 32.234375 
Q 47.125 39.59375 43.09375 43.984375 
Q 39.0625 48.390625 32.421875 48.390625 
Q 24.90625 48.390625 20.390625 44.140625 
Q 15.875 39.890625 15.1875 32.171875 
z
" id="DejaVuSans-101"/>
       <path d="M 18.109375 8.203125 
L 18.109375 -20.796875 
L 9.078125 -20.796875 
L 9.078125 54.6875 
L 18.109375 54.6875 
L 18.109375 46.390625 
Q 20.953125 51.265625 25.265625 53.625 
Q 29.59375 56 35.59375 56 
Q 45.5625 56 51.78125 48.09375 
Q 58.015625 40.1875 58.015625 27.296875 
Q 58.015625 14.40625 51.78125 6.484375 
Q 45.5625 -1.421875 35.59375 -1.421875 
Q 29.59375 -1.421875 25.265625 0.953125 
Q 20.953125 3.328125 18.109375 8.203125 
z
M 48.6875 27.296875 
Q 48.6875 37.203125 44.609375 42.84375 
Q 40.53125 48.484375 33.40625 48.484375 
Q 26.265625 48.484375 22.1875 42.84375 
Q 18.109375 37.203125 18.109375 27.296875 
Q 18.109375 17.390625 22.1875 11.75 
Q 26.265625 6.109375 33.40625 6.109375 
Q 40.53125 6.109375 44.609375 11.75 
Q 48.6875 17.390625 48.6875 27.296875 
z
" id="DejaVuSans-112"/>
       <path d="M 41.109375 46.296875 
Q 39.59375 47.171875 37.8125 47.578125 
Q 36.03125 48 33.890625 48 
Q 26.265625 48 22.1875 43.046875 
Q 18.109375 38.09375 18.109375 28.8125 
L 18.109375 0 
L 9.078125 0 
L 9.078125 54.6875 
L 18.109375 54.6875 
L 18.109375 46.1875 
Q 20.953125 51.171875 25.484375 53.578125 
Q 30.03125 56 36.53125 56 
Q 37.453125 56 38.578125 55.875 
Q 39.703125 55.765625 41.0625 55.515625 
z
" id="DejaVuSans-114"/>
       <path d="M 30.609375 48.390625 
Q 23.390625 48.390625 19.1875 42.75 
Q 14.984375 37.109375 14.984375 27.296875 
Q 14.984375 17.484375 19.15625 11.84375 
Q 23.34375 6.203125 30.609375 6.203125 
Q 37.796875 6.203125 41.984375 11.859375 
Q 46.1875 17.53125 46.1875 27.296875 
Q 46.1875 37.015625 41.984375 42.703125 
Q 37.796875 48.390625 30.609375 48.390625 
z
M 30.609375 56 
Q 42.328125 56 49.015625 48.375 
Q 55.71875 40.765625 55.71875 27.296875 
Q 55.71875 13.875 49.015625 6.21875 
Q 42.328125 -1.421875 30.609375 -1.421875 
Q 18.84375 -1.421875 12.171875 6.21875 
Q 5.515625 13.875 5.515625 27.296875 
Q 5.515625 40.765625 12.171875 48.375 
Q 18.84375 56 30.609375 56 
z
" id="DejaVuSans-111"/>
       <path d="M 45.40625 46.390625 
L 45.40625 75.984375 
L 54.390625 75.984375 
L 54.390625 0 
L 45.40625 0 
L 45.40625 8.203125 
Q 42.578125 3.328125 38.25 0.953125 
Q 33.9375 -1.421875 27.875 -1.421875 
Q 17.96875 -1.421875 11.734375 6.484375 
Q 5.515625 14.40625 5.515625 27.296875 
Q 5.515625 40.1875 11.734375 48.09375 
Q 17.96875 56 27.875 56 
Q 33.9375 56 38.25 53.625 
Q 42.578125 51.265625 45.40625 46.390625 
z
M 14.796875 27.296875 
Q 14.796875 17.390625 18.875 11.75 
Q 22.953125 6.109375 30.078125 6.109375 
Q 37.203125 6.109375 41.296875 11.75 
Q 45.40625 17.390625 45.40625 27.296875 
Q 45.40625 37.203125 41.296875 42.84375 
Q 37.203125 48.484375 30.078125 48.484375 
Q 22.953125 48.484375 18.875 42.84375 
Q 14.796875 37.203125 14.796875 27.296875 
z
" id="DejaVuSans-100"/>
       <path d="M 48.78125 52.59375 
L 48.78125 44.1875 
Q 44.96875 46.296875 41.140625 47.34375 
Q 37.3125 48.390625 33.40625 48.390625 
Q 24.65625 48.390625 19.8125 42.84375 
Q 14.984375 37.3125 14.984375 27.296875 
Q 14.984375 17.28125 19.8125 11.734375 
Q 24.65625 6.203125 33.40625 6.203125 
Q 37.3125 6.203125 41.140625 7.25 
Q 44.96875 8.296875 48.78125 10.40625 
L 48.78125 2.09375 
Q 45.015625 0.34375 40.984375 -0.53125 
Q 36.96875 -1.421875 32.421875 -1.421875 
Q 20.0625 -1.421875 12.78125 6.34375 
Q 5.515625 14.109375 5.515625 27.296875 
Q 5.515625 40.671875 12.859375 48.328125 
Q 20.21875 56 33.015625 56 
Q 37.15625 56 41.109375 55.140625 
Q 45.0625 54.296875 48.78125 52.59375 
z
" id="DejaVuSans-99"/>
       <path d="M 9.421875 54.6875 
L 18.40625 54.6875 
L 18.40625 0 
L 9.421875 0 
z
M 9.421875 75.984375 
L 18.40625 75.984375 
L 18.40625 64.59375 
L 9.421875 64.59375 
z
" id="DejaVuSans-105"/>
       <path d="M 45.40625 27.984375 
Q 45.40625 37.75 41.375 43.109375 
Q 37.359375 48.484375 30.078125 48.484375 
Q 22.859375 48.484375 18.828125 43.109375 
Q 14.796875 37.75 14.796875 27.984375 
Q 14.796875 18.265625 18.828125 12.890625 
Q 22.859375 7.515625 30.078125 7.515625 
Q 37.359375 7.515625 41.375 12.890625 
Q 45.40625 18.265625 45.40625 27.984375 
z
M 54.390625 6.78125 
Q 54.390625 -7.171875 48.1875 -13.984375 
Q 42 -20.796875 29.203125 -20.796875 
Q 24.46875 -20.796875 20.265625 -20.09375 
Q 16.0625 -19.390625 12.109375 -17.921875 
L 12.109375 -9.1875 
Q 16.0625 -11.328125 19.921875 -12.34375 
Q 23.78125 -13.375 27.78125 -13.375 
Q 36.625 -13.375 41.015625 -8.765625 
Q 45.40625 -4.15625 45.40625 5.171875 
L 45.40625 9.625 
Q 42.625 4.78125 38.28125 2.390625 
Q 33.9375 0 27.875 0 
Q 17.828125 0 11.671875 7.65625 
Q 5.515625 15.328125 5.515625 27.984375 
Q 5.515625 40.671875 11.671875 48.328125 
Q 17.828125 56 27.875 56 
Q 33.9375 56 38.28125 53.609375 
Q 42.625 51.21875 45.40625 46.390625 
L 45.40625 54.6875 
L 54.390625 54.6875 
z
" id="DejaVuSans-103"/>
       <path d="M 9.421875 75.984375 
L 18.40625 75.984375 
L 18.40625 0 
L 9.421875 0 
z
" id="DejaVuSans-108"/>
      </defs>
      <use xlink:href="#DejaVuSans-82"/>
      <use x="64.982422" xlink:href="#DejaVuSans-101"/>
      <use x="126.505859" xlink:href="#DejaVuSans-112"/>
      <use x="189.982422" xlink:href="#DejaVuSans-114"/>
      <use x="228.845703" xlink:href="#DejaVuSans-111"/>
      <use x="290.027344" xlink:href="#DejaVuSans-100"/>
      <use x="353.503906" xlink:href="#DejaVuSans-117"/>
      <use x="416.882812" xlink:href="#DejaVuSans-99"/>
      <use x="471.863281" xlink:href="#DejaVuSans-116"/>
      <use x="511.072266" xlink:href="#DejaVuSans-105"/>
      <use x="538.855469" xlink:href="#DejaVuSans-101"/>
      <use x="600.378906" xlink:href="#DejaVuSans-103"/>
      <use x="663.855469" xlink:href="#DejaVuSans-101"/>
      <use x="725.378906" xlink:href="#DejaVuSans-116"/>
      <use x="764.587891" xlink:href="#DejaVuSans-97"/>
      <use x="825.867188" xlink:href="#DejaVuSans-108"/>
     </g>
    </g>
   </g>
   <g id="line2d_37">
    <path clip-path="url(#p68ab8b773d)" d="M 417.223385 114.048 
L 417.828923 114.048 
L 418.434462 113.0688 
L 419.04 111.6 
L 419.645538 110.6208 
L 420.251077 111.1104 
L 421.462154 114.048 
L 422.067692 114.048 
L 422.673231 113.0688 
L 423.278769 111.1104 
L 423.884308 108.6624 
L 424.489846 108.1728 
L 425.095385 110.1312 
L 425.700923 113.5584 
L 426.306462 115.5168 
L 426.912 116.0064 
L 427.517538 115.0272 
L 428.123077 113.5584 
L 428.728615 112.5792 
L 429.939692 114.5376 
L 430.545231 115.0272 
L 431.150769 114.5376 
L 432.361846 111.6 
L 432.967385 110.6208 
L 433.572923 111.6 
L 434.178462 113.0688 
L 434.784 113.0688 
L 436.600615 110.1312 
L 437.206154 110.6208 
L 438.417231 113.5584 
L 439.022769 114.5376 
L 439.628308 115.0272 
L 440.233846 115.0272 
L 440.839385 115.5168 
L 441.444923 116.496 
L 442.050462 118.944 
L 443.261538 122.8608 
L 443.867077 123.84 
L 446.894769 126.288 
L 448.105846 126.288 
L 449.316923 125.3088 
L 449.922462 125.3088 
L 450.528 126.7776 
L 451.739077 128.736 
L 454.161231 128.736 
L 454.766769 129.2256 
L 455.372308 130.2048 
L 455.977846 130.6944 
L 456.583385 130.2048 
L 457.794462 128.2464 
L 458.4 127.7568 
L 460.216615 129.2256 
L 460.822154 128.2464 
L 462.638769 123.84 
L 463.244308 123.84 
L 463.849846 123.3504 
L 464.455385 122.3712 
L 465.060923 120.4128 
L 466.877538 112.0896 
L 467.483077 112.0896 
L 468.088615 113.0688 
L 468.694154 112.5792 
L 469.299692 110.1312 
L 469.905231 107.1936 
L 470.510769 105.2352 
L 471.116308 106.704 
L 472.327385 116.496 
L 472.932923 118.944 
L 473.538462 118.944 
L 474.749538 116.9856 
L 475.355077 115.5168 
L 476.566154 114.5376 
L 477.171692 113.5584 
L 477.777231 111.6 
L 478.382769 110.1312 
L 478.988308 109.152 
L 479.593846 109.152 
L 480.199385 110.6208 
L 480.804923 112.5792 
L 481.410462 115.0272 
L 482.016 116.496 
L 482.621538 116.9856 
L 483.832615 116.9856 
L 484.438154 117.4752 
L 485.649231 120.4128 
L 486.860308 122.3712 
L 487.465846 122.8608 
L 488.071385 122.8608 
L 489.282462 124.8192 
L 489.888 126.7776 
L 491.099077 128.736 
L 492.310154 128.736 
L 492.915692 129.7152 
L 494.126769 132.6528 
L 494.732308 133.632 
L 495.337846 133.632 
L 496.548923 132.6528 
L 497.154462 133.1424 
L 497.76 134.1216 
L 498.365538 134.1216 
L 498.971077 132.6528 
L 499.576615 130.2048 
L 500.182154 127.2672 
L 500.787692 125.3088 
L 501.393231 123.84 
L 501.998769 123.3504 
L 502.604308 121.8816 
L 503.209846 118.4544 
L 504.420923 108.6624 
L 505.026462 105.7248 
L 505.632 106.2144 
L 506.237538 109.6416 
L 507.448615 117.9648 
L 508.054154 120.9024 
L 509.265231 124.8192 
L 509.870769 127.2672 
L 510.476308 129.2256 
L 511.081846 130.6944 
L 511.687385 131.6736 
L 512.898462 130.6944 
L 513.504 130.6944 
L 514.109538 131.184 
L 514.715077 132.1632 
L 515.320615 132.6528 
L 515.926154 132.6528 
L 516.531692 131.6736 
L 517.137231 130.2048 
L 517.742769 130.2048 
L 518.348308 131.6736 
L 518.953846 133.632 
L 519.559385 134.6112 
L 520.164923 135.1008 
L 520.770462 134.1216 
L 521.376 133.632 
L 521.981538 133.632 
L 522.587077 135.5904 
L 523.192615 138.528 
L 523.798154 139.9968 
L 524.403692 140.4864 
L 525.009231 139.0176 
L 525.614769 137.0592 
L 526.220308 136.08 
L 526.825846 136.5696 
L 527.431385 138.528 
L 528.036923 140.976 
L 528.642462 142.4448 
L 529.248 142.9344 
L 531.064615 141.4656 
L 531.670154 141.4656 
L 532.275692 140.4864 
L 532.881231 139.0176 
L 533.486769 137.0592 
L 534.092308 134.6112 
L 534.697846 133.1424 
L 535.303385 134.1216 
L 535.908923 136.5696 
L 536.514462 137.5488 
L 537.12 137.0592 
L 537.725538 135.1008 
L 538.936615 129.7152 
L 540.147692 126.7776 
L 540.753231 124.3296 
L 541.358769 122.8608 
L 541.964308 122.3712 
L 542.569846 122.8608 
L 543.175385 124.3296 
L 543.780923 126.288 
L 544.386462 128.736 
L 544.992 129.2256 
L 545.597538 128.736 
L 546.808615 126.7776 
L 547.414154 127.2672 
L 548.019692 128.736 
L 548.625231 129.7152 
L 549.230769 129.2256 
L 549.836308 127.7568 
L 550.441846 125.7984 
L 551.047385 123.3504 
L 551.652923 122.8608 
L 552.258462 125.3088 
L 552.864 128.2464 
L 553.469538 129.7152 
L 554.075077 128.2464 
L 554.680615 125.7984 
L 555.286154 122.8608 
L 555.891692 120.9024 
L 556.497231 120.9024 
L 557.102769 120.4128 
L 557.708308 118.944 
L 558.919385 114.048 
L 559.524923 112.5792 
L 560.130462 112.5792 
L 560.736 114.048 
L 561.341538 116.0064 
L 561.947077 116.496 
L 562.552615 116.0064 
L 564.369231 108.6624 
L 564.974769 108.6624 
L 565.580308 110.6208 
L 566.185846 112.0896 
L 566.791385 112.0896 
L 568.002462 108.1728 
L 568.608 107.6832 
L 569.213538 110.1312 
L 569.819077 114.048 
L 570.424615 116.9856 
L 571.030154 117.4752 
L 571.635692 116.9856 
L 572.241231 115.5168 
L 572.846769 115.5168 
L 573.452308 116.9856 
L 574.057846 119.4336 
L 574.663385 120.9024 
L 575.268923 120.9024 
L 575.874462 119.9232 
L 576.48 118.4544 
L 577.085538 118.4544 
L 577.691077 119.9232 
L 578.296615 122.3712 
L 578.902154 123.84 
L 579.507692 123.84 
L 580.113231 121.8816 
L 580.718769 119.4336 
L 581.324308 118.944 
L 581.929846 120.4128 
L 582.535385 123.3504 
L 583.140923 125.3088 
L 583.746462 125.7984 
L 584.352 125.3088 
L 584.957538 124.3296 
L 585.563077 124.8192 
L 586.168615 127.2672 
L 586.774154 130.6944 
L 587.379692 132.6528 
L 587.985231 133.632 
L 588.590769 132.6528 
L 589.196308 130.6944 
L 589.801846 129.2256 
L 590.407385 128.736 
L 591.012923 129.7152 
L 591.618462 130.2048 
L 592.224 130.2048 
L 593.435077 128.2464 
L 594.040615 128.736 
L 595.251692 132.6528 
L 595.857231 133.1424 
L 596.462769 132.1632 
L 597.068308 130.6944 
L 597.673846 130.2048 
L 598.279385 130.6944 
L 598.884923 132.1632 
L 599.490462 133.1424 
L 600.096 133.1424 
L 600.701538 132.1632 
L 601.912615 128.2464 
L 602.518154 127.2672 
L 603.123692 128.2464 
L 603.729231 129.7152 
L 604.334769 130.6944 
L 604.940308 130.6944 
L 605.545846 130.2048 
L 606.151385 129.2256 
L 606.756923 129.2256 
L 607.362462 130.2048 
L 607.968 130.6944 
L 609.179077 128.736 
L 610.390154 125.7984 
L 610.995692 125.3088 
L 612.206769 127.2672 
L 612.812308 127.2672 
L 613.417846 126.288 
L 615.234462 121.8816 
L 615.84 120.9024 
L 616.445538 120.4128 
L 617.051077 120.9024 
L 617.656615 120.9024 
L 618.262154 119.9232 
L 618.867692 119.4336 
L 619.473231 120.4128 
L 620.078769 122.3712 
L 620.684308 124.8192 
L 621.289846 125.3088 
L 621.895385 124.3296 
L 623.106462 119.4336 
L 623.712 118.4544 
L 624.923077 121.392 
L 625.528615 121.8816 
L 626.134154 119.9232 
L 627.345231 112.5792 
L 627.950769 111.1104 
L 628.556308 112.0896 
L 629.161846 114.048 
L 629.767385 115.0272 
L 630.372923 114.5376 
L 631.584 110.6208 
L 632.189538 110.1312 
L 632.795077 112.0896 
L 634.006154 117.4752 
L 634.611692 118.4544 
L 635.822769 116.496 
L 636.428308 116.496 
L 637.033846 118.944 
L 637.639385 122.8608 
L 638.244923 125.7984 
L 638.850462 126.7776 
L 639.456 125.7984 
L 640.061538 124.3296 
L 640.667077 123.3504 
L 641.272615 124.3296 
L 641.878154 126.7776 
L 642.483692 128.2464 
L 642.483692 128.2464 
" style="fill:none;stroke:#000000;stroke-linecap:square;stroke-width:1.5;"/>
   </g>
   <g id="line2d_38">
    <path clip-path="url(#p68ab8b773d)" d="M 417.223385 112.0896 
L 417.828923 112.0896 
L 418.434462 111.1104 
L 419.04 109.6416 
L 419.645538 108.6624 
L 420.251077 109.152 
L 420.856615 110.6208 
L 421.462154 112.5792 
L 422.067692 112.5792 
L 422.673231 111.1104 
L 423.884308 107.1936 
L 424.489846 106.704 
L 425.095385 108.6624 
L 425.700923 112.0896 
L 426.306462 114.5376 
L 426.912 115.0272 
L 428.123077 112.0896 
L 428.728615 111.6 
L 429.334154 112.0896 
L 429.939692 113.5584 
L 430.545231 114.048 
L 431.150769 113.5584 
L 431.756308 112.0896 
L 432.361846 110.1312 
L 432.967385 109.6416 
L 433.572923 110.6208 
L 434.178462 112.0896 
L 434.784 112.0896 
L 436.600615 109.152 
L 437.206154 109.6416 
L 438.417231 112.5792 
L 439.022769 113.5584 
L 439.628308 114.048 
L 440.233846 114.048 
L 440.839385 114.5376 
L 441.444923 116.0064 
L 442.050462 117.9648 
L 442.656 120.4128 
L 443.261538 122.3712 
L 443.867077 123.3504 
L 445.078154 124.3296 
L 445.683692 124.3296 
L 446.289231 125.3088 
L 446.894769 125.7984 
L 447.500308 125.7984 
L 448.711385 124.8192 
L 449.922462 124.8192 
L 450.528 125.7984 
L 451.133538 127.2672 
L 452.344615 128.2464 
L 452.950154 128.2464 
L 453.555692 127.7568 
L 454.766769 128.736 
L 455.372308 129.7152 
L 455.977846 129.7152 
L 456.583385 129.2256 
L 457.794462 127.2672 
L 458.4 126.7776 
L 460.216615 128.2464 
L 460.822154 127.2672 
L 461.427692 125.7984 
L 462.033231 123.84 
L 462.638769 122.8608 
L 463.244308 122.3712 
L 463.849846 122.3712 
L 464.455385 121.392 
L 465.666462 116.496 
L 466.272 113.0688 
L 466.877538 110.6208 
L 467.483077 110.6208 
L 468.088615 111.6 
L 468.694154 111.1104 
L 469.299692 109.152 
L 469.905231 105.7248 
L 470.510769 104.256 
L 471.116308 105.7248 
L 472.327385 116.0064 
L 472.932923 117.9648 
L 473.538462 118.4544 
L 474.144 117.4752 
L 474.749538 116.0064 
L 475.960615 114.048 
L 476.566154 114.048 
L 478.382769 109.6416 
L 478.988308 108.6624 
L 479.593846 108.6624 
L 480.199385 110.1312 
L 480.804923 112.0896 
L 481.410462 114.5376 
L 482.016 116.0064 
L 482.621538 116.496 
L 483.832615 116.496 
L 484.438154 116.9856 
L 485.649231 119.9232 
L 486.860308 121.8816 
L 487.465846 122.3712 
L 488.071385 122.3712 
L 489.282462 124.3296 
L 489.888 126.288 
L 490.493538 127.7568 
L 491.099077 128.2464 
L 492.310154 128.2464 
L 492.915692 129.2256 
L 494.126769 132.1632 
L 494.732308 133.1424 
L 495.337846 133.1424 
L 496.548923 132.1632 
L 497.154462 132.6528 
L 497.76 133.632 
L 498.365538 133.632 
L 498.971077 132.1632 
L 500.182154 126.288 
L 500.787692 124.3296 
L 501.393231 123.3504 
L 501.998769 122.8608 
L 502.604308 120.9024 
L 503.209846 117.4752 
L 504.420923 107.6832 
L 505.026462 104.7456 
L 505.632 105.2352 
L 508.054154 120.4128 
L 509.265231 124.3296 
L 509.870769 126.7776 
L 511.081846 130.6944 
L 511.687385 131.184 
L 513.504 129.7152 
L 514.715077 131.6736 
L 515.320615 132.1632 
L 515.926154 132.1632 
L 516.531692 131.184 
L 517.137231 129.7152 
L 517.742769 129.7152 
L 518.348308 130.6944 
L 518.953846 133.1424 
L 519.559385 134.1216 
L 520.164923 134.6112 
L 521.376 132.6528 
L 521.981538 133.1424 
L 522.587077 135.1008 
L 523.192615 137.5488 
L 523.798154 139.5072 
L 524.403692 139.5072 
L 525.009231 138.0384 
L 525.614769 136.08 
L 526.220308 135.1008 
L 526.825846 135.5904 
L 527.431385 138.0384 
L 528.036923 139.9968 
L 528.642462 141.4656 
L 529.248 141.9552 
L 531.670154 139.9968 
L 532.275692 139.0176 
L 532.881231 137.5488 
L 534.092308 132.6528 
L 534.697846 131.184 
L 535.303385 132.1632 
L 535.908923 134.6112 
L 536.514462 135.5904 
L 537.12 134.6112 
L 537.725538 132.1632 
L 538.936615 126.7776 
L 539.542154 124.8192 
L 540.147692 123.3504 
L 540.753231 120.9024 
L 541.358769 118.944 
L 541.964308 118.944 
L 542.569846 119.4336 
L 543.175385 120.9024 
L 543.780923 122.8608 
L 544.386462 125.3088 
L 544.992 125.7984 
L 545.597538 125.3088 
L 546.203077 123.84 
L 546.808615 122.8608 
L 547.414154 122.8608 
L 548.019692 124.8192 
L 548.625231 125.7984 
L 549.230769 125.3088 
L 549.836308 123.84 
L 551.047385 118.4544 
L 551.652923 117.9648 
L 552.258462 120.4128 
L 552.864 124.3296 
L 553.469538 124.8192 
L 554.075077 123.3504 
L 555.891692 115.0272 
L 557.102769 115.0272 
L 557.708308 113.0688 
L 558.313846 110.6208 
L 558.919385 107.6832 
L 559.524923 106.704 
L 560.130462 106.704 
L 560.736 108.6624 
L 561.341538 111.1104 
L 561.947077 111.6 
L 562.552615 110.6208 
L 564.369231 103.2768 
L 564.974769 103.7664 
L 566.185846 107.6832 
L 566.791385 107.6832 
L 568.002462 103.7664 
L 568.608 103.2768 
L 569.213538 106.704 
L 569.819077 111.1104 
L 570.424615 113.5584 
L 571.030154 114.5376 
L 572.241231 112.5792 
L 572.846769 112.0896 
L 574.057846 116.9856 
L 574.663385 118.4544 
L 575.268923 118.4544 
L 575.874462 117.4752 
L 576.48 116.0064 
L 577.085538 115.5168 
L 577.691077 117.4752 
L 578.296615 120.4128 
L 578.902154 121.8816 
L 579.507692 121.392 
L 580.718769 117.4752 
L 581.324308 116.496 
L 581.929846 118.4544 
L 582.535385 121.392 
L 583.140923 123.3504 
L 583.746462 123.84 
L 584.352 122.8608 
L 584.957538 122.3712 
L 585.563077 122.8608 
L 586.168615 125.3088 
L 586.774154 128.736 
L 587.379692 131.184 
L 587.985231 131.6736 
L 588.590769 130.6944 
L 589.801846 126.7776 
L 590.407385 126.7776 
L 591.012923 127.2672 
L 591.618462 128.2464 
L 592.224 127.7568 
L 593.435077 125.7984 
L 594.040615 125.7984 
L 595.251692 130.6944 
L 595.857231 130.6944 
L 596.462769 129.7152 
L 597.068308 128.2464 
L 597.673846 127.2672 
L 598.279385 127.7568 
L 598.884923 129.7152 
L 599.490462 130.6944 
L 600.096 130.2048 
L 600.701538 128.736 
L 601.912615 124.8192 
L 602.518154 123.84 
L 603.123692 124.8192 
L 603.729231 126.288 
L 604.334769 127.2672 
L 604.940308 127.2672 
L 606.151385 125.3088 
L 606.756923 125.3088 
L 607.362462 126.288 
L 607.968 126.7776 
L 608.573538 125.7984 
L 609.179077 124.3296 
L 609.784615 122.3712 
L 610.390154 120.9024 
L 610.995692 120.4128 
L 611.601231 121.392 
L 612.206769 122.8608 
L 612.812308 122.3712 
L 613.417846 121.392 
L 614.628923 118.4544 
L 615.234462 116.496 
L 615.84 115.5168 
L 617.051077 115.5168 
L 617.656615 116.0064 
L 618.262154 115.0272 
L 618.867692 114.5376 
L 619.473231 115.0272 
L 620.078769 117.4752 
L 620.684308 120.4128 
L 621.289846 120.9024 
L 621.895385 119.4336 
L 623.106462 114.048 
L 623.712 113.0688 
L 624.317538 114.5376 
L 624.923077 116.9856 
L 625.528615 116.9856 
L 626.134154 115.5168 
L 627.345231 107.1936 
L 627.950769 105.2352 
L 628.556308 106.704 
L 629.161846 109.6416 
L 629.767385 110.6208 
L 630.372923 110.1312 
L 631.584 106.2144 
L 632.189538 105.2352 
L 632.795077 107.6832 
L 633.400615 111.6 
L 634.006154 114.048 
L 634.611692 114.5376 
L 635.217231 114.048 
L 635.822769 112.5792 
L 636.428308 112.5792 
L 637.033846 115.5168 
L 637.639385 119.9232 
L 638.244923 122.8608 
L 638.850462 123.84 
L 640.667077 119.4336 
L 641.272615 120.9024 
L 641.878154 123.3504 
L 642.483692 125.3088 
L 643.089231 125.7984 
L 643.694769 124.8192 
L 644.300308 123.3504 
L 644.905846 122.8608 
L 645.511385 124.3296 
L 646.116923 126.288 
L 646.722462 125.7984 
L 647.328 124.3296 
L 647.933538 120.9024 
L 649.750154 103.7664 
L 650.355692 103.7664 
L 650.355692 103.7664 
" style="fill:none;stroke:#808080;stroke-dasharray:5.55,2.4;stroke-dashoffset:0;stroke-opacity:0.3;stroke-width:1.5;"/>
   </g>
   <g id="line2d_39">
    <path clip-path="url(#p68ab8b773d)" d="M 417.223385 116.0064 
L 417.828923 116.0064 
L 418.434462 115.0272 
L 419.04 113.5584 
L 419.645538 112.5792 
L 420.251077 112.5792 
L 420.856615 114.5376 
L 421.462154 115.5168 
L 422.067692 116.0064 
L 422.673231 114.5376 
L 423.884308 110.6208 
L 424.489846 110.1312 
L 425.095385 111.6 
L 426.306462 116.9856 
L 426.912 117.4752 
L 427.517538 116.496 
L 428.123077 115.0272 
L 428.728615 114.048 
L 429.334154 114.5376 
L 430.545231 116.496 
L 431.150769 115.5168 
L 432.361846 112.5792 
L 432.967385 112.0896 
L 433.572923 112.5792 
L 434.178462 114.048 
L 434.784 114.048 
L 436.600615 111.1104 
L 437.206154 111.6 
L 437.811692 112.5792 
L 438.417231 114.5376 
L 439.022769 115.5168 
L 440.233846 115.5168 
L 440.839385 116.0064 
L 441.444923 117.4752 
L 442.050462 119.4336 
L 442.656 121.8816 
L 443.261538 123.3504 
L 444.472615 125.3088 
L 445.078154 125.3088 
L 447.500308 127.2672 
L 449.316923 125.7984 
L 449.922462 126.288 
L 451.739077 129.2256 
L 452.344615 129.7152 
L 454.161231 129.7152 
L 454.766769 130.2048 
L 455.372308 131.184 
L 455.977846 131.6736 
L 456.583385 131.184 
L 457.794462 129.2256 
L 458.4 128.736 
L 460.216615 130.2048 
L 460.822154 129.2256 
L 462.033231 126.288 
L 462.638769 125.3088 
L 463.244308 124.8192 
L 463.849846 124.8192 
L 464.455385 123.3504 
L 465.060923 121.392 
L 465.666462 118.944 
L 466.272 115.5168 
L 466.877538 113.5584 
L 467.483077 113.5584 
L 468.088615 114.048 
L 468.694154 113.5584 
L 469.299692 111.1104 
L 469.905231 108.1728 
L 470.510769 106.2144 
L 471.116308 108.1728 
L 472.327385 117.4752 
L 472.932923 119.9232 
L 473.538462 119.9232 
L 474.144 118.944 
L 474.749538 117.4752 
L 475.960615 115.5168 
L 476.566154 115.0272 
L 477.171692 114.048 
L 478.988308 109.6416 
L 479.593846 109.6416 
L 480.199385 111.1104 
L 480.804923 113.0688 
L 481.410462 115.5168 
L 482.016 116.9856 
L 482.621538 117.4752 
L 483.832615 117.4752 
L 484.438154 117.9648 
L 485.649231 120.9024 
L 486.860308 122.8608 
L 487.465846 123.3504 
L 488.071385 123.3504 
L 489.282462 125.3088 
L 490.493538 128.2464 
L 491.099077 129.2256 
L 492.310154 129.2256 
L 492.915692 130.2048 
L 494.126769 133.1424 
L 494.732308 134.1216 
L 495.337846 134.1216 
L 496.548923 133.1424 
L 497.154462 133.632 
L 497.76 134.6112 
L 498.365538 134.6112 
L 498.971077 133.1424 
L 499.576615 130.6944 
L 500.182154 127.7568 
L 500.787692 125.7984 
L 501.998769 123.84 
L 502.604308 122.3712 
L 503.209846 118.944 
L 504.420923 109.152 
L 505.026462 106.2144 
L 505.632 106.704 
L 506.237538 110.1312 
L 507.448615 118.4544 
L 508.054154 121.392 
L 509.265231 125.3088 
L 509.870769 127.7568 
L 510.476308 129.7152 
L 511.081846 131.184 
L 511.687385 132.1632 
L 512.898462 131.184 
L 513.504 131.184 
L 514.109538 131.6736 
L 514.715077 132.6528 
L 515.320615 133.1424 
L 515.926154 133.1424 
L 517.137231 131.184 
L 517.742769 130.6944 
L 518.348308 132.1632 
L 518.953846 134.1216 
L 519.559385 135.5904 
L 520.164923 135.5904 
L 520.770462 134.6112 
L 521.376 134.1216 
L 521.981538 134.6112 
L 522.587077 136.5696 
L 523.192615 139.0176 
L 523.798154 140.4864 
L 524.403692 140.976 
L 525.009231 139.9968 
L 525.614769 138.0384 
L 526.220308 137.0592 
L 526.825846 137.5488 
L 527.431385 139.5072 
L 528.036923 141.9552 
L 528.642462 143.424 
L 529.248 143.9136 
L 529.853538 143.9136 
L 532.275692 141.9552 
L 532.881231 140.4864 
L 534.092308 136.5696 
L 534.697846 135.5904 
L 535.303385 136.5696 
L 535.908923 138.528 
L 536.514462 139.5072 
L 537.12 139.0176 
L 537.725538 137.5488 
L 538.936615 132.6528 
L 540.147692 129.7152 
L 540.753231 127.7568 
L 541.358769 126.288 
L 541.964308 125.7984 
L 542.569846 126.288 
L 543.175385 127.7568 
L 544.386462 131.6736 
L 544.992 132.6528 
L 545.597538 132.1632 
L 546.203077 131.184 
L 546.808615 130.6944 
L 547.414154 130.6944 
L 548.019692 132.1632 
L 548.625231 133.1424 
L 549.230769 133.1424 
L 549.836308 132.1632 
L 550.441846 129.7152 
L 551.047385 127.7568 
L 551.652923 127.7568 
L 552.258462 129.7152 
L 552.864 132.6528 
L 553.469538 133.632 
L 554.075077 132.6528 
L 554.680615 130.6944 
L 555.286154 128.2464 
L 555.891692 126.7776 
L 556.497231 126.288 
L 557.708308 124.3296 
L 558.313846 121.8816 
L 558.919385 119.9232 
L 559.524923 118.4544 
L 560.130462 117.9648 
L 561.341538 120.9024 
L 561.947077 121.392 
L 562.552615 120.9024 
L 563.158154 118.944 
L 563.763692 116.0064 
L 564.369231 114.048 
L 564.974769 113.5584 
L 565.580308 115.0272 
L 566.185846 116.0064 
L 566.791385 116.0064 
L 568.002462 112.0896 
L 568.608 111.6 
L 569.213538 114.048 
L 569.819077 117.4752 
L 570.424615 119.9232 
L 571.030154 120.4128 
L 571.635692 119.9232 
L 572.241231 118.4544 
L 572.846769 118.4544 
L 573.452308 119.9232 
L 574.057846 122.3712 
L 574.663385 123.3504 
L 575.268923 123.3504 
L 575.874462 122.3712 
L 576.48 120.9024 
L 577.085538 120.9024 
L 577.691077 122.3712 
L 578.296615 124.8192 
L 578.902154 126.288 
L 579.507692 125.7984 
L 580.718769 121.8816 
L 581.324308 121.392 
L 581.929846 122.8608 
L 582.535385 125.3088 
L 583.140923 127.2672 
L 583.746462 127.7568 
L 584.352 127.2672 
L 584.957538 126.288 
L 585.563077 126.7776 
L 586.168615 129.2256 
L 587.379692 134.6112 
L 587.985231 135.5904 
L 588.590769 134.6112 
L 589.196308 132.6528 
L 589.801846 131.184 
L 590.407385 131.184 
L 591.618462 132.1632 
L 592.224 132.1632 
L 592.829538 131.6736 
L 593.435077 130.6944 
L 594.040615 131.184 
L 594.646154 133.1424 
L 595.251692 134.6112 
L 595.857231 135.5904 
L 597.673846 132.6528 
L 598.279385 133.1424 
L 598.884923 135.1008 
L 599.490462 136.08 
L 600.096 136.08 
L 600.701538 135.1008 
L 601.912615 131.184 
L 602.518154 130.6944 
L 603.729231 132.6528 
L 604.334769 134.1216 
L 604.940308 134.1216 
L 605.545846 133.632 
L 606.151385 132.6528 
L 606.756923 133.1424 
L 607.362462 134.1216 
L 607.968 134.1216 
L 608.573538 133.632 
L 609.179077 132.6528 
L 609.784615 131.184 
L 610.390154 130.2048 
L 610.995692 129.7152 
L 611.601231 130.6944 
L 612.206769 131.184 
L 612.812308 131.184 
L 613.417846 130.6944 
L 614.023385 129.7152 
L 615.234462 126.7776 
L 615.84 125.7984 
L 616.445538 125.3088 
L 617.051077 125.7984 
L 618.867692 124.3296 
L 619.473231 124.8192 
L 620.078769 127.2672 
L 620.684308 129.2256 
L 621.289846 129.7152 
L 621.895385 128.736 
L 622.500923 126.7776 
L 623.106462 124.3296 
L 623.712 123.3504 
L 624.317538 124.8192 
L 624.923077 125.7984 
L 625.528615 126.288 
L 626.134154 124.8192 
L 627.345231 117.9648 
L 627.950769 116.0064 
L 628.556308 116.9856 
L 629.161846 118.4544 
L 629.767385 119.4336 
L 630.372923 118.944 
L 631.584 115.0272 
L 632.189538 114.5376 
L 632.795077 116.0064 
L 633.400615 118.944 
L 634.006154 120.9024 
L 634.611692 121.8816 
L 635.217231 121.392 
L 635.822769 119.9232 
L 636.428308 119.9232 
L 637.033846 122.3712 
L 638.244923 128.736 
L 638.850462 129.7152 
L 639.456 129.2256 
L 640.061538 127.2672 
L 640.667077 126.7776 
L 641.272615 127.7568 
L 641.878154 129.7152 
L 642.483692 131.184 
L 643.089231 132.1632 
L 643.694769 131.6736 
L 644.300308 130.2048 
L 644.905846 130.2048 
L 645.511385 131.6736 
L 646.116923 132.6528 
L 646.722462 132.6528 
L 647.328 131.6736 
L 647.933538 128.736 
L 648.539077 123.84 
L 649.750154 113.0688 
L 650.355692 111.6 
L 650.355692 111.6 
" style="fill:none;stroke:#808080;stroke-dasharray:5.55,2.4;stroke-dashoffset:0;stroke-opacity:0.3;stroke-width:1.5;"/>
   </g>
   <g id="line2d_40">
    <path clip-path="url(#p68ab8b773d)" d="M 651.566769 172.8 
L 651.566769 25.92 
" style="fill:none;stroke:#ff0000;stroke-linecap:square;stroke-width:0.5;"/>
   </g>
   <g id="line2d_41">
    <path clip-path="url(#p68ab8b773d)" d="M 643.089231 172.8 
L 643.089231 25.92 
" style="fill:none;stroke:#0000ff;stroke-dasharray:1.85,0.8;stroke-dashoffset:0;stroke-width:0.5;"/>
   </g>
   <g id="patch_3">
    <path d="M 64.8 172.8 
L 64.8 25.92 
" style="fill:none;stroke:#000000;stroke-linecap:square;stroke-linejoin:miter;stroke-width:0.8;"/>
   </g>
   <g id="patch_4">
    <path d="M 655.2 172.8 
L 655.2 25.92 
" style="fill:none;stroke:#000000;stroke-linecap:square;stroke-linejoin:miter;stroke-width:0.8;"/>
   </g>
   <g id="patch_5">
    <path d="M 64.8 172.8 
L 655.2 172.8 
" style="fill:none;stroke:#000000;stroke-linecap:square;stroke-linejoin:miter;stroke-width:0.8;"/>
   </g>
   <g id="patch_6">
    <path d="M 64.8 25.92 
L 655.2 25.92 
" style="fill:none;stroke:#000000;stroke-linecap:square;stroke-linejoin:miter;stroke-width:0.8;"/>
   </g>
   <g id="patch_7">
    <path d="M 646.865505 110.979768 
Q 643.970449 118.342422 642.927916 125.161727 
" style="fill:none;stroke:#000000;stroke-linecap:round;"/>
    <path d="M 644.993136 122.240278 
L 642.927916 125.161727 
L 641.829889 121.756682 
" style="fill:none;stroke:#000000;stroke-linecap:round;"/>
   </g>
   <g id="text_21">
    <g id="patch_8">
     <path d="M 642.483692 108.63015 
L 660.296192 108.63015 
Q 663.496192 108.63015 663.496192 105.43015 
L 663.496192 97.68765 
Q 663.496192 94.48765 660.296192 94.48765 
L 642.483692 94.48765 
Q 639.283692 94.48765 639.283692 97.68765 
L 639.283692 105.43015 
Q 639.283692 108.63015 642.483692 108.63015 
z
" style="fill:#fffff0;stroke:#000000;stroke-linejoin:miter;"/>
    </g>
    <!-- 0,91 -->
    <g transform="translate(642.483692 103.7664)scale(0.08 -0.08)">
     <defs>
      <path d="M 11.71875 12.40625 
L 22.015625 12.40625 
L 22.015625 4 
L 14.015625 -11.625 
L 7.71875 -11.625 
L 11.71875 4 
z
" id="DejaVuSans-44"/>
      <path d="M 10.984375 1.515625 
L 10.984375 10.5 
Q 14.703125 8.734375 18.5 7.8125 
Q 22.3125 6.890625 25.984375 6.890625 
Q 35.75 6.890625 40.890625 13.453125 
Q 46.046875 20.015625 46.78125 33.40625 
Q 43.953125 29.203125 39.59375 26.953125 
Q 35.25 24.703125 29.984375 24.703125 
Q 19.046875 24.703125 12.671875 31.3125 
Q 6.296875 37.9375 6.296875 49.421875 
Q 6.296875 60.640625 12.9375 67.421875 
Q 19.578125 74.21875 30.609375 74.21875 
Q 43.265625 74.21875 49.921875 64.515625 
Q 56.59375 54.828125 56.59375 36.375 
Q 56.59375 19.140625 48.40625 8.859375 
Q 40.234375 -1.421875 26.421875 -1.421875 
Q 22.703125 -1.421875 18.890625 -0.6875 
Q 15.09375 0.046875 10.984375 1.515625 
z
M 30.609375 32.421875 
Q 37.25 32.421875 41.125 36.953125 
Q 45.015625 41.5 45.015625 49.421875 
Q 45.015625 57.28125 41.125 61.84375 
Q 37.25 66.40625 30.609375 66.40625 
Q 23.96875 66.40625 20.09375 61.84375 
Q 16.21875 57.28125 16.21875 49.421875 
Q 16.21875 41.5 20.09375 36.953125 
Q 23.96875 32.421875 30.609375 32.421875 
z
" id="DejaVuSans-57"/>
     </defs>
     <use xlink:href="#DejaVuSans-48"/>
     <use x="63.623047" xlink:href="#DejaVuSans-44"/>
     <use x="95.410156" xlink:href="#DejaVuSans-57"/>
     <use x="159.033203" xlink:href="#DejaVuSans-49"/>
    </g>
   </g>
   <g id="text_22">
    <!-- Reproductiegetal -->
    <g transform="translate(308.77875 19.92)scale(0.12 -0.12)">
     <use xlink:href="#DejaVuSans-82"/>
     <use x="64.982422" xlink:href="#DejaVuSans-101"/>
     <use x="126.505859" xlink:href="#DejaVuSans-112"/>
     <use x="189.982422" xlink:href="#DejaVuSans-114"/>
     <use x="228.845703" xlink:href="#DejaVuSans-111"/>
     <use x="290.027344" xlink:href="#DejaVuSans-100"/>
     <use x="353.503906" xlink:href="#DejaVuSans-117"/>
     <use x="416.882812" xlink:href="#DejaVuSans-99"/>
     <use x="471.863281" xlink:href="#DejaVuSans-116"/>
     <use x="511.072266" xlink:href="#DejaVuSans-105"/>
     <use x="538.855469" xlink:href="#DejaVuSans-101"/>
     <use x="600.378906" xlink:href="#DejaVuSans-103"/>
     <use x="663.855469" xlink:href="#DejaVuSans-101"/>
     <use x="725.378906" xlink:href="#DejaVuSans-116"/>
     <use x="764.587891" xlink:href="#DejaVuSans-97"/>
     <use x="825.867188" xlink:href="#DejaVuSans-108"/>
    </g>
   </g>
   <g id="text_23">
    <g id="patch_9">
     <path d="M 646.476769 177.47125 
L 656.656769 177.47125 
Q 657.456769 177.47125 657.456769 176.67125 
L 657.456769 168.92875 
Q 657.456769 168.12875 656.656769 168.12875 
L 646.476769 168.12875 
Q 645.676769 168.12875 645.676769 168.92875 
L 645.676769 176.67125 
Q 645.676769 177.47125 646.476769 177.47125 
z
" style="fill:#ff0000;stroke:#ff0000;stroke-linejoin:miter;"/>
    </g>
    <!-- 26 -->
    <g style="fill:#ffffff;" transform="translate(646.476769 175.0075)scale(0.08 -0.08)">
     <defs>
      <path d="M 33.015625 40.375 
Q 26.375 40.375 22.484375 35.828125 
Q 18.609375 31.296875 18.609375 23.390625 
Q 18.609375 15.53125 22.484375 10.953125 
Q 26.375 6.390625 33.015625 6.390625 
Q 39.65625 6.390625 43.53125 10.953125 
Q 47.40625 15.53125 47.40625 23.390625 
Q 47.40625 31.296875 43.53125 35.828125 
Q 39.65625 40.375 33.015625 40.375 
z
M 52.59375 71.296875 
L 52.59375 62.3125 
Q 48.875 64.0625 45.09375 64.984375 
Q 41.3125 65.921875 37.59375 65.921875 
Q 27.828125 65.921875 22.671875 59.328125 
Q 17.53125 52.734375 16.796875 39.40625 
Q 19.671875 43.65625 24.015625 45.921875 
Q 28.375 48.1875 33.59375 48.1875 
Q 44.578125 48.1875 50.953125 41.515625 
Q 57.328125 34.859375 57.328125 23.390625 
Q 57.328125 12.15625 50.6875 5.359375 
Q 44.046875 -1.421875 33.015625 -1.421875 
Q 20.359375 -1.421875 13.671875 8.265625 
Q 6.984375 17.96875 6.984375 36.375 
Q 6.984375 53.65625 15.1875 63.9375 
Q 23.390625 74.21875 37.203125 74.21875 
Q 40.921875 74.21875 44.703125 73.484375 
Q 48.484375 72.75 52.59375 71.296875 
z
" id="DejaVuSans-54"/>
     </defs>
     <use xlink:href="#DejaVuSans-50"/>
     <use x="63.623047" xlink:href="#DejaVuSans-54"/>
    </g>
   </g>
  </g>
  <g id="text_24">
   <!-- Gegenereerd op 2022-10-26 23:36, Rt berekend tot 2022-10-11. -->
   <g style="fill:#808080;" transform="translate(7.2 204.88175)scale(0.08 -0.08)">
    <defs>
     <path d="M 59.515625 10.40625 
L 59.515625 29.984375 
L 43.40625 29.984375 
L 43.40625 38.09375 
L 69.28125 38.09375 
L 69.28125 6.78125 
Q 63.578125 2.734375 56.6875 0.65625 
Q 49.8125 -1.421875 42 -1.421875 
Q 24.90625 -1.421875 15.25 8.5625 
Q 5.609375 18.5625 5.609375 36.375 
Q 5.609375 54.25 15.25 64.234375 
Q 24.90625 74.21875 42 74.21875 
Q 49.125 74.21875 55.546875 72.453125 
Q 61.96875 70.703125 67.390625 67.28125 
L 67.390625 56.78125 
Q 61.921875 61.421875 55.765625 63.765625 
Q 49.609375 66.109375 42.828125 66.109375 
Q 29.4375 66.109375 22.71875 58.640625 
Q 16.015625 51.171875 16.015625 36.375 
Q 16.015625 21.625 22.71875 14.15625 
Q 29.4375 6.6875 42.828125 6.6875 
Q 48.046875 6.6875 52.140625 7.59375 
Q 56.25 8.5 59.515625 10.40625 
z
" id="DejaVuSans-71"/>
     <path d="M 54.890625 33.015625 
L 54.890625 0 
L 45.90625 0 
L 45.90625 32.71875 
Q 45.90625 40.484375 42.875 44.328125 
Q 39.84375 48.1875 33.796875 48.1875 
Q 26.515625 48.1875 22.3125 43.546875 
Q 18.109375 38.921875 18.109375 30.90625 
L 18.109375 0 
L 9.078125 0 
L 9.078125 54.6875 
L 18.109375 54.6875 
L 18.109375 46.1875 
Q 21.34375 51.125 25.703125 53.5625 
Q 30.078125 56 35.796875 56 
Q 45.21875 56 50.046875 50.171875 
Q 54.890625 44.34375 54.890625 33.015625 
z
" id="DejaVuSans-110"/>
     <path id="DejaVuSans-32"/>
     <path d="M 11.71875 12.40625 
L 22.015625 12.40625 
L 22.015625 0 
L 11.71875 0 
z
M 11.71875 51.703125 
L 22.015625 51.703125 
L 22.015625 39.3125 
L 11.71875 39.3125 
z
" id="DejaVuSans-58"/>
     <path d="M 48.6875 27.296875 
Q 48.6875 37.203125 44.609375 42.84375 
Q 40.53125 48.484375 33.40625 48.484375 
Q 26.265625 48.484375 22.1875 42.84375 
Q 18.109375 37.203125 18.109375 27.296875 
Q 18.109375 17.390625 22.1875 11.75 
Q 26.265625 6.109375 33.40625 6.109375 
Q 40.53125 6.109375 44.609375 11.75 
Q 48.6875 17.390625 48.6875 27.296875 
z
M 18.109375 46.390625 
Q 20.953125 51.265625 25.265625 53.625 
Q 29.59375 56 35.59375 56 
Q 45.5625 56 51.78125 48.09375 
Q 58.015625 40.1875 58.015625 27.296875 
Q 58.015625 14.40625 51.78125 6.484375 
Q 45.5625 -1.421875 35.59375 -1.421875 
Q 29.59375 -1.421875 25.265625 0.953125 
Q 20.953125 3.328125 18.109375 8.203125 
L 18.109375 0 
L 9.078125 0 
L 9.078125 75.984375 
L 18.109375 75.984375 
z
" id="DejaVuSans-98"/>
     <path d="M 9.078125 75.984375 
L 18.109375 75.984375 
L 18.109375 31.109375 
L 44.921875 54.6875 
L 56.390625 54.6875 
L 27.390625 29.109375 
L 57.625 0 
L 45.90625 0 
L 18.109375 26.703125 
L 18.109375 0 
L 9.078125 0 
z
" id="DejaVuSans-107"/>
    </defs>
    <use xlink:href="#DejaVuSans-71"/>
    <use x="77.490234" xlink:href="#DejaVuSans-101"/>
    <use x="139.013672" xlink:href="#DejaVuSans-103"/>
    <use x="202.490234" xlink:href="#DejaVuSans-101"/>
    <use x="264.013672" xlink:href="#DejaVuSans-110"/>
    <use x="327.392578" xlink:href="#DejaVuSans-101"/>
    <use x="388.916016" xlink:href="#DejaVuSans-114"/>
    <use x="427.779297" xlink:href="#DejaVuSans-101"/>
    <use x="489.302734" xlink:href="#DejaVuSans-101"/>
    <use x="550.826172" xlink:href="#DejaVuSans-114"/>
    <use x="590.189453" xlink:href="#DejaVuSans-100"/>
    <use x="653.666016" xlink:href="#DejaVuSans-32"/>
    <use x="685.453125" xlink:href="#DejaVuSans-111"/>
    <use x="746.634766" xlink:href="#DejaVuSans-112"/>
    <use x="810.111328" xlink:href="#DejaVuSans-32"/>
    <use x="841.898438" xlink:href="#DejaVuSans-50"/>
    <use x="905.521484" xlink:href="#DejaVuSans-48"/>
    <use x="969.144531" xlink:href="#DejaVuSans-50"/>
    <use x="1032.767578" xlink:href="#DejaVuSans-50"/>
    <use x="1096.390625" xlink:href="#DejaVuSans-45"/>
    <use x="1132.474609" xlink:href="#DejaVuSans-49"/>
    <use x="1196.097656" xlink:href="#DejaVuSans-48"/>
    <use x="1259.720703" xlink:href="#DejaVuSans-45"/>
    <use x="1295.804688" xlink:href="#DejaVuSans-50"/>
    <use x="1359.427734" xlink:href="#DejaVuSans-54"/>
    <use x="1423.050781" xlink:href="#DejaVuSans-32"/>
    <use x="1454.837891" xlink:href="#DejaVuSans-50"/>
    <use x="1518.460938" xlink:href="#DejaVuSans-51"/>
    <use x="1582.083984" xlink:href="#DejaVuSans-58"/>
    <use x="1615.775391" xlink:href="#DejaVuSans-51"/>
    <use x="1679.398438" xlink:href="#DejaVuSans-54"/>
    <use x="1743.021484" xlink:href="#DejaVuSans-44"/>
    <use x="1774.808594" xlink:href="#DejaVuSans-32"/>
    <use x="1806.595703" xlink:href="#DejaVuSans-82"/>
    <use x="1876.078125" xlink:href="#DejaVuSans-116"/>
    <use x="1915.287109" xlink:href="#DejaVuSans-32"/>
    <use x="1947.074219" xlink:href="#DejaVuSans-98"/>
    <use x="2010.550781" xlink:href="#DejaVuSans-101"/>
    <use x="2072.074219" xlink:href="#DejaVuSans-114"/>
    <use x="2110.9375" xlink:href="#DejaVuSans-101"/>
    <use x="2172.460938" xlink:href="#DejaVuSans-107"/>
    <use x="2226.746094" xlink:href="#DejaVuSans-101"/>
    <use x="2288.269531" xlink:href="#DejaVuSans-110"/>
    <use x="2351.648438" xlink:href="#DejaVuSans-100"/>
    <use x="2415.125" xlink:href="#DejaVuSans-32"/>
    <use x="2446.912109" xlink:href="#DejaVuSans-116"/>
    <use x="2486.121094" xlink:href="#DejaVuSans-111"/>
    <use x="2547.302734" xlink:href="#DejaVuSans-116"/>
    <use x="2586.511719" xlink:href="#DejaVuSans-32"/>
    <use x="2618.298828" xlink:href="#DejaVuSans-50"/>
    <use x="2681.921875" xlink:href="#DejaVuSans-48"/>
    <use x="2745.544922" xlink:href="#DejaVuSans-50"/>
    <use x="2809.167969" xlink:href="#DejaVuSans-50"/>
    <use x="2872.791016" xlink:href="#DejaVuSans-45"/>
    <use x="2908.875" xlink:href="#DejaVuSans-49"/>
    <use x="2972.498047" xlink:href="#DejaVuSans-48"/>
    <use x="3036.121094" xlink:href="#DejaVuSans-45"/>
    <use x="3072.205078" xlink:href="#DejaVuSans-49"/>
    <use x="3135.828125" xlink:href="#DejaVuSans-49"/>
    <use x="3199.451172" xlink:href="#DejaVuSans-46"/>
   </g>
   <!-- Source code: http://github.com/realrolfje/coronadata -->
   <g style="fill:#808080;" transform="translate(7.2 213.84)scale(0.08 -0.08)">
    <defs>
     <path d="M 53.515625 70.515625 
L 53.515625 60.890625 
Q 47.90625 63.578125 42.921875 64.890625 
Q 37.9375 66.21875 33.296875 66.21875 
Q 25.25 66.21875 20.875 63.09375 
Q 16.5 59.96875 16.5 54.203125 
Q 16.5 49.359375 19.40625 46.890625 
Q 22.3125 44.4375 30.421875 42.921875 
L 36.375 41.703125 
Q 47.40625 39.59375 52.65625 34.296875 
Q 57.90625 29 57.90625 20.125 
Q 57.90625 9.515625 50.796875 4.046875 
Q 43.703125 -1.421875 29.984375 -1.421875 
Q 24.8125 -1.421875 18.96875 -0.25 
Q 13.140625 0.921875 6.890625 3.21875 
L 6.890625 13.375 
Q 12.890625 10.015625 18.65625 8.296875 
Q 24.421875 6.59375 29.984375 6.59375 
Q 38.421875 6.59375 43.015625 9.90625 
Q 47.609375 13.234375 47.609375 19.390625 
Q 47.609375 24.75 44.3125 27.78125 
Q 41.015625 30.8125 33.5 32.328125 
L 27.484375 33.5 
Q 16.453125 35.6875 11.515625 40.375 
Q 6.59375 45.0625 6.59375 53.421875 
Q 6.59375 63.09375 13.40625 68.65625 
Q 20.21875 74.21875 32.171875 74.21875 
Q 37.3125 74.21875 42.625 73.28125 
Q 47.953125 72.359375 53.515625 70.515625 
z
" id="DejaVuSans-83"/>
     <path d="M 54.890625 33.015625 
L 54.890625 0 
L 45.90625 0 
L 45.90625 32.71875 
Q 45.90625 40.484375 42.875 44.328125 
Q 39.84375 48.1875 33.796875 48.1875 
Q 26.515625 48.1875 22.3125 43.546875 
Q 18.109375 38.921875 18.109375 30.90625 
L 18.109375 0 
L 9.078125 0 
L 9.078125 75.984375 
L 18.109375 75.984375 
L 18.109375 46.1875 
Q 21.34375 51.125 25.703125 53.5625 
Q 30.078125 56 35.796875 56 
Q 45.21875 56 50.046875 50.171875 
Q 54.890625 44.34375 54.890625 33.015625 
z
" id="DejaVuSans-104"/>
     <path d="M 25.390625 72.90625 
L 33.6875 72.90625 
L 8.296875 -9.28125 
L 0 -9.28125 
z
" id="DejaVuSans-47"/>
     <path d="M 37.109375 75.984375 
L 37.109375 68.5 
L 28.515625 68.5 
Q 23.6875 68.5 21.796875 66.546875 
Q 19.921875 64.59375 19.921875 59.515625 
L 19.921875 54.6875 
L 34.71875 54.6875 
L 34.71875 47.703125 
L 19.921875 47.703125 
L 19.921875 0 
L 10.890625 0 
L 10.890625 47.703125 
L 2.296875 47.703125 
L 2.296875 54.6875 
L 10.890625 54.6875 
L 10.890625 58.5 
Q 10.890625 67.625 15.140625 71.796875 
Q 19.390625 75.984375 28.609375 75.984375 
z
" id="DejaVuSans-102"/>
     <path d="M 9.421875 54.6875 
L 18.40625 54.6875 
L 18.40625 -0.984375 
Q 18.40625 -11.421875 14.421875 -16.109375 
Q 10.453125 -20.796875 1.609375 -20.796875 
L -1.8125 -20.796875 
L -1.8125 -13.1875 
L 0.59375 -13.1875 
Q 5.71875 -13.1875 7.5625 -10.8125 
Q 9.421875 -8.453125 9.421875 -0.984375 
z
M 9.421875 75.984375 
L 18.40625 75.984375 
L 18.40625 64.59375 
L 9.421875 64.59375 
z
" id="DejaVuSans-106"/>
    </defs>
    <use xlink:href="#DejaVuSans-83"/>
    <use x="63.476562" xlink:href="#DejaVuSans-111"/>
    <use x="124.658203" xlink:href="#DejaVuSans-117"/>
    <use x="188.037109" xlink:href="#DejaVuSans-114"/>
    <use x="226.900391" xlink:href="#DejaVuSans-99"/>
    <use x="281.880859" xlink:href="#DejaVuSans-101"/>
    <use x="343.404297" xlink:href="#DejaVuSans-32"/>
    <use x="375.191406" xlink:href="#DejaVuSans-99"/>
    <use x="430.171875" xlink:href="#DejaVuSans-111"/>
    <use x="491.353516" xlink:href="#DejaVuSans-100"/>
    <use x="554.830078" xlink:href="#DejaVuSans-101"/>
    <use x="616.353516" xlink:href="#DejaVuSans-58"/>
    <use x="650.044922" xlink:href="#DejaVuSans-32"/>
    <use x="681.832031" xlink:href="#DejaVuSans-104"/>
    <use x="745.210938" xlink:href="#DejaVuSans-116"/>
    <use x="784.419922" xlink:href="#DejaVuSans-116"/>
    <use x="823.628906" xlink:href="#DejaVuSans-112"/>
    <use x="887.105469" xlink:href="#DejaVuSans-58"/>
    <use x="920.796875" xlink:href="#DejaVuSans-47"/>
    <use x="954.488281" xlink:href="#DejaVuSans-47"/>
    <use x="988.179688" xlink:href="#DejaVuSans-103"/>
    <use x="1051.65625" xlink:href="#DejaVuSans-105"/>
    <use x="1079.439453" xlink:href="#DejaVuSans-116"/>
    <use x="1118.648438" xlink:href="#DejaVuSans-104"/>
    <use x="1182.027344" xlink:href="#DejaVuSans-117"/>
    <use x="1245.40625" xlink:href="#DejaVuSans-98"/>
    <use x="1308.882812" xlink:href="#DejaVuSans-46"/>
    <use x="1340.669922" xlink:href="#DejaVuSans-99"/>
    <use x="1395.650391" xlink:href="#DejaVuSans-111"/>
    <use x="1456.832031" xlink:href="#DejaVuSans-109"/>
    <use x="1554.244141" xlink:href="#DejaVuSans-47"/>
    <use x="1587.935547" xlink:href="#DejaVuSans-114"/>
    <use x="1626.798828" xlink:href="#DejaVuSans-101"/>
    <use x="1688.322266" xlink:href="#DejaVuSans-97"/>
    <use x="1749.601562" xlink:href="#DejaVuSans-108"/>
    <use x="1777.384766" xlink:href="#DejaVuSans-114"/>
    <use x="1816.248047" xlink:href="#DejaVuSans-111"/>
    <use x="1877.429688" xlink:href="#DejaVuSans-108"/>
    <use x="1905.212891" xlink:href="#DejaVuSans-102"/>
    <use x="1940.417969" xlink:href="#DejaVuSans-106"/>
    <use x="1968.201172" xlink:href="#DejaVuSans-101"/>
    <use x="2029.724609" xlink:href="#DejaVuSans-47"/>
    <use x="2063.416016" xlink:href="#DejaVuSans-99"/>
    <use x="2118.396484" xlink:href="#DejaVuSans-111"/>
    <use x="2179.578125" xlink:href="#DejaVuSans-114"/>
    <use x="2218.441406" xlink:href="#DejaVuSans-111"/>
    <use x="2279.623047" xlink:href="#DejaVuSans-110"/>
    <use x="2343.001953" xlink:href="#DejaVuSans-97"/>
    <use x="2404.28125" xlink:href="#DejaVuSans-100"/>
    <use x="2467.757812" xlink:href="#DejaVuSans-97"/>
    <use x="2529.037109" xlink:href="#DejaVuSans-116"/>
    <use x="2568.246094" xlink:href="#DejaVuSans-97"/>
   </g>
  </g>
  <g id="text_25">
   <!-- Bron: https://data.rivm.nl/covid-19 -->
   <g style="fill:#808080;" transform="translate(574.79875 213.84)scale(0.08 -0.08)">
    <defs>
     <path d="M 19.671875 34.8125 
L 19.671875 8.109375 
L 35.5 8.109375 
Q 43.453125 8.109375 47.28125 11.40625 
Q 51.125 14.703125 51.125 21.484375 
Q 51.125 28.328125 47.28125 31.5625 
Q 43.453125 34.8125 35.5 34.8125 
z
M 19.671875 64.796875 
L 19.671875 42.828125 
L 34.28125 42.828125 
Q 41.5 42.828125 45.03125 45.53125 
Q 48.578125 48.25 48.578125 53.8125 
Q 48.578125 59.328125 45.03125 62.0625 
Q 41.5 64.796875 34.28125 64.796875 
z
M 9.8125 72.90625 
L 35.015625 72.90625 
Q 46.296875 72.90625 52.390625 68.21875 
Q 58.5 63.53125 58.5 54.890625 
Q 58.5 48.1875 55.375 44.234375 
Q 52.25 40.28125 46.1875 39.3125 
Q 53.46875 37.75 57.5 32.78125 
Q 61.53125 27.828125 61.53125 20.40625 
Q 61.53125 10.640625 54.890625 5.3125 
Q 48.25 0 35.984375 0 
L 9.8125 0 
z
" id="DejaVuSans-66"/>
     <path d="M 44.28125 53.078125 
L 44.28125 44.578125 
Q 40.484375 46.53125 36.375 47.5 
Q 32.28125 48.484375 27.875 48.484375 
Q 21.1875 48.484375 17.84375 46.4375 
Q 14.5 44.390625 14.5 40.28125 
Q 14.5 37.15625 16.890625 35.375 
Q 19.28125 33.59375 26.515625 31.984375 
L 29.59375 31.296875 
Q 39.15625 29.25 43.1875 25.515625 
Q 47.21875 21.78125 47.21875 15.09375 
Q 47.21875 7.46875 41.1875 3.015625 
Q 35.15625 -1.421875 24.609375 -1.421875 
Q 20.21875 -1.421875 15.453125 -0.5625 
Q 10.6875 0.296875 5.421875 2 
L 5.421875 11.28125 
Q 10.40625 8.6875 15.234375 7.390625 
Q 20.0625 6.109375 24.8125 6.109375 
Q 31.15625 6.109375 34.5625 8.28125 
Q 37.984375 10.453125 37.984375 14.40625 
Q 37.984375 18.0625 35.515625 20.015625 
Q 33.0625 21.96875 24.703125 23.78125 
L 21.578125 24.515625 
Q 13.234375 26.265625 9.515625 29.90625 
Q 5.8125 33.546875 5.8125 39.890625 
Q 5.8125 47.609375 11.28125 51.796875 
Q 16.75 56 26.8125 56 
Q 31.78125 56 36.171875 55.265625 
Q 40.578125 54.546875 44.28125 53.078125 
z
" id="DejaVuSans-115"/>
     <path d="M 2.984375 54.6875 
L 12.5 54.6875 
L 29.59375 8.796875 
L 46.6875 54.6875 
L 56.203125 54.6875 
L 35.6875 0 
L 23.484375 0 
z
" id="DejaVuSans-118"/>
    </defs>
    <use xlink:href="#DejaVuSans-66"/>
    <use x="68.603516" xlink:href="#DejaVuSans-114"/>
    <use x="107.466797" xlink:href="#DejaVuSans-111"/>
    <use x="168.648438" xlink:href="#DejaVuSans-110"/>
    <use x="232.027344" xlink:href="#DejaVuSans-58"/>
    <use x="265.71875" xlink:href="#DejaVuSans-32"/>
    <use x="297.505859" xlink:href="#DejaVuSans-104"/>
    <use x="360.884766" xlink:href="#DejaVuSans-116"/>
    <use x="400.09375" xlink:href="#DejaVuSans-116"/>
    <use x="439.302734" xlink:href="#DejaVuSans-112"/>
    <use x="502.779297" xlink:href="#DejaVuSans-115"/>
    <use x="554.878906" xlink:href="#DejaVuSans-58"/>
    <use x="588.570312" xlink:href="#DejaVuSans-47"/>
    <use x="622.261719" xlink:href="#DejaVuSans-47"/>
    <use x="655.953125" xlink:href="#DejaVuSans-100"/>
    <use x="719.429688" xlink:href="#DejaVuSans-97"/>
    <use x="780.708984" xlink:href="#DejaVuSans-116"/>
    <use x="819.917969" xlink:href="#DejaVuSans-97"/>
    <use x="881.197266" xlink:href="#DejaVuSans-46"/>
    <use x="912.984375" xlink:href="#DejaVuSans-114"/>
    <use x="954.097656" xlink:href="#DejaVuSans-105"/>
    <use x="981.880859" xlink:href="#DejaVuSans-118"/>
    <use x="1041.060547" xlink:href="#DejaVuSans-109"/>
    <use x="1138.472656" xlink:href="#DejaVuSans-46"/>
    <use x="1170.259766" xlink:href="#DejaVuSans-110"/>
    <use x="1233.638672" xlink:href="#DejaVuSans-108"/>
    <use x="1261.421875" xlink:href="#DejaVuSans-47"/>
    <use x="1295.113281" xlink:href="#DejaVuSans-99"/>
    <use x="1350.09375" xlink:href="#DejaVuSans-111"/>
    <use x="1411.275391" xlink:href="#DejaVuSans-118"/>
    <use x="1470.455078" xlink:href="#DejaVuSans-105"/>
    <use x="1498.238281" xlink:href="#DejaVuSans-100"/>
    <use x="1561.714844" xlink:href="#DejaVuSans-45"/>
    <use x="1597.798828" xlink:href="#DejaVuSans-49"/>
    <use x="1661.421875" xlink:href="#DejaVuSans-57"/>
   </g>
  </g>
 </g>
 <defs>
  <clipPath id="p68ab8b773d">
   <rect height="146.88" width="590.4" x="64.8" y="25.92"/>
  </clipPath>
 </defs>
</svg>
