<?xml version="1.0" encoding="utf-8" standalone="no"?>
<!DOCTYPE svg PUBLIC "-//W3C//DTD SVG 1.1//EN"
  "http://www.w3.org/Graphics/SVG/1.1/DTD/svg11.dtd">
<!-- Created with matplotlib (https://matplotlib.org/) -->
<svg height="216pt" version="1.1" viewBox="0 0 720 216" width="720pt" xmlns="http://www.w3.org/2000/svg" xmlns:xlink="http://www.w3.org/1999/xlink">
 <metadata>
  <rdf:RDF xmlns:cc="http://creativecommons.org/ns#" xmlns:dc="http://purl.org/dc/elements/1.1/" xmlns:rdf="http://www.w3.org/1999/02/22-rdf-syntax-ns#">
   <cc:Work>
    <dc:type rdf:resource="http://purl.org/dc/dcmitype/StillImage"/>
    <dc:date>2022-08-06T23:48:07.392122</dc:date>
    <dc:format>image/svg+xml</dc:format>
    <dc:creator>
     <cc:Agent>
      <dc:title>Matplotlib v3.3.2, https://matplotlib.org/</dc:title>
     </cc:Agent>
    </dc:creator>
   </cc:Work>
  </rdf:RDF>
 </metadata>
 <defs>
  <style type="text/css">*{stroke-linecap:butt;stroke-linejoin:round;}</style>
 </defs>
 <g id="figure_1">
  <g id="patch_1">
   <path d="M 0 216 
L 720 216 
L 720 0 
L 0 0 
z
" style="fill:#ffffff;"/>
  </g>
  <g id="axes_1">
   <g id="patch_2">
    <path d="M 64.8 172.8 
L 655.2 172.8 
L 655.2 25.92 
L 64.8 25.92 
z
" style="fill:#ffffff;"/>
   </g>
   <g id="PolyCollection_1">
    <path clip-path="url(#p277f0d27ff)" d="M 64.8 123.84 
L 64.8 123.84 
L 66.421978 123.84 
L 68.043956 123.84 
L 69.665934 123.84 
L 71.287912 123.84 
L 69.665934 123.3504 
L 68.043956 122.8608 
L 66.421978 122.3712 
L 64.8 122.3712 
z
" style="fill:#ff0000;fill-opacity:0.3;"/>
    <path clip-path="url(#p277f0d27ff)" d="M 71.287912 123.84 
L 72.90989 123.84 
L 74.531868 123.84 
L 76.153846 123.84 
L 77.775824 123.84 
L 78.586813 123.84 
L 77.775824 123.3504 
L 76.153846 122.8608 
L 74.531868 123.3504 
L 72.90989 123.3504 
z
" style="fill:#ff0000;fill-opacity:0.3;"/>
    <path clip-path="url(#p277f0d27ff)" d="M 85.345055 123.84 
L 85.885714 123.84 
L 87.507692 123.84 
L 89.12967 123.84 
L 90.751648 123.84 
L 91.562637 123.84 
L 90.751648 122.8608 
L 89.12967 121.8816 
L 87.507692 122.3712 
L 85.885714 123.3504 
z
" style="fill:#ff0000;fill-opacity:0.3;"/>
    <path clip-path="url(#p277f0d27ff)" d="M 130.084615 123.84 
L 131.301099 123.84 
L 132.923077 123.84 
L 134.545055 123.84 
L 136.167033 123.84 
L 137.789011 123.84 
L 139.410989 123.84 
L 141.032967 123.84 
L 142.654945 123.84 
L 144.276923 123.84 
L 145.898901 123.84 
L 147.520879 123.84 
L 149.142857 123.84 
L 150.764835 123.84 
L 152.386813 123.84 
L 154.008791 123.84 
L 155.630769 123.84 
L 157.252747 123.84 
L 158.874725 123.84 
L 160.496703 123.84 
L 162.118681 123.84 
L 163.740659 123.84 
L 165.362637 123.84 
L 166.984615 123.84 
L 168.606593 123.84 
L 170.228571 123.84 
L 171.850549 123.84 
L 173.472527 123.84 
L 175.094505 123.84 
L 176.716484 123.84 
L 178.338462 123.84 
L 179.96044 123.84 
L 181.582418 123.84 
L 183.204396 123.84 
L 184.826374 123.84 
L 186.448352 123.84 
L 188.07033 123.84 
L 189.692308 123.84 
L 191.314286 123.84 
L 192.936264 123.84 
L 194.558242 123.84 
L 196.18022 123.84 
L 197.802198 123.84 
L 199.424176 123.84 
L 201.046154 123.84 
L 202.668132 123.84 
L 204.29011 123.84 
L 205.912088 123.84 
L 207.534066 123.84 
L 209.156044 123.84 
L 210.778022 123.84 
L 212.4 123.84 
L 214.021978 123.84 
L 215.643956 123.84 
L 217.265934 123.84 
L 218.887912 123.84 
L 220.50989 123.84 
L 218.887912 122.8608 
L 217.265934 121.392 
L 215.643956 119.4336 
L 214.021978 116.9856 
L 212.4 115.5168 
L 210.778022 115.0272 
L 209.156044 115.0272 
L 207.534066 114.5376 
L 205.912088 113.5584 
L 204.29011 111.6 
L 202.668132 110.1312 
L 201.046154 109.6416 
L 199.424176 110.1312 
L 197.802198 111.6 
L 196.18022 113.0688 
L 194.558242 112.5792 
L 192.936264 111.6 
L 191.314286 111.1104 
L 189.692308 111.6 
L 188.07033 113.0688 
L 186.448352 115.0272 
L 184.826374 115.5168 
L 183.204396 115.0272 
L 181.582418 113.5584 
L 179.96044 112.5792 
L 178.338462 113.5584 
L 176.716484 115.0272 
L 175.094505 116.0064 
L 173.472527 116.0064 
L 171.850549 113.5584 
L 170.228571 110.6208 
L 168.606593 108.1728 
L 166.984615 108.6624 
L 165.362637 110.6208 
L 163.740659 113.0688 
L 162.118681 114.5376 
L 160.496703 114.048 
L 158.874725 112.5792 
L 157.252747 111.1104 
L 155.630769 110.6208 
L 154.008791 111.6 
L 152.386813 113.0688 
L 150.764835 114.048 
L 149.142857 114.048 
L 147.520879 112.0896 
L 145.898901 110.1312 
L 144.276923 110.1312 
L 142.654945 111.6 
L 141.032967 113.5584 
L 139.410989 116.0064 
L 137.789011 117.4752 
L 136.167033 117.9648 
L 134.545055 118.944 
L 132.923077 120.4128 
L 131.301099 122.3712 
z
" style="fill:#ff0000;fill-opacity:0.3;"/>
    <path clip-path="url(#p277f0d27ff)" d="M 272.413187 123.84 
L 274.035165 123.84 
L 275.657143 123.84 
L 277.279121 123.84 
L 278.901099 123.84 
L 280.523077 123.84 
L 282.145055 123.84 
L 283.767033 123.84 
L 285.389011 123.84 
L 287.010989 123.84 
L 288.632967 123.84 
L 290.254945 123.84 
L 291.876923 123.84 
L 293.498901 123.84 
L 295.120879 123.84 
L 296.742857 123.84 
L 298.364835 123.84 
L 299.986813 123.84 
L 301.608791 123.84 
L 303.230769 123.84 
L 304.852747 123.84 
L 306.474725 123.84 
L 308.096703 123.84 
L 309.718681 123.84 
L 311.340659 123.84 
L 312.962637 123.84 
L 314.584615 123.84 
L 316.206593 123.84 
L 317.828571 123.84 
L 319.450549 123.84 
L 321.072527 123.84 
L 322.694505 123.84 
L 324.316484 123.84 
L 325.938462 123.84 
L 327.56044 123.84 
L 329.182418 123.84 
L 330.804396 123.84 
L 332.426374 123.84 
L 334.048352 123.84 
L 335.67033 123.84 
L 337.292308 123.84 
L 338.914286 123.84 
L 339.725275 123.84 
L 338.914286 123.3504 
L 337.292308 122.8608 
L 335.67033 122.3712 
L 334.048352 121.8816 
L 332.426374 120.9024 
L 330.804396 119.4336 
L 329.182418 118.4544 
L 327.56044 116.9856 
L 325.938462 116.496 
L 324.316484 116.496 
L 322.694505 116.496 
L 321.072527 115.5168 
L 319.450549 113.5584 
L 317.828571 111.6 
L 316.206593 109.6416 
L 314.584615 108.6624 
L 312.962637 109.152 
L 311.340659 110.6208 
L 309.718681 112.0896 
L 308.096703 114.048 
L 306.474725 114.5376 
L 304.852747 115.0272 
L 303.230769 116.0064 
L 301.608791 117.4752 
L 299.986813 118.944 
L 298.364835 119.4336 
L 296.742857 117.9648 
L 295.120879 113.5584 
L 293.498901 107.6832 
L 291.876923 105.2352 
L 290.254945 106.2144 
L 288.632967 109.152 
L 287.010989 112.0896 
L 285.389011 112.5792 
L 283.767033 111.6 
L 282.145055 111.6 
L 280.523077 113.5584 
L 278.901099 116.9856 
L 277.279121 119.9232 
L 275.657143 122.3712 
L 274.035165 123.3504 
z
" style="fill:#ff0000;fill-opacity:0.3;"/>
    <path clip-path="url(#p277f0d27ff)" d="M 374.597802 123.84 
L 376.21978 123.84 
L 377.841758 123.84 
L 379.463736 123.84 
L 381.085714 123.84 
L 382.707692 123.84 
L 384.32967 123.84 
L 385.951648 123.84 
L 387.573626 123.84 
L 389.195604 123.84 
L 390.817582 123.84 
L 392.43956 123.84 
L 394.061538 123.84 
L 392.43956 121.8816 
L 390.817582 119.4336 
L 389.195604 116.0064 
L 387.573626 112.0896 
L 385.951648 107.6832 
L 384.32967 105.2352 
L 382.707692 106.704 
L 381.085714 110.6208 
L 379.463736 115.5168 
L 377.841758 119.9232 
L 376.21978 122.8608 
z
" style="fill:#ff0000;fill-opacity:0.3;"/>
    <path clip-path="url(#p277f0d27ff)" d="M 480.026374 123.84 
L 481.648352 123.84 
L 483.27033 123.84 
L 484.892308 123.84 
L 485.432967 123.84 
L 484.892308 123.3504 
L 483.27033 122.3712 
L 481.648352 122.3712 
z
" style="fill:#ff0000;fill-opacity:0.3;"/>
    <path clip-path="url(#p277f0d27ff)" d="M 507.059341 123.84 
L 507.6 123.84 
L 509.221978 123.84 
L 507.6 123.3504 
z
" style="fill:#ff0000;fill-opacity:0.3;"/>
    <path clip-path="url(#p277f0d27ff)" d="M 517.872527 123.84 
L 518.953846 123.84 
L 520.575824 123.84 
L 522.197802 123.84 
L 523.81978 123.84 
L 525.441758 123.84 
L 527.063736 123.84 
L 528.685714 123.84 
L 530.307692 123.84 
L 531.92967 123.84 
L 533.551648 123.84 
L 535.173626 123.84 
L 536.795604 123.84 
L 538.417582 123.84 
L 540.03956 123.84 
L 541.661538 123.84 
L 543.283516 123.84 
L 544.905495 123.84 
L 546.527473 123.84 
L 548.149451 123.84 
L 549.771429 123.84 
L 551.393407 123.84 
L 553.015385 123.84 
L 554.637363 123.84 
L 556.259341 123.84 
L 557.881319 123.84 
L 559.503297 123.84 
L 561.125275 123.84 
L 562.747253 123.84 
L 564.369231 123.84 
L 565.991209 123.84 
L 567.613187 123.84 
L 569.235165 123.84 
L 570.857143 123.84 
L 572.479121 123.84 
L 574.101099 123.84 
L 575.723077 123.84 
L 577.345055 123.84 
L 578.967033 123.84 
L 580.589011 123.84 
L 582.210989 123.84 
L 580.589011 123.3504 
L 578.967033 121.392 
L 577.345055 118.944 
L 575.723077 118.4544 
L 574.101099 118.944 
L 572.479121 120.4128 
L 570.857143 121.392 
L 569.235165 120.4128 
L 567.613187 118.4544 
L 565.991209 116.0064 
L 564.369231 115.5168 
L 562.747253 116.0064 
L 561.125275 116.9856 
L 559.503297 117.4752 
L 557.881319 115.5168 
L 556.259341 111.6 
L 554.637363 108.1728 
L 553.015385 107.1936 
L 551.393407 108.6624 
L 549.771429 110.6208 
L 548.149451 112.0896 
L 546.527473 111.1104 
L 544.905495 109.152 
L 543.283516 108.1728 
L 541.661538 109.152 
L 540.03956 111.6 
L 538.417582 114.5376 
L 536.795604 116.496 
L 535.173626 116.9856 
L 533.551648 115.0272 
L 531.92967 113.0688 
L 530.307692 112.5792 
L 528.685714 113.5584 
L 527.063736 115.5168 
L 525.441758 117.9648 
L 523.81978 119.9232 
L 522.197802 120.9024 
L 520.575824 120.9024 
L 518.953846 121.8816 
z
" style="fill:#ff0000;fill-opacity:0.3;"/>
    <path clip-path="url(#p277f0d27ff)" d="M 582.210989 123.84 
L 583.832967 123.84 
L 585.454945 123.84 
L 587.076923 123.84 
L 588.698901 123.84 
L 590.320879 123.84 
L 591.618462 123.84 
L 590.320879 121.8816 
L 588.698901 119.9232 
L 587.076923 118.944 
L 585.454945 120.4128 
L 583.832967 122.3712 
z
" style="fill:#ff0000;fill-opacity:0.3;"/>
   </g>
   <g id="PolyCollection_2">
    <path clip-path="url(#p277f0d27ff)" d="M 71.287912 123.84 
L 71.287912 123.84 
L 71.287912 123.84 
L 71.287912 123.84 
z
" style="fill:#008000;fill-opacity:0.3;"/>
    <path clip-path="url(#p277f0d27ff)" d="M 78.586813 123.84 
L 79.397802 123.84 
L 81.01978 123.84 
L 82.641758 123.84 
L 84.263736 123.84 
L 85.345055 123.84 
L 84.263736 124.8192 
L 82.641758 125.3088 
L 81.01978 125.3088 
L 79.397802 124.3296 
z
" style="fill:#008000;fill-opacity:0.3;"/>
    <path clip-path="url(#p277f0d27ff)" d="M 91.562637 123.84 
L 92.373626 123.84 
L 93.995604 123.84 
L 95.617582 123.84 
L 97.23956 123.84 
L 98.861538 123.84 
L 100.483516 123.84 
L 102.105495 123.84 
L 103.727473 123.84 
L 105.349451 123.84 
L 106.971429 123.84 
L 108.593407 123.84 
L 110.215385 123.84 
L 111.837363 123.84 
L 113.459341 123.84 
L 115.081319 123.84 
L 116.703297 123.84 
L 118.325275 123.84 
L 119.947253 123.84 
L 121.569231 123.84 
L 123.191209 123.84 
L 124.813187 123.84 
L 126.435165 123.84 
L 128.057143 123.84 
L 129.679121 123.84 
L 130.084615 123.84 
L 129.679121 124.3296 
L 128.057143 125.3088 
L 126.435165 125.7984 
L 124.813187 125.3088 
L 123.191209 125.3088 
L 121.569231 126.288 
L 119.947253 127.7568 
L 118.325275 129.2256 
L 116.703297 129.7152 
L 115.081319 128.736 
L 113.459341 127.7568 
L 111.837363 127.2672 
L 110.215385 127.7568 
L 108.593407 128.736 
L 106.971429 129.2256 
L 105.349451 129.2256 
L 103.727473 128.736 
L 102.105495 127.2672 
L 100.483516 125.7984 
L 98.861538 125.3088 
L 97.23956 125.7984 
L 95.617582 125.7984 
L 93.995604 125.7984 
L 92.373626 124.8192 
z
" style="fill:#008000;fill-opacity:0.3;"/>
    <path clip-path="url(#p277f0d27ff)" d="M 220.50989 123.84 
L 220.50989 123.84 
L 222.131868 123.84 
L 223.753846 123.84 
L 225.375824 123.84 
L 226.997802 123.84 
L 228.61978 123.84 
L 230.241758 123.84 
L 231.863736 123.84 
L 233.485714 123.84 
L 235.107692 123.84 
L 236.72967 123.84 
L 238.351648 123.84 
L 239.973626 123.84 
L 241.595604 123.84 
L 243.217582 123.84 
L 244.83956 123.84 
L 246.461538 123.84 
L 248.083516 123.84 
L 249.705495 123.84 
L 251.327473 123.84 
L 252.949451 123.84 
L 254.571429 123.84 
L 256.193407 123.84 
L 257.815385 123.84 
L 259.437363 123.84 
L 261.059341 123.84 
L 262.681319 123.84 
L 264.303297 123.84 
L 265.925275 123.84 
L 267.547253 123.84 
L 269.169231 123.84 
L 270.791209 123.84 
L 272.413187 123.84 
L 272.413187 123.84 
L 272.413187 123.84 
L 270.791209 123.84 
L 269.169231 125.3088 
L 267.547253 126.7776 
L 265.925275 128.2464 
L 264.303297 129.2256 
L 262.681319 129.2256 
L 261.059341 128.2464 
L 259.437363 127.2672 
L 257.815385 127.7568 
L 256.193407 128.736 
L 254.571429 130.2048 
L 252.949451 130.6944 
L 251.327473 130.2048 
L 249.705495 129.7152 
L 248.083516 128.736 
L 246.461538 128.736 
L 244.83956 129.2256 
L 243.217582 129.2256 
L 241.595604 128.736 
L 239.973626 128.2464 
L 238.351648 126.7776 
L 236.72967 125.7984 
L 235.107692 125.3088 
L 233.485714 125.7984 
L 231.863736 126.288 
L 230.241758 126.288 
L 228.61978 126.288 
L 226.997802 125.7984 
L 225.375824 125.3088 
L 223.753846 124.8192 
L 222.131868 124.3296 
L 220.50989 123.84 
z
" style="fill:#008000;fill-opacity:0.3;"/>
    <path clip-path="url(#p277f0d27ff)" d="M 339.725275 123.84 
L 340.536264 123.84 
L 342.158242 123.84 
L 343.78022 123.84 
L 345.402198 123.84 
L 347.024176 123.84 
L 348.646154 123.84 
L 350.268132 123.84 
L 351.89011 123.84 
L 353.512088 123.84 
L 355.134066 123.84 
L 356.756044 123.84 
L 358.378022 123.84 
L 360 123.84 
L 361.621978 123.84 
L 363.243956 123.84 
L 364.865934 123.84 
L 366.487912 123.84 
L 368.10989 123.84 
L 369.731868 123.84 
L 371.353846 123.84 
L 372.975824 123.84 
L 374.597802 123.84 
L 374.597802 123.84 
L 374.597802 123.84 
L 372.975824 124.8192 
L 371.353846 126.288 
L 369.731868 128.736 
L 368.10989 131.184 
L 366.487912 133.1424 
L 364.865934 134.1216 
L 363.243956 133.632 
L 361.621978 133.1424 
L 360 132.6528 
L 358.378022 133.632 
L 356.756044 133.632 
L 355.134066 133.1424 
L 353.512088 132.1632 
L 351.89011 130.6944 
L 350.268132 129.2256 
L 348.646154 128.736 
L 347.024176 128.736 
L 345.402198 128.2464 
L 343.78022 127.2672 
L 342.158242 125.7984 
L 340.536264 124.3296 
z
" style="fill:#008000;fill-opacity:0.3;"/>
    <path clip-path="url(#p277f0d27ff)" d="M 394.061538 123.84 
L 394.061538 123.84 
L 395.683516 123.84 
L 397.305495 123.84 
L 398.927473 123.84 
L 400.549451 123.84 
L 402.171429 123.84 
L 403.793407 123.84 
L 405.415385 123.84 
L 407.037363 123.84 
L 408.659341 123.84 
L 410.281319 123.84 
L 411.903297 123.84 
L 413.525275 123.84 
L 415.147253 123.84 
L 416.769231 123.84 
L 418.391209 123.84 
L 420.013187 123.84 
L 421.635165 123.84 
L 423.257143 123.84 
L 424.879121 123.84 
L 426.501099 123.84 
L 428.123077 123.84 
L 429.745055 123.84 
L 431.367033 123.84 
L 432.989011 123.84 
L 434.610989 123.84 
L 436.232967 123.84 
L 437.854945 123.84 
L 439.476923 123.84 
L 441.098901 123.84 
L 442.720879 123.84 
L 444.342857 123.84 
L 445.964835 123.84 
L 447.586813 123.84 
L 449.208791 123.84 
L 450.830769 123.84 
L 452.452747 123.84 
L 454.074725 123.84 
L 455.696703 123.84 
L 457.318681 123.84 
L 458.940659 123.84 
L 460.562637 123.84 
L 462.184615 123.84 
L 463.806593 123.84 
L 465.428571 123.84 
L 467.050549 123.84 
L 468.672527 123.84 
L 470.294505 123.84 
L 471.916484 123.84 
L 473.538462 123.84 
L 475.16044 123.84 
L 476.782418 123.84 
L 478.404396 123.84 
L 480.026374 123.84 
L 480.026374 123.84 
L 480.026374 123.84 
L 478.404396 125.7984 
L 476.782418 127.7568 
L 475.16044 129.2256 
L 473.538462 131.184 
L 471.916484 134.1216 
L 470.294505 136.5696 
L 468.672527 137.5488 
L 467.050549 137.0592 
L 465.428571 135.1008 
L 463.806593 133.632 
L 462.184615 133.632 
L 460.562637 135.5904 
L 458.940659 138.0384 
L 457.318681 139.5072 
L 455.696703 140.976 
L 454.074725 141.4656 
L 452.452747 141.9552 
L 450.830769 142.4448 
L 449.208791 142.9344 
L 447.586813 142.4448 
L 445.964835 141.4656 
L 444.342857 139.5072 
L 442.720879 137.5488 
L 441.098901 136.5696 
L 439.476923 136.5696 
L 437.854945 138.0384 
L 436.232967 139.5072 
L 434.610989 139.9968 
L 432.989011 139.0176 
L 431.367033 137.0592 
L 429.745055 134.6112 
L 428.123077 133.632 
L 426.501099 133.632 
L 424.879121 134.6112 
L 423.257143 134.6112 
L 421.635165 134.1216 
L 420.013187 132.1632 
L 418.391209 130.6944 
L 416.769231 130.2048 
L 415.147253 130.6944 
L 413.525275 131.6736 
L 411.903297 132.6528 
L 410.281319 132.6528 
L 408.659341 131.6736 
L 407.037363 130.6944 
L 405.415385 130.6944 
L 403.793407 130.6944 
L 402.171429 131.184 
L 400.549451 131.184 
L 398.927473 130.2048 
L 397.305495 128.2464 
L 395.683516 125.7984 
L 394.061538 123.84 
z
" style="fill:#008000;fill-opacity:0.3;"/>
    <path clip-path="url(#p277f0d27ff)" d="M 485.432967 123.84 
L 486.514286 123.84 
L 488.136264 123.84 
L 489.758242 123.84 
L 491.38022 123.84 
L 493.002198 123.84 
L 494.624176 123.84 
L 496.246154 123.84 
L 497.868132 123.84 
L 499.49011 123.84 
L 501.112088 123.84 
L 502.734066 123.84 
L 504.356044 123.84 
L 505.978022 123.84 
L 507.059341 123.84 
L 505.978022 124.8192 
L 504.356044 127.2672 
L 502.734066 129.2256 
L 501.112088 129.7152 
L 499.49011 129.2256 
L 497.868132 127.7568 
L 496.246154 127.2672 
L 494.624176 127.7568 
L 493.002198 128.736 
L 491.38022 129.2256 
L 489.758242 129.2256 
L 488.136264 127.2672 
L 486.514286 124.8192 
z
" style="fill:#008000;fill-opacity:0.3;"/>
    <path clip-path="url(#p277f0d27ff)" d="M 509.221978 123.84 
L 509.221978 123.84 
L 510.843956 123.84 
L 512.465934 123.84 
L 514.087912 123.84 
L 515.70989 123.84 
L 517.331868 123.84 
L 517.872527 123.84 
L 517.331868 124.8192 
L 515.70989 127.7568 
L 514.087912 129.7152 
L 512.465934 129.2256 
L 510.843956 126.7776 
L 509.221978 123.84 
z
" style="fill:#008000;fill-opacity:0.3;"/>
    <path clip-path="url(#p277f0d27ff)" d="M 582.210989 123.84 
L 582.210989 123.84 
L 582.210989 123.84 
L 582.210989 123.84 
z
" style="fill:#008000;fill-opacity:0.3;"/>
    <path clip-path="url(#p277f0d27ff)" d="M 591.618462 123.84 
L 591.942857 123.84 
L 593.564835 123.84 
L 595.186813 123.84 
L 596.808791 123.84 
L 598.430769 123.84 
L 600.052747 123.84 
L 601.674725 123.84 
L 603.296703 123.84 
L 604.918681 123.84 
L 606.540659 123.84 
L 608.162637 123.84 
L 609.784615 123.84 
L 611.406593 123.84 
L 613.028571 123.84 
L 614.650549 123.84 
L 616.272527 123.84 
L 617.894505 123.84 
L 619.516484 123.84 
L 619.516484 123.84 
L 619.516484 128.736 
L 617.894505 129.7152 
L 616.272527 130.2048 
L 614.650549 129.7152 
L 613.028571 129.2256 
L 611.406593 128.736 
L 609.784615 129.7152 
L 608.162637 131.6736 
L 606.540659 133.1424 
L 604.918681 133.1424 
L 603.296703 131.6736 
L 601.674725 129.2256 
L 600.052747 126.288 
L 598.430769 124.8192 
L 596.808791 124.3296 
L 595.186813 125.3088 
L 593.564835 125.3088 
L 591.942857 124.3296 
z
" style="fill:#008000;fill-opacity:0.3;"/>
   </g>
   <g id="matplotlib.axis_1">
    <g id="xtick_1">
     <g id="line2d_1">
      <path clip-path="url(#p277f0d27ff)" d="M 95.617582 172.8 
L 95.617582 25.92 
" style="fill:none;stroke:#808080;stroke-dasharray:6.4,1.6,1,1.6;stroke-dashoffset:0;stroke-opacity:0.3;"/>
     </g>
     <g id="line2d_2">
      <defs>
       <path d="M 0 0 
L 0 3.5 
" id="m0e83fb146e" style="stroke:#000000;stroke-width:0.8;"/>
      </defs>
      <g>
       <use style="stroke:#000000;stroke-width:0.8;" x="95.617582" xlink:href="#m0e83fb146e" y="172.8"/>
      </g>
     </g>
     <g id="text_1">
      <!-- 2021-09 -->
      <g transform="translate(74.726176 187.398438)scale(0.1 -0.1)">
       <defs>
        <path d="M 19.1875 8.296875 
L 53.609375 8.296875 
L 53.609375 0 
L 7.328125 0 
L 7.328125 8.296875 
Q 12.9375 14.109375 22.625 23.890625 
Q 32.328125 33.6875 34.8125 36.53125 
Q 39.546875 41.84375 41.421875 45.53125 
Q 43.3125 49.21875 43.3125 52.78125 
Q 43.3125 58.59375 39.234375 62.25 
Q 35.15625 65.921875 28.609375 65.921875 
Q 23.96875 65.921875 18.8125 64.3125 
Q 13.671875 62.703125 7.8125 59.421875 
L 7.8125 69.390625 
Q 13.765625 71.78125 18.9375 73 
Q 24.125 74.21875 28.421875 74.21875 
Q 39.75 74.21875 46.484375 68.546875 
Q 53.21875 62.890625 53.21875 53.421875 
Q 53.21875 48.921875 51.53125 44.890625 
Q 49.859375 40.875 45.40625 35.40625 
Q 44.1875 33.984375 37.640625 27.21875 
Q 31.109375 20.453125 19.1875 8.296875 
z
" id="DejaVuSans-50"/>
        <path d="M 31.78125 66.40625 
Q 24.171875 66.40625 20.328125 58.90625 
Q 16.5 51.421875 16.5 36.375 
Q 16.5 21.390625 20.328125 13.890625 
Q 24.171875 6.390625 31.78125 6.390625 
Q 39.453125 6.390625 43.28125 13.890625 
Q 47.125 21.390625 47.125 36.375 
Q 47.125 51.421875 43.28125 58.90625 
Q 39.453125 66.40625 31.78125 66.40625 
z
M 31.78125 74.21875 
Q 44.046875 74.21875 50.515625 64.515625 
Q 56.984375 54.828125 56.984375 36.375 
Q 56.984375 17.96875 50.515625 8.265625 
Q 44.046875 -1.421875 31.78125 -1.421875 
Q 19.53125 -1.421875 13.0625 8.265625 
Q 6.59375 17.96875 6.59375 36.375 
Q 6.59375 54.828125 13.0625 64.515625 
Q 19.53125 74.21875 31.78125 74.21875 
z
" id="DejaVuSans-48"/>
        <path d="M 12.40625 8.296875 
L 28.515625 8.296875 
L 28.515625 63.921875 
L 10.984375 60.40625 
L 10.984375 69.390625 
L 28.421875 72.90625 
L 38.28125 72.90625 
L 38.28125 8.296875 
L 54.390625 8.296875 
L 54.390625 0 
L 12.40625 0 
z
" id="DejaVuSans-49"/>
        <path d="M 4.890625 31.390625 
L 31.203125 31.390625 
L 31.203125 23.390625 
L 4.890625 23.390625 
z
" id="DejaVuSans-45"/>
        <path d="M 10.984375 1.515625 
L 10.984375 10.5 
Q 14.703125 8.734375 18.5 7.8125 
Q 22.3125 6.890625 25.984375 6.890625 
Q 35.75 6.890625 40.890625 13.453125 
Q 46.046875 20.015625 46.78125 33.40625 
Q 43.953125 29.203125 39.59375 26.953125 
Q 35.25 24.703125 29.984375 24.703125 
Q 19.046875 24.703125 12.671875 31.3125 
Q 6.296875 37.9375 6.296875 49.421875 
Q 6.296875 60.640625 12.9375 67.421875 
Q 19.578125 74.21875 30.609375 74.21875 
Q 43.265625 74.21875 49.921875 64.515625 
Q 56.59375 54.828125 56.59375 36.375 
Q 56.59375 19.140625 48.40625 8.859375 
Q 40.234375 -1.421875 26.421875 -1.421875 
Q 22.703125 -1.421875 18.890625 -0.6875 
Q 15.09375 0.046875 10.984375 1.515625 
z
M 30.609375 32.421875 
Q 37.25 32.421875 41.125 36.953125 
Q 45.015625 41.5 45.015625 49.421875 
Q 45.015625 57.28125 41.125 61.84375 
Q 37.25 66.40625 30.609375 66.40625 
Q 23.96875 66.40625 20.09375 61.84375 
Q 16.21875 57.28125 16.21875 49.421875 
Q 16.21875 41.5 20.09375 36.953125 
Q 23.96875 32.421875 30.609375 32.421875 
z
" id="DejaVuSans-57"/>
       </defs>
       <use xlink:href="#DejaVuSans-50"/>
       <use x="63.623047" xlink:href="#DejaVuSans-48"/>
       <use x="127.246094" xlink:href="#DejaVuSans-50"/>
       <use x="190.869141" xlink:href="#DejaVuSans-49"/>
       <use x="254.492188" xlink:href="#DejaVuSans-45"/>
       <use x="290.576172" xlink:href="#DejaVuSans-48"/>
       <use x="354.199219" xlink:href="#DejaVuSans-57"/>
      </g>
     </g>
    </g>
    <g id="xtick_2">
     <g id="line2d_3">
      <path clip-path="url(#p277f0d27ff)" d="M 144.276923 172.8 
L 144.276923 25.92 
" style="fill:none;stroke:#808080;stroke-dasharray:6.4,1.6,1,1.6;stroke-dashoffset:0;stroke-opacity:0.3;"/>
     </g>
     <g id="line2d_4">
      <g>
       <use style="stroke:#000000;stroke-width:0.8;" x="144.276923" xlink:href="#m0e83fb146e" y="172.8"/>
      </g>
     </g>
     <g id="text_2">
      <!-- 2021-10 -->
      <g transform="translate(123.385517 187.398438)scale(0.1 -0.1)">
       <use xlink:href="#DejaVuSans-50"/>
       <use x="63.623047" xlink:href="#DejaVuSans-48"/>
       <use x="127.246094" xlink:href="#DejaVuSans-50"/>
       <use x="190.869141" xlink:href="#DejaVuSans-49"/>
       <use x="254.492188" xlink:href="#DejaVuSans-45"/>
       <use x="290.576172" xlink:href="#DejaVuSans-49"/>
       <use x="354.199219" xlink:href="#DejaVuSans-48"/>
      </g>
     </g>
    </g>
    <g id="xtick_3">
     <g id="line2d_5">
      <path clip-path="url(#p277f0d27ff)" d="M 194.558242 172.8 
L 194.558242 25.92 
" style="fill:none;stroke:#808080;stroke-dasharray:6.4,1.6,1,1.6;stroke-dashoffset:0;stroke-opacity:0.3;"/>
     </g>
     <g id="line2d_6">
      <g>
       <use style="stroke:#000000;stroke-width:0.8;" x="194.558242" xlink:href="#m0e83fb146e" y="172.8"/>
      </g>
     </g>
     <g id="text_3">
      <!-- 2021-11 -->
      <g transform="translate(173.666836 187.398438)scale(0.1 -0.1)">
       <use xlink:href="#DejaVuSans-50"/>
       <use x="63.623047" xlink:href="#DejaVuSans-48"/>
       <use x="127.246094" xlink:href="#DejaVuSans-50"/>
       <use x="190.869141" xlink:href="#DejaVuSans-49"/>
       <use x="254.492188" xlink:href="#DejaVuSans-45"/>
       <use x="290.576172" xlink:href="#DejaVuSans-49"/>
       <use x="354.199219" xlink:href="#DejaVuSans-49"/>
      </g>
     </g>
    </g>
    <g id="xtick_4">
     <g id="line2d_7">
      <path clip-path="url(#p277f0d27ff)" d="M 243.217582 172.8 
L 243.217582 25.92 
" style="fill:none;stroke:#808080;stroke-dasharray:6.4,1.6,1,1.6;stroke-dashoffset:0;stroke-opacity:0.3;"/>
     </g>
     <g id="line2d_8">
      <g>
       <use style="stroke:#000000;stroke-width:0.8;" x="243.217582" xlink:href="#m0e83fb146e" y="172.8"/>
      </g>
     </g>
     <g id="text_4">
      <!-- 2021-12 -->
      <g transform="translate(222.326176 187.398438)scale(0.1 -0.1)">
       <use xlink:href="#DejaVuSans-50"/>
       <use x="63.623047" xlink:href="#DejaVuSans-48"/>
       <use x="127.246094" xlink:href="#DejaVuSans-50"/>
       <use x="190.869141" xlink:href="#DejaVuSans-49"/>
       <use x="254.492188" xlink:href="#DejaVuSans-45"/>
       <use x="290.576172" xlink:href="#DejaVuSans-49"/>
       <use x="354.199219" xlink:href="#DejaVuSans-50"/>
      </g>
     </g>
    </g>
    <g id="xtick_5">
     <g id="line2d_9">
      <path clip-path="url(#p277f0d27ff)" d="M 293.498901 172.8 
L 293.498901 25.92 
" style="fill:none;stroke:#808080;stroke-dasharray:6.4,1.6,1,1.6;stroke-dashoffset:0;stroke-opacity:0.3;"/>
     </g>
     <g id="line2d_10">
      <g>
       <use style="stroke:#000000;stroke-width:0.8;" x="293.498901" xlink:href="#m0e83fb146e" y="172.8"/>
      </g>
     </g>
     <g id="text_5">
      <!-- 2022-01 -->
      <g transform="translate(272.607495 187.398438)scale(0.1 -0.1)">
       <use xlink:href="#DejaVuSans-50"/>
       <use x="63.623047" xlink:href="#DejaVuSans-48"/>
       <use x="127.246094" xlink:href="#DejaVuSans-50"/>
       <use x="190.869141" xlink:href="#DejaVuSans-50"/>
       <use x="254.492188" xlink:href="#DejaVuSans-45"/>
       <use x="290.576172" xlink:href="#DejaVuSans-48"/>
       <use x="354.199219" xlink:href="#DejaVuSans-49"/>
      </g>
     </g>
    </g>
    <g id="xtick_6">
     <g id="line2d_11">
      <path clip-path="url(#p277f0d27ff)" d="M 343.78022 172.8 
L 343.78022 25.92 
" style="fill:none;stroke:#808080;stroke-dasharray:6.4,1.6,1,1.6;stroke-dashoffset:0;stroke-opacity:0.3;"/>
     </g>
     <g id="line2d_12">
      <g>
       <use style="stroke:#000000;stroke-width:0.8;" x="343.78022" xlink:href="#m0e83fb146e" y="172.8"/>
      </g>
     </g>
     <g id="text_6">
      <!-- 2022-02 -->
      <g transform="translate(322.888814 187.398438)scale(0.1 -0.1)">
       <use xlink:href="#DejaVuSans-50"/>
       <use x="63.623047" xlink:href="#DejaVuSans-48"/>
       <use x="127.246094" xlink:href="#DejaVuSans-50"/>
       <use x="190.869141" xlink:href="#DejaVuSans-50"/>
       <use x="254.492188" xlink:href="#DejaVuSans-45"/>
       <use x="290.576172" xlink:href="#DejaVuSans-48"/>
       <use x="354.199219" xlink:href="#DejaVuSans-50"/>
      </g>
     </g>
    </g>
    <g id="xtick_7">
     <g id="line2d_13">
      <path clip-path="url(#p277f0d27ff)" d="M 389.195604 172.8 
L 389.195604 25.92 
" style="fill:none;stroke:#808080;stroke-dasharray:6.4,1.6,1,1.6;stroke-dashoffset:0;stroke-opacity:0.3;"/>
     </g>
     <g id="line2d_14">
      <g>
       <use style="stroke:#000000;stroke-width:0.8;" x="389.195604" xlink:href="#m0e83fb146e" y="172.8"/>
      </g>
     </g>
     <g id="text_7">
      <!-- 2022-03 -->
      <g transform="translate(368.304198 187.398438)scale(0.1 -0.1)">
       <defs>
        <path d="M 40.578125 39.3125 
Q 47.65625 37.796875 51.625 33 
Q 55.609375 28.21875 55.609375 21.1875 
Q 55.609375 10.40625 48.1875 4.484375 
Q 40.765625 -1.421875 27.09375 -1.421875 
Q 22.515625 -1.421875 17.65625 -0.515625 
Q 12.796875 0.390625 7.625 2.203125 
L 7.625 11.71875 
Q 11.71875 9.328125 16.59375 8.109375 
Q 21.484375 6.890625 26.8125 6.890625 
Q 36.078125 6.890625 40.9375 10.546875 
Q 45.796875 14.203125 45.796875 21.1875 
Q 45.796875 27.640625 41.28125 31.265625 
Q 36.765625 34.90625 28.71875 34.90625 
L 20.21875 34.90625 
L 20.21875 43.015625 
L 29.109375 43.015625 
Q 36.375 43.015625 40.234375 45.921875 
Q 44.09375 48.828125 44.09375 54.296875 
Q 44.09375 59.90625 40.109375 62.90625 
Q 36.140625 65.921875 28.71875 65.921875 
Q 24.65625 65.921875 20.015625 65.03125 
Q 15.375 64.15625 9.8125 62.3125 
L 9.8125 71.09375 
Q 15.4375 72.65625 20.34375 73.4375 
Q 25.25 74.21875 29.59375 74.21875 
Q 40.828125 74.21875 47.359375 69.109375 
Q 53.90625 64.015625 53.90625 55.328125 
Q 53.90625 49.265625 50.4375 45.09375 
Q 46.96875 40.921875 40.578125 39.3125 
z
" id="DejaVuSans-51"/>
       </defs>
       <use xlink:href="#DejaVuSans-50"/>
       <use x="63.623047" xlink:href="#DejaVuSans-48"/>
       <use x="127.246094" xlink:href="#DejaVuSans-50"/>
       <use x="190.869141" xlink:href="#DejaVuSans-50"/>
       <use x="254.492188" xlink:href="#DejaVuSans-45"/>
       <use x="290.576172" xlink:href="#DejaVuSans-48"/>
       <use x="354.199219" xlink:href="#DejaVuSans-51"/>
      </g>
     </g>
    </g>
    <g id="xtick_8">
     <g id="line2d_15">
      <path clip-path="url(#p277f0d27ff)" d="M 439.476923 172.8 
L 439.476923 25.92 
" style="fill:none;stroke:#808080;stroke-dasharray:6.4,1.6,1,1.6;stroke-dashoffset:0;stroke-opacity:0.3;"/>
     </g>
     <g id="line2d_16">
      <g>
       <use style="stroke:#000000;stroke-width:0.8;" x="439.476923" xlink:href="#m0e83fb146e" y="172.8"/>
      </g>
     </g>
     <g id="text_8">
      <!-- 2022-04 -->
      <g transform="translate(418.585517 187.398438)scale(0.1 -0.1)">
       <defs>
        <path d="M 37.796875 64.3125 
L 12.890625 25.390625 
L 37.796875 25.390625 
z
M 35.203125 72.90625 
L 47.609375 72.90625 
L 47.609375 25.390625 
L 58.015625 25.390625 
L 58.015625 17.1875 
L 47.609375 17.1875 
L 47.609375 0 
L 37.796875 0 
L 37.796875 17.1875 
L 4.890625 17.1875 
L 4.890625 26.703125 
z
" id="DejaVuSans-52"/>
       </defs>
       <use xlink:href="#DejaVuSans-50"/>
       <use x="63.623047" xlink:href="#DejaVuSans-48"/>
       <use x="127.246094" xlink:href="#DejaVuSans-50"/>
       <use x="190.869141" xlink:href="#DejaVuSans-50"/>
       <use x="254.492188" xlink:href="#DejaVuSans-45"/>
       <use x="290.576172" xlink:href="#DejaVuSans-48"/>
       <use x="354.199219" xlink:href="#DejaVuSans-52"/>
      </g>
     </g>
    </g>
    <g id="xtick_9">
     <g id="line2d_17">
      <path clip-path="url(#p277f0d27ff)" d="M 488.136264 172.8 
L 488.136264 25.92 
" style="fill:none;stroke:#808080;stroke-dasharray:6.4,1.6,1,1.6;stroke-dashoffset:0;stroke-opacity:0.3;"/>
     </g>
     <g id="line2d_18">
      <g>
       <use style="stroke:#000000;stroke-width:0.8;" x="488.136264" xlink:href="#m0e83fb146e" y="172.8"/>
      </g>
     </g>
     <g id="text_9">
      <!-- 2022-05 -->
      <g transform="translate(467.244857 187.398438)scale(0.1 -0.1)">
       <defs>
        <path d="M 10.796875 72.90625 
L 49.515625 72.90625 
L 49.515625 64.59375 
L 19.828125 64.59375 
L 19.828125 46.734375 
Q 21.96875 47.46875 24.109375 47.828125 
Q 26.265625 48.1875 28.421875 48.1875 
Q 40.625 48.1875 47.75 41.5 
Q 54.890625 34.8125 54.890625 23.390625 
Q 54.890625 11.625 47.5625 5.09375 
Q 40.234375 -1.421875 26.90625 -1.421875 
Q 22.3125 -1.421875 17.546875 -0.640625 
Q 12.796875 0.140625 7.71875 1.703125 
L 7.71875 11.625 
Q 12.109375 9.234375 16.796875 8.0625 
Q 21.484375 6.890625 26.703125 6.890625 
Q 35.15625 6.890625 40.078125 11.328125 
Q 45.015625 15.765625 45.015625 23.390625 
Q 45.015625 31 40.078125 35.4375 
Q 35.15625 39.890625 26.703125 39.890625 
Q 22.75 39.890625 18.8125 39.015625 
Q 14.890625 38.140625 10.796875 36.28125 
z
" id="DejaVuSans-53"/>
       </defs>
       <use xlink:href="#DejaVuSans-50"/>
       <use x="63.623047" xlink:href="#DejaVuSans-48"/>
       <use x="127.246094" xlink:href="#DejaVuSans-50"/>
       <use x="190.869141" xlink:href="#DejaVuSans-50"/>
       <use x="254.492188" xlink:href="#DejaVuSans-45"/>
       <use x="290.576172" xlink:href="#DejaVuSans-48"/>
       <use x="354.199219" xlink:href="#DejaVuSans-53"/>
      </g>
     </g>
    </g>
    <g id="xtick_10">
     <g id="line2d_19">
      <path clip-path="url(#p277f0d27ff)" d="M 538.417582 172.8 
L 538.417582 25.92 
" style="fill:none;stroke:#808080;stroke-dasharray:6.4,1.6,1,1.6;stroke-dashoffset:0;stroke-opacity:0.3;"/>
     </g>
     <g id="line2d_20">
      <g>
       <use style="stroke:#000000;stroke-width:0.8;" x="538.417582" xlink:href="#m0e83fb146e" y="172.8"/>
      </g>
     </g>
     <g id="text_10">
      <!-- 2022-06 -->
      <g transform="translate(517.526176 187.398438)scale(0.1 -0.1)">
       <defs>
        <path d="M 33.015625 40.375 
Q 26.375 40.375 22.484375 35.828125 
Q 18.609375 31.296875 18.609375 23.390625 
Q 18.609375 15.53125 22.484375 10.953125 
Q 26.375 6.390625 33.015625 6.390625 
Q 39.65625 6.390625 43.53125 10.953125 
Q 47.40625 15.53125 47.40625 23.390625 
Q 47.40625 31.296875 43.53125 35.828125 
Q 39.65625 40.375 33.015625 40.375 
z
M 52.59375 71.296875 
L 52.59375 62.3125 
Q 48.875 64.0625 45.09375 64.984375 
Q 41.3125 65.921875 37.59375 65.921875 
Q 27.828125 65.921875 22.671875 59.328125 
Q 17.53125 52.734375 16.796875 39.40625 
Q 19.671875 43.65625 24.015625 45.921875 
Q 28.375 48.1875 33.59375 48.1875 
Q 44.578125 48.1875 50.953125 41.515625 
Q 57.328125 34.859375 57.328125 23.390625 
Q 57.328125 12.15625 50.6875 5.359375 
Q 44.046875 -1.421875 33.015625 -1.421875 
Q 20.359375 -1.421875 13.671875 8.265625 
Q 6.984375 17.96875 6.984375 36.375 
Q 6.984375 53.65625 15.1875 63.9375 
Q 23.390625 74.21875 37.203125 74.21875 
Q 40.921875 74.21875 44.703125 73.484375 
Q 48.484375 72.75 52.59375 71.296875 
z
" id="DejaVuSans-54"/>
       </defs>
       <use xlink:href="#DejaVuSans-50"/>
       <use x="63.623047" xlink:href="#DejaVuSans-48"/>
       <use x="127.246094" xlink:href="#DejaVuSans-50"/>
       <use x="190.869141" xlink:href="#DejaVuSans-50"/>
       <use x="254.492188" xlink:href="#DejaVuSans-45"/>
       <use x="290.576172" xlink:href="#DejaVuSans-48"/>
       <use x="354.199219" xlink:href="#DejaVuSans-54"/>
      </g>
     </g>
    </g>
    <g id="xtick_11">
     <g id="line2d_21">
      <path clip-path="url(#p277f0d27ff)" d="M 587.076923 172.8 
L 587.076923 25.92 
" style="fill:none;stroke:#808080;stroke-dasharray:6.4,1.6,1,1.6;stroke-dashoffset:0;stroke-opacity:0.3;"/>
     </g>
     <g id="line2d_22">
      <g>
       <use style="stroke:#000000;stroke-width:0.8;" x="587.076923" xlink:href="#m0e83fb146e" y="172.8"/>
      </g>
     </g>
     <g id="text_11">
      <!-- 2022-07 -->
      <g transform="translate(566.185517 187.398438)scale(0.1 -0.1)">
       <defs>
        <path d="M 8.203125 72.90625 
L 55.078125 72.90625 
L 55.078125 68.703125 
L 28.609375 0 
L 18.3125 0 
L 43.21875 64.59375 
L 8.203125 64.59375 
z
" id="DejaVuSans-55"/>
       </defs>
       <use xlink:href="#DejaVuSans-50"/>
       <use x="63.623047" xlink:href="#DejaVuSans-48"/>
       <use x="127.246094" xlink:href="#DejaVuSans-50"/>
       <use x="190.869141" xlink:href="#DejaVuSans-50"/>
       <use x="254.492188" xlink:href="#DejaVuSans-45"/>
       <use x="290.576172" xlink:href="#DejaVuSans-48"/>
       <use x="354.199219" xlink:href="#DejaVuSans-55"/>
      </g>
     </g>
    </g>
    <g id="xtick_12">
     <g id="line2d_23">
      <path clip-path="url(#p277f0d27ff)" d="M 637.358242 172.8 
L 637.358242 25.92 
" style="fill:none;stroke:#808080;stroke-dasharray:6.4,1.6,1,1.6;stroke-dashoffset:0;stroke-opacity:0.3;"/>
     </g>
     <g id="line2d_24">
      <g>
       <use style="stroke:#000000;stroke-width:0.8;" x="637.358242" xlink:href="#m0e83fb146e" y="172.8"/>
      </g>
     </g>
     <g id="text_12">
      <!-- 2022-08 -->
      <g transform="translate(616.466836 187.398438)scale(0.1 -0.1)">
       <defs>
        <path d="M 31.78125 34.625 
Q 24.75 34.625 20.71875 30.859375 
Q 16.703125 27.09375 16.703125 20.515625 
Q 16.703125 13.921875 20.71875 10.15625 
Q 24.75 6.390625 31.78125 6.390625 
Q 38.8125 6.390625 42.859375 10.171875 
Q 46.921875 13.96875 46.921875 20.515625 
Q 46.921875 27.09375 42.890625 30.859375 
Q 38.875 34.625 31.78125 34.625 
z
M 21.921875 38.8125 
Q 15.578125 40.375 12.03125 44.71875 
Q 8.5 49.078125 8.5 55.328125 
Q 8.5 64.0625 14.71875 69.140625 
Q 20.953125 74.21875 31.78125 74.21875 
Q 42.671875 74.21875 48.875 69.140625 
Q 55.078125 64.0625 55.078125 55.328125 
Q 55.078125 49.078125 51.53125 44.71875 
Q 48 40.375 41.703125 38.8125 
Q 48.828125 37.15625 52.796875 32.3125 
Q 56.78125 27.484375 56.78125 20.515625 
Q 56.78125 9.90625 50.3125 4.234375 
Q 43.84375 -1.421875 31.78125 -1.421875 
Q 19.734375 -1.421875 13.25 4.234375 
Q 6.78125 9.90625 6.78125 20.515625 
Q 6.78125 27.484375 10.78125 32.3125 
Q 14.796875 37.15625 21.921875 38.8125 
z
M 18.3125 54.390625 
Q 18.3125 48.734375 21.84375 45.5625 
Q 25.390625 42.390625 31.78125 42.390625 
Q 38.140625 42.390625 41.71875 45.5625 
Q 45.3125 48.734375 45.3125 54.390625 
Q 45.3125 60.0625 41.71875 63.234375 
Q 38.140625 66.40625 31.78125 66.40625 
Q 25.390625 66.40625 21.84375 63.234375 
Q 18.3125 60.0625 18.3125 54.390625 
z
" id="DejaVuSans-56"/>
       </defs>
       <use xlink:href="#DejaVuSans-50"/>
       <use x="63.623047" xlink:href="#DejaVuSans-48"/>
       <use x="127.246094" xlink:href="#DejaVuSans-50"/>
       <use x="190.869141" xlink:href="#DejaVuSans-50"/>
       <use x="254.492188" xlink:href="#DejaVuSans-45"/>
       <use x="290.576172" xlink:href="#DejaVuSans-48"/>
       <use x="354.199219" xlink:href="#DejaVuSans-56"/>
      </g>
     </g>
    </g>
    <g id="text_13">
     <!-- Datum -->
     <g transform="translate(343.086719 201.076562)scale(0.1 -0.1)">
      <defs>
       <path d="M 19.671875 64.796875 
L 19.671875 8.109375 
L 31.59375 8.109375 
Q 46.6875 8.109375 53.6875 14.9375 
Q 60.6875 21.78125 60.6875 36.53125 
Q 60.6875 51.171875 53.6875 57.984375 
Q 46.6875 64.796875 31.59375 64.796875 
z
M 9.8125 72.90625 
L 30.078125 72.90625 
Q 51.265625 72.90625 61.171875 64.09375 
Q 71.09375 55.28125 71.09375 36.53125 
Q 71.09375 17.671875 61.125 8.828125 
Q 51.171875 0 30.078125 0 
L 9.8125 0 
z
" id="DejaVuSans-68"/>
       <path d="M 34.28125 27.484375 
Q 23.390625 27.484375 19.1875 25 
Q 14.984375 22.515625 14.984375 16.5 
Q 14.984375 11.71875 18.140625 8.90625 
Q 21.296875 6.109375 26.703125 6.109375 
Q 34.1875 6.109375 38.703125 11.40625 
Q 43.21875 16.703125 43.21875 25.484375 
L 43.21875 27.484375 
z
M 52.203125 31.203125 
L 52.203125 0 
L 43.21875 0 
L 43.21875 8.296875 
Q 40.140625 3.328125 35.546875 0.953125 
Q 30.953125 -1.421875 24.3125 -1.421875 
Q 15.921875 -1.421875 10.953125 3.296875 
Q 6 8.015625 6 15.921875 
Q 6 25.140625 12.171875 29.828125 
Q 18.359375 34.515625 30.609375 34.515625 
L 43.21875 34.515625 
L 43.21875 35.40625 
Q 43.21875 41.609375 39.140625 45 
Q 35.0625 48.390625 27.6875 48.390625 
Q 23 48.390625 18.546875 47.265625 
Q 14.109375 46.140625 10.015625 43.890625 
L 10.015625 52.203125 
Q 14.9375 54.109375 19.578125 55.046875 
Q 24.21875 56 28.609375 56 
Q 40.484375 56 46.34375 49.84375 
Q 52.203125 43.703125 52.203125 31.203125 
z
" id="DejaVuSans-97"/>
       <path d="M 18.3125 70.21875 
L 18.3125 54.6875 
L 36.8125 54.6875 
L 36.8125 47.703125 
L 18.3125 47.703125 
L 18.3125 18.015625 
Q 18.3125 11.328125 20.140625 9.421875 
Q 21.96875 7.515625 27.59375 7.515625 
L 36.8125 7.515625 
L 36.8125 0 
L 27.59375 0 
Q 17.1875 0 13.234375 3.875 
Q 9.28125 7.765625 9.28125 18.015625 
L 9.28125 47.703125 
L 2.6875 47.703125 
L 2.6875 54.6875 
L 9.28125 54.6875 
L 9.28125 70.21875 
z
" id="DejaVuSans-116"/>
       <path d="M 8.5 21.578125 
L 8.5 54.6875 
L 17.484375 54.6875 
L 17.484375 21.921875 
Q 17.484375 14.15625 20.5 10.265625 
Q 23.53125 6.390625 29.59375 6.390625 
Q 36.859375 6.390625 41.078125 11.03125 
Q 45.3125 15.671875 45.3125 23.6875 
L 45.3125 54.6875 
L 54.296875 54.6875 
L 54.296875 0 
L 45.3125 0 
L 45.3125 8.40625 
Q 42.046875 3.421875 37.71875 1 
Q 33.40625 -1.421875 27.6875 -1.421875 
Q 18.265625 -1.421875 13.375 4.4375 
Q 8.5 10.296875 8.5 21.578125 
z
M 31.109375 56 
z
" id="DejaVuSans-117"/>
       <path d="M 52 44.1875 
Q 55.375 50.25 60.0625 53.125 
Q 64.75 56 71.09375 56 
Q 79.640625 56 84.28125 50.015625 
Q 88.921875 44.046875 88.921875 33.015625 
L 88.921875 0 
L 79.890625 0 
L 79.890625 32.71875 
Q 79.890625 40.578125 77.09375 44.375 
Q 74.3125 48.1875 68.609375 48.1875 
Q 61.625 48.1875 57.5625 43.546875 
Q 53.515625 38.921875 53.515625 30.90625 
L 53.515625 0 
L 44.484375 0 
L 44.484375 32.71875 
Q 44.484375 40.625 41.703125 44.40625 
Q 38.921875 48.1875 33.109375 48.1875 
Q 26.21875 48.1875 22.15625 43.53125 
Q 18.109375 38.875 18.109375 30.90625 
L 18.109375 0 
L 9.078125 0 
L 9.078125 54.6875 
L 18.109375 54.6875 
L 18.109375 46.1875 
Q 21.1875 51.21875 25.484375 53.609375 
Q 29.78125 56 35.6875 56 
Q 41.65625 56 45.828125 52.96875 
Q 50 49.953125 52 44.1875 
z
" id="DejaVuSans-109"/>
      </defs>
      <use xlink:href="#DejaVuSans-68"/>
      <use x="77.001953" xlink:href="#DejaVuSans-97"/>
      <use x="138.28125" xlink:href="#DejaVuSans-116"/>
      <use x="177.490234" xlink:href="#DejaVuSans-117"/>
      <use x="240.869141" xlink:href="#DejaVuSans-109"/>
     </g>
    </g>
   </g>
   <g id="matplotlib.axis_2">
    <g id="ytick_1">
     <g id="line2d_25">
      <path clip-path="url(#p277f0d27ff)" d="M 64.8 172.8 
L 655.2 172.8 
" style="fill:none;stroke:#808080;stroke-dasharray:6.4,1.6,1,1.6;stroke-dashoffset:0;stroke-opacity:0.3;"/>
     </g>
     <g id="line2d_26">
      <defs>
       <path d="M 0 0 
L -3.5 0 
" id="m3cc0b986b0" style="stroke:#000000;stroke-width:0.8;"/>
      </defs>
      <g>
       <use style="stroke:#000000;stroke-width:0.8;" x="64.8" xlink:href="#m3cc0b986b0" y="172.8"/>
      </g>
     </g>
     <g id="text_14">
      <!-- 0.0 -->
      <g transform="translate(41.896875 176.599219)scale(0.1 -0.1)">
       <defs>
        <path d="M 10.6875 12.40625 
L 21 12.40625 
L 21 0 
L 10.6875 0 
z
" id="DejaVuSans-46"/>
       </defs>
       <use xlink:href="#DejaVuSans-48"/>
       <use x="63.623047" xlink:href="#DejaVuSans-46"/>
       <use x="95.410156" xlink:href="#DejaVuSans-48"/>
      </g>
     </g>
    </g>
    <g id="ytick_2">
     <g id="line2d_27">
      <path clip-path="url(#p277f0d27ff)" d="M 64.8 148.32 
L 655.2 148.32 
" style="fill:none;stroke:#808080;stroke-dasharray:6.4,1.6,1,1.6;stroke-dashoffset:0;stroke-opacity:0.3;"/>
     </g>
     <g id="line2d_28">
      <g>
       <use style="stroke:#000000;stroke-width:0.8;" x="64.8" xlink:href="#m3cc0b986b0" y="148.32"/>
      </g>
     </g>
     <g id="text_15">
      <!-- 0.5 -->
      <g transform="translate(41.896875 152.119219)scale(0.1 -0.1)">
       <use xlink:href="#DejaVuSans-48"/>
       <use x="63.623047" xlink:href="#DejaVuSans-46"/>
       <use x="95.410156" xlink:href="#DejaVuSans-53"/>
      </g>
     </g>
    </g>
    <g id="ytick_3">
     <g id="line2d_29">
      <path clip-path="url(#p277f0d27ff)" d="M 64.8 123.84 
L 655.2 123.84 
" style="fill:none;stroke:#808080;stroke-dasharray:6.4,1.6,1,1.6;stroke-dashoffset:0;stroke-opacity:0.3;"/>
     </g>
     <g id="line2d_30">
      <g>
       <use style="stroke:#000000;stroke-width:0.8;" x="64.8" xlink:href="#m3cc0b986b0" y="123.84"/>
      </g>
     </g>
     <g id="text_16">
      <!-- 1.0 -->
      <g transform="translate(41.896875 127.639219)scale(0.1 -0.1)">
       <use xlink:href="#DejaVuSans-49"/>
       <use x="63.623047" xlink:href="#DejaVuSans-46"/>
       <use x="95.410156" xlink:href="#DejaVuSans-48"/>
      </g>
     </g>
    </g>
    <g id="ytick_4">
     <g id="line2d_31">
      <path clip-path="url(#p277f0d27ff)" d="M 64.8 99.36 
L 655.2 99.36 
" style="fill:none;stroke:#808080;stroke-dasharray:6.4,1.6,1,1.6;stroke-dashoffset:0;stroke-opacity:0.3;"/>
     </g>
     <g id="line2d_32">
      <g>
       <use style="stroke:#000000;stroke-width:0.8;" x="64.8" xlink:href="#m3cc0b986b0" y="99.36"/>
      </g>
     </g>
     <g id="text_17">
      <!-- 1.5 -->
      <g transform="translate(41.896875 103.159219)scale(0.1 -0.1)">
       <use xlink:href="#DejaVuSans-49"/>
       <use x="63.623047" xlink:href="#DejaVuSans-46"/>
       <use x="95.410156" xlink:href="#DejaVuSans-53"/>
      </g>
     </g>
    </g>
    <g id="ytick_5">
     <g id="line2d_33">
      <path clip-path="url(#p277f0d27ff)" d="M 64.8 74.88 
L 655.2 74.88 
" style="fill:none;stroke:#808080;stroke-dasharray:6.4,1.6,1,1.6;stroke-dashoffset:0;stroke-opacity:0.3;"/>
     </g>
     <g id="line2d_34">
      <g>
       <use style="stroke:#000000;stroke-width:0.8;" x="64.8" xlink:href="#m3cc0b986b0" y="74.88"/>
      </g>
     </g>
     <g id="text_18">
      <!-- 2.0 -->
      <g transform="translate(41.896875 78.679219)scale(0.1 -0.1)">
       <use xlink:href="#DejaVuSans-50"/>
       <use x="63.623047" xlink:href="#DejaVuSans-46"/>
       <use x="95.410156" xlink:href="#DejaVuSans-48"/>
      </g>
     </g>
    </g>
    <g id="ytick_6">
     <g id="line2d_35">
      <path clip-path="url(#p277f0d27ff)" d="M 64.8 50.4 
L 655.2 50.4 
" style="fill:none;stroke:#808080;stroke-dasharray:6.4,1.6,1,1.6;stroke-dashoffset:0;stroke-opacity:0.3;"/>
     </g>
     <g id="line2d_36">
      <g>
       <use style="stroke:#000000;stroke-width:0.8;" x="64.8" xlink:href="#m3cc0b986b0" y="50.4"/>
      </g>
     </g>
     <g id="text_19">
      <!-- 2.5 -->
      <g transform="translate(41.896875 54.199219)scale(0.1 -0.1)">
       <use xlink:href="#DejaVuSans-50"/>
       <use x="63.623047" xlink:href="#DejaVuSans-46"/>
       <use x="95.410156" xlink:href="#DejaVuSans-53"/>
      </g>
     </g>
    </g>
    <g id="ytick_7">
     <g id="line2d_37">
      <path clip-path="url(#p277f0d27ff)" d="M 64.8 25.92 
L 655.2 25.92 
" style="fill:none;stroke:#808080;stroke-dasharray:6.4,1.6,1,1.6;stroke-dashoffset:0;stroke-opacity:0.3;"/>
     </g>
     <g id="line2d_38">
      <g>
       <use style="stroke:#000000;stroke-width:0.8;" x="64.8" xlink:href="#m3cc0b986b0" y="25.92"/>
      </g>
     </g>
     <g id="text_20">
      <!-- 3.0 -->
      <g transform="translate(41.896875 29.719219)scale(0.1 -0.1)">
       <use xlink:href="#DejaVuSans-51"/>
       <use x="63.623047" xlink:href="#DejaVuSans-46"/>
       <use x="95.410156" xlink:href="#DejaVuSans-48"/>
      </g>
     </g>
    </g>
    <g id="text_21">
     <!-- Reproductiegetal -->
     <g transform="translate(35.817187 142.044375)rotate(-90)scale(0.1 -0.1)">
      <defs>
       <path d="M 44.390625 34.1875 
Q 47.5625 33.109375 50.5625 29.59375 
Q 53.5625 26.078125 56.59375 19.921875 
L 66.609375 0 
L 56 0 
L 46.6875 18.703125 
Q 43.0625 26.03125 39.671875 28.421875 
Q 36.28125 30.8125 30.421875 30.8125 
L 19.671875 30.8125 
L 19.671875 0 
L 9.8125 0 
L 9.8125 72.90625 
L 32.078125 72.90625 
Q 44.578125 72.90625 50.734375 67.671875 
Q 56.890625 62.453125 56.890625 51.90625 
Q 56.890625 45.015625 53.6875 40.46875 
Q 50.484375 35.9375 44.390625 34.1875 
z
M 19.671875 64.796875 
L 19.671875 38.921875 
L 32.078125 38.921875 
Q 39.203125 38.921875 42.84375 42.21875 
Q 46.484375 45.515625 46.484375 51.90625 
Q 46.484375 58.296875 42.84375 61.546875 
Q 39.203125 64.796875 32.078125 64.796875 
z
" id="DejaVuSans-82"/>
       <path d="M 56.203125 29.59375 
L 56.203125 25.203125 
L 14.890625 25.203125 
Q 15.484375 15.921875 20.484375 11.0625 
Q 25.484375 6.203125 34.421875 6.203125 
Q 39.59375 6.203125 44.453125 7.46875 
Q 49.3125 8.734375 54.109375 11.28125 
L 54.109375 2.78125 
Q 49.265625 0.734375 44.1875 -0.34375 
Q 39.109375 -1.421875 33.890625 -1.421875 
Q 20.796875 -1.421875 13.15625 6.1875 
Q 5.515625 13.8125 5.515625 26.8125 
Q 5.515625 40.234375 12.765625 48.109375 
Q 20.015625 56 32.328125 56 
Q 43.359375 56 49.78125 48.890625 
Q 56.203125 41.796875 56.203125 29.59375 
z
M 47.21875 32.234375 
Q 47.125 39.59375 43.09375 43.984375 
Q 39.0625 48.390625 32.421875 48.390625 
Q 24.90625 48.390625 20.390625 44.140625 
Q 15.875 39.890625 15.1875 32.171875 
z
" id="DejaVuSans-101"/>
       <path d="M 18.109375 8.203125 
L 18.109375 -20.796875 
L 9.078125 -20.796875 
L 9.078125 54.6875 
L 18.109375 54.6875 
L 18.109375 46.390625 
Q 20.953125 51.265625 25.265625 53.625 
Q 29.59375 56 35.59375 56 
Q 45.5625 56 51.78125 48.09375 
Q 58.015625 40.1875 58.015625 27.296875 
Q 58.015625 14.40625 51.78125 6.484375 
Q 45.5625 -1.421875 35.59375 -1.421875 
Q 29.59375 -1.421875 25.265625 0.953125 
Q 20.953125 3.328125 18.109375 8.203125 
z
M 48.6875 27.296875 
Q 48.6875 37.203125 44.609375 42.84375 
Q 40.53125 48.484375 33.40625 48.484375 
Q 26.265625 48.484375 22.1875 42.84375 
Q 18.109375 37.203125 18.109375 27.296875 
Q 18.109375 17.390625 22.1875 11.75 
Q 26.265625 6.109375 33.40625 6.109375 
Q 40.53125 6.109375 44.609375 11.75 
Q 48.6875 17.390625 48.6875 27.296875 
z
" id="DejaVuSans-112"/>
       <path d="M 41.109375 46.296875 
Q 39.59375 47.171875 37.8125 47.578125 
Q 36.03125 48 33.890625 48 
Q 26.265625 48 22.1875 43.046875 
Q 18.109375 38.09375 18.109375 28.8125 
L 18.109375 0 
L 9.078125 0 
L 9.078125 54.6875 
L 18.109375 54.6875 
L 18.109375 46.1875 
Q 20.953125 51.171875 25.484375 53.578125 
Q 30.03125 56 36.53125 56 
Q 37.453125 56 38.578125 55.875 
Q 39.703125 55.765625 41.0625 55.515625 
z
" id="DejaVuSans-114"/>
       <path d="M 30.609375 48.390625 
Q 23.390625 48.390625 19.1875 42.75 
Q 14.984375 37.109375 14.984375 27.296875 
Q 14.984375 17.484375 19.15625 11.84375 
Q 23.34375 6.203125 30.609375 6.203125 
Q 37.796875 6.203125 41.984375 11.859375 
Q 46.1875 17.53125 46.1875 27.296875 
Q 46.1875 37.015625 41.984375 42.703125 
Q 37.796875 48.390625 30.609375 48.390625 
z
M 30.609375 56 
Q 42.328125 56 49.015625 48.375 
Q 55.71875 40.765625 55.71875 27.296875 
Q 55.71875 13.875 49.015625 6.21875 
Q 42.328125 -1.421875 30.609375 -1.421875 
Q 18.84375 -1.421875 12.171875 6.21875 
Q 5.515625 13.875 5.515625 27.296875 
Q 5.515625 40.765625 12.171875 48.375 
Q 18.84375 56 30.609375 56 
z
" id="DejaVuSans-111"/>
       <path d="M 45.40625 46.390625 
L 45.40625 75.984375 
L 54.390625 75.984375 
L 54.390625 0 
L 45.40625 0 
L 45.40625 8.203125 
Q 42.578125 3.328125 38.25 0.953125 
Q 33.9375 -1.421875 27.875 -1.421875 
Q 17.96875 -1.421875 11.734375 6.484375 
Q 5.515625 14.40625 5.515625 27.296875 
Q 5.515625 40.1875 11.734375 48.09375 
Q 17.96875 56 27.875 56 
Q 33.9375 56 38.25 53.625 
Q 42.578125 51.265625 45.40625 46.390625 
z
M 14.796875 27.296875 
Q 14.796875 17.390625 18.875 11.75 
Q 22.953125 6.109375 30.078125 6.109375 
Q 37.203125 6.109375 41.296875 11.75 
Q 45.40625 17.390625 45.40625 27.296875 
Q 45.40625 37.203125 41.296875 42.84375 
Q 37.203125 48.484375 30.078125 48.484375 
Q 22.953125 48.484375 18.875 42.84375 
Q 14.796875 37.203125 14.796875 27.296875 
z
" id="DejaVuSans-100"/>
       <path d="M 48.78125 52.59375 
L 48.78125 44.1875 
Q 44.96875 46.296875 41.140625 47.34375 
Q 37.3125 48.390625 33.40625 48.390625 
Q 24.65625 48.390625 19.8125 42.84375 
Q 14.984375 37.3125 14.984375 27.296875 
Q 14.984375 17.28125 19.8125 11.734375 
Q 24.65625 6.203125 33.40625 6.203125 
Q 37.3125 6.203125 41.140625 7.25 
Q 44.96875 8.296875 48.78125 10.40625 
L 48.78125 2.09375 
Q 45.015625 0.34375 40.984375 -0.53125 
Q 36.96875 -1.421875 32.421875 -1.421875 
Q 20.0625 -1.421875 12.78125 6.34375 
Q 5.515625 14.109375 5.515625 27.296875 
Q 5.515625 40.671875 12.859375 48.328125 
Q 20.21875 56 33.015625 56 
Q 37.15625 56 41.109375 55.140625 
Q 45.0625 54.296875 48.78125 52.59375 
z
" id="DejaVuSans-99"/>
       <path d="M 9.421875 54.6875 
L 18.40625 54.6875 
L 18.40625 0 
L 9.421875 0 
z
M 9.421875 75.984375 
L 18.40625 75.984375 
L 18.40625 64.59375 
L 9.421875 64.59375 
z
" id="DejaVuSans-105"/>
       <path d="M 45.40625 27.984375 
Q 45.40625 37.75 41.375 43.109375 
Q 37.359375 48.484375 30.078125 48.484375 
Q 22.859375 48.484375 18.828125 43.109375 
Q 14.796875 37.75 14.796875 27.984375 
Q 14.796875 18.265625 18.828125 12.890625 
Q 22.859375 7.515625 30.078125 7.515625 
Q 37.359375 7.515625 41.375 12.890625 
Q 45.40625 18.265625 45.40625 27.984375 
z
M 54.390625 6.78125 
Q 54.390625 -7.171875 48.1875 -13.984375 
Q 42 -20.796875 29.203125 -20.796875 
Q 24.46875 -20.796875 20.265625 -20.09375 
Q 16.0625 -19.390625 12.109375 -17.921875 
L 12.109375 -9.1875 
Q 16.0625 -11.328125 19.921875 -12.34375 
Q 23.78125 -13.375 27.78125 -13.375 
Q 36.625 -13.375 41.015625 -8.765625 
Q 45.40625 -4.15625 45.40625 5.171875 
L 45.40625 9.625 
Q 42.625 4.78125 38.28125 2.390625 
Q 33.9375 0 27.875 0 
Q 17.828125 0 11.671875 7.65625 
Q 5.515625 15.328125 5.515625 27.984375 
Q 5.515625 40.671875 11.671875 48.328125 
Q 17.828125 56 27.875 56 
Q 33.9375 56 38.28125 53.609375 
Q 42.625 51.21875 45.40625 46.390625 
L 45.40625 54.6875 
L 54.390625 54.6875 
z
" id="DejaVuSans-103"/>
       <path d="M 9.421875 75.984375 
L 18.40625 75.984375 
L 18.40625 0 
L 9.421875 0 
z
" id="DejaVuSans-108"/>
      </defs>
      <use xlink:href="#DejaVuSans-82"/>
      <use x="64.982422" xlink:href="#DejaVuSans-101"/>
      <use x="126.505859" xlink:href="#DejaVuSans-112"/>
      <use x="189.982422" xlink:href="#DejaVuSans-114"/>
      <use x="228.845703" xlink:href="#DejaVuSans-111"/>
      <use x="290.027344" xlink:href="#DejaVuSans-100"/>
      <use x="353.503906" xlink:href="#DejaVuSans-117"/>
      <use x="416.882812" xlink:href="#DejaVuSans-99"/>
      <use x="471.863281" xlink:href="#DejaVuSans-116"/>
      <use x="511.072266" xlink:href="#DejaVuSans-105"/>
      <use x="538.855469" xlink:href="#DejaVuSans-101"/>
      <use x="600.378906" xlink:href="#DejaVuSans-103"/>
      <use x="663.855469" xlink:href="#DejaVuSans-101"/>
      <use x="725.378906" xlink:href="#DejaVuSans-116"/>
      <use x="764.587891" xlink:href="#DejaVuSans-97"/>
      <use x="825.867188" xlink:href="#DejaVuSans-108"/>
     </g>
    </g>
   </g>
   <g id="line2d_39">
    <path clip-path="url(#p277f0d27ff)" d="M 64.8 122.3712 
L 66.421978 122.3712 
L 71.287912 123.84 
L 72.90989 123.3504 
L 74.531868 123.3504 
L 76.153846 122.8608 
L 77.775824 123.3504 
L 81.01978 125.3088 
L 82.641758 125.3088 
L 84.263736 124.8192 
L 85.885714 123.3504 
L 87.507692 122.3712 
L 89.12967 121.8816 
L 90.751648 122.8608 
L 92.373626 124.8192 
L 93.995604 125.7984 
L 97.23956 125.7984 
L 98.861538 125.3088 
L 100.483516 125.7984 
L 103.727473 128.736 
L 105.349451 129.2256 
L 106.971429 129.2256 
L 108.593407 128.736 
L 110.215385 127.7568 
L 111.837363 127.2672 
L 113.459341 127.7568 
L 116.703297 129.7152 
L 118.325275 129.2256 
L 121.569231 126.288 
L 123.191209 125.3088 
L 124.813187 125.3088 
L 126.435165 125.7984 
L 128.057143 125.3088 
L 129.679121 124.3296 
L 132.923077 120.4128 
L 134.545055 118.944 
L 136.167033 117.9648 
L 137.789011 117.4752 
L 139.410989 116.0064 
L 141.032967 113.5584 
L 142.654945 111.6 
L 144.276923 110.1312 
L 145.898901 110.1312 
L 149.142857 114.048 
L 150.764835 114.048 
L 152.386813 113.0688 
L 154.008791 111.6 
L 155.630769 110.6208 
L 157.252747 111.1104 
L 160.496703 114.048 
L 162.118681 114.5376 
L 163.740659 113.0688 
L 165.362637 110.6208 
L 166.984615 108.6624 
L 168.606593 108.1728 
L 170.228571 110.6208 
L 171.850549 113.5584 
L 173.472527 116.0064 
L 175.094505 116.0064 
L 176.716484 115.0272 
L 178.338462 113.5584 
L 179.96044 112.5792 
L 181.582418 113.5584 
L 183.204396 115.0272 
L 184.826374 115.5168 
L 186.448352 115.0272 
L 188.07033 113.0688 
L 189.692308 111.6 
L 191.314286 111.1104 
L 192.936264 111.6 
L 194.558242 112.5792 
L 196.18022 113.0688 
L 199.424176 110.1312 
L 201.046154 109.6416 
L 202.668132 110.1312 
L 204.29011 111.6 
L 205.912088 113.5584 
L 207.534066 114.5376 
L 209.156044 115.0272 
L 210.778022 115.0272 
L 212.4 115.5168 
L 214.021978 116.9856 
L 215.643956 119.4336 
L 217.265934 121.392 
L 218.887912 122.8608 
L 220.50989 123.84 
L 228.61978 126.288 
L 231.863736 126.288 
L 235.107692 125.3088 
L 236.72967 125.7984 
L 238.351648 126.7776 
L 239.973626 128.2464 
L 243.217582 129.2256 
L 244.83956 129.2256 
L 246.461538 128.736 
L 248.083516 128.736 
L 249.705495 129.7152 
L 252.949451 130.6944 
L 254.571429 130.2048 
L 256.193407 128.736 
L 257.815385 127.7568 
L 259.437363 127.2672 
L 262.681319 129.2256 
L 264.303297 129.2256 
L 265.925275 128.2464 
L 270.791209 123.84 
L 272.413187 123.84 
L 274.035165 123.3504 
L 275.657143 122.3712 
L 277.279121 119.9232 
L 278.901099 116.9856 
L 280.523077 113.5584 
L 282.145055 111.6 
L 283.767033 111.6 
L 285.389011 112.5792 
L 287.010989 112.0896 
L 290.254945 106.2144 
L 291.876923 105.2352 
L 293.498901 107.6832 
L 295.120879 113.5584 
L 296.742857 117.9648 
L 298.364835 119.4336 
L 299.986813 118.944 
L 303.230769 116.0064 
L 304.852747 115.0272 
L 308.096703 114.048 
L 309.718681 112.0896 
L 312.962637 109.152 
L 314.584615 108.6624 
L 316.206593 109.6416 
L 321.072527 115.5168 
L 322.694505 116.496 
L 325.938462 116.496 
L 327.56044 116.9856 
L 329.182418 118.4544 
L 330.804396 119.4336 
L 332.426374 120.9024 
L 334.048352 121.8816 
L 338.914286 123.3504 
L 340.536264 124.3296 
L 343.78022 127.2672 
L 345.402198 128.2464 
L 347.024176 128.736 
L 348.646154 128.736 
L 350.268132 129.2256 
L 353.512088 132.1632 
L 355.134066 133.1424 
L 356.756044 133.632 
L 358.378022 133.632 
L 360 132.6528 
L 364.865934 134.1216 
L 366.487912 133.1424 
L 368.10989 131.184 
L 371.353846 126.288 
L 372.975824 124.8192 
L 376.21978 122.8608 
L 377.841758 119.9232 
L 379.463736 115.5168 
L 381.085714 110.6208 
L 382.707692 106.704 
L 384.32967 105.2352 
L 385.951648 107.6832 
L 387.573626 112.0896 
L 389.195604 116.0064 
L 390.817582 119.4336 
L 392.43956 121.8816 
L 395.683516 125.7984 
L 397.305495 128.2464 
L 398.927473 130.2048 
L 400.549451 131.184 
L 402.171429 131.184 
L 403.793407 130.6944 
L 407.037363 130.6944 
L 410.281319 132.6528 
L 411.903297 132.6528 
L 415.147253 130.6944 
L 416.769231 130.2048 
L 418.391209 130.6944 
L 420.013187 132.1632 
L 421.635165 134.1216 
L 423.257143 134.6112 
L 424.879121 134.6112 
L 426.501099 133.632 
L 428.123077 133.632 
L 429.745055 134.6112 
L 431.367033 137.0592 
L 432.989011 139.0176 
L 434.610989 139.9968 
L 436.232967 139.5072 
L 439.476923 136.5696 
L 441.098901 136.5696 
L 442.720879 137.5488 
L 445.964835 141.4656 
L 447.586813 142.4448 
L 449.208791 142.9344 
L 455.696703 140.976 
L 458.940659 138.0384 
L 460.562637 135.5904 
L 462.184615 133.632 
L 463.806593 133.632 
L 465.428571 135.1008 
L 467.050549 137.0592 
L 468.672527 137.5488 
L 470.294505 136.5696 
L 471.916484 134.1216 
L 473.538462 131.184 
L 475.16044 129.2256 
L 476.782418 127.7568 
L 480.026374 123.84 
L 481.648352 122.3712 
L 483.27033 122.3712 
L 484.892308 123.3504 
L 486.514286 124.8192 
L 488.136264 127.2672 
L 489.758242 129.2256 
L 491.38022 129.2256 
L 493.002198 128.736 
L 494.624176 127.7568 
L 496.246154 127.2672 
L 497.868132 127.7568 
L 499.49011 129.2256 
L 501.112088 129.7152 
L 502.734066 129.2256 
L 504.356044 127.2672 
L 505.978022 124.8192 
L 507.6 123.3504 
L 509.221978 123.84 
L 510.843956 126.7776 
L 512.465934 129.2256 
L 514.087912 129.7152 
L 515.70989 127.7568 
L 518.953846 121.8816 
L 520.575824 120.9024 
L 522.197802 120.9024 
L 523.81978 119.9232 
L 525.441758 117.9648 
L 527.063736 115.5168 
L 528.685714 113.5584 
L 530.307692 112.5792 
L 531.92967 113.0688 
L 535.173626 116.9856 
L 536.795604 116.496 
L 538.417582 114.5376 
L 540.03956 111.6 
L 541.661538 109.152 
L 543.283516 108.1728 
L 544.905495 109.152 
L 546.527473 111.1104 
L 548.149451 112.0896 
L 549.771429 110.6208 
L 551.393407 108.6624 
L 553.015385 107.1936 
L 554.637363 108.1728 
L 556.259341 111.6 
L 557.881319 115.5168 
L 559.503297 117.4752 
L 561.125275 116.9856 
L 562.747253 116.0064 
L 564.369231 115.5168 
L 565.991209 116.0064 
L 567.613187 118.4544 
L 569.235165 120.4128 
L 570.857143 121.392 
L 572.479121 120.4128 
L 574.101099 118.944 
L 575.723077 118.4544 
L 577.345055 118.944 
L 578.967033 121.392 
L 580.589011 123.3504 
L 582.210989 123.84 
L 583.832967 122.3712 
L 585.454945 120.4128 
L 587.076923 118.944 
L 588.698901 119.9232 
L 590.320879 121.8816 
L 591.942857 124.3296 
L 593.564835 125.3088 
L 595.186813 125.3088 
L 596.808791 124.3296 
L 598.430769 124.8192 
L 600.052747 126.288 
L 601.674725 129.2256 
L 603.296703 131.6736 
L 604.918681 133.1424 
L 606.540659 133.1424 
L 608.162637 131.6736 
L 609.784615 129.7152 
L 611.406593 128.736 
L 616.272527 130.2048 
L 617.894505 129.7152 
L 619.516484 128.736 
L 619.516484 128.736 
" style="fill:none;stroke:#000000;stroke-linecap:square;stroke-width:1.5;"/>
   </g>
   <g id="line2d_40">
    <path clip-path="url(#p277f0d27ff)" d="M 64.8 120.4128 
L 66.421978 119.9232 
L 68.043956 120.9024 
L 71.287912 121.8816 
L 72.90989 121.392 
L 74.531868 121.392 
L 76.153846 120.9024 
L 77.775824 121.392 
L 81.01978 123.3504 
L 82.641758 123.3504 
L 84.263736 122.8608 
L 85.885714 121.392 
L 87.507692 120.4128 
L 89.12967 119.9232 
L 90.751648 120.9024 
L 92.373626 122.8608 
L 93.995604 123.84 
L 97.23956 123.84 
L 98.861538 123.3504 
L 100.483516 123.84 
L 103.727473 126.7776 
L 105.349451 127.7568 
L 106.971429 127.7568 
L 110.215385 125.7984 
L 111.837363 125.3088 
L 113.459341 125.7984 
L 116.703297 127.7568 
L 118.325275 127.2672 
L 119.947253 125.3088 
L 121.569231 123.84 
L 123.191209 123.3504 
L 124.813187 123.3504 
L 126.435165 123.84 
L 128.057143 123.3504 
L 129.679121 122.3712 
L 131.301099 120.4128 
L 132.923077 117.9648 
L 134.545055 116.496 
L 136.167033 115.5168 
L 137.789011 115.5168 
L 139.410989 114.048 
L 141.032967 111.6 
L 142.654945 108.6624 
L 144.276923 107.6832 
L 145.898901 107.6832 
L 147.520879 109.6416 
L 149.142857 112.0896 
L 150.764835 112.5792 
L 154.008791 109.6416 
L 155.630769 108.6624 
L 157.252747 109.152 
L 158.874725 110.6208 
L 160.496703 112.5792 
L 162.118681 112.5792 
L 163.740659 111.1104 
L 166.984615 107.1936 
L 168.606593 106.704 
L 170.228571 108.6624 
L 171.850549 112.0896 
L 173.472527 114.5376 
L 175.094505 115.0272 
L 178.338462 112.0896 
L 179.96044 111.6 
L 181.582418 112.0896 
L 183.204396 113.5584 
L 184.826374 114.5376 
L 186.448352 113.5584 
L 189.692308 110.6208 
L 191.314286 109.6416 
L 194.558242 111.6 
L 196.18022 112.0896 
L 199.424176 109.152 
L 201.046154 108.6624 
L 202.668132 109.152 
L 204.29011 110.6208 
L 205.912088 112.5792 
L 207.534066 114.048 
L 209.156044 114.5376 
L 210.778022 114.5376 
L 212.4 115.0272 
L 214.021978 116.496 
L 215.643956 118.4544 
L 217.265934 120.9024 
L 218.887912 122.3712 
L 220.50989 123.3504 
L 223.753846 124.3296 
L 225.375824 124.3296 
L 226.997802 125.3088 
L 228.61978 125.7984 
L 230.241758 125.7984 
L 233.485714 124.8192 
L 236.72967 124.8192 
L 238.351648 126.288 
L 241.595604 128.2464 
L 248.083516 128.2464 
L 249.705495 128.736 
L 251.327473 129.7152 
L 252.949451 129.7152 
L 254.571429 129.2256 
L 256.193407 128.2464 
L 257.815385 126.7776 
L 259.437363 126.288 
L 262.681319 128.2464 
L 264.303297 128.2464 
L 265.925275 127.2672 
L 267.547253 125.7984 
L 269.169231 123.84 
L 270.791209 122.8608 
L 272.413187 122.3712 
L 274.035165 122.3712 
L 275.657143 120.9024 
L 277.279121 118.4544 
L 278.901099 115.5168 
L 280.523077 112.0896 
L 282.145055 110.1312 
L 283.767033 110.1312 
L 285.389011 111.6 
L 287.010989 110.6208 
L 288.632967 108.1728 
L 290.254945 104.7456 
L 291.876923 103.7664 
L 293.498901 106.704 
L 295.120879 112.5792 
L 296.742857 117.4752 
L 298.364835 118.944 
L 299.986813 118.4544 
L 304.852747 114.048 
L 306.474725 114.048 
L 308.096703 113.0688 
L 309.718681 111.6 
L 311.340659 109.6416 
L 312.962637 108.6624 
L 314.584615 108.1728 
L 316.206593 109.152 
L 321.072527 115.0272 
L 322.694505 116.0064 
L 324.316484 116.0064 
L 327.56044 116.9856 
L 330.804396 118.944 
L 332.426374 120.4128 
L 334.048352 121.392 
L 338.914286 122.8608 
L 340.536264 123.84 
L 343.78022 126.7776 
L 345.402198 127.7568 
L 350.268132 129.2256 
L 351.89011 130.2048 
L 353.512088 131.6736 
L 355.134066 132.6528 
L 356.756044 133.1424 
L 358.378022 133.1424 
L 360 132.1632 
L 364.865934 133.632 
L 366.487912 132.6528 
L 368.10989 130.6944 
L 369.731868 127.7568 
L 371.353846 125.3088 
L 372.975824 123.84 
L 374.597802 123.3504 
L 376.21978 121.8816 
L 377.841758 119.4336 
L 379.463736 115.0272 
L 381.085714 109.6416 
L 382.707692 105.7248 
L 384.32967 104.7456 
L 385.951648 106.704 
L 389.195604 115.5168 
L 390.817582 118.944 
L 392.43956 121.392 
L 395.683516 125.3088 
L 397.305495 127.7568 
L 398.927473 129.7152 
L 400.549451 130.6944 
L 402.171429 130.6944 
L 405.415385 129.7152 
L 407.037363 130.2048 
L 410.281319 132.1632 
L 411.903297 132.1632 
L 415.147253 130.2048 
L 416.769231 129.7152 
L 418.391209 130.2048 
L 420.013187 131.6736 
L 421.635165 133.632 
L 423.257143 134.1216 
L 426.501099 133.1424 
L 428.123077 133.1424 
L 429.745055 134.1216 
L 431.367033 136.5696 
L 432.989011 138.528 
L 434.610989 139.5072 
L 436.232967 139.0176 
L 437.854945 137.5488 
L 439.476923 135.5904 
L 441.098901 135.5904 
L 442.720879 136.5696 
L 444.342857 139.0176 
L 445.964835 140.4864 
L 447.586813 141.4656 
L 449.208791 141.9552 
L 450.830769 141.4656 
L 452.452747 140.4864 
L 455.696703 139.5072 
L 457.318681 138.0384 
L 458.940659 136.08 
L 460.562637 133.632 
L 462.184615 131.6736 
L 463.806593 131.6736 
L 465.428571 133.1424 
L 467.050549 135.1008 
L 468.672527 135.5904 
L 470.294505 134.1216 
L 471.916484 131.184 
L 475.16044 126.288 
L 476.782418 124.8192 
L 478.404396 122.8608 
L 480.026374 120.4128 
L 481.648352 118.944 
L 483.27033 118.944 
L 484.892308 119.9232 
L 489.758242 125.7984 
L 491.38022 126.288 
L 493.002198 125.3088 
L 494.624176 123.84 
L 496.246154 123.3504 
L 497.868132 123.84 
L 499.49011 125.3088 
L 501.112088 126.288 
L 502.734066 125.3088 
L 505.978022 120.4128 
L 507.6 118.4544 
L 509.221978 118.944 
L 512.465934 124.8192 
L 514.087912 125.3088 
L 515.70989 122.8608 
L 517.331868 119.4336 
L 518.953846 116.496 
L 520.575824 115.0272 
L 522.197802 115.0272 
L 523.81978 114.5376 
L 525.441758 112.5792 
L 527.063736 109.6416 
L 528.685714 107.1936 
L 530.307692 106.704 
L 531.92967 107.6832 
L 533.551648 109.6416 
L 535.173626 112.0896 
L 536.795604 111.6 
L 538.417582 109.6416 
L 540.03956 106.704 
L 541.661538 104.256 
L 543.283516 103.2768 
L 544.905495 104.256 
L 546.527473 106.704 
L 548.149451 107.6832 
L 549.771429 106.704 
L 551.393407 104.7456 
L 553.015385 103.2768 
L 554.637363 104.7456 
L 557.881319 112.5792 
L 559.503297 114.5376 
L 561.125275 114.5376 
L 562.747253 113.0688 
L 564.369231 112.5792 
L 565.991209 113.5584 
L 569.235165 118.4544 
L 570.857143 118.944 
L 572.479121 117.9648 
L 574.101099 116.496 
L 575.723077 116.0064 
L 577.345055 116.9856 
L 578.967033 119.4336 
L 580.589011 121.392 
L 582.210989 121.8816 
L 583.832967 120.4128 
L 585.454945 118.4544 
L 587.076923 116.9856 
L 588.698901 117.4752 
L 590.320879 120.4128 
L 591.942857 122.8608 
L 593.564835 123.84 
L 596.808791 122.8608 
L 598.430769 122.8608 
L 600.052747 124.3296 
L 601.674725 127.7568 
L 603.296703 130.2048 
L 604.918681 131.6736 
L 606.540659 131.6736 
L 608.162637 130.2048 
L 609.784615 127.7568 
L 611.406593 126.7776 
L 613.028571 127.2672 
L 614.650549 128.2464 
L 616.272527 128.2464 
L 617.894505 127.7568 
L 621.138462 125.7984 
L 622.76044 127.2672 
L 624.382418 129.2256 
L 626.004396 130.6944 
L 627.626374 130.2048 
L 629.248352 128.736 
L 630.87033 126.7776 
L 632.492308 125.3088 
L 634.114286 125.3088 
L 637.358242 126.288 
L 640.602198 125.3088 
L 640.602198 125.3088 
" style="fill:none;stroke:#808080;stroke-dasharray:5.55,2.4;stroke-dashoffset:0;stroke-opacity:0.3;stroke-width:1.5;"/>
   </g>
   <g id="line2d_41">
    <path clip-path="url(#p277f0d27ff)" d="M 64.8 124.3296 
L 66.421978 124.3296 
L 69.665934 125.3088 
L 74.531868 125.3088 
L 76.153846 124.8192 
L 77.775824 125.3088 
L 79.397802 126.288 
L 82.641758 127.2672 
L 87.507692 124.3296 
L 89.12967 123.84 
L 90.751648 124.8192 
L 92.373626 126.288 
L 93.995604 127.2672 
L 95.617582 127.7568 
L 97.23956 127.7568 
L 98.861538 127.2672 
L 100.483516 127.7568 
L 102.105495 128.736 
L 103.727473 130.2048 
L 105.349451 131.184 
L 106.971429 131.184 
L 108.593407 130.6944 
L 110.215385 129.7152 
L 111.837363 129.2256 
L 113.459341 129.7152 
L 116.703297 131.6736 
L 118.325275 131.184 
L 121.569231 128.2464 
L 123.191209 127.7568 
L 128.057143 127.7568 
L 129.679121 126.7776 
L 132.923077 122.8608 
L 134.545055 121.392 
L 136.167033 120.4128 
L 137.789011 119.9232 
L 139.410989 118.4544 
L 141.032967 116.0064 
L 142.654945 114.048 
L 144.276923 112.5792 
L 145.898901 112.5792 
L 147.520879 114.048 
L 149.142857 116.0064 
L 150.764835 116.0064 
L 152.386813 115.0272 
L 154.008791 113.5584 
L 155.630769 112.5792 
L 157.252747 112.5792 
L 158.874725 114.5376 
L 160.496703 116.0064 
L 162.118681 116.0064 
L 163.740659 114.5376 
L 166.984615 110.6208 
L 168.606593 110.1312 
L 170.228571 112.0896 
L 171.850549 115.0272 
L 173.472527 116.9856 
L 175.094505 117.4752 
L 176.716484 116.496 
L 178.338462 115.0272 
L 179.96044 114.048 
L 181.582418 114.5376 
L 183.204396 116.0064 
L 184.826374 116.496 
L 186.448352 116.0064 
L 188.07033 114.5376 
L 189.692308 112.5792 
L 191.314286 112.0896 
L 192.936264 113.0688 
L 196.18022 114.048 
L 199.424176 111.1104 
L 201.046154 110.6208 
L 202.668132 110.6208 
L 205.912088 114.5376 
L 207.534066 115.5168 
L 209.156044 116.0064 
L 210.778022 116.0064 
L 212.4 116.496 
L 214.021978 117.4752 
L 217.265934 122.3712 
L 218.887912 123.84 
L 220.50989 124.8192 
L 222.131868 125.3088 
L 223.753846 125.3088 
L 230.241758 127.2672 
L 233.485714 126.288 
L 236.72967 126.288 
L 238.351648 127.2672 
L 239.973626 128.736 
L 241.595604 129.7152 
L 248.083516 129.7152 
L 249.705495 130.2048 
L 251.327473 131.184 
L 252.949451 131.184 
L 254.571429 130.6944 
L 257.815385 128.736 
L 259.437363 128.2464 
L 262.681319 130.2048 
L 264.303297 130.2048 
L 265.925275 129.2256 
L 269.169231 126.288 
L 270.791209 125.3088 
L 272.413187 124.8192 
L 274.035165 124.8192 
L 275.657143 123.3504 
L 277.279121 121.392 
L 278.901099 117.9648 
L 280.523077 115.0272 
L 282.145055 112.5792 
L 285.389011 113.5584 
L 287.010989 113.0688 
L 290.254945 107.1936 
L 291.876923 106.2144 
L 293.498901 109.152 
L 295.120879 114.5376 
L 296.742857 118.944 
L 298.364835 120.4128 
L 299.986813 119.9232 
L 303.230769 116.9856 
L 306.474725 115.0272 
L 308.096703 114.5376 
L 309.718681 113.0688 
L 311.340659 111.1104 
L 312.962637 109.6416 
L 314.584615 109.6416 
L 316.206593 110.1312 
L 321.072527 116.0064 
L 322.694505 116.9856 
L 325.938462 116.9856 
L 327.56044 117.4752 
L 329.182418 118.944 
L 330.804396 119.9232 
L 332.426374 121.392 
L 334.048352 122.3712 
L 338.914286 123.84 
L 340.536264 124.8192 
L 343.78022 127.7568 
L 345.402198 128.736 
L 347.024176 129.2256 
L 348.646154 129.2256 
L 350.268132 129.7152 
L 353.512088 132.6528 
L 355.134066 133.632 
L 356.756044 134.1216 
L 360 133.1424 
L 364.865934 134.6112 
L 366.487912 133.632 
L 368.10989 131.6736 
L 371.353846 126.7776 
L 372.975824 125.3088 
L 374.597802 124.8192 
L 376.21978 123.3504 
L 377.841758 120.9024 
L 379.463736 116.496 
L 381.085714 111.6 
L 382.707692 107.1936 
L 384.32967 106.2144 
L 385.951648 108.1728 
L 389.195604 116.9856 
L 390.817582 119.9232 
L 392.43956 122.3712 
L 395.683516 126.288 
L 397.305495 128.736 
L 398.927473 130.6944 
L 400.549451 131.6736 
L 402.171429 131.6736 
L 403.793407 131.184 
L 407.037363 131.184 
L 410.281319 133.1424 
L 411.903297 133.1424 
L 415.147253 131.184 
L 416.769231 130.6944 
L 418.391209 131.184 
L 420.013187 133.1424 
L 421.635165 134.6112 
L 423.257143 135.1008 
L 424.879121 135.1008 
L 426.501099 134.1216 
L 428.123077 134.1216 
L 429.745055 135.5904 
L 431.367033 137.5488 
L 432.989011 139.9968 
L 434.610989 140.976 
L 436.232967 140.4864 
L 439.476923 137.5488 
L 441.098901 137.0592 
L 442.720879 138.528 
L 445.964835 142.4448 
L 447.586813 143.424 
L 449.208791 143.9136 
L 452.452747 142.9344 
L 454.074725 142.9344 
L 457.318681 140.976 
L 458.940659 139.5072 
L 462.184615 135.5904 
L 463.806593 135.5904 
L 465.428571 137.0592 
L 467.050549 139.0176 
L 468.672527 139.5072 
L 470.294505 138.528 
L 471.916484 136.5696 
L 473.538462 134.1216 
L 475.16044 132.1632 
L 478.404396 129.2256 
L 480.026374 127.2672 
L 481.648352 125.7984 
L 483.27033 125.7984 
L 484.892308 126.288 
L 489.758242 132.1632 
L 491.38022 132.6528 
L 493.002198 131.6736 
L 496.246154 130.6944 
L 497.868132 131.184 
L 499.49011 132.6528 
L 501.112088 133.1424 
L 502.734066 132.6528 
L 504.356044 131.184 
L 505.978022 129.2256 
L 507.6 127.7568 
L 509.221978 128.2464 
L 512.465934 133.1424 
L 514.087912 133.632 
L 515.70989 132.1632 
L 518.953846 127.2672 
L 520.575824 126.288 
L 523.81978 125.3088 
L 525.441758 123.84 
L 527.063736 121.392 
L 528.685714 119.4336 
L 530.307692 117.9648 
L 531.92967 118.4544 
L 533.551648 120.4128 
L 535.173626 121.392 
L 536.795604 121.392 
L 538.417582 119.4336 
L 541.661538 114.5376 
L 543.283516 113.0688 
L 544.905495 113.5584 
L 546.527473 115.0272 
L 548.149451 116.0064 
L 549.771429 114.5376 
L 551.393407 112.5792 
L 553.015385 111.1104 
L 554.637363 112.0896 
L 556.259341 115.0272 
L 557.881319 118.4544 
L 559.503297 119.9232 
L 561.125275 119.9232 
L 564.369231 117.9648 
L 565.991209 118.944 
L 569.235165 122.8608 
L 570.857143 123.3504 
L 572.479121 122.8608 
L 574.101099 121.392 
L 575.723077 120.4128 
L 577.345055 121.392 
L 580.589011 125.3088 
L 582.210989 125.7984 
L 583.832967 124.3296 
L 585.454945 122.3712 
L 587.076923 121.392 
L 588.698901 121.8816 
L 590.320879 123.84 
L 591.942857 126.288 
L 593.564835 127.2672 
L 596.808791 126.288 
L 598.430769 126.288 
L 600.052747 127.7568 
L 601.674725 130.6944 
L 603.296703 133.1424 
L 604.918681 134.6112 
L 606.540659 134.6112 
L 609.784615 131.6736 
L 611.406593 130.6944 
L 613.028571 130.6944 
L 614.650549 131.6736 
L 617.894505 131.6736 
L 619.516484 130.2048 
L 621.138462 130.2048 
L 622.76044 131.184 
L 624.382418 133.1424 
L 626.004396 134.1216 
L 627.626374 134.1216 
L 629.248352 132.6528 
L 630.87033 130.6944 
L 632.492308 129.7152 
L 634.114286 129.7152 
L 635.736264 130.2048 
L 638.98022 130.2048 
L 640.602198 129.7152 
L 640.602198 129.7152 
" style="fill:none;stroke:#808080;stroke-dasharray:5.55,2.4;stroke-dashoffset:0;stroke-opacity:0.3;stroke-width:1.5;"/>
   </g>
   <g id="line2d_42">
    <path clip-path="url(#p277f0d27ff)" d="M 645.468132 172.8 
L 645.468132 25.92 
" style="fill:none;stroke:#ff0000;stroke-linecap:square;stroke-width:0.5;"/>
   </g>
   <g id="line2d_43">
    <path clip-path="url(#p277f0d27ff)" d="M 622.76044 172.8 
L 622.76044 25.92 
" style="fill:none;stroke:#0000ff;stroke-dasharray:1.85,0.8;stroke-dashoffset:0;stroke-width:0.5;"/>
   </g>
   <g id="patch_3">
    <path d="M 64.8 172.8 
L 64.8 25.92 
" style="fill:none;stroke:#000000;stroke-linecap:square;stroke-linejoin:miter;stroke-width:0.8;"/>
   </g>
   <g id="patch_4">
    <path d="M 655.2 172.8 
L 655.2 25.92 
" style="fill:none;stroke:#000000;stroke-linecap:square;stroke-linejoin:miter;stroke-width:0.8;"/>
   </g>
   <g id="patch_5">
    <path d="M 64.8 172.8 
L 655.2 172.8 
" style="fill:none;stroke:#000000;stroke-linecap:square;stroke-linejoin:miter;stroke-width:0.8;"/>
   </g>
   <g id="patch_6">
    <path d="M 64.8 25.92 
L 655.2 25.92 
" style="fill:none;stroke:#000000;stroke-linecap:square;stroke-linejoin:miter;stroke-width:0.8;"/>
   </g>
   <g id="patch_7">
    <path d="M 622.309522 111.525842 
Q 620.11996 118.93157 619.689066 125.623649 
" style="fill:none;stroke:#000000;stroke-linecap:round;"/>
    <path d="M 621.491378 122.53307 
L 619.689066 125.623649 
L 618.297991 122.327452 
" style="fill:none;stroke:#000000;stroke-linecap:round;"/>
   </g>
   <g id="text_22">
    <g id="patch_8">
     <path d="M 619.516484 109.11975 
L 632.238984 109.11975 
Q 635.438984 109.11975 635.438984 105.91975 
L 635.438984 98.17725 
Q 635.438984 94.97725 632.238984 94.97725 
L 619.516484 94.97725 
Q 616.316484 94.97725 616.316484 98.17725 
L 616.316484 105.91975 
Q 616.316484 109.11975 619.516484 109.11975 
z
" style="fill:#fffff0;stroke:#000000;stroke-linejoin:miter;"/>
    </g>
    <!-- 0,9 -->
    <g transform="translate(619.516484 104.256)scale(0.08 -0.08)">
     <defs>
      <path d="M 11.71875 12.40625 
L 22.015625 12.40625 
L 22.015625 4 
L 14.015625 -11.625 
L 7.71875 -11.625 
L 11.71875 4 
z
" id="DejaVuSans-44"/>
     </defs>
     <use xlink:href="#DejaVuSans-48"/>
     <use x="63.623047" xlink:href="#DejaVuSans-44"/>
     <use x="95.410156" xlink:href="#DejaVuSans-57"/>
    </g>
   </g>
   <g id="text_23">
    <!-- Reproductiegetal -->
    <g transform="translate(308.77875 19.92)scale(0.12 -0.12)">
     <use xlink:href="#DejaVuSans-82"/>
     <use x="64.982422" xlink:href="#DejaVuSans-101"/>
     <use x="126.505859" xlink:href="#DejaVuSans-112"/>
     <use x="189.982422" xlink:href="#DejaVuSans-114"/>
     <use x="228.845703" xlink:href="#DejaVuSans-111"/>
     <use x="290.027344" xlink:href="#DejaVuSans-100"/>
     <use x="353.503906" xlink:href="#DejaVuSans-117"/>
     <use x="416.882812" xlink:href="#DejaVuSans-99"/>
     <use x="471.863281" xlink:href="#DejaVuSans-116"/>
     <use x="511.072266" xlink:href="#DejaVuSans-105"/>
     <use x="538.855469" xlink:href="#DejaVuSans-101"/>
     <use x="600.378906" xlink:href="#DejaVuSans-103"/>
     <use x="663.855469" xlink:href="#DejaVuSans-101"/>
     <use x="725.378906" xlink:href="#DejaVuSans-116"/>
     <use x="764.587891" xlink:href="#DejaVuSans-97"/>
     <use x="825.867188" xlink:href="#DejaVuSans-108"/>
    </g>
   </g>
   <g id="text_24">
    <g id="patch_9">
     <path d="M 640.378132 177.47125 
L 650.558132 177.47125 
Q 651.358132 177.47125 651.358132 176.67125 
L 651.358132 168.92875 
Q 651.358132 168.12875 650.558132 168.12875 
L 640.378132 168.12875 
Q 639.578132 168.12875 639.578132 168.92875 
L 639.578132 176.67125 
Q 639.578132 177.47125 640.378132 177.47125 
z
" style="fill:#ff0000;stroke:#ff0000;stroke-linejoin:miter;"/>
    </g>
    <!-- 06 -->
    <g style="fill:#ffffff;" transform="translate(640.378132 175.0075)scale(0.08 -0.08)">
     <use xlink:href="#DejaVuSans-48"/>
     <use x="63.623047" xlink:href="#DejaVuSans-54"/>
    </g>
   </g>
  </g>
  <g id="text_25">
   <!-- Gegenereerd op 2022-08-06 23:48, Rt berekend tot 2022-07-21. -->
   <g style="fill:#808080;" transform="translate(7.2 204.88175)scale(0.08 -0.08)">
    <defs>
     <path d="M 59.515625 10.40625 
L 59.515625 29.984375 
L 43.40625 29.984375 
L 43.40625 38.09375 
L 69.28125 38.09375 
L 69.28125 6.78125 
Q 63.578125 2.734375 56.6875 0.65625 
Q 49.8125 -1.421875 42 -1.421875 
Q 24.90625 -1.421875 15.25 8.5625 
Q 5.609375 18.5625 5.609375 36.375 
Q 5.609375 54.25 15.25 64.234375 
Q 24.90625 74.21875 42 74.21875 
Q 49.125 74.21875 55.546875 72.453125 
Q 61.96875 70.703125 67.390625 67.28125 
L 67.390625 56.78125 
Q 61.921875 61.421875 55.765625 63.765625 
Q 49.609375 66.109375 42.828125 66.109375 
Q 29.4375 66.109375 22.71875 58.640625 
Q 16.015625 51.171875 16.015625 36.375 
Q 16.015625 21.625 22.71875 14.15625 
Q 29.4375 6.6875 42.828125 6.6875 
Q 48.046875 6.6875 52.140625 7.59375 
Q 56.25 8.5 59.515625 10.40625 
z
" id="DejaVuSans-71"/>
     <path d="M 54.890625 33.015625 
L 54.890625 0 
L 45.90625 0 
L 45.90625 32.71875 
Q 45.90625 40.484375 42.875 44.328125 
Q 39.84375 48.1875 33.796875 48.1875 
Q 26.515625 48.1875 22.3125 43.546875 
Q 18.109375 38.921875 18.109375 30.90625 
L 18.109375 0 
L 9.078125 0 
L 9.078125 54.6875 
L 18.109375 54.6875 
L 18.109375 46.1875 
Q 21.34375 51.125 25.703125 53.5625 
Q 30.078125 56 35.796875 56 
Q 45.21875 56 50.046875 50.171875 
Q 54.890625 44.34375 54.890625 33.015625 
z
" id="DejaVuSans-110"/>
     <path id="DejaVuSans-32"/>
     <path d="M 11.71875 12.40625 
L 22.015625 12.40625 
L 22.015625 0 
L 11.71875 0 
z
M 11.71875 51.703125 
L 22.015625 51.703125 
L 22.015625 39.3125 
L 11.71875 39.3125 
z
" id="DejaVuSans-58"/>
     <path d="M 48.6875 27.296875 
Q 48.6875 37.203125 44.609375 42.84375 
Q 40.53125 48.484375 33.40625 48.484375 
Q 26.265625 48.484375 22.1875 42.84375 
Q 18.109375 37.203125 18.109375 27.296875 
Q 18.109375 17.390625 22.1875 11.75 
Q 26.265625 6.109375 33.40625 6.109375 
Q 40.53125 6.109375 44.609375 11.75 
Q 48.6875 17.390625 48.6875 27.296875 
z
M 18.109375 46.390625 
Q 20.953125 51.265625 25.265625 53.625 
Q 29.59375 56 35.59375 56 
Q 45.5625 56 51.78125 48.09375 
Q 58.015625 40.1875 58.015625 27.296875 
Q 58.015625 14.40625 51.78125 6.484375 
Q 45.5625 -1.421875 35.59375 -1.421875 
Q 29.59375 -1.421875 25.265625 0.953125 
Q 20.953125 3.328125 18.109375 8.203125 
L 18.109375 0 
L 9.078125 0 
L 9.078125 75.984375 
L 18.109375 75.984375 
z
" id="DejaVuSans-98"/>
     <path d="M 9.078125 75.984375 
L 18.109375 75.984375 
L 18.109375 31.109375 
L 44.921875 54.6875 
L 56.390625 54.6875 
L 27.390625 29.109375 
L 57.625 0 
L 45.90625 0 
L 18.109375 26.703125 
L 18.109375 0 
L 9.078125 0 
z
" id="DejaVuSans-107"/>
    </defs>
    <use xlink:href="#DejaVuSans-71"/>
    <use x="77.490234" xlink:href="#DejaVuSans-101"/>
    <use x="139.013672" xlink:href="#DejaVuSans-103"/>
    <use x="202.490234" xlink:href="#DejaVuSans-101"/>
    <use x="264.013672" xlink:href="#DejaVuSans-110"/>
    <use x="327.392578" xlink:href="#DejaVuSans-101"/>
    <use x="388.916016" xlink:href="#DejaVuSans-114"/>
    <use x="427.779297" xlink:href="#DejaVuSans-101"/>
    <use x="489.302734" xlink:href="#DejaVuSans-101"/>
    <use x="550.826172" xlink:href="#DejaVuSans-114"/>
    <use x="590.189453" xlink:href="#DejaVuSans-100"/>
    <use x="653.666016" xlink:href="#DejaVuSans-32"/>
    <use x="685.453125" xlink:href="#DejaVuSans-111"/>
    <use x="746.634766" xlink:href="#DejaVuSans-112"/>
    <use x="810.111328" xlink:href="#DejaVuSans-32"/>
    <use x="841.898438" xlink:href="#DejaVuSans-50"/>
    <use x="905.521484" xlink:href="#DejaVuSans-48"/>
    <use x="969.144531" xlink:href="#DejaVuSans-50"/>
    <use x="1032.767578" xlink:href="#DejaVuSans-50"/>
    <use x="1096.390625" xlink:href="#DejaVuSans-45"/>
    <use x="1132.474609" xlink:href="#DejaVuSans-48"/>
    <use x="1196.097656" xlink:href="#DejaVuSans-56"/>
    <use x="1259.720703" xlink:href="#DejaVuSans-45"/>
    <use x="1295.804688" xlink:href="#DejaVuSans-48"/>
    <use x="1359.427734" xlink:href="#DejaVuSans-54"/>
    <use x="1423.050781" xlink:href="#DejaVuSans-32"/>
    <use x="1454.837891" xlink:href="#DejaVuSans-50"/>
    <use x="1518.460938" xlink:href="#DejaVuSans-51"/>
    <use x="1582.083984" xlink:href="#DejaVuSans-58"/>
    <use x="1615.775391" xlink:href="#DejaVuSans-52"/>
    <use x="1679.398438" xlink:href="#DejaVuSans-56"/>
    <use x="1743.021484" xlink:href="#DejaVuSans-44"/>
    <use x="1774.808594" xlink:href="#DejaVuSans-32"/>
    <use x="1806.595703" xlink:href="#DejaVuSans-82"/>
    <use x="1876.078125" xlink:href="#DejaVuSans-116"/>
    <use x="1915.287109" xlink:href="#DejaVuSans-32"/>
    <use x="1947.074219" xlink:href="#DejaVuSans-98"/>
    <use x="2010.550781" xlink:href="#DejaVuSans-101"/>
    <use x="2072.074219" xlink:href="#DejaVuSans-114"/>
    <use x="2110.9375" xlink:href="#DejaVuSans-101"/>
    <use x="2172.460938" xlink:href="#DejaVuSans-107"/>
    <use x="2226.746094" xlink:href="#DejaVuSans-101"/>
    <use x="2288.269531" xlink:href="#DejaVuSans-110"/>
    <use x="2351.648438" xlink:href="#DejaVuSans-100"/>
    <use x="2415.125" xlink:href="#DejaVuSans-32"/>
    <use x="2446.912109" xlink:href="#DejaVuSans-116"/>
    <use x="2486.121094" xlink:href="#DejaVuSans-111"/>
    <use x="2547.302734" xlink:href="#DejaVuSans-116"/>
    <use x="2586.511719" xlink:href="#DejaVuSans-32"/>
    <use x="2618.298828" xlink:href="#DejaVuSans-50"/>
    <use x="2681.921875" xlink:href="#DejaVuSans-48"/>
    <use x="2745.544922" xlink:href="#DejaVuSans-50"/>
    <use x="2809.167969" xlink:href="#DejaVuSans-50"/>
    <use x="2872.791016" xlink:href="#DejaVuSans-45"/>
    <use x="2908.875" xlink:href="#DejaVuSans-48"/>
    <use x="2972.498047" xlink:href="#DejaVuSans-55"/>
    <use x="3036.121094" xlink:href="#DejaVuSans-45"/>
    <use x="3072.205078" xlink:href="#DejaVuSans-50"/>
    <use x="3135.828125" xlink:href="#DejaVuSans-49"/>
    <use x="3199.451172" xlink:href="#DejaVuSans-46"/>
   </g>
   <!-- Source code: http://github.com/realrolfje/coronadata -->
   <g style="fill:#808080;" transform="translate(7.2 213.84)scale(0.08 -0.08)">
    <defs>
     <path d="M 53.515625 70.515625 
L 53.515625 60.890625 
Q 47.90625 63.578125 42.921875 64.890625 
Q 37.9375 66.21875 33.296875 66.21875 
Q 25.25 66.21875 20.875 63.09375 
Q 16.5 59.96875 16.5 54.203125 
Q 16.5 49.359375 19.40625 46.890625 
Q 22.3125 44.4375 30.421875 42.921875 
L 36.375 41.703125 
Q 47.40625 39.59375 52.65625 34.296875 
Q 57.90625 29 57.90625 20.125 
Q 57.90625 9.515625 50.796875 4.046875 
Q 43.703125 -1.421875 29.984375 -1.421875 
Q 24.8125 -1.421875 18.96875 -0.25 
Q 13.140625 0.921875 6.890625 3.21875 
L 6.890625 13.375 
Q 12.890625 10.015625 18.65625 8.296875 
Q 24.421875 6.59375 29.984375 6.59375 
Q 38.421875 6.59375 43.015625 9.90625 
Q 47.609375 13.234375 47.609375 19.390625 
Q 47.609375 24.75 44.3125 27.78125 
Q 41.015625 30.8125 33.5 32.328125 
L 27.484375 33.5 
Q 16.453125 35.6875 11.515625 40.375 
Q 6.59375 45.0625 6.59375 53.421875 
Q 6.59375 63.09375 13.40625 68.65625 
Q 20.21875 74.21875 32.171875 74.21875 
Q 37.3125 74.21875 42.625 73.28125 
Q 47.953125 72.359375 53.515625 70.515625 
z
" id="DejaVuSans-83"/>
     <path d="M 54.890625 33.015625 
L 54.890625 0 
L 45.90625 0 
L 45.90625 32.71875 
Q 45.90625 40.484375 42.875 44.328125 
Q 39.84375 48.1875 33.796875 48.1875 
Q 26.515625 48.1875 22.3125 43.546875 
Q 18.109375 38.921875 18.109375 30.90625 
L 18.109375 0 
L 9.078125 0 
L 9.078125 75.984375 
L 18.109375 75.984375 
L 18.109375 46.1875 
Q 21.34375 51.125 25.703125 53.5625 
Q 30.078125 56 35.796875 56 
Q 45.21875 56 50.046875 50.171875 
Q 54.890625 44.34375 54.890625 33.015625 
z
" id="DejaVuSans-104"/>
     <path d="M 25.390625 72.90625 
L 33.6875 72.90625 
L 8.296875 -9.28125 
L 0 -9.28125 
z
" id="DejaVuSans-47"/>
     <path d="M 37.109375 75.984375 
L 37.109375 68.5 
L 28.515625 68.5 
Q 23.6875 68.5 21.796875 66.546875 
Q 19.921875 64.59375 19.921875 59.515625 
L 19.921875 54.6875 
L 34.71875 54.6875 
L 34.71875 47.703125 
L 19.921875 47.703125 
L 19.921875 0 
L 10.890625 0 
L 10.890625 47.703125 
L 2.296875 47.703125 
L 2.296875 54.6875 
L 10.890625 54.6875 
L 10.890625 58.5 
Q 10.890625 67.625 15.140625 71.796875 
Q 19.390625 75.984375 28.609375 75.984375 
z
" id="DejaVuSans-102"/>
     <path d="M 9.421875 54.6875 
L 18.40625 54.6875 
L 18.40625 -0.984375 
Q 18.40625 -11.421875 14.421875 -16.109375 
Q 10.453125 -20.796875 1.609375 -20.796875 
L -1.8125 -20.796875 
L -1.8125 -13.1875 
L 0.59375 -13.1875 
Q 5.71875 -13.1875 7.5625 -10.8125 
Q 9.421875 -8.453125 9.421875 -0.984375 
z
M 9.421875 75.984375 
L 18.40625 75.984375 
L 18.40625 64.59375 
L 9.421875 64.59375 
z
" id="DejaVuSans-106"/>
    </defs>
    <use xlink:href="#DejaVuSans-83"/>
    <use x="63.476562" xlink:href="#DejaVuSans-111"/>
    <use x="124.658203" xlink:href="#DejaVuSans-117"/>
    <use x="188.037109" xlink:href="#DejaVuSans-114"/>
    <use x="226.900391" xlink:href="#DejaVuSans-99"/>
    <use x="281.880859" xlink:href="#DejaVuSans-101"/>
    <use x="343.404297" xlink:href="#DejaVuSans-32"/>
    <use x="375.191406" xlink:href="#DejaVuSans-99"/>
    <use x="430.171875" xlink:href="#DejaVuSans-111"/>
    <use x="491.353516" xlink:href="#DejaVuSans-100"/>
    <use x="554.830078" xlink:href="#DejaVuSans-101"/>
    <use x="616.353516" xlink:href="#DejaVuSans-58"/>
    <use x="650.044922" xlink:href="#DejaVuSans-32"/>
    <use x="681.832031" xlink:href="#DejaVuSans-104"/>
    <use x="745.210938" xlink:href="#DejaVuSans-116"/>
    <use x="784.419922" xlink:href="#DejaVuSans-116"/>
    <use x="823.628906" xlink:href="#DejaVuSans-112"/>
    <use x="887.105469" xlink:href="#DejaVuSans-58"/>
    <use x="920.796875" xlink:href="#DejaVuSans-47"/>
    <use x="954.488281" xlink:href="#DejaVuSans-47"/>
    <use x="988.179688" xlink:href="#DejaVuSans-103"/>
    <use x="1051.65625" xlink:href="#DejaVuSans-105"/>
    <use x="1079.439453" xlink:href="#DejaVuSans-116"/>
    <use x="1118.648438" xlink:href="#DejaVuSans-104"/>
    <use x="1182.027344" xlink:href="#DejaVuSans-117"/>
    <use x="1245.40625" xlink:href="#DejaVuSans-98"/>
    <use x="1308.882812" xlink:href="#DejaVuSans-46"/>
    <use x="1340.669922" xlink:href="#DejaVuSans-99"/>
    <use x="1395.650391" xlink:href="#DejaVuSans-111"/>
    <use x="1456.832031" xlink:href="#DejaVuSans-109"/>
    <use x="1554.244141" xlink:href="#DejaVuSans-47"/>
    <use x="1587.935547" xlink:href="#DejaVuSans-114"/>
    <use x="1626.798828" xlink:href="#DejaVuSans-101"/>
    <use x="1688.322266" xlink:href="#DejaVuSans-97"/>
    <use x="1749.601562" xlink:href="#DejaVuSans-108"/>
    <use x="1777.384766" xlink:href="#DejaVuSans-114"/>
    <use x="1816.248047" xlink:href="#DejaVuSans-111"/>
    <use x="1877.429688" xlink:href="#DejaVuSans-108"/>
    <use x="1905.212891" xlink:href="#DejaVuSans-102"/>
    <use x="1940.417969" xlink:href="#DejaVuSans-106"/>
    <use x="1968.201172" xlink:href="#DejaVuSans-101"/>
    <use x="2029.724609" xlink:href="#DejaVuSans-47"/>
    <use x="2063.416016" xlink:href="#DejaVuSans-99"/>
    <use x="2118.396484" xlink:href="#DejaVuSans-111"/>
    <use x="2179.578125" xlink:href="#DejaVuSans-114"/>
    <use x="2218.441406" xlink:href="#DejaVuSans-111"/>
    <use x="2279.623047" xlink:href="#DejaVuSans-110"/>
    <use x="2343.001953" xlink:href="#DejaVuSans-97"/>
    <use x="2404.28125" xlink:href="#DejaVuSans-100"/>
    <use x="2467.757812" xlink:href="#DejaVuSans-97"/>
    <use x="2529.037109" xlink:href="#DejaVuSans-116"/>
    <use x="2568.246094" xlink:href="#DejaVuSans-97"/>
   </g>
  </g>
  <g id="text_26">
   <!-- Bron: https://data.rivm.nl/covid-19 -->
   <g style="fill:#808080;" transform="translate(574.79875 213.84)scale(0.08 -0.08)">
    <defs>
     <path d="M 19.671875 34.8125 
L 19.671875 8.109375 
L 35.5 8.109375 
Q 43.453125 8.109375 47.28125 11.40625 
Q 51.125 14.703125 51.125 21.484375 
Q 51.125 28.328125 47.28125 31.5625 
Q 43.453125 34.8125 35.5 34.8125 
z
M 19.671875 64.796875 
L 19.671875 42.828125 
L 34.28125 42.828125 
Q 41.5 42.828125 45.03125 45.53125 
Q 48.578125 48.25 48.578125 53.8125 
Q 48.578125 59.328125 45.03125 62.0625 
Q 41.5 64.796875 34.28125 64.796875 
z
M 9.8125 72.90625 
L 35.015625 72.90625 
Q 46.296875 72.90625 52.390625 68.21875 
Q 58.5 63.53125 58.5 54.890625 
Q 58.5 48.1875 55.375 44.234375 
Q 52.25 40.28125 46.1875 39.3125 
Q 53.46875 37.75 57.5 32.78125 
Q 61.53125 27.828125 61.53125 20.40625 
Q 61.53125 10.640625 54.890625 5.3125 
Q 48.25 0 35.984375 0 
L 9.8125 0 
z
" id="DejaVuSans-66"/>
     <path d="M 44.28125 53.078125 
L 44.28125 44.578125 
Q 40.484375 46.53125 36.375 47.5 
Q 32.28125 48.484375 27.875 48.484375 
Q 21.1875 48.484375 17.84375 46.4375 
Q 14.5 44.390625 14.5 40.28125 
Q 14.5 37.15625 16.890625 35.375 
Q 19.28125 33.59375 26.515625 31.984375 
L 29.59375 31.296875 
Q 39.15625 29.25 43.1875 25.515625 
Q 47.21875 21.78125 47.21875 15.09375 
Q 47.21875 7.46875 41.1875 3.015625 
Q 35.15625 -1.421875 24.609375 -1.421875 
Q 20.21875 -1.421875 15.453125 -0.5625 
Q 10.6875 0.296875 5.421875 2 
L 5.421875 11.28125 
Q 10.40625 8.6875 15.234375 7.390625 
Q 20.0625 6.109375 24.8125 6.109375 
Q 31.15625 6.109375 34.5625 8.28125 
Q 37.984375 10.453125 37.984375 14.40625 
Q 37.984375 18.0625 35.515625 20.015625 
Q 33.0625 21.96875 24.703125 23.78125 
L 21.578125 24.515625 
Q 13.234375 26.265625 9.515625 29.90625 
Q 5.8125 33.546875 5.8125 39.890625 
Q 5.8125 47.609375 11.28125 51.796875 
Q 16.75 56 26.8125 56 
Q 31.78125 56 36.171875 55.265625 
Q 40.578125 54.546875 44.28125 53.078125 
z
" id="DejaVuSans-115"/>
     <path d="M 2.984375 54.6875 
L 12.5 54.6875 
L 29.59375 8.796875 
L 46.6875 54.6875 
L 56.203125 54.6875 
L 35.6875 0 
L 23.484375 0 
z
" id="DejaVuSans-118"/>
    </defs>
    <use xlink:href="#DejaVuSans-66"/>
    <use x="68.603516" xlink:href="#DejaVuSans-114"/>
    <use x="107.466797" xlink:href="#DejaVuSans-111"/>
    <use x="168.648438" xlink:href="#DejaVuSans-110"/>
    <use x="232.027344" xlink:href="#DejaVuSans-58"/>
    <use x="265.71875" xlink:href="#DejaVuSans-32"/>
    <use x="297.505859" xlink:href="#DejaVuSans-104"/>
    <use x="360.884766" xlink:href="#DejaVuSans-116"/>
    <use x="400.09375" xlink:href="#DejaVuSans-116"/>
    <use x="439.302734" xlink:href="#DejaVuSans-112"/>
    <use x="502.779297" xlink:href="#DejaVuSans-115"/>
    <use x="554.878906" xlink:href="#DejaVuSans-58"/>
    <use x="588.570312" xlink:href="#DejaVuSans-47"/>
    <use x="622.261719" xlink:href="#DejaVuSans-47"/>
    <use x="655.953125" xlink:href="#DejaVuSans-100"/>
    <use x="719.429688" xlink:href="#DejaVuSans-97"/>
    <use x="780.708984" xlink:href="#DejaVuSans-116"/>
    <use x="819.917969" xlink:href="#DejaVuSans-97"/>
    <use x="881.197266" xlink:href="#DejaVuSans-46"/>
    <use x="912.984375" xlink:href="#DejaVuSans-114"/>
    <use x="954.097656" xlink:href="#DejaVuSans-105"/>
    <use x="981.880859" xlink:href="#DejaVuSans-118"/>
    <use x="1041.060547" xlink:href="#DejaVuSans-109"/>
    <use x="1138.472656" xlink:href="#DejaVuSans-46"/>
    <use x="1170.259766" xlink:href="#DejaVuSans-110"/>
    <use x="1233.638672" xlink:href="#DejaVuSans-108"/>
    <use x="1261.421875" xlink:href="#DejaVuSans-47"/>
    <use x="1295.113281" xlink:href="#DejaVuSans-99"/>
    <use x="1350.09375" xlink:href="#DejaVuSans-111"/>
    <use x="1411.275391" xlink:href="#DejaVuSans-118"/>
    <use x="1470.455078" xlink:href="#DejaVuSans-105"/>
    <use x="1498.238281" xlink:href="#DejaVuSans-100"/>
    <use x="1561.714844" xlink:href="#DejaVuSans-45"/>
    <use x="1597.798828" xlink:href="#DejaVuSans-49"/>
    <use x="1661.421875" xlink:href="#DejaVuSans-57"/>
   </g>
  </g>
 </g>
 <defs>
  <clipPath id="p277f0d27ff">
   <rect height="146.88" width="590.4" x="64.8" y="25.92"/>
  </clipPath>
 </defs>
</svg>
