<?xml version="1.0" encoding="utf-8" standalone="no"?>
<!DOCTYPE svg PUBLIC "-//W3C//DTD SVG 1.1//EN"
  "http://www.w3.org/Graphics/SVG/1.1/DTD/svg11.dtd">
<!-- Created with matplotlib (https://matplotlib.org/) -->
<svg height="216pt" version="1.1" viewBox="0 0 720 216" width="720pt" xmlns="http://www.w3.org/2000/svg" xmlns:xlink="http://www.w3.org/1999/xlink">
 <metadata>
  <rdf:RDF xmlns:cc="http://creativecommons.org/ns#" xmlns:dc="http://purl.org/dc/elements/1.1/" xmlns:rdf="http://www.w3.org/1999/02/22-rdf-syntax-ns#">
   <cc:Work>
    <dc:type rdf:resource="http://purl.org/dc/dcmitype/StillImage"/>
    <dc:date>2022-10-24T15:43:51.800456</dc:date>
    <dc:format>image/svg+xml</dc:format>
    <dc:creator>
     <cc:Agent>
      <dc:title>Matplotlib v3.3.2, https://matplotlib.org/</dc:title>
     </cc:Agent>
    </dc:creator>
   </cc:Work>
  </rdf:RDF>
 </metadata>
 <defs>
  <style type="text/css">*{stroke-linecap:butt;stroke-linejoin:round;}</style>
 </defs>
 <g id="figure_1">
  <g id="patch_1">
   <path d="M 0 216 
L 720 216 
L 720 0 
L 0 0 
z
" style="fill:#ffffff;"/>
  </g>
  <g id="axes_1">
   <g id="patch_2">
    <path d="M 64.8 172.8 
L 655.2 172.8 
L 655.2 25.92 
L 64.8 25.92 
z
" style="fill:#ffffff;"/>
   </g>
   <g id="PolyCollection_1">
    <path clip-path="url(#pf5292b19c1)" d="M 417.94779 123.84 
L 417.94779 123.84 
L 418.554573 123.84 
L 419.161357 123.84 
L 419.76814 123.84 
L 420.374923 123.84 
L 420.981706 123.84 
L 421.588489 123.84 
L 422.195272 123.84 
L 422.802055 123.84 
L 423.408839 123.84 
L 424.015622 123.84 
L 424.622405 123.84 
L 425.229188 123.84 
L 425.835971 123.84 
L 426.442754 123.84 
L 427.049538 123.84 
L 427.656321 123.84 
L 428.263104 123.84 
L 428.869887 123.84 
L 429.47667 123.84 
L 430.083453 123.84 
L 430.690236 123.84 
L 431.29702 123.84 
L 431.903803 123.84 
L 432.510586 123.84 
L 433.117369 123.84 
L 433.724152 123.84 
L 434.330935 123.84 
L 434.937718 123.84 
L 435.544502 123.84 
L 436.151285 123.84 
L 436.758068 123.84 
L 437.364851 123.84 
L 437.971634 123.84 
L 438.578417 123.84 
L 439.1852 123.84 
L 439.791984 123.84 
L 440.398767 123.84 
L 441.00555 123.84 
L 441.612333 123.84 
L 442.219116 123.84 
L 442.825899 123.84 
L 443.432682 123.84 
L 444.039466 123.84 
L 444.646249 123.84 
L 444.039466 122.8608 
L 443.432682 120.9024 
L 442.825899 118.944 
L 442.219116 116.496 
L 441.612333 115.5168 
L 441.00555 115.0272 
L 440.398767 115.0272 
L 439.791984 114.5376 
L 439.1852 113.5584 
L 438.578417 112.0896 
L 437.971634 110.6208 
L 437.364851 110.1312 
L 436.758068 111.1104 
L 436.151285 112.0896 
L 435.544502 113.0688 
L 434.937718 113.0688 
L 434.330935 111.6 
L 433.724152 110.6208 
L 433.117369 111.6 
L 432.510586 113.0688 
L 431.903803 114.5376 
L 431.29702 115.5168 
L 430.690236 114.5376 
L 430.083453 113.5584 
L 429.47667 112.5792 
L 428.869887 113.5584 
L 428.263104 115.0272 
L 427.656321 116.0064 
L 427.049538 115.5168 
L 426.442754 113.5584 
L 425.835971 110.1312 
L 425.229188 108.1728 
L 424.622405 108.6624 
L 424.015622 111.1104 
L 423.408839 113.0688 
L 422.802055 114.048 
L 422.195272 114.048 
L 421.588489 112.5792 
L 420.981706 111.1104 
L 420.374923 110.6208 
L 419.76814 111.6 
L 419.161357 113.0688 
L 418.554573 114.048 
L 417.94779 114.048 
z
" style="fill:#ff0000;fill-opacity:0.3;"/>
    <path clip-path="url(#pf5292b19c1)" d="M 464.063309 123.84 
L 464.670092 123.84 
L 465.276876 123.84 
L 465.883659 123.84 
L 466.490442 123.84 
L 467.097225 123.84 
L 467.704008 123.84 
L 468.310791 123.84 
L 468.917575 123.84 
L 469.524358 123.84 
L 470.131141 123.84 
L 470.737924 123.84 
L 471.344707 123.84 
L 471.95149 123.84 
L 472.558273 123.84 
L 473.165057 123.84 
L 473.77184 123.84 
L 474.378623 123.84 
L 474.985406 123.84 
L 475.592189 123.84 
L 476.198972 123.84 
L 476.805755 123.84 
L 477.412539 123.84 
L 478.019322 123.84 
L 478.626105 123.84 
L 479.232888 123.84 
L 479.839671 123.84 
L 480.446454 123.84 
L 481.053237 123.84 
L 481.660021 123.84 
L 482.266804 123.84 
L 482.873587 123.84 
L 483.48037 123.84 
L 484.087153 123.84 
L 484.693936 123.84 
L 485.300719 123.84 
L 485.907503 123.84 
L 486.514286 123.84 
L 487.121069 123.84 
L 487.727852 123.84 
L 488.334635 123.84 
L 488.941418 123.84 
L 489.548201 123.84 
L 488.941418 122.8608 
L 488.334635 122.8608 
L 487.727852 122.3712 
L 487.121069 121.392 
L 486.514286 120.4128 
L 485.907503 118.944 
L 485.300719 117.4752 
L 484.693936 116.9856 
L 484.087153 116.9856 
L 483.48037 116.9856 
L 482.873587 116.496 
L 482.266804 115.0272 
L 481.660021 112.5792 
L 481.053237 110.6208 
L 480.446454 109.152 
L 479.839671 109.152 
L 479.232888 110.1312 
L 478.626105 111.6 
L 478.019322 113.0688 
L 477.412539 114.5376 
L 476.805755 115.0272 
L 476.198972 115.5168 
L 475.592189 116.496 
L 474.985406 117.9648 
L 474.378623 118.944 
L 473.77184 118.944 
L 473.165057 116.9856 
L 472.558273 112.0896 
L 471.95149 106.704 
L 471.344707 105.2352 
L 470.737924 106.704 
L 470.131141 110.1312 
L 469.524358 112.5792 
L 468.917575 113.0688 
L 468.310791 112.0896 
L 467.704008 112.0896 
L 467.097225 114.5376 
L 466.490442 117.4752 
L 465.883659 120.4128 
L 465.276876 122.3712 
L 464.670092 123.3504 
z
" style="fill:#ff0000;fill-opacity:0.3;"/>
    <path clip-path="url(#pf5292b19c1)" d="M 502.290647 123.84 
L 502.897431 123.84 
L 503.504214 123.84 
L 504.110997 123.84 
L 504.71778 123.84 
L 505.324563 123.84 
L 505.931346 123.84 
L 506.538129 123.84 
L 507.144913 123.84 
L 507.751696 123.84 
L 508.358479 123.84 
L 508.965262 123.84 
L 509.572045 123.84 
L 509.875437 123.84 
L 509.572045 122.8608 
L 508.965262 120.9024 
L 508.358479 117.9648 
L 507.751696 114.048 
L 507.144913 109.6416 
L 506.538129 106.2144 
L 505.931346 105.2352 
L 505.324563 108.1728 
L 504.71778 113.0688 
L 504.110997 117.9648 
L 503.504214 121.392 
L 502.897431 123.3504 
z
" style="fill:#ff0000;fill-opacity:0.3;"/>
    <path clip-path="url(#pf5292b19c1)" d="M 541.933813 123.84 
L 542.338335 123.84 
L 542.945118 123.84 
L 543.551901 123.84 
L 543.956423 123.84 
L 543.551901 122.8608 
L 542.945118 122.3712 
L 542.338335 122.8608 
z
" style="fill:#ff0000;fill-opacity:0.3;"/>
    <path clip-path="url(#pf5292b19c1)" d="M 551.89517 123.84 
L 552.046865 123.84 
L 552.653649 123.84 
L 552.896362 123.84 
L 552.653649 122.8608 
L 552.046865 123.3504 
z
" style="fill:#ff0000;fill-opacity:0.3;"/>
    <path clip-path="url(#pf5292b19c1)" d="M 556.092086 123.84 
L 556.294347 123.84 
L 556.901131 123.84 
L 557.507914 123.84 
L 558.114697 123.84 
L 558.72148 123.84 
L 559.328263 123.84 
L 559.935046 123.84 
L 560.541829 123.84 
L 561.148613 123.84 
L 561.755396 123.84 
L 562.362179 123.84 
L 562.968962 123.84 
L 563.575745 123.84 
L 564.182528 123.84 
L 564.789311 123.84 
L 565.396095 123.84 
L 566.002878 123.84 
L 566.609661 123.84 
L 567.216444 123.84 
L 567.823227 123.84 
L 568.43001 123.84 
L 569.036793 123.84 
L 569.643577 123.84 
L 570.25036 123.84 
L 570.857143 123.84 
L 571.463926 123.84 
L 572.070709 123.84 
L 572.677492 123.84 
L 573.284275 123.84 
L 573.891059 123.84 
L 574.497842 123.84 
L 575.104625 123.84 
L 575.711408 123.84 
L 576.318191 123.84 
L 576.924974 123.84 
L 577.531757 123.84 
L 578.138541 123.84 
L 578.745324 123.84 
L 579.352107 123.84 
L 579.95889 123.84 
L 579.352107 122.3712 
L 578.745324 119.9232 
L 578.138541 118.4544 
L 577.531757 118.4544 
L 576.924974 119.9232 
L 576.318191 120.9024 
L 575.711408 120.9024 
L 575.104625 119.9232 
L 574.497842 117.4752 
L 573.891059 115.5168 
L 573.284275 115.5168 
L 572.677492 116.496 
L 572.070709 117.4752 
L 571.463926 116.9856 
L 570.857143 114.048 
L 570.25036 110.1312 
L 569.643577 107.6832 
L 569.036793 107.6832 
L 568.43001 110.1312 
L 567.823227 111.6 
L 567.216444 112.0896 
L 566.609661 110.1312 
L 566.002878 108.6624 
L 565.396095 108.6624 
L 564.789311 110.6208 
L 564.182528 113.5584 
L 563.575745 116.0064 
L 562.968962 116.9856 
L 562.362179 116.0064 
L 561.755396 114.048 
L 561.148613 112.5792 
L 560.541829 112.5792 
L 559.935046 114.048 
L 559.328263 116.496 
L 558.72148 118.944 
L 558.114697 120.4128 
L 557.507914 120.9024 
L 556.901131 120.9024 
L 556.294347 122.8608 
z
" style="fill:#ff0000;fill-opacity:0.3;"/>
    <path clip-path="url(#pf5292b19c1)" d="M 579.95889 123.84 
L 580.565673 123.84 
L 581.172456 123.84 
L 581.779239 123.84 
L 582.386023 123.84 
L 582.992806 123.84 
L 583.599589 123.84 
L 583.751285 123.84 
L 583.599589 123.3504 
L 582.992806 120.9024 
L 582.386023 118.944 
L 581.779239 119.4336 
L 581.172456 121.8816 
L 580.565673 123.3504 
z
" style="fill:#ff0000;fill-opacity:0.3;"/>
    <path clip-path="url(#pf5292b19c1)" d="M 615.556835 123.84 
L 615.759096 123.84 
L 616.365879 123.84 
L 616.972662 123.84 
L 617.579445 123.84 
L 618.186228 123.84 
L 618.793011 123.84 
L 619.399794 123.84 
L 620.006578 123.84 
L 620.613361 123.84 
L 621.220144 123.84 
L 621.523535 123.84 
L 621.220144 122.8608 
L 620.613361 120.4128 
L 620.006578 119.4336 
L 619.399794 120.4128 
L 618.793011 120.9024 
L 618.186228 120.9024 
L 617.579445 120.4128 
L 616.972662 120.9024 
L 616.365879 121.392 
L 615.759096 123.3504 
z
" style="fill:#ff0000;fill-opacity:0.3;"/>
    <path clip-path="url(#pf5292b19c1)" d="M 623.16185 123.84 
L 623.647276 123.84 
L 624.25406 123.84 
L 624.860843 123.84 
L 625.467626 123.84 
L 626.074409 123.84 
L 626.681192 123.84 
L 627.287975 123.84 
L 627.894758 123.84 
L 628.501542 123.84 
L 629.108325 123.84 
L 629.715108 123.84 
L 630.321891 123.84 
L 630.928674 123.84 
L 631.535457 123.84 
L 632.14224 123.84 
L 632.749024 123.84 
L 633.355807 123.84 
L 633.96259 123.84 
L 634.569373 123.84 
L 635.176156 123.84 
L 635.782939 123.84 
L 636.389723 123.84 
L 636.996506 123.84 
L 637.603289 123.84 
L 638.210072 123.84 
L 638.816855 123.84 
L 639.019116 123.84 
L 638.816855 122.8608 
L 638.210072 118.944 
L 637.603289 116.496 
L 636.996506 116.0064 
L 636.389723 117.4752 
L 635.782939 118.4544 
L 635.176156 117.4752 
L 634.569373 115.0272 
L 633.96259 112.0896 
L 633.355807 110.1312 
L 632.749024 110.6208 
L 632.14224 112.5792 
L 631.535457 114.5376 
L 630.928674 115.0272 
L 630.321891 114.048 
L 629.715108 112.0896 
L 629.108325 111.1104 
L 628.501542 112.5792 
L 627.894758 116.496 
L 627.287975 119.9232 
L 626.681192 121.8816 
L 626.074409 121.8816 
L 625.467626 119.9232 
L 624.860843 118.4544 
L 624.25406 118.944 
L 623.647276 121.8816 
z
" style="fill:#ff0000;fill-opacity:0.3;"/>
   </g>
   <g id="PolyCollection_2">
    <path clip-path="url(#pf5292b19c1)" d="M 444.646249 123.84 
L 444.646249 123.84 
L 445.253032 123.84 
L 445.859815 123.84 
L 446.466598 123.84 
L 447.073381 123.84 
L 447.680164 123.84 
L 448.286948 123.84 
L 448.893731 123.84 
L 449.500514 123.84 
L 450.107297 123.84 
L 450.71408 123.84 
L 451.320863 123.84 
L 451.927646 123.84 
L 452.53443 123.84 
L 453.141213 123.84 
L 453.747996 123.84 
L 454.354779 123.84 
L 454.961562 123.84 
L 455.568345 123.84 
L 456.175128 123.84 
L 456.781912 123.84 
L 457.388695 123.84 
L 457.995478 123.84 
L 458.602261 123.84 
L 459.209044 123.84 
L 459.815827 123.84 
L 460.42261 123.84 
L 461.029394 123.84 
L 461.636177 123.84 
L 462.24296 123.84 
L 462.849743 123.84 
L 463.456526 123.84 
L 464.063309 123.84 
L 464.063309 123.84 
L 464.063309 123.84 
L 463.456526 124.3296 
L 462.849743 125.3088 
L 462.24296 126.7776 
L 461.636177 128.2464 
L 461.029394 129.2256 
L 460.42261 128.736 
L 459.815827 128.2464 
L 459.209044 127.7568 
L 458.602261 128.2464 
L 457.995478 129.2256 
L 457.388695 130.2048 
L 456.781912 130.6944 
L 456.175128 130.2048 
L 455.568345 129.2256 
L 454.961562 128.736 
L 454.354779 128.736 
L 453.747996 128.736 
L 453.141213 128.736 
L 452.53443 128.736 
L 451.927646 127.7568 
L 451.320863 126.7776 
L 450.71408 125.3088 
L 450.107297 125.3088 
L 449.500514 125.7984 
L 448.893731 126.288 
L 448.286948 126.288 
L 447.680164 126.288 
L 447.073381 125.7984 
L 446.466598 125.3088 
L 445.859815 124.8192 
L 445.253032 124.3296 
L 444.646249 123.84 
z
" style="fill:#008000;fill-opacity:0.3;"/>
    <path clip-path="url(#pf5292b19c1)" d="M 489.548201 123.84 
L 489.548201 123.84 
L 490.154985 123.84 
L 490.761768 123.84 
L 491.368551 123.84 
L 491.975334 123.84 
L 492.582117 123.84 
L 493.1889 123.84 
L 493.795683 123.84 
L 494.402467 123.84 
L 495.00925 123.84 
L 495.616033 123.84 
L 496.222816 123.84 
L 496.829599 123.84 
L 497.436382 123.84 
L 498.043165 123.84 
L 498.649949 123.84 
L 499.256732 123.84 
L 499.863515 123.84 
L 500.470298 123.84 
L 501.077081 123.84 
L 501.683864 123.84 
L 502.290647 123.84 
L 502.290647 123.84 
L 502.290647 123.84 
L 501.683864 125.3088 
L 501.077081 127.2672 
L 500.470298 130.2048 
L 499.863515 132.6528 
L 499.256732 134.1216 
L 498.649949 134.1216 
L 498.043165 133.1424 
L 497.436382 132.6528 
L 496.829599 133.1424 
L 496.222816 133.632 
L 495.616033 133.632 
L 495.00925 132.6528 
L 494.402467 131.184 
L 493.795683 129.7152 
L 493.1889 128.736 
L 492.582117 128.736 
L 491.975334 128.736 
L 491.368551 127.7568 
L 490.761768 126.7776 
L 490.154985 124.8192 
L 489.548201 123.84 
z
" style="fill:#008000;fill-opacity:0.3;"/>
    <path clip-path="url(#pf5292b19c1)" d="M 509.875437 123.84 
L 510.178828 123.84 
L 510.785612 123.84 
L 511.392395 123.84 
L 511.999178 123.84 
L 512.605961 123.84 
L 513.212744 123.84 
L 513.819527 123.84 
L 514.42631 123.84 
L 515.033094 123.84 
L 515.639877 123.84 
L 516.24666 123.84 
L 516.853443 123.84 
L 517.460226 123.84 
L 518.067009 123.84 
L 518.673792 123.84 
L 519.280576 123.84 
L 519.887359 123.84 
L 520.494142 123.84 
L 521.100925 123.84 
L 521.707708 123.84 
L 522.314491 123.84 
L 522.921274 123.84 
L 523.528058 123.84 
L 524.134841 123.84 
L 524.741624 123.84 
L 525.348407 123.84 
L 525.95519 123.84 
L 526.561973 123.84 
L 527.168756 123.84 
L 527.77554 123.84 
L 528.382323 123.84 
L 528.989106 123.84 
L 529.595889 123.84 
L 530.202672 123.84 
L 530.809455 123.84 
L 531.416238 123.84 
L 532.023022 123.84 
L 532.629805 123.84 
L 533.236588 123.84 
L 533.843371 123.84 
L 534.450154 123.84 
L 535.056937 123.84 
L 535.66372 123.84 
L 536.270504 123.84 
L 536.877287 123.84 
L 537.48407 123.84 
L 538.090853 123.84 
L 538.697636 123.84 
L 539.304419 123.84 
L 539.911202 123.84 
L 540.517986 123.84 
L 541.124769 123.84 
L 541.731552 123.84 
L 541.933813 123.84 
L 541.731552 124.3296 
L 541.124769 126.288 
L 540.517986 128.2464 
L 539.911202 129.7152 
L 539.304419 132.1632 
L 538.697636 135.1008 
L 538.090853 137.0592 
L 537.48407 137.5488 
L 536.877287 136.5696 
L 536.270504 134.1216 
L 535.66372 133.1424 
L 535.056937 134.6112 
L 534.450154 137.0592 
L 533.843371 139.0176 
L 533.236588 140.4864 
L 532.629805 141.4656 
L 532.023022 141.4656 
L 531.416238 141.9552 
L 530.809455 142.4448 
L 530.202672 142.9344 
L 529.595889 142.4448 
L 528.989106 140.976 
L 528.382323 139.0176 
L 527.77554 136.5696 
L 527.168756 136.08 
L 526.561973 137.0592 
L 525.95519 139.0176 
L 525.348407 140.4864 
L 524.741624 139.9968 
L 524.134841 138.528 
L 523.528058 135.5904 
L 522.921274 133.632 
L 522.314491 133.632 
L 521.707708 134.1216 
L 521.100925 135.1008 
L 520.494142 134.6112 
L 519.887359 133.632 
L 519.280576 131.6736 
L 518.673792 130.2048 
L 518.067009 130.2048 
L 517.460226 131.6736 
L 516.853443 132.6528 
L 516.24666 132.6528 
L 515.639877 132.1632 
L 515.033094 131.184 
L 514.42631 130.6944 
L 513.819527 130.6944 
L 513.212744 131.184 
L 512.605961 131.6736 
L 511.999178 131.184 
L 511.392395 129.2256 
L 510.785612 127.2672 
L 510.178828 124.8192 
z
" style="fill:#008000;fill-opacity:0.3;"/>
    <path clip-path="url(#pf5292b19c1)" d="M 543.956423 123.84 
L 544.158684 123.84 
L 544.765468 123.84 
L 545.372251 123.84 
L 545.979034 123.84 
L 546.585817 123.84 
L 547.1926 123.84 
L 547.799383 123.84 
L 548.406166 123.84 
L 549.01295 123.84 
L 549.619733 123.84 
L 550.226516 123.84 
L 550.833299 123.84 
L 551.440082 123.84 
L 551.89517 123.84 
L 551.440082 125.3088 
L 550.833299 127.7568 
L 550.226516 129.2256 
L 549.619733 129.7152 
L 549.01295 128.736 
L 548.406166 127.2672 
L 547.799383 126.7776 
L 547.1926 127.7568 
L 546.585817 128.736 
L 545.979034 129.2256 
L 545.372251 128.736 
L 544.765468 126.288 
L 544.158684 124.3296 
z
" style="fill:#008000;fill-opacity:0.3;"/>
    <path clip-path="url(#pf5292b19c1)" d="M 552.896362 123.84 
L 553.260432 123.84 
L 553.867215 123.84 
L 554.473998 123.84 
L 555.080781 123.84 
L 555.687564 123.84 
L 556.092086 123.84 
L 555.687564 125.7984 
L 555.080781 128.2464 
L 554.473998 129.7152 
L 553.867215 128.2464 
L 553.260432 125.3088 
z
" style="fill:#008000;fill-opacity:0.3;"/>
    <path clip-path="url(#pf5292b19c1)" d="M 579.95889 123.84 
L 579.95889 123.84 
L 579.95889 123.84 
L 579.95889 123.84 
z
" style="fill:#008000;fill-opacity:0.3;"/>
    <path clip-path="url(#pf5292b19c1)" d="M 583.751285 123.84 
L 584.206372 123.84 
L 584.813155 123.84 
L 585.419938 123.84 
L 586.026721 123.84 
L 586.633505 123.84 
L 587.240288 123.84 
L 587.847071 123.84 
L 588.453854 123.84 
L 589.060637 123.84 
L 589.66742 123.84 
L 590.274203 123.84 
L 590.880987 123.84 
L 591.48777 123.84 
L 592.094553 123.84 
L 592.701336 123.84 
L 593.308119 123.84 
L 593.914902 123.84 
L 594.521686 123.84 
L 595.128469 123.84 
L 595.735252 123.84 
L 596.342035 123.84 
L 596.948818 123.84 
L 597.555601 123.84 
L 598.162384 123.84 
L 598.769168 123.84 
L 599.375951 123.84 
L 599.982734 123.84 
L 600.589517 123.84 
L 601.1963 123.84 
L 601.803083 123.84 
L 602.409866 123.84 
L 603.01665 123.84 
L 603.623433 123.84 
L 604.230216 123.84 
L 604.836999 123.84 
L 605.443782 123.84 
L 606.050565 123.84 
L 606.657348 123.84 
L 607.264132 123.84 
L 607.870915 123.84 
L 608.477698 123.84 
L 609.084481 123.84 
L 609.691264 123.84 
L 610.298047 123.84 
L 610.90483 123.84 
L 611.511614 123.84 
L 612.118397 123.84 
L 612.72518 123.84 
L 613.331963 123.84 
L 613.938746 123.84 
L 614.545529 123.84 
L 615.152312 123.84 
L 615.556835 123.84 
L 615.152312 124.8192 
L 614.545529 126.288 
L 613.938746 126.7776 
L 613.331963 127.2672 
L 612.72518 126.288 
L 612.118397 125.3088 
L 611.511614 125.7984 
L 610.90483 127.2672 
L 610.298047 128.736 
L 609.691264 129.7152 
L 609.084481 130.6944 
L 608.477698 130.2048 
L 607.870915 129.2256 
L 607.264132 129.2256 
L 606.657348 130.2048 
L 606.050565 130.6944 
L 605.443782 130.6944 
L 604.836999 129.7152 
L 604.230216 128.2464 
L 603.623433 127.2672 
L 603.01665 128.2464 
L 602.409866 130.2048 
L 601.803083 132.1632 
L 601.1963 133.1424 
L 600.589517 133.1424 
L 599.982734 132.1632 
L 599.375951 130.6944 
L 598.769168 130.2048 
L 598.162384 130.6944 
L 597.555601 132.1632 
L 596.948818 133.1424 
L 596.342035 132.6528 
L 595.735252 130.6944 
L 595.128469 128.736 
L 594.521686 128.2464 
L 593.914902 129.2256 
L 593.308119 130.2048 
L 592.701336 130.2048 
L 592.094553 129.7152 
L 591.48777 128.736 
L 590.880987 129.2256 
L 590.274203 130.6944 
L 589.66742 132.6528 
L 589.060637 133.632 
L 588.453854 132.6528 
L 587.847071 130.6944 
L 587.240288 127.7568 
L 586.633505 124.8192 
L 586.026721 124.3296 
L 585.419938 124.8192 
L 584.813155 125.7984 
L 584.206372 125.3088 
z
" style="fill:#008000;fill-opacity:0.3;"/>
    <path clip-path="url(#pf5292b19c1)" d="M 621.523535 123.84 
L 621.826927 123.84 
L 622.43371 123.84 
L 623.040493 123.84 
L 623.16185 123.84 
L 623.040493 124.3296 
L 622.43371 125.3088 
L 621.826927 124.8192 
z
" style="fill:#008000;fill-opacity:0.3;"/>
    <path clip-path="url(#pf5292b19c1)" d="M 639.019116 123.84 
L 639.423638 123.84 
L 640.030421 123.84 
L 640.637205 123.84 
L 641.243988 123.84 
L 641.243988 123.84 
L 641.243988 123.84 
L 640.637205 125.7984 
L 640.030421 126.7776 
L 639.423638 125.7984 
z
" style="fill:#008000;fill-opacity:0.3;"/>
   </g>
   <g id="matplotlib.axis_1">
    <g id="xtick_1">
     <g id="line2d_1">
      <path clip-path="url(#pf5292b19c1)" d="M 83.610277 172.8 
L 83.610277 25.92 
" style="fill:none;stroke:#808080;stroke-dasharray:6.4,1.6,1,1.6;stroke-dashoffset:0;stroke-opacity:0.3;"/>
     </g>
     <g id="line2d_2">
      <defs>
       <path d="M 0 0 
L 0 3.5 
" id="m5109fd2843" style="stroke:#000000;stroke-width:0.8;"/>
      </defs>
      <g>
       <use style="stroke:#000000;stroke-width:0.8;" x="83.610277" xlink:href="#m5109fd2843" y="172.8"/>
      </g>
     </g>
     <g id="text_1">
      <!-- 2020-04 -->
      <g transform="translate(62.718871 187.398438)scale(0.1 -0.1)">
       <defs>
        <path d="M 19.1875 8.296875 
L 53.609375 8.296875 
L 53.609375 0 
L 7.328125 0 
L 7.328125 8.296875 
Q 12.9375 14.109375 22.625 23.890625 
Q 32.328125 33.6875 34.8125 36.53125 
Q 39.546875 41.84375 41.421875 45.53125 
Q 43.3125 49.21875 43.3125 52.78125 
Q 43.3125 58.59375 39.234375 62.25 
Q 35.15625 65.921875 28.609375 65.921875 
Q 23.96875 65.921875 18.8125 64.3125 
Q 13.671875 62.703125 7.8125 59.421875 
L 7.8125 69.390625 
Q 13.765625 71.78125 18.9375 73 
Q 24.125 74.21875 28.421875 74.21875 
Q 39.75 74.21875 46.484375 68.546875 
Q 53.21875 62.890625 53.21875 53.421875 
Q 53.21875 48.921875 51.53125 44.890625 
Q 49.859375 40.875 45.40625 35.40625 
Q 44.1875 33.984375 37.640625 27.21875 
Q 31.109375 20.453125 19.1875 8.296875 
z
" id="DejaVuSans-50"/>
        <path d="M 31.78125 66.40625 
Q 24.171875 66.40625 20.328125 58.90625 
Q 16.5 51.421875 16.5 36.375 
Q 16.5 21.390625 20.328125 13.890625 
Q 24.171875 6.390625 31.78125 6.390625 
Q 39.453125 6.390625 43.28125 13.890625 
Q 47.125 21.390625 47.125 36.375 
Q 47.125 51.421875 43.28125 58.90625 
Q 39.453125 66.40625 31.78125 66.40625 
z
M 31.78125 74.21875 
Q 44.046875 74.21875 50.515625 64.515625 
Q 56.984375 54.828125 56.984375 36.375 
Q 56.984375 17.96875 50.515625 8.265625 
Q 44.046875 -1.421875 31.78125 -1.421875 
Q 19.53125 -1.421875 13.0625 8.265625 
Q 6.59375 17.96875 6.59375 36.375 
Q 6.59375 54.828125 13.0625 64.515625 
Q 19.53125 74.21875 31.78125 74.21875 
z
" id="DejaVuSans-48"/>
        <path d="M 4.890625 31.390625 
L 31.203125 31.390625 
L 31.203125 23.390625 
L 4.890625 23.390625 
z
" id="DejaVuSans-45"/>
        <path d="M 37.796875 64.3125 
L 12.890625 25.390625 
L 37.796875 25.390625 
z
M 35.203125 72.90625 
L 47.609375 72.90625 
L 47.609375 25.390625 
L 58.015625 25.390625 
L 58.015625 17.1875 
L 47.609375 17.1875 
L 47.609375 0 
L 37.796875 0 
L 37.796875 17.1875 
L 4.890625 17.1875 
L 4.890625 26.703125 
z
" id="DejaVuSans-52"/>
       </defs>
       <use xlink:href="#DejaVuSans-50"/>
       <use x="63.623047" xlink:href="#DejaVuSans-48"/>
       <use x="127.246094" xlink:href="#DejaVuSans-50"/>
       <use x="190.869141" xlink:href="#DejaVuSans-48"/>
       <use x="254.492188" xlink:href="#DejaVuSans-45"/>
       <use x="290.576172" xlink:href="#DejaVuSans-48"/>
       <use x="354.199219" xlink:href="#DejaVuSans-52"/>
      </g>
     </g>
    </g>
    <g id="xtick_2">
     <g id="line2d_3">
      <path clip-path="url(#pf5292b19c1)" d="M 138.827544 172.8 
L 138.827544 25.92 
" style="fill:none;stroke:#808080;stroke-dasharray:6.4,1.6,1,1.6;stroke-dashoffset:0;stroke-opacity:0.3;"/>
     </g>
     <g id="line2d_4">
      <g>
       <use style="stroke:#000000;stroke-width:0.8;" x="138.827544" xlink:href="#m5109fd2843" y="172.8"/>
      </g>
     </g>
     <g id="text_2">
      <!-- 2020-07 -->
      <g transform="translate(117.936137 187.398438)scale(0.1 -0.1)">
       <defs>
        <path d="M 8.203125 72.90625 
L 55.078125 72.90625 
L 55.078125 68.703125 
L 28.609375 0 
L 18.3125 0 
L 43.21875 64.59375 
L 8.203125 64.59375 
z
" id="DejaVuSans-55"/>
       </defs>
       <use xlink:href="#DejaVuSans-50"/>
       <use x="63.623047" xlink:href="#DejaVuSans-48"/>
       <use x="127.246094" xlink:href="#DejaVuSans-50"/>
       <use x="190.869141" xlink:href="#DejaVuSans-48"/>
       <use x="254.492188" xlink:href="#DejaVuSans-45"/>
       <use x="290.576172" xlink:href="#DejaVuSans-48"/>
       <use x="354.199219" xlink:href="#DejaVuSans-55"/>
      </g>
     </g>
    </g>
    <g id="xtick_3">
     <g id="line2d_5">
      <path clip-path="url(#pf5292b19c1)" d="M 194.651593 172.8 
L 194.651593 25.92 
" style="fill:none;stroke:#808080;stroke-dasharray:6.4,1.6,1,1.6;stroke-dashoffset:0;stroke-opacity:0.3;"/>
     </g>
     <g id="line2d_6">
      <g>
       <use style="stroke:#000000;stroke-width:0.8;" x="194.651593" xlink:href="#m5109fd2843" y="172.8"/>
      </g>
     </g>
     <g id="text_3">
      <!-- 2020-10 -->
      <g transform="translate(173.760187 187.398438)scale(0.1 -0.1)">
       <defs>
        <path d="M 12.40625 8.296875 
L 28.515625 8.296875 
L 28.515625 63.921875 
L 10.984375 60.40625 
L 10.984375 69.390625 
L 28.421875 72.90625 
L 38.28125 72.90625 
L 38.28125 8.296875 
L 54.390625 8.296875 
L 54.390625 0 
L 12.40625 0 
z
" id="DejaVuSans-49"/>
       </defs>
       <use xlink:href="#DejaVuSans-50"/>
       <use x="63.623047" xlink:href="#DejaVuSans-48"/>
       <use x="127.246094" xlink:href="#DejaVuSans-50"/>
       <use x="190.869141" xlink:href="#DejaVuSans-48"/>
       <use x="254.492188" xlink:href="#DejaVuSans-45"/>
       <use x="290.576172" xlink:href="#DejaVuSans-49"/>
       <use x="354.199219" xlink:href="#DejaVuSans-48"/>
      </g>
     </g>
    </g>
    <g id="xtick_4">
     <g id="line2d_7">
      <path clip-path="url(#pf5292b19c1)" d="M 250.475642 172.8 
L 250.475642 25.92 
" style="fill:none;stroke:#808080;stroke-dasharray:6.4,1.6,1,1.6;stroke-dashoffset:0;stroke-opacity:0.3;"/>
     </g>
     <g id="line2d_8">
      <g>
       <use style="stroke:#000000;stroke-width:0.8;" x="250.475642" xlink:href="#m5109fd2843" y="172.8"/>
      </g>
     </g>
     <g id="text_4">
      <!-- 2021-01 -->
      <g transform="translate(229.584236 187.398438)scale(0.1 -0.1)">
       <use xlink:href="#DejaVuSans-50"/>
       <use x="63.623047" xlink:href="#DejaVuSans-48"/>
       <use x="127.246094" xlink:href="#DejaVuSans-50"/>
       <use x="190.869141" xlink:href="#DejaVuSans-49"/>
       <use x="254.492188" xlink:href="#DejaVuSans-45"/>
       <use x="290.576172" xlink:href="#DejaVuSans-48"/>
       <use x="354.199219" xlink:href="#DejaVuSans-49"/>
      </g>
     </g>
    </g>
    <g id="xtick_5">
     <g id="line2d_9">
      <path clip-path="url(#pf5292b19c1)" d="M 305.086125 172.8 
L 305.086125 25.92 
" style="fill:none;stroke:#808080;stroke-dasharray:6.4,1.6,1,1.6;stroke-dashoffset:0;stroke-opacity:0.3;"/>
     </g>
     <g id="line2d_10">
      <g>
       <use style="stroke:#000000;stroke-width:0.8;" x="305.086125" xlink:href="#m5109fd2843" y="172.8"/>
      </g>
     </g>
     <g id="text_5">
      <!-- 2021-04 -->
      <g transform="translate(284.194719 187.398438)scale(0.1 -0.1)">
       <use xlink:href="#DejaVuSans-50"/>
       <use x="63.623047" xlink:href="#DejaVuSans-48"/>
       <use x="127.246094" xlink:href="#DejaVuSans-50"/>
       <use x="190.869141" xlink:href="#DejaVuSans-49"/>
       <use x="254.492188" xlink:href="#DejaVuSans-45"/>
       <use x="290.576172" xlink:href="#DejaVuSans-48"/>
       <use x="354.199219" xlink:href="#DejaVuSans-52"/>
      </g>
     </g>
    </g>
    <g id="xtick_6">
     <g id="line2d_11">
      <path clip-path="url(#pf5292b19c1)" d="M 360.303392 172.8 
L 360.303392 25.92 
" style="fill:none;stroke:#808080;stroke-dasharray:6.4,1.6,1,1.6;stroke-dashoffset:0;stroke-opacity:0.3;"/>
     </g>
     <g id="line2d_12">
      <g>
       <use style="stroke:#000000;stroke-width:0.8;" x="360.303392" xlink:href="#m5109fd2843" y="172.8"/>
      </g>
     </g>
     <g id="text_6">
      <!-- 2021-07 -->
      <g transform="translate(339.411985 187.398438)scale(0.1 -0.1)">
       <use xlink:href="#DejaVuSans-50"/>
       <use x="63.623047" xlink:href="#DejaVuSans-48"/>
       <use x="127.246094" xlink:href="#DejaVuSans-50"/>
       <use x="190.869141" xlink:href="#DejaVuSans-49"/>
       <use x="254.492188" xlink:href="#DejaVuSans-45"/>
       <use x="290.576172" xlink:href="#DejaVuSans-48"/>
       <use x="354.199219" xlink:href="#DejaVuSans-55"/>
      </g>
     </g>
    </g>
    <g id="xtick_7">
     <g id="line2d_13">
      <path clip-path="url(#pf5292b19c1)" d="M 416.127441 172.8 
L 416.127441 25.92 
" style="fill:none;stroke:#808080;stroke-dasharray:6.4,1.6,1,1.6;stroke-dashoffset:0;stroke-opacity:0.3;"/>
     </g>
     <g id="line2d_14">
      <g>
       <use style="stroke:#000000;stroke-width:0.8;" x="416.127441" xlink:href="#m5109fd2843" y="172.8"/>
      </g>
     </g>
     <g id="text_7">
      <!-- 2021-10 -->
      <g transform="translate(395.236035 187.398438)scale(0.1 -0.1)">
       <use xlink:href="#DejaVuSans-50"/>
       <use x="63.623047" xlink:href="#DejaVuSans-48"/>
       <use x="127.246094" xlink:href="#DejaVuSans-50"/>
       <use x="190.869141" xlink:href="#DejaVuSans-49"/>
       <use x="254.492188" xlink:href="#DejaVuSans-45"/>
       <use x="290.576172" xlink:href="#DejaVuSans-49"/>
       <use x="354.199219" xlink:href="#DejaVuSans-48"/>
      </g>
     </g>
    </g>
    <g id="xtick_8">
     <g id="line2d_15">
      <path clip-path="url(#pf5292b19c1)" d="M 471.95149 172.8 
L 471.95149 25.92 
" style="fill:none;stroke:#808080;stroke-dasharray:6.4,1.6,1,1.6;stroke-dashoffset:0;stroke-opacity:0.3;"/>
     </g>
     <g id="line2d_16">
      <g>
       <use style="stroke:#000000;stroke-width:0.8;" x="471.95149" xlink:href="#m5109fd2843" y="172.8"/>
      </g>
     </g>
     <g id="text_8">
      <!-- 2022-01 -->
      <g transform="translate(451.060084 187.398438)scale(0.1 -0.1)">
       <use xlink:href="#DejaVuSans-50"/>
       <use x="63.623047" xlink:href="#DejaVuSans-48"/>
       <use x="127.246094" xlink:href="#DejaVuSans-50"/>
       <use x="190.869141" xlink:href="#DejaVuSans-50"/>
       <use x="254.492188" xlink:href="#DejaVuSans-45"/>
       <use x="290.576172" xlink:href="#DejaVuSans-48"/>
       <use x="354.199219" xlink:href="#DejaVuSans-49"/>
      </g>
     </g>
    </g>
    <g id="xtick_9">
     <g id="line2d_17">
      <path clip-path="url(#pf5292b19c1)" d="M 526.561973 172.8 
L 526.561973 25.92 
" style="fill:none;stroke:#808080;stroke-dasharray:6.4,1.6,1,1.6;stroke-dashoffset:0;stroke-opacity:0.3;"/>
     </g>
     <g id="line2d_18">
      <g>
       <use style="stroke:#000000;stroke-width:0.8;" x="526.561973" xlink:href="#m5109fd2843" y="172.8"/>
      </g>
     </g>
     <g id="text_9">
      <!-- 2022-04 -->
      <g transform="translate(505.670567 187.398438)scale(0.1 -0.1)">
       <use xlink:href="#DejaVuSans-50"/>
       <use x="63.623047" xlink:href="#DejaVuSans-48"/>
       <use x="127.246094" xlink:href="#DejaVuSans-50"/>
       <use x="190.869141" xlink:href="#DejaVuSans-50"/>
       <use x="254.492188" xlink:href="#DejaVuSans-45"/>
       <use x="290.576172" xlink:href="#DejaVuSans-48"/>
       <use x="354.199219" xlink:href="#DejaVuSans-52"/>
      </g>
     </g>
    </g>
    <g id="xtick_10">
     <g id="line2d_19">
      <path clip-path="url(#pf5292b19c1)" d="M 581.779239 172.8 
L 581.779239 25.92 
" style="fill:none;stroke:#808080;stroke-dasharray:6.4,1.6,1,1.6;stroke-dashoffset:0;stroke-opacity:0.3;"/>
     </g>
     <g id="line2d_20">
      <g>
       <use style="stroke:#000000;stroke-width:0.8;" x="581.779239" xlink:href="#m5109fd2843" y="172.8"/>
      </g>
     </g>
     <g id="text_10">
      <!-- 2022-07 -->
      <g transform="translate(560.887833 187.398438)scale(0.1 -0.1)">
       <use xlink:href="#DejaVuSans-50"/>
       <use x="63.623047" xlink:href="#DejaVuSans-48"/>
       <use x="127.246094" xlink:href="#DejaVuSans-50"/>
       <use x="190.869141" xlink:href="#DejaVuSans-50"/>
       <use x="254.492188" xlink:href="#DejaVuSans-45"/>
       <use x="290.576172" xlink:href="#DejaVuSans-48"/>
       <use x="354.199219" xlink:href="#DejaVuSans-55"/>
      </g>
     </g>
    </g>
    <g id="xtick_11">
     <g id="line2d_21">
      <path clip-path="url(#pf5292b19c1)" d="M 637.603289 172.8 
L 637.603289 25.92 
" style="fill:none;stroke:#808080;stroke-dasharray:6.4,1.6,1,1.6;stroke-dashoffset:0;stroke-opacity:0.3;"/>
     </g>
     <g id="line2d_22">
      <g>
       <use style="stroke:#000000;stroke-width:0.8;" x="637.603289" xlink:href="#m5109fd2843" y="172.8"/>
      </g>
     </g>
     <g id="text_11">
      <!-- 2022-10 -->
      <g transform="translate(616.711883 187.398438)scale(0.1 -0.1)">
       <use xlink:href="#DejaVuSans-50"/>
       <use x="63.623047" xlink:href="#DejaVuSans-48"/>
       <use x="127.246094" xlink:href="#DejaVuSans-50"/>
       <use x="190.869141" xlink:href="#DejaVuSans-50"/>
       <use x="254.492188" xlink:href="#DejaVuSans-45"/>
       <use x="290.576172" xlink:href="#DejaVuSans-49"/>
       <use x="354.199219" xlink:href="#DejaVuSans-48"/>
      </g>
     </g>
    </g>
    <g id="text_12">
     <!-- Datum -->
     <g transform="translate(343.086719 201.076562)scale(0.1 -0.1)">
      <defs>
       <path d="M 19.671875 64.796875 
L 19.671875 8.109375 
L 31.59375 8.109375 
Q 46.6875 8.109375 53.6875 14.9375 
Q 60.6875 21.78125 60.6875 36.53125 
Q 60.6875 51.171875 53.6875 57.984375 
Q 46.6875 64.796875 31.59375 64.796875 
z
M 9.8125 72.90625 
L 30.078125 72.90625 
Q 51.265625 72.90625 61.171875 64.09375 
Q 71.09375 55.28125 71.09375 36.53125 
Q 71.09375 17.671875 61.125 8.828125 
Q 51.171875 0 30.078125 0 
L 9.8125 0 
z
" id="DejaVuSans-68"/>
       <path d="M 34.28125 27.484375 
Q 23.390625 27.484375 19.1875 25 
Q 14.984375 22.515625 14.984375 16.5 
Q 14.984375 11.71875 18.140625 8.90625 
Q 21.296875 6.109375 26.703125 6.109375 
Q 34.1875 6.109375 38.703125 11.40625 
Q 43.21875 16.703125 43.21875 25.484375 
L 43.21875 27.484375 
z
M 52.203125 31.203125 
L 52.203125 0 
L 43.21875 0 
L 43.21875 8.296875 
Q 40.140625 3.328125 35.546875 0.953125 
Q 30.953125 -1.421875 24.3125 -1.421875 
Q 15.921875 -1.421875 10.953125 3.296875 
Q 6 8.015625 6 15.921875 
Q 6 25.140625 12.171875 29.828125 
Q 18.359375 34.515625 30.609375 34.515625 
L 43.21875 34.515625 
L 43.21875 35.40625 
Q 43.21875 41.609375 39.140625 45 
Q 35.0625 48.390625 27.6875 48.390625 
Q 23 48.390625 18.546875 47.265625 
Q 14.109375 46.140625 10.015625 43.890625 
L 10.015625 52.203125 
Q 14.9375 54.109375 19.578125 55.046875 
Q 24.21875 56 28.609375 56 
Q 40.484375 56 46.34375 49.84375 
Q 52.203125 43.703125 52.203125 31.203125 
z
" id="DejaVuSans-97"/>
       <path d="M 18.3125 70.21875 
L 18.3125 54.6875 
L 36.8125 54.6875 
L 36.8125 47.703125 
L 18.3125 47.703125 
L 18.3125 18.015625 
Q 18.3125 11.328125 20.140625 9.421875 
Q 21.96875 7.515625 27.59375 7.515625 
L 36.8125 7.515625 
L 36.8125 0 
L 27.59375 0 
Q 17.1875 0 13.234375 3.875 
Q 9.28125 7.765625 9.28125 18.015625 
L 9.28125 47.703125 
L 2.6875 47.703125 
L 2.6875 54.6875 
L 9.28125 54.6875 
L 9.28125 70.21875 
z
" id="DejaVuSans-116"/>
       <path d="M 8.5 21.578125 
L 8.5 54.6875 
L 17.484375 54.6875 
L 17.484375 21.921875 
Q 17.484375 14.15625 20.5 10.265625 
Q 23.53125 6.390625 29.59375 6.390625 
Q 36.859375 6.390625 41.078125 11.03125 
Q 45.3125 15.671875 45.3125 23.6875 
L 45.3125 54.6875 
L 54.296875 54.6875 
L 54.296875 0 
L 45.3125 0 
L 45.3125 8.40625 
Q 42.046875 3.421875 37.71875 1 
Q 33.40625 -1.421875 27.6875 -1.421875 
Q 18.265625 -1.421875 13.375 4.4375 
Q 8.5 10.296875 8.5 21.578125 
z
M 31.109375 56 
z
" id="DejaVuSans-117"/>
       <path d="M 52 44.1875 
Q 55.375 50.25 60.0625 53.125 
Q 64.75 56 71.09375 56 
Q 79.640625 56 84.28125 50.015625 
Q 88.921875 44.046875 88.921875 33.015625 
L 88.921875 0 
L 79.890625 0 
L 79.890625 32.71875 
Q 79.890625 40.578125 77.09375 44.375 
Q 74.3125 48.1875 68.609375 48.1875 
Q 61.625 48.1875 57.5625 43.546875 
Q 53.515625 38.921875 53.515625 30.90625 
L 53.515625 0 
L 44.484375 0 
L 44.484375 32.71875 
Q 44.484375 40.625 41.703125 44.40625 
Q 38.921875 48.1875 33.109375 48.1875 
Q 26.21875 48.1875 22.15625 43.53125 
Q 18.109375 38.875 18.109375 30.90625 
L 18.109375 0 
L 9.078125 0 
L 9.078125 54.6875 
L 18.109375 54.6875 
L 18.109375 46.1875 
Q 21.1875 51.21875 25.484375 53.609375 
Q 29.78125 56 35.6875 56 
Q 41.65625 56 45.828125 52.96875 
Q 50 49.953125 52 44.1875 
z
" id="DejaVuSans-109"/>
      </defs>
      <use xlink:href="#DejaVuSans-68"/>
      <use x="77.001953" xlink:href="#DejaVuSans-97"/>
      <use x="138.28125" xlink:href="#DejaVuSans-116"/>
      <use x="177.490234" xlink:href="#DejaVuSans-117"/>
      <use x="240.869141" xlink:href="#DejaVuSans-109"/>
     </g>
    </g>
   </g>
   <g id="matplotlib.axis_2">
    <g id="ytick_1">
     <g id="line2d_23">
      <path clip-path="url(#pf5292b19c1)" d="M 64.8 172.8 
L 655.2 172.8 
" style="fill:none;stroke:#808080;stroke-dasharray:6.4,1.6,1,1.6;stroke-dashoffset:0;stroke-opacity:0.3;"/>
     </g>
     <g id="line2d_24">
      <defs>
       <path d="M 0 0 
L -3.5 0 
" id="m696489946a" style="stroke:#000000;stroke-width:0.8;"/>
      </defs>
      <g>
       <use style="stroke:#000000;stroke-width:0.8;" x="64.8" xlink:href="#m696489946a" y="172.8"/>
      </g>
     </g>
     <g id="text_13">
      <!-- 0.0 -->
      <g transform="translate(41.896875 176.599219)scale(0.1 -0.1)">
       <defs>
        <path d="M 10.6875 12.40625 
L 21 12.40625 
L 21 0 
L 10.6875 0 
z
" id="DejaVuSans-46"/>
       </defs>
       <use xlink:href="#DejaVuSans-48"/>
       <use x="63.623047" xlink:href="#DejaVuSans-46"/>
       <use x="95.410156" xlink:href="#DejaVuSans-48"/>
      </g>
     </g>
    </g>
    <g id="ytick_2">
     <g id="line2d_25">
      <path clip-path="url(#pf5292b19c1)" d="M 64.8 148.32 
L 655.2 148.32 
" style="fill:none;stroke:#808080;stroke-dasharray:6.4,1.6,1,1.6;stroke-dashoffset:0;stroke-opacity:0.3;"/>
     </g>
     <g id="line2d_26">
      <g>
       <use style="stroke:#000000;stroke-width:0.8;" x="64.8" xlink:href="#m696489946a" y="148.32"/>
      </g>
     </g>
     <g id="text_14">
      <!-- 0.5 -->
      <g transform="translate(41.896875 152.119219)scale(0.1 -0.1)">
       <defs>
        <path d="M 10.796875 72.90625 
L 49.515625 72.90625 
L 49.515625 64.59375 
L 19.828125 64.59375 
L 19.828125 46.734375 
Q 21.96875 47.46875 24.109375 47.828125 
Q 26.265625 48.1875 28.421875 48.1875 
Q 40.625 48.1875 47.75 41.5 
Q 54.890625 34.8125 54.890625 23.390625 
Q 54.890625 11.625 47.5625 5.09375 
Q 40.234375 -1.421875 26.90625 -1.421875 
Q 22.3125 -1.421875 17.546875 -0.640625 
Q 12.796875 0.140625 7.71875 1.703125 
L 7.71875 11.625 
Q 12.109375 9.234375 16.796875 8.0625 
Q 21.484375 6.890625 26.703125 6.890625 
Q 35.15625 6.890625 40.078125 11.328125 
Q 45.015625 15.765625 45.015625 23.390625 
Q 45.015625 31 40.078125 35.4375 
Q 35.15625 39.890625 26.703125 39.890625 
Q 22.75 39.890625 18.8125 39.015625 
Q 14.890625 38.140625 10.796875 36.28125 
z
" id="DejaVuSans-53"/>
       </defs>
       <use xlink:href="#DejaVuSans-48"/>
       <use x="63.623047" xlink:href="#DejaVuSans-46"/>
       <use x="95.410156" xlink:href="#DejaVuSans-53"/>
      </g>
     </g>
    </g>
    <g id="ytick_3">
     <g id="line2d_27">
      <path clip-path="url(#pf5292b19c1)" d="M 64.8 123.84 
L 655.2 123.84 
" style="fill:none;stroke:#808080;stroke-dasharray:6.4,1.6,1,1.6;stroke-dashoffset:0;stroke-opacity:0.3;"/>
     </g>
     <g id="line2d_28">
      <g>
       <use style="stroke:#000000;stroke-width:0.8;" x="64.8" xlink:href="#m696489946a" y="123.84"/>
      </g>
     </g>
     <g id="text_15">
      <!-- 1.0 -->
      <g transform="translate(41.896875 127.639219)scale(0.1 -0.1)">
       <use xlink:href="#DejaVuSans-49"/>
       <use x="63.623047" xlink:href="#DejaVuSans-46"/>
       <use x="95.410156" xlink:href="#DejaVuSans-48"/>
      </g>
     </g>
    </g>
    <g id="ytick_4">
     <g id="line2d_29">
      <path clip-path="url(#pf5292b19c1)" d="M 64.8 99.36 
L 655.2 99.36 
" style="fill:none;stroke:#808080;stroke-dasharray:6.4,1.6,1,1.6;stroke-dashoffset:0;stroke-opacity:0.3;"/>
     </g>
     <g id="line2d_30">
      <g>
       <use style="stroke:#000000;stroke-width:0.8;" x="64.8" xlink:href="#m696489946a" y="99.36"/>
      </g>
     </g>
     <g id="text_16">
      <!-- 1.5 -->
      <g transform="translate(41.896875 103.159219)scale(0.1 -0.1)">
       <use xlink:href="#DejaVuSans-49"/>
       <use x="63.623047" xlink:href="#DejaVuSans-46"/>
       <use x="95.410156" xlink:href="#DejaVuSans-53"/>
      </g>
     </g>
    </g>
    <g id="ytick_5">
     <g id="line2d_31">
      <path clip-path="url(#pf5292b19c1)" d="M 64.8 74.88 
L 655.2 74.88 
" style="fill:none;stroke:#808080;stroke-dasharray:6.4,1.6,1,1.6;stroke-dashoffset:0;stroke-opacity:0.3;"/>
     </g>
     <g id="line2d_32">
      <g>
       <use style="stroke:#000000;stroke-width:0.8;" x="64.8" xlink:href="#m696489946a" y="74.88"/>
      </g>
     </g>
     <g id="text_17">
      <!-- 2.0 -->
      <g transform="translate(41.896875 78.679219)scale(0.1 -0.1)">
       <use xlink:href="#DejaVuSans-50"/>
       <use x="63.623047" xlink:href="#DejaVuSans-46"/>
       <use x="95.410156" xlink:href="#DejaVuSans-48"/>
      </g>
     </g>
    </g>
    <g id="ytick_6">
     <g id="line2d_33">
      <path clip-path="url(#pf5292b19c1)" d="M 64.8 50.4 
L 655.2 50.4 
" style="fill:none;stroke:#808080;stroke-dasharray:6.4,1.6,1,1.6;stroke-dashoffset:0;stroke-opacity:0.3;"/>
     </g>
     <g id="line2d_34">
      <g>
       <use style="stroke:#000000;stroke-width:0.8;" x="64.8" xlink:href="#m696489946a" y="50.4"/>
      </g>
     </g>
     <g id="text_18">
      <!-- 2.5 -->
      <g transform="translate(41.896875 54.199219)scale(0.1 -0.1)">
       <use xlink:href="#DejaVuSans-50"/>
       <use x="63.623047" xlink:href="#DejaVuSans-46"/>
       <use x="95.410156" xlink:href="#DejaVuSans-53"/>
      </g>
     </g>
    </g>
    <g id="ytick_7">
     <g id="line2d_35">
      <path clip-path="url(#pf5292b19c1)" d="M 64.8 25.92 
L 655.2 25.92 
" style="fill:none;stroke:#808080;stroke-dasharray:6.4,1.6,1,1.6;stroke-dashoffset:0;stroke-opacity:0.3;"/>
     </g>
     <g id="line2d_36">
      <g>
       <use style="stroke:#000000;stroke-width:0.8;" x="64.8" xlink:href="#m696489946a" y="25.92"/>
      </g>
     </g>
     <g id="text_19">
      <!-- 3.0 -->
      <g transform="translate(41.896875 29.719219)scale(0.1 -0.1)">
       <defs>
        <path d="M 40.578125 39.3125 
Q 47.65625 37.796875 51.625 33 
Q 55.609375 28.21875 55.609375 21.1875 
Q 55.609375 10.40625 48.1875 4.484375 
Q 40.765625 -1.421875 27.09375 -1.421875 
Q 22.515625 -1.421875 17.65625 -0.515625 
Q 12.796875 0.390625 7.625 2.203125 
L 7.625 11.71875 
Q 11.71875 9.328125 16.59375 8.109375 
Q 21.484375 6.890625 26.8125 6.890625 
Q 36.078125 6.890625 40.9375 10.546875 
Q 45.796875 14.203125 45.796875 21.1875 
Q 45.796875 27.640625 41.28125 31.265625 
Q 36.765625 34.90625 28.71875 34.90625 
L 20.21875 34.90625 
L 20.21875 43.015625 
L 29.109375 43.015625 
Q 36.375 43.015625 40.234375 45.921875 
Q 44.09375 48.828125 44.09375 54.296875 
Q 44.09375 59.90625 40.109375 62.90625 
Q 36.140625 65.921875 28.71875 65.921875 
Q 24.65625 65.921875 20.015625 65.03125 
Q 15.375 64.15625 9.8125 62.3125 
L 9.8125 71.09375 
Q 15.4375 72.65625 20.34375 73.4375 
Q 25.25 74.21875 29.59375 74.21875 
Q 40.828125 74.21875 47.359375 69.109375 
Q 53.90625 64.015625 53.90625 55.328125 
Q 53.90625 49.265625 50.4375 45.09375 
Q 46.96875 40.921875 40.578125 39.3125 
z
" id="DejaVuSans-51"/>
       </defs>
       <use xlink:href="#DejaVuSans-51"/>
       <use x="63.623047" xlink:href="#DejaVuSans-46"/>
       <use x="95.410156" xlink:href="#DejaVuSans-48"/>
      </g>
     </g>
    </g>
    <g id="text_20">
     <!-- Reproductiegetal -->
     <g transform="translate(35.817187 142.044375)rotate(-90)scale(0.1 -0.1)">
      <defs>
       <path d="M 44.390625 34.1875 
Q 47.5625 33.109375 50.5625 29.59375 
Q 53.5625 26.078125 56.59375 19.921875 
L 66.609375 0 
L 56 0 
L 46.6875 18.703125 
Q 43.0625 26.03125 39.671875 28.421875 
Q 36.28125 30.8125 30.421875 30.8125 
L 19.671875 30.8125 
L 19.671875 0 
L 9.8125 0 
L 9.8125 72.90625 
L 32.078125 72.90625 
Q 44.578125 72.90625 50.734375 67.671875 
Q 56.890625 62.453125 56.890625 51.90625 
Q 56.890625 45.015625 53.6875 40.46875 
Q 50.484375 35.9375 44.390625 34.1875 
z
M 19.671875 64.796875 
L 19.671875 38.921875 
L 32.078125 38.921875 
Q 39.203125 38.921875 42.84375 42.21875 
Q 46.484375 45.515625 46.484375 51.90625 
Q 46.484375 58.296875 42.84375 61.546875 
Q 39.203125 64.796875 32.078125 64.796875 
z
" id="DejaVuSans-82"/>
       <path d="M 56.203125 29.59375 
L 56.203125 25.203125 
L 14.890625 25.203125 
Q 15.484375 15.921875 20.484375 11.0625 
Q 25.484375 6.203125 34.421875 6.203125 
Q 39.59375 6.203125 44.453125 7.46875 
Q 49.3125 8.734375 54.109375 11.28125 
L 54.109375 2.78125 
Q 49.265625 0.734375 44.1875 -0.34375 
Q 39.109375 -1.421875 33.890625 -1.421875 
Q 20.796875 -1.421875 13.15625 6.1875 
Q 5.515625 13.8125 5.515625 26.8125 
Q 5.515625 40.234375 12.765625 48.109375 
Q 20.015625 56 32.328125 56 
Q 43.359375 56 49.78125 48.890625 
Q 56.203125 41.796875 56.203125 29.59375 
z
M 47.21875 32.234375 
Q 47.125 39.59375 43.09375 43.984375 
Q 39.0625 48.390625 32.421875 48.390625 
Q 24.90625 48.390625 20.390625 44.140625 
Q 15.875 39.890625 15.1875 32.171875 
z
" id="DejaVuSans-101"/>
       <path d="M 18.109375 8.203125 
L 18.109375 -20.796875 
L 9.078125 -20.796875 
L 9.078125 54.6875 
L 18.109375 54.6875 
L 18.109375 46.390625 
Q 20.953125 51.265625 25.265625 53.625 
Q 29.59375 56 35.59375 56 
Q 45.5625 56 51.78125 48.09375 
Q 58.015625 40.1875 58.015625 27.296875 
Q 58.015625 14.40625 51.78125 6.484375 
Q 45.5625 -1.421875 35.59375 -1.421875 
Q 29.59375 -1.421875 25.265625 0.953125 
Q 20.953125 3.328125 18.109375 8.203125 
z
M 48.6875 27.296875 
Q 48.6875 37.203125 44.609375 42.84375 
Q 40.53125 48.484375 33.40625 48.484375 
Q 26.265625 48.484375 22.1875 42.84375 
Q 18.109375 37.203125 18.109375 27.296875 
Q 18.109375 17.390625 22.1875 11.75 
Q 26.265625 6.109375 33.40625 6.109375 
Q 40.53125 6.109375 44.609375 11.75 
Q 48.6875 17.390625 48.6875 27.296875 
z
" id="DejaVuSans-112"/>
       <path d="M 41.109375 46.296875 
Q 39.59375 47.171875 37.8125 47.578125 
Q 36.03125 48 33.890625 48 
Q 26.265625 48 22.1875 43.046875 
Q 18.109375 38.09375 18.109375 28.8125 
L 18.109375 0 
L 9.078125 0 
L 9.078125 54.6875 
L 18.109375 54.6875 
L 18.109375 46.1875 
Q 20.953125 51.171875 25.484375 53.578125 
Q 30.03125 56 36.53125 56 
Q 37.453125 56 38.578125 55.875 
Q 39.703125 55.765625 41.0625 55.515625 
z
" id="DejaVuSans-114"/>
       <path d="M 30.609375 48.390625 
Q 23.390625 48.390625 19.1875 42.75 
Q 14.984375 37.109375 14.984375 27.296875 
Q 14.984375 17.484375 19.15625 11.84375 
Q 23.34375 6.203125 30.609375 6.203125 
Q 37.796875 6.203125 41.984375 11.859375 
Q 46.1875 17.53125 46.1875 27.296875 
Q 46.1875 37.015625 41.984375 42.703125 
Q 37.796875 48.390625 30.609375 48.390625 
z
M 30.609375 56 
Q 42.328125 56 49.015625 48.375 
Q 55.71875 40.765625 55.71875 27.296875 
Q 55.71875 13.875 49.015625 6.21875 
Q 42.328125 -1.421875 30.609375 -1.421875 
Q 18.84375 -1.421875 12.171875 6.21875 
Q 5.515625 13.875 5.515625 27.296875 
Q 5.515625 40.765625 12.171875 48.375 
Q 18.84375 56 30.609375 56 
z
" id="DejaVuSans-111"/>
       <path d="M 45.40625 46.390625 
L 45.40625 75.984375 
L 54.390625 75.984375 
L 54.390625 0 
L 45.40625 0 
L 45.40625 8.203125 
Q 42.578125 3.328125 38.25 0.953125 
Q 33.9375 -1.421875 27.875 -1.421875 
Q 17.96875 -1.421875 11.734375 6.484375 
Q 5.515625 14.40625 5.515625 27.296875 
Q 5.515625 40.1875 11.734375 48.09375 
Q 17.96875 56 27.875 56 
Q 33.9375 56 38.25 53.625 
Q 42.578125 51.265625 45.40625 46.390625 
z
M 14.796875 27.296875 
Q 14.796875 17.390625 18.875 11.75 
Q 22.953125 6.109375 30.078125 6.109375 
Q 37.203125 6.109375 41.296875 11.75 
Q 45.40625 17.390625 45.40625 27.296875 
Q 45.40625 37.203125 41.296875 42.84375 
Q 37.203125 48.484375 30.078125 48.484375 
Q 22.953125 48.484375 18.875 42.84375 
Q 14.796875 37.203125 14.796875 27.296875 
z
" id="DejaVuSans-100"/>
       <path d="M 48.78125 52.59375 
L 48.78125 44.1875 
Q 44.96875 46.296875 41.140625 47.34375 
Q 37.3125 48.390625 33.40625 48.390625 
Q 24.65625 48.390625 19.8125 42.84375 
Q 14.984375 37.3125 14.984375 27.296875 
Q 14.984375 17.28125 19.8125 11.734375 
Q 24.65625 6.203125 33.40625 6.203125 
Q 37.3125 6.203125 41.140625 7.25 
Q 44.96875 8.296875 48.78125 10.40625 
L 48.78125 2.09375 
Q 45.015625 0.34375 40.984375 -0.53125 
Q 36.96875 -1.421875 32.421875 -1.421875 
Q 20.0625 -1.421875 12.78125 6.34375 
Q 5.515625 14.109375 5.515625 27.296875 
Q 5.515625 40.671875 12.859375 48.328125 
Q 20.21875 56 33.015625 56 
Q 37.15625 56 41.109375 55.140625 
Q 45.0625 54.296875 48.78125 52.59375 
z
" id="DejaVuSans-99"/>
       <path d="M 9.421875 54.6875 
L 18.40625 54.6875 
L 18.40625 0 
L 9.421875 0 
z
M 9.421875 75.984375 
L 18.40625 75.984375 
L 18.40625 64.59375 
L 9.421875 64.59375 
z
" id="DejaVuSans-105"/>
       <path d="M 45.40625 27.984375 
Q 45.40625 37.75 41.375 43.109375 
Q 37.359375 48.484375 30.078125 48.484375 
Q 22.859375 48.484375 18.828125 43.109375 
Q 14.796875 37.75 14.796875 27.984375 
Q 14.796875 18.265625 18.828125 12.890625 
Q 22.859375 7.515625 30.078125 7.515625 
Q 37.359375 7.515625 41.375 12.890625 
Q 45.40625 18.265625 45.40625 27.984375 
z
M 54.390625 6.78125 
Q 54.390625 -7.171875 48.1875 -13.984375 
Q 42 -20.796875 29.203125 -20.796875 
Q 24.46875 -20.796875 20.265625 -20.09375 
Q 16.0625 -19.390625 12.109375 -17.921875 
L 12.109375 -9.1875 
Q 16.0625 -11.328125 19.921875 -12.34375 
Q 23.78125 -13.375 27.78125 -13.375 
Q 36.625 -13.375 41.015625 -8.765625 
Q 45.40625 -4.15625 45.40625 5.171875 
L 45.40625 9.625 
Q 42.625 4.78125 38.28125 2.390625 
Q 33.9375 0 27.875 0 
Q 17.828125 0 11.671875 7.65625 
Q 5.515625 15.328125 5.515625 27.984375 
Q 5.515625 40.671875 11.671875 48.328125 
Q 17.828125 56 27.875 56 
Q 33.9375 56 38.28125 53.609375 
Q 42.625 51.21875 45.40625 46.390625 
L 45.40625 54.6875 
L 54.390625 54.6875 
z
" id="DejaVuSans-103"/>
       <path d="M 9.421875 75.984375 
L 18.40625 75.984375 
L 18.40625 0 
L 9.421875 0 
z
" id="DejaVuSans-108"/>
      </defs>
      <use xlink:href="#DejaVuSans-82"/>
      <use x="64.982422" xlink:href="#DejaVuSans-101"/>
      <use x="126.505859" xlink:href="#DejaVuSans-112"/>
      <use x="189.982422" xlink:href="#DejaVuSans-114"/>
      <use x="228.845703" xlink:href="#DejaVuSans-111"/>
      <use x="290.027344" xlink:href="#DejaVuSans-100"/>
      <use x="353.503906" xlink:href="#DejaVuSans-117"/>
      <use x="416.882812" xlink:href="#DejaVuSans-99"/>
      <use x="471.863281" xlink:href="#DejaVuSans-116"/>
      <use x="511.072266" xlink:href="#DejaVuSans-105"/>
      <use x="538.855469" xlink:href="#DejaVuSans-101"/>
      <use x="600.378906" xlink:href="#DejaVuSans-103"/>
      <use x="663.855469" xlink:href="#DejaVuSans-101"/>
      <use x="725.378906" xlink:href="#DejaVuSans-116"/>
      <use x="764.587891" xlink:href="#DejaVuSans-97"/>
      <use x="825.867188" xlink:href="#DejaVuSans-108"/>
     </g>
    </g>
   </g>
   <g id="line2d_37">
    <path clip-path="url(#pf5292b19c1)" d="M 417.94779 114.048 
L 418.554573 114.048 
L 419.161357 113.0688 
L 419.76814 111.6 
L 420.374923 110.6208 
L 420.981706 111.1104 
L 422.195272 114.048 
L 422.802055 114.048 
L 423.408839 113.0688 
L 424.015622 111.1104 
L 424.622405 108.6624 
L 425.229188 108.1728 
L 425.835971 110.1312 
L 426.442754 113.5584 
L 427.049538 115.5168 
L 427.656321 116.0064 
L 428.263104 115.0272 
L 428.869887 113.5584 
L 429.47667 112.5792 
L 431.29702 115.5168 
L 431.903803 114.5376 
L 433.117369 111.6 
L 433.724152 110.6208 
L 434.330935 111.6 
L 434.937718 113.0688 
L 435.544502 113.0688 
L 437.364851 110.1312 
L 437.971634 110.6208 
L 439.1852 113.5584 
L 439.791984 114.5376 
L 440.398767 115.0272 
L 441.00555 115.0272 
L 441.612333 115.5168 
L 442.219116 116.496 
L 442.825899 118.944 
L 444.039466 122.8608 
L 444.646249 123.84 
L 447.680164 126.288 
L 448.893731 126.288 
L 450.107297 125.3088 
L 450.71408 125.3088 
L 451.320863 126.7776 
L 452.53443 128.736 
L 454.961562 128.736 
L 455.568345 129.2256 
L 456.175128 130.2048 
L 456.781912 130.6944 
L 457.388695 130.2048 
L 458.602261 128.2464 
L 459.209044 127.7568 
L 461.029394 129.2256 
L 461.636177 128.2464 
L 462.849743 125.3088 
L 463.456526 124.3296 
L 464.670092 123.3504 
L 465.276876 122.3712 
L 465.883659 120.4128 
L 467.704008 112.0896 
L 468.310791 112.0896 
L 468.917575 113.0688 
L 469.524358 112.5792 
L 470.131141 110.1312 
L 470.737924 106.704 
L 471.344707 105.2352 
L 471.95149 106.704 
L 473.165057 116.9856 
L 473.77184 118.944 
L 474.378623 118.944 
L 474.985406 117.9648 
L 475.592189 116.496 
L 476.198972 115.5168 
L 477.412539 114.5376 
L 479.232888 110.1312 
L 479.839671 109.152 
L 480.446454 109.152 
L 481.053237 110.6208 
L 481.660021 112.5792 
L 482.266804 115.0272 
L 482.873587 116.496 
L 483.48037 116.9856 
L 484.693936 116.9856 
L 485.300719 117.4752 
L 486.514286 120.4128 
L 487.727852 122.3712 
L 488.334635 122.8608 
L 488.941418 122.8608 
L 490.154985 124.8192 
L 490.761768 126.7776 
L 491.975334 128.736 
L 493.1889 128.736 
L 493.795683 129.7152 
L 495.00925 132.6528 
L 495.616033 133.632 
L 496.222816 133.632 
L 497.436382 132.6528 
L 498.043165 133.1424 
L 498.649949 134.1216 
L 499.256732 134.1216 
L 499.863515 132.6528 
L 500.470298 130.2048 
L 501.077081 127.2672 
L 501.683864 125.3088 
L 502.290647 123.84 
L 502.897431 123.3504 
L 503.504214 121.392 
L 504.110997 117.9648 
L 505.324563 108.1728 
L 505.931346 105.2352 
L 506.538129 106.2144 
L 507.144913 109.6416 
L 508.358479 117.9648 
L 508.965262 120.9024 
L 510.178828 124.8192 
L 510.785612 127.2672 
L 511.999178 131.184 
L 512.605961 131.6736 
L 513.819527 130.6944 
L 514.42631 130.6944 
L 515.033094 131.184 
L 515.639877 132.1632 
L 516.24666 132.6528 
L 516.853443 132.6528 
L 517.460226 131.6736 
L 518.067009 130.2048 
L 518.673792 130.2048 
L 519.280576 131.6736 
L 519.887359 133.632 
L 520.494142 134.6112 
L 521.100925 135.1008 
L 521.707708 134.1216 
L 522.314491 133.632 
L 522.921274 133.632 
L 523.528058 135.5904 
L 524.134841 138.528 
L 524.741624 139.9968 
L 525.348407 140.4864 
L 525.95519 139.0176 
L 526.561973 137.0592 
L 527.168756 136.08 
L 527.77554 136.5696 
L 528.382323 139.0176 
L 528.989106 140.976 
L 529.595889 142.4448 
L 530.202672 142.9344 
L 532.023022 141.4656 
L 532.629805 141.4656 
L 533.236588 140.4864 
L 533.843371 139.0176 
L 534.450154 137.0592 
L 535.056937 134.6112 
L 535.66372 133.1424 
L 536.270504 134.1216 
L 536.877287 136.5696 
L 537.48407 137.5488 
L 538.090853 137.0592 
L 538.697636 135.1008 
L 539.911202 129.7152 
L 540.517986 128.2464 
L 541.731552 124.3296 
L 542.338335 122.8608 
L 542.945118 122.3712 
L 543.551901 122.8608 
L 544.158684 124.3296 
L 544.765468 126.288 
L 545.372251 128.736 
L 545.979034 129.2256 
L 546.585817 128.736 
L 547.799383 126.7776 
L 548.406166 127.2672 
L 549.01295 128.736 
L 549.619733 129.7152 
L 550.226516 129.2256 
L 550.833299 127.7568 
L 551.440082 125.3088 
L 552.046865 123.3504 
L 552.653649 122.8608 
L 553.260432 125.3088 
L 553.867215 128.2464 
L 554.473998 129.7152 
L 555.080781 128.2464 
L 555.687564 125.7984 
L 556.294347 122.8608 
L 556.901131 120.9024 
L 557.507914 120.9024 
L 558.114697 120.4128 
L 558.72148 118.944 
L 559.935046 114.048 
L 560.541829 112.5792 
L 561.148613 112.5792 
L 561.755396 114.048 
L 562.362179 116.0064 
L 562.968962 116.9856 
L 563.575745 116.0064 
L 564.182528 113.5584 
L 564.789311 110.6208 
L 565.396095 108.6624 
L 566.002878 108.6624 
L 566.609661 110.1312 
L 567.216444 112.0896 
L 567.823227 111.6 
L 568.43001 110.1312 
L 569.036793 107.6832 
L 569.643577 107.6832 
L 570.25036 110.1312 
L 570.857143 114.048 
L 571.463926 116.9856 
L 572.070709 117.4752 
L 573.284275 115.5168 
L 573.891059 115.5168 
L 574.497842 117.4752 
L 575.104625 119.9232 
L 575.711408 120.9024 
L 576.318191 120.9024 
L 576.924974 119.9232 
L 577.531757 118.4544 
L 578.138541 118.4544 
L 578.745324 119.9232 
L 579.352107 122.3712 
L 579.95889 123.84 
L 580.565673 123.3504 
L 581.172456 121.8816 
L 581.779239 119.4336 
L 582.386023 118.944 
L 582.992806 120.9024 
L 583.599589 123.3504 
L 584.206372 125.3088 
L 584.813155 125.7984 
L 585.419938 124.8192 
L 586.026721 124.3296 
L 586.633505 124.8192 
L 587.847071 130.6944 
L 588.453854 132.6528 
L 589.060637 133.632 
L 589.66742 132.6528 
L 590.274203 130.6944 
L 590.880987 129.2256 
L 591.48777 128.736 
L 592.094553 129.7152 
L 592.701336 130.2048 
L 593.308119 130.2048 
L 594.521686 128.2464 
L 595.128469 128.736 
L 596.342035 132.6528 
L 596.948818 133.1424 
L 597.555601 132.1632 
L 598.162384 130.6944 
L 598.769168 130.2048 
L 599.375951 130.6944 
L 599.982734 132.1632 
L 600.589517 133.1424 
L 601.1963 133.1424 
L 601.803083 132.1632 
L 603.01665 128.2464 
L 603.623433 127.2672 
L 604.230216 128.2464 
L 604.836999 129.7152 
L 605.443782 130.6944 
L 606.050565 130.6944 
L 606.657348 130.2048 
L 607.264132 129.2256 
L 607.870915 129.2256 
L 608.477698 130.2048 
L 609.084481 130.6944 
L 610.298047 128.736 
L 611.511614 125.7984 
L 612.118397 125.3088 
L 613.331963 127.2672 
L 614.545529 126.288 
L 615.759096 123.3504 
L 616.365879 121.392 
L 617.579445 120.4128 
L 618.186228 120.9024 
L 618.793011 120.9024 
L 619.399794 120.4128 
L 620.006578 119.4336 
L 620.613361 120.4128 
L 621.220144 122.8608 
L 621.826927 124.8192 
L 622.43371 125.3088 
L 623.040493 124.3296 
L 623.647276 121.8816 
L 624.25406 118.944 
L 624.860843 118.4544 
L 625.467626 119.9232 
L 626.074409 121.8816 
L 626.681192 121.8816 
L 627.287975 119.9232 
L 628.501542 112.5792 
L 629.108325 111.1104 
L 629.715108 112.0896 
L 630.321891 114.048 
L 630.928674 115.0272 
L 631.535457 114.5376 
L 632.749024 110.6208 
L 633.355807 110.1312 
L 633.96259 112.0896 
L 635.176156 117.4752 
L 635.782939 118.4544 
L 636.389723 117.4752 
L 636.996506 116.0064 
L 637.603289 116.496 
L 638.210072 118.944 
L 638.816855 122.8608 
L 639.423638 125.7984 
L 640.030421 126.7776 
L 640.637205 125.7984 
L 641.243988 123.84 
L 641.243988 123.84 
" style="fill:none;stroke:#000000;stroke-linecap:square;stroke-width:1.5;"/>
   </g>
   <g id="line2d_38">
    <path clip-path="url(#pf5292b19c1)" d="M 417.94779 111.6 
L 418.554573 112.0896 
L 419.161357 111.1104 
L 419.76814 109.6416 
L 420.374923 108.6624 
L 420.981706 109.152 
L 421.588489 110.6208 
L 422.195272 112.5792 
L 422.802055 112.5792 
L 423.408839 111.1104 
L 424.622405 107.1936 
L 425.229188 106.704 
L 425.835971 108.6624 
L 426.442754 112.0896 
L 427.049538 114.5376 
L 427.656321 115.0272 
L 428.869887 112.0896 
L 429.47667 111.6 
L 430.083453 112.0896 
L 430.690236 113.5584 
L 431.29702 114.048 
L 431.903803 113.5584 
L 432.510586 112.0896 
L 433.117369 110.1312 
L 433.724152 109.6416 
L 434.330935 110.6208 
L 434.937718 112.0896 
L 435.544502 112.0896 
L 437.364851 109.152 
L 437.971634 109.6416 
L 439.1852 112.5792 
L 439.791984 113.5584 
L 440.398767 114.048 
L 441.00555 114.048 
L 441.612333 114.5376 
L 442.219116 116.0064 
L 442.825899 117.9648 
L 443.432682 120.4128 
L 444.039466 122.3712 
L 444.646249 123.3504 
L 445.859815 124.3296 
L 446.466598 124.3296 
L 447.073381 125.3088 
L 447.680164 125.7984 
L 448.286948 125.7984 
L 449.500514 124.8192 
L 450.71408 124.8192 
L 451.320863 125.7984 
L 451.927646 127.2672 
L 453.141213 128.2464 
L 454.961562 128.2464 
L 455.568345 128.736 
L 456.175128 129.7152 
L 457.388695 129.7152 
L 457.995478 128.2464 
L 458.602261 127.2672 
L 459.209044 126.7776 
L 459.815827 127.2672 
L 460.42261 128.2464 
L 461.029394 128.2464 
L 461.636177 127.2672 
L 463.456526 122.8608 
L 464.063309 122.3712 
L 464.670092 122.3712 
L 465.276876 121.392 
L 466.490442 116.496 
L 467.097225 113.0688 
L 467.704008 110.6208 
L 468.310791 110.6208 
L 468.917575 111.6 
L 469.524358 111.1104 
L 470.131141 108.6624 
L 470.737924 105.7248 
L 471.344707 103.7664 
L 471.95149 105.7248 
L 473.165057 116.0064 
L 473.77184 118.4544 
L 474.378623 118.4544 
L 474.985406 117.4752 
L 475.592189 116.0064 
L 476.805755 114.048 
L 477.412539 113.5584 
L 478.019322 112.5792 
L 478.626105 111.1104 
L 479.232888 109.152 
L 479.839671 108.1728 
L 480.446454 108.6624 
L 481.053237 110.1312 
L 481.660021 112.0896 
L 482.266804 114.5376 
L 482.873587 116.0064 
L 483.48037 116.496 
L 484.693936 116.496 
L 485.300719 116.9856 
L 486.514286 119.9232 
L 487.727852 121.8816 
L 488.334635 122.3712 
L 488.941418 122.3712 
L 489.548201 123.3504 
L 491.368551 127.7568 
L 491.975334 128.2464 
L 493.1889 128.2464 
L 493.795683 129.2256 
L 495.00925 132.1632 
L 495.616033 133.1424 
L 496.222816 133.1424 
L 497.436382 132.1632 
L 498.043165 132.6528 
L 498.649949 133.632 
L 499.256732 133.632 
L 499.863515 132.1632 
L 501.077081 126.288 
L 501.683864 124.3296 
L 502.290647 123.3504 
L 502.897431 122.8608 
L 503.504214 120.9024 
L 504.110997 117.4752 
L 505.324563 107.6832 
L 505.931346 104.7456 
L 506.538129 105.2352 
L 508.965262 120.4128 
L 510.178828 124.3296 
L 510.785612 126.7776 
L 511.999178 130.6944 
L 512.605961 131.184 
L 514.42631 129.7152 
L 515.639877 131.6736 
L 516.24666 132.1632 
L 516.853443 132.1632 
L 517.460226 130.6944 
L 518.067009 129.7152 
L 518.673792 129.7152 
L 519.280576 130.6944 
L 519.887359 133.1424 
L 520.494142 134.1216 
L 521.100925 134.6112 
L 522.314491 132.6528 
L 522.921274 133.1424 
L 523.528058 135.1008 
L 524.134841 137.5488 
L 524.741624 139.5072 
L 525.348407 139.5072 
L 525.95519 138.0384 
L 526.561973 136.08 
L 527.168756 135.1008 
L 527.77554 136.08 
L 528.989106 139.9968 
L 529.595889 141.4656 
L 530.202672 141.9552 
L 532.629805 139.9968 
L 533.236588 139.0176 
L 533.843371 137.5488 
L 535.056937 132.6528 
L 535.66372 131.184 
L 536.270504 132.1632 
L 536.877287 134.6112 
L 537.48407 135.5904 
L 538.090853 134.6112 
L 538.697636 132.1632 
L 539.911202 126.7776 
L 540.517986 124.8192 
L 541.124769 123.3504 
L 541.731552 120.9024 
L 542.338335 118.944 
L 542.945118 118.944 
L 543.551901 119.4336 
L 544.158684 120.9024 
L 544.765468 122.8608 
L 545.372251 125.3088 
L 545.979034 125.7984 
L 546.585817 125.3088 
L 547.1926 123.84 
L 547.799383 122.8608 
L 548.406166 123.3504 
L 549.01295 124.8192 
L 549.619733 125.7984 
L 550.226516 125.3088 
L 550.833299 123.84 
L 552.046865 118.4544 
L 552.653649 117.9648 
L 553.867215 124.3296 
L 554.473998 124.8192 
L 555.080781 123.3504 
L 556.901131 115.0272 
L 558.114697 115.0272 
L 558.72148 113.0688 
L 559.328263 110.6208 
L 559.935046 107.6832 
L 560.541829 106.2144 
L 561.148613 106.704 
L 561.755396 108.6624 
L 562.362179 111.1104 
L 562.968962 111.6 
L 563.575745 110.6208 
L 565.396095 103.2768 
L 566.002878 103.2768 
L 566.609661 105.7248 
L 567.216444 107.6832 
L 567.823227 107.6832 
L 569.036793 103.7664 
L 569.643577 103.2768 
L 570.25036 106.704 
L 570.857143 111.1104 
L 571.463926 113.5584 
L 572.070709 114.5376 
L 573.284275 112.5792 
L 573.891059 112.0896 
L 575.104625 116.9856 
L 575.711408 118.4544 
L 576.318191 118.4544 
L 576.924974 117.4752 
L 577.531757 116.0064 
L 578.138541 115.5168 
L 578.745324 117.4752 
L 579.352107 120.4128 
L 579.95889 121.8816 
L 580.565673 121.392 
L 581.172456 119.4336 
L 581.779239 116.9856 
L 582.386023 116.496 
L 582.992806 118.4544 
L 583.599589 121.392 
L 584.206372 123.3504 
L 584.813155 123.84 
L 585.419938 122.8608 
L 586.026721 122.3712 
L 586.633505 122.8608 
L 587.240288 125.3088 
L 587.847071 128.736 
L 588.453854 131.184 
L 589.060637 131.6736 
L 589.66742 130.6944 
L 590.274203 128.2464 
L 590.880987 126.7776 
L 591.48777 126.7776 
L 592.094553 127.2672 
L 592.701336 128.2464 
L 593.308119 127.7568 
L 594.521686 125.7984 
L 595.128469 125.7984 
L 596.342035 130.6944 
L 596.948818 130.6944 
L 597.555601 129.7152 
L 598.162384 128.2464 
L 598.769168 127.2672 
L 599.375951 127.7568 
L 599.982734 129.7152 
L 600.589517 130.6944 
L 601.1963 130.2048 
L 601.803083 128.736 
L 603.01665 124.8192 
L 603.623433 123.84 
L 604.230216 124.8192 
L 604.836999 126.288 
L 605.443782 127.2672 
L 606.050565 127.2672 
L 607.264132 125.3088 
L 607.870915 125.3088 
L 608.477698 126.288 
L 609.084481 126.7776 
L 609.691264 125.7984 
L 610.298047 124.3296 
L 610.90483 122.3712 
L 611.511614 120.9024 
L 612.118397 120.4128 
L 612.72518 121.392 
L 613.331963 122.8608 
L 613.938746 122.3712 
L 614.545529 121.392 
L 615.759096 118.4544 
L 616.365879 116.496 
L 616.972662 115.5168 
L 618.186228 115.5168 
L 618.793011 116.0064 
L 619.399794 115.0272 
L 620.006578 114.5376 
L 620.613361 115.5168 
L 621.826927 120.4128 
L 622.43371 120.9024 
L 623.040493 119.4336 
L 624.25406 114.048 
L 624.860843 113.0688 
L 626.074409 116.9856 
L 626.681192 116.9856 
L 627.287975 115.0272 
L 628.501542 107.1936 
L 629.108325 105.2352 
L 629.715108 107.1936 
L 630.321891 109.6416 
L 630.928674 110.6208 
L 631.535457 110.1312 
L 632.749024 106.2144 
L 633.355807 105.7248 
L 633.96259 107.6832 
L 634.569373 111.6 
L 635.176156 114.048 
L 635.782939 114.5376 
L 636.389723 114.048 
L 636.996506 112.5792 
L 637.603289 112.5792 
L 638.210072 115.5168 
L 638.816855 119.9232 
L 639.423638 122.8608 
L 640.030421 123.3504 
L 640.637205 122.3712 
L 641.243988 120.4128 
L 641.850771 119.4336 
L 642.457554 121.392 
L 643.064337 124.3296 
L 643.67112 126.288 
L 644.277903 127.2672 
L 644.884687 127.2672 
L 645.49147 126.288 
L 646.098253 127.7568 
L 646.705036 131.6736 
L 647.311819 137.0592 
L 647.918602 140.976 
L 648.525385 143.424 
L 649.132169 142.9344 
L 649.132169 142.9344 
" style="fill:none;stroke:#808080;stroke-dasharray:5.55,2.4;stroke-dashoffset:0;stroke-opacity:0.3;stroke-width:1.5;"/>
   </g>
   <g id="line2d_39">
    <path clip-path="url(#pf5292b19c1)" d="M 417.94779 116.0064 
L 418.554573 116.0064 
L 419.161357 115.0272 
L 419.76814 113.5584 
L 420.374923 112.5792 
L 420.981706 112.5792 
L 421.588489 114.5376 
L 422.195272 116.0064 
L 422.802055 116.0064 
L 423.408839 114.5376 
L 424.622405 110.6208 
L 425.229188 110.1312 
L 425.835971 112.0896 
L 427.049538 116.9856 
L 427.656321 117.4752 
L 428.263104 116.496 
L 428.869887 115.0272 
L 429.47667 114.048 
L 430.083453 114.5376 
L 431.29702 116.496 
L 431.903803 115.5168 
L 433.117369 112.5792 
L 433.724152 112.0896 
L 434.330935 112.5792 
L 434.937718 114.048 
L 435.544502 114.048 
L 437.364851 111.1104 
L 437.971634 111.1104 
L 438.578417 112.5792 
L 439.1852 114.5376 
L 439.791984 115.5168 
L 441.00555 115.5168 
L 441.612333 116.0064 
L 442.219116 117.4752 
L 442.825899 119.4336 
L 443.432682 121.8816 
L 444.039466 123.3504 
L 445.253032 125.3088 
L 445.859815 125.3088 
L 448.286948 127.2672 
L 450.107297 125.7984 
L 450.71408 126.288 
L 452.53443 129.2256 
L 453.141213 129.7152 
L 454.961562 129.7152 
L 455.568345 130.2048 
L 456.175128 131.184 
L 456.781912 131.6736 
L 457.388695 131.184 
L 458.602261 129.2256 
L 459.209044 128.736 
L 461.029394 130.2048 
L 461.636177 129.2256 
L 462.849743 126.288 
L 463.456526 125.3088 
L 464.063309 124.8192 
L 464.670092 124.8192 
L 465.276876 123.84 
L 466.490442 118.944 
L 467.097225 115.5168 
L 467.704008 113.5584 
L 468.310791 113.5584 
L 468.917575 114.048 
L 469.524358 113.5584 
L 470.131141 111.1104 
L 470.737924 108.1728 
L 471.344707 106.2144 
L 471.95149 108.1728 
L 473.165057 117.4752 
L 473.77184 119.9232 
L 474.378623 119.9232 
L 474.985406 118.944 
L 475.592189 117.4752 
L 476.805755 115.5168 
L 477.412539 115.0272 
L 478.019322 114.048 
L 478.626105 112.0896 
L 479.232888 110.6208 
L 479.839671 109.6416 
L 480.446454 109.6416 
L 481.053237 111.1104 
L 481.660021 113.0688 
L 482.266804 115.5168 
L 482.873587 116.9856 
L 483.48037 117.4752 
L 484.693936 117.4752 
L 485.300719 117.9648 
L 486.514286 120.9024 
L 487.727852 122.8608 
L 488.334635 123.3504 
L 488.941418 123.3504 
L 490.154985 125.3088 
L 491.368551 128.2464 
L 491.975334 129.2256 
L 493.1889 129.2256 
L 493.795683 130.2048 
L 495.00925 133.1424 
L 495.616033 134.1216 
L 496.222816 134.1216 
L 497.436382 133.1424 
L 498.043165 133.632 
L 498.649949 134.6112 
L 499.256732 134.6112 
L 499.863515 133.1424 
L 500.470298 130.6944 
L 501.077081 127.7568 
L 501.683864 125.7984 
L 502.897431 123.84 
L 503.504214 122.3712 
L 504.110997 118.944 
L 505.324563 109.152 
L 505.931346 106.2144 
L 506.538129 106.704 
L 507.144913 110.1312 
L 508.358479 118.4544 
L 508.965262 121.392 
L 510.178828 125.3088 
L 510.785612 127.7568 
L 511.392395 129.7152 
L 511.999178 131.184 
L 512.605961 132.1632 
L 513.819527 131.184 
L 514.42631 131.184 
L 515.033094 131.6736 
L 515.639877 132.6528 
L 516.24666 133.1424 
L 516.853443 133.1424 
L 518.067009 131.184 
L 518.673792 130.6944 
L 519.280576 132.1632 
L 519.887359 134.1216 
L 520.494142 135.5904 
L 521.100925 135.5904 
L 521.707708 134.6112 
L 522.314491 134.1216 
L 522.921274 134.6112 
L 523.528058 136.5696 
L 524.134841 139.0176 
L 524.741624 140.4864 
L 525.348407 140.976 
L 526.561973 138.0384 
L 527.168756 137.0592 
L 527.77554 137.5488 
L 528.382323 139.5072 
L 528.989106 141.9552 
L 529.595889 143.424 
L 530.202672 143.9136 
L 530.809455 143.9136 
L 533.236588 141.9552 
L 533.843371 140.4864 
L 535.056937 136.5696 
L 535.66372 135.5904 
L 536.270504 136.5696 
L 536.877287 138.528 
L 537.48407 139.5072 
L 538.090853 139.0176 
L 538.697636 137.5488 
L 539.911202 132.6528 
L 541.124769 129.7152 
L 541.731552 127.7568 
L 542.338335 126.288 
L 543.551901 126.288 
L 544.158684 127.7568 
L 545.372251 131.6736 
L 545.979034 132.6528 
L 546.585817 132.1632 
L 547.1926 131.184 
L 547.799383 130.6944 
L 548.406166 130.6944 
L 549.01295 132.1632 
L 549.619733 133.1424 
L 550.226516 133.1424 
L 550.833299 132.1632 
L 551.440082 129.7152 
L 552.046865 127.7568 
L 552.653649 127.7568 
L 553.867215 132.6528 
L 554.473998 133.632 
L 555.080781 132.6528 
L 555.687564 130.6944 
L 556.294347 128.2464 
L 556.901131 126.7776 
L 557.507914 126.288 
L 558.72148 124.3296 
L 559.328263 121.8816 
L 559.935046 119.9232 
L 560.541829 118.4544 
L 561.148613 117.9648 
L 562.362179 120.9024 
L 562.968962 121.8816 
L 563.575745 120.9024 
L 565.396095 113.5584 
L 566.002878 113.5584 
L 566.609661 115.0272 
L 567.216444 116.0064 
L 567.823227 116.0064 
L 569.036793 112.0896 
L 569.643577 111.6 
L 570.25036 114.048 
L 570.857143 117.4752 
L 571.463926 119.9232 
L 572.070709 120.4128 
L 572.677492 119.9232 
L 573.284275 118.4544 
L 573.891059 118.4544 
L 574.497842 119.9232 
L 575.104625 122.3712 
L 575.711408 123.3504 
L 576.318191 123.3504 
L 576.924974 122.3712 
L 577.531757 120.9024 
L 578.138541 120.9024 
L 578.745324 122.3712 
L 579.352107 124.8192 
L 579.95889 126.288 
L 580.565673 125.7984 
L 581.779239 121.8816 
L 582.386023 121.392 
L 582.992806 122.8608 
L 583.599589 125.3088 
L 584.206372 127.2672 
L 584.813155 127.7568 
L 585.419938 127.2672 
L 586.026721 126.288 
L 586.633505 126.7776 
L 587.847071 132.1632 
L 588.453854 134.6112 
L 589.060637 135.5904 
L 589.66742 134.6112 
L 590.274203 132.6528 
L 590.880987 131.184 
L 591.48777 131.184 
L 592.701336 132.1632 
L 593.308119 132.1632 
L 593.914902 131.184 
L 594.521686 130.6944 
L 595.128469 131.184 
L 596.342035 135.1008 
L 596.948818 135.5904 
L 598.769168 132.6528 
L 599.375951 133.632 
L 599.982734 135.1008 
L 600.589517 136.08 
L 601.1963 136.08 
L 601.803083 135.1008 
L 603.01665 131.184 
L 603.623433 130.6944 
L 604.836999 132.6528 
L 605.443782 134.1216 
L 606.050565 134.1216 
L 606.657348 133.632 
L 607.264132 132.6528 
L 607.870915 133.1424 
L 608.477698 134.1216 
L 609.084481 134.1216 
L 609.691264 133.632 
L 610.298047 132.6528 
L 610.90483 131.184 
L 611.511614 130.2048 
L 612.118397 129.7152 
L 612.72518 130.6944 
L 613.331963 131.184 
L 613.938746 131.184 
L 614.545529 130.6944 
L 615.152312 129.7152 
L 615.759096 127.7568 
L 616.365879 126.288 
L 617.579445 125.3088 
L 618.793011 125.3088 
L 620.006578 124.3296 
L 620.613361 125.3088 
L 621.826927 129.2256 
L 622.43371 129.7152 
L 623.040493 128.736 
L 623.647276 126.288 
L 624.25406 124.3296 
L 624.860843 123.3504 
L 626.074409 126.288 
L 626.681192 126.288 
L 627.287975 124.8192 
L 628.501542 117.9648 
L 629.108325 116.0064 
L 629.715108 116.9856 
L 630.321891 118.4544 
L 630.928674 119.4336 
L 631.535457 118.944 
L 632.749024 115.0272 
L 633.355807 114.5376 
L 633.96259 116.0064 
L 634.569373 118.944 
L 635.176156 120.9024 
L 635.782939 121.8816 
L 636.996506 119.9232 
L 637.603289 119.9232 
L 638.210072 122.3712 
L 639.423638 128.736 
L 640.030421 129.7152 
L 640.637205 128.736 
L 641.243988 127.2672 
L 641.850771 126.7776 
L 642.457554 128.2464 
L 643.67112 132.1632 
L 644.277903 133.632 
L 644.884687 133.1424 
L 645.49147 133.1424 
L 646.098253 134.6112 
L 646.705036 138.0384 
L 647.311819 142.9344 
L 647.918602 146.8512 
L 648.525385 149.7888 
L 649.132169 150.2784 
L 649.132169 150.2784 
" style="fill:none;stroke:#808080;stroke-dasharray:5.55,2.4;stroke-dashoffset:0;stroke-opacity:0.3;stroke-width:1.5;"/>
   </g>
   <g id="line2d_40">
    <path clip-path="url(#pf5292b19c1)" d="M 651.559301 172.8 
L 651.559301 25.92 
" style="fill:none;stroke:#ff0000;stroke-linecap:square;stroke-width:0.5;"/>
   </g>
   <g id="line2d_41">
    <path clip-path="url(#pf5292b19c1)" d="M 643.064337 172.8 
L 643.064337 25.92 
" style="fill:none;stroke:#0000ff;stroke-dasharray:1.85,0.8;stroke-dashoffset:0;stroke-width:0.5;"/>
   </g>
   <g id="patch_3">
    <path d="M 64.8 172.8 
L 64.8 25.92 
" style="fill:none;stroke:#000000;stroke-linecap:square;stroke-linejoin:miter;stroke-width:0.8;"/>
   </g>
   <g id="patch_4">
    <path d="M 655.2 172.8 
L 655.2 25.92 
" style="fill:none;stroke:#000000;stroke-linecap:square;stroke-linejoin:miter;stroke-width:0.8;"/>
   </g>
   <g id="patch_5">
    <path d="M 64.8 172.8 
L 655.2 172.8 
" style="fill:none;stroke:#000000;stroke-linecap:square;stroke-linejoin:miter;stroke-width:0.8;"/>
   </g>
   <g id="patch_6">
    <path d="M 64.8 25.92 
L 655.2 25.92 
" style="fill:none;stroke:#000000;stroke-linecap:square;stroke-linejoin:miter;stroke-width:0.8;"/>
   </g>
   <g id="patch_7">
    <path d="M 644.037026 106.629842 
Q 641.847465 114.03557 641.41657 120.727649 
" style="fill:none;stroke:#000000;stroke-linecap:round;"/>
    <path d="M 643.218882 117.63707 
L 641.41657 120.727649 
L 640.025495 117.431452 
" style="fill:none;stroke:#000000;stroke-linecap:round;"/>
   </g>
   <g id="text_21">
    <g id="patch_8">
     <path d="M 641.243988 104.22375 
L 653.966488 104.22375 
Q 657.166488 104.22375 657.166488 101.02375 
L 657.166488 93.28125 
Q 657.166488 90.08125 653.966488 90.08125 
L 641.243988 90.08125 
Q 638.043988 90.08125 638.043988 93.28125 
L 638.043988 101.02375 
Q 638.043988 104.22375 641.243988 104.22375 
z
" style="fill:#fffff0;stroke:#000000;stroke-linejoin:miter;"/>
    </g>
    <!-- 1.0 -->
    <g transform="translate(641.243988 99.36)scale(0.08 -0.08)">
     <use xlink:href="#DejaVuSans-49"/>
     <use x="63.623047" xlink:href="#DejaVuSans-46"/>
     <use x="95.410156" xlink:href="#DejaVuSans-48"/>
    </g>
   </g>
   <g id="text_22">
    <!-- Reproductiegetal -->
    <g transform="translate(308.77875 19.92)scale(0.12 -0.12)">
     <use xlink:href="#DejaVuSans-82"/>
     <use x="64.982422" xlink:href="#DejaVuSans-101"/>
     <use x="126.505859" xlink:href="#DejaVuSans-112"/>
     <use x="189.982422" xlink:href="#DejaVuSans-114"/>
     <use x="228.845703" xlink:href="#DejaVuSans-111"/>
     <use x="290.027344" xlink:href="#DejaVuSans-100"/>
     <use x="353.503906" xlink:href="#DejaVuSans-117"/>
     <use x="416.882812" xlink:href="#DejaVuSans-99"/>
     <use x="471.863281" xlink:href="#DejaVuSans-116"/>
     <use x="511.072266" xlink:href="#DejaVuSans-105"/>
     <use x="538.855469" xlink:href="#DejaVuSans-101"/>
     <use x="600.378906" xlink:href="#DejaVuSans-103"/>
     <use x="663.855469" xlink:href="#DejaVuSans-101"/>
     <use x="725.378906" xlink:href="#DejaVuSans-116"/>
     <use x="764.587891" xlink:href="#DejaVuSans-97"/>
     <use x="825.867188" xlink:href="#DejaVuSans-108"/>
    </g>
   </g>
   <g id="text_23">
    <g id="patch_9">
     <path d="M 646.469301 177.47125 
L 656.649301 177.47125 
Q 657.449301 177.47125 657.449301 176.67125 
L 657.449301 168.92875 
Q 657.449301 168.12875 656.649301 168.12875 
L 646.469301 168.12875 
Q 645.669301 168.12875 645.669301 168.92875 
L 645.669301 176.67125 
Q 645.669301 177.47125 646.469301 177.47125 
z
" style="fill:#ff0000;stroke:#ff0000;stroke-linejoin:miter;"/>
    </g>
    <!-- 24 -->
    <g style="fill:#ffffff;" transform="translate(646.469301 175.0075)scale(0.08 -0.08)">
     <use xlink:href="#DejaVuSans-50"/>
     <use x="63.623047" xlink:href="#DejaVuSans-52"/>
    </g>
   </g>
  </g>
  <g id="text_24">
   <!-- Gegenereerd op 2022-10-24 15:43, Rt berekend tot 2022-10-07. -->
   <g style="fill:#808080;" transform="translate(7.2 204.88175)scale(0.08 -0.08)">
    <defs>
     <path d="M 59.515625 10.40625 
L 59.515625 29.984375 
L 43.40625 29.984375 
L 43.40625 38.09375 
L 69.28125 38.09375 
L 69.28125 6.78125 
Q 63.578125 2.734375 56.6875 0.65625 
Q 49.8125 -1.421875 42 -1.421875 
Q 24.90625 -1.421875 15.25 8.5625 
Q 5.609375 18.5625 5.609375 36.375 
Q 5.609375 54.25 15.25 64.234375 
Q 24.90625 74.21875 42 74.21875 
Q 49.125 74.21875 55.546875 72.453125 
Q 61.96875 70.703125 67.390625 67.28125 
L 67.390625 56.78125 
Q 61.921875 61.421875 55.765625 63.765625 
Q 49.609375 66.109375 42.828125 66.109375 
Q 29.4375 66.109375 22.71875 58.640625 
Q 16.015625 51.171875 16.015625 36.375 
Q 16.015625 21.625 22.71875 14.15625 
Q 29.4375 6.6875 42.828125 6.6875 
Q 48.046875 6.6875 52.140625 7.59375 
Q 56.25 8.5 59.515625 10.40625 
z
" id="DejaVuSans-71"/>
     <path d="M 54.890625 33.015625 
L 54.890625 0 
L 45.90625 0 
L 45.90625 32.71875 
Q 45.90625 40.484375 42.875 44.328125 
Q 39.84375 48.1875 33.796875 48.1875 
Q 26.515625 48.1875 22.3125 43.546875 
Q 18.109375 38.921875 18.109375 30.90625 
L 18.109375 0 
L 9.078125 0 
L 9.078125 54.6875 
L 18.109375 54.6875 
L 18.109375 46.1875 
Q 21.34375 51.125 25.703125 53.5625 
Q 30.078125 56 35.796875 56 
Q 45.21875 56 50.046875 50.171875 
Q 54.890625 44.34375 54.890625 33.015625 
z
" id="DejaVuSans-110"/>
     <path id="DejaVuSans-32"/>
     <path d="M 11.71875 12.40625 
L 22.015625 12.40625 
L 22.015625 0 
L 11.71875 0 
z
M 11.71875 51.703125 
L 22.015625 51.703125 
L 22.015625 39.3125 
L 11.71875 39.3125 
z
" id="DejaVuSans-58"/>
     <path d="M 11.71875 12.40625 
L 22.015625 12.40625 
L 22.015625 4 
L 14.015625 -11.625 
L 7.71875 -11.625 
L 11.71875 4 
z
" id="DejaVuSans-44"/>
     <path d="M 48.6875 27.296875 
Q 48.6875 37.203125 44.609375 42.84375 
Q 40.53125 48.484375 33.40625 48.484375 
Q 26.265625 48.484375 22.1875 42.84375 
Q 18.109375 37.203125 18.109375 27.296875 
Q 18.109375 17.390625 22.1875 11.75 
Q 26.265625 6.109375 33.40625 6.109375 
Q 40.53125 6.109375 44.609375 11.75 
Q 48.6875 17.390625 48.6875 27.296875 
z
M 18.109375 46.390625 
Q 20.953125 51.265625 25.265625 53.625 
Q 29.59375 56 35.59375 56 
Q 45.5625 56 51.78125 48.09375 
Q 58.015625 40.1875 58.015625 27.296875 
Q 58.015625 14.40625 51.78125 6.484375 
Q 45.5625 -1.421875 35.59375 -1.421875 
Q 29.59375 -1.421875 25.265625 0.953125 
Q 20.953125 3.328125 18.109375 8.203125 
L 18.109375 0 
L 9.078125 0 
L 9.078125 75.984375 
L 18.109375 75.984375 
z
" id="DejaVuSans-98"/>
     <path d="M 9.078125 75.984375 
L 18.109375 75.984375 
L 18.109375 31.109375 
L 44.921875 54.6875 
L 56.390625 54.6875 
L 27.390625 29.109375 
L 57.625 0 
L 45.90625 0 
L 18.109375 26.703125 
L 18.109375 0 
L 9.078125 0 
z
" id="DejaVuSans-107"/>
    </defs>
    <use xlink:href="#DejaVuSans-71"/>
    <use x="77.490234" xlink:href="#DejaVuSans-101"/>
    <use x="139.013672" xlink:href="#DejaVuSans-103"/>
    <use x="202.490234" xlink:href="#DejaVuSans-101"/>
    <use x="264.013672" xlink:href="#DejaVuSans-110"/>
    <use x="327.392578" xlink:href="#DejaVuSans-101"/>
    <use x="388.916016" xlink:href="#DejaVuSans-114"/>
    <use x="427.779297" xlink:href="#DejaVuSans-101"/>
    <use x="489.302734" xlink:href="#DejaVuSans-101"/>
    <use x="550.826172" xlink:href="#DejaVuSans-114"/>
    <use x="590.189453" xlink:href="#DejaVuSans-100"/>
    <use x="653.666016" xlink:href="#DejaVuSans-32"/>
    <use x="685.453125" xlink:href="#DejaVuSans-111"/>
    <use x="746.634766" xlink:href="#DejaVuSans-112"/>
    <use x="810.111328" xlink:href="#DejaVuSans-32"/>
    <use x="841.898438" xlink:href="#DejaVuSans-50"/>
    <use x="905.521484" xlink:href="#DejaVuSans-48"/>
    <use x="969.144531" xlink:href="#DejaVuSans-50"/>
    <use x="1032.767578" xlink:href="#DejaVuSans-50"/>
    <use x="1096.390625" xlink:href="#DejaVuSans-45"/>
    <use x="1132.474609" xlink:href="#DejaVuSans-49"/>
    <use x="1196.097656" xlink:href="#DejaVuSans-48"/>
    <use x="1259.720703" xlink:href="#DejaVuSans-45"/>
    <use x="1295.804688" xlink:href="#DejaVuSans-50"/>
    <use x="1359.427734" xlink:href="#DejaVuSans-52"/>
    <use x="1423.050781" xlink:href="#DejaVuSans-32"/>
    <use x="1454.837891" xlink:href="#DejaVuSans-49"/>
    <use x="1518.460938" xlink:href="#DejaVuSans-53"/>
    <use x="1582.083984" xlink:href="#DejaVuSans-58"/>
    <use x="1615.775391" xlink:href="#DejaVuSans-52"/>
    <use x="1679.398438" xlink:href="#DejaVuSans-51"/>
    <use x="1743.021484" xlink:href="#DejaVuSans-44"/>
    <use x="1774.808594" xlink:href="#DejaVuSans-32"/>
    <use x="1806.595703" xlink:href="#DejaVuSans-82"/>
    <use x="1876.078125" xlink:href="#DejaVuSans-116"/>
    <use x="1915.287109" xlink:href="#DejaVuSans-32"/>
    <use x="1947.074219" xlink:href="#DejaVuSans-98"/>
    <use x="2010.550781" xlink:href="#DejaVuSans-101"/>
    <use x="2072.074219" xlink:href="#DejaVuSans-114"/>
    <use x="2110.9375" xlink:href="#DejaVuSans-101"/>
    <use x="2172.460938" xlink:href="#DejaVuSans-107"/>
    <use x="2226.746094" xlink:href="#DejaVuSans-101"/>
    <use x="2288.269531" xlink:href="#DejaVuSans-110"/>
    <use x="2351.648438" xlink:href="#DejaVuSans-100"/>
    <use x="2415.125" xlink:href="#DejaVuSans-32"/>
    <use x="2446.912109" xlink:href="#DejaVuSans-116"/>
    <use x="2486.121094" xlink:href="#DejaVuSans-111"/>
    <use x="2547.302734" xlink:href="#DejaVuSans-116"/>
    <use x="2586.511719" xlink:href="#DejaVuSans-32"/>
    <use x="2618.298828" xlink:href="#DejaVuSans-50"/>
    <use x="2681.921875" xlink:href="#DejaVuSans-48"/>
    <use x="2745.544922" xlink:href="#DejaVuSans-50"/>
    <use x="2809.167969" xlink:href="#DejaVuSans-50"/>
    <use x="2872.791016" xlink:href="#DejaVuSans-45"/>
    <use x="2908.875" xlink:href="#DejaVuSans-49"/>
    <use x="2972.498047" xlink:href="#DejaVuSans-48"/>
    <use x="3036.121094" xlink:href="#DejaVuSans-45"/>
    <use x="3072.205078" xlink:href="#DejaVuSans-48"/>
    <use x="3135.828125" xlink:href="#DejaVuSans-55"/>
    <use x="3199.451172" xlink:href="#DejaVuSans-46"/>
   </g>
   <!-- Source code: http://github.com/realrolfje/coronadata -->
   <g style="fill:#808080;" transform="translate(7.2 213.84)scale(0.08 -0.08)">
    <defs>
     <path d="M 53.515625 70.515625 
L 53.515625 60.890625 
Q 47.90625 63.578125 42.921875 64.890625 
Q 37.9375 66.21875 33.296875 66.21875 
Q 25.25 66.21875 20.875 63.09375 
Q 16.5 59.96875 16.5 54.203125 
Q 16.5 49.359375 19.40625 46.890625 
Q 22.3125 44.4375 30.421875 42.921875 
L 36.375 41.703125 
Q 47.40625 39.59375 52.65625 34.296875 
Q 57.90625 29 57.90625 20.125 
Q 57.90625 9.515625 50.796875 4.046875 
Q 43.703125 -1.421875 29.984375 -1.421875 
Q 24.8125 -1.421875 18.96875 -0.25 
Q 13.140625 0.921875 6.890625 3.21875 
L 6.890625 13.375 
Q 12.890625 10.015625 18.65625 8.296875 
Q 24.421875 6.59375 29.984375 6.59375 
Q 38.421875 6.59375 43.015625 9.90625 
Q 47.609375 13.234375 47.609375 19.390625 
Q 47.609375 24.75 44.3125 27.78125 
Q 41.015625 30.8125 33.5 32.328125 
L 27.484375 33.5 
Q 16.453125 35.6875 11.515625 40.375 
Q 6.59375 45.0625 6.59375 53.421875 
Q 6.59375 63.09375 13.40625 68.65625 
Q 20.21875 74.21875 32.171875 74.21875 
Q 37.3125 74.21875 42.625 73.28125 
Q 47.953125 72.359375 53.515625 70.515625 
z
" id="DejaVuSans-83"/>
     <path d="M 54.890625 33.015625 
L 54.890625 0 
L 45.90625 0 
L 45.90625 32.71875 
Q 45.90625 40.484375 42.875 44.328125 
Q 39.84375 48.1875 33.796875 48.1875 
Q 26.515625 48.1875 22.3125 43.546875 
Q 18.109375 38.921875 18.109375 30.90625 
L 18.109375 0 
L 9.078125 0 
L 9.078125 75.984375 
L 18.109375 75.984375 
L 18.109375 46.1875 
Q 21.34375 51.125 25.703125 53.5625 
Q 30.078125 56 35.796875 56 
Q 45.21875 56 50.046875 50.171875 
Q 54.890625 44.34375 54.890625 33.015625 
z
" id="DejaVuSans-104"/>
     <path d="M 25.390625 72.90625 
L 33.6875 72.90625 
L 8.296875 -9.28125 
L 0 -9.28125 
z
" id="DejaVuSans-47"/>
     <path d="M 37.109375 75.984375 
L 37.109375 68.5 
L 28.515625 68.5 
Q 23.6875 68.5 21.796875 66.546875 
Q 19.921875 64.59375 19.921875 59.515625 
L 19.921875 54.6875 
L 34.71875 54.6875 
L 34.71875 47.703125 
L 19.921875 47.703125 
L 19.921875 0 
L 10.890625 0 
L 10.890625 47.703125 
L 2.296875 47.703125 
L 2.296875 54.6875 
L 10.890625 54.6875 
L 10.890625 58.5 
Q 10.890625 67.625 15.140625 71.796875 
Q 19.390625 75.984375 28.609375 75.984375 
z
" id="DejaVuSans-102"/>
     <path d="M 9.421875 54.6875 
L 18.40625 54.6875 
L 18.40625 -0.984375 
Q 18.40625 -11.421875 14.421875 -16.109375 
Q 10.453125 -20.796875 1.609375 -20.796875 
L -1.8125 -20.796875 
L -1.8125 -13.1875 
L 0.59375 -13.1875 
Q 5.71875 -13.1875 7.5625 -10.8125 
Q 9.421875 -8.453125 9.421875 -0.984375 
z
M 9.421875 75.984375 
L 18.40625 75.984375 
L 18.40625 64.59375 
L 9.421875 64.59375 
z
" id="DejaVuSans-106"/>
    </defs>
    <use xlink:href="#DejaVuSans-83"/>
    <use x="63.476562" xlink:href="#DejaVuSans-111"/>
    <use x="124.658203" xlink:href="#DejaVuSans-117"/>
    <use x="188.037109" xlink:href="#DejaVuSans-114"/>
    <use x="226.900391" xlink:href="#DejaVuSans-99"/>
    <use x="281.880859" xlink:href="#DejaVuSans-101"/>
    <use x="343.404297" xlink:href="#DejaVuSans-32"/>
    <use x="375.191406" xlink:href="#DejaVuSans-99"/>
    <use x="430.171875" xlink:href="#DejaVuSans-111"/>
    <use x="491.353516" xlink:href="#DejaVuSans-100"/>
    <use x="554.830078" xlink:href="#DejaVuSans-101"/>
    <use x="616.353516" xlink:href="#DejaVuSans-58"/>
    <use x="650.044922" xlink:href="#DejaVuSans-32"/>
    <use x="681.832031" xlink:href="#DejaVuSans-104"/>
    <use x="745.210938" xlink:href="#DejaVuSans-116"/>
    <use x="784.419922" xlink:href="#DejaVuSans-116"/>
    <use x="823.628906" xlink:href="#DejaVuSans-112"/>
    <use x="887.105469" xlink:href="#DejaVuSans-58"/>
    <use x="920.796875" xlink:href="#DejaVuSans-47"/>
    <use x="954.488281" xlink:href="#DejaVuSans-47"/>
    <use x="988.179688" xlink:href="#DejaVuSans-103"/>
    <use x="1051.65625" xlink:href="#DejaVuSans-105"/>
    <use x="1079.439453" xlink:href="#DejaVuSans-116"/>
    <use x="1118.648438" xlink:href="#DejaVuSans-104"/>
    <use x="1182.027344" xlink:href="#DejaVuSans-117"/>
    <use x="1245.40625" xlink:href="#DejaVuSans-98"/>
    <use x="1308.882812" xlink:href="#DejaVuSans-46"/>
    <use x="1340.669922" xlink:href="#DejaVuSans-99"/>
    <use x="1395.650391" xlink:href="#DejaVuSans-111"/>
    <use x="1456.832031" xlink:href="#DejaVuSans-109"/>
    <use x="1554.244141" xlink:href="#DejaVuSans-47"/>
    <use x="1587.935547" xlink:href="#DejaVuSans-114"/>
    <use x="1626.798828" xlink:href="#DejaVuSans-101"/>
    <use x="1688.322266" xlink:href="#DejaVuSans-97"/>
    <use x="1749.601562" xlink:href="#DejaVuSans-108"/>
    <use x="1777.384766" xlink:href="#DejaVuSans-114"/>
    <use x="1816.248047" xlink:href="#DejaVuSans-111"/>
    <use x="1877.429688" xlink:href="#DejaVuSans-108"/>
    <use x="1905.212891" xlink:href="#DejaVuSans-102"/>
    <use x="1940.417969" xlink:href="#DejaVuSans-106"/>
    <use x="1968.201172" xlink:href="#DejaVuSans-101"/>
    <use x="2029.724609" xlink:href="#DejaVuSans-47"/>
    <use x="2063.416016" xlink:href="#DejaVuSans-99"/>
    <use x="2118.396484" xlink:href="#DejaVuSans-111"/>
    <use x="2179.578125" xlink:href="#DejaVuSans-114"/>
    <use x="2218.441406" xlink:href="#DejaVuSans-111"/>
    <use x="2279.623047" xlink:href="#DejaVuSans-110"/>
    <use x="2343.001953" xlink:href="#DejaVuSans-97"/>
    <use x="2404.28125" xlink:href="#DejaVuSans-100"/>
    <use x="2467.757812" xlink:href="#DejaVuSans-97"/>
    <use x="2529.037109" xlink:href="#DejaVuSans-116"/>
    <use x="2568.246094" xlink:href="#DejaVuSans-97"/>
   </g>
  </g>
  <g id="text_25">
   <!-- Bron: https://data.rivm.nl/covid-19 -->
   <g style="fill:#808080;" transform="translate(574.79875 213.84)scale(0.08 -0.08)">
    <defs>
     <path d="M 19.671875 34.8125 
L 19.671875 8.109375 
L 35.5 8.109375 
Q 43.453125 8.109375 47.28125 11.40625 
Q 51.125 14.703125 51.125 21.484375 
Q 51.125 28.328125 47.28125 31.5625 
Q 43.453125 34.8125 35.5 34.8125 
z
M 19.671875 64.796875 
L 19.671875 42.828125 
L 34.28125 42.828125 
Q 41.5 42.828125 45.03125 45.53125 
Q 48.578125 48.25 48.578125 53.8125 
Q 48.578125 59.328125 45.03125 62.0625 
Q 41.5 64.796875 34.28125 64.796875 
z
M 9.8125 72.90625 
L 35.015625 72.90625 
Q 46.296875 72.90625 52.390625 68.21875 
Q 58.5 63.53125 58.5 54.890625 
Q 58.5 48.1875 55.375 44.234375 
Q 52.25 40.28125 46.1875 39.3125 
Q 53.46875 37.75 57.5 32.78125 
Q 61.53125 27.828125 61.53125 20.40625 
Q 61.53125 10.640625 54.890625 5.3125 
Q 48.25 0 35.984375 0 
L 9.8125 0 
z
" id="DejaVuSans-66"/>
     <path d="M 44.28125 53.078125 
L 44.28125 44.578125 
Q 40.484375 46.53125 36.375 47.5 
Q 32.28125 48.484375 27.875 48.484375 
Q 21.1875 48.484375 17.84375 46.4375 
Q 14.5 44.390625 14.5 40.28125 
Q 14.5 37.15625 16.890625 35.375 
Q 19.28125 33.59375 26.515625 31.984375 
L 29.59375 31.296875 
Q 39.15625 29.25 43.1875 25.515625 
Q 47.21875 21.78125 47.21875 15.09375 
Q 47.21875 7.46875 41.1875 3.015625 
Q 35.15625 -1.421875 24.609375 -1.421875 
Q 20.21875 -1.421875 15.453125 -0.5625 
Q 10.6875 0.296875 5.421875 2 
L 5.421875 11.28125 
Q 10.40625 8.6875 15.234375 7.390625 
Q 20.0625 6.109375 24.8125 6.109375 
Q 31.15625 6.109375 34.5625 8.28125 
Q 37.984375 10.453125 37.984375 14.40625 
Q 37.984375 18.0625 35.515625 20.015625 
Q 33.0625 21.96875 24.703125 23.78125 
L 21.578125 24.515625 
Q 13.234375 26.265625 9.515625 29.90625 
Q 5.8125 33.546875 5.8125 39.890625 
Q 5.8125 47.609375 11.28125 51.796875 
Q 16.75 56 26.8125 56 
Q 31.78125 56 36.171875 55.265625 
Q 40.578125 54.546875 44.28125 53.078125 
z
" id="DejaVuSans-115"/>
     <path d="M 2.984375 54.6875 
L 12.5 54.6875 
L 29.59375 8.796875 
L 46.6875 54.6875 
L 56.203125 54.6875 
L 35.6875 0 
L 23.484375 0 
z
" id="DejaVuSans-118"/>
     <path d="M 10.984375 1.515625 
L 10.984375 10.5 
Q 14.703125 8.734375 18.5 7.8125 
Q 22.3125 6.890625 25.984375 6.890625 
Q 35.75 6.890625 40.890625 13.453125 
Q 46.046875 20.015625 46.78125 33.40625 
Q 43.953125 29.203125 39.59375 26.953125 
Q 35.25 24.703125 29.984375 24.703125 
Q 19.046875 24.703125 12.671875 31.3125 
Q 6.296875 37.9375 6.296875 49.421875 
Q 6.296875 60.640625 12.9375 67.421875 
Q 19.578125 74.21875 30.609375 74.21875 
Q 43.265625 74.21875 49.921875 64.515625 
Q 56.59375 54.828125 56.59375 36.375 
Q 56.59375 19.140625 48.40625 8.859375 
Q 40.234375 -1.421875 26.421875 -1.421875 
Q 22.703125 -1.421875 18.890625 -0.6875 
Q 15.09375 0.046875 10.984375 1.515625 
z
M 30.609375 32.421875 
Q 37.25 32.421875 41.125 36.953125 
Q 45.015625 41.5 45.015625 49.421875 
Q 45.015625 57.28125 41.125 61.84375 
Q 37.25 66.40625 30.609375 66.40625 
Q 23.96875 66.40625 20.09375 61.84375 
Q 16.21875 57.28125 16.21875 49.421875 
Q 16.21875 41.5 20.09375 36.953125 
Q 23.96875 32.421875 30.609375 32.421875 
z
" id="DejaVuSans-57"/>
    </defs>
    <use xlink:href="#DejaVuSans-66"/>
    <use x="68.603516" xlink:href="#DejaVuSans-114"/>
    <use x="107.466797" xlink:href="#DejaVuSans-111"/>
    <use x="168.648438" xlink:href="#DejaVuSans-110"/>
    <use x="232.027344" xlink:href="#DejaVuSans-58"/>
    <use x="265.71875" xlink:href="#DejaVuSans-32"/>
    <use x="297.505859" xlink:href="#DejaVuSans-104"/>
    <use x="360.884766" xlink:href="#DejaVuSans-116"/>
    <use x="400.09375" xlink:href="#DejaVuSans-116"/>
    <use x="439.302734" xlink:href="#DejaVuSans-112"/>
    <use x="502.779297" xlink:href="#DejaVuSans-115"/>
    <use x="554.878906" xlink:href="#DejaVuSans-58"/>
    <use x="588.570312" xlink:href="#DejaVuSans-47"/>
    <use x="622.261719" xlink:href="#DejaVuSans-47"/>
    <use x="655.953125" xlink:href="#DejaVuSans-100"/>
    <use x="719.429688" xlink:href="#DejaVuSans-97"/>
    <use x="780.708984" xlink:href="#DejaVuSans-116"/>
    <use x="819.917969" xlink:href="#DejaVuSans-97"/>
    <use x="881.197266" xlink:href="#DejaVuSans-46"/>
    <use x="912.984375" xlink:href="#DejaVuSans-114"/>
    <use x="954.097656" xlink:href="#DejaVuSans-105"/>
    <use x="981.880859" xlink:href="#DejaVuSans-118"/>
    <use x="1041.060547" xlink:href="#DejaVuSans-109"/>
    <use x="1138.472656" xlink:href="#DejaVuSans-46"/>
    <use x="1170.259766" xlink:href="#DejaVuSans-110"/>
    <use x="1233.638672" xlink:href="#DejaVuSans-108"/>
    <use x="1261.421875" xlink:href="#DejaVuSans-47"/>
    <use x="1295.113281" xlink:href="#DejaVuSans-99"/>
    <use x="1350.09375" xlink:href="#DejaVuSans-111"/>
    <use x="1411.275391" xlink:href="#DejaVuSans-118"/>
    <use x="1470.455078" xlink:href="#DejaVuSans-105"/>
    <use x="1498.238281" xlink:href="#DejaVuSans-100"/>
    <use x="1561.714844" xlink:href="#DejaVuSans-45"/>
    <use x="1597.798828" xlink:href="#DejaVuSans-49"/>
    <use x="1661.421875" xlink:href="#DejaVuSans-57"/>
   </g>
  </g>
 </g>
 <defs>
  <clipPath id="pf5292b19c1">
   <rect height="146.88" width="590.4" x="64.8" y="25.92"/>
  </clipPath>
 </defs>
</svg>
