<?xml version="1.0" encoding="utf-8" standalone="no"?>
<!DOCTYPE svg PUBLIC "-//W3C//DTD SVG 1.1//EN"
  "http://www.w3.org/Graphics/SVG/1.1/DTD/svg11.dtd">
<!-- Created with matplotlib (https://matplotlib.org/) -->
<svg height="216pt" version="1.1" viewBox="0 0 720 216" width="720pt" xmlns="http://www.w3.org/2000/svg" xmlns:xlink="http://www.w3.org/1999/xlink">
 <metadata>
  <rdf:RDF xmlns:cc="http://creativecommons.org/ns#" xmlns:dc="http://purl.org/dc/elements/1.1/" xmlns:rdf="http://www.w3.org/1999/02/22-rdf-syntax-ns#">
   <cc:Work>
    <dc:type rdf:resource="http://purl.org/dc/dcmitype/StillImage"/>
    <dc:date>2020-11-25T23:19:18.168447</dc:date>
    <dc:format>image/svg+xml</dc:format>
    <dc:creator>
     <cc:Agent>
      <dc:title>Matplotlib v3.3.2, https://matplotlib.org/</dc:title>
     </cc:Agent>
    </dc:creator>
   </cc:Work>
  </rdf:RDF>
 </metadata>
 <defs>
  <style type="text/css">*{stroke-linecap:butt;stroke-linejoin:round;}</style>
 </defs>
 <g id="figure_1">
  <g id="patch_1">
   <path d="M 0 216 
L 720 216 
L 720 0 
L 0 0 
z
" style="fill:#ffffff;"/>
  </g>
  <g id="axes_1">
   <g id="patch_2">
    <path d="M 64.8 172.8 
L 655.2 172.8 
L 655.2 25.92 
L 64.8 25.92 
z
" style="fill:#ffffff;"/>
   </g>
   <g id="PolyCollection_1">
    <path clip-path="url(#pa380514c29)" d="M 95.873684 123.84 
L 95.873684 123.84 
L 97.815789 123.84 
L 99.757895 123.84 
L 101.7 123.84 
L 103.642105 123.84 
L 105.584211 123.84 
L 107.526316 123.84 
L 109.468421 123.84 
L 111.410526 123.84 
L 113.352632 123.84 
L 115.294737 123.84 
L 117.236842 123.84 
L 119.178947 123.84 
L 121.121053 123.84 
L 123.063158 123.84 
L 125.005263 123.84 
L 126.947368 123.84 
L 128.889474 123.84 
L 130.831579 123.84 
L 132.773684 123.84 
L 134.715789 123.84 
L 136.657895 123.84 
L 138.6 123.84 
L 140.542105 123.84 
L 142.484211 123.84 
L 144.426316 123.84 
L 146.368421 123.84 
L 148.310526 123.84 
L 149.281579 123.84 
L 148.310526 121.8816 
L 146.368421 116.0064 
L 144.426316 111.6 
L 142.484211 107.6832 
L 140.542105 102.7872 
L 138.6 96.912 
L 136.657895 91.0368 
L 134.715789 84.672 
L 132.773684 79.776 
L 130.831579 80.2656 
L 128.889474 81.7344 
L 126.947368 82.7136 
L 125.005263 83.6928 
L 123.063158 85.1616 
L 121.121053 83.2032 
L 119.178947 75.3696 
L 117.236842 69.984 
L 115.294737 71.9424 
L 113.352632 71.9424 
L 111.410526 67.536 
L 109.468421 65.088 
L 107.526316 66.0672 
L 105.584211 66.5568 
L 103.642105 73.4112 
L 101.7 87.6096 
L 99.757895 94.9536 
L 97.815789 87.6096 
L 95.873684 78.3072 
z
" style="fill:#ff0000;fill-opacity:0.3;"/>
    <path clip-path="url(#pa380514c29)" d="M 268.721053 123.84 
L 270.663158 123.84 
L 272.605263 123.84 
L 274.547368 123.84 
L 275.842105 123.84 
L 274.547368 119.9232 
L 272.605263 117.4752 
L 270.663158 119.9232 
z
" style="fill:#ff0000;fill-opacity:0.3;"/>
    <path clip-path="url(#pa380514c29)" d="M 305.232632 123.84 
L 305.621053 123.84 
L 307.563158 123.84 
L 309.505263 123.84 
L 311.447368 123.84 
L 313.389474 123.84 
L 315.331579 123.84 
L 316.920574 123.84 
L 315.331579 115.0272 
L 313.389474 109.152 
L 311.447368 111.1104 
L 309.505263 116.9856 
L 307.563158 121.392 
L 305.621053 123.3504 
z
" style="fill:#ff0000;fill-opacity:0.3;"/>
    <path clip-path="url(#pa380514c29)" d="M 334.364211 123.84 
L 334.752632 123.84 
L 336.694737 123.84 
L 338.636842 123.84 
L 339.025263 123.84 
L 338.636842 123.3504 
L 336.694737 122.3712 
L 334.752632 123.3504 
z
" style="fill:#ff0000;fill-opacity:0.3;"/>
    <path clip-path="url(#pa380514c29)" d="M 355.727368 123.84 
L 356.115789 123.84 
L 358.057895 123.84 
L 360 123.84 
L 361.942105 123.84 
L 363.884211 123.84 
L 365.826316 123.84 
L 367.768421 123.84 
L 369.710526 123.84 
L 371.652632 123.84 
L 373.594737 123.84 
L 375.536842 123.84 
L 377.478947 123.84 
L 379.421053 123.84 
L 381.363158 123.84 
L 383.305263 123.84 
L 385.247368 123.84 
L 387.189474 123.84 
L 389.131579 123.84 
L 391.073684 123.84 
L 393.015789 123.84 
L 394.957895 123.84 
L 396.9 123.84 
L 398.842105 123.84 
L 400.784211 123.84 
L 402.726316 123.84 
L 404.668421 123.84 
L 406.610526 123.84 
L 408.552632 123.84 
L 410.494737 123.84 
L 412.436842 123.84 
L 414.378947 123.84 
L 416.321053 123.84 
L 418.263158 123.84 
L 420.205263 123.84 
L 422.147368 123.84 
L 423.312632 123.84 
L 422.147368 122.3712 
L 420.205263 118.944 
L 418.263158 115.0272 
L 416.321053 112.5792 
L 414.378947 111.6 
L 412.436842 112.0896 
L 410.494737 112.5792 
L 408.552632 111.6 
L 406.610526 108.6624 
L 404.668421 104.7456 
L 402.726316 103.2768 
L 400.784211 103.7664 
L 398.842105 106.704 
L 396.9 109.152 
L 394.957895 109.6416 
L 393.015789 109.152 
L 391.073684 108.6624 
L 389.131579 110.1312 
L 387.189474 113.0688 
L 385.247368 115.5168 
L 383.305263 116.0064 
L 381.363158 113.0688 
L 379.421053 107.6832 
L 377.478947 103.7664 
L 375.536842 102.7872 
L 373.594737 103.7664 
L 371.652632 105.2352 
L 369.710526 105.7248 
L 367.768421 104.256 
L 365.826316 102.2976 
L 363.884211 101.3184 
L 361.942105 104.7456 
L 360 111.6 
L 358.057895 118.4544 
L 356.115789 123.3504 
z
" style="fill:#ff0000;fill-opacity:0.3;"/>
    <path clip-path="url(#pa380514c29)" d="M 450.307895 123.84 
L 451.278947 123.84 
L 453.221053 123.84 
L 455.163158 123.84 
L 457.105263 123.84 
L 459.047368 123.84 
L 460.989474 123.84 
L 462.931579 123.84 
L 464.873684 123.84 
L 466.815789 123.84 
L 468.757895 123.84 
L 470.7 123.84 
L 472.642105 123.84 
L 474.584211 123.84 
L 476.526316 123.84 
L 478.468421 123.84 
L 480.410526 123.84 
L 482.352632 123.84 
L 484.294737 123.84 
L 486.236842 123.84 
L 488.178947 123.84 
L 490.121053 123.84 
L 492.063158 123.84 
L 494.005263 123.84 
L 495.947368 123.84 
L 497.889474 123.84 
L 499.831579 123.84 
L 501.773684 123.84 
L 503.715789 123.84 
L 505.657895 123.84 
L 507.6 123.84 
L 509.542105 123.84 
L 511.484211 123.84 
L 513.426316 123.84 
L 515.368421 123.84 
L 517.310526 123.84 
L 519.252632 123.84 
L 521.194737 123.84 
L 523.136842 123.84 
L 525.078947 123.84 
L 527.021053 123.84 
L 528.963158 123.84 
L 530.905263 123.84 
L 532.847368 123.84 
L 534.789474 123.84 
L 536.731579 123.84 
L 538.673684 123.84 
L 540.615789 123.84 
L 542.557895 123.84 
L 544.5 123.84 
L 546.442105 123.84 
L 548.384211 123.84 
L 550.326316 123.84 
L 552.268421 123.84 
L 554.210526 123.84 
L 556.152632 123.84 
L 558.094737 123.84 
L 560.036842 123.84 
L 561.978947 123.84 
L 563.921053 123.84 
L 565.863158 123.84 
L 567.805263 123.84 
L 569.747368 123.84 
L 570.912632 123.84 
L 569.747368 122.3712 
L 567.805263 120.9024 
L 565.863158 119.9232 
L 563.921053 119.9232 
L 561.978947 119.9232 
L 560.036842 119.9232 
L 558.094737 119.4336 
L 556.152632 118.4544 
L 554.210526 117.4752 
L 552.268421 117.4752 
L 550.326316 117.9648 
L 548.384211 118.944 
L 546.442105 118.944 
L 544.5 118.944 
L 542.557895 117.4752 
L 540.615789 115.5168 
L 538.673684 114.5376 
L 536.731579 113.5584 
L 534.789474 112.5792 
L 532.847368 111.1104 
L 530.905263 109.6416 
L 528.963158 108.1728 
L 527.021053 107.1936 
L 525.078947 108.1728 
L 523.136842 110.1312 
L 521.194737 113.0688 
L 519.252632 115.0272 
L 517.310526 116.0064 
L 515.368421 115.5168 
L 513.426316 114.5376 
L 511.484211 114.5376 
L 509.542105 115.5168 
L 507.6 116.496 
L 505.657895 116.496 
L 503.715789 115.0272 
L 501.773684 112.5792 
L 499.831579 110.1312 
L 497.889474 109.6416 
L 495.947368 110.6208 
L 494.005263 112.0896 
L 492.063158 112.5792 
L 490.121053 112.0896 
L 488.178947 109.6416 
L 486.236842 107.6832 
L 484.294737 106.704 
L 482.352632 106.704 
L 480.410526 107.1936 
L 478.468421 107.1936 
L 476.526316 106.2144 
L 474.584211 103.7664 
L 472.642105 102.2976 
L 470.7 104.7456 
L 468.757895 108.6624 
L 466.815789 112.5792 
L 464.873684 115.0272 
L 462.931579 115.5168 
L 460.989474 115.5168 
L 459.047368 115.5168 
L 457.105263 116.9856 
L 455.163158 118.944 
L 453.221053 120.9024 
L 451.278947 123.3504 
z
" style="fill:#ff0000;fill-opacity:0.3;"/>
    <path clip-path="url(#pa380514c29)" d="M 605.352632 123.84 
L 606.647368 123.84 
L 606.647368 123.84 
L 606.647368 122.8608 
z
" style="fill:#ff0000;fill-opacity:0.3;"/>
   </g>
   <g id="PolyCollection_2">
    <path clip-path="url(#pa380514c29)" d="M 149.281579 123.84 
L 150.252632 123.84 
L 152.194737 123.84 
L 154.136842 123.84 
L 156.078947 123.84 
L 158.021053 123.84 
L 159.963158 123.84 
L 161.905263 123.84 
L 163.847368 123.84 
L 165.789474 123.84 
L 167.731579 123.84 
L 169.673684 123.84 
L 171.615789 123.84 
L 173.557895 123.84 
L 175.5 123.84 
L 177.442105 123.84 
L 179.384211 123.84 
L 181.326316 123.84 
L 183.268421 123.84 
L 185.210526 123.84 
L 187.152632 123.84 
L 189.094737 123.84 
L 191.036842 123.84 
L 192.978947 123.84 
L 194.921053 123.84 
L 196.863158 123.84 
L 198.805263 123.84 
L 200.747368 123.84 
L 202.689474 123.84 
L 204.631579 123.84 
L 206.573684 123.84 
L 208.515789 123.84 
L 210.457895 123.84 
L 212.4 123.84 
L 214.342105 123.84 
L 216.284211 123.84 
L 218.226316 123.84 
L 220.168421 123.84 
L 222.110526 123.84 
L 224.052632 123.84 
L 225.994737 123.84 
L 227.936842 123.84 
L 229.878947 123.84 
L 231.821053 123.84 
L 233.763158 123.84 
L 235.705263 123.84 
L 237.647368 123.84 
L 239.589474 123.84 
L 241.531579 123.84 
L 243.473684 123.84 
L 245.415789 123.84 
L 247.357895 123.84 
L 249.3 123.84 
L 251.242105 123.84 
L 253.184211 123.84 
L 255.126316 123.84 
L 257.068421 123.84 
L 259.010526 123.84 
L 260.952632 123.84 
L 262.894737 123.84 
L 264.836842 123.84 
L 266.778947 123.84 
L 268.721053 123.84 
L 268.721053 123.84 
L 268.721053 123.84 
L 266.778947 128.2464 
L 264.836842 131.6736 
L 262.894737 133.632 
L 260.952632 134.6112 
L 259.010526 135.1008 
L 257.068421 134.6112 
L 255.126316 133.1424 
L 253.184211 132.6528 
L 251.242105 132.6528 
L 249.3 132.1632 
L 247.357895 132.1632 
L 245.415789 133.632 
L 243.473684 135.5904 
L 241.531579 137.5488 
L 239.589474 139.0176 
L 237.647368 139.0176 
L 235.705263 138.0384 
L 233.763158 137.5488 
L 231.821053 137.0592 
L 229.878947 136.08 
L 227.936842 135.1008 
L 225.994737 135.1008 
L 224.052632 135.1008 
L 222.110526 136.5696 
L 220.168421 137.5488 
L 218.226316 138.528 
L 216.284211 137.5488 
L 214.342105 136.08 
L 212.4 135.1008 
L 210.457895 135.1008 
L 208.515789 135.5904 
L 206.573684 136.5696 
L 204.631579 137.5488 
L 202.689474 138.528 
L 200.747368 139.0176 
L 198.805263 138.528 
L 196.863158 137.0592 
L 194.921053 134.6112 
L 192.978947 133.1424 
L 191.036842 134.1216 
L 189.094737 135.1008 
L 187.152632 136.08 
L 185.210526 137.5488 
L 183.268421 139.0176 
L 181.326316 139.0176 
L 179.384211 138.0384 
L 177.442105 136.08 
L 175.5 135.5904 
L 173.557895 135.5904 
L 171.615789 136.5696 
L 169.673684 137.5488 
L 167.731579 138.0384 
L 165.789474 138.0384 
L 163.847368 137.5488 
L 161.905263 136.08 
L 159.963158 134.1216 
L 158.021053 133.1424 
L 156.078947 131.6736 
L 154.136842 129.7152 
L 152.194737 127.7568 
L 150.252632 125.7984 
z
" style="fill:#008000;fill-opacity:0.3;"/>
    <path clip-path="url(#pa380514c29)" d="M 275.842105 123.84 
L 276.489474 123.84 
L 278.431579 123.84 
L 280.373684 123.84 
L 282.315789 123.84 
L 284.257895 123.84 
L 286.2 123.84 
L 288.142105 123.84 
L 290.084211 123.84 
L 292.026316 123.84 
L 293.968421 123.84 
L 295.910526 123.84 
L 297.852632 123.84 
L 299.794737 123.84 
L 301.736842 123.84 
L 303.678947 123.84 
L 305.232632 123.84 
L 303.678947 125.7984 
L 301.736842 132.6528 
L 299.794737 139.9968 
L 297.852632 144.4032 
L 295.910526 147.3408 
L 293.968421 149.2992 
L 292.026316 149.2992 
L 290.084211 145.3824 
L 288.142105 139.5072 
L 286.2 137.0592 
L 284.257895 133.632 
L 282.315789 129.7152 
L 280.373684 129.7152 
L 278.431579 129.7152 
L 276.489474 125.7984 
z
" style="fill:#008000;fill-opacity:0.3;"/>
    <path clip-path="url(#pa380514c29)" d="M 316.920574 123.84 
L 317.273684 123.84 
L 319.215789 123.84 
L 321.157895 123.84 
L 323.1 123.84 
L 325.042105 123.84 
L 326.984211 123.84 
L 328.926316 123.84 
L 330.868421 123.84 
L 332.810526 123.84 
L 334.364211 123.84 
L 332.810526 125.7984 
L 330.868421 129.7152 
L 328.926316 133.1424 
L 326.984211 135.5904 
L 325.042105 137.0592 
L 323.1 137.0592 
L 321.157895 136.08 
L 319.215789 133.632 
L 317.273684 125.7984 
z
" style="fill:#008000;fill-opacity:0.3;"/>
    <path clip-path="url(#pa380514c29)" d="M 339.025263 123.84 
L 340.578947 123.84 
L 342.521053 123.84 
L 344.463158 123.84 
L 346.405263 123.84 
L 348.347368 123.84 
L 350.289474 123.84 
L 352.231579 123.84 
L 354.173684 123.84 
L 355.727368 123.84 
L 354.173684 125.7984 
L 352.231579 126.288 
L 350.289474 126.7776 
L 348.347368 127.2672 
L 346.405263 128.2464 
L 344.463158 128.736 
L 342.521053 127.7568 
L 340.578947 125.7984 
z
" style="fill:#008000;fill-opacity:0.3;"/>
    <path clip-path="url(#pa380514c29)" d="M 423.312632 123.84 
L 424.089474 123.84 
L 426.031579 123.84 
L 427.973684 123.84 
L 429.915789 123.84 
L 431.857895 123.84 
L 433.8 123.84 
L 435.742105 123.84 
L 437.684211 123.84 
L 439.626316 123.84 
L 441.568421 123.84 
L 443.510526 123.84 
L 445.452632 123.84 
L 447.394737 123.84 
L 449.336842 123.84 
L 450.307895 123.84 
L 449.336842 124.3296 
L 447.394737 124.8192 
L 445.452632 125.7984 
L 443.510526 126.7776 
L 441.568421 127.2672 
L 439.626316 127.7568 
L 437.684211 127.7568 
L 435.742105 126.7776 
L 433.8 125.7984 
L 431.857895 125.3088 
L 429.915789 125.7984 
L 427.973684 126.288 
L 426.031579 126.288 
L 424.089474 124.8192 
z
" style="fill:#008000;fill-opacity:0.3;"/>
    <path clip-path="url(#pa380514c29)" d="M 570.912632 123.84 
L 571.689474 123.84 
L 573.631579 123.84 
L 575.573684 123.84 
L 577.515789 123.84 
L 579.457895 123.84 
L 581.4 123.84 
L 583.342105 123.84 
L 585.284211 123.84 
L 587.226316 123.84 
L 589.168421 123.84 
L 591.110526 123.84 
L 593.052632 123.84 
L 594.994737 123.84 
L 596.936842 123.84 
L 598.878947 123.84 
L 600.821053 123.84 
L 602.763158 123.84 
L 604.705263 123.84 
L 605.352632 123.84 
L 604.705263 124.3296 
L 602.763158 126.288 
L 600.821053 127.7568 
L 598.878947 129.2256 
L 596.936842 130.2048 
L 594.994737 130.2048 
L 593.052632 130.6944 
L 591.110526 131.184 
L 589.168421 131.6736 
L 587.226316 132.1632 
L 585.284211 132.1632 
L 583.342105 131.6736 
L 581.4 130.2048 
L 579.457895 129.7152 
L 577.515789 128.736 
L 575.573684 127.2672 
L 573.631579 126.288 
L 571.689474 124.8192 
z
" style="fill:#008000;fill-opacity:0.3;"/>
   </g>
   <g id="matplotlib.axis_1">
    <g id="xtick_1">
     <g id="line2d_1">
      <path clip-path="url(#pa380514c29)" d="M 64.8 172.8 
L 64.8 25.92 
" style="fill:none;stroke:#808080;stroke-dasharray:6.4,1.6,1,1.6;stroke-dashoffset:0;stroke-opacity:0.3;"/>
     </g>
     <g id="line2d_2">
      <defs>
       <path d="M 0 0 
L 0 3.5 
" id="mbf61f8b570" style="stroke:#000000;stroke-width:0.8;"/>
      </defs>
      <g>
       <use style="stroke:#000000;stroke-width:0.8;" x="64.8" xlink:href="#mbf61f8b570" y="172.8"/>
      </g>
     </g>
     <g id="text_1">
      <!-- 2020-02 -->
      <g transform="translate(43.908594 187.398438)scale(0.1 -0.1)">
       <defs>
        <path d="M 19.1875 8.296875 
L 53.609375 8.296875 
L 53.609375 0 
L 7.328125 0 
L 7.328125 8.296875 
Q 12.9375 14.109375 22.625 23.890625 
Q 32.328125 33.6875 34.8125 36.53125 
Q 39.546875 41.84375 41.421875 45.53125 
Q 43.3125 49.21875 43.3125 52.78125 
Q 43.3125 58.59375 39.234375 62.25 
Q 35.15625 65.921875 28.609375 65.921875 
Q 23.96875 65.921875 18.8125 64.3125 
Q 13.671875 62.703125 7.8125 59.421875 
L 7.8125 69.390625 
Q 13.765625 71.78125 18.9375 73 
Q 24.125 74.21875 28.421875 74.21875 
Q 39.75 74.21875 46.484375 68.546875 
Q 53.21875 62.890625 53.21875 53.421875 
Q 53.21875 48.921875 51.53125 44.890625 
Q 49.859375 40.875 45.40625 35.40625 
Q 44.1875 33.984375 37.640625 27.21875 
Q 31.109375 20.453125 19.1875 8.296875 
z
" id="DejaVuSans-50"/>
        <path d="M 31.78125 66.40625 
Q 24.171875 66.40625 20.328125 58.90625 
Q 16.5 51.421875 16.5 36.375 
Q 16.5 21.390625 20.328125 13.890625 
Q 24.171875 6.390625 31.78125 6.390625 
Q 39.453125 6.390625 43.28125 13.890625 
Q 47.125 21.390625 47.125 36.375 
Q 47.125 51.421875 43.28125 58.90625 
Q 39.453125 66.40625 31.78125 66.40625 
z
M 31.78125 74.21875 
Q 44.046875 74.21875 50.515625 64.515625 
Q 56.984375 54.828125 56.984375 36.375 
Q 56.984375 17.96875 50.515625 8.265625 
Q 44.046875 -1.421875 31.78125 -1.421875 
Q 19.53125 -1.421875 13.0625 8.265625 
Q 6.59375 17.96875 6.59375 36.375 
Q 6.59375 54.828125 13.0625 64.515625 
Q 19.53125 74.21875 31.78125 74.21875 
z
" id="DejaVuSans-48"/>
        <path d="M 4.890625 31.390625 
L 31.203125 31.390625 
L 31.203125 23.390625 
L 4.890625 23.390625 
z
" id="DejaVuSans-45"/>
       </defs>
       <use xlink:href="#DejaVuSans-50"/>
       <use x="63.623047" xlink:href="#DejaVuSans-48"/>
       <use x="127.246094" xlink:href="#DejaVuSans-50"/>
       <use x="190.869141" xlink:href="#DejaVuSans-48"/>
       <use x="254.492188" xlink:href="#DejaVuSans-45"/>
       <use x="290.576172" xlink:href="#DejaVuSans-48"/>
       <use x="354.199219" xlink:href="#DejaVuSans-50"/>
      </g>
     </g>
    </g>
    <g id="xtick_2">
     <g id="line2d_3">
      <path clip-path="url(#pa380514c29)" d="M 121.121053 172.8 
L 121.121053 25.92 
" style="fill:none;stroke:#808080;stroke-dasharray:6.4,1.6,1,1.6;stroke-dashoffset:0;stroke-opacity:0.3;"/>
     </g>
     <g id="line2d_4">
      <g>
       <use style="stroke:#000000;stroke-width:0.8;" x="121.121053" xlink:href="#mbf61f8b570" y="172.8"/>
      </g>
     </g>
     <g id="text_2">
      <!-- 2020-03 -->
      <g transform="translate(100.229646 187.398438)scale(0.1 -0.1)">
       <defs>
        <path d="M 40.578125 39.3125 
Q 47.65625 37.796875 51.625 33 
Q 55.609375 28.21875 55.609375 21.1875 
Q 55.609375 10.40625 48.1875 4.484375 
Q 40.765625 -1.421875 27.09375 -1.421875 
Q 22.515625 -1.421875 17.65625 -0.515625 
Q 12.796875 0.390625 7.625 2.203125 
L 7.625 11.71875 
Q 11.71875 9.328125 16.59375 8.109375 
Q 21.484375 6.890625 26.8125 6.890625 
Q 36.078125 6.890625 40.9375 10.546875 
Q 45.796875 14.203125 45.796875 21.1875 
Q 45.796875 27.640625 41.28125 31.265625 
Q 36.765625 34.90625 28.71875 34.90625 
L 20.21875 34.90625 
L 20.21875 43.015625 
L 29.109375 43.015625 
Q 36.375 43.015625 40.234375 45.921875 
Q 44.09375 48.828125 44.09375 54.296875 
Q 44.09375 59.90625 40.109375 62.90625 
Q 36.140625 65.921875 28.71875 65.921875 
Q 24.65625 65.921875 20.015625 65.03125 
Q 15.375 64.15625 9.8125 62.3125 
L 9.8125 71.09375 
Q 15.4375 72.65625 20.34375 73.4375 
Q 25.25 74.21875 29.59375 74.21875 
Q 40.828125 74.21875 47.359375 69.109375 
Q 53.90625 64.015625 53.90625 55.328125 
Q 53.90625 49.265625 50.4375 45.09375 
Q 46.96875 40.921875 40.578125 39.3125 
z
" id="DejaVuSans-51"/>
       </defs>
       <use xlink:href="#DejaVuSans-50"/>
       <use x="63.623047" xlink:href="#DejaVuSans-48"/>
       <use x="127.246094" xlink:href="#DejaVuSans-50"/>
       <use x="190.869141" xlink:href="#DejaVuSans-48"/>
       <use x="254.492188" xlink:href="#DejaVuSans-45"/>
       <use x="290.576172" xlink:href="#DejaVuSans-48"/>
       <use x="354.199219" xlink:href="#DejaVuSans-51"/>
      </g>
     </g>
    </g>
    <g id="xtick_3">
     <g id="line2d_5">
      <path clip-path="url(#pa380514c29)" d="M 181.326316 172.8 
L 181.326316 25.92 
" style="fill:none;stroke:#808080;stroke-dasharray:6.4,1.6,1,1.6;stroke-dashoffset:0;stroke-opacity:0.3;"/>
     </g>
     <g id="line2d_6">
      <g>
       <use style="stroke:#000000;stroke-width:0.8;" x="181.326316" xlink:href="#mbf61f8b570" y="172.8"/>
      </g>
     </g>
     <g id="text_3">
      <!-- 2020-04 -->
      <g transform="translate(160.43491 187.398438)scale(0.1 -0.1)">
       <defs>
        <path d="M 37.796875 64.3125 
L 12.890625 25.390625 
L 37.796875 25.390625 
z
M 35.203125 72.90625 
L 47.609375 72.90625 
L 47.609375 25.390625 
L 58.015625 25.390625 
L 58.015625 17.1875 
L 47.609375 17.1875 
L 47.609375 0 
L 37.796875 0 
L 37.796875 17.1875 
L 4.890625 17.1875 
L 4.890625 26.703125 
z
" id="DejaVuSans-52"/>
       </defs>
       <use xlink:href="#DejaVuSans-50"/>
       <use x="63.623047" xlink:href="#DejaVuSans-48"/>
       <use x="127.246094" xlink:href="#DejaVuSans-50"/>
       <use x="190.869141" xlink:href="#DejaVuSans-48"/>
       <use x="254.492188" xlink:href="#DejaVuSans-45"/>
       <use x="290.576172" xlink:href="#DejaVuSans-48"/>
       <use x="354.199219" xlink:href="#DejaVuSans-52"/>
      </g>
     </g>
    </g>
    <g id="xtick_4">
     <g id="line2d_7">
      <path clip-path="url(#pa380514c29)" d="M 239.589474 172.8 
L 239.589474 25.92 
" style="fill:none;stroke:#808080;stroke-dasharray:6.4,1.6,1,1.6;stroke-dashoffset:0;stroke-opacity:0.3;"/>
     </g>
     <g id="line2d_8">
      <g>
       <use style="stroke:#000000;stroke-width:0.8;" x="239.589474" xlink:href="#mbf61f8b570" y="172.8"/>
      </g>
     </g>
     <g id="text_4">
      <!-- 2020-05 -->
      <g transform="translate(218.698067 187.398438)scale(0.1 -0.1)">
       <defs>
        <path d="M 10.796875 72.90625 
L 49.515625 72.90625 
L 49.515625 64.59375 
L 19.828125 64.59375 
L 19.828125 46.734375 
Q 21.96875 47.46875 24.109375 47.828125 
Q 26.265625 48.1875 28.421875 48.1875 
Q 40.625 48.1875 47.75 41.5 
Q 54.890625 34.8125 54.890625 23.390625 
Q 54.890625 11.625 47.5625 5.09375 
Q 40.234375 -1.421875 26.90625 -1.421875 
Q 22.3125 -1.421875 17.546875 -0.640625 
Q 12.796875 0.140625 7.71875 1.703125 
L 7.71875 11.625 
Q 12.109375 9.234375 16.796875 8.0625 
Q 21.484375 6.890625 26.703125 6.890625 
Q 35.15625 6.890625 40.078125 11.328125 
Q 45.015625 15.765625 45.015625 23.390625 
Q 45.015625 31 40.078125 35.4375 
Q 35.15625 39.890625 26.703125 39.890625 
Q 22.75 39.890625 18.8125 39.015625 
Q 14.890625 38.140625 10.796875 36.28125 
z
" id="DejaVuSans-53"/>
       </defs>
       <use xlink:href="#DejaVuSans-50"/>
       <use x="63.623047" xlink:href="#DejaVuSans-48"/>
       <use x="127.246094" xlink:href="#DejaVuSans-50"/>
       <use x="190.869141" xlink:href="#DejaVuSans-48"/>
       <use x="254.492188" xlink:href="#DejaVuSans-45"/>
       <use x="290.576172" xlink:href="#DejaVuSans-48"/>
       <use x="354.199219" xlink:href="#DejaVuSans-53"/>
      </g>
     </g>
    </g>
    <g id="xtick_5">
     <g id="line2d_9">
      <path clip-path="url(#pa380514c29)" d="M 299.794737 172.8 
L 299.794737 25.92 
" style="fill:none;stroke:#808080;stroke-dasharray:6.4,1.6,1,1.6;stroke-dashoffset:0;stroke-opacity:0.3;"/>
     </g>
     <g id="line2d_10">
      <g>
       <use style="stroke:#000000;stroke-width:0.8;" x="299.794737" xlink:href="#mbf61f8b570" y="172.8"/>
      </g>
     </g>
     <g id="text_5">
      <!-- 2020-06 -->
      <g transform="translate(278.903331 187.398438)scale(0.1 -0.1)">
       <defs>
        <path d="M 33.015625 40.375 
Q 26.375 40.375 22.484375 35.828125 
Q 18.609375 31.296875 18.609375 23.390625 
Q 18.609375 15.53125 22.484375 10.953125 
Q 26.375 6.390625 33.015625 6.390625 
Q 39.65625 6.390625 43.53125 10.953125 
Q 47.40625 15.53125 47.40625 23.390625 
Q 47.40625 31.296875 43.53125 35.828125 
Q 39.65625 40.375 33.015625 40.375 
z
M 52.59375 71.296875 
L 52.59375 62.3125 
Q 48.875 64.0625 45.09375 64.984375 
Q 41.3125 65.921875 37.59375 65.921875 
Q 27.828125 65.921875 22.671875 59.328125 
Q 17.53125 52.734375 16.796875 39.40625 
Q 19.671875 43.65625 24.015625 45.921875 
Q 28.375 48.1875 33.59375 48.1875 
Q 44.578125 48.1875 50.953125 41.515625 
Q 57.328125 34.859375 57.328125 23.390625 
Q 57.328125 12.15625 50.6875 5.359375 
Q 44.046875 -1.421875 33.015625 -1.421875 
Q 20.359375 -1.421875 13.671875 8.265625 
Q 6.984375 17.96875 6.984375 36.375 
Q 6.984375 53.65625 15.1875 63.9375 
Q 23.390625 74.21875 37.203125 74.21875 
Q 40.921875 74.21875 44.703125 73.484375 
Q 48.484375 72.75 52.59375 71.296875 
z
" id="DejaVuSans-54"/>
       </defs>
       <use xlink:href="#DejaVuSans-50"/>
       <use x="63.623047" xlink:href="#DejaVuSans-48"/>
       <use x="127.246094" xlink:href="#DejaVuSans-50"/>
       <use x="190.869141" xlink:href="#DejaVuSans-48"/>
       <use x="254.492188" xlink:href="#DejaVuSans-45"/>
       <use x="290.576172" xlink:href="#DejaVuSans-48"/>
       <use x="354.199219" xlink:href="#DejaVuSans-54"/>
      </g>
     </g>
    </g>
    <g id="xtick_6">
     <g id="line2d_11">
      <path clip-path="url(#pa380514c29)" d="M 358.057895 172.8 
L 358.057895 25.92 
" style="fill:none;stroke:#808080;stroke-dasharray:6.4,1.6,1,1.6;stroke-dashoffset:0;stroke-opacity:0.3;"/>
     </g>
     <g id="line2d_12">
      <g>
       <use style="stroke:#000000;stroke-width:0.8;" x="358.057895" xlink:href="#mbf61f8b570" y="172.8"/>
      </g>
     </g>
     <g id="text_6">
      <!-- 2020-07 -->
      <g transform="translate(337.166488 187.398438)scale(0.1 -0.1)">
       <defs>
        <path d="M 8.203125 72.90625 
L 55.078125 72.90625 
L 55.078125 68.703125 
L 28.609375 0 
L 18.3125 0 
L 43.21875 64.59375 
L 8.203125 64.59375 
z
" id="DejaVuSans-55"/>
       </defs>
       <use xlink:href="#DejaVuSans-50"/>
       <use x="63.623047" xlink:href="#DejaVuSans-48"/>
       <use x="127.246094" xlink:href="#DejaVuSans-50"/>
       <use x="190.869141" xlink:href="#DejaVuSans-48"/>
       <use x="254.492188" xlink:href="#DejaVuSans-45"/>
       <use x="290.576172" xlink:href="#DejaVuSans-48"/>
       <use x="354.199219" xlink:href="#DejaVuSans-55"/>
      </g>
     </g>
    </g>
    <g id="xtick_7">
     <g id="line2d_13">
      <path clip-path="url(#pa380514c29)" d="M 418.263158 172.8 
L 418.263158 25.92 
" style="fill:none;stroke:#808080;stroke-dasharray:6.4,1.6,1,1.6;stroke-dashoffset:0;stroke-opacity:0.3;"/>
     </g>
     <g id="line2d_14">
      <g>
       <use style="stroke:#000000;stroke-width:0.8;" x="418.263158" xlink:href="#mbf61f8b570" y="172.8"/>
      </g>
     </g>
     <g id="text_7">
      <!-- 2020-08 -->
      <g transform="translate(397.371752 187.398438)scale(0.1 -0.1)">
       <defs>
        <path d="M 31.78125 34.625 
Q 24.75 34.625 20.71875 30.859375 
Q 16.703125 27.09375 16.703125 20.515625 
Q 16.703125 13.921875 20.71875 10.15625 
Q 24.75 6.390625 31.78125 6.390625 
Q 38.8125 6.390625 42.859375 10.171875 
Q 46.921875 13.96875 46.921875 20.515625 
Q 46.921875 27.09375 42.890625 30.859375 
Q 38.875 34.625 31.78125 34.625 
z
M 21.921875 38.8125 
Q 15.578125 40.375 12.03125 44.71875 
Q 8.5 49.078125 8.5 55.328125 
Q 8.5 64.0625 14.71875 69.140625 
Q 20.953125 74.21875 31.78125 74.21875 
Q 42.671875 74.21875 48.875 69.140625 
Q 55.078125 64.0625 55.078125 55.328125 
Q 55.078125 49.078125 51.53125 44.71875 
Q 48 40.375 41.703125 38.8125 
Q 48.828125 37.15625 52.796875 32.3125 
Q 56.78125 27.484375 56.78125 20.515625 
Q 56.78125 9.90625 50.3125 4.234375 
Q 43.84375 -1.421875 31.78125 -1.421875 
Q 19.734375 -1.421875 13.25 4.234375 
Q 6.78125 9.90625 6.78125 20.515625 
Q 6.78125 27.484375 10.78125 32.3125 
Q 14.796875 37.15625 21.921875 38.8125 
z
M 18.3125 54.390625 
Q 18.3125 48.734375 21.84375 45.5625 
Q 25.390625 42.390625 31.78125 42.390625 
Q 38.140625 42.390625 41.71875 45.5625 
Q 45.3125 48.734375 45.3125 54.390625 
Q 45.3125 60.0625 41.71875 63.234375 
Q 38.140625 66.40625 31.78125 66.40625 
Q 25.390625 66.40625 21.84375 63.234375 
Q 18.3125 60.0625 18.3125 54.390625 
z
" id="DejaVuSans-56"/>
       </defs>
       <use xlink:href="#DejaVuSans-50"/>
       <use x="63.623047" xlink:href="#DejaVuSans-48"/>
       <use x="127.246094" xlink:href="#DejaVuSans-50"/>
       <use x="190.869141" xlink:href="#DejaVuSans-48"/>
       <use x="254.492188" xlink:href="#DejaVuSans-45"/>
       <use x="290.576172" xlink:href="#DejaVuSans-48"/>
       <use x="354.199219" xlink:href="#DejaVuSans-56"/>
      </g>
     </g>
    </g>
    <g id="xtick_8">
     <g id="line2d_15">
      <path clip-path="url(#pa380514c29)" d="M 478.468421 172.8 
L 478.468421 25.92 
" style="fill:none;stroke:#808080;stroke-dasharray:6.4,1.6,1,1.6;stroke-dashoffset:0;stroke-opacity:0.3;"/>
     </g>
     <g id="line2d_16">
      <g>
       <use style="stroke:#000000;stroke-width:0.8;" x="478.468421" xlink:href="#mbf61f8b570" y="172.8"/>
      </g>
     </g>
     <g id="text_8">
      <!-- 2020-09 -->
      <g transform="translate(457.577015 187.398438)scale(0.1 -0.1)">
       <defs>
        <path d="M 10.984375 1.515625 
L 10.984375 10.5 
Q 14.703125 8.734375 18.5 7.8125 
Q 22.3125 6.890625 25.984375 6.890625 
Q 35.75 6.890625 40.890625 13.453125 
Q 46.046875 20.015625 46.78125 33.40625 
Q 43.953125 29.203125 39.59375 26.953125 
Q 35.25 24.703125 29.984375 24.703125 
Q 19.046875 24.703125 12.671875 31.3125 
Q 6.296875 37.9375 6.296875 49.421875 
Q 6.296875 60.640625 12.9375 67.421875 
Q 19.578125 74.21875 30.609375 74.21875 
Q 43.265625 74.21875 49.921875 64.515625 
Q 56.59375 54.828125 56.59375 36.375 
Q 56.59375 19.140625 48.40625 8.859375 
Q 40.234375 -1.421875 26.421875 -1.421875 
Q 22.703125 -1.421875 18.890625 -0.6875 
Q 15.09375 0.046875 10.984375 1.515625 
z
M 30.609375 32.421875 
Q 37.25 32.421875 41.125 36.953125 
Q 45.015625 41.5 45.015625 49.421875 
Q 45.015625 57.28125 41.125 61.84375 
Q 37.25 66.40625 30.609375 66.40625 
Q 23.96875 66.40625 20.09375 61.84375 
Q 16.21875 57.28125 16.21875 49.421875 
Q 16.21875 41.5 20.09375 36.953125 
Q 23.96875 32.421875 30.609375 32.421875 
z
" id="DejaVuSans-57"/>
       </defs>
       <use xlink:href="#DejaVuSans-50"/>
       <use x="63.623047" xlink:href="#DejaVuSans-48"/>
       <use x="127.246094" xlink:href="#DejaVuSans-50"/>
       <use x="190.869141" xlink:href="#DejaVuSans-48"/>
       <use x="254.492188" xlink:href="#DejaVuSans-45"/>
       <use x="290.576172" xlink:href="#DejaVuSans-48"/>
       <use x="354.199219" xlink:href="#DejaVuSans-57"/>
      </g>
     </g>
    </g>
    <g id="xtick_9">
     <g id="line2d_17">
      <path clip-path="url(#pa380514c29)" d="M 536.731579 172.8 
L 536.731579 25.92 
" style="fill:none;stroke:#808080;stroke-dasharray:6.4,1.6,1,1.6;stroke-dashoffset:0;stroke-opacity:0.3;"/>
     </g>
     <g id="line2d_18">
      <g>
       <use style="stroke:#000000;stroke-width:0.8;" x="536.731579" xlink:href="#mbf61f8b570" y="172.8"/>
      </g>
     </g>
     <g id="text_9">
      <!-- 2020-10 -->
      <g transform="translate(515.840173 187.398438)scale(0.1 -0.1)">
       <defs>
        <path d="M 12.40625 8.296875 
L 28.515625 8.296875 
L 28.515625 63.921875 
L 10.984375 60.40625 
L 10.984375 69.390625 
L 28.421875 72.90625 
L 38.28125 72.90625 
L 38.28125 8.296875 
L 54.390625 8.296875 
L 54.390625 0 
L 12.40625 0 
z
" id="DejaVuSans-49"/>
       </defs>
       <use xlink:href="#DejaVuSans-50"/>
       <use x="63.623047" xlink:href="#DejaVuSans-48"/>
       <use x="127.246094" xlink:href="#DejaVuSans-50"/>
       <use x="190.869141" xlink:href="#DejaVuSans-48"/>
       <use x="254.492188" xlink:href="#DejaVuSans-45"/>
       <use x="290.576172" xlink:href="#DejaVuSans-49"/>
       <use x="354.199219" xlink:href="#DejaVuSans-48"/>
      </g>
     </g>
    </g>
    <g id="xtick_10">
     <g id="line2d_19">
      <path clip-path="url(#pa380514c29)" d="M 596.936842 172.8 
L 596.936842 25.92 
" style="fill:none;stroke:#808080;stroke-dasharray:6.4,1.6,1,1.6;stroke-dashoffset:0;stroke-opacity:0.3;"/>
     </g>
     <g id="line2d_20">
      <g>
       <use style="stroke:#000000;stroke-width:0.8;" x="596.936842" xlink:href="#mbf61f8b570" y="172.8"/>
      </g>
     </g>
     <g id="text_10">
      <!-- 2020-11 -->
      <g transform="translate(576.045436 187.398438)scale(0.1 -0.1)">
       <use xlink:href="#DejaVuSans-50"/>
       <use x="63.623047" xlink:href="#DejaVuSans-48"/>
       <use x="127.246094" xlink:href="#DejaVuSans-50"/>
       <use x="190.869141" xlink:href="#DejaVuSans-48"/>
       <use x="254.492188" xlink:href="#DejaVuSans-45"/>
       <use x="290.576172" xlink:href="#DejaVuSans-49"/>
       <use x="354.199219" xlink:href="#DejaVuSans-49"/>
      </g>
     </g>
    </g>
    <g id="xtick_11">
     <g id="line2d_21">
      <path clip-path="url(#pa380514c29)" d="M 655.2 172.8 
L 655.2 25.92 
" style="fill:none;stroke:#808080;stroke-dasharray:6.4,1.6,1,1.6;stroke-dashoffset:0;stroke-opacity:0.3;"/>
     </g>
     <g id="line2d_22">
      <g>
       <use style="stroke:#000000;stroke-width:0.8;" x="655.2" xlink:href="#mbf61f8b570" y="172.8"/>
      </g>
     </g>
     <g id="text_11">
      <!-- 2020-12 -->
      <g transform="translate(634.308594 187.398438)scale(0.1 -0.1)">
       <use xlink:href="#DejaVuSans-50"/>
       <use x="63.623047" xlink:href="#DejaVuSans-48"/>
       <use x="127.246094" xlink:href="#DejaVuSans-50"/>
       <use x="190.869141" xlink:href="#DejaVuSans-48"/>
       <use x="254.492188" xlink:href="#DejaVuSans-45"/>
       <use x="290.576172" xlink:href="#DejaVuSans-49"/>
       <use x="354.199219" xlink:href="#DejaVuSans-50"/>
      </g>
     </g>
    </g>
    <g id="text_12">
     <!-- Datum -->
     <g transform="translate(343.086719 201.076562)scale(0.1 -0.1)">
      <defs>
       <path d="M 19.671875 64.796875 
L 19.671875 8.109375 
L 31.59375 8.109375 
Q 46.6875 8.109375 53.6875 14.9375 
Q 60.6875 21.78125 60.6875 36.53125 
Q 60.6875 51.171875 53.6875 57.984375 
Q 46.6875 64.796875 31.59375 64.796875 
z
M 9.8125 72.90625 
L 30.078125 72.90625 
Q 51.265625 72.90625 61.171875 64.09375 
Q 71.09375 55.28125 71.09375 36.53125 
Q 71.09375 17.671875 61.125 8.828125 
Q 51.171875 0 30.078125 0 
L 9.8125 0 
z
" id="DejaVuSans-68"/>
       <path d="M 34.28125 27.484375 
Q 23.390625 27.484375 19.1875 25 
Q 14.984375 22.515625 14.984375 16.5 
Q 14.984375 11.71875 18.140625 8.90625 
Q 21.296875 6.109375 26.703125 6.109375 
Q 34.1875 6.109375 38.703125 11.40625 
Q 43.21875 16.703125 43.21875 25.484375 
L 43.21875 27.484375 
z
M 52.203125 31.203125 
L 52.203125 0 
L 43.21875 0 
L 43.21875 8.296875 
Q 40.140625 3.328125 35.546875 0.953125 
Q 30.953125 -1.421875 24.3125 -1.421875 
Q 15.921875 -1.421875 10.953125 3.296875 
Q 6 8.015625 6 15.921875 
Q 6 25.140625 12.171875 29.828125 
Q 18.359375 34.515625 30.609375 34.515625 
L 43.21875 34.515625 
L 43.21875 35.40625 
Q 43.21875 41.609375 39.140625 45 
Q 35.0625 48.390625 27.6875 48.390625 
Q 23 48.390625 18.546875 47.265625 
Q 14.109375 46.140625 10.015625 43.890625 
L 10.015625 52.203125 
Q 14.9375 54.109375 19.578125 55.046875 
Q 24.21875 56 28.609375 56 
Q 40.484375 56 46.34375 49.84375 
Q 52.203125 43.703125 52.203125 31.203125 
z
" id="DejaVuSans-97"/>
       <path d="M 18.3125 70.21875 
L 18.3125 54.6875 
L 36.8125 54.6875 
L 36.8125 47.703125 
L 18.3125 47.703125 
L 18.3125 18.015625 
Q 18.3125 11.328125 20.140625 9.421875 
Q 21.96875 7.515625 27.59375 7.515625 
L 36.8125 7.515625 
L 36.8125 0 
L 27.59375 0 
Q 17.1875 0 13.234375 3.875 
Q 9.28125 7.765625 9.28125 18.015625 
L 9.28125 47.703125 
L 2.6875 47.703125 
L 2.6875 54.6875 
L 9.28125 54.6875 
L 9.28125 70.21875 
z
" id="DejaVuSans-116"/>
       <path d="M 8.5 21.578125 
L 8.5 54.6875 
L 17.484375 54.6875 
L 17.484375 21.921875 
Q 17.484375 14.15625 20.5 10.265625 
Q 23.53125 6.390625 29.59375 6.390625 
Q 36.859375 6.390625 41.078125 11.03125 
Q 45.3125 15.671875 45.3125 23.6875 
L 45.3125 54.6875 
L 54.296875 54.6875 
L 54.296875 0 
L 45.3125 0 
L 45.3125 8.40625 
Q 42.046875 3.421875 37.71875 1 
Q 33.40625 -1.421875 27.6875 -1.421875 
Q 18.265625 -1.421875 13.375 4.4375 
Q 8.5 10.296875 8.5 21.578125 
z
M 31.109375 56 
z
" id="DejaVuSans-117"/>
       <path d="M 52 44.1875 
Q 55.375 50.25 60.0625 53.125 
Q 64.75 56 71.09375 56 
Q 79.640625 56 84.28125 50.015625 
Q 88.921875 44.046875 88.921875 33.015625 
L 88.921875 0 
L 79.890625 0 
L 79.890625 32.71875 
Q 79.890625 40.578125 77.09375 44.375 
Q 74.3125 48.1875 68.609375 48.1875 
Q 61.625 48.1875 57.5625 43.546875 
Q 53.515625 38.921875 53.515625 30.90625 
L 53.515625 0 
L 44.484375 0 
L 44.484375 32.71875 
Q 44.484375 40.625 41.703125 44.40625 
Q 38.921875 48.1875 33.109375 48.1875 
Q 26.21875 48.1875 22.15625 43.53125 
Q 18.109375 38.875 18.109375 30.90625 
L 18.109375 0 
L 9.078125 0 
L 9.078125 54.6875 
L 18.109375 54.6875 
L 18.109375 46.1875 
Q 21.1875 51.21875 25.484375 53.609375 
Q 29.78125 56 35.6875 56 
Q 41.65625 56 45.828125 52.96875 
Q 50 49.953125 52 44.1875 
z
" id="DejaVuSans-109"/>
      </defs>
      <use xlink:href="#DejaVuSans-68"/>
      <use x="77.001953" xlink:href="#DejaVuSans-97"/>
      <use x="138.28125" xlink:href="#DejaVuSans-116"/>
      <use x="177.490234" xlink:href="#DejaVuSans-117"/>
      <use x="240.869141" xlink:href="#DejaVuSans-109"/>
     </g>
    </g>
   </g>
   <g id="matplotlib.axis_2">
    <g id="ytick_1">
     <g id="line2d_23">
      <path clip-path="url(#pa380514c29)" d="M 64.8 172.8 
L 655.2 172.8 
" style="fill:none;stroke:#808080;stroke-dasharray:6.4,1.6,1,1.6;stroke-dashoffset:0;stroke-opacity:0.3;"/>
     </g>
     <g id="line2d_24">
      <defs>
       <path d="M 0 0 
L -3.5 0 
" id="mbd9a365a0f" style="stroke:#000000;stroke-width:0.8;"/>
      </defs>
      <g>
       <use style="stroke:#000000;stroke-width:0.8;" x="64.8" xlink:href="#mbd9a365a0f" y="172.8"/>
      </g>
     </g>
     <g id="text_13">
      <!-- 0.0 -->
      <g transform="translate(41.896875 176.599219)scale(0.1 -0.1)">
       <defs>
        <path d="M 10.6875 12.40625 
L 21 12.40625 
L 21 0 
L 10.6875 0 
z
" id="DejaVuSans-46"/>
       </defs>
       <use xlink:href="#DejaVuSans-48"/>
       <use x="63.623047" xlink:href="#DejaVuSans-46"/>
       <use x="95.410156" xlink:href="#DejaVuSans-48"/>
      </g>
     </g>
    </g>
    <g id="ytick_2">
     <g id="line2d_25">
      <path clip-path="url(#pa380514c29)" d="M 64.8 148.32 
L 655.2 148.32 
" style="fill:none;stroke:#808080;stroke-dasharray:6.4,1.6,1,1.6;stroke-dashoffset:0;stroke-opacity:0.3;"/>
     </g>
     <g id="line2d_26">
      <g>
       <use style="stroke:#000000;stroke-width:0.8;" x="64.8" xlink:href="#mbd9a365a0f" y="148.32"/>
      </g>
     </g>
     <g id="text_14">
      <!-- 0.5 -->
      <g transform="translate(41.896875 152.119219)scale(0.1 -0.1)">
       <use xlink:href="#DejaVuSans-48"/>
       <use x="63.623047" xlink:href="#DejaVuSans-46"/>
       <use x="95.410156" xlink:href="#DejaVuSans-53"/>
      </g>
     </g>
    </g>
    <g id="ytick_3">
     <g id="line2d_27">
      <path clip-path="url(#pa380514c29)" d="M 64.8 123.84 
L 655.2 123.84 
" style="fill:none;stroke:#808080;stroke-dasharray:6.4,1.6,1,1.6;stroke-dashoffset:0;stroke-opacity:0.3;"/>
     </g>
     <g id="line2d_28">
      <g>
       <use style="stroke:#000000;stroke-width:0.8;" x="64.8" xlink:href="#mbd9a365a0f" y="123.84"/>
      </g>
     </g>
     <g id="text_15">
      <!-- 1.0 -->
      <g transform="translate(41.896875 127.639219)scale(0.1 -0.1)">
       <use xlink:href="#DejaVuSans-49"/>
       <use x="63.623047" xlink:href="#DejaVuSans-46"/>
       <use x="95.410156" xlink:href="#DejaVuSans-48"/>
      </g>
     </g>
    </g>
    <g id="ytick_4">
     <g id="line2d_29">
      <path clip-path="url(#pa380514c29)" d="M 64.8 99.36 
L 655.2 99.36 
" style="fill:none;stroke:#808080;stroke-dasharray:6.4,1.6,1,1.6;stroke-dashoffset:0;stroke-opacity:0.3;"/>
     </g>
     <g id="line2d_30">
      <g>
       <use style="stroke:#000000;stroke-width:0.8;" x="64.8" xlink:href="#mbd9a365a0f" y="99.36"/>
      </g>
     </g>
     <g id="text_16">
      <!-- 1.5 -->
      <g transform="translate(41.896875 103.159219)scale(0.1 -0.1)">
       <use xlink:href="#DejaVuSans-49"/>
       <use x="63.623047" xlink:href="#DejaVuSans-46"/>
       <use x="95.410156" xlink:href="#DejaVuSans-53"/>
      </g>
     </g>
    </g>
    <g id="ytick_5">
     <g id="line2d_31">
      <path clip-path="url(#pa380514c29)" d="M 64.8 74.88 
L 655.2 74.88 
" style="fill:none;stroke:#808080;stroke-dasharray:6.4,1.6,1,1.6;stroke-dashoffset:0;stroke-opacity:0.3;"/>
     </g>
     <g id="line2d_32">
      <g>
       <use style="stroke:#000000;stroke-width:0.8;" x="64.8" xlink:href="#mbd9a365a0f" y="74.88"/>
      </g>
     </g>
     <g id="text_17">
      <!-- 2.0 -->
      <g transform="translate(41.896875 78.679219)scale(0.1 -0.1)">
       <use xlink:href="#DejaVuSans-50"/>
       <use x="63.623047" xlink:href="#DejaVuSans-46"/>
       <use x="95.410156" xlink:href="#DejaVuSans-48"/>
      </g>
     </g>
    </g>
    <g id="ytick_6">
     <g id="line2d_33">
      <path clip-path="url(#pa380514c29)" d="M 64.8 50.4 
L 655.2 50.4 
" style="fill:none;stroke:#808080;stroke-dasharray:6.4,1.6,1,1.6;stroke-dashoffset:0;stroke-opacity:0.3;"/>
     </g>
     <g id="line2d_34">
      <g>
       <use style="stroke:#000000;stroke-width:0.8;" x="64.8" xlink:href="#mbd9a365a0f" y="50.4"/>
      </g>
     </g>
     <g id="text_18">
      <!-- 2.5 -->
      <g transform="translate(41.896875 54.199219)scale(0.1 -0.1)">
       <use xlink:href="#DejaVuSans-50"/>
       <use x="63.623047" xlink:href="#DejaVuSans-46"/>
       <use x="95.410156" xlink:href="#DejaVuSans-53"/>
      </g>
     </g>
    </g>
    <g id="ytick_7">
     <g id="line2d_35">
      <path clip-path="url(#pa380514c29)" d="M 64.8 25.92 
L 655.2 25.92 
" style="fill:none;stroke:#808080;stroke-dasharray:6.4,1.6,1,1.6;stroke-dashoffset:0;stroke-opacity:0.3;"/>
     </g>
     <g id="line2d_36">
      <g>
       <use style="stroke:#000000;stroke-width:0.8;" x="64.8" xlink:href="#mbd9a365a0f" y="25.92"/>
      </g>
     </g>
     <g id="text_19">
      <!-- 3.0 -->
      <g transform="translate(41.896875 29.719219)scale(0.1 -0.1)">
       <use xlink:href="#DejaVuSans-51"/>
       <use x="63.623047" xlink:href="#DejaVuSans-46"/>
       <use x="95.410156" xlink:href="#DejaVuSans-48"/>
      </g>
     </g>
    </g>
    <g id="text_20">
     <!-- Reproductiegetal -->
     <g transform="translate(35.817187 142.044375)rotate(-90)scale(0.1 -0.1)">
      <defs>
       <path d="M 44.390625 34.1875 
Q 47.5625 33.109375 50.5625 29.59375 
Q 53.5625 26.078125 56.59375 19.921875 
L 66.609375 0 
L 56 0 
L 46.6875 18.703125 
Q 43.0625 26.03125 39.671875 28.421875 
Q 36.28125 30.8125 30.421875 30.8125 
L 19.671875 30.8125 
L 19.671875 0 
L 9.8125 0 
L 9.8125 72.90625 
L 32.078125 72.90625 
Q 44.578125 72.90625 50.734375 67.671875 
Q 56.890625 62.453125 56.890625 51.90625 
Q 56.890625 45.015625 53.6875 40.46875 
Q 50.484375 35.9375 44.390625 34.1875 
z
M 19.671875 64.796875 
L 19.671875 38.921875 
L 32.078125 38.921875 
Q 39.203125 38.921875 42.84375 42.21875 
Q 46.484375 45.515625 46.484375 51.90625 
Q 46.484375 58.296875 42.84375 61.546875 
Q 39.203125 64.796875 32.078125 64.796875 
z
" id="DejaVuSans-82"/>
       <path d="M 56.203125 29.59375 
L 56.203125 25.203125 
L 14.890625 25.203125 
Q 15.484375 15.921875 20.484375 11.0625 
Q 25.484375 6.203125 34.421875 6.203125 
Q 39.59375 6.203125 44.453125 7.46875 
Q 49.3125 8.734375 54.109375 11.28125 
L 54.109375 2.78125 
Q 49.265625 0.734375 44.1875 -0.34375 
Q 39.109375 -1.421875 33.890625 -1.421875 
Q 20.796875 -1.421875 13.15625 6.1875 
Q 5.515625 13.8125 5.515625 26.8125 
Q 5.515625 40.234375 12.765625 48.109375 
Q 20.015625 56 32.328125 56 
Q 43.359375 56 49.78125 48.890625 
Q 56.203125 41.796875 56.203125 29.59375 
z
M 47.21875 32.234375 
Q 47.125 39.59375 43.09375 43.984375 
Q 39.0625 48.390625 32.421875 48.390625 
Q 24.90625 48.390625 20.390625 44.140625 
Q 15.875 39.890625 15.1875 32.171875 
z
" id="DejaVuSans-101"/>
       <path d="M 18.109375 8.203125 
L 18.109375 -20.796875 
L 9.078125 -20.796875 
L 9.078125 54.6875 
L 18.109375 54.6875 
L 18.109375 46.390625 
Q 20.953125 51.265625 25.265625 53.625 
Q 29.59375 56 35.59375 56 
Q 45.5625 56 51.78125 48.09375 
Q 58.015625 40.1875 58.015625 27.296875 
Q 58.015625 14.40625 51.78125 6.484375 
Q 45.5625 -1.421875 35.59375 -1.421875 
Q 29.59375 -1.421875 25.265625 0.953125 
Q 20.953125 3.328125 18.109375 8.203125 
z
M 48.6875 27.296875 
Q 48.6875 37.203125 44.609375 42.84375 
Q 40.53125 48.484375 33.40625 48.484375 
Q 26.265625 48.484375 22.1875 42.84375 
Q 18.109375 37.203125 18.109375 27.296875 
Q 18.109375 17.390625 22.1875 11.75 
Q 26.265625 6.109375 33.40625 6.109375 
Q 40.53125 6.109375 44.609375 11.75 
Q 48.6875 17.390625 48.6875 27.296875 
z
" id="DejaVuSans-112"/>
       <path d="M 41.109375 46.296875 
Q 39.59375 47.171875 37.8125 47.578125 
Q 36.03125 48 33.890625 48 
Q 26.265625 48 22.1875 43.046875 
Q 18.109375 38.09375 18.109375 28.8125 
L 18.109375 0 
L 9.078125 0 
L 9.078125 54.6875 
L 18.109375 54.6875 
L 18.109375 46.1875 
Q 20.953125 51.171875 25.484375 53.578125 
Q 30.03125 56 36.53125 56 
Q 37.453125 56 38.578125 55.875 
Q 39.703125 55.765625 41.0625 55.515625 
z
" id="DejaVuSans-114"/>
       <path d="M 30.609375 48.390625 
Q 23.390625 48.390625 19.1875 42.75 
Q 14.984375 37.109375 14.984375 27.296875 
Q 14.984375 17.484375 19.15625 11.84375 
Q 23.34375 6.203125 30.609375 6.203125 
Q 37.796875 6.203125 41.984375 11.859375 
Q 46.1875 17.53125 46.1875 27.296875 
Q 46.1875 37.015625 41.984375 42.703125 
Q 37.796875 48.390625 30.609375 48.390625 
z
M 30.609375 56 
Q 42.328125 56 49.015625 48.375 
Q 55.71875 40.765625 55.71875 27.296875 
Q 55.71875 13.875 49.015625 6.21875 
Q 42.328125 -1.421875 30.609375 -1.421875 
Q 18.84375 -1.421875 12.171875 6.21875 
Q 5.515625 13.875 5.515625 27.296875 
Q 5.515625 40.765625 12.171875 48.375 
Q 18.84375 56 30.609375 56 
z
" id="DejaVuSans-111"/>
       <path d="M 45.40625 46.390625 
L 45.40625 75.984375 
L 54.390625 75.984375 
L 54.390625 0 
L 45.40625 0 
L 45.40625 8.203125 
Q 42.578125 3.328125 38.25 0.953125 
Q 33.9375 -1.421875 27.875 -1.421875 
Q 17.96875 -1.421875 11.734375 6.484375 
Q 5.515625 14.40625 5.515625 27.296875 
Q 5.515625 40.1875 11.734375 48.09375 
Q 17.96875 56 27.875 56 
Q 33.9375 56 38.25 53.625 
Q 42.578125 51.265625 45.40625 46.390625 
z
M 14.796875 27.296875 
Q 14.796875 17.390625 18.875 11.75 
Q 22.953125 6.109375 30.078125 6.109375 
Q 37.203125 6.109375 41.296875 11.75 
Q 45.40625 17.390625 45.40625 27.296875 
Q 45.40625 37.203125 41.296875 42.84375 
Q 37.203125 48.484375 30.078125 48.484375 
Q 22.953125 48.484375 18.875 42.84375 
Q 14.796875 37.203125 14.796875 27.296875 
z
" id="DejaVuSans-100"/>
       <path d="M 48.78125 52.59375 
L 48.78125 44.1875 
Q 44.96875 46.296875 41.140625 47.34375 
Q 37.3125 48.390625 33.40625 48.390625 
Q 24.65625 48.390625 19.8125 42.84375 
Q 14.984375 37.3125 14.984375 27.296875 
Q 14.984375 17.28125 19.8125 11.734375 
Q 24.65625 6.203125 33.40625 6.203125 
Q 37.3125 6.203125 41.140625 7.25 
Q 44.96875 8.296875 48.78125 10.40625 
L 48.78125 2.09375 
Q 45.015625 0.34375 40.984375 -0.53125 
Q 36.96875 -1.421875 32.421875 -1.421875 
Q 20.0625 -1.421875 12.78125 6.34375 
Q 5.515625 14.109375 5.515625 27.296875 
Q 5.515625 40.671875 12.859375 48.328125 
Q 20.21875 56 33.015625 56 
Q 37.15625 56 41.109375 55.140625 
Q 45.0625 54.296875 48.78125 52.59375 
z
" id="DejaVuSans-99"/>
       <path d="M 9.421875 54.6875 
L 18.40625 54.6875 
L 18.40625 0 
L 9.421875 0 
z
M 9.421875 75.984375 
L 18.40625 75.984375 
L 18.40625 64.59375 
L 9.421875 64.59375 
z
" id="DejaVuSans-105"/>
       <path d="M 45.40625 27.984375 
Q 45.40625 37.75 41.375 43.109375 
Q 37.359375 48.484375 30.078125 48.484375 
Q 22.859375 48.484375 18.828125 43.109375 
Q 14.796875 37.75 14.796875 27.984375 
Q 14.796875 18.265625 18.828125 12.890625 
Q 22.859375 7.515625 30.078125 7.515625 
Q 37.359375 7.515625 41.375 12.890625 
Q 45.40625 18.265625 45.40625 27.984375 
z
M 54.390625 6.78125 
Q 54.390625 -7.171875 48.1875 -13.984375 
Q 42 -20.796875 29.203125 -20.796875 
Q 24.46875 -20.796875 20.265625 -20.09375 
Q 16.0625 -19.390625 12.109375 -17.921875 
L 12.109375 -9.1875 
Q 16.0625 -11.328125 19.921875 -12.34375 
Q 23.78125 -13.375 27.78125 -13.375 
Q 36.625 -13.375 41.015625 -8.765625 
Q 45.40625 -4.15625 45.40625 5.171875 
L 45.40625 9.625 
Q 42.625 4.78125 38.28125 2.390625 
Q 33.9375 0 27.875 0 
Q 17.828125 0 11.671875 7.65625 
Q 5.515625 15.328125 5.515625 27.984375 
Q 5.515625 40.671875 11.671875 48.328125 
Q 17.828125 56 27.875 56 
Q 33.9375 56 38.28125 53.609375 
Q 42.625 51.21875 45.40625 46.390625 
L 45.40625 54.6875 
L 54.390625 54.6875 
z
" id="DejaVuSans-103"/>
       <path d="M 9.421875 75.984375 
L 18.40625 75.984375 
L 18.40625 0 
L 9.421875 0 
z
" id="DejaVuSans-108"/>
      </defs>
      <use xlink:href="#DejaVuSans-82"/>
      <use x="64.982422" xlink:href="#DejaVuSans-101"/>
      <use x="126.505859" xlink:href="#DejaVuSans-112"/>
      <use x="189.982422" xlink:href="#DejaVuSans-114"/>
      <use x="228.845703" xlink:href="#DejaVuSans-111"/>
      <use x="290.027344" xlink:href="#DejaVuSans-100"/>
      <use x="353.503906" xlink:href="#DejaVuSans-117"/>
      <use x="416.882812" xlink:href="#DejaVuSans-99"/>
      <use x="471.863281" xlink:href="#DejaVuSans-116"/>
      <use x="511.072266" xlink:href="#DejaVuSans-105"/>
      <use x="538.855469" xlink:href="#DejaVuSans-101"/>
      <use x="600.378906" xlink:href="#DejaVuSans-103"/>
      <use x="663.855469" xlink:href="#DejaVuSans-101"/>
      <use x="725.378906" xlink:href="#DejaVuSans-116"/>
      <use x="764.587891" xlink:href="#DejaVuSans-97"/>
      <use x="825.867188" xlink:href="#DejaVuSans-108"/>
     </g>
    </g>
   </g>
   <g id="line2d_37">
    <path clip-path="url(#pa380514c29)" d="M 95.873684 78.3072 
L 97.815789 87.6096 
L 99.757895 94.9536 
L 101.7 87.6096 
L 103.642105 73.4112 
L 105.584211 66.5568 
L 107.526316 66.0672 
L 109.468421 65.088 
L 111.410526 67.536 
L 113.352632 71.9424 
L 115.294737 71.9424 
L 117.236842 69.984 
L 119.178947 75.3696 
L 121.121053 83.2032 
L 123.063158 85.1616 
L 125.005263 83.6928 
L 128.889474 81.7344 
L 130.831579 80.2656 
L 132.773684 79.776 
L 134.715789 84.672 
L 136.657895 91.0368 
L 140.542105 102.7872 
L 142.484211 107.6832 
L 144.426316 111.6 
L 146.368421 116.0064 
L 148.310526 121.8816 
L 150.252632 125.7984 
L 156.078947 131.6736 
L 158.021053 133.1424 
L 159.963158 134.1216 
L 161.905263 136.08 
L 163.847368 137.5488 
L 165.789474 138.0384 
L 167.731579 138.0384 
L 169.673684 137.5488 
L 173.557895 135.5904 
L 175.5 135.5904 
L 177.442105 136.08 
L 179.384211 138.0384 
L 181.326316 139.0176 
L 183.268421 139.0176 
L 187.152632 136.08 
L 192.978947 133.1424 
L 194.921053 134.6112 
L 196.863158 137.0592 
L 198.805263 138.528 
L 200.747368 139.0176 
L 202.689474 138.528 
L 208.515789 135.5904 
L 210.457895 135.1008 
L 212.4 135.1008 
L 214.342105 136.08 
L 216.284211 137.5488 
L 218.226316 138.528 
L 222.110526 136.5696 
L 224.052632 135.1008 
L 227.936842 135.1008 
L 231.821053 137.0592 
L 235.705263 138.0384 
L 237.647368 139.0176 
L 239.589474 139.0176 
L 241.531579 137.5488 
L 245.415789 133.632 
L 247.357895 132.1632 
L 249.3 132.1632 
L 251.242105 132.6528 
L 253.184211 132.6528 
L 255.126316 133.1424 
L 257.068421 134.6112 
L 259.010526 135.1008 
L 260.952632 134.6112 
L 262.894737 133.632 
L 264.836842 131.6736 
L 266.778947 128.2464 
L 268.721053 123.84 
L 270.663158 119.9232 
L 272.605263 117.4752 
L 274.547368 119.9232 
L 276.489474 125.7984 
L 278.431579 129.7152 
L 282.315789 129.7152 
L 284.257895 133.632 
L 286.2 137.0592 
L 288.142105 139.5072 
L 290.084211 145.3824 
L 292.026316 149.2992 
L 293.968421 149.2992 
L 295.910526 147.3408 
L 297.852632 144.4032 
L 299.794737 139.9968 
L 301.736842 132.6528 
L 303.678947 125.7984 
L 305.621053 123.3504 
L 307.563158 121.392 
L 309.505263 116.9856 
L 311.447368 111.1104 
L 313.389474 109.152 
L 315.331579 115.0272 
L 317.273684 125.7984 
L 319.215789 133.632 
L 321.157895 136.08 
L 323.1 137.0592 
L 325.042105 137.0592 
L 326.984211 135.5904 
L 328.926316 133.1424 
L 330.868421 129.7152 
L 332.810526 125.7984 
L 334.752632 123.3504 
L 336.694737 122.3712 
L 338.636842 123.3504 
L 340.578947 125.7984 
L 342.521053 127.7568 
L 344.463158 128.736 
L 346.405263 128.2464 
L 348.347368 127.2672 
L 354.173684 125.7984 
L 356.115789 123.3504 
L 358.057895 118.4544 
L 361.942105 104.7456 
L 363.884211 101.3184 
L 365.826316 102.2976 
L 367.768421 104.256 
L 369.710526 105.7248 
L 371.652632 105.2352 
L 373.594737 103.7664 
L 375.536842 102.7872 
L 377.478947 103.7664 
L 379.421053 107.6832 
L 381.363158 113.0688 
L 383.305263 116.0064 
L 385.247368 115.5168 
L 387.189474 113.0688 
L 389.131579 110.1312 
L 391.073684 108.6624 
L 394.957895 109.6416 
L 396.9 109.152 
L 398.842105 106.704 
L 400.784211 103.7664 
L 402.726316 103.2768 
L 404.668421 104.7456 
L 406.610526 108.6624 
L 408.552632 111.6 
L 410.494737 112.5792 
L 414.378947 111.6 
L 416.321053 112.5792 
L 418.263158 115.0272 
L 420.205263 118.944 
L 422.147368 122.3712 
L 424.089474 124.8192 
L 426.031579 126.288 
L 427.973684 126.288 
L 431.857895 125.3088 
L 433.8 125.7984 
L 437.684211 127.7568 
L 439.626316 127.7568 
L 443.510526 126.7776 
L 447.394737 124.8192 
L 449.336842 124.3296 
L 451.278947 123.3504 
L 453.221053 120.9024 
L 457.105263 116.9856 
L 459.047368 115.5168 
L 462.931579 115.5168 
L 464.873684 115.0272 
L 466.815789 112.5792 
L 470.7 104.7456 
L 472.642105 102.2976 
L 474.584211 103.7664 
L 476.526316 106.2144 
L 478.468421 107.1936 
L 480.410526 107.1936 
L 482.352632 106.704 
L 484.294737 106.704 
L 486.236842 107.6832 
L 488.178947 109.6416 
L 490.121053 112.0896 
L 492.063158 112.5792 
L 494.005263 112.0896 
L 495.947368 110.6208 
L 497.889474 109.6416 
L 499.831579 110.1312 
L 503.715789 115.0272 
L 505.657895 116.496 
L 507.6 116.496 
L 511.484211 114.5376 
L 513.426316 114.5376 
L 515.368421 115.5168 
L 517.310526 116.0064 
L 519.252632 115.0272 
L 521.194737 113.0688 
L 523.136842 110.1312 
L 525.078947 108.1728 
L 527.021053 107.1936 
L 528.963158 108.1728 
L 534.789474 112.5792 
L 540.615789 115.5168 
L 542.557895 117.4752 
L 544.5 118.944 
L 548.384211 118.944 
L 550.326316 117.9648 
L 552.268421 117.4752 
L 554.210526 117.4752 
L 558.094737 119.4336 
L 560.036842 119.9232 
L 565.863158 119.9232 
L 567.805263 120.9024 
L 569.747368 122.3712 
L 571.689474 124.8192 
L 573.631579 126.288 
L 575.573684 127.2672 
L 577.515789 128.736 
L 579.457895 129.7152 
L 581.4 130.2048 
L 583.342105 131.6736 
L 585.284211 132.1632 
L 587.226316 132.1632 
L 594.994737 130.2048 
L 596.936842 130.2048 
L 598.878947 129.2256 
L 602.763158 126.288 
L 604.705263 124.3296 
L 606.647368 122.8608 
L 606.647368 122.8608 
" style="fill:none;stroke:#000000;stroke-linecap:square;stroke-width:1.5;"/>
   </g>
   <g id="line2d_38">
    <path clip-path="url(#pa380514c29)" d="M 98.563024 -1 
L 99.757895 34.2432 
L 101.7 34.2432 
L 103.364284 -1 
M 107.27066 -1 
L 107.526316 9.7632 
L 109.468421 15.1488 
L 111.410526 15.1488 
L 113.352632 32.7744 
L 115.294737 41.0976 
L 117.236842 38.16 
L 119.178947 42.0768 
L 121.121053 62.64 
L 123.063158 68.5152 
L 125.005263 64.5984 
L 126.947368 65.088 
L 128.889474 66.5568 
L 132.773684 67.536 
L 134.715789 71.9424 
L 136.657895 82.7136 
L 138.6 88.5888 
L 140.542105 95.4432 
L 142.484211 101.3184 
L 144.426316 106.2144 
L 146.368421 110.6208 
L 148.310526 116.496 
L 150.252632 121.8816 
L 152.194737 123.3504 
L 158.021053 129.2256 
L 159.963158 130.2048 
L 161.905263 131.6736 
L 163.847368 134.1216 
L 165.789474 133.632 
L 167.731579 133.632 
L 171.615789 131.6736 
L 173.557895 130.2048 
L 175.5 129.7152 
L 179.384211 131.6736 
L 181.326316 134.1216 
L 183.268421 133.1424 
L 185.210526 131.184 
L 187.152632 128.736 
L 189.094737 127.2672 
L 192.978947 125.3088 
L 194.921053 125.3088 
L 196.863158 129.2256 
L 198.805263 131.6736 
L 200.747368 130.2048 
L 202.689474 129.7152 
L 204.631579 128.2464 
L 206.573684 125.7984 
L 210.457895 123.84 
L 214.342105 123.84 
L 216.284211 124.8192 
L 218.226316 128.2464 
L 220.168421 124.8192 
L 222.110526 122.3712 
L 224.052632 121.392 
L 225.994737 117.9648 
L 227.936842 121.392 
L 229.878947 118.4544 
L 231.821053 122.3712 
L 233.763158 122.3712 
L 235.705263 119.9232 
L 237.647368 121.392 
L 239.589474 121.8816 
L 241.531579 116.496 
L 247.357895 107.6832 
L 249.3 105.2352 
L 253.184211 110.1312 
L 255.126316 102.2976 
L 257.068421 106.2144 
L 259.010526 111.6 
L 260.952632 104.256 
L 262.894737 102.2976 
L 264.836842 102.2976 
L 266.778947 96.4224 
L 268.721053 81.7344 
L 270.663158 74.88 
L 272.605263 80.2656 
L 274.547368 65.088 
L 276.489474 94.464 
L 278.431579 101.808 
L 280.373684 101.808 
L 282.315789 84.672 
L 284.257895 87.12 
L 286.2 113.5584 
L 288.142105 104.256 
L 290.084211 104.256 
L 292.026316 127.7568 
L 293.968421 111.6 
L 295.910526 114.048 
L 297.852632 75.3696 
L 299.794737 91.5264 
L 301.736842 75.3696 
L 303.678947 26.8992 
L 305.621053 27.3888 
L 307.563158 59.7024 
L 309.505263 28.368 
L 311.447368 29.3472 
L 312.714514 -1 
M 315.701131 -1 
L 317.273684 63.6192 
L 319.215789 80.2656 
L 321.157895 81.2448 
L 323.1 128.736 
L 325.042105 128.736 
L 326.984211 127.2672 
L 328.926316 123.3504 
L 330.868421 118.944 
L 332.810526 114.048 
L 334.752632 110.6208 
L 336.694737 110.1312 
L 338.636842 110.6208 
L 340.578947 115.5168 
L 344.463158 118.4544 
L 346.405263 116.496 
L 348.347368 115.0272 
L 350.289474 115.5168 
L 352.231579 114.048 
L 354.173684 114.5376 
L 358.057895 105.7248 
L 361.942105 88.5888 
L 363.884211 85.1616 
L 365.826316 87.12 
L 367.768421 92.5056 
L 369.710526 93.4848 
L 371.652632 93.9744 
L 373.594737 92.016 
L 375.536842 91.5264 
L 377.478947 92.9952 
L 379.421053 97.4016 
L 381.363158 104.7456 
L 383.305263 108.1728 
L 385.247368 108.1728 
L 387.189474 104.256 
L 391.073684 100.3392 
L 393.015789 100.8288 
L 394.957895 102.7872 
L 396.9 101.808 
L 398.842105 99.8496 
L 400.784211 95.9328 
L 402.726316 95.9328 
L 404.668421 98.3808 
L 406.610526 102.2976 
L 408.552632 106.704 
L 410.494737 107.6832 
L 414.378947 106.704 
L 416.321053 107.6832 
L 418.263158 110.1312 
L 422.147368 118.944 
L 424.089474 120.9024 
L 426.031579 122.3712 
L 427.973684 122.3712 
L 431.857895 121.392 
L 433.8 121.8816 
L 437.684211 123.84 
L 439.626316 123.84 
L 441.568421 123.3504 
L 447.394737 120.4128 
L 449.336842 120.4128 
L 451.278947 118.944 
L 455.163158 114.048 
L 457.105263 112.0896 
L 459.047368 111.1104 
L 460.989474 110.6208 
L 462.931579 111.6 
L 464.873684 110.6208 
L 466.815789 108.1728 
L 470.7 100.3392 
L 472.642105 97.8912 
L 474.584211 98.8704 
L 476.526316 102.7872 
L 478.468421 103.7664 
L 480.410526 103.7664 
L 482.352632 103.2768 
L 484.294737 103.7664 
L 486.236842 104.7456 
L 488.178947 106.704 
L 490.121053 109.6416 
L 492.063158 110.1312 
L 494.005263 109.152 
L 495.947368 107.6832 
L 497.889474 107.1936 
L 499.831579 107.6832 
L 501.773684 110.1312 
L 503.715789 113.0688 
L 505.657895 114.5376 
L 507.6 114.5376 
L 509.542105 113.5584 
L 511.484211 112.0896 
L 513.426316 112.0896 
L 515.368421 113.5584 
L 517.310526 114.5376 
L 519.252632 113.0688 
L 521.194737 111.1104 
L 523.136842 108.1728 
L 525.078947 106.2144 
L 527.021053 105.2352 
L 528.963158 106.2144 
L 530.905263 108.1728 
L 532.847368 109.6416 
L 534.789474 110.6208 
L 536.731579 112.0896 
L 540.615789 114.048 
L 542.557895 116.0064 
L 544.5 117.4752 
L 546.442105 117.9648 
L 554.210526 116.0064 
L 556.152632 116.9856 
L 558.094737 118.4544 
L 560.036842 118.944 
L 561.978947 118.944 
L 563.921053 118.4544 
L 565.863158 118.944 
L 567.805263 119.9232 
L 569.747368 121.392 
L 571.689474 123.84 
L 575.573684 126.7776 
L 583.342105 130.6944 
L 585.284211 131.184 
L 587.226316 131.184 
L 591.110526 130.2048 
L 593.052632 129.2256 
L 594.994737 129.2256 
L 598.878947 128.2464 
L 600.821053 126.7776 
L 604.705263 122.8608 
L 606.647368 121.392 
L 608.589474 120.4128 
L 610.531579 119.9232 
L 612.473684 119.9232 
L 616.357895 118.944 
L 618.3 118.944 
L 620.242105 120.4128 
L 622.184211 122.8608 
L 624.126316 126.7776 
L 626.068421 129.7152 
L 628.010526 131.6736 
L 629.952632 131.184 
L 631.894737 130.2048 
L 631.894737 130.2048 
" style="fill:none;stroke:#808080;stroke-dasharray:5.55,2.4;stroke-dashoffset:0;stroke-opacity:0.3;stroke-width:1.5;"/>
   </g>
   <g id="line2d_39">
    <path clip-path="url(#pa380514c29)" d="M 95.873684 148.32 
L 97.815789 172.8 
L 99.757895 148.32 
L 101.7 132.1632 
L 103.642105 139.9968 
L 105.584211 172.8 
L 107.526316 115.5168 
L 109.468421 108.6624 
L 111.410526 111.6 
L 113.352632 107.6832 
L 115.294737 100.3392 
L 117.236842 99.36 
L 119.178947 105.7248 
L 121.121053 102.2976 
L 123.063158 101.808 
L 125.005263 102.2976 
L 128.889474 96.4224 
L 130.831579 92.9952 
L 132.773684 92.016 
L 134.715789 96.4224 
L 136.657895 99.36 
L 138.6 104.7456 
L 140.542105 109.152 
L 142.484211 114.048 
L 144.426316 116.9856 
L 146.368421 121.392 
L 148.310526 126.7776 
L 150.252632 129.7152 
L 152.194737 132.1632 
L 154.136842 133.632 
L 156.078947 136.08 
L 158.021053 137.0592 
L 159.963158 138.528 
L 161.905263 140.976 
L 163.847368 140.976 
L 165.789474 142.4448 
L 167.731579 141.9552 
L 169.673684 141.9552 
L 171.615789 140.976 
L 175.5 140.976 
L 177.442105 141.4656 
L 179.384211 143.9136 
L 181.326316 143.9136 
L 183.268421 144.4032 
L 185.210526 143.9136 
L 187.152632 142.9344 
L 189.094737 142.4448 
L 191.036842 140.976 
L 192.978947 140.976 
L 194.921053 142.9344 
L 196.863158 144.4032 
L 198.805263 145.3824 
L 200.747368 146.8512 
L 202.689474 146.8512 
L 204.631579 146.3616 
L 206.573684 146.3616 
L 208.515789 145.3824 
L 212.4 145.3824 
L 214.342105 146.8512 
L 216.284211 149.2992 
L 218.226316 147.8304 
L 220.168421 149.2992 
L 222.110526 149.7888 
L 224.052632 148.32 
L 225.994737 150.2784 
L 227.936842 147.8304 
L 229.878947 151.2576 
L 231.821053 150.768 
L 233.763158 151.7472 
L 235.705263 153.7056 
L 237.647368 155.1744 
L 239.589474 153.7056 
L 241.531579 155.664 
L 243.473684 155.1744 
L 245.415789 153.7056 
L 247.357895 153.216 
L 251.242105 155.1744 
L 253.184211 152.2368 
L 255.126316 158.112 
L 257.068421 158.112 
L 259.010526 154.1952 
L 260.952632 158.112 
L 262.894737 158.112 
L 264.836842 156.6432 
L 270.663158 156.6432 
L 272.605263 148.32 
L 274.547368 160.56 
L 276.489474 153.216 
L 278.431579 155.1744 
L 280.373684 155.1744 
L 282.315789 163.008 
L 284.257895 172.8 
L 286.2 156.6432 
L 288.142105 172.8 
L 290.084211 172.8 
L 292.026316 168.3936 
L 293.968421 172.8 
L 321.157895 172.8 
L 323.1 144.8928 
L 325.042105 144.8928 
L 328.926316 142.9344 
L 330.868421 139.5072 
L 332.810526 137.0592 
L 334.752632 135.1008 
L 336.694737 133.632 
L 338.636842 135.5904 
L 340.578947 135.5904 
L 342.521053 138.528 
L 344.463158 138.0384 
L 348.347368 139.0176 
L 350.289474 137.5488 
L 352.231579 138.528 
L 354.173684 136.5696 
L 356.115789 135.1008 
L 360 125.3088 
L 361.942105 119.9232 
L 363.884211 116.9856 
L 365.826316 116.496 
L 367.768421 115.5168 
L 369.710526 117.4752 
L 371.652632 116.0064 
L 373.594737 115.0272 
L 375.536842 113.5584 
L 377.478947 114.048 
L 379.421053 117.9648 
L 381.363158 120.4128 
L 383.305263 123.3504 
L 385.247368 122.8608 
L 387.189474 121.392 
L 389.131579 118.4544 
L 391.073684 116.9856 
L 393.015789 116.9856 
L 396.9 116.0064 
L 398.842105 113.0688 
L 400.784211 111.1104 
L 402.726316 110.1312 
L 404.668421 111.1104 
L 406.610526 114.5376 
L 408.552632 116.496 
L 410.494737 117.9648 
L 414.378947 116.9856 
L 416.321053 117.4752 
L 418.263158 119.4336 
L 420.205263 123.3504 
L 422.147368 126.288 
L 424.089474 128.736 
L 426.031579 130.2048 
L 427.973684 130.2048 
L 429.915789 129.7152 
L 431.857895 129.7152 
L 435.742105 130.6944 
L 437.684211 131.6736 
L 441.568421 131.6736 
L 445.452632 129.7152 
L 447.394737 129.7152 
L 451.278947 127.7568 
L 453.221053 125.3088 
L 457.105263 121.392 
L 459.047368 119.9232 
L 462.931579 119.9232 
L 464.873684 119.4336 
L 466.815789 116.9856 
L 468.757895 113.5584 
L 470.7 109.152 
L 472.642105 107.1936 
L 474.584211 108.1728 
L 476.526316 110.1312 
L 478.468421 110.6208 
L 480.410526 110.6208 
L 482.352632 110.1312 
L 484.294737 110.1312 
L 486.236842 111.1104 
L 490.121053 115.0272 
L 492.063158 115.5168 
L 494.005263 114.5376 
L 495.947368 113.0688 
L 497.889474 112.0896 
L 499.831579 112.5792 
L 501.773684 115.0272 
L 503.715789 116.9856 
L 505.657895 118.4544 
L 507.6 118.4544 
L 511.484211 116.496 
L 513.426316 116.496 
L 515.368421 117.4752 
L 517.310526 117.9648 
L 519.252632 116.9856 
L 521.194737 115.0272 
L 523.136842 112.0896 
L 525.078947 109.6416 
L 527.021053 109.152 
L 528.963158 110.1312 
L 530.905263 111.6 
L 532.847368 112.5792 
L 534.789474 114.048 
L 540.615789 116.9856 
L 544.5 119.9232 
L 546.442105 120.4128 
L 554.210526 118.4544 
L 558.094737 120.4128 
L 560.036842 120.9024 
L 565.863158 120.9024 
L 567.805263 121.8816 
L 571.689474 125.7984 
L 573.631579 127.2672 
L 575.573684 128.2464 
L 577.515789 129.7152 
L 579.457895 130.6944 
L 581.4 131.184 
L 583.342105 132.6528 
L 585.284211 133.1424 
L 587.226316 133.1424 
L 594.994737 131.184 
L 596.936842 131.184 
L 598.878947 130.6944 
L 600.821053 129.2256 
L 602.763158 127.2672 
L 608.589474 122.8608 
L 610.531579 122.8608 
L 612.473684 122.3712 
L 614.415789 122.3712 
L 616.357895 121.8816 
L 618.3 122.3712 
L 620.242105 123.84 
L 622.184211 126.7776 
L 624.126316 131.184 
L 626.068421 136.08 
L 628.010526 139.9968 
L 629.952632 142.9344 
L 631.894737 144.8928 
L 631.894737 144.8928 
" style="fill:none;stroke:#808080;stroke-dasharray:5.55,2.4;stroke-dashoffset:0;stroke-opacity:0.3;stroke-width:1.5;"/>
   </g>
   <g id="line2d_40">
    <path clip-path="url(#pa380514c29)" d="M 643.547368 172.8 
L 643.547368 25.92 
" style="fill:none;stroke:#ff0000;stroke-linecap:square;stroke-width:0.5;"/>
   </g>
   <g id="patch_3">
    <path d="M 64.8 172.8 
L 64.8 25.92 
" style="fill:none;stroke:#000000;stroke-linecap:square;stroke-linejoin:miter;stroke-width:0.8;"/>
   </g>
   <g id="patch_4">
    <path d="M 655.2 172.8 
L 655.2 25.92 
" style="fill:none;stroke:#000000;stroke-linecap:square;stroke-linejoin:miter;stroke-width:0.8;"/>
   </g>
   <g id="patch_5">
    <path d="M 64.8 172.8 
L 655.2 172.8 
" style="fill:none;stroke:#000000;stroke-linecap:square;stroke-linejoin:miter;stroke-width:0.8;"/>
   </g>
   <g id="patch_6">
    <path d="M 64.8 25.92 
L 655.2 25.92 
" style="fill:none;stroke:#000000;stroke-linecap:square;stroke-linejoin:miter;stroke-width:0.8;"/>
   </g>
   <g id="patch_7">
    <path d="M 611.029181 105.594168 
Q 608.134125 112.956822 607.091592 119.776127 
" style="fill:none;stroke:#000000;stroke-linecap:round;"/>
    <path d="M 609.156812 116.854678 
L 607.091592 119.776127 
L 605.993565 116.371082 
" style="fill:none;stroke:#000000;stroke-linecap:round;"/>
   </g>
   <g id="text_21">
    <g id="patch_8">
     <path d="M 606.647368 103.24455 
L 624.459868 103.24455 
Q 627.659868 103.24455 627.659868 100.04455 
L 627.659868 92.30205 
Q 627.659868 89.10205 624.459868 89.10205 
L 606.647368 89.10205 
Q 603.447368 89.10205 603.447368 92.30205 
L 603.447368 100.04455 
Q 603.447368 103.24455 606.647368 103.24455 
z
" style="fill:#fffff0;stroke:#000000;stroke-linejoin:miter;"/>
    </g>
    <!-- 1,02 -->
    <g transform="translate(606.647368 98.3808)scale(0.08 -0.08)">
     <defs>
      <path d="M 11.71875 12.40625 
L 22.015625 12.40625 
L 22.015625 4 
L 14.015625 -11.625 
L 7.71875 -11.625 
L 11.71875 4 
z
" id="DejaVuSans-44"/>
     </defs>
     <use xlink:href="#DejaVuSans-49"/>
     <use x="63.623047" xlink:href="#DejaVuSans-44"/>
     <use x="95.410156" xlink:href="#DejaVuSans-48"/>
     <use x="159.033203" xlink:href="#DejaVuSans-50"/>
    </g>
   </g>
   <g id="text_22">
    <!-- Reproductiegetal -->
    <g transform="translate(308.77875 19.92)scale(0.12 -0.12)">
     <use xlink:href="#DejaVuSans-82"/>
     <use x="64.982422" xlink:href="#DejaVuSans-101"/>
     <use x="126.505859" xlink:href="#DejaVuSans-112"/>
     <use x="189.982422" xlink:href="#DejaVuSans-114"/>
     <use x="228.845703" xlink:href="#DejaVuSans-111"/>
     <use x="290.027344" xlink:href="#DejaVuSans-100"/>
     <use x="353.503906" xlink:href="#DejaVuSans-117"/>
     <use x="416.882812" xlink:href="#DejaVuSans-99"/>
     <use x="471.863281" xlink:href="#DejaVuSans-116"/>
     <use x="511.072266" xlink:href="#DejaVuSans-105"/>
     <use x="538.855469" xlink:href="#DejaVuSans-101"/>
     <use x="600.378906" xlink:href="#DejaVuSans-103"/>
     <use x="663.855469" xlink:href="#DejaVuSans-101"/>
     <use x="725.378906" xlink:href="#DejaVuSans-116"/>
     <use x="764.587891" xlink:href="#DejaVuSans-97"/>
     <use x="825.867188" xlink:href="#DejaVuSans-108"/>
    </g>
   </g>
  </g>
  <g id="text_23">
   <!-- Gegenereerd op 2020-11-25 23:19, Rt berekend tot 2020-11-06. -->
   <g style="fill:#808080;" transform="translate(7.2 204.88175)scale(0.08 -0.08)">
    <defs>
     <path d="M 59.515625 10.40625 
L 59.515625 29.984375 
L 43.40625 29.984375 
L 43.40625 38.09375 
L 69.28125 38.09375 
L 69.28125 6.78125 
Q 63.578125 2.734375 56.6875 0.65625 
Q 49.8125 -1.421875 42 -1.421875 
Q 24.90625 -1.421875 15.25 8.5625 
Q 5.609375 18.5625 5.609375 36.375 
Q 5.609375 54.25 15.25 64.234375 
Q 24.90625 74.21875 42 74.21875 
Q 49.125 74.21875 55.546875 72.453125 
Q 61.96875 70.703125 67.390625 67.28125 
L 67.390625 56.78125 
Q 61.921875 61.421875 55.765625 63.765625 
Q 49.609375 66.109375 42.828125 66.109375 
Q 29.4375 66.109375 22.71875 58.640625 
Q 16.015625 51.171875 16.015625 36.375 
Q 16.015625 21.625 22.71875 14.15625 
Q 29.4375 6.6875 42.828125 6.6875 
Q 48.046875 6.6875 52.140625 7.59375 
Q 56.25 8.5 59.515625 10.40625 
z
" id="DejaVuSans-71"/>
     <path d="M 54.890625 33.015625 
L 54.890625 0 
L 45.90625 0 
L 45.90625 32.71875 
Q 45.90625 40.484375 42.875 44.328125 
Q 39.84375 48.1875 33.796875 48.1875 
Q 26.515625 48.1875 22.3125 43.546875 
Q 18.109375 38.921875 18.109375 30.90625 
L 18.109375 0 
L 9.078125 0 
L 9.078125 54.6875 
L 18.109375 54.6875 
L 18.109375 46.1875 
Q 21.34375 51.125 25.703125 53.5625 
Q 30.078125 56 35.796875 56 
Q 45.21875 56 50.046875 50.171875 
Q 54.890625 44.34375 54.890625 33.015625 
z
" id="DejaVuSans-110"/>
     <path id="DejaVuSans-32"/>
     <path d="M 11.71875 12.40625 
L 22.015625 12.40625 
L 22.015625 0 
L 11.71875 0 
z
M 11.71875 51.703125 
L 22.015625 51.703125 
L 22.015625 39.3125 
L 11.71875 39.3125 
z
" id="DejaVuSans-58"/>
     <path d="M 48.6875 27.296875 
Q 48.6875 37.203125 44.609375 42.84375 
Q 40.53125 48.484375 33.40625 48.484375 
Q 26.265625 48.484375 22.1875 42.84375 
Q 18.109375 37.203125 18.109375 27.296875 
Q 18.109375 17.390625 22.1875 11.75 
Q 26.265625 6.109375 33.40625 6.109375 
Q 40.53125 6.109375 44.609375 11.75 
Q 48.6875 17.390625 48.6875 27.296875 
z
M 18.109375 46.390625 
Q 20.953125 51.265625 25.265625 53.625 
Q 29.59375 56 35.59375 56 
Q 45.5625 56 51.78125 48.09375 
Q 58.015625 40.1875 58.015625 27.296875 
Q 58.015625 14.40625 51.78125 6.484375 
Q 45.5625 -1.421875 35.59375 -1.421875 
Q 29.59375 -1.421875 25.265625 0.953125 
Q 20.953125 3.328125 18.109375 8.203125 
L 18.109375 0 
L 9.078125 0 
L 9.078125 75.984375 
L 18.109375 75.984375 
z
" id="DejaVuSans-98"/>
     <path d="M 9.078125 75.984375 
L 18.109375 75.984375 
L 18.109375 31.109375 
L 44.921875 54.6875 
L 56.390625 54.6875 
L 27.390625 29.109375 
L 57.625 0 
L 45.90625 0 
L 18.109375 26.703125 
L 18.109375 0 
L 9.078125 0 
z
" id="DejaVuSans-107"/>
    </defs>
    <use xlink:href="#DejaVuSans-71"/>
    <use x="77.490234" xlink:href="#DejaVuSans-101"/>
    <use x="139.013672" xlink:href="#DejaVuSans-103"/>
    <use x="202.490234" xlink:href="#DejaVuSans-101"/>
    <use x="264.013672" xlink:href="#DejaVuSans-110"/>
    <use x="327.392578" xlink:href="#DejaVuSans-101"/>
    <use x="388.916016" xlink:href="#DejaVuSans-114"/>
    <use x="427.779297" xlink:href="#DejaVuSans-101"/>
    <use x="489.302734" xlink:href="#DejaVuSans-101"/>
    <use x="550.826172" xlink:href="#DejaVuSans-114"/>
    <use x="590.189453" xlink:href="#DejaVuSans-100"/>
    <use x="653.666016" xlink:href="#DejaVuSans-32"/>
    <use x="685.453125" xlink:href="#DejaVuSans-111"/>
    <use x="746.634766" xlink:href="#DejaVuSans-112"/>
    <use x="810.111328" xlink:href="#DejaVuSans-32"/>
    <use x="841.898438" xlink:href="#DejaVuSans-50"/>
    <use x="905.521484" xlink:href="#DejaVuSans-48"/>
    <use x="969.144531" xlink:href="#DejaVuSans-50"/>
    <use x="1032.767578" xlink:href="#DejaVuSans-48"/>
    <use x="1096.390625" xlink:href="#DejaVuSans-45"/>
    <use x="1132.474609" xlink:href="#DejaVuSans-49"/>
    <use x="1196.097656" xlink:href="#DejaVuSans-49"/>
    <use x="1259.720703" xlink:href="#DejaVuSans-45"/>
    <use x="1295.804688" xlink:href="#DejaVuSans-50"/>
    <use x="1359.427734" xlink:href="#DejaVuSans-53"/>
    <use x="1423.050781" xlink:href="#DejaVuSans-32"/>
    <use x="1454.837891" xlink:href="#DejaVuSans-50"/>
    <use x="1518.460938" xlink:href="#DejaVuSans-51"/>
    <use x="1582.083984" xlink:href="#DejaVuSans-58"/>
    <use x="1615.775391" xlink:href="#DejaVuSans-49"/>
    <use x="1679.398438" xlink:href="#DejaVuSans-57"/>
    <use x="1743.021484" xlink:href="#DejaVuSans-44"/>
    <use x="1774.808594" xlink:href="#DejaVuSans-32"/>
    <use x="1806.595703" xlink:href="#DejaVuSans-82"/>
    <use x="1876.078125" xlink:href="#DejaVuSans-116"/>
    <use x="1915.287109" xlink:href="#DejaVuSans-32"/>
    <use x="1947.074219" xlink:href="#DejaVuSans-98"/>
    <use x="2010.550781" xlink:href="#DejaVuSans-101"/>
    <use x="2072.074219" xlink:href="#DejaVuSans-114"/>
    <use x="2110.9375" xlink:href="#DejaVuSans-101"/>
    <use x="2172.460938" xlink:href="#DejaVuSans-107"/>
    <use x="2226.746094" xlink:href="#DejaVuSans-101"/>
    <use x="2288.269531" xlink:href="#DejaVuSans-110"/>
    <use x="2351.648438" xlink:href="#DejaVuSans-100"/>
    <use x="2415.125" xlink:href="#DejaVuSans-32"/>
    <use x="2446.912109" xlink:href="#DejaVuSans-116"/>
    <use x="2486.121094" xlink:href="#DejaVuSans-111"/>
    <use x="2547.302734" xlink:href="#DejaVuSans-116"/>
    <use x="2586.511719" xlink:href="#DejaVuSans-32"/>
    <use x="2618.298828" xlink:href="#DejaVuSans-50"/>
    <use x="2681.921875" xlink:href="#DejaVuSans-48"/>
    <use x="2745.544922" xlink:href="#DejaVuSans-50"/>
    <use x="2809.167969" xlink:href="#DejaVuSans-48"/>
    <use x="2872.791016" xlink:href="#DejaVuSans-45"/>
    <use x="2908.875" xlink:href="#DejaVuSans-49"/>
    <use x="2972.498047" xlink:href="#DejaVuSans-49"/>
    <use x="3036.121094" xlink:href="#DejaVuSans-45"/>
    <use x="3072.205078" xlink:href="#DejaVuSans-48"/>
    <use x="3135.828125" xlink:href="#DejaVuSans-54"/>
    <use x="3199.451172" xlink:href="#DejaVuSans-46"/>
   </g>
   <!-- Source code: http://github.com/realrolfje/coronadata -->
   <g style="fill:#808080;" transform="translate(7.2 213.84)scale(0.08 -0.08)">
    <defs>
     <path d="M 53.515625 70.515625 
L 53.515625 60.890625 
Q 47.90625 63.578125 42.921875 64.890625 
Q 37.9375 66.21875 33.296875 66.21875 
Q 25.25 66.21875 20.875 63.09375 
Q 16.5 59.96875 16.5 54.203125 
Q 16.5 49.359375 19.40625 46.890625 
Q 22.3125 44.4375 30.421875 42.921875 
L 36.375 41.703125 
Q 47.40625 39.59375 52.65625 34.296875 
Q 57.90625 29 57.90625 20.125 
Q 57.90625 9.515625 50.796875 4.046875 
Q 43.703125 -1.421875 29.984375 -1.421875 
Q 24.8125 -1.421875 18.96875 -0.25 
Q 13.140625 0.921875 6.890625 3.21875 
L 6.890625 13.375 
Q 12.890625 10.015625 18.65625 8.296875 
Q 24.421875 6.59375 29.984375 6.59375 
Q 38.421875 6.59375 43.015625 9.90625 
Q 47.609375 13.234375 47.609375 19.390625 
Q 47.609375 24.75 44.3125 27.78125 
Q 41.015625 30.8125 33.5 32.328125 
L 27.484375 33.5 
Q 16.453125 35.6875 11.515625 40.375 
Q 6.59375 45.0625 6.59375 53.421875 
Q 6.59375 63.09375 13.40625 68.65625 
Q 20.21875 74.21875 32.171875 74.21875 
Q 37.3125 74.21875 42.625 73.28125 
Q 47.953125 72.359375 53.515625 70.515625 
z
" id="DejaVuSans-83"/>
     <path d="M 54.890625 33.015625 
L 54.890625 0 
L 45.90625 0 
L 45.90625 32.71875 
Q 45.90625 40.484375 42.875 44.328125 
Q 39.84375 48.1875 33.796875 48.1875 
Q 26.515625 48.1875 22.3125 43.546875 
Q 18.109375 38.921875 18.109375 30.90625 
L 18.109375 0 
L 9.078125 0 
L 9.078125 75.984375 
L 18.109375 75.984375 
L 18.109375 46.1875 
Q 21.34375 51.125 25.703125 53.5625 
Q 30.078125 56 35.796875 56 
Q 45.21875 56 50.046875 50.171875 
Q 54.890625 44.34375 54.890625 33.015625 
z
" id="DejaVuSans-104"/>
     <path d="M 25.390625 72.90625 
L 33.6875 72.90625 
L 8.296875 -9.28125 
L 0 -9.28125 
z
" id="DejaVuSans-47"/>
     <path d="M 37.109375 75.984375 
L 37.109375 68.5 
L 28.515625 68.5 
Q 23.6875 68.5 21.796875 66.546875 
Q 19.921875 64.59375 19.921875 59.515625 
L 19.921875 54.6875 
L 34.71875 54.6875 
L 34.71875 47.703125 
L 19.921875 47.703125 
L 19.921875 0 
L 10.890625 0 
L 10.890625 47.703125 
L 2.296875 47.703125 
L 2.296875 54.6875 
L 10.890625 54.6875 
L 10.890625 58.5 
Q 10.890625 67.625 15.140625 71.796875 
Q 19.390625 75.984375 28.609375 75.984375 
z
" id="DejaVuSans-102"/>
     <path d="M 9.421875 54.6875 
L 18.40625 54.6875 
L 18.40625 -0.984375 
Q 18.40625 -11.421875 14.421875 -16.109375 
Q 10.453125 -20.796875 1.609375 -20.796875 
L -1.8125 -20.796875 
L -1.8125 -13.1875 
L 0.59375 -13.1875 
Q 5.71875 -13.1875 7.5625 -10.8125 
Q 9.421875 -8.453125 9.421875 -0.984375 
z
M 9.421875 75.984375 
L 18.40625 75.984375 
L 18.40625 64.59375 
L 9.421875 64.59375 
z
" id="DejaVuSans-106"/>
    </defs>
    <use xlink:href="#DejaVuSans-83"/>
    <use x="63.476562" xlink:href="#DejaVuSans-111"/>
    <use x="124.658203" xlink:href="#DejaVuSans-117"/>
    <use x="188.037109" xlink:href="#DejaVuSans-114"/>
    <use x="226.900391" xlink:href="#DejaVuSans-99"/>
    <use x="281.880859" xlink:href="#DejaVuSans-101"/>
    <use x="343.404297" xlink:href="#DejaVuSans-32"/>
    <use x="375.191406" xlink:href="#DejaVuSans-99"/>
    <use x="430.171875" xlink:href="#DejaVuSans-111"/>
    <use x="491.353516" xlink:href="#DejaVuSans-100"/>
    <use x="554.830078" xlink:href="#DejaVuSans-101"/>
    <use x="616.353516" xlink:href="#DejaVuSans-58"/>
    <use x="650.044922" xlink:href="#DejaVuSans-32"/>
    <use x="681.832031" xlink:href="#DejaVuSans-104"/>
    <use x="745.210938" xlink:href="#DejaVuSans-116"/>
    <use x="784.419922" xlink:href="#DejaVuSans-116"/>
    <use x="823.628906" xlink:href="#DejaVuSans-112"/>
    <use x="887.105469" xlink:href="#DejaVuSans-58"/>
    <use x="920.796875" xlink:href="#DejaVuSans-47"/>
    <use x="954.488281" xlink:href="#DejaVuSans-47"/>
    <use x="988.179688" xlink:href="#DejaVuSans-103"/>
    <use x="1051.65625" xlink:href="#DejaVuSans-105"/>
    <use x="1079.439453" xlink:href="#DejaVuSans-116"/>
    <use x="1118.648438" xlink:href="#DejaVuSans-104"/>
    <use x="1182.027344" xlink:href="#DejaVuSans-117"/>
    <use x="1245.40625" xlink:href="#DejaVuSans-98"/>
    <use x="1308.882812" xlink:href="#DejaVuSans-46"/>
    <use x="1340.669922" xlink:href="#DejaVuSans-99"/>
    <use x="1395.650391" xlink:href="#DejaVuSans-111"/>
    <use x="1456.832031" xlink:href="#DejaVuSans-109"/>
    <use x="1554.244141" xlink:href="#DejaVuSans-47"/>
    <use x="1587.935547" xlink:href="#DejaVuSans-114"/>
    <use x="1626.798828" xlink:href="#DejaVuSans-101"/>
    <use x="1688.322266" xlink:href="#DejaVuSans-97"/>
    <use x="1749.601562" xlink:href="#DejaVuSans-108"/>
    <use x="1777.384766" xlink:href="#DejaVuSans-114"/>
    <use x="1816.248047" xlink:href="#DejaVuSans-111"/>
    <use x="1877.429688" xlink:href="#DejaVuSans-108"/>
    <use x="1905.212891" xlink:href="#DejaVuSans-102"/>
    <use x="1940.417969" xlink:href="#DejaVuSans-106"/>
    <use x="1968.201172" xlink:href="#DejaVuSans-101"/>
    <use x="2029.724609" xlink:href="#DejaVuSans-47"/>
    <use x="2063.416016" xlink:href="#DejaVuSans-99"/>
    <use x="2118.396484" xlink:href="#DejaVuSans-111"/>
    <use x="2179.578125" xlink:href="#DejaVuSans-114"/>
    <use x="2218.441406" xlink:href="#DejaVuSans-111"/>
    <use x="2279.623047" xlink:href="#DejaVuSans-110"/>
    <use x="2343.001953" xlink:href="#DejaVuSans-97"/>
    <use x="2404.28125" xlink:href="#DejaVuSans-100"/>
    <use x="2467.757812" xlink:href="#DejaVuSans-97"/>
    <use x="2529.037109" xlink:href="#DejaVuSans-116"/>
    <use x="2568.246094" xlink:href="#DejaVuSans-97"/>
   </g>
  </g>
  <g id="text_24">
   <!-- Bron: https://data.rivm.nl/covid-19 -->
   <g style="fill:#808080;" transform="translate(574.79875 213.84)scale(0.08 -0.08)">
    <defs>
     <path d="M 19.671875 34.8125 
L 19.671875 8.109375 
L 35.5 8.109375 
Q 43.453125 8.109375 47.28125 11.40625 
Q 51.125 14.703125 51.125 21.484375 
Q 51.125 28.328125 47.28125 31.5625 
Q 43.453125 34.8125 35.5 34.8125 
z
M 19.671875 64.796875 
L 19.671875 42.828125 
L 34.28125 42.828125 
Q 41.5 42.828125 45.03125 45.53125 
Q 48.578125 48.25 48.578125 53.8125 
Q 48.578125 59.328125 45.03125 62.0625 
Q 41.5 64.796875 34.28125 64.796875 
z
M 9.8125 72.90625 
L 35.015625 72.90625 
Q 46.296875 72.90625 52.390625 68.21875 
Q 58.5 63.53125 58.5 54.890625 
Q 58.5 48.1875 55.375 44.234375 
Q 52.25 40.28125 46.1875 39.3125 
Q 53.46875 37.75 57.5 32.78125 
Q 61.53125 27.828125 61.53125 20.40625 
Q 61.53125 10.640625 54.890625 5.3125 
Q 48.25 0 35.984375 0 
L 9.8125 0 
z
" id="DejaVuSans-66"/>
     <path d="M 44.28125 53.078125 
L 44.28125 44.578125 
Q 40.484375 46.53125 36.375 47.5 
Q 32.28125 48.484375 27.875 48.484375 
Q 21.1875 48.484375 17.84375 46.4375 
Q 14.5 44.390625 14.5 40.28125 
Q 14.5 37.15625 16.890625 35.375 
Q 19.28125 33.59375 26.515625 31.984375 
L 29.59375 31.296875 
Q 39.15625 29.25 43.1875 25.515625 
Q 47.21875 21.78125 47.21875 15.09375 
Q 47.21875 7.46875 41.1875 3.015625 
Q 35.15625 -1.421875 24.609375 -1.421875 
Q 20.21875 -1.421875 15.453125 -0.5625 
Q 10.6875 0.296875 5.421875 2 
L 5.421875 11.28125 
Q 10.40625 8.6875 15.234375 7.390625 
Q 20.0625 6.109375 24.8125 6.109375 
Q 31.15625 6.109375 34.5625 8.28125 
Q 37.984375 10.453125 37.984375 14.40625 
Q 37.984375 18.0625 35.515625 20.015625 
Q 33.0625 21.96875 24.703125 23.78125 
L 21.578125 24.515625 
Q 13.234375 26.265625 9.515625 29.90625 
Q 5.8125 33.546875 5.8125 39.890625 
Q 5.8125 47.609375 11.28125 51.796875 
Q 16.75 56 26.8125 56 
Q 31.78125 56 36.171875 55.265625 
Q 40.578125 54.546875 44.28125 53.078125 
z
" id="DejaVuSans-115"/>
     <path d="M 2.984375 54.6875 
L 12.5 54.6875 
L 29.59375 8.796875 
L 46.6875 54.6875 
L 56.203125 54.6875 
L 35.6875 0 
L 23.484375 0 
z
" id="DejaVuSans-118"/>
    </defs>
    <use xlink:href="#DejaVuSans-66"/>
    <use x="68.603516" xlink:href="#DejaVuSans-114"/>
    <use x="107.466797" xlink:href="#DejaVuSans-111"/>
    <use x="168.648438" xlink:href="#DejaVuSans-110"/>
    <use x="232.027344" xlink:href="#DejaVuSans-58"/>
    <use x="265.71875" xlink:href="#DejaVuSans-32"/>
    <use x="297.505859" xlink:href="#DejaVuSans-104"/>
    <use x="360.884766" xlink:href="#DejaVuSans-116"/>
    <use x="400.09375" xlink:href="#DejaVuSans-116"/>
    <use x="439.302734" xlink:href="#DejaVuSans-112"/>
    <use x="502.779297" xlink:href="#DejaVuSans-115"/>
    <use x="554.878906" xlink:href="#DejaVuSans-58"/>
    <use x="588.570312" xlink:href="#DejaVuSans-47"/>
    <use x="622.261719" xlink:href="#DejaVuSans-47"/>
    <use x="655.953125" xlink:href="#DejaVuSans-100"/>
    <use x="719.429688" xlink:href="#DejaVuSans-97"/>
    <use x="780.708984" xlink:href="#DejaVuSans-116"/>
    <use x="819.917969" xlink:href="#DejaVuSans-97"/>
    <use x="881.197266" xlink:href="#DejaVuSans-46"/>
    <use x="912.984375" xlink:href="#DejaVuSans-114"/>
    <use x="954.097656" xlink:href="#DejaVuSans-105"/>
    <use x="981.880859" xlink:href="#DejaVuSans-118"/>
    <use x="1041.060547" xlink:href="#DejaVuSans-109"/>
    <use x="1138.472656" xlink:href="#DejaVuSans-46"/>
    <use x="1170.259766" xlink:href="#DejaVuSans-110"/>
    <use x="1233.638672" xlink:href="#DejaVuSans-108"/>
    <use x="1261.421875" xlink:href="#DejaVuSans-47"/>
    <use x="1295.113281" xlink:href="#DejaVuSans-99"/>
    <use x="1350.09375" xlink:href="#DejaVuSans-111"/>
    <use x="1411.275391" xlink:href="#DejaVuSans-118"/>
    <use x="1470.455078" xlink:href="#DejaVuSans-105"/>
    <use x="1498.238281" xlink:href="#DejaVuSans-100"/>
    <use x="1561.714844" xlink:href="#DejaVuSans-45"/>
    <use x="1597.798828" xlink:href="#DejaVuSans-49"/>
    <use x="1661.421875" xlink:href="#DejaVuSans-57"/>
   </g>
  </g>
  <g id="text_25">
   <g id="patch_9">
    <path d="M 637.2 176.62375 
L 647.38 176.62375 
L 647.38 168.88125 
L 637.2 168.88125 
z
" style="fill:#ffffff;opacity:0.9;stroke:#ffffff;stroke-linejoin:miter;"/>
   </g>
   <!-- 25 -->
   <g style="fill:#ff0000;" transform="translate(637.2 174.96)scale(0.08 -0.08)">
    <use xlink:href="#DejaVuSans-50"/>
    <use x="63.623047" xlink:href="#DejaVuSans-53"/>
   </g>
  </g>
 </g>
 <defs>
  <clipPath id="pa380514c29">
   <rect height="146.88" width="590.4" x="64.8" y="25.92"/>
  </clipPath>
 </defs>
</svg>
