<?xml version="1.0" encoding="utf-8" standalone="no"?>
<!DOCTYPE svg PUBLIC "-//W3C//DTD SVG 1.1//EN"
  "http://www.w3.org/Graphics/SVG/1.1/DTD/svg11.dtd">
<!-- Created with matplotlib (https://matplotlib.org/) -->
<svg height="216pt" version="1.1" viewBox="0 0 720 216" width="720pt" xmlns="http://www.w3.org/2000/svg" xmlns:xlink="http://www.w3.org/1999/xlink">
 <metadata>
  <rdf:RDF xmlns:cc="http://creativecommons.org/ns#" xmlns:dc="http://purl.org/dc/elements/1.1/" xmlns:rdf="http://www.w3.org/1999/02/22-rdf-syntax-ns#">
   <cc:Work>
    <dc:type rdf:resource="http://purl.org/dc/dcmitype/StillImage"/>
    <dc:date>2020-10-25T11:16:42.717590</dc:date>
    <dc:format>image/svg+xml</dc:format>
    <dc:creator>
     <cc:Agent>
      <dc:title>Matplotlib v3.3.2, https://matplotlib.org/</dc:title>
     </cc:Agent>
    </dc:creator>
   </cc:Work>
  </rdf:RDF>
 </metadata>
 <defs>
  <style type="text/css">*{stroke-linecap:butt;stroke-linejoin:round;}</style>
 </defs>
 <g id="figure_1">
  <g id="patch_1">
   <path d="M 0 216 
L 720 216 
L 720 0 
L 0 0 
z
" style="fill:#ffffff;"/>
  </g>
  <g id="axes_1">
   <g id="patch_2">
    <path d="M 64.8 172.8 
L 655.2 172.8 
L 655.2 25.92 
L 64.8 25.92 
z
" style="fill:#ffffff;"/>
   </g>
   <g id="PolyCollection_1">
    <path clip-path="url(#p92c86553d2)" d="M 99.275912 123.84 
L 99.275912 123.84 
L 101.430657 123.84 
L 103.585401 123.84 
L 105.740146 123.84 
L 107.894891 123.84 
L 110.049635 123.84 
L 112.20438 123.84 
L 114.359124 123.84 
L 116.513869 123.84 
L 118.668613 123.84 
L 120.823358 123.84 
L 122.978102 123.84 
L 125.132847 123.84 
L 127.287591 123.84 
L 129.442336 123.84 
L 131.59708 123.84 
L 133.751825 123.84 
L 135.906569 123.84 
L 138.061314 123.84 
L 140.216058 123.84 
L 142.370803 123.84 
L 144.525547 123.84 
L 146.680292 123.84 
L 148.835036 123.84 
L 150.989781 123.84 
L 153.144526 123.84 
L 155.29927 123.84 
L 157.454015 123.84 
L 158.531387 123.84 
L 157.454015 121.8816 
L 155.29927 116.0064 
L 153.144526 111.6 
L 150.989781 107.6832 
L 148.835036 102.7872 
L 146.680292 96.912 
L 144.525547 91.0368 
L 142.370803 84.672 
L 140.216058 79.776 
L 138.061314 80.2656 
L 135.906569 81.7344 
L 133.751825 82.7136 
L 131.59708 83.6928 
L 129.442336 85.1616 
L 127.287591 83.2032 
L 125.132847 75.3696 
L 122.978102 69.984 
L 120.823358 71.9424 
L 118.668613 71.9424 
L 116.513869 67.536 
L 114.359124 65.088 
L 112.20438 66.0672 
L 110.049635 66.5568 
L 107.894891 73.4112 
L 105.740146 87.6096 
L 103.585401 94.9536 
L 101.430657 87.6096 
L 99.275912 78.3072 
z
" style="fill:#ff0000;fill-opacity:0.3;"/>
    <path clip-path="url(#p92c86553d2)" d="M 291.048175 123.84 
L 293.20292 123.84 
L 295.357664 123.84 
L 297.512409 123.84 
L 298.948905 123.84 
L 297.512409 119.9232 
L 295.357664 117.4752 
L 293.20292 119.9232 
z
" style="fill:#ff0000;fill-opacity:0.3;"/>
    <path clip-path="url(#p92c86553d2)" d="M 331.557372 123.84 
L 331.988321 123.84 
L 334.143066 123.84 
L 336.29781 123.84 
L 338.452555 123.84 
L 340.607299 123.84 
L 342.762044 123.84 
L 344.525017 123.84 
L 342.762044 115.0272 
L 340.607299 109.152 
L 338.452555 111.1104 
L 336.29781 116.9856 
L 334.143066 121.392 
L 331.988321 123.3504 
z
" style="fill:#ff0000;fill-opacity:0.3;"/>
    <path clip-path="url(#p92c86553d2)" d="M 363.87854 123.84 
L 364.309489 123.84 
L 366.464234 123.84 
L 368.618978 123.84 
L 369.049927 123.84 
L 368.618978 123.3504 
L 366.464234 122.3712 
L 364.309489 123.3504 
z
" style="fill:#ff0000;fill-opacity:0.3;"/>
    <path clip-path="url(#p92c86553d2)" d="M 387.149781 123.84 
L 388.011679 123.84 
L 390.166423 123.84 
L 392.321168 123.84 
L 394.475912 123.84 
L 396.630657 123.84 
L 398.785401 123.84 
L 400.940146 123.84 
L 403.094891 123.84 
L 405.249635 123.84 
L 407.40438 123.84 
L 409.559124 123.84 
L 411.713869 123.84 
L 413.868613 123.84 
L 416.023358 123.84 
L 418.178102 123.84 
L 420.332847 123.84 
L 422.487591 123.84 
L 424.642336 123.84 
L 426.79708 123.84 
L 428.951825 123.84 
L 431.106569 123.84 
L 433.261314 123.84 
L 435.416058 123.84 
L 437.570803 123.84 
L 439.725547 123.84 
L 441.880292 123.84 
L 444.035036 123.84 
L 446.189781 123.84 
L 448.344526 123.84 
L 450.49927 123.84 
L 452.654015 123.84 
L 454.808759 123.84 
L 456.963504 123.84 
L 459.118248 123.84 
L 461.272993 123.84 
L 462.134891 123.84 
L 461.272993 122.8608 
L 459.118248 119.4336 
L 456.963504 115.5168 
L 454.808759 113.0688 
L 452.654015 112.0896 
L 450.49927 112.5792 
L 448.344526 113.0688 
L 446.189781 112.0896 
L 444.035036 109.152 
L 441.880292 105.2352 
L 439.725547 103.7664 
L 437.570803 104.256 
L 435.416058 106.704 
L 433.261314 109.152 
L 431.106569 109.152 
L 428.951825 108.6624 
L 426.79708 108.6624 
L 424.642336 110.1312 
L 422.487591 113.0688 
L 420.332847 115.5168 
L 418.178102 116.0064 
L 416.023358 112.5792 
L 413.868613 107.6832 
L 411.713869 103.7664 
L 409.559124 102.7872 
L 407.40438 103.7664 
L 405.249635 105.2352 
L 403.094891 105.7248 
L 400.940146 104.7456 
L 398.785401 102.7872 
L 396.630657 101.808 
L 394.475912 105.2352 
L 392.321168 111.6 
L 390.166423 117.9648 
L 388.011679 122.8608 
z
" style="fill:#ff0000;fill-opacity:0.3;"/>
    <path clip-path="url(#p92c86553d2)" d="M 492.157664 123.84 
L 493.594161 123.84 
L 495.748905 123.84 
L 497.90365 123.84 
L 500.058394 123.84 
L 502.213139 123.84 
L 504.367883 123.84 
L 506.522628 123.84 
L 508.677372 123.84 
L 510.832117 123.84 
L 512.986861 123.84 
L 515.141606 123.84 
L 517.29635 123.84 
L 519.451095 123.84 
L 521.605839 123.84 
L 523.760584 123.84 
L 525.915328 123.84 
L 528.070073 123.84 
L 530.224818 123.84 
L 532.379562 123.84 
L 534.534307 123.84 
L 536.689051 123.84 
L 538.843796 123.84 
L 540.99854 123.84 
L 543.153285 123.84 
L 545.308029 123.84 
L 547.462774 123.84 
L 549.617518 123.84 
L 551.772263 123.84 
L 553.927007 123.84 
L 556.081752 123.84 
L 558.236496 123.84 
L 560.391241 123.84 
L 562.545985 123.84 
L 564.70073 123.84 
L 566.855474 123.84 
L 569.010219 123.84 
L 571.164964 123.84 
L 573.319708 123.84 
L 575.474453 123.84 
L 577.629197 123.84 
L 579.783942 123.84 
L 581.938686 123.84 
L 584.093431 123.84 
L 586.248175 123.84 
L 588.40292 123.84 
L 590.557664 123.84 
L 590.557664 123.84 
L 590.557664 113.0688 
L 588.40292 112.0896 
L 586.248175 111.6 
L 584.093431 110.6208 
L 581.938686 109.6416 
L 579.783942 108.1728 
L 577.629197 107.1936 
L 575.474453 108.1728 
L 573.319708 110.1312 
L 571.164964 112.5792 
L 569.010219 114.5376 
L 566.855474 115.5168 
L 564.70073 115.0272 
L 562.545985 114.048 
L 560.391241 114.048 
L 558.236496 115.5168 
L 556.081752 116.496 
L 553.927007 116.496 
L 551.772263 115.0272 
L 549.617518 112.5792 
L 547.462774 110.6208 
L 545.308029 110.1312 
L 543.153285 110.6208 
L 540.99854 111.6 
L 538.843796 112.5792 
L 536.689051 112.0896 
L 534.534307 109.6416 
L 532.379562 107.6832 
L 530.224818 107.1936 
L 528.070073 107.1936 
L 525.915328 107.1936 
L 523.760584 107.6832 
L 521.605839 106.704 
L 519.451095 103.7664 
L 517.29635 102.7872 
L 515.141606 104.7456 
L 512.986861 108.6624 
L 510.832117 112.5792 
L 508.677372 114.5376 
L 506.522628 115.5168 
L 504.367883 115.0272 
L 502.213139 115.0272 
L 500.058394 116.496 
L 497.90365 118.4544 
L 495.748905 120.9024 
L 493.594161 122.8608 
z
" style="fill:#ff0000;fill-opacity:0.3;"/>
   </g>
   <g id="PolyCollection_2">
    <path clip-path="url(#p92c86553d2)" d="M 158.531387 123.84 
L 159.608759 123.84 
L 161.763504 123.84 
L 163.918248 123.84 
L 166.072993 123.84 
L 168.227737 123.84 
L 170.382482 123.84 
L 172.537226 123.84 
L 174.691971 123.84 
L 176.846715 123.84 
L 179.00146 123.84 
L 181.156204 123.84 
L 183.310949 123.84 
L 185.465693 123.84 
L 187.620438 123.84 
L 189.775182 123.84 
L 191.929927 123.84 
L 194.084672 123.84 
L 196.239416 123.84 
L 198.394161 123.84 
L 200.548905 123.84 
L 202.70365 123.84 
L 204.858394 123.84 
L 207.013139 123.84 
L 209.167883 123.84 
L 211.322628 123.84 
L 213.477372 123.84 
L 215.632117 123.84 
L 217.786861 123.84 
L 219.941606 123.84 
L 222.09635 123.84 
L 224.251095 123.84 
L 226.405839 123.84 
L 228.560584 123.84 
L 230.715328 123.84 
L 232.870073 123.84 
L 235.024818 123.84 
L 237.179562 123.84 
L 239.334307 123.84 
L 241.489051 123.84 
L 243.643796 123.84 
L 245.79854 123.84 
L 247.953285 123.84 
L 250.108029 123.84 
L 252.262774 123.84 
L 254.417518 123.84 
L 256.572263 123.84 
L 258.727007 123.84 
L 260.881752 123.84 
L 263.036496 123.84 
L 265.191241 123.84 
L 267.345985 123.84 
L 269.50073 123.84 
L 271.655474 123.84 
L 273.810219 123.84 
L 275.964964 123.84 
L 278.119708 123.84 
L 280.274453 123.84 
L 282.429197 123.84 
L 284.583942 123.84 
L 286.738686 123.84 
L 288.893431 123.84 
L 291.048175 123.84 
L 291.048175 123.84 
L 291.048175 123.84 
L 288.893431 128.2464 
L 286.738686 131.6736 
L 284.583942 133.632 
L 282.429197 134.6112 
L 280.274453 135.1008 
L 278.119708 134.6112 
L 275.964964 133.1424 
L 273.810219 132.6528 
L 271.655474 132.6528 
L 269.50073 132.1632 
L 267.345985 132.1632 
L 265.191241 133.632 
L 263.036496 135.5904 
L 260.881752 137.5488 
L 258.727007 139.0176 
L 256.572263 139.0176 
L 254.417518 138.0384 
L 252.262774 137.5488 
L 250.108029 137.0592 
L 247.953285 136.08 
L 245.79854 135.1008 
L 243.643796 135.1008 
L 241.489051 135.1008 
L 239.334307 136.5696 
L 237.179562 137.5488 
L 235.024818 138.528 
L 232.870073 137.5488 
L 230.715328 136.08 
L 228.560584 135.1008 
L 226.405839 135.1008 
L 224.251095 135.5904 
L 222.09635 136.5696 
L 219.941606 137.5488 
L 217.786861 138.528 
L 215.632117 139.0176 
L 213.477372 138.528 
L 211.322628 137.0592 
L 209.167883 134.6112 
L 207.013139 133.1424 
L 204.858394 134.1216 
L 202.70365 135.1008 
L 200.548905 136.08 
L 198.394161 137.5488 
L 196.239416 139.0176 
L 194.084672 139.0176 
L 191.929927 138.0384 
L 189.775182 136.08 
L 187.620438 135.5904 
L 185.465693 135.5904 
L 183.310949 136.5696 
L 181.156204 137.5488 
L 179.00146 138.0384 
L 176.846715 138.0384 
L 174.691971 137.5488 
L 172.537226 136.08 
L 170.382482 134.1216 
L 168.227737 133.1424 
L 166.072993 131.6736 
L 163.918248 129.7152 
L 161.763504 127.7568 
L 159.608759 125.7984 
z
" style="fill:#008000;fill-opacity:0.3;"/>
    <path clip-path="url(#p92c86553d2)" d="M 298.948905 123.84 
L 299.667153 123.84 
L 301.821898 123.84 
L 303.976642 123.84 
L 306.131387 123.84 
L 308.286131 123.84 
L 310.440876 123.84 
L 312.59562 123.84 
L 314.750365 123.84 
L 316.905109 123.84 
L 319.059854 123.84 
L 321.214599 123.84 
L 323.369343 123.84 
L 325.524088 123.84 
L 327.678832 123.84 
L 329.833577 123.84 
L 331.557372 123.84 
L 329.833577 125.7984 
L 327.678832 132.6528 
L 325.524088 139.9968 
L 323.369343 144.4032 
L 321.214599 147.3408 
L 319.059854 149.2992 
L 316.905109 149.2992 
L 314.750365 145.3824 
L 312.59562 139.5072 
L 310.440876 137.0592 
L 308.286131 133.632 
L 306.131387 129.7152 
L 303.976642 129.7152 
L 301.821898 129.7152 
L 299.667153 125.7984 
z
" style="fill:#008000;fill-opacity:0.3;"/>
    <path clip-path="url(#p92c86553d2)" d="M 344.525017 123.84 
L 344.916788 123.84 
L 347.071533 123.84 
L 349.226277 123.84 
L 351.381022 123.84 
L 353.535766 123.84 
L 355.690511 123.84 
L 357.845255 123.84 
L 360 123.84 
L 362.154745 123.84 
L 363.87854 123.84 
L 362.154745 125.7984 
L 360 129.2256 
L 357.845255 132.6528 
L 355.690511 135.5904 
L 353.535766 137.0592 
L 351.381022 137.0592 
L 349.226277 136.08 
L 347.071533 133.632 
L 344.916788 125.7984 
z
" style="fill:#008000;fill-opacity:0.3;"/>
    <path clip-path="url(#p92c86553d2)" d="M 369.049927 123.84 
L 370.773723 123.84 
L 372.928467 123.84 
L 375.083212 123.84 
L 377.237956 123.84 
L 379.392701 123.84 
L 381.547445 123.84 
L 383.70219 123.84 
L 385.856934 123.84 
L 387.149781 123.84 
L 385.856934 125.3088 
L 383.70219 126.288 
L 381.547445 126.288 
L 379.392701 126.7776 
L 377.237956 127.7568 
L 375.083212 128.2464 
L 372.928467 127.7568 
L 370.773723 125.7984 
z
" style="fill:#008000;fill-opacity:0.3;"/>
    <path clip-path="url(#p92c86553d2)" d="M 462.134891 123.84 
L 463.427737 123.84 
L 465.582482 123.84 
L 467.737226 123.84 
L 469.891971 123.84 
L 472.046715 123.84 
L 474.20146 123.84 
L 476.356204 123.84 
L 478.510949 123.84 
L 480.665693 123.84 
L 482.820438 123.84 
L 484.975182 123.84 
L 487.129927 123.84 
L 489.284672 123.84 
L 491.439416 123.84 
L 492.157664 123.84 
L 491.439416 124.3296 
L 489.284672 124.8192 
L 487.129927 125.3088 
L 484.975182 126.288 
L 482.820438 127.2672 
L 480.665693 127.7568 
L 478.510949 127.2672 
L 476.356204 126.7776 
L 474.20146 125.7984 
L 472.046715 125.3088 
L 469.891971 125.7984 
L 467.737226 126.7776 
L 465.582482 126.288 
L 463.427737 125.3088 
z
" style="fill:#008000;fill-opacity:0.3;"/>
   </g>
   <g id="matplotlib.axis_1">
    <g id="xtick_1">
     <g id="line2d_1">
      <path clip-path="url(#p92c86553d2)" d="M 64.8 172.8 
L 64.8 25.92 
" style="fill:none;stroke:#808080;stroke-dasharray:6.4,1.6,1,1.6;stroke-dashoffset:0;stroke-opacity:0.3;"/>
     </g>
     <g id="line2d_2">
      <defs>
       <path d="M 0 0 
L 0 3.5 
" id="m70f8861ed2" style="stroke:#000000;stroke-width:0.8;"/>
      </defs>
      <g>
       <use style="stroke:#000000;stroke-width:0.8;" x="64.8" xlink:href="#m70f8861ed2" y="172.8"/>
      </g>
     </g>
     <g id="text_1">
      <!-- 2020-02 -->
      <g transform="translate(43.908594 187.398438)scale(0.1 -0.1)">
       <defs>
        <path d="M 19.1875 8.296875 
L 53.609375 8.296875 
L 53.609375 0 
L 7.328125 0 
L 7.328125 8.296875 
Q 12.9375 14.109375 22.625 23.890625 
Q 32.328125 33.6875 34.8125 36.53125 
Q 39.546875 41.84375 41.421875 45.53125 
Q 43.3125 49.21875 43.3125 52.78125 
Q 43.3125 58.59375 39.234375 62.25 
Q 35.15625 65.921875 28.609375 65.921875 
Q 23.96875 65.921875 18.8125 64.3125 
Q 13.671875 62.703125 7.8125 59.421875 
L 7.8125 69.390625 
Q 13.765625 71.78125 18.9375 73 
Q 24.125 74.21875 28.421875 74.21875 
Q 39.75 74.21875 46.484375 68.546875 
Q 53.21875 62.890625 53.21875 53.421875 
Q 53.21875 48.921875 51.53125 44.890625 
Q 49.859375 40.875 45.40625 35.40625 
Q 44.1875 33.984375 37.640625 27.21875 
Q 31.109375 20.453125 19.1875 8.296875 
z
" id="DejaVuSans-50"/>
        <path d="M 31.78125 66.40625 
Q 24.171875 66.40625 20.328125 58.90625 
Q 16.5 51.421875 16.5 36.375 
Q 16.5 21.390625 20.328125 13.890625 
Q 24.171875 6.390625 31.78125 6.390625 
Q 39.453125 6.390625 43.28125 13.890625 
Q 47.125 21.390625 47.125 36.375 
Q 47.125 51.421875 43.28125 58.90625 
Q 39.453125 66.40625 31.78125 66.40625 
z
M 31.78125 74.21875 
Q 44.046875 74.21875 50.515625 64.515625 
Q 56.984375 54.828125 56.984375 36.375 
Q 56.984375 17.96875 50.515625 8.265625 
Q 44.046875 -1.421875 31.78125 -1.421875 
Q 19.53125 -1.421875 13.0625 8.265625 
Q 6.59375 17.96875 6.59375 36.375 
Q 6.59375 54.828125 13.0625 64.515625 
Q 19.53125 74.21875 31.78125 74.21875 
z
" id="DejaVuSans-48"/>
        <path d="M 4.890625 31.390625 
L 31.203125 31.390625 
L 31.203125 23.390625 
L 4.890625 23.390625 
z
" id="DejaVuSans-45"/>
       </defs>
       <use xlink:href="#DejaVuSans-50"/>
       <use x="63.623047" xlink:href="#DejaVuSans-48"/>
       <use x="127.246094" xlink:href="#DejaVuSans-50"/>
       <use x="190.869141" xlink:href="#DejaVuSans-48"/>
       <use x="254.492188" xlink:href="#DejaVuSans-45"/>
       <use x="290.576172" xlink:href="#DejaVuSans-48"/>
       <use x="354.199219" xlink:href="#DejaVuSans-50"/>
      </g>
     </g>
    </g>
    <g id="xtick_2">
     <g id="line2d_3">
      <path clip-path="url(#p92c86553d2)" d="M 127.287591 172.8 
L 127.287591 25.92 
" style="fill:none;stroke:#808080;stroke-dasharray:6.4,1.6,1,1.6;stroke-dashoffset:0;stroke-opacity:0.3;"/>
     </g>
     <g id="line2d_4">
      <g>
       <use style="stroke:#000000;stroke-width:0.8;" x="127.287591" xlink:href="#m70f8861ed2" y="172.8"/>
      </g>
     </g>
     <g id="text_2">
      <!-- 2020-03 -->
      <g transform="translate(106.396185 187.398438)scale(0.1 -0.1)">
       <defs>
        <path d="M 40.578125 39.3125 
Q 47.65625 37.796875 51.625 33 
Q 55.609375 28.21875 55.609375 21.1875 
Q 55.609375 10.40625 48.1875 4.484375 
Q 40.765625 -1.421875 27.09375 -1.421875 
Q 22.515625 -1.421875 17.65625 -0.515625 
Q 12.796875 0.390625 7.625 2.203125 
L 7.625 11.71875 
Q 11.71875 9.328125 16.59375 8.109375 
Q 21.484375 6.890625 26.8125 6.890625 
Q 36.078125 6.890625 40.9375 10.546875 
Q 45.796875 14.203125 45.796875 21.1875 
Q 45.796875 27.640625 41.28125 31.265625 
Q 36.765625 34.90625 28.71875 34.90625 
L 20.21875 34.90625 
L 20.21875 43.015625 
L 29.109375 43.015625 
Q 36.375 43.015625 40.234375 45.921875 
Q 44.09375 48.828125 44.09375 54.296875 
Q 44.09375 59.90625 40.109375 62.90625 
Q 36.140625 65.921875 28.71875 65.921875 
Q 24.65625 65.921875 20.015625 65.03125 
Q 15.375 64.15625 9.8125 62.3125 
L 9.8125 71.09375 
Q 15.4375 72.65625 20.34375 73.4375 
Q 25.25 74.21875 29.59375 74.21875 
Q 40.828125 74.21875 47.359375 69.109375 
Q 53.90625 64.015625 53.90625 55.328125 
Q 53.90625 49.265625 50.4375 45.09375 
Q 46.96875 40.921875 40.578125 39.3125 
z
" id="DejaVuSans-51"/>
       </defs>
       <use xlink:href="#DejaVuSans-50"/>
       <use x="63.623047" xlink:href="#DejaVuSans-48"/>
       <use x="127.246094" xlink:href="#DejaVuSans-50"/>
       <use x="190.869141" xlink:href="#DejaVuSans-48"/>
       <use x="254.492188" xlink:href="#DejaVuSans-45"/>
       <use x="290.576172" xlink:href="#DejaVuSans-48"/>
       <use x="354.199219" xlink:href="#DejaVuSans-51"/>
      </g>
     </g>
    </g>
    <g id="xtick_3">
     <g id="line2d_5">
      <path clip-path="url(#p92c86553d2)" d="M 194.084672 172.8 
L 194.084672 25.92 
" style="fill:none;stroke:#808080;stroke-dasharray:6.4,1.6,1,1.6;stroke-dashoffset:0;stroke-opacity:0.3;"/>
     </g>
     <g id="line2d_6">
      <g>
       <use style="stroke:#000000;stroke-width:0.8;" x="194.084672" xlink:href="#m70f8861ed2" y="172.8"/>
      </g>
     </g>
     <g id="text_3">
      <!-- 2020-04 -->
      <g transform="translate(173.193265 187.398438)scale(0.1 -0.1)">
       <defs>
        <path d="M 37.796875 64.3125 
L 12.890625 25.390625 
L 37.796875 25.390625 
z
M 35.203125 72.90625 
L 47.609375 72.90625 
L 47.609375 25.390625 
L 58.015625 25.390625 
L 58.015625 17.1875 
L 47.609375 17.1875 
L 47.609375 0 
L 37.796875 0 
L 37.796875 17.1875 
L 4.890625 17.1875 
L 4.890625 26.703125 
z
" id="DejaVuSans-52"/>
       </defs>
       <use xlink:href="#DejaVuSans-50"/>
       <use x="63.623047" xlink:href="#DejaVuSans-48"/>
       <use x="127.246094" xlink:href="#DejaVuSans-50"/>
       <use x="190.869141" xlink:href="#DejaVuSans-48"/>
       <use x="254.492188" xlink:href="#DejaVuSans-45"/>
       <use x="290.576172" xlink:href="#DejaVuSans-48"/>
       <use x="354.199219" xlink:href="#DejaVuSans-52"/>
      </g>
     </g>
    </g>
    <g id="xtick_4">
     <g id="line2d_7">
      <path clip-path="url(#p92c86553d2)" d="M 258.727007 172.8 
L 258.727007 25.92 
" style="fill:none;stroke:#808080;stroke-dasharray:6.4,1.6,1,1.6;stroke-dashoffset:0;stroke-opacity:0.3;"/>
     </g>
     <g id="line2d_8">
      <g>
       <use style="stroke:#000000;stroke-width:0.8;" x="258.727007" xlink:href="#m70f8861ed2" y="172.8"/>
      </g>
     </g>
     <g id="text_4">
      <!-- 2020-05 -->
      <g transform="translate(237.835601 187.398438)scale(0.1 -0.1)">
       <defs>
        <path d="M 10.796875 72.90625 
L 49.515625 72.90625 
L 49.515625 64.59375 
L 19.828125 64.59375 
L 19.828125 46.734375 
Q 21.96875 47.46875 24.109375 47.828125 
Q 26.265625 48.1875 28.421875 48.1875 
Q 40.625 48.1875 47.75 41.5 
Q 54.890625 34.8125 54.890625 23.390625 
Q 54.890625 11.625 47.5625 5.09375 
Q 40.234375 -1.421875 26.90625 -1.421875 
Q 22.3125 -1.421875 17.546875 -0.640625 
Q 12.796875 0.140625 7.71875 1.703125 
L 7.71875 11.625 
Q 12.109375 9.234375 16.796875 8.0625 
Q 21.484375 6.890625 26.703125 6.890625 
Q 35.15625 6.890625 40.078125 11.328125 
Q 45.015625 15.765625 45.015625 23.390625 
Q 45.015625 31 40.078125 35.4375 
Q 35.15625 39.890625 26.703125 39.890625 
Q 22.75 39.890625 18.8125 39.015625 
Q 14.890625 38.140625 10.796875 36.28125 
z
" id="DejaVuSans-53"/>
       </defs>
       <use xlink:href="#DejaVuSans-50"/>
       <use x="63.623047" xlink:href="#DejaVuSans-48"/>
       <use x="127.246094" xlink:href="#DejaVuSans-50"/>
       <use x="190.869141" xlink:href="#DejaVuSans-48"/>
       <use x="254.492188" xlink:href="#DejaVuSans-45"/>
       <use x="290.576172" xlink:href="#DejaVuSans-48"/>
       <use x="354.199219" xlink:href="#DejaVuSans-53"/>
      </g>
     </g>
    </g>
    <g id="xtick_5">
     <g id="line2d_9">
      <path clip-path="url(#p92c86553d2)" d="M 325.524088 172.8 
L 325.524088 25.92 
" style="fill:none;stroke:#808080;stroke-dasharray:6.4,1.6,1,1.6;stroke-dashoffset:0;stroke-opacity:0.3;"/>
     </g>
     <g id="line2d_10">
      <g>
       <use style="stroke:#000000;stroke-width:0.8;" x="325.524088" xlink:href="#m70f8861ed2" y="172.8"/>
      </g>
     </g>
     <g id="text_5">
      <!-- 2020-06 -->
      <g transform="translate(304.632681 187.398438)scale(0.1 -0.1)">
       <defs>
        <path d="M 33.015625 40.375 
Q 26.375 40.375 22.484375 35.828125 
Q 18.609375 31.296875 18.609375 23.390625 
Q 18.609375 15.53125 22.484375 10.953125 
Q 26.375 6.390625 33.015625 6.390625 
Q 39.65625 6.390625 43.53125 10.953125 
Q 47.40625 15.53125 47.40625 23.390625 
Q 47.40625 31.296875 43.53125 35.828125 
Q 39.65625 40.375 33.015625 40.375 
z
M 52.59375 71.296875 
L 52.59375 62.3125 
Q 48.875 64.0625 45.09375 64.984375 
Q 41.3125 65.921875 37.59375 65.921875 
Q 27.828125 65.921875 22.671875 59.328125 
Q 17.53125 52.734375 16.796875 39.40625 
Q 19.671875 43.65625 24.015625 45.921875 
Q 28.375 48.1875 33.59375 48.1875 
Q 44.578125 48.1875 50.953125 41.515625 
Q 57.328125 34.859375 57.328125 23.390625 
Q 57.328125 12.15625 50.6875 5.359375 
Q 44.046875 -1.421875 33.015625 -1.421875 
Q 20.359375 -1.421875 13.671875 8.265625 
Q 6.984375 17.96875 6.984375 36.375 
Q 6.984375 53.65625 15.1875 63.9375 
Q 23.390625 74.21875 37.203125 74.21875 
Q 40.921875 74.21875 44.703125 73.484375 
Q 48.484375 72.75 52.59375 71.296875 
z
" id="DejaVuSans-54"/>
       </defs>
       <use xlink:href="#DejaVuSans-50"/>
       <use x="63.623047" xlink:href="#DejaVuSans-48"/>
       <use x="127.246094" xlink:href="#DejaVuSans-50"/>
       <use x="190.869141" xlink:href="#DejaVuSans-48"/>
       <use x="254.492188" xlink:href="#DejaVuSans-45"/>
       <use x="290.576172" xlink:href="#DejaVuSans-48"/>
       <use x="354.199219" xlink:href="#DejaVuSans-54"/>
      </g>
     </g>
    </g>
    <g id="xtick_6">
     <g id="line2d_11">
      <path clip-path="url(#p92c86553d2)" d="M 390.166423 172.8 
L 390.166423 25.92 
" style="fill:none;stroke:#808080;stroke-dasharray:6.4,1.6,1,1.6;stroke-dashoffset:0;stroke-opacity:0.3;"/>
     </g>
     <g id="line2d_12">
      <g>
       <use style="stroke:#000000;stroke-width:0.8;" x="390.166423" xlink:href="#m70f8861ed2" y="172.8"/>
      </g>
     </g>
     <g id="text_6">
      <!-- 2020-07 -->
      <g transform="translate(369.275017 187.398438)scale(0.1 -0.1)">
       <defs>
        <path d="M 8.203125 72.90625 
L 55.078125 72.90625 
L 55.078125 68.703125 
L 28.609375 0 
L 18.3125 0 
L 43.21875 64.59375 
L 8.203125 64.59375 
z
" id="DejaVuSans-55"/>
       </defs>
       <use xlink:href="#DejaVuSans-50"/>
       <use x="63.623047" xlink:href="#DejaVuSans-48"/>
       <use x="127.246094" xlink:href="#DejaVuSans-50"/>
       <use x="190.869141" xlink:href="#DejaVuSans-48"/>
       <use x="254.492188" xlink:href="#DejaVuSans-45"/>
       <use x="290.576172" xlink:href="#DejaVuSans-48"/>
       <use x="354.199219" xlink:href="#DejaVuSans-55"/>
      </g>
     </g>
    </g>
    <g id="xtick_7">
     <g id="line2d_13">
      <path clip-path="url(#p92c86553d2)" d="M 456.963504 172.8 
L 456.963504 25.92 
" style="fill:none;stroke:#808080;stroke-dasharray:6.4,1.6,1,1.6;stroke-dashoffset:0;stroke-opacity:0.3;"/>
     </g>
     <g id="line2d_14">
      <g>
       <use style="stroke:#000000;stroke-width:0.8;" x="456.963504" xlink:href="#m70f8861ed2" y="172.8"/>
      </g>
     </g>
     <g id="text_7">
      <!-- 2020-08 -->
      <g transform="translate(436.072097 187.398438)scale(0.1 -0.1)">
       <defs>
        <path d="M 31.78125 34.625 
Q 24.75 34.625 20.71875 30.859375 
Q 16.703125 27.09375 16.703125 20.515625 
Q 16.703125 13.921875 20.71875 10.15625 
Q 24.75 6.390625 31.78125 6.390625 
Q 38.8125 6.390625 42.859375 10.171875 
Q 46.921875 13.96875 46.921875 20.515625 
Q 46.921875 27.09375 42.890625 30.859375 
Q 38.875 34.625 31.78125 34.625 
z
M 21.921875 38.8125 
Q 15.578125 40.375 12.03125 44.71875 
Q 8.5 49.078125 8.5 55.328125 
Q 8.5 64.0625 14.71875 69.140625 
Q 20.953125 74.21875 31.78125 74.21875 
Q 42.671875 74.21875 48.875 69.140625 
Q 55.078125 64.0625 55.078125 55.328125 
Q 55.078125 49.078125 51.53125 44.71875 
Q 48 40.375 41.703125 38.8125 
Q 48.828125 37.15625 52.796875 32.3125 
Q 56.78125 27.484375 56.78125 20.515625 
Q 56.78125 9.90625 50.3125 4.234375 
Q 43.84375 -1.421875 31.78125 -1.421875 
Q 19.734375 -1.421875 13.25 4.234375 
Q 6.78125 9.90625 6.78125 20.515625 
Q 6.78125 27.484375 10.78125 32.3125 
Q 14.796875 37.15625 21.921875 38.8125 
z
M 18.3125 54.390625 
Q 18.3125 48.734375 21.84375 45.5625 
Q 25.390625 42.390625 31.78125 42.390625 
Q 38.140625 42.390625 41.71875 45.5625 
Q 45.3125 48.734375 45.3125 54.390625 
Q 45.3125 60.0625 41.71875 63.234375 
Q 38.140625 66.40625 31.78125 66.40625 
Q 25.390625 66.40625 21.84375 63.234375 
Q 18.3125 60.0625 18.3125 54.390625 
z
" id="DejaVuSans-56"/>
       </defs>
       <use xlink:href="#DejaVuSans-50"/>
       <use x="63.623047" xlink:href="#DejaVuSans-48"/>
       <use x="127.246094" xlink:href="#DejaVuSans-50"/>
       <use x="190.869141" xlink:href="#DejaVuSans-48"/>
       <use x="254.492188" xlink:href="#DejaVuSans-45"/>
       <use x="290.576172" xlink:href="#DejaVuSans-48"/>
       <use x="354.199219" xlink:href="#DejaVuSans-56"/>
      </g>
     </g>
    </g>
    <g id="xtick_8">
     <g id="line2d_15">
      <path clip-path="url(#p92c86553d2)" d="M 523.760584 172.8 
L 523.760584 25.92 
" style="fill:none;stroke:#808080;stroke-dasharray:6.4,1.6,1,1.6;stroke-dashoffset:0;stroke-opacity:0.3;"/>
     </g>
     <g id="line2d_16">
      <g>
       <use style="stroke:#000000;stroke-width:0.8;" x="523.760584" xlink:href="#m70f8861ed2" y="172.8"/>
      </g>
     </g>
     <g id="text_8">
      <!-- 2020-09 -->
      <g transform="translate(502.869178 187.398438)scale(0.1 -0.1)">
       <defs>
        <path d="M 10.984375 1.515625 
L 10.984375 10.5 
Q 14.703125 8.734375 18.5 7.8125 
Q 22.3125 6.890625 25.984375 6.890625 
Q 35.75 6.890625 40.890625 13.453125 
Q 46.046875 20.015625 46.78125 33.40625 
Q 43.953125 29.203125 39.59375 26.953125 
Q 35.25 24.703125 29.984375 24.703125 
Q 19.046875 24.703125 12.671875 31.3125 
Q 6.296875 37.9375 6.296875 49.421875 
Q 6.296875 60.640625 12.9375 67.421875 
Q 19.578125 74.21875 30.609375 74.21875 
Q 43.265625 74.21875 49.921875 64.515625 
Q 56.59375 54.828125 56.59375 36.375 
Q 56.59375 19.140625 48.40625 8.859375 
Q 40.234375 -1.421875 26.421875 -1.421875 
Q 22.703125 -1.421875 18.890625 -0.6875 
Q 15.09375 0.046875 10.984375 1.515625 
z
M 30.609375 32.421875 
Q 37.25 32.421875 41.125 36.953125 
Q 45.015625 41.5 45.015625 49.421875 
Q 45.015625 57.28125 41.125 61.84375 
Q 37.25 66.40625 30.609375 66.40625 
Q 23.96875 66.40625 20.09375 61.84375 
Q 16.21875 57.28125 16.21875 49.421875 
Q 16.21875 41.5 20.09375 36.953125 
Q 23.96875 32.421875 30.609375 32.421875 
z
" id="DejaVuSans-57"/>
       </defs>
       <use xlink:href="#DejaVuSans-50"/>
       <use x="63.623047" xlink:href="#DejaVuSans-48"/>
       <use x="127.246094" xlink:href="#DejaVuSans-50"/>
       <use x="190.869141" xlink:href="#DejaVuSans-48"/>
       <use x="254.492188" xlink:href="#DejaVuSans-45"/>
       <use x="290.576172" xlink:href="#DejaVuSans-48"/>
       <use x="354.199219" xlink:href="#DejaVuSans-57"/>
      </g>
     </g>
    </g>
    <g id="xtick_9">
     <g id="line2d_17">
      <path clip-path="url(#p92c86553d2)" d="M 588.40292 172.8 
L 588.40292 25.92 
" style="fill:none;stroke:#808080;stroke-dasharray:6.4,1.6,1,1.6;stroke-dashoffset:0;stroke-opacity:0.3;"/>
     </g>
     <g id="line2d_18">
      <g>
       <use style="stroke:#000000;stroke-width:0.8;" x="588.40292" xlink:href="#m70f8861ed2" y="172.8"/>
      </g>
     </g>
     <g id="text_9">
      <!-- 2020-10 -->
      <g transform="translate(567.511513 187.398438)scale(0.1 -0.1)">
       <defs>
        <path d="M 12.40625 8.296875 
L 28.515625 8.296875 
L 28.515625 63.921875 
L 10.984375 60.40625 
L 10.984375 69.390625 
L 28.421875 72.90625 
L 38.28125 72.90625 
L 38.28125 8.296875 
L 54.390625 8.296875 
L 54.390625 0 
L 12.40625 0 
z
" id="DejaVuSans-49"/>
       </defs>
       <use xlink:href="#DejaVuSans-50"/>
       <use x="63.623047" xlink:href="#DejaVuSans-48"/>
       <use x="127.246094" xlink:href="#DejaVuSans-50"/>
       <use x="190.869141" xlink:href="#DejaVuSans-48"/>
       <use x="254.492188" xlink:href="#DejaVuSans-45"/>
       <use x="290.576172" xlink:href="#DejaVuSans-49"/>
       <use x="354.199219" xlink:href="#DejaVuSans-48"/>
      </g>
     </g>
    </g>
    <g id="xtick_10">
     <g id="line2d_19">
      <path clip-path="url(#p92c86553d2)" d="M 655.2 172.8 
L 655.2 25.92 
" style="fill:none;stroke:#808080;stroke-dasharray:6.4,1.6,1,1.6;stroke-dashoffset:0;stroke-opacity:0.3;"/>
     </g>
     <g id="line2d_20">
      <g>
       <use style="stroke:#000000;stroke-width:0.8;" x="655.2" xlink:href="#m70f8861ed2" y="172.8"/>
      </g>
     </g>
     <g id="text_10">
      <!-- 2020-11 -->
      <g transform="translate(634.308594 187.398438)scale(0.1 -0.1)">
       <use xlink:href="#DejaVuSans-50"/>
       <use x="63.623047" xlink:href="#DejaVuSans-48"/>
       <use x="127.246094" xlink:href="#DejaVuSans-50"/>
       <use x="190.869141" xlink:href="#DejaVuSans-48"/>
       <use x="254.492188" xlink:href="#DejaVuSans-45"/>
       <use x="290.576172" xlink:href="#DejaVuSans-49"/>
       <use x="354.199219" xlink:href="#DejaVuSans-49"/>
      </g>
     </g>
    </g>
    <g id="text_11">
     <!-- Datum -->
     <g transform="translate(343.086719 201.076562)scale(0.1 -0.1)">
      <defs>
       <path d="M 19.671875 64.796875 
L 19.671875 8.109375 
L 31.59375 8.109375 
Q 46.6875 8.109375 53.6875 14.9375 
Q 60.6875 21.78125 60.6875 36.53125 
Q 60.6875 51.171875 53.6875 57.984375 
Q 46.6875 64.796875 31.59375 64.796875 
z
M 9.8125 72.90625 
L 30.078125 72.90625 
Q 51.265625 72.90625 61.171875 64.09375 
Q 71.09375 55.28125 71.09375 36.53125 
Q 71.09375 17.671875 61.125 8.828125 
Q 51.171875 0 30.078125 0 
L 9.8125 0 
z
" id="DejaVuSans-68"/>
       <path d="M 34.28125 27.484375 
Q 23.390625 27.484375 19.1875 25 
Q 14.984375 22.515625 14.984375 16.5 
Q 14.984375 11.71875 18.140625 8.90625 
Q 21.296875 6.109375 26.703125 6.109375 
Q 34.1875 6.109375 38.703125 11.40625 
Q 43.21875 16.703125 43.21875 25.484375 
L 43.21875 27.484375 
z
M 52.203125 31.203125 
L 52.203125 0 
L 43.21875 0 
L 43.21875 8.296875 
Q 40.140625 3.328125 35.546875 0.953125 
Q 30.953125 -1.421875 24.3125 -1.421875 
Q 15.921875 -1.421875 10.953125 3.296875 
Q 6 8.015625 6 15.921875 
Q 6 25.140625 12.171875 29.828125 
Q 18.359375 34.515625 30.609375 34.515625 
L 43.21875 34.515625 
L 43.21875 35.40625 
Q 43.21875 41.609375 39.140625 45 
Q 35.0625 48.390625 27.6875 48.390625 
Q 23 48.390625 18.546875 47.265625 
Q 14.109375 46.140625 10.015625 43.890625 
L 10.015625 52.203125 
Q 14.9375 54.109375 19.578125 55.046875 
Q 24.21875 56 28.609375 56 
Q 40.484375 56 46.34375 49.84375 
Q 52.203125 43.703125 52.203125 31.203125 
z
" id="DejaVuSans-97"/>
       <path d="M 18.3125 70.21875 
L 18.3125 54.6875 
L 36.8125 54.6875 
L 36.8125 47.703125 
L 18.3125 47.703125 
L 18.3125 18.015625 
Q 18.3125 11.328125 20.140625 9.421875 
Q 21.96875 7.515625 27.59375 7.515625 
L 36.8125 7.515625 
L 36.8125 0 
L 27.59375 0 
Q 17.1875 0 13.234375 3.875 
Q 9.28125 7.765625 9.28125 18.015625 
L 9.28125 47.703125 
L 2.6875 47.703125 
L 2.6875 54.6875 
L 9.28125 54.6875 
L 9.28125 70.21875 
z
" id="DejaVuSans-116"/>
       <path d="M 8.5 21.578125 
L 8.5 54.6875 
L 17.484375 54.6875 
L 17.484375 21.921875 
Q 17.484375 14.15625 20.5 10.265625 
Q 23.53125 6.390625 29.59375 6.390625 
Q 36.859375 6.390625 41.078125 11.03125 
Q 45.3125 15.671875 45.3125 23.6875 
L 45.3125 54.6875 
L 54.296875 54.6875 
L 54.296875 0 
L 45.3125 0 
L 45.3125 8.40625 
Q 42.046875 3.421875 37.71875 1 
Q 33.40625 -1.421875 27.6875 -1.421875 
Q 18.265625 -1.421875 13.375 4.4375 
Q 8.5 10.296875 8.5 21.578125 
z
M 31.109375 56 
z
" id="DejaVuSans-117"/>
       <path d="M 52 44.1875 
Q 55.375 50.25 60.0625 53.125 
Q 64.75 56 71.09375 56 
Q 79.640625 56 84.28125 50.015625 
Q 88.921875 44.046875 88.921875 33.015625 
L 88.921875 0 
L 79.890625 0 
L 79.890625 32.71875 
Q 79.890625 40.578125 77.09375 44.375 
Q 74.3125 48.1875 68.609375 48.1875 
Q 61.625 48.1875 57.5625 43.546875 
Q 53.515625 38.921875 53.515625 30.90625 
L 53.515625 0 
L 44.484375 0 
L 44.484375 32.71875 
Q 44.484375 40.625 41.703125 44.40625 
Q 38.921875 48.1875 33.109375 48.1875 
Q 26.21875 48.1875 22.15625 43.53125 
Q 18.109375 38.875 18.109375 30.90625 
L 18.109375 0 
L 9.078125 0 
L 9.078125 54.6875 
L 18.109375 54.6875 
L 18.109375 46.1875 
Q 21.1875 51.21875 25.484375 53.609375 
Q 29.78125 56 35.6875 56 
Q 41.65625 56 45.828125 52.96875 
Q 50 49.953125 52 44.1875 
z
" id="DejaVuSans-109"/>
      </defs>
      <use xlink:href="#DejaVuSans-68"/>
      <use x="77.001953" xlink:href="#DejaVuSans-97"/>
      <use x="138.28125" xlink:href="#DejaVuSans-116"/>
      <use x="177.490234" xlink:href="#DejaVuSans-117"/>
      <use x="240.869141" xlink:href="#DejaVuSans-109"/>
     </g>
    </g>
   </g>
   <g id="matplotlib.axis_2">
    <g id="ytick_1">
     <g id="line2d_21">
      <path clip-path="url(#p92c86553d2)" d="M 64.8 172.8 
L 655.2 172.8 
" style="fill:none;stroke:#808080;stroke-dasharray:6.4,1.6,1,1.6;stroke-dashoffset:0;stroke-opacity:0.3;"/>
     </g>
     <g id="line2d_22">
      <defs>
       <path d="M 0 0 
L -3.5 0 
" id="mc8b7461c80" style="stroke:#000000;stroke-width:0.8;"/>
      </defs>
      <g>
       <use style="stroke:#000000;stroke-width:0.8;" x="64.8" xlink:href="#mc8b7461c80" y="172.8"/>
      </g>
     </g>
     <g id="text_12">
      <!-- 0.0 -->
      <g transform="translate(41.896875 176.599219)scale(0.1 -0.1)">
       <defs>
        <path d="M 10.6875 12.40625 
L 21 12.40625 
L 21 0 
L 10.6875 0 
z
" id="DejaVuSans-46"/>
       </defs>
       <use xlink:href="#DejaVuSans-48"/>
       <use x="63.623047" xlink:href="#DejaVuSans-46"/>
       <use x="95.410156" xlink:href="#DejaVuSans-48"/>
      </g>
     </g>
    </g>
    <g id="ytick_2">
     <g id="line2d_23">
      <path clip-path="url(#p92c86553d2)" d="M 64.8 148.32 
L 655.2 148.32 
" style="fill:none;stroke:#808080;stroke-dasharray:6.4,1.6,1,1.6;stroke-dashoffset:0;stroke-opacity:0.3;"/>
     </g>
     <g id="line2d_24">
      <g>
       <use style="stroke:#000000;stroke-width:0.8;" x="64.8" xlink:href="#mc8b7461c80" y="148.32"/>
      </g>
     </g>
     <g id="text_13">
      <!-- 0.5 -->
      <g transform="translate(41.896875 152.119219)scale(0.1 -0.1)">
       <use xlink:href="#DejaVuSans-48"/>
       <use x="63.623047" xlink:href="#DejaVuSans-46"/>
       <use x="95.410156" xlink:href="#DejaVuSans-53"/>
      </g>
     </g>
    </g>
    <g id="ytick_3">
     <g id="line2d_25">
      <path clip-path="url(#p92c86553d2)" d="M 64.8 123.84 
L 655.2 123.84 
" style="fill:none;stroke:#808080;stroke-dasharray:6.4,1.6,1,1.6;stroke-dashoffset:0;stroke-opacity:0.3;"/>
     </g>
     <g id="line2d_26">
      <g>
       <use style="stroke:#000000;stroke-width:0.8;" x="64.8" xlink:href="#mc8b7461c80" y="123.84"/>
      </g>
     </g>
     <g id="text_14">
      <!-- 1.0 -->
      <g transform="translate(41.896875 127.639219)scale(0.1 -0.1)">
       <use xlink:href="#DejaVuSans-49"/>
       <use x="63.623047" xlink:href="#DejaVuSans-46"/>
       <use x="95.410156" xlink:href="#DejaVuSans-48"/>
      </g>
     </g>
    </g>
    <g id="ytick_4">
     <g id="line2d_27">
      <path clip-path="url(#p92c86553d2)" d="M 64.8 99.36 
L 655.2 99.36 
" style="fill:none;stroke:#808080;stroke-dasharray:6.4,1.6,1,1.6;stroke-dashoffset:0;stroke-opacity:0.3;"/>
     </g>
     <g id="line2d_28">
      <g>
       <use style="stroke:#000000;stroke-width:0.8;" x="64.8" xlink:href="#mc8b7461c80" y="99.36"/>
      </g>
     </g>
     <g id="text_15">
      <!-- 1.5 -->
      <g transform="translate(41.896875 103.159219)scale(0.1 -0.1)">
       <use xlink:href="#DejaVuSans-49"/>
       <use x="63.623047" xlink:href="#DejaVuSans-46"/>
       <use x="95.410156" xlink:href="#DejaVuSans-53"/>
      </g>
     </g>
    </g>
    <g id="ytick_5">
     <g id="line2d_29">
      <path clip-path="url(#p92c86553d2)" d="M 64.8 74.88 
L 655.2 74.88 
" style="fill:none;stroke:#808080;stroke-dasharray:6.4,1.6,1,1.6;stroke-dashoffset:0;stroke-opacity:0.3;"/>
     </g>
     <g id="line2d_30">
      <g>
       <use style="stroke:#000000;stroke-width:0.8;" x="64.8" xlink:href="#mc8b7461c80" y="74.88"/>
      </g>
     </g>
     <g id="text_16">
      <!-- 2.0 -->
      <g transform="translate(41.896875 78.679219)scale(0.1 -0.1)">
       <use xlink:href="#DejaVuSans-50"/>
       <use x="63.623047" xlink:href="#DejaVuSans-46"/>
       <use x="95.410156" xlink:href="#DejaVuSans-48"/>
      </g>
     </g>
    </g>
    <g id="ytick_6">
     <g id="line2d_31">
      <path clip-path="url(#p92c86553d2)" d="M 64.8 50.4 
L 655.2 50.4 
" style="fill:none;stroke:#808080;stroke-dasharray:6.4,1.6,1,1.6;stroke-dashoffset:0;stroke-opacity:0.3;"/>
     </g>
     <g id="line2d_32">
      <g>
       <use style="stroke:#000000;stroke-width:0.8;" x="64.8" xlink:href="#mc8b7461c80" y="50.4"/>
      </g>
     </g>
     <g id="text_17">
      <!-- 2.5 -->
      <g transform="translate(41.896875 54.199219)scale(0.1 -0.1)">
       <use xlink:href="#DejaVuSans-50"/>
       <use x="63.623047" xlink:href="#DejaVuSans-46"/>
       <use x="95.410156" xlink:href="#DejaVuSans-53"/>
      </g>
     </g>
    </g>
    <g id="ytick_7">
     <g id="line2d_33">
      <path clip-path="url(#p92c86553d2)" d="M 64.8 25.92 
L 655.2 25.92 
" style="fill:none;stroke:#808080;stroke-dasharray:6.4,1.6,1,1.6;stroke-dashoffset:0;stroke-opacity:0.3;"/>
     </g>
     <g id="line2d_34">
      <g>
       <use style="stroke:#000000;stroke-width:0.8;" x="64.8" xlink:href="#mc8b7461c80" y="25.92"/>
      </g>
     </g>
     <g id="text_18">
      <!-- 3.0 -->
      <g transform="translate(41.896875 29.719219)scale(0.1 -0.1)">
       <use xlink:href="#DejaVuSans-51"/>
       <use x="63.623047" xlink:href="#DejaVuSans-46"/>
       <use x="95.410156" xlink:href="#DejaVuSans-48"/>
      </g>
     </g>
    </g>
    <g id="text_19">
     <!-- Reproductiegetal -->
     <g transform="translate(35.817187 142.044375)rotate(-90)scale(0.1 -0.1)">
      <defs>
       <path d="M 44.390625 34.1875 
Q 47.5625 33.109375 50.5625 29.59375 
Q 53.5625 26.078125 56.59375 19.921875 
L 66.609375 0 
L 56 0 
L 46.6875 18.703125 
Q 43.0625 26.03125 39.671875 28.421875 
Q 36.28125 30.8125 30.421875 30.8125 
L 19.671875 30.8125 
L 19.671875 0 
L 9.8125 0 
L 9.8125 72.90625 
L 32.078125 72.90625 
Q 44.578125 72.90625 50.734375 67.671875 
Q 56.890625 62.453125 56.890625 51.90625 
Q 56.890625 45.015625 53.6875 40.46875 
Q 50.484375 35.9375 44.390625 34.1875 
z
M 19.671875 64.796875 
L 19.671875 38.921875 
L 32.078125 38.921875 
Q 39.203125 38.921875 42.84375 42.21875 
Q 46.484375 45.515625 46.484375 51.90625 
Q 46.484375 58.296875 42.84375 61.546875 
Q 39.203125 64.796875 32.078125 64.796875 
z
" id="DejaVuSans-82"/>
       <path d="M 56.203125 29.59375 
L 56.203125 25.203125 
L 14.890625 25.203125 
Q 15.484375 15.921875 20.484375 11.0625 
Q 25.484375 6.203125 34.421875 6.203125 
Q 39.59375 6.203125 44.453125 7.46875 
Q 49.3125 8.734375 54.109375 11.28125 
L 54.109375 2.78125 
Q 49.265625 0.734375 44.1875 -0.34375 
Q 39.109375 -1.421875 33.890625 -1.421875 
Q 20.796875 -1.421875 13.15625 6.1875 
Q 5.515625 13.8125 5.515625 26.8125 
Q 5.515625 40.234375 12.765625 48.109375 
Q 20.015625 56 32.328125 56 
Q 43.359375 56 49.78125 48.890625 
Q 56.203125 41.796875 56.203125 29.59375 
z
M 47.21875 32.234375 
Q 47.125 39.59375 43.09375 43.984375 
Q 39.0625 48.390625 32.421875 48.390625 
Q 24.90625 48.390625 20.390625 44.140625 
Q 15.875 39.890625 15.1875 32.171875 
z
" id="DejaVuSans-101"/>
       <path d="M 18.109375 8.203125 
L 18.109375 -20.796875 
L 9.078125 -20.796875 
L 9.078125 54.6875 
L 18.109375 54.6875 
L 18.109375 46.390625 
Q 20.953125 51.265625 25.265625 53.625 
Q 29.59375 56 35.59375 56 
Q 45.5625 56 51.78125 48.09375 
Q 58.015625 40.1875 58.015625 27.296875 
Q 58.015625 14.40625 51.78125 6.484375 
Q 45.5625 -1.421875 35.59375 -1.421875 
Q 29.59375 -1.421875 25.265625 0.953125 
Q 20.953125 3.328125 18.109375 8.203125 
z
M 48.6875 27.296875 
Q 48.6875 37.203125 44.609375 42.84375 
Q 40.53125 48.484375 33.40625 48.484375 
Q 26.265625 48.484375 22.1875 42.84375 
Q 18.109375 37.203125 18.109375 27.296875 
Q 18.109375 17.390625 22.1875 11.75 
Q 26.265625 6.109375 33.40625 6.109375 
Q 40.53125 6.109375 44.609375 11.75 
Q 48.6875 17.390625 48.6875 27.296875 
z
" id="DejaVuSans-112"/>
       <path d="M 41.109375 46.296875 
Q 39.59375 47.171875 37.8125 47.578125 
Q 36.03125 48 33.890625 48 
Q 26.265625 48 22.1875 43.046875 
Q 18.109375 38.09375 18.109375 28.8125 
L 18.109375 0 
L 9.078125 0 
L 9.078125 54.6875 
L 18.109375 54.6875 
L 18.109375 46.1875 
Q 20.953125 51.171875 25.484375 53.578125 
Q 30.03125 56 36.53125 56 
Q 37.453125 56 38.578125 55.875 
Q 39.703125 55.765625 41.0625 55.515625 
z
" id="DejaVuSans-114"/>
       <path d="M 30.609375 48.390625 
Q 23.390625 48.390625 19.1875 42.75 
Q 14.984375 37.109375 14.984375 27.296875 
Q 14.984375 17.484375 19.15625 11.84375 
Q 23.34375 6.203125 30.609375 6.203125 
Q 37.796875 6.203125 41.984375 11.859375 
Q 46.1875 17.53125 46.1875 27.296875 
Q 46.1875 37.015625 41.984375 42.703125 
Q 37.796875 48.390625 30.609375 48.390625 
z
M 30.609375 56 
Q 42.328125 56 49.015625 48.375 
Q 55.71875 40.765625 55.71875 27.296875 
Q 55.71875 13.875 49.015625 6.21875 
Q 42.328125 -1.421875 30.609375 -1.421875 
Q 18.84375 -1.421875 12.171875 6.21875 
Q 5.515625 13.875 5.515625 27.296875 
Q 5.515625 40.765625 12.171875 48.375 
Q 18.84375 56 30.609375 56 
z
" id="DejaVuSans-111"/>
       <path d="M 45.40625 46.390625 
L 45.40625 75.984375 
L 54.390625 75.984375 
L 54.390625 0 
L 45.40625 0 
L 45.40625 8.203125 
Q 42.578125 3.328125 38.25 0.953125 
Q 33.9375 -1.421875 27.875 -1.421875 
Q 17.96875 -1.421875 11.734375 6.484375 
Q 5.515625 14.40625 5.515625 27.296875 
Q 5.515625 40.1875 11.734375 48.09375 
Q 17.96875 56 27.875 56 
Q 33.9375 56 38.25 53.625 
Q 42.578125 51.265625 45.40625 46.390625 
z
M 14.796875 27.296875 
Q 14.796875 17.390625 18.875 11.75 
Q 22.953125 6.109375 30.078125 6.109375 
Q 37.203125 6.109375 41.296875 11.75 
Q 45.40625 17.390625 45.40625 27.296875 
Q 45.40625 37.203125 41.296875 42.84375 
Q 37.203125 48.484375 30.078125 48.484375 
Q 22.953125 48.484375 18.875 42.84375 
Q 14.796875 37.203125 14.796875 27.296875 
z
" id="DejaVuSans-100"/>
       <path d="M 48.78125 52.59375 
L 48.78125 44.1875 
Q 44.96875 46.296875 41.140625 47.34375 
Q 37.3125 48.390625 33.40625 48.390625 
Q 24.65625 48.390625 19.8125 42.84375 
Q 14.984375 37.3125 14.984375 27.296875 
Q 14.984375 17.28125 19.8125 11.734375 
Q 24.65625 6.203125 33.40625 6.203125 
Q 37.3125 6.203125 41.140625 7.25 
Q 44.96875 8.296875 48.78125 10.40625 
L 48.78125 2.09375 
Q 45.015625 0.34375 40.984375 -0.53125 
Q 36.96875 -1.421875 32.421875 -1.421875 
Q 20.0625 -1.421875 12.78125 6.34375 
Q 5.515625 14.109375 5.515625 27.296875 
Q 5.515625 40.671875 12.859375 48.328125 
Q 20.21875 56 33.015625 56 
Q 37.15625 56 41.109375 55.140625 
Q 45.0625 54.296875 48.78125 52.59375 
z
" id="DejaVuSans-99"/>
       <path d="M 9.421875 54.6875 
L 18.40625 54.6875 
L 18.40625 0 
L 9.421875 0 
z
M 9.421875 75.984375 
L 18.40625 75.984375 
L 18.40625 64.59375 
L 9.421875 64.59375 
z
" id="DejaVuSans-105"/>
       <path d="M 45.40625 27.984375 
Q 45.40625 37.75 41.375 43.109375 
Q 37.359375 48.484375 30.078125 48.484375 
Q 22.859375 48.484375 18.828125 43.109375 
Q 14.796875 37.75 14.796875 27.984375 
Q 14.796875 18.265625 18.828125 12.890625 
Q 22.859375 7.515625 30.078125 7.515625 
Q 37.359375 7.515625 41.375 12.890625 
Q 45.40625 18.265625 45.40625 27.984375 
z
M 54.390625 6.78125 
Q 54.390625 -7.171875 48.1875 -13.984375 
Q 42 -20.796875 29.203125 -20.796875 
Q 24.46875 -20.796875 20.265625 -20.09375 
Q 16.0625 -19.390625 12.109375 -17.921875 
L 12.109375 -9.1875 
Q 16.0625 -11.328125 19.921875 -12.34375 
Q 23.78125 -13.375 27.78125 -13.375 
Q 36.625 -13.375 41.015625 -8.765625 
Q 45.40625 -4.15625 45.40625 5.171875 
L 45.40625 9.625 
Q 42.625 4.78125 38.28125 2.390625 
Q 33.9375 0 27.875 0 
Q 17.828125 0 11.671875 7.65625 
Q 5.515625 15.328125 5.515625 27.984375 
Q 5.515625 40.671875 11.671875 48.328125 
Q 17.828125 56 27.875 56 
Q 33.9375 56 38.28125 53.609375 
Q 42.625 51.21875 45.40625 46.390625 
L 45.40625 54.6875 
L 54.390625 54.6875 
z
" id="DejaVuSans-103"/>
       <path d="M 9.421875 75.984375 
L 18.40625 75.984375 
L 18.40625 0 
L 9.421875 0 
z
" id="DejaVuSans-108"/>
      </defs>
      <use xlink:href="#DejaVuSans-82"/>
      <use x="64.982422" xlink:href="#DejaVuSans-101"/>
      <use x="126.505859" xlink:href="#DejaVuSans-112"/>
      <use x="189.982422" xlink:href="#DejaVuSans-114"/>
      <use x="228.845703" xlink:href="#DejaVuSans-111"/>
      <use x="290.027344" xlink:href="#DejaVuSans-100"/>
      <use x="353.503906" xlink:href="#DejaVuSans-117"/>
      <use x="416.882812" xlink:href="#DejaVuSans-99"/>
      <use x="471.863281" xlink:href="#DejaVuSans-116"/>
      <use x="511.072266" xlink:href="#DejaVuSans-105"/>
      <use x="538.855469" xlink:href="#DejaVuSans-101"/>
      <use x="600.378906" xlink:href="#DejaVuSans-103"/>
      <use x="663.855469" xlink:href="#DejaVuSans-101"/>
      <use x="725.378906" xlink:href="#DejaVuSans-116"/>
      <use x="764.587891" xlink:href="#DejaVuSans-97"/>
      <use x="825.867188" xlink:href="#DejaVuSans-108"/>
     </g>
    </g>
   </g>
   <g id="line2d_35">
    <path clip-path="url(#p92c86553d2)" d="M 99.275912 78.3072 
L 101.430657 87.6096 
L 103.585401 94.9536 
L 105.740146 87.6096 
L 107.894891 73.4112 
L 110.049635 66.5568 
L 112.20438 66.0672 
L 114.359124 65.088 
L 116.513869 67.536 
L 118.668613 71.9424 
L 120.823358 71.9424 
L 122.978102 69.984 
L 125.132847 75.3696 
L 127.287591 83.2032 
L 129.442336 85.1616 
L 131.59708 83.6928 
L 135.906569 81.7344 
L 138.061314 80.2656 
L 140.216058 79.776 
L 142.370803 84.672 
L 144.525547 91.0368 
L 148.835036 102.7872 
L 150.989781 107.6832 
L 153.144526 111.6 
L 155.29927 116.0064 
L 157.454015 121.8816 
L 159.608759 125.7984 
L 166.072993 131.6736 
L 168.227737 133.1424 
L 170.382482 134.1216 
L 172.537226 136.08 
L 174.691971 137.5488 
L 176.846715 138.0384 
L 179.00146 138.0384 
L 181.156204 137.5488 
L 185.465693 135.5904 
L 187.620438 135.5904 
L 189.775182 136.08 
L 191.929927 138.0384 
L 194.084672 139.0176 
L 196.239416 139.0176 
L 200.548905 136.08 
L 207.013139 133.1424 
L 209.167883 134.6112 
L 211.322628 137.0592 
L 213.477372 138.528 
L 215.632117 139.0176 
L 217.786861 138.528 
L 224.251095 135.5904 
L 226.405839 135.1008 
L 228.560584 135.1008 
L 230.715328 136.08 
L 232.870073 137.5488 
L 235.024818 138.528 
L 239.334307 136.5696 
L 241.489051 135.1008 
L 245.79854 135.1008 
L 250.108029 137.0592 
L 254.417518 138.0384 
L 256.572263 139.0176 
L 258.727007 139.0176 
L 260.881752 137.5488 
L 265.191241 133.632 
L 267.345985 132.1632 
L 269.50073 132.1632 
L 271.655474 132.6528 
L 273.810219 132.6528 
L 275.964964 133.1424 
L 278.119708 134.6112 
L 280.274453 135.1008 
L 282.429197 134.6112 
L 284.583942 133.632 
L 286.738686 131.6736 
L 288.893431 128.2464 
L 291.048175 123.84 
L 293.20292 119.9232 
L 295.357664 117.4752 
L 297.512409 119.9232 
L 299.667153 125.7984 
L 301.821898 129.7152 
L 306.131387 129.7152 
L 308.286131 133.632 
L 310.440876 137.0592 
L 312.59562 139.5072 
L 314.750365 145.3824 
L 316.905109 149.2992 
L 319.059854 149.2992 
L 321.214599 147.3408 
L 323.369343 144.4032 
L 325.524088 139.9968 
L 327.678832 132.6528 
L 329.833577 125.7984 
L 331.988321 123.3504 
L 334.143066 121.392 
L 336.29781 116.9856 
L 338.452555 111.1104 
L 340.607299 109.152 
L 342.762044 115.0272 
L 344.916788 125.7984 
L 347.071533 133.632 
L 349.226277 136.08 
L 351.381022 137.0592 
L 353.535766 137.0592 
L 355.690511 135.5904 
L 357.845255 132.6528 
L 362.154745 125.7984 
L 364.309489 123.3504 
L 366.464234 122.3712 
L 368.618978 123.3504 
L 370.773723 125.7984 
L 372.928467 127.7568 
L 375.083212 128.2464 
L 377.237956 127.7568 
L 379.392701 126.7776 
L 381.547445 126.288 
L 383.70219 126.288 
L 385.856934 125.3088 
L 388.011679 122.8608 
L 390.166423 117.9648 
L 394.475912 105.2352 
L 396.630657 101.808 
L 398.785401 102.7872 
L 400.940146 104.7456 
L 403.094891 105.7248 
L 405.249635 105.2352 
L 407.40438 103.7664 
L 409.559124 102.7872 
L 411.713869 103.7664 
L 413.868613 107.6832 
L 416.023358 112.5792 
L 418.178102 116.0064 
L 420.332847 115.5168 
L 422.487591 113.0688 
L 424.642336 110.1312 
L 426.79708 108.6624 
L 428.951825 108.6624 
L 431.106569 109.152 
L 433.261314 109.152 
L 437.570803 104.256 
L 439.725547 103.7664 
L 441.880292 105.2352 
L 444.035036 109.152 
L 446.189781 112.0896 
L 448.344526 113.0688 
L 452.654015 112.0896 
L 454.808759 113.0688 
L 456.963504 115.5168 
L 459.118248 119.4336 
L 461.272993 122.8608 
L 463.427737 125.3088 
L 465.582482 126.288 
L 467.737226 126.7776 
L 469.891971 125.7984 
L 472.046715 125.3088 
L 474.20146 125.7984 
L 476.356204 126.7776 
L 480.665693 127.7568 
L 482.820438 127.2672 
L 487.129927 125.3088 
L 491.439416 124.3296 
L 493.594161 122.8608 
L 495.748905 120.9024 
L 497.90365 118.4544 
L 500.058394 116.496 
L 502.213139 115.0272 
L 504.367883 115.0272 
L 506.522628 115.5168 
L 508.677372 114.5376 
L 510.832117 112.5792 
L 515.141606 104.7456 
L 517.29635 102.7872 
L 519.451095 103.7664 
L 521.605839 106.704 
L 523.760584 107.6832 
L 525.915328 107.1936 
L 530.224818 107.1936 
L 532.379562 107.6832 
L 534.534307 109.6416 
L 536.689051 112.0896 
L 538.843796 112.5792 
L 543.153285 110.6208 
L 545.308029 110.1312 
L 547.462774 110.6208 
L 549.617518 112.5792 
L 551.772263 115.0272 
L 553.927007 116.496 
L 556.081752 116.496 
L 558.236496 115.5168 
L 560.391241 114.048 
L 562.545985 114.048 
L 564.70073 115.0272 
L 566.855474 115.5168 
L 569.010219 114.5376 
L 571.164964 112.5792 
L 573.319708 110.1312 
L 575.474453 108.1728 
L 577.629197 107.1936 
L 579.783942 108.1728 
L 581.938686 109.6416 
L 586.248175 111.6 
L 588.40292 112.0896 
L 590.557664 113.0688 
L 590.557664 113.0688 
" style="fill:none;stroke:#000000;stroke-linecap:square;stroke-width:1.5;"/>
   </g>
   <g id="line2d_36">
    <path clip-path="url(#p92c86553d2)" d="M 102.259706 -1 
L 103.585401 34.2432 
L 105.740146 34.2432 
L 107.586651 -1 
M 111.920732 -1 
L 112.20438 9.7632 
L 114.359124 15.1488 
L 116.513869 15.1488 
L 118.668613 32.7744 
L 120.823358 41.0976 
L 122.978102 38.16 
L 125.132847 42.0768 
L 127.287591 62.64 
L 129.442336 68.5152 
L 131.59708 64.5984 
L 133.751825 65.088 
L 135.906569 66.5568 
L 140.216058 67.536 
L 142.370803 71.9424 
L 144.525547 82.7136 
L 146.680292 88.5888 
L 148.835036 95.4432 
L 150.989781 101.3184 
L 153.144526 106.2144 
L 155.29927 110.6208 
L 157.454015 116.496 
L 159.608759 121.8816 
L 161.763504 123.3504 
L 168.227737 129.2256 
L 170.382482 130.2048 
L 172.537226 131.6736 
L 174.691971 134.1216 
L 176.846715 133.632 
L 179.00146 133.632 
L 183.310949 131.6736 
L 185.465693 130.2048 
L 187.620438 129.7152 
L 191.929927 131.6736 
L 194.084672 134.1216 
L 196.239416 133.1424 
L 198.394161 131.184 
L 200.548905 128.736 
L 202.70365 127.2672 
L 207.013139 125.3088 
L 209.167883 125.3088 
L 211.322628 129.2256 
L 213.477372 131.6736 
L 215.632117 130.2048 
L 217.786861 129.7152 
L 219.941606 128.2464 
L 222.09635 125.7984 
L 226.405839 123.84 
L 230.715328 123.84 
L 232.870073 124.8192 
L 235.024818 128.2464 
L 237.179562 124.8192 
L 239.334307 122.3712 
L 241.489051 121.392 
L 243.643796 117.9648 
L 245.79854 121.392 
L 247.953285 118.4544 
L 250.108029 122.3712 
L 252.262774 122.3712 
L 254.417518 119.9232 
L 256.572263 121.392 
L 258.727007 121.8816 
L 260.881752 116.496 
L 267.345985 107.6832 
L 269.50073 105.2352 
L 273.810219 110.1312 
L 275.964964 102.2976 
L 278.119708 106.2144 
L 280.274453 111.6 
L 282.429197 104.256 
L 284.583942 102.2976 
L 286.738686 102.2976 
L 288.893431 96.4224 
L 291.048175 81.7344 
L 293.20292 74.88 
L 295.357664 80.2656 
L 297.512409 65.088 
L 299.667153 94.464 
L 301.821898 101.808 
L 303.976642 101.808 
L 306.131387 84.672 
L 308.286131 87.12 
L 310.440876 113.5584 
L 312.59562 104.256 
L 314.750365 104.256 
L 316.905109 127.7568 
L 319.059854 111.6 
L 321.214599 114.048 
L 323.369343 75.3696 
L 325.524088 91.5264 
L 327.678832 75.3696 
L 329.833577 26.8992 
L 331.988321 27.3888 
L 334.143066 59.7024 
L 336.29781 28.368 
L 338.452555 29.3472 
L 339.858438 -1 
M 343.172058 -1 
L 344.916788 63.6192 
L 347.071533 80.2656 
L 349.226277 81.2448 
L 351.381022 128.2464 
L 353.535766 128.736 
L 355.690511 126.7776 
L 357.845255 122.3712 
L 360 118.4544 
L 362.154745 113.5584 
L 364.309489 110.6208 
L 368.618978 110.6208 
L 370.773723 115.5168 
L 372.928467 116.496 
L 375.083212 118.4544 
L 377.237956 116.0064 
L 379.392701 114.048 
L 381.547445 115.0272 
L 383.70219 113.5584 
L 385.856934 114.048 
L 388.011679 110.1312 
L 390.166423 105.2352 
L 392.321168 96.912 
L 394.475912 89.0784 
L 396.630657 85.6512 
L 398.785401 87.6096 
L 400.940146 92.9952 
L 405.249635 93.9744 
L 407.40438 92.016 
L 409.559124 91.5264 
L 411.713869 93.4848 
L 413.868613 97.4016 
L 416.023358 104.7456 
L 418.178102 107.6832 
L 420.332847 108.1728 
L 422.487591 104.256 
L 424.642336 101.808 
L 426.79708 99.8496 
L 428.951825 100.8288 
L 431.106569 102.2976 
L 433.261314 101.808 
L 435.416058 100.3392 
L 437.570803 96.4224 
L 439.725547 96.4224 
L 441.880292 99.36 
L 444.035036 102.7872 
L 446.189781 107.1936 
L 448.344526 107.6832 
L 450.49927 107.6832 
L 452.654015 106.704 
L 454.808759 107.6832 
L 456.963504 110.6208 
L 459.118248 115.0272 
L 461.272993 118.944 
L 463.427737 121.392 
L 465.582482 122.8608 
L 467.737226 122.8608 
L 469.891971 121.8816 
L 472.046715 121.392 
L 474.20146 121.392 
L 476.356204 122.8608 
L 480.665693 123.84 
L 482.820438 123.3504 
L 489.284672 120.4128 
L 491.439416 119.9232 
L 493.594161 118.4544 
L 495.748905 116.496 
L 497.90365 113.5584 
L 500.058394 111.6 
L 502.213139 110.6208 
L 504.367883 110.1312 
L 506.522628 111.1104 
L 508.677372 110.6208 
L 510.832117 108.1728 
L 515.141606 100.3392 
L 517.29635 97.8912 
L 519.451095 99.36 
L 521.605839 102.7872 
L 523.760584 104.256 
L 525.915328 103.7664 
L 530.224818 103.7664 
L 532.379562 104.7456 
L 534.534307 106.704 
L 536.689051 109.152 
L 538.843796 109.6416 
L 540.99854 109.152 
L 543.153285 108.1728 
L 545.308029 107.6832 
L 547.462774 108.1728 
L 549.617518 110.1312 
L 551.772263 113.0688 
L 553.927007 114.048 
L 556.081752 114.048 
L 560.391241 112.0896 
L 562.545985 112.0896 
L 566.855474 114.048 
L 569.010219 113.0688 
L 573.319708 108.1728 
L 575.474453 106.2144 
L 577.629197 105.2352 
L 579.783942 106.2144 
L 581.938686 107.6832 
L 597.021898 114.5376 
L 601.331387 115.5168 
L 607.79562 118.4544 
L 609.950365 118.944 
L 612.105109 117.9648 
L 614.259854 116.496 
L 616.414599 114.048 
L 618.569343 112.0896 
L 618.569343 112.0896 
" style="fill:none;stroke:#808080;stroke-dasharray:5.55,2.4;stroke-dashoffset:0;stroke-opacity:0.3;stroke-width:1.5;"/>
   </g>
   <g id="line2d_37">
    <path clip-path="url(#p92c86553d2)" d="M 99.275912 148.32 
L 101.430657 172.8 
L 103.585401 148.32 
L 105.740146 132.1632 
L 107.894891 139.9968 
L 110.049635 172.8 
L 112.20438 115.5168 
L 114.359124 108.6624 
L 116.513869 111.6 
L 118.668613 107.6832 
L 120.823358 100.3392 
L 122.978102 99.36 
L 125.132847 105.7248 
L 127.287591 102.2976 
L 129.442336 101.808 
L 131.59708 102.2976 
L 135.906569 96.4224 
L 138.061314 92.9952 
L 140.216058 92.016 
L 142.370803 96.4224 
L 144.525547 99.36 
L 146.680292 104.7456 
L 148.835036 109.152 
L 150.989781 114.048 
L 153.144526 116.9856 
L 155.29927 121.392 
L 157.454015 126.7776 
L 159.608759 129.7152 
L 161.763504 132.1632 
L 163.918248 133.632 
L 166.072993 136.08 
L 168.227737 137.0592 
L 170.382482 138.528 
L 172.537226 140.976 
L 174.691971 140.976 
L 176.846715 142.4448 
L 179.00146 141.9552 
L 181.156204 141.9552 
L 183.310949 140.976 
L 187.620438 140.976 
L 189.775182 141.4656 
L 191.929927 143.9136 
L 194.084672 143.9136 
L 196.239416 144.4032 
L 198.394161 143.9136 
L 200.548905 142.9344 
L 202.70365 142.4448 
L 204.858394 140.976 
L 207.013139 140.976 
L 209.167883 142.9344 
L 211.322628 144.4032 
L 213.477372 145.3824 
L 215.632117 146.8512 
L 217.786861 146.8512 
L 219.941606 146.3616 
L 222.09635 146.3616 
L 224.251095 145.3824 
L 228.560584 145.3824 
L 230.715328 146.8512 
L 232.870073 149.2992 
L 235.024818 147.8304 
L 237.179562 149.2992 
L 239.334307 149.7888 
L 241.489051 148.32 
L 243.643796 150.2784 
L 245.79854 147.8304 
L 247.953285 151.2576 
L 250.108029 150.768 
L 252.262774 151.7472 
L 254.417518 153.7056 
L 256.572263 155.1744 
L 258.727007 153.7056 
L 260.881752 155.664 
L 263.036496 155.1744 
L 265.191241 153.7056 
L 267.345985 153.216 
L 271.655474 155.1744 
L 273.810219 152.2368 
L 275.964964 158.112 
L 278.119708 158.112 
L 280.274453 154.1952 
L 282.429197 158.112 
L 284.583942 158.112 
L 286.738686 156.6432 
L 293.20292 156.6432 
L 295.357664 148.32 
L 297.512409 160.56 
L 299.667153 153.216 
L 301.821898 155.1744 
L 303.976642 155.1744 
L 306.131387 163.008 
L 308.286131 172.8 
L 310.440876 156.6432 
L 312.59562 172.8 
L 314.750365 172.8 
L 316.905109 168.3936 
L 319.059854 172.8 
L 349.226277 172.8 
L 351.381022 144.8928 
L 353.535766 144.8928 
L 355.690511 143.424 
L 357.845255 142.4448 
L 360 139.5072 
L 362.154745 137.0592 
L 366.464234 133.1424 
L 368.618978 135.5904 
L 370.773723 135.5904 
L 372.928467 138.528 
L 375.083212 138.0384 
L 377.237956 138.528 
L 379.392701 138.528 
L 381.547445 137.0592 
L 383.70219 138.0384 
L 385.856934 136.08 
L 388.011679 135.1008 
L 394.475912 120.4128 
L 396.630657 116.9856 
L 398.785401 116.9856 
L 400.940146 115.5168 
L 403.094891 117.4752 
L 405.249635 116.0064 
L 407.40438 115.0272 
L 409.559124 113.5584 
L 411.713869 114.048 
L 413.868613 117.4752 
L 418.178102 123.3504 
L 422.487591 121.392 
L 424.642336 117.9648 
L 426.79708 116.496 
L 428.951825 116.496 
L 431.106569 116.0064 
L 433.261314 116.0064 
L 435.416058 113.0688 
L 437.570803 111.6 
L 439.725547 110.6208 
L 441.880292 111.1104 
L 444.035036 115.0272 
L 446.189781 116.9856 
L 448.344526 117.9648 
L 450.49927 117.4752 
L 452.654015 117.4752 
L 454.808759 117.9648 
L 456.963504 119.9232 
L 461.272993 126.7776 
L 463.427737 129.2256 
L 465.582482 130.2048 
L 467.737226 130.2048 
L 469.891971 129.7152 
L 474.20146 129.7152 
L 476.356204 130.2048 
L 478.510949 131.184 
L 480.665693 131.6736 
L 484.975182 130.6944 
L 487.129927 129.7152 
L 489.284672 129.2256 
L 493.594161 127.2672 
L 500.058394 121.392 
L 502.213139 119.9232 
L 504.367883 119.4336 
L 506.522628 119.4336 
L 508.677372 118.944 
L 510.832117 116.496 
L 512.986861 113.0688 
L 515.141606 109.152 
L 517.29635 107.1936 
L 519.451095 108.1728 
L 521.605839 110.1312 
L 523.760584 111.1104 
L 525.915328 111.1104 
L 530.224818 110.1312 
L 532.379562 111.1104 
L 534.534307 113.0688 
L 536.689051 114.5376 
L 538.843796 115.0272 
L 540.99854 114.048 
L 543.153285 113.5584 
L 545.308029 112.5792 
L 547.462774 113.0688 
L 549.617518 115.0272 
L 551.772263 117.4752 
L 553.927007 118.4544 
L 556.081752 118.4544 
L 560.391241 116.496 
L 562.545985 116.496 
L 566.855474 117.4752 
L 569.010219 116.496 
L 571.164964 114.5376 
L 573.319708 112.0896 
L 575.474453 110.1312 
L 577.629197 109.152 
L 579.783942 109.6416 
L 581.938686 111.1104 
L 586.248175 113.0688 
L 588.40292 113.5584 
L 590.557664 114.5376 
L 592.712409 115.0272 
L 594.867153 116.496 
L 597.021898 117.4752 
L 601.331387 118.4544 
L 609.950365 124.3296 
L 614.259854 126.288 
L 616.414599 127.7568 
L 618.569343 129.7152 
L 618.569343 129.7152 
" style="fill:none;stroke:#808080;stroke-dasharray:5.55,2.4;stroke-dashoffset:0;stroke-opacity:0.3;stroke-width:1.5;"/>
   </g>
   <g id="line2d_38">
    <path clip-path="url(#p92c86553d2)" d="M 640.116788 172.8 
L 640.116788 25.92 
" style="fill:none;stroke:#008080;stroke-linecap:square;stroke-width:0.15;"/>
   </g>
   <g id="patch_3">
    <path d="M 64.8 172.8 
L 64.8 25.92 
" style="fill:none;stroke:#000000;stroke-linecap:square;stroke-linejoin:miter;stroke-width:0.8;"/>
   </g>
   <g id="patch_4">
    <path d="M 655.2 172.8 
L 655.2 25.92 
" style="fill:none;stroke:#000000;stroke-linecap:square;stroke-linejoin:miter;stroke-width:0.8;"/>
   </g>
   <g id="patch_5">
    <path d="M 64.8 172.8 
L 655.2 172.8 
" style="fill:none;stroke:#000000;stroke-linecap:square;stroke-linejoin:miter;stroke-width:0.8;"/>
   </g>
   <g id="patch_6">
    <path d="M 64.8 25.92 
L 655.2 25.92 
" style="fill:none;stroke:#000000;stroke-linecap:square;stroke-linejoin:miter;stroke-width:0.8;"/>
   </g>
   <g id="patch_7">
    <path d="M 594.939476 95.802168 
Q 592.044421 103.164822 591.001888 109.984127 
" style="fill:none;stroke:#000000;stroke-linecap:round;"/>
    <path d="M 593.067108 107.062678 
L 591.001888 109.984127 
L 589.90386 106.579082 
" style="fill:none;stroke:#000000;stroke-linecap:round;"/>
   </g>
   <g id="text_20">
    <g id="patch_8">
     <path d="M 590.557664 93.45255 
L 608.370164 93.45255 
Q 611.570164 93.45255 611.570164 90.25255 
L 611.570164 82.51005 
Q 611.570164 79.31005 608.370164 79.31005 
L 590.557664 79.31005 
Q 587.357664 79.31005 587.357664 82.51005 
L 587.357664 90.25255 
Q 587.357664 93.45255 590.557664 93.45255 
z
" style="fill:#fffff0;stroke:#000000;stroke-linejoin:miter;"/>
    </g>
    <!-- 1,22 -->
    <g transform="translate(590.557664 88.5888)scale(0.08 -0.08)">
     <defs>
      <path d="M 11.71875 12.40625 
L 22.015625 12.40625 
L 22.015625 4 
L 14.015625 -11.625 
L 7.71875 -11.625 
L 11.71875 4 
z
" id="DejaVuSans-44"/>
     </defs>
     <use xlink:href="#DejaVuSans-49"/>
     <use x="63.623047" xlink:href="#DejaVuSans-44"/>
     <use x="95.410156" xlink:href="#DejaVuSans-50"/>
     <use x="159.033203" xlink:href="#DejaVuSans-50"/>
    </g>
   </g>
   <g id="text_21">
    <!-- Reproductiegetal, 2020-10-25 11:16 -->
    <g transform="translate(250.8975 19.92)scale(0.12 -0.12)">
     <defs>
      <path id="DejaVuSans-32"/>
      <path d="M 11.71875 12.40625 
L 22.015625 12.40625 
L 22.015625 0 
L 11.71875 0 
z
M 11.71875 51.703125 
L 22.015625 51.703125 
L 22.015625 39.3125 
L 11.71875 39.3125 
z
" id="DejaVuSans-58"/>
     </defs>
     <use xlink:href="#DejaVuSans-82"/>
     <use x="64.982422" xlink:href="#DejaVuSans-101"/>
     <use x="126.505859" xlink:href="#DejaVuSans-112"/>
     <use x="189.982422" xlink:href="#DejaVuSans-114"/>
     <use x="228.845703" xlink:href="#DejaVuSans-111"/>
     <use x="290.027344" xlink:href="#DejaVuSans-100"/>
     <use x="353.503906" xlink:href="#DejaVuSans-117"/>
     <use x="416.882812" xlink:href="#DejaVuSans-99"/>
     <use x="471.863281" xlink:href="#DejaVuSans-116"/>
     <use x="511.072266" xlink:href="#DejaVuSans-105"/>
     <use x="538.855469" xlink:href="#DejaVuSans-101"/>
     <use x="600.378906" xlink:href="#DejaVuSans-103"/>
     <use x="663.855469" xlink:href="#DejaVuSans-101"/>
     <use x="725.378906" xlink:href="#DejaVuSans-116"/>
     <use x="764.587891" xlink:href="#DejaVuSans-97"/>
     <use x="825.867188" xlink:href="#DejaVuSans-108"/>
     <use x="853.650391" xlink:href="#DejaVuSans-44"/>
     <use x="885.4375" xlink:href="#DejaVuSans-32"/>
     <use x="917.224609" xlink:href="#DejaVuSans-50"/>
     <use x="980.847656" xlink:href="#DejaVuSans-48"/>
     <use x="1044.470703" xlink:href="#DejaVuSans-50"/>
     <use x="1108.09375" xlink:href="#DejaVuSans-48"/>
     <use x="1171.716797" xlink:href="#DejaVuSans-45"/>
     <use x="1207.800781" xlink:href="#DejaVuSans-49"/>
     <use x="1271.423828" xlink:href="#DejaVuSans-48"/>
     <use x="1335.046875" xlink:href="#DejaVuSans-45"/>
     <use x="1371.130859" xlink:href="#DejaVuSans-50"/>
     <use x="1434.753906" xlink:href="#DejaVuSans-53"/>
     <use x="1498.376953" xlink:href="#DejaVuSans-32"/>
     <use x="1530.164062" xlink:href="#DejaVuSans-49"/>
     <use x="1593.787109" xlink:href="#DejaVuSans-49"/>
     <use x="1657.410156" xlink:href="#DejaVuSans-58"/>
     <use x="1691.101562" xlink:href="#DejaVuSans-49"/>
     <use x="1754.724609" xlink:href="#DejaVuSans-54"/>
    </g>
   </g>
  </g>
  <g id="text_22">
   <!-- Gegenereerd op 2020-10-25 11:16. -->
   <g style="fill:#808080;" transform="translate(7.2 204.88175)scale(0.08 -0.08)">
    <defs>
     <path d="M 59.515625 10.40625 
L 59.515625 29.984375 
L 43.40625 29.984375 
L 43.40625 38.09375 
L 69.28125 38.09375 
L 69.28125 6.78125 
Q 63.578125 2.734375 56.6875 0.65625 
Q 49.8125 -1.421875 42 -1.421875 
Q 24.90625 -1.421875 15.25 8.5625 
Q 5.609375 18.5625 5.609375 36.375 
Q 5.609375 54.25 15.25 64.234375 
Q 24.90625 74.21875 42 74.21875 
Q 49.125 74.21875 55.546875 72.453125 
Q 61.96875 70.703125 67.390625 67.28125 
L 67.390625 56.78125 
Q 61.921875 61.421875 55.765625 63.765625 
Q 49.609375 66.109375 42.828125 66.109375 
Q 29.4375 66.109375 22.71875 58.640625 
Q 16.015625 51.171875 16.015625 36.375 
Q 16.015625 21.625 22.71875 14.15625 
Q 29.4375 6.6875 42.828125 6.6875 
Q 48.046875 6.6875 52.140625 7.59375 
Q 56.25 8.5 59.515625 10.40625 
z
" id="DejaVuSans-71"/>
     <path d="M 54.890625 33.015625 
L 54.890625 0 
L 45.90625 0 
L 45.90625 32.71875 
Q 45.90625 40.484375 42.875 44.328125 
Q 39.84375 48.1875 33.796875 48.1875 
Q 26.515625 48.1875 22.3125 43.546875 
Q 18.109375 38.921875 18.109375 30.90625 
L 18.109375 0 
L 9.078125 0 
L 9.078125 54.6875 
L 18.109375 54.6875 
L 18.109375 46.1875 
Q 21.34375 51.125 25.703125 53.5625 
Q 30.078125 56 35.796875 56 
Q 45.21875 56 50.046875 50.171875 
Q 54.890625 44.34375 54.890625 33.015625 
z
" id="DejaVuSans-110"/>
    </defs>
    <use xlink:href="#DejaVuSans-71"/>
    <use x="77.490234" xlink:href="#DejaVuSans-101"/>
    <use x="139.013672" xlink:href="#DejaVuSans-103"/>
    <use x="202.490234" xlink:href="#DejaVuSans-101"/>
    <use x="264.013672" xlink:href="#DejaVuSans-110"/>
    <use x="327.392578" xlink:href="#DejaVuSans-101"/>
    <use x="388.916016" xlink:href="#DejaVuSans-114"/>
    <use x="427.779297" xlink:href="#DejaVuSans-101"/>
    <use x="489.302734" xlink:href="#DejaVuSans-101"/>
    <use x="550.826172" xlink:href="#DejaVuSans-114"/>
    <use x="590.189453" xlink:href="#DejaVuSans-100"/>
    <use x="653.666016" xlink:href="#DejaVuSans-32"/>
    <use x="685.453125" xlink:href="#DejaVuSans-111"/>
    <use x="746.634766" xlink:href="#DejaVuSans-112"/>
    <use x="810.111328" xlink:href="#DejaVuSans-32"/>
    <use x="841.898438" xlink:href="#DejaVuSans-50"/>
    <use x="905.521484" xlink:href="#DejaVuSans-48"/>
    <use x="969.144531" xlink:href="#DejaVuSans-50"/>
    <use x="1032.767578" xlink:href="#DejaVuSans-48"/>
    <use x="1096.390625" xlink:href="#DejaVuSans-45"/>
    <use x="1132.474609" xlink:href="#DejaVuSans-49"/>
    <use x="1196.097656" xlink:href="#DejaVuSans-48"/>
    <use x="1259.720703" xlink:href="#DejaVuSans-45"/>
    <use x="1295.804688" xlink:href="#DejaVuSans-50"/>
    <use x="1359.427734" xlink:href="#DejaVuSans-53"/>
    <use x="1423.050781" xlink:href="#DejaVuSans-32"/>
    <use x="1454.837891" xlink:href="#DejaVuSans-49"/>
    <use x="1518.460938" xlink:href="#DejaVuSans-49"/>
    <use x="1582.083984" xlink:href="#DejaVuSans-58"/>
    <use x="1615.775391" xlink:href="#DejaVuSans-49"/>
    <use x="1679.398438" xlink:href="#DejaVuSans-54"/>
    <use x="1743.021484" xlink:href="#DejaVuSans-46"/>
   </g>
   <!-- Source code: http://github.com/realrolfje/coronadata -->
   <g style="fill:#808080;" transform="translate(7.2 213.84)scale(0.08 -0.08)">
    <defs>
     <path d="M 53.515625 70.515625 
L 53.515625 60.890625 
Q 47.90625 63.578125 42.921875 64.890625 
Q 37.9375 66.21875 33.296875 66.21875 
Q 25.25 66.21875 20.875 63.09375 
Q 16.5 59.96875 16.5 54.203125 
Q 16.5 49.359375 19.40625 46.890625 
Q 22.3125 44.4375 30.421875 42.921875 
L 36.375 41.703125 
Q 47.40625 39.59375 52.65625 34.296875 
Q 57.90625 29 57.90625 20.125 
Q 57.90625 9.515625 50.796875 4.046875 
Q 43.703125 -1.421875 29.984375 -1.421875 
Q 24.8125 -1.421875 18.96875 -0.25 
Q 13.140625 0.921875 6.890625 3.21875 
L 6.890625 13.375 
Q 12.890625 10.015625 18.65625 8.296875 
Q 24.421875 6.59375 29.984375 6.59375 
Q 38.421875 6.59375 43.015625 9.90625 
Q 47.609375 13.234375 47.609375 19.390625 
Q 47.609375 24.75 44.3125 27.78125 
Q 41.015625 30.8125 33.5 32.328125 
L 27.484375 33.5 
Q 16.453125 35.6875 11.515625 40.375 
Q 6.59375 45.0625 6.59375 53.421875 
Q 6.59375 63.09375 13.40625 68.65625 
Q 20.21875 74.21875 32.171875 74.21875 
Q 37.3125 74.21875 42.625 73.28125 
Q 47.953125 72.359375 53.515625 70.515625 
z
" id="DejaVuSans-83"/>
     <path d="M 54.890625 33.015625 
L 54.890625 0 
L 45.90625 0 
L 45.90625 32.71875 
Q 45.90625 40.484375 42.875 44.328125 
Q 39.84375 48.1875 33.796875 48.1875 
Q 26.515625 48.1875 22.3125 43.546875 
Q 18.109375 38.921875 18.109375 30.90625 
L 18.109375 0 
L 9.078125 0 
L 9.078125 75.984375 
L 18.109375 75.984375 
L 18.109375 46.1875 
Q 21.34375 51.125 25.703125 53.5625 
Q 30.078125 56 35.796875 56 
Q 45.21875 56 50.046875 50.171875 
Q 54.890625 44.34375 54.890625 33.015625 
z
" id="DejaVuSans-104"/>
     <path d="M 25.390625 72.90625 
L 33.6875 72.90625 
L 8.296875 -9.28125 
L 0 -9.28125 
z
" id="DejaVuSans-47"/>
     <path d="M 48.6875 27.296875 
Q 48.6875 37.203125 44.609375 42.84375 
Q 40.53125 48.484375 33.40625 48.484375 
Q 26.265625 48.484375 22.1875 42.84375 
Q 18.109375 37.203125 18.109375 27.296875 
Q 18.109375 17.390625 22.1875 11.75 
Q 26.265625 6.109375 33.40625 6.109375 
Q 40.53125 6.109375 44.609375 11.75 
Q 48.6875 17.390625 48.6875 27.296875 
z
M 18.109375 46.390625 
Q 20.953125 51.265625 25.265625 53.625 
Q 29.59375 56 35.59375 56 
Q 45.5625 56 51.78125 48.09375 
Q 58.015625 40.1875 58.015625 27.296875 
Q 58.015625 14.40625 51.78125 6.484375 
Q 45.5625 -1.421875 35.59375 -1.421875 
Q 29.59375 -1.421875 25.265625 0.953125 
Q 20.953125 3.328125 18.109375 8.203125 
L 18.109375 0 
L 9.078125 0 
L 9.078125 75.984375 
L 18.109375 75.984375 
z
" id="DejaVuSans-98"/>
     <path d="M 37.109375 75.984375 
L 37.109375 68.5 
L 28.515625 68.5 
Q 23.6875 68.5 21.796875 66.546875 
Q 19.921875 64.59375 19.921875 59.515625 
L 19.921875 54.6875 
L 34.71875 54.6875 
L 34.71875 47.703125 
L 19.921875 47.703125 
L 19.921875 0 
L 10.890625 0 
L 10.890625 47.703125 
L 2.296875 47.703125 
L 2.296875 54.6875 
L 10.890625 54.6875 
L 10.890625 58.5 
Q 10.890625 67.625 15.140625 71.796875 
Q 19.390625 75.984375 28.609375 75.984375 
z
" id="DejaVuSans-102"/>
     <path d="M 9.421875 54.6875 
L 18.40625 54.6875 
L 18.40625 -0.984375 
Q 18.40625 -11.421875 14.421875 -16.109375 
Q 10.453125 -20.796875 1.609375 -20.796875 
L -1.8125 -20.796875 
L -1.8125 -13.1875 
L 0.59375 -13.1875 
Q 5.71875 -13.1875 7.5625 -10.8125 
Q 9.421875 -8.453125 9.421875 -0.984375 
z
M 9.421875 75.984375 
L 18.40625 75.984375 
L 18.40625 64.59375 
L 9.421875 64.59375 
z
" id="DejaVuSans-106"/>
    </defs>
    <use xlink:href="#DejaVuSans-83"/>
    <use x="63.476562" xlink:href="#DejaVuSans-111"/>
    <use x="124.658203" xlink:href="#DejaVuSans-117"/>
    <use x="188.037109" xlink:href="#DejaVuSans-114"/>
    <use x="226.900391" xlink:href="#DejaVuSans-99"/>
    <use x="281.880859" xlink:href="#DejaVuSans-101"/>
    <use x="343.404297" xlink:href="#DejaVuSans-32"/>
    <use x="375.191406" xlink:href="#DejaVuSans-99"/>
    <use x="430.171875" xlink:href="#DejaVuSans-111"/>
    <use x="491.353516" xlink:href="#DejaVuSans-100"/>
    <use x="554.830078" xlink:href="#DejaVuSans-101"/>
    <use x="616.353516" xlink:href="#DejaVuSans-58"/>
    <use x="650.044922" xlink:href="#DejaVuSans-32"/>
    <use x="681.832031" xlink:href="#DejaVuSans-104"/>
    <use x="745.210938" xlink:href="#DejaVuSans-116"/>
    <use x="784.419922" xlink:href="#DejaVuSans-116"/>
    <use x="823.628906" xlink:href="#DejaVuSans-112"/>
    <use x="887.105469" xlink:href="#DejaVuSans-58"/>
    <use x="920.796875" xlink:href="#DejaVuSans-47"/>
    <use x="954.488281" xlink:href="#DejaVuSans-47"/>
    <use x="988.179688" xlink:href="#DejaVuSans-103"/>
    <use x="1051.65625" xlink:href="#DejaVuSans-105"/>
    <use x="1079.439453" xlink:href="#DejaVuSans-116"/>
    <use x="1118.648438" xlink:href="#DejaVuSans-104"/>
    <use x="1182.027344" xlink:href="#DejaVuSans-117"/>
    <use x="1245.40625" xlink:href="#DejaVuSans-98"/>
    <use x="1308.882812" xlink:href="#DejaVuSans-46"/>
    <use x="1340.669922" xlink:href="#DejaVuSans-99"/>
    <use x="1395.650391" xlink:href="#DejaVuSans-111"/>
    <use x="1456.832031" xlink:href="#DejaVuSans-109"/>
    <use x="1554.244141" xlink:href="#DejaVuSans-47"/>
    <use x="1587.935547" xlink:href="#DejaVuSans-114"/>
    <use x="1626.798828" xlink:href="#DejaVuSans-101"/>
    <use x="1688.322266" xlink:href="#DejaVuSans-97"/>
    <use x="1749.601562" xlink:href="#DejaVuSans-108"/>
    <use x="1777.384766" xlink:href="#DejaVuSans-114"/>
    <use x="1816.248047" xlink:href="#DejaVuSans-111"/>
    <use x="1877.429688" xlink:href="#DejaVuSans-108"/>
    <use x="1905.212891" xlink:href="#DejaVuSans-102"/>
    <use x="1940.417969" xlink:href="#DejaVuSans-106"/>
    <use x="1968.201172" xlink:href="#DejaVuSans-101"/>
    <use x="2029.724609" xlink:href="#DejaVuSans-47"/>
    <use x="2063.416016" xlink:href="#DejaVuSans-99"/>
    <use x="2118.396484" xlink:href="#DejaVuSans-111"/>
    <use x="2179.578125" xlink:href="#DejaVuSans-114"/>
    <use x="2218.441406" xlink:href="#DejaVuSans-111"/>
    <use x="2279.623047" xlink:href="#DejaVuSans-110"/>
    <use x="2343.001953" xlink:href="#DejaVuSans-97"/>
    <use x="2404.28125" xlink:href="#DejaVuSans-100"/>
    <use x="2467.757812" xlink:href="#DejaVuSans-97"/>
    <use x="2529.037109" xlink:href="#DejaVuSans-116"/>
    <use x="2568.246094" xlink:href="#DejaVuSans-97"/>
   </g>
  </g>
  <g id="text_23">
   <!-- Bron: https://data.rivm.nl/covid-19 -->
   <g style="fill:#808080;" transform="translate(574.79875 213.84)scale(0.08 -0.08)">
    <defs>
     <path d="M 19.671875 34.8125 
L 19.671875 8.109375 
L 35.5 8.109375 
Q 43.453125 8.109375 47.28125 11.40625 
Q 51.125 14.703125 51.125 21.484375 
Q 51.125 28.328125 47.28125 31.5625 
Q 43.453125 34.8125 35.5 34.8125 
z
M 19.671875 64.796875 
L 19.671875 42.828125 
L 34.28125 42.828125 
Q 41.5 42.828125 45.03125 45.53125 
Q 48.578125 48.25 48.578125 53.8125 
Q 48.578125 59.328125 45.03125 62.0625 
Q 41.5 64.796875 34.28125 64.796875 
z
M 9.8125 72.90625 
L 35.015625 72.90625 
Q 46.296875 72.90625 52.390625 68.21875 
Q 58.5 63.53125 58.5 54.890625 
Q 58.5 48.1875 55.375 44.234375 
Q 52.25 40.28125 46.1875 39.3125 
Q 53.46875 37.75 57.5 32.78125 
Q 61.53125 27.828125 61.53125 20.40625 
Q 61.53125 10.640625 54.890625 5.3125 
Q 48.25 0 35.984375 0 
L 9.8125 0 
z
" id="DejaVuSans-66"/>
     <path d="M 44.28125 53.078125 
L 44.28125 44.578125 
Q 40.484375 46.53125 36.375 47.5 
Q 32.28125 48.484375 27.875 48.484375 
Q 21.1875 48.484375 17.84375 46.4375 
Q 14.5 44.390625 14.5 40.28125 
Q 14.5 37.15625 16.890625 35.375 
Q 19.28125 33.59375 26.515625 31.984375 
L 29.59375 31.296875 
Q 39.15625 29.25 43.1875 25.515625 
Q 47.21875 21.78125 47.21875 15.09375 
Q 47.21875 7.46875 41.1875 3.015625 
Q 35.15625 -1.421875 24.609375 -1.421875 
Q 20.21875 -1.421875 15.453125 -0.5625 
Q 10.6875 0.296875 5.421875 2 
L 5.421875 11.28125 
Q 10.40625 8.6875 15.234375 7.390625 
Q 20.0625 6.109375 24.8125 6.109375 
Q 31.15625 6.109375 34.5625 8.28125 
Q 37.984375 10.453125 37.984375 14.40625 
Q 37.984375 18.0625 35.515625 20.015625 
Q 33.0625 21.96875 24.703125 23.78125 
L 21.578125 24.515625 
Q 13.234375 26.265625 9.515625 29.90625 
Q 5.8125 33.546875 5.8125 39.890625 
Q 5.8125 47.609375 11.28125 51.796875 
Q 16.75 56 26.8125 56 
Q 31.78125 56 36.171875 55.265625 
Q 40.578125 54.546875 44.28125 53.078125 
z
" id="DejaVuSans-115"/>
     <path d="M 2.984375 54.6875 
L 12.5 54.6875 
L 29.59375 8.796875 
L 46.6875 54.6875 
L 56.203125 54.6875 
L 35.6875 0 
L 23.484375 0 
z
" id="DejaVuSans-118"/>
    </defs>
    <use xlink:href="#DejaVuSans-66"/>
    <use x="68.603516" xlink:href="#DejaVuSans-114"/>
    <use x="107.466797" xlink:href="#DejaVuSans-111"/>
    <use x="168.648438" xlink:href="#DejaVuSans-110"/>
    <use x="232.027344" xlink:href="#DejaVuSans-58"/>
    <use x="265.71875" xlink:href="#DejaVuSans-32"/>
    <use x="297.505859" xlink:href="#DejaVuSans-104"/>
    <use x="360.884766" xlink:href="#DejaVuSans-116"/>
    <use x="400.09375" xlink:href="#DejaVuSans-116"/>
    <use x="439.302734" xlink:href="#DejaVuSans-112"/>
    <use x="502.779297" xlink:href="#DejaVuSans-115"/>
    <use x="554.878906" xlink:href="#DejaVuSans-58"/>
    <use x="588.570312" xlink:href="#DejaVuSans-47"/>
    <use x="622.261719" xlink:href="#DejaVuSans-47"/>
    <use x="655.953125" xlink:href="#DejaVuSans-100"/>
    <use x="719.429688" xlink:href="#DejaVuSans-97"/>
    <use x="780.708984" xlink:href="#DejaVuSans-116"/>
    <use x="819.917969" xlink:href="#DejaVuSans-97"/>
    <use x="881.197266" xlink:href="#DejaVuSans-46"/>
    <use x="912.984375" xlink:href="#DejaVuSans-114"/>
    <use x="954.097656" xlink:href="#DejaVuSans-105"/>
    <use x="981.880859" xlink:href="#DejaVuSans-118"/>
    <use x="1041.060547" xlink:href="#DejaVuSans-109"/>
    <use x="1138.472656" xlink:href="#DejaVuSans-46"/>
    <use x="1170.259766" xlink:href="#DejaVuSans-110"/>
    <use x="1233.638672" xlink:href="#DejaVuSans-108"/>
    <use x="1261.421875" xlink:href="#DejaVuSans-47"/>
    <use x="1295.113281" xlink:href="#DejaVuSans-99"/>
    <use x="1350.09375" xlink:href="#DejaVuSans-111"/>
    <use x="1411.275391" xlink:href="#DejaVuSans-118"/>
    <use x="1470.455078" xlink:href="#DejaVuSans-105"/>
    <use x="1498.238281" xlink:href="#DejaVuSans-100"/>
    <use x="1561.714844" xlink:href="#DejaVuSans-45"/>
    <use x="1597.798828" xlink:href="#DejaVuSans-49"/>
    <use x="1661.421875" xlink:href="#DejaVuSans-57"/>
   </g>
  </g>
 </g>
 <defs>
  <clipPath id="p92c86553d2">
   <rect height="146.88" width="590.4" x="64.8" y="25.92"/>
  </clipPath>
 </defs>
</svg>
