<?xml version="1.0" encoding="utf-8" standalone="no"?>
<!DOCTYPE svg PUBLIC "-//W3C//DTD SVG 1.1//EN"
  "http://www.w3.org/Graphics/SVG/1.1/DTD/svg11.dtd">
<!-- Created with matplotlib (https://matplotlib.org/) -->
<svg height="216pt" version="1.1" viewBox="0 0 720 216" width="720pt" xmlns="http://www.w3.org/2000/svg" xmlns:xlink="http://www.w3.org/1999/xlink">
 <metadata>
  <rdf:RDF xmlns:cc="http://creativecommons.org/ns#" xmlns:dc="http://purl.org/dc/elements/1.1/" xmlns:rdf="http://www.w3.org/1999/02/22-rdf-syntax-ns#">
   <cc:Work>
    <dc:type rdf:resource="http://purl.org/dc/dcmitype/StillImage"/>
    <dc:date>2021-01-05T18:22:04.393296</dc:date>
    <dc:format>image/svg+xml</dc:format>
    <dc:creator>
     <cc:Agent>
      <dc:title>Matplotlib v3.3.3, https://matplotlib.org/</dc:title>
     </cc:Agent>
    </dc:creator>
   </cc:Work>
  </rdf:RDF>
 </metadata>
 <defs>
  <style type="text/css">*{stroke-linecap:butt;stroke-linejoin:round;}</style>
 </defs>
 <g id="figure_1">
  <g id="patch_1">
   <path d="M 0 216 
L 720 216 
L 720 0 
L 0 0 
z
" style="fill:#ffffff;"/>
  </g>
  <g id="axes_1">
   <g id="patch_2">
    <path d="M 64.8 172.8 
L 655.2 172.8 
L 655.2 25.92 
L 64.8 25.92 
z
" style="fill:#ffffff;"/>
   </g>
   <g id="PolyCollection_1">
    <path clip-path="url(#pf4e32baec1)" d="M 40.511392 123.84 
L 40.511392 123.84 
L 42.379747 123.84 
L 44.248101 123.84 
L 46.116456 123.84 
L 47.98481 123.84 
L 49.853165 123.84 
L 51.721519 123.84 
L 53.589873 123.84 
L 55.458228 123.84 
L 57.326582 123.84 
L 59.194937 123.84 
L 61.063291 123.84 
L 62.931646 123.84 
L 64.8 123.84 
L 66.668354 123.84 
L 68.536709 123.84 
L 70.405063 123.84 
L 72.273418 123.84 
L 74.141772 123.84 
L 76.010127 123.84 
L 77.878481 123.84 
L 79.746835 123.84 
L 81.61519 123.84 
L 83.483544 123.84 
L 85.351899 123.84 
L 87.220253 123.84 
L 89.088608 123.84 
L 90.956962 123.84 
L 91.891139 123.84 
L 90.956962 121.8816 
L 89.088608 116.0064 
L 87.220253 111.6 
L 85.351899 107.6832 
L 83.483544 102.7872 
L 81.61519 96.912 
L 79.746835 91.0368 
L 77.878481 84.672 
L 76.010127 79.776 
L 74.141772 80.2656 
L 72.273418 81.7344 
L 70.405063 82.7136 
L 68.536709 83.6928 
L 66.668354 85.1616 
L 64.8 83.2032 
L 62.931646 75.3696 
L 61.063291 69.984 
L 59.194937 71.9424 
L 57.326582 71.9424 
L 55.458228 67.536 
L 53.589873 65.088 
L 51.721519 66.0672 
L 49.853165 66.5568 
L 47.98481 73.4112 
L 46.116456 87.6096 
L 44.248101 94.9536 
L 42.379747 87.6096 
L 40.511392 78.3072 
z
" style="fill:#ff0000;fill-opacity:0.3;"/>
    <path clip-path="url(#pf4e32baec1)" d="M 206.794937 123.84 
L 208.663291 123.84 
L 210.531646 123.84 
L 212.4 123.84 
L 213.64557 123.84 
L 212.4 119.9232 
L 210.531646 117.4752 
L 208.663291 119.9232 
z
" style="fill:#ff0000;fill-opacity:0.3;"/>
    <path clip-path="url(#pf4e32baec1)" d="M 241.92 123.84 
L 242.293671 123.84 
L 244.162025 123.84 
L 246.03038 123.84 
L 247.898734 123.84 
L 249.767089 123.84 
L 251.635443 123.84 
L 253.164097 123.84 
L 251.635443 115.0272 
L 249.767089 109.152 
L 247.898734 111.1104 
L 246.03038 116.9856 
L 244.162025 121.392 
L 242.293671 123.3504 
z
" style="fill:#ff0000;fill-opacity:0.3;"/>
    <path clip-path="url(#pf4e32baec1)" d="M 271.253165 123.84 
L 272.187342 123.84 
L 274.055696 123.84 
L 274.522785 123.84 
L 274.055696 123.3504 
L 272.187342 122.8608 
z
" style="fill:#ff0000;fill-opacity:0.3;"/>
    <path clip-path="url(#pf4e32baec1)" d="M 291.671609 123.84 
L 292.739241 123.84 
L 294.607595 123.84 
L 296.475949 123.84 
L 298.344304 123.84 
L 300.212658 123.84 
L 302.081013 123.84 
L 303.949367 123.84 
L 305.817722 123.84 
L 307.686076 123.84 
L 309.55443 123.84 
L 311.422785 123.84 
L 313.291139 123.84 
L 315.159494 123.84 
L 317.027848 123.84 
L 318.896203 123.84 
L 320.764557 123.84 
L 322.632911 123.84 
L 324.501266 123.84 
L 326.36962 123.84 
L 328.237975 123.84 
L 330.106329 123.84 
L 331.974684 123.84 
L 333.843038 123.84 
L 335.711392 123.84 
L 337.579747 123.84 
L 339.448101 123.84 
L 341.316456 123.84 
L 343.18481 123.84 
L 345.053165 123.84 
L 346.921519 123.84 
L 348.789873 123.84 
L 350.658228 123.84 
L 352.526582 123.84 
L 354.394937 123.84 
L 356.263291 123.84 
L 354.394937 121.392 
L 352.526582 117.9648 
L 350.658228 114.048 
L 348.789873 112.0896 
L 346.921519 111.6 
L 345.053165 112.0896 
L 343.18481 112.0896 
L 341.316456 111.1104 
L 339.448101 107.6832 
L 337.579747 104.256 
L 335.711392 102.7872 
L 333.843038 103.7664 
L 331.974684 107.1936 
L 330.106329 110.1312 
L 328.237975 110.6208 
L 326.36962 109.6416 
L 324.501266 109.6416 
L 322.632911 111.1104 
L 320.764557 113.5584 
L 318.896203 116.0064 
L 317.027848 116.496 
L 315.159494 113.5584 
L 313.291139 108.6624 
L 311.422785 104.256 
L 309.55443 102.2976 
L 307.686076 101.808 
L 305.817722 102.7872 
L 303.949367 103.2768 
L 302.081013 102.7872 
L 300.212658 101.808 
L 298.344304 102.7872 
L 296.475949 107.6832 
L 294.607595 115.0272 
L 292.739241 121.8816 
z
" style="fill:#ff0000;fill-opacity:0.3;"/>
    <path clip-path="url(#pf4e32baec1)" d="M 380.551899 123.84 
L 382.420253 123.84 
L 384.288608 123.84 
L 386.156962 123.84 
L 388.025316 123.84 
L 389.893671 123.84 
L 391.762025 123.84 
L 393.63038 123.84 
L 395.498734 123.84 
L 397.367089 123.84 
L 399.235443 123.84 
L 401.103797 123.84 
L 402.972152 123.84 
L 404.840506 123.84 
L 406.708861 123.84 
L 408.577215 123.84 
L 410.44557 123.84 
L 412.313924 123.84 
L 414.182278 123.84 
L 416.050633 123.84 
L 417.918987 123.84 
L 419.787342 123.84 
L 421.655696 123.84 
L 423.524051 123.84 
L 425.392405 123.84 
L 427.260759 123.84 
L 429.129114 123.84 
L 430.997468 123.84 
L 432.865823 123.84 
L 434.734177 123.84 
L 436.602532 123.84 
L 438.470886 123.84 
L 440.339241 123.84 
L 442.207595 123.84 
L 444.075949 123.84 
L 445.944304 123.84 
L 447.812658 123.84 
L 449.681013 123.84 
L 451.549367 123.84 
L 453.417722 123.84 
L 455.286076 123.84 
L 457.15443 123.84 
L 459.022785 123.84 
L 460.891139 123.84 
L 462.759494 123.84 
L 464.627848 123.84 
L 466.496203 123.84 
L 468.364557 123.84 
L 470.232911 123.84 
L 472.101266 123.84 
L 473.96962 123.84 
L 475.837975 123.84 
L 477.706329 123.84 
L 479.574684 123.84 
L 481.443038 123.84 
L 483.311392 123.84 
L 485.179747 123.84 
L 487.048101 123.84 
L 488.916456 123.84 
L 490.78481 123.84 
L 492.653165 123.84 
L 494.521519 123.84 
L 496.389873 123.84 
L 497.791139 123.84 
L 496.389873 122.3712 
L 494.521519 120.4128 
L 492.653165 119.9232 
L 490.78481 119.9232 
L 488.916456 120.4128 
L 487.048101 120.4128 
L 485.179747 119.4336 
L 483.311392 118.4544 
L 481.443038 116.9856 
L 479.574684 116.9856 
L 477.706329 117.9648 
L 475.837975 118.4544 
L 473.96962 118.944 
L 472.101266 118.4544 
L 470.232911 116.9856 
L 468.364557 115.0272 
L 466.496203 114.048 
L 464.627848 113.0688 
L 462.759494 112.0896 
L 460.891139 111.1104 
L 459.022785 109.6416 
L 457.15443 107.6832 
L 455.286076 106.704 
L 453.417722 108.1728 
L 451.549367 110.6208 
L 449.681013 113.5584 
L 447.812658 116.0064 
L 445.944304 116.496 
L 444.075949 115.5168 
L 442.207595 114.5376 
L 440.339241 114.048 
L 438.470886 115.5168 
L 436.602532 116.496 
L 434.734177 116.496 
L 432.865823 115.0272 
L 430.997468 112.0896 
L 429.129114 109.6416 
L 427.260759 109.6416 
L 425.392405 110.6208 
L 423.524051 112.0896 
L 421.655696 113.0688 
L 419.787342 112.5792 
L 417.918987 109.6416 
L 416.050633 107.6832 
L 414.182278 106.2144 
L 412.313924 106.2144 
L 410.44557 106.2144 
L 408.577215 106.704 
L 406.708861 105.7248 
L 404.840506 103.2768 
L 402.972152 102.2976 
L 401.103797 105.2352 
L 399.235443 109.6416 
L 397.367089 113.5584 
L 395.498734 116.0064 
L 393.63038 116.9856 
L 391.762025 116.496 
L 389.893671 116.9856 
L 388.025316 117.4752 
L 386.156962 118.944 
L 384.288608 120.4128 
L 382.420253 122.3712 
z
" style="fill:#ff0000;fill-opacity:0.3;"/>
    <path clip-path="url(#pf4e32baec1)" d="M 558.979747 123.84 
L 559.913924 123.84 
L 561.782278 123.84 
L 563.650633 123.84 
L 565.518987 123.84 
L 567.387342 123.84 
L 569.255696 123.84 
L 571.124051 123.84 
L 572.992405 123.84 
L 574.860759 123.84 
L 576.729114 123.84 
L 578.597468 123.84 
L 580.465823 123.84 
L 582.334177 123.84 
L 584.202532 123.84 
L 586.070886 123.84 
L 587.939241 123.84 
L 589.807595 123.84 
L 591.675949 123.84 
L 593.544304 123.84 
L 595.412658 123.84 
L 597.281013 123.84 
L 599.149367 123.84 
L 601.017722 123.84 
L 602.886076 123.84 
L 601.017722 120.9024 
L 599.149367 118.4544 
L 597.281013 116.9856 
L 595.412658 116.9856 
L 593.544304 116.9856 
L 591.675949 116.9856 
L 589.807595 116.0064 
L 587.939241 114.048 
L 586.070886 112.5792 
L 584.202532 112.0896 
L 582.334177 112.5792 
L 580.465823 113.0688 
L 578.597468 113.5584 
L 576.729114 112.5792 
L 574.860759 111.6 
L 572.992405 111.6 
L 571.124051 113.0688 
L 569.255696 116.0064 
L 567.387342 118.944 
L 565.518987 121.392 
L 563.650633 122.8608 
L 561.782278 122.8608 
L 559.913924 123.3504 
z
" style="fill:#ff0000;fill-opacity:0.3;"/>
   </g>
   <g id="PolyCollection_2">
    <path clip-path="url(#pf4e32baec1)" d="M 91.891139 123.84 
L 92.825316 123.84 
L 94.693671 123.84 
L 96.562025 123.84 
L 98.43038 123.84 
L 100.298734 123.84 
L 102.167089 123.84 
L 104.035443 123.84 
L 105.903797 123.84 
L 107.772152 123.84 
L 109.640506 123.84 
L 111.508861 123.84 
L 113.377215 123.84 
L 115.24557 123.84 
L 117.113924 123.84 
L 118.982278 123.84 
L 120.850633 123.84 
L 122.718987 123.84 
L 124.587342 123.84 
L 126.455696 123.84 
L 128.324051 123.84 
L 130.192405 123.84 
L 132.060759 123.84 
L 133.929114 123.84 
L 135.797468 123.84 
L 137.665823 123.84 
L 139.534177 123.84 
L 141.402532 123.84 
L 143.270886 123.84 
L 145.139241 123.84 
L 147.007595 123.84 
L 148.875949 123.84 
L 150.744304 123.84 
L 152.612658 123.84 
L 154.481013 123.84 
L 156.349367 123.84 
L 158.217722 123.84 
L 160.086076 123.84 
L 161.95443 123.84 
L 163.822785 123.84 
L 165.691139 123.84 
L 167.559494 123.84 
L 169.427848 123.84 
L 171.296203 123.84 
L 173.164557 123.84 
L 175.032911 123.84 
L 176.901266 123.84 
L 178.76962 123.84 
L 180.637975 123.84 
L 182.506329 123.84 
L 184.374684 123.84 
L 186.243038 123.84 
L 188.111392 123.84 
L 189.979747 123.84 
L 191.848101 123.84 
L 193.716456 123.84 
L 195.58481 123.84 
L 197.453165 123.84 
L 199.321519 123.84 
L 201.189873 123.84 
L 203.058228 123.84 
L 204.926582 123.84 
L 206.794937 123.84 
L 206.794937 123.84 
L 206.794937 123.84 
L 204.926582 128.2464 
L 203.058228 131.6736 
L 201.189873 133.632 
L 199.321519 134.6112 
L 197.453165 135.1008 
L 195.58481 134.6112 
L 193.716456 133.1424 
L 191.848101 132.6528 
L 189.979747 132.6528 
L 188.111392 132.1632 
L 186.243038 132.1632 
L 184.374684 133.632 
L 182.506329 135.5904 
L 180.637975 137.5488 
L 178.76962 139.0176 
L 176.901266 139.0176 
L 175.032911 138.0384 
L 173.164557 137.5488 
L 171.296203 137.0592 
L 169.427848 136.08 
L 167.559494 135.1008 
L 165.691139 135.1008 
L 163.822785 135.1008 
L 161.95443 136.5696 
L 160.086076 137.5488 
L 158.217722 138.528 
L 156.349367 137.5488 
L 154.481013 136.08 
L 152.612658 135.1008 
L 150.744304 135.1008 
L 148.875949 135.5904 
L 147.007595 136.5696 
L 145.139241 137.5488 
L 143.270886 138.528 
L 141.402532 139.0176 
L 139.534177 138.528 
L 137.665823 137.0592 
L 135.797468 134.6112 
L 133.929114 133.1424 
L 132.060759 134.1216 
L 130.192405 135.1008 
L 128.324051 136.08 
L 126.455696 137.5488 
L 124.587342 139.0176 
L 122.718987 139.0176 
L 120.850633 138.0384 
L 118.982278 136.08 
L 117.113924 135.5904 
L 115.24557 135.5904 
L 113.377215 136.5696 
L 111.508861 137.5488 
L 109.640506 138.0384 
L 107.772152 138.0384 
L 105.903797 137.5488 
L 104.035443 136.08 
L 102.167089 134.1216 
L 100.298734 133.1424 
L 98.43038 131.6736 
L 96.562025 129.7152 
L 94.693671 127.7568 
L 92.825316 125.7984 
z
" style="fill:#008000;fill-opacity:0.3;"/>
    <path clip-path="url(#pf4e32baec1)" d="M 213.64557 123.84 
L 214.268354 123.84 
L 216.136709 123.84 
L 218.005063 123.84 
L 219.873418 123.84 
L 221.741772 123.84 
L 223.610127 123.84 
L 225.478481 123.84 
L 227.346835 123.84 
L 229.21519 123.84 
L 231.083544 123.84 
L 232.951899 123.84 
L 234.820253 123.84 
L 236.688608 123.84 
L 238.556962 123.84 
L 240.425316 123.84 
L 241.92 123.84 
L 240.425316 125.7984 
L 238.556962 132.6528 
L 236.688608 139.9968 
L 234.820253 144.4032 
L 232.951899 147.3408 
L 231.083544 149.2992 
L 229.21519 149.2992 
L 227.346835 145.3824 
L 225.478481 139.5072 
L 223.610127 137.0592 
L 221.741772 133.632 
L 219.873418 129.7152 
L 218.005063 129.7152 
L 216.136709 129.7152 
L 214.268354 125.7984 
z
" style="fill:#008000;fill-opacity:0.3;"/>
    <path clip-path="url(#pf4e32baec1)" d="M 253.164097 123.84 
L 253.503797 123.84 
L 255.372152 123.84 
L 257.240506 123.84 
L 259.108861 123.84 
L 260.977215 123.84 
L 262.84557 123.84 
L 264.713924 123.84 
L 266.582278 123.84 
L 268.450633 123.84 
L 270.318987 123.84 
L 271.253165 123.84 
L 270.318987 124.8192 
L 268.450633 127.7568 
L 266.582278 131.184 
L 264.713924 134.1216 
L 262.84557 136.08 
L 260.977215 137.0592 
L 259.108861 137.0592 
L 257.240506 136.08 
L 255.372152 133.632 
L 253.503797 125.7984 
z
" style="fill:#008000;fill-opacity:0.3;"/>
    <path clip-path="url(#pf4e32baec1)" d="M 274.522785 123.84 
L 275.924051 123.84 
L 277.792405 123.84 
L 279.660759 123.84 
L 281.529114 123.84 
L 283.397468 123.84 
L 285.265823 123.84 
L 287.134177 123.84 
L 289.002532 123.84 
L 290.870886 123.84 
L 291.671609 123.84 
L 290.870886 125.3088 
L 289.002532 126.7776 
L 287.134177 126.7776 
L 285.265823 126.7776 
L 283.397468 127.2672 
L 281.529114 128.2464 
L 279.660759 129.2256 
L 277.792405 128.2464 
L 275.924051 125.3088 
z
" style="fill:#008000;fill-opacity:0.3;"/>
    <path clip-path="url(#pf4e32baec1)" d="M 356.263291 123.84 
L 356.263291 123.84 
L 358.131646 123.84 
L 360 123.84 
L 361.868354 123.84 
L 363.736709 123.84 
L 365.605063 123.84 
L 367.473418 123.84 
L 369.341772 123.84 
L 371.210127 123.84 
L 373.078481 123.84 
L 374.946835 123.84 
L 376.81519 123.84 
L 378.683544 123.84 
L 380.551899 123.84 
L 380.551899 123.84 
L 380.551899 123.84 
L 378.683544 124.8192 
L 376.81519 125.7984 
L 374.946835 126.7776 
L 373.078481 127.7568 
L 371.210127 128.2464 
L 369.341772 127.7568 
L 367.473418 126.7776 
L 365.605063 125.7984 
L 363.736709 125.3088 
L 361.868354 125.3088 
L 360 125.7984 
L 358.131646 125.3088 
L 356.263291 123.84 
z
" style="fill:#008000;fill-opacity:0.3;"/>
    <path clip-path="url(#pf4e32baec1)" d="M 497.791139 123.84 
L 498.258228 123.84 
L 500.126582 123.84 
L 501.994937 123.84 
L 503.863291 123.84 
L 505.731646 123.84 
L 507.6 123.84 
L 509.468354 123.84 
L 511.336709 123.84 
L 513.205063 123.84 
L 515.073418 123.84 
L 516.941772 123.84 
L 518.810127 123.84 
L 520.678481 123.84 
L 522.546835 123.84 
L 524.41519 123.84 
L 526.283544 123.84 
L 528.151899 123.84 
L 530.020253 123.84 
L 531.888608 123.84 
L 533.756962 123.84 
L 535.625316 123.84 
L 537.493671 123.84 
L 539.362025 123.84 
L 541.23038 123.84 
L 543.098734 123.84 
L 544.967089 123.84 
L 546.835443 123.84 
L 548.703797 123.84 
L 550.572152 123.84 
L 552.440506 123.84 
L 554.308861 123.84 
L 556.177215 123.84 
L 558.04557 123.84 
L 558.979747 123.84 
L 558.04557 124.3296 
L 556.177215 125.7984 
L 554.308861 126.7776 
L 552.440506 127.7568 
L 550.572152 127.2672 
L 548.703797 125.7984 
L 546.835443 124.3296 
L 544.967089 123.84 
L 543.098734 123.84 
L 541.23038 124.3296 
L 539.362025 124.8192 
L 537.493671 124.3296 
L 535.625316 123.84 
L 533.756962 123.84 
L 531.888608 124.3296 
L 530.020253 125.7984 
L 528.151899 127.2672 
L 526.283544 129.2256 
L 524.41519 130.2048 
L 522.546835 130.6944 
L 520.678481 130.6944 
L 518.810127 130.6944 
L 516.941772 131.184 
L 515.073418 132.1632 
L 513.205063 132.1632 
L 511.336709 132.1632 
L 509.468354 131.184 
L 507.6 130.2048 
L 505.731646 129.2256 
L 503.863291 128.2464 
L 501.994937 127.2672 
L 500.126582 125.7984 
L 498.258228 124.3296 
z
" style="fill:#008000;fill-opacity:0.3;"/>
    <path clip-path="url(#pf4e32baec1)" d="M 602.886076 123.84 
L 602.886076 123.84 
L 604.75443 123.84 
L 606.622785 123.84 
L 608.491139 123.84 
L 610.359494 123.84 
L 610.359494 123.84 
L 610.359494 128.2464 
L 608.491139 127.7568 
L 606.622785 127.2672 
L 604.75443 126.288 
L 602.886076 123.84 
z
" style="fill:#008000;fill-opacity:0.3;"/>
   </g>
   <g id="matplotlib.axis_1">
    <g id="xtick_1">
     <g id="line2d_1">
      <path clip-path="url(#pf4e32baec1)" d="M 64.8 172.8 
L 64.8 25.92 
" style="fill:none;stroke:#808080;stroke-dasharray:6.4,1.6,1,1.6;stroke-dashoffset:0;stroke-opacity:0.3;"/>
     </g>
     <g id="line2d_2">
      <defs>
       <path d="M 0 0 
L 0 3.5 
" id="m4e22cb41cf" style="stroke:#000000;stroke-width:0.8;"/>
      </defs>
      <g>
       <use style="stroke:#000000;stroke-width:0.8;" x="64.8" xlink:href="#m4e22cb41cf" y="172.8"/>
      </g>
     </g>
     <g id="text_1">
      <!-- 2020-03 -->
      <g transform="translate(43.908594 187.398438)scale(0.1 -0.1)">
       <defs>
        <path d="M 19.1875 8.296875 
L 53.609375 8.296875 
L 53.609375 0 
L 7.328125 0 
L 7.328125 8.296875 
Q 12.9375 14.109375 22.625 23.890625 
Q 32.328125 33.6875 34.8125 36.53125 
Q 39.546875 41.84375 41.421875 45.53125 
Q 43.3125 49.21875 43.3125 52.78125 
Q 43.3125 58.59375 39.234375 62.25 
Q 35.15625 65.921875 28.609375 65.921875 
Q 23.96875 65.921875 18.8125 64.3125 
Q 13.671875 62.703125 7.8125 59.421875 
L 7.8125 69.390625 
Q 13.765625 71.78125 18.9375 73 
Q 24.125 74.21875 28.421875 74.21875 
Q 39.75 74.21875 46.484375 68.546875 
Q 53.21875 62.890625 53.21875 53.421875 
Q 53.21875 48.921875 51.53125 44.890625 
Q 49.859375 40.875 45.40625 35.40625 
Q 44.1875 33.984375 37.640625 27.21875 
Q 31.109375 20.453125 19.1875 8.296875 
z
" id="DejaVuSans-50"/>
        <path d="M 31.78125 66.40625 
Q 24.171875 66.40625 20.328125 58.90625 
Q 16.5 51.421875 16.5 36.375 
Q 16.5 21.390625 20.328125 13.890625 
Q 24.171875 6.390625 31.78125 6.390625 
Q 39.453125 6.390625 43.28125 13.890625 
Q 47.125 21.390625 47.125 36.375 
Q 47.125 51.421875 43.28125 58.90625 
Q 39.453125 66.40625 31.78125 66.40625 
z
M 31.78125 74.21875 
Q 44.046875 74.21875 50.515625 64.515625 
Q 56.984375 54.828125 56.984375 36.375 
Q 56.984375 17.96875 50.515625 8.265625 
Q 44.046875 -1.421875 31.78125 -1.421875 
Q 19.53125 -1.421875 13.0625 8.265625 
Q 6.59375 17.96875 6.59375 36.375 
Q 6.59375 54.828125 13.0625 64.515625 
Q 19.53125 74.21875 31.78125 74.21875 
z
" id="DejaVuSans-48"/>
        <path d="M 4.890625 31.390625 
L 31.203125 31.390625 
L 31.203125 23.390625 
L 4.890625 23.390625 
z
" id="DejaVuSans-45"/>
        <path d="M 40.578125 39.3125 
Q 47.65625 37.796875 51.625 33 
Q 55.609375 28.21875 55.609375 21.1875 
Q 55.609375 10.40625 48.1875 4.484375 
Q 40.765625 -1.421875 27.09375 -1.421875 
Q 22.515625 -1.421875 17.65625 -0.515625 
Q 12.796875 0.390625 7.625 2.203125 
L 7.625 11.71875 
Q 11.71875 9.328125 16.59375 8.109375 
Q 21.484375 6.890625 26.8125 6.890625 
Q 36.078125 6.890625 40.9375 10.546875 
Q 45.796875 14.203125 45.796875 21.1875 
Q 45.796875 27.640625 41.28125 31.265625 
Q 36.765625 34.90625 28.71875 34.90625 
L 20.21875 34.90625 
L 20.21875 43.015625 
L 29.109375 43.015625 
Q 36.375 43.015625 40.234375 45.921875 
Q 44.09375 48.828125 44.09375 54.296875 
Q 44.09375 59.90625 40.109375 62.90625 
Q 36.140625 65.921875 28.71875 65.921875 
Q 24.65625 65.921875 20.015625 65.03125 
Q 15.375 64.15625 9.8125 62.3125 
L 9.8125 71.09375 
Q 15.4375 72.65625 20.34375 73.4375 
Q 25.25 74.21875 29.59375 74.21875 
Q 40.828125 74.21875 47.359375 69.109375 
Q 53.90625 64.015625 53.90625 55.328125 
Q 53.90625 49.265625 50.4375 45.09375 
Q 46.96875 40.921875 40.578125 39.3125 
z
" id="DejaVuSans-51"/>
       </defs>
       <use xlink:href="#DejaVuSans-50"/>
       <use x="63.623047" xlink:href="#DejaVuSans-48"/>
       <use x="127.246094" xlink:href="#DejaVuSans-50"/>
       <use x="190.869141" xlink:href="#DejaVuSans-48"/>
       <use x="254.492188" xlink:href="#DejaVuSans-45"/>
       <use x="290.576172" xlink:href="#DejaVuSans-48"/>
       <use x="354.199219" xlink:href="#DejaVuSans-51"/>
      </g>
     </g>
    </g>
    <g id="xtick_2">
     <g id="line2d_3">
      <path clip-path="url(#pf4e32baec1)" d="M 122.718987 172.8 
L 122.718987 25.92 
" style="fill:none;stroke:#808080;stroke-dasharray:6.4,1.6,1,1.6;stroke-dashoffset:0;stroke-opacity:0.3;"/>
     </g>
     <g id="line2d_4">
      <g>
       <use style="stroke:#000000;stroke-width:0.8;" x="122.718987" xlink:href="#m4e22cb41cf" y="172.8"/>
      </g>
     </g>
     <g id="text_2">
      <!-- 2020-04 -->
      <g transform="translate(101.827581 187.398438)scale(0.1 -0.1)">
       <defs>
        <path d="M 37.796875 64.3125 
L 12.890625 25.390625 
L 37.796875 25.390625 
z
M 35.203125 72.90625 
L 47.609375 72.90625 
L 47.609375 25.390625 
L 58.015625 25.390625 
L 58.015625 17.1875 
L 47.609375 17.1875 
L 47.609375 0 
L 37.796875 0 
L 37.796875 17.1875 
L 4.890625 17.1875 
L 4.890625 26.703125 
z
" id="DejaVuSans-52"/>
       </defs>
       <use xlink:href="#DejaVuSans-50"/>
       <use x="63.623047" xlink:href="#DejaVuSans-48"/>
       <use x="127.246094" xlink:href="#DejaVuSans-50"/>
       <use x="190.869141" xlink:href="#DejaVuSans-48"/>
       <use x="254.492188" xlink:href="#DejaVuSans-45"/>
       <use x="290.576172" xlink:href="#DejaVuSans-48"/>
       <use x="354.199219" xlink:href="#DejaVuSans-52"/>
      </g>
     </g>
    </g>
    <g id="xtick_3">
     <g id="line2d_5">
      <path clip-path="url(#pf4e32baec1)" d="M 178.76962 172.8 
L 178.76962 25.92 
" style="fill:none;stroke:#808080;stroke-dasharray:6.4,1.6,1,1.6;stroke-dashoffset:0;stroke-opacity:0.3;"/>
     </g>
     <g id="line2d_6">
      <g>
       <use style="stroke:#000000;stroke-width:0.8;" x="178.76962" xlink:href="#m4e22cb41cf" y="172.8"/>
      </g>
     </g>
     <g id="text_3">
      <!-- 2020-05 -->
      <g transform="translate(157.878214 187.398438)scale(0.1 -0.1)">
       <defs>
        <path d="M 10.796875 72.90625 
L 49.515625 72.90625 
L 49.515625 64.59375 
L 19.828125 64.59375 
L 19.828125 46.734375 
Q 21.96875 47.46875 24.109375 47.828125 
Q 26.265625 48.1875 28.421875 48.1875 
Q 40.625 48.1875 47.75 41.5 
Q 54.890625 34.8125 54.890625 23.390625 
Q 54.890625 11.625 47.5625 5.09375 
Q 40.234375 -1.421875 26.90625 -1.421875 
Q 22.3125 -1.421875 17.546875 -0.640625 
Q 12.796875 0.140625 7.71875 1.703125 
L 7.71875 11.625 
Q 12.109375 9.234375 16.796875 8.0625 
Q 21.484375 6.890625 26.703125 6.890625 
Q 35.15625 6.890625 40.078125 11.328125 
Q 45.015625 15.765625 45.015625 23.390625 
Q 45.015625 31 40.078125 35.4375 
Q 35.15625 39.890625 26.703125 39.890625 
Q 22.75 39.890625 18.8125 39.015625 
Q 14.890625 38.140625 10.796875 36.28125 
z
" id="DejaVuSans-53"/>
       </defs>
       <use xlink:href="#DejaVuSans-50"/>
       <use x="63.623047" xlink:href="#DejaVuSans-48"/>
       <use x="127.246094" xlink:href="#DejaVuSans-50"/>
       <use x="190.869141" xlink:href="#DejaVuSans-48"/>
       <use x="254.492188" xlink:href="#DejaVuSans-45"/>
       <use x="290.576172" xlink:href="#DejaVuSans-48"/>
       <use x="354.199219" xlink:href="#DejaVuSans-53"/>
      </g>
     </g>
    </g>
    <g id="xtick_4">
     <g id="line2d_7">
      <path clip-path="url(#pf4e32baec1)" d="M 236.688608 172.8 
L 236.688608 25.92 
" style="fill:none;stroke:#808080;stroke-dasharray:6.4,1.6,1,1.6;stroke-dashoffset:0;stroke-opacity:0.3;"/>
     </g>
     <g id="line2d_8">
      <g>
       <use style="stroke:#000000;stroke-width:0.8;" x="236.688608" xlink:href="#m4e22cb41cf" y="172.8"/>
      </g>
     </g>
     <g id="text_4">
      <!-- 2020-06 -->
      <g transform="translate(215.797201 187.398438)scale(0.1 -0.1)">
       <defs>
        <path d="M 33.015625 40.375 
Q 26.375 40.375 22.484375 35.828125 
Q 18.609375 31.296875 18.609375 23.390625 
Q 18.609375 15.53125 22.484375 10.953125 
Q 26.375 6.390625 33.015625 6.390625 
Q 39.65625 6.390625 43.53125 10.953125 
Q 47.40625 15.53125 47.40625 23.390625 
Q 47.40625 31.296875 43.53125 35.828125 
Q 39.65625 40.375 33.015625 40.375 
z
M 52.59375 71.296875 
L 52.59375 62.3125 
Q 48.875 64.0625 45.09375 64.984375 
Q 41.3125 65.921875 37.59375 65.921875 
Q 27.828125 65.921875 22.671875 59.328125 
Q 17.53125 52.734375 16.796875 39.40625 
Q 19.671875 43.65625 24.015625 45.921875 
Q 28.375 48.1875 33.59375 48.1875 
Q 44.578125 48.1875 50.953125 41.515625 
Q 57.328125 34.859375 57.328125 23.390625 
Q 57.328125 12.15625 50.6875 5.359375 
Q 44.046875 -1.421875 33.015625 -1.421875 
Q 20.359375 -1.421875 13.671875 8.265625 
Q 6.984375 17.96875 6.984375 36.375 
Q 6.984375 53.65625 15.1875 63.9375 
Q 23.390625 74.21875 37.203125 74.21875 
Q 40.921875 74.21875 44.703125 73.484375 
Q 48.484375 72.75 52.59375 71.296875 
z
" id="DejaVuSans-54"/>
       </defs>
       <use xlink:href="#DejaVuSans-50"/>
       <use x="63.623047" xlink:href="#DejaVuSans-48"/>
       <use x="127.246094" xlink:href="#DejaVuSans-50"/>
       <use x="190.869141" xlink:href="#DejaVuSans-48"/>
       <use x="254.492188" xlink:href="#DejaVuSans-45"/>
       <use x="290.576172" xlink:href="#DejaVuSans-48"/>
       <use x="354.199219" xlink:href="#DejaVuSans-54"/>
      </g>
     </g>
    </g>
    <g id="xtick_5">
     <g id="line2d_9">
      <path clip-path="url(#pf4e32baec1)" d="M 292.739241 172.8 
L 292.739241 25.92 
" style="fill:none;stroke:#808080;stroke-dasharray:6.4,1.6,1,1.6;stroke-dashoffset:0;stroke-opacity:0.3;"/>
     </g>
     <g id="line2d_10">
      <g>
       <use style="stroke:#000000;stroke-width:0.8;" x="292.739241" xlink:href="#m4e22cb41cf" y="172.8"/>
      </g>
     </g>
     <g id="text_5">
      <!-- 2020-07 -->
      <g transform="translate(271.847834 187.398438)scale(0.1 -0.1)">
       <defs>
        <path d="M 8.203125 72.90625 
L 55.078125 72.90625 
L 55.078125 68.703125 
L 28.609375 0 
L 18.3125 0 
L 43.21875 64.59375 
L 8.203125 64.59375 
z
" id="DejaVuSans-55"/>
       </defs>
       <use xlink:href="#DejaVuSans-50"/>
       <use x="63.623047" xlink:href="#DejaVuSans-48"/>
       <use x="127.246094" xlink:href="#DejaVuSans-50"/>
       <use x="190.869141" xlink:href="#DejaVuSans-48"/>
       <use x="254.492188" xlink:href="#DejaVuSans-45"/>
       <use x="290.576172" xlink:href="#DejaVuSans-48"/>
       <use x="354.199219" xlink:href="#DejaVuSans-55"/>
      </g>
     </g>
    </g>
    <g id="xtick_6">
     <g id="line2d_11">
      <path clip-path="url(#pf4e32baec1)" d="M 350.658228 172.8 
L 350.658228 25.92 
" style="fill:none;stroke:#808080;stroke-dasharray:6.4,1.6,1,1.6;stroke-dashoffset:0;stroke-opacity:0.3;"/>
     </g>
     <g id="line2d_12">
      <g>
       <use style="stroke:#000000;stroke-width:0.8;" x="350.658228" xlink:href="#m4e22cb41cf" y="172.8"/>
      </g>
     </g>
     <g id="text_6">
      <!-- 2020-08 -->
      <g transform="translate(329.766822 187.398438)scale(0.1 -0.1)">
       <defs>
        <path d="M 31.78125 34.625 
Q 24.75 34.625 20.71875 30.859375 
Q 16.703125 27.09375 16.703125 20.515625 
Q 16.703125 13.921875 20.71875 10.15625 
Q 24.75 6.390625 31.78125 6.390625 
Q 38.8125 6.390625 42.859375 10.171875 
Q 46.921875 13.96875 46.921875 20.515625 
Q 46.921875 27.09375 42.890625 30.859375 
Q 38.875 34.625 31.78125 34.625 
z
M 21.921875 38.8125 
Q 15.578125 40.375 12.03125 44.71875 
Q 8.5 49.078125 8.5 55.328125 
Q 8.5 64.0625 14.71875 69.140625 
Q 20.953125 74.21875 31.78125 74.21875 
Q 42.671875 74.21875 48.875 69.140625 
Q 55.078125 64.0625 55.078125 55.328125 
Q 55.078125 49.078125 51.53125 44.71875 
Q 48 40.375 41.703125 38.8125 
Q 48.828125 37.15625 52.796875 32.3125 
Q 56.78125 27.484375 56.78125 20.515625 
Q 56.78125 9.90625 50.3125 4.234375 
Q 43.84375 -1.421875 31.78125 -1.421875 
Q 19.734375 -1.421875 13.25 4.234375 
Q 6.78125 9.90625 6.78125 20.515625 
Q 6.78125 27.484375 10.78125 32.3125 
Q 14.796875 37.15625 21.921875 38.8125 
z
M 18.3125 54.390625 
Q 18.3125 48.734375 21.84375 45.5625 
Q 25.390625 42.390625 31.78125 42.390625 
Q 38.140625 42.390625 41.71875 45.5625 
Q 45.3125 48.734375 45.3125 54.390625 
Q 45.3125 60.0625 41.71875 63.234375 
Q 38.140625 66.40625 31.78125 66.40625 
Q 25.390625 66.40625 21.84375 63.234375 
Q 18.3125 60.0625 18.3125 54.390625 
z
" id="DejaVuSans-56"/>
       </defs>
       <use xlink:href="#DejaVuSans-50"/>
       <use x="63.623047" xlink:href="#DejaVuSans-48"/>
       <use x="127.246094" xlink:href="#DejaVuSans-50"/>
       <use x="190.869141" xlink:href="#DejaVuSans-48"/>
       <use x="254.492188" xlink:href="#DejaVuSans-45"/>
       <use x="290.576172" xlink:href="#DejaVuSans-48"/>
       <use x="354.199219" xlink:href="#DejaVuSans-56"/>
      </g>
     </g>
    </g>
    <g id="xtick_7">
     <g id="line2d_13">
      <path clip-path="url(#pf4e32baec1)" d="M 408.577215 172.8 
L 408.577215 25.92 
" style="fill:none;stroke:#808080;stroke-dasharray:6.4,1.6,1,1.6;stroke-dashoffset:0;stroke-opacity:0.3;"/>
     </g>
     <g id="line2d_14">
      <g>
       <use style="stroke:#000000;stroke-width:0.8;" x="408.577215" xlink:href="#m4e22cb41cf" y="172.8"/>
      </g>
     </g>
     <g id="text_7">
      <!-- 2020-09 -->
      <g transform="translate(387.685809 187.398438)scale(0.1 -0.1)">
       <defs>
        <path d="M 10.984375 1.515625 
L 10.984375 10.5 
Q 14.703125 8.734375 18.5 7.8125 
Q 22.3125 6.890625 25.984375 6.890625 
Q 35.75 6.890625 40.890625 13.453125 
Q 46.046875 20.015625 46.78125 33.40625 
Q 43.953125 29.203125 39.59375 26.953125 
Q 35.25 24.703125 29.984375 24.703125 
Q 19.046875 24.703125 12.671875 31.3125 
Q 6.296875 37.9375 6.296875 49.421875 
Q 6.296875 60.640625 12.9375 67.421875 
Q 19.578125 74.21875 30.609375 74.21875 
Q 43.265625 74.21875 49.921875 64.515625 
Q 56.59375 54.828125 56.59375 36.375 
Q 56.59375 19.140625 48.40625 8.859375 
Q 40.234375 -1.421875 26.421875 -1.421875 
Q 22.703125 -1.421875 18.890625 -0.6875 
Q 15.09375 0.046875 10.984375 1.515625 
z
M 30.609375 32.421875 
Q 37.25 32.421875 41.125 36.953125 
Q 45.015625 41.5 45.015625 49.421875 
Q 45.015625 57.28125 41.125 61.84375 
Q 37.25 66.40625 30.609375 66.40625 
Q 23.96875 66.40625 20.09375 61.84375 
Q 16.21875 57.28125 16.21875 49.421875 
Q 16.21875 41.5 20.09375 36.953125 
Q 23.96875 32.421875 30.609375 32.421875 
z
" id="DejaVuSans-57"/>
       </defs>
       <use xlink:href="#DejaVuSans-50"/>
       <use x="63.623047" xlink:href="#DejaVuSans-48"/>
       <use x="127.246094" xlink:href="#DejaVuSans-50"/>
       <use x="190.869141" xlink:href="#DejaVuSans-48"/>
       <use x="254.492188" xlink:href="#DejaVuSans-45"/>
       <use x="290.576172" xlink:href="#DejaVuSans-48"/>
       <use x="354.199219" xlink:href="#DejaVuSans-57"/>
      </g>
     </g>
    </g>
    <g id="xtick_8">
     <g id="line2d_15">
      <path clip-path="url(#pf4e32baec1)" d="M 464.627848 172.8 
L 464.627848 25.92 
" style="fill:none;stroke:#808080;stroke-dasharray:6.4,1.6,1,1.6;stroke-dashoffset:0;stroke-opacity:0.3;"/>
     </g>
     <g id="line2d_16">
      <g>
       <use style="stroke:#000000;stroke-width:0.8;" x="464.627848" xlink:href="#m4e22cb41cf" y="172.8"/>
      </g>
     </g>
     <g id="text_8">
      <!-- 2020-10 -->
      <g transform="translate(443.736442 187.398438)scale(0.1 -0.1)">
       <defs>
        <path d="M 12.40625 8.296875 
L 28.515625 8.296875 
L 28.515625 63.921875 
L 10.984375 60.40625 
L 10.984375 69.390625 
L 28.421875 72.90625 
L 38.28125 72.90625 
L 38.28125 8.296875 
L 54.390625 8.296875 
L 54.390625 0 
L 12.40625 0 
z
" id="DejaVuSans-49"/>
       </defs>
       <use xlink:href="#DejaVuSans-50"/>
       <use x="63.623047" xlink:href="#DejaVuSans-48"/>
       <use x="127.246094" xlink:href="#DejaVuSans-50"/>
       <use x="190.869141" xlink:href="#DejaVuSans-48"/>
       <use x="254.492188" xlink:href="#DejaVuSans-45"/>
       <use x="290.576172" xlink:href="#DejaVuSans-49"/>
       <use x="354.199219" xlink:href="#DejaVuSans-48"/>
      </g>
     </g>
    </g>
    <g id="xtick_9">
     <g id="line2d_17">
      <path clip-path="url(#pf4e32baec1)" d="M 522.546835 172.8 
L 522.546835 25.92 
" style="fill:none;stroke:#808080;stroke-dasharray:6.4,1.6,1,1.6;stroke-dashoffset:0;stroke-opacity:0.3;"/>
     </g>
     <g id="line2d_18">
      <g>
       <use style="stroke:#000000;stroke-width:0.8;" x="522.546835" xlink:href="#m4e22cb41cf" y="172.8"/>
      </g>
     </g>
     <g id="text_9">
      <!-- 2020-11 -->
      <g transform="translate(501.655429 187.398438)scale(0.1 -0.1)">
       <use xlink:href="#DejaVuSans-50"/>
       <use x="63.623047" xlink:href="#DejaVuSans-48"/>
       <use x="127.246094" xlink:href="#DejaVuSans-50"/>
       <use x="190.869141" xlink:href="#DejaVuSans-48"/>
       <use x="254.492188" xlink:href="#DejaVuSans-45"/>
       <use x="290.576172" xlink:href="#DejaVuSans-49"/>
       <use x="354.199219" xlink:href="#DejaVuSans-49"/>
      </g>
     </g>
    </g>
    <g id="xtick_10">
     <g id="line2d_19">
      <path clip-path="url(#pf4e32baec1)" d="M 578.597468 172.8 
L 578.597468 25.92 
" style="fill:none;stroke:#808080;stroke-dasharray:6.4,1.6,1,1.6;stroke-dashoffset:0;stroke-opacity:0.3;"/>
     </g>
     <g id="line2d_20">
      <g>
       <use style="stroke:#000000;stroke-width:0.8;" x="578.597468" xlink:href="#m4e22cb41cf" y="172.8"/>
      </g>
     </g>
     <g id="text_10">
      <!-- 2020-12 -->
      <g transform="translate(557.706062 187.398438)scale(0.1 -0.1)">
       <use xlink:href="#DejaVuSans-50"/>
       <use x="63.623047" xlink:href="#DejaVuSans-48"/>
       <use x="127.246094" xlink:href="#DejaVuSans-50"/>
       <use x="190.869141" xlink:href="#DejaVuSans-48"/>
       <use x="254.492188" xlink:href="#DejaVuSans-45"/>
       <use x="290.576172" xlink:href="#DejaVuSans-49"/>
       <use x="354.199219" xlink:href="#DejaVuSans-50"/>
      </g>
     </g>
    </g>
    <g id="xtick_11">
     <g id="line2d_21">
      <path clip-path="url(#pf4e32baec1)" d="M 636.516456 172.8 
L 636.516456 25.92 
" style="fill:none;stroke:#808080;stroke-dasharray:6.4,1.6,1,1.6;stroke-dashoffset:0;stroke-opacity:0.3;"/>
     </g>
     <g id="line2d_22">
      <g>
       <use style="stroke:#000000;stroke-width:0.8;" x="636.516456" xlink:href="#m4e22cb41cf" y="172.8"/>
      </g>
     </g>
     <g id="text_11">
      <!-- 2021-01 -->
      <g transform="translate(615.625049 187.398438)scale(0.1 -0.1)">
       <use xlink:href="#DejaVuSans-50"/>
       <use x="63.623047" xlink:href="#DejaVuSans-48"/>
       <use x="127.246094" xlink:href="#DejaVuSans-50"/>
       <use x="190.869141" xlink:href="#DejaVuSans-49"/>
       <use x="254.492188" xlink:href="#DejaVuSans-45"/>
       <use x="290.576172" xlink:href="#DejaVuSans-48"/>
       <use x="354.199219" xlink:href="#DejaVuSans-49"/>
      </g>
     </g>
    </g>
    <g id="text_12">
     <!-- Datum -->
     <g transform="translate(343.086719 201.076562)scale(0.1 -0.1)">
      <defs>
       <path d="M 19.671875 64.796875 
L 19.671875 8.109375 
L 31.59375 8.109375 
Q 46.6875 8.109375 53.6875 14.9375 
Q 60.6875 21.78125 60.6875 36.53125 
Q 60.6875 51.171875 53.6875 57.984375 
Q 46.6875 64.796875 31.59375 64.796875 
z
M 9.8125 72.90625 
L 30.078125 72.90625 
Q 51.265625 72.90625 61.171875 64.09375 
Q 71.09375 55.28125 71.09375 36.53125 
Q 71.09375 17.671875 61.125 8.828125 
Q 51.171875 0 30.078125 0 
L 9.8125 0 
z
" id="DejaVuSans-68"/>
       <path d="M 34.28125 27.484375 
Q 23.390625 27.484375 19.1875 25 
Q 14.984375 22.515625 14.984375 16.5 
Q 14.984375 11.71875 18.140625 8.90625 
Q 21.296875 6.109375 26.703125 6.109375 
Q 34.1875 6.109375 38.703125 11.40625 
Q 43.21875 16.703125 43.21875 25.484375 
L 43.21875 27.484375 
z
M 52.203125 31.203125 
L 52.203125 0 
L 43.21875 0 
L 43.21875 8.296875 
Q 40.140625 3.328125 35.546875 0.953125 
Q 30.953125 -1.421875 24.3125 -1.421875 
Q 15.921875 -1.421875 10.953125 3.296875 
Q 6 8.015625 6 15.921875 
Q 6 25.140625 12.171875 29.828125 
Q 18.359375 34.515625 30.609375 34.515625 
L 43.21875 34.515625 
L 43.21875 35.40625 
Q 43.21875 41.609375 39.140625 45 
Q 35.0625 48.390625 27.6875 48.390625 
Q 23 48.390625 18.546875 47.265625 
Q 14.109375 46.140625 10.015625 43.890625 
L 10.015625 52.203125 
Q 14.9375 54.109375 19.578125 55.046875 
Q 24.21875 56 28.609375 56 
Q 40.484375 56 46.34375 49.84375 
Q 52.203125 43.703125 52.203125 31.203125 
z
" id="DejaVuSans-97"/>
       <path d="M 18.3125 70.21875 
L 18.3125 54.6875 
L 36.8125 54.6875 
L 36.8125 47.703125 
L 18.3125 47.703125 
L 18.3125 18.015625 
Q 18.3125 11.328125 20.140625 9.421875 
Q 21.96875 7.515625 27.59375 7.515625 
L 36.8125 7.515625 
L 36.8125 0 
L 27.59375 0 
Q 17.1875 0 13.234375 3.875 
Q 9.28125 7.765625 9.28125 18.015625 
L 9.28125 47.703125 
L 2.6875 47.703125 
L 2.6875 54.6875 
L 9.28125 54.6875 
L 9.28125 70.21875 
z
" id="DejaVuSans-116"/>
       <path d="M 8.5 21.578125 
L 8.5 54.6875 
L 17.484375 54.6875 
L 17.484375 21.921875 
Q 17.484375 14.15625 20.5 10.265625 
Q 23.53125 6.390625 29.59375 6.390625 
Q 36.859375 6.390625 41.078125 11.03125 
Q 45.3125 15.671875 45.3125 23.6875 
L 45.3125 54.6875 
L 54.296875 54.6875 
L 54.296875 0 
L 45.3125 0 
L 45.3125 8.40625 
Q 42.046875 3.421875 37.71875 1 
Q 33.40625 -1.421875 27.6875 -1.421875 
Q 18.265625 -1.421875 13.375 4.4375 
Q 8.5 10.296875 8.5 21.578125 
z
M 31.109375 56 
z
" id="DejaVuSans-117"/>
       <path d="M 52 44.1875 
Q 55.375 50.25 60.0625 53.125 
Q 64.75 56 71.09375 56 
Q 79.640625 56 84.28125 50.015625 
Q 88.921875 44.046875 88.921875 33.015625 
L 88.921875 0 
L 79.890625 0 
L 79.890625 32.71875 
Q 79.890625 40.578125 77.09375 44.375 
Q 74.3125 48.1875 68.609375 48.1875 
Q 61.625 48.1875 57.5625 43.546875 
Q 53.515625 38.921875 53.515625 30.90625 
L 53.515625 0 
L 44.484375 0 
L 44.484375 32.71875 
Q 44.484375 40.625 41.703125 44.40625 
Q 38.921875 48.1875 33.109375 48.1875 
Q 26.21875 48.1875 22.15625 43.53125 
Q 18.109375 38.875 18.109375 30.90625 
L 18.109375 0 
L 9.078125 0 
L 9.078125 54.6875 
L 18.109375 54.6875 
L 18.109375 46.1875 
Q 21.1875 51.21875 25.484375 53.609375 
Q 29.78125 56 35.6875 56 
Q 41.65625 56 45.828125 52.96875 
Q 50 49.953125 52 44.1875 
z
" id="DejaVuSans-109"/>
      </defs>
      <use xlink:href="#DejaVuSans-68"/>
      <use x="77.001953" xlink:href="#DejaVuSans-97"/>
      <use x="138.28125" xlink:href="#DejaVuSans-116"/>
      <use x="177.490234" xlink:href="#DejaVuSans-117"/>
      <use x="240.869141" xlink:href="#DejaVuSans-109"/>
     </g>
    </g>
   </g>
   <g id="matplotlib.axis_2">
    <g id="ytick_1">
     <g id="line2d_23">
      <path clip-path="url(#pf4e32baec1)" d="M 64.8 172.8 
L 655.2 172.8 
" style="fill:none;stroke:#808080;stroke-dasharray:6.4,1.6,1,1.6;stroke-dashoffset:0;stroke-opacity:0.3;"/>
     </g>
     <g id="line2d_24">
      <defs>
       <path d="M 0 0 
L -3.5 0 
" id="me61ddac85b" style="stroke:#000000;stroke-width:0.8;"/>
      </defs>
      <g>
       <use style="stroke:#000000;stroke-width:0.8;" x="64.8" xlink:href="#me61ddac85b" y="172.8"/>
      </g>
     </g>
     <g id="text_13">
      <!-- 0.0 -->
      <g transform="translate(41.896875 176.599219)scale(0.1 -0.1)">
       <defs>
        <path d="M 10.6875 12.40625 
L 21 12.40625 
L 21 0 
L 10.6875 0 
z
" id="DejaVuSans-46"/>
       </defs>
       <use xlink:href="#DejaVuSans-48"/>
       <use x="63.623047" xlink:href="#DejaVuSans-46"/>
       <use x="95.410156" xlink:href="#DejaVuSans-48"/>
      </g>
     </g>
    </g>
    <g id="ytick_2">
     <g id="line2d_25">
      <path clip-path="url(#pf4e32baec1)" d="M 64.8 148.32 
L 655.2 148.32 
" style="fill:none;stroke:#808080;stroke-dasharray:6.4,1.6,1,1.6;stroke-dashoffset:0;stroke-opacity:0.3;"/>
     </g>
     <g id="line2d_26">
      <g>
       <use style="stroke:#000000;stroke-width:0.8;" x="64.8" xlink:href="#me61ddac85b" y="148.32"/>
      </g>
     </g>
     <g id="text_14">
      <!-- 0.5 -->
      <g transform="translate(41.896875 152.119219)scale(0.1 -0.1)">
       <use xlink:href="#DejaVuSans-48"/>
       <use x="63.623047" xlink:href="#DejaVuSans-46"/>
       <use x="95.410156" xlink:href="#DejaVuSans-53"/>
      </g>
     </g>
    </g>
    <g id="ytick_3">
     <g id="line2d_27">
      <path clip-path="url(#pf4e32baec1)" d="M 64.8 123.84 
L 655.2 123.84 
" style="fill:none;stroke:#808080;stroke-dasharray:6.4,1.6,1,1.6;stroke-dashoffset:0;stroke-opacity:0.3;"/>
     </g>
     <g id="line2d_28">
      <g>
       <use style="stroke:#000000;stroke-width:0.8;" x="64.8" xlink:href="#me61ddac85b" y="123.84"/>
      </g>
     </g>
     <g id="text_15">
      <!-- 1.0 -->
      <g transform="translate(41.896875 127.639219)scale(0.1 -0.1)">
       <use xlink:href="#DejaVuSans-49"/>
       <use x="63.623047" xlink:href="#DejaVuSans-46"/>
       <use x="95.410156" xlink:href="#DejaVuSans-48"/>
      </g>
     </g>
    </g>
    <g id="ytick_4">
     <g id="line2d_29">
      <path clip-path="url(#pf4e32baec1)" d="M 64.8 99.36 
L 655.2 99.36 
" style="fill:none;stroke:#808080;stroke-dasharray:6.4,1.6,1,1.6;stroke-dashoffset:0;stroke-opacity:0.3;"/>
     </g>
     <g id="line2d_30">
      <g>
       <use style="stroke:#000000;stroke-width:0.8;" x="64.8" xlink:href="#me61ddac85b" y="99.36"/>
      </g>
     </g>
     <g id="text_16">
      <!-- 1.5 -->
      <g transform="translate(41.896875 103.159219)scale(0.1 -0.1)">
       <use xlink:href="#DejaVuSans-49"/>
       <use x="63.623047" xlink:href="#DejaVuSans-46"/>
       <use x="95.410156" xlink:href="#DejaVuSans-53"/>
      </g>
     </g>
    </g>
    <g id="ytick_5">
     <g id="line2d_31">
      <path clip-path="url(#pf4e32baec1)" d="M 64.8 74.88 
L 655.2 74.88 
" style="fill:none;stroke:#808080;stroke-dasharray:6.4,1.6,1,1.6;stroke-dashoffset:0;stroke-opacity:0.3;"/>
     </g>
     <g id="line2d_32">
      <g>
       <use style="stroke:#000000;stroke-width:0.8;" x="64.8" xlink:href="#me61ddac85b" y="74.88"/>
      </g>
     </g>
     <g id="text_17">
      <!-- 2.0 -->
      <g transform="translate(41.896875 78.679219)scale(0.1 -0.1)">
       <use xlink:href="#DejaVuSans-50"/>
       <use x="63.623047" xlink:href="#DejaVuSans-46"/>
       <use x="95.410156" xlink:href="#DejaVuSans-48"/>
      </g>
     </g>
    </g>
    <g id="ytick_6">
     <g id="line2d_33">
      <path clip-path="url(#pf4e32baec1)" d="M 64.8 50.4 
L 655.2 50.4 
" style="fill:none;stroke:#808080;stroke-dasharray:6.4,1.6,1,1.6;stroke-dashoffset:0;stroke-opacity:0.3;"/>
     </g>
     <g id="line2d_34">
      <g>
       <use style="stroke:#000000;stroke-width:0.8;" x="64.8" xlink:href="#me61ddac85b" y="50.4"/>
      </g>
     </g>
     <g id="text_18">
      <!-- 2.5 -->
      <g transform="translate(41.896875 54.199219)scale(0.1 -0.1)">
       <use xlink:href="#DejaVuSans-50"/>
       <use x="63.623047" xlink:href="#DejaVuSans-46"/>
       <use x="95.410156" xlink:href="#DejaVuSans-53"/>
      </g>
     </g>
    </g>
    <g id="ytick_7">
     <g id="line2d_35">
      <path clip-path="url(#pf4e32baec1)" d="M 64.8 25.92 
L 655.2 25.92 
" style="fill:none;stroke:#808080;stroke-dasharray:6.4,1.6,1,1.6;stroke-dashoffset:0;stroke-opacity:0.3;"/>
     </g>
     <g id="line2d_36">
      <g>
       <use style="stroke:#000000;stroke-width:0.8;" x="64.8" xlink:href="#me61ddac85b" y="25.92"/>
      </g>
     </g>
     <g id="text_19">
      <!-- 3.0 -->
      <g transform="translate(41.896875 29.719219)scale(0.1 -0.1)">
       <use xlink:href="#DejaVuSans-51"/>
       <use x="63.623047" xlink:href="#DejaVuSans-46"/>
       <use x="95.410156" xlink:href="#DejaVuSans-48"/>
      </g>
     </g>
    </g>
    <g id="text_20">
     <!-- Reproductiegetal -->
     <g transform="translate(35.817187 142.044375)rotate(-90)scale(0.1 -0.1)">
      <defs>
       <path d="M 44.390625 34.1875 
Q 47.5625 33.109375 50.5625 29.59375 
Q 53.5625 26.078125 56.59375 19.921875 
L 66.609375 0 
L 56 0 
L 46.6875 18.703125 
Q 43.0625 26.03125 39.671875 28.421875 
Q 36.28125 30.8125 30.421875 30.8125 
L 19.671875 30.8125 
L 19.671875 0 
L 9.8125 0 
L 9.8125 72.90625 
L 32.078125 72.90625 
Q 44.578125 72.90625 50.734375 67.671875 
Q 56.890625 62.453125 56.890625 51.90625 
Q 56.890625 45.015625 53.6875 40.46875 
Q 50.484375 35.9375 44.390625 34.1875 
z
M 19.671875 64.796875 
L 19.671875 38.921875 
L 32.078125 38.921875 
Q 39.203125 38.921875 42.84375 42.21875 
Q 46.484375 45.515625 46.484375 51.90625 
Q 46.484375 58.296875 42.84375 61.546875 
Q 39.203125 64.796875 32.078125 64.796875 
z
" id="DejaVuSans-82"/>
       <path d="M 56.203125 29.59375 
L 56.203125 25.203125 
L 14.890625 25.203125 
Q 15.484375 15.921875 20.484375 11.0625 
Q 25.484375 6.203125 34.421875 6.203125 
Q 39.59375 6.203125 44.453125 7.46875 
Q 49.3125 8.734375 54.109375 11.28125 
L 54.109375 2.78125 
Q 49.265625 0.734375 44.1875 -0.34375 
Q 39.109375 -1.421875 33.890625 -1.421875 
Q 20.796875 -1.421875 13.15625 6.1875 
Q 5.515625 13.8125 5.515625 26.8125 
Q 5.515625 40.234375 12.765625 48.109375 
Q 20.015625 56 32.328125 56 
Q 43.359375 56 49.78125 48.890625 
Q 56.203125 41.796875 56.203125 29.59375 
z
M 47.21875 32.234375 
Q 47.125 39.59375 43.09375 43.984375 
Q 39.0625 48.390625 32.421875 48.390625 
Q 24.90625 48.390625 20.390625 44.140625 
Q 15.875 39.890625 15.1875 32.171875 
z
" id="DejaVuSans-101"/>
       <path d="M 18.109375 8.203125 
L 18.109375 -20.796875 
L 9.078125 -20.796875 
L 9.078125 54.6875 
L 18.109375 54.6875 
L 18.109375 46.390625 
Q 20.953125 51.265625 25.265625 53.625 
Q 29.59375 56 35.59375 56 
Q 45.5625 56 51.78125 48.09375 
Q 58.015625 40.1875 58.015625 27.296875 
Q 58.015625 14.40625 51.78125 6.484375 
Q 45.5625 -1.421875 35.59375 -1.421875 
Q 29.59375 -1.421875 25.265625 0.953125 
Q 20.953125 3.328125 18.109375 8.203125 
z
M 48.6875 27.296875 
Q 48.6875 37.203125 44.609375 42.84375 
Q 40.53125 48.484375 33.40625 48.484375 
Q 26.265625 48.484375 22.1875 42.84375 
Q 18.109375 37.203125 18.109375 27.296875 
Q 18.109375 17.390625 22.1875 11.75 
Q 26.265625 6.109375 33.40625 6.109375 
Q 40.53125 6.109375 44.609375 11.75 
Q 48.6875 17.390625 48.6875 27.296875 
z
" id="DejaVuSans-112"/>
       <path d="M 41.109375 46.296875 
Q 39.59375 47.171875 37.8125 47.578125 
Q 36.03125 48 33.890625 48 
Q 26.265625 48 22.1875 43.046875 
Q 18.109375 38.09375 18.109375 28.8125 
L 18.109375 0 
L 9.078125 0 
L 9.078125 54.6875 
L 18.109375 54.6875 
L 18.109375 46.1875 
Q 20.953125 51.171875 25.484375 53.578125 
Q 30.03125 56 36.53125 56 
Q 37.453125 56 38.578125 55.875 
Q 39.703125 55.765625 41.0625 55.515625 
z
" id="DejaVuSans-114"/>
       <path d="M 30.609375 48.390625 
Q 23.390625 48.390625 19.1875 42.75 
Q 14.984375 37.109375 14.984375 27.296875 
Q 14.984375 17.484375 19.15625 11.84375 
Q 23.34375 6.203125 30.609375 6.203125 
Q 37.796875 6.203125 41.984375 11.859375 
Q 46.1875 17.53125 46.1875 27.296875 
Q 46.1875 37.015625 41.984375 42.703125 
Q 37.796875 48.390625 30.609375 48.390625 
z
M 30.609375 56 
Q 42.328125 56 49.015625 48.375 
Q 55.71875 40.765625 55.71875 27.296875 
Q 55.71875 13.875 49.015625 6.21875 
Q 42.328125 -1.421875 30.609375 -1.421875 
Q 18.84375 -1.421875 12.171875 6.21875 
Q 5.515625 13.875 5.515625 27.296875 
Q 5.515625 40.765625 12.171875 48.375 
Q 18.84375 56 30.609375 56 
z
" id="DejaVuSans-111"/>
       <path d="M 45.40625 46.390625 
L 45.40625 75.984375 
L 54.390625 75.984375 
L 54.390625 0 
L 45.40625 0 
L 45.40625 8.203125 
Q 42.578125 3.328125 38.25 0.953125 
Q 33.9375 -1.421875 27.875 -1.421875 
Q 17.96875 -1.421875 11.734375 6.484375 
Q 5.515625 14.40625 5.515625 27.296875 
Q 5.515625 40.1875 11.734375 48.09375 
Q 17.96875 56 27.875 56 
Q 33.9375 56 38.25 53.625 
Q 42.578125 51.265625 45.40625 46.390625 
z
M 14.796875 27.296875 
Q 14.796875 17.390625 18.875 11.75 
Q 22.953125 6.109375 30.078125 6.109375 
Q 37.203125 6.109375 41.296875 11.75 
Q 45.40625 17.390625 45.40625 27.296875 
Q 45.40625 37.203125 41.296875 42.84375 
Q 37.203125 48.484375 30.078125 48.484375 
Q 22.953125 48.484375 18.875 42.84375 
Q 14.796875 37.203125 14.796875 27.296875 
z
" id="DejaVuSans-100"/>
       <path d="M 48.78125 52.59375 
L 48.78125 44.1875 
Q 44.96875 46.296875 41.140625 47.34375 
Q 37.3125 48.390625 33.40625 48.390625 
Q 24.65625 48.390625 19.8125 42.84375 
Q 14.984375 37.3125 14.984375 27.296875 
Q 14.984375 17.28125 19.8125 11.734375 
Q 24.65625 6.203125 33.40625 6.203125 
Q 37.3125 6.203125 41.140625 7.25 
Q 44.96875 8.296875 48.78125 10.40625 
L 48.78125 2.09375 
Q 45.015625 0.34375 40.984375 -0.53125 
Q 36.96875 -1.421875 32.421875 -1.421875 
Q 20.0625 -1.421875 12.78125 6.34375 
Q 5.515625 14.109375 5.515625 27.296875 
Q 5.515625 40.671875 12.859375 48.328125 
Q 20.21875 56 33.015625 56 
Q 37.15625 56 41.109375 55.140625 
Q 45.0625 54.296875 48.78125 52.59375 
z
" id="DejaVuSans-99"/>
       <path d="M 9.421875 54.6875 
L 18.40625 54.6875 
L 18.40625 0 
L 9.421875 0 
z
M 9.421875 75.984375 
L 18.40625 75.984375 
L 18.40625 64.59375 
L 9.421875 64.59375 
z
" id="DejaVuSans-105"/>
       <path d="M 45.40625 27.984375 
Q 45.40625 37.75 41.375 43.109375 
Q 37.359375 48.484375 30.078125 48.484375 
Q 22.859375 48.484375 18.828125 43.109375 
Q 14.796875 37.75 14.796875 27.984375 
Q 14.796875 18.265625 18.828125 12.890625 
Q 22.859375 7.515625 30.078125 7.515625 
Q 37.359375 7.515625 41.375 12.890625 
Q 45.40625 18.265625 45.40625 27.984375 
z
M 54.390625 6.78125 
Q 54.390625 -7.171875 48.1875 -13.984375 
Q 42 -20.796875 29.203125 -20.796875 
Q 24.46875 -20.796875 20.265625 -20.09375 
Q 16.0625 -19.390625 12.109375 -17.921875 
L 12.109375 -9.1875 
Q 16.0625 -11.328125 19.921875 -12.34375 
Q 23.78125 -13.375 27.78125 -13.375 
Q 36.625 -13.375 41.015625 -8.765625 
Q 45.40625 -4.15625 45.40625 5.171875 
L 45.40625 9.625 
Q 42.625 4.78125 38.28125 2.390625 
Q 33.9375 0 27.875 0 
Q 17.828125 0 11.671875 7.65625 
Q 5.515625 15.328125 5.515625 27.984375 
Q 5.515625 40.671875 11.671875 48.328125 
Q 17.828125 56 27.875 56 
Q 33.9375 56 38.28125 53.609375 
Q 42.625 51.21875 45.40625 46.390625 
L 45.40625 54.6875 
L 54.390625 54.6875 
z
" id="DejaVuSans-103"/>
       <path d="M 9.421875 75.984375 
L 18.40625 75.984375 
L 18.40625 0 
L 9.421875 0 
z
" id="DejaVuSans-108"/>
      </defs>
      <use xlink:href="#DejaVuSans-82"/>
      <use x="64.982422" xlink:href="#DejaVuSans-101"/>
      <use x="126.505859" xlink:href="#DejaVuSans-112"/>
      <use x="189.982422" xlink:href="#DejaVuSans-114"/>
      <use x="228.845703" xlink:href="#DejaVuSans-111"/>
      <use x="290.027344" xlink:href="#DejaVuSans-100"/>
      <use x="353.503906" xlink:href="#DejaVuSans-117"/>
      <use x="416.882812" xlink:href="#DejaVuSans-99"/>
      <use x="471.863281" xlink:href="#DejaVuSans-116"/>
      <use x="511.072266" xlink:href="#DejaVuSans-105"/>
      <use x="538.855469" xlink:href="#DejaVuSans-101"/>
      <use x="600.378906" xlink:href="#DejaVuSans-103"/>
      <use x="663.855469" xlink:href="#DejaVuSans-101"/>
      <use x="725.378906" xlink:href="#DejaVuSans-116"/>
      <use x="764.587891" xlink:href="#DejaVuSans-97"/>
      <use x="825.867188" xlink:href="#DejaVuSans-108"/>
     </g>
    </g>
   </g>
   <g id="line2d_37">
    <path clip-path="url(#pf4e32baec1)" d="M 40.511392 78.3072 
L 42.379747 87.6096 
L 44.248101 94.9536 
L 46.116456 87.6096 
L 47.98481 73.4112 
L 49.853165 66.5568 
L 51.721519 66.0672 
L 53.589873 65.088 
L 55.458228 67.536 
L 57.326582 71.9424 
L 59.194937 71.9424 
L 61.063291 69.984 
L 62.931646 75.3696 
L 64.8 83.2032 
L 66.668354 85.1616 
L 68.536709 83.6928 
L 72.273418 81.7344 
L 74.141772 80.2656 
L 76.010127 79.776 
L 77.878481 84.672 
L 79.746835 91.0368 
L 83.483544 102.7872 
L 85.351899 107.6832 
L 87.220253 111.6 
L 89.088608 116.0064 
L 90.956962 121.8816 
L 92.825316 125.7984 
L 98.43038 131.6736 
L 100.298734 133.1424 
L 102.167089 134.1216 
L 104.035443 136.08 
L 105.903797 137.5488 
L 107.772152 138.0384 
L 109.640506 138.0384 
L 111.508861 137.5488 
L 115.24557 135.5904 
L 117.113924 135.5904 
L 118.982278 136.08 
L 120.850633 138.0384 
L 122.718987 139.0176 
L 124.587342 139.0176 
L 128.324051 136.08 
L 133.929114 133.1424 
L 135.797468 134.6112 
L 137.665823 137.0592 
L 139.534177 138.528 
L 141.402532 139.0176 
L 143.270886 138.528 
L 148.875949 135.5904 
L 150.744304 135.1008 
L 152.612658 135.1008 
L 154.481013 136.08 
L 156.349367 137.5488 
L 158.217722 138.528 
L 161.95443 136.5696 
L 163.822785 135.1008 
L 167.559494 135.1008 
L 171.296203 137.0592 
L 175.032911 138.0384 
L 176.901266 139.0176 
L 178.76962 139.0176 
L 180.637975 137.5488 
L 184.374684 133.632 
L 186.243038 132.1632 
L 188.111392 132.1632 
L 189.979747 132.6528 
L 191.848101 132.6528 
L 193.716456 133.1424 
L 195.58481 134.6112 
L 197.453165 135.1008 
L 199.321519 134.6112 
L 201.189873 133.632 
L 203.058228 131.6736 
L 204.926582 128.2464 
L 206.794937 123.84 
L 208.663291 119.9232 
L 210.531646 117.4752 
L 212.4 119.9232 
L 214.268354 125.7984 
L 216.136709 129.7152 
L 219.873418 129.7152 
L 221.741772 133.632 
L 223.610127 137.0592 
L 225.478481 139.5072 
L 227.346835 145.3824 
L 229.21519 149.2992 
L 231.083544 149.2992 
L 232.951899 147.3408 
L 234.820253 144.4032 
L 236.688608 139.9968 
L 238.556962 132.6528 
L 240.425316 125.7984 
L 242.293671 123.3504 
L 244.162025 121.392 
L 246.03038 116.9856 
L 247.898734 111.1104 
L 249.767089 109.152 
L 251.635443 115.0272 
L 253.503797 125.7984 
L 255.372152 133.632 
L 257.240506 136.08 
L 259.108861 137.0592 
L 260.977215 137.0592 
L 262.84557 136.08 
L 264.713924 134.1216 
L 266.582278 131.184 
L 268.450633 127.7568 
L 270.318987 124.8192 
L 272.187342 122.8608 
L 274.055696 123.3504 
L 275.924051 125.3088 
L 277.792405 128.2464 
L 279.660759 129.2256 
L 283.397468 127.2672 
L 285.265823 126.7776 
L 289.002532 126.7776 
L 290.870886 125.3088 
L 292.739241 121.8816 
L 294.607595 115.0272 
L 296.475949 107.6832 
L 298.344304 102.7872 
L 300.212658 101.808 
L 302.081013 102.7872 
L 303.949367 103.2768 
L 305.817722 102.7872 
L 307.686076 101.808 
L 309.55443 102.2976 
L 311.422785 104.256 
L 313.291139 108.6624 
L 315.159494 113.5584 
L 317.027848 116.496 
L 318.896203 116.0064 
L 322.632911 111.1104 
L 324.501266 109.6416 
L 326.36962 109.6416 
L 328.237975 110.6208 
L 330.106329 110.1312 
L 331.974684 107.1936 
L 333.843038 103.7664 
L 335.711392 102.7872 
L 337.579747 104.256 
L 341.316456 111.1104 
L 343.18481 112.0896 
L 345.053165 112.0896 
L 346.921519 111.6 
L 348.789873 112.0896 
L 350.658228 114.048 
L 352.526582 117.9648 
L 354.394937 121.392 
L 356.263291 123.84 
L 358.131646 125.3088 
L 360 125.7984 
L 361.868354 125.3088 
L 363.736709 125.3088 
L 365.605063 125.7984 
L 369.341772 127.7568 
L 371.210127 128.2464 
L 373.078481 127.7568 
L 380.551899 123.84 
L 382.420253 122.3712 
L 384.288608 120.4128 
L 388.025316 117.4752 
L 391.762025 116.496 
L 393.63038 116.9856 
L 395.498734 116.0064 
L 397.367089 113.5584 
L 399.235443 109.6416 
L 401.103797 105.2352 
L 402.972152 102.2976 
L 404.840506 103.2768 
L 406.708861 105.7248 
L 408.577215 106.704 
L 410.44557 106.2144 
L 414.182278 106.2144 
L 416.050633 107.6832 
L 417.918987 109.6416 
L 419.787342 112.5792 
L 421.655696 113.0688 
L 423.524051 112.0896 
L 425.392405 110.6208 
L 427.260759 109.6416 
L 429.129114 109.6416 
L 430.997468 112.0896 
L 432.865823 115.0272 
L 434.734177 116.496 
L 436.602532 116.496 
L 438.470886 115.5168 
L 440.339241 114.048 
L 442.207595 114.5376 
L 445.944304 116.496 
L 447.812658 116.0064 
L 449.681013 113.5584 
L 451.549367 110.6208 
L 453.417722 108.1728 
L 455.286076 106.704 
L 457.15443 107.6832 
L 459.022785 109.6416 
L 460.891139 111.1104 
L 468.364557 115.0272 
L 470.232911 116.9856 
L 472.101266 118.4544 
L 473.96962 118.944 
L 477.706329 117.9648 
L 479.574684 116.9856 
L 481.443038 116.9856 
L 483.311392 118.4544 
L 487.048101 120.4128 
L 488.916456 120.4128 
L 490.78481 119.9232 
L 492.653165 119.9232 
L 494.521519 120.4128 
L 498.258228 124.3296 
L 501.994937 127.2672 
L 511.336709 132.1632 
L 515.073418 132.1632 
L 516.941772 131.184 
L 518.810127 130.6944 
L 522.546835 130.6944 
L 524.41519 130.2048 
L 526.283544 129.2256 
L 528.151899 127.2672 
L 531.888608 124.3296 
L 533.756962 123.84 
L 535.625316 123.84 
L 539.362025 124.8192 
L 543.098734 123.84 
L 544.967089 123.84 
L 546.835443 124.3296 
L 550.572152 127.2672 
L 552.440506 127.7568 
L 556.177215 125.7984 
L 558.04557 124.3296 
L 559.913924 123.3504 
L 561.782278 122.8608 
L 563.650633 122.8608 
L 565.518987 121.392 
L 567.387342 118.944 
L 571.124051 113.0688 
L 572.992405 111.6 
L 574.860759 111.6 
L 578.597468 113.5584 
L 584.202532 112.0896 
L 586.070886 112.5792 
L 587.939241 114.048 
L 589.807595 116.0064 
L 591.675949 116.9856 
L 597.281013 116.9856 
L 599.149367 118.4544 
L 601.017722 120.9024 
L 602.886076 123.84 
L 604.75443 126.288 
L 606.622785 127.2672 
L 610.359494 128.2464 
L 610.359494 128.2464 
" style="fill:none;stroke:#000000;stroke-linecap:square;stroke-width:1.5;"/>
   </g>
   <g id="line2d_38">
    <path clip-path="url(#pf4e32baec1)" d="M 43.098606 -1 
L 44.248101 34.2432 
L 46.116456 34.2432 
L 47.717539 -1 
M 51.475571 -1 
L 51.721519 9.7632 
L 53.589873 15.1488 
L 55.458228 15.1488 
L 57.326582 32.7744 
L 59.194937 41.0976 
L 61.063291 38.16 
L 62.931646 42.0768 
L 64.8 62.64 
L 66.668354 68.5152 
L 68.536709 64.5984 
L 70.405063 65.088 
L 72.273418 66.5568 
L 76.010127 67.536 
L 77.878481 71.9424 
L 79.746835 82.7136 
L 81.61519 88.5888 
L 83.483544 95.4432 
L 85.351899 101.3184 
L 87.220253 106.2144 
L 89.088608 110.6208 
L 90.956962 116.496 
L 92.825316 121.8816 
L 94.693671 123.3504 
L 100.298734 129.2256 
L 102.167089 130.2048 
L 104.035443 131.6736 
L 105.903797 134.1216 
L 107.772152 133.632 
L 109.640506 133.632 
L 113.377215 131.6736 
L 115.24557 130.2048 
L 117.113924 129.7152 
L 120.850633 131.6736 
L 122.718987 134.1216 
L 124.587342 133.1424 
L 126.455696 131.184 
L 128.324051 128.736 
L 130.192405 127.2672 
L 133.929114 125.3088 
L 135.797468 125.3088 
L 137.665823 129.2256 
L 139.534177 131.6736 
L 141.402532 130.2048 
L 143.270886 129.7152 
L 145.139241 128.2464 
L 147.007595 125.7984 
L 150.744304 123.84 
L 154.481013 123.84 
L 156.349367 124.8192 
L 158.217722 128.2464 
L 160.086076 124.8192 
L 161.95443 122.3712 
L 163.822785 121.392 
L 165.691139 117.9648 
L 167.559494 121.392 
L 169.427848 118.4544 
L 171.296203 122.3712 
L 173.164557 122.3712 
L 175.032911 119.9232 
L 176.901266 121.392 
L 178.76962 121.8816 
L 180.637975 116.496 
L 186.243038 107.6832 
L 188.111392 105.2352 
L 191.848101 110.1312 
L 193.716456 102.2976 
L 195.58481 106.2144 
L 197.453165 111.6 
L 199.321519 104.256 
L 201.189873 102.2976 
L 203.058228 102.2976 
L 204.926582 96.4224 
L 206.794937 81.7344 
L 208.663291 74.88 
L 210.531646 80.2656 
L 212.4 65.088 
L 214.268354 94.464 
L 216.136709 101.808 
L 218.005063 101.808 
L 219.873418 84.672 
L 221.741772 87.12 
L 223.610127 113.5584 
L 225.478481 104.256 
L 227.346835 104.256 
L 229.21519 127.7568 
L 231.083544 111.6 
L 232.951899 114.048 
L 234.820253 75.3696 
L 236.688608 91.5264 
L 238.556962 75.3696 
L 240.425316 26.8992 
L 242.293671 27.3888 
L 244.162025 59.7024 
L 246.03038 28.368 
L 247.898734 29.3472 
L 249.11776 -1 
M 251.990962 -1 
L 253.503797 63.6192 
L 255.372152 80.2656 
L 257.240506 81.2448 
L 259.108861 128.736 
L 260.977215 129.2256 
L 262.84557 128.2464 
L 264.713924 124.3296 
L 266.582278 121.392 
L 268.450633 115.5168 
L 270.318987 113.0688 
L 272.187342 111.1104 
L 274.055696 109.6416 
L 275.924051 115.0272 
L 277.792405 116.9856 
L 279.660759 119.9232 
L 281.529114 116.9856 
L 283.397468 114.5376 
L 285.265823 115.0272 
L 287.134177 114.048 
L 289.002532 116.0064 
L 290.870886 112.5792 
L 292.739241 109.6416 
L 294.607595 101.3184 
L 296.475949 91.0368 
L 298.344304 86.6304 
L 300.212658 85.1616 
L 302.081013 90.5472 
L 303.949367 90.0576 
L 305.817722 91.0368 
L 307.686076 90.0576 
L 309.55443 91.0368 
L 311.422785 93.9744 
L 313.291139 98.3808 
L 315.159494 105.2352 
L 317.027848 108.1728 
L 318.896203 108.6624 
L 320.764557 104.7456 
L 324.501266 100.8288 
L 326.36962 101.808 
L 328.237975 103.2768 
L 330.106329 102.7872 
L 331.974684 100.8288 
L 333.843038 96.4224 
L 335.711392 95.4432 
L 337.579747 97.8912 
L 339.448101 101.3184 
L 341.316456 106.2144 
L 343.18481 106.704 
L 345.053165 106.704 
L 346.921519 106.2144 
L 348.789873 107.1936 
L 350.658228 109.152 
L 352.526582 113.5584 
L 354.394937 117.4752 
L 356.263291 119.9232 
L 358.131646 121.392 
L 360 121.8816 
L 363.736709 120.9024 
L 365.605063 121.392 
L 367.473418 123.3504 
L 371.210127 124.3296 
L 373.078481 123.84 
L 374.946835 122.8608 
L 376.81519 121.392 
L 380.551899 119.4336 
L 382.420253 117.9648 
L 386.156962 114.048 
L 389.893671 112.0896 
L 391.762025 112.0896 
L 393.63038 112.5792 
L 395.498734 111.6 
L 397.367089 109.152 
L 399.235443 105.2352 
L 401.103797 100.8288 
L 402.972152 97.8912 
L 404.840506 98.8704 
L 406.708861 102.2976 
L 408.577215 103.2768 
L 410.44557 102.7872 
L 412.313924 102.7872 
L 414.182278 103.2768 
L 416.050633 104.256 
L 417.918987 106.704 
L 419.787342 109.6416 
L 421.655696 110.6208 
L 423.524051 109.6416 
L 425.392405 108.1728 
L 427.260759 107.1936 
L 429.129114 107.1936 
L 430.997468 109.6416 
L 432.865823 113.0688 
L 434.734177 114.5376 
L 436.602532 114.5376 
L 438.470886 113.0688 
L 440.339241 112.0896 
L 442.207595 112.0896 
L 445.944304 115.0272 
L 447.812658 114.048 
L 449.681013 111.6 
L 451.549367 108.6624 
L 453.417722 106.2144 
L 455.286076 104.7456 
L 457.15443 106.2144 
L 459.022785 108.1728 
L 460.891139 109.6416 
L 462.759494 110.6208 
L 464.627848 112.0896 
L 466.496203 112.5792 
L 468.364557 113.5584 
L 470.232911 115.5168 
L 472.101266 116.9856 
L 473.96962 117.4752 
L 475.837975 117.4752 
L 477.706329 116.496 
L 479.574684 116.0064 
L 481.443038 116.0064 
L 483.311392 116.9856 
L 485.179747 118.4544 
L 487.048101 119.4336 
L 488.916456 118.944 
L 492.653165 118.944 
L 494.521519 119.4336 
L 498.258228 123.3504 
L 501.994937 126.288 
L 511.336709 131.184 
L 513.205063 131.184 
L 518.810127 129.7152 
L 520.678481 129.7152 
L 522.546835 129.2256 
L 524.41519 129.2256 
L 528.151899 126.288 
L 530.020253 124.3296 
L 533.756962 122.3712 
L 535.625316 122.3712 
L 539.362025 123.3504 
L 541.23038 123.3504 
L 543.098734 122.3712 
L 544.967089 122.3712 
L 546.835443 122.8608 
L 548.703797 124.3296 
L 550.572152 126.288 
L 552.440506 126.288 
L 554.308861 125.7984 
L 558.04557 122.8608 
L 559.913924 121.8816 
L 561.782278 121.392 
L 563.650633 121.392 
L 565.518987 119.9232 
L 567.387342 117.4752 
L 571.124051 111.6 
L 572.992405 109.6416 
L 574.860759 110.1312 
L 576.729114 111.6 
L 578.597468 112.0896 
L 580.465823 112.0896 
L 582.334177 111.1104 
L 584.202532 110.6208 
L 586.070886 111.1104 
L 587.939241 112.5792 
L 589.807595 115.0272 
L 591.675949 116.0064 
L 597.281013 116.0064 
L 599.149367 116.9856 
L 601.017722 119.9232 
L 602.886076 123.3504 
L 604.75443 125.3088 
L 608.491139 127.2672 
L 615.964557 129.2256 
L 617.832911 127.7568 
L 619.701266 124.8192 
L 621.56962 120.9024 
L 623.437975 117.9648 
L 625.306329 116.9856 
L 630.911392 116.9856 
L 634.648101 114.048 
L 636.516456 114.048 
L 636.516456 114.048 
" style="fill:none;stroke:#808080;stroke-dasharray:5.55,2.4;stroke-dashoffset:0;stroke-opacity:0.3;stroke-width:1.5;"/>
   </g>
   <g id="line2d_39">
    <path clip-path="url(#pf4e32baec1)" d="M 40.511392 148.32 
L 42.379747 172.8 
L 44.248101 148.32 
L 46.116456 132.1632 
L 47.98481 139.9968 
L 49.853165 172.8 
L 51.721519 115.5168 
L 53.589873 108.6624 
L 55.458228 111.6 
L 57.326582 107.6832 
L 59.194937 100.3392 
L 61.063291 99.36 
L 62.931646 105.7248 
L 64.8 102.2976 
L 66.668354 101.808 
L 68.536709 102.2976 
L 72.273418 96.4224 
L 74.141772 92.9952 
L 76.010127 92.016 
L 77.878481 96.4224 
L 79.746835 99.36 
L 81.61519 104.7456 
L 83.483544 109.152 
L 85.351899 114.048 
L 87.220253 116.9856 
L 89.088608 121.392 
L 90.956962 126.7776 
L 92.825316 129.7152 
L 94.693671 132.1632 
L 96.562025 133.632 
L 98.43038 136.08 
L 100.298734 137.0592 
L 102.167089 138.528 
L 104.035443 140.976 
L 105.903797 140.976 
L 107.772152 142.4448 
L 109.640506 141.9552 
L 111.508861 141.9552 
L 113.377215 140.976 
L 117.113924 140.976 
L 118.982278 141.4656 
L 120.850633 143.9136 
L 122.718987 143.9136 
L 124.587342 144.4032 
L 126.455696 143.9136 
L 128.324051 142.9344 
L 130.192405 142.4448 
L 132.060759 140.976 
L 133.929114 140.976 
L 135.797468 142.9344 
L 137.665823 144.4032 
L 139.534177 145.3824 
L 141.402532 146.8512 
L 143.270886 146.8512 
L 145.139241 146.3616 
L 147.007595 146.3616 
L 148.875949 145.3824 
L 152.612658 145.3824 
L 154.481013 146.8512 
L 156.349367 149.2992 
L 158.217722 147.8304 
L 160.086076 149.2992 
L 161.95443 149.7888 
L 163.822785 148.32 
L 165.691139 150.2784 
L 167.559494 147.8304 
L 169.427848 151.2576 
L 171.296203 150.768 
L 173.164557 151.7472 
L 175.032911 153.7056 
L 176.901266 155.1744 
L 178.76962 153.7056 
L 180.637975 155.664 
L 182.506329 155.1744 
L 184.374684 153.7056 
L 186.243038 153.216 
L 189.979747 155.1744 
L 191.848101 152.2368 
L 193.716456 158.112 
L 195.58481 158.112 
L 197.453165 154.1952 
L 199.321519 158.112 
L 201.189873 158.112 
L 203.058228 156.6432 
L 208.663291 156.6432 
L 210.531646 148.32 
L 212.4 160.56 
L 214.268354 153.216 
L 216.136709 155.1744 
L 218.005063 155.1744 
L 219.873418 163.008 
L 221.741772 172.8 
L 223.610127 156.6432 
L 225.478481 172.8 
L 227.346835 172.8 
L 229.21519 168.3936 
L 231.083544 172.8 
L 257.240506 172.8 
L 259.108861 144.8928 
L 260.977215 144.8928 
L 262.84557 143.9136 
L 264.713924 143.424 
L 266.582278 139.9968 
L 268.450633 139.0176 
L 270.318987 135.5904 
L 272.187342 133.632 
L 274.055696 135.5904 
L 275.924051 135.1008 
L 277.792405 138.528 
L 279.660759 138.0384 
L 281.529114 139.0176 
L 283.397468 139.0176 
L 285.265823 137.5488 
L 287.134177 138.528 
L 289.002532 137.0592 
L 290.870886 137.5488 
L 298.344304 117.9648 
L 300.212658 116.9856 
L 302.081013 114.048 
L 303.949367 115.5168 
L 305.817722 114.048 
L 309.55443 113.0688 
L 311.422785 114.048 
L 313.291139 117.9648 
L 315.159494 121.392 
L 317.027848 124.3296 
L 318.896203 122.8608 
L 320.764557 122.3712 
L 322.632911 118.944 
L 324.501266 117.4752 
L 326.36962 117.9648 
L 330.106329 116.9856 
L 331.974684 113.5584 
L 333.843038 111.6 
L 335.711392 110.1312 
L 337.579747 110.6208 
L 339.448101 114.048 
L 341.316456 116.0064 
L 343.18481 117.4752 
L 345.053165 116.9856 
L 348.789873 116.9856 
L 350.658228 118.4544 
L 352.526582 122.3712 
L 354.394937 125.3088 
L 356.263291 127.7568 
L 358.131646 129.2256 
L 360 129.7152 
L 361.868354 129.2256 
L 363.736709 129.2256 
L 365.605063 129.7152 
L 369.341772 131.6736 
L 371.210127 132.1632 
L 373.078481 132.1632 
L 374.946835 131.184 
L 376.81519 129.7152 
L 378.683544 129.2256 
L 380.551899 128.2464 
L 384.288608 125.3088 
L 386.156962 123.3504 
L 389.893671 121.392 
L 391.762025 121.392 
L 393.63038 120.9024 
L 395.498734 119.9232 
L 397.367089 117.9648 
L 399.235443 114.048 
L 401.103797 109.6416 
L 402.972152 107.1936 
L 404.840506 108.1728 
L 406.708861 109.6416 
L 408.577215 110.1312 
L 410.44557 110.1312 
L 412.313924 109.6416 
L 414.182278 109.6416 
L 416.050633 110.6208 
L 417.918987 113.0688 
L 419.787342 115.0272 
L 421.655696 115.5168 
L 423.524051 115.0272 
L 427.260759 112.0896 
L 429.129114 112.5792 
L 430.997468 114.5376 
L 432.865823 116.9856 
L 434.734177 118.4544 
L 436.602532 118.4544 
L 440.339241 116.496 
L 442.207595 116.496 
L 444.075949 117.9648 
L 445.944304 118.4544 
L 447.812658 117.9648 
L 449.681013 115.5168 
L 451.549367 112.5792 
L 453.417722 110.1312 
L 455.286076 108.6624 
L 457.15443 109.6416 
L 460.891139 112.5792 
L 468.364557 116.496 
L 472.101266 119.4336 
L 473.96962 119.9232 
L 475.837975 119.9232 
L 477.706329 118.944 
L 479.574684 118.4544 
L 481.443038 118.4544 
L 483.311392 119.4336 
L 485.179747 120.9024 
L 487.048101 121.392 
L 488.916456 121.392 
L 490.78481 120.9024 
L 492.653165 120.9024 
L 494.521519 121.392 
L 498.258228 125.3088 
L 501.994937 128.2464 
L 511.336709 133.1424 
L 515.073418 133.1424 
L 520.678481 131.6736 
L 522.546835 131.6736 
L 524.41519 131.184 
L 526.283544 130.2048 
L 531.888608 125.7984 
L 533.756962 124.8192 
L 537.493671 125.7984 
L 541.23038 125.7984 
L 544.967089 124.8192 
L 546.835443 125.7984 
L 550.572152 128.736 
L 552.440506 128.736 
L 554.308861 128.2464 
L 556.177215 127.2672 
L 558.04557 125.7984 
L 559.913924 124.8192 
L 563.650633 123.84 
L 565.518987 122.8608 
L 567.387342 120.4128 
L 571.124051 114.5376 
L 572.992405 113.0688 
L 574.860759 113.0688 
L 576.729114 114.048 
L 578.597468 114.5376 
L 580.465823 114.5376 
L 584.202532 113.5584 
L 586.070886 113.5584 
L 587.939241 115.0272 
L 589.807595 116.9856 
L 591.675949 117.9648 
L 597.281013 117.9648 
L 599.149367 119.4336 
L 601.017722 121.8816 
L 602.886076 124.8192 
L 604.75443 127.2672 
L 606.622785 128.2464 
L 612.227848 129.7152 
L 614.096203 130.6944 
L 615.964557 130.6944 
L 617.832911 129.2256 
L 619.701266 126.7776 
L 621.56962 123.84 
L 623.437975 121.392 
L 625.306329 120.4128 
L 627.174684 121.392 
L 629.043038 122.8608 
L 630.911392 123.84 
L 632.779747 124.3296 
L 636.516456 124.3296 
L 636.516456 124.3296 
" style="fill:none;stroke:#808080;stroke-dasharray:5.55,2.4;stroke-dashoffset:0;stroke-opacity:0.3;stroke-width:1.5;"/>
   </g>
   <g id="line2d_40">
    <path clip-path="url(#pf4e32baec1)" d="M 643.989873 172.8 
L 643.989873 25.92 
" style="fill:none;stroke:#ff0000;stroke-linecap:square;stroke-width:0.5;"/>
   </g>
   <g id="patch_3">
    <path d="M 64.8 172.8 
L 64.8 25.92 
" style="fill:none;stroke:#000000;stroke-linecap:square;stroke-linejoin:miter;stroke-width:0.8;"/>
   </g>
   <g id="patch_4">
    <path d="M 655.2 172.8 
L 655.2 25.92 
" style="fill:none;stroke:#000000;stroke-linecap:square;stroke-linejoin:miter;stroke-width:0.8;"/>
   </g>
   <g id="patch_5">
    <path d="M 64.8 172.8 
L 655.2 172.8 
" style="fill:none;stroke:#000000;stroke-linecap:square;stroke-linejoin:miter;stroke-width:0.8;"/>
   </g>
   <g id="patch_6">
    <path d="M 64.8 25.92 
L 655.2 25.92 
" style="fill:none;stroke:#000000;stroke-linecap:square;stroke-linejoin:miter;stroke-width:0.8;"/>
   </g>
   <g id="patch_7">
    <path d="M 614.741306 110.979768 
Q 611.846251 118.342422 610.803717 125.161727 
" style="fill:none;stroke:#000000;stroke-linecap:round;"/>
    <path d="M 612.868937 122.240278 
L 610.803717 125.161727 
L 609.70569 121.756682 
" style="fill:none;stroke:#000000;stroke-linecap:round;"/>
   </g>
   <g id="text_21">
    <g id="patch_8">
     <path d="M 610.359494 108.63015 
L 628.171994 108.63015 
Q 631.371994 108.63015 631.371994 105.43015 
L 631.371994 97.68765 
Q 631.371994 94.48765 628.171994 94.48765 
L 610.359494 94.48765 
Q 607.159494 94.48765 607.159494 97.68765 
L 607.159494 105.43015 
Q 607.159494 108.63015 610.359494 108.63015 
z
" style="fill:#fffff0;stroke:#000000;stroke-linejoin:miter;"/>
    </g>
    <!-- 0,91 -->
    <g transform="translate(610.359494 103.7664)scale(0.08 -0.08)">
     <defs>
      <path d="M 11.71875 12.40625 
L 22.015625 12.40625 
L 22.015625 4 
L 14.015625 -11.625 
L 7.71875 -11.625 
L 11.71875 4 
z
" id="DejaVuSans-44"/>
     </defs>
     <use xlink:href="#DejaVuSans-48"/>
     <use x="63.623047" xlink:href="#DejaVuSans-44"/>
     <use x="95.410156" xlink:href="#DejaVuSans-57"/>
     <use x="159.033203" xlink:href="#DejaVuSans-49"/>
    </g>
   </g>
   <g id="text_22">
    <!-- Reproductiegetal -->
    <g transform="translate(308.77875 19.92)scale(0.12 -0.12)">
     <use xlink:href="#DejaVuSans-82"/>
     <use x="64.982422" xlink:href="#DejaVuSans-101"/>
     <use x="126.505859" xlink:href="#DejaVuSans-112"/>
     <use x="189.982422" xlink:href="#DejaVuSans-114"/>
     <use x="228.845703" xlink:href="#DejaVuSans-111"/>
     <use x="290.027344" xlink:href="#DejaVuSans-100"/>
     <use x="353.503906" xlink:href="#DejaVuSans-117"/>
     <use x="416.882812" xlink:href="#DejaVuSans-99"/>
     <use x="471.863281" xlink:href="#DejaVuSans-116"/>
     <use x="511.072266" xlink:href="#DejaVuSans-105"/>
     <use x="538.855469" xlink:href="#DejaVuSans-101"/>
     <use x="600.378906" xlink:href="#DejaVuSans-103"/>
     <use x="663.855469" xlink:href="#DejaVuSans-101"/>
     <use x="725.378906" xlink:href="#DejaVuSans-116"/>
     <use x="764.587891" xlink:href="#DejaVuSans-97"/>
     <use x="825.867188" xlink:href="#DejaVuSans-108"/>
    </g>
   </g>
  </g>
  <g id="text_23">
   <!-- Gegenereerd op 2021-01-05 18:22, Rt berekend tot 2020-12-18. -->
   <g style="fill:#808080;" transform="translate(7.2 204.88175)scale(0.08 -0.08)">
    <defs>
     <path d="M 59.515625 10.40625 
L 59.515625 29.984375 
L 43.40625 29.984375 
L 43.40625 38.09375 
L 69.28125 38.09375 
L 69.28125 6.78125 
Q 63.578125 2.734375 56.6875 0.65625 
Q 49.8125 -1.421875 42 -1.421875 
Q 24.90625 -1.421875 15.25 8.5625 
Q 5.609375 18.5625 5.609375 36.375 
Q 5.609375 54.25 15.25 64.234375 
Q 24.90625 74.21875 42 74.21875 
Q 49.125 74.21875 55.546875 72.453125 
Q 61.96875 70.703125 67.390625 67.28125 
L 67.390625 56.78125 
Q 61.921875 61.421875 55.765625 63.765625 
Q 49.609375 66.109375 42.828125 66.109375 
Q 29.4375 66.109375 22.71875 58.640625 
Q 16.015625 51.171875 16.015625 36.375 
Q 16.015625 21.625 22.71875 14.15625 
Q 29.4375 6.6875 42.828125 6.6875 
Q 48.046875 6.6875 52.140625 7.59375 
Q 56.25 8.5 59.515625 10.40625 
z
" id="DejaVuSans-71"/>
     <path d="M 54.890625 33.015625 
L 54.890625 0 
L 45.90625 0 
L 45.90625 32.71875 
Q 45.90625 40.484375 42.875 44.328125 
Q 39.84375 48.1875 33.796875 48.1875 
Q 26.515625 48.1875 22.3125 43.546875 
Q 18.109375 38.921875 18.109375 30.90625 
L 18.109375 0 
L 9.078125 0 
L 9.078125 54.6875 
L 18.109375 54.6875 
L 18.109375 46.1875 
Q 21.34375 51.125 25.703125 53.5625 
Q 30.078125 56 35.796875 56 
Q 45.21875 56 50.046875 50.171875 
Q 54.890625 44.34375 54.890625 33.015625 
z
" id="DejaVuSans-110"/>
     <path id="DejaVuSans-32"/>
     <path d="M 11.71875 12.40625 
L 22.015625 12.40625 
L 22.015625 0 
L 11.71875 0 
z
M 11.71875 51.703125 
L 22.015625 51.703125 
L 22.015625 39.3125 
L 11.71875 39.3125 
z
" id="DejaVuSans-58"/>
     <path d="M 48.6875 27.296875 
Q 48.6875 37.203125 44.609375 42.84375 
Q 40.53125 48.484375 33.40625 48.484375 
Q 26.265625 48.484375 22.1875 42.84375 
Q 18.109375 37.203125 18.109375 27.296875 
Q 18.109375 17.390625 22.1875 11.75 
Q 26.265625 6.109375 33.40625 6.109375 
Q 40.53125 6.109375 44.609375 11.75 
Q 48.6875 17.390625 48.6875 27.296875 
z
M 18.109375 46.390625 
Q 20.953125 51.265625 25.265625 53.625 
Q 29.59375 56 35.59375 56 
Q 45.5625 56 51.78125 48.09375 
Q 58.015625 40.1875 58.015625 27.296875 
Q 58.015625 14.40625 51.78125 6.484375 
Q 45.5625 -1.421875 35.59375 -1.421875 
Q 29.59375 -1.421875 25.265625 0.953125 
Q 20.953125 3.328125 18.109375 8.203125 
L 18.109375 0 
L 9.078125 0 
L 9.078125 75.984375 
L 18.109375 75.984375 
z
" id="DejaVuSans-98"/>
     <path d="M 9.078125 75.984375 
L 18.109375 75.984375 
L 18.109375 31.109375 
L 44.921875 54.6875 
L 56.390625 54.6875 
L 27.390625 29.109375 
L 57.625 0 
L 45.90625 0 
L 18.109375 26.703125 
L 18.109375 0 
L 9.078125 0 
z
" id="DejaVuSans-107"/>
    </defs>
    <use xlink:href="#DejaVuSans-71"/>
    <use x="77.490234" xlink:href="#DejaVuSans-101"/>
    <use x="139.013672" xlink:href="#DejaVuSans-103"/>
    <use x="202.490234" xlink:href="#DejaVuSans-101"/>
    <use x="264.013672" xlink:href="#DejaVuSans-110"/>
    <use x="327.392578" xlink:href="#DejaVuSans-101"/>
    <use x="388.916016" xlink:href="#DejaVuSans-114"/>
    <use x="427.779297" xlink:href="#DejaVuSans-101"/>
    <use x="489.302734" xlink:href="#DejaVuSans-101"/>
    <use x="550.826172" xlink:href="#DejaVuSans-114"/>
    <use x="590.189453" xlink:href="#DejaVuSans-100"/>
    <use x="653.666016" xlink:href="#DejaVuSans-32"/>
    <use x="685.453125" xlink:href="#DejaVuSans-111"/>
    <use x="746.634766" xlink:href="#DejaVuSans-112"/>
    <use x="810.111328" xlink:href="#DejaVuSans-32"/>
    <use x="841.898438" xlink:href="#DejaVuSans-50"/>
    <use x="905.521484" xlink:href="#DejaVuSans-48"/>
    <use x="969.144531" xlink:href="#DejaVuSans-50"/>
    <use x="1032.767578" xlink:href="#DejaVuSans-49"/>
    <use x="1096.390625" xlink:href="#DejaVuSans-45"/>
    <use x="1132.474609" xlink:href="#DejaVuSans-48"/>
    <use x="1196.097656" xlink:href="#DejaVuSans-49"/>
    <use x="1259.720703" xlink:href="#DejaVuSans-45"/>
    <use x="1295.804688" xlink:href="#DejaVuSans-48"/>
    <use x="1359.427734" xlink:href="#DejaVuSans-53"/>
    <use x="1423.050781" xlink:href="#DejaVuSans-32"/>
    <use x="1454.837891" xlink:href="#DejaVuSans-49"/>
    <use x="1518.460938" xlink:href="#DejaVuSans-56"/>
    <use x="1582.083984" xlink:href="#DejaVuSans-58"/>
    <use x="1615.775391" xlink:href="#DejaVuSans-50"/>
    <use x="1679.398438" xlink:href="#DejaVuSans-50"/>
    <use x="1743.021484" xlink:href="#DejaVuSans-44"/>
    <use x="1774.808594" xlink:href="#DejaVuSans-32"/>
    <use x="1806.595703" xlink:href="#DejaVuSans-82"/>
    <use x="1876.078125" xlink:href="#DejaVuSans-116"/>
    <use x="1915.287109" xlink:href="#DejaVuSans-32"/>
    <use x="1947.074219" xlink:href="#DejaVuSans-98"/>
    <use x="2010.550781" xlink:href="#DejaVuSans-101"/>
    <use x="2072.074219" xlink:href="#DejaVuSans-114"/>
    <use x="2110.9375" xlink:href="#DejaVuSans-101"/>
    <use x="2172.460938" xlink:href="#DejaVuSans-107"/>
    <use x="2226.746094" xlink:href="#DejaVuSans-101"/>
    <use x="2288.269531" xlink:href="#DejaVuSans-110"/>
    <use x="2351.648438" xlink:href="#DejaVuSans-100"/>
    <use x="2415.125" xlink:href="#DejaVuSans-32"/>
    <use x="2446.912109" xlink:href="#DejaVuSans-116"/>
    <use x="2486.121094" xlink:href="#DejaVuSans-111"/>
    <use x="2547.302734" xlink:href="#DejaVuSans-116"/>
    <use x="2586.511719" xlink:href="#DejaVuSans-32"/>
    <use x="2618.298828" xlink:href="#DejaVuSans-50"/>
    <use x="2681.921875" xlink:href="#DejaVuSans-48"/>
    <use x="2745.544922" xlink:href="#DejaVuSans-50"/>
    <use x="2809.167969" xlink:href="#DejaVuSans-48"/>
    <use x="2872.791016" xlink:href="#DejaVuSans-45"/>
    <use x="2908.875" xlink:href="#DejaVuSans-49"/>
    <use x="2972.498047" xlink:href="#DejaVuSans-50"/>
    <use x="3036.121094" xlink:href="#DejaVuSans-45"/>
    <use x="3072.205078" xlink:href="#DejaVuSans-49"/>
    <use x="3135.828125" xlink:href="#DejaVuSans-56"/>
    <use x="3199.451172" xlink:href="#DejaVuSans-46"/>
   </g>
   <!-- Source code: http://github.com/realrolfje/coronadata -->
   <g style="fill:#808080;" transform="translate(7.2 213.84)scale(0.08 -0.08)">
    <defs>
     <path d="M 53.515625 70.515625 
L 53.515625 60.890625 
Q 47.90625 63.578125 42.921875 64.890625 
Q 37.9375 66.21875 33.296875 66.21875 
Q 25.25 66.21875 20.875 63.09375 
Q 16.5 59.96875 16.5 54.203125 
Q 16.5 49.359375 19.40625 46.890625 
Q 22.3125 44.4375 30.421875 42.921875 
L 36.375 41.703125 
Q 47.40625 39.59375 52.65625 34.296875 
Q 57.90625 29 57.90625 20.125 
Q 57.90625 9.515625 50.796875 4.046875 
Q 43.703125 -1.421875 29.984375 -1.421875 
Q 24.8125 -1.421875 18.96875 -0.25 
Q 13.140625 0.921875 6.890625 3.21875 
L 6.890625 13.375 
Q 12.890625 10.015625 18.65625 8.296875 
Q 24.421875 6.59375 29.984375 6.59375 
Q 38.421875 6.59375 43.015625 9.90625 
Q 47.609375 13.234375 47.609375 19.390625 
Q 47.609375 24.75 44.3125 27.78125 
Q 41.015625 30.8125 33.5 32.328125 
L 27.484375 33.5 
Q 16.453125 35.6875 11.515625 40.375 
Q 6.59375 45.0625 6.59375 53.421875 
Q 6.59375 63.09375 13.40625 68.65625 
Q 20.21875 74.21875 32.171875 74.21875 
Q 37.3125 74.21875 42.625 73.28125 
Q 47.953125 72.359375 53.515625 70.515625 
z
" id="DejaVuSans-83"/>
     <path d="M 54.890625 33.015625 
L 54.890625 0 
L 45.90625 0 
L 45.90625 32.71875 
Q 45.90625 40.484375 42.875 44.328125 
Q 39.84375 48.1875 33.796875 48.1875 
Q 26.515625 48.1875 22.3125 43.546875 
Q 18.109375 38.921875 18.109375 30.90625 
L 18.109375 0 
L 9.078125 0 
L 9.078125 75.984375 
L 18.109375 75.984375 
L 18.109375 46.1875 
Q 21.34375 51.125 25.703125 53.5625 
Q 30.078125 56 35.796875 56 
Q 45.21875 56 50.046875 50.171875 
Q 54.890625 44.34375 54.890625 33.015625 
z
" id="DejaVuSans-104"/>
     <path d="M 25.390625 72.90625 
L 33.6875 72.90625 
L 8.296875 -9.28125 
L 0 -9.28125 
z
" id="DejaVuSans-47"/>
     <path d="M 37.109375 75.984375 
L 37.109375 68.5 
L 28.515625 68.5 
Q 23.6875 68.5 21.796875 66.546875 
Q 19.921875 64.59375 19.921875 59.515625 
L 19.921875 54.6875 
L 34.71875 54.6875 
L 34.71875 47.703125 
L 19.921875 47.703125 
L 19.921875 0 
L 10.890625 0 
L 10.890625 47.703125 
L 2.296875 47.703125 
L 2.296875 54.6875 
L 10.890625 54.6875 
L 10.890625 58.5 
Q 10.890625 67.625 15.140625 71.796875 
Q 19.390625 75.984375 28.609375 75.984375 
z
" id="DejaVuSans-102"/>
     <path d="M 9.421875 54.6875 
L 18.40625 54.6875 
L 18.40625 -0.984375 
Q 18.40625 -11.421875 14.421875 -16.109375 
Q 10.453125 -20.796875 1.609375 -20.796875 
L -1.8125 -20.796875 
L -1.8125 -13.1875 
L 0.59375 -13.1875 
Q 5.71875 -13.1875 7.5625 -10.8125 
Q 9.421875 -8.453125 9.421875 -0.984375 
z
M 9.421875 75.984375 
L 18.40625 75.984375 
L 18.40625 64.59375 
L 9.421875 64.59375 
z
" id="DejaVuSans-106"/>
    </defs>
    <use xlink:href="#DejaVuSans-83"/>
    <use x="63.476562" xlink:href="#DejaVuSans-111"/>
    <use x="124.658203" xlink:href="#DejaVuSans-117"/>
    <use x="188.037109" xlink:href="#DejaVuSans-114"/>
    <use x="226.900391" xlink:href="#DejaVuSans-99"/>
    <use x="281.880859" xlink:href="#DejaVuSans-101"/>
    <use x="343.404297" xlink:href="#DejaVuSans-32"/>
    <use x="375.191406" xlink:href="#DejaVuSans-99"/>
    <use x="430.171875" xlink:href="#DejaVuSans-111"/>
    <use x="491.353516" xlink:href="#DejaVuSans-100"/>
    <use x="554.830078" xlink:href="#DejaVuSans-101"/>
    <use x="616.353516" xlink:href="#DejaVuSans-58"/>
    <use x="650.044922" xlink:href="#DejaVuSans-32"/>
    <use x="681.832031" xlink:href="#DejaVuSans-104"/>
    <use x="745.210938" xlink:href="#DejaVuSans-116"/>
    <use x="784.419922" xlink:href="#DejaVuSans-116"/>
    <use x="823.628906" xlink:href="#DejaVuSans-112"/>
    <use x="887.105469" xlink:href="#DejaVuSans-58"/>
    <use x="920.796875" xlink:href="#DejaVuSans-47"/>
    <use x="954.488281" xlink:href="#DejaVuSans-47"/>
    <use x="988.179688" xlink:href="#DejaVuSans-103"/>
    <use x="1051.65625" xlink:href="#DejaVuSans-105"/>
    <use x="1079.439453" xlink:href="#DejaVuSans-116"/>
    <use x="1118.648438" xlink:href="#DejaVuSans-104"/>
    <use x="1182.027344" xlink:href="#DejaVuSans-117"/>
    <use x="1245.40625" xlink:href="#DejaVuSans-98"/>
    <use x="1308.882812" xlink:href="#DejaVuSans-46"/>
    <use x="1340.669922" xlink:href="#DejaVuSans-99"/>
    <use x="1395.650391" xlink:href="#DejaVuSans-111"/>
    <use x="1456.832031" xlink:href="#DejaVuSans-109"/>
    <use x="1554.244141" xlink:href="#DejaVuSans-47"/>
    <use x="1587.935547" xlink:href="#DejaVuSans-114"/>
    <use x="1626.798828" xlink:href="#DejaVuSans-101"/>
    <use x="1688.322266" xlink:href="#DejaVuSans-97"/>
    <use x="1749.601562" xlink:href="#DejaVuSans-108"/>
    <use x="1777.384766" xlink:href="#DejaVuSans-114"/>
    <use x="1816.248047" xlink:href="#DejaVuSans-111"/>
    <use x="1877.429688" xlink:href="#DejaVuSans-108"/>
    <use x="1905.212891" xlink:href="#DejaVuSans-102"/>
    <use x="1940.417969" xlink:href="#DejaVuSans-106"/>
    <use x="1968.201172" xlink:href="#DejaVuSans-101"/>
    <use x="2029.724609" xlink:href="#DejaVuSans-47"/>
    <use x="2063.416016" xlink:href="#DejaVuSans-99"/>
    <use x="2118.396484" xlink:href="#DejaVuSans-111"/>
    <use x="2179.578125" xlink:href="#DejaVuSans-114"/>
    <use x="2218.441406" xlink:href="#DejaVuSans-111"/>
    <use x="2279.623047" xlink:href="#DejaVuSans-110"/>
    <use x="2343.001953" xlink:href="#DejaVuSans-97"/>
    <use x="2404.28125" xlink:href="#DejaVuSans-100"/>
    <use x="2467.757812" xlink:href="#DejaVuSans-97"/>
    <use x="2529.037109" xlink:href="#DejaVuSans-116"/>
    <use x="2568.246094" xlink:href="#DejaVuSans-97"/>
   </g>
  </g>
  <g id="text_24">
   <!-- Bron: https://data.rivm.nl/covid-19 -->
   <g style="fill:#808080;" transform="translate(574.79875 213.84)scale(0.08 -0.08)">
    <defs>
     <path d="M 19.671875 34.8125 
L 19.671875 8.109375 
L 35.5 8.109375 
Q 43.453125 8.109375 47.28125 11.40625 
Q 51.125 14.703125 51.125 21.484375 
Q 51.125 28.328125 47.28125 31.5625 
Q 43.453125 34.8125 35.5 34.8125 
z
M 19.671875 64.796875 
L 19.671875 42.828125 
L 34.28125 42.828125 
Q 41.5 42.828125 45.03125 45.53125 
Q 48.578125 48.25 48.578125 53.8125 
Q 48.578125 59.328125 45.03125 62.0625 
Q 41.5 64.796875 34.28125 64.796875 
z
M 9.8125 72.90625 
L 35.015625 72.90625 
Q 46.296875 72.90625 52.390625 68.21875 
Q 58.5 63.53125 58.5 54.890625 
Q 58.5 48.1875 55.375 44.234375 
Q 52.25 40.28125 46.1875 39.3125 
Q 53.46875 37.75 57.5 32.78125 
Q 61.53125 27.828125 61.53125 20.40625 
Q 61.53125 10.640625 54.890625 5.3125 
Q 48.25 0 35.984375 0 
L 9.8125 0 
z
" id="DejaVuSans-66"/>
     <path d="M 44.28125 53.078125 
L 44.28125 44.578125 
Q 40.484375 46.53125 36.375 47.5 
Q 32.28125 48.484375 27.875 48.484375 
Q 21.1875 48.484375 17.84375 46.4375 
Q 14.5 44.390625 14.5 40.28125 
Q 14.5 37.15625 16.890625 35.375 
Q 19.28125 33.59375 26.515625 31.984375 
L 29.59375 31.296875 
Q 39.15625 29.25 43.1875 25.515625 
Q 47.21875 21.78125 47.21875 15.09375 
Q 47.21875 7.46875 41.1875 3.015625 
Q 35.15625 -1.421875 24.609375 -1.421875 
Q 20.21875 -1.421875 15.453125 -0.5625 
Q 10.6875 0.296875 5.421875 2 
L 5.421875 11.28125 
Q 10.40625 8.6875 15.234375 7.390625 
Q 20.0625 6.109375 24.8125 6.109375 
Q 31.15625 6.109375 34.5625 8.28125 
Q 37.984375 10.453125 37.984375 14.40625 
Q 37.984375 18.0625 35.515625 20.015625 
Q 33.0625 21.96875 24.703125 23.78125 
L 21.578125 24.515625 
Q 13.234375 26.265625 9.515625 29.90625 
Q 5.8125 33.546875 5.8125 39.890625 
Q 5.8125 47.609375 11.28125 51.796875 
Q 16.75 56 26.8125 56 
Q 31.78125 56 36.171875 55.265625 
Q 40.578125 54.546875 44.28125 53.078125 
z
" id="DejaVuSans-115"/>
     <path d="M 2.984375 54.6875 
L 12.5 54.6875 
L 29.59375 8.796875 
L 46.6875 54.6875 
L 56.203125 54.6875 
L 35.6875 0 
L 23.484375 0 
z
" id="DejaVuSans-118"/>
    </defs>
    <use xlink:href="#DejaVuSans-66"/>
    <use x="68.603516" xlink:href="#DejaVuSans-114"/>
    <use x="107.466797" xlink:href="#DejaVuSans-111"/>
    <use x="168.648438" xlink:href="#DejaVuSans-110"/>
    <use x="232.027344" xlink:href="#DejaVuSans-58"/>
    <use x="265.71875" xlink:href="#DejaVuSans-32"/>
    <use x="297.505859" xlink:href="#DejaVuSans-104"/>
    <use x="360.884766" xlink:href="#DejaVuSans-116"/>
    <use x="400.09375" xlink:href="#DejaVuSans-116"/>
    <use x="439.302734" xlink:href="#DejaVuSans-112"/>
    <use x="502.779297" xlink:href="#DejaVuSans-115"/>
    <use x="554.878906" xlink:href="#DejaVuSans-58"/>
    <use x="588.570312" xlink:href="#DejaVuSans-47"/>
    <use x="622.261719" xlink:href="#DejaVuSans-47"/>
    <use x="655.953125" xlink:href="#DejaVuSans-100"/>
    <use x="719.429688" xlink:href="#DejaVuSans-97"/>
    <use x="780.708984" xlink:href="#DejaVuSans-116"/>
    <use x="819.917969" xlink:href="#DejaVuSans-97"/>
    <use x="881.197266" xlink:href="#DejaVuSans-46"/>
    <use x="912.984375" xlink:href="#DejaVuSans-114"/>
    <use x="954.097656" xlink:href="#DejaVuSans-105"/>
    <use x="981.880859" xlink:href="#DejaVuSans-118"/>
    <use x="1041.060547" xlink:href="#DejaVuSans-109"/>
    <use x="1138.472656" xlink:href="#DejaVuSans-46"/>
    <use x="1170.259766" xlink:href="#DejaVuSans-110"/>
    <use x="1233.638672" xlink:href="#DejaVuSans-108"/>
    <use x="1261.421875" xlink:href="#DejaVuSans-47"/>
    <use x="1295.113281" xlink:href="#DejaVuSans-99"/>
    <use x="1350.09375" xlink:href="#DejaVuSans-111"/>
    <use x="1411.275391" xlink:href="#DejaVuSans-118"/>
    <use x="1470.455078" xlink:href="#DejaVuSans-105"/>
    <use x="1498.238281" xlink:href="#DejaVuSans-100"/>
    <use x="1561.714844" xlink:href="#DejaVuSans-45"/>
    <use x="1597.798828" xlink:href="#DejaVuSans-49"/>
    <use x="1661.421875" xlink:href="#DejaVuSans-57"/>
   </g>
  </g>
  <g id="text_25">
   <g id="patch_9">
    <path d="M 637.2 176.62375 
L 647.38 176.62375 
L 647.38 168.88125 
L 637.2 168.88125 
z
" style="fill:#ffffff;opacity:0.9;stroke:#ffffff;stroke-linejoin:miter;"/>
   </g>
   <!-- 05 -->
   <g style="fill:#ff0000;" transform="translate(637.2 174.96)scale(0.08 -0.08)">
    <use xlink:href="#DejaVuSans-48"/>
    <use x="63.623047" xlink:href="#DejaVuSans-53"/>
   </g>
  </g>
 </g>
 <defs>
  <clipPath id="pf4e32baec1">
   <rect height="146.88" width="590.4" x="64.8" y="25.92"/>
  </clipPath>
 </defs>
</svg>
