<?xml version="1.0" encoding="utf-8" standalone="no"?>
<!DOCTYPE svg PUBLIC "-//W3C//DTD SVG 1.1//EN"
  "http://www.w3.org/Graphics/SVG/1.1/DTD/svg11.dtd">
<!-- Created with matplotlib (https://matplotlib.org/) -->
<svg height="216pt" version="1.1" viewBox="0 0 720 216" width="720pt" xmlns="http://www.w3.org/2000/svg" xmlns:xlink="http://www.w3.org/1999/xlink">
 <metadata>
  <rdf:RDF xmlns:cc="http://creativecommons.org/ns#" xmlns:dc="http://purl.org/dc/elements/1.1/" xmlns:rdf="http://www.w3.org/1999/02/22-rdf-syntax-ns#">
   <cc:Work>
    <dc:type rdf:resource="http://purl.org/dc/dcmitype/StillImage"/>
    <dc:date>2021-03-23T11:20:40.683015</dc:date>
    <dc:format>image/svg+xml</dc:format>
    <dc:creator>
     <cc:Agent>
      <dc:title>Matplotlib v3.3.2, https://matplotlib.org/</dc:title>
     </cc:Agent>
    </dc:creator>
   </cc:Work>
  </rdf:RDF>
 </metadata>
 <defs>
  <style type="text/css">*{stroke-linecap:butt;stroke-linejoin:round;}</style>
 </defs>
 <g id="figure_1">
  <g id="patch_1">
   <path d="M 0 216 
L 720 216 
L 720 0 
L 0 0 
z
" style="fill:#ffffff;"/>
  </g>
  <g id="axes_1">
   <g id="patch_2">
    <path d="M 64.8 172.8 
L 655.2 172.8 
L 655.2 25.92 
L 64.8 25.92 
z
" style="fill:#ffffff;"/>
   </g>
   <g id="PolyCollection_1">
    <path clip-path="url(#pcb114eaefd)" d="M 45.270229 123.84 
L 45.270229 123.84 
L 46.772519 123.84 
L 48.274809 123.84 
L 49.777099 123.84 
L 51.279389 123.84 
L 52.781679 123.84 
L 54.283969 123.84 
L 55.78626 123.84 
L 57.28855 123.84 
L 58.79084 123.84 
L 60.29313 123.84 
L 61.79542 123.84 
L 63.29771 123.84 
L 64.8 123.84 
L 66.30229 123.84 
L 67.80458 123.84 
L 69.30687 123.84 
L 70.80916 123.84 
L 72.31145 123.84 
L 73.81374 123.84 
L 75.316031 123.84 
L 76.818321 123.84 
L 78.320611 123.84 
L 79.822901 123.84 
L 81.325191 123.84 
L 82.827481 123.84 
L 84.329771 123.84 
L 85.832061 123.84 
L 86.583206 123.84 
L 85.832061 121.8816 
L 84.329771 116.0064 
L 82.827481 111.6 
L 81.325191 107.6832 
L 79.822901 102.7872 
L 78.320611 96.912 
L 76.818321 91.0368 
L 75.316031 84.672 
L 73.81374 79.776 
L 72.31145 80.2656 
L 70.80916 81.7344 
L 69.30687 82.7136 
L 67.80458 83.6928 
L 66.30229 85.1616 
L 64.8 83.2032 
L 63.29771 75.3696 
L 61.79542 69.984 
L 60.29313 71.9424 
L 58.79084 71.9424 
L 57.28855 67.536 
L 55.78626 65.088 
L 54.283969 66.0672 
L 52.781679 66.5568 
L 51.279389 73.4112 
L 49.777099 87.6096 
L 48.274809 94.9536 
L 46.772519 87.6096 
L 45.270229 78.3072 
z
" style="fill:#ff0000;fill-opacity:0.3;"/>
    <path clip-path="url(#pcb114eaefd)" d="M 178.974046 123.84 
L 180.476336 123.84 
L 181.978626 123.84 
L 183.480916 123.84 
L 184.482443 123.84 
L 183.480916 119.9232 
L 181.978626 117.4752 
L 180.476336 119.9232 
z
" style="fill:#ff0000;fill-opacity:0.3;"/>
    <path clip-path="url(#pcb114eaefd)" d="M 207.217099 123.84 
L 207.517557 123.84 
L 209.019847 123.84 
L 210.522137 123.84 
L 212.024427 123.84 
L 213.526718 123.84 
L 215.029008 123.84 
L 216.258154 123.84 
L 215.029008 115.0272 
L 213.526718 109.152 
L 212.024427 111.1104 
L 210.522137 116.9856 
L 209.019847 121.392 
L 207.517557 123.3504 
z
" style="fill:#ff0000;fill-opacity:0.3;"/>
    <path clip-path="url(#pcb114eaefd)" d="M 230.803053 123.84 
L 231.554198 123.84 
L 233.056489 123.84 
L 233.657405 123.84 
L 233.056489 122.8608 
L 231.554198 122.8608 
z
" style="fill:#ff0000;fill-opacity:0.3;"/>
    <path clip-path="url(#pcb114eaefd)" d="M 247.220938 123.84 
L 248.079389 123.84 
L 249.581679 123.84 
L 251.083969 123.84 
L 252.58626 123.84 
L 254.08855 123.84 
L 255.59084 123.84 
L 257.09313 123.84 
L 258.59542 123.84 
L 260.09771 123.84 
L 261.6 123.84 
L 263.10229 123.84 
L 264.60458 123.84 
L 266.10687 123.84 
L 267.60916 123.84 
L 269.11145 123.84 
L 270.61374 123.84 
L 272.116031 123.84 
L 273.618321 123.84 
L 275.120611 123.84 
L 276.622901 123.84 
L 278.125191 123.84 
L 279.627481 123.84 
L 281.129771 123.84 
L 282.632061 123.84 
L 284.134351 123.84 
L 285.636641 123.84 
L 287.138931 123.84 
L 288.641221 123.84 
L 290.143511 123.84 
L 291.645802 123.84 
L 293.148092 123.84 
L 294.650382 123.84 
L 296.152672 123.84 
L 297.654962 123.84 
L 299.157252 123.84 
L 297.654962 121.392 
L 296.152672 117.9648 
L 294.650382 114.048 
L 293.148092 112.0896 
L 291.645802 111.6 
L 290.143511 112.0896 
L 288.641221 112.0896 
L 287.138931 111.1104 
L 285.636641 107.6832 
L 284.134351 104.256 
L 282.632061 102.7872 
L 281.129771 104.256 
L 279.627481 107.6832 
L 278.125191 110.1312 
L 276.622901 110.6208 
L 275.120611 110.1312 
L 273.618321 109.6416 
L 272.116031 111.1104 
L 270.61374 113.5584 
L 269.11145 116.0064 
L 267.60916 116.496 
L 266.10687 113.0688 
L 264.60458 108.1728 
L 263.10229 104.256 
L 261.6 102.2976 
L 260.09771 101.808 
L 258.59542 102.7872 
L 257.09313 103.2768 
L 255.59084 102.7872 
L 254.08855 101.808 
L 252.58626 102.7872 
L 251.083969 107.6832 
L 249.581679 115.0272 
L 248.079389 121.8816 
z
" style="fill:#ff0000;fill-opacity:0.3;"/>
    <path clip-path="url(#pcb114eaefd)" d="M 318.687023 123.84 
L 320.189313 123.84 
L 321.691603 123.84 
L 323.193893 123.84 
L 324.696183 123.84 
L 326.198473 123.84 
L 327.700763 123.84 
L 329.203053 123.84 
L 330.705344 123.84 
L 332.207634 123.84 
L 333.709924 123.84 
L 335.212214 123.84 
L 336.714504 123.84 
L 338.216794 123.84 
L 339.719084 123.84 
L 341.221374 123.84 
L 342.723664 123.84 
L 344.225954 123.84 
L 345.728244 123.84 
L 347.230534 123.84 
L 348.732824 123.84 
L 350.235115 123.84 
L 351.737405 123.84 
L 353.239695 123.84 
L 354.741985 123.84 
L 356.244275 123.84 
L 357.746565 123.84 
L 359.248855 123.84 
L 360.751145 123.84 
L 362.253435 123.84 
L 363.755725 123.84 
L 365.258015 123.84 
L 366.760305 123.84 
L 368.262595 123.84 
L 369.764885 123.84 
L 371.267176 123.84 
L 372.769466 123.84 
L 374.271756 123.84 
L 375.774046 123.84 
L 377.276336 123.84 
L 378.778626 123.84 
L 380.280916 123.84 
L 381.783206 123.84 
L 383.285496 123.84 
L 384.787786 123.84 
L 386.290076 123.84 
L 387.792366 123.84 
L 389.294656 123.84 
L 390.796947 123.84 
L 392.299237 123.84 
L 393.801527 123.84 
L 395.303817 123.84 
L 396.806107 123.84 
L 398.308397 123.84 
L 399.810687 123.84 
L 401.312977 123.84 
L 402.815267 123.84 
L 404.317557 123.84 
L 405.819847 123.84 
L 407.322137 123.84 
L 408.824427 123.84 
L 410.326718 123.84 
L 411.829008 123.84 
L 412.955725 123.84 
L 411.829008 122.3712 
L 410.326718 120.4128 
L 408.824427 119.9232 
L 407.322137 119.9232 
L 405.819847 120.4128 
L 404.317557 120.4128 
L 402.815267 119.9232 
L 401.312977 118.4544 
L 399.810687 117.4752 
L 398.308397 117.4752 
L 396.806107 117.9648 
L 395.303817 118.4544 
L 393.801527 118.4544 
L 392.299237 117.9648 
L 390.796947 116.496 
L 389.294656 115.0272 
L 387.792366 114.048 
L 386.290076 113.5584 
L 384.787786 112.0896 
L 383.285496 111.1104 
L 381.783206 109.6416 
L 380.280916 107.6832 
L 378.778626 106.704 
L 377.276336 108.1728 
L 375.774046 110.6208 
L 374.271756 113.5584 
L 372.769466 116.0064 
L 371.267176 116.496 
L 369.764885 115.5168 
L 368.262595 114.048 
L 366.760305 114.048 
L 365.258015 115.0272 
L 363.755725 116.496 
L 362.253435 116.496 
L 360.751145 115.0272 
L 359.248855 112.0896 
L 357.746565 109.6416 
L 356.244275 109.6416 
L 354.741985 110.6208 
L 353.239695 112.0896 
L 351.737405 113.0688 
L 350.235115 112.5792 
L 348.732824 109.6416 
L 347.230534 107.6832 
L 345.728244 106.2144 
L 344.225954 106.2144 
L 342.723664 106.2144 
L 341.221374 106.704 
L 339.719084 105.7248 
L 338.216794 103.2768 
L 336.714504 102.2976 
L 335.212214 105.2352 
L 333.709924 109.6416 
L 332.207634 113.5584 
L 330.705344 116.0064 
L 329.203053 116.9856 
L 327.700763 116.496 
L 326.198473 116.9856 
L 324.696183 117.4752 
L 323.193893 118.944 
L 321.691603 120.4128 
L 320.189313 122.3712 
z
" style="fill:#ff0000;fill-opacity:0.3;"/>
    <path clip-path="url(#pcb114eaefd)" d="M 441.123664 123.84 
L 441.874809 123.84 
L 443.377099 123.84 
L 441.874809 123.3504 
z
" style="fill:#ff0000;fill-opacity:0.3;"/>
    <path clip-path="url(#pcb114eaefd)" d="M 462.155725 123.84 
L 462.90687 123.84 
L 464.40916 123.84 
L 465.91145 123.84 
L 467.41374 123.84 
L 468.916031 123.84 
L 470.418321 123.84 
L 471.920611 123.84 
L 473.422901 123.84 
L 474.925191 123.84 
L 476.427481 123.84 
L 477.929771 123.84 
L 479.432061 123.84 
L 480.934351 123.84 
L 482.436641 123.84 
L 483.938931 123.84 
L 485.441221 123.84 
L 486.943511 123.84 
L 488.445802 123.84 
L 489.948092 123.84 
L 491.450382 123.84 
L 492.952672 123.84 
L 494.454962 123.84 
L 495.957252 123.84 
L 497.459542 123.84 
L 495.957252 120.9024 
L 494.454962 117.9648 
L 492.952672 116.9856 
L 491.450382 116.9856 
L 489.948092 116.9856 
L 488.445802 116.9856 
L 486.943511 116.0064 
L 485.441221 114.048 
L 483.938931 112.0896 
L 482.436641 112.0896 
L 480.934351 112.5792 
L 479.432061 113.0688 
L 477.929771 113.5584 
L 476.427481 112.5792 
L 474.925191 111.6 
L 473.422901 111.1104 
L 471.920611 113.0688 
L 470.418321 116.0064 
L 468.916031 118.944 
L 467.41374 121.392 
L 465.91145 122.8608 
L 464.40916 122.8608 
L 462.90687 123.3504 
z
" style="fill:#ff0000;fill-opacity:0.3;"/>
    <path clip-path="url(#pcb114eaefd)" d="M 577.581679 123.84 
L 578.583206 123.84 
L 580.085496 123.84 
L 581.587786 123.84 
L 583.090076 123.84 
L 584.592366 123.84 
L 586.094656 123.84 
L 587.596947 123.84 
L 589.099237 123.84 
L 590.601527 123.84 
L 592.103817 123.84 
L 593.606107 123.84 
L 595.108397 123.84 
L 596.610687 123.84 
L 598.112977 123.84 
L 599.615267 123.84 
L 601.117557 123.84 
L 599.615267 122.3712 
L 598.112977 121.8816 
L 596.610687 121.8816 
L 595.108397 121.392 
L 593.606107 120.4128 
L 592.103817 118.4544 
L 590.601527 116.496 
L 589.099237 116.0064 
L 587.596947 116.9856 
L 586.094656 118.944 
L 584.592366 120.9024 
L 583.090076 122.3712 
L 581.587786 122.8608 
L 580.085496 122.3712 
L 578.583206 122.8608 
z
" style="fill:#ff0000;fill-opacity:0.3;"/>
    <path clip-path="url(#pcb114eaefd)" d="M 606.375573 123.84 
L 607.126718 123.84 
L 608.629008 123.84 
L 610.131298 123.84 
L 611.633588 123.84 
L 613.135878 123.84 
L 614.638168 123.84 
L 616.140458 123.84 
L 617.642748 123.84 
L 617.642748 123.84 
L 617.642748 117.4752 
L 616.140458 118.944 
L 614.638168 120.4128 
L 613.135878 121.392 
L 611.633588 121.392 
L 610.131298 121.392 
L 608.629008 121.8816 
L 607.126718 123.3504 
z
" style="fill:#ff0000;fill-opacity:0.3;"/>
   </g>
   <g id="PolyCollection_2">
    <path clip-path="url(#pcb114eaefd)" d="M 86.583206 123.84 
L 87.334351 123.84 
L 88.836641 123.84 
L 90.338931 123.84 
L 91.841221 123.84 
L 93.343511 123.84 
L 94.845802 123.84 
L 96.348092 123.84 
L 97.850382 123.84 
L 99.352672 123.84 
L 100.854962 123.84 
L 102.357252 123.84 
L 103.859542 123.84 
L 105.361832 123.84 
L 106.864122 123.84 
L 108.366412 123.84 
L 109.868702 123.84 
L 111.370992 123.84 
L 112.873282 123.84 
L 114.375573 123.84 
L 115.877863 123.84 
L 117.380153 123.84 
L 118.882443 123.84 
L 120.384733 123.84 
L 121.887023 123.84 
L 123.389313 123.84 
L 124.891603 123.84 
L 126.393893 123.84 
L 127.896183 123.84 
L 129.398473 123.84 
L 130.900763 123.84 
L 132.403053 123.84 
L 133.905344 123.84 
L 135.407634 123.84 
L 136.909924 123.84 
L 138.412214 123.84 
L 139.914504 123.84 
L 141.416794 123.84 
L 142.919084 123.84 
L 144.421374 123.84 
L 145.923664 123.84 
L 147.425954 123.84 
L 148.928244 123.84 
L 150.430534 123.84 
L 151.932824 123.84 
L 153.435115 123.84 
L 154.937405 123.84 
L 156.439695 123.84 
L 157.941985 123.84 
L 159.444275 123.84 
L 160.946565 123.84 
L 162.448855 123.84 
L 163.951145 123.84 
L 165.453435 123.84 
L 166.955725 123.84 
L 168.458015 123.84 
L 169.960305 123.84 
L 171.462595 123.84 
L 172.964885 123.84 
L 174.467176 123.84 
L 175.969466 123.84 
L 177.471756 123.84 
L 178.974046 123.84 
L 178.974046 123.84 
L 178.974046 123.84 
L 177.471756 128.2464 
L 175.969466 131.6736 
L 174.467176 133.632 
L 172.964885 134.6112 
L 171.462595 135.1008 
L 169.960305 134.6112 
L 168.458015 133.1424 
L 166.955725 132.6528 
L 165.453435 132.6528 
L 163.951145 132.1632 
L 162.448855 132.1632 
L 160.946565 133.632 
L 159.444275 135.5904 
L 157.941985 137.5488 
L 156.439695 139.0176 
L 154.937405 139.0176 
L 153.435115 138.0384 
L 151.932824 137.5488 
L 150.430534 137.0592 
L 148.928244 136.08 
L 147.425954 135.1008 
L 145.923664 135.1008 
L 144.421374 135.1008 
L 142.919084 136.5696 
L 141.416794 137.5488 
L 139.914504 138.528 
L 138.412214 137.5488 
L 136.909924 136.08 
L 135.407634 135.1008 
L 133.905344 135.1008 
L 132.403053 135.5904 
L 130.900763 136.5696 
L 129.398473 137.5488 
L 127.896183 138.528 
L 126.393893 139.0176 
L 124.891603 138.528 
L 123.389313 137.0592 
L 121.887023 134.6112 
L 120.384733 133.1424 
L 118.882443 134.1216 
L 117.380153 135.1008 
L 115.877863 136.08 
L 114.375573 137.5488 
L 112.873282 139.0176 
L 111.370992 139.0176 
L 109.868702 138.0384 
L 108.366412 136.08 
L 106.864122 135.5904 
L 105.361832 135.5904 
L 103.859542 136.5696 
L 102.357252 137.5488 
L 100.854962 138.0384 
L 99.352672 138.0384 
L 97.850382 137.5488 
L 96.348092 136.08 
L 94.845802 134.1216 
L 93.343511 133.1424 
L 91.841221 131.6736 
L 90.338931 129.7152 
L 88.836641 127.7568 
L 87.334351 125.7984 
z
" style="fill:#008000;fill-opacity:0.3;"/>
    <path clip-path="url(#pcb114eaefd)" d="M 184.482443 123.84 
L 184.983206 123.84 
L 186.485496 123.84 
L 187.987786 123.84 
L 189.490076 123.84 
L 190.992366 123.84 
L 192.494656 123.84 
L 193.996947 123.84 
L 195.499237 123.84 
L 197.001527 123.84 
L 198.503817 123.84 
L 200.006107 123.84 
L 201.508397 123.84 
L 203.010687 123.84 
L 204.512977 123.84 
L 206.015267 123.84 
L 207.217099 123.84 
L 206.015267 125.7984 
L 204.512977 132.6528 
L 203.010687 139.9968 
L 201.508397 144.4032 
L 200.006107 147.3408 
L 198.503817 149.2992 
L 197.001527 149.2992 
L 195.499237 145.3824 
L 193.996947 139.5072 
L 192.494656 137.0592 
L 190.992366 133.632 
L 189.490076 129.7152 
L 187.987786 129.7152 
L 186.485496 129.7152 
L 184.983206 125.7984 
z
" style="fill:#008000;fill-opacity:0.3;"/>
    <path clip-path="url(#pcb114eaefd)" d="M 216.258154 123.84 
L 216.531298 123.84 
L 218.033588 123.84 
L 219.535878 123.84 
L 221.038168 123.84 
L 222.540458 123.84 
L 224.042748 123.84 
L 225.545038 123.84 
L 227.047328 123.84 
L 228.549618 123.84 
L 230.051908 123.84 
L 230.803053 123.84 
L 230.051908 124.8192 
L 228.549618 127.7568 
L 227.047328 131.184 
L 225.545038 134.1216 
L 224.042748 136.08 
L 222.540458 137.0592 
L 221.038168 137.0592 
L 219.535878 136.08 
L 218.033588 133.632 
L 216.531298 125.7984 
z
" style="fill:#008000;fill-opacity:0.3;"/>
    <path clip-path="url(#pcb114eaefd)" d="M 233.657405 123.84 
L 234.558779 123.84 
L 236.061069 123.84 
L 237.563359 123.84 
L 239.065649 123.84 
L 240.567939 123.84 
L 242.070229 123.84 
L 243.572519 123.84 
L 245.074809 123.84 
L 246.577099 123.84 
L 247.220938 123.84 
L 246.577099 125.3088 
L 245.074809 126.7776 
L 243.572519 126.7776 
L 242.070229 126.288 
L 240.567939 126.7776 
L 239.065649 128.2464 
L 237.563359 129.2256 
L 236.061069 128.2464 
L 234.558779 125.3088 
z
" style="fill:#008000;fill-opacity:0.3;"/>
    <path clip-path="url(#pcb114eaefd)" d="M 299.157252 123.84 
L 299.157252 123.84 
L 300.659542 123.84 
L 302.161832 123.84 
L 303.664122 123.84 
L 305.166412 123.84 
L 306.668702 123.84 
L 308.170992 123.84 
L 309.673282 123.84 
L 311.175573 123.84 
L 312.677863 123.84 
L 314.180153 123.84 
L 315.682443 123.84 
L 317.184733 123.84 
L 318.687023 123.84 
L 318.687023 123.84 
L 318.687023 123.84 
L 317.184733 124.8192 
L 315.682443 125.7984 
L 314.180153 127.2672 
L 312.677863 128.2464 
L 311.175573 128.2464 
L 309.673282 127.7568 
L 308.170992 126.7776 
L 306.668702 125.7984 
L 305.166412 124.8192 
L 303.664122 125.3088 
L 302.161832 125.7984 
L 300.659542 125.3088 
L 299.157252 123.84 
z
" style="fill:#008000;fill-opacity:0.3;"/>
    <path clip-path="url(#pcb114eaefd)" d="M 412.955725 123.84 
L 413.331298 123.84 
L 414.833588 123.84 
L 416.335878 123.84 
L 417.838168 123.84 
L 419.340458 123.84 
L 420.842748 123.84 
L 422.345038 123.84 
L 423.847328 123.84 
L 425.349618 123.84 
L 426.851908 123.84 
L 428.354198 123.84 
L 429.856489 123.84 
L 431.358779 123.84 
L 432.861069 123.84 
L 434.363359 123.84 
L 435.865649 123.84 
L 437.367939 123.84 
L 438.870229 123.84 
L 440.372519 123.84 
L 441.123664 123.84 
L 440.372519 124.3296 
L 438.870229 125.7984 
L 437.367939 127.2672 
L 435.865649 129.2256 
L 434.363359 130.2048 
L 432.861069 130.6944 
L 431.358779 130.6944 
L 429.856489 130.6944 
L 428.354198 131.184 
L 426.851908 132.1632 
L 425.349618 132.1632 
L 423.847328 132.1632 
L 422.345038 131.184 
L 420.842748 130.2048 
L 419.340458 129.2256 
L 417.838168 128.2464 
L 416.335878 127.2672 
L 414.833588 126.288 
L 413.331298 124.3296 
z
" style="fill:#008000;fill-opacity:0.3;"/>
    <path clip-path="url(#pcb114eaefd)" d="M 443.377099 123.84 
L 443.377099 123.84 
L 444.879389 123.84 
L 446.381679 123.84 
L 447.883969 123.84 
L 449.38626 123.84 
L 450.88855 123.84 
L 452.39084 123.84 
L 453.89313 123.84 
L 455.39542 123.84 
L 456.89771 123.84 
L 458.4 123.84 
L 459.90229 123.84 
L 461.40458 123.84 
L 462.155725 123.84 
L 461.40458 124.3296 
L 459.90229 125.7984 
L 458.4 127.2672 
L 456.89771 127.7568 
L 455.39542 127.2672 
L 453.89313 125.7984 
L 452.39084 124.3296 
L 450.88855 123.84 
L 449.38626 123.84 
L 447.883969 124.3296 
L 446.381679 124.8192 
L 444.879389 124.3296 
L 443.377099 123.84 
z
" style="fill:#008000;fill-opacity:0.3;"/>
    <path clip-path="url(#pcb114eaefd)" d="M 497.459542 123.84 
L 497.459542 123.84 
L 498.961832 123.84 
L 500.464122 123.84 
L 501.966412 123.84 
L 503.468702 123.84 
L 504.970992 123.84 
L 506.473282 123.84 
L 507.975573 123.84 
L 509.477863 123.84 
L 510.980153 123.84 
L 512.482443 123.84 
L 513.984733 123.84 
L 515.487023 123.84 
L 516.989313 123.84 
L 518.491603 123.84 
L 519.993893 123.84 
L 521.496183 123.84 
L 522.998473 123.84 
L 524.500763 123.84 
L 526.003053 123.84 
L 527.505344 123.84 
L 529.007634 123.84 
L 530.509924 123.84 
L 532.012214 123.84 
L 533.514504 123.84 
L 535.016794 123.84 
L 536.519084 123.84 
L 538.021374 123.84 
L 539.523664 123.84 
L 541.025954 123.84 
L 542.528244 123.84 
L 544.030534 123.84 
L 545.532824 123.84 
L 547.035115 123.84 
L 548.537405 123.84 
L 550.039695 123.84 
L 551.541985 123.84 
L 553.044275 123.84 
L 554.546565 123.84 
L 556.048855 123.84 
L 557.551145 123.84 
L 559.053435 123.84 
L 560.555725 123.84 
L 562.058015 123.84 
L 563.560305 123.84 
L 565.062595 123.84 
L 566.564885 123.84 
L 568.067176 123.84 
L 569.569466 123.84 
L 571.071756 123.84 
L 572.574046 123.84 
L 574.076336 123.84 
L 575.578626 123.84 
L 577.080916 123.84 
L 577.581679 123.84 
L 577.080916 124.3296 
L 575.578626 125.7984 
L 574.076336 127.2672 
L 572.574046 127.2672 
L 571.071756 126.7776 
L 569.569466 125.3088 
L 568.067176 124.8192 
L 566.564885 125.3088 
L 565.062595 126.7776 
L 563.560305 127.7568 
L 562.058015 128.2464 
L 560.555725 128.2464 
L 559.053435 127.7568 
L 557.551145 128.2464 
L 556.048855 128.736 
L 554.546565 129.7152 
L 553.044275 130.2048 
L 551.541985 129.7152 
L 550.039695 128.736 
L 548.537405 126.7776 
L 547.035115 125.3088 
L 545.532824 125.7984 
L 544.030534 126.288 
L 542.528244 127.2672 
L 541.025954 127.7568 
L 539.523664 127.7568 
L 538.021374 126.7776 
L 536.519084 126.7776 
L 535.016794 127.7568 
L 533.514504 129.2256 
L 532.012214 131.184 
L 530.509924 131.6736 
L 529.007634 131.6736 
L 527.505344 129.7152 
L 526.003053 126.7776 
L 524.500763 125.3088 
L 522.998473 124.8192 
L 521.496183 126.288 
L 519.993893 127.7568 
L 518.491603 128.736 
L 516.989313 128.2464 
L 515.487023 126.7776 
L 513.984733 126.7776 
L 512.482443 128.2464 
L 510.980153 130.2048 
L 509.477863 131.184 
L 507.975573 131.6736 
L 506.473282 130.6944 
L 504.970992 129.7152 
L 503.468702 128.736 
L 501.966412 128.2464 
L 500.464122 127.2672 
L 498.961832 126.288 
L 497.459542 123.84 
z
" style="fill:#008000;fill-opacity:0.3;"/>
    <path clip-path="url(#pcb114eaefd)" d="M 601.117557 123.84 
L 601.117557 123.84 
L 602.619847 123.84 
L 604.122137 123.84 
L 605.624427 123.84 
L 606.375573 123.84 
L 605.624427 124.3296 
L 604.122137 125.3088 
L 602.619847 124.8192 
L 601.117557 123.84 
z
" style="fill:#008000;fill-opacity:0.3;"/>
   </g>
   <g id="matplotlib.axis_1">
    <g id="xtick_1">
     <g id="line2d_1">
      <path clip-path="url(#pcb114eaefd)" d="M 64.8 172.8 
L 64.8 25.92 
" style="fill:none;stroke:#808080;stroke-dasharray:6.4,1.6,1,1.6;stroke-dashoffset:0;stroke-opacity:0.3;"/>
     </g>
     <g id="line2d_2">
      <defs>
       <path d="M 0 0 
L 0 3.5 
" id="m7d484b7950" style="stroke:#000000;stroke-width:0.8;"/>
      </defs>
      <g>
       <use style="stroke:#000000;stroke-width:0.8;" x="64.8" xlink:href="#m7d484b7950" y="172.8"/>
      </g>
     </g>
     <g id="text_1">
      <!-- 2020-03 -->
      <g transform="translate(43.908594 187.398438)scale(0.1 -0.1)">
       <defs>
        <path d="M 19.1875 8.296875 
L 53.609375 8.296875 
L 53.609375 0 
L 7.328125 0 
L 7.328125 8.296875 
Q 12.9375 14.109375 22.625 23.890625 
Q 32.328125 33.6875 34.8125 36.53125 
Q 39.546875 41.84375 41.421875 45.53125 
Q 43.3125 49.21875 43.3125 52.78125 
Q 43.3125 58.59375 39.234375 62.25 
Q 35.15625 65.921875 28.609375 65.921875 
Q 23.96875 65.921875 18.8125 64.3125 
Q 13.671875 62.703125 7.8125 59.421875 
L 7.8125 69.390625 
Q 13.765625 71.78125 18.9375 73 
Q 24.125 74.21875 28.421875 74.21875 
Q 39.75 74.21875 46.484375 68.546875 
Q 53.21875 62.890625 53.21875 53.421875 
Q 53.21875 48.921875 51.53125 44.890625 
Q 49.859375 40.875 45.40625 35.40625 
Q 44.1875 33.984375 37.640625 27.21875 
Q 31.109375 20.453125 19.1875 8.296875 
z
" id="DejaVuSans-50"/>
        <path d="M 31.78125 66.40625 
Q 24.171875 66.40625 20.328125 58.90625 
Q 16.5 51.421875 16.5 36.375 
Q 16.5 21.390625 20.328125 13.890625 
Q 24.171875 6.390625 31.78125 6.390625 
Q 39.453125 6.390625 43.28125 13.890625 
Q 47.125 21.390625 47.125 36.375 
Q 47.125 51.421875 43.28125 58.90625 
Q 39.453125 66.40625 31.78125 66.40625 
z
M 31.78125 74.21875 
Q 44.046875 74.21875 50.515625 64.515625 
Q 56.984375 54.828125 56.984375 36.375 
Q 56.984375 17.96875 50.515625 8.265625 
Q 44.046875 -1.421875 31.78125 -1.421875 
Q 19.53125 -1.421875 13.0625 8.265625 
Q 6.59375 17.96875 6.59375 36.375 
Q 6.59375 54.828125 13.0625 64.515625 
Q 19.53125 74.21875 31.78125 74.21875 
z
" id="DejaVuSans-48"/>
        <path d="M 4.890625 31.390625 
L 31.203125 31.390625 
L 31.203125 23.390625 
L 4.890625 23.390625 
z
" id="DejaVuSans-45"/>
        <path d="M 40.578125 39.3125 
Q 47.65625 37.796875 51.625 33 
Q 55.609375 28.21875 55.609375 21.1875 
Q 55.609375 10.40625 48.1875 4.484375 
Q 40.765625 -1.421875 27.09375 -1.421875 
Q 22.515625 -1.421875 17.65625 -0.515625 
Q 12.796875 0.390625 7.625 2.203125 
L 7.625 11.71875 
Q 11.71875 9.328125 16.59375 8.109375 
Q 21.484375 6.890625 26.8125 6.890625 
Q 36.078125 6.890625 40.9375 10.546875 
Q 45.796875 14.203125 45.796875 21.1875 
Q 45.796875 27.640625 41.28125 31.265625 
Q 36.765625 34.90625 28.71875 34.90625 
L 20.21875 34.90625 
L 20.21875 43.015625 
L 29.109375 43.015625 
Q 36.375 43.015625 40.234375 45.921875 
Q 44.09375 48.828125 44.09375 54.296875 
Q 44.09375 59.90625 40.109375 62.90625 
Q 36.140625 65.921875 28.71875 65.921875 
Q 24.65625 65.921875 20.015625 65.03125 
Q 15.375 64.15625 9.8125 62.3125 
L 9.8125 71.09375 
Q 15.4375 72.65625 20.34375 73.4375 
Q 25.25 74.21875 29.59375 74.21875 
Q 40.828125 74.21875 47.359375 69.109375 
Q 53.90625 64.015625 53.90625 55.328125 
Q 53.90625 49.265625 50.4375 45.09375 
Q 46.96875 40.921875 40.578125 39.3125 
z
" id="DejaVuSans-51"/>
       </defs>
       <use xlink:href="#DejaVuSans-50"/>
       <use x="63.623047" xlink:href="#DejaVuSans-48"/>
       <use x="127.246094" xlink:href="#DejaVuSans-50"/>
       <use x="190.869141" xlink:href="#DejaVuSans-48"/>
       <use x="254.492188" xlink:href="#DejaVuSans-45"/>
       <use x="290.576172" xlink:href="#DejaVuSans-48"/>
       <use x="354.199219" xlink:href="#DejaVuSans-51"/>
      </g>
     </g>
    </g>
    <g id="xtick_2">
     <g id="line2d_3">
      <path clip-path="url(#pcb114eaefd)" d="M 156.439695 172.8 
L 156.439695 25.92 
" style="fill:none;stroke:#808080;stroke-dasharray:6.4,1.6,1,1.6;stroke-dashoffset:0;stroke-opacity:0.3;"/>
     </g>
     <g id="line2d_4">
      <g>
       <use style="stroke:#000000;stroke-width:0.8;" x="156.439695" xlink:href="#m7d484b7950" y="172.8"/>
      </g>
     </g>
     <g id="text_2">
      <!-- 2020-05 -->
      <g transform="translate(135.548288 187.398438)scale(0.1 -0.1)">
       <defs>
        <path d="M 10.796875 72.90625 
L 49.515625 72.90625 
L 49.515625 64.59375 
L 19.828125 64.59375 
L 19.828125 46.734375 
Q 21.96875 47.46875 24.109375 47.828125 
Q 26.265625 48.1875 28.421875 48.1875 
Q 40.625 48.1875 47.75 41.5 
Q 54.890625 34.8125 54.890625 23.390625 
Q 54.890625 11.625 47.5625 5.09375 
Q 40.234375 -1.421875 26.90625 -1.421875 
Q 22.3125 -1.421875 17.546875 -0.640625 
Q 12.796875 0.140625 7.71875 1.703125 
L 7.71875 11.625 
Q 12.109375 9.234375 16.796875 8.0625 
Q 21.484375 6.890625 26.703125 6.890625 
Q 35.15625 6.890625 40.078125 11.328125 
Q 45.015625 15.765625 45.015625 23.390625 
Q 45.015625 31 40.078125 35.4375 
Q 35.15625 39.890625 26.703125 39.890625 
Q 22.75 39.890625 18.8125 39.015625 
Q 14.890625 38.140625 10.796875 36.28125 
z
" id="DejaVuSans-53"/>
       </defs>
       <use xlink:href="#DejaVuSans-50"/>
       <use x="63.623047" xlink:href="#DejaVuSans-48"/>
       <use x="127.246094" xlink:href="#DejaVuSans-50"/>
       <use x="190.869141" xlink:href="#DejaVuSans-48"/>
       <use x="254.492188" xlink:href="#DejaVuSans-45"/>
       <use x="290.576172" xlink:href="#DejaVuSans-48"/>
       <use x="354.199219" xlink:href="#DejaVuSans-53"/>
      </g>
     </g>
    </g>
    <g id="xtick_3">
     <g id="line2d_5">
      <path clip-path="url(#pcb114eaefd)" d="M 248.079389 172.8 
L 248.079389 25.92 
" style="fill:none;stroke:#808080;stroke-dasharray:6.4,1.6,1,1.6;stroke-dashoffset:0;stroke-opacity:0.3;"/>
     </g>
     <g id="line2d_6">
      <g>
       <use style="stroke:#000000;stroke-width:0.8;" x="248.079389" xlink:href="#m7d484b7950" y="172.8"/>
      </g>
     </g>
     <g id="text_3">
      <!-- 2020-07 -->
      <g transform="translate(227.187983 187.398438)scale(0.1 -0.1)">
       <defs>
        <path d="M 8.203125 72.90625 
L 55.078125 72.90625 
L 55.078125 68.703125 
L 28.609375 0 
L 18.3125 0 
L 43.21875 64.59375 
L 8.203125 64.59375 
z
" id="DejaVuSans-55"/>
       </defs>
       <use xlink:href="#DejaVuSans-50"/>
       <use x="63.623047" xlink:href="#DejaVuSans-48"/>
       <use x="127.246094" xlink:href="#DejaVuSans-50"/>
       <use x="190.869141" xlink:href="#DejaVuSans-48"/>
       <use x="254.492188" xlink:href="#DejaVuSans-45"/>
       <use x="290.576172" xlink:href="#DejaVuSans-48"/>
       <use x="354.199219" xlink:href="#DejaVuSans-55"/>
      </g>
     </g>
    </g>
    <g id="xtick_4">
     <g id="line2d_7">
      <path clip-path="url(#pcb114eaefd)" d="M 341.221374 172.8 
L 341.221374 25.92 
" style="fill:none;stroke:#808080;stroke-dasharray:6.4,1.6,1,1.6;stroke-dashoffset:0;stroke-opacity:0.3;"/>
     </g>
     <g id="line2d_8">
      <g>
       <use style="stroke:#000000;stroke-width:0.8;" x="341.221374" xlink:href="#m7d484b7950" y="172.8"/>
      </g>
     </g>
     <g id="text_4">
      <!-- 2020-09 -->
      <g transform="translate(320.329968 187.398438)scale(0.1 -0.1)">
       <defs>
        <path d="M 10.984375 1.515625 
L 10.984375 10.5 
Q 14.703125 8.734375 18.5 7.8125 
Q 22.3125 6.890625 25.984375 6.890625 
Q 35.75 6.890625 40.890625 13.453125 
Q 46.046875 20.015625 46.78125 33.40625 
Q 43.953125 29.203125 39.59375 26.953125 
Q 35.25 24.703125 29.984375 24.703125 
Q 19.046875 24.703125 12.671875 31.3125 
Q 6.296875 37.9375 6.296875 49.421875 
Q 6.296875 60.640625 12.9375 67.421875 
Q 19.578125 74.21875 30.609375 74.21875 
Q 43.265625 74.21875 49.921875 64.515625 
Q 56.59375 54.828125 56.59375 36.375 
Q 56.59375 19.140625 48.40625 8.859375 
Q 40.234375 -1.421875 26.421875 -1.421875 
Q 22.703125 -1.421875 18.890625 -0.6875 
Q 15.09375 0.046875 10.984375 1.515625 
z
M 30.609375 32.421875 
Q 37.25 32.421875 41.125 36.953125 
Q 45.015625 41.5 45.015625 49.421875 
Q 45.015625 57.28125 41.125 61.84375 
Q 37.25 66.40625 30.609375 66.40625 
Q 23.96875 66.40625 20.09375 61.84375 
Q 16.21875 57.28125 16.21875 49.421875 
Q 16.21875 41.5 20.09375 36.953125 
Q 23.96875 32.421875 30.609375 32.421875 
z
" id="DejaVuSans-57"/>
       </defs>
       <use xlink:href="#DejaVuSans-50"/>
       <use x="63.623047" xlink:href="#DejaVuSans-48"/>
       <use x="127.246094" xlink:href="#DejaVuSans-50"/>
       <use x="190.869141" xlink:href="#DejaVuSans-48"/>
       <use x="254.492188" xlink:href="#DejaVuSans-45"/>
       <use x="290.576172" xlink:href="#DejaVuSans-48"/>
       <use x="354.199219" xlink:href="#DejaVuSans-57"/>
      </g>
     </g>
    </g>
    <g id="xtick_5">
     <g id="line2d_9">
      <path clip-path="url(#pcb114eaefd)" d="M 432.861069 172.8 
L 432.861069 25.92 
" style="fill:none;stroke:#808080;stroke-dasharray:6.4,1.6,1,1.6;stroke-dashoffset:0;stroke-opacity:0.3;"/>
     </g>
     <g id="line2d_10">
      <g>
       <use style="stroke:#000000;stroke-width:0.8;" x="432.861069" xlink:href="#m7d484b7950" y="172.8"/>
      </g>
     </g>
     <g id="text_5">
      <!-- 2020-11 -->
      <g transform="translate(411.969662 187.398438)scale(0.1 -0.1)">
       <defs>
        <path d="M 12.40625 8.296875 
L 28.515625 8.296875 
L 28.515625 63.921875 
L 10.984375 60.40625 
L 10.984375 69.390625 
L 28.421875 72.90625 
L 38.28125 72.90625 
L 38.28125 8.296875 
L 54.390625 8.296875 
L 54.390625 0 
L 12.40625 0 
z
" id="DejaVuSans-49"/>
       </defs>
       <use xlink:href="#DejaVuSans-50"/>
       <use x="63.623047" xlink:href="#DejaVuSans-48"/>
       <use x="127.246094" xlink:href="#DejaVuSans-50"/>
       <use x="190.869141" xlink:href="#DejaVuSans-48"/>
       <use x="254.492188" xlink:href="#DejaVuSans-45"/>
       <use x="290.576172" xlink:href="#DejaVuSans-49"/>
       <use x="354.199219" xlink:href="#DejaVuSans-49"/>
      </g>
     </g>
    </g>
    <g id="xtick_6">
     <g id="line2d_11">
      <path clip-path="url(#pcb114eaefd)" d="M 524.500763 172.8 
L 524.500763 25.92 
" style="fill:none;stroke:#808080;stroke-dasharray:6.4,1.6,1,1.6;stroke-dashoffset:0;stroke-opacity:0.3;"/>
     </g>
     <g id="line2d_12">
      <g>
       <use style="stroke:#000000;stroke-width:0.8;" x="524.500763" xlink:href="#m7d484b7950" y="172.8"/>
      </g>
     </g>
     <g id="text_6">
      <!-- 2021-01 -->
      <g transform="translate(503.609357 187.398438)scale(0.1 -0.1)">
       <use xlink:href="#DejaVuSans-50"/>
       <use x="63.623047" xlink:href="#DejaVuSans-48"/>
       <use x="127.246094" xlink:href="#DejaVuSans-50"/>
       <use x="190.869141" xlink:href="#DejaVuSans-49"/>
       <use x="254.492188" xlink:href="#DejaVuSans-45"/>
       <use x="290.576172" xlink:href="#DejaVuSans-48"/>
       <use x="354.199219" xlink:href="#DejaVuSans-49"/>
      </g>
     </g>
    </g>
    <g id="xtick_7">
     <g id="line2d_13">
      <path clip-path="url(#pcb114eaefd)" d="M 613.135878 172.8 
L 613.135878 25.92 
" style="fill:none;stroke:#808080;stroke-dasharray:6.4,1.6,1,1.6;stroke-dashoffset:0;stroke-opacity:0.3;"/>
     </g>
     <g id="line2d_14">
      <g>
       <use style="stroke:#000000;stroke-width:0.8;" x="613.135878" xlink:href="#m7d484b7950" y="172.8"/>
      </g>
     </g>
     <g id="text_7">
      <!-- 2021-03 -->
      <g transform="translate(592.244472 187.398438)scale(0.1 -0.1)">
       <use xlink:href="#DejaVuSans-50"/>
       <use x="63.623047" xlink:href="#DejaVuSans-48"/>
       <use x="127.246094" xlink:href="#DejaVuSans-50"/>
       <use x="190.869141" xlink:href="#DejaVuSans-49"/>
       <use x="254.492188" xlink:href="#DejaVuSans-45"/>
       <use x="290.576172" xlink:href="#DejaVuSans-48"/>
       <use x="354.199219" xlink:href="#DejaVuSans-51"/>
      </g>
     </g>
    </g>
    <g id="text_8">
     <!-- Datum -->
     <g transform="translate(343.086719 201.076562)scale(0.1 -0.1)">
      <defs>
       <path d="M 19.671875 64.796875 
L 19.671875 8.109375 
L 31.59375 8.109375 
Q 46.6875 8.109375 53.6875 14.9375 
Q 60.6875 21.78125 60.6875 36.53125 
Q 60.6875 51.171875 53.6875 57.984375 
Q 46.6875 64.796875 31.59375 64.796875 
z
M 9.8125 72.90625 
L 30.078125 72.90625 
Q 51.265625 72.90625 61.171875 64.09375 
Q 71.09375 55.28125 71.09375 36.53125 
Q 71.09375 17.671875 61.125 8.828125 
Q 51.171875 0 30.078125 0 
L 9.8125 0 
z
" id="DejaVuSans-68"/>
       <path d="M 34.28125 27.484375 
Q 23.390625 27.484375 19.1875 25 
Q 14.984375 22.515625 14.984375 16.5 
Q 14.984375 11.71875 18.140625 8.90625 
Q 21.296875 6.109375 26.703125 6.109375 
Q 34.1875 6.109375 38.703125 11.40625 
Q 43.21875 16.703125 43.21875 25.484375 
L 43.21875 27.484375 
z
M 52.203125 31.203125 
L 52.203125 0 
L 43.21875 0 
L 43.21875 8.296875 
Q 40.140625 3.328125 35.546875 0.953125 
Q 30.953125 -1.421875 24.3125 -1.421875 
Q 15.921875 -1.421875 10.953125 3.296875 
Q 6 8.015625 6 15.921875 
Q 6 25.140625 12.171875 29.828125 
Q 18.359375 34.515625 30.609375 34.515625 
L 43.21875 34.515625 
L 43.21875 35.40625 
Q 43.21875 41.609375 39.140625 45 
Q 35.0625 48.390625 27.6875 48.390625 
Q 23 48.390625 18.546875 47.265625 
Q 14.109375 46.140625 10.015625 43.890625 
L 10.015625 52.203125 
Q 14.9375 54.109375 19.578125 55.046875 
Q 24.21875 56 28.609375 56 
Q 40.484375 56 46.34375 49.84375 
Q 52.203125 43.703125 52.203125 31.203125 
z
" id="DejaVuSans-97"/>
       <path d="M 18.3125 70.21875 
L 18.3125 54.6875 
L 36.8125 54.6875 
L 36.8125 47.703125 
L 18.3125 47.703125 
L 18.3125 18.015625 
Q 18.3125 11.328125 20.140625 9.421875 
Q 21.96875 7.515625 27.59375 7.515625 
L 36.8125 7.515625 
L 36.8125 0 
L 27.59375 0 
Q 17.1875 0 13.234375 3.875 
Q 9.28125 7.765625 9.28125 18.015625 
L 9.28125 47.703125 
L 2.6875 47.703125 
L 2.6875 54.6875 
L 9.28125 54.6875 
L 9.28125 70.21875 
z
" id="DejaVuSans-116"/>
       <path d="M 8.5 21.578125 
L 8.5 54.6875 
L 17.484375 54.6875 
L 17.484375 21.921875 
Q 17.484375 14.15625 20.5 10.265625 
Q 23.53125 6.390625 29.59375 6.390625 
Q 36.859375 6.390625 41.078125 11.03125 
Q 45.3125 15.671875 45.3125 23.6875 
L 45.3125 54.6875 
L 54.296875 54.6875 
L 54.296875 0 
L 45.3125 0 
L 45.3125 8.40625 
Q 42.046875 3.421875 37.71875 1 
Q 33.40625 -1.421875 27.6875 -1.421875 
Q 18.265625 -1.421875 13.375 4.4375 
Q 8.5 10.296875 8.5 21.578125 
z
M 31.109375 56 
z
" id="DejaVuSans-117"/>
       <path d="M 52 44.1875 
Q 55.375 50.25 60.0625 53.125 
Q 64.75 56 71.09375 56 
Q 79.640625 56 84.28125 50.015625 
Q 88.921875 44.046875 88.921875 33.015625 
L 88.921875 0 
L 79.890625 0 
L 79.890625 32.71875 
Q 79.890625 40.578125 77.09375 44.375 
Q 74.3125 48.1875 68.609375 48.1875 
Q 61.625 48.1875 57.5625 43.546875 
Q 53.515625 38.921875 53.515625 30.90625 
L 53.515625 0 
L 44.484375 0 
L 44.484375 32.71875 
Q 44.484375 40.625 41.703125 44.40625 
Q 38.921875 48.1875 33.109375 48.1875 
Q 26.21875 48.1875 22.15625 43.53125 
Q 18.109375 38.875 18.109375 30.90625 
L 18.109375 0 
L 9.078125 0 
L 9.078125 54.6875 
L 18.109375 54.6875 
L 18.109375 46.1875 
Q 21.1875 51.21875 25.484375 53.609375 
Q 29.78125 56 35.6875 56 
Q 41.65625 56 45.828125 52.96875 
Q 50 49.953125 52 44.1875 
z
" id="DejaVuSans-109"/>
      </defs>
      <use xlink:href="#DejaVuSans-68"/>
      <use x="77.001953" xlink:href="#DejaVuSans-97"/>
      <use x="138.28125" xlink:href="#DejaVuSans-116"/>
      <use x="177.490234" xlink:href="#DejaVuSans-117"/>
      <use x="240.869141" xlink:href="#DejaVuSans-109"/>
     </g>
    </g>
   </g>
   <g id="matplotlib.axis_2">
    <g id="ytick_1">
     <g id="line2d_15">
      <path clip-path="url(#pcb114eaefd)" d="M 64.8 172.8 
L 655.2 172.8 
" style="fill:none;stroke:#808080;stroke-dasharray:6.4,1.6,1,1.6;stroke-dashoffset:0;stroke-opacity:0.3;"/>
     </g>
     <g id="line2d_16">
      <defs>
       <path d="M 0 0 
L -3.5 0 
" id="m93706590e6" style="stroke:#000000;stroke-width:0.8;"/>
      </defs>
      <g>
       <use style="stroke:#000000;stroke-width:0.8;" x="64.8" xlink:href="#m93706590e6" y="172.8"/>
      </g>
     </g>
     <g id="text_9">
      <!-- 0.0 -->
      <g transform="translate(41.896875 176.599219)scale(0.1 -0.1)">
       <defs>
        <path d="M 10.6875 12.40625 
L 21 12.40625 
L 21 0 
L 10.6875 0 
z
" id="DejaVuSans-46"/>
       </defs>
       <use xlink:href="#DejaVuSans-48"/>
       <use x="63.623047" xlink:href="#DejaVuSans-46"/>
       <use x="95.410156" xlink:href="#DejaVuSans-48"/>
      </g>
     </g>
    </g>
    <g id="ytick_2">
     <g id="line2d_17">
      <path clip-path="url(#pcb114eaefd)" d="M 64.8 148.32 
L 655.2 148.32 
" style="fill:none;stroke:#808080;stroke-dasharray:6.4,1.6,1,1.6;stroke-dashoffset:0;stroke-opacity:0.3;"/>
     </g>
     <g id="line2d_18">
      <g>
       <use style="stroke:#000000;stroke-width:0.8;" x="64.8" xlink:href="#m93706590e6" y="148.32"/>
      </g>
     </g>
     <g id="text_10">
      <!-- 0.5 -->
      <g transform="translate(41.896875 152.119219)scale(0.1 -0.1)">
       <use xlink:href="#DejaVuSans-48"/>
       <use x="63.623047" xlink:href="#DejaVuSans-46"/>
       <use x="95.410156" xlink:href="#DejaVuSans-53"/>
      </g>
     </g>
    </g>
    <g id="ytick_3">
     <g id="line2d_19">
      <path clip-path="url(#pcb114eaefd)" d="M 64.8 123.84 
L 655.2 123.84 
" style="fill:none;stroke:#808080;stroke-dasharray:6.4,1.6,1,1.6;stroke-dashoffset:0;stroke-opacity:0.3;"/>
     </g>
     <g id="line2d_20">
      <g>
       <use style="stroke:#000000;stroke-width:0.8;" x="64.8" xlink:href="#m93706590e6" y="123.84"/>
      </g>
     </g>
     <g id="text_11">
      <!-- 1.0 -->
      <g transform="translate(41.896875 127.639219)scale(0.1 -0.1)">
       <use xlink:href="#DejaVuSans-49"/>
       <use x="63.623047" xlink:href="#DejaVuSans-46"/>
       <use x="95.410156" xlink:href="#DejaVuSans-48"/>
      </g>
     </g>
    </g>
    <g id="ytick_4">
     <g id="line2d_21">
      <path clip-path="url(#pcb114eaefd)" d="M 64.8 99.36 
L 655.2 99.36 
" style="fill:none;stroke:#808080;stroke-dasharray:6.4,1.6,1,1.6;stroke-dashoffset:0;stroke-opacity:0.3;"/>
     </g>
     <g id="line2d_22">
      <g>
       <use style="stroke:#000000;stroke-width:0.8;" x="64.8" xlink:href="#m93706590e6" y="99.36"/>
      </g>
     </g>
     <g id="text_12">
      <!-- 1.5 -->
      <g transform="translate(41.896875 103.159219)scale(0.1 -0.1)">
       <use xlink:href="#DejaVuSans-49"/>
       <use x="63.623047" xlink:href="#DejaVuSans-46"/>
       <use x="95.410156" xlink:href="#DejaVuSans-53"/>
      </g>
     </g>
    </g>
    <g id="ytick_5">
     <g id="line2d_23">
      <path clip-path="url(#pcb114eaefd)" d="M 64.8 74.88 
L 655.2 74.88 
" style="fill:none;stroke:#808080;stroke-dasharray:6.4,1.6,1,1.6;stroke-dashoffset:0;stroke-opacity:0.3;"/>
     </g>
     <g id="line2d_24">
      <g>
       <use style="stroke:#000000;stroke-width:0.8;" x="64.8" xlink:href="#m93706590e6" y="74.88"/>
      </g>
     </g>
     <g id="text_13">
      <!-- 2.0 -->
      <g transform="translate(41.896875 78.679219)scale(0.1 -0.1)">
       <use xlink:href="#DejaVuSans-50"/>
       <use x="63.623047" xlink:href="#DejaVuSans-46"/>
       <use x="95.410156" xlink:href="#DejaVuSans-48"/>
      </g>
     </g>
    </g>
    <g id="ytick_6">
     <g id="line2d_25">
      <path clip-path="url(#pcb114eaefd)" d="M 64.8 50.4 
L 655.2 50.4 
" style="fill:none;stroke:#808080;stroke-dasharray:6.4,1.6,1,1.6;stroke-dashoffset:0;stroke-opacity:0.3;"/>
     </g>
     <g id="line2d_26">
      <g>
       <use style="stroke:#000000;stroke-width:0.8;" x="64.8" xlink:href="#m93706590e6" y="50.4"/>
      </g>
     </g>
     <g id="text_14">
      <!-- 2.5 -->
      <g transform="translate(41.896875 54.199219)scale(0.1 -0.1)">
       <use xlink:href="#DejaVuSans-50"/>
       <use x="63.623047" xlink:href="#DejaVuSans-46"/>
       <use x="95.410156" xlink:href="#DejaVuSans-53"/>
      </g>
     </g>
    </g>
    <g id="ytick_7">
     <g id="line2d_27">
      <path clip-path="url(#pcb114eaefd)" d="M 64.8 25.92 
L 655.2 25.92 
" style="fill:none;stroke:#808080;stroke-dasharray:6.4,1.6,1,1.6;stroke-dashoffset:0;stroke-opacity:0.3;"/>
     </g>
     <g id="line2d_28">
      <g>
       <use style="stroke:#000000;stroke-width:0.8;" x="64.8" xlink:href="#m93706590e6" y="25.92"/>
      </g>
     </g>
     <g id="text_15">
      <!-- 3.0 -->
      <g transform="translate(41.896875 29.719219)scale(0.1 -0.1)">
       <use xlink:href="#DejaVuSans-51"/>
       <use x="63.623047" xlink:href="#DejaVuSans-46"/>
       <use x="95.410156" xlink:href="#DejaVuSans-48"/>
      </g>
     </g>
    </g>
    <g id="text_16">
     <!-- Reproductiegetal -->
     <g transform="translate(35.817187 142.044375)rotate(-90)scale(0.1 -0.1)">
      <defs>
       <path d="M 44.390625 34.1875 
Q 47.5625 33.109375 50.5625 29.59375 
Q 53.5625 26.078125 56.59375 19.921875 
L 66.609375 0 
L 56 0 
L 46.6875 18.703125 
Q 43.0625 26.03125 39.671875 28.421875 
Q 36.28125 30.8125 30.421875 30.8125 
L 19.671875 30.8125 
L 19.671875 0 
L 9.8125 0 
L 9.8125 72.90625 
L 32.078125 72.90625 
Q 44.578125 72.90625 50.734375 67.671875 
Q 56.890625 62.453125 56.890625 51.90625 
Q 56.890625 45.015625 53.6875 40.46875 
Q 50.484375 35.9375 44.390625 34.1875 
z
M 19.671875 64.796875 
L 19.671875 38.921875 
L 32.078125 38.921875 
Q 39.203125 38.921875 42.84375 42.21875 
Q 46.484375 45.515625 46.484375 51.90625 
Q 46.484375 58.296875 42.84375 61.546875 
Q 39.203125 64.796875 32.078125 64.796875 
z
" id="DejaVuSans-82"/>
       <path d="M 56.203125 29.59375 
L 56.203125 25.203125 
L 14.890625 25.203125 
Q 15.484375 15.921875 20.484375 11.0625 
Q 25.484375 6.203125 34.421875 6.203125 
Q 39.59375 6.203125 44.453125 7.46875 
Q 49.3125 8.734375 54.109375 11.28125 
L 54.109375 2.78125 
Q 49.265625 0.734375 44.1875 -0.34375 
Q 39.109375 -1.421875 33.890625 -1.421875 
Q 20.796875 -1.421875 13.15625 6.1875 
Q 5.515625 13.8125 5.515625 26.8125 
Q 5.515625 40.234375 12.765625 48.109375 
Q 20.015625 56 32.328125 56 
Q 43.359375 56 49.78125 48.890625 
Q 56.203125 41.796875 56.203125 29.59375 
z
M 47.21875 32.234375 
Q 47.125 39.59375 43.09375 43.984375 
Q 39.0625 48.390625 32.421875 48.390625 
Q 24.90625 48.390625 20.390625 44.140625 
Q 15.875 39.890625 15.1875 32.171875 
z
" id="DejaVuSans-101"/>
       <path d="M 18.109375 8.203125 
L 18.109375 -20.796875 
L 9.078125 -20.796875 
L 9.078125 54.6875 
L 18.109375 54.6875 
L 18.109375 46.390625 
Q 20.953125 51.265625 25.265625 53.625 
Q 29.59375 56 35.59375 56 
Q 45.5625 56 51.78125 48.09375 
Q 58.015625 40.1875 58.015625 27.296875 
Q 58.015625 14.40625 51.78125 6.484375 
Q 45.5625 -1.421875 35.59375 -1.421875 
Q 29.59375 -1.421875 25.265625 0.953125 
Q 20.953125 3.328125 18.109375 8.203125 
z
M 48.6875 27.296875 
Q 48.6875 37.203125 44.609375 42.84375 
Q 40.53125 48.484375 33.40625 48.484375 
Q 26.265625 48.484375 22.1875 42.84375 
Q 18.109375 37.203125 18.109375 27.296875 
Q 18.109375 17.390625 22.1875 11.75 
Q 26.265625 6.109375 33.40625 6.109375 
Q 40.53125 6.109375 44.609375 11.75 
Q 48.6875 17.390625 48.6875 27.296875 
z
" id="DejaVuSans-112"/>
       <path d="M 41.109375 46.296875 
Q 39.59375 47.171875 37.8125 47.578125 
Q 36.03125 48 33.890625 48 
Q 26.265625 48 22.1875 43.046875 
Q 18.109375 38.09375 18.109375 28.8125 
L 18.109375 0 
L 9.078125 0 
L 9.078125 54.6875 
L 18.109375 54.6875 
L 18.109375 46.1875 
Q 20.953125 51.171875 25.484375 53.578125 
Q 30.03125 56 36.53125 56 
Q 37.453125 56 38.578125 55.875 
Q 39.703125 55.765625 41.0625 55.515625 
z
" id="DejaVuSans-114"/>
       <path d="M 30.609375 48.390625 
Q 23.390625 48.390625 19.1875 42.75 
Q 14.984375 37.109375 14.984375 27.296875 
Q 14.984375 17.484375 19.15625 11.84375 
Q 23.34375 6.203125 30.609375 6.203125 
Q 37.796875 6.203125 41.984375 11.859375 
Q 46.1875 17.53125 46.1875 27.296875 
Q 46.1875 37.015625 41.984375 42.703125 
Q 37.796875 48.390625 30.609375 48.390625 
z
M 30.609375 56 
Q 42.328125 56 49.015625 48.375 
Q 55.71875 40.765625 55.71875 27.296875 
Q 55.71875 13.875 49.015625 6.21875 
Q 42.328125 -1.421875 30.609375 -1.421875 
Q 18.84375 -1.421875 12.171875 6.21875 
Q 5.515625 13.875 5.515625 27.296875 
Q 5.515625 40.765625 12.171875 48.375 
Q 18.84375 56 30.609375 56 
z
" id="DejaVuSans-111"/>
       <path d="M 45.40625 46.390625 
L 45.40625 75.984375 
L 54.390625 75.984375 
L 54.390625 0 
L 45.40625 0 
L 45.40625 8.203125 
Q 42.578125 3.328125 38.25 0.953125 
Q 33.9375 -1.421875 27.875 -1.421875 
Q 17.96875 -1.421875 11.734375 6.484375 
Q 5.515625 14.40625 5.515625 27.296875 
Q 5.515625 40.1875 11.734375 48.09375 
Q 17.96875 56 27.875 56 
Q 33.9375 56 38.25 53.625 
Q 42.578125 51.265625 45.40625 46.390625 
z
M 14.796875 27.296875 
Q 14.796875 17.390625 18.875 11.75 
Q 22.953125 6.109375 30.078125 6.109375 
Q 37.203125 6.109375 41.296875 11.75 
Q 45.40625 17.390625 45.40625 27.296875 
Q 45.40625 37.203125 41.296875 42.84375 
Q 37.203125 48.484375 30.078125 48.484375 
Q 22.953125 48.484375 18.875 42.84375 
Q 14.796875 37.203125 14.796875 27.296875 
z
" id="DejaVuSans-100"/>
       <path d="M 48.78125 52.59375 
L 48.78125 44.1875 
Q 44.96875 46.296875 41.140625 47.34375 
Q 37.3125 48.390625 33.40625 48.390625 
Q 24.65625 48.390625 19.8125 42.84375 
Q 14.984375 37.3125 14.984375 27.296875 
Q 14.984375 17.28125 19.8125 11.734375 
Q 24.65625 6.203125 33.40625 6.203125 
Q 37.3125 6.203125 41.140625 7.25 
Q 44.96875 8.296875 48.78125 10.40625 
L 48.78125 2.09375 
Q 45.015625 0.34375 40.984375 -0.53125 
Q 36.96875 -1.421875 32.421875 -1.421875 
Q 20.0625 -1.421875 12.78125 6.34375 
Q 5.515625 14.109375 5.515625 27.296875 
Q 5.515625 40.671875 12.859375 48.328125 
Q 20.21875 56 33.015625 56 
Q 37.15625 56 41.109375 55.140625 
Q 45.0625 54.296875 48.78125 52.59375 
z
" id="DejaVuSans-99"/>
       <path d="M 9.421875 54.6875 
L 18.40625 54.6875 
L 18.40625 0 
L 9.421875 0 
z
M 9.421875 75.984375 
L 18.40625 75.984375 
L 18.40625 64.59375 
L 9.421875 64.59375 
z
" id="DejaVuSans-105"/>
       <path d="M 45.40625 27.984375 
Q 45.40625 37.75 41.375 43.109375 
Q 37.359375 48.484375 30.078125 48.484375 
Q 22.859375 48.484375 18.828125 43.109375 
Q 14.796875 37.75 14.796875 27.984375 
Q 14.796875 18.265625 18.828125 12.890625 
Q 22.859375 7.515625 30.078125 7.515625 
Q 37.359375 7.515625 41.375 12.890625 
Q 45.40625 18.265625 45.40625 27.984375 
z
M 54.390625 6.78125 
Q 54.390625 -7.171875 48.1875 -13.984375 
Q 42 -20.796875 29.203125 -20.796875 
Q 24.46875 -20.796875 20.265625 -20.09375 
Q 16.0625 -19.390625 12.109375 -17.921875 
L 12.109375 -9.1875 
Q 16.0625 -11.328125 19.921875 -12.34375 
Q 23.78125 -13.375 27.78125 -13.375 
Q 36.625 -13.375 41.015625 -8.765625 
Q 45.40625 -4.15625 45.40625 5.171875 
L 45.40625 9.625 
Q 42.625 4.78125 38.28125 2.390625 
Q 33.9375 0 27.875 0 
Q 17.828125 0 11.671875 7.65625 
Q 5.515625 15.328125 5.515625 27.984375 
Q 5.515625 40.671875 11.671875 48.328125 
Q 17.828125 56 27.875 56 
Q 33.9375 56 38.28125 53.609375 
Q 42.625 51.21875 45.40625 46.390625 
L 45.40625 54.6875 
L 54.390625 54.6875 
z
" id="DejaVuSans-103"/>
       <path d="M 9.421875 75.984375 
L 18.40625 75.984375 
L 18.40625 0 
L 9.421875 0 
z
" id="DejaVuSans-108"/>
      </defs>
      <use xlink:href="#DejaVuSans-82"/>
      <use x="64.982422" xlink:href="#DejaVuSans-101"/>
      <use x="126.505859" xlink:href="#DejaVuSans-112"/>
      <use x="189.982422" xlink:href="#DejaVuSans-114"/>
      <use x="228.845703" xlink:href="#DejaVuSans-111"/>
      <use x="290.027344" xlink:href="#DejaVuSans-100"/>
      <use x="353.503906" xlink:href="#DejaVuSans-117"/>
      <use x="416.882812" xlink:href="#DejaVuSans-99"/>
      <use x="471.863281" xlink:href="#DejaVuSans-116"/>
      <use x="511.072266" xlink:href="#DejaVuSans-105"/>
      <use x="538.855469" xlink:href="#DejaVuSans-101"/>
      <use x="600.378906" xlink:href="#DejaVuSans-103"/>
      <use x="663.855469" xlink:href="#DejaVuSans-101"/>
      <use x="725.378906" xlink:href="#DejaVuSans-116"/>
      <use x="764.587891" xlink:href="#DejaVuSans-97"/>
      <use x="825.867188" xlink:href="#DejaVuSans-108"/>
     </g>
    </g>
   </g>
   <g id="line2d_29">
    <path clip-path="url(#pcb114eaefd)" d="M 45.270229 78.3072 
L 46.772519 87.6096 
L 48.274809 94.9536 
L 49.777099 87.6096 
L 51.279389 73.4112 
L 52.781679 66.5568 
L 54.283969 66.0672 
L 55.78626 65.088 
L 57.28855 67.536 
L 58.79084 71.9424 
L 60.29313 71.9424 
L 61.79542 69.984 
L 63.29771 75.3696 
L 64.8 83.2032 
L 66.30229 85.1616 
L 67.80458 83.6928 
L 70.80916 81.7344 
L 72.31145 80.2656 
L 73.81374 79.776 
L 75.316031 84.672 
L 76.818321 91.0368 
L 79.822901 102.7872 
L 81.325191 107.6832 
L 82.827481 111.6 
L 84.329771 116.0064 
L 85.832061 121.8816 
L 87.334351 125.7984 
L 91.841221 131.6736 
L 93.343511 133.1424 
L 94.845802 134.1216 
L 96.348092 136.08 
L 97.850382 137.5488 
L 99.352672 138.0384 
L 100.854962 138.0384 
L 102.357252 137.5488 
L 105.361832 135.5904 
L 106.864122 135.5904 
L 108.366412 136.08 
L 109.868702 138.0384 
L 111.370992 139.0176 
L 112.873282 139.0176 
L 115.877863 136.08 
L 120.384733 133.1424 
L 121.887023 134.6112 
L 123.389313 137.0592 
L 124.891603 138.528 
L 126.393893 139.0176 
L 127.896183 138.528 
L 132.403053 135.5904 
L 133.905344 135.1008 
L 135.407634 135.1008 
L 136.909924 136.08 
L 138.412214 137.5488 
L 139.914504 138.528 
L 142.919084 136.5696 
L 144.421374 135.1008 
L 147.425954 135.1008 
L 150.430534 137.0592 
L 153.435115 138.0384 
L 154.937405 139.0176 
L 156.439695 139.0176 
L 157.941985 137.5488 
L 160.946565 133.632 
L 162.448855 132.1632 
L 163.951145 132.1632 
L 165.453435 132.6528 
L 166.955725 132.6528 
L 168.458015 133.1424 
L 169.960305 134.6112 
L 171.462595 135.1008 
L 172.964885 134.6112 
L 174.467176 133.632 
L 175.969466 131.6736 
L 177.471756 128.2464 
L 178.974046 123.84 
L 180.476336 119.9232 
L 181.978626 117.4752 
L 183.480916 119.9232 
L 184.983206 125.7984 
L 186.485496 129.7152 
L 189.490076 129.7152 
L 190.992366 133.632 
L 192.494656 137.0592 
L 193.996947 139.5072 
L 195.499237 145.3824 
L 197.001527 149.2992 
L 198.503817 149.2992 
L 200.006107 147.3408 
L 201.508397 144.4032 
L 203.010687 139.9968 
L 206.015267 125.7984 
L 207.517557 123.3504 
L 209.019847 121.392 
L 210.522137 116.9856 
L 212.024427 111.1104 
L 213.526718 109.152 
L 215.029008 115.0272 
L 216.531298 125.7984 
L 218.033588 133.632 
L 219.535878 136.08 
L 221.038168 137.0592 
L 222.540458 137.0592 
L 224.042748 136.08 
L 225.545038 134.1216 
L 227.047328 131.184 
L 228.549618 127.7568 
L 230.051908 124.8192 
L 231.554198 122.8608 
L 233.056489 122.8608 
L 234.558779 125.3088 
L 236.061069 128.2464 
L 237.563359 129.2256 
L 239.065649 128.2464 
L 240.567939 126.7776 
L 242.070229 126.288 
L 243.572519 126.7776 
L 245.074809 126.7776 
L 246.577099 125.3088 
L 248.079389 121.8816 
L 251.083969 107.6832 
L 252.58626 102.7872 
L 254.08855 101.808 
L 255.59084 102.7872 
L 257.09313 103.2768 
L 258.59542 102.7872 
L 260.09771 101.808 
L 261.6 102.2976 
L 263.10229 104.256 
L 264.60458 108.1728 
L 266.10687 113.0688 
L 267.60916 116.496 
L 269.11145 116.0064 
L 272.116031 111.1104 
L 273.618321 109.6416 
L 276.622901 110.6208 
L 278.125191 110.1312 
L 279.627481 107.6832 
L 281.129771 104.256 
L 282.632061 102.7872 
L 284.134351 104.256 
L 287.138931 111.1104 
L 288.641221 112.0896 
L 290.143511 112.0896 
L 291.645802 111.6 
L 293.148092 112.0896 
L 294.650382 114.048 
L 296.152672 117.9648 
L 297.654962 121.392 
L 299.157252 123.84 
L 300.659542 125.3088 
L 302.161832 125.7984 
L 305.166412 124.8192 
L 309.673282 127.7568 
L 311.175573 128.2464 
L 312.677863 128.2464 
L 314.180153 127.2672 
L 315.682443 125.7984 
L 318.687023 123.84 
L 320.189313 122.3712 
L 321.691603 120.4128 
L 324.696183 117.4752 
L 327.700763 116.496 
L 329.203053 116.9856 
L 330.705344 116.0064 
L 332.207634 113.5584 
L 333.709924 109.6416 
L 335.212214 105.2352 
L 336.714504 102.2976 
L 338.216794 103.2768 
L 339.719084 105.7248 
L 341.221374 106.704 
L 342.723664 106.2144 
L 345.728244 106.2144 
L 347.230534 107.6832 
L 348.732824 109.6416 
L 350.235115 112.5792 
L 351.737405 113.0688 
L 353.239695 112.0896 
L 354.741985 110.6208 
L 356.244275 109.6416 
L 357.746565 109.6416 
L 359.248855 112.0896 
L 360.751145 115.0272 
L 362.253435 116.496 
L 363.755725 116.496 
L 365.258015 115.0272 
L 366.760305 114.048 
L 368.262595 114.048 
L 369.764885 115.5168 
L 371.267176 116.496 
L 372.769466 116.0064 
L 374.271756 113.5584 
L 375.774046 110.6208 
L 377.276336 108.1728 
L 378.778626 106.704 
L 380.280916 107.6832 
L 381.783206 109.6416 
L 383.285496 111.1104 
L 384.787786 112.0896 
L 386.290076 113.5584 
L 387.792366 114.048 
L 389.294656 115.0272 
L 392.299237 117.9648 
L 393.801527 118.4544 
L 395.303817 118.4544 
L 398.308397 117.4752 
L 399.810687 117.4752 
L 401.312977 118.4544 
L 402.815267 119.9232 
L 404.317557 120.4128 
L 405.819847 120.4128 
L 407.322137 119.9232 
L 408.824427 119.9232 
L 410.326718 120.4128 
L 414.833588 126.288 
L 423.847328 132.1632 
L 426.851908 132.1632 
L 428.354198 131.184 
L 429.856489 130.6944 
L 432.861069 130.6944 
L 434.363359 130.2048 
L 435.865649 129.2256 
L 437.367939 127.2672 
L 440.372519 124.3296 
L 441.874809 123.3504 
L 446.381679 124.8192 
L 449.38626 123.84 
L 450.88855 123.84 
L 452.39084 124.3296 
L 455.39542 127.2672 
L 456.89771 127.7568 
L 458.4 127.2672 
L 461.40458 124.3296 
L 462.90687 123.3504 
L 464.40916 122.8608 
L 465.91145 122.8608 
L 467.41374 121.392 
L 468.916031 118.944 
L 471.920611 113.0688 
L 473.422901 111.1104 
L 474.925191 111.6 
L 477.929771 113.5584 
L 482.436641 112.0896 
L 483.938931 112.0896 
L 486.943511 116.0064 
L 488.445802 116.9856 
L 492.952672 116.9856 
L 494.454962 117.9648 
L 497.459542 123.84 
L 498.961832 126.288 
L 501.966412 128.2464 
L 503.468702 128.736 
L 507.975573 131.6736 
L 509.477863 131.184 
L 510.980153 130.2048 
L 512.482443 128.2464 
L 513.984733 126.7776 
L 515.487023 126.7776 
L 516.989313 128.2464 
L 518.491603 128.736 
L 519.993893 127.7568 
L 522.998473 124.8192 
L 524.500763 125.3088 
L 526.003053 126.7776 
L 527.505344 129.7152 
L 529.007634 131.6736 
L 530.509924 131.6736 
L 532.012214 131.184 
L 533.514504 129.2256 
L 535.016794 127.7568 
L 536.519084 126.7776 
L 538.021374 126.7776 
L 539.523664 127.7568 
L 541.025954 127.7568 
L 542.528244 127.2672 
L 544.030534 126.288 
L 547.035115 125.3088 
L 548.537405 126.7776 
L 550.039695 128.736 
L 551.541985 129.7152 
L 553.044275 130.2048 
L 554.546565 129.7152 
L 556.048855 128.736 
L 559.053435 127.7568 
L 560.555725 128.2464 
L 562.058015 128.2464 
L 563.560305 127.7568 
L 565.062595 126.7776 
L 566.564885 125.3088 
L 568.067176 124.8192 
L 569.569466 125.3088 
L 571.071756 126.7776 
L 572.574046 127.2672 
L 574.076336 127.2672 
L 578.583206 122.8608 
L 580.085496 122.3712 
L 581.587786 122.8608 
L 583.090076 122.3712 
L 584.592366 120.9024 
L 587.596947 116.9856 
L 589.099237 116.0064 
L 590.601527 116.496 
L 593.606107 120.4128 
L 595.108397 121.392 
L 596.610687 121.8816 
L 598.112977 121.8816 
L 599.615267 122.3712 
L 601.117557 123.84 
L 602.619847 124.8192 
L 604.122137 125.3088 
L 607.126718 123.3504 
L 608.629008 121.8816 
L 610.131298 121.392 
L 613.135878 121.392 
L 614.638168 120.4128 
L 617.642748 117.4752 
L 617.642748 117.4752 
" style="fill:none;stroke:#000000;stroke-linecap:square;stroke-width:1.5;"/>
   </g>
   <g id="line2d_30">
    <path clip-path="url(#pcb114eaefd)" d="M 47.350533 -1 
L 48.274809 34.2432 
L 49.777099 34.2432 
L 51.064484 -1 
M 54.08621 -1 
L 54.283969 9.7632 
L 55.78626 15.1488 
L 57.28855 15.1488 
L 58.79084 32.7744 
L 60.29313 41.0976 
L 61.79542 38.16 
L 63.29771 42.0768 
L 64.8 62.64 
L 66.30229 68.5152 
L 67.80458 64.5984 
L 69.30687 65.088 
L 70.80916 66.5568 
L 73.81374 67.536 
L 75.316031 71.9424 
L 76.818321 82.7136 
L 78.320611 88.5888 
L 79.822901 95.4432 
L 81.325191 101.3184 
L 82.827481 106.2144 
L 84.329771 110.6208 
L 85.832061 116.496 
L 87.334351 121.8816 
L 88.836641 123.3504 
L 93.343511 129.2256 
L 94.845802 130.2048 
L 96.348092 131.6736 
L 97.850382 134.1216 
L 99.352672 133.632 
L 100.854962 133.632 
L 103.859542 131.6736 
L 105.361832 130.2048 
L 106.864122 129.7152 
L 109.868702 131.6736 
L 111.370992 134.1216 
L 112.873282 133.1424 
L 114.375573 131.184 
L 115.877863 128.736 
L 117.380153 127.2672 
L 120.384733 125.3088 
L 121.887023 125.3088 
L 123.389313 129.2256 
L 124.891603 131.6736 
L 126.393893 130.2048 
L 127.896183 129.7152 
L 129.398473 128.2464 
L 130.900763 125.7984 
L 133.905344 123.84 
L 136.909924 123.84 
L 138.412214 124.8192 
L 139.914504 128.2464 
L 141.416794 124.8192 
L 142.919084 122.3712 
L 144.421374 121.392 
L 145.923664 117.9648 
L 147.425954 121.392 
L 148.928244 118.4544 
L 150.430534 122.3712 
L 151.932824 122.3712 
L 153.435115 119.9232 
L 154.937405 121.392 
L 156.439695 121.8816 
L 157.941985 116.496 
L 162.448855 107.6832 
L 163.951145 105.2352 
L 166.955725 110.1312 
L 168.458015 102.2976 
L 169.960305 106.2144 
L 171.462595 111.6 
L 172.964885 104.256 
L 174.467176 102.2976 
L 175.969466 102.2976 
L 177.471756 96.4224 
L 178.974046 81.7344 
L 180.476336 74.88 
L 181.978626 80.2656 
L 183.480916 65.088 
L 184.983206 94.464 
L 186.485496 101.808 
L 187.987786 101.808 
L 189.490076 84.672 
L 190.992366 87.12 
L 192.494656 113.5584 
L 193.996947 104.256 
L 195.499237 104.256 
L 197.001527 127.7568 
L 198.503817 111.6 
L 200.006107 114.048 
L 201.508397 75.3696 
L 203.010687 91.5264 
L 204.512977 75.3696 
L 206.015267 26.8992 
L 207.517557 27.3888 
L 209.019847 59.7024 
L 210.522137 28.368 
L 212.024427 29.3472 
L 213.004611 -1 
M 215.31487 -1 
L 216.531298 63.6192 
L 218.033588 80.2656 
L 219.535878 81.2448 
L 221.038168 128.736 
L 222.540458 129.2256 
L 224.042748 128.2464 
L 225.545038 124.3296 
L 227.047328 121.392 
L 228.549618 116.0064 
L 230.051908 113.0688 
L 231.554198 111.1104 
L 233.056489 109.6416 
L 234.558779 115.0272 
L 236.061069 116.9856 
L 237.563359 119.4336 
L 240.567939 114.5376 
L 242.070229 114.5376 
L 243.572519 114.048 
L 245.074809 116.0064 
L 246.577099 112.5792 
L 248.079389 110.1312 
L 249.581679 101.808 
L 251.083969 91.5264 
L 252.58626 86.6304 
L 254.08855 85.6512 
L 255.59084 90.5472 
L 257.09313 90.5472 
L 258.59542 91.5264 
L 260.09771 90.0576 
L 261.6 90.5472 
L 263.10229 93.9744 
L 264.60458 98.3808 
L 266.10687 105.2352 
L 267.60916 108.1728 
L 269.11145 108.6624 
L 270.61374 104.7456 
L 272.116031 102.7872 
L 273.618321 101.3184 
L 275.120611 101.808 
L 276.622901 103.7664 
L 278.125191 102.7872 
L 279.627481 100.8288 
L 281.129771 96.4224 
L 282.632061 95.4432 
L 284.134351 97.8912 
L 285.636641 101.3184 
L 287.138931 105.7248 
L 288.641221 106.704 
L 290.143511 106.704 
L 291.645802 106.2144 
L 293.148092 106.704 
L 294.650382 109.152 
L 296.152672 113.5584 
L 297.654962 117.4752 
L 299.157252 119.9232 
L 300.659542 121.392 
L 302.161832 121.8816 
L 305.166412 120.9024 
L 306.668702 121.392 
L 308.170992 123.3504 
L 309.673282 123.84 
L 311.175573 124.8192 
L 314.180153 122.8608 
L 317.184733 119.9232 
L 318.687023 119.4336 
L 320.189313 117.9648 
L 323.193893 114.048 
L 326.198473 112.0896 
L 327.700763 112.0896 
L 329.203053 112.5792 
L 330.705344 111.6 
L 332.207634 109.152 
L 333.709924 105.2352 
L 335.212214 100.8288 
L 336.714504 97.4016 
L 338.216794 98.8704 
L 339.719084 102.2976 
L 341.221374 103.2768 
L 342.723664 102.7872 
L 344.225954 102.7872 
L 345.728244 103.2768 
L 347.230534 104.256 
L 348.732824 106.704 
L 350.235115 109.6416 
L 351.737405 110.6208 
L 353.239695 109.6416 
L 354.741985 108.1728 
L 356.244275 107.1936 
L 357.746565 107.1936 
L 359.248855 109.6416 
L 360.751145 112.5792 
L 362.253435 114.048 
L 363.755725 114.048 
L 366.760305 112.0896 
L 368.262595 112.0896 
L 371.267176 115.0272 
L 372.769466 114.048 
L 374.271756 112.0896 
L 375.774046 108.6624 
L 377.276336 106.2144 
L 378.778626 104.7456 
L 380.280916 106.2144 
L 381.783206 108.1728 
L 383.285496 109.6416 
L 384.787786 110.6208 
L 386.290076 112.0896 
L 387.792366 112.5792 
L 389.294656 113.5584 
L 390.796947 115.0272 
L 392.299237 116.9856 
L 393.801527 117.4752 
L 395.303817 117.4752 
L 396.806107 116.496 
L 398.308397 116.0064 
L 399.810687 116.0064 
L 401.312977 116.9856 
L 402.815267 118.944 
L 404.317557 119.4336 
L 405.819847 119.4336 
L 407.322137 118.944 
L 408.824427 118.944 
L 410.326718 119.4336 
L 414.833588 125.3088 
L 423.847328 131.184 
L 426.851908 131.184 
L 428.354198 130.2048 
L 431.358779 129.2256 
L 432.861069 129.2256 
L 434.363359 128.736 
L 435.865649 127.7568 
L 437.367939 126.288 
L 438.870229 124.3296 
L 440.372519 122.8608 
L 441.874809 122.3712 
L 443.377099 122.3712 
L 444.879389 123.3504 
L 447.883969 123.3504 
L 449.38626 122.3712 
L 450.88855 122.3712 
L 452.39084 122.8608 
L 453.89313 124.3296 
L 455.39542 126.288 
L 456.89771 126.288 
L 458.4 125.7984 
L 461.40458 122.8608 
L 462.90687 121.8816 
L 464.40916 121.392 
L 465.91145 121.392 
L 467.41374 119.9232 
L 468.916031 117.4752 
L 471.920611 111.6 
L 473.422901 109.6416 
L 474.925191 110.1312 
L 476.427481 111.6 
L 477.929771 112.0896 
L 479.432061 112.0896 
L 480.934351 111.1104 
L 482.436641 110.6208 
L 483.938931 111.1104 
L 485.441221 112.5792 
L 486.943511 115.0272 
L 488.445802 116.0064 
L 492.952672 116.0064 
L 494.454962 116.9856 
L 495.957252 119.9232 
L 497.459542 123.3504 
L 498.961832 125.3088 
L 500.464122 126.7776 
L 503.468702 127.7568 
L 507.975573 130.6944 
L 509.477863 130.2048 
L 510.980153 129.2256 
L 512.482443 127.2672 
L 513.984733 125.7984 
L 515.487023 125.7984 
L 516.989313 127.2672 
L 518.491603 127.7568 
L 519.993893 126.7776 
L 522.998473 123.84 
L 524.500763 123.84 
L 526.003053 125.7984 
L 527.505344 128.736 
L 529.007634 130.6944 
L 530.509924 130.6944 
L 532.012214 129.7152 
L 533.514504 128.2464 
L 535.016794 126.288 
L 536.519084 125.3088 
L 538.021374 125.3088 
L 539.523664 126.288 
L 541.025954 126.288 
L 542.528244 125.7984 
L 544.030534 124.8192 
L 545.532824 124.3296 
L 547.035115 124.3296 
L 548.537405 125.3088 
L 550.039695 127.2672 
L 551.541985 128.2464 
L 553.044275 128.736 
L 554.546565 128.2464 
L 556.048855 127.2672 
L 559.053435 126.288 
L 560.555725 126.7776 
L 562.058015 126.7776 
L 563.560305 126.288 
L 565.062595 125.3088 
L 566.564885 123.84 
L 568.067176 123.3504 
L 569.569466 123.84 
L 571.071756 125.3088 
L 572.574046 125.7984 
L 574.076336 125.7984 
L 577.080916 122.8608 
L 578.583206 120.9024 
L 580.085496 120.4128 
L 581.587786 120.9024 
L 583.090076 120.9024 
L 584.592366 119.4336 
L 586.094656 116.9856 
L 587.596947 115.0272 
L 589.099237 114.048 
L 590.601527 115.0272 
L 593.606107 118.944 
L 595.108397 119.9232 
L 596.610687 120.4128 
L 598.112977 120.4128 
L 599.615267 120.9024 
L 601.117557 122.3712 
L 602.619847 123.3504 
L 604.122137 123.84 
L 607.126718 121.8816 
L 608.629008 120.4128 
L 610.131298 119.9232 
L 613.135878 119.9232 
L 614.638168 118.944 
L 617.642748 116.0064 
L 619.145038 115.0272 
L 620.647328 115.0272 
L 622.149618 116.496 
L 625.154198 120.4128 
L 628.158779 123.3504 
L 632.665649 126.288 
L 634.167939 126.7776 
L 637.172519 126.7776 
L 638.674809 126.288 
L 638.674809 126.288 
" style="fill:none;stroke:#808080;stroke-dasharray:5.55,2.4;stroke-dashoffset:0;stroke-opacity:0.3;stroke-width:1.5;"/>
   </g>
   <g id="line2d_31">
    <path clip-path="url(#pcb114eaefd)" d="M 45.270229 148.32 
L 46.772519 172.8 
L 48.274809 148.32 
L 49.777099 132.1632 
L 51.279389 139.9968 
L 52.781679 172.8 
L 54.283969 115.5168 
L 55.78626 108.6624 
L 57.28855 111.6 
L 58.79084 107.6832 
L 60.29313 100.3392 
L 61.79542 99.36 
L 63.29771 105.7248 
L 64.8 102.2976 
L 66.30229 101.808 
L 67.80458 102.2976 
L 70.80916 96.4224 
L 72.31145 92.9952 
L 73.81374 92.016 
L 75.316031 96.4224 
L 76.818321 99.36 
L 78.320611 104.7456 
L 79.822901 109.152 
L 81.325191 114.048 
L 82.827481 116.9856 
L 84.329771 121.392 
L 85.832061 126.7776 
L 87.334351 129.7152 
L 88.836641 132.1632 
L 90.338931 133.632 
L 91.841221 136.08 
L 93.343511 137.0592 
L 94.845802 138.528 
L 96.348092 140.976 
L 97.850382 140.976 
L 99.352672 142.4448 
L 100.854962 141.9552 
L 102.357252 141.9552 
L 103.859542 140.976 
L 106.864122 140.976 
L 108.366412 141.4656 
L 109.868702 143.9136 
L 111.370992 143.9136 
L 112.873282 144.4032 
L 114.375573 143.9136 
L 115.877863 142.9344 
L 117.380153 142.4448 
L 118.882443 140.976 
L 120.384733 140.976 
L 121.887023 142.9344 
L 123.389313 144.4032 
L 124.891603 145.3824 
L 126.393893 146.8512 
L 127.896183 146.8512 
L 129.398473 146.3616 
L 130.900763 146.3616 
L 132.403053 145.3824 
L 135.407634 145.3824 
L 136.909924 146.8512 
L 138.412214 149.2992 
L 139.914504 147.8304 
L 141.416794 149.2992 
L 142.919084 149.7888 
L 144.421374 148.32 
L 145.923664 150.2784 
L 147.425954 147.8304 
L 148.928244 151.2576 
L 150.430534 150.768 
L 151.932824 151.7472 
L 153.435115 153.7056 
L 154.937405 155.1744 
L 156.439695 153.7056 
L 157.941985 155.664 
L 159.444275 155.1744 
L 160.946565 153.7056 
L 162.448855 153.216 
L 165.453435 155.1744 
L 166.955725 152.2368 
L 168.458015 158.112 
L 169.960305 158.112 
L 171.462595 154.1952 
L 172.964885 158.112 
L 174.467176 158.112 
L 175.969466 156.6432 
L 180.476336 156.6432 
L 181.978626 148.32 
L 183.480916 160.56 
L 184.983206 153.216 
L 186.485496 155.1744 
L 187.987786 155.1744 
L 189.490076 163.008 
L 190.992366 172.8 
L 192.494656 156.6432 
L 193.996947 172.8 
L 195.499237 172.8 
L 197.001527 168.3936 
L 198.503817 172.8 
L 219.535878 172.8 
L 221.038168 144.8928 
L 222.540458 144.8928 
L 224.042748 143.9136 
L 225.545038 143.424 
L 227.047328 140.4864 
L 228.549618 139.0176 
L 230.051908 135.5904 
L 231.554198 133.632 
L 233.056489 135.5904 
L 234.558779 135.1008 
L 236.061069 138.528 
L 237.563359 138.0384 
L 239.065649 138.528 
L 240.567939 138.528 
L 242.070229 137.5488 
L 243.572519 138.528 
L 245.074809 136.5696 
L 246.577099 137.5488 
L 251.083969 122.8608 
L 252.58626 118.4544 
L 254.08855 117.4752 
L 255.59084 114.048 
L 257.09313 115.5168 
L 258.59542 113.5584 
L 260.09771 113.5584 
L 261.6 113.0688 
L 263.10229 114.048 
L 264.60458 117.9648 
L 267.60916 123.84 
L 269.11145 122.8608 
L 270.61374 122.3712 
L 272.116031 118.944 
L 273.618321 117.9648 
L 275.120611 117.9648 
L 276.622901 117.4752 
L 278.125191 117.4752 
L 279.627481 114.048 
L 281.129771 111.6 
L 282.632061 110.1312 
L 284.134351 110.6208 
L 285.636641 114.048 
L 287.138931 116.0064 
L 288.641221 117.4752 
L 290.143511 116.9856 
L 293.148092 116.9856 
L 294.650382 118.4544 
L 296.152672 122.3712 
L 297.654962 125.3088 
L 299.157252 127.7568 
L 300.659542 129.2256 
L 302.161832 129.7152 
L 303.664122 129.2256 
L 305.166412 129.2256 
L 306.668702 129.7152 
L 309.673282 131.6736 
L 311.175573 132.1632 
L 312.677863 132.1632 
L 314.180153 131.184 
L 315.682443 129.7152 
L 317.184733 129.2256 
L 318.687023 128.2464 
L 320.189313 126.7776 
L 321.691603 124.8192 
L 323.193893 123.3504 
L 326.198473 121.392 
L 327.700763 121.392 
L 330.705344 120.4128 
L 332.207634 117.9648 
L 333.709924 114.048 
L 335.212214 109.6416 
L 336.714504 107.1936 
L 338.216794 108.1728 
L 339.719084 109.6416 
L 341.221374 110.1312 
L 342.723664 110.1312 
L 344.225954 109.6416 
L 345.728244 109.6416 
L 347.230534 110.6208 
L 348.732824 113.0688 
L 350.235115 115.0272 
L 351.737405 115.5168 
L 353.239695 115.0272 
L 356.244275 112.0896 
L 357.746565 112.0896 
L 360.751145 116.9856 
L 362.253435 118.4544 
L 363.755725 118.4544 
L 366.760305 116.496 
L 368.262595 116.496 
L 369.764885 117.9648 
L 371.267176 118.4544 
L 372.769466 117.9648 
L 374.271756 115.5168 
L 375.774046 112.5792 
L 377.276336 110.1312 
L 378.778626 108.6624 
L 380.280916 109.6416 
L 383.285496 112.5792 
L 387.792366 115.5168 
L 389.294656 116.0064 
L 390.796947 117.9648 
L 392.299237 119.4336 
L 393.801527 119.9232 
L 398.308397 118.4544 
L 399.810687 118.4544 
L 401.312977 119.4336 
L 402.815267 120.9024 
L 404.317557 121.392 
L 407.322137 121.392 
L 408.824427 120.9024 
L 410.326718 121.392 
L 414.833588 127.2672 
L 423.847328 133.1424 
L 426.851908 133.1424 
L 428.354198 132.6528 
L 429.856489 131.6736 
L 432.861069 131.6736 
L 434.363359 131.184 
L 435.865649 130.2048 
L 440.372519 125.7984 
L 441.874809 124.8192 
L 444.879389 125.7984 
L 447.883969 125.7984 
L 450.88855 124.8192 
L 452.39084 125.7984 
L 455.39542 128.736 
L 456.89771 129.2256 
L 459.90229 127.2672 
L 461.40458 125.7984 
L 462.90687 124.8192 
L 465.91145 123.84 
L 467.41374 122.3712 
L 468.916031 120.4128 
L 471.920611 114.5376 
L 473.422901 113.0688 
L 474.925191 113.0688 
L 477.929771 115.0272 
L 482.436641 113.5584 
L 483.938931 113.5584 
L 485.441221 115.0272 
L 486.943511 116.9856 
L 488.445802 117.9648 
L 492.952672 117.9648 
L 494.454962 118.944 
L 497.459542 124.8192 
L 498.961832 127.2672 
L 501.966412 129.2256 
L 504.970992 130.2048 
L 506.473282 131.6736 
L 507.975573 132.6528 
L 509.477863 132.1632 
L 513.984733 127.7568 
L 515.487023 128.2464 
L 516.989313 129.2256 
L 518.491603 129.7152 
L 519.993893 128.736 
L 521.496183 127.2672 
L 522.998473 126.288 
L 524.500763 126.288 
L 526.003053 128.2464 
L 527.505344 130.6944 
L 529.007634 132.6528 
L 530.509924 133.1424 
L 532.012214 132.1632 
L 533.514504 130.6944 
L 535.016794 128.736 
L 536.519084 127.7568 
L 539.523664 128.736 
L 541.025954 128.736 
L 544.030534 127.7568 
L 545.532824 126.7776 
L 547.035115 126.7776 
L 551.541985 131.184 
L 553.044275 131.184 
L 556.048855 130.2048 
L 557.551145 129.2256 
L 559.053435 129.2256 
L 560.555725 129.7152 
L 562.058015 129.7152 
L 563.560305 129.2256 
L 565.062595 128.2464 
L 566.564885 126.7776 
L 568.067176 126.288 
L 569.569466 127.2672 
L 571.071756 127.7568 
L 572.574046 128.736 
L 574.076336 128.736 
L 575.578626 127.7568 
L 577.080916 125.7984 
L 578.583206 124.3296 
L 581.587786 124.3296 
L 583.090076 123.84 
L 584.592366 122.3712 
L 587.596947 118.4544 
L 589.099237 117.4752 
L 590.601527 118.4544 
L 592.103817 119.9232 
L 593.606107 121.8816 
L 595.108397 122.8608 
L 596.610687 123.3504 
L 598.112977 123.3504 
L 599.615267 123.84 
L 601.117557 125.3088 
L 602.619847 126.288 
L 604.122137 126.288 
L 605.624427 125.7984 
L 607.126718 124.8192 
L 608.629008 123.3504 
L 610.131298 122.8608 
L 611.633588 122.8608 
L 614.638168 121.8816 
L 617.642748 118.944 
L 619.145038 117.9648 
L 620.647328 117.9648 
L 622.149618 119.4336 
L 625.154198 123.3504 
L 626.656489 124.8192 
L 628.158779 125.7984 
L 629.661069 127.2672 
L 631.163359 129.2256 
L 632.665649 130.6944 
L 634.167939 132.6528 
L 637.172519 135.5904 
L 638.674809 136.08 
L 638.674809 136.08 
" style="fill:none;stroke:#808080;stroke-dasharray:5.55,2.4;stroke-dashoffset:0;stroke-opacity:0.3;stroke-width:1.5;"/>
   </g>
   <g id="line2d_32">
    <path clip-path="url(#pcb114eaefd)" d="M 646.18626 172.8 
L 646.18626 25.92 
" style="fill:none;stroke:#ff0000;stroke-linecap:square;stroke-width:0.5;"/>
   </g>
   <g id="line2d_33">
    <path clip-path="url(#pcb114eaefd)" d="M 625.154198 172.8 
L 625.154198 25.92 
" style="fill:none;stroke:#0000ff;stroke-dasharray:1.85,0.8;stroke-dashoffset:0;stroke-width:0.5;"/>
   </g>
   <g id="patch_3">
    <path d="M 64.8 172.8 
L 64.8 25.92 
" style="fill:none;stroke:#000000;stroke-linecap:square;stroke-linejoin:miter;stroke-width:0.8;"/>
   </g>
   <g id="patch_4">
    <path d="M 655.2 172.8 
L 655.2 25.92 
" style="fill:none;stroke:#000000;stroke-linecap:square;stroke-linejoin:miter;stroke-width:0.8;"/>
   </g>
   <g id="patch_5">
    <path d="M 64.8 172.8 
L 655.2 172.8 
" style="fill:none;stroke:#000000;stroke-linecap:square;stroke-linejoin:miter;stroke-width:0.8;"/>
   </g>
   <g id="patch_6">
    <path d="M 64.8 25.92 
L 655.2 25.92 
" style="fill:none;stroke:#000000;stroke-linecap:square;stroke-linejoin:miter;stroke-width:0.8;"/>
   </g>
   <g id="patch_7">
    <path d="M 622.02456 100.208568 
Q 619.129505 107.571222 618.086972 114.390527 
" style="fill:none;stroke:#000000;stroke-linecap:round;"/>
    <path d="M 620.152192 111.469078 
L 618.086972 114.390527 
L 616.988944 110.985482 
" style="fill:none;stroke:#000000;stroke-linecap:round;"/>
   </g>
   <g id="text_17">
    <g id="patch_8">
     <path d="M 617.642748 97.85895 
L 635.455248 97.85895 
Q 638.655248 97.85895 638.655248 94.65895 
L 638.655248 86.91645 
Q 638.655248 83.71645 635.455248 83.71645 
L 617.642748 83.71645 
Q 614.442748 83.71645 614.442748 86.91645 
L 614.442748 94.65895 
Q 614.442748 97.85895 617.642748 97.85895 
z
" style="fill:#fffff0;stroke:#000000;stroke-linejoin:miter;"/>
    </g>
    <!-- 1,13 -->
    <g transform="translate(617.642748 92.9952)scale(0.08 -0.08)">
     <defs>
      <path d="M 11.71875 12.40625 
L 22.015625 12.40625 
L 22.015625 4 
L 14.015625 -11.625 
L 7.71875 -11.625 
L 11.71875 4 
z
" id="DejaVuSans-44"/>
     </defs>
     <use xlink:href="#DejaVuSans-49"/>
     <use x="63.623047" xlink:href="#DejaVuSans-44"/>
     <use x="95.410156" xlink:href="#DejaVuSans-49"/>
     <use x="159.033203" xlink:href="#DejaVuSans-51"/>
    </g>
   </g>
   <g id="text_18">
    <!-- Reproductiegetal -->
    <g transform="translate(308.77875 19.92)scale(0.12 -0.12)">
     <use xlink:href="#DejaVuSans-82"/>
     <use x="64.982422" xlink:href="#DejaVuSans-101"/>
     <use x="126.505859" xlink:href="#DejaVuSans-112"/>
     <use x="189.982422" xlink:href="#DejaVuSans-114"/>
     <use x="228.845703" xlink:href="#DejaVuSans-111"/>
     <use x="290.027344" xlink:href="#DejaVuSans-100"/>
     <use x="353.503906" xlink:href="#DejaVuSans-117"/>
     <use x="416.882812" xlink:href="#DejaVuSans-99"/>
     <use x="471.863281" xlink:href="#DejaVuSans-116"/>
     <use x="511.072266" xlink:href="#DejaVuSans-105"/>
     <use x="538.855469" xlink:href="#DejaVuSans-101"/>
     <use x="600.378906" xlink:href="#DejaVuSans-103"/>
     <use x="663.855469" xlink:href="#DejaVuSans-101"/>
     <use x="725.378906" xlink:href="#DejaVuSans-116"/>
     <use x="764.587891" xlink:href="#DejaVuSans-97"/>
     <use x="825.867188" xlink:href="#DejaVuSans-108"/>
    </g>
   </g>
  </g>
  <g id="text_19">
   <!-- Gegenereerd op 2021-03-23 11:20, Rt berekend tot 2021-03-04. -->
   <g style="fill:#808080;" transform="translate(7.2 204.88175)scale(0.08 -0.08)">
    <defs>
     <path d="M 59.515625 10.40625 
L 59.515625 29.984375 
L 43.40625 29.984375 
L 43.40625 38.09375 
L 69.28125 38.09375 
L 69.28125 6.78125 
Q 63.578125 2.734375 56.6875 0.65625 
Q 49.8125 -1.421875 42 -1.421875 
Q 24.90625 -1.421875 15.25 8.5625 
Q 5.609375 18.5625 5.609375 36.375 
Q 5.609375 54.25 15.25 64.234375 
Q 24.90625 74.21875 42 74.21875 
Q 49.125 74.21875 55.546875 72.453125 
Q 61.96875 70.703125 67.390625 67.28125 
L 67.390625 56.78125 
Q 61.921875 61.421875 55.765625 63.765625 
Q 49.609375 66.109375 42.828125 66.109375 
Q 29.4375 66.109375 22.71875 58.640625 
Q 16.015625 51.171875 16.015625 36.375 
Q 16.015625 21.625 22.71875 14.15625 
Q 29.4375 6.6875 42.828125 6.6875 
Q 48.046875 6.6875 52.140625 7.59375 
Q 56.25 8.5 59.515625 10.40625 
z
" id="DejaVuSans-71"/>
     <path d="M 54.890625 33.015625 
L 54.890625 0 
L 45.90625 0 
L 45.90625 32.71875 
Q 45.90625 40.484375 42.875 44.328125 
Q 39.84375 48.1875 33.796875 48.1875 
Q 26.515625 48.1875 22.3125 43.546875 
Q 18.109375 38.921875 18.109375 30.90625 
L 18.109375 0 
L 9.078125 0 
L 9.078125 54.6875 
L 18.109375 54.6875 
L 18.109375 46.1875 
Q 21.34375 51.125 25.703125 53.5625 
Q 30.078125 56 35.796875 56 
Q 45.21875 56 50.046875 50.171875 
Q 54.890625 44.34375 54.890625 33.015625 
z
" id="DejaVuSans-110"/>
     <path id="DejaVuSans-32"/>
     <path d="M 11.71875 12.40625 
L 22.015625 12.40625 
L 22.015625 0 
L 11.71875 0 
z
M 11.71875 51.703125 
L 22.015625 51.703125 
L 22.015625 39.3125 
L 11.71875 39.3125 
z
" id="DejaVuSans-58"/>
     <path d="M 48.6875 27.296875 
Q 48.6875 37.203125 44.609375 42.84375 
Q 40.53125 48.484375 33.40625 48.484375 
Q 26.265625 48.484375 22.1875 42.84375 
Q 18.109375 37.203125 18.109375 27.296875 
Q 18.109375 17.390625 22.1875 11.75 
Q 26.265625 6.109375 33.40625 6.109375 
Q 40.53125 6.109375 44.609375 11.75 
Q 48.6875 17.390625 48.6875 27.296875 
z
M 18.109375 46.390625 
Q 20.953125 51.265625 25.265625 53.625 
Q 29.59375 56 35.59375 56 
Q 45.5625 56 51.78125 48.09375 
Q 58.015625 40.1875 58.015625 27.296875 
Q 58.015625 14.40625 51.78125 6.484375 
Q 45.5625 -1.421875 35.59375 -1.421875 
Q 29.59375 -1.421875 25.265625 0.953125 
Q 20.953125 3.328125 18.109375 8.203125 
L 18.109375 0 
L 9.078125 0 
L 9.078125 75.984375 
L 18.109375 75.984375 
z
" id="DejaVuSans-98"/>
     <path d="M 9.078125 75.984375 
L 18.109375 75.984375 
L 18.109375 31.109375 
L 44.921875 54.6875 
L 56.390625 54.6875 
L 27.390625 29.109375 
L 57.625 0 
L 45.90625 0 
L 18.109375 26.703125 
L 18.109375 0 
L 9.078125 0 
z
" id="DejaVuSans-107"/>
     <path d="M 37.796875 64.3125 
L 12.890625 25.390625 
L 37.796875 25.390625 
z
M 35.203125 72.90625 
L 47.609375 72.90625 
L 47.609375 25.390625 
L 58.015625 25.390625 
L 58.015625 17.1875 
L 47.609375 17.1875 
L 47.609375 0 
L 37.796875 0 
L 37.796875 17.1875 
L 4.890625 17.1875 
L 4.890625 26.703125 
z
" id="DejaVuSans-52"/>
    </defs>
    <use xlink:href="#DejaVuSans-71"/>
    <use x="77.490234" xlink:href="#DejaVuSans-101"/>
    <use x="139.013672" xlink:href="#DejaVuSans-103"/>
    <use x="202.490234" xlink:href="#DejaVuSans-101"/>
    <use x="264.013672" xlink:href="#DejaVuSans-110"/>
    <use x="327.392578" xlink:href="#DejaVuSans-101"/>
    <use x="388.916016" xlink:href="#DejaVuSans-114"/>
    <use x="427.779297" xlink:href="#DejaVuSans-101"/>
    <use x="489.302734" xlink:href="#DejaVuSans-101"/>
    <use x="550.826172" xlink:href="#DejaVuSans-114"/>
    <use x="590.189453" xlink:href="#DejaVuSans-100"/>
    <use x="653.666016" xlink:href="#DejaVuSans-32"/>
    <use x="685.453125" xlink:href="#DejaVuSans-111"/>
    <use x="746.634766" xlink:href="#DejaVuSans-112"/>
    <use x="810.111328" xlink:href="#DejaVuSans-32"/>
    <use x="841.898438" xlink:href="#DejaVuSans-50"/>
    <use x="905.521484" xlink:href="#DejaVuSans-48"/>
    <use x="969.144531" xlink:href="#DejaVuSans-50"/>
    <use x="1032.767578" xlink:href="#DejaVuSans-49"/>
    <use x="1096.390625" xlink:href="#DejaVuSans-45"/>
    <use x="1132.474609" xlink:href="#DejaVuSans-48"/>
    <use x="1196.097656" xlink:href="#DejaVuSans-51"/>
    <use x="1259.720703" xlink:href="#DejaVuSans-45"/>
    <use x="1295.804688" xlink:href="#DejaVuSans-50"/>
    <use x="1359.427734" xlink:href="#DejaVuSans-51"/>
    <use x="1423.050781" xlink:href="#DejaVuSans-32"/>
    <use x="1454.837891" xlink:href="#DejaVuSans-49"/>
    <use x="1518.460938" xlink:href="#DejaVuSans-49"/>
    <use x="1582.083984" xlink:href="#DejaVuSans-58"/>
    <use x="1615.775391" xlink:href="#DejaVuSans-50"/>
    <use x="1679.398438" xlink:href="#DejaVuSans-48"/>
    <use x="1743.021484" xlink:href="#DejaVuSans-44"/>
    <use x="1774.808594" xlink:href="#DejaVuSans-32"/>
    <use x="1806.595703" xlink:href="#DejaVuSans-82"/>
    <use x="1876.078125" xlink:href="#DejaVuSans-116"/>
    <use x="1915.287109" xlink:href="#DejaVuSans-32"/>
    <use x="1947.074219" xlink:href="#DejaVuSans-98"/>
    <use x="2010.550781" xlink:href="#DejaVuSans-101"/>
    <use x="2072.074219" xlink:href="#DejaVuSans-114"/>
    <use x="2110.9375" xlink:href="#DejaVuSans-101"/>
    <use x="2172.460938" xlink:href="#DejaVuSans-107"/>
    <use x="2226.746094" xlink:href="#DejaVuSans-101"/>
    <use x="2288.269531" xlink:href="#DejaVuSans-110"/>
    <use x="2351.648438" xlink:href="#DejaVuSans-100"/>
    <use x="2415.125" xlink:href="#DejaVuSans-32"/>
    <use x="2446.912109" xlink:href="#DejaVuSans-116"/>
    <use x="2486.121094" xlink:href="#DejaVuSans-111"/>
    <use x="2547.302734" xlink:href="#DejaVuSans-116"/>
    <use x="2586.511719" xlink:href="#DejaVuSans-32"/>
    <use x="2618.298828" xlink:href="#DejaVuSans-50"/>
    <use x="2681.921875" xlink:href="#DejaVuSans-48"/>
    <use x="2745.544922" xlink:href="#DejaVuSans-50"/>
    <use x="2809.167969" xlink:href="#DejaVuSans-49"/>
    <use x="2872.791016" xlink:href="#DejaVuSans-45"/>
    <use x="2908.875" xlink:href="#DejaVuSans-48"/>
    <use x="2972.498047" xlink:href="#DejaVuSans-51"/>
    <use x="3036.121094" xlink:href="#DejaVuSans-45"/>
    <use x="3072.205078" xlink:href="#DejaVuSans-48"/>
    <use x="3135.828125" xlink:href="#DejaVuSans-52"/>
    <use x="3199.451172" xlink:href="#DejaVuSans-46"/>
   </g>
   <!-- Source code: http://github.com/realrolfje/coronadata -->
   <g style="fill:#808080;" transform="translate(7.2 213.84)scale(0.08 -0.08)">
    <defs>
     <path d="M 53.515625 70.515625 
L 53.515625 60.890625 
Q 47.90625 63.578125 42.921875 64.890625 
Q 37.9375 66.21875 33.296875 66.21875 
Q 25.25 66.21875 20.875 63.09375 
Q 16.5 59.96875 16.5 54.203125 
Q 16.5 49.359375 19.40625 46.890625 
Q 22.3125 44.4375 30.421875 42.921875 
L 36.375 41.703125 
Q 47.40625 39.59375 52.65625 34.296875 
Q 57.90625 29 57.90625 20.125 
Q 57.90625 9.515625 50.796875 4.046875 
Q 43.703125 -1.421875 29.984375 -1.421875 
Q 24.8125 -1.421875 18.96875 -0.25 
Q 13.140625 0.921875 6.890625 3.21875 
L 6.890625 13.375 
Q 12.890625 10.015625 18.65625 8.296875 
Q 24.421875 6.59375 29.984375 6.59375 
Q 38.421875 6.59375 43.015625 9.90625 
Q 47.609375 13.234375 47.609375 19.390625 
Q 47.609375 24.75 44.3125 27.78125 
Q 41.015625 30.8125 33.5 32.328125 
L 27.484375 33.5 
Q 16.453125 35.6875 11.515625 40.375 
Q 6.59375 45.0625 6.59375 53.421875 
Q 6.59375 63.09375 13.40625 68.65625 
Q 20.21875 74.21875 32.171875 74.21875 
Q 37.3125 74.21875 42.625 73.28125 
Q 47.953125 72.359375 53.515625 70.515625 
z
" id="DejaVuSans-83"/>
     <path d="M 54.890625 33.015625 
L 54.890625 0 
L 45.90625 0 
L 45.90625 32.71875 
Q 45.90625 40.484375 42.875 44.328125 
Q 39.84375 48.1875 33.796875 48.1875 
Q 26.515625 48.1875 22.3125 43.546875 
Q 18.109375 38.921875 18.109375 30.90625 
L 18.109375 0 
L 9.078125 0 
L 9.078125 75.984375 
L 18.109375 75.984375 
L 18.109375 46.1875 
Q 21.34375 51.125 25.703125 53.5625 
Q 30.078125 56 35.796875 56 
Q 45.21875 56 50.046875 50.171875 
Q 54.890625 44.34375 54.890625 33.015625 
z
" id="DejaVuSans-104"/>
     <path d="M 25.390625 72.90625 
L 33.6875 72.90625 
L 8.296875 -9.28125 
L 0 -9.28125 
z
" id="DejaVuSans-47"/>
     <path d="M 37.109375 75.984375 
L 37.109375 68.5 
L 28.515625 68.5 
Q 23.6875 68.5 21.796875 66.546875 
Q 19.921875 64.59375 19.921875 59.515625 
L 19.921875 54.6875 
L 34.71875 54.6875 
L 34.71875 47.703125 
L 19.921875 47.703125 
L 19.921875 0 
L 10.890625 0 
L 10.890625 47.703125 
L 2.296875 47.703125 
L 2.296875 54.6875 
L 10.890625 54.6875 
L 10.890625 58.5 
Q 10.890625 67.625 15.140625 71.796875 
Q 19.390625 75.984375 28.609375 75.984375 
z
" id="DejaVuSans-102"/>
     <path d="M 9.421875 54.6875 
L 18.40625 54.6875 
L 18.40625 -0.984375 
Q 18.40625 -11.421875 14.421875 -16.109375 
Q 10.453125 -20.796875 1.609375 -20.796875 
L -1.8125 -20.796875 
L -1.8125 -13.1875 
L 0.59375 -13.1875 
Q 5.71875 -13.1875 7.5625 -10.8125 
Q 9.421875 -8.453125 9.421875 -0.984375 
z
M 9.421875 75.984375 
L 18.40625 75.984375 
L 18.40625 64.59375 
L 9.421875 64.59375 
z
" id="DejaVuSans-106"/>
    </defs>
    <use xlink:href="#DejaVuSans-83"/>
    <use x="63.476562" xlink:href="#DejaVuSans-111"/>
    <use x="124.658203" xlink:href="#DejaVuSans-117"/>
    <use x="188.037109" xlink:href="#DejaVuSans-114"/>
    <use x="226.900391" xlink:href="#DejaVuSans-99"/>
    <use x="281.880859" xlink:href="#DejaVuSans-101"/>
    <use x="343.404297" xlink:href="#DejaVuSans-32"/>
    <use x="375.191406" xlink:href="#DejaVuSans-99"/>
    <use x="430.171875" xlink:href="#DejaVuSans-111"/>
    <use x="491.353516" xlink:href="#DejaVuSans-100"/>
    <use x="554.830078" xlink:href="#DejaVuSans-101"/>
    <use x="616.353516" xlink:href="#DejaVuSans-58"/>
    <use x="650.044922" xlink:href="#DejaVuSans-32"/>
    <use x="681.832031" xlink:href="#DejaVuSans-104"/>
    <use x="745.210938" xlink:href="#DejaVuSans-116"/>
    <use x="784.419922" xlink:href="#DejaVuSans-116"/>
    <use x="823.628906" xlink:href="#DejaVuSans-112"/>
    <use x="887.105469" xlink:href="#DejaVuSans-58"/>
    <use x="920.796875" xlink:href="#DejaVuSans-47"/>
    <use x="954.488281" xlink:href="#DejaVuSans-47"/>
    <use x="988.179688" xlink:href="#DejaVuSans-103"/>
    <use x="1051.65625" xlink:href="#DejaVuSans-105"/>
    <use x="1079.439453" xlink:href="#DejaVuSans-116"/>
    <use x="1118.648438" xlink:href="#DejaVuSans-104"/>
    <use x="1182.027344" xlink:href="#DejaVuSans-117"/>
    <use x="1245.40625" xlink:href="#DejaVuSans-98"/>
    <use x="1308.882812" xlink:href="#DejaVuSans-46"/>
    <use x="1340.669922" xlink:href="#DejaVuSans-99"/>
    <use x="1395.650391" xlink:href="#DejaVuSans-111"/>
    <use x="1456.832031" xlink:href="#DejaVuSans-109"/>
    <use x="1554.244141" xlink:href="#DejaVuSans-47"/>
    <use x="1587.935547" xlink:href="#DejaVuSans-114"/>
    <use x="1626.798828" xlink:href="#DejaVuSans-101"/>
    <use x="1688.322266" xlink:href="#DejaVuSans-97"/>
    <use x="1749.601562" xlink:href="#DejaVuSans-108"/>
    <use x="1777.384766" xlink:href="#DejaVuSans-114"/>
    <use x="1816.248047" xlink:href="#DejaVuSans-111"/>
    <use x="1877.429688" xlink:href="#DejaVuSans-108"/>
    <use x="1905.212891" xlink:href="#DejaVuSans-102"/>
    <use x="1940.417969" xlink:href="#DejaVuSans-106"/>
    <use x="1968.201172" xlink:href="#DejaVuSans-101"/>
    <use x="2029.724609" xlink:href="#DejaVuSans-47"/>
    <use x="2063.416016" xlink:href="#DejaVuSans-99"/>
    <use x="2118.396484" xlink:href="#DejaVuSans-111"/>
    <use x="2179.578125" xlink:href="#DejaVuSans-114"/>
    <use x="2218.441406" xlink:href="#DejaVuSans-111"/>
    <use x="2279.623047" xlink:href="#DejaVuSans-110"/>
    <use x="2343.001953" xlink:href="#DejaVuSans-97"/>
    <use x="2404.28125" xlink:href="#DejaVuSans-100"/>
    <use x="2467.757812" xlink:href="#DejaVuSans-97"/>
    <use x="2529.037109" xlink:href="#DejaVuSans-116"/>
    <use x="2568.246094" xlink:href="#DejaVuSans-97"/>
   </g>
  </g>
  <g id="text_20">
   <!-- Bron: https://data.rivm.nl/covid-19 -->
   <g style="fill:#808080;" transform="translate(574.79875 213.84)scale(0.08 -0.08)">
    <defs>
     <path d="M 19.671875 34.8125 
L 19.671875 8.109375 
L 35.5 8.109375 
Q 43.453125 8.109375 47.28125 11.40625 
Q 51.125 14.703125 51.125 21.484375 
Q 51.125 28.328125 47.28125 31.5625 
Q 43.453125 34.8125 35.5 34.8125 
z
M 19.671875 64.796875 
L 19.671875 42.828125 
L 34.28125 42.828125 
Q 41.5 42.828125 45.03125 45.53125 
Q 48.578125 48.25 48.578125 53.8125 
Q 48.578125 59.328125 45.03125 62.0625 
Q 41.5 64.796875 34.28125 64.796875 
z
M 9.8125 72.90625 
L 35.015625 72.90625 
Q 46.296875 72.90625 52.390625 68.21875 
Q 58.5 63.53125 58.5 54.890625 
Q 58.5 48.1875 55.375 44.234375 
Q 52.25 40.28125 46.1875 39.3125 
Q 53.46875 37.75 57.5 32.78125 
Q 61.53125 27.828125 61.53125 20.40625 
Q 61.53125 10.640625 54.890625 5.3125 
Q 48.25 0 35.984375 0 
L 9.8125 0 
z
" id="DejaVuSans-66"/>
     <path d="M 44.28125 53.078125 
L 44.28125 44.578125 
Q 40.484375 46.53125 36.375 47.5 
Q 32.28125 48.484375 27.875 48.484375 
Q 21.1875 48.484375 17.84375 46.4375 
Q 14.5 44.390625 14.5 40.28125 
Q 14.5 37.15625 16.890625 35.375 
Q 19.28125 33.59375 26.515625 31.984375 
L 29.59375 31.296875 
Q 39.15625 29.25 43.1875 25.515625 
Q 47.21875 21.78125 47.21875 15.09375 
Q 47.21875 7.46875 41.1875 3.015625 
Q 35.15625 -1.421875 24.609375 -1.421875 
Q 20.21875 -1.421875 15.453125 -0.5625 
Q 10.6875 0.296875 5.421875 2 
L 5.421875 11.28125 
Q 10.40625 8.6875 15.234375 7.390625 
Q 20.0625 6.109375 24.8125 6.109375 
Q 31.15625 6.109375 34.5625 8.28125 
Q 37.984375 10.453125 37.984375 14.40625 
Q 37.984375 18.0625 35.515625 20.015625 
Q 33.0625 21.96875 24.703125 23.78125 
L 21.578125 24.515625 
Q 13.234375 26.265625 9.515625 29.90625 
Q 5.8125 33.546875 5.8125 39.890625 
Q 5.8125 47.609375 11.28125 51.796875 
Q 16.75 56 26.8125 56 
Q 31.78125 56 36.171875 55.265625 
Q 40.578125 54.546875 44.28125 53.078125 
z
" id="DejaVuSans-115"/>
     <path d="M 2.984375 54.6875 
L 12.5 54.6875 
L 29.59375 8.796875 
L 46.6875 54.6875 
L 56.203125 54.6875 
L 35.6875 0 
L 23.484375 0 
z
" id="DejaVuSans-118"/>
    </defs>
    <use xlink:href="#DejaVuSans-66"/>
    <use x="68.603516" xlink:href="#DejaVuSans-114"/>
    <use x="107.466797" xlink:href="#DejaVuSans-111"/>
    <use x="168.648438" xlink:href="#DejaVuSans-110"/>
    <use x="232.027344" xlink:href="#DejaVuSans-58"/>
    <use x="265.71875" xlink:href="#DejaVuSans-32"/>
    <use x="297.505859" xlink:href="#DejaVuSans-104"/>
    <use x="360.884766" xlink:href="#DejaVuSans-116"/>
    <use x="400.09375" xlink:href="#DejaVuSans-116"/>
    <use x="439.302734" xlink:href="#DejaVuSans-112"/>
    <use x="502.779297" xlink:href="#DejaVuSans-115"/>
    <use x="554.878906" xlink:href="#DejaVuSans-58"/>
    <use x="588.570312" xlink:href="#DejaVuSans-47"/>
    <use x="622.261719" xlink:href="#DejaVuSans-47"/>
    <use x="655.953125" xlink:href="#DejaVuSans-100"/>
    <use x="719.429688" xlink:href="#DejaVuSans-97"/>
    <use x="780.708984" xlink:href="#DejaVuSans-116"/>
    <use x="819.917969" xlink:href="#DejaVuSans-97"/>
    <use x="881.197266" xlink:href="#DejaVuSans-46"/>
    <use x="912.984375" xlink:href="#DejaVuSans-114"/>
    <use x="954.097656" xlink:href="#DejaVuSans-105"/>
    <use x="981.880859" xlink:href="#DejaVuSans-118"/>
    <use x="1041.060547" xlink:href="#DejaVuSans-109"/>
    <use x="1138.472656" xlink:href="#DejaVuSans-46"/>
    <use x="1170.259766" xlink:href="#DejaVuSans-110"/>
    <use x="1233.638672" xlink:href="#DejaVuSans-108"/>
    <use x="1261.421875" xlink:href="#DejaVuSans-47"/>
    <use x="1295.113281" xlink:href="#DejaVuSans-99"/>
    <use x="1350.09375" xlink:href="#DejaVuSans-111"/>
    <use x="1411.275391" xlink:href="#DejaVuSans-118"/>
    <use x="1470.455078" xlink:href="#DejaVuSans-105"/>
    <use x="1498.238281" xlink:href="#DejaVuSans-100"/>
    <use x="1561.714844" xlink:href="#DejaVuSans-45"/>
    <use x="1597.798828" xlink:href="#DejaVuSans-49"/>
    <use x="1661.421875" xlink:href="#DejaVuSans-57"/>
   </g>
  </g>
  <g id="text_21">
   <g id="patch_9">
    <path d="M 637.2 176.62375 
L 647.38 176.62375 
L 647.38 168.88125 
L 637.2 168.88125 
z
" style="fill:#ffffff;opacity:0.9;stroke:#ffffff;stroke-linejoin:miter;"/>
   </g>
   <!-- 23 -->
   <g style="fill:#ff0000;" transform="translate(637.2 174.96)scale(0.08 -0.08)">
    <use xlink:href="#DejaVuSans-50"/>
    <use x="63.623047" xlink:href="#DejaVuSans-51"/>
   </g>
  </g>
 </g>
 <defs>
  <clipPath id="pcb114eaefd">
   <rect height="146.88" width="590.4" x="64.8" y="25.92"/>
  </clipPath>
 </defs>
</svg>
