<?xml version="1.0" encoding="utf-8" standalone="no"?>
<!DOCTYPE svg PUBLIC "-//W3C//DTD SVG 1.1//EN"
  "http://www.w3.org/Graphics/SVG/1.1/DTD/svg11.dtd">
<!-- Created with matplotlib (https://matplotlib.org/) -->
<svg height="216pt" version="1.1" viewBox="0 0 720 216" width="720pt" xmlns="http://www.w3.org/2000/svg" xmlns:xlink="http://www.w3.org/1999/xlink">
 <metadata>
  <rdf:RDF xmlns:cc="http://creativecommons.org/ns#" xmlns:dc="http://purl.org/dc/elements/1.1/" xmlns:rdf="http://www.w3.org/1999/02/22-rdf-syntax-ns#">
   <cc:Work>
    <dc:type rdf:resource="http://purl.org/dc/dcmitype/StillImage"/>
    <dc:date>2020-11-12T11:18:54.475208</dc:date>
    <dc:format>image/svg+xml</dc:format>
    <dc:creator>
     <cc:Agent>
      <dc:title>Matplotlib v3.3.2, https://matplotlib.org/</dc:title>
     </cc:Agent>
    </dc:creator>
   </cc:Work>
  </rdf:RDF>
 </metadata>
 <defs>
  <style type="text/css">*{stroke-linecap:butt;stroke-linejoin:round;}</style>
 </defs>
 <g id="figure_1">
  <g id="patch_1">
   <path d="M 0 216 
L 720 216 
L 720 0 
L 0 0 
z
" style="fill:#ffffff;"/>
  </g>
  <g id="axes_1">
   <g id="patch_2">
    <path d="M 64.8 172.8 
L 655.2 172.8 
L 655.2 25.92 
L 64.8 25.92 
z
" style="fill:#ffffff;"/>
   </g>
   <g id="PolyCollection_1">
    <path clip-path="url(#p93f1c57cc6)" d="M 97.150685 123.84 
L 97.150685 123.84 
L 99.172603 123.84 
L 101.194521 123.84 
L 103.216438 123.84 
L 105.238356 123.84 
L 107.260274 123.84 
L 109.282192 123.84 
L 111.30411 123.84 
L 113.326027 123.84 
L 115.347945 123.84 
L 117.369863 123.84 
L 119.391781 123.84 
L 121.413699 123.84 
L 123.435616 123.84 
L 125.457534 123.84 
L 127.479452 123.84 
L 129.50137 123.84 
L 131.523288 123.84 
L 133.545205 123.84 
L 135.567123 123.84 
L 137.589041 123.84 
L 139.610959 123.84 
L 141.632877 123.84 
L 143.654795 123.84 
L 145.676712 123.84 
L 147.69863 123.84 
L 149.720548 123.84 
L 151.742466 123.84 
L 152.753425 123.84 
L 151.742466 121.8816 
L 149.720548 116.0064 
L 147.69863 111.6 
L 145.676712 107.6832 
L 143.654795 102.7872 
L 141.632877 96.912 
L 139.610959 91.0368 
L 137.589041 84.672 
L 135.567123 79.776 
L 133.545205 80.2656 
L 131.523288 81.7344 
L 129.50137 82.7136 
L 127.479452 83.6928 
L 125.457534 85.1616 
L 123.435616 83.2032 
L 121.413699 75.3696 
L 119.391781 69.984 
L 117.369863 71.9424 
L 115.347945 71.9424 
L 113.326027 67.536 
L 111.30411 65.088 
L 109.282192 66.0672 
L 107.260274 66.5568 
L 105.238356 73.4112 
L 103.216438 87.6096 
L 101.194521 94.9536 
L 99.172603 87.6096 
L 97.150685 78.3072 
z
" style="fill:#ff0000;fill-opacity:0.3;"/>
    <path clip-path="url(#p93f1c57cc6)" d="M 277.10137 123.84 
L 279.123288 123.84 
L 281.145205 123.84 
L 283.167123 123.84 
L 284.515068 123.84 
L 283.167123 119.9232 
L 281.145205 117.4752 
L 279.123288 119.9232 
z
" style="fill:#ff0000;fill-opacity:0.3;"/>
    <path clip-path="url(#p93f1c57cc6)" d="M 315.113425 123.84 
L 315.517808 123.84 
L 317.539726 123.84 
L 319.561644 123.84 
L 321.583562 123.84 
L 323.605479 123.84 
L 325.627397 123.84 
L 327.281694 123.84 
L 325.627397 115.0272 
L 323.605479 109.152 
L 321.583562 111.1104 
L 319.561644 116.9856 
L 317.539726 121.392 
L 315.517808 123.3504 
z
" style="fill:#ff0000;fill-opacity:0.3;"/>
    <path clip-path="url(#p93f1c57cc6)" d="M 345.442192 123.84 
L 345.846575 123.84 
L 347.868493 123.84 
L 349.890411 123.84 
L 350.294795 123.84 
L 349.890411 123.3504 
L 347.868493 122.3712 
L 345.846575 123.3504 
z
" style="fill:#ff0000;fill-opacity:0.3;"/>
    <path clip-path="url(#p93f1c57cc6)" d="M 367.278904 123.84 
L 368.087671 123.84 
L 370.109589 123.84 
L 372.131507 123.84 
L 374.153425 123.84 
L 376.175342 123.84 
L 378.19726 123.84 
L 380.219178 123.84 
L 382.241096 123.84 
L 384.263014 123.84 
L 386.284932 123.84 
L 388.306849 123.84 
L 390.328767 123.84 
L 392.350685 123.84 
L 394.372603 123.84 
L 396.394521 123.84 
L 398.416438 123.84 
L 400.438356 123.84 
L 402.460274 123.84 
L 404.482192 123.84 
L 406.50411 123.84 
L 408.526027 123.84 
L 410.547945 123.84 
L 412.569863 123.84 
L 414.591781 123.84 
L 416.613699 123.84 
L 418.635616 123.84 
L 420.657534 123.84 
L 422.679452 123.84 
L 424.70137 123.84 
L 426.723288 123.84 
L 428.745205 123.84 
L 430.767123 123.84 
L 432.789041 123.84 
L 434.810959 123.84 
L 436.832877 123.84 
L 437.843836 123.84 
L 436.832877 122.8608 
L 434.810959 118.944 
L 432.789041 115.0272 
L 430.767123 112.5792 
L 428.745205 111.6 
L 426.723288 112.5792 
L 424.70137 112.5792 
L 422.679452 111.6 
L 420.657534 108.6624 
L 418.635616 104.7456 
L 416.613699 103.2768 
L 414.591781 103.7664 
L 412.569863 106.704 
L 410.547945 109.152 
L 408.526027 109.6416 
L 406.50411 109.152 
L 404.482192 108.6624 
L 402.460274 110.1312 
L 400.438356 113.0688 
L 398.416438 115.5168 
L 396.394521 116.0064 
L 394.372603 113.0688 
L 392.350685 107.6832 
L 390.328767 103.7664 
L 388.306849 102.7872 
L 386.284932 103.7664 
L 384.263014 105.2352 
L 382.241096 105.7248 
L 380.219178 104.256 
L 378.19726 102.2976 
L 376.175342 101.3184 
L 374.153425 104.7456 
L 372.131507 111.6 
L 370.109589 118.4544 
L 368.087671 122.8608 
z
" style="fill:#ff0000;fill-opacity:0.3;"/>
    <path clip-path="url(#p93f1c57cc6)" d="M 466.150685 123.84 
L 467.161644 123.84 
L 469.183562 123.84 
L 471.205479 123.84 
L 473.227397 123.84 
L 475.249315 123.84 
L 477.271233 123.84 
L 479.293151 123.84 
L 481.315068 123.84 
L 483.336986 123.84 
L 485.358904 123.84 
L 487.380822 123.84 
L 489.40274 123.84 
L 491.424658 123.84 
L 493.446575 123.84 
L 495.468493 123.84 
L 497.490411 123.84 
L 499.512329 123.84 
L 501.534247 123.84 
L 503.556164 123.84 
L 505.578082 123.84 
L 507.6 123.84 
L 509.621918 123.84 
L 511.643836 123.84 
L 513.665753 123.84 
L 515.687671 123.84 
L 517.709589 123.84 
L 519.731507 123.84 
L 521.753425 123.84 
L 523.775342 123.84 
L 525.79726 123.84 
L 527.819178 123.84 
L 529.841096 123.84 
L 531.863014 123.84 
L 533.884932 123.84 
L 535.906849 123.84 
L 537.928767 123.84 
L 539.950685 123.84 
L 541.972603 123.84 
L 543.994521 123.84 
L 546.016438 123.84 
L 548.038356 123.84 
L 550.060274 123.84 
L 552.082192 123.84 
L 554.10411 123.84 
L 556.126027 123.84 
L 558.147945 123.84 
L 560.169863 123.84 
L 562.191781 123.84 
L 564.213699 123.84 
L 566.235616 123.84 
L 568.257534 123.84 
L 570.279452 123.84 
L 572.30137 123.84 
L 574.323288 123.84 
L 576.345205 123.84 
L 578.367123 123.84 
L 580.389041 123.84 
L 582.410959 123.84 
L 584.432877 123.84 
L 586.454795 123.84 
L 588.476712 123.84 
L 590.49863 123.84 
L 591.711781 123.84 
L 590.49863 122.3712 
L 588.476712 120.9024 
L 586.454795 119.9232 
L 584.432877 119.9232 
L 582.410959 119.9232 
L 580.389041 119.9232 
L 578.367123 119.4336 
L 576.345205 118.4544 
L 574.323288 117.4752 
L 572.30137 117.4752 
L 570.279452 117.9648 
L 568.257534 118.944 
L 566.235616 118.944 
L 564.213699 118.944 
L 562.191781 117.4752 
L 560.169863 115.5168 
L 558.147945 114.5376 
L 556.126027 113.5584 
L 554.10411 112.5792 
L 552.082192 111.1104 
L 550.060274 109.6416 
L 548.038356 108.1728 
L 546.016438 107.1936 
L 543.994521 108.1728 
L 541.972603 110.1312 
L 539.950685 113.0688 
L 537.928767 115.0272 
L 535.906849 116.0064 
L 533.884932 115.5168 
L 531.863014 114.5376 
L 529.841096 114.5376 
L 527.819178 115.5168 
L 525.79726 116.496 
L 523.775342 116.496 
L 521.753425 115.0272 
L 519.731507 112.5792 
L 517.709589 110.1312 
L 515.687671 109.6416 
L 513.665753 110.6208 
L 511.643836 111.6 
L 509.621918 112.5792 
L 507.6 112.0896 
L 505.578082 109.6416 
L 503.556164 107.6832 
L 501.534247 107.1936 
L 499.512329 107.1936 
L 497.490411 107.1936 
L 495.468493 107.6832 
L 493.446575 106.2144 
L 491.424658 103.7664 
L 489.40274 102.2976 
L 487.380822 104.7456 
L 485.358904 108.6624 
L 483.336986 112.5792 
L 481.315068 115.0272 
L 479.293151 115.5168 
L 477.271233 115.5168 
L 475.249315 115.5168 
L 473.227397 116.9856 
L 471.205479 118.944 
L 469.183562 121.392 
L 467.161644 123.3504 
z
" style="fill:#ff0000;fill-opacity:0.3;"/>
   </g>
   <g id="PolyCollection_2">
    <path clip-path="url(#p93f1c57cc6)" d="M 152.753425 123.84 
L 153.764384 123.84 
L 155.786301 123.84 
L 157.808219 123.84 
L 159.830137 123.84 
L 161.852055 123.84 
L 163.873973 123.84 
L 165.89589 123.84 
L 167.917808 123.84 
L 169.939726 123.84 
L 171.961644 123.84 
L 173.983562 123.84 
L 176.005479 123.84 
L 178.027397 123.84 
L 180.049315 123.84 
L 182.071233 123.84 
L 184.093151 123.84 
L 186.115068 123.84 
L 188.136986 123.84 
L 190.158904 123.84 
L 192.180822 123.84 
L 194.20274 123.84 
L 196.224658 123.84 
L 198.246575 123.84 
L 200.268493 123.84 
L 202.290411 123.84 
L 204.312329 123.84 
L 206.334247 123.84 
L 208.356164 123.84 
L 210.378082 123.84 
L 212.4 123.84 
L 214.421918 123.84 
L 216.443836 123.84 
L 218.465753 123.84 
L 220.487671 123.84 
L 222.509589 123.84 
L 224.531507 123.84 
L 226.553425 123.84 
L 228.575342 123.84 
L 230.59726 123.84 
L 232.619178 123.84 
L 234.641096 123.84 
L 236.663014 123.84 
L 238.684932 123.84 
L 240.706849 123.84 
L 242.728767 123.84 
L 244.750685 123.84 
L 246.772603 123.84 
L 248.794521 123.84 
L 250.816438 123.84 
L 252.838356 123.84 
L 254.860274 123.84 
L 256.882192 123.84 
L 258.90411 123.84 
L 260.926027 123.84 
L 262.947945 123.84 
L 264.969863 123.84 
L 266.991781 123.84 
L 269.013699 123.84 
L 271.035616 123.84 
L 273.057534 123.84 
L 275.079452 123.84 
L 277.10137 123.84 
L 277.10137 123.84 
L 277.10137 123.84 
L 275.079452 128.2464 
L 273.057534 131.6736 
L 271.035616 133.632 
L 269.013699 134.6112 
L 266.991781 135.1008 
L 264.969863 134.6112 
L 262.947945 133.1424 
L 260.926027 132.6528 
L 258.90411 132.6528 
L 256.882192 132.1632 
L 254.860274 132.1632 
L 252.838356 133.632 
L 250.816438 135.5904 
L 248.794521 137.5488 
L 246.772603 139.0176 
L 244.750685 139.0176 
L 242.728767 138.0384 
L 240.706849 137.5488 
L 238.684932 137.0592 
L 236.663014 136.08 
L 234.641096 135.1008 
L 232.619178 135.1008 
L 230.59726 135.1008 
L 228.575342 136.5696 
L 226.553425 137.5488 
L 224.531507 138.528 
L 222.509589 137.5488 
L 220.487671 136.08 
L 218.465753 135.1008 
L 216.443836 135.1008 
L 214.421918 135.5904 
L 212.4 136.5696 
L 210.378082 137.5488 
L 208.356164 138.528 
L 206.334247 139.0176 
L 204.312329 138.528 
L 202.290411 137.0592 
L 200.268493 134.6112 
L 198.246575 133.1424 
L 196.224658 134.1216 
L 194.20274 135.1008 
L 192.180822 136.08 
L 190.158904 137.5488 
L 188.136986 139.0176 
L 186.115068 139.0176 
L 184.093151 138.0384 
L 182.071233 136.08 
L 180.049315 135.5904 
L 178.027397 135.5904 
L 176.005479 136.5696 
L 173.983562 137.5488 
L 171.961644 138.0384 
L 169.939726 138.0384 
L 167.917808 137.5488 
L 165.89589 136.08 
L 163.873973 134.1216 
L 161.852055 133.1424 
L 159.830137 131.6736 
L 157.808219 129.7152 
L 155.786301 127.7568 
L 153.764384 125.7984 
z
" style="fill:#008000;fill-opacity:0.3;"/>
    <path clip-path="url(#p93f1c57cc6)" d="M 284.515068 123.84 
L 285.189041 123.84 
L 287.210959 123.84 
L 289.232877 123.84 
L 291.254795 123.84 
L 293.276712 123.84 
L 295.29863 123.84 
L 297.320548 123.84 
L 299.342466 123.84 
L 301.364384 123.84 
L 303.386301 123.84 
L 305.408219 123.84 
L 307.430137 123.84 
L 309.452055 123.84 
L 311.473973 123.84 
L 313.49589 123.84 
L 315.113425 123.84 
L 313.49589 125.7984 
L 311.473973 132.6528 
L 309.452055 139.9968 
L 307.430137 144.4032 
L 305.408219 147.3408 
L 303.386301 149.2992 
L 301.364384 149.2992 
L 299.342466 145.3824 
L 297.320548 139.5072 
L 295.29863 137.0592 
L 293.276712 133.632 
L 291.254795 129.7152 
L 289.232877 129.7152 
L 287.210959 129.7152 
L 285.189041 125.7984 
z
" style="fill:#008000;fill-opacity:0.3;"/>
    <path clip-path="url(#p93f1c57cc6)" d="M 327.281694 123.84 
L 327.649315 123.84 
L 329.671233 123.84 
L 331.693151 123.84 
L 333.715068 123.84 
L 335.736986 123.84 
L 337.758904 123.84 
L 339.780822 123.84 
L 341.80274 123.84 
L 343.824658 123.84 
L 345.442192 123.84 
L 343.824658 125.7984 
L 341.80274 129.2256 
L 339.780822 133.1424 
L 337.758904 135.5904 
L 335.736986 137.0592 
L 333.715068 137.0592 
L 331.693151 136.08 
L 329.671233 133.632 
L 327.649315 125.7984 
z
" style="fill:#008000;fill-opacity:0.3;"/>
    <path clip-path="url(#p93f1c57cc6)" d="M 350.294795 123.84 
L 351.912329 123.84 
L 353.934247 123.84 
L 355.956164 123.84 
L 357.978082 123.84 
L 360 123.84 
L 362.021918 123.84 
L 364.043836 123.84 
L 366.065753 123.84 
L 367.278904 123.84 
L 366.065753 125.3088 
L 364.043836 126.288 
L 362.021918 126.7776 
L 360 127.2672 
L 357.978082 128.2464 
L 355.956164 128.736 
L 353.934247 127.7568 
L 351.912329 125.7984 
z
" style="fill:#008000;fill-opacity:0.3;"/>
    <path clip-path="url(#p93f1c57cc6)" d="M 437.843836 123.84 
L 438.854795 123.84 
L 440.876712 123.84 
L 442.89863 123.84 
L 444.920548 123.84 
L 446.942466 123.84 
L 448.964384 123.84 
L 450.986301 123.84 
L 453.008219 123.84 
L 455.030137 123.84 
L 457.052055 123.84 
L 459.073973 123.84 
L 461.09589 123.84 
L 463.117808 123.84 
L 465.139726 123.84 
L 466.150685 123.84 
L 465.139726 124.3296 
L 463.117808 124.8192 
L 461.09589 125.7984 
L 459.073973 126.7776 
L 457.052055 127.2672 
L 455.030137 127.7568 
L 453.008219 127.7568 
L 450.986301 126.7776 
L 448.964384 125.7984 
L 446.942466 125.3088 
L 444.920548 125.7984 
L 442.89863 126.288 
L 440.876712 126.288 
L 438.854795 124.8192 
z
" style="fill:#008000;fill-opacity:0.3;"/>
    <path clip-path="url(#p93f1c57cc6)" d="M 591.711781 123.84 
L 592.520548 123.84 
L 594.542466 123.84 
L 596.564384 123.84 
L 598.586301 123.84 
L 600.608219 123.84 
L 600.608219 123.84 
L 600.608219 128.2464 
L 598.586301 127.7568 
L 596.564384 126.7776 
L 594.542466 126.288 
L 592.520548 124.8192 
z
" style="fill:#008000;fill-opacity:0.3;"/>
   </g>
   <g id="matplotlib.axis_1">
    <g id="xtick_1">
     <g id="line2d_1">
      <path clip-path="url(#p93f1c57cc6)" d="M 64.8 172.8 
L 64.8 25.92 
" style="fill:none;stroke:#808080;stroke-dasharray:6.4,1.6,1,1.6;stroke-dashoffset:0;stroke-opacity:0.3;"/>
     </g>
     <g id="line2d_2">
      <defs>
       <path d="M 0 0 
L 0 3.5 
" id="m8aa7d254c4" style="stroke:#000000;stroke-width:0.8;"/>
      </defs>
      <g>
       <use style="stroke:#000000;stroke-width:0.8;" x="64.8" xlink:href="#m8aa7d254c4" y="172.8"/>
      </g>
     </g>
     <g id="text_1">
      <!-- 2020-02 -->
      <g transform="translate(43.908594 187.398438)scale(0.1 -0.1)">
       <defs>
        <path d="M 19.1875 8.296875 
L 53.609375 8.296875 
L 53.609375 0 
L 7.328125 0 
L 7.328125 8.296875 
Q 12.9375 14.109375 22.625 23.890625 
Q 32.328125 33.6875 34.8125 36.53125 
Q 39.546875 41.84375 41.421875 45.53125 
Q 43.3125 49.21875 43.3125 52.78125 
Q 43.3125 58.59375 39.234375 62.25 
Q 35.15625 65.921875 28.609375 65.921875 
Q 23.96875 65.921875 18.8125 64.3125 
Q 13.671875 62.703125 7.8125 59.421875 
L 7.8125 69.390625 
Q 13.765625 71.78125 18.9375 73 
Q 24.125 74.21875 28.421875 74.21875 
Q 39.75 74.21875 46.484375 68.546875 
Q 53.21875 62.890625 53.21875 53.421875 
Q 53.21875 48.921875 51.53125 44.890625 
Q 49.859375 40.875 45.40625 35.40625 
Q 44.1875 33.984375 37.640625 27.21875 
Q 31.109375 20.453125 19.1875 8.296875 
z
" id="DejaVuSans-50"/>
        <path d="M 31.78125 66.40625 
Q 24.171875 66.40625 20.328125 58.90625 
Q 16.5 51.421875 16.5 36.375 
Q 16.5 21.390625 20.328125 13.890625 
Q 24.171875 6.390625 31.78125 6.390625 
Q 39.453125 6.390625 43.28125 13.890625 
Q 47.125 21.390625 47.125 36.375 
Q 47.125 51.421875 43.28125 58.90625 
Q 39.453125 66.40625 31.78125 66.40625 
z
M 31.78125 74.21875 
Q 44.046875 74.21875 50.515625 64.515625 
Q 56.984375 54.828125 56.984375 36.375 
Q 56.984375 17.96875 50.515625 8.265625 
Q 44.046875 -1.421875 31.78125 -1.421875 
Q 19.53125 -1.421875 13.0625 8.265625 
Q 6.59375 17.96875 6.59375 36.375 
Q 6.59375 54.828125 13.0625 64.515625 
Q 19.53125 74.21875 31.78125 74.21875 
z
" id="DejaVuSans-48"/>
        <path d="M 4.890625 31.390625 
L 31.203125 31.390625 
L 31.203125 23.390625 
L 4.890625 23.390625 
z
" id="DejaVuSans-45"/>
       </defs>
       <use xlink:href="#DejaVuSans-50"/>
       <use x="63.623047" xlink:href="#DejaVuSans-48"/>
       <use x="127.246094" xlink:href="#DejaVuSans-50"/>
       <use x="190.869141" xlink:href="#DejaVuSans-48"/>
       <use x="254.492188" xlink:href="#DejaVuSans-45"/>
       <use x="290.576172" xlink:href="#DejaVuSans-48"/>
       <use x="354.199219" xlink:href="#DejaVuSans-50"/>
      </g>
     </g>
    </g>
    <g id="xtick_2">
     <g id="line2d_3">
      <path clip-path="url(#p93f1c57cc6)" d="M 123.435616 172.8 
L 123.435616 25.92 
" style="fill:none;stroke:#808080;stroke-dasharray:6.4,1.6,1,1.6;stroke-dashoffset:0;stroke-opacity:0.3;"/>
     </g>
     <g id="line2d_4">
      <g>
       <use style="stroke:#000000;stroke-width:0.8;" x="123.435616" xlink:href="#m8aa7d254c4" y="172.8"/>
      </g>
     </g>
     <g id="text_2">
      <!-- 2020-03 -->
      <g transform="translate(102.54421 187.398438)scale(0.1 -0.1)">
       <defs>
        <path d="M 40.578125 39.3125 
Q 47.65625 37.796875 51.625 33 
Q 55.609375 28.21875 55.609375 21.1875 
Q 55.609375 10.40625 48.1875 4.484375 
Q 40.765625 -1.421875 27.09375 -1.421875 
Q 22.515625 -1.421875 17.65625 -0.515625 
Q 12.796875 0.390625 7.625 2.203125 
L 7.625 11.71875 
Q 11.71875 9.328125 16.59375 8.109375 
Q 21.484375 6.890625 26.8125 6.890625 
Q 36.078125 6.890625 40.9375 10.546875 
Q 45.796875 14.203125 45.796875 21.1875 
Q 45.796875 27.640625 41.28125 31.265625 
Q 36.765625 34.90625 28.71875 34.90625 
L 20.21875 34.90625 
L 20.21875 43.015625 
L 29.109375 43.015625 
Q 36.375 43.015625 40.234375 45.921875 
Q 44.09375 48.828125 44.09375 54.296875 
Q 44.09375 59.90625 40.109375 62.90625 
Q 36.140625 65.921875 28.71875 65.921875 
Q 24.65625 65.921875 20.015625 65.03125 
Q 15.375 64.15625 9.8125 62.3125 
L 9.8125 71.09375 
Q 15.4375 72.65625 20.34375 73.4375 
Q 25.25 74.21875 29.59375 74.21875 
Q 40.828125 74.21875 47.359375 69.109375 
Q 53.90625 64.015625 53.90625 55.328125 
Q 53.90625 49.265625 50.4375 45.09375 
Q 46.96875 40.921875 40.578125 39.3125 
z
" id="DejaVuSans-51"/>
       </defs>
       <use xlink:href="#DejaVuSans-50"/>
       <use x="63.623047" xlink:href="#DejaVuSans-48"/>
       <use x="127.246094" xlink:href="#DejaVuSans-50"/>
       <use x="190.869141" xlink:href="#DejaVuSans-48"/>
       <use x="254.492188" xlink:href="#DejaVuSans-45"/>
       <use x="290.576172" xlink:href="#DejaVuSans-48"/>
       <use x="354.199219" xlink:href="#DejaVuSans-51"/>
      </g>
     </g>
    </g>
    <g id="xtick_3">
     <g id="line2d_5">
      <path clip-path="url(#p93f1c57cc6)" d="M 186.115068 172.8 
L 186.115068 25.92 
" style="fill:none;stroke:#808080;stroke-dasharray:6.4,1.6,1,1.6;stroke-dashoffset:0;stroke-opacity:0.3;"/>
     </g>
     <g id="line2d_6">
      <g>
       <use style="stroke:#000000;stroke-width:0.8;" x="186.115068" xlink:href="#m8aa7d254c4" y="172.8"/>
      </g>
     </g>
     <g id="text_3">
      <!-- 2020-04 -->
      <g transform="translate(165.223662 187.398438)scale(0.1 -0.1)">
       <defs>
        <path d="M 37.796875 64.3125 
L 12.890625 25.390625 
L 37.796875 25.390625 
z
M 35.203125 72.90625 
L 47.609375 72.90625 
L 47.609375 25.390625 
L 58.015625 25.390625 
L 58.015625 17.1875 
L 47.609375 17.1875 
L 47.609375 0 
L 37.796875 0 
L 37.796875 17.1875 
L 4.890625 17.1875 
L 4.890625 26.703125 
z
" id="DejaVuSans-52"/>
       </defs>
       <use xlink:href="#DejaVuSans-50"/>
       <use x="63.623047" xlink:href="#DejaVuSans-48"/>
       <use x="127.246094" xlink:href="#DejaVuSans-50"/>
       <use x="190.869141" xlink:href="#DejaVuSans-48"/>
       <use x="254.492188" xlink:href="#DejaVuSans-45"/>
       <use x="290.576172" xlink:href="#DejaVuSans-48"/>
       <use x="354.199219" xlink:href="#DejaVuSans-52"/>
      </g>
     </g>
    </g>
    <g id="xtick_4">
     <g id="line2d_7">
      <path clip-path="url(#p93f1c57cc6)" d="M 246.772603 172.8 
L 246.772603 25.92 
" style="fill:none;stroke:#808080;stroke-dasharray:6.4,1.6,1,1.6;stroke-dashoffset:0;stroke-opacity:0.3;"/>
     </g>
     <g id="line2d_8">
      <g>
       <use style="stroke:#000000;stroke-width:0.8;" x="246.772603" xlink:href="#m8aa7d254c4" y="172.8"/>
      </g>
     </g>
     <g id="text_4">
      <!-- 2020-05 -->
      <g transform="translate(225.881196 187.398438)scale(0.1 -0.1)">
       <defs>
        <path d="M 10.796875 72.90625 
L 49.515625 72.90625 
L 49.515625 64.59375 
L 19.828125 64.59375 
L 19.828125 46.734375 
Q 21.96875 47.46875 24.109375 47.828125 
Q 26.265625 48.1875 28.421875 48.1875 
Q 40.625 48.1875 47.75 41.5 
Q 54.890625 34.8125 54.890625 23.390625 
Q 54.890625 11.625 47.5625 5.09375 
Q 40.234375 -1.421875 26.90625 -1.421875 
Q 22.3125 -1.421875 17.546875 -0.640625 
Q 12.796875 0.140625 7.71875 1.703125 
L 7.71875 11.625 
Q 12.109375 9.234375 16.796875 8.0625 
Q 21.484375 6.890625 26.703125 6.890625 
Q 35.15625 6.890625 40.078125 11.328125 
Q 45.015625 15.765625 45.015625 23.390625 
Q 45.015625 31 40.078125 35.4375 
Q 35.15625 39.890625 26.703125 39.890625 
Q 22.75 39.890625 18.8125 39.015625 
Q 14.890625 38.140625 10.796875 36.28125 
z
" id="DejaVuSans-53"/>
       </defs>
       <use xlink:href="#DejaVuSans-50"/>
       <use x="63.623047" xlink:href="#DejaVuSans-48"/>
       <use x="127.246094" xlink:href="#DejaVuSans-50"/>
       <use x="190.869141" xlink:href="#DejaVuSans-48"/>
       <use x="254.492188" xlink:href="#DejaVuSans-45"/>
       <use x="290.576172" xlink:href="#DejaVuSans-48"/>
       <use x="354.199219" xlink:href="#DejaVuSans-53"/>
      </g>
     </g>
    </g>
    <g id="xtick_5">
     <g id="line2d_9">
      <path clip-path="url(#p93f1c57cc6)" d="M 309.452055 172.8 
L 309.452055 25.92 
" style="fill:none;stroke:#808080;stroke-dasharray:6.4,1.6,1,1.6;stroke-dashoffset:0;stroke-opacity:0.3;"/>
     </g>
     <g id="line2d_10">
      <g>
       <use style="stroke:#000000;stroke-width:0.8;" x="309.452055" xlink:href="#m8aa7d254c4" y="172.8"/>
      </g>
     </g>
     <g id="text_5">
      <!-- 2020-06 -->
      <g transform="translate(288.560649 187.398438)scale(0.1 -0.1)">
       <defs>
        <path d="M 33.015625 40.375 
Q 26.375 40.375 22.484375 35.828125 
Q 18.609375 31.296875 18.609375 23.390625 
Q 18.609375 15.53125 22.484375 10.953125 
Q 26.375 6.390625 33.015625 6.390625 
Q 39.65625 6.390625 43.53125 10.953125 
Q 47.40625 15.53125 47.40625 23.390625 
Q 47.40625 31.296875 43.53125 35.828125 
Q 39.65625 40.375 33.015625 40.375 
z
M 52.59375 71.296875 
L 52.59375 62.3125 
Q 48.875 64.0625 45.09375 64.984375 
Q 41.3125 65.921875 37.59375 65.921875 
Q 27.828125 65.921875 22.671875 59.328125 
Q 17.53125 52.734375 16.796875 39.40625 
Q 19.671875 43.65625 24.015625 45.921875 
Q 28.375 48.1875 33.59375 48.1875 
Q 44.578125 48.1875 50.953125 41.515625 
Q 57.328125 34.859375 57.328125 23.390625 
Q 57.328125 12.15625 50.6875 5.359375 
Q 44.046875 -1.421875 33.015625 -1.421875 
Q 20.359375 -1.421875 13.671875 8.265625 
Q 6.984375 17.96875 6.984375 36.375 
Q 6.984375 53.65625 15.1875 63.9375 
Q 23.390625 74.21875 37.203125 74.21875 
Q 40.921875 74.21875 44.703125 73.484375 
Q 48.484375 72.75 52.59375 71.296875 
z
" id="DejaVuSans-54"/>
       </defs>
       <use xlink:href="#DejaVuSans-50"/>
       <use x="63.623047" xlink:href="#DejaVuSans-48"/>
       <use x="127.246094" xlink:href="#DejaVuSans-50"/>
       <use x="190.869141" xlink:href="#DejaVuSans-48"/>
       <use x="254.492188" xlink:href="#DejaVuSans-45"/>
       <use x="290.576172" xlink:href="#DejaVuSans-48"/>
       <use x="354.199219" xlink:href="#DejaVuSans-54"/>
      </g>
     </g>
    </g>
    <g id="xtick_6">
     <g id="line2d_11">
      <path clip-path="url(#p93f1c57cc6)" d="M 370.109589 172.8 
L 370.109589 25.92 
" style="fill:none;stroke:#808080;stroke-dasharray:6.4,1.6,1,1.6;stroke-dashoffset:0;stroke-opacity:0.3;"/>
     </g>
     <g id="line2d_12">
      <g>
       <use style="stroke:#000000;stroke-width:0.8;" x="370.109589" xlink:href="#m8aa7d254c4" y="172.8"/>
      </g>
     </g>
     <g id="text_6">
      <!-- 2020-07 -->
      <g transform="translate(349.218183 187.398438)scale(0.1 -0.1)">
       <defs>
        <path d="M 8.203125 72.90625 
L 55.078125 72.90625 
L 55.078125 68.703125 
L 28.609375 0 
L 18.3125 0 
L 43.21875 64.59375 
L 8.203125 64.59375 
z
" id="DejaVuSans-55"/>
       </defs>
       <use xlink:href="#DejaVuSans-50"/>
       <use x="63.623047" xlink:href="#DejaVuSans-48"/>
       <use x="127.246094" xlink:href="#DejaVuSans-50"/>
       <use x="190.869141" xlink:href="#DejaVuSans-48"/>
       <use x="254.492188" xlink:href="#DejaVuSans-45"/>
       <use x="290.576172" xlink:href="#DejaVuSans-48"/>
       <use x="354.199219" xlink:href="#DejaVuSans-55"/>
      </g>
     </g>
    </g>
    <g id="xtick_7">
     <g id="line2d_13">
      <path clip-path="url(#p93f1c57cc6)" d="M 432.789041 172.8 
L 432.789041 25.92 
" style="fill:none;stroke:#808080;stroke-dasharray:6.4,1.6,1,1.6;stroke-dashoffset:0;stroke-opacity:0.3;"/>
     </g>
     <g id="line2d_14">
      <g>
       <use style="stroke:#000000;stroke-width:0.8;" x="432.789041" xlink:href="#m8aa7d254c4" y="172.8"/>
      </g>
     </g>
     <g id="text_7">
      <!-- 2020-08 -->
      <g transform="translate(411.897635 187.398438)scale(0.1 -0.1)">
       <defs>
        <path d="M 31.78125 34.625 
Q 24.75 34.625 20.71875 30.859375 
Q 16.703125 27.09375 16.703125 20.515625 
Q 16.703125 13.921875 20.71875 10.15625 
Q 24.75 6.390625 31.78125 6.390625 
Q 38.8125 6.390625 42.859375 10.171875 
Q 46.921875 13.96875 46.921875 20.515625 
Q 46.921875 27.09375 42.890625 30.859375 
Q 38.875 34.625 31.78125 34.625 
z
M 21.921875 38.8125 
Q 15.578125 40.375 12.03125 44.71875 
Q 8.5 49.078125 8.5 55.328125 
Q 8.5 64.0625 14.71875 69.140625 
Q 20.953125 74.21875 31.78125 74.21875 
Q 42.671875 74.21875 48.875 69.140625 
Q 55.078125 64.0625 55.078125 55.328125 
Q 55.078125 49.078125 51.53125 44.71875 
Q 48 40.375 41.703125 38.8125 
Q 48.828125 37.15625 52.796875 32.3125 
Q 56.78125 27.484375 56.78125 20.515625 
Q 56.78125 9.90625 50.3125 4.234375 
Q 43.84375 -1.421875 31.78125 -1.421875 
Q 19.734375 -1.421875 13.25 4.234375 
Q 6.78125 9.90625 6.78125 20.515625 
Q 6.78125 27.484375 10.78125 32.3125 
Q 14.796875 37.15625 21.921875 38.8125 
z
M 18.3125 54.390625 
Q 18.3125 48.734375 21.84375 45.5625 
Q 25.390625 42.390625 31.78125 42.390625 
Q 38.140625 42.390625 41.71875 45.5625 
Q 45.3125 48.734375 45.3125 54.390625 
Q 45.3125 60.0625 41.71875 63.234375 
Q 38.140625 66.40625 31.78125 66.40625 
Q 25.390625 66.40625 21.84375 63.234375 
Q 18.3125 60.0625 18.3125 54.390625 
z
" id="DejaVuSans-56"/>
       </defs>
       <use xlink:href="#DejaVuSans-50"/>
       <use x="63.623047" xlink:href="#DejaVuSans-48"/>
       <use x="127.246094" xlink:href="#DejaVuSans-50"/>
       <use x="190.869141" xlink:href="#DejaVuSans-48"/>
       <use x="254.492188" xlink:href="#DejaVuSans-45"/>
       <use x="290.576172" xlink:href="#DejaVuSans-48"/>
       <use x="354.199219" xlink:href="#DejaVuSans-56"/>
      </g>
     </g>
    </g>
    <g id="xtick_8">
     <g id="line2d_15">
      <path clip-path="url(#p93f1c57cc6)" d="M 495.468493 172.8 
L 495.468493 25.92 
" style="fill:none;stroke:#808080;stroke-dasharray:6.4,1.6,1,1.6;stroke-dashoffset:0;stroke-opacity:0.3;"/>
     </g>
     <g id="line2d_16">
      <g>
       <use style="stroke:#000000;stroke-width:0.8;" x="495.468493" xlink:href="#m8aa7d254c4" y="172.8"/>
      </g>
     </g>
     <g id="text_8">
      <!-- 2020-09 -->
      <g transform="translate(474.577087 187.398438)scale(0.1 -0.1)">
       <defs>
        <path d="M 10.984375 1.515625 
L 10.984375 10.5 
Q 14.703125 8.734375 18.5 7.8125 
Q 22.3125 6.890625 25.984375 6.890625 
Q 35.75 6.890625 40.890625 13.453125 
Q 46.046875 20.015625 46.78125 33.40625 
Q 43.953125 29.203125 39.59375 26.953125 
Q 35.25 24.703125 29.984375 24.703125 
Q 19.046875 24.703125 12.671875 31.3125 
Q 6.296875 37.9375 6.296875 49.421875 
Q 6.296875 60.640625 12.9375 67.421875 
Q 19.578125 74.21875 30.609375 74.21875 
Q 43.265625 74.21875 49.921875 64.515625 
Q 56.59375 54.828125 56.59375 36.375 
Q 56.59375 19.140625 48.40625 8.859375 
Q 40.234375 -1.421875 26.421875 -1.421875 
Q 22.703125 -1.421875 18.890625 -0.6875 
Q 15.09375 0.046875 10.984375 1.515625 
z
M 30.609375 32.421875 
Q 37.25 32.421875 41.125 36.953125 
Q 45.015625 41.5 45.015625 49.421875 
Q 45.015625 57.28125 41.125 61.84375 
Q 37.25 66.40625 30.609375 66.40625 
Q 23.96875 66.40625 20.09375 61.84375 
Q 16.21875 57.28125 16.21875 49.421875 
Q 16.21875 41.5 20.09375 36.953125 
Q 23.96875 32.421875 30.609375 32.421875 
z
" id="DejaVuSans-57"/>
       </defs>
       <use xlink:href="#DejaVuSans-50"/>
       <use x="63.623047" xlink:href="#DejaVuSans-48"/>
       <use x="127.246094" xlink:href="#DejaVuSans-50"/>
       <use x="190.869141" xlink:href="#DejaVuSans-48"/>
       <use x="254.492188" xlink:href="#DejaVuSans-45"/>
       <use x="290.576172" xlink:href="#DejaVuSans-48"/>
       <use x="354.199219" xlink:href="#DejaVuSans-57"/>
      </g>
     </g>
    </g>
    <g id="xtick_9">
     <g id="line2d_17">
      <path clip-path="url(#p93f1c57cc6)" d="M 556.126027 172.8 
L 556.126027 25.92 
" style="fill:none;stroke:#808080;stroke-dasharray:6.4,1.6,1,1.6;stroke-dashoffset:0;stroke-opacity:0.3;"/>
     </g>
     <g id="line2d_18">
      <g>
       <use style="stroke:#000000;stroke-width:0.8;" x="556.126027" xlink:href="#m8aa7d254c4" y="172.8"/>
      </g>
     </g>
     <g id="text_9">
      <!-- 2020-10 -->
      <g transform="translate(535.234621 187.398438)scale(0.1 -0.1)">
       <defs>
        <path d="M 12.40625 8.296875 
L 28.515625 8.296875 
L 28.515625 63.921875 
L 10.984375 60.40625 
L 10.984375 69.390625 
L 28.421875 72.90625 
L 38.28125 72.90625 
L 38.28125 8.296875 
L 54.390625 8.296875 
L 54.390625 0 
L 12.40625 0 
z
" id="DejaVuSans-49"/>
       </defs>
       <use xlink:href="#DejaVuSans-50"/>
       <use x="63.623047" xlink:href="#DejaVuSans-48"/>
       <use x="127.246094" xlink:href="#DejaVuSans-50"/>
       <use x="190.869141" xlink:href="#DejaVuSans-48"/>
       <use x="254.492188" xlink:href="#DejaVuSans-45"/>
       <use x="290.576172" xlink:href="#DejaVuSans-49"/>
       <use x="354.199219" xlink:href="#DejaVuSans-48"/>
      </g>
     </g>
    </g>
    <g id="xtick_10">
     <g id="line2d_19">
      <path clip-path="url(#p93f1c57cc6)" d="M 618.805479 172.8 
L 618.805479 25.92 
" style="fill:none;stroke:#808080;stroke-dasharray:6.4,1.6,1,1.6;stroke-dashoffset:0;stroke-opacity:0.3;"/>
     </g>
     <g id="line2d_20">
      <g>
       <use style="stroke:#000000;stroke-width:0.8;" x="618.805479" xlink:href="#m8aa7d254c4" y="172.8"/>
      </g>
     </g>
     <g id="text_10">
      <!-- 2020-11 -->
      <g transform="translate(597.914073 187.398438)scale(0.1 -0.1)">
       <use xlink:href="#DejaVuSans-50"/>
       <use x="63.623047" xlink:href="#DejaVuSans-48"/>
       <use x="127.246094" xlink:href="#DejaVuSans-50"/>
       <use x="190.869141" xlink:href="#DejaVuSans-48"/>
       <use x="254.492188" xlink:href="#DejaVuSans-45"/>
       <use x="290.576172" xlink:href="#DejaVuSans-49"/>
       <use x="354.199219" xlink:href="#DejaVuSans-49"/>
      </g>
     </g>
    </g>
    <g id="text_11">
     <!-- Datum -->
     <g transform="translate(343.086719 201.076562)scale(0.1 -0.1)">
      <defs>
       <path d="M 19.671875 64.796875 
L 19.671875 8.109375 
L 31.59375 8.109375 
Q 46.6875 8.109375 53.6875 14.9375 
Q 60.6875 21.78125 60.6875 36.53125 
Q 60.6875 51.171875 53.6875 57.984375 
Q 46.6875 64.796875 31.59375 64.796875 
z
M 9.8125 72.90625 
L 30.078125 72.90625 
Q 51.265625 72.90625 61.171875 64.09375 
Q 71.09375 55.28125 71.09375 36.53125 
Q 71.09375 17.671875 61.125 8.828125 
Q 51.171875 0 30.078125 0 
L 9.8125 0 
z
" id="DejaVuSans-68"/>
       <path d="M 34.28125 27.484375 
Q 23.390625 27.484375 19.1875 25 
Q 14.984375 22.515625 14.984375 16.5 
Q 14.984375 11.71875 18.140625 8.90625 
Q 21.296875 6.109375 26.703125 6.109375 
Q 34.1875 6.109375 38.703125 11.40625 
Q 43.21875 16.703125 43.21875 25.484375 
L 43.21875 27.484375 
z
M 52.203125 31.203125 
L 52.203125 0 
L 43.21875 0 
L 43.21875 8.296875 
Q 40.140625 3.328125 35.546875 0.953125 
Q 30.953125 -1.421875 24.3125 -1.421875 
Q 15.921875 -1.421875 10.953125 3.296875 
Q 6 8.015625 6 15.921875 
Q 6 25.140625 12.171875 29.828125 
Q 18.359375 34.515625 30.609375 34.515625 
L 43.21875 34.515625 
L 43.21875 35.40625 
Q 43.21875 41.609375 39.140625 45 
Q 35.0625 48.390625 27.6875 48.390625 
Q 23 48.390625 18.546875 47.265625 
Q 14.109375 46.140625 10.015625 43.890625 
L 10.015625 52.203125 
Q 14.9375 54.109375 19.578125 55.046875 
Q 24.21875 56 28.609375 56 
Q 40.484375 56 46.34375 49.84375 
Q 52.203125 43.703125 52.203125 31.203125 
z
" id="DejaVuSans-97"/>
       <path d="M 18.3125 70.21875 
L 18.3125 54.6875 
L 36.8125 54.6875 
L 36.8125 47.703125 
L 18.3125 47.703125 
L 18.3125 18.015625 
Q 18.3125 11.328125 20.140625 9.421875 
Q 21.96875 7.515625 27.59375 7.515625 
L 36.8125 7.515625 
L 36.8125 0 
L 27.59375 0 
Q 17.1875 0 13.234375 3.875 
Q 9.28125 7.765625 9.28125 18.015625 
L 9.28125 47.703125 
L 2.6875 47.703125 
L 2.6875 54.6875 
L 9.28125 54.6875 
L 9.28125 70.21875 
z
" id="DejaVuSans-116"/>
       <path d="M 8.5 21.578125 
L 8.5 54.6875 
L 17.484375 54.6875 
L 17.484375 21.921875 
Q 17.484375 14.15625 20.5 10.265625 
Q 23.53125 6.390625 29.59375 6.390625 
Q 36.859375 6.390625 41.078125 11.03125 
Q 45.3125 15.671875 45.3125 23.6875 
L 45.3125 54.6875 
L 54.296875 54.6875 
L 54.296875 0 
L 45.3125 0 
L 45.3125 8.40625 
Q 42.046875 3.421875 37.71875 1 
Q 33.40625 -1.421875 27.6875 -1.421875 
Q 18.265625 -1.421875 13.375 4.4375 
Q 8.5 10.296875 8.5 21.578125 
z
M 31.109375 56 
z
" id="DejaVuSans-117"/>
       <path d="M 52 44.1875 
Q 55.375 50.25 60.0625 53.125 
Q 64.75 56 71.09375 56 
Q 79.640625 56 84.28125 50.015625 
Q 88.921875 44.046875 88.921875 33.015625 
L 88.921875 0 
L 79.890625 0 
L 79.890625 32.71875 
Q 79.890625 40.578125 77.09375 44.375 
Q 74.3125 48.1875 68.609375 48.1875 
Q 61.625 48.1875 57.5625 43.546875 
Q 53.515625 38.921875 53.515625 30.90625 
L 53.515625 0 
L 44.484375 0 
L 44.484375 32.71875 
Q 44.484375 40.625 41.703125 44.40625 
Q 38.921875 48.1875 33.109375 48.1875 
Q 26.21875 48.1875 22.15625 43.53125 
Q 18.109375 38.875 18.109375 30.90625 
L 18.109375 0 
L 9.078125 0 
L 9.078125 54.6875 
L 18.109375 54.6875 
L 18.109375 46.1875 
Q 21.1875 51.21875 25.484375 53.609375 
Q 29.78125 56 35.6875 56 
Q 41.65625 56 45.828125 52.96875 
Q 50 49.953125 52 44.1875 
z
" id="DejaVuSans-109"/>
      </defs>
      <use xlink:href="#DejaVuSans-68"/>
      <use x="77.001953" xlink:href="#DejaVuSans-97"/>
      <use x="138.28125" xlink:href="#DejaVuSans-116"/>
      <use x="177.490234" xlink:href="#DejaVuSans-117"/>
      <use x="240.869141" xlink:href="#DejaVuSans-109"/>
     </g>
    </g>
   </g>
   <g id="matplotlib.axis_2">
    <g id="ytick_1">
     <g id="line2d_21">
      <path clip-path="url(#p93f1c57cc6)" d="M 64.8 172.8 
L 655.2 172.8 
" style="fill:none;stroke:#808080;stroke-dasharray:6.4,1.6,1,1.6;stroke-dashoffset:0;stroke-opacity:0.3;"/>
     </g>
     <g id="line2d_22">
      <defs>
       <path d="M 0 0 
L -3.5 0 
" id="mcf31606bb5" style="stroke:#000000;stroke-width:0.8;"/>
      </defs>
      <g>
       <use style="stroke:#000000;stroke-width:0.8;" x="64.8" xlink:href="#mcf31606bb5" y="172.8"/>
      </g>
     </g>
     <g id="text_12">
      <!-- 0.0 -->
      <g transform="translate(41.896875 176.599219)scale(0.1 -0.1)">
       <defs>
        <path d="M 10.6875 12.40625 
L 21 12.40625 
L 21 0 
L 10.6875 0 
z
" id="DejaVuSans-46"/>
       </defs>
       <use xlink:href="#DejaVuSans-48"/>
       <use x="63.623047" xlink:href="#DejaVuSans-46"/>
       <use x="95.410156" xlink:href="#DejaVuSans-48"/>
      </g>
     </g>
    </g>
    <g id="ytick_2">
     <g id="line2d_23">
      <path clip-path="url(#p93f1c57cc6)" d="M 64.8 148.32 
L 655.2 148.32 
" style="fill:none;stroke:#808080;stroke-dasharray:6.4,1.6,1,1.6;stroke-dashoffset:0;stroke-opacity:0.3;"/>
     </g>
     <g id="line2d_24">
      <g>
       <use style="stroke:#000000;stroke-width:0.8;" x="64.8" xlink:href="#mcf31606bb5" y="148.32"/>
      </g>
     </g>
     <g id="text_13">
      <!-- 0.5 -->
      <g transform="translate(41.896875 152.119219)scale(0.1 -0.1)">
       <use xlink:href="#DejaVuSans-48"/>
       <use x="63.623047" xlink:href="#DejaVuSans-46"/>
       <use x="95.410156" xlink:href="#DejaVuSans-53"/>
      </g>
     </g>
    </g>
    <g id="ytick_3">
     <g id="line2d_25">
      <path clip-path="url(#p93f1c57cc6)" d="M 64.8 123.84 
L 655.2 123.84 
" style="fill:none;stroke:#808080;stroke-dasharray:6.4,1.6,1,1.6;stroke-dashoffset:0;stroke-opacity:0.3;"/>
     </g>
     <g id="line2d_26">
      <g>
       <use style="stroke:#000000;stroke-width:0.8;" x="64.8" xlink:href="#mcf31606bb5" y="123.84"/>
      </g>
     </g>
     <g id="text_14">
      <!-- 1.0 -->
      <g transform="translate(41.896875 127.639219)scale(0.1 -0.1)">
       <use xlink:href="#DejaVuSans-49"/>
       <use x="63.623047" xlink:href="#DejaVuSans-46"/>
       <use x="95.410156" xlink:href="#DejaVuSans-48"/>
      </g>
     </g>
    </g>
    <g id="ytick_4">
     <g id="line2d_27">
      <path clip-path="url(#p93f1c57cc6)" d="M 64.8 99.36 
L 655.2 99.36 
" style="fill:none;stroke:#808080;stroke-dasharray:6.4,1.6,1,1.6;stroke-dashoffset:0;stroke-opacity:0.3;"/>
     </g>
     <g id="line2d_28">
      <g>
       <use style="stroke:#000000;stroke-width:0.8;" x="64.8" xlink:href="#mcf31606bb5" y="99.36"/>
      </g>
     </g>
     <g id="text_15">
      <!-- 1.5 -->
      <g transform="translate(41.896875 103.159219)scale(0.1 -0.1)">
       <use xlink:href="#DejaVuSans-49"/>
       <use x="63.623047" xlink:href="#DejaVuSans-46"/>
       <use x="95.410156" xlink:href="#DejaVuSans-53"/>
      </g>
     </g>
    </g>
    <g id="ytick_5">
     <g id="line2d_29">
      <path clip-path="url(#p93f1c57cc6)" d="M 64.8 74.88 
L 655.2 74.88 
" style="fill:none;stroke:#808080;stroke-dasharray:6.4,1.6,1,1.6;stroke-dashoffset:0;stroke-opacity:0.3;"/>
     </g>
     <g id="line2d_30">
      <g>
       <use style="stroke:#000000;stroke-width:0.8;" x="64.8" xlink:href="#mcf31606bb5" y="74.88"/>
      </g>
     </g>
     <g id="text_16">
      <!-- 2.0 -->
      <g transform="translate(41.896875 78.679219)scale(0.1 -0.1)">
       <use xlink:href="#DejaVuSans-50"/>
       <use x="63.623047" xlink:href="#DejaVuSans-46"/>
       <use x="95.410156" xlink:href="#DejaVuSans-48"/>
      </g>
     </g>
    </g>
    <g id="ytick_6">
     <g id="line2d_31">
      <path clip-path="url(#p93f1c57cc6)" d="M 64.8 50.4 
L 655.2 50.4 
" style="fill:none;stroke:#808080;stroke-dasharray:6.4,1.6,1,1.6;stroke-dashoffset:0;stroke-opacity:0.3;"/>
     </g>
     <g id="line2d_32">
      <g>
       <use style="stroke:#000000;stroke-width:0.8;" x="64.8" xlink:href="#mcf31606bb5" y="50.4"/>
      </g>
     </g>
     <g id="text_17">
      <!-- 2.5 -->
      <g transform="translate(41.896875 54.199219)scale(0.1 -0.1)">
       <use xlink:href="#DejaVuSans-50"/>
       <use x="63.623047" xlink:href="#DejaVuSans-46"/>
       <use x="95.410156" xlink:href="#DejaVuSans-53"/>
      </g>
     </g>
    </g>
    <g id="ytick_7">
     <g id="line2d_33">
      <path clip-path="url(#p93f1c57cc6)" d="M 64.8 25.92 
L 655.2 25.92 
" style="fill:none;stroke:#808080;stroke-dasharray:6.4,1.6,1,1.6;stroke-dashoffset:0;stroke-opacity:0.3;"/>
     </g>
     <g id="line2d_34">
      <g>
       <use style="stroke:#000000;stroke-width:0.8;" x="64.8" xlink:href="#mcf31606bb5" y="25.92"/>
      </g>
     </g>
     <g id="text_18">
      <!-- 3.0 -->
      <g transform="translate(41.896875 29.719219)scale(0.1 -0.1)">
       <use xlink:href="#DejaVuSans-51"/>
       <use x="63.623047" xlink:href="#DejaVuSans-46"/>
       <use x="95.410156" xlink:href="#DejaVuSans-48"/>
      </g>
     </g>
    </g>
    <g id="text_19">
     <!-- Reproductiegetal -->
     <g transform="translate(35.817187 142.044375)rotate(-90)scale(0.1 -0.1)">
      <defs>
       <path d="M 44.390625 34.1875 
Q 47.5625 33.109375 50.5625 29.59375 
Q 53.5625 26.078125 56.59375 19.921875 
L 66.609375 0 
L 56 0 
L 46.6875 18.703125 
Q 43.0625 26.03125 39.671875 28.421875 
Q 36.28125 30.8125 30.421875 30.8125 
L 19.671875 30.8125 
L 19.671875 0 
L 9.8125 0 
L 9.8125 72.90625 
L 32.078125 72.90625 
Q 44.578125 72.90625 50.734375 67.671875 
Q 56.890625 62.453125 56.890625 51.90625 
Q 56.890625 45.015625 53.6875 40.46875 
Q 50.484375 35.9375 44.390625 34.1875 
z
M 19.671875 64.796875 
L 19.671875 38.921875 
L 32.078125 38.921875 
Q 39.203125 38.921875 42.84375 42.21875 
Q 46.484375 45.515625 46.484375 51.90625 
Q 46.484375 58.296875 42.84375 61.546875 
Q 39.203125 64.796875 32.078125 64.796875 
z
" id="DejaVuSans-82"/>
       <path d="M 56.203125 29.59375 
L 56.203125 25.203125 
L 14.890625 25.203125 
Q 15.484375 15.921875 20.484375 11.0625 
Q 25.484375 6.203125 34.421875 6.203125 
Q 39.59375 6.203125 44.453125 7.46875 
Q 49.3125 8.734375 54.109375 11.28125 
L 54.109375 2.78125 
Q 49.265625 0.734375 44.1875 -0.34375 
Q 39.109375 -1.421875 33.890625 -1.421875 
Q 20.796875 -1.421875 13.15625 6.1875 
Q 5.515625 13.8125 5.515625 26.8125 
Q 5.515625 40.234375 12.765625 48.109375 
Q 20.015625 56 32.328125 56 
Q 43.359375 56 49.78125 48.890625 
Q 56.203125 41.796875 56.203125 29.59375 
z
M 47.21875 32.234375 
Q 47.125 39.59375 43.09375 43.984375 
Q 39.0625 48.390625 32.421875 48.390625 
Q 24.90625 48.390625 20.390625 44.140625 
Q 15.875 39.890625 15.1875 32.171875 
z
" id="DejaVuSans-101"/>
       <path d="M 18.109375 8.203125 
L 18.109375 -20.796875 
L 9.078125 -20.796875 
L 9.078125 54.6875 
L 18.109375 54.6875 
L 18.109375 46.390625 
Q 20.953125 51.265625 25.265625 53.625 
Q 29.59375 56 35.59375 56 
Q 45.5625 56 51.78125 48.09375 
Q 58.015625 40.1875 58.015625 27.296875 
Q 58.015625 14.40625 51.78125 6.484375 
Q 45.5625 -1.421875 35.59375 -1.421875 
Q 29.59375 -1.421875 25.265625 0.953125 
Q 20.953125 3.328125 18.109375 8.203125 
z
M 48.6875 27.296875 
Q 48.6875 37.203125 44.609375 42.84375 
Q 40.53125 48.484375 33.40625 48.484375 
Q 26.265625 48.484375 22.1875 42.84375 
Q 18.109375 37.203125 18.109375 27.296875 
Q 18.109375 17.390625 22.1875 11.75 
Q 26.265625 6.109375 33.40625 6.109375 
Q 40.53125 6.109375 44.609375 11.75 
Q 48.6875 17.390625 48.6875 27.296875 
z
" id="DejaVuSans-112"/>
       <path d="M 41.109375 46.296875 
Q 39.59375 47.171875 37.8125 47.578125 
Q 36.03125 48 33.890625 48 
Q 26.265625 48 22.1875 43.046875 
Q 18.109375 38.09375 18.109375 28.8125 
L 18.109375 0 
L 9.078125 0 
L 9.078125 54.6875 
L 18.109375 54.6875 
L 18.109375 46.1875 
Q 20.953125 51.171875 25.484375 53.578125 
Q 30.03125 56 36.53125 56 
Q 37.453125 56 38.578125 55.875 
Q 39.703125 55.765625 41.0625 55.515625 
z
" id="DejaVuSans-114"/>
       <path d="M 30.609375 48.390625 
Q 23.390625 48.390625 19.1875 42.75 
Q 14.984375 37.109375 14.984375 27.296875 
Q 14.984375 17.484375 19.15625 11.84375 
Q 23.34375 6.203125 30.609375 6.203125 
Q 37.796875 6.203125 41.984375 11.859375 
Q 46.1875 17.53125 46.1875 27.296875 
Q 46.1875 37.015625 41.984375 42.703125 
Q 37.796875 48.390625 30.609375 48.390625 
z
M 30.609375 56 
Q 42.328125 56 49.015625 48.375 
Q 55.71875 40.765625 55.71875 27.296875 
Q 55.71875 13.875 49.015625 6.21875 
Q 42.328125 -1.421875 30.609375 -1.421875 
Q 18.84375 -1.421875 12.171875 6.21875 
Q 5.515625 13.875 5.515625 27.296875 
Q 5.515625 40.765625 12.171875 48.375 
Q 18.84375 56 30.609375 56 
z
" id="DejaVuSans-111"/>
       <path d="M 45.40625 46.390625 
L 45.40625 75.984375 
L 54.390625 75.984375 
L 54.390625 0 
L 45.40625 0 
L 45.40625 8.203125 
Q 42.578125 3.328125 38.25 0.953125 
Q 33.9375 -1.421875 27.875 -1.421875 
Q 17.96875 -1.421875 11.734375 6.484375 
Q 5.515625 14.40625 5.515625 27.296875 
Q 5.515625 40.1875 11.734375 48.09375 
Q 17.96875 56 27.875 56 
Q 33.9375 56 38.25 53.625 
Q 42.578125 51.265625 45.40625 46.390625 
z
M 14.796875 27.296875 
Q 14.796875 17.390625 18.875 11.75 
Q 22.953125 6.109375 30.078125 6.109375 
Q 37.203125 6.109375 41.296875 11.75 
Q 45.40625 17.390625 45.40625 27.296875 
Q 45.40625 37.203125 41.296875 42.84375 
Q 37.203125 48.484375 30.078125 48.484375 
Q 22.953125 48.484375 18.875 42.84375 
Q 14.796875 37.203125 14.796875 27.296875 
z
" id="DejaVuSans-100"/>
       <path d="M 48.78125 52.59375 
L 48.78125 44.1875 
Q 44.96875 46.296875 41.140625 47.34375 
Q 37.3125 48.390625 33.40625 48.390625 
Q 24.65625 48.390625 19.8125 42.84375 
Q 14.984375 37.3125 14.984375 27.296875 
Q 14.984375 17.28125 19.8125 11.734375 
Q 24.65625 6.203125 33.40625 6.203125 
Q 37.3125 6.203125 41.140625 7.25 
Q 44.96875 8.296875 48.78125 10.40625 
L 48.78125 2.09375 
Q 45.015625 0.34375 40.984375 -0.53125 
Q 36.96875 -1.421875 32.421875 -1.421875 
Q 20.0625 -1.421875 12.78125 6.34375 
Q 5.515625 14.109375 5.515625 27.296875 
Q 5.515625 40.671875 12.859375 48.328125 
Q 20.21875 56 33.015625 56 
Q 37.15625 56 41.109375 55.140625 
Q 45.0625 54.296875 48.78125 52.59375 
z
" id="DejaVuSans-99"/>
       <path d="M 9.421875 54.6875 
L 18.40625 54.6875 
L 18.40625 0 
L 9.421875 0 
z
M 9.421875 75.984375 
L 18.40625 75.984375 
L 18.40625 64.59375 
L 9.421875 64.59375 
z
" id="DejaVuSans-105"/>
       <path d="M 45.40625 27.984375 
Q 45.40625 37.75 41.375 43.109375 
Q 37.359375 48.484375 30.078125 48.484375 
Q 22.859375 48.484375 18.828125 43.109375 
Q 14.796875 37.75 14.796875 27.984375 
Q 14.796875 18.265625 18.828125 12.890625 
Q 22.859375 7.515625 30.078125 7.515625 
Q 37.359375 7.515625 41.375 12.890625 
Q 45.40625 18.265625 45.40625 27.984375 
z
M 54.390625 6.78125 
Q 54.390625 -7.171875 48.1875 -13.984375 
Q 42 -20.796875 29.203125 -20.796875 
Q 24.46875 -20.796875 20.265625 -20.09375 
Q 16.0625 -19.390625 12.109375 -17.921875 
L 12.109375 -9.1875 
Q 16.0625 -11.328125 19.921875 -12.34375 
Q 23.78125 -13.375 27.78125 -13.375 
Q 36.625 -13.375 41.015625 -8.765625 
Q 45.40625 -4.15625 45.40625 5.171875 
L 45.40625 9.625 
Q 42.625 4.78125 38.28125 2.390625 
Q 33.9375 0 27.875 0 
Q 17.828125 0 11.671875 7.65625 
Q 5.515625 15.328125 5.515625 27.984375 
Q 5.515625 40.671875 11.671875 48.328125 
Q 17.828125 56 27.875 56 
Q 33.9375 56 38.28125 53.609375 
Q 42.625 51.21875 45.40625 46.390625 
L 45.40625 54.6875 
L 54.390625 54.6875 
z
" id="DejaVuSans-103"/>
       <path d="M 9.421875 75.984375 
L 18.40625 75.984375 
L 18.40625 0 
L 9.421875 0 
z
" id="DejaVuSans-108"/>
      </defs>
      <use xlink:href="#DejaVuSans-82"/>
      <use x="64.982422" xlink:href="#DejaVuSans-101"/>
      <use x="126.505859" xlink:href="#DejaVuSans-112"/>
      <use x="189.982422" xlink:href="#DejaVuSans-114"/>
      <use x="228.845703" xlink:href="#DejaVuSans-111"/>
      <use x="290.027344" xlink:href="#DejaVuSans-100"/>
      <use x="353.503906" xlink:href="#DejaVuSans-117"/>
      <use x="416.882812" xlink:href="#DejaVuSans-99"/>
      <use x="471.863281" xlink:href="#DejaVuSans-116"/>
      <use x="511.072266" xlink:href="#DejaVuSans-105"/>
      <use x="538.855469" xlink:href="#DejaVuSans-101"/>
      <use x="600.378906" xlink:href="#DejaVuSans-103"/>
      <use x="663.855469" xlink:href="#DejaVuSans-101"/>
      <use x="725.378906" xlink:href="#DejaVuSans-116"/>
      <use x="764.587891" xlink:href="#DejaVuSans-97"/>
      <use x="825.867188" xlink:href="#DejaVuSans-108"/>
     </g>
    </g>
   </g>
   <g id="line2d_35">
    <path clip-path="url(#p93f1c57cc6)" d="M 97.150685 78.3072 
L 99.172603 87.6096 
L 101.194521 94.9536 
L 103.216438 87.6096 
L 105.238356 73.4112 
L 107.260274 66.5568 
L 109.282192 66.0672 
L 111.30411 65.088 
L 113.326027 67.536 
L 115.347945 71.9424 
L 117.369863 71.9424 
L 119.391781 69.984 
L 121.413699 75.3696 
L 123.435616 83.2032 
L 125.457534 85.1616 
L 127.479452 83.6928 
L 131.523288 81.7344 
L 133.545205 80.2656 
L 135.567123 79.776 
L 137.589041 84.672 
L 139.610959 91.0368 
L 143.654795 102.7872 
L 145.676712 107.6832 
L 147.69863 111.6 
L 149.720548 116.0064 
L 151.742466 121.8816 
L 153.764384 125.7984 
L 159.830137 131.6736 
L 161.852055 133.1424 
L 163.873973 134.1216 
L 165.89589 136.08 
L 167.917808 137.5488 
L 169.939726 138.0384 
L 171.961644 138.0384 
L 173.983562 137.5488 
L 178.027397 135.5904 
L 180.049315 135.5904 
L 182.071233 136.08 
L 184.093151 138.0384 
L 186.115068 139.0176 
L 188.136986 139.0176 
L 192.180822 136.08 
L 198.246575 133.1424 
L 200.268493 134.6112 
L 202.290411 137.0592 
L 204.312329 138.528 
L 206.334247 139.0176 
L 208.356164 138.528 
L 214.421918 135.5904 
L 216.443836 135.1008 
L 218.465753 135.1008 
L 220.487671 136.08 
L 222.509589 137.5488 
L 224.531507 138.528 
L 228.575342 136.5696 
L 230.59726 135.1008 
L 234.641096 135.1008 
L 238.684932 137.0592 
L 242.728767 138.0384 
L 244.750685 139.0176 
L 246.772603 139.0176 
L 248.794521 137.5488 
L 252.838356 133.632 
L 254.860274 132.1632 
L 256.882192 132.1632 
L 258.90411 132.6528 
L 260.926027 132.6528 
L 262.947945 133.1424 
L 264.969863 134.6112 
L 266.991781 135.1008 
L 269.013699 134.6112 
L 271.035616 133.632 
L 273.057534 131.6736 
L 275.079452 128.2464 
L 277.10137 123.84 
L 279.123288 119.9232 
L 281.145205 117.4752 
L 283.167123 119.9232 
L 285.189041 125.7984 
L 287.210959 129.7152 
L 291.254795 129.7152 
L 293.276712 133.632 
L 295.29863 137.0592 
L 297.320548 139.5072 
L 299.342466 145.3824 
L 301.364384 149.2992 
L 303.386301 149.2992 
L 305.408219 147.3408 
L 307.430137 144.4032 
L 309.452055 139.9968 
L 311.473973 132.6528 
L 313.49589 125.7984 
L 315.517808 123.3504 
L 317.539726 121.392 
L 319.561644 116.9856 
L 321.583562 111.1104 
L 323.605479 109.152 
L 325.627397 115.0272 
L 327.649315 125.7984 
L 329.671233 133.632 
L 331.693151 136.08 
L 333.715068 137.0592 
L 335.736986 137.0592 
L 337.758904 135.5904 
L 339.780822 133.1424 
L 341.80274 129.2256 
L 343.824658 125.7984 
L 345.846575 123.3504 
L 347.868493 122.3712 
L 349.890411 123.3504 
L 351.912329 125.7984 
L 353.934247 127.7568 
L 355.956164 128.736 
L 357.978082 128.2464 
L 360 127.2672 
L 364.043836 126.288 
L 366.065753 125.3088 
L 368.087671 122.8608 
L 370.109589 118.4544 
L 374.153425 104.7456 
L 376.175342 101.3184 
L 378.19726 102.2976 
L 380.219178 104.256 
L 382.241096 105.7248 
L 384.263014 105.2352 
L 386.284932 103.7664 
L 388.306849 102.7872 
L 390.328767 103.7664 
L 392.350685 107.6832 
L 394.372603 113.0688 
L 396.394521 116.0064 
L 398.416438 115.5168 
L 400.438356 113.0688 
L 402.460274 110.1312 
L 404.482192 108.6624 
L 408.526027 109.6416 
L 410.547945 109.152 
L 412.569863 106.704 
L 414.591781 103.7664 
L 416.613699 103.2768 
L 418.635616 104.7456 
L 420.657534 108.6624 
L 422.679452 111.6 
L 424.70137 112.5792 
L 426.723288 112.5792 
L 428.745205 111.6 
L 430.767123 112.5792 
L 432.789041 115.0272 
L 436.832877 122.8608 
L 438.854795 124.8192 
L 440.876712 126.288 
L 442.89863 126.288 
L 446.942466 125.3088 
L 448.964384 125.7984 
L 453.008219 127.7568 
L 455.030137 127.7568 
L 459.073973 126.7776 
L 463.117808 124.8192 
L 465.139726 124.3296 
L 467.161644 123.3504 
L 469.183562 121.392 
L 471.205479 118.944 
L 473.227397 116.9856 
L 475.249315 115.5168 
L 479.293151 115.5168 
L 481.315068 115.0272 
L 483.336986 112.5792 
L 487.380822 104.7456 
L 489.40274 102.2976 
L 491.424658 103.7664 
L 493.446575 106.2144 
L 495.468493 107.6832 
L 497.490411 107.1936 
L 501.534247 107.1936 
L 503.556164 107.6832 
L 505.578082 109.6416 
L 507.6 112.0896 
L 509.621918 112.5792 
L 515.687671 109.6416 
L 517.709589 110.1312 
L 521.753425 115.0272 
L 523.775342 116.496 
L 525.79726 116.496 
L 529.841096 114.5376 
L 531.863014 114.5376 
L 533.884932 115.5168 
L 535.906849 116.0064 
L 537.928767 115.0272 
L 539.950685 113.0688 
L 541.972603 110.1312 
L 543.994521 108.1728 
L 546.016438 107.1936 
L 548.038356 108.1728 
L 554.10411 112.5792 
L 560.169863 115.5168 
L 562.191781 117.4752 
L 564.213699 118.944 
L 568.257534 118.944 
L 570.279452 117.9648 
L 572.30137 117.4752 
L 574.323288 117.4752 
L 578.367123 119.4336 
L 580.389041 119.9232 
L 586.454795 119.9232 
L 588.476712 120.9024 
L 590.49863 122.3712 
L 592.520548 124.8192 
L 594.542466 126.288 
L 596.564384 126.7776 
L 598.586301 127.7568 
L 600.608219 128.2464 
L 600.608219 128.2464 
" style="fill:none;stroke:#000000;stroke-linecap:square;stroke-width:1.5;"/>
   </g>
   <g id="line2d_36">
    <path clip-path="url(#p93f1c57cc6)" d="M 99.950546 -1 
L 101.194521 34.2432 
L 103.216438 34.2432 
L 104.949117 -1 
M 109.016029 -1 
L 109.282192 9.7632 
L 111.30411 15.1488 
L 113.326027 15.1488 
L 115.347945 32.7744 
L 117.369863 41.0976 
L 119.391781 38.16 
L 121.413699 42.0768 
L 123.435616 62.64 
L 125.457534 68.5152 
L 127.479452 64.5984 
L 129.50137 65.088 
L 131.523288 66.5568 
L 135.567123 67.536 
L 137.589041 71.9424 
L 139.610959 82.7136 
L 141.632877 88.5888 
L 143.654795 95.4432 
L 145.676712 101.3184 
L 147.69863 106.2144 
L 149.720548 110.6208 
L 151.742466 116.496 
L 153.764384 121.8816 
L 155.786301 123.3504 
L 161.852055 129.2256 
L 163.873973 130.2048 
L 165.89589 131.6736 
L 167.917808 134.1216 
L 169.939726 133.632 
L 171.961644 133.632 
L 176.005479 131.6736 
L 178.027397 130.2048 
L 180.049315 129.7152 
L 184.093151 131.6736 
L 186.115068 134.1216 
L 188.136986 133.1424 
L 190.158904 131.184 
L 192.180822 128.736 
L 194.20274 127.2672 
L 198.246575 125.3088 
L 200.268493 125.3088 
L 202.290411 129.2256 
L 204.312329 131.6736 
L 206.334247 130.2048 
L 208.356164 129.7152 
L 210.378082 128.2464 
L 212.4 125.7984 
L 216.443836 123.84 
L 220.487671 123.84 
L 222.509589 124.8192 
L 224.531507 128.2464 
L 226.553425 124.8192 
L 228.575342 122.3712 
L 230.59726 121.392 
L 232.619178 117.9648 
L 234.641096 121.392 
L 236.663014 118.4544 
L 238.684932 122.3712 
L 240.706849 122.3712 
L 242.728767 119.9232 
L 244.750685 121.392 
L 246.772603 121.8816 
L 248.794521 116.496 
L 254.860274 107.6832 
L 256.882192 105.2352 
L 260.926027 110.1312 
L 262.947945 102.2976 
L 264.969863 106.2144 
L 266.991781 111.6 
L 269.013699 104.256 
L 271.035616 102.2976 
L 273.057534 102.2976 
L 275.079452 96.4224 
L 277.10137 81.7344 
L 279.123288 74.88 
L 281.145205 80.2656 
L 283.167123 65.088 
L 285.189041 94.464 
L 287.210959 101.808 
L 289.232877 101.808 
L 291.254795 84.672 
L 293.276712 87.12 
L 295.29863 113.5584 
L 297.320548 104.256 
L 299.342466 104.256 
L 301.364384 127.7568 
L 303.386301 111.6 
L 305.408219 114.048 
L 307.430137 75.3696 
L 309.452055 91.5264 
L 311.473973 75.3696 
L 313.49589 26.8992 
L 315.517808 27.3888 
L 317.539726 59.7024 
L 319.561644 28.368 
L 321.583562 29.3472 
L 322.902781 -1 
M 326.012136 -1 
L 327.649315 63.6192 
L 329.671233 80.2656 
L 331.693151 81.2448 
L 333.715068 128.736 
L 335.736986 128.736 
L 337.758904 127.2672 
L 339.780822 122.3712 
L 341.80274 118.4544 
L 343.824658 113.5584 
L 345.846575 110.6208 
L 349.890411 110.6208 
L 351.912329 115.5168 
L 353.934247 116.496 
L 355.956164 118.4544 
L 357.978082 116.496 
L 360 115.0272 
L 362.021918 115.5168 
L 364.043836 113.5584 
L 366.065753 114.048 
L 368.087671 110.1312 
L 370.109589 105.2352 
L 374.153425 88.5888 
L 376.175342 85.1616 
L 378.19726 87.12 
L 380.219178 92.9952 
L 382.241096 93.4848 
L 384.263014 94.464 
L 386.284932 92.016 
L 388.306849 91.5264 
L 390.328767 93.4848 
L 392.350685 97.4016 
L 394.372603 104.7456 
L 396.394521 108.1728 
L 398.416438 108.1728 
L 400.438356 104.256 
L 402.460274 102.2976 
L 404.482192 99.8496 
L 406.50411 100.8288 
L 408.526027 102.2976 
L 410.547945 101.808 
L 412.569863 99.8496 
L 414.591781 95.9328 
L 416.613699 95.9328 
L 418.635616 98.8704 
L 420.657534 102.2976 
L 422.679452 106.704 
L 424.70137 107.6832 
L 428.745205 106.704 
L 430.767123 107.6832 
L 432.789041 110.6208 
L 434.810959 114.5376 
L 436.832877 118.944 
L 438.854795 120.9024 
L 440.876712 122.3712 
L 442.89863 122.3712 
L 446.942466 121.392 
L 448.964384 121.8816 
L 450.986301 122.8608 
L 455.030137 123.84 
L 457.052055 123.3504 
L 463.117808 120.4128 
L 465.139726 120.4128 
L 467.161644 118.944 
L 471.205479 114.048 
L 473.227397 112.0896 
L 475.249315 111.1104 
L 477.271233 110.6208 
L 479.293151 111.1104 
L 481.315068 110.6208 
L 483.336986 108.1728 
L 485.358904 104.256 
L 487.380822 99.8496 
L 489.40274 97.8912 
L 491.424658 99.36 
L 493.446575 102.7872 
L 495.468493 104.256 
L 499.512329 103.2768 
L 501.534247 103.7664 
L 503.556164 104.7456 
L 505.578082 106.704 
L 507.6 109.152 
L 509.621918 110.1312 
L 511.643836 109.152 
L 513.665753 107.6832 
L 515.687671 107.1936 
L 517.709589 107.6832 
L 519.731507 110.1312 
L 521.753425 113.0688 
L 523.775342 114.5376 
L 525.79726 114.5376 
L 529.841096 112.5792 
L 531.863014 112.5792 
L 535.906849 114.5376 
L 537.928767 113.0688 
L 539.950685 111.1104 
L 541.972603 108.1728 
L 543.994521 106.2144 
L 546.016438 105.2352 
L 548.038356 106.2144 
L 550.060274 108.1728 
L 554.10411 111.1104 
L 558.147945 113.0688 
L 564.213699 117.4752 
L 566.235616 117.9648 
L 570.279452 116.9856 
L 572.30137 116.0064 
L 574.323288 116.0064 
L 576.345205 116.9856 
L 578.367123 118.4544 
L 580.389041 118.944 
L 582.410959 118.944 
L 584.432877 118.4544 
L 586.454795 118.944 
L 588.476712 119.9232 
L 590.49863 121.392 
L 592.520548 123.84 
L 594.542466 125.3088 
L 596.564384 126.288 
L 600.608219 127.2672 
L 602.630137 127.2672 
L 604.652055 127.7568 
L 606.673973 127.2672 
L 608.69589 126.288 
L 610.717808 124.8192 
L 612.739726 123.84 
L 614.761644 124.3296 
L 616.783562 126.7776 
L 618.805479 130.2048 
L 620.827397 133.1424 
L 622.849315 134.6112 
L 624.871233 133.632 
L 626.893151 131.6736 
L 626.893151 131.6736 
" style="fill:none;stroke:#808080;stroke-dasharray:5.55,2.4;stroke-dashoffset:0;stroke-opacity:0.3;stroke-width:1.5;"/>
   </g>
   <g id="line2d_37">
    <path clip-path="url(#p93f1c57cc6)" d="M 97.150685 148.32 
L 99.172603 172.8 
L 101.194521 148.32 
L 103.216438 132.1632 
L 105.238356 139.9968 
L 107.260274 172.8 
L 109.282192 115.5168 
L 111.30411 108.6624 
L 113.326027 111.6 
L 115.347945 107.6832 
L 117.369863 100.3392 
L 119.391781 99.36 
L 121.413699 105.7248 
L 123.435616 102.2976 
L 125.457534 101.808 
L 127.479452 102.2976 
L 131.523288 96.4224 
L 133.545205 92.9952 
L 135.567123 92.016 
L 137.589041 96.4224 
L 139.610959 99.36 
L 141.632877 104.7456 
L 143.654795 109.152 
L 145.676712 114.048 
L 147.69863 116.9856 
L 149.720548 121.392 
L 151.742466 126.7776 
L 153.764384 129.7152 
L 155.786301 132.1632 
L 157.808219 133.632 
L 159.830137 136.08 
L 161.852055 137.0592 
L 163.873973 138.528 
L 165.89589 140.976 
L 167.917808 140.976 
L 169.939726 142.4448 
L 171.961644 141.9552 
L 173.983562 141.9552 
L 176.005479 140.976 
L 180.049315 140.976 
L 182.071233 141.4656 
L 184.093151 143.9136 
L 186.115068 143.9136 
L 188.136986 144.4032 
L 190.158904 143.9136 
L 192.180822 142.9344 
L 194.20274 142.4448 
L 196.224658 140.976 
L 198.246575 140.976 
L 200.268493 142.9344 
L 202.290411 144.4032 
L 204.312329 145.3824 
L 206.334247 146.8512 
L 208.356164 146.8512 
L 210.378082 146.3616 
L 212.4 146.3616 
L 214.421918 145.3824 
L 218.465753 145.3824 
L 220.487671 146.8512 
L 222.509589 149.2992 
L 224.531507 147.8304 
L 226.553425 149.2992 
L 228.575342 149.7888 
L 230.59726 148.32 
L 232.619178 150.2784 
L 234.641096 147.8304 
L 236.663014 151.2576 
L 238.684932 150.768 
L 240.706849 151.7472 
L 242.728767 153.7056 
L 244.750685 155.1744 
L 246.772603 153.7056 
L 248.794521 155.664 
L 250.816438 155.1744 
L 252.838356 153.7056 
L 254.860274 153.216 
L 258.90411 155.1744 
L 260.926027 152.2368 
L 262.947945 158.112 
L 264.969863 158.112 
L 266.991781 154.1952 
L 269.013699 158.112 
L 271.035616 158.112 
L 273.057534 156.6432 
L 279.123288 156.6432 
L 281.145205 148.32 
L 283.167123 160.56 
L 285.189041 153.216 
L 287.210959 155.1744 
L 289.232877 155.1744 
L 291.254795 163.008 
L 293.276712 172.8 
L 295.29863 156.6432 
L 297.320548 172.8 
L 299.342466 172.8 
L 301.364384 168.3936 
L 303.386301 172.8 
L 331.693151 172.8 
L 333.715068 144.8928 
L 335.736986 144.8928 
L 337.758904 143.9136 
L 339.780822 142.4448 
L 341.80274 139.5072 
L 343.824658 137.0592 
L 345.846575 135.1008 
L 347.868493 133.632 
L 349.890411 135.5904 
L 351.912329 135.5904 
L 353.934247 138.528 
L 355.956164 138.0384 
L 360 139.0176 
L 362.021918 137.5488 
L 364.043836 138.528 
L 366.065753 136.08 
L 368.087671 135.1008 
L 372.131507 125.3088 
L 374.153425 119.9232 
L 376.175342 116.9856 
L 378.19726 116.496 
L 380.219178 115.5168 
L 382.241096 117.4752 
L 384.263014 116.0064 
L 386.284932 115.0272 
L 388.306849 113.5584 
L 390.328767 114.048 
L 392.350685 117.9648 
L 394.372603 120.4128 
L 396.394521 123.3504 
L 398.416438 122.8608 
L 400.438356 121.392 
L 402.460274 117.9648 
L 404.482192 116.9856 
L 406.50411 116.9856 
L 410.547945 116.0064 
L 412.569863 113.0688 
L 414.591781 111.1104 
L 416.613699 110.1312 
L 418.635616 111.1104 
L 420.657534 115.0272 
L 424.70137 117.9648 
L 428.745205 116.9856 
L 430.767123 117.4752 
L 432.789041 119.4336 
L 434.810959 123.3504 
L 436.832877 126.288 
L 438.854795 128.736 
L 440.876712 130.2048 
L 442.89863 130.2048 
L 446.942466 129.2256 
L 448.964384 130.2048 
L 450.986301 130.6944 
L 453.008219 131.6736 
L 457.052055 131.6736 
L 461.09589 129.7152 
L 465.139726 128.736 
L 467.161644 127.7568 
L 469.183562 125.3088 
L 473.227397 121.392 
L 475.249315 119.9232 
L 479.293151 119.9232 
L 481.315068 119.4336 
L 483.336986 116.9856 
L 487.380822 109.152 
L 489.40274 107.1936 
L 491.424658 108.1728 
L 493.446575 110.1312 
L 495.468493 111.1104 
L 497.490411 111.1104 
L 501.534247 110.1312 
L 503.556164 110.6208 
L 507.6 114.5376 
L 509.621918 115.0272 
L 511.643836 114.5376 
L 513.665753 113.0688 
L 515.687671 112.0896 
L 517.709589 112.5792 
L 519.731507 115.0272 
L 521.753425 116.9856 
L 523.775342 118.4544 
L 525.79726 118.4544 
L 529.841096 116.496 
L 531.863014 116.496 
L 533.884932 117.4752 
L 535.906849 117.9648 
L 537.928767 116.9856 
L 539.950685 115.0272 
L 541.972603 112.0896 
L 543.994521 109.6416 
L 546.016438 109.152 
L 548.038356 110.1312 
L 550.060274 111.6 
L 552.082192 112.5792 
L 554.10411 114.048 
L 560.169863 116.9856 
L 562.191781 118.944 
L 564.213699 119.9232 
L 566.235616 120.4128 
L 570.279452 119.4336 
L 572.30137 118.4544 
L 574.323288 118.4544 
L 578.367123 120.4128 
L 580.389041 120.9024 
L 586.454795 120.9024 
L 588.476712 121.8816 
L 592.520548 125.7984 
L 594.542466 127.2672 
L 596.564384 127.7568 
L 598.586301 128.736 
L 600.608219 129.2256 
L 602.630137 129.2256 
L 604.652055 129.7152 
L 606.673973 129.2256 
L 610.717808 127.2672 
L 612.739726 126.7776 
L 614.761644 127.7568 
L 616.783562 130.2048 
L 618.805479 134.6112 
L 620.827397 138.528 
L 622.849315 141.9552 
L 624.871233 143.9136 
L 626.893151 144.8928 
L 626.893151 144.8928 
" style="fill:none;stroke:#808080;stroke-dasharray:5.55,2.4;stroke-dashoffset:0;stroke-opacity:0.3;stroke-width:1.5;"/>
   </g>
   <g id="line2d_38">
    <path clip-path="url(#p93f1c57cc6)" d="M 641.046575 172.8 
L 641.046575 25.92 
" style="fill:none;stroke:#008080;stroke-linecap:square;stroke-width:0.15;"/>
   </g>
   <g id="patch_3">
    <path d="M 64.8 172.8 
L 64.8 25.92 
" style="fill:none;stroke:#000000;stroke-linecap:square;stroke-linejoin:miter;stroke-width:0.8;"/>
   </g>
   <g id="patch_4">
    <path d="M 655.2 172.8 
L 655.2 25.92 
" style="fill:none;stroke:#000000;stroke-linecap:square;stroke-linejoin:miter;stroke-width:0.8;"/>
   </g>
   <g id="patch_5">
    <path d="M 64.8 172.8 
L 655.2 172.8 
" style="fill:none;stroke:#000000;stroke-linecap:square;stroke-linejoin:miter;stroke-width:0.8;"/>
   </g>
   <g id="patch_6">
    <path d="M 64.8 25.92 
L 655.2 25.92 
" style="fill:none;stroke:#000000;stroke-linecap:square;stroke-linejoin:miter;stroke-width:0.8;"/>
   </g>
   <g id="patch_7">
    <path d="M 604.990031 110.979768 
Q 602.094976 118.342422 601.052443 125.161727 
" style="fill:none;stroke:#000000;stroke-linecap:round;"/>
    <path d="M 603.117663 122.240278 
L 601.052443 125.161727 
L 599.954415 121.756682 
" style="fill:none;stroke:#000000;stroke-linecap:round;"/>
   </g>
   <g id="text_20">
    <g id="patch_8">
     <path d="M 600.608219 108.63015 
L 618.420719 108.63015 
Q 621.620719 108.63015 621.620719 105.43015 
L 621.620719 97.68765 
Q 621.620719 94.48765 618.420719 94.48765 
L 600.608219 94.48765 
Q 597.408219 94.48765 597.408219 97.68765 
L 597.408219 105.43015 
Q 597.408219 108.63015 600.608219 108.63015 
z
" style="fill:#fffff0;stroke:#000000;stroke-linejoin:miter;"/>
    </g>
    <!-- 0,91 -->
    <g transform="translate(600.608219 103.7664)scale(0.08 -0.08)">
     <defs>
      <path d="M 11.71875 12.40625 
L 22.015625 12.40625 
L 22.015625 4 
L 14.015625 -11.625 
L 7.71875 -11.625 
L 11.71875 4 
z
" id="DejaVuSans-44"/>
     </defs>
     <use xlink:href="#DejaVuSans-48"/>
     <use x="63.623047" xlink:href="#DejaVuSans-44"/>
     <use x="95.410156" xlink:href="#DejaVuSans-57"/>
     <use x="159.033203" xlink:href="#DejaVuSans-49"/>
    </g>
   </g>
   <g id="text_21">
    <!-- Reproductiegetal, 2020-11-12 11:18 -->
    <g transform="translate(250.8975 19.92)scale(0.12 -0.12)">
     <defs>
      <path id="DejaVuSans-32"/>
      <path d="M 11.71875 12.40625 
L 22.015625 12.40625 
L 22.015625 0 
L 11.71875 0 
z
M 11.71875 51.703125 
L 22.015625 51.703125 
L 22.015625 39.3125 
L 11.71875 39.3125 
z
" id="DejaVuSans-58"/>
     </defs>
     <use xlink:href="#DejaVuSans-82"/>
     <use x="64.982422" xlink:href="#DejaVuSans-101"/>
     <use x="126.505859" xlink:href="#DejaVuSans-112"/>
     <use x="189.982422" xlink:href="#DejaVuSans-114"/>
     <use x="228.845703" xlink:href="#DejaVuSans-111"/>
     <use x="290.027344" xlink:href="#DejaVuSans-100"/>
     <use x="353.503906" xlink:href="#DejaVuSans-117"/>
     <use x="416.882812" xlink:href="#DejaVuSans-99"/>
     <use x="471.863281" xlink:href="#DejaVuSans-116"/>
     <use x="511.072266" xlink:href="#DejaVuSans-105"/>
     <use x="538.855469" xlink:href="#DejaVuSans-101"/>
     <use x="600.378906" xlink:href="#DejaVuSans-103"/>
     <use x="663.855469" xlink:href="#DejaVuSans-101"/>
     <use x="725.378906" xlink:href="#DejaVuSans-116"/>
     <use x="764.587891" xlink:href="#DejaVuSans-97"/>
     <use x="825.867188" xlink:href="#DejaVuSans-108"/>
     <use x="853.650391" xlink:href="#DejaVuSans-44"/>
     <use x="885.4375" xlink:href="#DejaVuSans-32"/>
     <use x="917.224609" xlink:href="#DejaVuSans-50"/>
     <use x="980.847656" xlink:href="#DejaVuSans-48"/>
     <use x="1044.470703" xlink:href="#DejaVuSans-50"/>
     <use x="1108.09375" xlink:href="#DejaVuSans-48"/>
     <use x="1171.716797" xlink:href="#DejaVuSans-45"/>
     <use x="1207.800781" xlink:href="#DejaVuSans-49"/>
     <use x="1271.423828" xlink:href="#DejaVuSans-49"/>
     <use x="1335.046875" xlink:href="#DejaVuSans-45"/>
     <use x="1371.130859" xlink:href="#DejaVuSans-49"/>
     <use x="1434.753906" xlink:href="#DejaVuSans-50"/>
     <use x="1498.376953" xlink:href="#DejaVuSans-32"/>
     <use x="1530.164062" xlink:href="#DejaVuSans-49"/>
     <use x="1593.787109" xlink:href="#DejaVuSans-49"/>
     <use x="1657.410156" xlink:href="#DejaVuSans-58"/>
     <use x="1691.101562" xlink:href="#DejaVuSans-49"/>
     <use x="1754.724609" xlink:href="#DejaVuSans-56"/>
    </g>
   </g>
  </g>
  <g id="text_22">
   <!-- Gegenereerd op 2020-11-12 11:18. -->
   <g style="fill:#808080;" transform="translate(7.2 204.88175)scale(0.08 -0.08)">
    <defs>
     <path d="M 59.515625 10.40625 
L 59.515625 29.984375 
L 43.40625 29.984375 
L 43.40625 38.09375 
L 69.28125 38.09375 
L 69.28125 6.78125 
Q 63.578125 2.734375 56.6875 0.65625 
Q 49.8125 -1.421875 42 -1.421875 
Q 24.90625 -1.421875 15.25 8.5625 
Q 5.609375 18.5625 5.609375 36.375 
Q 5.609375 54.25 15.25 64.234375 
Q 24.90625 74.21875 42 74.21875 
Q 49.125 74.21875 55.546875 72.453125 
Q 61.96875 70.703125 67.390625 67.28125 
L 67.390625 56.78125 
Q 61.921875 61.421875 55.765625 63.765625 
Q 49.609375 66.109375 42.828125 66.109375 
Q 29.4375 66.109375 22.71875 58.640625 
Q 16.015625 51.171875 16.015625 36.375 
Q 16.015625 21.625 22.71875 14.15625 
Q 29.4375 6.6875 42.828125 6.6875 
Q 48.046875 6.6875 52.140625 7.59375 
Q 56.25 8.5 59.515625 10.40625 
z
" id="DejaVuSans-71"/>
     <path d="M 54.890625 33.015625 
L 54.890625 0 
L 45.90625 0 
L 45.90625 32.71875 
Q 45.90625 40.484375 42.875 44.328125 
Q 39.84375 48.1875 33.796875 48.1875 
Q 26.515625 48.1875 22.3125 43.546875 
Q 18.109375 38.921875 18.109375 30.90625 
L 18.109375 0 
L 9.078125 0 
L 9.078125 54.6875 
L 18.109375 54.6875 
L 18.109375 46.1875 
Q 21.34375 51.125 25.703125 53.5625 
Q 30.078125 56 35.796875 56 
Q 45.21875 56 50.046875 50.171875 
Q 54.890625 44.34375 54.890625 33.015625 
z
" id="DejaVuSans-110"/>
    </defs>
    <use xlink:href="#DejaVuSans-71"/>
    <use x="77.490234" xlink:href="#DejaVuSans-101"/>
    <use x="139.013672" xlink:href="#DejaVuSans-103"/>
    <use x="202.490234" xlink:href="#DejaVuSans-101"/>
    <use x="264.013672" xlink:href="#DejaVuSans-110"/>
    <use x="327.392578" xlink:href="#DejaVuSans-101"/>
    <use x="388.916016" xlink:href="#DejaVuSans-114"/>
    <use x="427.779297" xlink:href="#DejaVuSans-101"/>
    <use x="489.302734" xlink:href="#DejaVuSans-101"/>
    <use x="550.826172" xlink:href="#DejaVuSans-114"/>
    <use x="590.189453" xlink:href="#DejaVuSans-100"/>
    <use x="653.666016" xlink:href="#DejaVuSans-32"/>
    <use x="685.453125" xlink:href="#DejaVuSans-111"/>
    <use x="746.634766" xlink:href="#DejaVuSans-112"/>
    <use x="810.111328" xlink:href="#DejaVuSans-32"/>
    <use x="841.898438" xlink:href="#DejaVuSans-50"/>
    <use x="905.521484" xlink:href="#DejaVuSans-48"/>
    <use x="969.144531" xlink:href="#DejaVuSans-50"/>
    <use x="1032.767578" xlink:href="#DejaVuSans-48"/>
    <use x="1096.390625" xlink:href="#DejaVuSans-45"/>
    <use x="1132.474609" xlink:href="#DejaVuSans-49"/>
    <use x="1196.097656" xlink:href="#DejaVuSans-49"/>
    <use x="1259.720703" xlink:href="#DejaVuSans-45"/>
    <use x="1295.804688" xlink:href="#DejaVuSans-49"/>
    <use x="1359.427734" xlink:href="#DejaVuSans-50"/>
    <use x="1423.050781" xlink:href="#DejaVuSans-32"/>
    <use x="1454.837891" xlink:href="#DejaVuSans-49"/>
    <use x="1518.460938" xlink:href="#DejaVuSans-49"/>
    <use x="1582.083984" xlink:href="#DejaVuSans-58"/>
    <use x="1615.775391" xlink:href="#DejaVuSans-49"/>
    <use x="1679.398438" xlink:href="#DejaVuSans-56"/>
    <use x="1743.021484" xlink:href="#DejaVuSans-46"/>
   </g>
   <!-- Source code: http://github.com/realrolfje/coronadata -->
   <g style="fill:#808080;" transform="translate(7.2 213.84)scale(0.08 -0.08)">
    <defs>
     <path d="M 53.515625 70.515625 
L 53.515625 60.890625 
Q 47.90625 63.578125 42.921875 64.890625 
Q 37.9375 66.21875 33.296875 66.21875 
Q 25.25 66.21875 20.875 63.09375 
Q 16.5 59.96875 16.5 54.203125 
Q 16.5 49.359375 19.40625 46.890625 
Q 22.3125 44.4375 30.421875 42.921875 
L 36.375 41.703125 
Q 47.40625 39.59375 52.65625 34.296875 
Q 57.90625 29 57.90625 20.125 
Q 57.90625 9.515625 50.796875 4.046875 
Q 43.703125 -1.421875 29.984375 -1.421875 
Q 24.8125 -1.421875 18.96875 -0.25 
Q 13.140625 0.921875 6.890625 3.21875 
L 6.890625 13.375 
Q 12.890625 10.015625 18.65625 8.296875 
Q 24.421875 6.59375 29.984375 6.59375 
Q 38.421875 6.59375 43.015625 9.90625 
Q 47.609375 13.234375 47.609375 19.390625 
Q 47.609375 24.75 44.3125 27.78125 
Q 41.015625 30.8125 33.5 32.328125 
L 27.484375 33.5 
Q 16.453125 35.6875 11.515625 40.375 
Q 6.59375 45.0625 6.59375 53.421875 
Q 6.59375 63.09375 13.40625 68.65625 
Q 20.21875 74.21875 32.171875 74.21875 
Q 37.3125 74.21875 42.625 73.28125 
Q 47.953125 72.359375 53.515625 70.515625 
z
" id="DejaVuSans-83"/>
     <path d="M 54.890625 33.015625 
L 54.890625 0 
L 45.90625 0 
L 45.90625 32.71875 
Q 45.90625 40.484375 42.875 44.328125 
Q 39.84375 48.1875 33.796875 48.1875 
Q 26.515625 48.1875 22.3125 43.546875 
Q 18.109375 38.921875 18.109375 30.90625 
L 18.109375 0 
L 9.078125 0 
L 9.078125 75.984375 
L 18.109375 75.984375 
L 18.109375 46.1875 
Q 21.34375 51.125 25.703125 53.5625 
Q 30.078125 56 35.796875 56 
Q 45.21875 56 50.046875 50.171875 
Q 54.890625 44.34375 54.890625 33.015625 
z
" id="DejaVuSans-104"/>
     <path d="M 25.390625 72.90625 
L 33.6875 72.90625 
L 8.296875 -9.28125 
L 0 -9.28125 
z
" id="DejaVuSans-47"/>
     <path d="M 48.6875 27.296875 
Q 48.6875 37.203125 44.609375 42.84375 
Q 40.53125 48.484375 33.40625 48.484375 
Q 26.265625 48.484375 22.1875 42.84375 
Q 18.109375 37.203125 18.109375 27.296875 
Q 18.109375 17.390625 22.1875 11.75 
Q 26.265625 6.109375 33.40625 6.109375 
Q 40.53125 6.109375 44.609375 11.75 
Q 48.6875 17.390625 48.6875 27.296875 
z
M 18.109375 46.390625 
Q 20.953125 51.265625 25.265625 53.625 
Q 29.59375 56 35.59375 56 
Q 45.5625 56 51.78125 48.09375 
Q 58.015625 40.1875 58.015625 27.296875 
Q 58.015625 14.40625 51.78125 6.484375 
Q 45.5625 -1.421875 35.59375 -1.421875 
Q 29.59375 -1.421875 25.265625 0.953125 
Q 20.953125 3.328125 18.109375 8.203125 
L 18.109375 0 
L 9.078125 0 
L 9.078125 75.984375 
L 18.109375 75.984375 
z
" id="DejaVuSans-98"/>
     <path d="M 37.109375 75.984375 
L 37.109375 68.5 
L 28.515625 68.5 
Q 23.6875 68.5 21.796875 66.546875 
Q 19.921875 64.59375 19.921875 59.515625 
L 19.921875 54.6875 
L 34.71875 54.6875 
L 34.71875 47.703125 
L 19.921875 47.703125 
L 19.921875 0 
L 10.890625 0 
L 10.890625 47.703125 
L 2.296875 47.703125 
L 2.296875 54.6875 
L 10.890625 54.6875 
L 10.890625 58.5 
Q 10.890625 67.625 15.140625 71.796875 
Q 19.390625 75.984375 28.609375 75.984375 
z
" id="DejaVuSans-102"/>
     <path d="M 9.421875 54.6875 
L 18.40625 54.6875 
L 18.40625 -0.984375 
Q 18.40625 -11.421875 14.421875 -16.109375 
Q 10.453125 -20.796875 1.609375 -20.796875 
L -1.8125 -20.796875 
L -1.8125 -13.1875 
L 0.59375 -13.1875 
Q 5.71875 -13.1875 7.5625 -10.8125 
Q 9.421875 -8.453125 9.421875 -0.984375 
z
M 9.421875 75.984375 
L 18.40625 75.984375 
L 18.40625 64.59375 
L 9.421875 64.59375 
z
" id="DejaVuSans-106"/>
    </defs>
    <use xlink:href="#DejaVuSans-83"/>
    <use x="63.476562" xlink:href="#DejaVuSans-111"/>
    <use x="124.658203" xlink:href="#DejaVuSans-117"/>
    <use x="188.037109" xlink:href="#DejaVuSans-114"/>
    <use x="226.900391" xlink:href="#DejaVuSans-99"/>
    <use x="281.880859" xlink:href="#DejaVuSans-101"/>
    <use x="343.404297" xlink:href="#DejaVuSans-32"/>
    <use x="375.191406" xlink:href="#DejaVuSans-99"/>
    <use x="430.171875" xlink:href="#DejaVuSans-111"/>
    <use x="491.353516" xlink:href="#DejaVuSans-100"/>
    <use x="554.830078" xlink:href="#DejaVuSans-101"/>
    <use x="616.353516" xlink:href="#DejaVuSans-58"/>
    <use x="650.044922" xlink:href="#DejaVuSans-32"/>
    <use x="681.832031" xlink:href="#DejaVuSans-104"/>
    <use x="745.210938" xlink:href="#DejaVuSans-116"/>
    <use x="784.419922" xlink:href="#DejaVuSans-116"/>
    <use x="823.628906" xlink:href="#DejaVuSans-112"/>
    <use x="887.105469" xlink:href="#DejaVuSans-58"/>
    <use x="920.796875" xlink:href="#DejaVuSans-47"/>
    <use x="954.488281" xlink:href="#DejaVuSans-47"/>
    <use x="988.179688" xlink:href="#DejaVuSans-103"/>
    <use x="1051.65625" xlink:href="#DejaVuSans-105"/>
    <use x="1079.439453" xlink:href="#DejaVuSans-116"/>
    <use x="1118.648438" xlink:href="#DejaVuSans-104"/>
    <use x="1182.027344" xlink:href="#DejaVuSans-117"/>
    <use x="1245.40625" xlink:href="#DejaVuSans-98"/>
    <use x="1308.882812" xlink:href="#DejaVuSans-46"/>
    <use x="1340.669922" xlink:href="#DejaVuSans-99"/>
    <use x="1395.650391" xlink:href="#DejaVuSans-111"/>
    <use x="1456.832031" xlink:href="#DejaVuSans-109"/>
    <use x="1554.244141" xlink:href="#DejaVuSans-47"/>
    <use x="1587.935547" xlink:href="#DejaVuSans-114"/>
    <use x="1626.798828" xlink:href="#DejaVuSans-101"/>
    <use x="1688.322266" xlink:href="#DejaVuSans-97"/>
    <use x="1749.601562" xlink:href="#DejaVuSans-108"/>
    <use x="1777.384766" xlink:href="#DejaVuSans-114"/>
    <use x="1816.248047" xlink:href="#DejaVuSans-111"/>
    <use x="1877.429688" xlink:href="#DejaVuSans-108"/>
    <use x="1905.212891" xlink:href="#DejaVuSans-102"/>
    <use x="1940.417969" xlink:href="#DejaVuSans-106"/>
    <use x="1968.201172" xlink:href="#DejaVuSans-101"/>
    <use x="2029.724609" xlink:href="#DejaVuSans-47"/>
    <use x="2063.416016" xlink:href="#DejaVuSans-99"/>
    <use x="2118.396484" xlink:href="#DejaVuSans-111"/>
    <use x="2179.578125" xlink:href="#DejaVuSans-114"/>
    <use x="2218.441406" xlink:href="#DejaVuSans-111"/>
    <use x="2279.623047" xlink:href="#DejaVuSans-110"/>
    <use x="2343.001953" xlink:href="#DejaVuSans-97"/>
    <use x="2404.28125" xlink:href="#DejaVuSans-100"/>
    <use x="2467.757812" xlink:href="#DejaVuSans-97"/>
    <use x="2529.037109" xlink:href="#DejaVuSans-116"/>
    <use x="2568.246094" xlink:href="#DejaVuSans-97"/>
   </g>
  </g>
  <g id="text_23">
   <!-- Bron: https://data.rivm.nl/covid-19 -->
   <g style="fill:#808080;" transform="translate(574.79875 213.84)scale(0.08 -0.08)">
    <defs>
     <path d="M 19.671875 34.8125 
L 19.671875 8.109375 
L 35.5 8.109375 
Q 43.453125 8.109375 47.28125 11.40625 
Q 51.125 14.703125 51.125 21.484375 
Q 51.125 28.328125 47.28125 31.5625 
Q 43.453125 34.8125 35.5 34.8125 
z
M 19.671875 64.796875 
L 19.671875 42.828125 
L 34.28125 42.828125 
Q 41.5 42.828125 45.03125 45.53125 
Q 48.578125 48.25 48.578125 53.8125 
Q 48.578125 59.328125 45.03125 62.0625 
Q 41.5 64.796875 34.28125 64.796875 
z
M 9.8125 72.90625 
L 35.015625 72.90625 
Q 46.296875 72.90625 52.390625 68.21875 
Q 58.5 63.53125 58.5 54.890625 
Q 58.5 48.1875 55.375 44.234375 
Q 52.25 40.28125 46.1875 39.3125 
Q 53.46875 37.75 57.5 32.78125 
Q 61.53125 27.828125 61.53125 20.40625 
Q 61.53125 10.640625 54.890625 5.3125 
Q 48.25 0 35.984375 0 
L 9.8125 0 
z
" id="DejaVuSans-66"/>
     <path d="M 44.28125 53.078125 
L 44.28125 44.578125 
Q 40.484375 46.53125 36.375 47.5 
Q 32.28125 48.484375 27.875 48.484375 
Q 21.1875 48.484375 17.84375 46.4375 
Q 14.5 44.390625 14.5 40.28125 
Q 14.5 37.15625 16.890625 35.375 
Q 19.28125 33.59375 26.515625 31.984375 
L 29.59375 31.296875 
Q 39.15625 29.25 43.1875 25.515625 
Q 47.21875 21.78125 47.21875 15.09375 
Q 47.21875 7.46875 41.1875 3.015625 
Q 35.15625 -1.421875 24.609375 -1.421875 
Q 20.21875 -1.421875 15.453125 -0.5625 
Q 10.6875 0.296875 5.421875 2 
L 5.421875 11.28125 
Q 10.40625 8.6875 15.234375 7.390625 
Q 20.0625 6.109375 24.8125 6.109375 
Q 31.15625 6.109375 34.5625 8.28125 
Q 37.984375 10.453125 37.984375 14.40625 
Q 37.984375 18.0625 35.515625 20.015625 
Q 33.0625 21.96875 24.703125 23.78125 
L 21.578125 24.515625 
Q 13.234375 26.265625 9.515625 29.90625 
Q 5.8125 33.546875 5.8125 39.890625 
Q 5.8125 47.609375 11.28125 51.796875 
Q 16.75 56 26.8125 56 
Q 31.78125 56 36.171875 55.265625 
Q 40.578125 54.546875 44.28125 53.078125 
z
" id="DejaVuSans-115"/>
     <path d="M 2.984375 54.6875 
L 12.5 54.6875 
L 29.59375 8.796875 
L 46.6875 54.6875 
L 56.203125 54.6875 
L 35.6875 0 
L 23.484375 0 
z
" id="DejaVuSans-118"/>
    </defs>
    <use xlink:href="#DejaVuSans-66"/>
    <use x="68.603516" xlink:href="#DejaVuSans-114"/>
    <use x="107.466797" xlink:href="#DejaVuSans-111"/>
    <use x="168.648438" xlink:href="#DejaVuSans-110"/>
    <use x="232.027344" xlink:href="#DejaVuSans-58"/>
    <use x="265.71875" xlink:href="#DejaVuSans-32"/>
    <use x="297.505859" xlink:href="#DejaVuSans-104"/>
    <use x="360.884766" xlink:href="#DejaVuSans-116"/>
    <use x="400.09375" xlink:href="#DejaVuSans-116"/>
    <use x="439.302734" xlink:href="#DejaVuSans-112"/>
    <use x="502.779297" xlink:href="#DejaVuSans-115"/>
    <use x="554.878906" xlink:href="#DejaVuSans-58"/>
    <use x="588.570312" xlink:href="#DejaVuSans-47"/>
    <use x="622.261719" xlink:href="#DejaVuSans-47"/>
    <use x="655.953125" xlink:href="#DejaVuSans-100"/>
    <use x="719.429688" xlink:href="#DejaVuSans-97"/>
    <use x="780.708984" xlink:href="#DejaVuSans-116"/>
    <use x="819.917969" xlink:href="#DejaVuSans-97"/>
    <use x="881.197266" xlink:href="#DejaVuSans-46"/>
    <use x="912.984375" xlink:href="#DejaVuSans-114"/>
    <use x="954.097656" xlink:href="#DejaVuSans-105"/>
    <use x="981.880859" xlink:href="#DejaVuSans-118"/>
    <use x="1041.060547" xlink:href="#DejaVuSans-109"/>
    <use x="1138.472656" xlink:href="#DejaVuSans-46"/>
    <use x="1170.259766" xlink:href="#DejaVuSans-110"/>
    <use x="1233.638672" xlink:href="#DejaVuSans-108"/>
    <use x="1261.421875" xlink:href="#DejaVuSans-47"/>
    <use x="1295.113281" xlink:href="#DejaVuSans-99"/>
    <use x="1350.09375" xlink:href="#DejaVuSans-111"/>
    <use x="1411.275391" xlink:href="#DejaVuSans-118"/>
    <use x="1470.455078" xlink:href="#DejaVuSans-105"/>
    <use x="1498.238281" xlink:href="#DejaVuSans-100"/>
    <use x="1561.714844" xlink:href="#DejaVuSans-45"/>
    <use x="1597.798828" xlink:href="#DejaVuSans-49"/>
    <use x="1661.421875" xlink:href="#DejaVuSans-57"/>
   </g>
  </g>
 </g>
 <defs>
  <clipPath id="p93f1c57cc6">
   <rect height="146.88" width="590.4" x="64.8" y="25.92"/>
  </clipPath>
 </defs>
</svg>
