<?xml version="1.0" encoding="utf-8" standalone="no"?>
<!DOCTYPE svg PUBLIC "-//W3C//DTD SVG 1.1//EN"
  "http://www.w3.org/Graphics/SVG/1.1/DTD/svg11.dtd">
<!-- Created with matplotlib (https://matplotlib.org/) -->
<svg height="216pt" version="1.1" viewBox="0 0 720 216" width="720pt" xmlns="http://www.w3.org/2000/svg" xmlns:xlink="http://www.w3.org/1999/xlink">
 <metadata>
  <rdf:RDF xmlns:cc="http://creativecommons.org/ns#" xmlns:dc="http://purl.org/dc/elements/1.1/" xmlns:rdf="http://www.w3.org/1999/02/22-rdf-syntax-ns#">
   <cc:Work>
    <dc:type rdf:resource="http://purl.org/dc/dcmitype/StillImage"/>
    <dc:date>2021-10-23T11:41:11.826446</dc:date>
    <dc:format>image/svg+xml</dc:format>
    <dc:creator>
     <cc:Agent>
      <dc:title>Matplotlib v3.3.2, https://matplotlib.org/</dc:title>
     </cc:Agent>
    </dc:creator>
   </cc:Work>
  </rdf:RDF>
 </metadata>
 <defs>
  <style type="text/css">*{stroke-linecap:butt;stroke-linejoin:round;}</style>
 </defs>
 <g id="figure_1">
  <g id="patch_1">
   <path d="M 0 216 
L 720 216 
L 720 0 
L 0 0 
z
" style="fill:#ffffff;"/>
  </g>
  <g id="axes_1">
   <g id="patch_2">
    <path d="M 64.8 172.8 
L 655.2 172.8 
L 655.2 25.92 
L 64.8 25.92 
z
" style="fill:#ffffff;"/>
   </g>
   <g id="PolyCollection_1">
    <path clip-path="url(#p756ab6b11f)" d="M 93.006919 172.8 
L 93.006919 172.8 
L 93.979572 172.8 
L 94.952224 172.8 
L 95.924876 172.8 
L 98.842834 172.8 
L 99.815486 172.8 
L 100.788138 172.8 
L 101.760791 172.8 
L 102.733443 172.8 
L 103.706096 172.8 
L 106.624053 172.8 
L 107.596705 172.8 
L 108.569357 172.8 
L 109.54201 172.8 
L 110.514662 172.8 
L 112.459967 172.8 
L 113.432619 172.8 
L 114.405272 172.8 
L 115.377924 172.8 
L 116.350577 172.8 
L 119.268534 172.8 
L 120.241186 172.8 
L 121.213839 172.8 
L 122.186491 172.8 
L 123.159143 172.8 
L 124.131796 172.8 
L 126.0771 172.8 
L 128.022405 172.8 
L 128.995058 172.8 
L 129.96771 172.8 
L 131.913015 172.8 
L 132.885667 172.8 
L 133.85832 172.8 
L 134.830972 172.8 
L 135.803624 172.8 
L 137.748929 172.8 
L 138.721582 172.8 
L 139.694234 172.8 
L 140.666886 172.8 
L 141.639539 172.8 
L 142.612191 172.8 
L 143.584843 172.8 
L 144.557496 172.8 
L 145.530148 172.8 
L 146.502801 172.8 
L 147.475453 172.8 
L 148.448105 172.8 
L 149.420758 172.8 
L 150.39341 172.8 
L 151.366063 172.8 
L 154.28402 172.8 
L 155.256672 172.8 
L 156.229325 172.8 
L 157.201977 172.8 
L 158.174629 172.8 
L 159.147282 172.8 
L 160.119934 172.8 
L 161.092586 172.8 
L 162.065239 172.8 
L 163.037891 172.8 
L 164.010544 172.8 
L 166.928501 172.8 
L 167.901153 172.8 
L 168.873806 172.8 
L 169.846458 172.8 
L 173.737068 172.8 
L 174.70972 172.8 
L 175.682372 172.8 
L 179.572982 172.8 
L 180.545634 172.8 
L 181.518287 172.8 
L 182.490939 172.8 
L 184.436244 172.8 
L 188.326853 172.8 
L 189.299506 172.8 
L 190.272158 172.8 
L 195.13542 172.8 
L 196.108072 172.8 
L 198.053377 172.8 
L 199.998682 172.8 
L 200.971334 172.8 
L 201.943987 172.8 
L 202.916639 172.8 
L 203.889292 172.8 
L 204.861944 172.8 
L 205.834596 172.8 
L 206.807249 172.8 
L 207.779901 172.8 
L 208.752554 172.8 
L 209.725206 172.8 
L 210.697858 172.8 
L 211.670511 172.8 
L 212.643163 172.8 
L 213.615815 172.8 
L 214.588468 172.8 
L 215.56112 172.8 
L 216.533773 172.8 
L 217.506425 172.8 
L 218.479077 172.8 
L 219.45173 172.8 
L 221.397035 172.8 
L 222.369687 172.8 
L 223.342339 172.8 
L 224.314992 172.8 
L 225.287644 172.8 
L 226.260297 172.8 
L 227.232949 172.8 
L 228.205601 172.8 
L 229.178254 172.8 
L 230.150906 172.8 
L 231.123558 172.8 
L 232.096211 172.8 
L 233.068863 172.8 
L 234.041516 172.8 
L 235.014168 172.8 
L 235.98682 172.8 
L 236.959473 172.8 
L 237.932125 172.8 
L 238.904778 172.8 
L 239.87743 172.8 
L 240.850082 172.8 
L 241.822735 172.8 
L 242.795387 172.8 
L 243.76804 172.8 
L 244.740692 172.8 
L 245.713344 172.8 
L 246.685997 172.8 
L 247.658649 172.8 
L 248.631301 172.8 
L 249.603954 172.8 
L 250.576606 172.8 
L 251.549259 172.8 
L 252.521911 172.8 
L 253.494563 172.8 
L 254.467216 172.8 
L 255.439868 172.8 
L 256.412521 172.8 
L 257.385173 172.8 
L 258.357825 172.8 
L 259.330478 172.8 
L 260.30313 172.8 
L 261.275783 172.8 
L 262.248435 172.8 
L 263.221087 172.8 
L 264.19374 172.8 
L 265.166392 172.8 
L 266.139044 172.8 
L 267.111697 172.8 
L 268.084349 172.8 
L 269.057002 172.8 
L 270.029654 172.8 
L 271.002306 172.8 
L 271.974959 172.8 
L 272.947611 172.8 
L 273.920264 172.8 
L 274.892916 172.8 
L 275.865568 172.8 
L 276.838221 172.8 
L 277.810873 172.8 
L 278.783526 172.8 
L 279.756178 172.8 
L 280.72883 172.8 
L 281.701483 172.8 
L 282.674135 172.8 
L 283.646787 172.8 
L 284.61944 172.8 
L 285.592092 172.8 
L 286.564745 172.8 
L 287.537397 172.8 
L 288.510049 172.8 
L 289.482702 172.8 
L 290.455354 172.8 
L 291.428007 172.8 
L 292.400659 172.8 
L 293.373311 172.8 
L 294.345964 172.8 
L 295.318616 172.8 
L 296.291269 172.8 
L 297.263921 172.8 
L 298.236573 172.8 
L 299.209226 172.8 
L 300.181878 172.8 
L 301.15453 172.8 
L 302.127183 172.8 
L 303.099835 172.8 
L 304.072488 172.8 
L 305.04514 172.8 
L 306.017792 172.8 
L 306.990445 172.8 
L 307.963097 172.8 
L 308.93575 172.8 
L 309.908402 172.8 
L 310.881054 172.8 
L 311.853707 172.8 
L 312.826359 172.8 
L 313.799012 172.8 
L 314.771664 172.8 
L 315.744316 172.8 
L 316.716969 172.8 
L 317.689621 172.8 
L 318.662273 172.8 
L 319.634926 172.8 
L 320.607578 172.8 
L 321.580231 172.8 
L 322.552883 172.8 
L 323.525535 172.8 
L 324.498188 172.8 
L 325.47084 172.8 
L 326.443493 172.8 
L 327.416145 172.8 
L 328.388797 172.8 
L 329.36145 172.8 
L 330.334102 172.8 
L 331.306755 172.8 
L 332.279407 172.8 
L 333.252059 172.8 
L 334.224712 172.8 
L 335.197364 172.8 
L 336.170016 172.8 
L 337.142669 172.8 
L 338.115321 172.8 
L 339.087974 172.8 
L 340.060626 172.8 
L 341.033278 172.8 
L 342.005931 172.8 
L 342.978583 172.8 
L 343.951236 172.8 
L 344.923888 172.8 
L 345.89654 172.8 
L 346.869193 172.8 
L 347.841845 172.8 
L 348.814498 172.8 
L 349.78715 172.8 
L 350.759802 172.8 
L 351.732455 172.8 
L 352.705107 172.8 
L 353.677759 172.8 
L 354.650412 172.8 
L 355.623064 172.8 
L 356.595717 172.8 
L 357.568369 172.8 
L 358.541021 172.8 
L 359.513674 172.8 
L 360.486326 172.8 
L 362.431631 172.8 
L 363.404283 172.8 
L 364.376936 172.8 
L 365.349588 172.8 
L 366.322241 172.8 
L 367.294893 172.8 
L 368.267545 172.8 
L 369.240198 172.8 
L 370.21285 172.8 
L 371.185502 172.8 
L 372.158155 172.8 
L 373.130807 172.8 
L 374.10346 172.8 
L 375.076112 172.8 
L 376.048764 172.8 
L 377.021417 172.8 
L 377.994069 172.8 
L 378.966722 172.8 
L 379.939374 172.8 
L 380.912026 172.8 
L 381.884679 172.8 
L 382.857331 172.8 
L 383.829984 172.8 
L 384.802636 172.8 
L 385.775288 172.8 
L 386.747941 172.8 
L 387.720593 172.8 
L 388.693245 172.8 
L 389.665898 172.8 
L 390.63855 172.8 
L 391.611203 172.8 
L 392.583855 172.8 
L 393.556507 172.8 
L 394.52916 172.8 
L 395.501812 172.8 
L 396.474465 172.8 
L 397.447117 172.8 
L 398.419769 172.8 
L 399.392422 172.8 
L 400.365074 172.8 
L 401.337727 172.8 
L 402.310379 172.8 
L 403.283031 172.8 
L 404.255684 172.8 
L 405.228336 172.8 
L 406.200988 172.8 
L 407.173641 172.8 
L 408.146293 172.8 
L 409.118946 172.8 
L 410.091598 172.8 
L 411.06425 172.8 
L 412.036903 172.8 
L 413.009555 172.8 
L 413.982208 172.8 
L 414.95486 172.8 
L 415.927512 172.8 
L 416.900165 172.8 
L 417.872817 172.8 
L 418.84547 172.8 
L 419.818122 172.8 
L 420.790774 172.8 
L 421.763427 172.8 
L 422.736079 172.8 
L 423.708731 172.8 
L 424.681384 172.8 
L 425.654036 172.8 
L 426.626689 172.8 
L 427.599341 172.8 
L 428.571993 172.8 
L 429.544646 172.8 
L 430.517298 172.8 
L 431.489951 172.8 
L 432.462603 172.8 
L 433.435255 172.8 
L 434.407908 172.8 
L 435.38056 172.8 
L 436.353213 172.8 
L 437.325865 172.8 
L 438.298517 172.8 
L 439.27117 172.8 
L 440.243822 172.8 
L 441.216474 172.8 
L 442.189127 172.8 
L 443.161779 172.8 
L 444.134432 172.8 
L 445.107084 172.8 
L 446.079736 172.8 
L 447.052389 172.8 
L 448.025041 172.8 
L 448.997694 172.8 
L 449.970346 172.8 
L 450.942998 172.8 
L 451.915651 172.8 
L 452.888303 172.8 
L 453.860956 172.8 
L 454.833608 172.8 
L 455.80626 172.8 
L 456.778913 172.8 
L 457.751565 172.8 
L 458.724217 172.8 
L 459.69687 172.8 
L 460.669522 172.8 
L 461.642175 172.8 
L 462.614827 172.8 
L 463.587479 172.8 
L 464.560132 172.8 
L 465.532784 172.8 
L 466.505437 172.8 
L 467.478089 172.8 
L 468.450741 172.8 
L 469.423394 172.8 
L 470.396046 172.8 
L 471.368699 172.8 
L 472.341351 172.8 
L 473.314003 172.8 
L 474.286656 172.8 
L 475.259308 172.8 
L 476.23196 172.8 
L 477.204613 172.8 
L 478.177265 172.8 
L 479.149918 172.8 
L 480.12257 172.8 
L 481.095222 172.8 
L 482.067875 172.8 
L 483.040527 172.8 
L 484.01318 172.8 
L 484.985832 172.8 
L 485.958484 172.8 
L 486.931137 172.8 
L 487.903789 172.8 
L 488.876442 172.8 
L 489.849094 172.8 
L 490.821746 172.8 
L 491.794399 172.8 
L 492.767051 172.8 
L 493.739703 172.8 
L 494.712356 172.8 
L 495.685008 172.8 
L 496.657661 172.8 
L 497.630313 172.8 
L 498.602965 172.8 
L 500.54827 172.8 
L 501.520923 172.8 
L 502.493575 172.8 
L 503.466227 172.8 
L 504.43888 172.8 
L 505.411532 172.8 
L 506.384185 172.8 
L 507.356837 172.8 
L 508.329489 172.8 
L 509.302142 172.8 
L 510.274794 172.8 
L 511.247446 172.8 
L 512.220099 172.8 
L 514.165404 172.8 
L 515.138056 172.8 
L 516.110708 172.8 
L 517.083361 172.8 
L 518.056013 172.8 
L 520.001318 172.8 
L 520.97397 172.8 
L 521.946623 172.8 
L 522.919275 172.8 
L 523.891928 172.8 
L 524.86458 172.8 
L 526.809885 172.8 
L 527.782537 172.8 
L 528.755189 172.8 
L 529.727842 172.8 
L 530.700494 172.8 
L 531.673147 172.8 
L 532.645799 172.8 
L 533.618451 172.8 
L 534.591104 172.8 
L 535.563756 172.8 
L 536.536409 172.8 
L 537.509061 172.8 
L 538.481713 172.8 
L 539.454366 172.8 
L 540.427018 172.8 
L 541.399671 172.8 
L 542.372323 172.8 
L 543.344975 172.8 
L 544.317628 172.8 
L 545.29028 172.8 
L 546.262932 172.8 
L 547.235585 172.8 
L 548.208237 172.8 
L 549.18089 172.8 
L 550.153542 172.8 
L 551.126194 172.8 
L 552.098847 172.8 
L 554.044152 172.8 
L 555.016804 172.8 
L 555.989456 172.8 
L 556.962109 172.8 
L 557.934761 172.8 
L 558.907414 172.8 
L 559.880066 172.8 
L 560.852718 172.8 
L 561.825371 172.8 
L 562.798023 172.8 
L 563.770675 172.8 
L 564.743328 172.8 
L 565.71598 172.8 
L 566.688633 172.8 
L 567.661285 172.8 
L 568.633937 172.8 
L 569.60659 172.8 
L 570.579242 172.8 
L 571.551895 172.8 
L 572.524547 172.8 
L 573.497199 172.8 
L 574.469852 172.8 
L 575.442504 172.8 
L 576.415157 172.8 
L 577.387809 172.8 
L 578.360461 172.8 
L 579.333114 172.8 
L 580.305766 172.8 
L 581.278418 172.8 
L 582.251071 172.8 
L 583.223723 172.8 
L 584.196376 172.8 
L 585.169028 172.8 
L 586.14168 172.8 
L 587.114333 172.8 
L 588.086985 172.8 
L 589.059638 172.8 
L 590.03229 172.8 
L 591.004942 172.8 
L 591.977595 172.8 
L 592.950247 172.8 
L 593.9229 172.8 
L 594.895552 172.8 
L 595.868204 172.8 
L 596.840857 172.8 
L 597.813509 172.8 
L 598.786161 172.8 
L 599.758814 172.8 
L 600.731466 172.8 
L 601.704119 172.8 
L 602.676771 172.8 
L 603.649423 172.8 
L 604.622076 172.8 
L 605.594728 172.8 
L 606.567381 172.8 
L 607.540033 172.8 
L 608.512685 172.8 
L 609.485338 172.8 
L 610.45799 172.8 
L 611.430643 172.8 
L 612.403295 172.8 
L 613.375947 172.8 
L 614.3486 172.8 
L 615.321252 172.8 
L 616.293904 172.8 
L 617.266557 172.8 
L 618.239209 172.8 
L 619.211862 172.8 
L 620.184514 172.8 
L 621.157166 172.8 
L 622.129819 172.8 
L 623.102471 172.8 
L 624.075124 172.8 
L 625.047776 172.8 
L 626.020428 172.8 
L 626.993081 172.8 
L 627.965733 172.8 
L 628.938386 172.8 
L 629.911038 172.8 
L 630.88369 172.8 
L 631.856343 172.8 
L 632.828995 172.8 
L 633.801647 172.8 
L 634.7743 172.8 
L 635.746952 172.8 
L 636.719605 172.8 
L 637.692257 172.8 
L 638.664909 172.8 
L 639.637562 172.8 
L 640.610214 172.8 
L 641.582867 172.8 
L 642.555519 172.8 
L 643.528171 172.8 
L 644.500824 172.8 
L 645.473476 172.8 
L 645.473476 172.8 
L 645.473476 108.25555 
L 644.500824 121.439315 
L 643.528171 114.257647 
L 642.555519 123.58459 
L 641.582867 133.780851 
L 640.610214 121.434045 
L 639.637562 139.777225 
L 638.664909 129.42837 
L 637.692257 145.84319 
L 636.719605 144.975677 
L 635.746952 138.343168 
L 634.7743 144.825335 
L 633.801647 144.842546 
L 632.828995 142.898979 
L 631.856343 141.300952 
L 630.88369 157.794354 
L 629.911038 152.384637 
L 628.938386 151.494358 
L 627.965733 139.339275 
L 626.993081 162.924932 
L 626.020428 163.84871 
L 625.047776 164.618331 
L 624.075124 160.735574 
L 623.102471 160.931326 
L 622.129819 165.495283 
L 621.157166 165.526276 
L 620.184514 164.880385 
L 619.211862 165.767747 
L 618.239209 161.531659 
L 617.266557 159.168248 
L 616.293904 158.010865 
L 615.321252 159.612778 
L 614.3486 159.67445 
L 613.375947 156.159128 
L 612.403295 158.942779 
L 611.430643 159.600245 
L 610.45799 158.557057 
L 609.485338 154.614238 
L 608.512685 156.040338 
L 607.540033 154.075736 
L 606.567381 155.497653 
L 605.594728 152.587899 
L 604.622076 159.071893 
L 603.649423 158.314133 
L 602.676771 156.48511 
L 601.704119 151.198208 
L 600.731466 156.308147 
L 599.758814 140.121152 
L 598.786161 143.77803 
L 597.813509 153.051534 
L 596.840857 154.038195 
L 595.868204 113.673352 
L 594.895552 126.552328 
L 593.9229 86.555518 
L 592.950247 91.367181 
L 591.977595 105.362619 
L 591.004942 110.946525 
L 590.03229 112.114865 
L 589.059638 67.483907 
L 588.086985 109.565735 
L 587.114333 99.673739 
L 586.14168 118.011793 
L 585.169028 133.57501 
L 584.196376 96.914461 
L 583.223723 100.590619 
L 582.251071 117.063487 
L 581.278418 103.97465 
L 580.305766 128.231253 
L 579.333114 120.401284 
L 578.360461 133.881418 
L 577.387809 118.374431 
L 576.415157 118.544303 
L 575.442504 113.231311 
L 574.469852 94.393136 
L 573.497199 100.809521 
L 572.524547 116.982749 
L 571.551895 122.566281 
L 570.579242 117.939511 
L 569.60659 128.276341 
L 568.633937 124.907374 
L 567.661285 124.049843 
L 566.688633 99.893438 
L 565.71598 141.761223 
L 564.743328 150.067636 
L 563.770675 140.83913 
L 562.798023 131.634992 
L 561.825371 105.298774 
L 560.852718 96.246388 
L 559.880066 112.877385 
L 558.907414 117.094011 
L 557.934761 118.679378 
L 556.962109 128.586543 
L 555.989456 112.395215 
L 555.016804 129.273481 
L 554.044152 135.748475 
L 552.098847 69.624428 
L 551.126194 86.109646 
L 550.153542 115.620374 
L 549.18089 120.083676 
L 548.208237 107.106826 
L 547.235585 113.775038 
L 546.262932 131.657997 
L 545.29028 133.732477 
L 544.317628 152.113281 
L 543.344975 158.278977 
L 542.372323 154.895313 
L 541.399671 132.472614 
L 540.427018 165.203222 
L 539.454366 162.865835 
L 538.481713 165.044743 
L 537.509061 161.123898 
L 536.536409 157.473302 
L 535.563756 159.381456 
L 534.591104 149.038951 
L 533.618451 162.578342 
L 532.645799 166.706488 
L 531.673147 164.762485 
L 530.700494 163.466462 
L 529.727842 166.407872 
L 528.755189 160.647305 
L 527.782537 165.344461 
L 526.809885 166.932537 
L 524.86458 164.907603 
L 523.891928 166.048249 
L 522.919275 158.564879 
L 521.946623 165.651949 
L 520.97397 163.719222 
L 520.001318 152.601763 
L 518.056013 166.231205 
L 517.083361 158.369958 
L 516.110708 164.721914 
L 515.138056 165.454857 
L 514.165404 156.943142 
L 512.220099 154.317977 
L 511.247446 161.941118 
L 510.274794 153.307665 
L 509.302142 150.072919 
L 508.329489 155.840308 
L 507.356837 143.823819 
L 506.384185 159.958058 
L 505.411532 157.182068 
L 504.43888 160.724644 
L 503.466227 150.87697 
L 502.493575 146.072729 
L 501.520923 147.623725 
L 500.54827 156.278739 
L 498.602965 160.980164 
L 497.630313 159.296892 
L 496.657661 144.976202 
L 495.685008 147.069589 
L 494.712356 142.240589 
L 493.739703 150.254818 
L 492.767051 158.486605 
L 491.794399 144.83535 
L 490.821746 135.026605 
L 489.849094 137.38719 
L 488.876442 140.765368 
L 487.903789 145.787135 
L 486.931137 108.75472 
L 485.958484 103.262195 
L 484.985832 115.853748 
L 484.01318 141.745611 
L 483.040527 127.974218 
L 482.067875 114.265223 
L 481.095222 139.502399 
L 480.12257 143.86213 
L 479.149918 158.802785 
L 478.177265 153.367031 
L 477.204613 115.730656 
L 476.23196 135.551623 
L 475.259308 140.78195 
L 474.286656 121.148949 
L 473.314003 133.51249 
L 472.341351 130.091271 
L 471.368699 135.880988 
L 470.396046 147.345678 
L 469.423394 147.358762 
L 468.450741 137.245478 
L 467.478089 138.463304 
L 466.505437 127.871112 
L 465.532784 109.999958 
L 464.560132 143.626176 
L 463.587479 145.033573 
L 462.614827 148.298329 
L 461.642175 131.582982 
L 460.669522 142.220105 
L 459.69687 137.02193 
L 458.724217 100.001389 
L 457.751565 134.666472 
L 456.778913 148.856339 
L 455.80626 123.085239 
L 454.833608 123.289084 
L 453.860956 134.702381 
L 452.888303 144.519171 
L 451.915651 142.299816 
L 450.942998 137.706486 
L 449.970346 136.594829 
L 448.997694 146.560704 
L 448.025041 138.886122 
L 447.052389 139.429368 
L 446.079736 132.664801 
L 445.107084 141.618189 
L 444.134432 122.583908 
L 443.161779 144.576796 
L 442.189127 133.395371 
L 441.216474 137.273546 
L 440.243822 137.452636 
L 439.27117 94.154465 
L 438.298517 149.836529 
L 437.325865 146.658218 
L 436.353213 144.203056 
L 435.38056 153.593226 
L 434.407908 131.990137 
L 433.435255 150.482938 
L 432.462603 146.062586 
L 431.489951 138.270488 
L 430.517298 140.474265 
L 429.544646 136.173656 
L 428.571993 145.561687 
L 427.599341 145.824078 
L 426.626689 134.917762 
L 425.654036 136.10468 
L 424.681384 135.503673 
L 423.708731 143.411868 
L 422.736079 140.431129 
L 421.763427 149.631861 
L 420.790774 144.98062 
L 419.818122 152.134888 
L 418.84547 152.822361 
L 417.872817 107.094418 
L 416.900165 150.107848 
L 415.927512 155.110677 
L 414.95486 147.417759 
L 413.982208 134.378601 
L 413.009555 123.736466 
L 412.036903 94.452958 
L 411.06425 122.0091 
L 410.091598 119.619045 
L 409.118946 121.188999 
L 408.146293 136.746587 
L 407.173641 126.434458 
L 406.200988 98.953126 
L 405.228336 132.435553 
L 404.255684 143.631971 
L 403.283031 133.624532 
L 402.310379 131.986887 
L 401.337727 145.900622 
L 400.365074 103.401331 
L 399.392422 140.75296 
L 398.419769 156.623379 
L 397.447117 115.693219 
L 396.474465 152.467855 
L 395.501812 136.724621 
L 394.52916 127.879979 
L 393.556507 110.949963 
L 392.583855 138.956931 
L 391.611203 141.070653 
L 390.63855 129.142211 
L 389.665898 15.68914 
L 388.693245 112.51842 
L 387.720593 118.917676 
L 386.747941 122.463782 
L 385.775288 116.446134 
L 384.802636 123.321199 
L 383.829984 128.227239 
L 382.857331 120.804109 
L 381.884679 114.072468 
L 380.912026 119.903631 
L 379.939374 70.994361 
L 378.966722 126.808136 
L 377.994069 95.85818 
L 377.021417 119.417674 
L 376.048764 118.310906 
L 375.076112 138.198319 
L 374.10346 118.67097 
L 373.130807 100.435639 
L 372.158155 102.553918 
L 371.185502 139.020652 
L 370.21285 143.226033 
L 369.240198 134.632717 
L 368.267545 94.712823 
L 367.294893 141.289227 
L 366.322241 136.54924 
L 365.349588 128.651177 
L 364.376936 142.366857 
L 363.404283 142.144416 
L 362.431631 148.582004 
L 360.486326 150.301365 
L 359.513674 124.130691 
L 358.541021 148.462833 
L 357.568369 109.27937 
L 356.595717 137.513423 
L 355.623064 110.618042 
L 354.650412 157.079793 
L 353.677759 83.438886 
L 352.705107 111.983864 
L 351.732455 73.103404 
L 350.759802 133.429368 
L 349.78715 141.10212 
L 348.814498 126.848849 
L 347.841845 131.986563 
L 346.869193 120.910297 
L 345.89654 111.682523 
L 344.923888 98.98178 
L 343.951236 126.490178 
L 342.978583 127.436698 
L 342.005931 134.070279 
L 341.033278 144.533673 
L 340.060626 131.680919 
L 339.087974 150.393015 
L 338.115321 145.27843 
L 337.142669 139.303238 
L 336.170016 155.751244 
L 335.197364 154.233212 
L 334.224712 134.665619 
L 333.252059 150.45322 
L 332.279407 133.204493 
L 331.306755 112.441861 
L 330.334102 145.385705 
L 329.36145 149.906995 
L 328.388797 140.872564 
L 327.416145 154.759042 
L 326.443493 158.325885 
L 325.47084 122.986544 
L 324.498188 151.408339 
L 323.525535 133.081133 
L 322.552883 150.505132 
L 321.580231 140.557451 
L 320.607578 148.638725 
L 319.634926 150.043084 
L 318.662273 135.317912 
L 317.689621 130.896421 
L 316.716969 44.19538 
L 315.744316 48.314342 
L 314.771664 38.95911 
L 313.799012 120.178486 
L 312.826359 127.942063 
L 311.853707 127.312337 
L 310.881054 112.150758 
L 309.908402 55.100107 
L 308.93575 90.109583 
L 307.963097 105.917867 
L 306.990445 118.047033 
L 306.017792 144.181423 
L 305.04514 133.659635 
L 304.072488 131.180264 
L 303.099835 77.76794 
L 302.127183 62.971903 
L 301.15453 124.882684 
L 300.181878 89.662709 
L 299.209226 10.998351 
L 298.236573 42.325429 
L 297.263921 119.37907 
L 296.291269 60.147391 
L 295.318616 113.670515 
L 294.345964 114.579916 
L 293.373311 139.850619 
L 292.400659 -22.688593 
L 291.428007 97.161943 
L 290.455354 124.559148 
L 289.482702 92.778764 
L 288.510049 116.281461 
L 287.537397 84.918277 
L 286.564745 138.007466 
L 285.592092 124.430258 
L 284.61944 136.678603 
L 283.646787 136.124384 
L 282.674135 61.256752 
L 281.701483 63.072952 
L 280.72883 104.374328 
L 279.756178 107.505785 
L 278.783526 105.39117 
L 277.810873 115.175898 
L 276.838221 115.176844 
L 275.865568 138.169581 
L 274.892916 127.208149 
L 273.920264 137.472289 
L 272.947611 130.374689 
L 271.974959 149.408029 
L 271.002306 142.902446 
L 270.029654 135.045974 
L 269.057002 130.120766 
L 268.084349 139.469932 
L 267.111697 162.340975 
L 266.139044 153.586375 
L 265.166392 156.791303 
L 264.19374 153.243879 
L 263.221087 162.158385 
L 262.248435 154.781233 
L 261.275783 158.549592 
L 260.30313 161.632101 
L 259.330478 159.761953 
L 258.357825 160.107711 
L 257.385173 165.527424 
L 256.412521 154.794115 
L 255.439868 163.750219 
L 254.467216 165.2287 
L 253.494563 164.851437 
L 252.521911 161.646779 
L 251.549259 159.606196 
L 250.576606 162.994352 
L 249.603954 161.883705 
L 248.631301 149.381088 
L 247.658649 164.428987 
L 246.685997 159.888726 
L 245.713344 166.563039 
L 244.740692 166.534956 
L 243.76804 167.354906 
L 242.795387 165.740164 
L 241.822735 165.395173 
L 240.850082 164.825302 
L 239.87743 161.830637 
L 238.904778 168.346235 
L 237.932125 164.500286 
L 236.959473 163.345375 
L 235.98682 160.25679 
L 235.014168 147.864797 
L 234.041516 157.254084 
L 233.068863 159.035512 
L 232.096211 159.196279 
L 231.123558 165.409017 
L 230.150906 155.121236 
L 229.178254 158.398205 
L 228.205601 163.285903 
L 227.232949 163.806139 
L 226.260297 142.402059 
L 225.287644 152.048592 
L 224.314992 166.735444 
L 223.342339 156.342563 
L 222.369687 161.919325 
L 221.397035 159.86404 
L 219.45173 167.582633 
L 218.479077 170.608903 
L 217.506425 167.929001 
L 216.533773 156.555167 
L 215.56112 133.564508 
L 214.588468 135.992416 
L 213.615815 163.81682 
L 212.643163 162.799855 
L 211.670511 166.723629 
L 210.697858 158.481092 
L 209.725206 165.012991 
L 208.752554 153.975685 
L 207.779901 158.265335 
L 206.807249 142.900343 
L 205.834596 166.826596 
L 204.861944 150.345553 
L 203.889292 169.497674 
L 202.916639 143.506905 
L 201.943987 167.883728 
L 200.971334 164.754609 
L 199.998682 169.502519 
L 198.053377 163.177544 
L 196.108072 169.337268 
L 195.13542 168.942674 
L 190.272158 165.412106 
L 189.299506 168.689792 
L 188.326853 167.50154 
L 184.436244 166.851581 
L 182.490939 172.116684 
L 181.518287 168.718239 
L 180.545634 166.636881 
L 179.572982 164.008619 
L 175.682372 169.955907 
L 174.70972 171.573335 
L 173.737068 167.091582 
L 169.846458 169.716459 
L 168.873806 167.099412 
L 167.901153 169.626374 
L 166.928501 164.571721 
L 164.010544 162.565527 
L 163.037891 166.791262 
L 162.065239 168.882955 
L 161.092586 166.818012 
L 160.119934 171.120596 
L 159.147282 171.433588 
L 158.174629 166.078253 
L 157.201977 162.127068 
L 156.229325 163.34801 
L 155.256672 162.074622 
L 154.28402 160.42577 
L 151.366063 171.558047 
L 150.39341 171.453746 
L 149.420758 148.37656 
L 148.448105 165.654567 
L 147.475453 165.270275 
L 146.502801 152.138744 
L 145.530148 171.059039 
L 144.557496 165.212548 
L 143.584843 151.928567 
L 142.612191 170.630847 
L 141.639539 163.842436 
L 140.666886 166.665581 
L 139.694234 165.107521 
L 138.721582 171.311531 
L 137.748929 166.334267 
L 135.803624 168.424196 
L 134.830972 169.840436 
L 133.85832 165.242075 
L 132.885667 164.105759 
L 131.913015 167.329548 
L 129.96771 158.454184 
L 128.995058 164.529101 
L 128.022405 161.97235 
L 126.0771 163.500264 
L 124.131796 169.278365 
L 123.159143 164.882408 
L 122.186491 163.086795 
L 121.213839 157.206963 
L 120.241186 159.025131 
L 119.268534 166.781834 
L 116.350577 75.409234 
L 115.377924 150.171596 
L 114.405272 165.826859 
L 113.432619 164.679645 
L 112.459967 163.82511 
L 110.514662 171.94407 
L 109.54201 158.326398 
L 108.569357 155.862477 
L 107.596705 165.54048 
L 106.624053 128.572481 
L 103.706096 149.722086 
L 102.733443 119.760025 
L 101.760791 125.072419 
L 100.788138 143.832365 
L 99.815486 101.506725 
L 98.842834 106.895652 
L 95.924876 110.557719 
L 94.952224 125.090338 
L 93.979572 146.064542 
L 93.006919 116.734235 
z
" style="fill:#008000;fill-opacity:0.3;"/>
   </g>
   <g id="matplotlib.axis_1">
    <g id="xtick_1">
     <g id="line2d_1">
      <path clip-path="url(#p756ab6b11f)" d="M 64.8 172.8 
L 64.8 25.92 
" style="fill:none;stroke:#808080;stroke-dasharray:6.4,1.6,1,1.6;stroke-dashoffset:0;stroke-opacity:0.3;"/>
     </g>
     <g id="line2d_2">
      <defs>
       <path d="M 0 0 
L 0 3.5 
" id="m29dfe1b261" style="stroke:#000000;stroke-width:0.8;"/>
      </defs>
      <g>
       <use style="stroke:#000000;stroke-width:0.8;" x="64.8" xlink:href="#m29dfe1b261" y="172.8"/>
      </g>
     </g>
     <g id="text_1">
      <!-- 2020-03 -->
      <g transform="translate(43.908594 187.398438)scale(0.1 -0.1)">
       <defs>
        <path d="M 19.1875 8.296875 
L 53.609375 8.296875 
L 53.609375 0 
L 7.328125 0 
L 7.328125 8.296875 
Q 12.9375 14.109375 22.625 23.890625 
Q 32.328125 33.6875 34.8125 36.53125 
Q 39.546875 41.84375 41.421875 45.53125 
Q 43.3125 49.21875 43.3125 52.78125 
Q 43.3125 58.59375 39.234375 62.25 
Q 35.15625 65.921875 28.609375 65.921875 
Q 23.96875 65.921875 18.8125 64.3125 
Q 13.671875 62.703125 7.8125 59.421875 
L 7.8125 69.390625 
Q 13.765625 71.78125 18.9375 73 
Q 24.125 74.21875 28.421875 74.21875 
Q 39.75 74.21875 46.484375 68.546875 
Q 53.21875 62.890625 53.21875 53.421875 
Q 53.21875 48.921875 51.53125 44.890625 
Q 49.859375 40.875 45.40625 35.40625 
Q 44.1875 33.984375 37.640625 27.21875 
Q 31.109375 20.453125 19.1875 8.296875 
z
" id="DejaVuSans-50"/>
        <path d="M 31.78125 66.40625 
Q 24.171875 66.40625 20.328125 58.90625 
Q 16.5 51.421875 16.5 36.375 
Q 16.5 21.390625 20.328125 13.890625 
Q 24.171875 6.390625 31.78125 6.390625 
Q 39.453125 6.390625 43.28125 13.890625 
Q 47.125 21.390625 47.125 36.375 
Q 47.125 51.421875 43.28125 58.90625 
Q 39.453125 66.40625 31.78125 66.40625 
z
M 31.78125 74.21875 
Q 44.046875 74.21875 50.515625 64.515625 
Q 56.984375 54.828125 56.984375 36.375 
Q 56.984375 17.96875 50.515625 8.265625 
Q 44.046875 -1.421875 31.78125 -1.421875 
Q 19.53125 -1.421875 13.0625 8.265625 
Q 6.59375 17.96875 6.59375 36.375 
Q 6.59375 54.828125 13.0625 64.515625 
Q 19.53125 74.21875 31.78125 74.21875 
z
" id="DejaVuSans-48"/>
        <path d="M 4.890625 31.390625 
L 31.203125 31.390625 
L 31.203125 23.390625 
L 4.890625 23.390625 
z
" id="DejaVuSans-45"/>
        <path d="M 40.578125 39.3125 
Q 47.65625 37.796875 51.625 33 
Q 55.609375 28.21875 55.609375 21.1875 
Q 55.609375 10.40625 48.1875 4.484375 
Q 40.765625 -1.421875 27.09375 -1.421875 
Q 22.515625 -1.421875 17.65625 -0.515625 
Q 12.796875 0.390625 7.625 2.203125 
L 7.625 11.71875 
Q 11.71875 9.328125 16.59375 8.109375 
Q 21.484375 6.890625 26.8125 6.890625 
Q 36.078125 6.890625 40.9375 10.546875 
Q 45.796875 14.203125 45.796875 21.1875 
Q 45.796875 27.640625 41.28125 31.265625 
Q 36.765625 34.90625 28.71875 34.90625 
L 20.21875 34.90625 
L 20.21875 43.015625 
L 29.109375 43.015625 
Q 36.375 43.015625 40.234375 45.921875 
Q 44.09375 48.828125 44.09375 54.296875 
Q 44.09375 59.90625 40.109375 62.90625 
Q 36.140625 65.921875 28.71875 65.921875 
Q 24.65625 65.921875 20.015625 65.03125 
Q 15.375 64.15625 9.8125 62.3125 
L 9.8125 71.09375 
Q 15.4375 72.65625 20.34375 73.4375 
Q 25.25 74.21875 29.59375 74.21875 
Q 40.828125 74.21875 47.359375 69.109375 
Q 53.90625 64.015625 53.90625 55.328125 
Q 53.90625 49.265625 50.4375 45.09375 
Q 46.96875 40.921875 40.578125 39.3125 
z
" id="DejaVuSans-51"/>
       </defs>
       <use xlink:href="#DejaVuSans-50"/>
       <use x="63.623047" xlink:href="#DejaVuSans-48"/>
       <use x="127.246094" xlink:href="#DejaVuSans-50"/>
       <use x="190.869141" xlink:href="#DejaVuSans-48"/>
       <use x="254.492188" xlink:href="#DejaVuSans-45"/>
       <use x="290.576172" xlink:href="#DejaVuSans-48"/>
       <use x="354.199219" xlink:href="#DejaVuSans-51"/>
      </g>
     </g>
    </g>
    <g id="xtick_2">
     <g id="line2d_3">
      <path clip-path="url(#p756ab6b11f)" d="M 124.131796 172.8 
L 124.131796 25.92 
" style="fill:none;stroke:#808080;stroke-dasharray:6.4,1.6,1,1.6;stroke-dashoffset:0;stroke-opacity:0.3;"/>
     </g>
     <g id="line2d_4">
      <g>
       <use style="stroke:#000000;stroke-width:0.8;" x="124.131796" xlink:href="#m29dfe1b261" y="172.8"/>
      </g>
     </g>
     <g id="text_2">
      <!-- 2020-05 -->
      <g transform="translate(103.240389 187.398438)scale(0.1 -0.1)">
       <defs>
        <path d="M 10.796875 72.90625 
L 49.515625 72.90625 
L 49.515625 64.59375 
L 19.828125 64.59375 
L 19.828125 46.734375 
Q 21.96875 47.46875 24.109375 47.828125 
Q 26.265625 48.1875 28.421875 48.1875 
Q 40.625 48.1875 47.75 41.5 
Q 54.890625 34.8125 54.890625 23.390625 
Q 54.890625 11.625 47.5625 5.09375 
Q 40.234375 -1.421875 26.90625 -1.421875 
Q 22.3125 -1.421875 17.546875 -0.640625 
Q 12.796875 0.140625 7.71875 1.703125 
L 7.71875 11.625 
Q 12.109375 9.234375 16.796875 8.0625 
Q 21.484375 6.890625 26.703125 6.890625 
Q 35.15625 6.890625 40.078125 11.328125 
Q 45.015625 15.765625 45.015625 23.390625 
Q 45.015625 31 40.078125 35.4375 
Q 35.15625 39.890625 26.703125 39.890625 
Q 22.75 39.890625 18.8125 39.015625 
Q 14.890625 38.140625 10.796875 36.28125 
z
" id="DejaVuSans-53"/>
       </defs>
       <use xlink:href="#DejaVuSans-50"/>
       <use x="63.623047" xlink:href="#DejaVuSans-48"/>
       <use x="127.246094" xlink:href="#DejaVuSans-50"/>
       <use x="190.869141" xlink:href="#DejaVuSans-48"/>
       <use x="254.492188" xlink:href="#DejaVuSans-45"/>
       <use x="290.576172" xlink:href="#DejaVuSans-48"/>
       <use x="354.199219" xlink:href="#DejaVuSans-53"/>
      </g>
     </g>
    </g>
    <g id="xtick_3">
     <g id="line2d_5">
      <path clip-path="url(#p756ab6b11f)" d="M 183.463591 172.8 
L 183.463591 25.92 
" style="fill:none;stroke:#808080;stroke-dasharray:6.4,1.6,1,1.6;stroke-dashoffset:0;stroke-opacity:0.3;"/>
     </g>
     <g id="line2d_6">
      <g>
       <use style="stroke:#000000;stroke-width:0.8;" x="183.463591" xlink:href="#m29dfe1b261" y="172.8"/>
      </g>
     </g>
     <g id="text_3">
      <!-- 2020-07 -->
      <g transform="translate(162.572185 187.398438)scale(0.1 -0.1)">
       <defs>
        <path d="M 8.203125 72.90625 
L 55.078125 72.90625 
L 55.078125 68.703125 
L 28.609375 0 
L 18.3125 0 
L 43.21875 64.59375 
L 8.203125 64.59375 
z
" id="DejaVuSans-55"/>
       </defs>
       <use xlink:href="#DejaVuSans-50"/>
       <use x="63.623047" xlink:href="#DejaVuSans-48"/>
       <use x="127.246094" xlink:href="#DejaVuSans-50"/>
       <use x="190.869141" xlink:href="#DejaVuSans-48"/>
       <use x="254.492188" xlink:href="#DejaVuSans-45"/>
       <use x="290.576172" xlink:href="#DejaVuSans-48"/>
       <use x="354.199219" xlink:href="#DejaVuSans-55"/>
      </g>
     </g>
    </g>
    <g id="xtick_4">
     <g id="line2d_7">
      <path clip-path="url(#p756ab6b11f)" d="M 243.76804 172.8 
L 243.76804 25.92 
" style="fill:none;stroke:#808080;stroke-dasharray:6.4,1.6,1,1.6;stroke-dashoffset:0;stroke-opacity:0.3;"/>
     </g>
     <g id="line2d_8">
      <g>
       <use style="stroke:#000000;stroke-width:0.8;" x="243.76804" xlink:href="#m29dfe1b261" y="172.8"/>
      </g>
     </g>
     <g id="text_4">
      <!-- 2020-09 -->
      <g transform="translate(222.876633 187.398438)scale(0.1 -0.1)">
       <defs>
        <path d="M 10.984375 1.515625 
L 10.984375 10.5 
Q 14.703125 8.734375 18.5 7.8125 
Q 22.3125 6.890625 25.984375 6.890625 
Q 35.75 6.890625 40.890625 13.453125 
Q 46.046875 20.015625 46.78125 33.40625 
Q 43.953125 29.203125 39.59375 26.953125 
Q 35.25 24.703125 29.984375 24.703125 
Q 19.046875 24.703125 12.671875 31.3125 
Q 6.296875 37.9375 6.296875 49.421875 
Q 6.296875 60.640625 12.9375 67.421875 
Q 19.578125 74.21875 30.609375 74.21875 
Q 43.265625 74.21875 49.921875 64.515625 
Q 56.59375 54.828125 56.59375 36.375 
Q 56.59375 19.140625 48.40625 8.859375 
Q 40.234375 -1.421875 26.421875 -1.421875 
Q 22.703125 -1.421875 18.890625 -0.6875 
Q 15.09375 0.046875 10.984375 1.515625 
z
M 30.609375 32.421875 
Q 37.25 32.421875 41.125 36.953125 
Q 45.015625 41.5 45.015625 49.421875 
Q 45.015625 57.28125 41.125 61.84375 
Q 37.25 66.40625 30.609375 66.40625 
Q 23.96875 66.40625 20.09375 61.84375 
Q 16.21875 57.28125 16.21875 49.421875 
Q 16.21875 41.5 20.09375 36.953125 
Q 23.96875 32.421875 30.609375 32.421875 
z
" id="DejaVuSans-57"/>
       </defs>
       <use xlink:href="#DejaVuSans-50"/>
       <use x="63.623047" xlink:href="#DejaVuSans-48"/>
       <use x="127.246094" xlink:href="#DejaVuSans-50"/>
       <use x="190.869141" xlink:href="#DejaVuSans-48"/>
       <use x="254.492188" xlink:href="#DejaVuSans-45"/>
       <use x="290.576172" xlink:href="#DejaVuSans-48"/>
       <use x="354.199219" xlink:href="#DejaVuSans-57"/>
      </g>
     </g>
    </g>
    <g id="xtick_5">
     <g id="line2d_9">
      <path clip-path="url(#p756ab6b11f)" d="M 303.099835 172.8 
L 303.099835 25.92 
" style="fill:none;stroke:#808080;stroke-dasharray:6.4,1.6,1,1.6;stroke-dashoffset:0;stroke-opacity:0.3;"/>
     </g>
     <g id="line2d_10">
      <g>
       <use style="stroke:#000000;stroke-width:0.8;" x="303.099835" xlink:href="#m29dfe1b261" y="172.8"/>
      </g>
     </g>
     <g id="text_5">
      <!-- 2020-11 -->
      <g transform="translate(282.208429 187.398438)scale(0.1 -0.1)">
       <defs>
        <path d="M 12.40625 8.296875 
L 28.515625 8.296875 
L 28.515625 63.921875 
L 10.984375 60.40625 
L 10.984375 69.390625 
L 28.421875 72.90625 
L 38.28125 72.90625 
L 38.28125 8.296875 
L 54.390625 8.296875 
L 54.390625 0 
L 12.40625 0 
z
" id="DejaVuSans-49"/>
       </defs>
       <use xlink:href="#DejaVuSans-50"/>
       <use x="63.623047" xlink:href="#DejaVuSans-48"/>
       <use x="127.246094" xlink:href="#DejaVuSans-50"/>
       <use x="190.869141" xlink:href="#DejaVuSans-48"/>
       <use x="254.492188" xlink:href="#DejaVuSans-45"/>
       <use x="290.576172" xlink:href="#DejaVuSans-49"/>
       <use x="354.199219" xlink:href="#DejaVuSans-49"/>
      </g>
     </g>
    </g>
    <g id="xtick_6">
     <g id="line2d_11">
      <path clip-path="url(#p756ab6b11f)" d="M 362.431631 172.8 
L 362.431631 25.92 
" style="fill:none;stroke:#808080;stroke-dasharray:6.4,1.6,1,1.6;stroke-dashoffset:0;stroke-opacity:0.3;"/>
     </g>
     <g id="line2d_12">
      <g>
       <use style="stroke:#000000;stroke-width:0.8;" x="362.431631" xlink:href="#m29dfe1b261" y="172.8"/>
      </g>
     </g>
     <g id="text_6">
      <!-- 2021-01 -->
      <g transform="translate(341.540225 187.398438)scale(0.1 -0.1)">
       <use xlink:href="#DejaVuSans-50"/>
       <use x="63.623047" xlink:href="#DejaVuSans-48"/>
       <use x="127.246094" xlink:href="#DejaVuSans-50"/>
       <use x="190.869141" xlink:href="#DejaVuSans-49"/>
       <use x="254.492188" xlink:href="#DejaVuSans-45"/>
       <use x="290.576172" xlink:href="#DejaVuSans-48"/>
       <use x="354.199219" xlink:href="#DejaVuSans-49"/>
      </g>
     </g>
    </g>
    <g id="xtick_7">
     <g id="line2d_13">
      <path clip-path="url(#p756ab6b11f)" d="M 419.818122 172.8 
L 419.818122 25.92 
" style="fill:none;stroke:#808080;stroke-dasharray:6.4,1.6,1,1.6;stroke-dashoffset:0;stroke-opacity:0.3;"/>
     </g>
     <g id="line2d_14">
      <g>
       <use style="stroke:#000000;stroke-width:0.8;" x="419.818122" xlink:href="#m29dfe1b261" y="172.8"/>
      </g>
     </g>
     <g id="text_7">
      <!-- 2021-03 -->
      <g transform="translate(398.926716 187.398438)scale(0.1 -0.1)">
       <use xlink:href="#DejaVuSans-50"/>
       <use x="63.623047" xlink:href="#DejaVuSans-48"/>
       <use x="127.246094" xlink:href="#DejaVuSans-50"/>
       <use x="190.869141" xlink:href="#DejaVuSans-49"/>
       <use x="254.492188" xlink:href="#DejaVuSans-45"/>
       <use x="290.576172" xlink:href="#DejaVuSans-48"/>
       <use x="354.199219" xlink:href="#DejaVuSans-51"/>
      </g>
     </g>
    </g>
    <g id="xtick_8">
     <g id="line2d_15">
      <path clip-path="url(#p756ab6b11f)" d="M 479.149918 172.8 
L 479.149918 25.92 
" style="fill:none;stroke:#808080;stroke-dasharray:6.4,1.6,1,1.6;stroke-dashoffset:0;stroke-opacity:0.3;"/>
     </g>
     <g id="line2d_16">
      <g>
       <use style="stroke:#000000;stroke-width:0.8;" x="479.149918" xlink:href="#m29dfe1b261" y="172.8"/>
      </g>
     </g>
     <g id="text_8">
      <!-- 2021-05 -->
      <g transform="translate(458.258511 187.398438)scale(0.1 -0.1)">
       <use xlink:href="#DejaVuSans-50"/>
       <use x="63.623047" xlink:href="#DejaVuSans-48"/>
       <use x="127.246094" xlink:href="#DejaVuSans-50"/>
       <use x="190.869141" xlink:href="#DejaVuSans-49"/>
       <use x="254.492188" xlink:href="#DejaVuSans-45"/>
       <use x="290.576172" xlink:href="#DejaVuSans-48"/>
       <use x="354.199219" xlink:href="#DejaVuSans-53"/>
      </g>
     </g>
    </g>
    <g id="xtick_9">
     <g id="line2d_17">
      <path clip-path="url(#p756ab6b11f)" d="M 538.481713 172.8 
L 538.481713 25.92 
" style="fill:none;stroke:#808080;stroke-dasharray:6.4,1.6,1,1.6;stroke-dashoffset:0;stroke-opacity:0.3;"/>
     </g>
     <g id="line2d_18">
      <g>
       <use style="stroke:#000000;stroke-width:0.8;" x="538.481713" xlink:href="#m29dfe1b261" y="172.8"/>
      </g>
     </g>
     <g id="text_9">
      <!-- 2021-07 -->
      <g transform="translate(517.590307 187.398438)scale(0.1 -0.1)">
       <use xlink:href="#DejaVuSans-50"/>
       <use x="63.623047" xlink:href="#DejaVuSans-48"/>
       <use x="127.246094" xlink:href="#DejaVuSans-50"/>
       <use x="190.869141" xlink:href="#DejaVuSans-49"/>
       <use x="254.492188" xlink:href="#DejaVuSans-45"/>
       <use x="290.576172" xlink:href="#DejaVuSans-48"/>
       <use x="354.199219" xlink:href="#DejaVuSans-55"/>
      </g>
     </g>
    </g>
    <g id="xtick_10">
     <g id="line2d_19">
      <path clip-path="url(#p756ab6b11f)" d="M 598.786161 172.8 
L 598.786161 25.92 
" style="fill:none;stroke:#808080;stroke-dasharray:6.4,1.6,1,1.6;stroke-dashoffset:0;stroke-opacity:0.3;"/>
     </g>
     <g id="line2d_20">
      <g>
       <use style="stroke:#000000;stroke-width:0.8;" x="598.786161" xlink:href="#m29dfe1b261" y="172.8"/>
      </g>
     </g>
     <g id="text_10">
      <!-- 2021-09 -->
      <g transform="translate(577.894755 187.398438)scale(0.1 -0.1)">
       <use xlink:href="#DejaVuSans-50"/>
       <use x="63.623047" xlink:href="#DejaVuSans-48"/>
       <use x="127.246094" xlink:href="#DejaVuSans-50"/>
       <use x="190.869141" xlink:href="#DejaVuSans-49"/>
       <use x="254.492188" xlink:href="#DejaVuSans-45"/>
       <use x="290.576172" xlink:href="#DejaVuSans-48"/>
       <use x="354.199219" xlink:href="#DejaVuSans-57"/>
      </g>
     </g>
    </g>
    <g id="text_11">
     <!-- Datum -->
     <g transform="translate(343.086719 201.076562)scale(0.1 -0.1)">
      <defs>
       <path d="M 19.671875 64.796875 
L 19.671875 8.109375 
L 31.59375 8.109375 
Q 46.6875 8.109375 53.6875 14.9375 
Q 60.6875 21.78125 60.6875 36.53125 
Q 60.6875 51.171875 53.6875 57.984375 
Q 46.6875 64.796875 31.59375 64.796875 
z
M 9.8125 72.90625 
L 30.078125 72.90625 
Q 51.265625 72.90625 61.171875 64.09375 
Q 71.09375 55.28125 71.09375 36.53125 
Q 71.09375 17.671875 61.125 8.828125 
Q 51.171875 0 30.078125 0 
L 9.8125 0 
z
" id="DejaVuSans-68"/>
       <path d="M 34.28125 27.484375 
Q 23.390625 27.484375 19.1875 25 
Q 14.984375 22.515625 14.984375 16.5 
Q 14.984375 11.71875 18.140625 8.90625 
Q 21.296875 6.109375 26.703125 6.109375 
Q 34.1875 6.109375 38.703125 11.40625 
Q 43.21875 16.703125 43.21875 25.484375 
L 43.21875 27.484375 
z
M 52.203125 31.203125 
L 52.203125 0 
L 43.21875 0 
L 43.21875 8.296875 
Q 40.140625 3.328125 35.546875 0.953125 
Q 30.953125 -1.421875 24.3125 -1.421875 
Q 15.921875 -1.421875 10.953125 3.296875 
Q 6 8.015625 6 15.921875 
Q 6 25.140625 12.171875 29.828125 
Q 18.359375 34.515625 30.609375 34.515625 
L 43.21875 34.515625 
L 43.21875 35.40625 
Q 43.21875 41.609375 39.140625 45 
Q 35.0625 48.390625 27.6875 48.390625 
Q 23 48.390625 18.546875 47.265625 
Q 14.109375 46.140625 10.015625 43.890625 
L 10.015625 52.203125 
Q 14.9375 54.109375 19.578125 55.046875 
Q 24.21875 56 28.609375 56 
Q 40.484375 56 46.34375 49.84375 
Q 52.203125 43.703125 52.203125 31.203125 
z
" id="DejaVuSans-97"/>
       <path d="M 18.3125 70.21875 
L 18.3125 54.6875 
L 36.8125 54.6875 
L 36.8125 47.703125 
L 18.3125 47.703125 
L 18.3125 18.015625 
Q 18.3125 11.328125 20.140625 9.421875 
Q 21.96875 7.515625 27.59375 7.515625 
L 36.8125 7.515625 
L 36.8125 0 
L 27.59375 0 
Q 17.1875 0 13.234375 3.875 
Q 9.28125 7.765625 9.28125 18.015625 
L 9.28125 47.703125 
L 2.6875 47.703125 
L 2.6875 54.6875 
L 9.28125 54.6875 
L 9.28125 70.21875 
z
" id="DejaVuSans-116"/>
       <path d="M 8.5 21.578125 
L 8.5 54.6875 
L 17.484375 54.6875 
L 17.484375 21.921875 
Q 17.484375 14.15625 20.5 10.265625 
Q 23.53125 6.390625 29.59375 6.390625 
Q 36.859375 6.390625 41.078125 11.03125 
Q 45.3125 15.671875 45.3125 23.6875 
L 45.3125 54.6875 
L 54.296875 54.6875 
L 54.296875 0 
L 45.3125 0 
L 45.3125 8.40625 
Q 42.046875 3.421875 37.71875 1 
Q 33.40625 -1.421875 27.6875 -1.421875 
Q 18.265625 -1.421875 13.375 4.4375 
Q 8.5 10.296875 8.5 21.578125 
z
M 31.109375 56 
z
" id="DejaVuSans-117"/>
       <path d="M 52 44.1875 
Q 55.375 50.25 60.0625 53.125 
Q 64.75 56 71.09375 56 
Q 79.640625 56 84.28125 50.015625 
Q 88.921875 44.046875 88.921875 33.015625 
L 88.921875 0 
L 79.890625 0 
L 79.890625 32.71875 
Q 79.890625 40.578125 77.09375 44.375 
Q 74.3125 48.1875 68.609375 48.1875 
Q 61.625 48.1875 57.5625 43.546875 
Q 53.515625 38.921875 53.515625 30.90625 
L 53.515625 0 
L 44.484375 0 
L 44.484375 32.71875 
Q 44.484375 40.625 41.703125 44.40625 
Q 38.921875 48.1875 33.109375 48.1875 
Q 26.21875 48.1875 22.15625 43.53125 
Q 18.109375 38.875 18.109375 30.90625 
L 18.109375 0 
L 9.078125 0 
L 9.078125 54.6875 
L 18.109375 54.6875 
L 18.109375 46.1875 
Q 21.1875 51.21875 25.484375 53.609375 
Q 29.78125 56 35.6875 56 
Q 41.65625 56 45.828125 52.96875 
Q 50 49.953125 52 44.1875 
z
" id="DejaVuSans-109"/>
      </defs>
      <use xlink:href="#DejaVuSans-68"/>
      <use x="77.001953" xlink:href="#DejaVuSans-97"/>
      <use x="138.28125" xlink:href="#DejaVuSans-116"/>
      <use x="177.490234" xlink:href="#DejaVuSans-117"/>
      <use x="240.869141" xlink:href="#DejaVuSans-109"/>
     </g>
    </g>
   </g>
   <g id="matplotlib.axis_2">
    <g id="ytick_1">
     <g id="line2d_21">
      <path clip-path="url(#p756ab6b11f)" d="M 64.8 172.8 
L 655.2 172.8 
" style="fill:none;stroke:#808080;stroke-dasharray:6.4,1.6,1,1.6;stroke-dashoffset:0;stroke-opacity:0.3;"/>
     </g>
     <g id="line2d_22">
      <defs>
       <path d="M 0 0 
L -3.5 0 
" id="mbbe403fcb1" style="stroke:#000000;stroke-width:0.8;"/>
      </defs>
      <g>
       <use style="stroke:#000000;stroke-width:0.8;" x="64.8" xlink:href="#mbbe403fcb1" y="172.8"/>
      </g>
     </g>
     <g id="text_12">
      <!-- 0 -->
      <g transform="translate(51.4375 176.599219)scale(0.1 -0.1)">
       <use xlink:href="#DejaVuSans-48"/>
      </g>
     </g>
    </g>
    <g id="ytick_2">
     <g id="line2d_23">
      <path clip-path="url(#p756ab6b11f)" d="M 64.8 136.08 
L 655.2 136.08 
" style="fill:none;stroke:#808080;stroke-dasharray:6.4,1.6,1,1.6;stroke-dashoffset:0;stroke-opacity:0.3;"/>
     </g>
     <g id="line2d_24">
      <g>
       <use style="stroke:#000000;stroke-width:0.8;" x="64.8" xlink:href="#mbbe403fcb1" y="136.08"/>
      </g>
     </g>
     <g id="text_13">
      <!-- 1000 -->
      <g transform="translate(32.35 139.879219)scale(0.1 -0.1)">
       <use xlink:href="#DejaVuSans-49"/>
       <use x="63.623047" xlink:href="#DejaVuSans-48"/>
       <use x="127.246094" xlink:href="#DejaVuSans-48"/>
       <use x="190.869141" xlink:href="#DejaVuSans-48"/>
      </g>
     </g>
    </g>
    <g id="ytick_3">
     <g id="line2d_25">
      <path clip-path="url(#p756ab6b11f)" d="M 64.8 99.36 
L 655.2 99.36 
" style="fill:none;stroke:#808080;stroke-dasharray:6.4,1.6,1,1.6;stroke-dashoffset:0;stroke-opacity:0.3;"/>
     </g>
     <g id="line2d_26">
      <g>
       <use style="stroke:#000000;stroke-width:0.8;" x="64.8" xlink:href="#mbbe403fcb1" y="99.36"/>
      </g>
     </g>
     <g id="text_14">
      <!-- 2000 -->
      <g transform="translate(32.35 103.159219)scale(0.1 -0.1)">
       <use xlink:href="#DejaVuSans-50"/>
       <use x="63.623047" xlink:href="#DejaVuSans-48"/>
       <use x="127.246094" xlink:href="#DejaVuSans-48"/>
       <use x="190.869141" xlink:href="#DejaVuSans-48"/>
      </g>
     </g>
    </g>
    <g id="ytick_4">
     <g id="line2d_27">
      <path clip-path="url(#p756ab6b11f)" d="M 64.8 62.64 
L 655.2 62.64 
" style="fill:none;stroke:#808080;stroke-dasharray:6.4,1.6,1,1.6;stroke-dashoffset:0;stroke-opacity:0.3;"/>
     </g>
     <g id="line2d_28">
      <g>
       <use style="stroke:#000000;stroke-width:0.8;" x="64.8" xlink:href="#mbbe403fcb1" y="62.64"/>
      </g>
     </g>
     <g id="text_15">
      <!-- 3000 -->
      <g transform="translate(32.35 66.439219)scale(0.1 -0.1)">
       <use xlink:href="#DejaVuSans-51"/>
       <use x="63.623047" xlink:href="#DejaVuSans-48"/>
       <use x="127.246094" xlink:href="#DejaVuSans-48"/>
       <use x="190.869141" xlink:href="#DejaVuSans-48"/>
      </g>
     </g>
    </g>
    <g id="ytick_5">
     <g id="line2d_29">
      <path clip-path="url(#p756ab6b11f)" d="M 64.8 25.92 
L 655.2 25.92 
" style="fill:none;stroke:#808080;stroke-dasharray:6.4,1.6,1,1.6;stroke-dashoffset:0;stroke-opacity:0.3;"/>
     </g>
     <g id="line2d_30">
      <g>
       <use style="stroke:#000000;stroke-width:0.8;" x="64.8" xlink:href="#mbbe403fcb1" y="25.92"/>
      </g>
     </g>
     <g id="text_16">
      <!-- 4000 -->
      <g transform="translate(32.35 29.719219)scale(0.1 -0.1)">
       <defs>
        <path d="M 37.796875 64.3125 
L 12.890625 25.390625 
L 37.796875 25.390625 
z
M 35.203125 72.90625 
L 47.609375 72.90625 
L 47.609375 25.390625 
L 58.015625 25.390625 
L 58.015625 17.1875 
L 47.609375 17.1875 
L 47.609375 0 
L 37.796875 0 
L 37.796875 17.1875 
L 4.890625 17.1875 
L 4.890625 26.703125 
z
" id="DejaVuSans-52"/>
       </defs>
       <use xlink:href="#DejaVuSans-52"/>
       <use x="63.623047" xlink:href="#DejaVuSans-48"/>
       <use x="127.246094" xlink:href="#DejaVuSans-48"/>
       <use x="190.869141" xlink:href="#DejaVuSans-48"/>
      </g>
     </g>
    </g>
    <g id="text_17">
     <!-- RNA per milliliter -->
     <g transform="translate(26.270312 141.776406)rotate(-90)scale(0.1 -0.1)">
      <defs>
       <path d="M 44.390625 34.1875 
Q 47.5625 33.109375 50.5625 29.59375 
Q 53.5625 26.078125 56.59375 19.921875 
L 66.609375 0 
L 56 0 
L 46.6875 18.703125 
Q 43.0625 26.03125 39.671875 28.421875 
Q 36.28125 30.8125 30.421875 30.8125 
L 19.671875 30.8125 
L 19.671875 0 
L 9.8125 0 
L 9.8125 72.90625 
L 32.078125 72.90625 
Q 44.578125 72.90625 50.734375 67.671875 
Q 56.890625 62.453125 56.890625 51.90625 
Q 56.890625 45.015625 53.6875 40.46875 
Q 50.484375 35.9375 44.390625 34.1875 
z
M 19.671875 64.796875 
L 19.671875 38.921875 
L 32.078125 38.921875 
Q 39.203125 38.921875 42.84375 42.21875 
Q 46.484375 45.515625 46.484375 51.90625 
Q 46.484375 58.296875 42.84375 61.546875 
Q 39.203125 64.796875 32.078125 64.796875 
z
" id="DejaVuSans-82"/>
       <path d="M 9.8125 72.90625 
L 23.09375 72.90625 
L 55.421875 11.921875 
L 55.421875 72.90625 
L 64.984375 72.90625 
L 64.984375 0 
L 51.703125 0 
L 19.390625 60.984375 
L 19.390625 0 
L 9.8125 0 
z
" id="DejaVuSans-78"/>
       <path d="M 34.1875 63.1875 
L 20.796875 26.90625 
L 47.609375 26.90625 
z
M 28.609375 72.90625 
L 39.796875 72.90625 
L 67.578125 0 
L 57.328125 0 
L 50.6875 18.703125 
L 17.828125 18.703125 
L 11.1875 0 
L 0.78125 0 
z
" id="DejaVuSans-65"/>
       <path id="DejaVuSans-32"/>
       <path d="M 18.109375 8.203125 
L 18.109375 -20.796875 
L 9.078125 -20.796875 
L 9.078125 54.6875 
L 18.109375 54.6875 
L 18.109375 46.390625 
Q 20.953125 51.265625 25.265625 53.625 
Q 29.59375 56 35.59375 56 
Q 45.5625 56 51.78125 48.09375 
Q 58.015625 40.1875 58.015625 27.296875 
Q 58.015625 14.40625 51.78125 6.484375 
Q 45.5625 -1.421875 35.59375 -1.421875 
Q 29.59375 -1.421875 25.265625 0.953125 
Q 20.953125 3.328125 18.109375 8.203125 
z
M 48.6875 27.296875 
Q 48.6875 37.203125 44.609375 42.84375 
Q 40.53125 48.484375 33.40625 48.484375 
Q 26.265625 48.484375 22.1875 42.84375 
Q 18.109375 37.203125 18.109375 27.296875 
Q 18.109375 17.390625 22.1875 11.75 
Q 26.265625 6.109375 33.40625 6.109375 
Q 40.53125 6.109375 44.609375 11.75 
Q 48.6875 17.390625 48.6875 27.296875 
z
" id="DejaVuSans-112"/>
       <path d="M 56.203125 29.59375 
L 56.203125 25.203125 
L 14.890625 25.203125 
Q 15.484375 15.921875 20.484375 11.0625 
Q 25.484375 6.203125 34.421875 6.203125 
Q 39.59375 6.203125 44.453125 7.46875 
Q 49.3125 8.734375 54.109375 11.28125 
L 54.109375 2.78125 
Q 49.265625 0.734375 44.1875 -0.34375 
Q 39.109375 -1.421875 33.890625 -1.421875 
Q 20.796875 -1.421875 13.15625 6.1875 
Q 5.515625 13.8125 5.515625 26.8125 
Q 5.515625 40.234375 12.765625 48.109375 
Q 20.015625 56 32.328125 56 
Q 43.359375 56 49.78125 48.890625 
Q 56.203125 41.796875 56.203125 29.59375 
z
M 47.21875 32.234375 
Q 47.125 39.59375 43.09375 43.984375 
Q 39.0625 48.390625 32.421875 48.390625 
Q 24.90625 48.390625 20.390625 44.140625 
Q 15.875 39.890625 15.1875 32.171875 
z
" id="DejaVuSans-101"/>
       <path d="M 41.109375 46.296875 
Q 39.59375 47.171875 37.8125 47.578125 
Q 36.03125 48 33.890625 48 
Q 26.265625 48 22.1875 43.046875 
Q 18.109375 38.09375 18.109375 28.8125 
L 18.109375 0 
L 9.078125 0 
L 9.078125 54.6875 
L 18.109375 54.6875 
L 18.109375 46.1875 
Q 20.953125 51.171875 25.484375 53.578125 
Q 30.03125 56 36.53125 56 
Q 37.453125 56 38.578125 55.875 
Q 39.703125 55.765625 41.0625 55.515625 
z
" id="DejaVuSans-114"/>
       <path d="M 9.421875 54.6875 
L 18.40625 54.6875 
L 18.40625 0 
L 9.421875 0 
z
M 9.421875 75.984375 
L 18.40625 75.984375 
L 18.40625 64.59375 
L 9.421875 64.59375 
z
" id="DejaVuSans-105"/>
       <path d="M 9.421875 75.984375 
L 18.40625 75.984375 
L 18.40625 0 
L 9.421875 0 
z
" id="DejaVuSans-108"/>
      </defs>
      <use xlink:href="#DejaVuSans-82"/>
      <use x="69.482422" xlink:href="#DejaVuSans-78"/>
      <use x="144.287109" xlink:href="#DejaVuSans-65"/>
      <use x="212.695312" xlink:href="#DejaVuSans-32"/>
      <use x="244.482422" xlink:href="#DejaVuSans-112"/>
      <use x="307.958984" xlink:href="#DejaVuSans-101"/>
      <use x="369.482422" xlink:href="#DejaVuSans-114"/>
      <use x="410.595703" xlink:href="#DejaVuSans-32"/>
      <use x="442.382812" xlink:href="#DejaVuSans-109"/>
      <use x="539.794922" xlink:href="#DejaVuSans-105"/>
      <use x="567.578125" xlink:href="#DejaVuSans-108"/>
      <use x="595.361328" xlink:href="#DejaVuSans-108"/>
      <use x="623.144531" xlink:href="#DejaVuSans-105"/>
      <use x="650.927734" xlink:href="#DejaVuSans-108"/>
      <use x="678.710938" xlink:href="#DejaVuSans-105"/>
      <use x="706.494141" xlink:href="#DejaVuSans-116"/>
      <use x="745.703125" xlink:href="#DejaVuSans-101"/>
      <use x="807.226562" xlink:href="#DejaVuSans-114"/>
     </g>
    </g>
   </g>
   <g id="line2d_31">
    <path clip-path="url(#p756ab6b11f)" d="M 93.006919 112.761481 
L 95.924876 121.857767 
L 98.842834 124.889862 
L 100.788138 130.954053 
L 103.706096 138.472908 
L 106.624053 140.827111 
L 108.569357 145.289784 
L 110.514662 149.041544 
L 112.459967 150.59754 
L 113.432619 151.928502 
L 114.405272 152.902379 
L 115.377924 153.536442 
L 119.268534 155.329979 
L 120.241186 156.466258 
L 123.159143 159.208804 
L 124.131796 160.027746 
L 128.022405 161.44735 
L 129.96771 162.980115 
L 131.913015 163.783962 
L 132.885667 164.600986 
L 133.85832 165.264749 
L 135.803624 165.48663 
L 138.721582 165.293448 
L 141.639539 164.756703 
L 146.502801 163.790554 
L 149.420758 163.828989 
L 151.366063 164.244897 
L 154.28402 164.404455 
L 156.229325 164.930337 
L 158.174629 165.68497 
L 160.119934 166.343508 
L 162.065239 166.791895 
L 164.010544 167.153812 
L 166.928501 167.276835 
L 169.846458 167.785577 
L 175.682372 167.922492 
L 181.518287 167.74003 
L 184.436244 167.354632 
L 188.326853 167.08745 
L 190.272158 166.117482 
L 195.13542 165.546738 
L 196.108072 164.941835 
L 199.998682 163.652183 
L 201.943987 162.377087 
L 204.861944 159.94225 
L 206.807249 158.751049 
L 208.752554 158.236757 
L 213.615815 157.632621 
L 214.588468 157.427382 
L 215.56112 157.572349 
L 218.479077 158.641817 
L 219.45173 158.851791 
L 222.369687 158.853589 
L 225.287644 158.508461 
L 226.260297 158.532818 
L 228.205601 159.118333 
L 230.150906 159.281896 
L 232.096211 159.508979 
L 234.041516 160.079513 
L 235.014168 160.443371 
L 236.959473 161.445925 
L 238.904778 162.301196 
L 242.795387 162.99714 
L 244.740692 163.042821 
L 246.685997 162.821154 
L 247.658649 162.652612 
L 248.631301 162.369506 
L 252.521911 161.63337 
L 254.467216 161.151583 
L 255.439868 160.861182 
L 257.385173 159.944917 
L 259.330478 158.544568 
L 260.30313 157.752072 
L 261.275783 156.791172 
L 263.221087 154.390304 
L 265.166392 151.406709 
L 267.111697 147.581961 
L 269.057002 142.859933 
L 271.002306 137.316177 
L 273.920264 128.922921 
L 278.783526 116.22559 
L 279.756178 114.207207 
L 280.72883 111.742913 
L 281.701483 109.696203 
L 282.674135 108.351001 
L 283.646787 107.752562 
L 285.592092 105.70972 
L 286.564745 104.224125 
L 288.510049 100.021844 
L 290.455354 96.414855 
L 292.400659 92.349225 
L 293.373311 92.136922 
L 294.345964 91.740325 
L 295.318616 91.059469 
L 296.291269 90.022599 
L 297.263921 89.612588 
L 298.236573 88.924592 
L 299.209226 89.135591 
L 301.15453 92.635584 
L 304.072488 98.118188 
L 305.04514 99.309549 
L 307.963097 100.071831 
L 309.908402 101.471588 
L 310.881054 103.176951 
L 311.853707 104.592994 
L 312.826359 105.463369 
L 313.799012 106.077916 
L 314.771664 106.946023 
L 315.744316 108.641424 
L 316.716969 111.058788 
L 320.607578 125.140576 
L 322.552883 130.898685 
L 326.443493 139.341987 
L 327.416145 141.196539 
L 328.388797 142.229327 
L 329.36145 142.736096 
L 330.334102 142.523644 
L 331.306755 142.11925 
L 333.252059 141.644572 
L 335.197364 140.540202 
L 336.170016 139.811055 
L 339.087974 136.670654 
L 341.033278 133.561761 
L 342.978583 129.936391 
L 344.923888 126.536359 
L 345.89654 125.090826 
L 347.841845 123.194304 
L 348.814498 122.536275 
L 351.732455 121.575089 
L 352.705107 122.12122 
L 353.677759 122.929258 
L 354.650412 124.441114 
L 355.623064 125.447784 
L 358.541021 129.244848 
L 359.513674 130.087477 
L 360.486326 130.770843 
L 363.404283 131.356467 
L 364.376936 131.407065 
L 365.349588 131.268984 
L 366.322241 130.608177 
L 367.294893 129.744373 
L 368.267545 128.122313 
L 369.240198 127.018346 
L 371.185502 124.116423 
L 372.158155 122.342373 
L 373.130807 120.962856 
L 374.10346 119.818284 
L 377.021417 117.014843 
L 377.994069 115.655998 
L 379.939374 113.862318 
L 380.912026 113.854585 
L 381.884679 113.644815 
L 382.857331 113.638404 
L 383.829984 113.858871 
L 384.802636 114.286641 
L 385.775288 114.546391 
L 387.720593 115.437665 
L 388.693245 115.948465 
L 389.665898 116.691068 
L 391.611203 120.60971 
L 392.583855 122.414581 
L 395.501812 126.380726 
L 396.474465 127.542528 
L 398.419769 129.277462 
L 399.392422 129.736559 
L 400.365074 129.813471 
L 401.337727 130.102522 
L 402.310379 130.125868 
L 404.255684 129.079483 
L 406.200988 128.068679 
L 407.173641 127.897337 
L 409.118946 127.924499 
L 411.06425 128.806938 
L 412.036903 129.629579 
L 415.927512 134.888189 
L 419.818122 139.133378 
L 421.763427 140.543589 
L 423.708731 141.346989 
L 424.681384 141.604094 
L 426.626689 141.772573 
L 430.517298 141.108712 
L 433.435255 140.216942 
L 434.407908 139.785878 
L 435.38056 139.503222 
L 438.298517 138.053523 
L 439.27117 137.336651 
L 441.216474 137.046429 
L 443.161779 136.871851 
L 444.134432 136.611437 
L 446.079736 136.57233 
L 450.942998 136.009108 
L 451.915651 136.084135 
L 452.888303 135.882126 
L 455.80626 134.637066 
L 456.778913 134.524327 
L 457.751565 134.247268 
L 458.724217 134.086369 
L 460.669522 134.548965 
L 463.587479 134.929 
L 464.560132 134.88936 
L 465.532784 134.67681 
L 466.505437 134.925126 
L 468.450741 135.810813 
L 469.423394 136.154302 
L 470.396046 136.310832 
L 471.368699 136.277713 
L 473.314003 135.813033 
L 476.23196 134.719639 
L 477.204613 134.48766 
L 478.177265 134.548888 
L 479.149918 134.244983 
L 481.095222 133.160412 
L 482.067875 132.69569 
L 483.040527 132.592323 
L 484.985832 132.825232 
L 485.958484 133.275199 
L 486.931137 134.245689 
L 491.794399 140.961465 
L 493.739703 144.233244 
L 495.685008 147.138778 
L 498.602965 150.902777 
L 501.520923 152.071176 
L 505.411532 154.278384 
L 507.356837 155.019992 
L 512.220099 157.769392 
L 514.165404 158.464486 
L 516.110708 159.790779 
L 518.056013 160.775131 
L 520.001318 161.234281 
L 521.946623 162.215729 
L 523.891928 162.732949 
L 524.86458 162.856601 
L 527.782537 162.914653 
L 528.755189 162.850799 
L 530.700494 162.272065 
L 532.645799 161.460364 
L 533.618451 160.800253 
L 535.563756 158.874246 
L 536.536409 157.57813 
L 537.509061 156.067233 
L 538.481713 154.316222 
L 539.454366 152.097328 
L 542.372323 143.658544 
L 544.317628 137.602381 
L 547.235585 128.196832 
L 549.18089 122.595187 
L 550.153542 120.233265 
L 551.126194 118.289818 
L 552.098847 117.191892 
L 555.016804 116.915308 
L 555.989456 116.746101 
L 556.962109 116.90241 
L 557.934761 117.232578 
L 558.907414 117.756202 
L 559.880066 118.410659 
L 561.825371 120.121134 
L 562.798023 120.987899 
L 563.770675 121.677417 
L 564.743328 122.085788 
L 565.71598 121.928177 
L 566.688633 121.297094 
L 569.60659 120.317774 
L 571.551895 119.210826 
L 573.497199 117.711155 
L 575.442504 116.530722 
L 576.415157 116.075602 
L 577.387809 115.450272 
L 579.333114 114.411517 
L 580.305766 113.637263 
L 582.251071 111.623801 
L 583.223723 110.749961 
L 584.196376 110.056189 
L 587.114333 109.529071 
L 588.086985 109.600924 
L 589.059638 109.971049 
L 590.03229 111.138658 
L 591.004942 112.605851 
L 591.977595 114.489035 
L 592.950247 116.779012 
L 593.9229 119.649373 
L 600.731466 142.993611 
L 601.704119 145.77344 
L 603.649423 150.198667 
L 604.622076 152.007185 
L 605.594728 153.498467 
L 606.567381 154.680418 
L 608.512685 156.251048 
L 613.375947 158.894217 
L 615.321252 159.79415 
L 618.239209 160.568022 
L 619.211862 160.711549 
L 620.184514 160.649532 
L 621.157166 160.393515 
L 622.129819 159.958979 
L 623.102471 159.33775 
L 625.047776 157.699908 
L 626.020428 156.686323 
L 627.965733 154.004608 
L 629.911038 151.128462 
L 630.88369 149.526988 
L 634.7743 142.009762 
L 636.719605 137.745413 
L 639.637562 130.577846 
L 645.473476 115.154985 
L 645.473476 115.154985 
" style="fill:none;stroke:#008000;stroke-linecap:square;stroke-width:1.5;"/>
   </g>
   <g id="line2d_32">
    <path clip-path="url(#p756ab6b11f)" d="M 649.364086 172.8 
L 649.364086 25.92 
" style="fill:none;stroke:#ff0000;stroke-linecap:square;stroke-width:0.5;"/>
   </g>
   <g id="patch_3">
    <path d="M 64.8 172.8 
L 64.8 25.92 
" style="fill:none;stroke:#000000;stroke-linecap:square;stroke-linejoin:miter;stroke-width:0.8;"/>
   </g>
   <g id="patch_4">
    <path d="M 655.2 172.8 
L 655.2 25.92 
" style="fill:none;stroke:#000000;stroke-linecap:square;stroke-linejoin:miter;stroke-width:0.8;"/>
   </g>
   <g id="patch_5">
    <path d="M 64.8 172.8 
L 655.2 172.8 
" style="fill:none;stroke:#000000;stroke-linecap:square;stroke-linejoin:miter;stroke-width:0.8;"/>
   </g>
   <g id="patch_6">
    <path d="M 64.8 25.92 
L 655.2 25.92 
" style="fill:none;stroke:#000000;stroke-linecap:square;stroke-linejoin:miter;stroke-width:0.8;"/>
   </g>
   <g id="text_18">
    <!-- Concentratie SARS-CoV-2 RNA per ml rioolwater -->
    <g transform="translate(215.560313 19.92)scale(0.12 -0.12)">
     <defs>
      <path d="M 64.40625 67.28125 
L 64.40625 56.890625 
Q 59.421875 61.53125 53.78125 63.8125 
Q 48.140625 66.109375 41.796875 66.109375 
Q 29.296875 66.109375 22.65625 58.46875 
Q 16.015625 50.828125 16.015625 36.375 
Q 16.015625 21.96875 22.65625 14.328125 
Q 29.296875 6.6875 41.796875 6.6875 
Q 48.140625 6.6875 53.78125 8.984375 
Q 59.421875 11.28125 64.40625 15.921875 
L 64.40625 5.609375 
Q 59.234375 2.09375 53.4375 0.328125 
Q 47.65625 -1.421875 41.21875 -1.421875 
Q 24.65625 -1.421875 15.125 8.703125 
Q 5.609375 18.84375 5.609375 36.375 
Q 5.609375 53.953125 15.125 64.078125 
Q 24.65625 74.21875 41.21875 74.21875 
Q 47.75 74.21875 53.53125 72.484375 
Q 59.328125 70.75 64.40625 67.28125 
z
" id="DejaVuSans-67"/>
      <path d="M 30.609375 48.390625 
Q 23.390625 48.390625 19.1875 42.75 
Q 14.984375 37.109375 14.984375 27.296875 
Q 14.984375 17.484375 19.15625 11.84375 
Q 23.34375 6.203125 30.609375 6.203125 
Q 37.796875 6.203125 41.984375 11.859375 
Q 46.1875 17.53125 46.1875 27.296875 
Q 46.1875 37.015625 41.984375 42.703125 
Q 37.796875 48.390625 30.609375 48.390625 
z
M 30.609375 56 
Q 42.328125 56 49.015625 48.375 
Q 55.71875 40.765625 55.71875 27.296875 
Q 55.71875 13.875 49.015625 6.21875 
Q 42.328125 -1.421875 30.609375 -1.421875 
Q 18.84375 -1.421875 12.171875 6.21875 
Q 5.515625 13.875 5.515625 27.296875 
Q 5.515625 40.765625 12.171875 48.375 
Q 18.84375 56 30.609375 56 
z
" id="DejaVuSans-111"/>
      <path d="M 54.890625 33.015625 
L 54.890625 0 
L 45.90625 0 
L 45.90625 32.71875 
Q 45.90625 40.484375 42.875 44.328125 
Q 39.84375 48.1875 33.796875 48.1875 
Q 26.515625 48.1875 22.3125 43.546875 
Q 18.109375 38.921875 18.109375 30.90625 
L 18.109375 0 
L 9.078125 0 
L 9.078125 54.6875 
L 18.109375 54.6875 
L 18.109375 46.1875 
Q 21.34375 51.125 25.703125 53.5625 
Q 30.078125 56 35.796875 56 
Q 45.21875 56 50.046875 50.171875 
Q 54.890625 44.34375 54.890625 33.015625 
z
" id="DejaVuSans-110"/>
      <path d="M 48.78125 52.59375 
L 48.78125 44.1875 
Q 44.96875 46.296875 41.140625 47.34375 
Q 37.3125 48.390625 33.40625 48.390625 
Q 24.65625 48.390625 19.8125 42.84375 
Q 14.984375 37.3125 14.984375 27.296875 
Q 14.984375 17.28125 19.8125 11.734375 
Q 24.65625 6.203125 33.40625 6.203125 
Q 37.3125 6.203125 41.140625 7.25 
Q 44.96875 8.296875 48.78125 10.40625 
L 48.78125 2.09375 
Q 45.015625 0.34375 40.984375 -0.53125 
Q 36.96875 -1.421875 32.421875 -1.421875 
Q 20.0625 -1.421875 12.78125 6.34375 
Q 5.515625 14.109375 5.515625 27.296875 
Q 5.515625 40.671875 12.859375 48.328125 
Q 20.21875 56 33.015625 56 
Q 37.15625 56 41.109375 55.140625 
Q 45.0625 54.296875 48.78125 52.59375 
z
" id="DejaVuSans-99"/>
      <path d="M 53.515625 70.515625 
L 53.515625 60.890625 
Q 47.90625 63.578125 42.921875 64.890625 
Q 37.9375 66.21875 33.296875 66.21875 
Q 25.25 66.21875 20.875 63.09375 
Q 16.5 59.96875 16.5 54.203125 
Q 16.5 49.359375 19.40625 46.890625 
Q 22.3125 44.4375 30.421875 42.921875 
L 36.375 41.703125 
Q 47.40625 39.59375 52.65625 34.296875 
Q 57.90625 29 57.90625 20.125 
Q 57.90625 9.515625 50.796875 4.046875 
Q 43.703125 -1.421875 29.984375 -1.421875 
Q 24.8125 -1.421875 18.96875 -0.25 
Q 13.140625 0.921875 6.890625 3.21875 
L 6.890625 13.375 
Q 12.890625 10.015625 18.65625 8.296875 
Q 24.421875 6.59375 29.984375 6.59375 
Q 38.421875 6.59375 43.015625 9.90625 
Q 47.609375 13.234375 47.609375 19.390625 
Q 47.609375 24.75 44.3125 27.78125 
Q 41.015625 30.8125 33.5 32.328125 
L 27.484375 33.5 
Q 16.453125 35.6875 11.515625 40.375 
Q 6.59375 45.0625 6.59375 53.421875 
Q 6.59375 63.09375 13.40625 68.65625 
Q 20.21875 74.21875 32.171875 74.21875 
Q 37.3125 74.21875 42.625 73.28125 
Q 47.953125 72.359375 53.515625 70.515625 
z
" id="DejaVuSans-83"/>
      <path d="M 28.609375 0 
L 0.78125 72.90625 
L 11.078125 72.90625 
L 34.1875 11.53125 
L 57.328125 72.90625 
L 67.578125 72.90625 
L 39.796875 0 
z
" id="DejaVuSans-86"/>
      <path d="M 4.203125 54.6875 
L 13.1875 54.6875 
L 24.421875 12.015625 
L 35.59375 54.6875 
L 46.1875 54.6875 
L 57.421875 12.015625 
L 68.609375 54.6875 
L 77.59375 54.6875 
L 63.28125 0 
L 52.6875 0 
L 40.921875 44.828125 
L 29.109375 0 
L 18.5 0 
z
" id="DejaVuSans-119"/>
     </defs>
     <use xlink:href="#DejaVuSans-67"/>
     <use x="69.824219" xlink:href="#DejaVuSans-111"/>
     <use x="131.005859" xlink:href="#DejaVuSans-110"/>
     <use x="194.384766" xlink:href="#DejaVuSans-99"/>
     <use x="249.365234" xlink:href="#DejaVuSans-101"/>
     <use x="310.888672" xlink:href="#DejaVuSans-110"/>
     <use x="374.267578" xlink:href="#DejaVuSans-116"/>
     <use x="413.476562" xlink:href="#DejaVuSans-114"/>
     <use x="454.589844" xlink:href="#DejaVuSans-97"/>
     <use x="515.869141" xlink:href="#DejaVuSans-116"/>
     <use x="555.078125" xlink:href="#DejaVuSans-105"/>
     <use x="582.861328" xlink:href="#DejaVuSans-101"/>
     <use x="644.384766" xlink:href="#DejaVuSans-32"/>
     <use x="676.171875" xlink:href="#DejaVuSans-83"/>
     <use x="741.523438" xlink:href="#DejaVuSans-65"/>
     <use x="809.931641" xlink:href="#DejaVuSans-82"/>
     <use x="879.414062" xlink:href="#DejaVuSans-83"/>
     <use x="942.890625" xlink:href="#DejaVuSans-45"/>
     <use x="978.974609" xlink:href="#DejaVuSans-67"/>
     <use x="1048.798828" xlink:href="#DejaVuSans-111"/>
     <use x="1109.980469" xlink:href="#DejaVuSans-86"/>
     <use x="1172.513672" xlink:href="#DejaVuSans-45"/>
     <use x="1208.597656" xlink:href="#DejaVuSans-50"/>
     <use x="1272.220703" xlink:href="#DejaVuSans-32"/>
     <use x="1304.007812" xlink:href="#DejaVuSans-82"/>
     <use x="1373.490234" xlink:href="#DejaVuSans-78"/>
     <use x="1448.294922" xlink:href="#DejaVuSans-65"/>
     <use x="1516.703125" xlink:href="#DejaVuSans-32"/>
     <use x="1548.490234" xlink:href="#DejaVuSans-112"/>
     <use x="1611.966797" xlink:href="#DejaVuSans-101"/>
     <use x="1673.490234" xlink:href="#DejaVuSans-114"/>
     <use x="1714.603516" xlink:href="#DejaVuSans-32"/>
     <use x="1746.390625" xlink:href="#DejaVuSans-109"/>
     <use x="1843.802734" xlink:href="#DejaVuSans-108"/>
     <use x="1871.585938" xlink:href="#DejaVuSans-32"/>
     <use x="1903.373047" xlink:href="#DejaVuSans-114"/>
     <use x="1944.486328" xlink:href="#DejaVuSans-105"/>
     <use x="1972.269531" xlink:href="#DejaVuSans-111"/>
     <use x="2033.451172" xlink:href="#DejaVuSans-111"/>
     <use x="2094.632812" xlink:href="#DejaVuSans-108"/>
     <use x="2122.416016" xlink:href="#DejaVuSans-119"/>
     <use x="2204.203125" xlink:href="#DejaVuSans-97"/>
     <use x="2265.482422" xlink:href="#DejaVuSans-116"/>
     <use x="2304.691406" xlink:href="#DejaVuSans-101"/>
     <use x="2366.214844" xlink:href="#DejaVuSans-114"/>
    </g>
   </g>
   <g id="legend_1">
    <g id="patch_7">
     <path d="M 71.8 48.598125 
L 306.184375 48.598125 
Q 308.184375 48.598125 308.184375 46.598125 
L 308.184375 32.92 
Q 308.184375 30.92 306.184375 30.92 
L 71.8 30.92 
Q 69.8 30.92 69.8 32.92 
L 69.8 46.598125 
Q 69.8 48.598125 71.8 48.598125 
z
" style="fill:#ffffff;opacity:0.8;stroke:#cccccc;stroke-linejoin:miter;"/>
    </g>
    <g id="line2d_33">
     <path d="M 73.8 39.018437 
L 93.8 39.018437 
" style="fill:none;stroke:#008000;stroke-linecap:square;stroke-width:1.5;"/>
    </g>
    <g id="line2d_34"/>
    <g id="text_19">
     <!-- RNA per milliliter rioolwater (gemiddeld) -->
     <g transform="translate(101.8 42.518437)scale(0.1 -0.1)">
      <defs>
       <path d="M 31 75.875 
Q 24.46875 64.65625 21.28125 53.65625 
Q 18.109375 42.671875 18.109375 31.390625 
Q 18.109375 20.125 21.3125 9.0625 
Q 24.515625 -2 31 -13.1875 
L 23.1875 -13.1875 
Q 15.875 -1.703125 12.234375 9.375 
Q 8.59375 20.453125 8.59375 31.390625 
Q 8.59375 42.28125 12.203125 53.3125 
Q 15.828125 64.359375 23.1875 75.875 
z
" id="DejaVuSans-40"/>
       <path d="M 45.40625 27.984375 
Q 45.40625 37.75 41.375 43.109375 
Q 37.359375 48.484375 30.078125 48.484375 
Q 22.859375 48.484375 18.828125 43.109375 
Q 14.796875 37.75 14.796875 27.984375 
Q 14.796875 18.265625 18.828125 12.890625 
Q 22.859375 7.515625 30.078125 7.515625 
Q 37.359375 7.515625 41.375 12.890625 
Q 45.40625 18.265625 45.40625 27.984375 
z
M 54.390625 6.78125 
Q 54.390625 -7.171875 48.1875 -13.984375 
Q 42 -20.796875 29.203125 -20.796875 
Q 24.46875 -20.796875 20.265625 -20.09375 
Q 16.0625 -19.390625 12.109375 -17.921875 
L 12.109375 -9.1875 
Q 16.0625 -11.328125 19.921875 -12.34375 
Q 23.78125 -13.375 27.78125 -13.375 
Q 36.625 -13.375 41.015625 -8.765625 
Q 45.40625 -4.15625 45.40625 5.171875 
L 45.40625 9.625 
Q 42.625 4.78125 38.28125 2.390625 
Q 33.9375 0 27.875 0 
Q 17.828125 0 11.671875 7.65625 
Q 5.515625 15.328125 5.515625 27.984375 
Q 5.515625 40.671875 11.671875 48.328125 
Q 17.828125 56 27.875 56 
Q 33.9375 56 38.28125 53.609375 
Q 42.625 51.21875 45.40625 46.390625 
L 45.40625 54.6875 
L 54.390625 54.6875 
z
" id="DejaVuSans-103"/>
       <path d="M 45.40625 46.390625 
L 45.40625 75.984375 
L 54.390625 75.984375 
L 54.390625 0 
L 45.40625 0 
L 45.40625 8.203125 
Q 42.578125 3.328125 38.25 0.953125 
Q 33.9375 -1.421875 27.875 -1.421875 
Q 17.96875 -1.421875 11.734375 6.484375 
Q 5.515625 14.40625 5.515625 27.296875 
Q 5.515625 40.1875 11.734375 48.09375 
Q 17.96875 56 27.875 56 
Q 33.9375 56 38.25 53.625 
Q 42.578125 51.265625 45.40625 46.390625 
z
M 14.796875 27.296875 
Q 14.796875 17.390625 18.875 11.75 
Q 22.953125 6.109375 30.078125 6.109375 
Q 37.203125 6.109375 41.296875 11.75 
Q 45.40625 17.390625 45.40625 27.296875 
Q 45.40625 37.203125 41.296875 42.84375 
Q 37.203125 48.484375 30.078125 48.484375 
Q 22.953125 48.484375 18.875 42.84375 
Q 14.796875 37.203125 14.796875 27.296875 
z
" id="DejaVuSans-100"/>
       <path d="M 8.015625 75.875 
L 15.828125 75.875 
Q 23.140625 64.359375 26.78125 53.3125 
Q 30.421875 42.28125 30.421875 31.390625 
Q 30.421875 20.453125 26.78125 9.375 
Q 23.140625 -1.703125 15.828125 -13.1875 
L 8.015625 -13.1875 
Q 14.5 -2 17.703125 9.0625 
Q 20.90625 20.125 20.90625 31.390625 
Q 20.90625 42.671875 17.703125 53.65625 
Q 14.5 64.65625 8.015625 75.875 
z
" id="DejaVuSans-41"/>
      </defs>
      <use xlink:href="#DejaVuSans-82"/>
      <use x="69.482422" xlink:href="#DejaVuSans-78"/>
      <use x="144.287109" xlink:href="#DejaVuSans-65"/>
      <use x="212.695312" xlink:href="#DejaVuSans-32"/>
      <use x="244.482422" xlink:href="#DejaVuSans-112"/>
      <use x="307.958984" xlink:href="#DejaVuSans-101"/>
      <use x="369.482422" xlink:href="#DejaVuSans-114"/>
      <use x="410.595703" xlink:href="#DejaVuSans-32"/>
      <use x="442.382812" xlink:href="#DejaVuSans-109"/>
      <use x="539.794922" xlink:href="#DejaVuSans-105"/>
      <use x="567.578125" xlink:href="#DejaVuSans-108"/>
      <use x="595.361328" xlink:href="#DejaVuSans-108"/>
      <use x="623.144531" xlink:href="#DejaVuSans-105"/>
      <use x="650.927734" xlink:href="#DejaVuSans-108"/>
      <use x="678.710938" xlink:href="#DejaVuSans-105"/>
      <use x="706.494141" xlink:href="#DejaVuSans-116"/>
      <use x="745.703125" xlink:href="#DejaVuSans-101"/>
      <use x="807.226562" xlink:href="#DejaVuSans-114"/>
      <use x="848.339844" xlink:href="#DejaVuSans-32"/>
      <use x="880.126953" xlink:href="#DejaVuSans-114"/>
      <use x="921.240234" xlink:href="#DejaVuSans-105"/>
      <use x="949.023438" xlink:href="#DejaVuSans-111"/>
      <use x="1010.205078" xlink:href="#DejaVuSans-111"/>
      <use x="1071.386719" xlink:href="#DejaVuSans-108"/>
      <use x="1099.169922" xlink:href="#DejaVuSans-119"/>
      <use x="1180.957031" xlink:href="#DejaVuSans-97"/>
      <use x="1242.236328" xlink:href="#DejaVuSans-116"/>
      <use x="1281.445312" xlink:href="#DejaVuSans-101"/>
      <use x="1342.96875" xlink:href="#DejaVuSans-114"/>
      <use x="1384.082031" xlink:href="#DejaVuSans-32"/>
      <use x="1415.869141" xlink:href="#DejaVuSans-40"/>
      <use x="1454.882812" xlink:href="#DejaVuSans-103"/>
      <use x="1518.359375" xlink:href="#DejaVuSans-101"/>
      <use x="1579.882812" xlink:href="#DejaVuSans-109"/>
      <use x="1677.294922" xlink:href="#DejaVuSans-105"/>
      <use x="1705.078125" xlink:href="#DejaVuSans-100"/>
      <use x="1768.554688" xlink:href="#DejaVuSans-100"/>
      <use x="1832.03125" xlink:href="#DejaVuSans-101"/>
      <use x="1893.554688" xlink:href="#DejaVuSans-108"/>
      <use x="1921.337891" xlink:href="#DejaVuSans-100"/>
      <use x="1984.814453" xlink:href="#DejaVuSans-41"/>
     </g>
    </g>
   </g>
  </g>
  <g id="text_20">
   <!-- Gegenereerd op 2021-10-23 11:41 o.b.v. data tot 2021-10-19. -->
   <g style="fill:#808080;" transform="translate(7.2 204.88175)scale(0.08 -0.08)">
    <defs>
     <path d="M 59.515625 10.40625 
L 59.515625 29.984375 
L 43.40625 29.984375 
L 43.40625 38.09375 
L 69.28125 38.09375 
L 69.28125 6.78125 
Q 63.578125 2.734375 56.6875 0.65625 
Q 49.8125 -1.421875 42 -1.421875 
Q 24.90625 -1.421875 15.25 8.5625 
Q 5.609375 18.5625 5.609375 36.375 
Q 5.609375 54.25 15.25 64.234375 
Q 24.90625 74.21875 42 74.21875 
Q 49.125 74.21875 55.546875 72.453125 
Q 61.96875 70.703125 67.390625 67.28125 
L 67.390625 56.78125 
Q 61.921875 61.421875 55.765625 63.765625 
Q 49.609375 66.109375 42.828125 66.109375 
Q 29.4375 66.109375 22.71875 58.640625 
Q 16.015625 51.171875 16.015625 36.375 
Q 16.015625 21.625 22.71875 14.15625 
Q 29.4375 6.6875 42.828125 6.6875 
Q 48.046875 6.6875 52.140625 7.59375 
Q 56.25 8.5 59.515625 10.40625 
z
" id="DejaVuSans-71"/>
     <path d="M 11.71875 12.40625 
L 22.015625 12.40625 
L 22.015625 0 
L 11.71875 0 
z
M 11.71875 51.703125 
L 22.015625 51.703125 
L 22.015625 39.3125 
L 11.71875 39.3125 
z
" id="DejaVuSans-58"/>
     <path d="M 10.6875 12.40625 
L 21 12.40625 
L 21 0 
L 10.6875 0 
z
" id="DejaVuSans-46"/>
     <path d="M 48.6875 27.296875 
Q 48.6875 37.203125 44.609375 42.84375 
Q 40.53125 48.484375 33.40625 48.484375 
Q 26.265625 48.484375 22.1875 42.84375 
Q 18.109375 37.203125 18.109375 27.296875 
Q 18.109375 17.390625 22.1875 11.75 
Q 26.265625 6.109375 33.40625 6.109375 
Q 40.53125 6.109375 44.609375 11.75 
Q 48.6875 17.390625 48.6875 27.296875 
z
M 18.109375 46.390625 
Q 20.953125 51.265625 25.265625 53.625 
Q 29.59375 56 35.59375 56 
Q 45.5625 56 51.78125 48.09375 
Q 58.015625 40.1875 58.015625 27.296875 
Q 58.015625 14.40625 51.78125 6.484375 
Q 45.5625 -1.421875 35.59375 -1.421875 
Q 29.59375 -1.421875 25.265625 0.953125 
Q 20.953125 3.328125 18.109375 8.203125 
L 18.109375 0 
L 9.078125 0 
L 9.078125 75.984375 
L 18.109375 75.984375 
z
" id="DejaVuSans-98"/>
     <path d="M 2.984375 54.6875 
L 12.5 54.6875 
L 29.59375 8.796875 
L 46.6875 54.6875 
L 56.203125 54.6875 
L 35.6875 0 
L 23.484375 0 
z
" id="DejaVuSans-118"/>
    </defs>
    <use xlink:href="#DejaVuSans-71"/>
    <use x="77.490234" xlink:href="#DejaVuSans-101"/>
    <use x="139.013672" xlink:href="#DejaVuSans-103"/>
    <use x="202.490234" xlink:href="#DejaVuSans-101"/>
    <use x="264.013672" xlink:href="#DejaVuSans-110"/>
    <use x="327.392578" xlink:href="#DejaVuSans-101"/>
    <use x="388.916016" xlink:href="#DejaVuSans-114"/>
    <use x="427.779297" xlink:href="#DejaVuSans-101"/>
    <use x="489.302734" xlink:href="#DejaVuSans-101"/>
    <use x="550.826172" xlink:href="#DejaVuSans-114"/>
    <use x="590.189453" xlink:href="#DejaVuSans-100"/>
    <use x="653.666016" xlink:href="#DejaVuSans-32"/>
    <use x="685.453125" xlink:href="#DejaVuSans-111"/>
    <use x="746.634766" xlink:href="#DejaVuSans-112"/>
    <use x="810.111328" xlink:href="#DejaVuSans-32"/>
    <use x="841.898438" xlink:href="#DejaVuSans-50"/>
    <use x="905.521484" xlink:href="#DejaVuSans-48"/>
    <use x="969.144531" xlink:href="#DejaVuSans-50"/>
    <use x="1032.767578" xlink:href="#DejaVuSans-49"/>
    <use x="1096.390625" xlink:href="#DejaVuSans-45"/>
    <use x="1132.474609" xlink:href="#DejaVuSans-49"/>
    <use x="1196.097656" xlink:href="#DejaVuSans-48"/>
    <use x="1259.720703" xlink:href="#DejaVuSans-45"/>
    <use x="1295.804688" xlink:href="#DejaVuSans-50"/>
    <use x="1359.427734" xlink:href="#DejaVuSans-51"/>
    <use x="1423.050781" xlink:href="#DejaVuSans-32"/>
    <use x="1454.837891" xlink:href="#DejaVuSans-49"/>
    <use x="1518.460938" xlink:href="#DejaVuSans-49"/>
    <use x="1582.083984" xlink:href="#DejaVuSans-58"/>
    <use x="1615.775391" xlink:href="#DejaVuSans-52"/>
    <use x="1679.398438" xlink:href="#DejaVuSans-49"/>
    <use x="1743.021484" xlink:href="#DejaVuSans-32"/>
    <use x="1774.808594" xlink:href="#DejaVuSans-111"/>
    <use x="1834.240234" xlink:href="#DejaVuSans-46"/>
    <use x="1866.027344" xlink:href="#DejaVuSans-98"/>
    <use x="1929.503906" xlink:href="#DejaVuSans-46"/>
    <use x="1961.291016" xlink:href="#DejaVuSans-118"/>
    <use x="2012.720703" xlink:href="#DejaVuSans-46"/>
    <use x="2044.507812" xlink:href="#DejaVuSans-32"/>
    <use x="2076.294922" xlink:href="#DejaVuSans-100"/>
    <use x="2139.771484" xlink:href="#DejaVuSans-97"/>
    <use x="2201.050781" xlink:href="#DejaVuSans-116"/>
    <use x="2240.259766" xlink:href="#DejaVuSans-97"/>
    <use x="2301.539062" xlink:href="#DejaVuSans-32"/>
    <use x="2333.326172" xlink:href="#DejaVuSans-116"/>
    <use x="2372.535156" xlink:href="#DejaVuSans-111"/>
    <use x="2433.716797" xlink:href="#DejaVuSans-116"/>
    <use x="2472.925781" xlink:href="#DejaVuSans-32"/>
    <use x="2504.712891" xlink:href="#DejaVuSans-50"/>
    <use x="2568.335938" xlink:href="#DejaVuSans-48"/>
    <use x="2631.958984" xlink:href="#DejaVuSans-50"/>
    <use x="2695.582031" xlink:href="#DejaVuSans-49"/>
    <use x="2759.205078" xlink:href="#DejaVuSans-45"/>
    <use x="2795.289062" xlink:href="#DejaVuSans-49"/>
    <use x="2858.912109" xlink:href="#DejaVuSans-48"/>
    <use x="2922.535156" xlink:href="#DejaVuSans-45"/>
    <use x="2958.619141" xlink:href="#DejaVuSans-49"/>
    <use x="3022.242188" xlink:href="#DejaVuSans-57"/>
    <use x="3085.865234" xlink:href="#DejaVuSans-46"/>
   </g>
   <!-- Source code: http://github.com/realrolfje/coronadata -->
   <g style="fill:#808080;" transform="translate(7.2 213.84)scale(0.08 -0.08)">
    <defs>
     <path d="M 54.890625 33.015625 
L 54.890625 0 
L 45.90625 0 
L 45.90625 32.71875 
Q 45.90625 40.484375 42.875 44.328125 
Q 39.84375 48.1875 33.796875 48.1875 
Q 26.515625 48.1875 22.3125 43.546875 
Q 18.109375 38.921875 18.109375 30.90625 
L 18.109375 0 
L 9.078125 0 
L 9.078125 75.984375 
L 18.109375 75.984375 
L 18.109375 46.1875 
Q 21.34375 51.125 25.703125 53.5625 
Q 30.078125 56 35.796875 56 
Q 45.21875 56 50.046875 50.171875 
Q 54.890625 44.34375 54.890625 33.015625 
z
" id="DejaVuSans-104"/>
     <path d="M 25.390625 72.90625 
L 33.6875 72.90625 
L 8.296875 -9.28125 
L 0 -9.28125 
z
" id="DejaVuSans-47"/>
     <path d="M 37.109375 75.984375 
L 37.109375 68.5 
L 28.515625 68.5 
Q 23.6875 68.5 21.796875 66.546875 
Q 19.921875 64.59375 19.921875 59.515625 
L 19.921875 54.6875 
L 34.71875 54.6875 
L 34.71875 47.703125 
L 19.921875 47.703125 
L 19.921875 0 
L 10.890625 0 
L 10.890625 47.703125 
L 2.296875 47.703125 
L 2.296875 54.6875 
L 10.890625 54.6875 
L 10.890625 58.5 
Q 10.890625 67.625 15.140625 71.796875 
Q 19.390625 75.984375 28.609375 75.984375 
z
" id="DejaVuSans-102"/>
     <path d="M 9.421875 54.6875 
L 18.40625 54.6875 
L 18.40625 -0.984375 
Q 18.40625 -11.421875 14.421875 -16.109375 
Q 10.453125 -20.796875 1.609375 -20.796875 
L -1.8125 -20.796875 
L -1.8125 -13.1875 
L 0.59375 -13.1875 
Q 5.71875 -13.1875 7.5625 -10.8125 
Q 9.421875 -8.453125 9.421875 -0.984375 
z
M 9.421875 75.984375 
L 18.40625 75.984375 
L 18.40625 64.59375 
L 9.421875 64.59375 
z
" id="DejaVuSans-106"/>
    </defs>
    <use xlink:href="#DejaVuSans-83"/>
    <use x="63.476562" xlink:href="#DejaVuSans-111"/>
    <use x="124.658203" xlink:href="#DejaVuSans-117"/>
    <use x="188.037109" xlink:href="#DejaVuSans-114"/>
    <use x="226.900391" xlink:href="#DejaVuSans-99"/>
    <use x="281.880859" xlink:href="#DejaVuSans-101"/>
    <use x="343.404297" xlink:href="#DejaVuSans-32"/>
    <use x="375.191406" xlink:href="#DejaVuSans-99"/>
    <use x="430.171875" xlink:href="#DejaVuSans-111"/>
    <use x="491.353516" xlink:href="#DejaVuSans-100"/>
    <use x="554.830078" xlink:href="#DejaVuSans-101"/>
    <use x="616.353516" xlink:href="#DejaVuSans-58"/>
    <use x="650.044922" xlink:href="#DejaVuSans-32"/>
    <use x="681.832031" xlink:href="#DejaVuSans-104"/>
    <use x="745.210938" xlink:href="#DejaVuSans-116"/>
    <use x="784.419922" xlink:href="#DejaVuSans-116"/>
    <use x="823.628906" xlink:href="#DejaVuSans-112"/>
    <use x="887.105469" xlink:href="#DejaVuSans-58"/>
    <use x="920.796875" xlink:href="#DejaVuSans-47"/>
    <use x="954.488281" xlink:href="#DejaVuSans-47"/>
    <use x="988.179688" xlink:href="#DejaVuSans-103"/>
    <use x="1051.65625" xlink:href="#DejaVuSans-105"/>
    <use x="1079.439453" xlink:href="#DejaVuSans-116"/>
    <use x="1118.648438" xlink:href="#DejaVuSans-104"/>
    <use x="1182.027344" xlink:href="#DejaVuSans-117"/>
    <use x="1245.40625" xlink:href="#DejaVuSans-98"/>
    <use x="1308.882812" xlink:href="#DejaVuSans-46"/>
    <use x="1340.669922" xlink:href="#DejaVuSans-99"/>
    <use x="1395.650391" xlink:href="#DejaVuSans-111"/>
    <use x="1456.832031" xlink:href="#DejaVuSans-109"/>
    <use x="1554.244141" xlink:href="#DejaVuSans-47"/>
    <use x="1587.935547" xlink:href="#DejaVuSans-114"/>
    <use x="1626.798828" xlink:href="#DejaVuSans-101"/>
    <use x="1688.322266" xlink:href="#DejaVuSans-97"/>
    <use x="1749.601562" xlink:href="#DejaVuSans-108"/>
    <use x="1777.384766" xlink:href="#DejaVuSans-114"/>
    <use x="1816.248047" xlink:href="#DejaVuSans-111"/>
    <use x="1877.429688" xlink:href="#DejaVuSans-108"/>
    <use x="1905.212891" xlink:href="#DejaVuSans-102"/>
    <use x="1940.417969" xlink:href="#DejaVuSans-106"/>
    <use x="1968.201172" xlink:href="#DejaVuSans-101"/>
    <use x="2029.724609" xlink:href="#DejaVuSans-47"/>
    <use x="2063.416016" xlink:href="#DejaVuSans-99"/>
    <use x="2118.396484" xlink:href="#DejaVuSans-111"/>
    <use x="2179.578125" xlink:href="#DejaVuSans-114"/>
    <use x="2218.441406" xlink:href="#DejaVuSans-111"/>
    <use x="2279.623047" xlink:href="#DejaVuSans-110"/>
    <use x="2343.001953" xlink:href="#DejaVuSans-97"/>
    <use x="2404.28125" xlink:href="#DejaVuSans-100"/>
    <use x="2467.757812" xlink:href="#DejaVuSans-97"/>
    <use x="2529.037109" xlink:href="#DejaVuSans-116"/>
    <use x="2568.246094" xlink:href="#DejaVuSans-97"/>
   </g>
  </g>
  <g id="text_21">
   <!-- Bron: https://data.rivm.nl/covid-19 -->
   <g style="fill:#808080;" transform="translate(574.79875 213.84)scale(0.08 -0.08)">
    <defs>
     <path d="M 19.671875 34.8125 
L 19.671875 8.109375 
L 35.5 8.109375 
Q 43.453125 8.109375 47.28125 11.40625 
Q 51.125 14.703125 51.125 21.484375 
Q 51.125 28.328125 47.28125 31.5625 
Q 43.453125 34.8125 35.5 34.8125 
z
M 19.671875 64.796875 
L 19.671875 42.828125 
L 34.28125 42.828125 
Q 41.5 42.828125 45.03125 45.53125 
Q 48.578125 48.25 48.578125 53.8125 
Q 48.578125 59.328125 45.03125 62.0625 
Q 41.5 64.796875 34.28125 64.796875 
z
M 9.8125 72.90625 
L 35.015625 72.90625 
Q 46.296875 72.90625 52.390625 68.21875 
Q 58.5 63.53125 58.5 54.890625 
Q 58.5 48.1875 55.375 44.234375 
Q 52.25 40.28125 46.1875 39.3125 
Q 53.46875 37.75 57.5 32.78125 
Q 61.53125 27.828125 61.53125 20.40625 
Q 61.53125 10.640625 54.890625 5.3125 
Q 48.25 0 35.984375 0 
L 9.8125 0 
z
" id="DejaVuSans-66"/>
     <path d="M 44.28125 53.078125 
L 44.28125 44.578125 
Q 40.484375 46.53125 36.375 47.5 
Q 32.28125 48.484375 27.875 48.484375 
Q 21.1875 48.484375 17.84375 46.4375 
Q 14.5 44.390625 14.5 40.28125 
Q 14.5 37.15625 16.890625 35.375 
Q 19.28125 33.59375 26.515625 31.984375 
L 29.59375 31.296875 
Q 39.15625 29.25 43.1875 25.515625 
Q 47.21875 21.78125 47.21875 15.09375 
Q 47.21875 7.46875 41.1875 3.015625 
Q 35.15625 -1.421875 24.609375 -1.421875 
Q 20.21875 -1.421875 15.453125 -0.5625 
Q 10.6875 0.296875 5.421875 2 
L 5.421875 11.28125 
Q 10.40625 8.6875 15.234375 7.390625 
Q 20.0625 6.109375 24.8125 6.109375 
Q 31.15625 6.109375 34.5625 8.28125 
Q 37.984375 10.453125 37.984375 14.40625 
Q 37.984375 18.0625 35.515625 20.015625 
Q 33.0625 21.96875 24.703125 23.78125 
L 21.578125 24.515625 
Q 13.234375 26.265625 9.515625 29.90625 
Q 5.8125 33.546875 5.8125 39.890625 
Q 5.8125 47.609375 11.28125 51.796875 
Q 16.75 56 26.8125 56 
Q 31.78125 56 36.171875 55.265625 
Q 40.578125 54.546875 44.28125 53.078125 
z
" id="DejaVuSans-115"/>
    </defs>
    <use xlink:href="#DejaVuSans-66"/>
    <use x="68.603516" xlink:href="#DejaVuSans-114"/>
    <use x="107.466797" xlink:href="#DejaVuSans-111"/>
    <use x="168.648438" xlink:href="#DejaVuSans-110"/>
    <use x="232.027344" xlink:href="#DejaVuSans-58"/>
    <use x="265.71875" xlink:href="#DejaVuSans-32"/>
    <use x="297.505859" xlink:href="#DejaVuSans-104"/>
    <use x="360.884766" xlink:href="#DejaVuSans-116"/>
    <use x="400.09375" xlink:href="#DejaVuSans-116"/>
    <use x="439.302734" xlink:href="#DejaVuSans-112"/>
    <use x="502.779297" xlink:href="#DejaVuSans-115"/>
    <use x="554.878906" xlink:href="#DejaVuSans-58"/>
    <use x="588.570312" xlink:href="#DejaVuSans-47"/>
    <use x="622.261719" xlink:href="#DejaVuSans-47"/>
    <use x="655.953125" xlink:href="#DejaVuSans-100"/>
    <use x="719.429688" xlink:href="#DejaVuSans-97"/>
    <use x="780.708984" xlink:href="#DejaVuSans-116"/>
    <use x="819.917969" xlink:href="#DejaVuSans-97"/>
    <use x="881.197266" xlink:href="#DejaVuSans-46"/>
    <use x="912.984375" xlink:href="#DejaVuSans-114"/>
    <use x="954.097656" xlink:href="#DejaVuSans-105"/>
    <use x="981.880859" xlink:href="#DejaVuSans-118"/>
    <use x="1041.060547" xlink:href="#DejaVuSans-109"/>
    <use x="1138.472656" xlink:href="#DejaVuSans-46"/>
    <use x="1170.259766" xlink:href="#DejaVuSans-110"/>
    <use x="1233.638672" xlink:href="#DejaVuSans-108"/>
    <use x="1261.421875" xlink:href="#DejaVuSans-47"/>
    <use x="1295.113281" xlink:href="#DejaVuSans-99"/>
    <use x="1350.09375" xlink:href="#DejaVuSans-111"/>
    <use x="1411.275391" xlink:href="#DejaVuSans-118"/>
    <use x="1470.455078" xlink:href="#DejaVuSans-105"/>
    <use x="1498.238281" xlink:href="#DejaVuSans-100"/>
    <use x="1561.714844" xlink:href="#DejaVuSans-45"/>
    <use x="1597.798828" xlink:href="#DejaVuSans-49"/>
    <use x="1661.421875" xlink:href="#DejaVuSans-57"/>
   </g>
  </g>
  <g id="text_22">
   <g id="patch_8">
    <path d="M 637.2 176.62375 
L 647.38 176.62375 
L 647.38 168.88125 
L 637.2 168.88125 
z
" style="fill:#ffffff;opacity:0.9;stroke:#ffffff;stroke-linejoin:miter;"/>
   </g>
   <!-- 23 -->
   <g style="fill:#ff0000;" transform="translate(637.2 174.96)scale(0.08 -0.08)">
    <use xlink:href="#DejaVuSans-50"/>
    <use x="63.623047" xlink:href="#DejaVuSans-51"/>
   </g>
  </g>
  <g id="text_23">
   <g id="patch_9">
    <path d="M 176 92.479688 
L 303.317187 92.479688 
L 303.317187 74.801563 
L 176 74.801563 
z
" style="fill:#ffffff;stroke:#ffffff;stroke-linejoin:miter;"/>
   </g>
   <!-- "Je plee liegt niet" - Rolf -->
   <g style="fill:#808080;" transform="translate(180 86.4)scale(0.1 -0.1)">
    <defs>
     <path d="M 17.921875 72.90625 
L 17.921875 45.796875 
L 9.625 45.796875 
L 9.625 72.90625 
z
M 36.375 72.90625 
L 36.375 45.796875 
L 28.078125 45.796875 
L 28.078125 72.90625 
z
" id="DejaVuSans-34"/>
     <path d="M 9.8125 72.90625 
L 19.671875 72.90625 
L 19.671875 5.078125 
Q 19.671875 -8.109375 14.671875 -14.0625 
Q 9.671875 -20.015625 -1.421875 -20.015625 
L -5.171875 -20.015625 
L -5.171875 -11.71875 
L -2.09375 -11.71875 
Q 4.4375 -11.71875 7.125 -8.046875 
Q 9.8125 -4.390625 9.8125 5.078125 
z
" id="DejaVuSans-74"/>
    </defs>
    <use xlink:href="#DejaVuSans-34"/>
    <use x="45.996094" xlink:href="#DejaVuSans-74"/>
    <use x="75.488281" xlink:href="#DejaVuSans-101"/>
    <use x="137.011719" xlink:href="#DejaVuSans-32"/>
    <use x="168.798828" xlink:href="#DejaVuSans-112"/>
    <use x="232.275391" xlink:href="#DejaVuSans-108"/>
    <use x="260.058594" xlink:href="#DejaVuSans-101"/>
    <use x="321.582031" xlink:href="#DejaVuSans-101"/>
    <use x="383.105469" xlink:href="#DejaVuSans-32"/>
    <use x="414.892578" xlink:href="#DejaVuSans-108"/>
    <use x="442.675781" xlink:href="#DejaVuSans-105"/>
    <use x="470.458984" xlink:href="#DejaVuSans-101"/>
    <use x="531.982422" xlink:href="#DejaVuSans-103"/>
    <use x="595.458984" xlink:href="#DejaVuSans-116"/>
    <use x="634.667969" xlink:href="#DejaVuSans-32"/>
    <use x="666.455078" xlink:href="#DejaVuSans-110"/>
    <use x="729.833984" xlink:href="#DejaVuSans-105"/>
    <use x="757.617188" xlink:href="#DejaVuSans-101"/>
    <use x="819.140625" xlink:href="#DejaVuSans-116"/>
    <use x="858.349609" xlink:href="#DejaVuSans-34"/>
    <use x="904.345703" xlink:href="#DejaVuSans-32"/>
    <use x="936.132812" xlink:href="#DejaVuSans-45"/>
    <use x="972.216797" xlink:href="#DejaVuSans-32"/>
    <use x="1004.003906" xlink:href="#DejaVuSans-82"/>
    <use x="1068.986328" xlink:href="#DejaVuSans-111"/>
    <use x="1130.167969" xlink:href="#DejaVuSans-108"/>
    <use x="1157.951172" xlink:href="#DejaVuSans-102"/>
   </g>
  </g>
 </g>
 <defs>
  <clipPath id="p756ab6b11f">
   <rect height="146.88" width="590.4" x="64.8" y="25.92"/>
  </clipPath>
 </defs>
</svg>
