<?xml version="1.0" encoding="utf-8" standalone="no"?>
<!DOCTYPE svg PUBLIC "-//W3C//DTD SVG 1.1//EN"
  "http://www.w3.org/Graphics/SVG/1.1/DTD/svg11.dtd">
<!-- Created with matplotlib (https://matplotlib.org/) -->
<svg height="216pt" version="1.1" viewBox="0 0 720 216" width="720pt" xmlns="http://www.w3.org/2000/svg" xmlns:xlink="http://www.w3.org/1999/xlink">
 <metadata>
  <rdf:RDF xmlns:cc="http://creativecommons.org/ns#" xmlns:dc="http://purl.org/dc/elements/1.1/" xmlns:rdf="http://www.w3.org/1999/02/22-rdf-syntax-ns#">
   <cc:Work>
    <dc:type rdf:resource="http://purl.org/dc/dcmitype/StillImage"/>
    <dc:date>2021-10-20T15:44:44.726302</dc:date>
    <dc:format>image/svg+xml</dc:format>
    <dc:creator>
     <cc:Agent>
      <dc:title>Matplotlib v3.3.2, https://matplotlib.org/</dc:title>
     </cc:Agent>
    </dc:creator>
   </cc:Work>
  </rdf:RDF>
 </metadata>
 <defs>
  <style type="text/css">*{stroke-linecap:butt;stroke-linejoin:round;}</style>
 </defs>
 <g id="figure_1">
  <g id="patch_1">
   <path d="M 0 216 
L 720 216 
L 720 0 
L 0 0 
z
" style="fill:#ffffff;"/>
  </g>
  <g id="axes_1">
   <g id="patch_2">
    <path d="M 64.8 172.8 
L 655.2 172.8 
L 655.2 25.92 
L 64.8 25.92 
z
" style="fill:#ffffff;"/>
   </g>
   <g id="PolyCollection_1">
    <path clip-path="url(#pbab4149906)" d="M 93.14702 172.8 
L 93.14702 172.8 
L 94.124503 172.8 
L 95.101987 172.8 
L 96.07947 172.8 
L 99.011921 172.8 
L 99.989404 172.8 
L 100.966887 172.8 
L 101.944371 172.8 
L 102.921854 172.8 
L 103.899338 172.8 
L 106.831788 172.8 
L 107.809272 172.8 
L 108.786755 172.8 
L 109.764238 172.8 
L 110.741722 172.8 
L 112.696689 172.8 
L 113.674172 172.8 
L 114.651656 172.8 
L 115.629139 172.8 
L 116.606623 172.8 
L 119.539073 172.8 
L 120.516556 172.8 
L 121.49404 172.8 
L 122.471523 172.8 
L 123.449007 172.8 
L 124.42649 172.8 
L 126.381457 172.8 
L 128.336424 172.8 
L 129.313907 172.8 
L 130.291391 172.8 
L 132.246358 172.8 
L 133.223841 172.8 
L 134.201325 172.8 
L 135.178808 172.8 
L 136.156291 172.8 
L 138.111258 172.8 
L 139.088742 172.8 
L 140.066225 172.8 
L 141.043709 172.8 
L 142.021192 172.8 
L 142.998675 172.8 
L 143.976159 172.8 
L 144.953642 172.8 
L 145.931126 172.8 
L 146.908609 172.8 
L 147.886093 172.8 
L 148.863576 172.8 
L 149.84106 172.8 
L 150.818543 172.8 
L 151.796026 172.8 
L 154.728477 172.8 
L 155.70596 172.8 
L 156.683444 172.8 
L 157.660927 172.8 
L 158.638411 172.8 
L 159.615894 172.8 
L 160.593377 172.8 
L 161.570861 172.8 
L 162.548344 172.8 
L 163.525828 172.8 
L 164.503311 172.8 
L 167.435762 172.8 
L 168.413245 172.8 
L 169.390728 172.8 
L 170.368212 172.8 
L 174.278146 172.8 
L 175.255629 172.8 
L 176.233113 172.8 
L 180.143046 172.8 
L 181.12053 172.8 
L 182.098013 172.8 
L 183.075497 172.8 
L 185.030464 172.8 
L 188.940397 172.8 
L 189.917881 172.8 
L 190.895364 172.8 
L 195.782781 172.8 
L 196.760265 172.8 
L 198.715232 172.8 
L 200.670199 172.8 
L 201.647682 172.8 
L 202.625166 172.8 
L 203.602649 172.8 
L 204.580132 172.8 
L 205.557616 172.8 
L 206.535099 172.8 
L 207.512583 172.8 
L 208.490066 172.8 
L 209.46755 172.8 
L 210.445033 172.8 
L 211.422517 172.8 
L 212.4 172.8 
L 213.377483 172.8 
L 214.354967 172.8 
L 215.33245 172.8 
L 216.309934 172.8 
L 217.287417 172.8 
L 218.264901 172.8 
L 219.242384 172.8 
L 220.219868 172.8 
L 222.174834 172.8 
L 223.152318 172.8 
L 224.129801 172.8 
L 225.107285 172.8 
L 226.084768 172.8 
L 227.062252 172.8 
L 228.039735 172.8 
L 229.017219 172.8 
L 229.994702 172.8 
L 230.972185 172.8 
L 231.949669 172.8 
L 232.927152 172.8 
L 233.904636 172.8 
L 234.882119 172.8 
L 235.859603 172.8 
L 236.837086 172.8 
L 237.81457 172.8 
L 238.792053 172.8 
L 239.769536 172.8 
L 240.74702 172.8 
L 241.724503 172.8 
L 242.701987 172.8 
L 243.67947 172.8 
L 244.656954 172.8 
L 245.634437 172.8 
L 246.611921 172.8 
L 247.589404 172.8 
L 248.566887 172.8 
L 249.544371 172.8 
L 250.521854 172.8 
L 251.499338 172.8 
L 252.476821 172.8 
L 253.454305 172.8 
L 254.431788 172.8 
L 255.409272 172.8 
L 256.386755 172.8 
L 257.364238 172.8 
L 258.341722 172.8 
L 259.319205 172.8 
L 260.296689 172.8 
L 261.274172 172.8 
L 262.251656 172.8 
L 263.229139 172.8 
L 264.206623 172.8 
L 265.184106 172.8 
L 266.161589 172.8 
L 267.139073 172.8 
L 268.116556 172.8 
L 269.09404 172.8 
L 270.071523 172.8 
L 271.049007 172.8 
L 272.02649 172.8 
L 273.003974 172.8 
L 273.981457 172.8 
L 274.95894 172.8 
L 275.936424 172.8 
L 276.913907 172.8 
L 277.891391 172.8 
L 278.868874 172.8 
L 279.846358 172.8 
L 280.823841 172.8 
L 281.801325 172.8 
L 282.778808 172.8 
L 283.756291 172.8 
L 284.733775 172.8 
L 285.711258 172.8 
L 286.688742 172.8 
L 287.666225 172.8 
L 288.643709 172.8 
L 289.621192 172.8 
L 290.598675 172.8 
L 291.576159 172.8 
L 292.553642 172.8 
L 293.531126 172.8 
L 294.508609 172.8 
L 295.486093 172.8 
L 296.463576 172.8 
L 297.44106 172.8 
L 298.418543 172.8 
L 299.396026 172.8 
L 300.37351 172.8 
L 301.350993 172.8 
L 302.328477 172.8 
L 303.30596 172.8 
L 304.283444 172.8 
L 305.260927 172.8 
L 306.238411 172.8 
L 307.215894 172.8 
L 308.193377 172.8 
L 309.170861 172.8 
L 310.148344 172.8 
L 311.125828 172.8 
L 312.103311 172.8 
L 313.080795 172.8 
L 314.058278 172.8 
L 315.035762 172.8 
L 316.013245 172.8 
L 316.990728 172.8 
L 317.968212 172.8 
L 318.945695 172.8 
L 319.923179 172.8 
L 320.900662 172.8 
L 321.878146 172.8 
L 322.855629 172.8 
L 323.833113 172.8 
L 324.810596 172.8 
L 325.788079 172.8 
L 326.765563 172.8 
L 327.743046 172.8 
L 328.72053 172.8 
L 329.698013 172.8 
L 330.675497 172.8 
L 331.65298 172.8 
L 332.630464 172.8 
L 333.607947 172.8 
L 334.58543 172.8 
L 335.562914 172.8 
L 336.540397 172.8 
L 337.517881 172.8 
L 338.495364 172.8 
L 339.472848 172.8 
L 340.450331 172.8 
L 341.427815 172.8 
L 342.405298 172.8 
L 343.382781 172.8 
L 344.360265 172.8 
L 345.337748 172.8 
L 346.315232 172.8 
L 347.292715 172.8 
L 348.270199 172.8 
L 349.247682 172.8 
L 350.225166 172.8 
L 351.202649 172.8 
L 352.180132 172.8 
L 353.157616 172.8 
L 354.135099 172.8 
L 355.112583 172.8 
L 356.090066 172.8 
L 357.06755 172.8 
L 358.045033 172.8 
L 359.022517 172.8 
L 360 172.8 
L 360.977483 172.8 
L 361.954967 172.8 
L 363.909934 172.8 
L 364.887417 172.8 
L 365.864901 172.8 
L 366.842384 172.8 
L 367.819868 172.8 
L 368.797351 172.8 
L 369.774834 172.8 
L 370.752318 172.8 
L 371.729801 172.8 
L 372.707285 172.8 
L 373.684768 172.8 
L 374.662252 172.8 
L 375.639735 172.8 
L 376.617219 172.8 
L 377.594702 172.8 
L 378.572185 172.8 
L 379.549669 172.8 
L 380.527152 172.8 
L 381.504636 172.8 
L 382.482119 172.8 
L 383.459603 172.8 
L 384.437086 172.8 
L 385.41457 172.8 
L 386.392053 172.8 
L 387.369536 172.8 
L 388.34702 172.8 
L 389.324503 172.8 
L 390.301987 172.8 
L 391.27947 172.8 
L 392.256954 172.8 
L 393.234437 172.8 
L 394.211921 172.8 
L 395.189404 172.8 
L 396.166887 172.8 
L 397.144371 172.8 
L 398.121854 172.8 
L 399.099338 172.8 
L 400.076821 172.8 
L 401.054305 172.8 
L 402.031788 172.8 
L 403.009272 172.8 
L 403.986755 172.8 
L 404.964238 172.8 
L 405.941722 172.8 
L 406.919205 172.8 
L 407.896689 172.8 
L 408.874172 172.8 
L 409.851656 172.8 
L 410.829139 172.8 
L 411.806623 172.8 
L 412.784106 172.8 
L 413.761589 172.8 
L 414.739073 172.8 
L 415.716556 172.8 
L 416.69404 172.8 
L 417.671523 172.8 
L 418.649007 172.8 
L 419.62649 172.8 
L 420.603974 172.8 
L 421.581457 172.8 
L 422.55894 172.8 
L 423.536424 172.8 
L 424.513907 172.8 
L 425.491391 172.8 
L 426.468874 172.8 
L 427.446358 172.8 
L 428.423841 172.8 
L 429.401325 172.8 
L 430.378808 172.8 
L 431.356291 172.8 
L 432.333775 172.8 
L 433.311258 172.8 
L 434.288742 172.8 
L 435.266225 172.8 
L 436.243709 172.8 
L 437.221192 172.8 
L 438.198675 172.8 
L 439.176159 172.8 
L 440.153642 172.8 
L 441.131126 172.8 
L 442.108609 172.8 
L 443.086093 172.8 
L 444.063576 172.8 
L 445.04106 172.8 
L 446.018543 172.8 
L 446.996026 172.8 
L 447.97351 172.8 
L 448.950993 172.8 
L 449.928477 172.8 
L 450.90596 172.8 
L 451.883444 172.8 
L 452.860927 172.8 
L 453.838411 172.8 
L 454.815894 172.8 
L 455.793377 172.8 
L 456.770861 172.8 
L 457.748344 172.8 
L 458.725828 172.8 
L 459.703311 172.8 
L 460.680795 172.8 
L 461.658278 172.8 
L 462.635762 172.8 
L 463.613245 172.8 
L 464.590728 172.8 
L 465.568212 172.8 
L 466.545695 172.8 
L 467.523179 172.8 
L 468.500662 172.8 
L 469.478146 172.8 
L 470.455629 172.8 
L 471.433113 172.8 
L 472.410596 172.8 
L 473.388079 172.8 
L 474.365563 172.8 
L 475.343046 172.8 
L 476.32053 172.8 
L 477.298013 172.8 
L 478.275497 172.8 
L 479.25298 172.8 
L 480.230464 172.8 
L 481.207947 172.8 
L 482.18543 172.8 
L 483.162914 172.8 
L 484.140397 172.8 
L 485.117881 172.8 
L 486.095364 172.8 
L 487.072848 172.8 
L 488.050331 172.8 
L 489.027815 172.8 
L 490.005298 172.8 
L 490.982781 172.8 
L 491.960265 172.8 
L 492.937748 172.8 
L 493.915232 172.8 
L 494.892715 172.8 
L 495.870199 172.8 
L 496.847682 172.8 
L 497.825166 172.8 
L 498.802649 172.8 
L 499.780132 172.8 
L 500.757616 172.8 
L 502.712583 172.8 
L 503.690066 172.8 
L 504.66755 172.8 
L 505.645033 172.8 
L 506.622517 172.8 
L 507.6 172.8 
L 508.577483 172.8 
L 509.554967 172.8 
L 510.53245 172.8 
L 511.509934 172.8 
L 512.487417 172.8 
L 513.464901 172.8 
L 514.442384 172.8 
L 516.397351 172.8 
L 517.374834 172.8 
L 518.352318 172.8 
L 519.329801 172.8 
L 520.307285 172.8 
L 522.262252 172.8 
L 523.239735 172.8 
L 524.217219 172.8 
L 525.194702 172.8 
L 526.172185 172.8 
L 527.149669 172.8 
L 529.104636 172.8 
L 530.082119 172.8 
L 531.059603 172.8 
L 532.037086 172.8 
L 533.01457 172.8 
L 533.992053 172.8 
L 534.969536 172.8 
L 535.94702 172.8 
L 536.924503 172.8 
L 537.901987 172.8 
L 538.87947 172.8 
L 539.856954 172.8 
L 540.834437 172.8 
L 541.811921 172.8 
L 542.789404 172.8 
L 543.766887 172.8 
L 544.744371 172.8 
L 545.721854 172.8 
L 546.699338 172.8 
L 547.676821 172.8 
L 548.654305 172.8 
L 549.631788 172.8 
L 550.609272 172.8 
L 551.586755 172.8 
L 552.564238 172.8 
L 553.541722 172.8 
L 554.519205 172.8 
L 556.474172 172.8 
L 557.451656 172.8 
L 558.429139 172.8 
L 559.406623 172.8 
L 560.384106 172.8 
L 561.361589 172.8 
L 562.339073 172.8 
L 563.316556 172.8 
L 564.29404 172.8 
L 565.271523 172.8 
L 566.249007 172.8 
L 567.22649 172.8 
L 568.203974 172.8 
L 569.181457 172.8 
L 570.15894 172.8 
L 571.136424 172.8 
L 572.113907 172.8 
L 573.091391 172.8 
L 574.068874 172.8 
L 575.046358 172.8 
L 576.023841 172.8 
L 577.001325 172.8 
L 577.978808 172.8 
L 578.956291 172.8 
L 579.933775 172.8 
L 580.911258 172.8 
L 581.888742 172.8 
L 582.866225 172.8 
L 583.843709 172.8 
L 584.821192 172.8 
L 585.798675 172.8 
L 586.776159 172.8 
L 587.753642 172.8 
L 588.731126 172.8 
L 589.708609 172.8 
L 590.686093 172.8 
L 591.663576 172.8 
L 592.64106 172.8 
L 593.618543 172.8 
L 594.596026 172.8 
L 595.57351 172.8 
L 596.550993 172.8 
L 597.528477 172.8 
L 598.50596 172.8 
L 599.483444 172.8 
L 600.460927 172.8 
L 601.438411 172.8 
L 602.415894 172.8 
L 603.393377 172.8 
L 604.370861 172.8 
L 605.348344 172.8 
L 606.325828 172.8 
L 607.303311 172.8 
L 608.280795 172.8 
L 609.258278 172.8 
L 610.235762 172.8 
L 611.213245 172.8 
L 612.190728 172.8 
L 613.168212 172.8 
L 614.145695 172.8 
L 615.123179 172.8 
L 616.100662 172.8 
L 617.078146 172.8 
L 618.055629 172.8 
L 619.033113 172.8 
L 620.010596 172.8 
L 620.988079 172.8 
L 621.965563 172.8 
L 622.943046 172.8 
L 623.92053 172.8 
L 624.898013 172.8 
L 625.875497 172.8 
L 626.85298 172.8 
L 627.830464 172.8 
L 628.807947 172.8 
L 629.78543 172.8 
L 630.762914 172.8 
L 631.740397 172.8 
L 632.717881 172.8 
L 633.695364 172.8 
L 634.672848 172.8 
L 635.650331 172.8 
L 636.627815 172.8 
L 637.605298 172.8 
L 638.582781 172.8 
L 639.560265 172.8 
L 640.537748 172.8 
L 641.515232 172.8 
L 642.492715 172.8 
L 643.470199 172.8 
L 644.447682 172.8 
L 645.425166 172.8 
L 646.402649 172.8 
L 646.402649 172.8 
L 646.402649 123.645207 
L 645.425166 111.818164 
L 644.447682 131.138872 
L 643.470199 147.291477 
L 642.492715 138.574108 
L 641.515232 129.010713 
L 640.537748 145.746473 
L 639.560265 144.975677 
L 638.582781 138.343168 
L 637.605298 144.825335 
L 636.627815 145.500872 
L 635.650331 142.898979 
L 634.672848 141.300952 
L 633.695364 157.463351 
L 632.717881 152.384637 
L 631.740397 151.494358 
L 630.762914 139.339275 
L 629.78543 162.910345 
L 628.807947 163.84871 
L 627.830464 164.710459 
L 626.85298 160.735574 
L 625.875497 160.942005 
L 624.898013 165.492137 
L 623.92053 165.526276 
L 622.943046 164.881366 
L 621.965563 165.767747 
L 620.988079 161.531659 
L 620.010596 159.168248 
L 619.033113 158.010865 
L 618.055629 159.725281 
L 617.078146 159.67445 
L 616.100662 156.159128 
L 615.123179 158.942779 
L 614.145695 159.600245 
L 613.168212 158.557057 
L 612.190728 154.614238 
L 611.213245 156.040338 
L 610.235762 154.075736 
L 609.258278 155.497653 
L 608.280795 152.587899 
L 607.303311 159.071893 
L 606.325828 158.314133 
L 605.348344 156.48511 
L 604.370861 151.198208 
L 603.393377 156.308147 
L 602.415894 140.121152 
L 601.438411 143.77803 
L 600.460927 153.051534 
L 599.483444 154.038195 
L 598.50596 113.673352 
L 597.528477 126.552328 
L 596.550993 86.555518 
L 595.57351 91.367181 
L 594.596026 105.362619 
L 593.618543 110.946525 
L 592.64106 112.114865 
L 591.663576 67.483907 
L 590.686093 109.565735 
L 589.708609 99.673739 
L 588.731126 118.011793 
L 587.753642 133.57501 
L 586.776159 96.914461 
L 585.798675 102.426591 
L 584.821192 117.063487 
L 583.843709 103.97465 
L 582.866225 128.231253 
L 581.888742 120.401284 
L 580.911258 133.881418 
L 579.933775 118.374431 
L 578.956291 118.544303 
L 577.978808 113.231311 
L 577.001325 94.393136 
L 576.023841 100.809521 
L 575.046358 116.982749 
L 574.068874 122.566281 
L 573.091391 117.939511 
L 572.113907 128.276341 
L 571.136424 124.907374 
L 570.15894 124.049843 
L 569.181457 99.893438 
L 568.203974 141.761223 
L 567.22649 150.067636 
L 566.249007 140.83913 
L 565.271523 131.634992 
L 564.29404 105.298774 
L 563.316556 96.246388 
L 562.339073 112.877385 
L 561.361589 117.094011 
L 560.384106 118.679378 
L 559.406623 128.586543 
L 558.429139 112.395215 
L 557.451656 129.273481 
L 556.474172 135.748475 
L 554.519205 69.624428 
L 553.541722 86.109646 
L 552.564238 115.620374 
L 551.586755 120.083676 
L 550.609272 107.106826 
L 549.631788 113.775038 
L 548.654305 131.657997 
L 547.676821 133.732477 
L 546.699338 152.113281 
L 545.721854 158.278977 
L 544.744371 154.895313 
L 543.766887 132.472614 
L 542.789404 165.203222 
L 541.811921 162.865835 
L 540.834437 165.044743 
L 539.856954 161.123898 
L 538.87947 157.473302 
L 537.901987 159.381456 
L 536.924503 149.038951 
L 535.94702 162.578342 
L 534.969536 166.706488 
L 533.992053 164.762485 
L 533.01457 163.466462 
L 532.037086 166.407872 
L 531.059603 160.647305 
L 530.082119 165.344461 
L 529.104636 166.932537 
L 527.149669 164.907603 
L 526.172185 166.048249 
L 525.194702 158.564879 
L 524.217219 165.651949 
L 523.239735 163.717187 
L 522.262252 152.601763 
L 520.307285 166.231205 
L 519.329801 158.369896 
L 518.352318 164.721914 
L 517.374834 165.454857 
L 516.397351 156.943142 
L 514.442384 154.317977 
L 513.464901 161.941118 
L 512.487417 153.307361 
L 511.509934 150.072912 
L 510.53245 155.840208 
L 509.554967 143.823819 
L 508.577483 159.958058 
L 507.6 157.182068 
L 506.622517 160.724095 
L 505.645033 150.87697 
L 504.66755 146.072729 
L 503.690066 147.623512 
L 502.712583 156.278739 
L 500.757616 160.980164 
L 499.780132 159.296363 
L 498.802649 144.976202 
L 497.825166 147.069025 
L 496.847682 142.240589 
L 495.870199 150.252303 
L 494.892715 158.486605 
L 493.915232 144.834087 
L 492.937748 135.026605 
L 491.960265 137.38719 
L 490.982781 140.76536 
L 490.005298 145.787135 
L 489.027815 108.75472 
L 488.050331 103.262195 
L 487.072848 115.853748 
L 486.095364 141.745611 
L 485.117881 127.974218 
L 484.140397 114.265223 
L 483.162914 139.502399 
L 482.18543 143.86213 
L 481.207947 158.802785 
L 480.230464 153.367031 
L 479.25298 115.730656 
L 478.275497 135.551623 
L 477.298013 140.781943 
L 476.32053 121.148949 
L 475.343046 133.51249 
L 474.365563 130.091271 
L 473.388079 135.880988 
L 472.410596 147.345678 
L 471.433113 147.358762 
L 470.455629 137.24546 
L 469.478146 138.463304 
L 468.500662 127.871107 
L 467.523179 109.999958 
L 466.545695 143.626176 
L 465.568212 145.033573 
L 464.590728 148.298329 
L 463.613245 131.582982 
L 462.635762 142.220105 
L 461.658278 137.02193 
L 460.680795 100.001389 
L 459.703311 134.666472 
L 458.725828 148.856331 
L 457.748344 123.085239 
L 456.770861 123.28907 
L 455.793377 134.702381 
L 454.815894 144.519171 
L 453.838411 142.299816 
L 452.860927 137.706486 
L 451.883444 136.594829 
L 450.90596 146.560702 
L 449.928477 138.886122 
L 448.950993 139.429368 
L 447.97351 132.664801 
L 446.996026 141.618189 
L 446.018543 122.583908 
L 445.04106 144.576796 
L 444.063576 133.39536 
L 443.086093 137.273546 
L 442.108609 137.452636 
L 441.131126 94.154458 
L 440.153642 149.836529 
L 439.176159 146.658218 
L 438.198675 144.203056 
L 437.221192 153.593223 
L 436.243709 131.990137 
L 435.266225 150.482938 
L 434.288742 146.062586 
L 433.311258 138.270488 
L 432.333775 140.474265 
L 431.356291 136.173656 
L 430.378808 145.561687 
L 429.401325 145.824076 
L 428.423841 134.917762 
L 427.446358 136.10468 
L 426.468874 135.503673 
L 425.491391 143.411853 
L 424.513907 140.431129 
L 423.536424 149.631861 
L 422.55894 144.98062 
L 421.581457 152.134886 
L 420.603974 152.822361 
L 419.62649 107.094418 
L 418.649007 150.107848 
L 417.671523 155.110677 
L 416.69404 147.417759 
L 415.716556 134.378867 
L 414.739073 123.736455 
L 413.761589 94.452958 
L 412.784106 122.0091 
L 411.806623 119.619901 
L 410.829139 121.188992 
L 409.851656 136.746587 
L 408.874172 126.434458 
L 407.896689 98.953439 
L 406.919205 132.435553 
L 405.941722 143.631971 
L 404.964238 133.624532 
L 403.986755 131.986882 
L 403.009272 145.900622 
L 402.031788 103.401322 
L 401.054305 140.75296 
L 400.076821 156.623471 
L 399.099338 115.693219 
L 398.121854 152.467855 
L 397.144371 136.724815 
L 396.166887 127.879979 
L 395.189404 110.949963 
L 394.211921 138.956921 
L 393.234437 141.070653 
L 392.256954 129.142211 
L 391.27947 15.68914 
L 390.301987 112.51842 
L 389.324503 118.917676 
L 388.34702 122.464196 
L 387.369536 116.446134 
L 386.392053 123.321189 
L 385.41457 128.227239 
L 384.437086 120.804251 
L 383.459603 114.072448 
L 382.482119 119.903631 
L 381.504636 70.994588 
L 380.527152 126.808108 
L 379.549669 95.85818 
L 378.572185 119.417674 
L 377.594702 118.310906 
L 376.617219 138.198319 
L 375.639735 118.67097 
L 374.662252 100.435639 
L 373.684768 102.553918 
L 372.707285 139.020643 
L 371.729801 143.226033 
L 370.752318 134.632717 
L 369.774834 94.712797 
L 368.797351 141.289227 
L 367.819868 136.549214 
L 366.842384 128.651341 
L 365.864901 142.366857 
L 364.887417 142.144416 
L 363.909934 148.582004 
L 361.954967 150.301365 
L 360.977483 124.130686 
L 360 148.463833 
L 359.022517 109.279355 
L 358.045033 137.513423 
L 357.06755 110.618042 
L 356.090066 157.079793 
L 355.112583 83.438853 
L 354.135099 111.983864 
L 353.157616 73.10336 
L 352.180132 133.429774 
L 351.202649 141.10212 
L 350.225166 126.848849 
L 349.247682 131.986563 
L 348.270199 120.910009 
L 347.292715 111.682893 
L 346.315232 98.98178 
L 345.337748 126.490178 
L 344.360265 127.43779 
L 343.382781 134.07015 
L 342.405298 144.533651 
L 341.427815 131.680919 
L 340.450331 150.393064 
L 339.472848 145.27843 
L 338.495364 139.303238 
L 337.517881 155.751244 
L 336.540397 154.233432 
L 335.562914 134.665619 
L 334.58543 150.453264 
L 333.607947 133.212145 
L 332.630464 112.441861 
L 331.65298 145.385705 
L 330.675497 149.906995 
L 329.698013 140.872824 
L 328.72053 154.75904 
L 327.743046 158.325885 
L 326.765563 122.986544 
L 325.788079 151.408339 
L 324.810596 133.081133 
L 323.833113 150.505208 
L 322.855629 140.557451 
L 321.878146 148.638725 
L 320.900662 150.043084 
L 319.923179 135.317896 
L 318.945695 130.896421 
L 317.968212 44.19538 
L 316.990728 48.314342 
L 316.013245 38.960058 
L 315.035762 120.178486 
L 314.058278 127.942063 
L 313.080795 127.312334 
L 312.103311 112.150758 
L 311.125828 55.100585 
L 310.148344 90.109583 
L 309.170861 105.917867 
L 308.193377 118.046992 
L 307.215894 144.181423 
L 306.238411 133.659635 
L 305.260927 131.180353 
L 304.283444 77.76794 
L 303.30596 62.971903 
L 302.328477 124.882684 
L 301.350993 89.662709 
L 300.37351 10.998957 
L 299.396026 42.325429 
L 298.418543 119.37907 
L 297.44106 60.147282 
L 296.463576 113.670515 
L 295.486093 114.579916 
L 294.508609 139.850924 
L 293.531126 -22.688593 
L 292.553642 97.161934 
L 291.576159 124.685875 
L 290.598675 92.778764 
L 289.621192 116.281461 
L 288.643709 84.918185 
L 287.666225 138.007466 
L 286.688742 124.430258 
L 285.711258 136.678603 
L 284.733775 136.124372 
L 283.756291 61.256752 
L 282.778808 63.073683 
L 281.801325 104.374328 
L 280.823841 107.505785 
L 279.846358 105.39117 
L 278.868874 115.175898 
L 277.891391 115.176844 
L 276.913907 138.169566 
L 275.936424 127.208149 
L 274.95894 137.472289 
L 273.981457 130.374689 
L 273.003974 149.408029 
L 272.02649 142.902446 
L 271.049007 135.045965 
L 270.071523 130.120766 
L 269.09404 139.469932 
L 268.116556 162.340975 
L 267.139073 153.624372 
L 266.161589 156.720253 
L 265.184106 153.243879 
L 264.206623 162.158375 
L 263.229139 154.781233 
L 262.251656 158.549592 
L 261.274172 161.632101 
L 260.296689 159.761953 
L 259.319205 160.107711 
L 258.341722 165.527412 
L 257.364238 154.794115 
L 256.386755 163.750219 
L 255.409272 165.2287 
L 254.431788 164.821544 
L 253.454305 161.646779 
L 252.476821 159.606196 
L 251.499338 162.994352 
L 250.521854 161.883705 
L 249.544371 149.381088 
L 248.566887 164.428987 
L 247.589404 159.888726 
L 246.611921 166.563039 
L 245.634437 166.534956 
L 244.656954 167.354906 
L 243.67947 165.740164 
L 242.701987 165.395173 
L 241.724503 164.825302 
L 240.74702 161.830637 
L 239.769536 168.346235 
L 238.792053 164.500286 
L 237.81457 163.345375 
L 236.837086 160.25679 
L 235.859603 147.864797 
L 234.882119 157.254084 
L 233.904636 159.035512 
L 232.927152 159.196279 
L 231.949669 165.409017 
L 230.972185 155.121236 
L 229.994702 158.398205 
L 229.017219 163.285903 
L 228.039735 163.806139 
L 227.062252 142.402059 
L 226.084768 152.048592 
L 225.107285 166.735444 
L 224.129801 156.342563 
L 223.152318 161.919325 
L 222.174834 159.86404 
L 220.219868 167.582633 
L 219.242384 170.608903 
L 218.264901 167.929001 
L 217.287417 156.555167 
L 216.309934 133.564508 
L 215.33245 135.992416 
L 214.354967 163.81682 
L 213.377483 162.799855 
L 212.4 166.723629 
L 211.422517 158.481092 
L 210.445033 165.012991 
L 209.46755 153.975685 
L 208.490066 158.265335 
L 207.512583 142.900343 
L 206.535099 166.826596 
L 205.557616 150.345553 
L 204.580132 169.497674 
L 203.602649 143.506905 
L 202.625166 167.883728 
L 201.647682 164.754609 
L 200.670199 169.502519 
L 198.715232 163.177544 
L 196.760265 169.337268 
L 195.782781 168.942674 
L 190.895364 165.412106 
L 189.917881 168.689792 
L 188.940397 167.50154 
L 185.030464 166.851581 
L 183.075497 172.116684 
L 182.098013 168.718239 
L 181.12053 166.636881 
L 180.143046 164.008619 
L 176.233113 169.955907 
L 175.255629 171.573335 
L 174.278146 167.091582 
L 170.368212 169.716459 
L 169.390728 167.099412 
L 168.413245 169.626374 
L 167.435762 164.571721 
L 164.503311 162.565527 
L 163.525828 166.791262 
L 162.548344 168.882955 
L 161.570861 166.818012 
L 160.593377 171.120596 
L 159.615894 171.433588 
L 158.638411 166.078253 
L 157.660927 162.127068 
L 156.683444 163.34801 
L 155.70596 162.074622 
L 154.728477 160.42577 
L 151.796026 171.558047 
L 150.818543 171.453746 
L 149.84106 148.37656 
L 148.863576 165.654567 
L 147.886093 165.270275 
L 146.908609 152.138744 
L 145.931126 171.059039 
L 144.953642 165.212548 
L 143.976159 151.928567 
L 142.998675 170.630847 
L 142.021192 163.842436 
L 141.043709 166.665581 
L 140.066225 165.107521 
L 139.088742 171.311531 
L 138.111258 166.334267 
L 136.156291 168.424196 
L 135.178808 169.840436 
L 134.201325 165.242075 
L 133.223841 164.105759 
L 132.246358 167.329548 
L 130.291391 158.454184 
L 129.313907 164.529101 
L 128.336424 161.97235 
L 126.381457 163.500264 
L 124.42649 169.278365 
L 123.449007 164.882408 
L 122.471523 163.086795 
L 121.49404 157.206963 
L 120.516556 159.025131 
L 119.539073 166.781834 
L 116.606623 75.409234 
L 115.629139 150.171596 
L 114.651656 165.826859 
L 113.674172 164.679645 
L 112.696689 163.82511 
L 110.741722 171.94407 
L 109.764238 158.326398 
L 108.786755 155.862477 
L 107.809272 165.54048 
L 106.831788 128.572481 
L 103.899338 149.722086 
L 102.921854 119.760025 
L 101.944371 125.072419 
L 100.966887 143.832365 
L 99.989404 101.506725 
L 99.011921 106.895652 
L 96.07947 110.557719 
L 95.101987 125.090338 
L 94.124503 146.064542 
L 93.14702 116.734235 
z
" style="fill:#008000;fill-opacity:0.3;"/>
   </g>
   <g id="matplotlib.axis_1">
    <g id="xtick_1">
     <g id="line2d_1">
      <path clip-path="url(#pbab4149906)" d="M 64.8 172.8 
L 64.8 25.92 
" style="fill:none;stroke:#808080;stroke-dasharray:6.4,1.6,1,1.6;stroke-dashoffset:0;stroke-opacity:0.3;"/>
     </g>
     <g id="line2d_2">
      <defs>
       <path d="M 0 0 
L 0 3.5 
" id="mc8ed68f0c5" style="stroke:#000000;stroke-width:0.8;"/>
      </defs>
      <g>
       <use style="stroke:#000000;stroke-width:0.8;" x="64.8" xlink:href="#mc8ed68f0c5" y="172.8"/>
      </g>
     </g>
     <g id="text_1">
      <!-- 2020-03 -->
      <g transform="translate(43.908594 187.398438)scale(0.1 -0.1)">
       <defs>
        <path d="M 19.1875 8.296875 
L 53.609375 8.296875 
L 53.609375 0 
L 7.328125 0 
L 7.328125 8.296875 
Q 12.9375 14.109375 22.625 23.890625 
Q 32.328125 33.6875 34.8125 36.53125 
Q 39.546875 41.84375 41.421875 45.53125 
Q 43.3125 49.21875 43.3125 52.78125 
Q 43.3125 58.59375 39.234375 62.25 
Q 35.15625 65.921875 28.609375 65.921875 
Q 23.96875 65.921875 18.8125 64.3125 
Q 13.671875 62.703125 7.8125 59.421875 
L 7.8125 69.390625 
Q 13.765625 71.78125 18.9375 73 
Q 24.125 74.21875 28.421875 74.21875 
Q 39.75 74.21875 46.484375 68.546875 
Q 53.21875 62.890625 53.21875 53.421875 
Q 53.21875 48.921875 51.53125 44.890625 
Q 49.859375 40.875 45.40625 35.40625 
Q 44.1875 33.984375 37.640625 27.21875 
Q 31.109375 20.453125 19.1875 8.296875 
z
" id="DejaVuSans-50"/>
        <path d="M 31.78125 66.40625 
Q 24.171875 66.40625 20.328125 58.90625 
Q 16.5 51.421875 16.5 36.375 
Q 16.5 21.390625 20.328125 13.890625 
Q 24.171875 6.390625 31.78125 6.390625 
Q 39.453125 6.390625 43.28125 13.890625 
Q 47.125 21.390625 47.125 36.375 
Q 47.125 51.421875 43.28125 58.90625 
Q 39.453125 66.40625 31.78125 66.40625 
z
M 31.78125 74.21875 
Q 44.046875 74.21875 50.515625 64.515625 
Q 56.984375 54.828125 56.984375 36.375 
Q 56.984375 17.96875 50.515625 8.265625 
Q 44.046875 -1.421875 31.78125 -1.421875 
Q 19.53125 -1.421875 13.0625 8.265625 
Q 6.59375 17.96875 6.59375 36.375 
Q 6.59375 54.828125 13.0625 64.515625 
Q 19.53125 74.21875 31.78125 74.21875 
z
" id="DejaVuSans-48"/>
        <path d="M 4.890625 31.390625 
L 31.203125 31.390625 
L 31.203125 23.390625 
L 4.890625 23.390625 
z
" id="DejaVuSans-45"/>
        <path d="M 40.578125 39.3125 
Q 47.65625 37.796875 51.625 33 
Q 55.609375 28.21875 55.609375 21.1875 
Q 55.609375 10.40625 48.1875 4.484375 
Q 40.765625 -1.421875 27.09375 -1.421875 
Q 22.515625 -1.421875 17.65625 -0.515625 
Q 12.796875 0.390625 7.625 2.203125 
L 7.625 11.71875 
Q 11.71875 9.328125 16.59375 8.109375 
Q 21.484375 6.890625 26.8125 6.890625 
Q 36.078125 6.890625 40.9375 10.546875 
Q 45.796875 14.203125 45.796875 21.1875 
Q 45.796875 27.640625 41.28125 31.265625 
Q 36.765625 34.90625 28.71875 34.90625 
L 20.21875 34.90625 
L 20.21875 43.015625 
L 29.109375 43.015625 
Q 36.375 43.015625 40.234375 45.921875 
Q 44.09375 48.828125 44.09375 54.296875 
Q 44.09375 59.90625 40.109375 62.90625 
Q 36.140625 65.921875 28.71875 65.921875 
Q 24.65625 65.921875 20.015625 65.03125 
Q 15.375 64.15625 9.8125 62.3125 
L 9.8125 71.09375 
Q 15.4375 72.65625 20.34375 73.4375 
Q 25.25 74.21875 29.59375 74.21875 
Q 40.828125 74.21875 47.359375 69.109375 
Q 53.90625 64.015625 53.90625 55.328125 
Q 53.90625 49.265625 50.4375 45.09375 
Q 46.96875 40.921875 40.578125 39.3125 
z
" id="DejaVuSans-51"/>
       </defs>
       <use xlink:href="#DejaVuSans-50"/>
       <use x="63.623047" xlink:href="#DejaVuSans-48"/>
       <use x="127.246094" xlink:href="#DejaVuSans-50"/>
       <use x="190.869141" xlink:href="#DejaVuSans-48"/>
       <use x="254.492188" xlink:href="#DejaVuSans-45"/>
       <use x="290.576172" xlink:href="#DejaVuSans-48"/>
       <use x="354.199219" xlink:href="#DejaVuSans-51"/>
      </g>
     </g>
    </g>
    <g id="xtick_2">
     <g id="line2d_3">
      <path clip-path="url(#pbab4149906)" d="M 124.42649 172.8 
L 124.42649 25.92 
" style="fill:none;stroke:#808080;stroke-dasharray:6.4,1.6,1,1.6;stroke-dashoffset:0;stroke-opacity:0.3;"/>
     </g>
     <g id="line2d_4">
      <g>
       <use style="stroke:#000000;stroke-width:0.8;" x="124.42649" xlink:href="#mc8ed68f0c5" y="172.8"/>
      </g>
     </g>
     <g id="text_2">
      <!-- 2020-05 -->
      <g transform="translate(103.535084 187.398438)scale(0.1 -0.1)">
       <defs>
        <path d="M 10.796875 72.90625 
L 49.515625 72.90625 
L 49.515625 64.59375 
L 19.828125 64.59375 
L 19.828125 46.734375 
Q 21.96875 47.46875 24.109375 47.828125 
Q 26.265625 48.1875 28.421875 48.1875 
Q 40.625 48.1875 47.75 41.5 
Q 54.890625 34.8125 54.890625 23.390625 
Q 54.890625 11.625 47.5625 5.09375 
Q 40.234375 -1.421875 26.90625 -1.421875 
Q 22.3125 -1.421875 17.546875 -0.640625 
Q 12.796875 0.140625 7.71875 1.703125 
L 7.71875 11.625 
Q 12.109375 9.234375 16.796875 8.0625 
Q 21.484375 6.890625 26.703125 6.890625 
Q 35.15625 6.890625 40.078125 11.328125 
Q 45.015625 15.765625 45.015625 23.390625 
Q 45.015625 31 40.078125 35.4375 
Q 35.15625 39.890625 26.703125 39.890625 
Q 22.75 39.890625 18.8125 39.015625 
Q 14.890625 38.140625 10.796875 36.28125 
z
" id="DejaVuSans-53"/>
       </defs>
       <use xlink:href="#DejaVuSans-50"/>
       <use x="63.623047" xlink:href="#DejaVuSans-48"/>
       <use x="127.246094" xlink:href="#DejaVuSans-50"/>
       <use x="190.869141" xlink:href="#DejaVuSans-48"/>
       <use x="254.492188" xlink:href="#DejaVuSans-45"/>
       <use x="290.576172" xlink:href="#DejaVuSans-48"/>
       <use x="354.199219" xlink:href="#DejaVuSans-53"/>
      </g>
     </g>
    </g>
    <g id="xtick_3">
     <g id="line2d_5">
      <path clip-path="url(#pbab4149906)" d="M 184.05298 172.8 
L 184.05298 25.92 
" style="fill:none;stroke:#808080;stroke-dasharray:6.4,1.6,1,1.6;stroke-dashoffset:0;stroke-opacity:0.3;"/>
     </g>
     <g id="line2d_6">
      <g>
       <use style="stroke:#000000;stroke-width:0.8;" x="184.05298" xlink:href="#mc8ed68f0c5" y="172.8"/>
      </g>
     </g>
     <g id="text_3">
      <!-- 2020-07 -->
      <g transform="translate(163.161574 187.398438)scale(0.1 -0.1)">
       <defs>
        <path d="M 8.203125 72.90625 
L 55.078125 72.90625 
L 55.078125 68.703125 
L 28.609375 0 
L 18.3125 0 
L 43.21875 64.59375 
L 8.203125 64.59375 
z
" id="DejaVuSans-55"/>
       </defs>
       <use xlink:href="#DejaVuSans-50"/>
       <use x="63.623047" xlink:href="#DejaVuSans-48"/>
       <use x="127.246094" xlink:href="#DejaVuSans-50"/>
       <use x="190.869141" xlink:href="#DejaVuSans-48"/>
       <use x="254.492188" xlink:href="#DejaVuSans-45"/>
       <use x="290.576172" xlink:href="#DejaVuSans-48"/>
       <use x="354.199219" xlink:href="#DejaVuSans-55"/>
      </g>
     </g>
    </g>
    <g id="xtick_4">
     <g id="line2d_7">
      <path clip-path="url(#pbab4149906)" d="M 244.656954 172.8 
L 244.656954 25.92 
" style="fill:none;stroke:#808080;stroke-dasharray:6.4,1.6,1,1.6;stroke-dashoffset:0;stroke-opacity:0.3;"/>
     </g>
     <g id="line2d_8">
      <g>
       <use style="stroke:#000000;stroke-width:0.8;" x="244.656954" xlink:href="#mc8ed68f0c5" y="172.8"/>
      </g>
     </g>
     <g id="text_4">
      <!-- 2020-09 -->
      <g transform="translate(223.765547 187.398438)scale(0.1 -0.1)">
       <defs>
        <path d="M 10.984375 1.515625 
L 10.984375 10.5 
Q 14.703125 8.734375 18.5 7.8125 
Q 22.3125 6.890625 25.984375 6.890625 
Q 35.75 6.890625 40.890625 13.453125 
Q 46.046875 20.015625 46.78125 33.40625 
Q 43.953125 29.203125 39.59375 26.953125 
Q 35.25 24.703125 29.984375 24.703125 
Q 19.046875 24.703125 12.671875 31.3125 
Q 6.296875 37.9375 6.296875 49.421875 
Q 6.296875 60.640625 12.9375 67.421875 
Q 19.578125 74.21875 30.609375 74.21875 
Q 43.265625 74.21875 49.921875 64.515625 
Q 56.59375 54.828125 56.59375 36.375 
Q 56.59375 19.140625 48.40625 8.859375 
Q 40.234375 -1.421875 26.421875 -1.421875 
Q 22.703125 -1.421875 18.890625 -0.6875 
Q 15.09375 0.046875 10.984375 1.515625 
z
M 30.609375 32.421875 
Q 37.25 32.421875 41.125 36.953125 
Q 45.015625 41.5 45.015625 49.421875 
Q 45.015625 57.28125 41.125 61.84375 
Q 37.25 66.40625 30.609375 66.40625 
Q 23.96875 66.40625 20.09375 61.84375 
Q 16.21875 57.28125 16.21875 49.421875 
Q 16.21875 41.5 20.09375 36.953125 
Q 23.96875 32.421875 30.609375 32.421875 
z
" id="DejaVuSans-57"/>
       </defs>
       <use xlink:href="#DejaVuSans-50"/>
       <use x="63.623047" xlink:href="#DejaVuSans-48"/>
       <use x="127.246094" xlink:href="#DejaVuSans-50"/>
       <use x="190.869141" xlink:href="#DejaVuSans-48"/>
       <use x="254.492188" xlink:href="#DejaVuSans-45"/>
       <use x="290.576172" xlink:href="#DejaVuSans-48"/>
       <use x="354.199219" xlink:href="#DejaVuSans-57"/>
      </g>
     </g>
    </g>
    <g id="xtick_5">
     <g id="line2d_9">
      <path clip-path="url(#pbab4149906)" d="M 304.283444 172.8 
L 304.283444 25.92 
" style="fill:none;stroke:#808080;stroke-dasharray:6.4,1.6,1,1.6;stroke-dashoffset:0;stroke-opacity:0.3;"/>
     </g>
     <g id="line2d_10">
      <g>
       <use style="stroke:#000000;stroke-width:0.8;" x="304.283444" xlink:href="#mc8ed68f0c5" y="172.8"/>
      </g>
     </g>
     <g id="text_5">
      <!-- 2020-11 -->
      <g transform="translate(283.392037 187.398438)scale(0.1 -0.1)">
       <defs>
        <path d="M 12.40625 8.296875 
L 28.515625 8.296875 
L 28.515625 63.921875 
L 10.984375 60.40625 
L 10.984375 69.390625 
L 28.421875 72.90625 
L 38.28125 72.90625 
L 38.28125 8.296875 
L 54.390625 8.296875 
L 54.390625 0 
L 12.40625 0 
z
" id="DejaVuSans-49"/>
       </defs>
       <use xlink:href="#DejaVuSans-50"/>
       <use x="63.623047" xlink:href="#DejaVuSans-48"/>
       <use x="127.246094" xlink:href="#DejaVuSans-50"/>
       <use x="190.869141" xlink:href="#DejaVuSans-48"/>
       <use x="254.492188" xlink:href="#DejaVuSans-45"/>
       <use x="290.576172" xlink:href="#DejaVuSans-49"/>
       <use x="354.199219" xlink:href="#DejaVuSans-49"/>
      </g>
     </g>
    </g>
    <g id="xtick_6">
     <g id="line2d_11">
      <path clip-path="url(#pbab4149906)" d="M 363.909934 172.8 
L 363.909934 25.92 
" style="fill:none;stroke:#808080;stroke-dasharray:6.4,1.6,1,1.6;stroke-dashoffset:0;stroke-opacity:0.3;"/>
     </g>
     <g id="line2d_12">
      <g>
       <use style="stroke:#000000;stroke-width:0.8;" x="363.909934" xlink:href="#mc8ed68f0c5" y="172.8"/>
      </g>
     </g>
     <g id="text_6">
      <!-- 2021-01 -->
      <g transform="translate(343.018528 187.398438)scale(0.1 -0.1)">
       <use xlink:href="#DejaVuSans-50"/>
       <use x="63.623047" xlink:href="#DejaVuSans-48"/>
       <use x="127.246094" xlink:href="#DejaVuSans-50"/>
       <use x="190.869141" xlink:href="#DejaVuSans-49"/>
       <use x="254.492188" xlink:href="#DejaVuSans-45"/>
       <use x="290.576172" xlink:href="#DejaVuSans-48"/>
       <use x="354.199219" xlink:href="#DejaVuSans-49"/>
      </g>
     </g>
    </g>
    <g id="xtick_7">
     <g id="line2d_13">
      <path clip-path="url(#pbab4149906)" d="M 421.581457 172.8 
L 421.581457 25.92 
" style="fill:none;stroke:#808080;stroke-dasharray:6.4,1.6,1,1.6;stroke-dashoffset:0;stroke-opacity:0.3;"/>
     </g>
     <g id="line2d_14">
      <g>
       <use style="stroke:#000000;stroke-width:0.8;" x="421.581457" xlink:href="#mc8ed68f0c5" y="172.8"/>
      </g>
     </g>
     <g id="text_7">
      <!-- 2021-03 -->
      <g transform="translate(400.690051 187.398438)scale(0.1 -0.1)">
       <use xlink:href="#DejaVuSans-50"/>
       <use x="63.623047" xlink:href="#DejaVuSans-48"/>
       <use x="127.246094" xlink:href="#DejaVuSans-50"/>
       <use x="190.869141" xlink:href="#DejaVuSans-49"/>
       <use x="254.492188" xlink:href="#DejaVuSans-45"/>
       <use x="290.576172" xlink:href="#DejaVuSans-48"/>
       <use x="354.199219" xlink:href="#DejaVuSans-51"/>
      </g>
     </g>
    </g>
    <g id="xtick_8">
     <g id="line2d_15">
      <path clip-path="url(#pbab4149906)" d="M 481.207947 172.8 
L 481.207947 25.92 
" style="fill:none;stroke:#808080;stroke-dasharray:6.4,1.6,1,1.6;stroke-dashoffset:0;stroke-opacity:0.3;"/>
     </g>
     <g id="line2d_16">
      <g>
       <use style="stroke:#000000;stroke-width:0.8;" x="481.207947" xlink:href="#mc8ed68f0c5" y="172.8"/>
      </g>
     </g>
     <g id="text_8">
      <!-- 2021-05 -->
      <g transform="translate(460.316541 187.398438)scale(0.1 -0.1)">
       <use xlink:href="#DejaVuSans-50"/>
       <use x="63.623047" xlink:href="#DejaVuSans-48"/>
       <use x="127.246094" xlink:href="#DejaVuSans-50"/>
       <use x="190.869141" xlink:href="#DejaVuSans-49"/>
       <use x="254.492188" xlink:href="#DejaVuSans-45"/>
       <use x="290.576172" xlink:href="#DejaVuSans-48"/>
       <use x="354.199219" xlink:href="#DejaVuSans-53"/>
      </g>
     </g>
    </g>
    <g id="xtick_9">
     <g id="line2d_17">
      <path clip-path="url(#pbab4149906)" d="M 540.834437 172.8 
L 540.834437 25.92 
" style="fill:none;stroke:#808080;stroke-dasharray:6.4,1.6,1,1.6;stroke-dashoffset:0;stroke-opacity:0.3;"/>
     </g>
     <g id="line2d_18">
      <g>
       <use style="stroke:#000000;stroke-width:0.8;" x="540.834437" xlink:href="#mc8ed68f0c5" y="172.8"/>
      </g>
     </g>
     <g id="text_9">
      <!-- 2021-07 -->
      <g transform="translate(519.943031 187.398438)scale(0.1 -0.1)">
       <use xlink:href="#DejaVuSans-50"/>
       <use x="63.623047" xlink:href="#DejaVuSans-48"/>
       <use x="127.246094" xlink:href="#DejaVuSans-50"/>
       <use x="190.869141" xlink:href="#DejaVuSans-49"/>
       <use x="254.492188" xlink:href="#DejaVuSans-45"/>
       <use x="290.576172" xlink:href="#DejaVuSans-48"/>
       <use x="354.199219" xlink:href="#DejaVuSans-55"/>
      </g>
     </g>
    </g>
    <g id="xtick_10">
     <g id="line2d_19">
      <path clip-path="url(#pbab4149906)" d="M 601.438411 172.8 
L 601.438411 25.92 
" style="fill:none;stroke:#808080;stroke-dasharray:6.4,1.6,1,1.6;stroke-dashoffset:0;stroke-opacity:0.3;"/>
     </g>
     <g id="line2d_20">
      <g>
       <use style="stroke:#000000;stroke-width:0.8;" x="601.438411" xlink:href="#mc8ed68f0c5" y="172.8"/>
      </g>
     </g>
     <g id="text_10">
      <!-- 2021-09 -->
      <g transform="translate(580.547004 187.398438)scale(0.1 -0.1)">
       <use xlink:href="#DejaVuSans-50"/>
       <use x="63.623047" xlink:href="#DejaVuSans-48"/>
       <use x="127.246094" xlink:href="#DejaVuSans-50"/>
       <use x="190.869141" xlink:href="#DejaVuSans-49"/>
       <use x="254.492188" xlink:href="#DejaVuSans-45"/>
       <use x="290.576172" xlink:href="#DejaVuSans-48"/>
       <use x="354.199219" xlink:href="#DejaVuSans-57"/>
      </g>
     </g>
    </g>
    <g id="text_11">
     <!-- Datum -->
     <g transform="translate(343.086719 201.076562)scale(0.1 -0.1)">
      <defs>
       <path d="M 19.671875 64.796875 
L 19.671875 8.109375 
L 31.59375 8.109375 
Q 46.6875 8.109375 53.6875 14.9375 
Q 60.6875 21.78125 60.6875 36.53125 
Q 60.6875 51.171875 53.6875 57.984375 
Q 46.6875 64.796875 31.59375 64.796875 
z
M 9.8125 72.90625 
L 30.078125 72.90625 
Q 51.265625 72.90625 61.171875 64.09375 
Q 71.09375 55.28125 71.09375 36.53125 
Q 71.09375 17.671875 61.125 8.828125 
Q 51.171875 0 30.078125 0 
L 9.8125 0 
z
" id="DejaVuSans-68"/>
       <path d="M 34.28125 27.484375 
Q 23.390625 27.484375 19.1875 25 
Q 14.984375 22.515625 14.984375 16.5 
Q 14.984375 11.71875 18.140625 8.90625 
Q 21.296875 6.109375 26.703125 6.109375 
Q 34.1875 6.109375 38.703125 11.40625 
Q 43.21875 16.703125 43.21875 25.484375 
L 43.21875 27.484375 
z
M 52.203125 31.203125 
L 52.203125 0 
L 43.21875 0 
L 43.21875 8.296875 
Q 40.140625 3.328125 35.546875 0.953125 
Q 30.953125 -1.421875 24.3125 -1.421875 
Q 15.921875 -1.421875 10.953125 3.296875 
Q 6 8.015625 6 15.921875 
Q 6 25.140625 12.171875 29.828125 
Q 18.359375 34.515625 30.609375 34.515625 
L 43.21875 34.515625 
L 43.21875 35.40625 
Q 43.21875 41.609375 39.140625 45 
Q 35.0625 48.390625 27.6875 48.390625 
Q 23 48.390625 18.546875 47.265625 
Q 14.109375 46.140625 10.015625 43.890625 
L 10.015625 52.203125 
Q 14.9375 54.109375 19.578125 55.046875 
Q 24.21875 56 28.609375 56 
Q 40.484375 56 46.34375 49.84375 
Q 52.203125 43.703125 52.203125 31.203125 
z
" id="DejaVuSans-97"/>
       <path d="M 18.3125 70.21875 
L 18.3125 54.6875 
L 36.8125 54.6875 
L 36.8125 47.703125 
L 18.3125 47.703125 
L 18.3125 18.015625 
Q 18.3125 11.328125 20.140625 9.421875 
Q 21.96875 7.515625 27.59375 7.515625 
L 36.8125 7.515625 
L 36.8125 0 
L 27.59375 0 
Q 17.1875 0 13.234375 3.875 
Q 9.28125 7.765625 9.28125 18.015625 
L 9.28125 47.703125 
L 2.6875 47.703125 
L 2.6875 54.6875 
L 9.28125 54.6875 
L 9.28125 70.21875 
z
" id="DejaVuSans-116"/>
       <path d="M 8.5 21.578125 
L 8.5 54.6875 
L 17.484375 54.6875 
L 17.484375 21.921875 
Q 17.484375 14.15625 20.5 10.265625 
Q 23.53125 6.390625 29.59375 6.390625 
Q 36.859375 6.390625 41.078125 11.03125 
Q 45.3125 15.671875 45.3125 23.6875 
L 45.3125 54.6875 
L 54.296875 54.6875 
L 54.296875 0 
L 45.3125 0 
L 45.3125 8.40625 
Q 42.046875 3.421875 37.71875 1 
Q 33.40625 -1.421875 27.6875 -1.421875 
Q 18.265625 -1.421875 13.375 4.4375 
Q 8.5 10.296875 8.5 21.578125 
z
M 31.109375 56 
z
" id="DejaVuSans-117"/>
       <path d="M 52 44.1875 
Q 55.375 50.25 60.0625 53.125 
Q 64.75 56 71.09375 56 
Q 79.640625 56 84.28125 50.015625 
Q 88.921875 44.046875 88.921875 33.015625 
L 88.921875 0 
L 79.890625 0 
L 79.890625 32.71875 
Q 79.890625 40.578125 77.09375 44.375 
Q 74.3125 48.1875 68.609375 48.1875 
Q 61.625 48.1875 57.5625 43.546875 
Q 53.515625 38.921875 53.515625 30.90625 
L 53.515625 0 
L 44.484375 0 
L 44.484375 32.71875 
Q 44.484375 40.625 41.703125 44.40625 
Q 38.921875 48.1875 33.109375 48.1875 
Q 26.21875 48.1875 22.15625 43.53125 
Q 18.109375 38.875 18.109375 30.90625 
L 18.109375 0 
L 9.078125 0 
L 9.078125 54.6875 
L 18.109375 54.6875 
L 18.109375 46.1875 
Q 21.1875 51.21875 25.484375 53.609375 
Q 29.78125 56 35.6875 56 
Q 41.65625 56 45.828125 52.96875 
Q 50 49.953125 52 44.1875 
z
" id="DejaVuSans-109"/>
      </defs>
      <use xlink:href="#DejaVuSans-68"/>
      <use x="77.001953" xlink:href="#DejaVuSans-97"/>
      <use x="138.28125" xlink:href="#DejaVuSans-116"/>
      <use x="177.490234" xlink:href="#DejaVuSans-117"/>
      <use x="240.869141" xlink:href="#DejaVuSans-109"/>
     </g>
    </g>
   </g>
   <g id="matplotlib.axis_2">
    <g id="ytick_1">
     <g id="line2d_21">
      <path clip-path="url(#pbab4149906)" d="M 64.8 172.8 
L 655.2 172.8 
" style="fill:none;stroke:#808080;stroke-dasharray:6.4,1.6,1,1.6;stroke-dashoffset:0;stroke-opacity:0.3;"/>
     </g>
     <g id="line2d_22">
      <defs>
       <path d="M 0 0 
L -3.5 0 
" id="m4f00b54a76" style="stroke:#000000;stroke-width:0.8;"/>
      </defs>
      <g>
       <use style="stroke:#000000;stroke-width:0.8;" x="64.8" xlink:href="#m4f00b54a76" y="172.8"/>
      </g>
     </g>
     <g id="text_12">
      <!-- 0 -->
      <g transform="translate(51.4375 176.599219)scale(0.1 -0.1)">
       <use xlink:href="#DejaVuSans-48"/>
      </g>
     </g>
    </g>
    <g id="ytick_2">
     <g id="line2d_23">
      <path clip-path="url(#pbab4149906)" d="M 64.8 136.08 
L 655.2 136.08 
" style="fill:none;stroke:#808080;stroke-dasharray:6.4,1.6,1,1.6;stroke-dashoffset:0;stroke-opacity:0.3;"/>
     </g>
     <g id="line2d_24">
      <g>
       <use style="stroke:#000000;stroke-width:0.8;" x="64.8" xlink:href="#m4f00b54a76" y="136.08"/>
      </g>
     </g>
     <g id="text_13">
      <!-- 1000 -->
      <g transform="translate(32.35 139.879219)scale(0.1 -0.1)">
       <use xlink:href="#DejaVuSans-49"/>
       <use x="63.623047" xlink:href="#DejaVuSans-48"/>
       <use x="127.246094" xlink:href="#DejaVuSans-48"/>
       <use x="190.869141" xlink:href="#DejaVuSans-48"/>
      </g>
     </g>
    </g>
    <g id="ytick_3">
     <g id="line2d_25">
      <path clip-path="url(#pbab4149906)" d="M 64.8 99.36 
L 655.2 99.36 
" style="fill:none;stroke:#808080;stroke-dasharray:6.4,1.6,1,1.6;stroke-dashoffset:0;stroke-opacity:0.3;"/>
     </g>
     <g id="line2d_26">
      <g>
       <use style="stroke:#000000;stroke-width:0.8;" x="64.8" xlink:href="#m4f00b54a76" y="99.36"/>
      </g>
     </g>
     <g id="text_14">
      <!-- 2000 -->
      <g transform="translate(32.35 103.159219)scale(0.1 -0.1)">
       <use xlink:href="#DejaVuSans-50"/>
       <use x="63.623047" xlink:href="#DejaVuSans-48"/>
       <use x="127.246094" xlink:href="#DejaVuSans-48"/>
       <use x="190.869141" xlink:href="#DejaVuSans-48"/>
      </g>
     </g>
    </g>
    <g id="ytick_4">
     <g id="line2d_27">
      <path clip-path="url(#pbab4149906)" d="M 64.8 62.64 
L 655.2 62.64 
" style="fill:none;stroke:#808080;stroke-dasharray:6.4,1.6,1,1.6;stroke-dashoffset:0;stroke-opacity:0.3;"/>
     </g>
     <g id="line2d_28">
      <g>
       <use style="stroke:#000000;stroke-width:0.8;" x="64.8" xlink:href="#m4f00b54a76" y="62.64"/>
      </g>
     </g>
     <g id="text_15">
      <!-- 3000 -->
      <g transform="translate(32.35 66.439219)scale(0.1 -0.1)">
       <use xlink:href="#DejaVuSans-51"/>
       <use x="63.623047" xlink:href="#DejaVuSans-48"/>
       <use x="127.246094" xlink:href="#DejaVuSans-48"/>
       <use x="190.869141" xlink:href="#DejaVuSans-48"/>
      </g>
     </g>
    </g>
    <g id="ytick_5">
     <g id="line2d_29">
      <path clip-path="url(#pbab4149906)" d="M 64.8 25.92 
L 655.2 25.92 
" style="fill:none;stroke:#808080;stroke-dasharray:6.4,1.6,1,1.6;stroke-dashoffset:0;stroke-opacity:0.3;"/>
     </g>
     <g id="line2d_30">
      <g>
       <use style="stroke:#000000;stroke-width:0.8;" x="64.8" xlink:href="#m4f00b54a76" y="25.92"/>
      </g>
     </g>
     <g id="text_16">
      <!-- 4000 -->
      <g transform="translate(32.35 29.719219)scale(0.1 -0.1)">
       <defs>
        <path d="M 37.796875 64.3125 
L 12.890625 25.390625 
L 37.796875 25.390625 
z
M 35.203125 72.90625 
L 47.609375 72.90625 
L 47.609375 25.390625 
L 58.015625 25.390625 
L 58.015625 17.1875 
L 47.609375 17.1875 
L 47.609375 0 
L 37.796875 0 
L 37.796875 17.1875 
L 4.890625 17.1875 
L 4.890625 26.703125 
z
" id="DejaVuSans-52"/>
       </defs>
       <use xlink:href="#DejaVuSans-52"/>
       <use x="63.623047" xlink:href="#DejaVuSans-48"/>
       <use x="127.246094" xlink:href="#DejaVuSans-48"/>
       <use x="190.869141" xlink:href="#DejaVuSans-48"/>
      </g>
     </g>
    </g>
    <g id="text_17">
     <!-- RNA per milliliter -->
     <g transform="translate(26.270312 141.776406)rotate(-90)scale(0.1 -0.1)">
      <defs>
       <path d="M 44.390625 34.1875 
Q 47.5625 33.109375 50.5625 29.59375 
Q 53.5625 26.078125 56.59375 19.921875 
L 66.609375 0 
L 56 0 
L 46.6875 18.703125 
Q 43.0625 26.03125 39.671875 28.421875 
Q 36.28125 30.8125 30.421875 30.8125 
L 19.671875 30.8125 
L 19.671875 0 
L 9.8125 0 
L 9.8125 72.90625 
L 32.078125 72.90625 
Q 44.578125 72.90625 50.734375 67.671875 
Q 56.890625 62.453125 56.890625 51.90625 
Q 56.890625 45.015625 53.6875 40.46875 
Q 50.484375 35.9375 44.390625 34.1875 
z
M 19.671875 64.796875 
L 19.671875 38.921875 
L 32.078125 38.921875 
Q 39.203125 38.921875 42.84375 42.21875 
Q 46.484375 45.515625 46.484375 51.90625 
Q 46.484375 58.296875 42.84375 61.546875 
Q 39.203125 64.796875 32.078125 64.796875 
z
" id="DejaVuSans-82"/>
       <path d="M 9.8125 72.90625 
L 23.09375 72.90625 
L 55.421875 11.921875 
L 55.421875 72.90625 
L 64.984375 72.90625 
L 64.984375 0 
L 51.703125 0 
L 19.390625 60.984375 
L 19.390625 0 
L 9.8125 0 
z
" id="DejaVuSans-78"/>
       <path d="M 34.1875 63.1875 
L 20.796875 26.90625 
L 47.609375 26.90625 
z
M 28.609375 72.90625 
L 39.796875 72.90625 
L 67.578125 0 
L 57.328125 0 
L 50.6875 18.703125 
L 17.828125 18.703125 
L 11.1875 0 
L 0.78125 0 
z
" id="DejaVuSans-65"/>
       <path id="DejaVuSans-32"/>
       <path d="M 18.109375 8.203125 
L 18.109375 -20.796875 
L 9.078125 -20.796875 
L 9.078125 54.6875 
L 18.109375 54.6875 
L 18.109375 46.390625 
Q 20.953125 51.265625 25.265625 53.625 
Q 29.59375 56 35.59375 56 
Q 45.5625 56 51.78125 48.09375 
Q 58.015625 40.1875 58.015625 27.296875 
Q 58.015625 14.40625 51.78125 6.484375 
Q 45.5625 -1.421875 35.59375 -1.421875 
Q 29.59375 -1.421875 25.265625 0.953125 
Q 20.953125 3.328125 18.109375 8.203125 
z
M 48.6875 27.296875 
Q 48.6875 37.203125 44.609375 42.84375 
Q 40.53125 48.484375 33.40625 48.484375 
Q 26.265625 48.484375 22.1875 42.84375 
Q 18.109375 37.203125 18.109375 27.296875 
Q 18.109375 17.390625 22.1875 11.75 
Q 26.265625 6.109375 33.40625 6.109375 
Q 40.53125 6.109375 44.609375 11.75 
Q 48.6875 17.390625 48.6875 27.296875 
z
" id="DejaVuSans-112"/>
       <path d="M 56.203125 29.59375 
L 56.203125 25.203125 
L 14.890625 25.203125 
Q 15.484375 15.921875 20.484375 11.0625 
Q 25.484375 6.203125 34.421875 6.203125 
Q 39.59375 6.203125 44.453125 7.46875 
Q 49.3125 8.734375 54.109375 11.28125 
L 54.109375 2.78125 
Q 49.265625 0.734375 44.1875 -0.34375 
Q 39.109375 -1.421875 33.890625 -1.421875 
Q 20.796875 -1.421875 13.15625 6.1875 
Q 5.515625 13.8125 5.515625 26.8125 
Q 5.515625 40.234375 12.765625 48.109375 
Q 20.015625 56 32.328125 56 
Q 43.359375 56 49.78125 48.890625 
Q 56.203125 41.796875 56.203125 29.59375 
z
M 47.21875 32.234375 
Q 47.125 39.59375 43.09375 43.984375 
Q 39.0625 48.390625 32.421875 48.390625 
Q 24.90625 48.390625 20.390625 44.140625 
Q 15.875 39.890625 15.1875 32.171875 
z
" id="DejaVuSans-101"/>
       <path d="M 41.109375 46.296875 
Q 39.59375 47.171875 37.8125 47.578125 
Q 36.03125 48 33.890625 48 
Q 26.265625 48 22.1875 43.046875 
Q 18.109375 38.09375 18.109375 28.8125 
L 18.109375 0 
L 9.078125 0 
L 9.078125 54.6875 
L 18.109375 54.6875 
L 18.109375 46.1875 
Q 20.953125 51.171875 25.484375 53.578125 
Q 30.03125 56 36.53125 56 
Q 37.453125 56 38.578125 55.875 
Q 39.703125 55.765625 41.0625 55.515625 
z
" id="DejaVuSans-114"/>
       <path d="M 9.421875 54.6875 
L 18.40625 54.6875 
L 18.40625 0 
L 9.421875 0 
z
M 9.421875 75.984375 
L 18.40625 75.984375 
L 18.40625 64.59375 
L 9.421875 64.59375 
z
" id="DejaVuSans-105"/>
       <path d="M 9.421875 75.984375 
L 18.40625 75.984375 
L 18.40625 0 
L 9.421875 0 
z
" id="DejaVuSans-108"/>
      </defs>
      <use xlink:href="#DejaVuSans-82"/>
      <use x="69.482422" xlink:href="#DejaVuSans-78"/>
      <use x="144.287109" xlink:href="#DejaVuSans-65"/>
      <use x="212.695312" xlink:href="#DejaVuSans-32"/>
      <use x="244.482422" xlink:href="#DejaVuSans-112"/>
      <use x="307.958984" xlink:href="#DejaVuSans-101"/>
      <use x="369.482422" xlink:href="#DejaVuSans-114"/>
      <use x="410.595703" xlink:href="#DejaVuSans-32"/>
      <use x="442.382812" xlink:href="#DejaVuSans-109"/>
      <use x="539.794922" xlink:href="#DejaVuSans-105"/>
      <use x="567.578125" xlink:href="#DejaVuSans-108"/>
      <use x="595.361328" xlink:href="#DejaVuSans-108"/>
      <use x="623.144531" xlink:href="#DejaVuSans-105"/>
      <use x="650.927734" xlink:href="#DejaVuSans-108"/>
      <use x="678.710938" xlink:href="#DejaVuSans-105"/>
      <use x="706.494141" xlink:href="#DejaVuSans-116"/>
      <use x="745.703125" xlink:href="#DejaVuSans-101"/>
      <use x="807.226562" xlink:href="#DejaVuSans-114"/>
     </g>
    </g>
   </g>
   <g id="line2d_31">
    <path clip-path="url(#pbab4149906)" d="M 93.14702 112.761481 
L 96.07947 121.857767 
L 99.011921 124.889862 
L 100.966887 130.954053 
L 103.899338 138.472908 
L 106.831788 140.827111 
L 108.786755 145.289784 
L 110.741722 149.041544 
L 112.696689 150.59754 
L 113.674172 151.928502 
L 114.651656 152.902379 
L 115.629139 153.536442 
L 119.539073 155.329979 
L 120.516556 156.466258 
L 123.449007 159.208804 
L 124.42649 160.027746 
L 128.336424 161.44735 
L 130.291391 162.980115 
L 132.246358 163.783962 
L 133.223841 164.600986 
L 134.201325 165.264749 
L 136.156291 165.48663 
L 139.088742 165.293448 
L 142.021192 164.756703 
L 146.908609 163.790554 
L 149.84106 163.828989 
L 151.796026 164.244897 
L 154.728477 164.404455 
L 156.683444 164.930337 
L 158.638411 165.68497 
L 160.593377 166.343508 
L 162.548344 166.791895 
L 164.503311 167.153812 
L 167.435762 167.276835 
L 170.368212 167.785577 
L 176.233113 167.922492 
L 182.098013 167.74003 
L 185.030464 167.354632 
L 188.940397 167.08745 
L 190.895364 166.117482 
L 195.782781 165.546738 
L 196.760265 164.941835 
L 200.670199 163.652183 
L 202.625166 162.377087 
L 205.557616 159.94225 
L 207.512583 158.751049 
L 209.46755 158.236757 
L 214.354967 157.632621 
L 215.33245 157.427382 
L 216.309934 157.572349 
L 219.242384 158.641817 
L 220.219868 158.851791 
L 223.152318 158.853589 
L 226.084768 158.508461 
L 227.062252 158.532818 
L 229.017219 159.118333 
L 230.972185 159.281896 
L 232.927152 159.508979 
L 234.882119 160.079513 
L 235.859603 160.443371 
L 237.81457 161.445925 
L 239.769536 162.301196 
L 243.67947 162.996786 
L 245.634437 163.042114 
L 247.589404 162.820093 
L 248.566887 162.651373 
L 249.544371 162.368091 
L 253.454305 161.631246 
L 255.409272 161.148844 
L 256.386755 160.858424 
L 258.341722 159.942121 
L 260.296689 158.541734 
L 261.274172 157.74922 
L 262.251656 156.788301 
L 264.206623 154.387396 
L 266.161589 151.403763 
L 268.116556 147.580033 
L 270.071523 142.858396 
L 272.02649 137.31504 
L 274.95894 128.922384 
L 279.846358 116.226379 
L 280.823841 114.20875 
L 281.801325 111.745209 
L 282.778808 109.699255 
L 283.756291 108.3548 
L 284.733775 107.757108 
L 286.688742 105.715759 
L 287.666225 104.23091 
L 288.643709 101.991364 
L 290.598675 98.249305 
L 291.576159 96.424642 
L 293.531126 92.357515 
L 294.508609 92.144463 
L 295.486093 91.747115 
L 296.463576 91.065511 
L 297.44106 90.027893 
L 298.418543 89.617136 
L 299.396026 88.928396 
L 300.37351 89.138651 
L 302.328477 92.637142 
L 305.260927 98.118253 
L 306.238411 99.309616 
L 309.170861 100.071911 
L 311.125828 101.471678 
L 312.103311 103.17704 
L 313.080795 104.593082 
L 314.058278 105.46346 
L 315.035762 106.07801 
L 316.013245 106.946119 
L 316.990728 108.641512 
L 317.968212 111.05887 
L 321.878146 125.140678 
L 323.833113 130.898865 
L 327.743046 139.342337 
L 328.72053 141.196931 
L 329.698013 142.229767 
L 330.675497 142.736582 
L 331.65298 142.524174 
L 332.630464 142.119831 
L 334.58543 141.645164 
L 336.540397 140.540715 
L 337.517881 139.811527 
L 340.450331 136.671002 
L 342.405298 133.562028 
L 344.360265 129.936582 
L 346.315232 126.536449 
L 347.292715 125.090912 
L 349.247682 123.194386 
L 350.225166 122.536359 
L 353.157616 121.575172 
L 354.135099 122.121301 
L 355.112583 122.929338 
L 356.090066 124.441192 
L 357.06755 125.447859 
L 360 129.244936 
L 360.977483 130.087559 
L 361.954967 130.770918 
L 364.887417 131.356528 
L 365.864901 131.407119 
L 366.842384 131.269033 
L 367.819868 130.608219 
L 368.797351 129.744408 
L 369.774834 128.122342 
L 370.752318 127.018371 
L 372.707285 124.116437 
L 373.684768 122.342382 
L 374.662252 120.962867 
L 375.639735 119.818296 
L 378.572185 117.014866 
L 379.549669 115.656025 
L 381.504636 113.862354 
L 382.482119 113.854624 
L 383.459603 113.644855 
L 384.437086 113.638447 
L 385.41457 113.858916 
L 386.392053 114.286687 
L 387.369536 114.546438 
L 389.324503 115.437712 
L 390.301987 115.948509 
L 391.27947 116.691109 
L 393.234437 120.609746 
L 394.211921 122.414614 
L 397.144371 126.380759 
L 398.121854 127.542559 
L 400.076821 129.277496 
L 401.054305 129.736596 
L 402.031788 129.813513 
L 403.009272 130.102569 
L 403.986755 130.125922 
L 405.941722 129.07955 
L 407.896689 128.06876 
L 408.874172 127.897421 
L 410.829139 127.924591 
L 412.784106 128.807028 
L 413.761589 129.629664 
L 417.671523 134.888246 
L 421.581457 139.133403 
L 423.536424 140.5436 
L 425.491391 141.346992 
L 426.468874 141.604096 
L 428.423841 141.772572 
L 432.333775 141.108711 
L 435.266225 140.216941 
L 436.243709 139.785877 
L 437.221192 139.503221 
L 440.153642 138.053522 
L 441.131126 137.336649 
L 443.086093 137.046427 
L 445.04106 136.87185 
L 446.018543 136.611436 
L 447.97351 136.572329 
L 452.860927 136.009106 
L 453.838411 136.084133 
L 454.815894 135.882125 
L 457.748344 134.637065 
L 458.725828 134.524325 
L 459.703311 134.247266 
L 460.680795 134.086367 
L 462.635762 134.548963 
L 465.568212 134.928998 
L 466.545695 134.889359 
L 467.523179 134.676808 
L 468.500662 134.925124 
L 470.455629 135.810811 
L 471.433113 136.1543 
L 472.410596 136.31083 
L 473.388079 136.277712 
L 475.343046 135.813032 
L 478.275497 134.719638 
L 479.25298 134.487659 
L 480.230464 134.548887 
L 481.207947 134.244982 
L 483.162914 133.160396 
L 484.140397 132.695653 
L 485.117881 132.592263 
L 487.072848 132.825121 
L 488.050331 133.275059 
L 489.027815 134.24552 
L 493.915232 140.961144 
L 495.870199 144.232886 
L 497.825166 147.138442 
L 500.757616 150.902497 
L 503.690066 152.070939 
L 507.6 154.278251 
L 509.554967 155.019892 
L 514.442384 157.769272 
L 516.397351 158.464361 
L 518.352318 159.790641 
L 520.307285 160.774981 
L 522.262252 161.234121 
L 524.217219 162.215576 
L 526.172185 162.732824 
L 527.149669 162.856491 
L 530.082119 162.914567 
L 531.059603 162.850726 
L 533.01457 162.272016 
L 534.969536 161.46034 
L 535.94702 160.800241 
L 537.901987 158.874246 
L 538.87947 157.57813 
L 539.856954 156.067233 
L 540.834437 154.316222 
L 541.811921 152.097328 
L 544.744371 143.658544 
L 546.699338 137.602381 
L 549.631788 128.196832 
L 551.586755 122.595187 
L 552.564238 120.233265 
L 553.541722 118.289818 
L 554.519205 117.191892 
L 557.451656 116.915308 
L 558.429139 116.746101 
L 559.406623 116.90241 
L 560.384106 117.232578 
L 561.361589 117.756202 
L 562.339073 118.410659 
L 564.29404 120.121134 
L 565.271523 120.987899 
L 566.249007 121.677417 
L 567.22649 122.085788 
L 568.203974 121.928177 
L 569.181457 121.297094 
L 572.113907 120.317774 
L 574.068874 119.22169 
L 576.023841 117.743746 
L 577.978808 116.585041 
L 578.956291 116.140785 
L 579.933775 115.526318 
L 581.888742 114.50929 
L 582.866225 113.745901 
L 584.821192 111.754166 
L 585.798675 110.89119 
L 586.776159 110.186554 
L 589.708609 109.626844 
L 590.686093 109.687834 
L 591.663576 110.047095 
L 592.64106 111.20384 
L 593.618543 112.66017 
L 594.596026 114.53249 
L 595.57351 116.811604 
L 596.550993 119.6711 
L 603.393377 142.993611 
L 604.370861 145.77344 
L 606.325828 150.199333 
L 607.303311 152.008517 
L 608.280795 153.500464 
L 609.258278 154.683081 
L 611.213245 156.255048 
L 616.100662 158.902235 
L 618.055629 159.804604 
L 620.988079 160.578007 
L 621.965563 160.719418 
L 622.943046 160.655286 
L 623.92053 160.397142 
L 624.898013 159.964375 
L 625.875497 159.344952 
L 627.830464 157.71047 
L 628.807947 156.696901 
L 631.740397 152.742653 
L 632.717881 151.400088 
L 634.672848 148.139125 
L 640.537748 137.647279 
L 646.402649 126.564915 
L 646.402649 126.564915 
" style="fill:none;stroke:#008000;stroke-linecap:square;stroke-width:1.5;"/>
   </g>
   <g id="line2d_32">
    <path clip-path="url(#pbab4149906)" d="M 649.335099 172.8 
L 649.335099 25.92 
" style="fill:none;stroke:#ff0000;stroke-linecap:square;stroke-width:0.5;"/>
   </g>
   <g id="patch_3">
    <path d="M 64.8 172.8 
L 64.8 25.92 
" style="fill:none;stroke:#000000;stroke-linecap:square;stroke-linejoin:miter;stroke-width:0.8;"/>
   </g>
   <g id="patch_4">
    <path d="M 655.2 172.8 
L 655.2 25.92 
" style="fill:none;stroke:#000000;stroke-linecap:square;stroke-linejoin:miter;stroke-width:0.8;"/>
   </g>
   <g id="patch_5">
    <path d="M 64.8 172.8 
L 655.2 172.8 
" style="fill:none;stroke:#000000;stroke-linecap:square;stroke-linejoin:miter;stroke-width:0.8;"/>
   </g>
   <g id="patch_6">
    <path d="M 64.8 25.92 
L 655.2 25.92 
" style="fill:none;stroke:#000000;stroke-linecap:square;stroke-linejoin:miter;stroke-width:0.8;"/>
   </g>
   <g id="text_18">
    <!-- Concentratie SARS-CoV-2 RNA per ml rioolwater -->
    <g transform="translate(215.560313 19.92)scale(0.12 -0.12)">
     <defs>
      <path d="M 64.40625 67.28125 
L 64.40625 56.890625 
Q 59.421875 61.53125 53.78125 63.8125 
Q 48.140625 66.109375 41.796875 66.109375 
Q 29.296875 66.109375 22.65625 58.46875 
Q 16.015625 50.828125 16.015625 36.375 
Q 16.015625 21.96875 22.65625 14.328125 
Q 29.296875 6.6875 41.796875 6.6875 
Q 48.140625 6.6875 53.78125 8.984375 
Q 59.421875 11.28125 64.40625 15.921875 
L 64.40625 5.609375 
Q 59.234375 2.09375 53.4375 0.328125 
Q 47.65625 -1.421875 41.21875 -1.421875 
Q 24.65625 -1.421875 15.125 8.703125 
Q 5.609375 18.84375 5.609375 36.375 
Q 5.609375 53.953125 15.125 64.078125 
Q 24.65625 74.21875 41.21875 74.21875 
Q 47.75 74.21875 53.53125 72.484375 
Q 59.328125 70.75 64.40625 67.28125 
z
" id="DejaVuSans-67"/>
      <path d="M 30.609375 48.390625 
Q 23.390625 48.390625 19.1875 42.75 
Q 14.984375 37.109375 14.984375 27.296875 
Q 14.984375 17.484375 19.15625 11.84375 
Q 23.34375 6.203125 30.609375 6.203125 
Q 37.796875 6.203125 41.984375 11.859375 
Q 46.1875 17.53125 46.1875 27.296875 
Q 46.1875 37.015625 41.984375 42.703125 
Q 37.796875 48.390625 30.609375 48.390625 
z
M 30.609375 56 
Q 42.328125 56 49.015625 48.375 
Q 55.71875 40.765625 55.71875 27.296875 
Q 55.71875 13.875 49.015625 6.21875 
Q 42.328125 -1.421875 30.609375 -1.421875 
Q 18.84375 -1.421875 12.171875 6.21875 
Q 5.515625 13.875 5.515625 27.296875 
Q 5.515625 40.765625 12.171875 48.375 
Q 18.84375 56 30.609375 56 
z
" id="DejaVuSans-111"/>
      <path d="M 54.890625 33.015625 
L 54.890625 0 
L 45.90625 0 
L 45.90625 32.71875 
Q 45.90625 40.484375 42.875 44.328125 
Q 39.84375 48.1875 33.796875 48.1875 
Q 26.515625 48.1875 22.3125 43.546875 
Q 18.109375 38.921875 18.109375 30.90625 
L 18.109375 0 
L 9.078125 0 
L 9.078125 54.6875 
L 18.109375 54.6875 
L 18.109375 46.1875 
Q 21.34375 51.125 25.703125 53.5625 
Q 30.078125 56 35.796875 56 
Q 45.21875 56 50.046875 50.171875 
Q 54.890625 44.34375 54.890625 33.015625 
z
" id="DejaVuSans-110"/>
      <path d="M 48.78125 52.59375 
L 48.78125 44.1875 
Q 44.96875 46.296875 41.140625 47.34375 
Q 37.3125 48.390625 33.40625 48.390625 
Q 24.65625 48.390625 19.8125 42.84375 
Q 14.984375 37.3125 14.984375 27.296875 
Q 14.984375 17.28125 19.8125 11.734375 
Q 24.65625 6.203125 33.40625 6.203125 
Q 37.3125 6.203125 41.140625 7.25 
Q 44.96875 8.296875 48.78125 10.40625 
L 48.78125 2.09375 
Q 45.015625 0.34375 40.984375 -0.53125 
Q 36.96875 -1.421875 32.421875 -1.421875 
Q 20.0625 -1.421875 12.78125 6.34375 
Q 5.515625 14.109375 5.515625 27.296875 
Q 5.515625 40.671875 12.859375 48.328125 
Q 20.21875 56 33.015625 56 
Q 37.15625 56 41.109375 55.140625 
Q 45.0625 54.296875 48.78125 52.59375 
z
" id="DejaVuSans-99"/>
      <path d="M 53.515625 70.515625 
L 53.515625 60.890625 
Q 47.90625 63.578125 42.921875 64.890625 
Q 37.9375 66.21875 33.296875 66.21875 
Q 25.25 66.21875 20.875 63.09375 
Q 16.5 59.96875 16.5 54.203125 
Q 16.5 49.359375 19.40625 46.890625 
Q 22.3125 44.4375 30.421875 42.921875 
L 36.375 41.703125 
Q 47.40625 39.59375 52.65625 34.296875 
Q 57.90625 29 57.90625 20.125 
Q 57.90625 9.515625 50.796875 4.046875 
Q 43.703125 -1.421875 29.984375 -1.421875 
Q 24.8125 -1.421875 18.96875 -0.25 
Q 13.140625 0.921875 6.890625 3.21875 
L 6.890625 13.375 
Q 12.890625 10.015625 18.65625 8.296875 
Q 24.421875 6.59375 29.984375 6.59375 
Q 38.421875 6.59375 43.015625 9.90625 
Q 47.609375 13.234375 47.609375 19.390625 
Q 47.609375 24.75 44.3125 27.78125 
Q 41.015625 30.8125 33.5 32.328125 
L 27.484375 33.5 
Q 16.453125 35.6875 11.515625 40.375 
Q 6.59375 45.0625 6.59375 53.421875 
Q 6.59375 63.09375 13.40625 68.65625 
Q 20.21875 74.21875 32.171875 74.21875 
Q 37.3125 74.21875 42.625 73.28125 
Q 47.953125 72.359375 53.515625 70.515625 
z
" id="DejaVuSans-83"/>
      <path d="M 28.609375 0 
L 0.78125 72.90625 
L 11.078125 72.90625 
L 34.1875 11.53125 
L 57.328125 72.90625 
L 67.578125 72.90625 
L 39.796875 0 
z
" id="DejaVuSans-86"/>
      <path d="M 4.203125 54.6875 
L 13.1875 54.6875 
L 24.421875 12.015625 
L 35.59375 54.6875 
L 46.1875 54.6875 
L 57.421875 12.015625 
L 68.609375 54.6875 
L 77.59375 54.6875 
L 63.28125 0 
L 52.6875 0 
L 40.921875 44.828125 
L 29.109375 0 
L 18.5 0 
z
" id="DejaVuSans-119"/>
     </defs>
     <use xlink:href="#DejaVuSans-67"/>
     <use x="69.824219" xlink:href="#DejaVuSans-111"/>
     <use x="131.005859" xlink:href="#DejaVuSans-110"/>
     <use x="194.384766" xlink:href="#DejaVuSans-99"/>
     <use x="249.365234" xlink:href="#DejaVuSans-101"/>
     <use x="310.888672" xlink:href="#DejaVuSans-110"/>
     <use x="374.267578" xlink:href="#DejaVuSans-116"/>
     <use x="413.476562" xlink:href="#DejaVuSans-114"/>
     <use x="454.589844" xlink:href="#DejaVuSans-97"/>
     <use x="515.869141" xlink:href="#DejaVuSans-116"/>
     <use x="555.078125" xlink:href="#DejaVuSans-105"/>
     <use x="582.861328" xlink:href="#DejaVuSans-101"/>
     <use x="644.384766" xlink:href="#DejaVuSans-32"/>
     <use x="676.171875" xlink:href="#DejaVuSans-83"/>
     <use x="741.523438" xlink:href="#DejaVuSans-65"/>
     <use x="809.931641" xlink:href="#DejaVuSans-82"/>
     <use x="879.414062" xlink:href="#DejaVuSans-83"/>
     <use x="942.890625" xlink:href="#DejaVuSans-45"/>
     <use x="978.974609" xlink:href="#DejaVuSans-67"/>
     <use x="1048.798828" xlink:href="#DejaVuSans-111"/>
     <use x="1109.980469" xlink:href="#DejaVuSans-86"/>
     <use x="1172.513672" xlink:href="#DejaVuSans-45"/>
     <use x="1208.597656" xlink:href="#DejaVuSans-50"/>
     <use x="1272.220703" xlink:href="#DejaVuSans-32"/>
     <use x="1304.007812" xlink:href="#DejaVuSans-82"/>
     <use x="1373.490234" xlink:href="#DejaVuSans-78"/>
     <use x="1448.294922" xlink:href="#DejaVuSans-65"/>
     <use x="1516.703125" xlink:href="#DejaVuSans-32"/>
     <use x="1548.490234" xlink:href="#DejaVuSans-112"/>
     <use x="1611.966797" xlink:href="#DejaVuSans-101"/>
     <use x="1673.490234" xlink:href="#DejaVuSans-114"/>
     <use x="1714.603516" xlink:href="#DejaVuSans-32"/>
     <use x="1746.390625" xlink:href="#DejaVuSans-109"/>
     <use x="1843.802734" xlink:href="#DejaVuSans-108"/>
     <use x="1871.585938" xlink:href="#DejaVuSans-32"/>
     <use x="1903.373047" xlink:href="#DejaVuSans-114"/>
     <use x="1944.486328" xlink:href="#DejaVuSans-105"/>
     <use x="1972.269531" xlink:href="#DejaVuSans-111"/>
     <use x="2033.451172" xlink:href="#DejaVuSans-111"/>
     <use x="2094.632812" xlink:href="#DejaVuSans-108"/>
     <use x="2122.416016" xlink:href="#DejaVuSans-119"/>
     <use x="2204.203125" xlink:href="#DejaVuSans-97"/>
     <use x="2265.482422" xlink:href="#DejaVuSans-116"/>
     <use x="2304.691406" xlink:href="#DejaVuSans-101"/>
     <use x="2366.214844" xlink:href="#DejaVuSans-114"/>
    </g>
   </g>
   <g id="legend_1">
    <g id="patch_7">
     <path d="M 71.8 48.598125 
L 306.184375 48.598125 
Q 308.184375 48.598125 308.184375 46.598125 
L 308.184375 32.92 
Q 308.184375 30.92 306.184375 30.92 
L 71.8 30.92 
Q 69.8 30.92 69.8 32.92 
L 69.8 46.598125 
Q 69.8 48.598125 71.8 48.598125 
z
" style="fill:#ffffff;opacity:0.8;stroke:#cccccc;stroke-linejoin:miter;"/>
    </g>
    <g id="line2d_33">
     <path d="M 73.8 39.018437 
L 93.8 39.018437 
" style="fill:none;stroke:#008000;stroke-linecap:square;stroke-width:1.5;"/>
    </g>
    <g id="line2d_34"/>
    <g id="text_19">
     <!-- RNA per milliliter rioolwater (gemiddeld) -->
     <g transform="translate(101.8 42.518437)scale(0.1 -0.1)">
      <defs>
       <path d="M 31 75.875 
Q 24.46875 64.65625 21.28125 53.65625 
Q 18.109375 42.671875 18.109375 31.390625 
Q 18.109375 20.125 21.3125 9.0625 
Q 24.515625 -2 31 -13.1875 
L 23.1875 -13.1875 
Q 15.875 -1.703125 12.234375 9.375 
Q 8.59375 20.453125 8.59375 31.390625 
Q 8.59375 42.28125 12.203125 53.3125 
Q 15.828125 64.359375 23.1875 75.875 
z
" id="DejaVuSans-40"/>
       <path d="M 45.40625 27.984375 
Q 45.40625 37.75 41.375 43.109375 
Q 37.359375 48.484375 30.078125 48.484375 
Q 22.859375 48.484375 18.828125 43.109375 
Q 14.796875 37.75 14.796875 27.984375 
Q 14.796875 18.265625 18.828125 12.890625 
Q 22.859375 7.515625 30.078125 7.515625 
Q 37.359375 7.515625 41.375 12.890625 
Q 45.40625 18.265625 45.40625 27.984375 
z
M 54.390625 6.78125 
Q 54.390625 -7.171875 48.1875 -13.984375 
Q 42 -20.796875 29.203125 -20.796875 
Q 24.46875 -20.796875 20.265625 -20.09375 
Q 16.0625 -19.390625 12.109375 -17.921875 
L 12.109375 -9.1875 
Q 16.0625 -11.328125 19.921875 -12.34375 
Q 23.78125 -13.375 27.78125 -13.375 
Q 36.625 -13.375 41.015625 -8.765625 
Q 45.40625 -4.15625 45.40625 5.171875 
L 45.40625 9.625 
Q 42.625 4.78125 38.28125 2.390625 
Q 33.9375 0 27.875 0 
Q 17.828125 0 11.671875 7.65625 
Q 5.515625 15.328125 5.515625 27.984375 
Q 5.515625 40.671875 11.671875 48.328125 
Q 17.828125 56 27.875 56 
Q 33.9375 56 38.28125 53.609375 
Q 42.625 51.21875 45.40625 46.390625 
L 45.40625 54.6875 
L 54.390625 54.6875 
z
" id="DejaVuSans-103"/>
       <path d="M 45.40625 46.390625 
L 45.40625 75.984375 
L 54.390625 75.984375 
L 54.390625 0 
L 45.40625 0 
L 45.40625 8.203125 
Q 42.578125 3.328125 38.25 0.953125 
Q 33.9375 -1.421875 27.875 -1.421875 
Q 17.96875 -1.421875 11.734375 6.484375 
Q 5.515625 14.40625 5.515625 27.296875 
Q 5.515625 40.1875 11.734375 48.09375 
Q 17.96875 56 27.875 56 
Q 33.9375 56 38.25 53.625 
Q 42.578125 51.265625 45.40625 46.390625 
z
M 14.796875 27.296875 
Q 14.796875 17.390625 18.875 11.75 
Q 22.953125 6.109375 30.078125 6.109375 
Q 37.203125 6.109375 41.296875 11.75 
Q 45.40625 17.390625 45.40625 27.296875 
Q 45.40625 37.203125 41.296875 42.84375 
Q 37.203125 48.484375 30.078125 48.484375 
Q 22.953125 48.484375 18.875 42.84375 
Q 14.796875 37.203125 14.796875 27.296875 
z
" id="DejaVuSans-100"/>
       <path d="M 8.015625 75.875 
L 15.828125 75.875 
Q 23.140625 64.359375 26.78125 53.3125 
Q 30.421875 42.28125 30.421875 31.390625 
Q 30.421875 20.453125 26.78125 9.375 
Q 23.140625 -1.703125 15.828125 -13.1875 
L 8.015625 -13.1875 
Q 14.5 -2 17.703125 9.0625 
Q 20.90625 20.125 20.90625 31.390625 
Q 20.90625 42.671875 17.703125 53.65625 
Q 14.5 64.65625 8.015625 75.875 
z
" id="DejaVuSans-41"/>
      </defs>
      <use xlink:href="#DejaVuSans-82"/>
      <use x="69.482422" xlink:href="#DejaVuSans-78"/>
      <use x="144.287109" xlink:href="#DejaVuSans-65"/>
      <use x="212.695312" xlink:href="#DejaVuSans-32"/>
      <use x="244.482422" xlink:href="#DejaVuSans-112"/>
      <use x="307.958984" xlink:href="#DejaVuSans-101"/>
      <use x="369.482422" xlink:href="#DejaVuSans-114"/>
      <use x="410.595703" xlink:href="#DejaVuSans-32"/>
      <use x="442.382812" xlink:href="#DejaVuSans-109"/>
      <use x="539.794922" xlink:href="#DejaVuSans-105"/>
      <use x="567.578125" xlink:href="#DejaVuSans-108"/>
      <use x="595.361328" xlink:href="#DejaVuSans-108"/>
      <use x="623.144531" xlink:href="#DejaVuSans-105"/>
      <use x="650.927734" xlink:href="#DejaVuSans-108"/>
      <use x="678.710938" xlink:href="#DejaVuSans-105"/>
      <use x="706.494141" xlink:href="#DejaVuSans-116"/>
      <use x="745.703125" xlink:href="#DejaVuSans-101"/>
      <use x="807.226562" xlink:href="#DejaVuSans-114"/>
      <use x="848.339844" xlink:href="#DejaVuSans-32"/>
      <use x="880.126953" xlink:href="#DejaVuSans-114"/>
      <use x="921.240234" xlink:href="#DejaVuSans-105"/>
      <use x="949.023438" xlink:href="#DejaVuSans-111"/>
      <use x="1010.205078" xlink:href="#DejaVuSans-111"/>
      <use x="1071.386719" xlink:href="#DejaVuSans-108"/>
      <use x="1099.169922" xlink:href="#DejaVuSans-119"/>
      <use x="1180.957031" xlink:href="#DejaVuSans-97"/>
      <use x="1242.236328" xlink:href="#DejaVuSans-116"/>
      <use x="1281.445312" xlink:href="#DejaVuSans-101"/>
      <use x="1342.96875" xlink:href="#DejaVuSans-114"/>
      <use x="1384.082031" xlink:href="#DejaVuSans-32"/>
      <use x="1415.869141" xlink:href="#DejaVuSans-40"/>
      <use x="1454.882812" xlink:href="#DejaVuSans-103"/>
      <use x="1518.359375" xlink:href="#DejaVuSans-101"/>
      <use x="1579.882812" xlink:href="#DejaVuSans-109"/>
      <use x="1677.294922" xlink:href="#DejaVuSans-105"/>
      <use x="1705.078125" xlink:href="#DejaVuSans-100"/>
      <use x="1768.554688" xlink:href="#DejaVuSans-100"/>
      <use x="1832.03125" xlink:href="#DejaVuSans-101"/>
      <use x="1893.554688" xlink:href="#DejaVuSans-108"/>
      <use x="1921.337891" xlink:href="#DejaVuSans-100"/>
      <use x="1984.814453" xlink:href="#DejaVuSans-41"/>
     </g>
    </g>
   </g>
  </g>
  <g id="text_20">
   <!-- Gegenereerd op 2021-10-20 15:44 o.b.v. data tot 2021-10-17. -->
   <g style="fill:#808080;" transform="translate(7.2 204.88175)scale(0.08 -0.08)">
    <defs>
     <path d="M 59.515625 10.40625 
L 59.515625 29.984375 
L 43.40625 29.984375 
L 43.40625 38.09375 
L 69.28125 38.09375 
L 69.28125 6.78125 
Q 63.578125 2.734375 56.6875 0.65625 
Q 49.8125 -1.421875 42 -1.421875 
Q 24.90625 -1.421875 15.25 8.5625 
Q 5.609375 18.5625 5.609375 36.375 
Q 5.609375 54.25 15.25 64.234375 
Q 24.90625 74.21875 42 74.21875 
Q 49.125 74.21875 55.546875 72.453125 
Q 61.96875 70.703125 67.390625 67.28125 
L 67.390625 56.78125 
Q 61.921875 61.421875 55.765625 63.765625 
Q 49.609375 66.109375 42.828125 66.109375 
Q 29.4375 66.109375 22.71875 58.640625 
Q 16.015625 51.171875 16.015625 36.375 
Q 16.015625 21.625 22.71875 14.15625 
Q 29.4375 6.6875 42.828125 6.6875 
Q 48.046875 6.6875 52.140625 7.59375 
Q 56.25 8.5 59.515625 10.40625 
z
" id="DejaVuSans-71"/>
     <path d="M 11.71875 12.40625 
L 22.015625 12.40625 
L 22.015625 0 
L 11.71875 0 
z
M 11.71875 51.703125 
L 22.015625 51.703125 
L 22.015625 39.3125 
L 11.71875 39.3125 
z
" id="DejaVuSans-58"/>
     <path d="M 10.6875 12.40625 
L 21 12.40625 
L 21 0 
L 10.6875 0 
z
" id="DejaVuSans-46"/>
     <path d="M 48.6875 27.296875 
Q 48.6875 37.203125 44.609375 42.84375 
Q 40.53125 48.484375 33.40625 48.484375 
Q 26.265625 48.484375 22.1875 42.84375 
Q 18.109375 37.203125 18.109375 27.296875 
Q 18.109375 17.390625 22.1875 11.75 
Q 26.265625 6.109375 33.40625 6.109375 
Q 40.53125 6.109375 44.609375 11.75 
Q 48.6875 17.390625 48.6875 27.296875 
z
M 18.109375 46.390625 
Q 20.953125 51.265625 25.265625 53.625 
Q 29.59375 56 35.59375 56 
Q 45.5625 56 51.78125 48.09375 
Q 58.015625 40.1875 58.015625 27.296875 
Q 58.015625 14.40625 51.78125 6.484375 
Q 45.5625 -1.421875 35.59375 -1.421875 
Q 29.59375 -1.421875 25.265625 0.953125 
Q 20.953125 3.328125 18.109375 8.203125 
L 18.109375 0 
L 9.078125 0 
L 9.078125 75.984375 
L 18.109375 75.984375 
z
" id="DejaVuSans-98"/>
     <path d="M 2.984375 54.6875 
L 12.5 54.6875 
L 29.59375 8.796875 
L 46.6875 54.6875 
L 56.203125 54.6875 
L 35.6875 0 
L 23.484375 0 
z
" id="DejaVuSans-118"/>
    </defs>
    <use xlink:href="#DejaVuSans-71"/>
    <use x="77.490234" xlink:href="#DejaVuSans-101"/>
    <use x="139.013672" xlink:href="#DejaVuSans-103"/>
    <use x="202.490234" xlink:href="#DejaVuSans-101"/>
    <use x="264.013672" xlink:href="#DejaVuSans-110"/>
    <use x="327.392578" xlink:href="#DejaVuSans-101"/>
    <use x="388.916016" xlink:href="#DejaVuSans-114"/>
    <use x="427.779297" xlink:href="#DejaVuSans-101"/>
    <use x="489.302734" xlink:href="#DejaVuSans-101"/>
    <use x="550.826172" xlink:href="#DejaVuSans-114"/>
    <use x="590.189453" xlink:href="#DejaVuSans-100"/>
    <use x="653.666016" xlink:href="#DejaVuSans-32"/>
    <use x="685.453125" xlink:href="#DejaVuSans-111"/>
    <use x="746.634766" xlink:href="#DejaVuSans-112"/>
    <use x="810.111328" xlink:href="#DejaVuSans-32"/>
    <use x="841.898438" xlink:href="#DejaVuSans-50"/>
    <use x="905.521484" xlink:href="#DejaVuSans-48"/>
    <use x="969.144531" xlink:href="#DejaVuSans-50"/>
    <use x="1032.767578" xlink:href="#DejaVuSans-49"/>
    <use x="1096.390625" xlink:href="#DejaVuSans-45"/>
    <use x="1132.474609" xlink:href="#DejaVuSans-49"/>
    <use x="1196.097656" xlink:href="#DejaVuSans-48"/>
    <use x="1259.720703" xlink:href="#DejaVuSans-45"/>
    <use x="1295.804688" xlink:href="#DejaVuSans-50"/>
    <use x="1359.427734" xlink:href="#DejaVuSans-48"/>
    <use x="1423.050781" xlink:href="#DejaVuSans-32"/>
    <use x="1454.837891" xlink:href="#DejaVuSans-49"/>
    <use x="1518.460938" xlink:href="#DejaVuSans-53"/>
    <use x="1582.083984" xlink:href="#DejaVuSans-58"/>
    <use x="1615.775391" xlink:href="#DejaVuSans-52"/>
    <use x="1679.398438" xlink:href="#DejaVuSans-52"/>
    <use x="1743.021484" xlink:href="#DejaVuSans-32"/>
    <use x="1774.808594" xlink:href="#DejaVuSans-111"/>
    <use x="1834.240234" xlink:href="#DejaVuSans-46"/>
    <use x="1866.027344" xlink:href="#DejaVuSans-98"/>
    <use x="1929.503906" xlink:href="#DejaVuSans-46"/>
    <use x="1961.291016" xlink:href="#DejaVuSans-118"/>
    <use x="2012.720703" xlink:href="#DejaVuSans-46"/>
    <use x="2044.507812" xlink:href="#DejaVuSans-32"/>
    <use x="2076.294922" xlink:href="#DejaVuSans-100"/>
    <use x="2139.771484" xlink:href="#DejaVuSans-97"/>
    <use x="2201.050781" xlink:href="#DejaVuSans-116"/>
    <use x="2240.259766" xlink:href="#DejaVuSans-97"/>
    <use x="2301.539062" xlink:href="#DejaVuSans-32"/>
    <use x="2333.326172" xlink:href="#DejaVuSans-116"/>
    <use x="2372.535156" xlink:href="#DejaVuSans-111"/>
    <use x="2433.716797" xlink:href="#DejaVuSans-116"/>
    <use x="2472.925781" xlink:href="#DejaVuSans-32"/>
    <use x="2504.712891" xlink:href="#DejaVuSans-50"/>
    <use x="2568.335938" xlink:href="#DejaVuSans-48"/>
    <use x="2631.958984" xlink:href="#DejaVuSans-50"/>
    <use x="2695.582031" xlink:href="#DejaVuSans-49"/>
    <use x="2759.205078" xlink:href="#DejaVuSans-45"/>
    <use x="2795.289062" xlink:href="#DejaVuSans-49"/>
    <use x="2858.912109" xlink:href="#DejaVuSans-48"/>
    <use x="2922.535156" xlink:href="#DejaVuSans-45"/>
    <use x="2958.619141" xlink:href="#DejaVuSans-49"/>
    <use x="3022.242188" xlink:href="#DejaVuSans-55"/>
    <use x="3085.865234" xlink:href="#DejaVuSans-46"/>
   </g>
   <!-- Source code: http://github.com/realrolfje/coronadata -->
   <g style="fill:#808080;" transform="translate(7.2 213.84)scale(0.08 -0.08)">
    <defs>
     <path d="M 54.890625 33.015625 
L 54.890625 0 
L 45.90625 0 
L 45.90625 32.71875 
Q 45.90625 40.484375 42.875 44.328125 
Q 39.84375 48.1875 33.796875 48.1875 
Q 26.515625 48.1875 22.3125 43.546875 
Q 18.109375 38.921875 18.109375 30.90625 
L 18.109375 0 
L 9.078125 0 
L 9.078125 75.984375 
L 18.109375 75.984375 
L 18.109375 46.1875 
Q 21.34375 51.125 25.703125 53.5625 
Q 30.078125 56 35.796875 56 
Q 45.21875 56 50.046875 50.171875 
Q 54.890625 44.34375 54.890625 33.015625 
z
" id="DejaVuSans-104"/>
     <path d="M 25.390625 72.90625 
L 33.6875 72.90625 
L 8.296875 -9.28125 
L 0 -9.28125 
z
" id="DejaVuSans-47"/>
     <path d="M 37.109375 75.984375 
L 37.109375 68.5 
L 28.515625 68.5 
Q 23.6875 68.5 21.796875 66.546875 
Q 19.921875 64.59375 19.921875 59.515625 
L 19.921875 54.6875 
L 34.71875 54.6875 
L 34.71875 47.703125 
L 19.921875 47.703125 
L 19.921875 0 
L 10.890625 0 
L 10.890625 47.703125 
L 2.296875 47.703125 
L 2.296875 54.6875 
L 10.890625 54.6875 
L 10.890625 58.5 
Q 10.890625 67.625 15.140625 71.796875 
Q 19.390625 75.984375 28.609375 75.984375 
z
" id="DejaVuSans-102"/>
     <path d="M 9.421875 54.6875 
L 18.40625 54.6875 
L 18.40625 -0.984375 
Q 18.40625 -11.421875 14.421875 -16.109375 
Q 10.453125 -20.796875 1.609375 -20.796875 
L -1.8125 -20.796875 
L -1.8125 -13.1875 
L 0.59375 -13.1875 
Q 5.71875 -13.1875 7.5625 -10.8125 
Q 9.421875 -8.453125 9.421875 -0.984375 
z
M 9.421875 75.984375 
L 18.40625 75.984375 
L 18.40625 64.59375 
L 9.421875 64.59375 
z
" id="DejaVuSans-106"/>
    </defs>
    <use xlink:href="#DejaVuSans-83"/>
    <use x="63.476562" xlink:href="#DejaVuSans-111"/>
    <use x="124.658203" xlink:href="#DejaVuSans-117"/>
    <use x="188.037109" xlink:href="#DejaVuSans-114"/>
    <use x="226.900391" xlink:href="#DejaVuSans-99"/>
    <use x="281.880859" xlink:href="#DejaVuSans-101"/>
    <use x="343.404297" xlink:href="#DejaVuSans-32"/>
    <use x="375.191406" xlink:href="#DejaVuSans-99"/>
    <use x="430.171875" xlink:href="#DejaVuSans-111"/>
    <use x="491.353516" xlink:href="#DejaVuSans-100"/>
    <use x="554.830078" xlink:href="#DejaVuSans-101"/>
    <use x="616.353516" xlink:href="#DejaVuSans-58"/>
    <use x="650.044922" xlink:href="#DejaVuSans-32"/>
    <use x="681.832031" xlink:href="#DejaVuSans-104"/>
    <use x="745.210938" xlink:href="#DejaVuSans-116"/>
    <use x="784.419922" xlink:href="#DejaVuSans-116"/>
    <use x="823.628906" xlink:href="#DejaVuSans-112"/>
    <use x="887.105469" xlink:href="#DejaVuSans-58"/>
    <use x="920.796875" xlink:href="#DejaVuSans-47"/>
    <use x="954.488281" xlink:href="#DejaVuSans-47"/>
    <use x="988.179688" xlink:href="#DejaVuSans-103"/>
    <use x="1051.65625" xlink:href="#DejaVuSans-105"/>
    <use x="1079.439453" xlink:href="#DejaVuSans-116"/>
    <use x="1118.648438" xlink:href="#DejaVuSans-104"/>
    <use x="1182.027344" xlink:href="#DejaVuSans-117"/>
    <use x="1245.40625" xlink:href="#DejaVuSans-98"/>
    <use x="1308.882812" xlink:href="#DejaVuSans-46"/>
    <use x="1340.669922" xlink:href="#DejaVuSans-99"/>
    <use x="1395.650391" xlink:href="#DejaVuSans-111"/>
    <use x="1456.832031" xlink:href="#DejaVuSans-109"/>
    <use x="1554.244141" xlink:href="#DejaVuSans-47"/>
    <use x="1587.935547" xlink:href="#DejaVuSans-114"/>
    <use x="1626.798828" xlink:href="#DejaVuSans-101"/>
    <use x="1688.322266" xlink:href="#DejaVuSans-97"/>
    <use x="1749.601562" xlink:href="#DejaVuSans-108"/>
    <use x="1777.384766" xlink:href="#DejaVuSans-114"/>
    <use x="1816.248047" xlink:href="#DejaVuSans-111"/>
    <use x="1877.429688" xlink:href="#DejaVuSans-108"/>
    <use x="1905.212891" xlink:href="#DejaVuSans-102"/>
    <use x="1940.417969" xlink:href="#DejaVuSans-106"/>
    <use x="1968.201172" xlink:href="#DejaVuSans-101"/>
    <use x="2029.724609" xlink:href="#DejaVuSans-47"/>
    <use x="2063.416016" xlink:href="#DejaVuSans-99"/>
    <use x="2118.396484" xlink:href="#DejaVuSans-111"/>
    <use x="2179.578125" xlink:href="#DejaVuSans-114"/>
    <use x="2218.441406" xlink:href="#DejaVuSans-111"/>
    <use x="2279.623047" xlink:href="#DejaVuSans-110"/>
    <use x="2343.001953" xlink:href="#DejaVuSans-97"/>
    <use x="2404.28125" xlink:href="#DejaVuSans-100"/>
    <use x="2467.757812" xlink:href="#DejaVuSans-97"/>
    <use x="2529.037109" xlink:href="#DejaVuSans-116"/>
    <use x="2568.246094" xlink:href="#DejaVuSans-97"/>
   </g>
  </g>
  <g id="text_21">
   <!-- Bron: https://data.rivm.nl/covid-19 -->
   <g style="fill:#808080;" transform="translate(574.79875 213.84)scale(0.08 -0.08)">
    <defs>
     <path d="M 19.671875 34.8125 
L 19.671875 8.109375 
L 35.5 8.109375 
Q 43.453125 8.109375 47.28125 11.40625 
Q 51.125 14.703125 51.125 21.484375 
Q 51.125 28.328125 47.28125 31.5625 
Q 43.453125 34.8125 35.5 34.8125 
z
M 19.671875 64.796875 
L 19.671875 42.828125 
L 34.28125 42.828125 
Q 41.5 42.828125 45.03125 45.53125 
Q 48.578125 48.25 48.578125 53.8125 
Q 48.578125 59.328125 45.03125 62.0625 
Q 41.5 64.796875 34.28125 64.796875 
z
M 9.8125 72.90625 
L 35.015625 72.90625 
Q 46.296875 72.90625 52.390625 68.21875 
Q 58.5 63.53125 58.5 54.890625 
Q 58.5 48.1875 55.375 44.234375 
Q 52.25 40.28125 46.1875 39.3125 
Q 53.46875 37.75 57.5 32.78125 
Q 61.53125 27.828125 61.53125 20.40625 
Q 61.53125 10.640625 54.890625 5.3125 
Q 48.25 0 35.984375 0 
L 9.8125 0 
z
" id="DejaVuSans-66"/>
     <path d="M 44.28125 53.078125 
L 44.28125 44.578125 
Q 40.484375 46.53125 36.375 47.5 
Q 32.28125 48.484375 27.875 48.484375 
Q 21.1875 48.484375 17.84375 46.4375 
Q 14.5 44.390625 14.5 40.28125 
Q 14.5 37.15625 16.890625 35.375 
Q 19.28125 33.59375 26.515625 31.984375 
L 29.59375 31.296875 
Q 39.15625 29.25 43.1875 25.515625 
Q 47.21875 21.78125 47.21875 15.09375 
Q 47.21875 7.46875 41.1875 3.015625 
Q 35.15625 -1.421875 24.609375 -1.421875 
Q 20.21875 -1.421875 15.453125 -0.5625 
Q 10.6875 0.296875 5.421875 2 
L 5.421875 11.28125 
Q 10.40625 8.6875 15.234375 7.390625 
Q 20.0625 6.109375 24.8125 6.109375 
Q 31.15625 6.109375 34.5625 8.28125 
Q 37.984375 10.453125 37.984375 14.40625 
Q 37.984375 18.0625 35.515625 20.015625 
Q 33.0625 21.96875 24.703125 23.78125 
L 21.578125 24.515625 
Q 13.234375 26.265625 9.515625 29.90625 
Q 5.8125 33.546875 5.8125 39.890625 
Q 5.8125 47.609375 11.28125 51.796875 
Q 16.75 56 26.8125 56 
Q 31.78125 56 36.171875 55.265625 
Q 40.578125 54.546875 44.28125 53.078125 
z
" id="DejaVuSans-115"/>
    </defs>
    <use xlink:href="#DejaVuSans-66"/>
    <use x="68.603516" xlink:href="#DejaVuSans-114"/>
    <use x="107.466797" xlink:href="#DejaVuSans-111"/>
    <use x="168.648438" xlink:href="#DejaVuSans-110"/>
    <use x="232.027344" xlink:href="#DejaVuSans-58"/>
    <use x="265.71875" xlink:href="#DejaVuSans-32"/>
    <use x="297.505859" xlink:href="#DejaVuSans-104"/>
    <use x="360.884766" xlink:href="#DejaVuSans-116"/>
    <use x="400.09375" xlink:href="#DejaVuSans-116"/>
    <use x="439.302734" xlink:href="#DejaVuSans-112"/>
    <use x="502.779297" xlink:href="#DejaVuSans-115"/>
    <use x="554.878906" xlink:href="#DejaVuSans-58"/>
    <use x="588.570312" xlink:href="#DejaVuSans-47"/>
    <use x="622.261719" xlink:href="#DejaVuSans-47"/>
    <use x="655.953125" xlink:href="#DejaVuSans-100"/>
    <use x="719.429688" xlink:href="#DejaVuSans-97"/>
    <use x="780.708984" xlink:href="#DejaVuSans-116"/>
    <use x="819.917969" xlink:href="#DejaVuSans-97"/>
    <use x="881.197266" xlink:href="#DejaVuSans-46"/>
    <use x="912.984375" xlink:href="#DejaVuSans-114"/>
    <use x="954.097656" xlink:href="#DejaVuSans-105"/>
    <use x="981.880859" xlink:href="#DejaVuSans-118"/>
    <use x="1041.060547" xlink:href="#DejaVuSans-109"/>
    <use x="1138.472656" xlink:href="#DejaVuSans-46"/>
    <use x="1170.259766" xlink:href="#DejaVuSans-110"/>
    <use x="1233.638672" xlink:href="#DejaVuSans-108"/>
    <use x="1261.421875" xlink:href="#DejaVuSans-47"/>
    <use x="1295.113281" xlink:href="#DejaVuSans-99"/>
    <use x="1350.09375" xlink:href="#DejaVuSans-111"/>
    <use x="1411.275391" xlink:href="#DejaVuSans-118"/>
    <use x="1470.455078" xlink:href="#DejaVuSans-105"/>
    <use x="1498.238281" xlink:href="#DejaVuSans-100"/>
    <use x="1561.714844" xlink:href="#DejaVuSans-45"/>
    <use x="1597.798828" xlink:href="#DejaVuSans-49"/>
    <use x="1661.421875" xlink:href="#DejaVuSans-57"/>
   </g>
  </g>
  <g id="text_22">
   <g id="patch_8">
    <path d="M 637.2 176.62375 
L 647.38 176.62375 
L 647.38 168.88125 
L 637.2 168.88125 
z
" style="fill:#ffffff;opacity:0.9;stroke:#ffffff;stroke-linejoin:miter;"/>
   </g>
   <!-- 20 -->
   <g style="fill:#ff0000;" transform="translate(637.2 174.96)scale(0.08 -0.08)">
    <use xlink:href="#DejaVuSans-50"/>
    <use x="63.623047" xlink:href="#DejaVuSans-48"/>
   </g>
  </g>
  <g id="text_23">
   <g id="patch_9">
    <path d="M 176 92.479688 
L 303.317187 92.479688 
L 303.317187 74.801563 
L 176 74.801563 
z
" style="fill:#ffffff;stroke:#ffffff;stroke-linejoin:miter;"/>
   </g>
   <!-- "Je plee liegt niet" - Rolf -->
   <g style="fill:#808080;" transform="translate(180 86.4)scale(0.1 -0.1)">
    <defs>
     <path d="M 17.921875 72.90625 
L 17.921875 45.796875 
L 9.625 45.796875 
L 9.625 72.90625 
z
M 36.375 72.90625 
L 36.375 45.796875 
L 28.078125 45.796875 
L 28.078125 72.90625 
z
" id="DejaVuSans-34"/>
     <path d="M 9.8125 72.90625 
L 19.671875 72.90625 
L 19.671875 5.078125 
Q 19.671875 -8.109375 14.671875 -14.0625 
Q 9.671875 -20.015625 -1.421875 -20.015625 
L -5.171875 -20.015625 
L -5.171875 -11.71875 
L -2.09375 -11.71875 
Q 4.4375 -11.71875 7.125 -8.046875 
Q 9.8125 -4.390625 9.8125 5.078125 
z
" id="DejaVuSans-74"/>
    </defs>
    <use xlink:href="#DejaVuSans-34"/>
    <use x="45.996094" xlink:href="#DejaVuSans-74"/>
    <use x="75.488281" xlink:href="#DejaVuSans-101"/>
    <use x="137.011719" xlink:href="#DejaVuSans-32"/>
    <use x="168.798828" xlink:href="#DejaVuSans-112"/>
    <use x="232.275391" xlink:href="#DejaVuSans-108"/>
    <use x="260.058594" xlink:href="#DejaVuSans-101"/>
    <use x="321.582031" xlink:href="#DejaVuSans-101"/>
    <use x="383.105469" xlink:href="#DejaVuSans-32"/>
    <use x="414.892578" xlink:href="#DejaVuSans-108"/>
    <use x="442.675781" xlink:href="#DejaVuSans-105"/>
    <use x="470.458984" xlink:href="#DejaVuSans-101"/>
    <use x="531.982422" xlink:href="#DejaVuSans-103"/>
    <use x="595.458984" xlink:href="#DejaVuSans-116"/>
    <use x="634.667969" xlink:href="#DejaVuSans-32"/>
    <use x="666.455078" xlink:href="#DejaVuSans-110"/>
    <use x="729.833984" xlink:href="#DejaVuSans-105"/>
    <use x="757.617188" xlink:href="#DejaVuSans-101"/>
    <use x="819.140625" xlink:href="#DejaVuSans-116"/>
    <use x="858.349609" xlink:href="#DejaVuSans-34"/>
    <use x="904.345703" xlink:href="#DejaVuSans-32"/>
    <use x="936.132812" xlink:href="#DejaVuSans-45"/>
    <use x="972.216797" xlink:href="#DejaVuSans-32"/>
    <use x="1004.003906" xlink:href="#DejaVuSans-82"/>
    <use x="1068.986328" xlink:href="#DejaVuSans-111"/>
    <use x="1130.167969" xlink:href="#DejaVuSans-108"/>
    <use x="1157.951172" xlink:href="#DejaVuSans-102"/>
   </g>
  </g>
 </g>
 <defs>
  <clipPath id="pbab4149906">
   <rect height="146.88" width="590.4" x="64.8" y="25.92"/>
  </clipPath>
 </defs>
</svg>
