<?xml version="1.0" encoding="utf-8" standalone="no"?>
<!DOCTYPE svg PUBLIC "-//W3C//DTD SVG 1.1//EN"
  "http://www.w3.org/Graphics/SVG/1.1/DTD/svg11.dtd">
<!-- Created with matplotlib (https://matplotlib.org/) -->
<svg height="216pt" version="1.1" viewBox="0 0 720 216" width="720pt" xmlns="http://www.w3.org/2000/svg" xmlns:xlink="http://www.w3.org/1999/xlink">
 <metadata>
  <rdf:RDF xmlns:cc="http://creativecommons.org/ns#" xmlns:dc="http://purl.org/dc/elements/1.1/" xmlns:rdf="http://www.w3.org/1999/02/22-rdf-syntax-ns#">
   <cc:Work>
    <dc:type rdf:resource="http://purl.org/dc/dcmitype/StillImage"/>
    <dc:date>2021-02-25T23:22:39.233650</dc:date>
    <dc:format>image/svg+xml</dc:format>
    <dc:creator>
     <cc:Agent>
      <dc:title>Matplotlib v3.3.2, https://matplotlib.org/</dc:title>
     </cc:Agent>
    </dc:creator>
   </cc:Work>
  </rdf:RDF>
 </metadata>
 <defs>
  <style type="text/css">*{stroke-linecap:butt;stroke-linejoin:round;}</style>
 </defs>
 <g id="figure_1">
  <g id="patch_1">
   <path d="M 0 216 
L 720 216 
L 720 0 
L 0 0 
z
" style="fill:#ffffff;"/>
  </g>
  <g id="axes_1">
   <g id="patch_2">
    <path d="M 64.8 172.8 
L 655.2 172.8 
L 655.2 25.92 
L 64.8 25.92 
z
" style="fill:#ffffff;"/>
   </g>
   <g id="PolyCollection_1">
    <path clip-path="url(#p029240b5f4)" d="M 111.452861 172.8 
L 111.452861 172.8 
L 113.06158 172.8 
L 114.6703 172.8 
L 116.279019 172.8 
L 121.105177 172.8 
L 122.713896 172.8 
L 124.322616 172.8 
L 125.931335 172.8 
L 127.540054 172.8 
L 129.148774 172.8 
L 133.974932 172.8 
L 135.583651 172.8 
L 137.192371 172.8 
L 138.80109 172.8 
L 140.409809 172.8 
L 143.627248 172.8 
L 145.235967 172.8 
L 146.844687 172.8 
L 148.453406 172.8 
L 150.062125 172.8 
L 154.888283 172.8 
L 156.497003 172.8 
L 158.105722 172.8 
L 159.714441 172.8 
L 161.323161 172.8 
L 162.93188 172.8 
L 166.149319 172.8 
L 169.366757 172.8 
L 170.975477 172.8 
L 172.584196 172.8 
L 175.801635 172.8 
L 177.410354 172.8 
L 179.019074 172.8 
L 180.627793 172.8 
L 182.236512 172.8 
L 185.453951 172.8 
L 187.06267 172.8 
L 188.67139 172.8 
L 190.280109 172.8 
L 191.888828 172.8 
L 193.497548 172.8 
L 195.106267 172.8 
L 196.714986 172.8 
L 198.323706 172.8 
L 199.932425 172.8 
L 201.541144 172.8 
L 203.149864 172.8 
L 204.758583 172.8 
L 206.367302 172.8 
L 207.976022 172.8 
L 212.80218 172.8 
L 214.410899 172.8 
L 216.019619 172.8 
L 217.628338 172.8 
L 219.237057 172.8 
L 220.845777 172.8 
L 222.454496 172.8 
L 224.063215 172.8 
L 225.671935 172.8 
L 227.280654 172.8 
L 228.889373 172.8 
L 230.498093 172.8 
L 233.715531 172.8 
L 235.324251 172.8 
L 236.93297 172.8 
L 238.541689 172.8 
L 240.150409 172.8 
L 241.759128 172.8 
L 244.976567 172.8 
L 246.585286 172.8 
L 248.194005 172.8 
L 249.802725 172.8 
L 254.628883 172.8 
L 256.237602 172.8 
L 257.846322 172.8 
L 259.455041 172.8 
L 261.06376 172.8 
L 262.67248 172.8 
L 267.498638 172.8 
L 269.107357 172.8 
L 270.716076 172.8 
L 272.324796 172.8 
L 273.933515 172.8 
L 275.542234 172.8 
L 277.150954 172.8 
L 278.759673 172.8 
L 280.368392 172.8 
L 281.977112 172.8 
L 283.585831 172.8 
L 285.19455 172.8 
L 286.80327 172.8 
L 288.411989 172.8 
L 290.020708 172.8 
L 291.629428 172.8 
L 293.238147 172.8 
L 294.846866 172.8 
L 296.455586 172.8 
L 298.064305 172.8 
L 299.673025 172.8 
L 301.281744 172.8 
L 302.890463 172.8 
L 304.499183 172.8 
L 306.107902 172.8 
L 307.716621 172.8 
L 309.325341 172.8 
L 310.93406 172.8 
L 312.542779 172.8 
L 314.151499 172.8 
L 315.760218 172.8 
L 317.368937 172.8 
L 318.977657 172.8 
L 320.586376 172.8 
L 322.195095 172.8 
L 323.803815 172.8 
L 325.412534 172.8 
L 327.021253 172.8 
L 328.629973 172.8 
L 330.238692 172.8 
L 331.847411 172.8 
L 333.456131 172.8 
L 335.06485 172.8 
L 336.673569 172.8 
L 338.282289 172.8 
L 339.891008 172.8 
L 341.499728 172.8 
L 343.108447 172.8 
L 344.717166 172.8 
L 346.325886 172.8 
L 347.934605 172.8 
L 349.543324 172.8 
L 351.152044 172.8 
L 352.760763 172.8 
L 354.369482 172.8 
L 355.978202 172.8 
L 357.586921 172.8 
L 359.19564 172.8 
L 360.80436 172.8 
L 362.413079 172.8 
L 364.021798 172.8 
L 365.630518 172.8 
L 367.239237 172.8 
L 368.847956 172.8 
L 370.456676 172.8 
L 372.065395 172.8 
L 373.674114 172.8 
L 375.282834 172.8 
L 376.891553 172.8 
L 378.500272 172.8 
L 380.108992 172.8 
L 381.717711 172.8 
L 383.326431 172.8 
L 384.93515 172.8 
L 386.543869 172.8 
L 388.152589 172.8 
L 389.761308 172.8 
L 391.370027 172.8 
L 392.978747 172.8 
L 394.587466 172.8 
L 396.196185 172.8 
L 397.804905 172.8 
L 399.413624 172.8 
L 401.022343 172.8 
L 402.631063 172.8 
L 404.239782 172.8 
L 405.848501 172.8 
L 407.457221 172.8 
L 409.06594 172.8 
L 410.674659 172.8 
L 412.283379 172.8 
L 413.892098 172.8 
L 415.500817 172.8 
L 417.109537 172.8 
L 418.718256 172.8 
L 420.326975 172.8 
L 421.935695 172.8 
L 423.544414 172.8 
L 425.153134 172.8 
L 426.761853 172.8 
L 428.370572 172.8 
L 429.979292 172.8 
L 431.588011 172.8 
L 433.19673 172.8 
L 434.80545 172.8 
L 436.414169 172.8 
L 438.022888 172.8 
L 439.631608 172.8 
L 441.240327 172.8 
L 442.849046 172.8 
L 444.457766 172.8 
L 446.066485 172.8 
L 447.675204 172.8 
L 449.283924 172.8 
L 450.892643 172.8 
L 452.501362 172.8 
L 454.110082 172.8 
L 455.718801 172.8 
L 457.32752 172.8 
L 458.93624 172.8 
L 460.544959 172.8 
L 462.153678 172.8 
L 463.762398 172.8 
L 465.371117 172.8 
L 466.979837 172.8 
L 468.588556 172.8 
L 470.197275 172.8 
L 471.805995 172.8 
L 473.414714 172.8 
L 475.023433 172.8 
L 476.632153 172.8 
L 478.240872 172.8 
L 479.849591 172.8 
L 481.458311 172.8 
L 483.06703 172.8 
L 484.675749 172.8 
L 486.284469 172.8 
L 487.893188 172.8 
L 489.501907 172.8 
L 491.110627 172.8 
L 492.719346 172.8 
L 494.328065 172.8 
L 495.936785 172.8 
L 497.545504 172.8 
L 499.154223 172.8 
L 500.762943 172.8 
L 502.371662 172.8 
L 503.980381 172.8 
L 505.589101 172.8 
L 507.19782 172.8 
L 508.80654 172.8 
L 510.415259 172.8 
L 512.023978 172.8 
L 513.632698 172.8 
L 515.241417 172.8 
L 516.850136 172.8 
L 518.458856 172.8 
L 520.067575 172.8 
L 521.676294 172.8 
L 523.285014 172.8 
L 524.893733 172.8 
L 526.502452 172.8 
L 528.111172 172.8 
L 529.719891 172.8 
L 531.32861 172.8 
L 532.93733 172.8 
L 534.546049 172.8 
L 536.154768 172.8 
L 537.763488 172.8 
L 539.372207 172.8 
L 540.980926 172.8 
L 542.589646 172.8 
L 544.198365 172.8 
L 545.807084 172.8 
L 547.415804 172.8 
L 549.024523 172.8 
L 550.633243 172.8 
L 552.241962 172.8 
L 553.850681 172.8 
L 557.06812 172.8 
L 558.676839 172.8 
L 560.285559 172.8 
L 561.894278 172.8 
L 563.502997 172.8 
L 565.111717 172.8 
L 566.720436 172.8 
L 568.329155 172.8 
L 569.937875 172.8 
L 571.546594 172.8 
L 573.155313 172.8 
L 574.764033 172.8 
L 576.372752 172.8 
L 577.981471 172.8 
L 579.590191 172.8 
L 581.19891 172.8 
L 582.807629 172.8 
L 584.416349 172.8 
L 586.025068 172.8 
L 587.633787 172.8 
L 589.242507 172.8 
L 590.851226 172.8 
L 592.459946 172.8 
L 594.068665 172.8 
L 595.677384 172.8 
L 597.286104 172.8 
L 598.894823 172.8 
L 600.503542 172.8 
L 602.112262 172.8 
L 603.720981 172.8 
L 605.3297 172.8 
L 606.93842 172.8 
L 608.547139 172.8 
L 610.155858 172.8 
L 611.764578 172.8 
L 613.373297 172.8 
L 614.982016 172.8 
L 616.590736 172.8 
L 618.199455 172.8 
L 619.808174 172.8 
L 621.416894 172.8 
L 623.025613 172.8 
L 624.634332 172.8 
L 626.243052 172.8 
L 627.851771 172.8 
L 629.46049 172.8 
L 631.06921 172.8 
L 632.677929 172.8 
L 634.286649 172.8 
L 635.895368 172.8 
L 637.504087 172.8 
L 639.112807 172.8 
L 640.721526 172.8 
L 640.721526 172.8 
L 640.721526 126.505305 
L 639.112807 109.798503 
L 637.504087 125.471824 
L 635.895368 108.560988 
L 634.286649 122.211776 
L 632.677929 120.651057 
L 631.06921 122.849772 
L 629.46049 98.190557 
L 627.851771 132.130191 
L 626.243052 143.65931 
L 624.634332 132.108787 
L 623.025613 132.573623 
L 621.416894 145.18226 
L 619.808174 104.856893 
L 618.199455 141.36951 
L 616.590736 158.899454 
L 614.982016 118.439637 
L 613.373297 153.839314 
L 611.764578 138.219325 
L 610.155858 127.960357 
L 608.547139 112.524375 
L 606.93842 139.844659 
L 605.3297 140.837254 
L 603.720981 128.666353 
L 602.112262 1.280821 
L 600.503542 113.784935 
L 598.894823 120.828482 
L 597.286104 121.220812 
L 595.677384 119.144989 
L 594.068665 126.189098 
L 592.459946 129.224224 
L 590.851226 123.562011 
L 589.242507 116.854452 
L 587.633787 121.885235 
L 586.025068 78.267215 
L 584.416349 127.897183 
L 582.807629 95.589038 
L 581.19891 120.325364 
L 579.590191 120.015441 
L 577.981471 139.880346 
L 576.372752 120.447558 
L 574.764033 94.071051 
L 573.155313 102.783803 
L 571.546594 139.453996 
L 569.937875 144.317776 
L 568.329155 134.567865 
L 566.720436 100.197646 
L 565.111717 140.382421 
L 563.502997 138.712984 
L 561.894278 128.565763 
L 560.285559 143.045309 
L 558.676839 143.812021 
L 557.06812 148.376588 
L 553.850681 150.291121 
L 552.241962 124.206657 
L 550.633243 147.042668 
L 549.024523 114.863077 
L 547.415804 136.664303 
L 545.807084 110.459273 
L 544.198365 157.057675 
L 542.589646 88.722232 
L 540.980926 111.271794 
L 539.372207 76.100514 
L 537.763488 133.321298 
L 536.154768 139.788545 
L 534.546049 127.767451 
L 532.93733 133.505401 
L 531.32861 121.373999 
L 529.719891 113.504137 
L 528.111172 102.54445 
L 526.502452 127.012243 
L 524.893733 126.588095 
L 523.285014 136.417234 
L 521.676294 144.465025 
L 520.067575 132.290593 
L 518.458856 149.982194 
L 516.850136 143.635703 
L 515.241417 139.482826 
L 513.632698 155.670239 
L 512.023978 153.624158 
L 510.415259 134.721607 
L 508.80654 150.230811 
L 507.19782 133.076576 
L 505.589101 109.642754 
L 503.980381 146.424504 
L 502.371662 145.366229 
L 500.762943 138.680152 
L 499.154223 154.863039 
L 497.545504 159.381056 
L 495.936785 122.024046 
L 494.328065 151.400436 
L 492.719346 131.290624 
L 491.110627 150.542567 
L 489.501907 143.500902 
L 487.893188 152.523008 
L 486.284469 149.606718 
L 484.675749 135.373554 
L 483.06703 130.397878 
L 481.458311 41.5908 
L 479.849591 54.003948 
L 478.240872 79.046599 
L 476.632153 120.597331 
L 475.023433 127.218323 
L 473.414714 121.780998 
L 471.805995 113.021521 
L 470.197275 54.638579 
L 468.588556 90.415313 
L 466.979837 108.167616 
L 465.371117 118.971757 
L 463.762398 145.772707 
L 462.153678 132.624546 
L 460.544959 133.456809 
L 458.93624 78.547285 
L 457.32752 63.127379 
L 455.718801 128.810649 
L 454.110082 95.432572 
L 452.501362 4.849171 
L 450.892643 39.731662 
L 449.283924 120.892105 
L 447.675204 63.705359 
L 446.066485 113.222745 
L 444.457766 106.471134 
L 442.849046 140.532582 
L 441.240327 -30.038855 
L 439.631608 99.304119 
L 438.022888 125.583538 
L 436.414169 99.330112 
L 434.80545 108.850132 
L 433.19673 93.807777 
L 431.588011 137.21988 
L 429.979292 125.806034 
L 428.370572 136.264145 
L 426.761853 139.489849 
L 425.153134 64.889044 
L 423.544414 62.885998 
L 421.935695 106.811088 
L 420.326975 111.227631 
L 418.718256 103.308732 
L 417.109537 120.218446 
L 415.500817 115.445912 
L 413.892098 29.686752 
L 412.283379 127.723001 
L 410.674659 98.117606 
L 409.06594 128.919088 
L 407.457221 150.840413 
L 405.848501 145.569958 
L 404.239782 140.543524 
L 402.631063 135.877842 
L 401.022343 145.675757 
L 399.413624 162.905643 
L 397.804905 156.458861 
L 396.196185 159.838765 
L 394.587466 154.309652 
L 392.978747 163.848538 
L 391.370027 156.876753 
L 389.761308 164.874131 
L 388.152589 161.570262 
L 386.543869 160.632002 
L 384.93515 161.045364 
L 383.326431 167.109425 
L 381.717711 156.403405 
L 380.108992 165.75282 
L 378.500272 166.970595 
L 376.891553 165.968136 
L 375.282834 162.309895 
L 373.674114 163.988325 
L 372.065395 167.007309 
L 370.456676 166.068374 
L 368.847956 152.183653 
L 367.239237 169.50744 
L 365.630518 164.70018 
L 364.021798 168.72408 
L 362.413079 169.373565 
L 360.80436 169.518701 
L 359.19564 164.291976 
L 357.586921 170.979737 
L 355.978202 167.2002 
L 354.369482 165.610224 
L 352.760763 171.35568 
L 351.152044 170.983158 
L 349.543324 167.893889 
L 347.934605 163.35684 
L 346.325886 160.866 
L 344.717166 164.7216 
L 343.108447 159.01776 
L 341.499728 169.128 
L 339.891008 167.419646 
L 338.282289 166.94928 
L 336.673569 165.096144 
L 335.06485 166.605795 
L 333.456131 162.396 
L 331.847411 160.84764 
L 330.238692 157.07925 
L 328.629973 169.38504 
L 327.021253 161.194731 
L 325.412534 163.00494 
L 323.803815 160.61814 
L 322.195095 172.8 
L 320.586376 168.419829 
L 318.977657 170.54784 
L 317.368937 168.755151 
L 315.760218 166.656462 
L 314.151499 151.993113 
L 312.542779 149.490144 
L 310.93406 167.137776 
L 309.325341 165.56616 
L 307.716621 167.7816 
L 306.107902 166.375749 
L 304.499183 166.9248 
L 302.890463 159.083668 
L 301.281744 166.10778 
L 299.673025 165.89664 
L 298.064305 169.59618 
L 296.455586 168.26814 
L 294.846866 171.4026 
L 293.238147 162.12366 
L 291.629428 169.303126 
L 290.020708 167.96214 
L 288.411989 170.207568 
L 286.80327 172.8 
L 285.19455 170.4132 
L 283.585831 172.8 
L 281.977112 172.080288 
L 280.368392 169.95879 
L 278.759673 172.8 
L 277.150954 172.8 
L 275.542234 172.8 
L 273.933515 172.8 
L 272.324796 171.75552 
L 270.716076 172.16658 
L 269.107357 170.67024 
L 267.498638 172.8 
L 262.67248 171.22104 
L 261.06376 172.8 
L 259.455041 172.58886 
L 257.846322 171.1935 
L 256.237602 171.17973 
L 254.628883 171.06192 
L 249.802725 172.8 
L 248.194005 171.742464 
L 246.585286 172.0656 
L 244.976567 169.89912 
L 241.759128 172.8 
L 240.150409 172.8 
L 238.541689 171.78 
L 236.93297 167.45112 
L 235.324251 171.163337 
L 233.715531 168.28344 
L 230.498093 172.8 
L 228.889373 160.9272 
L 227.280654 168.91992 
L 225.671935 169.91748 
L 224.063215 166.8636 
L 222.454496 171.68616 
L 220.845777 172.45116 
L 219.237057 170.79876 
L 217.628338 172.341 
L 216.019619 161.091566 
L 214.410899 167.33484 
L 212.80218 168.78834 
L 207.976022 171.50256 
L 206.367302 170.97624 
L 204.758583 155.00916 
L 203.149864 169.993543 
L 201.541144 164.875824 
L 199.932425 160.64568 
L 198.323706 170.48664 
L 196.714986 171.47808 
L 195.106267 155.33964 
L 193.497548 170.30304 
L 191.888828 169.23357 
L 190.280109 165.05208 
L 188.67139 163.19772 
L 187.06267 170.89056 
L 185.453951 163.0692 
L 182.236512 168.004368 
L 180.627793 170.1378 
L 179.019074 163.294766 
L 177.410354 165.85074 
L 175.801635 164.64816 
L 172.584196 166.96152 
L 170.975477 161.9064 
L 169.366757 161.940895 
L 166.149319 162.73872 
L 162.93188 170.70696 
L 161.323161 163.0692 
L 159.714441 162.301418 
L 158.105722 162.97536 
L 156.497003 155.233152 
L 154.888283 167.8428 
L 150.062125 58.45392 
L 148.453406 140.00088 
L 146.844687 159.65883 
L 145.235967 163.64448 
L 143.627248 161.6922 
L 140.409809 171.62496 
L 138.80109 156.870864 
L 137.192371 150.79095 
L 135.583651 162.40212 
L 133.974932 127.456046 
L 129.148774 140.04576 
L 127.540054 122.62212 
L 125.931335 107.928 
L 124.322616 141.895113 
L 122.713896 109.53144 
L 121.105177 105.2964 
L 116.279019 59.84928 
L 114.6703 120.99624 
L 113.06158 136.657029 
L 111.452861 105.34536 
z
" style="fill:#008000;fill-opacity:0.3;"/>
   </g>
   <g id="matplotlib.axis_1">
    <g id="xtick_1">
     <g id="line2d_1">
      <path clip-path="url(#p029240b5f4)" d="M 64.8 172.8 
L 64.8 25.92 
" style="fill:none;stroke:#808080;stroke-dasharray:6.4,1.6,1,1.6;stroke-dashoffset:0;stroke-opacity:0.3;"/>
     </g>
     <g id="line2d_2">
      <defs>
       <path d="M 0 0 
L 0 3.5 
" id="m5dbd8c502d" style="stroke:#000000;stroke-width:0.8;"/>
      </defs>
      <g>
       <use style="stroke:#000000;stroke-width:0.8;" x="64.8" xlink:href="#m5dbd8c502d" y="172.8"/>
      </g>
     </g>
     <g id="text_1">
      <!-- 2020-03 -->
      <g transform="translate(43.908594 187.398438)scale(0.1 -0.1)">
       <defs>
        <path d="M 19.1875 8.296875 
L 53.609375 8.296875 
L 53.609375 0 
L 7.328125 0 
L 7.328125 8.296875 
Q 12.9375 14.109375 22.625 23.890625 
Q 32.328125 33.6875 34.8125 36.53125 
Q 39.546875 41.84375 41.421875 45.53125 
Q 43.3125 49.21875 43.3125 52.78125 
Q 43.3125 58.59375 39.234375 62.25 
Q 35.15625 65.921875 28.609375 65.921875 
Q 23.96875 65.921875 18.8125 64.3125 
Q 13.671875 62.703125 7.8125 59.421875 
L 7.8125 69.390625 
Q 13.765625 71.78125 18.9375 73 
Q 24.125 74.21875 28.421875 74.21875 
Q 39.75 74.21875 46.484375 68.546875 
Q 53.21875 62.890625 53.21875 53.421875 
Q 53.21875 48.921875 51.53125 44.890625 
Q 49.859375 40.875 45.40625 35.40625 
Q 44.1875 33.984375 37.640625 27.21875 
Q 31.109375 20.453125 19.1875 8.296875 
z
" id="DejaVuSans-50"/>
        <path d="M 31.78125 66.40625 
Q 24.171875 66.40625 20.328125 58.90625 
Q 16.5 51.421875 16.5 36.375 
Q 16.5 21.390625 20.328125 13.890625 
Q 24.171875 6.390625 31.78125 6.390625 
Q 39.453125 6.390625 43.28125 13.890625 
Q 47.125 21.390625 47.125 36.375 
Q 47.125 51.421875 43.28125 58.90625 
Q 39.453125 66.40625 31.78125 66.40625 
z
M 31.78125 74.21875 
Q 44.046875 74.21875 50.515625 64.515625 
Q 56.984375 54.828125 56.984375 36.375 
Q 56.984375 17.96875 50.515625 8.265625 
Q 44.046875 -1.421875 31.78125 -1.421875 
Q 19.53125 -1.421875 13.0625 8.265625 
Q 6.59375 17.96875 6.59375 36.375 
Q 6.59375 54.828125 13.0625 64.515625 
Q 19.53125 74.21875 31.78125 74.21875 
z
" id="DejaVuSans-48"/>
        <path d="M 4.890625 31.390625 
L 31.203125 31.390625 
L 31.203125 23.390625 
L 4.890625 23.390625 
z
" id="DejaVuSans-45"/>
        <path d="M 40.578125 39.3125 
Q 47.65625 37.796875 51.625 33 
Q 55.609375 28.21875 55.609375 21.1875 
Q 55.609375 10.40625 48.1875 4.484375 
Q 40.765625 -1.421875 27.09375 -1.421875 
Q 22.515625 -1.421875 17.65625 -0.515625 
Q 12.796875 0.390625 7.625 2.203125 
L 7.625 11.71875 
Q 11.71875 9.328125 16.59375 8.109375 
Q 21.484375 6.890625 26.8125 6.890625 
Q 36.078125 6.890625 40.9375 10.546875 
Q 45.796875 14.203125 45.796875 21.1875 
Q 45.796875 27.640625 41.28125 31.265625 
Q 36.765625 34.90625 28.71875 34.90625 
L 20.21875 34.90625 
L 20.21875 43.015625 
L 29.109375 43.015625 
Q 36.375 43.015625 40.234375 45.921875 
Q 44.09375 48.828125 44.09375 54.296875 
Q 44.09375 59.90625 40.109375 62.90625 
Q 36.140625 65.921875 28.71875 65.921875 
Q 24.65625 65.921875 20.015625 65.03125 
Q 15.375 64.15625 9.8125 62.3125 
L 9.8125 71.09375 
Q 15.4375 72.65625 20.34375 73.4375 
Q 25.25 74.21875 29.59375 74.21875 
Q 40.828125 74.21875 47.359375 69.109375 
Q 53.90625 64.015625 53.90625 55.328125 
Q 53.90625 49.265625 50.4375 45.09375 
Q 46.96875 40.921875 40.578125 39.3125 
z
" id="DejaVuSans-51"/>
       </defs>
       <use xlink:href="#DejaVuSans-50"/>
       <use x="63.623047" xlink:href="#DejaVuSans-48"/>
       <use x="127.246094" xlink:href="#DejaVuSans-50"/>
       <use x="190.869141" xlink:href="#DejaVuSans-48"/>
       <use x="254.492188" xlink:href="#DejaVuSans-45"/>
       <use x="290.576172" xlink:href="#DejaVuSans-48"/>
       <use x="354.199219" xlink:href="#DejaVuSans-51"/>
      </g>
     </g>
    </g>
    <g id="xtick_2">
     <g id="line2d_3">
      <path clip-path="url(#p029240b5f4)" d="M 162.93188 172.8 
L 162.93188 25.92 
" style="fill:none;stroke:#808080;stroke-dasharray:6.4,1.6,1,1.6;stroke-dashoffset:0;stroke-opacity:0.3;"/>
     </g>
     <g id="line2d_4">
      <g>
       <use style="stroke:#000000;stroke-width:0.8;" x="162.93188" xlink:href="#m5dbd8c502d" y="172.8"/>
      </g>
     </g>
     <g id="text_2">
      <!-- 2020-05 -->
      <g transform="translate(142.040474 187.398438)scale(0.1 -0.1)">
       <defs>
        <path d="M 10.796875 72.90625 
L 49.515625 72.90625 
L 49.515625 64.59375 
L 19.828125 64.59375 
L 19.828125 46.734375 
Q 21.96875 47.46875 24.109375 47.828125 
Q 26.265625 48.1875 28.421875 48.1875 
Q 40.625 48.1875 47.75 41.5 
Q 54.890625 34.8125 54.890625 23.390625 
Q 54.890625 11.625 47.5625 5.09375 
Q 40.234375 -1.421875 26.90625 -1.421875 
Q 22.3125 -1.421875 17.546875 -0.640625 
Q 12.796875 0.140625 7.71875 1.703125 
L 7.71875 11.625 
Q 12.109375 9.234375 16.796875 8.0625 
Q 21.484375 6.890625 26.703125 6.890625 
Q 35.15625 6.890625 40.078125 11.328125 
Q 45.015625 15.765625 45.015625 23.390625 
Q 45.015625 31 40.078125 35.4375 
Q 35.15625 39.890625 26.703125 39.890625 
Q 22.75 39.890625 18.8125 39.015625 
Q 14.890625 38.140625 10.796875 36.28125 
z
" id="DejaVuSans-53"/>
       </defs>
       <use xlink:href="#DejaVuSans-50"/>
       <use x="63.623047" xlink:href="#DejaVuSans-48"/>
       <use x="127.246094" xlink:href="#DejaVuSans-50"/>
       <use x="190.869141" xlink:href="#DejaVuSans-48"/>
       <use x="254.492188" xlink:href="#DejaVuSans-45"/>
       <use x="290.576172" xlink:href="#DejaVuSans-48"/>
       <use x="354.199219" xlink:href="#DejaVuSans-53"/>
      </g>
     </g>
    </g>
    <g id="xtick_3">
     <g id="line2d_5">
      <path clip-path="url(#p029240b5f4)" d="M 261.06376 172.8 
L 261.06376 25.92 
" style="fill:none;stroke:#808080;stroke-dasharray:6.4,1.6,1,1.6;stroke-dashoffset:0;stroke-opacity:0.3;"/>
     </g>
     <g id="line2d_6">
      <g>
       <use style="stroke:#000000;stroke-width:0.8;" x="261.06376" xlink:href="#m5dbd8c502d" y="172.8"/>
      </g>
     </g>
     <g id="text_3">
      <!-- 2020-07 -->
      <g transform="translate(240.172354 187.398438)scale(0.1 -0.1)">
       <defs>
        <path d="M 8.203125 72.90625 
L 55.078125 72.90625 
L 55.078125 68.703125 
L 28.609375 0 
L 18.3125 0 
L 43.21875 64.59375 
L 8.203125 64.59375 
z
" id="DejaVuSans-55"/>
       </defs>
       <use xlink:href="#DejaVuSans-50"/>
       <use x="63.623047" xlink:href="#DejaVuSans-48"/>
       <use x="127.246094" xlink:href="#DejaVuSans-50"/>
       <use x="190.869141" xlink:href="#DejaVuSans-48"/>
       <use x="254.492188" xlink:href="#DejaVuSans-45"/>
       <use x="290.576172" xlink:href="#DejaVuSans-48"/>
       <use x="354.199219" xlink:href="#DejaVuSans-55"/>
      </g>
     </g>
    </g>
    <g id="xtick_4">
     <g id="line2d_7">
      <path clip-path="url(#p029240b5f4)" d="M 360.80436 172.8 
L 360.80436 25.92 
" style="fill:none;stroke:#808080;stroke-dasharray:6.4,1.6,1,1.6;stroke-dashoffset:0;stroke-opacity:0.3;"/>
     </g>
     <g id="line2d_8">
      <g>
       <use style="stroke:#000000;stroke-width:0.8;" x="360.80436" xlink:href="#m5dbd8c502d" y="172.8"/>
      </g>
     </g>
     <g id="text_4">
      <!-- 2020-09 -->
      <g transform="translate(339.912953 187.398438)scale(0.1 -0.1)">
       <defs>
        <path d="M 10.984375 1.515625 
L 10.984375 10.5 
Q 14.703125 8.734375 18.5 7.8125 
Q 22.3125 6.890625 25.984375 6.890625 
Q 35.75 6.890625 40.890625 13.453125 
Q 46.046875 20.015625 46.78125 33.40625 
Q 43.953125 29.203125 39.59375 26.953125 
Q 35.25 24.703125 29.984375 24.703125 
Q 19.046875 24.703125 12.671875 31.3125 
Q 6.296875 37.9375 6.296875 49.421875 
Q 6.296875 60.640625 12.9375 67.421875 
Q 19.578125 74.21875 30.609375 74.21875 
Q 43.265625 74.21875 49.921875 64.515625 
Q 56.59375 54.828125 56.59375 36.375 
Q 56.59375 19.140625 48.40625 8.859375 
Q 40.234375 -1.421875 26.421875 -1.421875 
Q 22.703125 -1.421875 18.890625 -0.6875 
Q 15.09375 0.046875 10.984375 1.515625 
z
M 30.609375 32.421875 
Q 37.25 32.421875 41.125 36.953125 
Q 45.015625 41.5 45.015625 49.421875 
Q 45.015625 57.28125 41.125 61.84375 
Q 37.25 66.40625 30.609375 66.40625 
Q 23.96875 66.40625 20.09375 61.84375 
Q 16.21875 57.28125 16.21875 49.421875 
Q 16.21875 41.5 20.09375 36.953125 
Q 23.96875 32.421875 30.609375 32.421875 
z
" id="DejaVuSans-57"/>
       </defs>
       <use xlink:href="#DejaVuSans-50"/>
       <use x="63.623047" xlink:href="#DejaVuSans-48"/>
       <use x="127.246094" xlink:href="#DejaVuSans-50"/>
       <use x="190.869141" xlink:href="#DejaVuSans-48"/>
       <use x="254.492188" xlink:href="#DejaVuSans-45"/>
       <use x="290.576172" xlink:href="#DejaVuSans-48"/>
       <use x="354.199219" xlink:href="#DejaVuSans-57"/>
      </g>
     </g>
    </g>
    <g id="xtick_5">
     <g id="line2d_9">
      <path clip-path="url(#p029240b5f4)" d="M 458.93624 172.8 
L 458.93624 25.92 
" style="fill:none;stroke:#808080;stroke-dasharray:6.4,1.6,1,1.6;stroke-dashoffset:0;stroke-opacity:0.3;"/>
     </g>
     <g id="line2d_10">
      <g>
       <use style="stroke:#000000;stroke-width:0.8;" x="458.93624" xlink:href="#m5dbd8c502d" y="172.8"/>
      </g>
     </g>
     <g id="text_5">
      <!-- 2020-11 -->
      <g transform="translate(438.044834 187.398438)scale(0.1 -0.1)">
       <defs>
        <path d="M 12.40625 8.296875 
L 28.515625 8.296875 
L 28.515625 63.921875 
L 10.984375 60.40625 
L 10.984375 69.390625 
L 28.421875 72.90625 
L 38.28125 72.90625 
L 38.28125 8.296875 
L 54.390625 8.296875 
L 54.390625 0 
L 12.40625 0 
z
" id="DejaVuSans-49"/>
       </defs>
       <use xlink:href="#DejaVuSans-50"/>
       <use x="63.623047" xlink:href="#DejaVuSans-48"/>
       <use x="127.246094" xlink:href="#DejaVuSans-50"/>
       <use x="190.869141" xlink:href="#DejaVuSans-48"/>
       <use x="254.492188" xlink:href="#DejaVuSans-45"/>
       <use x="290.576172" xlink:href="#DejaVuSans-49"/>
       <use x="354.199219" xlink:href="#DejaVuSans-49"/>
      </g>
     </g>
    </g>
    <g id="xtick_6">
     <g id="line2d_11">
      <path clip-path="url(#p029240b5f4)" d="M 557.06812 172.8 
L 557.06812 25.92 
" style="fill:none;stroke:#808080;stroke-dasharray:6.4,1.6,1,1.6;stroke-dashoffset:0;stroke-opacity:0.3;"/>
     </g>
     <g id="line2d_12">
      <g>
       <use style="stroke:#000000;stroke-width:0.8;" x="557.06812" xlink:href="#m5dbd8c502d" y="172.8"/>
      </g>
     </g>
     <g id="text_6">
      <!-- 2021-01 -->
      <g transform="translate(536.176714 187.398438)scale(0.1 -0.1)">
       <use xlink:href="#DejaVuSans-50"/>
       <use x="63.623047" xlink:href="#DejaVuSans-48"/>
       <use x="127.246094" xlink:href="#DejaVuSans-50"/>
       <use x="190.869141" xlink:href="#DejaVuSans-49"/>
       <use x="254.492188" xlink:href="#DejaVuSans-45"/>
       <use x="290.576172" xlink:href="#DejaVuSans-48"/>
       <use x="354.199219" xlink:href="#DejaVuSans-49"/>
      </g>
     </g>
    </g>
    <g id="xtick_7">
     <g id="line2d_13">
      <path clip-path="url(#p029240b5f4)" d="M 651.982561 172.8 
L 651.982561 25.92 
" style="fill:none;stroke:#808080;stroke-dasharray:6.4,1.6,1,1.6;stroke-dashoffset:0;stroke-opacity:0.3;"/>
     </g>
     <g id="line2d_14">
      <g>
       <use style="stroke:#000000;stroke-width:0.8;" x="651.982561" xlink:href="#m5dbd8c502d" y="172.8"/>
      </g>
     </g>
     <g id="text_7">
      <!-- 2021-03 -->
      <g transform="translate(631.091155 187.398438)scale(0.1 -0.1)">
       <use xlink:href="#DejaVuSans-50"/>
       <use x="63.623047" xlink:href="#DejaVuSans-48"/>
       <use x="127.246094" xlink:href="#DejaVuSans-50"/>
       <use x="190.869141" xlink:href="#DejaVuSans-49"/>
       <use x="254.492188" xlink:href="#DejaVuSans-45"/>
       <use x="290.576172" xlink:href="#DejaVuSans-48"/>
       <use x="354.199219" xlink:href="#DejaVuSans-51"/>
      </g>
     </g>
    </g>
    <g id="text_8">
     <!-- Datum -->
     <g transform="translate(343.086719 201.076562)scale(0.1 -0.1)">
      <defs>
       <path d="M 19.671875 64.796875 
L 19.671875 8.109375 
L 31.59375 8.109375 
Q 46.6875 8.109375 53.6875 14.9375 
Q 60.6875 21.78125 60.6875 36.53125 
Q 60.6875 51.171875 53.6875 57.984375 
Q 46.6875 64.796875 31.59375 64.796875 
z
M 9.8125 72.90625 
L 30.078125 72.90625 
Q 51.265625 72.90625 61.171875 64.09375 
Q 71.09375 55.28125 71.09375 36.53125 
Q 71.09375 17.671875 61.125 8.828125 
Q 51.171875 0 30.078125 0 
L 9.8125 0 
z
" id="DejaVuSans-68"/>
       <path d="M 34.28125 27.484375 
Q 23.390625 27.484375 19.1875 25 
Q 14.984375 22.515625 14.984375 16.5 
Q 14.984375 11.71875 18.140625 8.90625 
Q 21.296875 6.109375 26.703125 6.109375 
Q 34.1875 6.109375 38.703125 11.40625 
Q 43.21875 16.703125 43.21875 25.484375 
L 43.21875 27.484375 
z
M 52.203125 31.203125 
L 52.203125 0 
L 43.21875 0 
L 43.21875 8.296875 
Q 40.140625 3.328125 35.546875 0.953125 
Q 30.953125 -1.421875 24.3125 -1.421875 
Q 15.921875 -1.421875 10.953125 3.296875 
Q 6 8.015625 6 15.921875 
Q 6 25.140625 12.171875 29.828125 
Q 18.359375 34.515625 30.609375 34.515625 
L 43.21875 34.515625 
L 43.21875 35.40625 
Q 43.21875 41.609375 39.140625 45 
Q 35.0625 48.390625 27.6875 48.390625 
Q 23 48.390625 18.546875 47.265625 
Q 14.109375 46.140625 10.015625 43.890625 
L 10.015625 52.203125 
Q 14.9375 54.109375 19.578125 55.046875 
Q 24.21875 56 28.609375 56 
Q 40.484375 56 46.34375 49.84375 
Q 52.203125 43.703125 52.203125 31.203125 
z
" id="DejaVuSans-97"/>
       <path d="M 18.3125 70.21875 
L 18.3125 54.6875 
L 36.8125 54.6875 
L 36.8125 47.703125 
L 18.3125 47.703125 
L 18.3125 18.015625 
Q 18.3125 11.328125 20.140625 9.421875 
Q 21.96875 7.515625 27.59375 7.515625 
L 36.8125 7.515625 
L 36.8125 0 
L 27.59375 0 
Q 17.1875 0 13.234375 3.875 
Q 9.28125 7.765625 9.28125 18.015625 
L 9.28125 47.703125 
L 2.6875 47.703125 
L 2.6875 54.6875 
L 9.28125 54.6875 
L 9.28125 70.21875 
z
" id="DejaVuSans-116"/>
       <path d="M 8.5 21.578125 
L 8.5 54.6875 
L 17.484375 54.6875 
L 17.484375 21.921875 
Q 17.484375 14.15625 20.5 10.265625 
Q 23.53125 6.390625 29.59375 6.390625 
Q 36.859375 6.390625 41.078125 11.03125 
Q 45.3125 15.671875 45.3125 23.6875 
L 45.3125 54.6875 
L 54.296875 54.6875 
L 54.296875 0 
L 45.3125 0 
L 45.3125 8.40625 
Q 42.046875 3.421875 37.71875 1 
Q 33.40625 -1.421875 27.6875 -1.421875 
Q 18.265625 -1.421875 13.375 4.4375 
Q 8.5 10.296875 8.5 21.578125 
z
M 31.109375 56 
z
" id="DejaVuSans-117"/>
       <path d="M 52 44.1875 
Q 55.375 50.25 60.0625 53.125 
Q 64.75 56 71.09375 56 
Q 79.640625 56 84.28125 50.015625 
Q 88.921875 44.046875 88.921875 33.015625 
L 88.921875 0 
L 79.890625 0 
L 79.890625 32.71875 
Q 79.890625 40.578125 77.09375 44.375 
Q 74.3125 48.1875 68.609375 48.1875 
Q 61.625 48.1875 57.5625 43.546875 
Q 53.515625 38.921875 53.515625 30.90625 
L 53.515625 0 
L 44.484375 0 
L 44.484375 32.71875 
Q 44.484375 40.625 41.703125 44.40625 
Q 38.921875 48.1875 33.109375 48.1875 
Q 26.21875 48.1875 22.15625 43.53125 
Q 18.109375 38.875 18.109375 30.90625 
L 18.109375 0 
L 9.078125 0 
L 9.078125 54.6875 
L 18.109375 54.6875 
L 18.109375 46.1875 
Q 21.1875 51.21875 25.484375 53.609375 
Q 29.78125 56 35.6875 56 
Q 41.65625 56 45.828125 52.96875 
Q 50 49.953125 52 44.1875 
z
" id="DejaVuSans-109"/>
      </defs>
      <use xlink:href="#DejaVuSans-68"/>
      <use x="77.001953" xlink:href="#DejaVuSans-97"/>
      <use x="138.28125" xlink:href="#DejaVuSans-116"/>
      <use x="177.490234" xlink:href="#DejaVuSans-117"/>
      <use x="240.869141" xlink:href="#DejaVuSans-109"/>
     </g>
    </g>
   </g>
   <g id="matplotlib.axis_2">
    <g id="ytick_1">
     <g id="line2d_15">
      <path clip-path="url(#p029240b5f4)" d="M 64.8 172.8 
L 655.2 172.8 
" style="fill:none;stroke:#808080;stroke-dasharray:6.4,1.6,1,1.6;stroke-dashoffset:0;stroke-opacity:0.3;"/>
     </g>
     <g id="line2d_16">
      <defs>
       <path d="M 0 0 
L -3.5 0 
" id="mf51d340e59" style="stroke:#000000;stroke-width:0.8;"/>
      </defs>
      <g>
       <use style="stroke:#000000;stroke-width:0.8;" x="64.8" xlink:href="#mf51d340e59" y="172.8"/>
      </g>
     </g>
     <g id="text_9">
      <!-- 0 -->
      <g transform="translate(51.4375 176.599219)scale(0.1 -0.1)">
       <use xlink:href="#DejaVuSans-48"/>
      </g>
     </g>
    </g>
    <g id="ytick_2">
     <g id="line2d_17">
      <path clip-path="url(#p029240b5f4)" d="M 64.8 136.08 
L 655.2 136.08 
" style="fill:none;stroke:#808080;stroke-dasharray:6.4,1.6,1,1.6;stroke-dashoffset:0;stroke-opacity:0.3;"/>
     </g>
     <g id="line2d_18">
      <g>
       <use style="stroke:#000000;stroke-width:0.8;" x="64.8" xlink:href="#mf51d340e59" y="136.08"/>
      </g>
     </g>
     <g id="text_10">
      <!-- 1000 -->
      <g transform="translate(32.35 139.879219)scale(0.1 -0.1)">
       <use xlink:href="#DejaVuSans-49"/>
       <use x="63.623047" xlink:href="#DejaVuSans-48"/>
       <use x="127.246094" xlink:href="#DejaVuSans-48"/>
       <use x="190.869141" xlink:href="#DejaVuSans-48"/>
      </g>
     </g>
    </g>
    <g id="ytick_3">
     <g id="line2d_19">
      <path clip-path="url(#p029240b5f4)" d="M 64.8 99.36 
L 655.2 99.36 
" style="fill:none;stroke:#808080;stroke-dasharray:6.4,1.6,1,1.6;stroke-dashoffset:0;stroke-opacity:0.3;"/>
     </g>
     <g id="line2d_20">
      <g>
       <use style="stroke:#000000;stroke-width:0.8;" x="64.8" xlink:href="#mf51d340e59" y="99.36"/>
      </g>
     </g>
     <g id="text_11">
      <!-- 2000 -->
      <g transform="translate(32.35 103.159219)scale(0.1 -0.1)">
       <use xlink:href="#DejaVuSans-50"/>
       <use x="63.623047" xlink:href="#DejaVuSans-48"/>
       <use x="127.246094" xlink:href="#DejaVuSans-48"/>
       <use x="190.869141" xlink:href="#DejaVuSans-48"/>
      </g>
     </g>
    </g>
    <g id="ytick_4">
     <g id="line2d_21">
      <path clip-path="url(#p029240b5f4)" d="M 64.8 62.64 
L 655.2 62.64 
" style="fill:none;stroke:#808080;stroke-dasharray:6.4,1.6,1,1.6;stroke-dashoffset:0;stroke-opacity:0.3;"/>
     </g>
     <g id="line2d_22">
      <g>
       <use style="stroke:#000000;stroke-width:0.8;" x="64.8" xlink:href="#mf51d340e59" y="62.64"/>
      </g>
     </g>
     <g id="text_12">
      <!-- 3000 -->
      <g transform="translate(32.35 66.439219)scale(0.1 -0.1)">
       <use xlink:href="#DejaVuSans-51"/>
       <use x="63.623047" xlink:href="#DejaVuSans-48"/>
       <use x="127.246094" xlink:href="#DejaVuSans-48"/>
       <use x="190.869141" xlink:href="#DejaVuSans-48"/>
      </g>
     </g>
    </g>
    <g id="ytick_5">
     <g id="line2d_23">
      <path clip-path="url(#p029240b5f4)" d="M 64.8 25.92 
L 655.2 25.92 
" style="fill:none;stroke:#808080;stroke-dasharray:6.4,1.6,1,1.6;stroke-dashoffset:0;stroke-opacity:0.3;"/>
     </g>
     <g id="line2d_24">
      <g>
       <use style="stroke:#000000;stroke-width:0.8;" x="64.8" xlink:href="#mf51d340e59" y="25.92"/>
      </g>
     </g>
     <g id="text_13">
      <!-- 4000 -->
      <g transform="translate(32.35 29.719219)scale(0.1 -0.1)">
       <defs>
        <path d="M 37.796875 64.3125 
L 12.890625 25.390625 
L 37.796875 25.390625 
z
M 35.203125 72.90625 
L 47.609375 72.90625 
L 47.609375 25.390625 
L 58.015625 25.390625 
L 58.015625 17.1875 
L 47.609375 17.1875 
L 47.609375 0 
L 37.796875 0 
L 37.796875 17.1875 
L 4.890625 17.1875 
L 4.890625 26.703125 
z
" id="DejaVuSans-52"/>
       </defs>
       <use xlink:href="#DejaVuSans-52"/>
       <use x="63.623047" xlink:href="#DejaVuSans-48"/>
       <use x="127.246094" xlink:href="#DejaVuSans-48"/>
       <use x="190.869141" xlink:href="#DejaVuSans-48"/>
      </g>
     </g>
    </g>
    <g id="text_14">
     <!-- RNA per milliliter -->
     <g transform="translate(26.270312 141.776406)rotate(-90)scale(0.1 -0.1)">
      <defs>
       <path d="M 44.390625 34.1875 
Q 47.5625 33.109375 50.5625 29.59375 
Q 53.5625 26.078125 56.59375 19.921875 
L 66.609375 0 
L 56 0 
L 46.6875 18.703125 
Q 43.0625 26.03125 39.671875 28.421875 
Q 36.28125 30.8125 30.421875 30.8125 
L 19.671875 30.8125 
L 19.671875 0 
L 9.8125 0 
L 9.8125 72.90625 
L 32.078125 72.90625 
Q 44.578125 72.90625 50.734375 67.671875 
Q 56.890625 62.453125 56.890625 51.90625 
Q 56.890625 45.015625 53.6875 40.46875 
Q 50.484375 35.9375 44.390625 34.1875 
z
M 19.671875 64.796875 
L 19.671875 38.921875 
L 32.078125 38.921875 
Q 39.203125 38.921875 42.84375 42.21875 
Q 46.484375 45.515625 46.484375 51.90625 
Q 46.484375 58.296875 42.84375 61.546875 
Q 39.203125 64.796875 32.078125 64.796875 
z
" id="DejaVuSans-82"/>
       <path d="M 9.8125 72.90625 
L 23.09375 72.90625 
L 55.421875 11.921875 
L 55.421875 72.90625 
L 64.984375 72.90625 
L 64.984375 0 
L 51.703125 0 
L 19.390625 60.984375 
L 19.390625 0 
L 9.8125 0 
z
" id="DejaVuSans-78"/>
       <path d="M 34.1875 63.1875 
L 20.796875 26.90625 
L 47.609375 26.90625 
z
M 28.609375 72.90625 
L 39.796875 72.90625 
L 67.578125 0 
L 57.328125 0 
L 50.6875 18.703125 
L 17.828125 18.703125 
L 11.1875 0 
L 0.78125 0 
z
" id="DejaVuSans-65"/>
       <path id="DejaVuSans-32"/>
       <path d="M 18.109375 8.203125 
L 18.109375 -20.796875 
L 9.078125 -20.796875 
L 9.078125 54.6875 
L 18.109375 54.6875 
L 18.109375 46.390625 
Q 20.953125 51.265625 25.265625 53.625 
Q 29.59375 56 35.59375 56 
Q 45.5625 56 51.78125 48.09375 
Q 58.015625 40.1875 58.015625 27.296875 
Q 58.015625 14.40625 51.78125 6.484375 
Q 45.5625 -1.421875 35.59375 -1.421875 
Q 29.59375 -1.421875 25.265625 0.953125 
Q 20.953125 3.328125 18.109375 8.203125 
z
M 48.6875 27.296875 
Q 48.6875 37.203125 44.609375 42.84375 
Q 40.53125 48.484375 33.40625 48.484375 
Q 26.265625 48.484375 22.1875 42.84375 
Q 18.109375 37.203125 18.109375 27.296875 
Q 18.109375 17.390625 22.1875 11.75 
Q 26.265625 6.109375 33.40625 6.109375 
Q 40.53125 6.109375 44.609375 11.75 
Q 48.6875 17.390625 48.6875 27.296875 
z
" id="DejaVuSans-112"/>
       <path d="M 56.203125 29.59375 
L 56.203125 25.203125 
L 14.890625 25.203125 
Q 15.484375 15.921875 20.484375 11.0625 
Q 25.484375 6.203125 34.421875 6.203125 
Q 39.59375 6.203125 44.453125 7.46875 
Q 49.3125 8.734375 54.109375 11.28125 
L 54.109375 2.78125 
Q 49.265625 0.734375 44.1875 -0.34375 
Q 39.109375 -1.421875 33.890625 -1.421875 
Q 20.796875 -1.421875 13.15625 6.1875 
Q 5.515625 13.8125 5.515625 26.8125 
Q 5.515625 40.234375 12.765625 48.109375 
Q 20.015625 56 32.328125 56 
Q 43.359375 56 49.78125 48.890625 
Q 56.203125 41.796875 56.203125 29.59375 
z
M 47.21875 32.234375 
Q 47.125 39.59375 43.09375 43.984375 
Q 39.0625 48.390625 32.421875 48.390625 
Q 24.90625 48.390625 20.390625 44.140625 
Q 15.875 39.890625 15.1875 32.171875 
z
" id="DejaVuSans-101"/>
       <path d="M 41.109375 46.296875 
Q 39.59375 47.171875 37.8125 47.578125 
Q 36.03125 48 33.890625 48 
Q 26.265625 48 22.1875 43.046875 
Q 18.109375 38.09375 18.109375 28.8125 
L 18.109375 0 
L 9.078125 0 
L 9.078125 54.6875 
L 18.109375 54.6875 
L 18.109375 46.1875 
Q 20.953125 51.171875 25.484375 53.578125 
Q 30.03125 56 36.53125 56 
Q 37.453125 56 38.578125 55.875 
Q 39.703125 55.765625 41.0625 55.515625 
z
" id="DejaVuSans-114"/>
       <path d="M 9.421875 54.6875 
L 18.40625 54.6875 
L 18.40625 0 
L 9.421875 0 
z
M 9.421875 75.984375 
L 18.40625 75.984375 
L 18.40625 64.59375 
L 9.421875 64.59375 
z
" id="DejaVuSans-105"/>
       <path d="M 9.421875 75.984375 
L 18.40625 75.984375 
L 18.40625 0 
L 9.421875 0 
z
" id="DejaVuSans-108"/>
      </defs>
      <use xlink:href="#DejaVuSans-82"/>
      <use x="69.482422" xlink:href="#DejaVuSans-78"/>
      <use x="144.287109" xlink:href="#DejaVuSans-65"/>
      <use x="212.695312" xlink:href="#DejaVuSans-32"/>
      <use x="244.482422" xlink:href="#DejaVuSans-112"/>
      <use x="307.958984" xlink:href="#DejaVuSans-101"/>
      <use x="369.482422" xlink:href="#DejaVuSans-114"/>
      <use x="410.595703" xlink:href="#DejaVuSans-32"/>
      <use x="442.382812" xlink:href="#DejaVuSans-109"/>
      <use x="539.794922" xlink:href="#DejaVuSans-105"/>
      <use x="567.578125" xlink:href="#DejaVuSans-108"/>
      <use x="595.361328" xlink:href="#DejaVuSans-108"/>
      <use x="623.144531" xlink:href="#DejaVuSans-105"/>
      <use x="650.927734" xlink:href="#DejaVuSans-108"/>
      <use x="678.710938" xlink:href="#DejaVuSans-105"/>
      <use x="706.494141" xlink:href="#DejaVuSans-116"/>
      <use x="745.703125" xlink:href="#DejaVuSans-101"/>
      <use x="807.226562" xlink:href="#DejaVuSans-114"/>
     </g>
    </g>
   </g>
   <g id="line2d_25">
    <path clip-path="url(#p029240b5f4)" d="M 111.452861 98.786568 
L 116.279019 110.714731 
L 121.105177 114.690785 
L 124.322616 122.642894 
L 129.148774 132.113336 
L 133.974932 135.06019 
L 135.583651 137.917001 
L 138.80109 142.867681 
L 140.409809 144.983666 
L 143.627248 146.835439 
L 145.235967 148.447674 
L 146.844687 149.465364 
L 150.062125 150.889112 
L 154.888283 152.701414 
L 158.105722 155.52673 
L 159.714441 156.745568 
L 162.93188 158.869332 
L 169.366757 160.691006 
L 172.584196 162.68983 
L 175.801635 163.676277 
L 177.410354 164.66775 
L 179.019074 165.475465 
L 182.236512 165.854453 
L 188.67139 165.989155 
L 201.541144 166.571594 
L 206.367302 167.13476 
L 207.976022 167.359262 
L 212.80218 167.561095 
L 217.628338 168.195294 
L 220.845777 168.659793 
L 230.498093 169.658657 
L 233.715531 169.829057 
L 241.759128 170.821323 
L 246.585286 171.135522 
L 249.802725 171.457397 
L 257.846322 171.782451 
L 262.67248 171.941334 
L 272.324796 171.921367 
L 277.150954 171.593302 
L 280.368392 171.233036 
L 283.585831 170.708363 
L 288.411989 169.631514 
L 293.238147 168.352449 
L 301.281744 166.004976 
L 304.499183 165.411325 
L 312.542779 164.212636 
L 314.151499 164.141294 
L 322.195095 164.492313 
L 328.629973 164.299723 
L 330.238692 164.274921 
L 333.456131 164.589696 
L 336.673569 164.806225 
L 343.108447 165.293584 
L 351.152044 166.592419 
L 354.369482 166.738001 
L 359.19564 166.601921 
L 362.413079 166.384657 
L 365.630518 165.944797 
L 376.891553 163.812771 
L 380.108992 163.115035 
L 383.326431 162.118234 
L 386.543869 160.743857 
L 388.152589 159.999735 
L 389.761308 159.109376 
L 392.978747 156.270338 
L 396.196185 151.590157 
L 397.804905 148.943902 
L 399.413624 146.039417 
L 402.631063 139.555811 
L 404.239782 135.947971 
L 410.674659 120.639693 
L 413.892098 114.471804 
L 417.109537 110.934902 
L 418.718256 109.499938 
L 420.326975 108.355776 
L 421.935695 106.681505 
L 423.544414 105.436738 
L 425.153134 104.881776 
L 426.761853 105.060471 
L 429.979292 104.588249 
L 431.588011 103.858889 
L 433.19673 102.114895 
L 434.80545 100.581197 
L 438.022888 96.694319 
L 439.631608 94.381384 
L 441.240327 92.294231 
L 442.849046 92.005481 
L 444.457766 91.548201 
L 446.066485 90.90699 
L 447.675204 89.949868 
L 449.283924 89.599222 
L 450.892643 88.947502 
L 452.501362 89.238766 
L 454.110082 91.005193 
L 458.93624 96.814871 
L 460.544959 99.034565 
L 462.153678 100.508585 
L 466.979837 101.925827 
L 468.588556 102.7313 
L 470.197275 103.692842 
L 471.805995 105.613896 
L 473.414714 107.209383 
L 475.023433 108.288229 
L 476.632153 109.148258 
L 478.240872 110.286376 
L 479.849591 111.778916 
L 481.458311 113.917725 
L 487.893188 126.967028 
L 489.501907 129.725662 
L 491.110627 132.118231 
L 494.328065 135.841037 
L 495.936785 137.474737 
L 497.545504 139.267052 
L 499.154223 140.774263 
L 500.762943 141.699291 
L 502.371662 142.157507 
L 503.980381 141.948714 
L 505.589101 141.527714 
L 508.80654 141.112924 
L 512.023978 140.180743 
L 513.632698 139.563856 
L 518.458856 136.740849 
L 521.676294 133.901264 
L 523.285014 132.121998 
L 528.111172 127.30767 
L 529.719891 125.933318 
L 532.93733 124.111897 
L 534.546049 123.467426 
L 537.763488 122.774589 
L 539.372207 122.55774 
L 540.980926 123.088506 
L 542.589646 123.906018 
L 544.198365 125.35905 
L 545.807084 126.3535 
L 550.633243 130.100088 
L 552.241962 130.93308 
L 553.850681 131.570994 
L 558.676839 132.122775 
L 560.285559 132.147939 
L 561.894278 131.981127 
L 563.502997 131.308742 
L 565.111717 130.409983 
L 566.720436 128.837998 
L 568.329155 127.730791 
L 569.937875 126.376116 
L 571.546594 124.85334 
L 573.155313 123.124524 
L 574.764033 121.796088 
L 576.372752 120.794335 
L 581.19891 118.311594 
L 582.807629 116.96252 
L 584.416349 116.004298 
L 586.025068 115.186644 
L 587.633787 115.100898 
L 589.242507 114.831434 
L 590.851226 114.732499 
L 592.459946 114.843108 
L 594.068665 115.1599 
L 597.286104 115.511656 
L 600.503542 116.197801 
L 602.112262 116.772636 
L 605.3297 120.709524 
L 606.93842 122.530422 
L 610.155858 125.322767 
L 611.764578 126.608272 
L 613.373297 127.703093 
L 616.590736 129.214542 
L 618.199455 129.530937 
L 619.808174 129.541298 
L 621.416894 129.774263 
L 623.025613 129.671337 
L 624.634332 128.641421 
L 626.243052 127.441028 
L 629.46049 124.602167 
L 640.721526 113.711426 
L 640.721526 113.711426 
" style="fill:none;stroke:#008000;stroke-linecap:square;stroke-width:1.5;"/>
   </g>
   <g id="line2d_26">
    <path clip-path="url(#p029240b5f4)" d="M 645.547684 172.8 
L 645.547684 25.92 
" style="fill:none;stroke:#ff0000;stroke-linecap:square;stroke-width:0.5;"/>
   </g>
   <g id="patch_3">
    <path d="M 64.8 172.8 
L 64.8 25.92 
" style="fill:none;stroke:#000000;stroke-linecap:square;stroke-linejoin:miter;stroke-width:0.8;"/>
   </g>
   <g id="patch_4">
    <path d="M 655.2 172.8 
L 655.2 25.92 
" style="fill:none;stroke:#000000;stroke-linecap:square;stroke-linejoin:miter;stroke-width:0.8;"/>
   </g>
   <g id="patch_5">
    <path d="M 64.8 172.8 
L 655.2 172.8 
" style="fill:none;stroke:#000000;stroke-linecap:square;stroke-linejoin:miter;stroke-width:0.8;"/>
   </g>
   <g id="patch_6">
    <path d="M 64.8 25.92 
L 655.2 25.92 
" style="fill:none;stroke:#000000;stroke-linecap:square;stroke-linejoin:miter;stroke-width:0.8;"/>
   </g>
   <g id="legend_1">
    <g id="patch_7">
     <path d="M 71.8 48.598125 
L 306.184375 48.598125 
Q 308.184375 48.598125 308.184375 46.598125 
L 308.184375 32.92 
Q 308.184375 30.92 306.184375 30.92 
L 71.8 30.92 
Q 69.8 30.92 69.8 32.92 
L 69.8 46.598125 
Q 69.8 48.598125 71.8 48.598125 
z
" style="fill:#ffffff;opacity:0.8;stroke:#cccccc;stroke-linejoin:miter;"/>
    </g>
    <g id="line2d_27">
     <path d="M 73.8 39.018437 
L 93.8 39.018437 
" style="fill:none;stroke:#008000;stroke-linecap:square;stroke-width:1.5;"/>
    </g>
    <g id="line2d_28"/>
    <g id="text_15">
     <!-- RNA per milliliter rioolwater (gemiddeld) -->
     <g transform="translate(101.8 42.518437)scale(0.1 -0.1)">
      <defs>
       <path d="M 30.609375 48.390625 
Q 23.390625 48.390625 19.1875 42.75 
Q 14.984375 37.109375 14.984375 27.296875 
Q 14.984375 17.484375 19.15625 11.84375 
Q 23.34375 6.203125 30.609375 6.203125 
Q 37.796875 6.203125 41.984375 11.859375 
Q 46.1875 17.53125 46.1875 27.296875 
Q 46.1875 37.015625 41.984375 42.703125 
Q 37.796875 48.390625 30.609375 48.390625 
z
M 30.609375 56 
Q 42.328125 56 49.015625 48.375 
Q 55.71875 40.765625 55.71875 27.296875 
Q 55.71875 13.875 49.015625 6.21875 
Q 42.328125 -1.421875 30.609375 -1.421875 
Q 18.84375 -1.421875 12.171875 6.21875 
Q 5.515625 13.875 5.515625 27.296875 
Q 5.515625 40.765625 12.171875 48.375 
Q 18.84375 56 30.609375 56 
z
" id="DejaVuSans-111"/>
       <path d="M 4.203125 54.6875 
L 13.1875 54.6875 
L 24.421875 12.015625 
L 35.59375 54.6875 
L 46.1875 54.6875 
L 57.421875 12.015625 
L 68.609375 54.6875 
L 77.59375 54.6875 
L 63.28125 0 
L 52.6875 0 
L 40.921875 44.828125 
L 29.109375 0 
L 18.5 0 
z
" id="DejaVuSans-119"/>
       <path d="M 31 75.875 
Q 24.46875 64.65625 21.28125 53.65625 
Q 18.109375 42.671875 18.109375 31.390625 
Q 18.109375 20.125 21.3125 9.0625 
Q 24.515625 -2 31 -13.1875 
L 23.1875 -13.1875 
Q 15.875 -1.703125 12.234375 9.375 
Q 8.59375 20.453125 8.59375 31.390625 
Q 8.59375 42.28125 12.203125 53.3125 
Q 15.828125 64.359375 23.1875 75.875 
z
" id="DejaVuSans-40"/>
       <path d="M 45.40625 27.984375 
Q 45.40625 37.75 41.375 43.109375 
Q 37.359375 48.484375 30.078125 48.484375 
Q 22.859375 48.484375 18.828125 43.109375 
Q 14.796875 37.75 14.796875 27.984375 
Q 14.796875 18.265625 18.828125 12.890625 
Q 22.859375 7.515625 30.078125 7.515625 
Q 37.359375 7.515625 41.375 12.890625 
Q 45.40625 18.265625 45.40625 27.984375 
z
M 54.390625 6.78125 
Q 54.390625 -7.171875 48.1875 -13.984375 
Q 42 -20.796875 29.203125 -20.796875 
Q 24.46875 -20.796875 20.265625 -20.09375 
Q 16.0625 -19.390625 12.109375 -17.921875 
L 12.109375 -9.1875 
Q 16.0625 -11.328125 19.921875 -12.34375 
Q 23.78125 -13.375 27.78125 -13.375 
Q 36.625 -13.375 41.015625 -8.765625 
Q 45.40625 -4.15625 45.40625 5.171875 
L 45.40625 9.625 
Q 42.625 4.78125 38.28125 2.390625 
Q 33.9375 0 27.875 0 
Q 17.828125 0 11.671875 7.65625 
Q 5.515625 15.328125 5.515625 27.984375 
Q 5.515625 40.671875 11.671875 48.328125 
Q 17.828125 56 27.875 56 
Q 33.9375 56 38.28125 53.609375 
Q 42.625 51.21875 45.40625 46.390625 
L 45.40625 54.6875 
L 54.390625 54.6875 
z
" id="DejaVuSans-103"/>
       <path d="M 45.40625 46.390625 
L 45.40625 75.984375 
L 54.390625 75.984375 
L 54.390625 0 
L 45.40625 0 
L 45.40625 8.203125 
Q 42.578125 3.328125 38.25 0.953125 
Q 33.9375 -1.421875 27.875 -1.421875 
Q 17.96875 -1.421875 11.734375 6.484375 
Q 5.515625 14.40625 5.515625 27.296875 
Q 5.515625 40.1875 11.734375 48.09375 
Q 17.96875 56 27.875 56 
Q 33.9375 56 38.25 53.625 
Q 42.578125 51.265625 45.40625 46.390625 
z
M 14.796875 27.296875 
Q 14.796875 17.390625 18.875 11.75 
Q 22.953125 6.109375 30.078125 6.109375 
Q 37.203125 6.109375 41.296875 11.75 
Q 45.40625 17.390625 45.40625 27.296875 
Q 45.40625 37.203125 41.296875 42.84375 
Q 37.203125 48.484375 30.078125 48.484375 
Q 22.953125 48.484375 18.875 42.84375 
Q 14.796875 37.203125 14.796875 27.296875 
z
" id="DejaVuSans-100"/>
       <path d="M 8.015625 75.875 
L 15.828125 75.875 
Q 23.140625 64.359375 26.78125 53.3125 
Q 30.421875 42.28125 30.421875 31.390625 
Q 30.421875 20.453125 26.78125 9.375 
Q 23.140625 -1.703125 15.828125 -13.1875 
L 8.015625 -13.1875 
Q 14.5 -2 17.703125 9.0625 
Q 20.90625 20.125 20.90625 31.390625 
Q 20.90625 42.671875 17.703125 53.65625 
Q 14.5 64.65625 8.015625 75.875 
z
" id="DejaVuSans-41"/>
      </defs>
      <use xlink:href="#DejaVuSans-82"/>
      <use x="69.482422" xlink:href="#DejaVuSans-78"/>
      <use x="144.287109" xlink:href="#DejaVuSans-65"/>
      <use x="212.695312" xlink:href="#DejaVuSans-32"/>
      <use x="244.482422" xlink:href="#DejaVuSans-112"/>
      <use x="307.958984" xlink:href="#DejaVuSans-101"/>
      <use x="369.482422" xlink:href="#DejaVuSans-114"/>
      <use x="410.595703" xlink:href="#DejaVuSans-32"/>
      <use x="442.382812" xlink:href="#DejaVuSans-109"/>
      <use x="539.794922" xlink:href="#DejaVuSans-105"/>
      <use x="567.578125" xlink:href="#DejaVuSans-108"/>
      <use x="595.361328" xlink:href="#DejaVuSans-108"/>
      <use x="623.144531" xlink:href="#DejaVuSans-105"/>
      <use x="650.927734" xlink:href="#DejaVuSans-108"/>
      <use x="678.710938" xlink:href="#DejaVuSans-105"/>
      <use x="706.494141" xlink:href="#DejaVuSans-116"/>
      <use x="745.703125" xlink:href="#DejaVuSans-101"/>
      <use x="807.226562" xlink:href="#DejaVuSans-114"/>
      <use x="848.339844" xlink:href="#DejaVuSans-32"/>
      <use x="880.126953" xlink:href="#DejaVuSans-114"/>
      <use x="921.240234" xlink:href="#DejaVuSans-105"/>
      <use x="949.023438" xlink:href="#DejaVuSans-111"/>
      <use x="1010.205078" xlink:href="#DejaVuSans-111"/>
      <use x="1071.386719" xlink:href="#DejaVuSans-108"/>
      <use x="1099.169922" xlink:href="#DejaVuSans-119"/>
      <use x="1180.957031" xlink:href="#DejaVuSans-97"/>
      <use x="1242.236328" xlink:href="#DejaVuSans-116"/>
      <use x="1281.445312" xlink:href="#DejaVuSans-101"/>
      <use x="1342.96875" xlink:href="#DejaVuSans-114"/>
      <use x="1384.082031" xlink:href="#DejaVuSans-32"/>
      <use x="1415.869141" xlink:href="#DejaVuSans-40"/>
      <use x="1454.882812" xlink:href="#DejaVuSans-103"/>
      <use x="1518.359375" xlink:href="#DejaVuSans-101"/>
      <use x="1579.882812" xlink:href="#DejaVuSans-109"/>
      <use x="1677.294922" xlink:href="#DejaVuSans-105"/>
      <use x="1705.078125" xlink:href="#DejaVuSans-100"/>
      <use x="1768.554688" xlink:href="#DejaVuSans-100"/>
      <use x="1832.03125" xlink:href="#DejaVuSans-101"/>
      <use x="1893.554688" xlink:href="#DejaVuSans-108"/>
      <use x="1921.337891" xlink:href="#DejaVuSans-100"/>
      <use x="1984.814453" xlink:href="#DejaVuSans-41"/>
     </g>
    </g>
   </g>
  </g>
  <g id="axes_2">
   <g id="matplotlib.axis_3">
    <g id="ytick_6">
     <g id="line2d_29">
      <defs>
       <path d="M 0 0 
L 3.5 0 
" id="me6bb2318d8" style="stroke:#000000;stroke-width:0.8;"/>
      </defs>
      <g>
       <use style="stroke:#000000;stroke-width:0.8;" x="655.2" xlink:href="#me6bb2318d8" y="172.8"/>
      </g>
     </g>
     <g id="text_16">
      <!-- 0 -->
      <g transform="translate(662.2 176.599219)scale(0.1 -0.1)">
       <use xlink:href="#DejaVuSans-48"/>
      </g>
     </g>
    </g>
    <g id="ytick_7">
     <g id="line2d_30">
      <g>
       <use style="stroke:#000000;stroke-width:0.8;" x="655.2" xlink:href="#me6bb2318d8" y="136.08"/>
      </g>
     </g>
     <g id="text_17">
      <!-- 25 -->
      <g transform="translate(662.2 139.879219)scale(0.1 -0.1)">
       <use xlink:href="#DejaVuSans-50"/>
       <use x="63.623047" xlink:href="#DejaVuSans-53"/>
      </g>
     </g>
    </g>
    <g id="ytick_8">
     <g id="line2d_31">
      <g>
       <use style="stroke:#000000;stroke-width:0.8;" x="655.2" xlink:href="#me6bb2318d8" y="99.36"/>
      </g>
     </g>
     <g id="text_18">
      <!-- 50 -->
      <g transform="translate(662.2 103.159219)scale(0.1 -0.1)">
       <use xlink:href="#DejaVuSans-53"/>
       <use x="63.623047" xlink:href="#DejaVuSans-48"/>
      </g>
     </g>
    </g>
    <g id="ytick_9">
     <g id="line2d_32">
      <g>
       <use style="stroke:#000000;stroke-width:0.8;" x="655.2" xlink:href="#me6bb2318d8" y="62.64"/>
      </g>
     </g>
     <g id="text_19">
      <!-- 75 -->
      <g transform="translate(662.2 66.439219)scale(0.1 -0.1)">
       <use xlink:href="#DejaVuSans-55"/>
       <use x="63.623047" xlink:href="#DejaVuSans-53"/>
      </g>
     </g>
    </g>
    <g id="ytick_10">
     <g id="line2d_33">
      <g>
       <use style="stroke:#000000;stroke-width:0.8;" x="655.2" xlink:href="#me6bb2318d8" y="25.92"/>
      </g>
     </g>
     <g id="text_20">
      <!-- 100 -->
      <g transform="translate(662.2 29.719219)scale(0.1 -0.1)">
       <use xlink:href="#DejaVuSans-49"/>
       <use x="63.623047" xlink:href="#DejaVuSans-48"/>
       <use x="127.246094" xlink:href="#DejaVuSans-48"/>
      </g>
     </g>
    </g>
    <g id="text_21">
     <!-- % populatie -->
     <g transform="translate(692.885938 129.155312)rotate(-90)scale(0.1 -0.1)">
      <defs>
       <path d="M 72.703125 32.078125 
Q 68.453125 32.078125 66.03125 28.46875 
Q 63.625 24.859375 63.625 18.40625 
Q 63.625 12.0625 66.03125 8.421875 
Q 68.453125 4.78125 72.703125 4.78125 
Q 76.859375 4.78125 79.265625 8.421875 
Q 81.6875 12.0625 81.6875 18.40625 
Q 81.6875 24.8125 79.265625 28.4375 
Q 76.859375 32.078125 72.703125 32.078125 
z
M 72.703125 38.28125 
Q 80.421875 38.28125 84.953125 32.90625 
Q 89.5 27.546875 89.5 18.40625 
Q 89.5 9.28125 84.9375 3.921875 
Q 80.375 -1.421875 72.703125 -1.421875 
Q 64.890625 -1.421875 60.34375 3.921875 
Q 55.8125 9.28125 55.8125 18.40625 
Q 55.8125 27.59375 60.375 32.9375 
Q 64.9375 38.28125 72.703125 38.28125 
z
M 22.3125 68.015625 
Q 18.109375 68.015625 15.6875 64.375 
Q 13.28125 60.75 13.28125 54.390625 
Q 13.28125 47.953125 15.671875 44.328125 
Q 18.0625 40.71875 22.3125 40.71875 
Q 26.5625 40.71875 28.96875 44.328125 
Q 31.390625 47.953125 31.390625 54.390625 
Q 31.390625 60.6875 28.953125 64.34375 
Q 26.515625 68.015625 22.3125 68.015625 
z
M 66.40625 74.21875 
L 74.21875 74.21875 
L 28.609375 -1.421875 
L 20.796875 -1.421875 
z
M 22.3125 74.21875 
Q 30.03125 74.21875 34.609375 68.875 
Q 39.203125 63.53125 39.203125 54.390625 
Q 39.203125 45.171875 34.640625 39.84375 
Q 30.078125 34.515625 22.3125 34.515625 
Q 14.546875 34.515625 10.03125 39.859375 
Q 5.515625 45.21875 5.515625 54.390625 
Q 5.515625 63.484375 10.046875 68.84375 
Q 14.59375 74.21875 22.3125 74.21875 
z
" id="DejaVuSans-37"/>
      </defs>
      <use xlink:href="#DejaVuSans-37"/>
      <use x="95.019531" xlink:href="#DejaVuSans-32"/>
      <use x="126.806641" xlink:href="#DejaVuSans-112"/>
      <use x="190.283203" xlink:href="#DejaVuSans-111"/>
      <use x="251.464844" xlink:href="#DejaVuSans-112"/>
      <use x="314.941406" xlink:href="#DejaVuSans-117"/>
      <use x="378.320312" xlink:href="#DejaVuSans-108"/>
      <use x="406.103516" xlink:href="#DejaVuSans-97"/>
      <use x="467.382812" xlink:href="#DejaVuSans-116"/>
      <use x="506.591797" xlink:href="#DejaVuSans-105"/>
      <use x="534.375" xlink:href="#DejaVuSans-101"/>
     </g>
    </g>
   </g>
   <g id="line2d_34">
    <path clip-path="url(#p029240b5f4)" d="M 111.452861 151.613749 
L 116.279019 150.617208 
L 121.105177 150.285027 
L 125.931335 149.334681 
L 127.540054 149.31932 
L 129.148774 149.177951 
L 133.974932 148.883712 
L 135.583651 148.648544 
L 137.192371 148.625079 
L 140.409809 149.132081 
L 143.627248 148.911327 
L 145.235967 148.347019 
L 146.844687 147.965449 
L 148.453406 147.856356 
L 150.062125 148.075655 
L 154.888283 147.927433 
L 156.497003 147.431677 
L 158.105722 147.077984 
L 159.714441 147.151216 
L 161.323161 147.521927 
L 162.93188 147.637591 
L 166.149319 147.54857 
L 169.366757 147.312183 
L 170.975477 147.699148 
L 172.584196 148.383142 
L 179.019074 149.486248 
L 180.627793 149.893037 
L 182.236512 150.447352 
L 187.06267 151.629233 
L 191.888828 152.066157 
L 193.497548 152.323423 
L 196.714986 152.329335 
L 199.932425 152.411351 
L 203.149864 152.369466 
L 207.976022 151.84199 
L 216.019619 151.708567 
L 219.237057 151.717483 
L 220.845777 151.566931 
L 227.280654 150.156412 
L 228.889373 150.136905 
L 235.324251 149.268181 
L 240.150409 148.543919 
L 241.759128 148.458349 
L 248.194005 147.716924 
L 249.802725 148.020369 
L 257.846322 148.59765 
L 262.67248 149.407032 
L 270.716076 149.968598 
L 273.933515 150.588524 
L 275.542234 150.531596 
L 277.150954 150.009268 
L 283.585831 147.119591 
L 285.19455 146.200243 
L 294.846866 138.510013 
L 296.455586 137.561452 
L 298.064305 136.782581 
L 299.673025 136.163616 
L 301.281744 135.400574 
L 302.890463 134.934557 
L 306.107902 134.908809 
L 307.716621 135.255999 
L 309.325341 135.470166 
L 310.93406 135.412238 
L 312.542779 135.560431 
L 318.977657 137.834619 
L 322.195095 138.040236 
L 323.803815 137.904901 
L 327.021253 137.346828 
L 330.238692 137.292633 
L 333.456131 137.201407 
L 335.06485 136.715783 
L 338.282289 136.060536 
L 339.891008 136.020177 
L 341.499728 136.272131 
L 346.325886 136.571984 
L 347.934605 136.446044 
L 351.152044 135.269122 
L 352.760763 134.556349 
L 354.369482 133.455323 
L 355.978202 132.185351 
L 359.19564 129.059382 
L 364.021798 123.292795 
L 368.847956 116.018567 
L 370.456676 114.088481 
L 372.065395 112.536376 
L 375.282834 110.14178 
L 378.500272 107.617299 
L 380.108992 106.25481 
L 383.326431 104.2725 
L 384.93515 103.524052 
L 386.543869 103.139167 
L 389.761308 102.898101 
L 391.370027 102.494651 
L 394.587466 101.053212 
L 396.196185 100.642326 
L 397.804905 100.776406 
L 399.413624 101.105925 
L 401.022343 101.312372 
L 415.500817 102.184471 
L 417.109537 102.389176 
L 421.935695 101.730556 
L 423.544414 101.524814 
L 425.153134 101.433239 
L 426.761853 101.479428 
L 428.370572 101.844779 
L 433.19673 102.067251 
L 438.022888 102.511227 
L 439.631608 103.036184 
L 444.457766 104.240681 
L 446.066485 104.249281 
L 449.283924 103.729287 
L 450.892643 103.729309 
L 452.501362 103.554559 
L 454.110082 103.611903 
L 455.718801 103.398914 
L 457.32752 102.779185 
L 460.544959 101.053271 
L 463.762398 99.902124 
L 466.979837 99.260203 
L 468.588556 99.075658 
L 471.805995 98.109063 
L 473.414714 98.071725 
L 475.023433 97.889211 
L 476.632153 97.931498 
L 478.240872 98.14288 
L 479.849591 98.193635 
L 481.458311 97.856425 
L 484.675749 98.024688 
L 486.284469 97.855813 
L 487.893188 97.857934 
L 491.110627 96.495302 
L 492.719346 95.809707 
L 494.328065 94.95323 
L 495.936785 94.323311 
L 499.154223 92.71197 
L 502.371662 91.433623 
L 503.980381 90.381367 
L 505.589101 89.593232 
L 507.19782 89.07037 
L 508.80654 88.421151 
L 510.415259 88.570052 
L 512.023978 88.840054 
L 515.241417 89.003028 
L 516.850136 89.053698 
L 520.067575 89.566264 
L 523.285014 90.270853 
L 524.893733 90.769492 
L 526.502452 91.074765 
L 528.111172 91.628879 
L 529.719891 92.334229 
L 531.32861 92.644174 
L 532.93733 93.10513 
L 534.546049 93.817293 
L 537.763488 95.587443 
L 540.980926 97.683301 
L 542.589646 98.759609 
L 544.198365 100.123351 
L 545.807084 100.787264 
L 547.415804 101.138694 
L 550.633243 100.931782 
L 553.850681 101.113036 
L 557.06812 100.92412 
L 558.676839 100.064315 
L 561.894278 97.915948 
L 566.720436 94.546818 
L 571.546594 92.675605 
L 574.764033 91.88169 
L 576.372752 91.19968 
L 577.981471 90.753005 
L 579.590191 90.680803 
L 582.807629 89.989699 
L 586.025068 89.758994 
L 589.242507 88.959159 
L 592.459946 88.582901 
L 594.068665 87.994953 
L 595.677384 87.584551 
L 597.286104 87.562849 
L 598.894823 87.136717 
L 600.503542 86.884985 
L 602.112262 87.188961 
L 603.720981 86.712517 
L 605.3297 86.059382 
L 606.93842 85.80804 
L 611.764578 85.666972 
L 613.373297 85.896055 
L 614.982016 85.986526 
L 616.590736 85.889744 
L 618.199455 85.672335 
L 621.416894 85.862386 
L 623.025613 85.7251 
L 624.634332 86.083082 
L 626.243052 86.29179 
L 629.46049 85.792187 
L 632.677929 85.054032 
L 640.721526 83.03324 
L 640.721526 83.03324 
" style="fill:none;stroke:#ffa500;stroke-linecap:square;stroke-width:1.5;"/>
   </g>
   <g id="patch_8">
    <path d="M 64.8 172.8 
L 64.8 25.92 
" style="fill:none;stroke:#000000;stroke-linecap:square;stroke-linejoin:miter;stroke-width:0.8;"/>
   </g>
   <g id="patch_9">
    <path d="M 655.2 172.8 
L 655.2 25.92 
" style="fill:none;stroke:#000000;stroke-linecap:square;stroke-linejoin:miter;stroke-width:0.8;"/>
   </g>
   <g id="patch_10">
    <path d="M 64.8 172.8 
L 655.2 172.8 
" style="fill:none;stroke:#000000;stroke-linecap:square;stroke-linejoin:miter;stroke-width:0.8;"/>
   </g>
   <g id="patch_11">
    <path d="M 64.8 25.92 
L 655.2 25.92 
" style="fill:none;stroke:#000000;stroke-linecap:square;stroke-linejoin:miter;stroke-width:0.8;"/>
   </g>
   <g id="text_22">
    <!-- Concentratie SARS-CoV-2 RNA per ml rioolwater -->
    <g transform="translate(215.560313 19.92)scale(0.12 -0.12)">
     <defs>
      <path d="M 64.40625 67.28125 
L 64.40625 56.890625 
Q 59.421875 61.53125 53.78125 63.8125 
Q 48.140625 66.109375 41.796875 66.109375 
Q 29.296875 66.109375 22.65625 58.46875 
Q 16.015625 50.828125 16.015625 36.375 
Q 16.015625 21.96875 22.65625 14.328125 
Q 29.296875 6.6875 41.796875 6.6875 
Q 48.140625 6.6875 53.78125 8.984375 
Q 59.421875 11.28125 64.40625 15.921875 
L 64.40625 5.609375 
Q 59.234375 2.09375 53.4375 0.328125 
Q 47.65625 -1.421875 41.21875 -1.421875 
Q 24.65625 -1.421875 15.125 8.703125 
Q 5.609375 18.84375 5.609375 36.375 
Q 5.609375 53.953125 15.125 64.078125 
Q 24.65625 74.21875 41.21875 74.21875 
Q 47.75 74.21875 53.53125 72.484375 
Q 59.328125 70.75 64.40625 67.28125 
z
" id="DejaVuSans-67"/>
      <path d="M 54.890625 33.015625 
L 54.890625 0 
L 45.90625 0 
L 45.90625 32.71875 
Q 45.90625 40.484375 42.875 44.328125 
Q 39.84375 48.1875 33.796875 48.1875 
Q 26.515625 48.1875 22.3125 43.546875 
Q 18.109375 38.921875 18.109375 30.90625 
L 18.109375 0 
L 9.078125 0 
L 9.078125 54.6875 
L 18.109375 54.6875 
L 18.109375 46.1875 
Q 21.34375 51.125 25.703125 53.5625 
Q 30.078125 56 35.796875 56 
Q 45.21875 56 50.046875 50.171875 
Q 54.890625 44.34375 54.890625 33.015625 
z
" id="DejaVuSans-110"/>
      <path d="M 48.78125 52.59375 
L 48.78125 44.1875 
Q 44.96875 46.296875 41.140625 47.34375 
Q 37.3125 48.390625 33.40625 48.390625 
Q 24.65625 48.390625 19.8125 42.84375 
Q 14.984375 37.3125 14.984375 27.296875 
Q 14.984375 17.28125 19.8125 11.734375 
Q 24.65625 6.203125 33.40625 6.203125 
Q 37.3125 6.203125 41.140625 7.25 
Q 44.96875 8.296875 48.78125 10.40625 
L 48.78125 2.09375 
Q 45.015625 0.34375 40.984375 -0.53125 
Q 36.96875 -1.421875 32.421875 -1.421875 
Q 20.0625 -1.421875 12.78125 6.34375 
Q 5.515625 14.109375 5.515625 27.296875 
Q 5.515625 40.671875 12.859375 48.328125 
Q 20.21875 56 33.015625 56 
Q 37.15625 56 41.109375 55.140625 
Q 45.0625 54.296875 48.78125 52.59375 
z
" id="DejaVuSans-99"/>
      <path d="M 53.515625 70.515625 
L 53.515625 60.890625 
Q 47.90625 63.578125 42.921875 64.890625 
Q 37.9375 66.21875 33.296875 66.21875 
Q 25.25 66.21875 20.875 63.09375 
Q 16.5 59.96875 16.5 54.203125 
Q 16.5 49.359375 19.40625 46.890625 
Q 22.3125 44.4375 30.421875 42.921875 
L 36.375 41.703125 
Q 47.40625 39.59375 52.65625 34.296875 
Q 57.90625 29 57.90625 20.125 
Q 57.90625 9.515625 50.796875 4.046875 
Q 43.703125 -1.421875 29.984375 -1.421875 
Q 24.8125 -1.421875 18.96875 -0.25 
Q 13.140625 0.921875 6.890625 3.21875 
L 6.890625 13.375 
Q 12.890625 10.015625 18.65625 8.296875 
Q 24.421875 6.59375 29.984375 6.59375 
Q 38.421875 6.59375 43.015625 9.90625 
Q 47.609375 13.234375 47.609375 19.390625 
Q 47.609375 24.75 44.3125 27.78125 
Q 41.015625 30.8125 33.5 32.328125 
L 27.484375 33.5 
Q 16.453125 35.6875 11.515625 40.375 
Q 6.59375 45.0625 6.59375 53.421875 
Q 6.59375 63.09375 13.40625 68.65625 
Q 20.21875 74.21875 32.171875 74.21875 
Q 37.3125 74.21875 42.625 73.28125 
Q 47.953125 72.359375 53.515625 70.515625 
z
" id="DejaVuSans-83"/>
      <path d="M 28.609375 0 
L 0.78125 72.90625 
L 11.078125 72.90625 
L 34.1875 11.53125 
L 57.328125 72.90625 
L 67.578125 72.90625 
L 39.796875 0 
z
" id="DejaVuSans-86"/>
     </defs>
     <use xlink:href="#DejaVuSans-67"/>
     <use x="69.824219" xlink:href="#DejaVuSans-111"/>
     <use x="131.005859" xlink:href="#DejaVuSans-110"/>
     <use x="194.384766" xlink:href="#DejaVuSans-99"/>
     <use x="249.365234" xlink:href="#DejaVuSans-101"/>
     <use x="310.888672" xlink:href="#DejaVuSans-110"/>
     <use x="374.267578" xlink:href="#DejaVuSans-116"/>
     <use x="413.476562" xlink:href="#DejaVuSans-114"/>
     <use x="454.589844" xlink:href="#DejaVuSans-97"/>
     <use x="515.869141" xlink:href="#DejaVuSans-116"/>
     <use x="555.078125" xlink:href="#DejaVuSans-105"/>
     <use x="582.861328" xlink:href="#DejaVuSans-101"/>
     <use x="644.384766" xlink:href="#DejaVuSans-32"/>
     <use x="676.171875" xlink:href="#DejaVuSans-83"/>
     <use x="741.523438" xlink:href="#DejaVuSans-65"/>
     <use x="809.931641" xlink:href="#DejaVuSans-82"/>
     <use x="879.414062" xlink:href="#DejaVuSans-83"/>
     <use x="942.890625" xlink:href="#DejaVuSans-45"/>
     <use x="978.974609" xlink:href="#DejaVuSans-67"/>
     <use x="1048.798828" xlink:href="#DejaVuSans-111"/>
     <use x="1109.980469" xlink:href="#DejaVuSans-86"/>
     <use x="1172.513672" xlink:href="#DejaVuSans-45"/>
     <use x="1208.597656" xlink:href="#DejaVuSans-50"/>
     <use x="1272.220703" xlink:href="#DejaVuSans-32"/>
     <use x="1304.007812" xlink:href="#DejaVuSans-82"/>
     <use x="1373.490234" xlink:href="#DejaVuSans-78"/>
     <use x="1448.294922" xlink:href="#DejaVuSans-65"/>
     <use x="1516.703125" xlink:href="#DejaVuSans-32"/>
     <use x="1548.490234" xlink:href="#DejaVuSans-112"/>
     <use x="1611.966797" xlink:href="#DejaVuSans-101"/>
     <use x="1673.490234" xlink:href="#DejaVuSans-114"/>
     <use x="1714.603516" xlink:href="#DejaVuSans-32"/>
     <use x="1746.390625" xlink:href="#DejaVuSans-109"/>
     <use x="1843.802734" xlink:href="#DejaVuSans-108"/>
     <use x="1871.585938" xlink:href="#DejaVuSans-32"/>
     <use x="1903.373047" xlink:href="#DejaVuSans-114"/>
     <use x="1944.486328" xlink:href="#DejaVuSans-105"/>
     <use x="1972.269531" xlink:href="#DejaVuSans-111"/>
     <use x="2033.451172" xlink:href="#DejaVuSans-111"/>
     <use x="2094.632812" xlink:href="#DejaVuSans-108"/>
     <use x="2122.416016" xlink:href="#DejaVuSans-119"/>
     <use x="2204.203125" xlink:href="#DejaVuSans-97"/>
     <use x="2265.482422" xlink:href="#DejaVuSans-116"/>
     <use x="2304.691406" xlink:href="#DejaVuSans-101"/>
     <use x="2366.214844" xlink:href="#DejaVuSans-114"/>
    </g>
   </g>
   <g id="legend_2">
    <g id="patch_12">
     <path d="M 461.0375 48.598125 
L 648.2 48.598125 
Q 650.2 48.598125 650.2 46.598125 
L 650.2 32.92 
Q 650.2 30.92 648.2 30.92 
L 461.0375 30.92 
Q 459.0375 30.92 459.0375 32.92 
L 459.0375 46.598125 
Q 459.0375 48.598125 461.0375 48.598125 
z
" style="fill:#ffffff;opacity:0.8;stroke:#cccccc;stroke-linejoin:miter;"/>
    </g>
    <g id="line2d_35">
     <path d="M 463.0375 39.018437 
L 483.0375 39.018437 
" style="fill:none;stroke:#ffa500;stroke-linecap:square;stroke-width:1.5;"/>
    </g>
    <g id="line2d_36"/>
    <g id="text_23">
     <!-- geschatte populatie dekking % -->
     <g transform="translate(491.0375 42.518437)scale(0.1 -0.1)">
      <defs>
       <path d="M 44.28125 53.078125 
L 44.28125 44.578125 
Q 40.484375 46.53125 36.375 47.5 
Q 32.28125 48.484375 27.875 48.484375 
Q 21.1875 48.484375 17.84375 46.4375 
Q 14.5 44.390625 14.5 40.28125 
Q 14.5 37.15625 16.890625 35.375 
Q 19.28125 33.59375 26.515625 31.984375 
L 29.59375 31.296875 
Q 39.15625 29.25 43.1875 25.515625 
Q 47.21875 21.78125 47.21875 15.09375 
Q 47.21875 7.46875 41.1875 3.015625 
Q 35.15625 -1.421875 24.609375 -1.421875 
Q 20.21875 -1.421875 15.453125 -0.5625 
Q 10.6875 0.296875 5.421875 2 
L 5.421875 11.28125 
Q 10.40625 8.6875 15.234375 7.390625 
Q 20.0625 6.109375 24.8125 6.109375 
Q 31.15625 6.109375 34.5625 8.28125 
Q 37.984375 10.453125 37.984375 14.40625 
Q 37.984375 18.0625 35.515625 20.015625 
Q 33.0625 21.96875 24.703125 23.78125 
L 21.578125 24.515625 
Q 13.234375 26.265625 9.515625 29.90625 
Q 5.8125 33.546875 5.8125 39.890625 
Q 5.8125 47.609375 11.28125 51.796875 
Q 16.75 56 26.8125 56 
Q 31.78125 56 36.171875 55.265625 
Q 40.578125 54.546875 44.28125 53.078125 
z
" id="DejaVuSans-115"/>
       <path d="M 54.890625 33.015625 
L 54.890625 0 
L 45.90625 0 
L 45.90625 32.71875 
Q 45.90625 40.484375 42.875 44.328125 
Q 39.84375 48.1875 33.796875 48.1875 
Q 26.515625 48.1875 22.3125 43.546875 
Q 18.109375 38.921875 18.109375 30.90625 
L 18.109375 0 
L 9.078125 0 
L 9.078125 75.984375 
L 18.109375 75.984375 
L 18.109375 46.1875 
Q 21.34375 51.125 25.703125 53.5625 
Q 30.078125 56 35.796875 56 
Q 45.21875 56 50.046875 50.171875 
Q 54.890625 44.34375 54.890625 33.015625 
z
" id="DejaVuSans-104"/>
       <path d="M 9.078125 75.984375 
L 18.109375 75.984375 
L 18.109375 31.109375 
L 44.921875 54.6875 
L 56.390625 54.6875 
L 27.390625 29.109375 
L 57.625 0 
L 45.90625 0 
L 18.109375 26.703125 
L 18.109375 0 
L 9.078125 0 
z
" id="DejaVuSans-107"/>
      </defs>
      <use xlink:href="#DejaVuSans-103"/>
      <use x="63.476562" xlink:href="#DejaVuSans-101"/>
      <use x="125" xlink:href="#DejaVuSans-115"/>
      <use x="177.099609" xlink:href="#DejaVuSans-99"/>
      <use x="232.080078" xlink:href="#DejaVuSans-104"/>
      <use x="295.458984" xlink:href="#DejaVuSans-97"/>
      <use x="356.738281" xlink:href="#DejaVuSans-116"/>
      <use x="395.947266" xlink:href="#DejaVuSans-116"/>
      <use x="435.15625" xlink:href="#DejaVuSans-101"/>
      <use x="496.679688" xlink:href="#DejaVuSans-32"/>
      <use x="528.466797" xlink:href="#DejaVuSans-112"/>
      <use x="591.943359" xlink:href="#DejaVuSans-111"/>
      <use x="653.125" xlink:href="#DejaVuSans-112"/>
      <use x="716.601562" xlink:href="#DejaVuSans-117"/>
      <use x="779.980469" xlink:href="#DejaVuSans-108"/>
      <use x="807.763672" xlink:href="#DejaVuSans-97"/>
      <use x="869.042969" xlink:href="#DejaVuSans-116"/>
      <use x="908.251953" xlink:href="#DejaVuSans-105"/>
      <use x="936.035156" xlink:href="#DejaVuSans-101"/>
      <use x="997.558594" xlink:href="#DejaVuSans-32"/>
      <use x="1029.345703" xlink:href="#DejaVuSans-100"/>
      <use x="1092.822266" xlink:href="#DejaVuSans-101"/>
      <use x="1154.345703" xlink:href="#DejaVuSans-107"/>
      <use x="1212.255859" xlink:href="#DejaVuSans-107"/>
      <use x="1270.166016" xlink:href="#DejaVuSans-105"/>
      <use x="1297.949219" xlink:href="#DejaVuSans-110"/>
      <use x="1361.328125" xlink:href="#DejaVuSans-103"/>
      <use x="1424.804688" xlink:href="#DejaVuSans-32"/>
      <use x="1456.591797" xlink:href="#DejaVuSans-37"/>
     </g>
    </g>
   </g>
  </g>
  <g id="text_24">
   <!-- Gegenereerd op 2021-02-25 23:22 o.b.v. data tot 2021-02-22. -->
   <g style="fill:#808080;" transform="translate(7.2 204.88175)scale(0.08 -0.08)">
    <defs>
     <path d="M 59.515625 10.40625 
L 59.515625 29.984375 
L 43.40625 29.984375 
L 43.40625 38.09375 
L 69.28125 38.09375 
L 69.28125 6.78125 
Q 63.578125 2.734375 56.6875 0.65625 
Q 49.8125 -1.421875 42 -1.421875 
Q 24.90625 -1.421875 15.25 8.5625 
Q 5.609375 18.5625 5.609375 36.375 
Q 5.609375 54.25 15.25 64.234375 
Q 24.90625 74.21875 42 74.21875 
Q 49.125 74.21875 55.546875 72.453125 
Q 61.96875 70.703125 67.390625 67.28125 
L 67.390625 56.78125 
Q 61.921875 61.421875 55.765625 63.765625 
Q 49.609375 66.109375 42.828125 66.109375 
Q 29.4375 66.109375 22.71875 58.640625 
Q 16.015625 51.171875 16.015625 36.375 
Q 16.015625 21.625 22.71875 14.15625 
Q 29.4375 6.6875 42.828125 6.6875 
Q 48.046875 6.6875 52.140625 7.59375 
Q 56.25 8.5 59.515625 10.40625 
z
" id="DejaVuSans-71"/>
     <path d="M 11.71875 12.40625 
L 22.015625 12.40625 
L 22.015625 0 
L 11.71875 0 
z
M 11.71875 51.703125 
L 22.015625 51.703125 
L 22.015625 39.3125 
L 11.71875 39.3125 
z
" id="DejaVuSans-58"/>
     <path d="M 10.6875 12.40625 
L 21 12.40625 
L 21 0 
L 10.6875 0 
z
" id="DejaVuSans-46"/>
     <path d="M 48.6875 27.296875 
Q 48.6875 37.203125 44.609375 42.84375 
Q 40.53125 48.484375 33.40625 48.484375 
Q 26.265625 48.484375 22.1875 42.84375 
Q 18.109375 37.203125 18.109375 27.296875 
Q 18.109375 17.390625 22.1875 11.75 
Q 26.265625 6.109375 33.40625 6.109375 
Q 40.53125 6.109375 44.609375 11.75 
Q 48.6875 17.390625 48.6875 27.296875 
z
M 18.109375 46.390625 
Q 20.953125 51.265625 25.265625 53.625 
Q 29.59375 56 35.59375 56 
Q 45.5625 56 51.78125 48.09375 
Q 58.015625 40.1875 58.015625 27.296875 
Q 58.015625 14.40625 51.78125 6.484375 
Q 45.5625 -1.421875 35.59375 -1.421875 
Q 29.59375 -1.421875 25.265625 0.953125 
Q 20.953125 3.328125 18.109375 8.203125 
L 18.109375 0 
L 9.078125 0 
L 9.078125 75.984375 
L 18.109375 75.984375 
z
" id="DejaVuSans-98"/>
     <path d="M 2.984375 54.6875 
L 12.5 54.6875 
L 29.59375 8.796875 
L 46.6875 54.6875 
L 56.203125 54.6875 
L 35.6875 0 
L 23.484375 0 
z
" id="DejaVuSans-118"/>
    </defs>
    <use xlink:href="#DejaVuSans-71"/>
    <use x="77.490234" xlink:href="#DejaVuSans-101"/>
    <use x="139.013672" xlink:href="#DejaVuSans-103"/>
    <use x="202.490234" xlink:href="#DejaVuSans-101"/>
    <use x="264.013672" xlink:href="#DejaVuSans-110"/>
    <use x="327.392578" xlink:href="#DejaVuSans-101"/>
    <use x="388.916016" xlink:href="#DejaVuSans-114"/>
    <use x="427.779297" xlink:href="#DejaVuSans-101"/>
    <use x="489.302734" xlink:href="#DejaVuSans-101"/>
    <use x="550.826172" xlink:href="#DejaVuSans-114"/>
    <use x="590.189453" xlink:href="#DejaVuSans-100"/>
    <use x="653.666016" xlink:href="#DejaVuSans-32"/>
    <use x="685.453125" xlink:href="#DejaVuSans-111"/>
    <use x="746.634766" xlink:href="#DejaVuSans-112"/>
    <use x="810.111328" xlink:href="#DejaVuSans-32"/>
    <use x="841.898438" xlink:href="#DejaVuSans-50"/>
    <use x="905.521484" xlink:href="#DejaVuSans-48"/>
    <use x="969.144531" xlink:href="#DejaVuSans-50"/>
    <use x="1032.767578" xlink:href="#DejaVuSans-49"/>
    <use x="1096.390625" xlink:href="#DejaVuSans-45"/>
    <use x="1132.474609" xlink:href="#DejaVuSans-48"/>
    <use x="1196.097656" xlink:href="#DejaVuSans-50"/>
    <use x="1259.720703" xlink:href="#DejaVuSans-45"/>
    <use x="1295.804688" xlink:href="#DejaVuSans-50"/>
    <use x="1359.427734" xlink:href="#DejaVuSans-53"/>
    <use x="1423.050781" xlink:href="#DejaVuSans-32"/>
    <use x="1454.837891" xlink:href="#DejaVuSans-50"/>
    <use x="1518.460938" xlink:href="#DejaVuSans-51"/>
    <use x="1582.083984" xlink:href="#DejaVuSans-58"/>
    <use x="1615.775391" xlink:href="#DejaVuSans-50"/>
    <use x="1679.398438" xlink:href="#DejaVuSans-50"/>
    <use x="1743.021484" xlink:href="#DejaVuSans-32"/>
    <use x="1774.808594" xlink:href="#DejaVuSans-111"/>
    <use x="1834.240234" xlink:href="#DejaVuSans-46"/>
    <use x="1866.027344" xlink:href="#DejaVuSans-98"/>
    <use x="1929.503906" xlink:href="#DejaVuSans-46"/>
    <use x="1961.291016" xlink:href="#DejaVuSans-118"/>
    <use x="2012.720703" xlink:href="#DejaVuSans-46"/>
    <use x="2044.507812" xlink:href="#DejaVuSans-32"/>
    <use x="2076.294922" xlink:href="#DejaVuSans-100"/>
    <use x="2139.771484" xlink:href="#DejaVuSans-97"/>
    <use x="2201.050781" xlink:href="#DejaVuSans-116"/>
    <use x="2240.259766" xlink:href="#DejaVuSans-97"/>
    <use x="2301.539062" xlink:href="#DejaVuSans-32"/>
    <use x="2333.326172" xlink:href="#DejaVuSans-116"/>
    <use x="2372.535156" xlink:href="#DejaVuSans-111"/>
    <use x="2433.716797" xlink:href="#DejaVuSans-116"/>
    <use x="2472.925781" xlink:href="#DejaVuSans-32"/>
    <use x="2504.712891" xlink:href="#DejaVuSans-50"/>
    <use x="2568.335938" xlink:href="#DejaVuSans-48"/>
    <use x="2631.958984" xlink:href="#DejaVuSans-50"/>
    <use x="2695.582031" xlink:href="#DejaVuSans-49"/>
    <use x="2759.205078" xlink:href="#DejaVuSans-45"/>
    <use x="2795.289062" xlink:href="#DejaVuSans-48"/>
    <use x="2858.912109" xlink:href="#DejaVuSans-50"/>
    <use x="2922.535156" xlink:href="#DejaVuSans-45"/>
    <use x="2958.619141" xlink:href="#DejaVuSans-50"/>
    <use x="3022.242188" xlink:href="#DejaVuSans-50"/>
    <use x="3085.865234" xlink:href="#DejaVuSans-46"/>
   </g>
   <!-- Source code: http://github.com/realrolfje/coronadata -->
   <g style="fill:#808080;" transform="translate(7.2 213.84)scale(0.08 -0.08)">
    <defs>
     <path d="M 25.390625 72.90625 
L 33.6875 72.90625 
L 8.296875 -9.28125 
L 0 -9.28125 
z
" id="DejaVuSans-47"/>
     <path d="M 37.109375 75.984375 
L 37.109375 68.5 
L 28.515625 68.5 
Q 23.6875 68.5 21.796875 66.546875 
Q 19.921875 64.59375 19.921875 59.515625 
L 19.921875 54.6875 
L 34.71875 54.6875 
L 34.71875 47.703125 
L 19.921875 47.703125 
L 19.921875 0 
L 10.890625 0 
L 10.890625 47.703125 
L 2.296875 47.703125 
L 2.296875 54.6875 
L 10.890625 54.6875 
L 10.890625 58.5 
Q 10.890625 67.625 15.140625 71.796875 
Q 19.390625 75.984375 28.609375 75.984375 
z
" id="DejaVuSans-102"/>
     <path d="M 9.421875 54.6875 
L 18.40625 54.6875 
L 18.40625 -0.984375 
Q 18.40625 -11.421875 14.421875 -16.109375 
Q 10.453125 -20.796875 1.609375 -20.796875 
L -1.8125 -20.796875 
L -1.8125 -13.1875 
L 0.59375 -13.1875 
Q 5.71875 -13.1875 7.5625 -10.8125 
Q 9.421875 -8.453125 9.421875 -0.984375 
z
M 9.421875 75.984375 
L 18.40625 75.984375 
L 18.40625 64.59375 
L 9.421875 64.59375 
z
" id="DejaVuSans-106"/>
    </defs>
    <use xlink:href="#DejaVuSans-83"/>
    <use x="63.476562" xlink:href="#DejaVuSans-111"/>
    <use x="124.658203" xlink:href="#DejaVuSans-117"/>
    <use x="188.037109" xlink:href="#DejaVuSans-114"/>
    <use x="226.900391" xlink:href="#DejaVuSans-99"/>
    <use x="281.880859" xlink:href="#DejaVuSans-101"/>
    <use x="343.404297" xlink:href="#DejaVuSans-32"/>
    <use x="375.191406" xlink:href="#DejaVuSans-99"/>
    <use x="430.171875" xlink:href="#DejaVuSans-111"/>
    <use x="491.353516" xlink:href="#DejaVuSans-100"/>
    <use x="554.830078" xlink:href="#DejaVuSans-101"/>
    <use x="616.353516" xlink:href="#DejaVuSans-58"/>
    <use x="650.044922" xlink:href="#DejaVuSans-32"/>
    <use x="681.832031" xlink:href="#DejaVuSans-104"/>
    <use x="745.210938" xlink:href="#DejaVuSans-116"/>
    <use x="784.419922" xlink:href="#DejaVuSans-116"/>
    <use x="823.628906" xlink:href="#DejaVuSans-112"/>
    <use x="887.105469" xlink:href="#DejaVuSans-58"/>
    <use x="920.796875" xlink:href="#DejaVuSans-47"/>
    <use x="954.488281" xlink:href="#DejaVuSans-47"/>
    <use x="988.179688" xlink:href="#DejaVuSans-103"/>
    <use x="1051.65625" xlink:href="#DejaVuSans-105"/>
    <use x="1079.439453" xlink:href="#DejaVuSans-116"/>
    <use x="1118.648438" xlink:href="#DejaVuSans-104"/>
    <use x="1182.027344" xlink:href="#DejaVuSans-117"/>
    <use x="1245.40625" xlink:href="#DejaVuSans-98"/>
    <use x="1308.882812" xlink:href="#DejaVuSans-46"/>
    <use x="1340.669922" xlink:href="#DejaVuSans-99"/>
    <use x="1395.650391" xlink:href="#DejaVuSans-111"/>
    <use x="1456.832031" xlink:href="#DejaVuSans-109"/>
    <use x="1554.244141" xlink:href="#DejaVuSans-47"/>
    <use x="1587.935547" xlink:href="#DejaVuSans-114"/>
    <use x="1626.798828" xlink:href="#DejaVuSans-101"/>
    <use x="1688.322266" xlink:href="#DejaVuSans-97"/>
    <use x="1749.601562" xlink:href="#DejaVuSans-108"/>
    <use x="1777.384766" xlink:href="#DejaVuSans-114"/>
    <use x="1816.248047" xlink:href="#DejaVuSans-111"/>
    <use x="1877.429688" xlink:href="#DejaVuSans-108"/>
    <use x="1905.212891" xlink:href="#DejaVuSans-102"/>
    <use x="1940.417969" xlink:href="#DejaVuSans-106"/>
    <use x="1968.201172" xlink:href="#DejaVuSans-101"/>
    <use x="2029.724609" xlink:href="#DejaVuSans-47"/>
    <use x="2063.416016" xlink:href="#DejaVuSans-99"/>
    <use x="2118.396484" xlink:href="#DejaVuSans-111"/>
    <use x="2179.578125" xlink:href="#DejaVuSans-114"/>
    <use x="2218.441406" xlink:href="#DejaVuSans-111"/>
    <use x="2279.623047" xlink:href="#DejaVuSans-110"/>
    <use x="2343.001953" xlink:href="#DejaVuSans-97"/>
    <use x="2404.28125" xlink:href="#DejaVuSans-100"/>
    <use x="2467.757812" xlink:href="#DejaVuSans-97"/>
    <use x="2529.037109" xlink:href="#DejaVuSans-116"/>
    <use x="2568.246094" xlink:href="#DejaVuSans-97"/>
   </g>
  </g>
  <g id="text_25">
   <!-- Bron: https://data.rivm.nl/covid-19 -->
   <g style="fill:#808080;" transform="translate(574.79875 213.84)scale(0.08 -0.08)">
    <defs>
     <path d="M 19.671875 34.8125 
L 19.671875 8.109375 
L 35.5 8.109375 
Q 43.453125 8.109375 47.28125 11.40625 
Q 51.125 14.703125 51.125 21.484375 
Q 51.125 28.328125 47.28125 31.5625 
Q 43.453125 34.8125 35.5 34.8125 
z
M 19.671875 64.796875 
L 19.671875 42.828125 
L 34.28125 42.828125 
Q 41.5 42.828125 45.03125 45.53125 
Q 48.578125 48.25 48.578125 53.8125 
Q 48.578125 59.328125 45.03125 62.0625 
Q 41.5 64.796875 34.28125 64.796875 
z
M 9.8125 72.90625 
L 35.015625 72.90625 
Q 46.296875 72.90625 52.390625 68.21875 
Q 58.5 63.53125 58.5 54.890625 
Q 58.5 48.1875 55.375 44.234375 
Q 52.25 40.28125 46.1875 39.3125 
Q 53.46875 37.75 57.5 32.78125 
Q 61.53125 27.828125 61.53125 20.40625 
Q 61.53125 10.640625 54.890625 5.3125 
Q 48.25 0 35.984375 0 
L 9.8125 0 
z
" id="DejaVuSans-66"/>
    </defs>
    <use xlink:href="#DejaVuSans-66"/>
    <use x="68.603516" xlink:href="#DejaVuSans-114"/>
    <use x="107.466797" xlink:href="#DejaVuSans-111"/>
    <use x="168.648438" xlink:href="#DejaVuSans-110"/>
    <use x="232.027344" xlink:href="#DejaVuSans-58"/>
    <use x="265.71875" xlink:href="#DejaVuSans-32"/>
    <use x="297.505859" xlink:href="#DejaVuSans-104"/>
    <use x="360.884766" xlink:href="#DejaVuSans-116"/>
    <use x="400.09375" xlink:href="#DejaVuSans-116"/>
    <use x="439.302734" xlink:href="#DejaVuSans-112"/>
    <use x="502.779297" xlink:href="#DejaVuSans-115"/>
    <use x="554.878906" xlink:href="#DejaVuSans-58"/>
    <use x="588.570312" xlink:href="#DejaVuSans-47"/>
    <use x="622.261719" xlink:href="#DejaVuSans-47"/>
    <use x="655.953125" xlink:href="#DejaVuSans-100"/>
    <use x="719.429688" xlink:href="#DejaVuSans-97"/>
    <use x="780.708984" xlink:href="#DejaVuSans-116"/>
    <use x="819.917969" xlink:href="#DejaVuSans-97"/>
    <use x="881.197266" xlink:href="#DejaVuSans-46"/>
    <use x="912.984375" xlink:href="#DejaVuSans-114"/>
    <use x="954.097656" xlink:href="#DejaVuSans-105"/>
    <use x="981.880859" xlink:href="#DejaVuSans-118"/>
    <use x="1041.060547" xlink:href="#DejaVuSans-109"/>
    <use x="1138.472656" xlink:href="#DejaVuSans-46"/>
    <use x="1170.259766" xlink:href="#DejaVuSans-110"/>
    <use x="1233.638672" xlink:href="#DejaVuSans-108"/>
    <use x="1261.421875" xlink:href="#DejaVuSans-47"/>
    <use x="1295.113281" xlink:href="#DejaVuSans-99"/>
    <use x="1350.09375" xlink:href="#DejaVuSans-111"/>
    <use x="1411.275391" xlink:href="#DejaVuSans-118"/>
    <use x="1470.455078" xlink:href="#DejaVuSans-105"/>
    <use x="1498.238281" xlink:href="#DejaVuSans-100"/>
    <use x="1561.714844" xlink:href="#DejaVuSans-45"/>
    <use x="1597.798828" xlink:href="#DejaVuSans-49"/>
    <use x="1661.421875" xlink:href="#DejaVuSans-57"/>
   </g>
  </g>
  <g id="text_26">
   <g id="patch_13">
    <path d="M 637.2 176.62375 
L 647.38 176.62375 
L 647.38 168.88125 
L 637.2 168.88125 
z
" style="fill:#ffffff;opacity:0.9;stroke:#ffffff;stroke-linejoin:miter;"/>
   </g>
   <!-- 25 -->
   <g style="fill:#ff0000;" transform="translate(637.2 174.96)scale(0.08 -0.08)">
    <use xlink:href="#DejaVuSans-50"/>
    <use x="63.623047" xlink:href="#DejaVuSans-53"/>
   </g>
  </g>
  <g id="text_27">
   <g id="patch_14">
    <path d="M 212 92.479688 
L 339.317187 92.479688 
L 339.317187 74.801563 
L 212 74.801563 
z
" style="fill:#ffffff;stroke:#ffffff;stroke-linejoin:miter;"/>
   </g>
   <!-- "Je plee liegt niet" - Rolf -->
   <g style="fill:#808080;" transform="translate(216 86.4)scale(0.1 -0.1)">
    <defs>
     <path d="M 17.921875 72.90625 
L 17.921875 45.796875 
L 9.625 45.796875 
L 9.625 72.90625 
z
M 36.375 72.90625 
L 36.375 45.796875 
L 28.078125 45.796875 
L 28.078125 72.90625 
z
" id="DejaVuSans-34"/>
     <path d="M 9.8125 72.90625 
L 19.671875 72.90625 
L 19.671875 5.078125 
Q 19.671875 -8.109375 14.671875 -14.0625 
Q 9.671875 -20.015625 -1.421875 -20.015625 
L -5.171875 -20.015625 
L -5.171875 -11.71875 
L -2.09375 -11.71875 
Q 4.4375 -11.71875 7.125 -8.046875 
Q 9.8125 -4.390625 9.8125 5.078125 
z
" id="DejaVuSans-74"/>
    </defs>
    <use xlink:href="#DejaVuSans-34"/>
    <use x="45.996094" xlink:href="#DejaVuSans-74"/>
    <use x="75.488281" xlink:href="#DejaVuSans-101"/>
    <use x="137.011719" xlink:href="#DejaVuSans-32"/>
    <use x="168.798828" xlink:href="#DejaVuSans-112"/>
    <use x="232.275391" xlink:href="#DejaVuSans-108"/>
    <use x="260.058594" xlink:href="#DejaVuSans-101"/>
    <use x="321.582031" xlink:href="#DejaVuSans-101"/>
    <use x="383.105469" xlink:href="#DejaVuSans-32"/>
    <use x="414.892578" xlink:href="#DejaVuSans-108"/>
    <use x="442.675781" xlink:href="#DejaVuSans-105"/>
    <use x="470.458984" xlink:href="#DejaVuSans-101"/>
    <use x="531.982422" xlink:href="#DejaVuSans-103"/>
    <use x="595.458984" xlink:href="#DejaVuSans-116"/>
    <use x="634.667969" xlink:href="#DejaVuSans-32"/>
    <use x="666.455078" xlink:href="#DejaVuSans-110"/>
    <use x="729.833984" xlink:href="#DejaVuSans-105"/>
    <use x="757.617188" xlink:href="#DejaVuSans-101"/>
    <use x="819.140625" xlink:href="#DejaVuSans-116"/>
    <use x="858.349609" xlink:href="#DejaVuSans-34"/>
    <use x="904.345703" xlink:href="#DejaVuSans-32"/>
    <use x="936.132812" xlink:href="#DejaVuSans-45"/>
    <use x="972.216797" xlink:href="#DejaVuSans-32"/>
    <use x="1004.003906" xlink:href="#DejaVuSans-82"/>
    <use x="1068.986328" xlink:href="#DejaVuSans-111"/>
    <use x="1130.167969" xlink:href="#DejaVuSans-108"/>
    <use x="1157.951172" xlink:href="#DejaVuSans-102"/>
   </g>
  </g>
 </g>
 <defs>
  <clipPath id="p029240b5f4">
   <rect height="146.88" width="590.4" x="64.8" y="25.92"/>
  </clipPath>
 </defs>
</svg>
