<?xml version="1.0" encoding="utf-8" standalone="no"?>
<!DOCTYPE svg PUBLIC "-//W3C//DTD SVG 1.1//EN"
  "http://www.w3.org/Graphics/SVG/1.1/DTD/svg11.dtd">
<!-- Created with matplotlib (https://matplotlib.org/) -->
<svg height="216pt" version="1.1" viewBox="0 0 720 216" width="720pt" xmlns="http://www.w3.org/2000/svg" xmlns:xlink="http://www.w3.org/1999/xlink">
 <metadata>
  <rdf:RDF xmlns:cc="http://creativecommons.org/ns#" xmlns:dc="http://purl.org/dc/elements/1.1/" xmlns:rdf="http://www.w3.org/1999/02/22-rdf-syntax-ns#">
   <cc:Work>
    <dc:type rdf:resource="http://purl.org/dc/dcmitype/StillImage"/>
    <dc:date>2021-10-08T11:41:13.670182</dc:date>
    <dc:format>image/svg+xml</dc:format>
    <dc:creator>
     <cc:Agent>
      <dc:title>Matplotlib v3.3.2, https://matplotlib.org/</dc:title>
     </cc:Agent>
    </dc:creator>
   </cc:Work>
  </rdf:RDF>
 </metadata>
 <defs>
  <style type="text/css">*{stroke-linecap:butt;stroke-linejoin:round;}</style>
 </defs>
 <g id="figure_1">
  <g id="patch_1">
   <path d="M 0 216 
L 720 216 
L 720 0 
L 0 0 
z
" style="fill:#ffffff;"/>
  </g>
  <g id="axes_1">
   <g id="patch_2">
    <path d="M 64.8 172.8 
L 655.2 172.8 
L 655.2 25.92 
L 64.8 25.92 
z
" style="fill:#ffffff;"/>
   </g>
   <g id="PolyCollection_1">
    <path clip-path="url(#p69ccb61f48)" d="M 93.721622 172.8 
L 93.721622 172.8 
L 94.718919 172.8 
L 95.716216 172.8 
L 96.713514 172.8 
L 99.705405 172.8 
L 100.702703 172.8 
L 101.7 172.8 
L 102.697297 172.8 
L 103.694595 172.8 
L 104.691892 172.8 
L 107.683784 172.8 
L 108.681081 172.8 
L 109.678378 172.8 
L 110.675676 172.8 
L 111.672973 172.8 
L 113.667568 172.8 
L 114.664865 172.8 
L 115.662162 172.8 
L 116.659459 172.8 
L 117.656757 172.8 
L 120.648649 172.8 
L 121.645946 172.8 
L 122.643243 172.8 
L 123.640541 172.8 
L 124.637838 172.8 
L 125.635135 172.8 
L 127.62973 172.8 
L 129.624324 172.8 
L 130.621622 172.8 
L 131.618919 172.8 
L 133.613514 172.8 
L 134.610811 172.8 
L 135.608108 172.8 
L 136.605405 172.8 
L 137.602703 172.8 
L 139.597297 172.8 
L 140.594595 172.8 
L 141.591892 172.8 
L 142.589189 172.8 
L 143.586486 172.8 
L 144.583784 172.8 
L 145.581081 172.8 
L 146.578378 172.8 
L 147.575676 172.8 
L 148.572973 172.8 
L 149.57027 172.8 
L 150.567568 172.8 
L 151.564865 172.8 
L 152.562162 172.8 
L 153.559459 172.8 
L 156.551351 172.8 
L 157.548649 172.8 
L 158.545946 172.8 
L 159.543243 172.8 
L 160.540541 172.8 
L 161.537838 172.8 
L 162.535135 172.8 
L 163.532432 172.8 
L 164.52973 172.8 
L 165.527027 172.8 
L 166.524324 172.8 
L 169.516216 172.8 
L 170.513514 172.8 
L 171.510811 172.8 
L 172.508108 172.8 
L 176.497297 172.8 
L 177.494595 172.8 
L 178.491892 172.8 
L 182.481081 172.8 
L 183.478378 172.8 
L 184.475676 172.8 
L 185.472973 172.8 
L 187.467568 172.8 
L 191.456757 172.8 
L 192.454054 172.8 
L 193.451351 172.8 
L 198.437838 172.8 
L 199.435135 172.8 
L 201.42973 172.8 
L 203.424324 172.8 
L 204.421622 172.8 
L 205.418919 172.8 
L 206.416216 172.8 
L 207.413514 172.8 
L 208.410811 172.8 
L 209.408108 172.8 
L 210.405405 172.8 
L 211.402703 172.8 
L 212.4 172.8 
L 213.397297 172.8 
L 214.394595 172.8 
L 215.391892 172.8 
L 216.389189 172.8 
L 217.386486 172.8 
L 218.383784 172.8 
L 219.381081 172.8 
L 220.378378 172.8 
L 221.375676 172.8 
L 222.372973 172.8 
L 223.37027 172.8 
L 225.364865 172.8 
L 226.362162 172.8 
L 227.359459 172.8 
L 228.356757 172.8 
L 229.354054 172.8 
L 230.351351 172.8 
L 231.348649 172.8 
L 232.345946 172.8 
L 233.343243 172.8 
L 234.340541 172.8 
L 235.337838 172.8 
L 236.335135 172.8 
L 237.332432 172.8 
L 238.32973 172.8 
L 239.327027 172.8 
L 240.324324 172.8 
L 241.321622 172.8 
L 242.318919 172.8 
L 243.316216 172.8 
L 244.313514 172.8 
L 245.310811 172.8 
L 246.308108 172.8 
L 247.305405 172.8 
L 248.302703 172.8 
L 249.3 172.8 
L 250.297297 172.8 
L 251.294595 172.8 
L 252.291892 172.8 
L 253.289189 172.8 
L 254.286486 172.8 
L 255.283784 172.8 
L 256.281081 172.8 
L 257.278378 172.8 
L 258.275676 172.8 
L 259.272973 172.8 
L 260.27027 172.8 
L 261.267568 172.8 
L 262.264865 172.8 
L 263.262162 172.8 
L 264.259459 172.8 
L 265.256757 172.8 
L 266.254054 172.8 
L 267.251351 172.8 
L 268.248649 172.8 
L 269.245946 172.8 
L 270.243243 172.8 
L 271.240541 172.8 
L 272.237838 172.8 
L 273.235135 172.8 
L 274.232432 172.8 
L 275.22973 172.8 
L 276.227027 172.8 
L 277.224324 172.8 
L 278.221622 172.8 
L 279.218919 172.8 
L 280.216216 172.8 
L 281.213514 172.8 
L 282.210811 172.8 
L 283.208108 172.8 
L 284.205405 172.8 
L 285.202703 172.8 
L 286.2 172.8 
L 287.197297 172.8 
L 288.194595 172.8 
L 289.191892 172.8 
L 290.189189 172.8 
L 291.186486 172.8 
L 292.183784 172.8 
L 293.181081 172.8 
L 294.178378 172.8 
L 295.175676 172.8 
L 296.172973 172.8 
L 297.17027 172.8 
L 298.167568 172.8 
L 299.164865 172.8 
L 300.162162 172.8 
L 301.159459 172.8 
L 302.156757 172.8 
L 303.154054 172.8 
L 304.151351 172.8 
L 305.148649 172.8 
L 306.145946 172.8 
L 307.143243 172.8 
L 308.140541 172.8 
L 309.137838 172.8 
L 310.135135 172.8 
L 311.132432 172.8 
L 312.12973 172.8 
L 313.127027 172.8 
L 314.124324 172.8 
L 315.121622 172.8 
L 316.118919 172.8 
L 317.116216 172.8 
L 318.113514 172.8 
L 319.110811 172.8 
L 320.108108 172.8 
L 321.105405 172.8 
L 322.102703 172.8 
L 323.1 172.8 
L 324.097297 172.8 
L 325.094595 172.8 
L 326.091892 172.8 
L 327.089189 172.8 
L 328.086486 172.8 
L 329.083784 172.8 
L 330.081081 172.8 
L 331.078378 172.8 
L 332.075676 172.8 
L 333.072973 172.8 
L 334.07027 172.8 
L 335.067568 172.8 
L 336.064865 172.8 
L 337.062162 172.8 
L 338.059459 172.8 
L 339.056757 172.8 
L 340.054054 172.8 
L 341.051351 172.8 
L 342.048649 172.8 
L 343.045946 172.8 
L 344.043243 172.8 
L 345.040541 172.8 
L 346.037838 172.8 
L 347.035135 172.8 
L 348.032432 172.8 
L 349.02973 172.8 
L 350.027027 172.8 
L 351.024324 172.8 
L 352.021622 172.8 
L 353.018919 172.8 
L 354.016216 172.8 
L 355.013514 172.8 
L 356.010811 172.8 
L 357.008108 172.8 
L 358.005405 172.8 
L 359.002703 172.8 
L 360 172.8 
L 360.997297 172.8 
L 361.994595 172.8 
L 362.991892 172.8 
L 363.989189 172.8 
L 364.986486 172.8 
L 365.983784 172.8 
L 366.981081 172.8 
L 367.978378 172.8 
L 369.972973 172.8 
L 370.97027 172.8 
L 371.967568 172.8 
L 372.964865 172.8 
L 373.962162 172.8 
L 374.959459 172.8 
L 375.956757 172.8 
L 376.954054 172.8 
L 377.951351 172.8 
L 378.948649 172.8 
L 379.945946 172.8 
L 380.943243 172.8 
L 381.940541 172.8 
L 382.937838 172.8 
L 383.935135 172.8 
L 384.932432 172.8 
L 385.92973 172.8 
L 386.927027 172.8 
L 387.924324 172.8 
L 388.921622 172.8 
L 389.918919 172.8 
L 390.916216 172.8 
L 391.913514 172.8 
L 392.910811 172.8 
L 393.908108 172.8 
L 394.905405 172.8 
L 395.902703 172.8 
L 396.9 172.8 
L 397.897297 172.8 
L 398.894595 172.8 
L 399.891892 172.8 
L 400.889189 172.8 
L 401.886486 172.8 
L 402.883784 172.8 
L 403.881081 172.8 
L 404.878378 172.8 
L 405.875676 172.8 
L 406.872973 172.8 
L 407.87027 172.8 
L 408.867568 172.8 
L 409.864865 172.8 
L 410.862162 172.8 
L 411.859459 172.8 
L 412.856757 172.8 
L 413.854054 172.8 
L 414.851351 172.8 
L 415.848649 172.8 
L 416.845946 172.8 
L 417.843243 172.8 
L 418.840541 172.8 
L 419.837838 172.8 
L 420.835135 172.8 
L 421.832432 172.8 
L 422.82973 172.8 
L 423.827027 172.8 
L 424.824324 172.8 
L 425.821622 172.8 
L 426.818919 172.8 
L 427.816216 172.8 
L 428.813514 172.8 
L 429.810811 172.8 
L 430.808108 172.8 
L 431.805405 172.8 
L 432.802703 172.8 
L 433.8 172.8 
L 434.797297 172.8 
L 435.794595 172.8 
L 436.791892 172.8 
L 437.789189 172.8 
L 438.786486 172.8 
L 439.783784 172.8 
L 440.781081 172.8 
L 441.778378 172.8 
L 442.775676 172.8 
L 443.772973 172.8 
L 444.77027 172.8 
L 445.767568 172.8 
L 446.764865 172.8 
L 447.762162 172.8 
L 448.759459 172.8 
L 449.756757 172.8 
L 450.754054 172.8 
L 451.751351 172.8 
L 452.748649 172.8 
L 453.745946 172.8 
L 454.743243 172.8 
L 455.740541 172.8 
L 456.737838 172.8 
L 457.735135 172.8 
L 458.732432 172.8 
L 459.72973 172.8 
L 460.727027 172.8 
L 461.724324 172.8 
L 462.721622 172.8 
L 463.718919 172.8 
L 464.716216 172.8 
L 465.713514 172.8 
L 466.710811 172.8 
L 467.708108 172.8 
L 468.705405 172.8 
L 469.702703 172.8 
L 470.7 172.8 
L 471.697297 172.8 
L 472.694595 172.8 
L 473.691892 172.8 
L 474.689189 172.8 
L 475.686486 172.8 
L 476.683784 172.8 
L 477.681081 172.8 
L 478.678378 172.8 
L 479.675676 172.8 
L 480.672973 172.8 
L 481.67027 172.8 
L 482.667568 172.8 
L 483.664865 172.8 
L 484.662162 172.8 
L 485.659459 172.8 
L 486.656757 172.8 
L 487.654054 172.8 
L 488.651351 172.8 
L 489.648649 172.8 
L 490.645946 172.8 
L 491.643243 172.8 
L 492.640541 172.8 
L 493.637838 172.8 
L 494.635135 172.8 
L 495.632432 172.8 
L 496.62973 172.8 
L 497.627027 172.8 
L 498.624324 172.8 
L 499.621622 172.8 
L 500.618919 172.8 
L 501.616216 172.8 
L 502.613514 172.8 
L 503.610811 172.8 
L 504.608108 172.8 
L 505.605405 172.8 
L 506.602703 172.8 
L 507.6 172.8 
L 508.597297 172.8 
L 509.594595 172.8 
L 511.589189 172.8 
L 512.586486 172.8 
L 513.583784 172.8 
L 514.581081 172.8 
L 515.578378 172.8 
L 516.575676 172.8 
L 517.572973 172.8 
L 518.57027 172.8 
L 519.567568 172.8 
L 520.564865 172.8 
L 521.562162 172.8 
L 522.559459 172.8 
L 523.556757 172.8 
L 525.551351 172.8 
L 526.548649 172.8 
L 527.545946 172.8 
L 528.543243 172.8 
L 529.540541 172.8 
L 531.535135 172.8 
L 532.532432 172.8 
L 533.52973 172.8 
L 534.527027 172.8 
L 535.524324 172.8 
L 536.521622 172.8 
L 538.516216 172.8 
L 539.513514 172.8 
L 540.510811 172.8 
L 541.508108 172.8 
L 542.505405 172.8 
L 543.502703 172.8 
L 544.5 172.8 
L 545.497297 172.8 
L 546.494595 172.8 
L 547.491892 172.8 
L 548.489189 172.8 
L 549.486486 172.8 
L 550.483784 172.8 
L 551.481081 172.8 
L 552.478378 172.8 
L 553.475676 172.8 
L 554.472973 172.8 
L 555.47027 172.8 
L 556.467568 172.8 
L 557.464865 172.8 
L 558.462162 172.8 
L 559.459459 172.8 
L 560.456757 172.8 
L 561.454054 172.8 
L 562.451351 172.8 
L 563.448649 172.8 
L 564.445946 172.8 
L 566.440541 172.8 
L 567.437838 172.8 
L 568.435135 172.8 
L 569.432432 172.8 
L 570.42973 172.8 
L 571.427027 172.8 
L 572.424324 172.8 
L 573.421622 172.8 
L 574.418919 172.8 
L 575.416216 172.8 
L 576.413514 172.8 
L 577.410811 172.8 
L 578.408108 172.8 
L 579.405405 172.8 
L 580.402703 172.8 
L 581.4 172.8 
L 582.397297 172.8 
L 583.394595 172.8 
L 584.391892 172.8 
L 585.389189 172.8 
L 586.386486 172.8 
L 587.383784 172.8 
L 588.381081 172.8 
L 589.378378 172.8 
L 590.375676 172.8 
L 591.372973 172.8 
L 592.37027 172.8 
L 593.367568 172.8 
L 594.364865 172.8 
L 595.362162 172.8 
L 596.359459 172.8 
L 597.356757 172.8 
L 598.354054 172.8 
L 599.351351 172.8 
L 600.348649 172.8 
L 601.345946 172.8 
L 602.343243 172.8 
L 603.340541 172.8 
L 604.337838 172.8 
L 605.335135 172.8 
L 606.332432 172.8 
L 607.32973 172.8 
L 608.327027 172.8 
L 609.324324 172.8 
L 610.321622 172.8 
L 611.318919 172.8 
L 612.316216 172.8 
L 613.313514 172.8 
L 614.310811 172.8 
L 615.308108 172.8 
L 616.305405 172.8 
L 617.302703 172.8 
L 618.3 172.8 
L 619.297297 172.8 
L 620.294595 172.8 
L 621.291892 172.8 
L 622.289189 172.8 
L 623.286486 172.8 
L 624.283784 172.8 
L 625.281081 172.8 
L 626.278378 172.8 
L 627.275676 172.8 
L 628.272973 172.8 
L 629.27027 172.8 
L 630.267568 172.8 
L 631.264865 172.8 
L 632.262162 172.8 
L 633.259459 172.8 
L 634.256757 172.8 
L 635.254054 172.8 
L 636.251351 172.8 
L 637.248649 172.8 
L 638.245946 172.8 
L 639.243243 172.8 
L 640.240541 172.8 
L 641.237838 172.8 
L 642.235135 172.8 
L 643.232432 172.8 
L 644.22973 172.8 
L 645.227027 172.8 
L 645.227027 172.8 
L 645.227027 156.219648 
L 644.22973 154.05795 
L 643.232432 160.835942 
L 642.235135 140.053806 
L 641.237838 162.36655 
L 640.240541 164.506261 
L 639.243243 163.9107 
L 638.245946 162.120683 
L 637.248649 162.401183 
L 636.251351 166.598875 
L 635.254054 165.039024 
L 634.256757 163.979091 
L 633.259459 165.132306 
L 632.262162 161.365432 
L 631.264865 160.510782 
L 630.267568 159.668159 
L 629.27027 159.42238 
L 628.272973 160.305115 
L 627.275676 155.993302 
L 626.278378 159.146021 
L 625.281081 160.38372 
L 624.283784 158.564648 
L 623.286486 154.609027 
L 622.289189 156.03763 
L 621.291892 154.065013 
L 620.294595 155.444786 
L 619.297297 152.587771 
L 618.3 159.071078 
L 617.302703 158.310789 
L 616.305405 156.481351 
L 615.308108 151.198209 
L 614.310811 156.308147 
L 613.313514 139.804451 
L 612.316216 143.77803 
L 611.318919 153.051543 
L 610.321622 153.903367 
L 609.324324 113.673352 
L 608.327027 126.552328 
L 607.32973 86.555518 
L 606.332432 91.367267 
L 605.335135 105.362619 
L 604.337838 110.946525 
L 603.340541 112.114965 
L 602.343243 67.483907 
L 601.345946 109.565735 
L 600.348649 99.673739 
L 599.351351 117.703493 
L 598.354054 133.57501 
L 597.356757 96.914461 
L 596.359459 102.426591 
L 595.362162 117.063489 
L 594.364865 103.97465 
L 593.367568 128.231253 
L 592.37027 120.401342 
L 591.372973 133.881449 
L 590.375676 118.374431 
L 589.378378 118.544303 
L 588.381081 113.231311 
L 587.383784 94.393136 
L 586.386486 100.809521 
L 585.389189 116.982772 
L 584.391892 122.566281 
L 583.394595 117.939511 
L 582.397297 128.276387 
L 581.4 124.907374 
L 580.402703 124.049843 
L 579.405405 99.893438 
L 578.408108 141.761223 
L 577.410811 150.067636 
L 576.413514 140.83918 
L 575.416216 131.634992 
L 574.418919 105.298774 
L 573.421622 96.246395 
L 572.424324 112.877385 
L 571.427027 117.094054 
L 570.42973 118.679378 
L 569.432432 128.586689 
L 568.435135 112.395215 
L 567.437838 129.273481 
L 566.440541 135.748475 
L 564.445946 69.624428 
L 563.448649 86.109646 
L 562.451351 115.620573 
L 561.454054 120.083675 
L 560.456757 107.106826 
L 559.459459 113.775038 
L 558.462162 131.657997 
L 557.464865 133.732477 
L 556.467568 152.113326 
L 555.47027 158.278977 
L 554.472973 154.895313 
L 553.475676 132.472614 
L 552.478378 165.203222 
L 551.481081 162.865835 
L 550.483784 165.044743 
L 549.486486 161.123898 
L 548.489189 157.473302 
L 547.491892 159.381456 
L 546.494595 149.038951 
L 545.497297 162.578342 
L 544.5 166.706488 
L 543.502703 164.762485 
L 542.505405 163.466462 
L 541.508108 166.407872 
L 540.510811 160.647305 
L 539.513514 165.344461 
L 538.516216 166.932537 
L 536.521622 164.907603 
L 535.524324 166.048249 
L 534.527027 158.564879 
L 533.52973 165.651949 
L 532.532432 163.717187 
L 531.535135 152.601763 
L 529.540541 166.231205 
L 528.543243 158.369896 
L 527.545946 164.722139 
L 526.548649 165.454857 
L 525.551351 156.945796 
L 523.556757 154.317977 
L 522.559459 161.941118 
L 521.562162 153.307361 
L 520.564865 150.072912 
L 519.567568 155.840208 
L 518.57027 143.823819 
L 517.572973 159.958058 
L 516.575676 157.182068 
L 515.578378 160.724095 
L 514.581081 150.87697 
L 513.583784 146.072729 
L 512.586486 147.623512 
L 511.589189 156.278739 
L 509.594595 160.980164 
L 508.597297 159.296363 
L 507.6 144.976202 
L 506.602703 147.069025 
L 505.605405 142.240589 
L 504.608108 150.252303 
L 503.610811 158.486605 
L 502.613514 144.834087 
L 501.616216 135.026605 
L 500.618919 137.38719 
L 499.621622 140.76536 
L 498.624324 145.787135 
L 497.627027 108.75472 
L 496.62973 103.262195 
L 495.632432 115.853748 
L 494.635135 141.745611 
L 493.637838 127.974218 
L 492.640541 114.265223 
L 491.643243 139.502399 
L 490.645946 143.86213 
L 489.648649 158.802785 
L 488.651351 153.367031 
L 487.654054 115.730656 
L 486.656757 135.551623 
L 485.659459 140.781943 
L 484.662162 121.148949 
L 483.664865 133.51249 
L 482.667568 130.091271 
L 481.67027 135.880988 
L 480.672973 147.345678 
L 479.675676 147.358762 
L 478.678378 137.24546 
L 477.681081 138.463304 
L 476.683784 127.871107 
L 475.686486 109.999958 
L 474.689189 143.626176 
L 473.691892 145.033573 
L 472.694595 148.298329 
L 471.697297 131.582982 
L 470.7 142.220105 
L 469.702703 137.02193 
L 468.705405 100.001389 
L 467.708108 134.666472 
L 466.710811 148.856331 
L 465.713514 123.085239 
L 464.716216 123.28907 
L 463.718919 134.702381 
L 462.721622 144.519171 
L 461.724324 142.299816 
L 460.727027 137.706486 
L 459.72973 136.594829 
L 458.732432 146.560702 
L 457.735135 138.886122 
L 456.737838 139.429368 
L 455.740541 132.664801 
L 454.743243 141.618189 
L 453.745946 122.583908 
L 452.748649 144.576796 
L 451.751351 133.39536 
L 450.754054 137.273546 
L 449.756757 137.452636 
L 448.759459 94.154458 
L 447.762162 149.836529 
L 446.764865 146.658218 
L 445.767568 144.203056 
L 444.77027 153.593223 
L 443.772973 131.990137 
L 442.775676 150.482938 
L 441.778378 146.062586 
L 440.781081 138.270488 
L 439.783784 140.474265 
L 438.786486 136.173656 
L 437.789189 145.561687 
L 436.791892 145.824076 
L 435.794595 134.917762 
L 434.797297 136.10468 
L 433.8 135.503673 
L 432.802703 143.411853 
L 431.805405 140.431129 
L 430.808108 149.631861 
L 429.810811 144.98062 
L 428.813514 152.134886 
L 427.816216 152.822361 
L 426.818919 107.094418 
L 425.821622 150.107848 
L 424.824324 155.110677 
L 423.827027 147.417759 
L 422.82973 134.378867 
L 421.832432 123.736455 
L 420.835135 94.452958 
L 419.837838 122.0091 
L 418.840541 119.619901 
L 417.843243 121.188992 
L 416.845946 136.746587 
L 415.848649 126.434458 
L 414.851351 98.953439 
L 413.854054 132.435553 
L 412.856757 143.631971 
L 411.859459 133.624532 
L 410.862162 131.986882 
L 409.864865 145.900622 
L 408.867568 103.401322 
L 407.87027 140.75296 
L 406.872973 156.623471 
L 405.875676 115.693219 
L 404.878378 152.467855 
L 403.881081 136.724815 
L 402.883784 127.879979 
L 401.886486 110.949963 
L 400.889189 138.956921 
L 399.891892 141.070653 
L 398.894595 129.142211 
L 397.897297 15.68914 
L 396.9 112.51842 
L 395.902703 118.917676 
L 394.905405 122.464196 
L 393.908108 116.446134 
L 392.910811 123.321189 
L 391.913514 128.227239 
L 390.916216 120.804251 
L 389.918919 114.072448 
L 388.921622 119.903631 
L 387.924324 70.994588 
L 386.927027 126.808108 
L 385.92973 95.85818 
L 384.932432 119.417674 
L 383.935135 118.310906 
L 382.937838 138.198319 
L 381.940541 118.67097 
L 380.943243 100.435639 
L 379.945946 102.553918 
L 378.948649 139.020643 
L 377.951351 143.226033 
L 376.954054 134.632717 
L 375.956757 94.712797 
L 374.959459 141.289227 
L 373.962162 136.549214 
L 372.964865 128.651341 
L 371.967568 142.366857 
L 370.97027 142.144416 
L 369.972973 148.582004 
L 367.978378 150.301365 
L 366.981081 124.130686 
L 365.983784 148.463833 
L 364.986486 109.279355 
L 363.989189 137.513423 
L 362.991892 110.618042 
L 361.994595 157.079793 
L 360.997297 83.438853 
L 360 111.983864 
L 359.002703 73.10336 
L 358.005405 133.429774 
L 357.008108 141.10212 
L 356.010811 126.848849 
L 355.013514 131.986563 
L 354.016216 120.910009 
L 353.018919 111.682893 
L 352.021622 98.98178 
L 351.024324 126.490178 
L 350.027027 127.43779 
L 349.02973 134.07015 
L 348.032432 144.533651 
L 347.035135 131.680919 
L 346.037838 150.393064 
L 345.040541 145.27843 
L 344.043243 139.303238 
L 343.045946 155.751244 
L 342.048649 154.233432 
L 341.051351 134.665619 
L 340.054054 150.453264 
L 339.056757 133.212145 
L 338.059459 112.441861 
L 337.062162 145.385705 
L 336.064865 149.906995 
L 335.067568 140.872824 
L 334.07027 154.75904 
L 333.072973 158.325885 
L 332.075676 122.986544 
L 331.078378 151.408339 
L 330.081081 133.081133 
L 329.083784 150.505208 
L 328.086486 140.557451 
L 327.089189 148.638725 
L 326.091892 150.043084 
L 325.094595 135.317896 
L 324.097297 130.896421 
L 323.1 44.19538 
L 322.102703 48.314342 
L 321.105405 38.960058 
L 320.108108 120.178486 
L 319.110811 127.942063 
L 318.113514 127.312334 
L 317.116216 112.150758 
L 316.118919 55.100585 
L 315.121622 90.109583 
L 314.124324 105.917867 
L 313.127027 118.046992 
L 312.12973 144.181423 
L 311.132432 133.659635 
L 310.135135 131.180353 
L 309.137838 77.76794 
L 308.140541 62.971903 
L 307.143243 124.882684 
L 306.145946 89.662709 
L 305.148649 10.998957 
L 304.151351 42.325429 
L 303.154054 119.37907 
L 302.156757 60.147282 
L 301.159459 113.670515 
L 300.162162 114.579916 
L 299.164865 139.850924 
L 298.167568 -22.688593 
L 297.17027 97.161934 
L 296.172973 124.685875 
L 295.175676 92.778764 
L 294.178378 116.281461 
L 293.181081 84.918185 
L 292.183784 138.007466 
L 291.186486 124.430258 
L 290.189189 136.678603 
L 289.191892 136.124372 
L 288.194595 61.256752 
L 287.197297 63.073683 
L 286.2 104.374328 
L 285.202703 107.505785 
L 284.205405 105.39117 
L 283.208108 115.175898 
L 282.210811 115.176844 
L 281.213514 138.169566 
L 280.216216 127.208149 
L 279.218919 137.472289 
L 278.221622 130.374689 
L 277.224324 149.408029 
L 276.227027 142.902446 
L 275.22973 135.045965 
L 274.232432 130.120766 
L 273.235135 139.469932 
L 272.237838 162.340975 
L 271.240541 153.624372 
L 270.243243 156.720253 
L 269.245946 153.243879 
L 268.248649 162.158375 
L 267.251351 154.781233 
L 266.254054 158.549592 
L 265.256757 161.632101 
L 264.259459 159.761953 
L 263.262162 160.107711 
L 262.264865 165.527412 
L 261.267568 154.794115 
L 260.27027 163.750219 
L 259.272973 165.2287 
L 258.275676 164.821544 
L 257.278378 161.646779 
L 256.281081 159.606196 
L 255.283784 162.994352 
L 254.286486 161.883705 
L 253.289189 149.381088 
L 252.291892 164.428987 
L 251.294595 159.888726 
L 250.297297 166.563039 
L 249.3 166.534956 
L 248.302703 167.354906 
L 247.305405 165.740164 
L 246.308108 165.395173 
L 245.310811 164.825302 
L 244.313514 161.830637 
L 243.316216 168.346235 
L 242.318919 164.500286 
L 241.321622 163.345375 
L 240.324324 160.25679 
L 239.327027 147.864797 
L 238.32973 157.254084 
L 237.332432 159.035512 
L 236.335135 159.196279 
L 235.337838 165.409017 
L 234.340541 155.121236 
L 233.343243 158.398205 
L 232.345946 163.285903 
L 231.348649 163.806139 
L 230.351351 142.402059 
L 229.354054 152.048592 
L 228.356757 166.735444 
L 227.359459 156.342563 
L 226.362162 161.919325 
L 225.364865 159.86404 
L 223.37027 167.582633 
L 222.372973 170.608903 
L 221.375676 167.929001 
L 220.378378 156.555167 
L 219.381081 133.564508 
L 218.383784 135.992416 
L 217.386486 163.81682 
L 216.389189 162.799855 
L 215.391892 166.723629 
L 214.394595 158.481092 
L 213.397297 165.012991 
L 212.4 153.975685 
L 211.402703 158.265335 
L 210.405405 142.900343 
L 209.408108 166.826596 
L 208.410811 150.345553 
L 207.413514 169.497674 
L 206.416216 143.506905 
L 205.418919 167.883728 
L 204.421622 164.754609 
L 203.424324 169.502519 
L 201.42973 163.177544 
L 199.435135 169.337268 
L 198.437838 168.942674 
L 193.451351 165.412106 
L 192.454054 168.689792 
L 191.456757 167.50154 
L 187.467568 166.851581 
L 185.472973 172.116684 
L 184.475676 168.718239 
L 183.478378 166.636881 
L 182.481081 164.008619 
L 178.491892 169.955907 
L 177.494595 171.573335 
L 176.497297 167.091582 
L 172.508108 169.716459 
L 171.510811 167.099412 
L 170.513514 169.626374 
L 169.516216 164.571721 
L 166.524324 162.565527 
L 165.527027 166.791262 
L 164.52973 168.882955 
L 163.532432 166.818012 
L 162.535135 171.120596 
L 161.537838 171.433588 
L 160.540541 166.078253 
L 159.543243 162.127068 
L 158.545946 163.34801 
L 157.548649 162.074622 
L 156.551351 160.42577 
L 153.559459 171.558047 
L 152.562162 171.453746 
L 151.564865 148.37656 
L 150.567568 165.654567 
L 149.57027 165.270275 
L 148.572973 152.138744 
L 147.575676 171.059039 
L 146.578378 165.212548 
L 145.581081 151.928567 
L 144.583784 170.630847 
L 143.586486 163.842436 
L 142.589189 166.665581 
L 141.591892 165.107521 
L 140.594595 171.311531 
L 139.597297 166.334267 
L 137.602703 168.424196 
L 136.605405 169.840436 
L 135.608108 165.242075 
L 134.610811 164.105759 
L 133.613514 167.329548 
L 131.618919 158.454184 
L 130.621622 164.529101 
L 129.624324 161.97235 
L 127.62973 163.500264 
L 125.635135 169.278365 
L 124.637838 164.882408 
L 123.640541 163.086795 
L 122.643243 157.206963 
L 121.645946 159.025131 
L 120.648649 166.781834 
L 117.656757 75.409234 
L 116.659459 150.171596 
L 115.662162 165.826859 
L 114.664865 164.679645 
L 113.667568 163.82511 
L 111.672973 171.94407 
L 110.675676 158.326398 
L 109.678378 155.862477 
L 108.681081 165.54048 
L 107.683784 128.572481 
L 104.691892 149.722086 
L 103.694595 119.760025 
L 102.697297 125.072419 
L 101.7 143.832365 
L 100.702703 101.506725 
L 99.705405 106.895652 
L 96.713514 110.557719 
L 95.716216 125.090338 
L 94.718919 146.064542 
L 93.721622 116.734235 
z
" style="fill:#008000;fill-opacity:0.3;"/>
   </g>
   <g id="matplotlib.axis_1">
    <g id="xtick_1">
     <g id="line2d_1">
      <path clip-path="url(#p69ccb61f48)" d="M 64.8 172.8 
L 64.8 25.92 
" style="fill:none;stroke:#808080;stroke-dasharray:6.4,1.6,1,1.6;stroke-dashoffset:0;stroke-opacity:0.3;"/>
     </g>
     <g id="line2d_2">
      <defs>
       <path d="M 0 0 
L 0 3.5 
" id="m132419b794" style="stroke:#000000;stroke-width:0.8;"/>
      </defs>
      <g>
       <use style="stroke:#000000;stroke-width:0.8;" x="64.8" xlink:href="#m132419b794" y="172.8"/>
      </g>
     </g>
     <g id="text_1">
      <!-- 2020-03 -->
      <g transform="translate(43.908594 187.398438)scale(0.1 -0.1)">
       <defs>
        <path d="M 19.1875 8.296875 
L 53.609375 8.296875 
L 53.609375 0 
L 7.328125 0 
L 7.328125 8.296875 
Q 12.9375 14.109375 22.625 23.890625 
Q 32.328125 33.6875 34.8125 36.53125 
Q 39.546875 41.84375 41.421875 45.53125 
Q 43.3125 49.21875 43.3125 52.78125 
Q 43.3125 58.59375 39.234375 62.25 
Q 35.15625 65.921875 28.609375 65.921875 
Q 23.96875 65.921875 18.8125 64.3125 
Q 13.671875 62.703125 7.8125 59.421875 
L 7.8125 69.390625 
Q 13.765625 71.78125 18.9375 73 
Q 24.125 74.21875 28.421875 74.21875 
Q 39.75 74.21875 46.484375 68.546875 
Q 53.21875 62.890625 53.21875 53.421875 
Q 53.21875 48.921875 51.53125 44.890625 
Q 49.859375 40.875 45.40625 35.40625 
Q 44.1875 33.984375 37.640625 27.21875 
Q 31.109375 20.453125 19.1875 8.296875 
z
" id="DejaVuSans-50"/>
        <path d="M 31.78125 66.40625 
Q 24.171875 66.40625 20.328125 58.90625 
Q 16.5 51.421875 16.5 36.375 
Q 16.5 21.390625 20.328125 13.890625 
Q 24.171875 6.390625 31.78125 6.390625 
Q 39.453125 6.390625 43.28125 13.890625 
Q 47.125 21.390625 47.125 36.375 
Q 47.125 51.421875 43.28125 58.90625 
Q 39.453125 66.40625 31.78125 66.40625 
z
M 31.78125 74.21875 
Q 44.046875 74.21875 50.515625 64.515625 
Q 56.984375 54.828125 56.984375 36.375 
Q 56.984375 17.96875 50.515625 8.265625 
Q 44.046875 -1.421875 31.78125 -1.421875 
Q 19.53125 -1.421875 13.0625 8.265625 
Q 6.59375 17.96875 6.59375 36.375 
Q 6.59375 54.828125 13.0625 64.515625 
Q 19.53125 74.21875 31.78125 74.21875 
z
" id="DejaVuSans-48"/>
        <path d="M 4.890625 31.390625 
L 31.203125 31.390625 
L 31.203125 23.390625 
L 4.890625 23.390625 
z
" id="DejaVuSans-45"/>
        <path d="M 40.578125 39.3125 
Q 47.65625 37.796875 51.625 33 
Q 55.609375 28.21875 55.609375 21.1875 
Q 55.609375 10.40625 48.1875 4.484375 
Q 40.765625 -1.421875 27.09375 -1.421875 
Q 22.515625 -1.421875 17.65625 -0.515625 
Q 12.796875 0.390625 7.625 2.203125 
L 7.625 11.71875 
Q 11.71875 9.328125 16.59375 8.109375 
Q 21.484375 6.890625 26.8125 6.890625 
Q 36.078125 6.890625 40.9375 10.546875 
Q 45.796875 14.203125 45.796875 21.1875 
Q 45.796875 27.640625 41.28125 31.265625 
Q 36.765625 34.90625 28.71875 34.90625 
L 20.21875 34.90625 
L 20.21875 43.015625 
L 29.109375 43.015625 
Q 36.375 43.015625 40.234375 45.921875 
Q 44.09375 48.828125 44.09375 54.296875 
Q 44.09375 59.90625 40.109375 62.90625 
Q 36.140625 65.921875 28.71875 65.921875 
Q 24.65625 65.921875 20.015625 65.03125 
Q 15.375 64.15625 9.8125 62.3125 
L 9.8125 71.09375 
Q 15.4375 72.65625 20.34375 73.4375 
Q 25.25 74.21875 29.59375 74.21875 
Q 40.828125 74.21875 47.359375 69.109375 
Q 53.90625 64.015625 53.90625 55.328125 
Q 53.90625 49.265625 50.4375 45.09375 
Q 46.96875 40.921875 40.578125 39.3125 
z
" id="DejaVuSans-51"/>
       </defs>
       <use xlink:href="#DejaVuSans-50"/>
       <use x="63.623047" xlink:href="#DejaVuSans-48"/>
       <use x="127.246094" xlink:href="#DejaVuSans-50"/>
       <use x="190.869141" xlink:href="#DejaVuSans-48"/>
       <use x="254.492188" xlink:href="#DejaVuSans-45"/>
       <use x="290.576172" xlink:href="#DejaVuSans-48"/>
       <use x="354.199219" xlink:href="#DejaVuSans-51"/>
      </g>
     </g>
    </g>
    <g id="xtick_2">
     <g id="line2d_3">
      <path clip-path="url(#p69ccb61f48)" d="M 125.635135 172.8 
L 125.635135 25.92 
" style="fill:none;stroke:#808080;stroke-dasharray:6.4,1.6,1,1.6;stroke-dashoffset:0;stroke-opacity:0.3;"/>
     </g>
     <g id="line2d_4">
      <g>
       <use style="stroke:#000000;stroke-width:0.8;" x="125.635135" xlink:href="#m132419b794" y="172.8"/>
      </g>
     </g>
     <g id="text_2">
      <!-- 2020-05 -->
      <g transform="translate(104.743729 187.398438)scale(0.1 -0.1)">
       <defs>
        <path d="M 10.796875 72.90625 
L 49.515625 72.90625 
L 49.515625 64.59375 
L 19.828125 64.59375 
L 19.828125 46.734375 
Q 21.96875 47.46875 24.109375 47.828125 
Q 26.265625 48.1875 28.421875 48.1875 
Q 40.625 48.1875 47.75 41.5 
Q 54.890625 34.8125 54.890625 23.390625 
Q 54.890625 11.625 47.5625 5.09375 
Q 40.234375 -1.421875 26.90625 -1.421875 
Q 22.3125 -1.421875 17.546875 -0.640625 
Q 12.796875 0.140625 7.71875 1.703125 
L 7.71875 11.625 
Q 12.109375 9.234375 16.796875 8.0625 
Q 21.484375 6.890625 26.703125 6.890625 
Q 35.15625 6.890625 40.078125 11.328125 
Q 45.015625 15.765625 45.015625 23.390625 
Q 45.015625 31 40.078125 35.4375 
Q 35.15625 39.890625 26.703125 39.890625 
Q 22.75 39.890625 18.8125 39.015625 
Q 14.890625 38.140625 10.796875 36.28125 
z
" id="DejaVuSans-53"/>
       </defs>
       <use xlink:href="#DejaVuSans-50"/>
       <use x="63.623047" xlink:href="#DejaVuSans-48"/>
       <use x="127.246094" xlink:href="#DejaVuSans-50"/>
       <use x="190.869141" xlink:href="#DejaVuSans-48"/>
       <use x="254.492188" xlink:href="#DejaVuSans-45"/>
       <use x="290.576172" xlink:href="#DejaVuSans-48"/>
       <use x="354.199219" xlink:href="#DejaVuSans-53"/>
      </g>
     </g>
    </g>
    <g id="xtick_3">
     <g id="line2d_5">
      <path clip-path="url(#p69ccb61f48)" d="M 186.47027 172.8 
L 186.47027 25.92 
" style="fill:none;stroke:#808080;stroke-dasharray:6.4,1.6,1,1.6;stroke-dashoffset:0;stroke-opacity:0.3;"/>
     </g>
     <g id="line2d_6">
      <g>
       <use style="stroke:#000000;stroke-width:0.8;" x="186.47027" xlink:href="#m132419b794" y="172.8"/>
      </g>
     </g>
     <g id="text_3">
      <!-- 2020-07 -->
      <g transform="translate(165.578864 187.398438)scale(0.1 -0.1)">
       <defs>
        <path d="M 8.203125 72.90625 
L 55.078125 72.90625 
L 55.078125 68.703125 
L 28.609375 0 
L 18.3125 0 
L 43.21875 64.59375 
L 8.203125 64.59375 
z
" id="DejaVuSans-55"/>
       </defs>
       <use xlink:href="#DejaVuSans-50"/>
       <use x="63.623047" xlink:href="#DejaVuSans-48"/>
       <use x="127.246094" xlink:href="#DejaVuSans-50"/>
       <use x="190.869141" xlink:href="#DejaVuSans-48"/>
       <use x="254.492188" xlink:href="#DejaVuSans-45"/>
       <use x="290.576172" xlink:href="#DejaVuSans-48"/>
       <use x="354.199219" xlink:href="#DejaVuSans-55"/>
      </g>
     </g>
    </g>
    <g id="xtick_4">
     <g id="line2d_7">
      <path clip-path="url(#p69ccb61f48)" d="M 248.302703 172.8 
L 248.302703 25.92 
" style="fill:none;stroke:#808080;stroke-dasharray:6.4,1.6,1,1.6;stroke-dashoffset:0;stroke-opacity:0.3;"/>
     </g>
     <g id="line2d_8">
      <g>
       <use style="stroke:#000000;stroke-width:0.8;" x="248.302703" xlink:href="#m132419b794" y="172.8"/>
      </g>
     </g>
     <g id="text_4">
      <!-- 2020-09 -->
      <g transform="translate(227.411296 187.398438)scale(0.1 -0.1)">
       <defs>
        <path d="M 10.984375 1.515625 
L 10.984375 10.5 
Q 14.703125 8.734375 18.5 7.8125 
Q 22.3125 6.890625 25.984375 6.890625 
Q 35.75 6.890625 40.890625 13.453125 
Q 46.046875 20.015625 46.78125 33.40625 
Q 43.953125 29.203125 39.59375 26.953125 
Q 35.25 24.703125 29.984375 24.703125 
Q 19.046875 24.703125 12.671875 31.3125 
Q 6.296875 37.9375 6.296875 49.421875 
Q 6.296875 60.640625 12.9375 67.421875 
Q 19.578125 74.21875 30.609375 74.21875 
Q 43.265625 74.21875 49.921875 64.515625 
Q 56.59375 54.828125 56.59375 36.375 
Q 56.59375 19.140625 48.40625 8.859375 
Q 40.234375 -1.421875 26.421875 -1.421875 
Q 22.703125 -1.421875 18.890625 -0.6875 
Q 15.09375 0.046875 10.984375 1.515625 
z
M 30.609375 32.421875 
Q 37.25 32.421875 41.125 36.953125 
Q 45.015625 41.5 45.015625 49.421875 
Q 45.015625 57.28125 41.125 61.84375 
Q 37.25 66.40625 30.609375 66.40625 
Q 23.96875 66.40625 20.09375 61.84375 
Q 16.21875 57.28125 16.21875 49.421875 
Q 16.21875 41.5 20.09375 36.953125 
Q 23.96875 32.421875 30.609375 32.421875 
z
" id="DejaVuSans-57"/>
       </defs>
       <use xlink:href="#DejaVuSans-50"/>
       <use x="63.623047" xlink:href="#DejaVuSans-48"/>
       <use x="127.246094" xlink:href="#DejaVuSans-50"/>
       <use x="190.869141" xlink:href="#DejaVuSans-48"/>
       <use x="254.492188" xlink:href="#DejaVuSans-45"/>
       <use x="290.576172" xlink:href="#DejaVuSans-48"/>
       <use x="354.199219" xlink:href="#DejaVuSans-57"/>
      </g>
     </g>
    </g>
    <g id="xtick_5">
     <g id="line2d_9">
      <path clip-path="url(#p69ccb61f48)" d="M 309.137838 172.8 
L 309.137838 25.92 
" style="fill:none;stroke:#808080;stroke-dasharray:6.4,1.6,1,1.6;stroke-dashoffset:0;stroke-opacity:0.3;"/>
     </g>
     <g id="line2d_10">
      <g>
       <use style="stroke:#000000;stroke-width:0.8;" x="309.137838" xlink:href="#m132419b794" y="172.8"/>
      </g>
     </g>
     <g id="text_5">
      <!-- 2020-11 -->
      <g transform="translate(288.246432 187.398438)scale(0.1 -0.1)">
       <defs>
        <path d="M 12.40625 8.296875 
L 28.515625 8.296875 
L 28.515625 63.921875 
L 10.984375 60.40625 
L 10.984375 69.390625 
L 28.421875 72.90625 
L 38.28125 72.90625 
L 38.28125 8.296875 
L 54.390625 8.296875 
L 54.390625 0 
L 12.40625 0 
z
" id="DejaVuSans-49"/>
       </defs>
       <use xlink:href="#DejaVuSans-50"/>
       <use x="63.623047" xlink:href="#DejaVuSans-48"/>
       <use x="127.246094" xlink:href="#DejaVuSans-50"/>
       <use x="190.869141" xlink:href="#DejaVuSans-48"/>
       <use x="254.492188" xlink:href="#DejaVuSans-45"/>
       <use x="290.576172" xlink:href="#DejaVuSans-49"/>
       <use x="354.199219" xlink:href="#DejaVuSans-49"/>
      </g>
     </g>
    </g>
    <g id="xtick_6">
     <g id="line2d_11">
      <path clip-path="url(#p69ccb61f48)" d="M 369.972973 172.8 
L 369.972973 25.92 
" style="fill:none;stroke:#808080;stroke-dasharray:6.4,1.6,1,1.6;stroke-dashoffset:0;stroke-opacity:0.3;"/>
     </g>
     <g id="line2d_12">
      <g>
       <use style="stroke:#000000;stroke-width:0.8;" x="369.972973" xlink:href="#m132419b794" y="172.8"/>
      </g>
     </g>
     <g id="text_6">
      <!-- 2021-01 -->
      <g transform="translate(349.081567 187.398438)scale(0.1 -0.1)">
       <use xlink:href="#DejaVuSans-50"/>
       <use x="63.623047" xlink:href="#DejaVuSans-48"/>
       <use x="127.246094" xlink:href="#DejaVuSans-50"/>
       <use x="190.869141" xlink:href="#DejaVuSans-49"/>
       <use x="254.492188" xlink:href="#DejaVuSans-45"/>
       <use x="290.576172" xlink:href="#DejaVuSans-48"/>
       <use x="354.199219" xlink:href="#DejaVuSans-49"/>
      </g>
     </g>
    </g>
    <g id="xtick_7">
     <g id="line2d_13">
      <path clip-path="url(#p69ccb61f48)" d="M 428.813514 172.8 
L 428.813514 25.92 
" style="fill:none;stroke:#808080;stroke-dasharray:6.4,1.6,1,1.6;stroke-dashoffset:0;stroke-opacity:0.3;"/>
     </g>
     <g id="line2d_14">
      <g>
       <use style="stroke:#000000;stroke-width:0.8;" x="428.813514" xlink:href="#m132419b794" y="172.8"/>
      </g>
     </g>
     <g id="text_7">
      <!-- 2021-03 -->
      <g transform="translate(407.922107 187.398438)scale(0.1 -0.1)">
       <use xlink:href="#DejaVuSans-50"/>
       <use x="63.623047" xlink:href="#DejaVuSans-48"/>
       <use x="127.246094" xlink:href="#DejaVuSans-50"/>
       <use x="190.869141" xlink:href="#DejaVuSans-49"/>
       <use x="254.492188" xlink:href="#DejaVuSans-45"/>
       <use x="290.576172" xlink:href="#DejaVuSans-48"/>
       <use x="354.199219" xlink:href="#DejaVuSans-51"/>
      </g>
     </g>
    </g>
    <g id="xtick_8">
     <g id="line2d_15">
      <path clip-path="url(#p69ccb61f48)" d="M 489.648649 172.8 
L 489.648649 25.92 
" style="fill:none;stroke:#808080;stroke-dasharray:6.4,1.6,1,1.6;stroke-dashoffset:0;stroke-opacity:0.3;"/>
     </g>
     <g id="line2d_16">
      <g>
       <use style="stroke:#000000;stroke-width:0.8;" x="489.648649" xlink:href="#m132419b794" y="172.8"/>
      </g>
     </g>
     <g id="text_8">
      <!-- 2021-05 -->
      <g transform="translate(468.757242 187.398438)scale(0.1 -0.1)">
       <use xlink:href="#DejaVuSans-50"/>
       <use x="63.623047" xlink:href="#DejaVuSans-48"/>
       <use x="127.246094" xlink:href="#DejaVuSans-50"/>
       <use x="190.869141" xlink:href="#DejaVuSans-49"/>
       <use x="254.492188" xlink:href="#DejaVuSans-45"/>
       <use x="290.576172" xlink:href="#DejaVuSans-48"/>
       <use x="354.199219" xlink:href="#DejaVuSans-53"/>
      </g>
     </g>
    </g>
    <g id="xtick_9">
     <g id="line2d_17">
      <path clip-path="url(#p69ccb61f48)" d="M 550.483784 172.8 
L 550.483784 25.92 
" style="fill:none;stroke:#808080;stroke-dasharray:6.4,1.6,1,1.6;stroke-dashoffset:0;stroke-opacity:0.3;"/>
     </g>
     <g id="line2d_18">
      <g>
       <use style="stroke:#000000;stroke-width:0.8;" x="550.483784" xlink:href="#m132419b794" y="172.8"/>
      </g>
     </g>
     <g id="text_9">
      <!-- 2021-07 -->
      <g transform="translate(529.592378 187.398438)scale(0.1 -0.1)">
       <use xlink:href="#DejaVuSans-50"/>
       <use x="63.623047" xlink:href="#DejaVuSans-48"/>
       <use x="127.246094" xlink:href="#DejaVuSans-50"/>
       <use x="190.869141" xlink:href="#DejaVuSans-49"/>
       <use x="254.492188" xlink:href="#DejaVuSans-45"/>
       <use x="290.576172" xlink:href="#DejaVuSans-48"/>
       <use x="354.199219" xlink:href="#DejaVuSans-55"/>
      </g>
     </g>
    </g>
    <g id="xtick_10">
     <g id="line2d_19">
      <path clip-path="url(#p69ccb61f48)" d="M 612.316216 172.8 
L 612.316216 25.92 
" style="fill:none;stroke:#808080;stroke-dasharray:6.4,1.6,1,1.6;stroke-dashoffset:0;stroke-opacity:0.3;"/>
     </g>
     <g id="line2d_20">
      <g>
       <use style="stroke:#000000;stroke-width:0.8;" x="612.316216" xlink:href="#m132419b794" y="172.8"/>
      </g>
     </g>
     <g id="text_10">
      <!-- 2021-09 -->
      <g transform="translate(591.42481 187.398438)scale(0.1 -0.1)">
       <use xlink:href="#DejaVuSans-50"/>
       <use x="63.623047" xlink:href="#DejaVuSans-48"/>
       <use x="127.246094" xlink:href="#DejaVuSans-50"/>
       <use x="190.869141" xlink:href="#DejaVuSans-49"/>
       <use x="254.492188" xlink:href="#DejaVuSans-45"/>
       <use x="290.576172" xlink:href="#DejaVuSans-48"/>
       <use x="354.199219" xlink:href="#DejaVuSans-57"/>
      </g>
     </g>
    </g>
    <g id="text_11">
     <!-- Datum -->
     <g transform="translate(343.086719 201.076562)scale(0.1 -0.1)">
      <defs>
       <path d="M 19.671875 64.796875 
L 19.671875 8.109375 
L 31.59375 8.109375 
Q 46.6875 8.109375 53.6875 14.9375 
Q 60.6875 21.78125 60.6875 36.53125 
Q 60.6875 51.171875 53.6875 57.984375 
Q 46.6875 64.796875 31.59375 64.796875 
z
M 9.8125 72.90625 
L 30.078125 72.90625 
Q 51.265625 72.90625 61.171875 64.09375 
Q 71.09375 55.28125 71.09375 36.53125 
Q 71.09375 17.671875 61.125 8.828125 
Q 51.171875 0 30.078125 0 
L 9.8125 0 
z
" id="DejaVuSans-68"/>
       <path d="M 34.28125 27.484375 
Q 23.390625 27.484375 19.1875 25 
Q 14.984375 22.515625 14.984375 16.5 
Q 14.984375 11.71875 18.140625 8.90625 
Q 21.296875 6.109375 26.703125 6.109375 
Q 34.1875 6.109375 38.703125 11.40625 
Q 43.21875 16.703125 43.21875 25.484375 
L 43.21875 27.484375 
z
M 52.203125 31.203125 
L 52.203125 0 
L 43.21875 0 
L 43.21875 8.296875 
Q 40.140625 3.328125 35.546875 0.953125 
Q 30.953125 -1.421875 24.3125 -1.421875 
Q 15.921875 -1.421875 10.953125 3.296875 
Q 6 8.015625 6 15.921875 
Q 6 25.140625 12.171875 29.828125 
Q 18.359375 34.515625 30.609375 34.515625 
L 43.21875 34.515625 
L 43.21875 35.40625 
Q 43.21875 41.609375 39.140625 45 
Q 35.0625 48.390625 27.6875 48.390625 
Q 23 48.390625 18.546875 47.265625 
Q 14.109375 46.140625 10.015625 43.890625 
L 10.015625 52.203125 
Q 14.9375 54.109375 19.578125 55.046875 
Q 24.21875 56 28.609375 56 
Q 40.484375 56 46.34375 49.84375 
Q 52.203125 43.703125 52.203125 31.203125 
z
" id="DejaVuSans-97"/>
       <path d="M 18.3125 70.21875 
L 18.3125 54.6875 
L 36.8125 54.6875 
L 36.8125 47.703125 
L 18.3125 47.703125 
L 18.3125 18.015625 
Q 18.3125 11.328125 20.140625 9.421875 
Q 21.96875 7.515625 27.59375 7.515625 
L 36.8125 7.515625 
L 36.8125 0 
L 27.59375 0 
Q 17.1875 0 13.234375 3.875 
Q 9.28125 7.765625 9.28125 18.015625 
L 9.28125 47.703125 
L 2.6875 47.703125 
L 2.6875 54.6875 
L 9.28125 54.6875 
L 9.28125 70.21875 
z
" id="DejaVuSans-116"/>
       <path d="M 8.5 21.578125 
L 8.5 54.6875 
L 17.484375 54.6875 
L 17.484375 21.921875 
Q 17.484375 14.15625 20.5 10.265625 
Q 23.53125 6.390625 29.59375 6.390625 
Q 36.859375 6.390625 41.078125 11.03125 
Q 45.3125 15.671875 45.3125 23.6875 
L 45.3125 54.6875 
L 54.296875 54.6875 
L 54.296875 0 
L 45.3125 0 
L 45.3125 8.40625 
Q 42.046875 3.421875 37.71875 1 
Q 33.40625 -1.421875 27.6875 -1.421875 
Q 18.265625 -1.421875 13.375 4.4375 
Q 8.5 10.296875 8.5 21.578125 
z
M 31.109375 56 
z
" id="DejaVuSans-117"/>
       <path d="M 52 44.1875 
Q 55.375 50.25 60.0625 53.125 
Q 64.75 56 71.09375 56 
Q 79.640625 56 84.28125 50.015625 
Q 88.921875 44.046875 88.921875 33.015625 
L 88.921875 0 
L 79.890625 0 
L 79.890625 32.71875 
Q 79.890625 40.578125 77.09375 44.375 
Q 74.3125 48.1875 68.609375 48.1875 
Q 61.625 48.1875 57.5625 43.546875 
Q 53.515625 38.921875 53.515625 30.90625 
L 53.515625 0 
L 44.484375 0 
L 44.484375 32.71875 
Q 44.484375 40.625 41.703125 44.40625 
Q 38.921875 48.1875 33.109375 48.1875 
Q 26.21875 48.1875 22.15625 43.53125 
Q 18.109375 38.875 18.109375 30.90625 
L 18.109375 0 
L 9.078125 0 
L 9.078125 54.6875 
L 18.109375 54.6875 
L 18.109375 46.1875 
Q 21.1875 51.21875 25.484375 53.609375 
Q 29.78125 56 35.6875 56 
Q 41.65625 56 45.828125 52.96875 
Q 50 49.953125 52 44.1875 
z
" id="DejaVuSans-109"/>
      </defs>
      <use xlink:href="#DejaVuSans-68"/>
      <use x="77.001953" xlink:href="#DejaVuSans-97"/>
      <use x="138.28125" xlink:href="#DejaVuSans-116"/>
      <use x="177.490234" xlink:href="#DejaVuSans-117"/>
      <use x="240.869141" xlink:href="#DejaVuSans-109"/>
     </g>
    </g>
   </g>
   <g id="matplotlib.axis_2">
    <g id="ytick_1">
     <g id="line2d_21">
      <path clip-path="url(#p69ccb61f48)" d="M 64.8 172.8 
L 655.2 172.8 
" style="fill:none;stroke:#808080;stroke-dasharray:6.4,1.6,1,1.6;stroke-dashoffset:0;stroke-opacity:0.3;"/>
     </g>
     <g id="line2d_22">
      <defs>
       <path d="M 0 0 
L -3.5 0 
" id="m09b1098cf4" style="stroke:#000000;stroke-width:0.8;"/>
      </defs>
      <g>
       <use style="stroke:#000000;stroke-width:0.8;" x="64.8" xlink:href="#m09b1098cf4" y="172.8"/>
      </g>
     </g>
     <g id="text_12">
      <!-- 0 -->
      <g transform="translate(51.4375 176.599219)scale(0.1 -0.1)">
       <use xlink:href="#DejaVuSans-48"/>
      </g>
     </g>
    </g>
    <g id="ytick_2">
     <g id="line2d_23">
      <path clip-path="url(#p69ccb61f48)" d="M 64.8 136.08 
L 655.2 136.08 
" style="fill:none;stroke:#808080;stroke-dasharray:6.4,1.6,1,1.6;stroke-dashoffset:0;stroke-opacity:0.3;"/>
     </g>
     <g id="line2d_24">
      <g>
       <use style="stroke:#000000;stroke-width:0.8;" x="64.8" xlink:href="#m09b1098cf4" y="136.08"/>
      </g>
     </g>
     <g id="text_13">
      <!-- 1000 -->
      <g transform="translate(32.35 139.879219)scale(0.1 -0.1)">
       <use xlink:href="#DejaVuSans-49"/>
       <use x="63.623047" xlink:href="#DejaVuSans-48"/>
       <use x="127.246094" xlink:href="#DejaVuSans-48"/>
       <use x="190.869141" xlink:href="#DejaVuSans-48"/>
      </g>
     </g>
    </g>
    <g id="ytick_3">
     <g id="line2d_25">
      <path clip-path="url(#p69ccb61f48)" d="M 64.8 99.36 
L 655.2 99.36 
" style="fill:none;stroke:#808080;stroke-dasharray:6.4,1.6,1,1.6;stroke-dashoffset:0;stroke-opacity:0.3;"/>
     </g>
     <g id="line2d_26">
      <g>
       <use style="stroke:#000000;stroke-width:0.8;" x="64.8" xlink:href="#m09b1098cf4" y="99.36"/>
      </g>
     </g>
     <g id="text_14">
      <!-- 2000 -->
      <g transform="translate(32.35 103.159219)scale(0.1 -0.1)">
       <use xlink:href="#DejaVuSans-50"/>
       <use x="63.623047" xlink:href="#DejaVuSans-48"/>
       <use x="127.246094" xlink:href="#DejaVuSans-48"/>
       <use x="190.869141" xlink:href="#DejaVuSans-48"/>
      </g>
     </g>
    </g>
    <g id="ytick_4">
     <g id="line2d_27">
      <path clip-path="url(#p69ccb61f48)" d="M 64.8 62.64 
L 655.2 62.64 
" style="fill:none;stroke:#808080;stroke-dasharray:6.4,1.6,1,1.6;stroke-dashoffset:0;stroke-opacity:0.3;"/>
     </g>
     <g id="line2d_28">
      <g>
       <use style="stroke:#000000;stroke-width:0.8;" x="64.8" xlink:href="#m09b1098cf4" y="62.64"/>
      </g>
     </g>
     <g id="text_15">
      <!-- 3000 -->
      <g transform="translate(32.35 66.439219)scale(0.1 -0.1)">
       <use xlink:href="#DejaVuSans-51"/>
       <use x="63.623047" xlink:href="#DejaVuSans-48"/>
       <use x="127.246094" xlink:href="#DejaVuSans-48"/>
       <use x="190.869141" xlink:href="#DejaVuSans-48"/>
      </g>
     </g>
    </g>
    <g id="ytick_5">
     <g id="line2d_29">
      <path clip-path="url(#p69ccb61f48)" d="M 64.8 25.92 
L 655.2 25.92 
" style="fill:none;stroke:#808080;stroke-dasharray:6.4,1.6,1,1.6;stroke-dashoffset:0;stroke-opacity:0.3;"/>
     </g>
     <g id="line2d_30">
      <g>
       <use style="stroke:#000000;stroke-width:0.8;" x="64.8" xlink:href="#m09b1098cf4" y="25.92"/>
      </g>
     </g>
     <g id="text_16">
      <!-- 4000 -->
      <g transform="translate(32.35 29.719219)scale(0.1 -0.1)">
       <defs>
        <path d="M 37.796875 64.3125 
L 12.890625 25.390625 
L 37.796875 25.390625 
z
M 35.203125 72.90625 
L 47.609375 72.90625 
L 47.609375 25.390625 
L 58.015625 25.390625 
L 58.015625 17.1875 
L 47.609375 17.1875 
L 47.609375 0 
L 37.796875 0 
L 37.796875 17.1875 
L 4.890625 17.1875 
L 4.890625 26.703125 
z
" id="DejaVuSans-52"/>
       </defs>
       <use xlink:href="#DejaVuSans-52"/>
       <use x="63.623047" xlink:href="#DejaVuSans-48"/>
       <use x="127.246094" xlink:href="#DejaVuSans-48"/>
       <use x="190.869141" xlink:href="#DejaVuSans-48"/>
      </g>
     </g>
    </g>
    <g id="text_17">
     <!-- RNA per milliliter -->
     <g transform="translate(26.270312 141.776406)rotate(-90)scale(0.1 -0.1)">
      <defs>
       <path d="M 44.390625 34.1875 
Q 47.5625 33.109375 50.5625 29.59375 
Q 53.5625 26.078125 56.59375 19.921875 
L 66.609375 0 
L 56 0 
L 46.6875 18.703125 
Q 43.0625 26.03125 39.671875 28.421875 
Q 36.28125 30.8125 30.421875 30.8125 
L 19.671875 30.8125 
L 19.671875 0 
L 9.8125 0 
L 9.8125 72.90625 
L 32.078125 72.90625 
Q 44.578125 72.90625 50.734375 67.671875 
Q 56.890625 62.453125 56.890625 51.90625 
Q 56.890625 45.015625 53.6875 40.46875 
Q 50.484375 35.9375 44.390625 34.1875 
z
M 19.671875 64.796875 
L 19.671875 38.921875 
L 32.078125 38.921875 
Q 39.203125 38.921875 42.84375 42.21875 
Q 46.484375 45.515625 46.484375 51.90625 
Q 46.484375 58.296875 42.84375 61.546875 
Q 39.203125 64.796875 32.078125 64.796875 
z
" id="DejaVuSans-82"/>
       <path d="M 9.8125 72.90625 
L 23.09375 72.90625 
L 55.421875 11.921875 
L 55.421875 72.90625 
L 64.984375 72.90625 
L 64.984375 0 
L 51.703125 0 
L 19.390625 60.984375 
L 19.390625 0 
L 9.8125 0 
z
" id="DejaVuSans-78"/>
       <path d="M 34.1875 63.1875 
L 20.796875 26.90625 
L 47.609375 26.90625 
z
M 28.609375 72.90625 
L 39.796875 72.90625 
L 67.578125 0 
L 57.328125 0 
L 50.6875 18.703125 
L 17.828125 18.703125 
L 11.1875 0 
L 0.78125 0 
z
" id="DejaVuSans-65"/>
       <path id="DejaVuSans-32"/>
       <path d="M 18.109375 8.203125 
L 18.109375 -20.796875 
L 9.078125 -20.796875 
L 9.078125 54.6875 
L 18.109375 54.6875 
L 18.109375 46.390625 
Q 20.953125 51.265625 25.265625 53.625 
Q 29.59375 56 35.59375 56 
Q 45.5625 56 51.78125 48.09375 
Q 58.015625 40.1875 58.015625 27.296875 
Q 58.015625 14.40625 51.78125 6.484375 
Q 45.5625 -1.421875 35.59375 -1.421875 
Q 29.59375 -1.421875 25.265625 0.953125 
Q 20.953125 3.328125 18.109375 8.203125 
z
M 48.6875 27.296875 
Q 48.6875 37.203125 44.609375 42.84375 
Q 40.53125 48.484375 33.40625 48.484375 
Q 26.265625 48.484375 22.1875 42.84375 
Q 18.109375 37.203125 18.109375 27.296875 
Q 18.109375 17.390625 22.1875 11.75 
Q 26.265625 6.109375 33.40625 6.109375 
Q 40.53125 6.109375 44.609375 11.75 
Q 48.6875 17.390625 48.6875 27.296875 
z
" id="DejaVuSans-112"/>
       <path d="M 56.203125 29.59375 
L 56.203125 25.203125 
L 14.890625 25.203125 
Q 15.484375 15.921875 20.484375 11.0625 
Q 25.484375 6.203125 34.421875 6.203125 
Q 39.59375 6.203125 44.453125 7.46875 
Q 49.3125 8.734375 54.109375 11.28125 
L 54.109375 2.78125 
Q 49.265625 0.734375 44.1875 -0.34375 
Q 39.109375 -1.421875 33.890625 -1.421875 
Q 20.796875 -1.421875 13.15625 6.1875 
Q 5.515625 13.8125 5.515625 26.8125 
Q 5.515625 40.234375 12.765625 48.109375 
Q 20.015625 56 32.328125 56 
Q 43.359375 56 49.78125 48.890625 
Q 56.203125 41.796875 56.203125 29.59375 
z
M 47.21875 32.234375 
Q 47.125 39.59375 43.09375 43.984375 
Q 39.0625 48.390625 32.421875 48.390625 
Q 24.90625 48.390625 20.390625 44.140625 
Q 15.875 39.890625 15.1875 32.171875 
z
" id="DejaVuSans-101"/>
       <path d="M 41.109375 46.296875 
Q 39.59375 47.171875 37.8125 47.578125 
Q 36.03125 48 33.890625 48 
Q 26.265625 48 22.1875 43.046875 
Q 18.109375 38.09375 18.109375 28.8125 
L 18.109375 0 
L 9.078125 0 
L 9.078125 54.6875 
L 18.109375 54.6875 
L 18.109375 46.1875 
Q 20.953125 51.171875 25.484375 53.578125 
Q 30.03125 56 36.53125 56 
Q 37.453125 56 38.578125 55.875 
Q 39.703125 55.765625 41.0625 55.515625 
z
" id="DejaVuSans-114"/>
       <path d="M 9.421875 54.6875 
L 18.40625 54.6875 
L 18.40625 0 
L 9.421875 0 
z
M 9.421875 75.984375 
L 18.40625 75.984375 
L 18.40625 64.59375 
L 9.421875 64.59375 
z
" id="DejaVuSans-105"/>
       <path d="M 9.421875 75.984375 
L 18.40625 75.984375 
L 18.40625 0 
L 9.421875 0 
z
" id="DejaVuSans-108"/>
      </defs>
      <use xlink:href="#DejaVuSans-82"/>
      <use x="69.482422" xlink:href="#DejaVuSans-78"/>
      <use x="144.287109" xlink:href="#DejaVuSans-65"/>
      <use x="212.695312" xlink:href="#DejaVuSans-32"/>
      <use x="244.482422" xlink:href="#DejaVuSans-112"/>
      <use x="307.958984" xlink:href="#DejaVuSans-101"/>
      <use x="369.482422" xlink:href="#DejaVuSans-114"/>
      <use x="410.595703" xlink:href="#DejaVuSans-32"/>
      <use x="442.382812" xlink:href="#DejaVuSans-109"/>
      <use x="539.794922" xlink:href="#DejaVuSans-105"/>
      <use x="567.578125" xlink:href="#DejaVuSans-108"/>
      <use x="595.361328" xlink:href="#DejaVuSans-108"/>
      <use x="623.144531" xlink:href="#DejaVuSans-105"/>
      <use x="650.927734" xlink:href="#DejaVuSans-108"/>
      <use x="678.710938" xlink:href="#DejaVuSans-105"/>
      <use x="706.494141" xlink:href="#DejaVuSans-116"/>
      <use x="745.703125" xlink:href="#DejaVuSans-101"/>
      <use x="807.226562" xlink:href="#DejaVuSans-114"/>
     </g>
    </g>
   </g>
   <g id="line2d_31">
    <path clip-path="url(#p69ccb61f48)" d="M 93.721622 112.761481 
L 96.713514 121.857767 
L 99.705405 124.889862 
L 101.7 130.954053 
L 104.691892 138.472908 
L 107.683784 140.827111 
L 109.678378 145.289784 
L 111.672973 149.041544 
L 113.667568 150.59754 
L 114.664865 151.928502 
L 115.662162 152.902379 
L 116.659459 153.536442 
L 120.648649 155.329979 
L 121.645946 156.466258 
L 124.637838 159.208804 
L 125.635135 160.027746 
L 129.624324 161.44735 
L 131.618919 162.980115 
L 133.613514 163.783962 
L 134.610811 164.600986 
L 135.608108 165.264749 
L 137.602703 165.48663 
L 140.594595 165.293448 
L 143.586486 164.756703 
L 148.572973 163.790554 
L 151.564865 163.828989 
L 153.559459 164.244897 
L 156.551351 164.404455 
L 158.545946 164.930337 
L 160.540541 165.68497 
L 162.535135 166.343508 
L 164.52973 166.791895 
L 166.524324 167.153812 
L 169.516216 167.276835 
L 172.508108 167.785577 
L 178.491892 167.922492 
L 184.475676 167.74003 
L 187.467568 167.354632 
L 191.456757 167.08745 
L 193.451351 166.117482 
L 198.437838 165.546738 
L 199.435135 164.941835 
L 203.424324 163.652183 
L 205.418919 162.377087 
L 208.410811 159.94225 
L 210.405405 158.751049 
L 212.4 158.236757 
L 217.386486 157.632621 
L 218.383784 157.427382 
L 219.381081 157.572349 
L 222.372973 158.641817 
L 223.37027 158.851791 
L 226.362162 158.853589 
L 229.354054 158.508461 
L 230.351351 158.532818 
L 232.345946 159.118333 
L 234.340541 159.281896 
L 236.335135 159.508979 
L 238.32973 160.079513 
L 239.327027 160.443371 
L 241.321622 161.445925 
L 243.316216 162.301196 
L 247.305405 162.996786 
L 249.3 163.042114 
L 251.294595 162.820093 
L 252.291892 162.651373 
L 253.289189 162.368091 
L 257.278378 161.631246 
L 259.272973 161.148844 
L 260.27027 160.858424 
L 262.264865 159.942121 
L 264.259459 158.541734 
L 265.256757 157.74922 
L 266.254054 156.788301 
L 268.248649 154.387396 
L 270.243243 151.403763 
L 272.237838 147.580033 
L 274.232432 142.858396 
L 276.227027 137.31504 
L 279.218919 128.922384 
L 284.205405 116.226379 
L 285.202703 114.20875 
L 286.2 111.745209 
L 287.197297 109.699255 
L 288.194595 108.3548 
L 289.191892 107.757108 
L 291.186486 105.715759 
L 292.183784 104.23091 
L 293.181081 101.991364 
L 295.175676 98.249305 
L 296.172973 96.424642 
L 298.167568 92.357515 
L 299.164865 92.144463 
L 300.162162 91.747115 
L 301.159459 91.065511 
L 302.156757 90.027893 
L 303.154054 89.617136 
L 304.151351 88.928396 
L 305.148649 89.138651 
L 307.143243 92.637142 
L 310.135135 98.118253 
L 311.132432 99.309616 
L 314.124324 100.071911 
L 316.118919 101.471678 
L 317.116216 103.17704 
L 318.113514 104.593082 
L 319.110811 105.46346 
L 320.108108 106.07801 
L 321.105405 106.946119 
L 322.102703 108.641512 
L 323.1 111.05887 
L 327.089189 125.140678 
L 329.083784 130.898865 
L 333.072973 139.342337 
L 334.07027 141.196931 
L 335.067568 142.229767 
L 336.064865 142.736582 
L 337.062162 142.524174 
L 338.059459 142.119831 
L 340.054054 141.645164 
L 342.048649 140.540715 
L 343.045946 139.811527 
L 346.037838 136.671002 
L 348.032432 133.562028 
L 350.027027 129.936582 
L 352.021622 126.536449 
L 353.018919 125.090912 
L 355.013514 123.194386 
L 356.010811 122.536359 
L 359.002703 121.575172 
L 360 122.121301 
L 360.997297 122.929338 
L 361.994595 124.441192 
L 362.991892 125.447859 
L 365.983784 129.244936 
L 366.981081 130.087559 
L 367.978378 130.770918 
L 370.97027 131.356528 
L 371.967568 131.407119 
L 372.964865 131.269033 
L 373.962162 130.608219 
L 374.959459 129.744408 
L 375.956757 128.122342 
L 376.954054 127.018371 
L 378.948649 124.116437 
L 379.945946 122.342382 
L 380.943243 120.962867 
L 381.940541 119.818296 
L 384.932432 117.014866 
L 385.92973 115.656025 
L 387.924324 113.862354 
L 388.921622 113.854624 
L 389.918919 113.644855 
L 390.916216 113.638447 
L 391.913514 113.858916 
L 392.910811 114.286687 
L 393.908108 114.546438 
L 395.902703 115.437712 
L 396.9 115.948509 
L 397.897297 116.691109 
L 399.891892 120.609746 
L 400.889189 122.414614 
L 403.881081 126.380759 
L 404.878378 127.542559 
L 406.872973 129.277496 
L 407.87027 129.736596 
L 408.867568 129.813513 
L 409.864865 130.102569 
L 410.862162 130.125922 
L 412.856757 129.07955 
L 414.851351 128.06876 
L 415.848649 127.897421 
L 417.843243 127.924591 
L 419.837838 128.807028 
L 420.835135 129.629664 
L 424.824324 134.888246 
L 428.813514 139.133403 
L 430.808108 140.5436 
L 432.802703 141.346992 
L 433.8 141.604096 
L 435.794595 141.772572 
L 439.783784 141.108711 
L 442.775676 140.216941 
L 443.772973 139.785877 
L 444.77027 139.503221 
L 447.762162 138.053522 
L 448.759459 137.336649 
L 450.754054 137.046427 
L 452.748649 136.87185 
L 453.745946 136.611436 
L 455.740541 136.572329 
L 460.727027 136.009106 
L 461.724324 136.084133 
L 462.721622 135.882125 
L 465.713514 134.637065 
L 466.710811 134.524325 
L 467.708108 134.247266 
L 468.705405 134.086367 
L 470.7 134.548963 
L 473.691892 134.928998 
L 474.689189 134.889359 
L 475.686486 134.676808 
L 476.683784 134.925124 
L 478.678378 135.810811 
L 479.675676 136.1543 
L 480.672973 136.31083 
L 481.67027 136.277712 
L 483.664865 135.813032 
L 486.656757 134.719638 
L 487.654054 134.487659 
L 488.651351 134.548887 
L 489.648649 134.244982 
L 491.643243 133.160396 
L 492.640541 132.695653 
L 493.637838 132.592263 
L 495.632432 132.825121 
L 496.62973 133.275059 
L 497.627027 134.24552 
L 502.613514 140.961144 
L 504.608108 144.232886 
L 506.602703 147.138442 
L 509.594595 150.902497 
L 512.586486 152.070955 
L 516.575676 154.278333 
L 518.57027 155.020009 
L 523.556757 157.769474 
L 525.551351 158.46458 
L 527.545946 159.790831 
L 529.540541 160.775137 
L 531.535135 161.23426 
L 533.52973 162.21568 
L 535.524324 162.732895 
L 536.521622 162.856544 
L 539.513514 162.914587 
L 540.510811 162.850728 
L 542.505405 162.272016 
L 544.5 161.460341 
L 545.497297 160.800241 
L 547.491892 158.874247 
L 548.489189 157.578131 
L 549.486486 156.067234 
L 550.483784 154.316225 
L 551.481081 152.097333 
L 554.472973 143.658552 
L 556.467568 137.602394 
L 559.459459 128.196851 
L 561.454054 122.595209 
L 562.451351 120.233289 
L 563.448649 118.289843 
L 564.445946 117.191917 
L 567.437838 116.915333 
L 568.435135 116.746125 
L 569.432432 116.902434 
L 570.42973 117.232601 
L 571.427027 117.756224 
L 572.424324 118.41068 
L 574.418919 120.121151 
L 575.416216 120.987915 
L 576.413514 121.677431 
L 577.410811 122.085801 
L 578.408108 121.928189 
L 579.405405 121.297105 
L 582.397297 120.317784 
L 584.391892 119.221699 
L 586.386486 117.743755 
L 588.381081 116.581401 
L 589.378378 116.13532 
L 590.375676 115.519029 
L 592.37027 114.498354 
L 593.367568 113.73314 
L 595.362162 111.737758 
L 596.359459 110.872957 
L 597.356757 110.166498 
L 600.348649 109.602572 
L 601.345946 109.662714 
L 602.343243 110.021129 
L 603.340541 111.177027 
L 604.337838 112.632486 
L 605.335135 114.503917 
L 606.332432 116.782136 
L 607.32973 119.640736 
L 609.324324 126.485989 
L 611.318919 133.473108 
L 614.310811 142.971291 
L 615.308108 145.758222 
L 617.302703 150.204036 
L 618.3 152.032152 
L 619.297297 153.550986 
L 620.294595 154.759507 
L 622.289189 156.371803 
L 628.272973 159.621765 
L 629.27027 160.071595 
L 632.262162 160.976109 
L 633.259459 161.163719 
L 634.256757 161.210653 
L 635.254054 161.115571 
L 636.251351 160.883873 
L 638.245946 160.005827 
L 639.243243 159.420145 
L 645.227027 155.07165 
L 645.227027 155.07165 
" style="fill:none;stroke:#008000;stroke-linecap:square;stroke-width:1.5;"/>
   </g>
   <g id="line2d_32">
    <path clip-path="url(#p69ccb61f48)" d="M 649.216216 172.8 
L 649.216216 25.92 
" style="fill:none;stroke:#ff0000;stroke-linecap:square;stroke-width:0.5;"/>
   </g>
   <g id="patch_3">
    <path d="M 64.8 172.8 
L 64.8 25.92 
" style="fill:none;stroke:#000000;stroke-linecap:square;stroke-linejoin:miter;stroke-width:0.8;"/>
   </g>
   <g id="patch_4">
    <path d="M 655.2 172.8 
L 655.2 25.92 
" style="fill:none;stroke:#000000;stroke-linecap:square;stroke-linejoin:miter;stroke-width:0.8;"/>
   </g>
   <g id="patch_5">
    <path d="M 64.8 172.8 
L 655.2 172.8 
" style="fill:none;stroke:#000000;stroke-linecap:square;stroke-linejoin:miter;stroke-width:0.8;"/>
   </g>
   <g id="patch_6">
    <path d="M 64.8 25.92 
L 655.2 25.92 
" style="fill:none;stroke:#000000;stroke-linecap:square;stroke-linejoin:miter;stroke-width:0.8;"/>
   </g>
   <g id="text_18">
    <!-- Concentratie SARS-CoV-2 RNA per ml rioolwater -->
    <g transform="translate(215.560313 19.92)scale(0.12 -0.12)">
     <defs>
      <path d="M 64.40625 67.28125 
L 64.40625 56.890625 
Q 59.421875 61.53125 53.78125 63.8125 
Q 48.140625 66.109375 41.796875 66.109375 
Q 29.296875 66.109375 22.65625 58.46875 
Q 16.015625 50.828125 16.015625 36.375 
Q 16.015625 21.96875 22.65625 14.328125 
Q 29.296875 6.6875 41.796875 6.6875 
Q 48.140625 6.6875 53.78125 8.984375 
Q 59.421875 11.28125 64.40625 15.921875 
L 64.40625 5.609375 
Q 59.234375 2.09375 53.4375 0.328125 
Q 47.65625 -1.421875 41.21875 -1.421875 
Q 24.65625 -1.421875 15.125 8.703125 
Q 5.609375 18.84375 5.609375 36.375 
Q 5.609375 53.953125 15.125 64.078125 
Q 24.65625 74.21875 41.21875 74.21875 
Q 47.75 74.21875 53.53125 72.484375 
Q 59.328125 70.75 64.40625 67.28125 
z
" id="DejaVuSans-67"/>
      <path d="M 30.609375 48.390625 
Q 23.390625 48.390625 19.1875 42.75 
Q 14.984375 37.109375 14.984375 27.296875 
Q 14.984375 17.484375 19.15625 11.84375 
Q 23.34375 6.203125 30.609375 6.203125 
Q 37.796875 6.203125 41.984375 11.859375 
Q 46.1875 17.53125 46.1875 27.296875 
Q 46.1875 37.015625 41.984375 42.703125 
Q 37.796875 48.390625 30.609375 48.390625 
z
M 30.609375 56 
Q 42.328125 56 49.015625 48.375 
Q 55.71875 40.765625 55.71875 27.296875 
Q 55.71875 13.875 49.015625 6.21875 
Q 42.328125 -1.421875 30.609375 -1.421875 
Q 18.84375 -1.421875 12.171875 6.21875 
Q 5.515625 13.875 5.515625 27.296875 
Q 5.515625 40.765625 12.171875 48.375 
Q 18.84375 56 30.609375 56 
z
" id="DejaVuSans-111"/>
      <path d="M 54.890625 33.015625 
L 54.890625 0 
L 45.90625 0 
L 45.90625 32.71875 
Q 45.90625 40.484375 42.875 44.328125 
Q 39.84375 48.1875 33.796875 48.1875 
Q 26.515625 48.1875 22.3125 43.546875 
Q 18.109375 38.921875 18.109375 30.90625 
L 18.109375 0 
L 9.078125 0 
L 9.078125 54.6875 
L 18.109375 54.6875 
L 18.109375 46.1875 
Q 21.34375 51.125 25.703125 53.5625 
Q 30.078125 56 35.796875 56 
Q 45.21875 56 50.046875 50.171875 
Q 54.890625 44.34375 54.890625 33.015625 
z
" id="DejaVuSans-110"/>
      <path d="M 48.78125 52.59375 
L 48.78125 44.1875 
Q 44.96875 46.296875 41.140625 47.34375 
Q 37.3125 48.390625 33.40625 48.390625 
Q 24.65625 48.390625 19.8125 42.84375 
Q 14.984375 37.3125 14.984375 27.296875 
Q 14.984375 17.28125 19.8125 11.734375 
Q 24.65625 6.203125 33.40625 6.203125 
Q 37.3125 6.203125 41.140625 7.25 
Q 44.96875 8.296875 48.78125 10.40625 
L 48.78125 2.09375 
Q 45.015625 0.34375 40.984375 -0.53125 
Q 36.96875 -1.421875 32.421875 -1.421875 
Q 20.0625 -1.421875 12.78125 6.34375 
Q 5.515625 14.109375 5.515625 27.296875 
Q 5.515625 40.671875 12.859375 48.328125 
Q 20.21875 56 33.015625 56 
Q 37.15625 56 41.109375 55.140625 
Q 45.0625 54.296875 48.78125 52.59375 
z
" id="DejaVuSans-99"/>
      <path d="M 53.515625 70.515625 
L 53.515625 60.890625 
Q 47.90625 63.578125 42.921875 64.890625 
Q 37.9375 66.21875 33.296875 66.21875 
Q 25.25 66.21875 20.875 63.09375 
Q 16.5 59.96875 16.5 54.203125 
Q 16.5 49.359375 19.40625 46.890625 
Q 22.3125 44.4375 30.421875 42.921875 
L 36.375 41.703125 
Q 47.40625 39.59375 52.65625 34.296875 
Q 57.90625 29 57.90625 20.125 
Q 57.90625 9.515625 50.796875 4.046875 
Q 43.703125 -1.421875 29.984375 -1.421875 
Q 24.8125 -1.421875 18.96875 -0.25 
Q 13.140625 0.921875 6.890625 3.21875 
L 6.890625 13.375 
Q 12.890625 10.015625 18.65625 8.296875 
Q 24.421875 6.59375 29.984375 6.59375 
Q 38.421875 6.59375 43.015625 9.90625 
Q 47.609375 13.234375 47.609375 19.390625 
Q 47.609375 24.75 44.3125 27.78125 
Q 41.015625 30.8125 33.5 32.328125 
L 27.484375 33.5 
Q 16.453125 35.6875 11.515625 40.375 
Q 6.59375 45.0625 6.59375 53.421875 
Q 6.59375 63.09375 13.40625 68.65625 
Q 20.21875 74.21875 32.171875 74.21875 
Q 37.3125 74.21875 42.625 73.28125 
Q 47.953125 72.359375 53.515625 70.515625 
z
" id="DejaVuSans-83"/>
      <path d="M 28.609375 0 
L 0.78125 72.90625 
L 11.078125 72.90625 
L 34.1875 11.53125 
L 57.328125 72.90625 
L 67.578125 72.90625 
L 39.796875 0 
z
" id="DejaVuSans-86"/>
      <path d="M 4.203125 54.6875 
L 13.1875 54.6875 
L 24.421875 12.015625 
L 35.59375 54.6875 
L 46.1875 54.6875 
L 57.421875 12.015625 
L 68.609375 54.6875 
L 77.59375 54.6875 
L 63.28125 0 
L 52.6875 0 
L 40.921875 44.828125 
L 29.109375 0 
L 18.5 0 
z
" id="DejaVuSans-119"/>
     </defs>
     <use xlink:href="#DejaVuSans-67"/>
     <use x="69.824219" xlink:href="#DejaVuSans-111"/>
     <use x="131.005859" xlink:href="#DejaVuSans-110"/>
     <use x="194.384766" xlink:href="#DejaVuSans-99"/>
     <use x="249.365234" xlink:href="#DejaVuSans-101"/>
     <use x="310.888672" xlink:href="#DejaVuSans-110"/>
     <use x="374.267578" xlink:href="#DejaVuSans-116"/>
     <use x="413.476562" xlink:href="#DejaVuSans-114"/>
     <use x="454.589844" xlink:href="#DejaVuSans-97"/>
     <use x="515.869141" xlink:href="#DejaVuSans-116"/>
     <use x="555.078125" xlink:href="#DejaVuSans-105"/>
     <use x="582.861328" xlink:href="#DejaVuSans-101"/>
     <use x="644.384766" xlink:href="#DejaVuSans-32"/>
     <use x="676.171875" xlink:href="#DejaVuSans-83"/>
     <use x="741.523438" xlink:href="#DejaVuSans-65"/>
     <use x="809.931641" xlink:href="#DejaVuSans-82"/>
     <use x="879.414062" xlink:href="#DejaVuSans-83"/>
     <use x="942.890625" xlink:href="#DejaVuSans-45"/>
     <use x="978.974609" xlink:href="#DejaVuSans-67"/>
     <use x="1048.798828" xlink:href="#DejaVuSans-111"/>
     <use x="1109.980469" xlink:href="#DejaVuSans-86"/>
     <use x="1172.513672" xlink:href="#DejaVuSans-45"/>
     <use x="1208.597656" xlink:href="#DejaVuSans-50"/>
     <use x="1272.220703" xlink:href="#DejaVuSans-32"/>
     <use x="1304.007812" xlink:href="#DejaVuSans-82"/>
     <use x="1373.490234" xlink:href="#DejaVuSans-78"/>
     <use x="1448.294922" xlink:href="#DejaVuSans-65"/>
     <use x="1516.703125" xlink:href="#DejaVuSans-32"/>
     <use x="1548.490234" xlink:href="#DejaVuSans-112"/>
     <use x="1611.966797" xlink:href="#DejaVuSans-101"/>
     <use x="1673.490234" xlink:href="#DejaVuSans-114"/>
     <use x="1714.603516" xlink:href="#DejaVuSans-32"/>
     <use x="1746.390625" xlink:href="#DejaVuSans-109"/>
     <use x="1843.802734" xlink:href="#DejaVuSans-108"/>
     <use x="1871.585938" xlink:href="#DejaVuSans-32"/>
     <use x="1903.373047" xlink:href="#DejaVuSans-114"/>
     <use x="1944.486328" xlink:href="#DejaVuSans-105"/>
     <use x="1972.269531" xlink:href="#DejaVuSans-111"/>
     <use x="2033.451172" xlink:href="#DejaVuSans-111"/>
     <use x="2094.632812" xlink:href="#DejaVuSans-108"/>
     <use x="2122.416016" xlink:href="#DejaVuSans-119"/>
     <use x="2204.203125" xlink:href="#DejaVuSans-97"/>
     <use x="2265.482422" xlink:href="#DejaVuSans-116"/>
     <use x="2304.691406" xlink:href="#DejaVuSans-101"/>
     <use x="2366.214844" xlink:href="#DejaVuSans-114"/>
    </g>
   </g>
   <g id="legend_1">
    <g id="patch_7">
     <path d="M 71.8 48.598125 
L 306.184375 48.598125 
Q 308.184375 48.598125 308.184375 46.598125 
L 308.184375 32.92 
Q 308.184375 30.92 306.184375 30.92 
L 71.8 30.92 
Q 69.8 30.92 69.8 32.92 
L 69.8 46.598125 
Q 69.8 48.598125 71.8 48.598125 
z
" style="fill:#ffffff;opacity:0.8;stroke:#cccccc;stroke-linejoin:miter;"/>
    </g>
    <g id="line2d_33">
     <path d="M 73.8 39.018437 
L 93.8 39.018437 
" style="fill:none;stroke:#008000;stroke-linecap:square;stroke-width:1.5;"/>
    </g>
    <g id="line2d_34"/>
    <g id="text_19">
     <!-- RNA per milliliter rioolwater (gemiddeld) -->
     <g transform="translate(101.8 42.518437)scale(0.1 -0.1)">
      <defs>
       <path d="M 31 75.875 
Q 24.46875 64.65625 21.28125 53.65625 
Q 18.109375 42.671875 18.109375 31.390625 
Q 18.109375 20.125 21.3125 9.0625 
Q 24.515625 -2 31 -13.1875 
L 23.1875 -13.1875 
Q 15.875 -1.703125 12.234375 9.375 
Q 8.59375 20.453125 8.59375 31.390625 
Q 8.59375 42.28125 12.203125 53.3125 
Q 15.828125 64.359375 23.1875 75.875 
z
" id="DejaVuSans-40"/>
       <path d="M 45.40625 27.984375 
Q 45.40625 37.75 41.375 43.109375 
Q 37.359375 48.484375 30.078125 48.484375 
Q 22.859375 48.484375 18.828125 43.109375 
Q 14.796875 37.75 14.796875 27.984375 
Q 14.796875 18.265625 18.828125 12.890625 
Q 22.859375 7.515625 30.078125 7.515625 
Q 37.359375 7.515625 41.375 12.890625 
Q 45.40625 18.265625 45.40625 27.984375 
z
M 54.390625 6.78125 
Q 54.390625 -7.171875 48.1875 -13.984375 
Q 42 -20.796875 29.203125 -20.796875 
Q 24.46875 -20.796875 20.265625 -20.09375 
Q 16.0625 -19.390625 12.109375 -17.921875 
L 12.109375 -9.1875 
Q 16.0625 -11.328125 19.921875 -12.34375 
Q 23.78125 -13.375 27.78125 -13.375 
Q 36.625 -13.375 41.015625 -8.765625 
Q 45.40625 -4.15625 45.40625 5.171875 
L 45.40625 9.625 
Q 42.625 4.78125 38.28125 2.390625 
Q 33.9375 0 27.875 0 
Q 17.828125 0 11.671875 7.65625 
Q 5.515625 15.328125 5.515625 27.984375 
Q 5.515625 40.671875 11.671875 48.328125 
Q 17.828125 56 27.875 56 
Q 33.9375 56 38.28125 53.609375 
Q 42.625 51.21875 45.40625 46.390625 
L 45.40625 54.6875 
L 54.390625 54.6875 
z
" id="DejaVuSans-103"/>
       <path d="M 45.40625 46.390625 
L 45.40625 75.984375 
L 54.390625 75.984375 
L 54.390625 0 
L 45.40625 0 
L 45.40625 8.203125 
Q 42.578125 3.328125 38.25 0.953125 
Q 33.9375 -1.421875 27.875 -1.421875 
Q 17.96875 -1.421875 11.734375 6.484375 
Q 5.515625 14.40625 5.515625 27.296875 
Q 5.515625 40.1875 11.734375 48.09375 
Q 17.96875 56 27.875 56 
Q 33.9375 56 38.25 53.625 
Q 42.578125 51.265625 45.40625 46.390625 
z
M 14.796875 27.296875 
Q 14.796875 17.390625 18.875 11.75 
Q 22.953125 6.109375 30.078125 6.109375 
Q 37.203125 6.109375 41.296875 11.75 
Q 45.40625 17.390625 45.40625 27.296875 
Q 45.40625 37.203125 41.296875 42.84375 
Q 37.203125 48.484375 30.078125 48.484375 
Q 22.953125 48.484375 18.875 42.84375 
Q 14.796875 37.203125 14.796875 27.296875 
z
" id="DejaVuSans-100"/>
       <path d="M 8.015625 75.875 
L 15.828125 75.875 
Q 23.140625 64.359375 26.78125 53.3125 
Q 30.421875 42.28125 30.421875 31.390625 
Q 30.421875 20.453125 26.78125 9.375 
Q 23.140625 -1.703125 15.828125 -13.1875 
L 8.015625 -13.1875 
Q 14.5 -2 17.703125 9.0625 
Q 20.90625 20.125 20.90625 31.390625 
Q 20.90625 42.671875 17.703125 53.65625 
Q 14.5 64.65625 8.015625 75.875 
z
" id="DejaVuSans-41"/>
      </defs>
      <use xlink:href="#DejaVuSans-82"/>
      <use x="69.482422" xlink:href="#DejaVuSans-78"/>
      <use x="144.287109" xlink:href="#DejaVuSans-65"/>
      <use x="212.695312" xlink:href="#DejaVuSans-32"/>
      <use x="244.482422" xlink:href="#DejaVuSans-112"/>
      <use x="307.958984" xlink:href="#DejaVuSans-101"/>
      <use x="369.482422" xlink:href="#DejaVuSans-114"/>
      <use x="410.595703" xlink:href="#DejaVuSans-32"/>
      <use x="442.382812" xlink:href="#DejaVuSans-109"/>
      <use x="539.794922" xlink:href="#DejaVuSans-105"/>
      <use x="567.578125" xlink:href="#DejaVuSans-108"/>
      <use x="595.361328" xlink:href="#DejaVuSans-108"/>
      <use x="623.144531" xlink:href="#DejaVuSans-105"/>
      <use x="650.927734" xlink:href="#DejaVuSans-108"/>
      <use x="678.710938" xlink:href="#DejaVuSans-105"/>
      <use x="706.494141" xlink:href="#DejaVuSans-116"/>
      <use x="745.703125" xlink:href="#DejaVuSans-101"/>
      <use x="807.226562" xlink:href="#DejaVuSans-114"/>
      <use x="848.339844" xlink:href="#DejaVuSans-32"/>
      <use x="880.126953" xlink:href="#DejaVuSans-114"/>
      <use x="921.240234" xlink:href="#DejaVuSans-105"/>
      <use x="949.023438" xlink:href="#DejaVuSans-111"/>
      <use x="1010.205078" xlink:href="#DejaVuSans-111"/>
      <use x="1071.386719" xlink:href="#DejaVuSans-108"/>
      <use x="1099.169922" xlink:href="#DejaVuSans-119"/>
      <use x="1180.957031" xlink:href="#DejaVuSans-97"/>
      <use x="1242.236328" xlink:href="#DejaVuSans-116"/>
      <use x="1281.445312" xlink:href="#DejaVuSans-101"/>
      <use x="1342.96875" xlink:href="#DejaVuSans-114"/>
      <use x="1384.082031" xlink:href="#DejaVuSans-32"/>
      <use x="1415.869141" xlink:href="#DejaVuSans-40"/>
      <use x="1454.882812" xlink:href="#DejaVuSans-103"/>
      <use x="1518.359375" xlink:href="#DejaVuSans-101"/>
      <use x="1579.882812" xlink:href="#DejaVuSans-109"/>
      <use x="1677.294922" xlink:href="#DejaVuSans-105"/>
      <use x="1705.078125" xlink:href="#DejaVuSans-100"/>
      <use x="1768.554688" xlink:href="#DejaVuSans-100"/>
      <use x="1832.03125" xlink:href="#DejaVuSans-101"/>
      <use x="1893.554688" xlink:href="#DejaVuSans-108"/>
      <use x="1921.337891" xlink:href="#DejaVuSans-100"/>
      <use x="1984.814453" xlink:href="#DejaVuSans-41"/>
     </g>
    </g>
   </g>
  </g>
  <g id="text_20">
   <!-- Gegenereerd op 2021-10-08 11:41 o.b.v. data tot 2021-10-04. -->
   <g style="fill:#808080;" transform="translate(7.2 204.88175)scale(0.08 -0.08)">
    <defs>
     <path d="M 59.515625 10.40625 
L 59.515625 29.984375 
L 43.40625 29.984375 
L 43.40625 38.09375 
L 69.28125 38.09375 
L 69.28125 6.78125 
Q 63.578125 2.734375 56.6875 0.65625 
Q 49.8125 -1.421875 42 -1.421875 
Q 24.90625 -1.421875 15.25 8.5625 
Q 5.609375 18.5625 5.609375 36.375 
Q 5.609375 54.25 15.25 64.234375 
Q 24.90625 74.21875 42 74.21875 
Q 49.125 74.21875 55.546875 72.453125 
Q 61.96875 70.703125 67.390625 67.28125 
L 67.390625 56.78125 
Q 61.921875 61.421875 55.765625 63.765625 
Q 49.609375 66.109375 42.828125 66.109375 
Q 29.4375 66.109375 22.71875 58.640625 
Q 16.015625 51.171875 16.015625 36.375 
Q 16.015625 21.625 22.71875 14.15625 
Q 29.4375 6.6875 42.828125 6.6875 
Q 48.046875 6.6875 52.140625 7.59375 
Q 56.25 8.5 59.515625 10.40625 
z
" id="DejaVuSans-71"/>
     <path d="M 31.78125 34.625 
Q 24.75 34.625 20.71875 30.859375 
Q 16.703125 27.09375 16.703125 20.515625 
Q 16.703125 13.921875 20.71875 10.15625 
Q 24.75 6.390625 31.78125 6.390625 
Q 38.8125 6.390625 42.859375 10.171875 
Q 46.921875 13.96875 46.921875 20.515625 
Q 46.921875 27.09375 42.890625 30.859375 
Q 38.875 34.625 31.78125 34.625 
z
M 21.921875 38.8125 
Q 15.578125 40.375 12.03125 44.71875 
Q 8.5 49.078125 8.5 55.328125 
Q 8.5 64.0625 14.71875 69.140625 
Q 20.953125 74.21875 31.78125 74.21875 
Q 42.671875 74.21875 48.875 69.140625 
Q 55.078125 64.0625 55.078125 55.328125 
Q 55.078125 49.078125 51.53125 44.71875 
Q 48 40.375 41.703125 38.8125 
Q 48.828125 37.15625 52.796875 32.3125 
Q 56.78125 27.484375 56.78125 20.515625 
Q 56.78125 9.90625 50.3125 4.234375 
Q 43.84375 -1.421875 31.78125 -1.421875 
Q 19.734375 -1.421875 13.25 4.234375 
Q 6.78125 9.90625 6.78125 20.515625 
Q 6.78125 27.484375 10.78125 32.3125 
Q 14.796875 37.15625 21.921875 38.8125 
z
M 18.3125 54.390625 
Q 18.3125 48.734375 21.84375 45.5625 
Q 25.390625 42.390625 31.78125 42.390625 
Q 38.140625 42.390625 41.71875 45.5625 
Q 45.3125 48.734375 45.3125 54.390625 
Q 45.3125 60.0625 41.71875 63.234375 
Q 38.140625 66.40625 31.78125 66.40625 
Q 25.390625 66.40625 21.84375 63.234375 
Q 18.3125 60.0625 18.3125 54.390625 
z
" id="DejaVuSans-56"/>
     <path d="M 11.71875 12.40625 
L 22.015625 12.40625 
L 22.015625 0 
L 11.71875 0 
z
M 11.71875 51.703125 
L 22.015625 51.703125 
L 22.015625 39.3125 
L 11.71875 39.3125 
z
" id="DejaVuSans-58"/>
     <path d="M 10.6875 12.40625 
L 21 12.40625 
L 21 0 
L 10.6875 0 
z
" id="DejaVuSans-46"/>
     <path d="M 48.6875 27.296875 
Q 48.6875 37.203125 44.609375 42.84375 
Q 40.53125 48.484375 33.40625 48.484375 
Q 26.265625 48.484375 22.1875 42.84375 
Q 18.109375 37.203125 18.109375 27.296875 
Q 18.109375 17.390625 22.1875 11.75 
Q 26.265625 6.109375 33.40625 6.109375 
Q 40.53125 6.109375 44.609375 11.75 
Q 48.6875 17.390625 48.6875 27.296875 
z
M 18.109375 46.390625 
Q 20.953125 51.265625 25.265625 53.625 
Q 29.59375 56 35.59375 56 
Q 45.5625 56 51.78125 48.09375 
Q 58.015625 40.1875 58.015625 27.296875 
Q 58.015625 14.40625 51.78125 6.484375 
Q 45.5625 -1.421875 35.59375 -1.421875 
Q 29.59375 -1.421875 25.265625 0.953125 
Q 20.953125 3.328125 18.109375 8.203125 
L 18.109375 0 
L 9.078125 0 
L 9.078125 75.984375 
L 18.109375 75.984375 
z
" id="DejaVuSans-98"/>
     <path d="M 2.984375 54.6875 
L 12.5 54.6875 
L 29.59375 8.796875 
L 46.6875 54.6875 
L 56.203125 54.6875 
L 35.6875 0 
L 23.484375 0 
z
" id="DejaVuSans-118"/>
    </defs>
    <use xlink:href="#DejaVuSans-71"/>
    <use x="77.490234" xlink:href="#DejaVuSans-101"/>
    <use x="139.013672" xlink:href="#DejaVuSans-103"/>
    <use x="202.490234" xlink:href="#DejaVuSans-101"/>
    <use x="264.013672" xlink:href="#DejaVuSans-110"/>
    <use x="327.392578" xlink:href="#DejaVuSans-101"/>
    <use x="388.916016" xlink:href="#DejaVuSans-114"/>
    <use x="427.779297" xlink:href="#DejaVuSans-101"/>
    <use x="489.302734" xlink:href="#DejaVuSans-101"/>
    <use x="550.826172" xlink:href="#DejaVuSans-114"/>
    <use x="590.189453" xlink:href="#DejaVuSans-100"/>
    <use x="653.666016" xlink:href="#DejaVuSans-32"/>
    <use x="685.453125" xlink:href="#DejaVuSans-111"/>
    <use x="746.634766" xlink:href="#DejaVuSans-112"/>
    <use x="810.111328" xlink:href="#DejaVuSans-32"/>
    <use x="841.898438" xlink:href="#DejaVuSans-50"/>
    <use x="905.521484" xlink:href="#DejaVuSans-48"/>
    <use x="969.144531" xlink:href="#DejaVuSans-50"/>
    <use x="1032.767578" xlink:href="#DejaVuSans-49"/>
    <use x="1096.390625" xlink:href="#DejaVuSans-45"/>
    <use x="1132.474609" xlink:href="#DejaVuSans-49"/>
    <use x="1196.097656" xlink:href="#DejaVuSans-48"/>
    <use x="1259.720703" xlink:href="#DejaVuSans-45"/>
    <use x="1295.804688" xlink:href="#DejaVuSans-48"/>
    <use x="1359.427734" xlink:href="#DejaVuSans-56"/>
    <use x="1423.050781" xlink:href="#DejaVuSans-32"/>
    <use x="1454.837891" xlink:href="#DejaVuSans-49"/>
    <use x="1518.460938" xlink:href="#DejaVuSans-49"/>
    <use x="1582.083984" xlink:href="#DejaVuSans-58"/>
    <use x="1615.775391" xlink:href="#DejaVuSans-52"/>
    <use x="1679.398438" xlink:href="#DejaVuSans-49"/>
    <use x="1743.021484" xlink:href="#DejaVuSans-32"/>
    <use x="1774.808594" xlink:href="#DejaVuSans-111"/>
    <use x="1834.240234" xlink:href="#DejaVuSans-46"/>
    <use x="1866.027344" xlink:href="#DejaVuSans-98"/>
    <use x="1929.503906" xlink:href="#DejaVuSans-46"/>
    <use x="1961.291016" xlink:href="#DejaVuSans-118"/>
    <use x="2012.720703" xlink:href="#DejaVuSans-46"/>
    <use x="2044.507812" xlink:href="#DejaVuSans-32"/>
    <use x="2076.294922" xlink:href="#DejaVuSans-100"/>
    <use x="2139.771484" xlink:href="#DejaVuSans-97"/>
    <use x="2201.050781" xlink:href="#DejaVuSans-116"/>
    <use x="2240.259766" xlink:href="#DejaVuSans-97"/>
    <use x="2301.539062" xlink:href="#DejaVuSans-32"/>
    <use x="2333.326172" xlink:href="#DejaVuSans-116"/>
    <use x="2372.535156" xlink:href="#DejaVuSans-111"/>
    <use x="2433.716797" xlink:href="#DejaVuSans-116"/>
    <use x="2472.925781" xlink:href="#DejaVuSans-32"/>
    <use x="2504.712891" xlink:href="#DejaVuSans-50"/>
    <use x="2568.335938" xlink:href="#DejaVuSans-48"/>
    <use x="2631.958984" xlink:href="#DejaVuSans-50"/>
    <use x="2695.582031" xlink:href="#DejaVuSans-49"/>
    <use x="2759.205078" xlink:href="#DejaVuSans-45"/>
    <use x="2795.289062" xlink:href="#DejaVuSans-49"/>
    <use x="2858.912109" xlink:href="#DejaVuSans-48"/>
    <use x="2922.535156" xlink:href="#DejaVuSans-45"/>
    <use x="2958.619141" xlink:href="#DejaVuSans-48"/>
    <use x="3022.242188" xlink:href="#DejaVuSans-52"/>
    <use x="3085.865234" xlink:href="#DejaVuSans-46"/>
   </g>
   <!-- Source code: http://github.com/realrolfje/coronadata -->
   <g style="fill:#808080;" transform="translate(7.2 213.84)scale(0.08 -0.08)">
    <defs>
     <path d="M 54.890625 33.015625 
L 54.890625 0 
L 45.90625 0 
L 45.90625 32.71875 
Q 45.90625 40.484375 42.875 44.328125 
Q 39.84375 48.1875 33.796875 48.1875 
Q 26.515625 48.1875 22.3125 43.546875 
Q 18.109375 38.921875 18.109375 30.90625 
L 18.109375 0 
L 9.078125 0 
L 9.078125 75.984375 
L 18.109375 75.984375 
L 18.109375 46.1875 
Q 21.34375 51.125 25.703125 53.5625 
Q 30.078125 56 35.796875 56 
Q 45.21875 56 50.046875 50.171875 
Q 54.890625 44.34375 54.890625 33.015625 
z
" id="DejaVuSans-104"/>
     <path d="M 25.390625 72.90625 
L 33.6875 72.90625 
L 8.296875 -9.28125 
L 0 -9.28125 
z
" id="DejaVuSans-47"/>
     <path d="M 37.109375 75.984375 
L 37.109375 68.5 
L 28.515625 68.5 
Q 23.6875 68.5 21.796875 66.546875 
Q 19.921875 64.59375 19.921875 59.515625 
L 19.921875 54.6875 
L 34.71875 54.6875 
L 34.71875 47.703125 
L 19.921875 47.703125 
L 19.921875 0 
L 10.890625 0 
L 10.890625 47.703125 
L 2.296875 47.703125 
L 2.296875 54.6875 
L 10.890625 54.6875 
L 10.890625 58.5 
Q 10.890625 67.625 15.140625 71.796875 
Q 19.390625 75.984375 28.609375 75.984375 
z
" id="DejaVuSans-102"/>
     <path d="M 9.421875 54.6875 
L 18.40625 54.6875 
L 18.40625 -0.984375 
Q 18.40625 -11.421875 14.421875 -16.109375 
Q 10.453125 -20.796875 1.609375 -20.796875 
L -1.8125 -20.796875 
L -1.8125 -13.1875 
L 0.59375 -13.1875 
Q 5.71875 -13.1875 7.5625 -10.8125 
Q 9.421875 -8.453125 9.421875 -0.984375 
z
M 9.421875 75.984375 
L 18.40625 75.984375 
L 18.40625 64.59375 
L 9.421875 64.59375 
z
" id="DejaVuSans-106"/>
    </defs>
    <use xlink:href="#DejaVuSans-83"/>
    <use x="63.476562" xlink:href="#DejaVuSans-111"/>
    <use x="124.658203" xlink:href="#DejaVuSans-117"/>
    <use x="188.037109" xlink:href="#DejaVuSans-114"/>
    <use x="226.900391" xlink:href="#DejaVuSans-99"/>
    <use x="281.880859" xlink:href="#DejaVuSans-101"/>
    <use x="343.404297" xlink:href="#DejaVuSans-32"/>
    <use x="375.191406" xlink:href="#DejaVuSans-99"/>
    <use x="430.171875" xlink:href="#DejaVuSans-111"/>
    <use x="491.353516" xlink:href="#DejaVuSans-100"/>
    <use x="554.830078" xlink:href="#DejaVuSans-101"/>
    <use x="616.353516" xlink:href="#DejaVuSans-58"/>
    <use x="650.044922" xlink:href="#DejaVuSans-32"/>
    <use x="681.832031" xlink:href="#DejaVuSans-104"/>
    <use x="745.210938" xlink:href="#DejaVuSans-116"/>
    <use x="784.419922" xlink:href="#DejaVuSans-116"/>
    <use x="823.628906" xlink:href="#DejaVuSans-112"/>
    <use x="887.105469" xlink:href="#DejaVuSans-58"/>
    <use x="920.796875" xlink:href="#DejaVuSans-47"/>
    <use x="954.488281" xlink:href="#DejaVuSans-47"/>
    <use x="988.179688" xlink:href="#DejaVuSans-103"/>
    <use x="1051.65625" xlink:href="#DejaVuSans-105"/>
    <use x="1079.439453" xlink:href="#DejaVuSans-116"/>
    <use x="1118.648438" xlink:href="#DejaVuSans-104"/>
    <use x="1182.027344" xlink:href="#DejaVuSans-117"/>
    <use x="1245.40625" xlink:href="#DejaVuSans-98"/>
    <use x="1308.882812" xlink:href="#DejaVuSans-46"/>
    <use x="1340.669922" xlink:href="#DejaVuSans-99"/>
    <use x="1395.650391" xlink:href="#DejaVuSans-111"/>
    <use x="1456.832031" xlink:href="#DejaVuSans-109"/>
    <use x="1554.244141" xlink:href="#DejaVuSans-47"/>
    <use x="1587.935547" xlink:href="#DejaVuSans-114"/>
    <use x="1626.798828" xlink:href="#DejaVuSans-101"/>
    <use x="1688.322266" xlink:href="#DejaVuSans-97"/>
    <use x="1749.601562" xlink:href="#DejaVuSans-108"/>
    <use x="1777.384766" xlink:href="#DejaVuSans-114"/>
    <use x="1816.248047" xlink:href="#DejaVuSans-111"/>
    <use x="1877.429688" xlink:href="#DejaVuSans-108"/>
    <use x="1905.212891" xlink:href="#DejaVuSans-102"/>
    <use x="1940.417969" xlink:href="#DejaVuSans-106"/>
    <use x="1968.201172" xlink:href="#DejaVuSans-101"/>
    <use x="2029.724609" xlink:href="#DejaVuSans-47"/>
    <use x="2063.416016" xlink:href="#DejaVuSans-99"/>
    <use x="2118.396484" xlink:href="#DejaVuSans-111"/>
    <use x="2179.578125" xlink:href="#DejaVuSans-114"/>
    <use x="2218.441406" xlink:href="#DejaVuSans-111"/>
    <use x="2279.623047" xlink:href="#DejaVuSans-110"/>
    <use x="2343.001953" xlink:href="#DejaVuSans-97"/>
    <use x="2404.28125" xlink:href="#DejaVuSans-100"/>
    <use x="2467.757812" xlink:href="#DejaVuSans-97"/>
    <use x="2529.037109" xlink:href="#DejaVuSans-116"/>
    <use x="2568.246094" xlink:href="#DejaVuSans-97"/>
   </g>
  </g>
  <g id="text_21">
   <!-- Bron: https://data.rivm.nl/covid-19 -->
   <g style="fill:#808080;" transform="translate(574.79875 213.84)scale(0.08 -0.08)">
    <defs>
     <path d="M 19.671875 34.8125 
L 19.671875 8.109375 
L 35.5 8.109375 
Q 43.453125 8.109375 47.28125 11.40625 
Q 51.125 14.703125 51.125 21.484375 
Q 51.125 28.328125 47.28125 31.5625 
Q 43.453125 34.8125 35.5 34.8125 
z
M 19.671875 64.796875 
L 19.671875 42.828125 
L 34.28125 42.828125 
Q 41.5 42.828125 45.03125 45.53125 
Q 48.578125 48.25 48.578125 53.8125 
Q 48.578125 59.328125 45.03125 62.0625 
Q 41.5 64.796875 34.28125 64.796875 
z
M 9.8125 72.90625 
L 35.015625 72.90625 
Q 46.296875 72.90625 52.390625 68.21875 
Q 58.5 63.53125 58.5 54.890625 
Q 58.5 48.1875 55.375 44.234375 
Q 52.25 40.28125 46.1875 39.3125 
Q 53.46875 37.75 57.5 32.78125 
Q 61.53125 27.828125 61.53125 20.40625 
Q 61.53125 10.640625 54.890625 5.3125 
Q 48.25 0 35.984375 0 
L 9.8125 0 
z
" id="DejaVuSans-66"/>
     <path d="M 44.28125 53.078125 
L 44.28125 44.578125 
Q 40.484375 46.53125 36.375 47.5 
Q 32.28125 48.484375 27.875 48.484375 
Q 21.1875 48.484375 17.84375 46.4375 
Q 14.5 44.390625 14.5 40.28125 
Q 14.5 37.15625 16.890625 35.375 
Q 19.28125 33.59375 26.515625 31.984375 
L 29.59375 31.296875 
Q 39.15625 29.25 43.1875 25.515625 
Q 47.21875 21.78125 47.21875 15.09375 
Q 47.21875 7.46875 41.1875 3.015625 
Q 35.15625 -1.421875 24.609375 -1.421875 
Q 20.21875 -1.421875 15.453125 -0.5625 
Q 10.6875 0.296875 5.421875 2 
L 5.421875 11.28125 
Q 10.40625 8.6875 15.234375 7.390625 
Q 20.0625 6.109375 24.8125 6.109375 
Q 31.15625 6.109375 34.5625 8.28125 
Q 37.984375 10.453125 37.984375 14.40625 
Q 37.984375 18.0625 35.515625 20.015625 
Q 33.0625 21.96875 24.703125 23.78125 
L 21.578125 24.515625 
Q 13.234375 26.265625 9.515625 29.90625 
Q 5.8125 33.546875 5.8125 39.890625 
Q 5.8125 47.609375 11.28125 51.796875 
Q 16.75 56 26.8125 56 
Q 31.78125 56 36.171875 55.265625 
Q 40.578125 54.546875 44.28125 53.078125 
z
" id="DejaVuSans-115"/>
    </defs>
    <use xlink:href="#DejaVuSans-66"/>
    <use x="68.603516" xlink:href="#DejaVuSans-114"/>
    <use x="107.466797" xlink:href="#DejaVuSans-111"/>
    <use x="168.648438" xlink:href="#DejaVuSans-110"/>
    <use x="232.027344" xlink:href="#DejaVuSans-58"/>
    <use x="265.71875" xlink:href="#DejaVuSans-32"/>
    <use x="297.505859" xlink:href="#DejaVuSans-104"/>
    <use x="360.884766" xlink:href="#DejaVuSans-116"/>
    <use x="400.09375" xlink:href="#DejaVuSans-116"/>
    <use x="439.302734" xlink:href="#DejaVuSans-112"/>
    <use x="502.779297" xlink:href="#DejaVuSans-115"/>
    <use x="554.878906" xlink:href="#DejaVuSans-58"/>
    <use x="588.570312" xlink:href="#DejaVuSans-47"/>
    <use x="622.261719" xlink:href="#DejaVuSans-47"/>
    <use x="655.953125" xlink:href="#DejaVuSans-100"/>
    <use x="719.429688" xlink:href="#DejaVuSans-97"/>
    <use x="780.708984" xlink:href="#DejaVuSans-116"/>
    <use x="819.917969" xlink:href="#DejaVuSans-97"/>
    <use x="881.197266" xlink:href="#DejaVuSans-46"/>
    <use x="912.984375" xlink:href="#DejaVuSans-114"/>
    <use x="954.097656" xlink:href="#DejaVuSans-105"/>
    <use x="981.880859" xlink:href="#DejaVuSans-118"/>
    <use x="1041.060547" xlink:href="#DejaVuSans-109"/>
    <use x="1138.472656" xlink:href="#DejaVuSans-46"/>
    <use x="1170.259766" xlink:href="#DejaVuSans-110"/>
    <use x="1233.638672" xlink:href="#DejaVuSans-108"/>
    <use x="1261.421875" xlink:href="#DejaVuSans-47"/>
    <use x="1295.113281" xlink:href="#DejaVuSans-99"/>
    <use x="1350.09375" xlink:href="#DejaVuSans-111"/>
    <use x="1411.275391" xlink:href="#DejaVuSans-118"/>
    <use x="1470.455078" xlink:href="#DejaVuSans-105"/>
    <use x="1498.238281" xlink:href="#DejaVuSans-100"/>
    <use x="1561.714844" xlink:href="#DejaVuSans-45"/>
    <use x="1597.798828" xlink:href="#DejaVuSans-49"/>
    <use x="1661.421875" xlink:href="#DejaVuSans-57"/>
   </g>
  </g>
  <g id="text_22">
   <g id="patch_8">
    <path d="M 637.2 176.62375 
L 647.38 176.62375 
L 647.38 168.88125 
L 637.2 168.88125 
z
" style="fill:#ffffff;opacity:0.9;stroke:#ffffff;stroke-linejoin:miter;"/>
   </g>
   <!-- 08 -->
   <g style="fill:#ff0000;" transform="translate(637.2 174.96)scale(0.08 -0.08)">
    <use xlink:href="#DejaVuSans-48"/>
    <use x="63.623047" xlink:href="#DejaVuSans-56"/>
   </g>
  </g>
  <g id="text_23">
   <g id="patch_9">
    <path d="M 176 92.479688 
L 303.317187 92.479688 
L 303.317187 74.801563 
L 176 74.801563 
z
" style="fill:#ffffff;stroke:#ffffff;stroke-linejoin:miter;"/>
   </g>
   <!-- "Je plee liegt niet" - Rolf -->
   <g style="fill:#808080;" transform="translate(180 86.4)scale(0.1 -0.1)">
    <defs>
     <path d="M 17.921875 72.90625 
L 17.921875 45.796875 
L 9.625 45.796875 
L 9.625 72.90625 
z
M 36.375 72.90625 
L 36.375 45.796875 
L 28.078125 45.796875 
L 28.078125 72.90625 
z
" id="DejaVuSans-34"/>
     <path d="M 9.8125 72.90625 
L 19.671875 72.90625 
L 19.671875 5.078125 
Q 19.671875 -8.109375 14.671875 -14.0625 
Q 9.671875 -20.015625 -1.421875 -20.015625 
L -5.171875 -20.015625 
L -5.171875 -11.71875 
L -2.09375 -11.71875 
Q 4.4375 -11.71875 7.125 -8.046875 
Q 9.8125 -4.390625 9.8125 5.078125 
z
" id="DejaVuSans-74"/>
    </defs>
    <use xlink:href="#DejaVuSans-34"/>
    <use x="45.996094" xlink:href="#DejaVuSans-74"/>
    <use x="75.488281" xlink:href="#DejaVuSans-101"/>
    <use x="137.011719" xlink:href="#DejaVuSans-32"/>
    <use x="168.798828" xlink:href="#DejaVuSans-112"/>
    <use x="232.275391" xlink:href="#DejaVuSans-108"/>
    <use x="260.058594" xlink:href="#DejaVuSans-101"/>
    <use x="321.582031" xlink:href="#DejaVuSans-101"/>
    <use x="383.105469" xlink:href="#DejaVuSans-32"/>
    <use x="414.892578" xlink:href="#DejaVuSans-108"/>
    <use x="442.675781" xlink:href="#DejaVuSans-105"/>
    <use x="470.458984" xlink:href="#DejaVuSans-101"/>
    <use x="531.982422" xlink:href="#DejaVuSans-103"/>
    <use x="595.458984" xlink:href="#DejaVuSans-116"/>
    <use x="634.667969" xlink:href="#DejaVuSans-32"/>
    <use x="666.455078" xlink:href="#DejaVuSans-110"/>
    <use x="729.833984" xlink:href="#DejaVuSans-105"/>
    <use x="757.617188" xlink:href="#DejaVuSans-101"/>
    <use x="819.140625" xlink:href="#DejaVuSans-116"/>
    <use x="858.349609" xlink:href="#DejaVuSans-34"/>
    <use x="904.345703" xlink:href="#DejaVuSans-32"/>
    <use x="936.132812" xlink:href="#DejaVuSans-45"/>
    <use x="972.216797" xlink:href="#DejaVuSans-32"/>
    <use x="1004.003906" xlink:href="#DejaVuSans-82"/>
    <use x="1068.986328" xlink:href="#DejaVuSans-111"/>
    <use x="1130.167969" xlink:href="#DejaVuSans-108"/>
    <use x="1157.951172" xlink:href="#DejaVuSans-102"/>
   </g>
  </g>
 </g>
 <defs>
  <clipPath id="p69ccb61f48">
   <rect height="146.88" width="590.4" x="64.8" y="25.92"/>
  </clipPath>
 </defs>
</svg>
