<?xml version="1.0" encoding="utf-8" standalone="no"?>
<!DOCTYPE svg PUBLIC "-//W3C//DTD SVG 1.1//EN"
  "http://www.w3.org/Graphics/SVG/1.1/DTD/svg11.dtd">
<!-- Created with matplotlib (https://matplotlib.org/) -->
<svg height="216pt" version="1.1" viewBox="0 0 720 216" width="720pt" xmlns="http://www.w3.org/2000/svg" xmlns:xlink="http://www.w3.org/1999/xlink">
 <metadata>
  <rdf:RDF xmlns:cc="http://creativecommons.org/ns#" xmlns:dc="http://purl.org/dc/elements/1.1/" xmlns:rdf="http://www.w3.org/1999/02/22-rdf-syntax-ns#">
   <cc:Work>
    <dc:type rdf:resource="http://purl.org/dc/dcmitype/StillImage"/>
    <dc:date>2023-12-15T23:37:46.242474</dc:date>
    <dc:format>image/svg+xml</dc:format>
    <dc:creator>
     <cc:Agent>
      <dc:title>Matplotlib v3.3.2, https://matplotlib.org/</dc:title>
     </cc:Agent>
    </dc:creator>
   </cc:Work>
  </rdf:RDF>
 </metadata>
 <defs>
  <style type="text/css">*{stroke-linecap:butt;stroke-linejoin:round;}</style>
 </defs>
 <g id="figure_1">
  <g id="patch_1">
   <path d="M 0 216 
L 720 216 
L 720 0 
L 0 0 
z
" style="fill:#ffffff;"/>
  </g>
  <g id="axes_1">
   <g id="patch_2">
    <path d="M 64.8 172.8 
L 655.2 172.8 
L 655.2 25.92 
L 64.8 25.92 
z
" style="fill:#ffffff;"/>
   </g>
   <g id="PolyCollection_1">
    <path clip-path="url(#p86089f5bf2)" d="M 64.8 172.8 
L 64.8 172.8 
L 66.421978 172.8 
L 68.043956 172.8 
L 69.665934 172.8 
L 71.287912 172.8 
L 72.90989 172.8 
L 74.531868 172.8 
L 76.153846 172.8 
L 77.775824 172.8 
L 79.397802 172.8 
L 81.01978 172.8 
L 82.641758 172.8 
L 84.263736 172.8 
L 85.885714 172.8 
L 87.507692 172.8 
L 89.12967 172.8 
L 90.751648 172.8 
L 92.373626 172.8 
L 93.995604 172.8 
L 95.617582 172.8 
L 97.23956 172.8 
L 98.861538 172.8 
L 100.483516 172.8 
L 102.105495 172.8 
L 103.727473 172.8 
L 105.349451 172.8 
L 106.971429 172.8 
L 108.593407 172.8 
L 110.215385 172.8 
L 111.837363 172.8 
L 113.459341 172.8 
L 115.081319 172.8 
L 116.703297 172.8 
L 118.325275 172.8 
L 119.947253 172.8 
L 121.569231 172.8 
L 123.191209 172.8 
L 124.813187 172.8 
L 126.435165 172.8 
L 128.057143 172.8 
L 129.679121 172.8 
L 131.301099 172.8 
L 132.923077 172.8 
L 134.545055 172.8 
L 136.167033 172.8 
L 137.789011 172.8 
L 139.410989 172.8 
L 141.032967 172.8 
L 142.654945 172.8 
L 144.276923 172.8 
L 145.898901 172.8 
L 147.520879 172.8 
L 149.142857 172.8 
L 150.764835 172.8 
L 152.386813 172.8 
L 154.008791 172.8 
L 155.630769 172.8 
L 157.252747 172.8 
L 158.874725 172.8 
L 160.496703 172.8 
L 162.118681 172.8 
L 163.740659 172.8 
L 165.362637 172.8 
L 166.984615 172.8 
L 168.606593 172.8 
L 170.228571 172.8 
L 171.850549 172.8 
L 173.472527 172.8 
L 175.094505 172.8 
L 176.716484 172.8 
L 178.338462 172.8 
L 179.96044 172.8 
L 181.582418 172.8 
L 183.204396 172.8 
L 184.826374 172.8 
L 186.448352 172.8 
L 188.07033 172.8 
L 189.692308 172.8 
L 191.314286 172.8 
L 192.936264 172.8 
L 194.558242 172.8 
L 196.18022 172.8 
L 197.802198 172.8 
L 199.424176 172.8 
L 201.046154 172.8 
L 202.668132 172.8 
L 204.29011 172.8 
L 205.912088 172.8 
L 207.534066 172.8 
L 209.156044 172.8 
L 210.778022 172.8 
L 212.4 172.8 
L 214.021978 172.8 
L 215.643956 172.8 
L 217.265934 172.8 
L 218.887912 172.8 
L 220.50989 172.8 
L 222.131868 172.8 
L 223.753846 172.8 
L 225.375824 172.8 
L 226.997802 172.8 
L 228.61978 172.8 
L 230.241758 172.8 
L 231.863736 172.8 
L 233.485714 172.8 
L 235.107692 172.8 
L 236.72967 172.8 
L 238.351648 172.8 
L 239.973626 172.8 
L 241.595604 172.8 
L 243.217582 172.8 
L 244.83956 172.8 
L 246.461538 172.8 
L 248.083516 172.8 
L 249.705495 172.8 
L 251.327473 172.8 
L 252.949451 172.8 
L 254.571429 172.8 
L 256.193407 172.8 
L 257.815385 172.8 
L 259.437363 172.8 
L 261.059341 172.8 
L 262.681319 172.8 
L 264.303297 172.8 
L 265.925275 172.8 
L 267.547253 172.8 
L 269.169231 172.8 
L 270.791209 172.8 
L 272.413187 172.8 
L 274.035165 172.8 
L 275.657143 172.8 
L 277.279121 172.8 
L 278.901099 172.8 
L 280.523077 172.8 
L 282.145055 172.8 
L 283.767033 172.8 
L 285.389011 172.8 
L 287.010989 172.8 
L 288.632967 172.8 
L 290.254945 172.8 
L 291.876923 172.8 
L 293.498901 172.8 
L 295.120879 172.8 
L 296.742857 172.8 
L 298.364835 172.8 
L 299.986813 172.8 
L 301.608791 172.8 
L 303.230769 172.8 
L 304.852747 172.8 
L 306.474725 172.8 
L 308.096703 172.8 
L 309.718681 172.8 
L 311.340659 172.8 
L 312.962637 172.8 
L 314.584615 172.8 
L 316.206593 172.8 
L 317.828571 172.8 
L 319.450549 172.8 
L 321.072527 172.8 
L 322.694505 172.8 
L 324.316484 172.8 
L 325.938462 172.8 
L 327.56044 172.8 
L 329.182418 172.8 
L 330.804396 172.8 
L 332.426374 172.8 
L 334.048352 172.8 
L 335.67033 172.8 
L 337.292308 172.8 
L 338.914286 172.8 
L 340.536264 172.8 
L 342.158242 172.8 
L 343.78022 172.8 
L 345.402198 172.8 
L 347.024176 172.8 
L 348.646154 172.8 
L 350.268132 172.8 
L 351.89011 172.8 
L 353.512088 172.8 
L 355.134066 172.8 
L 356.756044 172.8 
L 358.378022 172.8 
L 360 172.8 
L 361.621978 172.8 
L 363.243956 172.8 
L 364.865934 172.8 
L 366.487912 172.8 
L 368.10989 172.8 
L 369.731868 172.8 
L 371.353846 172.8 
L 372.975824 172.8 
L 374.597802 172.8 
L 376.21978 172.8 
L 377.841758 172.8 
L 379.463736 172.8 
L 381.085714 172.8 
L 382.707692 172.8 
L 384.32967 172.8 
L 385.951648 172.8 
L 387.573626 172.8 
L 389.195604 172.8 
L 390.817582 172.8 
L 392.43956 172.8 
L 394.061538 172.8 
L 395.683516 172.8 
L 397.305495 172.8 
L 398.927473 172.8 
L 400.549451 172.8 
L 402.171429 172.8 
L 403.793407 172.8 
L 405.415385 172.8 
L 407.037363 172.8 
L 408.659341 172.8 
L 410.281319 172.8 
L 411.903297 172.8 
L 413.525275 172.8 
L 415.147253 172.8 
L 416.769231 172.8 
L 418.391209 172.8 
L 420.013187 172.8 
L 421.635165 172.8 
L 423.257143 172.8 
L 424.879121 172.8 
L 426.501099 172.8 
L 428.123077 172.8 
L 429.745055 172.8 
L 431.367033 172.8 
L 432.989011 172.8 
L 434.610989 172.8 
L 436.232967 172.8 
L 437.854945 172.8 
L 439.476923 172.8 
L 441.098901 172.8 
L 442.720879 172.8 
L 444.342857 172.8 
L 445.964835 172.8 
L 447.586813 172.8 
L 449.208791 172.8 
L 450.830769 172.8 
L 452.452747 172.8 
L 454.074725 172.8 
L 455.696703 172.8 
L 457.318681 172.8 
L 458.940659 172.8 
L 460.562637 172.8 
L 462.184615 172.8 
L 463.806593 172.8 
L 465.428571 172.8 
L 467.050549 172.8 
L 468.672527 172.8 
L 470.294505 172.8 
L 471.916484 172.8 
L 473.538462 172.8 
L 475.16044 172.8 
L 476.782418 172.8 
L 478.404396 172.8 
L 480.026374 172.8 
L 481.648352 172.8 
L 483.27033 172.8 
L 484.892308 172.8 
L 486.514286 172.8 
L 488.136264 172.8 
L 489.758242 172.8 
L 491.38022 172.8 
L 493.002198 172.8 
L 494.624176 172.8 
L 496.246154 172.8 
L 497.868132 172.8 
L 499.49011 172.8 
L 501.112088 172.8 
L 502.734066 172.8 
L 504.356044 172.8 
L 505.978022 172.8 
L 507.6 172.8 
L 509.221978 172.8 
L 510.843956 172.8 
L 512.465934 172.8 
L 514.087912 172.8 
L 515.70989 172.8 
L 517.331868 172.8 
L 518.953846 172.8 
L 520.575824 172.8 
L 522.197802 172.8 
L 523.81978 172.8 
L 525.441758 172.8 
L 527.063736 172.8 
L 528.685714 172.8 
L 530.307692 172.8 
L 531.92967 172.8 
L 533.551648 172.8 
L 535.173626 172.8 
L 536.795604 172.8 
L 538.417582 172.8 
L 540.03956 172.8 
L 541.661538 172.8 
L 543.283516 172.8 
L 544.905495 172.8 
L 546.527473 172.8 
L 548.149451 172.8 
L 549.771429 172.8 
L 551.393407 172.8 
L 553.015385 172.8 
L 554.637363 172.8 
L 556.259341 172.8 
L 557.881319 172.8 
L 559.503297 172.8 
L 561.125275 172.8 
L 562.747253 172.8 
L 564.369231 172.8 
L 565.991209 172.8 
L 567.613187 172.8 
L 569.235165 172.8 
L 570.857143 172.8 
L 572.479121 172.8 
L 574.101099 172.8 
L 575.723077 172.8 
L 577.345055 172.8 
L 578.967033 172.8 
L 580.589011 172.8 
L 582.210989 172.8 
L 583.832967 172.8 
L 585.454945 172.8 
L 587.076923 172.8 
L 588.698901 172.8 
L 590.320879 172.8 
L 591.942857 172.8 
L 593.564835 172.8 
L 595.186813 172.8 
L 596.808791 172.8 
L 598.430769 172.8 
L 600.052747 172.8 
L 601.674725 172.8 
L 603.296703 172.8 
L 604.918681 172.8 
L 606.540659 172.8 
L 608.162637 172.8 
L 609.784615 172.8 
L 611.406593 172.8 
L 613.028571 172.8 
L 614.650549 172.8 
L 616.272527 172.8 
L 617.894505 172.8 
L 619.516484 172.8 
L 621.138462 172.8 
L 622.76044 172.8 
L 624.382418 172.8 
L 626.004396 172.8 
L 627.626374 172.8 
L 627.626374 172.8 
L 627.626374 99.634151 
L 626.004396 95.830613 
L 624.382418 115.658384 
L 622.76044 111.371175 
L 621.138462 100.093131 
L 619.516484 97.800853 
L 617.894505 116.187901 
L 616.272527 111.840695 
L 614.650549 109.487299 
L 613.028571 114.602257 
L 611.406593 99.730731 
L 609.784615 129.302528 
L 608.162637 121.62834 
L 606.540659 112.302181 
L 604.918681 114.7665 
L 603.296703 109.5449 
L 601.674725 121.958014 
L 600.052747 128.485262 
L 598.430769 112.394432 
L 596.808791 118.688953 
L 595.186813 133.629331 
L 593.564835 116.257823 
L 591.942857 129.026445 
L 590.320879 124.72367 
L 588.698901 129.946718 
L 587.076923 128.22362 
L 585.454945 131.584569 
L 583.832967 141.835872 
L 582.210989 138.328511 
L 580.589011 130.993046 
L 578.967033 139.851794 
L 577.345055 141.704034 
L 575.723077 139.970848 
L 574.101099 146.01027 
L 572.479121 132.40248 
L 570.857143 135.214975 
L 569.235165 140.298276 
L 567.613187 145.107805 
L 565.991209 156.69261 
L 564.369231 150.349767 
L 562.747253 157.972003 
L 561.125275 148.181173 
L 559.503297 130.10346 
L 557.881319 131.777229 
L 556.259341 147.494339 
L 554.637363 146.008247 
L 553.015385 144.718144 
L 551.393407 135.146337 
L 549.771429 143.961134 
L 548.149451 139.839513 
L 546.527473 137.86959 
L 544.905495 147.147063 
L 543.283516 146.133808 
L 541.661538 146.385417 
L 540.03956 144.980378 
L 538.417582 141.912069 
L 536.795604 152.858997 
L 535.173626 141.406289 
L 533.551648 150.697246 
L 531.92967 145.991279 
L 530.307692 152.439854 
L 528.685714 148.820645 
L 527.063736 154.753739 
L 525.441758 133.523989 
L 523.81978 158.634182 
L 522.197802 151.163677 
L 520.575824 149.406292 
L 518.953846 151.636922 
L 517.331868 153.297863 
L 515.70989 146.924117 
L 514.087912 153.645515 
L 512.465934 142.711379 
L 510.843956 148.085352 
L 509.221978 152.22733 
L 507.6 154.709141 
L 505.978022 153.725355 
L 504.356044 148.172564 
L 502.734066 149.787449 
L 501.112088 148.546934 
L 499.49011 148.819127 
L 497.868132 153.236031 
L 496.246154 152.394943 
L 494.624176 147.905862 
L 493.002198 148.611119 
L 491.38022 150.080107 
L 489.758242 147.033722 
L 488.136264 152.860787 
L 486.514286 158.635882 
L 484.892308 149.34542 
L 483.27033 131.547563 
L 481.648352 150.158849 
L 480.026374 157.770989 
L 478.404396 159.804761 
L 476.782418 157.584377 
L 475.16044 159.373004 
L 473.538462 159.902569 
L 471.916484 157.228838 
L 470.294505 159.420294 
L 468.672527 159.354802 
L 467.050549 158.772821 
L 465.428571 158.293288 
L 463.806593 160.114347 
L 462.184615 156.749659 
L 460.562637 139.147821 
L 458.940659 159.79888 
L 457.318681 158.8166 
L 455.696703 159.696478 
L 454.074725 154.470263 
L 452.452747 159.24831 
L 450.830769 153.261973 
L 449.208791 156.395065 
L 447.586813 161.050324 
L 445.964835 163.002914 
L 444.342857 154.496123 
L 442.720879 163.013926 
L 441.098901 159.516667 
L 439.476923 161.013768 
L 437.854945 160.431026 
L 436.232967 164.080387 
L 434.610989 163.397999 
L 432.989011 158.098731 
L 431.367033 164.017387 
L 429.745055 167.010862 
L 428.123077 162.174726 
L 426.501099 165.416949 
L 424.879121 168.375625 
L 423.257143 168.982789 
L 421.635165 168.92933 
L 420.013187 163.540608 
L 418.391209 168.170995 
L 416.769231 169.204007 
L 415.147253 156.008519 
L 413.525275 168.579517 
L 411.903297 168.860955 
L 410.281319 167.257244 
L 408.659341 165.972956 
L 407.037363 168.625192 
L 405.415385 166.153514 
L 403.793407 169.120435 
L 402.171429 169.488214 
L 400.549451 170.070785 
L 398.927473 167.140393 
L 397.305495 169.435161 
L 395.683516 169.864389 
L 394.061538 166.950564 
L 392.43956 163.896239 
L 390.817582 170.21578 
L 389.195604 169.646522 
L 387.573626 169.840676 
L 385.951648 169.191496 
L 384.32967 170.432911 
L 382.707692 170.057076 
L 381.085714 167.660592 
L 379.463736 170.082387 
L 377.841758 169.284545 
L 376.21978 170.025663 
L 374.597802 166.992489 
L 372.975824 170.070026 
L 371.353846 169.410532 
L 369.731868 168.896023 
L 368.10989 168.430746 
L 366.487912 169.753198 
L 364.865934 169.216719 
L 363.243956 168.277211 
L 361.621978 169.926894 
L 360 168.818604 
L 358.378022 167.063717 
L 356.756044 167.598131 
L 355.134066 168.486276 
L 353.512088 166.850785 
L 351.89011 166.955106 
L 350.268132 169.101441 
L 348.646154 167.447749 
L 347.024176 167.019463 
L 345.402198 168.194613 
L 343.78022 166.399648 
L 342.158242 166.459172 
L 340.536264 166.794187 
L 338.914286 166.906641 
L 337.292308 163.870935 
L 335.67033 165.030975 
L 334.048352 167.034803 
L 332.426374 166.026256 
L 330.804396 166.172452 
L 329.182418 165.151109 
L 327.56044 165.277234 
L 325.938462 164.927144 
L 324.316484 160.540664 
L 322.694505 160.997644 
L 321.072527 163.89975 
L 319.450549 163.379496 
L 317.828571 164.791325 
L 316.206593 163.274461 
L 314.584615 161.367986 
L 312.962637 156.301657 
L 311.340659 155.039772 
L 309.718681 161.077112 
L 308.096703 161.367324 
L 306.474725 141.202134 
L 304.852747 155.910791 
L 303.230769 152.708006 
L 301.608791 147.294357 
L 299.986813 140.405917 
L 298.364835 154.368704 
L 296.742857 150.51088 
L 295.120879 139.556923 
L 293.498901 149.557252 
L 291.876923 147.387355 
L 290.254945 146.678602 
L 288.632967 147.679776 
L 287.010989 153.241189 
L 285.389011 143.711428 
L 283.767033 148.498538 
L 282.145055 140.217134 
L 280.523077 143.614281 
L 278.901099 129.445299 
L 277.279121 143.682773 
L 275.657143 149.282944 
L 274.035165 145.237204 
L 272.413187 144.956526 
L 270.791209 143.278827 
L 269.169231 142.703168 
L 267.547253 136.598844 
L 265.925275 132.021458 
L 264.303297 141.477276 
L 262.681319 114.565627 
L 261.059341 118.241293 
L 259.437363 115.870808 
L 257.815385 134.832184 
L 256.193407 127.464349 
L 254.571429 135.179349 
L 252.949451 118.847373 
L 251.327473 125.787795 
L 249.705495 135.082743 
L 248.083516 134.918783 
L 246.461538 132.376744 
L 244.83956 111.58845 
L 243.217582 92.100794 
L 241.595604 110.885434 
L 239.973626 109.611803 
L 238.351648 108.714615 
L 236.72967 124.984859 
L 235.107692 105.451757 
L 233.485714 97.951115 
L 231.863736 112.199511 
L 230.241758 86.481703 
L 228.61978 76.004133 
L 226.997802 93.759887 
L 225.375824 92.703511 
L 223.753846 94.02721 
L 222.131868 80.655673 
L 220.50989 62.20053 
L 218.887912 87.469933 
L 217.265934 116.845362 
L 215.643956 100.118492 
L 214.021978 106.174244 
L 212.4 85.27893 
L 210.778022 89.583585 
L 209.156044 98.100969 
L 207.534066 66.076334 
L 205.912088 89.104089 
L 204.29011 86.116053 
L 202.668132 53.219558 
L 201.046154 55.908833 
L 199.424176 79.838758 
L 197.802198 60.727263 
L 196.18022 81.889901 
L 194.558242 86.614375 
L 192.936264 99.216296 
L 191.314286 77.461292 
L 189.692308 59.940157 
L 188.07033 88.863995 
L 186.448352 66.784276 
L 184.826374 99.904608 
L 183.204396 88.273622 
L 181.582418 120.77819 
L 179.96044 112.289309 
L 178.338462 104.095061 
L 176.716484 101.410782 
L 175.094505 115.494806 
L 173.472527 110.863971 
L 171.850549 118.905967 
L 170.228571 134.653134 
L 168.606593 132.385193 
L 166.984615 135.158229 
L 165.362637 136.877689 
L 163.740659 137.774048 
L 162.118681 146.585275 
L 160.496703 135.785654 
L 158.874725 144.218702 
L 157.252747 141.951005 
L 155.630769 131.187012 
L 154.008791 137.725898 
L 152.386813 135.593537 
L 150.764835 129.825318 
L 149.142857 134.295464 
L 147.520879 146.266564 
L 145.898901 149.212844 
L 144.276923 150.051789 
L 142.654945 153.154384 
L 141.032967 154.088808 
L 139.410989 149.973319 
L 137.789011 149.961254 
L 136.167033 154.237 
L 134.545055 154.034115 
L 132.923077 155.219405 
L 131.301099 153.667385 
L 129.679121 155.787066 
L 128.057143 152.111917 
L 126.435165 151.259763 
L 124.813187 154.1783 
L 123.191209 145.60208 
L 121.569231 148.3061 
L 119.947253 138.325995 
L 118.325275 146.532388 
L 116.703297 136.770788 
L 115.081319 136.290424 
L 113.459341 131.50597 
L 111.837363 131.254089 
L 110.215385 138.428506 
L 108.593407 132.12084 
L 106.971429 118.727965 
L 105.349451 127.820737 
L 103.727473 118.061004 
L 102.105495 96.086538 
L 100.483516 117.574592 
L 98.861538 83.933681 
L 97.23956 53.082845 
L 95.617582 60.021739 
L 93.995604 72.310914 
L 92.373626 31.917591 
L 90.751648 81.292377 
L 89.12967 82.6488 
L 87.507692 38.132152 
L 85.885714 77.519606 
L 84.263736 75.325251 
L 82.641758 55.889947 
L 81.01978 81.869731 
L 79.397802 55.816906 
L 77.775824 52.313108 
L 76.153846 52.003933 
L 74.531868 70.13651 
L 72.90989 68.77645 
L 71.287912 87.807207 
L 69.665934 93.289904 
L 68.043956 115.723843 
L 66.421978 121.773761 
L 64.8 117.938571 
z
" style="fill:#008000;fill-opacity:0.3;"/>
   </g>
   <g id="matplotlib.axis_1">
    <g id="xtick_1">
     <g id="line2d_1">
      <path clip-path="url(#p86089f5bf2)" d="M 98.861538 172.8 
L 98.861538 25.92 
" style="fill:none;stroke:#808080;stroke-dasharray:6.4,1.6,1,1.6;stroke-dashoffset:0;stroke-opacity:0.3;"/>
     </g>
     <g id="line2d_2">
      <defs>
       <path d="M 0 0 
L 0 3.5 
" id="m19f78de740" style="stroke:#000000;stroke-width:0.8;"/>
      </defs>
      <g>
       <use style="stroke:#000000;stroke-width:0.8;" x="98.861538" xlink:href="#m19f78de740" y="172.8"/>
      </g>
     </g>
     <g id="text_1">
      <!-- 2023-01 -->
      <g transform="translate(77.970132 187.398438)scale(0.1 -0.1)">
       <defs>
        <path d="M 19.1875 8.296875 
L 53.609375 8.296875 
L 53.609375 0 
L 7.328125 0 
L 7.328125 8.296875 
Q 12.9375 14.109375 22.625 23.890625 
Q 32.328125 33.6875 34.8125 36.53125 
Q 39.546875 41.84375 41.421875 45.53125 
Q 43.3125 49.21875 43.3125 52.78125 
Q 43.3125 58.59375 39.234375 62.25 
Q 35.15625 65.921875 28.609375 65.921875 
Q 23.96875 65.921875 18.8125 64.3125 
Q 13.671875 62.703125 7.8125 59.421875 
L 7.8125 69.390625 
Q 13.765625 71.78125 18.9375 73 
Q 24.125 74.21875 28.421875 74.21875 
Q 39.75 74.21875 46.484375 68.546875 
Q 53.21875 62.890625 53.21875 53.421875 
Q 53.21875 48.921875 51.53125 44.890625 
Q 49.859375 40.875 45.40625 35.40625 
Q 44.1875 33.984375 37.640625 27.21875 
Q 31.109375 20.453125 19.1875 8.296875 
z
" id="DejaVuSans-50"/>
        <path d="M 31.78125 66.40625 
Q 24.171875 66.40625 20.328125 58.90625 
Q 16.5 51.421875 16.5 36.375 
Q 16.5 21.390625 20.328125 13.890625 
Q 24.171875 6.390625 31.78125 6.390625 
Q 39.453125 6.390625 43.28125 13.890625 
Q 47.125 21.390625 47.125 36.375 
Q 47.125 51.421875 43.28125 58.90625 
Q 39.453125 66.40625 31.78125 66.40625 
z
M 31.78125 74.21875 
Q 44.046875 74.21875 50.515625 64.515625 
Q 56.984375 54.828125 56.984375 36.375 
Q 56.984375 17.96875 50.515625 8.265625 
Q 44.046875 -1.421875 31.78125 -1.421875 
Q 19.53125 -1.421875 13.0625 8.265625 
Q 6.59375 17.96875 6.59375 36.375 
Q 6.59375 54.828125 13.0625 64.515625 
Q 19.53125 74.21875 31.78125 74.21875 
z
" id="DejaVuSans-48"/>
        <path d="M 40.578125 39.3125 
Q 47.65625 37.796875 51.625 33 
Q 55.609375 28.21875 55.609375 21.1875 
Q 55.609375 10.40625 48.1875 4.484375 
Q 40.765625 -1.421875 27.09375 -1.421875 
Q 22.515625 -1.421875 17.65625 -0.515625 
Q 12.796875 0.390625 7.625 2.203125 
L 7.625 11.71875 
Q 11.71875 9.328125 16.59375 8.109375 
Q 21.484375 6.890625 26.8125 6.890625 
Q 36.078125 6.890625 40.9375 10.546875 
Q 45.796875 14.203125 45.796875 21.1875 
Q 45.796875 27.640625 41.28125 31.265625 
Q 36.765625 34.90625 28.71875 34.90625 
L 20.21875 34.90625 
L 20.21875 43.015625 
L 29.109375 43.015625 
Q 36.375 43.015625 40.234375 45.921875 
Q 44.09375 48.828125 44.09375 54.296875 
Q 44.09375 59.90625 40.109375 62.90625 
Q 36.140625 65.921875 28.71875 65.921875 
Q 24.65625 65.921875 20.015625 65.03125 
Q 15.375 64.15625 9.8125 62.3125 
L 9.8125 71.09375 
Q 15.4375 72.65625 20.34375 73.4375 
Q 25.25 74.21875 29.59375 74.21875 
Q 40.828125 74.21875 47.359375 69.109375 
Q 53.90625 64.015625 53.90625 55.328125 
Q 53.90625 49.265625 50.4375 45.09375 
Q 46.96875 40.921875 40.578125 39.3125 
z
" id="DejaVuSans-51"/>
        <path d="M 4.890625 31.390625 
L 31.203125 31.390625 
L 31.203125 23.390625 
L 4.890625 23.390625 
z
" id="DejaVuSans-45"/>
        <path d="M 12.40625 8.296875 
L 28.515625 8.296875 
L 28.515625 63.921875 
L 10.984375 60.40625 
L 10.984375 69.390625 
L 28.421875 72.90625 
L 38.28125 72.90625 
L 38.28125 8.296875 
L 54.390625 8.296875 
L 54.390625 0 
L 12.40625 0 
z
" id="DejaVuSans-49"/>
       </defs>
       <use xlink:href="#DejaVuSans-50"/>
       <use x="63.623047" xlink:href="#DejaVuSans-48"/>
       <use x="127.246094" xlink:href="#DejaVuSans-50"/>
       <use x="190.869141" xlink:href="#DejaVuSans-51"/>
       <use x="254.492188" xlink:href="#DejaVuSans-45"/>
       <use x="290.576172" xlink:href="#DejaVuSans-48"/>
       <use x="354.199219" xlink:href="#DejaVuSans-49"/>
      </g>
     </g>
    </g>
    <g id="xtick_2">
     <g id="line2d_3">
      <path clip-path="url(#p86089f5bf2)" d="M 149.142857 172.8 
L 149.142857 25.92 
" style="fill:none;stroke:#808080;stroke-dasharray:6.4,1.6,1,1.6;stroke-dashoffset:0;stroke-opacity:0.3;"/>
     </g>
     <g id="line2d_4">
      <g>
       <use style="stroke:#000000;stroke-width:0.8;" x="149.142857" xlink:href="#m19f78de740" y="172.8"/>
      </g>
     </g>
     <g id="text_2">
      <!-- 2023-02 -->
      <g transform="translate(128.251451 187.398438)scale(0.1 -0.1)">
       <use xlink:href="#DejaVuSans-50"/>
       <use x="63.623047" xlink:href="#DejaVuSans-48"/>
       <use x="127.246094" xlink:href="#DejaVuSans-50"/>
       <use x="190.869141" xlink:href="#DejaVuSans-51"/>
       <use x="254.492188" xlink:href="#DejaVuSans-45"/>
       <use x="290.576172" xlink:href="#DejaVuSans-48"/>
       <use x="354.199219" xlink:href="#DejaVuSans-50"/>
      </g>
     </g>
    </g>
    <g id="xtick_3">
     <g id="line2d_5">
      <path clip-path="url(#p86089f5bf2)" d="M 194.558242 172.8 
L 194.558242 25.92 
" style="fill:none;stroke:#808080;stroke-dasharray:6.4,1.6,1,1.6;stroke-dashoffset:0;stroke-opacity:0.3;"/>
     </g>
     <g id="line2d_6">
      <g>
       <use style="stroke:#000000;stroke-width:0.8;" x="194.558242" xlink:href="#m19f78de740" y="172.8"/>
      </g>
     </g>
     <g id="text_3">
      <!-- 2023-03 -->
      <g transform="translate(173.666836 187.398438)scale(0.1 -0.1)">
       <use xlink:href="#DejaVuSans-50"/>
       <use x="63.623047" xlink:href="#DejaVuSans-48"/>
       <use x="127.246094" xlink:href="#DejaVuSans-50"/>
       <use x="190.869141" xlink:href="#DejaVuSans-51"/>
       <use x="254.492188" xlink:href="#DejaVuSans-45"/>
       <use x="290.576172" xlink:href="#DejaVuSans-48"/>
       <use x="354.199219" xlink:href="#DejaVuSans-51"/>
      </g>
     </g>
    </g>
    <g id="xtick_4">
     <g id="line2d_7">
      <path clip-path="url(#p86089f5bf2)" d="M 244.83956 172.8 
L 244.83956 25.92 
" style="fill:none;stroke:#808080;stroke-dasharray:6.4,1.6,1,1.6;stroke-dashoffset:0;stroke-opacity:0.3;"/>
     </g>
     <g id="line2d_8">
      <g>
       <use style="stroke:#000000;stroke-width:0.8;" x="244.83956" xlink:href="#m19f78de740" y="172.8"/>
      </g>
     </g>
     <g id="text_4">
      <!-- 2023-04 -->
      <g transform="translate(223.948154 187.398438)scale(0.1 -0.1)">
       <defs>
        <path d="M 37.796875 64.3125 
L 12.890625 25.390625 
L 37.796875 25.390625 
z
M 35.203125 72.90625 
L 47.609375 72.90625 
L 47.609375 25.390625 
L 58.015625 25.390625 
L 58.015625 17.1875 
L 47.609375 17.1875 
L 47.609375 0 
L 37.796875 0 
L 37.796875 17.1875 
L 4.890625 17.1875 
L 4.890625 26.703125 
z
" id="DejaVuSans-52"/>
       </defs>
       <use xlink:href="#DejaVuSans-50"/>
       <use x="63.623047" xlink:href="#DejaVuSans-48"/>
       <use x="127.246094" xlink:href="#DejaVuSans-50"/>
       <use x="190.869141" xlink:href="#DejaVuSans-51"/>
       <use x="254.492188" xlink:href="#DejaVuSans-45"/>
       <use x="290.576172" xlink:href="#DejaVuSans-48"/>
       <use x="354.199219" xlink:href="#DejaVuSans-52"/>
      </g>
     </g>
    </g>
    <g id="xtick_5">
     <g id="line2d_9">
      <path clip-path="url(#p86089f5bf2)" d="M 293.498901 172.8 
L 293.498901 25.92 
" style="fill:none;stroke:#808080;stroke-dasharray:6.4,1.6,1,1.6;stroke-dashoffset:0;stroke-opacity:0.3;"/>
     </g>
     <g id="line2d_10">
      <g>
       <use style="stroke:#000000;stroke-width:0.8;" x="293.498901" xlink:href="#m19f78de740" y="172.8"/>
      </g>
     </g>
     <g id="text_5">
      <!-- 2023-05 -->
      <g transform="translate(272.607495 187.398438)scale(0.1 -0.1)">
       <defs>
        <path d="M 10.796875 72.90625 
L 49.515625 72.90625 
L 49.515625 64.59375 
L 19.828125 64.59375 
L 19.828125 46.734375 
Q 21.96875 47.46875 24.109375 47.828125 
Q 26.265625 48.1875 28.421875 48.1875 
Q 40.625 48.1875 47.75 41.5 
Q 54.890625 34.8125 54.890625 23.390625 
Q 54.890625 11.625 47.5625 5.09375 
Q 40.234375 -1.421875 26.90625 -1.421875 
Q 22.3125 -1.421875 17.546875 -0.640625 
Q 12.796875 0.140625 7.71875 1.703125 
L 7.71875 11.625 
Q 12.109375 9.234375 16.796875 8.0625 
Q 21.484375 6.890625 26.703125 6.890625 
Q 35.15625 6.890625 40.078125 11.328125 
Q 45.015625 15.765625 45.015625 23.390625 
Q 45.015625 31 40.078125 35.4375 
Q 35.15625 39.890625 26.703125 39.890625 
Q 22.75 39.890625 18.8125 39.015625 
Q 14.890625 38.140625 10.796875 36.28125 
z
" id="DejaVuSans-53"/>
       </defs>
       <use xlink:href="#DejaVuSans-50"/>
       <use x="63.623047" xlink:href="#DejaVuSans-48"/>
       <use x="127.246094" xlink:href="#DejaVuSans-50"/>
       <use x="190.869141" xlink:href="#DejaVuSans-51"/>
       <use x="254.492188" xlink:href="#DejaVuSans-45"/>
       <use x="290.576172" xlink:href="#DejaVuSans-48"/>
       <use x="354.199219" xlink:href="#DejaVuSans-53"/>
      </g>
     </g>
    </g>
    <g id="xtick_6">
     <g id="line2d_11">
      <path clip-path="url(#p86089f5bf2)" d="M 343.78022 172.8 
L 343.78022 25.92 
" style="fill:none;stroke:#808080;stroke-dasharray:6.4,1.6,1,1.6;stroke-dashoffset:0;stroke-opacity:0.3;"/>
     </g>
     <g id="line2d_12">
      <g>
       <use style="stroke:#000000;stroke-width:0.8;" x="343.78022" xlink:href="#m19f78de740" y="172.8"/>
      </g>
     </g>
     <g id="text_6">
      <!-- 2023-06 -->
      <g transform="translate(322.888814 187.398438)scale(0.1 -0.1)">
       <defs>
        <path d="M 33.015625 40.375 
Q 26.375 40.375 22.484375 35.828125 
Q 18.609375 31.296875 18.609375 23.390625 
Q 18.609375 15.53125 22.484375 10.953125 
Q 26.375 6.390625 33.015625 6.390625 
Q 39.65625 6.390625 43.53125 10.953125 
Q 47.40625 15.53125 47.40625 23.390625 
Q 47.40625 31.296875 43.53125 35.828125 
Q 39.65625 40.375 33.015625 40.375 
z
M 52.59375 71.296875 
L 52.59375 62.3125 
Q 48.875 64.0625 45.09375 64.984375 
Q 41.3125 65.921875 37.59375 65.921875 
Q 27.828125 65.921875 22.671875 59.328125 
Q 17.53125 52.734375 16.796875 39.40625 
Q 19.671875 43.65625 24.015625 45.921875 
Q 28.375 48.1875 33.59375 48.1875 
Q 44.578125 48.1875 50.953125 41.515625 
Q 57.328125 34.859375 57.328125 23.390625 
Q 57.328125 12.15625 50.6875 5.359375 
Q 44.046875 -1.421875 33.015625 -1.421875 
Q 20.359375 -1.421875 13.671875 8.265625 
Q 6.984375 17.96875 6.984375 36.375 
Q 6.984375 53.65625 15.1875 63.9375 
Q 23.390625 74.21875 37.203125 74.21875 
Q 40.921875 74.21875 44.703125 73.484375 
Q 48.484375 72.75 52.59375 71.296875 
z
" id="DejaVuSans-54"/>
       </defs>
       <use xlink:href="#DejaVuSans-50"/>
       <use x="63.623047" xlink:href="#DejaVuSans-48"/>
       <use x="127.246094" xlink:href="#DejaVuSans-50"/>
       <use x="190.869141" xlink:href="#DejaVuSans-51"/>
       <use x="254.492188" xlink:href="#DejaVuSans-45"/>
       <use x="290.576172" xlink:href="#DejaVuSans-48"/>
       <use x="354.199219" xlink:href="#DejaVuSans-54"/>
      </g>
     </g>
    </g>
    <g id="xtick_7">
     <g id="line2d_13">
      <path clip-path="url(#p86089f5bf2)" d="M 392.43956 172.8 
L 392.43956 25.92 
" style="fill:none;stroke:#808080;stroke-dasharray:6.4,1.6,1,1.6;stroke-dashoffset:0;stroke-opacity:0.3;"/>
     </g>
     <g id="line2d_14">
      <g>
       <use style="stroke:#000000;stroke-width:0.8;" x="392.43956" xlink:href="#m19f78de740" y="172.8"/>
      </g>
     </g>
     <g id="text_7">
      <!-- 2023-07 -->
      <g transform="translate(371.548154 187.398438)scale(0.1 -0.1)">
       <defs>
        <path d="M 8.203125 72.90625 
L 55.078125 72.90625 
L 55.078125 68.703125 
L 28.609375 0 
L 18.3125 0 
L 43.21875 64.59375 
L 8.203125 64.59375 
z
" id="DejaVuSans-55"/>
       </defs>
       <use xlink:href="#DejaVuSans-50"/>
       <use x="63.623047" xlink:href="#DejaVuSans-48"/>
       <use x="127.246094" xlink:href="#DejaVuSans-50"/>
       <use x="190.869141" xlink:href="#DejaVuSans-51"/>
       <use x="254.492188" xlink:href="#DejaVuSans-45"/>
       <use x="290.576172" xlink:href="#DejaVuSans-48"/>
       <use x="354.199219" xlink:href="#DejaVuSans-55"/>
      </g>
     </g>
    </g>
    <g id="xtick_8">
     <g id="line2d_15">
      <path clip-path="url(#p86089f5bf2)" d="M 442.720879 172.8 
L 442.720879 25.92 
" style="fill:none;stroke:#808080;stroke-dasharray:6.4,1.6,1,1.6;stroke-dashoffset:0;stroke-opacity:0.3;"/>
     </g>
     <g id="line2d_16">
      <g>
       <use style="stroke:#000000;stroke-width:0.8;" x="442.720879" xlink:href="#m19f78de740" y="172.8"/>
      </g>
     </g>
     <g id="text_8">
      <!-- 2023-08 -->
      <g transform="translate(421.829473 187.398438)scale(0.1 -0.1)">
       <defs>
        <path d="M 31.78125 34.625 
Q 24.75 34.625 20.71875 30.859375 
Q 16.703125 27.09375 16.703125 20.515625 
Q 16.703125 13.921875 20.71875 10.15625 
Q 24.75 6.390625 31.78125 6.390625 
Q 38.8125 6.390625 42.859375 10.171875 
Q 46.921875 13.96875 46.921875 20.515625 
Q 46.921875 27.09375 42.890625 30.859375 
Q 38.875 34.625 31.78125 34.625 
z
M 21.921875 38.8125 
Q 15.578125 40.375 12.03125 44.71875 
Q 8.5 49.078125 8.5 55.328125 
Q 8.5 64.0625 14.71875 69.140625 
Q 20.953125 74.21875 31.78125 74.21875 
Q 42.671875 74.21875 48.875 69.140625 
Q 55.078125 64.0625 55.078125 55.328125 
Q 55.078125 49.078125 51.53125 44.71875 
Q 48 40.375 41.703125 38.8125 
Q 48.828125 37.15625 52.796875 32.3125 
Q 56.78125 27.484375 56.78125 20.515625 
Q 56.78125 9.90625 50.3125 4.234375 
Q 43.84375 -1.421875 31.78125 -1.421875 
Q 19.734375 -1.421875 13.25 4.234375 
Q 6.78125 9.90625 6.78125 20.515625 
Q 6.78125 27.484375 10.78125 32.3125 
Q 14.796875 37.15625 21.921875 38.8125 
z
M 18.3125 54.390625 
Q 18.3125 48.734375 21.84375 45.5625 
Q 25.390625 42.390625 31.78125 42.390625 
Q 38.140625 42.390625 41.71875 45.5625 
Q 45.3125 48.734375 45.3125 54.390625 
Q 45.3125 60.0625 41.71875 63.234375 
Q 38.140625 66.40625 31.78125 66.40625 
Q 25.390625 66.40625 21.84375 63.234375 
Q 18.3125 60.0625 18.3125 54.390625 
z
" id="DejaVuSans-56"/>
       </defs>
       <use xlink:href="#DejaVuSans-50"/>
       <use x="63.623047" xlink:href="#DejaVuSans-48"/>
       <use x="127.246094" xlink:href="#DejaVuSans-50"/>
       <use x="190.869141" xlink:href="#DejaVuSans-51"/>
       <use x="254.492188" xlink:href="#DejaVuSans-45"/>
       <use x="290.576172" xlink:href="#DejaVuSans-48"/>
       <use x="354.199219" xlink:href="#DejaVuSans-56"/>
      </g>
     </g>
    </g>
    <g id="xtick_9">
     <g id="line2d_17">
      <path clip-path="url(#p86089f5bf2)" d="M 493.002198 172.8 
L 493.002198 25.92 
" style="fill:none;stroke:#808080;stroke-dasharray:6.4,1.6,1,1.6;stroke-dashoffset:0;stroke-opacity:0.3;"/>
     </g>
     <g id="line2d_18">
      <g>
       <use style="stroke:#000000;stroke-width:0.8;" x="493.002198" xlink:href="#m19f78de740" y="172.8"/>
      </g>
     </g>
     <g id="text_9">
      <!-- 2023-09 -->
      <g transform="translate(472.110792 187.398438)scale(0.1 -0.1)">
       <defs>
        <path d="M 10.984375 1.515625 
L 10.984375 10.5 
Q 14.703125 8.734375 18.5 7.8125 
Q 22.3125 6.890625 25.984375 6.890625 
Q 35.75 6.890625 40.890625 13.453125 
Q 46.046875 20.015625 46.78125 33.40625 
Q 43.953125 29.203125 39.59375 26.953125 
Q 35.25 24.703125 29.984375 24.703125 
Q 19.046875 24.703125 12.671875 31.3125 
Q 6.296875 37.9375 6.296875 49.421875 
Q 6.296875 60.640625 12.9375 67.421875 
Q 19.578125 74.21875 30.609375 74.21875 
Q 43.265625 74.21875 49.921875 64.515625 
Q 56.59375 54.828125 56.59375 36.375 
Q 56.59375 19.140625 48.40625 8.859375 
Q 40.234375 -1.421875 26.421875 -1.421875 
Q 22.703125 -1.421875 18.890625 -0.6875 
Q 15.09375 0.046875 10.984375 1.515625 
z
M 30.609375 32.421875 
Q 37.25 32.421875 41.125 36.953125 
Q 45.015625 41.5 45.015625 49.421875 
Q 45.015625 57.28125 41.125 61.84375 
Q 37.25 66.40625 30.609375 66.40625 
Q 23.96875 66.40625 20.09375 61.84375 
Q 16.21875 57.28125 16.21875 49.421875 
Q 16.21875 41.5 20.09375 36.953125 
Q 23.96875 32.421875 30.609375 32.421875 
z
" id="DejaVuSans-57"/>
       </defs>
       <use xlink:href="#DejaVuSans-50"/>
       <use x="63.623047" xlink:href="#DejaVuSans-48"/>
       <use x="127.246094" xlink:href="#DejaVuSans-50"/>
       <use x="190.869141" xlink:href="#DejaVuSans-51"/>
       <use x="254.492188" xlink:href="#DejaVuSans-45"/>
       <use x="290.576172" xlink:href="#DejaVuSans-48"/>
       <use x="354.199219" xlink:href="#DejaVuSans-57"/>
      </g>
     </g>
    </g>
    <g id="xtick_10">
     <g id="line2d_19">
      <path clip-path="url(#p86089f5bf2)" d="M 541.661538 172.8 
L 541.661538 25.92 
" style="fill:none;stroke:#808080;stroke-dasharray:6.4,1.6,1,1.6;stroke-dashoffset:0;stroke-opacity:0.3;"/>
     </g>
     <g id="line2d_20">
      <g>
       <use style="stroke:#000000;stroke-width:0.8;" x="541.661538" xlink:href="#m19f78de740" y="172.8"/>
      </g>
     </g>
     <g id="text_10">
      <!-- 2023-10 -->
      <g transform="translate(520.770132 187.398438)scale(0.1 -0.1)">
       <use xlink:href="#DejaVuSans-50"/>
       <use x="63.623047" xlink:href="#DejaVuSans-48"/>
       <use x="127.246094" xlink:href="#DejaVuSans-50"/>
       <use x="190.869141" xlink:href="#DejaVuSans-51"/>
       <use x="254.492188" xlink:href="#DejaVuSans-45"/>
       <use x="290.576172" xlink:href="#DejaVuSans-49"/>
       <use x="354.199219" xlink:href="#DejaVuSans-48"/>
      </g>
     </g>
    </g>
    <g id="xtick_11">
     <g id="line2d_21">
      <path clip-path="url(#p86089f5bf2)" d="M 591.942857 172.8 
L 591.942857 25.92 
" style="fill:none;stroke:#808080;stroke-dasharray:6.4,1.6,1,1.6;stroke-dashoffset:0;stroke-opacity:0.3;"/>
     </g>
     <g id="line2d_22">
      <g>
       <use style="stroke:#000000;stroke-width:0.8;" x="591.942857" xlink:href="#m19f78de740" y="172.8"/>
      </g>
     </g>
     <g id="text_11">
      <!-- 2023-11 -->
      <g transform="translate(571.051451 187.398438)scale(0.1 -0.1)">
       <use xlink:href="#DejaVuSans-50"/>
       <use x="63.623047" xlink:href="#DejaVuSans-48"/>
       <use x="127.246094" xlink:href="#DejaVuSans-50"/>
       <use x="190.869141" xlink:href="#DejaVuSans-51"/>
       <use x="254.492188" xlink:href="#DejaVuSans-45"/>
       <use x="290.576172" xlink:href="#DejaVuSans-49"/>
       <use x="354.199219" xlink:href="#DejaVuSans-49"/>
      </g>
     </g>
    </g>
    <g id="xtick_12">
     <g id="line2d_23">
      <path clip-path="url(#p86089f5bf2)" d="M 640.602198 172.8 
L 640.602198 25.92 
" style="fill:none;stroke:#808080;stroke-dasharray:6.4,1.6,1,1.6;stroke-dashoffset:0;stroke-opacity:0.3;"/>
     </g>
     <g id="line2d_24">
      <g>
       <use style="stroke:#000000;stroke-width:0.8;" x="640.602198" xlink:href="#m19f78de740" y="172.8"/>
      </g>
     </g>
     <g id="text_12">
      <!-- 2023-12 -->
      <g transform="translate(619.710792 187.398438)scale(0.1 -0.1)">
       <use xlink:href="#DejaVuSans-50"/>
       <use x="63.623047" xlink:href="#DejaVuSans-48"/>
       <use x="127.246094" xlink:href="#DejaVuSans-50"/>
       <use x="190.869141" xlink:href="#DejaVuSans-51"/>
       <use x="254.492188" xlink:href="#DejaVuSans-45"/>
       <use x="290.576172" xlink:href="#DejaVuSans-49"/>
       <use x="354.199219" xlink:href="#DejaVuSans-50"/>
      </g>
     </g>
    </g>
    <g id="text_13">
     <!-- Datum -->
     <g transform="translate(343.086719 201.076562)scale(0.1 -0.1)">
      <defs>
       <path d="M 19.671875 64.796875 
L 19.671875 8.109375 
L 31.59375 8.109375 
Q 46.6875 8.109375 53.6875 14.9375 
Q 60.6875 21.78125 60.6875 36.53125 
Q 60.6875 51.171875 53.6875 57.984375 
Q 46.6875 64.796875 31.59375 64.796875 
z
M 9.8125 72.90625 
L 30.078125 72.90625 
Q 51.265625 72.90625 61.171875 64.09375 
Q 71.09375 55.28125 71.09375 36.53125 
Q 71.09375 17.671875 61.125 8.828125 
Q 51.171875 0 30.078125 0 
L 9.8125 0 
z
" id="DejaVuSans-68"/>
       <path d="M 34.28125 27.484375 
Q 23.390625 27.484375 19.1875 25 
Q 14.984375 22.515625 14.984375 16.5 
Q 14.984375 11.71875 18.140625 8.90625 
Q 21.296875 6.109375 26.703125 6.109375 
Q 34.1875 6.109375 38.703125 11.40625 
Q 43.21875 16.703125 43.21875 25.484375 
L 43.21875 27.484375 
z
M 52.203125 31.203125 
L 52.203125 0 
L 43.21875 0 
L 43.21875 8.296875 
Q 40.140625 3.328125 35.546875 0.953125 
Q 30.953125 -1.421875 24.3125 -1.421875 
Q 15.921875 -1.421875 10.953125 3.296875 
Q 6 8.015625 6 15.921875 
Q 6 25.140625 12.171875 29.828125 
Q 18.359375 34.515625 30.609375 34.515625 
L 43.21875 34.515625 
L 43.21875 35.40625 
Q 43.21875 41.609375 39.140625 45 
Q 35.0625 48.390625 27.6875 48.390625 
Q 23 48.390625 18.546875 47.265625 
Q 14.109375 46.140625 10.015625 43.890625 
L 10.015625 52.203125 
Q 14.9375 54.109375 19.578125 55.046875 
Q 24.21875 56 28.609375 56 
Q 40.484375 56 46.34375 49.84375 
Q 52.203125 43.703125 52.203125 31.203125 
z
" id="DejaVuSans-97"/>
       <path d="M 18.3125 70.21875 
L 18.3125 54.6875 
L 36.8125 54.6875 
L 36.8125 47.703125 
L 18.3125 47.703125 
L 18.3125 18.015625 
Q 18.3125 11.328125 20.140625 9.421875 
Q 21.96875 7.515625 27.59375 7.515625 
L 36.8125 7.515625 
L 36.8125 0 
L 27.59375 0 
Q 17.1875 0 13.234375 3.875 
Q 9.28125 7.765625 9.28125 18.015625 
L 9.28125 47.703125 
L 2.6875 47.703125 
L 2.6875 54.6875 
L 9.28125 54.6875 
L 9.28125 70.21875 
z
" id="DejaVuSans-116"/>
       <path d="M 8.5 21.578125 
L 8.5 54.6875 
L 17.484375 54.6875 
L 17.484375 21.921875 
Q 17.484375 14.15625 20.5 10.265625 
Q 23.53125 6.390625 29.59375 6.390625 
Q 36.859375 6.390625 41.078125 11.03125 
Q 45.3125 15.671875 45.3125 23.6875 
L 45.3125 54.6875 
L 54.296875 54.6875 
L 54.296875 0 
L 45.3125 0 
L 45.3125 8.40625 
Q 42.046875 3.421875 37.71875 1 
Q 33.40625 -1.421875 27.6875 -1.421875 
Q 18.265625 -1.421875 13.375 4.4375 
Q 8.5 10.296875 8.5 21.578125 
z
M 31.109375 56 
z
" id="DejaVuSans-117"/>
       <path d="M 52 44.1875 
Q 55.375 50.25 60.0625 53.125 
Q 64.75 56 71.09375 56 
Q 79.640625 56 84.28125 50.015625 
Q 88.921875 44.046875 88.921875 33.015625 
L 88.921875 0 
L 79.890625 0 
L 79.890625 32.71875 
Q 79.890625 40.578125 77.09375 44.375 
Q 74.3125 48.1875 68.609375 48.1875 
Q 61.625 48.1875 57.5625 43.546875 
Q 53.515625 38.921875 53.515625 30.90625 
L 53.515625 0 
L 44.484375 0 
L 44.484375 32.71875 
Q 44.484375 40.625 41.703125 44.40625 
Q 38.921875 48.1875 33.109375 48.1875 
Q 26.21875 48.1875 22.15625 43.53125 
Q 18.109375 38.875 18.109375 30.90625 
L 18.109375 0 
L 9.078125 0 
L 9.078125 54.6875 
L 18.109375 54.6875 
L 18.109375 46.1875 
Q 21.1875 51.21875 25.484375 53.609375 
Q 29.78125 56 35.6875 56 
Q 41.65625 56 45.828125 52.96875 
Q 50 49.953125 52 44.1875 
z
" id="DejaVuSans-109"/>
      </defs>
      <use xlink:href="#DejaVuSans-68"/>
      <use x="77.001953" xlink:href="#DejaVuSans-97"/>
      <use x="138.28125" xlink:href="#DejaVuSans-116"/>
      <use x="177.490234" xlink:href="#DejaVuSans-117"/>
      <use x="240.869141" xlink:href="#DejaVuSans-109"/>
     </g>
    </g>
   </g>
   <g id="matplotlib.axis_2">
    <g id="ytick_1">
     <g id="line2d_25">
      <path clip-path="url(#p86089f5bf2)" d="M 64.8 172.8 
L 655.2 172.8 
" style="fill:none;stroke:#808080;stroke-dasharray:6.4,1.6,1,1.6;stroke-dashoffset:0;stroke-opacity:0.3;"/>
     </g>
     <g id="line2d_26">
      <defs>
       <path d="M 0 0 
L -3.5 0 
" id="mbdf0f0501f" style="stroke:#000000;stroke-width:0.8;"/>
      </defs>
      <g>
       <use style="stroke:#000000;stroke-width:0.8;" x="64.8" xlink:href="#mbdf0f0501f" y="172.8"/>
      </g>
     </g>
     <g id="text_14">
      <!-- 0 -->
      <g transform="translate(51.4375 176.599219)scale(0.1 -0.1)">
       <use xlink:href="#DejaVuSans-48"/>
      </g>
     </g>
    </g>
    <g id="ytick_2">
     <g id="line2d_27">
      <path clip-path="url(#p86089f5bf2)" d="M 64.8 148.32 
L 655.2 148.32 
" style="fill:none;stroke:#808080;stroke-dasharray:6.4,1.6,1,1.6;stroke-dashoffset:0;stroke-opacity:0.3;"/>
     </g>
     <g id="line2d_28">
      <g>
       <use style="stroke:#000000;stroke-width:0.8;" x="64.8" xlink:href="#mbdf0f0501f" y="148.32"/>
      </g>
     </g>
     <g id="text_15">
      <!-- 50T -->
      <g transform="translate(38.967187 152.119219)scale(0.1 -0.1)">
       <defs>
        <path d="M -0.296875 72.90625 
L 61.375 72.90625 
L 61.375 64.59375 
L 35.5 64.59375 
L 35.5 0 
L 25.59375 0 
L 25.59375 64.59375 
L -0.296875 64.59375 
z
" id="DejaVuSans-84"/>
       </defs>
       <use xlink:href="#DejaVuSans-53"/>
       <use x="63.623047" xlink:href="#DejaVuSans-48"/>
       <use x="127.246094" xlink:href="#DejaVuSans-84"/>
      </g>
     </g>
    </g>
    <g id="ytick_3">
     <g id="line2d_29">
      <path clip-path="url(#p86089f5bf2)" d="M 64.8 123.84 
L 655.2 123.84 
" style="fill:none;stroke:#808080;stroke-dasharray:6.4,1.6,1,1.6;stroke-dashoffset:0;stroke-opacity:0.3;"/>
     </g>
     <g id="line2d_30">
      <g>
       <use style="stroke:#000000;stroke-width:0.8;" x="64.8" xlink:href="#mbdf0f0501f" y="123.84"/>
      </g>
     </g>
     <g id="text_16">
      <!-- 100T -->
      <g transform="translate(32.604687 127.639219)scale(0.1 -0.1)">
       <use xlink:href="#DejaVuSans-49"/>
       <use x="63.623047" xlink:href="#DejaVuSans-48"/>
       <use x="127.246094" xlink:href="#DejaVuSans-48"/>
       <use x="190.869141" xlink:href="#DejaVuSans-84"/>
      </g>
     </g>
    </g>
    <g id="ytick_4">
     <g id="line2d_31">
      <path clip-path="url(#p86089f5bf2)" d="M 64.8 99.36 
L 655.2 99.36 
" style="fill:none;stroke:#808080;stroke-dasharray:6.4,1.6,1,1.6;stroke-dashoffset:0;stroke-opacity:0.3;"/>
     </g>
     <g id="line2d_32">
      <g>
       <use style="stroke:#000000;stroke-width:0.8;" x="64.8" xlink:href="#mbdf0f0501f" y="99.36"/>
      </g>
     </g>
     <g id="text_17">
      <!-- 150T -->
      <g transform="translate(32.604687 103.159219)scale(0.1 -0.1)">
       <use xlink:href="#DejaVuSans-49"/>
       <use x="63.623047" xlink:href="#DejaVuSans-53"/>
       <use x="127.246094" xlink:href="#DejaVuSans-48"/>
       <use x="190.869141" xlink:href="#DejaVuSans-84"/>
      </g>
     </g>
    </g>
    <g id="ytick_5">
     <g id="line2d_33">
      <path clip-path="url(#p86089f5bf2)" d="M 64.8 74.88 
L 655.2 74.88 
" style="fill:none;stroke:#808080;stroke-dasharray:6.4,1.6,1,1.6;stroke-dashoffset:0;stroke-opacity:0.3;"/>
     </g>
     <g id="line2d_34">
      <g>
       <use style="stroke:#000000;stroke-width:0.8;" x="64.8" xlink:href="#mbdf0f0501f" y="74.88"/>
      </g>
     </g>
     <g id="text_18">
      <!-- 200T -->
      <g transform="translate(32.604687 78.679219)scale(0.1 -0.1)">
       <use xlink:href="#DejaVuSans-50"/>
       <use x="63.623047" xlink:href="#DejaVuSans-48"/>
       <use x="127.246094" xlink:href="#DejaVuSans-48"/>
       <use x="190.869141" xlink:href="#DejaVuSans-84"/>
      </g>
     </g>
    </g>
    <g id="ytick_6">
     <g id="line2d_35">
      <path clip-path="url(#p86089f5bf2)" d="M 64.8 50.4 
L 655.2 50.4 
" style="fill:none;stroke:#808080;stroke-dasharray:6.4,1.6,1,1.6;stroke-dashoffset:0;stroke-opacity:0.3;"/>
     </g>
     <g id="line2d_36">
      <g>
       <use style="stroke:#000000;stroke-width:0.8;" x="64.8" xlink:href="#mbdf0f0501f" y="50.4"/>
      </g>
     </g>
     <g id="text_19">
      <!-- 250T -->
      <g transform="translate(32.604687 54.199219)scale(0.1 -0.1)">
       <use xlink:href="#DejaVuSans-50"/>
       <use x="63.623047" xlink:href="#DejaVuSans-53"/>
       <use x="127.246094" xlink:href="#DejaVuSans-48"/>
       <use x="190.869141" xlink:href="#DejaVuSans-84"/>
      </g>
     </g>
    </g>
    <g id="ytick_7">
     <g id="line2d_37">
      <path clip-path="url(#p86089f5bf2)" d="M 64.8 25.92 
L 655.2 25.92 
" style="fill:none;stroke:#808080;stroke-dasharray:6.4,1.6,1,1.6;stroke-dashoffset:0;stroke-opacity:0.3;"/>
     </g>
     <g id="line2d_38">
      <g>
       <use style="stroke:#000000;stroke-width:0.8;" x="64.8" xlink:href="#mbdf0f0501f" y="25.92"/>
      </g>
     </g>
     <g id="text_20">
      <!-- 300T -->
      <g transform="translate(32.604687 29.719219)scale(0.1 -0.1)">
       <use xlink:href="#DejaVuSans-51"/>
       <use x="63.623047" xlink:href="#DejaVuSans-48"/>
       <use x="127.246094" xlink:href="#DejaVuSans-48"/>
       <use x="190.869141" xlink:href="#DejaVuSans-84"/>
      </g>
     </g>
    </g>
    <g id="text_21">
     <!-- Deeltjes per 100k inwoners -->
     <g transform="translate(26.525 167.906875)rotate(-90)scale(0.1 -0.1)">
      <defs>
       <path d="M 56.203125 29.59375 
L 56.203125 25.203125 
L 14.890625 25.203125 
Q 15.484375 15.921875 20.484375 11.0625 
Q 25.484375 6.203125 34.421875 6.203125 
Q 39.59375 6.203125 44.453125 7.46875 
Q 49.3125 8.734375 54.109375 11.28125 
L 54.109375 2.78125 
Q 49.265625 0.734375 44.1875 -0.34375 
Q 39.109375 -1.421875 33.890625 -1.421875 
Q 20.796875 -1.421875 13.15625 6.1875 
Q 5.515625 13.8125 5.515625 26.8125 
Q 5.515625 40.234375 12.765625 48.109375 
Q 20.015625 56 32.328125 56 
Q 43.359375 56 49.78125 48.890625 
Q 56.203125 41.796875 56.203125 29.59375 
z
M 47.21875 32.234375 
Q 47.125 39.59375 43.09375 43.984375 
Q 39.0625 48.390625 32.421875 48.390625 
Q 24.90625 48.390625 20.390625 44.140625 
Q 15.875 39.890625 15.1875 32.171875 
z
" id="DejaVuSans-101"/>
       <path d="M 9.421875 75.984375 
L 18.40625 75.984375 
L 18.40625 0 
L 9.421875 0 
z
" id="DejaVuSans-108"/>
       <path d="M 9.421875 54.6875 
L 18.40625 54.6875 
L 18.40625 -0.984375 
Q 18.40625 -11.421875 14.421875 -16.109375 
Q 10.453125 -20.796875 1.609375 -20.796875 
L -1.8125 -20.796875 
L -1.8125 -13.1875 
L 0.59375 -13.1875 
Q 5.71875 -13.1875 7.5625 -10.8125 
Q 9.421875 -8.453125 9.421875 -0.984375 
z
M 9.421875 75.984375 
L 18.40625 75.984375 
L 18.40625 64.59375 
L 9.421875 64.59375 
z
" id="DejaVuSans-106"/>
       <path d="M 44.28125 53.078125 
L 44.28125 44.578125 
Q 40.484375 46.53125 36.375 47.5 
Q 32.28125 48.484375 27.875 48.484375 
Q 21.1875 48.484375 17.84375 46.4375 
Q 14.5 44.390625 14.5 40.28125 
Q 14.5 37.15625 16.890625 35.375 
Q 19.28125 33.59375 26.515625 31.984375 
L 29.59375 31.296875 
Q 39.15625 29.25 43.1875 25.515625 
Q 47.21875 21.78125 47.21875 15.09375 
Q 47.21875 7.46875 41.1875 3.015625 
Q 35.15625 -1.421875 24.609375 -1.421875 
Q 20.21875 -1.421875 15.453125 -0.5625 
Q 10.6875 0.296875 5.421875 2 
L 5.421875 11.28125 
Q 10.40625 8.6875 15.234375 7.390625 
Q 20.0625 6.109375 24.8125 6.109375 
Q 31.15625 6.109375 34.5625 8.28125 
Q 37.984375 10.453125 37.984375 14.40625 
Q 37.984375 18.0625 35.515625 20.015625 
Q 33.0625 21.96875 24.703125 23.78125 
L 21.578125 24.515625 
Q 13.234375 26.265625 9.515625 29.90625 
Q 5.8125 33.546875 5.8125 39.890625 
Q 5.8125 47.609375 11.28125 51.796875 
Q 16.75 56 26.8125 56 
Q 31.78125 56 36.171875 55.265625 
Q 40.578125 54.546875 44.28125 53.078125 
z
" id="DejaVuSans-115"/>
       <path id="DejaVuSans-32"/>
       <path d="M 18.109375 8.203125 
L 18.109375 -20.796875 
L 9.078125 -20.796875 
L 9.078125 54.6875 
L 18.109375 54.6875 
L 18.109375 46.390625 
Q 20.953125 51.265625 25.265625 53.625 
Q 29.59375 56 35.59375 56 
Q 45.5625 56 51.78125 48.09375 
Q 58.015625 40.1875 58.015625 27.296875 
Q 58.015625 14.40625 51.78125 6.484375 
Q 45.5625 -1.421875 35.59375 -1.421875 
Q 29.59375 -1.421875 25.265625 0.953125 
Q 20.953125 3.328125 18.109375 8.203125 
z
M 48.6875 27.296875 
Q 48.6875 37.203125 44.609375 42.84375 
Q 40.53125 48.484375 33.40625 48.484375 
Q 26.265625 48.484375 22.1875 42.84375 
Q 18.109375 37.203125 18.109375 27.296875 
Q 18.109375 17.390625 22.1875 11.75 
Q 26.265625 6.109375 33.40625 6.109375 
Q 40.53125 6.109375 44.609375 11.75 
Q 48.6875 17.390625 48.6875 27.296875 
z
" id="DejaVuSans-112"/>
       <path d="M 41.109375 46.296875 
Q 39.59375 47.171875 37.8125 47.578125 
Q 36.03125 48 33.890625 48 
Q 26.265625 48 22.1875 43.046875 
Q 18.109375 38.09375 18.109375 28.8125 
L 18.109375 0 
L 9.078125 0 
L 9.078125 54.6875 
L 18.109375 54.6875 
L 18.109375 46.1875 
Q 20.953125 51.171875 25.484375 53.578125 
Q 30.03125 56 36.53125 56 
Q 37.453125 56 38.578125 55.875 
Q 39.703125 55.765625 41.0625 55.515625 
z
" id="DejaVuSans-114"/>
       <path d="M 9.078125 75.984375 
L 18.109375 75.984375 
L 18.109375 31.109375 
L 44.921875 54.6875 
L 56.390625 54.6875 
L 27.390625 29.109375 
L 57.625 0 
L 45.90625 0 
L 18.109375 26.703125 
L 18.109375 0 
L 9.078125 0 
z
" id="DejaVuSans-107"/>
       <path d="M 9.421875 54.6875 
L 18.40625 54.6875 
L 18.40625 0 
L 9.421875 0 
z
M 9.421875 75.984375 
L 18.40625 75.984375 
L 18.40625 64.59375 
L 9.421875 64.59375 
z
" id="DejaVuSans-105"/>
       <path d="M 54.890625 33.015625 
L 54.890625 0 
L 45.90625 0 
L 45.90625 32.71875 
Q 45.90625 40.484375 42.875 44.328125 
Q 39.84375 48.1875 33.796875 48.1875 
Q 26.515625 48.1875 22.3125 43.546875 
Q 18.109375 38.921875 18.109375 30.90625 
L 18.109375 0 
L 9.078125 0 
L 9.078125 54.6875 
L 18.109375 54.6875 
L 18.109375 46.1875 
Q 21.34375 51.125 25.703125 53.5625 
Q 30.078125 56 35.796875 56 
Q 45.21875 56 50.046875 50.171875 
Q 54.890625 44.34375 54.890625 33.015625 
z
" id="DejaVuSans-110"/>
       <path d="M 4.203125 54.6875 
L 13.1875 54.6875 
L 24.421875 12.015625 
L 35.59375 54.6875 
L 46.1875 54.6875 
L 57.421875 12.015625 
L 68.609375 54.6875 
L 77.59375 54.6875 
L 63.28125 0 
L 52.6875 0 
L 40.921875 44.828125 
L 29.109375 0 
L 18.5 0 
z
" id="DejaVuSans-119"/>
       <path d="M 30.609375 48.390625 
Q 23.390625 48.390625 19.1875 42.75 
Q 14.984375 37.109375 14.984375 27.296875 
Q 14.984375 17.484375 19.15625 11.84375 
Q 23.34375 6.203125 30.609375 6.203125 
Q 37.796875 6.203125 41.984375 11.859375 
Q 46.1875 17.53125 46.1875 27.296875 
Q 46.1875 37.015625 41.984375 42.703125 
Q 37.796875 48.390625 30.609375 48.390625 
z
M 30.609375 56 
Q 42.328125 56 49.015625 48.375 
Q 55.71875 40.765625 55.71875 27.296875 
Q 55.71875 13.875 49.015625 6.21875 
Q 42.328125 -1.421875 30.609375 -1.421875 
Q 18.84375 -1.421875 12.171875 6.21875 
Q 5.515625 13.875 5.515625 27.296875 
Q 5.515625 40.765625 12.171875 48.375 
Q 18.84375 56 30.609375 56 
z
" id="DejaVuSans-111"/>
      </defs>
      <use xlink:href="#DejaVuSans-68"/>
      <use x="77.001953" xlink:href="#DejaVuSans-101"/>
      <use x="138.525391" xlink:href="#DejaVuSans-101"/>
      <use x="200.048828" xlink:href="#DejaVuSans-108"/>
      <use x="227.832031" xlink:href="#DejaVuSans-116"/>
      <use x="267.041016" xlink:href="#DejaVuSans-106"/>
      <use x="294.824219" xlink:href="#DejaVuSans-101"/>
      <use x="356.347656" xlink:href="#DejaVuSans-115"/>
      <use x="408.447266" xlink:href="#DejaVuSans-32"/>
      <use x="440.234375" xlink:href="#DejaVuSans-112"/>
      <use x="503.710938" xlink:href="#DejaVuSans-101"/>
      <use x="565.234375" xlink:href="#DejaVuSans-114"/>
      <use x="606.347656" xlink:href="#DejaVuSans-32"/>
      <use x="638.134766" xlink:href="#DejaVuSans-49"/>
      <use x="701.757812" xlink:href="#DejaVuSans-48"/>
      <use x="765.380859" xlink:href="#DejaVuSans-48"/>
      <use x="829.003906" xlink:href="#DejaVuSans-107"/>
      <use x="886.914062" xlink:href="#DejaVuSans-32"/>
      <use x="918.701172" xlink:href="#DejaVuSans-105"/>
      <use x="946.484375" xlink:href="#DejaVuSans-110"/>
      <use x="1009.863281" xlink:href="#DejaVuSans-119"/>
      <use x="1091.650391" xlink:href="#DejaVuSans-111"/>
      <use x="1152.832031" xlink:href="#DejaVuSans-110"/>
      <use x="1216.210938" xlink:href="#DejaVuSans-101"/>
      <use x="1277.734375" xlink:href="#DejaVuSans-114"/>
      <use x="1318.847656" xlink:href="#DejaVuSans-115"/>
     </g>
    </g>
   </g>
   <g id="line2d_39">
    <path clip-path="url(#p86089f5bf2)" d="M 64.8 108.334856 
L 74.531868 83.292485 
L 76.153846 79.587238 
L 77.775824 76.277511 
L 79.397802 73.544024 
L 81.01978 71.565103 
L 82.641758 70.05944 
L 84.263736 69.310789 
L 85.885714 69.261899 
L 87.507692 69.69601 
L 89.12967 71.181188 
L 90.751648 73.192133 
L 92.373626 75.569702 
L 93.995604 78.867258 
L 95.617582 82.522478 
L 97.23956 86.691685 
L 108.593407 119.575482 
L 111.837363 127.510196 
L 113.459341 131.203785 
L 115.081319 134.441397 
L 116.703297 137.406624 
L 118.325275 139.995764 
L 119.947253 142.05231 
L 123.191209 145.555092 
L 124.813187 146.963243 
L 126.435165 148.128302 
L 128.057143 149.125122 
L 129.679121 149.818981 
L 131.301099 150.219184 
L 132.923077 150.42227 
L 134.545055 150.380038 
L 136.167033 150.069313 
L 139.410989 148.978051 
L 141.032967 148.272094 
L 144.276923 146.465143 
L 147.520879 144.276148 
L 150.764835 142.035725 
L 155.630769 138.996624 
L 157.252747 137.910774 
L 158.874725 136.673622 
L 162.118681 133.884563 
L 165.362637 130.356303 
L 166.984615 128.188837 
L 168.606593 125.830603 
L 170.228571 123.125839 
L 176.716484 110.727357 
L 181.582418 101.065048 
L 183.204396 97.463695 
L 186.448352 91.085705 
L 188.07033 88.38736 
L 189.692308 86.017602 
L 191.314286 84.251918 
L 192.936264 82.870906 
L 194.558242 81.647572 
L 196.18022 80.647633 
L 197.802198 80.053376 
L 201.046154 79.701965 
L 202.668132 80.025884 
L 205.912088 82.007907 
L 212.4 86.341673 
L 217.265934 89.423037 
L 220.50989 90.999505 
L 223.753846 93.254931 
L 225.375824 94.205736 
L 226.997802 95.352316 
L 228.61978 96.71489 
L 230.241758 98.368298 
L 236.72967 106.328935 
L 243.217582 114.378949 
L 248.083516 120.262746 
L 249.705495 121.892347 
L 254.571429 125.756414 
L 257.815385 128.100828 
L 261.059341 130.352488 
L 262.681319 131.618199 
L 264.303297 133.062921 
L 274.035165 140.040986 
L 277.279121 141.741444 
L 283.767033 144.808334 
L 287.010989 145.82165 
L 291.876923 147.120456 
L 295.120879 148.129601 
L 298.364835 149.606546 
L 301.608791 151.215062 
L 308.096703 154.911249 
L 314.584615 158.862449 
L 316.206593 159.805596 
L 319.450549 161.346283 
L 321.072527 162.047523 
L 325.938462 163.680327 
L 327.56044 164.166546 
L 334.048352 165.484759 
L 348.646154 167.338459 
L 360 168.36496 
L 368.10989 168.87406 
L 374.597802 169.08939 
L 381.085714 169.087923 
L 387.573626 168.9471 
L 397.305495 168.35492 
L 407.037363 167.489216 
L 418.391209 166.217362 
L 423.257143 165.488546 
L 428.123077 164.376288 
L 431.367033 163.508331 
L 447.586813 158.698452 
L 450.830769 157.955469 
L 454.074725 157.50633 
L 460.562637 156.968099 
L 462.184615 157.042734 
L 465.428571 156.879935 
L 470.294505 156.421789 
L 473.538462 155.805091 
L 476.782418 154.893912 
L 480.026374 153.815118 
L 484.892308 152.075701 
L 491.38022 150.751033 
L 494.624176 150.330107 
L 499.49011 150.124957 
L 502.734066 150.247989 
L 504.356044 150.399082 
L 510.843956 150.185546 
L 522.197802 149.530954 
L 523.81978 149.312285 
L 527.063736 148.746701 
L 531.92967 147.692499 
L 536.795604 146.410234 
L 541.661538 144.843598 
L 544.905495 144.102855 
L 548.149451 143.682844 
L 553.015385 143.391492 
L 559.503297 143.27067 
L 562.747253 143.467802 
L 564.369231 143.363709 
L 565.991209 143.123632 
L 567.613187 142.658618 
L 570.857143 141.368636 
L 574.101099 139.934756 
L 577.345055 138.169566 
L 580.589011 135.9208 
L 583.832967 133.32753 
L 588.698901 129.198827 
L 591.942857 126.732959 
L 596.808791 122.859638 
L 603.296703 118.115802 
L 606.540659 116.134016 
L 609.784615 114.200104 
L 617.894505 108.481382 
L 627.626374 101.123997 
L 627.626374 101.123997 
" style="fill:none;stroke:#008000;stroke-linecap:square;stroke-width:1.5;"/>
   </g>
   <g id="line2d_40">
    <path clip-path="url(#p86089f5bf2)" d="M 663.30989 172.8 
L 663.30989 25.92 
" style="fill:none;stroke:#ff0000;stroke-linecap:square;stroke-width:0.5;"/>
   </g>
   <g id="patch_3">
    <path d="M 64.8 172.8 
L 64.8 25.92 
" style="fill:none;stroke:#000000;stroke-linecap:square;stroke-linejoin:miter;stroke-width:0.8;"/>
   </g>
   <g id="patch_4">
    <path d="M 655.2 172.8 
L 655.2 25.92 
" style="fill:none;stroke:#000000;stroke-linecap:square;stroke-linejoin:miter;stroke-width:0.8;"/>
   </g>
   <g id="patch_5">
    <path d="M 64.8 172.8 
L 655.2 172.8 
" style="fill:none;stroke:#000000;stroke-linecap:square;stroke-linejoin:miter;stroke-width:0.8;"/>
   </g>
   <g id="patch_6">
    <path d="M 64.8 25.92 
L 655.2 25.92 
" style="fill:none;stroke:#000000;stroke-linecap:square;stroke-linejoin:miter;stroke-width:0.8;"/>
   </g>
   <g id="text_22">
    <!-- Concentratie SARS-CoV-2 RNA in rioolwater per 100.000 inwoners -->
    <g transform="translate(161.8425 19.92)scale(0.12 -0.12)">
     <defs>
      <path d="M 64.40625 67.28125 
L 64.40625 56.890625 
Q 59.421875 61.53125 53.78125 63.8125 
Q 48.140625 66.109375 41.796875 66.109375 
Q 29.296875 66.109375 22.65625 58.46875 
Q 16.015625 50.828125 16.015625 36.375 
Q 16.015625 21.96875 22.65625 14.328125 
Q 29.296875 6.6875 41.796875 6.6875 
Q 48.140625 6.6875 53.78125 8.984375 
Q 59.421875 11.28125 64.40625 15.921875 
L 64.40625 5.609375 
Q 59.234375 2.09375 53.4375 0.328125 
Q 47.65625 -1.421875 41.21875 -1.421875 
Q 24.65625 -1.421875 15.125 8.703125 
Q 5.609375 18.84375 5.609375 36.375 
Q 5.609375 53.953125 15.125 64.078125 
Q 24.65625 74.21875 41.21875 74.21875 
Q 47.75 74.21875 53.53125 72.484375 
Q 59.328125 70.75 64.40625 67.28125 
z
" id="DejaVuSans-67"/>
      <path d="M 48.78125 52.59375 
L 48.78125 44.1875 
Q 44.96875 46.296875 41.140625 47.34375 
Q 37.3125 48.390625 33.40625 48.390625 
Q 24.65625 48.390625 19.8125 42.84375 
Q 14.984375 37.3125 14.984375 27.296875 
Q 14.984375 17.28125 19.8125 11.734375 
Q 24.65625 6.203125 33.40625 6.203125 
Q 37.3125 6.203125 41.140625 7.25 
Q 44.96875 8.296875 48.78125 10.40625 
L 48.78125 2.09375 
Q 45.015625 0.34375 40.984375 -0.53125 
Q 36.96875 -1.421875 32.421875 -1.421875 
Q 20.0625 -1.421875 12.78125 6.34375 
Q 5.515625 14.109375 5.515625 27.296875 
Q 5.515625 40.671875 12.859375 48.328125 
Q 20.21875 56 33.015625 56 
Q 37.15625 56 41.109375 55.140625 
Q 45.0625 54.296875 48.78125 52.59375 
z
" id="DejaVuSans-99"/>
      <path d="M 53.515625 70.515625 
L 53.515625 60.890625 
Q 47.90625 63.578125 42.921875 64.890625 
Q 37.9375 66.21875 33.296875 66.21875 
Q 25.25 66.21875 20.875 63.09375 
Q 16.5 59.96875 16.5 54.203125 
Q 16.5 49.359375 19.40625 46.890625 
Q 22.3125 44.4375 30.421875 42.921875 
L 36.375 41.703125 
Q 47.40625 39.59375 52.65625 34.296875 
Q 57.90625 29 57.90625 20.125 
Q 57.90625 9.515625 50.796875 4.046875 
Q 43.703125 -1.421875 29.984375 -1.421875 
Q 24.8125 -1.421875 18.96875 -0.25 
Q 13.140625 0.921875 6.890625 3.21875 
L 6.890625 13.375 
Q 12.890625 10.015625 18.65625 8.296875 
Q 24.421875 6.59375 29.984375 6.59375 
Q 38.421875 6.59375 43.015625 9.90625 
Q 47.609375 13.234375 47.609375 19.390625 
Q 47.609375 24.75 44.3125 27.78125 
Q 41.015625 30.8125 33.5 32.328125 
L 27.484375 33.5 
Q 16.453125 35.6875 11.515625 40.375 
Q 6.59375 45.0625 6.59375 53.421875 
Q 6.59375 63.09375 13.40625 68.65625 
Q 20.21875 74.21875 32.171875 74.21875 
Q 37.3125 74.21875 42.625 73.28125 
Q 47.953125 72.359375 53.515625 70.515625 
z
" id="DejaVuSans-83"/>
      <path d="M 34.1875 63.1875 
L 20.796875 26.90625 
L 47.609375 26.90625 
z
M 28.609375 72.90625 
L 39.796875 72.90625 
L 67.578125 0 
L 57.328125 0 
L 50.6875 18.703125 
L 17.828125 18.703125 
L 11.1875 0 
L 0.78125 0 
z
" id="DejaVuSans-65"/>
      <path d="M 44.390625 34.1875 
Q 47.5625 33.109375 50.5625 29.59375 
Q 53.5625 26.078125 56.59375 19.921875 
L 66.609375 0 
L 56 0 
L 46.6875 18.703125 
Q 43.0625 26.03125 39.671875 28.421875 
Q 36.28125 30.8125 30.421875 30.8125 
L 19.671875 30.8125 
L 19.671875 0 
L 9.8125 0 
L 9.8125 72.90625 
L 32.078125 72.90625 
Q 44.578125 72.90625 50.734375 67.671875 
Q 56.890625 62.453125 56.890625 51.90625 
Q 56.890625 45.015625 53.6875 40.46875 
Q 50.484375 35.9375 44.390625 34.1875 
z
M 19.671875 64.796875 
L 19.671875 38.921875 
L 32.078125 38.921875 
Q 39.203125 38.921875 42.84375 42.21875 
Q 46.484375 45.515625 46.484375 51.90625 
Q 46.484375 58.296875 42.84375 61.546875 
Q 39.203125 64.796875 32.078125 64.796875 
z
" id="DejaVuSans-82"/>
      <path d="M 28.609375 0 
L 0.78125 72.90625 
L 11.078125 72.90625 
L 34.1875 11.53125 
L 57.328125 72.90625 
L 67.578125 72.90625 
L 39.796875 0 
z
" id="DejaVuSans-86"/>
      <path d="M 9.8125 72.90625 
L 23.09375 72.90625 
L 55.421875 11.921875 
L 55.421875 72.90625 
L 64.984375 72.90625 
L 64.984375 0 
L 51.703125 0 
L 19.390625 60.984375 
L 19.390625 0 
L 9.8125 0 
z
" id="DejaVuSans-78"/>
      <path d="M 10.6875 12.40625 
L 21 12.40625 
L 21 0 
L 10.6875 0 
z
" id="DejaVuSans-46"/>
     </defs>
     <use xlink:href="#DejaVuSans-67"/>
     <use x="69.824219" xlink:href="#DejaVuSans-111"/>
     <use x="131.005859" xlink:href="#DejaVuSans-110"/>
     <use x="194.384766" xlink:href="#DejaVuSans-99"/>
     <use x="249.365234" xlink:href="#DejaVuSans-101"/>
     <use x="310.888672" xlink:href="#DejaVuSans-110"/>
     <use x="374.267578" xlink:href="#DejaVuSans-116"/>
     <use x="413.476562" xlink:href="#DejaVuSans-114"/>
     <use x="454.589844" xlink:href="#DejaVuSans-97"/>
     <use x="515.869141" xlink:href="#DejaVuSans-116"/>
     <use x="555.078125" xlink:href="#DejaVuSans-105"/>
     <use x="582.861328" xlink:href="#DejaVuSans-101"/>
     <use x="644.384766" xlink:href="#DejaVuSans-32"/>
     <use x="676.171875" xlink:href="#DejaVuSans-83"/>
     <use x="741.523438" xlink:href="#DejaVuSans-65"/>
     <use x="809.931641" xlink:href="#DejaVuSans-82"/>
     <use x="879.414062" xlink:href="#DejaVuSans-83"/>
     <use x="942.890625" xlink:href="#DejaVuSans-45"/>
     <use x="978.974609" xlink:href="#DejaVuSans-67"/>
     <use x="1048.798828" xlink:href="#DejaVuSans-111"/>
     <use x="1109.980469" xlink:href="#DejaVuSans-86"/>
     <use x="1172.513672" xlink:href="#DejaVuSans-45"/>
     <use x="1208.597656" xlink:href="#DejaVuSans-50"/>
     <use x="1272.220703" xlink:href="#DejaVuSans-32"/>
     <use x="1304.007812" xlink:href="#DejaVuSans-82"/>
     <use x="1373.490234" xlink:href="#DejaVuSans-78"/>
     <use x="1448.294922" xlink:href="#DejaVuSans-65"/>
     <use x="1516.703125" xlink:href="#DejaVuSans-32"/>
     <use x="1548.490234" xlink:href="#DejaVuSans-105"/>
     <use x="1576.273438" xlink:href="#DejaVuSans-110"/>
     <use x="1639.652344" xlink:href="#DejaVuSans-32"/>
     <use x="1671.439453" xlink:href="#DejaVuSans-114"/>
     <use x="1712.552734" xlink:href="#DejaVuSans-105"/>
     <use x="1740.335938" xlink:href="#DejaVuSans-111"/>
     <use x="1801.517578" xlink:href="#DejaVuSans-111"/>
     <use x="1862.699219" xlink:href="#DejaVuSans-108"/>
     <use x="1890.482422" xlink:href="#DejaVuSans-119"/>
     <use x="1972.269531" xlink:href="#DejaVuSans-97"/>
     <use x="2033.548828" xlink:href="#DejaVuSans-116"/>
     <use x="2072.757812" xlink:href="#DejaVuSans-101"/>
     <use x="2134.28125" xlink:href="#DejaVuSans-114"/>
     <use x="2175.394531" xlink:href="#DejaVuSans-32"/>
     <use x="2207.181641" xlink:href="#DejaVuSans-112"/>
     <use x="2270.658203" xlink:href="#DejaVuSans-101"/>
     <use x="2332.181641" xlink:href="#DejaVuSans-114"/>
     <use x="2373.294922" xlink:href="#DejaVuSans-32"/>
     <use x="2405.082031" xlink:href="#DejaVuSans-49"/>
     <use x="2468.705078" xlink:href="#DejaVuSans-48"/>
     <use x="2532.328125" xlink:href="#DejaVuSans-48"/>
     <use x="2595.951172" xlink:href="#DejaVuSans-46"/>
     <use x="2627.738281" xlink:href="#DejaVuSans-48"/>
     <use x="2691.361328" xlink:href="#DejaVuSans-48"/>
     <use x="2754.984375" xlink:href="#DejaVuSans-48"/>
     <use x="2818.607422" xlink:href="#DejaVuSans-32"/>
     <use x="2850.394531" xlink:href="#DejaVuSans-105"/>
     <use x="2878.177734" xlink:href="#DejaVuSans-110"/>
     <use x="2941.556641" xlink:href="#DejaVuSans-119"/>
     <use x="3023.34375" xlink:href="#DejaVuSans-111"/>
     <use x="3084.525391" xlink:href="#DejaVuSans-110"/>
     <use x="3147.904297" xlink:href="#DejaVuSans-101"/>
     <use x="3209.427734" xlink:href="#DejaVuSans-114"/>
     <use x="3250.541016" xlink:href="#DejaVuSans-115"/>
    </g>
   </g>
   <g id="legend_1">
    <g id="patch_7">
     <path d="M 71.8 48.598125 
L 344.44375 48.598125 
Q 346.44375 48.598125 346.44375 46.598125 
L 346.44375 32.92 
Q 346.44375 30.92 344.44375 30.92 
L 71.8 30.92 
Q 69.8 30.92 69.8 32.92 
L 69.8 46.598125 
Q 69.8 48.598125 71.8 48.598125 
z
" style="fill:#ffffff;opacity:0.8;stroke:#cccccc;stroke-linejoin:miter;"/>
    </g>
    <g id="line2d_41">
     <path d="M 73.8 39.018437 
L 93.8 39.018437 
" style="fill:none;stroke:#008000;stroke-linecap:square;stroke-width:1.5;"/>
    </g>
    <g id="line2d_42"/>
    <g id="text_23">
     <!-- RNA deeltjes per 100.000 inwoners (gemiddeld) -->
     <g transform="translate(101.8 42.518437)scale(0.1 -0.1)">
      <defs>
       <path d="M 45.40625 46.390625 
L 45.40625 75.984375 
L 54.390625 75.984375 
L 54.390625 0 
L 45.40625 0 
L 45.40625 8.203125 
Q 42.578125 3.328125 38.25 0.953125 
Q 33.9375 -1.421875 27.875 -1.421875 
Q 17.96875 -1.421875 11.734375 6.484375 
Q 5.515625 14.40625 5.515625 27.296875 
Q 5.515625 40.1875 11.734375 48.09375 
Q 17.96875 56 27.875 56 
Q 33.9375 56 38.25 53.625 
Q 42.578125 51.265625 45.40625 46.390625 
z
M 14.796875 27.296875 
Q 14.796875 17.390625 18.875 11.75 
Q 22.953125 6.109375 30.078125 6.109375 
Q 37.203125 6.109375 41.296875 11.75 
Q 45.40625 17.390625 45.40625 27.296875 
Q 45.40625 37.203125 41.296875 42.84375 
Q 37.203125 48.484375 30.078125 48.484375 
Q 22.953125 48.484375 18.875 42.84375 
Q 14.796875 37.203125 14.796875 27.296875 
z
" id="DejaVuSans-100"/>
       <path d="M 31 75.875 
Q 24.46875 64.65625 21.28125 53.65625 
Q 18.109375 42.671875 18.109375 31.390625 
Q 18.109375 20.125 21.3125 9.0625 
Q 24.515625 -2 31 -13.1875 
L 23.1875 -13.1875 
Q 15.875 -1.703125 12.234375 9.375 
Q 8.59375 20.453125 8.59375 31.390625 
Q 8.59375 42.28125 12.203125 53.3125 
Q 15.828125 64.359375 23.1875 75.875 
z
" id="DejaVuSans-40"/>
       <path d="M 45.40625 27.984375 
Q 45.40625 37.75 41.375 43.109375 
Q 37.359375 48.484375 30.078125 48.484375 
Q 22.859375 48.484375 18.828125 43.109375 
Q 14.796875 37.75 14.796875 27.984375 
Q 14.796875 18.265625 18.828125 12.890625 
Q 22.859375 7.515625 30.078125 7.515625 
Q 37.359375 7.515625 41.375 12.890625 
Q 45.40625 18.265625 45.40625 27.984375 
z
M 54.390625 6.78125 
Q 54.390625 -7.171875 48.1875 -13.984375 
Q 42 -20.796875 29.203125 -20.796875 
Q 24.46875 -20.796875 20.265625 -20.09375 
Q 16.0625 -19.390625 12.109375 -17.921875 
L 12.109375 -9.1875 
Q 16.0625 -11.328125 19.921875 -12.34375 
Q 23.78125 -13.375 27.78125 -13.375 
Q 36.625 -13.375 41.015625 -8.765625 
Q 45.40625 -4.15625 45.40625 5.171875 
L 45.40625 9.625 
Q 42.625 4.78125 38.28125 2.390625 
Q 33.9375 0 27.875 0 
Q 17.828125 0 11.671875 7.65625 
Q 5.515625 15.328125 5.515625 27.984375 
Q 5.515625 40.671875 11.671875 48.328125 
Q 17.828125 56 27.875 56 
Q 33.9375 56 38.28125 53.609375 
Q 42.625 51.21875 45.40625 46.390625 
L 45.40625 54.6875 
L 54.390625 54.6875 
z
" id="DejaVuSans-103"/>
       <path d="M 8.015625 75.875 
L 15.828125 75.875 
Q 23.140625 64.359375 26.78125 53.3125 
Q 30.421875 42.28125 30.421875 31.390625 
Q 30.421875 20.453125 26.78125 9.375 
Q 23.140625 -1.703125 15.828125 -13.1875 
L 8.015625 -13.1875 
Q 14.5 -2 17.703125 9.0625 
Q 20.90625 20.125 20.90625 31.390625 
Q 20.90625 42.671875 17.703125 53.65625 
Q 14.5 64.65625 8.015625 75.875 
z
" id="DejaVuSans-41"/>
      </defs>
      <use xlink:href="#DejaVuSans-82"/>
      <use x="69.482422" xlink:href="#DejaVuSans-78"/>
      <use x="144.287109" xlink:href="#DejaVuSans-65"/>
      <use x="212.695312" xlink:href="#DejaVuSans-32"/>
      <use x="244.482422" xlink:href="#DejaVuSans-100"/>
      <use x="307.958984" xlink:href="#DejaVuSans-101"/>
      <use x="369.482422" xlink:href="#DejaVuSans-101"/>
      <use x="431.005859" xlink:href="#DejaVuSans-108"/>
      <use x="458.789062" xlink:href="#DejaVuSans-116"/>
      <use x="497.998047" xlink:href="#DejaVuSans-106"/>
      <use x="525.78125" xlink:href="#DejaVuSans-101"/>
      <use x="587.304688" xlink:href="#DejaVuSans-115"/>
      <use x="639.404297" xlink:href="#DejaVuSans-32"/>
      <use x="671.191406" xlink:href="#DejaVuSans-112"/>
      <use x="734.667969" xlink:href="#DejaVuSans-101"/>
      <use x="796.191406" xlink:href="#DejaVuSans-114"/>
      <use x="837.304688" xlink:href="#DejaVuSans-32"/>
      <use x="869.091797" xlink:href="#DejaVuSans-49"/>
      <use x="932.714844" xlink:href="#DejaVuSans-48"/>
      <use x="996.337891" xlink:href="#DejaVuSans-48"/>
      <use x="1059.960938" xlink:href="#DejaVuSans-46"/>
      <use x="1091.748047" xlink:href="#DejaVuSans-48"/>
      <use x="1155.371094" xlink:href="#DejaVuSans-48"/>
      <use x="1218.994141" xlink:href="#DejaVuSans-48"/>
      <use x="1282.617188" xlink:href="#DejaVuSans-32"/>
      <use x="1314.404297" xlink:href="#DejaVuSans-105"/>
      <use x="1342.1875" xlink:href="#DejaVuSans-110"/>
      <use x="1405.566406" xlink:href="#DejaVuSans-119"/>
      <use x="1487.353516" xlink:href="#DejaVuSans-111"/>
      <use x="1548.535156" xlink:href="#DejaVuSans-110"/>
      <use x="1611.914062" xlink:href="#DejaVuSans-101"/>
      <use x="1673.4375" xlink:href="#DejaVuSans-114"/>
      <use x="1714.550781" xlink:href="#DejaVuSans-115"/>
      <use x="1766.650391" xlink:href="#DejaVuSans-32"/>
      <use x="1798.4375" xlink:href="#DejaVuSans-40"/>
      <use x="1837.451172" xlink:href="#DejaVuSans-103"/>
      <use x="1900.927734" xlink:href="#DejaVuSans-101"/>
      <use x="1962.451172" xlink:href="#DejaVuSans-109"/>
      <use x="2059.863281" xlink:href="#DejaVuSans-105"/>
      <use x="2087.646484" xlink:href="#DejaVuSans-100"/>
      <use x="2151.123047" xlink:href="#DejaVuSans-100"/>
      <use x="2214.599609" xlink:href="#DejaVuSans-101"/>
      <use x="2276.123047" xlink:href="#DejaVuSans-108"/>
      <use x="2303.90625" xlink:href="#DejaVuSans-100"/>
      <use x="2367.382812" xlink:href="#DejaVuSans-41"/>
     </g>
    </g>
   </g>
   <g id="text_24">
    <g id="patch_8">
     <path d="M 658.21989 177.47125 
L 668.39989 177.47125 
Q 669.19989 177.47125 669.19989 176.67125 
L 669.19989 168.92875 
Q 669.19989 168.12875 668.39989 168.12875 
L 658.21989 168.12875 
Q 657.41989 168.12875 657.41989 168.92875 
L 657.41989 176.67125 
Q 657.41989 177.47125 658.21989 177.47125 
z
" style="fill:#ff0000;stroke:#ff0000;stroke-linejoin:miter;"/>
    </g>
    <!-- 15 -->
    <g style="fill:#ffffff;" transform="translate(658.21989 175.0075)scale(0.08 -0.08)">
     <use xlink:href="#DejaVuSans-49"/>
     <use x="63.623047" xlink:href="#DejaVuSans-53"/>
    </g>
   </g>
  </g>
  <g id="text_25">
   <!-- Gegenereerd op 2023-12-15 23:37 o.b.v. data tot 2023-11-23. -->
   <g style="fill:#808080;" transform="translate(7.2 204.88175)scale(0.08 -0.08)">
    <defs>
     <path d="M 59.515625 10.40625 
L 59.515625 29.984375 
L 43.40625 29.984375 
L 43.40625 38.09375 
L 69.28125 38.09375 
L 69.28125 6.78125 
Q 63.578125 2.734375 56.6875 0.65625 
Q 49.8125 -1.421875 42 -1.421875 
Q 24.90625 -1.421875 15.25 8.5625 
Q 5.609375 18.5625 5.609375 36.375 
Q 5.609375 54.25 15.25 64.234375 
Q 24.90625 74.21875 42 74.21875 
Q 49.125 74.21875 55.546875 72.453125 
Q 61.96875 70.703125 67.390625 67.28125 
L 67.390625 56.78125 
Q 61.921875 61.421875 55.765625 63.765625 
Q 49.609375 66.109375 42.828125 66.109375 
Q 29.4375 66.109375 22.71875 58.640625 
Q 16.015625 51.171875 16.015625 36.375 
Q 16.015625 21.625 22.71875 14.15625 
Q 29.4375 6.6875 42.828125 6.6875 
Q 48.046875 6.6875 52.140625 7.59375 
Q 56.25 8.5 59.515625 10.40625 
z
" id="DejaVuSans-71"/>
     <path d="M 11.71875 12.40625 
L 22.015625 12.40625 
L 22.015625 0 
L 11.71875 0 
z
M 11.71875 51.703125 
L 22.015625 51.703125 
L 22.015625 39.3125 
L 11.71875 39.3125 
z
" id="DejaVuSans-58"/>
     <path d="M 48.6875 27.296875 
Q 48.6875 37.203125 44.609375 42.84375 
Q 40.53125 48.484375 33.40625 48.484375 
Q 26.265625 48.484375 22.1875 42.84375 
Q 18.109375 37.203125 18.109375 27.296875 
Q 18.109375 17.390625 22.1875 11.75 
Q 26.265625 6.109375 33.40625 6.109375 
Q 40.53125 6.109375 44.609375 11.75 
Q 48.6875 17.390625 48.6875 27.296875 
z
M 18.109375 46.390625 
Q 20.953125 51.265625 25.265625 53.625 
Q 29.59375 56 35.59375 56 
Q 45.5625 56 51.78125 48.09375 
Q 58.015625 40.1875 58.015625 27.296875 
Q 58.015625 14.40625 51.78125 6.484375 
Q 45.5625 -1.421875 35.59375 -1.421875 
Q 29.59375 -1.421875 25.265625 0.953125 
Q 20.953125 3.328125 18.109375 8.203125 
L 18.109375 0 
L 9.078125 0 
L 9.078125 75.984375 
L 18.109375 75.984375 
z
" id="DejaVuSans-98"/>
     <path d="M 2.984375 54.6875 
L 12.5 54.6875 
L 29.59375 8.796875 
L 46.6875 54.6875 
L 56.203125 54.6875 
L 35.6875 0 
L 23.484375 0 
z
" id="DejaVuSans-118"/>
    </defs>
    <use xlink:href="#DejaVuSans-71"/>
    <use x="77.490234" xlink:href="#DejaVuSans-101"/>
    <use x="139.013672" xlink:href="#DejaVuSans-103"/>
    <use x="202.490234" xlink:href="#DejaVuSans-101"/>
    <use x="264.013672" xlink:href="#DejaVuSans-110"/>
    <use x="327.392578" xlink:href="#DejaVuSans-101"/>
    <use x="388.916016" xlink:href="#DejaVuSans-114"/>
    <use x="427.779297" xlink:href="#DejaVuSans-101"/>
    <use x="489.302734" xlink:href="#DejaVuSans-101"/>
    <use x="550.826172" xlink:href="#DejaVuSans-114"/>
    <use x="590.189453" xlink:href="#DejaVuSans-100"/>
    <use x="653.666016" xlink:href="#DejaVuSans-32"/>
    <use x="685.453125" xlink:href="#DejaVuSans-111"/>
    <use x="746.634766" xlink:href="#DejaVuSans-112"/>
    <use x="810.111328" xlink:href="#DejaVuSans-32"/>
    <use x="841.898438" xlink:href="#DejaVuSans-50"/>
    <use x="905.521484" xlink:href="#DejaVuSans-48"/>
    <use x="969.144531" xlink:href="#DejaVuSans-50"/>
    <use x="1032.767578" xlink:href="#DejaVuSans-51"/>
    <use x="1096.390625" xlink:href="#DejaVuSans-45"/>
    <use x="1132.474609" xlink:href="#DejaVuSans-49"/>
    <use x="1196.097656" xlink:href="#DejaVuSans-50"/>
    <use x="1259.720703" xlink:href="#DejaVuSans-45"/>
    <use x="1295.804688" xlink:href="#DejaVuSans-49"/>
    <use x="1359.427734" xlink:href="#DejaVuSans-53"/>
    <use x="1423.050781" xlink:href="#DejaVuSans-32"/>
    <use x="1454.837891" xlink:href="#DejaVuSans-50"/>
    <use x="1518.460938" xlink:href="#DejaVuSans-51"/>
    <use x="1582.083984" xlink:href="#DejaVuSans-58"/>
    <use x="1615.775391" xlink:href="#DejaVuSans-51"/>
    <use x="1679.398438" xlink:href="#DejaVuSans-55"/>
    <use x="1743.021484" xlink:href="#DejaVuSans-32"/>
    <use x="1774.808594" xlink:href="#DejaVuSans-111"/>
    <use x="1834.240234" xlink:href="#DejaVuSans-46"/>
    <use x="1866.027344" xlink:href="#DejaVuSans-98"/>
    <use x="1929.503906" xlink:href="#DejaVuSans-46"/>
    <use x="1961.291016" xlink:href="#DejaVuSans-118"/>
    <use x="2012.720703" xlink:href="#DejaVuSans-46"/>
    <use x="2044.507812" xlink:href="#DejaVuSans-32"/>
    <use x="2076.294922" xlink:href="#DejaVuSans-100"/>
    <use x="2139.771484" xlink:href="#DejaVuSans-97"/>
    <use x="2201.050781" xlink:href="#DejaVuSans-116"/>
    <use x="2240.259766" xlink:href="#DejaVuSans-97"/>
    <use x="2301.539062" xlink:href="#DejaVuSans-32"/>
    <use x="2333.326172" xlink:href="#DejaVuSans-116"/>
    <use x="2372.535156" xlink:href="#DejaVuSans-111"/>
    <use x="2433.716797" xlink:href="#DejaVuSans-116"/>
    <use x="2472.925781" xlink:href="#DejaVuSans-32"/>
    <use x="2504.712891" xlink:href="#DejaVuSans-50"/>
    <use x="2568.335938" xlink:href="#DejaVuSans-48"/>
    <use x="2631.958984" xlink:href="#DejaVuSans-50"/>
    <use x="2695.582031" xlink:href="#DejaVuSans-51"/>
    <use x="2759.205078" xlink:href="#DejaVuSans-45"/>
    <use x="2795.289062" xlink:href="#DejaVuSans-49"/>
    <use x="2858.912109" xlink:href="#DejaVuSans-49"/>
    <use x="2922.535156" xlink:href="#DejaVuSans-45"/>
    <use x="2958.619141" xlink:href="#DejaVuSans-50"/>
    <use x="3022.242188" xlink:href="#DejaVuSans-51"/>
    <use x="3085.865234" xlink:href="#DejaVuSans-46"/>
   </g>
   <!-- Source code: http://github.com/realrolfje/coronadata -->
   <g style="fill:#808080;" transform="translate(7.2 213.84)scale(0.08 -0.08)">
    <defs>
     <path d="M 54.890625 33.015625 
L 54.890625 0 
L 45.90625 0 
L 45.90625 32.71875 
Q 45.90625 40.484375 42.875 44.328125 
Q 39.84375 48.1875 33.796875 48.1875 
Q 26.515625 48.1875 22.3125 43.546875 
Q 18.109375 38.921875 18.109375 30.90625 
L 18.109375 0 
L 9.078125 0 
L 9.078125 75.984375 
L 18.109375 75.984375 
L 18.109375 46.1875 
Q 21.34375 51.125 25.703125 53.5625 
Q 30.078125 56 35.796875 56 
Q 45.21875 56 50.046875 50.171875 
Q 54.890625 44.34375 54.890625 33.015625 
z
" id="DejaVuSans-104"/>
     <path d="M 25.390625 72.90625 
L 33.6875 72.90625 
L 8.296875 -9.28125 
L 0 -9.28125 
z
" id="DejaVuSans-47"/>
     <path d="M 37.109375 75.984375 
L 37.109375 68.5 
L 28.515625 68.5 
Q 23.6875 68.5 21.796875 66.546875 
Q 19.921875 64.59375 19.921875 59.515625 
L 19.921875 54.6875 
L 34.71875 54.6875 
L 34.71875 47.703125 
L 19.921875 47.703125 
L 19.921875 0 
L 10.890625 0 
L 10.890625 47.703125 
L 2.296875 47.703125 
L 2.296875 54.6875 
L 10.890625 54.6875 
L 10.890625 58.5 
Q 10.890625 67.625 15.140625 71.796875 
Q 19.390625 75.984375 28.609375 75.984375 
z
" id="DejaVuSans-102"/>
    </defs>
    <use xlink:href="#DejaVuSans-83"/>
    <use x="63.476562" xlink:href="#DejaVuSans-111"/>
    <use x="124.658203" xlink:href="#DejaVuSans-117"/>
    <use x="188.037109" xlink:href="#DejaVuSans-114"/>
    <use x="226.900391" xlink:href="#DejaVuSans-99"/>
    <use x="281.880859" xlink:href="#DejaVuSans-101"/>
    <use x="343.404297" xlink:href="#DejaVuSans-32"/>
    <use x="375.191406" xlink:href="#DejaVuSans-99"/>
    <use x="430.171875" xlink:href="#DejaVuSans-111"/>
    <use x="491.353516" xlink:href="#DejaVuSans-100"/>
    <use x="554.830078" xlink:href="#DejaVuSans-101"/>
    <use x="616.353516" xlink:href="#DejaVuSans-58"/>
    <use x="650.044922" xlink:href="#DejaVuSans-32"/>
    <use x="681.832031" xlink:href="#DejaVuSans-104"/>
    <use x="745.210938" xlink:href="#DejaVuSans-116"/>
    <use x="784.419922" xlink:href="#DejaVuSans-116"/>
    <use x="823.628906" xlink:href="#DejaVuSans-112"/>
    <use x="887.105469" xlink:href="#DejaVuSans-58"/>
    <use x="920.796875" xlink:href="#DejaVuSans-47"/>
    <use x="954.488281" xlink:href="#DejaVuSans-47"/>
    <use x="988.179688" xlink:href="#DejaVuSans-103"/>
    <use x="1051.65625" xlink:href="#DejaVuSans-105"/>
    <use x="1079.439453" xlink:href="#DejaVuSans-116"/>
    <use x="1118.648438" xlink:href="#DejaVuSans-104"/>
    <use x="1182.027344" xlink:href="#DejaVuSans-117"/>
    <use x="1245.40625" xlink:href="#DejaVuSans-98"/>
    <use x="1308.882812" xlink:href="#DejaVuSans-46"/>
    <use x="1340.669922" xlink:href="#DejaVuSans-99"/>
    <use x="1395.650391" xlink:href="#DejaVuSans-111"/>
    <use x="1456.832031" xlink:href="#DejaVuSans-109"/>
    <use x="1554.244141" xlink:href="#DejaVuSans-47"/>
    <use x="1587.935547" xlink:href="#DejaVuSans-114"/>
    <use x="1626.798828" xlink:href="#DejaVuSans-101"/>
    <use x="1688.322266" xlink:href="#DejaVuSans-97"/>
    <use x="1749.601562" xlink:href="#DejaVuSans-108"/>
    <use x="1777.384766" xlink:href="#DejaVuSans-114"/>
    <use x="1816.248047" xlink:href="#DejaVuSans-111"/>
    <use x="1877.429688" xlink:href="#DejaVuSans-108"/>
    <use x="1905.212891" xlink:href="#DejaVuSans-102"/>
    <use x="1940.417969" xlink:href="#DejaVuSans-106"/>
    <use x="1968.201172" xlink:href="#DejaVuSans-101"/>
    <use x="2029.724609" xlink:href="#DejaVuSans-47"/>
    <use x="2063.416016" xlink:href="#DejaVuSans-99"/>
    <use x="2118.396484" xlink:href="#DejaVuSans-111"/>
    <use x="2179.578125" xlink:href="#DejaVuSans-114"/>
    <use x="2218.441406" xlink:href="#DejaVuSans-111"/>
    <use x="2279.623047" xlink:href="#DejaVuSans-110"/>
    <use x="2343.001953" xlink:href="#DejaVuSans-97"/>
    <use x="2404.28125" xlink:href="#DejaVuSans-100"/>
    <use x="2467.757812" xlink:href="#DejaVuSans-97"/>
    <use x="2529.037109" xlink:href="#DejaVuSans-116"/>
    <use x="2568.246094" xlink:href="#DejaVuSans-97"/>
   </g>
  </g>
  <g id="text_26">
   <!-- Bron: https://data.rivm.nl/covid-19 -->
   <g style="fill:#808080;" transform="translate(574.79875 213.84)scale(0.08 -0.08)">
    <defs>
     <path d="M 19.671875 34.8125 
L 19.671875 8.109375 
L 35.5 8.109375 
Q 43.453125 8.109375 47.28125 11.40625 
Q 51.125 14.703125 51.125 21.484375 
Q 51.125 28.328125 47.28125 31.5625 
Q 43.453125 34.8125 35.5 34.8125 
z
M 19.671875 64.796875 
L 19.671875 42.828125 
L 34.28125 42.828125 
Q 41.5 42.828125 45.03125 45.53125 
Q 48.578125 48.25 48.578125 53.8125 
Q 48.578125 59.328125 45.03125 62.0625 
Q 41.5 64.796875 34.28125 64.796875 
z
M 9.8125 72.90625 
L 35.015625 72.90625 
Q 46.296875 72.90625 52.390625 68.21875 
Q 58.5 63.53125 58.5 54.890625 
Q 58.5 48.1875 55.375 44.234375 
Q 52.25 40.28125 46.1875 39.3125 
Q 53.46875 37.75 57.5 32.78125 
Q 61.53125 27.828125 61.53125 20.40625 
Q 61.53125 10.640625 54.890625 5.3125 
Q 48.25 0 35.984375 0 
L 9.8125 0 
z
" id="DejaVuSans-66"/>
    </defs>
    <use xlink:href="#DejaVuSans-66"/>
    <use x="68.603516" xlink:href="#DejaVuSans-114"/>
    <use x="107.466797" xlink:href="#DejaVuSans-111"/>
    <use x="168.648438" xlink:href="#DejaVuSans-110"/>
    <use x="232.027344" xlink:href="#DejaVuSans-58"/>
    <use x="265.71875" xlink:href="#DejaVuSans-32"/>
    <use x="297.505859" xlink:href="#DejaVuSans-104"/>
    <use x="360.884766" xlink:href="#DejaVuSans-116"/>
    <use x="400.09375" xlink:href="#DejaVuSans-116"/>
    <use x="439.302734" xlink:href="#DejaVuSans-112"/>
    <use x="502.779297" xlink:href="#DejaVuSans-115"/>
    <use x="554.878906" xlink:href="#DejaVuSans-58"/>
    <use x="588.570312" xlink:href="#DejaVuSans-47"/>
    <use x="622.261719" xlink:href="#DejaVuSans-47"/>
    <use x="655.953125" xlink:href="#DejaVuSans-100"/>
    <use x="719.429688" xlink:href="#DejaVuSans-97"/>
    <use x="780.708984" xlink:href="#DejaVuSans-116"/>
    <use x="819.917969" xlink:href="#DejaVuSans-97"/>
    <use x="881.197266" xlink:href="#DejaVuSans-46"/>
    <use x="912.984375" xlink:href="#DejaVuSans-114"/>
    <use x="954.097656" xlink:href="#DejaVuSans-105"/>
    <use x="981.880859" xlink:href="#DejaVuSans-118"/>
    <use x="1041.060547" xlink:href="#DejaVuSans-109"/>
    <use x="1138.472656" xlink:href="#DejaVuSans-46"/>
    <use x="1170.259766" xlink:href="#DejaVuSans-110"/>
    <use x="1233.638672" xlink:href="#DejaVuSans-108"/>
    <use x="1261.421875" xlink:href="#DejaVuSans-47"/>
    <use x="1295.113281" xlink:href="#DejaVuSans-99"/>
    <use x="1350.09375" xlink:href="#DejaVuSans-111"/>
    <use x="1411.275391" xlink:href="#DejaVuSans-118"/>
    <use x="1470.455078" xlink:href="#DejaVuSans-105"/>
    <use x="1498.238281" xlink:href="#DejaVuSans-100"/>
    <use x="1561.714844" xlink:href="#DejaVuSans-45"/>
    <use x="1597.798828" xlink:href="#DejaVuSans-49"/>
    <use x="1661.421875" xlink:href="#DejaVuSans-57"/>
   </g>
  </g>
  <g id="text_27">
   <g id="patch_9">
    <path d="M 68 66.14375 
L 203.68625 66.14375 
L 203.68625 50.40125 
L 68 50.40125 
z
" style="fill:#ffffff;stroke:#ffffff;stroke-linejoin:miter;"/>
   </g>
   <!-- (T = Tera = 1.000.000.000.000) -->
   <g style="fill:#808080;" transform="translate(72 60.48)scale(0.08 -0.08)">
    <defs>
     <path d="M 10.59375 45.40625 
L 73.1875 45.40625 
L 73.1875 37.203125 
L 10.59375 37.203125 
z
M 10.59375 25.484375 
L 73.1875 25.484375 
L 73.1875 17.1875 
L 10.59375 17.1875 
z
" id="DejaVuSans-61"/>
    </defs>
    <use xlink:href="#DejaVuSans-40"/>
    <use x="39.013672" xlink:href="#DejaVuSans-84"/>
    <use x="100.097656" xlink:href="#DejaVuSans-32"/>
    <use x="131.884766" xlink:href="#DejaVuSans-61"/>
    <use x="215.673828" xlink:href="#DejaVuSans-32"/>
    <use x="247.460938" xlink:href="#DejaVuSans-84"/>
    <use x="291.544922" xlink:href="#DejaVuSans-101"/>
    <use x="353.068359" xlink:href="#DejaVuSans-114"/>
    <use x="394.181641" xlink:href="#DejaVuSans-97"/>
    <use x="455.460938" xlink:href="#DejaVuSans-32"/>
    <use x="487.248047" xlink:href="#DejaVuSans-61"/>
    <use x="571.037109" xlink:href="#DejaVuSans-32"/>
    <use x="602.824219" xlink:href="#DejaVuSans-49"/>
    <use x="666.447266" xlink:href="#DejaVuSans-46"/>
    <use x="698.234375" xlink:href="#DejaVuSans-48"/>
    <use x="761.857422" xlink:href="#DejaVuSans-48"/>
    <use x="825.480469" xlink:href="#DejaVuSans-48"/>
    <use x="889.103516" xlink:href="#DejaVuSans-46"/>
    <use x="920.890625" xlink:href="#DejaVuSans-48"/>
    <use x="984.513672" xlink:href="#DejaVuSans-48"/>
    <use x="1048.136719" xlink:href="#DejaVuSans-48"/>
    <use x="1111.759766" xlink:href="#DejaVuSans-46"/>
    <use x="1143.546875" xlink:href="#DejaVuSans-48"/>
    <use x="1207.169922" xlink:href="#DejaVuSans-48"/>
    <use x="1270.792969" xlink:href="#DejaVuSans-48"/>
    <use x="1334.416016" xlink:href="#DejaVuSans-46"/>
    <use x="1366.203125" xlink:href="#DejaVuSans-48"/>
    <use x="1429.826172" xlink:href="#DejaVuSans-48"/>
    <use x="1493.449219" xlink:href="#DejaVuSans-48"/>
    <use x="1557.072266" xlink:href="#DejaVuSans-41"/>
   </g>
  </g>
  <g id="text_28">
   <g id="patch_10">
    <path d="M 428 70.879688 
L 555.317188 70.879688 
L 555.317188 53.201563 
L 428 53.201563 
z
" style="fill:#ffffff;stroke:#ffffff;stroke-linejoin:miter;"/>
   </g>
   <!-- "Je plee liegt niet" - Rolf -->
   <g style="fill:#808080;" transform="translate(432 64.8)scale(0.1 -0.1)">
    <defs>
     <path d="M 17.921875 72.90625 
L 17.921875 45.796875 
L 9.625 45.796875 
L 9.625 72.90625 
z
M 36.375 72.90625 
L 36.375 45.796875 
L 28.078125 45.796875 
L 28.078125 72.90625 
z
" id="DejaVuSans-34"/>
     <path d="M 9.8125 72.90625 
L 19.671875 72.90625 
L 19.671875 5.078125 
Q 19.671875 -8.109375 14.671875 -14.0625 
Q 9.671875 -20.015625 -1.421875 -20.015625 
L -5.171875 -20.015625 
L -5.171875 -11.71875 
L -2.09375 -11.71875 
Q 4.4375 -11.71875 7.125 -8.046875 
Q 9.8125 -4.390625 9.8125 5.078125 
z
" id="DejaVuSans-74"/>
    </defs>
    <use xlink:href="#DejaVuSans-34"/>
    <use x="45.996094" xlink:href="#DejaVuSans-74"/>
    <use x="75.488281" xlink:href="#DejaVuSans-101"/>
    <use x="137.011719" xlink:href="#DejaVuSans-32"/>
    <use x="168.798828" xlink:href="#DejaVuSans-112"/>
    <use x="232.275391" xlink:href="#DejaVuSans-108"/>
    <use x="260.058594" xlink:href="#DejaVuSans-101"/>
    <use x="321.582031" xlink:href="#DejaVuSans-101"/>
    <use x="383.105469" xlink:href="#DejaVuSans-32"/>
    <use x="414.892578" xlink:href="#DejaVuSans-108"/>
    <use x="442.675781" xlink:href="#DejaVuSans-105"/>
    <use x="470.458984" xlink:href="#DejaVuSans-101"/>
    <use x="531.982422" xlink:href="#DejaVuSans-103"/>
    <use x="595.458984" xlink:href="#DejaVuSans-116"/>
    <use x="634.667969" xlink:href="#DejaVuSans-32"/>
    <use x="666.455078" xlink:href="#DejaVuSans-110"/>
    <use x="729.833984" xlink:href="#DejaVuSans-105"/>
    <use x="757.617188" xlink:href="#DejaVuSans-101"/>
    <use x="819.140625" xlink:href="#DejaVuSans-116"/>
    <use x="858.349609" xlink:href="#DejaVuSans-34"/>
    <use x="904.345703" xlink:href="#DejaVuSans-32"/>
    <use x="936.132812" xlink:href="#DejaVuSans-45"/>
    <use x="972.216797" xlink:href="#DejaVuSans-32"/>
    <use x="1004.003906" xlink:href="#DejaVuSans-82"/>
    <use x="1068.986328" xlink:href="#DejaVuSans-111"/>
    <use x="1130.167969" xlink:href="#DejaVuSans-108"/>
    <use x="1157.951172" xlink:href="#DejaVuSans-102"/>
   </g>
  </g>
 </g>
 <defs>
  <clipPath id="p86089f5bf2">
   <rect height="146.88" width="590.4" x="64.8" y="25.92"/>
  </clipPath>
 </defs>
</svg>
