<?xml version="1.0" encoding="utf-8" standalone="no"?>
<!DOCTYPE svg PUBLIC "-//W3C//DTD SVG 1.1//EN"
  "http://www.w3.org/Graphics/SVG/1.1/DTD/svg11.dtd">
<!-- Created with matplotlib (https://matplotlib.org/) -->
<svg height="216pt" version="1.1" viewBox="0 0 720 216" width="720pt" xmlns="http://www.w3.org/2000/svg" xmlns:xlink="http://www.w3.org/1999/xlink">
 <metadata>
  <rdf:RDF xmlns:cc="http://creativecommons.org/ns#" xmlns:dc="http://purl.org/dc/elements/1.1/" xmlns:rdf="http://www.w3.org/1999/02/22-rdf-syntax-ns#">
   <cc:Work>
    <dc:type rdf:resource="http://purl.org/dc/dcmitype/StillImage"/>
    <dc:date>2021-03-02T11:22:52.116307</dc:date>
    <dc:format>image/svg+xml</dc:format>
    <dc:creator>
     <cc:Agent>
      <dc:title>Matplotlib v3.3.2, https://matplotlib.org/</dc:title>
     </cc:Agent>
    </dc:creator>
   </cc:Work>
  </rdf:RDF>
 </metadata>
 <defs>
  <style type="text/css">*{stroke-linecap:butt;stroke-linejoin:round;}</style>
 </defs>
 <g id="figure_1">
  <g id="patch_1">
   <path d="M 0 216 
L 720 216 
L 720 0 
L 0 0 
z
" style="fill:#ffffff;"/>
  </g>
  <g id="axes_1">
   <g id="patch_2">
    <path d="M 64.8 172.8 
L 655.2 172.8 
L 655.2 25.92 
L 64.8 25.92 
z
" style="fill:#ffffff;"/>
   </g>
   <g id="PolyCollection_1">
    <path clip-path="url(#p047e5f67fb)" d="M 110.825806 172.8 
L 110.825806 172.8 
L 112.412903 172.8 
L 114 172.8 
L 115.587097 172.8 
L 120.348387 172.8 
L 121.935484 172.8 
L 123.522581 172.8 
L 125.109677 172.8 
L 126.696774 172.8 
L 128.283871 172.8 
L 133.045161 172.8 
L 134.632258 172.8 
L 136.219355 172.8 
L 137.806452 172.8 
L 139.393548 172.8 
L 142.567742 172.8 
L 144.154839 172.8 
L 145.741935 172.8 
L 147.329032 172.8 
L 148.916129 172.8 
L 153.677419 172.8 
L 155.264516 172.8 
L 156.851613 172.8 
L 158.43871 172.8 
L 160.025806 172.8 
L 161.612903 172.8 
L 164.787097 172.8 
L 167.96129 172.8 
L 169.548387 172.8 
L 171.135484 172.8 
L 174.309677 172.8 
L 175.896774 172.8 
L 177.483871 172.8 
L 179.070968 172.8 
L 180.658065 172.8 
L 183.832258 172.8 
L 185.419355 172.8 
L 187.006452 172.8 
L 188.593548 172.8 
L 190.180645 172.8 
L 191.767742 172.8 
L 193.354839 172.8 
L 194.941935 172.8 
L 196.529032 172.8 
L 198.116129 172.8 
L 199.703226 172.8 
L 201.290323 172.8 
L 202.877419 172.8 
L 204.464516 172.8 
L 206.051613 172.8 
L 210.812903 172.8 
L 212.4 172.8 
L 213.987097 172.8 
L 215.574194 172.8 
L 217.16129 172.8 
L 218.748387 172.8 
L 220.335484 172.8 
L 221.922581 172.8 
L 223.509677 172.8 
L 225.096774 172.8 
L 226.683871 172.8 
L 228.270968 172.8 
L 231.445161 172.8 
L 233.032258 172.8 
L 234.619355 172.8 
L 236.206452 172.8 
L 237.793548 172.8 
L 239.380645 172.8 
L 242.554839 172.8 
L 244.141935 172.8 
L 245.729032 172.8 
L 247.316129 172.8 
L 252.077419 172.8 
L 253.664516 172.8 
L 255.251613 172.8 
L 256.83871 172.8 
L 258.425806 172.8 
L 260.012903 172.8 
L 264.774194 172.8 
L 266.36129 172.8 
L 267.948387 172.8 
L 269.535484 172.8 
L 271.122581 172.8 
L 272.709677 172.8 
L 274.296774 172.8 
L 275.883871 172.8 
L 277.470968 172.8 
L 279.058065 172.8 
L 280.645161 172.8 
L 282.232258 172.8 
L 283.819355 172.8 
L 285.406452 172.8 
L 286.993548 172.8 
L 288.580645 172.8 
L 290.167742 172.8 
L 291.754839 172.8 
L 293.341935 172.8 
L 294.929032 172.8 
L 296.516129 172.8 
L 298.103226 172.8 
L 299.690323 172.8 
L 301.277419 172.8 
L 302.864516 172.8 
L 304.451613 172.8 
L 306.03871 172.8 
L 307.625806 172.8 
L 309.212903 172.8 
L 310.8 172.8 
L 312.387097 172.8 
L 313.974194 172.8 
L 315.56129 172.8 
L 317.148387 172.8 
L 318.735484 172.8 
L 320.322581 172.8 
L 321.909677 172.8 
L 323.496774 172.8 
L 325.083871 172.8 
L 326.670968 172.8 
L 328.258065 172.8 
L 329.845161 172.8 
L 331.432258 172.8 
L 333.019355 172.8 
L 334.606452 172.8 
L 336.193548 172.8 
L 337.780645 172.8 
L 339.367742 172.8 
L 340.954839 172.8 
L 342.541935 172.8 
L 344.129032 172.8 
L 345.716129 172.8 
L 347.303226 172.8 
L 348.890323 172.8 
L 350.477419 172.8 
L 352.064516 172.8 
L 353.651613 172.8 
L 355.23871 172.8 
L 356.825806 172.8 
L 358.412903 172.8 
L 360 172.8 
L 361.587097 172.8 
L 363.174194 172.8 
L 364.76129 172.8 
L 366.348387 172.8 
L 367.935484 172.8 
L 369.522581 172.8 
L 371.109677 172.8 
L 372.696774 172.8 
L 374.283871 172.8 
L 375.870968 172.8 
L 377.458065 172.8 
L 379.045161 172.8 
L 380.632258 172.8 
L 382.219355 172.8 
L 383.806452 172.8 
L 385.393548 172.8 
L 386.980645 172.8 
L 388.567742 172.8 
L 390.154839 172.8 
L 391.741935 172.8 
L 393.329032 172.8 
L 394.916129 172.8 
L 396.503226 172.8 
L 398.090323 172.8 
L 399.677419 172.8 
L 401.264516 172.8 
L 402.851613 172.8 
L 404.43871 172.8 
L 406.025806 172.8 
L 407.612903 172.8 
L 409.2 172.8 
L 410.787097 172.8 
L 412.374194 172.8 
L 413.96129 172.8 
L 415.548387 172.8 
L 417.135484 172.8 
L 418.722581 172.8 
L 420.309677 172.8 
L 421.896774 172.8 
L 423.483871 172.8 
L 425.070968 172.8 
L 426.658065 172.8 
L 428.245161 172.8 
L 429.832258 172.8 
L 431.419355 172.8 
L 433.006452 172.8 
L 434.593548 172.8 
L 436.180645 172.8 
L 437.767742 172.8 
L 439.354839 172.8 
L 440.941935 172.8 
L 442.529032 172.8 
L 444.116129 172.8 
L 445.703226 172.8 
L 447.290323 172.8 
L 448.877419 172.8 
L 450.464516 172.8 
L 452.051613 172.8 
L 453.63871 172.8 
L 455.225806 172.8 
L 456.812903 172.8 
L 458.4 172.8 
L 459.987097 172.8 
L 461.574194 172.8 
L 463.16129 172.8 
L 464.748387 172.8 
L 466.335484 172.8 
L 467.922581 172.8 
L 469.509677 172.8 
L 471.096774 172.8 
L 472.683871 172.8 
L 474.270968 172.8 
L 475.858065 172.8 
L 477.445161 172.8 
L 479.032258 172.8 
L 480.619355 172.8 
L 482.206452 172.8 
L 483.793548 172.8 
L 485.380645 172.8 
L 486.967742 172.8 
L 488.554839 172.8 
L 490.141935 172.8 
L 491.729032 172.8 
L 493.316129 172.8 
L 494.903226 172.8 
L 496.490323 172.8 
L 498.077419 172.8 
L 499.664516 172.8 
L 501.251613 172.8 
L 502.83871 172.8 
L 504.425806 172.8 
L 506.012903 172.8 
L 507.6 172.8 
L 509.187097 172.8 
L 510.774194 172.8 
L 512.36129 172.8 
L 513.948387 172.8 
L 515.535484 172.8 
L 517.122581 172.8 
L 518.709677 172.8 
L 520.296774 172.8 
L 521.883871 172.8 
L 523.470968 172.8 
L 525.058065 172.8 
L 526.645161 172.8 
L 528.232258 172.8 
L 529.819355 172.8 
L 531.406452 172.8 
L 532.993548 172.8 
L 534.580645 172.8 
L 536.167742 172.8 
L 537.754839 172.8 
L 539.341935 172.8 
L 540.929032 172.8 
L 542.516129 172.8 
L 544.103226 172.8 
L 545.690323 172.8 
L 547.277419 172.8 
L 550.451613 172.8 
L 552.03871 172.8 
L 553.625806 172.8 
L 555.212903 172.8 
L 556.8 172.8 
L 558.387097 172.8 
L 559.974194 172.8 
L 561.56129 172.8 
L 563.148387 172.8 
L 564.735484 172.8 
L 566.322581 172.8 
L 567.909677 172.8 
L 569.496774 172.8 
L 571.083871 172.8 
L 572.670968 172.8 
L 574.258065 172.8 
L 575.845161 172.8 
L 577.432258 172.8 
L 579.019355 172.8 
L 580.606452 172.8 
L 582.193548 172.8 
L 583.780645 172.8 
L 585.367742 172.8 
L 586.954839 172.8 
L 588.541935 172.8 
L 590.129032 172.8 
L 591.716129 172.8 
L 593.303226 172.8 
L 594.890323 172.8 
L 596.477419 172.8 
L 598.064516 172.8 
L 599.651613 172.8 
L 601.23871 172.8 
L 602.825806 172.8 
L 604.412903 172.8 
L 606 172.8 
L 607.587097 172.8 
L 609.174194 172.8 
L 610.76129 172.8 
L 612.348387 172.8 
L 613.935484 172.8 
L 615.522581 172.8 
L 617.109677 172.8 
L 618.696774 172.8 
L 620.283871 172.8 
L 621.870968 172.8 
L 623.458065 172.8 
L 625.045161 172.8 
L 626.632258 172.8 
L 628.219355 172.8 
L 629.806452 172.8 
L 631.393548 172.8 
L 632.980645 172.8 
L 634.567742 172.8 
L 636.154839 172.8 
L 636.154839 172.8 
L 636.154839 148.100141 
L 634.567742 123.447972 
L 632.980645 123.077303 
L 631.393548 117.583215 
L 629.806452 122.452996 
L 628.219355 118.886827 
L 626.632258 122.211776 
L 625.045161 120.651057 
L 623.458065 122.849772 
L 621.870968 98.190557 
L 620.283871 132.130191 
L 618.696774 143.65931 
L 617.109677 132.108787 
L 615.522581 132.573623 
L 613.935484 145.18226 
L 612.348387 105.647431 
L 610.76129 141.36951 
L 609.174194 158.213535 
L 607.587097 117.034444 
L 606 153.839314 
L 604.412903 138.219325 
L 602.825806 127.960357 
L 601.23871 112.524375 
L 599.651613 139.844659 
L 598.064516 140.837254 
L 596.477419 128.666353 
L 594.890323 1.280821 
L 593.303226 113.784935 
L 591.716129 120.828482 
L 590.129032 121.220812 
L 588.541935 119.144989 
L 586.954839 126.189098 
L 585.367742 129.224224 
L 583.780645 123.562011 
L 582.193548 116.854452 
L 580.606452 121.885235 
L 579.019355 78.267215 
L 577.432258 127.897183 
L 575.845161 95.589038 
L 574.258065 120.325364 
L 572.670968 120.015441 
L 571.083871 139.880346 
L 569.496774 120.447558 
L 567.909677 94.071051 
L 566.322581 102.783803 
L 564.735484 139.453996 
L 563.148387 144.317776 
L 561.56129 134.567865 
L 559.974194 100.197646 
L 558.387097 140.382421 
L 556.8 138.712984 
L 555.212903 128.565763 
L 553.625806 143.045309 
L 552.03871 143.812021 
L 550.451613 148.376588 
L 547.277419 150.291121 
L 545.690323 124.206657 
L 544.103226 147.042668 
L 542.516129 114.863077 
L 540.929032 136.664303 
L 539.341935 110.459273 
L 537.754839 157.057675 
L 536.167742 88.722232 
L 534.580645 111.271794 
L 532.993548 76.100514 
L 531.406452 133.321298 
L 529.819355 139.788545 
L 528.232258 127.767451 
L 526.645161 133.505401 
L 525.058065 121.373999 
L 523.470968 113.504137 
L 521.883871 102.54445 
L 520.296774 127.012243 
L 518.709677 126.588095 
L 517.122581 136.417234 
L 515.535484 144.465025 
L 513.948387 132.290593 
L 512.36129 149.982194 
L 510.774194 143.635703 
L 509.187097 139.482826 
L 507.6 155.670239 
L 506.012903 153.624158 
L 504.425806 134.721607 
L 502.83871 150.230811 
L 501.251613 133.076576 
L 499.664516 109.642754 
L 498.077419 146.424504 
L 496.490323 145.366229 
L 494.903226 138.680152 
L 493.316129 154.863039 
L 491.729032 159.381056 
L 490.141935 122.024046 
L 488.554839 151.400436 
L 486.967742 131.290624 
L 485.380645 150.542567 
L 483.793548 143.500902 
L 482.206452 152.523008 
L 480.619355 149.606718 
L 479.032258 135.373554 
L 477.445161 130.397878 
L 475.858065 41.5908 
L 474.270968 54.003948 
L 472.683871 79.046599 
L 471.096774 120.597331 
L 469.509677 127.218323 
L 467.922581 121.780998 
L 466.335484 113.021521 
L 464.748387 54.638579 
L 463.16129 90.415313 
L 461.574194 108.167616 
L 459.987097 118.971757 
L 458.4 145.772707 
L 456.812903 132.624546 
L 455.225806 133.456809 
L 453.63871 78.547285 
L 452.051613 63.127379 
L 450.464516 128.810649 
L 448.877419 95.432572 
L 447.290323 4.849171 
L 445.703226 39.731662 
L 444.116129 120.892105 
L 442.529032 63.705359 
L 440.941935 113.222745 
L 439.354839 106.471134 
L 437.767742 140.532582 
L 436.180645 -30.038855 
L 434.593548 99.304119 
L 433.006452 125.583538 
L 431.419355 99.330112 
L 429.832258 108.850132 
L 428.245161 93.807777 
L 426.658065 137.21988 
L 425.070968 125.806034 
L 423.483871 136.264145 
L 421.896774 139.489849 
L 420.309677 64.889044 
L 418.722581 62.885998 
L 417.135484 106.811088 
L 415.548387 111.227631 
L 413.96129 103.308732 
L 412.374194 120.218446 
L 410.787097 115.445912 
L 409.2 29.686752 
L 407.612903 127.723001 
L 406.025806 98.117606 
L 404.43871 128.919088 
L 402.851613 150.840413 
L 401.264516 145.569958 
L 399.677419 140.543524 
L 398.090323 135.877842 
L 396.503226 145.675757 
L 394.916129 162.905643 
L 393.329032 156.458861 
L 391.741935 159.838765 
L 390.154839 154.309652 
L 388.567742 163.848538 
L 386.980645 156.876753 
L 385.393548 164.874131 
L 383.806452 161.570262 
L 382.219355 160.632002 
L 380.632258 161.045364 
L 379.045161 167.109425 
L 377.458065 156.403405 
L 375.870968 165.75282 
L 374.283871 166.970595 
L 372.696774 165.968136 
L 371.109677 162.309895 
L 369.522581 163.988325 
L 367.935484 167.007309 
L 366.348387 166.068374 
L 364.76129 152.183653 
L 363.174194 169.50744 
L 361.587097 164.70018 
L 360 168.72408 
L 358.412903 169.373565 
L 356.825806 169.518701 
L 355.23871 164.291976 
L 353.651613 170.979737 
L 352.064516 167.2002 
L 350.477419 165.610224 
L 348.890323 171.35568 
L 347.303226 170.983158 
L 345.716129 167.893889 
L 344.129032 163.35684 
L 342.541935 160.866 
L 340.954839 164.7216 
L 339.367742 159.01776 
L 337.780645 169.128 
L 336.193548 167.419646 
L 334.606452 166.94928 
L 333.019355 165.096144 
L 331.432258 166.605795 
L 329.845161 162.396 
L 328.258065 160.84764 
L 326.670968 157.07925 
L 325.083871 169.38504 
L 323.496774 161.194731 
L 321.909677 163.00494 
L 320.322581 160.61814 
L 318.735484 172.8 
L 317.148387 168.419829 
L 315.56129 170.54784 
L 313.974194 168.755151 
L 312.387097 166.656462 
L 310.8 151.993113 
L 309.212903 149.490144 
L 307.625806 167.137776 
L 306.03871 165.56616 
L 304.451613 167.7816 
L 302.864516 166.375749 
L 301.277419 166.9248 
L 299.690323 159.083668 
L 298.103226 166.10778 
L 296.516129 165.89664 
L 294.929032 169.59618 
L 293.341935 168.26814 
L 291.754839 171.4026 
L 290.167742 162.12366 
L 288.580645 169.303126 
L 286.993548 167.96214 
L 285.406452 170.207568 
L 283.819355 172.8 
L 282.232258 170.4132 
L 280.645161 172.8 
L 279.058065 172.080288 
L 277.470968 169.95879 
L 275.883871 172.8 
L 274.296774 172.8 
L 272.709677 172.8 
L 271.122581 172.8 
L 269.535484 171.75552 
L 267.948387 172.16658 
L 266.36129 170.67024 
L 264.774194 172.8 
L 260.012903 171.22104 
L 258.425806 172.8 
L 256.83871 172.58886 
L 255.251613 171.1935 
L 253.664516 171.17973 
L 252.077419 171.06192 
L 247.316129 172.8 
L 245.729032 171.742464 
L 244.141935 172.0656 
L 242.554839 169.89912 
L 239.380645 172.8 
L 237.793548 172.8 
L 236.206452 171.78 
L 234.619355 167.45112 
L 233.032258 171.163337 
L 231.445161 168.28344 
L 228.270968 172.8 
L 226.683871 160.9272 
L 225.096774 168.91992 
L 223.509677 169.91748 
L 221.922581 166.8636 
L 220.335484 171.68616 
L 218.748387 172.45116 
L 217.16129 170.79876 
L 215.574194 172.341 
L 213.987097 161.091566 
L 212.4 167.33484 
L 210.812903 168.78834 
L 206.051613 171.50256 
L 204.464516 170.97624 
L 202.877419 155.00916 
L 201.290323 169.993543 
L 199.703226 164.875824 
L 198.116129 160.64568 
L 196.529032 170.48664 
L 194.941935 171.47808 
L 193.354839 155.33964 
L 191.767742 170.30304 
L 190.180645 169.23357 
L 188.593548 165.05208 
L 187.006452 163.19772 
L 185.419355 170.89056 
L 183.832258 163.0692 
L 180.658065 168.004368 
L 179.070968 170.1378 
L 177.483871 163.294766 
L 175.896774 165.85074 
L 174.309677 164.64816 
L 171.135484 166.96152 
L 169.548387 161.9064 
L 167.96129 161.940895 
L 164.787097 162.73872 
L 161.612903 170.70696 
L 160.025806 163.0692 
L 158.43871 162.301418 
L 156.851613 162.97536 
L 155.264516 155.233152 
L 153.677419 167.8428 
L 148.916129 58.45392 
L 147.329032 140.00088 
L 145.741935 159.65883 
L 144.154839 163.64448 
L 142.567742 161.6922 
L 139.393548 171.62496 
L 137.806452 156.870864 
L 136.219355 150.79095 
L 134.632258 162.40212 
L 133.045161 127.456046 
L 128.283871 140.04576 
L 126.696774 122.62212 
L 125.109677 107.928 
L 123.522581 141.895113 
L 121.935484 109.53144 
L 120.348387 105.2964 
L 115.587097 59.84928 
L 114 120.99624 
L 112.412903 136.657029 
L 110.825806 105.34536 
z
" style="fill:#008000;fill-opacity:0.3;"/>
   </g>
   <g id="matplotlib.axis_1">
    <g id="xtick_1">
     <g id="line2d_1">
      <path clip-path="url(#p047e5f67fb)" d="M 64.8 172.8 
L 64.8 25.92 
" style="fill:none;stroke:#808080;stroke-dasharray:6.4,1.6,1,1.6;stroke-dashoffset:0;stroke-opacity:0.3;"/>
     </g>
     <g id="line2d_2">
      <defs>
       <path d="M 0 0 
L 0 3.5 
" id="m186dd576c2" style="stroke:#000000;stroke-width:0.8;"/>
      </defs>
      <g>
       <use style="stroke:#000000;stroke-width:0.8;" x="64.8" xlink:href="#m186dd576c2" y="172.8"/>
      </g>
     </g>
     <g id="text_1">
      <!-- 2020-03 -->
      <g transform="translate(43.908594 187.398438)scale(0.1 -0.1)">
       <defs>
        <path d="M 19.1875 8.296875 
L 53.609375 8.296875 
L 53.609375 0 
L 7.328125 0 
L 7.328125 8.296875 
Q 12.9375 14.109375 22.625 23.890625 
Q 32.328125 33.6875 34.8125 36.53125 
Q 39.546875 41.84375 41.421875 45.53125 
Q 43.3125 49.21875 43.3125 52.78125 
Q 43.3125 58.59375 39.234375 62.25 
Q 35.15625 65.921875 28.609375 65.921875 
Q 23.96875 65.921875 18.8125 64.3125 
Q 13.671875 62.703125 7.8125 59.421875 
L 7.8125 69.390625 
Q 13.765625 71.78125 18.9375 73 
Q 24.125 74.21875 28.421875 74.21875 
Q 39.75 74.21875 46.484375 68.546875 
Q 53.21875 62.890625 53.21875 53.421875 
Q 53.21875 48.921875 51.53125 44.890625 
Q 49.859375 40.875 45.40625 35.40625 
Q 44.1875 33.984375 37.640625 27.21875 
Q 31.109375 20.453125 19.1875 8.296875 
z
" id="DejaVuSans-50"/>
        <path d="M 31.78125 66.40625 
Q 24.171875 66.40625 20.328125 58.90625 
Q 16.5 51.421875 16.5 36.375 
Q 16.5 21.390625 20.328125 13.890625 
Q 24.171875 6.390625 31.78125 6.390625 
Q 39.453125 6.390625 43.28125 13.890625 
Q 47.125 21.390625 47.125 36.375 
Q 47.125 51.421875 43.28125 58.90625 
Q 39.453125 66.40625 31.78125 66.40625 
z
M 31.78125 74.21875 
Q 44.046875 74.21875 50.515625 64.515625 
Q 56.984375 54.828125 56.984375 36.375 
Q 56.984375 17.96875 50.515625 8.265625 
Q 44.046875 -1.421875 31.78125 -1.421875 
Q 19.53125 -1.421875 13.0625 8.265625 
Q 6.59375 17.96875 6.59375 36.375 
Q 6.59375 54.828125 13.0625 64.515625 
Q 19.53125 74.21875 31.78125 74.21875 
z
" id="DejaVuSans-48"/>
        <path d="M 4.890625 31.390625 
L 31.203125 31.390625 
L 31.203125 23.390625 
L 4.890625 23.390625 
z
" id="DejaVuSans-45"/>
        <path d="M 40.578125 39.3125 
Q 47.65625 37.796875 51.625 33 
Q 55.609375 28.21875 55.609375 21.1875 
Q 55.609375 10.40625 48.1875 4.484375 
Q 40.765625 -1.421875 27.09375 -1.421875 
Q 22.515625 -1.421875 17.65625 -0.515625 
Q 12.796875 0.390625 7.625 2.203125 
L 7.625 11.71875 
Q 11.71875 9.328125 16.59375 8.109375 
Q 21.484375 6.890625 26.8125 6.890625 
Q 36.078125 6.890625 40.9375 10.546875 
Q 45.796875 14.203125 45.796875 21.1875 
Q 45.796875 27.640625 41.28125 31.265625 
Q 36.765625 34.90625 28.71875 34.90625 
L 20.21875 34.90625 
L 20.21875 43.015625 
L 29.109375 43.015625 
Q 36.375 43.015625 40.234375 45.921875 
Q 44.09375 48.828125 44.09375 54.296875 
Q 44.09375 59.90625 40.109375 62.90625 
Q 36.140625 65.921875 28.71875 65.921875 
Q 24.65625 65.921875 20.015625 65.03125 
Q 15.375 64.15625 9.8125 62.3125 
L 9.8125 71.09375 
Q 15.4375 72.65625 20.34375 73.4375 
Q 25.25 74.21875 29.59375 74.21875 
Q 40.828125 74.21875 47.359375 69.109375 
Q 53.90625 64.015625 53.90625 55.328125 
Q 53.90625 49.265625 50.4375 45.09375 
Q 46.96875 40.921875 40.578125 39.3125 
z
" id="DejaVuSans-51"/>
       </defs>
       <use xlink:href="#DejaVuSans-50"/>
       <use x="63.623047" xlink:href="#DejaVuSans-48"/>
       <use x="127.246094" xlink:href="#DejaVuSans-50"/>
       <use x="190.869141" xlink:href="#DejaVuSans-48"/>
       <use x="254.492188" xlink:href="#DejaVuSans-45"/>
       <use x="290.576172" xlink:href="#DejaVuSans-48"/>
       <use x="354.199219" xlink:href="#DejaVuSans-51"/>
      </g>
     </g>
    </g>
    <g id="xtick_2">
     <g id="line2d_3">
      <path clip-path="url(#p047e5f67fb)" d="M 161.612903 172.8 
L 161.612903 25.92 
" style="fill:none;stroke:#808080;stroke-dasharray:6.4,1.6,1,1.6;stroke-dashoffset:0;stroke-opacity:0.3;"/>
     </g>
     <g id="line2d_4">
      <g>
       <use style="stroke:#000000;stroke-width:0.8;" x="161.612903" xlink:href="#m186dd576c2" y="172.8"/>
      </g>
     </g>
     <g id="text_2">
      <!-- 2020-05 -->
      <g transform="translate(140.721497 187.398438)scale(0.1 -0.1)">
       <defs>
        <path d="M 10.796875 72.90625 
L 49.515625 72.90625 
L 49.515625 64.59375 
L 19.828125 64.59375 
L 19.828125 46.734375 
Q 21.96875 47.46875 24.109375 47.828125 
Q 26.265625 48.1875 28.421875 48.1875 
Q 40.625 48.1875 47.75 41.5 
Q 54.890625 34.8125 54.890625 23.390625 
Q 54.890625 11.625 47.5625 5.09375 
Q 40.234375 -1.421875 26.90625 -1.421875 
Q 22.3125 -1.421875 17.546875 -0.640625 
Q 12.796875 0.140625 7.71875 1.703125 
L 7.71875 11.625 
Q 12.109375 9.234375 16.796875 8.0625 
Q 21.484375 6.890625 26.703125 6.890625 
Q 35.15625 6.890625 40.078125 11.328125 
Q 45.015625 15.765625 45.015625 23.390625 
Q 45.015625 31 40.078125 35.4375 
Q 35.15625 39.890625 26.703125 39.890625 
Q 22.75 39.890625 18.8125 39.015625 
Q 14.890625 38.140625 10.796875 36.28125 
z
" id="DejaVuSans-53"/>
       </defs>
       <use xlink:href="#DejaVuSans-50"/>
       <use x="63.623047" xlink:href="#DejaVuSans-48"/>
       <use x="127.246094" xlink:href="#DejaVuSans-50"/>
       <use x="190.869141" xlink:href="#DejaVuSans-48"/>
       <use x="254.492188" xlink:href="#DejaVuSans-45"/>
       <use x="290.576172" xlink:href="#DejaVuSans-48"/>
       <use x="354.199219" xlink:href="#DejaVuSans-53"/>
      </g>
     </g>
    </g>
    <g id="xtick_3">
     <g id="line2d_5">
      <path clip-path="url(#p047e5f67fb)" d="M 258.425806 172.8 
L 258.425806 25.92 
" style="fill:none;stroke:#808080;stroke-dasharray:6.4,1.6,1,1.6;stroke-dashoffset:0;stroke-opacity:0.3;"/>
     </g>
     <g id="line2d_6">
      <g>
       <use style="stroke:#000000;stroke-width:0.8;" x="258.425806" xlink:href="#m186dd576c2" y="172.8"/>
      </g>
     </g>
     <g id="text_3">
      <!-- 2020-07 -->
      <g transform="translate(237.5344 187.398438)scale(0.1 -0.1)">
       <defs>
        <path d="M 8.203125 72.90625 
L 55.078125 72.90625 
L 55.078125 68.703125 
L 28.609375 0 
L 18.3125 0 
L 43.21875 64.59375 
L 8.203125 64.59375 
z
" id="DejaVuSans-55"/>
       </defs>
       <use xlink:href="#DejaVuSans-50"/>
       <use x="63.623047" xlink:href="#DejaVuSans-48"/>
       <use x="127.246094" xlink:href="#DejaVuSans-50"/>
       <use x="190.869141" xlink:href="#DejaVuSans-48"/>
       <use x="254.492188" xlink:href="#DejaVuSans-45"/>
       <use x="290.576172" xlink:href="#DejaVuSans-48"/>
       <use x="354.199219" xlink:href="#DejaVuSans-55"/>
      </g>
     </g>
    </g>
    <g id="xtick_4">
     <g id="line2d_7">
      <path clip-path="url(#p047e5f67fb)" d="M 356.825806 172.8 
L 356.825806 25.92 
" style="fill:none;stroke:#808080;stroke-dasharray:6.4,1.6,1,1.6;stroke-dashoffset:0;stroke-opacity:0.3;"/>
     </g>
     <g id="line2d_8">
      <g>
       <use style="stroke:#000000;stroke-width:0.8;" x="356.825806" xlink:href="#m186dd576c2" y="172.8"/>
      </g>
     </g>
     <g id="text_4">
      <!-- 2020-09 -->
      <g transform="translate(335.9344 187.398438)scale(0.1 -0.1)">
       <defs>
        <path d="M 10.984375 1.515625 
L 10.984375 10.5 
Q 14.703125 8.734375 18.5 7.8125 
Q 22.3125 6.890625 25.984375 6.890625 
Q 35.75 6.890625 40.890625 13.453125 
Q 46.046875 20.015625 46.78125 33.40625 
Q 43.953125 29.203125 39.59375 26.953125 
Q 35.25 24.703125 29.984375 24.703125 
Q 19.046875 24.703125 12.671875 31.3125 
Q 6.296875 37.9375 6.296875 49.421875 
Q 6.296875 60.640625 12.9375 67.421875 
Q 19.578125 74.21875 30.609375 74.21875 
Q 43.265625 74.21875 49.921875 64.515625 
Q 56.59375 54.828125 56.59375 36.375 
Q 56.59375 19.140625 48.40625 8.859375 
Q 40.234375 -1.421875 26.421875 -1.421875 
Q 22.703125 -1.421875 18.890625 -0.6875 
Q 15.09375 0.046875 10.984375 1.515625 
z
M 30.609375 32.421875 
Q 37.25 32.421875 41.125 36.953125 
Q 45.015625 41.5 45.015625 49.421875 
Q 45.015625 57.28125 41.125 61.84375 
Q 37.25 66.40625 30.609375 66.40625 
Q 23.96875 66.40625 20.09375 61.84375 
Q 16.21875 57.28125 16.21875 49.421875 
Q 16.21875 41.5 20.09375 36.953125 
Q 23.96875 32.421875 30.609375 32.421875 
z
" id="DejaVuSans-57"/>
       </defs>
       <use xlink:href="#DejaVuSans-50"/>
       <use x="63.623047" xlink:href="#DejaVuSans-48"/>
       <use x="127.246094" xlink:href="#DejaVuSans-50"/>
       <use x="190.869141" xlink:href="#DejaVuSans-48"/>
       <use x="254.492188" xlink:href="#DejaVuSans-45"/>
       <use x="290.576172" xlink:href="#DejaVuSans-48"/>
       <use x="354.199219" xlink:href="#DejaVuSans-57"/>
      </g>
     </g>
    </g>
    <g id="xtick_5">
     <g id="line2d_9">
      <path clip-path="url(#p047e5f67fb)" d="M 453.63871 172.8 
L 453.63871 25.92 
" style="fill:none;stroke:#808080;stroke-dasharray:6.4,1.6,1,1.6;stroke-dashoffset:0;stroke-opacity:0.3;"/>
     </g>
     <g id="line2d_10">
      <g>
       <use style="stroke:#000000;stroke-width:0.8;" x="453.63871" xlink:href="#m186dd576c2" y="172.8"/>
      </g>
     </g>
     <g id="text_5">
      <!-- 2020-11 -->
      <g transform="translate(432.747303 187.398438)scale(0.1 -0.1)">
       <defs>
        <path d="M 12.40625 8.296875 
L 28.515625 8.296875 
L 28.515625 63.921875 
L 10.984375 60.40625 
L 10.984375 69.390625 
L 28.421875 72.90625 
L 38.28125 72.90625 
L 38.28125 8.296875 
L 54.390625 8.296875 
L 54.390625 0 
L 12.40625 0 
z
" id="DejaVuSans-49"/>
       </defs>
       <use xlink:href="#DejaVuSans-50"/>
       <use x="63.623047" xlink:href="#DejaVuSans-48"/>
       <use x="127.246094" xlink:href="#DejaVuSans-50"/>
       <use x="190.869141" xlink:href="#DejaVuSans-48"/>
       <use x="254.492188" xlink:href="#DejaVuSans-45"/>
       <use x="290.576172" xlink:href="#DejaVuSans-49"/>
       <use x="354.199219" xlink:href="#DejaVuSans-49"/>
      </g>
     </g>
    </g>
    <g id="xtick_6">
     <g id="line2d_11">
      <path clip-path="url(#p047e5f67fb)" d="M 550.451613 172.8 
L 550.451613 25.92 
" style="fill:none;stroke:#808080;stroke-dasharray:6.4,1.6,1,1.6;stroke-dashoffset:0;stroke-opacity:0.3;"/>
     </g>
     <g id="line2d_12">
      <g>
       <use style="stroke:#000000;stroke-width:0.8;" x="550.451613" xlink:href="#m186dd576c2" y="172.8"/>
      </g>
     </g>
     <g id="text_6">
      <!-- 2021-01 -->
      <g transform="translate(529.560207 187.398438)scale(0.1 -0.1)">
       <use xlink:href="#DejaVuSans-50"/>
       <use x="63.623047" xlink:href="#DejaVuSans-48"/>
       <use x="127.246094" xlink:href="#DejaVuSans-50"/>
       <use x="190.869141" xlink:href="#DejaVuSans-49"/>
       <use x="254.492188" xlink:href="#DejaVuSans-45"/>
       <use x="290.576172" xlink:href="#DejaVuSans-48"/>
       <use x="354.199219" xlink:href="#DejaVuSans-49"/>
      </g>
     </g>
    </g>
    <g id="xtick_7">
     <g id="line2d_13">
      <path clip-path="url(#p047e5f67fb)" d="M 644.090323 172.8 
L 644.090323 25.92 
" style="fill:none;stroke:#808080;stroke-dasharray:6.4,1.6,1,1.6;stroke-dashoffset:0;stroke-opacity:0.3;"/>
     </g>
     <g id="line2d_14">
      <g>
       <use style="stroke:#000000;stroke-width:0.8;" x="644.090323" xlink:href="#m186dd576c2" y="172.8"/>
      </g>
     </g>
     <g id="text_7">
      <!-- 2021-03 -->
      <g transform="translate(623.198916 187.398438)scale(0.1 -0.1)">
       <use xlink:href="#DejaVuSans-50"/>
       <use x="63.623047" xlink:href="#DejaVuSans-48"/>
       <use x="127.246094" xlink:href="#DejaVuSans-50"/>
       <use x="190.869141" xlink:href="#DejaVuSans-49"/>
       <use x="254.492188" xlink:href="#DejaVuSans-45"/>
       <use x="290.576172" xlink:href="#DejaVuSans-48"/>
       <use x="354.199219" xlink:href="#DejaVuSans-51"/>
      </g>
     </g>
    </g>
    <g id="text_8">
     <!-- Datum -->
     <g transform="translate(343.086719 201.076562)scale(0.1 -0.1)">
      <defs>
       <path d="M 19.671875 64.796875 
L 19.671875 8.109375 
L 31.59375 8.109375 
Q 46.6875 8.109375 53.6875 14.9375 
Q 60.6875 21.78125 60.6875 36.53125 
Q 60.6875 51.171875 53.6875 57.984375 
Q 46.6875 64.796875 31.59375 64.796875 
z
M 9.8125 72.90625 
L 30.078125 72.90625 
Q 51.265625 72.90625 61.171875 64.09375 
Q 71.09375 55.28125 71.09375 36.53125 
Q 71.09375 17.671875 61.125 8.828125 
Q 51.171875 0 30.078125 0 
L 9.8125 0 
z
" id="DejaVuSans-68"/>
       <path d="M 34.28125 27.484375 
Q 23.390625 27.484375 19.1875 25 
Q 14.984375 22.515625 14.984375 16.5 
Q 14.984375 11.71875 18.140625 8.90625 
Q 21.296875 6.109375 26.703125 6.109375 
Q 34.1875 6.109375 38.703125 11.40625 
Q 43.21875 16.703125 43.21875 25.484375 
L 43.21875 27.484375 
z
M 52.203125 31.203125 
L 52.203125 0 
L 43.21875 0 
L 43.21875 8.296875 
Q 40.140625 3.328125 35.546875 0.953125 
Q 30.953125 -1.421875 24.3125 -1.421875 
Q 15.921875 -1.421875 10.953125 3.296875 
Q 6 8.015625 6 15.921875 
Q 6 25.140625 12.171875 29.828125 
Q 18.359375 34.515625 30.609375 34.515625 
L 43.21875 34.515625 
L 43.21875 35.40625 
Q 43.21875 41.609375 39.140625 45 
Q 35.0625 48.390625 27.6875 48.390625 
Q 23 48.390625 18.546875 47.265625 
Q 14.109375 46.140625 10.015625 43.890625 
L 10.015625 52.203125 
Q 14.9375 54.109375 19.578125 55.046875 
Q 24.21875 56 28.609375 56 
Q 40.484375 56 46.34375 49.84375 
Q 52.203125 43.703125 52.203125 31.203125 
z
" id="DejaVuSans-97"/>
       <path d="M 18.3125 70.21875 
L 18.3125 54.6875 
L 36.8125 54.6875 
L 36.8125 47.703125 
L 18.3125 47.703125 
L 18.3125 18.015625 
Q 18.3125 11.328125 20.140625 9.421875 
Q 21.96875 7.515625 27.59375 7.515625 
L 36.8125 7.515625 
L 36.8125 0 
L 27.59375 0 
Q 17.1875 0 13.234375 3.875 
Q 9.28125 7.765625 9.28125 18.015625 
L 9.28125 47.703125 
L 2.6875 47.703125 
L 2.6875 54.6875 
L 9.28125 54.6875 
L 9.28125 70.21875 
z
" id="DejaVuSans-116"/>
       <path d="M 8.5 21.578125 
L 8.5 54.6875 
L 17.484375 54.6875 
L 17.484375 21.921875 
Q 17.484375 14.15625 20.5 10.265625 
Q 23.53125 6.390625 29.59375 6.390625 
Q 36.859375 6.390625 41.078125 11.03125 
Q 45.3125 15.671875 45.3125 23.6875 
L 45.3125 54.6875 
L 54.296875 54.6875 
L 54.296875 0 
L 45.3125 0 
L 45.3125 8.40625 
Q 42.046875 3.421875 37.71875 1 
Q 33.40625 -1.421875 27.6875 -1.421875 
Q 18.265625 -1.421875 13.375 4.4375 
Q 8.5 10.296875 8.5 21.578125 
z
M 31.109375 56 
z
" id="DejaVuSans-117"/>
       <path d="M 52 44.1875 
Q 55.375 50.25 60.0625 53.125 
Q 64.75 56 71.09375 56 
Q 79.640625 56 84.28125 50.015625 
Q 88.921875 44.046875 88.921875 33.015625 
L 88.921875 0 
L 79.890625 0 
L 79.890625 32.71875 
Q 79.890625 40.578125 77.09375 44.375 
Q 74.3125 48.1875 68.609375 48.1875 
Q 61.625 48.1875 57.5625 43.546875 
Q 53.515625 38.921875 53.515625 30.90625 
L 53.515625 0 
L 44.484375 0 
L 44.484375 32.71875 
Q 44.484375 40.625 41.703125 44.40625 
Q 38.921875 48.1875 33.109375 48.1875 
Q 26.21875 48.1875 22.15625 43.53125 
Q 18.109375 38.875 18.109375 30.90625 
L 18.109375 0 
L 9.078125 0 
L 9.078125 54.6875 
L 18.109375 54.6875 
L 18.109375 46.1875 
Q 21.1875 51.21875 25.484375 53.609375 
Q 29.78125 56 35.6875 56 
Q 41.65625 56 45.828125 52.96875 
Q 50 49.953125 52 44.1875 
z
" id="DejaVuSans-109"/>
      </defs>
      <use xlink:href="#DejaVuSans-68"/>
      <use x="77.001953" xlink:href="#DejaVuSans-97"/>
      <use x="138.28125" xlink:href="#DejaVuSans-116"/>
      <use x="177.490234" xlink:href="#DejaVuSans-117"/>
      <use x="240.869141" xlink:href="#DejaVuSans-109"/>
     </g>
    </g>
   </g>
   <g id="matplotlib.axis_2">
    <g id="ytick_1">
     <g id="line2d_15">
      <path clip-path="url(#p047e5f67fb)" d="M 64.8 172.8 
L 655.2 172.8 
" style="fill:none;stroke:#808080;stroke-dasharray:6.4,1.6,1,1.6;stroke-dashoffset:0;stroke-opacity:0.3;"/>
     </g>
     <g id="line2d_16">
      <defs>
       <path d="M 0 0 
L -3.5 0 
" id="mfd41a95a68" style="stroke:#000000;stroke-width:0.8;"/>
      </defs>
      <g>
       <use style="stroke:#000000;stroke-width:0.8;" x="64.8" xlink:href="#mfd41a95a68" y="172.8"/>
      </g>
     </g>
     <g id="text_9">
      <!-- 0 -->
      <g transform="translate(51.4375 176.599219)scale(0.1 -0.1)">
       <use xlink:href="#DejaVuSans-48"/>
      </g>
     </g>
    </g>
    <g id="ytick_2">
     <g id="line2d_17">
      <path clip-path="url(#p047e5f67fb)" d="M 64.8 136.08 
L 655.2 136.08 
" style="fill:none;stroke:#808080;stroke-dasharray:6.4,1.6,1,1.6;stroke-dashoffset:0;stroke-opacity:0.3;"/>
     </g>
     <g id="line2d_18">
      <g>
       <use style="stroke:#000000;stroke-width:0.8;" x="64.8" xlink:href="#mfd41a95a68" y="136.08"/>
      </g>
     </g>
     <g id="text_10">
      <!-- 1000 -->
      <g transform="translate(32.35 139.879219)scale(0.1 -0.1)">
       <use xlink:href="#DejaVuSans-49"/>
       <use x="63.623047" xlink:href="#DejaVuSans-48"/>
       <use x="127.246094" xlink:href="#DejaVuSans-48"/>
       <use x="190.869141" xlink:href="#DejaVuSans-48"/>
      </g>
     </g>
    </g>
    <g id="ytick_3">
     <g id="line2d_19">
      <path clip-path="url(#p047e5f67fb)" d="M 64.8 99.36 
L 655.2 99.36 
" style="fill:none;stroke:#808080;stroke-dasharray:6.4,1.6,1,1.6;stroke-dashoffset:0;stroke-opacity:0.3;"/>
     </g>
     <g id="line2d_20">
      <g>
       <use style="stroke:#000000;stroke-width:0.8;" x="64.8" xlink:href="#mfd41a95a68" y="99.36"/>
      </g>
     </g>
     <g id="text_11">
      <!-- 2000 -->
      <g transform="translate(32.35 103.159219)scale(0.1 -0.1)">
       <use xlink:href="#DejaVuSans-50"/>
       <use x="63.623047" xlink:href="#DejaVuSans-48"/>
       <use x="127.246094" xlink:href="#DejaVuSans-48"/>
       <use x="190.869141" xlink:href="#DejaVuSans-48"/>
      </g>
     </g>
    </g>
    <g id="ytick_4">
     <g id="line2d_21">
      <path clip-path="url(#p047e5f67fb)" d="M 64.8 62.64 
L 655.2 62.64 
" style="fill:none;stroke:#808080;stroke-dasharray:6.4,1.6,1,1.6;stroke-dashoffset:0;stroke-opacity:0.3;"/>
     </g>
     <g id="line2d_22">
      <g>
       <use style="stroke:#000000;stroke-width:0.8;" x="64.8" xlink:href="#mfd41a95a68" y="62.64"/>
      </g>
     </g>
     <g id="text_12">
      <!-- 3000 -->
      <g transform="translate(32.35 66.439219)scale(0.1 -0.1)">
       <use xlink:href="#DejaVuSans-51"/>
       <use x="63.623047" xlink:href="#DejaVuSans-48"/>
       <use x="127.246094" xlink:href="#DejaVuSans-48"/>
       <use x="190.869141" xlink:href="#DejaVuSans-48"/>
      </g>
     </g>
    </g>
    <g id="ytick_5">
     <g id="line2d_23">
      <path clip-path="url(#p047e5f67fb)" d="M 64.8 25.92 
L 655.2 25.92 
" style="fill:none;stroke:#808080;stroke-dasharray:6.4,1.6,1,1.6;stroke-dashoffset:0;stroke-opacity:0.3;"/>
     </g>
     <g id="line2d_24">
      <g>
       <use style="stroke:#000000;stroke-width:0.8;" x="64.8" xlink:href="#mfd41a95a68" y="25.92"/>
      </g>
     </g>
     <g id="text_13">
      <!-- 4000 -->
      <g transform="translate(32.35 29.719219)scale(0.1 -0.1)">
       <defs>
        <path d="M 37.796875 64.3125 
L 12.890625 25.390625 
L 37.796875 25.390625 
z
M 35.203125 72.90625 
L 47.609375 72.90625 
L 47.609375 25.390625 
L 58.015625 25.390625 
L 58.015625 17.1875 
L 47.609375 17.1875 
L 47.609375 0 
L 37.796875 0 
L 37.796875 17.1875 
L 4.890625 17.1875 
L 4.890625 26.703125 
z
" id="DejaVuSans-52"/>
       </defs>
       <use xlink:href="#DejaVuSans-52"/>
       <use x="63.623047" xlink:href="#DejaVuSans-48"/>
       <use x="127.246094" xlink:href="#DejaVuSans-48"/>
       <use x="190.869141" xlink:href="#DejaVuSans-48"/>
      </g>
     </g>
    </g>
    <g id="text_14">
     <!-- RNA per milliliter -->
     <g transform="translate(26.270312 141.776406)rotate(-90)scale(0.1 -0.1)">
      <defs>
       <path d="M 44.390625 34.1875 
Q 47.5625 33.109375 50.5625 29.59375 
Q 53.5625 26.078125 56.59375 19.921875 
L 66.609375 0 
L 56 0 
L 46.6875 18.703125 
Q 43.0625 26.03125 39.671875 28.421875 
Q 36.28125 30.8125 30.421875 30.8125 
L 19.671875 30.8125 
L 19.671875 0 
L 9.8125 0 
L 9.8125 72.90625 
L 32.078125 72.90625 
Q 44.578125 72.90625 50.734375 67.671875 
Q 56.890625 62.453125 56.890625 51.90625 
Q 56.890625 45.015625 53.6875 40.46875 
Q 50.484375 35.9375 44.390625 34.1875 
z
M 19.671875 64.796875 
L 19.671875 38.921875 
L 32.078125 38.921875 
Q 39.203125 38.921875 42.84375 42.21875 
Q 46.484375 45.515625 46.484375 51.90625 
Q 46.484375 58.296875 42.84375 61.546875 
Q 39.203125 64.796875 32.078125 64.796875 
z
" id="DejaVuSans-82"/>
       <path d="M 9.8125 72.90625 
L 23.09375 72.90625 
L 55.421875 11.921875 
L 55.421875 72.90625 
L 64.984375 72.90625 
L 64.984375 0 
L 51.703125 0 
L 19.390625 60.984375 
L 19.390625 0 
L 9.8125 0 
z
" id="DejaVuSans-78"/>
       <path d="M 34.1875 63.1875 
L 20.796875 26.90625 
L 47.609375 26.90625 
z
M 28.609375 72.90625 
L 39.796875 72.90625 
L 67.578125 0 
L 57.328125 0 
L 50.6875 18.703125 
L 17.828125 18.703125 
L 11.1875 0 
L 0.78125 0 
z
" id="DejaVuSans-65"/>
       <path id="DejaVuSans-32"/>
       <path d="M 18.109375 8.203125 
L 18.109375 -20.796875 
L 9.078125 -20.796875 
L 9.078125 54.6875 
L 18.109375 54.6875 
L 18.109375 46.390625 
Q 20.953125 51.265625 25.265625 53.625 
Q 29.59375 56 35.59375 56 
Q 45.5625 56 51.78125 48.09375 
Q 58.015625 40.1875 58.015625 27.296875 
Q 58.015625 14.40625 51.78125 6.484375 
Q 45.5625 -1.421875 35.59375 -1.421875 
Q 29.59375 -1.421875 25.265625 0.953125 
Q 20.953125 3.328125 18.109375 8.203125 
z
M 48.6875 27.296875 
Q 48.6875 37.203125 44.609375 42.84375 
Q 40.53125 48.484375 33.40625 48.484375 
Q 26.265625 48.484375 22.1875 42.84375 
Q 18.109375 37.203125 18.109375 27.296875 
Q 18.109375 17.390625 22.1875 11.75 
Q 26.265625 6.109375 33.40625 6.109375 
Q 40.53125 6.109375 44.609375 11.75 
Q 48.6875 17.390625 48.6875 27.296875 
z
" id="DejaVuSans-112"/>
       <path d="M 56.203125 29.59375 
L 56.203125 25.203125 
L 14.890625 25.203125 
Q 15.484375 15.921875 20.484375 11.0625 
Q 25.484375 6.203125 34.421875 6.203125 
Q 39.59375 6.203125 44.453125 7.46875 
Q 49.3125 8.734375 54.109375 11.28125 
L 54.109375 2.78125 
Q 49.265625 0.734375 44.1875 -0.34375 
Q 39.109375 -1.421875 33.890625 -1.421875 
Q 20.796875 -1.421875 13.15625 6.1875 
Q 5.515625 13.8125 5.515625 26.8125 
Q 5.515625 40.234375 12.765625 48.109375 
Q 20.015625 56 32.328125 56 
Q 43.359375 56 49.78125 48.890625 
Q 56.203125 41.796875 56.203125 29.59375 
z
M 47.21875 32.234375 
Q 47.125 39.59375 43.09375 43.984375 
Q 39.0625 48.390625 32.421875 48.390625 
Q 24.90625 48.390625 20.390625 44.140625 
Q 15.875 39.890625 15.1875 32.171875 
z
" id="DejaVuSans-101"/>
       <path d="M 41.109375 46.296875 
Q 39.59375 47.171875 37.8125 47.578125 
Q 36.03125 48 33.890625 48 
Q 26.265625 48 22.1875 43.046875 
Q 18.109375 38.09375 18.109375 28.8125 
L 18.109375 0 
L 9.078125 0 
L 9.078125 54.6875 
L 18.109375 54.6875 
L 18.109375 46.1875 
Q 20.953125 51.171875 25.484375 53.578125 
Q 30.03125 56 36.53125 56 
Q 37.453125 56 38.578125 55.875 
Q 39.703125 55.765625 41.0625 55.515625 
z
" id="DejaVuSans-114"/>
       <path d="M 9.421875 54.6875 
L 18.40625 54.6875 
L 18.40625 0 
L 9.421875 0 
z
M 9.421875 75.984375 
L 18.40625 75.984375 
L 18.40625 64.59375 
L 9.421875 64.59375 
z
" id="DejaVuSans-105"/>
       <path d="M 9.421875 75.984375 
L 18.40625 75.984375 
L 18.40625 0 
L 9.421875 0 
z
" id="DejaVuSans-108"/>
      </defs>
      <use xlink:href="#DejaVuSans-82"/>
      <use x="69.482422" xlink:href="#DejaVuSans-78"/>
      <use x="144.287109" xlink:href="#DejaVuSans-65"/>
      <use x="212.695312" xlink:href="#DejaVuSans-32"/>
      <use x="244.482422" xlink:href="#DejaVuSans-112"/>
      <use x="307.958984" xlink:href="#DejaVuSans-101"/>
      <use x="369.482422" xlink:href="#DejaVuSans-114"/>
      <use x="410.595703" xlink:href="#DejaVuSans-32"/>
      <use x="442.382812" xlink:href="#DejaVuSans-109"/>
      <use x="539.794922" xlink:href="#DejaVuSans-105"/>
      <use x="567.578125" xlink:href="#DejaVuSans-108"/>
      <use x="595.361328" xlink:href="#DejaVuSans-108"/>
      <use x="623.144531" xlink:href="#DejaVuSans-105"/>
      <use x="650.927734" xlink:href="#DejaVuSans-108"/>
      <use x="678.710938" xlink:href="#DejaVuSans-105"/>
      <use x="706.494141" xlink:href="#DejaVuSans-116"/>
      <use x="745.703125" xlink:href="#DejaVuSans-101"/>
      <use x="807.226562" xlink:href="#DejaVuSans-114"/>
     </g>
    </g>
   </g>
   <g id="line2d_25">
    <path clip-path="url(#p047e5f67fb)" d="M 110.825806 98.786568 
L 115.587097 110.714731 
L 120.348387 114.690785 
L 123.522581 122.642894 
L 128.283871 132.113336 
L 133.045161 135.06019 
L 134.632258 137.917001 
L 137.806452 142.867681 
L 139.393548 144.983666 
L 142.567742 146.835439 
L 144.154839 148.447674 
L 145.741935 149.465364 
L 148.916129 150.889112 
L 153.677419 152.701414 
L 156.851613 155.52673 
L 158.43871 156.745568 
L 161.612903 158.869332 
L 167.96129 160.691006 
L 171.135484 162.68983 
L 174.309677 163.676277 
L 175.896774 164.66775 
L 177.483871 165.475465 
L 180.658065 165.854453 
L 187.006452 165.989155 
L 199.703226 166.571594 
L 204.464516 167.13476 
L 206.051613 167.359262 
L 210.812903 167.561095 
L 215.574194 168.195294 
L 218.748387 168.659793 
L 228.270968 169.658657 
L 231.445161 169.829057 
L 239.380645 170.821323 
L 244.141935 171.135522 
L 247.316129 171.457397 
L 255.251613 171.782451 
L 260.012903 171.941334 
L 269.535484 171.921367 
L 274.296774 171.593302 
L 277.470968 171.233036 
L 280.645161 170.708363 
L 285.406452 169.631514 
L 290.167742 168.352449 
L 298.103226 166.004976 
L 301.277419 165.411325 
L 309.212903 164.212636 
L 310.8 164.141294 
L 318.735484 164.492313 
L 325.083871 164.299723 
L 326.670968 164.274921 
L 329.845161 164.589696 
L 333.019355 164.806225 
L 339.367742 165.293584 
L 347.303226 166.592419 
L 350.477419 166.738001 
L 355.23871 166.601921 
L 358.412903 166.384657 
L 361.587097 165.944797 
L 372.696774 163.812771 
L 375.870968 163.115035 
L 379.045161 162.118234 
L 382.219355 160.743857 
L 383.806452 159.999735 
L 385.393548 159.109376 
L 388.567742 156.270338 
L 391.741935 151.590157 
L 393.329032 148.943902 
L 394.916129 146.039417 
L 398.090323 139.555811 
L 399.677419 135.947971 
L 406.025806 120.639693 
L 409.2 114.471804 
L 412.374194 110.934902 
L 413.96129 109.499938 
L 415.548387 108.355776 
L 417.135484 106.681505 
L 418.722581 105.436738 
L 420.309677 104.881776 
L 421.896774 105.060471 
L 425.070968 104.588249 
L 426.658065 103.858889 
L 428.245161 102.114895 
L 429.832258 100.581197 
L 433.006452 96.694319 
L 434.593548 94.381384 
L 436.180645 92.294231 
L 437.767742 92.005481 
L 439.354839 91.548201 
L 440.941935 90.90699 
L 442.529032 89.949868 
L 444.116129 89.599222 
L 445.703226 88.947502 
L 447.290323 89.238766 
L 448.877419 91.005193 
L 453.63871 96.814871 
L 455.225806 99.034565 
L 456.812903 100.508585 
L 461.574194 101.925827 
L 463.16129 102.7313 
L 464.748387 103.692842 
L 466.335484 105.613896 
L 467.922581 107.209383 
L 469.509677 108.288229 
L 471.096774 109.148258 
L 472.683871 110.286376 
L 474.270968 111.778916 
L 475.858065 113.917725 
L 482.206452 126.967028 
L 483.793548 129.725662 
L 485.380645 132.118231 
L 488.554839 135.841037 
L 493.316129 140.774263 
L 494.903226 141.699291 
L 496.490323 142.157507 
L 498.077419 141.948714 
L 499.664516 141.527714 
L 502.83871 141.112924 
L 506.012903 140.180743 
L 507.6 139.563856 
L 512.36129 136.740849 
L 515.535484 133.901264 
L 517.122581 132.121998 
L 521.883871 127.30767 
L 523.470968 125.933318 
L 526.645161 124.111897 
L 528.232258 123.467426 
L 531.406452 122.774589 
L 532.993548 122.55774 
L 534.580645 123.088506 
L 536.167742 123.906018 
L 537.754839 125.35905 
L 539.341935 126.3535 
L 544.103226 130.100088 
L 545.690323 130.93308 
L 547.277419 131.570994 
L 552.03871 132.122775 
L 553.625806 132.147939 
L 555.212903 131.981127 
L 556.8 131.308742 
L 558.387097 130.409983 
L 559.974194 128.837998 
L 561.56129 127.730791 
L 563.148387 126.376116 
L 564.735484 124.85334 
L 566.322581 123.124524 
L 567.909677 121.796088 
L 569.496774 120.794335 
L 574.258065 118.311594 
L 575.845161 116.96252 
L 577.432258 116.004298 
L 579.019355 115.186644 
L 580.606452 115.100898 
L 582.193548 114.831434 
L 583.780645 114.732499 
L 585.367742 114.843108 
L 586.954839 115.1599 
L 590.129032 115.490968 
L 593.303226 116.157043 
L 594.890323 116.724183 
L 598.064516 120.64568 
L 599.651613 122.458881 
L 602.825806 125.235836 
L 604.412903 126.513645 
L 606 127.60077 
L 609.174194 129.174557 
L 610.76129 129.55124 
L 612.348387 129.667952 
L 613.935484 129.977629 
L 615.522581 129.972918 
L 623.458065 126.629299 
L 626.632258 125.66757 
L 636.154839 124.54926 
L 636.154839 124.54926 
" style="fill:none;stroke:#008000;stroke-linecap:square;stroke-width:1.5;"/>
   </g>
   <g id="line2d_26">
    <path clip-path="url(#p047e5f67fb)" d="M 645.677419 172.8 
L 645.677419 25.92 
" style="fill:none;stroke:#ff0000;stroke-linecap:square;stroke-width:0.5;"/>
   </g>
   <g id="patch_3">
    <path d="M 64.8 172.8 
L 64.8 25.92 
" style="fill:none;stroke:#000000;stroke-linecap:square;stroke-linejoin:miter;stroke-width:0.8;"/>
   </g>
   <g id="patch_4">
    <path d="M 655.2 172.8 
L 655.2 25.92 
" style="fill:none;stroke:#000000;stroke-linecap:square;stroke-linejoin:miter;stroke-width:0.8;"/>
   </g>
   <g id="patch_5">
    <path d="M 64.8 172.8 
L 655.2 172.8 
" style="fill:none;stroke:#000000;stroke-linecap:square;stroke-linejoin:miter;stroke-width:0.8;"/>
   </g>
   <g id="patch_6">
    <path d="M 64.8 25.92 
L 655.2 25.92 
" style="fill:none;stroke:#000000;stroke-linecap:square;stroke-linejoin:miter;stroke-width:0.8;"/>
   </g>
   <g id="legend_1">
    <g id="patch_7">
     <path d="M 71.8 48.598125 
L 306.184375 48.598125 
Q 308.184375 48.598125 308.184375 46.598125 
L 308.184375 32.92 
Q 308.184375 30.92 306.184375 30.92 
L 71.8 30.92 
Q 69.8 30.92 69.8 32.92 
L 69.8 46.598125 
Q 69.8 48.598125 71.8 48.598125 
z
" style="fill:#ffffff;opacity:0.8;stroke:#cccccc;stroke-linejoin:miter;"/>
    </g>
    <g id="line2d_27">
     <path d="M 73.8 39.018437 
L 93.8 39.018437 
" style="fill:none;stroke:#008000;stroke-linecap:square;stroke-width:1.5;"/>
    </g>
    <g id="line2d_28"/>
    <g id="text_15">
     <!-- RNA per milliliter rioolwater (gemiddeld) -->
     <g transform="translate(101.8 42.518437)scale(0.1 -0.1)">
      <defs>
       <path d="M 30.609375 48.390625 
Q 23.390625 48.390625 19.1875 42.75 
Q 14.984375 37.109375 14.984375 27.296875 
Q 14.984375 17.484375 19.15625 11.84375 
Q 23.34375 6.203125 30.609375 6.203125 
Q 37.796875 6.203125 41.984375 11.859375 
Q 46.1875 17.53125 46.1875 27.296875 
Q 46.1875 37.015625 41.984375 42.703125 
Q 37.796875 48.390625 30.609375 48.390625 
z
M 30.609375 56 
Q 42.328125 56 49.015625 48.375 
Q 55.71875 40.765625 55.71875 27.296875 
Q 55.71875 13.875 49.015625 6.21875 
Q 42.328125 -1.421875 30.609375 -1.421875 
Q 18.84375 -1.421875 12.171875 6.21875 
Q 5.515625 13.875 5.515625 27.296875 
Q 5.515625 40.765625 12.171875 48.375 
Q 18.84375 56 30.609375 56 
z
" id="DejaVuSans-111"/>
       <path d="M 4.203125 54.6875 
L 13.1875 54.6875 
L 24.421875 12.015625 
L 35.59375 54.6875 
L 46.1875 54.6875 
L 57.421875 12.015625 
L 68.609375 54.6875 
L 77.59375 54.6875 
L 63.28125 0 
L 52.6875 0 
L 40.921875 44.828125 
L 29.109375 0 
L 18.5 0 
z
" id="DejaVuSans-119"/>
       <path d="M 31 75.875 
Q 24.46875 64.65625 21.28125 53.65625 
Q 18.109375 42.671875 18.109375 31.390625 
Q 18.109375 20.125 21.3125 9.0625 
Q 24.515625 -2 31 -13.1875 
L 23.1875 -13.1875 
Q 15.875 -1.703125 12.234375 9.375 
Q 8.59375 20.453125 8.59375 31.390625 
Q 8.59375 42.28125 12.203125 53.3125 
Q 15.828125 64.359375 23.1875 75.875 
z
" id="DejaVuSans-40"/>
       <path d="M 45.40625 27.984375 
Q 45.40625 37.75 41.375 43.109375 
Q 37.359375 48.484375 30.078125 48.484375 
Q 22.859375 48.484375 18.828125 43.109375 
Q 14.796875 37.75 14.796875 27.984375 
Q 14.796875 18.265625 18.828125 12.890625 
Q 22.859375 7.515625 30.078125 7.515625 
Q 37.359375 7.515625 41.375 12.890625 
Q 45.40625 18.265625 45.40625 27.984375 
z
M 54.390625 6.78125 
Q 54.390625 -7.171875 48.1875 -13.984375 
Q 42 -20.796875 29.203125 -20.796875 
Q 24.46875 -20.796875 20.265625 -20.09375 
Q 16.0625 -19.390625 12.109375 -17.921875 
L 12.109375 -9.1875 
Q 16.0625 -11.328125 19.921875 -12.34375 
Q 23.78125 -13.375 27.78125 -13.375 
Q 36.625 -13.375 41.015625 -8.765625 
Q 45.40625 -4.15625 45.40625 5.171875 
L 45.40625 9.625 
Q 42.625 4.78125 38.28125 2.390625 
Q 33.9375 0 27.875 0 
Q 17.828125 0 11.671875 7.65625 
Q 5.515625 15.328125 5.515625 27.984375 
Q 5.515625 40.671875 11.671875 48.328125 
Q 17.828125 56 27.875 56 
Q 33.9375 56 38.28125 53.609375 
Q 42.625 51.21875 45.40625 46.390625 
L 45.40625 54.6875 
L 54.390625 54.6875 
z
" id="DejaVuSans-103"/>
       <path d="M 45.40625 46.390625 
L 45.40625 75.984375 
L 54.390625 75.984375 
L 54.390625 0 
L 45.40625 0 
L 45.40625 8.203125 
Q 42.578125 3.328125 38.25 0.953125 
Q 33.9375 -1.421875 27.875 -1.421875 
Q 17.96875 -1.421875 11.734375 6.484375 
Q 5.515625 14.40625 5.515625 27.296875 
Q 5.515625 40.1875 11.734375 48.09375 
Q 17.96875 56 27.875 56 
Q 33.9375 56 38.25 53.625 
Q 42.578125 51.265625 45.40625 46.390625 
z
M 14.796875 27.296875 
Q 14.796875 17.390625 18.875 11.75 
Q 22.953125 6.109375 30.078125 6.109375 
Q 37.203125 6.109375 41.296875 11.75 
Q 45.40625 17.390625 45.40625 27.296875 
Q 45.40625 37.203125 41.296875 42.84375 
Q 37.203125 48.484375 30.078125 48.484375 
Q 22.953125 48.484375 18.875 42.84375 
Q 14.796875 37.203125 14.796875 27.296875 
z
" id="DejaVuSans-100"/>
       <path d="M 8.015625 75.875 
L 15.828125 75.875 
Q 23.140625 64.359375 26.78125 53.3125 
Q 30.421875 42.28125 30.421875 31.390625 
Q 30.421875 20.453125 26.78125 9.375 
Q 23.140625 -1.703125 15.828125 -13.1875 
L 8.015625 -13.1875 
Q 14.5 -2 17.703125 9.0625 
Q 20.90625 20.125 20.90625 31.390625 
Q 20.90625 42.671875 17.703125 53.65625 
Q 14.5 64.65625 8.015625 75.875 
z
" id="DejaVuSans-41"/>
      </defs>
      <use xlink:href="#DejaVuSans-82"/>
      <use x="69.482422" xlink:href="#DejaVuSans-78"/>
      <use x="144.287109" xlink:href="#DejaVuSans-65"/>
      <use x="212.695312" xlink:href="#DejaVuSans-32"/>
      <use x="244.482422" xlink:href="#DejaVuSans-112"/>
      <use x="307.958984" xlink:href="#DejaVuSans-101"/>
      <use x="369.482422" xlink:href="#DejaVuSans-114"/>
      <use x="410.595703" xlink:href="#DejaVuSans-32"/>
      <use x="442.382812" xlink:href="#DejaVuSans-109"/>
      <use x="539.794922" xlink:href="#DejaVuSans-105"/>
      <use x="567.578125" xlink:href="#DejaVuSans-108"/>
      <use x="595.361328" xlink:href="#DejaVuSans-108"/>
      <use x="623.144531" xlink:href="#DejaVuSans-105"/>
      <use x="650.927734" xlink:href="#DejaVuSans-108"/>
      <use x="678.710938" xlink:href="#DejaVuSans-105"/>
      <use x="706.494141" xlink:href="#DejaVuSans-116"/>
      <use x="745.703125" xlink:href="#DejaVuSans-101"/>
      <use x="807.226562" xlink:href="#DejaVuSans-114"/>
      <use x="848.339844" xlink:href="#DejaVuSans-32"/>
      <use x="880.126953" xlink:href="#DejaVuSans-114"/>
      <use x="921.240234" xlink:href="#DejaVuSans-105"/>
      <use x="949.023438" xlink:href="#DejaVuSans-111"/>
      <use x="1010.205078" xlink:href="#DejaVuSans-111"/>
      <use x="1071.386719" xlink:href="#DejaVuSans-108"/>
      <use x="1099.169922" xlink:href="#DejaVuSans-119"/>
      <use x="1180.957031" xlink:href="#DejaVuSans-97"/>
      <use x="1242.236328" xlink:href="#DejaVuSans-116"/>
      <use x="1281.445312" xlink:href="#DejaVuSans-101"/>
      <use x="1342.96875" xlink:href="#DejaVuSans-114"/>
      <use x="1384.082031" xlink:href="#DejaVuSans-32"/>
      <use x="1415.869141" xlink:href="#DejaVuSans-40"/>
      <use x="1454.882812" xlink:href="#DejaVuSans-103"/>
      <use x="1518.359375" xlink:href="#DejaVuSans-101"/>
      <use x="1579.882812" xlink:href="#DejaVuSans-109"/>
      <use x="1677.294922" xlink:href="#DejaVuSans-105"/>
      <use x="1705.078125" xlink:href="#DejaVuSans-100"/>
      <use x="1768.554688" xlink:href="#DejaVuSans-100"/>
      <use x="1832.03125" xlink:href="#DejaVuSans-101"/>
      <use x="1893.554688" xlink:href="#DejaVuSans-108"/>
      <use x="1921.337891" xlink:href="#DejaVuSans-100"/>
      <use x="1984.814453" xlink:href="#DejaVuSans-41"/>
     </g>
    </g>
   </g>
  </g>
  <g id="axes_2">
   <g id="matplotlib.axis_3">
    <g id="ytick_6">
     <g id="line2d_29">
      <defs>
       <path d="M 0 0 
L 3.5 0 
" id="m04f70e8f80" style="stroke:#000000;stroke-width:0.8;"/>
      </defs>
      <g>
       <use style="stroke:#000000;stroke-width:0.8;" x="655.2" xlink:href="#m04f70e8f80" y="172.8"/>
      </g>
     </g>
     <g id="text_16">
      <!-- 0 -->
      <g transform="translate(662.2 176.599219)scale(0.1 -0.1)">
       <use xlink:href="#DejaVuSans-48"/>
      </g>
     </g>
    </g>
    <g id="ytick_7">
     <g id="line2d_30">
      <g>
       <use style="stroke:#000000;stroke-width:0.8;" x="655.2" xlink:href="#m04f70e8f80" y="136.08"/>
      </g>
     </g>
     <g id="text_17">
      <!-- 25 -->
      <g transform="translate(662.2 139.879219)scale(0.1 -0.1)">
       <use xlink:href="#DejaVuSans-50"/>
       <use x="63.623047" xlink:href="#DejaVuSans-53"/>
      </g>
     </g>
    </g>
    <g id="ytick_8">
     <g id="line2d_31">
      <g>
       <use style="stroke:#000000;stroke-width:0.8;" x="655.2" xlink:href="#m04f70e8f80" y="99.36"/>
      </g>
     </g>
     <g id="text_18">
      <!-- 50 -->
      <g transform="translate(662.2 103.159219)scale(0.1 -0.1)">
       <use xlink:href="#DejaVuSans-53"/>
       <use x="63.623047" xlink:href="#DejaVuSans-48"/>
      </g>
     </g>
    </g>
    <g id="ytick_9">
     <g id="line2d_32">
      <g>
       <use style="stroke:#000000;stroke-width:0.8;" x="655.2" xlink:href="#m04f70e8f80" y="62.64"/>
      </g>
     </g>
     <g id="text_19">
      <!-- 75 -->
      <g transform="translate(662.2 66.439219)scale(0.1 -0.1)">
       <use xlink:href="#DejaVuSans-55"/>
       <use x="63.623047" xlink:href="#DejaVuSans-53"/>
      </g>
     </g>
    </g>
    <g id="ytick_10">
     <g id="line2d_33">
      <g>
       <use style="stroke:#000000;stroke-width:0.8;" x="655.2" xlink:href="#m04f70e8f80" y="25.92"/>
      </g>
     </g>
     <g id="text_20">
      <!-- 100 -->
      <g transform="translate(662.2 29.719219)scale(0.1 -0.1)">
       <use xlink:href="#DejaVuSans-49"/>
       <use x="63.623047" xlink:href="#DejaVuSans-48"/>
       <use x="127.246094" xlink:href="#DejaVuSans-48"/>
      </g>
     </g>
    </g>
    <g id="text_21">
     <!-- % populatie -->
     <g transform="translate(692.885938 129.155312)rotate(-90)scale(0.1 -0.1)">
      <defs>
       <path d="M 72.703125 32.078125 
Q 68.453125 32.078125 66.03125 28.46875 
Q 63.625 24.859375 63.625 18.40625 
Q 63.625 12.0625 66.03125 8.421875 
Q 68.453125 4.78125 72.703125 4.78125 
Q 76.859375 4.78125 79.265625 8.421875 
Q 81.6875 12.0625 81.6875 18.40625 
Q 81.6875 24.8125 79.265625 28.4375 
Q 76.859375 32.078125 72.703125 32.078125 
z
M 72.703125 38.28125 
Q 80.421875 38.28125 84.953125 32.90625 
Q 89.5 27.546875 89.5 18.40625 
Q 89.5 9.28125 84.9375 3.921875 
Q 80.375 -1.421875 72.703125 -1.421875 
Q 64.890625 -1.421875 60.34375 3.921875 
Q 55.8125 9.28125 55.8125 18.40625 
Q 55.8125 27.59375 60.375 32.9375 
Q 64.9375 38.28125 72.703125 38.28125 
z
M 22.3125 68.015625 
Q 18.109375 68.015625 15.6875 64.375 
Q 13.28125 60.75 13.28125 54.390625 
Q 13.28125 47.953125 15.671875 44.328125 
Q 18.0625 40.71875 22.3125 40.71875 
Q 26.5625 40.71875 28.96875 44.328125 
Q 31.390625 47.953125 31.390625 54.390625 
Q 31.390625 60.6875 28.953125 64.34375 
Q 26.515625 68.015625 22.3125 68.015625 
z
M 66.40625 74.21875 
L 74.21875 74.21875 
L 28.609375 -1.421875 
L 20.796875 -1.421875 
z
M 22.3125 74.21875 
Q 30.03125 74.21875 34.609375 68.875 
Q 39.203125 63.53125 39.203125 54.390625 
Q 39.203125 45.171875 34.640625 39.84375 
Q 30.078125 34.515625 22.3125 34.515625 
Q 14.546875 34.515625 10.03125 39.859375 
Q 5.515625 45.21875 5.515625 54.390625 
Q 5.515625 63.484375 10.046875 68.84375 
Q 14.59375 74.21875 22.3125 74.21875 
z
" id="DejaVuSans-37"/>
      </defs>
      <use xlink:href="#DejaVuSans-37"/>
      <use x="95.019531" xlink:href="#DejaVuSans-32"/>
      <use x="126.806641" xlink:href="#DejaVuSans-112"/>
      <use x="190.283203" xlink:href="#DejaVuSans-111"/>
      <use x="251.464844" xlink:href="#DejaVuSans-112"/>
      <use x="314.941406" xlink:href="#DejaVuSans-117"/>
      <use x="378.320312" xlink:href="#DejaVuSans-108"/>
      <use x="406.103516" xlink:href="#DejaVuSans-97"/>
      <use x="467.382812" xlink:href="#DejaVuSans-116"/>
      <use x="506.591797" xlink:href="#DejaVuSans-105"/>
      <use x="534.375" xlink:href="#DejaVuSans-101"/>
     </g>
    </g>
   </g>
   <g id="line2d_34">
    <path clip-path="url(#p047e5f67fb)" d="M 110.825806 151.613749 
L 115.587097 150.617208 
L 120.348387 150.285027 
L 125.109677 149.334681 
L 126.696774 149.31932 
L 128.283871 149.177951 
L 133.045161 148.883712 
L 134.632258 148.648544 
L 136.219355 148.625079 
L 139.393548 149.132081 
L 142.567742 148.911327 
L 144.154839 148.347019 
L 145.741935 147.965449 
L 147.329032 147.856356 
L 148.916129 148.075655 
L 153.677419 147.927433 
L 155.264516 147.431677 
L 156.851613 147.077984 
L 158.43871 147.151216 
L 160.025806 147.521927 
L 161.612903 147.637591 
L 164.787097 147.54857 
L 167.96129 147.312183 
L 169.548387 147.699148 
L 171.135484 148.383142 
L 177.483871 149.486248 
L 179.070968 149.893037 
L 180.658065 150.447352 
L 185.419355 151.629233 
L 190.180645 152.066157 
L 191.767742 152.323423 
L 194.941935 152.329335 
L 198.116129 152.411351 
L 201.290323 152.369466 
L 206.051613 151.84199 
L 213.987097 151.708567 
L 217.16129 151.717483 
L 218.748387 151.566931 
L 225.096774 150.156412 
L 226.683871 150.136905 
L 233.032258 149.268181 
L 237.793548 148.543919 
L 239.380645 148.458349 
L 245.729032 147.716924 
L 247.316129 148.020369 
L 255.251613 148.59765 
L 260.012903 149.407032 
L 267.948387 149.968598 
L 271.122581 150.588524 
L 272.709677 150.531596 
L 274.296774 150.009268 
L 280.645161 147.119591 
L 282.232258 146.200243 
L 291.754839 138.510013 
L 293.341935 137.561452 
L 294.929032 136.782581 
L 296.516129 136.163616 
L 298.103226 135.400574 
L 299.690323 134.934557 
L 302.864516 134.908809 
L 304.451613 135.255999 
L 306.03871 135.470166 
L 307.625806 135.412238 
L 309.212903 135.560431 
L 315.56129 137.834619 
L 318.735484 138.040236 
L 320.322581 137.904901 
L 323.496774 137.346828 
L 326.670968 137.292633 
L 329.845161 137.201407 
L 331.432258 136.715783 
L 334.606452 136.060536 
L 336.193548 136.020177 
L 337.780645 136.272131 
L 342.541935 136.571984 
L 344.129032 136.446044 
L 347.303226 135.269122 
L 348.890323 134.556349 
L 350.477419 133.455323 
L 352.064516 132.185351 
L 355.23871 129.059382 
L 360 123.292795 
L 364.76129 116.018567 
L 366.348387 114.088481 
L 367.935484 112.536376 
L 371.109677 110.14178 
L 374.283871 107.617299 
L 375.870968 106.25481 
L 379.045161 104.2725 
L 380.632258 103.524052 
L 382.219355 103.139167 
L 385.393548 102.898101 
L 386.980645 102.494651 
L 390.154839 101.053212 
L 391.741935 100.642326 
L 393.329032 100.776406 
L 394.916129 101.105925 
L 396.503226 101.312372 
L 410.787097 102.184471 
L 412.374194 102.389176 
L 417.135484 101.730556 
L 418.722581 101.524814 
L 420.309677 101.433239 
L 421.896774 101.479428 
L 423.483871 101.844779 
L 428.245161 102.067251 
L 433.006452 102.511227 
L 434.593548 103.036184 
L 439.354839 104.240681 
L 440.941935 104.249281 
L 444.116129 103.729287 
L 445.703226 103.729309 
L 447.290323 103.554559 
L 448.877419 103.611903 
L 450.464516 103.398914 
L 452.051613 102.779185 
L 455.225806 101.053271 
L 458.4 99.902124 
L 461.574194 99.260203 
L 463.16129 99.075658 
L 466.335484 98.109063 
L 467.922581 98.071725 
L 469.509677 97.889211 
L 471.096774 97.931498 
L 472.683871 98.14288 
L 474.270968 98.193635 
L 475.858065 97.856425 
L 479.032258 98.024688 
L 480.619355 97.855813 
L 482.206452 97.857934 
L 485.380645 96.495302 
L 486.967742 95.809707 
L 488.554839 94.95323 
L 490.141935 94.323311 
L 493.316129 92.71197 
L 496.490323 91.433623 
L 498.077419 90.381367 
L 499.664516 89.593232 
L 501.251613 89.07037 
L 502.83871 88.421151 
L 504.425806 88.570052 
L 506.012903 88.840054 
L 509.187097 89.003028 
L 510.774194 89.053698 
L 513.948387 89.566264 
L 517.122581 90.270853 
L 518.709677 90.769492 
L 520.296774 91.074765 
L 521.883871 91.628879 
L 523.470968 92.334229 
L 525.058065 92.644174 
L 526.645161 93.10513 
L 528.232258 93.817293 
L 531.406452 95.587443 
L 534.580645 97.683301 
L 536.167742 98.759609 
L 537.754839 100.123351 
L 539.341935 100.787264 
L 540.929032 101.138694 
L 544.103226 100.931782 
L 547.277419 101.113036 
L 550.451613 100.92412 
L 552.03871 100.064315 
L 555.212903 97.915948 
L 559.974194 94.546818 
L 564.735484 92.675605 
L 567.909677 91.88169 
L 569.496774 91.19968 
L 571.083871 90.753005 
L 572.670968 90.680803 
L 575.845161 89.989699 
L 579.019355 89.758994 
L 582.193548 88.959159 
L 585.367742 88.582901 
L 586.954839 87.994953 
L 588.541935 87.622782 
L 590.129032 87.639311 
L 591.716129 87.25141 
L 593.303226 87.037909 
L 594.890323 87.380116 
L 596.477419 86.941903 
L 598.064516 86.326999 
L 599.651613 86.113888 
L 604.412903 86.087513 
L 606 86.354827 
L 607.587097 86.48353 
L 609.174194 86.301623 
L 610.76129 85.978987 
L 613.935484 85.84016 
L 615.522581 85.712911 
L 618.696774 87.33669 
L 625.045161 89.060084 
L 626.632258 89.351744 
L 636.154839 94.502851 
L 636.154839 94.502851 
" style="fill:none;stroke:#ffa500;stroke-linecap:square;stroke-width:1.5;"/>
   </g>
   <g id="patch_8">
    <path d="M 64.8 172.8 
L 64.8 25.92 
" style="fill:none;stroke:#000000;stroke-linecap:square;stroke-linejoin:miter;stroke-width:0.8;"/>
   </g>
   <g id="patch_9">
    <path d="M 655.2 172.8 
L 655.2 25.92 
" style="fill:none;stroke:#000000;stroke-linecap:square;stroke-linejoin:miter;stroke-width:0.8;"/>
   </g>
   <g id="patch_10">
    <path d="M 64.8 172.8 
L 655.2 172.8 
" style="fill:none;stroke:#000000;stroke-linecap:square;stroke-linejoin:miter;stroke-width:0.8;"/>
   </g>
   <g id="patch_11">
    <path d="M 64.8 25.92 
L 655.2 25.92 
" style="fill:none;stroke:#000000;stroke-linecap:square;stroke-linejoin:miter;stroke-width:0.8;"/>
   </g>
   <g id="text_22">
    <!-- Concentratie SARS-CoV-2 RNA per ml rioolwater -->
    <g transform="translate(215.560313 19.92)scale(0.12 -0.12)">
     <defs>
      <path d="M 64.40625 67.28125 
L 64.40625 56.890625 
Q 59.421875 61.53125 53.78125 63.8125 
Q 48.140625 66.109375 41.796875 66.109375 
Q 29.296875 66.109375 22.65625 58.46875 
Q 16.015625 50.828125 16.015625 36.375 
Q 16.015625 21.96875 22.65625 14.328125 
Q 29.296875 6.6875 41.796875 6.6875 
Q 48.140625 6.6875 53.78125 8.984375 
Q 59.421875 11.28125 64.40625 15.921875 
L 64.40625 5.609375 
Q 59.234375 2.09375 53.4375 0.328125 
Q 47.65625 -1.421875 41.21875 -1.421875 
Q 24.65625 -1.421875 15.125 8.703125 
Q 5.609375 18.84375 5.609375 36.375 
Q 5.609375 53.953125 15.125 64.078125 
Q 24.65625 74.21875 41.21875 74.21875 
Q 47.75 74.21875 53.53125 72.484375 
Q 59.328125 70.75 64.40625 67.28125 
z
" id="DejaVuSans-67"/>
      <path d="M 54.890625 33.015625 
L 54.890625 0 
L 45.90625 0 
L 45.90625 32.71875 
Q 45.90625 40.484375 42.875 44.328125 
Q 39.84375 48.1875 33.796875 48.1875 
Q 26.515625 48.1875 22.3125 43.546875 
Q 18.109375 38.921875 18.109375 30.90625 
L 18.109375 0 
L 9.078125 0 
L 9.078125 54.6875 
L 18.109375 54.6875 
L 18.109375 46.1875 
Q 21.34375 51.125 25.703125 53.5625 
Q 30.078125 56 35.796875 56 
Q 45.21875 56 50.046875 50.171875 
Q 54.890625 44.34375 54.890625 33.015625 
z
" id="DejaVuSans-110"/>
      <path d="M 48.78125 52.59375 
L 48.78125 44.1875 
Q 44.96875 46.296875 41.140625 47.34375 
Q 37.3125 48.390625 33.40625 48.390625 
Q 24.65625 48.390625 19.8125 42.84375 
Q 14.984375 37.3125 14.984375 27.296875 
Q 14.984375 17.28125 19.8125 11.734375 
Q 24.65625 6.203125 33.40625 6.203125 
Q 37.3125 6.203125 41.140625 7.25 
Q 44.96875 8.296875 48.78125 10.40625 
L 48.78125 2.09375 
Q 45.015625 0.34375 40.984375 -0.53125 
Q 36.96875 -1.421875 32.421875 -1.421875 
Q 20.0625 -1.421875 12.78125 6.34375 
Q 5.515625 14.109375 5.515625 27.296875 
Q 5.515625 40.671875 12.859375 48.328125 
Q 20.21875 56 33.015625 56 
Q 37.15625 56 41.109375 55.140625 
Q 45.0625 54.296875 48.78125 52.59375 
z
" id="DejaVuSans-99"/>
      <path d="M 53.515625 70.515625 
L 53.515625 60.890625 
Q 47.90625 63.578125 42.921875 64.890625 
Q 37.9375 66.21875 33.296875 66.21875 
Q 25.25 66.21875 20.875 63.09375 
Q 16.5 59.96875 16.5 54.203125 
Q 16.5 49.359375 19.40625 46.890625 
Q 22.3125 44.4375 30.421875 42.921875 
L 36.375 41.703125 
Q 47.40625 39.59375 52.65625 34.296875 
Q 57.90625 29 57.90625 20.125 
Q 57.90625 9.515625 50.796875 4.046875 
Q 43.703125 -1.421875 29.984375 -1.421875 
Q 24.8125 -1.421875 18.96875 -0.25 
Q 13.140625 0.921875 6.890625 3.21875 
L 6.890625 13.375 
Q 12.890625 10.015625 18.65625 8.296875 
Q 24.421875 6.59375 29.984375 6.59375 
Q 38.421875 6.59375 43.015625 9.90625 
Q 47.609375 13.234375 47.609375 19.390625 
Q 47.609375 24.75 44.3125 27.78125 
Q 41.015625 30.8125 33.5 32.328125 
L 27.484375 33.5 
Q 16.453125 35.6875 11.515625 40.375 
Q 6.59375 45.0625 6.59375 53.421875 
Q 6.59375 63.09375 13.40625 68.65625 
Q 20.21875 74.21875 32.171875 74.21875 
Q 37.3125 74.21875 42.625 73.28125 
Q 47.953125 72.359375 53.515625 70.515625 
z
" id="DejaVuSans-83"/>
      <path d="M 28.609375 0 
L 0.78125 72.90625 
L 11.078125 72.90625 
L 34.1875 11.53125 
L 57.328125 72.90625 
L 67.578125 72.90625 
L 39.796875 0 
z
" id="DejaVuSans-86"/>
     </defs>
     <use xlink:href="#DejaVuSans-67"/>
     <use x="69.824219" xlink:href="#DejaVuSans-111"/>
     <use x="131.005859" xlink:href="#DejaVuSans-110"/>
     <use x="194.384766" xlink:href="#DejaVuSans-99"/>
     <use x="249.365234" xlink:href="#DejaVuSans-101"/>
     <use x="310.888672" xlink:href="#DejaVuSans-110"/>
     <use x="374.267578" xlink:href="#DejaVuSans-116"/>
     <use x="413.476562" xlink:href="#DejaVuSans-114"/>
     <use x="454.589844" xlink:href="#DejaVuSans-97"/>
     <use x="515.869141" xlink:href="#DejaVuSans-116"/>
     <use x="555.078125" xlink:href="#DejaVuSans-105"/>
     <use x="582.861328" xlink:href="#DejaVuSans-101"/>
     <use x="644.384766" xlink:href="#DejaVuSans-32"/>
     <use x="676.171875" xlink:href="#DejaVuSans-83"/>
     <use x="741.523438" xlink:href="#DejaVuSans-65"/>
     <use x="809.931641" xlink:href="#DejaVuSans-82"/>
     <use x="879.414062" xlink:href="#DejaVuSans-83"/>
     <use x="942.890625" xlink:href="#DejaVuSans-45"/>
     <use x="978.974609" xlink:href="#DejaVuSans-67"/>
     <use x="1048.798828" xlink:href="#DejaVuSans-111"/>
     <use x="1109.980469" xlink:href="#DejaVuSans-86"/>
     <use x="1172.513672" xlink:href="#DejaVuSans-45"/>
     <use x="1208.597656" xlink:href="#DejaVuSans-50"/>
     <use x="1272.220703" xlink:href="#DejaVuSans-32"/>
     <use x="1304.007812" xlink:href="#DejaVuSans-82"/>
     <use x="1373.490234" xlink:href="#DejaVuSans-78"/>
     <use x="1448.294922" xlink:href="#DejaVuSans-65"/>
     <use x="1516.703125" xlink:href="#DejaVuSans-32"/>
     <use x="1548.490234" xlink:href="#DejaVuSans-112"/>
     <use x="1611.966797" xlink:href="#DejaVuSans-101"/>
     <use x="1673.490234" xlink:href="#DejaVuSans-114"/>
     <use x="1714.603516" xlink:href="#DejaVuSans-32"/>
     <use x="1746.390625" xlink:href="#DejaVuSans-109"/>
     <use x="1843.802734" xlink:href="#DejaVuSans-108"/>
     <use x="1871.585938" xlink:href="#DejaVuSans-32"/>
     <use x="1903.373047" xlink:href="#DejaVuSans-114"/>
     <use x="1944.486328" xlink:href="#DejaVuSans-105"/>
     <use x="1972.269531" xlink:href="#DejaVuSans-111"/>
     <use x="2033.451172" xlink:href="#DejaVuSans-111"/>
     <use x="2094.632812" xlink:href="#DejaVuSans-108"/>
     <use x="2122.416016" xlink:href="#DejaVuSans-119"/>
     <use x="2204.203125" xlink:href="#DejaVuSans-97"/>
     <use x="2265.482422" xlink:href="#DejaVuSans-116"/>
     <use x="2304.691406" xlink:href="#DejaVuSans-101"/>
     <use x="2366.214844" xlink:href="#DejaVuSans-114"/>
    </g>
   </g>
   <g id="legend_2">
    <g id="patch_12">
     <path d="M 461.0375 48.598125 
L 648.2 48.598125 
Q 650.2 48.598125 650.2 46.598125 
L 650.2 32.92 
Q 650.2 30.92 648.2 30.92 
L 461.0375 30.92 
Q 459.0375 30.92 459.0375 32.92 
L 459.0375 46.598125 
Q 459.0375 48.598125 461.0375 48.598125 
z
" style="fill:#ffffff;opacity:0.8;stroke:#cccccc;stroke-linejoin:miter;"/>
    </g>
    <g id="line2d_35">
     <path d="M 463.0375 39.018437 
L 483.0375 39.018437 
" style="fill:none;stroke:#ffa500;stroke-linecap:square;stroke-width:1.5;"/>
    </g>
    <g id="line2d_36"/>
    <g id="text_23">
     <!-- geschatte populatie dekking % -->
     <g transform="translate(491.0375 42.518437)scale(0.1 -0.1)">
      <defs>
       <path d="M 44.28125 53.078125 
L 44.28125 44.578125 
Q 40.484375 46.53125 36.375 47.5 
Q 32.28125 48.484375 27.875 48.484375 
Q 21.1875 48.484375 17.84375 46.4375 
Q 14.5 44.390625 14.5 40.28125 
Q 14.5 37.15625 16.890625 35.375 
Q 19.28125 33.59375 26.515625 31.984375 
L 29.59375 31.296875 
Q 39.15625 29.25 43.1875 25.515625 
Q 47.21875 21.78125 47.21875 15.09375 
Q 47.21875 7.46875 41.1875 3.015625 
Q 35.15625 -1.421875 24.609375 -1.421875 
Q 20.21875 -1.421875 15.453125 -0.5625 
Q 10.6875 0.296875 5.421875 2 
L 5.421875 11.28125 
Q 10.40625 8.6875 15.234375 7.390625 
Q 20.0625 6.109375 24.8125 6.109375 
Q 31.15625 6.109375 34.5625 8.28125 
Q 37.984375 10.453125 37.984375 14.40625 
Q 37.984375 18.0625 35.515625 20.015625 
Q 33.0625 21.96875 24.703125 23.78125 
L 21.578125 24.515625 
Q 13.234375 26.265625 9.515625 29.90625 
Q 5.8125 33.546875 5.8125 39.890625 
Q 5.8125 47.609375 11.28125 51.796875 
Q 16.75 56 26.8125 56 
Q 31.78125 56 36.171875 55.265625 
Q 40.578125 54.546875 44.28125 53.078125 
z
" id="DejaVuSans-115"/>
       <path d="M 54.890625 33.015625 
L 54.890625 0 
L 45.90625 0 
L 45.90625 32.71875 
Q 45.90625 40.484375 42.875 44.328125 
Q 39.84375 48.1875 33.796875 48.1875 
Q 26.515625 48.1875 22.3125 43.546875 
Q 18.109375 38.921875 18.109375 30.90625 
L 18.109375 0 
L 9.078125 0 
L 9.078125 75.984375 
L 18.109375 75.984375 
L 18.109375 46.1875 
Q 21.34375 51.125 25.703125 53.5625 
Q 30.078125 56 35.796875 56 
Q 45.21875 56 50.046875 50.171875 
Q 54.890625 44.34375 54.890625 33.015625 
z
" id="DejaVuSans-104"/>
       <path d="M 9.078125 75.984375 
L 18.109375 75.984375 
L 18.109375 31.109375 
L 44.921875 54.6875 
L 56.390625 54.6875 
L 27.390625 29.109375 
L 57.625 0 
L 45.90625 0 
L 18.109375 26.703125 
L 18.109375 0 
L 9.078125 0 
z
" id="DejaVuSans-107"/>
      </defs>
      <use xlink:href="#DejaVuSans-103"/>
      <use x="63.476562" xlink:href="#DejaVuSans-101"/>
      <use x="125" xlink:href="#DejaVuSans-115"/>
      <use x="177.099609" xlink:href="#DejaVuSans-99"/>
      <use x="232.080078" xlink:href="#DejaVuSans-104"/>
      <use x="295.458984" xlink:href="#DejaVuSans-97"/>
      <use x="356.738281" xlink:href="#DejaVuSans-116"/>
      <use x="395.947266" xlink:href="#DejaVuSans-116"/>
      <use x="435.15625" xlink:href="#DejaVuSans-101"/>
      <use x="496.679688" xlink:href="#DejaVuSans-32"/>
      <use x="528.466797" xlink:href="#DejaVuSans-112"/>
      <use x="591.943359" xlink:href="#DejaVuSans-111"/>
      <use x="653.125" xlink:href="#DejaVuSans-112"/>
      <use x="716.601562" xlink:href="#DejaVuSans-117"/>
      <use x="779.980469" xlink:href="#DejaVuSans-108"/>
      <use x="807.763672" xlink:href="#DejaVuSans-97"/>
      <use x="869.042969" xlink:href="#DejaVuSans-116"/>
      <use x="908.251953" xlink:href="#DejaVuSans-105"/>
      <use x="936.035156" xlink:href="#DejaVuSans-101"/>
      <use x="997.558594" xlink:href="#DejaVuSans-32"/>
      <use x="1029.345703" xlink:href="#DejaVuSans-100"/>
      <use x="1092.822266" xlink:href="#DejaVuSans-101"/>
      <use x="1154.345703" xlink:href="#DejaVuSans-107"/>
      <use x="1212.255859" xlink:href="#DejaVuSans-107"/>
      <use x="1270.166016" xlink:href="#DejaVuSans-105"/>
      <use x="1297.949219" xlink:href="#DejaVuSans-110"/>
      <use x="1361.328125" xlink:href="#DejaVuSans-103"/>
      <use x="1424.804688" xlink:href="#DejaVuSans-32"/>
      <use x="1456.591797" xlink:href="#DejaVuSans-37"/>
     </g>
    </g>
   </g>
  </g>
  <g id="text_24">
   <!-- Gegenereerd op 2021-03-02 11:22 o.b.v. data tot 2021-02-24. -->
   <g style="fill:#808080;" transform="translate(7.2 204.88175)scale(0.08 -0.08)">
    <defs>
     <path d="M 59.515625 10.40625 
L 59.515625 29.984375 
L 43.40625 29.984375 
L 43.40625 38.09375 
L 69.28125 38.09375 
L 69.28125 6.78125 
Q 63.578125 2.734375 56.6875 0.65625 
Q 49.8125 -1.421875 42 -1.421875 
Q 24.90625 -1.421875 15.25 8.5625 
Q 5.609375 18.5625 5.609375 36.375 
Q 5.609375 54.25 15.25 64.234375 
Q 24.90625 74.21875 42 74.21875 
Q 49.125 74.21875 55.546875 72.453125 
Q 61.96875 70.703125 67.390625 67.28125 
L 67.390625 56.78125 
Q 61.921875 61.421875 55.765625 63.765625 
Q 49.609375 66.109375 42.828125 66.109375 
Q 29.4375 66.109375 22.71875 58.640625 
Q 16.015625 51.171875 16.015625 36.375 
Q 16.015625 21.625 22.71875 14.15625 
Q 29.4375 6.6875 42.828125 6.6875 
Q 48.046875 6.6875 52.140625 7.59375 
Q 56.25 8.5 59.515625 10.40625 
z
" id="DejaVuSans-71"/>
     <path d="M 11.71875 12.40625 
L 22.015625 12.40625 
L 22.015625 0 
L 11.71875 0 
z
M 11.71875 51.703125 
L 22.015625 51.703125 
L 22.015625 39.3125 
L 11.71875 39.3125 
z
" id="DejaVuSans-58"/>
     <path d="M 10.6875 12.40625 
L 21 12.40625 
L 21 0 
L 10.6875 0 
z
" id="DejaVuSans-46"/>
     <path d="M 48.6875 27.296875 
Q 48.6875 37.203125 44.609375 42.84375 
Q 40.53125 48.484375 33.40625 48.484375 
Q 26.265625 48.484375 22.1875 42.84375 
Q 18.109375 37.203125 18.109375 27.296875 
Q 18.109375 17.390625 22.1875 11.75 
Q 26.265625 6.109375 33.40625 6.109375 
Q 40.53125 6.109375 44.609375 11.75 
Q 48.6875 17.390625 48.6875 27.296875 
z
M 18.109375 46.390625 
Q 20.953125 51.265625 25.265625 53.625 
Q 29.59375 56 35.59375 56 
Q 45.5625 56 51.78125 48.09375 
Q 58.015625 40.1875 58.015625 27.296875 
Q 58.015625 14.40625 51.78125 6.484375 
Q 45.5625 -1.421875 35.59375 -1.421875 
Q 29.59375 -1.421875 25.265625 0.953125 
Q 20.953125 3.328125 18.109375 8.203125 
L 18.109375 0 
L 9.078125 0 
L 9.078125 75.984375 
L 18.109375 75.984375 
z
" id="DejaVuSans-98"/>
     <path d="M 2.984375 54.6875 
L 12.5 54.6875 
L 29.59375 8.796875 
L 46.6875 54.6875 
L 56.203125 54.6875 
L 35.6875 0 
L 23.484375 0 
z
" id="DejaVuSans-118"/>
    </defs>
    <use xlink:href="#DejaVuSans-71"/>
    <use x="77.490234" xlink:href="#DejaVuSans-101"/>
    <use x="139.013672" xlink:href="#DejaVuSans-103"/>
    <use x="202.490234" xlink:href="#DejaVuSans-101"/>
    <use x="264.013672" xlink:href="#DejaVuSans-110"/>
    <use x="327.392578" xlink:href="#DejaVuSans-101"/>
    <use x="388.916016" xlink:href="#DejaVuSans-114"/>
    <use x="427.779297" xlink:href="#DejaVuSans-101"/>
    <use x="489.302734" xlink:href="#DejaVuSans-101"/>
    <use x="550.826172" xlink:href="#DejaVuSans-114"/>
    <use x="590.189453" xlink:href="#DejaVuSans-100"/>
    <use x="653.666016" xlink:href="#DejaVuSans-32"/>
    <use x="685.453125" xlink:href="#DejaVuSans-111"/>
    <use x="746.634766" xlink:href="#DejaVuSans-112"/>
    <use x="810.111328" xlink:href="#DejaVuSans-32"/>
    <use x="841.898438" xlink:href="#DejaVuSans-50"/>
    <use x="905.521484" xlink:href="#DejaVuSans-48"/>
    <use x="969.144531" xlink:href="#DejaVuSans-50"/>
    <use x="1032.767578" xlink:href="#DejaVuSans-49"/>
    <use x="1096.390625" xlink:href="#DejaVuSans-45"/>
    <use x="1132.474609" xlink:href="#DejaVuSans-48"/>
    <use x="1196.097656" xlink:href="#DejaVuSans-51"/>
    <use x="1259.720703" xlink:href="#DejaVuSans-45"/>
    <use x="1295.804688" xlink:href="#DejaVuSans-48"/>
    <use x="1359.427734" xlink:href="#DejaVuSans-50"/>
    <use x="1423.050781" xlink:href="#DejaVuSans-32"/>
    <use x="1454.837891" xlink:href="#DejaVuSans-49"/>
    <use x="1518.460938" xlink:href="#DejaVuSans-49"/>
    <use x="1582.083984" xlink:href="#DejaVuSans-58"/>
    <use x="1615.775391" xlink:href="#DejaVuSans-50"/>
    <use x="1679.398438" xlink:href="#DejaVuSans-50"/>
    <use x="1743.021484" xlink:href="#DejaVuSans-32"/>
    <use x="1774.808594" xlink:href="#DejaVuSans-111"/>
    <use x="1834.240234" xlink:href="#DejaVuSans-46"/>
    <use x="1866.027344" xlink:href="#DejaVuSans-98"/>
    <use x="1929.503906" xlink:href="#DejaVuSans-46"/>
    <use x="1961.291016" xlink:href="#DejaVuSans-118"/>
    <use x="2012.720703" xlink:href="#DejaVuSans-46"/>
    <use x="2044.507812" xlink:href="#DejaVuSans-32"/>
    <use x="2076.294922" xlink:href="#DejaVuSans-100"/>
    <use x="2139.771484" xlink:href="#DejaVuSans-97"/>
    <use x="2201.050781" xlink:href="#DejaVuSans-116"/>
    <use x="2240.259766" xlink:href="#DejaVuSans-97"/>
    <use x="2301.539062" xlink:href="#DejaVuSans-32"/>
    <use x="2333.326172" xlink:href="#DejaVuSans-116"/>
    <use x="2372.535156" xlink:href="#DejaVuSans-111"/>
    <use x="2433.716797" xlink:href="#DejaVuSans-116"/>
    <use x="2472.925781" xlink:href="#DejaVuSans-32"/>
    <use x="2504.712891" xlink:href="#DejaVuSans-50"/>
    <use x="2568.335938" xlink:href="#DejaVuSans-48"/>
    <use x="2631.958984" xlink:href="#DejaVuSans-50"/>
    <use x="2695.582031" xlink:href="#DejaVuSans-49"/>
    <use x="2759.205078" xlink:href="#DejaVuSans-45"/>
    <use x="2795.289062" xlink:href="#DejaVuSans-48"/>
    <use x="2858.912109" xlink:href="#DejaVuSans-50"/>
    <use x="2922.535156" xlink:href="#DejaVuSans-45"/>
    <use x="2958.619141" xlink:href="#DejaVuSans-50"/>
    <use x="3022.242188" xlink:href="#DejaVuSans-52"/>
    <use x="3085.865234" xlink:href="#DejaVuSans-46"/>
   </g>
   <!-- Source code: http://github.com/realrolfje/coronadata -->
   <g style="fill:#808080;" transform="translate(7.2 213.84)scale(0.08 -0.08)">
    <defs>
     <path d="M 25.390625 72.90625 
L 33.6875 72.90625 
L 8.296875 -9.28125 
L 0 -9.28125 
z
" id="DejaVuSans-47"/>
     <path d="M 37.109375 75.984375 
L 37.109375 68.5 
L 28.515625 68.5 
Q 23.6875 68.5 21.796875 66.546875 
Q 19.921875 64.59375 19.921875 59.515625 
L 19.921875 54.6875 
L 34.71875 54.6875 
L 34.71875 47.703125 
L 19.921875 47.703125 
L 19.921875 0 
L 10.890625 0 
L 10.890625 47.703125 
L 2.296875 47.703125 
L 2.296875 54.6875 
L 10.890625 54.6875 
L 10.890625 58.5 
Q 10.890625 67.625 15.140625 71.796875 
Q 19.390625 75.984375 28.609375 75.984375 
z
" id="DejaVuSans-102"/>
     <path d="M 9.421875 54.6875 
L 18.40625 54.6875 
L 18.40625 -0.984375 
Q 18.40625 -11.421875 14.421875 -16.109375 
Q 10.453125 -20.796875 1.609375 -20.796875 
L -1.8125 -20.796875 
L -1.8125 -13.1875 
L 0.59375 -13.1875 
Q 5.71875 -13.1875 7.5625 -10.8125 
Q 9.421875 -8.453125 9.421875 -0.984375 
z
M 9.421875 75.984375 
L 18.40625 75.984375 
L 18.40625 64.59375 
L 9.421875 64.59375 
z
" id="DejaVuSans-106"/>
    </defs>
    <use xlink:href="#DejaVuSans-83"/>
    <use x="63.476562" xlink:href="#DejaVuSans-111"/>
    <use x="124.658203" xlink:href="#DejaVuSans-117"/>
    <use x="188.037109" xlink:href="#DejaVuSans-114"/>
    <use x="226.900391" xlink:href="#DejaVuSans-99"/>
    <use x="281.880859" xlink:href="#DejaVuSans-101"/>
    <use x="343.404297" xlink:href="#DejaVuSans-32"/>
    <use x="375.191406" xlink:href="#DejaVuSans-99"/>
    <use x="430.171875" xlink:href="#DejaVuSans-111"/>
    <use x="491.353516" xlink:href="#DejaVuSans-100"/>
    <use x="554.830078" xlink:href="#DejaVuSans-101"/>
    <use x="616.353516" xlink:href="#DejaVuSans-58"/>
    <use x="650.044922" xlink:href="#DejaVuSans-32"/>
    <use x="681.832031" xlink:href="#DejaVuSans-104"/>
    <use x="745.210938" xlink:href="#DejaVuSans-116"/>
    <use x="784.419922" xlink:href="#DejaVuSans-116"/>
    <use x="823.628906" xlink:href="#DejaVuSans-112"/>
    <use x="887.105469" xlink:href="#DejaVuSans-58"/>
    <use x="920.796875" xlink:href="#DejaVuSans-47"/>
    <use x="954.488281" xlink:href="#DejaVuSans-47"/>
    <use x="988.179688" xlink:href="#DejaVuSans-103"/>
    <use x="1051.65625" xlink:href="#DejaVuSans-105"/>
    <use x="1079.439453" xlink:href="#DejaVuSans-116"/>
    <use x="1118.648438" xlink:href="#DejaVuSans-104"/>
    <use x="1182.027344" xlink:href="#DejaVuSans-117"/>
    <use x="1245.40625" xlink:href="#DejaVuSans-98"/>
    <use x="1308.882812" xlink:href="#DejaVuSans-46"/>
    <use x="1340.669922" xlink:href="#DejaVuSans-99"/>
    <use x="1395.650391" xlink:href="#DejaVuSans-111"/>
    <use x="1456.832031" xlink:href="#DejaVuSans-109"/>
    <use x="1554.244141" xlink:href="#DejaVuSans-47"/>
    <use x="1587.935547" xlink:href="#DejaVuSans-114"/>
    <use x="1626.798828" xlink:href="#DejaVuSans-101"/>
    <use x="1688.322266" xlink:href="#DejaVuSans-97"/>
    <use x="1749.601562" xlink:href="#DejaVuSans-108"/>
    <use x="1777.384766" xlink:href="#DejaVuSans-114"/>
    <use x="1816.248047" xlink:href="#DejaVuSans-111"/>
    <use x="1877.429688" xlink:href="#DejaVuSans-108"/>
    <use x="1905.212891" xlink:href="#DejaVuSans-102"/>
    <use x="1940.417969" xlink:href="#DejaVuSans-106"/>
    <use x="1968.201172" xlink:href="#DejaVuSans-101"/>
    <use x="2029.724609" xlink:href="#DejaVuSans-47"/>
    <use x="2063.416016" xlink:href="#DejaVuSans-99"/>
    <use x="2118.396484" xlink:href="#DejaVuSans-111"/>
    <use x="2179.578125" xlink:href="#DejaVuSans-114"/>
    <use x="2218.441406" xlink:href="#DejaVuSans-111"/>
    <use x="2279.623047" xlink:href="#DejaVuSans-110"/>
    <use x="2343.001953" xlink:href="#DejaVuSans-97"/>
    <use x="2404.28125" xlink:href="#DejaVuSans-100"/>
    <use x="2467.757812" xlink:href="#DejaVuSans-97"/>
    <use x="2529.037109" xlink:href="#DejaVuSans-116"/>
    <use x="2568.246094" xlink:href="#DejaVuSans-97"/>
   </g>
  </g>
  <g id="text_25">
   <!-- Bron: https://data.rivm.nl/covid-19 -->
   <g style="fill:#808080;" transform="translate(574.79875 213.84)scale(0.08 -0.08)">
    <defs>
     <path d="M 19.671875 34.8125 
L 19.671875 8.109375 
L 35.5 8.109375 
Q 43.453125 8.109375 47.28125 11.40625 
Q 51.125 14.703125 51.125 21.484375 
Q 51.125 28.328125 47.28125 31.5625 
Q 43.453125 34.8125 35.5 34.8125 
z
M 19.671875 64.796875 
L 19.671875 42.828125 
L 34.28125 42.828125 
Q 41.5 42.828125 45.03125 45.53125 
Q 48.578125 48.25 48.578125 53.8125 
Q 48.578125 59.328125 45.03125 62.0625 
Q 41.5 64.796875 34.28125 64.796875 
z
M 9.8125 72.90625 
L 35.015625 72.90625 
Q 46.296875 72.90625 52.390625 68.21875 
Q 58.5 63.53125 58.5 54.890625 
Q 58.5 48.1875 55.375 44.234375 
Q 52.25 40.28125 46.1875 39.3125 
Q 53.46875 37.75 57.5 32.78125 
Q 61.53125 27.828125 61.53125 20.40625 
Q 61.53125 10.640625 54.890625 5.3125 
Q 48.25 0 35.984375 0 
L 9.8125 0 
z
" id="DejaVuSans-66"/>
    </defs>
    <use xlink:href="#DejaVuSans-66"/>
    <use x="68.603516" xlink:href="#DejaVuSans-114"/>
    <use x="107.466797" xlink:href="#DejaVuSans-111"/>
    <use x="168.648438" xlink:href="#DejaVuSans-110"/>
    <use x="232.027344" xlink:href="#DejaVuSans-58"/>
    <use x="265.71875" xlink:href="#DejaVuSans-32"/>
    <use x="297.505859" xlink:href="#DejaVuSans-104"/>
    <use x="360.884766" xlink:href="#DejaVuSans-116"/>
    <use x="400.09375" xlink:href="#DejaVuSans-116"/>
    <use x="439.302734" xlink:href="#DejaVuSans-112"/>
    <use x="502.779297" xlink:href="#DejaVuSans-115"/>
    <use x="554.878906" xlink:href="#DejaVuSans-58"/>
    <use x="588.570312" xlink:href="#DejaVuSans-47"/>
    <use x="622.261719" xlink:href="#DejaVuSans-47"/>
    <use x="655.953125" xlink:href="#DejaVuSans-100"/>
    <use x="719.429688" xlink:href="#DejaVuSans-97"/>
    <use x="780.708984" xlink:href="#DejaVuSans-116"/>
    <use x="819.917969" xlink:href="#DejaVuSans-97"/>
    <use x="881.197266" xlink:href="#DejaVuSans-46"/>
    <use x="912.984375" xlink:href="#DejaVuSans-114"/>
    <use x="954.097656" xlink:href="#DejaVuSans-105"/>
    <use x="981.880859" xlink:href="#DejaVuSans-118"/>
    <use x="1041.060547" xlink:href="#DejaVuSans-109"/>
    <use x="1138.472656" xlink:href="#DejaVuSans-46"/>
    <use x="1170.259766" xlink:href="#DejaVuSans-110"/>
    <use x="1233.638672" xlink:href="#DejaVuSans-108"/>
    <use x="1261.421875" xlink:href="#DejaVuSans-47"/>
    <use x="1295.113281" xlink:href="#DejaVuSans-99"/>
    <use x="1350.09375" xlink:href="#DejaVuSans-111"/>
    <use x="1411.275391" xlink:href="#DejaVuSans-118"/>
    <use x="1470.455078" xlink:href="#DejaVuSans-105"/>
    <use x="1498.238281" xlink:href="#DejaVuSans-100"/>
    <use x="1561.714844" xlink:href="#DejaVuSans-45"/>
    <use x="1597.798828" xlink:href="#DejaVuSans-49"/>
    <use x="1661.421875" xlink:href="#DejaVuSans-57"/>
   </g>
  </g>
  <g id="text_26">
   <g id="patch_13">
    <path d="M 637.2 176.62375 
L 647.38 176.62375 
L 647.38 168.88125 
L 637.2 168.88125 
z
" style="fill:#ffffff;opacity:0.9;stroke:#ffffff;stroke-linejoin:miter;"/>
   </g>
   <!-- 02 -->
   <g style="fill:#ff0000;" transform="translate(637.2 174.96)scale(0.08 -0.08)">
    <use xlink:href="#DejaVuSans-48"/>
    <use x="63.623047" xlink:href="#DejaVuSans-50"/>
   </g>
  </g>
  <g id="text_27">
   <g id="patch_14">
    <path d="M 212 92.479688 
L 339.317187 92.479688 
L 339.317187 74.801563 
L 212 74.801563 
z
" style="fill:#ffffff;stroke:#ffffff;stroke-linejoin:miter;"/>
   </g>
   <!-- "Je plee liegt niet" - Rolf -->
   <g style="fill:#808080;" transform="translate(216 86.4)scale(0.1 -0.1)">
    <defs>
     <path d="M 17.921875 72.90625 
L 17.921875 45.796875 
L 9.625 45.796875 
L 9.625 72.90625 
z
M 36.375 72.90625 
L 36.375 45.796875 
L 28.078125 45.796875 
L 28.078125 72.90625 
z
" id="DejaVuSans-34"/>
     <path d="M 9.8125 72.90625 
L 19.671875 72.90625 
L 19.671875 5.078125 
Q 19.671875 -8.109375 14.671875 -14.0625 
Q 9.671875 -20.015625 -1.421875 -20.015625 
L -5.171875 -20.015625 
L -5.171875 -11.71875 
L -2.09375 -11.71875 
Q 4.4375 -11.71875 7.125 -8.046875 
Q 9.8125 -4.390625 9.8125 5.078125 
z
" id="DejaVuSans-74"/>
    </defs>
    <use xlink:href="#DejaVuSans-34"/>
    <use x="45.996094" xlink:href="#DejaVuSans-74"/>
    <use x="75.488281" xlink:href="#DejaVuSans-101"/>
    <use x="137.011719" xlink:href="#DejaVuSans-32"/>
    <use x="168.798828" xlink:href="#DejaVuSans-112"/>
    <use x="232.275391" xlink:href="#DejaVuSans-108"/>
    <use x="260.058594" xlink:href="#DejaVuSans-101"/>
    <use x="321.582031" xlink:href="#DejaVuSans-101"/>
    <use x="383.105469" xlink:href="#DejaVuSans-32"/>
    <use x="414.892578" xlink:href="#DejaVuSans-108"/>
    <use x="442.675781" xlink:href="#DejaVuSans-105"/>
    <use x="470.458984" xlink:href="#DejaVuSans-101"/>
    <use x="531.982422" xlink:href="#DejaVuSans-103"/>
    <use x="595.458984" xlink:href="#DejaVuSans-116"/>
    <use x="634.667969" xlink:href="#DejaVuSans-32"/>
    <use x="666.455078" xlink:href="#DejaVuSans-110"/>
    <use x="729.833984" xlink:href="#DejaVuSans-105"/>
    <use x="757.617188" xlink:href="#DejaVuSans-101"/>
    <use x="819.140625" xlink:href="#DejaVuSans-116"/>
    <use x="858.349609" xlink:href="#DejaVuSans-34"/>
    <use x="904.345703" xlink:href="#DejaVuSans-32"/>
    <use x="936.132812" xlink:href="#DejaVuSans-45"/>
    <use x="972.216797" xlink:href="#DejaVuSans-32"/>
    <use x="1004.003906" xlink:href="#DejaVuSans-82"/>
    <use x="1068.986328" xlink:href="#DejaVuSans-111"/>
    <use x="1130.167969" xlink:href="#DejaVuSans-108"/>
    <use x="1157.951172" xlink:href="#DejaVuSans-102"/>
   </g>
  </g>
 </g>
 <defs>
  <clipPath id="p047e5f67fb">
   <rect height="146.88" width="590.4" x="64.8" y="25.92"/>
  </clipPath>
 </defs>
</svg>
