<?xml version="1.0" encoding="utf-8" standalone="no"?>
<!DOCTYPE svg PUBLIC "-//W3C//DTD SVG 1.1//EN"
  "http://www.w3.org/Graphics/SVG/1.1/DTD/svg11.dtd">
<!-- Created with matplotlib (https://matplotlib.org/) -->
<svg height="216pt" version="1.1" viewBox="0 0 720 216" width="720pt" xmlns="http://www.w3.org/2000/svg" xmlns:xlink="http://www.w3.org/1999/xlink">
 <metadata>
  <rdf:RDF xmlns:cc="http://creativecommons.org/ns#" xmlns:dc="http://purl.org/dc/elements/1.1/" xmlns:rdf="http://www.w3.org/1999/02/22-rdf-syntax-ns#">
   <cc:Work>
    <dc:type rdf:resource="http://purl.org/dc/dcmitype/StillImage"/>
    <dc:date>2021-09-17T11:41:04.583991</dc:date>
    <dc:format>image/svg+xml</dc:format>
    <dc:creator>
     <cc:Agent>
      <dc:title>Matplotlib v3.3.2, https://matplotlib.org/</dc:title>
     </cc:Agent>
    </dc:creator>
   </cc:Work>
  </rdf:RDF>
 </metadata>
 <defs>
  <style type="text/css">*{stroke-linecap:butt;stroke-linejoin:round;}</style>
 </defs>
 <g id="figure_1">
  <g id="patch_1">
   <path d="M 0 216 
L 720 216 
L 720 0 
L 0 0 
z
" style="fill:#ffffff;"/>
  </g>
  <g id="axes_1">
   <g id="patch_2">
    <path d="M 64.8 172.8 
L 655.2 172.8 
L 655.2 25.92 
L 64.8 25.92 
z
" style="fill:#ffffff;"/>
   </g>
   <g id="PolyCollection_1">
    <path clip-path="url(#pc01c495bd2)" d="M 94.785289 172.8 
L 94.785289 172.8 
L 95.819264 172.8 
L 96.85324 172.8 
L 97.887215 172.8 
L 100.989142 172.8 
L 102.023117 172.8 
L 103.057093 172.8 
L 104.091068 172.8 
L 105.125044 172.8 
L 106.159019 172.8 
L 109.260946 172.8 
L 110.294921 172.8 
L 111.328897 172.8 
L 112.362872 172.8 
L 113.396848 172.8 
L 115.464799 172.8 
L 116.498774 172.8 
L 117.53275 172.8 
L 118.566725 172.8 
L 119.600701 172.8 
L 122.702627 172.8 
L 123.736602 172.8 
L 124.770578 172.8 
L 125.804553 172.8 
L 126.838529 172.8 
L 127.872504 172.8 
L 129.940455 172.8 
L 132.008406 172.8 
L 133.042382 172.8 
L 134.076357 172.8 
L 136.144308 172.8 
L 137.178284 172.8 
L 138.212259 172.8 
L 139.246235 172.8 
L 140.28021 172.8 
L 142.348161 172.8 
L 143.382137 172.8 
L 144.416112 172.8 
L 145.450088 172.8 
L 146.484063 172.8 
L 147.518039 172.8 
L 148.552014 172.8 
L 149.585989 172.8 
L 150.619965 172.8 
L 151.65394 172.8 
L 152.687916 172.8 
L 153.721891 172.8 
L 154.755867 172.8 
L 155.789842 172.8 
L 156.823818 172.8 
L 159.925744 172.8 
L 160.95972 172.8 
L 161.993695 172.8 
L 163.027671 172.8 
L 164.061646 172.8 
L 165.095622 172.8 
L 166.129597 172.8 
L 167.163573 172.8 
L 168.197548 172.8 
L 169.231524 172.8 
L 170.265499 172.8 
L 173.367426 172.8 
L 174.401401 172.8 
L 175.435377 172.8 
L 176.469352 172.8 
L 180.605254 172.8 
L 181.639229 172.8 
L 182.673205 172.8 
L 186.809107 172.8 
L 187.843082 172.8 
L 188.877058 172.8 
L 189.911033 172.8 
L 191.978984 172.8 
L 196.114886 172.8 
L 197.148862 172.8 
L 198.182837 172.8 
L 203.352715 172.8 
L 204.38669 172.8 
L 206.454641 172.8 
L 208.522592 172.8 
L 209.556567 172.8 
L 210.590543 172.8 
L 211.624518 172.8 
L 212.658494 172.8 
L 213.692469 172.8 
L 214.726445 172.8 
L 215.76042 172.8 
L 216.794396 172.8 
L 217.828371 172.8 
L 218.862347 172.8 
L 219.896322 172.8 
L 220.930298 172.8 
L 221.964273 172.8 
L 222.998249 172.8 
L 224.032224 172.8 
L 225.0662 172.8 
L 226.100175 172.8 
L 227.134151 172.8 
L 228.168126 172.8 
L 229.202102 172.8 
L 231.270053 172.8 
L 232.304028 172.8 
L 233.338004 172.8 
L 234.371979 172.8 
L 235.405954 172.8 
L 236.43993 172.8 
L 237.473905 172.8 
L 238.507881 172.8 
L 239.541856 172.8 
L 240.575832 172.8 
L 241.609807 172.8 
L 242.643783 172.8 
L 243.677758 172.8 
L 244.711734 172.8 
L 245.745709 172.8 
L 246.779685 172.8 
L 247.81366 172.8 
L 248.847636 172.8 
L 249.881611 172.8 
L 250.915587 172.8 
L 251.949562 172.8 
L 252.983538 172.8 
L 254.017513 172.8 
L 255.051489 172.8 
L 256.085464 172.8 
L 257.11944 172.8 
L 258.153415 172.8 
L 259.187391 172.8 
L 260.221366 172.8 
L 261.255342 172.8 
L 262.289317 172.8 
L 263.323292 172.8 
L 264.357268 172.8 
L 265.391243 172.8 
L 266.425219 172.8 
L 267.459194 172.8 
L 268.49317 172.8 
L 269.527145 172.8 
L 270.561121 172.8 
L 271.595096 172.8 
L 272.629072 172.8 
L 273.663047 172.8 
L 274.697023 172.8 
L 275.730998 172.8 
L 276.764974 172.8 
L 277.798949 172.8 
L 278.832925 172.8 
L 279.8669 172.8 
L 280.900876 172.8 
L 281.934851 172.8 
L 282.968827 172.8 
L 284.002802 172.8 
L 285.036778 172.8 
L 286.070753 172.8 
L 287.104729 172.8 
L 288.138704 172.8 
L 289.17268 172.8 
L 290.206655 172.8 
L 291.24063 172.8 
L 292.274606 172.8 
L 293.308581 172.8 
L 294.342557 172.8 
L 295.376532 172.8 
L 296.410508 172.8 
L 297.444483 172.8 
L 298.478459 172.8 
L 299.512434 172.8 
L 300.54641 172.8 
L 301.580385 172.8 
L 302.614361 172.8 
L 303.648336 172.8 
L 304.682312 172.8 
L 305.716287 172.8 
L 306.750263 172.8 
L 307.784238 172.8 
L 308.818214 172.8 
L 309.852189 172.8 
L 310.886165 172.8 
L 311.92014 172.8 
L 312.954116 172.8 
L 313.988091 172.8 
L 315.022067 172.8 
L 316.056042 172.8 
L 317.090018 172.8 
L 318.123993 172.8 
L 319.157968 172.8 
L 320.191944 172.8 
L 321.225919 172.8 
L 322.259895 172.8 
L 323.29387 172.8 
L 324.327846 172.8 
L 325.361821 172.8 
L 326.395797 172.8 
L 327.429772 172.8 
L 328.463748 172.8 
L 329.497723 172.8 
L 330.531699 172.8 
L 331.565674 172.8 
L 332.59965 172.8 
L 333.633625 172.8 
L 334.667601 172.8 
L 335.701576 172.8 
L 336.735552 172.8 
L 337.769527 172.8 
L 338.803503 172.8 
L 339.837478 172.8 
L 340.871454 172.8 
L 341.905429 172.8 
L 342.939405 172.8 
L 343.97338 172.8 
L 345.007356 172.8 
L 346.041331 172.8 
L 347.075306 172.8 
L 348.109282 172.8 
L 349.143257 172.8 
L 350.177233 172.8 
L 351.211208 172.8 
L 352.245184 172.8 
L 353.279159 172.8 
L 354.313135 172.8 
L 355.34711 172.8 
L 356.381086 172.8 
L 357.415061 172.8 
L 358.449037 172.8 
L 359.483012 172.8 
L 360.516988 172.8 
L 361.550963 172.8 
L 362.584939 172.8 
L 363.618914 172.8 
L 364.65289 172.8 
L 365.686865 172.8 
L 366.720841 172.8 
L 367.754816 172.8 
L 368.788792 172.8 
L 369.822767 172.8 
L 370.856743 172.8 
L 371.890718 172.8 
L 372.924694 172.8 
L 373.958669 172.8 
L 374.992644 172.8 
L 376.02662 172.8 
L 377.060595 172.8 
L 378.094571 172.8 
L 379.128546 172.8 
L 381.196497 172.8 
L 382.230473 172.8 
L 383.264448 172.8 
L 384.298424 172.8 
L 385.332399 172.8 
L 386.366375 172.8 
L 387.40035 172.8 
L 388.434326 172.8 
L 389.468301 172.8 
L 390.502277 172.8 
L 391.536252 172.8 
L 392.570228 172.8 
L 393.604203 172.8 
L 394.638179 172.8 
L 395.672154 172.8 
L 396.70613 172.8 
L 397.740105 172.8 
L 398.774081 172.8 
L 399.808056 172.8 
L 400.842032 172.8 
L 401.876007 172.8 
L 402.909982 172.8 
L 403.943958 172.8 
L 404.977933 172.8 
L 406.011909 172.8 
L 407.045884 172.8 
L 408.07986 172.8 
L 409.113835 172.8 
L 410.147811 172.8 
L 411.181786 172.8 
L 412.215762 172.8 
L 413.249737 172.8 
L 414.283713 172.8 
L 415.317688 172.8 
L 416.351664 172.8 
L 417.385639 172.8 
L 418.419615 172.8 
L 419.45359 172.8 
L 420.487566 172.8 
L 421.521541 172.8 
L 422.555517 172.8 
L 423.589492 172.8 
L 424.623468 172.8 
L 425.657443 172.8 
L 426.691419 172.8 
L 427.725394 172.8 
L 428.75937 172.8 
L 429.793345 172.8 
L 430.82732 172.8 
L 431.861296 172.8 
L 432.895271 172.8 
L 433.929247 172.8 
L 434.963222 172.8 
L 435.997198 172.8 
L 437.031173 172.8 
L 438.065149 172.8 
L 439.099124 172.8 
L 440.1331 172.8 
L 441.167075 172.8 
L 442.201051 172.8 
L 443.235026 172.8 
L 444.269002 172.8 
L 445.302977 172.8 
L 446.336953 172.8 
L 447.370928 172.8 
L 448.404904 172.8 
L 449.438879 172.8 
L 450.472855 172.8 
L 451.50683 172.8 
L 452.540806 172.8 
L 453.574781 172.8 
L 454.608757 172.8 
L 455.642732 172.8 
L 456.676708 172.8 
L 457.710683 172.8 
L 458.744658 172.8 
L 459.778634 172.8 
L 460.812609 172.8 
L 461.846585 172.8 
L 462.88056 172.8 
L 463.914536 172.8 
L 464.948511 172.8 
L 465.982487 172.8 
L 467.016462 172.8 
L 468.050438 172.8 
L 469.084413 172.8 
L 470.118389 172.8 
L 471.152364 172.8 
L 472.18634 172.8 
L 473.220315 172.8 
L 474.254291 172.8 
L 475.288266 172.8 
L 476.322242 172.8 
L 477.356217 172.8 
L 478.390193 172.8 
L 479.424168 172.8 
L 480.458144 172.8 
L 481.492119 172.8 
L 482.526095 172.8 
L 483.56007 172.8 
L 484.594046 172.8 
L 485.628021 172.8 
L 486.661996 172.8 
L 487.695972 172.8 
L 488.729947 172.8 
L 489.763923 172.8 
L 490.797898 172.8 
L 491.831874 172.8 
L 492.865849 172.8 
L 493.899825 172.8 
L 494.9338 172.8 
L 495.967776 172.8 
L 497.001751 172.8 
L 498.035727 172.8 
L 499.069702 172.8 
L 500.103678 172.8 
L 501.137653 172.8 
L 502.171629 172.8 
L 503.205604 172.8 
L 504.23958 172.8 
L 505.273555 172.8 
L 506.307531 172.8 
L 507.341506 172.8 
L 508.375482 172.8 
L 509.409457 172.8 
L 510.443433 172.8 
L 511.477408 172.8 
L 512.511384 172.8 
L 513.545359 172.8 
L 514.579335 172.8 
L 515.61331 172.8 
L 516.647285 172.8 
L 517.681261 172.8 
L 518.715236 172.8 
L 519.749212 172.8 
L 520.783187 172.8 
L 521.817163 172.8 
L 522.851138 172.8 
L 523.885114 172.8 
L 524.919089 172.8 
L 525.953065 172.8 
L 528.021016 172.8 
L 529.054991 172.8 
L 530.088967 172.8 
L 531.122942 172.8 
L 532.156918 172.8 
L 533.190893 172.8 
L 534.224869 172.8 
L 535.258844 172.8 
L 536.29282 172.8 
L 537.326795 172.8 
L 538.360771 172.8 
L 539.394746 172.8 
L 540.428722 172.8 
L 542.496673 172.8 
L 543.530648 172.8 
L 544.564623 172.8 
L 545.598599 172.8 
L 546.632574 172.8 
L 548.700525 172.8 
L 549.734501 172.8 
L 550.768476 172.8 
L 551.802452 172.8 
L 552.836427 172.8 
L 553.870403 172.8 
L 555.938354 172.8 
L 556.972329 172.8 
L 558.006305 172.8 
L 559.04028 172.8 
L 560.074256 172.8 
L 561.108231 172.8 
L 562.142207 172.8 
L 563.176182 172.8 
L 564.210158 172.8 
L 565.244133 172.8 
L 566.278109 172.8 
L 567.312084 172.8 
L 568.34606 172.8 
L 569.380035 172.8 
L 570.414011 172.8 
L 571.447986 172.8 
L 572.481961 172.8 
L 573.515937 172.8 
L 574.549912 172.8 
L 575.583888 172.8 
L 576.617863 172.8 
L 577.651839 172.8 
L 578.685814 172.8 
L 579.71979 172.8 
L 580.753765 172.8 
L 581.787741 172.8 
L 582.821716 172.8 
L 584.889667 172.8 
L 585.923643 172.8 
L 586.957618 172.8 
L 587.991594 172.8 
L 589.025569 172.8 
L 590.059545 172.8 
L 591.09352 172.8 
L 592.127496 172.8 
L 593.161471 172.8 
L 594.195447 172.8 
L 595.229422 172.8 
L 596.263398 172.8 
L 597.297373 172.8 
L 598.331349 172.8 
L 599.365324 172.8 
L 600.399299 172.8 
L 601.433275 172.8 
L 602.46725 172.8 
L 603.501226 172.8 
L 604.535201 172.8 
L 605.569177 172.8 
L 606.603152 172.8 
L 607.637128 172.8 
L 608.671103 172.8 
L 609.705079 172.8 
L 610.739054 172.8 
L 611.77303 172.8 
L 612.807005 172.8 
L 613.840981 172.8 
L 614.874956 172.8 
L 615.908932 172.8 
L 616.942907 172.8 
L 617.976883 172.8 
L 619.010858 172.8 
L 620.044834 172.8 
L 621.078809 172.8 
L 622.112785 172.8 
L 623.14676 172.8 
L 624.180736 172.8 
L 625.214711 172.8 
L 626.248687 172.8 
L 627.282662 172.8 
L 628.316637 172.8 
L 629.350613 172.8 
L 630.384588 172.8 
L 631.418564 172.8 
L 632.452539 172.8 
L 633.486515 172.8 
L 634.52049 172.8 
L 635.554466 172.8 
L 636.588441 172.8 
L 637.622417 172.8 
L 638.656392 172.8 
L 639.690368 172.8 
L 640.724343 172.8 
L 641.758319 172.8 
L 642.792294 172.8 
L 643.82627 172.8 
L 644.860245 172.8 
L 644.860245 172.8 
L 644.860245 158.775647 
L 643.82627 154.177656 
L 642.792294 155.010411 
L 641.758319 152.312463 
L 640.724343 155.009983 
L 639.690368 152.386076 
L 638.656392 158.976308 
L 637.622417 158.096098 
L 636.588441 156.450543 
L 635.554466 151.209178 
L 634.52049 156.311731 
L 633.486515 139.707295 
L 632.452539 143.781256 
L 631.418564 152.971616 
L 630.384588 153.896932 
L 629.350613 113.669369 
L 628.316637 124.362251 
L 627.282662 86.577856 
L 626.248687 91.383937 
L 625.214711 105.382336 
L 624.180736 110.853274 
L 623.14676 112.127323 
L 622.112785 67.181409 
L 621.078809 109.565432 
L 620.044834 97.730493 
L 619.010858 117.71063 
L 617.976883 133.579882 
L 616.942907 96.753757 
L 615.908932 103.219315 
L 614.874956 117.079514 
L 613.840981 103.984872 
L 612.807005 128.2345 
L 611.77303 120.415449 
L 610.739054 134.532795 
L 609.705079 118.384142 
L 608.671103 118.552232 
L 607.637128 112.405321 
L 606.603152 94.416467 
L 605.569177 100.817589 
L 604.535201 117.165743 
L 603.501226 122.572452 
L 602.46725 118.302124 
L 601.433275 128.283917 
L 600.399299 124.913276 
L 599.365324 124.066115 
L 598.331349 97.692824 
L 597.297373 141.76763 
L 596.263398 149.910168 
L 595.229422 140.845228 
L 594.195447 131.625371 
L 593.161471 105.308852 
L 592.127496 96.264172 
L 591.09352 112.880803 
L 590.059545 116.434041 
L 589.025569 118.687112 
L 587.991594 128.771532 
L 586.957618 112.404711 
L 585.923643 127.855989 
L 584.889667 135.751115 
L 582.821716 69.648406 
L 581.787741 86.113571 
L 580.753765 116.02818 
L 579.71979 120.094685 
L 578.685814 107.112476 
L 577.651839 113.784516 
L 576.617863 131.663277 
L 575.583888 133.740688 
L 574.549912 152.117372 
L 573.515937 158.281979 
L 572.481961 154.89907 
L 571.447986 132.47733 
L 570.414011 165.205335 
L 569.380035 162.865898 
L 568.34606 164.987836 
L 567.312084 161.118372 
L 566.278109 157.461296 
L 565.244133 159.326763 
L 564.210158 149.053694 
L 563.176182 162.572281 
L 562.142207 166.70406 
L 561.108231 164.64173 
L 560.074256 163.459728 
L 559.04028 166.403695 
L 558.006305 160.640142 
L 556.972329 165.344346 
L 555.938354 166.93012 
L 553.870403 164.902401 
L 552.836427 166.066596 
L 551.802452 158.116862 
L 550.768476 165.628619 
L 549.734501 163.718601 
L 548.700525 152.60752 
L 546.632574 166.232787 
L 545.598599 158.256133 
L 544.564623 164.878666 
L 543.530648 165.456303 
L 542.496673 157.55768 
L 540.428722 154.304757 
L 539.394746 161.942522 
L 538.360771 153.310483 
L 537.326795 150.077338 
L 536.29282 155.755811 
L 535.258844 143.826417 
L 534.224869 159.960447 
L 533.190893 157.185634 
L 532.156918 160.726307 
L 531.122942 150.879304 
L 530.088967 146.075299 
L 529.054991 147.41725 
L 528.021016 156.27884 
L 525.953065 160.982456 
L 524.919089 159.298533 
L 523.885114 144.979683 
L 522.851138 147.072647 
L 521.817163 142.244774 
L 520.783187 150.258207 
L 519.749212 158.486479 
L 518.715236 144.799993 
L 517.681261 135.032938 
L 516.647285 137.394655 
L 515.61331 140.84374 
L 514.579335 145.790526 
L 513.545359 108.764004 
L 512.511384 103.273657 
L 511.477408 115.867162 
L 510.443433 141.750076 
L 509.409457 128.093661 
L 508.375482 113.945642 
L 507.341506 139.507839 
L 506.307531 143.867111 
L 505.273555 158.804853 
L 504.23958 153.36857 
L 503.205604 115.734033 
L 502.171629 135.557076 
L 501.137653 140.718885 
L 500.103678 121.156437 
L 499.069702 133.517688 
L 498.035727 130.021742 
L 497.001751 135.887764 
L 495.967776 147.3494 
L 494.9338 147.24953 
L 493.899825 137.250226 
L 492.865849 138.498124 
L 491.831874 127.877434 
L 490.797898 110.024864 
L 489.763923 143.629121 
L 488.729947 144.987049 
L 487.695972 148.303003 
L 486.661996 131.619043 
L 485.628021 142.225225 
L 484.594046 137.005289 
L 483.56007 100.009519 
L 482.526095 134.671348 
L 481.492119 148.858822 
L 480.458144 122.940898 
L 479.424168 123.293579 
L 478.390193 134.730823 
L 477.356217 144.522787 
L 476.322242 142.30677 
L 475.288266 137.709261 
L 474.254291 136.600683 
L 473.220315 146.56533 
L 472.18634 138.795282 
L 471.152364 139.434002 
L 470.118389 132.653891 
L 469.084413 141.624997 
L 468.050438 122.590942 
L 467.016462 144.581141 
L 465.982487 133.344477 
L 464.948511 137.279044 
L 463.914536 137.38133 
L 462.88056 94.165674 
L 461.846585 149.839856 
L 460.812609 146.662783 
L 459.778634 144.206918 
L 458.744658 153.480188 
L 457.710683 131.993864 
L 456.676708 150.43032 
L 455.642732 146.065811 
L 454.608757 138.277085 
L 453.574781 140.477018 
L 452.540806 136.178252 
L 451.50683 145.566105 
L 450.472855 145.786417 
L 449.438879 134.926886 
L 448.404904 136.024015 
L 447.370928 135.502841 
L 446.336953 143.414983 
L 445.302977 140.34631 
L 444.269002 149.635629 
L 443.235026 144.992239 
L 442.201051 152.138659 
L 441.167075 152.824703 
L 440.1331 106.632528 
L 439.099124 150.114703 
L 438.065149 155.113752 
L 437.031173 147.420985 
L 435.997198 134.275209 
L 434.963222 123.744372 
L 433.929247 94.473208 
L 432.895271 122.019009 
L 431.861296 119.633237 
L 430.82732 121.19727 
L 429.793345 136.750773 
L 428.75937 126.4421 
L 427.725394 98.962939 
L 426.691419 132.441863 
L 425.657443 143.636859 
L 424.623468 133.632038 
L 423.589492 132.000431 
L 422.555517 145.904745 
L 421.521541 103.408729 
L 420.487566 140.758236 
L 419.45359 156.627057 
L 418.419615 115.69574 
L 417.385639 152.471809 
L 416.351664 136.72894 
L 415.317688 127.887017 
L 414.283713 110.956815 
L 413.249737 138.962608 
L 412.215762 141.077965 
L 411.181786 129.156698 
L 410.147811 15.712466 
L 409.113835 112.531776 
L 408.07986 118.92834 
L 407.045884 122.470209 
L 406.011909 116.457284 
L 404.977933 123.329339 
L 403.943958 128.230276 
L 402.909982 120.811736 
L 401.876007 114.079626 
L 400.842032 119.913195 
L 399.808056 71.00656 
L 398.774081 126.814628 
L 397.740105 95.872056 
L 396.70613 119.423246 
L 395.672154 118.320024 
L 394.638179 138.208685 
L 393.604203 118.67668 
L 392.570228 100.461711 
L 391.536252 102.561448 
L 390.502277 139.024808 
L 389.468301 143.231016 
L 388.434326 134.647109 
L 387.40035 94.723026 
L 386.366375 141.29349 
L 385.332399 136.552762 
L 384.298424 128.66006 
L 383.264448 142.371743 
L 382.230473 142.148088 
L 381.196497 148.584485 
L 379.128546 150.305439 
L 378.094571 124.142394 
L 377.060595 148.467582 
L 376.02662 109.285949 
L 374.992644 137.5216 
L 373.958669 110.627515 
L 372.924694 157.08584 
L 371.890718 83.454723 
L 370.856743 111.993572 
L 369.822767 73.117423 
L 368.788792 133.434908 
L 367.754816 141.108088 
L 366.720841 126.858461 
L 365.686865 131.992243 
L 364.65289 120.917477 
L 363.618914 111.695393 
L 362.584939 98.991505 
L 361.550963 126.495242 
L 360.516988 127.446293 
L 359.483012 134.093207 
L 358.449037 144.539163 
L 357.415061 131.684679 
L 356.381086 150.37664 
L 355.34711 145.286576 
L 354.313135 139.307814 
L 353.279159 155.752304 
L 352.245184 154.236541 
L 351.211208 134.668552 
L 350.177233 150.456177 
L 349.143257 133.217996 
L 348.109282 112.451703 
L 347.075306 145.388986 
L 346.041331 149.910775 
L 345.007356 140.879904 
L 343.97338 154.761525 
L 342.939405 158.326743 
L 341.905429 122.998856 
L 340.871454 151.411267 
L 339.837478 133.086678 
L 338.803503 150.509237 
L 337.769527 140.570395 
L 336.735552 148.641328 
L 335.701576 150.04713 
L 334.667601 135.321289 
L 333.633625 130.901662 
L 332.59965 44.215821 
L 331.565674 48.396702 
L 330.531699 38.97713 
L 329.497723 120.182092 
L 328.463748 127.945982 
L 327.429772 127.317375 
L 326.395797 112.159679 
L 325.361821 55.126432 
L 324.327846 90.13739 
L 323.29387 105.932244 
L 322.259895 118.054637 
L 321.225919 144.184981 
L 320.191944 133.663882 
L 319.157968 131.1864 
L 318.123993 77.781959 
L 317.090018 62.993072 
L 316.056042 124.885783 
L 315.022067 89.681272 
L 313.988091 11.011416 
L 312.954116 42.340637 
L 311.92014 119.390676 
L 310.886165 60.165783 
L 309.852189 113.669292 
L 308.818214 114.587018 
L 307.784238 139.858606 
L 306.750263 -22.678672 
L 305.716287 97.175973 
L 304.682312 124.695532 
L 303.648336 92.805126 
L 302.614361 116.290424 
L 301.580385 84.915226 
L 300.54641 138.012863 
L 299.512434 124.43797 
L 298.478459 136.682364 
L 297.444483 136.130025 
L 296.410508 61.273262 
L 295.376532 63.09404 
L 294.342557 104.391386 
L 293.308581 107.517959 
L 292.274606 105.395517 
L 291.24063 115.182639 
L 290.206655 115.189119 
L 289.17268 138.174102 
L 288.138704 127.2164 
L 287.104729 137.479155 
L 286.070753 130.384229 
L 285.036778 149.409778 
L 284.002802 142.907665 
L 282.968827 135.057121 
L 281.934851 130.129585 
L 280.900876 139.476754 
L 279.8669 162.342137 
L 278.832925 153.626899 
L 277.798949 156.722059 
L 276.764974 153.247738 
L 275.730998 162.160025 
L 274.697023 154.785068 
L 273.663047 158.549282 
L 272.629072 161.633784 
L 271.595096 159.76698 
L 270.561121 160.107807 
L 269.527145 165.528967 
L 268.49317 154.797816 
L 267.459194 163.75275 
L 266.425219 165.22846 
L 265.391243 164.822076 
L 264.357268 161.646606 
L 263.323292 159.609474 
L 262.289317 162.995666 
L 261.255342 161.886802 
L 260.221366 147.79368 
L 259.187391 166.873392 
L 258.153415 163.080216 
L 257.11944 168.72408 
L 256.085464 165.7773 
L 255.051489 166.489809 
L 254.017513 163.888056 
L 252.983538 168.28344 
L 251.949562 164.4003 
L 250.915587 160.81704 
L 249.881611 170.63352 
L 248.847636 166.34952 
L 247.81366 163.896812 
L 246.779685 161.468208 
L 245.745709 148.932 
L 244.711734 156.6432 
L 243.677758 159.01776 
L 242.643783 158.112 
L 241.609807 163.38438 
L 240.575832 163.348837 
L 239.541856 164.412103 
L 238.507881 165.720909 
L 237.473905 162.396 
L 236.43993 148.89528 
L 235.405954 150.35184 
L 234.371979 167.189184 
L 233.338004 155.830464 
L 232.304028 158.55264 
L 231.270053 160.61814 
L 229.202102 166.66776 
L 228.168126 169.42176 
L 227.134151 166.22712 
L 226.100175 162.81675 
L 225.0662 140.103463 
L 224.032224 128.69469 
L 222.998249 162.18333 
L 221.964273 165.56616 
L 220.930298 166.77792 
L 219.896322 156.79824 
L 218.862347 163.008 
L 217.828371 152.71008 
L 216.794396 156.738672 
L 215.76042 165.89664 
L 214.726445 159.98472 
L 213.692469 145.60884 
L 212.658494 167.76936 
L 211.624518 144.32976 
L 210.590543 167.74896 
L 209.556567 163.12428 
L 208.522592 168.47928 
L 206.454641 163.2528 
L 204.38669 169.20144 
L 203.352715 168.254064 
L 198.182837 168.09984 
L 197.148862 167.73264 
L 196.114886 166.41072 
L 191.978984 166.48416 
L 189.911033 171.95544 
L 188.877058 169.587 
L 187.843082 166.31892 
L 186.809107 167.58576 
L 182.673205 169.27488 
L 181.639229 171.3312 
L 180.605254 166.99824 
L 176.469352 170.505 
L 175.435377 167.45112 
L 174.401401 168.98112 
L 173.367426 159.25032 
L 170.265499 160.9272 
L 169.231524 165.815856 
L 168.197548 168.47622 
L 167.163573 163.8954 
L 166.129597 171.12924 
L 165.095622 172.10232 
L 164.061646 168.79752 
L 163.027671 164.68488 
L 161.993695 161.091566 
L 160.95972 161.86968 
L 159.925744 156.75336 
L 156.823818 170.85384 
L 155.789842 170.97624 
L 154.755867 137.21832 
L 153.721891 162.9774 
L 152.687916 162.89478 
L 151.65394 148.49136 
L 150.619965 170.48664 
L 149.585989 168.83424 
L 148.552014 143.960112 
L 147.518039 170.30304 
L 146.484063 163.28952 
L 145.450088 165.05208 
L 144.416112 163.19772 
L 143.382137 170.89056 
L 142.348161 163.0692 
L 140.28021 166.58973 
L 139.246235 168.8067 
L 138.212259 163.294766 
L 137.178284 163.53432 
L 136.144308 164.64816 
L 134.076357 161.12304 
L 133.042382 161.85132 
L 132.008406 159.52776 
L 129.940455 162.73872 
L 127.872504 170.70696 
L 126.838529 163.0692 
L 125.804553 162.9009 
L 124.770578 162.97536 
L 123.736602 155.233152 
L 122.702627 167.8428 
L 119.600701 58.45392 
L 118.566725 142.645536 
L 117.53275 159.65883 
L 116.498774 163.64448 
L 115.464799 161.6922 
L 113.396848 171.62496 
L 112.362872 156.870864 
L 111.328897 151.88184 
L 110.294921 162.40212 
L 109.260946 127.456046 
L 106.159019 140.04576 
L 105.125044 122.62212 
L 104.091068 110.401704 
L 103.057093 141.895113 
L 102.023117 109.53144 
L 100.989142 105.2964 
L 97.887215 84.75768 
L 96.85324 120.99624 
L 95.819264 136.657029 
L 94.785289 105.34536 
z
" style="fill:#008000;fill-opacity:0.3;"/>
   </g>
   <g id="matplotlib.axis_1">
    <g id="xtick_1">
     <g id="line2d_1">
      <path clip-path="url(#pc01c495bd2)" d="M 64.8 172.8 
L 64.8 25.92 
" style="fill:none;stroke:#808080;stroke-dasharray:6.4,1.6,1,1.6;stroke-dashoffset:0;stroke-opacity:0.3;"/>
     </g>
     <g id="line2d_2">
      <defs>
       <path d="M 0 0 
L 0 3.5 
" id="ma3622a9da7" style="stroke:#000000;stroke-width:0.8;"/>
      </defs>
      <g>
       <use style="stroke:#000000;stroke-width:0.8;" x="64.8" xlink:href="#ma3622a9da7" y="172.8"/>
      </g>
     </g>
     <g id="text_1">
      <!-- 2020-03 -->
      <g transform="translate(43.908594 187.398438)scale(0.1 -0.1)">
       <defs>
        <path d="M 19.1875 8.296875 
L 53.609375 8.296875 
L 53.609375 0 
L 7.328125 0 
L 7.328125 8.296875 
Q 12.9375 14.109375 22.625 23.890625 
Q 32.328125 33.6875 34.8125 36.53125 
Q 39.546875 41.84375 41.421875 45.53125 
Q 43.3125 49.21875 43.3125 52.78125 
Q 43.3125 58.59375 39.234375 62.25 
Q 35.15625 65.921875 28.609375 65.921875 
Q 23.96875 65.921875 18.8125 64.3125 
Q 13.671875 62.703125 7.8125 59.421875 
L 7.8125 69.390625 
Q 13.765625 71.78125 18.9375 73 
Q 24.125 74.21875 28.421875 74.21875 
Q 39.75 74.21875 46.484375 68.546875 
Q 53.21875 62.890625 53.21875 53.421875 
Q 53.21875 48.921875 51.53125 44.890625 
Q 49.859375 40.875 45.40625 35.40625 
Q 44.1875 33.984375 37.640625 27.21875 
Q 31.109375 20.453125 19.1875 8.296875 
z
" id="DejaVuSans-50"/>
        <path d="M 31.78125 66.40625 
Q 24.171875 66.40625 20.328125 58.90625 
Q 16.5 51.421875 16.5 36.375 
Q 16.5 21.390625 20.328125 13.890625 
Q 24.171875 6.390625 31.78125 6.390625 
Q 39.453125 6.390625 43.28125 13.890625 
Q 47.125 21.390625 47.125 36.375 
Q 47.125 51.421875 43.28125 58.90625 
Q 39.453125 66.40625 31.78125 66.40625 
z
M 31.78125 74.21875 
Q 44.046875 74.21875 50.515625 64.515625 
Q 56.984375 54.828125 56.984375 36.375 
Q 56.984375 17.96875 50.515625 8.265625 
Q 44.046875 -1.421875 31.78125 -1.421875 
Q 19.53125 -1.421875 13.0625 8.265625 
Q 6.59375 17.96875 6.59375 36.375 
Q 6.59375 54.828125 13.0625 64.515625 
Q 19.53125 74.21875 31.78125 74.21875 
z
" id="DejaVuSans-48"/>
        <path d="M 4.890625 31.390625 
L 31.203125 31.390625 
L 31.203125 23.390625 
L 4.890625 23.390625 
z
" id="DejaVuSans-45"/>
        <path d="M 40.578125 39.3125 
Q 47.65625 37.796875 51.625 33 
Q 55.609375 28.21875 55.609375 21.1875 
Q 55.609375 10.40625 48.1875 4.484375 
Q 40.765625 -1.421875 27.09375 -1.421875 
Q 22.515625 -1.421875 17.65625 -0.515625 
Q 12.796875 0.390625 7.625 2.203125 
L 7.625 11.71875 
Q 11.71875 9.328125 16.59375 8.109375 
Q 21.484375 6.890625 26.8125 6.890625 
Q 36.078125 6.890625 40.9375 10.546875 
Q 45.796875 14.203125 45.796875 21.1875 
Q 45.796875 27.640625 41.28125 31.265625 
Q 36.765625 34.90625 28.71875 34.90625 
L 20.21875 34.90625 
L 20.21875 43.015625 
L 29.109375 43.015625 
Q 36.375 43.015625 40.234375 45.921875 
Q 44.09375 48.828125 44.09375 54.296875 
Q 44.09375 59.90625 40.109375 62.90625 
Q 36.140625 65.921875 28.71875 65.921875 
Q 24.65625 65.921875 20.015625 65.03125 
Q 15.375 64.15625 9.8125 62.3125 
L 9.8125 71.09375 
Q 15.4375 72.65625 20.34375 73.4375 
Q 25.25 74.21875 29.59375 74.21875 
Q 40.828125 74.21875 47.359375 69.109375 
Q 53.90625 64.015625 53.90625 55.328125 
Q 53.90625 49.265625 50.4375 45.09375 
Q 46.96875 40.921875 40.578125 39.3125 
z
" id="DejaVuSans-51"/>
       </defs>
       <use xlink:href="#DejaVuSans-50"/>
       <use x="63.623047" xlink:href="#DejaVuSans-48"/>
       <use x="127.246094" xlink:href="#DejaVuSans-50"/>
       <use x="190.869141" xlink:href="#DejaVuSans-48"/>
       <use x="254.492188" xlink:href="#DejaVuSans-45"/>
       <use x="290.576172" xlink:href="#DejaVuSans-48"/>
       <use x="354.199219" xlink:href="#DejaVuSans-51"/>
      </g>
     </g>
    </g>
    <g id="xtick_2">
     <g id="line2d_3">
      <path clip-path="url(#pc01c495bd2)" d="M 127.872504 172.8 
L 127.872504 25.92 
" style="fill:none;stroke:#808080;stroke-dasharray:6.4,1.6,1,1.6;stroke-dashoffset:0;stroke-opacity:0.3;"/>
     </g>
     <g id="line2d_4">
      <g>
       <use style="stroke:#000000;stroke-width:0.8;" x="127.872504" xlink:href="#ma3622a9da7" y="172.8"/>
      </g>
     </g>
     <g id="text_2">
      <!-- 2020-05 -->
      <g transform="translate(106.981098 187.398438)scale(0.1 -0.1)">
       <defs>
        <path d="M 10.796875 72.90625 
L 49.515625 72.90625 
L 49.515625 64.59375 
L 19.828125 64.59375 
L 19.828125 46.734375 
Q 21.96875 47.46875 24.109375 47.828125 
Q 26.265625 48.1875 28.421875 48.1875 
Q 40.625 48.1875 47.75 41.5 
Q 54.890625 34.8125 54.890625 23.390625 
Q 54.890625 11.625 47.5625 5.09375 
Q 40.234375 -1.421875 26.90625 -1.421875 
Q 22.3125 -1.421875 17.546875 -0.640625 
Q 12.796875 0.140625 7.71875 1.703125 
L 7.71875 11.625 
Q 12.109375 9.234375 16.796875 8.0625 
Q 21.484375 6.890625 26.703125 6.890625 
Q 35.15625 6.890625 40.078125 11.328125 
Q 45.015625 15.765625 45.015625 23.390625 
Q 45.015625 31 40.078125 35.4375 
Q 35.15625 39.890625 26.703125 39.890625 
Q 22.75 39.890625 18.8125 39.015625 
Q 14.890625 38.140625 10.796875 36.28125 
z
" id="DejaVuSans-53"/>
       </defs>
       <use xlink:href="#DejaVuSans-50"/>
       <use x="63.623047" xlink:href="#DejaVuSans-48"/>
       <use x="127.246094" xlink:href="#DejaVuSans-50"/>
       <use x="190.869141" xlink:href="#DejaVuSans-48"/>
       <use x="254.492188" xlink:href="#DejaVuSans-45"/>
       <use x="290.576172" xlink:href="#DejaVuSans-48"/>
       <use x="354.199219" xlink:href="#DejaVuSans-53"/>
      </g>
     </g>
    </g>
    <g id="xtick_3">
     <g id="line2d_5">
      <path clip-path="url(#pc01c495bd2)" d="M 190.945009 172.8 
L 190.945009 25.92 
" style="fill:none;stroke:#808080;stroke-dasharray:6.4,1.6,1,1.6;stroke-dashoffset:0;stroke-opacity:0.3;"/>
     </g>
     <g id="line2d_6">
      <g>
       <use style="stroke:#000000;stroke-width:0.8;" x="190.945009" xlink:href="#ma3622a9da7" y="172.8"/>
      </g>
     </g>
     <g id="text_3">
      <!-- 2020-07 -->
      <g transform="translate(170.053603 187.398438)scale(0.1 -0.1)">
       <defs>
        <path d="M 8.203125 72.90625 
L 55.078125 72.90625 
L 55.078125 68.703125 
L 28.609375 0 
L 18.3125 0 
L 43.21875 64.59375 
L 8.203125 64.59375 
z
" id="DejaVuSans-55"/>
       </defs>
       <use xlink:href="#DejaVuSans-50"/>
       <use x="63.623047" xlink:href="#DejaVuSans-48"/>
       <use x="127.246094" xlink:href="#DejaVuSans-50"/>
       <use x="190.869141" xlink:href="#DejaVuSans-48"/>
       <use x="254.492188" xlink:href="#DejaVuSans-45"/>
       <use x="290.576172" xlink:href="#DejaVuSans-48"/>
       <use x="354.199219" xlink:href="#DejaVuSans-55"/>
      </g>
     </g>
    </g>
    <g id="xtick_4">
     <g id="line2d_7">
      <path clip-path="url(#pc01c495bd2)" d="M 255.051489 172.8 
L 255.051489 25.92 
" style="fill:none;stroke:#808080;stroke-dasharray:6.4,1.6,1,1.6;stroke-dashoffset:0;stroke-opacity:0.3;"/>
     </g>
     <g id="line2d_8">
      <g>
       <use style="stroke:#000000;stroke-width:0.8;" x="255.051489" xlink:href="#ma3622a9da7" y="172.8"/>
      </g>
     </g>
     <g id="text_4">
      <!-- 2020-09 -->
      <g transform="translate(234.160082 187.398438)scale(0.1 -0.1)">
       <defs>
        <path d="M 10.984375 1.515625 
L 10.984375 10.5 
Q 14.703125 8.734375 18.5 7.8125 
Q 22.3125 6.890625 25.984375 6.890625 
Q 35.75 6.890625 40.890625 13.453125 
Q 46.046875 20.015625 46.78125 33.40625 
Q 43.953125 29.203125 39.59375 26.953125 
Q 35.25 24.703125 29.984375 24.703125 
Q 19.046875 24.703125 12.671875 31.3125 
Q 6.296875 37.9375 6.296875 49.421875 
Q 6.296875 60.640625 12.9375 67.421875 
Q 19.578125 74.21875 30.609375 74.21875 
Q 43.265625 74.21875 49.921875 64.515625 
Q 56.59375 54.828125 56.59375 36.375 
Q 56.59375 19.140625 48.40625 8.859375 
Q 40.234375 -1.421875 26.421875 -1.421875 
Q 22.703125 -1.421875 18.890625 -0.6875 
Q 15.09375 0.046875 10.984375 1.515625 
z
M 30.609375 32.421875 
Q 37.25 32.421875 41.125 36.953125 
Q 45.015625 41.5 45.015625 49.421875 
Q 45.015625 57.28125 41.125 61.84375 
Q 37.25 66.40625 30.609375 66.40625 
Q 23.96875 66.40625 20.09375 61.84375 
Q 16.21875 57.28125 16.21875 49.421875 
Q 16.21875 41.5 20.09375 36.953125 
Q 23.96875 32.421875 30.609375 32.421875 
z
" id="DejaVuSans-57"/>
       </defs>
       <use xlink:href="#DejaVuSans-50"/>
       <use x="63.623047" xlink:href="#DejaVuSans-48"/>
       <use x="127.246094" xlink:href="#DejaVuSans-50"/>
       <use x="190.869141" xlink:href="#DejaVuSans-48"/>
       <use x="254.492188" xlink:href="#DejaVuSans-45"/>
       <use x="290.576172" xlink:href="#DejaVuSans-48"/>
       <use x="354.199219" xlink:href="#DejaVuSans-57"/>
      </g>
     </g>
    </g>
    <g id="xtick_5">
     <g id="line2d_9">
      <path clip-path="url(#pc01c495bd2)" d="M 318.123993 172.8 
L 318.123993 25.92 
" style="fill:none;stroke:#808080;stroke-dasharray:6.4,1.6,1,1.6;stroke-dashoffset:0;stroke-opacity:0.3;"/>
     </g>
     <g id="line2d_10">
      <g>
       <use style="stroke:#000000;stroke-width:0.8;" x="318.123993" xlink:href="#ma3622a9da7" y="172.8"/>
      </g>
     </g>
     <g id="text_5">
      <!-- 2020-11 -->
      <g transform="translate(297.232587 187.398438)scale(0.1 -0.1)">
       <defs>
        <path d="M 12.40625 8.296875 
L 28.515625 8.296875 
L 28.515625 63.921875 
L 10.984375 60.40625 
L 10.984375 69.390625 
L 28.421875 72.90625 
L 38.28125 72.90625 
L 38.28125 8.296875 
L 54.390625 8.296875 
L 54.390625 0 
L 12.40625 0 
z
" id="DejaVuSans-49"/>
       </defs>
       <use xlink:href="#DejaVuSans-50"/>
       <use x="63.623047" xlink:href="#DejaVuSans-48"/>
       <use x="127.246094" xlink:href="#DejaVuSans-50"/>
       <use x="190.869141" xlink:href="#DejaVuSans-48"/>
       <use x="254.492188" xlink:href="#DejaVuSans-45"/>
       <use x="290.576172" xlink:href="#DejaVuSans-49"/>
       <use x="354.199219" xlink:href="#DejaVuSans-49"/>
      </g>
     </g>
    </g>
    <g id="xtick_6">
     <g id="line2d_11">
      <path clip-path="url(#pc01c495bd2)" d="M 381.196497 172.8 
L 381.196497 25.92 
" style="fill:none;stroke:#808080;stroke-dasharray:6.4,1.6,1,1.6;stroke-dashoffset:0;stroke-opacity:0.3;"/>
     </g>
     <g id="line2d_12">
      <g>
       <use style="stroke:#000000;stroke-width:0.8;" x="381.196497" xlink:href="#ma3622a9da7" y="172.8"/>
      </g>
     </g>
     <g id="text_6">
      <!-- 2021-01 -->
      <g transform="translate(360.305091 187.398438)scale(0.1 -0.1)">
       <use xlink:href="#DejaVuSans-50"/>
       <use x="63.623047" xlink:href="#DejaVuSans-48"/>
       <use x="127.246094" xlink:href="#DejaVuSans-50"/>
       <use x="190.869141" xlink:href="#DejaVuSans-49"/>
       <use x="254.492188" xlink:href="#DejaVuSans-45"/>
       <use x="290.576172" xlink:href="#DejaVuSans-48"/>
       <use x="354.199219" xlink:href="#DejaVuSans-49"/>
      </g>
     </g>
    </g>
    <g id="xtick_7">
     <g id="line2d_13">
      <path clip-path="url(#pc01c495bd2)" d="M 442.201051 172.8 
L 442.201051 25.92 
" style="fill:none;stroke:#808080;stroke-dasharray:6.4,1.6,1,1.6;stroke-dashoffset:0;stroke-opacity:0.3;"/>
     </g>
     <g id="line2d_14">
      <g>
       <use style="stroke:#000000;stroke-width:0.8;" x="442.201051" xlink:href="#ma3622a9da7" y="172.8"/>
      </g>
     </g>
     <g id="text_7">
      <!-- 2021-03 -->
      <g transform="translate(421.309645 187.398438)scale(0.1 -0.1)">
       <use xlink:href="#DejaVuSans-50"/>
       <use x="63.623047" xlink:href="#DejaVuSans-48"/>
       <use x="127.246094" xlink:href="#DejaVuSans-50"/>
       <use x="190.869141" xlink:href="#DejaVuSans-49"/>
       <use x="254.492188" xlink:href="#DejaVuSans-45"/>
       <use x="290.576172" xlink:href="#DejaVuSans-48"/>
       <use x="354.199219" xlink:href="#DejaVuSans-51"/>
      </g>
     </g>
    </g>
    <g id="xtick_8">
     <g id="line2d_15">
      <path clip-path="url(#pc01c495bd2)" d="M 505.273555 172.8 
L 505.273555 25.92 
" style="fill:none;stroke:#808080;stroke-dasharray:6.4,1.6,1,1.6;stroke-dashoffset:0;stroke-opacity:0.3;"/>
     </g>
     <g id="line2d_16">
      <g>
       <use style="stroke:#000000;stroke-width:0.8;" x="505.273555" xlink:href="#ma3622a9da7" y="172.8"/>
      </g>
     </g>
     <g id="text_8">
      <!-- 2021-05 -->
      <g transform="translate(484.382149 187.398438)scale(0.1 -0.1)">
       <use xlink:href="#DejaVuSans-50"/>
       <use x="63.623047" xlink:href="#DejaVuSans-48"/>
       <use x="127.246094" xlink:href="#DejaVuSans-50"/>
       <use x="190.869141" xlink:href="#DejaVuSans-49"/>
       <use x="254.492188" xlink:href="#DejaVuSans-45"/>
       <use x="290.576172" xlink:href="#DejaVuSans-48"/>
       <use x="354.199219" xlink:href="#DejaVuSans-53"/>
      </g>
     </g>
    </g>
    <g id="xtick_9">
     <g id="line2d_17">
      <path clip-path="url(#pc01c495bd2)" d="M 568.34606 172.8 
L 568.34606 25.92 
" style="fill:none;stroke:#808080;stroke-dasharray:6.4,1.6,1,1.6;stroke-dashoffset:0;stroke-opacity:0.3;"/>
     </g>
     <g id="line2d_18">
      <g>
       <use style="stroke:#000000;stroke-width:0.8;" x="568.34606" xlink:href="#ma3622a9da7" y="172.8"/>
      </g>
     </g>
     <g id="text_9">
      <!-- 2021-07 -->
      <g transform="translate(547.454653 187.398438)scale(0.1 -0.1)">
       <use xlink:href="#DejaVuSans-50"/>
       <use x="63.623047" xlink:href="#DejaVuSans-48"/>
       <use x="127.246094" xlink:href="#DejaVuSans-50"/>
       <use x="190.869141" xlink:href="#DejaVuSans-49"/>
       <use x="254.492188" xlink:href="#DejaVuSans-45"/>
       <use x="290.576172" xlink:href="#DejaVuSans-48"/>
       <use x="354.199219" xlink:href="#DejaVuSans-55"/>
      </g>
     </g>
    </g>
    <g id="xtick_10">
     <g id="line2d_19">
      <path clip-path="url(#pc01c495bd2)" d="M 632.452539 172.8 
L 632.452539 25.92 
" style="fill:none;stroke:#808080;stroke-dasharray:6.4,1.6,1,1.6;stroke-dashoffset:0;stroke-opacity:0.3;"/>
     </g>
     <g id="line2d_20">
      <g>
       <use style="stroke:#000000;stroke-width:0.8;" x="632.452539" xlink:href="#ma3622a9da7" y="172.8"/>
      </g>
     </g>
     <g id="text_10">
      <!-- 2021-09 -->
      <g transform="translate(611.561133 187.398438)scale(0.1 -0.1)">
       <use xlink:href="#DejaVuSans-50"/>
       <use x="63.623047" xlink:href="#DejaVuSans-48"/>
       <use x="127.246094" xlink:href="#DejaVuSans-50"/>
       <use x="190.869141" xlink:href="#DejaVuSans-49"/>
       <use x="254.492188" xlink:href="#DejaVuSans-45"/>
       <use x="290.576172" xlink:href="#DejaVuSans-48"/>
       <use x="354.199219" xlink:href="#DejaVuSans-57"/>
      </g>
     </g>
    </g>
    <g id="text_11">
     <!-- Datum -->
     <g transform="translate(343.086719 201.076562)scale(0.1 -0.1)">
      <defs>
       <path d="M 19.671875 64.796875 
L 19.671875 8.109375 
L 31.59375 8.109375 
Q 46.6875 8.109375 53.6875 14.9375 
Q 60.6875 21.78125 60.6875 36.53125 
Q 60.6875 51.171875 53.6875 57.984375 
Q 46.6875 64.796875 31.59375 64.796875 
z
M 9.8125 72.90625 
L 30.078125 72.90625 
Q 51.265625 72.90625 61.171875 64.09375 
Q 71.09375 55.28125 71.09375 36.53125 
Q 71.09375 17.671875 61.125 8.828125 
Q 51.171875 0 30.078125 0 
L 9.8125 0 
z
" id="DejaVuSans-68"/>
       <path d="M 34.28125 27.484375 
Q 23.390625 27.484375 19.1875 25 
Q 14.984375 22.515625 14.984375 16.5 
Q 14.984375 11.71875 18.140625 8.90625 
Q 21.296875 6.109375 26.703125 6.109375 
Q 34.1875 6.109375 38.703125 11.40625 
Q 43.21875 16.703125 43.21875 25.484375 
L 43.21875 27.484375 
z
M 52.203125 31.203125 
L 52.203125 0 
L 43.21875 0 
L 43.21875 8.296875 
Q 40.140625 3.328125 35.546875 0.953125 
Q 30.953125 -1.421875 24.3125 -1.421875 
Q 15.921875 -1.421875 10.953125 3.296875 
Q 6 8.015625 6 15.921875 
Q 6 25.140625 12.171875 29.828125 
Q 18.359375 34.515625 30.609375 34.515625 
L 43.21875 34.515625 
L 43.21875 35.40625 
Q 43.21875 41.609375 39.140625 45 
Q 35.0625 48.390625 27.6875 48.390625 
Q 23 48.390625 18.546875 47.265625 
Q 14.109375 46.140625 10.015625 43.890625 
L 10.015625 52.203125 
Q 14.9375 54.109375 19.578125 55.046875 
Q 24.21875 56 28.609375 56 
Q 40.484375 56 46.34375 49.84375 
Q 52.203125 43.703125 52.203125 31.203125 
z
" id="DejaVuSans-97"/>
       <path d="M 18.3125 70.21875 
L 18.3125 54.6875 
L 36.8125 54.6875 
L 36.8125 47.703125 
L 18.3125 47.703125 
L 18.3125 18.015625 
Q 18.3125 11.328125 20.140625 9.421875 
Q 21.96875 7.515625 27.59375 7.515625 
L 36.8125 7.515625 
L 36.8125 0 
L 27.59375 0 
Q 17.1875 0 13.234375 3.875 
Q 9.28125 7.765625 9.28125 18.015625 
L 9.28125 47.703125 
L 2.6875 47.703125 
L 2.6875 54.6875 
L 9.28125 54.6875 
L 9.28125 70.21875 
z
" id="DejaVuSans-116"/>
       <path d="M 8.5 21.578125 
L 8.5 54.6875 
L 17.484375 54.6875 
L 17.484375 21.921875 
Q 17.484375 14.15625 20.5 10.265625 
Q 23.53125 6.390625 29.59375 6.390625 
Q 36.859375 6.390625 41.078125 11.03125 
Q 45.3125 15.671875 45.3125 23.6875 
L 45.3125 54.6875 
L 54.296875 54.6875 
L 54.296875 0 
L 45.3125 0 
L 45.3125 8.40625 
Q 42.046875 3.421875 37.71875 1 
Q 33.40625 -1.421875 27.6875 -1.421875 
Q 18.265625 -1.421875 13.375 4.4375 
Q 8.5 10.296875 8.5 21.578125 
z
M 31.109375 56 
z
" id="DejaVuSans-117"/>
       <path d="M 52 44.1875 
Q 55.375 50.25 60.0625 53.125 
Q 64.75 56 71.09375 56 
Q 79.640625 56 84.28125 50.015625 
Q 88.921875 44.046875 88.921875 33.015625 
L 88.921875 0 
L 79.890625 0 
L 79.890625 32.71875 
Q 79.890625 40.578125 77.09375 44.375 
Q 74.3125 48.1875 68.609375 48.1875 
Q 61.625 48.1875 57.5625 43.546875 
Q 53.515625 38.921875 53.515625 30.90625 
L 53.515625 0 
L 44.484375 0 
L 44.484375 32.71875 
Q 44.484375 40.625 41.703125 44.40625 
Q 38.921875 48.1875 33.109375 48.1875 
Q 26.21875 48.1875 22.15625 43.53125 
Q 18.109375 38.875 18.109375 30.90625 
L 18.109375 0 
L 9.078125 0 
L 9.078125 54.6875 
L 18.109375 54.6875 
L 18.109375 46.1875 
Q 21.1875 51.21875 25.484375 53.609375 
Q 29.78125 56 35.6875 56 
Q 41.65625 56 45.828125 52.96875 
Q 50 49.953125 52 44.1875 
z
" id="DejaVuSans-109"/>
      </defs>
      <use xlink:href="#DejaVuSans-68"/>
      <use x="77.001953" xlink:href="#DejaVuSans-97"/>
      <use x="138.28125" xlink:href="#DejaVuSans-116"/>
      <use x="177.490234" xlink:href="#DejaVuSans-117"/>
      <use x="240.869141" xlink:href="#DejaVuSans-109"/>
     </g>
    </g>
   </g>
   <g id="matplotlib.axis_2">
    <g id="ytick_1">
     <g id="line2d_21">
      <path clip-path="url(#pc01c495bd2)" d="M 64.8 172.8 
L 655.2 172.8 
" style="fill:none;stroke:#808080;stroke-dasharray:6.4,1.6,1,1.6;stroke-dashoffset:0;stroke-opacity:0.3;"/>
     </g>
     <g id="line2d_22">
      <defs>
       <path d="M 0 0 
L -3.5 0 
" id="mf0d51118f7" style="stroke:#000000;stroke-width:0.8;"/>
      </defs>
      <g>
       <use style="stroke:#000000;stroke-width:0.8;" x="64.8" xlink:href="#mf0d51118f7" y="172.8"/>
      </g>
     </g>
     <g id="text_12">
      <!-- 0 -->
      <g transform="translate(51.4375 176.599219)scale(0.1 -0.1)">
       <use xlink:href="#DejaVuSans-48"/>
      </g>
     </g>
    </g>
    <g id="ytick_2">
     <g id="line2d_23">
      <path clip-path="url(#pc01c495bd2)" d="M 64.8 136.08 
L 655.2 136.08 
" style="fill:none;stroke:#808080;stroke-dasharray:6.4,1.6,1,1.6;stroke-dashoffset:0;stroke-opacity:0.3;"/>
     </g>
     <g id="line2d_24">
      <g>
       <use style="stroke:#000000;stroke-width:0.8;" x="64.8" xlink:href="#mf0d51118f7" y="136.08"/>
      </g>
     </g>
     <g id="text_13">
      <!-- 1000 -->
      <g transform="translate(32.35 139.879219)scale(0.1 -0.1)">
       <use xlink:href="#DejaVuSans-49"/>
       <use x="63.623047" xlink:href="#DejaVuSans-48"/>
       <use x="127.246094" xlink:href="#DejaVuSans-48"/>
       <use x="190.869141" xlink:href="#DejaVuSans-48"/>
      </g>
     </g>
    </g>
    <g id="ytick_3">
     <g id="line2d_25">
      <path clip-path="url(#pc01c495bd2)" d="M 64.8 99.36 
L 655.2 99.36 
" style="fill:none;stroke:#808080;stroke-dasharray:6.4,1.6,1,1.6;stroke-dashoffset:0;stroke-opacity:0.3;"/>
     </g>
     <g id="line2d_26">
      <g>
       <use style="stroke:#000000;stroke-width:0.8;" x="64.8" xlink:href="#mf0d51118f7" y="99.36"/>
      </g>
     </g>
     <g id="text_14">
      <!-- 2000 -->
      <g transform="translate(32.35 103.159219)scale(0.1 -0.1)">
       <use xlink:href="#DejaVuSans-50"/>
       <use x="63.623047" xlink:href="#DejaVuSans-48"/>
       <use x="127.246094" xlink:href="#DejaVuSans-48"/>
       <use x="190.869141" xlink:href="#DejaVuSans-48"/>
      </g>
     </g>
    </g>
    <g id="ytick_4">
     <g id="line2d_27">
      <path clip-path="url(#pc01c495bd2)" d="M 64.8 62.64 
L 655.2 62.64 
" style="fill:none;stroke:#808080;stroke-dasharray:6.4,1.6,1,1.6;stroke-dashoffset:0;stroke-opacity:0.3;"/>
     </g>
     <g id="line2d_28">
      <g>
       <use style="stroke:#000000;stroke-width:0.8;" x="64.8" xlink:href="#mf0d51118f7" y="62.64"/>
      </g>
     </g>
     <g id="text_15">
      <!-- 3000 -->
      <g transform="translate(32.35 66.439219)scale(0.1 -0.1)">
       <use xlink:href="#DejaVuSans-51"/>
       <use x="63.623047" xlink:href="#DejaVuSans-48"/>
       <use x="127.246094" xlink:href="#DejaVuSans-48"/>
       <use x="190.869141" xlink:href="#DejaVuSans-48"/>
      </g>
     </g>
    </g>
    <g id="ytick_5">
     <g id="line2d_29">
      <path clip-path="url(#pc01c495bd2)" d="M 64.8 25.92 
L 655.2 25.92 
" style="fill:none;stroke:#808080;stroke-dasharray:6.4,1.6,1,1.6;stroke-dashoffset:0;stroke-opacity:0.3;"/>
     </g>
     <g id="line2d_30">
      <g>
       <use style="stroke:#000000;stroke-width:0.8;" x="64.8" xlink:href="#mf0d51118f7" y="25.92"/>
      </g>
     </g>
     <g id="text_16">
      <!-- 4000 -->
      <g transform="translate(32.35 29.719219)scale(0.1 -0.1)">
       <defs>
        <path d="M 37.796875 64.3125 
L 12.890625 25.390625 
L 37.796875 25.390625 
z
M 35.203125 72.90625 
L 47.609375 72.90625 
L 47.609375 25.390625 
L 58.015625 25.390625 
L 58.015625 17.1875 
L 47.609375 17.1875 
L 47.609375 0 
L 37.796875 0 
L 37.796875 17.1875 
L 4.890625 17.1875 
L 4.890625 26.703125 
z
" id="DejaVuSans-52"/>
       </defs>
       <use xlink:href="#DejaVuSans-52"/>
       <use x="63.623047" xlink:href="#DejaVuSans-48"/>
       <use x="127.246094" xlink:href="#DejaVuSans-48"/>
       <use x="190.869141" xlink:href="#DejaVuSans-48"/>
      </g>
     </g>
    </g>
    <g id="text_17">
     <!-- RNA per milliliter -->
     <g transform="translate(26.270312 141.776406)rotate(-90)scale(0.1 -0.1)">
      <defs>
       <path d="M 44.390625 34.1875 
Q 47.5625 33.109375 50.5625 29.59375 
Q 53.5625 26.078125 56.59375 19.921875 
L 66.609375 0 
L 56 0 
L 46.6875 18.703125 
Q 43.0625 26.03125 39.671875 28.421875 
Q 36.28125 30.8125 30.421875 30.8125 
L 19.671875 30.8125 
L 19.671875 0 
L 9.8125 0 
L 9.8125 72.90625 
L 32.078125 72.90625 
Q 44.578125 72.90625 50.734375 67.671875 
Q 56.890625 62.453125 56.890625 51.90625 
Q 56.890625 45.015625 53.6875 40.46875 
Q 50.484375 35.9375 44.390625 34.1875 
z
M 19.671875 64.796875 
L 19.671875 38.921875 
L 32.078125 38.921875 
Q 39.203125 38.921875 42.84375 42.21875 
Q 46.484375 45.515625 46.484375 51.90625 
Q 46.484375 58.296875 42.84375 61.546875 
Q 39.203125 64.796875 32.078125 64.796875 
z
" id="DejaVuSans-82"/>
       <path d="M 9.8125 72.90625 
L 23.09375 72.90625 
L 55.421875 11.921875 
L 55.421875 72.90625 
L 64.984375 72.90625 
L 64.984375 0 
L 51.703125 0 
L 19.390625 60.984375 
L 19.390625 0 
L 9.8125 0 
z
" id="DejaVuSans-78"/>
       <path d="M 34.1875 63.1875 
L 20.796875 26.90625 
L 47.609375 26.90625 
z
M 28.609375 72.90625 
L 39.796875 72.90625 
L 67.578125 0 
L 57.328125 0 
L 50.6875 18.703125 
L 17.828125 18.703125 
L 11.1875 0 
L 0.78125 0 
z
" id="DejaVuSans-65"/>
       <path id="DejaVuSans-32"/>
       <path d="M 18.109375 8.203125 
L 18.109375 -20.796875 
L 9.078125 -20.796875 
L 9.078125 54.6875 
L 18.109375 54.6875 
L 18.109375 46.390625 
Q 20.953125 51.265625 25.265625 53.625 
Q 29.59375 56 35.59375 56 
Q 45.5625 56 51.78125 48.09375 
Q 58.015625 40.1875 58.015625 27.296875 
Q 58.015625 14.40625 51.78125 6.484375 
Q 45.5625 -1.421875 35.59375 -1.421875 
Q 29.59375 -1.421875 25.265625 0.953125 
Q 20.953125 3.328125 18.109375 8.203125 
z
M 48.6875 27.296875 
Q 48.6875 37.203125 44.609375 42.84375 
Q 40.53125 48.484375 33.40625 48.484375 
Q 26.265625 48.484375 22.1875 42.84375 
Q 18.109375 37.203125 18.109375 27.296875 
Q 18.109375 17.390625 22.1875 11.75 
Q 26.265625 6.109375 33.40625 6.109375 
Q 40.53125 6.109375 44.609375 11.75 
Q 48.6875 17.390625 48.6875 27.296875 
z
" id="DejaVuSans-112"/>
       <path d="M 56.203125 29.59375 
L 56.203125 25.203125 
L 14.890625 25.203125 
Q 15.484375 15.921875 20.484375 11.0625 
Q 25.484375 6.203125 34.421875 6.203125 
Q 39.59375 6.203125 44.453125 7.46875 
Q 49.3125 8.734375 54.109375 11.28125 
L 54.109375 2.78125 
Q 49.265625 0.734375 44.1875 -0.34375 
Q 39.109375 -1.421875 33.890625 -1.421875 
Q 20.796875 -1.421875 13.15625 6.1875 
Q 5.515625 13.8125 5.515625 26.8125 
Q 5.515625 40.234375 12.765625 48.109375 
Q 20.015625 56 32.328125 56 
Q 43.359375 56 49.78125 48.890625 
Q 56.203125 41.796875 56.203125 29.59375 
z
M 47.21875 32.234375 
Q 47.125 39.59375 43.09375 43.984375 
Q 39.0625 48.390625 32.421875 48.390625 
Q 24.90625 48.390625 20.390625 44.140625 
Q 15.875 39.890625 15.1875 32.171875 
z
" id="DejaVuSans-101"/>
       <path d="M 41.109375 46.296875 
Q 39.59375 47.171875 37.8125 47.578125 
Q 36.03125 48 33.890625 48 
Q 26.265625 48 22.1875 43.046875 
Q 18.109375 38.09375 18.109375 28.8125 
L 18.109375 0 
L 9.078125 0 
L 9.078125 54.6875 
L 18.109375 54.6875 
L 18.109375 46.1875 
Q 20.953125 51.171875 25.484375 53.578125 
Q 30.03125 56 36.53125 56 
Q 37.453125 56 38.578125 55.875 
Q 39.703125 55.765625 41.0625 55.515625 
z
" id="DejaVuSans-114"/>
       <path d="M 9.421875 54.6875 
L 18.40625 54.6875 
L 18.40625 0 
L 9.421875 0 
z
M 9.421875 75.984375 
L 18.40625 75.984375 
L 18.40625 64.59375 
L 9.421875 64.59375 
z
" id="DejaVuSans-105"/>
       <path d="M 9.421875 75.984375 
L 18.40625 75.984375 
L 18.40625 0 
L 9.421875 0 
z
" id="DejaVuSans-108"/>
      </defs>
      <use xlink:href="#DejaVuSans-82"/>
      <use x="69.482422" xlink:href="#DejaVuSans-78"/>
      <use x="144.287109" xlink:href="#DejaVuSans-65"/>
      <use x="212.695312" xlink:href="#DejaVuSans-32"/>
      <use x="244.482422" xlink:href="#DejaVuSans-112"/>
      <use x="307.958984" xlink:href="#DejaVuSans-101"/>
      <use x="369.482422" xlink:href="#DejaVuSans-114"/>
      <use x="410.595703" xlink:href="#DejaVuSans-32"/>
      <use x="442.382812" xlink:href="#DejaVuSans-109"/>
      <use x="539.794922" xlink:href="#DejaVuSans-105"/>
      <use x="567.578125" xlink:href="#DejaVuSans-108"/>
      <use x="595.361328" xlink:href="#DejaVuSans-108"/>
      <use x="623.144531" xlink:href="#DejaVuSans-105"/>
      <use x="650.927734" xlink:href="#DejaVuSans-108"/>
      <use x="678.710938" xlink:href="#DejaVuSans-105"/>
      <use x="706.494141" xlink:href="#DejaVuSans-116"/>
      <use x="745.703125" xlink:href="#DejaVuSans-101"/>
      <use x="807.226562" xlink:href="#DejaVuSans-114"/>
     </g>
    </g>
   </g>
   <g id="line2d_31">
    <path clip-path="url(#pc01c495bd2)" d="M 94.785289 103.123793 
L 97.887215 114.056798 
L 100.989142 117.701133 
L 103.057093 124.989803 
L 106.159019 133.619191 
L 109.260946 136.336357 
L 111.328897 141.38873 
L 112.362872 143.625595 
L 113.396848 145.592298 
L 115.464799 147.280508 
L 116.498774 148.728855 
L 117.53275 149.695497 
L 119.600701 150.972144 
L 122.702627 152.688393 
L 124.770578 155.326756 
L 126.838529 157.40665 
L 127.872504 158.362182 
L 132.008406 159.95208 
L 134.076357 161.67439 
L 136.144308 162.54269 
L 137.178284 163.416014 
L 138.212259 164.076724 
L 140.28021 164.112495 
L 143.382137 163.672313 
L 147.518039 162.590757 
L 148.552014 162.208759 
L 152.687916 161.731891 
L 154.755867 161.841881 
L 156.823818 162.515158 
L 159.925744 162.782847 
L 161.993695 163.591017 
L 166.129597 165.422402 
L 168.197548 166.039142 
L 170.265499 166.560692 
L 173.367426 166.707204 
L 176.469352 167.458651 
L 187.843082 167.783819 
L 189.911033 167.595588 
L 191.978984 167.302772 
L 196.114886 166.967543 
L 198.182837 166.110864 
L 203.352715 165.539053 
L 204.38669 164.93145 
L 208.522592 163.627907 
L 210.590543 162.397487 
L 212.658494 160.838887 
L 213.692469 160.093589 
L 215.76042 159.253091 
L 217.828371 158.610109 
L 220.930298 158.266573 
L 222.998249 157.89225 
L 224.032224 157.671211 
L 225.0662 157.900352 
L 228.168126 159.020399 
L 229.202102 159.189255 
L 234.371979 159.41877 
L 235.405954 159.394687 
L 236.43993 159.56246 
L 238.507881 160.341951 
L 239.541856 160.499492 
L 242.643783 160.644602 
L 244.711734 161.115556 
L 245.745709 161.463992 
L 247.81366 162.372769 
L 249.881611 163.067941 
L 256.085464 163.540786 
L 258.153415 163.315717 
L 259.187391 163.091281 
L 260.221366 162.729678 
L 265.391243 161.589765 
L 267.459194 160.975817 
L 269.527145 160.000396 
L 271.595096 158.539725 
L 272.629072 157.742313 
L 273.663047 156.790997 
L 275.730998 154.390621 
L 276.764974 152.992896 
L 277.798949 151.407616 
L 279.8669 147.584594 
L 281.934851 142.863814 
L 284.002802 137.3214 
L 287.104729 128.930041 
L 292.274606 116.235517 
L 293.308581 114.218227 
L 294.342557 111.754946 
L 295.376532 109.709136 
L 296.410508 108.364678 
L 297.444483 107.766846 
L 299.512434 105.7254 
L 300.54641 104.240574 
L 301.580385 102.001103 
L 303.648336 98.259519 
L 304.682312 96.434949 
L 306.750263 92.36792 
L 307.784238 92.154845 
L 308.818214 91.757504 
L 309.852189 91.07599 
L 310.886165 90.038659 
L 311.92014 89.628167 
L 312.954116 88.93973 
L 313.988091 89.150208 
L 316.056042 92.648757 
L 319.157968 98.130139 
L 320.191944 99.32198 
L 323.29387 100.085848 
L 325.361821 101.486179 
L 326.395797 103.191538 
L 327.429772 104.607596 
L 328.463748 105.478019 
L 329.497723 106.092752 
L 330.531699 106.961025 
L 331.565674 108.656518 
L 332.59965 111.073127 
L 336.735552 125.151263 
L 338.803503 130.907865 
L 342.939405 139.348667 
L 343.97338 141.202461 
L 345.007356 142.234591 
L 346.041331 142.741136 
L 347.075306 142.528672 
L 348.109282 142.124314 
L 350.177233 141.649497 
L 352.245184 140.545108 
L 353.279159 139.816012 
L 356.381086 136.676001 
L 358.449037 133.567971 
L 360.516988 129.943423 
L 362.584939 126.54397 
L 363.618914 125.098754 
L 365.686865 123.202653 
L 366.720841 122.544812 
L 369.822767 121.58388 
L 370.856743 122.129885 
L 371.890718 122.937726 
L 372.924694 124.449255 
L 373.958669 125.455723 
L 377.060595 129.252199 
L 378.094571 130.094687 
L 379.128546 130.777971 
L 382.230473 131.363557 
L 383.264448 131.414226 
L 384.298424 131.276224 
L 385.332399 130.615556 
L 386.366375 129.751945 
L 387.40035 128.130194 
L 388.434326 127.026507 
L 390.502277 124.125035 
L 391.536252 122.351236 
L 392.570228 120.971957 
L 393.604203 119.827449 
L 396.70613 117.024088 
L 397.740105 115.665351 
L 399.808056 113.871822 
L 400.842032 113.864074 
L 401.876007 113.654275 
L 402.909982 113.647877 
L 403.943958 113.868323 
L 404.977933 114.296083 
L 406.011909 114.555787 
L 408.07986 115.447045 
L 409.113835 115.95781 
L 410.147811 116.700299 
L 412.215762 120.618342 
L 413.249737 122.422872 
L 416.351664 126.388192 
L 417.385639 127.549751 
L 419.45359 129.284344 
L 420.487566 129.743402 
L 421.521541 129.82037 
L 422.555517 130.109501 
L 423.589492 130.132344 
L 425.657443 129.084962 
L 427.725394 128.070454 
L 428.75937 127.895812 
L 430.82732 127.916365 
L 432.895271 128.79148 
L 433.929247 129.610055 
L 438.065149 134.852387 
L 442.201051 139.094003 
L 444.269002 140.507654 
L 446.336953 141.314542 
L 447.370928 141.573646 
L 449.438879 141.747455 
L 453.574781 141.093493 
L 456.676708 140.200228 
L 457.710683 139.769302 
L 458.744658 139.486789 
L 461.846585 138.03839 
L 462.88056 137.321435 
L 464.948511 137.031614 
L 467.016462 136.858995 
L 468.050438 136.598999 
L 470.118389 136.560637 
L 475.288266 135.999656 
L 476.322242 136.075088 
L 477.356217 135.873487 
L 480.458144 134.628013 
L 481.492119 134.516711 
L 482.526095 134.240454 
L 483.56007 134.080362 
L 485.628021 134.544143 
L 488.729947 134.92287 
L 489.763923 134.883013 
L 490.797898 134.670272 
L 491.831874 134.918132 
L 493.899825 135.802763 
L 494.9338 136.144668 
L 495.967776 136.29903 
L 497.001751 136.264435 
L 499.069702 135.797595 
L 502.171629 134.70343 
L 503.205604 134.471907 
L 504.23958 134.533613 
L 505.273555 134.230353 
L 507.341506 133.146824 
L 508.375482 132.682681 
L 509.409457 132.583053 
L 511.477408 132.8207 
L 512.511384 133.27248 
L 513.545359 134.244691 
L 518.715236 140.959405 
L 520.783187 144.230194 
L 522.851138 147.132357 
L 524.919089 149.788157 
L 525.953065 150.889804 
L 529.054991 152.057541 
L 533.190893 154.283489 
L 535.258844 155.034064 
L 540.428722 157.798666 
L 542.496673 158.496631 
L 544.564623 159.812774 
L 546.632574 160.782599 
L 548.700525 161.234785 
L 550.768476 162.20225 
L 552.836427 162.710261 
L 553.870403 162.831451 
L 556.972329 162.884098 
L 558.006305 162.817496 
L 560.074256 162.240844 
L 562.142207 161.434135 
L 563.176182 160.776996 
L 565.244133 158.857086 
L 566.278109 157.5645 
L 567.312084 156.05469 
L 568.34606 154.307352 
L 569.380035 152.092798 
L 572.481961 143.658906 
L 574.549912 137.595678 
L 577.651839 128.170795 
L 579.71979 122.553309 
L 580.753765 120.183043 
L 581.787741 118.226429 
L 582.821716 117.114021 
L 584.889667 116.979938 
L 586.957618 116.614867 
L 587.991594 116.760252 
L 589.025569 117.07737 
L 590.059545 117.590023 
L 591.09352 118.241403 
L 593.161471 119.947766 
L 594.195447 120.812474 
L 595.229422 121.495226 
L 596.263398 121.899219 
L 597.297373 121.739174 
L 598.331349 121.109578 
L 601.433275 120.19607 
L 603.501226 119.14086 
L 605.569177 117.692261 
L 607.637128 116.545525 
L 608.671103 116.111111 
L 609.705079 115.50464 
L 611.77303 114.493435 
L 612.807005 113.715773 
L 615.908932 110.805705 
L 616.942907 110.066637 
L 620.044834 109.411673 
L 621.078809 109.464202 
L 622.112785 109.81014 
L 623.14676 110.957253 
L 624.180736 112.403657 
L 625.214711 114.269719 
L 626.248687 116.541859 
L 627.282662 119.393009 
L 629.350613 126.23345 
L 631.418564 133.225292 
L 634.52049 142.602764 
L 635.554466 145.363316 
L 637.622417 149.820259 
L 638.656392 151.734312 
L 644.860245 160.347742 
L 644.860245 160.347742 
" style="fill:none;stroke:#008000;stroke-linecap:square;stroke-width:1.5;"/>
   </g>
   <g id="line2d_32">
    <path clip-path="url(#pc01c495bd2)" d="M 648.996147 172.8 
L 648.996147 25.92 
" style="fill:none;stroke:#ff0000;stroke-linecap:square;stroke-width:0.5;"/>
   </g>
   <g id="patch_3">
    <path d="M 64.8 172.8 
L 64.8 25.92 
" style="fill:none;stroke:#000000;stroke-linecap:square;stroke-linejoin:miter;stroke-width:0.8;"/>
   </g>
   <g id="patch_4">
    <path d="M 655.2 172.8 
L 655.2 25.92 
" style="fill:none;stroke:#000000;stroke-linecap:square;stroke-linejoin:miter;stroke-width:0.8;"/>
   </g>
   <g id="patch_5">
    <path d="M 64.8 172.8 
L 655.2 172.8 
" style="fill:none;stroke:#000000;stroke-linecap:square;stroke-linejoin:miter;stroke-width:0.8;"/>
   </g>
   <g id="patch_6">
    <path d="M 64.8 25.92 
L 655.2 25.92 
" style="fill:none;stroke:#000000;stroke-linecap:square;stroke-linejoin:miter;stroke-width:0.8;"/>
   </g>
   <g id="text_18">
    <!-- Concentratie SARS-CoV-2 RNA per ml rioolwater -->
    <g transform="translate(215.560313 19.92)scale(0.12 -0.12)">
     <defs>
      <path d="M 64.40625 67.28125 
L 64.40625 56.890625 
Q 59.421875 61.53125 53.78125 63.8125 
Q 48.140625 66.109375 41.796875 66.109375 
Q 29.296875 66.109375 22.65625 58.46875 
Q 16.015625 50.828125 16.015625 36.375 
Q 16.015625 21.96875 22.65625 14.328125 
Q 29.296875 6.6875 41.796875 6.6875 
Q 48.140625 6.6875 53.78125 8.984375 
Q 59.421875 11.28125 64.40625 15.921875 
L 64.40625 5.609375 
Q 59.234375 2.09375 53.4375 0.328125 
Q 47.65625 -1.421875 41.21875 -1.421875 
Q 24.65625 -1.421875 15.125 8.703125 
Q 5.609375 18.84375 5.609375 36.375 
Q 5.609375 53.953125 15.125 64.078125 
Q 24.65625 74.21875 41.21875 74.21875 
Q 47.75 74.21875 53.53125 72.484375 
Q 59.328125 70.75 64.40625 67.28125 
z
" id="DejaVuSans-67"/>
      <path d="M 30.609375 48.390625 
Q 23.390625 48.390625 19.1875 42.75 
Q 14.984375 37.109375 14.984375 27.296875 
Q 14.984375 17.484375 19.15625 11.84375 
Q 23.34375 6.203125 30.609375 6.203125 
Q 37.796875 6.203125 41.984375 11.859375 
Q 46.1875 17.53125 46.1875 27.296875 
Q 46.1875 37.015625 41.984375 42.703125 
Q 37.796875 48.390625 30.609375 48.390625 
z
M 30.609375 56 
Q 42.328125 56 49.015625 48.375 
Q 55.71875 40.765625 55.71875 27.296875 
Q 55.71875 13.875 49.015625 6.21875 
Q 42.328125 -1.421875 30.609375 -1.421875 
Q 18.84375 -1.421875 12.171875 6.21875 
Q 5.515625 13.875 5.515625 27.296875 
Q 5.515625 40.765625 12.171875 48.375 
Q 18.84375 56 30.609375 56 
z
" id="DejaVuSans-111"/>
      <path d="M 54.890625 33.015625 
L 54.890625 0 
L 45.90625 0 
L 45.90625 32.71875 
Q 45.90625 40.484375 42.875 44.328125 
Q 39.84375 48.1875 33.796875 48.1875 
Q 26.515625 48.1875 22.3125 43.546875 
Q 18.109375 38.921875 18.109375 30.90625 
L 18.109375 0 
L 9.078125 0 
L 9.078125 54.6875 
L 18.109375 54.6875 
L 18.109375 46.1875 
Q 21.34375 51.125 25.703125 53.5625 
Q 30.078125 56 35.796875 56 
Q 45.21875 56 50.046875 50.171875 
Q 54.890625 44.34375 54.890625 33.015625 
z
" id="DejaVuSans-110"/>
      <path d="M 48.78125 52.59375 
L 48.78125 44.1875 
Q 44.96875 46.296875 41.140625 47.34375 
Q 37.3125 48.390625 33.40625 48.390625 
Q 24.65625 48.390625 19.8125 42.84375 
Q 14.984375 37.3125 14.984375 27.296875 
Q 14.984375 17.28125 19.8125 11.734375 
Q 24.65625 6.203125 33.40625 6.203125 
Q 37.3125 6.203125 41.140625 7.25 
Q 44.96875 8.296875 48.78125 10.40625 
L 48.78125 2.09375 
Q 45.015625 0.34375 40.984375 -0.53125 
Q 36.96875 -1.421875 32.421875 -1.421875 
Q 20.0625 -1.421875 12.78125 6.34375 
Q 5.515625 14.109375 5.515625 27.296875 
Q 5.515625 40.671875 12.859375 48.328125 
Q 20.21875 56 33.015625 56 
Q 37.15625 56 41.109375 55.140625 
Q 45.0625 54.296875 48.78125 52.59375 
z
" id="DejaVuSans-99"/>
      <path d="M 53.515625 70.515625 
L 53.515625 60.890625 
Q 47.90625 63.578125 42.921875 64.890625 
Q 37.9375 66.21875 33.296875 66.21875 
Q 25.25 66.21875 20.875 63.09375 
Q 16.5 59.96875 16.5 54.203125 
Q 16.5 49.359375 19.40625 46.890625 
Q 22.3125 44.4375 30.421875 42.921875 
L 36.375 41.703125 
Q 47.40625 39.59375 52.65625 34.296875 
Q 57.90625 29 57.90625 20.125 
Q 57.90625 9.515625 50.796875 4.046875 
Q 43.703125 -1.421875 29.984375 -1.421875 
Q 24.8125 -1.421875 18.96875 -0.25 
Q 13.140625 0.921875 6.890625 3.21875 
L 6.890625 13.375 
Q 12.890625 10.015625 18.65625 8.296875 
Q 24.421875 6.59375 29.984375 6.59375 
Q 38.421875 6.59375 43.015625 9.90625 
Q 47.609375 13.234375 47.609375 19.390625 
Q 47.609375 24.75 44.3125 27.78125 
Q 41.015625 30.8125 33.5 32.328125 
L 27.484375 33.5 
Q 16.453125 35.6875 11.515625 40.375 
Q 6.59375 45.0625 6.59375 53.421875 
Q 6.59375 63.09375 13.40625 68.65625 
Q 20.21875 74.21875 32.171875 74.21875 
Q 37.3125 74.21875 42.625 73.28125 
Q 47.953125 72.359375 53.515625 70.515625 
z
" id="DejaVuSans-83"/>
      <path d="M 28.609375 0 
L 0.78125 72.90625 
L 11.078125 72.90625 
L 34.1875 11.53125 
L 57.328125 72.90625 
L 67.578125 72.90625 
L 39.796875 0 
z
" id="DejaVuSans-86"/>
      <path d="M 4.203125 54.6875 
L 13.1875 54.6875 
L 24.421875 12.015625 
L 35.59375 54.6875 
L 46.1875 54.6875 
L 57.421875 12.015625 
L 68.609375 54.6875 
L 77.59375 54.6875 
L 63.28125 0 
L 52.6875 0 
L 40.921875 44.828125 
L 29.109375 0 
L 18.5 0 
z
" id="DejaVuSans-119"/>
     </defs>
     <use xlink:href="#DejaVuSans-67"/>
     <use x="69.824219" xlink:href="#DejaVuSans-111"/>
     <use x="131.005859" xlink:href="#DejaVuSans-110"/>
     <use x="194.384766" xlink:href="#DejaVuSans-99"/>
     <use x="249.365234" xlink:href="#DejaVuSans-101"/>
     <use x="310.888672" xlink:href="#DejaVuSans-110"/>
     <use x="374.267578" xlink:href="#DejaVuSans-116"/>
     <use x="413.476562" xlink:href="#DejaVuSans-114"/>
     <use x="454.589844" xlink:href="#DejaVuSans-97"/>
     <use x="515.869141" xlink:href="#DejaVuSans-116"/>
     <use x="555.078125" xlink:href="#DejaVuSans-105"/>
     <use x="582.861328" xlink:href="#DejaVuSans-101"/>
     <use x="644.384766" xlink:href="#DejaVuSans-32"/>
     <use x="676.171875" xlink:href="#DejaVuSans-83"/>
     <use x="741.523438" xlink:href="#DejaVuSans-65"/>
     <use x="809.931641" xlink:href="#DejaVuSans-82"/>
     <use x="879.414062" xlink:href="#DejaVuSans-83"/>
     <use x="942.890625" xlink:href="#DejaVuSans-45"/>
     <use x="978.974609" xlink:href="#DejaVuSans-67"/>
     <use x="1048.798828" xlink:href="#DejaVuSans-111"/>
     <use x="1109.980469" xlink:href="#DejaVuSans-86"/>
     <use x="1172.513672" xlink:href="#DejaVuSans-45"/>
     <use x="1208.597656" xlink:href="#DejaVuSans-50"/>
     <use x="1272.220703" xlink:href="#DejaVuSans-32"/>
     <use x="1304.007812" xlink:href="#DejaVuSans-82"/>
     <use x="1373.490234" xlink:href="#DejaVuSans-78"/>
     <use x="1448.294922" xlink:href="#DejaVuSans-65"/>
     <use x="1516.703125" xlink:href="#DejaVuSans-32"/>
     <use x="1548.490234" xlink:href="#DejaVuSans-112"/>
     <use x="1611.966797" xlink:href="#DejaVuSans-101"/>
     <use x="1673.490234" xlink:href="#DejaVuSans-114"/>
     <use x="1714.603516" xlink:href="#DejaVuSans-32"/>
     <use x="1746.390625" xlink:href="#DejaVuSans-109"/>
     <use x="1843.802734" xlink:href="#DejaVuSans-108"/>
     <use x="1871.585938" xlink:href="#DejaVuSans-32"/>
     <use x="1903.373047" xlink:href="#DejaVuSans-114"/>
     <use x="1944.486328" xlink:href="#DejaVuSans-105"/>
     <use x="1972.269531" xlink:href="#DejaVuSans-111"/>
     <use x="2033.451172" xlink:href="#DejaVuSans-111"/>
     <use x="2094.632812" xlink:href="#DejaVuSans-108"/>
     <use x="2122.416016" xlink:href="#DejaVuSans-119"/>
     <use x="2204.203125" xlink:href="#DejaVuSans-97"/>
     <use x="2265.482422" xlink:href="#DejaVuSans-116"/>
     <use x="2304.691406" xlink:href="#DejaVuSans-101"/>
     <use x="2366.214844" xlink:href="#DejaVuSans-114"/>
    </g>
   </g>
   <g id="legend_1">
    <g id="patch_7">
     <path d="M 71.8 48.598125 
L 306.184375 48.598125 
Q 308.184375 48.598125 308.184375 46.598125 
L 308.184375 32.92 
Q 308.184375 30.92 306.184375 30.92 
L 71.8 30.92 
Q 69.8 30.92 69.8 32.92 
L 69.8 46.598125 
Q 69.8 48.598125 71.8 48.598125 
z
" style="fill:#ffffff;opacity:0.8;stroke:#cccccc;stroke-linejoin:miter;"/>
    </g>
    <g id="line2d_33">
     <path d="M 73.8 39.018437 
L 93.8 39.018437 
" style="fill:none;stroke:#008000;stroke-linecap:square;stroke-width:1.5;"/>
    </g>
    <g id="line2d_34"/>
    <g id="text_19">
     <!-- RNA per milliliter rioolwater (gemiddeld) -->
     <g transform="translate(101.8 42.518437)scale(0.1 -0.1)">
      <defs>
       <path d="M 31 75.875 
Q 24.46875 64.65625 21.28125 53.65625 
Q 18.109375 42.671875 18.109375 31.390625 
Q 18.109375 20.125 21.3125 9.0625 
Q 24.515625 -2 31 -13.1875 
L 23.1875 -13.1875 
Q 15.875 -1.703125 12.234375 9.375 
Q 8.59375 20.453125 8.59375 31.390625 
Q 8.59375 42.28125 12.203125 53.3125 
Q 15.828125 64.359375 23.1875 75.875 
z
" id="DejaVuSans-40"/>
       <path d="M 45.40625 27.984375 
Q 45.40625 37.75 41.375 43.109375 
Q 37.359375 48.484375 30.078125 48.484375 
Q 22.859375 48.484375 18.828125 43.109375 
Q 14.796875 37.75 14.796875 27.984375 
Q 14.796875 18.265625 18.828125 12.890625 
Q 22.859375 7.515625 30.078125 7.515625 
Q 37.359375 7.515625 41.375 12.890625 
Q 45.40625 18.265625 45.40625 27.984375 
z
M 54.390625 6.78125 
Q 54.390625 -7.171875 48.1875 -13.984375 
Q 42 -20.796875 29.203125 -20.796875 
Q 24.46875 -20.796875 20.265625 -20.09375 
Q 16.0625 -19.390625 12.109375 -17.921875 
L 12.109375 -9.1875 
Q 16.0625 -11.328125 19.921875 -12.34375 
Q 23.78125 -13.375 27.78125 -13.375 
Q 36.625 -13.375 41.015625 -8.765625 
Q 45.40625 -4.15625 45.40625 5.171875 
L 45.40625 9.625 
Q 42.625 4.78125 38.28125 2.390625 
Q 33.9375 0 27.875 0 
Q 17.828125 0 11.671875 7.65625 
Q 5.515625 15.328125 5.515625 27.984375 
Q 5.515625 40.671875 11.671875 48.328125 
Q 17.828125 56 27.875 56 
Q 33.9375 56 38.28125 53.609375 
Q 42.625 51.21875 45.40625 46.390625 
L 45.40625 54.6875 
L 54.390625 54.6875 
z
" id="DejaVuSans-103"/>
       <path d="M 45.40625 46.390625 
L 45.40625 75.984375 
L 54.390625 75.984375 
L 54.390625 0 
L 45.40625 0 
L 45.40625 8.203125 
Q 42.578125 3.328125 38.25 0.953125 
Q 33.9375 -1.421875 27.875 -1.421875 
Q 17.96875 -1.421875 11.734375 6.484375 
Q 5.515625 14.40625 5.515625 27.296875 
Q 5.515625 40.1875 11.734375 48.09375 
Q 17.96875 56 27.875 56 
Q 33.9375 56 38.25 53.625 
Q 42.578125 51.265625 45.40625 46.390625 
z
M 14.796875 27.296875 
Q 14.796875 17.390625 18.875 11.75 
Q 22.953125 6.109375 30.078125 6.109375 
Q 37.203125 6.109375 41.296875 11.75 
Q 45.40625 17.390625 45.40625 27.296875 
Q 45.40625 37.203125 41.296875 42.84375 
Q 37.203125 48.484375 30.078125 48.484375 
Q 22.953125 48.484375 18.875 42.84375 
Q 14.796875 37.203125 14.796875 27.296875 
z
" id="DejaVuSans-100"/>
       <path d="M 8.015625 75.875 
L 15.828125 75.875 
Q 23.140625 64.359375 26.78125 53.3125 
Q 30.421875 42.28125 30.421875 31.390625 
Q 30.421875 20.453125 26.78125 9.375 
Q 23.140625 -1.703125 15.828125 -13.1875 
L 8.015625 -13.1875 
Q 14.5 -2 17.703125 9.0625 
Q 20.90625 20.125 20.90625 31.390625 
Q 20.90625 42.671875 17.703125 53.65625 
Q 14.5 64.65625 8.015625 75.875 
z
" id="DejaVuSans-41"/>
      </defs>
      <use xlink:href="#DejaVuSans-82"/>
      <use x="69.482422" xlink:href="#DejaVuSans-78"/>
      <use x="144.287109" xlink:href="#DejaVuSans-65"/>
      <use x="212.695312" xlink:href="#DejaVuSans-32"/>
      <use x="244.482422" xlink:href="#DejaVuSans-112"/>
      <use x="307.958984" xlink:href="#DejaVuSans-101"/>
      <use x="369.482422" xlink:href="#DejaVuSans-114"/>
      <use x="410.595703" xlink:href="#DejaVuSans-32"/>
      <use x="442.382812" xlink:href="#DejaVuSans-109"/>
      <use x="539.794922" xlink:href="#DejaVuSans-105"/>
      <use x="567.578125" xlink:href="#DejaVuSans-108"/>
      <use x="595.361328" xlink:href="#DejaVuSans-108"/>
      <use x="623.144531" xlink:href="#DejaVuSans-105"/>
      <use x="650.927734" xlink:href="#DejaVuSans-108"/>
      <use x="678.710938" xlink:href="#DejaVuSans-105"/>
      <use x="706.494141" xlink:href="#DejaVuSans-116"/>
      <use x="745.703125" xlink:href="#DejaVuSans-101"/>
      <use x="807.226562" xlink:href="#DejaVuSans-114"/>
      <use x="848.339844" xlink:href="#DejaVuSans-32"/>
      <use x="880.126953" xlink:href="#DejaVuSans-114"/>
      <use x="921.240234" xlink:href="#DejaVuSans-105"/>
      <use x="949.023438" xlink:href="#DejaVuSans-111"/>
      <use x="1010.205078" xlink:href="#DejaVuSans-111"/>
      <use x="1071.386719" xlink:href="#DejaVuSans-108"/>
      <use x="1099.169922" xlink:href="#DejaVuSans-119"/>
      <use x="1180.957031" xlink:href="#DejaVuSans-97"/>
      <use x="1242.236328" xlink:href="#DejaVuSans-116"/>
      <use x="1281.445312" xlink:href="#DejaVuSans-101"/>
      <use x="1342.96875" xlink:href="#DejaVuSans-114"/>
      <use x="1384.082031" xlink:href="#DejaVuSans-32"/>
      <use x="1415.869141" xlink:href="#DejaVuSans-40"/>
      <use x="1454.882812" xlink:href="#DejaVuSans-103"/>
      <use x="1518.359375" xlink:href="#DejaVuSans-101"/>
      <use x="1579.882812" xlink:href="#DejaVuSans-109"/>
      <use x="1677.294922" xlink:href="#DejaVuSans-105"/>
      <use x="1705.078125" xlink:href="#DejaVuSans-100"/>
      <use x="1768.554688" xlink:href="#DejaVuSans-100"/>
      <use x="1832.03125" xlink:href="#DejaVuSans-101"/>
      <use x="1893.554688" xlink:href="#DejaVuSans-108"/>
      <use x="1921.337891" xlink:href="#DejaVuSans-100"/>
      <use x="1984.814453" xlink:href="#DejaVuSans-41"/>
     </g>
    </g>
   </g>
  </g>
  <g id="text_20">
   <!-- Gegenereerd op 2021-09-17 11:41 o.b.v. data tot 2021-09-13. -->
   <g style="fill:#808080;" transform="translate(7.2 204.88175)scale(0.08 -0.08)">
    <defs>
     <path d="M 59.515625 10.40625 
L 59.515625 29.984375 
L 43.40625 29.984375 
L 43.40625 38.09375 
L 69.28125 38.09375 
L 69.28125 6.78125 
Q 63.578125 2.734375 56.6875 0.65625 
Q 49.8125 -1.421875 42 -1.421875 
Q 24.90625 -1.421875 15.25 8.5625 
Q 5.609375 18.5625 5.609375 36.375 
Q 5.609375 54.25 15.25 64.234375 
Q 24.90625 74.21875 42 74.21875 
Q 49.125 74.21875 55.546875 72.453125 
Q 61.96875 70.703125 67.390625 67.28125 
L 67.390625 56.78125 
Q 61.921875 61.421875 55.765625 63.765625 
Q 49.609375 66.109375 42.828125 66.109375 
Q 29.4375 66.109375 22.71875 58.640625 
Q 16.015625 51.171875 16.015625 36.375 
Q 16.015625 21.625 22.71875 14.15625 
Q 29.4375 6.6875 42.828125 6.6875 
Q 48.046875 6.6875 52.140625 7.59375 
Q 56.25 8.5 59.515625 10.40625 
z
" id="DejaVuSans-71"/>
     <path d="M 11.71875 12.40625 
L 22.015625 12.40625 
L 22.015625 0 
L 11.71875 0 
z
M 11.71875 51.703125 
L 22.015625 51.703125 
L 22.015625 39.3125 
L 11.71875 39.3125 
z
" id="DejaVuSans-58"/>
     <path d="M 10.6875 12.40625 
L 21 12.40625 
L 21 0 
L 10.6875 0 
z
" id="DejaVuSans-46"/>
     <path d="M 48.6875 27.296875 
Q 48.6875 37.203125 44.609375 42.84375 
Q 40.53125 48.484375 33.40625 48.484375 
Q 26.265625 48.484375 22.1875 42.84375 
Q 18.109375 37.203125 18.109375 27.296875 
Q 18.109375 17.390625 22.1875 11.75 
Q 26.265625 6.109375 33.40625 6.109375 
Q 40.53125 6.109375 44.609375 11.75 
Q 48.6875 17.390625 48.6875 27.296875 
z
M 18.109375 46.390625 
Q 20.953125 51.265625 25.265625 53.625 
Q 29.59375 56 35.59375 56 
Q 45.5625 56 51.78125 48.09375 
Q 58.015625 40.1875 58.015625 27.296875 
Q 58.015625 14.40625 51.78125 6.484375 
Q 45.5625 -1.421875 35.59375 -1.421875 
Q 29.59375 -1.421875 25.265625 0.953125 
Q 20.953125 3.328125 18.109375 8.203125 
L 18.109375 0 
L 9.078125 0 
L 9.078125 75.984375 
L 18.109375 75.984375 
z
" id="DejaVuSans-98"/>
     <path d="M 2.984375 54.6875 
L 12.5 54.6875 
L 29.59375 8.796875 
L 46.6875 54.6875 
L 56.203125 54.6875 
L 35.6875 0 
L 23.484375 0 
z
" id="DejaVuSans-118"/>
    </defs>
    <use xlink:href="#DejaVuSans-71"/>
    <use x="77.490234" xlink:href="#DejaVuSans-101"/>
    <use x="139.013672" xlink:href="#DejaVuSans-103"/>
    <use x="202.490234" xlink:href="#DejaVuSans-101"/>
    <use x="264.013672" xlink:href="#DejaVuSans-110"/>
    <use x="327.392578" xlink:href="#DejaVuSans-101"/>
    <use x="388.916016" xlink:href="#DejaVuSans-114"/>
    <use x="427.779297" xlink:href="#DejaVuSans-101"/>
    <use x="489.302734" xlink:href="#DejaVuSans-101"/>
    <use x="550.826172" xlink:href="#DejaVuSans-114"/>
    <use x="590.189453" xlink:href="#DejaVuSans-100"/>
    <use x="653.666016" xlink:href="#DejaVuSans-32"/>
    <use x="685.453125" xlink:href="#DejaVuSans-111"/>
    <use x="746.634766" xlink:href="#DejaVuSans-112"/>
    <use x="810.111328" xlink:href="#DejaVuSans-32"/>
    <use x="841.898438" xlink:href="#DejaVuSans-50"/>
    <use x="905.521484" xlink:href="#DejaVuSans-48"/>
    <use x="969.144531" xlink:href="#DejaVuSans-50"/>
    <use x="1032.767578" xlink:href="#DejaVuSans-49"/>
    <use x="1096.390625" xlink:href="#DejaVuSans-45"/>
    <use x="1132.474609" xlink:href="#DejaVuSans-48"/>
    <use x="1196.097656" xlink:href="#DejaVuSans-57"/>
    <use x="1259.720703" xlink:href="#DejaVuSans-45"/>
    <use x="1295.804688" xlink:href="#DejaVuSans-49"/>
    <use x="1359.427734" xlink:href="#DejaVuSans-55"/>
    <use x="1423.050781" xlink:href="#DejaVuSans-32"/>
    <use x="1454.837891" xlink:href="#DejaVuSans-49"/>
    <use x="1518.460938" xlink:href="#DejaVuSans-49"/>
    <use x="1582.083984" xlink:href="#DejaVuSans-58"/>
    <use x="1615.775391" xlink:href="#DejaVuSans-52"/>
    <use x="1679.398438" xlink:href="#DejaVuSans-49"/>
    <use x="1743.021484" xlink:href="#DejaVuSans-32"/>
    <use x="1774.808594" xlink:href="#DejaVuSans-111"/>
    <use x="1834.240234" xlink:href="#DejaVuSans-46"/>
    <use x="1866.027344" xlink:href="#DejaVuSans-98"/>
    <use x="1929.503906" xlink:href="#DejaVuSans-46"/>
    <use x="1961.291016" xlink:href="#DejaVuSans-118"/>
    <use x="2012.720703" xlink:href="#DejaVuSans-46"/>
    <use x="2044.507812" xlink:href="#DejaVuSans-32"/>
    <use x="2076.294922" xlink:href="#DejaVuSans-100"/>
    <use x="2139.771484" xlink:href="#DejaVuSans-97"/>
    <use x="2201.050781" xlink:href="#DejaVuSans-116"/>
    <use x="2240.259766" xlink:href="#DejaVuSans-97"/>
    <use x="2301.539062" xlink:href="#DejaVuSans-32"/>
    <use x="2333.326172" xlink:href="#DejaVuSans-116"/>
    <use x="2372.535156" xlink:href="#DejaVuSans-111"/>
    <use x="2433.716797" xlink:href="#DejaVuSans-116"/>
    <use x="2472.925781" xlink:href="#DejaVuSans-32"/>
    <use x="2504.712891" xlink:href="#DejaVuSans-50"/>
    <use x="2568.335938" xlink:href="#DejaVuSans-48"/>
    <use x="2631.958984" xlink:href="#DejaVuSans-50"/>
    <use x="2695.582031" xlink:href="#DejaVuSans-49"/>
    <use x="2759.205078" xlink:href="#DejaVuSans-45"/>
    <use x="2795.289062" xlink:href="#DejaVuSans-48"/>
    <use x="2858.912109" xlink:href="#DejaVuSans-57"/>
    <use x="2922.535156" xlink:href="#DejaVuSans-45"/>
    <use x="2958.619141" xlink:href="#DejaVuSans-49"/>
    <use x="3022.242188" xlink:href="#DejaVuSans-51"/>
    <use x="3085.865234" xlink:href="#DejaVuSans-46"/>
   </g>
   <!-- Source code: http://github.com/realrolfje/coronadata -->
   <g style="fill:#808080;" transform="translate(7.2 213.84)scale(0.08 -0.08)">
    <defs>
     <path d="M 54.890625 33.015625 
L 54.890625 0 
L 45.90625 0 
L 45.90625 32.71875 
Q 45.90625 40.484375 42.875 44.328125 
Q 39.84375 48.1875 33.796875 48.1875 
Q 26.515625 48.1875 22.3125 43.546875 
Q 18.109375 38.921875 18.109375 30.90625 
L 18.109375 0 
L 9.078125 0 
L 9.078125 75.984375 
L 18.109375 75.984375 
L 18.109375 46.1875 
Q 21.34375 51.125 25.703125 53.5625 
Q 30.078125 56 35.796875 56 
Q 45.21875 56 50.046875 50.171875 
Q 54.890625 44.34375 54.890625 33.015625 
z
" id="DejaVuSans-104"/>
     <path d="M 25.390625 72.90625 
L 33.6875 72.90625 
L 8.296875 -9.28125 
L 0 -9.28125 
z
" id="DejaVuSans-47"/>
     <path d="M 37.109375 75.984375 
L 37.109375 68.5 
L 28.515625 68.5 
Q 23.6875 68.5 21.796875 66.546875 
Q 19.921875 64.59375 19.921875 59.515625 
L 19.921875 54.6875 
L 34.71875 54.6875 
L 34.71875 47.703125 
L 19.921875 47.703125 
L 19.921875 0 
L 10.890625 0 
L 10.890625 47.703125 
L 2.296875 47.703125 
L 2.296875 54.6875 
L 10.890625 54.6875 
L 10.890625 58.5 
Q 10.890625 67.625 15.140625 71.796875 
Q 19.390625 75.984375 28.609375 75.984375 
z
" id="DejaVuSans-102"/>
     <path d="M 9.421875 54.6875 
L 18.40625 54.6875 
L 18.40625 -0.984375 
Q 18.40625 -11.421875 14.421875 -16.109375 
Q 10.453125 -20.796875 1.609375 -20.796875 
L -1.8125 -20.796875 
L -1.8125 -13.1875 
L 0.59375 -13.1875 
Q 5.71875 -13.1875 7.5625 -10.8125 
Q 9.421875 -8.453125 9.421875 -0.984375 
z
M 9.421875 75.984375 
L 18.40625 75.984375 
L 18.40625 64.59375 
L 9.421875 64.59375 
z
" id="DejaVuSans-106"/>
    </defs>
    <use xlink:href="#DejaVuSans-83"/>
    <use x="63.476562" xlink:href="#DejaVuSans-111"/>
    <use x="124.658203" xlink:href="#DejaVuSans-117"/>
    <use x="188.037109" xlink:href="#DejaVuSans-114"/>
    <use x="226.900391" xlink:href="#DejaVuSans-99"/>
    <use x="281.880859" xlink:href="#DejaVuSans-101"/>
    <use x="343.404297" xlink:href="#DejaVuSans-32"/>
    <use x="375.191406" xlink:href="#DejaVuSans-99"/>
    <use x="430.171875" xlink:href="#DejaVuSans-111"/>
    <use x="491.353516" xlink:href="#DejaVuSans-100"/>
    <use x="554.830078" xlink:href="#DejaVuSans-101"/>
    <use x="616.353516" xlink:href="#DejaVuSans-58"/>
    <use x="650.044922" xlink:href="#DejaVuSans-32"/>
    <use x="681.832031" xlink:href="#DejaVuSans-104"/>
    <use x="745.210938" xlink:href="#DejaVuSans-116"/>
    <use x="784.419922" xlink:href="#DejaVuSans-116"/>
    <use x="823.628906" xlink:href="#DejaVuSans-112"/>
    <use x="887.105469" xlink:href="#DejaVuSans-58"/>
    <use x="920.796875" xlink:href="#DejaVuSans-47"/>
    <use x="954.488281" xlink:href="#DejaVuSans-47"/>
    <use x="988.179688" xlink:href="#DejaVuSans-103"/>
    <use x="1051.65625" xlink:href="#DejaVuSans-105"/>
    <use x="1079.439453" xlink:href="#DejaVuSans-116"/>
    <use x="1118.648438" xlink:href="#DejaVuSans-104"/>
    <use x="1182.027344" xlink:href="#DejaVuSans-117"/>
    <use x="1245.40625" xlink:href="#DejaVuSans-98"/>
    <use x="1308.882812" xlink:href="#DejaVuSans-46"/>
    <use x="1340.669922" xlink:href="#DejaVuSans-99"/>
    <use x="1395.650391" xlink:href="#DejaVuSans-111"/>
    <use x="1456.832031" xlink:href="#DejaVuSans-109"/>
    <use x="1554.244141" xlink:href="#DejaVuSans-47"/>
    <use x="1587.935547" xlink:href="#DejaVuSans-114"/>
    <use x="1626.798828" xlink:href="#DejaVuSans-101"/>
    <use x="1688.322266" xlink:href="#DejaVuSans-97"/>
    <use x="1749.601562" xlink:href="#DejaVuSans-108"/>
    <use x="1777.384766" xlink:href="#DejaVuSans-114"/>
    <use x="1816.248047" xlink:href="#DejaVuSans-111"/>
    <use x="1877.429688" xlink:href="#DejaVuSans-108"/>
    <use x="1905.212891" xlink:href="#DejaVuSans-102"/>
    <use x="1940.417969" xlink:href="#DejaVuSans-106"/>
    <use x="1968.201172" xlink:href="#DejaVuSans-101"/>
    <use x="2029.724609" xlink:href="#DejaVuSans-47"/>
    <use x="2063.416016" xlink:href="#DejaVuSans-99"/>
    <use x="2118.396484" xlink:href="#DejaVuSans-111"/>
    <use x="2179.578125" xlink:href="#DejaVuSans-114"/>
    <use x="2218.441406" xlink:href="#DejaVuSans-111"/>
    <use x="2279.623047" xlink:href="#DejaVuSans-110"/>
    <use x="2343.001953" xlink:href="#DejaVuSans-97"/>
    <use x="2404.28125" xlink:href="#DejaVuSans-100"/>
    <use x="2467.757812" xlink:href="#DejaVuSans-97"/>
    <use x="2529.037109" xlink:href="#DejaVuSans-116"/>
    <use x="2568.246094" xlink:href="#DejaVuSans-97"/>
   </g>
  </g>
  <g id="text_21">
   <!-- Bron: https://data.rivm.nl/covid-19 -->
   <g style="fill:#808080;" transform="translate(574.79875 213.84)scale(0.08 -0.08)">
    <defs>
     <path d="M 19.671875 34.8125 
L 19.671875 8.109375 
L 35.5 8.109375 
Q 43.453125 8.109375 47.28125 11.40625 
Q 51.125 14.703125 51.125 21.484375 
Q 51.125 28.328125 47.28125 31.5625 
Q 43.453125 34.8125 35.5 34.8125 
z
M 19.671875 64.796875 
L 19.671875 42.828125 
L 34.28125 42.828125 
Q 41.5 42.828125 45.03125 45.53125 
Q 48.578125 48.25 48.578125 53.8125 
Q 48.578125 59.328125 45.03125 62.0625 
Q 41.5 64.796875 34.28125 64.796875 
z
M 9.8125 72.90625 
L 35.015625 72.90625 
Q 46.296875 72.90625 52.390625 68.21875 
Q 58.5 63.53125 58.5 54.890625 
Q 58.5 48.1875 55.375 44.234375 
Q 52.25 40.28125 46.1875 39.3125 
Q 53.46875 37.75 57.5 32.78125 
Q 61.53125 27.828125 61.53125 20.40625 
Q 61.53125 10.640625 54.890625 5.3125 
Q 48.25 0 35.984375 0 
L 9.8125 0 
z
" id="DejaVuSans-66"/>
     <path d="M 44.28125 53.078125 
L 44.28125 44.578125 
Q 40.484375 46.53125 36.375 47.5 
Q 32.28125 48.484375 27.875 48.484375 
Q 21.1875 48.484375 17.84375 46.4375 
Q 14.5 44.390625 14.5 40.28125 
Q 14.5 37.15625 16.890625 35.375 
Q 19.28125 33.59375 26.515625 31.984375 
L 29.59375 31.296875 
Q 39.15625 29.25 43.1875 25.515625 
Q 47.21875 21.78125 47.21875 15.09375 
Q 47.21875 7.46875 41.1875 3.015625 
Q 35.15625 -1.421875 24.609375 -1.421875 
Q 20.21875 -1.421875 15.453125 -0.5625 
Q 10.6875 0.296875 5.421875 2 
L 5.421875 11.28125 
Q 10.40625 8.6875 15.234375 7.390625 
Q 20.0625 6.109375 24.8125 6.109375 
Q 31.15625 6.109375 34.5625 8.28125 
Q 37.984375 10.453125 37.984375 14.40625 
Q 37.984375 18.0625 35.515625 20.015625 
Q 33.0625 21.96875 24.703125 23.78125 
L 21.578125 24.515625 
Q 13.234375 26.265625 9.515625 29.90625 
Q 5.8125 33.546875 5.8125 39.890625 
Q 5.8125 47.609375 11.28125 51.796875 
Q 16.75 56 26.8125 56 
Q 31.78125 56 36.171875 55.265625 
Q 40.578125 54.546875 44.28125 53.078125 
z
" id="DejaVuSans-115"/>
    </defs>
    <use xlink:href="#DejaVuSans-66"/>
    <use x="68.603516" xlink:href="#DejaVuSans-114"/>
    <use x="107.466797" xlink:href="#DejaVuSans-111"/>
    <use x="168.648438" xlink:href="#DejaVuSans-110"/>
    <use x="232.027344" xlink:href="#DejaVuSans-58"/>
    <use x="265.71875" xlink:href="#DejaVuSans-32"/>
    <use x="297.505859" xlink:href="#DejaVuSans-104"/>
    <use x="360.884766" xlink:href="#DejaVuSans-116"/>
    <use x="400.09375" xlink:href="#DejaVuSans-116"/>
    <use x="439.302734" xlink:href="#DejaVuSans-112"/>
    <use x="502.779297" xlink:href="#DejaVuSans-115"/>
    <use x="554.878906" xlink:href="#DejaVuSans-58"/>
    <use x="588.570312" xlink:href="#DejaVuSans-47"/>
    <use x="622.261719" xlink:href="#DejaVuSans-47"/>
    <use x="655.953125" xlink:href="#DejaVuSans-100"/>
    <use x="719.429688" xlink:href="#DejaVuSans-97"/>
    <use x="780.708984" xlink:href="#DejaVuSans-116"/>
    <use x="819.917969" xlink:href="#DejaVuSans-97"/>
    <use x="881.197266" xlink:href="#DejaVuSans-46"/>
    <use x="912.984375" xlink:href="#DejaVuSans-114"/>
    <use x="954.097656" xlink:href="#DejaVuSans-105"/>
    <use x="981.880859" xlink:href="#DejaVuSans-118"/>
    <use x="1041.060547" xlink:href="#DejaVuSans-109"/>
    <use x="1138.472656" xlink:href="#DejaVuSans-46"/>
    <use x="1170.259766" xlink:href="#DejaVuSans-110"/>
    <use x="1233.638672" xlink:href="#DejaVuSans-108"/>
    <use x="1261.421875" xlink:href="#DejaVuSans-47"/>
    <use x="1295.113281" xlink:href="#DejaVuSans-99"/>
    <use x="1350.09375" xlink:href="#DejaVuSans-111"/>
    <use x="1411.275391" xlink:href="#DejaVuSans-118"/>
    <use x="1470.455078" xlink:href="#DejaVuSans-105"/>
    <use x="1498.238281" xlink:href="#DejaVuSans-100"/>
    <use x="1561.714844" xlink:href="#DejaVuSans-45"/>
    <use x="1597.798828" xlink:href="#DejaVuSans-49"/>
    <use x="1661.421875" xlink:href="#DejaVuSans-57"/>
   </g>
  </g>
  <g id="text_22">
   <g id="patch_8">
    <path d="M 637.2 176.62375 
L 647.38 176.62375 
L 647.38 168.88125 
L 637.2 168.88125 
z
" style="fill:#ffffff;opacity:0.9;stroke:#ffffff;stroke-linejoin:miter;"/>
   </g>
   <!-- 17 -->
   <g style="fill:#ff0000;" transform="translate(637.2 174.96)scale(0.08 -0.08)">
    <use xlink:href="#DejaVuSans-49"/>
    <use x="63.623047" xlink:href="#DejaVuSans-55"/>
   </g>
  </g>
  <g id="text_23">
   <g id="patch_9">
    <path d="M 176 92.479688 
L 303.317187 92.479688 
L 303.317187 74.801563 
L 176 74.801563 
z
" style="fill:#ffffff;stroke:#ffffff;stroke-linejoin:miter;"/>
   </g>
   <!-- "Je plee liegt niet" - Rolf -->
   <g style="fill:#808080;" transform="translate(180 86.4)scale(0.1 -0.1)">
    <defs>
     <path d="M 17.921875 72.90625 
L 17.921875 45.796875 
L 9.625 45.796875 
L 9.625 72.90625 
z
M 36.375 72.90625 
L 36.375 45.796875 
L 28.078125 45.796875 
L 28.078125 72.90625 
z
" id="DejaVuSans-34"/>
     <path d="M 9.8125 72.90625 
L 19.671875 72.90625 
L 19.671875 5.078125 
Q 19.671875 -8.109375 14.671875 -14.0625 
Q 9.671875 -20.015625 -1.421875 -20.015625 
L -5.171875 -20.015625 
L -5.171875 -11.71875 
L -2.09375 -11.71875 
Q 4.4375 -11.71875 7.125 -8.046875 
Q 9.8125 -4.390625 9.8125 5.078125 
z
" id="DejaVuSans-74"/>
    </defs>
    <use xlink:href="#DejaVuSans-34"/>
    <use x="45.996094" xlink:href="#DejaVuSans-74"/>
    <use x="75.488281" xlink:href="#DejaVuSans-101"/>
    <use x="137.011719" xlink:href="#DejaVuSans-32"/>
    <use x="168.798828" xlink:href="#DejaVuSans-112"/>
    <use x="232.275391" xlink:href="#DejaVuSans-108"/>
    <use x="260.058594" xlink:href="#DejaVuSans-101"/>
    <use x="321.582031" xlink:href="#DejaVuSans-101"/>
    <use x="383.105469" xlink:href="#DejaVuSans-32"/>
    <use x="414.892578" xlink:href="#DejaVuSans-108"/>
    <use x="442.675781" xlink:href="#DejaVuSans-105"/>
    <use x="470.458984" xlink:href="#DejaVuSans-101"/>
    <use x="531.982422" xlink:href="#DejaVuSans-103"/>
    <use x="595.458984" xlink:href="#DejaVuSans-116"/>
    <use x="634.667969" xlink:href="#DejaVuSans-32"/>
    <use x="666.455078" xlink:href="#DejaVuSans-110"/>
    <use x="729.833984" xlink:href="#DejaVuSans-105"/>
    <use x="757.617188" xlink:href="#DejaVuSans-101"/>
    <use x="819.140625" xlink:href="#DejaVuSans-116"/>
    <use x="858.349609" xlink:href="#DejaVuSans-34"/>
    <use x="904.345703" xlink:href="#DejaVuSans-32"/>
    <use x="936.132812" xlink:href="#DejaVuSans-45"/>
    <use x="972.216797" xlink:href="#DejaVuSans-32"/>
    <use x="1004.003906" xlink:href="#DejaVuSans-82"/>
    <use x="1068.986328" xlink:href="#DejaVuSans-111"/>
    <use x="1130.167969" xlink:href="#DejaVuSans-108"/>
    <use x="1157.951172" xlink:href="#DejaVuSans-102"/>
   </g>
  </g>
 </g>
 <defs>
  <clipPath id="pc01c495bd2">
   <rect height="146.88" width="590.4" x="64.8" y="25.92"/>
  </clipPath>
 </defs>
</svg>
