<?xml version="1.0" encoding="utf-8" standalone="no"?>
<!DOCTYPE svg PUBLIC "-//W3C//DTD SVG 1.1//EN"
  "http://www.w3.org/Graphics/SVG/1.1/DTD/svg11.dtd">
<!-- Created with matplotlib (https://matplotlib.org/) -->
<svg height="216pt" version="1.1" viewBox="0 0 720 216" width="720pt" xmlns="http://www.w3.org/2000/svg" xmlns:xlink="http://www.w3.org/1999/xlink">
 <metadata>
  <rdf:RDF xmlns:cc="http://creativecommons.org/ns#" xmlns:dc="http://purl.org/dc/elements/1.1/" xmlns:rdf="http://www.w3.org/1999/02/22-rdf-syntax-ns#">
   <cc:Work>
    <dc:type rdf:resource="http://purl.org/dc/dcmitype/StillImage"/>
    <dc:date>2021-10-28T23:41:00.820831</dc:date>
    <dc:format>image/svg+xml</dc:format>
    <dc:creator>
     <cc:Agent>
      <dc:title>Matplotlib v3.3.2, https://matplotlib.org/</dc:title>
     </cc:Agent>
    </dc:creator>
   </cc:Work>
  </rdf:RDF>
 </metadata>
 <defs>
  <style type="text/css">*{stroke-linecap:butt;stroke-linejoin:round;}</style>
 </defs>
 <g id="figure_1">
  <g id="patch_1">
   <path d="M 0 216 
L 720 216 
L 720 0 
L 0 0 
z
" style="fill:#ffffff;"/>
  </g>
  <g id="axes_1">
   <g id="patch_2">
    <path d="M 64.8 172.8 
L 655.2 172.8 
L 655.2 25.92 
L 64.8 25.92 
z
" style="fill:#ffffff;"/>
   </g>
   <g id="PolyCollection_1">
    <path clip-path="url(#p1d1f572f47)" d="M 92.776471 172.8 
L 92.776471 172.8 
L 93.741176 172.8 
L 94.705882 172.8 
L 95.670588 172.8 
L 98.564706 172.8 
L 99.529412 172.8 
L 100.494118 172.8 
L 101.458824 172.8 
L 102.423529 172.8 
L 103.388235 172.8 
L 106.282353 172.8 
L 107.247059 172.8 
L 108.211765 172.8 
L 109.176471 172.8 
L 110.141176 172.8 
L 112.070588 172.8 
L 113.035294 172.8 
L 114 172.8 
L 114.964706 172.8 
L 115.929412 172.8 
L 118.823529 172.8 
L 119.788235 172.8 
L 120.752941 172.8 
L 121.717647 172.8 
L 122.682353 172.8 
L 123.647059 172.8 
L 125.576471 172.8 
L 127.505882 172.8 
L 128.470588 172.8 
L 129.435294 172.8 
L 131.364706 172.8 
L 132.329412 172.8 
L 133.294118 172.8 
L 134.258824 172.8 
L 135.223529 172.8 
L 137.152941 172.8 
L 138.117647 172.8 
L 139.082353 172.8 
L 140.047059 172.8 
L 141.011765 172.8 
L 141.976471 172.8 
L 142.941176 172.8 
L 143.905882 172.8 
L 144.870588 172.8 
L 145.835294 172.8 
L 146.8 172.8 
L 147.764706 172.8 
L 148.729412 172.8 
L 149.694118 172.8 
L 150.658824 172.8 
L 153.552941 172.8 
L 154.517647 172.8 
L 155.482353 172.8 
L 156.447059 172.8 
L 157.411765 172.8 
L 158.376471 172.8 
L 159.341176 172.8 
L 160.305882 172.8 
L 161.270588 172.8 
L 162.235294 172.8 
L 163.2 172.8 
L 166.094118 172.8 
L 167.058824 172.8 
L 168.023529 172.8 
L 168.988235 172.8 
L 172.847059 172.8 
L 173.811765 172.8 
L 174.776471 172.8 
L 178.635294 172.8 
L 179.6 172.8 
L 180.564706 172.8 
L 181.529412 172.8 
L 183.458824 172.8 
L 187.317647 172.8 
L 188.282353 172.8 
L 189.247059 172.8 
L 194.070588 172.8 
L 195.035294 172.8 
L 196.964706 172.8 
L 198.894118 172.8 
L 199.858824 172.8 
L 200.823529 172.8 
L 201.788235 172.8 
L 202.752941 172.8 
L 203.717647 172.8 
L 204.682353 172.8 
L 205.647059 172.8 
L 206.611765 172.8 
L 207.576471 172.8 
L 208.541176 172.8 
L 209.505882 172.8 
L 210.470588 172.8 
L 211.435294 172.8 
L 212.4 172.8 
L 213.364706 172.8 
L 214.329412 172.8 
L 215.294118 172.8 
L 216.258824 172.8 
L 217.223529 172.8 
L 218.188235 172.8 
L 220.117647 172.8 
L 221.082353 172.8 
L 222.047059 172.8 
L 223.011765 172.8 
L 223.976471 172.8 
L 224.941176 172.8 
L 225.905882 172.8 
L 226.870588 172.8 
L 227.835294 172.8 
L 228.8 172.8 
L 229.764706 172.8 
L 230.729412 172.8 
L 231.694118 172.8 
L 232.658824 172.8 
L 233.623529 172.8 
L 234.588235 172.8 
L 235.552941 172.8 
L 236.517647 172.8 
L 237.482353 172.8 
L 238.447059 172.8 
L 239.411765 172.8 
L 240.376471 172.8 
L 241.341176 172.8 
L 242.305882 172.8 
L 243.270588 172.8 
L 244.235294 172.8 
L 245.2 172.8 
L 246.164706 172.8 
L 247.129412 172.8 
L 248.094118 172.8 
L 249.058824 172.8 
L 250.023529 172.8 
L 250.988235 172.8 
L 251.952941 172.8 
L 252.917647 172.8 
L 253.882353 172.8 
L 254.847059 172.8 
L 255.811765 172.8 
L 256.776471 172.8 
L 257.741176 172.8 
L 258.705882 172.8 
L 259.670588 172.8 
L 260.635294 172.8 
L 261.6 172.8 
L 262.564706 172.8 
L 263.529412 172.8 
L 264.494118 172.8 
L 265.458824 172.8 
L 266.423529 172.8 
L 267.388235 172.8 
L 268.352941 172.8 
L 269.317647 172.8 
L 270.282353 172.8 
L 271.247059 172.8 
L 272.211765 172.8 
L 273.176471 172.8 
L 274.141176 172.8 
L 275.105882 172.8 
L 276.070588 172.8 
L 277.035294 172.8 
L 278 172.8 
L 278.964706 172.8 
L 279.929412 172.8 
L 280.894118 172.8 
L 281.858824 172.8 
L 282.823529 172.8 
L 283.788235 172.8 
L 284.752941 172.8 
L 285.717647 172.8 
L 286.682353 172.8 
L 287.647059 172.8 
L 288.611765 172.8 
L 289.576471 172.8 
L 290.541176 172.8 
L 291.505882 172.8 
L 292.470588 172.8 
L 293.435294 172.8 
L 294.4 172.8 
L 295.364706 172.8 
L 296.329412 172.8 
L 297.294118 172.8 
L 298.258824 172.8 
L 299.223529 172.8 
L 300.188235 172.8 
L 301.152941 172.8 
L 302.117647 172.8 
L 303.082353 172.8 
L 304.047059 172.8 
L 305.011765 172.8 
L 305.976471 172.8 
L 306.941176 172.8 
L 307.905882 172.8 
L 308.870588 172.8 
L 309.835294 172.8 
L 310.8 172.8 
L 311.764706 172.8 
L 312.729412 172.8 
L 313.694118 172.8 
L 314.658824 172.8 
L 315.623529 172.8 
L 316.588235 172.8 
L 317.552941 172.8 
L 318.517647 172.8 
L 319.482353 172.8 
L 320.447059 172.8 
L 321.411765 172.8 
L 322.376471 172.8 
L 323.341176 172.8 
L 324.305882 172.8 
L 325.270588 172.8 
L 326.235294 172.8 
L 327.2 172.8 
L 328.164706 172.8 
L 329.129412 172.8 
L 330.094118 172.8 
L 331.058824 172.8 
L 332.023529 172.8 
L 332.988235 172.8 
L 333.952941 172.8 
L 334.917647 172.8 
L 335.882353 172.8 
L 336.847059 172.8 
L 337.811765 172.8 
L 338.776471 172.8 
L 339.741176 172.8 
L 340.705882 172.8 
L 341.670588 172.8 
L 342.635294 172.8 
L 343.6 172.8 
L 344.564706 172.8 
L 345.529412 172.8 
L 346.494118 172.8 
L 347.458824 172.8 
L 348.423529 172.8 
L 349.388235 172.8 
L 350.352941 172.8 
L 351.317647 172.8 
L 352.282353 172.8 
L 353.247059 172.8 
L 354.211765 172.8 
L 355.176471 172.8 
L 356.141176 172.8 
L 357.105882 172.8 
L 358.070588 172.8 
L 360 172.8 
L 360.964706 172.8 
L 361.929412 172.8 
L 362.894118 172.8 
L 363.858824 172.8 
L 364.823529 172.8 
L 365.788235 172.8 
L 366.752941 172.8 
L 367.717647 172.8 
L 368.682353 172.8 
L 369.647059 172.8 
L 370.611765 172.8 
L 371.576471 172.8 
L 372.541176 172.8 
L 373.505882 172.8 
L 374.470588 172.8 
L 375.435294 172.8 
L 376.4 172.8 
L 377.364706 172.8 
L 378.329412 172.8 
L 379.294118 172.8 
L 380.258824 172.8 
L 381.223529 172.8 
L 382.188235 172.8 
L 383.152941 172.8 
L 384.117647 172.8 
L 385.082353 172.8 
L 386.047059 172.8 
L 387.011765 172.8 
L 387.976471 172.8 
L 388.941176 172.8 
L 389.905882 172.8 
L 390.870588 172.8 
L 391.835294 172.8 
L 392.8 172.8 
L 393.764706 172.8 
L 394.729412 172.8 
L 395.694118 172.8 
L 396.658824 172.8 
L 397.623529 172.8 
L 398.588235 172.8 
L 399.552941 172.8 
L 400.517647 172.8 
L 401.482353 172.8 
L 402.447059 172.8 
L 403.411765 172.8 
L 404.376471 172.8 
L 405.341176 172.8 
L 406.305882 172.8 
L 407.270588 172.8 
L 408.235294 172.8 
L 409.2 172.8 
L 410.164706 172.8 
L 411.129412 172.8 
L 412.094118 172.8 
L 413.058824 172.8 
L 414.023529 172.8 
L 414.988235 172.8 
L 415.952941 172.8 
L 416.917647 172.8 
L 417.882353 172.8 
L 418.847059 172.8 
L 419.811765 172.8 
L 420.776471 172.8 
L 421.741176 172.8 
L 422.705882 172.8 
L 423.670588 172.8 
L 424.635294 172.8 
L 425.6 172.8 
L 426.564706 172.8 
L 427.529412 172.8 
L 428.494118 172.8 
L 429.458824 172.8 
L 430.423529 172.8 
L 431.388235 172.8 
L 432.352941 172.8 
L 433.317647 172.8 
L 434.282353 172.8 
L 435.247059 172.8 
L 436.211765 172.8 
L 437.176471 172.8 
L 438.141176 172.8 
L 439.105882 172.8 
L 440.070588 172.8 
L 441.035294 172.8 
L 442 172.8 
L 442.964706 172.8 
L 443.929412 172.8 
L 444.894118 172.8 
L 445.858824 172.8 
L 446.823529 172.8 
L 447.788235 172.8 
L 448.752941 172.8 
L 449.717647 172.8 
L 450.682353 172.8 
L 451.647059 172.8 
L 452.611765 172.8 
L 453.576471 172.8 
L 454.541176 172.8 
L 455.505882 172.8 
L 456.470588 172.8 
L 457.435294 172.8 
L 458.4 172.8 
L 459.364706 172.8 
L 460.329412 172.8 
L 461.294118 172.8 
L 462.258824 172.8 
L 463.223529 172.8 
L 464.188235 172.8 
L 465.152941 172.8 
L 466.117647 172.8 
L 467.082353 172.8 
L 468.047059 172.8 
L 469.011765 172.8 
L 469.976471 172.8 
L 470.941176 172.8 
L 471.905882 172.8 
L 472.870588 172.8 
L 473.835294 172.8 
L 474.8 172.8 
L 475.764706 172.8 
L 476.729412 172.8 
L 477.694118 172.8 
L 478.658824 172.8 
L 479.623529 172.8 
L 480.588235 172.8 
L 481.552941 172.8 
L 482.517647 172.8 
L 483.482353 172.8 
L 484.447059 172.8 
L 485.411765 172.8 
L 486.376471 172.8 
L 487.341176 172.8 
L 488.305882 172.8 
L 489.270588 172.8 
L 490.235294 172.8 
L 491.2 172.8 
L 492.164706 172.8 
L 493.129412 172.8 
L 494.094118 172.8 
L 495.058824 172.8 
L 496.988235 172.8 
L 497.952941 172.8 
L 498.917647 172.8 
L 499.882353 172.8 
L 500.847059 172.8 
L 501.811765 172.8 
L 502.776471 172.8 
L 503.741176 172.8 
L 504.705882 172.8 
L 505.670588 172.8 
L 506.635294 172.8 
L 507.6 172.8 
L 508.564706 172.8 
L 510.494118 172.8 
L 511.458824 172.8 
L 512.423529 172.8 
L 513.388235 172.8 
L 514.352941 172.8 
L 516.282353 172.8 
L 517.247059 172.8 
L 518.211765 172.8 
L 519.176471 172.8 
L 520.141176 172.8 
L 521.105882 172.8 
L 523.035294 172.8 
L 524 172.8 
L 524.964706 172.8 
L 525.929412 172.8 
L 526.894118 172.8 
L 527.858824 172.8 
L 528.823529 172.8 
L 529.788235 172.8 
L 530.752941 172.8 
L 531.717647 172.8 
L 532.682353 172.8 
L 533.647059 172.8 
L 534.611765 172.8 
L 535.576471 172.8 
L 536.541176 172.8 
L 537.505882 172.8 
L 538.470588 172.8 
L 539.435294 172.8 
L 540.4 172.8 
L 541.364706 172.8 
L 542.329412 172.8 
L 543.294118 172.8 
L 544.258824 172.8 
L 545.223529 172.8 
L 546.188235 172.8 
L 547.152941 172.8 
L 548.117647 172.8 
L 550.047059 172.8 
L 551.011765 172.8 
L 551.976471 172.8 
L 552.941176 172.8 
L 553.905882 172.8 
L 554.870588 172.8 
L 555.835294 172.8 
L 556.8 172.8 
L 557.764706 172.8 
L 558.729412 172.8 
L 559.694118 172.8 
L 560.658824 172.8 
L 561.623529 172.8 
L 562.588235 172.8 
L 563.552941 172.8 
L 564.517647 172.8 
L 565.482353 172.8 
L 566.447059 172.8 
L 567.411765 172.8 
L 568.376471 172.8 
L 569.341176 172.8 
L 570.305882 172.8 
L 571.270588 172.8 
L 572.235294 172.8 
L 573.2 172.8 
L 574.164706 172.8 
L 575.129412 172.8 
L 576.094118 172.8 
L 577.058824 172.8 
L 578.023529 172.8 
L 578.988235 172.8 
L 579.952941 172.8 
L 580.917647 172.8 
L 581.882353 172.8 
L 582.847059 172.8 
L 583.811765 172.8 
L 584.776471 172.8 
L 585.741176 172.8 
L 586.705882 172.8 
L 587.670588 172.8 
L 588.635294 172.8 
L 589.6 172.8 
L 590.564706 172.8 
L 591.529412 172.8 
L 592.494118 172.8 
L 593.458824 172.8 
L 594.423529 172.8 
L 595.388235 172.8 
L 596.352941 172.8 
L 597.317647 172.8 
L 598.282353 172.8 
L 599.247059 172.8 
L 600.211765 172.8 
L 601.176471 172.8 
L 602.141176 172.8 
L 603.105882 172.8 
L 604.070588 172.8 
L 605.035294 172.8 
L 606 172.8 
L 606.964706 172.8 
L 607.929412 172.8 
L 608.894118 172.8 
L 609.858824 172.8 
L 610.823529 172.8 
L 611.788235 172.8 
L 612.752941 172.8 
L 613.717647 172.8 
L 614.682353 172.8 
L 615.647059 172.8 
L 616.611765 172.8 
L 617.576471 172.8 
L 618.541176 172.8 
L 619.505882 172.8 
L 620.470588 172.8 
L 621.435294 172.8 
L 622.4 172.8 
L 623.364706 172.8 
L 624.329412 172.8 
L 625.294118 172.8 
L 626.258824 172.8 
L 627.223529 172.8 
L 628.188235 172.8 
L 629.152941 172.8 
L 630.117647 172.8 
L 631.082353 172.8 
L 632.047059 172.8 
L 633.011765 172.8 
L 633.976471 172.8 
L 634.941176 172.8 
L 635.905882 172.8 
L 636.870588 172.8 
L 637.835294 172.8 
L 638.8 172.8 
L 639.764706 172.8 
L 640.729412 172.8 
L 641.694118 172.8 
L 642.658824 172.8 
L 643.623529 172.8 
L 644.588235 172.8 
L 645.552941 172.8 
L 646.517647 172.8 
L 646.517647 172.8 
L 646.517647 85.697791 
L 645.552941 100.870031 
L 644.588235 109.347603 
L 643.623529 105.437158 
L 642.658824 99.034634 
L 641.694118 66.043116 
L 640.729412 106.859304 
L 639.764706 121.634851 
L 638.8 114.72597 
L 637.835294 124.167231 
L 636.870588 128.398987 
L 635.905882 122.756545 
L 634.941176 140.067209 
L 633.976471 129.42837 
L 633.011765 145.948947 
L 632.047059 144.7797 
L 631.082353 138.343168 
L 630.117647 144.825335 
L 629.152941 144.842546 
L 628.188235 142.898979 
L 627.223529 141.300952 
L 626.258824 157.794354 
L 625.294118 152.384637 
L 624.329412 151.494358 
L 623.364706 139.339275 
L 622.4 162.924932 
L 621.435294 163.84871 
L 620.470588 164.618331 
L 619.505882 160.735574 
L 618.541176 160.931326 
L 617.576471 165.495283 
L 616.611765 165.526276 
L 615.647059 164.880385 
L 614.682353 165.767747 
L 613.717647 161.531659 
L 612.752941 159.168248 
L 611.788235 158.010865 
L 610.823529 159.612778 
L 609.858824 159.67445 
L 608.894118 156.159128 
L 607.929412 158.942779 
L 606.964706 159.600245 
L 606 158.557057 
L 605.035294 154.614238 
L 604.070588 156.040338 
L 603.105882 154.075736 
L 602.141176 155.497653 
L 601.176471 152.587899 
L 600.211765 159.071893 
L 599.247059 158.314133 
L 598.282353 156.48511 
L 597.317647 151.198208 
L 596.352941 156.308147 
L 595.388235 140.121152 
L 594.423529 143.77803 
L 593.458824 153.051534 
L 592.494118 154.038195 
L 591.529412 113.673352 
L 590.564706 126.552328 
L 589.6 86.555518 
L 588.635294 91.367181 
L 587.670588 105.362619 
L 586.705882 110.946525 
L 585.741176 112.114865 
L 584.776471 67.483907 
L 583.811765 109.565735 
L 582.847059 99.673739 
L 581.882353 118.011793 
L 580.917647 133.57501 
L 579.952941 96.914461 
L 578.988235 100.590619 
L 578.023529 117.063487 
L 577.058824 103.97465 
L 576.094118 128.231253 
L 575.129412 120.401284 
L 574.164706 133.881418 
L 573.2 118.374431 
L 572.235294 118.544303 
L 571.270588 113.231311 
L 570.305882 94.393136 
L 569.341176 100.809521 
L 568.376471 116.982749 
L 567.411765 122.566281 
L 566.447059 117.939511 
L 565.482353 128.276341 
L 564.517647 124.907374 
L 563.552941 124.049843 
L 562.588235 99.893438 
L 561.623529 141.761223 
L 560.658824 150.067636 
L 559.694118 140.83913 
L 558.729412 131.634992 
L 557.764706 105.298774 
L 556.8 96.246388 
L 555.835294 112.877385 
L 554.870588 117.094011 
L 553.905882 118.679378 
L 552.941176 128.586543 
L 551.976471 112.395215 
L 551.011765 129.273481 
L 550.047059 135.748475 
L 548.117647 69.624428 
L 547.152941 86.109646 
L 546.188235 115.620374 
L 545.223529 120.083676 
L 544.258824 107.106826 
L 543.294118 113.775038 
L 542.329412 131.657997 
L 541.364706 133.732477 
L 540.4 152.113281 
L 539.435294 158.278977 
L 538.470588 154.895313 
L 537.505882 132.472614 
L 536.541176 165.203222 
L 535.576471 162.865835 
L 534.611765 165.044743 
L 533.647059 161.123898 
L 532.682353 157.473302 
L 531.717647 159.381456 
L 530.752941 149.038951 
L 529.788235 162.578342 
L 528.823529 166.706488 
L 527.858824 164.762485 
L 526.894118 163.466462 
L 525.929412 166.407872 
L 524.964706 160.647305 
L 524 165.344461 
L 523.035294 166.932537 
L 521.105882 164.907603 
L 520.141176 166.048249 
L 519.176471 158.564879 
L 518.211765 165.651949 
L 517.247059 163.719222 
L 516.282353 152.601763 
L 514.352941 166.231205 
L 513.388235 158.369958 
L 512.423529 164.721914 
L 511.458824 165.454857 
L 510.494118 156.943142 
L 508.564706 154.317977 
L 507.6 161.941118 
L 506.635294 153.307665 
L 505.670588 150.072919 
L 504.705882 155.840308 
L 503.741176 143.823819 
L 502.776471 159.958058 
L 501.811765 157.182068 
L 500.847059 160.724644 
L 499.882353 150.87697 
L 498.917647 146.072729 
L 497.952941 147.623725 
L 496.988235 156.278739 
L 495.058824 160.980164 
L 494.094118 159.296892 
L 493.129412 144.976202 
L 492.164706 147.069589 
L 491.2 142.240589 
L 490.235294 150.254818 
L 489.270588 158.486605 
L 488.305882 144.83535 
L 487.341176 135.026605 
L 486.376471 137.38719 
L 485.411765 140.765368 
L 484.447059 145.787135 
L 483.482353 108.75472 
L 482.517647 103.262195 
L 481.552941 115.853748 
L 480.588235 141.745611 
L 479.623529 127.974218 
L 478.658824 114.265223 
L 477.694118 139.502399 
L 476.729412 143.86213 
L 475.764706 158.802785 
L 474.8 153.367031 
L 473.835294 115.730656 
L 472.870588 135.551623 
L 471.905882 140.78195 
L 470.941176 121.148949 
L 469.976471 133.51249 
L 469.011765 130.091271 
L 468.047059 135.880988 
L 467.082353 147.345678 
L 466.117647 147.358762 
L 465.152941 137.245478 
L 464.188235 138.463304 
L 463.223529 127.871112 
L 462.258824 109.999958 
L 461.294118 143.626176 
L 460.329412 145.033573 
L 459.364706 148.298329 
L 458.4 131.582982 
L 457.435294 142.220105 
L 456.470588 137.02193 
L 455.505882 100.001389 
L 454.541176 134.666472 
L 453.576471 148.856339 
L 452.611765 123.085239 
L 451.647059 123.289084 
L 450.682353 134.702381 
L 449.717647 144.519171 
L 448.752941 142.299816 
L 447.788235 137.706486 
L 446.823529 136.594829 
L 445.858824 146.560704 
L 444.894118 138.886122 
L 443.929412 139.429368 
L 442.964706 132.664801 
L 442 141.618189 
L 441.035294 122.583908 
L 440.070588 144.576796 
L 439.105882 133.395371 
L 438.141176 137.273546 
L 437.176471 137.452636 
L 436.211765 94.154465 
L 435.247059 149.836529 
L 434.282353 146.658218 
L 433.317647 144.203056 
L 432.352941 153.593226 
L 431.388235 131.990137 
L 430.423529 150.482938 
L 429.458824 146.062586 
L 428.494118 138.270488 
L 427.529412 140.474265 
L 426.564706 136.173656 
L 425.6 145.561687 
L 424.635294 145.824078 
L 423.670588 134.917762 
L 422.705882 136.10468 
L 421.741176 135.503673 
L 420.776471 143.411868 
L 419.811765 140.431129 
L 418.847059 149.631861 
L 417.882353 144.98062 
L 416.917647 152.134888 
L 415.952941 152.822361 
L 414.988235 107.094418 
L 414.023529 150.107848 
L 413.058824 155.110677 
L 412.094118 147.417759 
L 411.129412 134.378601 
L 410.164706 123.736466 
L 409.2 94.452958 
L 408.235294 122.0091 
L 407.270588 119.619045 
L 406.305882 121.188999 
L 405.341176 136.746587 
L 404.376471 126.434458 
L 403.411765 98.953126 
L 402.447059 132.435553 
L 401.482353 143.631971 
L 400.517647 133.624532 
L 399.552941 131.986887 
L 398.588235 145.900622 
L 397.623529 103.401331 
L 396.658824 140.75296 
L 395.694118 156.623379 
L 394.729412 115.693219 
L 393.764706 152.467855 
L 392.8 136.724621 
L 391.835294 127.879979 
L 390.870588 110.949963 
L 389.905882 138.956931 
L 388.941176 141.070653 
L 387.976471 129.142211 
L 387.011765 15.68914 
L 386.047059 112.51842 
L 385.082353 118.917676 
L 384.117647 122.463782 
L 383.152941 116.446134 
L 382.188235 123.321199 
L 381.223529 128.227239 
L 380.258824 120.804109 
L 379.294118 114.072468 
L 378.329412 119.903631 
L 377.364706 70.994361 
L 376.4 126.808136 
L 375.435294 95.85818 
L 374.470588 119.417674 
L 373.505882 118.310906 
L 372.541176 138.198319 
L 371.576471 118.67097 
L 370.611765 100.435639 
L 369.647059 102.553918 
L 368.682353 139.020652 
L 367.717647 143.226033 
L 366.752941 134.632717 
L 365.788235 94.712823 
L 364.823529 141.289227 
L 363.858824 136.54924 
L 362.894118 128.651177 
L 361.929412 142.366857 
L 360.964706 142.144416 
L 360 148.582004 
L 358.070588 150.301365 
L 357.105882 124.130691 
L 356.141176 148.462833 
L 355.176471 109.27937 
L 354.211765 137.513423 
L 353.247059 110.618042 
L 352.282353 157.079793 
L 351.317647 83.438886 
L 350.352941 111.983864 
L 349.388235 73.103404 
L 348.423529 133.429368 
L 347.458824 141.10212 
L 346.494118 126.848849 
L 345.529412 131.986563 
L 344.564706 120.910297 
L 343.6 111.682523 
L 342.635294 98.98178 
L 341.670588 126.490178 
L 340.705882 127.436698 
L 339.741176 134.070279 
L 338.776471 144.533673 
L 337.811765 131.680919 
L 336.847059 150.393015 
L 335.882353 145.27843 
L 334.917647 139.303238 
L 333.952941 155.751244 
L 332.988235 154.233212 
L 332.023529 134.665619 
L 331.058824 150.45322 
L 330.094118 133.204493 
L 329.129412 112.441861 
L 328.164706 145.385705 
L 327.2 149.906995 
L 326.235294 140.872564 
L 325.270588 154.759042 
L 324.305882 158.325885 
L 323.341176 122.986544 
L 322.376471 151.408339 
L 321.411765 133.081133 
L 320.447059 150.505132 
L 319.482353 140.557451 
L 318.517647 148.638725 
L 317.552941 150.043084 
L 316.588235 135.317912 
L 315.623529 130.896421 
L 314.658824 44.19538 
L 313.694118 48.314342 
L 312.729412 38.95911 
L 311.764706 120.178486 
L 310.8 127.942063 
L 309.835294 127.312337 
L 308.870588 112.150758 
L 307.905882 55.100107 
L 306.941176 90.109583 
L 305.976471 105.917867 
L 305.011765 118.047033 
L 304.047059 144.181423 
L 303.082353 133.659635 
L 302.117647 131.180264 
L 301.152941 77.76794 
L 300.188235 62.971903 
L 299.223529 124.882684 
L 298.258824 89.662709 
L 297.294118 10.998351 
L 296.329412 42.325429 
L 295.364706 119.37907 
L 294.4 60.147391 
L 293.435294 113.670515 
L 292.470588 114.579916 
L 291.505882 139.850619 
L 290.541176 -22.688593 
L 289.576471 97.161943 
L 288.611765 124.559148 
L 287.647059 92.778764 
L 286.682353 116.281461 
L 285.717647 84.918277 
L 284.752941 138.007466 
L 283.788235 124.430258 
L 282.823529 136.678603 
L 281.858824 136.124384 
L 280.894118 61.256752 
L 279.929412 63.072952 
L 278.964706 104.374328 
L 278 107.505785 
L 277.035294 105.39117 
L 276.070588 115.175898 
L 275.105882 115.176844 
L 274.141176 138.169581 
L 273.176471 127.208149 
L 272.211765 137.472289 
L 271.247059 130.374689 
L 270.282353 149.408029 
L 269.317647 142.902446 
L 268.352941 135.045974 
L 267.388235 130.120766 
L 266.423529 139.469932 
L 265.458824 162.340975 
L 264.494118 153.586375 
L 263.529412 156.791303 
L 262.564706 153.243879 
L 261.6 162.158385 
L 260.635294 154.781233 
L 259.670588 158.549592 
L 258.705882 161.632101 
L 257.741176 159.761953 
L 256.776471 160.107711 
L 255.811765 165.527424 
L 254.847059 154.794115 
L 253.882353 163.750219 
L 252.917647 165.2287 
L 251.952941 164.851437 
L 250.988235 161.646779 
L 250.023529 159.606196 
L 249.058824 162.994352 
L 248.094118 161.883705 
L 247.129412 149.381088 
L 246.164706 164.428987 
L 245.2 159.888726 
L 244.235294 166.563039 
L 243.270588 166.534956 
L 242.305882 167.354906 
L 241.341176 165.740164 
L 240.376471 165.395173 
L 239.411765 164.825302 
L 238.447059 161.830637 
L 237.482353 168.346235 
L 236.517647 164.500286 
L 235.552941 163.345375 
L 234.588235 160.25679 
L 233.623529 147.864797 
L 232.658824 157.254084 
L 231.694118 159.035512 
L 230.729412 159.196279 
L 229.764706 165.409017 
L 228.8 155.121236 
L 227.835294 158.398205 
L 226.870588 163.285903 
L 225.905882 163.806139 
L 224.941176 142.402059 
L 223.976471 152.048592 
L 223.011765 166.735444 
L 222.047059 156.342563 
L 221.082353 161.919325 
L 220.117647 159.86404 
L 218.188235 167.582633 
L 217.223529 170.608903 
L 216.258824 167.929001 
L 215.294118 156.555167 
L 214.329412 133.564508 
L 213.364706 135.992416 
L 212.4 163.81682 
L 211.435294 162.799855 
L 210.470588 166.723629 
L 209.505882 158.481092 
L 208.541176 165.012991 
L 207.576471 153.975685 
L 206.611765 158.265335 
L 205.647059 142.900343 
L 204.682353 166.826596 
L 203.717647 150.345553 
L 202.752941 169.497674 
L 201.788235 143.506905 
L 200.823529 167.883728 
L 199.858824 164.754609 
L 198.894118 169.502519 
L 196.964706 163.177544 
L 195.035294 169.337268 
L 194.070588 168.942674 
L 189.247059 165.412106 
L 188.282353 168.689792 
L 187.317647 167.50154 
L 183.458824 166.851581 
L 181.529412 172.116684 
L 180.564706 168.718239 
L 179.6 166.636881 
L 178.635294 164.008619 
L 174.776471 169.955907 
L 173.811765 171.573335 
L 172.847059 167.091582 
L 168.988235 169.716459 
L 168.023529 167.099412 
L 167.058824 169.626374 
L 166.094118 164.571721 
L 163.2 162.565527 
L 162.235294 166.791262 
L 161.270588 168.882955 
L 160.305882 166.818012 
L 159.341176 171.120596 
L 158.376471 171.433588 
L 157.411765 166.078253 
L 156.447059 162.127068 
L 155.482353 163.34801 
L 154.517647 162.074622 
L 153.552941 160.42577 
L 150.658824 171.558047 
L 149.694118 171.453746 
L 148.729412 148.37656 
L 147.764706 165.654567 
L 146.8 165.270275 
L 145.835294 152.138744 
L 144.870588 171.059039 
L 143.905882 165.212548 
L 142.941176 151.928567 
L 141.976471 170.630847 
L 141.011765 163.842436 
L 140.047059 166.665581 
L 139.082353 165.107521 
L 138.117647 171.311531 
L 137.152941 166.334267 
L 135.223529 168.424196 
L 134.258824 169.840436 
L 133.294118 165.242075 
L 132.329412 164.105759 
L 131.364706 167.329548 
L 129.435294 158.454184 
L 128.470588 164.529101 
L 127.505882 161.97235 
L 125.576471 163.500264 
L 123.647059 169.278365 
L 122.682353 164.882408 
L 121.717647 163.086795 
L 120.752941 157.206963 
L 119.788235 159.025131 
L 118.823529 166.781834 
L 115.929412 75.409234 
L 114.964706 150.171596 
L 114 165.826859 
L 113.035294 164.679645 
L 112.070588 163.82511 
L 110.141176 171.94407 
L 109.176471 158.326398 
L 108.211765 155.862477 
L 107.247059 165.54048 
L 106.282353 128.572481 
L 103.388235 149.722086 
L 102.423529 119.760025 
L 101.458824 125.072419 
L 100.494118 143.832365 
L 99.529412 101.506725 
L 98.564706 106.895652 
L 95.670588 110.557719 
L 94.705882 125.090338 
L 93.741176 146.064542 
L 92.776471 116.734235 
z
" style="fill:#008000;fill-opacity:0.3;"/>
   </g>
   <g id="matplotlib.axis_1">
    <g id="xtick_1">
     <g id="line2d_1">
      <path clip-path="url(#p1d1f572f47)" d="M 64.8 172.8 
L 64.8 25.92 
" style="fill:none;stroke:#808080;stroke-dasharray:6.4,1.6,1,1.6;stroke-dashoffset:0;stroke-opacity:0.3;"/>
     </g>
     <g id="line2d_2">
      <defs>
       <path d="M 0 0 
L 0 3.5 
" id="m3c7fb010bd" style="stroke:#000000;stroke-width:0.8;"/>
      </defs>
      <g>
       <use style="stroke:#000000;stroke-width:0.8;" x="64.8" xlink:href="#m3c7fb010bd" y="172.8"/>
      </g>
     </g>
     <g id="text_1">
      <!-- 2020-03 -->
      <g transform="translate(43.908594 187.398438)scale(0.1 -0.1)">
       <defs>
        <path d="M 19.1875 8.296875 
L 53.609375 8.296875 
L 53.609375 0 
L 7.328125 0 
L 7.328125 8.296875 
Q 12.9375 14.109375 22.625 23.890625 
Q 32.328125 33.6875 34.8125 36.53125 
Q 39.546875 41.84375 41.421875 45.53125 
Q 43.3125 49.21875 43.3125 52.78125 
Q 43.3125 58.59375 39.234375 62.25 
Q 35.15625 65.921875 28.609375 65.921875 
Q 23.96875 65.921875 18.8125 64.3125 
Q 13.671875 62.703125 7.8125 59.421875 
L 7.8125 69.390625 
Q 13.765625 71.78125 18.9375 73 
Q 24.125 74.21875 28.421875 74.21875 
Q 39.75 74.21875 46.484375 68.546875 
Q 53.21875 62.890625 53.21875 53.421875 
Q 53.21875 48.921875 51.53125 44.890625 
Q 49.859375 40.875 45.40625 35.40625 
Q 44.1875 33.984375 37.640625 27.21875 
Q 31.109375 20.453125 19.1875 8.296875 
z
" id="DejaVuSans-50"/>
        <path d="M 31.78125 66.40625 
Q 24.171875 66.40625 20.328125 58.90625 
Q 16.5 51.421875 16.5 36.375 
Q 16.5 21.390625 20.328125 13.890625 
Q 24.171875 6.390625 31.78125 6.390625 
Q 39.453125 6.390625 43.28125 13.890625 
Q 47.125 21.390625 47.125 36.375 
Q 47.125 51.421875 43.28125 58.90625 
Q 39.453125 66.40625 31.78125 66.40625 
z
M 31.78125 74.21875 
Q 44.046875 74.21875 50.515625 64.515625 
Q 56.984375 54.828125 56.984375 36.375 
Q 56.984375 17.96875 50.515625 8.265625 
Q 44.046875 -1.421875 31.78125 -1.421875 
Q 19.53125 -1.421875 13.0625 8.265625 
Q 6.59375 17.96875 6.59375 36.375 
Q 6.59375 54.828125 13.0625 64.515625 
Q 19.53125 74.21875 31.78125 74.21875 
z
" id="DejaVuSans-48"/>
        <path d="M 4.890625 31.390625 
L 31.203125 31.390625 
L 31.203125 23.390625 
L 4.890625 23.390625 
z
" id="DejaVuSans-45"/>
        <path d="M 40.578125 39.3125 
Q 47.65625 37.796875 51.625 33 
Q 55.609375 28.21875 55.609375 21.1875 
Q 55.609375 10.40625 48.1875 4.484375 
Q 40.765625 -1.421875 27.09375 -1.421875 
Q 22.515625 -1.421875 17.65625 -0.515625 
Q 12.796875 0.390625 7.625 2.203125 
L 7.625 11.71875 
Q 11.71875 9.328125 16.59375 8.109375 
Q 21.484375 6.890625 26.8125 6.890625 
Q 36.078125 6.890625 40.9375 10.546875 
Q 45.796875 14.203125 45.796875 21.1875 
Q 45.796875 27.640625 41.28125 31.265625 
Q 36.765625 34.90625 28.71875 34.90625 
L 20.21875 34.90625 
L 20.21875 43.015625 
L 29.109375 43.015625 
Q 36.375 43.015625 40.234375 45.921875 
Q 44.09375 48.828125 44.09375 54.296875 
Q 44.09375 59.90625 40.109375 62.90625 
Q 36.140625 65.921875 28.71875 65.921875 
Q 24.65625 65.921875 20.015625 65.03125 
Q 15.375 64.15625 9.8125 62.3125 
L 9.8125 71.09375 
Q 15.4375 72.65625 20.34375 73.4375 
Q 25.25 74.21875 29.59375 74.21875 
Q 40.828125 74.21875 47.359375 69.109375 
Q 53.90625 64.015625 53.90625 55.328125 
Q 53.90625 49.265625 50.4375 45.09375 
Q 46.96875 40.921875 40.578125 39.3125 
z
" id="DejaVuSans-51"/>
       </defs>
       <use xlink:href="#DejaVuSans-50"/>
       <use x="63.623047" xlink:href="#DejaVuSans-48"/>
       <use x="127.246094" xlink:href="#DejaVuSans-50"/>
       <use x="190.869141" xlink:href="#DejaVuSans-48"/>
       <use x="254.492188" xlink:href="#DejaVuSans-45"/>
       <use x="290.576172" xlink:href="#DejaVuSans-48"/>
       <use x="354.199219" xlink:href="#DejaVuSans-51"/>
      </g>
     </g>
    </g>
    <g id="xtick_2">
     <g id="line2d_3">
      <path clip-path="url(#p1d1f572f47)" d="M 123.647059 172.8 
L 123.647059 25.92 
" style="fill:none;stroke:#808080;stroke-dasharray:6.4,1.6,1,1.6;stroke-dashoffset:0;stroke-opacity:0.3;"/>
     </g>
     <g id="line2d_4">
      <g>
       <use style="stroke:#000000;stroke-width:0.8;" x="123.647059" xlink:href="#m3c7fb010bd" y="172.8"/>
      </g>
     </g>
     <g id="text_2">
      <!-- 2020-05 -->
      <g transform="translate(102.755653 187.398438)scale(0.1 -0.1)">
       <defs>
        <path d="M 10.796875 72.90625 
L 49.515625 72.90625 
L 49.515625 64.59375 
L 19.828125 64.59375 
L 19.828125 46.734375 
Q 21.96875 47.46875 24.109375 47.828125 
Q 26.265625 48.1875 28.421875 48.1875 
Q 40.625 48.1875 47.75 41.5 
Q 54.890625 34.8125 54.890625 23.390625 
Q 54.890625 11.625 47.5625 5.09375 
Q 40.234375 -1.421875 26.90625 -1.421875 
Q 22.3125 -1.421875 17.546875 -0.640625 
Q 12.796875 0.140625 7.71875 1.703125 
L 7.71875 11.625 
Q 12.109375 9.234375 16.796875 8.0625 
Q 21.484375 6.890625 26.703125 6.890625 
Q 35.15625 6.890625 40.078125 11.328125 
Q 45.015625 15.765625 45.015625 23.390625 
Q 45.015625 31 40.078125 35.4375 
Q 35.15625 39.890625 26.703125 39.890625 
Q 22.75 39.890625 18.8125 39.015625 
Q 14.890625 38.140625 10.796875 36.28125 
z
" id="DejaVuSans-53"/>
       </defs>
       <use xlink:href="#DejaVuSans-50"/>
       <use x="63.623047" xlink:href="#DejaVuSans-48"/>
       <use x="127.246094" xlink:href="#DejaVuSans-50"/>
       <use x="190.869141" xlink:href="#DejaVuSans-48"/>
       <use x="254.492188" xlink:href="#DejaVuSans-45"/>
       <use x="290.576172" xlink:href="#DejaVuSans-48"/>
       <use x="354.199219" xlink:href="#DejaVuSans-53"/>
      </g>
     </g>
    </g>
    <g id="xtick_3">
     <g id="line2d_5">
      <path clip-path="url(#p1d1f572f47)" d="M 182.494118 172.8 
L 182.494118 25.92 
" style="fill:none;stroke:#808080;stroke-dasharray:6.4,1.6,1,1.6;stroke-dashoffset:0;stroke-opacity:0.3;"/>
     </g>
     <g id="line2d_6">
      <g>
       <use style="stroke:#000000;stroke-width:0.8;" x="182.494118" xlink:href="#m3c7fb010bd" y="172.8"/>
      </g>
     </g>
     <g id="text_3">
      <!-- 2020-07 -->
      <g transform="translate(161.602711 187.398438)scale(0.1 -0.1)">
       <defs>
        <path d="M 8.203125 72.90625 
L 55.078125 72.90625 
L 55.078125 68.703125 
L 28.609375 0 
L 18.3125 0 
L 43.21875 64.59375 
L 8.203125 64.59375 
z
" id="DejaVuSans-55"/>
       </defs>
       <use xlink:href="#DejaVuSans-50"/>
       <use x="63.623047" xlink:href="#DejaVuSans-48"/>
       <use x="127.246094" xlink:href="#DejaVuSans-50"/>
       <use x="190.869141" xlink:href="#DejaVuSans-48"/>
       <use x="254.492188" xlink:href="#DejaVuSans-45"/>
       <use x="290.576172" xlink:href="#DejaVuSans-48"/>
       <use x="354.199219" xlink:href="#DejaVuSans-55"/>
      </g>
     </g>
    </g>
    <g id="xtick_4">
     <g id="line2d_7">
      <path clip-path="url(#p1d1f572f47)" d="M 242.305882 172.8 
L 242.305882 25.92 
" style="fill:none;stroke:#808080;stroke-dasharray:6.4,1.6,1,1.6;stroke-dashoffset:0;stroke-opacity:0.3;"/>
     </g>
     <g id="line2d_8">
      <g>
       <use style="stroke:#000000;stroke-width:0.8;" x="242.305882" xlink:href="#m3c7fb010bd" y="172.8"/>
      </g>
     </g>
     <g id="text_4">
      <!-- 2020-09 -->
      <g transform="translate(221.414476 187.398438)scale(0.1 -0.1)">
       <defs>
        <path d="M 10.984375 1.515625 
L 10.984375 10.5 
Q 14.703125 8.734375 18.5 7.8125 
Q 22.3125 6.890625 25.984375 6.890625 
Q 35.75 6.890625 40.890625 13.453125 
Q 46.046875 20.015625 46.78125 33.40625 
Q 43.953125 29.203125 39.59375 26.953125 
Q 35.25 24.703125 29.984375 24.703125 
Q 19.046875 24.703125 12.671875 31.3125 
Q 6.296875 37.9375 6.296875 49.421875 
Q 6.296875 60.640625 12.9375 67.421875 
Q 19.578125 74.21875 30.609375 74.21875 
Q 43.265625 74.21875 49.921875 64.515625 
Q 56.59375 54.828125 56.59375 36.375 
Q 56.59375 19.140625 48.40625 8.859375 
Q 40.234375 -1.421875 26.421875 -1.421875 
Q 22.703125 -1.421875 18.890625 -0.6875 
Q 15.09375 0.046875 10.984375 1.515625 
z
M 30.609375 32.421875 
Q 37.25 32.421875 41.125 36.953125 
Q 45.015625 41.5 45.015625 49.421875 
Q 45.015625 57.28125 41.125 61.84375 
Q 37.25 66.40625 30.609375 66.40625 
Q 23.96875 66.40625 20.09375 61.84375 
Q 16.21875 57.28125 16.21875 49.421875 
Q 16.21875 41.5 20.09375 36.953125 
Q 23.96875 32.421875 30.609375 32.421875 
z
" id="DejaVuSans-57"/>
       </defs>
       <use xlink:href="#DejaVuSans-50"/>
       <use x="63.623047" xlink:href="#DejaVuSans-48"/>
       <use x="127.246094" xlink:href="#DejaVuSans-50"/>
       <use x="190.869141" xlink:href="#DejaVuSans-48"/>
       <use x="254.492188" xlink:href="#DejaVuSans-45"/>
       <use x="290.576172" xlink:href="#DejaVuSans-48"/>
       <use x="354.199219" xlink:href="#DejaVuSans-57"/>
      </g>
     </g>
    </g>
    <g id="xtick_5">
     <g id="line2d_9">
      <path clip-path="url(#p1d1f572f47)" d="M 301.152941 172.8 
L 301.152941 25.92 
" style="fill:none;stroke:#808080;stroke-dasharray:6.4,1.6,1,1.6;stroke-dashoffset:0;stroke-opacity:0.3;"/>
     </g>
     <g id="line2d_10">
      <g>
       <use style="stroke:#000000;stroke-width:0.8;" x="301.152941" xlink:href="#m3c7fb010bd" y="172.8"/>
      </g>
     </g>
     <g id="text_5">
      <!-- 2020-11 -->
      <g transform="translate(280.261535 187.398438)scale(0.1 -0.1)">
       <defs>
        <path d="M 12.40625 8.296875 
L 28.515625 8.296875 
L 28.515625 63.921875 
L 10.984375 60.40625 
L 10.984375 69.390625 
L 28.421875 72.90625 
L 38.28125 72.90625 
L 38.28125 8.296875 
L 54.390625 8.296875 
L 54.390625 0 
L 12.40625 0 
z
" id="DejaVuSans-49"/>
       </defs>
       <use xlink:href="#DejaVuSans-50"/>
       <use x="63.623047" xlink:href="#DejaVuSans-48"/>
       <use x="127.246094" xlink:href="#DejaVuSans-50"/>
       <use x="190.869141" xlink:href="#DejaVuSans-48"/>
       <use x="254.492188" xlink:href="#DejaVuSans-45"/>
       <use x="290.576172" xlink:href="#DejaVuSans-49"/>
       <use x="354.199219" xlink:href="#DejaVuSans-49"/>
      </g>
     </g>
    </g>
    <g id="xtick_6">
     <g id="line2d_11">
      <path clip-path="url(#p1d1f572f47)" d="M 360 172.8 
L 360 25.92 
" style="fill:none;stroke:#808080;stroke-dasharray:6.4,1.6,1,1.6;stroke-dashoffset:0;stroke-opacity:0.3;"/>
     </g>
     <g id="line2d_12">
      <g>
       <use style="stroke:#000000;stroke-width:0.8;" x="360" xlink:href="#m3c7fb010bd" y="172.8"/>
      </g>
     </g>
     <g id="text_6">
      <!-- 2021-01 -->
      <g transform="translate(339.108594 187.398438)scale(0.1 -0.1)">
       <use xlink:href="#DejaVuSans-50"/>
       <use x="63.623047" xlink:href="#DejaVuSans-48"/>
       <use x="127.246094" xlink:href="#DejaVuSans-50"/>
       <use x="190.869141" xlink:href="#DejaVuSans-49"/>
       <use x="254.492188" xlink:href="#DejaVuSans-45"/>
       <use x="290.576172" xlink:href="#DejaVuSans-48"/>
       <use x="354.199219" xlink:href="#DejaVuSans-49"/>
      </g>
     </g>
    </g>
    <g id="xtick_7">
     <g id="line2d_13">
      <path clip-path="url(#p1d1f572f47)" d="M 416.917647 172.8 
L 416.917647 25.92 
" style="fill:none;stroke:#808080;stroke-dasharray:6.4,1.6,1,1.6;stroke-dashoffset:0;stroke-opacity:0.3;"/>
     </g>
     <g id="line2d_14">
      <g>
       <use style="stroke:#000000;stroke-width:0.8;" x="416.917647" xlink:href="#m3c7fb010bd" y="172.8"/>
      </g>
     </g>
     <g id="text_7">
      <!-- 2021-03 -->
      <g transform="translate(396.026241 187.398438)scale(0.1 -0.1)">
       <use xlink:href="#DejaVuSans-50"/>
       <use x="63.623047" xlink:href="#DejaVuSans-48"/>
       <use x="127.246094" xlink:href="#DejaVuSans-50"/>
       <use x="190.869141" xlink:href="#DejaVuSans-49"/>
       <use x="254.492188" xlink:href="#DejaVuSans-45"/>
       <use x="290.576172" xlink:href="#DejaVuSans-48"/>
       <use x="354.199219" xlink:href="#DejaVuSans-51"/>
      </g>
     </g>
    </g>
    <g id="xtick_8">
     <g id="line2d_15">
      <path clip-path="url(#p1d1f572f47)" d="M 475.764706 172.8 
L 475.764706 25.92 
" style="fill:none;stroke:#808080;stroke-dasharray:6.4,1.6,1,1.6;stroke-dashoffset:0;stroke-opacity:0.3;"/>
     </g>
     <g id="line2d_16">
      <g>
       <use style="stroke:#000000;stroke-width:0.8;" x="475.764706" xlink:href="#m3c7fb010bd" y="172.8"/>
      </g>
     </g>
     <g id="text_8">
      <!-- 2021-05 -->
      <g transform="translate(454.8733 187.398438)scale(0.1 -0.1)">
       <use xlink:href="#DejaVuSans-50"/>
       <use x="63.623047" xlink:href="#DejaVuSans-48"/>
       <use x="127.246094" xlink:href="#DejaVuSans-50"/>
       <use x="190.869141" xlink:href="#DejaVuSans-49"/>
       <use x="254.492188" xlink:href="#DejaVuSans-45"/>
       <use x="290.576172" xlink:href="#DejaVuSans-48"/>
       <use x="354.199219" xlink:href="#DejaVuSans-53"/>
      </g>
     </g>
    </g>
    <g id="xtick_9">
     <g id="line2d_17">
      <path clip-path="url(#p1d1f572f47)" d="M 534.611765 172.8 
L 534.611765 25.92 
" style="fill:none;stroke:#808080;stroke-dasharray:6.4,1.6,1,1.6;stroke-dashoffset:0;stroke-opacity:0.3;"/>
     </g>
     <g id="line2d_18">
      <g>
       <use style="stroke:#000000;stroke-width:0.8;" x="534.611765" xlink:href="#m3c7fb010bd" y="172.8"/>
      </g>
     </g>
     <g id="text_9">
      <!-- 2021-07 -->
      <g transform="translate(513.720358 187.398438)scale(0.1 -0.1)">
       <use xlink:href="#DejaVuSans-50"/>
       <use x="63.623047" xlink:href="#DejaVuSans-48"/>
       <use x="127.246094" xlink:href="#DejaVuSans-50"/>
       <use x="190.869141" xlink:href="#DejaVuSans-49"/>
       <use x="254.492188" xlink:href="#DejaVuSans-45"/>
       <use x="290.576172" xlink:href="#DejaVuSans-48"/>
       <use x="354.199219" xlink:href="#DejaVuSans-55"/>
      </g>
     </g>
    </g>
    <g id="xtick_10">
     <g id="line2d_19">
      <path clip-path="url(#p1d1f572f47)" d="M 594.423529 172.8 
L 594.423529 25.92 
" style="fill:none;stroke:#808080;stroke-dasharray:6.4,1.6,1,1.6;stroke-dashoffset:0;stroke-opacity:0.3;"/>
     </g>
     <g id="line2d_20">
      <g>
       <use style="stroke:#000000;stroke-width:0.8;" x="594.423529" xlink:href="#m3c7fb010bd" y="172.8"/>
      </g>
     </g>
     <g id="text_10">
      <!-- 2021-09 -->
      <g transform="translate(573.532123 187.398438)scale(0.1 -0.1)">
       <use xlink:href="#DejaVuSans-50"/>
       <use x="63.623047" xlink:href="#DejaVuSans-48"/>
       <use x="127.246094" xlink:href="#DejaVuSans-50"/>
       <use x="190.869141" xlink:href="#DejaVuSans-49"/>
       <use x="254.492188" xlink:href="#DejaVuSans-45"/>
       <use x="290.576172" xlink:href="#DejaVuSans-48"/>
       <use x="354.199219" xlink:href="#DejaVuSans-57"/>
      </g>
     </g>
    </g>
    <g id="xtick_11">
     <g id="line2d_21">
      <path clip-path="url(#p1d1f572f47)" d="M 653.270588 172.8 
L 653.270588 25.92 
" style="fill:none;stroke:#808080;stroke-dasharray:6.4,1.6,1,1.6;stroke-dashoffset:0;stroke-opacity:0.3;"/>
     </g>
     <g id="line2d_22">
      <g>
       <use style="stroke:#000000;stroke-width:0.8;" x="653.270588" xlink:href="#m3c7fb010bd" y="172.8"/>
      </g>
     </g>
     <g id="text_11">
      <!-- 2021-11 -->
      <g transform="translate(632.379182 187.398438)scale(0.1 -0.1)">
       <use xlink:href="#DejaVuSans-50"/>
       <use x="63.623047" xlink:href="#DejaVuSans-48"/>
       <use x="127.246094" xlink:href="#DejaVuSans-50"/>
       <use x="190.869141" xlink:href="#DejaVuSans-49"/>
       <use x="254.492188" xlink:href="#DejaVuSans-45"/>
       <use x="290.576172" xlink:href="#DejaVuSans-49"/>
       <use x="354.199219" xlink:href="#DejaVuSans-49"/>
      </g>
     </g>
    </g>
    <g id="text_12">
     <!-- Datum -->
     <g transform="translate(343.086719 201.076562)scale(0.1 -0.1)">
      <defs>
       <path d="M 19.671875 64.796875 
L 19.671875 8.109375 
L 31.59375 8.109375 
Q 46.6875 8.109375 53.6875 14.9375 
Q 60.6875 21.78125 60.6875 36.53125 
Q 60.6875 51.171875 53.6875 57.984375 
Q 46.6875 64.796875 31.59375 64.796875 
z
M 9.8125 72.90625 
L 30.078125 72.90625 
Q 51.265625 72.90625 61.171875 64.09375 
Q 71.09375 55.28125 71.09375 36.53125 
Q 71.09375 17.671875 61.125 8.828125 
Q 51.171875 0 30.078125 0 
L 9.8125 0 
z
" id="DejaVuSans-68"/>
       <path d="M 34.28125 27.484375 
Q 23.390625 27.484375 19.1875 25 
Q 14.984375 22.515625 14.984375 16.5 
Q 14.984375 11.71875 18.140625 8.90625 
Q 21.296875 6.109375 26.703125 6.109375 
Q 34.1875 6.109375 38.703125 11.40625 
Q 43.21875 16.703125 43.21875 25.484375 
L 43.21875 27.484375 
z
M 52.203125 31.203125 
L 52.203125 0 
L 43.21875 0 
L 43.21875 8.296875 
Q 40.140625 3.328125 35.546875 0.953125 
Q 30.953125 -1.421875 24.3125 -1.421875 
Q 15.921875 -1.421875 10.953125 3.296875 
Q 6 8.015625 6 15.921875 
Q 6 25.140625 12.171875 29.828125 
Q 18.359375 34.515625 30.609375 34.515625 
L 43.21875 34.515625 
L 43.21875 35.40625 
Q 43.21875 41.609375 39.140625 45 
Q 35.0625 48.390625 27.6875 48.390625 
Q 23 48.390625 18.546875 47.265625 
Q 14.109375 46.140625 10.015625 43.890625 
L 10.015625 52.203125 
Q 14.9375 54.109375 19.578125 55.046875 
Q 24.21875 56 28.609375 56 
Q 40.484375 56 46.34375 49.84375 
Q 52.203125 43.703125 52.203125 31.203125 
z
" id="DejaVuSans-97"/>
       <path d="M 18.3125 70.21875 
L 18.3125 54.6875 
L 36.8125 54.6875 
L 36.8125 47.703125 
L 18.3125 47.703125 
L 18.3125 18.015625 
Q 18.3125 11.328125 20.140625 9.421875 
Q 21.96875 7.515625 27.59375 7.515625 
L 36.8125 7.515625 
L 36.8125 0 
L 27.59375 0 
Q 17.1875 0 13.234375 3.875 
Q 9.28125 7.765625 9.28125 18.015625 
L 9.28125 47.703125 
L 2.6875 47.703125 
L 2.6875 54.6875 
L 9.28125 54.6875 
L 9.28125 70.21875 
z
" id="DejaVuSans-116"/>
       <path d="M 8.5 21.578125 
L 8.5 54.6875 
L 17.484375 54.6875 
L 17.484375 21.921875 
Q 17.484375 14.15625 20.5 10.265625 
Q 23.53125 6.390625 29.59375 6.390625 
Q 36.859375 6.390625 41.078125 11.03125 
Q 45.3125 15.671875 45.3125 23.6875 
L 45.3125 54.6875 
L 54.296875 54.6875 
L 54.296875 0 
L 45.3125 0 
L 45.3125 8.40625 
Q 42.046875 3.421875 37.71875 1 
Q 33.40625 -1.421875 27.6875 -1.421875 
Q 18.265625 -1.421875 13.375 4.4375 
Q 8.5 10.296875 8.5 21.578125 
z
M 31.109375 56 
z
" id="DejaVuSans-117"/>
       <path d="M 52 44.1875 
Q 55.375 50.25 60.0625 53.125 
Q 64.75 56 71.09375 56 
Q 79.640625 56 84.28125 50.015625 
Q 88.921875 44.046875 88.921875 33.015625 
L 88.921875 0 
L 79.890625 0 
L 79.890625 32.71875 
Q 79.890625 40.578125 77.09375 44.375 
Q 74.3125 48.1875 68.609375 48.1875 
Q 61.625 48.1875 57.5625 43.546875 
Q 53.515625 38.921875 53.515625 30.90625 
L 53.515625 0 
L 44.484375 0 
L 44.484375 32.71875 
Q 44.484375 40.625 41.703125 44.40625 
Q 38.921875 48.1875 33.109375 48.1875 
Q 26.21875 48.1875 22.15625 43.53125 
Q 18.109375 38.875 18.109375 30.90625 
L 18.109375 0 
L 9.078125 0 
L 9.078125 54.6875 
L 18.109375 54.6875 
L 18.109375 46.1875 
Q 21.1875 51.21875 25.484375 53.609375 
Q 29.78125 56 35.6875 56 
Q 41.65625 56 45.828125 52.96875 
Q 50 49.953125 52 44.1875 
z
" id="DejaVuSans-109"/>
      </defs>
      <use xlink:href="#DejaVuSans-68"/>
      <use x="77.001953" xlink:href="#DejaVuSans-97"/>
      <use x="138.28125" xlink:href="#DejaVuSans-116"/>
      <use x="177.490234" xlink:href="#DejaVuSans-117"/>
      <use x="240.869141" xlink:href="#DejaVuSans-109"/>
     </g>
    </g>
   </g>
   <g id="matplotlib.axis_2">
    <g id="ytick_1">
     <g id="line2d_23">
      <path clip-path="url(#p1d1f572f47)" d="M 64.8 172.8 
L 655.2 172.8 
" style="fill:none;stroke:#808080;stroke-dasharray:6.4,1.6,1,1.6;stroke-dashoffset:0;stroke-opacity:0.3;"/>
     </g>
     <g id="line2d_24">
      <defs>
       <path d="M 0 0 
L -3.5 0 
" id="m2e699e6dfd" style="stroke:#000000;stroke-width:0.8;"/>
      </defs>
      <g>
       <use style="stroke:#000000;stroke-width:0.8;" x="64.8" xlink:href="#m2e699e6dfd" y="172.8"/>
      </g>
     </g>
     <g id="text_13">
      <!-- 0 -->
      <g transform="translate(51.4375 176.599219)scale(0.1 -0.1)">
       <use xlink:href="#DejaVuSans-48"/>
      </g>
     </g>
    </g>
    <g id="ytick_2">
     <g id="line2d_25">
      <path clip-path="url(#p1d1f572f47)" d="M 64.8 136.08 
L 655.2 136.08 
" style="fill:none;stroke:#808080;stroke-dasharray:6.4,1.6,1,1.6;stroke-dashoffset:0;stroke-opacity:0.3;"/>
     </g>
     <g id="line2d_26">
      <g>
       <use style="stroke:#000000;stroke-width:0.8;" x="64.8" xlink:href="#m2e699e6dfd" y="136.08"/>
      </g>
     </g>
     <g id="text_14">
      <!-- 1000 -->
      <g transform="translate(32.35 139.879219)scale(0.1 -0.1)">
       <use xlink:href="#DejaVuSans-49"/>
       <use x="63.623047" xlink:href="#DejaVuSans-48"/>
       <use x="127.246094" xlink:href="#DejaVuSans-48"/>
       <use x="190.869141" xlink:href="#DejaVuSans-48"/>
      </g>
     </g>
    </g>
    <g id="ytick_3">
     <g id="line2d_27">
      <path clip-path="url(#p1d1f572f47)" d="M 64.8 99.36 
L 655.2 99.36 
" style="fill:none;stroke:#808080;stroke-dasharray:6.4,1.6,1,1.6;stroke-dashoffset:0;stroke-opacity:0.3;"/>
     </g>
     <g id="line2d_28">
      <g>
       <use style="stroke:#000000;stroke-width:0.8;" x="64.8" xlink:href="#m2e699e6dfd" y="99.36"/>
      </g>
     </g>
     <g id="text_15">
      <!-- 2000 -->
      <g transform="translate(32.35 103.159219)scale(0.1 -0.1)">
       <use xlink:href="#DejaVuSans-50"/>
       <use x="63.623047" xlink:href="#DejaVuSans-48"/>
       <use x="127.246094" xlink:href="#DejaVuSans-48"/>
       <use x="190.869141" xlink:href="#DejaVuSans-48"/>
      </g>
     </g>
    </g>
    <g id="ytick_4">
     <g id="line2d_29">
      <path clip-path="url(#p1d1f572f47)" d="M 64.8 62.64 
L 655.2 62.64 
" style="fill:none;stroke:#808080;stroke-dasharray:6.4,1.6,1,1.6;stroke-dashoffset:0;stroke-opacity:0.3;"/>
     </g>
     <g id="line2d_30">
      <g>
       <use style="stroke:#000000;stroke-width:0.8;" x="64.8" xlink:href="#m2e699e6dfd" y="62.64"/>
      </g>
     </g>
     <g id="text_16">
      <!-- 3000 -->
      <g transform="translate(32.35 66.439219)scale(0.1 -0.1)">
       <use xlink:href="#DejaVuSans-51"/>
       <use x="63.623047" xlink:href="#DejaVuSans-48"/>
       <use x="127.246094" xlink:href="#DejaVuSans-48"/>
       <use x="190.869141" xlink:href="#DejaVuSans-48"/>
      </g>
     </g>
    </g>
    <g id="ytick_5">
     <g id="line2d_31">
      <path clip-path="url(#p1d1f572f47)" d="M 64.8 25.92 
L 655.2 25.92 
" style="fill:none;stroke:#808080;stroke-dasharray:6.4,1.6,1,1.6;stroke-dashoffset:0;stroke-opacity:0.3;"/>
     </g>
     <g id="line2d_32">
      <g>
       <use style="stroke:#000000;stroke-width:0.8;" x="64.8" xlink:href="#m2e699e6dfd" y="25.92"/>
      </g>
     </g>
     <g id="text_17">
      <!-- 4000 -->
      <g transform="translate(32.35 29.719219)scale(0.1 -0.1)">
       <defs>
        <path d="M 37.796875 64.3125 
L 12.890625 25.390625 
L 37.796875 25.390625 
z
M 35.203125 72.90625 
L 47.609375 72.90625 
L 47.609375 25.390625 
L 58.015625 25.390625 
L 58.015625 17.1875 
L 47.609375 17.1875 
L 47.609375 0 
L 37.796875 0 
L 37.796875 17.1875 
L 4.890625 17.1875 
L 4.890625 26.703125 
z
" id="DejaVuSans-52"/>
       </defs>
       <use xlink:href="#DejaVuSans-52"/>
       <use x="63.623047" xlink:href="#DejaVuSans-48"/>
       <use x="127.246094" xlink:href="#DejaVuSans-48"/>
       <use x="190.869141" xlink:href="#DejaVuSans-48"/>
      </g>
     </g>
    </g>
    <g id="text_18">
     <!-- RNA per milliliter -->
     <g transform="translate(26.270312 141.776406)rotate(-90)scale(0.1 -0.1)">
      <defs>
       <path d="M 44.390625 34.1875 
Q 47.5625 33.109375 50.5625 29.59375 
Q 53.5625 26.078125 56.59375 19.921875 
L 66.609375 0 
L 56 0 
L 46.6875 18.703125 
Q 43.0625 26.03125 39.671875 28.421875 
Q 36.28125 30.8125 30.421875 30.8125 
L 19.671875 30.8125 
L 19.671875 0 
L 9.8125 0 
L 9.8125 72.90625 
L 32.078125 72.90625 
Q 44.578125 72.90625 50.734375 67.671875 
Q 56.890625 62.453125 56.890625 51.90625 
Q 56.890625 45.015625 53.6875 40.46875 
Q 50.484375 35.9375 44.390625 34.1875 
z
M 19.671875 64.796875 
L 19.671875 38.921875 
L 32.078125 38.921875 
Q 39.203125 38.921875 42.84375 42.21875 
Q 46.484375 45.515625 46.484375 51.90625 
Q 46.484375 58.296875 42.84375 61.546875 
Q 39.203125 64.796875 32.078125 64.796875 
z
" id="DejaVuSans-82"/>
       <path d="M 9.8125 72.90625 
L 23.09375 72.90625 
L 55.421875 11.921875 
L 55.421875 72.90625 
L 64.984375 72.90625 
L 64.984375 0 
L 51.703125 0 
L 19.390625 60.984375 
L 19.390625 0 
L 9.8125 0 
z
" id="DejaVuSans-78"/>
       <path d="M 34.1875 63.1875 
L 20.796875 26.90625 
L 47.609375 26.90625 
z
M 28.609375 72.90625 
L 39.796875 72.90625 
L 67.578125 0 
L 57.328125 0 
L 50.6875 18.703125 
L 17.828125 18.703125 
L 11.1875 0 
L 0.78125 0 
z
" id="DejaVuSans-65"/>
       <path id="DejaVuSans-32"/>
       <path d="M 18.109375 8.203125 
L 18.109375 -20.796875 
L 9.078125 -20.796875 
L 9.078125 54.6875 
L 18.109375 54.6875 
L 18.109375 46.390625 
Q 20.953125 51.265625 25.265625 53.625 
Q 29.59375 56 35.59375 56 
Q 45.5625 56 51.78125 48.09375 
Q 58.015625 40.1875 58.015625 27.296875 
Q 58.015625 14.40625 51.78125 6.484375 
Q 45.5625 -1.421875 35.59375 -1.421875 
Q 29.59375 -1.421875 25.265625 0.953125 
Q 20.953125 3.328125 18.109375 8.203125 
z
M 48.6875 27.296875 
Q 48.6875 37.203125 44.609375 42.84375 
Q 40.53125 48.484375 33.40625 48.484375 
Q 26.265625 48.484375 22.1875 42.84375 
Q 18.109375 37.203125 18.109375 27.296875 
Q 18.109375 17.390625 22.1875 11.75 
Q 26.265625 6.109375 33.40625 6.109375 
Q 40.53125 6.109375 44.609375 11.75 
Q 48.6875 17.390625 48.6875 27.296875 
z
" id="DejaVuSans-112"/>
       <path d="M 56.203125 29.59375 
L 56.203125 25.203125 
L 14.890625 25.203125 
Q 15.484375 15.921875 20.484375 11.0625 
Q 25.484375 6.203125 34.421875 6.203125 
Q 39.59375 6.203125 44.453125 7.46875 
Q 49.3125 8.734375 54.109375 11.28125 
L 54.109375 2.78125 
Q 49.265625 0.734375 44.1875 -0.34375 
Q 39.109375 -1.421875 33.890625 -1.421875 
Q 20.796875 -1.421875 13.15625 6.1875 
Q 5.515625 13.8125 5.515625 26.8125 
Q 5.515625 40.234375 12.765625 48.109375 
Q 20.015625 56 32.328125 56 
Q 43.359375 56 49.78125 48.890625 
Q 56.203125 41.796875 56.203125 29.59375 
z
M 47.21875 32.234375 
Q 47.125 39.59375 43.09375 43.984375 
Q 39.0625 48.390625 32.421875 48.390625 
Q 24.90625 48.390625 20.390625 44.140625 
Q 15.875 39.890625 15.1875 32.171875 
z
" id="DejaVuSans-101"/>
       <path d="M 41.109375 46.296875 
Q 39.59375 47.171875 37.8125 47.578125 
Q 36.03125 48 33.890625 48 
Q 26.265625 48 22.1875 43.046875 
Q 18.109375 38.09375 18.109375 28.8125 
L 18.109375 0 
L 9.078125 0 
L 9.078125 54.6875 
L 18.109375 54.6875 
L 18.109375 46.1875 
Q 20.953125 51.171875 25.484375 53.578125 
Q 30.03125 56 36.53125 56 
Q 37.453125 56 38.578125 55.875 
Q 39.703125 55.765625 41.0625 55.515625 
z
" id="DejaVuSans-114"/>
       <path d="M 9.421875 54.6875 
L 18.40625 54.6875 
L 18.40625 0 
L 9.421875 0 
z
M 9.421875 75.984375 
L 18.40625 75.984375 
L 18.40625 64.59375 
L 9.421875 64.59375 
z
" id="DejaVuSans-105"/>
       <path d="M 9.421875 75.984375 
L 18.40625 75.984375 
L 18.40625 0 
L 9.421875 0 
z
" id="DejaVuSans-108"/>
      </defs>
      <use xlink:href="#DejaVuSans-82"/>
      <use x="69.482422" xlink:href="#DejaVuSans-78"/>
      <use x="144.287109" xlink:href="#DejaVuSans-65"/>
      <use x="212.695312" xlink:href="#DejaVuSans-32"/>
      <use x="244.482422" xlink:href="#DejaVuSans-112"/>
      <use x="307.958984" xlink:href="#DejaVuSans-101"/>
      <use x="369.482422" xlink:href="#DejaVuSans-114"/>
      <use x="410.595703" xlink:href="#DejaVuSans-32"/>
      <use x="442.382812" xlink:href="#DejaVuSans-109"/>
      <use x="539.794922" xlink:href="#DejaVuSans-105"/>
      <use x="567.578125" xlink:href="#DejaVuSans-108"/>
      <use x="595.361328" xlink:href="#DejaVuSans-108"/>
      <use x="623.144531" xlink:href="#DejaVuSans-105"/>
      <use x="650.927734" xlink:href="#DejaVuSans-108"/>
      <use x="678.710938" xlink:href="#DejaVuSans-105"/>
      <use x="706.494141" xlink:href="#DejaVuSans-116"/>
      <use x="745.703125" xlink:href="#DejaVuSans-101"/>
      <use x="807.226562" xlink:href="#DejaVuSans-114"/>
     </g>
    </g>
   </g>
   <g id="line2d_33">
    <path clip-path="url(#p1d1f572f47)" d="M 92.776471 112.761481 
L 95.670588 121.857767 
L 98.564706 124.889862 
L 100.494118 130.954053 
L 103.388235 138.472908 
L 106.282353 140.827111 
L 108.211765 145.289784 
L 110.141176 149.041544 
L 112.070588 150.59754 
L 113.035294 151.928502 
L 114 152.902379 
L 114.964706 153.536442 
L 118.823529 155.329979 
L 119.788235 156.466258 
L 122.682353 159.208804 
L 123.647059 160.027746 
L 127.505882 161.44735 
L 129.435294 162.980115 
L 131.364706 163.783962 
L 132.329412 164.600986 
L 133.294118 165.264749 
L 135.223529 165.48663 
L 138.117647 165.293448 
L 141.011765 164.756703 
L 145.835294 163.790554 
L 148.729412 163.828989 
L 150.658824 164.244897 
L 153.552941 164.404455 
L 155.482353 164.930337 
L 157.411765 165.68497 
L 159.341176 166.343508 
L 161.270588 166.791895 
L 163.2 167.153812 
L 166.094118 167.276835 
L 168.988235 167.785577 
L 174.776471 167.922492 
L 180.564706 167.74003 
L 183.458824 167.354632 
L 187.317647 167.08745 
L 189.247059 166.117482 
L 194.070588 165.546738 
L 195.035294 164.941835 
L 198.894118 163.652183 
L 200.823529 162.377087 
L 203.717647 159.94225 
L 205.647059 158.751049 
L 207.576471 158.236757 
L 212.4 157.632621 
L 213.364706 157.427382 
L 214.329412 157.572349 
L 217.223529 158.641817 
L 218.188235 158.851791 
L 221.082353 158.853589 
L 223.976471 158.508461 
L 224.941176 158.532818 
L 226.870588 159.118333 
L 228.8 159.281896 
L 230.729412 159.508979 
L 232.658824 160.079513 
L 233.623529 160.443371 
L 235.552941 161.445925 
L 237.482353 162.301196 
L 241.341176 162.99714 
L 243.270588 163.042821 
L 245.2 162.821154 
L 246.164706 162.652612 
L 247.129412 162.369506 
L 250.988235 161.63337 
L 252.917647 161.151583 
L 253.882353 160.861182 
L 255.811765 159.944917 
L 257.741176 158.544568 
L 258.705882 157.752072 
L 259.670588 156.791172 
L 261.6 154.390304 
L 263.529412 151.406709 
L 265.458824 147.581961 
L 267.388235 142.859933 
L 269.317647 137.316177 
L 272.211765 128.922921 
L 277.035294 116.22559 
L 278 114.207207 
L 278.964706 111.742913 
L 279.929412 109.696203 
L 280.894118 108.351001 
L 281.858824 107.752562 
L 283.788235 105.70972 
L 284.752941 104.224125 
L 286.682353 100.021844 
L 288.611765 96.414855 
L 290.541176 92.349225 
L 291.505882 92.136922 
L 292.470588 91.740325 
L 293.435294 91.059469 
L 294.4 90.022599 
L 295.364706 89.612588 
L 296.329412 88.924592 
L 297.294118 89.135591 
L 299.223529 92.635584 
L 302.117647 98.118188 
L 303.082353 99.309549 
L 305.976471 100.071831 
L 307.905882 101.471588 
L 308.870588 103.176951 
L 309.835294 104.592994 
L 310.8 105.463369 
L 311.764706 106.077916 
L 312.729412 106.946023 
L 313.694118 108.641424 
L 314.658824 111.058788 
L 318.517647 125.140576 
L 320.447059 130.898685 
L 324.305882 139.341987 
L 325.270588 141.196539 
L 326.235294 142.229327 
L 327.2 142.736096 
L 328.164706 142.523644 
L 329.129412 142.11925 
L 331.058824 141.644572 
L 332.988235 140.540202 
L 333.952941 139.811055 
L 336.847059 136.670654 
L 338.776471 133.561761 
L 340.705882 129.936391 
L 342.635294 126.536359 
L 343.6 125.090826 
L 345.529412 123.194304 
L 346.494118 122.536275 
L 349.388235 121.575089 
L 350.352941 122.12122 
L 351.317647 122.929258 
L 352.282353 124.441114 
L 353.247059 125.447784 
L 356.141176 129.244848 
L 357.105882 130.087477 
L 358.070588 130.770843 
L 360.964706 131.356467 
L 361.929412 131.407065 
L 362.894118 131.268984 
L 363.858824 130.608177 
L 364.823529 129.744373 
L 365.788235 128.122313 
L 366.752941 127.018346 
L 368.682353 124.116423 
L 369.647059 122.342373 
L 370.611765 120.962856 
L 371.576471 119.818284 
L 374.470588 117.014843 
L 375.435294 115.655998 
L 377.364706 113.862318 
L 378.329412 113.854585 
L 379.294118 113.644815 
L 380.258824 113.638404 
L 381.223529 113.858871 
L 382.188235 114.286641 
L 383.152941 114.546391 
L 385.082353 115.437665 
L 386.047059 115.948465 
L 387.011765 116.691068 
L 388.941176 120.60971 
L 389.905882 122.414581 
L 392.8 126.380726 
L 393.764706 127.542528 
L 395.694118 129.277462 
L 396.658824 129.736559 
L 397.623529 129.813471 
L 398.588235 130.102522 
L 399.552941 130.125868 
L 401.482353 129.079483 
L 403.411765 128.068679 
L 404.376471 127.897337 
L 406.305882 127.924499 
L 408.235294 128.806938 
L 409.2 129.629579 
L 413.058824 134.888189 
L 416.917647 139.133378 
L 418.847059 140.543589 
L 420.776471 141.346989 
L 421.741176 141.604094 
L 423.670588 141.772573 
L 427.529412 141.108712 
L 430.423529 140.216942 
L 431.388235 139.785878 
L 432.352941 139.503222 
L 435.247059 138.053523 
L 436.211765 137.336651 
L 438.141176 137.046429 
L 440.070588 136.871851 
L 441.035294 136.611437 
L 442.964706 136.57233 
L 447.788235 136.009108 
L 448.752941 136.084135 
L 449.717647 135.882126 
L 452.611765 134.637066 
L 453.576471 134.524327 
L 454.541176 134.247268 
L 455.505882 134.086369 
L 457.435294 134.548965 
L 460.329412 134.929 
L 461.294118 134.88936 
L 462.258824 134.67681 
L 463.223529 134.925126 
L 465.152941 135.810813 
L 466.117647 136.154302 
L 467.082353 136.310832 
L 468.047059 136.277713 
L 469.976471 135.813033 
L 472.870588 134.719639 
L 473.835294 134.48766 
L 474.8 134.548888 
L 475.764706 134.244983 
L 477.694118 133.160412 
L 478.658824 132.69569 
L 479.623529 132.592323 
L 481.552941 132.825232 
L 482.517647 133.275199 
L 483.482353 134.245689 
L 488.305882 140.961465 
L 490.235294 144.233244 
L 492.164706 147.138778 
L 495.058824 150.902777 
L 497.952941 152.071176 
L 501.811765 154.278384 
L 503.741176 155.019992 
L 508.564706 157.769392 
L 510.494118 158.464486 
L 512.423529 159.790779 
L 514.352941 160.775131 
L 516.282353 161.234281 
L 518.211765 162.215729 
L 520.141176 162.732949 
L 521.105882 162.856601 
L 524 162.914653 
L 524.964706 162.850799 
L 526.894118 162.272065 
L 528.823529 161.460364 
L 529.788235 160.800253 
L 531.717647 158.874246 
L 532.682353 157.57813 
L 533.647059 156.067233 
L 534.611765 154.316222 
L 535.576471 152.097328 
L 538.470588 143.658544 
L 540.4 137.602381 
L 543.294118 128.196832 
L 545.223529 122.595187 
L 546.188235 120.233265 
L 547.152941 118.289818 
L 548.117647 117.191892 
L 551.011765 116.915308 
L 551.976471 116.746101 
L 552.941176 116.90241 
L 553.905882 117.232578 
L 554.870588 117.756202 
L 555.835294 118.410659 
L 557.764706 120.121134 
L 558.729412 120.987899 
L 559.694118 121.677417 
L 560.658824 122.085788 
L 561.623529 121.928177 
L 562.588235 121.297094 
L 565.482353 120.317774 
L 567.411765 119.210826 
L 569.341176 117.711155 
L 571.270588 116.530722 
L 572.235294 116.075602 
L 573.2 115.450272 
L 575.129412 114.411517 
L 576.094118 113.637263 
L 578.023529 111.623801 
L 578.988235 110.749961 
L 579.952941 110.056189 
L 582.847059 109.529071 
L 583.811765 109.600924 
L 584.776471 109.971049 
L 585.741176 111.138658 
L 586.705882 112.605851 
L 587.670588 114.489035 
L 588.635294 116.779012 
L 589.6 119.649373 
L 596.352941 142.993611 
L 597.317647 145.77344 
L 599.247059 150.198667 
L 600.211765 152.007185 
L 601.176471 153.498467 
L 602.141176 154.680418 
L 604.070588 156.251048 
L 608.894118 158.894217 
L 610.823529 159.79415 
L 613.717647 160.568022 
L 614.682353 160.711549 
L 615.647059 160.649532 
L 616.611765 160.393515 
L 617.576471 159.958979 
L 618.541176 159.33775 
L 620.470588 157.698749 
L 621.435294 156.68463 
L 623.364706 154.003562 
L 625.294118 151.113587 
L 626.258824 149.492722 
L 629.152941 143.90557 
L 631.082353 139.252424 
L 633.011765 134.213285 
L 635.905882 125.761128 
L 637.835294 119.403202 
L 641.694118 105.662308 
L 646.517647 88.364321 
L 646.517647 88.364321 
" style="fill:none;stroke:#008000;stroke-linecap:square;stroke-width:1.5;"/>
   </g>
   <g id="line2d_34">
    <path clip-path="url(#p1d1f572f47)" d="M 649.411765 172.8 
L 649.411765 25.92 
" style="fill:none;stroke:#ff0000;stroke-linecap:square;stroke-width:0.5;"/>
   </g>
   <g id="patch_3">
    <path d="M 64.8 172.8 
L 64.8 25.92 
" style="fill:none;stroke:#000000;stroke-linecap:square;stroke-linejoin:miter;stroke-width:0.8;"/>
   </g>
   <g id="patch_4">
    <path d="M 655.2 172.8 
L 655.2 25.92 
" style="fill:none;stroke:#000000;stroke-linecap:square;stroke-linejoin:miter;stroke-width:0.8;"/>
   </g>
   <g id="patch_5">
    <path d="M 64.8 172.8 
L 655.2 172.8 
" style="fill:none;stroke:#000000;stroke-linecap:square;stroke-linejoin:miter;stroke-width:0.8;"/>
   </g>
   <g id="patch_6">
    <path d="M 64.8 25.92 
L 655.2 25.92 
" style="fill:none;stroke:#000000;stroke-linecap:square;stroke-linejoin:miter;stroke-width:0.8;"/>
   </g>
   <g id="text_19">
    <!-- Concentratie SARS-CoV-2 RNA per ml rioolwater -->
    <g transform="translate(215.560313 19.92)scale(0.12 -0.12)">
     <defs>
      <path d="M 64.40625 67.28125 
L 64.40625 56.890625 
Q 59.421875 61.53125 53.78125 63.8125 
Q 48.140625 66.109375 41.796875 66.109375 
Q 29.296875 66.109375 22.65625 58.46875 
Q 16.015625 50.828125 16.015625 36.375 
Q 16.015625 21.96875 22.65625 14.328125 
Q 29.296875 6.6875 41.796875 6.6875 
Q 48.140625 6.6875 53.78125 8.984375 
Q 59.421875 11.28125 64.40625 15.921875 
L 64.40625 5.609375 
Q 59.234375 2.09375 53.4375 0.328125 
Q 47.65625 -1.421875 41.21875 -1.421875 
Q 24.65625 -1.421875 15.125 8.703125 
Q 5.609375 18.84375 5.609375 36.375 
Q 5.609375 53.953125 15.125 64.078125 
Q 24.65625 74.21875 41.21875 74.21875 
Q 47.75 74.21875 53.53125 72.484375 
Q 59.328125 70.75 64.40625 67.28125 
z
" id="DejaVuSans-67"/>
      <path d="M 30.609375 48.390625 
Q 23.390625 48.390625 19.1875 42.75 
Q 14.984375 37.109375 14.984375 27.296875 
Q 14.984375 17.484375 19.15625 11.84375 
Q 23.34375 6.203125 30.609375 6.203125 
Q 37.796875 6.203125 41.984375 11.859375 
Q 46.1875 17.53125 46.1875 27.296875 
Q 46.1875 37.015625 41.984375 42.703125 
Q 37.796875 48.390625 30.609375 48.390625 
z
M 30.609375 56 
Q 42.328125 56 49.015625 48.375 
Q 55.71875 40.765625 55.71875 27.296875 
Q 55.71875 13.875 49.015625 6.21875 
Q 42.328125 -1.421875 30.609375 -1.421875 
Q 18.84375 -1.421875 12.171875 6.21875 
Q 5.515625 13.875 5.515625 27.296875 
Q 5.515625 40.765625 12.171875 48.375 
Q 18.84375 56 30.609375 56 
z
" id="DejaVuSans-111"/>
      <path d="M 54.890625 33.015625 
L 54.890625 0 
L 45.90625 0 
L 45.90625 32.71875 
Q 45.90625 40.484375 42.875 44.328125 
Q 39.84375 48.1875 33.796875 48.1875 
Q 26.515625 48.1875 22.3125 43.546875 
Q 18.109375 38.921875 18.109375 30.90625 
L 18.109375 0 
L 9.078125 0 
L 9.078125 54.6875 
L 18.109375 54.6875 
L 18.109375 46.1875 
Q 21.34375 51.125 25.703125 53.5625 
Q 30.078125 56 35.796875 56 
Q 45.21875 56 50.046875 50.171875 
Q 54.890625 44.34375 54.890625 33.015625 
z
" id="DejaVuSans-110"/>
      <path d="M 48.78125 52.59375 
L 48.78125 44.1875 
Q 44.96875 46.296875 41.140625 47.34375 
Q 37.3125 48.390625 33.40625 48.390625 
Q 24.65625 48.390625 19.8125 42.84375 
Q 14.984375 37.3125 14.984375 27.296875 
Q 14.984375 17.28125 19.8125 11.734375 
Q 24.65625 6.203125 33.40625 6.203125 
Q 37.3125 6.203125 41.140625 7.25 
Q 44.96875 8.296875 48.78125 10.40625 
L 48.78125 2.09375 
Q 45.015625 0.34375 40.984375 -0.53125 
Q 36.96875 -1.421875 32.421875 -1.421875 
Q 20.0625 -1.421875 12.78125 6.34375 
Q 5.515625 14.109375 5.515625 27.296875 
Q 5.515625 40.671875 12.859375 48.328125 
Q 20.21875 56 33.015625 56 
Q 37.15625 56 41.109375 55.140625 
Q 45.0625 54.296875 48.78125 52.59375 
z
" id="DejaVuSans-99"/>
      <path d="M 53.515625 70.515625 
L 53.515625 60.890625 
Q 47.90625 63.578125 42.921875 64.890625 
Q 37.9375 66.21875 33.296875 66.21875 
Q 25.25 66.21875 20.875 63.09375 
Q 16.5 59.96875 16.5 54.203125 
Q 16.5 49.359375 19.40625 46.890625 
Q 22.3125 44.4375 30.421875 42.921875 
L 36.375 41.703125 
Q 47.40625 39.59375 52.65625 34.296875 
Q 57.90625 29 57.90625 20.125 
Q 57.90625 9.515625 50.796875 4.046875 
Q 43.703125 -1.421875 29.984375 -1.421875 
Q 24.8125 -1.421875 18.96875 -0.25 
Q 13.140625 0.921875 6.890625 3.21875 
L 6.890625 13.375 
Q 12.890625 10.015625 18.65625 8.296875 
Q 24.421875 6.59375 29.984375 6.59375 
Q 38.421875 6.59375 43.015625 9.90625 
Q 47.609375 13.234375 47.609375 19.390625 
Q 47.609375 24.75 44.3125 27.78125 
Q 41.015625 30.8125 33.5 32.328125 
L 27.484375 33.5 
Q 16.453125 35.6875 11.515625 40.375 
Q 6.59375 45.0625 6.59375 53.421875 
Q 6.59375 63.09375 13.40625 68.65625 
Q 20.21875 74.21875 32.171875 74.21875 
Q 37.3125 74.21875 42.625 73.28125 
Q 47.953125 72.359375 53.515625 70.515625 
z
" id="DejaVuSans-83"/>
      <path d="M 28.609375 0 
L 0.78125 72.90625 
L 11.078125 72.90625 
L 34.1875 11.53125 
L 57.328125 72.90625 
L 67.578125 72.90625 
L 39.796875 0 
z
" id="DejaVuSans-86"/>
      <path d="M 4.203125 54.6875 
L 13.1875 54.6875 
L 24.421875 12.015625 
L 35.59375 54.6875 
L 46.1875 54.6875 
L 57.421875 12.015625 
L 68.609375 54.6875 
L 77.59375 54.6875 
L 63.28125 0 
L 52.6875 0 
L 40.921875 44.828125 
L 29.109375 0 
L 18.5 0 
z
" id="DejaVuSans-119"/>
     </defs>
     <use xlink:href="#DejaVuSans-67"/>
     <use x="69.824219" xlink:href="#DejaVuSans-111"/>
     <use x="131.005859" xlink:href="#DejaVuSans-110"/>
     <use x="194.384766" xlink:href="#DejaVuSans-99"/>
     <use x="249.365234" xlink:href="#DejaVuSans-101"/>
     <use x="310.888672" xlink:href="#DejaVuSans-110"/>
     <use x="374.267578" xlink:href="#DejaVuSans-116"/>
     <use x="413.476562" xlink:href="#DejaVuSans-114"/>
     <use x="454.589844" xlink:href="#DejaVuSans-97"/>
     <use x="515.869141" xlink:href="#DejaVuSans-116"/>
     <use x="555.078125" xlink:href="#DejaVuSans-105"/>
     <use x="582.861328" xlink:href="#DejaVuSans-101"/>
     <use x="644.384766" xlink:href="#DejaVuSans-32"/>
     <use x="676.171875" xlink:href="#DejaVuSans-83"/>
     <use x="741.523438" xlink:href="#DejaVuSans-65"/>
     <use x="809.931641" xlink:href="#DejaVuSans-82"/>
     <use x="879.414062" xlink:href="#DejaVuSans-83"/>
     <use x="942.890625" xlink:href="#DejaVuSans-45"/>
     <use x="978.974609" xlink:href="#DejaVuSans-67"/>
     <use x="1048.798828" xlink:href="#DejaVuSans-111"/>
     <use x="1109.980469" xlink:href="#DejaVuSans-86"/>
     <use x="1172.513672" xlink:href="#DejaVuSans-45"/>
     <use x="1208.597656" xlink:href="#DejaVuSans-50"/>
     <use x="1272.220703" xlink:href="#DejaVuSans-32"/>
     <use x="1304.007812" xlink:href="#DejaVuSans-82"/>
     <use x="1373.490234" xlink:href="#DejaVuSans-78"/>
     <use x="1448.294922" xlink:href="#DejaVuSans-65"/>
     <use x="1516.703125" xlink:href="#DejaVuSans-32"/>
     <use x="1548.490234" xlink:href="#DejaVuSans-112"/>
     <use x="1611.966797" xlink:href="#DejaVuSans-101"/>
     <use x="1673.490234" xlink:href="#DejaVuSans-114"/>
     <use x="1714.603516" xlink:href="#DejaVuSans-32"/>
     <use x="1746.390625" xlink:href="#DejaVuSans-109"/>
     <use x="1843.802734" xlink:href="#DejaVuSans-108"/>
     <use x="1871.585938" xlink:href="#DejaVuSans-32"/>
     <use x="1903.373047" xlink:href="#DejaVuSans-114"/>
     <use x="1944.486328" xlink:href="#DejaVuSans-105"/>
     <use x="1972.269531" xlink:href="#DejaVuSans-111"/>
     <use x="2033.451172" xlink:href="#DejaVuSans-111"/>
     <use x="2094.632812" xlink:href="#DejaVuSans-108"/>
     <use x="2122.416016" xlink:href="#DejaVuSans-119"/>
     <use x="2204.203125" xlink:href="#DejaVuSans-97"/>
     <use x="2265.482422" xlink:href="#DejaVuSans-116"/>
     <use x="2304.691406" xlink:href="#DejaVuSans-101"/>
     <use x="2366.214844" xlink:href="#DejaVuSans-114"/>
    </g>
   </g>
   <g id="legend_1">
    <g id="patch_7">
     <path d="M 71.8 48.598125 
L 306.184375 48.598125 
Q 308.184375 48.598125 308.184375 46.598125 
L 308.184375 32.92 
Q 308.184375 30.92 306.184375 30.92 
L 71.8 30.92 
Q 69.8 30.92 69.8 32.92 
L 69.8 46.598125 
Q 69.8 48.598125 71.8 48.598125 
z
" style="fill:#ffffff;opacity:0.8;stroke:#cccccc;stroke-linejoin:miter;"/>
    </g>
    <g id="line2d_35">
     <path d="M 73.8 39.018437 
L 93.8 39.018437 
" style="fill:none;stroke:#008000;stroke-linecap:square;stroke-width:1.5;"/>
    </g>
    <g id="line2d_36"/>
    <g id="text_20">
     <!-- RNA per milliliter rioolwater (gemiddeld) -->
     <g transform="translate(101.8 42.518437)scale(0.1 -0.1)">
      <defs>
       <path d="M 31 75.875 
Q 24.46875 64.65625 21.28125 53.65625 
Q 18.109375 42.671875 18.109375 31.390625 
Q 18.109375 20.125 21.3125 9.0625 
Q 24.515625 -2 31 -13.1875 
L 23.1875 -13.1875 
Q 15.875 -1.703125 12.234375 9.375 
Q 8.59375 20.453125 8.59375 31.390625 
Q 8.59375 42.28125 12.203125 53.3125 
Q 15.828125 64.359375 23.1875 75.875 
z
" id="DejaVuSans-40"/>
       <path d="M 45.40625 27.984375 
Q 45.40625 37.75 41.375 43.109375 
Q 37.359375 48.484375 30.078125 48.484375 
Q 22.859375 48.484375 18.828125 43.109375 
Q 14.796875 37.75 14.796875 27.984375 
Q 14.796875 18.265625 18.828125 12.890625 
Q 22.859375 7.515625 30.078125 7.515625 
Q 37.359375 7.515625 41.375 12.890625 
Q 45.40625 18.265625 45.40625 27.984375 
z
M 54.390625 6.78125 
Q 54.390625 -7.171875 48.1875 -13.984375 
Q 42 -20.796875 29.203125 -20.796875 
Q 24.46875 -20.796875 20.265625 -20.09375 
Q 16.0625 -19.390625 12.109375 -17.921875 
L 12.109375 -9.1875 
Q 16.0625 -11.328125 19.921875 -12.34375 
Q 23.78125 -13.375 27.78125 -13.375 
Q 36.625 -13.375 41.015625 -8.765625 
Q 45.40625 -4.15625 45.40625 5.171875 
L 45.40625 9.625 
Q 42.625 4.78125 38.28125 2.390625 
Q 33.9375 0 27.875 0 
Q 17.828125 0 11.671875 7.65625 
Q 5.515625 15.328125 5.515625 27.984375 
Q 5.515625 40.671875 11.671875 48.328125 
Q 17.828125 56 27.875 56 
Q 33.9375 56 38.28125 53.609375 
Q 42.625 51.21875 45.40625 46.390625 
L 45.40625 54.6875 
L 54.390625 54.6875 
z
" id="DejaVuSans-103"/>
       <path d="M 45.40625 46.390625 
L 45.40625 75.984375 
L 54.390625 75.984375 
L 54.390625 0 
L 45.40625 0 
L 45.40625 8.203125 
Q 42.578125 3.328125 38.25 0.953125 
Q 33.9375 -1.421875 27.875 -1.421875 
Q 17.96875 -1.421875 11.734375 6.484375 
Q 5.515625 14.40625 5.515625 27.296875 
Q 5.515625 40.1875 11.734375 48.09375 
Q 17.96875 56 27.875 56 
Q 33.9375 56 38.25 53.625 
Q 42.578125 51.265625 45.40625 46.390625 
z
M 14.796875 27.296875 
Q 14.796875 17.390625 18.875 11.75 
Q 22.953125 6.109375 30.078125 6.109375 
Q 37.203125 6.109375 41.296875 11.75 
Q 45.40625 17.390625 45.40625 27.296875 
Q 45.40625 37.203125 41.296875 42.84375 
Q 37.203125 48.484375 30.078125 48.484375 
Q 22.953125 48.484375 18.875 42.84375 
Q 14.796875 37.203125 14.796875 27.296875 
z
" id="DejaVuSans-100"/>
       <path d="M 8.015625 75.875 
L 15.828125 75.875 
Q 23.140625 64.359375 26.78125 53.3125 
Q 30.421875 42.28125 30.421875 31.390625 
Q 30.421875 20.453125 26.78125 9.375 
Q 23.140625 -1.703125 15.828125 -13.1875 
L 8.015625 -13.1875 
Q 14.5 -2 17.703125 9.0625 
Q 20.90625 20.125 20.90625 31.390625 
Q 20.90625 42.671875 17.703125 53.65625 
Q 14.5 64.65625 8.015625 75.875 
z
" id="DejaVuSans-41"/>
      </defs>
      <use xlink:href="#DejaVuSans-82"/>
      <use x="69.482422" xlink:href="#DejaVuSans-78"/>
      <use x="144.287109" xlink:href="#DejaVuSans-65"/>
      <use x="212.695312" xlink:href="#DejaVuSans-32"/>
      <use x="244.482422" xlink:href="#DejaVuSans-112"/>
      <use x="307.958984" xlink:href="#DejaVuSans-101"/>
      <use x="369.482422" xlink:href="#DejaVuSans-114"/>
      <use x="410.595703" xlink:href="#DejaVuSans-32"/>
      <use x="442.382812" xlink:href="#DejaVuSans-109"/>
      <use x="539.794922" xlink:href="#DejaVuSans-105"/>
      <use x="567.578125" xlink:href="#DejaVuSans-108"/>
      <use x="595.361328" xlink:href="#DejaVuSans-108"/>
      <use x="623.144531" xlink:href="#DejaVuSans-105"/>
      <use x="650.927734" xlink:href="#DejaVuSans-108"/>
      <use x="678.710938" xlink:href="#DejaVuSans-105"/>
      <use x="706.494141" xlink:href="#DejaVuSans-116"/>
      <use x="745.703125" xlink:href="#DejaVuSans-101"/>
      <use x="807.226562" xlink:href="#DejaVuSans-114"/>
      <use x="848.339844" xlink:href="#DejaVuSans-32"/>
      <use x="880.126953" xlink:href="#DejaVuSans-114"/>
      <use x="921.240234" xlink:href="#DejaVuSans-105"/>
      <use x="949.023438" xlink:href="#DejaVuSans-111"/>
      <use x="1010.205078" xlink:href="#DejaVuSans-111"/>
      <use x="1071.386719" xlink:href="#DejaVuSans-108"/>
      <use x="1099.169922" xlink:href="#DejaVuSans-119"/>
      <use x="1180.957031" xlink:href="#DejaVuSans-97"/>
      <use x="1242.236328" xlink:href="#DejaVuSans-116"/>
      <use x="1281.445312" xlink:href="#DejaVuSans-101"/>
      <use x="1342.96875" xlink:href="#DejaVuSans-114"/>
      <use x="1384.082031" xlink:href="#DejaVuSans-32"/>
      <use x="1415.869141" xlink:href="#DejaVuSans-40"/>
      <use x="1454.882812" xlink:href="#DejaVuSans-103"/>
      <use x="1518.359375" xlink:href="#DejaVuSans-101"/>
      <use x="1579.882812" xlink:href="#DejaVuSans-109"/>
      <use x="1677.294922" xlink:href="#DejaVuSans-105"/>
      <use x="1705.078125" xlink:href="#DejaVuSans-100"/>
      <use x="1768.554688" xlink:href="#DejaVuSans-100"/>
      <use x="1832.03125" xlink:href="#DejaVuSans-101"/>
      <use x="1893.554688" xlink:href="#DejaVuSans-108"/>
      <use x="1921.337891" xlink:href="#DejaVuSans-100"/>
      <use x="1984.814453" xlink:href="#DejaVuSans-41"/>
     </g>
    </g>
   </g>
  </g>
  <g id="text_21">
   <!-- Gegenereerd op 2021-10-28 23:41 o.b.v. data tot 2021-10-25. -->
   <g style="fill:#808080;" transform="translate(7.2 204.88175)scale(0.08 -0.08)">
    <defs>
     <path d="M 59.515625 10.40625 
L 59.515625 29.984375 
L 43.40625 29.984375 
L 43.40625 38.09375 
L 69.28125 38.09375 
L 69.28125 6.78125 
Q 63.578125 2.734375 56.6875 0.65625 
Q 49.8125 -1.421875 42 -1.421875 
Q 24.90625 -1.421875 15.25 8.5625 
Q 5.609375 18.5625 5.609375 36.375 
Q 5.609375 54.25 15.25 64.234375 
Q 24.90625 74.21875 42 74.21875 
Q 49.125 74.21875 55.546875 72.453125 
Q 61.96875 70.703125 67.390625 67.28125 
L 67.390625 56.78125 
Q 61.921875 61.421875 55.765625 63.765625 
Q 49.609375 66.109375 42.828125 66.109375 
Q 29.4375 66.109375 22.71875 58.640625 
Q 16.015625 51.171875 16.015625 36.375 
Q 16.015625 21.625 22.71875 14.15625 
Q 29.4375 6.6875 42.828125 6.6875 
Q 48.046875 6.6875 52.140625 7.59375 
Q 56.25 8.5 59.515625 10.40625 
z
" id="DejaVuSans-71"/>
     <path d="M 31.78125 34.625 
Q 24.75 34.625 20.71875 30.859375 
Q 16.703125 27.09375 16.703125 20.515625 
Q 16.703125 13.921875 20.71875 10.15625 
Q 24.75 6.390625 31.78125 6.390625 
Q 38.8125 6.390625 42.859375 10.171875 
Q 46.921875 13.96875 46.921875 20.515625 
Q 46.921875 27.09375 42.890625 30.859375 
Q 38.875 34.625 31.78125 34.625 
z
M 21.921875 38.8125 
Q 15.578125 40.375 12.03125 44.71875 
Q 8.5 49.078125 8.5 55.328125 
Q 8.5 64.0625 14.71875 69.140625 
Q 20.953125 74.21875 31.78125 74.21875 
Q 42.671875 74.21875 48.875 69.140625 
Q 55.078125 64.0625 55.078125 55.328125 
Q 55.078125 49.078125 51.53125 44.71875 
Q 48 40.375 41.703125 38.8125 
Q 48.828125 37.15625 52.796875 32.3125 
Q 56.78125 27.484375 56.78125 20.515625 
Q 56.78125 9.90625 50.3125 4.234375 
Q 43.84375 -1.421875 31.78125 -1.421875 
Q 19.734375 -1.421875 13.25 4.234375 
Q 6.78125 9.90625 6.78125 20.515625 
Q 6.78125 27.484375 10.78125 32.3125 
Q 14.796875 37.15625 21.921875 38.8125 
z
M 18.3125 54.390625 
Q 18.3125 48.734375 21.84375 45.5625 
Q 25.390625 42.390625 31.78125 42.390625 
Q 38.140625 42.390625 41.71875 45.5625 
Q 45.3125 48.734375 45.3125 54.390625 
Q 45.3125 60.0625 41.71875 63.234375 
Q 38.140625 66.40625 31.78125 66.40625 
Q 25.390625 66.40625 21.84375 63.234375 
Q 18.3125 60.0625 18.3125 54.390625 
z
" id="DejaVuSans-56"/>
     <path d="M 11.71875 12.40625 
L 22.015625 12.40625 
L 22.015625 0 
L 11.71875 0 
z
M 11.71875 51.703125 
L 22.015625 51.703125 
L 22.015625 39.3125 
L 11.71875 39.3125 
z
" id="DejaVuSans-58"/>
     <path d="M 10.6875 12.40625 
L 21 12.40625 
L 21 0 
L 10.6875 0 
z
" id="DejaVuSans-46"/>
     <path d="M 48.6875 27.296875 
Q 48.6875 37.203125 44.609375 42.84375 
Q 40.53125 48.484375 33.40625 48.484375 
Q 26.265625 48.484375 22.1875 42.84375 
Q 18.109375 37.203125 18.109375 27.296875 
Q 18.109375 17.390625 22.1875 11.75 
Q 26.265625 6.109375 33.40625 6.109375 
Q 40.53125 6.109375 44.609375 11.75 
Q 48.6875 17.390625 48.6875 27.296875 
z
M 18.109375 46.390625 
Q 20.953125 51.265625 25.265625 53.625 
Q 29.59375 56 35.59375 56 
Q 45.5625 56 51.78125 48.09375 
Q 58.015625 40.1875 58.015625 27.296875 
Q 58.015625 14.40625 51.78125 6.484375 
Q 45.5625 -1.421875 35.59375 -1.421875 
Q 29.59375 -1.421875 25.265625 0.953125 
Q 20.953125 3.328125 18.109375 8.203125 
L 18.109375 0 
L 9.078125 0 
L 9.078125 75.984375 
L 18.109375 75.984375 
z
" id="DejaVuSans-98"/>
     <path d="M 2.984375 54.6875 
L 12.5 54.6875 
L 29.59375 8.796875 
L 46.6875 54.6875 
L 56.203125 54.6875 
L 35.6875 0 
L 23.484375 0 
z
" id="DejaVuSans-118"/>
    </defs>
    <use xlink:href="#DejaVuSans-71"/>
    <use x="77.490234" xlink:href="#DejaVuSans-101"/>
    <use x="139.013672" xlink:href="#DejaVuSans-103"/>
    <use x="202.490234" xlink:href="#DejaVuSans-101"/>
    <use x="264.013672" xlink:href="#DejaVuSans-110"/>
    <use x="327.392578" xlink:href="#DejaVuSans-101"/>
    <use x="388.916016" xlink:href="#DejaVuSans-114"/>
    <use x="427.779297" xlink:href="#DejaVuSans-101"/>
    <use x="489.302734" xlink:href="#DejaVuSans-101"/>
    <use x="550.826172" xlink:href="#DejaVuSans-114"/>
    <use x="590.189453" xlink:href="#DejaVuSans-100"/>
    <use x="653.666016" xlink:href="#DejaVuSans-32"/>
    <use x="685.453125" xlink:href="#DejaVuSans-111"/>
    <use x="746.634766" xlink:href="#DejaVuSans-112"/>
    <use x="810.111328" xlink:href="#DejaVuSans-32"/>
    <use x="841.898438" xlink:href="#DejaVuSans-50"/>
    <use x="905.521484" xlink:href="#DejaVuSans-48"/>
    <use x="969.144531" xlink:href="#DejaVuSans-50"/>
    <use x="1032.767578" xlink:href="#DejaVuSans-49"/>
    <use x="1096.390625" xlink:href="#DejaVuSans-45"/>
    <use x="1132.474609" xlink:href="#DejaVuSans-49"/>
    <use x="1196.097656" xlink:href="#DejaVuSans-48"/>
    <use x="1259.720703" xlink:href="#DejaVuSans-45"/>
    <use x="1295.804688" xlink:href="#DejaVuSans-50"/>
    <use x="1359.427734" xlink:href="#DejaVuSans-56"/>
    <use x="1423.050781" xlink:href="#DejaVuSans-32"/>
    <use x="1454.837891" xlink:href="#DejaVuSans-50"/>
    <use x="1518.460938" xlink:href="#DejaVuSans-51"/>
    <use x="1582.083984" xlink:href="#DejaVuSans-58"/>
    <use x="1615.775391" xlink:href="#DejaVuSans-52"/>
    <use x="1679.398438" xlink:href="#DejaVuSans-49"/>
    <use x="1743.021484" xlink:href="#DejaVuSans-32"/>
    <use x="1774.808594" xlink:href="#DejaVuSans-111"/>
    <use x="1834.240234" xlink:href="#DejaVuSans-46"/>
    <use x="1866.027344" xlink:href="#DejaVuSans-98"/>
    <use x="1929.503906" xlink:href="#DejaVuSans-46"/>
    <use x="1961.291016" xlink:href="#DejaVuSans-118"/>
    <use x="2012.720703" xlink:href="#DejaVuSans-46"/>
    <use x="2044.507812" xlink:href="#DejaVuSans-32"/>
    <use x="2076.294922" xlink:href="#DejaVuSans-100"/>
    <use x="2139.771484" xlink:href="#DejaVuSans-97"/>
    <use x="2201.050781" xlink:href="#DejaVuSans-116"/>
    <use x="2240.259766" xlink:href="#DejaVuSans-97"/>
    <use x="2301.539062" xlink:href="#DejaVuSans-32"/>
    <use x="2333.326172" xlink:href="#DejaVuSans-116"/>
    <use x="2372.535156" xlink:href="#DejaVuSans-111"/>
    <use x="2433.716797" xlink:href="#DejaVuSans-116"/>
    <use x="2472.925781" xlink:href="#DejaVuSans-32"/>
    <use x="2504.712891" xlink:href="#DejaVuSans-50"/>
    <use x="2568.335938" xlink:href="#DejaVuSans-48"/>
    <use x="2631.958984" xlink:href="#DejaVuSans-50"/>
    <use x="2695.582031" xlink:href="#DejaVuSans-49"/>
    <use x="2759.205078" xlink:href="#DejaVuSans-45"/>
    <use x="2795.289062" xlink:href="#DejaVuSans-49"/>
    <use x="2858.912109" xlink:href="#DejaVuSans-48"/>
    <use x="2922.535156" xlink:href="#DejaVuSans-45"/>
    <use x="2958.619141" xlink:href="#DejaVuSans-50"/>
    <use x="3022.242188" xlink:href="#DejaVuSans-53"/>
    <use x="3085.865234" xlink:href="#DejaVuSans-46"/>
   </g>
   <!-- Source code: http://github.com/realrolfje/coronadata -->
   <g style="fill:#808080;" transform="translate(7.2 213.84)scale(0.08 -0.08)">
    <defs>
     <path d="M 54.890625 33.015625 
L 54.890625 0 
L 45.90625 0 
L 45.90625 32.71875 
Q 45.90625 40.484375 42.875 44.328125 
Q 39.84375 48.1875 33.796875 48.1875 
Q 26.515625 48.1875 22.3125 43.546875 
Q 18.109375 38.921875 18.109375 30.90625 
L 18.109375 0 
L 9.078125 0 
L 9.078125 75.984375 
L 18.109375 75.984375 
L 18.109375 46.1875 
Q 21.34375 51.125 25.703125 53.5625 
Q 30.078125 56 35.796875 56 
Q 45.21875 56 50.046875 50.171875 
Q 54.890625 44.34375 54.890625 33.015625 
z
" id="DejaVuSans-104"/>
     <path d="M 25.390625 72.90625 
L 33.6875 72.90625 
L 8.296875 -9.28125 
L 0 -9.28125 
z
" id="DejaVuSans-47"/>
     <path d="M 37.109375 75.984375 
L 37.109375 68.5 
L 28.515625 68.5 
Q 23.6875 68.5 21.796875 66.546875 
Q 19.921875 64.59375 19.921875 59.515625 
L 19.921875 54.6875 
L 34.71875 54.6875 
L 34.71875 47.703125 
L 19.921875 47.703125 
L 19.921875 0 
L 10.890625 0 
L 10.890625 47.703125 
L 2.296875 47.703125 
L 2.296875 54.6875 
L 10.890625 54.6875 
L 10.890625 58.5 
Q 10.890625 67.625 15.140625 71.796875 
Q 19.390625 75.984375 28.609375 75.984375 
z
" id="DejaVuSans-102"/>
     <path d="M 9.421875 54.6875 
L 18.40625 54.6875 
L 18.40625 -0.984375 
Q 18.40625 -11.421875 14.421875 -16.109375 
Q 10.453125 -20.796875 1.609375 -20.796875 
L -1.8125 -20.796875 
L -1.8125 -13.1875 
L 0.59375 -13.1875 
Q 5.71875 -13.1875 7.5625 -10.8125 
Q 9.421875 -8.453125 9.421875 -0.984375 
z
M 9.421875 75.984375 
L 18.40625 75.984375 
L 18.40625 64.59375 
L 9.421875 64.59375 
z
" id="DejaVuSans-106"/>
    </defs>
    <use xlink:href="#DejaVuSans-83"/>
    <use x="63.476562" xlink:href="#DejaVuSans-111"/>
    <use x="124.658203" xlink:href="#DejaVuSans-117"/>
    <use x="188.037109" xlink:href="#DejaVuSans-114"/>
    <use x="226.900391" xlink:href="#DejaVuSans-99"/>
    <use x="281.880859" xlink:href="#DejaVuSans-101"/>
    <use x="343.404297" xlink:href="#DejaVuSans-32"/>
    <use x="375.191406" xlink:href="#DejaVuSans-99"/>
    <use x="430.171875" xlink:href="#DejaVuSans-111"/>
    <use x="491.353516" xlink:href="#DejaVuSans-100"/>
    <use x="554.830078" xlink:href="#DejaVuSans-101"/>
    <use x="616.353516" xlink:href="#DejaVuSans-58"/>
    <use x="650.044922" xlink:href="#DejaVuSans-32"/>
    <use x="681.832031" xlink:href="#DejaVuSans-104"/>
    <use x="745.210938" xlink:href="#DejaVuSans-116"/>
    <use x="784.419922" xlink:href="#DejaVuSans-116"/>
    <use x="823.628906" xlink:href="#DejaVuSans-112"/>
    <use x="887.105469" xlink:href="#DejaVuSans-58"/>
    <use x="920.796875" xlink:href="#DejaVuSans-47"/>
    <use x="954.488281" xlink:href="#DejaVuSans-47"/>
    <use x="988.179688" xlink:href="#DejaVuSans-103"/>
    <use x="1051.65625" xlink:href="#DejaVuSans-105"/>
    <use x="1079.439453" xlink:href="#DejaVuSans-116"/>
    <use x="1118.648438" xlink:href="#DejaVuSans-104"/>
    <use x="1182.027344" xlink:href="#DejaVuSans-117"/>
    <use x="1245.40625" xlink:href="#DejaVuSans-98"/>
    <use x="1308.882812" xlink:href="#DejaVuSans-46"/>
    <use x="1340.669922" xlink:href="#DejaVuSans-99"/>
    <use x="1395.650391" xlink:href="#DejaVuSans-111"/>
    <use x="1456.832031" xlink:href="#DejaVuSans-109"/>
    <use x="1554.244141" xlink:href="#DejaVuSans-47"/>
    <use x="1587.935547" xlink:href="#DejaVuSans-114"/>
    <use x="1626.798828" xlink:href="#DejaVuSans-101"/>
    <use x="1688.322266" xlink:href="#DejaVuSans-97"/>
    <use x="1749.601562" xlink:href="#DejaVuSans-108"/>
    <use x="1777.384766" xlink:href="#DejaVuSans-114"/>
    <use x="1816.248047" xlink:href="#DejaVuSans-111"/>
    <use x="1877.429688" xlink:href="#DejaVuSans-108"/>
    <use x="1905.212891" xlink:href="#DejaVuSans-102"/>
    <use x="1940.417969" xlink:href="#DejaVuSans-106"/>
    <use x="1968.201172" xlink:href="#DejaVuSans-101"/>
    <use x="2029.724609" xlink:href="#DejaVuSans-47"/>
    <use x="2063.416016" xlink:href="#DejaVuSans-99"/>
    <use x="2118.396484" xlink:href="#DejaVuSans-111"/>
    <use x="2179.578125" xlink:href="#DejaVuSans-114"/>
    <use x="2218.441406" xlink:href="#DejaVuSans-111"/>
    <use x="2279.623047" xlink:href="#DejaVuSans-110"/>
    <use x="2343.001953" xlink:href="#DejaVuSans-97"/>
    <use x="2404.28125" xlink:href="#DejaVuSans-100"/>
    <use x="2467.757812" xlink:href="#DejaVuSans-97"/>
    <use x="2529.037109" xlink:href="#DejaVuSans-116"/>
    <use x="2568.246094" xlink:href="#DejaVuSans-97"/>
   </g>
  </g>
  <g id="text_22">
   <!-- Bron: https://data.rivm.nl/covid-19 -->
   <g style="fill:#808080;" transform="translate(574.79875 213.84)scale(0.08 -0.08)">
    <defs>
     <path d="M 19.671875 34.8125 
L 19.671875 8.109375 
L 35.5 8.109375 
Q 43.453125 8.109375 47.28125 11.40625 
Q 51.125 14.703125 51.125 21.484375 
Q 51.125 28.328125 47.28125 31.5625 
Q 43.453125 34.8125 35.5 34.8125 
z
M 19.671875 64.796875 
L 19.671875 42.828125 
L 34.28125 42.828125 
Q 41.5 42.828125 45.03125 45.53125 
Q 48.578125 48.25 48.578125 53.8125 
Q 48.578125 59.328125 45.03125 62.0625 
Q 41.5 64.796875 34.28125 64.796875 
z
M 9.8125 72.90625 
L 35.015625 72.90625 
Q 46.296875 72.90625 52.390625 68.21875 
Q 58.5 63.53125 58.5 54.890625 
Q 58.5 48.1875 55.375 44.234375 
Q 52.25 40.28125 46.1875 39.3125 
Q 53.46875 37.75 57.5 32.78125 
Q 61.53125 27.828125 61.53125 20.40625 
Q 61.53125 10.640625 54.890625 5.3125 
Q 48.25 0 35.984375 0 
L 9.8125 0 
z
" id="DejaVuSans-66"/>
     <path d="M 44.28125 53.078125 
L 44.28125 44.578125 
Q 40.484375 46.53125 36.375 47.5 
Q 32.28125 48.484375 27.875 48.484375 
Q 21.1875 48.484375 17.84375 46.4375 
Q 14.5 44.390625 14.5 40.28125 
Q 14.5 37.15625 16.890625 35.375 
Q 19.28125 33.59375 26.515625 31.984375 
L 29.59375 31.296875 
Q 39.15625 29.25 43.1875 25.515625 
Q 47.21875 21.78125 47.21875 15.09375 
Q 47.21875 7.46875 41.1875 3.015625 
Q 35.15625 -1.421875 24.609375 -1.421875 
Q 20.21875 -1.421875 15.453125 -0.5625 
Q 10.6875 0.296875 5.421875 2 
L 5.421875 11.28125 
Q 10.40625 8.6875 15.234375 7.390625 
Q 20.0625 6.109375 24.8125 6.109375 
Q 31.15625 6.109375 34.5625 8.28125 
Q 37.984375 10.453125 37.984375 14.40625 
Q 37.984375 18.0625 35.515625 20.015625 
Q 33.0625 21.96875 24.703125 23.78125 
L 21.578125 24.515625 
Q 13.234375 26.265625 9.515625 29.90625 
Q 5.8125 33.546875 5.8125 39.890625 
Q 5.8125 47.609375 11.28125 51.796875 
Q 16.75 56 26.8125 56 
Q 31.78125 56 36.171875 55.265625 
Q 40.578125 54.546875 44.28125 53.078125 
z
" id="DejaVuSans-115"/>
    </defs>
    <use xlink:href="#DejaVuSans-66"/>
    <use x="68.603516" xlink:href="#DejaVuSans-114"/>
    <use x="107.466797" xlink:href="#DejaVuSans-111"/>
    <use x="168.648438" xlink:href="#DejaVuSans-110"/>
    <use x="232.027344" xlink:href="#DejaVuSans-58"/>
    <use x="265.71875" xlink:href="#DejaVuSans-32"/>
    <use x="297.505859" xlink:href="#DejaVuSans-104"/>
    <use x="360.884766" xlink:href="#DejaVuSans-116"/>
    <use x="400.09375" xlink:href="#DejaVuSans-116"/>
    <use x="439.302734" xlink:href="#DejaVuSans-112"/>
    <use x="502.779297" xlink:href="#DejaVuSans-115"/>
    <use x="554.878906" xlink:href="#DejaVuSans-58"/>
    <use x="588.570312" xlink:href="#DejaVuSans-47"/>
    <use x="622.261719" xlink:href="#DejaVuSans-47"/>
    <use x="655.953125" xlink:href="#DejaVuSans-100"/>
    <use x="719.429688" xlink:href="#DejaVuSans-97"/>
    <use x="780.708984" xlink:href="#DejaVuSans-116"/>
    <use x="819.917969" xlink:href="#DejaVuSans-97"/>
    <use x="881.197266" xlink:href="#DejaVuSans-46"/>
    <use x="912.984375" xlink:href="#DejaVuSans-114"/>
    <use x="954.097656" xlink:href="#DejaVuSans-105"/>
    <use x="981.880859" xlink:href="#DejaVuSans-118"/>
    <use x="1041.060547" xlink:href="#DejaVuSans-109"/>
    <use x="1138.472656" xlink:href="#DejaVuSans-46"/>
    <use x="1170.259766" xlink:href="#DejaVuSans-110"/>
    <use x="1233.638672" xlink:href="#DejaVuSans-108"/>
    <use x="1261.421875" xlink:href="#DejaVuSans-47"/>
    <use x="1295.113281" xlink:href="#DejaVuSans-99"/>
    <use x="1350.09375" xlink:href="#DejaVuSans-111"/>
    <use x="1411.275391" xlink:href="#DejaVuSans-118"/>
    <use x="1470.455078" xlink:href="#DejaVuSans-105"/>
    <use x="1498.238281" xlink:href="#DejaVuSans-100"/>
    <use x="1561.714844" xlink:href="#DejaVuSans-45"/>
    <use x="1597.798828" xlink:href="#DejaVuSans-49"/>
    <use x="1661.421875" xlink:href="#DejaVuSans-57"/>
   </g>
  </g>
  <g id="text_23">
   <g id="patch_8">
    <path d="M 637.2 176.62375 
L 647.38 176.62375 
L 647.38 168.88125 
L 637.2 168.88125 
z
" style="fill:#ffffff;opacity:0.9;stroke:#ffffff;stroke-linejoin:miter;"/>
   </g>
   <!-- 28 -->
   <g style="fill:#ff0000;" transform="translate(637.2 174.96)scale(0.08 -0.08)">
    <use xlink:href="#DejaVuSans-50"/>
    <use x="63.623047" xlink:href="#DejaVuSans-56"/>
   </g>
  </g>
  <g id="text_24">
   <g id="patch_9">
    <path d="M 176 92.479688 
L 303.317187 92.479688 
L 303.317187 74.801563 
L 176 74.801563 
z
" style="fill:#ffffff;stroke:#ffffff;stroke-linejoin:miter;"/>
   </g>
   <!-- "Je plee liegt niet" - Rolf -->
   <g style="fill:#808080;" transform="translate(180 86.4)scale(0.1 -0.1)">
    <defs>
     <path d="M 17.921875 72.90625 
L 17.921875 45.796875 
L 9.625 45.796875 
L 9.625 72.90625 
z
M 36.375 72.90625 
L 36.375 45.796875 
L 28.078125 45.796875 
L 28.078125 72.90625 
z
" id="DejaVuSans-34"/>
     <path d="M 9.8125 72.90625 
L 19.671875 72.90625 
L 19.671875 5.078125 
Q 19.671875 -8.109375 14.671875 -14.0625 
Q 9.671875 -20.015625 -1.421875 -20.015625 
L -5.171875 -20.015625 
L -5.171875 -11.71875 
L -2.09375 -11.71875 
Q 4.4375 -11.71875 7.125 -8.046875 
Q 9.8125 -4.390625 9.8125 5.078125 
z
" id="DejaVuSans-74"/>
    </defs>
    <use xlink:href="#DejaVuSans-34"/>
    <use x="45.996094" xlink:href="#DejaVuSans-74"/>
    <use x="75.488281" xlink:href="#DejaVuSans-101"/>
    <use x="137.011719" xlink:href="#DejaVuSans-32"/>
    <use x="168.798828" xlink:href="#DejaVuSans-112"/>
    <use x="232.275391" xlink:href="#DejaVuSans-108"/>
    <use x="260.058594" xlink:href="#DejaVuSans-101"/>
    <use x="321.582031" xlink:href="#DejaVuSans-101"/>
    <use x="383.105469" xlink:href="#DejaVuSans-32"/>
    <use x="414.892578" xlink:href="#DejaVuSans-108"/>
    <use x="442.675781" xlink:href="#DejaVuSans-105"/>
    <use x="470.458984" xlink:href="#DejaVuSans-101"/>
    <use x="531.982422" xlink:href="#DejaVuSans-103"/>
    <use x="595.458984" xlink:href="#DejaVuSans-116"/>
    <use x="634.667969" xlink:href="#DejaVuSans-32"/>
    <use x="666.455078" xlink:href="#DejaVuSans-110"/>
    <use x="729.833984" xlink:href="#DejaVuSans-105"/>
    <use x="757.617188" xlink:href="#DejaVuSans-101"/>
    <use x="819.140625" xlink:href="#DejaVuSans-116"/>
    <use x="858.349609" xlink:href="#DejaVuSans-34"/>
    <use x="904.345703" xlink:href="#DejaVuSans-32"/>
    <use x="936.132812" xlink:href="#DejaVuSans-45"/>
    <use x="972.216797" xlink:href="#DejaVuSans-32"/>
    <use x="1004.003906" xlink:href="#DejaVuSans-82"/>
    <use x="1068.986328" xlink:href="#DejaVuSans-111"/>
    <use x="1130.167969" xlink:href="#DejaVuSans-108"/>
    <use x="1157.951172" xlink:href="#DejaVuSans-102"/>
   </g>
  </g>
 </g>
 <defs>
  <clipPath id="p1d1f572f47">
   <rect height="146.88" width="590.4" x="64.8" y="25.92"/>
  </clipPath>
 </defs>
</svg>
