<?xml version="1.0" encoding="utf-8" standalone="no"?>
<!DOCTYPE svg PUBLIC "-//W3C//DTD SVG 1.1//EN"
  "http://www.w3.org/Graphics/SVG/1.1/DTD/svg11.dtd">
<svg xmlns:xlink="http://www.w3.org/1999/xlink" width="720pt" height="216pt" viewBox="0 0 720 216" xmlns="http://www.w3.org/2000/svg" version="1.1">
 <metadata>
  <rdf:RDF xmlns:dc="http://purl.org/dc/elements/1.1/" xmlns:cc="http://creativecommons.org/ns#" xmlns:rdf="http://www.w3.org/1999/02/22-rdf-syntax-ns#">
   <cc:Work>
    <dc:type rdf:resource="http://purl.org/dc/dcmitype/StillImage"/>
    <dc:date>2023-04-09T10:28:57.404101</dc:date>
    <dc:format>image/svg+xml</dc:format>
    <dc:creator>
     <cc:Agent>
      <dc:title>Matplotlib v3.6.2, https://matplotlib.org/</dc:title>
     </cc:Agent>
    </dc:creator>
   </cc:Work>
  </rdf:RDF>
 </metadata>
 <defs>
  <style type="text/css">*{stroke-linejoin: round; stroke-linecap: butt}</style>
 </defs>
 <g id="figure_1">
  <g id="patch_1">
   <path d="M 0 216 
L 720 216 
L 720 0 
L 0 0 
z
" style="fill: #ffffff"/>
  </g>
  <g id="axes_1">
   <g id="patch_2">
    <path d="M 64.8 172.8 
L 655.2 172.8 
L 655.2 25.92 
L 64.8 25.92 
z
" style="fill: #ffffff"/>
   </g>
   <g id="PolyCollection_1">
    <path d="M 64.8 172.8 
L 64.8 172.8 
L 66.421978 172.8 
L 68.043956 172.8 
L 69.665934 172.8 
L 71.287912 172.8 
L 72.90989 172.8 
L 74.531868 172.8 
L 76.153846 172.8 
L 77.775824 172.8 
L 79.397802 172.8 
L 81.01978 172.8 
L 82.641758 172.8 
L 84.263736 172.8 
L 85.885714 172.8 
L 87.507692 172.8 
L 89.12967 172.8 
L 90.751648 172.8 
L 92.373626 172.8 
L 93.995604 172.8 
L 95.617582 172.8 
L 97.23956 172.8 
L 98.861538 172.8 
L 100.483516 172.8 
L 102.105495 172.8 
L 103.727473 172.8 
L 105.349451 172.8 
L 106.971429 172.8 
L 108.593407 172.8 
L 110.215385 172.8 
L 111.837363 172.8 
L 113.459341 172.8 
L 115.081319 172.8 
L 116.703297 172.8 
L 118.325275 172.8 
L 119.947253 172.8 
L 121.569231 172.8 
L 123.191209 172.8 
L 124.813187 172.8 
L 126.435165 172.8 
L 128.057143 172.8 
L 129.679121 172.8 
L 131.301099 172.8 
L 132.923077 172.8 
L 134.545055 172.8 
L 136.167033 172.8 
L 137.789011 172.8 
L 139.410989 172.8 
L 141.032967 172.8 
L 142.654945 172.8 
L 144.276923 172.8 
L 145.898901 172.8 
L 147.520879 172.8 
L 149.142857 172.8 
L 150.764835 172.8 
L 152.386813 172.8 
L 154.008791 172.8 
L 155.630769 172.8 
L 157.252747 172.8 
L 158.874725 172.8 
L 160.496703 172.8 
L 162.118681 172.8 
L 163.740659 172.8 
L 165.362637 172.8 
L 166.984615 172.8 
L 168.606593 172.8 
L 170.228571 172.8 
L 171.850549 172.8 
L 173.472527 172.8 
L 175.094505 172.8 
L 176.716484 172.8 
L 178.338462 172.8 
L 179.96044 172.8 
L 181.582418 172.8 
L 183.204396 172.8 
L 184.826374 172.8 
L 186.448352 172.8 
L 188.07033 172.8 
L 189.692308 172.8 
L 191.314286 172.8 
L 192.936264 172.8 
L 194.558242 172.8 
L 196.18022 172.8 
L 197.802198 172.8 
L 199.424176 172.8 
L 201.046154 172.8 
L 202.668132 172.8 
L 204.29011 172.8 
L 205.912088 172.8 
L 207.534066 172.8 
L 209.156044 172.8 
L 210.778022 172.8 
L 212.4 172.8 
L 214.021978 172.8 
L 215.643956 172.8 
L 217.265934 172.8 
L 218.887912 172.8 
L 220.50989 172.8 
L 222.131868 172.8 
L 223.753846 172.8 
L 225.375824 172.8 
L 226.997802 172.8 
L 228.61978 172.8 
L 230.241758 172.8 
L 231.863736 172.8 
L 233.485714 172.8 
L 235.107692 172.8 
L 236.72967 172.8 
L 238.351648 172.8 
L 239.973626 172.8 
L 241.595604 172.8 
L 243.217582 172.8 
L 244.83956 172.8 
L 246.461538 172.8 
L 248.083516 172.8 
L 249.705495 172.8 
L 251.327473 172.8 
L 252.949451 172.8 
L 254.571429 172.8 
L 256.193407 172.8 
L 257.815385 172.8 
L 259.437363 172.8 
L 261.059341 172.8 
L 262.681319 172.8 
L 264.303297 172.8 
L 265.925275 172.8 
L 267.547253 172.8 
L 269.169231 172.8 
L 270.791209 172.8 
L 272.413187 172.8 
L 274.035165 172.8 
L 275.657143 172.8 
L 277.279121 172.8 
L 278.901099 172.8 
L 280.523077 172.8 
L 282.145055 172.8 
L 283.767033 172.8 
L 285.389011 172.8 
L 287.010989 172.8 
L 288.632967 172.8 
L 290.254945 172.8 
L 291.876923 172.8 
L 293.498901 172.8 
L 295.120879 172.8 
L 296.742857 172.8 
L 298.364835 172.8 
L 299.986813 172.8 
L 301.608791 172.8 
L 303.230769 172.8 
L 304.852747 172.8 
L 306.474725 172.8 
L 308.096703 172.8 
L 309.718681 172.8 
L 311.340659 172.8 
L 312.962637 172.8 
L 314.584615 172.8 
L 316.206593 172.8 
L 317.828571 172.8 
L 319.450549 172.8 
L 321.072527 172.8 
L 322.694505 172.8 
L 324.316484 172.8 
L 325.938462 172.8 
L 327.56044 172.8 
L 330.804396 172.8 
L 332.426374 172.8 
L 334.048352 172.8 
L 335.67033 172.8 
L 337.292308 172.8 
L 338.914286 172.8 
L 340.536264 172.8 
L 342.158242 172.8 
L 343.78022 172.8 
L 345.402198 172.8 
L 347.024176 172.8 
L 348.646154 172.8 
L 350.268132 172.8 
L 351.89011 172.8 
L 353.512088 172.8 
L 355.134066 172.8 
L 356.756044 172.8 
L 358.378022 172.8 
L 360 172.8 
L 361.621978 172.8 
L 363.243956 172.8 
L 364.865934 172.8 
L 366.487912 172.8 
L 368.10989 172.8 
L 369.731868 172.8 
L 371.353846 172.8 
L 372.975824 172.8 
L 374.597802 172.8 
L 376.21978 172.8 
L 377.841758 172.8 
L 379.463736 172.8 
L 381.085714 172.8 
L 382.707692 172.8 
L 384.32967 172.8 
L 385.951648 172.8 
L 387.573626 172.8 
L 389.195604 172.8 
L 390.817582 172.8 
L 392.43956 172.8 
L 394.061538 172.8 
L 395.683516 172.8 
L 397.305495 172.8 
L 398.927473 172.8 
L 400.549451 172.8 
L 402.171429 172.8 
L 403.793407 172.8 
L 405.415385 172.8 
L 407.037363 172.8 
L 408.659341 172.8 
L 410.281319 172.8 
L 411.903297 172.8 
L 413.525275 172.8 
L 415.147253 172.8 
L 416.769231 172.8 
L 418.391209 172.8 
L 420.013187 172.8 
L 421.635165 172.8 
L 423.257143 172.8 
L 424.879121 172.8 
L 426.501099 172.8 
L 428.123077 172.8 
L 429.745055 172.8 
L 431.367033 172.8 
L 432.989011 172.8 
L 434.610989 172.8 
L 436.232967 172.8 
L 437.854945 172.8 
L 439.476923 172.8 
L 441.098901 172.8 
L 442.720879 172.8 
L 444.342857 172.8 
L 445.964835 172.8 
L 447.586813 172.8 
L 449.208791 172.8 
L 450.830769 172.8 
L 452.452747 172.8 
L 454.074725 172.8 
L 455.696703 172.8 
L 457.318681 172.8 
L 458.940659 172.8 
L 460.562637 172.8 
L 462.184615 172.8 
L 463.806593 172.8 
L 465.428571 172.8 
L 467.050549 172.8 
L 468.672527 172.8 
L 470.294505 172.8 
L 471.916484 172.8 
L 473.538462 172.8 
L 475.16044 172.8 
L 476.782418 172.8 
L 478.404396 172.8 
L 480.026374 172.8 
L 481.648352 172.8 
L 483.27033 172.8 
L 484.892308 172.8 
L 486.514286 172.8 
L 488.136264 172.8 
L 489.758242 172.8 
L 491.38022 172.8 
L 493.002198 172.8 
L 494.624176 172.8 
L 496.246154 172.8 
L 497.868132 172.8 
L 499.49011 172.8 
L 501.112088 172.8 
L 502.734066 172.8 
L 504.356044 172.8 
L 505.978022 172.8 
L 507.6 172.8 
L 509.221978 172.8 
L 510.843956 172.8 
L 512.465934 172.8 
L 514.087912 172.8 
L 515.70989 172.8 
L 517.331868 172.8 
L 518.953846 172.8 
L 520.575824 172.8 
L 522.197802 172.8 
L 523.81978 172.8 
L 525.441758 172.8 
L 527.063736 172.8 
L 528.685714 172.8 
L 530.307692 172.8 
L 531.92967 172.8 
L 533.551648 172.8 
L 535.173626 172.8 
L 536.795604 172.8 
L 538.417582 172.8 
L 540.03956 172.8 
L 541.661538 172.8 
L 543.283516 172.8 
L 544.905495 172.8 
L 546.527473 172.8 
L 548.149451 172.8 
L 549.771429 172.8 
L 551.393407 172.8 
L 553.015385 172.8 
L 554.637363 172.8 
L 556.259341 172.8 
L 557.881319 172.8 
L 559.503297 172.8 
L 561.125275 172.8 
L 562.747253 172.8 
L 564.369231 172.8 
L 565.991209 172.8 
L 567.613187 172.8 
L 569.235165 172.8 
L 570.857143 172.8 
L 572.479121 172.8 
L 574.101099 172.8 
L 575.723077 172.8 
L 577.345055 172.8 
L 578.967033 172.8 
L 580.589011 172.8 
L 582.210989 172.8 
L 583.832967 172.8 
L 585.454945 172.8 
L 587.076923 172.8 
L 588.698901 172.8 
L 590.320879 172.8 
L 591.942857 172.8 
L 593.564835 172.8 
L 595.186813 172.8 
L 596.808791 172.8 
L 598.430769 172.8 
L 600.052747 172.8 
L 601.674725 172.8 
L 603.296703 172.8 
L 604.918681 172.8 
L 606.540659 172.8 
L 608.162637 172.8 
L 609.784615 172.8 
L 611.406593 172.8 
L 613.028571 172.8 
L 614.650549 172.8 
L 616.272527 172.8 
L 617.894505 172.8 
L 619.516484 172.8 
L 621.138462 172.8 
L 622.76044 172.8 
L 624.382418 172.8 
L 626.004396 172.8 
L 627.626374 172.8 
L 629.248352 172.8 
L 630.87033 172.8 
L 632.492308 172.8 
L 634.114286 172.8 
L 635.736264 172.8 
L 637.358242 172.8 
L 637.358242 172.8 
L 637.358242 144.41324 
L 635.736264 140.8729 
L 634.114286 131.873868 
L 632.492308 109.063375 
L 630.87033 90.972169 
L 629.248352 105.704807 
L 627.626374 109.077583 
L 626.004396 106.459964 
L 624.382418 124.586305 
L 622.76044 105.103431 
L 621.138462 98.442197 
L 619.516484 113.446531 
L 617.894505 86.62641 
L 616.272527 76.986167 
L 614.650549 92.992843 
L 613.028571 92.77444 
L 611.406593 94.02813 
L 609.784615 80.117605 
L 608.162637 60.375195 
L 606.540659 87.720866 
L 604.918681 116.556492 
L 603.296703 99.220908 
L 601.674725 106.155065 
L 600.052747 85.327841 
L 598.430769 89.381217 
L 596.808791 97.771984 
L 595.186813 66.838568 
L 593.564835 89.029759 
L 591.942857 84.795966 
L 590.320879 55.117859 
L 588.698901 55.944872 
L 587.076923 79.847661 
L 585.454945 60.747151 
L 583.832967 80.549504 
L 582.210989 86.121134 
L 580.589011 99.262111 
L 578.967033 76.885886 
L 577.345055 59.847821 
L 575.723077 89.362468 
L 574.101099 64.922043 
L 572.479121 99.779834 
L 570.857143 88.187186 
L 569.235165 120.742137 
L 567.613187 112.141081 
L 565.991209 103.829195 
L 564.369231 101.374784 
L 562.747253 115.441126 
L 561.125275 110.773313 
L 559.503297 118.887779 
L 557.881319 134.773599 
L 556.259341 132.447053 
L 554.637363 134.635192 
L 553.015385 136.340618 
L 551.393407 138.104329 
L 549.771429 146.319831 
L 548.149451 135.679398 
L 546.527473 144.157351 
L 544.905495 141.134033 
L 543.283516 129.770041 
L 541.661538 136.969373 
L 540.03956 135.336373 
L 538.417582 129.7745 
L 536.795604 134.077304 
L 535.173626 146.168232 
L 533.551648 149.200939 
L 531.92967 150.300054 
L 530.307692 153.217713 
L 528.685714 153.690124 
L 527.063736 149.764697 
L 525.441758 149.899446 
L 523.81978 154.132367 
L 522.197802 153.907272 
L 520.575824 154.986607 
L 518.953846 153.536611 
L 517.331868 155.797794 
L 515.70989 152.094149 
L 514.087912 151.295509 
L 512.465934 153.99685 
L 510.843956 145.479806 
L 509.221978 148.264037 
L 507.6 138.325995 
L 505.978022 146.532388 
L 504.356044 136.738819 
L 502.734066 136.222632 
L 501.112088 131.444595 
L 499.49011 131.172065 
L 497.868132 138.297987 
L 496.246154 132.121599 
L 494.624176 118.53752 
L 493.002198 127.786085 
L 491.38022 118.061245 
L 489.758242 95.949365 
L 488.136264 117.575391 
L 486.514286 83.933681 
L 484.892308 53.082845 
L 483.27033 60.021739 
L 481.648352 72.356006 
L 480.026374 31.917591 
L 478.404396 81.29074 
L 476.782418 82.58086 
L 475.16044 38.132152 
L 473.538462 77.519606 
L 471.916484 75.325251 
L 470.294505 55.99398 
L 468.672527 81.554804 
L 467.050549 55.868993 
L 465.428571 52.353468 
L 463.806593 51.988167 
L 462.184615 70.139139 
L 460.562637 68.77645 
L 458.940659 87.650175 
L 457.318681 93.186664 
L 455.696703 115.651719 
L 454.074725 121.791195 
L 452.452747 117.939544 
L 450.830769 119.397855 
L 449.208791 132.571137 
L 447.586813 124.736656 
L 445.964835 119.963726 
L 444.342857 120.181183 
L 442.720879 121.187165 
L 441.098901 117.957525 
L 439.476923 125.428907 
L 437.854945 129.18063 
L 436.232967 125.078117 
L 434.610989 124.635367 
L 432.989011 127.185166 
L 431.367033 128.517633 
L 429.745055 102.217031 
L 428.123077 126.17534 
L 426.501099 132.582443 
L 424.879121 120.23089 
L 423.257143 115.59393 
L 421.635165 132.903226 
L 420.013187 136.924035 
L 418.391209 118.396022 
L 416.769231 143.150499 
L 415.147253 126.741787 
L 413.525275 124.595697 
L 411.903297 118.977904 
L 410.281319 118.613382 
L 408.659341 138.37737 
L 407.037363 134.502517 
L 405.415385 127.479953 
L 403.793407 136.106556 
L 402.171429 140.788541 
L 400.549451 133.000363 
L 398.927473 140.668405 
L 397.305495 143.330364 
L 395.683516 111.76528 
L 394.061538 141.262693 
L 392.43956 114.71402 
L 390.817582 103.964451 
L 389.195604 128.531208 
L 387.573626 121.191608 
L 385.951648 131.304224 
L 384.32967 117.718169 
L 382.707692 123.356202 
L 381.085714 120.60085 
L 379.463736 115.715668 
L 377.841758 109.379732 
L 376.21978 113.61127 
L 374.597802 95.980785 
L 372.975824 88.901283 
L 371.353846 100.056532 
L 369.731868 95.412796 
L 368.10989 68.305219 
L 366.487912 95.526323 
L 364.865934 103.470151 
L 363.243956 60.196126 
L 361.621978 97.820629 
L 360 84.939497 
L 358.378022 78.410002 
L 356.756044 77.683651 
L 355.134066 99.656316 
L 353.512088 99.20966 
L 351.89011 93.381997 
L 350.268132 79.896175 
L 348.646154 54.83259 
L 347.024176 76.122027 
L 345.402198 82.80514 
L 343.78022 69.893914 
L 342.158242 85.459354 
L 340.536264 98.857454 
L 338.914286 100.662434 
L 337.292308 79.783334 
L 335.67033 93.256478 
L 334.048352 113.77983 
L 332.426374 114.478271 
L 330.804396 108.254503 
L 327.56044 117.525343 
L 325.938462 116.108506 
L 324.316484 115.661374 
L 322.694505 131.669005 
L 321.072527 132.698423 
L 319.450549 138.292566 
L 317.828571 142.451975 
L 316.206593 125.729026 
L 314.584615 132.502824 
L 312.962637 118.558304 
L 311.340659 138.833555 
L 309.718681 147.58586 
L 308.096703 148.587071 
L 306.474725 151.261468 
L 304.852747 149.81439 
L 303.230769 148.530647 
L 301.608791 137.698874 
L 299.986813 139.8307 
L 298.364835 137.903231 
L 296.742857 133.108884 
L 295.120879 140.997132 
L 293.498901 142.035506 
L 291.876923 140.750611 
L 290.254945 142.610576 
L 288.632967 144.014078 
L 287.010989 149.010243 
L 285.389011 149.294082 
L 283.767033 152.739455 
L 282.145055 146.056665 
L 280.523077 152.138509 
L 278.901099 147.343297 
L 277.279121 148.658641 
L 275.657143 145.086442 
L 274.035165 144.062431 
L 272.413187 147.697336 
L 270.791209 145.167821 
L 269.169231 145.699042 
L 267.547253 146.229413 
L 265.925275 155.010921 
L 264.303297 139.252896 
L 262.681319 141.455488 
L 261.059341 147.569242 
L 259.437363 141.179387 
L 257.815385 147.643898 
L 256.193407 140.366368 
L 254.571429 144.15967 
L 252.949451 146.22906 
L 251.327473 144.565799 
L 249.705495 145.775759 
L 248.083516 145.328636 
L 246.461538 133.649845 
L 244.83956 137.083308 
L 243.217582 135.863565 
L 241.595604 138.908456 
L 239.973626 131.826549 
L 238.351648 126.643509 
L 236.72967 109.947813 
L 235.107692 128.681388 
L 233.485714 97.289114 
L 231.863736 119.220951 
L 230.241758 124.212105 
L 228.61978 116.093094 
L 226.997802 123.441394 
L 225.375824 116.587821 
L 223.753846 117.289814 
L 222.131868 112.251733 
L 220.50989 66.103369 
L 218.887912 101.561496 
L 217.265934 86.044492 
L 215.643956 95.398126 
L 214.021978 99.500029 
L 212.4 86.793495 
L 210.778022 80.664837 
L 209.156044 84.94774 
L 207.534066 86.974148 
L 205.912088 94.466161 
L 204.29011 98.175239 
L 202.668132 107.813802 
L 201.046154 100.456825 
L 199.424176 96.030378 
L 197.802198 95.411612 
L 196.18022 102.504949 
L 194.558242 109.645216 
L 192.936264 109.336379 
L 191.314286 93.997334 
L 189.692308 114.506521 
L 188.07033 118.618539 
L 186.448352 91.506052 
L 184.826374 92.582477 
L 183.204396 119.488231 
L 181.582418 96.432012 
L 179.96044 125.188998 
L 178.338462 106.945655 
L 176.716484 99.328448 
L 175.094505 116.349792 
L 173.472527 111.066615 
L 171.850549 118.944261 
L 170.228571 122.908691 
L 168.606593 116.535228 
L 166.984615 125.531602 
L 165.362637 122.500499 
L 163.740659 120.979943 
L 162.118681 128.102783 
L 160.496703 134.731053 
L 158.874725 138.92512 
L 157.252747 145.985316 
L 155.630769 134.279162 
L 154.008791 148.901668 
L 152.386813 153.461172 
L 150.764835 137.325056 
L 149.142857 156.569176 
L 147.520879 139.88245 
L 145.898901 133.648166 
L 144.276923 158.000756 
L 142.654945 151.105566 
L 141.032967 153.318347 
L 139.410989 153.572636 
L 137.789011 152.794363 
L 136.167033 161.334881 
L 134.545055 159.916451 
L 132.923077 159.002718 
L 131.301099 158.038609 
L 129.679121 164.982568 
L 128.057143 163.603709 
L 126.435165 164.111047 
L 124.813187 154.935223 
L 123.191209 164.082946 
L 121.569231 163.687892 
L 119.947253 152.883345 
L 118.325275 150.624944 
L 116.703297 155.903527 
L 115.081319 159.458321 
L 113.459341 158.645879 
L 111.837363 161.35373 
L 110.215385 160.018418 
L 108.593407 154.695433 
L 106.971429 158.081995 
L 105.349451 157.517754 
L 103.727473 158.262592 
L 102.105495 160.112287 
L 100.483516 158.51445 
L 98.861538 155.564728 
L 97.23956 157.564308 
L 95.617582 157.289917 
L 93.995604 155.631672 
L 92.373626 158.732926 
L 90.751648 159.981034 
L 89.12967 156.409442 
L 87.507692 155.018333 
L 85.885714 156.059439 
L 84.263736 158.308789 
L 82.641758 156.340924 
L 81.01978 158.756745 
L 79.397802 153.408582 
L 77.775824 152.037243 
L 76.153846 152.035047 
L 74.531868 152.380359 
L 72.90989 149.665687 
L 71.287912 147.736892 
L 69.665934 146.429836 
L 68.043956 141.036808 
L 66.421978 141.15916 
L 64.8 140.253804 
z
" clip-path="url(#p0f9a0cfd62)" style="fill: #008000; fill-opacity: 0.3"/>
   </g>
   <g id="matplotlib.axis_1">
    <g id="xtick_1">
     <g id="line2d_1">
      <path d="M 89.12967 172.8 
L 89.12967 25.92 
" clip-path="url(#p0f9a0cfd62)" style="fill: none; stroke-dasharray: 6.4,1.6,1,1.6; stroke-dashoffset: 0; stroke: #808080; stroke-opacity: 0.3"/>
     </g>
     <g id="line2d_2">
      <defs>
       <path id="m15ba4f40e6" d="M 0 0 
L 0 3.5 
" style="stroke: #000000; stroke-width: 0.8"/>
      </defs>
      <g>
       <use xlink:href="#m15ba4f40e6" x="89.12967" y="172.8" style="stroke: #000000; stroke-width: 0.8"/>
      </g>
     </g>
     <g id="text_1">
      <!-- 2022-05 -->
      <g transform="translate(68.238264 187.398438) scale(0.1 -0.1)">
       <defs>
        <path id="DejaVuSans-32" d="M 1228 531 
L 3431 531 
L 3431 0 
L 469 0 
L 469 531 
Q 828 903 1448 1529 
Q 2069 2156 2228 2338 
Q 2531 2678 2651 2914 
Q 2772 3150 2772 3378 
Q 2772 3750 2511 3984 
Q 2250 4219 1831 4219 
Q 1534 4219 1204 4116 
Q 875 4013 500 3803 
L 500 4441 
Q 881 4594 1212 4672 
Q 1544 4750 1819 4750 
Q 2544 4750 2975 4387 
Q 3406 4025 3406 3419 
Q 3406 3131 3298 2873 
Q 3191 2616 2906 2266 
Q 2828 2175 2409 1742 
Q 1991 1309 1228 531 
z
" transform="scale(0.015625)"/>
        <path id="DejaVuSans-30" d="M 2034 4250 
Q 1547 4250 1301 3770 
Q 1056 3291 1056 2328 
Q 1056 1369 1301 889 
Q 1547 409 2034 409 
Q 2525 409 2770 889 
Q 3016 1369 3016 2328 
Q 3016 3291 2770 3770 
Q 2525 4250 2034 4250 
z
M 2034 4750 
Q 2819 4750 3233 4129 
Q 3647 3509 3647 2328 
Q 3647 1150 3233 529 
Q 2819 -91 2034 -91 
Q 1250 -91 836 529 
Q 422 1150 422 2328 
Q 422 3509 836 4129 
Q 1250 4750 2034 4750 
z
" transform="scale(0.015625)"/>
        <path id="DejaVuSans-2d" d="M 313 2009 
L 1997 2009 
L 1997 1497 
L 313 1497 
L 313 2009 
z
" transform="scale(0.015625)"/>
        <path id="DejaVuSans-35" d="M 691 4666 
L 3169 4666 
L 3169 4134 
L 1269 4134 
L 1269 2991 
Q 1406 3038 1543 3061 
Q 1681 3084 1819 3084 
Q 2600 3084 3056 2656 
Q 3513 2228 3513 1497 
Q 3513 744 3044 326 
Q 2575 -91 1722 -91 
Q 1428 -91 1123 -41 
Q 819 9 494 109 
L 494 744 
Q 775 591 1075 516 
Q 1375 441 1709 441 
Q 2250 441 2565 725 
Q 2881 1009 2881 1497 
Q 2881 1984 2565 2268 
Q 2250 2553 1709 2553 
Q 1456 2553 1204 2497 
Q 953 2441 691 2322 
L 691 4666 
z
" transform="scale(0.015625)"/>
       </defs>
       <use xlink:href="#DejaVuSans-32"/>
       <use xlink:href="#DejaVuSans-30" x="63.623047"/>
       <use xlink:href="#DejaVuSans-32" x="127.246094"/>
       <use xlink:href="#DejaVuSans-32" x="190.869141"/>
       <use xlink:href="#DejaVuSans-2d" x="254.492188"/>
       <use xlink:href="#DejaVuSans-30" x="290.576172"/>
       <use xlink:href="#DejaVuSans-35" x="354.199219"/>
      </g>
     </g>
    </g>
    <g id="xtick_2">
     <g id="line2d_3">
      <path d="M 139.410989 172.8 
L 139.410989 25.92 
" clip-path="url(#p0f9a0cfd62)" style="fill: none; stroke-dasharray: 6.4,1.6,1,1.6; stroke-dashoffset: 0; stroke: #808080; stroke-opacity: 0.3"/>
     </g>
     <g id="line2d_4">
      <g>
       <use xlink:href="#m15ba4f40e6" x="139.410989" y="172.8" style="stroke: #000000; stroke-width: 0.8"/>
      </g>
     </g>
     <g id="text_2">
      <!-- 2022-06 -->
      <g transform="translate(118.519583 187.398438) scale(0.1 -0.1)">
       <defs>
        <path id="DejaVuSans-36" d="M 2113 2584 
Q 1688 2584 1439 2293 
Q 1191 2003 1191 1497 
Q 1191 994 1439 701 
Q 1688 409 2113 409 
Q 2538 409 2786 701 
Q 3034 994 3034 1497 
Q 3034 2003 2786 2293 
Q 2538 2584 2113 2584 
z
M 3366 4563 
L 3366 3988 
Q 3128 4100 2886 4159 
Q 2644 4219 2406 4219 
Q 1781 4219 1451 3797 
Q 1122 3375 1075 2522 
Q 1259 2794 1537 2939 
Q 1816 3084 2150 3084 
Q 2853 3084 3261 2657 
Q 3669 2231 3669 1497 
Q 3669 778 3244 343 
Q 2819 -91 2113 -91 
Q 1303 -91 875 529 
Q 447 1150 447 2328 
Q 447 3434 972 4092 
Q 1497 4750 2381 4750 
Q 2619 4750 2861 4703 
Q 3103 4656 3366 4563 
z
" transform="scale(0.015625)"/>
       </defs>
       <use xlink:href="#DejaVuSans-32"/>
       <use xlink:href="#DejaVuSans-30" x="63.623047"/>
       <use xlink:href="#DejaVuSans-32" x="127.246094"/>
       <use xlink:href="#DejaVuSans-32" x="190.869141"/>
       <use xlink:href="#DejaVuSans-2d" x="254.492188"/>
       <use xlink:href="#DejaVuSans-30" x="290.576172"/>
       <use xlink:href="#DejaVuSans-36" x="354.199219"/>
      </g>
     </g>
    </g>
    <g id="xtick_3">
     <g id="line2d_5">
      <path d="M 188.07033 172.8 
L 188.07033 25.92 
" clip-path="url(#p0f9a0cfd62)" style="fill: none; stroke-dasharray: 6.4,1.6,1,1.6; stroke-dashoffset: 0; stroke: #808080; stroke-opacity: 0.3"/>
     </g>
     <g id="line2d_4">
      <g>
       <use xlink:href="#m15ba4f40e6" x="188.07033" y="172.8" style="stroke: #000000; stroke-width: 0.8"/>
      </g>
     </g>
     <g id="text_3">
      <!-- 2022-07 -->
      <g transform="translate(167.178923 187.398438) scale(0.1 -0.1)">
       <defs>
        <path id="DejaVuSans-37" d="M 525 4666 
L 3525 4666 
L 3525 4397 
L 1831 0 
L 1172 0 
L 2766 4134 
L 525 4134 
L 525 4666 
z
" transform="scale(0.015625)"/>
       </defs>
       <use xlink:href="#DejaVuSans-32"/>
       <use xlink:href="#DejaVuSans-30" x="63.623047"/>
       <use xlink:href="#DejaVuSans-32" x="127.246094"/>
       <use xlink:href="#DejaVuSans-32" x="190.869141"/>
       <use xlink:href="#DejaVuSans-2d" x="254.492188"/>
       <use xlink:href="#DejaVuSans-30" x="290.576172"/>
       <use xlink:href="#DejaVuSans-37" x="354.199219"/>
      </g>
     </g>
    </g>
    <g id="xtick_4">
     <g id="line2d_7">
      <path d="M 238.351648 172.8 
L 238.351648 25.92 
" clip-path="url(#p0f9a0cfd62)" style="fill: none; stroke-dasharray: 6.4,1.6,1,1.6; stroke-dashoffset: 0; stroke: #808080; stroke-opacity: 0.3"/>
     </g>
     <g id="line2d_6">
      <g>
       <use xlink:href="#m15ba4f40e6" x="238.351648" y="172.8" style="stroke: #000000; stroke-width: 0.8"/>
      </g>
     </g>
     <g id="text_4">
      <!-- 2022-08 -->
      <g transform="translate(217.460242 187.398438) scale(0.1 -0.1)">
       <defs>
        <path id="DejaVuSans-38" d="M 2034 2216 
Q 1584 2216 1326 1975 
Q 1069 1734 1069 1313 
Q 1069 891 1326 650 
Q 1584 409 2034 409 
Q 2484 409 2743 651 
Q 3003 894 3003 1313 
Q 3003 1734 2745 1975 
Q 2488 2216 2034 2216 
z
M 1403 2484 
Q 997 2584 770 2862 
Q 544 3141 544 3541 
Q 544 4100 942 4425 
Q 1341 4750 2034 4750 
Q 2731 4750 3128 4425 
Q 3525 4100 3525 3541 
Q 3525 3141 3298 2862 
Q 3072 2584 2669 2484 
Q 3125 2378 3379 2068 
Q 3634 1759 3634 1313 
Q 3634 634 3220 271 
Q 2806 -91 2034 -91 
Q 1263 -91 848 271 
Q 434 634 434 1313 
Q 434 1759 690 2068 
Q 947 2378 1403 2484 
z
M 1172 3481 
Q 1172 3119 1398 2916 
Q 1625 2713 2034 2713 
Q 2441 2713 2670 2916 
Q 2900 3119 2900 3481 
Q 2900 3844 2670 4047 
Q 2441 4250 2034 4250 
Q 1625 4250 1398 4047 
Q 1172 3844 1172 3481 
z
" transform="scale(0.015625)"/>
       </defs>
       <use xlink:href="#DejaVuSans-32"/>
       <use xlink:href="#DejaVuSans-30" x="63.623047"/>
       <use xlink:href="#DejaVuSans-32" x="127.246094"/>
       <use xlink:href="#DejaVuSans-32" x="190.869141"/>
       <use xlink:href="#DejaVuSans-2d" x="254.492188"/>
       <use xlink:href="#DejaVuSans-30" x="290.576172"/>
       <use xlink:href="#DejaVuSans-38" x="354.199219"/>
      </g>
     </g>
    </g>
    <g id="xtick_5">
     <g id="line2d_9">
      <path d="M 288.632967 172.8 
L 288.632967 25.92 
" clip-path="url(#p0f9a0cfd62)" style="fill: none; stroke-dasharray: 6.4,1.6,1,1.6; stroke-dashoffset: 0; stroke: #808080; stroke-opacity: 0.3"/>
     </g>
     <g id="line2d_8">
      <g>
       <use xlink:href="#m15ba4f40e6" x="288.632967" y="172.8" style="stroke: #000000; stroke-width: 0.8"/>
      </g>
     </g>
     <g id="text_5">
      <!-- 2022-09 -->
      <g transform="translate(267.741561 187.398438) scale(0.1 -0.1)">
       <defs>
        <path id="DejaVuSans-39" d="M 703 97 
L 703 672 
Q 941 559 1184 500 
Q 1428 441 1663 441 
Q 2288 441 2617 861 
Q 2947 1281 2994 2138 
Q 2813 1869 2534 1725 
Q 2256 1581 1919 1581 
Q 1219 1581 811 2004 
Q 403 2428 403 3163 
Q 403 3881 828 4315 
Q 1253 4750 1959 4750 
Q 2769 4750 3195 4129 
Q 3622 3509 3622 2328 
Q 3622 1225 3098 567 
Q 2575 -91 1691 -91 
Q 1453 -91 1209 -44 
Q 966 3 703 97 
z
M 1959 2075 
Q 2384 2075 2632 2365 
Q 2881 2656 2881 3163 
Q 2881 3666 2632 3958 
Q 2384 4250 1959 4250 
Q 1534 4250 1286 3958 
Q 1038 3666 1038 3163 
Q 1038 2656 1286 2365 
Q 1534 2075 1959 2075 
z
" transform="scale(0.015625)"/>
       </defs>
       <use xlink:href="#DejaVuSans-32"/>
       <use xlink:href="#DejaVuSans-30" x="63.623047"/>
       <use xlink:href="#DejaVuSans-32" x="127.246094"/>
       <use xlink:href="#DejaVuSans-32" x="190.869141"/>
       <use xlink:href="#DejaVuSans-2d" x="254.492188"/>
       <use xlink:href="#DejaVuSans-30" x="290.576172"/>
       <use xlink:href="#DejaVuSans-39" x="354.199219"/>
      </g>
     </g>
    </g>
    <g id="xtick_6">
     <g id="line2d_11">
      <path d="M 337.292308 172.8 
L 337.292308 25.92 
" clip-path="url(#p0f9a0cfd62)" style="fill: none; stroke-dasharray: 6.4,1.6,1,1.6; stroke-dashoffset: 0; stroke: #808080; stroke-opacity: 0.3"/>
     </g>
     <g id="line2d_10">
      <g>
       <use xlink:href="#m15ba4f40e6" x="337.292308" y="172.8" style="stroke: #000000; stroke-width: 0.8"/>
      </g>
     </g>
     <g id="text_6">
      <!-- 2022-10 -->
      <g transform="translate(316.400901 187.398438) scale(0.1 -0.1)">
       <defs>
        <path id="DejaVuSans-31" d="M 794 531 
L 1825 531 
L 1825 4091 
L 703 3866 
L 703 4441 
L 1819 4666 
L 2450 4666 
L 2450 531 
L 3481 531 
L 3481 0 
L 794 0 
L 794 531 
z
" transform="scale(0.015625)"/>
       </defs>
       <use xlink:href="#DejaVuSans-32"/>
       <use xlink:href="#DejaVuSans-30" x="63.623047"/>
       <use xlink:href="#DejaVuSans-32" x="127.246094"/>
       <use xlink:href="#DejaVuSans-32" x="190.869141"/>
       <use xlink:href="#DejaVuSans-2d" x="254.492188"/>
       <use xlink:href="#DejaVuSans-31" x="290.576172"/>
       <use xlink:href="#DejaVuSans-30" x="354.199219"/>
      </g>
     </g>
    </g>
    <g id="xtick_7">
     <g id="line2d_13">
      <path d="M 387.573626 172.8 
L 387.573626 25.92 
" clip-path="url(#p0f9a0cfd62)" style="fill: none; stroke-dasharray: 6.4,1.6,1,1.6; stroke-dashoffset: 0; stroke: #808080; stroke-opacity: 0.3"/>
     </g>
     <g id="line2d_12">
      <g>
       <use xlink:href="#m15ba4f40e6" x="387.573626" y="172.8" style="stroke: #000000; stroke-width: 0.8"/>
      </g>
     </g>
     <g id="text_7">
      <!-- 2022-11 -->
      <g transform="translate(366.68222 187.398438) scale(0.1 -0.1)">
       <use xlink:href="#DejaVuSans-32"/>
       <use xlink:href="#DejaVuSans-30" x="63.623047"/>
       <use xlink:href="#DejaVuSans-32" x="127.246094"/>
       <use xlink:href="#DejaVuSans-32" x="190.869141"/>
       <use xlink:href="#DejaVuSans-2d" x="254.492188"/>
       <use xlink:href="#DejaVuSans-31" x="290.576172"/>
       <use xlink:href="#DejaVuSans-31" x="354.199219"/>
      </g>
     </g>
    </g>
    <g id="xtick_8">
     <g id="line2d_15">
      <path d="M 436.232967 172.8 
L 436.232967 25.92 
" clip-path="url(#p0f9a0cfd62)" style="fill: none; stroke-dasharray: 6.4,1.6,1,1.6; stroke-dashoffset: 0; stroke: #808080; stroke-opacity: 0.3"/>
     </g>
     <g id="line2d_14">
      <g>
       <use xlink:href="#m15ba4f40e6" x="436.232967" y="172.8" style="stroke: #000000; stroke-width: 0.8"/>
      </g>
     </g>
     <g id="text_8">
      <!-- 2022-12 -->
      <g transform="translate(415.341561 187.398438) scale(0.1 -0.1)">
       <use xlink:href="#DejaVuSans-32"/>
       <use xlink:href="#DejaVuSans-30" x="63.623047"/>
       <use xlink:href="#DejaVuSans-32" x="127.246094"/>
       <use xlink:href="#DejaVuSans-32" x="190.869141"/>
       <use xlink:href="#DejaVuSans-2d" x="254.492188"/>
       <use xlink:href="#DejaVuSans-31" x="290.576172"/>
       <use xlink:href="#DejaVuSans-32" x="354.199219"/>
      </g>
     </g>
    </g>
    <g id="xtick_9">
     <g id="line2d_17">
      <path d="M 486.514286 172.8 
L 486.514286 25.92 
" clip-path="url(#p0f9a0cfd62)" style="fill: none; stroke-dasharray: 6.4,1.6,1,1.6; stroke-dashoffset: 0; stroke: #808080; stroke-opacity: 0.3"/>
     </g>
     <g id="line2d_16">
      <g>
       <use xlink:href="#m15ba4f40e6" x="486.514286" y="172.8" style="stroke: #000000; stroke-width: 0.8"/>
      </g>
     </g>
     <g id="text_9">
      <!-- 2023-01 -->
      <g transform="translate(465.622879 187.398438) scale(0.1 -0.1)">
       <defs>
        <path id="DejaVuSans-33" d="M 2597 2516 
Q 3050 2419 3304 2112 
Q 3559 1806 3559 1356 
Q 3559 666 3084 287 
Q 2609 -91 1734 -91 
Q 1441 -91 1130 -33 
Q 819 25 488 141 
L 488 750 
Q 750 597 1062 519 
Q 1375 441 1716 441 
Q 2309 441 2620 675 
Q 2931 909 2931 1356 
Q 2931 1769 2642 2001 
Q 2353 2234 1838 2234 
L 1294 2234 
L 1294 2753 
L 1863 2753 
Q 2328 2753 2575 2939 
Q 2822 3125 2822 3475 
Q 2822 3834 2567 4026 
Q 2313 4219 1838 4219 
Q 1578 4219 1281 4162 
Q 984 4106 628 3988 
L 628 4550 
Q 988 4650 1302 4700 
Q 1616 4750 1894 4750 
Q 2613 4750 3031 4423 
Q 3450 4097 3450 3541 
Q 3450 3153 3228 2886 
Q 3006 2619 2597 2516 
z
" transform="scale(0.015625)"/>
       </defs>
       <use xlink:href="#DejaVuSans-32"/>
       <use xlink:href="#DejaVuSans-30" x="63.623047"/>
       <use xlink:href="#DejaVuSans-32" x="127.246094"/>
       <use xlink:href="#DejaVuSans-33" x="190.869141"/>
       <use xlink:href="#DejaVuSans-2d" x="254.492188"/>
       <use xlink:href="#DejaVuSans-30" x="290.576172"/>
       <use xlink:href="#DejaVuSans-31" x="354.199219"/>
      </g>
     </g>
    </g>
    <g id="xtick_10">
     <g id="line2d_19">
      <path d="M 536.795604 172.8 
L 536.795604 25.92 
" clip-path="url(#p0f9a0cfd62)" style="fill: none; stroke-dasharray: 6.4,1.6,1,1.6; stroke-dashoffset: 0; stroke: #808080; stroke-opacity: 0.3"/>
     </g>
     <g id="line2d_18">
      <g>
       <use xlink:href="#m15ba4f40e6" x="536.795604" y="172.8" style="stroke: #000000; stroke-width: 0.8"/>
      </g>
     </g>
     <g id="text_10">
      <!-- 2023-02 -->
      <g transform="translate(515.904198 187.398438) scale(0.1 -0.1)">
       <use xlink:href="#DejaVuSans-32"/>
       <use xlink:href="#DejaVuSans-30" x="63.623047"/>
       <use xlink:href="#DejaVuSans-32" x="127.246094"/>
       <use xlink:href="#DejaVuSans-33" x="190.869141"/>
       <use xlink:href="#DejaVuSans-2d" x="254.492188"/>
       <use xlink:href="#DejaVuSans-30" x="290.576172"/>
       <use xlink:href="#DejaVuSans-32" x="354.199219"/>
      </g>
     </g>
    </g>
    <g id="xtick_10">
     <g id="line2d_19">
      <path clip-path="url(#pc68e13a90f)" d="M 536.795604 172.8 
L 536.795604 25.92 
" style="fill:none;stroke:#808080;stroke-dasharray:6.4,1.6,1,1.6;stroke-dashoffset:0;stroke-opacity:0.3;"/>
     </g>
     <g id="line2d_20">
      <g>
       <use style="stroke:#000000;stroke-width:0.8;" x="536.795604" xlink:href="#m368b06453b" y="172.8"/>
      </g>
     </g>
     <g id="text_10">
      <!-- 2023-02 -->
      <g transform="translate(515.904198 187.398438)scale(0.1 -0.1)">
       <use xlink:href="#DejaVuSans-50"/>
       <use x="63.623047" xlink:href="#DejaVuSans-48"/>
       <use x="127.246094" xlink:href="#DejaVuSans-50"/>
       <use x="190.869141" xlink:href="#DejaVuSans-51"/>
       <use x="254.492188" xlink:href="#DejaVuSans-45"/>
       <use x="290.576172" xlink:href="#DejaVuSans-48"/>
       <use x="354.199219" xlink:href="#DejaVuSans-50"/>
      </g>
     </g>
    </g>
    <g id="xtick_11">
     <g id="line2d_21">
      <path d="M 582.210989 172.8 
L 582.210989 25.92 
" clip-path="url(#p0f9a0cfd62)" style="fill: none; stroke-dasharray: 6.4,1.6,1,1.6; stroke-dashoffset: 0; stroke: #808080; stroke-opacity: 0.3"/>
     </g>
     <g id="line2d_22">
      <g>
       <use xlink:href="#m15ba4f40e6" x="582.210989" y="172.8" style="stroke: #000000; stroke-width: 0.8"/>
      </g>
     </g>
     <g id="text_11">
      <!-- 2023-03 -->
      <g transform="translate(561.319583 187.398438) scale(0.1 -0.1)">
       <use xlink:href="#DejaVuSans-32"/>
       <use xlink:href="#DejaVuSans-30" x="63.623047"/>
       <use xlink:href="#DejaVuSans-32" x="127.246094"/>
       <use xlink:href="#DejaVuSans-33" x="190.869141"/>
       <use xlink:href="#DejaVuSans-2d" x="254.492188"/>
       <use xlink:href="#DejaVuSans-30" x="290.576172"/>
       <use xlink:href="#DejaVuSans-33" x="354.199219"/>
      </g>
     </g>
    </g>
    <g id="xtick_12">
     <g id="line2d_23">
      <path d="M 632.492308 172.8 
L 632.492308 25.92 
" clip-path="url(#p0f9a0cfd62)" style="fill: none; stroke-dasharray: 6.4,1.6,1,1.6; stroke-dashoffset: 0; stroke: #808080; stroke-opacity: 0.3"/>
     </g>
     <g id="line2d_24">
      <g>
       <use xlink:href="#m15ba4f40e6" x="632.492308" y="172.8" style="stroke: #000000; stroke-width: 0.8"/>
      </g>
     </g>
     <g id="text_12">
      <!-- 2023-04 -->
      <g transform="translate(611.600901 187.398438) scale(0.1 -0.1)">
       <defs>
        <path id="DejaVuSans-34" d="M 2419 4116 
L 825 1625 
L 2419 1625 
L 2419 4116 
z
M 2253 4666 
L 3047 4666 
L 3047 1625 
L 3713 1625 
L 3713 1100 
L 3047 1100 
L 3047 0 
L 2419 0 
L 2419 1100 
L 313 1100 
L 313 1709 
L 2253 4666 
z
" transform="scale(0.015625)"/>
       </defs>
       <use xlink:href="#DejaVuSans-32"/>
       <use xlink:href="#DejaVuSans-30" x="63.623047"/>
       <use xlink:href="#DejaVuSans-32" x="127.246094"/>
       <use xlink:href="#DejaVuSans-33" x="190.869141"/>
       <use xlink:href="#DejaVuSans-2d" x="254.492188"/>
       <use xlink:href="#DejaVuSans-30" x="290.576172"/>
       <use xlink:href="#DejaVuSans-34" x="354.199219"/>
      </g>
     </g>
    </g>
    <g id="text_13">
     <!-- Datum -->
     <g transform="translate(343.086719 201.076562) scale(0.1 -0.1)">
      <defs>
       <path id="DejaVuSans-44" d="M 1259 4147 
L 1259 519 
L 2022 519 
Q 2988 519 3436 956 
Q 3884 1394 3884 2338 
Q 3884 3275 3436 3711 
Q 2988 4147 2022 4147 
L 1259 4147 
z
M 628 4666 
L 1925 4666 
Q 3281 4666 3915 4102 
Q 4550 3538 4550 2338 
Q 4550 1131 3912 565 
Q 3275 0 1925 0 
L 628 0 
L 628 4666 
z
" transform="scale(0.015625)"/>
       <path id="DejaVuSans-61" d="M 2194 1759 
Q 1497 1759 1228 1600 
Q 959 1441 959 1056 
Q 959 750 1161 570 
Q 1363 391 1709 391 
Q 2188 391 2477 730 
Q 2766 1069 2766 1631 
L 2766 1759 
L 2194 1759 
z
M 3341 1997 
L 3341 0 
L 2766 0 
L 2766 531 
Q 2569 213 2275 61 
Q 1981 -91 1556 -91 
Q 1019 -91 701 211 
Q 384 513 384 1019 
Q 384 1609 779 1909 
Q 1175 2209 1959 2209 
L 2766 2209 
L 2766 2266 
Q 2766 2663 2505 2880 
Q 2244 3097 1772 3097 
Q 1472 3097 1187 3025 
Q 903 2953 641 2809 
L 641 3341 
Q 956 3463 1253 3523 
Q 1550 3584 1831 3584 
Q 2591 3584 2966 3190 
Q 3341 2797 3341 1997 
z
" transform="scale(0.015625)"/>
       <path id="DejaVuSans-74" d="M 1172 4494 
L 1172 3500 
L 2356 3500 
L 2356 3053 
L 1172 3053 
L 1172 1153 
Q 1172 725 1289 603 
Q 1406 481 1766 481 
L 2356 481 
L 2356 0 
L 1766 0 
Q 1100 0 847 248 
Q 594 497 594 1153 
L 594 3053 
L 172 3053 
L 172 3500 
L 594 3500 
L 594 4494 
L 1172 4494 
z
" transform="scale(0.015625)"/>
       <path id="DejaVuSans-75" d="M 544 1381 
L 544 3500 
L 1119 3500 
L 1119 1403 
Q 1119 906 1312 657 
Q 1506 409 1894 409 
Q 2359 409 2629 706 
Q 2900 1003 2900 1516 
L 2900 3500 
L 3475 3500 
L 3475 0 
L 2900 0 
L 2900 538 
Q 2691 219 2414 64 
Q 2138 -91 1772 -91 
Q 1169 -91 856 284 
Q 544 659 544 1381 
z
M 1991 3584 
L 1991 3584 
z
" transform="scale(0.015625)"/>
       <path id="DejaVuSans-6d" d="M 3328 2828 
Q 3544 3216 3844 3400 
Q 4144 3584 4550 3584 
Q 5097 3584 5394 3201 
Q 5691 2819 5691 2113 
L 5691 0 
L 5113 0 
L 5113 2094 
Q 5113 2597 4934 2840 
Q 4756 3084 4391 3084 
Q 3944 3084 3684 2787 
Q 3425 2491 3425 1978 
L 3425 0 
L 2847 0 
L 2847 2094 
Q 2847 2600 2669 2842 
Q 2491 3084 2119 3084 
Q 1678 3084 1418 2786 
Q 1159 2488 1159 1978 
L 1159 0 
L 581 0 
L 581 3500 
L 1159 3500 
L 1159 2956 
Q 1356 3278 1631 3431 
Q 1906 3584 2284 3584 
Q 2666 3584 2933 3390 
Q 3200 3197 3328 2828 
z
" transform="scale(0.015625)"/>
      </defs>
      <use xlink:href="#DejaVuSans-44"/>
      <use xlink:href="#DejaVuSans-61" x="77.001953"/>
      <use xlink:href="#DejaVuSans-74" x="138.28125"/>
      <use xlink:href="#DejaVuSans-75" x="177.490234"/>
      <use xlink:href="#DejaVuSans-6d" x="240.869141"/>
     </g>
    </g>
   </g>
   <g id="matplotlib.axis_2">
    <g id="ytick_1">
     <g id="line2d_25">
      <path d="M 64.8 172.8 
L 655.2 172.8 
" clip-path="url(#p0f9a0cfd62)" style="fill: none; stroke-dasharray: 6.4,1.6,1,1.6; stroke-dashoffset: 0; stroke: #808080; stroke-opacity: 0.3"/>
     </g>
     <g id="line2d_26">
      <defs>
       <path id="m0476eecbde" d="M 0 0 
L -3.5 0 
" style="stroke: #000000; stroke-width: 0.8"/>
      </defs>
      <g>
       <use xlink:href="#m0476eecbde" x="64.8" y="172.8" style="stroke: #000000; stroke-width: 0.8"/>
      </g>
     </g>
     <g id="text_14">
      <!-- 0 -->
      <g transform="translate(51.4375 176.599219) scale(0.1 -0.1)">
       <use xlink:href="#DejaVuSans-30"/>
      </g>
     </g>
    </g>
    <g id="ytick_2">
     <g id="line2d_27">
      <path d="M 64.8 148.32 
L 655.2 148.32 
" clip-path="url(#p0f9a0cfd62)" style="fill: none; stroke-dasharray: 6.4,1.6,1,1.6; stroke-dashoffset: 0; stroke: #808080; stroke-opacity: 0.3"/>
     </g>
     <g id="line2d_28">
      <g>
       <use xlink:href="#m0476eecbde" x="64.8" y="148.32" style="stroke: #000000; stroke-width: 0.8"/>
      </g>
     </g>
     <g id="text_15">
      <!-- 50T -->
      <g transform="translate(38.967187 152.119219) scale(0.1 -0.1)">
       <defs>
        <path id="DejaVuSans-54" d="M -19 4666 
L 3928 4666 
L 3928 4134 
L 2272 4134 
L 2272 0 
L 1638 0 
L 1638 4134 
L -19 4134 
L -19 4666 
z
" transform="scale(0.015625)"/>
       </defs>
       <use xlink:href="#DejaVuSans-35"/>
       <use xlink:href="#DejaVuSans-30" x="63.623047"/>
       <use xlink:href="#DejaVuSans-54" x="127.246094"/>
      </g>
     </g>
    </g>
    <g id="ytick_3">
     <g id="line2d_29">
      <path d="M 64.8 123.84 
L 655.2 123.84 
" clip-path="url(#p0f9a0cfd62)" style="fill: none; stroke-dasharray: 6.4,1.6,1,1.6; stroke-dashoffset: 0; stroke: #808080; stroke-opacity: 0.3"/>
     </g>
     <g id="line2d_30">
      <g>
       <use xlink:href="#m0476eecbde" x="64.8" y="123.84" style="stroke: #000000; stroke-width: 0.8"/>
      </g>
     </g>
     <g id="text_16">
      <!-- 100T -->
      <g transform="translate(32.604687 127.639219) scale(0.1 -0.1)">
       <use xlink:href="#DejaVuSans-31"/>
       <use xlink:href="#DejaVuSans-30" x="63.623047"/>
       <use xlink:href="#DejaVuSans-30" x="127.246094"/>
       <use xlink:href="#DejaVuSans-54" x="190.869141"/>
      </g>
     </g>
    </g>
    <g id="ytick_4">
     <g id="line2d_31">
      <path d="M 64.8 99.36 
L 655.2 99.36 
" clip-path="url(#p0f9a0cfd62)" style="fill: none; stroke-dasharray: 6.4,1.6,1,1.6; stroke-dashoffset: 0; stroke: #808080; stroke-opacity: 0.3"/>
     </g>
     <g id="line2d_32">
      <g>
       <use xlink:href="#m0476eecbde" x="64.8" y="99.36" style="stroke: #000000; stroke-width: 0.8"/>
      </g>
     </g>
     <g id="text_17">
      <!-- 150T -->
      <g transform="translate(32.604687 103.159219) scale(0.1 -0.1)">
       <use xlink:href="#DejaVuSans-31"/>
       <use xlink:href="#DejaVuSans-35" x="63.623047"/>
       <use xlink:href="#DejaVuSans-30" x="127.246094"/>
       <use xlink:href="#DejaVuSans-54" x="190.869141"/>
      </g>
     </g>
    </g>
    <g id="ytick_5">
     <g id="line2d_33">
      <path d="M 64.8 74.88 
L 655.2 74.88 
" clip-path="url(#p0f9a0cfd62)" style="fill: none; stroke-dasharray: 6.4,1.6,1,1.6; stroke-dashoffset: 0; stroke: #808080; stroke-opacity: 0.3"/>
     </g>
     <g id="line2d_34">
      <g>
       <use xlink:href="#m0476eecbde" x="64.8" y="74.88" style="stroke: #000000; stroke-width: 0.8"/>
      </g>
     </g>
     <g id="text_18">
      <!-- 200T -->
      <g transform="translate(32.604687 78.679219) scale(0.1 -0.1)">
       <use xlink:href="#DejaVuSans-32"/>
       <use xlink:href="#DejaVuSans-30" x="63.623047"/>
       <use xlink:href="#DejaVuSans-30" x="127.246094"/>
       <use xlink:href="#DejaVuSans-54" x="190.869141"/>
      </g>
     </g>
    </g>
    <g id="ytick_6">
     <g id="line2d_35">
      <path d="M 64.8 50.4 
L 655.2 50.4 
" clip-path="url(#p0f9a0cfd62)" style="fill: none; stroke-dasharray: 6.4,1.6,1,1.6; stroke-dashoffset: 0; stroke: #808080; stroke-opacity: 0.3"/>
     </g>
     <g id="line2d_36">
      <g>
       <use xlink:href="#m0476eecbde" x="64.8" y="50.4" style="stroke: #000000; stroke-width: 0.8"/>
      </g>
     </g>
     <g id="text_19">
      <!-- 250T -->
      <g transform="translate(32.604687 54.199219) scale(0.1 -0.1)">
       <use xlink:href="#DejaVuSans-32"/>
       <use xlink:href="#DejaVuSans-35" x="63.623047"/>
       <use xlink:href="#DejaVuSans-30" x="127.246094"/>
       <use xlink:href="#DejaVuSans-54" x="190.869141"/>
      </g>
     </g>
    </g>
    <g id="ytick_7">
     <g id="line2d_37">
      <path d="M 64.8 25.92 
L 655.2 25.92 
" clip-path="url(#p0f9a0cfd62)" style="fill: none; stroke-dasharray: 6.4,1.6,1,1.6; stroke-dashoffset: 0; stroke: #808080; stroke-opacity: 0.3"/>
     </g>
     <g id="line2d_38">
      <g>
       <use xlink:href="#m0476eecbde" x="64.8" y="25.92" style="stroke: #000000; stroke-width: 0.8"/>
      </g>
     </g>
     <g id="text_20">
      <!-- 300T -->
      <g transform="translate(32.604687 29.719219) scale(0.1 -0.1)">
       <use xlink:href="#DejaVuSans-33"/>
       <use xlink:href="#DejaVuSans-30" x="63.623047"/>
       <use xlink:href="#DejaVuSans-30" x="127.246094"/>
       <use xlink:href="#DejaVuSans-54" x="190.869141"/>
      </g>
     </g>
    </g>
    <g id="text_21">
     <!-- Deeltjes per 100k inwoners -->
     <g transform="translate(26.525 167.906875) rotate(-90) scale(0.1 -0.1)">
      <defs>
       <path id="DejaVuSans-65" d="M 3597 1894 
L 3597 1613 
L 953 1613 
Q 991 1019 1311 708 
Q 1631 397 2203 397 
Q 2534 397 2845 478 
Q 3156 559 3463 722 
L 3463 178 
Q 3153 47 2828 -22 
Q 2503 -91 2169 -91 
Q 1331 -91 842 396 
Q 353 884 353 1716 
Q 353 2575 817 3079 
Q 1281 3584 2069 3584 
Q 2775 3584 3186 3129 
Q 3597 2675 3597 1894 
z
M 3022 2063 
Q 3016 2534 2758 2815 
Q 2500 3097 2075 3097 
Q 1594 3097 1305 2825 
Q 1016 2553 972 2059 
L 3022 2063 
z
" transform="scale(0.015625)"/>
       <path id="DejaVuSans-6c" d="M 603 4863 
L 1178 4863 
L 1178 0 
L 603 0 
L 603 4863 
z
" transform="scale(0.015625)"/>
       <path id="DejaVuSans-6a" d="M 603 3500 
L 1178 3500 
L 1178 -63 
Q 1178 -731 923 -1031 
Q 669 -1331 103 -1331 
L -116 -1331 
L -116 -844 
L 38 -844 
Q 366 -844 484 -692 
Q 603 -541 603 -63 
L 603 3500 
z
M 603 4863 
L 1178 4863 
L 1178 4134 
L 603 4134 
L 603 4863 
z
" transform="scale(0.015625)"/>
       <path id="DejaVuSans-73" d="M 2834 3397 
L 2834 2853 
Q 2591 2978 2328 3040 
Q 2066 3103 1784 3103 
Q 1356 3103 1142 2972 
Q 928 2841 928 2578 
Q 928 2378 1081 2264 
Q 1234 2150 1697 2047 
L 1894 2003 
Q 2506 1872 2764 1633 
Q 3022 1394 3022 966 
Q 3022 478 2636 193 
Q 2250 -91 1575 -91 
Q 1294 -91 989 -36 
Q 684 19 347 128 
L 347 722 
Q 666 556 975 473 
Q 1284 391 1588 391 
Q 1994 391 2212 530 
Q 2431 669 2431 922 
Q 2431 1156 2273 1281 
Q 2116 1406 1581 1522 
L 1381 1569 
Q 847 1681 609 1914 
Q 372 2147 372 2553 
Q 372 3047 722 3315 
Q 1072 3584 1716 3584 
Q 2034 3584 2315 3537 
Q 2597 3491 2834 3397 
z
" transform="scale(0.015625)"/>
       <path id="DejaVuSans-20" transform="scale(0.015625)"/>
       <path id="DejaVuSans-70" d="M 1159 525 
L 1159 -1331 
L 581 -1331 
L 581 3500 
L 1159 3500 
L 1159 2969 
Q 1341 3281 1617 3432 
Q 1894 3584 2278 3584 
Q 2916 3584 3314 3078 
Q 3713 2572 3713 1747 
Q 3713 922 3314 415 
Q 2916 -91 2278 -91 
Q 1894 -91 1617 61 
Q 1341 213 1159 525 
z
M 3116 1747 
Q 3116 2381 2855 2742 
Q 2594 3103 2138 3103 
Q 1681 3103 1420 2742 
Q 1159 2381 1159 1747 
Q 1159 1113 1420 752 
Q 1681 391 2138 391 
Q 2594 391 2855 752 
Q 3116 1113 3116 1747 
z
" transform="scale(0.015625)"/>
       <path id="DejaVuSans-72" d="M 2631 2963 
Q 2534 3019 2420 3045 
Q 2306 3072 2169 3072 
Q 1681 3072 1420 2755 
Q 1159 2438 1159 1844 
L 1159 0 
L 581 0 
L 581 3500 
L 1159 3500 
L 1159 2956 
Q 1341 3275 1631 3429 
Q 1922 3584 2338 3584 
Q 2397 3584 2469 3576 
Q 2541 3569 2628 3553 
L 2631 2963 
z
" transform="scale(0.015625)"/>
       <path id="DejaVuSans-6b" d="M 581 4863 
L 1159 4863 
L 1159 1991 
L 2875 3500 
L 3609 3500 
L 1753 1863 
L 3688 0 
L 2938 0 
L 1159 1709 
L 1159 0 
L 581 0 
L 581 4863 
z
" transform="scale(0.015625)"/>
       <path id="DejaVuSans-69" d="M 603 3500 
L 1178 3500 
L 1178 0 
L 603 0 
L 603 3500 
z
M 603 4863 
L 1178 4863 
L 1178 4134 
L 603 4134 
L 603 4863 
z
" transform="scale(0.015625)"/>
       <path id="DejaVuSans-6e" d="M 3513 2113 
L 3513 0 
L 2938 0 
L 2938 2094 
Q 2938 2591 2744 2837 
Q 2550 3084 2163 3084 
Q 1697 3084 1428 2787 
Q 1159 2491 1159 1978 
L 1159 0 
L 581 0 
L 581 3500 
L 1159 3500 
L 1159 2956 
Q 1366 3272 1645 3428 
Q 1925 3584 2291 3584 
Q 2894 3584 3203 3211 
Q 3513 2838 3513 2113 
z
" transform="scale(0.015625)"/>
       <path id="DejaVuSans-77" d="M 269 3500 
L 844 3500 
L 1563 769 
L 2278 3500 
L 2956 3500 
L 3675 769 
L 4391 3500 
L 4966 3500 
L 4050 0 
L 3372 0 
L 2619 2869 
L 1863 0 
L 1184 0 
L 269 3500 
z
" transform="scale(0.015625)"/>
       <path id="DejaVuSans-6f" d="M 1959 3097 
Q 1497 3097 1228 2736 
Q 959 2375 959 1747 
Q 959 1119 1226 758 
Q 1494 397 1959 397 
Q 2419 397 2687 759 
Q 2956 1122 2956 1747 
Q 2956 2369 2687 2733 
Q 2419 3097 1959 3097 
z
M 1959 3584 
Q 2709 3584 3137 3096 
Q 3566 2609 3566 1747 
Q 3566 888 3137 398 
Q 2709 -91 1959 -91 
Q 1206 -91 779 398 
Q 353 888 353 1747 
Q 353 2609 779 3096 
Q 1206 3584 1959 3584 
z
" transform="scale(0.015625)"/>
      </defs>
      <use xlink:href="#DejaVuSans-44"/>
      <use xlink:href="#DejaVuSans-65" x="77.001953"/>
      <use xlink:href="#DejaVuSans-65" x="138.525391"/>
      <use xlink:href="#DejaVuSans-6c" x="200.048828"/>
      <use xlink:href="#DejaVuSans-74" x="227.832031"/>
      <use xlink:href="#DejaVuSans-6a" x="267.041016"/>
      <use xlink:href="#DejaVuSans-65" x="294.824219"/>
      <use xlink:href="#DejaVuSans-73" x="356.347656"/>
      <use xlink:href="#DejaVuSans-20" x="408.447266"/>
      <use xlink:href="#DejaVuSans-70" x="440.234375"/>
      <use xlink:href="#DejaVuSans-65" x="503.710938"/>
      <use xlink:href="#DejaVuSans-72" x="565.234375"/>
      <use xlink:href="#DejaVuSans-20" x="606.347656"/>
      <use xlink:href="#DejaVuSans-31" x="638.134766"/>
      <use xlink:href="#DejaVuSans-30" x="701.757812"/>
      <use xlink:href="#DejaVuSans-30" x="765.380859"/>
      <use xlink:href="#DejaVuSans-6b" x="829.003906"/>
      <use xlink:href="#DejaVuSans-20" x="886.914062"/>
      <use xlink:href="#DejaVuSans-69" x="918.701172"/>
      <use xlink:href="#DejaVuSans-6e" x="946.484375"/>
      <use xlink:href="#DejaVuSans-77" x="1009.863281"/>
      <use xlink:href="#DejaVuSans-6f" x="1091.650391"/>
      <use xlink:href="#DejaVuSans-6e" x="1152.832031"/>
      <use xlink:href="#DejaVuSans-65" x="1216.210938"/>
      <use xlink:href="#DejaVuSans-72" x="1277.734375"/>
      <use xlink:href="#DejaVuSans-73" x="1318.847656"/>
     </g>
    </g>
   </g>
   <g id="line2d_39">
    <path d="M 64.8 141.268326 
L 76.153846 150.362804 
L 79.397802 152.493114 
L 82.641758 154.227493 
L 84.263736 154.928096 
L 87.507692 155.995758 
L 90.751648 156.744421 
L 93.995604 157.213772 
L 97.23956 157.554971 
L 103.727473 157.773802 
L 108.593407 157.960703 
L 113.459341 158.332879 
L 124.813187 158.977054 
L 126.435165 158.867826 
L 129.679121 158.210315 
L 134.545055 156.362431 
L 137.789011 154.638751 
L 141.032967 152.556873 
L 144.276923 149.9387 
L 147.520879 146.94651 
L 149.142857 145.494596 
L 154.008791 140.552218 
L 157.252747 136.674735 
L 170.228571 119.890087 
L 173.472527 116.093331 
L 176.716484 112.944068 
L 178.338462 111.608414 
L 181.582418 109.204876 
L 186.448352 106.412779 
L 188.07033 105.733069 
L 189.692308 104.89503 
L 192.936264 102.970912 
L 196.18022 101.096646 
L 201.046154 98.131616 
L 204.29011 96.465643 
L 205.912088 95.862081 
L 207.534066 95.418823 
L 209.156044 95.174683 
L 210.778022 95.362112 
L 214.021978 96.698479 
L 215.643956 97.649902 
L 217.265934 98.77172 
L 220.50989 101.833309 
L 223.753846 106.323279 
L 230.241758 115.582744 
L 236.72967 124.434703 
L 239.973626 129.006162 
L 241.595604 131.12885 
L 244.83956 134.423111 
L 248.083516 137.549107 
L 249.705495 138.971525 
L 252.949451 141.355986 
L 254.571429 142.324631 
L 257.815385 143.698134 
L 261.059341 144.580732 
L 264.303297 145.28966 
L 265.925275 145.709333 
L 269.169231 146.177959 
L 274.035165 146.591072 
L 277.279121 146.695085 
L 280.523077 146.454651 
L 285.389011 145.542224 
L 290.254945 144.442158 
L 293.498901 143.663115 
L 299.986813 141.904696 
L 304.852747 140.766484 
L 306.474725 140.082111 
L 308.096703 139.186475 
L 309.718681 138.054689 
L 312.962637 135.231143 
L 314.584615 133.738022 
L 317.828571 130.182714 
L 319.450549 128.06283 
L 321.072527 125.628019 
L 322.694505 122.863787 
L 325.938462 116.788945 
L 327.56044 113.568653 
L 330.804396 110.325326 
L 334.048352 104.245529 
L 337.292308 98.458209 
L 340.536264 93.391391 
L 343.78022 89.046639 
L 345.402198 87.526131 
L 347.024176 86.370032 
L 348.646154 85.40164 
L 350.268132 85.035947 
L 353.512088 85.04995 
L 355.134066 85.158938 
L 356.756044 85.43407 
L 358.378022 85.9889 
L 360 86.7726 
L 361.621978 87.860349 
L 363.243956 89.105332 
L 368.10989 94.318477 
L 369.731868 96.498548 
L 372.975824 100.447092 
L 376.21978 105.148268 
L 381.085714 112.525338 
L 384.32967 117.025049 
L 387.573626 120.738123 
L 389.195604 122.471599 
L 394.061538 126.475081 
L 397.305495 128.432686 
L 398.927473 129.134251 
L 402.171429 130.019938 
L 403.793407 130.142822 
L 407.037363 130.02225 
L 408.659341 129.879981 
L 410.281319 129.422055 
L 413.525275 128.70051 
L 416.769231 127.898297 
L 418.391209 127.266856 
L 421.635165 126.292213 
L 423.257143 125.691104 
L 428.123077 124.52455 
L 429.745055 124.202524 
L 431.367033 124.196127 
L 434.610989 123.860458 
L 436.232967 123.59899 
L 437.854945 123.15866 
L 439.476923 122.555249 
L 441.098901 121.575003 
L 442.720879 120.424034 
L 444.342857 118.932931 
L 445.964835 117.013336 
L 447.586813 114.716063 
L 449.208791 112.209702 
L 450.830769 109.212376 
L 454.074725 102.316252 
L 462.184615 82.29213 
L 463.806593 78.763909 
L 465.428571 75.651628 
L 467.050549 73.127559 
L 468.672527 71.347875 
L 470.294505 69.908881 
L 471.916484 69.290267 
L 473.538462 69.242857 
L 475.16044 69.677328 
L 476.782418 71.162974 
L 478.404396 73.173992 
L 480.026374 75.550556 
L 481.648352 78.845816 
L 483.27033 82.497804 
L 484.892308 86.663606 
L 496.246154 119.522752 
L 499.49011 127.454216 
L 501.112088 131.145948 
L 502.734066 134.381677 
L 504.356044 137.345473 
L 505.978022 139.933195 
L 507.6 141.987087 
L 510.843956 145.480721 
L 512.465934 146.886842 
L 514.087912 148.051948 
L 515.70989 149.047606 
L 517.331868 149.738096 
L 518.953846 150.134505 
L 520.575824 150.333052 
L 522.197802 150.284073 
L 523.81978 149.959356 
L 527.063736 148.832294 
L 528.685714 148.110366 
L 531.92967 146.278725 
L 535.173626 144.04829 
L 538.417582 141.769071 
L 543.283516 138.688956 
L 544.905495 137.610656 
L 546.527473 136.38853 
L 549.771429 133.6283 
L 553.015385 130.124947 
L 556.259341 125.622563 
L 557.881319 122.932131 
L 564.369231 110.548541 
L 569.235165 100.840814 
L 570.857143 97.235876 
L 574.101099 90.83699 
L 575.723077 88.153064 
L 577.345055 85.786784 
L 578.967033 84.024839 
L 580.589011 82.655377 
L 582.210989 81.442831 
L 583.832967 80.453668 
L 585.454945 79.884024 
L 588.698901 79.571433 
L 590.320879 79.904034 
L 593.564835 81.873606 
L 600.052747 86.177882 
L 604.918681 89.257753 
L 608.162637 90.79759 
L 611.406593 92.992273 
L 613.028571 93.90894 
L 614.650549 95.009754 
L 616.272527 96.370432 
L 617.894505 98.070041 
L 621.138462 102.170693 
L 622.76044 104.428185 
L 626.004396 109.517455 
L 629.248352 115.506666 
L 637.358242 131.026233 
L 637.358242 131.026233 
" clip-path="url(#p0f9a0cfd62)" style="fill: none; stroke: #008000; stroke-width: 1.5; stroke-linecap: square"/>
   </g>
   <g id="line2d_40">
    <path d="M 645.468132 172.8 
L 645.468132 25.92 
" clip-path="url(#p0f9a0cfd62)" style="fill: none; stroke: #ff0000; stroke-width: 0.5; stroke-linecap: square"/>
   </g>
   <g id="patch_3">
    <path d="M 64.8 172.8 
L 64.8 25.92 
" style="fill: none; stroke: #000000; stroke-width: 0.8; stroke-linejoin: miter; stroke-linecap: square"/>
   </g>
   <g id="patch_4">
    <path d="M 655.2 172.8 
L 655.2 25.92 
" style="fill: none; stroke: #000000; stroke-width: 0.8; stroke-linejoin: miter; stroke-linecap: square"/>
   </g>
   <g id="patch_5">
    <path d="M 64.8 172.8 
L 655.2 172.8 
" style="fill: none; stroke: #000000; stroke-width: 0.8; stroke-linejoin: miter; stroke-linecap: square"/>
   </g>
   <g id="patch_6">
    <path d="M 64.8 25.92 
L 655.2 25.92 
" style="fill: none; stroke: #000000; stroke-width: 0.8; stroke-linejoin: miter; stroke-linecap: square"/>
   </g>
   <g id="text_22">
    <!-- Concentratie SARS-CoV-2 RNA in rioolwater per 100.000 inwoners -->
    <g transform="translate(161.8425 19.92) scale(0.12 -0.12)">
     <defs>
      <path id="DejaVuSans-43" d="M 4122 4306 
L 4122 3641 
Q 3803 3938 3442 4084 
Q 3081 4231 2675 4231 
Q 1875 4231 1450 3742 
Q 1025 3253 1025 2328 
Q 1025 1406 1450 917 
Q 1875 428 2675 428 
Q 3081 428 3442 575 
Q 3803 722 4122 1019 
L 4122 359 
Q 3791 134 3420 21 
Q 3050 -91 2638 -91 
Q 1578 -91 968 557 
Q 359 1206 359 2328 
Q 359 3453 968 4101 
Q 1578 4750 2638 4750 
Q 3056 4750 3426 4639 
Q 3797 4528 4122 4306 
z
" transform="scale(0.015625)"/>
      <path id="DejaVuSans-63" d="M 3122 3366 
L 3122 2828 
Q 2878 2963 2633 3030 
Q 2388 3097 2138 3097 
Q 1578 3097 1268 2742 
Q 959 2388 959 1747 
Q 959 1106 1268 751 
Q 1578 397 2138 397 
Q 2388 397 2633 464 
Q 2878 531 3122 666 
L 3122 134 
Q 2881 22 2623 -34 
Q 2366 -91 2075 -91 
Q 1284 -91 818 406 
Q 353 903 353 1747 
Q 353 2603 823 3093 
Q 1294 3584 2113 3584 
Q 2378 3584 2631 3529 
Q 2884 3475 3122 3366 
z
" transform="scale(0.015625)"/>
      <path id="DejaVuSans-53" d="M 3425 4513 
L 3425 3897 
Q 3066 4069 2747 4153 
Q 2428 4238 2131 4238 
Q 1616 4238 1336 4038 
Q 1056 3838 1056 3469 
Q 1056 3159 1242 3001 
Q 1428 2844 1947 2747 
L 2328 2669 
Q 3034 2534 3370 2195 
Q 3706 1856 3706 1288 
Q 3706 609 3251 259 
Q 2797 -91 1919 -91 
Q 1588 -91 1214 -16 
Q 841 59 441 206 
L 441 856 
Q 825 641 1194 531 
Q 1563 422 1919 422 
Q 2459 422 2753 634 
Q 3047 847 3047 1241 
Q 3047 1584 2836 1778 
Q 2625 1972 2144 2069 
L 1759 2144 
Q 1053 2284 737 2584 
Q 422 2884 422 3419 
Q 422 4038 858 4394 
Q 1294 4750 2059 4750 
Q 2388 4750 2728 4690 
Q 3069 4631 3425 4513 
z
" transform="scale(0.015625)"/>
      <path id="DejaVuSans-41" d="M 2188 4044 
L 1331 1722 
L 3047 1722 
L 2188 4044 
z
M 1831 4666 
L 2547 4666 
L 4325 0 
L 3669 0 
L 3244 1197 
L 1141 1197 
L 716 0 
L 50 0 
L 1831 4666 
z
" transform="scale(0.015625)"/>
      <path id="DejaVuSans-52" d="M 2841 2188 
Q 3044 2119 3236 1894 
Q 3428 1669 3622 1275 
L 4263 0 
L 3584 0 
L 2988 1197 
Q 2756 1666 2539 1819 
Q 2322 1972 1947 1972 
L 1259 1972 
L 1259 0 
L 628 0 
L 628 4666 
L 2053 4666 
Q 2853 4666 3247 4331 
Q 3641 3997 3641 3322 
Q 3641 2881 3436 2590 
Q 3231 2300 2841 2188 
z
M 1259 4147 
L 1259 2491 
L 2053 2491 
Q 2509 2491 2742 2702 
Q 2975 2913 2975 3322 
Q 2975 3731 2742 3939 
Q 2509 4147 2053 4147 
L 1259 4147 
z
" transform="scale(0.015625)"/>
      <path id="DejaVuSans-56" d="M 1831 0 
L 50 4666 
L 709 4666 
L 2188 738 
L 3669 4666 
L 4325 4666 
L 2547 0 
L 1831 0 
z
" transform="scale(0.015625)"/>
      <path id="DejaVuSans-4e" d="M 628 4666 
L 1478 4666 
L 3547 763 
L 3547 4666 
L 4159 4666 
L 4159 0 
L 3309 0 
L 1241 3903 
L 1241 0 
L 628 0 
L 628 4666 
z
" transform="scale(0.015625)"/>
      <path id="DejaVuSans-2e" d="M 684 794 
L 1344 794 
L 1344 0 
L 684 0 
L 684 794 
z
" transform="scale(0.015625)"/>
     </defs>
     <use xlink:href="#DejaVuSans-43"/>
     <use xlink:href="#DejaVuSans-6f" x="69.824219"/>
     <use xlink:href="#DejaVuSans-6e" x="131.005859"/>
     <use xlink:href="#DejaVuSans-63" x="194.384766"/>
     <use xlink:href="#DejaVuSans-65" x="249.365234"/>
     <use xlink:href="#DejaVuSans-6e" x="310.888672"/>
     <use xlink:href="#DejaVuSans-74" x="374.267578"/>
     <use xlink:href="#DejaVuSans-72" x="413.476562"/>
     <use xlink:href="#DejaVuSans-61" x="454.589844"/>
     <use xlink:href="#DejaVuSans-74" x="515.869141"/>
     <use xlink:href="#DejaVuSans-69" x="555.078125"/>
     <use xlink:href="#DejaVuSans-65" x="582.861328"/>
     <use xlink:href="#DejaVuSans-20" x="644.384766"/>
     <use xlink:href="#DejaVuSans-53" x="676.171875"/>
     <use xlink:href="#DejaVuSans-41" x="741.523438"/>
     <use xlink:href="#DejaVuSans-52" x="809.931641"/>
     <use xlink:href="#DejaVuSans-53" x="879.414062"/>
     <use xlink:href="#DejaVuSans-2d" x="942.890625"/>
     <use xlink:href="#DejaVuSans-43" x="978.974609"/>
     <use xlink:href="#DejaVuSans-6f" x="1048.798828"/>
     <use xlink:href="#DejaVuSans-56" x="1109.980469"/>
     <use xlink:href="#DejaVuSans-2d" x="1172.513672"/>
     <use xlink:href="#DejaVuSans-32" x="1208.597656"/>
     <use xlink:href="#DejaVuSans-20" x="1272.220703"/>
     <use xlink:href="#DejaVuSans-52" x="1304.007812"/>
     <use xlink:href="#DejaVuSans-4e" x="1373.490234"/>
     <use xlink:href="#DejaVuSans-41" x="1448.294922"/>
     <use xlink:href="#DejaVuSans-20" x="1516.703125"/>
     <use xlink:href="#DejaVuSans-69" x="1548.490234"/>
     <use xlink:href="#DejaVuSans-6e" x="1576.273438"/>
     <use xlink:href="#DejaVuSans-20" x="1639.652344"/>
     <use xlink:href="#DejaVuSans-72" x="1671.439453"/>
     <use xlink:href="#DejaVuSans-69" x="1712.552734"/>
     <use xlink:href="#DejaVuSans-6f" x="1740.335938"/>
     <use xlink:href="#DejaVuSans-6f" x="1801.517578"/>
     <use xlink:href="#DejaVuSans-6c" x="1862.699219"/>
     <use xlink:href="#DejaVuSans-77" x="1890.482422"/>
     <use xlink:href="#DejaVuSans-61" x="1972.269531"/>
     <use xlink:href="#DejaVuSans-74" x="2033.548828"/>
     <use xlink:href="#DejaVuSans-65" x="2072.757812"/>
     <use xlink:href="#DejaVuSans-72" x="2134.28125"/>
     <use xlink:href="#DejaVuSans-20" x="2175.394531"/>
     <use xlink:href="#DejaVuSans-70" x="2207.181641"/>
     <use xlink:href="#DejaVuSans-65" x="2270.658203"/>
     <use xlink:href="#DejaVuSans-72" x="2332.181641"/>
     <use xlink:href="#DejaVuSans-20" x="2373.294922"/>
     <use xlink:href="#DejaVuSans-31" x="2405.082031"/>
     <use xlink:href="#DejaVuSans-30" x="2468.705078"/>
     <use xlink:href="#DejaVuSans-30" x="2532.328125"/>
     <use xlink:href="#DejaVuSans-2e" x="2595.951172"/>
     <use xlink:href="#DejaVuSans-30" x="2627.738281"/>
     <use xlink:href="#DejaVuSans-30" x="2691.361328"/>
     <use xlink:href="#DejaVuSans-30" x="2754.984375"/>
     <use xlink:href="#DejaVuSans-20" x="2818.607422"/>
     <use xlink:href="#DejaVuSans-69" x="2850.394531"/>
     <use xlink:href="#DejaVuSans-6e" x="2878.177734"/>
     <use xlink:href="#DejaVuSans-77" x="2941.556641"/>
     <use xlink:href="#DejaVuSans-6f" x="3023.34375"/>
     <use xlink:href="#DejaVuSans-6e" x="3084.525391"/>
     <use xlink:href="#DejaVuSans-65" x="3147.904297"/>
     <use xlink:href="#DejaVuSans-72" x="3209.427734"/>
     <use xlink:href="#DejaVuSans-73" x="3250.541016"/>
    </g>
   </g>
   <g id="legend_1">
    <g id="patch_7">
     <path d="M 71.8 48.598125 
L 344.44375 48.598125 
Q 346.44375 48.598125 346.44375 46.598125 
L 346.44375 32.92 
Q 346.44375 30.92 344.44375 30.92 
L 71.8 30.92 
Q 69.8 30.92 69.8 32.92 
L 69.8 46.598125 
Q 69.8 48.598125 71.8 48.598125 
z
" style="fill: #ffffff; opacity: 0.8; stroke: #cccccc; stroke-linejoin: miter"/>
    </g>
    <g id="line2d_41">
     <path d="M 73.8 39.018437 
L 83.8 39.018437 
L 93.8 39.018437 
" style="fill: none; stroke: #008000; stroke-width: 1.5; stroke-linecap: square"/>
    </g>
    <g id="text_23">
     <!-- RNA deeltjes per 100.000 inwoners (gemiddeld) -->
     <g transform="translate(101.8 42.518437) scale(0.1 -0.1)">
      <defs>
       <path id="DejaVuSans-64" d="M 2906 2969 
L 2906 4863 
L 3481 4863 
L 3481 0 
L 2906 0 
L 2906 525 
Q 2725 213 2448 61 
Q 2172 -91 1784 -91 
Q 1150 -91 751 415 
Q 353 922 353 1747 
Q 353 2572 751 3078 
Q 1150 3584 1784 3584 
Q 2172 3584 2448 3432 
Q 2725 3281 2906 2969 
z
M 947 1747 
Q 947 1113 1208 752 
Q 1469 391 1925 391 
Q 2381 391 2643 752 
Q 2906 1113 2906 1747 
Q 2906 2381 2643 2742 
Q 2381 3103 1925 3103 
Q 1469 3103 1208 2742 
Q 947 2381 947 1747 
z
" transform="scale(0.015625)"/>
       <path id="DejaVuSans-28" d="M 1984 4856 
Q 1566 4138 1362 3434 
Q 1159 2731 1159 2009 
Q 1159 1288 1364 580 
Q 1569 -128 1984 -844 
L 1484 -844 
Q 1016 -109 783 600 
Q 550 1309 550 2009 
Q 550 2706 781 3412 
Q 1013 4119 1484 4856 
L 1984 4856 
z
" transform="scale(0.015625)"/>
       <path id="DejaVuSans-67" d="M 2906 1791 
Q 2906 2416 2648 2759 
Q 2391 3103 1925 3103 
Q 1463 3103 1205 2759 
Q 947 2416 947 1791 
Q 947 1169 1205 825 
Q 1463 481 1925 481 
Q 2391 481 2648 825 
Q 2906 1169 2906 1791 
z
M 3481 434 
Q 3481 -459 3084 -895 
Q 2688 -1331 1869 -1331 
Q 1566 -1331 1297 -1286 
Q 1028 -1241 775 -1147 
L 775 -588 
Q 1028 -725 1275 -790 
Q 1522 -856 1778 -856 
Q 2344 -856 2625 -561 
Q 2906 -266 2906 331 
L 2906 616 
Q 2728 306 2450 153 
Q 2172 0 1784 0 
Q 1141 0 747 490 
Q 353 981 353 1791 
Q 353 2603 747 3093 
Q 1141 3584 1784 3584 
Q 2172 3584 2450 3431 
Q 2728 3278 2906 2969 
L 2906 3500 
L 3481 3500 
L 3481 434 
z
" transform="scale(0.015625)"/>
       <path id="DejaVuSans-29" d="M 513 4856 
L 1013 4856 
Q 1481 4119 1714 3412 
Q 1947 2706 1947 2009 
Q 1947 1309 1714 600 
Q 1481 -109 1013 -844 
L 513 -844 
Q 928 -128 1133 580 
Q 1338 1288 1338 2009 
Q 1338 2731 1133 3434 
Q 928 4138 513 4856 
z
" transform="scale(0.015625)"/>
      </defs>
      <use xlink:href="#DejaVuSans-52"/>
      <use xlink:href="#DejaVuSans-4e" x="69.482422"/>
      <use xlink:href="#DejaVuSans-41" x="144.287109"/>
      <use xlink:href="#DejaVuSans-20" x="212.695312"/>
      <use xlink:href="#DejaVuSans-64" x="244.482422"/>
      <use xlink:href="#DejaVuSans-65" x="307.958984"/>
      <use xlink:href="#DejaVuSans-65" x="369.482422"/>
      <use xlink:href="#DejaVuSans-6c" x="431.005859"/>
      <use xlink:href="#DejaVuSans-74" x="458.789062"/>
      <use xlink:href="#DejaVuSans-6a" x="497.998047"/>
      <use xlink:href="#DejaVuSans-65" x="525.78125"/>
      <use xlink:href="#DejaVuSans-73" x="587.304688"/>
      <use xlink:href="#DejaVuSans-20" x="639.404297"/>
      <use xlink:href="#DejaVuSans-70" x="671.191406"/>
      <use xlink:href="#DejaVuSans-65" x="734.667969"/>
      <use xlink:href="#DejaVuSans-72" x="796.191406"/>
      <use xlink:href="#DejaVuSans-20" x="837.304688"/>
      <use xlink:href="#DejaVuSans-31" x="869.091797"/>
      <use xlink:href="#DejaVuSans-30" x="932.714844"/>
      <use xlink:href="#DejaVuSans-30" x="996.337891"/>
      <use xlink:href="#DejaVuSans-2e" x="1059.960938"/>
      <use xlink:href="#DejaVuSans-30" x="1091.748047"/>
      <use xlink:href="#DejaVuSans-30" x="1155.371094"/>
      <use xlink:href="#DejaVuSans-30" x="1218.994141"/>
      <use xlink:href="#DejaVuSans-20" x="1282.617188"/>
      <use xlink:href="#DejaVuSans-69" x="1314.404297"/>
      <use xlink:href="#DejaVuSans-6e" x="1342.1875"/>
      <use xlink:href="#DejaVuSans-77" x="1405.566406"/>
      <use xlink:href="#DejaVuSans-6f" x="1487.353516"/>
      <use xlink:href="#DejaVuSans-6e" x="1548.535156"/>
      <use xlink:href="#DejaVuSans-65" x="1611.914062"/>
      <use xlink:href="#DejaVuSans-72" x="1673.4375"/>
      <use xlink:href="#DejaVuSans-73" x="1714.550781"/>
      <use xlink:href="#DejaVuSans-20" x="1766.650391"/>
      <use xlink:href="#DejaVuSans-28" x="1798.4375"/>
      <use xlink:href="#DejaVuSans-67" x="1837.451172"/>
      <use xlink:href="#DejaVuSans-65" x="1900.927734"/>
      <use xlink:href="#DejaVuSans-6d" x="1962.451172"/>
      <use xlink:href="#DejaVuSans-69" x="2059.863281"/>
      <use xlink:href="#DejaVuSans-64" x="2087.646484"/>
      <use xlink:href="#DejaVuSans-64" x="2151.123047"/>
      <use xlink:href="#DejaVuSans-65" x="2214.599609"/>
      <use xlink:href="#DejaVuSans-6c" x="2276.123047"/>
      <use xlink:href="#DejaVuSans-64" x="2303.90625"/>
      <use xlink:href="#DejaVuSans-29" x="2367.382812"/>
     </g>
    </g>
   </g>
   <g id="text_24">
    <g id="patch_8">
     <path d="M 640.378132 177.47125 
L 650.558132 177.47125 
Q 651.358132 177.47125 651.358132 176.67125 
L 651.358132 168.92875 
Q 651.358132 168.12875 650.558132 168.12875 
L 640.378132 168.12875 
Q 639.578132 168.12875 639.578132 168.92875 
L 639.578132 176.67125 
Q 639.578132 177.47125 640.378132 177.47125 
z
" style="fill: #ff0000; stroke: #ff0000; stroke-linejoin: miter"/>
    </g>
    <!-- 09 -->
    <g style="fill: #ffffff" transform="translate(640.378132 175.0075) scale(0.08 -0.08)">
     <use xlink:href="#DejaVuSans-30"/>
     <use xlink:href="#DejaVuSans-39" x="63.623047"/>
    </g>
   </g>
  </g>
  <g id="text_25">
   <!-- Gegenereerd op 2023-04-09 10:28 o.b.v. data tot 2023-04-04. -->
   <g style="fill: #808080" transform="translate(7.2 204.88175) scale(0.08 -0.08)">
    <defs>
     <path id="DejaVuSans-47" d="M 3809 666 
L 3809 1919 
L 2778 1919 
L 2778 2438 
L 4434 2438 
L 4434 434 
Q 4069 175 3628 42 
Q 3188 -91 2688 -91 
Q 1594 -91 976 548 
Q 359 1188 359 2328 
Q 359 3472 976 4111 
Q 1594 4750 2688 4750 
Q 3144 4750 3555 4637 
Q 3966 4525 4313 4306 
L 4313 3634 
Q 3963 3931 3569 4081 
Q 3175 4231 2741 4231 
Q 1884 4231 1454 3753 
Q 1025 3275 1025 2328 
Q 1025 1384 1454 906 
Q 1884 428 2741 428 
Q 3075 428 3337 486 
Q 3600 544 3809 666 
z
" transform="scale(0.015625)"/>
     <path id="DejaVuSans-3a" d="M 750 794 
L 1409 794 
L 1409 0 
L 750 0 
L 750 794 
z
M 750 3309 
L 1409 3309 
L 1409 2516 
L 750 2516 
L 750 3309 
z
" transform="scale(0.015625)"/>
     <path id="DejaVuSans-62" d="M 3116 1747 
Q 3116 2381 2855 2742 
Q 2594 3103 2138 3103 
Q 1681 3103 1420 2742 
Q 1159 2381 1159 1747 
Q 1159 1113 1420 752 
Q 1681 391 2138 391 
Q 2594 391 2855 752 
Q 3116 1113 3116 1747 
z
M 1159 2969 
Q 1341 3281 1617 3432 
Q 1894 3584 2278 3584 
Q 2916 3584 3314 3078 
Q 3713 2572 3713 1747 
Q 3713 922 3314 415 
Q 2916 -91 2278 -91 
Q 1894 -91 1617 61 
Q 1341 213 1159 525 
L 1159 0 
L 581 0 
L 581 4863 
L 1159 4863 
L 1159 2969 
z
" transform="scale(0.015625)"/>
     <path id="DejaVuSans-76" d="M 191 3500 
L 800 3500 
L 1894 563 
L 2988 3500 
L 3597 3500 
L 2284 0 
L 1503 0 
L 191 3500 
z
" transform="scale(0.015625)"/>
    </defs>
    <use xlink:href="#DejaVuSans-47"/>
    <use xlink:href="#DejaVuSans-65" x="77.490234"/>
    <use xlink:href="#DejaVuSans-67" x="139.013672"/>
    <use xlink:href="#DejaVuSans-65" x="202.490234"/>
    <use xlink:href="#DejaVuSans-6e" x="264.013672"/>
    <use xlink:href="#DejaVuSans-65" x="327.392578"/>
    <use xlink:href="#DejaVuSans-72" x="388.916016"/>
    <use xlink:href="#DejaVuSans-65" x="427.779297"/>
    <use xlink:href="#DejaVuSans-65" x="489.302734"/>
    <use xlink:href="#DejaVuSans-72" x="550.826172"/>
    <use xlink:href="#DejaVuSans-64" x="590.189453"/>
    <use xlink:href="#DejaVuSans-20" x="653.666016"/>
    <use xlink:href="#DejaVuSans-6f" x="685.453125"/>
    <use xlink:href="#DejaVuSans-70" x="746.634766"/>
    <use xlink:href="#DejaVuSans-20" x="810.111328"/>
    <use xlink:href="#DejaVuSans-32" x="841.898438"/>
    <use xlink:href="#DejaVuSans-30" x="905.521484"/>
    <use xlink:href="#DejaVuSans-32" x="969.144531"/>
    <use xlink:href="#DejaVuSans-33" x="1032.767578"/>
    <use xlink:href="#DejaVuSans-2d" x="1096.390625"/>
    <use xlink:href="#DejaVuSans-30" x="1132.474609"/>
    <use xlink:href="#DejaVuSans-34" x="1196.097656"/>
    <use xlink:href="#DejaVuSans-2d" x="1259.720703"/>
    <use xlink:href="#DejaVuSans-30" x="1295.804688"/>
    <use xlink:href="#DejaVuSans-39" x="1359.427734"/>
    <use xlink:href="#DejaVuSans-20" x="1423.050781"/>
    <use xlink:href="#DejaVuSans-31" x="1454.837891"/>
    <use xlink:href="#DejaVuSans-30" x="1518.460938"/>
    <use xlink:href="#DejaVuSans-3a" x="1582.083984"/>
    <use xlink:href="#DejaVuSans-32" x="1615.775391"/>
    <use xlink:href="#DejaVuSans-38" x="1679.398438"/>
    <use xlink:href="#DejaVuSans-20" x="1743.021484"/>
    <use xlink:href="#DejaVuSans-6f" x="1774.808594"/>
    <use xlink:href="#DejaVuSans-2e" x="1834.240234"/>
    <use xlink:href="#DejaVuSans-62" x="1866.027344"/>
    <use xlink:href="#DejaVuSans-2e" x="1929.503906"/>
    <use xlink:href="#DejaVuSans-76" x="1961.291016"/>
    <use xlink:href="#DejaVuSans-2e" x="2012.720703"/>
    <use xlink:href="#DejaVuSans-20" x="2044.507812"/>
    <use xlink:href="#DejaVuSans-64" x="2076.294922"/>
    <use xlink:href="#DejaVuSans-61" x="2139.771484"/>
    <use xlink:href="#DejaVuSans-74" x="2201.050781"/>
    <use xlink:href="#DejaVuSans-61" x="2240.259766"/>
    <use xlink:href="#DejaVuSans-20" x="2301.539062"/>
    <use xlink:href="#DejaVuSans-74" x="2333.326172"/>
    <use xlink:href="#DejaVuSans-6f" x="2372.535156"/>
    <use xlink:href="#DejaVuSans-74" x="2433.716797"/>
    <use xlink:href="#DejaVuSans-20" x="2472.925781"/>
    <use xlink:href="#DejaVuSans-32" x="2504.712891"/>
    <use xlink:href="#DejaVuSans-30" x="2568.335938"/>
    <use xlink:href="#DejaVuSans-32" x="2631.958984"/>
    <use xlink:href="#DejaVuSans-33" x="2695.582031"/>
    <use xlink:href="#DejaVuSans-2d" x="2759.205078"/>
    <use xlink:href="#DejaVuSans-30" x="2795.289062"/>
    <use xlink:href="#DejaVuSans-34" x="2858.912109"/>
    <use xlink:href="#DejaVuSans-2d" x="2922.535156"/>
    <use xlink:href="#DejaVuSans-30" x="2958.619141"/>
    <use xlink:href="#DejaVuSans-34" x="3022.242188"/>
    <use xlink:href="#DejaVuSans-2e" x="3085.865234"/>
   </g>
   <!-- Source code: http://github.com/realrolfje/coronadata -->
   <g style="fill: #808080" transform="translate(7.2 213.84) scale(0.08 -0.08)">
    <defs>
     <path id="DejaVuSans-68" d="M 3513 2113 
L 3513 0 
L 2938 0 
L 2938 2094 
Q 2938 2591 2744 2837 
Q 2550 3084 2163 3084 
Q 1697 3084 1428 2787 
Q 1159 2491 1159 1978 
L 1159 0 
L 581 0 
L 581 4863 
L 1159 4863 
L 1159 2956 
Q 1366 3272 1645 3428 
Q 1925 3584 2291 3584 
Q 2894 3584 3203 3211 
Q 3513 2838 3513 2113 
z
" transform="scale(0.015625)"/>
     <path id="DejaVuSans-2f" d="M 1625 4666 
L 2156 4666 
L 531 -594 
L 0 -594 
L 1625 4666 
z
" transform="scale(0.015625)"/>
     <path id="DejaVuSans-66" d="M 2375 4863 
L 2375 4384 
L 1825 4384 
Q 1516 4384 1395 4259 
Q 1275 4134 1275 3809 
L 1275 3500 
L 2222 3500 
L 2222 3053 
L 1275 3053 
L 1275 0 
L 697 0 
L 697 3053 
L 147 3053 
L 147 3500 
L 697 3500 
L 697 3744 
Q 697 4328 969 4595 
Q 1241 4863 1831 4863 
L 2375 4863 
z
" transform="scale(0.015625)"/>
    </defs>
    <use xlink:href="#DejaVuSans-53"/>
    <use xlink:href="#DejaVuSans-6f" x="63.476562"/>
    <use xlink:href="#DejaVuSans-75" x="124.658203"/>
    <use xlink:href="#DejaVuSans-72" x="188.037109"/>
    <use xlink:href="#DejaVuSans-63" x="226.900391"/>
    <use xlink:href="#DejaVuSans-65" x="281.880859"/>
    <use xlink:href="#DejaVuSans-20" x="343.404297"/>
    <use xlink:href="#DejaVuSans-63" x="375.191406"/>
    <use xlink:href="#DejaVuSans-6f" x="430.171875"/>
    <use xlink:href="#DejaVuSans-64" x="491.353516"/>
    <use xlink:href="#DejaVuSans-65" x="554.830078"/>
    <use xlink:href="#DejaVuSans-3a" x="616.353516"/>
    <use xlink:href="#DejaVuSans-20" x="650.044922"/>
    <use xlink:href="#DejaVuSans-68" x="681.832031"/>
    <use xlink:href="#DejaVuSans-74" x="745.210938"/>
    <use xlink:href="#DejaVuSans-74" x="784.419922"/>
    <use xlink:href="#DejaVuSans-70" x="823.628906"/>
    <use xlink:href="#DejaVuSans-3a" x="887.105469"/>
    <use xlink:href="#DejaVuSans-2f" x="920.796875"/>
    <use xlink:href="#DejaVuSans-2f" x="954.488281"/>
    <use xlink:href="#DejaVuSans-67" x="988.179688"/>
    <use xlink:href="#DejaVuSans-69" x="1051.65625"/>
    <use xlink:href="#DejaVuSans-74" x="1079.439453"/>
    <use xlink:href="#DejaVuSans-68" x="1118.648438"/>
    <use xlink:href="#DejaVuSans-75" x="1182.027344"/>
    <use xlink:href="#DejaVuSans-62" x="1245.40625"/>
    <use xlink:href="#DejaVuSans-2e" x="1308.882812"/>
    <use xlink:href="#DejaVuSans-63" x="1340.669922"/>
    <use xlink:href="#DejaVuSans-6f" x="1395.650391"/>
    <use xlink:href="#DejaVuSans-6d" x="1456.832031"/>
    <use xlink:href="#DejaVuSans-2f" x="1554.244141"/>
    <use xlink:href="#DejaVuSans-72" x="1587.935547"/>
    <use xlink:href="#DejaVuSans-65" x="1626.798828"/>
    <use xlink:href="#DejaVuSans-61" x="1688.322266"/>
    <use xlink:href="#DejaVuSans-6c" x="1749.601562"/>
    <use xlink:href="#DejaVuSans-72" x="1777.384766"/>
    <use xlink:href="#DejaVuSans-6f" x="1816.248047"/>
    <use xlink:href="#DejaVuSans-6c" x="1877.429688"/>
    <use xlink:href="#DejaVuSans-66" x="1905.212891"/>
    <use xlink:href="#DejaVuSans-6a" x="1940.417969"/>
    <use xlink:href="#DejaVuSans-65" x="1968.201172"/>
    <use xlink:href="#DejaVuSans-2f" x="2029.724609"/>
    <use xlink:href="#DejaVuSans-63" x="2063.416016"/>
    <use xlink:href="#DejaVuSans-6f" x="2118.396484"/>
    <use xlink:href="#DejaVuSans-72" x="2179.578125"/>
    <use xlink:href="#DejaVuSans-6f" x="2218.441406"/>
    <use xlink:href="#DejaVuSans-6e" x="2279.623047"/>
    <use xlink:href="#DejaVuSans-61" x="2343.001953"/>
    <use xlink:href="#DejaVuSans-64" x="2404.28125"/>
    <use xlink:href="#DejaVuSans-61" x="2467.757812"/>
    <use xlink:href="#DejaVuSans-74" x="2529.037109"/>
    <use xlink:href="#DejaVuSans-61" x="2568.246094"/>
   </g>
  </g>
  <g id="text_26">
   <!-- Bron: https://data.rivm.nl/covid-19 -->
   <g style="fill: #808080" transform="translate(574.79875 213.84) scale(0.08 -0.08)">
    <defs>
     <path id="DejaVuSans-42" d="M 1259 2228 
L 1259 519 
L 2272 519 
Q 2781 519 3026 730 
Q 3272 941 3272 1375 
Q 3272 1813 3026 2020 
Q 2781 2228 2272 2228 
L 1259 2228 
z
M 1259 4147 
L 1259 2741 
L 2194 2741 
Q 2656 2741 2882 2914 
Q 3109 3088 3109 3444 
Q 3109 3797 2882 3972 
Q 2656 4147 2194 4147 
L 1259 4147 
z
M 628 4666 
L 2241 4666 
Q 2963 4666 3353 4366 
Q 3744 4066 3744 3513 
Q 3744 3084 3544 2831 
Q 3344 2578 2956 2516 
Q 3422 2416 3680 2098 
Q 3938 1781 3938 1306 
Q 3938 681 3513 340 
Q 3088 0 2303 0 
L 628 0 
L 628 4666 
z
" transform="scale(0.015625)"/>
    </defs>
    <use xlink:href="#DejaVuSans-42"/>
    <use xlink:href="#DejaVuSans-72" x="68.603516"/>
    <use xlink:href="#DejaVuSans-6f" x="107.466797"/>
    <use xlink:href="#DejaVuSans-6e" x="168.648438"/>
    <use xlink:href="#DejaVuSans-3a" x="232.027344"/>
    <use xlink:href="#DejaVuSans-20" x="265.71875"/>
    <use xlink:href="#DejaVuSans-68" x="297.505859"/>
    <use xlink:href="#DejaVuSans-74" x="360.884766"/>
    <use xlink:href="#DejaVuSans-74" x="400.09375"/>
    <use xlink:href="#DejaVuSans-70" x="439.302734"/>
    <use xlink:href="#DejaVuSans-73" x="502.779297"/>
    <use xlink:href="#DejaVuSans-3a" x="554.878906"/>
    <use xlink:href="#DejaVuSans-2f" x="588.570312"/>
    <use xlink:href="#DejaVuSans-2f" x="622.261719"/>
    <use xlink:href="#DejaVuSans-64" x="655.953125"/>
    <use xlink:href="#DejaVuSans-61" x="719.429688"/>
    <use xlink:href="#DejaVuSans-74" x="780.708984"/>
    <use xlink:href="#DejaVuSans-61" x="819.917969"/>
    <use xlink:href="#DejaVuSans-2e" x="881.197266"/>
    <use xlink:href="#DejaVuSans-72" x="912.984375"/>
    <use xlink:href="#DejaVuSans-69" x="954.097656"/>
    <use xlink:href="#DejaVuSans-76" x="981.880859"/>
    <use xlink:href="#DejaVuSans-6d" x="1041.060547"/>
    <use xlink:href="#DejaVuSans-2e" x="1138.472656"/>
    <use xlink:href="#DejaVuSans-6e" x="1170.259766"/>
    <use xlink:href="#DejaVuSans-6c" x="1233.638672"/>
    <use xlink:href="#DejaVuSans-2f" x="1261.421875"/>
    <use xlink:href="#DejaVuSans-63" x="1295.113281"/>
    <use xlink:href="#DejaVuSans-6f" x="1350.09375"/>
    <use xlink:href="#DejaVuSans-76" x="1411.275391"/>
    <use xlink:href="#DejaVuSans-69" x="1470.455078"/>
    <use xlink:href="#DejaVuSans-64" x="1498.238281"/>
    <use xlink:href="#DejaVuSans-2d" x="1561.714844"/>
    <use xlink:href="#DejaVuSans-31" x="1597.798828"/>
    <use xlink:href="#DejaVuSans-39" x="1661.421875"/>
   </g>
  </g>
  <g id="text_27">
   <g id="patch_9">
    <path d="M 68 66.14375 
L 203.68625 66.14375 
L 203.68625 50.40125 
L 68 50.40125 
z
" style="fill: #ffffff; stroke: #ffffff; stroke-linejoin: miter"/>
   </g>
   <!-- (T = Tera = 1.000.000.000.000) -->
   <g style="fill: #808080" transform="translate(72 60.48) scale(0.08 -0.08)">
    <defs>
     <path id="DejaVuSans-3d" d="M 678 2906 
L 4684 2906 
L 4684 2381 
L 678 2381 
L 678 2906 
z
M 678 1631 
L 4684 1631 
L 4684 1100 
L 678 1100 
L 678 1631 
z
" transform="scale(0.015625)"/>
    </defs>
    <use xlink:href="#DejaVuSans-28"/>
    <use xlink:href="#DejaVuSans-54" x="39.013672"/>
    <use xlink:href="#DejaVuSans-20" x="100.097656"/>
    <use xlink:href="#DejaVuSans-3d" x="131.884766"/>
    <use xlink:href="#DejaVuSans-20" x="215.673828"/>
    <use xlink:href="#DejaVuSans-54" x="247.460938"/>
    <use xlink:href="#DejaVuSans-65" x="291.544922"/>
    <use xlink:href="#DejaVuSans-72" x="353.068359"/>
    <use xlink:href="#DejaVuSans-61" x="394.181641"/>
    <use xlink:href="#DejaVuSans-20" x="455.460938"/>
    <use xlink:href="#DejaVuSans-3d" x="487.248047"/>
    <use xlink:href="#DejaVuSans-20" x="571.037109"/>
    <use xlink:href="#DejaVuSans-31" x="602.824219"/>
    <use xlink:href="#DejaVuSans-2e" x="666.447266"/>
    <use xlink:href="#DejaVuSans-30" x="698.234375"/>
    <use xlink:href="#DejaVuSans-30" x="761.857422"/>
    <use xlink:href="#DejaVuSans-30" x="825.480469"/>
    <use xlink:href="#DejaVuSans-2e" x="889.103516"/>
    <use xlink:href="#DejaVuSans-30" x="920.890625"/>
    <use xlink:href="#DejaVuSans-30" x="984.513672"/>
    <use xlink:href="#DejaVuSans-30" x="1048.136719"/>
    <use xlink:href="#DejaVuSans-2e" x="1111.759766"/>
    <use xlink:href="#DejaVuSans-30" x="1143.546875"/>
    <use xlink:href="#DejaVuSans-30" x="1207.169922"/>
    <use xlink:href="#DejaVuSans-30" x="1270.792969"/>
    <use xlink:href="#DejaVuSans-2e" x="1334.416016"/>
    <use xlink:href="#DejaVuSans-30" x="1366.203125"/>
    <use xlink:href="#DejaVuSans-30" x="1429.826172"/>
    <use xlink:href="#DejaVuSans-30" x="1493.449219"/>
    <use xlink:href="#DejaVuSans-29" x="1557.072266"/>
   </g>
  </g>
  <g id="text_28">
   <g id="patch_10">
    <path d="M 428 70.879688 
L 555.317188 70.879688 
L 555.317188 53.201563 
L 428 53.201563 
z
" style="fill: #ffffff; stroke: #ffffff; stroke-linejoin: miter"/>
   </g>
   <!-- "Je plee liegt niet" - Rolf -->
   <g style="fill: #808080" transform="translate(432 64.8) scale(0.1 -0.1)">
    <defs>
     <path id="DejaVuSans-22" d="M 1147 4666 
L 1147 2931 
L 616 2931 
L 616 4666 
L 1147 4666 
z
M 2328 4666 
L 2328 2931 
L 1797 2931 
L 1797 4666 
L 2328 4666 
z
" transform="scale(0.015625)"/>
     <path id="DejaVuSans-4a" d="M 628 4666 
L 1259 4666 
L 1259 325 
Q 1259 -519 939 -900 
Q 619 -1281 -91 -1281 
L -331 -1281 
L -331 -750 
L -134 -750 
Q 284 -750 456 -515 
Q 628 -281 628 325 
L 628 4666 
z
" transform="scale(0.015625)"/>
    </defs>
    <use xlink:href="#DejaVuSans-22"/>
    <use xlink:href="#DejaVuSans-4a" x="45.996094"/>
    <use xlink:href="#DejaVuSans-65" x="75.488281"/>
    <use xlink:href="#DejaVuSans-20" x="137.011719"/>
    <use xlink:href="#DejaVuSans-70" x="168.798828"/>
    <use xlink:href="#DejaVuSans-6c" x="232.275391"/>
    <use xlink:href="#DejaVuSans-65" x="260.058594"/>
    <use xlink:href="#DejaVuSans-65" x="321.582031"/>
    <use xlink:href="#DejaVuSans-20" x="383.105469"/>
    <use xlink:href="#DejaVuSans-6c" x="414.892578"/>
    <use xlink:href="#DejaVuSans-69" x="442.675781"/>
    <use xlink:href="#DejaVuSans-65" x="470.458984"/>
    <use xlink:href="#DejaVuSans-67" x="531.982422"/>
    <use xlink:href="#DejaVuSans-74" x="595.458984"/>
    <use xlink:href="#DejaVuSans-20" x="634.667969"/>
    <use xlink:href="#DejaVuSans-6e" x="666.455078"/>
    <use xlink:href="#DejaVuSans-69" x="729.833984"/>
    <use xlink:href="#DejaVuSans-65" x="757.617188"/>
    <use xlink:href="#DejaVuSans-74" x="819.140625"/>
    <use xlink:href="#DejaVuSans-22" x="858.349609"/>
    <use xlink:href="#DejaVuSans-20" x="904.345703"/>
    <use xlink:href="#DejaVuSans-2d" x="936.132812"/>
    <use xlink:href="#DejaVuSans-20" x="972.216797"/>
    <use xlink:href="#DejaVuSans-52" x="1004.003906"/>
    <use xlink:href="#DejaVuSans-6f" x="1068.986328"/>
    <use xlink:href="#DejaVuSans-6c" x="1130.167969"/>
    <use xlink:href="#DejaVuSans-66" x="1157.951172"/>
   </g>
  </g>
 </g>
 <defs>
  <clipPath id="p0f9a0cfd62">
   <rect x="64.8" y="25.92" width="590.4" height="146.88"/>
  </clipPath>
 </defs>
</svg>
