<?xml version="1.0" encoding="utf-8" standalone="no"?>
<!DOCTYPE svg PUBLIC "-//W3C//DTD SVG 1.1//EN"
  "http://www.w3.org/Graphics/SVG/1.1/DTD/svg11.dtd">
<!-- Created with matplotlib (https://matplotlib.org/) -->
<svg height="216pt" version="1.1" viewBox="0 0 720 216" width="720pt" xmlns="http://www.w3.org/2000/svg" xmlns:xlink="http://www.w3.org/1999/xlink">
 <metadata>
  <rdf:RDF xmlns:cc="http://creativecommons.org/ns#" xmlns:dc="http://purl.org/dc/elements/1.1/" xmlns:rdf="http://www.w3.org/1999/02/22-rdf-syntax-ns#">
   <cc:Work>
    <dc:type rdf:resource="http://purl.org/dc/dcmitype/StillImage"/>
    <dc:date>2022-02-13T17:39:23.567417</dc:date>
    <dc:format>image/svg+xml</dc:format>
    <dc:creator>
     <cc:Agent>
      <dc:title>Matplotlib v3.3.2, https://matplotlib.org/</dc:title>
     </cc:Agent>
    </dc:creator>
   </cc:Work>
  </rdf:RDF>
 </metadata>
 <defs>
  <style type="text/css">*{stroke-linecap:butt;stroke-linejoin:round;}</style>
 </defs>
 <g id="figure_1">
  <g id="patch_1">
   <path d="M 0 216 
L 720 216 
L 720 0 
L 0 0 
z
" style="fill:#ffffff;"/>
  </g>
  <g id="axes_1">
   <g id="patch_2">
    <path d="M 64.8 172.8 
L 655.2 172.8 
L 655.2 25.92 
L 64.8 25.92 
z
" style="fill:#ffffff;"/>
   </g>
   <g id="PolyCollection_1">
    <path clip-path="url(#p67abb271e9)" d="M 88.58 172.8 
L 88.58 172.8 
L 89.4 172.8 
L 90.22 172.8 
L 91.04 172.8 
L 93.5 172.8 
L 94.32 172.8 
L 95.14 172.8 
L 95.96 172.8 
L 96.78 172.8 
L 97.6 172.8 
L 100.06 172.8 
L 100.88 172.8 
L 101.7 172.8 
L 102.52 172.8 
L 103.34 172.8 
L 104.98 172.8 
L 105.8 172.8 
L 106.62 172.8 
L 107.44 172.8 
L 108.26 172.8 
L 110.72 172.8 
L 111.54 172.8 
L 112.36 172.8 
L 113.18 172.8 
L 114 172.8 
L 114.82 172.8 
L 116.46 172.8 
L 118.1 172.8 
L 118.92 172.8 
L 119.74 172.8 
L 121.38 172.8 
L 122.2 172.8 
L 123.02 172.8 
L 123.84 172.8 
L 124.66 172.8 
L 126.3 172.8 
L 127.12 172.8 
L 127.94 172.8 
L 128.76 172.8 
L 129.58 172.8 
L 130.4 172.8 
L 131.22 172.8 
L 132.04 172.8 
L 132.86 172.8 
L 133.68 172.8 
L 134.5 172.8 
L 135.32 172.8 
L 136.14 172.8 
L 136.96 172.8 
L 137.78 172.8 
L 140.24 172.8 
L 141.06 172.8 
L 141.88 172.8 
L 142.7 172.8 
L 143.52 172.8 
L 144.34 172.8 
L 145.16 172.8 
L 145.98 172.8 
L 146.8 172.8 
L 147.62 172.8 
L 148.44 172.8 
L 150.9 172.8 
L 151.72 172.8 
L 152.54 172.8 
L 153.36 172.8 
L 156.64 172.8 
L 157.46 172.8 
L 158.28 172.8 
L 161.56 172.8 
L 162.38 172.8 
L 163.2 172.8 
L 164.02 172.8 
L 165.66 172.8 
L 168.94 172.8 
L 169.76 172.8 
L 170.58 172.8 
L 174.68 172.8 
L 175.5 172.8 
L 177.14 172.8 
L 178.78 172.8 
L 179.6 172.8 
L 180.42 172.8 
L 181.24 172.8 
L 182.06 172.8 
L 182.88 172.8 
L 183.7 172.8 
L 184.52 172.8 
L 185.34 172.8 
L 186.16 172.8 
L 186.98 172.8 
L 187.8 172.8 
L 188.62 172.8 
L 189.44 172.8 
L 190.26 172.8 
L 191.08 172.8 
L 191.9 172.8 
L 192.72 172.8 
L 193.54 172.8 
L 194.36 172.8 
L 195.18 172.8 
L 196.82 172.8 
L 197.64 172.8 
L 198.46 172.8 
L 199.28 172.8 
L 200.1 172.8 
L 200.92 172.8 
L 201.74 172.8 
L 202.56 172.8 
L 203.38 172.8 
L 204.2 172.8 
L 205.02 172.8 
L 205.84 172.8 
L 206.66 172.8 
L 207.48 172.8 
L 208.3 172.8 
L 209.12 172.8 
L 209.94 172.8 
L 210.76 172.8 
L 211.58 172.8 
L 212.4 172.8 
L 213.22 172.8 
L 214.04 172.8 
L 214.86 172.8 
L 215.68 172.8 
L 216.5 172.8 
L 217.32 172.8 
L 218.14 172.8 
L 218.96 172.8 
L 219.78 172.8 
L 220.6 172.8 
L 221.42 172.8 
L 222.24 172.8 
L 223.06 172.8 
L 223.88 172.8 
L 224.7 172.8 
L 225.52 172.8 
L 226.34 172.8 
L 227.16 172.8 
L 227.98 172.8 
L 228.8 172.8 
L 229.62 172.8 
L 230.44 172.8 
L 231.26 172.8 
L 232.08 172.8 
L 232.9 172.8 
L 233.72 172.8 
L 234.54 172.8 
L 235.36 172.8 
L 236.18 172.8 
L 237 172.8 
L 237.82 172.8 
L 238.64 172.8 
L 239.46 172.8 
L 240.28 172.8 
L 241.1 172.8 
L 241.92 172.8 
L 242.74 172.8 
L 243.56 172.8 
L 244.38 172.8 
L 245.2 172.8 
L 246.02 172.8 
L 246.84 172.8 
L 247.66 172.8 
L 248.48 172.8 
L 249.3 172.8 
L 250.12 172.8 
L 250.94 172.8 
L 251.76 172.8 
L 252.58 172.8 
L 253.4 172.8 
L 254.22 172.8 
L 255.04 172.8 
L 255.86 172.8 
L 256.68 172.8 
L 257.5 172.8 
L 258.32 172.8 
L 259.14 172.8 
L 259.96 172.8 
L 260.78 172.8 
L 261.6 172.8 
L 262.42 172.8 
L 263.24 172.8 
L 264.06 172.8 
L 264.88 172.8 
L 265.7 172.8 
L 266.52 172.8 
L 267.34 172.8 
L 268.16 172.8 
L 268.98 172.8 
L 269.8 172.8 
L 270.62 172.8 
L 271.44 172.8 
L 272.26 172.8 
L 273.08 172.8 
L 273.9 172.8 
L 274.72 172.8 
L 275.54 172.8 
L 276.36 172.8 
L 277.18 172.8 
L 278 172.8 
L 278.82 172.8 
L 279.64 172.8 
L 280.46 172.8 
L 281.28 172.8 
L 282.1 172.8 
L 282.92 172.8 
L 283.74 172.8 
L 284.56 172.8 
L 285.38 172.8 
L 286.2 172.8 
L 287.02 172.8 
L 287.84 172.8 
L 288.66 172.8 
L 289.48 172.8 
L 290.3 172.8 
L 291.12 172.8 
L 291.94 172.8 
L 292.76 172.8 
L 293.58 172.8 
L 294.4 172.8 
L 295.22 172.8 
L 296.04 172.8 
L 296.86 172.8 
L 297.68 172.8 
L 298.5 172.8 
L 299.32 172.8 
L 300.14 172.8 
L 300.96 172.8 
L 301.78 172.8 
L 302.6 172.8 
L 303.42 172.8 
L 304.24 172.8 
L 305.06 172.8 
L 305.88 172.8 
L 306.7 172.8 
L 307.52 172.8 
L 308.34 172.8 
L 309.16 172.8 
L 309.98 172.8 
L 310.8 172.8 
L 311.62 172.8 
L 312.44 172.8 
L 313.26 172.8 
L 314.08 172.8 
L 315.72 172.8 
L 316.54 172.8 
L 317.36 172.8 
L 318.18 172.8 
L 319 172.8 
L 319.82 172.8 
L 320.64 172.8 
L 321.46 172.8 
L 322.28 172.8 
L 323.1 172.8 
L 323.92 172.8 
L 324.74 172.8 
L 325.56 172.8 
L 326.38 172.8 
L 327.2 172.8 
L 328.02 172.8 
L 328.84 172.8 
L 329.66 172.8 
L 330.48 172.8 
L 331.3 172.8 
L 332.12 172.8 
L 332.94 172.8 
L 333.76 172.8 
L 334.58 172.8 
L 335.4 172.8 
L 336.22 172.8 
L 337.04 172.8 
L 337.86 172.8 
L 338.68 172.8 
L 339.5 172.8 
L 340.32 172.8 
L 341.14 172.8 
L 341.96 172.8 
L 342.78 172.8 
L 343.6 172.8 
L 344.42 172.8 
L 345.24 172.8 
L 346.06 172.8 
L 346.88 172.8 
L 347.7 172.8 
L 348.52 172.8 
L 349.34 172.8 
L 350.16 172.8 
L 350.98 172.8 
L 351.8 172.8 
L 352.62 172.8 
L 353.44 172.8 
L 354.26 172.8 
L 355.08 172.8 
L 355.9 172.8 
L 356.72 172.8 
L 357.54 172.8 
L 358.36 172.8 
L 359.18 172.8 
L 360 172.8 
L 360.82 172.8 
L 361.64 172.8 
L 362.46 172.8 
L 363.28 172.8 
L 364.1 172.8 
L 364.92 172.8 
L 365.74 172.8 
L 366.56 172.8 
L 367.38 172.8 
L 368.2 172.8 
L 369.02 172.8 
L 369.84 172.8 
L 370.66 172.8 
L 371.48 172.8 
L 372.3 172.8 
L 373.12 172.8 
L 373.94 172.8 
L 374.76 172.8 
L 375.58 172.8 
L 376.4 172.8 
L 377.22 172.8 
L 378.04 172.8 
L 378.86 172.8 
L 379.68 172.8 
L 380.5 172.8 
L 381.32 172.8 
L 382.14 172.8 
L 382.96 172.8 
L 383.78 172.8 
L 384.6 172.8 
L 385.42 172.8 
L 386.24 172.8 
L 387.06 172.8 
L 387.88 172.8 
L 388.7 172.8 
L 389.52 172.8 
L 390.34 172.8 
L 391.16 172.8 
L 391.98 172.8 
L 392.8 172.8 
L 393.62 172.8 
L 394.44 172.8 
L 395.26 172.8 
L 396.08 172.8 
L 396.9 172.8 
L 397.72 172.8 
L 398.54 172.8 
L 399.36 172.8 
L 400.18 172.8 
L 401 172.8 
L 401.82 172.8 
L 402.64 172.8 
L 403.46 172.8 
L 404.28 172.8 
L 405.1 172.8 
L 405.92 172.8 
L 406.74 172.8 
L 407.56 172.8 
L 408.38 172.8 
L 409.2 172.8 
L 410.02 172.8 
L 410.84 172.8 
L 411.66 172.8 
L 412.48 172.8 
L 413.3 172.8 
L 414.12 172.8 
L 414.94 172.8 
L 415.76 172.8 
L 416.58 172.8 
L 417.4 172.8 
L 418.22 172.8 
L 419.04 172.8 
L 419.86 172.8 
L 420.68 172.8 
L 421.5 172.8 
L 422.32 172.8 
L 423.14 172.8 
L 423.96 172.8 
L 424.78 172.8 
L 425.6 172.8 
L 426.42 172.8 
L 427.24 172.8 
L 428.06 172.8 
L 428.88 172.8 
L 429.7 172.8 
L 430.52 172.8 
L 432.16 172.8 
L 432.98 172.8 
L 433.8 172.8 
L 434.62 172.8 
L 435.44 172.8 
L 436.26 172.8 
L 437.08 172.8 
L 437.9 172.8 
L 438.72 172.8 
L 439.54 172.8 
L 440.36 172.8 
L 441.18 172.8 
L 442 172.8 
L 443.64 172.8 
L 444.46 172.8 
L 445.28 172.8 
L 446.1 172.8 
L 446.92 172.8 
L 448.56 172.8 
L 449.38 172.8 
L 450.2 172.8 
L 451.02 172.8 
L 451.84 172.8 
L 452.66 172.8 
L 454.3 172.8 
L 455.12 172.8 
L 455.94 172.8 
L 456.76 172.8 
L 457.58 172.8 
L 458.4 172.8 
L 459.22 172.8 
L 460.04 172.8 
L 460.86 172.8 
L 461.68 172.8 
L 462.5 172.8 
L 463.32 172.8 
L 464.14 172.8 
L 464.96 172.8 
L 465.78 172.8 
L 466.6 172.8 
L 467.42 172.8 
L 468.24 172.8 
L 469.06 172.8 
L 469.88 172.8 
L 470.7 172.8 
L 471.52 172.8 
L 472.34 172.8 
L 473.16 172.8 
L 473.98 172.8 
L 474.8 172.8 
L 475.62 172.8 
L 477.26 172.8 
L 478.08 172.8 
L 478.9 172.8 
L 479.72 172.8 
L 480.54 172.8 
L 481.36 172.8 
L 482.18 172.8 
L 483 172.8 
L 483.82 172.8 
L 484.64 172.8 
L 485.46 172.8 
L 486.28 172.8 
L 487.1 172.8 
L 487.92 172.8 
L 488.74 172.8 
L 489.56 172.8 
L 490.38 172.8 
L 491.2 172.8 
L 492.02 172.8 
L 492.84 172.8 
L 493.66 172.8 
L 494.48 172.8 
L 495.3 172.8 
L 496.12 172.8 
L 496.94 172.8 
L 497.76 172.8 
L 498.58 172.8 
L 499.4 172.8 
L 500.22 172.8 
L 501.04 172.8 
L 501.86 172.8 
L 502.68 172.8 
L 503.5 172.8 
L 504.32 172.8 
L 505.14 172.8 
L 505.96 172.8 
L 506.78 172.8 
L 507.6 172.8 
L 508.42 172.8 
L 509.24 172.8 
L 510.06 172.8 
L 510.88 172.8 
L 511.7 172.8 
L 512.52 172.8 
L 513.34 172.8 
L 514.16 172.8 
L 514.98 172.8 
L 515.8 172.8 
L 516.62 172.8 
L 517.44 172.8 
L 518.26 172.8 
L 519.08 172.8 
L 519.9 172.8 
L 520.72 172.8 
L 521.54 172.8 
L 522.36 172.8 
L 523.18 172.8 
L 524 172.8 
L 524.82 172.8 
L 525.64 172.8 
L 526.46 172.8 
L 527.28 172.8 
L 528.1 172.8 
L 528.92 172.8 
L 529.74 172.8 
L 530.56 172.8 
L 531.38 172.8 
L 532.2 172.8 
L 533.02 172.8 
L 533.84 172.8 
L 534.66 172.8 
L 535.48 172.8 
L 536.3 172.8 
L 537.12 172.8 
L 537.94 172.8 
L 538.76 172.8 
L 539.58 172.8 
L 540.4 172.8 
L 541.22 172.8 
L 542.04 172.8 
L 542.86 172.8 
L 543.68 172.8 
L 544.5 172.8 
L 545.32 172.8 
L 546.14 172.8 
L 546.96 172.8 
L 547.78 172.8 
L 548.6 172.8 
L 549.42 172.8 
L 550.24 172.8 
L 551.06 172.8 
L 551.88 172.8 
L 552.7 172.8 
L 553.52 172.8 
L 554.34 172.8 
L 555.16 172.8 
L 555.98 172.8 
L 556.8 172.8 
L 557.62 172.8 
L 558.44 172.8 
L 559.26 172.8 
L 560.08 172.8 
L 560.9 172.8 
L 561.72 172.8 
L 562.54 172.8 
L 563.36 172.8 
L 564.18 172.8 
L 565 172.8 
L 565.82 172.8 
L 566.64 172.8 
L 567.46 172.8 
L 568.28 172.8 
L 569.1 172.8 
L 569.92 172.8 
L 570.74 172.8 
L 571.56 172.8 
L 572.38 172.8 
L 573.2 172.8 
L 574.02 172.8 
L 574.84 172.8 
L 575.66 172.8 
L 576.48 172.8 
L 577.3 172.8 
L 578.12 172.8 
L 578.94 172.8 
L 579.76 172.8 
L 580.58 172.8 
L 581.4 172.8 
L 582.22 172.8 
L 583.04 172.8 
L 583.86 172.8 
L 584.68 172.8 
L 585.5 172.8 
L 586.32 172.8 
L 587.14 172.8 
L 587.96 172.8 
L 588.78 172.8 
L 589.6 172.8 
L 590.42 172.8 
L 591.24 172.8 
L 592.06 172.8 
L 592.88 172.8 
L 593.7 172.8 
L 594.52 172.8 
L 595.34 172.8 
L 596.16 172.8 
L 596.98 172.8 
L 597.8 172.8 
L 598.62 172.8 
L 599.44 172.8 
L 600.26 172.8 
L 601.08 172.8 
L 601.9 172.8 
L 602.72 172.8 
L 603.54 172.8 
L 604.36 172.8 
L 605.18 172.8 
L 606 172.8 
L 606.82 172.8 
L 607.64 172.8 
L 608.46 172.8 
L 609.28 172.8 
L 610.1 172.8 
L 610.92 172.8 
L 611.74 172.8 
L 612.56 172.8 
L 613.38 172.8 
L 614.2 172.8 
L 615.02 172.8 
L 615.84 172.8 
L 616.66 172.8 
L 617.48 172.8 
L 618.3 172.8 
L 619.12 172.8 
L 619.94 172.8 
L 620.76 172.8 
L 621.58 172.8 
L 622.4 172.8 
L 623.22 172.8 
L 624.04 172.8 
L 624.86 172.8 
L 625.68 172.8 
L 626.5 172.8 
L 627.32 172.8 
L 628.14 172.8 
L 628.96 172.8 
L 629.78 172.8 
L 630.6 172.8 
L 631.42 172.8 
L 632.24 172.8 
L 633.06 172.8 
L 633.88 172.8 
L 634.7 172.8 
L 635.52 172.8 
L 636.34 172.8 
L 637.16 172.8 
L 637.98 172.8 
L 638.8 172.8 
L 639.62 172.8 
L 640.44 172.8 
L 641.26 172.8 
L 642.08 172.8 
L 642.9 172.8 
L 643.72 172.8 
L 644.54 172.8 
L 645.36 172.8 
L 646.18 172.8 
L 646.18 172.8 
L 646.18 99.460797 
L 645.36 62.137964 
L 644.54 36.797284 
L 643.72 43.37342 
L 642.9 47.051961 
L 642.08 71.35062 
L 641.26 79.535433 
L 640.44 65.46256 
L 639.62 55.906264 
L 638.8 66.027385 
L 637.98 77.796297 
L 637.16 82.412195 
L 636.34 72.147026 
L 635.52 87.679729 
L 634.7 93.086934 
L 633.88 92.922498 
L 633.06 99.510717 
L 632.24 103.01666 
L 631.42 114.078034 
L 630.6 98.839455 
L 629.78 92.249083 
L 628.96 107.082622 
L 628.14 118.127763 
L 627.32 137.343701 
L 626.5 126.642985 
L 625.68 135.035121 
L 624.86 136.421015 
L 624.04 127.886717 
L 623.22 138.97296 
L 622.4 139.454022 
L 621.58 134.748062 
L 620.76 116.658875 
L 619.94 143.603964 
L 619.12 145.08802 
L 618.3 133.178987 
L 617.48 134.620398 
L 616.66 139.494127 
L 615.84 134.125542 
L 615.02 140.422266 
L 614.2 140.669402 
L 613.38 142.340243 
L 612.56 133.890687 
L 611.74 125.43215 
L 610.92 135.370384 
L 610.1 140.97564 
L 609.28 140.903922 
L 608.46 120.711122 
L 607.64 127.360538 
L 606.82 136.011291 
L 606 140.468775 
L 605.18 139.874031 
L 604.36 118.580946 
L 603.54 114.597905 
L 602.72 124.96935 
L 601.9 128.934843 
L 601.08 132.259503 
L 600.26 122.798133 
L 599.44 133.517067 
L 598.62 115.038173 
L 597.8 126.257604 
L 596.98 114.985506 
L 596.16 124.54584 
L 595.34 132.616998 
L 594.52 128.599874 
L 593.7 125.666643 
L 592.88 138.505927 
L 592.06 135.169407 
L 591.24 139.595265 
L 590.42 132.238815 
L 589.6 129.608796 
L 588.78 116.174847 
L 587.96 115.983845 
L 587.14 111.536999 
L 586.32 108.750936 
L 585.5 92.59742 
L 584.68 105.831716 
L 583.86 114.526543 
L 583.04 102.647398 
L 582.22 109.514983 
L 581.4 98.551097 
L 580.58 106.58058 
L 579.76 96.400904 
L 578.94 118.170468 
L 578.12 106.738843 
L 577.3 118.398755 
L 576.48 127.999659 
L 575.66 126.087133 
L 574.84 93.697741 
L 574.02 107.863607 
L 573.2 124.754238 
L 572.38 130.881402 
L 571.56 127.252352 
L 570.74 129.019279 
L 569.92 127.782609 
L 569.1 130.8366 
L 568.28 136.719773 
L 567.46 131.617966 
L 566.64 147.742865 
L 565.82 148.929287 
L 565 151.202296 
L 564.18 137.544667 
L 563.36 143.230839 
L 562.54 148.627941 
L 561.72 145.866225 
L 560.9 155.162584 
L 560.08 150.504247 
L 559.26 140.90523 
L 558.44 145.371973 
L 557.62 148.199346 
L 556.8 146.181128 
L 555.98 141.231809 
L 555.16 133.535641 
L 554.34 147.072889 
L 553.52 152.797903 
L 552.7 150.029934 
L 551.88 154.631642 
L 551.06 155.288124 
L 550.24 155.304572 
L 549.42 160.581268 
L 548.6 155.765331 
L 547.78 162.104605 
L 546.96 161.736017 
L 546.14 159.210135 
L 545.32 161.773586 
L 544.5 161.979002 
L 543.68 161.009288 
L 542.86 160.384856 
L 542.04 166.738035 
L 541.22 164.748128 
L 540.4 164.375099 
L 539.58 159.267135 
L 538.76 168.868205 
L 537.94 169.269587 
L 537.12 169.565151 
L 536.3 168.160709 
L 535.48 168.136177 
L 534.66 169.912278 
L 533.84 169.931224 
L 533.02 169.656808 
L 532.2 169.899097 
L 531.38 168.290061 
L 530.56 167.450436 
L 529.74 166.967126 
L 528.92 167.516207 
L 528.1 167.550591 
L 527.28 166.195728 
L 526.46 167.368847 
L 525.64 167.549013 
L 524.82 167.182546 
L 524 165.627488 
L 523.18 166.189945 
L 522.36 165.415101 
L 521.54 165.975909 
L 520.72 164.828295 
L 519.9 167.385599 
L 519.08 167.086736 
L 518.26 166.365365 
L 517.44 164.280197 
L 516.62 166.29557 
L 515.8 159.911377 
L 514.98 161.353659 
L 514.16 165.011153 
L 513.34 165.400295 
L 512.52 149.480295 
L 511.7 154.559797 
L 510.88 138.784951 
L 510.06 140.682683 
L 509.24 146.202521 
L 508.42 148.404828 
L 507.6 148.865624 
L 506.78 131.263058 
L 505.96 147.860241 
L 505.14 143.958812 
L 504.32 151.191388 
L 503.5 157.329561 
L 502.68 142.870545 
L 501.86 144.320431 
L 501.04 150.817374 
L 500.22 145.655102 
L 499.4 155.22197 
L 498.58 152.133809 
L 497.76 157.450409 
L 496.94 151.334413 
L 496.12 151.401411 
L 495.3 149.305953 
L 494.48 141.876128 
L 493.66 144.406767 
L 492.84 150.78553 
L 492.02 152.98769 
L 491.2 151.16288 
L 490.38 155.239752 
L 489.56 153.911023 
L 488.74 153.572811 
L 487.92 144.045461 
L 487.1 160.558225 
L 486.28 163.834296 
L 485.46 160.194549 
L 484.64 156.564413 
L 483.82 146.17734 
L 483 142.607055 
L 482.18 149.166364 
L 481.36 156.827837 
L 480.54 151.454685 
L 479.72 155.362097 
L 478.9 148.976195 
L 478.08 155.633027 
L 477.26 158.186782 
L 475.62 132.107285 
L 474.8 138.609098 
L 473.98 150.248206 
L 473.16 152.008544 
L 472.34 146.890441 
L 471.52 149.520401 
L 470.7 156.573486 
L 469.88 157.391667 
L 469.06 164.641104 
L 468.24 167.072871 
L 467.42 165.738345 
L 466.6 156.894773 
L 465.78 169.803811 
L 464.96 168.88194 
L 464.14 169.741306 
L 463.32 168.194915 
L 462.5 166.75511 
L 461.68 167.507691 
L 460.86 163.42858 
L 460.04 168.768551 
L 459.22 170.396703 
L 458.4 169.629983 
L 457.58 169.118828 
L 456.76 170.278928 
L 455.94 168.006945 
L 455.12 169.859516 
L 454.3 170.485857 
L 452.66 169.687218 
L 451.84 170.137092 
L 451.02 167.185631 
L 450.2 169.98079 
L 449.38 169.218517 
L 448.56 164.833763 
L 446.92 170.20925 
L 446.1 167.108754 
L 445.28 169.613982 
L 444.46 169.903056 
L 443.64 166.546014 
L 442 165.510642 
L 441.18 168.517228 
L 440.36 165.112172 
L 439.54 163.83638 
L 438.72 166.111053 
L 437.9 161.371718 
L 437.08 167.735105 
L 436.26 166.640247 
L 435.44 168.037448 
L 434.62 164.1535 
L 433.8 162.258694 
L 432.98 162.870411 
L 432.16 166.283972 
L 430.52 168.138226 
L 429.7 167.474339 
L 428.88 161.826221 
L 428.06 162.651859 
L 427.24 160.747288 
L 426.42 163.908121 
L 425.6 167.15476 
L 424.78 161.770669 
L 423.96 157.902074 
L 423.14 158.833095 
L 422.32 160.165457 
L 421.5 162.146055 
L 420.68 147.540374 
L 419.86 145.374108 
L 419.04 150.340249 
L 418.22 160.552068 
L 417.4 155.120595 
L 416.58 149.713731 
L 415.76 159.667339 
L 414.94 161.386829 
L 414.12 167.279462 
L 413.3 165.135586 
L 412.48 150.291701 
L 411.66 158.109143 
L 410.84 160.171998 
L 410.02 152.42869 
L 409.2 157.304903 
L 408.38 155.955566 
L 407.56 158.239045 
L 406.74 162.760749 
L 405.92 162.765909 
L 405.1 158.777204 
L 404.28 159.257517 
L 403.46 155.079929 
L 402.64 148.031499 
L 401.82 161.293767 
L 401 161.848849 
L 400.18 163.136477 
L 399.36 156.5439 
L 398.54 160.739209 
L 397.72 158.689036 
L 396.9 144.088037 
L 396.08 157.760037 
L 395.26 163.356558 
L 394.44 153.192368 
L 393.62 153.272765 
L 392.8 157.774199 
L 391.98 161.645967 
L 391.16 160.770648 
L 390.34 158.959026 
L 389.52 158.520586 
L 388.7 162.451153 
L 387.88 159.424278 
L 387.06 159.638535 
L 386.24 156.970573 
L 385.42 160.501812 
L 384.6 152.994642 
L 383.78 161.668695 
L 382.96 157.258711 
L 382.14 158.788273 
L 381.32 158.858907 
L 380.5 158.516715 
L 379.68 163.743147 
L 378.86 162.489613 
L 378.04 161.521291 
L 377.22 165.224798 
L 376.4 156.704483 
L 375.58 163.998092 
L 374.76 162.254694 
L 373.94 159.18147 
L 373.12 160.050646 
L 372.3 158.354474 
L 371.48 162.057138 
L 370.66 162.160626 
L 369.84 157.859146 
L 369.02 158.32727 
L 368.2 158.090231 
L 367.38 161.209244 
L 366.56 160.033633 
L 365.74 163.662425 
L 364.92 161.827964 
L 364.1 164.649626 
L 363.28 164.920767 
L 362.46 146.885547 
L 361.64 163.850156 
L 360.82 165.823285 
L 360 162.789178 
L 359.18 157.6465 
L 358.36 153.449214 
L 357.54 150.303197 
L 356.72 152.767936 
L 355.9 151.825292 
L 355.08 152.444486 
L 354.26 158.58044 
L 353.44 154.513309 
L 352.62 143.6746 
L 351.8 156.880157 
L 350.98 161.296053 
L 350.16 157.349093 
L 349.34 156.703201 
L 348.52 162.190815 
L 347.7 145.428983 
L 346.88 160.160564 
L 346.06 166.419898 
L 345.24 150.276936 
L 344.42 164.780949 
L 343.6 158.571776 
L 342.78 155.083426 
L 341.96 148.406184 
L 341.14 159.452205 
L 340.32 160.285862 
L 339.5 155.581254 
L 338.68 110.835066 
L 337.86 149.024787 
L 337.04 151.548671 
L 336.22 152.947264 
L 335.4 150.573888 
L 334.58 153.285432 
L 333.76 155.220387 
L 332.94 152.292685 
L 332.12 149.637708 
L 331.3 151.937534 
L 330.48 132.64759 
L 329.66 154.660689 
L 328.84 142.453945 
L 328.02 151.745871 
L 327.2 151.309359 
L 326.38 159.153007 
L 325.56 151.451369 
L 324.74 144.259307 
L 323.92 145.094762 
L 323.1 159.477337 
L 322.28 161.13595 
L 321.46 157.746724 
L 320.64 142.002213 
L 319.82 160.372069 
L 319 158.502605 
L 318.18 155.387589 
L 317.36 160.797089 
L 316.54 160.709358 
L 315.72 163.248359 
L 314.08 163.92648 
L 313.26 153.604697 
L 312.44 163.201358 
L 311.62 147.747298 
L 310.8 158.882882 
L 309.98 148.275273 
L 309.16 166.599909 
L 308.34 137.555743 
L 307.52 148.813957 
L 306.7 133.479402 
L 305.88 157.27212 
L 305.06 160.298273 
L 304.24 154.676746 
L 303.42 156.703074 
L 302.6 152.334566 
L 301.78 148.695107 
L 300.96 143.685901 
L 300.14 154.535285 
L 299.32 154.908595 
L 298.5 157.524897 
L 297.68 161.651687 
L 296.86 156.582527 
L 296.04 163.962626 
L 295.22 161.945421 
L 294.4 159.588789 
L 293.58 166.075926 
L 292.76 165.47721 
L 291.94 157.759701 
L 291.12 163.986371 
L 290.3 157.183429 
L 289.48 148.994592 
L 288.66 161.987731 
L 287.84 163.770939 
L 287.02 160.207736 
L 286.2 165.684599 
L 285.38 167.091371 
L 284.56 153.153443 
L 283.74 164.363073 
L 282.92 157.134775 
L 282.1 164.006846 
L 281.28 160.083455 
L 280.46 163.27073 
L 279.64 163.824613 
L 278.82 158.016967 
L 278 156.273119 
L 277.18 122.078002 
L 276.36 123.702531 
L 275.54 120.012803 
L 274.72 152.045937 
L 273.9 155.107912 
L 273.08 154.859547 
L 272.26 148.879781 
L 271.44 143.621488 
L 270.62 140.186683 
L 269.8 146.421512 
L 268.98 151.205287 
L 268.16 161.512758 
L 267.34 157.362938 
L 266.52 156.385067 
L 265.7 135.319107 
L 264.88 129.483512 
L 264.06 153.901285 
L 263.24 140.010435 
L 262.42 108.985007 
L 261.6 121.340488 
L 260.78 151.730646 
L 259.96 128.369516 
L 259.14 149.479177 
L 258.32 149.837847 
L 257.5 159.804678 
L 256.68 95.698788 
L 255.86 142.968153 
L 255.04 153.773682 
L 254.22 141.239415 
L 253.4 150.508941 
L 252.58 138.139219 
L 251.76 159.077734 
L 250.94 153.722847 
L 250.12 158.553627 
L 249.3 158.335041 
L 248.48 128.807052 
L 247.66 129.523365 
L 246.84 145.812736 
L 246.02 147.047791 
L 245.2 146.213781 
L 244.38 150.072904 
L 243.56 150.073277 
L 242.74 159.141672 
L 241.92 154.818455 
L 241.1 158.866658 
L 240.28 156.067346 
L 239.46 163.574145 
L 238.64 161.008327 
L 237.82 157.909714 
L 237 155.967199 
L 236.18 159.654534 
L 235.36 168.674933 
L 234.54 165.222096 
L 233.72 166.486128 
L 232.9 165.087015 
L 232.08 168.602919 
L 231.26 165.693351 
L 230.44 167.179602 
L 229.62 168.395351 
L 228.8 167.65776 
L 227.98 167.794128 
L 227.16 169.931677 
L 226.34 165.698432 
L 225.52 169.230743 
L 224.7 169.81386 
L 223.88 169.665066 
L 223.06 168.401141 
L 222.24 167.596329 
L 221.42 168.932627 
L 220.6 168.494585 
L 219.78 162.115433 
L 218.96 169.269568 
L 218.14 165.990034 
L 217.32 171.104679 
L 216.5 170.379808 
L 215.68 170.628104 
L 214.86 167.431355 
L 214.04 170.733886 
L 213.22 169.047784 
L 212.4 169.277563 
L 211.58 171.229738 
L 210.76 170.227101 
L 209.94 168.967024 
L 209.12 168.58194 
L 208.3 164.438882 
L 207.48 167.947869 
L 206.66 166.837367 
L 205.84 167.141018 
L 205.02 169.696441 
L 204.2 166.013933 
L 203.38 168.806989 
L 202.56 169.511381 
L 201.74 167.9087 
L 200.92 161.816896 
L 200.1 165.233532 
L 199.28 170.780786 
L 198.46 167.915418 
L 197.64 168.63132 
L 196.82 167.280606 
L 195.18 170.76046 
L 194.36 172.031842 
L 193.54 170.87619 
L 192.72 168.130107 
L 191.9 163.103469 
L 191.08 157.752959 
L 190.26 169.139975 
L 189.44 169.796071 
L 188.62 170.446887 
L 187.8 166.886149 
L 186.98 169.361449 
L 186.16 159.200822 
L 185.34 167.068317 
L 184.52 166.970429 
L 183.7 170.353626 
L 182.88 163.161988 
L 182.06 171.495372 
L 181.24 163.074154 
L 180.42 170.854349 
L 179.6 169.477804 
L 178.78 171.534773 
L 177.14 169.081697 
L 175.5 171.843638 
L 174.68 171.270934 
L 170.58 170.704339 
L 169.76 171.206217 
L 168.94 169.944211 
L 165.66 162.803241 
L 164.02 172.52543 
L 163.2 171.562596 
L 162.38 166.993541 
L 161.56 168.130931 
L 158.28 171.635415 
L 157.46 172.285328 
L 156.64 170.452868 
L 153.36 171.75282 
L 152.54 171.222417 
L 151.72 170.533354 
L 150.9 167.40976 
L 148.44 168.087052 
L 147.62 170.575436 
L 146.8 171.130131 
L 145.98 170.283697 
L 145.16 172.202218 
L 144.34 171.730684 
L 143.52 171.569774 
L 142.7 170.811182 
L 141.88 169.161055 
L 141.06 168.817292 
L 140.24 168.177848 
L 137.78 172.265358 
L 136.96 172.259014 
L 136.14 163.422527 
L 135.32 170.103137 
L 134.5 169.478039 
L 133.68 164.808486 
L 132.86 172.225378 
L 132.04 171.459807 
L 131.22 163.762475 
L 130.4 171.942156 
L 129.58 169.222475 
L 128.76 170.437287 
L 127.94 169.734239 
L 127.12 172.220385 
L 126.3 170.27508 
L 124.66 171.106516 
L 123.84 171.627586 
L 123.02 169.758832 
L 122.2 169.351265 
L 121.38 170.700195 
L 119.74 167.293245 
L 118.92 169.543048 
L 118.1 168.544858 
L 116.46 166.755199 
L 114.82 171.359878 
L 114 169.869853 
L 113.18 168.360254 
L 112.36 169.181138 
L 111.54 167.580135 
L 110.72 170.450702 
L 108.26 135.013961 
L 107.44 164.38752 
L 106.62 170.044699 
L 105.8 169.655506 
L 104.98 169.142809 
L 103.34 172.471761 
L 102.52 167.017463 
L 101.7 166.169989 
L 100.88 169.958876 
L 100.06 154.217713 
L 97.6 163.234981 
L 96.78 151.999598 
L 95.96 154.566309 
L 95.14 161.291662 
L 94.32 145.017609 
L 93.5 147.176518 
L 91.04 148.422949 
L 90.22 154.2387 
L 89.4 161.57135 
L 88.58 152.458906 
z
" style="fill:#008000;fill-opacity:0.3;"/>
   </g>
   <g id="matplotlib.axis_1">
    <g id="xtick_1">
     <g id="line2d_1">
      <path clip-path="url(#p67abb271e9)" d="M 90.22 172.8 
L 90.22 25.92 
" style="fill:none;stroke:#808080;stroke-dasharray:6.4,1.6,1,1.6;stroke-dashoffset:0;stroke-opacity:0.3;"/>
     </g>
     <g id="line2d_2">
      <defs>
       <path d="M 0 0 
L 0 3.5 
" id="m615b8c8d4d" style="stroke:#000000;stroke-width:0.8;"/>
      </defs>
      <g>
       <use style="stroke:#000000;stroke-width:0.8;" x="90.22" xlink:href="#m615b8c8d4d" y="172.8"/>
      </g>
     </g>
     <g id="text_1">
      <!-- 2020-04 -->
      <g transform="translate(69.328594 187.398438)scale(0.1 -0.1)">
       <defs>
        <path d="M 19.1875 8.296875 
L 53.609375 8.296875 
L 53.609375 0 
L 7.328125 0 
L 7.328125 8.296875 
Q 12.9375 14.109375 22.625 23.890625 
Q 32.328125 33.6875 34.8125 36.53125 
Q 39.546875 41.84375 41.421875 45.53125 
Q 43.3125 49.21875 43.3125 52.78125 
Q 43.3125 58.59375 39.234375 62.25 
Q 35.15625 65.921875 28.609375 65.921875 
Q 23.96875 65.921875 18.8125 64.3125 
Q 13.671875 62.703125 7.8125 59.421875 
L 7.8125 69.390625 
Q 13.765625 71.78125 18.9375 73 
Q 24.125 74.21875 28.421875 74.21875 
Q 39.75 74.21875 46.484375 68.546875 
Q 53.21875 62.890625 53.21875 53.421875 
Q 53.21875 48.921875 51.53125 44.890625 
Q 49.859375 40.875 45.40625 35.40625 
Q 44.1875 33.984375 37.640625 27.21875 
Q 31.109375 20.453125 19.1875 8.296875 
z
" id="DejaVuSans-50"/>
        <path d="M 31.78125 66.40625 
Q 24.171875 66.40625 20.328125 58.90625 
Q 16.5 51.421875 16.5 36.375 
Q 16.5 21.390625 20.328125 13.890625 
Q 24.171875 6.390625 31.78125 6.390625 
Q 39.453125 6.390625 43.28125 13.890625 
Q 47.125 21.390625 47.125 36.375 
Q 47.125 51.421875 43.28125 58.90625 
Q 39.453125 66.40625 31.78125 66.40625 
z
M 31.78125 74.21875 
Q 44.046875 74.21875 50.515625 64.515625 
Q 56.984375 54.828125 56.984375 36.375 
Q 56.984375 17.96875 50.515625 8.265625 
Q 44.046875 -1.421875 31.78125 -1.421875 
Q 19.53125 -1.421875 13.0625 8.265625 
Q 6.59375 17.96875 6.59375 36.375 
Q 6.59375 54.828125 13.0625 64.515625 
Q 19.53125 74.21875 31.78125 74.21875 
z
" id="DejaVuSans-48"/>
        <path d="M 4.890625 31.390625 
L 31.203125 31.390625 
L 31.203125 23.390625 
L 4.890625 23.390625 
z
" id="DejaVuSans-45"/>
        <path d="M 37.796875 64.3125 
L 12.890625 25.390625 
L 37.796875 25.390625 
z
M 35.203125 72.90625 
L 47.609375 72.90625 
L 47.609375 25.390625 
L 58.015625 25.390625 
L 58.015625 17.1875 
L 47.609375 17.1875 
L 47.609375 0 
L 37.796875 0 
L 37.796875 17.1875 
L 4.890625 17.1875 
L 4.890625 26.703125 
z
" id="DejaVuSans-52"/>
       </defs>
       <use xlink:href="#DejaVuSans-50"/>
       <use x="63.623047" xlink:href="#DejaVuSans-48"/>
       <use x="127.246094" xlink:href="#DejaVuSans-50"/>
       <use x="190.869141" xlink:href="#DejaVuSans-48"/>
       <use x="254.492188" xlink:href="#DejaVuSans-45"/>
       <use x="290.576172" xlink:href="#DejaVuSans-48"/>
       <use x="354.199219" xlink:href="#DejaVuSans-52"/>
      </g>
     </g>
    </g>
    <g id="xtick_2">
     <g id="line2d_3">
      <path clip-path="url(#p67abb271e9)" d="M 164.84 172.8 
L 164.84 25.92 
" style="fill:none;stroke:#808080;stroke-dasharray:6.4,1.6,1,1.6;stroke-dashoffset:0;stroke-opacity:0.3;"/>
     </g>
     <g id="line2d_4">
      <g>
       <use style="stroke:#000000;stroke-width:0.8;" x="164.84" xlink:href="#m615b8c8d4d" y="172.8"/>
      </g>
     </g>
     <g id="text_2">
      <!-- 2020-07 -->
      <g transform="translate(143.948594 187.398438)scale(0.1 -0.1)">
       <defs>
        <path d="M 8.203125 72.90625 
L 55.078125 72.90625 
L 55.078125 68.703125 
L 28.609375 0 
L 18.3125 0 
L 43.21875 64.59375 
L 8.203125 64.59375 
z
" id="DejaVuSans-55"/>
       </defs>
       <use xlink:href="#DejaVuSans-50"/>
       <use x="63.623047" xlink:href="#DejaVuSans-48"/>
       <use x="127.246094" xlink:href="#DejaVuSans-50"/>
       <use x="190.869141" xlink:href="#DejaVuSans-48"/>
       <use x="254.492188" xlink:href="#DejaVuSans-45"/>
       <use x="290.576172" xlink:href="#DejaVuSans-48"/>
       <use x="354.199219" xlink:href="#DejaVuSans-55"/>
      </g>
     </g>
    </g>
    <g id="xtick_3">
     <g id="line2d_5">
      <path clip-path="url(#p67abb271e9)" d="M 240.28 172.8 
L 240.28 25.92 
" style="fill:none;stroke:#808080;stroke-dasharray:6.4,1.6,1,1.6;stroke-dashoffset:0;stroke-opacity:0.3;"/>
     </g>
     <g id="line2d_6">
      <g>
       <use style="stroke:#000000;stroke-width:0.8;" x="240.28" xlink:href="#m615b8c8d4d" y="172.8"/>
      </g>
     </g>
     <g id="text_3">
      <!-- 2020-10 -->
      <g transform="translate(219.388594 187.398438)scale(0.1 -0.1)">
       <defs>
        <path d="M 12.40625 8.296875 
L 28.515625 8.296875 
L 28.515625 63.921875 
L 10.984375 60.40625 
L 10.984375 69.390625 
L 28.421875 72.90625 
L 38.28125 72.90625 
L 38.28125 8.296875 
L 54.390625 8.296875 
L 54.390625 0 
L 12.40625 0 
z
" id="DejaVuSans-49"/>
       </defs>
       <use xlink:href="#DejaVuSans-50"/>
       <use x="63.623047" xlink:href="#DejaVuSans-48"/>
       <use x="127.246094" xlink:href="#DejaVuSans-50"/>
       <use x="190.869141" xlink:href="#DejaVuSans-48"/>
       <use x="254.492188" xlink:href="#DejaVuSans-45"/>
       <use x="290.576172" xlink:href="#DejaVuSans-49"/>
       <use x="354.199219" xlink:href="#DejaVuSans-48"/>
      </g>
     </g>
    </g>
    <g id="xtick_4">
     <g id="line2d_7">
      <path clip-path="url(#p67abb271e9)" d="M 315.72 172.8 
L 315.72 25.92 
" style="fill:none;stroke:#808080;stroke-dasharray:6.4,1.6,1,1.6;stroke-dashoffset:0;stroke-opacity:0.3;"/>
     </g>
     <g id="line2d_8">
      <g>
       <use style="stroke:#000000;stroke-width:0.8;" x="315.72" xlink:href="#m615b8c8d4d" y="172.8"/>
      </g>
     </g>
     <g id="text_4">
      <!-- 2021-01 -->
      <g transform="translate(294.828594 187.398438)scale(0.1 -0.1)">
       <use xlink:href="#DejaVuSans-50"/>
       <use x="63.623047" xlink:href="#DejaVuSans-48"/>
       <use x="127.246094" xlink:href="#DejaVuSans-50"/>
       <use x="190.869141" xlink:href="#DejaVuSans-49"/>
       <use x="254.492188" xlink:href="#DejaVuSans-45"/>
       <use x="290.576172" xlink:href="#DejaVuSans-48"/>
       <use x="354.199219" xlink:href="#DejaVuSans-49"/>
      </g>
     </g>
    </g>
    <g id="xtick_5">
     <g id="line2d_9">
      <path clip-path="url(#p67abb271e9)" d="M 389.52 172.8 
L 389.52 25.92 
" style="fill:none;stroke:#808080;stroke-dasharray:6.4,1.6,1,1.6;stroke-dashoffset:0;stroke-opacity:0.3;"/>
     </g>
     <g id="line2d_10">
      <g>
       <use style="stroke:#000000;stroke-width:0.8;" x="389.52" xlink:href="#m615b8c8d4d" y="172.8"/>
      </g>
     </g>
     <g id="text_5">
      <!-- 2021-04 -->
      <g transform="translate(368.628594 187.398438)scale(0.1 -0.1)">
       <use xlink:href="#DejaVuSans-50"/>
       <use x="63.623047" xlink:href="#DejaVuSans-48"/>
       <use x="127.246094" xlink:href="#DejaVuSans-50"/>
       <use x="190.869141" xlink:href="#DejaVuSans-49"/>
       <use x="254.492188" xlink:href="#DejaVuSans-45"/>
       <use x="290.576172" xlink:href="#DejaVuSans-48"/>
       <use x="354.199219" xlink:href="#DejaVuSans-52"/>
      </g>
     </g>
    </g>
    <g id="xtick_6">
     <g id="line2d_11">
      <path clip-path="url(#p67abb271e9)" d="M 464.14 172.8 
L 464.14 25.92 
" style="fill:none;stroke:#808080;stroke-dasharray:6.4,1.6,1,1.6;stroke-dashoffset:0;stroke-opacity:0.3;"/>
     </g>
     <g id="line2d_12">
      <g>
       <use style="stroke:#000000;stroke-width:0.8;" x="464.14" xlink:href="#m615b8c8d4d" y="172.8"/>
      </g>
     </g>
     <g id="text_6">
      <!-- 2021-07 -->
      <g transform="translate(443.248594 187.398438)scale(0.1 -0.1)">
       <use xlink:href="#DejaVuSans-50"/>
       <use x="63.623047" xlink:href="#DejaVuSans-48"/>
       <use x="127.246094" xlink:href="#DejaVuSans-50"/>
       <use x="190.869141" xlink:href="#DejaVuSans-49"/>
       <use x="254.492188" xlink:href="#DejaVuSans-45"/>
       <use x="290.576172" xlink:href="#DejaVuSans-48"/>
       <use x="354.199219" xlink:href="#DejaVuSans-55"/>
      </g>
     </g>
    </g>
    <g id="xtick_7">
     <g id="line2d_13">
      <path clip-path="url(#p67abb271e9)" d="M 539.58 172.8 
L 539.58 25.92 
" style="fill:none;stroke:#808080;stroke-dasharray:6.4,1.6,1,1.6;stroke-dashoffset:0;stroke-opacity:0.3;"/>
     </g>
     <g id="line2d_14">
      <g>
       <use style="stroke:#000000;stroke-width:0.8;" x="539.58" xlink:href="#m615b8c8d4d" y="172.8"/>
      </g>
     </g>
     <g id="text_7">
      <!-- 2021-10 -->
      <g transform="translate(518.688594 187.398438)scale(0.1 -0.1)">
       <use xlink:href="#DejaVuSans-50"/>
       <use x="63.623047" xlink:href="#DejaVuSans-48"/>
       <use x="127.246094" xlink:href="#DejaVuSans-50"/>
       <use x="190.869141" xlink:href="#DejaVuSans-49"/>
       <use x="254.492188" xlink:href="#DejaVuSans-45"/>
       <use x="290.576172" xlink:href="#DejaVuSans-49"/>
       <use x="354.199219" xlink:href="#DejaVuSans-48"/>
      </g>
     </g>
    </g>
    <g id="xtick_8">
     <g id="line2d_15">
      <path clip-path="url(#p67abb271e9)" d="M 615.02 172.8 
L 615.02 25.92 
" style="fill:none;stroke:#808080;stroke-dasharray:6.4,1.6,1,1.6;stroke-dashoffset:0;stroke-opacity:0.3;"/>
     </g>
     <g id="line2d_16">
      <g>
       <use style="stroke:#000000;stroke-width:0.8;" x="615.02" xlink:href="#m615b8c8d4d" y="172.8"/>
      </g>
     </g>
     <g id="text_8">
      <!-- 2022-01 -->
      <g transform="translate(594.128594 187.398438)scale(0.1 -0.1)">
       <use xlink:href="#DejaVuSans-50"/>
       <use x="63.623047" xlink:href="#DejaVuSans-48"/>
       <use x="127.246094" xlink:href="#DejaVuSans-50"/>
       <use x="190.869141" xlink:href="#DejaVuSans-50"/>
       <use x="254.492188" xlink:href="#DejaVuSans-45"/>
       <use x="290.576172" xlink:href="#DejaVuSans-48"/>
       <use x="354.199219" xlink:href="#DejaVuSans-49"/>
      </g>
     </g>
    </g>
    <g id="text_9">
     <!-- Datum -->
     <g transform="translate(343.086719 201.076562)scale(0.1 -0.1)">
      <defs>
       <path d="M 19.671875 64.796875 
L 19.671875 8.109375 
L 31.59375 8.109375 
Q 46.6875 8.109375 53.6875 14.9375 
Q 60.6875 21.78125 60.6875 36.53125 
Q 60.6875 51.171875 53.6875 57.984375 
Q 46.6875 64.796875 31.59375 64.796875 
z
M 9.8125 72.90625 
L 30.078125 72.90625 
Q 51.265625 72.90625 61.171875 64.09375 
Q 71.09375 55.28125 71.09375 36.53125 
Q 71.09375 17.671875 61.125 8.828125 
Q 51.171875 0 30.078125 0 
L 9.8125 0 
z
" id="DejaVuSans-68"/>
       <path d="M 34.28125 27.484375 
Q 23.390625 27.484375 19.1875 25 
Q 14.984375 22.515625 14.984375 16.5 
Q 14.984375 11.71875 18.140625 8.90625 
Q 21.296875 6.109375 26.703125 6.109375 
Q 34.1875 6.109375 38.703125 11.40625 
Q 43.21875 16.703125 43.21875 25.484375 
L 43.21875 27.484375 
z
M 52.203125 31.203125 
L 52.203125 0 
L 43.21875 0 
L 43.21875 8.296875 
Q 40.140625 3.328125 35.546875 0.953125 
Q 30.953125 -1.421875 24.3125 -1.421875 
Q 15.921875 -1.421875 10.953125 3.296875 
Q 6 8.015625 6 15.921875 
Q 6 25.140625 12.171875 29.828125 
Q 18.359375 34.515625 30.609375 34.515625 
L 43.21875 34.515625 
L 43.21875 35.40625 
Q 43.21875 41.609375 39.140625 45 
Q 35.0625 48.390625 27.6875 48.390625 
Q 23 48.390625 18.546875 47.265625 
Q 14.109375 46.140625 10.015625 43.890625 
L 10.015625 52.203125 
Q 14.9375 54.109375 19.578125 55.046875 
Q 24.21875 56 28.609375 56 
Q 40.484375 56 46.34375 49.84375 
Q 52.203125 43.703125 52.203125 31.203125 
z
" id="DejaVuSans-97"/>
       <path d="M 18.3125 70.21875 
L 18.3125 54.6875 
L 36.8125 54.6875 
L 36.8125 47.703125 
L 18.3125 47.703125 
L 18.3125 18.015625 
Q 18.3125 11.328125 20.140625 9.421875 
Q 21.96875 7.515625 27.59375 7.515625 
L 36.8125 7.515625 
L 36.8125 0 
L 27.59375 0 
Q 17.1875 0 13.234375 3.875 
Q 9.28125 7.765625 9.28125 18.015625 
L 9.28125 47.703125 
L 2.6875 47.703125 
L 2.6875 54.6875 
L 9.28125 54.6875 
L 9.28125 70.21875 
z
" id="DejaVuSans-116"/>
       <path d="M 8.5 21.578125 
L 8.5 54.6875 
L 17.484375 54.6875 
L 17.484375 21.921875 
Q 17.484375 14.15625 20.5 10.265625 
Q 23.53125 6.390625 29.59375 6.390625 
Q 36.859375 6.390625 41.078125 11.03125 
Q 45.3125 15.671875 45.3125 23.6875 
L 45.3125 54.6875 
L 54.296875 54.6875 
L 54.296875 0 
L 45.3125 0 
L 45.3125 8.40625 
Q 42.046875 3.421875 37.71875 1 
Q 33.40625 -1.421875 27.6875 -1.421875 
Q 18.265625 -1.421875 13.375 4.4375 
Q 8.5 10.296875 8.5 21.578125 
z
M 31.109375 56 
z
" id="DejaVuSans-117"/>
       <path d="M 52 44.1875 
Q 55.375 50.25 60.0625 53.125 
Q 64.75 56 71.09375 56 
Q 79.640625 56 84.28125 50.015625 
Q 88.921875 44.046875 88.921875 33.015625 
L 88.921875 0 
L 79.890625 0 
L 79.890625 32.71875 
Q 79.890625 40.578125 77.09375 44.375 
Q 74.3125 48.1875 68.609375 48.1875 
Q 61.625 48.1875 57.5625 43.546875 
Q 53.515625 38.921875 53.515625 30.90625 
L 53.515625 0 
L 44.484375 0 
L 44.484375 32.71875 
Q 44.484375 40.625 41.703125 44.40625 
Q 38.921875 48.1875 33.109375 48.1875 
Q 26.21875 48.1875 22.15625 43.53125 
Q 18.109375 38.875 18.109375 30.90625 
L 18.109375 0 
L 9.078125 0 
L 9.078125 54.6875 
L 18.109375 54.6875 
L 18.109375 46.1875 
Q 21.1875 51.21875 25.484375 53.609375 
Q 29.78125 56 35.6875 56 
Q 41.65625 56 45.828125 52.96875 
Q 50 49.953125 52 44.1875 
z
" id="DejaVuSans-109"/>
      </defs>
      <use xlink:href="#DejaVuSans-68"/>
      <use x="77.001953" xlink:href="#DejaVuSans-97"/>
      <use x="138.28125" xlink:href="#DejaVuSans-116"/>
      <use x="177.490234" xlink:href="#DejaVuSans-117"/>
      <use x="240.869141" xlink:href="#DejaVuSans-109"/>
     </g>
    </g>
   </g>
   <g id="matplotlib.axis_2">
    <g id="ytick_1">
     <g id="line2d_17">
      <path clip-path="url(#p67abb271e9)" d="M 64.8 172.8 
L 655.2 172.8 
" style="fill:none;stroke:#808080;stroke-dasharray:6.4,1.6,1,1.6;stroke-dashoffset:0;stroke-opacity:0.3;"/>
     </g>
     <g id="line2d_18">
      <defs>
       <path d="M 0 0 
L -3.5 0 
" id="m0fa073aaf0" style="stroke:#000000;stroke-width:0.8;"/>
      </defs>
      <g>
       <use style="stroke:#000000;stroke-width:0.8;" x="64.8" xlink:href="#m0fa073aaf0" y="172.8"/>
      </g>
     </g>
     <g id="text_10">
      <!-- 0 -->
      <g transform="translate(51.4375 176.599219)scale(0.1 -0.1)">
       <use xlink:href="#DejaVuSans-48"/>
      </g>
     </g>
    </g>
    <g id="ytick_2">
     <g id="line2d_19">
      <path clip-path="url(#p67abb271e9)" d="M 64.8 143.424 
L 655.2 143.424 
" style="fill:none;stroke:#808080;stroke-dasharray:6.4,1.6,1,1.6;stroke-dashoffset:0;stroke-opacity:0.3;"/>
     </g>
     <g id="line2d_20">
      <g>
       <use style="stroke:#000000;stroke-width:0.8;" x="64.8" xlink:href="#m0fa073aaf0" y="143.424"/>
      </g>
     </g>
     <g id="text_11">
      <!-- 50T -->
      <g transform="translate(38.967187 147.223219)scale(0.1 -0.1)">
       <defs>
        <path d="M 10.796875 72.90625 
L 49.515625 72.90625 
L 49.515625 64.59375 
L 19.828125 64.59375 
L 19.828125 46.734375 
Q 21.96875 47.46875 24.109375 47.828125 
Q 26.265625 48.1875 28.421875 48.1875 
Q 40.625 48.1875 47.75 41.5 
Q 54.890625 34.8125 54.890625 23.390625 
Q 54.890625 11.625 47.5625 5.09375 
Q 40.234375 -1.421875 26.90625 -1.421875 
Q 22.3125 -1.421875 17.546875 -0.640625 
Q 12.796875 0.140625 7.71875 1.703125 
L 7.71875 11.625 
Q 12.109375 9.234375 16.796875 8.0625 
Q 21.484375 6.890625 26.703125 6.890625 
Q 35.15625 6.890625 40.078125 11.328125 
Q 45.015625 15.765625 45.015625 23.390625 
Q 45.015625 31 40.078125 35.4375 
Q 35.15625 39.890625 26.703125 39.890625 
Q 22.75 39.890625 18.8125 39.015625 
Q 14.890625 38.140625 10.796875 36.28125 
z
" id="DejaVuSans-53"/>
        <path d="M -0.296875 72.90625 
L 61.375 72.90625 
L 61.375 64.59375 
L 35.5 64.59375 
L 35.5 0 
L 25.59375 0 
L 25.59375 64.59375 
L -0.296875 64.59375 
z
" id="DejaVuSans-84"/>
       </defs>
       <use xlink:href="#DejaVuSans-53"/>
       <use x="63.623047" xlink:href="#DejaVuSans-48"/>
       <use x="127.246094" xlink:href="#DejaVuSans-84"/>
      </g>
     </g>
    </g>
    <g id="ytick_3">
     <g id="line2d_21">
      <path clip-path="url(#p67abb271e9)" d="M 64.8 114.048 
L 655.2 114.048 
" style="fill:none;stroke:#808080;stroke-dasharray:6.4,1.6,1,1.6;stroke-dashoffset:0;stroke-opacity:0.3;"/>
     </g>
     <g id="line2d_22">
      <g>
       <use style="stroke:#000000;stroke-width:0.8;" x="64.8" xlink:href="#m0fa073aaf0" y="114.048"/>
      </g>
     </g>
     <g id="text_12">
      <!-- 100T -->
      <g transform="translate(32.604687 117.847219)scale(0.1 -0.1)">
       <use xlink:href="#DejaVuSans-49"/>
       <use x="63.623047" xlink:href="#DejaVuSans-48"/>
       <use x="127.246094" xlink:href="#DejaVuSans-48"/>
       <use x="190.869141" xlink:href="#DejaVuSans-84"/>
      </g>
     </g>
    </g>
    <g id="ytick_4">
     <g id="line2d_23">
      <path clip-path="url(#p67abb271e9)" d="M 64.8 84.672 
L 655.2 84.672 
" style="fill:none;stroke:#808080;stroke-dasharray:6.4,1.6,1,1.6;stroke-dashoffset:0;stroke-opacity:0.3;"/>
     </g>
     <g id="line2d_24">
      <g>
       <use style="stroke:#000000;stroke-width:0.8;" x="64.8" xlink:href="#m0fa073aaf0" y="84.672"/>
      </g>
     </g>
     <g id="text_13">
      <!-- 150T -->
      <g transform="translate(32.604687 88.471219)scale(0.1 -0.1)">
       <use xlink:href="#DejaVuSans-49"/>
       <use x="63.623047" xlink:href="#DejaVuSans-53"/>
       <use x="127.246094" xlink:href="#DejaVuSans-48"/>
       <use x="190.869141" xlink:href="#DejaVuSans-84"/>
      </g>
     </g>
    </g>
    <g id="ytick_5">
     <g id="line2d_25">
      <path clip-path="url(#p67abb271e9)" d="M 64.8 55.296 
L 655.2 55.296 
" style="fill:none;stroke:#808080;stroke-dasharray:6.4,1.6,1,1.6;stroke-dashoffset:0;stroke-opacity:0.3;"/>
     </g>
     <g id="line2d_26">
      <g>
       <use style="stroke:#000000;stroke-width:0.8;" x="64.8" xlink:href="#m0fa073aaf0" y="55.296"/>
      </g>
     </g>
     <g id="text_14">
      <!-- 200T -->
      <g transform="translate(32.604687 59.095219)scale(0.1 -0.1)">
       <use xlink:href="#DejaVuSans-50"/>
       <use x="63.623047" xlink:href="#DejaVuSans-48"/>
       <use x="127.246094" xlink:href="#DejaVuSans-48"/>
       <use x="190.869141" xlink:href="#DejaVuSans-84"/>
      </g>
     </g>
    </g>
    <g id="ytick_6">
     <g id="line2d_27">
      <path clip-path="url(#p67abb271e9)" d="M 64.8 25.92 
L 655.2 25.92 
" style="fill:none;stroke:#808080;stroke-dasharray:6.4,1.6,1,1.6;stroke-dashoffset:0;stroke-opacity:0.3;"/>
     </g>
     <g id="line2d_28">
      <g>
       <use style="stroke:#000000;stroke-width:0.8;" x="64.8" xlink:href="#m0fa073aaf0" y="25.92"/>
      </g>
     </g>
     <g id="text_15">
      <!-- 250T -->
      <g transform="translate(32.604687 29.719219)scale(0.1 -0.1)">
       <use xlink:href="#DejaVuSans-50"/>
       <use x="63.623047" xlink:href="#DejaVuSans-53"/>
       <use x="127.246094" xlink:href="#DejaVuSans-48"/>
       <use x="190.869141" xlink:href="#DejaVuSans-84"/>
      </g>
     </g>
    </g>
    <g id="text_16">
     <!-- Deeltjes per 100k inwoners -->
     <g transform="translate(26.525 167.906875)rotate(-90)scale(0.1 -0.1)">
      <defs>
       <path d="M 56.203125 29.59375 
L 56.203125 25.203125 
L 14.890625 25.203125 
Q 15.484375 15.921875 20.484375 11.0625 
Q 25.484375 6.203125 34.421875 6.203125 
Q 39.59375 6.203125 44.453125 7.46875 
Q 49.3125 8.734375 54.109375 11.28125 
L 54.109375 2.78125 
Q 49.265625 0.734375 44.1875 -0.34375 
Q 39.109375 -1.421875 33.890625 -1.421875 
Q 20.796875 -1.421875 13.15625 6.1875 
Q 5.515625 13.8125 5.515625 26.8125 
Q 5.515625 40.234375 12.765625 48.109375 
Q 20.015625 56 32.328125 56 
Q 43.359375 56 49.78125 48.890625 
Q 56.203125 41.796875 56.203125 29.59375 
z
M 47.21875 32.234375 
Q 47.125 39.59375 43.09375 43.984375 
Q 39.0625 48.390625 32.421875 48.390625 
Q 24.90625 48.390625 20.390625 44.140625 
Q 15.875 39.890625 15.1875 32.171875 
z
" id="DejaVuSans-101"/>
       <path d="M 9.421875 75.984375 
L 18.40625 75.984375 
L 18.40625 0 
L 9.421875 0 
z
" id="DejaVuSans-108"/>
       <path d="M 9.421875 54.6875 
L 18.40625 54.6875 
L 18.40625 -0.984375 
Q 18.40625 -11.421875 14.421875 -16.109375 
Q 10.453125 -20.796875 1.609375 -20.796875 
L -1.8125 -20.796875 
L -1.8125 -13.1875 
L 0.59375 -13.1875 
Q 5.71875 -13.1875 7.5625 -10.8125 
Q 9.421875 -8.453125 9.421875 -0.984375 
z
M 9.421875 75.984375 
L 18.40625 75.984375 
L 18.40625 64.59375 
L 9.421875 64.59375 
z
" id="DejaVuSans-106"/>
       <path d="M 44.28125 53.078125 
L 44.28125 44.578125 
Q 40.484375 46.53125 36.375 47.5 
Q 32.28125 48.484375 27.875 48.484375 
Q 21.1875 48.484375 17.84375 46.4375 
Q 14.5 44.390625 14.5 40.28125 
Q 14.5 37.15625 16.890625 35.375 
Q 19.28125 33.59375 26.515625 31.984375 
L 29.59375 31.296875 
Q 39.15625 29.25 43.1875 25.515625 
Q 47.21875 21.78125 47.21875 15.09375 
Q 47.21875 7.46875 41.1875 3.015625 
Q 35.15625 -1.421875 24.609375 -1.421875 
Q 20.21875 -1.421875 15.453125 -0.5625 
Q 10.6875 0.296875 5.421875 2 
L 5.421875 11.28125 
Q 10.40625 8.6875 15.234375 7.390625 
Q 20.0625 6.109375 24.8125 6.109375 
Q 31.15625 6.109375 34.5625 8.28125 
Q 37.984375 10.453125 37.984375 14.40625 
Q 37.984375 18.0625 35.515625 20.015625 
Q 33.0625 21.96875 24.703125 23.78125 
L 21.578125 24.515625 
Q 13.234375 26.265625 9.515625 29.90625 
Q 5.8125 33.546875 5.8125 39.890625 
Q 5.8125 47.609375 11.28125 51.796875 
Q 16.75 56 26.8125 56 
Q 31.78125 56 36.171875 55.265625 
Q 40.578125 54.546875 44.28125 53.078125 
z
" id="DejaVuSans-115"/>
       <path id="DejaVuSans-32"/>
       <path d="M 18.109375 8.203125 
L 18.109375 -20.796875 
L 9.078125 -20.796875 
L 9.078125 54.6875 
L 18.109375 54.6875 
L 18.109375 46.390625 
Q 20.953125 51.265625 25.265625 53.625 
Q 29.59375 56 35.59375 56 
Q 45.5625 56 51.78125 48.09375 
Q 58.015625 40.1875 58.015625 27.296875 
Q 58.015625 14.40625 51.78125 6.484375 
Q 45.5625 -1.421875 35.59375 -1.421875 
Q 29.59375 -1.421875 25.265625 0.953125 
Q 20.953125 3.328125 18.109375 8.203125 
z
M 48.6875 27.296875 
Q 48.6875 37.203125 44.609375 42.84375 
Q 40.53125 48.484375 33.40625 48.484375 
Q 26.265625 48.484375 22.1875 42.84375 
Q 18.109375 37.203125 18.109375 27.296875 
Q 18.109375 17.390625 22.1875 11.75 
Q 26.265625 6.109375 33.40625 6.109375 
Q 40.53125 6.109375 44.609375 11.75 
Q 48.6875 17.390625 48.6875 27.296875 
z
" id="DejaVuSans-112"/>
       <path d="M 41.109375 46.296875 
Q 39.59375 47.171875 37.8125 47.578125 
Q 36.03125 48 33.890625 48 
Q 26.265625 48 22.1875 43.046875 
Q 18.109375 38.09375 18.109375 28.8125 
L 18.109375 0 
L 9.078125 0 
L 9.078125 54.6875 
L 18.109375 54.6875 
L 18.109375 46.1875 
Q 20.953125 51.171875 25.484375 53.578125 
Q 30.03125 56 36.53125 56 
Q 37.453125 56 38.578125 55.875 
Q 39.703125 55.765625 41.0625 55.515625 
z
" id="DejaVuSans-114"/>
       <path d="M 9.078125 75.984375 
L 18.109375 75.984375 
L 18.109375 31.109375 
L 44.921875 54.6875 
L 56.390625 54.6875 
L 27.390625 29.109375 
L 57.625 0 
L 45.90625 0 
L 18.109375 26.703125 
L 18.109375 0 
L 9.078125 0 
z
" id="DejaVuSans-107"/>
       <path d="M 9.421875 54.6875 
L 18.40625 54.6875 
L 18.40625 0 
L 9.421875 0 
z
M 9.421875 75.984375 
L 18.40625 75.984375 
L 18.40625 64.59375 
L 9.421875 64.59375 
z
" id="DejaVuSans-105"/>
       <path d="M 54.890625 33.015625 
L 54.890625 0 
L 45.90625 0 
L 45.90625 32.71875 
Q 45.90625 40.484375 42.875 44.328125 
Q 39.84375 48.1875 33.796875 48.1875 
Q 26.515625 48.1875 22.3125 43.546875 
Q 18.109375 38.921875 18.109375 30.90625 
L 18.109375 0 
L 9.078125 0 
L 9.078125 54.6875 
L 18.109375 54.6875 
L 18.109375 46.1875 
Q 21.34375 51.125 25.703125 53.5625 
Q 30.078125 56 35.796875 56 
Q 45.21875 56 50.046875 50.171875 
Q 54.890625 44.34375 54.890625 33.015625 
z
" id="DejaVuSans-110"/>
       <path d="M 4.203125 54.6875 
L 13.1875 54.6875 
L 24.421875 12.015625 
L 35.59375 54.6875 
L 46.1875 54.6875 
L 57.421875 12.015625 
L 68.609375 54.6875 
L 77.59375 54.6875 
L 63.28125 0 
L 52.6875 0 
L 40.921875 44.828125 
L 29.109375 0 
L 18.5 0 
z
" id="DejaVuSans-119"/>
       <path d="M 30.609375 48.390625 
Q 23.390625 48.390625 19.1875 42.75 
Q 14.984375 37.109375 14.984375 27.296875 
Q 14.984375 17.484375 19.15625 11.84375 
Q 23.34375 6.203125 30.609375 6.203125 
Q 37.796875 6.203125 41.984375 11.859375 
Q 46.1875 17.53125 46.1875 27.296875 
Q 46.1875 37.015625 41.984375 42.703125 
Q 37.796875 48.390625 30.609375 48.390625 
z
M 30.609375 56 
Q 42.328125 56 49.015625 48.375 
Q 55.71875 40.765625 55.71875 27.296875 
Q 55.71875 13.875 49.015625 6.21875 
Q 42.328125 -1.421875 30.609375 -1.421875 
Q 18.84375 -1.421875 12.171875 6.21875 
Q 5.515625 13.875 5.515625 27.296875 
Q 5.515625 40.765625 12.171875 48.375 
Q 18.84375 56 30.609375 56 
z
" id="DejaVuSans-111"/>
      </defs>
      <use xlink:href="#DejaVuSans-68"/>
      <use x="77.001953" xlink:href="#DejaVuSans-101"/>
      <use x="138.525391" xlink:href="#DejaVuSans-101"/>
      <use x="200.048828" xlink:href="#DejaVuSans-108"/>
      <use x="227.832031" xlink:href="#DejaVuSans-116"/>
      <use x="267.041016" xlink:href="#DejaVuSans-106"/>
      <use x="294.824219" xlink:href="#DejaVuSans-101"/>
      <use x="356.347656" xlink:href="#DejaVuSans-115"/>
      <use x="408.447266" xlink:href="#DejaVuSans-32"/>
      <use x="440.234375" xlink:href="#DejaVuSans-112"/>
      <use x="503.710938" xlink:href="#DejaVuSans-101"/>
      <use x="565.234375" xlink:href="#DejaVuSans-114"/>
      <use x="606.347656" xlink:href="#DejaVuSans-32"/>
      <use x="638.134766" xlink:href="#DejaVuSans-49"/>
      <use x="701.757812" xlink:href="#DejaVuSans-48"/>
      <use x="765.380859" xlink:href="#DejaVuSans-48"/>
      <use x="829.003906" xlink:href="#DejaVuSans-107"/>
      <use x="886.914062" xlink:href="#DejaVuSans-32"/>
      <use x="918.701172" xlink:href="#DejaVuSans-105"/>
      <use x="946.484375" xlink:href="#DejaVuSans-110"/>
      <use x="1009.863281" xlink:href="#DejaVuSans-119"/>
      <use x="1091.650391" xlink:href="#DejaVuSans-111"/>
      <use x="1152.832031" xlink:href="#DejaVuSans-110"/>
      <use x="1216.210938" xlink:href="#DejaVuSans-101"/>
      <use x="1277.734375" xlink:href="#DejaVuSans-114"/>
      <use x="1318.847656" xlink:href="#DejaVuSans-115"/>
     </g>
    </g>
   </g>
   <g id="line2d_29">
    <path clip-path="url(#p67abb271e9)" d="M 88.58 149.62313 
L 91.04 153.044921 
L 93.5 154.185517 
L 95.14 156.466711 
L 97.6 159.313926 
L 100.06 160.232266 
L 101.7 161.997726 
L 103.34 163.498319 
L 104.98 164.117031 
L 105.8 164.649922 
L 106.62 165.043198 
L 108.26 165.481635 
L 110.72 166.019312 
L 112.36 166.849286 
L 114 167.489669 
L 114.82 167.779163 
L 118.1 168.301966 
L 119.74 168.891024 
L 121.38 169.205898 
L 123.02 169.789688 
L 124.66 169.886737 
L 128.76 169.745774 
L 134.5 169.425928 
L 136.96 169.587136 
L 137.78 169.653089 
L 141.06 169.79119 
L 145.16 170.303038 
L 147.62 170.352796 
L 151.72 170.246267 
L 156.64 170.206934 
L 162.38 169.99455 
L 174.68 169.551463 
L 175.5 169.387028 
L 179.6 168.830645 
L 181.24 168.390619 
L 184.52 167.525563 
L 186.16 167.237995 
L 191.08 167.223044 
L 195.18 167.805586 
L 198.46 167.783965 
L 200.92 167.63416 
L 203.38 167.838555 
L 205.84 167.900967 
L 208.3 168.234982 
L 210.76 168.670091 
L 212.4 168.790996 
L 216.5 168.778722 
L 218.96 168.542137 
L 220.6 168.38384 
L 225.52 168.006488 
L 227.16 167.67578 
L 229.62 166.856489 
L 231.26 166.036509 
L 232.9 164.987794 
L 234.54 163.651277 
L 236.18 161.935369 
L 237.82 159.948858 
L 241.1 155.494765 
L 245.2 150.486905 
L 246.02 149.690849 
L 247.66 147.911697 
L 248.48 147.381146 
L 249.3 147.145121 
L 250.94 146.339418 
L 251.76 145.753496 
L 253.4 144.096105 
L 255.04 142.673499 
L 256.68 141.070004 
L 258.32 140.829852 
L 259.14 140.561321 
L 259.96 140.152377 
L 261.6 139.821347 
L 262.42 140.006593 
L 264.88 142.391365 
L 266.52 144.05949 
L 267.34 144.631393 
L 269.8 145.238122 
L 271.44 145.994244 
L 273.08 147.02128 
L 275.54 147.643239 
L 276.36 148.209882 
L 277.18 149.061269 
L 280.46 154.207054 
L 282.1 156.274012 
L 285.38 159.604072 
L 286.2 160.335512 
L 287.02 160.742846 
L 287.84 160.942718 
L 291.12 160.512218 
L 293.58 159.789074 
L 296.04 158.550491 
L 298.5 156.56408 
L 301.78 153.983377 
L 303.42 153.235384 
L 304.24 152.975856 
L 306.7 152.596761 
L 308.34 153.130849 
L 309.16 153.727129 
L 310.8 154.61649 
L 313.26 155.954069 
L 314.08 156.223591 
L 317.36 156.474518 
L 318.18 156.420059 
L 319.82 155.818748 
L 320.64 155.179003 
L 322.28 154.204162 
L 325.56 151.903873 
L 328.02 150.798188 
L 328.84 150.262256 
L 330.48 149.554824 
L 333.76 149.553465 
L 338.68 150.67049 
L 340.32 152.216013 
L 341.14 152.927859 
L 344.42 154.950335 
L 346.06 155.634597 
L 347.7 155.895725 
L 349.34 156.118385 
L 352.62 155.505923 
L 354.26 155.533569 
L 355.08 155.598232 
L 356.72 156.045718 
L 358.36 156.898475 
L 361.64 158.670982 
L 362.46 158.999327 
L 363.28 159.464712 
L 364.92 160.001978 
L 366.56 160.344795 
L 368.2 160.496253 
L 374.76 160.658877 
L 377.22 160.558862 
L 379.68 160.284163 
L 382.96 159.663042 
L 391.16 158.319167 
L 392.8 158.062771 
L 394.44 157.748439 
L 397.72 157.627745 
L 401 157.863579 
L 403.46 157.862051 
L 405.92 158.346841 
L 407.56 158.395515 
L 410.02 158.061807 
L 412.48 157.689513 
L 413.3 157.713661 
L 414.94 157.369156 
L 416.58 156.982755 
L 418.22 156.990991 
L 419.04 157.033847 
L 419.86 157.211315 
L 420.68 157.594079 
L 424.78 160.242799 
L 427.24 162.122946 
L 429.7 163.728343 
L 430.52 164.163678 
L 433.8 164.837556 
L 436.26 165.495026 
L 438.72 166.002386 
L 444.46 167.427277 
L 446.92 168.05736 
L 448.56 168.23845 
L 450.2 168.625536 
L 452.66 168.878297 
L 455.94 168.876009 
L 458.4 168.509906 
L 460.04 168.067268 
L 461.68 167.307646 
L 463.32 166.200553 
L 464.14 165.50995 
L 464.96 164.634812 
L 468.24 160.140844 
L 472.34 154.151335 
L 473.98 152.24501 
L 474.8 151.514004 
L 475.62 151.116472 
L 479.72 151.144274 
L 481.36 151.552 
L 483 152.050661 
L 485.46 152.921069 
L 486.28 153.046638 
L 487.1 152.948982 
L 487.92 152.664587 
L 490.38 152.17186 
L 492.84 151.353982 
L 495.3 150.60725 
L 497.76 149.993841 
L 499.4 149.466062 
L 501.86 148.327302 
L 502.68 148.053677 
L 505.14 147.84578 
L 505.96 147.874119 
L 506.78 148.020097 
L 508.42 149.05927 
L 509.24 149.802003 
L 510.06 150.705176 
L 510.88 151.837254 
L 516.62 161.043952 
L 518.26 163.060066 
L 519.9 164.595433 
L 521.54 165.64724 
L 523.18 166.262164 
L 528.92 167.648762 
L 532.2 168.004044 
L 533.84 167.878205 
L 535.48 167.464202 
L 537.12 166.818132 
L 538.76 165.91805 
L 542.04 163.649725 
L 544.5 161.533618 
L 546.14 159.772866 
L 548.6 156.809788 
L 553.52 150.670699 
L 555.16 148.780237 
L 555.98 148.147846 
L 560.9 145.309319 
L 562.54 143.920903 
L 563.36 143.104496 
L 565 140.964406 
L 565.82 139.636719 
L 567.46 136.339323 
L 569.92 130.690446 
L 574.84 118.649722 
L 577.3 114.077304 
L 578.94 111.61669 
L 579.76 110.665349 
L 580.58 110.129829 
L 581.4 109.915117 
L 582.22 110.097366 
L 583.04 110.556115 
L 584.68 112.223953 
L 585.5 113.300284 
L 587.14 115.983527 
L 590.42 122.378687 
L 591.24 123.710119 
L 592.06 124.783118 
L 592.88 125.579086 
L 593.7 126.062041 
L 595.34 126.655118 
L 596.16 126.831342 
L 600.26 127.150836 
L 602.72 127.721068 
L 603.54 128.122383 
L 604.36 128.819434 
L 606 130.455143 
L 607.64 131.809598 
L 608.46 132.409993 
L 610.1 133.82783 
L 613.38 135.650536 
L 614.2 135.960629 
L 615.02 136.091314 
L 617.48 135.972546 
L 618.3 135.835539 
L 619.12 135.509686 
L 619.94 134.726936 
L 622.4 131.60927 
L 623.22 130.170881 
L 624.86 126.568589 
L 625.68 124.443976 
L 627.32 119.29682 
L 628.96 113.042267 
L 631.42 103.358153 
L 633.88 93.034234 
L 636.34 82.600129 
L 637.98 76.912862 
L 639.62 72.193851 
L 642.08 66.434344 
L 646.18 57.402007 
L 646.18 57.402007 
" style="fill:none;stroke:#008000;stroke-linecap:square;stroke-width:1.5;"/>
   </g>
   <g id="line2d_30">
    <path clip-path="url(#p67abb271e9)" d="M 650.28 172.8 
L 650.28 25.92 
" style="fill:none;stroke:#ff0000;stroke-linecap:square;stroke-width:0.5;"/>
   </g>
   <g id="patch_3">
    <path d="M 64.8 172.8 
L 64.8 25.92 
" style="fill:none;stroke:#000000;stroke-linecap:square;stroke-linejoin:miter;stroke-width:0.8;"/>
   </g>
   <g id="patch_4">
    <path d="M 655.2 172.8 
L 655.2 25.92 
" style="fill:none;stroke:#000000;stroke-linecap:square;stroke-linejoin:miter;stroke-width:0.8;"/>
   </g>
   <g id="patch_5">
    <path d="M 64.8 172.8 
L 655.2 172.8 
" style="fill:none;stroke:#000000;stroke-linecap:square;stroke-linejoin:miter;stroke-width:0.8;"/>
   </g>
   <g id="patch_6">
    <path d="M 64.8 25.92 
L 655.2 25.92 
" style="fill:none;stroke:#000000;stroke-linecap:square;stroke-linejoin:miter;stroke-width:0.8;"/>
   </g>
   <g id="text_17">
    <!-- Concentratie SARS-CoV-2 RNA in rioolwater per 100.000 inwoners -->
    <g transform="translate(161.8425 19.92)scale(0.12 -0.12)">
     <defs>
      <path d="M 64.40625 67.28125 
L 64.40625 56.890625 
Q 59.421875 61.53125 53.78125 63.8125 
Q 48.140625 66.109375 41.796875 66.109375 
Q 29.296875 66.109375 22.65625 58.46875 
Q 16.015625 50.828125 16.015625 36.375 
Q 16.015625 21.96875 22.65625 14.328125 
Q 29.296875 6.6875 41.796875 6.6875 
Q 48.140625 6.6875 53.78125 8.984375 
Q 59.421875 11.28125 64.40625 15.921875 
L 64.40625 5.609375 
Q 59.234375 2.09375 53.4375 0.328125 
Q 47.65625 -1.421875 41.21875 -1.421875 
Q 24.65625 -1.421875 15.125 8.703125 
Q 5.609375 18.84375 5.609375 36.375 
Q 5.609375 53.953125 15.125 64.078125 
Q 24.65625 74.21875 41.21875 74.21875 
Q 47.75 74.21875 53.53125 72.484375 
Q 59.328125 70.75 64.40625 67.28125 
z
" id="DejaVuSans-67"/>
      <path d="M 48.78125 52.59375 
L 48.78125 44.1875 
Q 44.96875 46.296875 41.140625 47.34375 
Q 37.3125 48.390625 33.40625 48.390625 
Q 24.65625 48.390625 19.8125 42.84375 
Q 14.984375 37.3125 14.984375 27.296875 
Q 14.984375 17.28125 19.8125 11.734375 
Q 24.65625 6.203125 33.40625 6.203125 
Q 37.3125 6.203125 41.140625 7.25 
Q 44.96875 8.296875 48.78125 10.40625 
L 48.78125 2.09375 
Q 45.015625 0.34375 40.984375 -0.53125 
Q 36.96875 -1.421875 32.421875 -1.421875 
Q 20.0625 -1.421875 12.78125 6.34375 
Q 5.515625 14.109375 5.515625 27.296875 
Q 5.515625 40.671875 12.859375 48.328125 
Q 20.21875 56 33.015625 56 
Q 37.15625 56 41.109375 55.140625 
Q 45.0625 54.296875 48.78125 52.59375 
z
" id="DejaVuSans-99"/>
      <path d="M 53.515625 70.515625 
L 53.515625 60.890625 
Q 47.90625 63.578125 42.921875 64.890625 
Q 37.9375 66.21875 33.296875 66.21875 
Q 25.25 66.21875 20.875 63.09375 
Q 16.5 59.96875 16.5 54.203125 
Q 16.5 49.359375 19.40625 46.890625 
Q 22.3125 44.4375 30.421875 42.921875 
L 36.375 41.703125 
Q 47.40625 39.59375 52.65625 34.296875 
Q 57.90625 29 57.90625 20.125 
Q 57.90625 9.515625 50.796875 4.046875 
Q 43.703125 -1.421875 29.984375 -1.421875 
Q 24.8125 -1.421875 18.96875 -0.25 
Q 13.140625 0.921875 6.890625 3.21875 
L 6.890625 13.375 
Q 12.890625 10.015625 18.65625 8.296875 
Q 24.421875 6.59375 29.984375 6.59375 
Q 38.421875 6.59375 43.015625 9.90625 
Q 47.609375 13.234375 47.609375 19.390625 
Q 47.609375 24.75 44.3125 27.78125 
Q 41.015625 30.8125 33.5 32.328125 
L 27.484375 33.5 
Q 16.453125 35.6875 11.515625 40.375 
Q 6.59375 45.0625 6.59375 53.421875 
Q 6.59375 63.09375 13.40625 68.65625 
Q 20.21875 74.21875 32.171875 74.21875 
Q 37.3125 74.21875 42.625 73.28125 
Q 47.953125 72.359375 53.515625 70.515625 
z
" id="DejaVuSans-83"/>
      <path d="M 34.1875 63.1875 
L 20.796875 26.90625 
L 47.609375 26.90625 
z
M 28.609375 72.90625 
L 39.796875 72.90625 
L 67.578125 0 
L 57.328125 0 
L 50.6875 18.703125 
L 17.828125 18.703125 
L 11.1875 0 
L 0.78125 0 
z
" id="DejaVuSans-65"/>
      <path d="M 44.390625 34.1875 
Q 47.5625 33.109375 50.5625 29.59375 
Q 53.5625 26.078125 56.59375 19.921875 
L 66.609375 0 
L 56 0 
L 46.6875 18.703125 
Q 43.0625 26.03125 39.671875 28.421875 
Q 36.28125 30.8125 30.421875 30.8125 
L 19.671875 30.8125 
L 19.671875 0 
L 9.8125 0 
L 9.8125 72.90625 
L 32.078125 72.90625 
Q 44.578125 72.90625 50.734375 67.671875 
Q 56.890625 62.453125 56.890625 51.90625 
Q 56.890625 45.015625 53.6875 40.46875 
Q 50.484375 35.9375 44.390625 34.1875 
z
M 19.671875 64.796875 
L 19.671875 38.921875 
L 32.078125 38.921875 
Q 39.203125 38.921875 42.84375 42.21875 
Q 46.484375 45.515625 46.484375 51.90625 
Q 46.484375 58.296875 42.84375 61.546875 
Q 39.203125 64.796875 32.078125 64.796875 
z
" id="DejaVuSans-82"/>
      <path d="M 28.609375 0 
L 0.78125 72.90625 
L 11.078125 72.90625 
L 34.1875 11.53125 
L 57.328125 72.90625 
L 67.578125 72.90625 
L 39.796875 0 
z
" id="DejaVuSans-86"/>
      <path d="M 9.8125 72.90625 
L 23.09375 72.90625 
L 55.421875 11.921875 
L 55.421875 72.90625 
L 64.984375 72.90625 
L 64.984375 0 
L 51.703125 0 
L 19.390625 60.984375 
L 19.390625 0 
L 9.8125 0 
z
" id="DejaVuSans-78"/>
      <path d="M 10.6875 12.40625 
L 21 12.40625 
L 21 0 
L 10.6875 0 
z
" id="DejaVuSans-46"/>
     </defs>
     <use xlink:href="#DejaVuSans-67"/>
     <use x="69.824219" xlink:href="#DejaVuSans-111"/>
     <use x="131.005859" xlink:href="#DejaVuSans-110"/>
     <use x="194.384766" xlink:href="#DejaVuSans-99"/>
     <use x="249.365234" xlink:href="#DejaVuSans-101"/>
     <use x="310.888672" xlink:href="#DejaVuSans-110"/>
     <use x="374.267578" xlink:href="#DejaVuSans-116"/>
     <use x="413.476562" xlink:href="#DejaVuSans-114"/>
     <use x="454.589844" xlink:href="#DejaVuSans-97"/>
     <use x="515.869141" xlink:href="#DejaVuSans-116"/>
     <use x="555.078125" xlink:href="#DejaVuSans-105"/>
     <use x="582.861328" xlink:href="#DejaVuSans-101"/>
     <use x="644.384766" xlink:href="#DejaVuSans-32"/>
     <use x="676.171875" xlink:href="#DejaVuSans-83"/>
     <use x="741.523438" xlink:href="#DejaVuSans-65"/>
     <use x="809.931641" xlink:href="#DejaVuSans-82"/>
     <use x="879.414062" xlink:href="#DejaVuSans-83"/>
     <use x="942.890625" xlink:href="#DejaVuSans-45"/>
     <use x="978.974609" xlink:href="#DejaVuSans-67"/>
     <use x="1048.798828" xlink:href="#DejaVuSans-111"/>
     <use x="1109.980469" xlink:href="#DejaVuSans-86"/>
     <use x="1172.513672" xlink:href="#DejaVuSans-45"/>
     <use x="1208.597656" xlink:href="#DejaVuSans-50"/>
     <use x="1272.220703" xlink:href="#DejaVuSans-32"/>
     <use x="1304.007812" xlink:href="#DejaVuSans-82"/>
     <use x="1373.490234" xlink:href="#DejaVuSans-78"/>
     <use x="1448.294922" xlink:href="#DejaVuSans-65"/>
     <use x="1516.703125" xlink:href="#DejaVuSans-32"/>
     <use x="1548.490234" xlink:href="#DejaVuSans-105"/>
     <use x="1576.273438" xlink:href="#DejaVuSans-110"/>
     <use x="1639.652344" xlink:href="#DejaVuSans-32"/>
     <use x="1671.439453" xlink:href="#DejaVuSans-114"/>
     <use x="1712.552734" xlink:href="#DejaVuSans-105"/>
     <use x="1740.335938" xlink:href="#DejaVuSans-111"/>
     <use x="1801.517578" xlink:href="#DejaVuSans-111"/>
     <use x="1862.699219" xlink:href="#DejaVuSans-108"/>
     <use x="1890.482422" xlink:href="#DejaVuSans-119"/>
     <use x="1972.269531" xlink:href="#DejaVuSans-97"/>
     <use x="2033.548828" xlink:href="#DejaVuSans-116"/>
     <use x="2072.757812" xlink:href="#DejaVuSans-101"/>
     <use x="2134.28125" xlink:href="#DejaVuSans-114"/>
     <use x="2175.394531" xlink:href="#DejaVuSans-32"/>
     <use x="2207.181641" xlink:href="#DejaVuSans-112"/>
     <use x="2270.658203" xlink:href="#DejaVuSans-101"/>
     <use x="2332.181641" xlink:href="#DejaVuSans-114"/>
     <use x="2373.294922" xlink:href="#DejaVuSans-32"/>
     <use x="2405.082031" xlink:href="#DejaVuSans-49"/>
     <use x="2468.705078" xlink:href="#DejaVuSans-48"/>
     <use x="2532.328125" xlink:href="#DejaVuSans-48"/>
     <use x="2595.951172" xlink:href="#DejaVuSans-46"/>
     <use x="2627.738281" xlink:href="#DejaVuSans-48"/>
     <use x="2691.361328" xlink:href="#DejaVuSans-48"/>
     <use x="2754.984375" xlink:href="#DejaVuSans-48"/>
     <use x="2818.607422" xlink:href="#DejaVuSans-32"/>
     <use x="2850.394531" xlink:href="#DejaVuSans-105"/>
     <use x="2878.177734" xlink:href="#DejaVuSans-110"/>
     <use x="2941.556641" xlink:href="#DejaVuSans-119"/>
     <use x="3023.34375" xlink:href="#DejaVuSans-111"/>
     <use x="3084.525391" xlink:href="#DejaVuSans-110"/>
     <use x="3147.904297" xlink:href="#DejaVuSans-101"/>
     <use x="3209.427734" xlink:href="#DejaVuSans-114"/>
     <use x="3250.541016" xlink:href="#DejaVuSans-115"/>
    </g>
   </g>
   <g id="legend_1">
    <g id="patch_7">
     <path d="M 71.8 48.598125 
L 344.44375 48.598125 
Q 346.44375 48.598125 346.44375 46.598125 
L 346.44375 32.92 
Q 346.44375 30.92 344.44375 30.92 
L 71.8 30.92 
Q 69.8 30.92 69.8 32.92 
L 69.8 46.598125 
Q 69.8 48.598125 71.8 48.598125 
z
" style="fill:#ffffff;opacity:0.8;stroke:#cccccc;stroke-linejoin:miter;"/>
    </g>
    <g id="line2d_31">
     <path d="M 73.8 39.018437 
L 93.8 39.018437 
" style="fill:none;stroke:#008000;stroke-linecap:square;stroke-width:1.5;"/>
    </g>
    <g id="line2d_32"/>
    <g id="text_18">
     <!-- RNA deeltjes per 100.000 inwoners (gemiddeld) -->
     <g transform="translate(101.8 42.518437)scale(0.1 -0.1)">
      <defs>
       <path d="M 45.40625 46.390625 
L 45.40625 75.984375 
L 54.390625 75.984375 
L 54.390625 0 
L 45.40625 0 
L 45.40625 8.203125 
Q 42.578125 3.328125 38.25 0.953125 
Q 33.9375 -1.421875 27.875 -1.421875 
Q 17.96875 -1.421875 11.734375 6.484375 
Q 5.515625 14.40625 5.515625 27.296875 
Q 5.515625 40.1875 11.734375 48.09375 
Q 17.96875 56 27.875 56 
Q 33.9375 56 38.25 53.625 
Q 42.578125 51.265625 45.40625 46.390625 
z
M 14.796875 27.296875 
Q 14.796875 17.390625 18.875 11.75 
Q 22.953125 6.109375 30.078125 6.109375 
Q 37.203125 6.109375 41.296875 11.75 
Q 45.40625 17.390625 45.40625 27.296875 
Q 45.40625 37.203125 41.296875 42.84375 
Q 37.203125 48.484375 30.078125 48.484375 
Q 22.953125 48.484375 18.875 42.84375 
Q 14.796875 37.203125 14.796875 27.296875 
z
" id="DejaVuSans-100"/>
       <path d="M 31 75.875 
Q 24.46875 64.65625 21.28125 53.65625 
Q 18.109375 42.671875 18.109375 31.390625 
Q 18.109375 20.125 21.3125 9.0625 
Q 24.515625 -2 31 -13.1875 
L 23.1875 -13.1875 
Q 15.875 -1.703125 12.234375 9.375 
Q 8.59375 20.453125 8.59375 31.390625 
Q 8.59375 42.28125 12.203125 53.3125 
Q 15.828125 64.359375 23.1875 75.875 
z
" id="DejaVuSans-40"/>
       <path d="M 45.40625 27.984375 
Q 45.40625 37.75 41.375 43.109375 
Q 37.359375 48.484375 30.078125 48.484375 
Q 22.859375 48.484375 18.828125 43.109375 
Q 14.796875 37.75 14.796875 27.984375 
Q 14.796875 18.265625 18.828125 12.890625 
Q 22.859375 7.515625 30.078125 7.515625 
Q 37.359375 7.515625 41.375 12.890625 
Q 45.40625 18.265625 45.40625 27.984375 
z
M 54.390625 6.78125 
Q 54.390625 -7.171875 48.1875 -13.984375 
Q 42 -20.796875 29.203125 -20.796875 
Q 24.46875 -20.796875 20.265625 -20.09375 
Q 16.0625 -19.390625 12.109375 -17.921875 
L 12.109375 -9.1875 
Q 16.0625 -11.328125 19.921875 -12.34375 
Q 23.78125 -13.375 27.78125 -13.375 
Q 36.625 -13.375 41.015625 -8.765625 
Q 45.40625 -4.15625 45.40625 5.171875 
L 45.40625 9.625 
Q 42.625 4.78125 38.28125 2.390625 
Q 33.9375 0 27.875 0 
Q 17.828125 0 11.671875 7.65625 
Q 5.515625 15.328125 5.515625 27.984375 
Q 5.515625 40.671875 11.671875 48.328125 
Q 17.828125 56 27.875 56 
Q 33.9375 56 38.28125 53.609375 
Q 42.625 51.21875 45.40625 46.390625 
L 45.40625 54.6875 
L 54.390625 54.6875 
z
" id="DejaVuSans-103"/>
       <path d="M 8.015625 75.875 
L 15.828125 75.875 
Q 23.140625 64.359375 26.78125 53.3125 
Q 30.421875 42.28125 30.421875 31.390625 
Q 30.421875 20.453125 26.78125 9.375 
Q 23.140625 -1.703125 15.828125 -13.1875 
L 8.015625 -13.1875 
Q 14.5 -2 17.703125 9.0625 
Q 20.90625 20.125 20.90625 31.390625 
Q 20.90625 42.671875 17.703125 53.65625 
Q 14.5 64.65625 8.015625 75.875 
z
" id="DejaVuSans-41"/>
      </defs>
      <use xlink:href="#DejaVuSans-82"/>
      <use x="69.482422" xlink:href="#DejaVuSans-78"/>
      <use x="144.287109" xlink:href="#DejaVuSans-65"/>
      <use x="212.695312" xlink:href="#DejaVuSans-32"/>
      <use x="244.482422" xlink:href="#DejaVuSans-100"/>
      <use x="307.958984" xlink:href="#DejaVuSans-101"/>
      <use x="369.482422" xlink:href="#DejaVuSans-101"/>
      <use x="431.005859" xlink:href="#DejaVuSans-108"/>
      <use x="458.789062" xlink:href="#DejaVuSans-116"/>
      <use x="497.998047" xlink:href="#DejaVuSans-106"/>
      <use x="525.78125" xlink:href="#DejaVuSans-101"/>
      <use x="587.304688" xlink:href="#DejaVuSans-115"/>
      <use x="639.404297" xlink:href="#DejaVuSans-32"/>
      <use x="671.191406" xlink:href="#DejaVuSans-112"/>
      <use x="734.667969" xlink:href="#DejaVuSans-101"/>
      <use x="796.191406" xlink:href="#DejaVuSans-114"/>
      <use x="837.304688" xlink:href="#DejaVuSans-32"/>
      <use x="869.091797" xlink:href="#DejaVuSans-49"/>
      <use x="932.714844" xlink:href="#DejaVuSans-48"/>
      <use x="996.337891" xlink:href="#DejaVuSans-48"/>
      <use x="1059.960938" xlink:href="#DejaVuSans-46"/>
      <use x="1091.748047" xlink:href="#DejaVuSans-48"/>
      <use x="1155.371094" xlink:href="#DejaVuSans-48"/>
      <use x="1218.994141" xlink:href="#DejaVuSans-48"/>
      <use x="1282.617188" xlink:href="#DejaVuSans-32"/>
      <use x="1314.404297" xlink:href="#DejaVuSans-105"/>
      <use x="1342.1875" xlink:href="#DejaVuSans-110"/>
      <use x="1405.566406" xlink:href="#DejaVuSans-119"/>
      <use x="1487.353516" xlink:href="#DejaVuSans-111"/>
      <use x="1548.535156" xlink:href="#DejaVuSans-110"/>
      <use x="1611.914062" xlink:href="#DejaVuSans-101"/>
      <use x="1673.4375" xlink:href="#DejaVuSans-114"/>
      <use x="1714.550781" xlink:href="#DejaVuSans-115"/>
      <use x="1766.650391" xlink:href="#DejaVuSans-32"/>
      <use x="1798.4375" xlink:href="#DejaVuSans-40"/>
      <use x="1837.451172" xlink:href="#DejaVuSans-103"/>
      <use x="1900.927734" xlink:href="#DejaVuSans-101"/>
      <use x="1962.451172" xlink:href="#DejaVuSans-109"/>
      <use x="2059.863281" xlink:href="#DejaVuSans-105"/>
      <use x="2087.646484" xlink:href="#DejaVuSans-100"/>
      <use x="2151.123047" xlink:href="#DejaVuSans-100"/>
      <use x="2214.599609" xlink:href="#DejaVuSans-101"/>
      <use x="2276.123047" xlink:href="#DejaVuSans-108"/>
      <use x="2303.90625" xlink:href="#DejaVuSans-100"/>
      <use x="2367.382812" xlink:href="#DejaVuSans-41"/>
     </g>
    </g>
   </g>
   <g id="text_19">
    <g id="patch_8">
     <path d="M 645.19 177.47125 
L 655.37 177.47125 
Q 656.17 177.47125 656.17 176.67125 
L 656.17 168.92875 
Q 656.17 168.12875 655.37 168.12875 
L 645.19 168.12875 
Q 644.39 168.12875 644.39 168.92875 
L 644.39 176.67125 
Q 644.39 177.47125 645.19 177.47125 
z
" style="fill:#ff0000;stroke:#ff0000;stroke-linejoin:miter;"/>
    </g>
    <!-- 13 -->
    <g style="fill:#ffffff;" transform="translate(645.19 175.0075)scale(0.08 -0.08)">
     <defs>
      <path d="M 40.578125 39.3125 
Q 47.65625 37.796875 51.625 33 
Q 55.609375 28.21875 55.609375 21.1875 
Q 55.609375 10.40625 48.1875 4.484375 
Q 40.765625 -1.421875 27.09375 -1.421875 
Q 22.515625 -1.421875 17.65625 -0.515625 
Q 12.796875 0.390625 7.625 2.203125 
L 7.625 11.71875 
Q 11.71875 9.328125 16.59375 8.109375 
Q 21.484375 6.890625 26.8125 6.890625 
Q 36.078125 6.890625 40.9375 10.546875 
Q 45.796875 14.203125 45.796875 21.1875 
Q 45.796875 27.640625 41.28125 31.265625 
Q 36.765625 34.90625 28.71875 34.90625 
L 20.21875 34.90625 
L 20.21875 43.015625 
L 29.109375 43.015625 
Q 36.375 43.015625 40.234375 45.921875 
Q 44.09375 48.828125 44.09375 54.296875 
Q 44.09375 59.90625 40.109375 62.90625 
Q 36.140625 65.921875 28.71875 65.921875 
Q 24.65625 65.921875 20.015625 65.03125 
Q 15.375 64.15625 9.8125 62.3125 
L 9.8125 71.09375 
Q 15.4375 72.65625 20.34375 73.4375 
Q 25.25 74.21875 29.59375 74.21875 
Q 40.828125 74.21875 47.359375 69.109375 
Q 53.90625 64.015625 53.90625 55.328125 
Q 53.90625 49.265625 50.4375 45.09375 
Q 46.96875 40.921875 40.578125 39.3125 
z
" id="DejaVuSans-51"/>
     </defs>
     <use xlink:href="#DejaVuSans-49"/>
     <use x="63.623047" xlink:href="#DejaVuSans-51"/>
    </g>
   </g>
  </g>
  <g id="text_20">
   <!-- Gegenereerd op 2022-02-13 17:39 o.b.v. data tot 2022-02-08. -->
   <g style="fill:#808080;" transform="translate(7.2 204.88175)scale(0.08 -0.08)">
    <defs>
     <path d="M 59.515625 10.40625 
L 59.515625 29.984375 
L 43.40625 29.984375 
L 43.40625 38.09375 
L 69.28125 38.09375 
L 69.28125 6.78125 
Q 63.578125 2.734375 56.6875 0.65625 
Q 49.8125 -1.421875 42 -1.421875 
Q 24.90625 -1.421875 15.25 8.5625 
Q 5.609375 18.5625 5.609375 36.375 
Q 5.609375 54.25 15.25 64.234375 
Q 24.90625 74.21875 42 74.21875 
Q 49.125 74.21875 55.546875 72.453125 
Q 61.96875 70.703125 67.390625 67.28125 
L 67.390625 56.78125 
Q 61.921875 61.421875 55.765625 63.765625 
Q 49.609375 66.109375 42.828125 66.109375 
Q 29.4375 66.109375 22.71875 58.640625 
Q 16.015625 51.171875 16.015625 36.375 
Q 16.015625 21.625 22.71875 14.15625 
Q 29.4375 6.6875 42.828125 6.6875 
Q 48.046875 6.6875 52.140625 7.59375 
Q 56.25 8.5 59.515625 10.40625 
z
" id="DejaVuSans-71"/>
     <path d="M 11.71875 12.40625 
L 22.015625 12.40625 
L 22.015625 0 
L 11.71875 0 
z
M 11.71875 51.703125 
L 22.015625 51.703125 
L 22.015625 39.3125 
L 11.71875 39.3125 
z
" id="DejaVuSans-58"/>
     <path d="M 10.984375 1.515625 
L 10.984375 10.5 
Q 14.703125 8.734375 18.5 7.8125 
Q 22.3125 6.890625 25.984375 6.890625 
Q 35.75 6.890625 40.890625 13.453125 
Q 46.046875 20.015625 46.78125 33.40625 
Q 43.953125 29.203125 39.59375 26.953125 
Q 35.25 24.703125 29.984375 24.703125 
Q 19.046875 24.703125 12.671875 31.3125 
Q 6.296875 37.9375 6.296875 49.421875 
Q 6.296875 60.640625 12.9375 67.421875 
Q 19.578125 74.21875 30.609375 74.21875 
Q 43.265625 74.21875 49.921875 64.515625 
Q 56.59375 54.828125 56.59375 36.375 
Q 56.59375 19.140625 48.40625 8.859375 
Q 40.234375 -1.421875 26.421875 -1.421875 
Q 22.703125 -1.421875 18.890625 -0.6875 
Q 15.09375 0.046875 10.984375 1.515625 
z
M 30.609375 32.421875 
Q 37.25 32.421875 41.125 36.953125 
Q 45.015625 41.5 45.015625 49.421875 
Q 45.015625 57.28125 41.125 61.84375 
Q 37.25 66.40625 30.609375 66.40625 
Q 23.96875 66.40625 20.09375 61.84375 
Q 16.21875 57.28125 16.21875 49.421875 
Q 16.21875 41.5 20.09375 36.953125 
Q 23.96875 32.421875 30.609375 32.421875 
z
" id="DejaVuSans-57"/>
     <path d="M 48.6875 27.296875 
Q 48.6875 37.203125 44.609375 42.84375 
Q 40.53125 48.484375 33.40625 48.484375 
Q 26.265625 48.484375 22.1875 42.84375 
Q 18.109375 37.203125 18.109375 27.296875 
Q 18.109375 17.390625 22.1875 11.75 
Q 26.265625 6.109375 33.40625 6.109375 
Q 40.53125 6.109375 44.609375 11.75 
Q 48.6875 17.390625 48.6875 27.296875 
z
M 18.109375 46.390625 
Q 20.953125 51.265625 25.265625 53.625 
Q 29.59375 56 35.59375 56 
Q 45.5625 56 51.78125 48.09375 
Q 58.015625 40.1875 58.015625 27.296875 
Q 58.015625 14.40625 51.78125 6.484375 
Q 45.5625 -1.421875 35.59375 -1.421875 
Q 29.59375 -1.421875 25.265625 0.953125 
Q 20.953125 3.328125 18.109375 8.203125 
L 18.109375 0 
L 9.078125 0 
L 9.078125 75.984375 
L 18.109375 75.984375 
z
" id="DejaVuSans-98"/>
     <path d="M 2.984375 54.6875 
L 12.5 54.6875 
L 29.59375 8.796875 
L 46.6875 54.6875 
L 56.203125 54.6875 
L 35.6875 0 
L 23.484375 0 
z
" id="DejaVuSans-118"/>
     <path d="M 31.78125 34.625 
Q 24.75 34.625 20.71875 30.859375 
Q 16.703125 27.09375 16.703125 20.515625 
Q 16.703125 13.921875 20.71875 10.15625 
Q 24.75 6.390625 31.78125 6.390625 
Q 38.8125 6.390625 42.859375 10.171875 
Q 46.921875 13.96875 46.921875 20.515625 
Q 46.921875 27.09375 42.890625 30.859375 
Q 38.875 34.625 31.78125 34.625 
z
M 21.921875 38.8125 
Q 15.578125 40.375 12.03125 44.71875 
Q 8.5 49.078125 8.5 55.328125 
Q 8.5 64.0625 14.71875 69.140625 
Q 20.953125 74.21875 31.78125 74.21875 
Q 42.671875 74.21875 48.875 69.140625 
Q 55.078125 64.0625 55.078125 55.328125 
Q 55.078125 49.078125 51.53125 44.71875 
Q 48 40.375 41.703125 38.8125 
Q 48.828125 37.15625 52.796875 32.3125 
Q 56.78125 27.484375 56.78125 20.515625 
Q 56.78125 9.90625 50.3125 4.234375 
Q 43.84375 -1.421875 31.78125 -1.421875 
Q 19.734375 -1.421875 13.25 4.234375 
Q 6.78125 9.90625 6.78125 20.515625 
Q 6.78125 27.484375 10.78125 32.3125 
Q 14.796875 37.15625 21.921875 38.8125 
z
M 18.3125 54.390625 
Q 18.3125 48.734375 21.84375 45.5625 
Q 25.390625 42.390625 31.78125 42.390625 
Q 38.140625 42.390625 41.71875 45.5625 
Q 45.3125 48.734375 45.3125 54.390625 
Q 45.3125 60.0625 41.71875 63.234375 
Q 38.140625 66.40625 31.78125 66.40625 
Q 25.390625 66.40625 21.84375 63.234375 
Q 18.3125 60.0625 18.3125 54.390625 
z
" id="DejaVuSans-56"/>
    </defs>
    <use xlink:href="#DejaVuSans-71"/>
    <use x="77.490234" xlink:href="#DejaVuSans-101"/>
    <use x="139.013672" xlink:href="#DejaVuSans-103"/>
    <use x="202.490234" xlink:href="#DejaVuSans-101"/>
    <use x="264.013672" xlink:href="#DejaVuSans-110"/>
    <use x="327.392578" xlink:href="#DejaVuSans-101"/>
    <use x="388.916016" xlink:href="#DejaVuSans-114"/>
    <use x="427.779297" xlink:href="#DejaVuSans-101"/>
    <use x="489.302734" xlink:href="#DejaVuSans-101"/>
    <use x="550.826172" xlink:href="#DejaVuSans-114"/>
    <use x="590.189453" xlink:href="#DejaVuSans-100"/>
    <use x="653.666016" xlink:href="#DejaVuSans-32"/>
    <use x="685.453125" xlink:href="#DejaVuSans-111"/>
    <use x="746.634766" xlink:href="#DejaVuSans-112"/>
    <use x="810.111328" xlink:href="#DejaVuSans-32"/>
    <use x="841.898438" xlink:href="#DejaVuSans-50"/>
    <use x="905.521484" xlink:href="#DejaVuSans-48"/>
    <use x="969.144531" xlink:href="#DejaVuSans-50"/>
    <use x="1032.767578" xlink:href="#DejaVuSans-50"/>
    <use x="1096.390625" xlink:href="#DejaVuSans-45"/>
    <use x="1132.474609" xlink:href="#DejaVuSans-48"/>
    <use x="1196.097656" xlink:href="#DejaVuSans-50"/>
    <use x="1259.720703" xlink:href="#DejaVuSans-45"/>
    <use x="1295.804688" xlink:href="#DejaVuSans-49"/>
    <use x="1359.427734" xlink:href="#DejaVuSans-51"/>
    <use x="1423.050781" xlink:href="#DejaVuSans-32"/>
    <use x="1454.837891" xlink:href="#DejaVuSans-49"/>
    <use x="1518.460938" xlink:href="#DejaVuSans-55"/>
    <use x="1582.083984" xlink:href="#DejaVuSans-58"/>
    <use x="1615.775391" xlink:href="#DejaVuSans-51"/>
    <use x="1679.398438" xlink:href="#DejaVuSans-57"/>
    <use x="1743.021484" xlink:href="#DejaVuSans-32"/>
    <use x="1774.808594" xlink:href="#DejaVuSans-111"/>
    <use x="1834.240234" xlink:href="#DejaVuSans-46"/>
    <use x="1866.027344" xlink:href="#DejaVuSans-98"/>
    <use x="1929.503906" xlink:href="#DejaVuSans-46"/>
    <use x="1961.291016" xlink:href="#DejaVuSans-118"/>
    <use x="2012.720703" xlink:href="#DejaVuSans-46"/>
    <use x="2044.507812" xlink:href="#DejaVuSans-32"/>
    <use x="2076.294922" xlink:href="#DejaVuSans-100"/>
    <use x="2139.771484" xlink:href="#DejaVuSans-97"/>
    <use x="2201.050781" xlink:href="#DejaVuSans-116"/>
    <use x="2240.259766" xlink:href="#DejaVuSans-97"/>
    <use x="2301.539062" xlink:href="#DejaVuSans-32"/>
    <use x="2333.326172" xlink:href="#DejaVuSans-116"/>
    <use x="2372.535156" xlink:href="#DejaVuSans-111"/>
    <use x="2433.716797" xlink:href="#DejaVuSans-116"/>
    <use x="2472.925781" xlink:href="#DejaVuSans-32"/>
    <use x="2504.712891" xlink:href="#DejaVuSans-50"/>
    <use x="2568.335938" xlink:href="#DejaVuSans-48"/>
    <use x="2631.958984" xlink:href="#DejaVuSans-50"/>
    <use x="2695.582031" xlink:href="#DejaVuSans-50"/>
    <use x="2759.205078" xlink:href="#DejaVuSans-45"/>
    <use x="2795.289062" xlink:href="#DejaVuSans-48"/>
    <use x="2858.912109" xlink:href="#DejaVuSans-50"/>
    <use x="2922.535156" xlink:href="#DejaVuSans-45"/>
    <use x="2958.619141" xlink:href="#DejaVuSans-48"/>
    <use x="3022.242188" xlink:href="#DejaVuSans-56"/>
    <use x="3085.865234" xlink:href="#DejaVuSans-46"/>
   </g>
   <!-- Source code: http://github.com/realrolfje/coronadata -->
   <g style="fill:#808080;" transform="translate(7.2 213.84)scale(0.08 -0.08)">
    <defs>
     <path d="M 54.890625 33.015625 
L 54.890625 0 
L 45.90625 0 
L 45.90625 32.71875 
Q 45.90625 40.484375 42.875 44.328125 
Q 39.84375 48.1875 33.796875 48.1875 
Q 26.515625 48.1875 22.3125 43.546875 
Q 18.109375 38.921875 18.109375 30.90625 
L 18.109375 0 
L 9.078125 0 
L 9.078125 75.984375 
L 18.109375 75.984375 
L 18.109375 46.1875 
Q 21.34375 51.125 25.703125 53.5625 
Q 30.078125 56 35.796875 56 
Q 45.21875 56 50.046875 50.171875 
Q 54.890625 44.34375 54.890625 33.015625 
z
" id="DejaVuSans-104"/>
     <path d="M 25.390625 72.90625 
L 33.6875 72.90625 
L 8.296875 -9.28125 
L 0 -9.28125 
z
" id="DejaVuSans-47"/>
     <path d="M 37.109375 75.984375 
L 37.109375 68.5 
L 28.515625 68.5 
Q 23.6875 68.5 21.796875 66.546875 
Q 19.921875 64.59375 19.921875 59.515625 
L 19.921875 54.6875 
L 34.71875 54.6875 
L 34.71875 47.703125 
L 19.921875 47.703125 
L 19.921875 0 
L 10.890625 0 
L 10.890625 47.703125 
L 2.296875 47.703125 
L 2.296875 54.6875 
L 10.890625 54.6875 
L 10.890625 58.5 
Q 10.890625 67.625 15.140625 71.796875 
Q 19.390625 75.984375 28.609375 75.984375 
z
" id="DejaVuSans-102"/>
    </defs>
    <use xlink:href="#DejaVuSans-83"/>
    <use x="63.476562" xlink:href="#DejaVuSans-111"/>
    <use x="124.658203" xlink:href="#DejaVuSans-117"/>
    <use x="188.037109" xlink:href="#DejaVuSans-114"/>
    <use x="226.900391" xlink:href="#DejaVuSans-99"/>
    <use x="281.880859" xlink:href="#DejaVuSans-101"/>
    <use x="343.404297" xlink:href="#DejaVuSans-32"/>
    <use x="375.191406" xlink:href="#DejaVuSans-99"/>
    <use x="430.171875" xlink:href="#DejaVuSans-111"/>
    <use x="491.353516" xlink:href="#DejaVuSans-100"/>
    <use x="554.830078" xlink:href="#DejaVuSans-101"/>
    <use x="616.353516" xlink:href="#DejaVuSans-58"/>
    <use x="650.044922" xlink:href="#DejaVuSans-32"/>
    <use x="681.832031" xlink:href="#DejaVuSans-104"/>
    <use x="745.210938" xlink:href="#DejaVuSans-116"/>
    <use x="784.419922" xlink:href="#DejaVuSans-116"/>
    <use x="823.628906" xlink:href="#DejaVuSans-112"/>
    <use x="887.105469" xlink:href="#DejaVuSans-58"/>
    <use x="920.796875" xlink:href="#DejaVuSans-47"/>
    <use x="954.488281" xlink:href="#DejaVuSans-47"/>
    <use x="988.179688" xlink:href="#DejaVuSans-103"/>
    <use x="1051.65625" xlink:href="#DejaVuSans-105"/>
    <use x="1079.439453" xlink:href="#DejaVuSans-116"/>
    <use x="1118.648438" xlink:href="#DejaVuSans-104"/>
    <use x="1182.027344" xlink:href="#DejaVuSans-117"/>
    <use x="1245.40625" xlink:href="#DejaVuSans-98"/>
    <use x="1308.882812" xlink:href="#DejaVuSans-46"/>
    <use x="1340.669922" xlink:href="#DejaVuSans-99"/>
    <use x="1395.650391" xlink:href="#DejaVuSans-111"/>
    <use x="1456.832031" xlink:href="#DejaVuSans-109"/>
    <use x="1554.244141" xlink:href="#DejaVuSans-47"/>
    <use x="1587.935547" xlink:href="#DejaVuSans-114"/>
    <use x="1626.798828" xlink:href="#DejaVuSans-101"/>
    <use x="1688.322266" xlink:href="#DejaVuSans-97"/>
    <use x="1749.601562" xlink:href="#DejaVuSans-108"/>
    <use x="1777.384766" xlink:href="#DejaVuSans-114"/>
    <use x="1816.248047" xlink:href="#DejaVuSans-111"/>
    <use x="1877.429688" xlink:href="#DejaVuSans-108"/>
    <use x="1905.212891" xlink:href="#DejaVuSans-102"/>
    <use x="1940.417969" xlink:href="#DejaVuSans-106"/>
    <use x="1968.201172" xlink:href="#DejaVuSans-101"/>
    <use x="2029.724609" xlink:href="#DejaVuSans-47"/>
    <use x="2063.416016" xlink:href="#DejaVuSans-99"/>
    <use x="2118.396484" xlink:href="#DejaVuSans-111"/>
    <use x="2179.578125" xlink:href="#DejaVuSans-114"/>
    <use x="2218.441406" xlink:href="#DejaVuSans-111"/>
    <use x="2279.623047" xlink:href="#DejaVuSans-110"/>
    <use x="2343.001953" xlink:href="#DejaVuSans-97"/>
    <use x="2404.28125" xlink:href="#DejaVuSans-100"/>
    <use x="2467.757812" xlink:href="#DejaVuSans-97"/>
    <use x="2529.037109" xlink:href="#DejaVuSans-116"/>
    <use x="2568.246094" xlink:href="#DejaVuSans-97"/>
   </g>
  </g>
  <g id="text_21">
   <!-- Bron: https://data.rivm.nl/covid-19 -->
   <g style="fill:#808080;" transform="translate(574.79875 213.84)scale(0.08 -0.08)">
    <defs>
     <path d="M 19.671875 34.8125 
L 19.671875 8.109375 
L 35.5 8.109375 
Q 43.453125 8.109375 47.28125 11.40625 
Q 51.125 14.703125 51.125 21.484375 
Q 51.125 28.328125 47.28125 31.5625 
Q 43.453125 34.8125 35.5 34.8125 
z
M 19.671875 64.796875 
L 19.671875 42.828125 
L 34.28125 42.828125 
Q 41.5 42.828125 45.03125 45.53125 
Q 48.578125 48.25 48.578125 53.8125 
Q 48.578125 59.328125 45.03125 62.0625 
Q 41.5 64.796875 34.28125 64.796875 
z
M 9.8125 72.90625 
L 35.015625 72.90625 
Q 46.296875 72.90625 52.390625 68.21875 
Q 58.5 63.53125 58.5 54.890625 
Q 58.5 48.1875 55.375 44.234375 
Q 52.25 40.28125 46.1875 39.3125 
Q 53.46875 37.75 57.5 32.78125 
Q 61.53125 27.828125 61.53125 20.40625 
Q 61.53125 10.640625 54.890625 5.3125 
Q 48.25 0 35.984375 0 
L 9.8125 0 
z
" id="DejaVuSans-66"/>
    </defs>
    <use xlink:href="#DejaVuSans-66"/>
    <use x="68.603516" xlink:href="#DejaVuSans-114"/>
    <use x="107.466797" xlink:href="#DejaVuSans-111"/>
    <use x="168.648438" xlink:href="#DejaVuSans-110"/>
    <use x="232.027344" xlink:href="#DejaVuSans-58"/>
    <use x="265.71875" xlink:href="#DejaVuSans-32"/>
    <use x="297.505859" xlink:href="#DejaVuSans-104"/>
    <use x="360.884766" xlink:href="#DejaVuSans-116"/>
    <use x="400.09375" xlink:href="#DejaVuSans-116"/>
    <use x="439.302734" xlink:href="#DejaVuSans-112"/>
    <use x="502.779297" xlink:href="#DejaVuSans-115"/>
    <use x="554.878906" xlink:href="#DejaVuSans-58"/>
    <use x="588.570312" xlink:href="#DejaVuSans-47"/>
    <use x="622.261719" xlink:href="#DejaVuSans-47"/>
    <use x="655.953125" xlink:href="#DejaVuSans-100"/>
    <use x="719.429688" xlink:href="#DejaVuSans-97"/>
    <use x="780.708984" xlink:href="#DejaVuSans-116"/>
    <use x="819.917969" xlink:href="#DejaVuSans-97"/>
    <use x="881.197266" xlink:href="#DejaVuSans-46"/>
    <use x="912.984375" xlink:href="#DejaVuSans-114"/>
    <use x="954.097656" xlink:href="#DejaVuSans-105"/>
    <use x="981.880859" xlink:href="#DejaVuSans-118"/>
    <use x="1041.060547" xlink:href="#DejaVuSans-109"/>
    <use x="1138.472656" xlink:href="#DejaVuSans-46"/>
    <use x="1170.259766" xlink:href="#DejaVuSans-110"/>
    <use x="1233.638672" xlink:href="#DejaVuSans-108"/>
    <use x="1261.421875" xlink:href="#DejaVuSans-47"/>
    <use x="1295.113281" xlink:href="#DejaVuSans-99"/>
    <use x="1350.09375" xlink:href="#DejaVuSans-111"/>
    <use x="1411.275391" xlink:href="#DejaVuSans-118"/>
    <use x="1470.455078" xlink:href="#DejaVuSans-105"/>
    <use x="1498.238281" xlink:href="#DejaVuSans-100"/>
    <use x="1561.714844" xlink:href="#DejaVuSans-45"/>
    <use x="1597.798828" xlink:href="#DejaVuSans-49"/>
    <use x="1661.421875" xlink:href="#DejaVuSans-57"/>
   </g>
  </g>
  <g id="text_22">
   <g id="patch_9">
    <path d="M 68 66.14375 
L 206.835 66.14375 
L 206.835 50.40125 
L 68 50.40125 
z
" style="fill:#ffffff;stroke:#ffffff;stroke-linejoin:miter;"/>
   </g>
   <!-- (T = Terra = 1.000.000.000.000) -->
   <g style="fill:#808080;" transform="translate(72 60.48)scale(0.08 -0.08)">
    <defs>
     <path d="M 10.59375 45.40625 
L 73.1875 45.40625 
L 73.1875 37.203125 
L 10.59375 37.203125 
z
M 10.59375 25.484375 
L 73.1875 25.484375 
L 73.1875 17.1875 
L 10.59375 17.1875 
z
" id="DejaVuSans-61"/>
    </defs>
    <use xlink:href="#DejaVuSans-40"/>
    <use x="39.013672" xlink:href="#DejaVuSans-84"/>
    <use x="100.097656" xlink:href="#DejaVuSans-32"/>
    <use x="131.884766" xlink:href="#DejaVuSans-61"/>
    <use x="215.673828" xlink:href="#DejaVuSans-32"/>
    <use x="247.460938" xlink:href="#DejaVuSans-84"/>
    <use x="291.544922" xlink:href="#DejaVuSans-101"/>
    <use x="353.068359" xlink:href="#DejaVuSans-114"/>
    <use x="392.431641" xlink:href="#DejaVuSans-114"/>
    <use x="433.544922" xlink:href="#DejaVuSans-97"/>
    <use x="494.824219" xlink:href="#DejaVuSans-32"/>
    <use x="526.611328" xlink:href="#DejaVuSans-61"/>
    <use x="610.400391" xlink:href="#DejaVuSans-32"/>
    <use x="642.1875" xlink:href="#DejaVuSans-49"/>
    <use x="705.810547" xlink:href="#DejaVuSans-46"/>
    <use x="737.597656" xlink:href="#DejaVuSans-48"/>
    <use x="801.220703" xlink:href="#DejaVuSans-48"/>
    <use x="864.84375" xlink:href="#DejaVuSans-48"/>
    <use x="928.466797" xlink:href="#DejaVuSans-46"/>
    <use x="960.253906" xlink:href="#DejaVuSans-48"/>
    <use x="1023.876953" xlink:href="#DejaVuSans-48"/>
    <use x="1087.5" xlink:href="#DejaVuSans-48"/>
    <use x="1151.123047" xlink:href="#DejaVuSans-46"/>
    <use x="1182.910156" xlink:href="#DejaVuSans-48"/>
    <use x="1246.533203" xlink:href="#DejaVuSans-48"/>
    <use x="1310.15625" xlink:href="#DejaVuSans-48"/>
    <use x="1373.779297" xlink:href="#DejaVuSans-46"/>
    <use x="1405.566406" xlink:href="#DejaVuSans-48"/>
    <use x="1469.189453" xlink:href="#DejaVuSans-48"/>
    <use x="1532.8125" xlink:href="#DejaVuSans-48"/>
    <use x="1596.435547" xlink:href="#DejaVuSans-41"/>
   </g>
  </g>
  <g id="text_23">
   <g id="patch_10">
    <path d="M 428 70.879688 
L 555.317188 70.879688 
L 555.317188 53.201563 
L 428 53.201563 
z
" style="fill:#ffffff;stroke:#ffffff;stroke-linejoin:miter;"/>
   </g>
   <!-- "Je plee liegt niet" - Rolf -->
   <g style="fill:#808080;" transform="translate(432 64.8)scale(0.1 -0.1)">
    <defs>
     <path d="M 17.921875 72.90625 
L 17.921875 45.796875 
L 9.625 45.796875 
L 9.625 72.90625 
z
M 36.375 72.90625 
L 36.375 45.796875 
L 28.078125 45.796875 
L 28.078125 72.90625 
z
" id="DejaVuSans-34"/>
     <path d="M 9.8125 72.90625 
L 19.671875 72.90625 
L 19.671875 5.078125 
Q 19.671875 -8.109375 14.671875 -14.0625 
Q 9.671875 -20.015625 -1.421875 -20.015625 
L -5.171875 -20.015625 
L -5.171875 -11.71875 
L -2.09375 -11.71875 
Q 4.4375 -11.71875 7.125 -8.046875 
Q 9.8125 -4.390625 9.8125 5.078125 
z
" id="DejaVuSans-74"/>
    </defs>
    <use xlink:href="#DejaVuSans-34"/>
    <use x="45.996094" xlink:href="#DejaVuSans-74"/>
    <use x="75.488281" xlink:href="#DejaVuSans-101"/>
    <use x="137.011719" xlink:href="#DejaVuSans-32"/>
    <use x="168.798828" xlink:href="#DejaVuSans-112"/>
    <use x="232.275391" xlink:href="#DejaVuSans-108"/>
    <use x="260.058594" xlink:href="#DejaVuSans-101"/>
    <use x="321.582031" xlink:href="#DejaVuSans-101"/>
    <use x="383.105469" xlink:href="#DejaVuSans-32"/>
    <use x="414.892578" xlink:href="#DejaVuSans-108"/>
    <use x="442.675781" xlink:href="#DejaVuSans-105"/>
    <use x="470.458984" xlink:href="#DejaVuSans-101"/>
    <use x="531.982422" xlink:href="#DejaVuSans-103"/>
    <use x="595.458984" xlink:href="#DejaVuSans-116"/>
    <use x="634.667969" xlink:href="#DejaVuSans-32"/>
    <use x="666.455078" xlink:href="#DejaVuSans-110"/>
    <use x="729.833984" xlink:href="#DejaVuSans-105"/>
    <use x="757.617188" xlink:href="#DejaVuSans-101"/>
    <use x="819.140625" xlink:href="#DejaVuSans-116"/>
    <use x="858.349609" xlink:href="#DejaVuSans-34"/>
    <use x="904.345703" xlink:href="#DejaVuSans-32"/>
    <use x="936.132812" xlink:href="#DejaVuSans-45"/>
    <use x="972.216797" xlink:href="#DejaVuSans-32"/>
    <use x="1004.003906" xlink:href="#DejaVuSans-82"/>
    <use x="1068.986328" xlink:href="#DejaVuSans-111"/>
    <use x="1130.167969" xlink:href="#DejaVuSans-108"/>
    <use x="1157.951172" xlink:href="#DejaVuSans-102"/>
   </g>
  </g>
 </g>
 <defs>
  <clipPath id="p67abb271e9">
   <rect height="146.88" width="590.4" x="64.8" y="25.92"/>
  </clipPath>
 </defs>
</svg>
