<?xml version="1.0" encoding="utf-8" standalone="no"?>
<!DOCTYPE svg PUBLIC "-//W3C//DTD SVG 1.1//EN"
  "http://www.w3.org/Graphics/SVG/1.1/DTD/svg11.dtd">
<!-- Created with matplotlib (https://matplotlib.org/) -->
<svg height="216pt" version="1.1" viewBox="0 0 720 216" width="720pt" xmlns="http://www.w3.org/2000/svg" xmlns:xlink="http://www.w3.org/1999/xlink">
 <metadata>
  <rdf:RDF xmlns:cc="http://creativecommons.org/ns#" xmlns:dc="http://purl.org/dc/elements/1.1/" xmlns:rdf="http://www.w3.org/1999/02/22-rdf-syntax-ns#">
   <cc:Work>
    <dc:type rdf:resource="http://purl.org/dc/dcmitype/StillImage"/>
    <dc:date>2022-02-06T15:46:30.409504</dc:date>
    <dc:format>image/svg+xml</dc:format>
    <dc:creator>
     <cc:Agent>
      <dc:title>Matplotlib v3.3.2, https://matplotlib.org/</dc:title>
     </cc:Agent>
    </dc:creator>
   </cc:Work>
  </rdf:RDF>
 </metadata>
 <defs>
  <style type="text/css">*{stroke-linecap:butt;stroke-linejoin:round;}</style>
 </defs>
 <g id="figure_1">
  <g id="patch_1">
   <path d="M 0 216 
L 720 216 
L 720 0 
L 0 0 
z
" style="fill:#ffffff;"/>
  </g>
  <g id="axes_1">
   <g id="patch_2">
    <path d="M 64.8 172.8 
L 655.2 172.8 
L 655.2 25.92 
L 64.8 25.92 
z
" style="fill:#ffffff;"/>
   </g>
   <g id="PolyCollection_1">
    <path clip-path="url(#p0c4bbb7a70)" d="M 88.813464 172.8 
L 88.813464 172.8 
L 89.641515 172.8 
L 90.469565 172.8 
L 91.297616 172.8 
L 93.781767 172.8 
L 94.609818 172.8 
L 95.437868 172.8 
L 96.265919 172.8 
L 97.093969 172.8 
L 97.92202 172.8 
L 100.406171 172.8 
L 101.234222 172.8 
L 102.062272 172.8 
L 102.890323 172.8 
L 103.718373 172.8 
L 105.374474 172.8 
L 106.202525 172.8 
L 107.030575 172.8 
L 107.858626 172.8 
L 108.686676 172.8 
L 111.170827 172.8 
L 111.998878 172.8 
L 112.826928 172.8 
L 113.654979 172.8 
L 114.483029 172.8 
L 115.31108 172.8 
L 116.967181 172.8 
L 118.623282 172.8 
L 119.451332 172.8 
L 120.279383 172.8 
L 121.935484 172.8 
L 122.763534 172.8 
L 123.591585 172.8 
L 124.419635 172.8 
L 125.247686 172.8 
L 126.903787 172.8 
L 127.731837 172.8 
L 128.559888 172.8 
L 129.387938 172.8 
L 130.215989 172.8 
L 131.044039 172.8 
L 131.87209 172.8 
L 132.70014 172.8 
L 133.528191 172.8 
L 134.356241 172.8 
L 135.184292 172.8 
L 136.012342 172.8 
L 136.840393 172.8 
L 137.668443 172.8 
L 138.496494 172.8 
L 140.980645 172.8 
L 141.808696 172.8 
L 142.636746 172.8 
L 143.464797 172.8 
L 144.292847 172.8 
L 145.120898 172.8 
L 145.948948 172.8 
L 146.776999 172.8 
L 147.605049 172.8 
L 148.4331 172.8 
L 149.26115 172.8 
L 151.745302 172.8 
L 152.573352 172.8 
L 153.401403 172.8 
L 154.229453 172.8 
L 157.541655 172.8 
L 158.369705 172.8 
L 159.197756 172.8 
L 162.509958 172.8 
L 163.338008 172.8 
L 164.166059 172.8 
L 164.994109 172.8 
L 166.65021 172.8 
L 169.962412 172.8 
L 170.790463 172.8 
L 171.618513 172.8 
L 175.758766 172.8 
L 176.586816 172.8 
L 178.242917 172.8 
L 179.899018 172.8 
L 180.727069 172.8 
L 181.555119 172.8 
L 182.38317 172.8 
L 183.21122 172.8 
L 184.039271 172.8 
L 184.867321 172.8 
L 185.695372 172.8 
L 186.523422 172.8 
L 187.351473 172.8 
L 188.179523 172.8 
L 189.007574 172.8 
L 189.835624 172.8 
L 190.663675 172.8 
L 191.491725 172.8 
L 192.319776 172.8 
L 193.147826 172.8 
L 193.975877 172.8 
L 194.803927 172.8 
L 195.631978 172.8 
L 196.460028 172.8 
L 198.116129 172.8 
L 198.94418 172.8 
L 199.77223 172.8 
L 200.600281 172.8 
L 201.428331 172.8 
L 202.256381 172.8 
L 203.084432 172.8 
L 203.912482 172.8 
L 204.740533 172.8 
L 205.568583 172.8 
L 206.396634 172.8 
L 207.224684 172.8 
L 208.052735 172.8 
L 208.880785 172.8 
L 209.708836 172.8 
L 210.536886 172.8 
L 211.364937 172.8 
L 212.192987 172.8 
L 213.021038 172.8 
L 213.849088 172.8 
L 214.677139 172.8 
L 215.505189 172.8 
L 216.33324 172.8 
L 217.16129 172.8 
L 217.989341 172.8 
L 218.817391 172.8 
L 219.645442 172.8 
L 220.473492 172.8 
L 221.301543 172.8 
L 222.129593 172.8 
L 222.957644 172.8 
L 223.785694 172.8 
L 224.613745 172.8 
L 225.441795 172.8 
L 226.269846 172.8 
L 227.097896 172.8 
L 227.925947 172.8 
L 228.753997 172.8 
L 229.582048 172.8 
L 230.410098 172.8 
L 231.238149 172.8 
L 232.066199 172.8 
L 232.89425 172.8 
L 233.7223 172.8 
L 234.550351 172.8 
L 235.378401 172.8 
L 236.206452 172.8 
L 237.034502 172.8 
L 237.862553 172.8 
L 238.690603 172.8 
L 239.518654 172.8 
L 240.346704 172.8 
L 241.174755 172.8 
L 242.002805 172.8 
L 242.830856 172.8 
L 243.658906 172.8 
L 244.486957 172.8 
L 245.315007 172.8 
L 246.143058 172.8 
L 246.971108 172.8 
L 247.799158 172.8 
L 248.627209 172.8 
L 249.455259 172.8 
L 250.28331 172.8 
L 251.11136 172.8 
L 251.939411 172.8 
L 252.767461 172.8 
L 253.595512 172.8 
L 254.423562 172.8 
L 255.251613 172.8 
L 256.079663 172.8 
L 256.907714 172.8 
L 257.735764 172.8 
L 258.563815 172.8 
L 259.391865 172.8 
L 260.219916 172.8 
L 261.047966 172.8 
L 261.876017 172.8 
L 262.704067 172.8 
L 263.532118 172.8 
L 264.360168 172.8 
L 265.188219 172.8 
L 266.016269 172.8 
L 266.84432 172.8 
L 267.67237 172.8 
L 268.500421 172.8 
L 269.328471 172.8 
L 270.156522 172.8 
L 270.984572 172.8 
L 271.812623 172.8 
L 272.640673 172.8 
L 273.468724 172.8 
L 274.296774 172.8 
L 275.124825 172.8 
L 275.952875 172.8 
L 276.780926 172.8 
L 277.608976 172.8 
L 278.437027 172.8 
L 279.265077 172.8 
L 280.093128 172.8 
L 280.921178 172.8 
L 281.749229 172.8 
L 282.577279 172.8 
L 283.40533 172.8 
L 284.23338 172.8 
L 285.061431 172.8 
L 285.889481 172.8 
L 286.717532 172.8 
L 287.545582 172.8 
L 288.373633 172.8 
L 289.201683 172.8 
L 290.029734 172.8 
L 290.857784 172.8 
L 291.685835 172.8 
L 292.513885 172.8 
L 293.341935 172.8 
L 294.169986 172.8 
L 294.998036 172.8 
L 295.826087 172.8 
L 296.654137 172.8 
L 297.482188 172.8 
L 298.310238 172.8 
L 299.138289 172.8 
L 299.966339 172.8 
L 300.79439 172.8 
L 301.62244 172.8 
L 302.450491 172.8 
L 303.278541 172.8 
L 304.106592 172.8 
L 304.934642 172.8 
L 305.762693 172.8 
L 306.590743 172.8 
L 307.418794 172.8 
L 308.246844 172.8 
L 309.074895 172.8 
L 309.902945 172.8 
L 310.730996 172.8 
L 311.559046 172.8 
L 312.387097 172.8 
L 313.215147 172.8 
L 314.043198 172.8 
L 314.871248 172.8 
L 315.699299 172.8 
L 316.527349 172.8 
L 318.18345 172.8 
L 319.011501 172.8 
L 319.839551 172.8 
L 320.667602 172.8 
L 321.495652 172.8 
L 322.323703 172.8 
L 323.151753 172.8 
L 323.979804 172.8 
L 324.807854 172.8 
L 325.635905 172.8 
L 326.463955 172.8 
L 327.292006 172.8 
L 328.120056 172.8 
L 328.948107 172.8 
L 329.776157 172.8 
L 330.604208 172.8 
L 331.432258 172.8 
L 332.260309 172.8 
L 333.088359 172.8 
L 333.91641 172.8 
L 334.74446 172.8 
L 335.572511 172.8 
L 336.400561 172.8 
L 337.228612 172.8 
L 338.056662 172.8 
L 338.884712 172.8 
L 339.712763 172.8 
L 340.540813 172.8 
L 341.368864 172.8 
L 342.196914 172.8 
L 343.024965 172.8 
L 343.853015 172.8 
L 344.681066 172.8 
L 345.509116 172.8 
L 346.337167 172.8 
L 347.165217 172.8 
L 347.993268 172.8 
L 348.821318 172.8 
L 349.649369 172.8 
L 350.477419 172.8 
L 351.30547 172.8 
L 352.13352 172.8 
L 352.961571 172.8 
L 353.789621 172.8 
L 354.617672 172.8 
L 355.445722 172.8 
L 356.273773 172.8 
L 357.101823 172.8 
L 357.929874 172.8 
L 358.757924 172.8 
L 359.585975 172.8 
L 360.414025 172.8 
L 361.242076 172.8 
L 362.070126 172.8 
L 362.898177 172.8 
L 363.726227 172.8 
L 364.554278 172.8 
L 365.382328 172.8 
L 366.210379 172.8 
L 367.038429 172.8 
L 367.86648 172.8 
L 368.69453 172.8 
L 369.522581 172.8 
L 370.350631 172.8 
L 371.178682 172.8 
L 372.006732 172.8 
L 372.834783 172.8 
L 373.662833 172.8 
L 374.490884 172.8 
L 375.318934 172.8 
L 376.146985 172.8 
L 376.975035 172.8 
L 377.803086 172.8 
L 378.631136 172.8 
L 379.459187 172.8 
L 380.287237 172.8 
L 381.115288 172.8 
L 381.943338 172.8 
L 382.771388 172.8 
L 383.599439 172.8 
L 384.427489 172.8 
L 385.25554 172.8 
L 386.08359 172.8 
L 386.911641 172.8 
L 387.739691 172.8 
L 388.567742 172.8 
L 389.395792 172.8 
L 390.223843 172.8 
L 391.051893 172.8 
L 391.879944 172.8 
L 392.707994 172.8 
L 393.536045 172.8 
L 394.364095 172.8 
L 395.192146 172.8 
L 396.020196 172.8 
L 396.848247 172.8 
L 397.676297 172.8 
L 398.504348 172.8 
L 399.332398 172.8 
L 400.160449 172.8 
L 400.988499 172.8 
L 401.81655 172.8 
L 402.6446 172.8 
L 403.472651 172.8 
L 404.300701 172.8 
L 405.128752 172.8 
L 405.956802 172.8 
L 406.784853 172.8 
L 407.612903 172.8 
L 408.440954 172.8 
L 409.269004 172.8 
L 410.097055 172.8 
L 410.925105 172.8 
L 411.753156 172.8 
L 412.581206 172.8 
L 413.409257 172.8 
L 414.237307 172.8 
L 415.065358 172.8 
L 415.893408 172.8 
L 416.721459 172.8 
L 417.549509 172.8 
L 418.37756 172.8 
L 419.20561 172.8 
L 420.033661 172.8 
L 420.861711 172.8 
L 421.689762 172.8 
L 422.517812 172.8 
L 423.345863 172.8 
L 424.173913 172.8 
L 425.001964 172.8 
L 425.830014 172.8 
L 426.658065 172.8 
L 427.486115 172.8 
L 428.314165 172.8 
L 429.142216 172.8 
L 429.970266 172.8 
L 430.798317 172.8 
L 431.626367 172.8 
L 432.454418 172.8 
L 433.282468 172.8 
L 434.110519 172.8 
L 435.76662 172.8 
L 436.59467 172.8 
L 437.422721 172.8 
L 438.250771 172.8 
L 439.078822 172.8 
L 439.906872 172.8 
L 440.734923 172.8 
L 441.562973 172.8 
L 442.391024 172.8 
L 443.219074 172.8 
L 444.047125 172.8 
L 444.875175 172.8 
L 445.703226 172.8 
L 447.359327 172.8 
L 448.187377 172.8 
L 449.015428 172.8 
L 449.843478 172.8 
L 450.671529 172.8 
L 452.32763 172.8 
L 453.15568 172.8 
L 453.983731 172.8 
L 454.811781 172.8 
L 455.639832 172.8 
L 456.467882 172.8 
L 458.123983 172.8 
L 458.952034 172.8 
L 459.780084 172.8 
L 460.608135 172.8 
L 461.436185 172.8 
L 462.264236 172.8 
L 463.092286 172.8 
L 463.920337 172.8 
L 464.748387 172.8 
L 465.576438 172.8 
L 466.404488 172.8 
L 467.232539 172.8 
L 468.060589 172.8 
L 468.88864 172.8 
L 469.71669 172.8 
L 470.544741 172.8 
L 471.372791 172.8 
L 472.200842 172.8 
L 473.028892 172.8 
L 473.856942 172.8 
L 474.684993 172.8 
L 475.513043 172.8 
L 476.341094 172.8 
L 477.169144 172.8 
L 477.997195 172.8 
L 478.825245 172.8 
L 479.653296 172.8 
L 481.309397 172.8 
L 482.137447 172.8 
L 482.965498 172.8 
L 483.793548 172.8 
L 484.621599 172.8 
L 485.449649 172.8 
L 486.2777 172.8 
L 487.10575 172.8 
L 487.933801 172.8 
L 488.761851 172.8 
L 489.589902 172.8 
L 490.417952 172.8 
L 491.246003 172.8 
L 492.074053 172.8 
L 492.902104 172.8 
L 493.730154 172.8 
L 494.558205 172.8 
L 495.386255 172.8 
L 496.214306 172.8 
L 497.042356 172.8 
L 497.870407 172.8 
L 498.698457 172.8 
L 499.526508 172.8 
L 500.354558 172.8 
L 501.182609 172.8 
L 502.010659 172.8 
L 502.83871 172.8 
L 503.66676 172.8 
L 504.494811 172.8 
L 505.322861 172.8 
L 506.150912 172.8 
L 506.978962 172.8 
L 507.807013 172.8 
L 508.635063 172.8 
L 509.463114 172.8 
L 510.291164 172.8 
L 511.119215 172.8 
L 511.947265 172.8 
L 512.775316 172.8 
L 513.603366 172.8 
L 514.431417 172.8 
L 515.259467 172.8 
L 516.087518 172.8 
L 516.915568 172.8 
L 517.743619 172.8 
L 518.571669 172.8 
L 519.399719 172.8 
L 520.22777 172.8 
L 521.05582 172.8 
L 521.883871 172.8 
L 522.711921 172.8 
L 523.539972 172.8 
L 524.368022 172.8 
L 525.196073 172.8 
L 526.024123 172.8 
L 526.852174 172.8 
L 527.680224 172.8 
L 528.508275 172.8 
L 529.336325 172.8 
L 530.164376 172.8 
L 530.992426 172.8 
L 531.820477 172.8 
L 532.648527 172.8 
L 533.476578 172.8 
L 534.304628 172.8 
L 535.132679 172.8 
L 535.960729 172.8 
L 536.78878 172.8 
L 537.61683 172.8 
L 538.444881 172.8 
L 539.272931 172.8 
L 540.100982 172.8 
L 540.929032 172.8 
L 541.757083 172.8 
L 542.585133 172.8 
L 543.413184 172.8 
L 544.241234 172.8 
L 545.069285 172.8 
L 545.897335 172.8 
L 546.725386 172.8 
L 547.553436 172.8 
L 548.381487 172.8 
L 549.209537 172.8 
L 550.037588 172.8 
L 550.865638 172.8 
L 551.693689 172.8 
L 552.521739 172.8 
L 553.34979 172.8 
L 554.17784 172.8 
L 555.005891 172.8 
L 555.833941 172.8 
L 556.661992 172.8 
L 557.490042 172.8 
L 558.318093 172.8 
L 559.146143 172.8 
L 559.974194 172.8 
L 560.802244 172.8 
L 561.630295 172.8 
L 562.458345 172.8 
L 563.286396 172.8 
L 564.114446 172.8 
L 564.942496 172.8 
L 565.770547 172.8 
L 566.598597 172.8 
L 567.426648 172.8 
L 568.254698 172.8 
L 569.082749 172.8 
L 569.910799 172.8 
L 570.73885 172.8 
L 571.5669 172.8 
L 572.394951 172.8 
L 573.223001 172.8 
L 574.051052 172.8 
L 574.879102 172.8 
L 575.707153 172.8 
L 576.535203 172.8 
L 577.363254 172.8 
L 578.191304 172.8 
L 579.019355 172.8 
L 579.847405 172.8 
L 580.675456 172.8 
L 581.503506 172.8 
L 582.331557 172.8 
L 583.159607 172.8 
L 583.987658 172.8 
L 584.815708 172.8 
L 585.643759 172.8 
L 586.471809 172.8 
L 587.29986 172.8 
L 588.12791 172.8 
L 588.955961 172.8 
L 589.784011 172.8 
L 590.612062 172.8 
L 591.440112 172.8 
L 592.268163 172.8 
L 593.096213 172.8 
L 593.924264 172.8 
L 594.752314 172.8 
L 595.580365 172.8 
L 596.408415 172.8 
L 597.236466 172.8 
L 598.064516 172.8 
L 598.892567 172.8 
L 599.720617 172.8 
L 600.548668 172.8 
L 601.376718 172.8 
L 602.204769 172.8 
L 603.032819 172.8 
L 603.86087 172.8 
L 604.68892 172.8 
L 605.516971 172.8 
L 606.345021 172.8 
L 607.173072 172.8 
L 608.001122 172.8 
L 608.829173 172.8 
L 609.657223 172.8 
L 610.485273 172.8 
L 611.313324 172.8 
L 612.141374 172.8 
L 612.969425 172.8 
L 613.797475 172.8 
L 614.625526 172.8 
L 615.453576 172.8 
L 616.281627 172.8 
L 617.109677 172.8 
L 617.937728 172.8 
L 618.765778 172.8 
L 619.593829 172.8 
L 620.421879 172.8 
L 621.24993 172.8 
L 622.07798 172.8 
L 622.906031 172.8 
L 623.734081 172.8 
L 624.562132 172.8 
L 625.390182 172.8 
L 626.218233 172.8 
L 627.046283 172.8 
L 627.874334 172.8 
L 628.702384 172.8 
L 629.530435 172.8 
L 630.358485 172.8 
L 631.186536 172.8 
L 632.014586 172.8 
L 632.842637 172.8 
L 633.670687 172.8 
L 634.498738 172.8 
L 635.326788 172.8 
L 636.154839 172.8 
L 636.982889 172.8 
L 637.81094 172.8 
L 638.63899 172.8 
L 639.467041 172.8 
L 640.295091 172.8 
L 641.123142 172.8 
L 641.951192 172.8 
L 642.779243 172.8 
L 643.607293 172.8 
L 644.435344 172.8 
L 645.263394 172.8 
L 646.091445 172.8 
L 646.091445 172.8 
L 646.091445 47.859688 
L 645.263394 23.493833 
L 644.435344 37.726717 
L 643.607293 54.580567 
L 642.779243 60.495317 
L 641.951192 47.118973 
L 641.123142 66.067472 
L 640.295091 72.820743 
L 639.467041 73.047398 
L 638.63899 81.168888 
L 637.81094 86.222119 
L 636.982889 100.836061 
L 636.154839 80.465491 
L 635.326788 73.028052 
L 634.498738 89.807505 
L 633.670687 104.459704 
L 632.842637 128.132791 
L 632.014586 114.537279 
L 631.186536 125.593902 
L 630.358485 127.294673 
L 629.530435 116.658396 
L 628.702384 130.399848 
L 627.874334 130.905336 
L 627.046283 125.235077 
L 626.218233 102.623593 
L 625.390182 136.304955 
L 624.562132 138.160024 
L 623.734081 123.273733 
L 622.906031 125.075498 
L 622.07798 131.167658 
L 621.24993 124.050463 
L 620.421879 132.327833 
L 619.593829 132.636753 
L 618.765778 134.725304 
L 617.937728 124.163358 
L 617.109677 113.590188 
L 616.281627 126.012981 
L 615.453576 133.019551 
L 614.625526 132.929902 
L 613.797475 107.688902 
L 612.969425 116.000672 
L 612.141374 126.814114 
L 611.313324 132.385969 
L 610.485273 131.642539 
L 609.657223 105.026183 
L 608.829173 100.047382 
L 608.001122 113.011687 
L 607.173072 117.968554 
L 606.345021 122.124379 
L 605.516971 110.297666 
L 604.68892 123.696334 
L 603.86087 100.597717 
L 603.032819 114.622005 
L 602.204769 100.531882 
L 601.376718 112.4823 
L 600.548668 122.571247 
L 599.720617 117.549843 
L 598.892567 113.883304 
L 598.064516 129.932409 
L 597.236466 125.761759 
L 596.408415 131.294082 
L 595.580365 122.098519 
L 594.752314 118.810995 
L 593.924264 102.018559 
L 593.096213 101.779806 
L 592.268163 96.221249 
L 591.440112 92.73867 
L 590.612062 72.546775 
L 589.784011 89.089645 
L 588.955961 99.958179 
L 588.12791 85.109248 
L 587.29986 93.693729 
L 586.471809 79.988871 
L 585.643759 90.025725 
L 584.815708 77.30113 
L 583.987658 104.513085 
L 583.159607 90.223553 
L 582.331557 104.798444 
L 581.503506 116.799574 
L 580.675456 114.408916 
L 579.847405 73.922176 
L 579.019355 91.629509 
L 578.191304 112.742797 
L 577.363254 120.401752 
L 576.535203 115.86544 
L 575.707153 118.074099 
L 574.879102 116.528262 
L 574.051052 120.345751 
L 573.223001 127.699717 
L 572.394951 121.322458 
L 571.5669 141.478581 
L 570.73885 142.961608 
L 569.910799 145.80287 
L 569.082749 128.730834 
L 568.254698 135.838549 
L 567.426648 142.584926 
L 566.598597 139.132781 
L 565.770547 150.75323 
L 564.942496 144.930308 
L 564.114446 132.931538 
L 563.286396 138.514966 
L 562.458345 142.049182 
L 561.630295 139.52641 
L 560.802244 133.339762 
L 559.974194 123.719551 
L 559.146143 140.641111 
L 558.318093 147.797379 
L 557.490042 144.337417 
L 556.661992 150.089552 
L 555.833941 150.910156 
L 555.005891 150.930715 
L 554.17784 157.526586 
L 553.34979 151.506663 
L 552.521739 159.430757 
L 551.693689 158.970021 
L 550.865638 155.812669 
L 550.037588 159.016983 
L 549.209537 159.273752 
L 548.381487 158.06161 
L 547.553436 157.28107 
L 546.725386 165.222543 
L 545.897335 162.735159 
L 545.069285 162.268874 
L 544.241234 155.883919 
L 543.413184 167.885256 
L 542.585133 168.386984 
L 541.757083 168.756438 
L 540.929032 167.000886 
L 540.100982 166.970221 
L 539.272931 169.190347 
L 538.444881 169.21403 
L 537.61683 168.87101 
L 536.78878 169.173871 
L 535.960729 167.162577 
L 535.132679 166.113045 
L 534.304628 165.508908 
L 533.476578 166.195259 
L 532.648527 166.238239 
L 531.820477 164.54466 
L 530.992426 166.011058 
L 530.164376 166.236267 
L 529.336325 165.778183 
L 528.508275 163.83436 
L 527.680224 164.537432 
L 526.852174 163.568876 
L 526.024123 164.269886 
L 525.196073 162.835368 
L 524.368022 166.031998 
L 523.539972 165.65842 
L 522.711921 164.756706 
L 521.883871 162.150246 
L 521.05582 164.669463 
L 520.22777 156.689221 
L 519.399719 158.492074 
L 518.571669 163.063942 
L 517.743619 163.550369 
L 516.915568 143.650369 
L 516.087518 149.999746 
L 515.259467 130.281189 
L 514.431417 132.653354 
L 513.603366 139.553151 
L 512.775316 142.306035 
L 511.947265 142.88203 
L 511.119215 120.878822 
L 510.291164 141.625301 
L 509.463114 136.748514 
L 508.635063 145.789235 
L 507.807013 153.461952 
L 506.978962 135.388181 
L 506.150912 137.200539 
L 505.322861 145.321717 
L 504.494811 138.868878 
L 503.66676 150.827462 
L 502.83871 146.967262 
L 502.010659 153.613012 
L 501.182609 145.968017 
L 500.354558 146.051764 
L 499.526508 143.432442 
L 498.698457 134.14516 
L 497.870407 137.308459 
L 497.042356 145.281913 
L 496.214306 148.034612 
L 495.386255 145.753599 
L 494.558205 150.849691 
L 493.730154 149.188779 
L 492.902104 148.766013 
L 492.074053 136.856827 
L 491.246003 157.497781 
L 490.417952 161.59287 
L 489.589902 157.043187 
L 488.761851 152.505517 
L 487.933801 139.521675 
L 487.10575 135.058819 
L 486.2777 143.257955 
L 485.449649 152.834796 
L 484.621599 146.118356 
L 483.793548 151.002621 
L 482.965498 143.020243 
L 482.137447 151.341284 
L 481.309397 154.533477 
L 479.653296 121.934106 
L 478.825245 130.061372 
L 477.997195 144.610258 
L 477.169144 146.81068 
L 476.341094 140.413051 
L 475.513043 143.700501 
L 474.684993 152.516858 
L 473.856942 153.539584 
L 473.028892 162.60138 
L 472.200842 165.641088 
L 471.372791 163.972931 
L 470.544741 152.918467 
L 469.71669 169.054764 
L 468.88864 167.902424 
L 468.060589 168.976633 
L 467.232539 167.043643 
L 466.404488 165.243888 
L 465.576438 166.184614 
L 464.748387 161.085725 
L 463.920337 167.760689 
L 463.092286 169.795879 
L 462.264236 168.837479 
L 461.436185 168.198535 
L 460.608135 169.64866 
L 459.780084 166.808681 
L 458.952034 169.124395 
L 458.123983 169.907322 
L 456.467882 168.909022 
L 455.639832 169.471365 
L 454.811781 165.782039 
L 453.983731 169.275988 
L 453.15568 168.323147 
L 452.32763 162.842203 
L 450.671529 169.561563 
L 449.843478 165.685942 
L 449.015428 168.817477 
L 448.187377 169.17882 
L 447.359327 164.982517 
L 445.703226 163.688302 
L 444.875175 167.446536 
L 444.047125 163.190215 
L 443.219074 161.595475 
L 442.391024 164.438816 
L 441.562973 158.514648 
L 440.734923 166.468881 
L 439.906872 165.100308 
L 439.078822 166.84681 
L 438.250771 161.991875 
L 437.422721 159.623368 
L 436.59467 160.388014 
L 435.76662 164.654965 
L 434.110519 166.972782 
L 433.282468 166.142924 
L 432.454418 159.082777 
L 431.626367 160.114823 
L 430.798317 157.734111 
L 429.970266 161.685152 
L 429.142216 165.74345 
L 428.314165 159.013336 
L 427.486115 154.177593 
L 426.658065 155.341369 
L 425.830014 157.006822 
L 425.001964 159.482569 
L 424.173913 141.225468 
L 423.345863 138.517635 
L 422.517812 144.725312 
L 421.689762 157.490085 
L 420.861711 150.700743 
L 420.033661 143.942164 
L 419.20561 156.384174 
L 418.37756 158.533536 
L 417.549509 165.899327 
L 416.721459 163.219483 
L 415.893408 144.664627 
L 415.065358 154.436428 
L 414.237307 157.014997 
L 413.409257 147.335863 
L 412.581206 153.431129 
L 411.753156 151.744457 
L 410.925105 154.598807 
L 410.097055 160.250936 
L 409.269004 160.257387 
L 408.440954 155.271505 
L 407.612903 155.871897 
L 406.784853 150.649911 
L 405.956802 141.839374 
L 405.128752 158.417209 
L 404.300701 159.111061 
L 403.472651 160.720596 
L 402.6446 152.479876 
L 401.81655 157.724012 
L 400.988499 155.161295 
L 400.160449 136.910047 
L 399.332398 154.000046 
L 398.504348 160.995697 
L 397.676297 148.29046 
L 396.848247 148.390956 
L 396.020196 154.017749 
L 395.192146 158.857459 
L 394.364095 157.76331 
L 393.536045 155.498783 
L 392.707994 154.950732 
L 391.879944 159.863941 
L 391.051893 156.080347 
L 390.223843 156.348169 
L 389.395792 153.013216 
L 388.567742 157.427265 
L 387.739691 148.043303 
L 386.911641 158.885868 
L 386.08359 153.373389 
L 385.25554 155.285342 
L 384.427489 155.373634 
L 383.599439 154.945894 
L 382.771388 161.478934 
L 381.943338 159.912016 
L 381.115288 158.701613 
L 380.287237 163.330998 
L 379.459187 152.680604 
L 378.631136 161.797616 
L 377.803086 159.618368 
L 376.975035 155.776838 
L 376.146985 156.863307 
L 375.318934 154.743093 
L 374.490884 159.371423 
L 373.662833 159.500782 
L 372.834783 154.123933 
L 372.006732 154.709087 
L 371.178682 154.412789 
L 370.350631 158.311555 
L 369.522581 156.842041 
L 368.69453 161.378032 
L 367.86648 159.084955 
L 367.038429 162.612032 
L 366.210379 162.950959 
L 365.382328 140.406933 
L 364.554278 161.612695 
L 363.726227 164.079106 
L 362.898177 160.286472 
L 362.070126 153.858125 
L 361.242076 148.611517 
L 360.414025 144.678996 
L 359.585975 147.75992 
L 358.757924 146.581615 
L 357.929874 147.355608 
L 357.101823 155.02555 
L 356.273773 149.941636 
L 355.445722 136.39325 
L 354.617672 152.900196 
L 353.789621 158.420066 
L 352.961571 153.486366 
L 352.13352 152.679002 
L 351.30547 159.538519 
L 350.477419 138.586229 
L 349.649369 157.000705 
L 348.821318 164.824873 
L 347.993268 144.646171 
L 347.165217 162.776186 
L 346.337167 155.01472 
L 345.509116 150.654283 
L 344.681066 142.30773 
L 343.853015 156.115256 
L 343.024965 157.157328 
L 342.196914 151.276568 
L 341.368864 95.343832 
L 340.540813 143.080984 
L 339.712763 146.235838 
L 338.884712 147.98408 
L 338.056662 145.01736 
L 337.228612 148.406789 
L 336.400561 150.825483 
L 335.572511 147.165856 
L 334.74446 143.847135 
L 333.91641 146.721917 
L 333.088359 122.609487 
L 332.260309 150.125861 
L 331.432258 134.867431 
L 330.604208 146.482339 
L 329.776157 145.936698 
L 328.948107 155.741258 
L 328.120056 146.114211 
L 327.292006 137.124134 
L 326.463955 138.168452 
L 325.635905 156.146671 
L 324.807854 158.219938 
L 323.979804 153.983405 
L 323.151753 134.302767 
L 322.323703 157.265086 
L 321.495652 154.928257 
L 320.667602 151.034486 
L 319.839551 157.796361 
L 319.011501 157.686697 
L 318.18345 160.860449 
L 316.527349 161.7081 
L 315.699299 148.805872 
L 314.871248 160.801697 
L 314.043198 141.484122 
L 313.215147 155.403602 
L 312.387097 142.144092 
L 311.559046 165.049886 
L 310.730996 128.744679 
L 309.902945 142.817446 
L 309.074895 123.649252 
L 308.246844 153.39015 
L 307.418794 157.172842 
L 306.590743 150.145933 
L 305.762693 152.678842 
L 304.934642 147.218207 
L 304.106592 142.668884 
L 303.278541 136.407376 
L 302.450491 149.969107 
L 301.62244 150.435744 
L 300.79439 153.706121 
L 299.966339 158.864608 
L 299.138289 152.528159 
L 298.310238 161.753283 
L 297.482188 159.231776 
L 296.654137 156.285987 
L 295.826087 164.394908 
L 294.998036 163.646513 
L 294.169986 153.999626 
L 293.341935 161.782964 
L 292.513885 153.279286 
L 291.685835 143.04324 
L 290.857784 159.284663 
L 290.029734 161.513674 
L 289.201683 157.05967 
L 288.373633 163.905749 
L 287.545582 165.664214 
L 286.717532 148.241803 
L 285.889481 162.253841 
L 285.061431 153.218469 
L 284.23338 161.808557 
L 283.40533 156.904318 
L 282.577279 160.888412 
L 281.749229 161.580766 
L 280.921178 154.321208 
L 280.093128 152.141398 
L 279.265077 109.397502 
L 278.437027 111.428164 
L 277.608976 106.816004 
L 276.780926 146.857421 
L 275.952875 150.68489 
L 275.124825 150.374434 
L 274.296774 142.899726 
L 273.468724 136.32686 
L 272.640673 132.033354 
L 271.812623 139.82689 
L 270.984572 145.806608 
L 270.156522 158.690948 
L 269.328471 153.503672 
L 268.500421 152.281334 
L 267.67237 125.948884 
L 266.84432 118.65439 
L 266.016269 149.176607 
L 265.188219 131.813044 
L 264.360168 93.031258 
L 263.532118 108.47561 
L 262.704067 146.463307 
L 261.876017 117.261895 
L 261.047966 143.648971 
L 260.219916 144.097308 
L 259.391865 156.555848 
L 258.563815 76.423485 
L 257.735764 135.510191 
L 256.907714 149.017103 
L 256.079663 133.349269 
L 255.251613 144.936176 
L 254.423562 129.474023 
L 253.595512 155.647167 
L 252.767461 148.953559 
L 251.939411 154.992033 
L 251.11136 154.718801 
L 250.28331 117.808814 
L 249.455259 118.704207 
L 248.627209 139.06592 
L 247.799158 140.609739 
L 246.971108 139.567226 
L 246.143058 144.39113 
L 245.315007 144.391596 
L 244.486957 155.72709 
L 243.658906 150.323068 
L 242.830856 155.383323 
L 242.002805 151.884183 
L 241.174755 161.267682 
L 240.346704 158.060408 
L 239.518654 154.187142 
L 238.690603 151.758998 
L 237.862553 156.368168 
L 237.034502 167.643666 
L 236.206452 163.32762 
L 235.378401 164.90766 
L 234.550351 163.158769 
L 233.7223 167.553649 
L 232.89425 163.916689 
L 232.066199 165.774502 
L 231.238149 167.294189 
L 230.410098 166.3722 
L 229.582048 166.54266 
L 228.753997 169.214596 
L 227.925947 163.92304 
L 227.097896 168.338428 
L 226.269846 169.067325 
L 225.441795 168.881333 
L 224.613745 167.301426 
L 223.785694 166.295411 
L 222.957644 167.965783 
L 222.129593 167.418231 
L 221.301543 159.444291 
L 220.473492 168.38696 
L 219.645442 164.287542 
L 218.817391 170.680849 
L 217.989341 169.77476 
L 217.16129 170.08513 
L 216.33324 166.089194 
L 215.505189 170.217358 
L 214.677139 168.10973 
L 213.849088 168.396953 
L 213.021038 170.837173 
L 212.192987 169.583876 
L 211.364937 168.00878 
L 210.536886 167.527425 
L 209.708836 162.348603 
L 208.880785 166.734836 
L 208.052735 165.346709 
L 207.224684 165.726272 
L 206.396634 168.920551 
L 205.568583 164.317416 
L 204.740533 167.808737 
L 203.912482 168.689226 
L 203.084432 166.685876 
L 202.256381 159.07112 
L 201.428331 163.341915 
L 200.600281 170.275982 
L 199.77223 166.694272 
L 198.94418 167.58915 
L 198.116129 165.900758 
L 196.460028 170.250575 
L 195.631978 171.839803 
L 194.803927 170.395237 
L 193.975877 166.962633 
L 193.147826 160.679336 
L 192.319776 153.991199 
L 191.491725 168.224969 
L 190.663675 169.045089 
L 189.835624 169.858608 
L 189.007574 165.407686 
L 188.179523 168.501811 
L 187.351473 155.801027 
L 186.523422 165.635397 
L 185.695372 165.513037 
L 184.867321 169.742033 
L 184.039271 160.752485 
L 183.21122 171.169215 
L 182.38317 160.642692 
L 181.555119 170.367936 
L 180.727069 168.647255 
L 179.899018 171.218466 
L 178.242917 168.152122 
L 176.586816 171.604547 
L 175.758766 170.888668 
L 171.618513 170.180424 
L 170.790463 170.807771 
L 169.962412 169.230264 
L 166.65021 160.304051 
L 164.994109 172.456787 
L 164.166059 171.253245 
L 163.338008 165.541927 
L 162.509958 166.963664 
L 159.197756 171.344268 
L 158.369705 172.156659 
L 157.541655 169.866085 
L 154.229453 171.491025 
L 153.401403 170.828021 
L 152.573352 169.966693 
L 151.745302 166.0622 
L 149.26115 166.908815 
L 148.4331 170.019295 
L 147.605049 170.712663 
L 146.776999 169.654622 
L 145.948948 172.052773 
L 145.120898 171.463355 
L 144.292847 171.262218 
L 143.464797 170.313977 
L 142.636746 168.251319 
L 141.808696 167.821615 
L 140.980645 167.02231 
L 138.496494 172.131697 
L 137.668443 172.123768 
L 136.840393 161.078159 
L 136.012342 169.428921 
L 135.184292 168.647548 
L 134.356241 162.810608 
L 133.528191 172.081722 
L 132.70014 171.124758 
L 131.87209 161.503093 
L 131.044039 171.727695 
L 130.215989 168.328094 
L 129.387938 169.846609 
L 128.559888 168.967799 
L 127.731837 172.075482 
L 126.903787 169.643849 
L 125.247686 170.683145 
L 124.419635 171.334483 
L 123.591585 168.99854 
L 122.763534 168.489082 
L 121.935484 170.175244 
L 120.279383 165.916557 
L 119.451332 168.72881 
L 118.623282 167.481073 
L 116.967181 165.243998 
L 115.31108 170.999847 
L 114.483029 169.137317 
L 113.654979 167.250318 
L 112.826928 168.276422 
L 111.998878 166.275169 
L 111.170827 169.863378 
L 108.686676 125.567451 
L 107.858626 162.2844 
L 107.030575 169.355874 
L 106.202525 168.869382 
L 105.374474 168.228512 
L 103.718373 172.389701 
L 102.890323 165.571829 
L 102.062272 164.512487 
L 101.234222 169.248595 
L 100.406171 149.572142 
L 97.92202 160.843727 
L 97.093969 146.799497 
L 96.265919 150.007887 
L 95.437868 158.414577 
L 94.609818 138.072011 
L 93.781767 140.770648 
L 91.297616 142.328686 
L 90.469565 149.598375 
L 89.641515 158.764187 
L 88.813464 147.373633 
z
" style="fill:#008000;fill-opacity:0.3;"/>
   </g>
   <g id="matplotlib.axis_1">
    <g id="xtick_1">
     <g id="line2d_1">
      <path clip-path="url(#p0c4bbb7a70)" d="M 90.469565 172.8 
L 90.469565 25.92 
" style="fill:none;stroke:#808080;stroke-dasharray:6.4,1.6,1,1.6;stroke-dashoffset:0;stroke-opacity:0.3;"/>
     </g>
     <g id="line2d_2">
      <defs>
       <path d="M 0 0 
L 0 3.5 
" id="m19ba989780" style="stroke:#000000;stroke-width:0.8;"/>
      </defs>
      <g>
       <use style="stroke:#000000;stroke-width:0.8;" x="90.469565" xlink:href="#m19ba989780" y="172.8"/>
      </g>
     </g>
     <g id="text_1">
      <!-- 2020-04 -->
      <g transform="translate(69.578159 187.398438)scale(0.1 -0.1)">
       <defs>
        <path d="M 19.1875 8.296875 
L 53.609375 8.296875 
L 53.609375 0 
L 7.328125 0 
L 7.328125 8.296875 
Q 12.9375 14.109375 22.625 23.890625 
Q 32.328125 33.6875 34.8125 36.53125 
Q 39.546875 41.84375 41.421875 45.53125 
Q 43.3125 49.21875 43.3125 52.78125 
Q 43.3125 58.59375 39.234375 62.25 
Q 35.15625 65.921875 28.609375 65.921875 
Q 23.96875 65.921875 18.8125 64.3125 
Q 13.671875 62.703125 7.8125 59.421875 
L 7.8125 69.390625 
Q 13.765625 71.78125 18.9375 73 
Q 24.125 74.21875 28.421875 74.21875 
Q 39.75 74.21875 46.484375 68.546875 
Q 53.21875 62.890625 53.21875 53.421875 
Q 53.21875 48.921875 51.53125 44.890625 
Q 49.859375 40.875 45.40625 35.40625 
Q 44.1875 33.984375 37.640625 27.21875 
Q 31.109375 20.453125 19.1875 8.296875 
z
" id="DejaVuSans-50"/>
        <path d="M 31.78125 66.40625 
Q 24.171875 66.40625 20.328125 58.90625 
Q 16.5 51.421875 16.5 36.375 
Q 16.5 21.390625 20.328125 13.890625 
Q 24.171875 6.390625 31.78125 6.390625 
Q 39.453125 6.390625 43.28125 13.890625 
Q 47.125 21.390625 47.125 36.375 
Q 47.125 51.421875 43.28125 58.90625 
Q 39.453125 66.40625 31.78125 66.40625 
z
M 31.78125 74.21875 
Q 44.046875 74.21875 50.515625 64.515625 
Q 56.984375 54.828125 56.984375 36.375 
Q 56.984375 17.96875 50.515625 8.265625 
Q 44.046875 -1.421875 31.78125 -1.421875 
Q 19.53125 -1.421875 13.0625 8.265625 
Q 6.59375 17.96875 6.59375 36.375 
Q 6.59375 54.828125 13.0625 64.515625 
Q 19.53125 74.21875 31.78125 74.21875 
z
" id="DejaVuSans-48"/>
        <path d="M 4.890625 31.390625 
L 31.203125 31.390625 
L 31.203125 23.390625 
L 4.890625 23.390625 
z
" id="DejaVuSans-45"/>
        <path d="M 37.796875 64.3125 
L 12.890625 25.390625 
L 37.796875 25.390625 
z
M 35.203125 72.90625 
L 47.609375 72.90625 
L 47.609375 25.390625 
L 58.015625 25.390625 
L 58.015625 17.1875 
L 47.609375 17.1875 
L 47.609375 0 
L 37.796875 0 
L 37.796875 17.1875 
L 4.890625 17.1875 
L 4.890625 26.703125 
z
" id="DejaVuSans-52"/>
       </defs>
       <use xlink:href="#DejaVuSans-50"/>
       <use x="63.623047" xlink:href="#DejaVuSans-48"/>
       <use x="127.246094" xlink:href="#DejaVuSans-50"/>
       <use x="190.869141" xlink:href="#DejaVuSans-48"/>
       <use x="254.492188" xlink:href="#DejaVuSans-45"/>
       <use x="290.576172" xlink:href="#DejaVuSans-48"/>
       <use x="354.199219" xlink:href="#DejaVuSans-52"/>
      </g>
     </g>
    </g>
    <g id="xtick_2">
     <g id="line2d_3">
      <path clip-path="url(#p0c4bbb7a70)" d="M 165.82216 172.8 
L 165.82216 25.92 
" style="fill:none;stroke:#808080;stroke-dasharray:6.4,1.6,1,1.6;stroke-dashoffset:0;stroke-opacity:0.3;"/>
     </g>
     <g id="line2d_4">
      <g>
       <use style="stroke:#000000;stroke-width:0.8;" x="165.82216" xlink:href="#m19ba989780" y="172.8"/>
      </g>
     </g>
     <g id="text_2">
      <!-- 2020-07 -->
      <g transform="translate(144.930754 187.398438)scale(0.1 -0.1)">
       <defs>
        <path d="M 8.203125 72.90625 
L 55.078125 72.90625 
L 55.078125 68.703125 
L 28.609375 0 
L 18.3125 0 
L 43.21875 64.59375 
L 8.203125 64.59375 
z
" id="DejaVuSans-55"/>
       </defs>
       <use xlink:href="#DejaVuSans-50"/>
       <use x="63.623047" xlink:href="#DejaVuSans-48"/>
       <use x="127.246094" xlink:href="#DejaVuSans-50"/>
       <use x="190.869141" xlink:href="#DejaVuSans-48"/>
       <use x="254.492188" xlink:href="#DejaVuSans-45"/>
       <use x="290.576172" xlink:href="#DejaVuSans-48"/>
       <use x="354.199219" xlink:href="#DejaVuSans-55"/>
      </g>
     </g>
    </g>
    <g id="xtick_3">
     <g id="line2d_5">
      <path clip-path="url(#p0c4bbb7a70)" d="M 242.002805 172.8 
L 242.002805 25.92 
" style="fill:none;stroke:#808080;stroke-dasharray:6.4,1.6,1,1.6;stroke-dashoffset:0;stroke-opacity:0.3;"/>
     </g>
     <g id="line2d_6">
      <g>
       <use style="stroke:#000000;stroke-width:0.8;" x="242.002805" xlink:href="#m19ba989780" y="172.8"/>
      </g>
     </g>
     <g id="text_3">
      <!-- 2020-10 -->
      <g transform="translate(221.111399 187.398438)scale(0.1 -0.1)">
       <defs>
        <path d="M 12.40625 8.296875 
L 28.515625 8.296875 
L 28.515625 63.921875 
L 10.984375 60.40625 
L 10.984375 69.390625 
L 28.421875 72.90625 
L 38.28125 72.90625 
L 38.28125 8.296875 
L 54.390625 8.296875 
L 54.390625 0 
L 12.40625 0 
z
" id="DejaVuSans-49"/>
       </defs>
       <use xlink:href="#DejaVuSans-50"/>
       <use x="63.623047" xlink:href="#DejaVuSans-48"/>
       <use x="127.246094" xlink:href="#DejaVuSans-50"/>
       <use x="190.869141" xlink:href="#DejaVuSans-48"/>
       <use x="254.492188" xlink:href="#DejaVuSans-45"/>
       <use x="290.576172" xlink:href="#DejaVuSans-49"/>
       <use x="354.199219" xlink:href="#DejaVuSans-48"/>
      </g>
     </g>
    </g>
    <g id="xtick_4">
     <g id="line2d_7">
      <path clip-path="url(#p0c4bbb7a70)" d="M 318.18345 172.8 
L 318.18345 25.92 
" style="fill:none;stroke:#808080;stroke-dasharray:6.4,1.6,1,1.6;stroke-dashoffset:0;stroke-opacity:0.3;"/>
     </g>
     <g id="line2d_8">
      <g>
       <use style="stroke:#000000;stroke-width:0.8;" x="318.18345" xlink:href="#m19ba989780" y="172.8"/>
      </g>
     </g>
     <g id="text_4">
      <!-- 2021-01 -->
      <g transform="translate(297.292044 187.398438)scale(0.1 -0.1)">
       <use xlink:href="#DejaVuSans-50"/>
       <use x="63.623047" xlink:href="#DejaVuSans-48"/>
       <use x="127.246094" xlink:href="#DejaVuSans-50"/>
       <use x="190.869141" xlink:href="#DejaVuSans-49"/>
       <use x="254.492188" xlink:href="#DejaVuSans-45"/>
       <use x="290.576172" xlink:href="#DejaVuSans-48"/>
       <use x="354.199219" xlink:href="#DejaVuSans-49"/>
      </g>
     </g>
    </g>
    <g id="xtick_5">
     <g id="line2d_9">
      <path clip-path="url(#p0c4bbb7a70)" d="M 392.707994 172.8 
L 392.707994 25.92 
" style="fill:none;stroke:#808080;stroke-dasharray:6.4,1.6,1,1.6;stroke-dashoffset:0;stroke-opacity:0.3;"/>
     </g>
     <g id="line2d_10">
      <g>
       <use style="stroke:#000000;stroke-width:0.8;" x="392.707994" xlink:href="#m19ba989780" y="172.8"/>
      </g>
     </g>
     <g id="text_5">
      <!-- 2021-04 -->
      <g transform="translate(371.816588 187.398438)scale(0.1 -0.1)">
       <use xlink:href="#DejaVuSans-50"/>
       <use x="63.623047" xlink:href="#DejaVuSans-48"/>
       <use x="127.246094" xlink:href="#DejaVuSans-50"/>
       <use x="190.869141" xlink:href="#DejaVuSans-49"/>
       <use x="254.492188" xlink:href="#DejaVuSans-45"/>
       <use x="290.576172" xlink:href="#DejaVuSans-48"/>
       <use x="354.199219" xlink:href="#DejaVuSans-52"/>
      </g>
     </g>
    </g>
    <g id="xtick_6">
     <g id="line2d_11">
      <path clip-path="url(#p0c4bbb7a70)" d="M 468.060589 172.8 
L 468.060589 25.92 
" style="fill:none;stroke:#808080;stroke-dasharray:6.4,1.6,1,1.6;stroke-dashoffset:0;stroke-opacity:0.3;"/>
     </g>
     <g id="line2d_12">
      <g>
       <use style="stroke:#000000;stroke-width:0.8;" x="468.060589" xlink:href="#m19ba989780" y="172.8"/>
      </g>
     </g>
     <g id="text_6">
      <!-- 2021-07 -->
      <g transform="translate(447.169183 187.398438)scale(0.1 -0.1)">
       <use xlink:href="#DejaVuSans-50"/>
       <use x="63.623047" xlink:href="#DejaVuSans-48"/>
       <use x="127.246094" xlink:href="#DejaVuSans-50"/>
       <use x="190.869141" xlink:href="#DejaVuSans-49"/>
       <use x="254.492188" xlink:href="#DejaVuSans-45"/>
       <use x="290.576172" xlink:href="#DejaVuSans-48"/>
       <use x="354.199219" xlink:href="#DejaVuSans-55"/>
      </g>
     </g>
    </g>
    <g id="xtick_7">
     <g id="line2d_13">
      <path clip-path="url(#p0c4bbb7a70)" d="M 544.241234 172.8 
L 544.241234 25.92 
" style="fill:none;stroke:#808080;stroke-dasharray:6.4,1.6,1,1.6;stroke-dashoffset:0;stroke-opacity:0.3;"/>
     </g>
     <g id="line2d_14">
      <g>
       <use style="stroke:#000000;stroke-width:0.8;" x="544.241234" xlink:href="#m19ba989780" y="172.8"/>
      </g>
     </g>
     <g id="text_7">
      <!-- 2021-10 -->
      <g transform="translate(523.349828 187.398438)scale(0.1 -0.1)">
       <use xlink:href="#DejaVuSans-50"/>
       <use x="63.623047" xlink:href="#DejaVuSans-48"/>
       <use x="127.246094" xlink:href="#DejaVuSans-50"/>
       <use x="190.869141" xlink:href="#DejaVuSans-49"/>
       <use x="254.492188" xlink:href="#DejaVuSans-45"/>
       <use x="290.576172" xlink:href="#DejaVuSans-49"/>
       <use x="354.199219" xlink:href="#DejaVuSans-48"/>
      </g>
     </g>
    </g>
    <g id="xtick_8">
     <g id="line2d_15">
      <path clip-path="url(#p0c4bbb7a70)" d="M 620.421879 172.8 
L 620.421879 25.92 
" style="fill:none;stroke:#808080;stroke-dasharray:6.4,1.6,1,1.6;stroke-dashoffset:0;stroke-opacity:0.3;"/>
     </g>
     <g id="line2d_16">
      <g>
       <use style="stroke:#000000;stroke-width:0.8;" x="620.421879" xlink:href="#m19ba989780" y="172.8"/>
      </g>
     </g>
     <g id="text_8">
      <!-- 2022-01 -->
      <g transform="translate(599.530473 187.398438)scale(0.1 -0.1)">
       <use xlink:href="#DejaVuSans-50"/>
       <use x="63.623047" xlink:href="#DejaVuSans-48"/>
       <use x="127.246094" xlink:href="#DejaVuSans-50"/>
       <use x="190.869141" xlink:href="#DejaVuSans-50"/>
       <use x="254.492188" xlink:href="#DejaVuSans-45"/>
       <use x="290.576172" xlink:href="#DejaVuSans-48"/>
       <use x="354.199219" xlink:href="#DejaVuSans-49"/>
      </g>
     </g>
    </g>
    <g id="text_9">
     <!-- Datum -->
     <g transform="translate(343.086719 201.076562)scale(0.1 -0.1)">
      <defs>
       <path d="M 19.671875 64.796875 
L 19.671875 8.109375 
L 31.59375 8.109375 
Q 46.6875 8.109375 53.6875 14.9375 
Q 60.6875 21.78125 60.6875 36.53125 
Q 60.6875 51.171875 53.6875 57.984375 
Q 46.6875 64.796875 31.59375 64.796875 
z
M 9.8125 72.90625 
L 30.078125 72.90625 
Q 51.265625 72.90625 61.171875 64.09375 
Q 71.09375 55.28125 71.09375 36.53125 
Q 71.09375 17.671875 61.125 8.828125 
Q 51.171875 0 30.078125 0 
L 9.8125 0 
z
" id="DejaVuSans-68"/>
       <path d="M 34.28125 27.484375 
Q 23.390625 27.484375 19.1875 25 
Q 14.984375 22.515625 14.984375 16.5 
Q 14.984375 11.71875 18.140625 8.90625 
Q 21.296875 6.109375 26.703125 6.109375 
Q 34.1875 6.109375 38.703125 11.40625 
Q 43.21875 16.703125 43.21875 25.484375 
L 43.21875 27.484375 
z
M 52.203125 31.203125 
L 52.203125 0 
L 43.21875 0 
L 43.21875 8.296875 
Q 40.140625 3.328125 35.546875 0.953125 
Q 30.953125 -1.421875 24.3125 -1.421875 
Q 15.921875 -1.421875 10.953125 3.296875 
Q 6 8.015625 6 15.921875 
Q 6 25.140625 12.171875 29.828125 
Q 18.359375 34.515625 30.609375 34.515625 
L 43.21875 34.515625 
L 43.21875 35.40625 
Q 43.21875 41.609375 39.140625 45 
Q 35.0625 48.390625 27.6875 48.390625 
Q 23 48.390625 18.546875 47.265625 
Q 14.109375 46.140625 10.015625 43.890625 
L 10.015625 52.203125 
Q 14.9375 54.109375 19.578125 55.046875 
Q 24.21875 56 28.609375 56 
Q 40.484375 56 46.34375 49.84375 
Q 52.203125 43.703125 52.203125 31.203125 
z
" id="DejaVuSans-97"/>
       <path d="M 18.3125 70.21875 
L 18.3125 54.6875 
L 36.8125 54.6875 
L 36.8125 47.703125 
L 18.3125 47.703125 
L 18.3125 18.015625 
Q 18.3125 11.328125 20.140625 9.421875 
Q 21.96875 7.515625 27.59375 7.515625 
L 36.8125 7.515625 
L 36.8125 0 
L 27.59375 0 
Q 17.1875 0 13.234375 3.875 
Q 9.28125 7.765625 9.28125 18.015625 
L 9.28125 47.703125 
L 2.6875 47.703125 
L 2.6875 54.6875 
L 9.28125 54.6875 
L 9.28125 70.21875 
z
" id="DejaVuSans-116"/>
       <path d="M 8.5 21.578125 
L 8.5 54.6875 
L 17.484375 54.6875 
L 17.484375 21.921875 
Q 17.484375 14.15625 20.5 10.265625 
Q 23.53125 6.390625 29.59375 6.390625 
Q 36.859375 6.390625 41.078125 11.03125 
Q 45.3125 15.671875 45.3125 23.6875 
L 45.3125 54.6875 
L 54.296875 54.6875 
L 54.296875 0 
L 45.3125 0 
L 45.3125 8.40625 
Q 42.046875 3.421875 37.71875 1 
Q 33.40625 -1.421875 27.6875 -1.421875 
Q 18.265625 -1.421875 13.375 4.4375 
Q 8.5 10.296875 8.5 21.578125 
z
M 31.109375 56 
z
" id="DejaVuSans-117"/>
       <path d="M 52 44.1875 
Q 55.375 50.25 60.0625 53.125 
Q 64.75 56 71.09375 56 
Q 79.640625 56 84.28125 50.015625 
Q 88.921875 44.046875 88.921875 33.015625 
L 88.921875 0 
L 79.890625 0 
L 79.890625 32.71875 
Q 79.890625 40.578125 77.09375 44.375 
Q 74.3125 48.1875 68.609375 48.1875 
Q 61.625 48.1875 57.5625 43.546875 
Q 53.515625 38.921875 53.515625 30.90625 
L 53.515625 0 
L 44.484375 0 
L 44.484375 32.71875 
Q 44.484375 40.625 41.703125 44.40625 
Q 38.921875 48.1875 33.109375 48.1875 
Q 26.21875 48.1875 22.15625 43.53125 
Q 18.109375 38.875 18.109375 30.90625 
L 18.109375 0 
L 9.078125 0 
L 9.078125 54.6875 
L 18.109375 54.6875 
L 18.109375 46.1875 
Q 21.1875 51.21875 25.484375 53.609375 
Q 29.78125 56 35.6875 56 
Q 41.65625 56 45.828125 52.96875 
Q 50 49.953125 52 44.1875 
z
" id="DejaVuSans-109"/>
      </defs>
      <use xlink:href="#DejaVuSans-68"/>
      <use x="77.001953" xlink:href="#DejaVuSans-97"/>
      <use x="138.28125" xlink:href="#DejaVuSans-116"/>
      <use x="177.490234" xlink:href="#DejaVuSans-117"/>
      <use x="240.869141" xlink:href="#DejaVuSans-109"/>
     </g>
    </g>
   </g>
   <g id="matplotlib.axis_2">
    <g id="ytick_1">
     <g id="line2d_17">
      <path clip-path="url(#p0c4bbb7a70)" d="M 64.8 172.8 
L 655.2 172.8 
" style="fill:none;stroke:#808080;stroke-dasharray:6.4,1.6,1,1.6;stroke-dashoffset:0;stroke-opacity:0.3;"/>
     </g>
     <g id="line2d_18">
      <defs>
       <path d="M 0 0 
L -3.5 0 
" id="m661369ed73" style="stroke:#000000;stroke-width:0.8;"/>
      </defs>
      <g>
       <use style="stroke:#000000;stroke-width:0.8;" x="64.8" xlink:href="#m661369ed73" y="172.8"/>
      </g>
     </g>
     <g id="text_10">
      <!-- 0 -->
      <g transform="translate(51.4375 176.599219)scale(0.1 -0.1)">
       <use xlink:href="#DejaVuSans-48"/>
      </g>
     </g>
    </g>
    <g id="ytick_2">
     <g id="line2d_19">
      <path clip-path="url(#p0c4bbb7a70)" d="M 64.8 154.44 
L 655.2 154.44 
" style="fill:none;stroke:#808080;stroke-dasharray:6.4,1.6,1,1.6;stroke-dashoffset:0;stroke-opacity:0.3;"/>
     </g>
     <g id="line2d_20">
      <g>
       <use style="stroke:#000000;stroke-width:0.8;" x="64.8" xlink:href="#m661369ed73" y="154.44"/>
      </g>
     </g>
     <g id="text_11">
      <!-- 25T -->
      <g transform="translate(38.967187 158.239219)scale(0.1 -0.1)">
       <defs>
        <path d="M 10.796875 72.90625 
L 49.515625 72.90625 
L 49.515625 64.59375 
L 19.828125 64.59375 
L 19.828125 46.734375 
Q 21.96875 47.46875 24.109375 47.828125 
Q 26.265625 48.1875 28.421875 48.1875 
Q 40.625 48.1875 47.75 41.5 
Q 54.890625 34.8125 54.890625 23.390625 
Q 54.890625 11.625 47.5625 5.09375 
Q 40.234375 -1.421875 26.90625 -1.421875 
Q 22.3125 -1.421875 17.546875 -0.640625 
Q 12.796875 0.140625 7.71875 1.703125 
L 7.71875 11.625 
Q 12.109375 9.234375 16.796875 8.0625 
Q 21.484375 6.890625 26.703125 6.890625 
Q 35.15625 6.890625 40.078125 11.328125 
Q 45.015625 15.765625 45.015625 23.390625 
Q 45.015625 31 40.078125 35.4375 
Q 35.15625 39.890625 26.703125 39.890625 
Q 22.75 39.890625 18.8125 39.015625 
Q 14.890625 38.140625 10.796875 36.28125 
z
" id="DejaVuSans-53"/>
        <path d="M -0.296875 72.90625 
L 61.375 72.90625 
L 61.375 64.59375 
L 35.5 64.59375 
L 35.5 0 
L 25.59375 0 
L 25.59375 64.59375 
L -0.296875 64.59375 
z
" id="DejaVuSans-84"/>
       </defs>
       <use xlink:href="#DejaVuSans-50"/>
       <use x="63.623047" xlink:href="#DejaVuSans-53"/>
       <use x="127.246094" xlink:href="#DejaVuSans-84"/>
      </g>
     </g>
    </g>
    <g id="ytick_3">
     <g id="line2d_21">
      <path clip-path="url(#p0c4bbb7a70)" d="M 64.8 136.08 
L 655.2 136.08 
" style="fill:none;stroke:#808080;stroke-dasharray:6.4,1.6,1,1.6;stroke-dashoffset:0;stroke-opacity:0.3;"/>
     </g>
     <g id="line2d_22">
      <g>
       <use style="stroke:#000000;stroke-width:0.8;" x="64.8" xlink:href="#m661369ed73" y="136.08"/>
      </g>
     </g>
     <g id="text_12">
      <!-- 50T -->
      <g transform="translate(38.967187 139.879219)scale(0.1 -0.1)">
       <use xlink:href="#DejaVuSans-53"/>
       <use x="63.623047" xlink:href="#DejaVuSans-48"/>
       <use x="127.246094" xlink:href="#DejaVuSans-84"/>
      </g>
     </g>
    </g>
    <g id="ytick_4">
     <g id="line2d_23">
      <path clip-path="url(#p0c4bbb7a70)" d="M 64.8 117.72 
L 655.2 117.72 
" style="fill:none;stroke:#808080;stroke-dasharray:6.4,1.6,1,1.6;stroke-dashoffset:0;stroke-opacity:0.3;"/>
     </g>
     <g id="line2d_24">
      <g>
       <use style="stroke:#000000;stroke-width:0.8;" x="64.8" xlink:href="#m661369ed73" y="117.72"/>
      </g>
     </g>
     <g id="text_13">
      <!-- 75T -->
      <g transform="translate(38.967187 121.519219)scale(0.1 -0.1)">
       <use xlink:href="#DejaVuSans-55"/>
       <use x="63.623047" xlink:href="#DejaVuSans-53"/>
       <use x="127.246094" xlink:href="#DejaVuSans-84"/>
      </g>
     </g>
    </g>
    <g id="ytick_5">
     <g id="line2d_25">
      <path clip-path="url(#p0c4bbb7a70)" d="M 64.8 99.36 
L 655.2 99.36 
" style="fill:none;stroke:#808080;stroke-dasharray:6.4,1.6,1,1.6;stroke-dashoffset:0;stroke-opacity:0.3;"/>
     </g>
     <g id="line2d_26">
      <g>
       <use style="stroke:#000000;stroke-width:0.8;" x="64.8" xlink:href="#m661369ed73" y="99.36"/>
      </g>
     </g>
     <g id="text_14">
      <!-- 100T -->
      <g transform="translate(32.604687 103.159219)scale(0.1 -0.1)">
       <use xlink:href="#DejaVuSans-49"/>
       <use x="63.623047" xlink:href="#DejaVuSans-48"/>
       <use x="127.246094" xlink:href="#DejaVuSans-48"/>
       <use x="190.869141" xlink:href="#DejaVuSans-84"/>
      </g>
     </g>
    </g>
    <g id="ytick_6">
     <g id="line2d_27">
      <path clip-path="url(#p0c4bbb7a70)" d="M 64.8 81 
L 655.2 81 
" style="fill:none;stroke:#808080;stroke-dasharray:6.4,1.6,1,1.6;stroke-dashoffset:0;stroke-opacity:0.3;"/>
     </g>
     <g id="line2d_28">
      <g>
       <use style="stroke:#000000;stroke-width:0.8;" x="64.8" xlink:href="#m661369ed73" y="81"/>
      </g>
     </g>
     <g id="text_15">
      <!-- 125T -->
      <g transform="translate(32.604687 84.799219)scale(0.1 -0.1)">
       <use xlink:href="#DejaVuSans-49"/>
       <use x="63.623047" xlink:href="#DejaVuSans-50"/>
       <use x="127.246094" xlink:href="#DejaVuSans-53"/>
       <use x="190.869141" xlink:href="#DejaVuSans-84"/>
      </g>
     </g>
    </g>
    <g id="ytick_7">
     <g id="line2d_29">
      <path clip-path="url(#p0c4bbb7a70)" d="M 64.8 62.64 
L 655.2 62.64 
" style="fill:none;stroke:#808080;stroke-dasharray:6.4,1.6,1,1.6;stroke-dashoffset:0;stroke-opacity:0.3;"/>
     </g>
     <g id="line2d_30">
      <g>
       <use style="stroke:#000000;stroke-width:0.8;" x="64.8" xlink:href="#m661369ed73" y="62.64"/>
      </g>
     </g>
     <g id="text_16">
      <!-- 150T -->
      <g transform="translate(32.604687 66.439219)scale(0.1 -0.1)">
       <use xlink:href="#DejaVuSans-49"/>
       <use x="63.623047" xlink:href="#DejaVuSans-53"/>
       <use x="127.246094" xlink:href="#DejaVuSans-48"/>
       <use x="190.869141" xlink:href="#DejaVuSans-84"/>
      </g>
     </g>
    </g>
    <g id="ytick_8">
     <g id="line2d_31">
      <path clip-path="url(#p0c4bbb7a70)" d="M 64.8 44.28 
L 655.2 44.28 
" style="fill:none;stroke:#808080;stroke-dasharray:6.4,1.6,1,1.6;stroke-dashoffset:0;stroke-opacity:0.3;"/>
     </g>
     <g id="line2d_32">
      <g>
       <use style="stroke:#000000;stroke-width:0.8;" x="64.8" xlink:href="#m661369ed73" y="44.28"/>
      </g>
     </g>
     <g id="text_17">
      <!-- 175T -->
      <g transform="translate(32.604687 48.079219)scale(0.1 -0.1)">
       <use xlink:href="#DejaVuSans-49"/>
       <use x="63.623047" xlink:href="#DejaVuSans-55"/>
       <use x="127.246094" xlink:href="#DejaVuSans-53"/>
       <use x="190.869141" xlink:href="#DejaVuSans-84"/>
      </g>
     </g>
    </g>
    <g id="ytick_9">
     <g id="line2d_33">
      <path clip-path="url(#p0c4bbb7a70)" d="M 64.8 25.92 
L 655.2 25.92 
" style="fill:none;stroke:#808080;stroke-dasharray:6.4,1.6,1,1.6;stroke-dashoffset:0;stroke-opacity:0.3;"/>
     </g>
     <g id="line2d_34">
      <g>
       <use style="stroke:#000000;stroke-width:0.8;" x="64.8" xlink:href="#m661369ed73" y="25.92"/>
      </g>
     </g>
     <g id="text_18">
      <!-- 200T -->
      <g transform="translate(32.604687 29.719219)scale(0.1 -0.1)">
       <use xlink:href="#DejaVuSans-50"/>
       <use x="63.623047" xlink:href="#DejaVuSans-48"/>
       <use x="127.246094" xlink:href="#DejaVuSans-48"/>
       <use x="190.869141" xlink:href="#DejaVuSans-84"/>
      </g>
     </g>
    </g>
    <g id="text_19">
     <!-- Deeltjes per 100k inwoners -->
     <g transform="translate(26.525 167.906875)rotate(-90)scale(0.1 -0.1)">
      <defs>
       <path d="M 56.203125 29.59375 
L 56.203125 25.203125 
L 14.890625 25.203125 
Q 15.484375 15.921875 20.484375 11.0625 
Q 25.484375 6.203125 34.421875 6.203125 
Q 39.59375 6.203125 44.453125 7.46875 
Q 49.3125 8.734375 54.109375 11.28125 
L 54.109375 2.78125 
Q 49.265625 0.734375 44.1875 -0.34375 
Q 39.109375 -1.421875 33.890625 -1.421875 
Q 20.796875 -1.421875 13.15625 6.1875 
Q 5.515625 13.8125 5.515625 26.8125 
Q 5.515625 40.234375 12.765625 48.109375 
Q 20.015625 56 32.328125 56 
Q 43.359375 56 49.78125 48.890625 
Q 56.203125 41.796875 56.203125 29.59375 
z
M 47.21875 32.234375 
Q 47.125 39.59375 43.09375 43.984375 
Q 39.0625 48.390625 32.421875 48.390625 
Q 24.90625 48.390625 20.390625 44.140625 
Q 15.875 39.890625 15.1875 32.171875 
z
" id="DejaVuSans-101"/>
       <path d="M 9.421875 75.984375 
L 18.40625 75.984375 
L 18.40625 0 
L 9.421875 0 
z
" id="DejaVuSans-108"/>
       <path d="M 9.421875 54.6875 
L 18.40625 54.6875 
L 18.40625 -0.984375 
Q 18.40625 -11.421875 14.421875 -16.109375 
Q 10.453125 -20.796875 1.609375 -20.796875 
L -1.8125 -20.796875 
L -1.8125 -13.1875 
L 0.59375 -13.1875 
Q 5.71875 -13.1875 7.5625 -10.8125 
Q 9.421875 -8.453125 9.421875 -0.984375 
z
M 9.421875 75.984375 
L 18.40625 75.984375 
L 18.40625 64.59375 
L 9.421875 64.59375 
z
" id="DejaVuSans-106"/>
       <path d="M 44.28125 53.078125 
L 44.28125 44.578125 
Q 40.484375 46.53125 36.375 47.5 
Q 32.28125 48.484375 27.875 48.484375 
Q 21.1875 48.484375 17.84375 46.4375 
Q 14.5 44.390625 14.5 40.28125 
Q 14.5 37.15625 16.890625 35.375 
Q 19.28125 33.59375 26.515625 31.984375 
L 29.59375 31.296875 
Q 39.15625 29.25 43.1875 25.515625 
Q 47.21875 21.78125 47.21875 15.09375 
Q 47.21875 7.46875 41.1875 3.015625 
Q 35.15625 -1.421875 24.609375 -1.421875 
Q 20.21875 -1.421875 15.453125 -0.5625 
Q 10.6875 0.296875 5.421875 2 
L 5.421875 11.28125 
Q 10.40625 8.6875 15.234375 7.390625 
Q 20.0625 6.109375 24.8125 6.109375 
Q 31.15625 6.109375 34.5625 8.28125 
Q 37.984375 10.453125 37.984375 14.40625 
Q 37.984375 18.0625 35.515625 20.015625 
Q 33.0625 21.96875 24.703125 23.78125 
L 21.578125 24.515625 
Q 13.234375 26.265625 9.515625 29.90625 
Q 5.8125 33.546875 5.8125 39.890625 
Q 5.8125 47.609375 11.28125 51.796875 
Q 16.75 56 26.8125 56 
Q 31.78125 56 36.171875 55.265625 
Q 40.578125 54.546875 44.28125 53.078125 
z
" id="DejaVuSans-115"/>
       <path id="DejaVuSans-32"/>
       <path d="M 18.109375 8.203125 
L 18.109375 -20.796875 
L 9.078125 -20.796875 
L 9.078125 54.6875 
L 18.109375 54.6875 
L 18.109375 46.390625 
Q 20.953125 51.265625 25.265625 53.625 
Q 29.59375 56 35.59375 56 
Q 45.5625 56 51.78125 48.09375 
Q 58.015625 40.1875 58.015625 27.296875 
Q 58.015625 14.40625 51.78125 6.484375 
Q 45.5625 -1.421875 35.59375 -1.421875 
Q 29.59375 -1.421875 25.265625 0.953125 
Q 20.953125 3.328125 18.109375 8.203125 
z
M 48.6875 27.296875 
Q 48.6875 37.203125 44.609375 42.84375 
Q 40.53125 48.484375 33.40625 48.484375 
Q 26.265625 48.484375 22.1875 42.84375 
Q 18.109375 37.203125 18.109375 27.296875 
Q 18.109375 17.390625 22.1875 11.75 
Q 26.265625 6.109375 33.40625 6.109375 
Q 40.53125 6.109375 44.609375 11.75 
Q 48.6875 17.390625 48.6875 27.296875 
z
" id="DejaVuSans-112"/>
       <path d="M 41.109375 46.296875 
Q 39.59375 47.171875 37.8125 47.578125 
Q 36.03125 48 33.890625 48 
Q 26.265625 48 22.1875 43.046875 
Q 18.109375 38.09375 18.109375 28.8125 
L 18.109375 0 
L 9.078125 0 
L 9.078125 54.6875 
L 18.109375 54.6875 
L 18.109375 46.1875 
Q 20.953125 51.171875 25.484375 53.578125 
Q 30.03125 56 36.53125 56 
Q 37.453125 56 38.578125 55.875 
Q 39.703125 55.765625 41.0625 55.515625 
z
" id="DejaVuSans-114"/>
       <path d="M 9.078125 75.984375 
L 18.109375 75.984375 
L 18.109375 31.109375 
L 44.921875 54.6875 
L 56.390625 54.6875 
L 27.390625 29.109375 
L 57.625 0 
L 45.90625 0 
L 18.109375 26.703125 
L 18.109375 0 
L 9.078125 0 
z
" id="DejaVuSans-107"/>
       <path d="M 9.421875 54.6875 
L 18.40625 54.6875 
L 18.40625 0 
L 9.421875 0 
z
M 9.421875 75.984375 
L 18.40625 75.984375 
L 18.40625 64.59375 
L 9.421875 64.59375 
z
" id="DejaVuSans-105"/>
       <path d="M 54.890625 33.015625 
L 54.890625 0 
L 45.90625 0 
L 45.90625 32.71875 
Q 45.90625 40.484375 42.875 44.328125 
Q 39.84375 48.1875 33.796875 48.1875 
Q 26.515625 48.1875 22.3125 43.546875 
Q 18.109375 38.921875 18.109375 30.90625 
L 18.109375 0 
L 9.078125 0 
L 9.078125 54.6875 
L 18.109375 54.6875 
L 18.109375 46.1875 
Q 21.34375 51.125 25.703125 53.5625 
Q 30.078125 56 35.796875 56 
Q 45.21875 56 50.046875 50.171875 
Q 54.890625 44.34375 54.890625 33.015625 
z
" id="DejaVuSans-110"/>
       <path d="M 4.203125 54.6875 
L 13.1875 54.6875 
L 24.421875 12.015625 
L 35.59375 54.6875 
L 46.1875 54.6875 
L 57.421875 12.015625 
L 68.609375 54.6875 
L 77.59375 54.6875 
L 63.28125 0 
L 52.6875 0 
L 40.921875 44.828125 
L 29.109375 0 
L 18.5 0 
z
" id="DejaVuSans-119"/>
       <path d="M 30.609375 48.390625 
Q 23.390625 48.390625 19.1875 42.75 
Q 14.984375 37.109375 14.984375 27.296875 
Q 14.984375 17.484375 19.15625 11.84375 
Q 23.34375 6.203125 30.609375 6.203125 
Q 37.796875 6.203125 41.984375 11.859375 
Q 46.1875 17.53125 46.1875 27.296875 
Q 46.1875 37.015625 41.984375 42.703125 
Q 37.796875 48.390625 30.609375 48.390625 
z
M 30.609375 56 
Q 42.328125 56 49.015625 48.375 
Q 55.71875 40.765625 55.71875 27.296875 
Q 55.71875 13.875 49.015625 6.21875 
Q 42.328125 -1.421875 30.609375 -1.421875 
Q 18.84375 -1.421875 12.171875 6.21875 
Q 5.515625 13.875 5.515625 27.296875 
Q 5.515625 40.765625 12.171875 48.375 
Q 18.84375 56 30.609375 56 
z
" id="DejaVuSans-111"/>
      </defs>
      <use xlink:href="#DejaVuSans-68"/>
      <use x="77.001953" xlink:href="#DejaVuSans-101"/>
      <use x="138.525391" xlink:href="#DejaVuSans-101"/>
      <use x="200.048828" xlink:href="#DejaVuSans-108"/>
      <use x="227.832031" xlink:href="#DejaVuSans-116"/>
      <use x="267.041016" xlink:href="#DejaVuSans-106"/>
      <use x="294.824219" xlink:href="#DejaVuSans-101"/>
      <use x="356.347656" xlink:href="#DejaVuSans-115"/>
      <use x="408.447266" xlink:href="#DejaVuSans-32"/>
      <use x="440.234375" xlink:href="#DejaVuSans-112"/>
      <use x="503.710938" xlink:href="#DejaVuSans-101"/>
      <use x="565.234375" xlink:href="#DejaVuSans-114"/>
      <use x="606.347656" xlink:href="#DejaVuSans-32"/>
      <use x="638.134766" xlink:href="#DejaVuSans-49"/>
      <use x="701.757812" xlink:href="#DejaVuSans-48"/>
      <use x="765.380859" xlink:href="#DejaVuSans-48"/>
      <use x="829.003906" xlink:href="#DejaVuSans-107"/>
      <use x="886.914062" xlink:href="#DejaVuSans-32"/>
      <use x="918.701172" xlink:href="#DejaVuSans-105"/>
      <use x="946.484375" xlink:href="#DejaVuSans-110"/>
      <use x="1009.863281" xlink:href="#DejaVuSans-119"/>
      <use x="1091.650391" xlink:href="#DejaVuSans-111"/>
      <use x="1152.832031" xlink:href="#DejaVuSans-110"/>
      <use x="1216.210938" xlink:href="#DejaVuSans-101"/>
      <use x="1277.734375" xlink:href="#DejaVuSans-114"/>
      <use x="1318.847656" xlink:href="#DejaVuSans-115"/>
     </g>
    </g>
   </g>
   <g id="line2d_35">
    <path clip-path="url(#p0c4bbb7a70)" d="M 88.813464 143.828913 
L 91.297616 148.106151 
L 93.781767 149.531897 
L 95.437868 152.383389 
L 97.92202 155.942407 
L 100.406171 157.090333 
L 102.062272 159.297157 
L 103.718373 161.172898 
L 105.374474 161.946289 
L 106.202525 162.612402 
L 107.030575 163.103997 
L 108.686676 163.652044 
L 111.170827 164.32414 
L 112.826928 165.361608 
L 114.483029 166.162086 
L 115.31108 166.523954 
L 118.623282 167.177457 
L 120.279383 167.91378 
L 121.935484 168.307373 
L 123.591585 169.03711 
L 125.247686 169.158421 
L 129.387938 168.982218 
L 135.184292 168.58241 
L 136.840393 168.650937 
L 138.496494 168.866361 
L 141.808696 169.038988 
L 145.948948 169.678798 
L 148.4331 169.740994 
L 151.745302 169.61651 
L 158.369705 169.501168 
L 159.197756 169.427214 
L 164.994109 169.215045 
L 166.65021 169.091419 
L 170.790463 169.0351 
L 171.618513 168.930389 
L 175.758766 168.739328 
L 176.586816 168.533785 
L 180.727069 167.838306 
L 181.555119 167.621814 
L 184.039271 166.655214 
L 187.351473 165.847494 
L 192.319776 165.828805 
L 196.460028 166.556983 
L 199.77223 166.529957 
L 202.256381 166.342701 
L 204.740533 166.598194 
L 207.224684 166.676209 
L 209.708836 167.093727 
L 212.192987 167.637613 
L 213.849088 167.788745 
L 217.989341 167.773403 
L 220.473492 167.477671 
L 222.129593 167.2798 
L 227.097896 166.808111 
L 228.753997 166.394726 
L 231.238149 165.370612 
L 232.89425 164.345636 
L 234.550351 163.034743 
L 236.206452 161.364097 
L 237.862553 159.219212 
L 239.518654 156.736072 
L 242.830856 151.168457 
L 246.971108 144.908631 
L 247.799158 143.913562 
L 248.627209 142.698656 
L 249.455259 141.689622 
L 250.28331 141.026433 
L 251.11136 140.731401 
L 252.767461 139.724273 
L 253.595512 138.99187 
L 255.251613 136.920131 
L 256.907714 135.141874 
L 258.563815 133.137505 
L 260.219916 132.837315 
L 261.047966 132.501651 
L 261.876017 131.990471 
L 263.532118 131.576684 
L 264.360168 131.808242 
L 266.84432 134.789206 
L 268.500421 136.874363 
L 269.328471 137.589242 
L 271.812623 138.347652 
L 273.468724 139.292805 
L 275.124825 140.5766 
L 275.952875 140.878163 
L 276.780926 141.053603 
L 277.608976 141.354048 
L 278.437027 142.062352 
L 279.265077 143.126586 
L 282.577279 149.558817 
L 284.23338 152.142515 
L 287.545582 156.30509 
L 288.373633 157.21939 
L 289.201683 157.728558 
L 290.029734 157.978397 
L 292.513885 157.582637 
L 293.341935 157.440272 
L 294.998036 156.895814 
L 295.826087 156.536342 
L 298.310238 154.988114 
L 299.966339 153.45542 
L 301.62244 151.668101 
L 304.106592 149.279221 
L 305.762693 148.34423 
L 306.590743 148.019819 
L 309.074895 147.545952 
L 309.902945 147.815196 
L 310.730996 148.213561 
L 311.559046 148.958911 
L 313.215147 150.070612 
L 315.699299 151.742586 
L 316.527349 152.079488 
L 319.839551 152.393148 
L 320.667602 152.325073 
L 322.323703 151.573435 
L 323.151753 150.773754 
L 324.807854 149.555203 
L 328.120056 146.679841 
L 330.604208 145.297735 
L 331.432258 144.62782 
L 333.088359 143.74353 
L 336.400561 143.741831 
L 340.540813 144.772007 
L 341.368864 145.138113 
L 343.024965 147.070016 
L 343.853015 147.959824 
L 346.337167 149.915146 
L 347.165217 150.487918 
L 348.821318 151.343247 
L 349.649369 151.569583 
L 352.13352 151.947981 
L 354.617672 151.396863 
L 355.445722 151.182404 
L 357.101823 151.216961 
L 357.929874 151.29779 
L 359.585975 151.857148 
L 360.414025 152.324868 
L 363.726227 154.668756 
L 367.038429 156.513025 
L 368.69453 157.083951 
L 371.178682 157.420317 
L 376.975035 157.649054 
L 380.287237 157.498577 
L 382.771388 157.155203 
L 385.25554 156.534925 
L 386.911641 156.201303 
L 387.739691 155.949141 
L 390.223843 155.501925 
L 392.707994 154.929296 
L 400.160449 153.714053 
L 403.472651 154.099981 
L 405.128752 154.109931 
L 405.956802 154.005143 
L 407.612903 154.360145 
L 409.269004 154.733551 
L 410.925105 154.794393 
L 413.409257 154.377259 
L 415.065358 154.026258 
L 415.893408 153.911891 
L 416.721459 153.942077 
L 417.549509 153.792251 
L 420.033661 153.028444 
L 420.861711 152.977484 
L 422.517812 153.092309 
L 423.345863 153.314144 
L 424.173913 153.792599 
L 428.314165 157.103498 
L 430.798317 159.453683 
L 433.282468 161.460428 
L 434.110519 162.004598 
L 436.59467 162.580622 
L 440.734923 163.848251 
L 442.391024 164.302982 
L 444.875175 165.098778 
L 445.703226 165.389861 
L 447.359327 165.732545 
L 449.015428 166.386411 
L 450.671529 166.8717 
L 452.32763 167.098063 
L 453.983731 167.58192 
L 456.467882 167.897872 
L 459.780084 167.895011 
L 462.264236 167.437382 
L 463.920337 166.884085 
L 465.576438 165.934558 
L 467.232539 164.550691 
L 468.060589 163.687437 
L 468.88864 162.593515 
L 472.200842 156.976056 
L 476.341094 149.489169 
L 477.997195 147.106263 
L 478.825245 146.192504 
L 479.653296 145.695591 
L 483.793548 145.730343 
L 485.449649 146.239999 
L 487.10575 146.863327 
L 488.761851 147.655769 
L 489.589902 147.951336 
L 490.417952 148.108297 
L 491.246003 147.986227 
L 492.074053 147.630734 
L 494.558205 147.014825 
L 496.214306 146.380362 
L 498.698457 145.326432 
L 503.66676 143.632577 
L 506.150912 142.209128 
L 506.978962 141.867096 
L 509.463114 141.607225 
L 510.291164 141.642649 
L 511.119215 141.825122 
L 511.947265 142.400757 
L 512.775316 143.124088 
L 513.603366 144.052504 
L 514.431417 145.18147 
L 515.259467 146.596567 
L 521.05582 158.10494 
L 521.883871 159.475021 
L 523.539972 161.654219 
L 525.196073 163.278164 
L 526.024123 163.85905 
L 527.680224 164.627705 
L 533.476578 166.360953 
L 535.960729 166.736648 
L 537.61683 166.774073 
L 539.272931 166.434949 
L 540.929032 165.752481 
L 542.585133 164.821423 
L 545.069285 162.839466 
L 546.725386 161.362156 
L 549.209537 158.717022 
L 550.865638 156.516082 
L 553.34979 152.812235 
L 558.318093 145.138373 
L 559.974194 142.775296 
L 560.802244 141.984808 
L 565.770547 138.436649 
L 567.426648 136.701128 
L 568.254698 135.68062 
L 569.082749 134.448809 
L 570.73885 131.345898 
L 572.394951 127.224154 
L 574.879102 120.163058 
L 579.847405 105.112152 
L 582.331557 99.39663 
L 583.159607 97.731841 
L 583.987658 96.320863 
L 584.815708 95.131687 
L 585.643759 94.462286 
L 586.471809 94.193896 
L 587.29986 94.421708 
L 588.12791 94.995144 
L 588.955961 95.947672 
L 589.784011 97.079941 
L 590.612062 98.425355 
L 592.268163 101.779409 
L 595.580365 109.773359 
L 596.408415 111.437649 
L 597.236466 112.778898 
L 598.064516 113.773857 
L 598.892567 114.377552 
L 600.548668 115.118898 
L 601.376718 115.339178 
L 605.516971 115.738545 
L 608.001122 116.451335 
L 608.829173 116.952978 
L 609.657223 117.824293 
L 611.313324 119.866524 
L 612.969425 121.554782 
L 613.797475 122.302871 
L 614.625526 123.272286 
L 615.453576 124.070357 
L 618.765778 126.335919 
L 619.593829 126.719186 
L 620.421879 126.878007 
L 622.906031 126.716803 
L 623.734081 126.540414 
L 624.562132 126.122964 
L 625.390182 125.139815 
L 627.874334 121.251542 
L 628.702384 119.464294 
L 630.358485 114.984777 
L 631.186536 112.338093 
L 632.842637 105.932234 
L 634.498738 98.155483 
L 639.467041 72.299078 
L 646.091445 34.589631 
L 646.091445 34.589631 
" style="fill:none;stroke:#008000;stroke-linecap:square;stroke-width:1.5;"/>
   </g>
   <g id="line2d_36">
    <path clip-path="url(#p0c4bbb7a70)" d="M 650.231697 172.8 
L 650.231697 25.92 
" style="fill:none;stroke:#ff0000;stroke-linecap:square;stroke-width:0.5;"/>
   </g>
   <g id="patch_3">
    <path d="M 64.8 172.8 
L 64.8 25.92 
" style="fill:none;stroke:#000000;stroke-linecap:square;stroke-linejoin:miter;stroke-width:0.8;"/>
   </g>
   <g id="patch_4">
    <path d="M 655.2 172.8 
L 655.2 25.92 
" style="fill:none;stroke:#000000;stroke-linecap:square;stroke-linejoin:miter;stroke-width:0.8;"/>
   </g>
   <g id="patch_5">
    <path d="M 64.8 172.8 
L 655.2 172.8 
" style="fill:none;stroke:#000000;stroke-linecap:square;stroke-linejoin:miter;stroke-width:0.8;"/>
   </g>
   <g id="patch_6">
    <path d="M 64.8 25.92 
L 655.2 25.92 
" style="fill:none;stroke:#000000;stroke-linecap:square;stroke-linejoin:miter;stroke-width:0.8;"/>
   </g>
   <g id="text_20">
    <!-- Concentratie SARS-CoV-2 RNA in rioolwater per 100.000 inwoners -->
    <g transform="translate(161.8425 19.92)scale(0.12 -0.12)">
     <defs>
      <path d="M 64.40625 67.28125 
L 64.40625 56.890625 
Q 59.421875 61.53125 53.78125 63.8125 
Q 48.140625 66.109375 41.796875 66.109375 
Q 29.296875 66.109375 22.65625 58.46875 
Q 16.015625 50.828125 16.015625 36.375 
Q 16.015625 21.96875 22.65625 14.328125 
Q 29.296875 6.6875 41.796875 6.6875 
Q 48.140625 6.6875 53.78125 8.984375 
Q 59.421875 11.28125 64.40625 15.921875 
L 64.40625 5.609375 
Q 59.234375 2.09375 53.4375 0.328125 
Q 47.65625 -1.421875 41.21875 -1.421875 
Q 24.65625 -1.421875 15.125 8.703125 
Q 5.609375 18.84375 5.609375 36.375 
Q 5.609375 53.953125 15.125 64.078125 
Q 24.65625 74.21875 41.21875 74.21875 
Q 47.75 74.21875 53.53125 72.484375 
Q 59.328125 70.75 64.40625 67.28125 
z
" id="DejaVuSans-67"/>
      <path d="M 48.78125 52.59375 
L 48.78125 44.1875 
Q 44.96875 46.296875 41.140625 47.34375 
Q 37.3125 48.390625 33.40625 48.390625 
Q 24.65625 48.390625 19.8125 42.84375 
Q 14.984375 37.3125 14.984375 27.296875 
Q 14.984375 17.28125 19.8125 11.734375 
Q 24.65625 6.203125 33.40625 6.203125 
Q 37.3125 6.203125 41.140625 7.25 
Q 44.96875 8.296875 48.78125 10.40625 
L 48.78125 2.09375 
Q 45.015625 0.34375 40.984375 -0.53125 
Q 36.96875 -1.421875 32.421875 -1.421875 
Q 20.0625 -1.421875 12.78125 6.34375 
Q 5.515625 14.109375 5.515625 27.296875 
Q 5.515625 40.671875 12.859375 48.328125 
Q 20.21875 56 33.015625 56 
Q 37.15625 56 41.109375 55.140625 
Q 45.0625 54.296875 48.78125 52.59375 
z
" id="DejaVuSans-99"/>
      <path d="M 53.515625 70.515625 
L 53.515625 60.890625 
Q 47.90625 63.578125 42.921875 64.890625 
Q 37.9375 66.21875 33.296875 66.21875 
Q 25.25 66.21875 20.875 63.09375 
Q 16.5 59.96875 16.5 54.203125 
Q 16.5 49.359375 19.40625 46.890625 
Q 22.3125 44.4375 30.421875 42.921875 
L 36.375 41.703125 
Q 47.40625 39.59375 52.65625 34.296875 
Q 57.90625 29 57.90625 20.125 
Q 57.90625 9.515625 50.796875 4.046875 
Q 43.703125 -1.421875 29.984375 -1.421875 
Q 24.8125 -1.421875 18.96875 -0.25 
Q 13.140625 0.921875 6.890625 3.21875 
L 6.890625 13.375 
Q 12.890625 10.015625 18.65625 8.296875 
Q 24.421875 6.59375 29.984375 6.59375 
Q 38.421875 6.59375 43.015625 9.90625 
Q 47.609375 13.234375 47.609375 19.390625 
Q 47.609375 24.75 44.3125 27.78125 
Q 41.015625 30.8125 33.5 32.328125 
L 27.484375 33.5 
Q 16.453125 35.6875 11.515625 40.375 
Q 6.59375 45.0625 6.59375 53.421875 
Q 6.59375 63.09375 13.40625 68.65625 
Q 20.21875 74.21875 32.171875 74.21875 
Q 37.3125 74.21875 42.625 73.28125 
Q 47.953125 72.359375 53.515625 70.515625 
z
" id="DejaVuSans-83"/>
      <path d="M 34.1875 63.1875 
L 20.796875 26.90625 
L 47.609375 26.90625 
z
M 28.609375 72.90625 
L 39.796875 72.90625 
L 67.578125 0 
L 57.328125 0 
L 50.6875 18.703125 
L 17.828125 18.703125 
L 11.1875 0 
L 0.78125 0 
z
" id="DejaVuSans-65"/>
      <path d="M 44.390625 34.1875 
Q 47.5625 33.109375 50.5625 29.59375 
Q 53.5625 26.078125 56.59375 19.921875 
L 66.609375 0 
L 56 0 
L 46.6875 18.703125 
Q 43.0625 26.03125 39.671875 28.421875 
Q 36.28125 30.8125 30.421875 30.8125 
L 19.671875 30.8125 
L 19.671875 0 
L 9.8125 0 
L 9.8125 72.90625 
L 32.078125 72.90625 
Q 44.578125 72.90625 50.734375 67.671875 
Q 56.890625 62.453125 56.890625 51.90625 
Q 56.890625 45.015625 53.6875 40.46875 
Q 50.484375 35.9375 44.390625 34.1875 
z
M 19.671875 64.796875 
L 19.671875 38.921875 
L 32.078125 38.921875 
Q 39.203125 38.921875 42.84375 42.21875 
Q 46.484375 45.515625 46.484375 51.90625 
Q 46.484375 58.296875 42.84375 61.546875 
Q 39.203125 64.796875 32.078125 64.796875 
z
" id="DejaVuSans-82"/>
      <path d="M 28.609375 0 
L 0.78125 72.90625 
L 11.078125 72.90625 
L 34.1875 11.53125 
L 57.328125 72.90625 
L 67.578125 72.90625 
L 39.796875 0 
z
" id="DejaVuSans-86"/>
      <path d="M 9.8125 72.90625 
L 23.09375 72.90625 
L 55.421875 11.921875 
L 55.421875 72.90625 
L 64.984375 72.90625 
L 64.984375 0 
L 51.703125 0 
L 19.390625 60.984375 
L 19.390625 0 
L 9.8125 0 
z
" id="DejaVuSans-78"/>
      <path d="M 10.6875 12.40625 
L 21 12.40625 
L 21 0 
L 10.6875 0 
z
" id="DejaVuSans-46"/>
     </defs>
     <use xlink:href="#DejaVuSans-67"/>
     <use x="69.824219" xlink:href="#DejaVuSans-111"/>
     <use x="131.005859" xlink:href="#DejaVuSans-110"/>
     <use x="194.384766" xlink:href="#DejaVuSans-99"/>
     <use x="249.365234" xlink:href="#DejaVuSans-101"/>
     <use x="310.888672" xlink:href="#DejaVuSans-110"/>
     <use x="374.267578" xlink:href="#DejaVuSans-116"/>
     <use x="413.476562" xlink:href="#DejaVuSans-114"/>
     <use x="454.589844" xlink:href="#DejaVuSans-97"/>
     <use x="515.869141" xlink:href="#DejaVuSans-116"/>
     <use x="555.078125" xlink:href="#DejaVuSans-105"/>
     <use x="582.861328" xlink:href="#DejaVuSans-101"/>
     <use x="644.384766" xlink:href="#DejaVuSans-32"/>
     <use x="676.171875" xlink:href="#DejaVuSans-83"/>
     <use x="741.523438" xlink:href="#DejaVuSans-65"/>
     <use x="809.931641" xlink:href="#DejaVuSans-82"/>
     <use x="879.414062" xlink:href="#DejaVuSans-83"/>
     <use x="942.890625" xlink:href="#DejaVuSans-45"/>
     <use x="978.974609" xlink:href="#DejaVuSans-67"/>
     <use x="1048.798828" xlink:href="#DejaVuSans-111"/>
     <use x="1109.980469" xlink:href="#DejaVuSans-86"/>
     <use x="1172.513672" xlink:href="#DejaVuSans-45"/>
     <use x="1208.597656" xlink:href="#DejaVuSans-50"/>
     <use x="1272.220703" xlink:href="#DejaVuSans-32"/>
     <use x="1304.007812" xlink:href="#DejaVuSans-82"/>
     <use x="1373.490234" xlink:href="#DejaVuSans-78"/>
     <use x="1448.294922" xlink:href="#DejaVuSans-65"/>
     <use x="1516.703125" xlink:href="#DejaVuSans-32"/>
     <use x="1548.490234" xlink:href="#DejaVuSans-105"/>
     <use x="1576.273438" xlink:href="#DejaVuSans-110"/>
     <use x="1639.652344" xlink:href="#DejaVuSans-32"/>
     <use x="1671.439453" xlink:href="#DejaVuSans-114"/>
     <use x="1712.552734" xlink:href="#DejaVuSans-105"/>
     <use x="1740.335938" xlink:href="#DejaVuSans-111"/>
     <use x="1801.517578" xlink:href="#DejaVuSans-111"/>
     <use x="1862.699219" xlink:href="#DejaVuSans-108"/>
     <use x="1890.482422" xlink:href="#DejaVuSans-119"/>
     <use x="1972.269531" xlink:href="#DejaVuSans-97"/>
     <use x="2033.548828" xlink:href="#DejaVuSans-116"/>
     <use x="2072.757812" xlink:href="#DejaVuSans-101"/>
     <use x="2134.28125" xlink:href="#DejaVuSans-114"/>
     <use x="2175.394531" xlink:href="#DejaVuSans-32"/>
     <use x="2207.181641" xlink:href="#DejaVuSans-112"/>
     <use x="2270.658203" xlink:href="#DejaVuSans-101"/>
     <use x="2332.181641" xlink:href="#DejaVuSans-114"/>
     <use x="2373.294922" xlink:href="#DejaVuSans-32"/>
     <use x="2405.082031" xlink:href="#DejaVuSans-49"/>
     <use x="2468.705078" xlink:href="#DejaVuSans-48"/>
     <use x="2532.328125" xlink:href="#DejaVuSans-48"/>
     <use x="2595.951172" xlink:href="#DejaVuSans-46"/>
     <use x="2627.738281" xlink:href="#DejaVuSans-48"/>
     <use x="2691.361328" xlink:href="#DejaVuSans-48"/>
     <use x="2754.984375" xlink:href="#DejaVuSans-48"/>
     <use x="2818.607422" xlink:href="#DejaVuSans-32"/>
     <use x="2850.394531" xlink:href="#DejaVuSans-105"/>
     <use x="2878.177734" xlink:href="#DejaVuSans-110"/>
     <use x="2941.556641" xlink:href="#DejaVuSans-119"/>
     <use x="3023.34375" xlink:href="#DejaVuSans-111"/>
     <use x="3084.525391" xlink:href="#DejaVuSans-110"/>
     <use x="3147.904297" xlink:href="#DejaVuSans-101"/>
     <use x="3209.427734" xlink:href="#DejaVuSans-114"/>
     <use x="3250.541016" xlink:href="#DejaVuSans-115"/>
    </g>
   </g>
   <g id="legend_1">
    <g id="patch_7">
     <path d="M 71.8 48.598125 
L 344.44375 48.598125 
Q 346.44375 48.598125 346.44375 46.598125 
L 346.44375 32.92 
Q 346.44375 30.92 344.44375 30.92 
L 71.8 30.92 
Q 69.8 30.92 69.8 32.92 
L 69.8 46.598125 
Q 69.8 48.598125 71.8 48.598125 
z
" style="fill:#ffffff;opacity:0.8;stroke:#cccccc;stroke-linejoin:miter;"/>
    </g>
    <g id="line2d_37">
     <path d="M 73.8 39.018437 
L 93.8 39.018437 
" style="fill:none;stroke:#008000;stroke-linecap:square;stroke-width:1.5;"/>
    </g>
    <g id="line2d_38"/>
    <g id="text_21">
     <!-- RNA deeltjes per 100.000 inwoners (gemiddeld) -->
     <g transform="translate(101.8 42.518437)scale(0.1 -0.1)">
      <defs>
       <path d="M 45.40625 46.390625 
L 45.40625 75.984375 
L 54.390625 75.984375 
L 54.390625 0 
L 45.40625 0 
L 45.40625 8.203125 
Q 42.578125 3.328125 38.25 0.953125 
Q 33.9375 -1.421875 27.875 -1.421875 
Q 17.96875 -1.421875 11.734375 6.484375 
Q 5.515625 14.40625 5.515625 27.296875 
Q 5.515625 40.1875 11.734375 48.09375 
Q 17.96875 56 27.875 56 
Q 33.9375 56 38.25 53.625 
Q 42.578125 51.265625 45.40625 46.390625 
z
M 14.796875 27.296875 
Q 14.796875 17.390625 18.875 11.75 
Q 22.953125 6.109375 30.078125 6.109375 
Q 37.203125 6.109375 41.296875 11.75 
Q 45.40625 17.390625 45.40625 27.296875 
Q 45.40625 37.203125 41.296875 42.84375 
Q 37.203125 48.484375 30.078125 48.484375 
Q 22.953125 48.484375 18.875 42.84375 
Q 14.796875 37.203125 14.796875 27.296875 
z
" id="DejaVuSans-100"/>
       <path d="M 31 75.875 
Q 24.46875 64.65625 21.28125 53.65625 
Q 18.109375 42.671875 18.109375 31.390625 
Q 18.109375 20.125 21.3125 9.0625 
Q 24.515625 -2 31 -13.1875 
L 23.1875 -13.1875 
Q 15.875 -1.703125 12.234375 9.375 
Q 8.59375 20.453125 8.59375 31.390625 
Q 8.59375 42.28125 12.203125 53.3125 
Q 15.828125 64.359375 23.1875 75.875 
z
" id="DejaVuSans-40"/>
       <path d="M 45.40625 27.984375 
Q 45.40625 37.75 41.375 43.109375 
Q 37.359375 48.484375 30.078125 48.484375 
Q 22.859375 48.484375 18.828125 43.109375 
Q 14.796875 37.75 14.796875 27.984375 
Q 14.796875 18.265625 18.828125 12.890625 
Q 22.859375 7.515625 30.078125 7.515625 
Q 37.359375 7.515625 41.375 12.890625 
Q 45.40625 18.265625 45.40625 27.984375 
z
M 54.390625 6.78125 
Q 54.390625 -7.171875 48.1875 -13.984375 
Q 42 -20.796875 29.203125 -20.796875 
Q 24.46875 -20.796875 20.265625 -20.09375 
Q 16.0625 -19.390625 12.109375 -17.921875 
L 12.109375 -9.1875 
Q 16.0625 -11.328125 19.921875 -12.34375 
Q 23.78125 -13.375 27.78125 -13.375 
Q 36.625 -13.375 41.015625 -8.765625 
Q 45.40625 -4.15625 45.40625 5.171875 
L 45.40625 9.625 
Q 42.625 4.78125 38.28125 2.390625 
Q 33.9375 0 27.875 0 
Q 17.828125 0 11.671875 7.65625 
Q 5.515625 15.328125 5.515625 27.984375 
Q 5.515625 40.671875 11.671875 48.328125 
Q 17.828125 56 27.875 56 
Q 33.9375 56 38.28125 53.609375 
Q 42.625 51.21875 45.40625 46.390625 
L 45.40625 54.6875 
L 54.390625 54.6875 
z
" id="DejaVuSans-103"/>
       <path d="M 8.015625 75.875 
L 15.828125 75.875 
Q 23.140625 64.359375 26.78125 53.3125 
Q 30.421875 42.28125 30.421875 31.390625 
Q 30.421875 20.453125 26.78125 9.375 
Q 23.140625 -1.703125 15.828125 -13.1875 
L 8.015625 -13.1875 
Q 14.5 -2 17.703125 9.0625 
Q 20.90625 20.125 20.90625 31.390625 
Q 20.90625 42.671875 17.703125 53.65625 
Q 14.5 64.65625 8.015625 75.875 
z
" id="DejaVuSans-41"/>
      </defs>
      <use xlink:href="#DejaVuSans-82"/>
      <use x="69.482422" xlink:href="#DejaVuSans-78"/>
      <use x="144.287109" xlink:href="#DejaVuSans-65"/>
      <use x="212.695312" xlink:href="#DejaVuSans-32"/>
      <use x="244.482422" xlink:href="#DejaVuSans-100"/>
      <use x="307.958984" xlink:href="#DejaVuSans-101"/>
      <use x="369.482422" xlink:href="#DejaVuSans-101"/>
      <use x="431.005859" xlink:href="#DejaVuSans-108"/>
      <use x="458.789062" xlink:href="#DejaVuSans-116"/>
      <use x="497.998047" xlink:href="#DejaVuSans-106"/>
      <use x="525.78125" xlink:href="#DejaVuSans-101"/>
      <use x="587.304688" xlink:href="#DejaVuSans-115"/>
      <use x="639.404297" xlink:href="#DejaVuSans-32"/>
      <use x="671.191406" xlink:href="#DejaVuSans-112"/>
      <use x="734.667969" xlink:href="#DejaVuSans-101"/>
      <use x="796.191406" xlink:href="#DejaVuSans-114"/>
      <use x="837.304688" xlink:href="#DejaVuSans-32"/>
      <use x="869.091797" xlink:href="#DejaVuSans-49"/>
      <use x="932.714844" xlink:href="#DejaVuSans-48"/>
      <use x="996.337891" xlink:href="#DejaVuSans-48"/>
      <use x="1059.960938" xlink:href="#DejaVuSans-46"/>
      <use x="1091.748047" xlink:href="#DejaVuSans-48"/>
      <use x="1155.371094" xlink:href="#DejaVuSans-48"/>
      <use x="1218.994141" xlink:href="#DejaVuSans-48"/>
      <use x="1282.617188" xlink:href="#DejaVuSans-32"/>
      <use x="1314.404297" xlink:href="#DejaVuSans-105"/>
      <use x="1342.1875" xlink:href="#DejaVuSans-110"/>
      <use x="1405.566406" xlink:href="#DejaVuSans-119"/>
      <use x="1487.353516" xlink:href="#DejaVuSans-111"/>
      <use x="1548.535156" xlink:href="#DejaVuSans-110"/>
      <use x="1611.914062" xlink:href="#DejaVuSans-101"/>
      <use x="1673.4375" xlink:href="#DejaVuSans-114"/>
      <use x="1714.550781" xlink:href="#DejaVuSans-115"/>
      <use x="1766.650391" xlink:href="#DejaVuSans-32"/>
      <use x="1798.4375" xlink:href="#DejaVuSans-40"/>
      <use x="1837.451172" xlink:href="#DejaVuSans-103"/>
      <use x="1900.927734" xlink:href="#DejaVuSans-101"/>
      <use x="1962.451172" xlink:href="#DejaVuSans-109"/>
      <use x="2059.863281" xlink:href="#DejaVuSans-105"/>
      <use x="2087.646484" xlink:href="#DejaVuSans-100"/>
      <use x="2151.123047" xlink:href="#DejaVuSans-100"/>
      <use x="2214.599609" xlink:href="#DejaVuSans-101"/>
      <use x="2276.123047" xlink:href="#DejaVuSans-108"/>
      <use x="2303.90625" xlink:href="#DejaVuSans-100"/>
      <use x="2367.382812" xlink:href="#DejaVuSans-41"/>
     </g>
    </g>
   </g>
   <g id="text_22">
    <g id="patch_8">
     <path d="M 645.141697 177.47125 
L 655.321697 177.47125 
Q 656.121697 177.47125 656.121697 176.67125 
L 656.121697 168.92875 
Q 656.121697 168.12875 655.321697 168.12875 
L 645.141697 168.12875 
Q 644.341697 168.12875 644.341697 168.92875 
L 644.341697 176.67125 
Q 644.341697 177.47125 645.141697 177.47125 
z
" style="fill:#ff0000;stroke:#ff0000;stroke-linejoin:miter;"/>
    </g>
    <!-- 06 -->
    <g style="fill:#ffffff;" transform="translate(645.141697 175.0075)scale(0.08 -0.08)">
     <defs>
      <path d="M 33.015625 40.375 
Q 26.375 40.375 22.484375 35.828125 
Q 18.609375 31.296875 18.609375 23.390625 
Q 18.609375 15.53125 22.484375 10.953125 
Q 26.375 6.390625 33.015625 6.390625 
Q 39.65625 6.390625 43.53125 10.953125 
Q 47.40625 15.53125 47.40625 23.390625 
Q 47.40625 31.296875 43.53125 35.828125 
Q 39.65625 40.375 33.015625 40.375 
z
M 52.59375 71.296875 
L 52.59375 62.3125 
Q 48.875 64.0625 45.09375 64.984375 
Q 41.3125 65.921875 37.59375 65.921875 
Q 27.828125 65.921875 22.671875 59.328125 
Q 17.53125 52.734375 16.796875 39.40625 
Q 19.671875 43.65625 24.015625 45.921875 
Q 28.375 48.1875 33.59375 48.1875 
Q 44.578125 48.1875 50.953125 41.515625 
Q 57.328125 34.859375 57.328125 23.390625 
Q 57.328125 12.15625 50.6875 5.359375 
Q 44.046875 -1.421875 33.015625 -1.421875 
Q 20.359375 -1.421875 13.671875 8.265625 
Q 6.984375 17.96875 6.984375 36.375 
Q 6.984375 53.65625 15.1875 63.9375 
Q 23.390625 74.21875 37.203125 74.21875 
Q 40.921875 74.21875 44.703125 73.484375 
Q 48.484375 72.75 52.59375 71.296875 
z
" id="DejaVuSans-54"/>
     </defs>
     <use xlink:href="#DejaVuSans-48"/>
     <use x="63.623047" xlink:href="#DejaVuSans-54"/>
    </g>
   </g>
  </g>
  <g id="text_23">
   <!-- Gegenereerd op 2022-02-06 15:46 o.b.v. data tot 2022-02-01. -->
   <g style="fill:#808080;" transform="translate(7.2 204.88175)scale(0.08 -0.08)">
    <defs>
     <path d="M 59.515625 10.40625 
L 59.515625 29.984375 
L 43.40625 29.984375 
L 43.40625 38.09375 
L 69.28125 38.09375 
L 69.28125 6.78125 
Q 63.578125 2.734375 56.6875 0.65625 
Q 49.8125 -1.421875 42 -1.421875 
Q 24.90625 -1.421875 15.25 8.5625 
Q 5.609375 18.5625 5.609375 36.375 
Q 5.609375 54.25 15.25 64.234375 
Q 24.90625 74.21875 42 74.21875 
Q 49.125 74.21875 55.546875 72.453125 
Q 61.96875 70.703125 67.390625 67.28125 
L 67.390625 56.78125 
Q 61.921875 61.421875 55.765625 63.765625 
Q 49.609375 66.109375 42.828125 66.109375 
Q 29.4375 66.109375 22.71875 58.640625 
Q 16.015625 51.171875 16.015625 36.375 
Q 16.015625 21.625 22.71875 14.15625 
Q 29.4375 6.6875 42.828125 6.6875 
Q 48.046875 6.6875 52.140625 7.59375 
Q 56.25 8.5 59.515625 10.40625 
z
" id="DejaVuSans-71"/>
     <path d="M 11.71875 12.40625 
L 22.015625 12.40625 
L 22.015625 0 
L 11.71875 0 
z
M 11.71875 51.703125 
L 22.015625 51.703125 
L 22.015625 39.3125 
L 11.71875 39.3125 
z
" id="DejaVuSans-58"/>
     <path d="M 48.6875 27.296875 
Q 48.6875 37.203125 44.609375 42.84375 
Q 40.53125 48.484375 33.40625 48.484375 
Q 26.265625 48.484375 22.1875 42.84375 
Q 18.109375 37.203125 18.109375 27.296875 
Q 18.109375 17.390625 22.1875 11.75 
Q 26.265625 6.109375 33.40625 6.109375 
Q 40.53125 6.109375 44.609375 11.75 
Q 48.6875 17.390625 48.6875 27.296875 
z
M 18.109375 46.390625 
Q 20.953125 51.265625 25.265625 53.625 
Q 29.59375 56 35.59375 56 
Q 45.5625 56 51.78125 48.09375 
Q 58.015625 40.1875 58.015625 27.296875 
Q 58.015625 14.40625 51.78125 6.484375 
Q 45.5625 -1.421875 35.59375 -1.421875 
Q 29.59375 -1.421875 25.265625 0.953125 
Q 20.953125 3.328125 18.109375 8.203125 
L 18.109375 0 
L 9.078125 0 
L 9.078125 75.984375 
L 18.109375 75.984375 
z
" id="DejaVuSans-98"/>
     <path d="M 2.984375 54.6875 
L 12.5 54.6875 
L 29.59375 8.796875 
L 46.6875 54.6875 
L 56.203125 54.6875 
L 35.6875 0 
L 23.484375 0 
z
" id="DejaVuSans-118"/>
    </defs>
    <use xlink:href="#DejaVuSans-71"/>
    <use x="77.490234" xlink:href="#DejaVuSans-101"/>
    <use x="139.013672" xlink:href="#DejaVuSans-103"/>
    <use x="202.490234" xlink:href="#DejaVuSans-101"/>
    <use x="264.013672" xlink:href="#DejaVuSans-110"/>
    <use x="327.392578" xlink:href="#DejaVuSans-101"/>
    <use x="388.916016" xlink:href="#DejaVuSans-114"/>
    <use x="427.779297" xlink:href="#DejaVuSans-101"/>
    <use x="489.302734" xlink:href="#DejaVuSans-101"/>
    <use x="550.826172" xlink:href="#DejaVuSans-114"/>
    <use x="590.189453" xlink:href="#DejaVuSans-100"/>
    <use x="653.666016" xlink:href="#DejaVuSans-32"/>
    <use x="685.453125" xlink:href="#DejaVuSans-111"/>
    <use x="746.634766" xlink:href="#DejaVuSans-112"/>
    <use x="810.111328" xlink:href="#DejaVuSans-32"/>
    <use x="841.898438" xlink:href="#DejaVuSans-50"/>
    <use x="905.521484" xlink:href="#DejaVuSans-48"/>
    <use x="969.144531" xlink:href="#DejaVuSans-50"/>
    <use x="1032.767578" xlink:href="#DejaVuSans-50"/>
    <use x="1096.390625" xlink:href="#DejaVuSans-45"/>
    <use x="1132.474609" xlink:href="#DejaVuSans-48"/>
    <use x="1196.097656" xlink:href="#DejaVuSans-50"/>
    <use x="1259.720703" xlink:href="#DejaVuSans-45"/>
    <use x="1295.804688" xlink:href="#DejaVuSans-48"/>
    <use x="1359.427734" xlink:href="#DejaVuSans-54"/>
    <use x="1423.050781" xlink:href="#DejaVuSans-32"/>
    <use x="1454.837891" xlink:href="#DejaVuSans-49"/>
    <use x="1518.460938" xlink:href="#DejaVuSans-53"/>
    <use x="1582.083984" xlink:href="#DejaVuSans-58"/>
    <use x="1615.775391" xlink:href="#DejaVuSans-52"/>
    <use x="1679.398438" xlink:href="#DejaVuSans-54"/>
    <use x="1743.021484" xlink:href="#DejaVuSans-32"/>
    <use x="1774.808594" xlink:href="#DejaVuSans-111"/>
    <use x="1834.240234" xlink:href="#DejaVuSans-46"/>
    <use x="1866.027344" xlink:href="#DejaVuSans-98"/>
    <use x="1929.503906" xlink:href="#DejaVuSans-46"/>
    <use x="1961.291016" xlink:href="#DejaVuSans-118"/>
    <use x="2012.720703" xlink:href="#DejaVuSans-46"/>
    <use x="2044.507812" xlink:href="#DejaVuSans-32"/>
    <use x="2076.294922" xlink:href="#DejaVuSans-100"/>
    <use x="2139.771484" xlink:href="#DejaVuSans-97"/>
    <use x="2201.050781" xlink:href="#DejaVuSans-116"/>
    <use x="2240.259766" xlink:href="#DejaVuSans-97"/>
    <use x="2301.539062" xlink:href="#DejaVuSans-32"/>
    <use x="2333.326172" xlink:href="#DejaVuSans-116"/>
    <use x="2372.535156" xlink:href="#DejaVuSans-111"/>
    <use x="2433.716797" xlink:href="#DejaVuSans-116"/>
    <use x="2472.925781" xlink:href="#DejaVuSans-32"/>
    <use x="2504.712891" xlink:href="#DejaVuSans-50"/>
    <use x="2568.335938" xlink:href="#DejaVuSans-48"/>
    <use x="2631.958984" xlink:href="#DejaVuSans-50"/>
    <use x="2695.582031" xlink:href="#DejaVuSans-50"/>
    <use x="2759.205078" xlink:href="#DejaVuSans-45"/>
    <use x="2795.289062" xlink:href="#DejaVuSans-48"/>
    <use x="2858.912109" xlink:href="#DejaVuSans-50"/>
    <use x="2922.535156" xlink:href="#DejaVuSans-45"/>
    <use x="2958.619141" xlink:href="#DejaVuSans-48"/>
    <use x="3022.242188" xlink:href="#DejaVuSans-49"/>
    <use x="3085.865234" xlink:href="#DejaVuSans-46"/>
   </g>
   <!-- Source code: http://github.com/realrolfje/coronadata -->
   <g style="fill:#808080;" transform="translate(7.2 213.84)scale(0.08 -0.08)">
    <defs>
     <path d="M 54.890625 33.015625 
L 54.890625 0 
L 45.90625 0 
L 45.90625 32.71875 
Q 45.90625 40.484375 42.875 44.328125 
Q 39.84375 48.1875 33.796875 48.1875 
Q 26.515625 48.1875 22.3125 43.546875 
Q 18.109375 38.921875 18.109375 30.90625 
L 18.109375 0 
L 9.078125 0 
L 9.078125 75.984375 
L 18.109375 75.984375 
L 18.109375 46.1875 
Q 21.34375 51.125 25.703125 53.5625 
Q 30.078125 56 35.796875 56 
Q 45.21875 56 50.046875 50.171875 
Q 54.890625 44.34375 54.890625 33.015625 
z
" id="DejaVuSans-104"/>
     <path d="M 25.390625 72.90625 
L 33.6875 72.90625 
L 8.296875 -9.28125 
L 0 -9.28125 
z
" id="DejaVuSans-47"/>
     <path d="M 37.109375 75.984375 
L 37.109375 68.5 
L 28.515625 68.5 
Q 23.6875 68.5 21.796875 66.546875 
Q 19.921875 64.59375 19.921875 59.515625 
L 19.921875 54.6875 
L 34.71875 54.6875 
L 34.71875 47.703125 
L 19.921875 47.703125 
L 19.921875 0 
L 10.890625 0 
L 10.890625 47.703125 
L 2.296875 47.703125 
L 2.296875 54.6875 
L 10.890625 54.6875 
L 10.890625 58.5 
Q 10.890625 67.625 15.140625 71.796875 
Q 19.390625 75.984375 28.609375 75.984375 
z
" id="DejaVuSans-102"/>
    </defs>
    <use xlink:href="#DejaVuSans-83"/>
    <use x="63.476562" xlink:href="#DejaVuSans-111"/>
    <use x="124.658203" xlink:href="#DejaVuSans-117"/>
    <use x="188.037109" xlink:href="#DejaVuSans-114"/>
    <use x="226.900391" xlink:href="#DejaVuSans-99"/>
    <use x="281.880859" xlink:href="#DejaVuSans-101"/>
    <use x="343.404297" xlink:href="#DejaVuSans-32"/>
    <use x="375.191406" xlink:href="#DejaVuSans-99"/>
    <use x="430.171875" xlink:href="#DejaVuSans-111"/>
    <use x="491.353516" xlink:href="#DejaVuSans-100"/>
    <use x="554.830078" xlink:href="#DejaVuSans-101"/>
    <use x="616.353516" xlink:href="#DejaVuSans-58"/>
    <use x="650.044922" xlink:href="#DejaVuSans-32"/>
    <use x="681.832031" xlink:href="#DejaVuSans-104"/>
    <use x="745.210938" xlink:href="#DejaVuSans-116"/>
    <use x="784.419922" xlink:href="#DejaVuSans-116"/>
    <use x="823.628906" xlink:href="#DejaVuSans-112"/>
    <use x="887.105469" xlink:href="#DejaVuSans-58"/>
    <use x="920.796875" xlink:href="#DejaVuSans-47"/>
    <use x="954.488281" xlink:href="#DejaVuSans-47"/>
    <use x="988.179688" xlink:href="#DejaVuSans-103"/>
    <use x="1051.65625" xlink:href="#DejaVuSans-105"/>
    <use x="1079.439453" xlink:href="#DejaVuSans-116"/>
    <use x="1118.648438" xlink:href="#DejaVuSans-104"/>
    <use x="1182.027344" xlink:href="#DejaVuSans-117"/>
    <use x="1245.40625" xlink:href="#DejaVuSans-98"/>
    <use x="1308.882812" xlink:href="#DejaVuSans-46"/>
    <use x="1340.669922" xlink:href="#DejaVuSans-99"/>
    <use x="1395.650391" xlink:href="#DejaVuSans-111"/>
    <use x="1456.832031" xlink:href="#DejaVuSans-109"/>
    <use x="1554.244141" xlink:href="#DejaVuSans-47"/>
    <use x="1587.935547" xlink:href="#DejaVuSans-114"/>
    <use x="1626.798828" xlink:href="#DejaVuSans-101"/>
    <use x="1688.322266" xlink:href="#DejaVuSans-97"/>
    <use x="1749.601562" xlink:href="#DejaVuSans-108"/>
    <use x="1777.384766" xlink:href="#DejaVuSans-114"/>
    <use x="1816.248047" xlink:href="#DejaVuSans-111"/>
    <use x="1877.429688" xlink:href="#DejaVuSans-108"/>
    <use x="1905.212891" xlink:href="#DejaVuSans-102"/>
    <use x="1940.417969" xlink:href="#DejaVuSans-106"/>
    <use x="1968.201172" xlink:href="#DejaVuSans-101"/>
    <use x="2029.724609" xlink:href="#DejaVuSans-47"/>
    <use x="2063.416016" xlink:href="#DejaVuSans-99"/>
    <use x="2118.396484" xlink:href="#DejaVuSans-111"/>
    <use x="2179.578125" xlink:href="#DejaVuSans-114"/>
    <use x="2218.441406" xlink:href="#DejaVuSans-111"/>
    <use x="2279.623047" xlink:href="#DejaVuSans-110"/>
    <use x="2343.001953" xlink:href="#DejaVuSans-97"/>
    <use x="2404.28125" xlink:href="#DejaVuSans-100"/>
    <use x="2467.757812" xlink:href="#DejaVuSans-97"/>
    <use x="2529.037109" xlink:href="#DejaVuSans-116"/>
    <use x="2568.246094" xlink:href="#DejaVuSans-97"/>
   </g>
  </g>
  <g id="text_24">
   <!-- Bron: https://data.rivm.nl/covid-19 -->
   <g style="fill:#808080;" transform="translate(574.79875 213.84)scale(0.08 -0.08)">
    <defs>
     <path d="M 19.671875 34.8125 
L 19.671875 8.109375 
L 35.5 8.109375 
Q 43.453125 8.109375 47.28125 11.40625 
Q 51.125 14.703125 51.125 21.484375 
Q 51.125 28.328125 47.28125 31.5625 
Q 43.453125 34.8125 35.5 34.8125 
z
M 19.671875 64.796875 
L 19.671875 42.828125 
L 34.28125 42.828125 
Q 41.5 42.828125 45.03125 45.53125 
Q 48.578125 48.25 48.578125 53.8125 
Q 48.578125 59.328125 45.03125 62.0625 
Q 41.5 64.796875 34.28125 64.796875 
z
M 9.8125 72.90625 
L 35.015625 72.90625 
Q 46.296875 72.90625 52.390625 68.21875 
Q 58.5 63.53125 58.5 54.890625 
Q 58.5 48.1875 55.375 44.234375 
Q 52.25 40.28125 46.1875 39.3125 
Q 53.46875 37.75 57.5 32.78125 
Q 61.53125 27.828125 61.53125 20.40625 
Q 61.53125 10.640625 54.890625 5.3125 
Q 48.25 0 35.984375 0 
L 9.8125 0 
z
" id="DejaVuSans-66"/>
     <path d="M 10.984375 1.515625 
L 10.984375 10.5 
Q 14.703125 8.734375 18.5 7.8125 
Q 22.3125 6.890625 25.984375 6.890625 
Q 35.75 6.890625 40.890625 13.453125 
Q 46.046875 20.015625 46.78125 33.40625 
Q 43.953125 29.203125 39.59375 26.953125 
Q 35.25 24.703125 29.984375 24.703125 
Q 19.046875 24.703125 12.671875 31.3125 
Q 6.296875 37.9375 6.296875 49.421875 
Q 6.296875 60.640625 12.9375 67.421875 
Q 19.578125 74.21875 30.609375 74.21875 
Q 43.265625 74.21875 49.921875 64.515625 
Q 56.59375 54.828125 56.59375 36.375 
Q 56.59375 19.140625 48.40625 8.859375 
Q 40.234375 -1.421875 26.421875 -1.421875 
Q 22.703125 -1.421875 18.890625 -0.6875 
Q 15.09375 0.046875 10.984375 1.515625 
z
M 30.609375 32.421875 
Q 37.25 32.421875 41.125 36.953125 
Q 45.015625 41.5 45.015625 49.421875 
Q 45.015625 57.28125 41.125 61.84375 
Q 37.25 66.40625 30.609375 66.40625 
Q 23.96875 66.40625 20.09375 61.84375 
Q 16.21875 57.28125 16.21875 49.421875 
Q 16.21875 41.5 20.09375 36.953125 
Q 23.96875 32.421875 30.609375 32.421875 
z
" id="DejaVuSans-57"/>
    </defs>
    <use xlink:href="#DejaVuSans-66"/>
    <use x="68.603516" xlink:href="#DejaVuSans-114"/>
    <use x="107.466797" xlink:href="#DejaVuSans-111"/>
    <use x="168.648438" xlink:href="#DejaVuSans-110"/>
    <use x="232.027344" xlink:href="#DejaVuSans-58"/>
    <use x="265.71875" xlink:href="#DejaVuSans-32"/>
    <use x="297.505859" xlink:href="#DejaVuSans-104"/>
    <use x="360.884766" xlink:href="#DejaVuSans-116"/>
    <use x="400.09375" xlink:href="#DejaVuSans-116"/>
    <use x="439.302734" xlink:href="#DejaVuSans-112"/>
    <use x="502.779297" xlink:href="#DejaVuSans-115"/>
    <use x="554.878906" xlink:href="#DejaVuSans-58"/>
    <use x="588.570312" xlink:href="#DejaVuSans-47"/>
    <use x="622.261719" xlink:href="#DejaVuSans-47"/>
    <use x="655.953125" xlink:href="#DejaVuSans-100"/>
    <use x="719.429688" xlink:href="#DejaVuSans-97"/>
    <use x="780.708984" xlink:href="#DejaVuSans-116"/>
    <use x="819.917969" xlink:href="#DejaVuSans-97"/>
    <use x="881.197266" xlink:href="#DejaVuSans-46"/>
    <use x="912.984375" xlink:href="#DejaVuSans-114"/>
    <use x="954.097656" xlink:href="#DejaVuSans-105"/>
    <use x="981.880859" xlink:href="#DejaVuSans-118"/>
    <use x="1041.060547" xlink:href="#DejaVuSans-109"/>
    <use x="1138.472656" xlink:href="#DejaVuSans-46"/>
    <use x="1170.259766" xlink:href="#DejaVuSans-110"/>
    <use x="1233.638672" xlink:href="#DejaVuSans-108"/>
    <use x="1261.421875" xlink:href="#DejaVuSans-47"/>
    <use x="1295.113281" xlink:href="#DejaVuSans-99"/>
    <use x="1350.09375" xlink:href="#DejaVuSans-111"/>
    <use x="1411.275391" xlink:href="#DejaVuSans-118"/>
    <use x="1470.455078" xlink:href="#DejaVuSans-105"/>
    <use x="1498.238281" xlink:href="#DejaVuSans-100"/>
    <use x="1561.714844" xlink:href="#DejaVuSans-45"/>
    <use x="1597.798828" xlink:href="#DejaVuSans-49"/>
    <use x="1661.421875" xlink:href="#DejaVuSans-57"/>
   </g>
  </g>
  <g id="text_25">
   <g id="patch_9">
    <path d="M 68 66.14375 
L 206.835 66.14375 
L 206.835 50.40125 
L 68 50.40125 
z
" style="fill:#ffffff;stroke:#ffffff;stroke-linejoin:miter;"/>
   </g>
   <!-- (T = Terra = 1.000.000.000.000) -->
   <g style="fill:#808080;" transform="translate(72 60.48)scale(0.08 -0.08)">
    <defs>
     <path d="M 10.59375 45.40625 
L 73.1875 45.40625 
L 73.1875 37.203125 
L 10.59375 37.203125 
z
M 10.59375 25.484375 
L 73.1875 25.484375 
L 73.1875 17.1875 
L 10.59375 17.1875 
z
" id="DejaVuSans-61"/>
    </defs>
    <use xlink:href="#DejaVuSans-40"/>
    <use x="39.013672" xlink:href="#DejaVuSans-84"/>
    <use x="100.097656" xlink:href="#DejaVuSans-32"/>
    <use x="131.884766" xlink:href="#DejaVuSans-61"/>
    <use x="215.673828" xlink:href="#DejaVuSans-32"/>
    <use x="247.460938" xlink:href="#DejaVuSans-84"/>
    <use x="291.544922" xlink:href="#DejaVuSans-101"/>
    <use x="353.068359" xlink:href="#DejaVuSans-114"/>
    <use x="392.431641" xlink:href="#DejaVuSans-114"/>
    <use x="433.544922" xlink:href="#DejaVuSans-97"/>
    <use x="494.824219" xlink:href="#DejaVuSans-32"/>
    <use x="526.611328" xlink:href="#DejaVuSans-61"/>
    <use x="610.400391" xlink:href="#DejaVuSans-32"/>
    <use x="642.1875" xlink:href="#DejaVuSans-49"/>
    <use x="705.810547" xlink:href="#DejaVuSans-46"/>
    <use x="737.597656" xlink:href="#DejaVuSans-48"/>
    <use x="801.220703" xlink:href="#DejaVuSans-48"/>
    <use x="864.84375" xlink:href="#DejaVuSans-48"/>
    <use x="928.466797" xlink:href="#DejaVuSans-46"/>
    <use x="960.253906" xlink:href="#DejaVuSans-48"/>
    <use x="1023.876953" xlink:href="#DejaVuSans-48"/>
    <use x="1087.5" xlink:href="#DejaVuSans-48"/>
    <use x="1151.123047" xlink:href="#DejaVuSans-46"/>
    <use x="1182.910156" xlink:href="#DejaVuSans-48"/>
    <use x="1246.533203" xlink:href="#DejaVuSans-48"/>
    <use x="1310.15625" xlink:href="#DejaVuSans-48"/>
    <use x="1373.779297" xlink:href="#DejaVuSans-46"/>
    <use x="1405.566406" xlink:href="#DejaVuSans-48"/>
    <use x="1469.189453" xlink:href="#DejaVuSans-48"/>
    <use x="1532.8125" xlink:href="#DejaVuSans-48"/>
    <use x="1596.435547" xlink:href="#DejaVuSans-41"/>
   </g>
  </g>
  <g id="text_26">
   <g id="patch_10">
    <path d="M 428 70.879688 
L 555.317188 70.879688 
L 555.317188 53.201563 
L 428 53.201563 
z
" style="fill:#ffffff;stroke:#ffffff;stroke-linejoin:miter;"/>
   </g>
   <!-- "Je plee liegt niet" - Rolf -->
   <g style="fill:#808080;" transform="translate(432 64.8)scale(0.1 -0.1)">
    <defs>
     <path d="M 17.921875 72.90625 
L 17.921875 45.796875 
L 9.625 45.796875 
L 9.625 72.90625 
z
M 36.375 72.90625 
L 36.375 45.796875 
L 28.078125 45.796875 
L 28.078125 72.90625 
z
" id="DejaVuSans-34"/>
     <path d="M 9.8125 72.90625 
L 19.671875 72.90625 
L 19.671875 5.078125 
Q 19.671875 -8.109375 14.671875 -14.0625 
Q 9.671875 -20.015625 -1.421875 -20.015625 
L -5.171875 -20.015625 
L -5.171875 -11.71875 
L -2.09375 -11.71875 
Q 4.4375 -11.71875 7.125 -8.046875 
Q 9.8125 -4.390625 9.8125 5.078125 
z
" id="DejaVuSans-74"/>
    </defs>
    <use xlink:href="#DejaVuSans-34"/>
    <use x="45.996094" xlink:href="#DejaVuSans-74"/>
    <use x="75.488281" xlink:href="#DejaVuSans-101"/>
    <use x="137.011719" xlink:href="#DejaVuSans-32"/>
    <use x="168.798828" xlink:href="#DejaVuSans-112"/>
    <use x="232.275391" xlink:href="#DejaVuSans-108"/>
    <use x="260.058594" xlink:href="#DejaVuSans-101"/>
    <use x="321.582031" xlink:href="#DejaVuSans-101"/>
    <use x="383.105469" xlink:href="#DejaVuSans-32"/>
    <use x="414.892578" xlink:href="#DejaVuSans-108"/>
    <use x="442.675781" xlink:href="#DejaVuSans-105"/>
    <use x="470.458984" xlink:href="#DejaVuSans-101"/>
    <use x="531.982422" xlink:href="#DejaVuSans-103"/>
    <use x="595.458984" xlink:href="#DejaVuSans-116"/>
    <use x="634.667969" xlink:href="#DejaVuSans-32"/>
    <use x="666.455078" xlink:href="#DejaVuSans-110"/>
    <use x="729.833984" xlink:href="#DejaVuSans-105"/>
    <use x="757.617188" xlink:href="#DejaVuSans-101"/>
    <use x="819.140625" xlink:href="#DejaVuSans-116"/>
    <use x="858.349609" xlink:href="#DejaVuSans-34"/>
    <use x="904.345703" xlink:href="#DejaVuSans-32"/>
    <use x="936.132812" xlink:href="#DejaVuSans-45"/>
    <use x="972.216797" xlink:href="#DejaVuSans-32"/>
    <use x="1004.003906" xlink:href="#DejaVuSans-82"/>
    <use x="1068.986328" xlink:href="#DejaVuSans-111"/>
    <use x="1130.167969" xlink:href="#DejaVuSans-108"/>
    <use x="1157.951172" xlink:href="#DejaVuSans-102"/>
   </g>
  </g>
 </g>
 <defs>
  <clipPath id="p0c4bbb7a70">
   <rect height="146.88" width="590.4" x="64.8" y="25.92"/>
  </clipPath>
 </defs>
</svg>
