<?xml version="1.0" encoding="utf-8" standalone="no"?>
<!DOCTYPE svg PUBLIC "-//W3C//DTD SVG 1.1//EN"
  "http://www.w3.org/Graphics/SVG/1.1/DTD/svg11.dtd">
<!-- Created with matplotlib (https://matplotlib.org/) -->
<svg height="216pt" version="1.1" viewBox="0 0 720 216" width="720pt" xmlns="http://www.w3.org/2000/svg" xmlns:xlink="http://www.w3.org/1999/xlink">
 <metadata>
  <rdf:RDF xmlns:cc="http://creativecommons.org/ns#" xmlns:dc="http://purl.org/dc/elements/1.1/" xmlns:rdf="http://www.w3.org/1999/02/22-rdf-syntax-ns#">
   <cc:Work>
    <dc:type rdf:resource="http://purl.org/dc/dcmitype/StillImage"/>
    <dc:date>2022-03-22T17:41:26.826009</dc:date>
    <dc:format>image/svg+xml</dc:format>
    <dc:creator>
     <cc:Agent>
      <dc:title>Matplotlib v3.3.2, https://matplotlib.org/</dc:title>
     </cc:Agent>
    </dc:creator>
   </cc:Work>
  </rdf:RDF>
 </metadata>
 <defs>
  <style type="text/css">*{stroke-linecap:butt;stroke-linejoin:round;}</style>
 </defs>
 <g id="figure_1">
  <g id="patch_1">
   <path d="M 0 216 
L 720 216 
L 720 0 
L 0 0 
z
" style="fill:#ffffff;"/>
  </g>
  <g id="axes_1">
   <g id="patch_2">
    <path d="M 64.8 172.8 
L 655.2 172.8 
L 655.2 25.92 
L 64.8 25.92 
z
" style="fill:#ffffff;"/>
   </g>
   <g id="PolyCollection_1">
    <path clip-path="url(#pc12dbf6c2d)" d="M 87.417701 172.8 
L 87.417701 172.8 
L 88.197622 172.8 
L 88.977543 172.8 
L 89.757464 172.8 
L 92.097226 172.8 
L 92.877147 172.8 
L 93.657067 172.8 
L 94.436988 172.8 
L 95.216909 172.8 
L 95.99683 172.8 
L 98.336592 172.8 
L 99.116513 172.8 
L 99.896433 172.8 
L 100.676354 172.8 
L 101.456275 172.8 
L 103.016116 172.8 
L 103.796037 172.8 
L 104.575958 172.8 
L 105.355878 172.8 
L 106.135799 172.8 
L 108.475561 172.8 
L 109.255482 172.8 
L 110.035403 172.8 
L 110.815324 172.8 
L 111.595244 172.8 
L 112.375165 172.8 
L 113.935007 172.8 
L 115.494848 172.8 
L 116.274769 172.8 
L 117.05469 172.8 
L 118.614531 172.8 
L 119.394452 172.8 
L 120.174373 172.8 
L 120.954293 172.8 
L 121.734214 172.8 
L 123.294055 172.8 
L 124.073976 172.8 
L 124.853897 172.8 
L 125.633818 172.8 
L 126.413738 172.8 
L 127.193659 172.8 
L 127.97358 172.8 
L 128.753501 172.8 
L 129.533421 172.8 
L 130.313342 172.8 
L 131.093263 172.8 
L 131.873184 172.8 
L 132.653104 172.8 
L 133.433025 172.8 
L 134.212946 172.8 
L 136.552708 172.8 
L 137.332629 172.8 
L 138.11255 172.8 
L 138.89247 172.8 
L 139.672391 172.8 
L 140.452312 172.8 
L 141.232232 172.8 
L 142.012153 172.8 
L 142.792074 172.8 
L 143.571995 172.8 
L 144.351915 172.8 
L 146.691678 172.8 
L 147.471598 172.8 
L 148.251519 172.8 
L 149.03144 172.8 
L 152.151123 172.8 
L 152.931044 172.8 
L 153.710964 172.8 
L 156.830647 172.8 
L 157.610568 172.8 
L 158.390489 172.8 
L 159.17041 172.8 
L 160.730251 172.8 
L 163.849934 172.8 
L 164.629855 172.8 
L 165.409775 172.8 
L 169.309379 172.8 
L 170.0893 172.8 
L 171.649141 172.8 
L 173.208983 172.8 
L 173.988904 172.8 
L 174.768824 172.8 
L 175.548745 172.8 
L 176.328666 172.8 
L 177.108587 172.8 
L 177.888507 172.8 
L 178.668428 172.8 
L 179.448349 172.8 
L 180.228269 172.8 
L 181.00819 172.8 
L 181.788111 172.8 
L 182.568032 172.8 
L 183.347952 172.8 
L 184.127873 172.8 
L 184.907794 172.8 
L 185.687715 172.8 
L 186.467635 172.8 
L 187.247556 172.8 
L 188.027477 172.8 
L 188.807398 172.8 
L 190.367239 172.8 
L 191.14716 172.8 
L 191.927081 172.8 
L 192.707001 172.8 
L 193.486922 172.8 
L 194.266843 172.8 
L 195.046764 172.8 
L 195.826684 172.8 
L 196.606605 172.8 
L 197.386526 172.8 
L 198.166446 172.8 
L 198.946367 172.8 
L 199.726288 172.8 
L 200.506209 172.8 
L 201.286129 172.8 
L 202.06605 172.8 
L 202.845971 172.8 
L 203.625892 172.8 
L 204.405812 172.8 
L 205.185733 172.8 
L 205.965654 172.8 
L 206.745575 172.8 
L 207.525495 172.8 
L 208.305416 172.8 
L 209.085337 172.8 
L 209.865258 172.8 
L 210.645178 172.8 
L 211.425099 172.8 
L 212.20502 172.8 
L 212.984941 172.8 
L 213.764861 172.8 
L 214.544782 172.8 
L 215.324703 172.8 
L 216.104624 172.8 
L 216.884544 172.8 
L 217.664465 172.8 
L 218.444386 172.8 
L 219.224306 172.8 
L 220.004227 172.8 
L 220.784148 172.8 
L 221.564069 172.8 
L 222.343989 172.8 
L 223.12391 172.8 
L 223.903831 172.8 
L 224.683752 172.8 
L 225.463672 172.8 
L 226.243593 172.8 
L 227.023514 172.8 
L 227.803435 172.8 
L 228.583355 172.8 
L 229.363276 172.8 
L 230.143197 172.8 
L 230.923118 172.8 
L 231.703038 172.8 
L 232.482959 172.8 
L 233.26288 172.8 
L 234.042801 172.8 
L 234.822721 172.8 
L 235.602642 172.8 
L 236.382563 172.8 
L 237.162483 172.8 
L 237.942404 172.8 
L 238.722325 172.8 
L 239.502246 172.8 
L 240.282166 172.8 
L 241.062087 172.8 
L 241.842008 172.8 
L 242.621929 172.8 
L 243.401849 172.8 
L 244.18177 172.8 
L 244.961691 172.8 
L 245.741612 172.8 
L 246.521532 172.8 
L 247.301453 172.8 
L 248.081374 172.8 
L 248.861295 172.8 
L 249.641215 172.8 
L 250.421136 172.8 
L 251.201057 172.8 
L 251.980978 172.8 
L 252.760898 172.8 
L 253.540819 172.8 
L 254.32074 172.8 
L 255.100661 172.8 
L 255.880581 172.8 
L 256.660502 172.8 
L 257.440423 172.8 
L 258.220343 172.8 
L 259.000264 172.8 
L 259.780185 172.8 
L 260.560106 172.8 
L 261.340026 172.8 
L 262.119947 172.8 
L 262.899868 172.8 
L 263.679789 172.8 
L 264.459709 172.8 
L 265.23963 172.8 
L 266.019551 172.8 
L 266.799472 172.8 
L 267.579392 172.8 
L 268.359313 172.8 
L 269.139234 172.8 
L 269.919155 172.8 
L 270.699075 172.8 
L 271.478996 172.8 
L 272.258917 172.8 
L 273.038838 172.8 
L 273.818758 172.8 
L 274.598679 172.8 
L 275.3786 172.8 
L 276.15852 172.8 
L 276.938441 172.8 
L 277.718362 172.8 
L 278.498283 172.8 
L 279.278203 172.8 
L 280.058124 172.8 
L 280.838045 172.8 
L 281.617966 172.8 
L 282.397886 172.8 
L 283.177807 172.8 
L 283.957728 172.8 
L 284.737649 172.8 
L 285.517569 172.8 
L 286.29749 172.8 
L 287.077411 172.8 
L 287.857332 172.8 
L 288.637252 172.8 
L 289.417173 172.8 
L 290.197094 172.8 
L 290.977015 172.8 
L 291.756935 172.8 
L 292.536856 172.8 
L 293.316777 172.8 
L 294.096697 172.8 
L 294.876618 172.8 
L 295.656539 172.8 
L 296.43646 172.8 
L 297.21638 172.8 
L 297.996301 172.8 
L 298.776222 172.8 
L 299.556143 172.8 
L 300.336063 172.8 
L 301.115984 172.8 
L 301.895905 172.8 
L 303.455746 172.8 
L 304.235667 172.8 
L 305.015588 172.8 
L 305.795509 172.8 
L 306.575429 172.8 
L 307.35535 172.8 
L 308.135271 172.8 
L 308.915192 172.8 
L 309.695112 172.8 
L 310.475033 172.8 
L 311.254954 172.8 
L 312.034875 172.8 
L 312.814795 172.8 
L 313.594716 172.8 
L 314.374637 172.8 
L 315.154557 172.8 
L 315.934478 172.8 
L 316.714399 172.8 
L 317.49432 172.8 
L 318.27424 172.8 
L 319.054161 172.8 
L 319.834082 172.8 
L 320.614003 172.8 
L 321.393923 172.8 
L 322.173844 172.8 
L 322.953765 172.8 
L 323.733686 172.8 
L 324.513606 172.8 
L 325.293527 172.8 
L 326.073448 172.8 
L 326.853369 172.8 
L 327.633289 172.8 
L 328.41321 172.8 
L 329.193131 172.8 
L 329.973052 172.8 
L 330.752972 172.8 
L 331.532893 172.8 
L 332.312814 172.8 
L 333.092734 172.8 
L 333.872655 172.8 
L 334.652576 172.8 
L 335.432497 172.8 
L 336.212417 172.8 
L 336.992338 172.8 
L 337.772259 172.8 
L 338.55218 172.8 
L 339.3321 172.8 
L 340.112021 172.8 
L 340.891942 172.8 
L 341.671863 172.8 
L 342.451783 172.8 
L 343.231704 172.8 
L 344.011625 172.8 
L 344.791546 172.8 
L 345.571466 172.8 
L 346.351387 172.8 
L 347.131308 172.8 
L 347.911229 172.8 
L 348.691149 172.8 
L 349.47107 172.8 
L 350.250991 172.8 
L 351.030911 172.8 
L 351.810832 172.8 
L 352.590753 172.8 
L 353.370674 172.8 
L 354.150594 172.8 
L 354.930515 172.8 
L 355.710436 172.8 
L 356.490357 172.8 
L 357.270277 172.8 
L 358.050198 172.8 
L 358.830119 172.8 
L 359.61004 172.8 
L 360.38996 172.8 
L 361.169881 172.8 
L 361.949802 172.8 
L 362.729723 172.8 
L 363.509643 172.8 
L 364.289564 172.8 
L 365.069485 172.8 
L 365.849406 172.8 
L 366.629326 172.8 
L 367.409247 172.8 
L 368.189168 172.8 
L 368.969089 172.8 
L 369.749009 172.8 
L 370.52893 172.8 
L 371.308851 172.8 
L 372.088771 172.8 
L 372.868692 172.8 
L 373.648613 172.8 
L 374.428534 172.8 
L 375.208454 172.8 
L 375.988375 172.8 
L 376.768296 172.8 
L 377.548217 172.8 
L 378.328137 172.8 
L 379.108058 172.8 
L 379.887979 172.8 
L 380.6679 172.8 
L 381.44782 172.8 
L 382.227741 172.8 
L 383.007662 172.8 
L 383.787583 172.8 
L 384.567503 172.8 
L 385.347424 172.8 
L 386.127345 172.8 
L 386.907266 172.8 
L 387.687186 172.8 
L 388.467107 172.8 
L 389.247028 172.8 
L 390.026948 172.8 
L 390.806869 172.8 
L 391.58679 172.8 
L 392.366711 172.8 
L 393.146631 172.8 
L 393.926552 172.8 
L 394.706473 172.8 
L 395.486394 172.8 
L 396.266314 172.8 
L 397.046235 172.8 
L 397.826156 172.8 
L 398.606077 172.8 
L 399.385997 172.8 
L 400.165918 172.8 
L 400.945839 172.8 
L 401.72576 172.8 
L 402.50568 172.8 
L 403.285601 172.8 
L 404.065522 172.8 
L 404.845443 172.8 
L 405.625363 172.8 
L 406.405284 172.8 
L 407.185205 172.8 
L 407.965125 172.8 
L 408.745046 172.8 
L 409.524967 172.8 
L 410.304888 172.8 
L 411.084808 172.8 
L 411.864729 172.8 
L 412.64465 172.8 
L 414.204491 172.8 
L 414.984412 172.8 
L 415.764333 172.8 
L 416.544254 172.8 
L 417.324174 172.8 
L 418.104095 172.8 
L 418.884016 172.8 
L 419.663937 172.8 
L 420.443857 172.8 
L 421.223778 172.8 
L 422.003699 172.8 
L 422.78362 172.8 
L 423.56354 172.8 
L 425.123382 172.8 
L 425.903303 172.8 
L 426.683223 172.8 
L 427.463144 172.8 
L 428.243065 172.8 
L 429.802906 172.8 
L 430.582827 172.8 
L 431.362748 172.8 
L 432.142668 172.8 
L 432.922589 172.8 
L 433.70251 172.8 
L 435.262351 172.8 
L 436.042272 172.8 
L 436.822193 172.8 
L 437.602114 172.8 
L 438.382034 172.8 
L 439.161955 172.8 
L 439.941876 172.8 
L 440.721797 172.8 
L 441.501717 172.8 
L 442.281638 172.8 
L 443.061559 172.8 
L 443.84148 172.8 
L 444.6214 172.8 
L 445.401321 172.8 
L 446.181242 172.8 
L 446.961162 172.8 
L 447.741083 172.8 
L 448.521004 172.8 
L 449.300925 172.8 
L 450.080845 172.8 
L 450.860766 172.8 
L 451.640687 172.8 
L 452.420608 172.8 
L 453.200528 172.8 
L 453.980449 172.8 
L 454.76037 172.8 
L 455.540291 172.8 
L 457.100132 172.8 
L 457.880053 172.8 
L 458.659974 172.8 
L 459.439894 172.8 
L 460.219815 172.8 
L 460.999736 172.8 
L 461.779657 172.8 
L 462.559577 172.8 
L 463.339498 172.8 
L 464.119419 172.8 
L 464.899339 172.8 
L 465.67926 172.8 
L 466.459181 172.8 
L 467.239102 172.8 
L 468.019022 172.8 
L 468.798943 172.8 
L 469.578864 172.8 
L 470.358785 172.8 
L 471.138705 172.8 
L 471.918626 172.8 
L 472.698547 172.8 
L 473.478468 172.8 
L 474.258388 172.8 
L 475.038309 172.8 
L 475.81823 172.8 
L 476.598151 172.8 
L 477.378071 172.8 
L 478.157992 172.8 
L 478.937913 172.8 
L 479.717834 172.8 
L 480.497754 172.8 
L 481.277675 172.8 
L 482.057596 172.8 
L 482.837517 172.8 
L 483.617437 172.8 
L 484.397358 172.8 
L 485.177279 172.8 
L 485.957199 172.8 
L 486.73712 172.8 
L 487.517041 172.8 
L 488.296962 172.8 
L 489.076882 172.8 
L 489.856803 172.8 
L 490.636724 172.8 
L 491.416645 172.8 
L 492.196565 172.8 
L 492.976486 172.8 
L 493.756407 172.8 
L 494.536328 172.8 
L 495.316248 172.8 
L 496.096169 172.8 
L 496.87609 172.8 
L 497.656011 172.8 
L 498.435931 172.8 
L 499.215852 172.8 
L 499.995773 172.8 
L 500.775694 172.8 
L 501.555614 172.8 
L 502.335535 172.8 
L 503.115456 172.8 
L 503.895376 172.8 
L 504.675297 172.8 
L 505.455218 172.8 
L 506.235139 172.8 
L 507.015059 172.8 
L 507.79498 172.8 
L 508.574901 172.8 
L 509.354822 172.8 
L 510.134742 172.8 
L 510.914663 172.8 
L 511.694584 172.8 
L 512.474505 172.8 
L 513.254425 172.8 
L 514.034346 172.8 
L 514.814267 172.8 
L 515.594188 172.8 
L 516.374108 172.8 
L 517.154029 172.8 
L 517.93395 172.8 
L 518.713871 172.8 
L 519.493791 172.8 
L 520.273712 172.8 
L 521.053633 172.8 
L 521.833554 172.8 
L 522.613474 172.8 
L 523.393395 172.8 
L 524.173316 172.8 
L 524.953236 172.8 
L 525.733157 172.8 
L 526.513078 172.8 
L 527.292999 172.8 
L 528.072919 172.8 
L 528.85284 172.8 
L 529.632761 172.8 
L 530.412682 172.8 
L 531.192602 172.8 
L 531.972523 172.8 
L 532.752444 172.8 
L 533.532365 172.8 
L 534.312285 172.8 
L 535.092206 172.8 
L 535.872127 172.8 
L 536.652048 172.8 
L 537.431968 172.8 
L 538.211889 172.8 
L 538.99181 172.8 
L 539.771731 172.8 
L 540.551651 172.8 
L 541.331572 172.8 
L 542.111493 172.8 
L 542.891413 172.8 
L 543.671334 172.8 
L 544.451255 172.8 
L 545.231176 172.8 
L 546.011096 172.8 
L 546.791017 172.8 
L 547.570938 172.8 
L 548.350859 172.8 
L 549.130779 172.8 
L 549.9107 172.8 
L 550.690621 172.8 
L 551.470542 172.8 
L 552.250462 172.8 
L 553.030383 172.8 
L 553.810304 172.8 
L 554.590225 172.8 
L 555.370145 172.8 
L 556.150066 172.8 
L 556.929987 172.8 
L 557.709908 172.8 
L 558.489828 172.8 
L 559.269749 172.8 
L 560.04967 172.8 
L 560.82959 172.8 
L 561.609511 172.8 
L 562.389432 172.8 
L 563.169353 172.8 
L 563.949273 172.8 
L 564.729194 172.8 
L 565.509115 172.8 
L 566.289036 172.8 
L 567.068956 172.8 
L 567.848877 172.8 
L 568.628798 172.8 
L 569.408719 172.8 
L 570.188639 172.8 
L 570.96856 172.8 
L 571.748481 172.8 
L 572.528402 172.8 
L 573.308322 172.8 
L 574.088243 172.8 
L 574.868164 172.8 
L 575.648085 172.8 
L 576.428005 172.8 
L 577.207926 172.8 
L 577.987847 172.8 
L 578.767768 172.8 
L 579.547688 172.8 
L 580.327609 172.8 
L 581.10753 172.8 
L 581.88745 172.8 
L 582.667371 172.8 
L 583.447292 172.8 
L 584.227213 172.8 
L 585.007133 172.8 
L 585.787054 172.8 
L 586.566975 172.8 
L 587.346896 172.8 
L 588.126816 172.8 
L 588.906737 172.8 
L 589.686658 172.8 
L 590.466579 172.8 
L 591.246499 172.8 
L 592.02642 172.8 
L 592.806341 172.8 
L 593.586262 172.8 
L 594.366182 172.8 
L 595.146103 172.8 
L 595.926024 172.8 
L 596.705945 172.8 
L 597.485865 172.8 
L 598.265786 172.8 
L 599.045707 172.8 
L 599.825627 172.8 
L 600.605548 172.8 
L 601.385469 172.8 
L 602.16539 172.8 
L 602.94531 172.8 
L 603.725231 172.8 
L 604.505152 172.8 
L 605.285073 172.8 
L 606.064993 172.8 
L 606.844914 172.8 
L 607.624835 172.8 
L 608.404756 172.8 
L 609.184676 172.8 
L 609.964597 172.8 
L 610.744518 172.8 
L 611.524439 172.8 
L 612.304359 172.8 
L 613.08428 172.8 
L 613.864201 172.8 
L 614.644122 172.8 
L 615.424042 172.8 
L 616.203963 172.8 
L 616.983884 172.8 
L 617.763804 172.8 
L 618.543725 172.8 
L 619.323646 172.8 
L 620.103567 172.8 
L 620.883487 172.8 
L 621.663408 172.8 
L 622.443329 172.8 
L 623.22325 172.8 
L 624.00317 172.8 
L 624.783091 172.8 
L 625.563012 172.8 
L 626.342933 172.8 
L 627.122853 172.8 
L 627.902774 172.8 
L 628.682695 172.8 
L 629.462616 172.8 
L 630.242536 172.8 
L 631.022457 172.8 
L 631.802378 172.8 
L 632.582299 172.8 
L 633.362219 172.8 
L 634.14214 172.8 
L 634.922061 172.8 
L 635.701982 172.8 
L 636.481902 172.8 
L 637.261823 172.8 
L 638.041744 172.8 
L 638.821664 172.8 
L 639.601585 172.8 
L 640.381506 172.8 
L 641.161427 172.8 
L 641.941347 172.8 
L 642.721268 172.8 
L 643.501189 172.8 
L 644.28111 172.8 
L 645.06103 172.8 
L 645.840951 172.8 
L 646.620872 172.8 
L 646.620872 172.8 
L 646.620872 52.101019 
L 645.840951 45.036009 
L 645.06103 49.446647 
L 644.28111 39.889064 
L 643.501189 37.201272 
L 642.721268 54.582603 
L 641.941347 43.232959 
L 641.161427 35.457526 
L 640.381506 40.176848 
L 639.601585 46.667489 
L 638.821664 48.010337 
L 638.041744 14.906214 
L 637.261823 55.341389 
L 636.481902 32.177122 
L 635.701982 55.175941 
L 634.922061 82.743158 
L 634.14214 98.503458 
L 633.362219 102.380296 
L 632.582299 108.52932 
L 631.802378 118.843113 
L 631.022457 102.089072 
L 630.242536 101.221205 
L 629.462616 117.185896 
L 628.682695 110.838999 
L 627.902774 112.324579 
L 627.122853 81.069709 
L 626.342933 65.336934 
L 625.563012 91.715266 
L 624.783091 102.306177 
L 624.00317 79.861708 
L 623.22325 58.320983 
L 622.443329 88.807432 
L 621.663408 84.715776 
L 620.883487 75.805705 
L 620.103567 83.476991 
L 619.323646 62.007687 
L 618.543725 71.921597 
L 617.763804 94.39874 
L 616.983884 65.148717 
L 616.203963 36.217334 
L 615.424042 36.710913 
L 614.644122 40.457711 
L 613.864201 66.624093 
L 613.08428 79.029095 
L 612.304359 65.467285 
L 611.524439 55.004748 
L 610.744518 63.84181 
L 609.964597 76.601046 
L 609.184676 83.115797 
L 608.404756 72.228243 
L 607.624835 87.82551 
L 606.844914 92.966937 
L 606.064993 92.573184 
L 605.285073 98.600319 
L 604.505152 104.074752 
L 603.725231 114.305 
L 602.94531 99.125437 
L 602.16539 91.95855 
L 601.385469 106.984806 
L 600.605548 118.050617 
L 599.825627 137.382293 
L 599.045707 126.642985 
L 598.265786 135.035121 
L 597.485865 136.421015 
L 596.705945 127.886717 
L 595.926024 138.97296 
L 595.146103 139.454022 
L 594.366182 134.748062 
L 593.586262 116.658875 
L 592.806341 143.603964 
L 592.02642 145.08802 
L 591.246499 133.178987 
L 590.466579 134.620398 
L 589.686658 139.494127 
L 588.906737 134.125542 
L 588.126816 140.422266 
L 587.346896 140.669402 
L 586.566975 142.340243 
L 585.787054 133.890687 
L 585.007133 125.43215 
L 584.227213 135.370384 
L 583.447292 140.97564 
L 582.667371 140.903922 
L 581.88745 120.711122 
L 581.10753 127.360538 
L 580.327609 136.011291 
L 579.547688 140.468775 
L 578.767768 139.874031 
L 577.987847 118.580946 
L 577.207926 114.597905 
L 576.428005 124.96935 
L 575.648085 128.934843 
L 574.868164 132.259503 
L 574.088243 122.798133 
L 573.308322 133.517067 
L 572.528402 115.038173 
L 571.748481 126.257604 
L 570.96856 114.985506 
L 570.188639 124.54584 
L 569.408719 132.616998 
L 568.628798 128.599874 
L 567.848877 125.666643 
L 567.068956 138.505927 
L 566.289036 135.169407 
L 565.509115 139.595265 
L 564.729194 132.238815 
L 563.949273 129.608796 
L 563.169353 116.174847 
L 562.389432 115.983845 
L 561.609511 111.536999 
L 560.82959 108.750936 
L 560.04967 92.59742 
L 559.269749 105.831716 
L 558.489828 114.526543 
L 557.709908 102.647398 
L 556.929987 109.514983 
L 556.150066 98.551097 
L 555.370145 106.58058 
L 554.590225 96.400904 
L 553.810304 118.170468 
L 553.030383 106.738843 
L 552.250462 118.398755 
L 551.470542 127.999659 
L 550.690621 126.087133 
L 549.9107 93.697741 
L 549.130779 107.863607 
L 548.350859 124.754238 
L 547.570938 130.881402 
L 546.791017 127.252352 
L 546.011096 129.019279 
L 545.231176 127.782609 
L 544.451255 130.8366 
L 543.671334 136.719773 
L 542.891413 131.617966 
L 542.111493 147.742865 
L 541.331572 148.929287 
L 540.551651 151.202296 
L 539.771731 137.544667 
L 538.99181 143.230839 
L 538.211889 148.627941 
L 537.431968 145.866225 
L 536.652048 155.162584 
L 535.872127 150.504247 
L 535.092206 140.90523 
L 534.312285 145.371973 
L 533.532365 148.199346 
L 532.752444 146.181128 
L 531.972523 141.231809 
L 531.192602 133.535641 
L 530.412682 147.072889 
L 529.632761 152.797903 
L 528.85284 150.029934 
L 528.072919 154.631642 
L 527.292999 155.288124 
L 526.513078 155.304572 
L 525.733157 160.581268 
L 524.953236 155.765331 
L 524.173316 162.104605 
L 523.393395 161.736017 
L 522.613474 159.210135 
L 521.833554 161.773586 
L 521.053633 161.979002 
L 520.273712 161.009288 
L 519.493791 160.384856 
L 518.713871 166.738035 
L 517.93395 164.748128 
L 517.154029 164.375099 
L 516.374108 159.267135 
L 515.594188 168.868205 
L 514.814267 169.269587 
L 514.034346 169.565151 
L 513.254425 168.160709 
L 512.474505 168.136177 
L 511.694584 169.912278 
L 510.914663 169.931224 
L 510.134742 169.656808 
L 509.354822 169.899097 
L 508.574901 168.290061 
L 507.79498 167.450436 
L 507.015059 166.967126 
L 506.235139 167.516207 
L 505.455218 167.550591 
L 504.675297 166.195728 
L 503.895376 167.368847 
L 503.115456 167.549013 
L 502.335535 167.182546 
L 501.555614 165.627488 
L 500.775694 166.189945 
L 499.995773 165.415101 
L 499.215852 165.975909 
L 498.435931 164.828295 
L 497.656011 167.385599 
L 496.87609 167.086736 
L 496.096169 166.365365 
L 495.316248 164.280197 
L 494.536328 166.29557 
L 493.756407 159.911377 
L 492.976486 161.353659 
L 492.196565 165.011153 
L 491.416645 165.400295 
L 490.636724 149.480295 
L 489.856803 154.559797 
L 489.076882 138.784951 
L 488.296962 140.682683 
L 487.517041 146.202521 
L 486.73712 148.404828 
L 485.957199 148.865624 
L 485.177279 131.263058 
L 484.397358 147.860241 
L 483.617437 143.958812 
L 482.837517 151.191388 
L 482.057596 157.329561 
L 481.277675 142.870545 
L 480.497754 144.320431 
L 479.717834 150.817374 
L 478.937913 145.655102 
L 478.157992 155.22197 
L 477.378071 152.133809 
L 476.598151 157.450409 
L 475.81823 151.334413 
L 475.038309 151.401411 
L 474.258388 149.305953 
L 473.478468 141.876128 
L 472.698547 144.406767 
L 471.918626 150.78553 
L 471.138705 152.98769 
L 470.358785 151.16288 
L 469.578864 155.239752 
L 468.798943 153.911023 
L 468.019022 153.572811 
L 467.239102 144.045461 
L 466.459181 160.558225 
L 465.67926 163.834296 
L 464.899339 160.194549 
L 464.119419 156.564413 
L 463.339498 146.17734 
L 462.559577 142.607055 
L 461.779657 149.166364 
L 460.999736 156.827837 
L 460.219815 151.454685 
L 459.439894 155.362097 
L 458.659974 148.976195 
L 457.880053 155.633027 
L 457.100132 158.186782 
L 455.540291 132.107285 
L 454.76037 138.609098 
L 453.980449 150.248206 
L 453.200528 152.008544 
L 452.420608 146.890441 
L 451.640687 149.520401 
L 450.860766 156.573486 
L 450.080845 157.391667 
L 449.300925 164.641104 
L 448.521004 167.072871 
L 447.741083 165.738345 
L 446.961162 156.894773 
L 446.181242 169.803811 
L 445.401321 168.88194 
L 444.6214 169.741306 
L 443.84148 168.194915 
L 443.061559 166.75511 
L 442.281638 167.507691 
L 441.501717 163.42858 
L 440.721797 168.768551 
L 439.941876 170.396703 
L 439.161955 169.629983 
L 438.382034 169.118828 
L 437.602114 170.278928 
L 436.822193 168.006945 
L 436.042272 169.859516 
L 435.262351 170.485857 
L 433.70251 169.687218 
L 432.922589 170.137092 
L 432.142668 167.185631 
L 431.362748 169.98079 
L 430.582827 169.218517 
L 429.802906 164.833763 
L 428.243065 170.20925 
L 427.463144 167.108754 
L 426.683223 169.613982 
L 425.903303 169.903056 
L 425.123382 166.546014 
L 423.56354 165.510642 
L 422.78362 168.517228 
L 422.003699 165.112172 
L 421.223778 163.83638 
L 420.443857 166.111053 
L 419.663937 161.371718 
L 418.884016 167.735105 
L 418.104095 166.640247 
L 417.324174 168.037448 
L 416.544254 164.1535 
L 415.764333 162.258694 
L 414.984412 162.870411 
L 414.204491 166.283972 
L 412.64465 168.138226 
L 411.864729 167.474339 
L 411.084808 161.826221 
L 410.304888 162.651859 
L 409.524967 160.747288 
L 408.745046 163.908121 
L 407.965125 167.15476 
L 407.185205 161.770669 
L 406.405284 157.902074 
L 405.625363 158.833095 
L 404.845443 160.165457 
L 404.065522 162.146055 
L 403.285601 147.540374 
L 402.50568 145.374108 
L 401.72576 150.340249 
L 400.945839 160.552068 
L 400.165918 155.120595 
L 399.385997 149.713731 
L 398.606077 159.667339 
L 397.826156 161.386829 
L 397.046235 167.279462 
L 396.266314 165.135586 
L 395.486394 150.291701 
L 394.706473 158.109143 
L 393.926552 160.171998 
L 393.146631 152.42869 
L 392.366711 157.304903 
L 391.58679 155.955566 
L 390.806869 158.239045 
L 390.026948 162.760749 
L 389.247028 162.765909 
L 388.467107 158.777204 
L 387.687186 159.257517 
L 386.907266 155.079929 
L 386.127345 148.031499 
L 385.347424 161.293767 
L 384.567503 161.848849 
L 383.787583 163.136477 
L 383.007662 156.5439 
L 382.227741 160.739209 
L 381.44782 158.689036 
L 380.6679 144.088037 
L 379.887979 157.760037 
L 379.108058 163.356558 
L 378.328137 153.192368 
L 377.548217 153.272765 
L 376.768296 157.774199 
L 375.988375 161.645967 
L 375.208454 160.770648 
L 374.428534 158.959026 
L 373.648613 158.520586 
L 372.868692 162.451153 
L 372.088771 159.424278 
L 371.308851 159.638535 
L 370.52893 156.970573 
L 369.749009 160.501812 
L 368.969089 152.994642 
L 368.189168 161.668695 
L 367.409247 157.258711 
L 366.629326 158.788273 
L 365.849406 158.858907 
L 365.069485 158.516715 
L 364.289564 163.743147 
L 363.509643 162.489613 
L 362.729723 161.521291 
L 361.949802 165.224798 
L 361.169881 156.704483 
L 360.38996 163.998092 
L 359.61004 162.254694 
L 358.830119 159.18147 
L 358.050198 160.050646 
L 357.270277 158.354474 
L 356.490357 162.057138 
L 355.710436 162.160626 
L 354.930515 157.859146 
L 354.150594 158.32727 
L 353.370674 158.090231 
L 352.590753 161.209244 
L 351.810832 160.033633 
L 351.030911 163.662425 
L 350.250991 161.827964 
L 349.47107 164.649626 
L 348.691149 164.920767 
L 347.911229 146.885547 
L 347.131308 163.850156 
L 346.351387 165.823285 
L 345.571466 162.789178 
L 344.791546 157.6465 
L 344.011625 153.449214 
L 343.231704 150.303197 
L 342.451783 152.767936 
L 341.671863 151.825292 
L 340.891942 152.444486 
L 340.112021 158.58044 
L 339.3321 154.513309 
L 338.55218 143.6746 
L 337.772259 156.880157 
L 336.992338 161.296053 
L 336.212417 157.349093 
L 335.432497 156.703201 
L 334.652576 162.190815 
L 333.872655 145.428983 
L 333.092734 160.160564 
L 332.312814 166.419898 
L 331.532893 150.276936 
L 330.752972 164.780949 
L 329.973052 158.571776 
L 329.193131 155.083426 
L 328.41321 148.406184 
L 327.633289 159.452205 
L 326.853369 160.285862 
L 326.073448 155.581254 
L 325.293527 110.835066 
L 324.513606 149.024787 
L 323.733686 151.548671 
L 322.953765 152.947264 
L 322.173844 150.573888 
L 321.393923 153.285432 
L 320.614003 155.220387 
L 319.834082 152.292685 
L 319.054161 149.637708 
L 318.27424 151.937534 
L 317.49432 132.64759 
L 316.714399 154.660689 
L 315.934478 142.453945 
L 315.154557 151.745871 
L 314.374637 151.309359 
L 313.594716 159.153007 
L 312.814795 151.451369 
L 312.034875 144.259307 
L 311.254954 145.094762 
L 310.475033 159.477337 
L 309.695112 161.13595 
L 308.915192 157.746724 
L 308.135271 142.002213 
L 307.35535 160.372069 
L 306.575429 158.502605 
L 305.795509 155.387589 
L 305.015588 160.797089 
L 304.235667 160.709358 
L 303.455746 163.248359 
L 301.895905 163.92648 
L 301.115984 153.604697 
L 300.336063 163.201358 
L 299.556143 147.747298 
L 298.776222 158.882882 
L 297.996301 148.275273 
L 297.21638 166.599909 
L 296.43646 137.555743 
L 295.656539 148.813957 
L 294.876618 133.479402 
L 294.096697 157.27212 
L 293.316777 160.298273 
L 292.536856 154.676746 
L 291.756935 156.703074 
L 290.977015 152.334566 
L 290.197094 148.695107 
L 289.417173 143.685901 
L 288.637252 154.535285 
L 287.857332 154.908595 
L 287.077411 157.524897 
L 286.29749 161.651687 
L 285.517569 156.582527 
L 284.737649 163.962626 
L 283.957728 161.945421 
L 283.177807 159.588789 
L 282.397886 166.075926 
L 281.617966 165.47721 
L 280.838045 157.759701 
L 280.058124 163.986371 
L 279.278203 157.183429 
L 278.498283 148.994592 
L 277.718362 161.987731 
L 276.938441 163.770939 
L 276.15852 160.207736 
L 275.3786 165.684599 
L 274.598679 167.091371 
L 273.818758 153.153443 
L 273.038838 164.363073 
L 272.258917 157.134775 
L 271.478996 164.006846 
L 270.699075 160.083455 
L 269.919155 163.27073 
L 269.139234 163.824613 
L 268.359313 158.016967 
L 267.579392 156.273119 
L 266.799472 122.078002 
L 266.019551 123.702531 
L 265.23963 120.012803 
L 264.459709 152.045937 
L 263.679789 155.107912 
L 262.899868 154.859547 
L 262.119947 148.879781 
L 261.340026 143.621488 
L 260.560106 140.186683 
L 259.780185 146.421512 
L 259.000264 151.205287 
L 258.220343 161.512758 
L 257.440423 157.362938 
L 256.660502 156.385067 
L 255.880581 135.319107 
L 255.100661 129.483512 
L 254.32074 153.901285 
L 253.540819 140.010435 
L 252.760898 108.985007 
L 251.980978 121.340488 
L 251.201057 151.730646 
L 250.421136 128.369516 
L 249.641215 149.479177 
L 248.861295 149.837847 
L 248.081374 159.804678 
L 247.301453 95.698788 
L 246.521532 142.968153 
L 245.741612 153.773682 
L 244.961691 141.239415 
L 244.18177 150.508941 
L 243.401849 138.139219 
L 242.621929 159.077734 
L 241.842008 153.722847 
L 241.062087 158.553627 
L 240.282166 158.335041 
L 239.502246 128.807052 
L 238.722325 129.523365 
L 237.942404 145.812736 
L 237.162483 147.047791 
L 236.382563 146.213781 
L 235.602642 150.072904 
L 234.822721 150.073277 
L 234.042801 159.141672 
L 233.26288 154.818455 
L 232.482959 158.866658 
L 231.703038 156.067346 
L 230.923118 163.574145 
L 230.143197 161.008327 
L 229.363276 157.909714 
L 228.583355 155.967199 
L 227.803435 159.654534 
L 227.023514 168.674933 
L 226.243593 165.222096 
L 225.463672 166.486128 
L 224.683752 165.087015 
L 223.903831 168.602919 
L 223.12391 165.693351 
L 222.343989 167.179602 
L 221.564069 168.395351 
L 220.784148 167.65776 
L 220.004227 167.794128 
L 219.224306 169.931677 
L 218.444386 165.698432 
L 217.664465 169.230743 
L 216.884544 169.81386 
L 216.104624 169.665066 
L 215.324703 168.401141 
L 214.544782 167.596329 
L 213.764861 168.932627 
L 212.984941 168.494585 
L 212.20502 162.115433 
L 211.425099 169.269568 
L 210.645178 165.990034 
L 209.865258 171.104679 
L 209.085337 170.379808 
L 208.305416 170.628104 
L 207.525495 167.431355 
L 206.745575 170.733886 
L 205.965654 169.047784 
L 205.185733 169.277563 
L 204.405812 171.229738 
L 203.625892 170.227101 
L 202.845971 168.967024 
L 202.06605 168.58194 
L 201.286129 164.438882 
L 200.506209 167.947869 
L 199.726288 166.837367 
L 198.946367 167.141018 
L 198.166446 169.696441 
L 197.386526 166.013933 
L 196.606605 168.806989 
L 195.826684 169.511381 
L 195.046764 167.9087 
L 194.266843 161.816896 
L 193.486922 165.233532 
L 192.707001 170.780786 
L 191.927081 167.915418 
L 191.14716 168.63132 
L 190.367239 167.280606 
L 188.807398 170.76046 
L 188.027477 172.031842 
L 187.247556 170.87619 
L 186.467635 168.130107 
L 185.687715 163.103469 
L 184.907794 157.752959 
L 184.127873 169.139975 
L 183.347952 169.796071 
L 182.568032 170.446887 
L 181.788111 166.886149 
L 181.00819 169.361449 
L 180.228269 159.200822 
L 179.448349 167.068317 
L 178.668428 166.970429 
L 177.888507 170.353626 
L 177.108587 163.161988 
L 176.328666 171.495372 
L 175.548745 163.074154 
L 174.768824 170.854349 
L 173.988904 169.477804 
L 173.208983 171.534773 
L 171.649141 169.081697 
L 170.0893 171.843638 
L 169.309379 171.270934 
L 165.409775 170.704339 
L 164.629855 171.206217 
L 163.849934 169.944211 
L 160.730251 162.803241 
L 159.17041 172.52543 
L 158.390489 171.562596 
L 157.610568 166.993541 
L 156.830647 168.130931 
L 153.710964 171.635415 
L 152.931044 172.285328 
L 152.151123 170.452868 
L 149.03144 171.75282 
L 148.251519 171.222417 
L 147.471598 170.533354 
L 146.691678 167.40976 
L 144.351915 168.087052 
L 143.571995 170.575436 
L 142.792074 171.130131 
L 142.012153 170.283697 
L 141.232232 172.202218 
L 140.452312 171.730684 
L 139.672391 171.569774 
L 138.89247 170.811182 
L 138.11255 169.161055 
L 137.332629 168.817292 
L 136.552708 168.177848 
L 134.212946 172.265358 
L 133.433025 172.259014 
L 132.653104 163.422527 
L 131.873184 170.103137 
L 131.093263 169.478039 
L 130.313342 164.808486 
L 129.533421 172.225378 
L 128.753501 171.459807 
L 127.97358 163.762475 
L 127.193659 171.942156 
L 126.413738 169.222475 
L 125.633818 170.437287 
L 124.853897 169.734239 
L 124.073976 172.220385 
L 123.294055 170.27508 
L 121.734214 171.106516 
L 120.954293 171.627586 
L 120.174373 169.758832 
L 119.394452 169.351265 
L 118.614531 170.700195 
L 117.05469 167.293245 
L 116.274769 169.543048 
L 115.494848 168.544858 
L 113.935007 166.755199 
L 112.375165 171.359878 
L 111.595244 169.869853 
L 110.815324 168.360254 
L 110.035403 169.181138 
L 109.255482 167.580135 
L 108.475561 170.450702 
L 106.135799 135.013961 
L 105.355878 164.38752 
L 104.575958 170.044699 
L 103.796037 169.655506 
L 103.016116 169.142809 
L 101.456275 172.471761 
L 100.676354 167.017463 
L 99.896433 166.169989 
L 99.116513 169.958876 
L 98.336592 154.217713 
L 95.99683 163.234981 
L 95.216909 151.999598 
L 94.436988 154.566309 
L 93.657067 161.291662 
L 92.877147 145.017609 
L 92.097226 147.176518 
L 89.757464 148.422949 
L 88.977543 154.2387 
L 88.197622 161.57135 
L 87.417701 152.458906 
z
" style="fill:#008000;fill-opacity:0.3;"/>
   </g>
   <g id="matplotlib.axis_1">
    <g id="xtick_1">
     <g id="line2d_1">
      <path clip-path="url(#pc12dbf6c2d)" d="M 88.977543 172.8 
L 88.977543 25.92 
" style="fill:none;stroke:#808080;stroke-dasharray:6.4,1.6,1,1.6;stroke-dashoffset:0;stroke-opacity:0.3;"/>
     </g>
     <g id="line2d_2">
      <defs>
       <path d="M 0 0 
L 0 3.5 
" id="m2f6b7a9a53" style="stroke:#000000;stroke-width:0.8;"/>
      </defs>
      <g>
       <use style="stroke:#000000;stroke-width:0.8;" x="88.977543" xlink:href="#m2f6b7a9a53" y="172.8"/>
      </g>
     </g>
     <g id="text_1">
      <!-- 2020-04 -->
      <g transform="translate(68.086137 187.398438)scale(0.1 -0.1)">
       <defs>
        <path d="M 19.1875 8.296875 
L 53.609375 8.296875 
L 53.609375 0 
L 7.328125 0 
L 7.328125 8.296875 
Q 12.9375 14.109375 22.625 23.890625 
Q 32.328125 33.6875 34.8125 36.53125 
Q 39.546875 41.84375 41.421875 45.53125 
Q 43.3125 49.21875 43.3125 52.78125 
Q 43.3125 58.59375 39.234375 62.25 
Q 35.15625 65.921875 28.609375 65.921875 
Q 23.96875 65.921875 18.8125 64.3125 
Q 13.671875 62.703125 7.8125 59.421875 
L 7.8125 69.390625 
Q 13.765625 71.78125 18.9375 73 
Q 24.125 74.21875 28.421875 74.21875 
Q 39.75 74.21875 46.484375 68.546875 
Q 53.21875 62.890625 53.21875 53.421875 
Q 53.21875 48.921875 51.53125 44.890625 
Q 49.859375 40.875 45.40625 35.40625 
Q 44.1875 33.984375 37.640625 27.21875 
Q 31.109375 20.453125 19.1875 8.296875 
z
" id="DejaVuSans-50"/>
        <path d="M 31.78125 66.40625 
Q 24.171875 66.40625 20.328125 58.90625 
Q 16.5 51.421875 16.5 36.375 
Q 16.5 21.390625 20.328125 13.890625 
Q 24.171875 6.390625 31.78125 6.390625 
Q 39.453125 6.390625 43.28125 13.890625 
Q 47.125 21.390625 47.125 36.375 
Q 47.125 51.421875 43.28125 58.90625 
Q 39.453125 66.40625 31.78125 66.40625 
z
M 31.78125 74.21875 
Q 44.046875 74.21875 50.515625 64.515625 
Q 56.984375 54.828125 56.984375 36.375 
Q 56.984375 17.96875 50.515625 8.265625 
Q 44.046875 -1.421875 31.78125 -1.421875 
Q 19.53125 -1.421875 13.0625 8.265625 
Q 6.59375 17.96875 6.59375 36.375 
Q 6.59375 54.828125 13.0625 64.515625 
Q 19.53125 74.21875 31.78125 74.21875 
z
" id="DejaVuSans-48"/>
        <path d="M 4.890625 31.390625 
L 31.203125 31.390625 
L 31.203125 23.390625 
L 4.890625 23.390625 
z
" id="DejaVuSans-45"/>
        <path d="M 37.796875 64.3125 
L 12.890625 25.390625 
L 37.796875 25.390625 
z
M 35.203125 72.90625 
L 47.609375 72.90625 
L 47.609375 25.390625 
L 58.015625 25.390625 
L 58.015625 17.1875 
L 47.609375 17.1875 
L 47.609375 0 
L 37.796875 0 
L 37.796875 17.1875 
L 4.890625 17.1875 
L 4.890625 26.703125 
z
" id="DejaVuSans-52"/>
       </defs>
       <use xlink:href="#DejaVuSans-50"/>
       <use x="63.623047" xlink:href="#DejaVuSans-48"/>
       <use x="127.246094" xlink:href="#DejaVuSans-50"/>
       <use x="190.869141" xlink:href="#DejaVuSans-48"/>
       <use x="254.492188" xlink:href="#DejaVuSans-45"/>
       <use x="290.576172" xlink:href="#DejaVuSans-48"/>
       <use x="354.199219" xlink:href="#DejaVuSans-52"/>
      </g>
     </g>
    </g>
    <g id="xtick_2">
     <g id="line2d_3">
      <path clip-path="url(#pc12dbf6c2d)" d="M 159.95033 172.8 
L 159.95033 25.92 
" style="fill:none;stroke:#808080;stroke-dasharray:6.4,1.6,1,1.6;stroke-dashoffset:0;stroke-opacity:0.3;"/>
     </g>
     <g id="line2d_4">
      <g>
       <use style="stroke:#000000;stroke-width:0.8;" x="159.95033" xlink:href="#m2f6b7a9a53" y="172.8"/>
      </g>
     </g>
     <g id="text_2">
      <!-- 2020-07 -->
      <g transform="translate(139.058924 187.398438)scale(0.1 -0.1)">
       <defs>
        <path d="M 8.203125 72.90625 
L 55.078125 72.90625 
L 55.078125 68.703125 
L 28.609375 0 
L 18.3125 0 
L 43.21875 64.59375 
L 8.203125 64.59375 
z
" id="DejaVuSans-55"/>
       </defs>
       <use xlink:href="#DejaVuSans-50"/>
       <use x="63.623047" xlink:href="#DejaVuSans-48"/>
       <use x="127.246094" xlink:href="#DejaVuSans-50"/>
       <use x="190.869141" xlink:href="#DejaVuSans-48"/>
       <use x="254.492188" xlink:href="#DejaVuSans-45"/>
       <use x="290.576172" xlink:href="#DejaVuSans-48"/>
       <use x="354.199219" xlink:href="#DejaVuSans-55"/>
      </g>
     </g>
    </g>
    <g id="xtick_3">
     <g id="line2d_5">
      <path clip-path="url(#pc12dbf6c2d)" d="M 231.703038 172.8 
L 231.703038 25.92 
" style="fill:none;stroke:#808080;stroke-dasharray:6.4,1.6,1,1.6;stroke-dashoffset:0;stroke-opacity:0.3;"/>
     </g>
     <g id="line2d_6">
      <g>
       <use style="stroke:#000000;stroke-width:0.8;" x="231.703038" xlink:href="#m2f6b7a9a53" y="172.8"/>
      </g>
     </g>
     <g id="text_3">
      <!-- 2020-10 -->
      <g transform="translate(210.811632 187.398438)scale(0.1 -0.1)">
       <defs>
        <path d="M 12.40625 8.296875 
L 28.515625 8.296875 
L 28.515625 63.921875 
L 10.984375 60.40625 
L 10.984375 69.390625 
L 28.421875 72.90625 
L 38.28125 72.90625 
L 38.28125 8.296875 
L 54.390625 8.296875 
L 54.390625 0 
L 12.40625 0 
z
" id="DejaVuSans-49"/>
       </defs>
       <use xlink:href="#DejaVuSans-50"/>
       <use x="63.623047" xlink:href="#DejaVuSans-48"/>
       <use x="127.246094" xlink:href="#DejaVuSans-50"/>
       <use x="190.869141" xlink:href="#DejaVuSans-48"/>
       <use x="254.492188" xlink:href="#DejaVuSans-45"/>
       <use x="290.576172" xlink:href="#DejaVuSans-49"/>
       <use x="354.199219" xlink:href="#DejaVuSans-48"/>
      </g>
     </g>
    </g>
    <g id="xtick_4">
     <g id="line2d_7">
      <path clip-path="url(#pc12dbf6c2d)" d="M 303.455746 172.8 
L 303.455746 25.92 
" style="fill:none;stroke:#808080;stroke-dasharray:6.4,1.6,1,1.6;stroke-dashoffset:0;stroke-opacity:0.3;"/>
     </g>
     <g id="line2d_8">
      <g>
       <use style="stroke:#000000;stroke-width:0.8;" x="303.455746" xlink:href="#m2f6b7a9a53" y="172.8"/>
      </g>
     </g>
     <g id="text_4">
      <!-- 2021-01 -->
      <g transform="translate(282.56434 187.398438)scale(0.1 -0.1)">
       <use xlink:href="#DejaVuSans-50"/>
       <use x="63.623047" xlink:href="#DejaVuSans-48"/>
       <use x="127.246094" xlink:href="#DejaVuSans-50"/>
       <use x="190.869141" xlink:href="#DejaVuSans-49"/>
       <use x="254.492188" xlink:href="#DejaVuSans-45"/>
       <use x="290.576172" xlink:href="#DejaVuSans-48"/>
       <use x="354.199219" xlink:href="#DejaVuSans-49"/>
      </g>
     </g>
    </g>
    <g id="xtick_5">
     <g id="line2d_9">
      <path clip-path="url(#pc12dbf6c2d)" d="M 373.648613 172.8 
L 373.648613 25.92 
" style="fill:none;stroke:#808080;stroke-dasharray:6.4,1.6,1,1.6;stroke-dashoffset:0;stroke-opacity:0.3;"/>
     </g>
     <g id="line2d_10">
      <g>
       <use style="stroke:#000000;stroke-width:0.8;" x="373.648613" xlink:href="#m2f6b7a9a53" y="172.8"/>
      </g>
     </g>
     <g id="text_5">
      <!-- 2021-04 -->
      <g transform="translate(352.757207 187.398438)scale(0.1 -0.1)">
       <use xlink:href="#DejaVuSans-50"/>
       <use x="63.623047" xlink:href="#DejaVuSans-48"/>
       <use x="127.246094" xlink:href="#DejaVuSans-50"/>
       <use x="190.869141" xlink:href="#DejaVuSans-49"/>
       <use x="254.492188" xlink:href="#DejaVuSans-45"/>
       <use x="290.576172" xlink:href="#DejaVuSans-48"/>
       <use x="354.199219" xlink:href="#DejaVuSans-52"/>
      </g>
     </g>
    </g>
    <g id="xtick_6">
     <g id="line2d_11">
      <path clip-path="url(#pc12dbf6c2d)" d="M 444.6214 172.8 
L 444.6214 25.92 
" style="fill:none;stroke:#808080;stroke-dasharray:6.4,1.6,1,1.6;stroke-dashoffset:0;stroke-opacity:0.3;"/>
     </g>
     <g id="line2d_12">
      <g>
       <use style="stroke:#000000;stroke-width:0.8;" x="444.6214" xlink:href="#m2f6b7a9a53" y="172.8"/>
      </g>
     </g>
     <g id="text_6">
      <!-- 2021-07 -->
      <g transform="translate(423.729994 187.398438)scale(0.1 -0.1)">
       <use xlink:href="#DejaVuSans-50"/>
       <use x="63.623047" xlink:href="#DejaVuSans-48"/>
       <use x="127.246094" xlink:href="#DejaVuSans-50"/>
       <use x="190.869141" xlink:href="#DejaVuSans-49"/>
       <use x="254.492188" xlink:href="#DejaVuSans-45"/>
       <use x="290.576172" xlink:href="#DejaVuSans-48"/>
       <use x="354.199219" xlink:href="#DejaVuSans-55"/>
      </g>
     </g>
    </g>
    <g id="xtick_7">
     <g id="line2d_13">
      <path clip-path="url(#pc12dbf6c2d)" d="M 516.374108 172.8 
L 516.374108 25.92 
" style="fill:none;stroke:#808080;stroke-dasharray:6.4,1.6,1,1.6;stroke-dashoffset:0;stroke-opacity:0.3;"/>
     </g>
     <g id="line2d_14">
      <g>
       <use style="stroke:#000000;stroke-width:0.8;" x="516.374108" xlink:href="#m2f6b7a9a53" y="172.8"/>
      </g>
     </g>
     <g id="text_7">
      <!-- 2021-10 -->
      <g transform="translate(495.482702 187.398438)scale(0.1 -0.1)">
       <use xlink:href="#DejaVuSans-50"/>
       <use x="63.623047" xlink:href="#DejaVuSans-48"/>
       <use x="127.246094" xlink:href="#DejaVuSans-50"/>
       <use x="190.869141" xlink:href="#DejaVuSans-49"/>
       <use x="254.492188" xlink:href="#DejaVuSans-45"/>
       <use x="290.576172" xlink:href="#DejaVuSans-49"/>
       <use x="354.199219" xlink:href="#DejaVuSans-48"/>
      </g>
     </g>
    </g>
    <g id="xtick_8">
     <g id="line2d_15">
      <path clip-path="url(#pc12dbf6c2d)" d="M 588.126816 172.8 
L 588.126816 25.92 
" style="fill:none;stroke:#808080;stroke-dasharray:6.4,1.6,1,1.6;stroke-dashoffset:0;stroke-opacity:0.3;"/>
     </g>
     <g id="line2d_16">
      <g>
       <use style="stroke:#000000;stroke-width:0.8;" x="588.126816" xlink:href="#m2f6b7a9a53" y="172.8"/>
      </g>
     </g>
     <g id="text_8">
      <!-- 2022-01 -->
      <g transform="translate(567.23541 187.398438)scale(0.1 -0.1)">
       <use xlink:href="#DejaVuSans-50"/>
       <use x="63.623047" xlink:href="#DejaVuSans-48"/>
       <use x="127.246094" xlink:href="#DejaVuSans-50"/>
       <use x="190.869141" xlink:href="#DejaVuSans-50"/>
       <use x="254.492188" xlink:href="#DejaVuSans-45"/>
       <use x="290.576172" xlink:href="#DejaVuSans-48"/>
       <use x="354.199219" xlink:href="#DejaVuSans-49"/>
      </g>
     </g>
    </g>
    <g id="text_9">
     <!-- Datum -->
     <g transform="translate(343.086719 201.076562)scale(0.1 -0.1)">
      <defs>
       <path d="M 19.671875 64.796875 
L 19.671875 8.109375 
L 31.59375 8.109375 
Q 46.6875 8.109375 53.6875 14.9375 
Q 60.6875 21.78125 60.6875 36.53125 
Q 60.6875 51.171875 53.6875 57.984375 
Q 46.6875 64.796875 31.59375 64.796875 
z
M 9.8125 72.90625 
L 30.078125 72.90625 
Q 51.265625 72.90625 61.171875 64.09375 
Q 71.09375 55.28125 71.09375 36.53125 
Q 71.09375 17.671875 61.125 8.828125 
Q 51.171875 0 30.078125 0 
L 9.8125 0 
z
" id="DejaVuSans-68"/>
       <path d="M 34.28125 27.484375 
Q 23.390625 27.484375 19.1875 25 
Q 14.984375 22.515625 14.984375 16.5 
Q 14.984375 11.71875 18.140625 8.90625 
Q 21.296875 6.109375 26.703125 6.109375 
Q 34.1875 6.109375 38.703125 11.40625 
Q 43.21875 16.703125 43.21875 25.484375 
L 43.21875 27.484375 
z
M 52.203125 31.203125 
L 52.203125 0 
L 43.21875 0 
L 43.21875 8.296875 
Q 40.140625 3.328125 35.546875 0.953125 
Q 30.953125 -1.421875 24.3125 -1.421875 
Q 15.921875 -1.421875 10.953125 3.296875 
Q 6 8.015625 6 15.921875 
Q 6 25.140625 12.171875 29.828125 
Q 18.359375 34.515625 30.609375 34.515625 
L 43.21875 34.515625 
L 43.21875 35.40625 
Q 43.21875 41.609375 39.140625 45 
Q 35.0625 48.390625 27.6875 48.390625 
Q 23 48.390625 18.546875 47.265625 
Q 14.109375 46.140625 10.015625 43.890625 
L 10.015625 52.203125 
Q 14.9375 54.109375 19.578125 55.046875 
Q 24.21875 56 28.609375 56 
Q 40.484375 56 46.34375 49.84375 
Q 52.203125 43.703125 52.203125 31.203125 
z
" id="DejaVuSans-97"/>
       <path d="M 18.3125 70.21875 
L 18.3125 54.6875 
L 36.8125 54.6875 
L 36.8125 47.703125 
L 18.3125 47.703125 
L 18.3125 18.015625 
Q 18.3125 11.328125 20.140625 9.421875 
Q 21.96875 7.515625 27.59375 7.515625 
L 36.8125 7.515625 
L 36.8125 0 
L 27.59375 0 
Q 17.1875 0 13.234375 3.875 
Q 9.28125 7.765625 9.28125 18.015625 
L 9.28125 47.703125 
L 2.6875 47.703125 
L 2.6875 54.6875 
L 9.28125 54.6875 
L 9.28125 70.21875 
z
" id="DejaVuSans-116"/>
       <path d="M 8.5 21.578125 
L 8.5 54.6875 
L 17.484375 54.6875 
L 17.484375 21.921875 
Q 17.484375 14.15625 20.5 10.265625 
Q 23.53125 6.390625 29.59375 6.390625 
Q 36.859375 6.390625 41.078125 11.03125 
Q 45.3125 15.671875 45.3125 23.6875 
L 45.3125 54.6875 
L 54.296875 54.6875 
L 54.296875 0 
L 45.3125 0 
L 45.3125 8.40625 
Q 42.046875 3.421875 37.71875 1 
Q 33.40625 -1.421875 27.6875 -1.421875 
Q 18.265625 -1.421875 13.375 4.4375 
Q 8.5 10.296875 8.5 21.578125 
z
M 31.109375 56 
z
" id="DejaVuSans-117"/>
       <path d="M 52 44.1875 
Q 55.375 50.25 60.0625 53.125 
Q 64.75 56 71.09375 56 
Q 79.640625 56 84.28125 50.015625 
Q 88.921875 44.046875 88.921875 33.015625 
L 88.921875 0 
L 79.890625 0 
L 79.890625 32.71875 
Q 79.890625 40.578125 77.09375 44.375 
Q 74.3125 48.1875 68.609375 48.1875 
Q 61.625 48.1875 57.5625 43.546875 
Q 53.515625 38.921875 53.515625 30.90625 
L 53.515625 0 
L 44.484375 0 
L 44.484375 32.71875 
Q 44.484375 40.625 41.703125 44.40625 
Q 38.921875 48.1875 33.109375 48.1875 
Q 26.21875 48.1875 22.15625 43.53125 
Q 18.109375 38.875 18.109375 30.90625 
L 18.109375 0 
L 9.078125 0 
L 9.078125 54.6875 
L 18.109375 54.6875 
L 18.109375 46.1875 
Q 21.1875 51.21875 25.484375 53.609375 
Q 29.78125 56 35.6875 56 
Q 41.65625 56 45.828125 52.96875 
Q 50 49.953125 52 44.1875 
z
" id="DejaVuSans-109"/>
      </defs>
      <use xlink:href="#DejaVuSans-68"/>
      <use x="77.001953" xlink:href="#DejaVuSans-97"/>
      <use x="138.28125" xlink:href="#DejaVuSans-116"/>
      <use x="177.490234" xlink:href="#DejaVuSans-117"/>
      <use x="240.869141" xlink:href="#DejaVuSans-109"/>
     </g>
    </g>
   </g>
   <g id="matplotlib.axis_2">
    <g id="ytick_1">
     <g id="line2d_17">
      <path clip-path="url(#pc12dbf6c2d)" d="M 64.8 172.8 
L 655.2 172.8 
" style="fill:none;stroke:#808080;stroke-dasharray:6.4,1.6,1,1.6;stroke-dashoffset:0;stroke-opacity:0.3;"/>
     </g>
     <g id="line2d_18">
      <defs>
       <path d="M 0 0 
L -3.5 0 
" id="mebc526537a" style="stroke:#000000;stroke-width:0.8;"/>
      </defs>
      <g>
       <use style="stroke:#000000;stroke-width:0.8;" x="64.8" xlink:href="#mebc526537a" y="172.8"/>
      </g>
     </g>
     <g id="text_10">
      <!-- 0 -->
      <g transform="translate(51.4375 176.599219)scale(0.1 -0.1)">
       <use xlink:href="#DejaVuSans-48"/>
      </g>
     </g>
    </g>
    <g id="ytick_2">
     <g id="line2d_19">
      <path clip-path="url(#pc12dbf6c2d)" d="M 64.8 143.424 
L 655.2 143.424 
" style="fill:none;stroke:#808080;stroke-dasharray:6.4,1.6,1,1.6;stroke-dashoffset:0;stroke-opacity:0.3;"/>
     </g>
     <g id="line2d_20">
      <g>
       <use style="stroke:#000000;stroke-width:0.8;" x="64.8" xlink:href="#mebc526537a" y="143.424"/>
      </g>
     </g>
     <g id="text_11">
      <!-- 50T -->
      <g transform="translate(38.967187 147.223219)scale(0.1 -0.1)">
       <defs>
        <path d="M 10.796875 72.90625 
L 49.515625 72.90625 
L 49.515625 64.59375 
L 19.828125 64.59375 
L 19.828125 46.734375 
Q 21.96875 47.46875 24.109375 47.828125 
Q 26.265625 48.1875 28.421875 48.1875 
Q 40.625 48.1875 47.75 41.5 
Q 54.890625 34.8125 54.890625 23.390625 
Q 54.890625 11.625 47.5625 5.09375 
Q 40.234375 -1.421875 26.90625 -1.421875 
Q 22.3125 -1.421875 17.546875 -0.640625 
Q 12.796875 0.140625 7.71875 1.703125 
L 7.71875 11.625 
Q 12.109375 9.234375 16.796875 8.0625 
Q 21.484375 6.890625 26.703125 6.890625 
Q 35.15625 6.890625 40.078125 11.328125 
Q 45.015625 15.765625 45.015625 23.390625 
Q 45.015625 31 40.078125 35.4375 
Q 35.15625 39.890625 26.703125 39.890625 
Q 22.75 39.890625 18.8125 39.015625 
Q 14.890625 38.140625 10.796875 36.28125 
z
" id="DejaVuSans-53"/>
        <path d="M -0.296875 72.90625 
L 61.375 72.90625 
L 61.375 64.59375 
L 35.5 64.59375 
L 35.5 0 
L 25.59375 0 
L 25.59375 64.59375 
L -0.296875 64.59375 
z
" id="DejaVuSans-84"/>
       </defs>
       <use xlink:href="#DejaVuSans-53"/>
       <use x="63.623047" xlink:href="#DejaVuSans-48"/>
       <use x="127.246094" xlink:href="#DejaVuSans-84"/>
      </g>
     </g>
    </g>
    <g id="ytick_3">
     <g id="line2d_21">
      <path clip-path="url(#pc12dbf6c2d)" d="M 64.8 114.048 
L 655.2 114.048 
" style="fill:none;stroke:#808080;stroke-dasharray:6.4,1.6,1,1.6;stroke-dashoffset:0;stroke-opacity:0.3;"/>
     </g>
     <g id="line2d_22">
      <g>
       <use style="stroke:#000000;stroke-width:0.8;" x="64.8" xlink:href="#mebc526537a" y="114.048"/>
      </g>
     </g>
     <g id="text_12">
      <!-- 100T -->
      <g transform="translate(32.604687 117.847219)scale(0.1 -0.1)">
       <use xlink:href="#DejaVuSans-49"/>
       <use x="63.623047" xlink:href="#DejaVuSans-48"/>
       <use x="127.246094" xlink:href="#DejaVuSans-48"/>
       <use x="190.869141" xlink:href="#DejaVuSans-84"/>
      </g>
     </g>
    </g>
    <g id="ytick_4">
     <g id="line2d_23">
      <path clip-path="url(#pc12dbf6c2d)" d="M 64.8 84.672 
L 655.2 84.672 
" style="fill:none;stroke:#808080;stroke-dasharray:6.4,1.6,1,1.6;stroke-dashoffset:0;stroke-opacity:0.3;"/>
     </g>
     <g id="line2d_24">
      <g>
       <use style="stroke:#000000;stroke-width:0.8;" x="64.8" xlink:href="#mebc526537a" y="84.672"/>
      </g>
     </g>
     <g id="text_13">
      <!-- 150T -->
      <g transform="translate(32.604687 88.471219)scale(0.1 -0.1)">
       <use xlink:href="#DejaVuSans-49"/>
       <use x="63.623047" xlink:href="#DejaVuSans-53"/>
       <use x="127.246094" xlink:href="#DejaVuSans-48"/>
       <use x="190.869141" xlink:href="#DejaVuSans-84"/>
      </g>
     </g>
    </g>
    <g id="ytick_5">
     <g id="line2d_25">
      <path clip-path="url(#pc12dbf6c2d)" d="M 64.8 55.296 
L 655.2 55.296 
" style="fill:none;stroke:#808080;stroke-dasharray:6.4,1.6,1,1.6;stroke-dashoffset:0;stroke-opacity:0.3;"/>
     </g>
     <g id="line2d_26">
      <g>
       <use style="stroke:#000000;stroke-width:0.8;" x="64.8" xlink:href="#mebc526537a" y="55.296"/>
      </g>
     </g>
     <g id="text_14">
      <!-- 200T -->
      <g transform="translate(32.604687 59.095219)scale(0.1 -0.1)">
       <use xlink:href="#DejaVuSans-50"/>
       <use x="63.623047" xlink:href="#DejaVuSans-48"/>
       <use x="127.246094" xlink:href="#DejaVuSans-48"/>
       <use x="190.869141" xlink:href="#DejaVuSans-84"/>
      </g>
     </g>
    </g>
    <g id="ytick_6">
     <g id="line2d_27">
      <path clip-path="url(#pc12dbf6c2d)" d="M 64.8 25.92 
L 655.2 25.92 
" style="fill:none;stroke:#808080;stroke-dasharray:6.4,1.6,1,1.6;stroke-dashoffset:0;stroke-opacity:0.3;"/>
     </g>
     <g id="line2d_28">
      <g>
       <use style="stroke:#000000;stroke-width:0.8;" x="64.8" xlink:href="#mebc526537a" y="25.92"/>
      </g>
     </g>
     <g id="text_15">
      <!-- 250T -->
      <g transform="translate(32.604687 29.719219)scale(0.1 -0.1)">
       <use xlink:href="#DejaVuSans-50"/>
       <use x="63.623047" xlink:href="#DejaVuSans-53"/>
       <use x="127.246094" xlink:href="#DejaVuSans-48"/>
       <use x="190.869141" xlink:href="#DejaVuSans-84"/>
      </g>
     </g>
    </g>
    <g id="text_16">
     <!-- Deeltjes per 100k inwoners -->
     <g transform="translate(26.525 167.906875)rotate(-90)scale(0.1 -0.1)">
      <defs>
       <path d="M 56.203125 29.59375 
L 56.203125 25.203125 
L 14.890625 25.203125 
Q 15.484375 15.921875 20.484375 11.0625 
Q 25.484375 6.203125 34.421875 6.203125 
Q 39.59375 6.203125 44.453125 7.46875 
Q 49.3125 8.734375 54.109375 11.28125 
L 54.109375 2.78125 
Q 49.265625 0.734375 44.1875 -0.34375 
Q 39.109375 -1.421875 33.890625 -1.421875 
Q 20.796875 -1.421875 13.15625 6.1875 
Q 5.515625 13.8125 5.515625 26.8125 
Q 5.515625 40.234375 12.765625 48.109375 
Q 20.015625 56 32.328125 56 
Q 43.359375 56 49.78125 48.890625 
Q 56.203125 41.796875 56.203125 29.59375 
z
M 47.21875 32.234375 
Q 47.125 39.59375 43.09375 43.984375 
Q 39.0625 48.390625 32.421875 48.390625 
Q 24.90625 48.390625 20.390625 44.140625 
Q 15.875 39.890625 15.1875 32.171875 
z
" id="DejaVuSans-101"/>
       <path d="M 9.421875 75.984375 
L 18.40625 75.984375 
L 18.40625 0 
L 9.421875 0 
z
" id="DejaVuSans-108"/>
       <path d="M 9.421875 54.6875 
L 18.40625 54.6875 
L 18.40625 -0.984375 
Q 18.40625 -11.421875 14.421875 -16.109375 
Q 10.453125 -20.796875 1.609375 -20.796875 
L -1.8125 -20.796875 
L -1.8125 -13.1875 
L 0.59375 -13.1875 
Q 5.71875 -13.1875 7.5625 -10.8125 
Q 9.421875 -8.453125 9.421875 -0.984375 
z
M 9.421875 75.984375 
L 18.40625 75.984375 
L 18.40625 64.59375 
L 9.421875 64.59375 
z
" id="DejaVuSans-106"/>
       <path d="M 44.28125 53.078125 
L 44.28125 44.578125 
Q 40.484375 46.53125 36.375 47.5 
Q 32.28125 48.484375 27.875 48.484375 
Q 21.1875 48.484375 17.84375 46.4375 
Q 14.5 44.390625 14.5 40.28125 
Q 14.5 37.15625 16.890625 35.375 
Q 19.28125 33.59375 26.515625 31.984375 
L 29.59375 31.296875 
Q 39.15625 29.25 43.1875 25.515625 
Q 47.21875 21.78125 47.21875 15.09375 
Q 47.21875 7.46875 41.1875 3.015625 
Q 35.15625 -1.421875 24.609375 -1.421875 
Q 20.21875 -1.421875 15.453125 -0.5625 
Q 10.6875 0.296875 5.421875 2 
L 5.421875 11.28125 
Q 10.40625 8.6875 15.234375 7.390625 
Q 20.0625 6.109375 24.8125 6.109375 
Q 31.15625 6.109375 34.5625 8.28125 
Q 37.984375 10.453125 37.984375 14.40625 
Q 37.984375 18.0625 35.515625 20.015625 
Q 33.0625 21.96875 24.703125 23.78125 
L 21.578125 24.515625 
Q 13.234375 26.265625 9.515625 29.90625 
Q 5.8125 33.546875 5.8125 39.890625 
Q 5.8125 47.609375 11.28125 51.796875 
Q 16.75 56 26.8125 56 
Q 31.78125 56 36.171875 55.265625 
Q 40.578125 54.546875 44.28125 53.078125 
z
" id="DejaVuSans-115"/>
       <path id="DejaVuSans-32"/>
       <path d="M 18.109375 8.203125 
L 18.109375 -20.796875 
L 9.078125 -20.796875 
L 9.078125 54.6875 
L 18.109375 54.6875 
L 18.109375 46.390625 
Q 20.953125 51.265625 25.265625 53.625 
Q 29.59375 56 35.59375 56 
Q 45.5625 56 51.78125 48.09375 
Q 58.015625 40.1875 58.015625 27.296875 
Q 58.015625 14.40625 51.78125 6.484375 
Q 45.5625 -1.421875 35.59375 -1.421875 
Q 29.59375 -1.421875 25.265625 0.953125 
Q 20.953125 3.328125 18.109375 8.203125 
z
M 48.6875 27.296875 
Q 48.6875 37.203125 44.609375 42.84375 
Q 40.53125 48.484375 33.40625 48.484375 
Q 26.265625 48.484375 22.1875 42.84375 
Q 18.109375 37.203125 18.109375 27.296875 
Q 18.109375 17.390625 22.1875 11.75 
Q 26.265625 6.109375 33.40625 6.109375 
Q 40.53125 6.109375 44.609375 11.75 
Q 48.6875 17.390625 48.6875 27.296875 
z
" id="DejaVuSans-112"/>
       <path d="M 41.109375 46.296875 
Q 39.59375 47.171875 37.8125 47.578125 
Q 36.03125 48 33.890625 48 
Q 26.265625 48 22.1875 43.046875 
Q 18.109375 38.09375 18.109375 28.8125 
L 18.109375 0 
L 9.078125 0 
L 9.078125 54.6875 
L 18.109375 54.6875 
L 18.109375 46.1875 
Q 20.953125 51.171875 25.484375 53.578125 
Q 30.03125 56 36.53125 56 
Q 37.453125 56 38.578125 55.875 
Q 39.703125 55.765625 41.0625 55.515625 
z
" id="DejaVuSans-114"/>
       <path d="M 9.078125 75.984375 
L 18.109375 75.984375 
L 18.109375 31.109375 
L 44.921875 54.6875 
L 56.390625 54.6875 
L 27.390625 29.109375 
L 57.625 0 
L 45.90625 0 
L 18.109375 26.703125 
L 18.109375 0 
L 9.078125 0 
z
" id="DejaVuSans-107"/>
       <path d="M 9.421875 54.6875 
L 18.40625 54.6875 
L 18.40625 0 
L 9.421875 0 
z
M 9.421875 75.984375 
L 18.40625 75.984375 
L 18.40625 64.59375 
L 9.421875 64.59375 
z
" id="DejaVuSans-105"/>
       <path d="M 54.890625 33.015625 
L 54.890625 0 
L 45.90625 0 
L 45.90625 32.71875 
Q 45.90625 40.484375 42.875 44.328125 
Q 39.84375 48.1875 33.796875 48.1875 
Q 26.515625 48.1875 22.3125 43.546875 
Q 18.109375 38.921875 18.109375 30.90625 
L 18.109375 0 
L 9.078125 0 
L 9.078125 54.6875 
L 18.109375 54.6875 
L 18.109375 46.1875 
Q 21.34375 51.125 25.703125 53.5625 
Q 30.078125 56 35.796875 56 
Q 45.21875 56 50.046875 50.171875 
Q 54.890625 44.34375 54.890625 33.015625 
z
" id="DejaVuSans-110"/>
       <path d="M 4.203125 54.6875 
L 13.1875 54.6875 
L 24.421875 12.015625 
L 35.59375 54.6875 
L 46.1875 54.6875 
L 57.421875 12.015625 
L 68.609375 54.6875 
L 77.59375 54.6875 
L 63.28125 0 
L 52.6875 0 
L 40.921875 44.828125 
L 29.109375 0 
L 18.5 0 
z
" id="DejaVuSans-119"/>
       <path d="M 30.609375 48.390625 
Q 23.390625 48.390625 19.1875 42.75 
Q 14.984375 37.109375 14.984375 27.296875 
Q 14.984375 17.484375 19.15625 11.84375 
Q 23.34375 6.203125 30.609375 6.203125 
Q 37.796875 6.203125 41.984375 11.859375 
Q 46.1875 17.53125 46.1875 27.296875 
Q 46.1875 37.015625 41.984375 42.703125 
Q 37.796875 48.390625 30.609375 48.390625 
z
M 30.609375 56 
Q 42.328125 56 49.015625 48.375 
Q 55.71875 40.765625 55.71875 27.296875 
Q 55.71875 13.875 49.015625 6.21875 
Q 42.328125 -1.421875 30.609375 -1.421875 
Q 18.84375 -1.421875 12.171875 6.21875 
Q 5.515625 13.875 5.515625 27.296875 
Q 5.515625 40.765625 12.171875 48.375 
Q 18.84375 56 30.609375 56 
z
" id="DejaVuSans-111"/>
      </defs>
      <use xlink:href="#DejaVuSans-68"/>
      <use x="77.001953" xlink:href="#DejaVuSans-101"/>
      <use x="138.525391" xlink:href="#DejaVuSans-101"/>
      <use x="200.048828" xlink:href="#DejaVuSans-108"/>
      <use x="227.832031" xlink:href="#DejaVuSans-116"/>
      <use x="267.041016" xlink:href="#DejaVuSans-106"/>
      <use x="294.824219" xlink:href="#DejaVuSans-101"/>
      <use x="356.347656" xlink:href="#DejaVuSans-115"/>
      <use x="408.447266" xlink:href="#DejaVuSans-32"/>
      <use x="440.234375" xlink:href="#DejaVuSans-112"/>
      <use x="503.710938" xlink:href="#DejaVuSans-101"/>
      <use x="565.234375" xlink:href="#DejaVuSans-114"/>
      <use x="606.347656" xlink:href="#DejaVuSans-32"/>
      <use x="638.134766" xlink:href="#DejaVuSans-49"/>
      <use x="701.757812" xlink:href="#DejaVuSans-48"/>
      <use x="765.380859" xlink:href="#DejaVuSans-48"/>
      <use x="829.003906" xlink:href="#DejaVuSans-107"/>
      <use x="886.914062" xlink:href="#DejaVuSans-32"/>
      <use x="918.701172" xlink:href="#DejaVuSans-105"/>
      <use x="946.484375" xlink:href="#DejaVuSans-110"/>
      <use x="1009.863281" xlink:href="#DejaVuSans-119"/>
      <use x="1091.650391" xlink:href="#DejaVuSans-111"/>
      <use x="1152.832031" xlink:href="#DejaVuSans-110"/>
      <use x="1216.210938" xlink:href="#DejaVuSans-101"/>
      <use x="1277.734375" xlink:href="#DejaVuSans-114"/>
      <use x="1318.847656" xlink:href="#DejaVuSans-115"/>
     </g>
    </g>
   </g>
   <g id="line2d_29">
    <path clip-path="url(#pc12dbf6c2d)" d="M 87.417701 149.62313 
L 89.757464 153.044921 
L 92.097226 154.185517 
L 93.657067 156.466711 
L 95.99683 159.313926 
L 98.336592 160.232266 
L 99.896433 161.997726 
L 101.456275 163.498319 
L 103.016116 164.117031 
L 103.796037 164.649922 
L 104.575958 165.043198 
L 106.135799 165.481635 
L 108.475561 166.019312 
L 110.035403 166.849286 
L 111.595244 167.489669 
L 112.375165 167.779163 
L 115.494848 168.301966 
L 117.05469 168.891024 
L 118.614531 169.205898 
L 120.174373 169.789688 
L 121.734214 169.886737 
L 125.633818 169.745774 
L 131.093263 169.425928 
L 133.433025 169.587136 
L 134.212946 169.653089 
L 137.332629 169.79119 
L 141.232232 170.303038 
L 143.571995 170.352796 
L 147.471598 170.246267 
L 152.151123 170.206934 
L 157.610568 169.99455 
L 169.309379 169.551463 
L 170.0893 169.387028 
L 173.988904 168.830645 
L 175.548745 168.390619 
L 178.668428 167.525563 
L 180.228269 167.237995 
L 184.907794 167.223044 
L 188.807398 167.805586 
L 191.927081 167.783965 
L 194.266843 167.63416 
L 196.606605 167.838555 
L 198.946367 167.900967 
L 201.286129 168.234982 
L 203.625892 168.670091 
L 205.185733 168.790996 
L 209.085337 168.778722 
L 211.425099 168.542137 
L 212.984941 168.38384 
L 217.664465 168.006488 
L 219.224306 167.67578 
L 221.564069 166.856489 
L 223.12391 166.036509 
L 224.683752 164.987794 
L 226.243593 163.651277 
L 227.803435 161.935369 
L 229.363276 159.948858 
L 232.482959 155.494765 
L 236.382563 150.486905 
L 237.162483 149.690849 
L 238.722325 147.911697 
L 239.502246 147.381146 
L 240.282166 147.145121 
L 241.842008 146.339418 
L 242.621929 145.753496 
L 244.18177 144.096105 
L 245.741612 142.673499 
L 247.301453 141.070004 
L 248.861295 140.829852 
L 249.641215 140.561321 
L 250.421136 140.152377 
L 251.980978 139.821347 
L 252.760898 140.006593 
L 255.100661 142.391365 
L 256.660502 144.05949 
L 257.440423 144.631393 
L 259.780185 145.238122 
L 261.340026 145.994244 
L 262.899868 147.02128 
L 265.23963 147.643239 
L 266.019551 148.209882 
L 266.799472 149.061269 
L 269.919155 154.207054 
L 271.478996 156.274012 
L 274.598679 159.604072 
L 275.3786 160.335512 
L 276.15852 160.742846 
L 276.938441 160.942718 
L 280.058124 160.512218 
L 282.397886 159.789074 
L 284.737649 158.550491 
L 287.077411 156.56408 
L 290.197094 153.983377 
L 291.756935 153.235384 
L 292.536856 152.975856 
L 294.876618 152.596761 
L 296.43646 153.130849 
L 297.21638 153.727129 
L 298.776222 154.61649 
L 301.115984 155.954069 
L 301.895905 156.223591 
L 305.015588 156.474518 
L 305.795509 156.420059 
L 307.35535 155.818748 
L 308.135271 155.179003 
L 309.695112 154.204162 
L 312.814795 151.903873 
L 315.154557 150.798188 
L 315.934478 150.262256 
L 317.49432 149.554824 
L 320.614003 149.553465 
L 325.293527 150.67049 
L 326.853369 152.216013 
L 327.633289 152.927859 
L 330.752972 154.950335 
L 332.312814 155.634597 
L 333.872655 155.895725 
L 335.432497 156.118385 
L 338.55218 155.505923 
L 340.112021 155.533569 
L 340.891942 155.598232 
L 342.451783 156.045718 
L 344.011625 156.898475 
L 347.131308 158.670982 
L 347.911229 158.999327 
L 348.691149 159.464712 
L 350.250991 160.001978 
L 351.810832 160.344795 
L 353.370674 160.496253 
L 359.61004 160.658877 
L 361.949802 160.558862 
L 364.289564 160.284163 
L 367.409247 159.663042 
L 375.208454 158.319167 
L 376.768296 158.062771 
L 378.328137 157.748439 
L 381.44782 157.627745 
L 384.567503 157.863579 
L 386.907266 157.862051 
L 389.247028 158.346841 
L 390.806869 158.395515 
L 393.146631 158.061807 
L 395.486394 157.689513 
L 396.266314 157.713661 
L 397.826156 157.369156 
L 399.385997 156.982755 
L 400.945839 156.990991 
L 401.72576 157.033847 
L 402.50568 157.211315 
L 403.285601 157.594079 
L 407.185205 160.242799 
L 409.524967 162.122946 
L 411.864729 163.728343 
L 412.64465 164.163678 
L 415.764333 164.837556 
L 418.104095 165.495026 
L 420.443857 166.002386 
L 425.903303 167.427277 
L 428.243065 168.05736 
L 429.802906 168.23845 
L 431.362748 168.625536 
L 433.70251 168.878297 
L 436.822193 168.876009 
L 439.161955 168.509906 
L 440.721797 168.067268 
L 442.281638 167.307646 
L 443.84148 166.200553 
L 444.6214 165.50995 
L 445.401321 164.634812 
L 448.521004 160.140844 
L 452.420608 154.151335 
L 453.980449 152.24501 
L 454.76037 151.514004 
L 455.540291 151.116472 
L 459.439894 151.144274 
L 460.999736 151.552 
L 462.559577 152.050661 
L 464.899339 152.921069 
L 465.67926 153.046638 
L 466.459181 152.948982 
L 467.239102 152.664587 
L 469.578864 152.17186 
L 471.918626 151.353982 
L 474.258388 150.60725 
L 476.598151 149.993841 
L 478.157992 149.466062 
L 480.497754 148.327302 
L 481.277675 148.053677 
L 483.617437 147.84578 
L 484.397358 147.874119 
L 485.177279 148.020097 
L 486.73712 149.05927 
L 487.517041 149.802003 
L 488.296962 150.705176 
L 489.076882 151.837254 
L 494.536328 161.043952 
L 496.096169 163.060066 
L 497.656011 164.595433 
L 499.215852 165.64724 
L 500.775694 166.262164 
L 506.235139 167.648762 
L 509.354822 168.004044 
L 510.914663 167.878205 
L 512.474505 167.464202 
L 514.034346 166.818132 
L 515.594188 165.91805 
L 518.713871 163.649725 
L 521.053633 161.533618 
L 522.613474 159.772866 
L 524.953236 156.809788 
L 529.632761 150.670699 
L 531.192602 148.780237 
L 531.972523 148.147846 
L 536.652048 145.309319 
L 538.211889 143.920903 
L 538.99181 143.104496 
L 540.551651 140.964406 
L 542.111493 138.094101 
L 544.451255 132.665852 
L 547.570938 124.574692 
L 549.130779 120.466296 
L 550.690621 117.086086 
L 553.030383 112.745473 
L 554.590225 110.665349 
L 555.370145 110.129829 
L 556.150066 109.915117 
L 556.929987 110.097366 
L 557.709908 110.556115 
L 559.269749 112.223953 
L 560.04967 113.300284 
L 561.609511 115.983527 
L 565.509115 123.710119 
L 566.289036 124.783118 
L 567.068956 125.579086 
L 567.848877 126.062041 
L 569.408719 126.655118 
L 570.188639 126.831342 
L 574.088243 127.150836 
L 576.428005 127.721068 
L 577.207926 128.122383 
L 577.987847 128.819434 
L 579.547688 130.455143 
L 581.10753 131.809598 
L 581.88745 132.409993 
L 583.447292 133.82783 
L 586.566975 135.650536 
L 587.346896 135.960629 
L 588.126816 136.091314 
L 590.466579 135.972774 
L 591.246499 135.835539 
L 592.02642 135.50888 
L 592.806341 134.723603 
L 595.146103 131.612382 
L 595.926024 130.175376 
L 597.485865 126.571007 
L 598.265786 124.445862 
L 599.825627 119.302768 
L 601.385469 113.029363 
L 606.844914 88.926502 
L 608.404756 81.84645 
L 609.964597 75.965146 
L 610.744518 73.491161 
L 611.524439 71.408731 
L 612.304359 69.809679 
L 613.864201 67.197677 
L 614.644122 66.250331 
L 615.424042 66.045384 
L 616.203963 66.532116 
L 616.983884 67.52462 
L 618.543725 70.094427 
L 619.323646 71.645014 
L 621.663408 77.864316 
L 623.22325 82.197219 
L 624.783091 87.307168 
L 625.563012 89.396406 
L 626.342933 90.943966 
L 627.122853 92.123008 
L 627.902774 93.055605 
L 628.682695 93.305691 
L 629.462616 92.95373 
L 630.242536 91.858002 
L 631.022457 90.29607 
L 631.802378 88.184345 
L 632.582299 85.423285 
L 633.362219 82.226317 
L 634.922061 74.082482 
L 637.261823 61.563759 
L 638.041744 57.859419 
L 639.601585 52.139957 
L 640.381506 49.965663 
L 641.161427 48.207434 
L 641.941347 46.898332 
L 646.620872 43.195981 
L 646.620872 43.195981 
" style="fill:none;stroke:#008000;stroke-linecap:square;stroke-width:1.5;"/>
   </g>
   <g id="line2d_30">
    <path clip-path="url(#pc12dbf6c2d)" d="M 650.520476 172.8 
L 650.520476 25.92 
" style="fill:none;stroke:#ff0000;stroke-linecap:square;stroke-width:0.5;"/>
   </g>
   <g id="patch_3">
    <path d="M 64.8 172.8 
L 64.8 25.92 
" style="fill:none;stroke:#000000;stroke-linecap:square;stroke-linejoin:miter;stroke-width:0.8;"/>
   </g>
   <g id="patch_4">
    <path d="M 655.2 172.8 
L 655.2 25.92 
" style="fill:none;stroke:#000000;stroke-linecap:square;stroke-linejoin:miter;stroke-width:0.8;"/>
   </g>
   <g id="patch_5">
    <path d="M 64.8 172.8 
L 655.2 172.8 
" style="fill:none;stroke:#000000;stroke-linecap:square;stroke-linejoin:miter;stroke-width:0.8;"/>
   </g>
   <g id="patch_6">
    <path d="M 64.8 25.92 
L 655.2 25.92 
" style="fill:none;stroke:#000000;stroke-linecap:square;stroke-linejoin:miter;stroke-width:0.8;"/>
   </g>
   <g id="text_17">
    <!-- Concentratie SARS-CoV-2 RNA in rioolwater per 100.000 inwoners -->
    <g transform="translate(161.8425 19.92)scale(0.12 -0.12)">
     <defs>
      <path d="M 64.40625 67.28125 
L 64.40625 56.890625 
Q 59.421875 61.53125 53.78125 63.8125 
Q 48.140625 66.109375 41.796875 66.109375 
Q 29.296875 66.109375 22.65625 58.46875 
Q 16.015625 50.828125 16.015625 36.375 
Q 16.015625 21.96875 22.65625 14.328125 
Q 29.296875 6.6875 41.796875 6.6875 
Q 48.140625 6.6875 53.78125 8.984375 
Q 59.421875 11.28125 64.40625 15.921875 
L 64.40625 5.609375 
Q 59.234375 2.09375 53.4375 0.328125 
Q 47.65625 -1.421875 41.21875 -1.421875 
Q 24.65625 -1.421875 15.125 8.703125 
Q 5.609375 18.84375 5.609375 36.375 
Q 5.609375 53.953125 15.125 64.078125 
Q 24.65625 74.21875 41.21875 74.21875 
Q 47.75 74.21875 53.53125 72.484375 
Q 59.328125 70.75 64.40625 67.28125 
z
" id="DejaVuSans-67"/>
      <path d="M 48.78125 52.59375 
L 48.78125 44.1875 
Q 44.96875 46.296875 41.140625 47.34375 
Q 37.3125 48.390625 33.40625 48.390625 
Q 24.65625 48.390625 19.8125 42.84375 
Q 14.984375 37.3125 14.984375 27.296875 
Q 14.984375 17.28125 19.8125 11.734375 
Q 24.65625 6.203125 33.40625 6.203125 
Q 37.3125 6.203125 41.140625 7.25 
Q 44.96875 8.296875 48.78125 10.40625 
L 48.78125 2.09375 
Q 45.015625 0.34375 40.984375 -0.53125 
Q 36.96875 -1.421875 32.421875 -1.421875 
Q 20.0625 -1.421875 12.78125 6.34375 
Q 5.515625 14.109375 5.515625 27.296875 
Q 5.515625 40.671875 12.859375 48.328125 
Q 20.21875 56 33.015625 56 
Q 37.15625 56 41.109375 55.140625 
Q 45.0625 54.296875 48.78125 52.59375 
z
" id="DejaVuSans-99"/>
      <path d="M 53.515625 70.515625 
L 53.515625 60.890625 
Q 47.90625 63.578125 42.921875 64.890625 
Q 37.9375 66.21875 33.296875 66.21875 
Q 25.25 66.21875 20.875 63.09375 
Q 16.5 59.96875 16.5 54.203125 
Q 16.5 49.359375 19.40625 46.890625 
Q 22.3125 44.4375 30.421875 42.921875 
L 36.375 41.703125 
Q 47.40625 39.59375 52.65625 34.296875 
Q 57.90625 29 57.90625 20.125 
Q 57.90625 9.515625 50.796875 4.046875 
Q 43.703125 -1.421875 29.984375 -1.421875 
Q 24.8125 -1.421875 18.96875 -0.25 
Q 13.140625 0.921875 6.890625 3.21875 
L 6.890625 13.375 
Q 12.890625 10.015625 18.65625 8.296875 
Q 24.421875 6.59375 29.984375 6.59375 
Q 38.421875 6.59375 43.015625 9.90625 
Q 47.609375 13.234375 47.609375 19.390625 
Q 47.609375 24.75 44.3125 27.78125 
Q 41.015625 30.8125 33.5 32.328125 
L 27.484375 33.5 
Q 16.453125 35.6875 11.515625 40.375 
Q 6.59375 45.0625 6.59375 53.421875 
Q 6.59375 63.09375 13.40625 68.65625 
Q 20.21875 74.21875 32.171875 74.21875 
Q 37.3125 74.21875 42.625 73.28125 
Q 47.953125 72.359375 53.515625 70.515625 
z
" id="DejaVuSans-83"/>
      <path d="M 34.1875 63.1875 
L 20.796875 26.90625 
L 47.609375 26.90625 
z
M 28.609375 72.90625 
L 39.796875 72.90625 
L 67.578125 0 
L 57.328125 0 
L 50.6875 18.703125 
L 17.828125 18.703125 
L 11.1875 0 
L 0.78125 0 
z
" id="DejaVuSans-65"/>
      <path d="M 44.390625 34.1875 
Q 47.5625 33.109375 50.5625 29.59375 
Q 53.5625 26.078125 56.59375 19.921875 
L 66.609375 0 
L 56 0 
L 46.6875 18.703125 
Q 43.0625 26.03125 39.671875 28.421875 
Q 36.28125 30.8125 30.421875 30.8125 
L 19.671875 30.8125 
L 19.671875 0 
L 9.8125 0 
L 9.8125 72.90625 
L 32.078125 72.90625 
Q 44.578125 72.90625 50.734375 67.671875 
Q 56.890625 62.453125 56.890625 51.90625 
Q 56.890625 45.015625 53.6875 40.46875 
Q 50.484375 35.9375 44.390625 34.1875 
z
M 19.671875 64.796875 
L 19.671875 38.921875 
L 32.078125 38.921875 
Q 39.203125 38.921875 42.84375 42.21875 
Q 46.484375 45.515625 46.484375 51.90625 
Q 46.484375 58.296875 42.84375 61.546875 
Q 39.203125 64.796875 32.078125 64.796875 
z
" id="DejaVuSans-82"/>
      <path d="M 28.609375 0 
L 0.78125 72.90625 
L 11.078125 72.90625 
L 34.1875 11.53125 
L 57.328125 72.90625 
L 67.578125 72.90625 
L 39.796875 0 
z
" id="DejaVuSans-86"/>
      <path d="M 9.8125 72.90625 
L 23.09375 72.90625 
L 55.421875 11.921875 
L 55.421875 72.90625 
L 64.984375 72.90625 
L 64.984375 0 
L 51.703125 0 
L 19.390625 60.984375 
L 19.390625 0 
L 9.8125 0 
z
" id="DejaVuSans-78"/>
      <path d="M 10.6875 12.40625 
L 21 12.40625 
L 21 0 
L 10.6875 0 
z
" id="DejaVuSans-46"/>
     </defs>
     <use xlink:href="#DejaVuSans-67"/>
     <use x="69.824219" xlink:href="#DejaVuSans-111"/>
     <use x="131.005859" xlink:href="#DejaVuSans-110"/>
     <use x="194.384766" xlink:href="#DejaVuSans-99"/>
     <use x="249.365234" xlink:href="#DejaVuSans-101"/>
     <use x="310.888672" xlink:href="#DejaVuSans-110"/>
     <use x="374.267578" xlink:href="#DejaVuSans-116"/>
     <use x="413.476562" xlink:href="#DejaVuSans-114"/>
     <use x="454.589844" xlink:href="#DejaVuSans-97"/>
     <use x="515.869141" xlink:href="#DejaVuSans-116"/>
     <use x="555.078125" xlink:href="#DejaVuSans-105"/>
     <use x="582.861328" xlink:href="#DejaVuSans-101"/>
     <use x="644.384766" xlink:href="#DejaVuSans-32"/>
     <use x="676.171875" xlink:href="#DejaVuSans-83"/>
     <use x="741.523438" xlink:href="#DejaVuSans-65"/>
     <use x="809.931641" xlink:href="#DejaVuSans-82"/>
     <use x="879.414062" xlink:href="#DejaVuSans-83"/>
     <use x="942.890625" xlink:href="#DejaVuSans-45"/>
     <use x="978.974609" xlink:href="#DejaVuSans-67"/>
     <use x="1048.798828" xlink:href="#DejaVuSans-111"/>
     <use x="1109.980469" xlink:href="#DejaVuSans-86"/>
     <use x="1172.513672" xlink:href="#DejaVuSans-45"/>
     <use x="1208.597656" xlink:href="#DejaVuSans-50"/>
     <use x="1272.220703" xlink:href="#DejaVuSans-32"/>
     <use x="1304.007812" xlink:href="#DejaVuSans-82"/>
     <use x="1373.490234" xlink:href="#DejaVuSans-78"/>
     <use x="1448.294922" xlink:href="#DejaVuSans-65"/>
     <use x="1516.703125" xlink:href="#DejaVuSans-32"/>
     <use x="1548.490234" xlink:href="#DejaVuSans-105"/>
     <use x="1576.273438" xlink:href="#DejaVuSans-110"/>
     <use x="1639.652344" xlink:href="#DejaVuSans-32"/>
     <use x="1671.439453" xlink:href="#DejaVuSans-114"/>
     <use x="1712.552734" xlink:href="#DejaVuSans-105"/>
     <use x="1740.335938" xlink:href="#DejaVuSans-111"/>
     <use x="1801.517578" xlink:href="#DejaVuSans-111"/>
     <use x="1862.699219" xlink:href="#DejaVuSans-108"/>
     <use x="1890.482422" xlink:href="#DejaVuSans-119"/>
     <use x="1972.269531" xlink:href="#DejaVuSans-97"/>
     <use x="2033.548828" xlink:href="#DejaVuSans-116"/>
     <use x="2072.757812" xlink:href="#DejaVuSans-101"/>
     <use x="2134.28125" xlink:href="#DejaVuSans-114"/>
     <use x="2175.394531" xlink:href="#DejaVuSans-32"/>
     <use x="2207.181641" xlink:href="#DejaVuSans-112"/>
     <use x="2270.658203" xlink:href="#DejaVuSans-101"/>
     <use x="2332.181641" xlink:href="#DejaVuSans-114"/>
     <use x="2373.294922" xlink:href="#DejaVuSans-32"/>
     <use x="2405.082031" xlink:href="#DejaVuSans-49"/>
     <use x="2468.705078" xlink:href="#DejaVuSans-48"/>
     <use x="2532.328125" xlink:href="#DejaVuSans-48"/>
     <use x="2595.951172" xlink:href="#DejaVuSans-46"/>
     <use x="2627.738281" xlink:href="#DejaVuSans-48"/>
     <use x="2691.361328" xlink:href="#DejaVuSans-48"/>
     <use x="2754.984375" xlink:href="#DejaVuSans-48"/>
     <use x="2818.607422" xlink:href="#DejaVuSans-32"/>
     <use x="2850.394531" xlink:href="#DejaVuSans-105"/>
     <use x="2878.177734" xlink:href="#DejaVuSans-110"/>
     <use x="2941.556641" xlink:href="#DejaVuSans-119"/>
     <use x="3023.34375" xlink:href="#DejaVuSans-111"/>
     <use x="3084.525391" xlink:href="#DejaVuSans-110"/>
     <use x="3147.904297" xlink:href="#DejaVuSans-101"/>
     <use x="3209.427734" xlink:href="#DejaVuSans-114"/>
     <use x="3250.541016" xlink:href="#DejaVuSans-115"/>
    </g>
   </g>
   <g id="legend_1">
    <g id="patch_7">
     <path d="M 71.8 48.598125 
L 344.44375 48.598125 
Q 346.44375 48.598125 346.44375 46.598125 
L 346.44375 32.92 
Q 346.44375 30.92 344.44375 30.92 
L 71.8 30.92 
Q 69.8 30.92 69.8 32.92 
L 69.8 46.598125 
Q 69.8 48.598125 71.8 48.598125 
z
" style="fill:#ffffff;opacity:0.8;stroke:#cccccc;stroke-linejoin:miter;"/>
    </g>
    <g id="line2d_31">
     <path d="M 73.8 39.018437 
L 93.8 39.018437 
" style="fill:none;stroke:#008000;stroke-linecap:square;stroke-width:1.5;"/>
    </g>
    <g id="line2d_32"/>
    <g id="text_18">
     <!-- RNA deeltjes per 100.000 inwoners (gemiddeld) -->
     <g transform="translate(101.8 42.518437)scale(0.1 -0.1)">
      <defs>
       <path d="M 45.40625 46.390625 
L 45.40625 75.984375 
L 54.390625 75.984375 
L 54.390625 0 
L 45.40625 0 
L 45.40625 8.203125 
Q 42.578125 3.328125 38.25 0.953125 
Q 33.9375 -1.421875 27.875 -1.421875 
Q 17.96875 -1.421875 11.734375 6.484375 
Q 5.515625 14.40625 5.515625 27.296875 
Q 5.515625 40.1875 11.734375 48.09375 
Q 17.96875 56 27.875 56 
Q 33.9375 56 38.25 53.625 
Q 42.578125 51.265625 45.40625 46.390625 
z
M 14.796875 27.296875 
Q 14.796875 17.390625 18.875 11.75 
Q 22.953125 6.109375 30.078125 6.109375 
Q 37.203125 6.109375 41.296875 11.75 
Q 45.40625 17.390625 45.40625 27.296875 
Q 45.40625 37.203125 41.296875 42.84375 
Q 37.203125 48.484375 30.078125 48.484375 
Q 22.953125 48.484375 18.875 42.84375 
Q 14.796875 37.203125 14.796875 27.296875 
z
" id="DejaVuSans-100"/>
       <path d="M 31 75.875 
Q 24.46875 64.65625 21.28125 53.65625 
Q 18.109375 42.671875 18.109375 31.390625 
Q 18.109375 20.125 21.3125 9.0625 
Q 24.515625 -2 31 -13.1875 
L 23.1875 -13.1875 
Q 15.875 -1.703125 12.234375 9.375 
Q 8.59375 20.453125 8.59375 31.390625 
Q 8.59375 42.28125 12.203125 53.3125 
Q 15.828125 64.359375 23.1875 75.875 
z
" id="DejaVuSans-40"/>
       <path d="M 45.40625 27.984375 
Q 45.40625 37.75 41.375 43.109375 
Q 37.359375 48.484375 30.078125 48.484375 
Q 22.859375 48.484375 18.828125 43.109375 
Q 14.796875 37.75 14.796875 27.984375 
Q 14.796875 18.265625 18.828125 12.890625 
Q 22.859375 7.515625 30.078125 7.515625 
Q 37.359375 7.515625 41.375 12.890625 
Q 45.40625 18.265625 45.40625 27.984375 
z
M 54.390625 6.78125 
Q 54.390625 -7.171875 48.1875 -13.984375 
Q 42 -20.796875 29.203125 -20.796875 
Q 24.46875 -20.796875 20.265625 -20.09375 
Q 16.0625 -19.390625 12.109375 -17.921875 
L 12.109375 -9.1875 
Q 16.0625 -11.328125 19.921875 -12.34375 
Q 23.78125 -13.375 27.78125 -13.375 
Q 36.625 -13.375 41.015625 -8.765625 
Q 45.40625 -4.15625 45.40625 5.171875 
L 45.40625 9.625 
Q 42.625 4.78125 38.28125 2.390625 
Q 33.9375 0 27.875 0 
Q 17.828125 0 11.671875 7.65625 
Q 5.515625 15.328125 5.515625 27.984375 
Q 5.515625 40.671875 11.671875 48.328125 
Q 17.828125 56 27.875 56 
Q 33.9375 56 38.28125 53.609375 
Q 42.625 51.21875 45.40625 46.390625 
L 45.40625 54.6875 
L 54.390625 54.6875 
z
" id="DejaVuSans-103"/>
       <path d="M 8.015625 75.875 
L 15.828125 75.875 
Q 23.140625 64.359375 26.78125 53.3125 
Q 30.421875 42.28125 30.421875 31.390625 
Q 30.421875 20.453125 26.78125 9.375 
Q 23.140625 -1.703125 15.828125 -13.1875 
L 8.015625 -13.1875 
Q 14.5 -2 17.703125 9.0625 
Q 20.90625 20.125 20.90625 31.390625 
Q 20.90625 42.671875 17.703125 53.65625 
Q 14.5 64.65625 8.015625 75.875 
z
" id="DejaVuSans-41"/>
      </defs>
      <use xlink:href="#DejaVuSans-82"/>
      <use x="69.482422" xlink:href="#DejaVuSans-78"/>
      <use x="144.287109" xlink:href="#DejaVuSans-65"/>
      <use x="212.695312" xlink:href="#DejaVuSans-32"/>
      <use x="244.482422" xlink:href="#DejaVuSans-100"/>
      <use x="307.958984" xlink:href="#DejaVuSans-101"/>
      <use x="369.482422" xlink:href="#DejaVuSans-101"/>
      <use x="431.005859" xlink:href="#DejaVuSans-108"/>
      <use x="458.789062" xlink:href="#DejaVuSans-116"/>
      <use x="497.998047" xlink:href="#DejaVuSans-106"/>
      <use x="525.78125" xlink:href="#DejaVuSans-101"/>
      <use x="587.304688" xlink:href="#DejaVuSans-115"/>
      <use x="639.404297" xlink:href="#DejaVuSans-32"/>
      <use x="671.191406" xlink:href="#DejaVuSans-112"/>
      <use x="734.667969" xlink:href="#DejaVuSans-101"/>
      <use x="796.191406" xlink:href="#DejaVuSans-114"/>
      <use x="837.304688" xlink:href="#DejaVuSans-32"/>
      <use x="869.091797" xlink:href="#DejaVuSans-49"/>
      <use x="932.714844" xlink:href="#DejaVuSans-48"/>
      <use x="996.337891" xlink:href="#DejaVuSans-48"/>
      <use x="1059.960938" xlink:href="#DejaVuSans-46"/>
      <use x="1091.748047" xlink:href="#DejaVuSans-48"/>
      <use x="1155.371094" xlink:href="#DejaVuSans-48"/>
      <use x="1218.994141" xlink:href="#DejaVuSans-48"/>
      <use x="1282.617188" xlink:href="#DejaVuSans-32"/>
      <use x="1314.404297" xlink:href="#DejaVuSans-105"/>
      <use x="1342.1875" xlink:href="#DejaVuSans-110"/>
      <use x="1405.566406" xlink:href="#DejaVuSans-119"/>
      <use x="1487.353516" xlink:href="#DejaVuSans-111"/>
      <use x="1548.535156" xlink:href="#DejaVuSans-110"/>
      <use x="1611.914062" xlink:href="#DejaVuSans-101"/>
      <use x="1673.4375" xlink:href="#DejaVuSans-114"/>
      <use x="1714.550781" xlink:href="#DejaVuSans-115"/>
      <use x="1766.650391" xlink:href="#DejaVuSans-32"/>
      <use x="1798.4375" xlink:href="#DejaVuSans-40"/>
      <use x="1837.451172" xlink:href="#DejaVuSans-103"/>
      <use x="1900.927734" xlink:href="#DejaVuSans-101"/>
      <use x="1962.451172" xlink:href="#DejaVuSans-109"/>
      <use x="2059.863281" xlink:href="#DejaVuSans-105"/>
      <use x="2087.646484" xlink:href="#DejaVuSans-100"/>
      <use x="2151.123047" xlink:href="#DejaVuSans-100"/>
      <use x="2214.599609" xlink:href="#DejaVuSans-101"/>
      <use x="2276.123047" xlink:href="#DejaVuSans-108"/>
      <use x="2303.90625" xlink:href="#DejaVuSans-100"/>
      <use x="2367.382812" xlink:href="#DejaVuSans-41"/>
     </g>
    </g>
   </g>
   <g id="text_19">
    <g id="patch_8">
     <path d="M 645.430476 177.47125 
L 655.610476 177.47125 
Q 656.410476 177.47125 656.410476 176.67125 
L 656.410476 168.92875 
Q 656.410476 168.12875 655.610476 168.12875 
L 645.430476 168.12875 
Q 644.630476 168.12875 644.630476 168.92875 
L 644.630476 176.67125 
Q 644.630476 177.47125 645.430476 177.47125 
z
" style="fill:#ff0000;stroke:#ff0000;stroke-linejoin:miter;"/>
    </g>
    <!-- 22 -->
    <g style="fill:#ffffff;" transform="translate(645.430476 175.0075)scale(0.08 -0.08)">
     <use xlink:href="#DejaVuSans-50"/>
     <use x="63.623047" xlink:href="#DejaVuSans-50"/>
    </g>
   </g>
  </g>
  <g id="text_20">
   <!-- Gegenereerd op 2022-03-22 17:41 o.b.v. data tot 2022-03-17. -->
   <g style="fill:#808080;" transform="translate(7.2 204.88175)scale(0.08 -0.08)">
    <defs>
     <path d="M 59.515625 10.40625 
L 59.515625 29.984375 
L 43.40625 29.984375 
L 43.40625 38.09375 
L 69.28125 38.09375 
L 69.28125 6.78125 
Q 63.578125 2.734375 56.6875 0.65625 
Q 49.8125 -1.421875 42 -1.421875 
Q 24.90625 -1.421875 15.25 8.5625 
Q 5.609375 18.5625 5.609375 36.375 
Q 5.609375 54.25 15.25 64.234375 
Q 24.90625 74.21875 42 74.21875 
Q 49.125 74.21875 55.546875 72.453125 
Q 61.96875 70.703125 67.390625 67.28125 
L 67.390625 56.78125 
Q 61.921875 61.421875 55.765625 63.765625 
Q 49.609375 66.109375 42.828125 66.109375 
Q 29.4375 66.109375 22.71875 58.640625 
Q 16.015625 51.171875 16.015625 36.375 
Q 16.015625 21.625 22.71875 14.15625 
Q 29.4375 6.6875 42.828125 6.6875 
Q 48.046875 6.6875 52.140625 7.59375 
Q 56.25 8.5 59.515625 10.40625 
z
" id="DejaVuSans-71"/>
     <path d="M 40.578125 39.3125 
Q 47.65625 37.796875 51.625 33 
Q 55.609375 28.21875 55.609375 21.1875 
Q 55.609375 10.40625 48.1875 4.484375 
Q 40.765625 -1.421875 27.09375 -1.421875 
Q 22.515625 -1.421875 17.65625 -0.515625 
Q 12.796875 0.390625 7.625 2.203125 
L 7.625 11.71875 
Q 11.71875 9.328125 16.59375 8.109375 
Q 21.484375 6.890625 26.8125 6.890625 
Q 36.078125 6.890625 40.9375 10.546875 
Q 45.796875 14.203125 45.796875 21.1875 
Q 45.796875 27.640625 41.28125 31.265625 
Q 36.765625 34.90625 28.71875 34.90625 
L 20.21875 34.90625 
L 20.21875 43.015625 
L 29.109375 43.015625 
Q 36.375 43.015625 40.234375 45.921875 
Q 44.09375 48.828125 44.09375 54.296875 
Q 44.09375 59.90625 40.109375 62.90625 
Q 36.140625 65.921875 28.71875 65.921875 
Q 24.65625 65.921875 20.015625 65.03125 
Q 15.375 64.15625 9.8125 62.3125 
L 9.8125 71.09375 
Q 15.4375 72.65625 20.34375 73.4375 
Q 25.25 74.21875 29.59375 74.21875 
Q 40.828125 74.21875 47.359375 69.109375 
Q 53.90625 64.015625 53.90625 55.328125 
Q 53.90625 49.265625 50.4375 45.09375 
Q 46.96875 40.921875 40.578125 39.3125 
z
" id="DejaVuSans-51"/>
     <path d="M 11.71875 12.40625 
L 22.015625 12.40625 
L 22.015625 0 
L 11.71875 0 
z
M 11.71875 51.703125 
L 22.015625 51.703125 
L 22.015625 39.3125 
L 11.71875 39.3125 
z
" id="DejaVuSans-58"/>
     <path d="M 48.6875 27.296875 
Q 48.6875 37.203125 44.609375 42.84375 
Q 40.53125 48.484375 33.40625 48.484375 
Q 26.265625 48.484375 22.1875 42.84375 
Q 18.109375 37.203125 18.109375 27.296875 
Q 18.109375 17.390625 22.1875 11.75 
Q 26.265625 6.109375 33.40625 6.109375 
Q 40.53125 6.109375 44.609375 11.75 
Q 48.6875 17.390625 48.6875 27.296875 
z
M 18.109375 46.390625 
Q 20.953125 51.265625 25.265625 53.625 
Q 29.59375 56 35.59375 56 
Q 45.5625 56 51.78125 48.09375 
Q 58.015625 40.1875 58.015625 27.296875 
Q 58.015625 14.40625 51.78125 6.484375 
Q 45.5625 -1.421875 35.59375 -1.421875 
Q 29.59375 -1.421875 25.265625 0.953125 
Q 20.953125 3.328125 18.109375 8.203125 
L 18.109375 0 
L 9.078125 0 
L 9.078125 75.984375 
L 18.109375 75.984375 
z
" id="DejaVuSans-98"/>
     <path d="M 2.984375 54.6875 
L 12.5 54.6875 
L 29.59375 8.796875 
L 46.6875 54.6875 
L 56.203125 54.6875 
L 35.6875 0 
L 23.484375 0 
z
" id="DejaVuSans-118"/>
    </defs>
    <use xlink:href="#DejaVuSans-71"/>
    <use x="77.490234" xlink:href="#DejaVuSans-101"/>
    <use x="139.013672" xlink:href="#DejaVuSans-103"/>
    <use x="202.490234" xlink:href="#DejaVuSans-101"/>
    <use x="264.013672" xlink:href="#DejaVuSans-110"/>
    <use x="327.392578" xlink:href="#DejaVuSans-101"/>
    <use x="388.916016" xlink:href="#DejaVuSans-114"/>
    <use x="427.779297" xlink:href="#DejaVuSans-101"/>
    <use x="489.302734" xlink:href="#DejaVuSans-101"/>
    <use x="550.826172" xlink:href="#DejaVuSans-114"/>
    <use x="590.189453" xlink:href="#DejaVuSans-100"/>
    <use x="653.666016" xlink:href="#DejaVuSans-32"/>
    <use x="685.453125" xlink:href="#DejaVuSans-111"/>
    <use x="746.634766" xlink:href="#DejaVuSans-112"/>
    <use x="810.111328" xlink:href="#DejaVuSans-32"/>
    <use x="841.898438" xlink:href="#DejaVuSans-50"/>
    <use x="905.521484" xlink:href="#DejaVuSans-48"/>
    <use x="969.144531" xlink:href="#DejaVuSans-50"/>
    <use x="1032.767578" xlink:href="#DejaVuSans-50"/>
    <use x="1096.390625" xlink:href="#DejaVuSans-45"/>
    <use x="1132.474609" xlink:href="#DejaVuSans-48"/>
    <use x="1196.097656" xlink:href="#DejaVuSans-51"/>
    <use x="1259.720703" xlink:href="#DejaVuSans-45"/>
    <use x="1295.804688" xlink:href="#DejaVuSans-50"/>
    <use x="1359.427734" xlink:href="#DejaVuSans-50"/>
    <use x="1423.050781" xlink:href="#DejaVuSans-32"/>
    <use x="1454.837891" xlink:href="#DejaVuSans-49"/>
    <use x="1518.460938" xlink:href="#DejaVuSans-55"/>
    <use x="1582.083984" xlink:href="#DejaVuSans-58"/>
    <use x="1615.775391" xlink:href="#DejaVuSans-52"/>
    <use x="1679.398438" xlink:href="#DejaVuSans-49"/>
    <use x="1743.021484" xlink:href="#DejaVuSans-32"/>
    <use x="1774.808594" xlink:href="#DejaVuSans-111"/>
    <use x="1834.240234" xlink:href="#DejaVuSans-46"/>
    <use x="1866.027344" xlink:href="#DejaVuSans-98"/>
    <use x="1929.503906" xlink:href="#DejaVuSans-46"/>
    <use x="1961.291016" xlink:href="#DejaVuSans-118"/>
    <use x="2012.720703" xlink:href="#DejaVuSans-46"/>
    <use x="2044.507812" xlink:href="#DejaVuSans-32"/>
    <use x="2076.294922" xlink:href="#DejaVuSans-100"/>
    <use x="2139.771484" xlink:href="#DejaVuSans-97"/>
    <use x="2201.050781" xlink:href="#DejaVuSans-116"/>
    <use x="2240.259766" xlink:href="#DejaVuSans-97"/>
    <use x="2301.539062" xlink:href="#DejaVuSans-32"/>
    <use x="2333.326172" xlink:href="#DejaVuSans-116"/>
    <use x="2372.535156" xlink:href="#DejaVuSans-111"/>
    <use x="2433.716797" xlink:href="#DejaVuSans-116"/>
    <use x="2472.925781" xlink:href="#DejaVuSans-32"/>
    <use x="2504.712891" xlink:href="#DejaVuSans-50"/>
    <use x="2568.335938" xlink:href="#DejaVuSans-48"/>
    <use x="2631.958984" xlink:href="#DejaVuSans-50"/>
    <use x="2695.582031" xlink:href="#DejaVuSans-50"/>
    <use x="2759.205078" xlink:href="#DejaVuSans-45"/>
    <use x="2795.289062" xlink:href="#DejaVuSans-48"/>
    <use x="2858.912109" xlink:href="#DejaVuSans-51"/>
    <use x="2922.535156" xlink:href="#DejaVuSans-45"/>
    <use x="2958.619141" xlink:href="#DejaVuSans-49"/>
    <use x="3022.242188" xlink:href="#DejaVuSans-55"/>
    <use x="3085.865234" xlink:href="#DejaVuSans-46"/>
   </g>
   <!-- Source code: http://github.com/realrolfje/coronadata -->
   <g style="fill:#808080;" transform="translate(7.2 213.84)scale(0.08 -0.08)">
    <defs>
     <path d="M 54.890625 33.015625 
L 54.890625 0 
L 45.90625 0 
L 45.90625 32.71875 
Q 45.90625 40.484375 42.875 44.328125 
Q 39.84375 48.1875 33.796875 48.1875 
Q 26.515625 48.1875 22.3125 43.546875 
Q 18.109375 38.921875 18.109375 30.90625 
L 18.109375 0 
L 9.078125 0 
L 9.078125 75.984375 
L 18.109375 75.984375 
L 18.109375 46.1875 
Q 21.34375 51.125 25.703125 53.5625 
Q 30.078125 56 35.796875 56 
Q 45.21875 56 50.046875 50.171875 
Q 54.890625 44.34375 54.890625 33.015625 
z
" id="DejaVuSans-104"/>
     <path d="M 25.390625 72.90625 
L 33.6875 72.90625 
L 8.296875 -9.28125 
L 0 -9.28125 
z
" id="DejaVuSans-47"/>
     <path d="M 37.109375 75.984375 
L 37.109375 68.5 
L 28.515625 68.5 
Q 23.6875 68.5 21.796875 66.546875 
Q 19.921875 64.59375 19.921875 59.515625 
L 19.921875 54.6875 
L 34.71875 54.6875 
L 34.71875 47.703125 
L 19.921875 47.703125 
L 19.921875 0 
L 10.890625 0 
L 10.890625 47.703125 
L 2.296875 47.703125 
L 2.296875 54.6875 
L 10.890625 54.6875 
L 10.890625 58.5 
Q 10.890625 67.625 15.140625 71.796875 
Q 19.390625 75.984375 28.609375 75.984375 
z
" id="DejaVuSans-102"/>
    </defs>
    <use xlink:href="#DejaVuSans-83"/>
    <use x="63.476562" xlink:href="#DejaVuSans-111"/>
    <use x="124.658203" xlink:href="#DejaVuSans-117"/>
    <use x="188.037109" xlink:href="#DejaVuSans-114"/>
    <use x="226.900391" xlink:href="#DejaVuSans-99"/>
    <use x="281.880859" xlink:href="#DejaVuSans-101"/>
    <use x="343.404297" xlink:href="#DejaVuSans-32"/>
    <use x="375.191406" xlink:href="#DejaVuSans-99"/>
    <use x="430.171875" xlink:href="#DejaVuSans-111"/>
    <use x="491.353516" xlink:href="#DejaVuSans-100"/>
    <use x="554.830078" xlink:href="#DejaVuSans-101"/>
    <use x="616.353516" xlink:href="#DejaVuSans-58"/>
    <use x="650.044922" xlink:href="#DejaVuSans-32"/>
    <use x="681.832031" xlink:href="#DejaVuSans-104"/>
    <use x="745.210938" xlink:href="#DejaVuSans-116"/>
    <use x="784.419922" xlink:href="#DejaVuSans-116"/>
    <use x="823.628906" xlink:href="#DejaVuSans-112"/>
    <use x="887.105469" xlink:href="#DejaVuSans-58"/>
    <use x="920.796875" xlink:href="#DejaVuSans-47"/>
    <use x="954.488281" xlink:href="#DejaVuSans-47"/>
    <use x="988.179688" xlink:href="#DejaVuSans-103"/>
    <use x="1051.65625" xlink:href="#DejaVuSans-105"/>
    <use x="1079.439453" xlink:href="#DejaVuSans-116"/>
    <use x="1118.648438" xlink:href="#DejaVuSans-104"/>
    <use x="1182.027344" xlink:href="#DejaVuSans-117"/>
    <use x="1245.40625" xlink:href="#DejaVuSans-98"/>
    <use x="1308.882812" xlink:href="#DejaVuSans-46"/>
    <use x="1340.669922" xlink:href="#DejaVuSans-99"/>
    <use x="1395.650391" xlink:href="#DejaVuSans-111"/>
    <use x="1456.832031" xlink:href="#DejaVuSans-109"/>
    <use x="1554.244141" xlink:href="#DejaVuSans-47"/>
    <use x="1587.935547" xlink:href="#DejaVuSans-114"/>
    <use x="1626.798828" xlink:href="#DejaVuSans-101"/>
    <use x="1688.322266" xlink:href="#DejaVuSans-97"/>
    <use x="1749.601562" xlink:href="#DejaVuSans-108"/>
    <use x="1777.384766" xlink:href="#DejaVuSans-114"/>
    <use x="1816.248047" xlink:href="#DejaVuSans-111"/>
    <use x="1877.429688" xlink:href="#DejaVuSans-108"/>
    <use x="1905.212891" xlink:href="#DejaVuSans-102"/>
    <use x="1940.417969" xlink:href="#DejaVuSans-106"/>
    <use x="1968.201172" xlink:href="#DejaVuSans-101"/>
    <use x="2029.724609" xlink:href="#DejaVuSans-47"/>
    <use x="2063.416016" xlink:href="#DejaVuSans-99"/>
    <use x="2118.396484" xlink:href="#DejaVuSans-111"/>
    <use x="2179.578125" xlink:href="#DejaVuSans-114"/>
    <use x="2218.441406" xlink:href="#DejaVuSans-111"/>
    <use x="2279.623047" xlink:href="#DejaVuSans-110"/>
    <use x="2343.001953" xlink:href="#DejaVuSans-97"/>
    <use x="2404.28125" xlink:href="#DejaVuSans-100"/>
    <use x="2467.757812" xlink:href="#DejaVuSans-97"/>
    <use x="2529.037109" xlink:href="#DejaVuSans-116"/>
    <use x="2568.246094" xlink:href="#DejaVuSans-97"/>
   </g>
  </g>
  <g id="text_21">
   <!-- Bron: https://data.rivm.nl/covid-19 -->
   <g style="fill:#808080;" transform="translate(574.79875 213.84)scale(0.08 -0.08)">
    <defs>
     <path d="M 19.671875 34.8125 
L 19.671875 8.109375 
L 35.5 8.109375 
Q 43.453125 8.109375 47.28125 11.40625 
Q 51.125 14.703125 51.125 21.484375 
Q 51.125 28.328125 47.28125 31.5625 
Q 43.453125 34.8125 35.5 34.8125 
z
M 19.671875 64.796875 
L 19.671875 42.828125 
L 34.28125 42.828125 
Q 41.5 42.828125 45.03125 45.53125 
Q 48.578125 48.25 48.578125 53.8125 
Q 48.578125 59.328125 45.03125 62.0625 
Q 41.5 64.796875 34.28125 64.796875 
z
M 9.8125 72.90625 
L 35.015625 72.90625 
Q 46.296875 72.90625 52.390625 68.21875 
Q 58.5 63.53125 58.5 54.890625 
Q 58.5 48.1875 55.375 44.234375 
Q 52.25 40.28125 46.1875 39.3125 
Q 53.46875 37.75 57.5 32.78125 
Q 61.53125 27.828125 61.53125 20.40625 
Q 61.53125 10.640625 54.890625 5.3125 
Q 48.25 0 35.984375 0 
L 9.8125 0 
z
" id="DejaVuSans-66"/>
     <path d="M 10.984375 1.515625 
L 10.984375 10.5 
Q 14.703125 8.734375 18.5 7.8125 
Q 22.3125 6.890625 25.984375 6.890625 
Q 35.75 6.890625 40.890625 13.453125 
Q 46.046875 20.015625 46.78125 33.40625 
Q 43.953125 29.203125 39.59375 26.953125 
Q 35.25 24.703125 29.984375 24.703125 
Q 19.046875 24.703125 12.671875 31.3125 
Q 6.296875 37.9375 6.296875 49.421875 
Q 6.296875 60.640625 12.9375 67.421875 
Q 19.578125 74.21875 30.609375 74.21875 
Q 43.265625 74.21875 49.921875 64.515625 
Q 56.59375 54.828125 56.59375 36.375 
Q 56.59375 19.140625 48.40625 8.859375 
Q 40.234375 -1.421875 26.421875 -1.421875 
Q 22.703125 -1.421875 18.890625 -0.6875 
Q 15.09375 0.046875 10.984375 1.515625 
z
M 30.609375 32.421875 
Q 37.25 32.421875 41.125 36.953125 
Q 45.015625 41.5 45.015625 49.421875 
Q 45.015625 57.28125 41.125 61.84375 
Q 37.25 66.40625 30.609375 66.40625 
Q 23.96875 66.40625 20.09375 61.84375 
Q 16.21875 57.28125 16.21875 49.421875 
Q 16.21875 41.5 20.09375 36.953125 
Q 23.96875 32.421875 30.609375 32.421875 
z
" id="DejaVuSans-57"/>
    </defs>
    <use xlink:href="#DejaVuSans-66"/>
    <use x="68.603516" xlink:href="#DejaVuSans-114"/>
    <use x="107.466797" xlink:href="#DejaVuSans-111"/>
    <use x="168.648438" xlink:href="#DejaVuSans-110"/>
    <use x="232.027344" xlink:href="#DejaVuSans-58"/>
    <use x="265.71875" xlink:href="#DejaVuSans-32"/>
    <use x="297.505859" xlink:href="#DejaVuSans-104"/>
    <use x="360.884766" xlink:href="#DejaVuSans-116"/>
    <use x="400.09375" xlink:href="#DejaVuSans-116"/>
    <use x="439.302734" xlink:href="#DejaVuSans-112"/>
    <use x="502.779297" xlink:href="#DejaVuSans-115"/>
    <use x="554.878906" xlink:href="#DejaVuSans-58"/>
    <use x="588.570312" xlink:href="#DejaVuSans-47"/>
    <use x="622.261719" xlink:href="#DejaVuSans-47"/>
    <use x="655.953125" xlink:href="#DejaVuSans-100"/>
    <use x="719.429688" xlink:href="#DejaVuSans-97"/>
    <use x="780.708984" xlink:href="#DejaVuSans-116"/>
    <use x="819.917969" xlink:href="#DejaVuSans-97"/>
    <use x="881.197266" xlink:href="#DejaVuSans-46"/>
    <use x="912.984375" xlink:href="#DejaVuSans-114"/>
    <use x="954.097656" xlink:href="#DejaVuSans-105"/>
    <use x="981.880859" xlink:href="#DejaVuSans-118"/>
    <use x="1041.060547" xlink:href="#DejaVuSans-109"/>
    <use x="1138.472656" xlink:href="#DejaVuSans-46"/>
    <use x="1170.259766" xlink:href="#DejaVuSans-110"/>
    <use x="1233.638672" xlink:href="#DejaVuSans-108"/>
    <use x="1261.421875" xlink:href="#DejaVuSans-47"/>
    <use x="1295.113281" xlink:href="#DejaVuSans-99"/>
    <use x="1350.09375" xlink:href="#DejaVuSans-111"/>
    <use x="1411.275391" xlink:href="#DejaVuSans-118"/>
    <use x="1470.455078" xlink:href="#DejaVuSans-105"/>
    <use x="1498.238281" xlink:href="#DejaVuSans-100"/>
    <use x="1561.714844" xlink:href="#DejaVuSans-45"/>
    <use x="1597.798828" xlink:href="#DejaVuSans-49"/>
    <use x="1661.421875" xlink:href="#DejaVuSans-57"/>
   </g>
  </g>
  <g id="text_22">
   <g id="patch_9">
    <path d="M 68 66.14375 
L 206.835 66.14375 
L 206.835 50.40125 
L 68 50.40125 
z
" style="fill:#ffffff;stroke:#ffffff;stroke-linejoin:miter;"/>
   </g>
   <!-- (T = Terra = 1.000.000.000.000) -->
   <g style="fill:#808080;" transform="translate(72 60.48)scale(0.08 -0.08)">
    <defs>
     <path d="M 10.59375 45.40625 
L 73.1875 45.40625 
L 73.1875 37.203125 
L 10.59375 37.203125 
z
M 10.59375 25.484375 
L 73.1875 25.484375 
L 73.1875 17.1875 
L 10.59375 17.1875 
z
" id="DejaVuSans-61"/>
    </defs>
    <use xlink:href="#DejaVuSans-40"/>
    <use x="39.013672" xlink:href="#DejaVuSans-84"/>
    <use x="100.097656" xlink:href="#DejaVuSans-32"/>
    <use x="131.884766" xlink:href="#DejaVuSans-61"/>
    <use x="215.673828" xlink:href="#DejaVuSans-32"/>
    <use x="247.460938" xlink:href="#DejaVuSans-84"/>
    <use x="291.544922" xlink:href="#DejaVuSans-101"/>
    <use x="353.068359" xlink:href="#DejaVuSans-114"/>
    <use x="392.431641" xlink:href="#DejaVuSans-114"/>
    <use x="433.544922" xlink:href="#DejaVuSans-97"/>
    <use x="494.824219" xlink:href="#DejaVuSans-32"/>
    <use x="526.611328" xlink:href="#DejaVuSans-61"/>
    <use x="610.400391" xlink:href="#DejaVuSans-32"/>
    <use x="642.1875" xlink:href="#DejaVuSans-49"/>
    <use x="705.810547" xlink:href="#DejaVuSans-46"/>
    <use x="737.597656" xlink:href="#DejaVuSans-48"/>
    <use x="801.220703" xlink:href="#DejaVuSans-48"/>
    <use x="864.84375" xlink:href="#DejaVuSans-48"/>
    <use x="928.466797" xlink:href="#DejaVuSans-46"/>
    <use x="960.253906" xlink:href="#DejaVuSans-48"/>
    <use x="1023.876953" xlink:href="#DejaVuSans-48"/>
    <use x="1087.5" xlink:href="#DejaVuSans-48"/>
    <use x="1151.123047" xlink:href="#DejaVuSans-46"/>
    <use x="1182.910156" xlink:href="#DejaVuSans-48"/>
    <use x="1246.533203" xlink:href="#DejaVuSans-48"/>
    <use x="1310.15625" xlink:href="#DejaVuSans-48"/>
    <use x="1373.779297" xlink:href="#DejaVuSans-46"/>
    <use x="1405.566406" xlink:href="#DejaVuSans-48"/>
    <use x="1469.189453" xlink:href="#DejaVuSans-48"/>
    <use x="1532.8125" xlink:href="#DejaVuSans-48"/>
    <use x="1596.435547" xlink:href="#DejaVuSans-41"/>
   </g>
  </g>
  <g id="text_23">
   <g id="patch_10">
    <path d="M 428 70.879688 
L 555.317188 70.879688 
L 555.317188 53.201563 
L 428 53.201563 
z
" style="fill:#ffffff;stroke:#ffffff;stroke-linejoin:miter;"/>
   </g>
   <!-- "Je plee liegt niet" - Rolf -->
   <g style="fill:#808080;" transform="translate(432 64.8)scale(0.1 -0.1)">
    <defs>
     <path d="M 17.921875 72.90625 
L 17.921875 45.796875 
L 9.625 45.796875 
L 9.625 72.90625 
z
M 36.375 72.90625 
L 36.375 45.796875 
L 28.078125 45.796875 
L 28.078125 72.90625 
z
" id="DejaVuSans-34"/>
     <path d="M 9.8125 72.90625 
L 19.671875 72.90625 
L 19.671875 5.078125 
Q 19.671875 -8.109375 14.671875 -14.0625 
Q 9.671875 -20.015625 -1.421875 -20.015625 
L -5.171875 -20.015625 
L -5.171875 -11.71875 
L -2.09375 -11.71875 
Q 4.4375 -11.71875 7.125 -8.046875 
Q 9.8125 -4.390625 9.8125 5.078125 
z
" id="DejaVuSans-74"/>
    </defs>
    <use xlink:href="#DejaVuSans-34"/>
    <use x="45.996094" xlink:href="#DejaVuSans-74"/>
    <use x="75.488281" xlink:href="#DejaVuSans-101"/>
    <use x="137.011719" xlink:href="#DejaVuSans-32"/>
    <use x="168.798828" xlink:href="#DejaVuSans-112"/>
    <use x="232.275391" xlink:href="#DejaVuSans-108"/>
    <use x="260.058594" xlink:href="#DejaVuSans-101"/>
    <use x="321.582031" xlink:href="#DejaVuSans-101"/>
    <use x="383.105469" xlink:href="#DejaVuSans-32"/>
    <use x="414.892578" xlink:href="#DejaVuSans-108"/>
    <use x="442.675781" xlink:href="#DejaVuSans-105"/>
    <use x="470.458984" xlink:href="#DejaVuSans-101"/>
    <use x="531.982422" xlink:href="#DejaVuSans-103"/>
    <use x="595.458984" xlink:href="#DejaVuSans-116"/>
    <use x="634.667969" xlink:href="#DejaVuSans-32"/>
    <use x="666.455078" xlink:href="#DejaVuSans-110"/>
    <use x="729.833984" xlink:href="#DejaVuSans-105"/>
    <use x="757.617188" xlink:href="#DejaVuSans-101"/>
    <use x="819.140625" xlink:href="#DejaVuSans-116"/>
    <use x="858.349609" xlink:href="#DejaVuSans-34"/>
    <use x="904.345703" xlink:href="#DejaVuSans-32"/>
    <use x="936.132812" xlink:href="#DejaVuSans-45"/>
    <use x="972.216797" xlink:href="#DejaVuSans-32"/>
    <use x="1004.003906" xlink:href="#DejaVuSans-82"/>
    <use x="1068.986328" xlink:href="#DejaVuSans-111"/>
    <use x="1130.167969" xlink:href="#DejaVuSans-108"/>
    <use x="1157.951172" xlink:href="#DejaVuSans-102"/>
   </g>
  </g>
 </g>
 <defs>
  <clipPath id="pc12dbf6c2d">
   <rect height="146.88" width="590.4" x="64.8" y="25.92"/>
  </clipPath>
 </defs>
</svg>
