<?xml version="1.0" encoding="utf-8" standalone="no"?>
<!DOCTYPE svg PUBLIC "-//W3C//DTD SVG 1.1//EN"
  "http://www.w3.org/Graphics/SVG/1.1/DTD/svg11.dtd">
<!-- Created with matplotlib (https://matplotlib.org/) -->
<svg height="216pt" version="1.1" viewBox="0 0 720 216" width="720pt" xmlns="http://www.w3.org/2000/svg" xmlns:xlink="http://www.w3.org/1999/xlink">
 <metadata>
  <rdf:RDF xmlns:cc="http://creativecommons.org/ns#" xmlns:dc="http://purl.org/dc/elements/1.1/" xmlns:rdf="http://www.w3.org/1999/02/22-rdf-syntax-ns#">
   <cc:Work>
    <dc:type rdf:resource="http://purl.org/dc/dcmitype/StillImage"/>
    <dc:date>2021-07-05T17:40:07.731622</dc:date>
    <dc:format>image/svg+xml</dc:format>
    <dc:creator>
     <cc:Agent>
      <dc:title>Matplotlib v3.3.2, https://matplotlib.org/</dc:title>
     </cc:Agent>
    </dc:creator>
   </cc:Work>
  </rdf:RDF>
 </metadata>
 <defs>
  <style type="text/css">*{stroke-linecap:butt;stroke-linejoin:round;}</style>
 </defs>
 <g id="figure_1">
  <g id="patch_1">
   <path d="M 0 216 
L 720 216 
L 720 0 
L 0 0 
z
" style="fill:#ffffff;"/>
  </g>
  <g id="axes_1">
   <g id="patch_2">
    <path d="M 64.8 172.8 
L 655.2 172.8 
L 655.2 25.92 
L 64.8 25.92 
z
" style="fill:#ffffff;"/>
   </g>
   <g id="PolyCollection_1">
    <path clip-path="url(#pca3060a3d3)" d="M 99.249899 172.8 
L 99.249899 172.8 
L 100.437827 172.8 
L 101.625755 172.8 
L 102.813682 172.8 
L 106.377465 172.8 
L 107.565392 172.8 
L 108.75332 172.8 
L 109.941247 172.8 
L 111.129175 172.8 
L 112.317103 172.8 
L 115.880885 172.8 
L 117.068813 172.8 
L 118.25674 172.8 
L 119.444668 172.8 
L 120.632596 172.8 
L 123.008451 172.8 
L 124.196378 172.8 
L 125.384306 172.8 
L 126.572233 172.8 
L 127.760161 172.8 
L 131.323944 172.8 
L 132.511871 172.8 
L 133.699799 172.8 
L 134.887726 172.8 
L 136.075654 172.8 
L 137.263581 172.8 
L 139.639437 172.8 
L 142.015292 172.8 
L 143.203219 172.8 
L 144.391147 172.8 
L 146.767002 172.8 
L 147.95493 172.8 
L 149.142857 172.8 
L 150.330785 172.8 
L 151.518712 172.8 
L 153.894567 172.8 
L 155.082495 172.8 
L 156.270423 172.8 
L 157.45835 172.8 
L 158.646278 172.8 
L 159.834205 172.8 
L 161.022133 172.8 
L 162.21006 172.8 
L 163.397988 172.8 
L 164.585915 172.8 
L 165.773843 172.8 
L 166.961771 172.8 
L 168.149698 172.8 
L 169.337626 172.8 
L 170.525553 172.8 
L 174.089336 172.8 
L 175.277264 172.8 
L 176.465191 172.8 
L 177.653119 172.8 
L 178.841046 172.8 
L 180.028974 172.8 
L 181.216901 172.8 
L 182.404829 172.8 
L 183.592757 172.8 
L 184.780684 172.8 
L 185.968612 172.8 
L 189.532394 172.8 
L 190.720322 172.8 
L 191.908249 172.8 
L 193.096177 172.8 
L 197.847887 172.8 
L 199.035815 172.8 
L 200.223742 172.8 
L 204.975453 172.8 
L 206.16338 172.8 
L 207.351308 172.8 
L 208.539235 172.8 
L 210.915091 172.8 
L 215.666801 172.8 
L 216.854728 172.8 
L 218.042656 172.8 
L 223.982294 172.8 
L 225.170221 172.8 
L 227.546076 172.8 
L 229.921932 172.8 
L 231.109859 172.8 
L 232.297787 172.8 
L 233.485714 172.8 
L 234.673642 172.8 
L 235.861569 172.8 
L 237.049497 172.8 
L 238.237425 172.8 
L 239.425352 172.8 
L 240.61328 172.8 
L 241.801207 172.8 
L 242.989135 172.8 
L 244.177062 172.8 
L 245.36499 172.8 
L 246.552918 172.8 
L 247.740845 172.8 
L 248.928773 172.8 
L 250.1167 172.8 
L 251.304628 172.8 
L 252.492555 172.8 
L 253.680483 172.8 
L 256.056338 172.8 
L 257.244266 172.8 
L 258.432193 172.8 
L 259.620121 172.8 
L 260.808048 172.8 
L 261.995976 172.8 
L 263.183903 172.8 
L 264.371831 172.8 
L 265.559759 172.8 
L 266.747686 172.8 
L 267.935614 172.8 
L 269.123541 172.8 
L 270.311469 172.8 
L 271.499396 172.8 
L 272.687324 172.8 
L 273.875252 172.8 
L 275.063179 172.8 
L 276.251107 172.8 
L 277.439034 172.8 
L 278.626962 172.8 
L 279.814889 172.8 
L 281.002817 172.8 
L 282.190744 172.8 
L 283.378672 172.8 
L 284.5666 172.8 
L 285.754527 172.8 
L 286.942455 172.8 
L 288.130382 172.8 
L 289.31831 172.8 
L 290.506237 172.8 
L 291.694165 172.8 
L 292.882093 172.8 
L 294.07002 172.8 
L 295.257948 172.8 
L 296.445875 172.8 
L 297.633803 172.8 
L 298.82173 172.8 
L 300.009658 172.8 
L 301.197586 172.8 
L 302.385513 172.8 
L 303.573441 172.8 
L 304.761368 172.8 
L 305.949296 172.8 
L 307.137223 172.8 
L 308.325151 172.8 
L 309.513078 172.8 
L 310.701006 172.8 
L 311.888934 172.8 
L 313.076861 172.8 
L 314.264789 172.8 
L 315.452716 172.8 
L 316.640644 172.8 
L 317.828571 172.8 
L 319.016499 172.8 
L 320.204427 172.8 
L 321.392354 172.8 
L 322.580282 172.8 
L 323.768209 172.8 
L 324.956137 172.8 
L 326.144064 172.8 
L 327.331992 172.8 
L 328.51992 172.8 
L 329.707847 172.8 
L 330.895775 172.8 
L 332.083702 172.8 
L 333.27163 172.8 
L 334.459557 172.8 
L 335.647485 172.8 
L 336.835412 172.8 
L 338.02334 172.8 
L 339.211268 172.8 
L 340.399195 172.8 
L 341.587123 172.8 
L 342.77505 172.8 
L 343.962978 172.8 
L 345.150905 172.8 
L 346.338833 172.8 
L 347.526761 172.8 
L 348.714688 172.8 
L 349.902616 172.8 
L 351.090543 172.8 
L 352.278471 172.8 
L 353.466398 172.8 
L 354.654326 172.8 
L 355.842254 172.8 
L 357.030181 172.8 
L 358.218109 172.8 
L 359.406036 172.8 
L 360.593964 172.8 
L 361.781891 172.8 
L 362.969819 172.8 
L 364.157746 172.8 
L 365.345674 172.8 
L 366.533602 172.8 
L 367.721529 172.8 
L 368.909457 172.8 
L 370.097384 172.8 
L 371.285312 172.8 
L 372.473239 172.8 
L 373.661167 172.8 
L 374.849095 172.8 
L 376.037022 172.8 
L 377.22495 172.8 
L 378.412877 172.8 
L 379.600805 172.8 
L 380.788732 172.8 
L 381.97666 172.8 
L 383.164588 172.8 
L 384.352515 172.8 
L 385.540443 172.8 
L 386.72837 172.8 
L 387.916298 172.8 
L 389.104225 172.8 
L 390.292153 172.8 
L 391.48008 172.8 
L 392.668008 172.8 
L 393.855936 172.8 
L 395.043863 172.8 
L 396.231791 172.8 
L 397.419718 172.8 
L 398.607646 172.8 
L 399.795573 172.8 
L 400.983501 172.8 
L 402.171429 172.8 
L 403.359356 172.8 
L 404.547284 172.8 
L 405.735211 172.8 
L 406.923139 172.8 
L 408.111066 172.8 
L 409.298994 172.8 
L 410.486922 172.8 
L 411.674849 172.8 
L 412.862777 172.8 
L 414.050704 172.8 
L 415.238632 172.8 
L 416.426559 172.8 
L 417.614487 172.8 
L 418.802414 172.8 
L 419.990342 172.8 
L 421.17827 172.8 
L 422.366197 172.8 
L 423.554125 172.8 
L 424.742052 172.8 
L 425.92998 172.8 
L 428.305835 172.8 
L 429.493763 172.8 
L 430.68169 172.8 
L 431.869618 172.8 
L 433.057545 172.8 
L 434.245473 172.8 
L 435.4334 172.8 
L 436.621328 172.8 
L 437.809256 172.8 
L 438.997183 172.8 
L 440.185111 172.8 
L 441.373038 172.8 
L 442.560966 172.8 
L 443.748893 172.8 
L 444.936821 172.8 
L 446.124748 172.8 
L 447.312676 172.8 
L 448.500604 172.8 
L 449.688531 172.8 
L 450.876459 172.8 
L 452.064386 172.8 
L 453.252314 172.8 
L 454.440241 172.8 
L 455.628169 172.8 
L 456.816097 172.8 
L 458.004024 172.8 
L 459.191952 172.8 
L 460.379879 172.8 
L 461.567807 172.8 
L 462.755734 172.8 
L 463.943662 172.8 
L 465.13159 172.8 
L 466.319517 172.8 
L 467.507445 172.8 
L 468.695372 172.8 
L 469.8833 172.8 
L 471.071227 172.8 
L 472.259155 172.8 
L 473.447082 172.8 
L 474.63501 172.8 
L 475.822938 172.8 
L 477.010865 172.8 
L 478.198793 172.8 
L 479.38672 172.8 
L 480.574648 172.8 
L 481.762575 172.8 
L 482.950503 172.8 
L 484.138431 172.8 
L 485.326358 172.8 
L 486.514286 172.8 
L 487.702213 172.8 
L 488.890141 172.8 
L 490.078068 172.8 
L 491.265996 172.8 
L 492.453924 172.8 
L 493.641851 172.8 
L 494.829779 172.8 
L 496.017706 172.8 
L 497.205634 172.8 
L 498.393561 172.8 
L 499.581489 172.8 
L 500.769416 172.8 
L 501.957344 172.8 
L 503.145272 172.8 
L 504.333199 172.8 
L 505.521127 172.8 
L 506.709054 172.8 
L 507.896982 172.8 
L 509.084909 172.8 
L 510.272837 172.8 
L 511.460765 172.8 
L 512.648692 172.8 
L 513.83662 172.8 
L 515.024547 172.8 
L 516.212475 172.8 
L 517.400402 172.8 
L 518.58833 172.8 
L 519.776258 172.8 
L 520.964185 172.8 
L 522.152113 172.8 
L 523.34004 172.8 
L 524.527968 172.8 
L 525.715895 172.8 
L 526.903823 172.8 
L 528.091751 172.8 
L 529.279678 172.8 
L 530.467606 172.8 
L 531.655533 172.8 
L 532.843461 172.8 
L 534.031388 172.8 
L 535.219316 172.8 
L 536.407243 172.8 
L 537.595171 172.8 
L 538.783099 172.8 
L 539.971026 172.8 
L 541.158954 172.8 
L 542.346881 172.8 
L 543.534809 172.8 
L 544.722736 172.8 
L 545.910664 172.8 
L 547.098592 172.8 
L 548.286519 172.8 
L 549.474447 172.8 
L 550.662374 172.8 
L 551.850302 172.8 
L 553.038229 172.8 
L 554.226157 172.8 
L 555.414085 172.8 
L 556.602012 172.8 
L 557.78994 172.8 
L 558.977867 172.8 
L 560.165795 172.8 
L 561.353722 172.8 
L 562.54165 172.8 
L 563.729577 172.8 
L 564.917505 172.8 
L 566.105433 172.8 
L 567.29336 172.8 
L 568.481288 172.8 
L 569.669215 172.8 
L 570.857143 172.8 
L 572.04507 172.8 
L 573.232998 172.8 
L 574.420926 172.8 
L 575.608853 172.8 
L 576.796781 172.8 
L 577.984708 172.8 
L 579.172636 172.8 
L 580.360563 172.8 
L 581.548491 172.8 
L 582.736419 172.8 
L 583.924346 172.8 
L 585.112274 172.8 
L 586.300201 172.8 
L 587.488129 172.8 
L 588.676056 172.8 
L 589.863984 172.8 
L 591.051911 172.8 
L 592.239839 172.8 
L 593.427767 172.8 
L 594.615694 172.8 
L 596.991549 172.8 
L 598.179477 172.8 
L 599.367404 172.8 
L 600.555332 172.8 
L 601.74326 172.8 
L 602.931187 172.8 
L 604.119115 172.8 
L 605.307042 172.8 
L 606.49497 172.8 
L 607.682897 172.8 
L 608.870825 172.8 
L 610.058753 172.8 
L 611.24668 172.8 
L 613.622535 172.8 
L 614.810463 172.8 
L 615.99839 172.8 
L 617.186318 172.8 
L 618.374245 172.8 
L 620.750101 172.8 
L 621.938028 172.8 
L 623.125956 172.8 
L 624.313883 172.8 
L 625.501811 172.8 
L 626.689738 172.8 
L 629.065594 172.8 
L 630.253521 172.8 
L 631.441449 172.8 
L 632.629376 172.8 
L 633.817304 172.8 
L 635.005231 172.8 
L 636.193159 172.8 
L 637.381087 172.8 
L 638.569014 172.8 
L 639.756942 172.8 
L 640.944869 172.8 
L 642.132797 172.8 
L 642.132797 172.8 
L 642.132797 164.265721 
L 640.944869 157.126229 
L 639.756942 159.271004 
L 638.569014 149.053694 
L 637.381087 160.916832 
L 636.193159 166.70406 
L 635.005231 164.617657 
L 633.817304 163.109673 
L 632.629376 166.403695 
L 631.441449 160.469945 
L 630.253521 165.344346 
L 629.065594 166.93012 
L 626.689738 164.902401 
L 625.501811 166.066596 
L 624.313883 158.43716 
L 623.125956 165.628619 
L 621.938028 163.718601 
L 620.750101 152.60752 
L 618.374245 166.232787 
L 617.186318 158.256133 
L 615.99839 164.878666 
L 614.810463 165.456303 
L 613.622535 157.55768 
L 611.24668 154.304757 
L 610.058753 161.942522 
L 608.870825 153.310483 
L 607.682897 150.077338 
L 606.49497 155.755811 
L 605.307042 143.826417 
L 604.119115 159.960447 
L 602.931187 157.185634 
L 601.74326 160.726307 
L 600.555332 150.879304 
L 599.367404 146.075299 
L 598.179477 147.41725 
L 596.991549 156.27884 
L 594.615694 160.982456 
L 593.427767 159.298533 
L 592.239839 144.979683 
L 591.051911 147.072647 
L 589.863984 142.244774 
L 588.676056 150.258207 
L 587.488129 158.486479 
L 586.300201 144.799993 
L 585.112274 135.032938 
L 583.924346 137.394655 
L 582.736419 140.84374 
L 581.548491 145.790526 
L 580.360563 108.764004 
L 579.172636 103.273657 
L 577.984708 115.867162 
L 576.796781 141.750076 
L 575.608853 128.093661 
L 574.420926 113.945642 
L 573.232998 139.507839 
L 572.04507 143.867111 
L 570.857143 158.804853 
L 569.669215 153.36857 
L 568.481288 115.734033 
L 567.29336 135.557076 
L 566.105433 140.718885 
L 564.917505 121.156437 
L 563.729577 133.517688 
L 562.54165 130.021742 
L 561.353722 135.887764 
L 560.165795 147.3494 
L 558.977867 147.24953 
L 557.78994 137.250226 
L 556.602012 138.498124 
L 555.414085 127.877434 
L 554.226157 110.024864 
L 553.038229 143.629121 
L 551.850302 144.987049 
L 550.662374 148.303003 
L 549.474447 131.619043 
L 548.286519 142.225225 
L 547.098592 137.005289 
L 545.910664 100.009519 
L 544.722736 134.671348 
L 543.534809 148.858822 
L 542.346881 122.940898 
L 541.158954 123.293579 
L 539.971026 134.730823 
L 538.783099 144.522787 
L 537.595171 142.30677 
L 536.407243 137.709261 
L 535.219316 136.600683 
L 534.031388 146.56533 
L 532.843461 138.795282 
L 531.655533 139.434002 
L 530.467606 132.653891 
L 529.279678 141.624997 
L 528.091751 122.590942 
L 526.903823 144.581141 
L 525.715895 133.344477 
L 524.527968 137.279044 
L 523.34004 137.38133 
L 522.152113 94.165674 
L 520.964185 149.839856 
L 519.776258 146.662783 
L 518.58833 144.206918 
L 517.400402 153.480188 
L 516.212475 132.013644 
L 515.024547 150.43032 
L 513.83662 146.065811 
L 512.648692 138.277085 
L 511.460765 140.477018 
L 510.272837 136.178252 
L 509.084909 145.566105 
L 507.896982 145.786417 
L 506.709054 134.926886 
L 505.521127 136.024015 
L 504.333199 135.502841 
L 503.145272 143.414983 
L 501.957344 140.251774 
L 500.769416 149.635629 
L 499.581489 144.992239 
L 498.393561 152.138659 
L 497.205634 152.824703 
L 496.017706 106.632528 
L 494.829779 150.114703 
L 493.641851 155.113752 
L 492.453924 147.420985 
L 491.265996 134.275209 
L 490.078068 123.744372 
L 488.890141 94.473208 
L 487.702213 122.019009 
L 486.514286 119.633237 
L 485.326358 121.19727 
L 484.138431 136.750773 
L 482.950503 126.4421 
L 481.762575 98.962939 
L 480.574648 132.441863 
L 479.38672 143.636859 
L 478.198793 133.632038 
L 477.010865 132.000431 
L 475.822938 145.904745 
L 474.63501 103.408729 
L 473.447082 140.758236 
L 472.259155 156.627057 
L 471.071227 115.69574 
L 469.8833 152.471809 
L 468.695372 136.72894 
L 467.507445 127.887017 
L 466.319517 110.956815 
L 465.13159 138.962608 
L 463.943662 141.077965 
L 462.755734 129.156698 
L 461.567807 15.712466 
L 460.379879 112.531776 
L 459.191952 119.426421 
L 458.004024 122.470209 
L 456.816097 116.588121 
L 455.628169 123.525582 
L 454.440241 128.230276 
L 453.252314 120.972665 
L 452.064386 114.079626 
L 450.876459 119.913195 
L 449.688531 71.137628 
L 448.500604 126.996022 
L 447.312676 95.954896 
L 446.124748 119.861282 
L 444.936821 118.320024 
L 443.748893 138.208685 
L 442.560966 118.67668 
L 441.373038 100.461711 
L 440.185111 102.561448 
L 438.997183 139.024808 
L 437.809256 143.231016 
L 436.621328 134.647109 
L 435.4334 94.723026 
L 434.245473 141.29349 
L 433.057545 136.552762 
L 431.869618 128.66006 
L 430.68169 142.371743 
L 429.493763 142.148088 
L 428.305835 148.584485 
L 425.92998 150.305439 
L 424.742052 124.142394 
L 423.554125 148.467582 
L 422.366197 109.285949 
L 421.17827 137.5216 
L 419.990342 110.627515 
L 418.802414 157.08584 
L 417.614487 83.454723 
L 416.426559 111.754011 
L 415.238632 73.117423 
L 414.050704 133.434908 
L 412.862777 141.108088 
L 411.674849 126.858461 
L 410.486922 132.451105 
L 409.298994 120.917477 
L 408.111066 111.695393 
L 406.923139 98.991505 
L 405.735211 126.495242 
L 404.547284 127.446293 
L 403.359356 134.093207 
L 402.171429 144.539163 
L 400.983501 131.684679 
L 399.795573 150.37664 
L 398.607646 145.286576 
L 397.419718 139.692519 
L 396.231791 155.752304 
L 395.043863 154.458036 
L 393.855936 134.723739 
L 392.668008 150.285678 
L 391.48008 133.217996 
L 390.292153 112.010978 
L 389.104225 145.75322 
L 387.916298 149.910775 
L 386.72837 139.842625 
L 385.540443 154.569797 
L 384.352515 158.326743 
L 383.164588 122.998856 
L 381.97666 151.33998 
L 380.788732 132.596409 
L 379.600805 150.302155 
L 378.412877 142.109848 
L 377.22495 148.962881 
L 376.037022 150.068759 
L 374.849095 134.700945 
L 373.661167 130.901662 
L 372.473239 43.240906 
L 371.285312 48.396702 
L 370.097384 38.97713 
L 368.909457 120.182092 
L 367.721529 127.945982 
L 366.533602 127.384539 
L 365.345674 112.159679 
L 364.157746 55.126432 
L 362.969819 90.13739 
L 361.781891 105.932244 
L 360.593964 118.054637 
L 359.406036 144.184981 
L 358.218109 133.663882 
L 357.030181 131.1864 
L 355.842254 77.781959 
L 354.654326 62.993072 
L 353.466398 124.885783 
L 352.278471 89.681272 
L 351.090543 11.011416 
L 349.902616 42.340637 
L 348.714688 119.390676 
L 347.526761 60.165783 
L 346.338833 113.669292 
L 345.150905 114.587018 
L 343.962978 139.858606 
L 342.77505 -22.678672 
L 341.587123 97.175973 
L 340.399195 124.695532 
L 339.211268 92.805126 
L 338.02334 116.290424 
L 336.835412 84.915226 
L 335.647485 137.417485 
L 334.459557 124.43797 
L 333.27163 136.154191 
L 332.083702 136.130025 
L 330.895775 59.58537 
L 329.707847 63.09404 
L 328.51992 104.391386 
L 327.331992 107.517959 
L 326.144064 105.395517 
L 324.956137 115.182639 
L 323.768209 115.189119 
L 322.580282 138.174102 
L 321.392354 127.2164 
L 320.204427 137.479155 
L 319.016499 130.384229 
L 317.828571 149.409778 
L 316.640644 142.907665 
L 315.452716 135.057121 
L 314.264789 130.129585 
L 313.076861 139.512244 
L 311.888934 160.951187 
L 310.701006 153.626899 
L 309.513078 156.722059 
L 308.325151 153.247738 
L 307.137223 162.160025 
L 305.949296 154.785068 
L 304.761368 158.549282 
L 303.573441 161.633784 
L 302.385513 160.212855 
L 301.197586 160.107807 
L 300.009658 165.528967 
L 298.82173 154.797816 
L 297.633803 163.75275 
L 296.445875 165.22846 
L 295.257948 164.822076 
L 294.07002 161.646606 
L 292.882093 159.609474 
L 291.694165 162.995666 
L 290.506237 161.886802 
L 289.31831 147.79368 
L 288.130382 166.873392 
L 286.942455 163.080216 
L 285.754527 168.72408 
L 284.5666 165.7773 
L 283.378672 166.489809 
L 282.190744 163.888056 
L 281.002817 168.28344 
L 279.814889 164.4003 
L 278.626962 160.81704 
L 277.439034 170.63352 
L 276.251107 166.34952 
L 275.063179 163.896812 
L 273.875252 161.468208 
L 272.687324 148.932 
L 271.499396 156.6432 
L 270.311469 159.01776 
L 269.123541 158.112 
L 267.935614 163.38438 
L 266.747686 163.348837 
L 265.559759 164.412103 
L 264.371831 165.720909 
L 263.183903 162.396 
L 261.995976 148.89528 
L 260.808048 150.35184 
L 259.620121 167.189184 
L 258.432193 155.830464 
L 257.244266 158.55264 
L 256.056338 160.61814 
L 253.680483 166.66776 
L 252.492555 169.42176 
L 251.304628 166.22712 
L 250.1167 162.81675 
L 248.928773 140.103463 
L 247.740845 128.69469 
L 246.552918 162.18333 
L 245.36499 165.56616 
L 244.177062 166.77792 
L 242.989135 156.79824 
L 241.801207 163.008 
L 240.61328 152.71008 
L 239.425352 156.738672 
L 238.237425 165.89664 
L 237.049497 159.98472 
L 235.861569 145.60884 
L 234.673642 167.76936 
L 233.485714 144.32976 
L 232.297787 167.74896 
L 231.109859 163.12428 
L 229.921932 168.47928 
L 227.546076 163.2528 
L 225.170221 169.20144 
L 223.982294 168.254064 
L 218.042656 168.09984 
L 216.854728 167.73264 
L 215.666801 166.41072 
L 210.915091 166.48416 
L 208.539235 171.95544 
L 207.351308 169.587 
L 206.16338 166.31892 
L 204.975453 167.58576 
L 200.223742 169.27488 
L 199.035815 171.3312 
L 197.847887 166.99824 
L 193.096177 170.505 
L 191.908249 167.45112 
L 190.720322 168.98112 
L 189.532394 159.25032 
L 185.968612 160.9272 
L 184.780684 165.815856 
L 183.592757 168.47622 
L 182.404829 163.8954 
L 181.216901 171.12924 
L 180.028974 172.10232 
L 178.841046 168.79752 
L 177.653119 164.68488 
L 176.465191 161.091566 
L 175.277264 161.86968 
L 174.089336 156.75336 
L 170.525553 170.85384 
L 169.337626 170.97624 
L 168.149698 137.21832 
L 166.961771 162.9774 
L 165.773843 162.89478 
L 164.585915 148.49136 
L 163.397988 170.48664 
L 162.21006 168.83424 
L 161.022133 143.960112 
L 159.834205 170.30304 
L 158.646278 163.28952 
L 157.45835 165.05208 
L 156.270423 163.19772 
L 155.082495 170.89056 
L 153.894567 163.0692 
L 151.518712 166.58973 
L 150.330785 168.8067 
L 149.142857 163.294766 
L 147.95493 163.53432 
L 146.767002 164.64816 
L 144.391147 161.12304 
L 143.203219 161.85132 
L 142.015292 159.52776 
L 139.639437 162.73872 
L 137.263581 170.70696 
L 136.075654 163.0692 
L 134.887726 162.9009 
L 133.699799 162.97536 
L 132.511871 155.233152 
L 131.323944 167.8428 
L 127.760161 58.45392 
L 126.572233 142.645536 
L 125.384306 159.65883 
L 124.196378 163.64448 
L 123.008451 161.6922 
L 120.632596 171.62496 
L 119.444668 156.870864 
L 118.25674 151.88184 
L 117.068813 162.40212 
L 115.880885 127.456046 
L 112.317103 140.04576 
L 111.129175 122.62212 
L 109.941247 110.401704 
L 108.75332 141.895113 
L 107.565392 109.53144 
L 106.377465 105.2964 
L 102.813682 84.75768 
L 101.625755 120.99624 
L 100.437827 136.657029 
L 99.249899 105.34536 
z
" style="fill:#008000;fill-opacity:0.3;"/>
   </g>
   <g id="matplotlib.axis_1">
    <g id="xtick_1">
     <g id="line2d_1">
      <path clip-path="url(#pca3060a3d3)" d="M 64.8 172.8 
L 64.8 25.92 
" style="fill:none;stroke:#808080;stroke-dasharray:6.4,1.6,1,1.6;stroke-dashoffset:0;stroke-opacity:0.3;"/>
     </g>
     <g id="line2d_2">
      <defs>
       <path d="M 0 0 
L 0 3.5 
" id="m36eaada0a3" style="stroke:#000000;stroke-width:0.8;"/>
      </defs>
      <g>
       <use style="stroke:#000000;stroke-width:0.8;" x="64.8" xlink:href="#m36eaada0a3" y="172.8"/>
      </g>
     </g>
     <g id="text_1">
      <!-- 2020-03 -->
      <g transform="translate(43.908594 187.398438)scale(0.1 -0.1)">
       <defs>
        <path d="M 19.1875 8.296875 
L 53.609375 8.296875 
L 53.609375 0 
L 7.328125 0 
L 7.328125 8.296875 
Q 12.9375 14.109375 22.625 23.890625 
Q 32.328125 33.6875 34.8125 36.53125 
Q 39.546875 41.84375 41.421875 45.53125 
Q 43.3125 49.21875 43.3125 52.78125 
Q 43.3125 58.59375 39.234375 62.25 
Q 35.15625 65.921875 28.609375 65.921875 
Q 23.96875 65.921875 18.8125 64.3125 
Q 13.671875 62.703125 7.8125 59.421875 
L 7.8125 69.390625 
Q 13.765625 71.78125 18.9375 73 
Q 24.125 74.21875 28.421875 74.21875 
Q 39.75 74.21875 46.484375 68.546875 
Q 53.21875 62.890625 53.21875 53.421875 
Q 53.21875 48.921875 51.53125 44.890625 
Q 49.859375 40.875 45.40625 35.40625 
Q 44.1875 33.984375 37.640625 27.21875 
Q 31.109375 20.453125 19.1875 8.296875 
z
" id="DejaVuSans-50"/>
        <path d="M 31.78125 66.40625 
Q 24.171875 66.40625 20.328125 58.90625 
Q 16.5 51.421875 16.5 36.375 
Q 16.5 21.390625 20.328125 13.890625 
Q 24.171875 6.390625 31.78125 6.390625 
Q 39.453125 6.390625 43.28125 13.890625 
Q 47.125 21.390625 47.125 36.375 
Q 47.125 51.421875 43.28125 58.90625 
Q 39.453125 66.40625 31.78125 66.40625 
z
M 31.78125 74.21875 
Q 44.046875 74.21875 50.515625 64.515625 
Q 56.984375 54.828125 56.984375 36.375 
Q 56.984375 17.96875 50.515625 8.265625 
Q 44.046875 -1.421875 31.78125 -1.421875 
Q 19.53125 -1.421875 13.0625 8.265625 
Q 6.59375 17.96875 6.59375 36.375 
Q 6.59375 54.828125 13.0625 64.515625 
Q 19.53125 74.21875 31.78125 74.21875 
z
" id="DejaVuSans-48"/>
        <path d="M 4.890625 31.390625 
L 31.203125 31.390625 
L 31.203125 23.390625 
L 4.890625 23.390625 
z
" id="DejaVuSans-45"/>
        <path d="M 40.578125 39.3125 
Q 47.65625 37.796875 51.625 33 
Q 55.609375 28.21875 55.609375 21.1875 
Q 55.609375 10.40625 48.1875 4.484375 
Q 40.765625 -1.421875 27.09375 -1.421875 
Q 22.515625 -1.421875 17.65625 -0.515625 
Q 12.796875 0.390625 7.625 2.203125 
L 7.625 11.71875 
Q 11.71875 9.328125 16.59375 8.109375 
Q 21.484375 6.890625 26.8125 6.890625 
Q 36.078125 6.890625 40.9375 10.546875 
Q 45.796875 14.203125 45.796875 21.1875 
Q 45.796875 27.640625 41.28125 31.265625 
Q 36.765625 34.90625 28.71875 34.90625 
L 20.21875 34.90625 
L 20.21875 43.015625 
L 29.109375 43.015625 
Q 36.375 43.015625 40.234375 45.921875 
Q 44.09375 48.828125 44.09375 54.296875 
Q 44.09375 59.90625 40.109375 62.90625 
Q 36.140625 65.921875 28.71875 65.921875 
Q 24.65625 65.921875 20.015625 65.03125 
Q 15.375 64.15625 9.8125 62.3125 
L 9.8125 71.09375 
Q 15.4375 72.65625 20.34375 73.4375 
Q 25.25 74.21875 29.59375 74.21875 
Q 40.828125 74.21875 47.359375 69.109375 
Q 53.90625 64.015625 53.90625 55.328125 
Q 53.90625 49.265625 50.4375 45.09375 
Q 46.96875 40.921875 40.578125 39.3125 
z
" id="DejaVuSans-51"/>
       </defs>
       <use xlink:href="#DejaVuSans-50"/>
       <use x="63.623047" xlink:href="#DejaVuSans-48"/>
       <use x="127.246094" xlink:href="#DejaVuSans-50"/>
       <use x="190.869141" xlink:href="#DejaVuSans-48"/>
       <use x="254.492188" xlink:href="#DejaVuSans-45"/>
       <use x="290.576172" xlink:href="#DejaVuSans-48"/>
       <use x="354.199219" xlink:href="#DejaVuSans-51"/>
      </g>
     </g>
    </g>
    <g id="xtick_2">
     <g id="line2d_3">
      <path clip-path="url(#pca3060a3d3)" d="M 137.263581 172.8 
L 137.263581 25.92 
" style="fill:none;stroke:#808080;stroke-dasharray:6.4,1.6,1,1.6;stroke-dashoffset:0;stroke-opacity:0.3;"/>
     </g>
     <g id="line2d_4">
      <g>
       <use style="stroke:#000000;stroke-width:0.8;" x="137.263581" xlink:href="#m36eaada0a3" y="172.8"/>
      </g>
     </g>
     <g id="text_2">
      <!-- 2020-05 -->
      <g transform="translate(116.372175 187.398438)scale(0.1 -0.1)">
       <defs>
        <path d="M 10.796875 72.90625 
L 49.515625 72.90625 
L 49.515625 64.59375 
L 19.828125 64.59375 
L 19.828125 46.734375 
Q 21.96875 47.46875 24.109375 47.828125 
Q 26.265625 48.1875 28.421875 48.1875 
Q 40.625 48.1875 47.75 41.5 
Q 54.890625 34.8125 54.890625 23.390625 
Q 54.890625 11.625 47.5625 5.09375 
Q 40.234375 -1.421875 26.90625 -1.421875 
Q 22.3125 -1.421875 17.546875 -0.640625 
Q 12.796875 0.140625 7.71875 1.703125 
L 7.71875 11.625 
Q 12.109375 9.234375 16.796875 8.0625 
Q 21.484375 6.890625 26.703125 6.890625 
Q 35.15625 6.890625 40.078125 11.328125 
Q 45.015625 15.765625 45.015625 23.390625 
Q 45.015625 31 40.078125 35.4375 
Q 35.15625 39.890625 26.703125 39.890625 
Q 22.75 39.890625 18.8125 39.015625 
Q 14.890625 38.140625 10.796875 36.28125 
z
" id="DejaVuSans-53"/>
       </defs>
       <use xlink:href="#DejaVuSans-50"/>
       <use x="63.623047" xlink:href="#DejaVuSans-48"/>
       <use x="127.246094" xlink:href="#DejaVuSans-50"/>
       <use x="190.869141" xlink:href="#DejaVuSans-48"/>
       <use x="254.492188" xlink:href="#DejaVuSans-45"/>
       <use x="290.576172" xlink:href="#DejaVuSans-48"/>
       <use x="354.199219" xlink:href="#DejaVuSans-53"/>
      </g>
     </g>
    </g>
    <g id="xtick_3">
     <g id="line2d_5">
      <path clip-path="url(#pca3060a3d3)" d="M 209.727163 172.8 
L 209.727163 25.92 
" style="fill:none;stroke:#808080;stroke-dasharray:6.4,1.6,1,1.6;stroke-dashoffset:0;stroke-opacity:0.3;"/>
     </g>
     <g id="line2d_6">
      <g>
       <use style="stroke:#000000;stroke-width:0.8;" x="209.727163" xlink:href="#m36eaada0a3" y="172.8"/>
      </g>
     </g>
     <g id="text_3">
      <!-- 2020-07 -->
      <g transform="translate(188.835757 187.398438)scale(0.1 -0.1)">
       <defs>
        <path d="M 8.203125 72.90625 
L 55.078125 72.90625 
L 55.078125 68.703125 
L 28.609375 0 
L 18.3125 0 
L 43.21875 64.59375 
L 8.203125 64.59375 
z
" id="DejaVuSans-55"/>
       </defs>
       <use xlink:href="#DejaVuSans-50"/>
       <use x="63.623047" xlink:href="#DejaVuSans-48"/>
       <use x="127.246094" xlink:href="#DejaVuSans-50"/>
       <use x="190.869141" xlink:href="#DejaVuSans-48"/>
       <use x="254.492188" xlink:href="#DejaVuSans-45"/>
       <use x="290.576172" xlink:href="#DejaVuSans-48"/>
       <use x="354.199219" xlink:href="#DejaVuSans-55"/>
      </g>
     </g>
    </g>
    <g id="xtick_4">
     <g id="line2d_7">
      <path clip-path="url(#pca3060a3d3)" d="M 283.378672 172.8 
L 283.378672 25.92 
" style="fill:none;stroke:#808080;stroke-dasharray:6.4,1.6,1,1.6;stroke-dashoffset:0;stroke-opacity:0.3;"/>
     </g>
     <g id="line2d_8">
      <g>
       <use style="stroke:#000000;stroke-width:0.8;" x="283.378672" xlink:href="#m36eaada0a3" y="172.8"/>
      </g>
     </g>
     <g id="text_4">
      <!-- 2020-09 -->
      <g transform="translate(262.487266 187.398438)scale(0.1 -0.1)">
       <defs>
        <path d="M 10.984375 1.515625 
L 10.984375 10.5 
Q 14.703125 8.734375 18.5 7.8125 
Q 22.3125 6.890625 25.984375 6.890625 
Q 35.75 6.890625 40.890625 13.453125 
Q 46.046875 20.015625 46.78125 33.40625 
Q 43.953125 29.203125 39.59375 26.953125 
Q 35.25 24.703125 29.984375 24.703125 
Q 19.046875 24.703125 12.671875 31.3125 
Q 6.296875 37.9375 6.296875 49.421875 
Q 6.296875 60.640625 12.9375 67.421875 
Q 19.578125 74.21875 30.609375 74.21875 
Q 43.265625 74.21875 49.921875 64.515625 
Q 56.59375 54.828125 56.59375 36.375 
Q 56.59375 19.140625 48.40625 8.859375 
Q 40.234375 -1.421875 26.421875 -1.421875 
Q 22.703125 -1.421875 18.890625 -0.6875 
Q 15.09375 0.046875 10.984375 1.515625 
z
M 30.609375 32.421875 
Q 37.25 32.421875 41.125 36.953125 
Q 45.015625 41.5 45.015625 49.421875 
Q 45.015625 57.28125 41.125 61.84375 
Q 37.25 66.40625 30.609375 66.40625 
Q 23.96875 66.40625 20.09375 61.84375 
Q 16.21875 57.28125 16.21875 49.421875 
Q 16.21875 41.5 20.09375 36.953125 
Q 23.96875 32.421875 30.609375 32.421875 
z
" id="DejaVuSans-57"/>
       </defs>
       <use xlink:href="#DejaVuSans-50"/>
       <use x="63.623047" xlink:href="#DejaVuSans-48"/>
       <use x="127.246094" xlink:href="#DejaVuSans-50"/>
       <use x="190.869141" xlink:href="#DejaVuSans-48"/>
       <use x="254.492188" xlink:href="#DejaVuSans-45"/>
       <use x="290.576172" xlink:href="#DejaVuSans-48"/>
       <use x="354.199219" xlink:href="#DejaVuSans-57"/>
      </g>
     </g>
    </g>
    <g id="xtick_5">
     <g id="line2d_9">
      <path clip-path="url(#pca3060a3d3)" d="M 355.842254 172.8 
L 355.842254 25.92 
" style="fill:none;stroke:#808080;stroke-dasharray:6.4,1.6,1,1.6;stroke-dashoffset:0;stroke-opacity:0.3;"/>
     </g>
     <g id="line2d_10">
      <g>
       <use style="stroke:#000000;stroke-width:0.8;" x="355.842254" xlink:href="#m36eaada0a3" y="172.8"/>
      </g>
     </g>
     <g id="text_5">
      <!-- 2020-11 -->
      <g transform="translate(334.950847 187.398438)scale(0.1 -0.1)">
       <defs>
        <path d="M 12.40625 8.296875 
L 28.515625 8.296875 
L 28.515625 63.921875 
L 10.984375 60.40625 
L 10.984375 69.390625 
L 28.421875 72.90625 
L 38.28125 72.90625 
L 38.28125 8.296875 
L 54.390625 8.296875 
L 54.390625 0 
L 12.40625 0 
z
" id="DejaVuSans-49"/>
       </defs>
       <use xlink:href="#DejaVuSans-50"/>
       <use x="63.623047" xlink:href="#DejaVuSans-48"/>
       <use x="127.246094" xlink:href="#DejaVuSans-50"/>
       <use x="190.869141" xlink:href="#DejaVuSans-48"/>
       <use x="254.492188" xlink:href="#DejaVuSans-45"/>
       <use x="290.576172" xlink:href="#DejaVuSans-49"/>
       <use x="354.199219" xlink:href="#DejaVuSans-49"/>
      </g>
     </g>
    </g>
    <g id="xtick_6">
     <g id="line2d_11">
      <path clip-path="url(#pca3060a3d3)" d="M 428.305835 172.8 
L 428.305835 25.92 
" style="fill:none;stroke:#808080;stroke-dasharray:6.4,1.6,1,1.6;stroke-dashoffset:0;stroke-opacity:0.3;"/>
     </g>
     <g id="line2d_12">
      <g>
       <use style="stroke:#000000;stroke-width:0.8;" x="428.305835" xlink:href="#m36eaada0a3" y="172.8"/>
      </g>
     </g>
     <g id="text_6">
      <!-- 2021-01 -->
      <g transform="translate(407.414429 187.398438)scale(0.1 -0.1)">
       <use xlink:href="#DejaVuSans-50"/>
       <use x="63.623047" xlink:href="#DejaVuSans-48"/>
       <use x="127.246094" xlink:href="#DejaVuSans-50"/>
       <use x="190.869141" xlink:href="#DejaVuSans-49"/>
       <use x="254.492188" xlink:href="#DejaVuSans-45"/>
       <use x="290.576172" xlink:href="#DejaVuSans-48"/>
       <use x="354.199219" xlink:href="#DejaVuSans-49"/>
      </g>
     </g>
    </g>
    <g id="xtick_7">
     <g id="line2d_13">
      <path clip-path="url(#pca3060a3d3)" d="M 498.393561 172.8 
L 498.393561 25.92 
" style="fill:none;stroke:#808080;stroke-dasharray:6.4,1.6,1,1.6;stroke-dashoffset:0;stroke-opacity:0.3;"/>
     </g>
     <g id="line2d_14">
      <g>
       <use style="stroke:#000000;stroke-width:0.8;" x="498.393561" xlink:href="#m36eaada0a3" y="172.8"/>
      </g>
     </g>
     <g id="text_7">
      <!-- 2021-03 -->
      <g transform="translate(477.502155 187.398438)scale(0.1 -0.1)">
       <use xlink:href="#DejaVuSans-50"/>
       <use x="63.623047" xlink:href="#DejaVuSans-48"/>
       <use x="127.246094" xlink:href="#DejaVuSans-50"/>
       <use x="190.869141" xlink:href="#DejaVuSans-49"/>
       <use x="254.492188" xlink:href="#DejaVuSans-45"/>
       <use x="290.576172" xlink:href="#DejaVuSans-48"/>
       <use x="354.199219" xlink:href="#DejaVuSans-51"/>
      </g>
     </g>
    </g>
    <g id="xtick_8">
     <g id="line2d_15">
      <path clip-path="url(#pca3060a3d3)" d="M 570.857143 172.8 
L 570.857143 25.92 
" style="fill:none;stroke:#808080;stroke-dasharray:6.4,1.6,1,1.6;stroke-dashoffset:0;stroke-opacity:0.3;"/>
     </g>
     <g id="line2d_16">
      <g>
       <use style="stroke:#000000;stroke-width:0.8;" x="570.857143" xlink:href="#m36eaada0a3" y="172.8"/>
      </g>
     </g>
     <g id="text_8">
      <!-- 2021-05 -->
      <g transform="translate(549.965737 187.398438)scale(0.1 -0.1)">
       <use xlink:href="#DejaVuSans-50"/>
       <use x="63.623047" xlink:href="#DejaVuSans-48"/>
       <use x="127.246094" xlink:href="#DejaVuSans-50"/>
       <use x="190.869141" xlink:href="#DejaVuSans-49"/>
       <use x="254.492188" xlink:href="#DejaVuSans-45"/>
       <use x="290.576172" xlink:href="#DejaVuSans-48"/>
       <use x="354.199219" xlink:href="#DejaVuSans-53"/>
      </g>
     </g>
    </g>
    <g id="xtick_9">
     <g id="line2d_17">
      <path clip-path="url(#pca3060a3d3)" d="M 643.320724 172.8 
L 643.320724 25.92 
" style="fill:none;stroke:#808080;stroke-dasharray:6.4,1.6,1,1.6;stroke-dashoffset:0;stroke-opacity:0.3;"/>
     </g>
     <g id="line2d_18">
      <g>
       <use style="stroke:#000000;stroke-width:0.8;" x="643.320724" xlink:href="#m36eaada0a3" y="172.8"/>
      </g>
     </g>
     <g id="text_9">
      <!-- 2021-07 -->
      <g transform="translate(622.429318 187.398438)scale(0.1 -0.1)">
       <use xlink:href="#DejaVuSans-50"/>
       <use x="63.623047" xlink:href="#DejaVuSans-48"/>
       <use x="127.246094" xlink:href="#DejaVuSans-50"/>
       <use x="190.869141" xlink:href="#DejaVuSans-49"/>
       <use x="254.492188" xlink:href="#DejaVuSans-45"/>
       <use x="290.576172" xlink:href="#DejaVuSans-48"/>
       <use x="354.199219" xlink:href="#DejaVuSans-55"/>
      </g>
     </g>
    </g>
    <g id="text_10">
     <!-- Datum -->
     <g transform="translate(343.086719 201.076562)scale(0.1 -0.1)">
      <defs>
       <path d="M 19.671875 64.796875 
L 19.671875 8.109375 
L 31.59375 8.109375 
Q 46.6875 8.109375 53.6875 14.9375 
Q 60.6875 21.78125 60.6875 36.53125 
Q 60.6875 51.171875 53.6875 57.984375 
Q 46.6875 64.796875 31.59375 64.796875 
z
M 9.8125 72.90625 
L 30.078125 72.90625 
Q 51.265625 72.90625 61.171875 64.09375 
Q 71.09375 55.28125 71.09375 36.53125 
Q 71.09375 17.671875 61.125 8.828125 
Q 51.171875 0 30.078125 0 
L 9.8125 0 
z
" id="DejaVuSans-68"/>
       <path d="M 34.28125 27.484375 
Q 23.390625 27.484375 19.1875 25 
Q 14.984375 22.515625 14.984375 16.5 
Q 14.984375 11.71875 18.140625 8.90625 
Q 21.296875 6.109375 26.703125 6.109375 
Q 34.1875 6.109375 38.703125 11.40625 
Q 43.21875 16.703125 43.21875 25.484375 
L 43.21875 27.484375 
z
M 52.203125 31.203125 
L 52.203125 0 
L 43.21875 0 
L 43.21875 8.296875 
Q 40.140625 3.328125 35.546875 0.953125 
Q 30.953125 -1.421875 24.3125 -1.421875 
Q 15.921875 -1.421875 10.953125 3.296875 
Q 6 8.015625 6 15.921875 
Q 6 25.140625 12.171875 29.828125 
Q 18.359375 34.515625 30.609375 34.515625 
L 43.21875 34.515625 
L 43.21875 35.40625 
Q 43.21875 41.609375 39.140625 45 
Q 35.0625 48.390625 27.6875 48.390625 
Q 23 48.390625 18.546875 47.265625 
Q 14.109375 46.140625 10.015625 43.890625 
L 10.015625 52.203125 
Q 14.9375 54.109375 19.578125 55.046875 
Q 24.21875 56 28.609375 56 
Q 40.484375 56 46.34375 49.84375 
Q 52.203125 43.703125 52.203125 31.203125 
z
" id="DejaVuSans-97"/>
       <path d="M 18.3125 70.21875 
L 18.3125 54.6875 
L 36.8125 54.6875 
L 36.8125 47.703125 
L 18.3125 47.703125 
L 18.3125 18.015625 
Q 18.3125 11.328125 20.140625 9.421875 
Q 21.96875 7.515625 27.59375 7.515625 
L 36.8125 7.515625 
L 36.8125 0 
L 27.59375 0 
Q 17.1875 0 13.234375 3.875 
Q 9.28125 7.765625 9.28125 18.015625 
L 9.28125 47.703125 
L 2.6875 47.703125 
L 2.6875 54.6875 
L 9.28125 54.6875 
L 9.28125 70.21875 
z
" id="DejaVuSans-116"/>
       <path d="M 8.5 21.578125 
L 8.5 54.6875 
L 17.484375 54.6875 
L 17.484375 21.921875 
Q 17.484375 14.15625 20.5 10.265625 
Q 23.53125 6.390625 29.59375 6.390625 
Q 36.859375 6.390625 41.078125 11.03125 
Q 45.3125 15.671875 45.3125 23.6875 
L 45.3125 54.6875 
L 54.296875 54.6875 
L 54.296875 0 
L 45.3125 0 
L 45.3125 8.40625 
Q 42.046875 3.421875 37.71875 1 
Q 33.40625 -1.421875 27.6875 -1.421875 
Q 18.265625 -1.421875 13.375 4.4375 
Q 8.5 10.296875 8.5 21.578125 
z
M 31.109375 56 
z
" id="DejaVuSans-117"/>
       <path d="M 52 44.1875 
Q 55.375 50.25 60.0625 53.125 
Q 64.75 56 71.09375 56 
Q 79.640625 56 84.28125 50.015625 
Q 88.921875 44.046875 88.921875 33.015625 
L 88.921875 0 
L 79.890625 0 
L 79.890625 32.71875 
Q 79.890625 40.578125 77.09375 44.375 
Q 74.3125 48.1875 68.609375 48.1875 
Q 61.625 48.1875 57.5625 43.546875 
Q 53.515625 38.921875 53.515625 30.90625 
L 53.515625 0 
L 44.484375 0 
L 44.484375 32.71875 
Q 44.484375 40.625 41.703125 44.40625 
Q 38.921875 48.1875 33.109375 48.1875 
Q 26.21875 48.1875 22.15625 43.53125 
Q 18.109375 38.875 18.109375 30.90625 
L 18.109375 0 
L 9.078125 0 
L 9.078125 54.6875 
L 18.109375 54.6875 
L 18.109375 46.1875 
Q 21.1875 51.21875 25.484375 53.609375 
Q 29.78125 56 35.6875 56 
Q 41.65625 56 45.828125 52.96875 
Q 50 49.953125 52 44.1875 
z
" id="DejaVuSans-109"/>
      </defs>
      <use xlink:href="#DejaVuSans-68"/>
      <use x="77.001953" xlink:href="#DejaVuSans-97"/>
      <use x="138.28125" xlink:href="#DejaVuSans-116"/>
      <use x="177.490234" xlink:href="#DejaVuSans-117"/>
      <use x="240.869141" xlink:href="#DejaVuSans-109"/>
     </g>
    </g>
   </g>
   <g id="matplotlib.axis_2">
    <g id="ytick_1">
     <g id="line2d_19">
      <path clip-path="url(#pca3060a3d3)" d="M 64.8 172.8 
L 655.2 172.8 
" style="fill:none;stroke:#808080;stroke-dasharray:6.4,1.6,1,1.6;stroke-dashoffset:0;stroke-opacity:0.3;"/>
     </g>
     <g id="line2d_20">
      <defs>
       <path d="M 0 0 
L -3.5 0 
" id="mb856053959" style="stroke:#000000;stroke-width:0.8;"/>
      </defs>
      <g>
       <use style="stroke:#000000;stroke-width:0.8;" x="64.8" xlink:href="#mb856053959" y="172.8"/>
      </g>
     </g>
     <g id="text_11">
      <!-- 0 -->
      <g transform="translate(51.4375 176.599219)scale(0.1 -0.1)">
       <use xlink:href="#DejaVuSans-48"/>
      </g>
     </g>
    </g>
    <g id="ytick_2">
     <g id="line2d_21">
      <path clip-path="url(#pca3060a3d3)" d="M 64.8 136.08 
L 655.2 136.08 
" style="fill:none;stroke:#808080;stroke-dasharray:6.4,1.6,1,1.6;stroke-dashoffset:0;stroke-opacity:0.3;"/>
     </g>
     <g id="line2d_22">
      <g>
       <use style="stroke:#000000;stroke-width:0.8;" x="64.8" xlink:href="#mb856053959" y="136.08"/>
      </g>
     </g>
     <g id="text_12">
      <!-- 1000 -->
      <g transform="translate(32.35 139.879219)scale(0.1 -0.1)">
       <use xlink:href="#DejaVuSans-49"/>
       <use x="63.623047" xlink:href="#DejaVuSans-48"/>
       <use x="127.246094" xlink:href="#DejaVuSans-48"/>
       <use x="190.869141" xlink:href="#DejaVuSans-48"/>
      </g>
     </g>
    </g>
    <g id="ytick_3">
     <g id="line2d_23">
      <path clip-path="url(#pca3060a3d3)" d="M 64.8 99.36 
L 655.2 99.36 
" style="fill:none;stroke:#808080;stroke-dasharray:6.4,1.6,1,1.6;stroke-dashoffset:0;stroke-opacity:0.3;"/>
     </g>
     <g id="line2d_24">
      <g>
       <use style="stroke:#000000;stroke-width:0.8;" x="64.8" xlink:href="#mb856053959" y="99.36"/>
      </g>
     </g>
     <g id="text_13">
      <!-- 2000 -->
      <g transform="translate(32.35 103.159219)scale(0.1 -0.1)">
       <use xlink:href="#DejaVuSans-50"/>
       <use x="63.623047" xlink:href="#DejaVuSans-48"/>
       <use x="127.246094" xlink:href="#DejaVuSans-48"/>
       <use x="190.869141" xlink:href="#DejaVuSans-48"/>
      </g>
     </g>
    </g>
    <g id="ytick_4">
     <g id="line2d_25">
      <path clip-path="url(#pca3060a3d3)" d="M 64.8 62.64 
L 655.2 62.64 
" style="fill:none;stroke:#808080;stroke-dasharray:6.4,1.6,1,1.6;stroke-dashoffset:0;stroke-opacity:0.3;"/>
     </g>
     <g id="line2d_26">
      <g>
       <use style="stroke:#000000;stroke-width:0.8;" x="64.8" xlink:href="#mb856053959" y="62.64"/>
      </g>
     </g>
     <g id="text_14">
      <!-- 3000 -->
      <g transform="translate(32.35 66.439219)scale(0.1 -0.1)">
       <use xlink:href="#DejaVuSans-51"/>
       <use x="63.623047" xlink:href="#DejaVuSans-48"/>
       <use x="127.246094" xlink:href="#DejaVuSans-48"/>
       <use x="190.869141" xlink:href="#DejaVuSans-48"/>
      </g>
     </g>
    </g>
    <g id="ytick_5">
     <g id="line2d_27">
      <path clip-path="url(#pca3060a3d3)" d="M 64.8 25.92 
L 655.2 25.92 
" style="fill:none;stroke:#808080;stroke-dasharray:6.4,1.6,1,1.6;stroke-dashoffset:0;stroke-opacity:0.3;"/>
     </g>
     <g id="line2d_28">
      <g>
       <use style="stroke:#000000;stroke-width:0.8;" x="64.8" xlink:href="#mb856053959" y="25.92"/>
      </g>
     </g>
     <g id="text_15">
      <!-- 4000 -->
      <g transform="translate(32.35 29.719219)scale(0.1 -0.1)">
       <defs>
        <path d="M 37.796875 64.3125 
L 12.890625 25.390625 
L 37.796875 25.390625 
z
M 35.203125 72.90625 
L 47.609375 72.90625 
L 47.609375 25.390625 
L 58.015625 25.390625 
L 58.015625 17.1875 
L 47.609375 17.1875 
L 47.609375 0 
L 37.796875 0 
L 37.796875 17.1875 
L 4.890625 17.1875 
L 4.890625 26.703125 
z
" id="DejaVuSans-52"/>
       </defs>
       <use xlink:href="#DejaVuSans-52"/>
       <use x="63.623047" xlink:href="#DejaVuSans-48"/>
       <use x="127.246094" xlink:href="#DejaVuSans-48"/>
       <use x="190.869141" xlink:href="#DejaVuSans-48"/>
      </g>
     </g>
    </g>
    <g id="text_16">
     <!-- RNA per milliliter -->
     <g transform="translate(26.270312 141.776406)rotate(-90)scale(0.1 -0.1)">
      <defs>
       <path d="M 44.390625 34.1875 
Q 47.5625 33.109375 50.5625 29.59375 
Q 53.5625 26.078125 56.59375 19.921875 
L 66.609375 0 
L 56 0 
L 46.6875 18.703125 
Q 43.0625 26.03125 39.671875 28.421875 
Q 36.28125 30.8125 30.421875 30.8125 
L 19.671875 30.8125 
L 19.671875 0 
L 9.8125 0 
L 9.8125 72.90625 
L 32.078125 72.90625 
Q 44.578125 72.90625 50.734375 67.671875 
Q 56.890625 62.453125 56.890625 51.90625 
Q 56.890625 45.015625 53.6875 40.46875 
Q 50.484375 35.9375 44.390625 34.1875 
z
M 19.671875 64.796875 
L 19.671875 38.921875 
L 32.078125 38.921875 
Q 39.203125 38.921875 42.84375 42.21875 
Q 46.484375 45.515625 46.484375 51.90625 
Q 46.484375 58.296875 42.84375 61.546875 
Q 39.203125 64.796875 32.078125 64.796875 
z
" id="DejaVuSans-82"/>
       <path d="M 9.8125 72.90625 
L 23.09375 72.90625 
L 55.421875 11.921875 
L 55.421875 72.90625 
L 64.984375 72.90625 
L 64.984375 0 
L 51.703125 0 
L 19.390625 60.984375 
L 19.390625 0 
L 9.8125 0 
z
" id="DejaVuSans-78"/>
       <path d="M 34.1875 63.1875 
L 20.796875 26.90625 
L 47.609375 26.90625 
z
M 28.609375 72.90625 
L 39.796875 72.90625 
L 67.578125 0 
L 57.328125 0 
L 50.6875 18.703125 
L 17.828125 18.703125 
L 11.1875 0 
L 0.78125 0 
z
" id="DejaVuSans-65"/>
       <path id="DejaVuSans-32"/>
       <path d="M 18.109375 8.203125 
L 18.109375 -20.796875 
L 9.078125 -20.796875 
L 9.078125 54.6875 
L 18.109375 54.6875 
L 18.109375 46.390625 
Q 20.953125 51.265625 25.265625 53.625 
Q 29.59375 56 35.59375 56 
Q 45.5625 56 51.78125 48.09375 
Q 58.015625 40.1875 58.015625 27.296875 
Q 58.015625 14.40625 51.78125 6.484375 
Q 45.5625 -1.421875 35.59375 -1.421875 
Q 29.59375 -1.421875 25.265625 0.953125 
Q 20.953125 3.328125 18.109375 8.203125 
z
M 48.6875 27.296875 
Q 48.6875 37.203125 44.609375 42.84375 
Q 40.53125 48.484375 33.40625 48.484375 
Q 26.265625 48.484375 22.1875 42.84375 
Q 18.109375 37.203125 18.109375 27.296875 
Q 18.109375 17.390625 22.1875 11.75 
Q 26.265625 6.109375 33.40625 6.109375 
Q 40.53125 6.109375 44.609375 11.75 
Q 48.6875 17.390625 48.6875 27.296875 
z
" id="DejaVuSans-112"/>
       <path d="M 56.203125 29.59375 
L 56.203125 25.203125 
L 14.890625 25.203125 
Q 15.484375 15.921875 20.484375 11.0625 
Q 25.484375 6.203125 34.421875 6.203125 
Q 39.59375 6.203125 44.453125 7.46875 
Q 49.3125 8.734375 54.109375 11.28125 
L 54.109375 2.78125 
Q 49.265625 0.734375 44.1875 -0.34375 
Q 39.109375 -1.421875 33.890625 -1.421875 
Q 20.796875 -1.421875 13.15625 6.1875 
Q 5.515625 13.8125 5.515625 26.8125 
Q 5.515625 40.234375 12.765625 48.109375 
Q 20.015625 56 32.328125 56 
Q 43.359375 56 49.78125 48.890625 
Q 56.203125 41.796875 56.203125 29.59375 
z
M 47.21875 32.234375 
Q 47.125 39.59375 43.09375 43.984375 
Q 39.0625 48.390625 32.421875 48.390625 
Q 24.90625 48.390625 20.390625 44.140625 
Q 15.875 39.890625 15.1875 32.171875 
z
" id="DejaVuSans-101"/>
       <path d="M 41.109375 46.296875 
Q 39.59375 47.171875 37.8125 47.578125 
Q 36.03125 48 33.890625 48 
Q 26.265625 48 22.1875 43.046875 
Q 18.109375 38.09375 18.109375 28.8125 
L 18.109375 0 
L 9.078125 0 
L 9.078125 54.6875 
L 18.109375 54.6875 
L 18.109375 46.1875 
Q 20.953125 51.171875 25.484375 53.578125 
Q 30.03125 56 36.53125 56 
Q 37.453125 56 38.578125 55.875 
Q 39.703125 55.765625 41.0625 55.515625 
z
" id="DejaVuSans-114"/>
       <path d="M 9.421875 54.6875 
L 18.40625 54.6875 
L 18.40625 0 
L 9.421875 0 
z
M 9.421875 75.984375 
L 18.40625 75.984375 
L 18.40625 64.59375 
L 9.421875 64.59375 
z
" id="DejaVuSans-105"/>
       <path d="M 9.421875 75.984375 
L 18.40625 75.984375 
L 18.40625 0 
L 9.421875 0 
z
" id="DejaVuSans-108"/>
      </defs>
      <use xlink:href="#DejaVuSans-82"/>
      <use x="69.482422" xlink:href="#DejaVuSans-78"/>
      <use x="144.287109" xlink:href="#DejaVuSans-65"/>
      <use x="212.695312" xlink:href="#DejaVuSans-32"/>
      <use x="244.482422" xlink:href="#DejaVuSans-112"/>
      <use x="307.958984" xlink:href="#DejaVuSans-101"/>
      <use x="369.482422" xlink:href="#DejaVuSans-114"/>
      <use x="410.595703" xlink:href="#DejaVuSans-32"/>
      <use x="442.382812" xlink:href="#DejaVuSans-109"/>
      <use x="539.794922" xlink:href="#DejaVuSans-105"/>
      <use x="567.578125" xlink:href="#DejaVuSans-108"/>
      <use x="595.361328" xlink:href="#DejaVuSans-108"/>
      <use x="623.144531" xlink:href="#DejaVuSans-105"/>
      <use x="650.927734" xlink:href="#DejaVuSans-108"/>
      <use x="678.710938" xlink:href="#DejaVuSans-105"/>
      <use x="706.494141" xlink:href="#DejaVuSans-116"/>
      <use x="745.703125" xlink:href="#DejaVuSans-101"/>
      <use x="807.226562" xlink:href="#DejaVuSans-114"/>
     </g>
    </g>
   </g>
   <g id="line2d_29">
    <path clip-path="url(#pca3060a3d3)" d="M 99.249899 103.123793 
L 102.813682 114.056798 
L 106.377465 117.701133 
L 108.75332 124.989803 
L 112.317103 133.619191 
L 115.880885 136.336357 
L 118.25674 141.38873 
L 119.444668 143.625595 
L 120.632596 145.592298 
L 123.008451 147.280508 
L 124.196378 148.728855 
L 125.384306 149.695497 
L 127.760161 150.972144 
L 131.323944 152.688393 
L 133.699799 155.326756 
L 134.887726 156.447931 
L 137.263581 158.362182 
L 142.015292 159.95208 
L 144.391147 161.67439 
L 146.767002 162.54269 
L 147.95493 163.416014 
L 149.142857 164.076724 
L 151.518712 164.112495 
L 155.082495 163.672313 
L 159.834205 162.590757 
L 161.022133 162.208759 
L 165.773843 161.731891 
L 168.149698 161.841881 
L 170.525553 162.515158 
L 174.089336 162.782847 
L 176.465191 163.591017 
L 181.216901 165.422402 
L 183.592757 166.039142 
L 185.968612 166.560692 
L 189.532394 166.707204 
L 193.096177 167.458651 
L 206.16338 167.783819 
L 208.539235 167.595588 
L 210.915091 167.302772 
L 215.666801 166.967543 
L 218.042656 166.110864 
L 223.982294 165.539053 
L 225.170221 164.93145 
L 229.921932 163.627907 
L 232.297787 162.397487 
L 234.673642 160.838887 
L 235.861569 160.093589 
L 238.237425 159.253091 
L 240.61328 158.610109 
L 242.989135 158.294977 
L 244.177062 158.266573 
L 246.552918 157.89225 
L 247.740845 157.671211 
L 248.928773 157.900352 
L 252.492555 159.020399 
L 253.680483 159.189255 
L 259.620121 159.41877 
L 260.808048 159.394687 
L 261.995976 159.56246 
L 264.371831 160.341951 
L 265.559759 160.499492 
L 269.123541 160.644602 
L 271.499396 161.115556 
L 272.687324 161.463992 
L 275.063179 162.372769 
L 277.439034 163.067941 
L 284.5666 163.540786 
L 286.942455 163.315717 
L 288.130382 163.093919 
L 289.31831 162.734955 
L 295.257948 161.608234 
L 297.633803 160.991332 
L 300.009658 160.005146 
L 302.385513 158.533711 
L 303.573441 157.72564 
L 304.761368 156.763665 
L 307.137223 154.341972 
L 308.325151 152.933588 
L 309.513078 151.337649 
L 310.701006 149.525054 
L 311.888934 147.49331 
L 314.264789 142.783713 
L 316.640644 137.242076 
L 320.204427 128.835928 
L 326.144064 116.098327 
L 327.331992 114.072422 
L 328.51992 111.592295 
L 329.707847 109.529849 
L 330.895775 108.168755 
L 332.083702 107.574263 
L 334.459557 105.545745 
L 335.647485 104.07051 
L 336.835412 101.847675 
L 339.211268 98.139362 
L 340.399195 96.331427 
L 341.587123 94.189608 
L 342.77505 92.297671 
L 343.962978 92.101231 
L 345.150905 91.720526 
L 346.338833 91.055648 
L 347.526761 90.024965 
L 348.714688 89.621121 
L 349.902616 88.936207 
L 351.090543 89.150208 
L 352.278471 90.800771 
L 357.030181 98.132126 
L 358.218109 99.318596 
L 361.781891 100.059137 
L 362.969819 100.691754 
L 364.157746 101.454554 
L 365.345674 103.160786 
L 366.533602 104.574815 
L 367.721529 105.441993 
L 368.909457 106.053481 
L 370.097384 106.918508 
L 371.285312 108.609622 
L 372.473239 111.015714 
L 377.22495 125.113607 
L 378.412877 128.161418 
L 379.600805 130.857994 
L 384.352515 139.278069 
L 385.540443 141.129891 
L 386.72837 142.162318 
L 387.916298 142.681435 
L 389.104225 142.475774 
L 390.292153 142.073909 
L 392.668008 141.607296 
L 395.043863 140.527534 
L 396.231791 139.813849 
L 399.795573 136.701419 
L 402.171429 133.605908 
L 403.359356 131.677656 
L 406.923139 126.578991 
L 408.111066 125.132168 
L 410.486922 123.231162 
L 411.674849 122.566913 
L 414.050704 121.835243 
L 415.238632 121.591306 
L 416.426559 122.133178 
L 417.614487 122.939722 
L 418.802414 124.449954 
L 419.990342 125.455123 
L 423.554125 129.247707 
L 424.742052 130.088897 
L 425.92998 130.770883 
L 429.493763 131.359304 
L 430.68169 131.411391 
L 431.869618 131.277398 
L 433.057545 130.62123 
L 434.245473 129.761774 
L 435.4334 128.144954 
L 436.621328 127.046199 
L 438.997183 124.155541 
L 440.185111 122.387625 
L 441.373038 121.01539 
L 442.560966 119.878701 
L 446.124748 117.104691 
L 447.312676 115.751535 
L 449.688531 113.965063 
L 450.876459 113.958219 
L 452.064386 113.749323 
L 453.252314 113.74383 
L 454.440241 113.963275 
L 455.628169 114.390034 
L 456.816097 114.646415 
L 459.191952 115.527931 
L 460.379879 116.02793 
L 461.567807 116.759653 
L 463.943662 120.661838 
L 465.13159 122.459758 
L 468.695372 126.407573 
L 469.8833 127.56425 
L 472.259155 129.290238 
L 473.447082 129.746349 
L 474.63501 129.82037 
L 475.822938 130.109501 
L 477.010865 130.132344 
L 479.38672 129.084962 
L 481.762575 128.070454 
L 482.950503 127.895812 
L 485.326358 127.916365 
L 487.702213 128.790921 
L 488.890141 129.608936 
L 493.641851 134.849031 
L 498.393561 139.088409 
L 500.769416 140.500941 
L 503.145272 141.308064 
L 504.333199 141.567844 
L 506.709054 141.743005 
L 511.460765 141.09175 
L 515.024547 140.200514 
L 516.212475 139.770264 
L 517.400402 139.488194 
L 520.964185 138.039444 
L 522.152113 137.322371 
L 524.527968 137.032316 
L 526.903823 136.859463 
L 528.091751 136.59935 
L 530.467606 136.560754 
L 536.407243 135.999656 
L 537.595171 136.075088 
L 538.783099 135.873487 
L 542.346881 134.628013 
L 543.534809 134.516711 
L 544.722736 134.240454 
L 545.910664 134.080362 
L 548.286519 134.544143 
L 551.850302 134.92287 
L 553.038229 134.883013 
L 554.226157 134.670272 
L 555.414085 134.918132 
L 557.78994 135.802763 
L 558.977867 136.144668 
L 560.165795 136.29903 
L 561.353722 136.264435 
L 563.729577 135.797595 
L 567.29336 134.70343 
L 568.481288 134.471907 
L 569.669215 134.533613 
L 570.857143 134.230353 
L 573.232998 133.146824 
L 574.420926 132.682681 
L 575.608853 132.583053 
L 577.984708 132.8207 
L 579.172636 133.27248 
L 580.360563 134.244691 
L 586.300201 140.959405 
L 588.676056 144.230194 
L 591.051911 147.132357 
L 593.427767 149.788157 
L 594.615694 150.889804 
L 598.179477 152.057541 
L 600.555332 153.226227 
L 602.931187 154.283489 
L 605.307042 155.034064 
L 611.24668 157.806247 
L 613.622535 158.506108 
L 615.99839 159.824026 
L 618.374245 160.791343 
L 620.750101 161.242204 
L 623.125956 162.187426 
L 625.501811 162.666761 
L 626.689738 162.78935 
L 630.253521 162.717249 
L 632.629376 162.266978 
L 635.005231 161.59795 
L 642.132797 158.868878 
L 642.132797 158.868878 
" style="fill:none;stroke:#008000;stroke-linecap:square;stroke-width:1.5;"/>
   </g>
   <g id="line2d_30">
    <path clip-path="url(#pca3060a3d3)" d="M 648.072435 172.8 
L 648.072435 25.92 
" style="fill:none;stroke:#ff0000;stroke-linecap:square;stroke-width:0.5;"/>
   </g>
   <g id="patch_3">
    <path d="M 64.8 172.8 
L 64.8 25.92 
" style="fill:none;stroke:#000000;stroke-linecap:square;stroke-linejoin:miter;stroke-width:0.8;"/>
   </g>
   <g id="patch_4">
    <path d="M 655.2 172.8 
L 655.2 25.92 
" style="fill:none;stroke:#000000;stroke-linecap:square;stroke-linejoin:miter;stroke-width:0.8;"/>
   </g>
   <g id="patch_5">
    <path d="M 64.8 172.8 
L 655.2 172.8 
" style="fill:none;stroke:#000000;stroke-linecap:square;stroke-linejoin:miter;stroke-width:0.8;"/>
   </g>
   <g id="patch_6">
    <path d="M 64.8 25.92 
L 655.2 25.92 
" style="fill:none;stroke:#000000;stroke-linecap:square;stroke-linejoin:miter;stroke-width:0.8;"/>
   </g>
   <g id="text_17">
    <!-- Concentratie SARS-CoV-2 RNA per ml rioolwater -->
    <g transform="translate(215.560313 19.92)scale(0.12 -0.12)">
     <defs>
      <path d="M 64.40625 67.28125 
L 64.40625 56.890625 
Q 59.421875 61.53125 53.78125 63.8125 
Q 48.140625 66.109375 41.796875 66.109375 
Q 29.296875 66.109375 22.65625 58.46875 
Q 16.015625 50.828125 16.015625 36.375 
Q 16.015625 21.96875 22.65625 14.328125 
Q 29.296875 6.6875 41.796875 6.6875 
Q 48.140625 6.6875 53.78125 8.984375 
Q 59.421875 11.28125 64.40625 15.921875 
L 64.40625 5.609375 
Q 59.234375 2.09375 53.4375 0.328125 
Q 47.65625 -1.421875 41.21875 -1.421875 
Q 24.65625 -1.421875 15.125 8.703125 
Q 5.609375 18.84375 5.609375 36.375 
Q 5.609375 53.953125 15.125 64.078125 
Q 24.65625 74.21875 41.21875 74.21875 
Q 47.75 74.21875 53.53125 72.484375 
Q 59.328125 70.75 64.40625 67.28125 
z
" id="DejaVuSans-67"/>
      <path d="M 30.609375 48.390625 
Q 23.390625 48.390625 19.1875 42.75 
Q 14.984375 37.109375 14.984375 27.296875 
Q 14.984375 17.484375 19.15625 11.84375 
Q 23.34375 6.203125 30.609375 6.203125 
Q 37.796875 6.203125 41.984375 11.859375 
Q 46.1875 17.53125 46.1875 27.296875 
Q 46.1875 37.015625 41.984375 42.703125 
Q 37.796875 48.390625 30.609375 48.390625 
z
M 30.609375 56 
Q 42.328125 56 49.015625 48.375 
Q 55.71875 40.765625 55.71875 27.296875 
Q 55.71875 13.875 49.015625 6.21875 
Q 42.328125 -1.421875 30.609375 -1.421875 
Q 18.84375 -1.421875 12.171875 6.21875 
Q 5.515625 13.875 5.515625 27.296875 
Q 5.515625 40.765625 12.171875 48.375 
Q 18.84375 56 30.609375 56 
z
" id="DejaVuSans-111"/>
      <path d="M 54.890625 33.015625 
L 54.890625 0 
L 45.90625 0 
L 45.90625 32.71875 
Q 45.90625 40.484375 42.875 44.328125 
Q 39.84375 48.1875 33.796875 48.1875 
Q 26.515625 48.1875 22.3125 43.546875 
Q 18.109375 38.921875 18.109375 30.90625 
L 18.109375 0 
L 9.078125 0 
L 9.078125 54.6875 
L 18.109375 54.6875 
L 18.109375 46.1875 
Q 21.34375 51.125 25.703125 53.5625 
Q 30.078125 56 35.796875 56 
Q 45.21875 56 50.046875 50.171875 
Q 54.890625 44.34375 54.890625 33.015625 
z
" id="DejaVuSans-110"/>
      <path d="M 48.78125 52.59375 
L 48.78125 44.1875 
Q 44.96875 46.296875 41.140625 47.34375 
Q 37.3125 48.390625 33.40625 48.390625 
Q 24.65625 48.390625 19.8125 42.84375 
Q 14.984375 37.3125 14.984375 27.296875 
Q 14.984375 17.28125 19.8125 11.734375 
Q 24.65625 6.203125 33.40625 6.203125 
Q 37.3125 6.203125 41.140625 7.25 
Q 44.96875 8.296875 48.78125 10.40625 
L 48.78125 2.09375 
Q 45.015625 0.34375 40.984375 -0.53125 
Q 36.96875 -1.421875 32.421875 -1.421875 
Q 20.0625 -1.421875 12.78125 6.34375 
Q 5.515625 14.109375 5.515625 27.296875 
Q 5.515625 40.671875 12.859375 48.328125 
Q 20.21875 56 33.015625 56 
Q 37.15625 56 41.109375 55.140625 
Q 45.0625 54.296875 48.78125 52.59375 
z
" id="DejaVuSans-99"/>
      <path d="M 53.515625 70.515625 
L 53.515625 60.890625 
Q 47.90625 63.578125 42.921875 64.890625 
Q 37.9375 66.21875 33.296875 66.21875 
Q 25.25 66.21875 20.875 63.09375 
Q 16.5 59.96875 16.5 54.203125 
Q 16.5 49.359375 19.40625 46.890625 
Q 22.3125 44.4375 30.421875 42.921875 
L 36.375 41.703125 
Q 47.40625 39.59375 52.65625 34.296875 
Q 57.90625 29 57.90625 20.125 
Q 57.90625 9.515625 50.796875 4.046875 
Q 43.703125 -1.421875 29.984375 -1.421875 
Q 24.8125 -1.421875 18.96875 -0.25 
Q 13.140625 0.921875 6.890625 3.21875 
L 6.890625 13.375 
Q 12.890625 10.015625 18.65625 8.296875 
Q 24.421875 6.59375 29.984375 6.59375 
Q 38.421875 6.59375 43.015625 9.90625 
Q 47.609375 13.234375 47.609375 19.390625 
Q 47.609375 24.75 44.3125 27.78125 
Q 41.015625 30.8125 33.5 32.328125 
L 27.484375 33.5 
Q 16.453125 35.6875 11.515625 40.375 
Q 6.59375 45.0625 6.59375 53.421875 
Q 6.59375 63.09375 13.40625 68.65625 
Q 20.21875 74.21875 32.171875 74.21875 
Q 37.3125 74.21875 42.625 73.28125 
Q 47.953125 72.359375 53.515625 70.515625 
z
" id="DejaVuSans-83"/>
      <path d="M 28.609375 0 
L 0.78125 72.90625 
L 11.078125 72.90625 
L 34.1875 11.53125 
L 57.328125 72.90625 
L 67.578125 72.90625 
L 39.796875 0 
z
" id="DejaVuSans-86"/>
      <path d="M 4.203125 54.6875 
L 13.1875 54.6875 
L 24.421875 12.015625 
L 35.59375 54.6875 
L 46.1875 54.6875 
L 57.421875 12.015625 
L 68.609375 54.6875 
L 77.59375 54.6875 
L 63.28125 0 
L 52.6875 0 
L 40.921875 44.828125 
L 29.109375 0 
L 18.5 0 
z
" id="DejaVuSans-119"/>
     </defs>
     <use xlink:href="#DejaVuSans-67"/>
     <use x="69.824219" xlink:href="#DejaVuSans-111"/>
     <use x="131.005859" xlink:href="#DejaVuSans-110"/>
     <use x="194.384766" xlink:href="#DejaVuSans-99"/>
     <use x="249.365234" xlink:href="#DejaVuSans-101"/>
     <use x="310.888672" xlink:href="#DejaVuSans-110"/>
     <use x="374.267578" xlink:href="#DejaVuSans-116"/>
     <use x="413.476562" xlink:href="#DejaVuSans-114"/>
     <use x="454.589844" xlink:href="#DejaVuSans-97"/>
     <use x="515.869141" xlink:href="#DejaVuSans-116"/>
     <use x="555.078125" xlink:href="#DejaVuSans-105"/>
     <use x="582.861328" xlink:href="#DejaVuSans-101"/>
     <use x="644.384766" xlink:href="#DejaVuSans-32"/>
     <use x="676.171875" xlink:href="#DejaVuSans-83"/>
     <use x="741.523438" xlink:href="#DejaVuSans-65"/>
     <use x="809.931641" xlink:href="#DejaVuSans-82"/>
     <use x="879.414062" xlink:href="#DejaVuSans-83"/>
     <use x="942.890625" xlink:href="#DejaVuSans-45"/>
     <use x="978.974609" xlink:href="#DejaVuSans-67"/>
     <use x="1048.798828" xlink:href="#DejaVuSans-111"/>
     <use x="1109.980469" xlink:href="#DejaVuSans-86"/>
     <use x="1172.513672" xlink:href="#DejaVuSans-45"/>
     <use x="1208.597656" xlink:href="#DejaVuSans-50"/>
     <use x="1272.220703" xlink:href="#DejaVuSans-32"/>
     <use x="1304.007812" xlink:href="#DejaVuSans-82"/>
     <use x="1373.490234" xlink:href="#DejaVuSans-78"/>
     <use x="1448.294922" xlink:href="#DejaVuSans-65"/>
     <use x="1516.703125" xlink:href="#DejaVuSans-32"/>
     <use x="1548.490234" xlink:href="#DejaVuSans-112"/>
     <use x="1611.966797" xlink:href="#DejaVuSans-101"/>
     <use x="1673.490234" xlink:href="#DejaVuSans-114"/>
     <use x="1714.603516" xlink:href="#DejaVuSans-32"/>
     <use x="1746.390625" xlink:href="#DejaVuSans-109"/>
     <use x="1843.802734" xlink:href="#DejaVuSans-108"/>
     <use x="1871.585938" xlink:href="#DejaVuSans-32"/>
     <use x="1903.373047" xlink:href="#DejaVuSans-114"/>
     <use x="1944.486328" xlink:href="#DejaVuSans-105"/>
     <use x="1972.269531" xlink:href="#DejaVuSans-111"/>
     <use x="2033.451172" xlink:href="#DejaVuSans-111"/>
     <use x="2094.632812" xlink:href="#DejaVuSans-108"/>
     <use x="2122.416016" xlink:href="#DejaVuSans-119"/>
     <use x="2204.203125" xlink:href="#DejaVuSans-97"/>
     <use x="2265.482422" xlink:href="#DejaVuSans-116"/>
     <use x="2304.691406" xlink:href="#DejaVuSans-101"/>
     <use x="2366.214844" xlink:href="#DejaVuSans-114"/>
    </g>
   </g>
   <g id="legend_1">
    <g id="patch_7">
     <path d="M 71.8 48.598125 
L 306.184375 48.598125 
Q 308.184375 48.598125 308.184375 46.598125 
L 308.184375 32.92 
Q 308.184375 30.92 306.184375 30.92 
L 71.8 30.92 
Q 69.8 30.92 69.8 32.92 
L 69.8 46.598125 
Q 69.8 48.598125 71.8 48.598125 
z
" style="fill:#ffffff;opacity:0.8;stroke:#cccccc;stroke-linejoin:miter;"/>
    </g>
    <g id="line2d_31">
     <path d="M 73.8 39.018437 
L 93.8 39.018437 
" style="fill:none;stroke:#008000;stroke-linecap:square;stroke-width:1.5;"/>
    </g>
    <g id="line2d_32"/>
    <g id="text_18">
     <!-- RNA per milliliter rioolwater (gemiddeld) -->
     <g transform="translate(101.8 42.518437)scale(0.1 -0.1)">
      <defs>
       <path d="M 31 75.875 
Q 24.46875 64.65625 21.28125 53.65625 
Q 18.109375 42.671875 18.109375 31.390625 
Q 18.109375 20.125 21.3125 9.0625 
Q 24.515625 -2 31 -13.1875 
L 23.1875 -13.1875 
Q 15.875 -1.703125 12.234375 9.375 
Q 8.59375 20.453125 8.59375 31.390625 
Q 8.59375 42.28125 12.203125 53.3125 
Q 15.828125 64.359375 23.1875 75.875 
z
" id="DejaVuSans-40"/>
       <path d="M 45.40625 27.984375 
Q 45.40625 37.75 41.375 43.109375 
Q 37.359375 48.484375 30.078125 48.484375 
Q 22.859375 48.484375 18.828125 43.109375 
Q 14.796875 37.75 14.796875 27.984375 
Q 14.796875 18.265625 18.828125 12.890625 
Q 22.859375 7.515625 30.078125 7.515625 
Q 37.359375 7.515625 41.375 12.890625 
Q 45.40625 18.265625 45.40625 27.984375 
z
M 54.390625 6.78125 
Q 54.390625 -7.171875 48.1875 -13.984375 
Q 42 -20.796875 29.203125 -20.796875 
Q 24.46875 -20.796875 20.265625 -20.09375 
Q 16.0625 -19.390625 12.109375 -17.921875 
L 12.109375 -9.1875 
Q 16.0625 -11.328125 19.921875 -12.34375 
Q 23.78125 -13.375 27.78125 -13.375 
Q 36.625 -13.375 41.015625 -8.765625 
Q 45.40625 -4.15625 45.40625 5.171875 
L 45.40625 9.625 
Q 42.625 4.78125 38.28125 2.390625 
Q 33.9375 0 27.875 0 
Q 17.828125 0 11.671875 7.65625 
Q 5.515625 15.328125 5.515625 27.984375 
Q 5.515625 40.671875 11.671875 48.328125 
Q 17.828125 56 27.875 56 
Q 33.9375 56 38.28125 53.609375 
Q 42.625 51.21875 45.40625 46.390625 
L 45.40625 54.6875 
L 54.390625 54.6875 
z
" id="DejaVuSans-103"/>
       <path d="M 45.40625 46.390625 
L 45.40625 75.984375 
L 54.390625 75.984375 
L 54.390625 0 
L 45.40625 0 
L 45.40625 8.203125 
Q 42.578125 3.328125 38.25 0.953125 
Q 33.9375 -1.421875 27.875 -1.421875 
Q 17.96875 -1.421875 11.734375 6.484375 
Q 5.515625 14.40625 5.515625 27.296875 
Q 5.515625 40.1875 11.734375 48.09375 
Q 17.96875 56 27.875 56 
Q 33.9375 56 38.25 53.625 
Q 42.578125 51.265625 45.40625 46.390625 
z
M 14.796875 27.296875 
Q 14.796875 17.390625 18.875 11.75 
Q 22.953125 6.109375 30.078125 6.109375 
Q 37.203125 6.109375 41.296875 11.75 
Q 45.40625 17.390625 45.40625 27.296875 
Q 45.40625 37.203125 41.296875 42.84375 
Q 37.203125 48.484375 30.078125 48.484375 
Q 22.953125 48.484375 18.875 42.84375 
Q 14.796875 37.203125 14.796875 27.296875 
z
" id="DejaVuSans-100"/>
       <path d="M 8.015625 75.875 
L 15.828125 75.875 
Q 23.140625 64.359375 26.78125 53.3125 
Q 30.421875 42.28125 30.421875 31.390625 
Q 30.421875 20.453125 26.78125 9.375 
Q 23.140625 -1.703125 15.828125 -13.1875 
L 8.015625 -13.1875 
Q 14.5 -2 17.703125 9.0625 
Q 20.90625 20.125 20.90625 31.390625 
Q 20.90625 42.671875 17.703125 53.65625 
Q 14.5 64.65625 8.015625 75.875 
z
" id="DejaVuSans-41"/>
      </defs>
      <use xlink:href="#DejaVuSans-82"/>
      <use x="69.482422" xlink:href="#DejaVuSans-78"/>
      <use x="144.287109" xlink:href="#DejaVuSans-65"/>
      <use x="212.695312" xlink:href="#DejaVuSans-32"/>
      <use x="244.482422" xlink:href="#DejaVuSans-112"/>
      <use x="307.958984" xlink:href="#DejaVuSans-101"/>
      <use x="369.482422" xlink:href="#DejaVuSans-114"/>
      <use x="410.595703" xlink:href="#DejaVuSans-32"/>
      <use x="442.382812" xlink:href="#DejaVuSans-109"/>
      <use x="539.794922" xlink:href="#DejaVuSans-105"/>
      <use x="567.578125" xlink:href="#DejaVuSans-108"/>
      <use x="595.361328" xlink:href="#DejaVuSans-108"/>
      <use x="623.144531" xlink:href="#DejaVuSans-105"/>
      <use x="650.927734" xlink:href="#DejaVuSans-108"/>
      <use x="678.710938" xlink:href="#DejaVuSans-105"/>
      <use x="706.494141" xlink:href="#DejaVuSans-116"/>
      <use x="745.703125" xlink:href="#DejaVuSans-101"/>
      <use x="807.226562" xlink:href="#DejaVuSans-114"/>
      <use x="848.339844" xlink:href="#DejaVuSans-32"/>
      <use x="880.126953" xlink:href="#DejaVuSans-114"/>
      <use x="921.240234" xlink:href="#DejaVuSans-105"/>
      <use x="949.023438" xlink:href="#DejaVuSans-111"/>
      <use x="1010.205078" xlink:href="#DejaVuSans-111"/>
      <use x="1071.386719" xlink:href="#DejaVuSans-108"/>
      <use x="1099.169922" xlink:href="#DejaVuSans-119"/>
      <use x="1180.957031" xlink:href="#DejaVuSans-97"/>
      <use x="1242.236328" xlink:href="#DejaVuSans-116"/>
      <use x="1281.445312" xlink:href="#DejaVuSans-101"/>
      <use x="1342.96875" xlink:href="#DejaVuSans-114"/>
      <use x="1384.082031" xlink:href="#DejaVuSans-32"/>
      <use x="1415.869141" xlink:href="#DejaVuSans-40"/>
      <use x="1454.882812" xlink:href="#DejaVuSans-103"/>
      <use x="1518.359375" xlink:href="#DejaVuSans-101"/>
      <use x="1579.882812" xlink:href="#DejaVuSans-109"/>
      <use x="1677.294922" xlink:href="#DejaVuSans-105"/>
      <use x="1705.078125" xlink:href="#DejaVuSans-100"/>
      <use x="1768.554688" xlink:href="#DejaVuSans-100"/>
      <use x="1832.03125" xlink:href="#DejaVuSans-101"/>
      <use x="1893.554688" xlink:href="#DejaVuSans-108"/>
      <use x="1921.337891" xlink:href="#DejaVuSans-100"/>
      <use x="1984.814453" xlink:href="#DejaVuSans-41"/>
     </g>
    </g>
   </g>
  </g>
  <g id="text_19">
   <!-- Gegenereerd op 2021-07-05 17:40 o.b.v. data tot 2021-06-30. -->
   <g style="fill:#808080;" transform="translate(7.2 204.88175)scale(0.08 -0.08)">
    <defs>
     <path d="M 59.515625 10.40625 
L 59.515625 29.984375 
L 43.40625 29.984375 
L 43.40625 38.09375 
L 69.28125 38.09375 
L 69.28125 6.78125 
Q 63.578125 2.734375 56.6875 0.65625 
Q 49.8125 -1.421875 42 -1.421875 
Q 24.90625 -1.421875 15.25 8.5625 
Q 5.609375 18.5625 5.609375 36.375 
Q 5.609375 54.25 15.25 64.234375 
Q 24.90625 74.21875 42 74.21875 
Q 49.125 74.21875 55.546875 72.453125 
Q 61.96875 70.703125 67.390625 67.28125 
L 67.390625 56.78125 
Q 61.921875 61.421875 55.765625 63.765625 
Q 49.609375 66.109375 42.828125 66.109375 
Q 29.4375 66.109375 22.71875 58.640625 
Q 16.015625 51.171875 16.015625 36.375 
Q 16.015625 21.625 22.71875 14.15625 
Q 29.4375 6.6875 42.828125 6.6875 
Q 48.046875 6.6875 52.140625 7.59375 
Q 56.25 8.5 59.515625 10.40625 
z
" id="DejaVuSans-71"/>
     <path d="M 11.71875 12.40625 
L 22.015625 12.40625 
L 22.015625 0 
L 11.71875 0 
z
M 11.71875 51.703125 
L 22.015625 51.703125 
L 22.015625 39.3125 
L 11.71875 39.3125 
z
" id="DejaVuSans-58"/>
     <path d="M 10.6875 12.40625 
L 21 12.40625 
L 21 0 
L 10.6875 0 
z
" id="DejaVuSans-46"/>
     <path d="M 48.6875 27.296875 
Q 48.6875 37.203125 44.609375 42.84375 
Q 40.53125 48.484375 33.40625 48.484375 
Q 26.265625 48.484375 22.1875 42.84375 
Q 18.109375 37.203125 18.109375 27.296875 
Q 18.109375 17.390625 22.1875 11.75 
Q 26.265625 6.109375 33.40625 6.109375 
Q 40.53125 6.109375 44.609375 11.75 
Q 48.6875 17.390625 48.6875 27.296875 
z
M 18.109375 46.390625 
Q 20.953125 51.265625 25.265625 53.625 
Q 29.59375 56 35.59375 56 
Q 45.5625 56 51.78125 48.09375 
Q 58.015625 40.1875 58.015625 27.296875 
Q 58.015625 14.40625 51.78125 6.484375 
Q 45.5625 -1.421875 35.59375 -1.421875 
Q 29.59375 -1.421875 25.265625 0.953125 
Q 20.953125 3.328125 18.109375 8.203125 
L 18.109375 0 
L 9.078125 0 
L 9.078125 75.984375 
L 18.109375 75.984375 
z
" id="DejaVuSans-98"/>
     <path d="M 2.984375 54.6875 
L 12.5 54.6875 
L 29.59375 8.796875 
L 46.6875 54.6875 
L 56.203125 54.6875 
L 35.6875 0 
L 23.484375 0 
z
" id="DejaVuSans-118"/>
     <path d="M 33.015625 40.375 
Q 26.375 40.375 22.484375 35.828125 
Q 18.609375 31.296875 18.609375 23.390625 
Q 18.609375 15.53125 22.484375 10.953125 
Q 26.375 6.390625 33.015625 6.390625 
Q 39.65625 6.390625 43.53125 10.953125 
Q 47.40625 15.53125 47.40625 23.390625 
Q 47.40625 31.296875 43.53125 35.828125 
Q 39.65625 40.375 33.015625 40.375 
z
M 52.59375 71.296875 
L 52.59375 62.3125 
Q 48.875 64.0625 45.09375 64.984375 
Q 41.3125 65.921875 37.59375 65.921875 
Q 27.828125 65.921875 22.671875 59.328125 
Q 17.53125 52.734375 16.796875 39.40625 
Q 19.671875 43.65625 24.015625 45.921875 
Q 28.375 48.1875 33.59375 48.1875 
Q 44.578125 48.1875 50.953125 41.515625 
Q 57.328125 34.859375 57.328125 23.390625 
Q 57.328125 12.15625 50.6875 5.359375 
Q 44.046875 -1.421875 33.015625 -1.421875 
Q 20.359375 -1.421875 13.671875 8.265625 
Q 6.984375 17.96875 6.984375 36.375 
Q 6.984375 53.65625 15.1875 63.9375 
Q 23.390625 74.21875 37.203125 74.21875 
Q 40.921875 74.21875 44.703125 73.484375 
Q 48.484375 72.75 52.59375 71.296875 
z
" id="DejaVuSans-54"/>
    </defs>
    <use xlink:href="#DejaVuSans-71"/>
    <use x="77.490234" xlink:href="#DejaVuSans-101"/>
    <use x="139.013672" xlink:href="#DejaVuSans-103"/>
    <use x="202.490234" xlink:href="#DejaVuSans-101"/>
    <use x="264.013672" xlink:href="#DejaVuSans-110"/>
    <use x="327.392578" xlink:href="#DejaVuSans-101"/>
    <use x="388.916016" xlink:href="#DejaVuSans-114"/>
    <use x="427.779297" xlink:href="#DejaVuSans-101"/>
    <use x="489.302734" xlink:href="#DejaVuSans-101"/>
    <use x="550.826172" xlink:href="#DejaVuSans-114"/>
    <use x="590.189453" xlink:href="#DejaVuSans-100"/>
    <use x="653.666016" xlink:href="#DejaVuSans-32"/>
    <use x="685.453125" xlink:href="#DejaVuSans-111"/>
    <use x="746.634766" xlink:href="#DejaVuSans-112"/>
    <use x="810.111328" xlink:href="#DejaVuSans-32"/>
    <use x="841.898438" xlink:href="#DejaVuSans-50"/>
    <use x="905.521484" xlink:href="#DejaVuSans-48"/>
    <use x="969.144531" xlink:href="#DejaVuSans-50"/>
    <use x="1032.767578" xlink:href="#DejaVuSans-49"/>
    <use x="1096.390625" xlink:href="#DejaVuSans-45"/>
    <use x="1132.474609" xlink:href="#DejaVuSans-48"/>
    <use x="1196.097656" xlink:href="#DejaVuSans-55"/>
    <use x="1259.720703" xlink:href="#DejaVuSans-45"/>
    <use x="1295.804688" xlink:href="#DejaVuSans-48"/>
    <use x="1359.427734" xlink:href="#DejaVuSans-53"/>
    <use x="1423.050781" xlink:href="#DejaVuSans-32"/>
    <use x="1454.837891" xlink:href="#DejaVuSans-49"/>
    <use x="1518.460938" xlink:href="#DejaVuSans-55"/>
    <use x="1582.083984" xlink:href="#DejaVuSans-58"/>
    <use x="1615.775391" xlink:href="#DejaVuSans-52"/>
    <use x="1679.398438" xlink:href="#DejaVuSans-48"/>
    <use x="1743.021484" xlink:href="#DejaVuSans-32"/>
    <use x="1774.808594" xlink:href="#DejaVuSans-111"/>
    <use x="1834.240234" xlink:href="#DejaVuSans-46"/>
    <use x="1866.027344" xlink:href="#DejaVuSans-98"/>
    <use x="1929.503906" xlink:href="#DejaVuSans-46"/>
    <use x="1961.291016" xlink:href="#DejaVuSans-118"/>
    <use x="2012.720703" xlink:href="#DejaVuSans-46"/>
    <use x="2044.507812" xlink:href="#DejaVuSans-32"/>
    <use x="2076.294922" xlink:href="#DejaVuSans-100"/>
    <use x="2139.771484" xlink:href="#DejaVuSans-97"/>
    <use x="2201.050781" xlink:href="#DejaVuSans-116"/>
    <use x="2240.259766" xlink:href="#DejaVuSans-97"/>
    <use x="2301.539062" xlink:href="#DejaVuSans-32"/>
    <use x="2333.326172" xlink:href="#DejaVuSans-116"/>
    <use x="2372.535156" xlink:href="#DejaVuSans-111"/>
    <use x="2433.716797" xlink:href="#DejaVuSans-116"/>
    <use x="2472.925781" xlink:href="#DejaVuSans-32"/>
    <use x="2504.712891" xlink:href="#DejaVuSans-50"/>
    <use x="2568.335938" xlink:href="#DejaVuSans-48"/>
    <use x="2631.958984" xlink:href="#DejaVuSans-50"/>
    <use x="2695.582031" xlink:href="#DejaVuSans-49"/>
    <use x="2759.205078" xlink:href="#DejaVuSans-45"/>
    <use x="2795.289062" xlink:href="#DejaVuSans-48"/>
    <use x="2858.912109" xlink:href="#DejaVuSans-54"/>
    <use x="2922.535156" xlink:href="#DejaVuSans-45"/>
    <use x="2958.619141" xlink:href="#DejaVuSans-51"/>
    <use x="3022.242188" xlink:href="#DejaVuSans-48"/>
    <use x="3085.865234" xlink:href="#DejaVuSans-46"/>
   </g>
   <!-- Source code: http://github.com/realrolfje/coronadata -->
   <g style="fill:#808080;" transform="translate(7.2 213.84)scale(0.08 -0.08)">
    <defs>
     <path d="M 54.890625 33.015625 
L 54.890625 0 
L 45.90625 0 
L 45.90625 32.71875 
Q 45.90625 40.484375 42.875 44.328125 
Q 39.84375 48.1875 33.796875 48.1875 
Q 26.515625 48.1875 22.3125 43.546875 
Q 18.109375 38.921875 18.109375 30.90625 
L 18.109375 0 
L 9.078125 0 
L 9.078125 75.984375 
L 18.109375 75.984375 
L 18.109375 46.1875 
Q 21.34375 51.125 25.703125 53.5625 
Q 30.078125 56 35.796875 56 
Q 45.21875 56 50.046875 50.171875 
Q 54.890625 44.34375 54.890625 33.015625 
z
" id="DejaVuSans-104"/>
     <path d="M 25.390625 72.90625 
L 33.6875 72.90625 
L 8.296875 -9.28125 
L 0 -9.28125 
z
" id="DejaVuSans-47"/>
     <path d="M 37.109375 75.984375 
L 37.109375 68.5 
L 28.515625 68.5 
Q 23.6875 68.5 21.796875 66.546875 
Q 19.921875 64.59375 19.921875 59.515625 
L 19.921875 54.6875 
L 34.71875 54.6875 
L 34.71875 47.703125 
L 19.921875 47.703125 
L 19.921875 0 
L 10.890625 0 
L 10.890625 47.703125 
L 2.296875 47.703125 
L 2.296875 54.6875 
L 10.890625 54.6875 
L 10.890625 58.5 
Q 10.890625 67.625 15.140625 71.796875 
Q 19.390625 75.984375 28.609375 75.984375 
z
" id="DejaVuSans-102"/>
     <path d="M 9.421875 54.6875 
L 18.40625 54.6875 
L 18.40625 -0.984375 
Q 18.40625 -11.421875 14.421875 -16.109375 
Q 10.453125 -20.796875 1.609375 -20.796875 
L -1.8125 -20.796875 
L -1.8125 -13.1875 
L 0.59375 -13.1875 
Q 5.71875 -13.1875 7.5625 -10.8125 
Q 9.421875 -8.453125 9.421875 -0.984375 
z
M 9.421875 75.984375 
L 18.40625 75.984375 
L 18.40625 64.59375 
L 9.421875 64.59375 
z
" id="DejaVuSans-106"/>
    </defs>
    <use xlink:href="#DejaVuSans-83"/>
    <use x="63.476562" xlink:href="#DejaVuSans-111"/>
    <use x="124.658203" xlink:href="#DejaVuSans-117"/>
    <use x="188.037109" xlink:href="#DejaVuSans-114"/>
    <use x="226.900391" xlink:href="#DejaVuSans-99"/>
    <use x="281.880859" xlink:href="#DejaVuSans-101"/>
    <use x="343.404297" xlink:href="#DejaVuSans-32"/>
    <use x="375.191406" xlink:href="#DejaVuSans-99"/>
    <use x="430.171875" xlink:href="#DejaVuSans-111"/>
    <use x="491.353516" xlink:href="#DejaVuSans-100"/>
    <use x="554.830078" xlink:href="#DejaVuSans-101"/>
    <use x="616.353516" xlink:href="#DejaVuSans-58"/>
    <use x="650.044922" xlink:href="#DejaVuSans-32"/>
    <use x="681.832031" xlink:href="#DejaVuSans-104"/>
    <use x="745.210938" xlink:href="#DejaVuSans-116"/>
    <use x="784.419922" xlink:href="#DejaVuSans-116"/>
    <use x="823.628906" xlink:href="#DejaVuSans-112"/>
    <use x="887.105469" xlink:href="#DejaVuSans-58"/>
    <use x="920.796875" xlink:href="#DejaVuSans-47"/>
    <use x="954.488281" xlink:href="#DejaVuSans-47"/>
    <use x="988.179688" xlink:href="#DejaVuSans-103"/>
    <use x="1051.65625" xlink:href="#DejaVuSans-105"/>
    <use x="1079.439453" xlink:href="#DejaVuSans-116"/>
    <use x="1118.648438" xlink:href="#DejaVuSans-104"/>
    <use x="1182.027344" xlink:href="#DejaVuSans-117"/>
    <use x="1245.40625" xlink:href="#DejaVuSans-98"/>
    <use x="1308.882812" xlink:href="#DejaVuSans-46"/>
    <use x="1340.669922" xlink:href="#DejaVuSans-99"/>
    <use x="1395.650391" xlink:href="#DejaVuSans-111"/>
    <use x="1456.832031" xlink:href="#DejaVuSans-109"/>
    <use x="1554.244141" xlink:href="#DejaVuSans-47"/>
    <use x="1587.935547" xlink:href="#DejaVuSans-114"/>
    <use x="1626.798828" xlink:href="#DejaVuSans-101"/>
    <use x="1688.322266" xlink:href="#DejaVuSans-97"/>
    <use x="1749.601562" xlink:href="#DejaVuSans-108"/>
    <use x="1777.384766" xlink:href="#DejaVuSans-114"/>
    <use x="1816.248047" xlink:href="#DejaVuSans-111"/>
    <use x="1877.429688" xlink:href="#DejaVuSans-108"/>
    <use x="1905.212891" xlink:href="#DejaVuSans-102"/>
    <use x="1940.417969" xlink:href="#DejaVuSans-106"/>
    <use x="1968.201172" xlink:href="#DejaVuSans-101"/>
    <use x="2029.724609" xlink:href="#DejaVuSans-47"/>
    <use x="2063.416016" xlink:href="#DejaVuSans-99"/>
    <use x="2118.396484" xlink:href="#DejaVuSans-111"/>
    <use x="2179.578125" xlink:href="#DejaVuSans-114"/>
    <use x="2218.441406" xlink:href="#DejaVuSans-111"/>
    <use x="2279.623047" xlink:href="#DejaVuSans-110"/>
    <use x="2343.001953" xlink:href="#DejaVuSans-97"/>
    <use x="2404.28125" xlink:href="#DejaVuSans-100"/>
    <use x="2467.757812" xlink:href="#DejaVuSans-97"/>
    <use x="2529.037109" xlink:href="#DejaVuSans-116"/>
    <use x="2568.246094" xlink:href="#DejaVuSans-97"/>
   </g>
  </g>
  <g id="text_20">
   <!-- Bron: https://data.rivm.nl/covid-19 -->
   <g style="fill:#808080;" transform="translate(574.79875 213.84)scale(0.08 -0.08)">
    <defs>
     <path d="M 19.671875 34.8125 
L 19.671875 8.109375 
L 35.5 8.109375 
Q 43.453125 8.109375 47.28125 11.40625 
Q 51.125 14.703125 51.125 21.484375 
Q 51.125 28.328125 47.28125 31.5625 
Q 43.453125 34.8125 35.5 34.8125 
z
M 19.671875 64.796875 
L 19.671875 42.828125 
L 34.28125 42.828125 
Q 41.5 42.828125 45.03125 45.53125 
Q 48.578125 48.25 48.578125 53.8125 
Q 48.578125 59.328125 45.03125 62.0625 
Q 41.5 64.796875 34.28125 64.796875 
z
M 9.8125 72.90625 
L 35.015625 72.90625 
Q 46.296875 72.90625 52.390625 68.21875 
Q 58.5 63.53125 58.5 54.890625 
Q 58.5 48.1875 55.375 44.234375 
Q 52.25 40.28125 46.1875 39.3125 
Q 53.46875 37.75 57.5 32.78125 
Q 61.53125 27.828125 61.53125 20.40625 
Q 61.53125 10.640625 54.890625 5.3125 
Q 48.25 0 35.984375 0 
L 9.8125 0 
z
" id="DejaVuSans-66"/>
     <path d="M 44.28125 53.078125 
L 44.28125 44.578125 
Q 40.484375 46.53125 36.375 47.5 
Q 32.28125 48.484375 27.875 48.484375 
Q 21.1875 48.484375 17.84375 46.4375 
Q 14.5 44.390625 14.5 40.28125 
Q 14.5 37.15625 16.890625 35.375 
Q 19.28125 33.59375 26.515625 31.984375 
L 29.59375 31.296875 
Q 39.15625 29.25 43.1875 25.515625 
Q 47.21875 21.78125 47.21875 15.09375 
Q 47.21875 7.46875 41.1875 3.015625 
Q 35.15625 -1.421875 24.609375 -1.421875 
Q 20.21875 -1.421875 15.453125 -0.5625 
Q 10.6875 0.296875 5.421875 2 
L 5.421875 11.28125 
Q 10.40625 8.6875 15.234375 7.390625 
Q 20.0625 6.109375 24.8125 6.109375 
Q 31.15625 6.109375 34.5625 8.28125 
Q 37.984375 10.453125 37.984375 14.40625 
Q 37.984375 18.0625 35.515625 20.015625 
Q 33.0625 21.96875 24.703125 23.78125 
L 21.578125 24.515625 
Q 13.234375 26.265625 9.515625 29.90625 
Q 5.8125 33.546875 5.8125 39.890625 
Q 5.8125 47.609375 11.28125 51.796875 
Q 16.75 56 26.8125 56 
Q 31.78125 56 36.171875 55.265625 
Q 40.578125 54.546875 44.28125 53.078125 
z
" id="DejaVuSans-115"/>
    </defs>
    <use xlink:href="#DejaVuSans-66"/>
    <use x="68.603516" xlink:href="#DejaVuSans-114"/>
    <use x="107.466797" xlink:href="#DejaVuSans-111"/>
    <use x="168.648438" xlink:href="#DejaVuSans-110"/>
    <use x="232.027344" xlink:href="#DejaVuSans-58"/>
    <use x="265.71875" xlink:href="#DejaVuSans-32"/>
    <use x="297.505859" xlink:href="#DejaVuSans-104"/>
    <use x="360.884766" xlink:href="#DejaVuSans-116"/>
    <use x="400.09375" xlink:href="#DejaVuSans-116"/>
    <use x="439.302734" xlink:href="#DejaVuSans-112"/>
    <use x="502.779297" xlink:href="#DejaVuSans-115"/>
    <use x="554.878906" xlink:href="#DejaVuSans-58"/>
    <use x="588.570312" xlink:href="#DejaVuSans-47"/>
    <use x="622.261719" xlink:href="#DejaVuSans-47"/>
    <use x="655.953125" xlink:href="#DejaVuSans-100"/>
    <use x="719.429688" xlink:href="#DejaVuSans-97"/>
    <use x="780.708984" xlink:href="#DejaVuSans-116"/>
    <use x="819.917969" xlink:href="#DejaVuSans-97"/>
    <use x="881.197266" xlink:href="#DejaVuSans-46"/>
    <use x="912.984375" xlink:href="#DejaVuSans-114"/>
    <use x="954.097656" xlink:href="#DejaVuSans-105"/>
    <use x="981.880859" xlink:href="#DejaVuSans-118"/>
    <use x="1041.060547" xlink:href="#DejaVuSans-109"/>
    <use x="1138.472656" xlink:href="#DejaVuSans-46"/>
    <use x="1170.259766" xlink:href="#DejaVuSans-110"/>
    <use x="1233.638672" xlink:href="#DejaVuSans-108"/>
    <use x="1261.421875" xlink:href="#DejaVuSans-47"/>
    <use x="1295.113281" xlink:href="#DejaVuSans-99"/>
    <use x="1350.09375" xlink:href="#DejaVuSans-111"/>
    <use x="1411.275391" xlink:href="#DejaVuSans-118"/>
    <use x="1470.455078" xlink:href="#DejaVuSans-105"/>
    <use x="1498.238281" xlink:href="#DejaVuSans-100"/>
    <use x="1561.714844" xlink:href="#DejaVuSans-45"/>
    <use x="1597.798828" xlink:href="#DejaVuSans-49"/>
    <use x="1661.421875" xlink:href="#DejaVuSans-57"/>
   </g>
  </g>
  <g id="text_21">
   <g id="patch_8">
    <path d="M 637.2 176.62375 
L 647.38 176.62375 
L 647.38 168.88125 
L 637.2 168.88125 
z
" style="fill:#ffffff;opacity:0.9;stroke:#ffffff;stroke-linejoin:miter;"/>
   </g>
   <!-- 05 -->
   <g style="fill:#ff0000;" transform="translate(637.2 174.96)scale(0.08 -0.08)">
    <use xlink:href="#DejaVuSans-48"/>
    <use x="63.623047" xlink:href="#DejaVuSans-53"/>
   </g>
  </g>
  <g id="text_22">
   <g id="patch_9">
    <path d="M 176 92.479688 
L 303.317187 92.479688 
L 303.317187 74.801563 
L 176 74.801563 
z
" style="fill:#ffffff;stroke:#ffffff;stroke-linejoin:miter;"/>
   </g>
   <!-- "Je plee liegt niet" - Rolf -->
   <g style="fill:#808080;" transform="translate(180 86.4)scale(0.1 -0.1)">
    <defs>
     <path d="M 17.921875 72.90625 
L 17.921875 45.796875 
L 9.625 45.796875 
L 9.625 72.90625 
z
M 36.375 72.90625 
L 36.375 45.796875 
L 28.078125 45.796875 
L 28.078125 72.90625 
z
" id="DejaVuSans-34"/>
     <path d="M 9.8125 72.90625 
L 19.671875 72.90625 
L 19.671875 5.078125 
Q 19.671875 -8.109375 14.671875 -14.0625 
Q 9.671875 -20.015625 -1.421875 -20.015625 
L -5.171875 -20.015625 
L -5.171875 -11.71875 
L -2.09375 -11.71875 
Q 4.4375 -11.71875 7.125 -8.046875 
Q 9.8125 -4.390625 9.8125 5.078125 
z
" id="DejaVuSans-74"/>
    </defs>
    <use xlink:href="#DejaVuSans-34"/>
    <use x="45.996094" xlink:href="#DejaVuSans-74"/>
    <use x="75.488281" xlink:href="#DejaVuSans-101"/>
    <use x="137.011719" xlink:href="#DejaVuSans-32"/>
    <use x="168.798828" xlink:href="#DejaVuSans-112"/>
    <use x="232.275391" xlink:href="#DejaVuSans-108"/>
    <use x="260.058594" xlink:href="#DejaVuSans-101"/>
    <use x="321.582031" xlink:href="#DejaVuSans-101"/>
    <use x="383.105469" xlink:href="#DejaVuSans-32"/>
    <use x="414.892578" xlink:href="#DejaVuSans-108"/>
    <use x="442.675781" xlink:href="#DejaVuSans-105"/>
    <use x="470.458984" xlink:href="#DejaVuSans-101"/>
    <use x="531.982422" xlink:href="#DejaVuSans-103"/>
    <use x="595.458984" xlink:href="#DejaVuSans-116"/>
    <use x="634.667969" xlink:href="#DejaVuSans-32"/>
    <use x="666.455078" xlink:href="#DejaVuSans-110"/>
    <use x="729.833984" xlink:href="#DejaVuSans-105"/>
    <use x="757.617188" xlink:href="#DejaVuSans-101"/>
    <use x="819.140625" xlink:href="#DejaVuSans-116"/>
    <use x="858.349609" xlink:href="#DejaVuSans-34"/>
    <use x="904.345703" xlink:href="#DejaVuSans-32"/>
    <use x="936.132812" xlink:href="#DejaVuSans-45"/>
    <use x="972.216797" xlink:href="#DejaVuSans-32"/>
    <use x="1004.003906" xlink:href="#DejaVuSans-82"/>
    <use x="1068.986328" xlink:href="#DejaVuSans-111"/>
    <use x="1130.167969" xlink:href="#DejaVuSans-108"/>
    <use x="1157.951172" xlink:href="#DejaVuSans-102"/>
   </g>
  </g>
 </g>
 <defs>
  <clipPath id="pca3060a3d3">
   <rect height="146.88" width="590.4" x="64.8" y="25.92"/>
  </clipPath>
 </defs>
</svg>
