<?xml version="1.0" encoding="utf-8" standalone="no"?>
<!DOCTYPE svg PUBLIC "-//W3C//DTD SVG 1.1//EN"
  "http://www.w3.org/Graphics/SVG/1.1/DTD/svg11.dtd">
<!-- Created with matplotlib (https://matplotlib.org/) -->
<svg height="216pt" version="1.1" viewBox="0 0 720 216" width="720pt" xmlns="http://www.w3.org/2000/svg" xmlns:xlink="http://www.w3.org/1999/xlink">
 <metadata>
  <rdf:RDF xmlns:cc="http://creativecommons.org/ns#" xmlns:dc="http://purl.org/dc/elements/1.1/" xmlns:rdf="http://www.w3.org/1999/02/22-rdf-syntax-ns#">
   <cc:Work>
    <dc:type rdf:resource="http://purl.org/dc/dcmitype/StillImage"/>
    <dc:date>2021-09-25T15:44:23.123083</dc:date>
    <dc:format>image/svg+xml</dc:format>
    <dc:creator>
     <cc:Agent>
      <dc:title>Matplotlib v3.3.2, https://matplotlib.org/</dc:title>
     </cc:Agent>
    </dc:creator>
   </cc:Work>
  </rdf:RDF>
 </metadata>
 <defs>
  <style type="text/css">*{stroke-linecap:butt;stroke-linejoin:round;}</style>
 </defs>
 <g id="figure_1">
  <g id="patch_1">
   <path d="M 0 216 
L 720 216 
L 720 0 
L 0 0 
z
" style="fill:#ffffff;"/>
  </g>
  <g id="axes_1">
   <g id="patch_2">
    <path d="M 64.8 172.8 
L 655.2 172.8 
L 655.2 25.92 
L 64.8 25.92 
z
" style="fill:#ffffff;"/>
   </g>
   <g id="PolyCollection_1">
    <path clip-path="url(#p323f66ed7e)" d="M 94.370984 172.8 
L 94.370984 172.8 
L 95.390674 172.8 
L 96.410363 172.8 
L 97.430052 172.8 
L 100.489119 172.8 
L 101.508808 172.8 
L 102.528497 172.8 
L 103.548187 172.8 
L 104.567876 172.8 
L 105.587565 172.8 
L 108.646632 172.8 
L 109.666321 172.8 
L 110.68601 172.8 
L 111.705699 172.8 
L 112.725389 172.8 
L 114.764767 172.8 
L 115.784456 172.8 
L 116.804145 172.8 
L 117.823834 172.8 
L 118.843523 172.8 
L 121.902591 172.8 
L 122.92228 172.8 
L 123.941969 172.8 
L 124.961658 172.8 
L 125.981347 172.8 
L 127.001036 172.8 
L 129.040415 172.8 
L 131.079793 172.8 
L 132.099482 172.8 
L 133.119171 172.8 
L 135.158549 172.8 
L 136.178238 172.8 
L 137.197927 172.8 
L 138.217617 172.8 
L 139.237306 172.8 
L 141.276684 172.8 
L 142.296373 172.8 
L 143.316062 172.8 
L 144.335751 172.8 
L 145.35544 172.8 
L 146.37513 172.8 
L 147.394819 172.8 
L 148.414508 172.8 
L 149.434197 172.8 
L 150.453886 172.8 
L 151.473575 172.8 
L 152.493264 172.8 
L 153.512953 172.8 
L 154.532642 172.8 
L 155.552332 172.8 
L 158.611399 172.8 
L 159.631088 172.8 
L 160.650777 172.8 
L 161.670466 172.8 
L 162.690155 172.8 
L 163.709845 172.8 
L 164.729534 172.8 
L 165.749223 172.8 
L 166.768912 172.8 
L 167.788601 172.8 
L 168.80829 172.8 
L 171.867358 172.8 
L 172.887047 172.8 
L 173.906736 172.8 
L 174.926425 172.8 
L 179.005181 172.8 
L 180.02487 172.8 
L 181.04456 172.8 
L 185.123316 172.8 
L 186.143005 172.8 
L 187.162694 172.8 
L 188.182383 172.8 
L 190.221762 172.8 
L 194.300518 172.8 
L 195.320207 172.8 
L 196.339896 172.8 
L 201.438342 172.8 
L 202.458031 172.8 
L 204.497409 172.8 
L 206.536788 172.8 
L 207.556477 172.8 
L 208.576166 172.8 
L 209.595855 172.8 
L 210.615544 172.8 
L 211.635233 172.8 
L 212.654922 172.8 
L 213.674611 172.8 
L 214.694301 172.8 
L 215.71399 172.8 
L 216.733679 172.8 
L 217.753368 172.8 
L 218.773057 172.8 
L 219.792746 172.8 
L 220.812435 172.8 
L 221.832124 172.8 
L 222.851813 172.8 
L 223.871503 172.8 
L 224.891192 172.8 
L 225.910881 172.8 
L 226.93057 172.8 
L 228.969948 172.8 
L 229.989637 172.8 
L 231.009326 172.8 
L 232.029016 172.8 
L 233.048705 172.8 
L 234.068394 172.8 
L 235.088083 172.8 
L 236.107772 172.8 
L 237.127461 172.8 
L 238.14715 172.8 
L 239.166839 172.8 
L 240.186528 172.8 
L 241.206218 172.8 
L 242.225907 172.8 
L 243.245596 172.8 
L 244.265285 172.8 
L 245.284974 172.8 
L 246.304663 172.8 
L 247.324352 172.8 
L 248.344041 172.8 
L 249.363731 172.8 
L 250.38342 172.8 
L 251.403109 172.8 
L 252.422798 172.8 
L 253.442487 172.8 
L 254.462176 172.8 
L 255.481865 172.8 
L 256.501554 172.8 
L 257.521244 172.8 
L 258.540933 172.8 
L 259.560622 172.8 
L 260.580311 172.8 
L 261.6 172.8 
L 262.619689 172.8 
L 263.639378 172.8 
L 264.659067 172.8 
L 265.678756 172.8 
L 266.698446 172.8 
L 267.718135 172.8 
L 268.737824 172.8 
L 269.757513 172.8 
L 270.777202 172.8 
L 271.796891 172.8 
L 272.81658 172.8 
L 273.836269 172.8 
L 274.855959 172.8 
L 275.875648 172.8 
L 276.895337 172.8 
L 277.915026 172.8 
L 278.934715 172.8 
L 279.954404 172.8 
L 280.974093 172.8 
L 281.993782 172.8 
L 283.013472 172.8 
L 284.033161 172.8 
L 285.05285 172.8 
L 286.072539 172.8 
L 287.092228 172.8 
L 288.111917 172.8 
L 289.131606 172.8 
L 290.151295 172.8 
L 291.170984 172.8 
L 292.190674 172.8 
L 293.210363 172.8 
L 294.230052 172.8 
L 295.249741 172.8 
L 296.26943 172.8 
L 297.289119 172.8 
L 298.308808 172.8 
L 299.328497 172.8 
L 300.348187 172.8 
L 301.367876 172.8 
L 302.387565 172.8 
L 303.407254 172.8 
L 304.426943 172.8 
L 305.446632 172.8 
L 306.466321 172.8 
L 307.48601 172.8 
L 308.505699 172.8 
L 309.525389 172.8 
L 310.545078 172.8 
L 311.564767 172.8 
L 312.584456 172.8 
L 313.604145 172.8 
L 314.623834 172.8 
L 315.643523 172.8 
L 316.663212 172.8 
L 317.682902 172.8 
L 318.702591 172.8 
L 319.72228 172.8 
L 320.741969 172.8 
L 321.761658 172.8 
L 322.781347 172.8 
L 323.801036 172.8 
L 324.820725 172.8 
L 325.840415 172.8 
L 326.860104 172.8 
L 327.879793 172.8 
L 328.899482 172.8 
L 329.919171 172.8 
L 330.93886 172.8 
L 331.958549 172.8 
L 332.978238 172.8 
L 333.997927 172.8 
L 335.017617 172.8 
L 336.037306 172.8 
L 337.056995 172.8 
L 338.076684 172.8 
L 339.096373 172.8 
L 340.116062 172.8 
L 341.135751 172.8 
L 342.15544 172.8 
L 343.17513 172.8 
L 344.194819 172.8 
L 345.214508 172.8 
L 346.234197 172.8 
L 347.253886 172.8 
L 348.273575 172.8 
L 349.293264 172.8 
L 350.312953 172.8 
L 351.332642 172.8 
L 352.352332 172.8 
L 353.372021 172.8 
L 354.39171 172.8 
L 355.411399 172.8 
L 356.431088 172.8 
L 357.450777 172.8 
L 358.470466 172.8 
L 359.490155 172.8 
L 360.509845 172.8 
L 361.529534 172.8 
L 362.549223 172.8 
L 363.568912 172.8 
L 364.588601 172.8 
L 365.60829 172.8 
L 366.627979 172.8 
L 367.647668 172.8 
L 368.667358 172.8 
L 369.687047 172.8 
L 370.706736 172.8 
L 371.726425 172.8 
L 372.746114 172.8 
L 373.765803 172.8 
L 374.785492 172.8 
L 376.82487 172.8 
L 377.84456 172.8 
L 378.864249 172.8 
L 379.883938 172.8 
L 380.903627 172.8 
L 381.923316 172.8 
L 382.943005 172.8 
L 383.962694 172.8 
L 384.982383 172.8 
L 386.002073 172.8 
L 387.021762 172.8 
L 388.041451 172.8 
L 389.06114 172.8 
L 390.080829 172.8 
L 391.100518 172.8 
L 392.120207 172.8 
L 393.139896 172.8 
L 394.159585 172.8 
L 395.179275 172.8 
L 396.198964 172.8 
L 397.218653 172.8 
L 398.238342 172.8 
L 399.258031 172.8 
L 400.27772 172.8 
L 401.297409 172.8 
L 402.317098 172.8 
L 403.336788 172.8 
L 404.356477 172.8 
L 405.376166 172.8 
L 406.395855 172.8 
L 407.415544 172.8 
L 408.435233 172.8 
L 409.454922 172.8 
L 410.474611 172.8 
L 411.494301 172.8 
L 412.51399 172.8 
L 413.533679 172.8 
L 414.553368 172.8 
L 415.573057 172.8 
L 416.592746 172.8 
L 417.612435 172.8 
L 418.632124 172.8 
L 419.651813 172.8 
L 420.671503 172.8 
L 421.691192 172.8 
L 422.710881 172.8 
L 423.73057 172.8 
L 424.750259 172.8 
L 425.769948 172.8 
L 426.789637 172.8 
L 427.809326 172.8 
L 428.829016 172.8 
L 429.848705 172.8 
L 430.868394 172.8 
L 431.888083 172.8 
L 432.907772 172.8 
L 433.927461 172.8 
L 434.94715 172.8 
L 435.966839 172.8 
L 436.986528 172.8 
L 438.006218 172.8 
L 439.025907 172.8 
L 440.045596 172.8 
L 441.065285 172.8 
L 442.084974 172.8 
L 443.104663 172.8 
L 444.124352 172.8 
L 445.144041 172.8 
L 446.163731 172.8 
L 447.18342 172.8 
L 448.203109 172.8 
L 449.222798 172.8 
L 450.242487 172.8 
L 451.262176 172.8 
L 452.281865 172.8 
L 453.301554 172.8 
L 454.321244 172.8 
L 455.340933 172.8 
L 456.360622 172.8 
L 457.380311 172.8 
L 458.4 172.8 
L 459.419689 172.8 
L 460.439378 172.8 
L 461.459067 172.8 
L 462.478756 172.8 
L 463.498446 172.8 
L 464.518135 172.8 
L 465.537824 172.8 
L 466.557513 172.8 
L 467.577202 172.8 
L 468.596891 172.8 
L 469.61658 172.8 
L 470.636269 172.8 
L 471.655959 172.8 
L 472.675648 172.8 
L 473.695337 172.8 
L 474.715026 172.8 
L 475.734715 172.8 
L 476.754404 172.8 
L 477.774093 172.8 
L 478.793782 172.8 
L 479.813472 172.8 
L 480.833161 172.8 
L 481.85285 172.8 
L 482.872539 172.8 
L 483.892228 172.8 
L 484.911917 172.8 
L 485.931606 172.8 
L 486.951295 172.8 
L 487.970984 172.8 
L 488.990674 172.8 
L 490.010363 172.8 
L 491.030052 172.8 
L 492.049741 172.8 
L 493.06943 172.8 
L 494.089119 172.8 
L 495.108808 172.8 
L 496.128497 172.8 
L 497.148187 172.8 
L 498.167876 172.8 
L 499.187565 172.8 
L 500.207254 172.8 
L 501.226943 172.8 
L 502.246632 172.8 
L 503.266321 172.8 
L 504.28601 172.8 
L 505.305699 172.8 
L 506.325389 172.8 
L 507.345078 172.8 
L 508.364767 172.8 
L 509.384456 172.8 
L 510.404145 172.8 
L 511.423834 172.8 
L 512.443523 172.8 
L 513.463212 172.8 
L 514.482902 172.8 
L 515.502591 172.8 
L 516.52228 172.8 
L 517.541969 172.8 
L 518.561658 172.8 
L 519.581347 172.8 
L 521.620725 172.8 
L 522.640415 172.8 
L 523.660104 172.8 
L 524.679793 172.8 
L 525.699482 172.8 
L 526.719171 172.8 
L 527.73886 172.8 
L 528.758549 172.8 
L 529.778238 172.8 
L 530.797927 172.8 
L 531.817617 172.8 
L 532.837306 172.8 
L 533.856995 172.8 
L 535.896373 172.8 
L 536.916062 172.8 
L 537.935751 172.8 
L 538.95544 172.8 
L 539.97513 172.8 
L 542.014508 172.8 
L 543.034197 172.8 
L 544.053886 172.8 
L 545.073575 172.8 
L 546.093264 172.8 
L 547.112953 172.8 
L 549.152332 172.8 
L 550.172021 172.8 
L 551.19171 172.8 
L 552.211399 172.8 
L 553.231088 172.8 
L 554.250777 172.8 
L 555.270466 172.8 
L 556.290155 172.8 
L 557.309845 172.8 
L 558.329534 172.8 
L 559.349223 172.8 
L 560.368912 172.8 
L 561.388601 172.8 
L 562.40829 172.8 
L 563.427979 172.8 
L 564.447668 172.8 
L 565.467358 172.8 
L 566.487047 172.8 
L 567.506736 172.8 
L 568.526425 172.8 
L 569.546114 172.8 
L 570.565803 172.8 
L 571.585492 172.8 
L 572.605181 172.8 
L 573.62487 172.8 
L 574.64456 172.8 
L 575.664249 172.8 
L 577.703627 172.8 
L 578.723316 172.8 
L 579.743005 172.8 
L 580.762694 172.8 
L 581.782383 172.8 
L 582.802073 172.8 
L 583.821762 172.8 
L 584.841451 172.8 
L 585.86114 172.8 
L 586.880829 172.8 
L 587.900518 172.8 
L 588.920207 172.8 
L 589.939896 172.8 
L 590.959585 172.8 
L 591.979275 172.8 
L 592.998964 172.8 
L 594.018653 172.8 
L 595.038342 172.8 
L 596.058031 172.8 
L 597.07772 172.8 
L 598.097409 172.8 
L 599.117098 172.8 
L 600.136788 172.8 
L 601.156477 172.8 
L 602.176166 172.8 
L 603.195855 172.8 
L 604.215544 172.8 
L 605.235233 172.8 
L 606.254922 172.8 
L 607.274611 172.8 
L 608.294301 172.8 
L 609.31399 172.8 
L 610.333679 172.8 
L 611.353368 172.8 
L 612.373057 172.8 
L 613.392746 172.8 
L 614.412435 172.8 
L 615.432124 172.8 
L 616.451813 172.8 
L 617.471503 172.8 
L 618.491192 172.8 
L 619.510881 172.8 
L 620.53057 172.8 
L 621.550259 172.8 
L 622.569948 172.8 
L 623.589637 172.8 
L 624.609326 172.8 
L 625.629016 172.8 
L 626.648705 172.8 
L 627.668394 172.8 
L 628.688083 172.8 
L 629.707772 172.8 
L 630.727461 172.8 
L 631.74715 172.8 
L 632.766839 172.8 
L 633.786528 172.8 
L 634.806218 172.8 
L 635.825907 172.8 
L 636.845596 172.8 
L 637.865285 172.8 
L 638.884974 172.8 
L 639.904663 172.8 
L 640.924352 172.8 
L 641.944041 172.8 
L 642.963731 172.8 
L 643.98342 172.8 
L 645.003109 172.8 
L 645.003109 172.8 
L 645.003109 159.666878 
L 643.98342 160.504575 
L 642.963731 159.304235 
L 641.944041 159.127528 
L 640.924352 160.103563 
L 639.904663 155.714885 
L 638.884974 159.500815 
L 637.865285 160.38536 
L 636.845596 158.567475 
L 635.825907 154.611397 
L 634.806218 156.334497 
L 633.786528 154.070139 
L 632.766839 155.354947 
L 631.74715 152.597481 
L 630.727461 159.138644 
L 629.707772 158.251628 
L 628.688083 156.446712 
L 627.668394 151.209178 
L 626.648705 156.311731 
L 625.629016 139.846286 
L 624.609326 143.781256 
L 623.589637 152.971616 
L 622.569948 153.90636 
L 621.550259 113.682456 
L 620.53057 124.362251 
L 619.510881 86.577856 
L 618.491192 91.383937 
L 617.471503 105.382336 
L 616.451813 110.853274 
L 615.432124 112.127323 
L 614.412435 67.181409 
L 613.392746 109.565432 
L 612.373057 97.730493 
L 611.353368 117.71063 
L 610.333679 133.579882 
L 609.31399 96.753757 
L 608.294301 102.436659 
L 607.274611 117.079514 
L 606.254922 103.984872 
L 605.235233 128.2345 
L 604.215544 120.415449 
L 603.195855 134.532795 
L 602.176166 118.384142 
L 601.156477 118.552232 
L 600.136788 113.245979 
L 599.117098 94.416467 
L 598.097409 100.817589 
L 597.07772 116.727606 
L 596.058031 122.572452 
L 595.038342 118.302124 
L 594.018653 128.283917 
L 592.998964 124.913276 
L 591.979275 124.066115 
L 590.959585 97.692824 
L 589.939896 141.76763 
L 588.920207 149.910168 
L 587.900518 140.845228 
L 586.880829 131.643526 
L 585.86114 105.308852 
L 584.841451 96.264172 
L 583.821762 112.880803 
L 582.802073 116.434041 
L 581.782383 118.687112 
L 580.762694 128.771532 
L 579.743005 112.404711 
L 578.723316 127.855989 
L 577.703627 135.751115 
L 575.664249 69.648406 
L 574.64456 86.113571 
L 573.62487 116.02818 
L 572.605181 120.094685 
L 571.585492 107.112476 
L 570.565803 113.784516 
L 569.546114 131.663277 
L 568.526425 133.740688 
L 567.506736 152.117372 
L 566.487047 158.281979 
L 565.467358 154.89907 
L 564.447668 132.47733 
L 563.427979 165.205335 
L 562.40829 162.865898 
L 561.388601 164.987836 
L 560.368912 161.118372 
L 559.349223 157.461296 
L 558.329534 159.326763 
L 557.309845 149.053694 
L 556.290155 162.572281 
L 555.270466 166.70406 
L 554.250777 164.64173 
L 553.231088 163.459728 
L 552.211399 166.403695 
L 551.19171 160.640142 
L 550.172021 165.344346 
L 549.152332 166.93012 
L 547.112953 164.902401 
L 546.093264 166.066596 
L 545.073575 158.116862 
L 544.053886 165.628619 
L 543.034197 163.718601 
L 542.014508 152.60752 
L 539.97513 166.232787 
L 538.95544 158.256133 
L 537.935751 164.878666 
L 536.916062 165.456303 
L 535.896373 157.55768 
L 533.856995 154.304757 
L 532.837306 161.942522 
L 531.817617 153.310483 
L 530.797927 150.077338 
L 529.778238 155.755811 
L 528.758549 143.826417 
L 527.73886 159.960447 
L 526.719171 157.185634 
L 525.699482 160.726307 
L 524.679793 150.879304 
L 523.660104 146.075299 
L 522.640415 147.41725 
L 521.620725 156.27884 
L 519.581347 160.982456 
L 518.561658 159.298533 
L 517.541969 144.979683 
L 516.52228 147.072647 
L 515.502591 142.244774 
L 514.482902 150.258207 
L 513.463212 158.486479 
L 512.443523 144.799993 
L 511.423834 135.032938 
L 510.404145 137.394655 
L 509.384456 140.84374 
L 508.364767 145.790526 
L 507.345078 108.764004 
L 506.325389 103.273657 
L 505.305699 115.867162 
L 504.28601 141.750076 
L 503.266321 128.093661 
L 502.246632 113.945642 
L 501.226943 139.507839 
L 500.207254 143.867111 
L 499.187565 158.804853 
L 498.167876 153.36857 
L 497.148187 115.734033 
L 496.128497 135.557076 
L 495.108808 140.718885 
L 494.089119 121.156437 
L 493.06943 133.517688 
L 492.049741 130.021742 
L 491.030052 135.887764 
L 490.010363 147.3494 
L 488.990674 147.24953 
L 487.970984 137.250226 
L 486.951295 138.498124 
L 485.931606 127.877434 
L 484.911917 110.024864 
L 483.892228 143.629121 
L 482.872539 144.987049 
L 481.85285 148.303003 
L 480.833161 131.619043 
L 479.813472 142.225225 
L 478.793782 137.005289 
L 477.774093 100.009519 
L 476.754404 134.671348 
L 475.734715 148.858822 
L 474.715026 122.940898 
L 473.695337 123.293579 
L 472.675648 134.730823 
L 471.655959 144.522787 
L 470.636269 142.30677 
L 469.61658 137.709261 
L 468.596891 136.600683 
L 467.577202 146.56533 
L 466.557513 138.795282 
L 465.537824 139.434002 
L 464.518135 132.653891 
L 463.498446 141.624997 
L 462.478756 122.590942 
L 461.459067 144.581141 
L 460.439378 133.344477 
L 459.419689 137.279044 
L 458.4 137.38133 
L 457.380311 94.165674 
L 456.360622 149.839856 
L 455.340933 146.662783 
L 454.321244 144.206918 
L 453.301554 153.480188 
L 452.281865 131.993864 
L 451.262176 150.43032 
L 450.242487 146.065811 
L 449.222798 138.277085 
L 448.203109 140.477018 
L 447.18342 136.178252 
L 446.163731 145.566105 
L 445.144041 145.786417 
L 444.124352 134.926886 
L 443.104663 136.024015 
L 442.084974 135.502841 
L 441.065285 143.414983 
L 440.045596 140.34631 
L 439.025907 149.635629 
L 438.006218 144.992239 
L 436.986528 152.138659 
L 435.966839 152.824703 
L 434.94715 106.632528 
L 433.927461 150.114703 
L 432.907772 155.113752 
L 431.888083 147.420985 
L 430.868394 134.275209 
L 429.848705 123.744372 
L 428.829016 94.473208 
L 427.809326 122.019009 
L 426.789637 119.633237 
L 425.769948 121.19727 
L 424.750259 136.750773 
L 423.73057 126.4421 
L 422.710881 98.962939 
L 421.691192 132.441863 
L 420.671503 143.636859 
L 419.651813 133.632038 
L 418.632124 132.000431 
L 417.612435 145.904745 
L 416.592746 103.408729 
L 415.573057 140.758236 
L 414.553368 156.627057 
L 413.533679 115.69574 
L 412.51399 152.471809 
L 411.494301 136.72894 
L 410.474611 127.887017 
L 409.454922 110.956815 
L 408.435233 138.962608 
L 407.415544 141.077965 
L 406.395855 129.156698 
L 405.376166 15.712466 
L 404.356477 112.531776 
L 403.336788 118.92834 
L 402.317098 122.470209 
L 401.297409 116.457284 
L 400.27772 123.329339 
L 399.258031 128.230276 
L 398.238342 120.811736 
L 397.218653 114.079626 
L 396.198964 119.913195 
L 395.179275 71.00656 
L 394.159585 126.814628 
L 393.139896 95.872056 
L 392.120207 119.423246 
L 391.100518 118.320024 
L 390.080829 138.208685 
L 389.06114 118.67668 
L 388.041451 100.461711 
L 387.021762 102.561448 
L 386.002073 139.024808 
L 384.982383 143.231016 
L 383.962694 134.647109 
L 382.943005 94.723026 
L 381.923316 141.29349 
L 380.903627 136.552762 
L 379.883938 128.66006 
L 378.864249 142.371743 
L 377.84456 142.148088 
L 376.82487 148.584485 
L 374.785492 150.305439 
L 373.765803 124.142394 
L 372.746114 148.467582 
L 371.726425 109.285949 
L 370.706736 137.5216 
L 369.687047 110.627515 
L 368.667358 157.08584 
L 367.647668 83.454723 
L 366.627979 111.993572 
L 365.60829 73.117423 
L 364.588601 133.434908 
L 363.568912 141.108088 
L 362.549223 126.858461 
L 361.529534 131.992243 
L 360.509845 120.917477 
L 359.490155 111.695393 
L 358.470466 98.991505 
L 357.450777 126.495242 
L 356.431088 127.446293 
L 355.411399 134.093207 
L 354.39171 144.539163 
L 353.372021 131.684679 
L 352.352332 150.395521 
L 351.332642 145.286576 
L 350.312953 139.307814 
L 349.293264 155.752304 
L 348.273575 154.236541 
L 347.253886 134.668552 
L 346.234197 150.456177 
L 345.214508 133.217996 
L 344.194819 112.451703 
L 343.17513 145.388986 
L 342.15544 149.910775 
L 341.135751 140.879904 
L 340.116062 154.761525 
L 339.096373 158.326743 
L 338.076684 122.998856 
L 337.056995 151.411267 
L 336.037306 133.086678 
L 335.017617 150.509237 
L 333.997927 140.570395 
L 332.978238 148.641328 
L 331.958549 150.04713 
L 330.93886 135.321289 
L 329.919171 130.901662 
L 328.899482 44.215821 
L 327.879793 48.396702 
L 326.860104 38.97713 
L 325.840415 120.182092 
L 324.820725 127.945982 
L 323.801036 127.317375 
L 322.781347 112.159679 
L 321.761658 55.126432 
L 320.741969 90.13739 
L 319.72228 105.932244 
L 318.702591 118.054637 
L 317.682902 144.184981 
L 316.663212 133.663882 
L 315.643523 131.1864 
L 314.623834 77.781959 
L 313.604145 62.993072 
L 312.584456 124.885783 
L 311.564767 89.681272 
L 310.545078 11.011416 
L 309.525389 42.340637 
L 308.505699 119.390676 
L 307.48601 60.165783 
L 306.466321 113.669292 
L 305.446632 114.587018 
L 304.426943 139.858606 
L 303.407254 -22.678672 
L 302.387565 97.175973 
L 301.367876 124.695532 
L 300.348187 92.805126 
L 299.328497 116.290424 
L 298.308808 84.915226 
L 297.289119 138.012863 
L 296.26943 124.43797 
L 295.249741 136.682364 
L 294.230052 136.130025 
L 293.210363 61.273262 
L 292.190674 63.09404 
L 291.170984 104.391386 
L 290.151295 107.517959 
L 289.131606 105.395517 
L 288.111917 115.182639 
L 287.092228 115.189119 
L 286.072539 138.174102 
L 285.05285 127.2164 
L 284.033161 137.479155 
L 283.013472 130.384229 
L 281.993782 149.409778 
L 280.974093 142.907665 
L 279.954404 135.057121 
L 278.934715 130.129585 
L 277.915026 139.476754 
L 276.895337 162.342137 
L 275.875648 153.626899 
L 274.855959 156.722059 
L 273.836269 153.247738 
L 272.81658 162.160025 
L 271.796891 154.785068 
L 270.777202 158.549282 
L 269.757513 161.633784 
L 268.737824 159.76698 
L 267.718135 160.107807 
L 266.698446 165.528967 
L 265.678756 154.797816 
L 264.659067 163.75275 
L 263.639378 165.22846 
L 262.619689 164.822076 
L 261.6 161.646606 
L 260.580311 159.609474 
L 259.560622 162.995666 
L 258.540933 161.886802 
L 257.521244 147.79368 
L 256.501554 166.873392 
L 255.481865 163.080216 
L 254.462176 168.72408 
L 253.442487 165.7773 
L 252.422798 166.489809 
L 251.403109 163.888056 
L 250.38342 168.28344 
L 249.363731 164.4003 
L 248.344041 160.81704 
L 247.324352 170.63352 
L 246.304663 166.34952 
L 245.284974 163.896812 
L 244.265285 161.468208 
L 243.245596 148.932 
L 242.225907 156.6432 
L 241.206218 159.01776 
L 240.186528 158.112 
L 239.166839 163.38438 
L 238.14715 163.348837 
L 237.127461 164.412103 
L 236.107772 165.720909 
L 235.088083 162.396 
L 234.068394 148.89528 
L 233.048705 150.35184 
L 232.029016 167.189184 
L 231.009326 155.830464 
L 229.989637 158.55264 
L 228.969948 160.61814 
L 226.93057 166.66776 
L 225.910881 169.42176 
L 224.891192 166.22712 
L 223.871503 162.81675 
L 222.851813 140.103463 
L 221.832124 128.69469 
L 220.812435 162.18333 
L 219.792746 165.56616 
L 218.773057 166.77792 
L 217.753368 156.79824 
L 216.733679 163.008 
L 215.71399 152.71008 
L 214.694301 156.738672 
L 213.674611 165.89664 
L 212.654922 159.98472 
L 211.635233 145.60884 
L 210.615544 167.76936 
L 209.595855 144.32976 
L 208.576166 167.74896 
L 207.556477 163.12428 
L 206.536788 168.47928 
L 204.497409 163.2528 
L 202.458031 169.20144 
L 201.438342 168.254064 
L 196.339896 168.09984 
L 195.320207 167.73264 
L 194.300518 166.41072 
L 190.221762 166.48416 
L 188.182383 171.95544 
L 187.162694 169.587 
L 186.143005 166.31892 
L 185.123316 167.58576 
L 181.04456 169.27488 
L 180.02487 171.3312 
L 179.005181 166.99824 
L 174.926425 170.505 
L 173.906736 167.45112 
L 172.887047 168.98112 
L 171.867358 159.25032 
L 168.80829 160.9272 
L 167.788601 165.815856 
L 166.768912 168.47622 
L 165.749223 163.8954 
L 164.729534 171.12924 
L 163.709845 172.10232 
L 162.690155 168.79752 
L 161.670466 164.68488 
L 160.650777 161.091566 
L 159.631088 161.86968 
L 158.611399 156.75336 
L 155.552332 170.85384 
L 154.532642 170.97624 
L 153.512953 137.21832 
L 152.493264 162.9774 
L 151.473575 162.89478 
L 150.453886 148.49136 
L 149.434197 170.48664 
L 148.414508 168.83424 
L 147.394819 143.960112 
L 146.37513 170.30304 
L 145.35544 163.28952 
L 144.335751 165.05208 
L 143.316062 163.19772 
L 142.296373 170.89056 
L 141.276684 163.0692 
L 139.237306 166.58973 
L 138.217617 168.8067 
L 137.197927 163.294766 
L 136.178238 163.53432 
L 135.158549 164.64816 
L 133.119171 161.12304 
L 132.099482 161.85132 
L 131.079793 159.52776 
L 129.040415 162.73872 
L 127.001036 170.70696 
L 125.981347 163.0692 
L 124.961658 162.9009 
L 123.941969 162.97536 
L 122.92228 155.233152 
L 121.902591 167.8428 
L 118.843523 58.45392 
L 117.823834 142.645536 
L 116.804145 159.65883 
L 115.784456 163.64448 
L 114.764767 161.6922 
L 112.725389 171.62496 
L 111.705699 156.870864 
L 110.68601 151.88184 
L 109.666321 162.40212 
L 108.646632 127.456046 
L 105.587565 140.04576 
L 104.567876 122.62212 
L 103.548187 110.401704 
L 102.528497 141.895113 
L 101.508808 109.53144 
L 100.489119 105.2964 
L 97.430052 84.75768 
L 96.410363 120.99624 
L 95.390674 136.657029 
L 94.370984 105.34536 
z
" style="fill:#008000;fill-opacity:0.3;"/>
   </g>
   <g id="matplotlib.axis_1">
    <g id="xtick_1">
     <g id="line2d_1">
      <path clip-path="url(#p323f66ed7e)" d="M 64.8 172.8 
L 64.8 25.92 
" style="fill:none;stroke:#808080;stroke-dasharray:6.4,1.6,1,1.6;stroke-dashoffset:0;stroke-opacity:0.3;"/>
     </g>
     <g id="line2d_2">
      <defs>
       <path d="M 0 0 
L 0 3.5 
" id="m7609b72613" style="stroke:#000000;stroke-width:0.8;"/>
      </defs>
      <g>
       <use style="stroke:#000000;stroke-width:0.8;" x="64.8" xlink:href="#m7609b72613" y="172.8"/>
      </g>
     </g>
     <g id="text_1">
      <!-- 2020-03 -->
      <g transform="translate(43.908594 187.398438)scale(0.1 -0.1)">
       <defs>
        <path d="M 19.1875 8.296875 
L 53.609375 8.296875 
L 53.609375 0 
L 7.328125 0 
L 7.328125 8.296875 
Q 12.9375 14.109375 22.625 23.890625 
Q 32.328125 33.6875 34.8125 36.53125 
Q 39.546875 41.84375 41.421875 45.53125 
Q 43.3125 49.21875 43.3125 52.78125 
Q 43.3125 58.59375 39.234375 62.25 
Q 35.15625 65.921875 28.609375 65.921875 
Q 23.96875 65.921875 18.8125 64.3125 
Q 13.671875 62.703125 7.8125 59.421875 
L 7.8125 69.390625 
Q 13.765625 71.78125 18.9375 73 
Q 24.125 74.21875 28.421875 74.21875 
Q 39.75 74.21875 46.484375 68.546875 
Q 53.21875 62.890625 53.21875 53.421875 
Q 53.21875 48.921875 51.53125 44.890625 
Q 49.859375 40.875 45.40625 35.40625 
Q 44.1875 33.984375 37.640625 27.21875 
Q 31.109375 20.453125 19.1875 8.296875 
z
" id="DejaVuSans-50"/>
        <path d="M 31.78125 66.40625 
Q 24.171875 66.40625 20.328125 58.90625 
Q 16.5 51.421875 16.5 36.375 
Q 16.5 21.390625 20.328125 13.890625 
Q 24.171875 6.390625 31.78125 6.390625 
Q 39.453125 6.390625 43.28125 13.890625 
Q 47.125 21.390625 47.125 36.375 
Q 47.125 51.421875 43.28125 58.90625 
Q 39.453125 66.40625 31.78125 66.40625 
z
M 31.78125 74.21875 
Q 44.046875 74.21875 50.515625 64.515625 
Q 56.984375 54.828125 56.984375 36.375 
Q 56.984375 17.96875 50.515625 8.265625 
Q 44.046875 -1.421875 31.78125 -1.421875 
Q 19.53125 -1.421875 13.0625 8.265625 
Q 6.59375 17.96875 6.59375 36.375 
Q 6.59375 54.828125 13.0625 64.515625 
Q 19.53125 74.21875 31.78125 74.21875 
z
" id="DejaVuSans-48"/>
        <path d="M 4.890625 31.390625 
L 31.203125 31.390625 
L 31.203125 23.390625 
L 4.890625 23.390625 
z
" id="DejaVuSans-45"/>
        <path d="M 40.578125 39.3125 
Q 47.65625 37.796875 51.625 33 
Q 55.609375 28.21875 55.609375 21.1875 
Q 55.609375 10.40625 48.1875 4.484375 
Q 40.765625 -1.421875 27.09375 -1.421875 
Q 22.515625 -1.421875 17.65625 -0.515625 
Q 12.796875 0.390625 7.625 2.203125 
L 7.625 11.71875 
Q 11.71875 9.328125 16.59375 8.109375 
Q 21.484375 6.890625 26.8125 6.890625 
Q 36.078125 6.890625 40.9375 10.546875 
Q 45.796875 14.203125 45.796875 21.1875 
Q 45.796875 27.640625 41.28125 31.265625 
Q 36.765625 34.90625 28.71875 34.90625 
L 20.21875 34.90625 
L 20.21875 43.015625 
L 29.109375 43.015625 
Q 36.375 43.015625 40.234375 45.921875 
Q 44.09375 48.828125 44.09375 54.296875 
Q 44.09375 59.90625 40.109375 62.90625 
Q 36.140625 65.921875 28.71875 65.921875 
Q 24.65625 65.921875 20.015625 65.03125 
Q 15.375 64.15625 9.8125 62.3125 
L 9.8125 71.09375 
Q 15.4375 72.65625 20.34375 73.4375 
Q 25.25 74.21875 29.59375 74.21875 
Q 40.828125 74.21875 47.359375 69.109375 
Q 53.90625 64.015625 53.90625 55.328125 
Q 53.90625 49.265625 50.4375 45.09375 
Q 46.96875 40.921875 40.578125 39.3125 
z
" id="DejaVuSans-51"/>
       </defs>
       <use xlink:href="#DejaVuSans-50"/>
       <use x="63.623047" xlink:href="#DejaVuSans-48"/>
       <use x="127.246094" xlink:href="#DejaVuSans-50"/>
       <use x="190.869141" xlink:href="#DejaVuSans-48"/>
       <use x="254.492188" xlink:href="#DejaVuSans-45"/>
       <use x="290.576172" xlink:href="#DejaVuSans-48"/>
       <use x="354.199219" xlink:href="#DejaVuSans-51"/>
      </g>
     </g>
    </g>
    <g id="xtick_2">
     <g id="line2d_3">
      <path clip-path="url(#p323f66ed7e)" d="M 127.001036 172.8 
L 127.001036 25.92 
" style="fill:none;stroke:#808080;stroke-dasharray:6.4,1.6,1,1.6;stroke-dashoffset:0;stroke-opacity:0.3;"/>
     </g>
     <g id="line2d_4">
      <g>
       <use style="stroke:#000000;stroke-width:0.8;" x="127.001036" xlink:href="#m7609b72613" y="172.8"/>
      </g>
     </g>
     <g id="text_2">
      <!-- 2020-05 -->
      <g transform="translate(106.10963 187.398438)scale(0.1 -0.1)">
       <defs>
        <path d="M 10.796875 72.90625 
L 49.515625 72.90625 
L 49.515625 64.59375 
L 19.828125 64.59375 
L 19.828125 46.734375 
Q 21.96875 47.46875 24.109375 47.828125 
Q 26.265625 48.1875 28.421875 48.1875 
Q 40.625 48.1875 47.75 41.5 
Q 54.890625 34.8125 54.890625 23.390625 
Q 54.890625 11.625 47.5625 5.09375 
Q 40.234375 -1.421875 26.90625 -1.421875 
Q 22.3125 -1.421875 17.546875 -0.640625 
Q 12.796875 0.140625 7.71875 1.703125 
L 7.71875 11.625 
Q 12.109375 9.234375 16.796875 8.0625 
Q 21.484375 6.890625 26.703125 6.890625 
Q 35.15625 6.890625 40.078125 11.328125 
Q 45.015625 15.765625 45.015625 23.390625 
Q 45.015625 31 40.078125 35.4375 
Q 35.15625 39.890625 26.703125 39.890625 
Q 22.75 39.890625 18.8125 39.015625 
Q 14.890625 38.140625 10.796875 36.28125 
z
" id="DejaVuSans-53"/>
       </defs>
       <use xlink:href="#DejaVuSans-50"/>
       <use x="63.623047" xlink:href="#DejaVuSans-48"/>
       <use x="127.246094" xlink:href="#DejaVuSans-50"/>
       <use x="190.869141" xlink:href="#DejaVuSans-48"/>
       <use x="254.492188" xlink:href="#DejaVuSans-45"/>
       <use x="290.576172" xlink:href="#DejaVuSans-48"/>
       <use x="354.199219" xlink:href="#DejaVuSans-53"/>
      </g>
     </g>
    </g>
    <g id="xtick_3">
     <g id="line2d_5">
      <path clip-path="url(#p323f66ed7e)" d="M 189.202073 172.8 
L 189.202073 25.92 
" style="fill:none;stroke:#808080;stroke-dasharray:6.4,1.6,1,1.6;stroke-dashoffset:0;stroke-opacity:0.3;"/>
     </g>
     <g id="line2d_6">
      <g>
       <use style="stroke:#000000;stroke-width:0.8;" x="189.202073" xlink:href="#m7609b72613" y="172.8"/>
      </g>
     </g>
     <g id="text_3">
      <!-- 2020-07 -->
      <g transform="translate(168.310666 187.398438)scale(0.1 -0.1)">
       <defs>
        <path d="M 8.203125 72.90625 
L 55.078125 72.90625 
L 55.078125 68.703125 
L 28.609375 0 
L 18.3125 0 
L 43.21875 64.59375 
L 8.203125 64.59375 
z
" id="DejaVuSans-55"/>
       </defs>
       <use xlink:href="#DejaVuSans-50"/>
       <use x="63.623047" xlink:href="#DejaVuSans-48"/>
       <use x="127.246094" xlink:href="#DejaVuSans-50"/>
       <use x="190.869141" xlink:href="#DejaVuSans-48"/>
       <use x="254.492188" xlink:href="#DejaVuSans-45"/>
       <use x="290.576172" xlink:href="#DejaVuSans-48"/>
       <use x="354.199219" xlink:href="#DejaVuSans-55"/>
      </g>
     </g>
    </g>
    <g id="xtick_4">
     <g id="line2d_7">
      <path clip-path="url(#p323f66ed7e)" d="M 252.422798 172.8 
L 252.422798 25.92 
" style="fill:none;stroke:#808080;stroke-dasharray:6.4,1.6,1,1.6;stroke-dashoffset:0;stroke-opacity:0.3;"/>
     </g>
     <g id="line2d_8">
      <g>
       <use style="stroke:#000000;stroke-width:0.8;" x="252.422798" xlink:href="#m7609b72613" y="172.8"/>
      </g>
     </g>
     <g id="text_4">
      <!-- 2020-09 -->
      <g transform="translate(231.531392 187.398438)scale(0.1 -0.1)">
       <defs>
        <path d="M 10.984375 1.515625 
L 10.984375 10.5 
Q 14.703125 8.734375 18.5 7.8125 
Q 22.3125 6.890625 25.984375 6.890625 
Q 35.75 6.890625 40.890625 13.453125 
Q 46.046875 20.015625 46.78125 33.40625 
Q 43.953125 29.203125 39.59375 26.953125 
Q 35.25 24.703125 29.984375 24.703125 
Q 19.046875 24.703125 12.671875 31.3125 
Q 6.296875 37.9375 6.296875 49.421875 
Q 6.296875 60.640625 12.9375 67.421875 
Q 19.578125 74.21875 30.609375 74.21875 
Q 43.265625 74.21875 49.921875 64.515625 
Q 56.59375 54.828125 56.59375 36.375 
Q 56.59375 19.140625 48.40625 8.859375 
Q 40.234375 -1.421875 26.421875 -1.421875 
Q 22.703125 -1.421875 18.890625 -0.6875 
Q 15.09375 0.046875 10.984375 1.515625 
z
M 30.609375 32.421875 
Q 37.25 32.421875 41.125 36.953125 
Q 45.015625 41.5 45.015625 49.421875 
Q 45.015625 57.28125 41.125 61.84375 
Q 37.25 66.40625 30.609375 66.40625 
Q 23.96875 66.40625 20.09375 61.84375 
Q 16.21875 57.28125 16.21875 49.421875 
Q 16.21875 41.5 20.09375 36.953125 
Q 23.96875 32.421875 30.609375 32.421875 
z
" id="DejaVuSans-57"/>
       </defs>
       <use xlink:href="#DejaVuSans-50"/>
       <use x="63.623047" xlink:href="#DejaVuSans-48"/>
       <use x="127.246094" xlink:href="#DejaVuSans-50"/>
       <use x="190.869141" xlink:href="#DejaVuSans-48"/>
       <use x="254.492188" xlink:href="#DejaVuSans-45"/>
       <use x="290.576172" xlink:href="#DejaVuSans-48"/>
       <use x="354.199219" xlink:href="#DejaVuSans-57"/>
      </g>
     </g>
    </g>
    <g id="xtick_5">
     <g id="line2d_9">
      <path clip-path="url(#p323f66ed7e)" d="M 314.623834 172.8 
L 314.623834 25.92 
" style="fill:none;stroke:#808080;stroke-dasharray:6.4,1.6,1,1.6;stroke-dashoffset:0;stroke-opacity:0.3;"/>
     </g>
     <g id="line2d_10">
      <g>
       <use style="stroke:#000000;stroke-width:0.8;" x="314.623834" xlink:href="#m7609b72613" y="172.8"/>
      </g>
     </g>
     <g id="text_5">
      <!-- 2020-11 -->
      <g transform="translate(293.732428 187.398438)scale(0.1 -0.1)">
       <defs>
        <path d="M 12.40625 8.296875 
L 28.515625 8.296875 
L 28.515625 63.921875 
L 10.984375 60.40625 
L 10.984375 69.390625 
L 28.421875 72.90625 
L 38.28125 72.90625 
L 38.28125 8.296875 
L 54.390625 8.296875 
L 54.390625 0 
L 12.40625 0 
z
" id="DejaVuSans-49"/>
       </defs>
       <use xlink:href="#DejaVuSans-50"/>
       <use x="63.623047" xlink:href="#DejaVuSans-48"/>
       <use x="127.246094" xlink:href="#DejaVuSans-50"/>
       <use x="190.869141" xlink:href="#DejaVuSans-48"/>
       <use x="254.492188" xlink:href="#DejaVuSans-45"/>
       <use x="290.576172" xlink:href="#DejaVuSans-49"/>
       <use x="354.199219" xlink:href="#DejaVuSans-49"/>
      </g>
     </g>
    </g>
    <g id="xtick_6">
     <g id="line2d_11">
      <path clip-path="url(#p323f66ed7e)" d="M 376.82487 172.8 
L 376.82487 25.92 
" style="fill:none;stroke:#808080;stroke-dasharray:6.4,1.6,1,1.6;stroke-dashoffset:0;stroke-opacity:0.3;"/>
     </g>
     <g id="line2d_12">
      <g>
       <use style="stroke:#000000;stroke-width:0.8;" x="376.82487" xlink:href="#m7609b72613" y="172.8"/>
      </g>
     </g>
     <g id="text_6">
      <!-- 2021-01 -->
      <g transform="translate(355.933464 187.398438)scale(0.1 -0.1)">
       <use xlink:href="#DejaVuSans-50"/>
       <use x="63.623047" xlink:href="#DejaVuSans-48"/>
       <use x="127.246094" xlink:href="#DejaVuSans-50"/>
       <use x="190.869141" xlink:href="#DejaVuSans-49"/>
       <use x="254.492188" xlink:href="#DejaVuSans-45"/>
       <use x="290.576172" xlink:href="#DejaVuSans-48"/>
       <use x="354.199219" xlink:href="#DejaVuSans-49"/>
      </g>
     </g>
    </g>
    <g id="xtick_7">
     <g id="line2d_13">
      <path clip-path="url(#p323f66ed7e)" d="M 436.986528 172.8 
L 436.986528 25.92 
" style="fill:none;stroke:#808080;stroke-dasharray:6.4,1.6,1,1.6;stroke-dashoffset:0;stroke-opacity:0.3;"/>
     </g>
     <g id="line2d_14">
      <g>
       <use style="stroke:#000000;stroke-width:0.8;" x="436.986528" xlink:href="#m7609b72613" y="172.8"/>
      </g>
     </g>
     <g id="text_7">
      <!-- 2021-03 -->
      <g transform="translate(416.095122 187.398438)scale(0.1 -0.1)">
       <use xlink:href="#DejaVuSans-50"/>
       <use x="63.623047" xlink:href="#DejaVuSans-48"/>
       <use x="127.246094" xlink:href="#DejaVuSans-50"/>
       <use x="190.869141" xlink:href="#DejaVuSans-49"/>
       <use x="254.492188" xlink:href="#DejaVuSans-45"/>
       <use x="290.576172" xlink:href="#DejaVuSans-48"/>
       <use x="354.199219" xlink:href="#DejaVuSans-51"/>
      </g>
     </g>
    </g>
    <g id="xtick_8">
     <g id="line2d_15">
      <path clip-path="url(#p323f66ed7e)" d="M 499.187565 172.8 
L 499.187565 25.92 
" style="fill:none;stroke:#808080;stroke-dasharray:6.4,1.6,1,1.6;stroke-dashoffset:0;stroke-opacity:0.3;"/>
     </g>
     <g id="line2d_16">
      <g>
       <use style="stroke:#000000;stroke-width:0.8;" x="499.187565" xlink:href="#m7609b72613" y="172.8"/>
      </g>
     </g>
     <g id="text_8">
      <!-- 2021-05 -->
      <g transform="translate(478.296159 187.398438)scale(0.1 -0.1)">
       <use xlink:href="#DejaVuSans-50"/>
       <use x="63.623047" xlink:href="#DejaVuSans-48"/>
       <use x="127.246094" xlink:href="#DejaVuSans-50"/>
       <use x="190.869141" xlink:href="#DejaVuSans-49"/>
       <use x="254.492188" xlink:href="#DejaVuSans-45"/>
       <use x="290.576172" xlink:href="#DejaVuSans-48"/>
       <use x="354.199219" xlink:href="#DejaVuSans-53"/>
      </g>
     </g>
    </g>
    <g id="xtick_9">
     <g id="line2d_17">
      <path clip-path="url(#p323f66ed7e)" d="M 561.388601 172.8 
L 561.388601 25.92 
" style="fill:none;stroke:#808080;stroke-dasharray:6.4,1.6,1,1.6;stroke-dashoffset:0;stroke-opacity:0.3;"/>
     </g>
     <g id="line2d_18">
      <g>
       <use style="stroke:#000000;stroke-width:0.8;" x="561.388601" xlink:href="#m7609b72613" y="172.8"/>
      </g>
     </g>
     <g id="text_9">
      <!-- 2021-07 -->
      <g transform="translate(540.497195 187.398438)scale(0.1 -0.1)">
       <use xlink:href="#DejaVuSans-50"/>
       <use x="63.623047" xlink:href="#DejaVuSans-48"/>
       <use x="127.246094" xlink:href="#DejaVuSans-50"/>
       <use x="190.869141" xlink:href="#DejaVuSans-49"/>
       <use x="254.492188" xlink:href="#DejaVuSans-45"/>
       <use x="290.576172" xlink:href="#DejaVuSans-48"/>
       <use x="354.199219" xlink:href="#DejaVuSans-55"/>
      </g>
     </g>
    </g>
    <g id="xtick_10">
     <g id="line2d_19">
      <path clip-path="url(#p323f66ed7e)" d="M 624.609326 172.8 
L 624.609326 25.92 
" style="fill:none;stroke:#808080;stroke-dasharray:6.4,1.6,1,1.6;stroke-dashoffset:0;stroke-opacity:0.3;"/>
     </g>
     <g id="line2d_20">
      <g>
       <use style="stroke:#000000;stroke-width:0.8;" x="624.609326" xlink:href="#m7609b72613" y="172.8"/>
      </g>
     </g>
     <g id="text_10">
      <!-- 2021-09 -->
      <g transform="translate(603.71792 187.398438)scale(0.1 -0.1)">
       <use xlink:href="#DejaVuSans-50"/>
       <use x="63.623047" xlink:href="#DejaVuSans-48"/>
       <use x="127.246094" xlink:href="#DejaVuSans-50"/>
       <use x="190.869141" xlink:href="#DejaVuSans-49"/>
       <use x="254.492188" xlink:href="#DejaVuSans-45"/>
       <use x="290.576172" xlink:href="#DejaVuSans-48"/>
       <use x="354.199219" xlink:href="#DejaVuSans-57"/>
      </g>
     </g>
    </g>
    <g id="text_11">
     <!-- Datum -->
     <g transform="translate(343.086719 201.076562)scale(0.1 -0.1)">
      <defs>
       <path d="M 19.671875 64.796875 
L 19.671875 8.109375 
L 31.59375 8.109375 
Q 46.6875 8.109375 53.6875 14.9375 
Q 60.6875 21.78125 60.6875 36.53125 
Q 60.6875 51.171875 53.6875 57.984375 
Q 46.6875 64.796875 31.59375 64.796875 
z
M 9.8125 72.90625 
L 30.078125 72.90625 
Q 51.265625 72.90625 61.171875 64.09375 
Q 71.09375 55.28125 71.09375 36.53125 
Q 71.09375 17.671875 61.125 8.828125 
Q 51.171875 0 30.078125 0 
L 9.8125 0 
z
" id="DejaVuSans-68"/>
       <path d="M 34.28125 27.484375 
Q 23.390625 27.484375 19.1875 25 
Q 14.984375 22.515625 14.984375 16.5 
Q 14.984375 11.71875 18.140625 8.90625 
Q 21.296875 6.109375 26.703125 6.109375 
Q 34.1875 6.109375 38.703125 11.40625 
Q 43.21875 16.703125 43.21875 25.484375 
L 43.21875 27.484375 
z
M 52.203125 31.203125 
L 52.203125 0 
L 43.21875 0 
L 43.21875 8.296875 
Q 40.140625 3.328125 35.546875 0.953125 
Q 30.953125 -1.421875 24.3125 -1.421875 
Q 15.921875 -1.421875 10.953125 3.296875 
Q 6 8.015625 6 15.921875 
Q 6 25.140625 12.171875 29.828125 
Q 18.359375 34.515625 30.609375 34.515625 
L 43.21875 34.515625 
L 43.21875 35.40625 
Q 43.21875 41.609375 39.140625 45 
Q 35.0625 48.390625 27.6875 48.390625 
Q 23 48.390625 18.546875 47.265625 
Q 14.109375 46.140625 10.015625 43.890625 
L 10.015625 52.203125 
Q 14.9375 54.109375 19.578125 55.046875 
Q 24.21875 56 28.609375 56 
Q 40.484375 56 46.34375 49.84375 
Q 52.203125 43.703125 52.203125 31.203125 
z
" id="DejaVuSans-97"/>
       <path d="M 18.3125 70.21875 
L 18.3125 54.6875 
L 36.8125 54.6875 
L 36.8125 47.703125 
L 18.3125 47.703125 
L 18.3125 18.015625 
Q 18.3125 11.328125 20.140625 9.421875 
Q 21.96875 7.515625 27.59375 7.515625 
L 36.8125 7.515625 
L 36.8125 0 
L 27.59375 0 
Q 17.1875 0 13.234375 3.875 
Q 9.28125 7.765625 9.28125 18.015625 
L 9.28125 47.703125 
L 2.6875 47.703125 
L 2.6875 54.6875 
L 9.28125 54.6875 
L 9.28125 70.21875 
z
" id="DejaVuSans-116"/>
       <path d="M 8.5 21.578125 
L 8.5 54.6875 
L 17.484375 54.6875 
L 17.484375 21.921875 
Q 17.484375 14.15625 20.5 10.265625 
Q 23.53125 6.390625 29.59375 6.390625 
Q 36.859375 6.390625 41.078125 11.03125 
Q 45.3125 15.671875 45.3125 23.6875 
L 45.3125 54.6875 
L 54.296875 54.6875 
L 54.296875 0 
L 45.3125 0 
L 45.3125 8.40625 
Q 42.046875 3.421875 37.71875 1 
Q 33.40625 -1.421875 27.6875 -1.421875 
Q 18.265625 -1.421875 13.375 4.4375 
Q 8.5 10.296875 8.5 21.578125 
z
M 31.109375 56 
z
" id="DejaVuSans-117"/>
       <path d="M 52 44.1875 
Q 55.375 50.25 60.0625 53.125 
Q 64.75 56 71.09375 56 
Q 79.640625 56 84.28125 50.015625 
Q 88.921875 44.046875 88.921875 33.015625 
L 88.921875 0 
L 79.890625 0 
L 79.890625 32.71875 
Q 79.890625 40.578125 77.09375 44.375 
Q 74.3125 48.1875 68.609375 48.1875 
Q 61.625 48.1875 57.5625 43.546875 
Q 53.515625 38.921875 53.515625 30.90625 
L 53.515625 0 
L 44.484375 0 
L 44.484375 32.71875 
Q 44.484375 40.625 41.703125 44.40625 
Q 38.921875 48.1875 33.109375 48.1875 
Q 26.21875 48.1875 22.15625 43.53125 
Q 18.109375 38.875 18.109375 30.90625 
L 18.109375 0 
L 9.078125 0 
L 9.078125 54.6875 
L 18.109375 54.6875 
L 18.109375 46.1875 
Q 21.1875 51.21875 25.484375 53.609375 
Q 29.78125 56 35.6875 56 
Q 41.65625 56 45.828125 52.96875 
Q 50 49.953125 52 44.1875 
z
" id="DejaVuSans-109"/>
      </defs>
      <use xlink:href="#DejaVuSans-68"/>
      <use x="77.001953" xlink:href="#DejaVuSans-97"/>
      <use x="138.28125" xlink:href="#DejaVuSans-116"/>
      <use x="177.490234" xlink:href="#DejaVuSans-117"/>
      <use x="240.869141" xlink:href="#DejaVuSans-109"/>
     </g>
    </g>
   </g>
   <g id="matplotlib.axis_2">
    <g id="ytick_1">
     <g id="line2d_21">
      <path clip-path="url(#p323f66ed7e)" d="M 64.8 172.8 
L 655.2 172.8 
" style="fill:none;stroke:#808080;stroke-dasharray:6.4,1.6,1,1.6;stroke-dashoffset:0;stroke-opacity:0.3;"/>
     </g>
     <g id="line2d_22">
      <defs>
       <path d="M 0 0 
L -3.5 0 
" id="m6c94ca0add" style="stroke:#000000;stroke-width:0.8;"/>
      </defs>
      <g>
       <use style="stroke:#000000;stroke-width:0.8;" x="64.8" xlink:href="#m6c94ca0add" y="172.8"/>
      </g>
     </g>
     <g id="text_12">
      <!-- 0 -->
      <g transform="translate(51.4375 176.599219)scale(0.1 -0.1)">
       <use xlink:href="#DejaVuSans-48"/>
      </g>
     </g>
    </g>
    <g id="ytick_2">
     <g id="line2d_23">
      <path clip-path="url(#p323f66ed7e)" d="M 64.8 136.08 
L 655.2 136.08 
" style="fill:none;stroke:#808080;stroke-dasharray:6.4,1.6,1,1.6;stroke-dashoffset:0;stroke-opacity:0.3;"/>
     </g>
     <g id="line2d_24">
      <g>
       <use style="stroke:#000000;stroke-width:0.8;" x="64.8" xlink:href="#m6c94ca0add" y="136.08"/>
      </g>
     </g>
     <g id="text_13">
      <!-- 1000 -->
      <g transform="translate(32.35 139.879219)scale(0.1 -0.1)">
       <use xlink:href="#DejaVuSans-49"/>
       <use x="63.623047" xlink:href="#DejaVuSans-48"/>
       <use x="127.246094" xlink:href="#DejaVuSans-48"/>
       <use x="190.869141" xlink:href="#DejaVuSans-48"/>
      </g>
     </g>
    </g>
    <g id="ytick_3">
     <g id="line2d_25">
      <path clip-path="url(#p323f66ed7e)" d="M 64.8 99.36 
L 655.2 99.36 
" style="fill:none;stroke:#808080;stroke-dasharray:6.4,1.6,1,1.6;stroke-dashoffset:0;stroke-opacity:0.3;"/>
     </g>
     <g id="line2d_26">
      <g>
       <use style="stroke:#000000;stroke-width:0.8;" x="64.8" xlink:href="#m6c94ca0add" y="99.36"/>
      </g>
     </g>
     <g id="text_14">
      <!-- 2000 -->
      <g transform="translate(32.35 103.159219)scale(0.1 -0.1)">
       <use xlink:href="#DejaVuSans-50"/>
       <use x="63.623047" xlink:href="#DejaVuSans-48"/>
       <use x="127.246094" xlink:href="#DejaVuSans-48"/>
       <use x="190.869141" xlink:href="#DejaVuSans-48"/>
      </g>
     </g>
    </g>
    <g id="ytick_4">
     <g id="line2d_27">
      <path clip-path="url(#p323f66ed7e)" d="M 64.8 62.64 
L 655.2 62.64 
" style="fill:none;stroke:#808080;stroke-dasharray:6.4,1.6,1,1.6;stroke-dashoffset:0;stroke-opacity:0.3;"/>
     </g>
     <g id="line2d_28">
      <g>
       <use style="stroke:#000000;stroke-width:0.8;" x="64.8" xlink:href="#m6c94ca0add" y="62.64"/>
      </g>
     </g>
     <g id="text_15">
      <!-- 3000 -->
      <g transform="translate(32.35 66.439219)scale(0.1 -0.1)">
       <use xlink:href="#DejaVuSans-51"/>
       <use x="63.623047" xlink:href="#DejaVuSans-48"/>
       <use x="127.246094" xlink:href="#DejaVuSans-48"/>
       <use x="190.869141" xlink:href="#DejaVuSans-48"/>
      </g>
     </g>
    </g>
    <g id="ytick_5">
     <g id="line2d_29">
      <path clip-path="url(#p323f66ed7e)" d="M 64.8 25.92 
L 655.2 25.92 
" style="fill:none;stroke:#808080;stroke-dasharray:6.4,1.6,1,1.6;stroke-dashoffset:0;stroke-opacity:0.3;"/>
     </g>
     <g id="line2d_30">
      <g>
       <use style="stroke:#000000;stroke-width:0.8;" x="64.8" xlink:href="#m6c94ca0add" y="25.92"/>
      </g>
     </g>
     <g id="text_16">
      <!-- 4000 -->
      <g transform="translate(32.35 29.719219)scale(0.1 -0.1)">
       <defs>
        <path d="M 37.796875 64.3125 
L 12.890625 25.390625 
L 37.796875 25.390625 
z
M 35.203125 72.90625 
L 47.609375 72.90625 
L 47.609375 25.390625 
L 58.015625 25.390625 
L 58.015625 17.1875 
L 47.609375 17.1875 
L 47.609375 0 
L 37.796875 0 
L 37.796875 17.1875 
L 4.890625 17.1875 
L 4.890625 26.703125 
z
" id="DejaVuSans-52"/>
       </defs>
       <use xlink:href="#DejaVuSans-52"/>
       <use x="63.623047" xlink:href="#DejaVuSans-48"/>
       <use x="127.246094" xlink:href="#DejaVuSans-48"/>
       <use x="190.869141" xlink:href="#DejaVuSans-48"/>
      </g>
     </g>
    </g>
    <g id="text_17">
     <!-- RNA per milliliter -->
     <g transform="translate(26.270312 141.776406)rotate(-90)scale(0.1 -0.1)">
      <defs>
       <path d="M 44.390625 34.1875 
Q 47.5625 33.109375 50.5625 29.59375 
Q 53.5625 26.078125 56.59375 19.921875 
L 66.609375 0 
L 56 0 
L 46.6875 18.703125 
Q 43.0625 26.03125 39.671875 28.421875 
Q 36.28125 30.8125 30.421875 30.8125 
L 19.671875 30.8125 
L 19.671875 0 
L 9.8125 0 
L 9.8125 72.90625 
L 32.078125 72.90625 
Q 44.578125 72.90625 50.734375 67.671875 
Q 56.890625 62.453125 56.890625 51.90625 
Q 56.890625 45.015625 53.6875 40.46875 
Q 50.484375 35.9375 44.390625 34.1875 
z
M 19.671875 64.796875 
L 19.671875 38.921875 
L 32.078125 38.921875 
Q 39.203125 38.921875 42.84375 42.21875 
Q 46.484375 45.515625 46.484375 51.90625 
Q 46.484375 58.296875 42.84375 61.546875 
Q 39.203125 64.796875 32.078125 64.796875 
z
" id="DejaVuSans-82"/>
       <path d="M 9.8125 72.90625 
L 23.09375 72.90625 
L 55.421875 11.921875 
L 55.421875 72.90625 
L 64.984375 72.90625 
L 64.984375 0 
L 51.703125 0 
L 19.390625 60.984375 
L 19.390625 0 
L 9.8125 0 
z
" id="DejaVuSans-78"/>
       <path d="M 34.1875 63.1875 
L 20.796875 26.90625 
L 47.609375 26.90625 
z
M 28.609375 72.90625 
L 39.796875 72.90625 
L 67.578125 0 
L 57.328125 0 
L 50.6875 18.703125 
L 17.828125 18.703125 
L 11.1875 0 
L 0.78125 0 
z
" id="DejaVuSans-65"/>
       <path id="DejaVuSans-32"/>
       <path d="M 18.109375 8.203125 
L 18.109375 -20.796875 
L 9.078125 -20.796875 
L 9.078125 54.6875 
L 18.109375 54.6875 
L 18.109375 46.390625 
Q 20.953125 51.265625 25.265625 53.625 
Q 29.59375 56 35.59375 56 
Q 45.5625 56 51.78125 48.09375 
Q 58.015625 40.1875 58.015625 27.296875 
Q 58.015625 14.40625 51.78125 6.484375 
Q 45.5625 -1.421875 35.59375 -1.421875 
Q 29.59375 -1.421875 25.265625 0.953125 
Q 20.953125 3.328125 18.109375 8.203125 
z
M 48.6875 27.296875 
Q 48.6875 37.203125 44.609375 42.84375 
Q 40.53125 48.484375 33.40625 48.484375 
Q 26.265625 48.484375 22.1875 42.84375 
Q 18.109375 37.203125 18.109375 27.296875 
Q 18.109375 17.390625 22.1875 11.75 
Q 26.265625 6.109375 33.40625 6.109375 
Q 40.53125 6.109375 44.609375 11.75 
Q 48.6875 17.390625 48.6875 27.296875 
z
" id="DejaVuSans-112"/>
       <path d="M 56.203125 29.59375 
L 56.203125 25.203125 
L 14.890625 25.203125 
Q 15.484375 15.921875 20.484375 11.0625 
Q 25.484375 6.203125 34.421875 6.203125 
Q 39.59375 6.203125 44.453125 7.46875 
Q 49.3125 8.734375 54.109375 11.28125 
L 54.109375 2.78125 
Q 49.265625 0.734375 44.1875 -0.34375 
Q 39.109375 -1.421875 33.890625 -1.421875 
Q 20.796875 -1.421875 13.15625 6.1875 
Q 5.515625 13.8125 5.515625 26.8125 
Q 5.515625 40.234375 12.765625 48.109375 
Q 20.015625 56 32.328125 56 
Q 43.359375 56 49.78125 48.890625 
Q 56.203125 41.796875 56.203125 29.59375 
z
M 47.21875 32.234375 
Q 47.125 39.59375 43.09375 43.984375 
Q 39.0625 48.390625 32.421875 48.390625 
Q 24.90625 48.390625 20.390625 44.140625 
Q 15.875 39.890625 15.1875 32.171875 
z
" id="DejaVuSans-101"/>
       <path d="M 41.109375 46.296875 
Q 39.59375 47.171875 37.8125 47.578125 
Q 36.03125 48 33.890625 48 
Q 26.265625 48 22.1875 43.046875 
Q 18.109375 38.09375 18.109375 28.8125 
L 18.109375 0 
L 9.078125 0 
L 9.078125 54.6875 
L 18.109375 54.6875 
L 18.109375 46.1875 
Q 20.953125 51.171875 25.484375 53.578125 
Q 30.03125 56 36.53125 56 
Q 37.453125 56 38.578125 55.875 
Q 39.703125 55.765625 41.0625 55.515625 
z
" id="DejaVuSans-114"/>
       <path d="M 9.421875 54.6875 
L 18.40625 54.6875 
L 18.40625 0 
L 9.421875 0 
z
M 9.421875 75.984375 
L 18.40625 75.984375 
L 18.40625 64.59375 
L 9.421875 64.59375 
z
" id="DejaVuSans-105"/>
       <path d="M 9.421875 75.984375 
L 18.40625 75.984375 
L 18.40625 0 
L 9.421875 0 
z
" id="DejaVuSans-108"/>
      </defs>
      <use xlink:href="#DejaVuSans-82"/>
      <use x="69.482422" xlink:href="#DejaVuSans-78"/>
      <use x="144.287109" xlink:href="#DejaVuSans-65"/>
      <use x="212.695312" xlink:href="#DejaVuSans-32"/>
      <use x="244.482422" xlink:href="#DejaVuSans-112"/>
      <use x="307.958984" xlink:href="#DejaVuSans-101"/>
      <use x="369.482422" xlink:href="#DejaVuSans-114"/>
      <use x="410.595703" xlink:href="#DejaVuSans-32"/>
      <use x="442.382812" xlink:href="#DejaVuSans-109"/>
      <use x="539.794922" xlink:href="#DejaVuSans-105"/>
      <use x="567.578125" xlink:href="#DejaVuSans-108"/>
      <use x="595.361328" xlink:href="#DejaVuSans-108"/>
      <use x="623.144531" xlink:href="#DejaVuSans-105"/>
      <use x="650.927734" xlink:href="#DejaVuSans-108"/>
      <use x="678.710938" xlink:href="#DejaVuSans-105"/>
      <use x="706.494141" xlink:href="#DejaVuSans-116"/>
      <use x="745.703125" xlink:href="#DejaVuSans-101"/>
      <use x="807.226562" xlink:href="#DejaVuSans-114"/>
     </g>
    </g>
   </g>
   <g id="line2d_31">
    <path clip-path="url(#p323f66ed7e)" d="M 94.370984 103.123793 
L 97.430052 114.056798 
L 100.489119 117.701133 
L 102.528497 124.989803 
L 105.587565 133.619191 
L 108.646632 136.336357 
L 110.68601 141.38873 
L 111.705699 143.625595 
L 112.725389 145.592298 
L 114.764767 147.280508 
L 115.784456 148.728855 
L 116.804145 149.695497 
L 118.843523 150.972144 
L 121.902591 152.688393 
L 123.941969 155.326756 
L 125.981347 157.40665 
L 127.001036 158.362182 
L 131.079793 159.95208 
L 133.119171 161.67439 
L 135.158549 162.54269 
L 136.178238 163.416014 
L 137.197927 164.076724 
L 139.237306 164.112495 
L 142.296373 163.672313 
L 146.37513 162.590757 
L 147.394819 162.208759 
L 151.473575 161.731891 
L 153.512953 161.841881 
L 155.552332 162.515158 
L 158.611399 162.782847 
L 160.650777 163.591017 
L 164.729534 165.422402 
L 166.768912 166.039142 
L 168.80829 166.560692 
L 171.867358 166.707204 
L 174.926425 167.458651 
L 186.143005 167.783819 
L 188.182383 167.595588 
L 190.221762 167.302772 
L 194.300518 166.967543 
L 196.339896 166.110864 
L 201.438342 165.539053 
L 202.458031 164.93145 
L 206.536788 163.627907 
L 208.576166 162.397487 
L 210.615544 160.838887 
L 211.635233 160.093589 
L 213.674611 159.253091 
L 215.71399 158.610109 
L 218.773057 158.266573 
L 220.812435 157.89225 
L 221.832124 157.671211 
L 222.851813 157.900352 
L 225.910881 159.020399 
L 226.93057 159.189255 
L 232.029016 159.41877 
L 233.048705 159.394687 
L 234.068394 159.56246 
L 236.107772 160.341951 
L 237.127461 160.499492 
L 240.186528 160.644602 
L 242.225907 161.115556 
L 243.245596 161.463992 
L 245.284974 162.372769 
L 247.324352 163.067941 
L 253.442487 163.540786 
L 255.481865 163.315717 
L 256.501554 163.091281 
L 257.521244 162.729678 
L 262.619689 161.589765 
L 264.659067 160.975817 
L 266.698446 160.000396 
L 268.737824 158.539725 
L 269.757513 157.742313 
L 270.777202 156.790997 
L 272.81658 154.390621 
L 274.855959 151.407616 
L 276.895337 147.584594 
L 278.934715 142.863814 
L 280.974093 137.3214 
L 284.033161 128.930041 
L 289.131606 116.235517 
L 290.151295 114.218227 
L 291.170984 111.754946 
L 292.190674 109.709136 
L 293.210363 108.364678 
L 294.230052 107.766846 
L 296.26943 105.7254 
L 297.289119 104.240574 
L 298.308808 102.001103 
L 300.348187 98.259519 
L 301.367876 96.434949 
L 303.407254 92.36792 
L 304.426943 92.154845 
L 305.446632 91.757504 
L 306.466321 91.07599 
L 307.48601 90.038659 
L 308.505699 89.628167 
L 309.525389 88.93973 
L 310.545078 89.150208 
L 312.584456 92.648757 
L 315.643523 98.130139 
L 316.663212 99.32198 
L 319.72228 100.085848 
L 321.761658 101.486179 
L 322.781347 103.191538 
L 323.801036 104.607596 
L 324.820725 105.478019 
L 325.840415 106.092752 
L 326.860104 106.961025 
L 327.879793 108.656518 
L 328.899482 111.073127 
L 332.978238 125.151263 
L 335.017617 130.907865 
L 339.096373 139.348667 
L 340.116062 141.202573 
L 341.135751 142.234815 
L 342.15544 142.741471 
L 343.17513 142.529119 
L 344.194819 142.124873 
L 346.234197 141.650279 
L 348.273575 140.546113 
L 349.293264 139.817129 
L 352.352332 136.677453 
L 354.39171 133.5692 
L 356.431088 129.944429 
L 358.470466 126.544752 
L 359.490155 125.099424 
L 361.529534 123.203099 
L 362.549223 122.545147 
L 365.60829 121.58388 
L 366.627979 122.129885 
L 367.647668 122.937726 
L 368.667358 124.449255 
L 369.687047 125.455723 
L 372.746114 129.252199 
L 373.765803 130.094687 
L 374.785492 130.777971 
L 377.84456 131.363557 
L 378.864249 131.414226 
L 379.883938 131.276224 
L 380.903627 130.615556 
L 381.923316 129.751945 
L 382.943005 128.130194 
L 383.962694 127.026507 
L 386.002073 124.125035 
L 387.021762 122.351236 
L 388.041451 120.971957 
L 389.06114 119.827449 
L 392.120207 117.024088 
L 393.139896 115.665351 
L 395.179275 113.871822 
L 396.198964 113.864074 
L 397.218653 113.654275 
L 398.238342 113.647877 
L 399.258031 113.868323 
L 400.27772 114.296083 
L 401.297409 114.555787 
L 403.336788 115.447045 
L 404.356477 115.95781 
L 405.376166 116.700299 
L 407.415544 120.618342 
L 408.435233 122.422872 
L 411.494301 126.388192 
L 412.51399 127.549751 
L 414.553368 129.284344 
L 415.573057 129.743402 
L 416.592746 129.82037 
L 417.612435 130.109501 
L 418.632124 130.132344 
L 420.671503 129.084962 
L 422.710881 128.070454 
L 423.73057 127.895812 
L 425.769948 127.916365 
L 427.809326 128.79148 
L 428.829016 129.610055 
L 432.907772 134.852387 
L 436.986528 139.094003 
L 439.025907 140.507654 
L 441.065285 141.314542 
L 442.084974 141.573646 
L 444.124352 141.747455 
L 448.203109 141.093493 
L 451.262176 140.200228 
L 452.281865 139.769302 
L 453.301554 139.486789 
L 456.360622 138.03839 
L 457.380311 137.321435 
L 459.419689 137.031614 
L 461.459067 136.858995 
L 462.478756 136.598999 
L 464.518135 136.560637 
L 469.61658 135.999656 
L 470.636269 136.075088 
L 471.655959 135.873487 
L 474.715026 134.628013 
L 475.734715 134.516711 
L 476.754404 134.240454 
L 477.774093 134.080362 
L 479.813472 134.544143 
L 482.872539 134.92287 
L 483.892228 134.883013 
L 484.911917 134.670272 
L 485.931606 134.918132 
L 487.970984 135.802763 
L 488.990674 136.144668 
L 490.010363 136.29903 
L 491.030052 136.264435 
L 493.06943 135.797595 
L 496.128497 134.70343 
L 497.148187 134.471907 
L 498.167876 134.533613 
L 499.187565 134.230353 
L 501.226943 133.146824 
L 502.246632 132.682681 
L 503.266321 132.583053 
L 505.305699 132.8207 
L 506.325389 133.27248 
L 507.345078 134.244691 
L 512.443523 140.959405 
L 514.482902 144.230194 
L 516.52228 147.132357 
L 519.581347 150.889804 
L 522.640415 152.057541 
L 526.719171 154.283489 
L 528.758549 155.034064 
L 533.856995 157.798666 
L 535.896373 158.496631 
L 537.935751 159.812774 
L 539.97513 160.782599 
L 542.014508 161.234785 
L 544.053886 162.20225 
L 546.093264 162.710261 
L 547.112953 162.831451 
L 550.172021 162.884098 
L 551.19171 162.817496 
L 553.231088 162.240844 
L 555.270466 161.434135 
L 556.290155 160.776996 
L 558.329534 158.857086 
L 559.349223 157.5645 
L 560.368912 156.05469 
L 561.388601 154.307352 
L 562.40829 152.092798 
L 565.467358 143.658906 
L 567.506736 137.595678 
L 570.565803 128.170795 
L 572.605181 122.553309 
L 573.62487 120.18315 
L 574.64456 118.226644 
L 575.664249 117.114344 
L 577.703627 116.980367 
L 579.743005 116.615511 
L 580.762694 116.761004 
L 581.782383 117.07823 
L 582.802073 117.59099 
L 583.821762 118.242478 
L 585.86114 119.94387 
L 586.880829 120.806093 
L 587.900518 121.491119 
L 588.920207 121.897387 
L 589.939896 121.739616 
L 590.959585 121.112294 
L 594.018653 120.205609 
L 596.058031 119.150317 
L 598.097409 117.702189 
L 600.136788 116.56111 
L 601.156477 116.119684 
L 602.176166 115.506199 
L 604.215544 114.480969 
L 605.235233 113.696294 
L 608.294301 110.765187 
L 609.31399 110.028446 
L 612.373057 109.375444 
L 613.392746 109.428586 
L 614.412435 109.780111 
L 615.432124 110.932811 
L 616.451813 112.384778 
L 617.471503 114.257325 
L 618.491192 116.53691 
L 619.510881 119.396756 
L 621.550259 126.269071 
L 623.589637 133.311741 
L 626.648705 142.884899 
L 627.668394 145.688539 
L 629.707772 150.160283 
L 630.727461 151.998729 
L 631.74715 153.527173 
L 632.766839 154.735237 
L 634.806218 156.26546 
L 639.904663 158.567138 
L 645.003109 160.387437 
L 645.003109 160.387437 
" style="fill:none;stroke:#008000;stroke-linecap:square;stroke-width:1.5;"/>
   </g>
   <g id="line2d_32">
    <path clip-path="url(#p323f66ed7e)" d="M 649.081865 172.8 
L 649.081865 25.92 
" style="fill:none;stroke:#ff0000;stroke-linecap:square;stroke-width:0.5;"/>
   </g>
   <g id="patch_3">
    <path d="M 64.8 172.8 
L 64.8 25.92 
" style="fill:none;stroke:#000000;stroke-linecap:square;stroke-linejoin:miter;stroke-width:0.8;"/>
   </g>
   <g id="patch_4">
    <path d="M 655.2 172.8 
L 655.2 25.92 
" style="fill:none;stroke:#000000;stroke-linecap:square;stroke-linejoin:miter;stroke-width:0.8;"/>
   </g>
   <g id="patch_5">
    <path d="M 64.8 172.8 
L 655.2 172.8 
" style="fill:none;stroke:#000000;stroke-linecap:square;stroke-linejoin:miter;stroke-width:0.8;"/>
   </g>
   <g id="patch_6">
    <path d="M 64.8 25.92 
L 655.2 25.92 
" style="fill:none;stroke:#000000;stroke-linecap:square;stroke-linejoin:miter;stroke-width:0.8;"/>
   </g>
   <g id="text_18">
    <!-- Concentratie SARS-CoV-2 RNA per ml rioolwater -->
    <g transform="translate(215.560313 19.92)scale(0.12 -0.12)">
     <defs>
      <path d="M 64.40625 67.28125 
L 64.40625 56.890625 
Q 59.421875 61.53125 53.78125 63.8125 
Q 48.140625 66.109375 41.796875 66.109375 
Q 29.296875 66.109375 22.65625 58.46875 
Q 16.015625 50.828125 16.015625 36.375 
Q 16.015625 21.96875 22.65625 14.328125 
Q 29.296875 6.6875 41.796875 6.6875 
Q 48.140625 6.6875 53.78125 8.984375 
Q 59.421875 11.28125 64.40625 15.921875 
L 64.40625 5.609375 
Q 59.234375 2.09375 53.4375 0.328125 
Q 47.65625 -1.421875 41.21875 -1.421875 
Q 24.65625 -1.421875 15.125 8.703125 
Q 5.609375 18.84375 5.609375 36.375 
Q 5.609375 53.953125 15.125 64.078125 
Q 24.65625 74.21875 41.21875 74.21875 
Q 47.75 74.21875 53.53125 72.484375 
Q 59.328125 70.75 64.40625 67.28125 
z
" id="DejaVuSans-67"/>
      <path d="M 30.609375 48.390625 
Q 23.390625 48.390625 19.1875 42.75 
Q 14.984375 37.109375 14.984375 27.296875 
Q 14.984375 17.484375 19.15625 11.84375 
Q 23.34375 6.203125 30.609375 6.203125 
Q 37.796875 6.203125 41.984375 11.859375 
Q 46.1875 17.53125 46.1875 27.296875 
Q 46.1875 37.015625 41.984375 42.703125 
Q 37.796875 48.390625 30.609375 48.390625 
z
M 30.609375 56 
Q 42.328125 56 49.015625 48.375 
Q 55.71875 40.765625 55.71875 27.296875 
Q 55.71875 13.875 49.015625 6.21875 
Q 42.328125 -1.421875 30.609375 -1.421875 
Q 18.84375 -1.421875 12.171875 6.21875 
Q 5.515625 13.875 5.515625 27.296875 
Q 5.515625 40.765625 12.171875 48.375 
Q 18.84375 56 30.609375 56 
z
" id="DejaVuSans-111"/>
      <path d="M 54.890625 33.015625 
L 54.890625 0 
L 45.90625 0 
L 45.90625 32.71875 
Q 45.90625 40.484375 42.875 44.328125 
Q 39.84375 48.1875 33.796875 48.1875 
Q 26.515625 48.1875 22.3125 43.546875 
Q 18.109375 38.921875 18.109375 30.90625 
L 18.109375 0 
L 9.078125 0 
L 9.078125 54.6875 
L 18.109375 54.6875 
L 18.109375 46.1875 
Q 21.34375 51.125 25.703125 53.5625 
Q 30.078125 56 35.796875 56 
Q 45.21875 56 50.046875 50.171875 
Q 54.890625 44.34375 54.890625 33.015625 
z
" id="DejaVuSans-110"/>
      <path d="M 48.78125 52.59375 
L 48.78125 44.1875 
Q 44.96875 46.296875 41.140625 47.34375 
Q 37.3125 48.390625 33.40625 48.390625 
Q 24.65625 48.390625 19.8125 42.84375 
Q 14.984375 37.3125 14.984375 27.296875 
Q 14.984375 17.28125 19.8125 11.734375 
Q 24.65625 6.203125 33.40625 6.203125 
Q 37.3125 6.203125 41.140625 7.25 
Q 44.96875 8.296875 48.78125 10.40625 
L 48.78125 2.09375 
Q 45.015625 0.34375 40.984375 -0.53125 
Q 36.96875 -1.421875 32.421875 -1.421875 
Q 20.0625 -1.421875 12.78125 6.34375 
Q 5.515625 14.109375 5.515625 27.296875 
Q 5.515625 40.671875 12.859375 48.328125 
Q 20.21875 56 33.015625 56 
Q 37.15625 56 41.109375 55.140625 
Q 45.0625 54.296875 48.78125 52.59375 
z
" id="DejaVuSans-99"/>
      <path d="M 53.515625 70.515625 
L 53.515625 60.890625 
Q 47.90625 63.578125 42.921875 64.890625 
Q 37.9375 66.21875 33.296875 66.21875 
Q 25.25 66.21875 20.875 63.09375 
Q 16.5 59.96875 16.5 54.203125 
Q 16.5 49.359375 19.40625 46.890625 
Q 22.3125 44.4375 30.421875 42.921875 
L 36.375 41.703125 
Q 47.40625 39.59375 52.65625 34.296875 
Q 57.90625 29 57.90625 20.125 
Q 57.90625 9.515625 50.796875 4.046875 
Q 43.703125 -1.421875 29.984375 -1.421875 
Q 24.8125 -1.421875 18.96875 -0.25 
Q 13.140625 0.921875 6.890625 3.21875 
L 6.890625 13.375 
Q 12.890625 10.015625 18.65625 8.296875 
Q 24.421875 6.59375 29.984375 6.59375 
Q 38.421875 6.59375 43.015625 9.90625 
Q 47.609375 13.234375 47.609375 19.390625 
Q 47.609375 24.75 44.3125 27.78125 
Q 41.015625 30.8125 33.5 32.328125 
L 27.484375 33.5 
Q 16.453125 35.6875 11.515625 40.375 
Q 6.59375 45.0625 6.59375 53.421875 
Q 6.59375 63.09375 13.40625 68.65625 
Q 20.21875 74.21875 32.171875 74.21875 
Q 37.3125 74.21875 42.625 73.28125 
Q 47.953125 72.359375 53.515625 70.515625 
z
" id="DejaVuSans-83"/>
      <path d="M 28.609375 0 
L 0.78125 72.90625 
L 11.078125 72.90625 
L 34.1875 11.53125 
L 57.328125 72.90625 
L 67.578125 72.90625 
L 39.796875 0 
z
" id="DejaVuSans-86"/>
      <path d="M 4.203125 54.6875 
L 13.1875 54.6875 
L 24.421875 12.015625 
L 35.59375 54.6875 
L 46.1875 54.6875 
L 57.421875 12.015625 
L 68.609375 54.6875 
L 77.59375 54.6875 
L 63.28125 0 
L 52.6875 0 
L 40.921875 44.828125 
L 29.109375 0 
L 18.5 0 
z
" id="DejaVuSans-119"/>
     </defs>
     <use xlink:href="#DejaVuSans-67"/>
     <use x="69.824219" xlink:href="#DejaVuSans-111"/>
     <use x="131.005859" xlink:href="#DejaVuSans-110"/>
     <use x="194.384766" xlink:href="#DejaVuSans-99"/>
     <use x="249.365234" xlink:href="#DejaVuSans-101"/>
     <use x="310.888672" xlink:href="#DejaVuSans-110"/>
     <use x="374.267578" xlink:href="#DejaVuSans-116"/>
     <use x="413.476562" xlink:href="#DejaVuSans-114"/>
     <use x="454.589844" xlink:href="#DejaVuSans-97"/>
     <use x="515.869141" xlink:href="#DejaVuSans-116"/>
     <use x="555.078125" xlink:href="#DejaVuSans-105"/>
     <use x="582.861328" xlink:href="#DejaVuSans-101"/>
     <use x="644.384766" xlink:href="#DejaVuSans-32"/>
     <use x="676.171875" xlink:href="#DejaVuSans-83"/>
     <use x="741.523438" xlink:href="#DejaVuSans-65"/>
     <use x="809.931641" xlink:href="#DejaVuSans-82"/>
     <use x="879.414062" xlink:href="#DejaVuSans-83"/>
     <use x="942.890625" xlink:href="#DejaVuSans-45"/>
     <use x="978.974609" xlink:href="#DejaVuSans-67"/>
     <use x="1048.798828" xlink:href="#DejaVuSans-111"/>
     <use x="1109.980469" xlink:href="#DejaVuSans-86"/>
     <use x="1172.513672" xlink:href="#DejaVuSans-45"/>
     <use x="1208.597656" xlink:href="#DejaVuSans-50"/>
     <use x="1272.220703" xlink:href="#DejaVuSans-32"/>
     <use x="1304.007812" xlink:href="#DejaVuSans-82"/>
     <use x="1373.490234" xlink:href="#DejaVuSans-78"/>
     <use x="1448.294922" xlink:href="#DejaVuSans-65"/>
     <use x="1516.703125" xlink:href="#DejaVuSans-32"/>
     <use x="1548.490234" xlink:href="#DejaVuSans-112"/>
     <use x="1611.966797" xlink:href="#DejaVuSans-101"/>
     <use x="1673.490234" xlink:href="#DejaVuSans-114"/>
     <use x="1714.603516" xlink:href="#DejaVuSans-32"/>
     <use x="1746.390625" xlink:href="#DejaVuSans-109"/>
     <use x="1843.802734" xlink:href="#DejaVuSans-108"/>
     <use x="1871.585938" xlink:href="#DejaVuSans-32"/>
     <use x="1903.373047" xlink:href="#DejaVuSans-114"/>
     <use x="1944.486328" xlink:href="#DejaVuSans-105"/>
     <use x="1972.269531" xlink:href="#DejaVuSans-111"/>
     <use x="2033.451172" xlink:href="#DejaVuSans-111"/>
     <use x="2094.632812" xlink:href="#DejaVuSans-108"/>
     <use x="2122.416016" xlink:href="#DejaVuSans-119"/>
     <use x="2204.203125" xlink:href="#DejaVuSans-97"/>
     <use x="2265.482422" xlink:href="#DejaVuSans-116"/>
     <use x="2304.691406" xlink:href="#DejaVuSans-101"/>
     <use x="2366.214844" xlink:href="#DejaVuSans-114"/>
    </g>
   </g>
   <g id="legend_1">
    <g id="patch_7">
     <path d="M 71.8 48.598125 
L 306.184375 48.598125 
Q 308.184375 48.598125 308.184375 46.598125 
L 308.184375 32.92 
Q 308.184375 30.92 306.184375 30.92 
L 71.8 30.92 
Q 69.8 30.92 69.8 32.92 
L 69.8 46.598125 
Q 69.8 48.598125 71.8 48.598125 
z
" style="fill:#ffffff;opacity:0.8;stroke:#cccccc;stroke-linejoin:miter;"/>
    </g>
    <g id="line2d_33">
     <path d="M 73.8 39.018437 
L 93.8 39.018437 
" style="fill:none;stroke:#008000;stroke-linecap:square;stroke-width:1.5;"/>
    </g>
    <g id="line2d_34"/>
    <g id="text_19">
     <!-- RNA per milliliter rioolwater (gemiddeld) -->
     <g transform="translate(101.8 42.518437)scale(0.1 -0.1)">
      <defs>
       <path d="M 31 75.875 
Q 24.46875 64.65625 21.28125 53.65625 
Q 18.109375 42.671875 18.109375 31.390625 
Q 18.109375 20.125 21.3125 9.0625 
Q 24.515625 -2 31 -13.1875 
L 23.1875 -13.1875 
Q 15.875 -1.703125 12.234375 9.375 
Q 8.59375 20.453125 8.59375 31.390625 
Q 8.59375 42.28125 12.203125 53.3125 
Q 15.828125 64.359375 23.1875 75.875 
z
" id="DejaVuSans-40"/>
       <path d="M 45.40625 27.984375 
Q 45.40625 37.75 41.375 43.109375 
Q 37.359375 48.484375 30.078125 48.484375 
Q 22.859375 48.484375 18.828125 43.109375 
Q 14.796875 37.75 14.796875 27.984375 
Q 14.796875 18.265625 18.828125 12.890625 
Q 22.859375 7.515625 30.078125 7.515625 
Q 37.359375 7.515625 41.375 12.890625 
Q 45.40625 18.265625 45.40625 27.984375 
z
M 54.390625 6.78125 
Q 54.390625 -7.171875 48.1875 -13.984375 
Q 42 -20.796875 29.203125 -20.796875 
Q 24.46875 -20.796875 20.265625 -20.09375 
Q 16.0625 -19.390625 12.109375 -17.921875 
L 12.109375 -9.1875 
Q 16.0625 -11.328125 19.921875 -12.34375 
Q 23.78125 -13.375 27.78125 -13.375 
Q 36.625 -13.375 41.015625 -8.765625 
Q 45.40625 -4.15625 45.40625 5.171875 
L 45.40625 9.625 
Q 42.625 4.78125 38.28125 2.390625 
Q 33.9375 0 27.875 0 
Q 17.828125 0 11.671875 7.65625 
Q 5.515625 15.328125 5.515625 27.984375 
Q 5.515625 40.671875 11.671875 48.328125 
Q 17.828125 56 27.875 56 
Q 33.9375 56 38.28125 53.609375 
Q 42.625 51.21875 45.40625 46.390625 
L 45.40625 54.6875 
L 54.390625 54.6875 
z
" id="DejaVuSans-103"/>
       <path d="M 45.40625 46.390625 
L 45.40625 75.984375 
L 54.390625 75.984375 
L 54.390625 0 
L 45.40625 0 
L 45.40625 8.203125 
Q 42.578125 3.328125 38.25 0.953125 
Q 33.9375 -1.421875 27.875 -1.421875 
Q 17.96875 -1.421875 11.734375 6.484375 
Q 5.515625 14.40625 5.515625 27.296875 
Q 5.515625 40.1875 11.734375 48.09375 
Q 17.96875 56 27.875 56 
Q 33.9375 56 38.25 53.625 
Q 42.578125 51.265625 45.40625 46.390625 
z
M 14.796875 27.296875 
Q 14.796875 17.390625 18.875 11.75 
Q 22.953125 6.109375 30.078125 6.109375 
Q 37.203125 6.109375 41.296875 11.75 
Q 45.40625 17.390625 45.40625 27.296875 
Q 45.40625 37.203125 41.296875 42.84375 
Q 37.203125 48.484375 30.078125 48.484375 
Q 22.953125 48.484375 18.875 42.84375 
Q 14.796875 37.203125 14.796875 27.296875 
z
" id="DejaVuSans-100"/>
       <path d="M 8.015625 75.875 
L 15.828125 75.875 
Q 23.140625 64.359375 26.78125 53.3125 
Q 30.421875 42.28125 30.421875 31.390625 
Q 30.421875 20.453125 26.78125 9.375 
Q 23.140625 -1.703125 15.828125 -13.1875 
L 8.015625 -13.1875 
Q 14.5 -2 17.703125 9.0625 
Q 20.90625 20.125 20.90625 31.390625 
Q 20.90625 42.671875 17.703125 53.65625 
Q 14.5 64.65625 8.015625 75.875 
z
" id="DejaVuSans-41"/>
      </defs>
      <use xlink:href="#DejaVuSans-82"/>
      <use x="69.482422" xlink:href="#DejaVuSans-78"/>
      <use x="144.287109" xlink:href="#DejaVuSans-65"/>
      <use x="212.695312" xlink:href="#DejaVuSans-32"/>
      <use x="244.482422" xlink:href="#DejaVuSans-112"/>
      <use x="307.958984" xlink:href="#DejaVuSans-101"/>
      <use x="369.482422" xlink:href="#DejaVuSans-114"/>
      <use x="410.595703" xlink:href="#DejaVuSans-32"/>
      <use x="442.382812" xlink:href="#DejaVuSans-109"/>
      <use x="539.794922" xlink:href="#DejaVuSans-105"/>
      <use x="567.578125" xlink:href="#DejaVuSans-108"/>
      <use x="595.361328" xlink:href="#DejaVuSans-108"/>
      <use x="623.144531" xlink:href="#DejaVuSans-105"/>
      <use x="650.927734" xlink:href="#DejaVuSans-108"/>
      <use x="678.710938" xlink:href="#DejaVuSans-105"/>
      <use x="706.494141" xlink:href="#DejaVuSans-116"/>
      <use x="745.703125" xlink:href="#DejaVuSans-101"/>
      <use x="807.226562" xlink:href="#DejaVuSans-114"/>
      <use x="848.339844" xlink:href="#DejaVuSans-32"/>
      <use x="880.126953" xlink:href="#DejaVuSans-114"/>
      <use x="921.240234" xlink:href="#DejaVuSans-105"/>
      <use x="949.023438" xlink:href="#DejaVuSans-111"/>
      <use x="1010.205078" xlink:href="#DejaVuSans-111"/>
      <use x="1071.386719" xlink:href="#DejaVuSans-108"/>
      <use x="1099.169922" xlink:href="#DejaVuSans-119"/>
      <use x="1180.957031" xlink:href="#DejaVuSans-97"/>
      <use x="1242.236328" xlink:href="#DejaVuSans-116"/>
      <use x="1281.445312" xlink:href="#DejaVuSans-101"/>
      <use x="1342.96875" xlink:href="#DejaVuSans-114"/>
      <use x="1384.082031" xlink:href="#DejaVuSans-32"/>
      <use x="1415.869141" xlink:href="#DejaVuSans-40"/>
      <use x="1454.882812" xlink:href="#DejaVuSans-103"/>
      <use x="1518.359375" xlink:href="#DejaVuSans-101"/>
      <use x="1579.882812" xlink:href="#DejaVuSans-109"/>
      <use x="1677.294922" xlink:href="#DejaVuSans-105"/>
      <use x="1705.078125" xlink:href="#DejaVuSans-100"/>
      <use x="1768.554688" xlink:href="#DejaVuSans-100"/>
      <use x="1832.03125" xlink:href="#DejaVuSans-101"/>
      <use x="1893.554688" xlink:href="#DejaVuSans-108"/>
      <use x="1921.337891" xlink:href="#DejaVuSans-100"/>
      <use x="1984.814453" xlink:href="#DejaVuSans-41"/>
     </g>
    </g>
   </g>
  </g>
  <g id="text_20">
   <!-- Gegenereerd op 2021-09-25 15:44 o.b.v. data tot 2021-09-21. -->
   <g style="fill:#808080;" transform="translate(7.2 204.88175)scale(0.08 -0.08)">
    <defs>
     <path d="M 59.515625 10.40625 
L 59.515625 29.984375 
L 43.40625 29.984375 
L 43.40625 38.09375 
L 69.28125 38.09375 
L 69.28125 6.78125 
Q 63.578125 2.734375 56.6875 0.65625 
Q 49.8125 -1.421875 42 -1.421875 
Q 24.90625 -1.421875 15.25 8.5625 
Q 5.609375 18.5625 5.609375 36.375 
Q 5.609375 54.25 15.25 64.234375 
Q 24.90625 74.21875 42 74.21875 
Q 49.125 74.21875 55.546875 72.453125 
Q 61.96875 70.703125 67.390625 67.28125 
L 67.390625 56.78125 
Q 61.921875 61.421875 55.765625 63.765625 
Q 49.609375 66.109375 42.828125 66.109375 
Q 29.4375 66.109375 22.71875 58.640625 
Q 16.015625 51.171875 16.015625 36.375 
Q 16.015625 21.625 22.71875 14.15625 
Q 29.4375 6.6875 42.828125 6.6875 
Q 48.046875 6.6875 52.140625 7.59375 
Q 56.25 8.5 59.515625 10.40625 
z
" id="DejaVuSans-71"/>
     <path d="M 11.71875 12.40625 
L 22.015625 12.40625 
L 22.015625 0 
L 11.71875 0 
z
M 11.71875 51.703125 
L 22.015625 51.703125 
L 22.015625 39.3125 
L 11.71875 39.3125 
z
" id="DejaVuSans-58"/>
     <path d="M 10.6875 12.40625 
L 21 12.40625 
L 21 0 
L 10.6875 0 
z
" id="DejaVuSans-46"/>
     <path d="M 48.6875 27.296875 
Q 48.6875 37.203125 44.609375 42.84375 
Q 40.53125 48.484375 33.40625 48.484375 
Q 26.265625 48.484375 22.1875 42.84375 
Q 18.109375 37.203125 18.109375 27.296875 
Q 18.109375 17.390625 22.1875 11.75 
Q 26.265625 6.109375 33.40625 6.109375 
Q 40.53125 6.109375 44.609375 11.75 
Q 48.6875 17.390625 48.6875 27.296875 
z
M 18.109375 46.390625 
Q 20.953125 51.265625 25.265625 53.625 
Q 29.59375 56 35.59375 56 
Q 45.5625 56 51.78125 48.09375 
Q 58.015625 40.1875 58.015625 27.296875 
Q 58.015625 14.40625 51.78125 6.484375 
Q 45.5625 -1.421875 35.59375 -1.421875 
Q 29.59375 -1.421875 25.265625 0.953125 
Q 20.953125 3.328125 18.109375 8.203125 
L 18.109375 0 
L 9.078125 0 
L 9.078125 75.984375 
L 18.109375 75.984375 
z
" id="DejaVuSans-98"/>
     <path d="M 2.984375 54.6875 
L 12.5 54.6875 
L 29.59375 8.796875 
L 46.6875 54.6875 
L 56.203125 54.6875 
L 35.6875 0 
L 23.484375 0 
z
" id="DejaVuSans-118"/>
    </defs>
    <use xlink:href="#DejaVuSans-71"/>
    <use x="77.490234" xlink:href="#DejaVuSans-101"/>
    <use x="139.013672" xlink:href="#DejaVuSans-103"/>
    <use x="202.490234" xlink:href="#DejaVuSans-101"/>
    <use x="264.013672" xlink:href="#DejaVuSans-110"/>
    <use x="327.392578" xlink:href="#DejaVuSans-101"/>
    <use x="388.916016" xlink:href="#DejaVuSans-114"/>
    <use x="427.779297" xlink:href="#DejaVuSans-101"/>
    <use x="489.302734" xlink:href="#DejaVuSans-101"/>
    <use x="550.826172" xlink:href="#DejaVuSans-114"/>
    <use x="590.189453" xlink:href="#DejaVuSans-100"/>
    <use x="653.666016" xlink:href="#DejaVuSans-32"/>
    <use x="685.453125" xlink:href="#DejaVuSans-111"/>
    <use x="746.634766" xlink:href="#DejaVuSans-112"/>
    <use x="810.111328" xlink:href="#DejaVuSans-32"/>
    <use x="841.898438" xlink:href="#DejaVuSans-50"/>
    <use x="905.521484" xlink:href="#DejaVuSans-48"/>
    <use x="969.144531" xlink:href="#DejaVuSans-50"/>
    <use x="1032.767578" xlink:href="#DejaVuSans-49"/>
    <use x="1096.390625" xlink:href="#DejaVuSans-45"/>
    <use x="1132.474609" xlink:href="#DejaVuSans-48"/>
    <use x="1196.097656" xlink:href="#DejaVuSans-57"/>
    <use x="1259.720703" xlink:href="#DejaVuSans-45"/>
    <use x="1295.804688" xlink:href="#DejaVuSans-50"/>
    <use x="1359.427734" xlink:href="#DejaVuSans-53"/>
    <use x="1423.050781" xlink:href="#DejaVuSans-32"/>
    <use x="1454.837891" xlink:href="#DejaVuSans-49"/>
    <use x="1518.460938" xlink:href="#DejaVuSans-53"/>
    <use x="1582.083984" xlink:href="#DejaVuSans-58"/>
    <use x="1615.775391" xlink:href="#DejaVuSans-52"/>
    <use x="1679.398438" xlink:href="#DejaVuSans-52"/>
    <use x="1743.021484" xlink:href="#DejaVuSans-32"/>
    <use x="1774.808594" xlink:href="#DejaVuSans-111"/>
    <use x="1834.240234" xlink:href="#DejaVuSans-46"/>
    <use x="1866.027344" xlink:href="#DejaVuSans-98"/>
    <use x="1929.503906" xlink:href="#DejaVuSans-46"/>
    <use x="1961.291016" xlink:href="#DejaVuSans-118"/>
    <use x="2012.720703" xlink:href="#DejaVuSans-46"/>
    <use x="2044.507812" xlink:href="#DejaVuSans-32"/>
    <use x="2076.294922" xlink:href="#DejaVuSans-100"/>
    <use x="2139.771484" xlink:href="#DejaVuSans-97"/>
    <use x="2201.050781" xlink:href="#DejaVuSans-116"/>
    <use x="2240.259766" xlink:href="#DejaVuSans-97"/>
    <use x="2301.539062" xlink:href="#DejaVuSans-32"/>
    <use x="2333.326172" xlink:href="#DejaVuSans-116"/>
    <use x="2372.535156" xlink:href="#DejaVuSans-111"/>
    <use x="2433.716797" xlink:href="#DejaVuSans-116"/>
    <use x="2472.925781" xlink:href="#DejaVuSans-32"/>
    <use x="2504.712891" xlink:href="#DejaVuSans-50"/>
    <use x="2568.335938" xlink:href="#DejaVuSans-48"/>
    <use x="2631.958984" xlink:href="#DejaVuSans-50"/>
    <use x="2695.582031" xlink:href="#DejaVuSans-49"/>
    <use x="2759.205078" xlink:href="#DejaVuSans-45"/>
    <use x="2795.289062" xlink:href="#DejaVuSans-48"/>
    <use x="2858.912109" xlink:href="#DejaVuSans-57"/>
    <use x="2922.535156" xlink:href="#DejaVuSans-45"/>
    <use x="2958.619141" xlink:href="#DejaVuSans-50"/>
    <use x="3022.242188" xlink:href="#DejaVuSans-49"/>
    <use x="3085.865234" xlink:href="#DejaVuSans-46"/>
   </g>
   <!-- Source code: http://github.com/realrolfje/coronadata -->
   <g style="fill:#808080;" transform="translate(7.2 213.84)scale(0.08 -0.08)">
    <defs>
     <path d="M 54.890625 33.015625 
L 54.890625 0 
L 45.90625 0 
L 45.90625 32.71875 
Q 45.90625 40.484375 42.875 44.328125 
Q 39.84375 48.1875 33.796875 48.1875 
Q 26.515625 48.1875 22.3125 43.546875 
Q 18.109375 38.921875 18.109375 30.90625 
L 18.109375 0 
L 9.078125 0 
L 9.078125 75.984375 
L 18.109375 75.984375 
L 18.109375 46.1875 
Q 21.34375 51.125 25.703125 53.5625 
Q 30.078125 56 35.796875 56 
Q 45.21875 56 50.046875 50.171875 
Q 54.890625 44.34375 54.890625 33.015625 
z
" id="DejaVuSans-104"/>
     <path d="M 25.390625 72.90625 
L 33.6875 72.90625 
L 8.296875 -9.28125 
L 0 -9.28125 
z
" id="DejaVuSans-47"/>
     <path d="M 37.109375 75.984375 
L 37.109375 68.5 
L 28.515625 68.5 
Q 23.6875 68.5 21.796875 66.546875 
Q 19.921875 64.59375 19.921875 59.515625 
L 19.921875 54.6875 
L 34.71875 54.6875 
L 34.71875 47.703125 
L 19.921875 47.703125 
L 19.921875 0 
L 10.890625 0 
L 10.890625 47.703125 
L 2.296875 47.703125 
L 2.296875 54.6875 
L 10.890625 54.6875 
L 10.890625 58.5 
Q 10.890625 67.625 15.140625 71.796875 
Q 19.390625 75.984375 28.609375 75.984375 
z
" id="DejaVuSans-102"/>
     <path d="M 9.421875 54.6875 
L 18.40625 54.6875 
L 18.40625 -0.984375 
Q 18.40625 -11.421875 14.421875 -16.109375 
Q 10.453125 -20.796875 1.609375 -20.796875 
L -1.8125 -20.796875 
L -1.8125 -13.1875 
L 0.59375 -13.1875 
Q 5.71875 -13.1875 7.5625 -10.8125 
Q 9.421875 -8.453125 9.421875 -0.984375 
z
M 9.421875 75.984375 
L 18.40625 75.984375 
L 18.40625 64.59375 
L 9.421875 64.59375 
z
" id="DejaVuSans-106"/>
    </defs>
    <use xlink:href="#DejaVuSans-83"/>
    <use x="63.476562" xlink:href="#DejaVuSans-111"/>
    <use x="124.658203" xlink:href="#DejaVuSans-117"/>
    <use x="188.037109" xlink:href="#DejaVuSans-114"/>
    <use x="226.900391" xlink:href="#DejaVuSans-99"/>
    <use x="281.880859" xlink:href="#DejaVuSans-101"/>
    <use x="343.404297" xlink:href="#DejaVuSans-32"/>
    <use x="375.191406" xlink:href="#DejaVuSans-99"/>
    <use x="430.171875" xlink:href="#DejaVuSans-111"/>
    <use x="491.353516" xlink:href="#DejaVuSans-100"/>
    <use x="554.830078" xlink:href="#DejaVuSans-101"/>
    <use x="616.353516" xlink:href="#DejaVuSans-58"/>
    <use x="650.044922" xlink:href="#DejaVuSans-32"/>
    <use x="681.832031" xlink:href="#DejaVuSans-104"/>
    <use x="745.210938" xlink:href="#DejaVuSans-116"/>
    <use x="784.419922" xlink:href="#DejaVuSans-116"/>
    <use x="823.628906" xlink:href="#DejaVuSans-112"/>
    <use x="887.105469" xlink:href="#DejaVuSans-58"/>
    <use x="920.796875" xlink:href="#DejaVuSans-47"/>
    <use x="954.488281" xlink:href="#DejaVuSans-47"/>
    <use x="988.179688" xlink:href="#DejaVuSans-103"/>
    <use x="1051.65625" xlink:href="#DejaVuSans-105"/>
    <use x="1079.439453" xlink:href="#DejaVuSans-116"/>
    <use x="1118.648438" xlink:href="#DejaVuSans-104"/>
    <use x="1182.027344" xlink:href="#DejaVuSans-117"/>
    <use x="1245.40625" xlink:href="#DejaVuSans-98"/>
    <use x="1308.882812" xlink:href="#DejaVuSans-46"/>
    <use x="1340.669922" xlink:href="#DejaVuSans-99"/>
    <use x="1395.650391" xlink:href="#DejaVuSans-111"/>
    <use x="1456.832031" xlink:href="#DejaVuSans-109"/>
    <use x="1554.244141" xlink:href="#DejaVuSans-47"/>
    <use x="1587.935547" xlink:href="#DejaVuSans-114"/>
    <use x="1626.798828" xlink:href="#DejaVuSans-101"/>
    <use x="1688.322266" xlink:href="#DejaVuSans-97"/>
    <use x="1749.601562" xlink:href="#DejaVuSans-108"/>
    <use x="1777.384766" xlink:href="#DejaVuSans-114"/>
    <use x="1816.248047" xlink:href="#DejaVuSans-111"/>
    <use x="1877.429688" xlink:href="#DejaVuSans-108"/>
    <use x="1905.212891" xlink:href="#DejaVuSans-102"/>
    <use x="1940.417969" xlink:href="#DejaVuSans-106"/>
    <use x="1968.201172" xlink:href="#DejaVuSans-101"/>
    <use x="2029.724609" xlink:href="#DejaVuSans-47"/>
    <use x="2063.416016" xlink:href="#DejaVuSans-99"/>
    <use x="2118.396484" xlink:href="#DejaVuSans-111"/>
    <use x="2179.578125" xlink:href="#DejaVuSans-114"/>
    <use x="2218.441406" xlink:href="#DejaVuSans-111"/>
    <use x="2279.623047" xlink:href="#DejaVuSans-110"/>
    <use x="2343.001953" xlink:href="#DejaVuSans-97"/>
    <use x="2404.28125" xlink:href="#DejaVuSans-100"/>
    <use x="2467.757812" xlink:href="#DejaVuSans-97"/>
    <use x="2529.037109" xlink:href="#DejaVuSans-116"/>
    <use x="2568.246094" xlink:href="#DejaVuSans-97"/>
   </g>
  </g>
  <g id="text_21">
   <!-- Bron: https://data.rivm.nl/covid-19 -->
   <g style="fill:#808080;" transform="translate(574.79875 213.84)scale(0.08 -0.08)">
    <defs>
     <path d="M 19.671875 34.8125 
L 19.671875 8.109375 
L 35.5 8.109375 
Q 43.453125 8.109375 47.28125 11.40625 
Q 51.125 14.703125 51.125 21.484375 
Q 51.125 28.328125 47.28125 31.5625 
Q 43.453125 34.8125 35.5 34.8125 
z
M 19.671875 64.796875 
L 19.671875 42.828125 
L 34.28125 42.828125 
Q 41.5 42.828125 45.03125 45.53125 
Q 48.578125 48.25 48.578125 53.8125 
Q 48.578125 59.328125 45.03125 62.0625 
Q 41.5 64.796875 34.28125 64.796875 
z
M 9.8125 72.90625 
L 35.015625 72.90625 
Q 46.296875 72.90625 52.390625 68.21875 
Q 58.5 63.53125 58.5 54.890625 
Q 58.5 48.1875 55.375 44.234375 
Q 52.25 40.28125 46.1875 39.3125 
Q 53.46875 37.75 57.5 32.78125 
Q 61.53125 27.828125 61.53125 20.40625 
Q 61.53125 10.640625 54.890625 5.3125 
Q 48.25 0 35.984375 0 
L 9.8125 0 
z
" id="DejaVuSans-66"/>
     <path d="M 44.28125 53.078125 
L 44.28125 44.578125 
Q 40.484375 46.53125 36.375 47.5 
Q 32.28125 48.484375 27.875 48.484375 
Q 21.1875 48.484375 17.84375 46.4375 
Q 14.5 44.390625 14.5 40.28125 
Q 14.5 37.15625 16.890625 35.375 
Q 19.28125 33.59375 26.515625 31.984375 
L 29.59375 31.296875 
Q 39.15625 29.25 43.1875 25.515625 
Q 47.21875 21.78125 47.21875 15.09375 
Q 47.21875 7.46875 41.1875 3.015625 
Q 35.15625 -1.421875 24.609375 -1.421875 
Q 20.21875 -1.421875 15.453125 -0.5625 
Q 10.6875 0.296875 5.421875 2 
L 5.421875 11.28125 
Q 10.40625 8.6875 15.234375 7.390625 
Q 20.0625 6.109375 24.8125 6.109375 
Q 31.15625 6.109375 34.5625 8.28125 
Q 37.984375 10.453125 37.984375 14.40625 
Q 37.984375 18.0625 35.515625 20.015625 
Q 33.0625 21.96875 24.703125 23.78125 
L 21.578125 24.515625 
Q 13.234375 26.265625 9.515625 29.90625 
Q 5.8125 33.546875 5.8125 39.890625 
Q 5.8125 47.609375 11.28125 51.796875 
Q 16.75 56 26.8125 56 
Q 31.78125 56 36.171875 55.265625 
Q 40.578125 54.546875 44.28125 53.078125 
z
" id="DejaVuSans-115"/>
    </defs>
    <use xlink:href="#DejaVuSans-66"/>
    <use x="68.603516" xlink:href="#DejaVuSans-114"/>
    <use x="107.466797" xlink:href="#DejaVuSans-111"/>
    <use x="168.648438" xlink:href="#DejaVuSans-110"/>
    <use x="232.027344" xlink:href="#DejaVuSans-58"/>
    <use x="265.71875" xlink:href="#DejaVuSans-32"/>
    <use x="297.505859" xlink:href="#DejaVuSans-104"/>
    <use x="360.884766" xlink:href="#DejaVuSans-116"/>
    <use x="400.09375" xlink:href="#DejaVuSans-116"/>
    <use x="439.302734" xlink:href="#DejaVuSans-112"/>
    <use x="502.779297" xlink:href="#DejaVuSans-115"/>
    <use x="554.878906" xlink:href="#DejaVuSans-58"/>
    <use x="588.570312" xlink:href="#DejaVuSans-47"/>
    <use x="622.261719" xlink:href="#DejaVuSans-47"/>
    <use x="655.953125" xlink:href="#DejaVuSans-100"/>
    <use x="719.429688" xlink:href="#DejaVuSans-97"/>
    <use x="780.708984" xlink:href="#DejaVuSans-116"/>
    <use x="819.917969" xlink:href="#DejaVuSans-97"/>
    <use x="881.197266" xlink:href="#DejaVuSans-46"/>
    <use x="912.984375" xlink:href="#DejaVuSans-114"/>
    <use x="954.097656" xlink:href="#DejaVuSans-105"/>
    <use x="981.880859" xlink:href="#DejaVuSans-118"/>
    <use x="1041.060547" xlink:href="#DejaVuSans-109"/>
    <use x="1138.472656" xlink:href="#DejaVuSans-46"/>
    <use x="1170.259766" xlink:href="#DejaVuSans-110"/>
    <use x="1233.638672" xlink:href="#DejaVuSans-108"/>
    <use x="1261.421875" xlink:href="#DejaVuSans-47"/>
    <use x="1295.113281" xlink:href="#DejaVuSans-99"/>
    <use x="1350.09375" xlink:href="#DejaVuSans-111"/>
    <use x="1411.275391" xlink:href="#DejaVuSans-118"/>
    <use x="1470.455078" xlink:href="#DejaVuSans-105"/>
    <use x="1498.238281" xlink:href="#DejaVuSans-100"/>
    <use x="1561.714844" xlink:href="#DejaVuSans-45"/>
    <use x="1597.798828" xlink:href="#DejaVuSans-49"/>
    <use x="1661.421875" xlink:href="#DejaVuSans-57"/>
   </g>
  </g>
  <g id="text_22">
   <g id="patch_8">
    <path d="M 637.2 176.62375 
L 647.38 176.62375 
L 647.38 168.88125 
L 637.2 168.88125 
z
" style="fill:#ffffff;opacity:0.9;stroke:#ffffff;stroke-linejoin:miter;"/>
   </g>
   <!-- 25 -->
   <g style="fill:#ff0000;" transform="translate(637.2 174.96)scale(0.08 -0.08)">
    <use xlink:href="#DejaVuSans-50"/>
    <use x="63.623047" xlink:href="#DejaVuSans-53"/>
   </g>
  </g>
  <g id="text_23">
   <g id="patch_9">
    <path d="M 176 92.479688 
L 303.317187 92.479688 
L 303.317187 74.801563 
L 176 74.801563 
z
" style="fill:#ffffff;stroke:#ffffff;stroke-linejoin:miter;"/>
   </g>
   <!-- "Je plee liegt niet" - Rolf -->
   <g style="fill:#808080;" transform="translate(180 86.4)scale(0.1 -0.1)">
    <defs>
     <path d="M 17.921875 72.90625 
L 17.921875 45.796875 
L 9.625 45.796875 
L 9.625 72.90625 
z
M 36.375 72.90625 
L 36.375 45.796875 
L 28.078125 45.796875 
L 28.078125 72.90625 
z
" id="DejaVuSans-34"/>
     <path d="M 9.8125 72.90625 
L 19.671875 72.90625 
L 19.671875 5.078125 
Q 19.671875 -8.109375 14.671875 -14.0625 
Q 9.671875 -20.015625 -1.421875 -20.015625 
L -5.171875 -20.015625 
L -5.171875 -11.71875 
L -2.09375 -11.71875 
Q 4.4375 -11.71875 7.125 -8.046875 
Q 9.8125 -4.390625 9.8125 5.078125 
z
" id="DejaVuSans-74"/>
    </defs>
    <use xlink:href="#DejaVuSans-34"/>
    <use x="45.996094" xlink:href="#DejaVuSans-74"/>
    <use x="75.488281" xlink:href="#DejaVuSans-101"/>
    <use x="137.011719" xlink:href="#DejaVuSans-32"/>
    <use x="168.798828" xlink:href="#DejaVuSans-112"/>
    <use x="232.275391" xlink:href="#DejaVuSans-108"/>
    <use x="260.058594" xlink:href="#DejaVuSans-101"/>
    <use x="321.582031" xlink:href="#DejaVuSans-101"/>
    <use x="383.105469" xlink:href="#DejaVuSans-32"/>
    <use x="414.892578" xlink:href="#DejaVuSans-108"/>
    <use x="442.675781" xlink:href="#DejaVuSans-105"/>
    <use x="470.458984" xlink:href="#DejaVuSans-101"/>
    <use x="531.982422" xlink:href="#DejaVuSans-103"/>
    <use x="595.458984" xlink:href="#DejaVuSans-116"/>
    <use x="634.667969" xlink:href="#DejaVuSans-32"/>
    <use x="666.455078" xlink:href="#DejaVuSans-110"/>
    <use x="729.833984" xlink:href="#DejaVuSans-105"/>
    <use x="757.617188" xlink:href="#DejaVuSans-101"/>
    <use x="819.140625" xlink:href="#DejaVuSans-116"/>
    <use x="858.349609" xlink:href="#DejaVuSans-34"/>
    <use x="904.345703" xlink:href="#DejaVuSans-32"/>
    <use x="936.132812" xlink:href="#DejaVuSans-45"/>
    <use x="972.216797" xlink:href="#DejaVuSans-32"/>
    <use x="1004.003906" xlink:href="#DejaVuSans-82"/>
    <use x="1068.986328" xlink:href="#DejaVuSans-111"/>
    <use x="1130.167969" xlink:href="#DejaVuSans-108"/>
    <use x="1157.951172" xlink:href="#DejaVuSans-102"/>
   </g>
  </g>
 </g>
 <defs>
  <clipPath id="p323f66ed7e">
   <rect height="146.88" width="590.4" x="64.8" y="25.92"/>
  </clipPath>
 </defs>
</svg>
