<?xml version="1.0" encoding="utf-8" standalone="no"?>
<!DOCTYPE svg PUBLIC "-//W3C//DTD SVG 1.1//EN"
  "http://www.w3.org/Graphics/SVG/1.1/DTD/svg11.dtd">
<!-- Created with matplotlib (https://matplotlib.org/) -->
<svg height="216pt" version="1.1" viewBox="0 0 720 216" width="720pt" xmlns="http://www.w3.org/2000/svg" xmlns:xlink="http://www.w3.org/1999/xlink">
 <metadata>
  <rdf:RDF xmlns:cc="http://creativecommons.org/ns#" xmlns:dc="http://purl.org/dc/elements/1.1/" xmlns:rdf="http://www.w3.org/1999/02/22-rdf-syntax-ns#">
   <cc:Work>
    <dc:type rdf:resource="http://purl.org/dc/dcmitype/StillImage"/>
    <dc:date>2021-09-30T11:41:00.414422</dc:date>
    <dc:format>image/svg+xml</dc:format>
    <dc:creator>
     <cc:Agent>
      <dc:title>Matplotlib v3.3.2, https://matplotlib.org/</dc:title>
     </cc:Agent>
    </dc:creator>
   </cc:Work>
  </rdf:RDF>
 </metadata>
 <defs>
  <style type="text/css">*{stroke-linecap:butt;stroke-linejoin:round;}</style>
 </defs>
 <g id="figure_1">
  <g id="patch_1">
   <path d="M 0 216 
L 720 216 
L 720 0 
L 0 0 
z
" style="fill:#ffffff;"/>
  </g>
  <g id="axes_1">
   <g id="patch_2">
    <path d="M 64.8 172.8 
L 655.2 172.8 
L 655.2 25.92 
L 64.8 25.92 
z
" style="fill:#ffffff;"/>
   </g>
   <g id="PolyCollection_1">
    <path clip-path="url(#p8e5da54d8e)" d="M 94.117808 172.8 
L 94.117808 172.8 
L 95.128767 172.8 
L 96.139726 172.8 
L 97.150685 172.8 
L 100.183562 172.8 
L 101.194521 172.8 
L 102.205479 172.8 
L 103.216438 172.8 
L 104.227397 172.8 
L 105.238356 172.8 
L 108.271233 172.8 
L 109.282192 172.8 
L 110.293151 172.8 
L 111.30411 172.8 
L 112.315068 172.8 
L 114.336986 172.8 
L 115.347945 172.8 
L 116.358904 172.8 
L 117.369863 172.8 
L 118.380822 172.8 
L 121.413699 172.8 
L 122.424658 172.8 
L 123.435616 172.8 
L 124.446575 172.8 
L 125.457534 172.8 
L 126.468493 172.8 
L 128.490411 172.8 
L 130.512329 172.8 
L 131.523288 172.8 
L 132.534247 172.8 
L 134.556164 172.8 
L 135.567123 172.8 
L 136.578082 172.8 
L 137.589041 172.8 
L 138.6 172.8 
L 140.621918 172.8 
L 141.632877 172.8 
L 142.643836 172.8 
L 143.654795 172.8 
L 144.665753 172.8 
L 145.676712 172.8 
L 146.687671 172.8 
L 147.69863 172.8 
L 148.709589 172.8 
L 149.720548 172.8 
L 150.731507 172.8 
L 151.742466 172.8 
L 152.753425 172.8 
L 153.764384 172.8 
L 154.775342 172.8 
L 157.808219 172.8 
L 158.819178 172.8 
L 159.830137 172.8 
L 160.841096 172.8 
L 161.852055 172.8 
L 162.863014 172.8 
L 163.873973 172.8 
L 164.884932 172.8 
L 165.89589 172.8 
L 166.906849 172.8 
L 167.917808 172.8 
L 170.950685 172.8 
L 171.961644 172.8 
L 172.972603 172.8 
L 173.983562 172.8 
L 178.027397 172.8 
L 179.038356 172.8 
L 180.049315 172.8 
L 184.093151 172.8 
L 185.10411 172.8 
L 186.115068 172.8 
L 187.126027 172.8 
L 189.147945 172.8 
L 193.191781 172.8 
L 194.20274 172.8 
L 195.213699 172.8 
L 200.268493 172.8 
L 201.279452 172.8 
L 203.30137 172.8 
L 205.323288 172.8 
L 206.334247 172.8 
L 207.345205 172.8 
L 208.356164 172.8 
L 209.367123 172.8 
L 210.378082 172.8 
L 211.389041 172.8 
L 212.4 172.8 
L 213.410959 172.8 
L 214.421918 172.8 
L 215.432877 172.8 
L 216.443836 172.8 
L 217.454795 172.8 
L 218.465753 172.8 
L 219.476712 172.8 
L 220.487671 172.8 
L 221.49863 172.8 
L 222.509589 172.8 
L 223.520548 172.8 
L 224.531507 172.8 
L 225.542466 172.8 
L 227.564384 172.8 
L 228.575342 172.8 
L 229.586301 172.8 
L 230.59726 172.8 
L 231.608219 172.8 
L 232.619178 172.8 
L 233.630137 172.8 
L 234.641096 172.8 
L 235.652055 172.8 
L 236.663014 172.8 
L 237.673973 172.8 
L 238.684932 172.8 
L 239.69589 172.8 
L 240.706849 172.8 
L 241.717808 172.8 
L 242.728767 172.8 
L 243.739726 172.8 
L 244.750685 172.8 
L 245.761644 172.8 
L 246.772603 172.8 
L 247.783562 172.8 
L 248.794521 172.8 
L 249.805479 172.8 
L 250.816438 172.8 
L 251.827397 172.8 
L 252.838356 172.8 
L 253.849315 172.8 
L 254.860274 172.8 
L 255.871233 172.8 
L 256.882192 172.8 
L 257.893151 172.8 
L 258.90411 172.8 
L 259.915068 172.8 
L 260.926027 172.8 
L 261.936986 172.8 
L 262.947945 172.8 
L 263.958904 172.8 
L 264.969863 172.8 
L 265.980822 172.8 
L 266.991781 172.8 
L 268.00274 172.8 
L 269.013699 172.8 
L 270.024658 172.8 
L 271.035616 172.8 
L 272.046575 172.8 
L 273.057534 172.8 
L 274.068493 172.8 
L 275.079452 172.8 
L 276.090411 172.8 
L 277.10137 172.8 
L 278.112329 172.8 
L 279.123288 172.8 
L 280.134247 172.8 
L 281.145205 172.8 
L 282.156164 172.8 
L 283.167123 172.8 
L 284.178082 172.8 
L 285.189041 172.8 
L 286.2 172.8 
L 287.210959 172.8 
L 288.221918 172.8 
L 289.232877 172.8 
L 290.243836 172.8 
L 291.254795 172.8 
L 292.265753 172.8 
L 293.276712 172.8 
L 294.287671 172.8 
L 295.29863 172.8 
L 296.309589 172.8 
L 297.320548 172.8 
L 298.331507 172.8 
L 299.342466 172.8 
L 300.353425 172.8 
L 301.364384 172.8 
L 302.375342 172.8 
L 303.386301 172.8 
L 304.39726 172.8 
L 305.408219 172.8 
L 306.419178 172.8 
L 307.430137 172.8 
L 308.441096 172.8 
L 309.452055 172.8 
L 310.463014 172.8 
L 311.473973 172.8 
L 312.484932 172.8 
L 313.49589 172.8 
L 314.506849 172.8 
L 315.517808 172.8 
L 316.528767 172.8 
L 317.539726 172.8 
L 318.550685 172.8 
L 319.561644 172.8 
L 320.572603 172.8 
L 321.583562 172.8 
L 322.594521 172.8 
L 323.605479 172.8 
L 324.616438 172.8 
L 325.627397 172.8 
L 326.638356 172.8 
L 327.649315 172.8 
L 328.660274 172.8 
L 329.671233 172.8 
L 330.682192 172.8 
L 331.693151 172.8 
L 332.70411 172.8 
L 333.715068 172.8 
L 334.726027 172.8 
L 335.736986 172.8 
L 336.747945 172.8 
L 337.758904 172.8 
L 338.769863 172.8 
L 339.780822 172.8 
L 340.791781 172.8 
L 341.80274 172.8 
L 342.813699 172.8 
L 343.824658 172.8 
L 344.835616 172.8 
L 345.846575 172.8 
L 346.857534 172.8 
L 347.868493 172.8 
L 348.879452 172.8 
L 349.890411 172.8 
L 350.90137 172.8 
L 351.912329 172.8 
L 352.923288 172.8 
L 353.934247 172.8 
L 354.945205 172.8 
L 355.956164 172.8 
L 356.967123 172.8 
L 357.978082 172.8 
L 358.989041 172.8 
L 360 172.8 
L 361.010959 172.8 
L 362.021918 172.8 
L 363.032877 172.8 
L 364.043836 172.8 
L 365.054795 172.8 
L 366.065753 172.8 
L 367.076712 172.8 
L 368.087671 172.8 
L 369.09863 172.8 
L 370.109589 172.8 
L 371.120548 172.8 
L 372.131507 172.8 
L 374.153425 172.8 
L 375.164384 172.8 
L 376.175342 172.8 
L 377.186301 172.8 
L 378.19726 172.8 
L 379.208219 172.8 
L 380.219178 172.8 
L 381.230137 172.8 
L 382.241096 172.8 
L 383.252055 172.8 
L 384.263014 172.8 
L 385.273973 172.8 
L 386.284932 172.8 
L 387.29589 172.8 
L 388.306849 172.8 
L 389.317808 172.8 
L 390.328767 172.8 
L 391.339726 172.8 
L 392.350685 172.8 
L 393.361644 172.8 
L 394.372603 172.8 
L 395.383562 172.8 
L 396.394521 172.8 
L 397.405479 172.8 
L 398.416438 172.8 
L 399.427397 172.8 
L 400.438356 172.8 
L 401.449315 172.8 
L 402.460274 172.8 
L 403.471233 172.8 
L 404.482192 172.8 
L 405.493151 172.8 
L 406.50411 172.8 
L 407.515068 172.8 
L 408.526027 172.8 
L 409.536986 172.8 
L 410.547945 172.8 
L 411.558904 172.8 
L 412.569863 172.8 
L 413.580822 172.8 
L 414.591781 172.8 
L 415.60274 172.8 
L 416.613699 172.8 
L 417.624658 172.8 
L 418.635616 172.8 
L 419.646575 172.8 
L 420.657534 172.8 
L 421.668493 172.8 
L 422.679452 172.8 
L 423.690411 172.8 
L 424.70137 172.8 
L 425.712329 172.8 
L 426.723288 172.8 
L 427.734247 172.8 
L 428.745205 172.8 
L 429.756164 172.8 
L 430.767123 172.8 
L 431.778082 172.8 
L 432.789041 172.8 
L 433.8 172.8 
L 434.810959 172.8 
L 435.821918 172.8 
L 436.832877 172.8 
L 437.843836 172.8 
L 438.854795 172.8 
L 439.865753 172.8 
L 440.876712 172.8 
L 441.887671 172.8 
L 442.89863 172.8 
L 443.909589 172.8 
L 444.920548 172.8 
L 445.931507 172.8 
L 446.942466 172.8 
L 447.953425 172.8 
L 448.964384 172.8 
L 449.975342 172.8 
L 450.986301 172.8 
L 451.99726 172.8 
L 453.008219 172.8 
L 454.019178 172.8 
L 455.030137 172.8 
L 456.041096 172.8 
L 457.052055 172.8 
L 458.063014 172.8 
L 459.073973 172.8 
L 460.084932 172.8 
L 461.09589 172.8 
L 462.106849 172.8 
L 463.117808 172.8 
L 464.128767 172.8 
L 465.139726 172.8 
L 466.150685 172.8 
L 467.161644 172.8 
L 468.172603 172.8 
L 469.183562 172.8 
L 470.194521 172.8 
L 471.205479 172.8 
L 472.216438 172.8 
L 473.227397 172.8 
L 474.238356 172.8 
L 475.249315 172.8 
L 476.260274 172.8 
L 477.271233 172.8 
L 478.282192 172.8 
L 479.293151 172.8 
L 480.30411 172.8 
L 481.315068 172.8 
L 482.326027 172.8 
L 483.336986 172.8 
L 484.347945 172.8 
L 485.358904 172.8 
L 486.369863 172.8 
L 487.380822 172.8 
L 488.391781 172.8 
L 489.40274 172.8 
L 490.413699 172.8 
L 491.424658 172.8 
L 492.435616 172.8 
L 493.446575 172.8 
L 494.457534 172.8 
L 495.468493 172.8 
L 496.479452 172.8 
L 497.490411 172.8 
L 498.50137 172.8 
L 499.512329 172.8 
L 500.523288 172.8 
L 501.534247 172.8 
L 502.545205 172.8 
L 503.556164 172.8 
L 504.567123 172.8 
L 505.578082 172.8 
L 506.589041 172.8 
L 507.6 172.8 
L 508.610959 172.8 
L 509.621918 172.8 
L 510.632877 172.8 
L 511.643836 172.8 
L 512.654795 172.8 
L 513.665753 172.8 
L 514.676712 172.8 
L 515.687671 172.8 
L 517.709589 172.8 
L 518.720548 172.8 
L 519.731507 172.8 
L 520.742466 172.8 
L 521.753425 172.8 
L 522.764384 172.8 
L 523.775342 172.8 
L 524.786301 172.8 
L 525.79726 172.8 
L 526.808219 172.8 
L 527.819178 172.8 
L 528.830137 172.8 
L 529.841096 172.8 
L 531.863014 172.8 
L 532.873973 172.8 
L 533.884932 172.8 
L 534.89589 172.8 
L 535.906849 172.8 
L 537.928767 172.8 
L 538.939726 172.8 
L 539.950685 172.8 
L 540.961644 172.8 
L 541.972603 172.8 
L 542.983562 172.8 
L 545.005479 172.8 
L 546.016438 172.8 
L 547.027397 172.8 
L 548.038356 172.8 
L 549.049315 172.8 
L 550.060274 172.8 
L 551.071233 172.8 
L 552.082192 172.8 
L 553.093151 172.8 
L 554.10411 172.8 
L 555.115068 172.8 
L 556.126027 172.8 
L 557.136986 172.8 
L 558.147945 172.8 
L 559.158904 172.8 
L 560.169863 172.8 
L 561.180822 172.8 
L 562.191781 172.8 
L 563.20274 172.8 
L 564.213699 172.8 
L 565.224658 172.8 
L 566.235616 172.8 
L 567.246575 172.8 
L 568.257534 172.8 
L 569.268493 172.8 
L 570.279452 172.8 
L 571.290411 172.8 
L 573.312329 172.8 
L 574.323288 172.8 
L 575.334247 172.8 
L 576.345205 172.8 
L 577.356164 172.8 
L 578.367123 172.8 
L 579.378082 172.8 
L 580.389041 172.8 
L 581.4 172.8 
L 582.410959 172.8 
L 583.421918 172.8 
L 584.432877 172.8 
L 585.443836 172.8 
L 586.454795 172.8 
L 587.465753 172.8 
L 588.476712 172.8 
L 589.487671 172.8 
L 590.49863 172.8 
L 591.509589 172.8 
L 592.520548 172.8 
L 593.531507 172.8 
L 594.542466 172.8 
L 595.553425 172.8 
L 596.564384 172.8 
L 597.575342 172.8 
L 598.586301 172.8 
L 599.59726 172.8 
L 600.608219 172.8 
L 601.619178 172.8 
L 602.630137 172.8 
L 603.641096 172.8 
L 604.652055 172.8 
L 605.663014 172.8 
L 606.673973 172.8 
L 607.684932 172.8 
L 608.69589 172.8 
L 609.706849 172.8 
L 610.717808 172.8 
L 611.728767 172.8 
L 612.739726 172.8 
L 613.750685 172.8 
L 614.761644 172.8 
L 615.772603 172.8 
L 616.783562 172.8 
L 617.794521 172.8 
L 618.805479 172.8 
L 619.816438 172.8 
L 620.827397 172.8 
L 621.838356 172.8 
L 622.849315 172.8 
L 623.860274 172.8 
L 624.871233 172.8 
L 625.882192 172.8 
L 626.893151 172.8 
L 627.90411 172.8 
L 628.915068 172.8 
L 629.926027 172.8 
L 630.936986 172.8 
L 631.947945 172.8 
L 632.958904 172.8 
L 633.969863 172.8 
L 634.980822 172.8 
L 635.991781 172.8 
L 637.00274 172.8 
L 638.013699 172.8 
L 639.024658 172.8 
L 640.035616 172.8 
L 641.046575 172.8 
L 642.057534 172.8 
L 643.068493 172.8 
L 644.079452 172.8 
L 645.090411 172.8 
L 645.090411 172.8 
L 645.090411 165.487932 
L 644.079452 168.4474 
L 643.068493 168.593675 
L 642.057534 161.911635 
L 641.046575 165.813452 
L 640.035616 161.562326 
L 639.024658 160.41893 
L 638.013699 159.578623 
L 637.00274 159.464305 
L 635.991781 160.307782 
L 634.980822 155.913524 
L 633.969863 159.500815 
L 632.958904 160.38536 
L 631.947945 158.567475 
L 630.936986 154.611397 
L 629.926027 156.334497 
L 628.915068 154.070139 
L 627.90411 155.353456 
L 626.893151 152.597481 
L 625.882192 159.138644 
L 624.871233 158.251628 
L 623.860274 156.446712 
L 622.849315 151.209178 
L 621.838356 156.311731 
L 620.827397 139.846286 
L 619.816438 143.781256 
L 618.805479 152.971616 
L 617.794521 153.90636 
L 616.783562 113.682456 
L 615.772603 124.362251 
L 614.761644 86.577856 
L 613.750685 91.383937 
L 612.739726 105.382336 
L 611.728767 110.853274 
L 610.717808 112.127323 
L 609.706849 67.181409 
L 608.69589 109.565432 
L 607.684932 97.730493 
L 606.673973 117.71063 
L 605.663014 133.579882 
L 604.652055 96.753757 
L 603.641096 102.436659 
L 602.630137 117.079514 
L 601.619178 103.984872 
L 600.608219 128.2345 
L 599.59726 120.415449 
L 598.586301 134.532795 
L 597.575342 118.384142 
L 596.564384 118.552232 
L 595.553425 113.245979 
L 594.542466 94.416467 
L 593.531507 100.817589 
L 592.520548 116.727606 
L 591.509589 122.572452 
L 590.49863 118.302124 
L 589.487671 128.283917 
L 588.476712 124.913276 
L 587.465753 124.066115 
L 586.454795 97.692824 
L 585.443836 141.76763 
L 584.432877 149.910168 
L 583.421918 140.845228 
L 582.410959 131.643526 
L 581.4 105.308852 
L 580.389041 96.264172 
L 579.378082 112.880803 
L 578.367123 116.434041 
L 577.356164 118.687112 
L 576.345205 128.771532 
L 575.334247 112.404711 
L 574.323288 127.855989 
L 573.312329 135.751115 
L 571.290411 69.648406 
L 570.279452 86.113571 
L 569.268493 116.02818 
L 568.257534 120.094685 
L 567.246575 107.112476 
L 566.235616 113.784516 
L 565.224658 131.663277 
L 564.213699 133.740688 
L 563.20274 152.117372 
L 562.191781 158.281979 
L 561.180822 154.89907 
L 560.169863 132.47733 
L 559.158904 165.205335 
L 558.147945 162.865898 
L 557.136986 164.987836 
L 556.126027 161.118372 
L 555.115068 157.461296 
L 554.10411 159.326763 
L 553.093151 149.053694 
L 552.082192 162.572281 
L 551.071233 166.70406 
L 550.060274 164.64173 
L 549.049315 163.459728 
L 548.038356 166.403695 
L 547.027397 160.640142 
L 546.016438 165.344346 
L 545.005479 166.93012 
L 542.983562 164.902401 
L 541.972603 166.066596 
L 540.961644 158.116862 
L 539.950685 165.628619 
L 538.939726 163.718601 
L 537.928767 152.60752 
L 535.906849 166.232787 
L 534.89589 158.256133 
L 533.884932 164.878666 
L 532.873973 165.456303 
L 531.863014 157.55768 
L 529.841096 154.304757 
L 528.830137 161.942522 
L 527.819178 153.310483 
L 526.808219 150.077338 
L 525.79726 155.755811 
L 524.786301 143.826417 
L 523.775342 159.960447 
L 522.764384 157.185634 
L 521.753425 160.726307 
L 520.742466 150.879304 
L 519.731507 146.075299 
L 518.720548 147.41725 
L 517.709589 156.27884 
L 515.687671 160.982456 
L 514.676712 159.298533 
L 513.665753 144.979683 
L 512.654795 147.072647 
L 511.643836 142.244774 
L 510.632877 150.258207 
L 509.621918 158.486479 
L 508.610959 144.799993 
L 507.6 135.032938 
L 506.589041 137.394655 
L 505.578082 140.84374 
L 504.567123 145.790526 
L 503.556164 108.764004 
L 502.545205 103.273657 
L 501.534247 115.867162 
L 500.523288 141.750076 
L 499.512329 128.093661 
L 498.50137 113.945642 
L 497.490411 139.507839 
L 496.479452 143.867111 
L 495.468493 158.804853 
L 494.457534 153.36857 
L 493.446575 115.734033 
L 492.435616 135.557076 
L 491.424658 140.718885 
L 490.413699 121.156437 
L 489.40274 133.517688 
L 488.391781 130.021742 
L 487.380822 135.887764 
L 486.369863 147.3494 
L 485.358904 147.24953 
L 484.347945 137.250226 
L 483.336986 138.498124 
L 482.326027 127.877434 
L 481.315068 110.024864 
L 480.30411 143.629121 
L 479.293151 144.987049 
L 478.282192 148.303003 
L 477.271233 131.619043 
L 476.260274 142.225225 
L 475.249315 137.005289 
L 474.238356 100.009519 
L 473.227397 134.671348 
L 472.216438 148.858822 
L 471.205479 122.940898 
L 470.194521 123.293579 
L 469.183562 134.730823 
L 468.172603 144.522787 
L 467.161644 142.30677 
L 466.150685 137.709261 
L 465.139726 136.600683 
L 464.128767 146.56533 
L 463.117808 138.795282 
L 462.106849 139.434002 
L 461.09589 132.653891 
L 460.084932 141.624997 
L 459.073973 122.590942 
L 458.063014 144.581141 
L 457.052055 133.344477 
L 456.041096 137.279044 
L 455.030137 137.38133 
L 454.019178 94.165674 
L 453.008219 149.839856 
L 451.99726 146.662783 
L 450.986301 144.206918 
L 449.975342 153.480188 
L 448.964384 131.993864 
L 447.953425 150.43032 
L 446.942466 146.065811 
L 445.931507 138.277085 
L 444.920548 140.477018 
L 443.909589 136.178252 
L 442.89863 145.566105 
L 441.887671 145.786417 
L 440.876712 134.926886 
L 439.865753 136.024015 
L 438.854795 135.502841 
L 437.843836 143.414983 
L 436.832877 140.34631 
L 435.821918 149.635629 
L 434.810959 144.992239 
L 433.8 152.138659 
L 432.789041 152.824703 
L 431.778082 106.632528 
L 430.767123 150.114703 
L 429.756164 155.113752 
L 428.745205 147.420985 
L 427.734247 134.275209 
L 426.723288 123.744372 
L 425.712329 94.473208 
L 424.70137 122.019009 
L 423.690411 119.633237 
L 422.679452 121.19727 
L 421.668493 136.750773 
L 420.657534 126.4421 
L 419.646575 98.962939 
L 418.635616 132.441863 
L 417.624658 143.636859 
L 416.613699 133.632038 
L 415.60274 132.000431 
L 414.591781 145.904745 
L 413.580822 103.408729 
L 412.569863 140.758236 
L 411.558904 156.627057 
L 410.547945 115.69574 
L 409.536986 152.471809 
L 408.526027 136.72894 
L 407.515068 127.887017 
L 406.50411 110.956815 
L 405.493151 138.962608 
L 404.482192 141.077965 
L 403.471233 129.156698 
L 402.460274 15.712466 
L 401.449315 112.531776 
L 400.438356 118.92834 
L 399.427397 122.470209 
L 398.416438 116.457284 
L 397.405479 123.329339 
L 396.394521 128.230276 
L 395.383562 120.811736 
L 394.372603 114.079626 
L 393.361644 119.913195 
L 392.350685 71.00656 
L 391.339726 126.814628 
L 390.328767 95.872056 
L 389.317808 119.423246 
L 388.306849 118.320024 
L 387.29589 138.208685 
L 386.284932 118.67668 
L 385.273973 100.461711 
L 384.263014 102.561448 
L 383.252055 139.024808 
L 382.241096 143.231016 
L 381.230137 134.647109 
L 380.219178 94.723026 
L 379.208219 141.29349 
L 378.19726 136.552762 
L 377.186301 128.66006 
L 376.175342 142.371743 
L 375.164384 142.148088 
L 374.153425 148.584485 
L 372.131507 150.305439 
L 371.120548 124.142394 
L 370.109589 148.467582 
L 369.09863 109.285949 
L 368.087671 137.5216 
L 367.076712 110.627515 
L 366.065753 157.08584 
L 365.054795 83.454723 
L 364.043836 111.993572 
L 363.032877 73.117423 
L 362.021918 133.434908 
L 361.010959 141.108088 
L 360 126.858461 
L 358.989041 131.992243 
L 357.978082 120.917477 
L 356.967123 111.695393 
L 355.956164 98.991505 
L 354.945205 126.495242 
L 353.934247 127.446293 
L 352.923288 134.093207 
L 351.912329 144.539163 
L 350.90137 131.684679 
L 349.890411 150.395521 
L 348.879452 145.286576 
L 347.868493 139.307814 
L 346.857534 155.752304 
L 345.846575 154.236541 
L 344.835616 134.668552 
L 343.824658 150.456177 
L 342.813699 133.217996 
L 341.80274 112.451703 
L 340.791781 145.388986 
L 339.780822 149.910775 
L 338.769863 140.879904 
L 337.758904 154.761525 
L 336.747945 158.326743 
L 335.736986 122.998856 
L 334.726027 151.411267 
L 333.715068 133.086678 
L 332.70411 150.509237 
L 331.693151 140.570395 
L 330.682192 148.641328 
L 329.671233 150.04713 
L 328.660274 135.321289 
L 327.649315 130.901662 
L 326.638356 44.215821 
L 325.627397 48.396702 
L 324.616438 38.97713 
L 323.605479 120.182092 
L 322.594521 127.945982 
L 321.583562 127.317375 
L 320.572603 112.159679 
L 319.561644 55.126432 
L 318.550685 90.13739 
L 317.539726 105.932244 
L 316.528767 118.054637 
L 315.517808 144.184981 
L 314.506849 133.663882 
L 313.49589 131.1864 
L 312.484932 77.781959 
L 311.473973 62.993072 
L 310.463014 124.885783 
L 309.452055 89.681272 
L 308.441096 11.011416 
L 307.430137 42.340637 
L 306.419178 119.390676 
L 305.408219 60.165783 
L 304.39726 113.669292 
L 303.386301 114.587018 
L 302.375342 139.858606 
L 301.364384 -22.678672 
L 300.353425 97.175973 
L 299.342466 124.695532 
L 298.331507 92.805126 
L 297.320548 116.290424 
L 296.309589 84.915226 
L 295.29863 138.012863 
L 294.287671 124.43797 
L 293.276712 136.682364 
L 292.265753 136.130025 
L 291.254795 61.273262 
L 290.243836 63.09404 
L 289.232877 104.391386 
L 288.221918 107.517959 
L 287.210959 105.395517 
L 286.2 115.182639 
L 285.189041 115.189119 
L 284.178082 138.174102 
L 283.167123 127.2164 
L 282.156164 137.479155 
L 281.145205 130.384229 
L 280.134247 149.409778 
L 279.123288 142.907665 
L 278.112329 135.057121 
L 277.10137 130.129585 
L 276.090411 139.476754 
L 275.079452 162.342137 
L 274.068493 153.626899 
L 273.057534 156.722059 
L 272.046575 153.247738 
L 271.035616 162.160025 
L 270.024658 154.785068 
L 269.013699 158.549282 
L 268.00274 161.633784 
L 266.991781 159.76698 
L 265.980822 160.107807 
L 264.969863 165.528967 
L 263.958904 154.797816 
L 262.947945 163.75275 
L 261.936986 165.22846 
L 260.926027 164.822076 
L 259.915068 161.646606 
L 258.90411 159.609474 
L 257.893151 162.995666 
L 256.882192 161.886802 
L 255.871233 147.79368 
L 254.860274 166.873392 
L 253.849315 163.080216 
L 252.838356 168.72408 
L 251.827397 165.7773 
L 250.816438 166.489809 
L 249.805479 163.888056 
L 248.794521 168.28344 
L 247.783562 164.4003 
L 246.772603 160.81704 
L 245.761644 170.63352 
L 244.750685 166.34952 
L 243.739726 163.896812 
L 242.728767 161.468208 
L 241.717808 148.932 
L 240.706849 156.6432 
L 239.69589 159.01776 
L 238.684932 158.112 
L 237.673973 163.38438 
L 236.663014 163.348837 
L 235.652055 164.412103 
L 234.641096 165.720909 
L 233.630137 162.396 
L 232.619178 148.89528 
L 231.608219 150.35184 
L 230.59726 167.189184 
L 229.586301 155.830464 
L 228.575342 158.55264 
L 227.564384 160.61814 
L 225.542466 166.66776 
L 224.531507 169.42176 
L 223.520548 166.22712 
L 222.509589 162.81675 
L 221.49863 140.103463 
L 220.487671 128.69469 
L 219.476712 162.18333 
L 218.465753 165.56616 
L 217.454795 166.77792 
L 216.443836 156.79824 
L 215.432877 163.008 
L 214.421918 152.71008 
L 213.410959 156.738672 
L 212.4 165.89664 
L 211.389041 159.98472 
L 210.378082 145.60884 
L 209.367123 167.76936 
L 208.356164 144.32976 
L 207.345205 167.74896 
L 206.334247 163.12428 
L 205.323288 168.47928 
L 203.30137 163.2528 
L 201.279452 169.20144 
L 200.268493 168.254064 
L 195.213699 168.09984 
L 194.20274 167.73264 
L 193.191781 166.41072 
L 189.147945 166.48416 
L 187.126027 171.95544 
L 186.115068 169.587 
L 185.10411 166.31892 
L 184.093151 167.58576 
L 180.049315 169.27488 
L 179.038356 171.3312 
L 178.027397 166.99824 
L 173.983562 170.505 
L 172.972603 167.45112 
L 171.961644 168.98112 
L 170.950685 159.25032 
L 167.917808 160.9272 
L 166.906849 165.815856 
L 165.89589 168.47622 
L 164.884932 163.8954 
L 163.873973 171.12924 
L 162.863014 172.10232 
L 161.852055 168.79752 
L 160.841096 164.68488 
L 159.830137 161.091566 
L 158.819178 161.86968 
L 157.808219 156.75336 
L 154.775342 170.85384 
L 153.764384 170.97624 
L 152.753425 137.21832 
L 151.742466 162.9774 
L 150.731507 162.89478 
L 149.720548 148.49136 
L 148.709589 170.48664 
L 147.69863 168.83424 
L 146.687671 143.960112 
L 145.676712 170.30304 
L 144.665753 163.28952 
L 143.654795 165.05208 
L 142.643836 163.19772 
L 141.632877 170.89056 
L 140.621918 163.0692 
L 138.6 166.58973 
L 137.589041 168.8067 
L 136.578082 163.294766 
L 135.567123 163.53432 
L 134.556164 164.64816 
L 132.534247 161.12304 
L 131.523288 161.85132 
L 130.512329 159.52776 
L 128.490411 162.73872 
L 126.468493 170.70696 
L 125.457534 163.0692 
L 124.446575 162.9009 
L 123.435616 162.97536 
L 122.424658 155.233152 
L 121.413699 167.8428 
L 118.380822 58.45392 
L 117.369863 142.645536 
L 116.358904 159.65883 
L 115.347945 163.64448 
L 114.336986 161.6922 
L 112.315068 171.62496 
L 111.30411 156.870864 
L 110.293151 151.88184 
L 109.282192 162.40212 
L 108.271233 127.456046 
L 105.238356 140.04576 
L 104.227397 122.62212 
L 103.216438 110.401704 
L 102.205479 141.895113 
L 101.194521 109.53144 
L 100.183562 105.2964 
L 97.150685 84.75768 
L 96.139726 120.99624 
L 95.128767 136.657029 
L 94.117808 105.34536 
z
" style="fill:#008000;fill-opacity:0.3;"/>
   </g>
   <g id="matplotlib.axis_1">
    <g id="xtick_1">
     <g id="line2d_1">
      <path clip-path="url(#p8e5da54d8e)" d="M 64.8 172.8 
L 64.8 25.92 
" style="fill:none;stroke:#808080;stroke-dasharray:6.4,1.6,1,1.6;stroke-dashoffset:0;stroke-opacity:0.3;"/>
     </g>
     <g id="line2d_2">
      <defs>
       <path d="M 0 0 
L 0 3.5 
" id="m513a1504fa" style="stroke:#000000;stroke-width:0.8;"/>
      </defs>
      <g>
       <use style="stroke:#000000;stroke-width:0.8;" x="64.8" xlink:href="#m513a1504fa" y="172.8"/>
      </g>
     </g>
     <g id="text_1">
      <!-- 2020-03 -->
      <g transform="translate(43.908594 187.398438)scale(0.1 -0.1)">
       <defs>
        <path d="M 19.1875 8.296875 
L 53.609375 8.296875 
L 53.609375 0 
L 7.328125 0 
L 7.328125 8.296875 
Q 12.9375 14.109375 22.625 23.890625 
Q 32.328125 33.6875 34.8125 36.53125 
Q 39.546875 41.84375 41.421875 45.53125 
Q 43.3125 49.21875 43.3125 52.78125 
Q 43.3125 58.59375 39.234375 62.25 
Q 35.15625 65.921875 28.609375 65.921875 
Q 23.96875 65.921875 18.8125 64.3125 
Q 13.671875 62.703125 7.8125 59.421875 
L 7.8125 69.390625 
Q 13.765625 71.78125 18.9375 73 
Q 24.125 74.21875 28.421875 74.21875 
Q 39.75 74.21875 46.484375 68.546875 
Q 53.21875 62.890625 53.21875 53.421875 
Q 53.21875 48.921875 51.53125 44.890625 
Q 49.859375 40.875 45.40625 35.40625 
Q 44.1875 33.984375 37.640625 27.21875 
Q 31.109375 20.453125 19.1875 8.296875 
z
" id="DejaVuSans-50"/>
        <path d="M 31.78125 66.40625 
Q 24.171875 66.40625 20.328125 58.90625 
Q 16.5 51.421875 16.5 36.375 
Q 16.5 21.390625 20.328125 13.890625 
Q 24.171875 6.390625 31.78125 6.390625 
Q 39.453125 6.390625 43.28125 13.890625 
Q 47.125 21.390625 47.125 36.375 
Q 47.125 51.421875 43.28125 58.90625 
Q 39.453125 66.40625 31.78125 66.40625 
z
M 31.78125 74.21875 
Q 44.046875 74.21875 50.515625 64.515625 
Q 56.984375 54.828125 56.984375 36.375 
Q 56.984375 17.96875 50.515625 8.265625 
Q 44.046875 -1.421875 31.78125 -1.421875 
Q 19.53125 -1.421875 13.0625 8.265625 
Q 6.59375 17.96875 6.59375 36.375 
Q 6.59375 54.828125 13.0625 64.515625 
Q 19.53125 74.21875 31.78125 74.21875 
z
" id="DejaVuSans-48"/>
        <path d="M 4.890625 31.390625 
L 31.203125 31.390625 
L 31.203125 23.390625 
L 4.890625 23.390625 
z
" id="DejaVuSans-45"/>
        <path d="M 40.578125 39.3125 
Q 47.65625 37.796875 51.625 33 
Q 55.609375 28.21875 55.609375 21.1875 
Q 55.609375 10.40625 48.1875 4.484375 
Q 40.765625 -1.421875 27.09375 -1.421875 
Q 22.515625 -1.421875 17.65625 -0.515625 
Q 12.796875 0.390625 7.625 2.203125 
L 7.625 11.71875 
Q 11.71875 9.328125 16.59375 8.109375 
Q 21.484375 6.890625 26.8125 6.890625 
Q 36.078125 6.890625 40.9375 10.546875 
Q 45.796875 14.203125 45.796875 21.1875 
Q 45.796875 27.640625 41.28125 31.265625 
Q 36.765625 34.90625 28.71875 34.90625 
L 20.21875 34.90625 
L 20.21875 43.015625 
L 29.109375 43.015625 
Q 36.375 43.015625 40.234375 45.921875 
Q 44.09375 48.828125 44.09375 54.296875 
Q 44.09375 59.90625 40.109375 62.90625 
Q 36.140625 65.921875 28.71875 65.921875 
Q 24.65625 65.921875 20.015625 65.03125 
Q 15.375 64.15625 9.8125 62.3125 
L 9.8125 71.09375 
Q 15.4375 72.65625 20.34375 73.4375 
Q 25.25 74.21875 29.59375 74.21875 
Q 40.828125 74.21875 47.359375 69.109375 
Q 53.90625 64.015625 53.90625 55.328125 
Q 53.90625 49.265625 50.4375 45.09375 
Q 46.96875 40.921875 40.578125 39.3125 
z
" id="DejaVuSans-51"/>
       </defs>
       <use xlink:href="#DejaVuSans-50"/>
       <use x="63.623047" xlink:href="#DejaVuSans-48"/>
       <use x="127.246094" xlink:href="#DejaVuSans-50"/>
       <use x="190.869141" xlink:href="#DejaVuSans-48"/>
       <use x="254.492188" xlink:href="#DejaVuSans-45"/>
       <use x="290.576172" xlink:href="#DejaVuSans-48"/>
       <use x="354.199219" xlink:href="#DejaVuSans-51"/>
      </g>
     </g>
    </g>
    <g id="xtick_2">
     <g id="line2d_3">
      <path clip-path="url(#p8e5da54d8e)" d="M 126.468493 172.8 
L 126.468493 25.92 
" style="fill:none;stroke:#808080;stroke-dasharray:6.4,1.6,1,1.6;stroke-dashoffset:0;stroke-opacity:0.3;"/>
     </g>
     <g id="line2d_4">
      <g>
       <use style="stroke:#000000;stroke-width:0.8;" x="126.468493" xlink:href="#m513a1504fa" y="172.8"/>
      </g>
     </g>
     <g id="text_2">
      <!-- 2020-05 -->
      <g transform="translate(105.577087 187.398438)scale(0.1 -0.1)">
       <defs>
        <path d="M 10.796875 72.90625 
L 49.515625 72.90625 
L 49.515625 64.59375 
L 19.828125 64.59375 
L 19.828125 46.734375 
Q 21.96875 47.46875 24.109375 47.828125 
Q 26.265625 48.1875 28.421875 48.1875 
Q 40.625 48.1875 47.75 41.5 
Q 54.890625 34.8125 54.890625 23.390625 
Q 54.890625 11.625 47.5625 5.09375 
Q 40.234375 -1.421875 26.90625 -1.421875 
Q 22.3125 -1.421875 17.546875 -0.640625 
Q 12.796875 0.140625 7.71875 1.703125 
L 7.71875 11.625 
Q 12.109375 9.234375 16.796875 8.0625 
Q 21.484375 6.890625 26.703125 6.890625 
Q 35.15625 6.890625 40.078125 11.328125 
Q 45.015625 15.765625 45.015625 23.390625 
Q 45.015625 31 40.078125 35.4375 
Q 35.15625 39.890625 26.703125 39.890625 
Q 22.75 39.890625 18.8125 39.015625 
Q 14.890625 38.140625 10.796875 36.28125 
z
" id="DejaVuSans-53"/>
       </defs>
       <use xlink:href="#DejaVuSans-50"/>
       <use x="63.623047" xlink:href="#DejaVuSans-48"/>
       <use x="127.246094" xlink:href="#DejaVuSans-50"/>
       <use x="190.869141" xlink:href="#DejaVuSans-48"/>
       <use x="254.492188" xlink:href="#DejaVuSans-45"/>
       <use x="290.576172" xlink:href="#DejaVuSans-48"/>
       <use x="354.199219" xlink:href="#DejaVuSans-53"/>
      </g>
     </g>
    </g>
    <g id="xtick_3">
     <g id="line2d_5">
      <path clip-path="url(#p8e5da54d8e)" d="M 188.136986 172.8 
L 188.136986 25.92 
" style="fill:none;stroke:#808080;stroke-dasharray:6.4,1.6,1,1.6;stroke-dashoffset:0;stroke-opacity:0.3;"/>
     </g>
     <g id="line2d_6">
      <g>
       <use style="stroke:#000000;stroke-width:0.8;" x="188.136986" xlink:href="#m513a1504fa" y="172.8"/>
      </g>
     </g>
     <g id="text_3">
      <!-- 2020-07 -->
      <g transform="translate(167.24558 187.398438)scale(0.1 -0.1)">
       <defs>
        <path d="M 8.203125 72.90625 
L 55.078125 72.90625 
L 55.078125 68.703125 
L 28.609375 0 
L 18.3125 0 
L 43.21875 64.59375 
L 8.203125 64.59375 
z
" id="DejaVuSans-55"/>
       </defs>
       <use xlink:href="#DejaVuSans-50"/>
       <use x="63.623047" xlink:href="#DejaVuSans-48"/>
       <use x="127.246094" xlink:href="#DejaVuSans-50"/>
       <use x="190.869141" xlink:href="#DejaVuSans-48"/>
       <use x="254.492188" xlink:href="#DejaVuSans-45"/>
       <use x="290.576172" xlink:href="#DejaVuSans-48"/>
       <use x="354.199219" xlink:href="#DejaVuSans-55"/>
      </g>
     </g>
    </g>
    <g id="xtick_4">
     <g id="line2d_7">
      <path clip-path="url(#p8e5da54d8e)" d="M 250.816438 172.8 
L 250.816438 25.92 
" style="fill:none;stroke:#808080;stroke-dasharray:6.4,1.6,1,1.6;stroke-dashoffset:0;stroke-opacity:0.3;"/>
     </g>
     <g id="line2d_8">
      <g>
       <use style="stroke:#000000;stroke-width:0.8;" x="250.816438" xlink:href="#m513a1504fa" y="172.8"/>
      </g>
     </g>
     <g id="text_4">
      <!-- 2020-09 -->
      <g transform="translate(229.925032 187.398438)scale(0.1 -0.1)">
       <defs>
        <path d="M 10.984375 1.515625 
L 10.984375 10.5 
Q 14.703125 8.734375 18.5 7.8125 
Q 22.3125 6.890625 25.984375 6.890625 
Q 35.75 6.890625 40.890625 13.453125 
Q 46.046875 20.015625 46.78125 33.40625 
Q 43.953125 29.203125 39.59375 26.953125 
Q 35.25 24.703125 29.984375 24.703125 
Q 19.046875 24.703125 12.671875 31.3125 
Q 6.296875 37.9375 6.296875 49.421875 
Q 6.296875 60.640625 12.9375 67.421875 
Q 19.578125 74.21875 30.609375 74.21875 
Q 43.265625 74.21875 49.921875 64.515625 
Q 56.59375 54.828125 56.59375 36.375 
Q 56.59375 19.140625 48.40625 8.859375 
Q 40.234375 -1.421875 26.421875 -1.421875 
Q 22.703125 -1.421875 18.890625 -0.6875 
Q 15.09375 0.046875 10.984375 1.515625 
z
M 30.609375 32.421875 
Q 37.25 32.421875 41.125 36.953125 
Q 45.015625 41.5 45.015625 49.421875 
Q 45.015625 57.28125 41.125 61.84375 
Q 37.25 66.40625 30.609375 66.40625 
Q 23.96875 66.40625 20.09375 61.84375 
Q 16.21875 57.28125 16.21875 49.421875 
Q 16.21875 41.5 20.09375 36.953125 
Q 23.96875 32.421875 30.609375 32.421875 
z
" id="DejaVuSans-57"/>
       </defs>
       <use xlink:href="#DejaVuSans-50"/>
       <use x="63.623047" xlink:href="#DejaVuSans-48"/>
       <use x="127.246094" xlink:href="#DejaVuSans-50"/>
       <use x="190.869141" xlink:href="#DejaVuSans-48"/>
       <use x="254.492188" xlink:href="#DejaVuSans-45"/>
       <use x="290.576172" xlink:href="#DejaVuSans-48"/>
       <use x="354.199219" xlink:href="#DejaVuSans-57"/>
      </g>
     </g>
    </g>
    <g id="xtick_5">
     <g id="line2d_9">
      <path clip-path="url(#p8e5da54d8e)" d="M 312.484932 172.8 
L 312.484932 25.92 
" style="fill:none;stroke:#808080;stroke-dasharray:6.4,1.6,1,1.6;stroke-dashoffset:0;stroke-opacity:0.3;"/>
     </g>
     <g id="line2d_10">
      <g>
       <use style="stroke:#000000;stroke-width:0.8;" x="312.484932" xlink:href="#m513a1504fa" y="172.8"/>
      </g>
     </g>
     <g id="text_5">
      <!-- 2020-11 -->
      <g transform="translate(291.593525 187.398438)scale(0.1 -0.1)">
       <defs>
        <path d="M 12.40625 8.296875 
L 28.515625 8.296875 
L 28.515625 63.921875 
L 10.984375 60.40625 
L 10.984375 69.390625 
L 28.421875 72.90625 
L 38.28125 72.90625 
L 38.28125 8.296875 
L 54.390625 8.296875 
L 54.390625 0 
L 12.40625 0 
z
" id="DejaVuSans-49"/>
       </defs>
       <use xlink:href="#DejaVuSans-50"/>
       <use x="63.623047" xlink:href="#DejaVuSans-48"/>
       <use x="127.246094" xlink:href="#DejaVuSans-50"/>
       <use x="190.869141" xlink:href="#DejaVuSans-48"/>
       <use x="254.492188" xlink:href="#DejaVuSans-45"/>
       <use x="290.576172" xlink:href="#DejaVuSans-49"/>
       <use x="354.199219" xlink:href="#DejaVuSans-49"/>
      </g>
     </g>
    </g>
    <g id="xtick_6">
     <g id="line2d_11">
      <path clip-path="url(#p8e5da54d8e)" d="M 374.153425 172.8 
L 374.153425 25.92 
" style="fill:none;stroke:#808080;stroke-dasharray:6.4,1.6,1,1.6;stroke-dashoffset:0;stroke-opacity:0.3;"/>
     </g>
     <g id="line2d_12">
      <g>
       <use style="stroke:#000000;stroke-width:0.8;" x="374.153425" xlink:href="#m513a1504fa" y="172.8"/>
      </g>
     </g>
     <g id="text_6">
      <!-- 2021-01 -->
      <g transform="translate(353.262018 187.398438)scale(0.1 -0.1)">
       <use xlink:href="#DejaVuSans-50"/>
       <use x="63.623047" xlink:href="#DejaVuSans-48"/>
       <use x="127.246094" xlink:href="#DejaVuSans-50"/>
       <use x="190.869141" xlink:href="#DejaVuSans-49"/>
       <use x="254.492188" xlink:href="#DejaVuSans-45"/>
       <use x="290.576172" xlink:href="#DejaVuSans-48"/>
       <use x="354.199219" xlink:href="#DejaVuSans-49"/>
      </g>
     </g>
    </g>
    <g id="xtick_7">
     <g id="line2d_13">
      <path clip-path="url(#p8e5da54d8e)" d="M 433.8 172.8 
L 433.8 25.92 
" style="fill:none;stroke:#808080;stroke-dasharray:6.4,1.6,1,1.6;stroke-dashoffset:0;stroke-opacity:0.3;"/>
     </g>
     <g id="line2d_14">
      <g>
       <use style="stroke:#000000;stroke-width:0.8;" x="433.8" xlink:href="#m513a1504fa" y="172.8"/>
      </g>
     </g>
     <g id="text_7">
      <!-- 2021-03 -->
      <g transform="translate(412.908594 187.398438)scale(0.1 -0.1)">
       <use xlink:href="#DejaVuSans-50"/>
       <use x="63.623047" xlink:href="#DejaVuSans-48"/>
       <use x="127.246094" xlink:href="#DejaVuSans-50"/>
       <use x="190.869141" xlink:href="#DejaVuSans-49"/>
       <use x="254.492188" xlink:href="#DejaVuSans-45"/>
       <use x="290.576172" xlink:href="#DejaVuSans-48"/>
       <use x="354.199219" xlink:href="#DejaVuSans-51"/>
      </g>
     </g>
    </g>
    <g id="xtick_8">
     <g id="line2d_15">
      <path clip-path="url(#p8e5da54d8e)" d="M 495.468493 172.8 
L 495.468493 25.92 
" style="fill:none;stroke:#808080;stroke-dasharray:6.4,1.6,1,1.6;stroke-dashoffset:0;stroke-opacity:0.3;"/>
     </g>
     <g id="line2d_16">
      <g>
       <use style="stroke:#000000;stroke-width:0.8;" x="495.468493" xlink:href="#m513a1504fa" y="172.8"/>
      </g>
     </g>
     <g id="text_8">
      <!-- 2021-05 -->
      <g transform="translate(474.577087 187.398438)scale(0.1 -0.1)">
       <use xlink:href="#DejaVuSans-50"/>
       <use x="63.623047" xlink:href="#DejaVuSans-48"/>
       <use x="127.246094" xlink:href="#DejaVuSans-50"/>
       <use x="190.869141" xlink:href="#DejaVuSans-49"/>
       <use x="254.492188" xlink:href="#DejaVuSans-45"/>
       <use x="290.576172" xlink:href="#DejaVuSans-48"/>
       <use x="354.199219" xlink:href="#DejaVuSans-53"/>
      </g>
     </g>
    </g>
    <g id="xtick_9">
     <g id="line2d_17">
      <path clip-path="url(#p8e5da54d8e)" d="M 557.136986 172.8 
L 557.136986 25.92 
" style="fill:none;stroke:#808080;stroke-dasharray:6.4,1.6,1,1.6;stroke-dashoffset:0;stroke-opacity:0.3;"/>
     </g>
     <g id="line2d_18">
      <g>
       <use style="stroke:#000000;stroke-width:0.8;" x="557.136986" xlink:href="#m513a1504fa" y="172.8"/>
      </g>
     </g>
     <g id="text_9">
      <!-- 2021-07 -->
      <g transform="translate(536.24558 187.398438)scale(0.1 -0.1)">
       <use xlink:href="#DejaVuSans-50"/>
       <use x="63.623047" xlink:href="#DejaVuSans-48"/>
       <use x="127.246094" xlink:href="#DejaVuSans-50"/>
       <use x="190.869141" xlink:href="#DejaVuSans-49"/>
       <use x="254.492188" xlink:href="#DejaVuSans-45"/>
       <use x="290.576172" xlink:href="#DejaVuSans-48"/>
       <use x="354.199219" xlink:href="#DejaVuSans-55"/>
      </g>
     </g>
    </g>
    <g id="xtick_10">
     <g id="line2d_19">
      <path clip-path="url(#p8e5da54d8e)" d="M 619.816438 172.8 
L 619.816438 25.92 
" style="fill:none;stroke:#808080;stroke-dasharray:6.4,1.6,1,1.6;stroke-dashoffset:0;stroke-opacity:0.3;"/>
     </g>
     <g id="line2d_20">
      <g>
       <use style="stroke:#000000;stroke-width:0.8;" x="619.816438" xlink:href="#m513a1504fa" y="172.8"/>
      </g>
     </g>
     <g id="text_10">
      <!-- 2021-09 -->
      <g transform="translate(598.925032 187.398438)scale(0.1 -0.1)">
       <use xlink:href="#DejaVuSans-50"/>
       <use x="63.623047" xlink:href="#DejaVuSans-48"/>
       <use x="127.246094" xlink:href="#DejaVuSans-50"/>
       <use x="190.869141" xlink:href="#DejaVuSans-49"/>
       <use x="254.492188" xlink:href="#DejaVuSans-45"/>
       <use x="290.576172" xlink:href="#DejaVuSans-48"/>
       <use x="354.199219" xlink:href="#DejaVuSans-57"/>
      </g>
     </g>
    </g>
    <g id="text_11">
     <!-- Datum -->
     <g transform="translate(343.086719 201.076562)scale(0.1 -0.1)">
      <defs>
       <path d="M 19.671875 64.796875 
L 19.671875 8.109375 
L 31.59375 8.109375 
Q 46.6875 8.109375 53.6875 14.9375 
Q 60.6875 21.78125 60.6875 36.53125 
Q 60.6875 51.171875 53.6875 57.984375 
Q 46.6875 64.796875 31.59375 64.796875 
z
M 9.8125 72.90625 
L 30.078125 72.90625 
Q 51.265625 72.90625 61.171875 64.09375 
Q 71.09375 55.28125 71.09375 36.53125 
Q 71.09375 17.671875 61.125 8.828125 
Q 51.171875 0 30.078125 0 
L 9.8125 0 
z
" id="DejaVuSans-68"/>
       <path d="M 34.28125 27.484375 
Q 23.390625 27.484375 19.1875 25 
Q 14.984375 22.515625 14.984375 16.5 
Q 14.984375 11.71875 18.140625 8.90625 
Q 21.296875 6.109375 26.703125 6.109375 
Q 34.1875 6.109375 38.703125 11.40625 
Q 43.21875 16.703125 43.21875 25.484375 
L 43.21875 27.484375 
z
M 52.203125 31.203125 
L 52.203125 0 
L 43.21875 0 
L 43.21875 8.296875 
Q 40.140625 3.328125 35.546875 0.953125 
Q 30.953125 -1.421875 24.3125 -1.421875 
Q 15.921875 -1.421875 10.953125 3.296875 
Q 6 8.015625 6 15.921875 
Q 6 25.140625 12.171875 29.828125 
Q 18.359375 34.515625 30.609375 34.515625 
L 43.21875 34.515625 
L 43.21875 35.40625 
Q 43.21875 41.609375 39.140625 45 
Q 35.0625 48.390625 27.6875 48.390625 
Q 23 48.390625 18.546875 47.265625 
Q 14.109375 46.140625 10.015625 43.890625 
L 10.015625 52.203125 
Q 14.9375 54.109375 19.578125 55.046875 
Q 24.21875 56 28.609375 56 
Q 40.484375 56 46.34375 49.84375 
Q 52.203125 43.703125 52.203125 31.203125 
z
" id="DejaVuSans-97"/>
       <path d="M 18.3125 70.21875 
L 18.3125 54.6875 
L 36.8125 54.6875 
L 36.8125 47.703125 
L 18.3125 47.703125 
L 18.3125 18.015625 
Q 18.3125 11.328125 20.140625 9.421875 
Q 21.96875 7.515625 27.59375 7.515625 
L 36.8125 7.515625 
L 36.8125 0 
L 27.59375 0 
Q 17.1875 0 13.234375 3.875 
Q 9.28125 7.765625 9.28125 18.015625 
L 9.28125 47.703125 
L 2.6875 47.703125 
L 2.6875 54.6875 
L 9.28125 54.6875 
L 9.28125 70.21875 
z
" id="DejaVuSans-116"/>
       <path d="M 8.5 21.578125 
L 8.5 54.6875 
L 17.484375 54.6875 
L 17.484375 21.921875 
Q 17.484375 14.15625 20.5 10.265625 
Q 23.53125 6.390625 29.59375 6.390625 
Q 36.859375 6.390625 41.078125 11.03125 
Q 45.3125 15.671875 45.3125 23.6875 
L 45.3125 54.6875 
L 54.296875 54.6875 
L 54.296875 0 
L 45.3125 0 
L 45.3125 8.40625 
Q 42.046875 3.421875 37.71875 1 
Q 33.40625 -1.421875 27.6875 -1.421875 
Q 18.265625 -1.421875 13.375 4.4375 
Q 8.5 10.296875 8.5 21.578125 
z
M 31.109375 56 
z
" id="DejaVuSans-117"/>
       <path d="M 52 44.1875 
Q 55.375 50.25 60.0625 53.125 
Q 64.75 56 71.09375 56 
Q 79.640625 56 84.28125 50.015625 
Q 88.921875 44.046875 88.921875 33.015625 
L 88.921875 0 
L 79.890625 0 
L 79.890625 32.71875 
Q 79.890625 40.578125 77.09375 44.375 
Q 74.3125 48.1875 68.609375 48.1875 
Q 61.625 48.1875 57.5625 43.546875 
Q 53.515625 38.921875 53.515625 30.90625 
L 53.515625 0 
L 44.484375 0 
L 44.484375 32.71875 
Q 44.484375 40.625 41.703125 44.40625 
Q 38.921875 48.1875 33.109375 48.1875 
Q 26.21875 48.1875 22.15625 43.53125 
Q 18.109375 38.875 18.109375 30.90625 
L 18.109375 0 
L 9.078125 0 
L 9.078125 54.6875 
L 18.109375 54.6875 
L 18.109375 46.1875 
Q 21.1875 51.21875 25.484375 53.609375 
Q 29.78125 56 35.6875 56 
Q 41.65625 56 45.828125 52.96875 
Q 50 49.953125 52 44.1875 
z
" id="DejaVuSans-109"/>
      </defs>
      <use xlink:href="#DejaVuSans-68"/>
      <use x="77.001953" xlink:href="#DejaVuSans-97"/>
      <use x="138.28125" xlink:href="#DejaVuSans-116"/>
      <use x="177.490234" xlink:href="#DejaVuSans-117"/>
      <use x="240.869141" xlink:href="#DejaVuSans-109"/>
     </g>
    </g>
   </g>
   <g id="matplotlib.axis_2">
    <g id="ytick_1">
     <g id="line2d_21">
      <path clip-path="url(#p8e5da54d8e)" d="M 64.8 172.8 
L 655.2 172.8 
" style="fill:none;stroke:#808080;stroke-dasharray:6.4,1.6,1,1.6;stroke-dashoffset:0;stroke-opacity:0.3;"/>
     </g>
     <g id="line2d_22">
      <defs>
       <path d="M 0 0 
L -3.5 0 
" id="m3b84cce483" style="stroke:#000000;stroke-width:0.8;"/>
      </defs>
      <g>
       <use style="stroke:#000000;stroke-width:0.8;" x="64.8" xlink:href="#m3b84cce483" y="172.8"/>
      </g>
     </g>
     <g id="text_12">
      <!-- 0 -->
      <g transform="translate(51.4375 176.599219)scale(0.1 -0.1)">
       <use xlink:href="#DejaVuSans-48"/>
      </g>
     </g>
    </g>
    <g id="ytick_2">
     <g id="line2d_23">
      <path clip-path="url(#p8e5da54d8e)" d="M 64.8 136.08 
L 655.2 136.08 
" style="fill:none;stroke:#808080;stroke-dasharray:6.4,1.6,1,1.6;stroke-dashoffset:0;stroke-opacity:0.3;"/>
     </g>
     <g id="line2d_24">
      <g>
       <use style="stroke:#000000;stroke-width:0.8;" x="64.8" xlink:href="#m3b84cce483" y="136.08"/>
      </g>
     </g>
     <g id="text_13">
      <!-- 1000 -->
      <g transform="translate(32.35 139.879219)scale(0.1 -0.1)">
       <use xlink:href="#DejaVuSans-49"/>
       <use x="63.623047" xlink:href="#DejaVuSans-48"/>
       <use x="127.246094" xlink:href="#DejaVuSans-48"/>
       <use x="190.869141" xlink:href="#DejaVuSans-48"/>
      </g>
     </g>
    </g>
    <g id="ytick_3">
     <g id="line2d_25">
      <path clip-path="url(#p8e5da54d8e)" d="M 64.8 99.36 
L 655.2 99.36 
" style="fill:none;stroke:#808080;stroke-dasharray:6.4,1.6,1,1.6;stroke-dashoffset:0;stroke-opacity:0.3;"/>
     </g>
     <g id="line2d_26">
      <g>
       <use style="stroke:#000000;stroke-width:0.8;" x="64.8" xlink:href="#m3b84cce483" y="99.36"/>
      </g>
     </g>
     <g id="text_14">
      <!-- 2000 -->
      <g transform="translate(32.35 103.159219)scale(0.1 -0.1)">
       <use xlink:href="#DejaVuSans-50"/>
       <use x="63.623047" xlink:href="#DejaVuSans-48"/>
       <use x="127.246094" xlink:href="#DejaVuSans-48"/>
       <use x="190.869141" xlink:href="#DejaVuSans-48"/>
      </g>
     </g>
    </g>
    <g id="ytick_4">
     <g id="line2d_27">
      <path clip-path="url(#p8e5da54d8e)" d="M 64.8 62.64 
L 655.2 62.64 
" style="fill:none;stroke:#808080;stroke-dasharray:6.4,1.6,1,1.6;stroke-dashoffset:0;stroke-opacity:0.3;"/>
     </g>
     <g id="line2d_28">
      <g>
       <use style="stroke:#000000;stroke-width:0.8;" x="64.8" xlink:href="#m3b84cce483" y="62.64"/>
      </g>
     </g>
     <g id="text_15">
      <!-- 3000 -->
      <g transform="translate(32.35 66.439219)scale(0.1 -0.1)">
       <use xlink:href="#DejaVuSans-51"/>
       <use x="63.623047" xlink:href="#DejaVuSans-48"/>
       <use x="127.246094" xlink:href="#DejaVuSans-48"/>
       <use x="190.869141" xlink:href="#DejaVuSans-48"/>
      </g>
     </g>
    </g>
    <g id="ytick_5">
     <g id="line2d_29">
      <path clip-path="url(#p8e5da54d8e)" d="M 64.8 25.92 
L 655.2 25.92 
" style="fill:none;stroke:#808080;stroke-dasharray:6.4,1.6,1,1.6;stroke-dashoffset:0;stroke-opacity:0.3;"/>
     </g>
     <g id="line2d_30">
      <g>
       <use style="stroke:#000000;stroke-width:0.8;" x="64.8" xlink:href="#m3b84cce483" y="25.92"/>
      </g>
     </g>
     <g id="text_16">
      <!-- 4000 -->
      <g transform="translate(32.35 29.719219)scale(0.1 -0.1)">
       <defs>
        <path d="M 37.796875 64.3125 
L 12.890625 25.390625 
L 37.796875 25.390625 
z
M 35.203125 72.90625 
L 47.609375 72.90625 
L 47.609375 25.390625 
L 58.015625 25.390625 
L 58.015625 17.1875 
L 47.609375 17.1875 
L 47.609375 0 
L 37.796875 0 
L 37.796875 17.1875 
L 4.890625 17.1875 
L 4.890625 26.703125 
z
" id="DejaVuSans-52"/>
       </defs>
       <use xlink:href="#DejaVuSans-52"/>
       <use x="63.623047" xlink:href="#DejaVuSans-48"/>
       <use x="127.246094" xlink:href="#DejaVuSans-48"/>
       <use x="190.869141" xlink:href="#DejaVuSans-48"/>
      </g>
     </g>
    </g>
    <g id="text_17">
     <!-- RNA per milliliter -->
     <g transform="translate(26.270312 141.776406)rotate(-90)scale(0.1 -0.1)">
      <defs>
       <path d="M 44.390625 34.1875 
Q 47.5625 33.109375 50.5625 29.59375 
Q 53.5625 26.078125 56.59375 19.921875 
L 66.609375 0 
L 56 0 
L 46.6875 18.703125 
Q 43.0625 26.03125 39.671875 28.421875 
Q 36.28125 30.8125 30.421875 30.8125 
L 19.671875 30.8125 
L 19.671875 0 
L 9.8125 0 
L 9.8125 72.90625 
L 32.078125 72.90625 
Q 44.578125 72.90625 50.734375 67.671875 
Q 56.890625 62.453125 56.890625 51.90625 
Q 56.890625 45.015625 53.6875 40.46875 
Q 50.484375 35.9375 44.390625 34.1875 
z
M 19.671875 64.796875 
L 19.671875 38.921875 
L 32.078125 38.921875 
Q 39.203125 38.921875 42.84375 42.21875 
Q 46.484375 45.515625 46.484375 51.90625 
Q 46.484375 58.296875 42.84375 61.546875 
Q 39.203125 64.796875 32.078125 64.796875 
z
" id="DejaVuSans-82"/>
       <path d="M 9.8125 72.90625 
L 23.09375 72.90625 
L 55.421875 11.921875 
L 55.421875 72.90625 
L 64.984375 72.90625 
L 64.984375 0 
L 51.703125 0 
L 19.390625 60.984375 
L 19.390625 0 
L 9.8125 0 
z
" id="DejaVuSans-78"/>
       <path d="M 34.1875 63.1875 
L 20.796875 26.90625 
L 47.609375 26.90625 
z
M 28.609375 72.90625 
L 39.796875 72.90625 
L 67.578125 0 
L 57.328125 0 
L 50.6875 18.703125 
L 17.828125 18.703125 
L 11.1875 0 
L 0.78125 0 
z
" id="DejaVuSans-65"/>
       <path id="DejaVuSans-32"/>
       <path d="M 18.109375 8.203125 
L 18.109375 -20.796875 
L 9.078125 -20.796875 
L 9.078125 54.6875 
L 18.109375 54.6875 
L 18.109375 46.390625 
Q 20.953125 51.265625 25.265625 53.625 
Q 29.59375 56 35.59375 56 
Q 45.5625 56 51.78125 48.09375 
Q 58.015625 40.1875 58.015625 27.296875 
Q 58.015625 14.40625 51.78125 6.484375 
Q 45.5625 -1.421875 35.59375 -1.421875 
Q 29.59375 -1.421875 25.265625 0.953125 
Q 20.953125 3.328125 18.109375 8.203125 
z
M 48.6875 27.296875 
Q 48.6875 37.203125 44.609375 42.84375 
Q 40.53125 48.484375 33.40625 48.484375 
Q 26.265625 48.484375 22.1875 42.84375 
Q 18.109375 37.203125 18.109375 27.296875 
Q 18.109375 17.390625 22.1875 11.75 
Q 26.265625 6.109375 33.40625 6.109375 
Q 40.53125 6.109375 44.609375 11.75 
Q 48.6875 17.390625 48.6875 27.296875 
z
" id="DejaVuSans-112"/>
       <path d="M 56.203125 29.59375 
L 56.203125 25.203125 
L 14.890625 25.203125 
Q 15.484375 15.921875 20.484375 11.0625 
Q 25.484375 6.203125 34.421875 6.203125 
Q 39.59375 6.203125 44.453125 7.46875 
Q 49.3125 8.734375 54.109375 11.28125 
L 54.109375 2.78125 
Q 49.265625 0.734375 44.1875 -0.34375 
Q 39.109375 -1.421875 33.890625 -1.421875 
Q 20.796875 -1.421875 13.15625 6.1875 
Q 5.515625 13.8125 5.515625 26.8125 
Q 5.515625 40.234375 12.765625 48.109375 
Q 20.015625 56 32.328125 56 
Q 43.359375 56 49.78125 48.890625 
Q 56.203125 41.796875 56.203125 29.59375 
z
M 47.21875 32.234375 
Q 47.125 39.59375 43.09375 43.984375 
Q 39.0625 48.390625 32.421875 48.390625 
Q 24.90625 48.390625 20.390625 44.140625 
Q 15.875 39.890625 15.1875 32.171875 
z
" id="DejaVuSans-101"/>
       <path d="M 41.109375 46.296875 
Q 39.59375 47.171875 37.8125 47.578125 
Q 36.03125 48 33.890625 48 
Q 26.265625 48 22.1875 43.046875 
Q 18.109375 38.09375 18.109375 28.8125 
L 18.109375 0 
L 9.078125 0 
L 9.078125 54.6875 
L 18.109375 54.6875 
L 18.109375 46.1875 
Q 20.953125 51.171875 25.484375 53.578125 
Q 30.03125 56 36.53125 56 
Q 37.453125 56 38.578125 55.875 
Q 39.703125 55.765625 41.0625 55.515625 
z
" id="DejaVuSans-114"/>
       <path d="M 9.421875 54.6875 
L 18.40625 54.6875 
L 18.40625 0 
L 9.421875 0 
z
M 9.421875 75.984375 
L 18.40625 75.984375 
L 18.40625 64.59375 
L 9.421875 64.59375 
z
" id="DejaVuSans-105"/>
       <path d="M 9.421875 75.984375 
L 18.40625 75.984375 
L 18.40625 0 
L 9.421875 0 
z
" id="DejaVuSans-108"/>
      </defs>
      <use xlink:href="#DejaVuSans-82"/>
      <use x="69.482422" xlink:href="#DejaVuSans-78"/>
      <use x="144.287109" xlink:href="#DejaVuSans-65"/>
      <use x="212.695312" xlink:href="#DejaVuSans-32"/>
      <use x="244.482422" xlink:href="#DejaVuSans-112"/>
      <use x="307.958984" xlink:href="#DejaVuSans-101"/>
      <use x="369.482422" xlink:href="#DejaVuSans-114"/>
      <use x="410.595703" xlink:href="#DejaVuSans-32"/>
      <use x="442.382812" xlink:href="#DejaVuSans-109"/>
      <use x="539.794922" xlink:href="#DejaVuSans-105"/>
      <use x="567.578125" xlink:href="#DejaVuSans-108"/>
      <use x="595.361328" xlink:href="#DejaVuSans-108"/>
      <use x="623.144531" xlink:href="#DejaVuSans-105"/>
      <use x="650.927734" xlink:href="#DejaVuSans-108"/>
      <use x="678.710938" xlink:href="#DejaVuSans-105"/>
      <use x="706.494141" xlink:href="#DejaVuSans-116"/>
      <use x="745.703125" xlink:href="#DejaVuSans-101"/>
      <use x="807.226562" xlink:href="#DejaVuSans-114"/>
     </g>
    </g>
   </g>
   <g id="line2d_31">
    <path clip-path="url(#p8e5da54d8e)" d="M 94.117808 103.123793 
L 97.150685 114.056798 
L 100.183562 117.701133 
L 102.205479 124.989803 
L 105.238356 133.619191 
L 108.271233 136.336357 
L 110.293151 141.38873 
L 111.30411 143.625595 
L 112.315068 145.592298 
L 114.336986 147.280508 
L 115.347945 148.728855 
L 116.358904 149.695497 
L 118.380822 150.972144 
L 121.413699 152.688393 
L 123.435616 155.326756 
L 125.457534 157.40665 
L 126.468493 158.362182 
L 130.512329 159.95208 
L 132.534247 161.67439 
L 134.556164 162.54269 
L 135.567123 163.416014 
L 136.578082 164.076724 
L 138.6 164.112495 
L 141.632877 163.672313 
L 145.676712 162.590757 
L 146.687671 162.208759 
L 150.731507 161.731891 
L 152.753425 161.841881 
L 154.775342 162.515158 
L 157.808219 162.782847 
L 159.830137 163.591017 
L 163.873973 165.422402 
L 165.89589 166.039142 
L 167.917808 166.560692 
L 170.950685 166.707204 
L 173.983562 167.458651 
L 185.10411 167.783819 
L 187.126027 167.595588 
L 189.147945 167.302772 
L 193.191781 166.967543 
L 195.213699 166.110864 
L 200.268493 165.539053 
L 201.279452 164.93145 
L 205.323288 163.627907 
L 207.345205 162.397487 
L 209.367123 160.838887 
L 210.378082 160.093589 
L 212.4 159.253091 
L 214.421918 158.610109 
L 217.454795 158.266573 
L 219.476712 157.89225 
L 220.487671 157.671211 
L 221.49863 157.900352 
L 224.531507 159.020399 
L 225.542466 159.189255 
L 230.59726 159.41877 
L 231.608219 159.394687 
L 232.619178 159.56246 
L 234.641096 160.341951 
L 235.652055 160.499492 
L 238.684932 160.644602 
L 240.706849 161.115556 
L 241.717808 161.463992 
L 243.739726 162.372769 
L 245.761644 163.067941 
L 251.827397 163.540786 
L 253.849315 163.315717 
L 254.860274 163.091281 
L 255.871233 162.729678 
L 260.926027 161.589765 
L 262.947945 160.975817 
L 264.969863 160.000396 
L 266.991781 158.539725 
L 268.00274 157.742313 
L 269.013699 156.790997 
L 271.035616 154.390621 
L 273.057534 151.407616 
L 275.079452 147.584594 
L 277.10137 142.863814 
L 279.123288 137.3214 
L 282.156164 128.930041 
L 287.210959 116.235517 
L 288.221918 114.218227 
L 289.232877 111.754946 
L 290.243836 109.709136 
L 291.254795 108.364678 
L 292.265753 107.766846 
L 294.287671 105.7254 
L 295.29863 104.240574 
L 296.309589 102.001103 
L 298.331507 98.259519 
L 299.342466 96.434949 
L 301.364384 92.36792 
L 302.375342 92.154845 
L 303.386301 91.757504 
L 304.39726 91.07599 
L 305.408219 90.038659 
L 306.419178 89.628167 
L 307.430137 88.93973 
L 308.441096 89.150208 
L 310.463014 92.648757 
L 313.49589 98.130139 
L 314.506849 99.32198 
L 317.539726 100.085848 
L 319.561644 101.486179 
L 320.572603 103.191538 
L 321.583562 104.607596 
L 322.594521 105.478019 
L 323.605479 106.092752 
L 324.616438 106.961025 
L 325.627397 108.656518 
L 326.638356 111.073127 
L 330.682192 125.151263 
L 332.70411 130.907865 
L 336.747945 139.348667 
L 337.758904 141.202573 
L 338.769863 142.234815 
L 339.780822 142.741471 
L 340.791781 142.529119 
L 341.80274 142.124873 
L 343.824658 141.650279 
L 345.846575 140.546113 
L 346.857534 139.817129 
L 349.890411 136.677453 
L 351.912329 133.5692 
L 353.934247 129.944429 
L 355.956164 126.544752 
L 356.967123 125.099424 
L 358.989041 123.203099 
L 360 122.545147 
L 363.032877 121.58388 
L 364.043836 122.129885 
L 365.054795 122.937726 
L 366.065753 124.449255 
L 367.076712 125.455723 
L 370.109589 129.252199 
L 371.120548 130.094687 
L 372.131507 130.777971 
L 375.164384 131.363557 
L 376.175342 131.414226 
L 377.186301 131.276224 
L 378.19726 130.615556 
L 379.208219 129.751945 
L 380.219178 128.130194 
L 381.230137 127.026507 
L 383.252055 124.125035 
L 384.263014 122.351236 
L 385.273973 120.971957 
L 386.284932 119.827449 
L 389.317808 117.024088 
L 390.328767 115.665351 
L 392.350685 113.871822 
L 393.361644 113.864074 
L 394.372603 113.654275 
L 395.383562 113.647877 
L 396.394521 113.868323 
L 397.405479 114.296083 
L 398.416438 114.555787 
L 400.438356 115.447045 
L 401.449315 115.95781 
L 402.460274 116.700299 
L 404.482192 120.618342 
L 405.493151 122.422872 
L 408.526027 126.388192 
L 409.536986 127.549751 
L 411.558904 129.284344 
L 412.569863 129.743402 
L 413.580822 129.82037 
L 414.591781 130.109501 
L 415.60274 130.132344 
L 417.624658 129.084962 
L 419.646575 128.070454 
L 420.657534 127.895812 
L 422.679452 127.916365 
L 424.70137 128.79148 
L 425.712329 129.610055 
L 429.756164 134.852387 
L 433.8 139.094003 
L 435.821918 140.507654 
L 437.843836 141.314542 
L 438.854795 141.573646 
L 440.876712 141.747455 
L 444.920548 141.093493 
L 447.953425 140.200228 
L 448.964384 139.769302 
L 449.975342 139.486789 
L 453.008219 138.03839 
L 454.019178 137.321435 
L 456.041096 137.031614 
L 458.063014 136.858995 
L 459.073973 136.598999 
L 461.09589 136.560637 
L 466.150685 135.999656 
L 467.161644 136.075088 
L 468.172603 135.873487 
L 471.205479 134.628013 
L 472.216438 134.516711 
L 473.227397 134.240454 
L 474.238356 134.080362 
L 476.260274 134.544143 
L 479.293151 134.92287 
L 480.30411 134.883013 
L 481.315068 134.670272 
L 482.326027 134.918132 
L 484.347945 135.802763 
L 485.358904 136.144668 
L 486.369863 136.29903 
L 487.380822 136.264435 
L 489.40274 135.797595 
L 492.435616 134.70343 
L 493.446575 134.471907 
L 494.457534 134.533613 
L 495.468493 134.230353 
L 497.490411 133.146824 
L 498.50137 132.682681 
L 499.512329 132.583053 
L 501.534247 132.8207 
L 502.545205 133.27248 
L 503.556164 134.244691 
L 508.610959 140.959405 
L 510.632877 144.230194 
L 512.654795 147.132357 
L 515.687671 150.889804 
L 518.720548 152.057541 
L 522.764384 154.283489 
L 524.786301 155.034064 
L 529.841096 157.798666 
L 531.863014 158.496631 
L 533.884932 159.812774 
L 535.906849 160.782599 
L 537.928767 161.234785 
L 539.950685 162.20225 
L 541.972603 162.710261 
L 542.983562 162.831451 
L 546.016438 162.884098 
L 547.027397 162.817496 
L 549.049315 162.240844 
L 551.071233 161.434135 
L 552.082192 160.776996 
L 554.10411 158.857086 
L 555.115068 157.5645 
L 556.126027 156.05469 
L 557.136986 154.307352 
L 558.147945 152.092798 
L 561.180822 143.658906 
L 563.20274 137.595678 
L 566.235616 128.170795 
L 568.257534 122.553309 
L 569.268493 120.18315 
L 570.279452 118.226644 
L 571.290411 117.114344 
L 573.312329 116.980367 
L 575.334247 116.615511 
L 576.345205 116.761004 
L 577.356164 117.07823 
L 578.367123 117.59099 
L 579.378082 118.242478 
L 581.4 119.94387 
L 582.410959 120.806093 
L 583.421918 121.491119 
L 584.432877 121.897387 
L 585.443836 121.739616 
L 586.454795 121.112294 
L 589.487671 120.205609 
L 591.509589 119.150317 
L 593.531507 117.702189 
L 595.553425 116.56111 
L 596.564384 116.119684 
L 597.575342 115.506199 
L 599.59726 114.480969 
L 600.608219 113.696294 
L 603.641096 110.765187 
L 604.652055 110.028446 
L 607.684932 109.375444 
L 608.69589 109.428586 
L 609.706849 109.780111 
L 610.717808 110.932811 
L 611.728767 112.384778 
L 612.739726 114.257325 
L 613.750685 116.53691 
L 614.761644 119.396756 
L 616.783562 126.269053 
L 618.805479 133.311706 
L 621.838356 142.884837 
L 622.849315 145.689643 
L 624.871233 150.16813 
L 625.882192 152.012568 
L 626.893151 153.546496 
L 627.90411 154.77126 
L 629.926027 156.401277 
L 631.947945 157.619925 
L 634.980822 159.459729 
L 638.013699 161.403927 
L 641.046575 163.72258 
L 645.090411 166.893066 
L 645.090411 166.893066 
" style="fill:none;stroke:#008000;stroke-linecap:square;stroke-width:1.5;"/>
   </g>
   <g id="line2d_32">
    <path clip-path="url(#p8e5da54d8e)" d="M 649.134247 172.8 
L 649.134247 25.92 
" style="fill:none;stroke:#ff0000;stroke-linecap:square;stroke-width:0.5;"/>
   </g>
   <g id="patch_3">
    <path d="M 64.8 172.8 
L 64.8 25.92 
" style="fill:none;stroke:#000000;stroke-linecap:square;stroke-linejoin:miter;stroke-width:0.8;"/>
   </g>
   <g id="patch_4">
    <path d="M 655.2 172.8 
L 655.2 25.92 
" style="fill:none;stroke:#000000;stroke-linecap:square;stroke-linejoin:miter;stroke-width:0.8;"/>
   </g>
   <g id="patch_5">
    <path d="M 64.8 172.8 
L 655.2 172.8 
" style="fill:none;stroke:#000000;stroke-linecap:square;stroke-linejoin:miter;stroke-width:0.8;"/>
   </g>
   <g id="patch_6">
    <path d="M 64.8 25.92 
L 655.2 25.92 
" style="fill:none;stroke:#000000;stroke-linecap:square;stroke-linejoin:miter;stroke-width:0.8;"/>
   </g>
   <g id="text_18">
    <!-- Concentratie SARS-CoV-2 RNA per ml rioolwater -->
    <g transform="translate(215.560313 19.92)scale(0.12 -0.12)">
     <defs>
      <path d="M 64.40625 67.28125 
L 64.40625 56.890625 
Q 59.421875 61.53125 53.78125 63.8125 
Q 48.140625 66.109375 41.796875 66.109375 
Q 29.296875 66.109375 22.65625 58.46875 
Q 16.015625 50.828125 16.015625 36.375 
Q 16.015625 21.96875 22.65625 14.328125 
Q 29.296875 6.6875 41.796875 6.6875 
Q 48.140625 6.6875 53.78125 8.984375 
Q 59.421875 11.28125 64.40625 15.921875 
L 64.40625 5.609375 
Q 59.234375 2.09375 53.4375 0.328125 
Q 47.65625 -1.421875 41.21875 -1.421875 
Q 24.65625 -1.421875 15.125 8.703125 
Q 5.609375 18.84375 5.609375 36.375 
Q 5.609375 53.953125 15.125 64.078125 
Q 24.65625 74.21875 41.21875 74.21875 
Q 47.75 74.21875 53.53125 72.484375 
Q 59.328125 70.75 64.40625 67.28125 
z
" id="DejaVuSans-67"/>
      <path d="M 30.609375 48.390625 
Q 23.390625 48.390625 19.1875 42.75 
Q 14.984375 37.109375 14.984375 27.296875 
Q 14.984375 17.484375 19.15625 11.84375 
Q 23.34375 6.203125 30.609375 6.203125 
Q 37.796875 6.203125 41.984375 11.859375 
Q 46.1875 17.53125 46.1875 27.296875 
Q 46.1875 37.015625 41.984375 42.703125 
Q 37.796875 48.390625 30.609375 48.390625 
z
M 30.609375 56 
Q 42.328125 56 49.015625 48.375 
Q 55.71875 40.765625 55.71875 27.296875 
Q 55.71875 13.875 49.015625 6.21875 
Q 42.328125 -1.421875 30.609375 -1.421875 
Q 18.84375 -1.421875 12.171875 6.21875 
Q 5.515625 13.875 5.515625 27.296875 
Q 5.515625 40.765625 12.171875 48.375 
Q 18.84375 56 30.609375 56 
z
" id="DejaVuSans-111"/>
      <path d="M 54.890625 33.015625 
L 54.890625 0 
L 45.90625 0 
L 45.90625 32.71875 
Q 45.90625 40.484375 42.875 44.328125 
Q 39.84375 48.1875 33.796875 48.1875 
Q 26.515625 48.1875 22.3125 43.546875 
Q 18.109375 38.921875 18.109375 30.90625 
L 18.109375 0 
L 9.078125 0 
L 9.078125 54.6875 
L 18.109375 54.6875 
L 18.109375 46.1875 
Q 21.34375 51.125 25.703125 53.5625 
Q 30.078125 56 35.796875 56 
Q 45.21875 56 50.046875 50.171875 
Q 54.890625 44.34375 54.890625 33.015625 
z
" id="DejaVuSans-110"/>
      <path d="M 48.78125 52.59375 
L 48.78125 44.1875 
Q 44.96875 46.296875 41.140625 47.34375 
Q 37.3125 48.390625 33.40625 48.390625 
Q 24.65625 48.390625 19.8125 42.84375 
Q 14.984375 37.3125 14.984375 27.296875 
Q 14.984375 17.28125 19.8125 11.734375 
Q 24.65625 6.203125 33.40625 6.203125 
Q 37.3125 6.203125 41.140625 7.25 
Q 44.96875 8.296875 48.78125 10.40625 
L 48.78125 2.09375 
Q 45.015625 0.34375 40.984375 -0.53125 
Q 36.96875 -1.421875 32.421875 -1.421875 
Q 20.0625 -1.421875 12.78125 6.34375 
Q 5.515625 14.109375 5.515625 27.296875 
Q 5.515625 40.671875 12.859375 48.328125 
Q 20.21875 56 33.015625 56 
Q 37.15625 56 41.109375 55.140625 
Q 45.0625 54.296875 48.78125 52.59375 
z
" id="DejaVuSans-99"/>
      <path d="M 53.515625 70.515625 
L 53.515625 60.890625 
Q 47.90625 63.578125 42.921875 64.890625 
Q 37.9375 66.21875 33.296875 66.21875 
Q 25.25 66.21875 20.875 63.09375 
Q 16.5 59.96875 16.5 54.203125 
Q 16.5 49.359375 19.40625 46.890625 
Q 22.3125 44.4375 30.421875 42.921875 
L 36.375 41.703125 
Q 47.40625 39.59375 52.65625 34.296875 
Q 57.90625 29 57.90625 20.125 
Q 57.90625 9.515625 50.796875 4.046875 
Q 43.703125 -1.421875 29.984375 -1.421875 
Q 24.8125 -1.421875 18.96875 -0.25 
Q 13.140625 0.921875 6.890625 3.21875 
L 6.890625 13.375 
Q 12.890625 10.015625 18.65625 8.296875 
Q 24.421875 6.59375 29.984375 6.59375 
Q 38.421875 6.59375 43.015625 9.90625 
Q 47.609375 13.234375 47.609375 19.390625 
Q 47.609375 24.75 44.3125 27.78125 
Q 41.015625 30.8125 33.5 32.328125 
L 27.484375 33.5 
Q 16.453125 35.6875 11.515625 40.375 
Q 6.59375 45.0625 6.59375 53.421875 
Q 6.59375 63.09375 13.40625 68.65625 
Q 20.21875 74.21875 32.171875 74.21875 
Q 37.3125 74.21875 42.625 73.28125 
Q 47.953125 72.359375 53.515625 70.515625 
z
" id="DejaVuSans-83"/>
      <path d="M 28.609375 0 
L 0.78125 72.90625 
L 11.078125 72.90625 
L 34.1875 11.53125 
L 57.328125 72.90625 
L 67.578125 72.90625 
L 39.796875 0 
z
" id="DejaVuSans-86"/>
      <path d="M 4.203125 54.6875 
L 13.1875 54.6875 
L 24.421875 12.015625 
L 35.59375 54.6875 
L 46.1875 54.6875 
L 57.421875 12.015625 
L 68.609375 54.6875 
L 77.59375 54.6875 
L 63.28125 0 
L 52.6875 0 
L 40.921875 44.828125 
L 29.109375 0 
L 18.5 0 
z
" id="DejaVuSans-119"/>
     </defs>
     <use xlink:href="#DejaVuSans-67"/>
     <use x="69.824219" xlink:href="#DejaVuSans-111"/>
     <use x="131.005859" xlink:href="#DejaVuSans-110"/>
     <use x="194.384766" xlink:href="#DejaVuSans-99"/>
     <use x="249.365234" xlink:href="#DejaVuSans-101"/>
     <use x="310.888672" xlink:href="#DejaVuSans-110"/>
     <use x="374.267578" xlink:href="#DejaVuSans-116"/>
     <use x="413.476562" xlink:href="#DejaVuSans-114"/>
     <use x="454.589844" xlink:href="#DejaVuSans-97"/>
     <use x="515.869141" xlink:href="#DejaVuSans-116"/>
     <use x="555.078125" xlink:href="#DejaVuSans-105"/>
     <use x="582.861328" xlink:href="#DejaVuSans-101"/>
     <use x="644.384766" xlink:href="#DejaVuSans-32"/>
     <use x="676.171875" xlink:href="#DejaVuSans-83"/>
     <use x="741.523438" xlink:href="#DejaVuSans-65"/>
     <use x="809.931641" xlink:href="#DejaVuSans-82"/>
     <use x="879.414062" xlink:href="#DejaVuSans-83"/>
     <use x="942.890625" xlink:href="#DejaVuSans-45"/>
     <use x="978.974609" xlink:href="#DejaVuSans-67"/>
     <use x="1048.798828" xlink:href="#DejaVuSans-111"/>
     <use x="1109.980469" xlink:href="#DejaVuSans-86"/>
     <use x="1172.513672" xlink:href="#DejaVuSans-45"/>
     <use x="1208.597656" xlink:href="#DejaVuSans-50"/>
     <use x="1272.220703" xlink:href="#DejaVuSans-32"/>
     <use x="1304.007812" xlink:href="#DejaVuSans-82"/>
     <use x="1373.490234" xlink:href="#DejaVuSans-78"/>
     <use x="1448.294922" xlink:href="#DejaVuSans-65"/>
     <use x="1516.703125" xlink:href="#DejaVuSans-32"/>
     <use x="1548.490234" xlink:href="#DejaVuSans-112"/>
     <use x="1611.966797" xlink:href="#DejaVuSans-101"/>
     <use x="1673.490234" xlink:href="#DejaVuSans-114"/>
     <use x="1714.603516" xlink:href="#DejaVuSans-32"/>
     <use x="1746.390625" xlink:href="#DejaVuSans-109"/>
     <use x="1843.802734" xlink:href="#DejaVuSans-108"/>
     <use x="1871.585938" xlink:href="#DejaVuSans-32"/>
     <use x="1903.373047" xlink:href="#DejaVuSans-114"/>
     <use x="1944.486328" xlink:href="#DejaVuSans-105"/>
     <use x="1972.269531" xlink:href="#DejaVuSans-111"/>
     <use x="2033.451172" xlink:href="#DejaVuSans-111"/>
     <use x="2094.632812" xlink:href="#DejaVuSans-108"/>
     <use x="2122.416016" xlink:href="#DejaVuSans-119"/>
     <use x="2204.203125" xlink:href="#DejaVuSans-97"/>
     <use x="2265.482422" xlink:href="#DejaVuSans-116"/>
     <use x="2304.691406" xlink:href="#DejaVuSans-101"/>
     <use x="2366.214844" xlink:href="#DejaVuSans-114"/>
    </g>
   </g>
   <g id="legend_1">
    <g id="patch_7">
     <path d="M 71.8 48.598125 
L 306.184375 48.598125 
Q 308.184375 48.598125 308.184375 46.598125 
L 308.184375 32.92 
Q 308.184375 30.92 306.184375 30.92 
L 71.8 30.92 
Q 69.8 30.92 69.8 32.92 
L 69.8 46.598125 
Q 69.8 48.598125 71.8 48.598125 
z
" style="fill:#ffffff;opacity:0.8;stroke:#cccccc;stroke-linejoin:miter;"/>
    </g>
    <g id="line2d_33">
     <path d="M 73.8 39.018437 
L 93.8 39.018437 
" style="fill:none;stroke:#008000;stroke-linecap:square;stroke-width:1.5;"/>
    </g>
    <g id="line2d_34"/>
    <g id="text_19">
     <!-- RNA per milliliter rioolwater (gemiddeld) -->
     <g transform="translate(101.8 42.518437)scale(0.1 -0.1)">
      <defs>
       <path d="M 31 75.875 
Q 24.46875 64.65625 21.28125 53.65625 
Q 18.109375 42.671875 18.109375 31.390625 
Q 18.109375 20.125 21.3125 9.0625 
Q 24.515625 -2 31 -13.1875 
L 23.1875 -13.1875 
Q 15.875 -1.703125 12.234375 9.375 
Q 8.59375 20.453125 8.59375 31.390625 
Q 8.59375 42.28125 12.203125 53.3125 
Q 15.828125 64.359375 23.1875 75.875 
z
" id="DejaVuSans-40"/>
       <path d="M 45.40625 27.984375 
Q 45.40625 37.75 41.375 43.109375 
Q 37.359375 48.484375 30.078125 48.484375 
Q 22.859375 48.484375 18.828125 43.109375 
Q 14.796875 37.75 14.796875 27.984375 
Q 14.796875 18.265625 18.828125 12.890625 
Q 22.859375 7.515625 30.078125 7.515625 
Q 37.359375 7.515625 41.375 12.890625 
Q 45.40625 18.265625 45.40625 27.984375 
z
M 54.390625 6.78125 
Q 54.390625 -7.171875 48.1875 -13.984375 
Q 42 -20.796875 29.203125 -20.796875 
Q 24.46875 -20.796875 20.265625 -20.09375 
Q 16.0625 -19.390625 12.109375 -17.921875 
L 12.109375 -9.1875 
Q 16.0625 -11.328125 19.921875 -12.34375 
Q 23.78125 -13.375 27.78125 -13.375 
Q 36.625 -13.375 41.015625 -8.765625 
Q 45.40625 -4.15625 45.40625 5.171875 
L 45.40625 9.625 
Q 42.625 4.78125 38.28125 2.390625 
Q 33.9375 0 27.875 0 
Q 17.828125 0 11.671875 7.65625 
Q 5.515625 15.328125 5.515625 27.984375 
Q 5.515625 40.671875 11.671875 48.328125 
Q 17.828125 56 27.875 56 
Q 33.9375 56 38.28125 53.609375 
Q 42.625 51.21875 45.40625 46.390625 
L 45.40625 54.6875 
L 54.390625 54.6875 
z
" id="DejaVuSans-103"/>
       <path d="M 45.40625 46.390625 
L 45.40625 75.984375 
L 54.390625 75.984375 
L 54.390625 0 
L 45.40625 0 
L 45.40625 8.203125 
Q 42.578125 3.328125 38.25 0.953125 
Q 33.9375 -1.421875 27.875 -1.421875 
Q 17.96875 -1.421875 11.734375 6.484375 
Q 5.515625 14.40625 5.515625 27.296875 
Q 5.515625 40.1875 11.734375 48.09375 
Q 17.96875 56 27.875 56 
Q 33.9375 56 38.25 53.625 
Q 42.578125 51.265625 45.40625 46.390625 
z
M 14.796875 27.296875 
Q 14.796875 17.390625 18.875 11.75 
Q 22.953125 6.109375 30.078125 6.109375 
Q 37.203125 6.109375 41.296875 11.75 
Q 45.40625 17.390625 45.40625 27.296875 
Q 45.40625 37.203125 41.296875 42.84375 
Q 37.203125 48.484375 30.078125 48.484375 
Q 22.953125 48.484375 18.875 42.84375 
Q 14.796875 37.203125 14.796875 27.296875 
z
" id="DejaVuSans-100"/>
       <path d="M 8.015625 75.875 
L 15.828125 75.875 
Q 23.140625 64.359375 26.78125 53.3125 
Q 30.421875 42.28125 30.421875 31.390625 
Q 30.421875 20.453125 26.78125 9.375 
Q 23.140625 -1.703125 15.828125 -13.1875 
L 8.015625 -13.1875 
Q 14.5 -2 17.703125 9.0625 
Q 20.90625 20.125 20.90625 31.390625 
Q 20.90625 42.671875 17.703125 53.65625 
Q 14.5 64.65625 8.015625 75.875 
z
" id="DejaVuSans-41"/>
      </defs>
      <use xlink:href="#DejaVuSans-82"/>
      <use x="69.482422" xlink:href="#DejaVuSans-78"/>
      <use x="144.287109" xlink:href="#DejaVuSans-65"/>
      <use x="212.695312" xlink:href="#DejaVuSans-32"/>
      <use x="244.482422" xlink:href="#DejaVuSans-112"/>
      <use x="307.958984" xlink:href="#DejaVuSans-101"/>
      <use x="369.482422" xlink:href="#DejaVuSans-114"/>
      <use x="410.595703" xlink:href="#DejaVuSans-32"/>
      <use x="442.382812" xlink:href="#DejaVuSans-109"/>
      <use x="539.794922" xlink:href="#DejaVuSans-105"/>
      <use x="567.578125" xlink:href="#DejaVuSans-108"/>
      <use x="595.361328" xlink:href="#DejaVuSans-108"/>
      <use x="623.144531" xlink:href="#DejaVuSans-105"/>
      <use x="650.927734" xlink:href="#DejaVuSans-108"/>
      <use x="678.710938" xlink:href="#DejaVuSans-105"/>
      <use x="706.494141" xlink:href="#DejaVuSans-116"/>
      <use x="745.703125" xlink:href="#DejaVuSans-101"/>
      <use x="807.226562" xlink:href="#DejaVuSans-114"/>
      <use x="848.339844" xlink:href="#DejaVuSans-32"/>
      <use x="880.126953" xlink:href="#DejaVuSans-114"/>
      <use x="921.240234" xlink:href="#DejaVuSans-105"/>
      <use x="949.023438" xlink:href="#DejaVuSans-111"/>
      <use x="1010.205078" xlink:href="#DejaVuSans-111"/>
      <use x="1071.386719" xlink:href="#DejaVuSans-108"/>
      <use x="1099.169922" xlink:href="#DejaVuSans-119"/>
      <use x="1180.957031" xlink:href="#DejaVuSans-97"/>
      <use x="1242.236328" xlink:href="#DejaVuSans-116"/>
      <use x="1281.445312" xlink:href="#DejaVuSans-101"/>
      <use x="1342.96875" xlink:href="#DejaVuSans-114"/>
      <use x="1384.082031" xlink:href="#DejaVuSans-32"/>
      <use x="1415.869141" xlink:href="#DejaVuSans-40"/>
      <use x="1454.882812" xlink:href="#DejaVuSans-103"/>
      <use x="1518.359375" xlink:href="#DejaVuSans-101"/>
      <use x="1579.882812" xlink:href="#DejaVuSans-109"/>
      <use x="1677.294922" xlink:href="#DejaVuSans-105"/>
      <use x="1705.078125" xlink:href="#DejaVuSans-100"/>
      <use x="1768.554688" xlink:href="#DejaVuSans-100"/>
      <use x="1832.03125" xlink:href="#DejaVuSans-101"/>
      <use x="1893.554688" xlink:href="#DejaVuSans-108"/>
      <use x="1921.337891" xlink:href="#DejaVuSans-100"/>
      <use x="1984.814453" xlink:href="#DejaVuSans-41"/>
     </g>
    </g>
   </g>
  </g>
  <g id="text_20">
   <!-- Gegenereerd op 2021-09-30 11:41 o.b.v. data tot 2021-09-26. -->
   <g style="fill:#808080;" transform="translate(7.2 204.88175)scale(0.08 -0.08)">
    <defs>
     <path d="M 59.515625 10.40625 
L 59.515625 29.984375 
L 43.40625 29.984375 
L 43.40625 38.09375 
L 69.28125 38.09375 
L 69.28125 6.78125 
Q 63.578125 2.734375 56.6875 0.65625 
Q 49.8125 -1.421875 42 -1.421875 
Q 24.90625 -1.421875 15.25 8.5625 
Q 5.609375 18.5625 5.609375 36.375 
Q 5.609375 54.25 15.25 64.234375 
Q 24.90625 74.21875 42 74.21875 
Q 49.125 74.21875 55.546875 72.453125 
Q 61.96875 70.703125 67.390625 67.28125 
L 67.390625 56.78125 
Q 61.921875 61.421875 55.765625 63.765625 
Q 49.609375 66.109375 42.828125 66.109375 
Q 29.4375 66.109375 22.71875 58.640625 
Q 16.015625 51.171875 16.015625 36.375 
Q 16.015625 21.625 22.71875 14.15625 
Q 29.4375 6.6875 42.828125 6.6875 
Q 48.046875 6.6875 52.140625 7.59375 
Q 56.25 8.5 59.515625 10.40625 
z
" id="DejaVuSans-71"/>
     <path d="M 11.71875 12.40625 
L 22.015625 12.40625 
L 22.015625 0 
L 11.71875 0 
z
M 11.71875 51.703125 
L 22.015625 51.703125 
L 22.015625 39.3125 
L 11.71875 39.3125 
z
" id="DejaVuSans-58"/>
     <path d="M 10.6875 12.40625 
L 21 12.40625 
L 21 0 
L 10.6875 0 
z
" id="DejaVuSans-46"/>
     <path d="M 48.6875 27.296875 
Q 48.6875 37.203125 44.609375 42.84375 
Q 40.53125 48.484375 33.40625 48.484375 
Q 26.265625 48.484375 22.1875 42.84375 
Q 18.109375 37.203125 18.109375 27.296875 
Q 18.109375 17.390625 22.1875 11.75 
Q 26.265625 6.109375 33.40625 6.109375 
Q 40.53125 6.109375 44.609375 11.75 
Q 48.6875 17.390625 48.6875 27.296875 
z
M 18.109375 46.390625 
Q 20.953125 51.265625 25.265625 53.625 
Q 29.59375 56 35.59375 56 
Q 45.5625 56 51.78125 48.09375 
Q 58.015625 40.1875 58.015625 27.296875 
Q 58.015625 14.40625 51.78125 6.484375 
Q 45.5625 -1.421875 35.59375 -1.421875 
Q 29.59375 -1.421875 25.265625 0.953125 
Q 20.953125 3.328125 18.109375 8.203125 
L 18.109375 0 
L 9.078125 0 
L 9.078125 75.984375 
L 18.109375 75.984375 
z
" id="DejaVuSans-98"/>
     <path d="M 2.984375 54.6875 
L 12.5 54.6875 
L 29.59375 8.796875 
L 46.6875 54.6875 
L 56.203125 54.6875 
L 35.6875 0 
L 23.484375 0 
z
" id="DejaVuSans-118"/>
     <path d="M 33.015625 40.375 
Q 26.375 40.375 22.484375 35.828125 
Q 18.609375 31.296875 18.609375 23.390625 
Q 18.609375 15.53125 22.484375 10.953125 
Q 26.375 6.390625 33.015625 6.390625 
Q 39.65625 6.390625 43.53125 10.953125 
Q 47.40625 15.53125 47.40625 23.390625 
Q 47.40625 31.296875 43.53125 35.828125 
Q 39.65625 40.375 33.015625 40.375 
z
M 52.59375 71.296875 
L 52.59375 62.3125 
Q 48.875 64.0625 45.09375 64.984375 
Q 41.3125 65.921875 37.59375 65.921875 
Q 27.828125 65.921875 22.671875 59.328125 
Q 17.53125 52.734375 16.796875 39.40625 
Q 19.671875 43.65625 24.015625 45.921875 
Q 28.375 48.1875 33.59375 48.1875 
Q 44.578125 48.1875 50.953125 41.515625 
Q 57.328125 34.859375 57.328125 23.390625 
Q 57.328125 12.15625 50.6875 5.359375 
Q 44.046875 -1.421875 33.015625 -1.421875 
Q 20.359375 -1.421875 13.671875 8.265625 
Q 6.984375 17.96875 6.984375 36.375 
Q 6.984375 53.65625 15.1875 63.9375 
Q 23.390625 74.21875 37.203125 74.21875 
Q 40.921875 74.21875 44.703125 73.484375 
Q 48.484375 72.75 52.59375 71.296875 
z
" id="DejaVuSans-54"/>
    </defs>
    <use xlink:href="#DejaVuSans-71"/>
    <use x="77.490234" xlink:href="#DejaVuSans-101"/>
    <use x="139.013672" xlink:href="#DejaVuSans-103"/>
    <use x="202.490234" xlink:href="#DejaVuSans-101"/>
    <use x="264.013672" xlink:href="#DejaVuSans-110"/>
    <use x="327.392578" xlink:href="#DejaVuSans-101"/>
    <use x="388.916016" xlink:href="#DejaVuSans-114"/>
    <use x="427.779297" xlink:href="#DejaVuSans-101"/>
    <use x="489.302734" xlink:href="#DejaVuSans-101"/>
    <use x="550.826172" xlink:href="#DejaVuSans-114"/>
    <use x="590.189453" xlink:href="#DejaVuSans-100"/>
    <use x="653.666016" xlink:href="#DejaVuSans-32"/>
    <use x="685.453125" xlink:href="#DejaVuSans-111"/>
    <use x="746.634766" xlink:href="#DejaVuSans-112"/>
    <use x="810.111328" xlink:href="#DejaVuSans-32"/>
    <use x="841.898438" xlink:href="#DejaVuSans-50"/>
    <use x="905.521484" xlink:href="#DejaVuSans-48"/>
    <use x="969.144531" xlink:href="#DejaVuSans-50"/>
    <use x="1032.767578" xlink:href="#DejaVuSans-49"/>
    <use x="1096.390625" xlink:href="#DejaVuSans-45"/>
    <use x="1132.474609" xlink:href="#DejaVuSans-48"/>
    <use x="1196.097656" xlink:href="#DejaVuSans-57"/>
    <use x="1259.720703" xlink:href="#DejaVuSans-45"/>
    <use x="1295.804688" xlink:href="#DejaVuSans-51"/>
    <use x="1359.427734" xlink:href="#DejaVuSans-48"/>
    <use x="1423.050781" xlink:href="#DejaVuSans-32"/>
    <use x="1454.837891" xlink:href="#DejaVuSans-49"/>
    <use x="1518.460938" xlink:href="#DejaVuSans-49"/>
    <use x="1582.083984" xlink:href="#DejaVuSans-58"/>
    <use x="1615.775391" xlink:href="#DejaVuSans-52"/>
    <use x="1679.398438" xlink:href="#DejaVuSans-49"/>
    <use x="1743.021484" xlink:href="#DejaVuSans-32"/>
    <use x="1774.808594" xlink:href="#DejaVuSans-111"/>
    <use x="1834.240234" xlink:href="#DejaVuSans-46"/>
    <use x="1866.027344" xlink:href="#DejaVuSans-98"/>
    <use x="1929.503906" xlink:href="#DejaVuSans-46"/>
    <use x="1961.291016" xlink:href="#DejaVuSans-118"/>
    <use x="2012.720703" xlink:href="#DejaVuSans-46"/>
    <use x="2044.507812" xlink:href="#DejaVuSans-32"/>
    <use x="2076.294922" xlink:href="#DejaVuSans-100"/>
    <use x="2139.771484" xlink:href="#DejaVuSans-97"/>
    <use x="2201.050781" xlink:href="#DejaVuSans-116"/>
    <use x="2240.259766" xlink:href="#DejaVuSans-97"/>
    <use x="2301.539062" xlink:href="#DejaVuSans-32"/>
    <use x="2333.326172" xlink:href="#DejaVuSans-116"/>
    <use x="2372.535156" xlink:href="#DejaVuSans-111"/>
    <use x="2433.716797" xlink:href="#DejaVuSans-116"/>
    <use x="2472.925781" xlink:href="#DejaVuSans-32"/>
    <use x="2504.712891" xlink:href="#DejaVuSans-50"/>
    <use x="2568.335938" xlink:href="#DejaVuSans-48"/>
    <use x="2631.958984" xlink:href="#DejaVuSans-50"/>
    <use x="2695.582031" xlink:href="#DejaVuSans-49"/>
    <use x="2759.205078" xlink:href="#DejaVuSans-45"/>
    <use x="2795.289062" xlink:href="#DejaVuSans-48"/>
    <use x="2858.912109" xlink:href="#DejaVuSans-57"/>
    <use x="2922.535156" xlink:href="#DejaVuSans-45"/>
    <use x="2958.619141" xlink:href="#DejaVuSans-50"/>
    <use x="3022.242188" xlink:href="#DejaVuSans-54"/>
    <use x="3085.865234" xlink:href="#DejaVuSans-46"/>
   </g>
   <!-- Source code: http://github.com/realrolfje/coronadata -->
   <g style="fill:#808080;" transform="translate(7.2 213.84)scale(0.08 -0.08)">
    <defs>
     <path d="M 54.890625 33.015625 
L 54.890625 0 
L 45.90625 0 
L 45.90625 32.71875 
Q 45.90625 40.484375 42.875 44.328125 
Q 39.84375 48.1875 33.796875 48.1875 
Q 26.515625 48.1875 22.3125 43.546875 
Q 18.109375 38.921875 18.109375 30.90625 
L 18.109375 0 
L 9.078125 0 
L 9.078125 75.984375 
L 18.109375 75.984375 
L 18.109375 46.1875 
Q 21.34375 51.125 25.703125 53.5625 
Q 30.078125 56 35.796875 56 
Q 45.21875 56 50.046875 50.171875 
Q 54.890625 44.34375 54.890625 33.015625 
z
" id="DejaVuSans-104"/>
     <path d="M 25.390625 72.90625 
L 33.6875 72.90625 
L 8.296875 -9.28125 
L 0 -9.28125 
z
" id="DejaVuSans-47"/>
     <path d="M 37.109375 75.984375 
L 37.109375 68.5 
L 28.515625 68.5 
Q 23.6875 68.5 21.796875 66.546875 
Q 19.921875 64.59375 19.921875 59.515625 
L 19.921875 54.6875 
L 34.71875 54.6875 
L 34.71875 47.703125 
L 19.921875 47.703125 
L 19.921875 0 
L 10.890625 0 
L 10.890625 47.703125 
L 2.296875 47.703125 
L 2.296875 54.6875 
L 10.890625 54.6875 
L 10.890625 58.5 
Q 10.890625 67.625 15.140625 71.796875 
Q 19.390625 75.984375 28.609375 75.984375 
z
" id="DejaVuSans-102"/>
     <path d="M 9.421875 54.6875 
L 18.40625 54.6875 
L 18.40625 -0.984375 
Q 18.40625 -11.421875 14.421875 -16.109375 
Q 10.453125 -20.796875 1.609375 -20.796875 
L -1.8125 -20.796875 
L -1.8125 -13.1875 
L 0.59375 -13.1875 
Q 5.71875 -13.1875 7.5625 -10.8125 
Q 9.421875 -8.453125 9.421875 -0.984375 
z
M 9.421875 75.984375 
L 18.40625 75.984375 
L 18.40625 64.59375 
L 9.421875 64.59375 
z
" id="DejaVuSans-106"/>
    </defs>
    <use xlink:href="#DejaVuSans-83"/>
    <use x="63.476562" xlink:href="#DejaVuSans-111"/>
    <use x="124.658203" xlink:href="#DejaVuSans-117"/>
    <use x="188.037109" xlink:href="#DejaVuSans-114"/>
    <use x="226.900391" xlink:href="#DejaVuSans-99"/>
    <use x="281.880859" xlink:href="#DejaVuSans-101"/>
    <use x="343.404297" xlink:href="#DejaVuSans-32"/>
    <use x="375.191406" xlink:href="#DejaVuSans-99"/>
    <use x="430.171875" xlink:href="#DejaVuSans-111"/>
    <use x="491.353516" xlink:href="#DejaVuSans-100"/>
    <use x="554.830078" xlink:href="#DejaVuSans-101"/>
    <use x="616.353516" xlink:href="#DejaVuSans-58"/>
    <use x="650.044922" xlink:href="#DejaVuSans-32"/>
    <use x="681.832031" xlink:href="#DejaVuSans-104"/>
    <use x="745.210938" xlink:href="#DejaVuSans-116"/>
    <use x="784.419922" xlink:href="#DejaVuSans-116"/>
    <use x="823.628906" xlink:href="#DejaVuSans-112"/>
    <use x="887.105469" xlink:href="#DejaVuSans-58"/>
    <use x="920.796875" xlink:href="#DejaVuSans-47"/>
    <use x="954.488281" xlink:href="#DejaVuSans-47"/>
    <use x="988.179688" xlink:href="#DejaVuSans-103"/>
    <use x="1051.65625" xlink:href="#DejaVuSans-105"/>
    <use x="1079.439453" xlink:href="#DejaVuSans-116"/>
    <use x="1118.648438" xlink:href="#DejaVuSans-104"/>
    <use x="1182.027344" xlink:href="#DejaVuSans-117"/>
    <use x="1245.40625" xlink:href="#DejaVuSans-98"/>
    <use x="1308.882812" xlink:href="#DejaVuSans-46"/>
    <use x="1340.669922" xlink:href="#DejaVuSans-99"/>
    <use x="1395.650391" xlink:href="#DejaVuSans-111"/>
    <use x="1456.832031" xlink:href="#DejaVuSans-109"/>
    <use x="1554.244141" xlink:href="#DejaVuSans-47"/>
    <use x="1587.935547" xlink:href="#DejaVuSans-114"/>
    <use x="1626.798828" xlink:href="#DejaVuSans-101"/>
    <use x="1688.322266" xlink:href="#DejaVuSans-97"/>
    <use x="1749.601562" xlink:href="#DejaVuSans-108"/>
    <use x="1777.384766" xlink:href="#DejaVuSans-114"/>
    <use x="1816.248047" xlink:href="#DejaVuSans-111"/>
    <use x="1877.429688" xlink:href="#DejaVuSans-108"/>
    <use x="1905.212891" xlink:href="#DejaVuSans-102"/>
    <use x="1940.417969" xlink:href="#DejaVuSans-106"/>
    <use x="1968.201172" xlink:href="#DejaVuSans-101"/>
    <use x="2029.724609" xlink:href="#DejaVuSans-47"/>
    <use x="2063.416016" xlink:href="#DejaVuSans-99"/>
    <use x="2118.396484" xlink:href="#DejaVuSans-111"/>
    <use x="2179.578125" xlink:href="#DejaVuSans-114"/>
    <use x="2218.441406" xlink:href="#DejaVuSans-111"/>
    <use x="2279.623047" xlink:href="#DejaVuSans-110"/>
    <use x="2343.001953" xlink:href="#DejaVuSans-97"/>
    <use x="2404.28125" xlink:href="#DejaVuSans-100"/>
    <use x="2467.757812" xlink:href="#DejaVuSans-97"/>
    <use x="2529.037109" xlink:href="#DejaVuSans-116"/>
    <use x="2568.246094" xlink:href="#DejaVuSans-97"/>
   </g>
  </g>
  <g id="text_21">
   <!-- Bron: https://data.rivm.nl/covid-19 -->
   <g style="fill:#808080;" transform="translate(574.79875 213.84)scale(0.08 -0.08)">
    <defs>
     <path d="M 19.671875 34.8125 
L 19.671875 8.109375 
L 35.5 8.109375 
Q 43.453125 8.109375 47.28125 11.40625 
Q 51.125 14.703125 51.125 21.484375 
Q 51.125 28.328125 47.28125 31.5625 
Q 43.453125 34.8125 35.5 34.8125 
z
M 19.671875 64.796875 
L 19.671875 42.828125 
L 34.28125 42.828125 
Q 41.5 42.828125 45.03125 45.53125 
Q 48.578125 48.25 48.578125 53.8125 
Q 48.578125 59.328125 45.03125 62.0625 
Q 41.5 64.796875 34.28125 64.796875 
z
M 9.8125 72.90625 
L 35.015625 72.90625 
Q 46.296875 72.90625 52.390625 68.21875 
Q 58.5 63.53125 58.5 54.890625 
Q 58.5 48.1875 55.375 44.234375 
Q 52.25 40.28125 46.1875 39.3125 
Q 53.46875 37.75 57.5 32.78125 
Q 61.53125 27.828125 61.53125 20.40625 
Q 61.53125 10.640625 54.890625 5.3125 
Q 48.25 0 35.984375 0 
L 9.8125 0 
z
" id="DejaVuSans-66"/>
     <path d="M 44.28125 53.078125 
L 44.28125 44.578125 
Q 40.484375 46.53125 36.375 47.5 
Q 32.28125 48.484375 27.875 48.484375 
Q 21.1875 48.484375 17.84375 46.4375 
Q 14.5 44.390625 14.5 40.28125 
Q 14.5 37.15625 16.890625 35.375 
Q 19.28125 33.59375 26.515625 31.984375 
L 29.59375 31.296875 
Q 39.15625 29.25 43.1875 25.515625 
Q 47.21875 21.78125 47.21875 15.09375 
Q 47.21875 7.46875 41.1875 3.015625 
Q 35.15625 -1.421875 24.609375 -1.421875 
Q 20.21875 -1.421875 15.453125 -0.5625 
Q 10.6875 0.296875 5.421875 2 
L 5.421875 11.28125 
Q 10.40625 8.6875 15.234375 7.390625 
Q 20.0625 6.109375 24.8125 6.109375 
Q 31.15625 6.109375 34.5625 8.28125 
Q 37.984375 10.453125 37.984375 14.40625 
Q 37.984375 18.0625 35.515625 20.015625 
Q 33.0625 21.96875 24.703125 23.78125 
L 21.578125 24.515625 
Q 13.234375 26.265625 9.515625 29.90625 
Q 5.8125 33.546875 5.8125 39.890625 
Q 5.8125 47.609375 11.28125 51.796875 
Q 16.75 56 26.8125 56 
Q 31.78125 56 36.171875 55.265625 
Q 40.578125 54.546875 44.28125 53.078125 
z
" id="DejaVuSans-115"/>
    </defs>
    <use xlink:href="#DejaVuSans-66"/>
    <use x="68.603516" xlink:href="#DejaVuSans-114"/>
    <use x="107.466797" xlink:href="#DejaVuSans-111"/>
    <use x="168.648438" xlink:href="#DejaVuSans-110"/>
    <use x="232.027344" xlink:href="#DejaVuSans-58"/>
    <use x="265.71875" xlink:href="#DejaVuSans-32"/>
    <use x="297.505859" xlink:href="#DejaVuSans-104"/>
    <use x="360.884766" xlink:href="#DejaVuSans-116"/>
    <use x="400.09375" xlink:href="#DejaVuSans-116"/>
    <use x="439.302734" xlink:href="#DejaVuSans-112"/>
    <use x="502.779297" xlink:href="#DejaVuSans-115"/>
    <use x="554.878906" xlink:href="#DejaVuSans-58"/>
    <use x="588.570312" xlink:href="#DejaVuSans-47"/>
    <use x="622.261719" xlink:href="#DejaVuSans-47"/>
    <use x="655.953125" xlink:href="#DejaVuSans-100"/>
    <use x="719.429688" xlink:href="#DejaVuSans-97"/>
    <use x="780.708984" xlink:href="#DejaVuSans-116"/>
    <use x="819.917969" xlink:href="#DejaVuSans-97"/>
    <use x="881.197266" xlink:href="#DejaVuSans-46"/>
    <use x="912.984375" xlink:href="#DejaVuSans-114"/>
    <use x="954.097656" xlink:href="#DejaVuSans-105"/>
    <use x="981.880859" xlink:href="#DejaVuSans-118"/>
    <use x="1041.060547" xlink:href="#DejaVuSans-109"/>
    <use x="1138.472656" xlink:href="#DejaVuSans-46"/>
    <use x="1170.259766" xlink:href="#DejaVuSans-110"/>
    <use x="1233.638672" xlink:href="#DejaVuSans-108"/>
    <use x="1261.421875" xlink:href="#DejaVuSans-47"/>
    <use x="1295.113281" xlink:href="#DejaVuSans-99"/>
    <use x="1350.09375" xlink:href="#DejaVuSans-111"/>
    <use x="1411.275391" xlink:href="#DejaVuSans-118"/>
    <use x="1470.455078" xlink:href="#DejaVuSans-105"/>
    <use x="1498.238281" xlink:href="#DejaVuSans-100"/>
    <use x="1561.714844" xlink:href="#DejaVuSans-45"/>
    <use x="1597.798828" xlink:href="#DejaVuSans-49"/>
    <use x="1661.421875" xlink:href="#DejaVuSans-57"/>
   </g>
  </g>
  <g id="text_22">
   <g id="patch_8">
    <path d="M 637.2 176.62375 
L 647.38 176.62375 
L 647.38 168.88125 
L 637.2 168.88125 
z
" style="fill:#ffffff;opacity:0.9;stroke:#ffffff;stroke-linejoin:miter;"/>
   </g>
   <!-- 30 -->
   <g style="fill:#ff0000;" transform="translate(637.2 174.96)scale(0.08 -0.08)">
    <use xlink:href="#DejaVuSans-51"/>
    <use x="63.623047" xlink:href="#DejaVuSans-48"/>
   </g>
  </g>
  <g id="text_23">
   <g id="patch_9">
    <path d="M 176 92.479688 
L 303.317187 92.479688 
L 303.317187 74.801563 
L 176 74.801563 
z
" style="fill:#ffffff;stroke:#ffffff;stroke-linejoin:miter;"/>
   </g>
   <!-- "Je plee liegt niet" - Rolf -->
   <g style="fill:#808080;" transform="translate(180 86.4)scale(0.1 -0.1)">
    <defs>
     <path d="M 17.921875 72.90625 
L 17.921875 45.796875 
L 9.625 45.796875 
L 9.625 72.90625 
z
M 36.375 72.90625 
L 36.375 45.796875 
L 28.078125 45.796875 
L 28.078125 72.90625 
z
" id="DejaVuSans-34"/>
     <path d="M 9.8125 72.90625 
L 19.671875 72.90625 
L 19.671875 5.078125 
Q 19.671875 -8.109375 14.671875 -14.0625 
Q 9.671875 -20.015625 -1.421875 -20.015625 
L -5.171875 -20.015625 
L -5.171875 -11.71875 
L -2.09375 -11.71875 
Q 4.4375 -11.71875 7.125 -8.046875 
Q 9.8125 -4.390625 9.8125 5.078125 
z
" id="DejaVuSans-74"/>
    </defs>
    <use xlink:href="#DejaVuSans-34"/>
    <use x="45.996094" xlink:href="#DejaVuSans-74"/>
    <use x="75.488281" xlink:href="#DejaVuSans-101"/>
    <use x="137.011719" xlink:href="#DejaVuSans-32"/>
    <use x="168.798828" xlink:href="#DejaVuSans-112"/>
    <use x="232.275391" xlink:href="#DejaVuSans-108"/>
    <use x="260.058594" xlink:href="#DejaVuSans-101"/>
    <use x="321.582031" xlink:href="#DejaVuSans-101"/>
    <use x="383.105469" xlink:href="#DejaVuSans-32"/>
    <use x="414.892578" xlink:href="#DejaVuSans-108"/>
    <use x="442.675781" xlink:href="#DejaVuSans-105"/>
    <use x="470.458984" xlink:href="#DejaVuSans-101"/>
    <use x="531.982422" xlink:href="#DejaVuSans-103"/>
    <use x="595.458984" xlink:href="#DejaVuSans-116"/>
    <use x="634.667969" xlink:href="#DejaVuSans-32"/>
    <use x="666.455078" xlink:href="#DejaVuSans-110"/>
    <use x="729.833984" xlink:href="#DejaVuSans-105"/>
    <use x="757.617188" xlink:href="#DejaVuSans-101"/>
    <use x="819.140625" xlink:href="#DejaVuSans-116"/>
    <use x="858.349609" xlink:href="#DejaVuSans-34"/>
    <use x="904.345703" xlink:href="#DejaVuSans-32"/>
    <use x="936.132812" xlink:href="#DejaVuSans-45"/>
    <use x="972.216797" xlink:href="#DejaVuSans-32"/>
    <use x="1004.003906" xlink:href="#DejaVuSans-82"/>
    <use x="1068.986328" xlink:href="#DejaVuSans-111"/>
    <use x="1130.167969" xlink:href="#DejaVuSans-108"/>
    <use x="1157.951172" xlink:href="#DejaVuSans-102"/>
   </g>
  </g>
 </g>
 <defs>
  <clipPath id="p8e5da54d8e">
   <rect height="146.88" width="590.4" x="64.8" y="25.92"/>
  </clipPath>
 </defs>
</svg>
