<?xml version="1.0" encoding="utf-8" standalone="no"?>
<!DOCTYPE svg PUBLIC "-//W3C//DTD SVG 1.1//EN"
  "http://www.w3.org/Graphics/SVG/1.1/DTD/svg11.dtd">
<!-- Created with matplotlib (https://matplotlib.org/) -->
<svg height="216pt" version="1.1" viewBox="0 0 720 216" width="720pt" xmlns="http://www.w3.org/2000/svg" xmlns:xlink="http://www.w3.org/1999/xlink">
 <metadata>
  <rdf:RDF xmlns:cc="http://creativecommons.org/ns#" xmlns:dc="http://purl.org/dc/elements/1.1/" xmlns:rdf="http://www.w3.org/1999/02/22-rdf-syntax-ns#">
   <cc:Work>
    <dc:type rdf:resource="http://purl.org/dc/dcmitype/StillImage"/>
    <dc:date>2023-07-05T17:38:05.643360</dc:date>
    <dc:format>image/svg+xml</dc:format>
    <dc:creator>
     <cc:Agent>
      <dc:title>Matplotlib v3.3.2, https://matplotlib.org/</dc:title>
     </cc:Agent>
    </dc:creator>
   </cc:Work>
  </rdf:RDF>
 </metadata>
 <defs>
  <style type="text/css">*{stroke-linecap:butt;stroke-linejoin:round;}</style>
 </defs>
 <g id="figure_1">
  <g id="patch_1">
   <path d="M 0 216 
L 720 216 
L 720 0 
L 0 0 
z
" style="fill:#ffffff;"/>
  </g>
  <g id="axes_1">
   <g id="patch_2">
    <path d="M 64.8 172.8 
L 655.2 172.8 
L 655.2 25.92 
L 64.8 25.92 
z
" style="fill:#ffffff;"/>
   </g>
   <g id="PolyCollection_1">
    <path clip-path="url(#p6b5c4e3156)" d="M 64.8 172.8 
L 64.8 172.8 
L 66.421978 172.8 
L 68.043956 172.8 
L 69.665934 172.8 
L 71.287912 172.8 
L 72.90989 172.8 
L 74.531868 172.8 
L 76.153846 172.8 
L 77.775824 172.8 
L 79.397802 172.8 
L 81.01978 172.8 
L 82.641758 172.8 
L 84.263736 172.8 
L 85.885714 172.8 
L 87.507692 172.8 
L 89.12967 172.8 
L 90.751648 172.8 
L 92.373626 172.8 
L 93.995604 172.8 
L 95.617582 172.8 
L 97.23956 172.8 
L 98.861538 172.8 
L 100.483516 172.8 
L 102.105495 172.8 
L 103.727473 172.8 
L 105.349451 172.8 
L 106.971429 172.8 
L 108.593407 172.8 
L 110.215385 172.8 
L 111.837363 172.8 
L 113.459341 172.8 
L 115.081319 172.8 
L 116.703297 172.8 
L 118.325275 172.8 
L 119.947253 172.8 
L 121.569231 172.8 
L 123.191209 172.8 
L 124.813187 172.8 
L 126.435165 172.8 
L 128.057143 172.8 
L 129.679121 172.8 
L 131.301099 172.8 
L 132.923077 172.8 
L 134.545055 172.8 
L 136.167033 172.8 
L 137.789011 172.8 
L 139.410989 172.8 
L 141.032967 172.8 
L 142.654945 172.8 
L 144.276923 172.8 
L 145.898901 172.8 
L 147.520879 172.8 
L 149.142857 172.8 
L 150.764835 172.8 
L 152.386813 172.8 
L 154.008791 172.8 
L 155.630769 172.8 
L 157.252747 172.8 
L 158.874725 172.8 
L 160.496703 172.8 
L 162.118681 172.8 
L 163.740659 172.8 
L 165.362637 172.8 
L 166.984615 172.8 
L 168.606593 172.8 
L 170.228571 172.8 
L 171.850549 172.8 
L 173.472527 172.8 
L 175.094505 172.8 
L 176.716484 172.8 
L 178.338462 172.8 
L 179.96044 172.8 
L 181.582418 172.8 
L 183.204396 172.8 
L 184.826374 172.8 
L 186.448352 172.8 
L 189.692308 172.8 
L 191.314286 172.8 
L 192.936264 172.8 
L 194.558242 172.8 
L 196.18022 172.8 
L 197.802198 172.8 
L 199.424176 172.8 
L 201.046154 172.8 
L 202.668132 172.8 
L 204.29011 172.8 
L 205.912088 172.8 
L 207.534066 172.8 
L 209.156044 172.8 
L 210.778022 172.8 
L 212.4 172.8 
L 214.021978 172.8 
L 215.643956 172.8 
L 217.265934 172.8 
L 218.887912 172.8 
L 220.50989 172.8 
L 222.131868 172.8 
L 223.753846 172.8 
L 225.375824 172.8 
L 226.997802 172.8 
L 228.61978 172.8 
L 230.241758 172.8 
L 231.863736 172.8 
L 233.485714 172.8 
L 235.107692 172.8 
L 236.72967 172.8 
L 238.351648 172.8 
L 239.973626 172.8 
L 241.595604 172.8 
L 243.217582 172.8 
L 244.83956 172.8 
L 246.461538 172.8 
L 248.083516 172.8 
L 249.705495 172.8 
L 251.327473 172.8 
L 252.949451 172.8 
L 254.571429 172.8 
L 256.193407 172.8 
L 257.815385 172.8 
L 259.437363 172.8 
L 261.059341 172.8 
L 262.681319 172.8 
L 264.303297 172.8 
L 265.925275 172.8 
L 267.547253 172.8 
L 269.169231 172.8 
L 270.791209 172.8 
L 272.413187 172.8 
L 274.035165 172.8 
L 275.657143 172.8 
L 277.279121 172.8 
L 278.901099 172.8 
L 280.523077 172.8 
L 282.145055 172.8 
L 283.767033 172.8 
L 285.389011 172.8 
L 287.010989 172.8 
L 288.632967 172.8 
L 290.254945 172.8 
L 291.876923 172.8 
L 293.498901 172.8 
L 295.120879 172.8 
L 296.742857 172.8 
L 298.364835 172.8 
L 299.986813 172.8 
L 301.608791 172.8 
L 303.230769 172.8 
L 304.852747 172.8 
L 306.474725 172.8 
L 308.096703 172.8 
L 309.718681 172.8 
L 311.340659 172.8 
L 312.962637 172.8 
L 314.584615 172.8 
L 316.206593 172.8 
L 317.828571 172.8 
L 319.450549 172.8 
L 321.072527 172.8 
L 322.694505 172.8 
L 324.316484 172.8 
L 325.938462 172.8 
L 327.56044 172.8 
L 329.182418 172.8 
L 330.804396 172.8 
L 332.426374 172.8 
L 334.048352 172.8 
L 335.67033 172.8 
L 337.292308 172.8 
L 338.914286 172.8 
L 340.536264 172.8 
L 342.158242 172.8 
L 343.78022 172.8 
L 345.402198 172.8 
L 347.024176 172.8 
L 348.646154 172.8 
L 350.268132 172.8 
L 351.89011 172.8 
L 353.512088 172.8 
L 355.134066 172.8 
L 356.756044 172.8 
L 358.378022 172.8 
L 360 172.8 
L 361.621978 172.8 
L 363.243956 172.8 
L 364.865934 172.8 
L 366.487912 172.8 
L 368.10989 172.8 
L 369.731868 172.8 
L 371.353846 172.8 
L 372.975824 172.8 
L 374.597802 172.8 
L 376.21978 172.8 
L 377.841758 172.8 
L 379.463736 172.8 
L 381.085714 172.8 
L 382.707692 172.8 
L 384.32967 172.8 
L 385.951648 172.8 
L 387.573626 172.8 
L 389.195604 172.8 
L 390.817582 172.8 
L 392.43956 172.8 
L 394.061538 172.8 
L 395.683516 172.8 
L 397.305495 172.8 
L 398.927473 172.8 
L 400.549451 172.8 
L 402.171429 172.8 
L 403.793407 172.8 
L 405.415385 172.8 
L 407.037363 172.8 
L 408.659341 172.8 
L 410.281319 172.8 
L 411.903297 172.8 
L 413.525275 172.8 
L 415.147253 172.8 
L 416.769231 172.8 
L 418.391209 172.8 
L 420.013187 172.8 
L 421.635165 172.8 
L 423.257143 172.8 
L 424.879121 172.8 
L 426.501099 172.8 
L 428.123077 172.8 
L 429.745055 172.8 
L 431.367033 172.8 
L 432.989011 172.8 
L 434.610989 172.8 
L 436.232967 172.8 
L 437.854945 172.8 
L 439.476923 172.8 
L 441.098901 172.8 
L 442.720879 172.8 
L 444.342857 172.8 
L 445.964835 172.8 
L 447.586813 172.8 
L 449.208791 172.8 
L 450.830769 172.8 
L 452.452747 172.8 
L 454.074725 172.8 
L 455.696703 172.8 
L 457.318681 172.8 
L 458.940659 172.8 
L 460.562637 172.8 
L 462.184615 172.8 
L 463.806593 172.8 
L 465.428571 172.8 
L 467.050549 172.8 
L 468.672527 172.8 
L 470.294505 172.8 
L 471.916484 172.8 
L 473.538462 172.8 
L 475.16044 172.8 
L 476.782418 172.8 
L 478.404396 172.8 
L 480.026374 172.8 
L 481.648352 172.8 
L 483.27033 172.8 
L 484.892308 172.8 
L 486.514286 172.8 
L 488.136264 172.8 
L 489.758242 172.8 
L 491.38022 172.8 
L 493.002198 172.8 
L 494.624176 172.8 
L 496.246154 172.8 
L 497.868132 172.8 
L 499.49011 172.8 
L 501.112088 172.8 
L 502.734066 172.8 
L 504.356044 172.8 
L 505.978022 172.8 
L 507.6 172.8 
L 509.221978 172.8 
L 510.843956 172.8 
L 512.465934 172.8 
L 514.087912 172.8 
L 515.70989 172.8 
L 517.331868 172.8 
L 518.953846 172.8 
L 520.575824 172.8 
L 522.197802 172.8 
L 523.81978 172.8 
L 525.441758 172.8 
L 527.063736 172.8 
L 528.685714 172.8 
L 530.307692 172.8 
L 531.92967 172.8 
L 533.551648 172.8 
L 535.173626 172.8 
L 536.795604 172.8 
L 538.417582 172.8 
L 540.03956 172.8 
L 541.661538 172.8 
L 543.283516 172.8 
L 544.905495 172.8 
L 546.527473 172.8 
L 548.149451 172.8 
L 549.771429 172.8 
L 551.393407 172.8 
L 553.015385 172.8 
L 554.637363 172.8 
L 556.259341 172.8 
L 557.881319 172.8 
L 559.503297 172.8 
L 561.125275 172.8 
L 562.747253 172.8 
L 564.369231 172.8 
L 565.991209 172.8 
L 567.613187 172.8 
L 569.235165 172.8 
L 570.857143 172.8 
L 572.479121 172.8 
L 574.101099 172.8 
L 575.723077 172.8 
L 577.345055 172.8 
L 578.967033 172.8 
L 580.589011 172.8 
L 582.210989 172.8 
L 583.832967 172.8 
L 585.454945 172.8 
L 587.076923 172.8 
L 588.698901 172.8 
L 590.320879 172.8 
L 591.942857 172.8 
L 593.564835 172.8 
L 595.186813 172.8 
L 596.808791 172.8 
L 598.430769 172.8 
L 600.052747 172.8 
L 601.674725 172.8 
L 603.296703 172.8 
L 604.918681 172.8 
L 606.540659 172.8 
L 608.162637 172.8 
L 609.784615 172.8 
L 611.406593 172.8 
L 613.028571 172.8 
L 614.650549 172.8 
L 616.272527 172.8 
L 617.894505 172.8 
L 619.516484 172.8 
L 621.138462 172.8 
L 622.76044 172.8 
L 624.382418 172.8 
L 626.004396 172.8 
L 627.626374 172.8 
L 629.248352 172.8 
L 630.87033 172.8 
L 632.492308 172.8 
L 634.114286 172.8 
L 635.736264 172.8 
L 635.736264 172.8 
L 635.736264 169.458046 
L 634.114286 169.697055 
L 632.492308 169.053447 
L 630.87033 170.411175 
L 629.248352 169.97324 
L 627.626374 167.38817 
L 626.004396 170.055798 
L 624.382418 169.161489 
L 622.76044 169.998048 
L 621.138462 166.261691 
L 619.516484 170.068474 
L 617.894505 168.927718 
L 616.272527 169.084329 
L 614.650549 168.509084 
L 613.028571 170.290914 
L 611.406593 169.288954 
L 609.784615 168.293831 
L 608.162637 169.970395 
L 606.540659 168.821549 
L 604.918681 166.895969 
L 603.296703 167.43567 
L 601.674725 168.524217 
L 600.052747 166.850148 
L 598.430769 166.897278 
L 596.808791 169.10873 
L 595.186813 167.470073 
L 593.564835 167.029774 
L 591.942857 168.19445 
L 590.320879 166.378803 
L 588.698901 166.462243 
L 587.076923 167.164845 
L 585.454945 166.80108 
L 583.832967 163.607488 
L 582.210989 165.077693 
L 580.589011 166.943035 
L 578.967033 165.736539 
L 577.345055 166.206441 
L 575.723077 165.270405 
L 574.101099 165.216987 
L 572.479121 165.021535 
L 570.857143 160.502034 
L 569.235165 160.967873 
L 567.613187 163.807892 
L 565.991209 163.478407 
L 564.369231 164.774056 
L 562.747253 163.265 
L 561.125275 161.173583 
L 559.503297 156.11961 
L 557.881319 155.11324 
L 556.259341 161.047133 
L 554.637363 161.308488 
L 553.015385 140.553231 
L 551.393407 155.920905 
L 549.771429 152.729302 
L 548.149451 146.961117 
L 546.527473 140.315322 
L 544.905495 154.518188 
L 543.283516 150.493561 
L 541.661538 139.233083 
L 540.03956 149.609614 
L 538.417582 147.367827 
L 536.795604 146.665928 
L 535.173626 147.557719 
L 533.551648 153.276315 
L 531.92967 143.66731 
L 530.307692 148.419989 
L 528.685714 140.204984 
L 527.063736 143.416122 
L 525.441758 129.644701 
L 523.81978 143.645445 
L 522.197802 148.991083 
L 520.575824 145.473022 
L 518.953846 144.88818 
L 517.331868 143.249269 
L 515.70989 142.745195 
L 514.087912 136.671146 
L 512.465934 132.068593 
L 510.843956 141.756853 
L 509.221978 114.450825 
L 507.6 118.294779 
L 505.978022 116.044483 
L 504.356044 134.875287 
L 502.734066 127.439619 
L 501.112088 135.138684 
L 499.49011 118.682743 
L 497.868132 125.544172 
L 496.246154 134.885671 
L 494.624176 134.965865 
L 493.002198 132.29411 
L 491.38022 111.58027 
L 489.758242 92.163134 
L 488.136264 110.448562 
L 486.514286 109.429067 
L 484.892308 108.680285 
L 483.27033 124.766514 
L 481.648352 105.425281 
L 480.026374 97.958164 
L 478.404396 112.460512 
L 476.782418 86.45237 
L 475.16044 76.269544 
L 473.538462 93.082956 
L 471.916484 92.697402 
L 470.294505 94.02813 
L 468.672527 80.659461 
L 467.050549 62.091658 
L 465.428571 87.580699 
L 463.806593 116.713331 
L 462.184615 99.923162 
L 460.562637 106.200324 
L 458.940659 85.28136 
L 457.318681 89.54184 
L 455.696703 98.100849 
L 454.074725 66.225587 
L 452.452747 88.925844 
L 450.830769 86.109814 
L 449.208791 53.54267 
L 447.586813 55.806053 
L 445.964835 79.847661 
L 444.342857 60.740716 
L 442.720879 80.792526 
L 441.098901 86.322053 
L 439.476923 99.216455 
L 437.854945 77.22886 
L 436.232967 59.9218 
L 434.610989 88.978202 
L 432.989011 65.524568 
L 431.367033 99.889765 
L 429.745055 88.215863 
L 428.123077 120.776197 
L 426.501099 112.240195 
L 424.879121 104.037807 
L 423.257143 101.461696 
L 421.635165 115.402425 
L 420.013187 110.725269 
L 418.391209 118.891136 
L 416.769231 134.686905 
L 415.147253 132.365006 
L 413.525275 135.148207 
L 411.903297 136.791587 
L 410.281319 137.805681 
L 408.659341 146.533221 
L 407.037363 135.699123 
L 405.415385 144.218387 
L 403.793407 141.838698 
L 402.171429 130.66831 
L 400.549451 137.674864 
L 398.927473 135.535477 
L 397.305495 129.831699 
L 395.683516 134.25673 
L 394.061538 146.235343 
L 392.43956 149.191155 
L 390.817582 150.133269 
L 389.195604 153.036403 
L 387.573626 154.025118 
L 385.951648 149.88676 
L 384.32967 149.95891 
L 382.707692 154.214783 
L 381.085714 153.999189 
L 379.463736 155.169105 
L 377.841758 153.593165 
L 376.21978 155.794323 
L 374.597802 152.099898 
L 372.975824 151.274025 
L 371.353846 154.087234 
L 369.731868 145.519368 
L 368.10989 148.277647 
L 366.487912 138.325995 
L 364.865934 146.532388 
L 363.243956 136.749163 
L 361.621978 136.244566 
L 360 131.496719 
L 358.378022 131.254152 
L 356.756044 138.433698 
L 355.134066 132.141704 
L 353.512088 118.726987 
L 351.89011 127.821304 
L 350.268132 118.061167 
L 348.646154 96.015869 
L 347.024176 117.575132 
L 345.402198 83.933681 
L 343.78022 53.082845 
L 342.158242 60.021739 
L 340.536264 72.341416 
L 338.914286 31.917591 
L 337.292308 81.291269 
L 335.67033 82.602842 
L 334.048352 38.132152 
L 332.426374 77.519606 
L 330.804396 75.325251 
L 329.182418 55.96032 
L 327.56044 81.656698 
L 325.938462 55.85214 
L 324.316484 52.340409 
L 322.694505 51.988167 
L 321.072527 70.138288 
L 319.450549 68.77645 
L 317.828571 87.700983 
L 316.206593 93.220067 
L 314.584615 115.675055 
L 312.962637 121.785554 
L 311.340659 117.939229 
L 309.718681 119.397855 
L 308.096703 132.571137 
L 306.474725 124.726307 
L 304.852747 120.007641 
L 303.230769 120.229744 
L 301.608791 121.283271 
L 299.986813 118.075592 
L 298.364835 125.393955 
L 296.742857 129.18063 
L 295.120879 125.07812 
L 293.498901 124.630872 
L 291.876923 127.180802 
L 290.254945 128.510684 
L 288.632967 102.217031 
L 287.010989 126.175431 
L 285.389011 132.561424 
L 283.767033 120.218791 
L 282.145055 115.594338 
L 280.523077 132.899598 
L 278.901099 136.914957 
L 277.279121 118.396514 
L 275.657143 143.150499 
L 274.035165 126.741787 
L 272.413187 124.588115 
L 270.791209 118.944397 
L 269.169231 118.611776 
L 267.547253 138.378014 
L 265.925275 134.502517 
L 264.303297 127.479953 
L 262.681319 136.106556 
L 261.059341 140.787401 
L 259.437363 132.998186 
L 257.815385 140.662216 
L 256.193407 143.32667 
L 254.571429 111.888143 
L 252.949451 141.262693 
L 251.327473 114.71402 
L 249.705495 103.913447 
L 248.083516 128.527621 
L 246.461538 121.155139 
L 244.83956 131.302305 
L 243.217582 117.718169 
L 241.595604 123.356473 
L 239.973626 120.593349 
L 238.351648 115.608899 
L 236.72967 109.318246 
L 235.107692 113.57724 
L 233.485714 96.108775 
L 231.863736 88.827475 
L 230.241758 100.043453 
L 228.61978 95.412796 
L 226.997802 67.99978 
L 225.375824 95.519445 
L 223.753846 103.346912 
L 222.131868 59.985324 
L 220.50989 97.820629 
L 218.887912 84.902438 
L 217.265934 78.411109 
L 215.643956 77.679248 
L 214.021978 99.498112 
L 212.4 99.129124 
L 210.778022 93.221642 
L 209.156044 79.896175 
L 207.534066 54.83259 
L 205.912088 76.122359 
L 204.29011 82.618573 
L 202.668132 70.040973 
L 201.046154 85.362102 
L 199.424176 98.756281 
L 197.802198 100.590529 
L 196.18022 79.78328 
L 194.558242 93.256478 
L 192.936264 113.779556 
L 191.314286 114.462391 
L 189.692308 108.052961 
L 186.448352 117.525343 
L 184.826374 116.108346 
L 183.204396 115.661374 
L 181.582418 131.586443 
L 179.96044 132.563626 
L 178.338462 138.280105 
L 176.716484 142.303513 
L 175.094505 125.715245 
L 173.472527 132.502824 
L 171.850549 118.515659 
L 170.228571 138.835115 
L 168.606593 147.495441 
L 166.984615 148.575117 
L 165.362637 151.232041 
L 163.740659 149.767852 
L 162.118681 148.530647 
L 160.496703 137.698874 
L 158.874725 139.754846 
L 157.252747 137.882136 
L 155.630769 133.058061 
L 154.008791 140.955523 
L 152.386813 142.035559 
L 150.764835 140.750611 
L 149.142857 142.610576 
L 147.520879 143.984583 
L 145.898901 149.019596 
L 144.276923 149.293441 
L 142.654945 152.740434 
L 141.032967 146.053269 
L 139.410989 152.138461 
L 137.789011 147.343297 
L 136.167033 148.661051 
L 134.545055 145.095937 
L 132.923077 144.065675 
L 131.301099 147.751902 
L 129.679121 145.171967 
L 128.057143 145.694218 
L 126.435165 146.229413 
L 124.813187 155.008021 
L 123.191209 139.253374 
L 121.569231 141.492639 
L 119.947253 147.606857 
L 118.325275 141.175505 
L 116.703297 147.644329 
L 115.081319 140.363275 
L 113.459341 144.178144 
L 111.837363 146.248188 
L 110.215385 144.660552 
L 108.593407 145.75712 
L 106.971429 145.332584 
L 105.349451 133.649128 
L 103.727473 137.083159 
L 102.105495 135.861486 
L 100.483516 138.934166 
L 98.861538 131.827173 
L 97.23956 126.656377 
L 95.617582 109.731954 
L 93.995604 128.686733 
L 92.373626 97.289114 
L 90.751648 119.245713 
L 89.12967 124.313418 
L 87.507692 116.166119 
L 85.885714 123.457773 
L 84.263736 116.664748 
L 82.641758 117.600887 
L 81.01978 112.251733 
L 79.397802 66.103491 
L 77.775824 101.557434 
L 76.153846 86.088274 
L 74.531868 95.543365 
L 72.90989 99.500029 
L 71.287912 86.786189 
L 69.665934 80.654965 
L 68.043956 85.02913 
L 66.421978 87.023771 
L 64.8 94.551398 
z
" style="fill:#008000;fill-opacity:0.3;"/>
   </g>
   <g id="matplotlib.axis_1">
    <g id="xtick_1">
     <g id="line2d_1">
      <path clip-path="url(#p6b5c4e3156)" d="M 97.23956 172.8 
L 97.23956 25.92 
" style="fill:none;stroke:#808080;stroke-dasharray:6.4,1.6,1,1.6;stroke-dashoffset:0;stroke-opacity:0.3;"/>
     </g>
     <g id="line2d_2">
      <defs>
       <path d="M 0 0 
L 0 3.5 
" id="m206d832cd8" style="stroke:#000000;stroke-width:0.8;"/>
      </defs>
      <g>
       <use style="stroke:#000000;stroke-width:0.8;" x="97.23956" xlink:href="#m206d832cd8" y="172.8"/>
      </g>
     </g>
     <g id="text_1">
      <!-- 2022-08 -->
      <g transform="translate(76.348154 187.398438)scale(0.1 -0.1)">
       <defs>
        <path d="M 19.1875 8.296875 
L 53.609375 8.296875 
L 53.609375 0 
L 7.328125 0 
L 7.328125 8.296875 
Q 12.9375 14.109375 22.625 23.890625 
Q 32.328125 33.6875 34.8125 36.53125 
Q 39.546875 41.84375 41.421875 45.53125 
Q 43.3125 49.21875 43.3125 52.78125 
Q 43.3125 58.59375 39.234375 62.25 
Q 35.15625 65.921875 28.609375 65.921875 
Q 23.96875 65.921875 18.8125 64.3125 
Q 13.671875 62.703125 7.8125 59.421875 
L 7.8125 69.390625 
Q 13.765625 71.78125 18.9375 73 
Q 24.125 74.21875 28.421875 74.21875 
Q 39.75 74.21875 46.484375 68.546875 
Q 53.21875 62.890625 53.21875 53.421875 
Q 53.21875 48.921875 51.53125 44.890625 
Q 49.859375 40.875 45.40625 35.40625 
Q 44.1875 33.984375 37.640625 27.21875 
Q 31.109375 20.453125 19.1875 8.296875 
z
" id="DejaVuSans-50"/>
        <path d="M 31.78125 66.40625 
Q 24.171875 66.40625 20.328125 58.90625 
Q 16.5 51.421875 16.5 36.375 
Q 16.5 21.390625 20.328125 13.890625 
Q 24.171875 6.390625 31.78125 6.390625 
Q 39.453125 6.390625 43.28125 13.890625 
Q 47.125 21.390625 47.125 36.375 
Q 47.125 51.421875 43.28125 58.90625 
Q 39.453125 66.40625 31.78125 66.40625 
z
M 31.78125 74.21875 
Q 44.046875 74.21875 50.515625 64.515625 
Q 56.984375 54.828125 56.984375 36.375 
Q 56.984375 17.96875 50.515625 8.265625 
Q 44.046875 -1.421875 31.78125 -1.421875 
Q 19.53125 -1.421875 13.0625 8.265625 
Q 6.59375 17.96875 6.59375 36.375 
Q 6.59375 54.828125 13.0625 64.515625 
Q 19.53125 74.21875 31.78125 74.21875 
z
" id="DejaVuSans-48"/>
        <path d="M 4.890625 31.390625 
L 31.203125 31.390625 
L 31.203125 23.390625 
L 4.890625 23.390625 
z
" id="DejaVuSans-45"/>
        <path d="M 31.78125 34.625 
Q 24.75 34.625 20.71875 30.859375 
Q 16.703125 27.09375 16.703125 20.515625 
Q 16.703125 13.921875 20.71875 10.15625 
Q 24.75 6.390625 31.78125 6.390625 
Q 38.8125 6.390625 42.859375 10.171875 
Q 46.921875 13.96875 46.921875 20.515625 
Q 46.921875 27.09375 42.890625 30.859375 
Q 38.875 34.625 31.78125 34.625 
z
M 21.921875 38.8125 
Q 15.578125 40.375 12.03125 44.71875 
Q 8.5 49.078125 8.5 55.328125 
Q 8.5 64.0625 14.71875 69.140625 
Q 20.953125 74.21875 31.78125 74.21875 
Q 42.671875 74.21875 48.875 69.140625 
Q 55.078125 64.0625 55.078125 55.328125 
Q 55.078125 49.078125 51.53125 44.71875 
Q 48 40.375 41.703125 38.8125 
Q 48.828125 37.15625 52.796875 32.3125 
Q 56.78125 27.484375 56.78125 20.515625 
Q 56.78125 9.90625 50.3125 4.234375 
Q 43.84375 -1.421875 31.78125 -1.421875 
Q 19.734375 -1.421875 13.25 4.234375 
Q 6.78125 9.90625 6.78125 20.515625 
Q 6.78125 27.484375 10.78125 32.3125 
Q 14.796875 37.15625 21.921875 38.8125 
z
M 18.3125 54.390625 
Q 18.3125 48.734375 21.84375 45.5625 
Q 25.390625 42.390625 31.78125 42.390625 
Q 38.140625 42.390625 41.71875 45.5625 
Q 45.3125 48.734375 45.3125 54.390625 
Q 45.3125 60.0625 41.71875 63.234375 
Q 38.140625 66.40625 31.78125 66.40625 
Q 25.390625 66.40625 21.84375 63.234375 
Q 18.3125 60.0625 18.3125 54.390625 
z
" id="DejaVuSans-56"/>
       </defs>
       <use xlink:href="#DejaVuSans-50"/>
       <use x="63.623047" xlink:href="#DejaVuSans-48"/>
       <use x="127.246094" xlink:href="#DejaVuSans-50"/>
       <use x="190.869141" xlink:href="#DejaVuSans-50"/>
       <use x="254.492188" xlink:href="#DejaVuSans-45"/>
       <use x="290.576172" xlink:href="#DejaVuSans-48"/>
       <use x="354.199219" xlink:href="#DejaVuSans-56"/>
      </g>
     </g>
    </g>
    <g id="xtick_2">
     <g id="line2d_3">
      <path clip-path="url(#p6b5c4e3156)" d="M 147.520879 172.8 
L 147.520879 25.92 
" style="fill:none;stroke:#808080;stroke-dasharray:6.4,1.6,1,1.6;stroke-dashoffset:0;stroke-opacity:0.3;"/>
     </g>
     <g id="line2d_4">
      <g>
       <use style="stroke:#000000;stroke-width:0.8;" x="147.520879" xlink:href="#m206d832cd8" y="172.8"/>
      </g>
     </g>
     <g id="text_2">
      <!-- 2022-09 -->
      <g transform="translate(126.629473 187.398438)scale(0.1 -0.1)">
       <defs>
        <path d="M 10.984375 1.515625 
L 10.984375 10.5 
Q 14.703125 8.734375 18.5 7.8125 
Q 22.3125 6.890625 25.984375 6.890625 
Q 35.75 6.890625 40.890625 13.453125 
Q 46.046875 20.015625 46.78125 33.40625 
Q 43.953125 29.203125 39.59375 26.953125 
Q 35.25 24.703125 29.984375 24.703125 
Q 19.046875 24.703125 12.671875 31.3125 
Q 6.296875 37.9375 6.296875 49.421875 
Q 6.296875 60.640625 12.9375 67.421875 
Q 19.578125 74.21875 30.609375 74.21875 
Q 43.265625 74.21875 49.921875 64.515625 
Q 56.59375 54.828125 56.59375 36.375 
Q 56.59375 19.140625 48.40625 8.859375 
Q 40.234375 -1.421875 26.421875 -1.421875 
Q 22.703125 -1.421875 18.890625 -0.6875 
Q 15.09375 0.046875 10.984375 1.515625 
z
M 30.609375 32.421875 
Q 37.25 32.421875 41.125 36.953125 
Q 45.015625 41.5 45.015625 49.421875 
Q 45.015625 57.28125 41.125 61.84375 
Q 37.25 66.40625 30.609375 66.40625 
Q 23.96875 66.40625 20.09375 61.84375 
Q 16.21875 57.28125 16.21875 49.421875 
Q 16.21875 41.5 20.09375 36.953125 
Q 23.96875 32.421875 30.609375 32.421875 
z
" id="DejaVuSans-57"/>
       </defs>
       <use xlink:href="#DejaVuSans-50"/>
       <use x="63.623047" xlink:href="#DejaVuSans-48"/>
       <use x="127.246094" xlink:href="#DejaVuSans-50"/>
       <use x="190.869141" xlink:href="#DejaVuSans-50"/>
       <use x="254.492188" xlink:href="#DejaVuSans-45"/>
       <use x="290.576172" xlink:href="#DejaVuSans-48"/>
       <use x="354.199219" xlink:href="#DejaVuSans-57"/>
      </g>
     </g>
    </g>
    <g id="xtick_3">
     <g id="line2d_5">
      <path clip-path="url(#p6b5c4e3156)" d="M 196.18022 172.8 
L 196.18022 25.92 
" style="fill:none;stroke:#808080;stroke-dasharray:6.4,1.6,1,1.6;stroke-dashoffset:0;stroke-opacity:0.3;"/>
     </g>
     <g id="line2d_6">
      <g>
       <use style="stroke:#000000;stroke-width:0.8;" x="196.18022" xlink:href="#m206d832cd8" y="172.8"/>
      </g>
     </g>
     <g id="text_3">
      <!-- 2022-10 -->
      <g transform="translate(175.288814 187.398438)scale(0.1 -0.1)">
       <defs>
        <path d="M 12.40625 8.296875 
L 28.515625 8.296875 
L 28.515625 63.921875 
L 10.984375 60.40625 
L 10.984375 69.390625 
L 28.421875 72.90625 
L 38.28125 72.90625 
L 38.28125 8.296875 
L 54.390625 8.296875 
L 54.390625 0 
L 12.40625 0 
z
" id="DejaVuSans-49"/>
       </defs>
       <use xlink:href="#DejaVuSans-50"/>
       <use x="63.623047" xlink:href="#DejaVuSans-48"/>
       <use x="127.246094" xlink:href="#DejaVuSans-50"/>
       <use x="190.869141" xlink:href="#DejaVuSans-50"/>
       <use x="254.492188" xlink:href="#DejaVuSans-45"/>
       <use x="290.576172" xlink:href="#DejaVuSans-49"/>
       <use x="354.199219" xlink:href="#DejaVuSans-48"/>
      </g>
     </g>
    </g>
    <g id="xtick_4">
     <g id="line2d_7">
      <path clip-path="url(#p6b5c4e3156)" d="M 246.461538 172.8 
L 246.461538 25.92 
" style="fill:none;stroke:#808080;stroke-dasharray:6.4,1.6,1,1.6;stroke-dashoffset:0;stroke-opacity:0.3;"/>
     </g>
     <g id="line2d_8">
      <g>
       <use style="stroke:#000000;stroke-width:0.8;" x="246.461538" xlink:href="#m206d832cd8" y="172.8"/>
      </g>
     </g>
     <g id="text_4">
      <!-- 2022-11 -->
      <g transform="translate(225.570132 187.398438)scale(0.1 -0.1)">
       <use xlink:href="#DejaVuSans-50"/>
       <use x="63.623047" xlink:href="#DejaVuSans-48"/>
       <use x="127.246094" xlink:href="#DejaVuSans-50"/>
       <use x="190.869141" xlink:href="#DejaVuSans-50"/>
       <use x="254.492188" xlink:href="#DejaVuSans-45"/>
       <use x="290.576172" xlink:href="#DejaVuSans-49"/>
       <use x="354.199219" xlink:href="#DejaVuSans-49"/>
      </g>
     </g>
    </g>
    <g id="xtick_5">
     <g id="line2d_9">
      <path clip-path="url(#p6b5c4e3156)" d="M 295.120879 172.8 
L 295.120879 25.92 
" style="fill:none;stroke:#808080;stroke-dasharray:6.4,1.6,1,1.6;stroke-dashoffset:0;stroke-opacity:0.3;"/>
     </g>
     <g id="line2d_10">
      <g>
       <use style="stroke:#000000;stroke-width:0.8;" x="295.120879" xlink:href="#m206d832cd8" y="172.8"/>
      </g>
     </g>
     <g id="text_5">
      <!-- 2022-12 -->
      <g transform="translate(274.229473 187.398438)scale(0.1 -0.1)">
       <use xlink:href="#DejaVuSans-50"/>
       <use x="63.623047" xlink:href="#DejaVuSans-48"/>
       <use x="127.246094" xlink:href="#DejaVuSans-50"/>
       <use x="190.869141" xlink:href="#DejaVuSans-50"/>
       <use x="254.492188" xlink:href="#DejaVuSans-45"/>
       <use x="290.576172" xlink:href="#DejaVuSans-49"/>
       <use x="354.199219" xlink:href="#DejaVuSans-50"/>
      </g>
     </g>
    </g>
    <g id="xtick_6">
     <g id="line2d_11">
      <path clip-path="url(#p6b5c4e3156)" d="M 345.402198 172.8 
L 345.402198 25.92 
" style="fill:none;stroke:#808080;stroke-dasharray:6.4,1.6,1,1.6;stroke-dashoffset:0;stroke-opacity:0.3;"/>
     </g>
     <g id="line2d_12">
      <g>
       <use style="stroke:#000000;stroke-width:0.8;" x="345.402198" xlink:href="#m206d832cd8" y="172.8"/>
      </g>
     </g>
     <g id="text_6">
      <!-- 2023-01 -->
      <g transform="translate(324.510792 187.398438)scale(0.1 -0.1)">
       <defs>
        <path d="M 40.578125 39.3125 
Q 47.65625 37.796875 51.625 33 
Q 55.609375 28.21875 55.609375 21.1875 
Q 55.609375 10.40625 48.1875 4.484375 
Q 40.765625 -1.421875 27.09375 -1.421875 
Q 22.515625 -1.421875 17.65625 -0.515625 
Q 12.796875 0.390625 7.625 2.203125 
L 7.625 11.71875 
Q 11.71875 9.328125 16.59375 8.109375 
Q 21.484375 6.890625 26.8125 6.890625 
Q 36.078125 6.890625 40.9375 10.546875 
Q 45.796875 14.203125 45.796875 21.1875 
Q 45.796875 27.640625 41.28125 31.265625 
Q 36.765625 34.90625 28.71875 34.90625 
L 20.21875 34.90625 
L 20.21875 43.015625 
L 29.109375 43.015625 
Q 36.375 43.015625 40.234375 45.921875 
Q 44.09375 48.828125 44.09375 54.296875 
Q 44.09375 59.90625 40.109375 62.90625 
Q 36.140625 65.921875 28.71875 65.921875 
Q 24.65625 65.921875 20.015625 65.03125 
Q 15.375 64.15625 9.8125 62.3125 
L 9.8125 71.09375 
Q 15.4375 72.65625 20.34375 73.4375 
Q 25.25 74.21875 29.59375 74.21875 
Q 40.828125 74.21875 47.359375 69.109375 
Q 53.90625 64.015625 53.90625 55.328125 
Q 53.90625 49.265625 50.4375 45.09375 
Q 46.96875 40.921875 40.578125 39.3125 
z
" id="DejaVuSans-51"/>
       </defs>
       <use xlink:href="#DejaVuSans-50"/>
       <use x="63.623047" xlink:href="#DejaVuSans-48"/>
       <use x="127.246094" xlink:href="#DejaVuSans-50"/>
       <use x="190.869141" xlink:href="#DejaVuSans-51"/>
       <use x="254.492188" xlink:href="#DejaVuSans-45"/>
       <use x="290.576172" xlink:href="#DejaVuSans-48"/>
       <use x="354.199219" xlink:href="#DejaVuSans-49"/>
      </g>
     </g>
    </g>
    <g id="xtick_7">
     <g id="line2d_13">
      <path clip-path="url(#p6b5c4e3156)" d="M 395.683516 172.8 
L 395.683516 25.92 
" style="fill:none;stroke:#808080;stroke-dasharray:6.4,1.6,1,1.6;stroke-dashoffset:0;stroke-opacity:0.3;"/>
     </g>
     <g id="line2d_14">
      <g>
       <use style="stroke:#000000;stroke-width:0.8;" x="395.683516" xlink:href="#m206d832cd8" y="172.8"/>
      </g>
     </g>
     <g id="text_7">
      <!-- 2023-02 -->
      <g transform="translate(374.79211 187.398438)scale(0.1 -0.1)">
       <use xlink:href="#DejaVuSans-50"/>
       <use x="63.623047" xlink:href="#DejaVuSans-48"/>
       <use x="127.246094" xlink:href="#DejaVuSans-50"/>
       <use x="190.869141" xlink:href="#DejaVuSans-51"/>
       <use x="254.492188" xlink:href="#DejaVuSans-45"/>
       <use x="290.576172" xlink:href="#DejaVuSans-48"/>
       <use x="354.199219" xlink:href="#DejaVuSans-50"/>
      </g>
     </g>
    </g>
    <g id="xtick_8">
     <g id="line2d_15">
      <path clip-path="url(#p6b5c4e3156)" d="M 441.098901 172.8 
L 441.098901 25.92 
" style="fill:none;stroke:#808080;stroke-dasharray:6.4,1.6,1,1.6;stroke-dashoffset:0;stroke-opacity:0.3;"/>
     </g>
     <g id="line2d_16">
      <g>
       <use style="stroke:#000000;stroke-width:0.8;" x="441.098901" xlink:href="#m206d832cd8" y="172.8"/>
      </g>
     </g>
     <g id="text_8">
      <!-- 2023-03 -->
      <g transform="translate(420.207495 187.398438)scale(0.1 -0.1)">
       <use xlink:href="#DejaVuSans-50"/>
       <use x="63.623047" xlink:href="#DejaVuSans-48"/>
       <use x="127.246094" xlink:href="#DejaVuSans-50"/>
       <use x="190.869141" xlink:href="#DejaVuSans-51"/>
       <use x="254.492188" xlink:href="#DejaVuSans-45"/>
       <use x="290.576172" xlink:href="#DejaVuSans-48"/>
       <use x="354.199219" xlink:href="#DejaVuSans-51"/>
      </g>
     </g>
    </g>
    <g id="xtick_9">
     <g id="line2d_17">
      <path clip-path="url(#p6b5c4e3156)" d="M 491.38022 172.8 
L 491.38022 25.92 
" style="fill:none;stroke:#808080;stroke-dasharray:6.4,1.6,1,1.6;stroke-dashoffset:0;stroke-opacity:0.3;"/>
     </g>
     <g id="line2d_18">
      <g>
       <use style="stroke:#000000;stroke-width:0.8;" x="491.38022" xlink:href="#m206d832cd8" y="172.8"/>
      </g>
     </g>
     <g id="text_9">
      <!-- 2023-04 -->
      <g transform="translate(470.488814 187.398438)scale(0.1 -0.1)">
       <defs>
        <path d="M 37.796875 64.3125 
L 12.890625 25.390625 
L 37.796875 25.390625 
z
M 35.203125 72.90625 
L 47.609375 72.90625 
L 47.609375 25.390625 
L 58.015625 25.390625 
L 58.015625 17.1875 
L 47.609375 17.1875 
L 47.609375 0 
L 37.796875 0 
L 37.796875 17.1875 
L 4.890625 17.1875 
L 4.890625 26.703125 
z
" id="DejaVuSans-52"/>
       </defs>
       <use xlink:href="#DejaVuSans-50"/>
       <use x="63.623047" xlink:href="#DejaVuSans-48"/>
       <use x="127.246094" xlink:href="#DejaVuSans-50"/>
       <use x="190.869141" xlink:href="#DejaVuSans-51"/>
       <use x="254.492188" xlink:href="#DejaVuSans-45"/>
       <use x="290.576172" xlink:href="#DejaVuSans-48"/>
       <use x="354.199219" xlink:href="#DejaVuSans-52"/>
      </g>
     </g>
    </g>
    <g id="xtick_10">
     <g id="line2d_19">
      <path clip-path="url(#p6b5c4e3156)" d="M 540.03956 172.8 
L 540.03956 25.92 
" style="fill:none;stroke:#808080;stroke-dasharray:6.4,1.6,1,1.6;stroke-dashoffset:0;stroke-opacity:0.3;"/>
     </g>
     <g id="line2d_20">
      <g>
       <use style="stroke:#000000;stroke-width:0.8;" x="540.03956" xlink:href="#m206d832cd8" y="172.8"/>
      </g>
     </g>
     <g id="text_10">
      <!-- 2023-05 -->
      <g transform="translate(519.148154 187.398438)scale(0.1 -0.1)">
       <defs>
        <path d="M 10.796875 72.90625 
L 49.515625 72.90625 
L 49.515625 64.59375 
L 19.828125 64.59375 
L 19.828125 46.734375 
Q 21.96875 47.46875 24.109375 47.828125 
Q 26.265625 48.1875 28.421875 48.1875 
Q 40.625 48.1875 47.75 41.5 
Q 54.890625 34.8125 54.890625 23.390625 
Q 54.890625 11.625 47.5625 5.09375 
Q 40.234375 -1.421875 26.90625 -1.421875 
Q 22.3125 -1.421875 17.546875 -0.640625 
Q 12.796875 0.140625 7.71875 1.703125 
L 7.71875 11.625 
Q 12.109375 9.234375 16.796875 8.0625 
Q 21.484375 6.890625 26.703125 6.890625 
Q 35.15625 6.890625 40.078125 11.328125 
Q 45.015625 15.765625 45.015625 23.390625 
Q 45.015625 31 40.078125 35.4375 
Q 35.15625 39.890625 26.703125 39.890625 
Q 22.75 39.890625 18.8125 39.015625 
Q 14.890625 38.140625 10.796875 36.28125 
z
" id="DejaVuSans-53"/>
       </defs>
       <use xlink:href="#DejaVuSans-50"/>
       <use x="63.623047" xlink:href="#DejaVuSans-48"/>
       <use x="127.246094" xlink:href="#DejaVuSans-50"/>
       <use x="190.869141" xlink:href="#DejaVuSans-51"/>
       <use x="254.492188" xlink:href="#DejaVuSans-45"/>
       <use x="290.576172" xlink:href="#DejaVuSans-48"/>
       <use x="354.199219" xlink:href="#DejaVuSans-53"/>
      </g>
     </g>
    </g>
    <g id="xtick_11">
     <g id="line2d_21">
      <path clip-path="url(#p6b5c4e3156)" d="M 590.320879 172.8 
L 590.320879 25.92 
" style="fill:none;stroke:#808080;stroke-dasharray:6.4,1.6,1,1.6;stroke-dashoffset:0;stroke-opacity:0.3;"/>
     </g>
     <g id="line2d_22">
      <g>
       <use style="stroke:#000000;stroke-width:0.8;" x="590.320879" xlink:href="#m206d832cd8" y="172.8"/>
      </g>
     </g>
     <g id="text_11">
      <!-- 2023-06 -->
      <g transform="translate(569.429473 187.398438)scale(0.1 -0.1)">
       <defs>
        <path d="M 33.015625 40.375 
Q 26.375 40.375 22.484375 35.828125 
Q 18.609375 31.296875 18.609375 23.390625 
Q 18.609375 15.53125 22.484375 10.953125 
Q 26.375 6.390625 33.015625 6.390625 
Q 39.65625 6.390625 43.53125 10.953125 
Q 47.40625 15.53125 47.40625 23.390625 
Q 47.40625 31.296875 43.53125 35.828125 
Q 39.65625 40.375 33.015625 40.375 
z
M 52.59375 71.296875 
L 52.59375 62.3125 
Q 48.875 64.0625 45.09375 64.984375 
Q 41.3125 65.921875 37.59375 65.921875 
Q 27.828125 65.921875 22.671875 59.328125 
Q 17.53125 52.734375 16.796875 39.40625 
Q 19.671875 43.65625 24.015625 45.921875 
Q 28.375 48.1875 33.59375 48.1875 
Q 44.578125 48.1875 50.953125 41.515625 
Q 57.328125 34.859375 57.328125 23.390625 
Q 57.328125 12.15625 50.6875 5.359375 
Q 44.046875 -1.421875 33.015625 -1.421875 
Q 20.359375 -1.421875 13.671875 8.265625 
Q 6.984375 17.96875 6.984375 36.375 
Q 6.984375 53.65625 15.1875 63.9375 
Q 23.390625 74.21875 37.203125 74.21875 
Q 40.921875 74.21875 44.703125 73.484375 
Q 48.484375 72.75 52.59375 71.296875 
z
" id="DejaVuSans-54"/>
       </defs>
       <use xlink:href="#DejaVuSans-50"/>
       <use x="63.623047" xlink:href="#DejaVuSans-48"/>
       <use x="127.246094" xlink:href="#DejaVuSans-50"/>
       <use x="190.869141" xlink:href="#DejaVuSans-51"/>
       <use x="254.492188" xlink:href="#DejaVuSans-45"/>
       <use x="290.576172" xlink:href="#DejaVuSans-48"/>
       <use x="354.199219" xlink:href="#DejaVuSans-54"/>
      </g>
     </g>
    </g>
    <g id="xtick_12">
     <g id="line2d_23">
      <path clip-path="url(#p6b5c4e3156)" d="M 638.98022 172.8 
L 638.98022 25.92 
" style="fill:none;stroke:#808080;stroke-dasharray:6.4,1.6,1,1.6;stroke-dashoffset:0;stroke-opacity:0.3;"/>
     </g>
     <g id="line2d_24">
      <g>
       <use style="stroke:#000000;stroke-width:0.8;" x="638.98022" xlink:href="#m206d832cd8" y="172.8"/>
      </g>
     </g>
     <g id="text_12">
      <!-- 2023-07 -->
      <g transform="translate(618.088814 187.398438)scale(0.1 -0.1)">
       <defs>
        <path d="M 8.203125 72.90625 
L 55.078125 72.90625 
L 55.078125 68.703125 
L 28.609375 0 
L 18.3125 0 
L 43.21875 64.59375 
L 8.203125 64.59375 
z
" id="DejaVuSans-55"/>
       </defs>
       <use xlink:href="#DejaVuSans-50"/>
       <use x="63.623047" xlink:href="#DejaVuSans-48"/>
       <use x="127.246094" xlink:href="#DejaVuSans-50"/>
       <use x="190.869141" xlink:href="#DejaVuSans-51"/>
       <use x="254.492188" xlink:href="#DejaVuSans-45"/>
       <use x="290.576172" xlink:href="#DejaVuSans-48"/>
       <use x="354.199219" xlink:href="#DejaVuSans-55"/>
      </g>
     </g>
    </g>
    <g id="text_13">
     <!-- Datum -->
     <g transform="translate(343.086719 201.076562)scale(0.1 -0.1)">
      <defs>
       <path d="M 19.671875 64.796875 
L 19.671875 8.109375 
L 31.59375 8.109375 
Q 46.6875 8.109375 53.6875 14.9375 
Q 60.6875 21.78125 60.6875 36.53125 
Q 60.6875 51.171875 53.6875 57.984375 
Q 46.6875 64.796875 31.59375 64.796875 
z
M 9.8125 72.90625 
L 30.078125 72.90625 
Q 51.265625 72.90625 61.171875 64.09375 
Q 71.09375 55.28125 71.09375 36.53125 
Q 71.09375 17.671875 61.125 8.828125 
Q 51.171875 0 30.078125 0 
L 9.8125 0 
z
" id="DejaVuSans-68"/>
       <path d="M 34.28125 27.484375 
Q 23.390625 27.484375 19.1875 25 
Q 14.984375 22.515625 14.984375 16.5 
Q 14.984375 11.71875 18.140625 8.90625 
Q 21.296875 6.109375 26.703125 6.109375 
Q 34.1875 6.109375 38.703125 11.40625 
Q 43.21875 16.703125 43.21875 25.484375 
L 43.21875 27.484375 
z
M 52.203125 31.203125 
L 52.203125 0 
L 43.21875 0 
L 43.21875 8.296875 
Q 40.140625 3.328125 35.546875 0.953125 
Q 30.953125 -1.421875 24.3125 -1.421875 
Q 15.921875 -1.421875 10.953125 3.296875 
Q 6 8.015625 6 15.921875 
Q 6 25.140625 12.171875 29.828125 
Q 18.359375 34.515625 30.609375 34.515625 
L 43.21875 34.515625 
L 43.21875 35.40625 
Q 43.21875 41.609375 39.140625 45 
Q 35.0625 48.390625 27.6875 48.390625 
Q 23 48.390625 18.546875 47.265625 
Q 14.109375 46.140625 10.015625 43.890625 
L 10.015625 52.203125 
Q 14.9375 54.109375 19.578125 55.046875 
Q 24.21875 56 28.609375 56 
Q 40.484375 56 46.34375 49.84375 
Q 52.203125 43.703125 52.203125 31.203125 
z
" id="DejaVuSans-97"/>
       <path d="M 18.3125 70.21875 
L 18.3125 54.6875 
L 36.8125 54.6875 
L 36.8125 47.703125 
L 18.3125 47.703125 
L 18.3125 18.015625 
Q 18.3125 11.328125 20.140625 9.421875 
Q 21.96875 7.515625 27.59375 7.515625 
L 36.8125 7.515625 
L 36.8125 0 
L 27.59375 0 
Q 17.1875 0 13.234375 3.875 
Q 9.28125 7.765625 9.28125 18.015625 
L 9.28125 47.703125 
L 2.6875 47.703125 
L 2.6875 54.6875 
L 9.28125 54.6875 
L 9.28125 70.21875 
z
" id="DejaVuSans-116"/>
       <path d="M 8.5 21.578125 
L 8.5 54.6875 
L 17.484375 54.6875 
L 17.484375 21.921875 
Q 17.484375 14.15625 20.5 10.265625 
Q 23.53125 6.390625 29.59375 6.390625 
Q 36.859375 6.390625 41.078125 11.03125 
Q 45.3125 15.671875 45.3125 23.6875 
L 45.3125 54.6875 
L 54.296875 54.6875 
L 54.296875 0 
L 45.3125 0 
L 45.3125 8.40625 
Q 42.046875 3.421875 37.71875 1 
Q 33.40625 -1.421875 27.6875 -1.421875 
Q 18.265625 -1.421875 13.375 4.4375 
Q 8.5 10.296875 8.5 21.578125 
z
M 31.109375 56 
z
" id="DejaVuSans-117"/>
       <path d="M 52 44.1875 
Q 55.375 50.25 60.0625 53.125 
Q 64.75 56 71.09375 56 
Q 79.640625 56 84.28125 50.015625 
Q 88.921875 44.046875 88.921875 33.015625 
L 88.921875 0 
L 79.890625 0 
L 79.890625 32.71875 
Q 79.890625 40.578125 77.09375 44.375 
Q 74.3125 48.1875 68.609375 48.1875 
Q 61.625 48.1875 57.5625 43.546875 
Q 53.515625 38.921875 53.515625 30.90625 
L 53.515625 0 
L 44.484375 0 
L 44.484375 32.71875 
Q 44.484375 40.625 41.703125 44.40625 
Q 38.921875 48.1875 33.109375 48.1875 
Q 26.21875 48.1875 22.15625 43.53125 
Q 18.109375 38.875 18.109375 30.90625 
L 18.109375 0 
L 9.078125 0 
L 9.078125 54.6875 
L 18.109375 54.6875 
L 18.109375 46.1875 
Q 21.1875 51.21875 25.484375 53.609375 
Q 29.78125 56 35.6875 56 
Q 41.65625 56 45.828125 52.96875 
Q 50 49.953125 52 44.1875 
z
" id="DejaVuSans-109"/>
      </defs>
      <use xlink:href="#DejaVuSans-68"/>
      <use x="77.001953" xlink:href="#DejaVuSans-97"/>
      <use x="138.28125" xlink:href="#DejaVuSans-116"/>
      <use x="177.490234" xlink:href="#DejaVuSans-117"/>
      <use x="240.869141" xlink:href="#DejaVuSans-109"/>
     </g>
    </g>
   </g>
   <g id="matplotlib.axis_2">
    <g id="ytick_1">
     <g id="line2d_25">
      <path clip-path="url(#p6b5c4e3156)" d="M 64.8 172.8 
L 655.2 172.8 
" style="fill:none;stroke:#808080;stroke-dasharray:6.4,1.6,1,1.6;stroke-dashoffset:0;stroke-opacity:0.3;"/>
     </g>
     <g id="line2d_26">
      <defs>
       <path d="M 0 0 
L -3.5 0 
" id="m276123f394" style="stroke:#000000;stroke-width:0.8;"/>
      </defs>
      <g>
       <use style="stroke:#000000;stroke-width:0.8;" x="64.8" xlink:href="#m276123f394" y="172.8"/>
      </g>
     </g>
     <g id="text_14">
      <!-- 0 -->
      <g transform="translate(51.4375 176.599219)scale(0.1 -0.1)">
       <use xlink:href="#DejaVuSans-48"/>
      </g>
     </g>
    </g>
    <g id="ytick_2">
     <g id="line2d_27">
      <path clip-path="url(#p6b5c4e3156)" d="M 64.8 148.32 
L 655.2 148.32 
" style="fill:none;stroke:#808080;stroke-dasharray:6.4,1.6,1,1.6;stroke-dashoffset:0;stroke-opacity:0.3;"/>
     </g>
     <g id="line2d_28">
      <g>
       <use style="stroke:#000000;stroke-width:0.8;" x="64.8" xlink:href="#m276123f394" y="148.32"/>
      </g>
     </g>
     <g id="text_15">
      <!-- 50T -->
      <g transform="translate(38.967187 152.119219)scale(0.1 -0.1)">
       <defs>
        <path d="M -0.296875 72.90625 
L 61.375 72.90625 
L 61.375 64.59375 
L 35.5 64.59375 
L 35.5 0 
L 25.59375 0 
L 25.59375 64.59375 
L -0.296875 64.59375 
z
" id="DejaVuSans-84"/>
       </defs>
       <use xlink:href="#DejaVuSans-53"/>
       <use x="63.623047" xlink:href="#DejaVuSans-48"/>
       <use x="127.246094" xlink:href="#DejaVuSans-84"/>
      </g>
     </g>
    </g>
    <g id="ytick_3">
     <g id="line2d_29">
      <path clip-path="url(#p6b5c4e3156)" d="M 64.8 123.84 
L 655.2 123.84 
" style="fill:none;stroke:#808080;stroke-dasharray:6.4,1.6,1,1.6;stroke-dashoffset:0;stroke-opacity:0.3;"/>
     </g>
     <g id="line2d_30">
      <g>
       <use style="stroke:#000000;stroke-width:0.8;" x="64.8" xlink:href="#m276123f394" y="123.84"/>
      </g>
     </g>
     <g id="text_16">
      <!-- 100T -->
      <g transform="translate(32.604687 127.639219)scale(0.1 -0.1)">
       <use xlink:href="#DejaVuSans-49"/>
       <use x="63.623047" xlink:href="#DejaVuSans-48"/>
       <use x="127.246094" xlink:href="#DejaVuSans-48"/>
       <use x="190.869141" xlink:href="#DejaVuSans-84"/>
      </g>
     </g>
    </g>
    <g id="ytick_4">
     <g id="line2d_31">
      <path clip-path="url(#p6b5c4e3156)" d="M 64.8 99.36 
L 655.2 99.36 
" style="fill:none;stroke:#808080;stroke-dasharray:6.4,1.6,1,1.6;stroke-dashoffset:0;stroke-opacity:0.3;"/>
     </g>
     <g id="line2d_32">
      <g>
       <use style="stroke:#000000;stroke-width:0.8;" x="64.8" xlink:href="#m276123f394" y="99.36"/>
      </g>
     </g>
     <g id="text_17">
      <!-- 150T -->
      <g transform="translate(32.604687 103.159219)scale(0.1 -0.1)">
       <use xlink:href="#DejaVuSans-49"/>
       <use x="63.623047" xlink:href="#DejaVuSans-53"/>
       <use x="127.246094" xlink:href="#DejaVuSans-48"/>
       <use x="190.869141" xlink:href="#DejaVuSans-84"/>
      </g>
     </g>
    </g>
    <g id="ytick_5">
     <g id="line2d_33">
      <path clip-path="url(#p6b5c4e3156)" d="M 64.8 74.88 
L 655.2 74.88 
" style="fill:none;stroke:#808080;stroke-dasharray:6.4,1.6,1,1.6;stroke-dashoffset:0;stroke-opacity:0.3;"/>
     </g>
     <g id="line2d_34">
      <g>
       <use style="stroke:#000000;stroke-width:0.8;" x="64.8" xlink:href="#m276123f394" y="74.88"/>
      </g>
     </g>
     <g id="text_18">
      <!-- 200T -->
      <g transform="translate(32.604687 78.679219)scale(0.1 -0.1)">
       <use xlink:href="#DejaVuSans-50"/>
       <use x="63.623047" xlink:href="#DejaVuSans-48"/>
       <use x="127.246094" xlink:href="#DejaVuSans-48"/>
       <use x="190.869141" xlink:href="#DejaVuSans-84"/>
      </g>
     </g>
    </g>
    <g id="ytick_6">
     <g id="line2d_35">
      <path clip-path="url(#p6b5c4e3156)" d="M 64.8 50.4 
L 655.2 50.4 
" style="fill:none;stroke:#808080;stroke-dasharray:6.4,1.6,1,1.6;stroke-dashoffset:0;stroke-opacity:0.3;"/>
     </g>
     <g id="line2d_36">
      <g>
       <use style="stroke:#000000;stroke-width:0.8;" x="64.8" xlink:href="#m276123f394" y="50.4"/>
      </g>
     </g>
     <g id="text_19">
      <!-- 250T -->
      <g transform="translate(32.604687 54.199219)scale(0.1 -0.1)">
       <use xlink:href="#DejaVuSans-50"/>
       <use x="63.623047" xlink:href="#DejaVuSans-53"/>
       <use x="127.246094" xlink:href="#DejaVuSans-48"/>
       <use x="190.869141" xlink:href="#DejaVuSans-84"/>
      </g>
     </g>
    </g>
    <g id="ytick_7">
     <g id="line2d_37">
      <path clip-path="url(#p6b5c4e3156)" d="M 64.8 25.92 
L 655.2 25.92 
" style="fill:none;stroke:#808080;stroke-dasharray:6.4,1.6,1,1.6;stroke-dashoffset:0;stroke-opacity:0.3;"/>
     </g>
     <g id="line2d_38">
      <g>
       <use style="stroke:#000000;stroke-width:0.8;" x="64.8" xlink:href="#m276123f394" y="25.92"/>
      </g>
     </g>
     <g id="text_20">
      <!-- 300T -->
      <g transform="translate(32.604687 29.719219)scale(0.1 -0.1)">
       <use xlink:href="#DejaVuSans-51"/>
       <use x="63.623047" xlink:href="#DejaVuSans-48"/>
       <use x="127.246094" xlink:href="#DejaVuSans-48"/>
       <use x="190.869141" xlink:href="#DejaVuSans-84"/>
      </g>
     </g>
    </g>
    <g id="text_21">
     <!-- Deeltjes per 100k inwoners -->
     <g transform="translate(26.525 167.906875)rotate(-90)scale(0.1 -0.1)">
      <defs>
       <path d="M 56.203125 29.59375 
L 56.203125 25.203125 
L 14.890625 25.203125 
Q 15.484375 15.921875 20.484375 11.0625 
Q 25.484375 6.203125 34.421875 6.203125 
Q 39.59375 6.203125 44.453125 7.46875 
Q 49.3125 8.734375 54.109375 11.28125 
L 54.109375 2.78125 
Q 49.265625 0.734375 44.1875 -0.34375 
Q 39.109375 -1.421875 33.890625 -1.421875 
Q 20.796875 -1.421875 13.15625 6.1875 
Q 5.515625 13.8125 5.515625 26.8125 
Q 5.515625 40.234375 12.765625 48.109375 
Q 20.015625 56 32.328125 56 
Q 43.359375 56 49.78125 48.890625 
Q 56.203125 41.796875 56.203125 29.59375 
z
M 47.21875 32.234375 
Q 47.125 39.59375 43.09375 43.984375 
Q 39.0625 48.390625 32.421875 48.390625 
Q 24.90625 48.390625 20.390625 44.140625 
Q 15.875 39.890625 15.1875 32.171875 
z
" id="DejaVuSans-101"/>
       <path d="M 9.421875 75.984375 
L 18.40625 75.984375 
L 18.40625 0 
L 9.421875 0 
z
" id="DejaVuSans-108"/>
       <path d="M 9.421875 54.6875 
L 18.40625 54.6875 
L 18.40625 -0.984375 
Q 18.40625 -11.421875 14.421875 -16.109375 
Q 10.453125 -20.796875 1.609375 -20.796875 
L -1.8125 -20.796875 
L -1.8125 -13.1875 
L 0.59375 -13.1875 
Q 5.71875 -13.1875 7.5625 -10.8125 
Q 9.421875 -8.453125 9.421875 -0.984375 
z
M 9.421875 75.984375 
L 18.40625 75.984375 
L 18.40625 64.59375 
L 9.421875 64.59375 
z
" id="DejaVuSans-106"/>
       <path d="M 44.28125 53.078125 
L 44.28125 44.578125 
Q 40.484375 46.53125 36.375 47.5 
Q 32.28125 48.484375 27.875 48.484375 
Q 21.1875 48.484375 17.84375 46.4375 
Q 14.5 44.390625 14.5 40.28125 
Q 14.5 37.15625 16.890625 35.375 
Q 19.28125 33.59375 26.515625 31.984375 
L 29.59375 31.296875 
Q 39.15625 29.25 43.1875 25.515625 
Q 47.21875 21.78125 47.21875 15.09375 
Q 47.21875 7.46875 41.1875 3.015625 
Q 35.15625 -1.421875 24.609375 -1.421875 
Q 20.21875 -1.421875 15.453125 -0.5625 
Q 10.6875 0.296875 5.421875 2 
L 5.421875 11.28125 
Q 10.40625 8.6875 15.234375 7.390625 
Q 20.0625 6.109375 24.8125 6.109375 
Q 31.15625 6.109375 34.5625 8.28125 
Q 37.984375 10.453125 37.984375 14.40625 
Q 37.984375 18.0625 35.515625 20.015625 
Q 33.0625 21.96875 24.703125 23.78125 
L 21.578125 24.515625 
Q 13.234375 26.265625 9.515625 29.90625 
Q 5.8125 33.546875 5.8125 39.890625 
Q 5.8125 47.609375 11.28125 51.796875 
Q 16.75 56 26.8125 56 
Q 31.78125 56 36.171875 55.265625 
Q 40.578125 54.546875 44.28125 53.078125 
z
" id="DejaVuSans-115"/>
       <path id="DejaVuSans-32"/>
       <path d="M 18.109375 8.203125 
L 18.109375 -20.796875 
L 9.078125 -20.796875 
L 9.078125 54.6875 
L 18.109375 54.6875 
L 18.109375 46.390625 
Q 20.953125 51.265625 25.265625 53.625 
Q 29.59375 56 35.59375 56 
Q 45.5625 56 51.78125 48.09375 
Q 58.015625 40.1875 58.015625 27.296875 
Q 58.015625 14.40625 51.78125 6.484375 
Q 45.5625 -1.421875 35.59375 -1.421875 
Q 29.59375 -1.421875 25.265625 0.953125 
Q 20.953125 3.328125 18.109375 8.203125 
z
M 48.6875 27.296875 
Q 48.6875 37.203125 44.609375 42.84375 
Q 40.53125 48.484375 33.40625 48.484375 
Q 26.265625 48.484375 22.1875 42.84375 
Q 18.109375 37.203125 18.109375 27.296875 
Q 18.109375 17.390625 22.1875 11.75 
Q 26.265625 6.109375 33.40625 6.109375 
Q 40.53125 6.109375 44.609375 11.75 
Q 48.6875 17.390625 48.6875 27.296875 
z
" id="DejaVuSans-112"/>
       <path d="M 41.109375 46.296875 
Q 39.59375 47.171875 37.8125 47.578125 
Q 36.03125 48 33.890625 48 
Q 26.265625 48 22.1875 43.046875 
Q 18.109375 38.09375 18.109375 28.8125 
L 18.109375 0 
L 9.078125 0 
L 9.078125 54.6875 
L 18.109375 54.6875 
L 18.109375 46.1875 
Q 20.953125 51.171875 25.484375 53.578125 
Q 30.03125 56 36.53125 56 
Q 37.453125 56 38.578125 55.875 
Q 39.703125 55.765625 41.0625 55.515625 
z
" id="DejaVuSans-114"/>
       <path d="M 9.078125 75.984375 
L 18.109375 75.984375 
L 18.109375 31.109375 
L 44.921875 54.6875 
L 56.390625 54.6875 
L 27.390625 29.109375 
L 57.625 0 
L 45.90625 0 
L 18.109375 26.703125 
L 18.109375 0 
L 9.078125 0 
z
" id="DejaVuSans-107"/>
       <path d="M 9.421875 54.6875 
L 18.40625 54.6875 
L 18.40625 0 
L 9.421875 0 
z
M 9.421875 75.984375 
L 18.40625 75.984375 
L 18.40625 64.59375 
L 9.421875 64.59375 
z
" id="DejaVuSans-105"/>
       <path d="M 54.890625 33.015625 
L 54.890625 0 
L 45.90625 0 
L 45.90625 32.71875 
Q 45.90625 40.484375 42.875 44.328125 
Q 39.84375 48.1875 33.796875 48.1875 
Q 26.515625 48.1875 22.3125 43.546875 
Q 18.109375 38.921875 18.109375 30.90625 
L 18.109375 0 
L 9.078125 0 
L 9.078125 54.6875 
L 18.109375 54.6875 
L 18.109375 46.1875 
Q 21.34375 51.125 25.703125 53.5625 
Q 30.078125 56 35.796875 56 
Q 45.21875 56 50.046875 50.171875 
Q 54.890625 44.34375 54.890625 33.015625 
z
" id="DejaVuSans-110"/>
       <path d="M 4.203125 54.6875 
L 13.1875 54.6875 
L 24.421875 12.015625 
L 35.59375 54.6875 
L 46.1875 54.6875 
L 57.421875 12.015625 
L 68.609375 54.6875 
L 77.59375 54.6875 
L 63.28125 0 
L 52.6875 0 
L 40.921875 44.828125 
L 29.109375 0 
L 18.5 0 
z
" id="DejaVuSans-119"/>
       <path d="M 30.609375 48.390625 
Q 23.390625 48.390625 19.1875 42.75 
Q 14.984375 37.109375 14.984375 27.296875 
Q 14.984375 17.484375 19.15625 11.84375 
Q 23.34375 6.203125 30.609375 6.203125 
Q 37.796875 6.203125 41.984375 11.859375 
Q 46.1875 17.53125 46.1875 27.296875 
Q 46.1875 37.015625 41.984375 42.703125 
Q 37.796875 48.390625 30.609375 48.390625 
z
M 30.609375 56 
Q 42.328125 56 49.015625 48.375 
Q 55.71875 40.765625 55.71875 27.296875 
Q 55.71875 13.875 49.015625 6.21875 
Q 42.328125 -1.421875 30.609375 -1.421875 
Q 18.84375 -1.421875 12.171875 6.21875 
Q 5.515625 13.875 5.515625 27.296875 
Q 5.515625 40.765625 12.171875 48.375 
Q 18.84375 56 30.609375 56 
z
" id="DejaVuSans-111"/>
      </defs>
      <use xlink:href="#DejaVuSans-68"/>
      <use x="77.001953" xlink:href="#DejaVuSans-101"/>
      <use x="138.525391" xlink:href="#DejaVuSans-101"/>
      <use x="200.048828" xlink:href="#DejaVuSans-108"/>
      <use x="227.832031" xlink:href="#DejaVuSans-116"/>
      <use x="267.041016" xlink:href="#DejaVuSans-106"/>
      <use x="294.824219" xlink:href="#DejaVuSans-101"/>
      <use x="356.347656" xlink:href="#DejaVuSans-115"/>
      <use x="408.447266" xlink:href="#DejaVuSans-32"/>
      <use x="440.234375" xlink:href="#DejaVuSans-112"/>
      <use x="503.710938" xlink:href="#DejaVuSans-101"/>
      <use x="565.234375" xlink:href="#DejaVuSans-114"/>
      <use x="606.347656" xlink:href="#DejaVuSans-32"/>
      <use x="638.134766" xlink:href="#DejaVuSans-49"/>
      <use x="701.757812" xlink:href="#DejaVuSans-48"/>
      <use x="765.380859" xlink:href="#DejaVuSans-48"/>
      <use x="829.003906" xlink:href="#DejaVuSans-107"/>
      <use x="886.914062" xlink:href="#DejaVuSans-32"/>
      <use x="918.701172" xlink:href="#DejaVuSans-105"/>
      <use x="946.484375" xlink:href="#DejaVuSans-110"/>
      <use x="1009.863281" xlink:href="#DejaVuSans-119"/>
      <use x="1091.650391" xlink:href="#DejaVuSans-111"/>
      <use x="1152.832031" xlink:href="#DejaVuSans-110"/>
      <use x="1216.210938" xlink:href="#DejaVuSans-101"/>
      <use x="1277.734375" xlink:href="#DejaVuSans-114"/>
      <use x="1318.847656" xlink:href="#DejaVuSans-115"/>
     </g>
    </g>
   </g>
   <g id="line2d_39">
    <path clip-path="url(#p6b5c4e3156)" d="M 64.8 82.045308 
L 81.01978 103.902522 
L 85.885714 111.03754 
L 90.751648 117.792015 
L 92.373626 119.901119 
L 98.861538 129.014532 
L 100.483516 131.135829 
L 103.727473 134.427168 
L 106.971429 137.554384 
L 108.593407 138.977665 
L 111.837363 141.365008 
L 113.459341 142.334934 
L 116.703297 143.710756 
L 119.947253 144.593313 
L 123.191209 145.301117 
L 124.813187 145.720065 
L 128.057143 146.187241 
L 132.923077 146.597747 
L 136.167033 146.699158 
L 139.410989 146.455027 
L 144.276923 145.536776 
L 149.142857 144.429942 
L 152.386813 143.645739 
L 158.874725 141.878874 
L 163.740659 140.734049 
L 165.362637 140.047851 
L 166.984615 139.150734 
L 168.606593 138.016471 
L 171.850549 135.189555 
L 173.472527 133.695244 
L 176.716484 130.137046 
L 178.338462 128.016321 
L 179.96044 125.580116 
L 181.582418 122.816507 
L 184.826374 116.742657 
L 186.448352 113.522589 
L 189.692308 110.279312 
L 192.936264 104.201522 
L 196.18022 98.41326 
L 199.424176 93.345786 
L 202.668132 89.001395 
L 204.29011 87.477716 
L 205.912088 86.320124 
L 207.534066 85.348427 
L 209.156044 84.979429 
L 212.4 84.986936 
L 214.021978 85.094426 
L 215.643956 85.369731 
L 217.265934 85.924421 
L 218.887912 86.707336 
L 220.50989 87.794268 
L 222.131868 89.037837 
L 226.997802 94.255895 
L 228.61978 96.441146 
L 231.863736 100.399602 
L 235.107692 105.109429 
L 239.973626 112.4985 
L 243.217582 117.008054 
L 246.461538 120.727767 
L 248.083516 122.464603 
L 252.949451 126.473533 
L 256.193407 128.433306 
L 257.815385 129.135453 
L 261.059341 130.020986 
L 262.681319 130.143451 
L 265.925275 130.021777 
L 267.547253 129.878884 
L 269.169231 129.42011 
L 272.413187 128.696852 
L 275.657143 127.893121 
L 277.279121 127.261648 
L 280.523077 126.287241 
L 282.145055 125.687235 
L 287.010989 124.525806 
L 288.632967 124.205748 
L 290.254945 124.201322 
L 293.498901 123.869556 
L 295.120879 123.610096 
L 296.742857 123.171972 
L 298.364835 122.571068 
L 299.986813 121.593744 
L 301.608791 120.444243 
L 303.230769 118.953447 
L 304.852747 117.033511 
L 306.474725 114.735206 
L 308.096703 112.228413 
L 309.718681 109.230457 
L 312.962637 102.333036 
L 321.072527 82.302418 
L 322.694505 78.77282 
L 324.316484 75.65973 
L 325.938462 73.135295 
L 327.56044 71.355702 
L 329.182418 69.915925 
L 330.804396 69.296927 
L 332.426374 69.249342 
L 334.048352 69.684756 
L 335.67033 71.17143 
L 337.292308 73.184158 
L 338.914286 75.563109 
L 340.536264 78.861365 
L 342.158242 82.516651 
L 343.78022 86.685807 
L 355.134066 119.565804 
L 358.378022 127.497401 
L 360 131.18874 
L 361.621978 134.424004 
L 363.243956 137.387476 
L 364.865934 139.975104 
L 366.487912 142.029624 
L 369.731868 145.527242 
L 371.353846 146.933676 
L 372.975824 148.097967 
L 374.597802 149.09367 
L 376.21978 149.786319 
L 377.841758 150.185387 
L 379.463736 150.387904 
L 381.085714 150.345395 
L 382.707692 150.031684 
L 385.951648 148.933001 
L 387.573626 148.223795 
L 390.817582 146.412652 
L 394.061538 144.216613 
L 397.305495 141.970059 
L 402.171429 138.920898 
L 403.793407 137.837575 
L 405.415385 136.60381 
L 408.659341 133.821424 
L 411.903297 130.298971 
L 413.525275 128.127875 
L 415.147253 125.766678 
L 416.769231 123.058896 
L 423.257143 110.634403 
L 428.123077 100.928595 
L 429.745055 97.314169 
L 432.989011 90.910017 
L 434.610989 88.213527 
L 436.232967 85.844212 
L 437.854945 84.078822 
L 439.476923 82.701069 
L 441.098901 81.481058 
L 442.720879 80.485925 
L 444.342857 79.908133 
L 447.586813 79.59016 
L 449.208791 79.931201 
L 452.452747 81.939505 
L 458.940659 86.297276 
L 463.806593 89.390278 
L 467.050549 90.960668 
L 470.294505 93.20493 
L 471.916484 94.151865 
L 473.538462 95.29412 
L 475.16044 96.659605 
L 476.782418 98.312499 
L 483.27033 106.253475 
L 493.002198 118.364461 
L 494.624176 120.197644 
L 496.246154 121.829031 
L 501.112088 125.719138 
L 504.356044 128.086472 
L 507.6 130.356292 
L 509.221978 131.627582 
L 510.843956 133.076191 
L 520.575824 140.045048 
L 523.81978 141.730601 
L 530.307692 144.774087 
L 533.551648 145.775618 
L 538.417582 147.057019 
L 541.661538 148.052586 
L 544.905495 149.522498 
L 548.149451 151.121256 
L 554.637363 154.817076 
L 561.125275 158.79061 
L 562.747253 159.741977 
L 565.991209 161.291859 
L 567.613187 161.999341 
L 572.479121 163.649676 
L 574.101099 164.14055 
L 580.589011 165.46227 
L 595.186813 167.332816 
L 604.918681 168.218265 
L 611.406593 168.68214 
L 621.138462 169.088137 
L 634.114286 169.498804 
L 635.736264 169.544982 
L 635.736264 169.544982 
" style="fill:none;stroke:#008000;stroke-linecap:square;stroke-width:1.5;"/>
   </g>
   <g id="line2d_40">
    <path clip-path="url(#p6b5c4e3156)" d="M 645.468132 172.8 
L 645.468132 25.92 
" style="fill:none;stroke:#ff0000;stroke-linecap:square;stroke-width:0.5;"/>
   </g>
   <g id="patch_3">
    <path d="M 64.8 172.8 
L 64.8 25.92 
" style="fill:none;stroke:#000000;stroke-linecap:square;stroke-linejoin:miter;stroke-width:0.8;"/>
   </g>
   <g id="patch_4">
    <path d="M 655.2 172.8 
L 655.2 25.92 
" style="fill:none;stroke:#000000;stroke-linecap:square;stroke-linejoin:miter;stroke-width:0.8;"/>
   </g>
   <g id="patch_5">
    <path d="M 64.8 172.8 
L 655.2 172.8 
" style="fill:none;stroke:#000000;stroke-linecap:square;stroke-linejoin:miter;stroke-width:0.8;"/>
   </g>
   <g id="patch_6">
    <path d="M 64.8 25.92 
L 655.2 25.92 
" style="fill:none;stroke:#000000;stroke-linecap:square;stroke-linejoin:miter;stroke-width:0.8;"/>
   </g>
   <g id="text_22">
    <!-- Concentratie SARS-CoV-2 RNA in rioolwater per 100.000 inwoners -->
    <g transform="translate(161.8425 19.92)scale(0.12 -0.12)">
     <defs>
      <path d="M 64.40625 67.28125 
L 64.40625 56.890625 
Q 59.421875 61.53125 53.78125 63.8125 
Q 48.140625 66.109375 41.796875 66.109375 
Q 29.296875 66.109375 22.65625 58.46875 
Q 16.015625 50.828125 16.015625 36.375 
Q 16.015625 21.96875 22.65625 14.328125 
Q 29.296875 6.6875 41.796875 6.6875 
Q 48.140625 6.6875 53.78125 8.984375 
Q 59.421875 11.28125 64.40625 15.921875 
L 64.40625 5.609375 
Q 59.234375 2.09375 53.4375 0.328125 
Q 47.65625 -1.421875 41.21875 -1.421875 
Q 24.65625 -1.421875 15.125 8.703125 
Q 5.609375 18.84375 5.609375 36.375 
Q 5.609375 53.953125 15.125 64.078125 
Q 24.65625 74.21875 41.21875 74.21875 
Q 47.75 74.21875 53.53125 72.484375 
Q 59.328125 70.75 64.40625 67.28125 
z
" id="DejaVuSans-67"/>
      <path d="M 48.78125 52.59375 
L 48.78125 44.1875 
Q 44.96875 46.296875 41.140625 47.34375 
Q 37.3125 48.390625 33.40625 48.390625 
Q 24.65625 48.390625 19.8125 42.84375 
Q 14.984375 37.3125 14.984375 27.296875 
Q 14.984375 17.28125 19.8125 11.734375 
Q 24.65625 6.203125 33.40625 6.203125 
Q 37.3125 6.203125 41.140625 7.25 
Q 44.96875 8.296875 48.78125 10.40625 
L 48.78125 2.09375 
Q 45.015625 0.34375 40.984375 -0.53125 
Q 36.96875 -1.421875 32.421875 -1.421875 
Q 20.0625 -1.421875 12.78125 6.34375 
Q 5.515625 14.109375 5.515625 27.296875 
Q 5.515625 40.671875 12.859375 48.328125 
Q 20.21875 56 33.015625 56 
Q 37.15625 56 41.109375 55.140625 
Q 45.0625 54.296875 48.78125 52.59375 
z
" id="DejaVuSans-99"/>
      <path d="M 53.515625 70.515625 
L 53.515625 60.890625 
Q 47.90625 63.578125 42.921875 64.890625 
Q 37.9375 66.21875 33.296875 66.21875 
Q 25.25 66.21875 20.875 63.09375 
Q 16.5 59.96875 16.5 54.203125 
Q 16.5 49.359375 19.40625 46.890625 
Q 22.3125 44.4375 30.421875 42.921875 
L 36.375 41.703125 
Q 47.40625 39.59375 52.65625 34.296875 
Q 57.90625 29 57.90625 20.125 
Q 57.90625 9.515625 50.796875 4.046875 
Q 43.703125 -1.421875 29.984375 -1.421875 
Q 24.8125 -1.421875 18.96875 -0.25 
Q 13.140625 0.921875 6.890625 3.21875 
L 6.890625 13.375 
Q 12.890625 10.015625 18.65625 8.296875 
Q 24.421875 6.59375 29.984375 6.59375 
Q 38.421875 6.59375 43.015625 9.90625 
Q 47.609375 13.234375 47.609375 19.390625 
Q 47.609375 24.75 44.3125 27.78125 
Q 41.015625 30.8125 33.5 32.328125 
L 27.484375 33.5 
Q 16.453125 35.6875 11.515625 40.375 
Q 6.59375 45.0625 6.59375 53.421875 
Q 6.59375 63.09375 13.40625 68.65625 
Q 20.21875 74.21875 32.171875 74.21875 
Q 37.3125 74.21875 42.625 73.28125 
Q 47.953125 72.359375 53.515625 70.515625 
z
" id="DejaVuSans-83"/>
      <path d="M 34.1875 63.1875 
L 20.796875 26.90625 
L 47.609375 26.90625 
z
M 28.609375 72.90625 
L 39.796875 72.90625 
L 67.578125 0 
L 57.328125 0 
L 50.6875 18.703125 
L 17.828125 18.703125 
L 11.1875 0 
L 0.78125 0 
z
" id="DejaVuSans-65"/>
      <path d="M 44.390625 34.1875 
Q 47.5625 33.109375 50.5625 29.59375 
Q 53.5625 26.078125 56.59375 19.921875 
L 66.609375 0 
L 56 0 
L 46.6875 18.703125 
Q 43.0625 26.03125 39.671875 28.421875 
Q 36.28125 30.8125 30.421875 30.8125 
L 19.671875 30.8125 
L 19.671875 0 
L 9.8125 0 
L 9.8125 72.90625 
L 32.078125 72.90625 
Q 44.578125 72.90625 50.734375 67.671875 
Q 56.890625 62.453125 56.890625 51.90625 
Q 56.890625 45.015625 53.6875 40.46875 
Q 50.484375 35.9375 44.390625 34.1875 
z
M 19.671875 64.796875 
L 19.671875 38.921875 
L 32.078125 38.921875 
Q 39.203125 38.921875 42.84375 42.21875 
Q 46.484375 45.515625 46.484375 51.90625 
Q 46.484375 58.296875 42.84375 61.546875 
Q 39.203125 64.796875 32.078125 64.796875 
z
" id="DejaVuSans-82"/>
      <path d="M 28.609375 0 
L 0.78125 72.90625 
L 11.078125 72.90625 
L 34.1875 11.53125 
L 57.328125 72.90625 
L 67.578125 72.90625 
L 39.796875 0 
z
" id="DejaVuSans-86"/>
      <path d="M 9.8125 72.90625 
L 23.09375 72.90625 
L 55.421875 11.921875 
L 55.421875 72.90625 
L 64.984375 72.90625 
L 64.984375 0 
L 51.703125 0 
L 19.390625 60.984375 
L 19.390625 0 
L 9.8125 0 
z
" id="DejaVuSans-78"/>
      <path d="M 10.6875 12.40625 
L 21 12.40625 
L 21 0 
L 10.6875 0 
z
" id="DejaVuSans-46"/>
     </defs>
     <use xlink:href="#DejaVuSans-67"/>
     <use x="69.824219" xlink:href="#DejaVuSans-111"/>
     <use x="131.005859" xlink:href="#DejaVuSans-110"/>
     <use x="194.384766" xlink:href="#DejaVuSans-99"/>
     <use x="249.365234" xlink:href="#DejaVuSans-101"/>
     <use x="310.888672" xlink:href="#DejaVuSans-110"/>
     <use x="374.267578" xlink:href="#DejaVuSans-116"/>
     <use x="413.476562" xlink:href="#DejaVuSans-114"/>
     <use x="454.589844" xlink:href="#DejaVuSans-97"/>
     <use x="515.869141" xlink:href="#DejaVuSans-116"/>
     <use x="555.078125" xlink:href="#DejaVuSans-105"/>
     <use x="582.861328" xlink:href="#DejaVuSans-101"/>
     <use x="644.384766" xlink:href="#DejaVuSans-32"/>
     <use x="676.171875" xlink:href="#DejaVuSans-83"/>
     <use x="741.523438" xlink:href="#DejaVuSans-65"/>
     <use x="809.931641" xlink:href="#DejaVuSans-82"/>
     <use x="879.414062" xlink:href="#DejaVuSans-83"/>
     <use x="942.890625" xlink:href="#DejaVuSans-45"/>
     <use x="978.974609" xlink:href="#DejaVuSans-67"/>
     <use x="1048.798828" xlink:href="#DejaVuSans-111"/>
     <use x="1109.980469" xlink:href="#DejaVuSans-86"/>
     <use x="1172.513672" xlink:href="#DejaVuSans-45"/>
     <use x="1208.597656" xlink:href="#DejaVuSans-50"/>
     <use x="1272.220703" xlink:href="#DejaVuSans-32"/>
     <use x="1304.007812" xlink:href="#DejaVuSans-82"/>
     <use x="1373.490234" xlink:href="#DejaVuSans-78"/>
     <use x="1448.294922" xlink:href="#DejaVuSans-65"/>
     <use x="1516.703125" xlink:href="#DejaVuSans-32"/>
     <use x="1548.490234" xlink:href="#DejaVuSans-105"/>
     <use x="1576.273438" xlink:href="#DejaVuSans-110"/>
     <use x="1639.652344" xlink:href="#DejaVuSans-32"/>
     <use x="1671.439453" xlink:href="#DejaVuSans-114"/>
     <use x="1712.552734" xlink:href="#DejaVuSans-105"/>
     <use x="1740.335938" xlink:href="#DejaVuSans-111"/>
     <use x="1801.517578" xlink:href="#DejaVuSans-111"/>
     <use x="1862.699219" xlink:href="#DejaVuSans-108"/>
     <use x="1890.482422" xlink:href="#DejaVuSans-119"/>
     <use x="1972.269531" xlink:href="#DejaVuSans-97"/>
     <use x="2033.548828" xlink:href="#DejaVuSans-116"/>
     <use x="2072.757812" xlink:href="#DejaVuSans-101"/>
     <use x="2134.28125" xlink:href="#DejaVuSans-114"/>
     <use x="2175.394531" xlink:href="#DejaVuSans-32"/>
     <use x="2207.181641" xlink:href="#DejaVuSans-112"/>
     <use x="2270.658203" xlink:href="#DejaVuSans-101"/>
     <use x="2332.181641" xlink:href="#DejaVuSans-114"/>
     <use x="2373.294922" xlink:href="#DejaVuSans-32"/>
     <use x="2405.082031" xlink:href="#DejaVuSans-49"/>
     <use x="2468.705078" xlink:href="#DejaVuSans-48"/>
     <use x="2532.328125" xlink:href="#DejaVuSans-48"/>
     <use x="2595.951172" xlink:href="#DejaVuSans-46"/>
     <use x="2627.738281" xlink:href="#DejaVuSans-48"/>
     <use x="2691.361328" xlink:href="#DejaVuSans-48"/>
     <use x="2754.984375" xlink:href="#DejaVuSans-48"/>
     <use x="2818.607422" xlink:href="#DejaVuSans-32"/>
     <use x="2850.394531" xlink:href="#DejaVuSans-105"/>
     <use x="2878.177734" xlink:href="#DejaVuSans-110"/>
     <use x="2941.556641" xlink:href="#DejaVuSans-119"/>
     <use x="3023.34375" xlink:href="#DejaVuSans-111"/>
     <use x="3084.525391" xlink:href="#DejaVuSans-110"/>
     <use x="3147.904297" xlink:href="#DejaVuSans-101"/>
     <use x="3209.427734" xlink:href="#DejaVuSans-114"/>
     <use x="3250.541016" xlink:href="#DejaVuSans-115"/>
    </g>
   </g>
   <g id="legend_1">
    <g id="patch_7">
     <path d="M 71.8 48.598125 
L 344.44375 48.598125 
Q 346.44375 48.598125 346.44375 46.598125 
L 346.44375 32.92 
Q 346.44375 30.92 344.44375 30.92 
L 71.8 30.92 
Q 69.8 30.92 69.8 32.92 
L 69.8 46.598125 
Q 69.8 48.598125 71.8 48.598125 
z
" style="fill:#ffffff;opacity:0.8;stroke:#cccccc;stroke-linejoin:miter;"/>
    </g>
    <g id="line2d_41">
     <path d="M 73.8 39.018437 
L 93.8 39.018437 
" style="fill:none;stroke:#008000;stroke-linecap:square;stroke-width:1.5;"/>
    </g>
    <g id="line2d_42"/>
    <g id="text_23">
     <!-- RNA deeltjes per 100.000 inwoners (gemiddeld) -->
     <g transform="translate(101.8 42.518437)scale(0.1 -0.1)">
      <defs>
       <path d="M 45.40625 46.390625 
L 45.40625 75.984375 
L 54.390625 75.984375 
L 54.390625 0 
L 45.40625 0 
L 45.40625 8.203125 
Q 42.578125 3.328125 38.25 0.953125 
Q 33.9375 -1.421875 27.875 -1.421875 
Q 17.96875 -1.421875 11.734375 6.484375 
Q 5.515625 14.40625 5.515625 27.296875 
Q 5.515625 40.1875 11.734375 48.09375 
Q 17.96875 56 27.875 56 
Q 33.9375 56 38.25 53.625 
Q 42.578125 51.265625 45.40625 46.390625 
z
M 14.796875 27.296875 
Q 14.796875 17.390625 18.875 11.75 
Q 22.953125 6.109375 30.078125 6.109375 
Q 37.203125 6.109375 41.296875 11.75 
Q 45.40625 17.390625 45.40625 27.296875 
Q 45.40625 37.203125 41.296875 42.84375 
Q 37.203125 48.484375 30.078125 48.484375 
Q 22.953125 48.484375 18.875 42.84375 
Q 14.796875 37.203125 14.796875 27.296875 
z
" id="DejaVuSans-100"/>
       <path d="M 31 75.875 
Q 24.46875 64.65625 21.28125 53.65625 
Q 18.109375 42.671875 18.109375 31.390625 
Q 18.109375 20.125 21.3125 9.0625 
Q 24.515625 -2 31 -13.1875 
L 23.1875 -13.1875 
Q 15.875 -1.703125 12.234375 9.375 
Q 8.59375 20.453125 8.59375 31.390625 
Q 8.59375 42.28125 12.203125 53.3125 
Q 15.828125 64.359375 23.1875 75.875 
z
" id="DejaVuSans-40"/>
       <path d="M 45.40625 27.984375 
Q 45.40625 37.75 41.375 43.109375 
Q 37.359375 48.484375 30.078125 48.484375 
Q 22.859375 48.484375 18.828125 43.109375 
Q 14.796875 37.75 14.796875 27.984375 
Q 14.796875 18.265625 18.828125 12.890625 
Q 22.859375 7.515625 30.078125 7.515625 
Q 37.359375 7.515625 41.375 12.890625 
Q 45.40625 18.265625 45.40625 27.984375 
z
M 54.390625 6.78125 
Q 54.390625 -7.171875 48.1875 -13.984375 
Q 42 -20.796875 29.203125 -20.796875 
Q 24.46875 -20.796875 20.265625 -20.09375 
Q 16.0625 -19.390625 12.109375 -17.921875 
L 12.109375 -9.1875 
Q 16.0625 -11.328125 19.921875 -12.34375 
Q 23.78125 -13.375 27.78125 -13.375 
Q 36.625 -13.375 41.015625 -8.765625 
Q 45.40625 -4.15625 45.40625 5.171875 
L 45.40625 9.625 
Q 42.625 4.78125 38.28125 2.390625 
Q 33.9375 0 27.875 0 
Q 17.828125 0 11.671875 7.65625 
Q 5.515625 15.328125 5.515625 27.984375 
Q 5.515625 40.671875 11.671875 48.328125 
Q 17.828125 56 27.875 56 
Q 33.9375 56 38.28125 53.609375 
Q 42.625 51.21875 45.40625 46.390625 
L 45.40625 54.6875 
L 54.390625 54.6875 
z
" id="DejaVuSans-103"/>
       <path d="M 8.015625 75.875 
L 15.828125 75.875 
Q 23.140625 64.359375 26.78125 53.3125 
Q 30.421875 42.28125 30.421875 31.390625 
Q 30.421875 20.453125 26.78125 9.375 
Q 23.140625 -1.703125 15.828125 -13.1875 
L 8.015625 -13.1875 
Q 14.5 -2 17.703125 9.0625 
Q 20.90625 20.125 20.90625 31.390625 
Q 20.90625 42.671875 17.703125 53.65625 
Q 14.5 64.65625 8.015625 75.875 
z
" id="DejaVuSans-41"/>
      </defs>
      <use xlink:href="#DejaVuSans-82"/>
      <use x="69.482422" xlink:href="#DejaVuSans-78"/>
      <use x="144.287109" xlink:href="#DejaVuSans-65"/>
      <use x="212.695312" xlink:href="#DejaVuSans-32"/>
      <use x="244.482422" xlink:href="#DejaVuSans-100"/>
      <use x="307.958984" xlink:href="#DejaVuSans-101"/>
      <use x="369.482422" xlink:href="#DejaVuSans-101"/>
      <use x="431.005859" xlink:href="#DejaVuSans-108"/>
      <use x="458.789062" xlink:href="#DejaVuSans-116"/>
      <use x="497.998047" xlink:href="#DejaVuSans-106"/>
      <use x="525.78125" xlink:href="#DejaVuSans-101"/>
      <use x="587.304688" xlink:href="#DejaVuSans-115"/>
      <use x="639.404297" xlink:href="#DejaVuSans-32"/>
      <use x="671.191406" xlink:href="#DejaVuSans-112"/>
      <use x="734.667969" xlink:href="#DejaVuSans-101"/>
      <use x="796.191406" xlink:href="#DejaVuSans-114"/>
      <use x="837.304688" xlink:href="#DejaVuSans-32"/>
      <use x="869.091797" xlink:href="#DejaVuSans-49"/>
      <use x="932.714844" xlink:href="#DejaVuSans-48"/>
      <use x="996.337891" xlink:href="#DejaVuSans-48"/>
      <use x="1059.960938" xlink:href="#DejaVuSans-46"/>
      <use x="1091.748047" xlink:href="#DejaVuSans-48"/>
      <use x="1155.371094" xlink:href="#DejaVuSans-48"/>
      <use x="1218.994141" xlink:href="#DejaVuSans-48"/>
      <use x="1282.617188" xlink:href="#DejaVuSans-32"/>
      <use x="1314.404297" xlink:href="#DejaVuSans-105"/>
      <use x="1342.1875" xlink:href="#DejaVuSans-110"/>
      <use x="1405.566406" xlink:href="#DejaVuSans-119"/>
      <use x="1487.353516" xlink:href="#DejaVuSans-111"/>
      <use x="1548.535156" xlink:href="#DejaVuSans-110"/>
      <use x="1611.914062" xlink:href="#DejaVuSans-101"/>
      <use x="1673.4375" xlink:href="#DejaVuSans-114"/>
      <use x="1714.550781" xlink:href="#DejaVuSans-115"/>
      <use x="1766.650391" xlink:href="#DejaVuSans-32"/>
      <use x="1798.4375" xlink:href="#DejaVuSans-40"/>
      <use x="1837.451172" xlink:href="#DejaVuSans-103"/>
      <use x="1900.927734" xlink:href="#DejaVuSans-101"/>
      <use x="1962.451172" xlink:href="#DejaVuSans-109"/>
      <use x="2059.863281" xlink:href="#DejaVuSans-105"/>
      <use x="2087.646484" xlink:href="#DejaVuSans-100"/>
      <use x="2151.123047" xlink:href="#DejaVuSans-100"/>
      <use x="2214.599609" xlink:href="#DejaVuSans-101"/>
      <use x="2276.123047" xlink:href="#DejaVuSans-108"/>
      <use x="2303.90625" xlink:href="#DejaVuSans-100"/>
      <use x="2367.382812" xlink:href="#DejaVuSans-41"/>
     </g>
    </g>
   </g>
   <g id="text_24">
    <g id="patch_8">
     <path d="M 640.378132 177.47125 
L 650.558132 177.47125 
Q 651.358132 177.47125 651.358132 176.67125 
L 651.358132 168.92875 
Q 651.358132 168.12875 650.558132 168.12875 
L 640.378132 168.12875 
Q 639.578132 168.12875 639.578132 168.92875 
L 639.578132 176.67125 
Q 639.578132 177.47125 640.378132 177.47125 
z
" style="fill:#ff0000;stroke:#ff0000;stroke-linejoin:miter;"/>
    </g>
    <!-- 05 -->
    <g style="fill:#ffffff;" transform="translate(640.378132 175.0075)scale(0.08 -0.08)">
     <use xlink:href="#DejaVuSans-48"/>
     <use x="63.623047" xlink:href="#DejaVuSans-53"/>
    </g>
   </g>
  </g>
  <g id="text_25">
   <!-- Gegenereerd op 2023-07-05 17:38 o.b.v. data tot 2023-06-29. -->
   <g style="fill:#808080;" transform="translate(7.2 204.88175)scale(0.08 -0.08)">
    <defs>
     <path d="M 59.515625 10.40625 
L 59.515625 29.984375 
L 43.40625 29.984375 
L 43.40625 38.09375 
L 69.28125 38.09375 
L 69.28125 6.78125 
Q 63.578125 2.734375 56.6875 0.65625 
Q 49.8125 -1.421875 42 -1.421875 
Q 24.90625 -1.421875 15.25 8.5625 
Q 5.609375 18.5625 5.609375 36.375 
Q 5.609375 54.25 15.25 64.234375 
Q 24.90625 74.21875 42 74.21875 
Q 49.125 74.21875 55.546875 72.453125 
Q 61.96875 70.703125 67.390625 67.28125 
L 67.390625 56.78125 
Q 61.921875 61.421875 55.765625 63.765625 
Q 49.609375 66.109375 42.828125 66.109375 
Q 29.4375 66.109375 22.71875 58.640625 
Q 16.015625 51.171875 16.015625 36.375 
Q 16.015625 21.625 22.71875 14.15625 
Q 29.4375 6.6875 42.828125 6.6875 
Q 48.046875 6.6875 52.140625 7.59375 
Q 56.25 8.5 59.515625 10.40625 
z
" id="DejaVuSans-71"/>
     <path d="M 11.71875 12.40625 
L 22.015625 12.40625 
L 22.015625 0 
L 11.71875 0 
z
M 11.71875 51.703125 
L 22.015625 51.703125 
L 22.015625 39.3125 
L 11.71875 39.3125 
z
" id="DejaVuSans-58"/>
     <path d="M 48.6875 27.296875 
Q 48.6875 37.203125 44.609375 42.84375 
Q 40.53125 48.484375 33.40625 48.484375 
Q 26.265625 48.484375 22.1875 42.84375 
Q 18.109375 37.203125 18.109375 27.296875 
Q 18.109375 17.390625 22.1875 11.75 
Q 26.265625 6.109375 33.40625 6.109375 
Q 40.53125 6.109375 44.609375 11.75 
Q 48.6875 17.390625 48.6875 27.296875 
z
M 18.109375 46.390625 
Q 20.953125 51.265625 25.265625 53.625 
Q 29.59375 56 35.59375 56 
Q 45.5625 56 51.78125 48.09375 
Q 58.015625 40.1875 58.015625 27.296875 
Q 58.015625 14.40625 51.78125 6.484375 
Q 45.5625 -1.421875 35.59375 -1.421875 
Q 29.59375 -1.421875 25.265625 0.953125 
Q 20.953125 3.328125 18.109375 8.203125 
L 18.109375 0 
L 9.078125 0 
L 9.078125 75.984375 
L 18.109375 75.984375 
z
" id="DejaVuSans-98"/>
     <path d="M 2.984375 54.6875 
L 12.5 54.6875 
L 29.59375 8.796875 
L 46.6875 54.6875 
L 56.203125 54.6875 
L 35.6875 0 
L 23.484375 0 
z
" id="DejaVuSans-118"/>
    </defs>
    <use xlink:href="#DejaVuSans-71"/>
    <use x="77.490234" xlink:href="#DejaVuSans-101"/>
    <use x="139.013672" xlink:href="#DejaVuSans-103"/>
    <use x="202.490234" xlink:href="#DejaVuSans-101"/>
    <use x="264.013672" xlink:href="#DejaVuSans-110"/>
    <use x="327.392578" xlink:href="#DejaVuSans-101"/>
    <use x="388.916016" xlink:href="#DejaVuSans-114"/>
    <use x="427.779297" xlink:href="#DejaVuSans-101"/>
    <use x="489.302734" xlink:href="#DejaVuSans-101"/>
    <use x="550.826172" xlink:href="#DejaVuSans-114"/>
    <use x="590.189453" xlink:href="#DejaVuSans-100"/>
    <use x="653.666016" xlink:href="#DejaVuSans-32"/>
    <use x="685.453125" xlink:href="#DejaVuSans-111"/>
    <use x="746.634766" xlink:href="#DejaVuSans-112"/>
    <use x="810.111328" xlink:href="#DejaVuSans-32"/>
    <use x="841.898438" xlink:href="#DejaVuSans-50"/>
    <use x="905.521484" xlink:href="#DejaVuSans-48"/>
    <use x="969.144531" xlink:href="#DejaVuSans-50"/>
    <use x="1032.767578" xlink:href="#DejaVuSans-51"/>
    <use x="1096.390625" xlink:href="#DejaVuSans-45"/>
    <use x="1132.474609" xlink:href="#DejaVuSans-48"/>
    <use x="1196.097656" xlink:href="#DejaVuSans-55"/>
    <use x="1259.720703" xlink:href="#DejaVuSans-45"/>
    <use x="1295.804688" xlink:href="#DejaVuSans-48"/>
    <use x="1359.427734" xlink:href="#DejaVuSans-53"/>
    <use x="1423.050781" xlink:href="#DejaVuSans-32"/>
    <use x="1454.837891" xlink:href="#DejaVuSans-49"/>
    <use x="1518.460938" xlink:href="#DejaVuSans-55"/>
    <use x="1582.083984" xlink:href="#DejaVuSans-58"/>
    <use x="1615.775391" xlink:href="#DejaVuSans-51"/>
    <use x="1679.398438" xlink:href="#DejaVuSans-56"/>
    <use x="1743.021484" xlink:href="#DejaVuSans-32"/>
    <use x="1774.808594" xlink:href="#DejaVuSans-111"/>
    <use x="1834.240234" xlink:href="#DejaVuSans-46"/>
    <use x="1866.027344" xlink:href="#DejaVuSans-98"/>
    <use x="1929.503906" xlink:href="#DejaVuSans-46"/>
    <use x="1961.291016" xlink:href="#DejaVuSans-118"/>
    <use x="2012.720703" xlink:href="#DejaVuSans-46"/>
    <use x="2044.507812" xlink:href="#DejaVuSans-32"/>
    <use x="2076.294922" xlink:href="#DejaVuSans-100"/>
    <use x="2139.771484" xlink:href="#DejaVuSans-97"/>
    <use x="2201.050781" xlink:href="#DejaVuSans-116"/>
    <use x="2240.259766" xlink:href="#DejaVuSans-97"/>
    <use x="2301.539062" xlink:href="#DejaVuSans-32"/>
    <use x="2333.326172" xlink:href="#DejaVuSans-116"/>
    <use x="2372.535156" xlink:href="#DejaVuSans-111"/>
    <use x="2433.716797" xlink:href="#DejaVuSans-116"/>
    <use x="2472.925781" xlink:href="#DejaVuSans-32"/>
    <use x="2504.712891" xlink:href="#DejaVuSans-50"/>
    <use x="2568.335938" xlink:href="#DejaVuSans-48"/>
    <use x="2631.958984" xlink:href="#DejaVuSans-50"/>
    <use x="2695.582031" xlink:href="#DejaVuSans-51"/>
    <use x="2759.205078" xlink:href="#DejaVuSans-45"/>
    <use x="2795.289062" xlink:href="#DejaVuSans-48"/>
    <use x="2858.912109" xlink:href="#DejaVuSans-54"/>
    <use x="2922.535156" xlink:href="#DejaVuSans-45"/>
    <use x="2958.619141" xlink:href="#DejaVuSans-50"/>
    <use x="3022.242188" xlink:href="#DejaVuSans-57"/>
    <use x="3085.865234" xlink:href="#DejaVuSans-46"/>
   </g>
   <!-- Source code: http://github.com/realrolfje/coronadata -->
   <g style="fill:#808080;" transform="translate(7.2 213.84)scale(0.08 -0.08)">
    <defs>
     <path d="M 54.890625 33.015625 
L 54.890625 0 
L 45.90625 0 
L 45.90625 32.71875 
Q 45.90625 40.484375 42.875 44.328125 
Q 39.84375 48.1875 33.796875 48.1875 
Q 26.515625 48.1875 22.3125 43.546875 
Q 18.109375 38.921875 18.109375 30.90625 
L 18.109375 0 
L 9.078125 0 
L 9.078125 75.984375 
L 18.109375 75.984375 
L 18.109375 46.1875 
Q 21.34375 51.125 25.703125 53.5625 
Q 30.078125 56 35.796875 56 
Q 45.21875 56 50.046875 50.171875 
Q 54.890625 44.34375 54.890625 33.015625 
z
" id="DejaVuSans-104"/>
     <path d="M 25.390625 72.90625 
L 33.6875 72.90625 
L 8.296875 -9.28125 
L 0 -9.28125 
z
" id="DejaVuSans-47"/>
     <path d="M 37.109375 75.984375 
L 37.109375 68.5 
L 28.515625 68.5 
Q 23.6875 68.5 21.796875 66.546875 
Q 19.921875 64.59375 19.921875 59.515625 
L 19.921875 54.6875 
L 34.71875 54.6875 
L 34.71875 47.703125 
L 19.921875 47.703125 
L 19.921875 0 
L 10.890625 0 
L 10.890625 47.703125 
L 2.296875 47.703125 
L 2.296875 54.6875 
L 10.890625 54.6875 
L 10.890625 58.5 
Q 10.890625 67.625 15.140625 71.796875 
Q 19.390625 75.984375 28.609375 75.984375 
z
" id="DejaVuSans-102"/>
    </defs>
    <use xlink:href="#DejaVuSans-83"/>
    <use x="63.476562" xlink:href="#DejaVuSans-111"/>
    <use x="124.658203" xlink:href="#DejaVuSans-117"/>
    <use x="188.037109" xlink:href="#DejaVuSans-114"/>
    <use x="226.900391" xlink:href="#DejaVuSans-99"/>
    <use x="281.880859" xlink:href="#DejaVuSans-101"/>
    <use x="343.404297" xlink:href="#DejaVuSans-32"/>
    <use x="375.191406" xlink:href="#DejaVuSans-99"/>
    <use x="430.171875" xlink:href="#DejaVuSans-111"/>
    <use x="491.353516" xlink:href="#DejaVuSans-100"/>
    <use x="554.830078" xlink:href="#DejaVuSans-101"/>
    <use x="616.353516" xlink:href="#DejaVuSans-58"/>
    <use x="650.044922" xlink:href="#DejaVuSans-32"/>
    <use x="681.832031" xlink:href="#DejaVuSans-104"/>
    <use x="745.210938" xlink:href="#DejaVuSans-116"/>
    <use x="784.419922" xlink:href="#DejaVuSans-116"/>
    <use x="823.628906" xlink:href="#DejaVuSans-112"/>
    <use x="887.105469" xlink:href="#DejaVuSans-58"/>
    <use x="920.796875" xlink:href="#DejaVuSans-47"/>
    <use x="954.488281" xlink:href="#DejaVuSans-47"/>
    <use x="988.179688" xlink:href="#DejaVuSans-103"/>
    <use x="1051.65625" xlink:href="#DejaVuSans-105"/>
    <use x="1079.439453" xlink:href="#DejaVuSans-116"/>
    <use x="1118.648438" xlink:href="#DejaVuSans-104"/>
    <use x="1182.027344" xlink:href="#DejaVuSans-117"/>
    <use x="1245.40625" xlink:href="#DejaVuSans-98"/>
    <use x="1308.882812" xlink:href="#DejaVuSans-46"/>
    <use x="1340.669922" xlink:href="#DejaVuSans-99"/>
    <use x="1395.650391" xlink:href="#DejaVuSans-111"/>
    <use x="1456.832031" xlink:href="#DejaVuSans-109"/>
    <use x="1554.244141" xlink:href="#DejaVuSans-47"/>
    <use x="1587.935547" xlink:href="#DejaVuSans-114"/>
    <use x="1626.798828" xlink:href="#DejaVuSans-101"/>
    <use x="1688.322266" xlink:href="#DejaVuSans-97"/>
    <use x="1749.601562" xlink:href="#DejaVuSans-108"/>
    <use x="1777.384766" xlink:href="#DejaVuSans-114"/>
    <use x="1816.248047" xlink:href="#DejaVuSans-111"/>
    <use x="1877.429688" xlink:href="#DejaVuSans-108"/>
    <use x="1905.212891" xlink:href="#DejaVuSans-102"/>
    <use x="1940.417969" xlink:href="#DejaVuSans-106"/>
    <use x="1968.201172" xlink:href="#DejaVuSans-101"/>
    <use x="2029.724609" xlink:href="#DejaVuSans-47"/>
    <use x="2063.416016" xlink:href="#DejaVuSans-99"/>
    <use x="2118.396484" xlink:href="#DejaVuSans-111"/>
    <use x="2179.578125" xlink:href="#DejaVuSans-114"/>
    <use x="2218.441406" xlink:href="#DejaVuSans-111"/>
    <use x="2279.623047" xlink:href="#DejaVuSans-110"/>
    <use x="2343.001953" xlink:href="#DejaVuSans-97"/>
    <use x="2404.28125" xlink:href="#DejaVuSans-100"/>
    <use x="2467.757812" xlink:href="#DejaVuSans-97"/>
    <use x="2529.037109" xlink:href="#DejaVuSans-116"/>
    <use x="2568.246094" xlink:href="#DejaVuSans-97"/>
   </g>
  </g>
  <g id="text_26">
   <!-- Bron: https://data.rivm.nl/covid-19 -->
   <g style="fill:#808080;" transform="translate(574.79875 213.84)scale(0.08 -0.08)">
    <defs>
     <path d="M 19.671875 34.8125 
L 19.671875 8.109375 
L 35.5 8.109375 
Q 43.453125 8.109375 47.28125 11.40625 
Q 51.125 14.703125 51.125 21.484375 
Q 51.125 28.328125 47.28125 31.5625 
Q 43.453125 34.8125 35.5 34.8125 
z
M 19.671875 64.796875 
L 19.671875 42.828125 
L 34.28125 42.828125 
Q 41.5 42.828125 45.03125 45.53125 
Q 48.578125 48.25 48.578125 53.8125 
Q 48.578125 59.328125 45.03125 62.0625 
Q 41.5 64.796875 34.28125 64.796875 
z
M 9.8125 72.90625 
L 35.015625 72.90625 
Q 46.296875 72.90625 52.390625 68.21875 
Q 58.5 63.53125 58.5 54.890625 
Q 58.5 48.1875 55.375 44.234375 
Q 52.25 40.28125 46.1875 39.3125 
Q 53.46875 37.75 57.5 32.78125 
Q 61.53125 27.828125 61.53125 20.40625 
Q 61.53125 10.640625 54.890625 5.3125 
Q 48.25 0 35.984375 0 
L 9.8125 0 
z
" id="DejaVuSans-66"/>
    </defs>
    <use xlink:href="#DejaVuSans-66"/>
    <use x="68.603516" xlink:href="#DejaVuSans-114"/>
    <use x="107.466797" xlink:href="#DejaVuSans-111"/>
    <use x="168.648438" xlink:href="#DejaVuSans-110"/>
    <use x="232.027344" xlink:href="#DejaVuSans-58"/>
    <use x="265.71875" xlink:href="#DejaVuSans-32"/>
    <use x="297.505859" xlink:href="#DejaVuSans-104"/>
    <use x="360.884766" xlink:href="#DejaVuSans-116"/>
    <use x="400.09375" xlink:href="#DejaVuSans-116"/>
    <use x="439.302734" xlink:href="#DejaVuSans-112"/>
    <use x="502.779297" xlink:href="#DejaVuSans-115"/>
    <use x="554.878906" xlink:href="#DejaVuSans-58"/>
    <use x="588.570312" xlink:href="#DejaVuSans-47"/>
    <use x="622.261719" xlink:href="#DejaVuSans-47"/>
    <use x="655.953125" xlink:href="#DejaVuSans-100"/>
    <use x="719.429688" xlink:href="#DejaVuSans-97"/>
    <use x="780.708984" xlink:href="#DejaVuSans-116"/>
    <use x="819.917969" xlink:href="#DejaVuSans-97"/>
    <use x="881.197266" xlink:href="#DejaVuSans-46"/>
    <use x="912.984375" xlink:href="#DejaVuSans-114"/>
    <use x="954.097656" xlink:href="#DejaVuSans-105"/>
    <use x="981.880859" xlink:href="#DejaVuSans-118"/>
    <use x="1041.060547" xlink:href="#DejaVuSans-109"/>
    <use x="1138.472656" xlink:href="#DejaVuSans-46"/>
    <use x="1170.259766" xlink:href="#DejaVuSans-110"/>
    <use x="1233.638672" xlink:href="#DejaVuSans-108"/>
    <use x="1261.421875" xlink:href="#DejaVuSans-47"/>
    <use x="1295.113281" xlink:href="#DejaVuSans-99"/>
    <use x="1350.09375" xlink:href="#DejaVuSans-111"/>
    <use x="1411.275391" xlink:href="#DejaVuSans-118"/>
    <use x="1470.455078" xlink:href="#DejaVuSans-105"/>
    <use x="1498.238281" xlink:href="#DejaVuSans-100"/>
    <use x="1561.714844" xlink:href="#DejaVuSans-45"/>
    <use x="1597.798828" xlink:href="#DejaVuSans-49"/>
    <use x="1661.421875" xlink:href="#DejaVuSans-57"/>
   </g>
  </g>
  <g id="text_27">
   <g id="patch_9">
    <path d="M 68 66.14375 
L 203.68625 66.14375 
L 203.68625 50.40125 
L 68 50.40125 
z
" style="fill:#ffffff;stroke:#ffffff;stroke-linejoin:miter;"/>
   </g>
   <!-- (T = Tera = 1.000.000.000.000) -->
   <g style="fill:#808080;" transform="translate(72 60.48)scale(0.08 -0.08)">
    <defs>
     <path d="M 10.59375 45.40625 
L 73.1875 45.40625 
L 73.1875 37.203125 
L 10.59375 37.203125 
z
M 10.59375 25.484375 
L 73.1875 25.484375 
L 73.1875 17.1875 
L 10.59375 17.1875 
z
" id="DejaVuSans-61"/>
    </defs>
    <use xlink:href="#DejaVuSans-40"/>
    <use x="39.013672" xlink:href="#DejaVuSans-84"/>
    <use x="100.097656" xlink:href="#DejaVuSans-32"/>
    <use x="131.884766" xlink:href="#DejaVuSans-61"/>
    <use x="215.673828" xlink:href="#DejaVuSans-32"/>
    <use x="247.460938" xlink:href="#DejaVuSans-84"/>
    <use x="291.544922" xlink:href="#DejaVuSans-101"/>
    <use x="353.068359" xlink:href="#DejaVuSans-114"/>
    <use x="394.181641" xlink:href="#DejaVuSans-97"/>
    <use x="455.460938" xlink:href="#DejaVuSans-32"/>
    <use x="487.248047" xlink:href="#DejaVuSans-61"/>
    <use x="571.037109" xlink:href="#DejaVuSans-32"/>
    <use x="602.824219" xlink:href="#DejaVuSans-49"/>
    <use x="666.447266" xlink:href="#DejaVuSans-46"/>
    <use x="698.234375" xlink:href="#DejaVuSans-48"/>
    <use x="761.857422" xlink:href="#DejaVuSans-48"/>
    <use x="825.480469" xlink:href="#DejaVuSans-48"/>
    <use x="889.103516" xlink:href="#DejaVuSans-46"/>
    <use x="920.890625" xlink:href="#DejaVuSans-48"/>
    <use x="984.513672" xlink:href="#DejaVuSans-48"/>
    <use x="1048.136719" xlink:href="#DejaVuSans-48"/>
    <use x="1111.759766" xlink:href="#DejaVuSans-46"/>
    <use x="1143.546875" xlink:href="#DejaVuSans-48"/>
    <use x="1207.169922" xlink:href="#DejaVuSans-48"/>
    <use x="1270.792969" xlink:href="#DejaVuSans-48"/>
    <use x="1334.416016" xlink:href="#DejaVuSans-46"/>
    <use x="1366.203125" xlink:href="#DejaVuSans-48"/>
    <use x="1429.826172" xlink:href="#DejaVuSans-48"/>
    <use x="1493.449219" xlink:href="#DejaVuSans-48"/>
    <use x="1557.072266" xlink:href="#DejaVuSans-41"/>
   </g>
  </g>
  <g id="text_28">
   <g id="patch_10">
    <path d="M 428 70.879688 
L 555.317188 70.879688 
L 555.317188 53.201563 
L 428 53.201563 
z
" style="fill:#ffffff;stroke:#ffffff;stroke-linejoin:miter;"/>
   </g>
   <!-- "Je plee liegt niet" - Rolf -->
   <g style="fill:#808080;" transform="translate(432 64.8)scale(0.1 -0.1)">
    <defs>
     <path d="M 17.921875 72.90625 
L 17.921875 45.796875 
L 9.625 45.796875 
L 9.625 72.90625 
z
M 36.375 72.90625 
L 36.375 45.796875 
L 28.078125 45.796875 
L 28.078125 72.90625 
z
" id="DejaVuSans-34"/>
     <path d="M 9.8125 72.90625 
L 19.671875 72.90625 
L 19.671875 5.078125 
Q 19.671875 -8.109375 14.671875 -14.0625 
Q 9.671875 -20.015625 -1.421875 -20.015625 
L -5.171875 -20.015625 
L -5.171875 -11.71875 
L -2.09375 -11.71875 
Q 4.4375 -11.71875 7.125 -8.046875 
Q 9.8125 -4.390625 9.8125 5.078125 
z
" id="DejaVuSans-74"/>
    </defs>
    <use xlink:href="#DejaVuSans-34"/>
    <use x="45.996094" xlink:href="#DejaVuSans-74"/>
    <use x="75.488281" xlink:href="#DejaVuSans-101"/>
    <use x="137.011719" xlink:href="#DejaVuSans-32"/>
    <use x="168.798828" xlink:href="#DejaVuSans-112"/>
    <use x="232.275391" xlink:href="#DejaVuSans-108"/>
    <use x="260.058594" xlink:href="#DejaVuSans-101"/>
    <use x="321.582031" xlink:href="#DejaVuSans-101"/>
    <use x="383.105469" xlink:href="#DejaVuSans-32"/>
    <use x="414.892578" xlink:href="#DejaVuSans-108"/>
    <use x="442.675781" xlink:href="#DejaVuSans-105"/>
    <use x="470.458984" xlink:href="#DejaVuSans-101"/>
    <use x="531.982422" xlink:href="#DejaVuSans-103"/>
    <use x="595.458984" xlink:href="#DejaVuSans-116"/>
    <use x="634.667969" xlink:href="#DejaVuSans-32"/>
    <use x="666.455078" xlink:href="#DejaVuSans-110"/>
    <use x="729.833984" xlink:href="#DejaVuSans-105"/>
    <use x="757.617188" xlink:href="#DejaVuSans-101"/>
    <use x="819.140625" xlink:href="#DejaVuSans-116"/>
    <use x="858.349609" xlink:href="#DejaVuSans-34"/>
    <use x="904.345703" xlink:href="#DejaVuSans-32"/>
    <use x="936.132812" xlink:href="#DejaVuSans-45"/>
    <use x="972.216797" xlink:href="#DejaVuSans-32"/>
    <use x="1004.003906" xlink:href="#DejaVuSans-82"/>
    <use x="1068.986328" xlink:href="#DejaVuSans-111"/>
    <use x="1130.167969" xlink:href="#DejaVuSans-108"/>
    <use x="1157.951172" xlink:href="#DejaVuSans-102"/>
   </g>
  </g>
 </g>
 <defs>
  <clipPath id="p6b5c4e3156">
   <rect height="146.88" width="590.4" x="64.8" y="25.92"/>
  </clipPath>
 </defs>
</svg>
