<?xml version="1.0" encoding="utf-8" standalone="no"?>
<!DOCTYPE svg PUBLIC "-//W3C//DTD SVG 1.1//EN"
  "http://www.w3.org/Graphics/SVG/1.1/DTD/svg11.dtd">
<!-- Created with matplotlib (https://matplotlib.org/) -->
<svg height="216pt" version="1.1" viewBox="0 0 720 216" width="720pt" xmlns="http://www.w3.org/2000/svg" xmlns:xlink="http://www.w3.org/1999/xlink">
 <metadata>
  <rdf:RDF xmlns:cc="http://creativecommons.org/ns#" xmlns:dc="http://purl.org/dc/elements/1.1/" xmlns:rdf="http://www.w3.org/1999/02/22-rdf-syntax-ns#">
   <cc:Work>
    <dc:type rdf:resource="http://purl.org/dc/dcmitype/StillImage"/>
    <dc:date>2021-10-16T11:41:04.675556</dc:date>
    <dc:format>image/svg+xml</dc:format>
    <dc:creator>
     <cc:Agent>
      <dc:title>Matplotlib v3.3.2, https://matplotlib.org/</dc:title>
     </cc:Agent>
    </dc:creator>
   </cc:Work>
  </rdf:RDF>
 </metadata>
 <defs>
  <style type="text/css">*{stroke-linecap:butt;stroke-linejoin:round;}</style>
 </defs>
 <g id="figure_1">
  <g id="patch_1">
   <path d="M 0 216 
L 720 216 
L 720 0 
L 0 0 
z
" style="fill:#ffffff;"/>
  </g>
  <g id="axes_1">
   <g id="patch_2">
    <path d="M 64.8 172.8 
L 655.2 172.8 
L 655.2 25.92 
L 64.8 25.92 
z
" style="fill:#ffffff;"/>
   </g>
   <g id="PolyCollection_1">
    <path clip-path="url(#p4daaf65f48)" d="M 93.336 172.8 
L 93.336 172.8 
L 94.32 172.8 
L 95.304 172.8 
L 96.288 172.8 
L 99.24 172.8 
L 100.224 172.8 
L 101.208 172.8 
L 102.192 172.8 
L 103.176 172.8 
L 104.16 172.8 
L 107.112 172.8 
L 108.096 172.8 
L 109.08 172.8 
L 110.064 172.8 
L 111.048 172.8 
L 113.016 172.8 
L 114 172.8 
L 114.984 172.8 
L 115.968 172.8 
L 116.952 172.8 
L 119.904 172.8 
L 120.888 172.8 
L 121.872 172.8 
L 122.856 172.8 
L 123.84 172.8 
L 124.824 172.8 
L 126.792 172.8 
L 128.76 172.8 
L 129.744 172.8 
L 130.728 172.8 
L 132.696 172.8 
L 133.68 172.8 
L 134.664 172.8 
L 135.648 172.8 
L 136.632 172.8 
L 138.6 172.8 
L 139.584 172.8 
L 140.568 172.8 
L 141.552 172.8 
L 142.536 172.8 
L 143.52 172.8 
L 144.504 172.8 
L 145.488 172.8 
L 146.472 172.8 
L 147.456 172.8 
L 148.44 172.8 
L 149.424 172.8 
L 150.408 172.8 
L 151.392 172.8 
L 152.376 172.8 
L 155.328 172.8 
L 156.312 172.8 
L 157.296 172.8 
L 158.28 172.8 
L 159.264 172.8 
L 160.248 172.8 
L 161.232 172.8 
L 162.216 172.8 
L 163.2 172.8 
L 164.184 172.8 
L 165.168 172.8 
L 168.12 172.8 
L 169.104 172.8 
L 170.088 172.8 
L 171.072 172.8 
L 175.008 172.8 
L 175.992 172.8 
L 176.976 172.8 
L 180.912 172.8 
L 181.896 172.8 
L 182.88 172.8 
L 183.864 172.8 
L 185.832 172.8 
L 189.768 172.8 
L 190.752 172.8 
L 191.736 172.8 
L 196.656 172.8 
L 197.64 172.8 
L 199.608 172.8 
L 201.576 172.8 
L 202.56 172.8 
L 203.544 172.8 
L 204.528 172.8 
L 205.512 172.8 
L 206.496 172.8 
L 207.48 172.8 
L 208.464 172.8 
L 209.448 172.8 
L 210.432 172.8 
L 211.416 172.8 
L 212.4 172.8 
L 213.384 172.8 
L 214.368 172.8 
L 215.352 172.8 
L 216.336 172.8 
L 217.32 172.8 
L 218.304 172.8 
L 219.288 172.8 
L 220.272 172.8 
L 221.256 172.8 
L 223.224 172.8 
L 224.208 172.8 
L 225.192 172.8 
L 226.176 172.8 
L 227.16 172.8 
L 228.144 172.8 
L 229.128 172.8 
L 230.112 172.8 
L 231.096 172.8 
L 232.08 172.8 
L 233.064 172.8 
L 234.048 172.8 
L 235.032 172.8 
L 236.016 172.8 
L 237 172.8 
L 237.984 172.8 
L 238.968 172.8 
L 239.952 172.8 
L 240.936 172.8 
L 241.92 172.8 
L 242.904 172.8 
L 243.888 172.8 
L 244.872 172.8 
L 245.856 172.8 
L 246.84 172.8 
L 247.824 172.8 
L 248.808 172.8 
L 249.792 172.8 
L 250.776 172.8 
L 251.76 172.8 
L 252.744 172.8 
L 253.728 172.8 
L 254.712 172.8 
L 255.696 172.8 
L 256.68 172.8 
L 257.664 172.8 
L 258.648 172.8 
L 259.632 172.8 
L 260.616 172.8 
L 261.6 172.8 
L 262.584 172.8 
L 263.568 172.8 
L 264.552 172.8 
L 265.536 172.8 
L 266.52 172.8 
L 267.504 172.8 
L 268.488 172.8 
L 269.472 172.8 
L 270.456 172.8 
L 271.44 172.8 
L 272.424 172.8 
L 273.408 172.8 
L 274.392 172.8 
L 275.376 172.8 
L 276.36 172.8 
L 277.344 172.8 
L 278.328 172.8 
L 279.312 172.8 
L 280.296 172.8 
L 281.28 172.8 
L 282.264 172.8 
L 283.248 172.8 
L 284.232 172.8 
L 285.216 172.8 
L 286.2 172.8 
L 287.184 172.8 
L 288.168 172.8 
L 289.152 172.8 
L 290.136 172.8 
L 291.12 172.8 
L 292.104 172.8 
L 293.088 172.8 
L 294.072 172.8 
L 295.056 172.8 
L 296.04 172.8 
L 297.024 172.8 
L 298.008 172.8 
L 298.992 172.8 
L 299.976 172.8 
L 300.96 172.8 
L 301.944 172.8 
L 302.928 172.8 
L 303.912 172.8 
L 304.896 172.8 
L 305.88 172.8 
L 306.864 172.8 
L 307.848 172.8 
L 308.832 172.8 
L 309.816 172.8 
L 310.8 172.8 
L 311.784 172.8 
L 312.768 172.8 
L 313.752 172.8 
L 314.736 172.8 
L 315.72 172.8 
L 316.704 172.8 
L 317.688 172.8 
L 318.672 172.8 
L 319.656 172.8 
L 320.64 172.8 
L 321.624 172.8 
L 322.608 172.8 
L 323.592 172.8 
L 324.576 172.8 
L 325.56 172.8 
L 326.544 172.8 
L 327.528 172.8 
L 328.512 172.8 
L 329.496 172.8 
L 330.48 172.8 
L 331.464 172.8 
L 332.448 172.8 
L 333.432 172.8 
L 334.416 172.8 
L 335.4 172.8 
L 336.384 172.8 
L 337.368 172.8 
L 338.352 172.8 
L 339.336 172.8 
L 340.32 172.8 
L 341.304 172.8 
L 342.288 172.8 
L 343.272 172.8 
L 344.256 172.8 
L 345.24 172.8 
L 346.224 172.8 
L 347.208 172.8 
L 348.192 172.8 
L 349.176 172.8 
L 350.16 172.8 
L 351.144 172.8 
L 352.128 172.8 
L 353.112 172.8 
L 354.096 172.8 
L 355.08 172.8 
L 356.064 172.8 
L 357.048 172.8 
L 358.032 172.8 
L 359.016 172.8 
L 360 172.8 
L 360.984 172.8 
L 361.968 172.8 
L 362.952 172.8 
L 363.936 172.8 
L 365.904 172.8 
L 366.888 172.8 
L 367.872 172.8 
L 368.856 172.8 
L 369.84 172.8 
L 370.824 172.8 
L 371.808 172.8 
L 372.792 172.8 
L 373.776 172.8 
L 374.76 172.8 
L 375.744 172.8 
L 376.728 172.8 
L 377.712 172.8 
L 378.696 172.8 
L 379.68 172.8 
L 380.664 172.8 
L 381.648 172.8 
L 382.632 172.8 
L 383.616 172.8 
L 384.6 172.8 
L 385.584 172.8 
L 386.568 172.8 
L 387.552 172.8 
L 388.536 172.8 
L 389.52 172.8 
L 390.504 172.8 
L 391.488 172.8 
L 392.472 172.8 
L 393.456 172.8 
L 394.44 172.8 
L 395.424 172.8 
L 396.408 172.8 
L 397.392 172.8 
L 398.376 172.8 
L 399.36 172.8 
L 400.344 172.8 
L 401.328 172.8 
L 402.312 172.8 
L 403.296 172.8 
L 404.28 172.8 
L 405.264 172.8 
L 406.248 172.8 
L 407.232 172.8 
L 408.216 172.8 
L 409.2 172.8 
L 410.184 172.8 
L 411.168 172.8 
L 412.152 172.8 
L 413.136 172.8 
L 414.12 172.8 
L 415.104 172.8 
L 416.088 172.8 
L 417.072 172.8 
L 418.056 172.8 
L 419.04 172.8 
L 420.024 172.8 
L 421.008 172.8 
L 421.992 172.8 
L 422.976 172.8 
L 423.96 172.8 
L 424.944 172.8 
L 425.928 172.8 
L 426.912 172.8 
L 427.896 172.8 
L 428.88 172.8 
L 429.864 172.8 
L 430.848 172.8 
L 431.832 172.8 
L 432.816 172.8 
L 433.8 172.8 
L 434.784 172.8 
L 435.768 172.8 
L 436.752 172.8 
L 437.736 172.8 
L 438.72 172.8 
L 439.704 172.8 
L 440.688 172.8 
L 441.672 172.8 
L 442.656 172.8 
L 443.64 172.8 
L 444.624 172.8 
L 445.608 172.8 
L 446.592 172.8 
L 447.576 172.8 
L 448.56 172.8 
L 449.544 172.8 
L 450.528 172.8 
L 451.512 172.8 
L 452.496 172.8 
L 453.48 172.8 
L 454.464 172.8 
L 455.448 172.8 
L 456.432 172.8 
L 457.416 172.8 
L 458.4 172.8 
L 459.384 172.8 
L 460.368 172.8 
L 461.352 172.8 
L 462.336 172.8 
L 463.32 172.8 
L 464.304 172.8 
L 465.288 172.8 
L 466.272 172.8 
L 467.256 172.8 
L 468.24 172.8 
L 469.224 172.8 
L 470.208 172.8 
L 471.192 172.8 
L 472.176 172.8 
L 473.16 172.8 
L 474.144 172.8 
L 475.128 172.8 
L 476.112 172.8 
L 477.096 172.8 
L 478.08 172.8 
L 479.064 172.8 
L 480.048 172.8 
L 481.032 172.8 
L 482.016 172.8 
L 483 172.8 
L 483.984 172.8 
L 484.968 172.8 
L 485.952 172.8 
L 486.936 172.8 
L 487.92 172.8 
L 488.904 172.8 
L 489.888 172.8 
L 490.872 172.8 
L 491.856 172.8 
L 492.84 172.8 
L 493.824 172.8 
L 494.808 172.8 
L 495.792 172.8 
L 496.776 172.8 
L 497.76 172.8 
L 498.744 172.8 
L 499.728 172.8 
L 500.712 172.8 
L 501.696 172.8 
L 502.68 172.8 
L 503.664 172.8 
L 505.632 172.8 
L 506.616 172.8 
L 507.6 172.8 
L 508.584 172.8 
L 509.568 172.8 
L 510.552 172.8 
L 511.536 172.8 
L 512.52 172.8 
L 513.504 172.8 
L 514.488 172.8 
L 515.472 172.8 
L 516.456 172.8 
L 517.44 172.8 
L 519.408 172.8 
L 520.392 172.8 
L 521.376 172.8 
L 522.36 172.8 
L 523.344 172.8 
L 525.312 172.8 
L 526.296 172.8 
L 527.28 172.8 
L 528.264 172.8 
L 529.248 172.8 
L 530.232 172.8 
L 532.2 172.8 
L 533.184 172.8 
L 534.168 172.8 
L 535.152 172.8 
L 536.136 172.8 
L 537.12 172.8 
L 538.104 172.8 
L 539.088 172.8 
L 540.072 172.8 
L 541.056 172.8 
L 542.04 172.8 
L 543.024 172.8 
L 544.008 172.8 
L 544.992 172.8 
L 545.976 172.8 
L 546.96 172.8 
L 547.944 172.8 
L 548.928 172.8 
L 549.912 172.8 
L 550.896 172.8 
L 551.88 172.8 
L 552.864 172.8 
L 553.848 172.8 
L 554.832 172.8 
L 555.816 172.8 
L 556.8 172.8 
L 557.784 172.8 
L 559.752 172.8 
L 560.736 172.8 
L 561.72 172.8 
L 562.704 172.8 
L 563.688 172.8 
L 564.672 172.8 
L 565.656 172.8 
L 566.64 172.8 
L 567.624 172.8 
L 568.608 172.8 
L 569.592 172.8 
L 570.576 172.8 
L 571.56 172.8 
L 572.544 172.8 
L 573.528 172.8 
L 574.512 172.8 
L 575.496 172.8 
L 576.48 172.8 
L 577.464 172.8 
L 578.448 172.8 
L 579.432 172.8 
L 580.416 172.8 
L 581.4 172.8 
L 582.384 172.8 
L 583.368 172.8 
L 584.352 172.8 
L 585.336 172.8 
L 586.32 172.8 
L 587.304 172.8 
L 588.288 172.8 
L 589.272 172.8 
L 590.256 172.8 
L 591.24 172.8 
L 592.224 172.8 
L 593.208 172.8 
L 594.192 172.8 
L 595.176 172.8 
L 596.16 172.8 
L 597.144 172.8 
L 598.128 172.8 
L 599.112 172.8 
L 600.096 172.8 
L 601.08 172.8 
L 602.064 172.8 
L 603.048 172.8 
L 604.032 172.8 
L 605.016 172.8 
L 606 172.8 
L 606.984 172.8 
L 607.968 172.8 
L 608.952 172.8 
L 609.936 172.8 
L 610.92 172.8 
L 611.904 172.8 
L 612.888 172.8 
L 613.872 172.8 
L 614.856 172.8 
L 615.84 172.8 
L 616.824 172.8 
L 617.808 172.8 
L 618.792 172.8 
L 619.776 172.8 
L 620.76 172.8 
L 621.744 172.8 
L 622.728 172.8 
L 623.712 172.8 
L 624.696 172.8 
L 625.68 172.8 
L 626.664 172.8 
L 627.648 172.8 
L 628.632 172.8 
L 629.616 172.8 
L 630.6 172.8 
L 631.584 172.8 
L 632.568 172.8 
L 633.552 172.8 
L 634.536 172.8 
L 635.52 172.8 
L 636.504 172.8 
L 637.488 172.8 
L 638.472 172.8 
L 639.456 172.8 
L 640.44 172.8 
L 641.424 172.8 
L 642.408 172.8 
L 643.392 172.8 
L 644.376 172.8 
L 645.36 172.8 
L 645.36 172.8 
L 645.36 126.095382 
L 644.376 148.301883 
L 643.392 144.39323 
L 642.408 137.557415 
L 641.424 142.249331 
L 640.44 146.00738 
L 639.456 142.898979 
L 638.472 141.233615 
L 637.488 157.708606 
L 636.504 152.384637 
L 635.52 151.621529 
L 634.536 140.244596 
L 633.552 162.910345 
L 632.568 163.7422 
L 631.584 164.693793 
L 630.6 160.735574 
L 629.616 160.942005 
L 628.632 165.492137 
L 627.648 165.526276 
L 626.664 164.917454 
L 625.68 165.767747 
L 624.696 161.904068 
L 623.712 160.632541 
L 622.728 158.187345 
L 621.744 159.65835 
L 620.76 159.67445 
L 619.776 156.161764 
L 618.792 158.994726 
L 617.808 160.058724 
L 616.824 158.545831 
L 615.84 154.614238 
L 614.856 156.040338 
L 613.872 154.075736 
L 612.888 155.497653 
L 611.904 152.587973 
L 610.92 159.071893 
L 609.936 158.314181 
L 608.952 156.48511 
L 607.968 151.198209 
L 606.984 156.308147 
L 606 140.121158 
L 605.016 143.77803 
L 604.032 153.051543 
L 603.048 154.038196 
L 602.064 113.673352 
L 601.08 126.552328 
L 600.096 86.555518 
L 599.112 91.367267 
L 598.128 105.362619 
L 597.144 110.946525 
L 596.16 112.114965 
L 595.176 67.483907 
L 594.192 109.565735 
L 593.208 99.673739 
L 592.224 118.011793 
L 591.24 133.57501 
L 590.256 96.914461 
L 589.272 102.426591 
L 588.288 117.063489 
L 587.304 103.97465 
L 586.32 128.231253 
L 585.336 120.401342 
L 584.352 133.881449 
L 583.368 118.374431 
L 582.384 118.544303 
L 581.4 113.231311 
L 580.416 94.393136 
L 579.432 100.809521 
L 578.448 116.982772 
L 577.464 122.566281 
L 576.48 117.939511 
L 575.496 128.276387 
L 574.512 124.907374 
L 573.528 124.049843 
L 572.544 99.893438 
L 571.56 141.761223 
L 570.576 150.067636 
L 569.592 140.83918 
L 568.608 131.634992 
L 567.624 105.298774 
L 566.64 96.246395 
L 565.656 112.877385 
L 564.672 117.094054 
L 563.688 118.679378 
L 562.704 128.586689 
L 561.72 112.395215 
L 560.736 129.273481 
L 559.752 135.748475 
L 557.784 69.624428 
L 556.8 86.109646 
L 555.816 115.620573 
L 554.832 120.083675 
L 553.848 107.106826 
L 552.864 113.775038 
L 551.88 131.657997 
L 550.896 133.732477 
L 549.912 152.113326 
L 548.928 158.278977 
L 547.944 154.895313 
L 546.96 132.472614 
L 545.976 165.203222 
L 544.992 162.865835 
L 544.008 165.044743 
L 543.024 161.123898 
L 542.04 157.473302 
L 541.056 159.381456 
L 540.072 149.038951 
L 539.088 162.578342 
L 538.104 166.706488 
L 537.12 164.762485 
L 536.136 163.466462 
L 535.152 166.407872 
L 534.168 160.647305 
L 533.184 165.344461 
L 532.2 166.932537 
L 530.232 164.907603 
L 529.248 166.048249 
L 528.264 158.564879 
L 527.28 165.651949 
L 526.296 163.717187 
L 525.312 152.601763 
L 523.344 166.231205 
L 522.36 158.369896 
L 521.376 164.721914 
L 520.392 165.454857 
L 519.408 156.943142 
L 517.44 154.317977 
L 516.456 161.941118 
L 515.472 153.307361 
L 514.488 150.072912 
L 513.504 155.840208 
L 512.52 143.823819 
L 511.536 159.958058 
L 510.552 157.182068 
L 509.568 160.724095 
L 508.584 150.87697 
L 507.6 146.072729 
L 506.616 147.623512 
L 505.632 156.278739 
L 503.664 160.980164 
L 502.68 159.296363 
L 501.696 144.976202 
L 500.712 147.069025 
L 499.728 142.240589 
L 498.744 150.252303 
L 497.76 158.486605 
L 496.776 144.834087 
L 495.792 135.026605 
L 494.808 137.38719 
L 493.824 140.76536 
L 492.84 145.787135 
L 491.856 108.75472 
L 490.872 103.262195 
L 489.888 115.853748 
L 488.904 141.745611 
L 487.92 127.974218 
L 486.936 114.265223 
L 485.952 139.502399 
L 484.968 143.86213 
L 483.984 158.802785 
L 483 153.367031 
L 482.016 115.730656 
L 481.032 135.551623 
L 480.048 140.781943 
L 479.064 121.148949 
L 478.08 133.51249 
L 477.096 130.091271 
L 476.112 135.880988 
L 475.128 147.345678 
L 474.144 147.358762 
L 473.16 137.24546 
L 472.176 138.463304 
L 471.192 127.871107 
L 470.208 109.999958 
L 469.224 143.626176 
L 468.24 145.033573 
L 467.256 148.298329 
L 466.272 131.582982 
L 465.288 142.220105 
L 464.304 137.02193 
L 463.32 100.001389 
L 462.336 134.666472 
L 461.352 148.856331 
L 460.368 123.085239 
L 459.384 123.28907 
L 458.4 134.702381 
L 457.416 144.519171 
L 456.432 142.299816 
L 455.448 137.706486 
L 454.464 136.594829 
L 453.48 146.560702 
L 452.496 138.886122 
L 451.512 139.429368 
L 450.528 132.664801 
L 449.544 141.618189 
L 448.56 122.583908 
L 447.576 144.576796 
L 446.592 133.39536 
L 445.608 137.273546 
L 444.624 137.452636 
L 443.64 94.154458 
L 442.656 149.836529 
L 441.672 146.658218 
L 440.688 144.203056 
L 439.704 153.593223 
L 438.72 131.990137 
L 437.736 150.482938 
L 436.752 146.062586 
L 435.768 138.270488 
L 434.784 140.474265 
L 433.8 136.173656 
L 432.816 145.561687 
L 431.832 145.824076 
L 430.848 134.917762 
L 429.864 136.10468 
L 428.88 135.503673 
L 427.896 143.411853 
L 426.912 140.431129 
L 425.928 149.631861 
L 424.944 144.98062 
L 423.96 152.134886 
L 422.976 152.822361 
L 421.992 107.094418 
L 421.008 150.107848 
L 420.024 155.110677 
L 419.04 147.417759 
L 418.056 134.378867 
L 417.072 123.736455 
L 416.088 94.452958 
L 415.104 122.0091 
L 414.12 119.619901 
L 413.136 121.188992 
L 412.152 136.746587 
L 411.168 126.434458 
L 410.184 98.953439 
L 409.2 132.435553 
L 408.216 143.631971 
L 407.232 133.624532 
L 406.248 131.986882 
L 405.264 145.900622 
L 404.28 103.401322 
L 403.296 140.75296 
L 402.312 156.623471 
L 401.328 115.693219 
L 400.344 152.467855 
L 399.36 136.724815 
L 398.376 127.879979 
L 397.392 110.949963 
L 396.408 138.956921 
L 395.424 141.070653 
L 394.44 129.142211 
L 393.456 15.68914 
L 392.472 112.51842 
L 391.488 118.917676 
L 390.504 122.464196 
L 389.52 116.446134 
L 388.536 123.321189 
L 387.552 128.227239 
L 386.568 120.804251 
L 385.584 114.072448 
L 384.6 119.903631 
L 383.616 70.994588 
L 382.632 126.808108 
L 381.648 95.85818 
L 380.664 119.417674 
L 379.68 118.310906 
L 378.696 138.198319 
L 377.712 118.67097 
L 376.728 100.435639 
L 375.744 102.553918 
L 374.76 139.020643 
L 373.776 143.226033 
L 372.792 134.632717 
L 371.808 94.712797 
L 370.824 141.289227 
L 369.84 136.549214 
L 368.856 128.651341 
L 367.872 142.366857 
L 366.888 142.144416 
L 365.904 148.582004 
L 363.936 150.301365 
L 362.952 124.130686 
L 361.968 148.463833 
L 360.984 109.279355 
L 360 137.513423 
L 359.016 110.618042 
L 358.032 157.079793 
L 357.048 83.438853 
L 356.064 111.983864 
L 355.08 73.10336 
L 354.096 133.429774 
L 353.112 141.10212 
L 352.128 126.848849 
L 351.144 131.986563 
L 350.16 120.910009 
L 349.176 111.682893 
L 348.192 98.98178 
L 347.208 126.490178 
L 346.224 127.43779 
L 345.24 134.07015 
L 344.256 144.533651 
L 343.272 131.680919 
L 342.288 150.393064 
L 341.304 145.27843 
L 340.32 139.303238 
L 339.336 155.751244 
L 338.352 154.233432 
L 337.368 134.665619 
L 336.384 150.453264 
L 335.4 133.212145 
L 334.416 112.441861 
L 333.432 145.385705 
L 332.448 149.906995 
L 331.464 140.872824 
L 330.48 154.75904 
L 329.496 158.325885 
L 328.512 122.986544 
L 327.528 151.408339 
L 326.544 133.081133 
L 325.56 150.505208 
L 324.576 140.557451 
L 323.592 148.638725 
L 322.608 150.043084 
L 321.624 135.317896 
L 320.64 130.896421 
L 319.656 44.19538 
L 318.672 48.314342 
L 317.688 38.960058 
L 316.704 120.178486 
L 315.72 127.942063 
L 314.736 127.312334 
L 313.752 112.150758 
L 312.768 55.100585 
L 311.784 90.109583 
L 310.8 105.917867 
L 309.816 118.046992 
L 308.832 144.181423 
L 307.848 133.659635 
L 306.864 131.180353 
L 305.88 77.76794 
L 304.896 62.971903 
L 303.912 124.882684 
L 302.928 89.662709 
L 301.944 10.998957 
L 300.96 42.325429 
L 299.976 119.37907 
L 298.992 60.147282 
L 298.008 113.670515 
L 297.024 114.579916 
L 296.04 139.850924 
L 295.056 -22.688593 
L 294.072 97.161934 
L 293.088 124.685875 
L 292.104 92.778764 
L 291.12 116.281461 
L 290.136 84.918185 
L 289.152 138.007466 
L 288.168 124.430258 
L 287.184 136.678603 
L 286.2 136.124372 
L 285.216 61.256752 
L 284.232 63.073683 
L 283.248 104.374328 
L 282.264 107.505785 
L 281.28 105.39117 
L 280.296 115.175898 
L 279.312 115.176844 
L 278.328 138.169566 
L 277.344 127.208149 
L 276.36 137.472289 
L 275.376 130.374689 
L 274.392 149.408029 
L 273.408 142.902446 
L 272.424 135.045965 
L 271.44 130.120766 
L 270.456 139.469932 
L 269.472 162.340975 
L 268.488 153.624372 
L 267.504 156.720253 
L 266.52 153.243879 
L 265.536 162.158375 
L 264.552 154.781233 
L 263.568 158.549592 
L 262.584 161.632101 
L 261.6 159.761953 
L 260.616 160.107711 
L 259.632 165.527412 
L 258.648 154.794115 
L 257.664 163.750219 
L 256.68 165.2287 
L 255.696 164.821544 
L 254.712 161.646779 
L 253.728 159.606196 
L 252.744 162.994352 
L 251.76 161.883705 
L 250.776 149.381088 
L 249.792 164.428987 
L 248.808 159.888726 
L 247.824 166.563039 
L 246.84 166.534956 
L 245.856 167.354906 
L 244.872 165.740164 
L 243.888 165.395173 
L 242.904 164.825302 
L 241.92 161.830637 
L 240.936 168.346235 
L 239.952 164.500286 
L 238.968 163.345375 
L 237.984 160.25679 
L 237 147.864797 
L 236.016 157.254084 
L 235.032 159.035512 
L 234.048 159.196279 
L 233.064 165.409017 
L 232.08 155.121236 
L 231.096 158.398205 
L 230.112 163.285903 
L 229.128 163.806139 
L 228.144 142.402059 
L 227.16 152.048592 
L 226.176 166.735444 
L 225.192 156.342563 
L 224.208 161.919325 
L 223.224 159.86404 
L 221.256 167.582633 
L 220.272 170.608903 
L 219.288 167.929001 
L 218.304 156.555167 
L 217.32 133.564508 
L 216.336 135.992416 
L 215.352 163.81682 
L 214.368 162.799855 
L 213.384 166.723629 
L 212.4 158.481092 
L 211.416 165.012991 
L 210.432 153.975685 
L 209.448 158.265335 
L 208.464 142.900343 
L 207.48 166.826596 
L 206.496 150.345553 
L 205.512 169.497674 
L 204.528 143.506905 
L 203.544 167.883728 
L 202.56 164.754609 
L 201.576 169.502519 
L 199.608 163.177544 
L 197.64 169.337268 
L 196.656 168.942674 
L 191.736 165.412106 
L 190.752 168.689792 
L 189.768 167.50154 
L 185.832 166.851581 
L 183.864 172.116684 
L 182.88 168.718239 
L 181.896 166.636881 
L 180.912 164.008619 
L 176.976 169.955907 
L 175.992 171.573335 
L 175.008 167.091582 
L 171.072 169.716459 
L 170.088 167.099412 
L 169.104 169.626374 
L 168.12 164.571721 
L 165.168 162.565527 
L 164.184 166.791262 
L 163.2 168.882955 
L 162.216 166.818012 
L 161.232 171.120596 
L 160.248 171.433588 
L 159.264 166.078253 
L 158.28 162.127068 
L 157.296 163.34801 
L 156.312 162.074622 
L 155.328 160.42577 
L 152.376 171.558047 
L 151.392 171.453746 
L 150.408 148.37656 
L 149.424 165.654567 
L 148.44 165.270275 
L 147.456 152.138744 
L 146.472 171.059039 
L 145.488 165.212548 
L 144.504 151.928567 
L 143.52 170.630847 
L 142.536 163.842436 
L 141.552 166.665581 
L 140.568 165.107521 
L 139.584 171.311531 
L 138.6 166.334267 
L 136.632 168.424196 
L 135.648 169.840436 
L 134.664 165.242075 
L 133.68 164.105759 
L 132.696 167.329548 
L 130.728 158.454184 
L 129.744 164.529101 
L 128.76 161.97235 
L 126.792 163.500264 
L 124.824 169.278365 
L 123.84 164.882408 
L 122.856 163.086795 
L 121.872 157.206963 
L 120.888 159.025131 
L 119.904 166.781834 
L 116.952 75.409234 
L 115.968 150.171596 
L 114.984 165.826859 
L 114 164.679645 
L 113.016 163.82511 
L 111.048 171.94407 
L 110.064 158.326398 
L 109.08 155.862477 
L 108.096 165.54048 
L 107.112 128.572481 
L 104.16 149.722086 
L 103.176 119.760025 
L 102.192 125.072419 
L 101.208 143.832365 
L 100.224 101.506725 
L 99.24 106.895652 
L 96.288 110.557719 
L 95.304 125.090338 
L 94.32 146.064542 
L 93.336 116.734235 
z
" style="fill:#008000;fill-opacity:0.3;"/>
   </g>
   <g id="matplotlib.axis_1">
    <g id="xtick_1">
     <g id="line2d_1">
      <path clip-path="url(#p4daaf65f48)" d="M 64.8 172.8 
L 64.8 25.92 
" style="fill:none;stroke:#808080;stroke-dasharray:6.4,1.6,1,1.6;stroke-dashoffset:0;stroke-opacity:0.3;"/>
     </g>
     <g id="line2d_2">
      <defs>
       <path d="M 0 0 
L 0 3.5 
" id="mca210707cc" style="stroke:#000000;stroke-width:0.8;"/>
      </defs>
      <g>
       <use style="stroke:#000000;stroke-width:0.8;" x="64.8" xlink:href="#mca210707cc" y="172.8"/>
      </g>
     </g>
     <g id="text_1">
      <!-- 2020-03 -->
      <g transform="translate(43.908594 187.398438)scale(0.1 -0.1)">
       <defs>
        <path d="M 19.1875 8.296875 
L 53.609375 8.296875 
L 53.609375 0 
L 7.328125 0 
L 7.328125 8.296875 
Q 12.9375 14.109375 22.625 23.890625 
Q 32.328125 33.6875 34.8125 36.53125 
Q 39.546875 41.84375 41.421875 45.53125 
Q 43.3125 49.21875 43.3125 52.78125 
Q 43.3125 58.59375 39.234375 62.25 
Q 35.15625 65.921875 28.609375 65.921875 
Q 23.96875 65.921875 18.8125 64.3125 
Q 13.671875 62.703125 7.8125 59.421875 
L 7.8125 69.390625 
Q 13.765625 71.78125 18.9375 73 
Q 24.125 74.21875 28.421875 74.21875 
Q 39.75 74.21875 46.484375 68.546875 
Q 53.21875 62.890625 53.21875 53.421875 
Q 53.21875 48.921875 51.53125 44.890625 
Q 49.859375 40.875 45.40625 35.40625 
Q 44.1875 33.984375 37.640625 27.21875 
Q 31.109375 20.453125 19.1875 8.296875 
z
" id="DejaVuSans-50"/>
        <path d="M 31.78125 66.40625 
Q 24.171875 66.40625 20.328125 58.90625 
Q 16.5 51.421875 16.5 36.375 
Q 16.5 21.390625 20.328125 13.890625 
Q 24.171875 6.390625 31.78125 6.390625 
Q 39.453125 6.390625 43.28125 13.890625 
Q 47.125 21.390625 47.125 36.375 
Q 47.125 51.421875 43.28125 58.90625 
Q 39.453125 66.40625 31.78125 66.40625 
z
M 31.78125 74.21875 
Q 44.046875 74.21875 50.515625 64.515625 
Q 56.984375 54.828125 56.984375 36.375 
Q 56.984375 17.96875 50.515625 8.265625 
Q 44.046875 -1.421875 31.78125 -1.421875 
Q 19.53125 -1.421875 13.0625 8.265625 
Q 6.59375 17.96875 6.59375 36.375 
Q 6.59375 54.828125 13.0625 64.515625 
Q 19.53125 74.21875 31.78125 74.21875 
z
" id="DejaVuSans-48"/>
        <path d="M 4.890625 31.390625 
L 31.203125 31.390625 
L 31.203125 23.390625 
L 4.890625 23.390625 
z
" id="DejaVuSans-45"/>
        <path d="M 40.578125 39.3125 
Q 47.65625 37.796875 51.625 33 
Q 55.609375 28.21875 55.609375 21.1875 
Q 55.609375 10.40625 48.1875 4.484375 
Q 40.765625 -1.421875 27.09375 -1.421875 
Q 22.515625 -1.421875 17.65625 -0.515625 
Q 12.796875 0.390625 7.625 2.203125 
L 7.625 11.71875 
Q 11.71875 9.328125 16.59375 8.109375 
Q 21.484375 6.890625 26.8125 6.890625 
Q 36.078125 6.890625 40.9375 10.546875 
Q 45.796875 14.203125 45.796875 21.1875 
Q 45.796875 27.640625 41.28125 31.265625 
Q 36.765625 34.90625 28.71875 34.90625 
L 20.21875 34.90625 
L 20.21875 43.015625 
L 29.109375 43.015625 
Q 36.375 43.015625 40.234375 45.921875 
Q 44.09375 48.828125 44.09375 54.296875 
Q 44.09375 59.90625 40.109375 62.90625 
Q 36.140625 65.921875 28.71875 65.921875 
Q 24.65625 65.921875 20.015625 65.03125 
Q 15.375 64.15625 9.8125 62.3125 
L 9.8125 71.09375 
Q 15.4375 72.65625 20.34375 73.4375 
Q 25.25 74.21875 29.59375 74.21875 
Q 40.828125 74.21875 47.359375 69.109375 
Q 53.90625 64.015625 53.90625 55.328125 
Q 53.90625 49.265625 50.4375 45.09375 
Q 46.96875 40.921875 40.578125 39.3125 
z
" id="DejaVuSans-51"/>
       </defs>
       <use xlink:href="#DejaVuSans-50"/>
       <use x="63.623047" xlink:href="#DejaVuSans-48"/>
       <use x="127.246094" xlink:href="#DejaVuSans-50"/>
       <use x="190.869141" xlink:href="#DejaVuSans-48"/>
       <use x="254.492188" xlink:href="#DejaVuSans-45"/>
       <use x="290.576172" xlink:href="#DejaVuSans-48"/>
       <use x="354.199219" xlink:href="#DejaVuSans-51"/>
      </g>
     </g>
    </g>
    <g id="xtick_2">
     <g id="line2d_3">
      <path clip-path="url(#p4daaf65f48)" d="M 124.824 172.8 
L 124.824 25.92 
" style="fill:none;stroke:#808080;stroke-dasharray:6.4,1.6,1,1.6;stroke-dashoffset:0;stroke-opacity:0.3;"/>
     </g>
     <g id="line2d_4">
      <g>
       <use style="stroke:#000000;stroke-width:0.8;" x="124.824" xlink:href="#mca210707cc" y="172.8"/>
      </g>
     </g>
     <g id="text_2">
      <!-- 2020-05 -->
      <g transform="translate(103.932594 187.398438)scale(0.1 -0.1)">
       <defs>
        <path d="M 10.796875 72.90625 
L 49.515625 72.90625 
L 49.515625 64.59375 
L 19.828125 64.59375 
L 19.828125 46.734375 
Q 21.96875 47.46875 24.109375 47.828125 
Q 26.265625 48.1875 28.421875 48.1875 
Q 40.625 48.1875 47.75 41.5 
Q 54.890625 34.8125 54.890625 23.390625 
Q 54.890625 11.625 47.5625 5.09375 
Q 40.234375 -1.421875 26.90625 -1.421875 
Q 22.3125 -1.421875 17.546875 -0.640625 
Q 12.796875 0.140625 7.71875 1.703125 
L 7.71875 11.625 
Q 12.109375 9.234375 16.796875 8.0625 
Q 21.484375 6.890625 26.703125 6.890625 
Q 35.15625 6.890625 40.078125 11.328125 
Q 45.015625 15.765625 45.015625 23.390625 
Q 45.015625 31 40.078125 35.4375 
Q 35.15625 39.890625 26.703125 39.890625 
Q 22.75 39.890625 18.8125 39.015625 
Q 14.890625 38.140625 10.796875 36.28125 
z
" id="DejaVuSans-53"/>
       </defs>
       <use xlink:href="#DejaVuSans-50"/>
       <use x="63.623047" xlink:href="#DejaVuSans-48"/>
       <use x="127.246094" xlink:href="#DejaVuSans-50"/>
       <use x="190.869141" xlink:href="#DejaVuSans-48"/>
       <use x="254.492188" xlink:href="#DejaVuSans-45"/>
       <use x="290.576172" xlink:href="#DejaVuSans-48"/>
       <use x="354.199219" xlink:href="#DejaVuSans-53"/>
      </g>
     </g>
    </g>
    <g id="xtick_3">
     <g id="line2d_5">
      <path clip-path="url(#p4daaf65f48)" d="M 184.848 172.8 
L 184.848 25.92 
" style="fill:none;stroke:#808080;stroke-dasharray:6.4,1.6,1,1.6;stroke-dashoffset:0;stroke-opacity:0.3;"/>
     </g>
     <g id="line2d_6">
      <g>
       <use style="stroke:#000000;stroke-width:0.8;" x="184.848" xlink:href="#mca210707cc" y="172.8"/>
      </g>
     </g>
     <g id="text_3">
      <!-- 2020-07 -->
      <g transform="translate(163.956594 187.398438)scale(0.1 -0.1)">
       <defs>
        <path d="M 8.203125 72.90625 
L 55.078125 72.90625 
L 55.078125 68.703125 
L 28.609375 0 
L 18.3125 0 
L 43.21875 64.59375 
L 8.203125 64.59375 
z
" id="DejaVuSans-55"/>
       </defs>
       <use xlink:href="#DejaVuSans-50"/>
       <use x="63.623047" xlink:href="#DejaVuSans-48"/>
       <use x="127.246094" xlink:href="#DejaVuSans-50"/>
       <use x="190.869141" xlink:href="#DejaVuSans-48"/>
       <use x="254.492188" xlink:href="#DejaVuSans-45"/>
       <use x="290.576172" xlink:href="#DejaVuSans-48"/>
       <use x="354.199219" xlink:href="#DejaVuSans-55"/>
      </g>
     </g>
    </g>
    <g id="xtick_4">
     <g id="line2d_7">
      <path clip-path="url(#p4daaf65f48)" d="M 245.856 172.8 
L 245.856 25.92 
" style="fill:none;stroke:#808080;stroke-dasharray:6.4,1.6,1,1.6;stroke-dashoffset:0;stroke-opacity:0.3;"/>
     </g>
     <g id="line2d_8">
      <g>
       <use style="stroke:#000000;stroke-width:0.8;" x="245.856" xlink:href="#mca210707cc" y="172.8"/>
      </g>
     </g>
     <g id="text_4">
      <!-- 2020-09 -->
      <g transform="translate(224.964594 187.398438)scale(0.1 -0.1)">
       <defs>
        <path d="M 10.984375 1.515625 
L 10.984375 10.5 
Q 14.703125 8.734375 18.5 7.8125 
Q 22.3125 6.890625 25.984375 6.890625 
Q 35.75 6.890625 40.890625 13.453125 
Q 46.046875 20.015625 46.78125 33.40625 
Q 43.953125 29.203125 39.59375 26.953125 
Q 35.25 24.703125 29.984375 24.703125 
Q 19.046875 24.703125 12.671875 31.3125 
Q 6.296875 37.9375 6.296875 49.421875 
Q 6.296875 60.640625 12.9375 67.421875 
Q 19.578125 74.21875 30.609375 74.21875 
Q 43.265625 74.21875 49.921875 64.515625 
Q 56.59375 54.828125 56.59375 36.375 
Q 56.59375 19.140625 48.40625 8.859375 
Q 40.234375 -1.421875 26.421875 -1.421875 
Q 22.703125 -1.421875 18.890625 -0.6875 
Q 15.09375 0.046875 10.984375 1.515625 
z
M 30.609375 32.421875 
Q 37.25 32.421875 41.125 36.953125 
Q 45.015625 41.5 45.015625 49.421875 
Q 45.015625 57.28125 41.125 61.84375 
Q 37.25 66.40625 30.609375 66.40625 
Q 23.96875 66.40625 20.09375 61.84375 
Q 16.21875 57.28125 16.21875 49.421875 
Q 16.21875 41.5 20.09375 36.953125 
Q 23.96875 32.421875 30.609375 32.421875 
z
" id="DejaVuSans-57"/>
       </defs>
       <use xlink:href="#DejaVuSans-50"/>
       <use x="63.623047" xlink:href="#DejaVuSans-48"/>
       <use x="127.246094" xlink:href="#DejaVuSans-50"/>
       <use x="190.869141" xlink:href="#DejaVuSans-48"/>
       <use x="254.492188" xlink:href="#DejaVuSans-45"/>
       <use x="290.576172" xlink:href="#DejaVuSans-48"/>
       <use x="354.199219" xlink:href="#DejaVuSans-57"/>
      </g>
     </g>
    </g>
    <g id="xtick_5">
     <g id="line2d_9">
      <path clip-path="url(#p4daaf65f48)" d="M 305.88 172.8 
L 305.88 25.92 
" style="fill:none;stroke:#808080;stroke-dasharray:6.4,1.6,1,1.6;stroke-dashoffset:0;stroke-opacity:0.3;"/>
     </g>
     <g id="line2d_10">
      <g>
       <use style="stroke:#000000;stroke-width:0.8;" x="305.88" xlink:href="#mca210707cc" y="172.8"/>
      </g>
     </g>
     <g id="text_5">
      <!-- 2020-11 -->
      <g transform="translate(284.988594 187.398438)scale(0.1 -0.1)">
       <defs>
        <path d="M 12.40625 8.296875 
L 28.515625 8.296875 
L 28.515625 63.921875 
L 10.984375 60.40625 
L 10.984375 69.390625 
L 28.421875 72.90625 
L 38.28125 72.90625 
L 38.28125 8.296875 
L 54.390625 8.296875 
L 54.390625 0 
L 12.40625 0 
z
" id="DejaVuSans-49"/>
       </defs>
       <use xlink:href="#DejaVuSans-50"/>
       <use x="63.623047" xlink:href="#DejaVuSans-48"/>
       <use x="127.246094" xlink:href="#DejaVuSans-50"/>
       <use x="190.869141" xlink:href="#DejaVuSans-48"/>
       <use x="254.492188" xlink:href="#DejaVuSans-45"/>
       <use x="290.576172" xlink:href="#DejaVuSans-49"/>
       <use x="354.199219" xlink:href="#DejaVuSans-49"/>
      </g>
     </g>
    </g>
    <g id="xtick_6">
     <g id="line2d_11">
      <path clip-path="url(#p4daaf65f48)" d="M 365.904 172.8 
L 365.904 25.92 
" style="fill:none;stroke:#808080;stroke-dasharray:6.4,1.6,1,1.6;stroke-dashoffset:0;stroke-opacity:0.3;"/>
     </g>
     <g id="line2d_12">
      <g>
       <use style="stroke:#000000;stroke-width:0.8;" x="365.904" xlink:href="#mca210707cc" y="172.8"/>
      </g>
     </g>
     <g id="text_6">
      <!-- 2021-01 -->
      <g transform="translate(345.012594 187.398438)scale(0.1 -0.1)">
       <use xlink:href="#DejaVuSans-50"/>
       <use x="63.623047" xlink:href="#DejaVuSans-48"/>
       <use x="127.246094" xlink:href="#DejaVuSans-50"/>
       <use x="190.869141" xlink:href="#DejaVuSans-49"/>
       <use x="254.492188" xlink:href="#DejaVuSans-45"/>
       <use x="290.576172" xlink:href="#DejaVuSans-48"/>
       <use x="354.199219" xlink:href="#DejaVuSans-49"/>
      </g>
     </g>
    </g>
    <g id="xtick_7">
     <g id="line2d_13">
      <path clip-path="url(#p4daaf65f48)" d="M 423.96 172.8 
L 423.96 25.92 
" style="fill:none;stroke:#808080;stroke-dasharray:6.4,1.6,1,1.6;stroke-dashoffset:0;stroke-opacity:0.3;"/>
     </g>
     <g id="line2d_14">
      <g>
       <use style="stroke:#000000;stroke-width:0.8;" x="423.96" xlink:href="#mca210707cc" y="172.8"/>
      </g>
     </g>
     <g id="text_7">
      <!-- 2021-03 -->
      <g transform="translate(403.068594 187.398438)scale(0.1 -0.1)">
       <use xlink:href="#DejaVuSans-50"/>
       <use x="63.623047" xlink:href="#DejaVuSans-48"/>
       <use x="127.246094" xlink:href="#DejaVuSans-50"/>
       <use x="190.869141" xlink:href="#DejaVuSans-49"/>
       <use x="254.492188" xlink:href="#DejaVuSans-45"/>
       <use x="290.576172" xlink:href="#DejaVuSans-48"/>
       <use x="354.199219" xlink:href="#DejaVuSans-51"/>
      </g>
     </g>
    </g>
    <g id="xtick_8">
     <g id="line2d_15">
      <path clip-path="url(#p4daaf65f48)" d="M 483.984 172.8 
L 483.984 25.92 
" style="fill:none;stroke:#808080;stroke-dasharray:6.4,1.6,1,1.6;stroke-dashoffset:0;stroke-opacity:0.3;"/>
     </g>
     <g id="line2d_16">
      <g>
       <use style="stroke:#000000;stroke-width:0.8;" x="483.984" xlink:href="#mca210707cc" y="172.8"/>
      </g>
     </g>
     <g id="text_8">
      <!-- 2021-05 -->
      <g transform="translate(463.092594 187.398438)scale(0.1 -0.1)">
       <use xlink:href="#DejaVuSans-50"/>
       <use x="63.623047" xlink:href="#DejaVuSans-48"/>
       <use x="127.246094" xlink:href="#DejaVuSans-50"/>
       <use x="190.869141" xlink:href="#DejaVuSans-49"/>
       <use x="254.492188" xlink:href="#DejaVuSans-45"/>
       <use x="290.576172" xlink:href="#DejaVuSans-48"/>
       <use x="354.199219" xlink:href="#DejaVuSans-53"/>
      </g>
     </g>
    </g>
    <g id="xtick_9">
     <g id="line2d_17">
      <path clip-path="url(#p4daaf65f48)" d="M 544.008 172.8 
L 544.008 25.92 
" style="fill:none;stroke:#808080;stroke-dasharray:6.4,1.6,1,1.6;stroke-dashoffset:0;stroke-opacity:0.3;"/>
     </g>
     <g id="line2d_18">
      <g>
       <use style="stroke:#000000;stroke-width:0.8;" x="544.008" xlink:href="#mca210707cc" y="172.8"/>
      </g>
     </g>
     <g id="text_9">
      <!-- 2021-07 -->
      <g transform="translate(523.116594 187.398438)scale(0.1 -0.1)">
       <use xlink:href="#DejaVuSans-50"/>
       <use x="63.623047" xlink:href="#DejaVuSans-48"/>
       <use x="127.246094" xlink:href="#DejaVuSans-50"/>
       <use x="190.869141" xlink:href="#DejaVuSans-49"/>
       <use x="254.492188" xlink:href="#DejaVuSans-45"/>
       <use x="290.576172" xlink:href="#DejaVuSans-48"/>
       <use x="354.199219" xlink:href="#DejaVuSans-55"/>
      </g>
     </g>
    </g>
    <g id="xtick_10">
     <g id="line2d_19">
      <path clip-path="url(#p4daaf65f48)" d="M 605.016 172.8 
L 605.016 25.92 
" style="fill:none;stroke:#808080;stroke-dasharray:6.4,1.6,1,1.6;stroke-dashoffset:0;stroke-opacity:0.3;"/>
     </g>
     <g id="line2d_20">
      <g>
       <use style="stroke:#000000;stroke-width:0.8;" x="605.016" xlink:href="#mca210707cc" y="172.8"/>
      </g>
     </g>
     <g id="text_10">
      <!-- 2021-09 -->
      <g transform="translate(584.124594 187.398438)scale(0.1 -0.1)">
       <use xlink:href="#DejaVuSans-50"/>
       <use x="63.623047" xlink:href="#DejaVuSans-48"/>
       <use x="127.246094" xlink:href="#DejaVuSans-50"/>
       <use x="190.869141" xlink:href="#DejaVuSans-49"/>
       <use x="254.492188" xlink:href="#DejaVuSans-45"/>
       <use x="290.576172" xlink:href="#DejaVuSans-48"/>
       <use x="354.199219" xlink:href="#DejaVuSans-57"/>
      </g>
     </g>
    </g>
    <g id="text_11">
     <!-- Datum -->
     <g transform="translate(343.086719 201.076562)scale(0.1 -0.1)">
      <defs>
       <path d="M 19.671875 64.796875 
L 19.671875 8.109375 
L 31.59375 8.109375 
Q 46.6875 8.109375 53.6875 14.9375 
Q 60.6875 21.78125 60.6875 36.53125 
Q 60.6875 51.171875 53.6875 57.984375 
Q 46.6875 64.796875 31.59375 64.796875 
z
M 9.8125 72.90625 
L 30.078125 72.90625 
Q 51.265625 72.90625 61.171875 64.09375 
Q 71.09375 55.28125 71.09375 36.53125 
Q 71.09375 17.671875 61.125 8.828125 
Q 51.171875 0 30.078125 0 
L 9.8125 0 
z
" id="DejaVuSans-68"/>
       <path d="M 34.28125 27.484375 
Q 23.390625 27.484375 19.1875 25 
Q 14.984375 22.515625 14.984375 16.5 
Q 14.984375 11.71875 18.140625 8.90625 
Q 21.296875 6.109375 26.703125 6.109375 
Q 34.1875 6.109375 38.703125 11.40625 
Q 43.21875 16.703125 43.21875 25.484375 
L 43.21875 27.484375 
z
M 52.203125 31.203125 
L 52.203125 0 
L 43.21875 0 
L 43.21875 8.296875 
Q 40.140625 3.328125 35.546875 0.953125 
Q 30.953125 -1.421875 24.3125 -1.421875 
Q 15.921875 -1.421875 10.953125 3.296875 
Q 6 8.015625 6 15.921875 
Q 6 25.140625 12.171875 29.828125 
Q 18.359375 34.515625 30.609375 34.515625 
L 43.21875 34.515625 
L 43.21875 35.40625 
Q 43.21875 41.609375 39.140625 45 
Q 35.0625 48.390625 27.6875 48.390625 
Q 23 48.390625 18.546875 47.265625 
Q 14.109375 46.140625 10.015625 43.890625 
L 10.015625 52.203125 
Q 14.9375 54.109375 19.578125 55.046875 
Q 24.21875 56 28.609375 56 
Q 40.484375 56 46.34375 49.84375 
Q 52.203125 43.703125 52.203125 31.203125 
z
" id="DejaVuSans-97"/>
       <path d="M 18.3125 70.21875 
L 18.3125 54.6875 
L 36.8125 54.6875 
L 36.8125 47.703125 
L 18.3125 47.703125 
L 18.3125 18.015625 
Q 18.3125 11.328125 20.140625 9.421875 
Q 21.96875 7.515625 27.59375 7.515625 
L 36.8125 7.515625 
L 36.8125 0 
L 27.59375 0 
Q 17.1875 0 13.234375 3.875 
Q 9.28125 7.765625 9.28125 18.015625 
L 9.28125 47.703125 
L 2.6875 47.703125 
L 2.6875 54.6875 
L 9.28125 54.6875 
L 9.28125 70.21875 
z
" id="DejaVuSans-116"/>
       <path d="M 8.5 21.578125 
L 8.5 54.6875 
L 17.484375 54.6875 
L 17.484375 21.921875 
Q 17.484375 14.15625 20.5 10.265625 
Q 23.53125 6.390625 29.59375 6.390625 
Q 36.859375 6.390625 41.078125 11.03125 
Q 45.3125 15.671875 45.3125 23.6875 
L 45.3125 54.6875 
L 54.296875 54.6875 
L 54.296875 0 
L 45.3125 0 
L 45.3125 8.40625 
Q 42.046875 3.421875 37.71875 1 
Q 33.40625 -1.421875 27.6875 -1.421875 
Q 18.265625 -1.421875 13.375 4.4375 
Q 8.5 10.296875 8.5 21.578125 
z
M 31.109375 56 
z
" id="DejaVuSans-117"/>
       <path d="M 52 44.1875 
Q 55.375 50.25 60.0625 53.125 
Q 64.75 56 71.09375 56 
Q 79.640625 56 84.28125 50.015625 
Q 88.921875 44.046875 88.921875 33.015625 
L 88.921875 0 
L 79.890625 0 
L 79.890625 32.71875 
Q 79.890625 40.578125 77.09375 44.375 
Q 74.3125 48.1875 68.609375 48.1875 
Q 61.625 48.1875 57.5625 43.546875 
Q 53.515625 38.921875 53.515625 30.90625 
L 53.515625 0 
L 44.484375 0 
L 44.484375 32.71875 
Q 44.484375 40.625 41.703125 44.40625 
Q 38.921875 48.1875 33.109375 48.1875 
Q 26.21875 48.1875 22.15625 43.53125 
Q 18.109375 38.875 18.109375 30.90625 
L 18.109375 0 
L 9.078125 0 
L 9.078125 54.6875 
L 18.109375 54.6875 
L 18.109375 46.1875 
Q 21.1875 51.21875 25.484375 53.609375 
Q 29.78125 56 35.6875 56 
Q 41.65625 56 45.828125 52.96875 
Q 50 49.953125 52 44.1875 
z
" id="DejaVuSans-109"/>
      </defs>
      <use xlink:href="#DejaVuSans-68"/>
      <use x="77.001953" xlink:href="#DejaVuSans-97"/>
      <use x="138.28125" xlink:href="#DejaVuSans-116"/>
      <use x="177.490234" xlink:href="#DejaVuSans-117"/>
      <use x="240.869141" xlink:href="#DejaVuSans-109"/>
     </g>
    </g>
   </g>
   <g id="matplotlib.axis_2">
    <g id="ytick_1">
     <g id="line2d_21">
      <path clip-path="url(#p4daaf65f48)" d="M 64.8 172.8 
L 655.2 172.8 
" style="fill:none;stroke:#808080;stroke-dasharray:6.4,1.6,1,1.6;stroke-dashoffset:0;stroke-opacity:0.3;"/>
     </g>
     <g id="line2d_22">
      <defs>
       <path d="M 0 0 
L -3.5 0 
" id="mef3505403d" style="stroke:#000000;stroke-width:0.8;"/>
      </defs>
      <g>
       <use style="stroke:#000000;stroke-width:0.8;" x="64.8" xlink:href="#mef3505403d" y="172.8"/>
      </g>
     </g>
     <g id="text_12">
      <!-- 0 -->
      <g transform="translate(51.4375 176.599219)scale(0.1 -0.1)">
       <use xlink:href="#DejaVuSans-48"/>
      </g>
     </g>
    </g>
    <g id="ytick_2">
     <g id="line2d_23">
      <path clip-path="url(#p4daaf65f48)" d="M 64.8 136.08 
L 655.2 136.08 
" style="fill:none;stroke:#808080;stroke-dasharray:6.4,1.6,1,1.6;stroke-dashoffset:0;stroke-opacity:0.3;"/>
     </g>
     <g id="line2d_24">
      <g>
       <use style="stroke:#000000;stroke-width:0.8;" x="64.8" xlink:href="#mef3505403d" y="136.08"/>
      </g>
     </g>
     <g id="text_13">
      <!-- 1000 -->
      <g transform="translate(32.35 139.879219)scale(0.1 -0.1)">
       <use xlink:href="#DejaVuSans-49"/>
       <use x="63.623047" xlink:href="#DejaVuSans-48"/>
       <use x="127.246094" xlink:href="#DejaVuSans-48"/>
       <use x="190.869141" xlink:href="#DejaVuSans-48"/>
      </g>
     </g>
    </g>
    <g id="ytick_3">
     <g id="line2d_25">
      <path clip-path="url(#p4daaf65f48)" d="M 64.8 99.36 
L 655.2 99.36 
" style="fill:none;stroke:#808080;stroke-dasharray:6.4,1.6,1,1.6;stroke-dashoffset:0;stroke-opacity:0.3;"/>
     </g>
     <g id="line2d_26">
      <g>
       <use style="stroke:#000000;stroke-width:0.8;" x="64.8" xlink:href="#mef3505403d" y="99.36"/>
      </g>
     </g>
     <g id="text_14">
      <!-- 2000 -->
      <g transform="translate(32.35 103.159219)scale(0.1 -0.1)">
       <use xlink:href="#DejaVuSans-50"/>
       <use x="63.623047" xlink:href="#DejaVuSans-48"/>
       <use x="127.246094" xlink:href="#DejaVuSans-48"/>
       <use x="190.869141" xlink:href="#DejaVuSans-48"/>
      </g>
     </g>
    </g>
    <g id="ytick_4">
     <g id="line2d_27">
      <path clip-path="url(#p4daaf65f48)" d="M 64.8 62.64 
L 655.2 62.64 
" style="fill:none;stroke:#808080;stroke-dasharray:6.4,1.6,1,1.6;stroke-dashoffset:0;stroke-opacity:0.3;"/>
     </g>
     <g id="line2d_28">
      <g>
       <use style="stroke:#000000;stroke-width:0.8;" x="64.8" xlink:href="#mef3505403d" y="62.64"/>
      </g>
     </g>
     <g id="text_15">
      <!-- 3000 -->
      <g transform="translate(32.35 66.439219)scale(0.1 -0.1)">
       <use xlink:href="#DejaVuSans-51"/>
       <use x="63.623047" xlink:href="#DejaVuSans-48"/>
       <use x="127.246094" xlink:href="#DejaVuSans-48"/>
       <use x="190.869141" xlink:href="#DejaVuSans-48"/>
      </g>
     </g>
    </g>
    <g id="ytick_5">
     <g id="line2d_29">
      <path clip-path="url(#p4daaf65f48)" d="M 64.8 25.92 
L 655.2 25.92 
" style="fill:none;stroke:#808080;stroke-dasharray:6.4,1.6,1,1.6;stroke-dashoffset:0;stroke-opacity:0.3;"/>
     </g>
     <g id="line2d_30">
      <g>
       <use style="stroke:#000000;stroke-width:0.8;" x="64.8" xlink:href="#mef3505403d" y="25.92"/>
      </g>
     </g>
     <g id="text_16">
      <!-- 4000 -->
      <g transform="translate(32.35 29.719219)scale(0.1 -0.1)">
       <defs>
        <path d="M 37.796875 64.3125 
L 12.890625 25.390625 
L 37.796875 25.390625 
z
M 35.203125 72.90625 
L 47.609375 72.90625 
L 47.609375 25.390625 
L 58.015625 25.390625 
L 58.015625 17.1875 
L 47.609375 17.1875 
L 47.609375 0 
L 37.796875 0 
L 37.796875 17.1875 
L 4.890625 17.1875 
L 4.890625 26.703125 
z
" id="DejaVuSans-52"/>
       </defs>
       <use xlink:href="#DejaVuSans-52"/>
       <use x="63.623047" xlink:href="#DejaVuSans-48"/>
       <use x="127.246094" xlink:href="#DejaVuSans-48"/>
       <use x="190.869141" xlink:href="#DejaVuSans-48"/>
      </g>
     </g>
    </g>
    <g id="text_17">
     <!-- RNA per milliliter -->
     <g transform="translate(26.270312 141.776406)rotate(-90)scale(0.1 -0.1)">
      <defs>
       <path d="M 44.390625 34.1875 
Q 47.5625 33.109375 50.5625 29.59375 
Q 53.5625 26.078125 56.59375 19.921875 
L 66.609375 0 
L 56 0 
L 46.6875 18.703125 
Q 43.0625 26.03125 39.671875 28.421875 
Q 36.28125 30.8125 30.421875 30.8125 
L 19.671875 30.8125 
L 19.671875 0 
L 9.8125 0 
L 9.8125 72.90625 
L 32.078125 72.90625 
Q 44.578125 72.90625 50.734375 67.671875 
Q 56.890625 62.453125 56.890625 51.90625 
Q 56.890625 45.015625 53.6875 40.46875 
Q 50.484375 35.9375 44.390625 34.1875 
z
M 19.671875 64.796875 
L 19.671875 38.921875 
L 32.078125 38.921875 
Q 39.203125 38.921875 42.84375 42.21875 
Q 46.484375 45.515625 46.484375 51.90625 
Q 46.484375 58.296875 42.84375 61.546875 
Q 39.203125 64.796875 32.078125 64.796875 
z
" id="DejaVuSans-82"/>
       <path d="M 9.8125 72.90625 
L 23.09375 72.90625 
L 55.421875 11.921875 
L 55.421875 72.90625 
L 64.984375 72.90625 
L 64.984375 0 
L 51.703125 0 
L 19.390625 60.984375 
L 19.390625 0 
L 9.8125 0 
z
" id="DejaVuSans-78"/>
       <path d="M 34.1875 63.1875 
L 20.796875 26.90625 
L 47.609375 26.90625 
z
M 28.609375 72.90625 
L 39.796875 72.90625 
L 67.578125 0 
L 57.328125 0 
L 50.6875 18.703125 
L 17.828125 18.703125 
L 11.1875 0 
L 0.78125 0 
z
" id="DejaVuSans-65"/>
       <path id="DejaVuSans-32"/>
       <path d="M 18.109375 8.203125 
L 18.109375 -20.796875 
L 9.078125 -20.796875 
L 9.078125 54.6875 
L 18.109375 54.6875 
L 18.109375 46.390625 
Q 20.953125 51.265625 25.265625 53.625 
Q 29.59375 56 35.59375 56 
Q 45.5625 56 51.78125 48.09375 
Q 58.015625 40.1875 58.015625 27.296875 
Q 58.015625 14.40625 51.78125 6.484375 
Q 45.5625 -1.421875 35.59375 -1.421875 
Q 29.59375 -1.421875 25.265625 0.953125 
Q 20.953125 3.328125 18.109375 8.203125 
z
M 48.6875 27.296875 
Q 48.6875 37.203125 44.609375 42.84375 
Q 40.53125 48.484375 33.40625 48.484375 
Q 26.265625 48.484375 22.1875 42.84375 
Q 18.109375 37.203125 18.109375 27.296875 
Q 18.109375 17.390625 22.1875 11.75 
Q 26.265625 6.109375 33.40625 6.109375 
Q 40.53125 6.109375 44.609375 11.75 
Q 48.6875 17.390625 48.6875 27.296875 
z
" id="DejaVuSans-112"/>
       <path d="M 56.203125 29.59375 
L 56.203125 25.203125 
L 14.890625 25.203125 
Q 15.484375 15.921875 20.484375 11.0625 
Q 25.484375 6.203125 34.421875 6.203125 
Q 39.59375 6.203125 44.453125 7.46875 
Q 49.3125 8.734375 54.109375 11.28125 
L 54.109375 2.78125 
Q 49.265625 0.734375 44.1875 -0.34375 
Q 39.109375 -1.421875 33.890625 -1.421875 
Q 20.796875 -1.421875 13.15625 6.1875 
Q 5.515625 13.8125 5.515625 26.8125 
Q 5.515625 40.234375 12.765625 48.109375 
Q 20.015625 56 32.328125 56 
Q 43.359375 56 49.78125 48.890625 
Q 56.203125 41.796875 56.203125 29.59375 
z
M 47.21875 32.234375 
Q 47.125 39.59375 43.09375 43.984375 
Q 39.0625 48.390625 32.421875 48.390625 
Q 24.90625 48.390625 20.390625 44.140625 
Q 15.875 39.890625 15.1875 32.171875 
z
" id="DejaVuSans-101"/>
       <path d="M 41.109375 46.296875 
Q 39.59375 47.171875 37.8125 47.578125 
Q 36.03125 48 33.890625 48 
Q 26.265625 48 22.1875 43.046875 
Q 18.109375 38.09375 18.109375 28.8125 
L 18.109375 0 
L 9.078125 0 
L 9.078125 54.6875 
L 18.109375 54.6875 
L 18.109375 46.1875 
Q 20.953125 51.171875 25.484375 53.578125 
Q 30.03125 56 36.53125 56 
Q 37.453125 56 38.578125 55.875 
Q 39.703125 55.765625 41.0625 55.515625 
z
" id="DejaVuSans-114"/>
       <path d="M 9.421875 54.6875 
L 18.40625 54.6875 
L 18.40625 0 
L 9.421875 0 
z
M 9.421875 75.984375 
L 18.40625 75.984375 
L 18.40625 64.59375 
L 9.421875 64.59375 
z
" id="DejaVuSans-105"/>
       <path d="M 9.421875 75.984375 
L 18.40625 75.984375 
L 18.40625 0 
L 9.421875 0 
z
" id="DejaVuSans-108"/>
      </defs>
      <use xlink:href="#DejaVuSans-82"/>
      <use x="69.482422" xlink:href="#DejaVuSans-78"/>
      <use x="144.287109" xlink:href="#DejaVuSans-65"/>
      <use x="212.695312" xlink:href="#DejaVuSans-32"/>
      <use x="244.482422" xlink:href="#DejaVuSans-112"/>
      <use x="307.958984" xlink:href="#DejaVuSans-101"/>
      <use x="369.482422" xlink:href="#DejaVuSans-114"/>
      <use x="410.595703" xlink:href="#DejaVuSans-32"/>
      <use x="442.382812" xlink:href="#DejaVuSans-109"/>
      <use x="539.794922" xlink:href="#DejaVuSans-105"/>
      <use x="567.578125" xlink:href="#DejaVuSans-108"/>
      <use x="595.361328" xlink:href="#DejaVuSans-108"/>
      <use x="623.144531" xlink:href="#DejaVuSans-105"/>
      <use x="650.927734" xlink:href="#DejaVuSans-108"/>
      <use x="678.710938" xlink:href="#DejaVuSans-105"/>
      <use x="706.494141" xlink:href="#DejaVuSans-116"/>
      <use x="745.703125" xlink:href="#DejaVuSans-101"/>
      <use x="807.226562" xlink:href="#DejaVuSans-114"/>
     </g>
    </g>
   </g>
   <g id="line2d_31">
    <path clip-path="url(#p4daaf65f48)" d="M 93.336 112.761481 
L 96.288 121.857767 
L 99.24 124.889862 
L 101.208 130.954053 
L 104.16 138.472908 
L 107.112 140.827111 
L 109.08 145.289784 
L 111.048 149.041544 
L 113.016 150.59754 
L 114 151.928502 
L 114.984 152.902379 
L 115.968 153.536442 
L 119.904 155.329979 
L 120.888 156.466258 
L 123.84 159.208804 
L 124.824 160.027746 
L 128.76 161.44735 
L 130.728 162.980115 
L 132.696 163.783962 
L 133.68 164.600986 
L 134.664 165.264749 
L 136.632 165.48663 
L 139.584 165.293448 
L 142.536 164.756703 
L 147.456 163.790554 
L 150.408 163.828989 
L 152.376 164.244897 
L 155.328 164.404455 
L 157.296 164.930337 
L 159.264 165.68497 
L 161.232 166.343508 
L 163.2 166.791895 
L 165.168 167.153812 
L 168.12 167.276835 
L 171.072 167.785577 
L 176.976 167.922492 
L 182.88 167.74003 
L 185.832 167.354632 
L 189.768 167.08745 
L 191.736 166.117482 
L 196.656 165.546738 
L 197.64 164.941835 
L 201.576 163.652183 
L 203.544 162.377087 
L 206.496 159.94225 
L 208.464 158.751049 
L 210.432 158.236757 
L 215.352 157.632621 
L 216.336 157.427382 
L 217.32 157.572349 
L 220.272 158.641817 
L 221.256 158.851791 
L 224.208 158.853589 
L 227.16 158.508461 
L 228.144 158.532818 
L 230.112 159.118333 
L 232.08 159.281896 
L 234.048 159.508979 
L 236.016 160.079513 
L 237 160.443371 
L 238.968 161.445925 
L 240.936 162.301196 
L 244.872 162.996786 
L 246.84 163.042114 
L 248.808 162.820093 
L 249.792 162.651373 
L 250.776 162.368091 
L 254.712 161.631246 
L 256.68 161.148844 
L 257.664 160.858424 
L 259.632 159.942121 
L 261.6 158.541734 
L 262.584 157.74922 
L 263.568 156.788301 
L 265.536 154.387396 
L 267.504 151.403763 
L 269.472 147.580033 
L 271.44 142.858396 
L 273.408 137.31504 
L 276.36 128.922384 
L 281.28 116.226379 
L 282.264 114.20875 
L 283.248 111.745209 
L 284.232 109.699255 
L 285.216 108.3548 
L 286.2 107.757108 
L 288.168 105.715759 
L 289.152 104.23091 
L 290.136 101.991364 
L 292.104 98.249305 
L 293.088 96.424642 
L 295.056 92.357515 
L 296.04 92.144463 
L 297.024 91.747115 
L 298.008 91.065511 
L 298.992 90.027893 
L 299.976 89.617136 
L 300.96 88.928396 
L 301.944 89.138651 
L 303.912 92.637142 
L 306.864 98.118253 
L 307.848 99.309616 
L 310.8 100.071911 
L 312.768 101.471678 
L 313.752 103.17704 
L 314.736 104.593082 
L 315.72 105.46346 
L 316.704 106.07801 
L 317.688 106.946119 
L 318.672 108.641512 
L 319.656 111.05887 
L 323.592 125.140678 
L 325.56 130.898865 
L 329.496 139.342337 
L 330.48 141.196931 
L 331.464 142.229767 
L 332.448 142.736582 
L 333.432 142.524174 
L 334.416 142.119831 
L 336.384 141.645164 
L 338.352 140.540715 
L 339.336 139.811527 
L 342.288 136.671002 
L 344.256 133.562028 
L 346.224 129.936582 
L 348.192 126.536449 
L 349.176 125.090912 
L 351.144 123.194386 
L 352.128 122.536359 
L 355.08 121.575172 
L 356.064 122.121301 
L 357.048 122.929338 
L 358.032 124.441192 
L 359.016 125.447859 
L 361.968 129.244936 
L 362.952 130.087559 
L 363.936 130.770918 
L 366.888 131.356528 
L 367.872 131.407119 
L 368.856 131.269033 
L 369.84 130.608219 
L 370.824 129.744408 
L 371.808 128.122342 
L 372.792 127.018371 
L 374.76 124.116437 
L 375.744 122.342382 
L 376.728 120.962867 
L 377.712 119.818296 
L 380.664 117.014866 
L 381.648 115.656025 
L 383.616 113.862354 
L 384.6 113.854624 
L 385.584 113.644855 
L 386.568 113.638447 
L 387.552 113.858916 
L 388.536 114.286687 
L 389.52 114.546438 
L 391.488 115.437712 
L 392.472 115.948509 
L 393.456 116.691109 
L 395.424 120.609746 
L 396.408 122.414614 
L 399.36 126.380759 
L 400.344 127.542559 
L 402.312 129.277496 
L 403.296 129.736596 
L 404.28 129.813513 
L 405.264 130.102569 
L 406.248 130.125922 
L 408.216 129.07955 
L 410.184 128.06876 
L 411.168 127.897421 
L 413.136 127.924591 
L 415.104 128.807028 
L 416.088 129.629664 
L 420.024 134.888246 
L 423.96 139.133403 
L 425.928 140.5436 
L 427.896 141.346992 
L 428.88 141.604096 
L 430.848 141.772572 
L 434.784 141.108711 
L 437.736 140.216941 
L 438.72 139.785877 
L 439.704 139.503221 
L 442.656 138.053522 
L 443.64 137.336649 
L 445.608 137.046427 
L 447.576 136.87185 
L 448.56 136.611436 
L 450.528 136.572329 
L 455.448 136.009106 
L 456.432 136.084133 
L 457.416 135.882125 
L 460.368 134.637065 
L 461.352 134.524325 
L 462.336 134.247266 
L 463.32 134.086367 
L 465.288 134.548963 
L 468.24 134.928998 
L 469.224 134.889359 
L 470.208 134.676808 
L 471.192 134.925124 
L 473.16 135.810811 
L 474.144 136.1543 
L 475.128 136.31083 
L 476.112 136.277712 
L 478.08 135.813032 
L 481.032 134.719638 
L 482.016 134.487659 
L 483 134.548887 
L 483.984 134.244982 
L 485.952 133.160396 
L 486.936 132.695653 
L 487.92 132.592263 
L 489.888 132.825121 
L 490.872 133.275059 
L 491.856 134.24552 
L 496.776 140.961144 
L 498.744 144.232886 
L 500.712 147.138442 
L 503.664 150.902497 
L 506.616 152.070939 
L 510.552 154.278251 
L 512.52 155.019892 
L 517.44 157.769272 
L 519.408 158.464361 
L 521.376 159.790641 
L 523.344 160.774981 
L 525.312 161.234121 
L 527.28 162.215576 
L 529.248 162.732824 
L 530.232 162.856491 
L 533.184 162.914567 
L 534.168 162.850726 
L 536.136 162.272016 
L 538.104 161.460341 
L 539.088 160.800241 
L 541.056 158.874247 
L 542.04 157.578131 
L 543.024 156.067234 
L 544.008 154.316225 
L 544.992 152.097333 
L 547.944 143.658552 
L 549.912 137.602394 
L 552.864 128.196851 
L 554.832 122.595209 
L 555.816 120.233289 
L 556.8 118.289843 
L 557.784 117.191917 
L 560.736 116.915333 
L 561.72 116.746125 
L 562.704 116.902434 
L 563.688 117.232601 
L 564.672 117.756224 
L 565.656 118.41068 
L 567.624 120.121151 
L 568.608 120.987915 
L 569.592 121.677431 
L 570.576 122.085801 
L 571.56 121.928189 
L 572.544 121.297105 
L 575.496 120.317784 
L 577.464 119.221699 
L 579.432 117.743755 
L 581.4 116.58505 
L 582.384 116.140793 
L 583.368 115.526326 
L 585.336 114.5093 
L 586.32 113.74591 
L 588.288 111.754176 
L 589.272 110.8912 
L 590.256 110.186565 
L 593.208 109.626856 
L 594.192 109.687846 
L 595.176 110.047109 
L 596.16 111.203854 
L 597.144 112.660183 
L 598.128 114.532504 
L 599.112 116.811618 
L 600.096 119.671114 
L 602.064 126.518847 
L 604.032 133.506978 
L 606.984 142.999156 
L 607.968 145.781954 
L 609.936 150.21339 
L 610.92 152.026191 
L 611.904 153.53042 
L 612.888 154.727521 
L 614.856 156.328672 
L 619.776 159.038185 
L 621.744 159.956615 
L 623.712 160.538636 
L 625.68 160.886528 
L 626.664 160.814557 
L 627.648 160.548147 
L 628.632 160.110111 
L 629.616 159.470177 
L 631.584 157.784506 
L 632.568 156.760602 
L 634.536 154.04001 
L 636.504 151.095255 
L 639.456 146.189608 
L 645.36 136.154782 
L 645.36 136.154782 
" style="fill:none;stroke:#008000;stroke-linecap:square;stroke-width:1.5;"/>
   </g>
   <g id="line2d_32">
    <path clip-path="url(#p4daaf65f48)" d="M 649.296 172.8 
L 649.296 25.92 
" style="fill:none;stroke:#ff0000;stroke-linecap:square;stroke-width:0.5;"/>
   </g>
   <g id="patch_3">
    <path d="M 64.8 172.8 
L 64.8 25.92 
" style="fill:none;stroke:#000000;stroke-linecap:square;stroke-linejoin:miter;stroke-width:0.8;"/>
   </g>
   <g id="patch_4">
    <path d="M 655.2 172.8 
L 655.2 25.92 
" style="fill:none;stroke:#000000;stroke-linecap:square;stroke-linejoin:miter;stroke-width:0.8;"/>
   </g>
   <g id="patch_5">
    <path d="M 64.8 172.8 
L 655.2 172.8 
" style="fill:none;stroke:#000000;stroke-linecap:square;stroke-linejoin:miter;stroke-width:0.8;"/>
   </g>
   <g id="patch_6">
    <path d="M 64.8 25.92 
L 655.2 25.92 
" style="fill:none;stroke:#000000;stroke-linecap:square;stroke-linejoin:miter;stroke-width:0.8;"/>
   </g>
   <g id="text_18">
    <!-- Concentratie SARS-CoV-2 RNA per ml rioolwater -->
    <g transform="translate(215.560313 19.92)scale(0.12 -0.12)">
     <defs>
      <path d="M 64.40625 67.28125 
L 64.40625 56.890625 
Q 59.421875 61.53125 53.78125 63.8125 
Q 48.140625 66.109375 41.796875 66.109375 
Q 29.296875 66.109375 22.65625 58.46875 
Q 16.015625 50.828125 16.015625 36.375 
Q 16.015625 21.96875 22.65625 14.328125 
Q 29.296875 6.6875 41.796875 6.6875 
Q 48.140625 6.6875 53.78125 8.984375 
Q 59.421875 11.28125 64.40625 15.921875 
L 64.40625 5.609375 
Q 59.234375 2.09375 53.4375 0.328125 
Q 47.65625 -1.421875 41.21875 -1.421875 
Q 24.65625 -1.421875 15.125 8.703125 
Q 5.609375 18.84375 5.609375 36.375 
Q 5.609375 53.953125 15.125 64.078125 
Q 24.65625 74.21875 41.21875 74.21875 
Q 47.75 74.21875 53.53125 72.484375 
Q 59.328125 70.75 64.40625 67.28125 
z
" id="DejaVuSans-67"/>
      <path d="M 30.609375 48.390625 
Q 23.390625 48.390625 19.1875 42.75 
Q 14.984375 37.109375 14.984375 27.296875 
Q 14.984375 17.484375 19.15625 11.84375 
Q 23.34375 6.203125 30.609375 6.203125 
Q 37.796875 6.203125 41.984375 11.859375 
Q 46.1875 17.53125 46.1875 27.296875 
Q 46.1875 37.015625 41.984375 42.703125 
Q 37.796875 48.390625 30.609375 48.390625 
z
M 30.609375 56 
Q 42.328125 56 49.015625 48.375 
Q 55.71875 40.765625 55.71875 27.296875 
Q 55.71875 13.875 49.015625 6.21875 
Q 42.328125 -1.421875 30.609375 -1.421875 
Q 18.84375 -1.421875 12.171875 6.21875 
Q 5.515625 13.875 5.515625 27.296875 
Q 5.515625 40.765625 12.171875 48.375 
Q 18.84375 56 30.609375 56 
z
" id="DejaVuSans-111"/>
      <path d="M 54.890625 33.015625 
L 54.890625 0 
L 45.90625 0 
L 45.90625 32.71875 
Q 45.90625 40.484375 42.875 44.328125 
Q 39.84375 48.1875 33.796875 48.1875 
Q 26.515625 48.1875 22.3125 43.546875 
Q 18.109375 38.921875 18.109375 30.90625 
L 18.109375 0 
L 9.078125 0 
L 9.078125 54.6875 
L 18.109375 54.6875 
L 18.109375 46.1875 
Q 21.34375 51.125 25.703125 53.5625 
Q 30.078125 56 35.796875 56 
Q 45.21875 56 50.046875 50.171875 
Q 54.890625 44.34375 54.890625 33.015625 
z
" id="DejaVuSans-110"/>
      <path d="M 48.78125 52.59375 
L 48.78125 44.1875 
Q 44.96875 46.296875 41.140625 47.34375 
Q 37.3125 48.390625 33.40625 48.390625 
Q 24.65625 48.390625 19.8125 42.84375 
Q 14.984375 37.3125 14.984375 27.296875 
Q 14.984375 17.28125 19.8125 11.734375 
Q 24.65625 6.203125 33.40625 6.203125 
Q 37.3125 6.203125 41.140625 7.25 
Q 44.96875 8.296875 48.78125 10.40625 
L 48.78125 2.09375 
Q 45.015625 0.34375 40.984375 -0.53125 
Q 36.96875 -1.421875 32.421875 -1.421875 
Q 20.0625 -1.421875 12.78125 6.34375 
Q 5.515625 14.109375 5.515625 27.296875 
Q 5.515625 40.671875 12.859375 48.328125 
Q 20.21875 56 33.015625 56 
Q 37.15625 56 41.109375 55.140625 
Q 45.0625 54.296875 48.78125 52.59375 
z
" id="DejaVuSans-99"/>
      <path d="M 53.515625 70.515625 
L 53.515625 60.890625 
Q 47.90625 63.578125 42.921875 64.890625 
Q 37.9375 66.21875 33.296875 66.21875 
Q 25.25 66.21875 20.875 63.09375 
Q 16.5 59.96875 16.5 54.203125 
Q 16.5 49.359375 19.40625 46.890625 
Q 22.3125 44.4375 30.421875 42.921875 
L 36.375 41.703125 
Q 47.40625 39.59375 52.65625 34.296875 
Q 57.90625 29 57.90625 20.125 
Q 57.90625 9.515625 50.796875 4.046875 
Q 43.703125 -1.421875 29.984375 -1.421875 
Q 24.8125 -1.421875 18.96875 -0.25 
Q 13.140625 0.921875 6.890625 3.21875 
L 6.890625 13.375 
Q 12.890625 10.015625 18.65625 8.296875 
Q 24.421875 6.59375 29.984375 6.59375 
Q 38.421875 6.59375 43.015625 9.90625 
Q 47.609375 13.234375 47.609375 19.390625 
Q 47.609375 24.75 44.3125 27.78125 
Q 41.015625 30.8125 33.5 32.328125 
L 27.484375 33.5 
Q 16.453125 35.6875 11.515625 40.375 
Q 6.59375 45.0625 6.59375 53.421875 
Q 6.59375 63.09375 13.40625 68.65625 
Q 20.21875 74.21875 32.171875 74.21875 
Q 37.3125 74.21875 42.625 73.28125 
Q 47.953125 72.359375 53.515625 70.515625 
z
" id="DejaVuSans-83"/>
      <path d="M 28.609375 0 
L 0.78125 72.90625 
L 11.078125 72.90625 
L 34.1875 11.53125 
L 57.328125 72.90625 
L 67.578125 72.90625 
L 39.796875 0 
z
" id="DejaVuSans-86"/>
      <path d="M 4.203125 54.6875 
L 13.1875 54.6875 
L 24.421875 12.015625 
L 35.59375 54.6875 
L 46.1875 54.6875 
L 57.421875 12.015625 
L 68.609375 54.6875 
L 77.59375 54.6875 
L 63.28125 0 
L 52.6875 0 
L 40.921875 44.828125 
L 29.109375 0 
L 18.5 0 
z
" id="DejaVuSans-119"/>
     </defs>
     <use xlink:href="#DejaVuSans-67"/>
     <use x="69.824219" xlink:href="#DejaVuSans-111"/>
     <use x="131.005859" xlink:href="#DejaVuSans-110"/>
     <use x="194.384766" xlink:href="#DejaVuSans-99"/>
     <use x="249.365234" xlink:href="#DejaVuSans-101"/>
     <use x="310.888672" xlink:href="#DejaVuSans-110"/>
     <use x="374.267578" xlink:href="#DejaVuSans-116"/>
     <use x="413.476562" xlink:href="#DejaVuSans-114"/>
     <use x="454.589844" xlink:href="#DejaVuSans-97"/>
     <use x="515.869141" xlink:href="#DejaVuSans-116"/>
     <use x="555.078125" xlink:href="#DejaVuSans-105"/>
     <use x="582.861328" xlink:href="#DejaVuSans-101"/>
     <use x="644.384766" xlink:href="#DejaVuSans-32"/>
     <use x="676.171875" xlink:href="#DejaVuSans-83"/>
     <use x="741.523438" xlink:href="#DejaVuSans-65"/>
     <use x="809.931641" xlink:href="#DejaVuSans-82"/>
     <use x="879.414062" xlink:href="#DejaVuSans-83"/>
     <use x="942.890625" xlink:href="#DejaVuSans-45"/>
     <use x="978.974609" xlink:href="#DejaVuSans-67"/>
     <use x="1048.798828" xlink:href="#DejaVuSans-111"/>
     <use x="1109.980469" xlink:href="#DejaVuSans-86"/>
     <use x="1172.513672" xlink:href="#DejaVuSans-45"/>
     <use x="1208.597656" xlink:href="#DejaVuSans-50"/>
     <use x="1272.220703" xlink:href="#DejaVuSans-32"/>
     <use x="1304.007812" xlink:href="#DejaVuSans-82"/>
     <use x="1373.490234" xlink:href="#DejaVuSans-78"/>
     <use x="1448.294922" xlink:href="#DejaVuSans-65"/>
     <use x="1516.703125" xlink:href="#DejaVuSans-32"/>
     <use x="1548.490234" xlink:href="#DejaVuSans-112"/>
     <use x="1611.966797" xlink:href="#DejaVuSans-101"/>
     <use x="1673.490234" xlink:href="#DejaVuSans-114"/>
     <use x="1714.603516" xlink:href="#DejaVuSans-32"/>
     <use x="1746.390625" xlink:href="#DejaVuSans-109"/>
     <use x="1843.802734" xlink:href="#DejaVuSans-108"/>
     <use x="1871.585938" xlink:href="#DejaVuSans-32"/>
     <use x="1903.373047" xlink:href="#DejaVuSans-114"/>
     <use x="1944.486328" xlink:href="#DejaVuSans-105"/>
     <use x="1972.269531" xlink:href="#DejaVuSans-111"/>
     <use x="2033.451172" xlink:href="#DejaVuSans-111"/>
     <use x="2094.632812" xlink:href="#DejaVuSans-108"/>
     <use x="2122.416016" xlink:href="#DejaVuSans-119"/>
     <use x="2204.203125" xlink:href="#DejaVuSans-97"/>
     <use x="2265.482422" xlink:href="#DejaVuSans-116"/>
     <use x="2304.691406" xlink:href="#DejaVuSans-101"/>
     <use x="2366.214844" xlink:href="#DejaVuSans-114"/>
    </g>
   </g>
   <g id="legend_1">
    <g id="patch_7">
     <path d="M 71.8 48.598125 
L 306.184375 48.598125 
Q 308.184375 48.598125 308.184375 46.598125 
L 308.184375 32.92 
Q 308.184375 30.92 306.184375 30.92 
L 71.8 30.92 
Q 69.8 30.92 69.8 32.92 
L 69.8 46.598125 
Q 69.8 48.598125 71.8 48.598125 
z
" style="fill:#ffffff;opacity:0.8;stroke:#cccccc;stroke-linejoin:miter;"/>
    </g>
    <g id="line2d_33">
     <path d="M 73.8 39.018437 
L 93.8 39.018437 
" style="fill:none;stroke:#008000;stroke-linecap:square;stroke-width:1.5;"/>
    </g>
    <g id="line2d_34"/>
    <g id="text_19">
     <!-- RNA per milliliter rioolwater (gemiddeld) -->
     <g transform="translate(101.8 42.518437)scale(0.1 -0.1)">
      <defs>
       <path d="M 31 75.875 
Q 24.46875 64.65625 21.28125 53.65625 
Q 18.109375 42.671875 18.109375 31.390625 
Q 18.109375 20.125 21.3125 9.0625 
Q 24.515625 -2 31 -13.1875 
L 23.1875 -13.1875 
Q 15.875 -1.703125 12.234375 9.375 
Q 8.59375 20.453125 8.59375 31.390625 
Q 8.59375 42.28125 12.203125 53.3125 
Q 15.828125 64.359375 23.1875 75.875 
z
" id="DejaVuSans-40"/>
       <path d="M 45.40625 27.984375 
Q 45.40625 37.75 41.375 43.109375 
Q 37.359375 48.484375 30.078125 48.484375 
Q 22.859375 48.484375 18.828125 43.109375 
Q 14.796875 37.75 14.796875 27.984375 
Q 14.796875 18.265625 18.828125 12.890625 
Q 22.859375 7.515625 30.078125 7.515625 
Q 37.359375 7.515625 41.375 12.890625 
Q 45.40625 18.265625 45.40625 27.984375 
z
M 54.390625 6.78125 
Q 54.390625 -7.171875 48.1875 -13.984375 
Q 42 -20.796875 29.203125 -20.796875 
Q 24.46875 -20.796875 20.265625 -20.09375 
Q 16.0625 -19.390625 12.109375 -17.921875 
L 12.109375 -9.1875 
Q 16.0625 -11.328125 19.921875 -12.34375 
Q 23.78125 -13.375 27.78125 -13.375 
Q 36.625 -13.375 41.015625 -8.765625 
Q 45.40625 -4.15625 45.40625 5.171875 
L 45.40625 9.625 
Q 42.625 4.78125 38.28125 2.390625 
Q 33.9375 0 27.875 0 
Q 17.828125 0 11.671875 7.65625 
Q 5.515625 15.328125 5.515625 27.984375 
Q 5.515625 40.671875 11.671875 48.328125 
Q 17.828125 56 27.875 56 
Q 33.9375 56 38.28125 53.609375 
Q 42.625 51.21875 45.40625 46.390625 
L 45.40625 54.6875 
L 54.390625 54.6875 
z
" id="DejaVuSans-103"/>
       <path d="M 45.40625 46.390625 
L 45.40625 75.984375 
L 54.390625 75.984375 
L 54.390625 0 
L 45.40625 0 
L 45.40625 8.203125 
Q 42.578125 3.328125 38.25 0.953125 
Q 33.9375 -1.421875 27.875 -1.421875 
Q 17.96875 -1.421875 11.734375 6.484375 
Q 5.515625 14.40625 5.515625 27.296875 
Q 5.515625 40.1875 11.734375 48.09375 
Q 17.96875 56 27.875 56 
Q 33.9375 56 38.25 53.625 
Q 42.578125 51.265625 45.40625 46.390625 
z
M 14.796875 27.296875 
Q 14.796875 17.390625 18.875 11.75 
Q 22.953125 6.109375 30.078125 6.109375 
Q 37.203125 6.109375 41.296875 11.75 
Q 45.40625 17.390625 45.40625 27.296875 
Q 45.40625 37.203125 41.296875 42.84375 
Q 37.203125 48.484375 30.078125 48.484375 
Q 22.953125 48.484375 18.875 42.84375 
Q 14.796875 37.203125 14.796875 27.296875 
z
" id="DejaVuSans-100"/>
       <path d="M 8.015625 75.875 
L 15.828125 75.875 
Q 23.140625 64.359375 26.78125 53.3125 
Q 30.421875 42.28125 30.421875 31.390625 
Q 30.421875 20.453125 26.78125 9.375 
Q 23.140625 -1.703125 15.828125 -13.1875 
L 8.015625 -13.1875 
Q 14.5 -2 17.703125 9.0625 
Q 20.90625 20.125 20.90625 31.390625 
Q 20.90625 42.671875 17.703125 53.65625 
Q 14.5 64.65625 8.015625 75.875 
z
" id="DejaVuSans-41"/>
      </defs>
      <use xlink:href="#DejaVuSans-82"/>
      <use x="69.482422" xlink:href="#DejaVuSans-78"/>
      <use x="144.287109" xlink:href="#DejaVuSans-65"/>
      <use x="212.695312" xlink:href="#DejaVuSans-32"/>
      <use x="244.482422" xlink:href="#DejaVuSans-112"/>
      <use x="307.958984" xlink:href="#DejaVuSans-101"/>
      <use x="369.482422" xlink:href="#DejaVuSans-114"/>
      <use x="410.595703" xlink:href="#DejaVuSans-32"/>
      <use x="442.382812" xlink:href="#DejaVuSans-109"/>
      <use x="539.794922" xlink:href="#DejaVuSans-105"/>
      <use x="567.578125" xlink:href="#DejaVuSans-108"/>
      <use x="595.361328" xlink:href="#DejaVuSans-108"/>
      <use x="623.144531" xlink:href="#DejaVuSans-105"/>
      <use x="650.927734" xlink:href="#DejaVuSans-108"/>
      <use x="678.710938" xlink:href="#DejaVuSans-105"/>
      <use x="706.494141" xlink:href="#DejaVuSans-116"/>
      <use x="745.703125" xlink:href="#DejaVuSans-101"/>
      <use x="807.226562" xlink:href="#DejaVuSans-114"/>
      <use x="848.339844" xlink:href="#DejaVuSans-32"/>
      <use x="880.126953" xlink:href="#DejaVuSans-114"/>
      <use x="921.240234" xlink:href="#DejaVuSans-105"/>
      <use x="949.023438" xlink:href="#DejaVuSans-111"/>
      <use x="1010.205078" xlink:href="#DejaVuSans-111"/>
      <use x="1071.386719" xlink:href="#DejaVuSans-108"/>
      <use x="1099.169922" xlink:href="#DejaVuSans-119"/>
      <use x="1180.957031" xlink:href="#DejaVuSans-97"/>
      <use x="1242.236328" xlink:href="#DejaVuSans-116"/>
      <use x="1281.445312" xlink:href="#DejaVuSans-101"/>
      <use x="1342.96875" xlink:href="#DejaVuSans-114"/>
      <use x="1384.082031" xlink:href="#DejaVuSans-32"/>
      <use x="1415.869141" xlink:href="#DejaVuSans-40"/>
      <use x="1454.882812" xlink:href="#DejaVuSans-103"/>
      <use x="1518.359375" xlink:href="#DejaVuSans-101"/>
      <use x="1579.882812" xlink:href="#DejaVuSans-109"/>
      <use x="1677.294922" xlink:href="#DejaVuSans-105"/>
      <use x="1705.078125" xlink:href="#DejaVuSans-100"/>
      <use x="1768.554688" xlink:href="#DejaVuSans-100"/>
      <use x="1832.03125" xlink:href="#DejaVuSans-101"/>
      <use x="1893.554688" xlink:href="#DejaVuSans-108"/>
      <use x="1921.337891" xlink:href="#DejaVuSans-100"/>
      <use x="1984.814453" xlink:href="#DejaVuSans-41"/>
     </g>
    </g>
   </g>
  </g>
  <g id="text_20">
   <!-- Gegenereerd op 2021-10-16 11:41 o.b.v. data tot 2021-10-12. -->
   <g style="fill:#808080;" transform="translate(7.2 204.88175)scale(0.08 -0.08)">
    <defs>
     <path d="M 59.515625 10.40625 
L 59.515625 29.984375 
L 43.40625 29.984375 
L 43.40625 38.09375 
L 69.28125 38.09375 
L 69.28125 6.78125 
Q 63.578125 2.734375 56.6875 0.65625 
Q 49.8125 -1.421875 42 -1.421875 
Q 24.90625 -1.421875 15.25 8.5625 
Q 5.609375 18.5625 5.609375 36.375 
Q 5.609375 54.25 15.25 64.234375 
Q 24.90625 74.21875 42 74.21875 
Q 49.125 74.21875 55.546875 72.453125 
Q 61.96875 70.703125 67.390625 67.28125 
L 67.390625 56.78125 
Q 61.921875 61.421875 55.765625 63.765625 
Q 49.609375 66.109375 42.828125 66.109375 
Q 29.4375 66.109375 22.71875 58.640625 
Q 16.015625 51.171875 16.015625 36.375 
Q 16.015625 21.625 22.71875 14.15625 
Q 29.4375 6.6875 42.828125 6.6875 
Q 48.046875 6.6875 52.140625 7.59375 
Q 56.25 8.5 59.515625 10.40625 
z
" id="DejaVuSans-71"/>
     <path d="M 33.015625 40.375 
Q 26.375 40.375 22.484375 35.828125 
Q 18.609375 31.296875 18.609375 23.390625 
Q 18.609375 15.53125 22.484375 10.953125 
Q 26.375 6.390625 33.015625 6.390625 
Q 39.65625 6.390625 43.53125 10.953125 
Q 47.40625 15.53125 47.40625 23.390625 
Q 47.40625 31.296875 43.53125 35.828125 
Q 39.65625 40.375 33.015625 40.375 
z
M 52.59375 71.296875 
L 52.59375 62.3125 
Q 48.875 64.0625 45.09375 64.984375 
Q 41.3125 65.921875 37.59375 65.921875 
Q 27.828125 65.921875 22.671875 59.328125 
Q 17.53125 52.734375 16.796875 39.40625 
Q 19.671875 43.65625 24.015625 45.921875 
Q 28.375 48.1875 33.59375 48.1875 
Q 44.578125 48.1875 50.953125 41.515625 
Q 57.328125 34.859375 57.328125 23.390625 
Q 57.328125 12.15625 50.6875 5.359375 
Q 44.046875 -1.421875 33.015625 -1.421875 
Q 20.359375 -1.421875 13.671875 8.265625 
Q 6.984375 17.96875 6.984375 36.375 
Q 6.984375 53.65625 15.1875 63.9375 
Q 23.390625 74.21875 37.203125 74.21875 
Q 40.921875 74.21875 44.703125 73.484375 
Q 48.484375 72.75 52.59375 71.296875 
z
" id="DejaVuSans-54"/>
     <path d="M 11.71875 12.40625 
L 22.015625 12.40625 
L 22.015625 0 
L 11.71875 0 
z
M 11.71875 51.703125 
L 22.015625 51.703125 
L 22.015625 39.3125 
L 11.71875 39.3125 
z
" id="DejaVuSans-58"/>
     <path d="M 10.6875 12.40625 
L 21 12.40625 
L 21 0 
L 10.6875 0 
z
" id="DejaVuSans-46"/>
     <path d="M 48.6875 27.296875 
Q 48.6875 37.203125 44.609375 42.84375 
Q 40.53125 48.484375 33.40625 48.484375 
Q 26.265625 48.484375 22.1875 42.84375 
Q 18.109375 37.203125 18.109375 27.296875 
Q 18.109375 17.390625 22.1875 11.75 
Q 26.265625 6.109375 33.40625 6.109375 
Q 40.53125 6.109375 44.609375 11.75 
Q 48.6875 17.390625 48.6875 27.296875 
z
M 18.109375 46.390625 
Q 20.953125 51.265625 25.265625 53.625 
Q 29.59375 56 35.59375 56 
Q 45.5625 56 51.78125 48.09375 
Q 58.015625 40.1875 58.015625 27.296875 
Q 58.015625 14.40625 51.78125 6.484375 
Q 45.5625 -1.421875 35.59375 -1.421875 
Q 29.59375 -1.421875 25.265625 0.953125 
Q 20.953125 3.328125 18.109375 8.203125 
L 18.109375 0 
L 9.078125 0 
L 9.078125 75.984375 
L 18.109375 75.984375 
z
" id="DejaVuSans-98"/>
     <path d="M 2.984375 54.6875 
L 12.5 54.6875 
L 29.59375 8.796875 
L 46.6875 54.6875 
L 56.203125 54.6875 
L 35.6875 0 
L 23.484375 0 
z
" id="DejaVuSans-118"/>
    </defs>
    <use xlink:href="#DejaVuSans-71"/>
    <use x="77.490234" xlink:href="#DejaVuSans-101"/>
    <use x="139.013672" xlink:href="#DejaVuSans-103"/>
    <use x="202.490234" xlink:href="#DejaVuSans-101"/>
    <use x="264.013672" xlink:href="#DejaVuSans-110"/>
    <use x="327.392578" xlink:href="#DejaVuSans-101"/>
    <use x="388.916016" xlink:href="#DejaVuSans-114"/>
    <use x="427.779297" xlink:href="#DejaVuSans-101"/>
    <use x="489.302734" xlink:href="#DejaVuSans-101"/>
    <use x="550.826172" xlink:href="#DejaVuSans-114"/>
    <use x="590.189453" xlink:href="#DejaVuSans-100"/>
    <use x="653.666016" xlink:href="#DejaVuSans-32"/>
    <use x="685.453125" xlink:href="#DejaVuSans-111"/>
    <use x="746.634766" xlink:href="#DejaVuSans-112"/>
    <use x="810.111328" xlink:href="#DejaVuSans-32"/>
    <use x="841.898438" xlink:href="#DejaVuSans-50"/>
    <use x="905.521484" xlink:href="#DejaVuSans-48"/>
    <use x="969.144531" xlink:href="#DejaVuSans-50"/>
    <use x="1032.767578" xlink:href="#DejaVuSans-49"/>
    <use x="1096.390625" xlink:href="#DejaVuSans-45"/>
    <use x="1132.474609" xlink:href="#DejaVuSans-49"/>
    <use x="1196.097656" xlink:href="#DejaVuSans-48"/>
    <use x="1259.720703" xlink:href="#DejaVuSans-45"/>
    <use x="1295.804688" xlink:href="#DejaVuSans-49"/>
    <use x="1359.427734" xlink:href="#DejaVuSans-54"/>
    <use x="1423.050781" xlink:href="#DejaVuSans-32"/>
    <use x="1454.837891" xlink:href="#DejaVuSans-49"/>
    <use x="1518.460938" xlink:href="#DejaVuSans-49"/>
    <use x="1582.083984" xlink:href="#DejaVuSans-58"/>
    <use x="1615.775391" xlink:href="#DejaVuSans-52"/>
    <use x="1679.398438" xlink:href="#DejaVuSans-49"/>
    <use x="1743.021484" xlink:href="#DejaVuSans-32"/>
    <use x="1774.808594" xlink:href="#DejaVuSans-111"/>
    <use x="1834.240234" xlink:href="#DejaVuSans-46"/>
    <use x="1866.027344" xlink:href="#DejaVuSans-98"/>
    <use x="1929.503906" xlink:href="#DejaVuSans-46"/>
    <use x="1961.291016" xlink:href="#DejaVuSans-118"/>
    <use x="2012.720703" xlink:href="#DejaVuSans-46"/>
    <use x="2044.507812" xlink:href="#DejaVuSans-32"/>
    <use x="2076.294922" xlink:href="#DejaVuSans-100"/>
    <use x="2139.771484" xlink:href="#DejaVuSans-97"/>
    <use x="2201.050781" xlink:href="#DejaVuSans-116"/>
    <use x="2240.259766" xlink:href="#DejaVuSans-97"/>
    <use x="2301.539062" xlink:href="#DejaVuSans-32"/>
    <use x="2333.326172" xlink:href="#DejaVuSans-116"/>
    <use x="2372.535156" xlink:href="#DejaVuSans-111"/>
    <use x="2433.716797" xlink:href="#DejaVuSans-116"/>
    <use x="2472.925781" xlink:href="#DejaVuSans-32"/>
    <use x="2504.712891" xlink:href="#DejaVuSans-50"/>
    <use x="2568.335938" xlink:href="#DejaVuSans-48"/>
    <use x="2631.958984" xlink:href="#DejaVuSans-50"/>
    <use x="2695.582031" xlink:href="#DejaVuSans-49"/>
    <use x="2759.205078" xlink:href="#DejaVuSans-45"/>
    <use x="2795.289062" xlink:href="#DejaVuSans-49"/>
    <use x="2858.912109" xlink:href="#DejaVuSans-48"/>
    <use x="2922.535156" xlink:href="#DejaVuSans-45"/>
    <use x="2958.619141" xlink:href="#DejaVuSans-49"/>
    <use x="3022.242188" xlink:href="#DejaVuSans-50"/>
    <use x="3085.865234" xlink:href="#DejaVuSans-46"/>
   </g>
   <!-- Source code: http://github.com/realrolfje/coronadata -->
   <g style="fill:#808080;" transform="translate(7.2 213.84)scale(0.08 -0.08)">
    <defs>
     <path d="M 54.890625 33.015625 
L 54.890625 0 
L 45.90625 0 
L 45.90625 32.71875 
Q 45.90625 40.484375 42.875 44.328125 
Q 39.84375 48.1875 33.796875 48.1875 
Q 26.515625 48.1875 22.3125 43.546875 
Q 18.109375 38.921875 18.109375 30.90625 
L 18.109375 0 
L 9.078125 0 
L 9.078125 75.984375 
L 18.109375 75.984375 
L 18.109375 46.1875 
Q 21.34375 51.125 25.703125 53.5625 
Q 30.078125 56 35.796875 56 
Q 45.21875 56 50.046875 50.171875 
Q 54.890625 44.34375 54.890625 33.015625 
z
" id="DejaVuSans-104"/>
     <path d="M 25.390625 72.90625 
L 33.6875 72.90625 
L 8.296875 -9.28125 
L 0 -9.28125 
z
" id="DejaVuSans-47"/>
     <path d="M 37.109375 75.984375 
L 37.109375 68.5 
L 28.515625 68.5 
Q 23.6875 68.5 21.796875 66.546875 
Q 19.921875 64.59375 19.921875 59.515625 
L 19.921875 54.6875 
L 34.71875 54.6875 
L 34.71875 47.703125 
L 19.921875 47.703125 
L 19.921875 0 
L 10.890625 0 
L 10.890625 47.703125 
L 2.296875 47.703125 
L 2.296875 54.6875 
L 10.890625 54.6875 
L 10.890625 58.5 
Q 10.890625 67.625 15.140625 71.796875 
Q 19.390625 75.984375 28.609375 75.984375 
z
" id="DejaVuSans-102"/>
     <path d="M 9.421875 54.6875 
L 18.40625 54.6875 
L 18.40625 -0.984375 
Q 18.40625 -11.421875 14.421875 -16.109375 
Q 10.453125 -20.796875 1.609375 -20.796875 
L -1.8125 -20.796875 
L -1.8125 -13.1875 
L 0.59375 -13.1875 
Q 5.71875 -13.1875 7.5625 -10.8125 
Q 9.421875 -8.453125 9.421875 -0.984375 
z
M 9.421875 75.984375 
L 18.40625 75.984375 
L 18.40625 64.59375 
L 9.421875 64.59375 
z
" id="DejaVuSans-106"/>
    </defs>
    <use xlink:href="#DejaVuSans-83"/>
    <use x="63.476562" xlink:href="#DejaVuSans-111"/>
    <use x="124.658203" xlink:href="#DejaVuSans-117"/>
    <use x="188.037109" xlink:href="#DejaVuSans-114"/>
    <use x="226.900391" xlink:href="#DejaVuSans-99"/>
    <use x="281.880859" xlink:href="#DejaVuSans-101"/>
    <use x="343.404297" xlink:href="#DejaVuSans-32"/>
    <use x="375.191406" xlink:href="#DejaVuSans-99"/>
    <use x="430.171875" xlink:href="#DejaVuSans-111"/>
    <use x="491.353516" xlink:href="#DejaVuSans-100"/>
    <use x="554.830078" xlink:href="#DejaVuSans-101"/>
    <use x="616.353516" xlink:href="#DejaVuSans-58"/>
    <use x="650.044922" xlink:href="#DejaVuSans-32"/>
    <use x="681.832031" xlink:href="#DejaVuSans-104"/>
    <use x="745.210938" xlink:href="#DejaVuSans-116"/>
    <use x="784.419922" xlink:href="#DejaVuSans-116"/>
    <use x="823.628906" xlink:href="#DejaVuSans-112"/>
    <use x="887.105469" xlink:href="#DejaVuSans-58"/>
    <use x="920.796875" xlink:href="#DejaVuSans-47"/>
    <use x="954.488281" xlink:href="#DejaVuSans-47"/>
    <use x="988.179688" xlink:href="#DejaVuSans-103"/>
    <use x="1051.65625" xlink:href="#DejaVuSans-105"/>
    <use x="1079.439453" xlink:href="#DejaVuSans-116"/>
    <use x="1118.648438" xlink:href="#DejaVuSans-104"/>
    <use x="1182.027344" xlink:href="#DejaVuSans-117"/>
    <use x="1245.40625" xlink:href="#DejaVuSans-98"/>
    <use x="1308.882812" xlink:href="#DejaVuSans-46"/>
    <use x="1340.669922" xlink:href="#DejaVuSans-99"/>
    <use x="1395.650391" xlink:href="#DejaVuSans-111"/>
    <use x="1456.832031" xlink:href="#DejaVuSans-109"/>
    <use x="1554.244141" xlink:href="#DejaVuSans-47"/>
    <use x="1587.935547" xlink:href="#DejaVuSans-114"/>
    <use x="1626.798828" xlink:href="#DejaVuSans-101"/>
    <use x="1688.322266" xlink:href="#DejaVuSans-97"/>
    <use x="1749.601562" xlink:href="#DejaVuSans-108"/>
    <use x="1777.384766" xlink:href="#DejaVuSans-114"/>
    <use x="1816.248047" xlink:href="#DejaVuSans-111"/>
    <use x="1877.429688" xlink:href="#DejaVuSans-108"/>
    <use x="1905.212891" xlink:href="#DejaVuSans-102"/>
    <use x="1940.417969" xlink:href="#DejaVuSans-106"/>
    <use x="1968.201172" xlink:href="#DejaVuSans-101"/>
    <use x="2029.724609" xlink:href="#DejaVuSans-47"/>
    <use x="2063.416016" xlink:href="#DejaVuSans-99"/>
    <use x="2118.396484" xlink:href="#DejaVuSans-111"/>
    <use x="2179.578125" xlink:href="#DejaVuSans-114"/>
    <use x="2218.441406" xlink:href="#DejaVuSans-111"/>
    <use x="2279.623047" xlink:href="#DejaVuSans-110"/>
    <use x="2343.001953" xlink:href="#DejaVuSans-97"/>
    <use x="2404.28125" xlink:href="#DejaVuSans-100"/>
    <use x="2467.757812" xlink:href="#DejaVuSans-97"/>
    <use x="2529.037109" xlink:href="#DejaVuSans-116"/>
    <use x="2568.246094" xlink:href="#DejaVuSans-97"/>
   </g>
  </g>
  <g id="text_21">
   <!-- Bron: https://data.rivm.nl/covid-19 -->
   <g style="fill:#808080;" transform="translate(574.79875 213.84)scale(0.08 -0.08)">
    <defs>
     <path d="M 19.671875 34.8125 
L 19.671875 8.109375 
L 35.5 8.109375 
Q 43.453125 8.109375 47.28125 11.40625 
Q 51.125 14.703125 51.125 21.484375 
Q 51.125 28.328125 47.28125 31.5625 
Q 43.453125 34.8125 35.5 34.8125 
z
M 19.671875 64.796875 
L 19.671875 42.828125 
L 34.28125 42.828125 
Q 41.5 42.828125 45.03125 45.53125 
Q 48.578125 48.25 48.578125 53.8125 
Q 48.578125 59.328125 45.03125 62.0625 
Q 41.5 64.796875 34.28125 64.796875 
z
M 9.8125 72.90625 
L 35.015625 72.90625 
Q 46.296875 72.90625 52.390625 68.21875 
Q 58.5 63.53125 58.5 54.890625 
Q 58.5 48.1875 55.375 44.234375 
Q 52.25 40.28125 46.1875 39.3125 
Q 53.46875 37.75 57.5 32.78125 
Q 61.53125 27.828125 61.53125 20.40625 
Q 61.53125 10.640625 54.890625 5.3125 
Q 48.25 0 35.984375 0 
L 9.8125 0 
z
" id="DejaVuSans-66"/>
     <path d="M 44.28125 53.078125 
L 44.28125 44.578125 
Q 40.484375 46.53125 36.375 47.5 
Q 32.28125 48.484375 27.875 48.484375 
Q 21.1875 48.484375 17.84375 46.4375 
Q 14.5 44.390625 14.5 40.28125 
Q 14.5 37.15625 16.890625 35.375 
Q 19.28125 33.59375 26.515625 31.984375 
L 29.59375 31.296875 
Q 39.15625 29.25 43.1875 25.515625 
Q 47.21875 21.78125 47.21875 15.09375 
Q 47.21875 7.46875 41.1875 3.015625 
Q 35.15625 -1.421875 24.609375 -1.421875 
Q 20.21875 -1.421875 15.453125 -0.5625 
Q 10.6875 0.296875 5.421875 2 
L 5.421875 11.28125 
Q 10.40625 8.6875 15.234375 7.390625 
Q 20.0625 6.109375 24.8125 6.109375 
Q 31.15625 6.109375 34.5625 8.28125 
Q 37.984375 10.453125 37.984375 14.40625 
Q 37.984375 18.0625 35.515625 20.015625 
Q 33.0625 21.96875 24.703125 23.78125 
L 21.578125 24.515625 
Q 13.234375 26.265625 9.515625 29.90625 
Q 5.8125 33.546875 5.8125 39.890625 
Q 5.8125 47.609375 11.28125 51.796875 
Q 16.75 56 26.8125 56 
Q 31.78125 56 36.171875 55.265625 
Q 40.578125 54.546875 44.28125 53.078125 
z
" id="DejaVuSans-115"/>
    </defs>
    <use xlink:href="#DejaVuSans-66"/>
    <use x="68.603516" xlink:href="#DejaVuSans-114"/>
    <use x="107.466797" xlink:href="#DejaVuSans-111"/>
    <use x="168.648438" xlink:href="#DejaVuSans-110"/>
    <use x="232.027344" xlink:href="#DejaVuSans-58"/>
    <use x="265.71875" xlink:href="#DejaVuSans-32"/>
    <use x="297.505859" xlink:href="#DejaVuSans-104"/>
    <use x="360.884766" xlink:href="#DejaVuSans-116"/>
    <use x="400.09375" xlink:href="#DejaVuSans-116"/>
    <use x="439.302734" xlink:href="#DejaVuSans-112"/>
    <use x="502.779297" xlink:href="#DejaVuSans-115"/>
    <use x="554.878906" xlink:href="#DejaVuSans-58"/>
    <use x="588.570312" xlink:href="#DejaVuSans-47"/>
    <use x="622.261719" xlink:href="#DejaVuSans-47"/>
    <use x="655.953125" xlink:href="#DejaVuSans-100"/>
    <use x="719.429688" xlink:href="#DejaVuSans-97"/>
    <use x="780.708984" xlink:href="#DejaVuSans-116"/>
    <use x="819.917969" xlink:href="#DejaVuSans-97"/>
    <use x="881.197266" xlink:href="#DejaVuSans-46"/>
    <use x="912.984375" xlink:href="#DejaVuSans-114"/>
    <use x="954.097656" xlink:href="#DejaVuSans-105"/>
    <use x="981.880859" xlink:href="#DejaVuSans-118"/>
    <use x="1041.060547" xlink:href="#DejaVuSans-109"/>
    <use x="1138.472656" xlink:href="#DejaVuSans-46"/>
    <use x="1170.259766" xlink:href="#DejaVuSans-110"/>
    <use x="1233.638672" xlink:href="#DejaVuSans-108"/>
    <use x="1261.421875" xlink:href="#DejaVuSans-47"/>
    <use x="1295.113281" xlink:href="#DejaVuSans-99"/>
    <use x="1350.09375" xlink:href="#DejaVuSans-111"/>
    <use x="1411.275391" xlink:href="#DejaVuSans-118"/>
    <use x="1470.455078" xlink:href="#DejaVuSans-105"/>
    <use x="1498.238281" xlink:href="#DejaVuSans-100"/>
    <use x="1561.714844" xlink:href="#DejaVuSans-45"/>
    <use x="1597.798828" xlink:href="#DejaVuSans-49"/>
    <use x="1661.421875" xlink:href="#DejaVuSans-57"/>
   </g>
  </g>
  <g id="text_22">
   <g id="patch_8">
    <path d="M 637.2 176.62375 
L 647.38 176.62375 
L 647.38 168.88125 
L 637.2 168.88125 
z
" style="fill:#ffffff;opacity:0.9;stroke:#ffffff;stroke-linejoin:miter;"/>
   </g>
   <!-- 16 -->
   <g style="fill:#ff0000;" transform="translate(637.2 174.96)scale(0.08 -0.08)">
    <use xlink:href="#DejaVuSans-49"/>
    <use x="63.623047" xlink:href="#DejaVuSans-54"/>
   </g>
  </g>
  <g id="text_23">
   <g id="patch_9">
    <path d="M 176 92.479688 
L 303.317187 92.479688 
L 303.317187 74.801563 
L 176 74.801563 
z
" style="fill:#ffffff;stroke:#ffffff;stroke-linejoin:miter;"/>
   </g>
   <!-- "Je plee liegt niet" - Rolf -->
   <g style="fill:#808080;" transform="translate(180 86.4)scale(0.1 -0.1)">
    <defs>
     <path d="M 17.921875 72.90625 
L 17.921875 45.796875 
L 9.625 45.796875 
L 9.625 72.90625 
z
M 36.375 72.90625 
L 36.375 45.796875 
L 28.078125 45.796875 
L 28.078125 72.90625 
z
" id="DejaVuSans-34"/>
     <path d="M 9.8125 72.90625 
L 19.671875 72.90625 
L 19.671875 5.078125 
Q 19.671875 -8.109375 14.671875 -14.0625 
Q 9.671875 -20.015625 -1.421875 -20.015625 
L -5.171875 -20.015625 
L -5.171875 -11.71875 
L -2.09375 -11.71875 
Q 4.4375 -11.71875 7.125 -8.046875 
Q 9.8125 -4.390625 9.8125 5.078125 
z
" id="DejaVuSans-74"/>
    </defs>
    <use xlink:href="#DejaVuSans-34"/>
    <use x="45.996094" xlink:href="#DejaVuSans-74"/>
    <use x="75.488281" xlink:href="#DejaVuSans-101"/>
    <use x="137.011719" xlink:href="#DejaVuSans-32"/>
    <use x="168.798828" xlink:href="#DejaVuSans-112"/>
    <use x="232.275391" xlink:href="#DejaVuSans-108"/>
    <use x="260.058594" xlink:href="#DejaVuSans-101"/>
    <use x="321.582031" xlink:href="#DejaVuSans-101"/>
    <use x="383.105469" xlink:href="#DejaVuSans-32"/>
    <use x="414.892578" xlink:href="#DejaVuSans-108"/>
    <use x="442.675781" xlink:href="#DejaVuSans-105"/>
    <use x="470.458984" xlink:href="#DejaVuSans-101"/>
    <use x="531.982422" xlink:href="#DejaVuSans-103"/>
    <use x="595.458984" xlink:href="#DejaVuSans-116"/>
    <use x="634.667969" xlink:href="#DejaVuSans-32"/>
    <use x="666.455078" xlink:href="#DejaVuSans-110"/>
    <use x="729.833984" xlink:href="#DejaVuSans-105"/>
    <use x="757.617188" xlink:href="#DejaVuSans-101"/>
    <use x="819.140625" xlink:href="#DejaVuSans-116"/>
    <use x="858.349609" xlink:href="#DejaVuSans-34"/>
    <use x="904.345703" xlink:href="#DejaVuSans-32"/>
    <use x="936.132812" xlink:href="#DejaVuSans-45"/>
    <use x="972.216797" xlink:href="#DejaVuSans-32"/>
    <use x="1004.003906" xlink:href="#DejaVuSans-82"/>
    <use x="1068.986328" xlink:href="#DejaVuSans-111"/>
    <use x="1130.167969" xlink:href="#DejaVuSans-108"/>
    <use x="1157.951172" xlink:href="#DejaVuSans-102"/>
   </g>
  </g>
 </g>
 <defs>
  <clipPath id="p4daaf65f48">
   <rect height="146.88" width="590.4" x="64.8" y="25.92"/>
  </clipPath>
 </defs>
</svg>
