<?xml version="1.0" encoding="utf-8" standalone="no"?>
<!DOCTYPE svg PUBLIC "-//W3C//DTD SVG 1.1//EN"
  "http://www.w3.org/Graphics/SVG/1.1/DTD/svg11.dtd">
<!-- Created with matplotlib (https://matplotlib.org/) -->
<svg height="360pt" version="1.1" viewBox="0 0 720 360" width="720pt" xmlns="http://www.w3.org/2000/svg" xmlns:xlink="http://www.w3.org/1999/xlink">
 <metadata>
  <rdf:RDF xmlns:cc="http://creativecommons.org/ns#" xmlns:dc="http://purl.org/dc/elements/1.1/" xmlns:rdf="http://www.w3.org/1999/02/22-rdf-syntax-ns#">
   <cc:Work>
    <dc:type rdf:resource="http://purl.org/dc/dcmitype/StillImage"/>
    <dc:date>2021-01-07T17:19:13.706785</dc:date>
    <dc:format>image/svg+xml</dc:format>
    <dc:creator>
     <cc:Agent>
      <dc:title>Matplotlib v3.3.2, https://matplotlib.org/</dc:title>
     </cc:Agent>
    </dc:creator>
   </cc:Work>
  </rdf:RDF>
 </metadata>
 <defs>
  <style type="text/css">*{stroke-linecap:butt;stroke-linejoin:round;}</style>
 </defs>
 <g id="figure_1">
  <g id="patch_1">
   <path d="M 0 360 
L 720 360 
L 720 0 
L 0 0 
z
" style="fill:#ffffff;"/>
  </g>
  <g id="axes_1">
   <g id="patch_2">
    <path d="M 64.8 313.2 
L 655.2 313.2 
L 655.2 28.8 
L 64.8 28.8 
z
" style="fill:#ffffff;"/>
   </g>
   <g id="PolyCollection_1">
    <path clip-path="url(#p06f70bee83)" d="M 264.989272 313.030363 
L 264.989272 313.030363 
L 266.656126 313.033133 
L 268.322981 313.036133 
L 269.989836 313.039363 
L 271.656691 313.042824 
L 273.323546 313.046515 
L 274.990401 313.050437 
L 276.657256 313.054674 
L 278.324111 313.060144 
L 279.990966 313.065392 
L 281.65782 313.071429 
L 283.324675 313.078483 
L 284.99153 313.087555 
L 286.658385 313.096201 
L 288.32524 313.104621 
L 289.992095 313.114155 
L 291.65895 313.123543 
L 293.325805 313.129916 
L 294.99266 313.138096 
L 296.659514 313.145229 
L 298.326369 313.151428 
L 299.993224 313.156679 
L 301.660079 313.162389 
L 303.326934 313.167745 
L 304.993789 313.172375 
L 306.660644 313.175017 
L 308.327499 313.177324 
L 309.994353 313.17952 
L 311.661208 313.181141 
L 313.328063 313.183294 
L 314.994918 313.185254 
L 316.661773 313.185807 
L 318.328628 313.186027 
L 319.995483 313.186665 
L 321.662338 313.186966 
L 323.329193 313.186881 
L 324.996047 313.185428 
L 326.662902 313.182964 
L 328.329757 313.179713 
L 329.996612 313.173456 
L 331.663467 313.164792 
L 333.330322 313.151328 
L 334.997177 313.133917 
L 336.664032 313.11235 
L 338.330887 313.090311 
L 339.997741 313.055825 
L 341.664596 313.008691 
L 343.331451 312.951089 
L 344.998306 312.883062 
L 346.665161 312.817574 
L 348.332016 312.745245 
L 349.998871 312.653561 
L 351.665726 312.541625 
L 353.33258 312.423686 
L 354.999435 312.308463 
L 356.66629 312.188124 
L 358.333145 312.05868 
L 360 311.929232 
L 361.666855 311.847659 
L 363.33371 311.777994 
L 365.000565 311.696358 
L 366.66742 311.608443 
L 368.334274 311.492292 
L 370.001129 311.387336 
L 371.667984 311.352101 
L 373.334839 311.381357 
L 375.001694 311.421865 
L 376.668549 311.452152 
L 378.335404 311.455071 
L 380.002259 311.468466 
L 381.669113 311.459151 
L 383.335968 311.432102 
L 385.002823 311.417154 
L 386.669678 311.462279 
L 388.336533 311.51468 
L 390.003388 311.590177 
L 391.670243 311.665333 
L 393.337098 311.697219 
L 395.003953 311.717326 
L 396.670807 311.742004 
L 398.337662 311.784355 
L 400.004517 311.848589 
L 401.671372 311.900341 
L 403.338227 311.966863 
L 405.005082 312.014905 
L 406.671937 312.066365 
L 408.338792 312.01566 
L 410.005647 311.929713 
L 411.672501 311.792615 
L 413.339356 311.582355 
L 415.006211 311.33362 
L 416.673066 311.026491 
L 418.339921 310.682547 
L 420.006776 310.27631 
L 421.673631 309.707378 
L 423.340486 309.055504 
L 425.00734 308.155991 
L 426.674195 307.142104 
L 428.34105 305.995961 
L 430.007905 305.065829 
L 431.67476 304.239532 
L 433.341615 303.462181 
L 435.00847 302.512123 
L 436.675325 301.435984 
L 438.34218 300.25303 
L 440.009034 299.004682 
L 441.675889 297.742475 
L 443.342744 296.562382 
L 445.009599 295.241806 
L 446.676454 294.160809 
L 448.343309 293.105872 
L 450.010164 291.901703 
L 451.677019 290.135857 
L 453.343874 288.056352 
L 455.010728 284.458928 
L 456.677583 281.083936 
L 458.344438 277.229111 
L 460.011293 273.076153 
L 461.678148 268.471658 
L 463.345003 263.604983 
L 465.011858 258.642708 
L 466.678713 253.691217 
L 468.345567 248.4754 
L 470.012422 243.314286 
L 471.679277 238.326852 
L 473.346132 233.606625 
L 475.012987 228.780267 
L 476.679842 227.15566 
L 478.346697 225.247495 
L 480.013552 224.148325 
L 481.680407 223.542297 
L 483.347261 221.221578 
L 485.014116 219.372856 
L 486.680971 218.163046 
L 488.347826 217.858747 
L 490.014681 218.001132 
L 491.681536 217.595477 
L 493.348391 216.324486 
L 495.015246 214.811104 
L 496.682101 213.896603 
L 498.348955 211.576994 
L 500.01581 210.591269 
L 501.682665 209.549865 
L 503.34952 208.476903 
L 505.016375 212.17999 
L 506.68323 215.485303 
L 508.350085 218.065612 
L 510.01694 219.910961 
L 511.683794 222.621522 
L 513.350649 226.167141 
L 515.017504 231.213541 
L 516.684359 236.850559 
L 518.351214 241.404059 
L 520.018069 245.322488 
L 521.684924 248.336935 
L 523.351779 251.959272 
L 525.018634 254.95316 
L 526.685488 255.13273 
L 528.352343 255.43077 
L 530.019198 255.998423 
L 531.686053 256.788357 
L 533.352908 256.741133 
L 535.019763 256.591338 
L 536.686618 256.033217 
L 538.353473 255.257116 
L 540.020327 255.88986 
L 541.687182 256.919137 
L 543.354037 258.115639 
L 545.020892 258.669991 
L 546.687747 261.047077 
L 548.354602 264.049921 
L 550.021457 266.715115 
L 551.688312 269.216155 
L 553.355167 270.945329 
L 555.022021 272.449854 
L 556.688876 273.860391 
L 558.355731 275.310689 
L 560.022586 276.873784 
L 561.689441 277.836625 
L 563.356296 278.711481 
L 565.023151 279.365418 
L 566.690006 279.879962 
L 568.356861 279.354887 
L 570.023715 278.586873 
L 571.69057 278.241456 
L 573.357425 277.51252 
L 575.02428 277.409174 
L 576.691135 277.51776 
L 578.35799 277.182631 
L 580.024845 276.533426 
L 581.6917 275.887103 
L 583.358554 275.196298 
L 585.025409 273.964662 
L 586.692264 272.700016 
L 588.359119 271.251499 
L 590.025974 269.944224 
L 591.692829 268.662336 
L 593.359684 267.608645 
L 595.026539 267.019205 
L 596.693394 266.519571 
L 598.360248 266.310554 
L 600.027103 266.928146 
L 601.693958 267.876578 
L 603.360813 268.92025 
L 605.027668 270.447768 
L 606.694523 273.017086 
L 608.361378 275.904044 
L 610.028233 279.262697 
L 611.695088 282.558904 
L 613.361942 285.806056 
L 615.028797 288.832277 
L 616.695652 291.887809 
L 618.362507 294.823514 
L 620.029362 297.688367 
L 621.696217 300.36828 
L 623.363072 302.863254 
L 625.029927 305.173289 
L 626.696781 307.298384 
L 628.363636 309.238539 
L 628.363636 309.238539 
L 628.363636 290.529366 
L 626.696781 281.566368 
L 625.029927 272.788309 
L 623.363072 264.195189 
L 621.696217 255.78701 
L 620.029362 247.563769 
L 618.362507 239.525469 
L 616.695652 231.861807 
L 615.028797 224.094485 
L 613.361942 216.955132 
L 611.695088 210.081856 
L 610.028233 203.582349 
L 608.361378 197.508844 
L 606.694523 192.878066 
L 605.027668 189.152745 
L 603.360813 188.150225 
L 601.693958 187.60723 
L 600.027103 187.216161 
L 598.360248 187.148026 
L 596.693394 188.751888 
L 595.026539 190.786495 
L 593.359684 193.795278 
L 591.692829 197.647769 
L 590.025974 201.552228 
L 588.359119 205.834083 
L 586.692264 210.237464 
L 585.025409 213.960562 
L 583.358554 217.536853 
L 581.6917 219.629069 
L 580.024845 221.327647 
L 578.35799 223.028424 
L 576.691135 224.03682 
L 575.02428 224.166897 
L 573.357425 224.643617 
L 571.69057 225.50875 
L 570.023715 225.612105 
L 568.356861 226.412921 
L 566.690006 226.223491 
L 565.023151 223.878279 
L 563.356296 221.185878 
L 561.689441 217.518085 
L 560.022586 213.547121 
L 558.355731 208.111457 
L 556.688876 202.437524 
L 555.022021 197.069074 
L 553.355167 191.202069 
L 551.688312 184.774743 
L 550.021457 177.477292 
L 548.354602 169.260584 
L 546.687747 160.690537 
L 545.020892 153.986062 
L 543.354037 151.39158 
L 541.687182 148.027553 
L 540.020327 145.643525 
L 538.353473 143.92192 
L 536.686618 145.584839 
L 535.019763 147.053536 
L 533.352908 145.890002 
L 531.686053 144.604393 
L 530.019198 141.611481 
L 528.352343 138.857914 
L 526.685488 136.844996 
L 525.018634 134.416275 
L 523.351779 123.100052 
L 521.684924 108.761669 
L 520.018069 95.460496 
L 518.351214 80.101666 
L 516.684359 64.227269 
L 515.017504 46.231169 
L 513.350649 28.96053 
L 511.683794 17.487193 
L 510.01694 7.182102 
L 508.350085 -0.246536 
L 506.68323 -8.579305 
L 505.016375 -17.273243 
L 503.34952 -26.100796 
L 501.682665 -20.071602 
L 500.01581 -13.373603 
L 498.348955 -8.599054 
L 496.682101 -0.900854 
L 495.015246 2.970222 
L 493.348391 8.073818 
L 491.681536 12.560925 
L 490.014681 14.058047 
L 488.347826 15.530496 
L 486.680971 16.630416 
L 485.014116 19.805561 
L 483.347261 24.247943 
L 481.680407 30.195648 
L 480.013552 30.492736 
L 478.346697 32.783654 
L 476.679842 39.552546 
L 475.012987 45.732167 
L 473.346132 60.643376 
L 471.679277 75.317087 
L 470.012422 91.394168 
L 468.345567 108.24581 
L 466.678713 124.904961 
L 465.011858 140.912575 
L 463.345003 156.588432 
L 461.678148 172.096355 
L 460.011293 186.970316 
L 458.344438 200.564422 
L 456.677583 212.740804 
L 455.010728 222.525507 
L 453.343874 232.665265 
L 451.677019 238.212788 
L 450.010164 243.23804 
L 448.343309 246.836765 
L 446.676454 249.854162 
L 445.009599 252.723783 
L 443.342744 256.082265 
L 441.675889 258.847194 
L 440.009034 261.908364 
L 438.34218 264.850463 
L 436.675325 267.821075 
L 435.00847 270.610632 
L 433.341615 273.169214 
L 431.67476 275.074424 
L 430.007905 277.10369 
L 428.34105 279.478623 
L 426.674195 282.89074 
L 425.00734 286.163338 
L 423.340486 289.35042 
L 421.673631 291.804379 
L 420.006776 294.150752 
L 418.339921 295.703344 
L 416.673066 297.165117 
L 415.006211 298.571684 
L 413.339356 299.86587 
L 411.672501 301.06396 
L 410.005647 301.88062 
L 408.338792 302.409951 
L 406.671937 302.694005 
L 405.005082 302.186886 
L 403.338227 301.804839 
L 401.671372 301.364627 
L 400.004517 301.006297 
L 398.337662 300.631339 
L 396.670807 300.38389 
L 395.003953 300.209575 
L 393.337098 300.068627 
L 391.670243 299.675595 
L 390.003388 298.998173 
L 388.336533 298.361897 
L 386.669678 297.892955 
L 385.002823 297.439701 
L 383.335968 297.386507 
L 381.669113 297.332449 
L 380.002259 297.17887 
L 378.335404 296.941321 
L 376.668549 296.710469 
L 375.001694 296.362637 
L 373.334839 295.890684 
L 371.667984 295.437071 
L 370.001129 295.587842 
L 368.334274 296.301505 
L 366.66742 297.047392 
L 365.000565 297.698833 
L 363.33371 298.32585 
L 361.666855 298.764555 
L 360 299.253579 
L 358.333145 300.081692 
L 356.66629 300.983437 
L 354.999435 301.886185 
L 353.33258 302.816955 
L 351.665726 303.916199 
L 349.998871 305.048666 
L 348.332016 305.990113 
L 346.665161 306.666168 
L 344.998306 307.345581 
L 343.331451 308.072215 
L 341.664596 308.794824 
L 339.997741 309.501766 
L 338.330887 310.108075 
L 336.664032 310.50824 
L 334.997177 310.918446 
L 333.330322 311.311882 
L 331.663467 311.670236 
L 329.996612 311.91744 
L 328.329757 312.119031 
L 326.662902 312.209226 
L 324.996047 312.28821 
L 323.329193 312.337439 
L 321.662338 312.353396 
L 319.995483 312.353955 
L 318.328628 312.340829 
L 316.661773 312.342259 
L 314.994918 312.335313 
L 313.328063 312.289199 
L 311.661208 312.239634 
L 309.994353 312.21627 
L 308.327499 312.171181 
L 306.660644 312.126202 
L 304.993789 312.077207 
L 303.326934 311.983187 
L 301.660079 311.861958 
L 299.993224 311.730848 
L 298.326369 311.616733 
L 296.659514 311.497599 
L 294.99266 311.371405 
L 293.325805 311.238344 
L 291.65895 311.124161 
L 289.992095 310.944566 
L 288.32524 310.748721 
L 286.658385 310.578397 
L 284.99153 310.408298 
L 283.324675 310.227647 
L 281.65782 310.068745 
L 279.990966 309.929348 
L 278.324111 309.793894 
L 276.657256 309.646008 
L 274.990401 309.491879 
L 273.323546 309.324705 
L 271.656691 309.1573 
L 269.989836 308.989665 
L 268.322981 308.8218 
L 266.656126 308.653705 
L 264.989272 308.485379 
z
" style="fill:#0000ff;fill-opacity:0.1;"/>
   </g>
   <g id="matplotlib.axis_1">
    <g id="xtick_1">
     <g id="line2d_1">
      <path clip-path="url(#p06f70bee83)" d="M 64.966685 313.2 
L 64.966685 28.8 
" style="fill:none;stroke:#808080;stroke-dasharray:6.4,1.6,1,1.6;stroke-dashoffset:0;stroke-opacity:0.3;"/>
     </g>
     <g id="line2d_2">
      <defs>
       <path d="M 0 0 
L 0 3.5 
" id="m411ec7daf0" style="stroke:#000000;stroke-width:0.8;"/>
      </defs>
      <g>
       <use style="stroke:#000000;stroke-width:0.8;" x="64.966685" xlink:href="#m411ec7daf0" y="313.2"/>
      </g>
     </g>
     <g id="text_1">
      <!-- 2020-02 -->
      <g transform="translate(44.075279 327.798437)scale(0.1 -0.1)">
       <defs>
        <path d="M 19.1875 8.296875 
L 53.609375 8.296875 
L 53.609375 0 
L 7.328125 0 
L 7.328125 8.296875 
Q 12.9375 14.109375 22.625 23.890625 
Q 32.328125 33.6875 34.8125 36.53125 
Q 39.546875 41.84375 41.421875 45.53125 
Q 43.3125 49.21875 43.3125 52.78125 
Q 43.3125 58.59375 39.234375 62.25 
Q 35.15625 65.921875 28.609375 65.921875 
Q 23.96875 65.921875 18.8125 64.3125 
Q 13.671875 62.703125 7.8125 59.421875 
L 7.8125 69.390625 
Q 13.765625 71.78125 18.9375 73 
Q 24.125 74.21875 28.421875 74.21875 
Q 39.75 74.21875 46.484375 68.546875 
Q 53.21875 62.890625 53.21875 53.421875 
Q 53.21875 48.921875 51.53125 44.890625 
Q 49.859375 40.875 45.40625 35.40625 
Q 44.1875 33.984375 37.640625 27.21875 
Q 31.109375 20.453125 19.1875 8.296875 
z
" id="DejaVuSans-50"/>
        <path d="M 31.78125 66.40625 
Q 24.171875 66.40625 20.328125 58.90625 
Q 16.5 51.421875 16.5 36.375 
Q 16.5 21.390625 20.328125 13.890625 
Q 24.171875 6.390625 31.78125 6.390625 
Q 39.453125 6.390625 43.28125 13.890625 
Q 47.125 21.390625 47.125 36.375 
Q 47.125 51.421875 43.28125 58.90625 
Q 39.453125 66.40625 31.78125 66.40625 
z
M 31.78125 74.21875 
Q 44.046875 74.21875 50.515625 64.515625 
Q 56.984375 54.828125 56.984375 36.375 
Q 56.984375 17.96875 50.515625 8.265625 
Q 44.046875 -1.421875 31.78125 -1.421875 
Q 19.53125 -1.421875 13.0625 8.265625 
Q 6.59375 17.96875 6.59375 36.375 
Q 6.59375 54.828125 13.0625 64.515625 
Q 19.53125 74.21875 31.78125 74.21875 
z
" id="DejaVuSans-48"/>
        <path d="M 4.890625 31.390625 
L 31.203125 31.390625 
L 31.203125 23.390625 
L 4.890625 23.390625 
z
" id="DejaVuSans-45"/>
       </defs>
       <use xlink:href="#DejaVuSans-50"/>
       <use x="63.623047" xlink:href="#DejaVuSans-48"/>
       <use x="127.246094" xlink:href="#DejaVuSans-50"/>
       <use x="190.869141" xlink:href="#DejaVuSans-48"/>
       <use x="254.492188" xlink:href="#DejaVuSans-45"/>
       <use x="290.576172" xlink:href="#DejaVuSans-48"/>
       <use x="354.199219" xlink:href="#DejaVuSans-50"/>
      </g>
     </g>
    </g>
    <g id="xtick_2">
     <g id="line2d_3">
      <path clip-path="url(#p06f70bee83)" d="M 113.305477 313.2 
L 113.305477 28.8 
" style="fill:none;stroke:#808080;stroke-dasharray:6.4,1.6,1,1.6;stroke-dashoffset:0;stroke-opacity:0.3;"/>
     </g>
     <g id="line2d_4">
      <g>
       <use style="stroke:#000000;stroke-width:0.8;" x="113.305477" xlink:href="#m411ec7daf0" y="313.2"/>
      </g>
     </g>
     <g id="text_2">
      <!-- 2020-03 -->
      <g transform="translate(92.414071 327.798437)scale(0.1 -0.1)">
       <defs>
        <path d="M 40.578125 39.3125 
Q 47.65625 37.796875 51.625 33 
Q 55.609375 28.21875 55.609375 21.1875 
Q 55.609375 10.40625 48.1875 4.484375 
Q 40.765625 -1.421875 27.09375 -1.421875 
Q 22.515625 -1.421875 17.65625 -0.515625 
Q 12.796875 0.390625 7.625 2.203125 
L 7.625 11.71875 
Q 11.71875 9.328125 16.59375 8.109375 
Q 21.484375 6.890625 26.8125 6.890625 
Q 36.078125 6.890625 40.9375 10.546875 
Q 45.796875 14.203125 45.796875 21.1875 
Q 45.796875 27.640625 41.28125 31.265625 
Q 36.765625 34.90625 28.71875 34.90625 
L 20.21875 34.90625 
L 20.21875 43.015625 
L 29.109375 43.015625 
Q 36.375 43.015625 40.234375 45.921875 
Q 44.09375 48.828125 44.09375 54.296875 
Q 44.09375 59.90625 40.109375 62.90625 
Q 36.140625 65.921875 28.71875 65.921875 
Q 24.65625 65.921875 20.015625 65.03125 
Q 15.375 64.15625 9.8125 62.3125 
L 9.8125 71.09375 
Q 15.4375 72.65625 20.34375 73.4375 
Q 25.25 74.21875 29.59375 74.21875 
Q 40.828125 74.21875 47.359375 69.109375 
Q 53.90625 64.015625 53.90625 55.328125 
Q 53.90625 49.265625 50.4375 45.09375 
Q 46.96875 40.921875 40.578125 39.3125 
z
" id="DejaVuSans-51"/>
       </defs>
       <use xlink:href="#DejaVuSans-50"/>
       <use x="63.623047" xlink:href="#DejaVuSans-48"/>
       <use x="127.246094" xlink:href="#DejaVuSans-50"/>
       <use x="190.869141" xlink:href="#DejaVuSans-48"/>
       <use x="254.492188" xlink:href="#DejaVuSans-45"/>
       <use x="290.576172" xlink:href="#DejaVuSans-48"/>
       <use x="354.199219" xlink:href="#DejaVuSans-51"/>
      </g>
     </g>
    </g>
    <g id="xtick_3">
     <g id="line2d_5">
      <path clip-path="url(#p06f70bee83)" d="M 164.977979 313.2 
L 164.977979 28.8 
" style="fill:none;stroke:#808080;stroke-dasharray:6.4,1.6,1,1.6;stroke-dashoffset:0;stroke-opacity:0.3;"/>
     </g>
     <g id="line2d_6">
      <g>
       <use style="stroke:#000000;stroke-width:0.8;" x="164.977979" xlink:href="#m411ec7daf0" y="313.2"/>
      </g>
     </g>
     <g id="text_3">
      <!-- 2020-04 -->
      <g transform="translate(144.086572 327.798437)scale(0.1 -0.1)">
       <defs>
        <path d="M 37.796875 64.3125 
L 12.890625 25.390625 
L 37.796875 25.390625 
z
M 35.203125 72.90625 
L 47.609375 72.90625 
L 47.609375 25.390625 
L 58.015625 25.390625 
L 58.015625 17.1875 
L 47.609375 17.1875 
L 47.609375 0 
L 37.796875 0 
L 37.796875 17.1875 
L 4.890625 17.1875 
L 4.890625 26.703125 
z
" id="DejaVuSans-52"/>
       </defs>
       <use xlink:href="#DejaVuSans-50"/>
       <use x="63.623047" xlink:href="#DejaVuSans-48"/>
       <use x="127.246094" xlink:href="#DejaVuSans-50"/>
       <use x="190.869141" xlink:href="#DejaVuSans-48"/>
       <use x="254.492188" xlink:href="#DejaVuSans-45"/>
       <use x="290.576172" xlink:href="#DejaVuSans-48"/>
       <use x="354.199219" xlink:href="#DejaVuSans-52"/>
      </g>
     </g>
    </g>
    <g id="xtick_4">
     <g id="line2d_7">
      <path clip-path="url(#p06f70bee83)" d="M 214.983625 313.2 
L 214.983625 28.8 
" style="fill:none;stroke:#808080;stroke-dasharray:6.4,1.6,1,1.6;stroke-dashoffset:0;stroke-opacity:0.3;"/>
     </g>
     <g id="line2d_8">
      <g>
       <use style="stroke:#000000;stroke-width:0.8;" x="214.983625" xlink:href="#m411ec7daf0" y="313.2"/>
      </g>
     </g>
     <g id="text_4">
      <!-- 2020-05 -->
      <g transform="translate(194.092219 327.798437)scale(0.1 -0.1)">
       <defs>
        <path d="M 10.796875 72.90625 
L 49.515625 72.90625 
L 49.515625 64.59375 
L 19.828125 64.59375 
L 19.828125 46.734375 
Q 21.96875 47.46875 24.109375 47.828125 
Q 26.265625 48.1875 28.421875 48.1875 
Q 40.625 48.1875 47.75 41.5 
Q 54.890625 34.8125 54.890625 23.390625 
Q 54.890625 11.625 47.5625 5.09375 
Q 40.234375 -1.421875 26.90625 -1.421875 
Q 22.3125 -1.421875 17.546875 -0.640625 
Q 12.796875 0.140625 7.71875 1.703125 
L 7.71875 11.625 
Q 12.109375 9.234375 16.796875 8.0625 
Q 21.484375 6.890625 26.703125 6.890625 
Q 35.15625 6.890625 40.078125 11.328125 
Q 45.015625 15.765625 45.015625 23.390625 
Q 45.015625 31 40.078125 35.4375 
Q 35.15625 39.890625 26.703125 39.890625 
Q 22.75 39.890625 18.8125 39.015625 
Q 14.890625 38.140625 10.796875 36.28125 
z
" id="DejaVuSans-53"/>
       </defs>
       <use xlink:href="#DejaVuSans-50"/>
       <use x="63.623047" xlink:href="#DejaVuSans-48"/>
       <use x="127.246094" xlink:href="#DejaVuSans-50"/>
       <use x="190.869141" xlink:href="#DejaVuSans-48"/>
       <use x="254.492188" xlink:href="#DejaVuSans-45"/>
       <use x="290.576172" xlink:href="#DejaVuSans-48"/>
       <use x="354.199219" xlink:href="#DejaVuSans-53"/>
      </g>
     </g>
    </g>
    <g id="xtick_5">
     <g id="line2d_9">
      <path clip-path="url(#p06f70bee83)" d="M 266.656126 313.2 
L 266.656126 28.8 
" style="fill:none;stroke:#808080;stroke-dasharray:6.4,1.6,1,1.6;stroke-dashoffset:0;stroke-opacity:0.3;"/>
     </g>
     <g id="line2d_10">
      <g>
       <use style="stroke:#000000;stroke-width:0.8;" x="266.656126" xlink:href="#m411ec7daf0" y="313.2"/>
      </g>
     </g>
     <g id="text_5">
      <!-- 2020-06 -->
      <g transform="translate(245.76472 327.798437)scale(0.1 -0.1)">
       <defs>
        <path d="M 33.015625 40.375 
Q 26.375 40.375 22.484375 35.828125 
Q 18.609375 31.296875 18.609375 23.390625 
Q 18.609375 15.53125 22.484375 10.953125 
Q 26.375 6.390625 33.015625 6.390625 
Q 39.65625 6.390625 43.53125 10.953125 
Q 47.40625 15.53125 47.40625 23.390625 
Q 47.40625 31.296875 43.53125 35.828125 
Q 39.65625 40.375 33.015625 40.375 
z
M 52.59375 71.296875 
L 52.59375 62.3125 
Q 48.875 64.0625 45.09375 64.984375 
Q 41.3125 65.921875 37.59375 65.921875 
Q 27.828125 65.921875 22.671875 59.328125 
Q 17.53125 52.734375 16.796875 39.40625 
Q 19.671875 43.65625 24.015625 45.921875 
Q 28.375 48.1875 33.59375 48.1875 
Q 44.578125 48.1875 50.953125 41.515625 
Q 57.328125 34.859375 57.328125 23.390625 
Q 57.328125 12.15625 50.6875 5.359375 
Q 44.046875 -1.421875 33.015625 -1.421875 
Q 20.359375 -1.421875 13.671875 8.265625 
Q 6.984375 17.96875 6.984375 36.375 
Q 6.984375 53.65625 15.1875 63.9375 
Q 23.390625 74.21875 37.203125 74.21875 
Q 40.921875 74.21875 44.703125 73.484375 
Q 48.484375 72.75 52.59375 71.296875 
z
" id="DejaVuSans-54"/>
       </defs>
       <use xlink:href="#DejaVuSans-50"/>
       <use x="63.623047" xlink:href="#DejaVuSans-48"/>
       <use x="127.246094" xlink:href="#DejaVuSans-50"/>
       <use x="190.869141" xlink:href="#DejaVuSans-48"/>
       <use x="254.492188" xlink:href="#DejaVuSans-45"/>
       <use x="290.576172" xlink:href="#DejaVuSans-48"/>
       <use x="354.199219" xlink:href="#DejaVuSans-54"/>
      </g>
     </g>
    </g>
    <g id="xtick_6">
     <g id="line2d_11">
      <path clip-path="url(#p06f70bee83)" d="M 316.661773 313.2 
L 316.661773 28.8 
" style="fill:none;stroke:#808080;stroke-dasharray:6.4,1.6,1,1.6;stroke-dashoffset:0;stroke-opacity:0.3;"/>
     </g>
     <g id="line2d_12">
      <g>
       <use style="stroke:#000000;stroke-width:0.8;" x="316.661773" xlink:href="#m411ec7daf0" y="313.2"/>
      </g>
     </g>
     <g id="text_6">
      <!-- 2020-07 -->
      <g transform="translate(295.770367 327.798437)scale(0.1 -0.1)">
       <defs>
        <path d="M 8.203125 72.90625 
L 55.078125 72.90625 
L 55.078125 68.703125 
L 28.609375 0 
L 18.3125 0 
L 43.21875 64.59375 
L 8.203125 64.59375 
z
" id="DejaVuSans-55"/>
       </defs>
       <use xlink:href="#DejaVuSans-50"/>
       <use x="63.623047" xlink:href="#DejaVuSans-48"/>
       <use x="127.246094" xlink:href="#DejaVuSans-50"/>
       <use x="190.869141" xlink:href="#DejaVuSans-48"/>
       <use x="254.492188" xlink:href="#DejaVuSans-45"/>
       <use x="290.576172" xlink:href="#DejaVuSans-48"/>
       <use x="354.199219" xlink:href="#DejaVuSans-55"/>
      </g>
     </g>
    </g>
    <g id="xtick_7">
     <g id="line2d_13">
      <path clip-path="url(#p06f70bee83)" d="M 368.334274 313.2 
L 368.334274 28.8 
" style="fill:none;stroke:#808080;stroke-dasharray:6.4,1.6,1,1.6;stroke-dashoffset:0;stroke-opacity:0.3;"/>
     </g>
     <g id="line2d_14">
      <g>
       <use style="stroke:#000000;stroke-width:0.8;" x="368.334274" xlink:href="#m411ec7daf0" y="313.2"/>
      </g>
     </g>
     <g id="text_7">
      <!-- 2020-08 -->
      <g transform="translate(347.442868 327.798437)scale(0.1 -0.1)">
       <defs>
        <path d="M 31.78125 34.625 
Q 24.75 34.625 20.71875 30.859375 
Q 16.703125 27.09375 16.703125 20.515625 
Q 16.703125 13.921875 20.71875 10.15625 
Q 24.75 6.390625 31.78125 6.390625 
Q 38.8125 6.390625 42.859375 10.171875 
Q 46.921875 13.96875 46.921875 20.515625 
Q 46.921875 27.09375 42.890625 30.859375 
Q 38.875 34.625 31.78125 34.625 
z
M 21.921875 38.8125 
Q 15.578125 40.375 12.03125 44.71875 
Q 8.5 49.078125 8.5 55.328125 
Q 8.5 64.0625 14.71875 69.140625 
Q 20.953125 74.21875 31.78125 74.21875 
Q 42.671875 74.21875 48.875 69.140625 
Q 55.078125 64.0625 55.078125 55.328125 
Q 55.078125 49.078125 51.53125 44.71875 
Q 48 40.375 41.703125 38.8125 
Q 48.828125 37.15625 52.796875 32.3125 
Q 56.78125 27.484375 56.78125 20.515625 
Q 56.78125 9.90625 50.3125 4.234375 
Q 43.84375 -1.421875 31.78125 -1.421875 
Q 19.734375 -1.421875 13.25 4.234375 
Q 6.78125 9.90625 6.78125 20.515625 
Q 6.78125 27.484375 10.78125 32.3125 
Q 14.796875 37.15625 21.921875 38.8125 
z
M 18.3125 54.390625 
Q 18.3125 48.734375 21.84375 45.5625 
Q 25.390625 42.390625 31.78125 42.390625 
Q 38.140625 42.390625 41.71875 45.5625 
Q 45.3125 48.734375 45.3125 54.390625 
Q 45.3125 60.0625 41.71875 63.234375 
Q 38.140625 66.40625 31.78125 66.40625 
Q 25.390625 66.40625 21.84375 63.234375 
Q 18.3125 60.0625 18.3125 54.390625 
z
" id="DejaVuSans-56"/>
       </defs>
       <use xlink:href="#DejaVuSans-50"/>
       <use x="63.623047" xlink:href="#DejaVuSans-48"/>
       <use x="127.246094" xlink:href="#DejaVuSans-50"/>
       <use x="190.869141" xlink:href="#DejaVuSans-48"/>
       <use x="254.492188" xlink:href="#DejaVuSans-45"/>
       <use x="290.576172" xlink:href="#DejaVuSans-48"/>
       <use x="354.199219" xlink:href="#DejaVuSans-56"/>
      </g>
     </g>
    </g>
    <g id="xtick_8">
     <g id="line2d_15">
      <path clip-path="url(#p06f70bee83)" d="M 420.006776 313.2 
L 420.006776 28.8 
" style="fill:none;stroke:#808080;stroke-dasharray:6.4,1.6,1,1.6;stroke-dashoffset:0;stroke-opacity:0.3;"/>
     </g>
     <g id="line2d_16">
      <g>
       <use style="stroke:#000000;stroke-width:0.8;" x="420.006776" xlink:href="#m411ec7daf0" y="313.2"/>
      </g>
     </g>
     <g id="text_8">
      <!-- 2020-09 -->
      <g transform="translate(399.11537 327.798437)scale(0.1 -0.1)">
       <defs>
        <path d="M 10.984375 1.515625 
L 10.984375 10.5 
Q 14.703125 8.734375 18.5 7.8125 
Q 22.3125 6.890625 25.984375 6.890625 
Q 35.75 6.890625 40.890625 13.453125 
Q 46.046875 20.015625 46.78125 33.40625 
Q 43.953125 29.203125 39.59375 26.953125 
Q 35.25 24.703125 29.984375 24.703125 
Q 19.046875 24.703125 12.671875 31.3125 
Q 6.296875 37.9375 6.296875 49.421875 
Q 6.296875 60.640625 12.9375 67.421875 
Q 19.578125 74.21875 30.609375 74.21875 
Q 43.265625 74.21875 49.921875 64.515625 
Q 56.59375 54.828125 56.59375 36.375 
Q 56.59375 19.140625 48.40625 8.859375 
Q 40.234375 -1.421875 26.421875 -1.421875 
Q 22.703125 -1.421875 18.890625 -0.6875 
Q 15.09375 0.046875 10.984375 1.515625 
z
M 30.609375 32.421875 
Q 37.25 32.421875 41.125 36.953125 
Q 45.015625 41.5 45.015625 49.421875 
Q 45.015625 57.28125 41.125 61.84375 
Q 37.25 66.40625 30.609375 66.40625 
Q 23.96875 66.40625 20.09375 61.84375 
Q 16.21875 57.28125 16.21875 49.421875 
Q 16.21875 41.5 20.09375 36.953125 
Q 23.96875 32.421875 30.609375 32.421875 
z
" id="DejaVuSans-57"/>
       </defs>
       <use xlink:href="#DejaVuSans-50"/>
       <use x="63.623047" xlink:href="#DejaVuSans-48"/>
       <use x="127.246094" xlink:href="#DejaVuSans-50"/>
       <use x="190.869141" xlink:href="#DejaVuSans-48"/>
       <use x="254.492188" xlink:href="#DejaVuSans-45"/>
       <use x="290.576172" xlink:href="#DejaVuSans-48"/>
       <use x="354.199219" xlink:href="#DejaVuSans-57"/>
      </g>
     </g>
    </g>
    <g id="xtick_9">
     <g id="line2d_17">
      <path clip-path="url(#p06f70bee83)" d="M 470.012422 313.2 
L 470.012422 28.8 
" style="fill:none;stroke:#808080;stroke-dasharray:6.4,1.6,1,1.6;stroke-dashoffset:0;stroke-opacity:0.3;"/>
     </g>
     <g id="line2d_18">
      <g>
       <use style="stroke:#000000;stroke-width:0.8;" x="470.012422" xlink:href="#m411ec7daf0" y="313.2"/>
      </g>
     </g>
     <g id="text_9">
      <!-- 2020-10 -->
      <g transform="translate(449.121016 327.798437)scale(0.1 -0.1)">
       <defs>
        <path d="M 12.40625 8.296875 
L 28.515625 8.296875 
L 28.515625 63.921875 
L 10.984375 60.40625 
L 10.984375 69.390625 
L 28.421875 72.90625 
L 38.28125 72.90625 
L 38.28125 8.296875 
L 54.390625 8.296875 
L 54.390625 0 
L 12.40625 0 
z
" id="DejaVuSans-49"/>
       </defs>
       <use xlink:href="#DejaVuSans-50"/>
       <use x="63.623047" xlink:href="#DejaVuSans-48"/>
       <use x="127.246094" xlink:href="#DejaVuSans-50"/>
       <use x="190.869141" xlink:href="#DejaVuSans-48"/>
       <use x="254.492188" xlink:href="#DejaVuSans-45"/>
       <use x="290.576172" xlink:href="#DejaVuSans-49"/>
       <use x="354.199219" xlink:href="#DejaVuSans-48"/>
      </g>
     </g>
    </g>
    <g id="xtick_10">
     <g id="line2d_19">
      <path clip-path="url(#p06f70bee83)" d="M 521.684924 313.2 
L 521.684924 28.8 
" style="fill:none;stroke:#808080;stroke-dasharray:6.4,1.6,1,1.6;stroke-dashoffset:0;stroke-opacity:0.3;"/>
     </g>
     <g id="line2d_20">
      <g>
       <use style="stroke:#000000;stroke-width:0.8;" x="521.684924" xlink:href="#m411ec7daf0" y="313.2"/>
      </g>
     </g>
     <g id="text_10">
      <!-- 2020-11 -->
      <g transform="translate(500.793518 327.798437)scale(0.1 -0.1)">
       <use xlink:href="#DejaVuSans-50"/>
       <use x="63.623047" xlink:href="#DejaVuSans-48"/>
       <use x="127.246094" xlink:href="#DejaVuSans-50"/>
       <use x="190.869141" xlink:href="#DejaVuSans-48"/>
       <use x="254.492188" xlink:href="#DejaVuSans-45"/>
       <use x="290.576172" xlink:href="#DejaVuSans-49"/>
       <use x="354.199219" xlink:href="#DejaVuSans-49"/>
      </g>
     </g>
    </g>
    <g id="xtick_11">
     <g id="line2d_21">
      <path clip-path="url(#p06f70bee83)" d="M 571.69057 313.2 
L 571.69057 28.8 
" style="fill:none;stroke:#808080;stroke-dasharray:6.4,1.6,1,1.6;stroke-dashoffset:0;stroke-opacity:0.3;"/>
     </g>
     <g id="line2d_22">
      <g>
       <use style="stroke:#000000;stroke-width:0.8;" x="571.69057" xlink:href="#m411ec7daf0" y="313.2"/>
      </g>
     </g>
     <g id="text_11">
      <!-- 2020-12 -->
      <g transform="translate(550.799164 327.798437)scale(0.1 -0.1)">
       <use xlink:href="#DejaVuSans-50"/>
       <use x="63.623047" xlink:href="#DejaVuSans-48"/>
       <use x="127.246094" xlink:href="#DejaVuSans-50"/>
       <use x="190.869141" xlink:href="#DejaVuSans-48"/>
       <use x="254.492188" xlink:href="#DejaVuSans-45"/>
       <use x="290.576172" xlink:href="#DejaVuSans-49"/>
       <use x="354.199219" xlink:href="#DejaVuSans-50"/>
      </g>
     </g>
    </g>
    <g id="xtick_12">
     <g id="line2d_23">
      <path clip-path="url(#p06f70bee83)" d="M 623.363072 313.2 
L 623.363072 28.8 
" style="fill:none;stroke:#808080;stroke-dasharray:6.4,1.6,1,1.6;stroke-dashoffset:0;stroke-opacity:0.3;"/>
     </g>
     <g id="line2d_24">
      <g>
       <use style="stroke:#000000;stroke-width:0.8;" x="623.363072" xlink:href="#m411ec7daf0" y="313.2"/>
      </g>
     </g>
     <g id="text_12">
      <!-- 2021-01 -->
      <g transform="translate(602.471665 327.798437)scale(0.1 -0.1)">
       <use xlink:href="#DejaVuSans-50"/>
       <use x="63.623047" xlink:href="#DejaVuSans-48"/>
       <use x="127.246094" xlink:href="#DejaVuSans-50"/>
       <use x="190.869141" xlink:href="#DejaVuSans-49"/>
       <use x="254.492188" xlink:href="#DejaVuSans-45"/>
       <use x="290.576172" xlink:href="#DejaVuSans-48"/>
       <use x="354.199219" xlink:href="#DejaVuSans-49"/>
      </g>
     </g>
    </g>
    <g id="text_13">
     <!-- Datum -->
     <g transform="translate(343.086719 341.476562)scale(0.1 -0.1)">
      <defs>
       <path d="M 19.671875 64.796875 
L 19.671875 8.109375 
L 31.59375 8.109375 
Q 46.6875 8.109375 53.6875 14.9375 
Q 60.6875 21.78125 60.6875 36.53125 
Q 60.6875 51.171875 53.6875 57.984375 
Q 46.6875 64.796875 31.59375 64.796875 
z
M 9.8125 72.90625 
L 30.078125 72.90625 
Q 51.265625 72.90625 61.171875 64.09375 
Q 71.09375 55.28125 71.09375 36.53125 
Q 71.09375 17.671875 61.125 8.828125 
Q 51.171875 0 30.078125 0 
L 9.8125 0 
z
" id="DejaVuSans-68"/>
       <path d="M 34.28125 27.484375 
Q 23.390625 27.484375 19.1875 25 
Q 14.984375 22.515625 14.984375 16.5 
Q 14.984375 11.71875 18.140625 8.90625 
Q 21.296875 6.109375 26.703125 6.109375 
Q 34.1875 6.109375 38.703125 11.40625 
Q 43.21875 16.703125 43.21875 25.484375 
L 43.21875 27.484375 
z
M 52.203125 31.203125 
L 52.203125 0 
L 43.21875 0 
L 43.21875 8.296875 
Q 40.140625 3.328125 35.546875 0.953125 
Q 30.953125 -1.421875 24.3125 -1.421875 
Q 15.921875 -1.421875 10.953125 3.296875 
Q 6 8.015625 6 15.921875 
Q 6 25.140625 12.171875 29.828125 
Q 18.359375 34.515625 30.609375 34.515625 
L 43.21875 34.515625 
L 43.21875 35.40625 
Q 43.21875 41.609375 39.140625 45 
Q 35.0625 48.390625 27.6875 48.390625 
Q 23 48.390625 18.546875 47.265625 
Q 14.109375 46.140625 10.015625 43.890625 
L 10.015625 52.203125 
Q 14.9375 54.109375 19.578125 55.046875 
Q 24.21875 56 28.609375 56 
Q 40.484375 56 46.34375 49.84375 
Q 52.203125 43.703125 52.203125 31.203125 
z
" id="DejaVuSans-97"/>
       <path d="M 18.3125 70.21875 
L 18.3125 54.6875 
L 36.8125 54.6875 
L 36.8125 47.703125 
L 18.3125 47.703125 
L 18.3125 18.015625 
Q 18.3125 11.328125 20.140625 9.421875 
Q 21.96875 7.515625 27.59375 7.515625 
L 36.8125 7.515625 
L 36.8125 0 
L 27.59375 0 
Q 17.1875 0 13.234375 3.875 
Q 9.28125 7.765625 9.28125 18.015625 
L 9.28125 47.703125 
L 2.6875 47.703125 
L 2.6875 54.6875 
L 9.28125 54.6875 
L 9.28125 70.21875 
z
" id="DejaVuSans-116"/>
       <path d="M 8.5 21.578125 
L 8.5 54.6875 
L 17.484375 54.6875 
L 17.484375 21.921875 
Q 17.484375 14.15625 20.5 10.265625 
Q 23.53125 6.390625 29.59375 6.390625 
Q 36.859375 6.390625 41.078125 11.03125 
Q 45.3125 15.671875 45.3125 23.6875 
L 45.3125 54.6875 
L 54.296875 54.6875 
L 54.296875 0 
L 45.3125 0 
L 45.3125 8.40625 
Q 42.046875 3.421875 37.71875 1 
Q 33.40625 -1.421875 27.6875 -1.421875 
Q 18.265625 -1.421875 13.375 4.4375 
Q 8.5 10.296875 8.5 21.578125 
z
M 31.109375 56 
z
" id="DejaVuSans-117"/>
       <path d="M 52 44.1875 
Q 55.375 50.25 60.0625 53.125 
Q 64.75 56 71.09375 56 
Q 79.640625 56 84.28125 50.015625 
Q 88.921875 44.046875 88.921875 33.015625 
L 88.921875 0 
L 79.890625 0 
L 79.890625 32.71875 
Q 79.890625 40.578125 77.09375 44.375 
Q 74.3125 48.1875 68.609375 48.1875 
Q 61.625 48.1875 57.5625 43.546875 
Q 53.515625 38.921875 53.515625 30.90625 
L 53.515625 0 
L 44.484375 0 
L 44.484375 32.71875 
Q 44.484375 40.625 41.703125 44.40625 
Q 38.921875 48.1875 33.109375 48.1875 
Q 26.21875 48.1875 22.15625 43.53125 
Q 18.109375 38.875 18.109375 30.90625 
L 18.109375 0 
L 9.078125 0 
L 9.078125 54.6875 
L 18.109375 54.6875 
L 18.109375 46.1875 
Q 21.1875 51.21875 25.484375 53.609375 
Q 29.78125 56 35.6875 56 
Q 41.65625 56 45.828125 52.96875 
Q 50 49.953125 52 44.1875 
z
" id="DejaVuSans-109"/>
      </defs>
      <use xlink:href="#DejaVuSans-68"/>
      <use x="77.001953" xlink:href="#DejaVuSans-97"/>
      <use x="138.28125" xlink:href="#DejaVuSans-116"/>
      <use x="177.490234" xlink:href="#DejaVuSans-117"/>
      <use x="240.869141" xlink:href="#DejaVuSans-109"/>
     </g>
    </g>
   </g>
   <g id="matplotlib.axis_2">
    <g id="ytick_1">
     <g id="line2d_25">
      <path clip-path="url(#p06f70bee83)" d="M 64.8 313.2 
L 655.2 313.2 
" style="fill:none;stroke:#808080;stroke-dasharray:6.4,1.6,1,1.6;stroke-dashoffset:0;stroke-opacity:0.3;"/>
     </g>
     <g id="line2d_26">
      <defs>
       <path d="M 0 0 
L -3.5 0 
" id="m5b9fa69fbe" style="stroke:#000000;stroke-width:0.8;"/>
      </defs>
      <g>
       <use style="stroke:#000000;stroke-width:0.8;" x="64.8" xlink:href="#m5b9fa69fbe" y="313.2"/>
      </g>
     </g>
     <g id="text_14">
      <!-- 0 -->
      <g transform="translate(51.4375 316.999219)scale(0.1 -0.1)">
       <use xlink:href="#DejaVuSans-48"/>
      </g>
     </g>
    </g>
    <g id="ytick_2">
     <g id="line2d_27">
      <path clip-path="url(#p06f70bee83)" d="M 64.8 277.65 
L 655.2 277.65 
" style="fill:none;stroke:#808080;stroke-dasharray:6.4,1.6,1,1.6;stroke-dashoffset:0;stroke-opacity:0.3;"/>
     </g>
     <g id="line2d_28">
      <g>
       <use style="stroke:#000000;stroke-width:0.8;" x="64.8" xlink:href="#m5b9fa69fbe" y="277.65"/>
      </g>
     </g>
     <g id="text_15">
      <!-- 50000 -->
      <g transform="translate(25.9875 281.449219)scale(0.1 -0.1)">
       <use xlink:href="#DejaVuSans-53"/>
       <use x="63.623047" xlink:href="#DejaVuSans-48"/>
       <use x="127.246094" xlink:href="#DejaVuSans-48"/>
       <use x="190.869141" xlink:href="#DejaVuSans-48"/>
       <use x="254.492188" xlink:href="#DejaVuSans-48"/>
      </g>
     </g>
    </g>
    <g id="ytick_3">
     <g id="line2d_29">
      <path clip-path="url(#p06f70bee83)" d="M 64.8 242.1 
L 655.2 242.1 
" style="fill:none;stroke:#808080;stroke-dasharray:6.4,1.6,1,1.6;stroke-dashoffset:0;stroke-opacity:0.3;"/>
     </g>
     <g id="line2d_30">
      <g>
       <use style="stroke:#000000;stroke-width:0.8;" x="64.8" xlink:href="#m5b9fa69fbe" y="242.1"/>
      </g>
     </g>
     <g id="text_16">
      <!-- 100000 -->
      <g transform="translate(19.625 245.899219)scale(0.1 -0.1)">
       <use xlink:href="#DejaVuSans-49"/>
       <use x="63.623047" xlink:href="#DejaVuSans-48"/>
       <use x="127.246094" xlink:href="#DejaVuSans-48"/>
       <use x="190.869141" xlink:href="#DejaVuSans-48"/>
       <use x="254.492188" xlink:href="#DejaVuSans-48"/>
       <use x="318.115234" xlink:href="#DejaVuSans-48"/>
      </g>
     </g>
    </g>
    <g id="ytick_4">
     <g id="line2d_31">
      <path clip-path="url(#p06f70bee83)" d="M 64.8 206.55 
L 655.2 206.55 
" style="fill:none;stroke:#808080;stroke-dasharray:6.4,1.6,1,1.6;stroke-dashoffset:0;stroke-opacity:0.3;"/>
     </g>
     <g id="line2d_32">
      <g>
       <use style="stroke:#000000;stroke-width:0.8;" x="64.8" xlink:href="#m5b9fa69fbe" y="206.55"/>
      </g>
     </g>
     <g id="text_17">
      <!-- 150000 -->
      <g transform="translate(19.625 210.349219)scale(0.1 -0.1)">
       <use xlink:href="#DejaVuSans-49"/>
       <use x="63.623047" xlink:href="#DejaVuSans-53"/>
       <use x="127.246094" xlink:href="#DejaVuSans-48"/>
       <use x="190.869141" xlink:href="#DejaVuSans-48"/>
       <use x="254.492188" xlink:href="#DejaVuSans-48"/>
       <use x="318.115234" xlink:href="#DejaVuSans-48"/>
      </g>
     </g>
    </g>
    <g id="ytick_5">
     <g id="line2d_33">
      <path clip-path="url(#p06f70bee83)" d="M 64.8 171 
L 655.2 171 
" style="fill:none;stroke:#808080;stroke-dasharray:6.4,1.6,1,1.6;stroke-dashoffset:0;stroke-opacity:0.3;"/>
     </g>
     <g id="line2d_34">
      <g>
       <use style="stroke:#000000;stroke-width:0.8;" x="64.8" xlink:href="#m5b9fa69fbe" y="171"/>
      </g>
     </g>
     <g id="text_18">
      <!-- 200000 -->
      <g transform="translate(19.625 174.799219)scale(0.1 -0.1)">
       <use xlink:href="#DejaVuSans-50"/>
       <use x="63.623047" xlink:href="#DejaVuSans-48"/>
       <use x="127.246094" xlink:href="#DejaVuSans-48"/>
       <use x="190.869141" xlink:href="#DejaVuSans-48"/>
       <use x="254.492188" xlink:href="#DejaVuSans-48"/>
       <use x="318.115234" xlink:href="#DejaVuSans-48"/>
      </g>
     </g>
    </g>
    <g id="ytick_6">
     <g id="line2d_35">
      <path clip-path="url(#p06f70bee83)" d="M 64.8 135.45 
L 655.2 135.45 
" style="fill:none;stroke:#808080;stroke-dasharray:6.4,1.6,1,1.6;stroke-dashoffset:0;stroke-opacity:0.3;"/>
     </g>
     <g id="line2d_36">
      <g>
       <use style="stroke:#000000;stroke-width:0.8;" x="64.8" xlink:href="#m5b9fa69fbe" y="135.45"/>
      </g>
     </g>
     <g id="text_19">
      <!-- 250000 -->
      <g transform="translate(19.625 139.249219)scale(0.1 -0.1)">
       <use xlink:href="#DejaVuSans-50"/>
       <use x="63.623047" xlink:href="#DejaVuSans-53"/>
       <use x="127.246094" xlink:href="#DejaVuSans-48"/>
       <use x="190.869141" xlink:href="#DejaVuSans-48"/>
       <use x="254.492188" xlink:href="#DejaVuSans-48"/>
       <use x="318.115234" xlink:href="#DejaVuSans-48"/>
      </g>
     </g>
    </g>
    <g id="ytick_7">
     <g id="line2d_37">
      <path clip-path="url(#p06f70bee83)" d="M 64.8 99.9 
L 655.2 99.9 
" style="fill:none;stroke:#808080;stroke-dasharray:6.4,1.6,1,1.6;stroke-dashoffset:0;stroke-opacity:0.3;"/>
     </g>
     <g id="line2d_38">
      <g>
       <use style="stroke:#000000;stroke-width:0.8;" x="64.8" xlink:href="#m5b9fa69fbe" y="99.9"/>
      </g>
     </g>
     <g id="text_20">
      <!-- 300000 -->
      <g transform="translate(19.625 103.699219)scale(0.1 -0.1)">
       <use xlink:href="#DejaVuSans-51"/>
       <use x="63.623047" xlink:href="#DejaVuSans-48"/>
       <use x="127.246094" xlink:href="#DejaVuSans-48"/>
       <use x="190.869141" xlink:href="#DejaVuSans-48"/>
       <use x="254.492188" xlink:href="#DejaVuSans-48"/>
       <use x="318.115234" xlink:href="#DejaVuSans-48"/>
      </g>
     </g>
    </g>
    <g id="ytick_8">
     <g id="line2d_39">
      <path clip-path="url(#p06f70bee83)" d="M 64.8 64.35 
L 655.2 64.35 
" style="fill:none;stroke:#808080;stroke-dasharray:6.4,1.6,1,1.6;stroke-dashoffset:0;stroke-opacity:0.3;"/>
     </g>
     <g id="line2d_40">
      <g>
       <use style="stroke:#000000;stroke-width:0.8;" x="64.8" xlink:href="#m5b9fa69fbe" y="64.35"/>
      </g>
     </g>
     <g id="text_21">
      <!-- 350000 -->
      <g transform="translate(19.625 68.149219)scale(0.1 -0.1)">
       <use xlink:href="#DejaVuSans-51"/>
       <use x="63.623047" xlink:href="#DejaVuSans-53"/>
       <use x="127.246094" xlink:href="#DejaVuSans-48"/>
       <use x="190.869141" xlink:href="#DejaVuSans-48"/>
       <use x="254.492188" xlink:href="#DejaVuSans-48"/>
       <use x="318.115234" xlink:href="#DejaVuSans-48"/>
      </g>
     </g>
    </g>
    <g id="ytick_9">
     <g id="line2d_41">
      <path clip-path="url(#p06f70bee83)" d="M 64.8 28.8 
L 655.2 28.8 
" style="fill:none;stroke:#808080;stroke-dasharray:6.4,1.6,1,1.6;stroke-dashoffset:0;stroke-opacity:0.3;"/>
     </g>
     <g id="line2d_42">
      <g>
       <use style="stroke:#000000;stroke-width:0.8;" x="64.8" xlink:href="#m5b9fa69fbe" y="28.8"/>
      </g>
     </g>
     <g id="text_22">
      <!-- 400000 -->
      <g transform="translate(19.625 32.599219)scale(0.1 -0.1)">
       <use xlink:href="#DejaVuSans-52"/>
       <use x="63.623047" xlink:href="#DejaVuSans-48"/>
       <use x="127.246094" xlink:href="#DejaVuSans-48"/>
       <use x="190.869141" xlink:href="#DejaVuSans-48"/>
       <use x="254.492188" xlink:href="#DejaVuSans-48"/>
       <use x="318.115234" xlink:href="#DejaVuSans-48"/>
      </g>
     </g>
    </g>
   </g>
   <g id="line2d_43">
    <path clip-path="url(#p06f70bee83)" d="M 91.636364 312.508908 
L 96.636928 312.151986 
L 101.637493 311.490756 
L 103.304348 311.089041 
L 104.971203 310.521663 
L 106.638058 309.82275 
L 108.304912 308.924046 
L 109.971767 307.767249 
L 111.638622 306.355914 
L 113.305477 304.690041 
L 114.972332 302.70564 
L 116.639187 300.389202 
L 118.306042 297.781254 
L 119.972897 294.743151 
L 121.639752 291.431313 
L 123.306606 287.341641 
L 124.973461 282.319137 
L 126.640316 277.82064 
L 128.307171 274.087179 
L 133.307736 261.232299 
L 134.974591 255.370104 
L 138.3083 242.133417 
L 146.642575 202.425489 
L 148.30943 196.581069 
L 149.976285 192.579561 
L 151.643139 190.547523 
L 153.309994 190.070442 
L 154.976849 191.994408 
L 156.643704 194.785083 
L 158.310559 198.222768 
L 161.644269 208.068696 
L 166.644833 223.513038 
L 168.311688 227.973852 
L 171.645398 236.293263 
L 174.979108 244.751319 
L 179.979673 255.469644 
L 184.980237 264.46095 
L 186.647092 267.251625 
L 188.313947 269.652672 
L 191.647657 274.757652 
L 196.648221 280.956861 
L 198.315076 282.844566 
L 201.648786 286.168491 
L 203.315641 287.61822 
L 204.982496 288.802746 
L 208.316206 290.907306 
L 211.649915 292.942188 
L 213.31677 293.749173 
L 216.65048 295.026129 
L 218.317335 295.486857 
L 219.98419 295.616259 
L 224.984754 296.476569 
L 228.318464 297.034704 
L 238.319593 300.222117 
L 239.986448 300.648717 
L 244.987013 302.439015 
L 246.653868 302.913252 
L 251.654433 304.594056 
L 254.988142 305.617896 
L 256.654997 306.123417 
L 271.656691 309.473649 
L 273.323546 309.715389 
L 278.324111 309.996945 
L 283.324675 310.052403 
L 288.32524 310.111416 
L 293.325805 310.055247 
L 299.993224 309.882474 
L 324.996047 310.786155 
L 331.663467 310.574988 
L 336.664032 310.397238 
L 339.997741 310.323294 
L 344.998306 309.592386 
L 346.665161 309.285945 
L 348.332016 309.177162 
L 356.66629 307.961352 
L 360 307.397529 
L 363.33371 306.486027 
L 378.335404 305.034165 
L 385.002823 304.122663 
L 390.003388 303.923583 
L 391.670243 303.900831 
L 396.670807 304.417017 
L 403.338227 305.480673 
L 405.005082 305.533287 
L 408.338792 305.370468 
L 410.005647 305.076825 
L 413.339356 304.116264 
L 415.006211 303.401709 
L 418.339921 301.259466 
L 420.006776 300.001707 
L 423.340486 296.599572 
L 425.00734 294.507099 
L 426.674195 292.201326 
L 430.007905 288.164268 
L 431.67476 285.746157 
L 435.00847 280.142055 
L 436.675325 277.02432 
L 438.34218 273.334941 
L 441.675889 266.711265 
L 443.342744 262.922346 
L 445.009599 259.484661 
L 446.676454 256.725981 
L 448.343309 254.322801 
L 450.010164 251.670771 
L 453.343874 246.102219 
L 456.677583 242.405019 
L 461.678148 237.049056 
L 463.345003 235.57302 
L 465.011858 233.808318 
L 466.678713 232.3593 
L 468.345567 230.353569 
L 470.012422 227.768373 
L 475.012987 217.95444 
L 476.679842 215.360001 
L 480.013552 210.964599 
L 481.680407 209.474343 
L 483.347261 207.605124 
L 485.014116 205.449372 
L 486.680971 203.956983 
L 490.014681 202.792365 
L 491.681536 201.716622 
L 493.348391 201.178395 
L 495.015246 201.393117 
L 498.348955 202.494456 
L 500.01581 203.10876 
L 503.34952 204.01884 
L 506.68323 205.167816 
L 508.350085 205.767189 
L 510.01694 206.515872 
L 511.683794 207.402489 
L 515.017504 209.715372 
L 518.351214 212.963931 
L 520.018069 214.057449 
L 523.351779 217.79091 
L 528.352343 224.19702 
L 530.019198 226.131651 
L 531.686053 227.313333 
L 535.019763 230.336505 
L 536.686618 231.713001 
L 538.353473 232.781634 
L 540.020327 234.121869 
L 541.687182 234.756792 
L 543.354037 234.955872 
L 546.687747 236.140398 
L 548.354602 236.970135 
L 550.021457 237.354075 
L 551.688312 238.081428 
L 553.355167 238.527936 
L 555.022021 238.771098 
L 556.688876 239.297949 
L 558.355731 239.941404 
L 560.022586 240.34383 
L 561.689441 240.589125 
L 563.356296 241.122375 
L 565.023151 241.482141 
L 566.690006 241.637139 
L 568.356861 241.544709 
L 570.023715 241.290882 
L 575.02428 238.525092 
L 576.691135 237.351942 
L 581.6917 232.964361 
L 583.358554 230.893929 
L 586.692264 226.077615 
L 588.359119 222.738759 
L 590.025974 218.728719 
L 591.692829 215.185095 
L 593.359684 211.300902 
L 596.693394 204.82938 
L 601.693958 196.782282 
L 603.360813 194.971365 
L 605.027668 192.900933 
L 606.694523 191.766888 
L 608.361378 191.035269 
L 610.028233 190.888092 
L 610.028233 190.888092 
" style="fill:none;stroke:#ff0000;stroke-linecap:square;stroke-width:1.5;"/>
   </g>
   <g id="line2d_44">
    <path clip-path="url(#p06f70bee83)" d="M 264.989272 310.757871 
L 299.993224 312.443763 
L 306.660644 312.65061 
L 321.662338 312.770181 
L 328.329757 312.649372 
L 333.330322 312.231605 
L 338.330887 311.599193 
L 341.664596 310.901757 
L 349.998871 308.851114 
L 354.999435 307.097324 
L 360 305.591405 
L 365.000565 304.697596 
L 370.001129 303.487589 
L 371.667984 303.394586 
L 376.668549 304.081311 
L 381.669113 304.3958 
L 385.002823 304.428428 
L 388.336533 304.938289 
L 391.670243 305.670464 
L 393.337098 305.882923 
L 398.337662 306.207847 
L 406.671937 307.380185 
L 408.338792 307.212806 
L 410.005647 306.905166 
L 411.672501 306.428287 
L 415.006211 304.952652 
L 418.339921 303.192945 
L 420.006776 302.213531 
L 423.340486 299.202962 
L 426.674195 295.016422 
L 428.34105 292.737292 
L 430.007905 291.084759 
L 433.341615 288.315697 
L 435.00847 286.561378 
L 438.34218 282.551746 
L 443.342744 276.322324 
L 445.009599 273.982795 
L 448.343309 269.971318 
L 450.010164 267.569872 
L 451.677019 264.174323 
L 453.343874 260.360809 
L 456.677583 246.91237 
L 458.344438 238.896767 
L 460.011293 230.023235 
L 463.345003 210.096707 
L 466.678713 189.298089 
L 471.679277 156.82197 
L 475.012987 137.256217 
L 476.679842 133.354103 
L 478.346697 129.015574 
L 480.013552 127.32053 
L 481.680407 126.868973 
L 483.347261 122.734761 
L 485.014116 119.589209 
L 486.680971 117.396731 
L 490.014681 116.029589 
L 491.681536 115.078201 
L 493.348391 112.199152 
L 495.015246 108.890663 
L 496.682101 106.497875 
L 498.348955 101.48897 
L 500.01581 98.608833 
L 501.682665 94.739131 
L 503.34952 91.188054 
L 506.68323 103.452999 
L 508.350085 108.909538 
L 510.01694 113.546532 
L 511.683794 120.054357 
L 513.350649 127.563835 
L 518.351214 160.752862 
L 520.018069 170.391492 
L 521.684924 178.549302 
L 523.351779 187.529662 
L 525.018634 194.684718 
L 526.685488 195.988863 
L 528.352343 197.144342 
L 530.019198 198.804952 
L 531.686053 200.696375 
L 535.019763 201.822437 
L 536.686618 200.809028 
L 538.353473 199.589518 
L 540.020327 200.766692 
L 541.687182 202.473345 
L 543.354037 204.753609 
L 545.020892 206.328027 
L 546.687747 210.868807 
L 550.021457 222.096204 
L 551.688312 226.995449 
L 553.355167 231.073699 
L 555.022021 234.759464 
L 558.355731 241.711073 
L 560.022586 245.210453 
L 563.356296 249.94868 
L 565.023151 251.621848 
L 566.690006 253.051726 
L 568.356861 252.883904 
L 570.023715 252.099489 
L 571.69057 251.875103 
L 573.357425 251.078068 
L 575.02428 250.788035 
L 576.691135 250.77729 
L 578.35799 250.105528 
L 581.6917 247.758086 
L 583.358554 246.366576 
L 586.692264 241.46874 
L 590.025974 235.748226 
L 593.359684 230.701961 
L 595.026539 228.90285 
L 596.693394 227.63573 
L 598.360248 226.72929 
L 600.027103 227.072153 
L 601.693958 227.741904 
L 603.360813 228.535237 
L 605.027668 229.800257 
L 606.694523 232.947576 
L 608.361378 236.706444 
L 611.695088 246.32038 
L 615.028797 256.463381 
L 628.363636 299.883953 
L 628.363636 299.883953 
" style="fill:none;stroke:#0000ff;stroke-linecap:square;stroke-width:1.5;"/>
   </g>
   <g id="patch_3">
    <path d="M 64.8 313.2 
L 64.8 28.8 
" style="fill:none;stroke:#000000;stroke-linecap:square;stroke-linejoin:miter;stroke-width:0.8;"/>
   </g>
   <g id="patch_4">
    <path d="M 655.2 313.2 
L 655.2 28.8 
" style="fill:none;stroke:#000000;stroke-linecap:square;stroke-linejoin:miter;stroke-width:0.8;"/>
   </g>
   <g id="patch_5">
    <path d="M 64.8 313.2 
L 655.2 313.2 
" style="fill:none;stroke:#000000;stroke-linecap:square;stroke-linejoin:miter;stroke-width:0.8;"/>
   </g>
   <g id="patch_6">
    <path d="M 64.8 28.8 
L 655.2 28.8 
" style="fill:none;stroke:#000000;stroke-linecap:square;stroke-linejoin:miter;stroke-width:0.8;"/>
   </g>
   <g id="legend_1">
    <g id="patch_7">
     <path d="M 71.8 66.15625 
L 312.826563 66.15625 
Q 314.826563 66.15625 314.826563 64.15625 
L 314.826563 35.8 
Q 314.826563 33.8 312.826563 33.8 
L 71.8 33.8 
Q 69.8 33.8 69.8 35.8 
L 69.8 64.15625 
Q 69.8 66.15625 71.8 66.15625 
z
" style="fill:#ffffff;opacity:0.8;stroke:#cccccc;stroke-linejoin:miter;"/>
    </g>
    <g id="line2d_45">
     <path d="M 73.8 41.898438 
L 93.8 41.898438 
" style="fill:none;stroke:#ff0000;stroke-linecap:square;stroke-width:1.5;"/>
    </g>
    <g id="line2d_46"/>
    <g id="text_23">
     <!-- Schatting zieken RIVM -->
     <g transform="translate(101.8 45.398438)scale(0.1 -0.1)">
      <defs>
       <path d="M 53.515625 70.515625 
L 53.515625 60.890625 
Q 47.90625 63.578125 42.921875 64.890625 
Q 37.9375 66.21875 33.296875 66.21875 
Q 25.25 66.21875 20.875 63.09375 
Q 16.5 59.96875 16.5 54.203125 
Q 16.5 49.359375 19.40625 46.890625 
Q 22.3125 44.4375 30.421875 42.921875 
L 36.375 41.703125 
Q 47.40625 39.59375 52.65625 34.296875 
Q 57.90625 29 57.90625 20.125 
Q 57.90625 9.515625 50.796875 4.046875 
Q 43.703125 -1.421875 29.984375 -1.421875 
Q 24.8125 -1.421875 18.96875 -0.25 
Q 13.140625 0.921875 6.890625 3.21875 
L 6.890625 13.375 
Q 12.890625 10.015625 18.65625 8.296875 
Q 24.421875 6.59375 29.984375 6.59375 
Q 38.421875 6.59375 43.015625 9.90625 
Q 47.609375 13.234375 47.609375 19.390625 
Q 47.609375 24.75 44.3125 27.78125 
Q 41.015625 30.8125 33.5 32.328125 
L 27.484375 33.5 
Q 16.453125 35.6875 11.515625 40.375 
Q 6.59375 45.0625 6.59375 53.421875 
Q 6.59375 63.09375 13.40625 68.65625 
Q 20.21875 74.21875 32.171875 74.21875 
Q 37.3125 74.21875 42.625 73.28125 
Q 47.953125 72.359375 53.515625 70.515625 
z
" id="DejaVuSans-83"/>
       <path d="M 48.78125 52.59375 
L 48.78125 44.1875 
Q 44.96875 46.296875 41.140625 47.34375 
Q 37.3125 48.390625 33.40625 48.390625 
Q 24.65625 48.390625 19.8125 42.84375 
Q 14.984375 37.3125 14.984375 27.296875 
Q 14.984375 17.28125 19.8125 11.734375 
Q 24.65625 6.203125 33.40625 6.203125 
Q 37.3125 6.203125 41.140625 7.25 
Q 44.96875 8.296875 48.78125 10.40625 
L 48.78125 2.09375 
Q 45.015625 0.34375 40.984375 -0.53125 
Q 36.96875 -1.421875 32.421875 -1.421875 
Q 20.0625 -1.421875 12.78125 6.34375 
Q 5.515625 14.109375 5.515625 27.296875 
Q 5.515625 40.671875 12.859375 48.328125 
Q 20.21875 56 33.015625 56 
Q 37.15625 56 41.109375 55.140625 
Q 45.0625 54.296875 48.78125 52.59375 
z
" id="DejaVuSans-99"/>
       <path d="M 54.890625 33.015625 
L 54.890625 0 
L 45.90625 0 
L 45.90625 32.71875 
Q 45.90625 40.484375 42.875 44.328125 
Q 39.84375 48.1875 33.796875 48.1875 
Q 26.515625 48.1875 22.3125 43.546875 
Q 18.109375 38.921875 18.109375 30.90625 
L 18.109375 0 
L 9.078125 0 
L 9.078125 75.984375 
L 18.109375 75.984375 
L 18.109375 46.1875 
Q 21.34375 51.125 25.703125 53.5625 
Q 30.078125 56 35.796875 56 
Q 45.21875 56 50.046875 50.171875 
Q 54.890625 44.34375 54.890625 33.015625 
z
" id="DejaVuSans-104"/>
       <path d="M 9.421875 54.6875 
L 18.40625 54.6875 
L 18.40625 0 
L 9.421875 0 
z
M 9.421875 75.984375 
L 18.40625 75.984375 
L 18.40625 64.59375 
L 9.421875 64.59375 
z
" id="DejaVuSans-105"/>
       <path d="M 54.890625 33.015625 
L 54.890625 0 
L 45.90625 0 
L 45.90625 32.71875 
Q 45.90625 40.484375 42.875 44.328125 
Q 39.84375 48.1875 33.796875 48.1875 
Q 26.515625 48.1875 22.3125 43.546875 
Q 18.109375 38.921875 18.109375 30.90625 
L 18.109375 0 
L 9.078125 0 
L 9.078125 54.6875 
L 18.109375 54.6875 
L 18.109375 46.1875 
Q 21.34375 51.125 25.703125 53.5625 
Q 30.078125 56 35.796875 56 
Q 45.21875 56 50.046875 50.171875 
Q 54.890625 44.34375 54.890625 33.015625 
z
" id="DejaVuSans-110"/>
       <path d="M 45.40625 27.984375 
Q 45.40625 37.75 41.375 43.109375 
Q 37.359375 48.484375 30.078125 48.484375 
Q 22.859375 48.484375 18.828125 43.109375 
Q 14.796875 37.75 14.796875 27.984375 
Q 14.796875 18.265625 18.828125 12.890625 
Q 22.859375 7.515625 30.078125 7.515625 
Q 37.359375 7.515625 41.375 12.890625 
Q 45.40625 18.265625 45.40625 27.984375 
z
M 54.390625 6.78125 
Q 54.390625 -7.171875 48.1875 -13.984375 
Q 42 -20.796875 29.203125 -20.796875 
Q 24.46875 -20.796875 20.265625 -20.09375 
Q 16.0625 -19.390625 12.109375 -17.921875 
L 12.109375 -9.1875 
Q 16.0625 -11.328125 19.921875 -12.34375 
Q 23.78125 -13.375 27.78125 -13.375 
Q 36.625 -13.375 41.015625 -8.765625 
Q 45.40625 -4.15625 45.40625 5.171875 
L 45.40625 9.625 
Q 42.625 4.78125 38.28125 2.390625 
Q 33.9375 0 27.875 0 
Q 17.828125 0 11.671875 7.65625 
Q 5.515625 15.328125 5.515625 27.984375 
Q 5.515625 40.671875 11.671875 48.328125 
Q 17.828125 56 27.875 56 
Q 33.9375 56 38.28125 53.609375 
Q 42.625 51.21875 45.40625 46.390625 
L 45.40625 54.6875 
L 54.390625 54.6875 
z
" id="DejaVuSans-103"/>
       <path id="DejaVuSans-32"/>
       <path d="M 5.515625 54.6875 
L 48.1875 54.6875 
L 48.1875 46.484375 
L 14.40625 7.171875 
L 48.1875 7.171875 
L 48.1875 0 
L 4.296875 0 
L 4.296875 8.203125 
L 38.09375 47.515625 
L 5.515625 47.515625 
z
" id="DejaVuSans-122"/>
       <path d="M 56.203125 29.59375 
L 56.203125 25.203125 
L 14.890625 25.203125 
Q 15.484375 15.921875 20.484375 11.0625 
Q 25.484375 6.203125 34.421875 6.203125 
Q 39.59375 6.203125 44.453125 7.46875 
Q 49.3125 8.734375 54.109375 11.28125 
L 54.109375 2.78125 
Q 49.265625 0.734375 44.1875 -0.34375 
Q 39.109375 -1.421875 33.890625 -1.421875 
Q 20.796875 -1.421875 13.15625 6.1875 
Q 5.515625 13.8125 5.515625 26.8125 
Q 5.515625 40.234375 12.765625 48.109375 
Q 20.015625 56 32.328125 56 
Q 43.359375 56 49.78125 48.890625 
Q 56.203125 41.796875 56.203125 29.59375 
z
M 47.21875 32.234375 
Q 47.125 39.59375 43.09375 43.984375 
Q 39.0625 48.390625 32.421875 48.390625 
Q 24.90625 48.390625 20.390625 44.140625 
Q 15.875 39.890625 15.1875 32.171875 
z
" id="DejaVuSans-101"/>
       <path d="M 9.078125 75.984375 
L 18.109375 75.984375 
L 18.109375 31.109375 
L 44.921875 54.6875 
L 56.390625 54.6875 
L 27.390625 29.109375 
L 57.625 0 
L 45.90625 0 
L 18.109375 26.703125 
L 18.109375 0 
L 9.078125 0 
z
" id="DejaVuSans-107"/>
       <path d="M 44.390625 34.1875 
Q 47.5625 33.109375 50.5625 29.59375 
Q 53.5625 26.078125 56.59375 19.921875 
L 66.609375 0 
L 56 0 
L 46.6875 18.703125 
Q 43.0625 26.03125 39.671875 28.421875 
Q 36.28125 30.8125 30.421875 30.8125 
L 19.671875 30.8125 
L 19.671875 0 
L 9.8125 0 
L 9.8125 72.90625 
L 32.078125 72.90625 
Q 44.578125 72.90625 50.734375 67.671875 
Q 56.890625 62.453125 56.890625 51.90625 
Q 56.890625 45.015625 53.6875 40.46875 
Q 50.484375 35.9375 44.390625 34.1875 
z
M 19.671875 64.796875 
L 19.671875 38.921875 
L 32.078125 38.921875 
Q 39.203125 38.921875 42.84375 42.21875 
Q 46.484375 45.515625 46.484375 51.90625 
Q 46.484375 58.296875 42.84375 61.546875 
Q 39.203125 64.796875 32.078125 64.796875 
z
" id="DejaVuSans-82"/>
       <path d="M 9.8125 72.90625 
L 19.671875 72.90625 
L 19.671875 0 
L 9.8125 0 
z
" id="DejaVuSans-73"/>
       <path d="M 28.609375 0 
L 0.78125 72.90625 
L 11.078125 72.90625 
L 34.1875 11.53125 
L 57.328125 72.90625 
L 67.578125 72.90625 
L 39.796875 0 
z
" id="DejaVuSans-86"/>
       <path d="M 9.8125 72.90625 
L 24.515625 72.90625 
L 43.109375 23.296875 
L 61.8125 72.90625 
L 76.515625 72.90625 
L 76.515625 0 
L 66.890625 0 
L 66.890625 64.015625 
L 48.09375 14.015625 
L 38.1875 14.015625 
L 19.390625 64.015625 
L 19.390625 0 
L 9.8125 0 
z
" id="DejaVuSans-77"/>
      </defs>
      <use xlink:href="#DejaVuSans-83"/>
      <use x="63.476562" xlink:href="#DejaVuSans-99"/>
      <use x="118.457031" xlink:href="#DejaVuSans-104"/>
      <use x="181.835938" xlink:href="#DejaVuSans-97"/>
      <use x="243.115234" xlink:href="#DejaVuSans-116"/>
      <use x="282.324219" xlink:href="#DejaVuSans-116"/>
      <use x="321.533203" xlink:href="#DejaVuSans-105"/>
      <use x="349.316406" xlink:href="#DejaVuSans-110"/>
      <use x="412.695312" xlink:href="#DejaVuSans-103"/>
      <use x="476.171875" xlink:href="#DejaVuSans-32"/>
      <use x="507.958984" xlink:href="#DejaVuSans-122"/>
      <use x="560.449219" xlink:href="#DejaVuSans-105"/>
      <use x="588.232422" xlink:href="#DejaVuSans-101"/>
      <use x="649.755859" xlink:href="#DejaVuSans-107"/>
      <use x="704.041016" xlink:href="#DejaVuSans-101"/>
      <use x="765.564453" xlink:href="#DejaVuSans-110"/>
      <use x="828.943359" xlink:href="#DejaVuSans-32"/>
      <use x="860.730469" xlink:href="#DejaVuSans-82"/>
      <use x="930.212891" xlink:href="#DejaVuSans-73"/>
      <use x="959.705078" xlink:href="#DejaVuSans-86"/>
      <use x="1028.113281" xlink:href="#DejaVuSans-77"/>
     </g>
    </g>
    <g id="line2d_47">
     <path d="M 73.8 56.576563 
L 93.8 56.576563 
" style="fill:none;stroke:#0000ff;stroke-linecap:square;stroke-width:1.5;"/>
    </g>
    <g id="line2d_48"/>
    <g id="text_24">
     <!-- Schatting zieken @rolfje obv RNA in RWZI -->
     <g transform="translate(101.8 60.076563)scale(0.1 -0.1)">
      <defs>
       <path d="M 37.203125 26.21875 
Q 37.203125 19.234375 40.671875 15.25 
Q 44.140625 11.28125 50.203125 11.28125 
Q 56.203125 11.28125 59.640625 15.28125 
Q 63.09375 19.28125 63.09375 26.21875 
Q 63.09375 33.0625 59.578125 37.078125 
Q 56.0625 41.109375 50.09375 41.109375 
Q 44.1875 41.109375 40.6875 37.109375 
Q 37.203125 33.109375 37.203125 26.21875 
z
M 63.8125 11.625 
Q 60.890625 7.859375 57.109375 6.078125 
Q 53.328125 4.296875 48.296875 4.296875 
Q 39.890625 4.296875 34.640625 10.375 
Q 29.390625 16.453125 29.390625 26.21875 
Q 29.390625 35.984375 34.65625 42.078125 
Q 39.9375 48.1875 48.296875 48.1875 
Q 53.328125 48.1875 57.125 46.359375 
Q 60.9375 44.53125 63.8125 40.828125 
L 63.8125 47.21875 
L 70.796875 47.21875 
L 70.796875 11.28125 
Q 77.9375 12.359375 81.953125 17.796875 
Q 85.984375 23.25 85.984375 31.890625 
Q 85.984375 37.109375 84.4375 41.703125 
Q 82.90625 46.296875 79.78125 50.203125 
Q 74.703125 56.59375 67.40625 59.984375 
Q 60.109375 63.375 51.515625 63.375 
Q 45.515625 63.375 39.984375 61.78125 
Q 34.46875 60.203125 29.78125 57.078125 
Q 22.125 52.09375 17.796875 44.015625 
Q 13.484375 35.9375 13.484375 26.515625 
Q 13.484375 18.75 16.28125 11.953125 
Q 19.09375 5.171875 24.421875 0 
Q 29.546875 -5.078125 36.28125 -7.734375 
Q 43.015625 -10.40625 50.6875 -10.40625 
Q 56.984375 -10.40625 63.0625 -8.28125 
Q 69.140625 -6.15625 74.21875 -2.203125 
L 78.609375 -7.625 
Q 72.515625 -12.359375 65.3125 -14.875 
Q 58.109375 -17.390625 50.6875 -17.390625 
Q 41.65625 -17.390625 33.640625 -14.1875 
Q 25.640625 -10.984375 19.390625 -4.890625 
Q 13.140625 1.21875 9.859375 9.25 
Q 6.59375 17.28125 6.59375 26.515625 
Q 6.59375 35.40625 9.90625 43.453125 
Q 13.234375 51.515625 19.390625 57.625 
Q 25.6875 63.8125 33.9375 67.109375 
Q 42.1875 70.40625 51.421875 70.40625 
Q 61.765625 70.40625 70.625 66.15625 
Q 79.5 61.921875 85.5 54.109375 
Q 89.15625 49.3125 91.078125 43.703125 
Q 93.015625 38.09375 93.015625 32.078125 
Q 93.015625 19.234375 85.25 11.8125 
Q 77.484375 4.390625 63.8125 4.109375 
z
" id="DejaVuSans-64"/>
       <path d="M 41.109375 46.296875 
Q 39.59375 47.171875 37.8125 47.578125 
Q 36.03125 48 33.890625 48 
Q 26.265625 48 22.1875 43.046875 
Q 18.109375 38.09375 18.109375 28.8125 
L 18.109375 0 
L 9.078125 0 
L 9.078125 54.6875 
L 18.109375 54.6875 
L 18.109375 46.1875 
Q 20.953125 51.171875 25.484375 53.578125 
Q 30.03125 56 36.53125 56 
Q 37.453125 56 38.578125 55.875 
Q 39.703125 55.765625 41.0625 55.515625 
z
" id="DejaVuSans-114"/>
       <path d="M 30.609375 48.390625 
Q 23.390625 48.390625 19.1875 42.75 
Q 14.984375 37.109375 14.984375 27.296875 
Q 14.984375 17.484375 19.15625 11.84375 
Q 23.34375 6.203125 30.609375 6.203125 
Q 37.796875 6.203125 41.984375 11.859375 
Q 46.1875 17.53125 46.1875 27.296875 
Q 46.1875 37.015625 41.984375 42.703125 
Q 37.796875 48.390625 30.609375 48.390625 
z
M 30.609375 56 
Q 42.328125 56 49.015625 48.375 
Q 55.71875 40.765625 55.71875 27.296875 
Q 55.71875 13.875 49.015625 6.21875 
Q 42.328125 -1.421875 30.609375 -1.421875 
Q 18.84375 -1.421875 12.171875 6.21875 
Q 5.515625 13.875 5.515625 27.296875 
Q 5.515625 40.765625 12.171875 48.375 
Q 18.84375 56 30.609375 56 
z
" id="DejaVuSans-111"/>
       <path d="M 9.421875 75.984375 
L 18.40625 75.984375 
L 18.40625 0 
L 9.421875 0 
z
" id="DejaVuSans-108"/>
       <path d="M 37.109375 75.984375 
L 37.109375 68.5 
L 28.515625 68.5 
Q 23.6875 68.5 21.796875 66.546875 
Q 19.921875 64.59375 19.921875 59.515625 
L 19.921875 54.6875 
L 34.71875 54.6875 
L 34.71875 47.703125 
L 19.921875 47.703125 
L 19.921875 0 
L 10.890625 0 
L 10.890625 47.703125 
L 2.296875 47.703125 
L 2.296875 54.6875 
L 10.890625 54.6875 
L 10.890625 58.5 
Q 10.890625 67.625 15.140625 71.796875 
Q 19.390625 75.984375 28.609375 75.984375 
z
" id="DejaVuSans-102"/>
       <path d="M 9.421875 54.6875 
L 18.40625 54.6875 
L 18.40625 -0.984375 
Q 18.40625 -11.421875 14.421875 -16.109375 
Q 10.453125 -20.796875 1.609375 -20.796875 
L -1.8125 -20.796875 
L -1.8125 -13.1875 
L 0.59375 -13.1875 
Q 5.71875 -13.1875 7.5625 -10.8125 
Q 9.421875 -8.453125 9.421875 -0.984375 
z
M 9.421875 75.984375 
L 18.40625 75.984375 
L 18.40625 64.59375 
L 9.421875 64.59375 
z
" id="DejaVuSans-106"/>
       <path d="M 48.6875 27.296875 
Q 48.6875 37.203125 44.609375 42.84375 
Q 40.53125 48.484375 33.40625 48.484375 
Q 26.265625 48.484375 22.1875 42.84375 
Q 18.109375 37.203125 18.109375 27.296875 
Q 18.109375 17.390625 22.1875 11.75 
Q 26.265625 6.109375 33.40625 6.109375 
Q 40.53125 6.109375 44.609375 11.75 
Q 48.6875 17.390625 48.6875 27.296875 
z
M 18.109375 46.390625 
Q 20.953125 51.265625 25.265625 53.625 
Q 29.59375 56 35.59375 56 
Q 45.5625 56 51.78125 48.09375 
Q 58.015625 40.1875 58.015625 27.296875 
Q 58.015625 14.40625 51.78125 6.484375 
Q 45.5625 -1.421875 35.59375 -1.421875 
Q 29.59375 -1.421875 25.265625 0.953125 
Q 20.953125 3.328125 18.109375 8.203125 
L 18.109375 0 
L 9.078125 0 
L 9.078125 75.984375 
L 18.109375 75.984375 
z
" id="DejaVuSans-98"/>
       <path d="M 2.984375 54.6875 
L 12.5 54.6875 
L 29.59375 8.796875 
L 46.6875 54.6875 
L 56.203125 54.6875 
L 35.6875 0 
L 23.484375 0 
z
" id="DejaVuSans-118"/>
       <path d="M 9.8125 72.90625 
L 23.09375 72.90625 
L 55.421875 11.921875 
L 55.421875 72.90625 
L 64.984375 72.90625 
L 64.984375 0 
L 51.703125 0 
L 19.390625 60.984375 
L 19.390625 0 
L 9.8125 0 
z
" id="DejaVuSans-78"/>
       <path d="M 34.1875 63.1875 
L 20.796875 26.90625 
L 47.609375 26.90625 
z
M 28.609375 72.90625 
L 39.796875 72.90625 
L 67.578125 0 
L 57.328125 0 
L 50.6875 18.703125 
L 17.828125 18.703125 
L 11.1875 0 
L 0.78125 0 
z
" id="DejaVuSans-65"/>
       <path d="M 3.328125 72.90625 
L 13.28125 72.90625 
L 28.609375 11.28125 
L 43.890625 72.90625 
L 54.984375 72.90625 
L 70.3125 11.28125 
L 85.59375 72.90625 
L 95.609375 72.90625 
L 77.296875 0 
L 64.890625 0 
L 49.515625 63.28125 
L 33.984375 0 
L 21.578125 0 
z
" id="DejaVuSans-87"/>
       <path d="M 5.609375 72.90625 
L 62.890625 72.90625 
L 62.890625 65.375 
L 16.796875 8.296875 
L 64.015625 8.296875 
L 64.015625 0 
L 4.5 0 
L 4.5 7.515625 
L 50.59375 64.59375 
L 5.609375 64.59375 
z
" id="DejaVuSans-90"/>
      </defs>
      <use xlink:href="#DejaVuSans-83"/>
      <use x="63.476562" xlink:href="#DejaVuSans-99"/>
      <use x="118.457031" xlink:href="#DejaVuSans-104"/>
      <use x="181.835938" xlink:href="#DejaVuSans-97"/>
      <use x="243.115234" xlink:href="#DejaVuSans-116"/>
      <use x="282.324219" xlink:href="#DejaVuSans-116"/>
      <use x="321.533203" xlink:href="#DejaVuSans-105"/>
      <use x="349.316406" xlink:href="#DejaVuSans-110"/>
      <use x="412.695312" xlink:href="#DejaVuSans-103"/>
      <use x="476.171875" xlink:href="#DejaVuSans-32"/>
      <use x="507.958984" xlink:href="#DejaVuSans-122"/>
      <use x="560.449219" xlink:href="#DejaVuSans-105"/>
      <use x="588.232422" xlink:href="#DejaVuSans-101"/>
      <use x="649.755859" xlink:href="#DejaVuSans-107"/>
      <use x="704.041016" xlink:href="#DejaVuSans-101"/>
      <use x="765.564453" xlink:href="#DejaVuSans-110"/>
      <use x="828.943359" xlink:href="#DejaVuSans-32"/>
      <use x="860.730469" xlink:href="#DejaVuSans-64"/>
      <use x="960.730469" xlink:href="#DejaVuSans-114"/>
      <use x="999.59375" xlink:href="#DejaVuSans-111"/>
      <use x="1060.775391" xlink:href="#DejaVuSans-108"/>
      <use x="1088.558594" xlink:href="#DejaVuSans-102"/>
      <use x="1123.763672" xlink:href="#DejaVuSans-106"/>
      <use x="1151.546875" xlink:href="#DejaVuSans-101"/>
      <use x="1213.070312" xlink:href="#DejaVuSans-32"/>
      <use x="1244.857422" xlink:href="#DejaVuSans-111"/>
      <use x="1306.039062" xlink:href="#DejaVuSans-98"/>
      <use x="1369.515625" xlink:href="#DejaVuSans-118"/>
      <use x="1428.695312" xlink:href="#DejaVuSans-32"/>
      <use x="1460.482422" xlink:href="#DejaVuSans-82"/>
      <use x="1529.964844" xlink:href="#DejaVuSans-78"/>
      <use x="1604.769531" xlink:href="#DejaVuSans-65"/>
      <use x="1673.177734" xlink:href="#DejaVuSans-32"/>
      <use x="1704.964844" xlink:href="#DejaVuSans-105"/>
      <use x="1732.748047" xlink:href="#DejaVuSans-110"/>
      <use x="1796.126953" xlink:href="#DejaVuSans-32"/>
      <use x="1827.914062" xlink:href="#DejaVuSans-82"/>
      <use x="1893.396484" xlink:href="#DejaVuSans-87"/>
      <use x="1992.273438" xlink:href="#DejaVuSans-90"/>
      <use x="2060.779297" xlink:href="#DejaVuSans-73"/>
     </g>
    </g>
   </g>
  </g>
  <g id="axes_2">
   <g id="matplotlib.axis_3">
    <g id="ytick_10">
     <g id="line2d_49">
      <path clip-path="url(#p06f70bee83)" d="M 64.8 313.2 
L 655.2 313.2 
" style="fill:none;stroke:#808080;stroke-dasharray:6.4,1.6,1,1.6;stroke-dashoffset:0;stroke-opacity:0.3;"/>
     </g>
     <g id="line2d_50">
      <defs>
       <path d="M 0 0 
L 3.5 0 
" id="m7f91ec3e77" style="stroke:#000000;stroke-width:0.8;"/>
      </defs>
      <g>
       <use style="stroke:#000000;stroke-width:0.8;" x="655.2" xlink:href="#m7f91ec3e77" y="313.2"/>
      </g>
     </g>
     <g id="text_25">
      <!-- 200 -->
      <g transform="translate(662.2 316.999219)scale(0.1 -0.1)">
       <defs>
        <path d="M 10.59375 35.5 
L 73.1875 35.5 
L 73.1875 27.203125 
L 10.59375 27.203125 
z
" id="DejaVuSans-8722"/>
       </defs>
       <use xlink:href="#DejaVuSans-8722"/>
       <use x="83.789062" xlink:href="#DejaVuSans-50"/>
       <use x="147.412109" xlink:href="#DejaVuSans-48"/>
       <use x="211.035156" xlink:href="#DejaVuSans-48"/>
      </g>
     </g>
    </g>
    <g id="ytick_11">
     <g id="line2d_51">
      <path clip-path="url(#p06f70bee83)" d="M 64.8 277.65 
L 655.2 277.65 
" style="fill:none;stroke:#808080;stroke-dasharray:6.4,1.6,1,1.6;stroke-dashoffset:0;stroke-opacity:0.3;"/>
     </g>
     <g id="line2d_52">
      <g>
       <use style="stroke:#000000;stroke-width:0.8;" x="655.2" xlink:href="#m7f91ec3e77" y="277.65"/>
      </g>
     </g>
     <g id="text_26">
      <!-- 150 -->
      <g transform="translate(662.2 281.449219)scale(0.1 -0.1)">
       <use xlink:href="#DejaVuSans-8722"/>
       <use x="83.789062" xlink:href="#DejaVuSans-49"/>
       <use x="147.412109" xlink:href="#DejaVuSans-53"/>
       <use x="211.035156" xlink:href="#DejaVuSans-48"/>
      </g>
     </g>
    </g>
    <g id="ytick_12">
     <g id="line2d_53">
      <path clip-path="url(#p06f70bee83)" d="M 64.8 242.1 
L 655.2 242.1 
" style="fill:none;stroke:#808080;stroke-dasharray:6.4,1.6,1,1.6;stroke-dashoffset:0;stroke-opacity:0.3;"/>
     </g>
     <g id="line2d_54">
      <g>
       <use style="stroke:#000000;stroke-width:0.8;" x="655.2" xlink:href="#m7f91ec3e77" y="242.1"/>
      </g>
     </g>
     <g id="text_27">
      <!-- 100 -->
      <g transform="translate(662.2 245.899219)scale(0.1 -0.1)">
       <use xlink:href="#DejaVuSans-8722"/>
       <use x="83.789062" xlink:href="#DejaVuSans-49"/>
       <use x="147.412109" xlink:href="#DejaVuSans-48"/>
       <use x="211.035156" xlink:href="#DejaVuSans-48"/>
      </g>
     </g>
    </g>
    <g id="ytick_13">
     <g id="line2d_55">
      <path clip-path="url(#p06f70bee83)" d="M 64.8 206.55 
L 655.2 206.55 
" style="fill:none;stroke:#808080;stroke-dasharray:6.4,1.6,1,1.6;stroke-dashoffset:0;stroke-opacity:0.3;"/>
     </g>
     <g id="line2d_56">
      <g>
       <use style="stroke:#000000;stroke-width:0.8;" x="655.2" xlink:href="#m7f91ec3e77" y="206.55"/>
      </g>
     </g>
     <g id="text_28">
      <!-- 50 -->
      <g transform="translate(662.2 210.349219)scale(0.1 -0.1)">
       <use xlink:href="#DejaVuSans-8722"/>
       <use x="83.789062" xlink:href="#DejaVuSans-53"/>
       <use x="147.412109" xlink:href="#DejaVuSans-48"/>
      </g>
     </g>
    </g>
    <g id="ytick_14">
     <g id="line2d_57">
      <path clip-path="url(#p06f70bee83)" d="M 64.8 171 
L 655.2 171 
" style="fill:none;stroke:#808080;stroke-dasharray:6.4,1.6,1,1.6;stroke-dashoffset:0;stroke-opacity:0.3;"/>
     </g>
     <g id="line2d_58">
      <g>
       <use style="stroke:#000000;stroke-width:0.8;" x="655.2" xlink:href="#m7f91ec3e77" y="171"/>
      </g>
     </g>
     <g id="text_29">
      <!-- 0 -->
      <g transform="translate(662.2 174.799219)scale(0.1 -0.1)">
       <use xlink:href="#DejaVuSans-48"/>
      </g>
     </g>
    </g>
    <g id="ytick_15">
     <g id="line2d_59">
      <path clip-path="url(#p06f70bee83)" d="M 64.8 135.45 
L 655.2 135.45 
" style="fill:none;stroke:#808080;stroke-dasharray:6.4,1.6,1,1.6;stroke-dashoffset:0;stroke-opacity:0.3;"/>
     </g>
     <g id="line2d_60">
      <g>
       <use style="stroke:#000000;stroke-width:0.8;" x="655.2" xlink:href="#m7f91ec3e77" y="135.45"/>
      </g>
     </g>
     <g id="text_30">
      <!-- 50 -->
      <g transform="translate(662.2 139.249219)scale(0.1 -0.1)">
       <use xlink:href="#DejaVuSans-53"/>
       <use x="63.623047" xlink:href="#DejaVuSans-48"/>
      </g>
     </g>
    </g>
    <g id="ytick_16">
     <g id="line2d_61">
      <path clip-path="url(#p06f70bee83)" d="M 64.8 99.9 
L 655.2 99.9 
" style="fill:none;stroke:#808080;stroke-dasharray:6.4,1.6,1,1.6;stroke-dashoffset:0;stroke-opacity:0.3;"/>
     </g>
     <g id="line2d_62">
      <g>
       <use style="stroke:#000000;stroke-width:0.8;" x="655.2" xlink:href="#m7f91ec3e77" y="99.9"/>
      </g>
     </g>
     <g id="text_31">
      <!-- 100 -->
      <g transform="translate(662.2 103.699219)scale(0.1 -0.1)">
       <use xlink:href="#DejaVuSans-49"/>
       <use x="63.623047" xlink:href="#DejaVuSans-48"/>
       <use x="127.246094" xlink:href="#DejaVuSans-48"/>
      </g>
     </g>
    </g>
    <g id="ytick_17">
     <g id="line2d_63">
      <path clip-path="url(#p06f70bee83)" d="M 64.8 64.35 
L 655.2 64.35 
" style="fill:none;stroke:#808080;stroke-dasharray:6.4,1.6,1,1.6;stroke-dashoffset:0;stroke-opacity:0.3;"/>
     </g>
     <g id="line2d_64">
      <g>
       <use style="stroke:#000000;stroke-width:0.8;" x="655.2" xlink:href="#m7f91ec3e77" y="64.35"/>
      </g>
     </g>
     <g id="text_32">
      <!-- 150 -->
      <g transform="translate(662.2 68.149219)scale(0.1 -0.1)">
       <use xlink:href="#DejaVuSans-49"/>
       <use x="63.623047" xlink:href="#DejaVuSans-53"/>
       <use x="127.246094" xlink:href="#DejaVuSans-48"/>
      </g>
     </g>
    </g>
    <g id="ytick_18">
     <g id="line2d_65">
      <path clip-path="url(#p06f70bee83)" d="M 64.8 28.8 
L 655.2 28.8 
" style="fill:none;stroke:#808080;stroke-dasharray:6.4,1.6,1,1.6;stroke-dashoffset:0;stroke-opacity:0.3;"/>
     </g>
     <g id="line2d_66">
      <g>
       <use style="stroke:#000000;stroke-width:0.8;" x="655.2" xlink:href="#m7f91ec3e77" y="28.8"/>
      </g>
     </g>
     <g id="text_33">
      <!-- 200 -->
      <g transform="translate(662.2 32.599219)scale(0.1 -0.1)">
       <use xlink:href="#DejaVuSans-50"/>
       <use x="63.623047" xlink:href="#DejaVuSans-48"/>
       <use x="127.246094" xlink:href="#DejaVuSans-48"/>
      </g>
     </g>
    </g>
   </g>
   <g id="line2d_67">
    <path clip-path="url(#p06f70bee83)" d="M 264.989272 251.962287 
L 266.656126 245.662647 
L 269.989836 231.977045 
L 271.656691 226.067329 
L 273.323546 222.89298 
L 274.990401 223.944919 
L 276.657256 225.319651 
L 278.324111 228.348737 
L 279.990966 234.19059 
L 281.65782 238.600031 
L 283.324675 244.569355 
L 286.658385 258.081549 
L 289.992095 287.186095 
L 293.325805 319.998994 
L 294.99266 341.683918 
L 296.294486 361 
M 330.645269 361 
L 333.330322 299.154885 
L 334.997177 268.978531 
L 336.664032 243.294768 
L 338.330887 225.869175 
L 339.997741 206.361216 
L 341.664596 195.406551 
L 343.331451 188.674404 
L 344.998306 183.0264 
L 346.665161 180.373962 
L 348.332016 174.534607 
L 351.665726 164.332194 
L 353.33258 160.71097 
L 354.999435 157.959723 
L 356.66629 156.213201 
L 358.333145 154.913181 
L 360 154.122324 
L 361.666855 156.120281 
L 363.33371 158.486024 
L 365.000565 157.293109 
L 368.334274 154.17377 
L 370.001129 153.177324 
L 371.667984 154.564078 
L 376.668549 161.569122 
L 381.669113 170.23725 
L 383.335968 171.593195 
L 385.002823 173.478445 
L 388.336533 179.004379 
L 391.670243 187.710312 
L 393.337098 188.719317 
L 395.003953 187.807592 
L 396.670807 187.396907 
L 398.337662 186.470027 
L 400.004517 186.47791 
L 401.671372 186.055811 
L 403.338227 186.822898 
L 405.005082 189.274315 
L 406.671937 194.327719 
L 408.338792 192.878394 
L 410.005647 191.651073 
L 411.672501 189.713661 
L 413.339356 186.291567 
L 415.006211 184.370607 
L 416.673066 184.421914 
L 418.339921 184.737345 
L 420.006776 185.314032 
L 421.673631 184.83921 
L 423.340486 184.224301 
L 425.00734 182.757697 
L 426.674195 182.007368 
L 428.34105 179.690599 
L 430.007905 180.389314 
L 431.67476 182.810692 
L 433.341615 186.165 
L 435.00847 188.133538 
L 436.675325 189.923048 
L 438.34218 192.3818 
L 441.675889 194.595127 
L 443.342744 196.835098 
L 445.009599 197.284823 
L 446.676454 197.376515 
L 448.343309 196.737764 
L 450.010164 195.773677 
L 451.677019 193.307441 
L 453.343874 190.186246 
L 455.010728 182.090218 
L 460.011293 163.624379 
L 461.678148 158.171261 
L 463.345003 153.431542 
L 465.011858 149.667512 
L 466.678713 146.28971 
L 468.345567 143.584424 
L 470.012422 141.548027 
L 471.679277 140.263958 
L 473.346132 139.42637 
L 475.012987 138.389336 
L 476.679842 138.579915 
L 478.346697 138.490543 
L 481.680407 139.479529 
L 483.347261 139.318194 
L 486.680971 139.568278 
L 490.014681 139.713189 
L 491.681536 139.908057 
L 493.348391 139.525386 
L 496.682101 138.179554 
L 498.348955 137.07881 
L 503.34952 134.865598 
L 508.350085 137.290257 
L 510.01694 137.892035 
L 511.683794 138.845756 
L 513.350649 139.983328 
L 515.017504 142.070199 
L 520.018069 149.260052 
L 521.684924 151.301064 
L 523.351779 153.879216 
L 525.018634 155.822181 
L 526.685488 155.200985 
L 528.352343 154.426526 
L 530.019198 154.015626 
L 531.686053 154.178625 
L 535.019763 152.797499 
L 538.353473 150.227626 
L 540.020327 149.907024 
L 541.687182 150.270095 
L 543.354037 151.198687 
L 545.020892 151.579308 
L 546.687747 153.441228 
L 548.354602 156.039185 
L 550.021457 159.092322 
L 555.022021 167.363779 
L 556.688876 169.911497 
L 558.355731 172.760041 
L 560.022586 176.089266 
L 561.689441 178.691588 
L 563.356296 180.921536 
L 566.690006 184.492942 
L 568.356861 184.366528 
L 570.023715 183.577505 
L 571.69057 184.35945 
L 573.357425 184.33289 
L 575.02428 184.970002 
L 576.691135 186.291587 
L 578.35799 187.061539 
L 581.6917 187.072786 
L 583.358554 187.460404 
L 586.692264 186.255678 
L 588.359119 186.051014 
L 590.025974 186.623747 
L 591.692829 186.961832 
L 595.026539 188.59165 
L 598.360248 191.242633 
L 603.360813 199.186358 
L 605.027668 202.457434 
L 606.694523 207.484218 
L 608.361378 213.450903 
L 610.028233 221.057458 
L 610.028233 221.057458 
" style="fill:none;stroke:#90ee90;stroke-linecap:square;stroke-width:1.5;"/>
   </g>
   <g id="patch_8">
    <path d="M 64.8 313.2 
L 64.8 28.8 
" style="fill:none;stroke:#000000;stroke-linecap:square;stroke-linejoin:miter;stroke-width:0.8;"/>
   </g>
   <g id="patch_9">
    <path d="M 655.2 313.2 
L 655.2 28.8 
" style="fill:none;stroke:#000000;stroke-linecap:square;stroke-linejoin:miter;stroke-width:0.8;"/>
   </g>
   <g id="patch_10">
    <path d="M 64.8 313.2 
L 655.2 313.2 
" style="fill:none;stroke:#000000;stroke-linecap:square;stroke-linejoin:miter;stroke-width:0.8;"/>
   </g>
   <g id="patch_11">
    <path d="M 64.8 28.8 
L 655.2 28.8 
" style="fill:none;stroke:#000000;stroke-linecap:square;stroke-linejoin:miter;stroke-width:0.8;"/>
   </g>
   <g id="text_34">
    <!-- Afwijking schatting o.b.v. RNA t.o.v. RIVM schatting, 2021-01-07 17:19 -->
    <g transform="translate(149.12625 22.8)scale(0.12 -0.12)">
     <defs>
      <path d="M 4.203125 54.6875 
L 13.1875 54.6875 
L 24.421875 12.015625 
L 35.59375 54.6875 
L 46.1875 54.6875 
L 57.421875 12.015625 
L 68.609375 54.6875 
L 77.59375 54.6875 
L 63.28125 0 
L 52.6875 0 
L 40.921875 44.828125 
L 29.109375 0 
L 18.5 0 
z
" id="DejaVuSans-119"/>
      <path d="M 44.28125 53.078125 
L 44.28125 44.578125 
Q 40.484375 46.53125 36.375 47.5 
Q 32.28125 48.484375 27.875 48.484375 
Q 21.1875 48.484375 17.84375 46.4375 
Q 14.5 44.390625 14.5 40.28125 
Q 14.5 37.15625 16.890625 35.375 
Q 19.28125 33.59375 26.515625 31.984375 
L 29.59375 31.296875 
Q 39.15625 29.25 43.1875 25.515625 
Q 47.21875 21.78125 47.21875 15.09375 
Q 47.21875 7.46875 41.1875 3.015625 
Q 35.15625 -1.421875 24.609375 -1.421875 
Q 20.21875 -1.421875 15.453125 -0.5625 
Q 10.6875 0.296875 5.421875 2 
L 5.421875 11.28125 
Q 10.40625 8.6875 15.234375 7.390625 
Q 20.0625 6.109375 24.8125 6.109375 
Q 31.15625 6.109375 34.5625 8.28125 
Q 37.984375 10.453125 37.984375 14.40625 
Q 37.984375 18.0625 35.515625 20.015625 
Q 33.0625 21.96875 24.703125 23.78125 
L 21.578125 24.515625 
Q 13.234375 26.265625 9.515625 29.90625 
Q 5.8125 33.546875 5.8125 39.890625 
Q 5.8125 47.609375 11.28125 51.796875 
Q 16.75 56 26.8125 56 
Q 31.78125 56 36.171875 55.265625 
Q 40.578125 54.546875 44.28125 53.078125 
z
" id="DejaVuSans-115"/>
      <path d="M 10.6875 12.40625 
L 21 12.40625 
L 21 0 
L 10.6875 0 
z
" id="DejaVuSans-46"/>
      <path d="M 11.71875 12.40625 
L 22.015625 12.40625 
L 22.015625 4 
L 14.015625 -11.625 
L 7.71875 -11.625 
L 11.71875 4 
z
" id="DejaVuSans-44"/>
      <path d="M 11.71875 12.40625 
L 22.015625 12.40625 
L 22.015625 0 
L 11.71875 0 
z
M 11.71875 51.703125 
L 22.015625 51.703125 
L 22.015625 39.3125 
L 11.71875 39.3125 
z
" id="DejaVuSans-58"/>
     </defs>
     <use xlink:href="#DejaVuSans-65"/>
     <use x="64.783203" xlink:href="#DejaVuSans-102"/>
     <use x="98.238281" xlink:href="#DejaVuSans-119"/>
     <use x="180.025391" xlink:href="#DejaVuSans-105"/>
     <use x="207.808594" xlink:href="#DejaVuSans-106"/>
     <use x="235.591797" xlink:href="#DejaVuSans-107"/>
     <use x="293.501953" xlink:href="#DejaVuSans-105"/>
     <use x="321.285156" xlink:href="#DejaVuSans-110"/>
     <use x="384.664062" xlink:href="#DejaVuSans-103"/>
     <use x="448.140625" xlink:href="#DejaVuSans-32"/>
     <use x="479.927734" xlink:href="#DejaVuSans-115"/>
     <use x="532.027344" xlink:href="#DejaVuSans-99"/>
     <use x="587.007812" xlink:href="#DejaVuSans-104"/>
     <use x="650.386719" xlink:href="#DejaVuSans-97"/>
     <use x="711.666016" xlink:href="#DejaVuSans-116"/>
     <use x="750.875" xlink:href="#DejaVuSans-116"/>
     <use x="790.083984" xlink:href="#DejaVuSans-105"/>
     <use x="817.867188" xlink:href="#DejaVuSans-110"/>
     <use x="881.246094" xlink:href="#DejaVuSans-103"/>
     <use x="944.722656" xlink:href="#DejaVuSans-32"/>
     <use x="976.509766" xlink:href="#DejaVuSans-111"/>
     <use x="1035.941406" xlink:href="#DejaVuSans-46"/>
     <use x="1067.728516" xlink:href="#DejaVuSans-98"/>
     <use x="1131.205078" xlink:href="#DejaVuSans-46"/>
     <use x="1162.992188" xlink:href="#DejaVuSans-118"/>
     <use x="1214.421875" xlink:href="#DejaVuSans-46"/>
     <use x="1246.208984" xlink:href="#DejaVuSans-32"/>
     <use x="1277.996094" xlink:href="#DejaVuSans-82"/>
     <use x="1347.478516" xlink:href="#DejaVuSans-78"/>
     <use x="1422.283203" xlink:href="#DejaVuSans-65"/>
     <use x="1490.691406" xlink:href="#DejaVuSans-32"/>
     <use x="1522.478516" xlink:href="#DejaVuSans-116"/>
     <use x="1561.6875" xlink:href="#DejaVuSans-46"/>
     <use x="1593.474609" xlink:href="#DejaVuSans-111"/>
     <use x="1652.90625" xlink:href="#DejaVuSans-46"/>
     <use x="1684.693359" xlink:href="#DejaVuSans-118"/>
     <use x="1736.123047" xlink:href="#DejaVuSans-46"/>
     <use x="1767.910156" xlink:href="#DejaVuSans-32"/>
     <use x="1799.697266" xlink:href="#DejaVuSans-82"/>
     <use x="1869.179688" xlink:href="#DejaVuSans-73"/>
     <use x="1898.671875" xlink:href="#DejaVuSans-86"/>
     <use x="1967.080078" xlink:href="#DejaVuSans-77"/>
     <use x="2053.359375" xlink:href="#DejaVuSans-32"/>
     <use x="2085.146484" xlink:href="#DejaVuSans-115"/>
     <use x="2137.246094" xlink:href="#DejaVuSans-99"/>
     <use x="2192.226562" xlink:href="#DejaVuSans-104"/>
     <use x="2255.605469" xlink:href="#DejaVuSans-97"/>
     <use x="2316.884766" xlink:href="#DejaVuSans-116"/>
     <use x="2356.09375" xlink:href="#DejaVuSans-116"/>
     <use x="2395.302734" xlink:href="#DejaVuSans-105"/>
     <use x="2423.085938" xlink:href="#DejaVuSans-110"/>
     <use x="2486.464844" xlink:href="#DejaVuSans-103"/>
     <use x="2549.941406" xlink:href="#DejaVuSans-44"/>
     <use x="2581.728516" xlink:href="#DejaVuSans-32"/>
     <use x="2613.515625" xlink:href="#DejaVuSans-50"/>
     <use x="2677.138672" xlink:href="#DejaVuSans-48"/>
     <use x="2740.761719" xlink:href="#DejaVuSans-50"/>
     <use x="2804.384766" xlink:href="#DejaVuSans-49"/>
     <use x="2868.007812" xlink:href="#DejaVuSans-45"/>
     <use x="2904.091797" xlink:href="#DejaVuSans-48"/>
     <use x="2967.714844" xlink:href="#DejaVuSans-49"/>
     <use x="3031.337891" xlink:href="#DejaVuSans-45"/>
     <use x="3067.421875" xlink:href="#DejaVuSans-48"/>
     <use x="3131.044922" xlink:href="#DejaVuSans-55"/>
     <use x="3194.667969" xlink:href="#DejaVuSans-32"/>
     <use x="3226.455078" xlink:href="#DejaVuSans-49"/>
     <use x="3290.078125" xlink:href="#DejaVuSans-55"/>
     <use x="3353.701172" xlink:href="#DejaVuSans-58"/>
     <use x="3387.392578" xlink:href="#DejaVuSans-49"/>
     <use x="3451.015625" xlink:href="#DejaVuSans-57"/>
    </g>
   </g>
   <g id="legend_2">
    <g id="patch_12">
     <path d="M 416.04375 51.478125 
L 648.2 51.478125 
Q 650.2 51.478125 650.2 49.478125 
L 650.2 35.8 
Q 650.2 33.8 648.2 33.8 
L 416.04375 33.8 
Q 414.04375 33.8 414.04375 35.8 
L 414.04375 49.478125 
Q 414.04375 51.478125 416.04375 51.478125 
z
" style="fill:#ffffff;opacity:0.8;stroke:#cccccc;stroke-linejoin:miter;"/>
    </g>
    <g id="line2d_68">
     <path d="M 418.04375 41.898438 
L 438.04375 41.898438 
" style="fill:none;stroke:#90ee90;stroke-linecap:square;stroke-width:1.5;"/>
    </g>
    <g id="line2d_69"/>
    <g id="text_35">
     <!-- Afwijking RNA t.o.v. RIVM schatting in % -->
     <g transform="translate(446.04375 45.398438)scale(0.1 -0.1)">
      <defs>
       <path d="M 72.703125 32.078125 
Q 68.453125 32.078125 66.03125 28.46875 
Q 63.625 24.859375 63.625 18.40625 
Q 63.625 12.0625 66.03125 8.421875 
Q 68.453125 4.78125 72.703125 4.78125 
Q 76.859375 4.78125 79.265625 8.421875 
Q 81.6875 12.0625 81.6875 18.40625 
Q 81.6875 24.8125 79.265625 28.4375 
Q 76.859375 32.078125 72.703125 32.078125 
z
M 72.703125 38.28125 
Q 80.421875 38.28125 84.953125 32.90625 
Q 89.5 27.546875 89.5 18.40625 
Q 89.5 9.28125 84.9375 3.921875 
Q 80.375 -1.421875 72.703125 -1.421875 
Q 64.890625 -1.421875 60.34375 3.921875 
Q 55.8125 9.28125 55.8125 18.40625 
Q 55.8125 27.59375 60.375 32.9375 
Q 64.9375 38.28125 72.703125 38.28125 
z
M 22.3125 68.015625 
Q 18.109375 68.015625 15.6875 64.375 
Q 13.28125 60.75 13.28125 54.390625 
Q 13.28125 47.953125 15.671875 44.328125 
Q 18.0625 40.71875 22.3125 40.71875 
Q 26.5625 40.71875 28.96875 44.328125 
Q 31.390625 47.953125 31.390625 54.390625 
Q 31.390625 60.6875 28.953125 64.34375 
Q 26.515625 68.015625 22.3125 68.015625 
z
M 66.40625 74.21875 
L 74.21875 74.21875 
L 28.609375 -1.421875 
L 20.796875 -1.421875 
z
M 22.3125 74.21875 
Q 30.03125 74.21875 34.609375 68.875 
Q 39.203125 63.53125 39.203125 54.390625 
Q 39.203125 45.171875 34.640625 39.84375 
Q 30.078125 34.515625 22.3125 34.515625 
Q 14.546875 34.515625 10.03125 39.859375 
Q 5.515625 45.21875 5.515625 54.390625 
Q 5.515625 63.484375 10.046875 68.84375 
Q 14.59375 74.21875 22.3125 74.21875 
z
" id="DejaVuSans-37"/>
      </defs>
      <use xlink:href="#DejaVuSans-65"/>
      <use x="64.783203" xlink:href="#DejaVuSans-102"/>
      <use x="98.238281" xlink:href="#DejaVuSans-119"/>
      <use x="180.025391" xlink:href="#DejaVuSans-105"/>
      <use x="207.808594" xlink:href="#DejaVuSans-106"/>
      <use x="235.591797" xlink:href="#DejaVuSans-107"/>
      <use x="293.501953" xlink:href="#DejaVuSans-105"/>
      <use x="321.285156" xlink:href="#DejaVuSans-110"/>
      <use x="384.664062" xlink:href="#DejaVuSans-103"/>
      <use x="448.140625" xlink:href="#DejaVuSans-32"/>
      <use x="479.927734" xlink:href="#DejaVuSans-82"/>
      <use x="549.410156" xlink:href="#DejaVuSans-78"/>
      <use x="624.214844" xlink:href="#DejaVuSans-65"/>
      <use x="692.623047" xlink:href="#DejaVuSans-32"/>
      <use x="724.410156" xlink:href="#DejaVuSans-116"/>
      <use x="763.619141" xlink:href="#DejaVuSans-46"/>
      <use x="795.40625" xlink:href="#DejaVuSans-111"/>
      <use x="854.837891" xlink:href="#DejaVuSans-46"/>
      <use x="886.625" xlink:href="#DejaVuSans-118"/>
      <use x="938.054688" xlink:href="#DejaVuSans-46"/>
      <use x="969.841797" xlink:href="#DejaVuSans-32"/>
      <use x="1001.628906" xlink:href="#DejaVuSans-82"/>
      <use x="1071.111328" xlink:href="#DejaVuSans-73"/>
      <use x="1100.603516" xlink:href="#DejaVuSans-86"/>
      <use x="1169.011719" xlink:href="#DejaVuSans-77"/>
      <use x="1255.291016" xlink:href="#DejaVuSans-32"/>
      <use x="1287.078125" xlink:href="#DejaVuSans-115"/>
      <use x="1339.177734" xlink:href="#DejaVuSans-99"/>
      <use x="1394.158203" xlink:href="#DejaVuSans-104"/>
      <use x="1457.537109" xlink:href="#DejaVuSans-97"/>
      <use x="1518.816406" xlink:href="#DejaVuSans-116"/>
      <use x="1558.025391" xlink:href="#DejaVuSans-116"/>
      <use x="1597.234375" xlink:href="#DejaVuSans-105"/>
      <use x="1625.017578" xlink:href="#DejaVuSans-110"/>
      <use x="1688.396484" xlink:href="#DejaVuSans-103"/>
      <use x="1751.873047" xlink:href="#DejaVuSans-32"/>
      <use x="1783.660156" xlink:href="#DejaVuSans-105"/>
      <use x="1811.443359" xlink:href="#DejaVuSans-110"/>
      <use x="1874.822266" xlink:href="#DejaVuSans-32"/>
      <use x="1906.609375" xlink:href="#DejaVuSans-37"/>
     </g>
    </g>
   </g>
  </g>
 </g>
 <defs>
  <clipPath id="p06f70bee83">
   <rect height="284.4" width="590.4" x="64.8" y="28.8"/>
  </clipPath>
 </defs>
</svg>
