<?xml version="1.0" encoding="utf-8" standalone="no"?>
<!DOCTYPE svg PUBLIC "-//W3C//DTD SVG 1.1//EN"
  "http://www.w3.org/Graphics/SVG/1.1/DTD/svg11.dtd">
<!-- Created with matplotlib (https://matplotlib.org/) -->
<svg height="360pt" version="1.1" viewBox="0 0 720 360" width="720pt" xmlns="http://www.w3.org/2000/svg" xmlns:xlink="http://www.w3.org/1999/xlink">
 <metadata>
  <rdf:RDF xmlns:cc="http://creativecommons.org/ns#" xmlns:dc="http://purl.org/dc/elements/1.1/" xmlns:rdf="http://www.w3.org/1999/02/22-rdf-syntax-ns#">
   <cc:Work>
    <dc:type rdf:resource="http://purl.org/dc/dcmitype/StillImage"/>
    <dc:date>2021-06-09T17:43:05.482845</dc:date>
    <dc:format>image/svg+xml</dc:format>
    <dc:creator>
     <cc:Agent>
      <dc:title>Matplotlib v3.3.2, https://matplotlib.org/</dc:title>
     </cc:Agent>
    </dc:creator>
   </cc:Work>
  </rdf:RDF>
 </metadata>
 <defs>
  <style type="text/css">*{stroke-linecap:butt;stroke-linejoin:round;}</style>
 </defs>
 <g id="figure_1">
  <g id="patch_1">
   <path d="M 0 360 
L 720 360 
L 720 0 
L 0 0 
z
" style="fill:#ffffff;"/>
  </g>
  <g id="axes_1">
   <g id="patch_2">
    <path d="M 64.8 313.2 
L 655.2 313.2 
L 655.2 28.8 
L 64.8 28.8 
z
" style="fill:#ffffff;"/>
   </g>
   <g id="PolyCollection_1">
    <path clip-path="url(#pb845a1bb23)" d="M 210.28134 308.39197 
L 210.28134 308.39197 
L 211.411292 308.502455 
L 212.541244 308.61294 
L 213.671196 308.723425 
L 214.801148 308.833911 
L 215.9311 308.944396 
L 217.061053 309.054881 
L 218.191005 309.149291 
L 219.320957 309.240283 
L 220.450909 309.337546 
L 221.580861 309.438485 
L 224.970718 309.541508 
L 226.10067 309.637479 
L 227.230622 309.728437 
L 228.360574 309.809643 
L 232.880383 309.87629 
L 234.010335 309.907814 
L 235.140287 309.917516 
L 239.660096 309.927516 
L 240.790048 309.912428 
L 241.92 309.857961 
L 243.049952 309.781284 
L 245.309856 309.659229 
L 249.829665 309.507439 
L 250.959617 309.333619 
L 252.089569 309.140291 
L 257.73933 308.908657 
L 258.869282 308.653781 
L 261.129187 308.36215 
L 263.389091 308.061338 
L 264.519043 307.757539 
L 265.648995 307.430597 
L 266.778947 307.105313 
L 267.9089 306.787936 
L 269.038852 306.459996 
L 270.168804 306.144909 
L 271.298756 305.835157 
L 272.428708 305.50994 
L 273.55866 305.188676 
L 274.688612 304.88625 
L 275.818565 304.587418 
L 276.948517 304.319608 
L 278.078469 304.05734 
L 279.208421 303.792173 
L 280.338373 303.555457 
L 281.468325 303.352426 
L 282.598278 303.185669 
L 283.72823 303.042818 
L 284.858182 302.908875 
L 285.988134 302.779301 
L 288.248038 302.673246 
L 289.37799 302.585682 
L 290.507943 302.531702 
L 291.637895 302.511542 
L 292.767847 302.485915 
L 293.897799 302.479703 
L 295.027751 302.499635 
L 296.157703 302.493953 
L 297.287656 302.477952 
L 298.417608 302.463087 
L 299.54756 302.44922 
L 300.677512 302.437234 
L 301.807464 302.413326 
L 302.937416 302.383967 
L 304.067368 302.304735 
L 305.197321 302.180342 
L 306.327273 301.99811 
L 307.457225 301.7837 
L 308.587177 301.519647 
L 309.717129 301.172142 
L 310.847081 300.798048 
L 311.977033 300.369248 
L 313.106986 299.88129 
L 314.236938 299.356011 
L 315.36689 298.757977 
L 316.496842 298.114354 
L 317.626794 297.394024 
L 318.756746 296.66144 
L 319.886699 295.881336 
L 321.016651 295.121517 
L 322.146603 294.375269 
L 323.276555 293.614531 
L 324.406507 292.837098 
L 325.536459 292.030462 
L 326.666411 291.188992 
L 327.796364 290.312751 
L 328.926316 289.40439 
L 330.056268 288.517867 
L 331.18622 287.595553 
L 332.316172 286.662339 
L 333.446124 285.695407 
L 334.576077 284.708845 
L 335.706029 283.628637 
L 336.835981 282.464487 
L 337.965933 281.254885 
L 339.095885 279.967494 
L 340.225837 278.545771 
L 341.355789 277.021467 
L 342.485742 275.349055 
L 343.615694 273.557316 
L 344.745646 271.639277 
L 345.875598 269.670462 
L 347.00555 267.595956 
L 348.135502 265.42357 
L 349.265455 263.160518 
L 350.395407 260.860301 
L 351.525359 258.504785 
L 352.655311 256.157034 
L 353.785263 253.886899 
L 354.915215 251.69589 
L 356.045167 249.571541 
L 357.17512 247.52767 
L 358.305072 245.548777 
L 359.435024 243.667628 
L 360.564976 241.84614 
L 361.694928 240.173713 
L 362.82488 238.586204 
L 363.954833 237.071803 
L 365.084785 235.608352 
L 366.214737 234.270627 
L 367.344689 233.024357 
L 368.474641 231.943477 
L 369.604593 231.131578 
L 370.734545 230.493878 
L 371.864498 230.179459 
L 372.99445 230.134222 
L 374.124402 230.289438 
L 375.254354 230.712601 
L 376.384306 231.396291 
L 377.514258 232.42275 
L 378.644211 233.723922 
L 379.774163 235.300029 
L 380.904115 237.025752 
L 382.034067 238.807247 
L 383.164019 240.566957 
L 384.293971 242.295381 
L 385.423923 244.112131 
L 386.553876 245.780759 
L 387.683828 247.333631 
L 388.81378 248.811315 
L 389.943732 250.119099 
L 391.073684 251.221714 
L 392.203636 252.132784 
L 393.333589 253.025608 
L 394.463541 253.761338 
L 395.593493 254.422316 
L 396.723445 255.075808 
L 397.853397 255.694087 
L 398.983349 256.232609 
L 400.113301 256.745531 
L 401.243254 257.337983 
L 402.373206 257.862127 
L 403.503158 258.311621 
L 404.63311 258.68438 
L 405.763062 258.945584 
L 406.893014 259.061634 
L 408.022967 258.999629 
L 409.152919 258.917953 
L 410.282871 258.690387 
L 411.412823 258.273847 
L 412.542775 257.635866 
L 413.672727 256.736654 
L 414.802679 255.4685 
L 415.932632 253.924412 
L 417.062584 252.345904 
L 418.192536 250.544816 
L 419.322488 248.617313 
L 420.45244 246.602206 
L 421.582392 244.449134 
L 422.712344 242.085189 
L 423.842297 239.625589 
L 424.972249 237.23599 
L 426.102201 234.790604 
L 427.232153 232.474555 
L 428.362105 230.250719 
L 429.492057 228.492172 
L 430.62201 227.020642 
L 431.751962 225.751345 
L 432.881914 224.930517 
L 434.011866 224.383303 
L 435.141818 224.097178 
L 436.27177 224.177493 
L 437.401722 224.751005 
L 438.531675 225.523079 
L 439.661627 226.474157 
L 440.791579 227.777315 
L 441.921531 229.300336 
L 443.051483 231.183861 
L 444.181435 232.701117 
L 445.311388 234.078073 
L 446.44134 235.392415 
L 447.571292 236.656636 
L 448.701244 237.941114 
L 449.831196 239.358351 
L 452.0911 240.729204 
L 453.221053 241.769205 
L 454.351005 242.770139 
L 455.480957 243.728337 
L 456.610909 244.752856 
L 457.740861 245.708868 
L 458.870813 246.524298 
L 460.000766 247.576238 
L 461.130718 248.653984 
L 462.26067 249.625873 
L 463.390622 250.501938 
L 464.520574 251.428833 
L 465.650526 252.168046 
L 466.780478 252.914486 
L 467.910431 253.800035 
L 469.040383 254.6487 
L 470.170335 255.414629 
L 471.300287 256.057707 
L 472.430239 256.753035 
L 473.560191 257.425995 
L 474.690144 258.095695 
L 475.820096 258.815488 
L 476.950048 259.601391 
L 478.08 260.360829 
L 479.209952 261.004668 
L 480.339904 261.932761 
L 481.469856 262.795832 
L 482.599809 263.614361 
L 483.729761 264.423812 
L 484.859713 265.205176 
L 485.989665 265.878462 
L 487.119617 266.457771 
L 488.249569 267.061835 
L 489.379522 267.658933 
L 490.509474 268.166273 
L 491.639426 268.617192 
L 492.769378 268.960576 
L 493.89933 269.208358 
L 495.029282 268.95035 
L 496.159234 268.638063 
L 497.289187 268.254016 
L 498.419139 267.823808 
L 499.549091 267.354542 
L 500.679043 266.822962 
L 501.808995 266.197463 
L 502.938947 265.445245 
L 504.0689 264.581606 
L 505.198852 263.752737 
L 506.328804 262.954767 
L 507.458756 262.249026 
L 508.588708 261.584311 
L 509.71866 261.104467 
L 510.848612 260.662979 
L 511.978565 260.3302 
L 513.108517 259.973062 
L 514.238469 259.638604 
L 515.368421 259.267421 
L 516.498373 258.803898 
L 517.628325 258.310473 
L 518.758278 257.812576 
L 519.88823 257.306397 
L 521.018182 256.689899 
L 522.148134 255.964867 
L 523.278086 255.120464 
L 524.408038 254.144193 
L 525.53799 253.080523 
L 526.667943 251.920113 
L 527.797895 250.763165 
L 528.927847 249.51457 
L 530.057799 248.295114 
L 531.187751 247.094958 
L 532.317703 245.81644 
L 533.447656 244.454614 
L 534.577608 243.075771 
L 535.70756 241.855025 
L 536.837512 240.658552 
L 537.967464 239.572386 
L 539.097416 238.626833 
L 540.227368 237.64029 
L 541.357321 236.67646 
L 542.487273 235.888744 
L 543.617225 235.419599 
L 544.747177 235.101322 
L 545.877129 234.944008 
L 547.007081 234.94054 
L 548.137033 235.041924 
L 549.266986 235.149663 
L 550.396938 235.164523 
L 551.52689 235.3754 
L 552.656842 235.606324 
L 553.786794 235.828381 
L 554.916746 236.152335 
L 556.046699 236.397871 
L 557.176651 236.418521 
L 558.306603 236.155109 
L 559.436555 235.849806 
L 560.566507 235.46604 
L 561.696459 235.067642 
L 562.826411 234.66257 
L 563.956364 234.198064 
L 565.086316 233.815409 
L 566.216268 233.353059 
L 567.34622 233.002547 
L 568.476172 232.712006 
L 569.606124 232.484849 
L 570.736077 232.380922 
L 571.866029 232.373131 
L 572.995981 232.577534 
L 574.125933 232.980154 
L 575.255885 233.722466 
L 576.385837 234.556942 
L 577.515789 235.491804 
L 578.645742 236.554779 
L 579.775694 237.588046 
L 580.905646 238.630001 
L 582.035598 239.67163 
L 583.16555 240.829614 
L 584.295502 241.976963 
L 585.425455 243.190089 
L 586.555407 244.563099 
L 587.685359 245.787731 
L 588.815311 246.747793 
L 589.945263 247.474689 
L 591.075215 248.359179 
L 592.205167 249.274103 
L 593.33512 250.282281 
L 594.465072 251.387318 
L 595.595024 252.545325 
L 596.724976 253.753767 
L 597.854928 254.925484 
L 598.98488 256.358002 
L 600.114833 257.873177 
L 601.244785 259.290825 
L 602.374737 260.793706 
L 603.504689 262.388155 
L 604.634641 263.996469 
L 605.764593 265.484722 
L 606.894545 267.088216 
L 608.024498 268.634743 
L 609.15445 270.166322 
L 610.284402 271.646713 
L 611.414354 272.986785 
L 612.544306 274.335426 
L 613.674258 275.441389 
L 614.804211 276.509359 
L 615.934163 277.655017 
L 617.064115 278.873936 
L 618.194067 280.175733 
L 619.324019 281.535034 
L 620.453971 282.911797 
L 621.583923 284.160236 
L 622.713876 285.408674 
L 623.843828 286.657113 
L 624.97378 287.905552 
L 626.103732 289.15399 
L 628.363636 290.402429 
L 628.363636 290.402429 
L 628.363636 270.861654 
L 626.103732 268.543125 
L 624.97378 266.224596 
L 623.843828 263.906067 
L 622.713876 261.587538 
L 621.583923 259.269009 
L 620.453971 256.95048 
L 619.324019 254.393635 
L 618.194067 251.869218 
L 617.064115 249.451596 
L 615.934163 247.187889 
L 614.804211 245.060237 
L 613.674258 243.076866 
L 612.544306 241.022934 
L 611.414354 238.518315 
L 610.284402 236.029609 
L 609.15445 233.280312 
L 608.024498 230.435951 
L 606.894545 227.56383 
L 605.764593 224.585912 
L 604.634641 221.822014 
L 603.504689 218.835145 
L 602.374737 215.874025 
L 601.244785 213.08296 
L 600.114833 210.450186 
L 598.98488 207.63629 
L 597.854928 204.975898 
L 596.724976 202.799853 
L 595.595024 200.555603 
L 594.465072 198.405019 
L 593.33512 196.352808 
L 592.205167 194.480478 
L 591.075215 192.781333 
L 589.945263 191.138708 
L 588.815311 189.788758 
L 587.685359 188.005787 
L 586.555407 185.731469 
L 585.425455 183.181595 
L 584.295502 180.928646 
L 583.16555 178.797855 
L 582.035598 176.647313 
L 580.905646 174.712859 
L 579.775694 172.7778 
L 578.645742 170.858875 
L 577.515789 168.884779 
L 576.385837 167.148607 
L 575.255885 165.598865 
L 574.125933 164.220286 
L 572.995981 163.472564 
L 571.866029 163.092957 
L 570.736077 163.107426 
L 569.606124 163.300435 
L 568.476172 163.722297 
L 567.34622 164.261873 
L 566.216268 164.912823 
L 565.086316 165.771473 
L 563.956364 166.482118 
L 562.826411 167.344773 
L 561.696459 168.09705 
L 560.566507 168.836931 
L 559.436555 169.54964 
L 558.306603 170.116631 
L 557.176651 170.605824 
L 556.046699 170.567476 
L 554.916746 170.111479 
L 553.786794 169.50985 
L 552.656842 169.097459 
L 551.52689 168.668599 
L 550.396938 168.276971 
L 549.266986 168.249373 
L 548.137033 168.049287 
L 547.007081 167.861003 
L 545.877129 167.867444 
L 544.747177 168.159599 
L 543.617225 168.750684 
L 542.487273 169.621954 
L 541.357321 171.084854 
L 540.227368 172.874824 
L 539.097416 174.706975 
L 537.967464 176.463003 
L 536.837512 178.480168 
L 535.70756 180.70219 
L 534.577608 182.969288 
L 533.447656 185.529998 
L 532.317703 188.059102 
L 531.187751 190.433493 
L 530.057799 192.662355 
L 528.927847 194.927059 
L 527.797895 197.245878 
L 526.667943 199.394496 
L 525.53799 201.549542 
L 524.408038 203.524931 
L 523.278086 205.338004 
L 522.148134 206.906182 
L 521.018182 208.25267 
L 519.88823 209.397595 
L 518.758278 210.337641 
L 517.628325 211.262307 
L 516.498373 212.178668 
L 515.368421 213.039496 
L 514.238469 213.728836 
L 513.108517 214.349973 
L 511.978565 215.013229 
L 510.848612 215.631247 
L 509.71866 216.451153 
L 508.588708 217.342292 
L 507.458756 218.576763 
L 506.328804 219.887424 
L 505.198852 221.369368 
L 504.0689 222.908696 
L 502.938947 224.512598 
L 501.808995 225.909574 
L 500.679043 227.071215 
L 499.549091 228.058434 
L 498.419139 228.929929 
L 497.289187 229.728887 
L 496.159234 230.442118 
L 495.029282 231.022079 
L 493.89933 231.501237 
L 492.769378 231.041069 
L 491.639426 230.403357 
L 490.509474 229.565935 
L 489.379522 228.623733 
L 488.249569 227.514836 
L 487.119617 226.393003 
L 485.989665 225.317145 
L 484.859713 224.066755 
L 483.729761 222.615651 
L 482.599809 221.112384 
L 481.469856 219.59226 
L 480.339904 217.989413 
L 479.209952 216.265813 
L 478.08 215.070112 
L 476.950048 213.659727 
L 475.820096 212.200192 
L 474.690144 210.863434 
L 473.560191 209.619706 
L 472.430239 208.369923 
L 471.300287 207.078599 
L 470.170335 205.884311 
L 469.040383 204.461872 
L 467.910431 202.885779 
L 466.780478 201.241188 
L 465.650526 199.854943 
L 464.520574 198.482118 
L 463.390622 196.760742 
L 462.26067 195.133765 
L 461.130718 193.328828 
L 460.000766 191.327299 
L 458.870813 189.373697 
L 457.740861 187.859327 
L 456.610909 186.083875 
L 455.480957 184.181198 
L 454.351005 182.401688 
L 453.221053 180.542809 
L 452.0911 178.611378 
L 449.831196 176.06551 
L 448.701244 173.433497 
L 447.571292 171.048039 
L 446.44134 168.700199 
L 445.311388 166.259279 
L 444.181435 163.702075 
L 443.051483 160.884313 
L 441.921531 157.386338 
L 440.791579 154.557871 
L 439.661627 152.137721 
L 438.531675 150.371433 
L 437.401722 148.93758 
L 436.27177 147.872488 
L 435.141818 147.723331 
L 434.011866 148.254706 
L 432.881914 149.27096 
L 431.751962 150.795356 
L 430.62201 153.152621 
L 429.492057 155.885462 
L 428.362105 159.151335 
L 427.232153 163.281317 
L 426.102201 167.58255 
L 424.972249 172.123981 
L 423.842297 176.561807 
L 422.712344 181.129637 
L 421.582392 185.51982 
L 420.45244 189.518382 
L 419.322488 193.260724 
L 418.192536 196.840373 
L 417.062584 200.185249 
L 415.932632 203.116765 
L 414.802679 205.984358 
L 413.672727 208.339501 
L 412.542775 210.009465 
L 411.412823 211.194287 
L 410.282871 211.967862 
L 409.152919 212.390484 
L 408.022967 212.542169 
L 406.893014 212.65732 
L 405.763062 212.441799 
L 404.63311 211.956705 
L 403.503158 211.264439 
L 402.373206 210.429665 
L 401.243254 209.456253 
L 400.113301 208.355986 
L 398.983349 207.403416 
L 397.853397 206.403304 
L 396.723445 205.255072 
L 395.593493 204.041444 
L 394.463541 202.813914 
L 393.333589 201.447558 
L 392.203636 199.789457 
L 391.073684 198.097469 
L 389.943732 196.049756 
L 388.81378 193.621014 
L 387.683828 190.876743 
L 386.553876 187.992838 
L 385.423923 184.893958 
L 384.293971 181.519994 
L 383.164019 178.310063 
L 382.034067 175.04203 
L 380.904115 171.733539 
L 379.774163 168.528625 
L 378.644211 165.60157 
L 377.514258 163.185107 
L 376.384306 161.278827 
L 375.254354 160.009116 
L 374.124402 159.223241 
L 372.99445 158.934984 
L 371.864498 159.018995 
L 370.734545 159.602917 
L 369.604593 160.787216 
L 368.474641 162.295029 
L 367.344689 164.302378 
L 366.214737 166.616879 
L 365.084785 169.101225 
L 363.954833 171.819062 
L 362.82488 174.631521 
L 361.694928 177.579752 
L 360.564976 180.685689 
L 359.435024 184.068452 
L 358.305072 187.562014 
L 357.17512 191.237102 
L 356.045167 195.032862 
L 354.915215 198.978082 
L 353.785263 203.047097 
L 352.655311 207.263062 
L 351.525359 211.623172 
L 350.395407 215.997701 
L 349.265455 220.269533 
L 348.135502 224.472345 
L 347.00555 228.506775 
L 345.875598 232.35943 
L 344.745646 236.0158 
L 343.615694 239.577872 
L 342.485742 242.905387 
L 341.355789 246.011296 
L 340.225837 248.842146 
L 339.095885 251.482488 
L 337.965933 253.873358 
L 336.835981 256.119762 
L 335.706029 258.281754 
L 334.576077 260.287856 
L 333.446124 262.120041 
L 332.316172 263.915772 
L 331.18622 265.648885 
L 330.056268 267.361754 
L 328.926316 269.008152 
L 327.796364 270.695109 
L 326.666411 272.322413 
L 325.536459 273.885144 
L 324.406507 275.383182 
L 323.276555 276.826986 
L 322.146603 278.239785 
L 321.016651 279.625674 
L 319.886699 281.036768 
L 318.756746 282.485531 
L 317.626794 283.846045 
L 316.496842 285.1838 
L 315.36689 286.3791 
L 314.236938 287.489734 
L 313.106986 288.465254 
L 311.977033 289.371461 
L 310.847081 290.167804 
L 309.717129 290.862549 
L 308.587177 291.507916 
L 307.457225 291.998301 
L 306.327273 292.396489 
L 305.197321 292.734921 
L 304.067368 292.965936 
L 302.937416 293.113081 
L 301.807464 293.167606 
L 300.677512 293.212006 
L 299.54756 293.234265 
L 298.417608 293.260019 
L 297.287656 293.287625 
L 296.157703 293.317342 
L 295.027751 293.327893 
L 293.897799 293.290877 
L 292.767847 293.302413 
L 291.637895 293.350006 
L 290.507943 293.387447 
L 289.37799 293.487694 
L 288.248038 293.650313 
L 285.988134 293.847273 
L 284.858182 294.087911 
L 283.72823 294.336662 
L 282.598278 294.601957 
L 281.468325 294.911649 
L 280.338373 295.288706 
L 279.208421 295.728321 
L 278.078469 296.220775 
L 276.948517 296.707844 
L 275.818565 297.205205 
L 274.688612 297.760179 
L 273.55866 298.321828 
L 272.428708 298.918461 
L 271.298756 299.522435 
L 270.168804 300.097689 
L 269.038852 300.682849 
L 267.9089 301.291881 
L 266.778947 301.881296 
L 265.648995 302.485395 
L 264.519043 303.092572 
L 263.389091 303.656771 
L 261.129187 304.215422 
L 258.869282 304.757021 
L 257.73933 305.230363 
L 252.089569 305.660541 
L 250.959617 306.019579 
L 249.829665 306.342387 
L 245.309856 306.624282 
L 243.049952 306.850956 
L 241.92 306.993357 
L 240.790048 307.094509 
L 239.660096 307.12253 
L 235.140287 307.103959 
L 234.010335 307.085941 
L 232.880383 307.027395 
L 228.360574 306.903622 
L 227.230622 306.752812 
L 226.10067 306.583889 
L 224.970718 306.405657 
L 221.580861 306.214329 
L 220.450909 306.02687 
L 219.320957 305.84624 
L 218.191005 305.677256 
L 217.061053 305.501922 
L 215.9311 305.296735 
L 214.801148 305.091548 
L 213.671196 304.886362 
L 212.541244 304.681175 
L 211.411292 304.475988 
L 210.28134 304.270801 
z
" style="fill:#0000ff;fill-opacity:0.1;"/>
   </g>
   <g id="matplotlib.axis_1">
    <g id="xtick_1">
     <g id="line2d_1">
      <path clip-path="url(#pb845a1bb23)" d="M 106.325742 313.2 
L 106.325742 28.8 
" style="fill:none;stroke:#808080;stroke-dasharray:6.4,1.6,1,1.6;stroke-dashoffset:0;stroke-opacity:0.3;"/>
     </g>
     <g id="line2d_2">
      <defs>
       <path d="M 0 0 
L 0 3.5 
" id="m732fca19f4" style="stroke:#000000;stroke-width:0.8;"/>
      </defs>
      <g>
       <use style="stroke:#000000;stroke-width:0.8;" x="106.325742" xlink:href="#m732fca19f4" y="313.2"/>
      </g>
     </g>
     <g id="text_1">
      <!-- 2020-03 -->
      <g transform="translate(85.434335 327.798437)scale(0.1 -0.1)">
       <defs>
        <path d="M 19.1875 8.296875 
L 53.609375 8.296875 
L 53.609375 0 
L 7.328125 0 
L 7.328125 8.296875 
Q 12.9375 14.109375 22.625 23.890625 
Q 32.328125 33.6875 34.8125 36.53125 
Q 39.546875 41.84375 41.421875 45.53125 
Q 43.3125 49.21875 43.3125 52.78125 
Q 43.3125 58.59375 39.234375 62.25 
Q 35.15625 65.921875 28.609375 65.921875 
Q 23.96875 65.921875 18.8125 64.3125 
Q 13.671875 62.703125 7.8125 59.421875 
L 7.8125 69.390625 
Q 13.765625 71.78125 18.9375 73 
Q 24.125 74.21875 28.421875 74.21875 
Q 39.75 74.21875 46.484375 68.546875 
Q 53.21875 62.890625 53.21875 53.421875 
Q 53.21875 48.921875 51.53125 44.890625 
Q 49.859375 40.875 45.40625 35.40625 
Q 44.1875 33.984375 37.640625 27.21875 
Q 31.109375 20.453125 19.1875 8.296875 
z
" id="DejaVuSans-50"/>
        <path d="M 31.78125 66.40625 
Q 24.171875 66.40625 20.328125 58.90625 
Q 16.5 51.421875 16.5 36.375 
Q 16.5 21.390625 20.328125 13.890625 
Q 24.171875 6.390625 31.78125 6.390625 
Q 39.453125 6.390625 43.28125 13.890625 
Q 47.125 21.390625 47.125 36.375 
Q 47.125 51.421875 43.28125 58.90625 
Q 39.453125 66.40625 31.78125 66.40625 
z
M 31.78125 74.21875 
Q 44.046875 74.21875 50.515625 64.515625 
Q 56.984375 54.828125 56.984375 36.375 
Q 56.984375 17.96875 50.515625 8.265625 
Q 44.046875 -1.421875 31.78125 -1.421875 
Q 19.53125 -1.421875 13.0625 8.265625 
Q 6.59375 17.96875 6.59375 36.375 
Q 6.59375 54.828125 13.0625 64.515625 
Q 19.53125 74.21875 31.78125 74.21875 
z
" id="DejaVuSans-48"/>
        <path d="M 4.890625 31.390625 
L 31.203125 31.390625 
L 31.203125 23.390625 
L 4.890625 23.390625 
z
" id="DejaVuSans-45"/>
        <path d="M 40.578125 39.3125 
Q 47.65625 37.796875 51.625 33 
Q 55.609375 28.21875 55.609375 21.1875 
Q 55.609375 10.40625 48.1875 4.484375 
Q 40.765625 -1.421875 27.09375 -1.421875 
Q 22.515625 -1.421875 17.65625 -0.515625 
Q 12.796875 0.390625 7.625 2.203125 
L 7.625 11.71875 
Q 11.71875 9.328125 16.59375 8.109375 
Q 21.484375 6.890625 26.8125 6.890625 
Q 36.078125 6.890625 40.9375 10.546875 
Q 45.796875 14.203125 45.796875 21.1875 
Q 45.796875 27.640625 41.28125 31.265625 
Q 36.765625 34.90625 28.71875 34.90625 
L 20.21875 34.90625 
L 20.21875 43.015625 
L 29.109375 43.015625 
Q 36.375 43.015625 40.234375 45.921875 
Q 44.09375 48.828125 44.09375 54.296875 
Q 44.09375 59.90625 40.109375 62.90625 
Q 36.140625 65.921875 28.71875 65.921875 
Q 24.65625 65.921875 20.015625 65.03125 
Q 15.375 64.15625 9.8125 62.3125 
L 9.8125 71.09375 
Q 15.4375 72.65625 20.34375 73.4375 
Q 25.25 74.21875 29.59375 74.21875 
Q 40.828125 74.21875 47.359375 69.109375 
Q 53.90625 64.015625 53.90625 55.328125 
Q 53.90625 49.265625 50.4375 45.09375 
Q 46.96875 40.921875 40.578125 39.3125 
z
" id="DejaVuSans-51"/>
       </defs>
       <use xlink:href="#DejaVuSans-50"/>
       <use x="63.623047" xlink:href="#DejaVuSans-48"/>
       <use x="127.246094" xlink:href="#DejaVuSans-50"/>
       <use x="190.869141" xlink:href="#DejaVuSans-48"/>
       <use x="254.492188" xlink:href="#DejaVuSans-45"/>
       <use x="290.576172" xlink:href="#DejaVuSans-48"/>
       <use x="354.199219" xlink:href="#DejaVuSans-51"/>
      </g>
     </g>
    </g>
    <g id="xtick_2">
     <g id="line2d_3">
      <path clip-path="url(#pb845a1bb23)" d="M 175.252823 313.2 
L 175.252823 28.8 
" style="fill:none;stroke:#808080;stroke-dasharray:6.4,1.6,1,1.6;stroke-dashoffset:0;stroke-opacity:0.3;"/>
     </g>
     <g id="line2d_4">
      <g>
       <use style="stroke:#000000;stroke-width:0.8;" x="175.252823" xlink:href="#m732fca19f4" y="313.2"/>
      </g>
     </g>
     <g id="text_2">
      <!-- 2020-05 -->
      <g transform="translate(154.361417 327.798437)scale(0.1 -0.1)">
       <defs>
        <path d="M 10.796875 72.90625 
L 49.515625 72.90625 
L 49.515625 64.59375 
L 19.828125 64.59375 
L 19.828125 46.734375 
Q 21.96875 47.46875 24.109375 47.828125 
Q 26.265625 48.1875 28.421875 48.1875 
Q 40.625 48.1875 47.75 41.5 
Q 54.890625 34.8125 54.890625 23.390625 
Q 54.890625 11.625 47.5625 5.09375 
Q 40.234375 -1.421875 26.90625 -1.421875 
Q 22.3125 -1.421875 17.546875 -0.640625 
Q 12.796875 0.140625 7.71875 1.703125 
L 7.71875 11.625 
Q 12.109375 9.234375 16.796875 8.0625 
Q 21.484375 6.890625 26.703125 6.890625 
Q 35.15625 6.890625 40.078125 11.328125 
Q 45.015625 15.765625 45.015625 23.390625 
Q 45.015625 31 40.078125 35.4375 
Q 35.15625 39.890625 26.703125 39.890625 
Q 22.75 39.890625 18.8125 39.015625 
Q 14.890625 38.140625 10.796875 36.28125 
z
" id="DejaVuSans-53"/>
       </defs>
       <use xlink:href="#DejaVuSans-50"/>
       <use x="63.623047" xlink:href="#DejaVuSans-48"/>
       <use x="127.246094" xlink:href="#DejaVuSans-50"/>
       <use x="190.869141" xlink:href="#DejaVuSans-48"/>
       <use x="254.492188" xlink:href="#DejaVuSans-45"/>
       <use x="290.576172" xlink:href="#DejaVuSans-48"/>
       <use x="354.199219" xlink:href="#DejaVuSans-53"/>
      </g>
     </g>
    </g>
    <g id="xtick_3">
     <g id="line2d_5">
      <path clip-path="url(#pb845a1bb23)" d="M 244.179904 313.2 
L 244.179904 28.8 
" style="fill:none;stroke:#808080;stroke-dasharray:6.4,1.6,1,1.6;stroke-dashoffset:0;stroke-opacity:0.3;"/>
     </g>
     <g id="line2d_6">
      <g>
       <use style="stroke:#000000;stroke-width:0.8;" x="244.179904" xlink:href="#m732fca19f4" y="313.2"/>
      </g>
     </g>
     <g id="text_3">
      <!-- 2020-07 -->
      <g transform="translate(223.288498 327.798437)scale(0.1 -0.1)">
       <defs>
        <path d="M 8.203125 72.90625 
L 55.078125 72.90625 
L 55.078125 68.703125 
L 28.609375 0 
L 18.3125 0 
L 43.21875 64.59375 
L 8.203125 64.59375 
z
" id="DejaVuSans-55"/>
       </defs>
       <use xlink:href="#DejaVuSans-50"/>
       <use x="63.623047" xlink:href="#DejaVuSans-48"/>
       <use x="127.246094" xlink:href="#DejaVuSans-50"/>
       <use x="190.869141" xlink:href="#DejaVuSans-48"/>
       <use x="254.492188" xlink:href="#DejaVuSans-45"/>
       <use x="290.576172" xlink:href="#DejaVuSans-48"/>
       <use x="354.199219" xlink:href="#DejaVuSans-55"/>
      </g>
     </g>
    </g>
    <g id="xtick_4">
     <g id="line2d_7">
      <path clip-path="url(#pb845a1bb23)" d="M 314.236938 313.2 
L 314.236938 28.8 
" style="fill:none;stroke:#808080;stroke-dasharray:6.4,1.6,1,1.6;stroke-dashoffset:0;stroke-opacity:0.3;"/>
     </g>
     <g id="line2d_8">
      <g>
       <use style="stroke:#000000;stroke-width:0.8;" x="314.236938" xlink:href="#m732fca19f4" y="313.2"/>
      </g>
     </g>
     <g id="text_4">
      <!-- 2020-09 -->
      <g transform="translate(293.345532 327.798437)scale(0.1 -0.1)">
       <defs>
        <path d="M 10.984375 1.515625 
L 10.984375 10.5 
Q 14.703125 8.734375 18.5 7.8125 
Q 22.3125 6.890625 25.984375 6.890625 
Q 35.75 6.890625 40.890625 13.453125 
Q 46.046875 20.015625 46.78125 33.40625 
Q 43.953125 29.203125 39.59375 26.953125 
Q 35.25 24.703125 29.984375 24.703125 
Q 19.046875 24.703125 12.671875 31.3125 
Q 6.296875 37.9375 6.296875 49.421875 
Q 6.296875 60.640625 12.9375 67.421875 
Q 19.578125 74.21875 30.609375 74.21875 
Q 43.265625 74.21875 49.921875 64.515625 
Q 56.59375 54.828125 56.59375 36.375 
Q 56.59375 19.140625 48.40625 8.859375 
Q 40.234375 -1.421875 26.421875 -1.421875 
Q 22.703125 -1.421875 18.890625 -0.6875 
Q 15.09375 0.046875 10.984375 1.515625 
z
M 30.609375 32.421875 
Q 37.25 32.421875 41.125 36.953125 
Q 45.015625 41.5 45.015625 49.421875 
Q 45.015625 57.28125 41.125 61.84375 
Q 37.25 66.40625 30.609375 66.40625 
Q 23.96875 66.40625 20.09375 61.84375 
Q 16.21875 57.28125 16.21875 49.421875 
Q 16.21875 41.5 20.09375 36.953125 
Q 23.96875 32.421875 30.609375 32.421875 
z
" id="DejaVuSans-57"/>
       </defs>
       <use xlink:href="#DejaVuSans-50"/>
       <use x="63.623047" xlink:href="#DejaVuSans-48"/>
       <use x="127.246094" xlink:href="#DejaVuSans-50"/>
       <use x="190.869141" xlink:href="#DejaVuSans-48"/>
       <use x="254.492188" xlink:href="#DejaVuSans-45"/>
       <use x="290.576172" xlink:href="#DejaVuSans-48"/>
       <use x="354.199219" xlink:href="#DejaVuSans-57"/>
      </g>
     </g>
    </g>
    <g id="xtick_5">
     <g id="line2d_9">
      <path clip-path="url(#pb845a1bb23)" d="M 383.164019 313.2 
L 383.164019 28.8 
" style="fill:none;stroke:#808080;stroke-dasharray:6.4,1.6,1,1.6;stroke-dashoffset:0;stroke-opacity:0.3;"/>
     </g>
     <g id="line2d_10">
      <g>
       <use style="stroke:#000000;stroke-width:0.8;" x="383.164019" xlink:href="#m732fca19f4" y="313.2"/>
      </g>
     </g>
     <g id="text_5">
      <!-- 2020-11 -->
      <g transform="translate(362.272613 327.798437)scale(0.1 -0.1)">
       <defs>
        <path d="M 12.40625 8.296875 
L 28.515625 8.296875 
L 28.515625 63.921875 
L 10.984375 60.40625 
L 10.984375 69.390625 
L 28.421875 72.90625 
L 38.28125 72.90625 
L 38.28125 8.296875 
L 54.390625 8.296875 
L 54.390625 0 
L 12.40625 0 
z
" id="DejaVuSans-49"/>
       </defs>
       <use xlink:href="#DejaVuSans-50"/>
       <use x="63.623047" xlink:href="#DejaVuSans-48"/>
       <use x="127.246094" xlink:href="#DejaVuSans-50"/>
       <use x="190.869141" xlink:href="#DejaVuSans-48"/>
       <use x="254.492188" xlink:href="#DejaVuSans-45"/>
       <use x="290.576172" xlink:href="#DejaVuSans-49"/>
       <use x="354.199219" xlink:href="#DejaVuSans-49"/>
      </g>
     </g>
    </g>
    <g id="xtick_6">
     <g id="line2d_11">
      <path clip-path="url(#pb845a1bb23)" d="M 452.0911 313.2 
L 452.0911 28.8 
" style="fill:none;stroke:#808080;stroke-dasharray:6.4,1.6,1,1.6;stroke-dashoffset:0;stroke-opacity:0.3;"/>
     </g>
     <g id="line2d_12">
      <g>
       <use style="stroke:#000000;stroke-width:0.8;" x="452.0911" xlink:href="#m732fca19f4" y="313.2"/>
      </g>
     </g>
     <g id="text_6">
      <!-- 2021-01 -->
      <g transform="translate(431.199694 327.798437)scale(0.1 -0.1)">
       <use xlink:href="#DejaVuSans-50"/>
       <use x="63.623047" xlink:href="#DejaVuSans-48"/>
       <use x="127.246094" xlink:href="#DejaVuSans-50"/>
       <use x="190.869141" xlink:href="#DejaVuSans-49"/>
       <use x="254.492188" xlink:href="#DejaVuSans-45"/>
       <use x="290.576172" xlink:href="#DejaVuSans-48"/>
       <use x="354.199219" xlink:href="#DejaVuSans-49"/>
      </g>
     </g>
    </g>
    <g id="xtick_7">
     <g id="line2d_13">
      <path clip-path="url(#pb845a1bb23)" d="M 518.758278 313.2 
L 518.758278 28.8 
" style="fill:none;stroke:#808080;stroke-dasharray:6.4,1.6,1,1.6;stroke-dashoffset:0;stroke-opacity:0.3;"/>
     </g>
     <g id="line2d_14">
      <g>
       <use style="stroke:#000000;stroke-width:0.8;" x="518.758278" xlink:href="#m732fca19f4" y="313.2"/>
      </g>
     </g>
     <g id="text_7">
      <!-- 2021-03 -->
      <g transform="translate(497.866871 327.798437)scale(0.1 -0.1)">
       <use xlink:href="#DejaVuSans-50"/>
       <use x="63.623047" xlink:href="#DejaVuSans-48"/>
       <use x="127.246094" xlink:href="#DejaVuSans-50"/>
       <use x="190.869141" xlink:href="#DejaVuSans-49"/>
       <use x="254.492188" xlink:href="#DejaVuSans-45"/>
       <use x="290.576172" xlink:href="#DejaVuSans-48"/>
       <use x="354.199219" xlink:href="#DejaVuSans-51"/>
      </g>
     </g>
    </g>
    <g id="xtick_8">
     <g id="line2d_15">
      <path clip-path="url(#pb845a1bb23)" d="M 587.685359 313.2 
L 587.685359 28.8 
" style="fill:none;stroke:#808080;stroke-dasharray:6.4,1.6,1,1.6;stroke-dashoffset:0;stroke-opacity:0.3;"/>
     </g>
     <g id="line2d_16">
      <g>
       <use style="stroke:#000000;stroke-width:0.8;" x="587.685359" xlink:href="#m732fca19f4" y="313.2"/>
      </g>
     </g>
     <g id="text_8">
      <!-- 2021-05 -->
      <g transform="translate(566.793953 327.798437)scale(0.1 -0.1)">
       <use xlink:href="#DejaVuSans-50"/>
       <use x="63.623047" xlink:href="#DejaVuSans-48"/>
       <use x="127.246094" xlink:href="#DejaVuSans-50"/>
       <use x="190.869141" xlink:href="#DejaVuSans-49"/>
       <use x="254.492188" xlink:href="#DejaVuSans-45"/>
       <use x="290.576172" xlink:href="#DejaVuSans-48"/>
       <use x="354.199219" xlink:href="#DejaVuSans-53"/>
      </g>
     </g>
    </g>
    <g id="text_9">
     <!-- Datum -->
     <g transform="translate(343.086719 341.476562)scale(0.1 -0.1)">
      <defs>
       <path d="M 19.671875 64.796875 
L 19.671875 8.109375 
L 31.59375 8.109375 
Q 46.6875 8.109375 53.6875 14.9375 
Q 60.6875 21.78125 60.6875 36.53125 
Q 60.6875 51.171875 53.6875 57.984375 
Q 46.6875 64.796875 31.59375 64.796875 
z
M 9.8125 72.90625 
L 30.078125 72.90625 
Q 51.265625 72.90625 61.171875 64.09375 
Q 71.09375 55.28125 71.09375 36.53125 
Q 71.09375 17.671875 61.125 8.828125 
Q 51.171875 0 30.078125 0 
L 9.8125 0 
z
" id="DejaVuSans-68"/>
       <path d="M 34.28125 27.484375 
Q 23.390625 27.484375 19.1875 25 
Q 14.984375 22.515625 14.984375 16.5 
Q 14.984375 11.71875 18.140625 8.90625 
Q 21.296875 6.109375 26.703125 6.109375 
Q 34.1875 6.109375 38.703125 11.40625 
Q 43.21875 16.703125 43.21875 25.484375 
L 43.21875 27.484375 
z
M 52.203125 31.203125 
L 52.203125 0 
L 43.21875 0 
L 43.21875 8.296875 
Q 40.140625 3.328125 35.546875 0.953125 
Q 30.953125 -1.421875 24.3125 -1.421875 
Q 15.921875 -1.421875 10.953125 3.296875 
Q 6 8.015625 6 15.921875 
Q 6 25.140625 12.171875 29.828125 
Q 18.359375 34.515625 30.609375 34.515625 
L 43.21875 34.515625 
L 43.21875 35.40625 
Q 43.21875 41.609375 39.140625 45 
Q 35.0625 48.390625 27.6875 48.390625 
Q 23 48.390625 18.546875 47.265625 
Q 14.109375 46.140625 10.015625 43.890625 
L 10.015625 52.203125 
Q 14.9375 54.109375 19.578125 55.046875 
Q 24.21875 56 28.609375 56 
Q 40.484375 56 46.34375 49.84375 
Q 52.203125 43.703125 52.203125 31.203125 
z
" id="DejaVuSans-97"/>
       <path d="M 18.3125 70.21875 
L 18.3125 54.6875 
L 36.8125 54.6875 
L 36.8125 47.703125 
L 18.3125 47.703125 
L 18.3125 18.015625 
Q 18.3125 11.328125 20.140625 9.421875 
Q 21.96875 7.515625 27.59375 7.515625 
L 36.8125 7.515625 
L 36.8125 0 
L 27.59375 0 
Q 17.1875 0 13.234375 3.875 
Q 9.28125 7.765625 9.28125 18.015625 
L 9.28125 47.703125 
L 2.6875 47.703125 
L 2.6875 54.6875 
L 9.28125 54.6875 
L 9.28125 70.21875 
z
" id="DejaVuSans-116"/>
       <path d="M 8.5 21.578125 
L 8.5 54.6875 
L 17.484375 54.6875 
L 17.484375 21.921875 
Q 17.484375 14.15625 20.5 10.265625 
Q 23.53125 6.390625 29.59375 6.390625 
Q 36.859375 6.390625 41.078125 11.03125 
Q 45.3125 15.671875 45.3125 23.6875 
L 45.3125 54.6875 
L 54.296875 54.6875 
L 54.296875 0 
L 45.3125 0 
L 45.3125 8.40625 
Q 42.046875 3.421875 37.71875 1 
Q 33.40625 -1.421875 27.6875 -1.421875 
Q 18.265625 -1.421875 13.375 4.4375 
Q 8.5 10.296875 8.5 21.578125 
z
M 31.109375 56 
z
" id="DejaVuSans-117"/>
       <path d="M 52 44.1875 
Q 55.375 50.25 60.0625 53.125 
Q 64.75 56 71.09375 56 
Q 79.640625 56 84.28125 50.015625 
Q 88.921875 44.046875 88.921875 33.015625 
L 88.921875 0 
L 79.890625 0 
L 79.890625 32.71875 
Q 79.890625 40.578125 77.09375 44.375 
Q 74.3125 48.1875 68.609375 48.1875 
Q 61.625 48.1875 57.5625 43.546875 
Q 53.515625 38.921875 53.515625 30.90625 
L 53.515625 0 
L 44.484375 0 
L 44.484375 32.71875 
Q 44.484375 40.625 41.703125 44.40625 
Q 38.921875 48.1875 33.109375 48.1875 
Q 26.21875 48.1875 22.15625 43.53125 
Q 18.109375 38.875 18.109375 30.90625 
L 18.109375 0 
L 9.078125 0 
L 9.078125 54.6875 
L 18.109375 54.6875 
L 18.109375 46.1875 
Q 21.1875 51.21875 25.484375 53.609375 
Q 29.78125 56 35.6875 56 
Q 41.65625 56 45.828125 52.96875 
Q 50 49.953125 52 44.1875 
z
" id="DejaVuSans-109"/>
      </defs>
      <use xlink:href="#DejaVuSans-68"/>
      <use x="77.001953" xlink:href="#DejaVuSans-97"/>
      <use x="138.28125" xlink:href="#DejaVuSans-116"/>
      <use x="177.490234" xlink:href="#DejaVuSans-117"/>
      <use x="240.869141" xlink:href="#DejaVuSans-109"/>
     </g>
    </g>
   </g>
   <g id="matplotlib.axis_2">
    <g id="ytick_1">
     <g id="line2d_17">
      <path clip-path="url(#pb845a1bb23)" d="M 64.8 313.2 
L 655.2 313.2 
" style="fill:none;stroke:#808080;stroke-dasharray:6.4,1.6,1,1.6;stroke-dashoffset:0;stroke-opacity:0.3;"/>
     </g>
     <g id="line2d_18">
      <defs>
       <path d="M 0 0 
L -3.5 0 
" id="m4ca7af798b" style="stroke:#000000;stroke-width:0.8;"/>
      </defs>
      <g>
       <use style="stroke:#000000;stroke-width:0.8;" x="64.8" xlink:href="#m4ca7af798b" y="313.2"/>
      </g>
     </g>
     <g id="text_10">
      <!-- 0 -->
      <g transform="translate(51.4375 316.999219)scale(0.1 -0.1)">
       <use xlink:href="#DejaVuSans-48"/>
      </g>
     </g>
    </g>
    <g id="ytick_2">
     <g id="line2d_19">
      <path clip-path="url(#pb845a1bb23)" d="M 64.8 277.65 
L 655.2 277.65 
" style="fill:none;stroke:#808080;stroke-dasharray:6.4,1.6,1,1.6;stroke-dashoffset:0;stroke-opacity:0.3;"/>
     </g>
     <g id="line2d_20">
      <g>
       <use style="stroke:#000000;stroke-width:0.8;" x="64.8" xlink:href="#m4ca7af798b" y="277.65"/>
      </g>
     </g>
     <g id="text_11">
      <!-- 50000 -->
      <g transform="translate(25.9875 281.449219)scale(0.1 -0.1)">
       <use xlink:href="#DejaVuSans-53"/>
       <use x="63.623047" xlink:href="#DejaVuSans-48"/>
       <use x="127.246094" xlink:href="#DejaVuSans-48"/>
       <use x="190.869141" xlink:href="#DejaVuSans-48"/>
       <use x="254.492188" xlink:href="#DejaVuSans-48"/>
      </g>
     </g>
    </g>
    <g id="ytick_3">
     <g id="line2d_21">
      <path clip-path="url(#pb845a1bb23)" d="M 64.8 242.1 
L 655.2 242.1 
" style="fill:none;stroke:#808080;stroke-dasharray:6.4,1.6,1,1.6;stroke-dashoffset:0;stroke-opacity:0.3;"/>
     </g>
     <g id="line2d_22">
      <g>
       <use style="stroke:#000000;stroke-width:0.8;" x="64.8" xlink:href="#m4ca7af798b" y="242.1"/>
      </g>
     </g>
     <g id="text_12">
      <!-- 100000 -->
      <g transform="translate(19.625 245.899219)scale(0.1 -0.1)">
       <use xlink:href="#DejaVuSans-49"/>
       <use x="63.623047" xlink:href="#DejaVuSans-48"/>
       <use x="127.246094" xlink:href="#DejaVuSans-48"/>
       <use x="190.869141" xlink:href="#DejaVuSans-48"/>
       <use x="254.492188" xlink:href="#DejaVuSans-48"/>
       <use x="318.115234" xlink:href="#DejaVuSans-48"/>
      </g>
     </g>
    </g>
    <g id="ytick_4">
     <g id="line2d_23">
      <path clip-path="url(#pb845a1bb23)" d="M 64.8 206.55 
L 655.2 206.55 
" style="fill:none;stroke:#808080;stroke-dasharray:6.4,1.6,1,1.6;stroke-dashoffset:0;stroke-opacity:0.3;"/>
     </g>
     <g id="line2d_24">
      <g>
       <use style="stroke:#000000;stroke-width:0.8;" x="64.8" xlink:href="#m4ca7af798b" y="206.55"/>
      </g>
     </g>
     <g id="text_13">
      <!-- 150000 -->
      <g transform="translate(19.625 210.349219)scale(0.1 -0.1)">
       <use xlink:href="#DejaVuSans-49"/>
       <use x="63.623047" xlink:href="#DejaVuSans-53"/>
       <use x="127.246094" xlink:href="#DejaVuSans-48"/>
       <use x="190.869141" xlink:href="#DejaVuSans-48"/>
       <use x="254.492188" xlink:href="#DejaVuSans-48"/>
       <use x="318.115234" xlink:href="#DejaVuSans-48"/>
      </g>
     </g>
    </g>
    <g id="ytick_5">
     <g id="line2d_25">
      <path clip-path="url(#pb845a1bb23)" d="M 64.8 171 
L 655.2 171 
" style="fill:none;stroke:#808080;stroke-dasharray:6.4,1.6,1,1.6;stroke-dashoffset:0;stroke-opacity:0.3;"/>
     </g>
     <g id="line2d_26">
      <g>
       <use style="stroke:#000000;stroke-width:0.8;" x="64.8" xlink:href="#m4ca7af798b" y="171"/>
      </g>
     </g>
     <g id="text_14">
      <!-- 200000 -->
      <g transform="translate(19.625 174.799219)scale(0.1 -0.1)">
       <use xlink:href="#DejaVuSans-50"/>
       <use x="63.623047" xlink:href="#DejaVuSans-48"/>
       <use x="127.246094" xlink:href="#DejaVuSans-48"/>
       <use x="190.869141" xlink:href="#DejaVuSans-48"/>
       <use x="254.492188" xlink:href="#DejaVuSans-48"/>
       <use x="318.115234" xlink:href="#DejaVuSans-48"/>
      </g>
     </g>
    </g>
    <g id="ytick_6">
     <g id="line2d_27">
      <path clip-path="url(#pb845a1bb23)" d="M 64.8 135.45 
L 655.2 135.45 
" style="fill:none;stroke:#808080;stroke-dasharray:6.4,1.6,1,1.6;stroke-dashoffset:0;stroke-opacity:0.3;"/>
     </g>
     <g id="line2d_28">
      <g>
       <use style="stroke:#000000;stroke-width:0.8;" x="64.8" xlink:href="#m4ca7af798b" y="135.45"/>
      </g>
     </g>
     <g id="text_15">
      <!-- 250000 -->
      <g transform="translate(19.625 139.249219)scale(0.1 -0.1)">
       <use xlink:href="#DejaVuSans-50"/>
       <use x="63.623047" xlink:href="#DejaVuSans-53"/>
       <use x="127.246094" xlink:href="#DejaVuSans-48"/>
       <use x="190.869141" xlink:href="#DejaVuSans-48"/>
       <use x="254.492188" xlink:href="#DejaVuSans-48"/>
       <use x="318.115234" xlink:href="#DejaVuSans-48"/>
      </g>
     </g>
    </g>
    <g id="ytick_7">
     <g id="line2d_29">
      <path clip-path="url(#pb845a1bb23)" d="M 64.8 99.9 
L 655.2 99.9 
" style="fill:none;stroke:#808080;stroke-dasharray:6.4,1.6,1,1.6;stroke-dashoffset:0;stroke-opacity:0.3;"/>
     </g>
     <g id="line2d_30">
      <g>
       <use style="stroke:#000000;stroke-width:0.8;" x="64.8" xlink:href="#m4ca7af798b" y="99.9"/>
      </g>
     </g>
     <g id="text_16">
      <!-- 300000 -->
      <g transform="translate(19.625 103.699219)scale(0.1 -0.1)">
       <use xlink:href="#DejaVuSans-51"/>
       <use x="63.623047" xlink:href="#DejaVuSans-48"/>
       <use x="127.246094" xlink:href="#DejaVuSans-48"/>
       <use x="190.869141" xlink:href="#DejaVuSans-48"/>
       <use x="254.492188" xlink:href="#DejaVuSans-48"/>
       <use x="318.115234" xlink:href="#DejaVuSans-48"/>
      </g>
     </g>
    </g>
    <g id="ytick_8">
     <g id="line2d_31">
      <path clip-path="url(#pb845a1bb23)" d="M 64.8 64.35 
L 655.2 64.35 
" style="fill:none;stroke:#808080;stroke-dasharray:6.4,1.6,1,1.6;stroke-dashoffset:0;stroke-opacity:0.3;"/>
     </g>
     <g id="line2d_32">
      <g>
       <use style="stroke:#000000;stroke-width:0.8;" x="64.8" xlink:href="#m4ca7af798b" y="64.35"/>
      </g>
     </g>
     <g id="text_17">
      <!-- 350000 -->
      <g transform="translate(19.625 68.149219)scale(0.1 -0.1)">
       <use xlink:href="#DejaVuSans-51"/>
       <use x="63.623047" xlink:href="#DejaVuSans-53"/>
       <use x="127.246094" xlink:href="#DejaVuSans-48"/>
       <use x="190.869141" xlink:href="#DejaVuSans-48"/>
       <use x="254.492188" xlink:href="#DejaVuSans-48"/>
       <use x="318.115234" xlink:href="#DejaVuSans-48"/>
      </g>
     </g>
    </g>
    <g id="ytick_9">
     <g id="line2d_33">
      <path clip-path="url(#pb845a1bb23)" d="M 64.8 28.8 
L 655.2 28.8 
" style="fill:none;stroke:#808080;stroke-dasharray:6.4,1.6,1,1.6;stroke-dashoffset:0;stroke-opacity:0.3;"/>
     </g>
     <g id="line2d_34">
      <g>
       <use style="stroke:#000000;stroke-width:0.8;" x="64.8" xlink:href="#m4ca7af798b" y="28.8"/>
      </g>
     </g>
     <g id="text_18">
      <!-- 400000 -->
      <g transform="translate(19.625 32.599219)scale(0.1 -0.1)">
       <defs>
        <path d="M 37.796875 64.3125 
L 12.890625 25.390625 
L 37.796875 25.390625 
z
M 35.203125 72.90625 
L 47.609375 72.90625 
L 47.609375 25.390625 
L 58.015625 25.390625 
L 58.015625 17.1875 
L 47.609375 17.1875 
L 47.609375 0 
L 37.796875 0 
L 37.796875 17.1875 
L 4.890625 17.1875 
L 4.890625 26.703125 
z
" id="DejaVuSans-52"/>
       </defs>
       <use xlink:href="#DejaVuSans-52"/>
       <use x="63.623047" xlink:href="#DejaVuSans-48"/>
       <use x="127.246094" xlink:href="#DejaVuSans-48"/>
       <use x="190.869141" xlink:href="#DejaVuSans-48"/>
       <use x="254.492188" xlink:href="#DejaVuSans-48"/>
       <use x="318.115234" xlink:href="#DejaVuSans-48"/>
      </g>
     </g>
    </g>
   </g>
   <g id="line2d_35">
    <path clip-path="url(#pb845a1bb23)" d="M 91.636364 312.438519 
L 93.896268 312.164073 
L 96.156172 311.737473 
L 98.416077 311.135967 
L 99.546029 310.658886 
L 101.805933 309.252528 
L 102.935885 308.27988 
L 104.065837 307.029942 
L 105.195789 305.483517 
L 106.325742 303.644871 
L 107.455694 301.449303 
L 109.715598 296.00802 
L 111.975502 289.244988 
L 113.105455 285.048666 
L 114.235407 280.004832 
L 115.365359 275.570325 
L 116.495311 271.964844 
L 119.885167 259.605531 
L 121.01512 254.189844 
L 123.275024 242.244333 
L 126.66488 220.870962 
L 128.924785 206.043768 
L 130.054737 200.298177 
L 131.184689 196.281738 
L 132.314641 194.143761 
L 133.444593 193.428495 
L 134.574545 194.989851 
L 135.704498 197.577891 
L 136.83445 200.854179 
L 139.094354 210.617631 
L 142.484211 225.754821 
L 143.614163 230.158755 
L 145.874067 238.308948 
L 148.133971 246.625515 
L 151.523828 257.012514 
L 154.913684 265.768479 
L 156.043636 268.505118 
L 158.303541 273.424527 
L 159.433493 275.824863 
L 161.693397 279.915246 
L 163.953301 283.683546 
L 166.213206 286.814079 
L 167.343158 288.187731 
L 168.47311 289.309689 
L 170.733014 291.296223 
L 172.992919 293.260005 
L 175.252823 294.711156 
L 176.382775 295.29702 
L 177.512727 295.750638 
L 179.772632 296.133156 
L 180.902584 296.373474 
L 183.162488 297.030438 
L 184.29244 297.268623 
L 188.812249 299.291418 
L 189.942201 299.927052 
L 193.332057 301.430106 
L 200.11177 304.704261 
L 202.371675 305.738766 
L 203.501627 306.249264 
L 213.671196 309.592386 
L 214.801148 309.834837 
L 218.191005 310.099329 
L 221.580861 310.131324 
L 224.970718 310.178961 
L 228.360574 310.108572 
L 231.750431 309.834837 
L 235.140287 309.950019 
L 237.400191 310.156209 
L 243.049952 310.452696 
L 248.699713 310.830948 
L 259.999234 310.1427 
L 263.389091 309.400416 
L 264.519043 309.102507 
L 266.778947 308.794644 
L 274.688612 306.855036 
L 275.818565 306.350937 
L 280.338373 305.739477 
L 281.468325 305.46432 
L 285.988134 304.936758 
L 289.37799 304.379334 
L 290.507943 304.213671 
L 295.027751 304.126929 
L 300.677512 305.163567 
L 302.937416 305.610075 
L 304.067368 305.61363 
L 306.327273 305.295102 
L 307.457225 304.923249 
L 309.717129 303.848217 
L 310.847081 303.100956 
L 313.106986 300.867705 
L 314.236938 299.544534 
L 315.36689 297.875817 
L 316.496842 296.008731 
L 317.626794 293.866488 
L 318.756746 291.421359 
L 321.016651 287.18451 
L 322.146603 284.620644 
L 324.406507 278.725032 
L 325.536459 275.500647 
L 326.666411 271.788516 
L 328.926316 265.18617 
L 331.18622 258.123096 
L 332.316172 255.549987 
L 334.576077 250.767801 
L 336.835981 245.296656 
L 341.355789 237.654117 
L 343.615694 234.143199 
L 344.745646 232.104762 
L 345.875598 230.416137 
L 347.00555 228.246165 
L 348.135502 225.473265 
L 350.395407 218.351178 
L 351.525359 215.454564 
L 352.655311 212.980284 
L 354.915215 209.011482 
L 356.045167 207.634986 
L 357.17512 206.013906 
L 358.305072 203.917878 
L 359.435024 202.616748 
L 360.564976 202.250583 
L 361.694928 201.671829 
L 362.82488 200.615283 
L 363.954833 200.117583 
L 365.084785 200.416203 
L 366.214737 201.028374 
L 370.734545 203.987556 
L 374.124402 206.692911 
L 376.384306 208.926873 
L 378.644211 211.473675 
L 380.904115 214.704459 
L 382.034067 215.829972 
L 384.293971 219.294675 
L 387.683828 225.036 
L 388.81378 226.871091 
L 389.943732 227.933325 
L 393.333589 231.936966 
L 394.463541 232.978581 
L 395.593493 234.247716 
L 396.723445 234.939519 
L 397.853397 235.143576 
L 400.113301 236.464614 
L 401.243254 237.368295 
L 402.373206 237.773565 
L 403.503158 238.436217 
L 404.63311 238.776786 
L 405.763062 238.950981 
L 408.022967 239.744457 
L 409.152919 239.984064 
L 410.282871 240.004683 
L 412.542775 240.559974 
L 414.802679 240.672312 
L 415.932632 240.589125 
L 419.322488 238.414176 
L 420.45244 237.469257 
L 423.842297 233.346168 
L 424.972249 231.336171 
L 426.102201 228.955743 
L 427.232153 226.19493 
L 428.362105 222.661971 
L 431.751962 210.589191 
L 434.011866 203.873796 
L 436.27177 198.635859 
L 437.401722 196.492905 
L 438.531675 195.587802 
L 439.661627 194.881779 
L 440.791579 195.197463 
L 441.921531 196.094745 
L 443.051483 197.949033 
L 445.311388 202.822938 
L 450.961148 219.17025 
L 452.0911 221.665149 
L 454.351005 224.523369 
L 455.480957 225.655281 
L 456.610909 226.377657 
L 458.870813 227.594178 
L 460.000766 227.900619 
L 461.130718 227.754864 
L 462.26067 228.383388 
L 464.520574 230.384853 
L 466.780478 231.303465 
L 467.910431 231.688827 
L 469.040383 231.865155 
L 470.170335 232.263315 
L 471.300287 233.157753 
L 473.560191 234.720531 
L 475.820096 236.747592 
L 476.950048 237.437973 
L 478.08 238.273398 
L 481.469856 240.151149 
L 484.859713 242.930448 
L 485.989665 244.112841 
L 488.249569 246.077334 
L 489.379522 246.52242 
L 490.509474 246.796866 
L 491.639426 246.737853 
L 493.89933 245.572524 
L 495.029282 245.251152 
L 496.159234 244.748475 
L 497.289187 244.447722 
L 498.419139 244.611252 
L 499.549091 244.621206 
L 500.679043 244.461231 
L 501.808995 244.509579 
L 502.938947 244.804644 
L 505.198852 245.600964 
L 506.328804 245.826351 
L 507.458756 245.91096 
L 508.588708 245.73321 
L 510.848612 246.052449 
L 511.978565 246.445632 
L 513.108517 246.506778 
L 515.368421 245.635092 
L 517.628325 244.227312 
L 518.758278 243.527688 
L 521.018182 241.53831 
L 525.53799 239.26311 
L 526.667943 238.537179 
L 527.797895 237.467124 
L 528.927847 236.167416 
L 530.057799 235.037637 
L 531.187751 233.715177 
L 533.447656 230.364945 
L 534.577608 228.891042 
L 535.70756 227.193885 
L 536.837512 225.720693 
L 537.967464 224.051976 
L 539.097416 221.965902 
L 541.357321 216.966861 
L 544.747177 210.937581 
L 545.877129 209.630052 
L 547.007081 208.113489 
L 548.137033 206.058699 
L 549.266986 205.100271 
L 551.52689 203.497677 
L 552.656842 202.44042 
L 553.786794 201.741507 
L 554.916746 200.728332 
L 557.176651 197.973207 
L 558.306603 196.919505 
L 559.436555 196.177221 
L 560.566507 194.964255 
L 561.696459 193.948236 
L 565.086316 189.768978 
L 566.216268 188.004987 
L 569.606124 183.832839 
L 570.736077 182.743587 
L 571.866029 181.475874 
L 572.995981 181.134594 
L 574.125933 181.290303 
L 575.255885 181.770939 
L 576.385837 182.380977 
L 578.645742 185.286123 
L 579.775694 186.787044 
L 582.035598 191.373705 
L 584.295502 197.295624 
L 585.425455 200.593242 
L 588.815311 208.429884 
L 589.945263 210.918384 
L 591.075215 212.992371 
L 592.205167 214.487604 
L 594.465072 218.357577 
L 595.595024 219.920355 
L 596.724976 222.017805 
L 600.114833 229.483305 
L 603.504689 238.522248 
L 606.894545 248.594985 
L 609.15445 255.311091 
L 610.284402 258.329286 
L 611.414354 260.915193 
L 613.674258 265.019085 
L 614.804211 266.554134 
L 615.934163 267.666138 
L 617.064115 268.594704 
L 618.194067 269.275131 
L 619.324019 269.411643 
L 620.453971 269.73657 
L 621.583923 269.868816 
L 621.583923 269.868816 
" style="fill:none;stroke:#ff0000;stroke-linecap:square;stroke-width:1.5;"/>
   </g>
   <g id="line2d_36">
    <path clip-path="url(#pb845a1bb23)" d="M 210.28134 306.331385 
L 221.580861 307.826407 
L 226.10067 308.110684 
L 228.360574 308.356632 
L 239.660096 308.525023 
L 241.92 308.425659 
L 245.309856 308.141756 
L 249.829665 307.924913 
L 252.089569 307.400416 
L 257.73933 307.06951 
L 258.869282 306.705401 
L 263.389091 305.859055 
L 269.038852 303.571422 
L 276.948517 300.513726 
L 281.468325 299.132038 
L 284.858182 298.498393 
L 285.988134 298.313287 
L 293.897799 297.88529 
L 297.287656 297.882788 
L 302.937416 297.748524 
L 305.197321 297.457631 
L 307.457225 296.891 
L 308.587177 296.513781 
L 310.847081 295.482926 
L 313.106986 294.173272 
L 315.36689 292.568539 
L 317.626794 290.620035 
L 322.146603 286.307527 
L 325.536459 282.957803 
L 328.926316 279.206271 
L 332.316172 275.289055 
L 334.576077 272.498351 
L 336.835981 269.292124 
L 339.095885 265.724991 
L 341.355789 261.516381 
L 343.615694 256.567594 
L 345.875598 251.014946 
L 348.135502 244.947958 
L 357.17512 219.382386 
L 359.435024 213.86804 
L 361.694928 208.876732 
L 363.954833 204.445432 
L 366.214737 200.443753 
L 367.344689 198.663368 
L 368.474641 197.119253 
L 369.604593 195.959397 
L 370.734545 195.048397 
L 371.864498 194.599227 
L 372.99445 194.534603 
L 374.124402 194.75634 
L 375.254354 195.360858 
L 376.384306 196.337559 
L 377.514258 197.803928 
L 378.644211 199.662746 
L 380.904115 204.379646 
L 386.553876 216.886798 
L 388.81378 221.216164 
L 389.943732 223.084428 
L 391.073684 224.659591 
L 393.333589 227.236583 
L 395.593493 229.23188 
L 397.853397 231.048696 
L 403.503158 234.78803 
L 404.63311 235.320542 
L 405.763062 235.693692 
L 406.893014 235.859477 
L 409.152919 235.654218 
L 410.282871 235.329125 
L 411.412823 234.734067 
L 412.542775 233.822665 
L 413.672727 232.538077 
L 414.802679 230.726429 
L 417.062584 226.265576 
L 419.322488 220.939018 
L 421.582392 214.984477 
L 428.362105 194.701027 
L 429.492057 192.188817 
L 430.62201 190.086631 
L 431.751962 188.273351 
L 432.881914 187.100739 
L 434.011866 186.319005 
L 435.141818 185.910254 
L 436.27177 186.024991 
L 437.401722 186.844292 
L 438.531675 187.947256 
L 439.661627 189.305939 
L 440.791579 191.167593 
L 441.921531 193.343337 
L 443.051483 196.034087 
L 445.311388 200.168676 
L 449.831196 207.711931 
L 452.0911 209.670291 
L 455.480957 213.954768 
L 457.740861 216.784098 
L 458.870813 217.948998 
L 462.26067 222.379819 
L 465.650526 226.011495 
L 466.780478 227.077837 
L 469.040383 229.555286 
L 470.170335 230.64947 
L 473.560191 233.522851 
L 475.820096 235.50784 
L 478.08 237.71547 
L 479.209952 238.63524 
L 481.469856 241.194046 
L 484.859713 244.635966 
L 487.119617 246.425387 
L 489.379522 248.141333 
L 491.639426 249.510274 
L 492.769378 250.000822 
L 493.89933 250.354797 
L 496.159234 249.54009 
L 498.419139 248.376869 
L 500.679043 246.947089 
L 501.808995 246.053518 
L 502.938947 244.978921 
L 506.328804 241.421095 
L 508.588708 239.463302 
L 510.848612 238.147113 
L 515.368421 236.153459 
L 518.758278 234.075108 
L 519.88823 233.351996 
L 521.018182 232.471284 
L 522.148134 231.435525 
L 523.278086 230.229234 
L 525.53799 227.315032 
L 528.927847 222.220814 
L 532.317703 216.937771 
L 535.70756 211.278607 
L 537.967464 208.017694 
L 542.487273 202.755349 
L 543.617225 202.085141 
L 544.747177 201.630461 
L 545.877129 201.405726 
L 547.007081 201.400771 
L 549.266986 201.699518 
L 550.396938 201.720747 
L 553.786794 202.669115 
L 556.046699 203.482673 
L 557.176651 203.512173 
L 559.436555 202.699723 
L 562.826411 201.003672 
L 566.216268 199.132941 
L 568.476172 198.217151 
L 569.606124 197.892642 
L 570.736077 197.744174 
L 571.866029 197.733044 
L 572.995981 198.025049 
L 574.125933 198.60022 
L 576.385837 200.852775 
L 577.515789 202.188292 
L 584.295502 211.452804 
L 585.425455 213.185842 
L 587.685359 216.896759 
L 588.815311 218.268275 
L 589.945263 219.306699 
L 592.205167 221.87729 
L 594.465072 224.896169 
L 597.854928 229.950691 
L 602.374737 238.333865 
L 608.024498 249.535347 
L 610.284402 253.838161 
L 612.544306 257.67918 
L 617.064115 264.162766 
L 626.103732 278.848558 
L 628.363636 280.632041 
L 628.363636 280.632041 
" style="fill:none;stroke:#0000ff;stroke-linecap:square;stroke-width:1.5;"/>
   </g>
   <g id="patch_3">
    <path d="M 64.8 313.2 
L 64.8 28.8 
" style="fill:none;stroke:#000000;stroke-linecap:square;stroke-linejoin:miter;stroke-width:0.8;"/>
   </g>
   <g id="patch_4">
    <path d="M 655.2 313.2 
L 655.2 28.8 
" style="fill:none;stroke:#000000;stroke-linecap:square;stroke-linejoin:miter;stroke-width:0.8;"/>
   </g>
   <g id="patch_5">
    <path d="M 64.8 313.2 
L 655.2 313.2 
" style="fill:none;stroke:#000000;stroke-linecap:square;stroke-linejoin:miter;stroke-width:0.8;"/>
   </g>
   <g id="patch_6">
    <path d="M 64.8 28.8 
L 655.2 28.8 
" style="fill:none;stroke:#000000;stroke-linecap:square;stroke-linejoin:miter;stroke-width:0.8;"/>
   </g>
   <g id="legend_1">
    <g id="patch_7">
     <path d="M 71.8 66.15625 
L 356.085938 66.15625 
Q 358.085938 66.15625 358.085938 64.15625 
L 358.085938 35.8 
Q 358.085938 33.8 356.085938 33.8 
L 71.8 33.8 
Q 69.8 33.8 69.8 35.8 
L 69.8 64.15625 
Q 69.8 66.15625 71.8 66.15625 
z
" style="fill:#ffffff;opacity:0.8;stroke:#cccccc;stroke-linejoin:miter;"/>
    </g>
    <g id="line2d_37">
     <path d="M 73.8 41.898438 
L 93.8 41.898438 
" style="fill:none;stroke:#ff0000;stroke-linecap:square;stroke-width:1.5;"/>
    </g>
    <g id="line2d_38"/>
    <g id="text_19">
     <!-- Schatting zieken RIVM -->
     <g transform="translate(101.8 45.398438)scale(0.1 -0.1)">
      <defs>
       <path d="M 53.515625 70.515625 
L 53.515625 60.890625 
Q 47.90625 63.578125 42.921875 64.890625 
Q 37.9375 66.21875 33.296875 66.21875 
Q 25.25 66.21875 20.875 63.09375 
Q 16.5 59.96875 16.5 54.203125 
Q 16.5 49.359375 19.40625 46.890625 
Q 22.3125 44.4375 30.421875 42.921875 
L 36.375 41.703125 
Q 47.40625 39.59375 52.65625 34.296875 
Q 57.90625 29 57.90625 20.125 
Q 57.90625 9.515625 50.796875 4.046875 
Q 43.703125 -1.421875 29.984375 -1.421875 
Q 24.8125 -1.421875 18.96875 -0.25 
Q 13.140625 0.921875 6.890625 3.21875 
L 6.890625 13.375 
Q 12.890625 10.015625 18.65625 8.296875 
Q 24.421875 6.59375 29.984375 6.59375 
Q 38.421875 6.59375 43.015625 9.90625 
Q 47.609375 13.234375 47.609375 19.390625 
Q 47.609375 24.75 44.3125 27.78125 
Q 41.015625 30.8125 33.5 32.328125 
L 27.484375 33.5 
Q 16.453125 35.6875 11.515625 40.375 
Q 6.59375 45.0625 6.59375 53.421875 
Q 6.59375 63.09375 13.40625 68.65625 
Q 20.21875 74.21875 32.171875 74.21875 
Q 37.3125 74.21875 42.625 73.28125 
Q 47.953125 72.359375 53.515625 70.515625 
z
" id="DejaVuSans-83"/>
       <path d="M 48.78125 52.59375 
L 48.78125 44.1875 
Q 44.96875 46.296875 41.140625 47.34375 
Q 37.3125 48.390625 33.40625 48.390625 
Q 24.65625 48.390625 19.8125 42.84375 
Q 14.984375 37.3125 14.984375 27.296875 
Q 14.984375 17.28125 19.8125 11.734375 
Q 24.65625 6.203125 33.40625 6.203125 
Q 37.3125 6.203125 41.140625 7.25 
Q 44.96875 8.296875 48.78125 10.40625 
L 48.78125 2.09375 
Q 45.015625 0.34375 40.984375 -0.53125 
Q 36.96875 -1.421875 32.421875 -1.421875 
Q 20.0625 -1.421875 12.78125 6.34375 
Q 5.515625 14.109375 5.515625 27.296875 
Q 5.515625 40.671875 12.859375 48.328125 
Q 20.21875 56 33.015625 56 
Q 37.15625 56 41.109375 55.140625 
Q 45.0625 54.296875 48.78125 52.59375 
z
" id="DejaVuSans-99"/>
       <path d="M 54.890625 33.015625 
L 54.890625 0 
L 45.90625 0 
L 45.90625 32.71875 
Q 45.90625 40.484375 42.875 44.328125 
Q 39.84375 48.1875 33.796875 48.1875 
Q 26.515625 48.1875 22.3125 43.546875 
Q 18.109375 38.921875 18.109375 30.90625 
L 18.109375 0 
L 9.078125 0 
L 9.078125 75.984375 
L 18.109375 75.984375 
L 18.109375 46.1875 
Q 21.34375 51.125 25.703125 53.5625 
Q 30.078125 56 35.796875 56 
Q 45.21875 56 50.046875 50.171875 
Q 54.890625 44.34375 54.890625 33.015625 
z
" id="DejaVuSans-104"/>
       <path d="M 9.421875 54.6875 
L 18.40625 54.6875 
L 18.40625 0 
L 9.421875 0 
z
M 9.421875 75.984375 
L 18.40625 75.984375 
L 18.40625 64.59375 
L 9.421875 64.59375 
z
" id="DejaVuSans-105"/>
       <path d="M 54.890625 33.015625 
L 54.890625 0 
L 45.90625 0 
L 45.90625 32.71875 
Q 45.90625 40.484375 42.875 44.328125 
Q 39.84375 48.1875 33.796875 48.1875 
Q 26.515625 48.1875 22.3125 43.546875 
Q 18.109375 38.921875 18.109375 30.90625 
L 18.109375 0 
L 9.078125 0 
L 9.078125 54.6875 
L 18.109375 54.6875 
L 18.109375 46.1875 
Q 21.34375 51.125 25.703125 53.5625 
Q 30.078125 56 35.796875 56 
Q 45.21875 56 50.046875 50.171875 
Q 54.890625 44.34375 54.890625 33.015625 
z
" id="DejaVuSans-110"/>
       <path d="M 45.40625 27.984375 
Q 45.40625 37.75 41.375 43.109375 
Q 37.359375 48.484375 30.078125 48.484375 
Q 22.859375 48.484375 18.828125 43.109375 
Q 14.796875 37.75 14.796875 27.984375 
Q 14.796875 18.265625 18.828125 12.890625 
Q 22.859375 7.515625 30.078125 7.515625 
Q 37.359375 7.515625 41.375 12.890625 
Q 45.40625 18.265625 45.40625 27.984375 
z
M 54.390625 6.78125 
Q 54.390625 -7.171875 48.1875 -13.984375 
Q 42 -20.796875 29.203125 -20.796875 
Q 24.46875 -20.796875 20.265625 -20.09375 
Q 16.0625 -19.390625 12.109375 -17.921875 
L 12.109375 -9.1875 
Q 16.0625 -11.328125 19.921875 -12.34375 
Q 23.78125 -13.375 27.78125 -13.375 
Q 36.625 -13.375 41.015625 -8.765625 
Q 45.40625 -4.15625 45.40625 5.171875 
L 45.40625 9.625 
Q 42.625 4.78125 38.28125 2.390625 
Q 33.9375 0 27.875 0 
Q 17.828125 0 11.671875 7.65625 
Q 5.515625 15.328125 5.515625 27.984375 
Q 5.515625 40.671875 11.671875 48.328125 
Q 17.828125 56 27.875 56 
Q 33.9375 56 38.28125 53.609375 
Q 42.625 51.21875 45.40625 46.390625 
L 45.40625 54.6875 
L 54.390625 54.6875 
z
" id="DejaVuSans-103"/>
       <path id="DejaVuSans-32"/>
       <path d="M 5.515625 54.6875 
L 48.1875 54.6875 
L 48.1875 46.484375 
L 14.40625 7.171875 
L 48.1875 7.171875 
L 48.1875 0 
L 4.296875 0 
L 4.296875 8.203125 
L 38.09375 47.515625 
L 5.515625 47.515625 
z
" id="DejaVuSans-122"/>
       <path d="M 56.203125 29.59375 
L 56.203125 25.203125 
L 14.890625 25.203125 
Q 15.484375 15.921875 20.484375 11.0625 
Q 25.484375 6.203125 34.421875 6.203125 
Q 39.59375 6.203125 44.453125 7.46875 
Q 49.3125 8.734375 54.109375 11.28125 
L 54.109375 2.78125 
Q 49.265625 0.734375 44.1875 -0.34375 
Q 39.109375 -1.421875 33.890625 -1.421875 
Q 20.796875 -1.421875 13.15625 6.1875 
Q 5.515625 13.8125 5.515625 26.8125 
Q 5.515625 40.234375 12.765625 48.109375 
Q 20.015625 56 32.328125 56 
Q 43.359375 56 49.78125 48.890625 
Q 56.203125 41.796875 56.203125 29.59375 
z
M 47.21875 32.234375 
Q 47.125 39.59375 43.09375 43.984375 
Q 39.0625 48.390625 32.421875 48.390625 
Q 24.90625 48.390625 20.390625 44.140625 
Q 15.875 39.890625 15.1875 32.171875 
z
" id="DejaVuSans-101"/>
       <path d="M 9.078125 75.984375 
L 18.109375 75.984375 
L 18.109375 31.109375 
L 44.921875 54.6875 
L 56.390625 54.6875 
L 27.390625 29.109375 
L 57.625 0 
L 45.90625 0 
L 18.109375 26.703125 
L 18.109375 0 
L 9.078125 0 
z
" id="DejaVuSans-107"/>
       <path d="M 44.390625 34.1875 
Q 47.5625 33.109375 50.5625 29.59375 
Q 53.5625 26.078125 56.59375 19.921875 
L 66.609375 0 
L 56 0 
L 46.6875 18.703125 
Q 43.0625 26.03125 39.671875 28.421875 
Q 36.28125 30.8125 30.421875 30.8125 
L 19.671875 30.8125 
L 19.671875 0 
L 9.8125 0 
L 9.8125 72.90625 
L 32.078125 72.90625 
Q 44.578125 72.90625 50.734375 67.671875 
Q 56.890625 62.453125 56.890625 51.90625 
Q 56.890625 45.015625 53.6875 40.46875 
Q 50.484375 35.9375 44.390625 34.1875 
z
M 19.671875 64.796875 
L 19.671875 38.921875 
L 32.078125 38.921875 
Q 39.203125 38.921875 42.84375 42.21875 
Q 46.484375 45.515625 46.484375 51.90625 
Q 46.484375 58.296875 42.84375 61.546875 
Q 39.203125 64.796875 32.078125 64.796875 
z
" id="DejaVuSans-82"/>
       <path d="M 9.8125 72.90625 
L 19.671875 72.90625 
L 19.671875 0 
L 9.8125 0 
z
" id="DejaVuSans-73"/>
       <path d="M 28.609375 0 
L 0.78125 72.90625 
L 11.078125 72.90625 
L 34.1875 11.53125 
L 57.328125 72.90625 
L 67.578125 72.90625 
L 39.796875 0 
z
" id="DejaVuSans-86"/>
       <path d="M 9.8125 72.90625 
L 24.515625 72.90625 
L 43.109375 23.296875 
L 61.8125 72.90625 
L 76.515625 72.90625 
L 76.515625 0 
L 66.890625 0 
L 66.890625 64.015625 
L 48.09375 14.015625 
L 38.1875 14.015625 
L 19.390625 64.015625 
L 19.390625 0 
L 9.8125 0 
z
" id="DejaVuSans-77"/>
      </defs>
      <use xlink:href="#DejaVuSans-83"/>
      <use x="63.476562" xlink:href="#DejaVuSans-99"/>
      <use x="118.457031" xlink:href="#DejaVuSans-104"/>
      <use x="181.835938" xlink:href="#DejaVuSans-97"/>
      <use x="243.115234" xlink:href="#DejaVuSans-116"/>
      <use x="282.324219" xlink:href="#DejaVuSans-116"/>
      <use x="321.533203" xlink:href="#DejaVuSans-105"/>
      <use x="349.316406" xlink:href="#DejaVuSans-110"/>
      <use x="412.695312" xlink:href="#DejaVuSans-103"/>
      <use x="476.171875" xlink:href="#DejaVuSans-32"/>
      <use x="507.958984" xlink:href="#DejaVuSans-122"/>
      <use x="560.449219" xlink:href="#DejaVuSans-105"/>
      <use x="588.232422" xlink:href="#DejaVuSans-101"/>
      <use x="649.755859" xlink:href="#DejaVuSans-107"/>
      <use x="704.041016" xlink:href="#DejaVuSans-101"/>
      <use x="765.564453" xlink:href="#DejaVuSans-110"/>
      <use x="828.943359" xlink:href="#DejaVuSans-32"/>
      <use x="860.730469" xlink:href="#DejaVuSans-82"/>
      <use x="930.212891" xlink:href="#DejaVuSans-73"/>
      <use x="959.705078" xlink:href="#DejaVuSans-86"/>
      <use x="1028.113281" xlink:href="#DejaVuSans-77"/>
     </g>
    </g>
    <g id="line2d_39">
     <path d="M 73.8 56.576563 
L 93.8 56.576563 
" style="fill:none;stroke:#0000ff;stroke-linecap:square;stroke-width:1.5;"/>
    </g>
    <g id="line2d_40"/>
    <g id="text_20">
     <!-- Schatting zieken @rolfje obv tests en RNA in RWZI -->
     <g transform="translate(101.8 60.076563)scale(0.1 -0.1)">
      <defs>
       <path d="M 37.203125 26.21875 
Q 37.203125 19.234375 40.671875 15.25 
Q 44.140625 11.28125 50.203125 11.28125 
Q 56.203125 11.28125 59.640625 15.28125 
Q 63.09375 19.28125 63.09375 26.21875 
Q 63.09375 33.0625 59.578125 37.078125 
Q 56.0625 41.109375 50.09375 41.109375 
Q 44.1875 41.109375 40.6875 37.109375 
Q 37.203125 33.109375 37.203125 26.21875 
z
M 63.8125 11.625 
Q 60.890625 7.859375 57.109375 6.078125 
Q 53.328125 4.296875 48.296875 4.296875 
Q 39.890625 4.296875 34.640625 10.375 
Q 29.390625 16.453125 29.390625 26.21875 
Q 29.390625 35.984375 34.65625 42.078125 
Q 39.9375 48.1875 48.296875 48.1875 
Q 53.328125 48.1875 57.125 46.359375 
Q 60.9375 44.53125 63.8125 40.828125 
L 63.8125 47.21875 
L 70.796875 47.21875 
L 70.796875 11.28125 
Q 77.9375 12.359375 81.953125 17.796875 
Q 85.984375 23.25 85.984375 31.890625 
Q 85.984375 37.109375 84.4375 41.703125 
Q 82.90625 46.296875 79.78125 50.203125 
Q 74.703125 56.59375 67.40625 59.984375 
Q 60.109375 63.375 51.515625 63.375 
Q 45.515625 63.375 39.984375 61.78125 
Q 34.46875 60.203125 29.78125 57.078125 
Q 22.125 52.09375 17.796875 44.015625 
Q 13.484375 35.9375 13.484375 26.515625 
Q 13.484375 18.75 16.28125 11.953125 
Q 19.09375 5.171875 24.421875 0 
Q 29.546875 -5.078125 36.28125 -7.734375 
Q 43.015625 -10.40625 50.6875 -10.40625 
Q 56.984375 -10.40625 63.0625 -8.28125 
Q 69.140625 -6.15625 74.21875 -2.203125 
L 78.609375 -7.625 
Q 72.515625 -12.359375 65.3125 -14.875 
Q 58.109375 -17.390625 50.6875 -17.390625 
Q 41.65625 -17.390625 33.640625 -14.1875 
Q 25.640625 -10.984375 19.390625 -4.890625 
Q 13.140625 1.21875 9.859375 9.25 
Q 6.59375 17.28125 6.59375 26.515625 
Q 6.59375 35.40625 9.90625 43.453125 
Q 13.234375 51.515625 19.390625 57.625 
Q 25.6875 63.8125 33.9375 67.109375 
Q 42.1875 70.40625 51.421875 70.40625 
Q 61.765625 70.40625 70.625 66.15625 
Q 79.5 61.921875 85.5 54.109375 
Q 89.15625 49.3125 91.078125 43.703125 
Q 93.015625 38.09375 93.015625 32.078125 
Q 93.015625 19.234375 85.25 11.8125 
Q 77.484375 4.390625 63.8125 4.109375 
z
" id="DejaVuSans-64"/>
       <path d="M 41.109375 46.296875 
Q 39.59375 47.171875 37.8125 47.578125 
Q 36.03125 48 33.890625 48 
Q 26.265625 48 22.1875 43.046875 
Q 18.109375 38.09375 18.109375 28.8125 
L 18.109375 0 
L 9.078125 0 
L 9.078125 54.6875 
L 18.109375 54.6875 
L 18.109375 46.1875 
Q 20.953125 51.171875 25.484375 53.578125 
Q 30.03125 56 36.53125 56 
Q 37.453125 56 38.578125 55.875 
Q 39.703125 55.765625 41.0625 55.515625 
z
" id="DejaVuSans-114"/>
       <path d="M 30.609375 48.390625 
Q 23.390625 48.390625 19.1875 42.75 
Q 14.984375 37.109375 14.984375 27.296875 
Q 14.984375 17.484375 19.15625 11.84375 
Q 23.34375 6.203125 30.609375 6.203125 
Q 37.796875 6.203125 41.984375 11.859375 
Q 46.1875 17.53125 46.1875 27.296875 
Q 46.1875 37.015625 41.984375 42.703125 
Q 37.796875 48.390625 30.609375 48.390625 
z
M 30.609375 56 
Q 42.328125 56 49.015625 48.375 
Q 55.71875 40.765625 55.71875 27.296875 
Q 55.71875 13.875 49.015625 6.21875 
Q 42.328125 -1.421875 30.609375 -1.421875 
Q 18.84375 -1.421875 12.171875 6.21875 
Q 5.515625 13.875 5.515625 27.296875 
Q 5.515625 40.765625 12.171875 48.375 
Q 18.84375 56 30.609375 56 
z
" id="DejaVuSans-111"/>
       <path d="M 9.421875 75.984375 
L 18.40625 75.984375 
L 18.40625 0 
L 9.421875 0 
z
" id="DejaVuSans-108"/>
       <path d="M 37.109375 75.984375 
L 37.109375 68.5 
L 28.515625 68.5 
Q 23.6875 68.5 21.796875 66.546875 
Q 19.921875 64.59375 19.921875 59.515625 
L 19.921875 54.6875 
L 34.71875 54.6875 
L 34.71875 47.703125 
L 19.921875 47.703125 
L 19.921875 0 
L 10.890625 0 
L 10.890625 47.703125 
L 2.296875 47.703125 
L 2.296875 54.6875 
L 10.890625 54.6875 
L 10.890625 58.5 
Q 10.890625 67.625 15.140625 71.796875 
Q 19.390625 75.984375 28.609375 75.984375 
z
" id="DejaVuSans-102"/>
       <path d="M 9.421875 54.6875 
L 18.40625 54.6875 
L 18.40625 -0.984375 
Q 18.40625 -11.421875 14.421875 -16.109375 
Q 10.453125 -20.796875 1.609375 -20.796875 
L -1.8125 -20.796875 
L -1.8125 -13.1875 
L 0.59375 -13.1875 
Q 5.71875 -13.1875 7.5625 -10.8125 
Q 9.421875 -8.453125 9.421875 -0.984375 
z
M 9.421875 75.984375 
L 18.40625 75.984375 
L 18.40625 64.59375 
L 9.421875 64.59375 
z
" id="DejaVuSans-106"/>
       <path d="M 48.6875 27.296875 
Q 48.6875 37.203125 44.609375 42.84375 
Q 40.53125 48.484375 33.40625 48.484375 
Q 26.265625 48.484375 22.1875 42.84375 
Q 18.109375 37.203125 18.109375 27.296875 
Q 18.109375 17.390625 22.1875 11.75 
Q 26.265625 6.109375 33.40625 6.109375 
Q 40.53125 6.109375 44.609375 11.75 
Q 48.6875 17.390625 48.6875 27.296875 
z
M 18.109375 46.390625 
Q 20.953125 51.265625 25.265625 53.625 
Q 29.59375 56 35.59375 56 
Q 45.5625 56 51.78125 48.09375 
Q 58.015625 40.1875 58.015625 27.296875 
Q 58.015625 14.40625 51.78125 6.484375 
Q 45.5625 -1.421875 35.59375 -1.421875 
Q 29.59375 -1.421875 25.265625 0.953125 
Q 20.953125 3.328125 18.109375 8.203125 
L 18.109375 0 
L 9.078125 0 
L 9.078125 75.984375 
L 18.109375 75.984375 
z
" id="DejaVuSans-98"/>
       <path d="M 2.984375 54.6875 
L 12.5 54.6875 
L 29.59375 8.796875 
L 46.6875 54.6875 
L 56.203125 54.6875 
L 35.6875 0 
L 23.484375 0 
z
" id="DejaVuSans-118"/>
       <path d="M 44.28125 53.078125 
L 44.28125 44.578125 
Q 40.484375 46.53125 36.375 47.5 
Q 32.28125 48.484375 27.875 48.484375 
Q 21.1875 48.484375 17.84375 46.4375 
Q 14.5 44.390625 14.5 40.28125 
Q 14.5 37.15625 16.890625 35.375 
Q 19.28125 33.59375 26.515625 31.984375 
L 29.59375 31.296875 
Q 39.15625 29.25 43.1875 25.515625 
Q 47.21875 21.78125 47.21875 15.09375 
Q 47.21875 7.46875 41.1875 3.015625 
Q 35.15625 -1.421875 24.609375 -1.421875 
Q 20.21875 -1.421875 15.453125 -0.5625 
Q 10.6875 0.296875 5.421875 2 
L 5.421875 11.28125 
Q 10.40625 8.6875 15.234375 7.390625 
Q 20.0625 6.109375 24.8125 6.109375 
Q 31.15625 6.109375 34.5625 8.28125 
Q 37.984375 10.453125 37.984375 14.40625 
Q 37.984375 18.0625 35.515625 20.015625 
Q 33.0625 21.96875 24.703125 23.78125 
L 21.578125 24.515625 
Q 13.234375 26.265625 9.515625 29.90625 
Q 5.8125 33.546875 5.8125 39.890625 
Q 5.8125 47.609375 11.28125 51.796875 
Q 16.75 56 26.8125 56 
Q 31.78125 56 36.171875 55.265625 
Q 40.578125 54.546875 44.28125 53.078125 
z
" id="DejaVuSans-115"/>
       <path d="M 9.8125 72.90625 
L 23.09375 72.90625 
L 55.421875 11.921875 
L 55.421875 72.90625 
L 64.984375 72.90625 
L 64.984375 0 
L 51.703125 0 
L 19.390625 60.984375 
L 19.390625 0 
L 9.8125 0 
z
" id="DejaVuSans-78"/>
       <path d="M 34.1875 63.1875 
L 20.796875 26.90625 
L 47.609375 26.90625 
z
M 28.609375 72.90625 
L 39.796875 72.90625 
L 67.578125 0 
L 57.328125 0 
L 50.6875 18.703125 
L 17.828125 18.703125 
L 11.1875 0 
L 0.78125 0 
z
" id="DejaVuSans-65"/>
       <path d="M 3.328125 72.90625 
L 13.28125 72.90625 
L 28.609375 11.28125 
L 43.890625 72.90625 
L 54.984375 72.90625 
L 70.3125 11.28125 
L 85.59375 72.90625 
L 95.609375 72.90625 
L 77.296875 0 
L 64.890625 0 
L 49.515625 63.28125 
L 33.984375 0 
L 21.578125 0 
z
" id="DejaVuSans-87"/>
       <path d="M 5.609375 72.90625 
L 62.890625 72.90625 
L 62.890625 65.375 
L 16.796875 8.296875 
L 64.015625 8.296875 
L 64.015625 0 
L 4.5 0 
L 4.5 7.515625 
L 50.59375 64.59375 
L 5.609375 64.59375 
z
" id="DejaVuSans-90"/>
      </defs>
      <use xlink:href="#DejaVuSans-83"/>
      <use x="63.476562" xlink:href="#DejaVuSans-99"/>
      <use x="118.457031" xlink:href="#DejaVuSans-104"/>
      <use x="181.835938" xlink:href="#DejaVuSans-97"/>
      <use x="243.115234" xlink:href="#DejaVuSans-116"/>
      <use x="282.324219" xlink:href="#DejaVuSans-116"/>
      <use x="321.533203" xlink:href="#DejaVuSans-105"/>
      <use x="349.316406" xlink:href="#DejaVuSans-110"/>
      <use x="412.695312" xlink:href="#DejaVuSans-103"/>
      <use x="476.171875" xlink:href="#DejaVuSans-32"/>
      <use x="507.958984" xlink:href="#DejaVuSans-122"/>
      <use x="560.449219" xlink:href="#DejaVuSans-105"/>
      <use x="588.232422" xlink:href="#DejaVuSans-101"/>
      <use x="649.755859" xlink:href="#DejaVuSans-107"/>
      <use x="704.041016" xlink:href="#DejaVuSans-101"/>
      <use x="765.564453" xlink:href="#DejaVuSans-110"/>
      <use x="828.943359" xlink:href="#DejaVuSans-32"/>
      <use x="860.730469" xlink:href="#DejaVuSans-64"/>
      <use x="960.730469" xlink:href="#DejaVuSans-114"/>
      <use x="999.59375" xlink:href="#DejaVuSans-111"/>
      <use x="1060.775391" xlink:href="#DejaVuSans-108"/>
      <use x="1088.558594" xlink:href="#DejaVuSans-102"/>
      <use x="1123.763672" xlink:href="#DejaVuSans-106"/>
      <use x="1151.546875" xlink:href="#DejaVuSans-101"/>
      <use x="1213.070312" xlink:href="#DejaVuSans-32"/>
      <use x="1244.857422" xlink:href="#DejaVuSans-111"/>
      <use x="1306.039062" xlink:href="#DejaVuSans-98"/>
      <use x="1369.515625" xlink:href="#DejaVuSans-118"/>
      <use x="1428.695312" xlink:href="#DejaVuSans-32"/>
      <use x="1460.482422" xlink:href="#DejaVuSans-116"/>
      <use x="1499.691406" xlink:href="#DejaVuSans-101"/>
      <use x="1561.214844" xlink:href="#DejaVuSans-115"/>
      <use x="1613.314453" xlink:href="#DejaVuSans-116"/>
      <use x="1652.523438" xlink:href="#DejaVuSans-115"/>
      <use x="1704.623047" xlink:href="#DejaVuSans-32"/>
      <use x="1736.410156" xlink:href="#DejaVuSans-101"/>
      <use x="1797.933594" xlink:href="#DejaVuSans-110"/>
      <use x="1861.3125" xlink:href="#DejaVuSans-32"/>
      <use x="1893.099609" xlink:href="#DejaVuSans-82"/>
      <use x="1962.582031" xlink:href="#DejaVuSans-78"/>
      <use x="2037.386719" xlink:href="#DejaVuSans-65"/>
      <use x="2105.794922" xlink:href="#DejaVuSans-32"/>
      <use x="2137.582031" xlink:href="#DejaVuSans-105"/>
      <use x="2165.365234" xlink:href="#DejaVuSans-110"/>
      <use x="2228.744141" xlink:href="#DejaVuSans-32"/>
      <use x="2260.53125" xlink:href="#DejaVuSans-82"/>
      <use x="2326.013672" xlink:href="#DejaVuSans-87"/>
      <use x="2424.890625" xlink:href="#DejaVuSans-90"/>
      <use x="2493.396484" xlink:href="#DejaVuSans-73"/>
     </g>
    </g>
   </g>
  </g>
  <g id="axes_2">
   <g id="matplotlib.axis_3">
    <g id="ytick_10">
     <g id="line2d_41">
      <path clip-path="url(#pb845a1bb23)" d="M 64.8 313.2 
L 655.2 313.2 
" style="fill:none;stroke:#808080;stroke-dasharray:6.4,1.6,1,1.6;stroke-dashoffset:0;stroke-opacity:0.3;"/>
     </g>
     <g id="line2d_42">
      <defs>
       <path d="M 0 0 
L 3.5 0 
" id="m18e022fed0" style="stroke:#000000;stroke-width:0.8;"/>
      </defs>
      <g>
       <use style="stroke:#000000;stroke-width:0.8;" x="655.2" xlink:href="#m18e022fed0" y="313.2"/>
      </g>
     </g>
     <g id="text_21">
      <!-- 200 -->
      <g transform="translate(662.2 316.999219)scale(0.1 -0.1)">
       <defs>
        <path d="M 10.59375 35.5 
L 73.1875 35.5 
L 73.1875 27.203125 
L 10.59375 27.203125 
z
" id="DejaVuSans-8722"/>
       </defs>
       <use xlink:href="#DejaVuSans-8722"/>
       <use x="83.789062" xlink:href="#DejaVuSans-50"/>
       <use x="147.412109" xlink:href="#DejaVuSans-48"/>
       <use x="211.035156" xlink:href="#DejaVuSans-48"/>
      </g>
     </g>
    </g>
    <g id="ytick_11">
     <g id="line2d_43">
      <path clip-path="url(#pb845a1bb23)" d="M 64.8 277.65 
L 655.2 277.65 
" style="fill:none;stroke:#808080;stroke-dasharray:6.4,1.6,1,1.6;stroke-dashoffset:0;stroke-opacity:0.3;"/>
     </g>
     <g id="line2d_44">
      <g>
       <use style="stroke:#000000;stroke-width:0.8;" x="655.2" xlink:href="#m18e022fed0" y="277.65"/>
      </g>
     </g>
     <g id="text_22">
      <!-- 150 -->
      <g transform="translate(662.2 281.449219)scale(0.1 -0.1)">
       <use xlink:href="#DejaVuSans-8722"/>
       <use x="83.789062" xlink:href="#DejaVuSans-49"/>
       <use x="147.412109" xlink:href="#DejaVuSans-53"/>
       <use x="211.035156" xlink:href="#DejaVuSans-48"/>
      </g>
     </g>
    </g>
    <g id="ytick_12">
     <g id="line2d_45">
      <path clip-path="url(#pb845a1bb23)" d="M 64.8 242.1 
L 655.2 242.1 
" style="fill:none;stroke:#808080;stroke-dasharray:6.4,1.6,1,1.6;stroke-dashoffset:0;stroke-opacity:0.3;"/>
     </g>
     <g id="line2d_46">
      <g>
       <use style="stroke:#000000;stroke-width:0.8;" x="655.2" xlink:href="#m18e022fed0" y="242.1"/>
      </g>
     </g>
     <g id="text_23">
      <!-- 100 -->
      <g transform="translate(662.2 245.899219)scale(0.1 -0.1)">
       <use xlink:href="#DejaVuSans-8722"/>
       <use x="83.789062" xlink:href="#DejaVuSans-49"/>
       <use x="147.412109" xlink:href="#DejaVuSans-48"/>
       <use x="211.035156" xlink:href="#DejaVuSans-48"/>
      </g>
     </g>
    </g>
    <g id="ytick_13">
     <g id="line2d_47">
      <path clip-path="url(#pb845a1bb23)" d="M 64.8 206.55 
L 655.2 206.55 
" style="fill:none;stroke:#808080;stroke-dasharray:6.4,1.6,1,1.6;stroke-dashoffset:0;stroke-opacity:0.3;"/>
     </g>
     <g id="line2d_48">
      <g>
       <use style="stroke:#000000;stroke-width:0.8;" x="655.2" xlink:href="#m18e022fed0" y="206.55"/>
      </g>
     </g>
     <g id="text_24">
      <!-- 50 -->
      <g transform="translate(662.2 210.349219)scale(0.1 -0.1)">
       <use xlink:href="#DejaVuSans-8722"/>
       <use x="83.789062" xlink:href="#DejaVuSans-53"/>
       <use x="147.412109" xlink:href="#DejaVuSans-48"/>
      </g>
     </g>
    </g>
    <g id="ytick_14">
     <g id="line2d_49">
      <path clip-path="url(#pb845a1bb23)" d="M 64.8 171 
L 655.2 171 
" style="fill:none;stroke:#808080;stroke-dasharray:6.4,1.6,1,1.6;stroke-dashoffset:0;stroke-opacity:0.3;"/>
     </g>
     <g id="line2d_50">
      <g>
       <use style="stroke:#000000;stroke-width:0.8;" x="655.2" xlink:href="#m18e022fed0" y="171"/>
      </g>
     </g>
     <g id="text_25">
      <!-- 0 -->
      <g transform="translate(662.2 174.799219)scale(0.1 -0.1)">
       <use xlink:href="#DejaVuSans-48"/>
      </g>
     </g>
    </g>
    <g id="ytick_15">
     <g id="line2d_51">
      <path clip-path="url(#pb845a1bb23)" d="M 64.8 135.45 
L 655.2 135.45 
" style="fill:none;stroke:#808080;stroke-dasharray:6.4,1.6,1,1.6;stroke-dashoffset:0;stroke-opacity:0.3;"/>
     </g>
     <g id="line2d_52">
      <g>
       <use style="stroke:#000000;stroke-width:0.8;" x="655.2" xlink:href="#m18e022fed0" y="135.45"/>
      </g>
     </g>
     <g id="text_26">
      <!-- 50 -->
      <g transform="translate(662.2 139.249219)scale(0.1 -0.1)">
       <use xlink:href="#DejaVuSans-53"/>
       <use x="63.623047" xlink:href="#DejaVuSans-48"/>
      </g>
     </g>
    </g>
    <g id="ytick_16">
     <g id="line2d_53">
      <path clip-path="url(#pb845a1bb23)" d="M 64.8 99.9 
L 655.2 99.9 
" style="fill:none;stroke:#808080;stroke-dasharray:6.4,1.6,1,1.6;stroke-dashoffset:0;stroke-opacity:0.3;"/>
     </g>
     <g id="line2d_54">
      <g>
       <use style="stroke:#000000;stroke-width:0.8;" x="655.2" xlink:href="#m18e022fed0" y="99.9"/>
      </g>
     </g>
     <g id="text_27">
      <!-- 100 -->
      <g transform="translate(662.2 103.699219)scale(0.1 -0.1)">
       <use xlink:href="#DejaVuSans-49"/>
       <use x="63.623047" xlink:href="#DejaVuSans-48"/>
       <use x="127.246094" xlink:href="#DejaVuSans-48"/>
      </g>
     </g>
    </g>
    <g id="ytick_17">
     <g id="line2d_55">
      <path clip-path="url(#pb845a1bb23)" d="M 64.8 64.35 
L 655.2 64.35 
" style="fill:none;stroke:#808080;stroke-dasharray:6.4,1.6,1,1.6;stroke-dashoffset:0;stroke-opacity:0.3;"/>
     </g>
     <g id="line2d_56">
      <g>
       <use style="stroke:#000000;stroke-width:0.8;" x="655.2" xlink:href="#m18e022fed0" y="64.35"/>
      </g>
     </g>
     <g id="text_28">
      <!-- 150 -->
      <g transform="translate(662.2 68.149219)scale(0.1 -0.1)">
       <use xlink:href="#DejaVuSans-49"/>
       <use x="63.623047" xlink:href="#DejaVuSans-53"/>
       <use x="127.246094" xlink:href="#DejaVuSans-48"/>
      </g>
     </g>
    </g>
    <g id="ytick_18">
     <g id="line2d_57">
      <path clip-path="url(#pb845a1bb23)" d="M 64.8 28.8 
L 655.2 28.8 
" style="fill:none;stroke:#808080;stroke-dasharray:6.4,1.6,1,1.6;stroke-dashoffset:0;stroke-opacity:0.3;"/>
     </g>
     <g id="line2d_58">
      <g>
       <use style="stroke:#000000;stroke-width:0.8;" x="655.2" xlink:href="#m18e022fed0" y="28.8"/>
      </g>
     </g>
     <g id="text_29">
      <!-- 200 -->
      <g transform="translate(662.2 32.599219)scale(0.1 -0.1)">
       <use xlink:href="#DejaVuSans-50"/>
       <use x="63.623047" xlink:href="#DejaVuSans-48"/>
       <use x="127.246094" xlink:href="#DejaVuSans-48"/>
      </g>
     </g>
    </g>
   </g>
   <g id="line2d_59">
    <path clip-path="url(#pb845a1bb23)" d="M 210.28134 148.534011 
L 212.541244 142.606986 
L 213.671196 140.009005 
L 214.801148 138.260224 
L 215.9311 137.850864 
L 217.061053 137.795305 
L 218.191005 137.997137 
L 219.320957 139.033443 
L 220.450909 139.84481 
L 221.580861 140.50279 
L 224.970718 140.998107 
L 226.10067 142.005922 
L 227.230622 143.22127 
L 228.360574 145.281757 
L 232.880383 149.918086 
L 235.140287 149.177182 
L 239.660096 145.024058 
L 240.790048 143.084004 
L 243.049952 139.895518 
L 245.309856 136.098272 
L 250.959617 131.896615 
L 252.089569 131.418881 
L 257.73933 134.384825 
L 258.869282 132.895162 
L 261.129187 133.605233 
L 263.389091 136.700496 
L 264.519043 137.370589 
L 265.648995 136.099752 
L 266.778947 135.874706 
L 267.9089 136.119445 
L 269.038852 136.231486 
L 270.168804 135.993234 
L 271.298756 135.964699 
L 273.55866 136.535068 
L 274.688612 137.883926 
L 275.818565 139.479057 
L 279.208421 138.322559 
L 280.338373 138.399516 
L 281.468325 138.996412 
L 282.598278 138.963762 
L 283.72823 138.797594 
L 284.858182 138.862125 
L 285.988134 139.365831 
L 288.248038 141.049035 
L 289.37799 141.259655 
L 290.507943 141.823239 
L 291.637895 141.853417 
L 292.767847 141.753069 
L 293.897799 142.058907 
L 295.027751 142.101058 
L 297.287656 140.207127 
L 298.417608 139.297718 
L 299.54756 138.088281 
L 300.677512 137.062684 
L 301.807464 135.779626 
L 302.937416 134.825056 
L 304.067368 134.554836 
L 306.327273 135.021462 
L 307.457225 135.982961 
L 309.717129 138.596684 
L 310.847081 140.428252 
L 313.106986 145.983918 
L 314.236938 148.992247 
L 316.496842 156.616791 
L 317.626794 160.777538 
L 318.756746 165.439137 
L 321.016651 171.520552 
L 322.146603 175.459886 
L 326.666411 193.537217 
L 328.926316 200.323914 
L 330.056268 204.18501 
L 331.18622 206.958651 
L 332.316172 208.019594 
L 333.446124 208.325336 
L 335.706029 209.658816 
L 336.835981 209.855849 
L 337.965933 208.694312 
L 340.225837 205.505256 
L 341.355789 203.826784 
L 345.875598 194.551886 
L 347.00555 192.614417 
L 348.135502 191.287314 
L 350.395407 190.092071 
L 351.525359 188.843618 
L 352.655311 187.341723 
L 353.785263 185.628503 
L 354.915215 184.21083 
L 356.045167 182.472655 
L 357.17512 181.131349 
L 358.305072 180.297234 
L 359.435024 179.053469 
L 360.564976 177.28828 
L 361.694928 175.910397 
L 362.82488 174.997926 
L 363.954833 173.829399 
L 368.474641 167.661066 
L 370.734545 165.620689 
L 371.864498 164.830467 
L 372.99445 164.244708 
L 375.254354 163.51872 
L 376.384306 163.340565 
L 377.514258 163.341103 
L 379.774163 163.880942 
L 380.904115 164.254072 
L 382.034067 165.042182 
L 383.164019 165.497423 
L 386.553876 166.421224 
L 388.81378 166.628957 
L 389.943732 167.174284 
L 391.073684 167.281744 
L 394.463541 167.072105 
L 395.593493 166.752841 
L 396.723445 166.912099 
L 397.853397 167.455978 
L 400.113301 167.549563 
L 401.243254 167.461899 
L 402.373206 167.737333 
L 403.503158 167.692009 
L 405.763062 168.011943 
L 406.893014 167.799103 
L 408.022967 167.351243 
L 410.282871 166.730982 
L 411.412823 165.944553 
L 413.672727 163.867627 
L 415.932632 160.866806 
L 417.062584 159.8785 
L 420.45244 156.495254 
L 422.712344 154.868473 
L 423.842297 153.917764 
L 424.972249 153.535436 
L 426.102201 153.373651 
L 427.232153 153.541604 
L 428.362105 154.223288 
L 430.62201 156.833304 
L 434.011866 161.162864 
L 435.141818 162.446683 
L 437.401722 165.570753 
L 439.661627 167.800152 
L 441.921531 169.367841 
L 443.051483 169.83795 
L 444.181435 169.699792 
L 445.311388 169.330392 
L 447.571292 167.358331 
L 449.831196 165.370696 
L 452.0911 162.762419 
L 454.351005 162.564272 
L 455.480957 162.617668 
L 458.870813 163.800366 
L 460.000766 164.592271 
L 461.130718 165.784848 
L 462.26067 166.300012 
L 464.520574 166.625465 
L 466.780478 167.511442 
L 467.910431 168.196523 
L 469.040383 169.036556 
L 470.170335 169.610011 
L 471.300287 169.615484 
L 472.430239 169.831688 
L 473.560191 169.931248 
L 474.690144 169.838366 
L 475.820096 169.865441 
L 476.950048 170.250261 
L 479.209952 170.734863 
L 481.469856 172.029776 
L 482.599809 172.292712 
L 483.729761 172.416012 
L 484.859713 172.768599 
L 487.119617 172.382025 
L 488.249569 172.306327 
L 490.509474 173.286863 
L 491.639426 174.094991 
L 492.769378 175.347591 
L 493.89933 176.410431 
L 496.159234 176.351623 
L 497.289187 176.031404 
L 499.549091 174.349394 
L 500.679043 173.667724 
L 501.808995 172.634845 
L 502.938947 171.181632 
L 505.198852 167.940247 
L 506.328804 166.63641 
L 507.458756 165.629372 
L 510.848612 163.511022 
L 511.978565 162.740504 
L 513.108517 162.261687 
L 515.368421 162.25017 
L 516.498373 162.422746 
L 518.758278 162.506106 
L 519.88823 162.825484 
L 521.018182 163.014421 
L 523.278086 162.25392 
L 524.408038 161.753422 
L 526.667943 160.539286 
L 530.057799 159.836024 
L 531.187751 159.743538 
L 532.317703 159.893125 
L 535.70756 159.897559 
L 536.837512 159.918724 
L 537.967464 160.161319 
L 539.097416 160.789476 
L 540.227368 161.715567 
L 543.617225 164.081208 
L 544.747177 165.068845 
L 545.877129 165.769414 
L 547.007081 166.73097 
L 548.137033 168.126123 
L 549.266986 168.831457 
L 550.396938 169.337502 
L 551.52689 170.056282 
L 552.656842 170.943216 
L 553.786794 171.596692 
L 554.916746 172.552622 
L 556.046699 173.68151 
L 557.176651 174.590375 
L 558.306603 175.015691 
L 559.436555 175.196821 
L 560.566507 175.601701 
L 561.696459 175.862898 
L 565.086316 177.284816 
L 566.216268 177.936249 
L 568.476172 179.062328 
L 570.736077 180.237661 
L 571.866029 181.010525 
L 576.385837 182.690051 
L 578.645742 182.961586 
L 579.775694 183.108706 
L 582.035598 182.361977 
L 584.295502 180.892907 
L 585.425455 179.952071 
L 586.555407 179.60461 
L 587.685359 179.137094 
L 588.815311 178.368555 
L 589.945263 177.351988 
L 591.075215 176.816573 
L 592.205167 176.753297 
L 593.33512 176.407174 
L 594.465072 176.264708 
L 595.595024 176.440315 
L 596.724976 176.240209 
L 597.854928 175.689916 
L 598.98488 175.33951 
L 600.114833 175.208498 
L 603.504689 173.046561 
L 604.634641 172.154418 
L 610.284402 165.620804 
L 611.414354 164.61044 
L 612.544306 164.21731 
L 613.674258 163.407743 
L 614.804211 163.17403 
L 615.934163 163.656404 
L 617.064115 164.57405 
L 618.194067 166.098008 
L 621.583923 174.163448 
L 621.583923 174.163448 
" style="fill:none;stroke:#90ee90;stroke-linecap:square;stroke-width:1.5;"/>
   </g>
   <g id="patch_8">
    <path d="M 64.8 313.2 
L 64.8 28.8 
" style="fill:none;stroke:#000000;stroke-linecap:square;stroke-linejoin:miter;stroke-width:0.8;"/>
   </g>
   <g id="patch_9">
    <path d="M 655.2 313.2 
L 655.2 28.8 
" style="fill:none;stroke:#000000;stroke-linecap:square;stroke-linejoin:miter;stroke-width:0.8;"/>
   </g>
   <g id="patch_10">
    <path d="M 64.8 313.2 
L 655.2 313.2 
" style="fill:none;stroke:#000000;stroke-linecap:square;stroke-linejoin:miter;stroke-width:0.8;"/>
   </g>
   <g id="patch_11">
    <path d="M 64.8 28.8 
L 655.2 28.8 
" style="fill:none;stroke:#000000;stroke-linecap:square;stroke-linejoin:miter;stroke-width:0.8;"/>
   </g>
   <g id="text_30">
    <!-- Afwijking schatting @rolfje t.o.v. RIVM schatting, 2021-06-09 17:43 -->
    <g transform="translate(158.836875 22.8)scale(0.12 -0.12)">
     <defs>
      <path d="M 4.203125 54.6875 
L 13.1875 54.6875 
L 24.421875 12.015625 
L 35.59375 54.6875 
L 46.1875 54.6875 
L 57.421875 12.015625 
L 68.609375 54.6875 
L 77.59375 54.6875 
L 63.28125 0 
L 52.6875 0 
L 40.921875 44.828125 
L 29.109375 0 
L 18.5 0 
z
" id="DejaVuSans-119"/>
      <path d="M 10.6875 12.40625 
L 21 12.40625 
L 21 0 
L 10.6875 0 
z
" id="DejaVuSans-46"/>
      <path d="M 11.71875 12.40625 
L 22.015625 12.40625 
L 22.015625 4 
L 14.015625 -11.625 
L 7.71875 -11.625 
L 11.71875 4 
z
" id="DejaVuSans-44"/>
      <path d="M 33.015625 40.375 
Q 26.375 40.375 22.484375 35.828125 
Q 18.609375 31.296875 18.609375 23.390625 
Q 18.609375 15.53125 22.484375 10.953125 
Q 26.375 6.390625 33.015625 6.390625 
Q 39.65625 6.390625 43.53125 10.953125 
Q 47.40625 15.53125 47.40625 23.390625 
Q 47.40625 31.296875 43.53125 35.828125 
Q 39.65625 40.375 33.015625 40.375 
z
M 52.59375 71.296875 
L 52.59375 62.3125 
Q 48.875 64.0625 45.09375 64.984375 
Q 41.3125 65.921875 37.59375 65.921875 
Q 27.828125 65.921875 22.671875 59.328125 
Q 17.53125 52.734375 16.796875 39.40625 
Q 19.671875 43.65625 24.015625 45.921875 
Q 28.375 48.1875 33.59375 48.1875 
Q 44.578125 48.1875 50.953125 41.515625 
Q 57.328125 34.859375 57.328125 23.390625 
Q 57.328125 12.15625 50.6875 5.359375 
Q 44.046875 -1.421875 33.015625 -1.421875 
Q 20.359375 -1.421875 13.671875 8.265625 
Q 6.984375 17.96875 6.984375 36.375 
Q 6.984375 53.65625 15.1875 63.9375 
Q 23.390625 74.21875 37.203125 74.21875 
Q 40.921875 74.21875 44.703125 73.484375 
Q 48.484375 72.75 52.59375 71.296875 
z
" id="DejaVuSans-54"/>
      <path d="M 11.71875 12.40625 
L 22.015625 12.40625 
L 22.015625 0 
L 11.71875 0 
z
M 11.71875 51.703125 
L 22.015625 51.703125 
L 22.015625 39.3125 
L 11.71875 39.3125 
z
" id="DejaVuSans-58"/>
     </defs>
     <use xlink:href="#DejaVuSans-65"/>
     <use x="64.783203" xlink:href="#DejaVuSans-102"/>
     <use x="98.238281" xlink:href="#DejaVuSans-119"/>
     <use x="180.025391" xlink:href="#DejaVuSans-105"/>
     <use x="207.808594" xlink:href="#DejaVuSans-106"/>
     <use x="235.591797" xlink:href="#DejaVuSans-107"/>
     <use x="293.501953" xlink:href="#DejaVuSans-105"/>
     <use x="321.285156" xlink:href="#DejaVuSans-110"/>
     <use x="384.664062" xlink:href="#DejaVuSans-103"/>
     <use x="448.140625" xlink:href="#DejaVuSans-32"/>
     <use x="479.927734" xlink:href="#DejaVuSans-115"/>
     <use x="532.027344" xlink:href="#DejaVuSans-99"/>
     <use x="587.007812" xlink:href="#DejaVuSans-104"/>
     <use x="650.386719" xlink:href="#DejaVuSans-97"/>
     <use x="711.666016" xlink:href="#DejaVuSans-116"/>
     <use x="750.875" xlink:href="#DejaVuSans-116"/>
     <use x="790.083984" xlink:href="#DejaVuSans-105"/>
     <use x="817.867188" xlink:href="#DejaVuSans-110"/>
     <use x="881.246094" xlink:href="#DejaVuSans-103"/>
     <use x="944.722656" xlink:href="#DejaVuSans-32"/>
     <use x="976.509766" xlink:href="#DejaVuSans-64"/>
     <use x="1076.509766" xlink:href="#DejaVuSans-114"/>
     <use x="1115.373047" xlink:href="#DejaVuSans-111"/>
     <use x="1176.554688" xlink:href="#DejaVuSans-108"/>
     <use x="1204.337891" xlink:href="#DejaVuSans-102"/>
     <use x="1239.542969" xlink:href="#DejaVuSans-106"/>
     <use x="1267.326172" xlink:href="#DejaVuSans-101"/>
     <use x="1328.849609" xlink:href="#DejaVuSans-32"/>
     <use x="1360.636719" xlink:href="#DejaVuSans-116"/>
     <use x="1399.845703" xlink:href="#DejaVuSans-46"/>
     <use x="1431.632812" xlink:href="#DejaVuSans-111"/>
     <use x="1491.064453" xlink:href="#DejaVuSans-46"/>
     <use x="1522.851562" xlink:href="#DejaVuSans-118"/>
     <use x="1574.28125" xlink:href="#DejaVuSans-46"/>
     <use x="1606.068359" xlink:href="#DejaVuSans-32"/>
     <use x="1637.855469" xlink:href="#DejaVuSans-82"/>
     <use x="1707.337891" xlink:href="#DejaVuSans-73"/>
     <use x="1736.830078" xlink:href="#DejaVuSans-86"/>
     <use x="1805.238281" xlink:href="#DejaVuSans-77"/>
     <use x="1891.517578" xlink:href="#DejaVuSans-32"/>
     <use x="1923.304688" xlink:href="#DejaVuSans-115"/>
     <use x="1975.404297" xlink:href="#DejaVuSans-99"/>
     <use x="2030.384766" xlink:href="#DejaVuSans-104"/>
     <use x="2093.763672" xlink:href="#DejaVuSans-97"/>
     <use x="2155.042969" xlink:href="#DejaVuSans-116"/>
     <use x="2194.251953" xlink:href="#DejaVuSans-116"/>
     <use x="2233.460938" xlink:href="#DejaVuSans-105"/>
     <use x="2261.244141" xlink:href="#DejaVuSans-110"/>
     <use x="2324.623047" xlink:href="#DejaVuSans-103"/>
     <use x="2388.099609" xlink:href="#DejaVuSans-44"/>
     <use x="2419.886719" xlink:href="#DejaVuSans-32"/>
     <use x="2451.673828" xlink:href="#DejaVuSans-50"/>
     <use x="2515.296875" xlink:href="#DejaVuSans-48"/>
     <use x="2578.919922" xlink:href="#DejaVuSans-50"/>
     <use x="2642.542969" xlink:href="#DejaVuSans-49"/>
     <use x="2706.166016" xlink:href="#DejaVuSans-45"/>
     <use x="2742.25" xlink:href="#DejaVuSans-48"/>
     <use x="2805.873047" xlink:href="#DejaVuSans-54"/>
     <use x="2869.496094" xlink:href="#DejaVuSans-45"/>
     <use x="2905.580078" xlink:href="#DejaVuSans-48"/>
     <use x="2969.203125" xlink:href="#DejaVuSans-57"/>
     <use x="3032.826172" xlink:href="#DejaVuSans-32"/>
     <use x="3064.613281" xlink:href="#DejaVuSans-49"/>
     <use x="3128.236328" xlink:href="#DejaVuSans-55"/>
     <use x="3191.859375" xlink:href="#DejaVuSans-58"/>
     <use x="3225.550781" xlink:href="#DejaVuSans-52"/>
     <use x="3289.173828" xlink:href="#DejaVuSans-51"/>
    </g>
   </g>
   <g id="legend_2">
    <g id="patch_12">
     <path d="M 402.079688 51.478125 
L 648.2 51.478125 
Q 650.2 51.478125 650.2 49.478125 
L 650.2 35.8 
Q 650.2 33.8 648.2 33.8 
L 402.079688 33.8 
Q 400.079688 33.8 400.079688 35.8 
L 400.079688 49.478125 
Q 400.079688 51.478125 402.079688 51.478125 
z
" style="fill:#ffffff;opacity:0.8;stroke:#cccccc;stroke-linejoin:miter;"/>
    </g>
    <g id="line2d_60">
     <path d="M 404.079688 41.898438 
L 424.079688 41.898438 
" style="fill:none;stroke:#90ee90;stroke-linecap:square;stroke-width:1.5;"/>
    </g>
    <g id="line2d_61"/>
    <g id="text_31">
     <!-- Afwijking @rolfje t.o.v. RIVM schatting in % -->
     <g transform="translate(432.079688 45.398438)scale(0.1 -0.1)">
      <defs>
       <path d="M 72.703125 32.078125 
Q 68.453125 32.078125 66.03125 28.46875 
Q 63.625 24.859375 63.625 18.40625 
Q 63.625 12.0625 66.03125 8.421875 
Q 68.453125 4.78125 72.703125 4.78125 
Q 76.859375 4.78125 79.265625 8.421875 
Q 81.6875 12.0625 81.6875 18.40625 
Q 81.6875 24.8125 79.265625 28.4375 
Q 76.859375 32.078125 72.703125 32.078125 
z
M 72.703125 38.28125 
Q 80.421875 38.28125 84.953125 32.90625 
Q 89.5 27.546875 89.5 18.40625 
Q 89.5 9.28125 84.9375 3.921875 
Q 80.375 -1.421875 72.703125 -1.421875 
Q 64.890625 -1.421875 60.34375 3.921875 
Q 55.8125 9.28125 55.8125 18.40625 
Q 55.8125 27.59375 60.375 32.9375 
Q 64.9375 38.28125 72.703125 38.28125 
z
M 22.3125 68.015625 
Q 18.109375 68.015625 15.6875 64.375 
Q 13.28125 60.75 13.28125 54.390625 
Q 13.28125 47.953125 15.671875 44.328125 
Q 18.0625 40.71875 22.3125 40.71875 
Q 26.5625 40.71875 28.96875 44.328125 
Q 31.390625 47.953125 31.390625 54.390625 
Q 31.390625 60.6875 28.953125 64.34375 
Q 26.515625 68.015625 22.3125 68.015625 
z
M 66.40625 74.21875 
L 74.21875 74.21875 
L 28.609375 -1.421875 
L 20.796875 -1.421875 
z
M 22.3125 74.21875 
Q 30.03125 74.21875 34.609375 68.875 
Q 39.203125 63.53125 39.203125 54.390625 
Q 39.203125 45.171875 34.640625 39.84375 
Q 30.078125 34.515625 22.3125 34.515625 
Q 14.546875 34.515625 10.03125 39.859375 
Q 5.515625 45.21875 5.515625 54.390625 
Q 5.515625 63.484375 10.046875 68.84375 
Q 14.59375 74.21875 22.3125 74.21875 
z
" id="DejaVuSans-37"/>
      </defs>
      <use xlink:href="#DejaVuSans-65"/>
      <use x="64.783203" xlink:href="#DejaVuSans-102"/>
      <use x="98.238281" xlink:href="#DejaVuSans-119"/>
      <use x="180.025391" xlink:href="#DejaVuSans-105"/>
      <use x="207.808594" xlink:href="#DejaVuSans-106"/>
      <use x="235.591797" xlink:href="#DejaVuSans-107"/>
      <use x="293.501953" xlink:href="#DejaVuSans-105"/>
      <use x="321.285156" xlink:href="#DejaVuSans-110"/>
      <use x="384.664062" xlink:href="#DejaVuSans-103"/>
      <use x="448.140625" xlink:href="#DejaVuSans-32"/>
      <use x="479.927734" xlink:href="#DejaVuSans-64"/>
      <use x="579.927734" xlink:href="#DejaVuSans-114"/>
      <use x="618.791016" xlink:href="#DejaVuSans-111"/>
      <use x="679.972656" xlink:href="#DejaVuSans-108"/>
      <use x="707.755859" xlink:href="#DejaVuSans-102"/>
      <use x="742.960938" xlink:href="#DejaVuSans-106"/>
      <use x="770.744141" xlink:href="#DejaVuSans-101"/>
      <use x="832.267578" xlink:href="#DejaVuSans-32"/>
      <use x="864.054688" xlink:href="#DejaVuSans-116"/>
      <use x="903.263672" xlink:href="#DejaVuSans-46"/>
      <use x="935.050781" xlink:href="#DejaVuSans-111"/>
      <use x="994.482422" xlink:href="#DejaVuSans-46"/>
      <use x="1026.269531" xlink:href="#DejaVuSans-118"/>
      <use x="1077.699219" xlink:href="#DejaVuSans-46"/>
      <use x="1109.486328" xlink:href="#DejaVuSans-32"/>
      <use x="1141.273438" xlink:href="#DejaVuSans-82"/>
      <use x="1210.755859" xlink:href="#DejaVuSans-73"/>
      <use x="1240.248047" xlink:href="#DejaVuSans-86"/>
      <use x="1308.65625" xlink:href="#DejaVuSans-77"/>
      <use x="1394.935547" xlink:href="#DejaVuSans-32"/>
      <use x="1426.722656" xlink:href="#DejaVuSans-115"/>
      <use x="1478.822266" xlink:href="#DejaVuSans-99"/>
      <use x="1533.802734" xlink:href="#DejaVuSans-104"/>
      <use x="1597.181641" xlink:href="#DejaVuSans-97"/>
      <use x="1658.460938" xlink:href="#DejaVuSans-116"/>
      <use x="1697.669922" xlink:href="#DejaVuSans-116"/>
      <use x="1736.878906" xlink:href="#DejaVuSans-105"/>
      <use x="1764.662109" xlink:href="#DejaVuSans-110"/>
      <use x="1828.041016" xlink:href="#DejaVuSans-103"/>
      <use x="1891.517578" xlink:href="#DejaVuSans-32"/>
      <use x="1923.304688" xlink:href="#DejaVuSans-105"/>
      <use x="1951.087891" xlink:href="#DejaVuSans-110"/>
      <use x="2014.466797" xlink:href="#DejaVuSans-32"/>
      <use x="2046.253906" xlink:href="#DejaVuSans-37"/>
     </g>
    </g>
   </g>
  </g>
 </g>
 <defs>
  <clipPath id="pb845a1bb23">
   <rect height="284.4" width="590.4" x="64.8" y="28.8"/>
  </clipPath>
 </defs>
</svg>
