<?xml version="1.0" encoding="utf-8" standalone="no"?>
<!DOCTYPE svg PUBLIC "-//W3C//DTD SVG 1.1//EN"
  "http://www.w3.org/Graphics/SVG/1.1/DTD/svg11.dtd">
<!-- Created with matplotlib (https://matplotlib.org/) -->
<svg height="360pt" version="1.1" viewBox="0 0 720 360" width="720pt" xmlns="http://www.w3.org/2000/svg" xmlns:xlink="http://www.w3.org/1999/xlink">
 <metadata>
  <rdf:RDF xmlns:cc="http://creativecommons.org/ns#" xmlns:dc="http://purl.org/dc/elements/1.1/" xmlns:rdf="http://www.w3.org/1999/02/22-rdf-syntax-ns#">
   <cc:Work>
    <dc:type rdf:resource="http://purl.org/dc/dcmitype/StillImage"/>
    <dc:date>2021-06-21T23:40:22.755739</dc:date>
    <dc:format>image/svg+xml</dc:format>
    <dc:creator>
     <cc:Agent>
      <dc:title>Matplotlib v3.3.2, https://matplotlib.org/</dc:title>
     </cc:Agent>
    </dc:creator>
   </cc:Work>
  </rdf:RDF>
 </metadata>
 <defs>
  <style type="text/css">*{stroke-linecap:butt;stroke-linejoin:round;}</style>
 </defs>
 <g id="figure_1">
  <g id="patch_1">
   <path d="M 0 360 
L 720 360 
L 720 0 
L 0 0 
z
" style="fill:#ffffff;"/>
  </g>
  <g id="axes_1">
   <g id="patch_2">
    <path d="M 64.8 313.2 
L 655.2 313.2 
L 655.2 28.8 
L 64.8 28.8 
z
" style="fill:#ffffff;"/>
   </g>
   <g id="PolyCollection_1">
    <path clip-path="url(#pcaa6c0164e)" d="M 207.835052 308.39197 
L 207.835052 308.39197 
L 208.941706 308.502455 
L 210.04836 308.61294 
L 211.155014 308.723425 
L 212.261668 308.833911 
L 213.368322 308.944396 
L 214.474977 309.054881 
L 215.581631 309.149291 
L 216.688285 309.240283 
L 217.794939 309.337546 
L 218.901593 309.438485 
L 222.221556 309.541508 
L 223.32821 309.637479 
L 224.434864 309.728437 
L 225.541518 309.809643 
L 229.968135 309.87629 
L 231.074789 309.907814 
L 232.181443 309.917516 
L 236.60806 309.927516 
L 237.714714 309.912428 
L 238.821368 309.857961 
L 239.928022 309.781284 
L 242.141331 309.659229 
L 246.567948 309.507439 
L 247.674602 309.333619 
L 248.781256 309.140291 
L 254.314527 308.908657 
L 255.421181 308.653781 
L 257.634489 308.36215 
L 259.847798 308.061338 
L 260.954452 307.757539 
L 262.061106 307.430597 
L 263.16776 307.105313 
L 264.274414 306.787936 
L 265.381068 306.459996 
L 266.487723 306.144909 
L 267.594377 305.835157 
L 268.701031 305.50994 
L 269.807685 305.188676 
L 270.914339 304.88625 
L 272.020993 304.587418 
L 273.127648 304.319608 
L 274.234302 304.05734 
L 275.340956 303.792173 
L 276.44761 303.555457 
L 277.554264 303.352426 
L 278.660918 303.185669 
L 279.767573 303.042818 
L 280.874227 302.908875 
L 281.980881 302.779301 
L 284.194189 302.673246 
L 285.300843 302.585682 
L 286.407498 302.531702 
L 287.514152 302.511542 
L 288.620806 302.485915 
L 289.72746 302.479703 
L 290.834114 302.499635 
L 291.940769 302.493953 
L 293.047423 302.477952 
L 294.154077 302.463087 
L 295.260731 302.44922 
L 296.367385 302.437234 
L 297.474039 302.413326 
L 298.580694 302.383967 
L 299.687348 302.304735 
L 300.794002 302.180342 
L 301.900656 301.99811 
L 303.00731 301.7837 
L 304.113964 301.519647 
L 305.220619 301.172142 
L 306.327273 300.798048 
L 307.433927 300.369248 
L 308.540581 299.88129 
L 309.647235 299.356011 
L 310.753889 298.757977 
L 311.860544 298.114354 
L 312.967198 297.394024 
L 314.073852 296.66144 
L 315.180506 295.881336 
L 316.28716 295.121517 
L 317.393814 294.375269 
L 318.500469 293.614531 
L 319.607123 292.837098 
L 320.713777 292.030462 
L 321.820431 291.188992 
L 322.927085 290.312751 
L 324.033739 289.40439 
L 325.140394 288.517867 
L 326.247048 287.595553 
L 327.353702 286.662339 
L 328.460356 285.695407 
L 329.56701 284.708845 
L 330.673664 283.628637 
L 331.780319 282.464487 
L 332.886973 281.254885 
L 333.993627 279.967494 
L 335.100281 278.545771 
L 336.206935 277.021467 
L 337.31359 275.349055 
L 338.420244 273.557316 
L 339.526898 271.639277 
L 340.633552 269.670462 
L 341.740206 267.595956 
L 342.84686 265.42357 
L 343.953515 263.160518 
L 345.060169 260.860301 
L 346.166823 258.504785 
L 347.273477 256.157034 
L 348.380131 253.886899 
L 349.486785 251.69589 
L 350.59344 249.571541 
L 351.700094 247.52767 
L 352.806748 245.548777 
L 353.913402 243.667628 
L 355.020056 241.84614 
L 356.12671 240.173713 
L 357.233365 238.586204 
L 358.340019 237.071803 
L 359.446673 235.608352 
L 360.553327 234.270627 
L 361.659981 233.024357 
L 362.766635 231.943477 
L 363.87329 231.131578 
L 364.979944 230.493878 
L 366.086598 230.179459 
L 367.193252 230.134222 
L 368.299906 230.289438 
L 369.40656 230.712601 
L 370.513215 231.396291 
L 371.619869 232.42275 
L 372.726523 233.723922 
L 373.833177 235.300029 
L 374.939831 237.025752 
L 376.046485 238.807247 
L 377.15314 240.566957 
L 378.259794 242.295381 
L 379.366448 244.112131 
L 380.473102 245.780759 
L 381.579756 247.333631 
L 382.68641 248.811315 
L 383.793065 250.119099 
L 384.899719 251.221714 
L 386.006373 252.132784 
L 387.113027 253.025608 
L 388.219681 253.761338 
L 389.326336 254.422316 
L 390.43299 255.075808 
L 391.539644 255.694087 
L 392.646298 256.232609 
L 393.752952 256.745531 
L 394.859606 257.337983 
L 395.966261 257.862127 
L 397.072915 258.311621 
L 398.179569 258.68438 
L 399.286223 258.945584 
L 400.392877 259.061634 
L 401.499531 258.999629 
L 402.606186 258.917953 
L 403.71284 258.690387 
L 404.819494 258.273847 
L 405.926148 257.635866 
L 407.032802 256.736654 
L 408.139456 255.4685 
L 409.246111 253.924412 
L 410.352765 252.345904 
L 411.459419 250.544816 
L 412.566073 248.617313 
L 413.672727 246.602206 
L 414.779381 244.449134 
L 415.886036 242.085189 
L 416.99269 239.625589 
L 418.099344 237.23599 
L 419.205998 234.790604 
L 420.312652 232.474555 
L 421.419306 230.250719 
L 422.525961 228.492172 
L 423.632615 227.020642 
L 424.739269 225.751345 
L 425.845923 224.930517 
L 426.952577 224.383303 
L 428.059231 224.097178 
L 429.165886 224.177493 
L 430.27254 224.751005 
L 431.379194 225.523079 
L 432.485848 226.474157 
L 433.592502 227.776065 
L 434.699157 229.296876 
L 435.805811 231.17819 
L 436.912465 232.693237 
L 438.019119 234.067982 
L 439.125773 235.380114 
L 440.232427 236.642125 
L 441.339082 237.924392 
L 442.445736 239.33942 
L 444.659044 240.707602 
L 445.765698 241.744594 
L 446.872352 242.742518 
L 447.979007 243.697707 
L 449.085661 244.721471 
L 450.192315 245.67865 
L 451.298969 246.495086 
L 452.405623 247.547833 
L 453.512277 248.626386 
L 454.618932 249.599082 
L 455.725586 250.475328 
L 456.83224 251.402651 
L 457.938894 252.142016 
L 459.045548 252.889527 
L 460.152202 253.776825 
L 461.258857 254.627241 
L 462.365511 255.39492 
L 463.472165 256.038986 
L 464.578819 256.734344 
L 465.685473 257.407653 
L 466.792127 258.078099 
L 467.898782 258.798639 
L 469.005436 259.58529 
L 470.11209 260.346727 
L 471.218744 260.99207 
L 472.325398 261.922221 
L 473.432052 262.786892 
L 474.538707 263.60668 
L 475.645361 264.417391 
L 476.752015 265.199882 
L 477.858669 265.874052 
L 478.965323 266.454243 
L 480.071978 267.05903 
L 481.178632 267.656652 
L 482.285286 268.164515 
L 483.39194 268.615958 
L 484.498594 268.95924 
L 485.605248 269.207168 
L 486.711903 268.949027 
L 487.818557 268.636608 
L 488.925211 268.252429 
L 490.031865 267.822088 
L 491.138519 267.352954 
L 492.245173 266.821507 
L 493.351828 266.19614 
L 494.458482 265.444054 
L 495.565136 264.580548 
L 496.67179 263.751811 
L 497.778444 262.953973 
L 498.885098 262.248365 
L 499.991753 261.583782 
L 501.098407 261.10407 
L 502.205061 260.662714 
L 503.311715 260.330068 
L 504.418369 259.973062 
L 505.525023 259.638604 
L 506.631678 259.267421 
L 507.738332 258.803898 
L 508.844986 258.310473 
L 509.95164 257.812576 
L 511.058294 257.306397 
L 512.164948 256.689899 
L 513.271603 255.964867 
L 514.378257 255.12044 
L 515.484911 254.144146 
L 516.591565 253.080451 
L 517.698219 251.920018 
L 518.804873 250.762831 
L 519.911528 249.513997 
L 521.018182 248.294302 
L 522.124836 247.093906 
L 523.23149 245.815149 
L 524.338144 244.453085 
L 525.444799 243.074002 
L 526.551453 241.853018 
L 527.658107 240.656058 
L 528.764761 239.569454 
L 529.871415 238.623462 
L 530.978069 237.636179 
L 532.084724 236.671609 
L 533.191378 235.883584 
L 534.298032 235.414129 
L 535.404686 235.095543 
L 536.51134 234.937919 
L 537.617994 234.934141 
L 538.724649 235.034937 
L 539.831303 235.142088 
L 540.937957 235.15636 
L 542.044611 235.367144 
L 543.151265 235.597951 
L 544.257919 235.81989 
L 545.364574 236.14433 
L 546.471228 236.390352 
L 547.577882 236.411272 
L 548.684536 236.14813 
L 549.79119 235.843098 
L 550.897844 235.459602 
L 552.004499 235.061475 
L 553.111153 234.65723 
L 554.217807 234.19355 
L 555.324461 233.811722 
L 556.431115 233.349951 
L 557.537769 233.000019 
L 558.644424 232.710058 
L 559.751078 232.48318 
L 560.857732 232.379531 
L 561.964386 232.372018 
L 563.07104 232.576699 
L 564.177694 232.979597 
L 565.284349 233.722188 
L 566.391003 234.556942 
L 567.497657 235.491804 
L 568.604311 236.554779 
L 569.710965 237.588046 
L 570.817619 238.630001 
L 571.924274 239.67163 
L 573.030928 240.829614 
L 574.137582 241.976963 
L 575.244236 243.190751 
L 576.35089 244.564422 
L 577.457545 245.789717 
L 578.564199 246.752164 
L 579.670853 247.481445 
L 580.777507 248.368321 
L 581.884161 249.285942 
L 582.990815 250.296817 
L 584.09747 251.404551 
L 585.204124 252.565255 
L 586.310778 253.776394 
L 587.417432 254.950809 
L 588.524086 256.386024 
L 589.63074 257.902068 
L 590.737395 259.320214 
L 591.844049 260.822827 
L 592.950703 262.412423 
L 594.057357 264.015883 
L 595.164011 265.499283 
L 596.270665 267.0973 
L 597.37732 268.637591 
L 598.483974 270.162162 
L 599.590628 271.635084 
L 600.697282 272.967687 
L 601.803936 274.308859 
L 602.91059 275.382303 
L 604.017245 276.357811 
L 605.123899 277.386927 
L 606.230553 278.476443 
L 607.337207 279.62074 
L 608.443861 280.774683 
L 609.550515 281.852863 
L 610.65717 282.746248 
L 611.763824 283.667782 
L 612.870478 284.621853 
L 613.977132 285.60375 
L 615.083786 286.648133 
L 617.297095 287.644095 
L 618.403749 288.682951 
L 619.510403 289.724803 
L 620.617057 290.732991 
L 621.723711 291.703261 
L 623.93702 292.67353 
L 625.043674 293.6438 
L 626.150328 294.61407 
L 627.256982 295.584339 
L 628.363636 296.554609 
L 628.363636 296.554609 
L 628.363636 282.287131 
L 627.256982 280.485202 
L 626.150328 278.683272 
L 625.043674 276.881343 
L 623.93702 275.079413 
L 621.723711 273.277484 
L 620.617057 271.475554 
L 619.510403 269.603206 
L 618.403749 267.668338 
L 617.297095 265.739033 
L 615.083786 263.88939 
L 613.977132 261.949821 
L 612.870478 260.126299 
L 611.763824 258.354452 
L 610.65717 256.643032 
L 609.550515 254.983889 
L 608.443861 252.981554 
L 607.337207 250.838517 
L 606.230553 248.713393 
L 605.123899 246.690008 
L 604.017245 244.778792 
L 602.91059 242.967135 
L 601.803936 240.973595 
L 600.697282 238.482847 
L 599.590628 236.008013 
L 598.483974 233.272587 
L 597.37732 230.441241 
L 596.270665 227.580701 
L 595.164011 224.612953 
L 594.057357 221.858069 
L 592.950703 218.880214 
L 591.844049 215.928107 
L 590.737395 213.137541 
L 589.63074 210.50384 
L 588.524086 207.688331 
L 587.417432 205.02293 
L 586.310778 202.841875 
L 585.204124 200.592617 
L 584.09747 198.437024 
L 582.990815 196.379803 
L 581.884161 194.502464 
L 580.777507 192.798311 
L 579.670853 191.151256 
L 578.564199 189.796875 
L 577.457545 188.009474 
L 576.35089 185.733927 
L 575.244236 183.182824 
L 574.137582 180.928646 
L 573.030928 178.797855 
L 571.924274 176.647313 
L 570.817619 174.712859 
L 569.710965 172.7778 
L 568.604311 170.858875 
L 567.497657 168.884779 
L 566.391003 167.148607 
L 565.284349 165.598349 
L 564.177694 164.219252 
L 563.07104 163.471013 
L 561.964386 163.09089 
L 560.857732 163.104843 
L 559.751078 163.297334 
L 558.644424 163.718679 
L 557.537769 164.257179 
L 556.431115 164.907053 
L 555.324461 165.764626 
L 554.217807 166.473735 
L 553.111153 167.334855 
L 552.004499 168.085596 
L 550.897844 168.824974 
L 549.79119 169.537182 
L 548.684536 170.10367 
L 547.577882 170.592362 
L 546.471228 170.553511 
L 545.364574 170.096613 
L 544.257919 169.494082 
L 543.151265 169.081909 
L 542.044611 168.653267 
L 540.937957 168.261812 
L 539.831303 168.235307 
L 538.724649 168.036312 
L 537.617994 167.849119 
L 536.51134 167.856136 
L 535.404686 168.148865 
L 534.298032 168.740525 
L 533.191378 169.612371 
L 532.084724 171.075846 
L 530.978069 172.867189 
L 529.871415 174.700715 
L 528.764761 176.457557 
L 527.658107 178.475537 
L 526.551453 180.698461 
L 525.444799 182.966004 
L 524.338144 185.527158 
L 523.23149 188.056706 
L 522.124836 190.43154 
L 521.018182 192.660846 
L 519.911528 194.925994 
L 518.804873 197.245257 
L 517.698219 199.394319 
L 516.591565 201.549409 
L 515.484911 203.524842 
L 514.378257 205.33796 
L 513.271603 206.906182 
L 512.164948 208.25267 
L 511.058294 209.397595 
L 509.95164 210.337641 
L 508.844986 211.262307 
L 507.738332 212.178668 
L 506.631678 213.039496 
L 505.525023 213.728836 
L 504.418369 214.349973 
L 503.311715 215.012983 
L 502.205061 215.630755 
L 501.098407 216.450416 
L 499.991753 217.34131 
L 498.885098 218.575535 
L 497.778444 219.885949 
L 496.67179 221.367648 
L 495.565136 222.906731 
L 494.458482 224.510387 
L 493.351828 225.907117 
L 492.245173 227.068513 
L 491.138519 228.055486 
L 490.031865 228.926736 
L 488.925211 229.725939 
L 487.818557 230.439415 
L 486.711903 231.019622 
L 485.605248 231.499026 
L 484.498594 231.038588 
L 483.39194 230.401065 
L 482.285286 229.562672 
L 481.178632 228.619497 
L 480.071978 227.509627 
L 478.965323 226.386452 
L 477.858669 225.308953 
L 476.752015 224.056924 
L 475.645361 222.603727 
L 474.538707 221.09812 
L 473.432052 219.575657 
L 472.325398 217.969839 
L 471.218744 216.242415 
L 470.11209 215.043921 
L 469.005436 213.629824 
L 467.898782 212.168901 
L 466.792127 210.830756 
L 465.685473 209.58564 
L 464.578819 208.335209 
L 463.472165 207.043832 
L 462.365511 205.847708 
L 461.258857 204.422019 
L 460.152202 202.842675 
L 459.045548 201.194835 
L 457.938894 199.806601 
L 456.83224 198.433496 
L 455.725586 196.711323 
L 454.618932 195.08401 
L 453.512277 193.277574 
L 452.405623 191.274546 
L 451.298969 189.319445 
L 450.192315 187.803207 
L 449.085661 186.025589 
L 447.979007 184.124312 
L 446.872352 182.350391 
L 445.765698 180.497102 
L 444.659044 178.571261 
L 442.445736 176.030351 
L 441.339082 173.402443 
L 440.232427 171.021089 
L 439.125773 168.677354 
L 438.019119 166.240538 
L 436.912465 163.687439 
L 435.805811 160.873782 
L 434.699157 157.379912 
L 433.592502 154.55555 
L 432.485848 152.137721 
L 431.379194 150.371433 
L 430.27254 148.93758 
L 429.165886 147.872488 
L 428.059231 147.723331 
L 426.952577 148.254706 
L 425.845923 149.27096 
L 424.739269 150.795356 
L 423.632615 153.152621 
L 422.525961 155.885462 
L 421.419306 159.151335 
L 420.312652 163.281317 
L 419.205998 167.58255 
L 418.099344 172.123981 
L 416.99269 176.561807 
L 415.886036 181.129637 
L 414.779381 185.51982 
L 413.672727 189.518382 
L 412.566073 193.260724 
L 411.459419 196.840373 
L 410.352765 200.185249 
L 409.246111 203.116765 
L 408.139456 205.984358 
L 407.032802 208.339501 
L 405.926148 210.009465 
L 404.819494 211.194287 
L 403.71284 211.967862 
L 402.606186 212.390484 
L 401.499531 212.542169 
L 400.392877 212.65732 
L 399.286223 212.441799 
L 398.179569 211.956705 
L 397.072915 211.264439 
L 395.966261 210.429665 
L 394.859606 209.456253 
L 393.752952 208.355986 
L 392.646298 207.403416 
L 391.539644 206.403304 
L 390.43299 205.255072 
L 389.326336 204.041444 
L 388.219681 202.813914 
L 387.113027 201.447558 
L 386.006373 199.789457 
L 384.899719 198.097469 
L 383.793065 196.049756 
L 382.68641 193.621014 
L 381.579756 190.876743 
L 380.473102 187.992838 
L 379.366448 184.893958 
L 378.259794 181.519994 
L 377.15314 178.310063 
L 376.046485 175.04203 
L 374.939831 171.733539 
L 373.833177 168.528625 
L 372.726523 165.60157 
L 371.619869 163.185107 
L 370.513215 161.278827 
L 369.40656 160.009116 
L 368.299906 159.223241 
L 367.193252 158.934984 
L 366.086598 159.018995 
L 364.979944 159.602917 
L 363.87329 160.787216 
L 362.766635 162.295029 
L 361.659981 164.302378 
L 360.553327 166.616879 
L 359.446673 169.101225 
L 358.340019 171.819062 
L 357.233365 174.631521 
L 356.12671 177.579752 
L 355.020056 180.685689 
L 353.913402 184.068452 
L 352.806748 187.562014 
L 351.700094 191.237102 
L 350.59344 195.032862 
L 349.486785 198.978082 
L 348.380131 203.047097 
L 347.273477 207.263062 
L 346.166823 211.623172 
L 345.060169 215.997701 
L 343.953515 220.269533 
L 342.84686 224.472345 
L 341.740206 228.506775 
L 340.633552 232.35943 
L 339.526898 236.0158 
L 338.420244 239.577872 
L 337.31359 242.905387 
L 336.206935 246.011296 
L 335.100281 248.842146 
L 333.993627 251.482488 
L 332.886973 253.873358 
L 331.780319 256.119762 
L 330.673664 258.281754 
L 329.56701 260.287856 
L 328.460356 262.120041 
L 327.353702 263.915772 
L 326.247048 265.648885 
L 325.140394 267.361754 
L 324.033739 269.008152 
L 322.927085 270.695109 
L 321.820431 272.322413 
L 320.713777 273.885144 
L 319.607123 275.383182 
L 318.500469 276.826986 
L 317.393814 278.239785 
L 316.28716 279.625674 
L 315.180506 281.036768 
L 314.073852 282.485531 
L 312.967198 283.846045 
L 311.860544 285.1838 
L 310.753889 286.3791 
L 309.647235 287.489734 
L 308.540581 288.465254 
L 307.433927 289.371461 
L 306.327273 290.167804 
L 305.220619 290.862549 
L 304.113964 291.507916 
L 303.00731 291.998301 
L 301.900656 292.396489 
L 300.794002 292.734921 
L 299.687348 292.965936 
L 298.580694 293.113081 
L 297.474039 293.167606 
L 296.367385 293.212006 
L 295.260731 293.234265 
L 294.154077 293.260019 
L 293.047423 293.287625 
L 291.940769 293.317342 
L 290.834114 293.327893 
L 289.72746 293.290877 
L 288.620806 293.302413 
L 287.514152 293.350006 
L 286.407498 293.387447 
L 285.300843 293.487694 
L 284.194189 293.650313 
L 281.980881 293.847273 
L 280.874227 294.087911 
L 279.767573 294.336662 
L 278.660918 294.601957 
L 277.554264 294.911649 
L 276.44761 295.288706 
L 275.340956 295.728321 
L 274.234302 296.220775 
L 273.127648 296.707844 
L 272.020993 297.205205 
L 270.914339 297.760179 
L 269.807685 298.321828 
L 268.701031 298.918461 
L 267.594377 299.522435 
L 266.487723 300.097689 
L 265.381068 300.682849 
L 264.274414 301.291881 
L 263.16776 301.881296 
L 262.061106 302.485395 
L 260.954452 303.092572 
L 259.847798 303.656771 
L 257.634489 304.215422 
L 255.421181 304.757021 
L 254.314527 305.230363 
L 248.781256 305.660541 
L 247.674602 306.019579 
L 246.567948 306.342387 
L 242.141331 306.624282 
L 239.928022 306.850956 
L 238.821368 306.993357 
L 237.714714 307.094509 
L 236.60806 307.12253 
L 232.181443 307.103959 
L 231.074789 307.085941 
L 229.968135 307.027395 
L 225.541518 306.903622 
L 224.434864 306.752812 
L 223.32821 306.583889 
L 222.221556 306.405657 
L 218.901593 306.214329 
L 217.794939 306.02687 
L 216.688285 305.84624 
L 215.581631 305.677256 
L 214.474977 305.501922 
L 213.368322 305.296735 
L 212.261668 305.091548 
L 211.155014 304.886362 
L 210.04836 304.681175 
L 208.941706 304.475988 
L 207.835052 304.270801 
z
" style="fill:#0000ff;fill-opacity:0.1;"/>
   </g>
   <g id="matplotlib.axis_1">
    <g id="xtick_1">
     <g id="line2d_1">
      <path clip-path="url(#pcaa6c0164e)" d="M 106.022868 313.2 
L 106.022868 28.8 
" style="fill:none;stroke:#808080;stroke-dasharray:6.4,1.6,1,1.6;stroke-dashoffset:0;stroke-opacity:0.3;"/>
     </g>
     <g id="line2d_2">
      <defs>
       <path d="M 0 0 
L 0 3.5 
" id="m0a881c1048" style="stroke:#000000;stroke-width:0.8;"/>
      </defs>
      <g>
       <use style="stroke:#000000;stroke-width:0.8;" x="106.022868" xlink:href="#m0a881c1048" y="313.2"/>
      </g>
     </g>
     <g id="text_1">
      <!-- 2020-03 -->
      <g transform="translate(85.131462 327.798437)scale(0.1 -0.1)">
       <defs>
        <path d="M 19.1875 8.296875 
L 53.609375 8.296875 
L 53.609375 0 
L 7.328125 0 
L 7.328125 8.296875 
Q 12.9375 14.109375 22.625 23.890625 
Q 32.328125 33.6875 34.8125 36.53125 
Q 39.546875 41.84375 41.421875 45.53125 
Q 43.3125 49.21875 43.3125 52.78125 
Q 43.3125 58.59375 39.234375 62.25 
Q 35.15625 65.921875 28.609375 65.921875 
Q 23.96875 65.921875 18.8125 64.3125 
Q 13.671875 62.703125 7.8125 59.421875 
L 7.8125 69.390625 
Q 13.765625 71.78125 18.9375 73 
Q 24.125 74.21875 28.421875 74.21875 
Q 39.75 74.21875 46.484375 68.546875 
Q 53.21875 62.890625 53.21875 53.421875 
Q 53.21875 48.921875 51.53125 44.890625 
Q 49.859375 40.875 45.40625 35.40625 
Q 44.1875 33.984375 37.640625 27.21875 
Q 31.109375 20.453125 19.1875 8.296875 
z
" id="DejaVuSans-50"/>
        <path d="M 31.78125 66.40625 
Q 24.171875 66.40625 20.328125 58.90625 
Q 16.5 51.421875 16.5 36.375 
Q 16.5 21.390625 20.328125 13.890625 
Q 24.171875 6.390625 31.78125 6.390625 
Q 39.453125 6.390625 43.28125 13.890625 
Q 47.125 21.390625 47.125 36.375 
Q 47.125 51.421875 43.28125 58.90625 
Q 39.453125 66.40625 31.78125 66.40625 
z
M 31.78125 74.21875 
Q 44.046875 74.21875 50.515625 64.515625 
Q 56.984375 54.828125 56.984375 36.375 
Q 56.984375 17.96875 50.515625 8.265625 
Q 44.046875 -1.421875 31.78125 -1.421875 
Q 19.53125 -1.421875 13.0625 8.265625 
Q 6.59375 17.96875 6.59375 36.375 
Q 6.59375 54.828125 13.0625 64.515625 
Q 19.53125 74.21875 31.78125 74.21875 
z
" id="DejaVuSans-48"/>
        <path d="M 4.890625 31.390625 
L 31.203125 31.390625 
L 31.203125 23.390625 
L 4.890625 23.390625 
z
" id="DejaVuSans-45"/>
        <path d="M 40.578125 39.3125 
Q 47.65625 37.796875 51.625 33 
Q 55.609375 28.21875 55.609375 21.1875 
Q 55.609375 10.40625 48.1875 4.484375 
Q 40.765625 -1.421875 27.09375 -1.421875 
Q 22.515625 -1.421875 17.65625 -0.515625 
Q 12.796875 0.390625 7.625 2.203125 
L 7.625 11.71875 
Q 11.71875 9.328125 16.59375 8.109375 
Q 21.484375 6.890625 26.8125 6.890625 
Q 36.078125 6.890625 40.9375 10.546875 
Q 45.796875 14.203125 45.796875 21.1875 
Q 45.796875 27.640625 41.28125 31.265625 
Q 36.765625 34.90625 28.71875 34.90625 
L 20.21875 34.90625 
L 20.21875 43.015625 
L 29.109375 43.015625 
Q 36.375 43.015625 40.234375 45.921875 
Q 44.09375 48.828125 44.09375 54.296875 
Q 44.09375 59.90625 40.109375 62.90625 
Q 36.140625 65.921875 28.71875 65.921875 
Q 24.65625 65.921875 20.015625 65.03125 
Q 15.375 64.15625 9.8125 62.3125 
L 9.8125 71.09375 
Q 15.4375 72.65625 20.34375 73.4375 
Q 25.25 74.21875 29.59375 74.21875 
Q 40.828125 74.21875 47.359375 69.109375 
Q 53.90625 64.015625 53.90625 55.328125 
Q 53.90625 49.265625 50.4375 45.09375 
Q 46.96875 40.921875 40.578125 39.3125 
z
" id="DejaVuSans-51"/>
       </defs>
       <use xlink:href="#DejaVuSans-50"/>
       <use x="63.623047" xlink:href="#DejaVuSans-48"/>
       <use x="127.246094" xlink:href="#DejaVuSans-50"/>
       <use x="190.869141" xlink:href="#DejaVuSans-48"/>
       <use x="254.492188" xlink:href="#DejaVuSans-45"/>
       <use x="290.576172" xlink:href="#DejaVuSans-48"/>
       <use x="354.199219" xlink:href="#DejaVuSans-51"/>
      </g>
     </g>
    </g>
    <g id="xtick_2">
     <g id="line2d_3">
      <path clip-path="url(#pcaa6c0164e)" d="M 173.528772 313.2 
L 173.528772 28.8 
" style="fill:none;stroke:#808080;stroke-dasharray:6.4,1.6,1,1.6;stroke-dashoffset:0;stroke-opacity:0.3;"/>
     </g>
     <g id="line2d_4">
      <g>
       <use style="stroke:#000000;stroke-width:0.8;" x="173.528772" xlink:href="#m0a881c1048" y="313.2"/>
      </g>
     </g>
     <g id="text_2">
      <!-- 2020-05 -->
      <g transform="translate(152.637366 327.798437)scale(0.1 -0.1)">
       <defs>
        <path d="M 10.796875 72.90625 
L 49.515625 72.90625 
L 49.515625 64.59375 
L 19.828125 64.59375 
L 19.828125 46.734375 
Q 21.96875 47.46875 24.109375 47.828125 
Q 26.265625 48.1875 28.421875 48.1875 
Q 40.625 48.1875 47.75 41.5 
Q 54.890625 34.8125 54.890625 23.390625 
Q 54.890625 11.625 47.5625 5.09375 
Q 40.234375 -1.421875 26.90625 -1.421875 
Q 22.3125 -1.421875 17.546875 -0.640625 
Q 12.796875 0.140625 7.71875 1.703125 
L 7.71875 11.625 
Q 12.109375 9.234375 16.796875 8.0625 
Q 21.484375 6.890625 26.703125 6.890625 
Q 35.15625 6.890625 40.078125 11.328125 
Q 45.015625 15.765625 45.015625 23.390625 
Q 45.015625 31 40.078125 35.4375 
Q 35.15625 39.890625 26.703125 39.890625 
Q 22.75 39.890625 18.8125 39.015625 
Q 14.890625 38.140625 10.796875 36.28125 
z
" id="DejaVuSans-53"/>
       </defs>
       <use xlink:href="#DejaVuSans-50"/>
       <use x="63.623047" xlink:href="#DejaVuSans-48"/>
       <use x="127.246094" xlink:href="#DejaVuSans-50"/>
       <use x="190.869141" xlink:href="#DejaVuSans-48"/>
       <use x="254.492188" xlink:href="#DejaVuSans-45"/>
       <use x="290.576172" xlink:href="#DejaVuSans-48"/>
       <use x="354.199219" xlink:href="#DejaVuSans-53"/>
      </g>
     </g>
    </g>
    <g id="xtick_3">
     <g id="line2d_5">
      <path clip-path="url(#pcaa6c0164e)" d="M 241.034677 313.2 
L 241.034677 28.8 
" style="fill:none;stroke:#808080;stroke-dasharray:6.4,1.6,1,1.6;stroke-dashoffset:0;stroke-opacity:0.3;"/>
     </g>
     <g id="line2d_6">
      <g>
       <use style="stroke:#000000;stroke-width:0.8;" x="241.034677" xlink:href="#m0a881c1048" y="313.2"/>
      </g>
     </g>
     <g id="text_3">
      <!-- 2020-07 -->
      <g transform="translate(220.14327 327.798437)scale(0.1 -0.1)">
       <defs>
        <path d="M 8.203125 72.90625 
L 55.078125 72.90625 
L 55.078125 68.703125 
L 28.609375 0 
L 18.3125 0 
L 43.21875 64.59375 
L 8.203125 64.59375 
z
" id="DejaVuSans-55"/>
       </defs>
       <use xlink:href="#DejaVuSans-50"/>
       <use x="63.623047" xlink:href="#DejaVuSans-48"/>
       <use x="127.246094" xlink:href="#DejaVuSans-50"/>
       <use x="190.869141" xlink:href="#DejaVuSans-48"/>
       <use x="254.492188" xlink:href="#DejaVuSans-45"/>
       <use x="290.576172" xlink:href="#DejaVuSans-48"/>
       <use x="354.199219" xlink:href="#DejaVuSans-55"/>
      </g>
     </g>
    </g>
    <g id="xtick_4">
     <g id="line2d_7">
      <path clip-path="url(#pcaa6c0164e)" d="M 309.647235 313.2 
L 309.647235 28.8 
" style="fill:none;stroke:#808080;stroke-dasharray:6.4,1.6,1,1.6;stroke-dashoffset:0;stroke-opacity:0.3;"/>
     </g>
     <g id="line2d_8">
      <g>
       <use style="stroke:#000000;stroke-width:0.8;" x="309.647235" xlink:href="#m0a881c1048" y="313.2"/>
      </g>
     </g>
     <g id="text_4">
      <!-- 2020-09 -->
      <g transform="translate(288.755829 327.798437)scale(0.1 -0.1)">
       <defs>
        <path d="M 10.984375 1.515625 
L 10.984375 10.5 
Q 14.703125 8.734375 18.5 7.8125 
Q 22.3125 6.890625 25.984375 6.890625 
Q 35.75 6.890625 40.890625 13.453125 
Q 46.046875 20.015625 46.78125 33.40625 
Q 43.953125 29.203125 39.59375 26.953125 
Q 35.25 24.703125 29.984375 24.703125 
Q 19.046875 24.703125 12.671875 31.3125 
Q 6.296875 37.9375 6.296875 49.421875 
Q 6.296875 60.640625 12.9375 67.421875 
Q 19.578125 74.21875 30.609375 74.21875 
Q 43.265625 74.21875 49.921875 64.515625 
Q 56.59375 54.828125 56.59375 36.375 
Q 56.59375 19.140625 48.40625 8.859375 
Q 40.234375 -1.421875 26.421875 -1.421875 
Q 22.703125 -1.421875 18.890625 -0.6875 
Q 15.09375 0.046875 10.984375 1.515625 
z
M 30.609375 32.421875 
Q 37.25 32.421875 41.125 36.953125 
Q 45.015625 41.5 45.015625 49.421875 
Q 45.015625 57.28125 41.125 61.84375 
Q 37.25 66.40625 30.609375 66.40625 
Q 23.96875 66.40625 20.09375 61.84375 
Q 16.21875 57.28125 16.21875 49.421875 
Q 16.21875 41.5 20.09375 36.953125 
Q 23.96875 32.421875 30.609375 32.421875 
z
" id="DejaVuSans-57"/>
       </defs>
       <use xlink:href="#DejaVuSans-50"/>
       <use x="63.623047" xlink:href="#DejaVuSans-48"/>
       <use x="127.246094" xlink:href="#DejaVuSans-50"/>
       <use x="190.869141" xlink:href="#DejaVuSans-48"/>
       <use x="254.492188" xlink:href="#DejaVuSans-45"/>
       <use x="290.576172" xlink:href="#DejaVuSans-48"/>
       <use x="354.199219" xlink:href="#DejaVuSans-57"/>
      </g>
     </g>
    </g>
    <g id="xtick_5">
     <g id="line2d_9">
      <path clip-path="url(#pcaa6c0164e)" d="M 377.15314 313.2 
L 377.15314 28.8 
" style="fill:none;stroke:#808080;stroke-dasharray:6.4,1.6,1,1.6;stroke-dashoffset:0;stroke-opacity:0.3;"/>
     </g>
     <g id="line2d_10">
      <g>
       <use style="stroke:#000000;stroke-width:0.8;" x="377.15314" xlink:href="#m0a881c1048" y="313.2"/>
      </g>
     </g>
     <g id="text_5">
      <!-- 2020-11 -->
      <g transform="translate(356.261733 327.798437)scale(0.1 -0.1)">
       <defs>
        <path d="M 12.40625 8.296875 
L 28.515625 8.296875 
L 28.515625 63.921875 
L 10.984375 60.40625 
L 10.984375 69.390625 
L 28.421875 72.90625 
L 38.28125 72.90625 
L 38.28125 8.296875 
L 54.390625 8.296875 
L 54.390625 0 
L 12.40625 0 
z
" id="DejaVuSans-49"/>
       </defs>
       <use xlink:href="#DejaVuSans-50"/>
       <use x="63.623047" xlink:href="#DejaVuSans-48"/>
       <use x="127.246094" xlink:href="#DejaVuSans-50"/>
       <use x="190.869141" xlink:href="#DejaVuSans-48"/>
       <use x="254.492188" xlink:href="#DejaVuSans-45"/>
       <use x="290.576172" xlink:href="#DejaVuSans-49"/>
       <use x="354.199219" xlink:href="#DejaVuSans-49"/>
      </g>
     </g>
    </g>
    <g id="xtick_6">
     <g id="line2d_11">
      <path clip-path="url(#pcaa6c0164e)" d="M 444.659044 313.2 
L 444.659044 28.8 
" style="fill:none;stroke:#808080;stroke-dasharray:6.4,1.6,1,1.6;stroke-dashoffset:0;stroke-opacity:0.3;"/>
     </g>
     <g id="line2d_12">
      <g>
       <use style="stroke:#000000;stroke-width:0.8;" x="444.659044" xlink:href="#m0a881c1048" y="313.2"/>
      </g>
     </g>
     <g id="text_6">
      <!-- 2021-01 -->
      <g transform="translate(423.767638 327.798437)scale(0.1 -0.1)">
       <use xlink:href="#DejaVuSans-50"/>
       <use x="63.623047" xlink:href="#DejaVuSans-48"/>
       <use x="127.246094" xlink:href="#DejaVuSans-50"/>
       <use x="190.869141" xlink:href="#DejaVuSans-49"/>
       <use x="254.492188" xlink:href="#DejaVuSans-45"/>
       <use x="290.576172" xlink:href="#DejaVuSans-48"/>
       <use x="354.199219" xlink:href="#DejaVuSans-49"/>
      </g>
     </g>
    </g>
    <g id="xtick_7">
     <g id="line2d_13">
      <path clip-path="url(#pcaa6c0164e)" d="M 509.95164 313.2 
L 509.95164 28.8 
" style="fill:none;stroke:#808080;stroke-dasharray:6.4,1.6,1,1.6;stroke-dashoffset:0;stroke-opacity:0.3;"/>
     </g>
     <g id="line2d_14">
      <g>
       <use style="stroke:#000000;stroke-width:0.8;" x="509.95164" xlink:href="#m0a881c1048" y="313.2"/>
      </g>
     </g>
     <g id="text_7">
      <!-- 2021-03 -->
      <g transform="translate(489.060234 327.798437)scale(0.1 -0.1)">
       <use xlink:href="#DejaVuSans-50"/>
       <use x="63.623047" xlink:href="#DejaVuSans-48"/>
       <use x="127.246094" xlink:href="#DejaVuSans-50"/>
       <use x="190.869141" xlink:href="#DejaVuSans-49"/>
       <use x="254.492188" xlink:href="#DejaVuSans-45"/>
       <use x="290.576172" xlink:href="#DejaVuSans-48"/>
       <use x="354.199219" xlink:href="#DejaVuSans-51"/>
      </g>
     </g>
    </g>
    <g id="xtick_8">
     <g id="line2d_15">
      <path clip-path="url(#pcaa6c0164e)" d="M 577.457545 313.2 
L 577.457545 28.8 
" style="fill:none;stroke:#808080;stroke-dasharray:6.4,1.6,1,1.6;stroke-dashoffset:0;stroke-opacity:0.3;"/>
     </g>
     <g id="line2d_16">
      <g>
       <use style="stroke:#000000;stroke-width:0.8;" x="577.457545" xlink:href="#m0a881c1048" y="313.2"/>
      </g>
     </g>
     <g id="text_8">
      <!-- 2021-05 -->
      <g transform="translate(556.566138 327.798437)scale(0.1 -0.1)">
       <use xlink:href="#DejaVuSans-50"/>
       <use x="63.623047" xlink:href="#DejaVuSans-48"/>
       <use x="127.246094" xlink:href="#DejaVuSans-50"/>
       <use x="190.869141" xlink:href="#DejaVuSans-49"/>
       <use x="254.492188" xlink:href="#DejaVuSans-45"/>
       <use x="290.576172" xlink:href="#DejaVuSans-48"/>
       <use x="354.199219" xlink:href="#DejaVuSans-53"/>
      </g>
     </g>
    </g>
    <g id="xtick_9">
     <g id="line2d_17">
      <path clip-path="url(#pcaa6c0164e)" d="M 644.963449 313.2 
L 644.963449 28.8 
" style="fill:none;stroke:#808080;stroke-dasharray:6.4,1.6,1,1.6;stroke-dashoffset:0;stroke-opacity:0.3;"/>
     </g>
     <g id="line2d_18">
      <g>
       <use style="stroke:#000000;stroke-width:0.8;" x="644.963449" xlink:href="#m0a881c1048" y="313.2"/>
      </g>
     </g>
     <g id="text_9">
      <!-- 2021-07 -->
      <g transform="translate(624.072043 327.798437)scale(0.1 -0.1)">
       <use xlink:href="#DejaVuSans-50"/>
       <use x="63.623047" xlink:href="#DejaVuSans-48"/>
       <use x="127.246094" xlink:href="#DejaVuSans-50"/>
       <use x="190.869141" xlink:href="#DejaVuSans-49"/>
       <use x="254.492188" xlink:href="#DejaVuSans-45"/>
       <use x="290.576172" xlink:href="#DejaVuSans-48"/>
       <use x="354.199219" xlink:href="#DejaVuSans-55"/>
      </g>
     </g>
    </g>
    <g id="text_10">
     <!-- Datum -->
     <g transform="translate(343.086719 341.476562)scale(0.1 -0.1)">
      <defs>
       <path d="M 19.671875 64.796875 
L 19.671875 8.109375 
L 31.59375 8.109375 
Q 46.6875 8.109375 53.6875 14.9375 
Q 60.6875 21.78125 60.6875 36.53125 
Q 60.6875 51.171875 53.6875 57.984375 
Q 46.6875 64.796875 31.59375 64.796875 
z
M 9.8125 72.90625 
L 30.078125 72.90625 
Q 51.265625 72.90625 61.171875 64.09375 
Q 71.09375 55.28125 71.09375 36.53125 
Q 71.09375 17.671875 61.125 8.828125 
Q 51.171875 0 30.078125 0 
L 9.8125 0 
z
" id="DejaVuSans-68"/>
       <path d="M 34.28125 27.484375 
Q 23.390625 27.484375 19.1875 25 
Q 14.984375 22.515625 14.984375 16.5 
Q 14.984375 11.71875 18.140625 8.90625 
Q 21.296875 6.109375 26.703125 6.109375 
Q 34.1875 6.109375 38.703125 11.40625 
Q 43.21875 16.703125 43.21875 25.484375 
L 43.21875 27.484375 
z
M 52.203125 31.203125 
L 52.203125 0 
L 43.21875 0 
L 43.21875 8.296875 
Q 40.140625 3.328125 35.546875 0.953125 
Q 30.953125 -1.421875 24.3125 -1.421875 
Q 15.921875 -1.421875 10.953125 3.296875 
Q 6 8.015625 6 15.921875 
Q 6 25.140625 12.171875 29.828125 
Q 18.359375 34.515625 30.609375 34.515625 
L 43.21875 34.515625 
L 43.21875 35.40625 
Q 43.21875 41.609375 39.140625 45 
Q 35.0625 48.390625 27.6875 48.390625 
Q 23 48.390625 18.546875 47.265625 
Q 14.109375 46.140625 10.015625 43.890625 
L 10.015625 52.203125 
Q 14.9375 54.109375 19.578125 55.046875 
Q 24.21875 56 28.609375 56 
Q 40.484375 56 46.34375 49.84375 
Q 52.203125 43.703125 52.203125 31.203125 
z
" id="DejaVuSans-97"/>
       <path d="M 18.3125 70.21875 
L 18.3125 54.6875 
L 36.8125 54.6875 
L 36.8125 47.703125 
L 18.3125 47.703125 
L 18.3125 18.015625 
Q 18.3125 11.328125 20.140625 9.421875 
Q 21.96875 7.515625 27.59375 7.515625 
L 36.8125 7.515625 
L 36.8125 0 
L 27.59375 0 
Q 17.1875 0 13.234375 3.875 
Q 9.28125 7.765625 9.28125 18.015625 
L 9.28125 47.703125 
L 2.6875 47.703125 
L 2.6875 54.6875 
L 9.28125 54.6875 
L 9.28125 70.21875 
z
" id="DejaVuSans-116"/>
       <path d="M 8.5 21.578125 
L 8.5 54.6875 
L 17.484375 54.6875 
L 17.484375 21.921875 
Q 17.484375 14.15625 20.5 10.265625 
Q 23.53125 6.390625 29.59375 6.390625 
Q 36.859375 6.390625 41.078125 11.03125 
Q 45.3125 15.671875 45.3125 23.6875 
L 45.3125 54.6875 
L 54.296875 54.6875 
L 54.296875 0 
L 45.3125 0 
L 45.3125 8.40625 
Q 42.046875 3.421875 37.71875 1 
Q 33.40625 -1.421875 27.6875 -1.421875 
Q 18.265625 -1.421875 13.375 4.4375 
Q 8.5 10.296875 8.5 21.578125 
z
M 31.109375 56 
z
" id="DejaVuSans-117"/>
       <path d="M 52 44.1875 
Q 55.375 50.25 60.0625 53.125 
Q 64.75 56 71.09375 56 
Q 79.640625 56 84.28125 50.015625 
Q 88.921875 44.046875 88.921875 33.015625 
L 88.921875 0 
L 79.890625 0 
L 79.890625 32.71875 
Q 79.890625 40.578125 77.09375 44.375 
Q 74.3125 48.1875 68.609375 48.1875 
Q 61.625 48.1875 57.5625 43.546875 
Q 53.515625 38.921875 53.515625 30.90625 
L 53.515625 0 
L 44.484375 0 
L 44.484375 32.71875 
Q 44.484375 40.625 41.703125 44.40625 
Q 38.921875 48.1875 33.109375 48.1875 
Q 26.21875 48.1875 22.15625 43.53125 
Q 18.109375 38.875 18.109375 30.90625 
L 18.109375 0 
L 9.078125 0 
L 9.078125 54.6875 
L 18.109375 54.6875 
L 18.109375 46.1875 
Q 21.1875 51.21875 25.484375 53.609375 
Q 29.78125 56 35.6875 56 
Q 41.65625 56 45.828125 52.96875 
Q 50 49.953125 52 44.1875 
z
" id="DejaVuSans-109"/>
      </defs>
      <use xlink:href="#DejaVuSans-68"/>
      <use x="77.001953" xlink:href="#DejaVuSans-97"/>
      <use x="138.28125" xlink:href="#DejaVuSans-116"/>
      <use x="177.490234" xlink:href="#DejaVuSans-117"/>
      <use x="240.869141" xlink:href="#DejaVuSans-109"/>
     </g>
    </g>
   </g>
   <g id="matplotlib.axis_2">
    <g id="ytick_1">
     <g id="line2d_19">
      <path clip-path="url(#pcaa6c0164e)" d="M 64.8 313.2 
L 655.2 313.2 
" style="fill:none;stroke:#808080;stroke-dasharray:6.4,1.6,1,1.6;stroke-dashoffset:0;stroke-opacity:0.3;"/>
     </g>
     <g id="line2d_20">
      <defs>
       <path d="M 0 0 
L -3.5 0 
" id="m795fac3777" style="stroke:#000000;stroke-width:0.8;"/>
      </defs>
      <g>
       <use style="stroke:#000000;stroke-width:0.8;" x="64.8" xlink:href="#m795fac3777" y="313.2"/>
      </g>
     </g>
     <g id="text_11">
      <!-- 0 -->
      <g transform="translate(51.4375 316.999219)scale(0.1 -0.1)">
       <use xlink:href="#DejaVuSans-48"/>
      </g>
     </g>
    </g>
    <g id="ytick_2">
     <g id="line2d_21">
      <path clip-path="url(#pcaa6c0164e)" d="M 64.8 277.65 
L 655.2 277.65 
" style="fill:none;stroke:#808080;stroke-dasharray:6.4,1.6,1,1.6;stroke-dashoffset:0;stroke-opacity:0.3;"/>
     </g>
     <g id="line2d_22">
      <g>
       <use style="stroke:#000000;stroke-width:0.8;" x="64.8" xlink:href="#m795fac3777" y="277.65"/>
      </g>
     </g>
     <g id="text_12">
      <!-- 50000 -->
      <g transform="translate(25.9875 281.449219)scale(0.1 -0.1)">
       <use xlink:href="#DejaVuSans-53"/>
       <use x="63.623047" xlink:href="#DejaVuSans-48"/>
       <use x="127.246094" xlink:href="#DejaVuSans-48"/>
       <use x="190.869141" xlink:href="#DejaVuSans-48"/>
       <use x="254.492188" xlink:href="#DejaVuSans-48"/>
      </g>
     </g>
    </g>
    <g id="ytick_3">
     <g id="line2d_23">
      <path clip-path="url(#pcaa6c0164e)" d="M 64.8 242.1 
L 655.2 242.1 
" style="fill:none;stroke:#808080;stroke-dasharray:6.4,1.6,1,1.6;stroke-dashoffset:0;stroke-opacity:0.3;"/>
     </g>
     <g id="line2d_24">
      <g>
       <use style="stroke:#000000;stroke-width:0.8;" x="64.8" xlink:href="#m795fac3777" y="242.1"/>
      </g>
     </g>
     <g id="text_13">
      <!-- 100000 -->
      <g transform="translate(19.625 245.899219)scale(0.1 -0.1)">
       <use xlink:href="#DejaVuSans-49"/>
       <use x="63.623047" xlink:href="#DejaVuSans-48"/>
       <use x="127.246094" xlink:href="#DejaVuSans-48"/>
       <use x="190.869141" xlink:href="#DejaVuSans-48"/>
       <use x="254.492188" xlink:href="#DejaVuSans-48"/>
       <use x="318.115234" xlink:href="#DejaVuSans-48"/>
      </g>
     </g>
    </g>
    <g id="ytick_4">
     <g id="line2d_25">
      <path clip-path="url(#pcaa6c0164e)" d="M 64.8 206.55 
L 655.2 206.55 
" style="fill:none;stroke:#808080;stroke-dasharray:6.4,1.6,1,1.6;stroke-dashoffset:0;stroke-opacity:0.3;"/>
     </g>
     <g id="line2d_26">
      <g>
       <use style="stroke:#000000;stroke-width:0.8;" x="64.8" xlink:href="#m795fac3777" y="206.55"/>
      </g>
     </g>
     <g id="text_14">
      <!-- 150000 -->
      <g transform="translate(19.625 210.349219)scale(0.1 -0.1)">
       <use xlink:href="#DejaVuSans-49"/>
       <use x="63.623047" xlink:href="#DejaVuSans-53"/>
       <use x="127.246094" xlink:href="#DejaVuSans-48"/>
       <use x="190.869141" xlink:href="#DejaVuSans-48"/>
       <use x="254.492188" xlink:href="#DejaVuSans-48"/>
       <use x="318.115234" xlink:href="#DejaVuSans-48"/>
      </g>
     </g>
    </g>
    <g id="ytick_5">
     <g id="line2d_27">
      <path clip-path="url(#pcaa6c0164e)" d="M 64.8 171 
L 655.2 171 
" style="fill:none;stroke:#808080;stroke-dasharray:6.4,1.6,1,1.6;stroke-dashoffset:0;stroke-opacity:0.3;"/>
     </g>
     <g id="line2d_28">
      <g>
       <use style="stroke:#000000;stroke-width:0.8;" x="64.8" xlink:href="#m795fac3777" y="171"/>
      </g>
     </g>
     <g id="text_15">
      <!-- 200000 -->
      <g transform="translate(19.625 174.799219)scale(0.1 -0.1)">
       <use xlink:href="#DejaVuSans-50"/>
       <use x="63.623047" xlink:href="#DejaVuSans-48"/>
       <use x="127.246094" xlink:href="#DejaVuSans-48"/>
       <use x="190.869141" xlink:href="#DejaVuSans-48"/>
       <use x="254.492188" xlink:href="#DejaVuSans-48"/>
       <use x="318.115234" xlink:href="#DejaVuSans-48"/>
      </g>
     </g>
    </g>
    <g id="ytick_6">
     <g id="line2d_29">
      <path clip-path="url(#pcaa6c0164e)" d="M 64.8 135.45 
L 655.2 135.45 
" style="fill:none;stroke:#808080;stroke-dasharray:6.4,1.6,1,1.6;stroke-dashoffset:0;stroke-opacity:0.3;"/>
     </g>
     <g id="line2d_30">
      <g>
       <use style="stroke:#000000;stroke-width:0.8;" x="64.8" xlink:href="#m795fac3777" y="135.45"/>
      </g>
     </g>
     <g id="text_16">
      <!-- 250000 -->
      <g transform="translate(19.625 139.249219)scale(0.1 -0.1)">
       <use xlink:href="#DejaVuSans-50"/>
       <use x="63.623047" xlink:href="#DejaVuSans-53"/>
       <use x="127.246094" xlink:href="#DejaVuSans-48"/>
       <use x="190.869141" xlink:href="#DejaVuSans-48"/>
       <use x="254.492188" xlink:href="#DejaVuSans-48"/>
       <use x="318.115234" xlink:href="#DejaVuSans-48"/>
      </g>
     </g>
    </g>
    <g id="ytick_7">
     <g id="line2d_31">
      <path clip-path="url(#pcaa6c0164e)" d="M 64.8 99.9 
L 655.2 99.9 
" style="fill:none;stroke:#808080;stroke-dasharray:6.4,1.6,1,1.6;stroke-dashoffset:0;stroke-opacity:0.3;"/>
     </g>
     <g id="line2d_32">
      <g>
       <use style="stroke:#000000;stroke-width:0.8;" x="64.8" xlink:href="#m795fac3777" y="99.9"/>
      </g>
     </g>
     <g id="text_17">
      <!-- 300000 -->
      <g transform="translate(19.625 103.699219)scale(0.1 -0.1)">
       <use xlink:href="#DejaVuSans-51"/>
       <use x="63.623047" xlink:href="#DejaVuSans-48"/>
       <use x="127.246094" xlink:href="#DejaVuSans-48"/>
       <use x="190.869141" xlink:href="#DejaVuSans-48"/>
       <use x="254.492188" xlink:href="#DejaVuSans-48"/>
       <use x="318.115234" xlink:href="#DejaVuSans-48"/>
      </g>
     </g>
    </g>
    <g id="ytick_8">
     <g id="line2d_33">
      <path clip-path="url(#pcaa6c0164e)" d="M 64.8 64.35 
L 655.2 64.35 
" style="fill:none;stroke:#808080;stroke-dasharray:6.4,1.6,1,1.6;stroke-dashoffset:0;stroke-opacity:0.3;"/>
     </g>
     <g id="line2d_34">
      <g>
       <use style="stroke:#000000;stroke-width:0.8;" x="64.8" xlink:href="#m795fac3777" y="64.35"/>
      </g>
     </g>
     <g id="text_18">
      <!-- 350000 -->
      <g transform="translate(19.625 68.149219)scale(0.1 -0.1)">
       <use xlink:href="#DejaVuSans-51"/>
       <use x="63.623047" xlink:href="#DejaVuSans-53"/>
       <use x="127.246094" xlink:href="#DejaVuSans-48"/>
       <use x="190.869141" xlink:href="#DejaVuSans-48"/>
       <use x="254.492188" xlink:href="#DejaVuSans-48"/>
       <use x="318.115234" xlink:href="#DejaVuSans-48"/>
      </g>
     </g>
    </g>
    <g id="ytick_9">
     <g id="line2d_35">
      <path clip-path="url(#pcaa6c0164e)" d="M 64.8 28.8 
L 655.2 28.8 
" style="fill:none;stroke:#808080;stroke-dasharray:6.4,1.6,1,1.6;stroke-dashoffset:0;stroke-opacity:0.3;"/>
     </g>
     <g id="line2d_36">
      <g>
       <use style="stroke:#000000;stroke-width:0.8;" x="64.8" xlink:href="#m795fac3777" y="28.8"/>
      </g>
     </g>
     <g id="text_19">
      <!-- 400000 -->
      <g transform="translate(19.625 32.599219)scale(0.1 -0.1)">
       <defs>
        <path d="M 37.796875 64.3125 
L 12.890625 25.390625 
L 37.796875 25.390625 
z
M 35.203125 72.90625 
L 47.609375 72.90625 
L 47.609375 25.390625 
L 58.015625 25.390625 
L 58.015625 17.1875 
L 47.609375 17.1875 
L 47.609375 0 
L 37.796875 0 
L 37.796875 17.1875 
L 4.890625 17.1875 
L 4.890625 26.703125 
z
" id="DejaVuSans-52"/>
       </defs>
       <use xlink:href="#DejaVuSans-52"/>
       <use x="63.623047" xlink:href="#DejaVuSans-48"/>
       <use x="127.246094" xlink:href="#DejaVuSans-48"/>
       <use x="190.869141" xlink:href="#DejaVuSans-48"/>
       <use x="254.492188" xlink:href="#DejaVuSans-48"/>
       <use x="318.115234" xlink:href="#DejaVuSans-48"/>
      </g>
     </g>
    </g>
   </g>
   <g id="line2d_37">
    <path clip-path="url(#pcaa6c0164e)" d="M 91.636364 312.438519 
L 93.849672 312.156252 
L 96.06298 311.725386 
L 98.276289 311.116059 
L 99.382943 310.639689 
L 101.596251 309.219822 
L 102.702905 308.250018 
L 103.80956 306.99297 
L 104.916214 305.450811 
L 106.022868 303.602922 
L 107.129522 301.418019 
L 109.34283 295.987401 
L 111.556139 289.254231 
L 112.662793 285.071418 
L 113.769447 279.995589 
L 114.876101 275.568192 
L 115.982755 271.972665 
L 119.302718 259.676631 
L 121.516026 248.329071 
L 122.62268 242.34885 
L 125.942643 221.092083 
L 128.155951 206.259201 
L 129.262605 200.587554 
L 130.36926 196.584624 
L 131.475914 194.444514 
L 132.582568 193.698675 
L 133.689222 195.260031 
L 134.795876 197.848782 
L 135.90253 201.099474 
L 138.115839 210.867192 
L 141.435801 225.94608 
L 143.64911 234.258381 
L 146.969072 246.776247 
L 150.289035 257.199507 
L 153.608997 265.950495 
L 154.715651 268.633098 
L 159.142268 277.994835 
L 162.462231 283.794462 
L 164.675539 286.964811 
L 165.782193 288.331353 
L 166.888847 289.440513 
L 169.102156 291.391497 
L 171.315464 293.31333 
L 173.528772 294.736041 
L 175.742081 295.760592 
L 177.955389 296.165151 
L 179.062043 296.389116 
L 183.48866 297.82818 
L 185.701968 298.84491 
L 195.661856 303.613587 
L 197.875164 304.707105 
L 200.088472 305.735211 
L 201.195127 306.252108 
L 210.04836 309.321495 
L 212.261668 309.87963 
L 215.581631 310.109283 
L 218.901593 310.122792 
L 222.221556 310.161897 
L 225.541518 310.089375 
L 228.861481 309.822039 
L 233.288097 310.06449 
L 244.354639 310.815306 
L 245.461293 310.856544 
L 257.634489 309.932955 
L 260.954452 309.115305 
L 262.061106 309.013632 
L 267.594377 307.818441 
L 269.807685 307.237554 
L 272.020993 306.341694 
L 276.44761 305.784981 
L 277.554264 305.523333 
L 281.980881 304.979418 
L 285.300843 304.395687 
L 286.407498 304.209405 
L 290.834114 304.102044 
L 294.154077 304.723458 
L 298.580694 305.676198 
L 299.687348 305.648469 
L 301.900656 305.309322 
L 304.113964 304.417017 
L 305.220619 303.831864 
L 306.327273 303.067539 
L 308.540581 300.853485 
L 309.647235 299.555199 
L 311.860544 296.094051 
L 312.967198 293.942565 
L 314.073852 291.520899 
L 316.28716 287.254899 
L 317.393814 284.673258 
L 319.607123 278.741385 
L 320.713777 275.560371 
L 321.820431 271.852506 
L 324.033739 265.258692 
L 325.140394 261.526653 
L 326.247048 258.219792 
L 327.353702 255.655926 
L 328.460356 253.395657 
L 330.673664 248.031162 
L 331.780319 245.383398 
L 336.206935 237.714552 
L 338.420244 234.308151 
L 339.526898 232.244829 
L 340.633552 230.605263 
L 341.740206 228.418227 
L 342.84686 225.631818 
L 345.060169 218.597895 
L 346.166823 215.718345 
L 347.273477 213.251886 
L 349.486785 209.184966 
L 350.59344 207.807048 
L 351.700094 206.141175 
L 352.806748 204.126201 
L 353.913402 202.794498 
L 355.020056 202.412691 
L 356.12671 201.848868 
L 357.233365 200.891862 
L 358.340019 200.438244 
L 359.446673 200.74113 
L 361.659981 202.005999 
L 363.87329 203.491278 
L 364.979944 204.207966 
L 368.299906 206.882748 
L 370.513215 209.184255 
L 373.833177 213.337206 
L 374.939831 215.000946 
L 376.046485 216.023364 
L 378.259794 219.478113 
L 381.579756 225.295515 
L 382.68641 227.136294 
L 383.793065 228.153735 
L 387.113027 232.197903 
L 388.219681 233.243073 
L 389.326336 234.441108 
L 390.43299 235.176993 
L 391.539644 235.403091 
L 393.752952 236.648763 
L 394.859606 237.521871 
L 395.966261 237.910077 
L 397.072915 238.543578 
L 398.179569 238.898367 
L 399.286223 239.091759 
L 401.499531 239.901588 
L 402.606186 240.108489 
L 403.71284 240.083604 
L 405.926148 240.712839 
L 408.139456 240.84153 
L 409.246111 240.705729 
L 413.672727 237.581595 
L 416.99269 233.415135 
L 418.099344 231.440688 
L 419.205998 229.077324 
L 420.312652 226.349217 
L 421.419306 222.804882 
L 424.739269 210.776895 
L 426.952577 204.063633 
L 429.165886 198.816453 
L 430.27254 196.736778 
L 431.379194 195.804657 
L 432.485848 195.089391 
L 433.592502 195.501771 
L 434.699157 196.442424 
L 435.805811 198.340083 
L 438.019119 203.248116 
L 443.55239 219.471003 
L 444.659044 221.928219 
L 446.872352 224.715339 
L 447.979007 225.837297 
L 451.298969 227.73069 
L 452.405623 228.02931 
L 453.512277 227.874312 
L 454.618932 228.554028 
L 456.83224 230.56047 
L 460.152202 231.878664 
L 461.258857 232.079877 
L 462.365511 232.478037 
L 463.472165 233.386695 
L 465.685473 234.948762 
L 467.898782 236.995731 
L 471.218744 239.201253 
L 473.432052 240.368004 
L 477.858669 244.214514 
L 480.071978 246.159099 
L 481.178632 246.604896 
L 482.285286 246.877209 
L 483.39194 246.782646 
L 485.605248 245.672775 
L 486.711903 245.334339 
L 487.818557 244.850148 
L 488.925211 244.590633 
L 490.031865 244.774782 
L 491.138519 244.806066 
L 492.245173 244.661733 
L 493.351828 244.741365 
L 494.458482 245.021499 
L 496.67179 245.748141 
L 497.778444 245.937267 
L 498.885098 245.98917 
L 499.991753 245.802177 
L 502.205061 246.116439 
L 503.311715 246.530952 
L 504.418369 246.632625 
L 505.525023 246.296322 
L 506.631678 245.841993 
L 509.95164 243.752364 
L 512.164948 241.821288 
L 514.378257 240.748389 
L 517.698219 238.867794 
L 518.804873 237.788496 
L 519.911528 236.456793 
L 521.018182 235.324881 
L 522.124836 233.897904 
L 524.338144 230.564025 
L 525.444799 229.058838 
L 527.658107 225.766908 
L 528.764761 224.061219 
L 529.871415 222.005007 
L 532.084724 217.062846 
L 535.404686 210.983796 
L 536.51134 209.757321 
L 537.617994 208.272753 
L 538.724649 206.27271 
L 540.937957 204.469614 
L 542.044611 203.657652 
L 543.151265 202.647321 
L 544.257919 202.023774 
L 545.364574 200.999223 
L 547.577882 198.234855 
L 548.684536 197.248698 
L 549.79119 196.557606 
L 550.897844 195.326865 
L 552.004499 194.283117 
L 555.324461 190.153629 
L 556.431115 188.378973 
L 559.751078 184.304232 
L 560.857732 183.279681 
L 561.964386 182.054628 
L 563.07104 181.651491 
L 564.177694 181.766673 
L 565.284349 182.244465 
L 566.391003 182.870856 
L 569.710965 187.168851 
L 571.924274 191.694366 
L 576.35089 203.598639 
L 579.670853 211.280283 
L 580.777507 213.367779 
L 581.884161 214.922025 
L 584.09747 218.890827 
L 585.204124 220.555989 
L 586.310778 222.711741 
L 588.524086 227.764107 
L 589.63074 230.236254 
L 592.950703 239.29155 
L 599.590628 259.41996 
L 600.697282 262.091187 
L 602.91059 266.493699 
L 604.017245 268.284708 
L 606.230553 271.22967 
L 607.337207 272.493117 
L 609.550515 274.558572 
L 612.870478 277.785801 
L 615.083786 280.417923 
L 618.403749 284.191911 
L 621.723711 288.086769 
L 621.723711 288.086769 
" style="fill:none;stroke:#ff0000;stroke-linecap:square;stroke-width:1.5;"/>
   </g>
   <g id="line2d_38">
    <path clip-path="url(#pcaa6c0164e)" d="M 207.835052 306.331385 
L 218.901593 307.826407 
L 223.32821 308.110684 
L 225.541518 308.356632 
L 236.60806 308.525023 
L 238.821368 308.425659 
L 242.141331 308.141756 
L 246.567948 307.924913 
L 248.781256 307.400416 
L 254.314527 307.06951 
L 255.421181 306.705401 
L 259.847798 305.859055 
L 265.381068 303.571422 
L 273.127648 300.513726 
L 277.554264 299.132038 
L 280.874227 298.498393 
L 281.980881 298.313287 
L 289.72746 297.88529 
L 293.047423 297.882788 
L 298.580694 297.748524 
L 300.794002 297.457631 
L 303.00731 296.891 
L 304.113964 296.513781 
L 306.327273 295.482926 
L 308.540581 294.173272 
L 310.753889 292.568539 
L 312.967198 290.620035 
L 317.393814 286.307527 
L 320.713777 282.957803 
L 324.033739 279.206271 
L 327.353702 275.289055 
L 329.56701 272.498351 
L 331.780319 269.292124 
L 333.993627 265.724991 
L 336.206935 261.516381 
L 338.420244 256.567594 
L 341.740206 248.051366 
L 345.060169 238.429001 
L 348.380131 228.466998 
L 351.700094 219.382386 
L 353.913402 213.86804 
L 356.12671 208.876732 
L 358.340019 204.445432 
L 360.553327 200.443753 
L 361.659981 198.663368 
L 362.766635 197.119253 
L 363.87329 195.959397 
L 364.979944 195.048397 
L 366.086598 194.599227 
L 367.193252 194.534603 
L 368.299906 194.75634 
L 369.40656 195.360858 
L 370.513215 196.337559 
L 371.619869 197.803928 
L 372.726523 199.662746 
L 374.939831 204.379646 
L 380.473102 216.886798 
L 382.68641 221.216164 
L 383.793065 223.084428 
L 384.899719 224.659591 
L 387.113027 227.236583 
L 389.326336 229.23188 
L 391.539644 231.048696 
L 397.072915 234.78803 
L 398.179569 235.320542 
L 399.286223 235.693692 
L 400.392877 235.859477 
L 402.606186 235.654218 
L 403.71284 235.329125 
L 404.819494 234.734067 
L 405.926148 233.822665 
L 407.032802 232.538077 
L 408.139456 230.726429 
L 410.352765 226.265576 
L 412.566073 220.939018 
L 414.779381 214.984477 
L 421.419306 194.701027 
L 422.525961 192.188817 
L 423.632615 190.086631 
L 424.739269 188.273351 
L 425.845923 187.100739 
L 426.952577 186.319005 
L 428.059231 185.910254 
L 429.165886 186.024991 
L 430.27254 186.844292 
L 431.379194 187.947256 
L 432.485848 189.305939 
L 433.592502 191.165808 
L 434.699157 193.338394 
L 435.805811 196.025986 
L 438.019119 200.15426 
L 442.445736 207.684885 
L 444.659044 209.639431 
L 447.979007 213.911009 
L 450.192315 216.740928 
L 451.298969 217.907265 
L 454.618932 222.341546 
L 457.938894 225.974309 
L 459.045548 227.042181 
L 461.258857 229.52463 
L 462.365511 230.621314 
L 465.685473 233.496647 
L 467.898782 235.48377 
L 470.11209 237.695324 
L 471.218744 238.617242 
L 473.432052 241.181274 
L 476.752015 244.628403 
L 478.965323 246.420348 
L 481.178632 248.138075 
L 483.39194 249.508512 
L 484.498594 249.998914 
L 485.605248 250.353097 
L 487.818557 249.538012 
L 490.031865 248.374412 
L 492.245173 246.94501 
L 493.351828 246.051628 
L 494.458482 244.97722 
L 497.778444 241.419961 
L 499.991753 239.462546 
L 502.205061 238.146735 
L 506.631678 236.153459 
L 509.95164 234.075108 
L 511.058294 233.351996 
L 512.164948 232.471284 
L 513.271603 231.435525 
L 514.378257 230.2292 
L 516.591565 227.31493 
L 519.911528 222.219995 
L 523.23149 216.935927 
L 526.551453 211.275739 
L 528.764761 208.013505 
L 533.191378 202.747977 
L 534.298032 202.077327 
L 535.404686 201.622204 
L 536.51134 201.397028 
L 537.617994 201.39163 
L 539.831303 201.688697 
L 540.937957 201.709086 
L 544.257919 202.656986 
L 546.471228 203.471932 
L 547.577882 203.501817 
L 549.79119 202.69014 
L 553.111153 200.996042 
L 556.431115 199.128502 
L 558.644424 198.214369 
L 559.751078 197.890257 
L 560.857732 197.742187 
L 561.964386 197.731454 
L 563.07104 198.023856 
L 564.177694 198.599425 
L 566.391003 200.852775 
L 567.497657 202.188292 
L 574.137582 211.452804 
L 575.244236 213.186788 
L 577.457545 216.899596 
L 578.564199 218.27452 
L 579.670853 219.316351 
L 581.884161 221.894203 
L 584.09747 224.920788 
L 587.417432 229.986869 
L 591.844049 238.375467 
L 597.37732 249.539416 
L 599.590628 253.821549 
L 601.803936 257.641227 
L 604.017245 260.568301 
L 606.230553 263.594918 
L 609.550515 268.418376 
L 612.870478 272.374076 
L 615.083786 275.268761 
L 617.297095 276.691564 
L 621.723711 282.490372 
L 623.93702 283.876472 
L 628.363636 289.42087 
L 628.363636 289.42087 
" style="fill:none;stroke:#0000ff;stroke-linecap:square;stroke-width:1.5;"/>
   </g>
   <g id="patch_3">
    <path d="M 64.8 313.2 
L 64.8 28.8 
" style="fill:none;stroke:#000000;stroke-linecap:square;stroke-linejoin:miter;stroke-width:0.8;"/>
   </g>
   <g id="patch_4">
    <path d="M 655.2 313.2 
L 655.2 28.8 
" style="fill:none;stroke:#000000;stroke-linecap:square;stroke-linejoin:miter;stroke-width:0.8;"/>
   </g>
   <g id="patch_5">
    <path d="M 64.8 313.2 
L 655.2 313.2 
" style="fill:none;stroke:#000000;stroke-linecap:square;stroke-linejoin:miter;stroke-width:0.8;"/>
   </g>
   <g id="patch_6">
    <path d="M 64.8 28.8 
L 655.2 28.8 
" style="fill:none;stroke:#000000;stroke-linecap:square;stroke-linejoin:miter;stroke-width:0.8;"/>
   </g>
   <g id="legend_1">
    <g id="patch_7">
     <path d="M 71.8 66.15625 
L 356.085938 66.15625 
Q 358.085938 66.15625 358.085938 64.15625 
L 358.085938 35.8 
Q 358.085938 33.8 356.085938 33.8 
L 71.8 33.8 
Q 69.8 33.8 69.8 35.8 
L 69.8 64.15625 
Q 69.8 66.15625 71.8 66.15625 
z
" style="fill:#ffffff;opacity:0.8;stroke:#cccccc;stroke-linejoin:miter;"/>
    </g>
    <g id="line2d_39">
     <path d="M 73.8 41.898438 
L 93.8 41.898438 
" style="fill:none;stroke:#ff0000;stroke-linecap:square;stroke-width:1.5;"/>
    </g>
    <g id="line2d_40"/>
    <g id="text_20">
     <!-- Schatting zieken RIVM -->
     <g transform="translate(101.8 45.398438)scale(0.1 -0.1)">
      <defs>
       <path d="M 53.515625 70.515625 
L 53.515625 60.890625 
Q 47.90625 63.578125 42.921875 64.890625 
Q 37.9375 66.21875 33.296875 66.21875 
Q 25.25 66.21875 20.875 63.09375 
Q 16.5 59.96875 16.5 54.203125 
Q 16.5 49.359375 19.40625 46.890625 
Q 22.3125 44.4375 30.421875 42.921875 
L 36.375 41.703125 
Q 47.40625 39.59375 52.65625 34.296875 
Q 57.90625 29 57.90625 20.125 
Q 57.90625 9.515625 50.796875 4.046875 
Q 43.703125 -1.421875 29.984375 -1.421875 
Q 24.8125 -1.421875 18.96875 -0.25 
Q 13.140625 0.921875 6.890625 3.21875 
L 6.890625 13.375 
Q 12.890625 10.015625 18.65625 8.296875 
Q 24.421875 6.59375 29.984375 6.59375 
Q 38.421875 6.59375 43.015625 9.90625 
Q 47.609375 13.234375 47.609375 19.390625 
Q 47.609375 24.75 44.3125 27.78125 
Q 41.015625 30.8125 33.5 32.328125 
L 27.484375 33.5 
Q 16.453125 35.6875 11.515625 40.375 
Q 6.59375 45.0625 6.59375 53.421875 
Q 6.59375 63.09375 13.40625 68.65625 
Q 20.21875 74.21875 32.171875 74.21875 
Q 37.3125 74.21875 42.625 73.28125 
Q 47.953125 72.359375 53.515625 70.515625 
z
" id="DejaVuSans-83"/>
       <path d="M 48.78125 52.59375 
L 48.78125 44.1875 
Q 44.96875 46.296875 41.140625 47.34375 
Q 37.3125 48.390625 33.40625 48.390625 
Q 24.65625 48.390625 19.8125 42.84375 
Q 14.984375 37.3125 14.984375 27.296875 
Q 14.984375 17.28125 19.8125 11.734375 
Q 24.65625 6.203125 33.40625 6.203125 
Q 37.3125 6.203125 41.140625 7.25 
Q 44.96875 8.296875 48.78125 10.40625 
L 48.78125 2.09375 
Q 45.015625 0.34375 40.984375 -0.53125 
Q 36.96875 -1.421875 32.421875 -1.421875 
Q 20.0625 -1.421875 12.78125 6.34375 
Q 5.515625 14.109375 5.515625 27.296875 
Q 5.515625 40.671875 12.859375 48.328125 
Q 20.21875 56 33.015625 56 
Q 37.15625 56 41.109375 55.140625 
Q 45.0625 54.296875 48.78125 52.59375 
z
" id="DejaVuSans-99"/>
       <path d="M 54.890625 33.015625 
L 54.890625 0 
L 45.90625 0 
L 45.90625 32.71875 
Q 45.90625 40.484375 42.875 44.328125 
Q 39.84375 48.1875 33.796875 48.1875 
Q 26.515625 48.1875 22.3125 43.546875 
Q 18.109375 38.921875 18.109375 30.90625 
L 18.109375 0 
L 9.078125 0 
L 9.078125 75.984375 
L 18.109375 75.984375 
L 18.109375 46.1875 
Q 21.34375 51.125 25.703125 53.5625 
Q 30.078125 56 35.796875 56 
Q 45.21875 56 50.046875 50.171875 
Q 54.890625 44.34375 54.890625 33.015625 
z
" id="DejaVuSans-104"/>
       <path d="M 9.421875 54.6875 
L 18.40625 54.6875 
L 18.40625 0 
L 9.421875 0 
z
M 9.421875 75.984375 
L 18.40625 75.984375 
L 18.40625 64.59375 
L 9.421875 64.59375 
z
" id="DejaVuSans-105"/>
       <path d="M 54.890625 33.015625 
L 54.890625 0 
L 45.90625 0 
L 45.90625 32.71875 
Q 45.90625 40.484375 42.875 44.328125 
Q 39.84375 48.1875 33.796875 48.1875 
Q 26.515625 48.1875 22.3125 43.546875 
Q 18.109375 38.921875 18.109375 30.90625 
L 18.109375 0 
L 9.078125 0 
L 9.078125 54.6875 
L 18.109375 54.6875 
L 18.109375 46.1875 
Q 21.34375 51.125 25.703125 53.5625 
Q 30.078125 56 35.796875 56 
Q 45.21875 56 50.046875 50.171875 
Q 54.890625 44.34375 54.890625 33.015625 
z
" id="DejaVuSans-110"/>
       <path d="M 45.40625 27.984375 
Q 45.40625 37.75 41.375 43.109375 
Q 37.359375 48.484375 30.078125 48.484375 
Q 22.859375 48.484375 18.828125 43.109375 
Q 14.796875 37.75 14.796875 27.984375 
Q 14.796875 18.265625 18.828125 12.890625 
Q 22.859375 7.515625 30.078125 7.515625 
Q 37.359375 7.515625 41.375 12.890625 
Q 45.40625 18.265625 45.40625 27.984375 
z
M 54.390625 6.78125 
Q 54.390625 -7.171875 48.1875 -13.984375 
Q 42 -20.796875 29.203125 -20.796875 
Q 24.46875 -20.796875 20.265625 -20.09375 
Q 16.0625 -19.390625 12.109375 -17.921875 
L 12.109375 -9.1875 
Q 16.0625 -11.328125 19.921875 -12.34375 
Q 23.78125 -13.375 27.78125 -13.375 
Q 36.625 -13.375 41.015625 -8.765625 
Q 45.40625 -4.15625 45.40625 5.171875 
L 45.40625 9.625 
Q 42.625 4.78125 38.28125 2.390625 
Q 33.9375 0 27.875 0 
Q 17.828125 0 11.671875 7.65625 
Q 5.515625 15.328125 5.515625 27.984375 
Q 5.515625 40.671875 11.671875 48.328125 
Q 17.828125 56 27.875 56 
Q 33.9375 56 38.28125 53.609375 
Q 42.625 51.21875 45.40625 46.390625 
L 45.40625 54.6875 
L 54.390625 54.6875 
z
" id="DejaVuSans-103"/>
       <path id="DejaVuSans-32"/>
       <path d="M 5.515625 54.6875 
L 48.1875 54.6875 
L 48.1875 46.484375 
L 14.40625 7.171875 
L 48.1875 7.171875 
L 48.1875 0 
L 4.296875 0 
L 4.296875 8.203125 
L 38.09375 47.515625 
L 5.515625 47.515625 
z
" id="DejaVuSans-122"/>
       <path d="M 56.203125 29.59375 
L 56.203125 25.203125 
L 14.890625 25.203125 
Q 15.484375 15.921875 20.484375 11.0625 
Q 25.484375 6.203125 34.421875 6.203125 
Q 39.59375 6.203125 44.453125 7.46875 
Q 49.3125 8.734375 54.109375 11.28125 
L 54.109375 2.78125 
Q 49.265625 0.734375 44.1875 -0.34375 
Q 39.109375 -1.421875 33.890625 -1.421875 
Q 20.796875 -1.421875 13.15625 6.1875 
Q 5.515625 13.8125 5.515625 26.8125 
Q 5.515625 40.234375 12.765625 48.109375 
Q 20.015625 56 32.328125 56 
Q 43.359375 56 49.78125 48.890625 
Q 56.203125 41.796875 56.203125 29.59375 
z
M 47.21875 32.234375 
Q 47.125 39.59375 43.09375 43.984375 
Q 39.0625 48.390625 32.421875 48.390625 
Q 24.90625 48.390625 20.390625 44.140625 
Q 15.875 39.890625 15.1875 32.171875 
z
" id="DejaVuSans-101"/>
       <path d="M 9.078125 75.984375 
L 18.109375 75.984375 
L 18.109375 31.109375 
L 44.921875 54.6875 
L 56.390625 54.6875 
L 27.390625 29.109375 
L 57.625 0 
L 45.90625 0 
L 18.109375 26.703125 
L 18.109375 0 
L 9.078125 0 
z
" id="DejaVuSans-107"/>
       <path d="M 44.390625 34.1875 
Q 47.5625 33.109375 50.5625 29.59375 
Q 53.5625 26.078125 56.59375 19.921875 
L 66.609375 0 
L 56 0 
L 46.6875 18.703125 
Q 43.0625 26.03125 39.671875 28.421875 
Q 36.28125 30.8125 30.421875 30.8125 
L 19.671875 30.8125 
L 19.671875 0 
L 9.8125 0 
L 9.8125 72.90625 
L 32.078125 72.90625 
Q 44.578125 72.90625 50.734375 67.671875 
Q 56.890625 62.453125 56.890625 51.90625 
Q 56.890625 45.015625 53.6875 40.46875 
Q 50.484375 35.9375 44.390625 34.1875 
z
M 19.671875 64.796875 
L 19.671875 38.921875 
L 32.078125 38.921875 
Q 39.203125 38.921875 42.84375 42.21875 
Q 46.484375 45.515625 46.484375 51.90625 
Q 46.484375 58.296875 42.84375 61.546875 
Q 39.203125 64.796875 32.078125 64.796875 
z
" id="DejaVuSans-82"/>
       <path d="M 9.8125 72.90625 
L 19.671875 72.90625 
L 19.671875 0 
L 9.8125 0 
z
" id="DejaVuSans-73"/>
       <path d="M 28.609375 0 
L 0.78125 72.90625 
L 11.078125 72.90625 
L 34.1875 11.53125 
L 57.328125 72.90625 
L 67.578125 72.90625 
L 39.796875 0 
z
" id="DejaVuSans-86"/>
       <path d="M 9.8125 72.90625 
L 24.515625 72.90625 
L 43.109375 23.296875 
L 61.8125 72.90625 
L 76.515625 72.90625 
L 76.515625 0 
L 66.890625 0 
L 66.890625 64.015625 
L 48.09375 14.015625 
L 38.1875 14.015625 
L 19.390625 64.015625 
L 19.390625 0 
L 9.8125 0 
z
" id="DejaVuSans-77"/>
      </defs>
      <use xlink:href="#DejaVuSans-83"/>
      <use x="63.476562" xlink:href="#DejaVuSans-99"/>
      <use x="118.457031" xlink:href="#DejaVuSans-104"/>
      <use x="181.835938" xlink:href="#DejaVuSans-97"/>
      <use x="243.115234" xlink:href="#DejaVuSans-116"/>
      <use x="282.324219" xlink:href="#DejaVuSans-116"/>
      <use x="321.533203" xlink:href="#DejaVuSans-105"/>
      <use x="349.316406" xlink:href="#DejaVuSans-110"/>
      <use x="412.695312" xlink:href="#DejaVuSans-103"/>
      <use x="476.171875" xlink:href="#DejaVuSans-32"/>
      <use x="507.958984" xlink:href="#DejaVuSans-122"/>
      <use x="560.449219" xlink:href="#DejaVuSans-105"/>
      <use x="588.232422" xlink:href="#DejaVuSans-101"/>
      <use x="649.755859" xlink:href="#DejaVuSans-107"/>
      <use x="704.041016" xlink:href="#DejaVuSans-101"/>
      <use x="765.564453" xlink:href="#DejaVuSans-110"/>
      <use x="828.943359" xlink:href="#DejaVuSans-32"/>
      <use x="860.730469" xlink:href="#DejaVuSans-82"/>
      <use x="930.212891" xlink:href="#DejaVuSans-73"/>
      <use x="959.705078" xlink:href="#DejaVuSans-86"/>
      <use x="1028.113281" xlink:href="#DejaVuSans-77"/>
     </g>
    </g>
    <g id="line2d_41">
     <path d="M 73.8 56.576563 
L 93.8 56.576563 
" style="fill:none;stroke:#0000ff;stroke-linecap:square;stroke-width:1.5;"/>
    </g>
    <g id="line2d_42"/>
    <g id="text_21">
     <!-- Schatting zieken @rolfje obv tests en RNA in RWZI -->
     <g transform="translate(101.8 60.076563)scale(0.1 -0.1)">
      <defs>
       <path d="M 37.203125 26.21875 
Q 37.203125 19.234375 40.671875 15.25 
Q 44.140625 11.28125 50.203125 11.28125 
Q 56.203125 11.28125 59.640625 15.28125 
Q 63.09375 19.28125 63.09375 26.21875 
Q 63.09375 33.0625 59.578125 37.078125 
Q 56.0625 41.109375 50.09375 41.109375 
Q 44.1875 41.109375 40.6875 37.109375 
Q 37.203125 33.109375 37.203125 26.21875 
z
M 63.8125 11.625 
Q 60.890625 7.859375 57.109375 6.078125 
Q 53.328125 4.296875 48.296875 4.296875 
Q 39.890625 4.296875 34.640625 10.375 
Q 29.390625 16.453125 29.390625 26.21875 
Q 29.390625 35.984375 34.65625 42.078125 
Q 39.9375 48.1875 48.296875 48.1875 
Q 53.328125 48.1875 57.125 46.359375 
Q 60.9375 44.53125 63.8125 40.828125 
L 63.8125 47.21875 
L 70.796875 47.21875 
L 70.796875 11.28125 
Q 77.9375 12.359375 81.953125 17.796875 
Q 85.984375 23.25 85.984375 31.890625 
Q 85.984375 37.109375 84.4375 41.703125 
Q 82.90625 46.296875 79.78125 50.203125 
Q 74.703125 56.59375 67.40625 59.984375 
Q 60.109375 63.375 51.515625 63.375 
Q 45.515625 63.375 39.984375 61.78125 
Q 34.46875 60.203125 29.78125 57.078125 
Q 22.125 52.09375 17.796875 44.015625 
Q 13.484375 35.9375 13.484375 26.515625 
Q 13.484375 18.75 16.28125 11.953125 
Q 19.09375 5.171875 24.421875 0 
Q 29.546875 -5.078125 36.28125 -7.734375 
Q 43.015625 -10.40625 50.6875 -10.40625 
Q 56.984375 -10.40625 63.0625 -8.28125 
Q 69.140625 -6.15625 74.21875 -2.203125 
L 78.609375 -7.625 
Q 72.515625 -12.359375 65.3125 -14.875 
Q 58.109375 -17.390625 50.6875 -17.390625 
Q 41.65625 -17.390625 33.640625 -14.1875 
Q 25.640625 -10.984375 19.390625 -4.890625 
Q 13.140625 1.21875 9.859375 9.25 
Q 6.59375 17.28125 6.59375 26.515625 
Q 6.59375 35.40625 9.90625 43.453125 
Q 13.234375 51.515625 19.390625 57.625 
Q 25.6875 63.8125 33.9375 67.109375 
Q 42.1875 70.40625 51.421875 70.40625 
Q 61.765625 70.40625 70.625 66.15625 
Q 79.5 61.921875 85.5 54.109375 
Q 89.15625 49.3125 91.078125 43.703125 
Q 93.015625 38.09375 93.015625 32.078125 
Q 93.015625 19.234375 85.25 11.8125 
Q 77.484375 4.390625 63.8125 4.109375 
z
" id="DejaVuSans-64"/>
       <path d="M 41.109375 46.296875 
Q 39.59375 47.171875 37.8125 47.578125 
Q 36.03125 48 33.890625 48 
Q 26.265625 48 22.1875 43.046875 
Q 18.109375 38.09375 18.109375 28.8125 
L 18.109375 0 
L 9.078125 0 
L 9.078125 54.6875 
L 18.109375 54.6875 
L 18.109375 46.1875 
Q 20.953125 51.171875 25.484375 53.578125 
Q 30.03125 56 36.53125 56 
Q 37.453125 56 38.578125 55.875 
Q 39.703125 55.765625 41.0625 55.515625 
z
" id="DejaVuSans-114"/>
       <path d="M 30.609375 48.390625 
Q 23.390625 48.390625 19.1875 42.75 
Q 14.984375 37.109375 14.984375 27.296875 
Q 14.984375 17.484375 19.15625 11.84375 
Q 23.34375 6.203125 30.609375 6.203125 
Q 37.796875 6.203125 41.984375 11.859375 
Q 46.1875 17.53125 46.1875 27.296875 
Q 46.1875 37.015625 41.984375 42.703125 
Q 37.796875 48.390625 30.609375 48.390625 
z
M 30.609375 56 
Q 42.328125 56 49.015625 48.375 
Q 55.71875 40.765625 55.71875 27.296875 
Q 55.71875 13.875 49.015625 6.21875 
Q 42.328125 -1.421875 30.609375 -1.421875 
Q 18.84375 -1.421875 12.171875 6.21875 
Q 5.515625 13.875 5.515625 27.296875 
Q 5.515625 40.765625 12.171875 48.375 
Q 18.84375 56 30.609375 56 
z
" id="DejaVuSans-111"/>
       <path d="M 9.421875 75.984375 
L 18.40625 75.984375 
L 18.40625 0 
L 9.421875 0 
z
" id="DejaVuSans-108"/>
       <path d="M 37.109375 75.984375 
L 37.109375 68.5 
L 28.515625 68.5 
Q 23.6875 68.5 21.796875 66.546875 
Q 19.921875 64.59375 19.921875 59.515625 
L 19.921875 54.6875 
L 34.71875 54.6875 
L 34.71875 47.703125 
L 19.921875 47.703125 
L 19.921875 0 
L 10.890625 0 
L 10.890625 47.703125 
L 2.296875 47.703125 
L 2.296875 54.6875 
L 10.890625 54.6875 
L 10.890625 58.5 
Q 10.890625 67.625 15.140625 71.796875 
Q 19.390625 75.984375 28.609375 75.984375 
z
" id="DejaVuSans-102"/>
       <path d="M 9.421875 54.6875 
L 18.40625 54.6875 
L 18.40625 -0.984375 
Q 18.40625 -11.421875 14.421875 -16.109375 
Q 10.453125 -20.796875 1.609375 -20.796875 
L -1.8125 -20.796875 
L -1.8125 -13.1875 
L 0.59375 -13.1875 
Q 5.71875 -13.1875 7.5625 -10.8125 
Q 9.421875 -8.453125 9.421875 -0.984375 
z
M 9.421875 75.984375 
L 18.40625 75.984375 
L 18.40625 64.59375 
L 9.421875 64.59375 
z
" id="DejaVuSans-106"/>
       <path d="M 48.6875 27.296875 
Q 48.6875 37.203125 44.609375 42.84375 
Q 40.53125 48.484375 33.40625 48.484375 
Q 26.265625 48.484375 22.1875 42.84375 
Q 18.109375 37.203125 18.109375 27.296875 
Q 18.109375 17.390625 22.1875 11.75 
Q 26.265625 6.109375 33.40625 6.109375 
Q 40.53125 6.109375 44.609375 11.75 
Q 48.6875 17.390625 48.6875 27.296875 
z
M 18.109375 46.390625 
Q 20.953125 51.265625 25.265625 53.625 
Q 29.59375 56 35.59375 56 
Q 45.5625 56 51.78125 48.09375 
Q 58.015625 40.1875 58.015625 27.296875 
Q 58.015625 14.40625 51.78125 6.484375 
Q 45.5625 -1.421875 35.59375 -1.421875 
Q 29.59375 -1.421875 25.265625 0.953125 
Q 20.953125 3.328125 18.109375 8.203125 
L 18.109375 0 
L 9.078125 0 
L 9.078125 75.984375 
L 18.109375 75.984375 
z
" id="DejaVuSans-98"/>
       <path d="M 2.984375 54.6875 
L 12.5 54.6875 
L 29.59375 8.796875 
L 46.6875 54.6875 
L 56.203125 54.6875 
L 35.6875 0 
L 23.484375 0 
z
" id="DejaVuSans-118"/>
       <path d="M 44.28125 53.078125 
L 44.28125 44.578125 
Q 40.484375 46.53125 36.375 47.5 
Q 32.28125 48.484375 27.875 48.484375 
Q 21.1875 48.484375 17.84375 46.4375 
Q 14.5 44.390625 14.5 40.28125 
Q 14.5 37.15625 16.890625 35.375 
Q 19.28125 33.59375 26.515625 31.984375 
L 29.59375 31.296875 
Q 39.15625 29.25 43.1875 25.515625 
Q 47.21875 21.78125 47.21875 15.09375 
Q 47.21875 7.46875 41.1875 3.015625 
Q 35.15625 -1.421875 24.609375 -1.421875 
Q 20.21875 -1.421875 15.453125 -0.5625 
Q 10.6875 0.296875 5.421875 2 
L 5.421875 11.28125 
Q 10.40625 8.6875 15.234375 7.390625 
Q 20.0625 6.109375 24.8125 6.109375 
Q 31.15625 6.109375 34.5625 8.28125 
Q 37.984375 10.453125 37.984375 14.40625 
Q 37.984375 18.0625 35.515625 20.015625 
Q 33.0625 21.96875 24.703125 23.78125 
L 21.578125 24.515625 
Q 13.234375 26.265625 9.515625 29.90625 
Q 5.8125 33.546875 5.8125 39.890625 
Q 5.8125 47.609375 11.28125 51.796875 
Q 16.75 56 26.8125 56 
Q 31.78125 56 36.171875 55.265625 
Q 40.578125 54.546875 44.28125 53.078125 
z
" id="DejaVuSans-115"/>
       <path d="M 9.8125 72.90625 
L 23.09375 72.90625 
L 55.421875 11.921875 
L 55.421875 72.90625 
L 64.984375 72.90625 
L 64.984375 0 
L 51.703125 0 
L 19.390625 60.984375 
L 19.390625 0 
L 9.8125 0 
z
" id="DejaVuSans-78"/>
       <path d="M 34.1875 63.1875 
L 20.796875 26.90625 
L 47.609375 26.90625 
z
M 28.609375 72.90625 
L 39.796875 72.90625 
L 67.578125 0 
L 57.328125 0 
L 50.6875 18.703125 
L 17.828125 18.703125 
L 11.1875 0 
L 0.78125 0 
z
" id="DejaVuSans-65"/>
       <path d="M 3.328125 72.90625 
L 13.28125 72.90625 
L 28.609375 11.28125 
L 43.890625 72.90625 
L 54.984375 72.90625 
L 70.3125 11.28125 
L 85.59375 72.90625 
L 95.609375 72.90625 
L 77.296875 0 
L 64.890625 0 
L 49.515625 63.28125 
L 33.984375 0 
L 21.578125 0 
z
" id="DejaVuSans-87"/>
       <path d="M 5.609375 72.90625 
L 62.890625 72.90625 
L 62.890625 65.375 
L 16.796875 8.296875 
L 64.015625 8.296875 
L 64.015625 0 
L 4.5 0 
L 4.5 7.515625 
L 50.59375 64.59375 
L 5.609375 64.59375 
z
" id="DejaVuSans-90"/>
      </defs>
      <use xlink:href="#DejaVuSans-83"/>
      <use x="63.476562" xlink:href="#DejaVuSans-99"/>
      <use x="118.457031" xlink:href="#DejaVuSans-104"/>
      <use x="181.835938" xlink:href="#DejaVuSans-97"/>
      <use x="243.115234" xlink:href="#DejaVuSans-116"/>
      <use x="282.324219" xlink:href="#DejaVuSans-116"/>
      <use x="321.533203" xlink:href="#DejaVuSans-105"/>
      <use x="349.316406" xlink:href="#DejaVuSans-110"/>
      <use x="412.695312" xlink:href="#DejaVuSans-103"/>
      <use x="476.171875" xlink:href="#DejaVuSans-32"/>
      <use x="507.958984" xlink:href="#DejaVuSans-122"/>
      <use x="560.449219" xlink:href="#DejaVuSans-105"/>
      <use x="588.232422" xlink:href="#DejaVuSans-101"/>
      <use x="649.755859" xlink:href="#DejaVuSans-107"/>
      <use x="704.041016" xlink:href="#DejaVuSans-101"/>
      <use x="765.564453" xlink:href="#DejaVuSans-110"/>
      <use x="828.943359" xlink:href="#DejaVuSans-32"/>
      <use x="860.730469" xlink:href="#DejaVuSans-64"/>
      <use x="960.730469" xlink:href="#DejaVuSans-114"/>
      <use x="999.59375" xlink:href="#DejaVuSans-111"/>
      <use x="1060.775391" xlink:href="#DejaVuSans-108"/>
      <use x="1088.558594" xlink:href="#DejaVuSans-102"/>
      <use x="1123.763672" xlink:href="#DejaVuSans-106"/>
      <use x="1151.546875" xlink:href="#DejaVuSans-101"/>
      <use x="1213.070312" xlink:href="#DejaVuSans-32"/>
      <use x="1244.857422" xlink:href="#DejaVuSans-111"/>
      <use x="1306.039062" xlink:href="#DejaVuSans-98"/>
      <use x="1369.515625" xlink:href="#DejaVuSans-118"/>
      <use x="1428.695312" xlink:href="#DejaVuSans-32"/>
      <use x="1460.482422" xlink:href="#DejaVuSans-116"/>
      <use x="1499.691406" xlink:href="#DejaVuSans-101"/>
      <use x="1561.214844" xlink:href="#DejaVuSans-115"/>
      <use x="1613.314453" xlink:href="#DejaVuSans-116"/>
      <use x="1652.523438" xlink:href="#DejaVuSans-115"/>
      <use x="1704.623047" xlink:href="#DejaVuSans-32"/>
      <use x="1736.410156" xlink:href="#DejaVuSans-101"/>
      <use x="1797.933594" xlink:href="#DejaVuSans-110"/>
      <use x="1861.3125" xlink:href="#DejaVuSans-32"/>
      <use x="1893.099609" xlink:href="#DejaVuSans-82"/>
      <use x="1962.582031" xlink:href="#DejaVuSans-78"/>
      <use x="2037.386719" xlink:href="#DejaVuSans-65"/>
      <use x="2105.794922" xlink:href="#DejaVuSans-32"/>
      <use x="2137.582031" xlink:href="#DejaVuSans-105"/>
      <use x="2165.365234" xlink:href="#DejaVuSans-110"/>
      <use x="2228.744141" xlink:href="#DejaVuSans-32"/>
      <use x="2260.53125" xlink:href="#DejaVuSans-82"/>
      <use x="2326.013672" xlink:href="#DejaVuSans-87"/>
      <use x="2424.890625" xlink:href="#DejaVuSans-90"/>
      <use x="2493.396484" xlink:href="#DejaVuSans-73"/>
     </g>
    </g>
   </g>
  </g>
  <g id="axes_2">
   <g id="matplotlib.axis_3">
    <g id="ytick_10">
     <g id="line2d_43">
      <path clip-path="url(#pcaa6c0164e)" d="M 64.8 313.2 
L 655.2 313.2 
" style="fill:none;stroke:#808080;stroke-dasharray:6.4,1.6,1,1.6;stroke-dashoffset:0;stroke-opacity:0.3;"/>
     </g>
     <g id="line2d_44">
      <defs>
       <path d="M 0 0 
L 3.5 0 
" id="m6cc59b4b9e" style="stroke:#000000;stroke-width:0.8;"/>
      </defs>
      <g>
       <use style="stroke:#000000;stroke-width:0.8;" x="655.2" xlink:href="#m6cc59b4b9e" y="313.2"/>
      </g>
     </g>
     <g id="text_22">
      <!-- 200 -->
      <g transform="translate(662.2 316.999219)scale(0.1 -0.1)">
       <defs>
        <path d="M 10.59375 35.5 
L 73.1875 35.5 
L 73.1875 27.203125 
L 10.59375 27.203125 
z
" id="DejaVuSans-8722"/>
       </defs>
       <use xlink:href="#DejaVuSans-8722"/>
       <use x="83.789062" xlink:href="#DejaVuSans-50"/>
       <use x="147.412109" xlink:href="#DejaVuSans-48"/>
       <use x="211.035156" xlink:href="#DejaVuSans-48"/>
      </g>
     </g>
    </g>
    <g id="ytick_11">
     <g id="line2d_45">
      <path clip-path="url(#pcaa6c0164e)" d="M 64.8 277.65 
L 655.2 277.65 
" style="fill:none;stroke:#808080;stroke-dasharray:6.4,1.6,1,1.6;stroke-dashoffset:0;stroke-opacity:0.3;"/>
     </g>
     <g id="line2d_46">
      <g>
       <use style="stroke:#000000;stroke-width:0.8;" x="655.2" xlink:href="#m6cc59b4b9e" y="277.65"/>
      </g>
     </g>
     <g id="text_23">
      <!-- 150 -->
      <g transform="translate(662.2 281.449219)scale(0.1 -0.1)">
       <use xlink:href="#DejaVuSans-8722"/>
       <use x="83.789062" xlink:href="#DejaVuSans-49"/>
       <use x="147.412109" xlink:href="#DejaVuSans-53"/>
       <use x="211.035156" xlink:href="#DejaVuSans-48"/>
      </g>
     </g>
    </g>
    <g id="ytick_12">
     <g id="line2d_47">
      <path clip-path="url(#pcaa6c0164e)" d="M 64.8 242.1 
L 655.2 242.1 
" style="fill:none;stroke:#808080;stroke-dasharray:6.4,1.6,1,1.6;stroke-dashoffset:0;stroke-opacity:0.3;"/>
     </g>
     <g id="line2d_48">
      <g>
       <use style="stroke:#000000;stroke-width:0.8;" x="655.2" xlink:href="#m6cc59b4b9e" y="242.1"/>
      </g>
     </g>
     <g id="text_24">
      <!-- 100 -->
      <g transform="translate(662.2 245.899219)scale(0.1 -0.1)">
       <use xlink:href="#DejaVuSans-8722"/>
       <use x="83.789062" xlink:href="#DejaVuSans-49"/>
       <use x="147.412109" xlink:href="#DejaVuSans-48"/>
       <use x="211.035156" xlink:href="#DejaVuSans-48"/>
      </g>
     </g>
    </g>
    <g id="ytick_13">
     <g id="line2d_49">
      <path clip-path="url(#pcaa6c0164e)" d="M 64.8 206.55 
L 655.2 206.55 
" style="fill:none;stroke:#808080;stroke-dasharray:6.4,1.6,1,1.6;stroke-dashoffset:0;stroke-opacity:0.3;"/>
     </g>
     <g id="line2d_50">
      <g>
       <use style="stroke:#000000;stroke-width:0.8;" x="655.2" xlink:href="#m6cc59b4b9e" y="206.55"/>
      </g>
     </g>
     <g id="text_25">
      <!-- 50 -->
      <g transform="translate(662.2 210.349219)scale(0.1 -0.1)">
       <use xlink:href="#DejaVuSans-8722"/>
       <use x="83.789062" xlink:href="#DejaVuSans-53"/>
       <use x="147.412109" xlink:href="#DejaVuSans-48"/>
      </g>
     </g>
    </g>
    <g id="ytick_14">
     <g id="line2d_51">
      <path clip-path="url(#pcaa6c0164e)" d="M 64.8 171 
L 655.2 171 
" style="fill:none;stroke:#808080;stroke-dasharray:6.4,1.6,1,1.6;stroke-dashoffset:0;stroke-opacity:0.3;"/>
     </g>
     <g id="line2d_52">
      <g>
       <use style="stroke:#000000;stroke-width:0.8;" x="655.2" xlink:href="#m6cc59b4b9e" y="171"/>
      </g>
     </g>
     <g id="text_26">
      <!-- 0 -->
      <g transform="translate(662.2 174.799219)scale(0.1 -0.1)">
       <use xlink:href="#DejaVuSans-48"/>
      </g>
     </g>
    </g>
    <g id="ytick_15">
     <g id="line2d_53">
      <path clip-path="url(#pcaa6c0164e)" d="M 64.8 135.45 
L 655.2 135.45 
" style="fill:none;stroke:#808080;stroke-dasharray:6.4,1.6,1,1.6;stroke-dashoffset:0;stroke-opacity:0.3;"/>
     </g>
     <g id="line2d_54">
      <g>
       <use style="stroke:#000000;stroke-width:0.8;" x="655.2" xlink:href="#m6cc59b4b9e" y="135.45"/>
      </g>
     </g>
     <g id="text_27">
      <!-- 50 -->
      <g transform="translate(662.2 139.249219)scale(0.1 -0.1)">
       <use xlink:href="#DejaVuSans-53"/>
       <use x="63.623047" xlink:href="#DejaVuSans-48"/>
      </g>
     </g>
    </g>
    <g id="ytick_16">
     <g id="line2d_55">
      <path clip-path="url(#pcaa6c0164e)" d="M 64.8 99.9 
L 655.2 99.9 
" style="fill:none;stroke:#808080;stroke-dasharray:6.4,1.6,1,1.6;stroke-dashoffset:0;stroke-opacity:0.3;"/>
     </g>
     <g id="line2d_56">
      <g>
       <use style="stroke:#000000;stroke-width:0.8;" x="655.2" xlink:href="#m6cc59b4b9e" y="99.9"/>
      </g>
     </g>
     <g id="text_28">
      <!-- 100 -->
      <g transform="translate(662.2 103.699219)scale(0.1 -0.1)">
       <use xlink:href="#DejaVuSans-49"/>
       <use x="63.623047" xlink:href="#DejaVuSans-48"/>
       <use x="127.246094" xlink:href="#DejaVuSans-48"/>
      </g>
     </g>
    </g>
    <g id="ytick_17">
     <g id="line2d_57">
      <path clip-path="url(#pcaa6c0164e)" d="M 64.8 64.35 
L 655.2 64.35 
" style="fill:none;stroke:#808080;stroke-dasharray:6.4,1.6,1,1.6;stroke-dashoffset:0;stroke-opacity:0.3;"/>
     </g>
     <g id="line2d_58">
      <g>
       <use style="stroke:#000000;stroke-width:0.8;" x="655.2" xlink:href="#m6cc59b4b9e" y="64.35"/>
      </g>
     </g>
     <g id="text_29">
      <!-- 150 -->
      <g transform="translate(662.2 68.149219)scale(0.1 -0.1)">
       <use xlink:href="#DejaVuSans-49"/>
       <use x="63.623047" xlink:href="#DejaVuSans-53"/>
       <use x="127.246094" xlink:href="#DejaVuSans-48"/>
      </g>
     </g>
    </g>
    <g id="ytick_18">
     <g id="line2d_59">
      <path clip-path="url(#pcaa6c0164e)" d="M 64.8 28.8 
L 655.2 28.8 
" style="fill:none;stroke:#808080;stroke-dasharray:6.4,1.6,1,1.6;stroke-dashoffset:0;stroke-opacity:0.3;"/>
     </g>
     <g id="line2d_60">
      <g>
       <use style="stroke:#000000;stroke-width:0.8;" x="655.2" xlink:href="#m6cc59b4b9e" y="28.8"/>
      </g>
     </g>
     <g id="text_30">
      <!-- 200 -->
      <g transform="translate(662.2 32.599219)scale(0.1 -0.1)">
       <use xlink:href="#DejaVuSans-50"/>
       <use x="63.623047" xlink:href="#DejaVuSans-48"/>
       <use x="127.246094" xlink:href="#DejaVuSans-48"/>
      </g>
     </g>
    </g>
   </g>
   <g id="line2d_61">
    <path clip-path="url(#pcaa6c0164e)" d="M 207.835052 147.937861 
L 210.04836 141.982119 
L 211.155014 139.439858 
L 212.261668 137.749619 
L 213.368322 137.443416 
L 214.474977 137.411144 
L 215.581631 137.874834 
L 216.688285 139.131745 
L 217.794939 139.982234 
L 218.901593 140.61568 
L 222.221556 141.230245 
L 224.434864 143.425134 
L 225.541518 145.563567 
L 229.968135 149.981966 
L 231.074789 149.9456 
L 232.181443 149.295766 
L 236.60806 145.143004 
L 237.714714 142.890258 
L 239.928022 139.450433 
L 242.141331 135.598572 
L 247.674602 131.667807 
L 248.781256 131.322999 
L 254.314527 134.252889 
L 255.421181 132.755055 
L 257.634489 133.510144 
L 259.847798 136.459475 
L 260.954452 137.253555 
L 262.061106 136.013883 
L 263.16776 135.909543 
L 265.381068 136.394242 
L 266.487723 136.233989 
L 267.594377 136.2674 
L 268.701031 136.542429 
L 269.807685 136.941437 
L 272.020993 139.53247 
L 273.127648 139.10632 
L 274.234302 138.492544 
L 275.340956 138.126967 
L 276.44761 138.164696 
L 277.554264 138.698158 
L 278.660918 138.684609 
L 279.767573 138.501463 
L 280.874227 138.583603 
L 281.980881 139.162084 
L 284.194189 140.978442 
L 285.300843 141.182976 
L 286.407498 141.843141 
L 287.514152 141.946118 
L 288.620806 141.809217 
L 289.72746 142.105119 
L 290.834114 142.216805 
L 291.940769 141.325061 
L 296.367385 136.789791 
L 297.474039 135.471252 
L 298.580694 134.520791 
L 299.687348 134.39569 
L 301.900656 134.958283 
L 303.00731 135.99536 
L 305.220619 138.664351 
L 306.327273 140.562357 
L 308.540581 146.037056 
L 309.647235 148.953906 
L 311.860544 156.335307 
L 314.073852 165.139588 
L 316.28716 171.326771 
L 317.393814 175.320782 
L 321.820431 193.392526 
L 325.140394 204.096122 
L 326.247048 206.770693 
L 327.353702 207.820911 
L 328.460356 208.116913 
L 330.673664 209.582231 
L 331.780319 209.715388 
L 332.886973 208.542553 
L 333.993627 207.086404 
L 336.206935 203.743645 
L 338.420244 198.945951 
L 339.526898 196.845832 
L 340.633552 194.335647 
L 341.740206 192.426637 
L 342.84686 191.122145 
L 345.060169 189.857467 
L 346.166823 188.603591 
L 349.486785 184.070444 
L 350.59344 182.338068 
L 351.700094 181.034897 
L 352.806748 180.143974 
L 353.913402 178.926239 
L 355.020056 177.175208 
L 356.12671 175.789738 
L 357.233365 174.813439 
L 358.340019 173.619762 
L 361.659981 168.925021 
L 362.766635 167.516047 
L 364.979944 165.488053 
L 366.086598 164.719645 
L 367.193252 164.139484 
L 369.40656 163.384445 
L 370.513215 163.183972 
L 371.619869 163.166311 
L 374.939831 164.060357 
L 376.046485 164.9128 
L 378.259794 165.6861 
L 380.473102 166.251165 
L 382.68641 166.423965 
L 383.793065 167.000383 
L 384.899719 167.06878 
L 388.219681 166.850637 
L 389.326336 166.589087 
L 390.43299 166.708757 
L 391.539644 167.231374 
L 392.646298 167.370311 
L 394.859606 167.325071 
L 395.966261 167.614556 
L 397.072915 167.59466 
L 399.286223 167.882801 
L 400.392877 167.659226 
L 401.499531 167.206956 
L 403.71284 166.658923 
L 404.819494 165.844049 
L 407.032802 163.714081 
L 409.246111 160.768901 
L 410.352765 159.814536 
L 413.672727 156.411301 
L 415.886036 154.821699 
L 416.99269 153.871111 
L 418.099344 153.466958 
L 419.205998 153.296478 
L 420.312652 153.446481 
L 421.419306 154.137541 
L 424.739269 158.192468 
L 428.059231 162.362886 
L 430.27254 165.433526 
L 432.485848 167.681008 
L 434.699157 169.158739 
L 435.805811 169.59583 
L 436.912465 169.44022 
L 438.019119 169.054123 
L 440.232427 167.08208 
L 442.445736 165.092807 
L 444.659044 162.563074 
L 446.872352 162.404101 
L 447.979007 162.459687 
L 450.192315 163.355917 
L 451.298969 163.670527 
L 452.405623 164.466722 
L 453.512277 165.664625 
L 454.618932 166.13851 
L 456.83224 166.455759 
L 459.045548 167.346165 
L 460.152202 168.010849 
L 461.258857 168.828775 
L 462.365511 169.401367 
L 463.472165 169.393313 
L 465.685473 169.704629 
L 466.792127 169.591352 
L 467.898782 169.616757 
L 471.218744 170.443261 
L 473.432052 171.802896 
L 476.752015 172.562252 
L 480.071978 172.21373 
L 482.285286 173.19521 
L 483.39194 174.042935 
L 484.498594 175.254129 
L 485.605248 176.294945 
L 487.818557 176.235575 
L 488.925211 175.870472 
L 491.138519 174.146138 
L 492.245173 173.450245 
L 493.351828 172.387371 
L 494.458482 170.953854 
L 496.67179 167.790838 
L 497.778444 166.525491 
L 498.885098 165.552123 
L 502.205061 163.450083 
L 503.311715 162.66003 
L 504.418369 162.144014 
L 506.631678 162.059238 
L 508.844986 162.226883 
L 509.95164 162.304217 
L 511.058294 162.608963 
L 512.164948 162.765195 
L 514.378257 161.985813 
L 516.591565 160.842056 
L 517.698219 160.270675 
L 518.804873 160.012119 
L 519.911528 159.874079 
L 521.018182 159.615014 
L 522.124836 159.605015 
L 523.23149 159.766467 
L 525.444799 159.616878 
L 526.551453 159.815027 
L 527.658107 159.884954 
L 528.764761 160.152672 
L 529.871415 160.760626 
L 532.084724 162.422498 
L 533.191378 163.109792 
L 535.404686 165.034573 
L 536.51134 165.683354 
L 537.617994 166.624229 
L 538.724649 167.983758 
L 539.831303 168.693301 
L 540.937957 169.239556 
L 542.044611 169.946545 
L 543.151265 170.802855 
L 544.257919 171.407275 
L 545.364574 172.370107 
L 546.471228 173.500602 
L 547.577882 174.413739 
L 548.684536 174.796253 
L 549.79119 174.945559 
L 550.897844 175.363286 
L 552.004499 175.643601 
L 555.324461 177.040077 
L 556.431115 177.700109 
L 558.644424 178.791354 
L 563.07104 181.106912 
L 564.177694 181.443304 
L 566.391003 182.380027 
L 568.604311 182.669797 
L 569.710965 182.857389 
L 571.924274 182.144927 
L 574.137582 180.604739 
L 575.244236 179.698585 
L 576.35089 179.375688 
L 577.457545 178.922102 
L 578.564199 178.155906 
L 579.670853 177.085878 
L 580.777507 176.539225 
L 581.884161 176.429249 
L 582.990815 176.04063 
L 584.09747 175.856525 
L 585.204124 175.943734 
L 586.310778 175.688075 
L 588.524086 174.743282 
L 589.63074 174.570163 
L 592.950703 172.327624 
L 594.057357 171.269932 
L 600.697282 163.124941 
L 601.803936 162.491906 
L 602.91059 161.367852 
L 604.017245 160.57593 
L 605.123899 160.201039 
L 606.230553 160.05695 
L 607.337207 160.234313 
L 608.443861 160.894 
L 609.550515 161.251182 
L 610.65717 161.342865 
L 611.763824 161.296247 
L 612.870478 161.575262 
L 613.977132 161.274375 
L 615.083786 161.348182 
L 617.297095 158.996289 
L 619.510403 158.680994 
L 620.617057 158.538792 
L 621.723711 158.043027 
L 621.723711 158.043027 
" style="fill:none;stroke:#90ee90;stroke-linecap:square;stroke-width:1.5;"/>
   </g>
   <g id="patch_8">
    <path d="M 64.8 313.2 
L 64.8 28.8 
" style="fill:none;stroke:#000000;stroke-linecap:square;stroke-linejoin:miter;stroke-width:0.8;"/>
   </g>
   <g id="patch_9">
    <path d="M 655.2 313.2 
L 655.2 28.8 
" style="fill:none;stroke:#000000;stroke-linecap:square;stroke-linejoin:miter;stroke-width:0.8;"/>
   </g>
   <g id="patch_10">
    <path d="M 64.8 313.2 
L 655.2 313.2 
" style="fill:none;stroke:#000000;stroke-linecap:square;stroke-linejoin:miter;stroke-width:0.8;"/>
   </g>
   <g id="patch_11">
    <path d="M 64.8 28.8 
L 655.2 28.8 
" style="fill:none;stroke:#000000;stroke-linecap:square;stroke-linejoin:miter;stroke-width:0.8;"/>
   </g>
   <g id="text_31">
    <!-- Afwijking schatting @rolfje t.o.v. RIVM schatting, 2021-06-21 23:40 -->
    <g transform="translate(158.836875 22.8)scale(0.12 -0.12)">
     <defs>
      <path d="M 4.203125 54.6875 
L 13.1875 54.6875 
L 24.421875 12.015625 
L 35.59375 54.6875 
L 46.1875 54.6875 
L 57.421875 12.015625 
L 68.609375 54.6875 
L 77.59375 54.6875 
L 63.28125 0 
L 52.6875 0 
L 40.921875 44.828125 
L 29.109375 0 
L 18.5 0 
z
" id="DejaVuSans-119"/>
      <path d="M 10.6875 12.40625 
L 21 12.40625 
L 21 0 
L 10.6875 0 
z
" id="DejaVuSans-46"/>
      <path d="M 11.71875 12.40625 
L 22.015625 12.40625 
L 22.015625 4 
L 14.015625 -11.625 
L 7.71875 -11.625 
L 11.71875 4 
z
" id="DejaVuSans-44"/>
      <path d="M 33.015625 40.375 
Q 26.375 40.375 22.484375 35.828125 
Q 18.609375 31.296875 18.609375 23.390625 
Q 18.609375 15.53125 22.484375 10.953125 
Q 26.375 6.390625 33.015625 6.390625 
Q 39.65625 6.390625 43.53125 10.953125 
Q 47.40625 15.53125 47.40625 23.390625 
Q 47.40625 31.296875 43.53125 35.828125 
Q 39.65625 40.375 33.015625 40.375 
z
M 52.59375 71.296875 
L 52.59375 62.3125 
Q 48.875 64.0625 45.09375 64.984375 
Q 41.3125 65.921875 37.59375 65.921875 
Q 27.828125 65.921875 22.671875 59.328125 
Q 17.53125 52.734375 16.796875 39.40625 
Q 19.671875 43.65625 24.015625 45.921875 
Q 28.375 48.1875 33.59375 48.1875 
Q 44.578125 48.1875 50.953125 41.515625 
Q 57.328125 34.859375 57.328125 23.390625 
Q 57.328125 12.15625 50.6875 5.359375 
Q 44.046875 -1.421875 33.015625 -1.421875 
Q 20.359375 -1.421875 13.671875 8.265625 
Q 6.984375 17.96875 6.984375 36.375 
Q 6.984375 53.65625 15.1875 63.9375 
Q 23.390625 74.21875 37.203125 74.21875 
Q 40.921875 74.21875 44.703125 73.484375 
Q 48.484375 72.75 52.59375 71.296875 
z
" id="DejaVuSans-54"/>
      <path d="M 11.71875 12.40625 
L 22.015625 12.40625 
L 22.015625 0 
L 11.71875 0 
z
M 11.71875 51.703125 
L 22.015625 51.703125 
L 22.015625 39.3125 
L 11.71875 39.3125 
z
" id="DejaVuSans-58"/>
     </defs>
     <use xlink:href="#DejaVuSans-65"/>
     <use x="64.783203" xlink:href="#DejaVuSans-102"/>
     <use x="98.238281" xlink:href="#DejaVuSans-119"/>
     <use x="180.025391" xlink:href="#DejaVuSans-105"/>
     <use x="207.808594" xlink:href="#DejaVuSans-106"/>
     <use x="235.591797" xlink:href="#DejaVuSans-107"/>
     <use x="293.501953" xlink:href="#DejaVuSans-105"/>
     <use x="321.285156" xlink:href="#DejaVuSans-110"/>
     <use x="384.664062" xlink:href="#DejaVuSans-103"/>
     <use x="448.140625" xlink:href="#DejaVuSans-32"/>
     <use x="479.927734" xlink:href="#DejaVuSans-115"/>
     <use x="532.027344" xlink:href="#DejaVuSans-99"/>
     <use x="587.007812" xlink:href="#DejaVuSans-104"/>
     <use x="650.386719" xlink:href="#DejaVuSans-97"/>
     <use x="711.666016" xlink:href="#DejaVuSans-116"/>
     <use x="750.875" xlink:href="#DejaVuSans-116"/>
     <use x="790.083984" xlink:href="#DejaVuSans-105"/>
     <use x="817.867188" xlink:href="#DejaVuSans-110"/>
     <use x="881.246094" xlink:href="#DejaVuSans-103"/>
     <use x="944.722656" xlink:href="#DejaVuSans-32"/>
     <use x="976.509766" xlink:href="#DejaVuSans-64"/>
     <use x="1076.509766" xlink:href="#DejaVuSans-114"/>
     <use x="1115.373047" xlink:href="#DejaVuSans-111"/>
     <use x="1176.554688" xlink:href="#DejaVuSans-108"/>
     <use x="1204.337891" xlink:href="#DejaVuSans-102"/>
     <use x="1239.542969" xlink:href="#DejaVuSans-106"/>
     <use x="1267.326172" xlink:href="#DejaVuSans-101"/>
     <use x="1328.849609" xlink:href="#DejaVuSans-32"/>
     <use x="1360.636719" xlink:href="#DejaVuSans-116"/>
     <use x="1399.845703" xlink:href="#DejaVuSans-46"/>
     <use x="1431.632812" xlink:href="#DejaVuSans-111"/>
     <use x="1491.064453" xlink:href="#DejaVuSans-46"/>
     <use x="1522.851562" xlink:href="#DejaVuSans-118"/>
     <use x="1574.28125" xlink:href="#DejaVuSans-46"/>
     <use x="1606.068359" xlink:href="#DejaVuSans-32"/>
     <use x="1637.855469" xlink:href="#DejaVuSans-82"/>
     <use x="1707.337891" xlink:href="#DejaVuSans-73"/>
     <use x="1736.830078" xlink:href="#DejaVuSans-86"/>
     <use x="1805.238281" xlink:href="#DejaVuSans-77"/>
     <use x="1891.517578" xlink:href="#DejaVuSans-32"/>
     <use x="1923.304688" xlink:href="#DejaVuSans-115"/>
     <use x="1975.404297" xlink:href="#DejaVuSans-99"/>
     <use x="2030.384766" xlink:href="#DejaVuSans-104"/>
     <use x="2093.763672" xlink:href="#DejaVuSans-97"/>
     <use x="2155.042969" xlink:href="#DejaVuSans-116"/>
     <use x="2194.251953" xlink:href="#DejaVuSans-116"/>
     <use x="2233.460938" xlink:href="#DejaVuSans-105"/>
     <use x="2261.244141" xlink:href="#DejaVuSans-110"/>
     <use x="2324.623047" xlink:href="#DejaVuSans-103"/>
     <use x="2388.099609" xlink:href="#DejaVuSans-44"/>
     <use x="2419.886719" xlink:href="#DejaVuSans-32"/>
     <use x="2451.673828" xlink:href="#DejaVuSans-50"/>
     <use x="2515.296875" xlink:href="#DejaVuSans-48"/>
     <use x="2578.919922" xlink:href="#DejaVuSans-50"/>
     <use x="2642.542969" xlink:href="#DejaVuSans-49"/>
     <use x="2706.166016" xlink:href="#DejaVuSans-45"/>
     <use x="2742.25" xlink:href="#DejaVuSans-48"/>
     <use x="2805.873047" xlink:href="#DejaVuSans-54"/>
     <use x="2869.496094" xlink:href="#DejaVuSans-45"/>
     <use x="2905.580078" xlink:href="#DejaVuSans-50"/>
     <use x="2969.203125" xlink:href="#DejaVuSans-49"/>
     <use x="3032.826172" xlink:href="#DejaVuSans-32"/>
     <use x="3064.613281" xlink:href="#DejaVuSans-50"/>
     <use x="3128.236328" xlink:href="#DejaVuSans-51"/>
     <use x="3191.859375" xlink:href="#DejaVuSans-58"/>
     <use x="3225.550781" xlink:href="#DejaVuSans-52"/>
     <use x="3289.173828" xlink:href="#DejaVuSans-48"/>
    </g>
   </g>
   <g id="legend_2">
    <g id="patch_12">
     <path d="M 402.079688 51.478125 
L 648.2 51.478125 
Q 650.2 51.478125 650.2 49.478125 
L 650.2 35.8 
Q 650.2 33.8 648.2 33.8 
L 402.079688 33.8 
Q 400.079688 33.8 400.079688 35.8 
L 400.079688 49.478125 
Q 400.079688 51.478125 402.079688 51.478125 
z
" style="fill:#ffffff;opacity:0.8;stroke:#cccccc;stroke-linejoin:miter;"/>
    </g>
    <g id="line2d_62">
     <path d="M 404.079688 41.898438 
L 424.079688 41.898438 
" style="fill:none;stroke:#90ee90;stroke-linecap:square;stroke-width:1.5;"/>
    </g>
    <g id="line2d_63"/>
    <g id="text_32">
     <!-- Afwijking @rolfje t.o.v. RIVM schatting in % -->
     <g transform="translate(432.079688 45.398438)scale(0.1 -0.1)">
      <defs>
       <path d="M 72.703125 32.078125 
Q 68.453125 32.078125 66.03125 28.46875 
Q 63.625 24.859375 63.625 18.40625 
Q 63.625 12.0625 66.03125 8.421875 
Q 68.453125 4.78125 72.703125 4.78125 
Q 76.859375 4.78125 79.265625 8.421875 
Q 81.6875 12.0625 81.6875 18.40625 
Q 81.6875 24.8125 79.265625 28.4375 
Q 76.859375 32.078125 72.703125 32.078125 
z
M 72.703125 38.28125 
Q 80.421875 38.28125 84.953125 32.90625 
Q 89.5 27.546875 89.5 18.40625 
Q 89.5 9.28125 84.9375 3.921875 
Q 80.375 -1.421875 72.703125 -1.421875 
Q 64.890625 -1.421875 60.34375 3.921875 
Q 55.8125 9.28125 55.8125 18.40625 
Q 55.8125 27.59375 60.375 32.9375 
Q 64.9375 38.28125 72.703125 38.28125 
z
M 22.3125 68.015625 
Q 18.109375 68.015625 15.6875 64.375 
Q 13.28125 60.75 13.28125 54.390625 
Q 13.28125 47.953125 15.671875 44.328125 
Q 18.0625 40.71875 22.3125 40.71875 
Q 26.5625 40.71875 28.96875 44.328125 
Q 31.390625 47.953125 31.390625 54.390625 
Q 31.390625 60.6875 28.953125 64.34375 
Q 26.515625 68.015625 22.3125 68.015625 
z
M 66.40625 74.21875 
L 74.21875 74.21875 
L 28.609375 -1.421875 
L 20.796875 -1.421875 
z
M 22.3125 74.21875 
Q 30.03125 74.21875 34.609375 68.875 
Q 39.203125 63.53125 39.203125 54.390625 
Q 39.203125 45.171875 34.640625 39.84375 
Q 30.078125 34.515625 22.3125 34.515625 
Q 14.546875 34.515625 10.03125 39.859375 
Q 5.515625 45.21875 5.515625 54.390625 
Q 5.515625 63.484375 10.046875 68.84375 
Q 14.59375 74.21875 22.3125 74.21875 
z
" id="DejaVuSans-37"/>
      </defs>
      <use xlink:href="#DejaVuSans-65"/>
      <use x="64.783203" xlink:href="#DejaVuSans-102"/>
      <use x="98.238281" xlink:href="#DejaVuSans-119"/>
      <use x="180.025391" xlink:href="#DejaVuSans-105"/>
      <use x="207.808594" xlink:href="#DejaVuSans-106"/>
      <use x="235.591797" xlink:href="#DejaVuSans-107"/>
      <use x="293.501953" xlink:href="#DejaVuSans-105"/>
      <use x="321.285156" xlink:href="#DejaVuSans-110"/>
      <use x="384.664062" xlink:href="#DejaVuSans-103"/>
      <use x="448.140625" xlink:href="#DejaVuSans-32"/>
      <use x="479.927734" xlink:href="#DejaVuSans-64"/>
      <use x="579.927734" xlink:href="#DejaVuSans-114"/>
      <use x="618.791016" xlink:href="#DejaVuSans-111"/>
      <use x="679.972656" xlink:href="#DejaVuSans-108"/>
      <use x="707.755859" xlink:href="#DejaVuSans-102"/>
      <use x="742.960938" xlink:href="#DejaVuSans-106"/>
      <use x="770.744141" xlink:href="#DejaVuSans-101"/>
      <use x="832.267578" xlink:href="#DejaVuSans-32"/>
      <use x="864.054688" xlink:href="#DejaVuSans-116"/>
      <use x="903.263672" xlink:href="#DejaVuSans-46"/>
      <use x="935.050781" xlink:href="#DejaVuSans-111"/>
      <use x="994.482422" xlink:href="#DejaVuSans-46"/>
      <use x="1026.269531" xlink:href="#DejaVuSans-118"/>
      <use x="1077.699219" xlink:href="#DejaVuSans-46"/>
      <use x="1109.486328" xlink:href="#DejaVuSans-32"/>
      <use x="1141.273438" xlink:href="#DejaVuSans-82"/>
      <use x="1210.755859" xlink:href="#DejaVuSans-73"/>
      <use x="1240.248047" xlink:href="#DejaVuSans-86"/>
      <use x="1308.65625" xlink:href="#DejaVuSans-77"/>
      <use x="1394.935547" xlink:href="#DejaVuSans-32"/>
      <use x="1426.722656" xlink:href="#DejaVuSans-115"/>
      <use x="1478.822266" xlink:href="#DejaVuSans-99"/>
      <use x="1533.802734" xlink:href="#DejaVuSans-104"/>
      <use x="1597.181641" xlink:href="#DejaVuSans-97"/>
      <use x="1658.460938" xlink:href="#DejaVuSans-116"/>
      <use x="1697.669922" xlink:href="#DejaVuSans-116"/>
      <use x="1736.878906" xlink:href="#DejaVuSans-105"/>
      <use x="1764.662109" xlink:href="#DejaVuSans-110"/>
      <use x="1828.041016" xlink:href="#DejaVuSans-103"/>
      <use x="1891.517578" xlink:href="#DejaVuSans-32"/>
      <use x="1923.304688" xlink:href="#DejaVuSans-105"/>
      <use x="1951.087891" xlink:href="#DejaVuSans-110"/>
      <use x="2014.466797" xlink:href="#DejaVuSans-32"/>
      <use x="2046.253906" xlink:href="#DejaVuSans-37"/>
     </g>
    </g>
   </g>
  </g>
 </g>
 <defs>
  <clipPath id="pcaa6c0164e">
   <rect height="284.4" width="590.4" x="64.8" y="28.8"/>
  </clipPath>
 </defs>
</svg>
