<?xml version="1.0" encoding="utf-8" standalone="no"?>
<!DOCTYPE svg PUBLIC "-//W3C//DTD SVG 1.1//EN"
  "http://www.w3.org/Graphics/SVG/1.1/DTD/svg11.dtd">
<!-- Created with matplotlib (https://matplotlib.org/) -->
<svg height="360pt" version="1.1" viewBox="0 0 720 360" width="720pt" xmlns="http://www.w3.org/2000/svg" xmlns:xlink="http://www.w3.org/1999/xlink">
 <metadata>
  <rdf:RDF xmlns:cc="http://creativecommons.org/ns#" xmlns:dc="http://purl.org/dc/elements/1.1/" xmlns:rdf="http://www.w3.org/1999/02/22-rdf-syntax-ns#">
   <cc:Work>
    <dc:type rdf:resource="http://purl.org/dc/dcmitype/StillImage"/>
    <dc:date>2020-11-30T23:28:54.366354</dc:date>
    <dc:format>image/svg+xml</dc:format>
    <dc:creator>
     <cc:Agent>
      <dc:title>Matplotlib v3.3.0, https://matplotlib.org/</dc:title>
     </cc:Agent>
    </dc:creator>
   </cc:Work>
  </rdf:RDF>
 </metadata>
 <defs>
  <style type="text/css">*{stroke-linecap:butt;stroke-linejoin:round;}</style>
 </defs>
 <g id="figure_1">
  <g id="patch_1">
   <path d="M 0 360 
L 720 360 
L 720 0 
L 0 0 
z
" style="fill:#ffffff;"/>
  </g>
  <g id="axes_1">
   <g id="patch_2">
    <path d="M 64.8 313.2 
L 655.2 313.2 
L 655.2 28.8 
L 64.8 28.8 
z
" style="fill:#ffffff;"/>
   </g>
   <g id="PolyCollection_1">
    <path clip-path="url(#p172b8e0319)" d="M 289.578337 313.035532 
L 289.578337 313.035532 
L 291.481625 313.038218 
L 293.384913 313.041126 
L 295.288201 313.044258 
L 297.191489 313.047614 
L 299.094778 313.051192 
L 300.998066 313.054994 
L 302.901354 313.059102 
L 304.804642 313.064405 
L 306.70793 313.069494 
L 308.611219 313.075347 
L 310.514507 313.082186 
L 312.417795 313.090982 
L 314.321083 313.099364 
L 316.224371 313.107528 
L 318.12766 313.116771 
L 320.030948 313.125873 
L 321.934236 313.132052 
L 323.837524 313.139983 
L 325.740812 313.146898 
L 327.644101 313.152909 
L 329.547389 313.157999 
L 331.450677 313.163535 
L 333.353965 313.168728 
L 335.257253 313.173216 
L 337.160542 313.175778 
L 339.06383 313.178015 
L 340.967118 313.180144 
L 342.870406 313.181716 
L 344.773694 313.183803 
L 346.676983 313.185704 
L 348.580271 313.186239 
L 350.483559 313.186453 
L 352.386847 313.187071 
L 354.290135 313.187363 
L 356.193424 313.187281 
L 358.096712 313.185872 
L 360 313.183483 
L 361.903288 313.180331 
L 363.806576 313.174265 
L 365.709865 313.165865 
L 367.613153 313.152812 
L 369.516441 313.135931 
L 371.419729 313.115021 
L 373.323017 313.093653 
L 375.226306 313.060218 
L 377.129594 313.014521 
L 379.032882 312.958674 
L 380.93617 312.89272 
L 382.839458 312.829228 
L 384.742747 312.759103 
L 386.646035 312.670213 
L 388.549323 312.561687 
L 390.452611 312.447343 
L 392.355899 312.335631 
L 394.259188 312.218959 
L 396.162476 312.093459 
L 398.065764 311.967955 
L 399.969052 311.888869 
L 401.87234 311.821326 
L 403.775629 311.742178 
L 405.678917 311.656942 
L 407.582205 311.54433 
L 409.485493 311.442572 
L 411.388781 311.408411 
L 413.29207 311.436776 
L 415.195358 311.476049 
L 417.098646 311.505414 
L 419.001934 311.508244 
L 420.905222 311.52123 
L 422.808511 311.5122 
L 424.711799 311.485975 
L 426.615087 311.471482 
L 428.518375 311.515232 
L 430.421663 311.566036 
L 432.324952 311.639233 
L 434.22824 311.712098 
L 436.131528 311.743013 
L 438.034816 311.762507 
L 439.938104 311.786433 
L 441.841393 311.827494 
L 443.744681 311.889771 
L 445.647969 311.939945 
L 447.551257 312.00444 
L 449.454545 312.051018 
L 451.357834 312.10091 
L 453.261122 312.05175 
L 455.16441 311.968422 
L 457.067698 311.835502 
L 458.970986 311.631649 
L 460.874275 311.390494 
L 462.777563 311.092724 
L 464.680851 310.75926 
L 466.584139 310.365402 
L 468.487427 309.813808 
L 470.390716 309.181798 
L 472.294004 308.309695 
L 474.197292 307.326705 
L 476.10058 306.215488 
L 478.003868 305.313699 
L 479.907157 304.512582 
L 481.810445 303.758918 
L 483.713733 302.837811 
L 485.617021 301.794465 
L 487.520309 300.647559 
L 489.423598 299.437252 
L 491.326886 298.213508 
L 493.230174 297.069375 
L 495.133462 295.789041 
L 497.03675 294.740984 
L 498.940039 293.718194 
L 500.843327 292.55072 
L 502.746615 290.838684 
L 504.649903 288.822546 
L 506.553191 285.334746 
L 508.45648 282.062599 
L 510.359768 278.325241 
L 512.263056 274.298835 
L 514.166344 269.834651 
L 516.069632 265.116277 
L 517.972921 260.305216 
L 519.876209 255.50461 
L 521.779497 250.447733 
L 523.682785 245.443892 
L 525.586074 240.608439 
L 527.489362 236.032049 
L 529.39265 231.352764 
L 531.295938 229.777663 
L 533.199226 227.927645 
L 535.102515 226.861969 
L 537.005803 226.274409 
L 538.909091 224.024409 
L 540.812379 222.232022 
L 542.715667 221.059078 
L 544.618956 220.764052 
L 546.522244 220.902098 
L 548.425532 220.508804 
L 550.32882 219.276544 
L 552.232108 217.809279 
L 554.135397 216.922645 
L 556.038685 214.67372 
L 557.941973 213.718033 
L 559.845261 212.708363 
L 561.748549 211.668098 
L 563.651838 215.258342 
L 565.555126 218.462933 
L 567.458414 220.964613 
L 569.361702 222.75373 
L 571.26499 225.387738 
L 573.168279 228.831354 
L 575.071567 233.730063 
L 576.974855 239.201336 
L 578.878143 243.622231 
L 580.781431 247.320079 
L 582.68472 250.138888 
L 584.588008 253.544793 
L 586.491296 256.340146 
L 588.394584 256.417921 
L 590.297872 256.612964 
L 592.201161 257.068662 
L 594.104449 257.740376 
L 596.007737 257.572489 
L 597.911025 257.314782 
L 599.814313 256.698432 
L 601.717602 255.866936 
L 603.62089 256.391577 
L 605.524178 257.853587 
L 607.427466 259.707313 
L 609.330754 261.309361 
L 611.234043 263.843748 
L 613.137331 266.960274 
L 615.040619 270.336162 
L 616.943907 273.860356 
L 618.847195 277.799621 
L 620.750484 281.708021 
L 622.653772 285.585557 
L 624.55706 289.432229 
L 626.460348 293.248036 
L 628.363636 297.032979 
L 628.363636 297.032979 
L 628.363636 262.517771 
L 626.460348 250.994771 
L 624.55706 239.502635 
L 622.653772 228.041364 
L 620.750484 216.610957 
L 618.847195 205.211414 
L 616.943907 193.842736 
L 615.040619 183.748557 
L 613.137331 173.849121 
L 611.234043 165.011901 
L 609.330754 158.065541 
L 607.427466 154.046446 
L 605.524178 150.05532 
L 603.62089 147.205869 
L 601.717602 145.703489 
L 599.814313 147.535277 
L 597.911025 149.176844 
L 596.007737 148.353641 
L 594.104449 147.449662 
L 592.201161 144.821893 
L 590.297872 142.425666 
L 588.394584 140.748227 
L 586.491296 138.673514 
L 584.588008 128.021735 
L 582.68472 114.441146 
L 580.781431 101.868428 
L 578.878143 87.303358 
L 576.974855 71.893066 
L 575.071567 54.425605 
L 573.168279 37.66155 
L 571.26499 26.518096 
L 569.361702 16.507292 
L 567.458414 9.305024 
L 565.555126 1.226177 
L 563.651838 -7.202834 
L 561.748549 -15.761387 
L 559.845261 -9.915919 
L 557.941973 -3.422025 
L 556.038685 1.20703 
L 554.135397 8.670645 
L 552.232108 12.423759 
L 550.32882 17.371834 
L 548.425532 21.722207 
L 546.522244 23.173708 
L 544.618956 24.601288 
L 542.715667 25.66769 
L 540.812379 28.74608 
L 538.909091 33.05309 
L 537.005803 38.819553 
L 535.102515 39.107587 
L 533.199226 41.328695 
L 531.295938 47.891321 
L 529.39265 53.882633 
L 527.489362 68.339456 
L 525.586074 82.56602 
L 523.682785 98.153189 
L 521.779497 114.491316 
L 519.876209 130.642818 
L 517.972921 146.162637 
L 516.069632 161.360808 
L 514.166344 176.396163 
L 512.263056 190.816875 
L 510.359768 203.996732 
L 508.45648 215.802066 
L 506.553191 225.288603 
L 504.649903 235.119376 
L 502.746615 240.49785 
L 500.843327 245.369969 
L 498.940039 248.859031 
L 497.03675 251.784481 
L 495.133462 254.566656 
L 493.230174 257.822797 
L 491.326886 260.50347 
L 489.423598 263.471359 
L 487.520309 266.323803 
L 485.617021 269.203893 
L 483.713733 271.908445 
L 481.810445 274.38906 
L 479.907157 276.236213 
L 478.003868 278.203642 
L 476.10058 280.506204 
L 474.197292 283.814344 
L 472.294004 286.987218 
L 470.390716 290.077181 
L 468.487427 292.456361 
L 466.584139 294.731234 
L 464.680851 296.236514 
L 462.777563 297.653743 
L 460.874275 299.017448 
L 458.970986 300.272197 
L 457.067698 301.433777 
L 455.16441 302.225552 
L 453.261122 302.738753 
L 451.357834 303.014151 
L 449.454545 302.522485 
L 447.551257 302.15208 
L 445.647969 301.725283 
L 443.744681 301.377872 
L 441.841393 301.01434 
L 439.938104 300.774431 
L 438.034816 300.605429 
L 436.131528 300.468775 
L 434.22824 300.08772 
L 432.324952 299.430941 
L 430.421663 298.814054 
L 428.518375 298.359402 
L 426.615087 297.91996 
L 424.711799 297.868387 
L 422.808511 297.815976 
L 420.905222 297.667077 
L 419.001934 297.436766 
L 417.098646 297.212949 
L 415.195358 296.875717 
L 413.29207 296.418146 
L 411.388781 295.978355 
L 409.485493 296.124531 
L 407.582205 296.816448 
L 405.678917 297.539606 
L 403.775629 298.171196 
L 401.87234 298.779106 
L 399.969052 299.204442 
L 398.065764 299.678564 
L 396.162476 300.481442 
L 394.259188 301.355709 
L 392.355899 302.230947 
L 390.452611 303.133355 
L 388.549323 304.199102 
L 386.646035 305.297059 
L 384.742747 306.209817 
L 382.839458 306.865272 
L 380.93617 307.523981 
L 379.032882 308.228473 
L 377.129594 308.929062 
L 375.226306 309.614461 
L 373.323017 310.202295 
L 371.419729 310.590266 
L 369.516441 310.987971 
L 367.613153 311.369418 
L 365.709865 311.716852 
L 363.806576 311.956523 
L 361.903288 312.151971 
L 360 312.239418 
L 358.096712 312.315995 
L 356.193424 312.363724 
L 354.290135 312.379195 
L 352.386847 312.379736 
L 350.483559 312.36701 
L 348.580271 312.368397 
L 346.676983 312.361662 
L 344.773694 312.316953 
L 342.870406 312.268899 
L 340.967118 312.246247 
L 339.06383 312.202532 
L 337.160542 312.158924 
L 335.257253 312.111421 
L 333.353965 312.020266 
L 331.450677 311.902732 
L 329.547389 311.775617 
L 327.644101 311.664979 
L 325.740812 311.549476 
L 323.837524 311.427128 
L 321.934236 311.298121 
L 320.030948 311.187417 
L 318.12766 311.013295 
L 316.224371 310.823418 
L 314.321083 310.658284 
L 312.417795 310.493369 
L 310.514507 310.318222 
L 308.611219 310.164163 
L 306.70793 310.029014 
L 304.804642 309.897687 
L 302.901354 309.754308 
L 300.998066 309.604875 
L 299.094778 309.442795 
L 297.191489 309.280492 
L 295.288201 309.117966 
L 293.384913 308.955216 
L 291.481625 308.792243 
L 289.578337 308.629046 
z
" style="fill:#0000ff;fill-opacity:0.1;"/>
   </g>
   <g id="matplotlib.axis_1">
    <g id="xtick_1">
     <g id="line2d_1">
      <path clip-path="url(#p172b8e0319)" d="M 116.37911 313.2 
L 116.37911 28.8 
" style="fill:none;stroke:#808080;stroke-dasharray:6.4,1.6,1,1.6;stroke-dashoffset:0;stroke-opacity:0.3;"/>
     </g>
     <g id="line2d_2">
      <defs>
       <path d="M 0 0 
L 0 3.5 
" id="me2592b3cdc" style="stroke:#000000;stroke-width:0.8;"/>
      </defs>
      <g>
       <use style="stroke:#000000;stroke-width:0.8;" x="116.37911" xlink:href="#me2592b3cdc" y="313.2"/>
      </g>
     </g>
     <g id="text_1">
      <!-- 2020-03 -->
      <g transform="translate(95.487704 327.798437)scale(0.1 -0.1)">
       <defs>
        <path d="M 19.1875 8.296875 
L 53.609375 8.296875 
L 53.609375 0 
L 7.328125 0 
L 7.328125 8.296875 
Q 12.9375 14.109375 22.625 23.890625 
Q 32.328125 33.6875 34.8125 36.53125 
Q 39.546875 41.84375 41.421875 45.53125 
Q 43.3125 49.21875 43.3125 52.78125 
Q 43.3125 58.59375 39.234375 62.25 
Q 35.15625 65.921875 28.609375 65.921875 
Q 23.96875 65.921875 18.8125 64.3125 
Q 13.671875 62.703125 7.8125 59.421875 
L 7.8125 69.390625 
Q 13.765625 71.78125 18.9375 73 
Q 24.125 74.21875 28.421875 74.21875 
Q 39.75 74.21875 46.484375 68.546875 
Q 53.21875 62.890625 53.21875 53.421875 
Q 53.21875 48.921875 51.53125 44.890625 
Q 49.859375 40.875 45.40625 35.40625 
Q 44.1875 33.984375 37.640625 27.21875 
Q 31.109375 20.453125 19.1875 8.296875 
z
" id="DejaVuSans-50"/>
        <path d="M 31.78125 66.40625 
Q 24.171875 66.40625 20.328125 58.90625 
Q 16.5 51.421875 16.5 36.375 
Q 16.5 21.390625 20.328125 13.890625 
Q 24.171875 6.390625 31.78125 6.390625 
Q 39.453125 6.390625 43.28125 13.890625 
Q 47.125 21.390625 47.125 36.375 
Q 47.125 51.421875 43.28125 58.90625 
Q 39.453125 66.40625 31.78125 66.40625 
z
M 31.78125 74.21875 
Q 44.046875 74.21875 50.515625 64.515625 
Q 56.984375 54.828125 56.984375 36.375 
Q 56.984375 17.96875 50.515625 8.265625 
Q 44.046875 -1.421875 31.78125 -1.421875 
Q 19.53125 -1.421875 13.0625 8.265625 
Q 6.59375 17.96875 6.59375 36.375 
Q 6.59375 54.828125 13.0625 64.515625 
Q 19.53125 74.21875 31.78125 74.21875 
z
" id="DejaVuSans-48"/>
        <path d="M 4.890625 31.390625 
L 31.203125 31.390625 
L 31.203125 23.390625 
L 4.890625 23.390625 
z
" id="DejaVuSans-45"/>
        <path d="M 40.578125 39.3125 
Q 47.65625 37.796875 51.625 33 
Q 55.609375 28.21875 55.609375 21.1875 
Q 55.609375 10.40625 48.1875 4.484375 
Q 40.765625 -1.421875 27.09375 -1.421875 
Q 22.515625 -1.421875 17.65625 -0.515625 
Q 12.796875 0.390625 7.625 2.203125 
L 7.625 11.71875 
Q 11.71875 9.328125 16.59375 8.109375 
Q 21.484375 6.890625 26.8125 6.890625 
Q 36.078125 6.890625 40.9375 10.546875 
Q 45.796875 14.203125 45.796875 21.1875 
Q 45.796875 27.640625 41.28125 31.265625 
Q 36.765625 34.90625 28.71875 34.90625 
L 20.21875 34.90625 
L 20.21875 43.015625 
L 29.109375 43.015625 
Q 36.375 43.015625 40.234375 45.921875 
Q 44.09375 48.828125 44.09375 54.296875 
Q 44.09375 59.90625 40.109375 62.90625 
Q 36.140625 65.921875 28.71875 65.921875 
Q 24.65625 65.921875 20.015625 65.03125 
Q 15.375 64.15625 9.8125 62.3125 
L 9.8125 71.09375 
Q 15.4375 72.65625 20.34375 73.4375 
Q 25.25 74.21875 29.59375 74.21875 
Q 40.828125 74.21875 47.359375 69.109375 
Q 53.90625 64.015625 53.90625 55.328125 
Q 53.90625 49.265625 50.4375 45.09375 
Q 46.96875 40.921875 40.578125 39.3125 
z
" id="DejaVuSans-51"/>
       </defs>
       <use xlink:href="#DejaVuSans-50"/>
       <use x="63.623047" xlink:href="#DejaVuSans-48"/>
       <use x="127.246094" xlink:href="#DejaVuSans-50"/>
       <use x="190.869141" xlink:href="#DejaVuSans-48"/>
       <use x="254.492188" xlink:href="#DejaVuSans-45"/>
       <use x="290.576172" xlink:href="#DejaVuSans-48"/>
       <use x="354.199219" xlink:href="#DejaVuSans-51"/>
      </g>
     </g>
    </g>
    <g id="xtick_2">
     <g id="line2d_3">
      <path clip-path="url(#p172b8e0319)" d="M 175.381044 313.2 
L 175.381044 28.8 
" style="fill:none;stroke:#808080;stroke-dasharray:6.4,1.6,1,1.6;stroke-dashoffset:0;stroke-opacity:0.3;"/>
     </g>
     <g id="line2d_4">
      <g>
       <use style="stroke:#000000;stroke-width:0.8;" x="175.381044" xlink:href="#me2592b3cdc" y="313.2"/>
      </g>
     </g>
     <g id="text_2">
      <!-- 2020-04 -->
      <g transform="translate(154.489638 327.798437)scale(0.1 -0.1)">
       <defs>
        <path d="M 37.796875 64.3125 
L 12.890625 25.390625 
L 37.796875 25.390625 
z
M 35.203125 72.90625 
L 47.609375 72.90625 
L 47.609375 25.390625 
L 58.015625 25.390625 
L 58.015625 17.1875 
L 47.609375 17.1875 
L 47.609375 0 
L 37.796875 0 
L 37.796875 17.1875 
L 4.890625 17.1875 
L 4.890625 26.703125 
z
" id="DejaVuSans-52"/>
       </defs>
       <use xlink:href="#DejaVuSans-50"/>
       <use x="63.623047" xlink:href="#DejaVuSans-48"/>
       <use x="127.246094" xlink:href="#DejaVuSans-50"/>
       <use x="190.869141" xlink:href="#DejaVuSans-48"/>
       <use x="254.492188" xlink:href="#DejaVuSans-45"/>
       <use x="290.576172" xlink:href="#DejaVuSans-48"/>
       <use x="354.199219" xlink:href="#DejaVuSans-52"/>
      </g>
     </g>
    </g>
    <g id="xtick_3">
     <g id="line2d_5">
      <path clip-path="url(#p172b8e0319)" d="M 232.479691 313.2 
L 232.479691 28.8 
" style="fill:none;stroke:#808080;stroke-dasharray:6.4,1.6,1,1.6;stroke-dashoffset:0;stroke-opacity:0.3;"/>
     </g>
     <g id="line2d_6">
      <g>
       <use style="stroke:#000000;stroke-width:0.8;" x="232.479691" xlink:href="#me2592b3cdc" y="313.2"/>
      </g>
     </g>
     <g id="text_3">
      <!-- 2020-05 -->
      <g transform="translate(211.588284 327.798437)scale(0.1 -0.1)">
       <defs>
        <path d="M 10.796875 72.90625 
L 49.515625 72.90625 
L 49.515625 64.59375 
L 19.828125 64.59375 
L 19.828125 46.734375 
Q 21.96875 47.46875 24.109375 47.828125 
Q 26.265625 48.1875 28.421875 48.1875 
Q 40.625 48.1875 47.75 41.5 
Q 54.890625 34.8125 54.890625 23.390625 
Q 54.890625 11.625 47.5625 5.09375 
Q 40.234375 -1.421875 26.90625 -1.421875 
Q 22.3125 -1.421875 17.546875 -0.640625 
Q 12.796875 0.140625 7.71875 1.703125 
L 7.71875 11.625 
Q 12.109375 9.234375 16.796875 8.0625 
Q 21.484375 6.890625 26.703125 6.890625 
Q 35.15625 6.890625 40.078125 11.328125 
Q 45.015625 15.765625 45.015625 23.390625 
Q 45.015625 31 40.078125 35.4375 
Q 35.15625 39.890625 26.703125 39.890625 
Q 22.75 39.890625 18.8125 39.015625 
Q 14.890625 38.140625 10.796875 36.28125 
z
" id="DejaVuSans-53"/>
       </defs>
       <use xlink:href="#DejaVuSans-50"/>
       <use x="63.623047" xlink:href="#DejaVuSans-48"/>
       <use x="127.246094" xlink:href="#DejaVuSans-50"/>
       <use x="190.869141" xlink:href="#DejaVuSans-48"/>
       <use x="254.492188" xlink:href="#DejaVuSans-45"/>
       <use x="290.576172" xlink:href="#DejaVuSans-48"/>
       <use x="354.199219" xlink:href="#DejaVuSans-53"/>
      </g>
     </g>
    </g>
    <g id="xtick_4">
     <g id="line2d_7">
      <path clip-path="url(#p172b8e0319)" d="M 291.481625 313.2 
L 291.481625 28.8 
" style="fill:none;stroke:#808080;stroke-dasharray:6.4,1.6,1,1.6;stroke-dashoffset:0;stroke-opacity:0.3;"/>
     </g>
     <g id="line2d_8">
      <g>
       <use style="stroke:#000000;stroke-width:0.8;" x="291.481625" xlink:href="#me2592b3cdc" y="313.2"/>
      </g>
     </g>
     <g id="text_4">
      <!-- 2020-06 -->
      <g transform="translate(270.590219 327.798437)scale(0.1 -0.1)">
       <defs>
        <path d="M 33.015625 40.375 
Q 26.375 40.375 22.484375 35.828125 
Q 18.609375 31.296875 18.609375 23.390625 
Q 18.609375 15.53125 22.484375 10.953125 
Q 26.375 6.390625 33.015625 6.390625 
Q 39.65625 6.390625 43.53125 10.953125 
Q 47.40625 15.53125 47.40625 23.390625 
Q 47.40625 31.296875 43.53125 35.828125 
Q 39.65625 40.375 33.015625 40.375 
z
M 52.59375 71.296875 
L 52.59375 62.3125 
Q 48.875 64.0625 45.09375 64.984375 
Q 41.3125 65.921875 37.59375 65.921875 
Q 27.828125 65.921875 22.671875 59.328125 
Q 17.53125 52.734375 16.796875 39.40625 
Q 19.671875 43.65625 24.015625 45.921875 
Q 28.375 48.1875 33.59375 48.1875 
Q 44.578125 48.1875 50.953125 41.515625 
Q 57.328125 34.859375 57.328125 23.390625 
Q 57.328125 12.15625 50.6875 5.359375 
Q 44.046875 -1.421875 33.015625 -1.421875 
Q 20.359375 -1.421875 13.671875 8.265625 
Q 6.984375 17.96875 6.984375 36.375 
Q 6.984375 53.65625 15.1875 63.9375 
Q 23.390625 74.21875 37.203125 74.21875 
Q 40.921875 74.21875 44.703125 73.484375 
Q 48.484375 72.75 52.59375 71.296875 
z
" id="DejaVuSans-54"/>
       </defs>
       <use xlink:href="#DejaVuSans-50"/>
       <use x="63.623047" xlink:href="#DejaVuSans-48"/>
       <use x="127.246094" xlink:href="#DejaVuSans-50"/>
       <use x="190.869141" xlink:href="#DejaVuSans-48"/>
       <use x="254.492188" xlink:href="#DejaVuSans-45"/>
       <use x="290.576172" xlink:href="#DejaVuSans-48"/>
       <use x="354.199219" xlink:href="#DejaVuSans-54"/>
      </g>
     </g>
    </g>
    <g id="xtick_5">
     <g id="line2d_9">
      <path clip-path="url(#p172b8e0319)" d="M 348.580271 313.2 
L 348.580271 28.8 
" style="fill:none;stroke:#808080;stroke-dasharray:6.4,1.6,1,1.6;stroke-dashoffset:0;stroke-opacity:0.3;"/>
     </g>
     <g id="line2d_10">
      <g>
       <use style="stroke:#000000;stroke-width:0.8;" x="348.580271" xlink:href="#me2592b3cdc" y="313.2"/>
      </g>
     </g>
     <g id="text_5">
      <!-- 2020-07 -->
      <g transform="translate(327.688865 327.798437)scale(0.1 -0.1)">
       <defs>
        <path d="M 8.203125 72.90625 
L 55.078125 72.90625 
L 55.078125 68.703125 
L 28.609375 0 
L 18.3125 0 
L 43.21875 64.59375 
L 8.203125 64.59375 
z
" id="DejaVuSans-55"/>
       </defs>
       <use xlink:href="#DejaVuSans-50"/>
       <use x="63.623047" xlink:href="#DejaVuSans-48"/>
       <use x="127.246094" xlink:href="#DejaVuSans-50"/>
       <use x="190.869141" xlink:href="#DejaVuSans-48"/>
       <use x="254.492188" xlink:href="#DejaVuSans-45"/>
       <use x="290.576172" xlink:href="#DejaVuSans-48"/>
       <use x="354.199219" xlink:href="#DejaVuSans-55"/>
      </g>
     </g>
    </g>
    <g id="xtick_6">
     <g id="line2d_11">
      <path clip-path="url(#p172b8e0319)" d="M 407.582205 313.2 
L 407.582205 28.8 
" style="fill:none;stroke:#808080;stroke-dasharray:6.4,1.6,1,1.6;stroke-dashoffset:0;stroke-opacity:0.3;"/>
     </g>
     <g id="line2d_12">
      <g>
       <use style="stroke:#000000;stroke-width:0.8;" x="407.582205" xlink:href="#me2592b3cdc" y="313.2"/>
      </g>
     </g>
     <g id="text_6">
      <!-- 2020-08 -->
      <g transform="translate(386.690799 327.798437)scale(0.1 -0.1)">
       <defs>
        <path d="M 31.78125 34.625 
Q 24.75 34.625 20.71875 30.859375 
Q 16.703125 27.09375 16.703125 20.515625 
Q 16.703125 13.921875 20.71875 10.15625 
Q 24.75 6.390625 31.78125 6.390625 
Q 38.8125 6.390625 42.859375 10.171875 
Q 46.921875 13.96875 46.921875 20.515625 
Q 46.921875 27.09375 42.890625 30.859375 
Q 38.875 34.625 31.78125 34.625 
z
M 21.921875 38.8125 
Q 15.578125 40.375 12.03125 44.71875 
Q 8.5 49.078125 8.5 55.328125 
Q 8.5 64.0625 14.71875 69.140625 
Q 20.953125 74.21875 31.78125 74.21875 
Q 42.671875 74.21875 48.875 69.140625 
Q 55.078125 64.0625 55.078125 55.328125 
Q 55.078125 49.078125 51.53125 44.71875 
Q 48 40.375 41.703125 38.8125 
Q 48.828125 37.15625 52.796875 32.3125 
Q 56.78125 27.484375 56.78125 20.515625 
Q 56.78125 9.90625 50.3125 4.234375 
Q 43.84375 -1.421875 31.78125 -1.421875 
Q 19.734375 -1.421875 13.25 4.234375 
Q 6.78125 9.90625 6.78125 20.515625 
Q 6.78125 27.484375 10.78125 32.3125 
Q 14.796875 37.15625 21.921875 38.8125 
z
M 18.3125 54.390625 
Q 18.3125 48.734375 21.84375 45.5625 
Q 25.390625 42.390625 31.78125 42.390625 
Q 38.140625 42.390625 41.71875 45.5625 
Q 45.3125 48.734375 45.3125 54.390625 
Q 45.3125 60.0625 41.71875 63.234375 
Q 38.140625 66.40625 31.78125 66.40625 
Q 25.390625 66.40625 21.84375 63.234375 
Q 18.3125 60.0625 18.3125 54.390625 
z
" id="DejaVuSans-56"/>
       </defs>
       <use xlink:href="#DejaVuSans-50"/>
       <use x="63.623047" xlink:href="#DejaVuSans-48"/>
       <use x="127.246094" xlink:href="#DejaVuSans-50"/>
       <use x="190.869141" xlink:href="#DejaVuSans-48"/>
       <use x="254.492188" xlink:href="#DejaVuSans-45"/>
       <use x="290.576172" xlink:href="#DejaVuSans-48"/>
       <use x="354.199219" xlink:href="#DejaVuSans-56"/>
      </g>
     </g>
    </g>
    <g id="xtick_7">
     <g id="line2d_13">
      <path clip-path="url(#p172b8e0319)" d="M 466.584139 313.2 
L 466.584139 28.8 
" style="fill:none;stroke:#808080;stroke-dasharray:6.4,1.6,1,1.6;stroke-dashoffset:0;stroke-opacity:0.3;"/>
     </g>
     <g id="line2d_14">
      <g>
       <use style="stroke:#000000;stroke-width:0.8;" x="466.584139" xlink:href="#me2592b3cdc" y="313.2"/>
      </g>
     </g>
     <g id="text_7">
      <!-- 2020-09 -->
      <g transform="translate(445.692733 327.798437)scale(0.1 -0.1)">
       <defs>
        <path d="M 10.984375 1.515625 
L 10.984375 10.5 
Q 14.703125 8.734375 18.5 7.8125 
Q 22.3125 6.890625 25.984375 6.890625 
Q 35.75 6.890625 40.890625 13.453125 
Q 46.046875 20.015625 46.78125 33.40625 
Q 43.953125 29.203125 39.59375 26.953125 
Q 35.25 24.703125 29.984375 24.703125 
Q 19.046875 24.703125 12.671875 31.3125 
Q 6.296875 37.9375 6.296875 49.421875 
Q 6.296875 60.640625 12.9375 67.421875 
Q 19.578125 74.21875 30.609375 74.21875 
Q 43.265625 74.21875 49.921875 64.515625 
Q 56.59375 54.828125 56.59375 36.375 
Q 56.59375 19.140625 48.40625 8.859375 
Q 40.234375 -1.421875 26.421875 -1.421875 
Q 22.703125 -1.421875 18.890625 -0.6875 
Q 15.09375 0.046875 10.984375 1.515625 
z
M 30.609375 32.421875 
Q 37.25 32.421875 41.125 36.953125 
Q 45.015625 41.5 45.015625 49.421875 
Q 45.015625 57.28125 41.125 61.84375 
Q 37.25 66.40625 30.609375 66.40625 
Q 23.96875 66.40625 20.09375 61.84375 
Q 16.21875 57.28125 16.21875 49.421875 
Q 16.21875 41.5 20.09375 36.953125 
Q 23.96875 32.421875 30.609375 32.421875 
z
" id="DejaVuSans-57"/>
       </defs>
       <use xlink:href="#DejaVuSans-50"/>
       <use x="63.623047" xlink:href="#DejaVuSans-48"/>
       <use x="127.246094" xlink:href="#DejaVuSans-50"/>
       <use x="190.869141" xlink:href="#DejaVuSans-48"/>
       <use x="254.492188" xlink:href="#DejaVuSans-45"/>
       <use x="290.576172" xlink:href="#DejaVuSans-48"/>
       <use x="354.199219" xlink:href="#DejaVuSans-57"/>
      </g>
     </g>
    </g>
    <g id="xtick_8">
     <g id="line2d_15">
      <path clip-path="url(#p172b8e0319)" d="M 523.682785 313.2 
L 523.682785 28.8 
" style="fill:none;stroke:#808080;stroke-dasharray:6.4,1.6,1,1.6;stroke-dashoffset:0;stroke-opacity:0.3;"/>
     </g>
     <g id="line2d_16">
      <g>
       <use style="stroke:#000000;stroke-width:0.8;" x="523.682785" xlink:href="#me2592b3cdc" y="313.2"/>
      </g>
     </g>
     <g id="text_8">
      <!-- 2020-10 -->
      <g transform="translate(502.791379 327.798437)scale(0.1 -0.1)">
       <defs>
        <path d="M 12.40625 8.296875 
L 28.515625 8.296875 
L 28.515625 63.921875 
L 10.984375 60.40625 
L 10.984375 69.390625 
L 28.421875 72.90625 
L 38.28125 72.90625 
L 38.28125 8.296875 
L 54.390625 8.296875 
L 54.390625 0 
L 12.40625 0 
z
" id="DejaVuSans-49"/>
       </defs>
       <use xlink:href="#DejaVuSans-50"/>
       <use x="63.623047" xlink:href="#DejaVuSans-48"/>
       <use x="127.246094" xlink:href="#DejaVuSans-50"/>
       <use x="190.869141" xlink:href="#DejaVuSans-48"/>
       <use x="254.492188" xlink:href="#DejaVuSans-45"/>
       <use x="290.576172" xlink:href="#DejaVuSans-49"/>
       <use x="354.199219" xlink:href="#DejaVuSans-48"/>
      </g>
     </g>
    </g>
    <g id="xtick_9">
     <g id="line2d_17">
      <path clip-path="url(#p172b8e0319)" d="M 582.68472 313.2 
L 582.68472 28.8 
" style="fill:none;stroke:#808080;stroke-dasharray:6.4,1.6,1,1.6;stroke-dashoffset:0;stroke-opacity:0.3;"/>
     </g>
     <g id="line2d_18">
      <g>
       <use style="stroke:#000000;stroke-width:0.8;" x="582.68472" xlink:href="#me2592b3cdc" y="313.2"/>
      </g>
     </g>
     <g id="text_9">
      <!-- 2020-11 -->
      <g transform="translate(561.793313 327.798437)scale(0.1 -0.1)">
       <use xlink:href="#DejaVuSans-50"/>
       <use x="63.623047" xlink:href="#DejaVuSans-48"/>
       <use x="127.246094" xlink:href="#DejaVuSans-50"/>
       <use x="190.869141" xlink:href="#DejaVuSans-48"/>
       <use x="254.492188" xlink:href="#DejaVuSans-45"/>
       <use x="290.576172" xlink:href="#DejaVuSans-49"/>
       <use x="354.199219" xlink:href="#DejaVuSans-49"/>
      </g>
     </g>
    </g>
    <g id="xtick_10">
     <g id="line2d_19">
      <path clip-path="url(#p172b8e0319)" d="M 639.783366 313.2 
L 639.783366 28.8 
" style="fill:none;stroke:#808080;stroke-dasharray:6.4,1.6,1,1.6;stroke-dashoffset:0;stroke-opacity:0.3;"/>
     </g>
     <g id="line2d_20">
      <g>
       <use style="stroke:#000000;stroke-width:0.8;" x="639.783366" xlink:href="#me2592b3cdc" y="313.2"/>
      </g>
     </g>
     <g id="text_10">
      <!-- 2020-12 -->
      <g transform="translate(618.891959 327.798437)scale(0.1 -0.1)">
       <use xlink:href="#DejaVuSans-50"/>
       <use x="63.623047" xlink:href="#DejaVuSans-48"/>
       <use x="127.246094" xlink:href="#DejaVuSans-50"/>
       <use x="190.869141" xlink:href="#DejaVuSans-48"/>
       <use x="254.492188" xlink:href="#DejaVuSans-45"/>
       <use x="290.576172" xlink:href="#DejaVuSans-49"/>
       <use x="354.199219" xlink:href="#DejaVuSans-50"/>
      </g>
     </g>
    </g>
    <g id="text_11">
     <!-- Datum -->
     <g transform="translate(343.086719 341.476562)scale(0.1 -0.1)">
      <defs>
       <path d="M 19.671875 64.796875 
L 19.671875 8.109375 
L 31.59375 8.109375 
Q 46.6875 8.109375 53.6875 14.9375 
Q 60.6875 21.78125 60.6875 36.53125 
Q 60.6875 51.171875 53.6875 57.984375 
Q 46.6875 64.796875 31.59375 64.796875 
z
M 9.8125 72.90625 
L 30.078125 72.90625 
Q 51.265625 72.90625 61.171875 64.09375 
Q 71.09375 55.28125 71.09375 36.53125 
Q 71.09375 17.671875 61.125 8.828125 
Q 51.171875 0 30.078125 0 
L 9.8125 0 
z
" id="DejaVuSans-68"/>
       <path d="M 34.28125 27.484375 
Q 23.390625 27.484375 19.1875 25 
Q 14.984375 22.515625 14.984375 16.5 
Q 14.984375 11.71875 18.140625 8.90625 
Q 21.296875 6.109375 26.703125 6.109375 
Q 34.1875 6.109375 38.703125 11.40625 
Q 43.21875 16.703125 43.21875 25.484375 
L 43.21875 27.484375 
z
M 52.203125 31.203125 
L 52.203125 0 
L 43.21875 0 
L 43.21875 8.296875 
Q 40.140625 3.328125 35.546875 0.953125 
Q 30.953125 -1.421875 24.3125 -1.421875 
Q 15.921875 -1.421875 10.953125 3.296875 
Q 6 8.015625 6 15.921875 
Q 6 25.140625 12.171875 29.828125 
Q 18.359375 34.515625 30.609375 34.515625 
L 43.21875 34.515625 
L 43.21875 35.40625 
Q 43.21875 41.609375 39.140625 45 
Q 35.0625 48.390625 27.6875 48.390625 
Q 23 48.390625 18.546875 47.265625 
Q 14.109375 46.140625 10.015625 43.890625 
L 10.015625 52.203125 
Q 14.9375 54.109375 19.578125 55.046875 
Q 24.21875 56 28.609375 56 
Q 40.484375 56 46.34375 49.84375 
Q 52.203125 43.703125 52.203125 31.203125 
z
" id="DejaVuSans-97"/>
       <path d="M 18.3125 70.21875 
L 18.3125 54.6875 
L 36.8125 54.6875 
L 36.8125 47.703125 
L 18.3125 47.703125 
L 18.3125 18.015625 
Q 18.3125 11.328125 20.140625 9.421875 
Q 21.96875 7.515625 27.59375 7.515625 
L 36.8125 7.515625 
L 36.8125 0 
L 27.59375 0 
Q 17.1875 0 13.234375 3.875 
Q 9.28125 7.765625 9.28125 18.015625 
L 9.28125 47.703125 
L 2.6875 47.703125 
L 2.6875 54.6875 
L 9.28125 54.6875 
L 9.28125 70.21875 
z
" id="DejaVuSans-116"/>
       <path d="M 8.5 21.578125 
L 8.5 54.6875 
L 17.484375 54.6875 
L 17.484375 21.921875 
Q 17.484375 14.15625 20.5 10.265625 
Q 23.53125 6.390625 29.59375 6.390625 
Q 36.859375 6.390625 41.078125 11.03125 
Q 45.3125 15.671875 45.3125 23.6875 
L 45.3125 54.6875 
L 54.296875 54.6875 
L 54.296875 0 
L 45.3125 0 
L 45.3125 8.40625 
Q 42.046875 3.421875 37.71875 1 
Q 33.40625 -1.421875 27.6875 -1.421875 
Q 18.265625 -1.421875 13.375 4.4375 
Q 8.5 10.296875 8.5 21.578125 
z
M 31.109375 56 
z
" id="DejaVuSans-117"/>
       <path d="M 52 44.1875 
Q 55.375 50.25 60.0625 53.125 
Q 64.75 56 71.09375 56 
Q 79.640625 56 84.28125 50.015625 
Q 88.921875 44.046875 88.921875 33.015625 
L 88.921875 0 
L 79.890625 0 
L 79.890625 32.71875 
Q 79.890625 40.578125 77.09375 44.375 
Q 74.3125 48.1875 68.609375 48.1875 
Q 61.625 48.1875 57.5625 43.546875 
Q 53.515625 38.921875 53.515625 30.90625 
L 53.515625 0 
L 44.484375 0 
L 44.484375 32.71875 
Q 44.484375 40.625 41.703125 44.40625 
Q 38.921875 48.1875 33.109375 48.1875 
Q 26.21875 48.1875 22.15625 43.53125 
Q 18.109375 38.875 18.109375 30.90625 
L 18.109375 0 
L 9.078125 0 
L 9.078125 54.6875 
L 18.109375 54.6875 
L 18.109375 46.1875 
Q 21.1875 51.21875 25.484375 53.609375 
Q 29.78125 56 35.6875 56 
Q 41.65625 56 45.828125 52.96875 
Q 50 49.953125 52 44.1875 
z
" id="DejaVuSans-109"/>
      </defs>
      <use xlink:href="#DejaVuSans-68"/>
      <use x="77.001953" xlink:href="#DejaVuSans-97"/>
      <use x="138.28125" xlink:href="#DejaVuSans-116"/>
      <use x="177.490234" xlink:href="#DejaVuSans-117"/>
      <use x="240.869141" xlink:href="#DejaVuSans-109"/>
     </g>
    </g>
   </g>
   <g id="matplotlib.axis_2">
    <g id="ytick_1">
     <g id="line2d_21">
      <path clip-path="url(#p172b8e0319)" d="M 64.8 313.2 
L 655.2 313.2 
" style="fill:none;stroke:#808080;stroke-dasharray:6.4,1.6,1,1.6;stroke-dashoffset:0;stroke-opacity:0.3;"/>
     </g>
     <g id="line2d_22">
      <defs>
       <path d="M 0 0 
L -3.5 0 
" id="meaf4f1a197" style="stroke:#000000;stroke-width:0.8;"/>
      </defs>
      <g>
       <use style="stroke:#000000;stroke-width:0.8;" x="64.8" xlink:href="#meaf4f1a197" y="313.2"/>
      </g>
     </g>
     <g id="text_12">
      <!-- 0 -->
      <g transform="translate(51.4375 316.999219)scale(0.1 -0.1)">
       <use xlink:href="#DejaVuSans-48"/>
      </g>
     </g>
    </g>
    <g id="ytick_2">
     <g id="line2d_23">
      <path clip-path="url(#p172b8e0319)" d="M 64.8 277.65 
L 655.2 277.65 
" style="fill:none;stroke:#808080;stroke-dasharray:6.4,1.6,1,1.6;stroke-dashoffset:0;stroke-opacity:0.3;"/>
     </g>
     <g id="line2d_24">
      <g>
       <use style="stroke:#000000;stroke-width:0.8;" x="64.8" xlink:href="#meaf4f1a197" y="277.65"/>
      </g>
     </g>
     <g id="text_13">
      <!-- 50000 -->
      <g transform="translate(25.9875 281.449219)scale(0.1 -0.1)">
       <use xlink:href="#DejaVuSans-53"/>
       <use x="63.623047" xlink:href="#DejaVuSans-48"/>
       <use x="127.246094" xlink:href="#DejaVuSans-48"/>
       <use x="190.869141" xlink:href="#DejaVuSans-48"/>
       <use x="254.492188" xlink:href="#DejaVuSans-48"/>
      </g>
     </g>
    </g>
    <g id="ytick_3">
     <g id="line2d_25">
      <path clip-path="url(#p172b8e0319)" d="M 64.8 242.1 
L 655.2 242.1 
" style="fill:none;stroke:#808080;stroke-dasharray:6.4,1.6,1,1.6;stroke-dashoffset:0;stroke-opacity:0.3;"/>
     </g>
     <g id="line2d_26">
      <g>
       <use style="stroke:#000000;stroke-width:0.8;" x="64.8" xlink:href="#meaf4f1a197" y="242.1"/>
      </g>
     </g>
     <g id="text_14">
      <!-- 100000 -->
      <g transform="translate(19.625 245.899219)scale(0.1 -0.1)">
       <use xlink:href="#DejaVuSans-49"/>
       <use x="63.623047" xlink:href="#DejaVuSans-48"/>
       <use x="127.246094" xlink:href="#DejaVuSans-48"/>
       <use x="190.869141" xlink:href="#DejaVuSans-48"/>
       <use x="254.492188" xlink:href="#DejaVuSans-48"/>
       <use x="318.115234" xlink:href="#DejaVuSans-48"/>
      </g>
     </g>
    </g>
    <g id="ytick_4">
     <g id="line2d_27">
      <path clip-path="url(#p172b8e0319)" d="M 64.8 206.55 
L 655.2 206.55 
" style="fill:none;stroke:#808080;stroke-dasharray:6.4,1.6,1,1.6;stroke-dashoffset:0;stroke-opacity:0.3;"/>
     </g>
     <g id="line2d_28">
      <g>
       <use style="stroke:#000000;stroke-width:0.8;" x="64.8" xlink:href="#meaf4f1a197" y="206.55"/>
      </g>
     </g>
     <g id="text_15">
      <!-- 150000 -->
      <g transform="translate(19.625 210.349219)scale(0.1 -0.1)">
       <use xlink:href="#DejaVuSans-49"/>
       <use x="63.623047" xlink:href="#DejaVuSans-53"/>
       <use x="127.246094" xlink:href="#DejaVuSans-48"/>
       <use x="190.869141" xlink:href="#DejaVuSans-48"/>
       <use x="254.492188" xlink:href="#DejaVuSans-48"/>
       <use x="318.115234" xlink:href="#DejaVuSans-48"/>
      </g>
     </g>
    </g>
    <g id="ytick_5">
     <g id="line2d_29">
      <path clip-path="url(#p172b8e0319)" d="M 64.8 171 
L 655.2 171 
" style="fill:none;stroke:#808080;stroke-dasharray:6.4,1.6,1,1.6;stroke-dashoffset:0;stroke-opacity:0.3;"/>
     </g>
     <g id="line2d_30">
      <g>
       <use style="stroke:#000000;stroke-width:0.8;" x="64.8" xlink:href="#meaf4f1a197" y="171"/>
      </g>
     </g>
     <g id="text_16">
      <!-- 200000 -->
      <g transform="translate(19.625 174.799219)scale(0.1 -0.1)">
       <use xlink:href="#DejaVuSans-50"/>
       <use x="63.623047" xlink:href="#DejaVuSans-48"/>
       <use x="127.246094" xlink:href="#DejaVuSans-48"/>
       <use x="190.869141" xlink:href="#DejaVuSans-48"/>
       <use x="254.492188" xlink:href="#DejaVuSans-48"/>
       <use x="318.115234" xlink:href="#DejaVuSans-48"/>
      </g>
     </g>
    </g>
    <g id="ytick_6">
     <g id="line2d_31">
      <path clip-path="url(#p172b8e0319)" d="M 64.8 135.45 
L 655.2 135.45 
" style="fill:none;stroke:#808080;stroke-dasharray:6.4,1.6,1,1.6;stroke-dashoffset:0;stroke-opacity:0.3;"/>
     </g>
     <g id="line2d_32">
      <g>
       <use style="stroke:#000000;stroke-width:0.8;" x="64.8" xlink:href="#meaf4f1a197" y="135.45"/>
      </g>
     </g>
     <g id="text_17">
      <!-- 250000 -->
      <g transform="translate(19.625 139.249219)scale(0.1 -0.1)">
       <use xlink:href="#DejaVuSans-50"/>
       <use x="63.623047" xlink:href="#DejaVuSans-53"/>
       <use x="127.246094" xlink:href="#DejaVuSans-48"/>
       <use x="190.869141" xlink:href="#DejaVuSans-48"/>
       <use x="254.492188" xlink:href="#DejaVuSans-48"/>
       <use x="318.115234" xlink:href="#DejaVuSans-48"/>
      </g>
     </g>
    </g>
    <g id="ytick_7">
     <g id="line2d_33">
      <path clip-path="url(#p172b8e0319)" d="M 64.8 99.9 
L 655.2 99.9 
" style="fill:none;stroke:#808080;stroke-dasharray:6.4,1.6,1,1.6;stroke-dashoffset:0;stroke-opacity:0.3;"/>
     </g>
     <g id="line2d_34">
      <g>
       <use style="stroke:#000000;stroke-width:0.8;" x="64.8" xlink:href="#meaf4f1a197" y="99.9"/>
      </g>
     </g>
     <g id="text_18">
      <!-- 300000 -->
      <g transform="translate(19.625 103.699219)scale(0.1 -0.1)">
       <use xlink:href="#DejaVuSans-51"/>
       <use x="63.623047" xlink:href="#DejaVuSans-48"/>
       <use x="127.246094" xlink:href="#DejaVuSans-48"/>
       <use x="190.869141" xlink:href="#DejaVuSans-48"/>
       <use x="254.492188" xlink:href="#DejaVuSans-48"/>
       <use x="318.115234" xlink:href="#DejaVuSans-48"/>
      </g>
     </g>
    </g>
    <g id="ytick_8">
     <g id="line2d_35">
      <path clip-path="url(#p172b8e0319)" d="M 64.8 64.35 
L 655.2 64.35 
" style="fill:none;stroke:#808080;stroke-dasharray:6.4,1.6,1,1.6;stroke-dashoffset:0;stroke-opacity:0.3;"/>
     </g>
     <g id="line2d_36">
      <g>
       <use style="stroke:#000000;stroke-width:0.8;" x="64.8" xlink:href="#meaf4f1a197" y="64.35"/>
      </g>
     </g>
     <g id="text_19">
      <!-- 350000 -->
      <g transform="translate(19.625 68.149219)scale(0.1 -0.1)">
       <use xlink:href="#DejaVuSans-51"/>
       <use x="63.623047" xlink:href="#DejaVuSans-53"/>
       <use x="127.246094" xlink:href="#DejaVuSans-48"/>
       <use x="190.869141" xlink:href="#DejaVuSans-48"/>
       <use x="254.492188" xlink:href="#DejaVuSans-48"/>
       <use x="318.115234" xlink:href="#DejaVuSans-48"/>
      </g>
     </g>
    </g>
    <g id="ytick_9">
     <g id="line2d_37">
      <path clip-path="url(#p172b8e0319)" d="M 64.8 28.8 
L 655.2 28.8 
" style="fill:none;stroke:#808080;stroke-dasharray:6.4,1.6,1,1.6;stroke-dashoffset:0;stroke-opacity:0.3;"/>
     </g>
     <g id="line2d_38">
      <g>
       <use style="stroke:#000000;stroke-width:0.8;" x="64.8" xlink:href="#meaf4f1a197" y="28.8"/>
      </g>
     </g>
     <g id="text_20">
      <!-- 400000 -->
      <g transform="translate(19.625 32.599219)scale(0.1 -0.1)">
       <use xlink:href="#DejaVuSans-52"/>
       <use x="63.623047" xlink:href="#DejaVuSans-48"/>
       <use x="127.246094" xlink:href="#DejaVuSans-48"/>
       <use x="190.869141" xlink:href="#DejaVuSans-48"/>
       <use x="254.492188" xlink:href="#DejaVuSans-48"/>
       <use x="318.115234" xlink:href="#DejaVuSans-48"/>
      </g>
     </g>
    </g>
   </g>
   <g id="line2d_39">
    <path clip-path="url(#p172b8e0319)" d="M 91.636364 312.53877 
L 95.44294 312.091551 
L 99.249516 311.40117 
L 103.056093 310.379463 
L 104.959381 309.706857 
L 106.862669 308.906271 
L 110.669246 306.89343 
L 112.572534 305.607231 
L 114.475822 304.070049 
L 116.37911 302.265531 
L 118.282398 300.113334 
L 120.185687 297.571509 
L 122.088975 294.555447 
L 123.992263 291.193128 
L 125.895551 287.284761 
L 127.798839 282.625578 
L 129.702128 277.369155 
L 131.605416 271.465011 
L 133.508704 266.731884 
L 135.411992 261.530208 
L 139.218569 252.21753 
L 143.025145 238.525092 
L 152.541586 205.908678 
L 154.444874 200.2932 
L 156.348162 196.258986 
L 158.251451 193.788972 
L 160.154739 193.170402 
L 162.058027 193.58136 
L 163.961315 196.037865 
L 165.864603 199.235232 
L 167.767892 202.769613 
L 175.381044 222.576651 
L 177.284333 227.769795 
L 179.187621 232.228476 
L 182.994197 240.171768 
L 186.800774 248.217444 
L 192.510638 258.397542 
L 196.317215 264.036483 
L 200.123791 269.425863 
L 202.027079 271.681866 
L 205.833656 276.555771 
L 209.640232 280.52244 
L 213.446809 284.173425 
L 217.253385 287.315334 
L 219.156673 288.704628 
L 221.059961 289.810233 
L 224.866538 291.719268 
L 228.673114 293.582088 
L 232.479691 295.003377 
L 236.286267 295.995933 
L 238.189555 296.106138 
L 241.996132 296.605971 
L 245.802708 297.339723 
L 247.705996 297.551601 
L 264.83559 302.119065 
L 266.738878 302.71275 
L 268.642166 303.161391 
L 274.352031 304.85286 
L 278.158607 305.871723 
L 280.061896 306.390042 
L 293.384913 308.980215 
L 297.191489 309.65922 
L 299.094778 309.891006 
L 304.804642 310.144833 
L 310.514507 310.205268 
L 314.321083 310.298409 
L 318.12766 310.250061 
L 321.934236 310.169007 
L 329.547389 309.982014 
L 337.160542 310.269969 
L 348.580271 310.785444 
L 356.193424 311.221998 
L 363.806576 311.080509 
L 375.226306 310.494645 
L 380.93617 309.607317 
L 394.259188 307.140147 
L 399.969052 305.729523 
L 401.87234 305.163567 
L 409.485493 304.278372 
L 411.388781 304.175988 
L 415.195358 304.32672 
L 419.001934 304.410618 
L 424.711799 304.397109 
L 426.615087 304.290459 
L 430.421663 304.318899 
L 434.22824 304.222914 
L 439.938104 304.725591 
L 447.551257 305.498448 
L 449.454545 305.434458 
L 453.261122 304.988661 
L 457.067698 303.991839 
L 458.970986 303.334164 
L 460.874275 302.49234 
L 464.680851 300.111201 
L 466.584139 298.770255 
L 470.390716 295.142022 
L 472.294004 292.920147 
L 474.197292 290.363391 
L 478.003868 286.055442 
L 479.907157 283.470246 
L 483.713733 277.595253 
L 485.617021 274.489605 
L 487.520309 270.729837 
L 489.423598 267.533892 
L 491.326886 264.101184 
L 493.230174 260.383365 
L 495.133462 256.961322 
L 497.03675 254.282274 
L 498.940039 251.923887 
L 502.746615 246.431412 
L 504.649903 243.918738 
L 508.45648 240.508782 
L 516.069632 234.397026 
L 517.972921 232.666452 
L 519.876209 231.442821 
L 521.779497 229.533786 
L 523.682785 227.095767 
L 525.586074 223.94106 
L 527.489362 220.561677 
L 529.39265 217.592541 
L 531.295938 214.897851 
L 533.199226 212.7357 
L 535.102515 210.400065 
L 537.005803 208.753389 
L 538.909091 206.840799 
L 540.812379 204.540003 
L 542.715667 202.950207 
L 546.522244 201.727998 
L 548.425532 200.766015 
L 550.32882 200.532096 
L 552.232108 200.98287 
L 554.135397 201.74364 
L 561.748549 205.627833 
L 565.555126 208.052343 
L 567.458414 208.997262 
L 571.26499 211.520601 
L 575.071567 214.558704 
L 578.878143 218.569455 
L 580.781431 219.81726 
L 582.68472 221.54499 
L 584.588008 223.440516 
L 586.491296 225.525168 
L 592.201161 230.972139 
L 594.104449 231.713712 
L 599.814313 234.581886 
L 601.717602 235.030527 
L 603.62089 235.848177 
L 603.62089 235.848177 
" style="fill:none;stroke:#ff0000;stroke-linecap:square;stroke-width:1.5;"/>
   </g>
   <g id="line2d_40">
    <path clip-path="url(#p172b8e0319)" d="M 289.578337 310.832289 
L 329.547389 312.466808 
L 339.06383 312.690273 
L 354.290135 312.783279 
L 361.903288 312.666151 
L 367.613153 312.261115 
L 373.323017 311.647974 
L 377.129594 310.971791 
L 386.646035 308.983636 
L 392.355899 307.283289 
L 398.065764 305.82326 
L 403.775629 304.956687 
L 409.485493 303.783552 
L 411.388781 303.693383 
L 417.098646 304.359182 
L 422.808511 304.664088 
L 426.615087 304.695721 
L 430.421663 305.190045 
L 434.22824 305.899909 
L 436.131528 306.105894 
L 441.841393 306.420917 
L 451.357834 307.55753 
L 453.261122 307.395251 
L 455.16441 307.096987 
L 457.067698 306.63464 
L 460.874275 305.203971 
L 464.680851 303.497887 
L 466.584139 302.548318 
L 470.390716 299.62949 
L 474.197292 295.570525 
L 476.10058 293.360846 
L 478.003868 291.75867 
L 481.810445 289.073989 
L 483.713733 287.373128 
L 487.520309 283.485681 
L 493.230174 277.446086 
L 495.133462 275.177848 
L 498.940039 271.288613 
L 500.843327 268.960345 
L 502.746615 265.668267 
L 504.649903 261.970961 
L 508.45648 248.932332 
L 510.359768 241.160986 
L 512.263056 232.557855 
L 516.069632 213.238542 
L 519.876209 193.073714 
L 525.586074 161.587229 
L 529.39265 142.617698 
L 531.295938 138.834492 
L 533.199226 134.62817 
L 535.102515 132.984778 
L 537.005803 132.546981 
L 538.909091 128.538749 
L 540.812379 125.489051 
L 542.715667 123.363384 
L 546.522244 122.037903 
L 548.425532 121.115506 
L 550.32882 118.324189 
L 552.232108 115.116519 
L 554.135397 112.796645 
L 556.038685 107.940375 
L 557.941973 105.148004 
L 559.845261 101.396222 
L 561.748549 97.953356 
L 565.555126 109.844555 
L 567.458414 115.134819 
L 569.361702 119.630511 
L 571.26499 125.952917 
L 573.168279 133.246452 
L 578.878143 165.462795 
L 580.781431 174.594253 
L 582.68472 182.290017 
L 584.588008 190.783264 
L 586.491296 197.50683 
L 588.394584 198.583074 
L 590.297872 199.519315 
L 592.201161 200.945278 
L 594.104449 202.595019 
L 597.911025 203.245813 
L 599.814313 202.116855 
L 601.717602 200.785213 
L 603.62089 201.798723 
L 605.524178 203.954453 
L 609.330754 209.687451 
L 611.234043 214.427824 
L 613.137331 220.404697 
L 616.943907 233.851546 
L 628.363636 279.775375 
L 628.363636 279.775375 
" style="fill:none;stroke:#0000ff;stroke-linecap:square;stroke-width:1.5;"/>
   </g>
   <g id="patch_3">
    <path d="M 64.8 313.2 
L 64.8 28.8 
" style="fill:none;stroke:#000000;stroke-linecap:square;stroke-linejoin:miter;stroke-width:0.8;"/>
   </g>
   <g id="patch_4">
    <path d="M 655.2 313.2 
L 655.2 28.8 
" style="fill:none;stroke:#000000;stroke-linecap:square;stroke-linejoin:miter;stroke-width:0.8;"/>
   </g>
   <g id="patch_5">
    <path d="M 64.8 313.2 
L 655.2 313.2 
" style="fill:none;stroke:#000000;stroke-linecap:square;stroke-linejoin:miter;stroke-width:0.8;"/>
   </g>
   <g id="patch_6">
    <path d="M 64.8 28.8 
L 655.2 28.8 
" style="fill:none;stroke:#000000;stroke-linecap:square;stroke-linejoin:miter;stroke-width:0.8;"/>
   </g>
   <g id="legend_1">
    <g id="patch_7">
     <path d="M 71.8 66.15625 
L 312.826563 66.15625 
Q 314.826563 66.15625 314.826563 64.15625 
L 314.826563 35.8 
Q 314.826563 33.8 312.826563 33.8 
L 71.8 33.8 
Q 69.8 33.8 69.8 35.8 
L 69.8 64.15625 
Q 69.8 66.15625 71.8 66.15625 
z
" style="fill:#ffffff;opacity:0.8;stroke:#cccccc;stroke-linejoin:miter;"/>
    </g>
    <g id="line2d_41">
     <path d="M 73.8 41.898438 
L 93.8 41.898438 
" style="fill:none;stroke:#ff0000;stroke-linecap:square;stroke-width:1.5;"/>
    </g>
    <g id="line2d_42"/>
    <g id="text_21">
     <!-- Schatting zieken RIVM -->
     <g transform="translate(101.8 45.398438)scale(0.1 -0.1)">
      <defs>
       <path d="M 53.515625 70.515625 
L 53.515625 60.890625 
Q 47.90625 63.578125 42.921875 64.890625 
Q 37.9375 66.21875 33.296875 66.21875 
Q 25.25 66.21875 20.875 63.09375 
Q 16.5 59.96875 16.5 54.203125 
Q 16.5 49.359375 19.40625 46.890625 
Q 22.3125 44.4375 30.421875 42.921875 
L 36.375 41.703125 
Q 47.40625 39.59375 52.65625 34.296875 
Q 57.90625 29 57.90625 20.125 
Q 57.90625 9.515625 50.796875 4.046875 
Q 43.703125 -1.421875 29.984375 -1.421875 
Q 24.8125 -1.421875 18.96875 -0.25 
Q 13.140625 0.921875 6.890625 3.21875 
L 6.890625 13.375 
Q 12.890625 10.015625 18.65625 8.296875 
Q 24.421875 6.59375 29.984375 6.59375 
Q 38.421875 6.59375 43.015625 9.90625 
Q 47.609375 13.234375 47.609375 19.390625 
Q 47.609375 24.75 44.3125 27.78125 
Q 41.015625 30.8125 33.5 32.328125 
L 27.484375 33.5 
Q 16.453125 35.6875 11.515625 40.375 
Q 6.59375 45.0625 6.59375 53.421875 
Q 6.59375 63.09375 13.40625 68.65625 
Q 20.21875 74.21875 32.171875 74.21875 
Q 37.3125 74.21875 42.625 73.28125 
Q 47.953125 72.359375 53.515625 70.515625 
z
" id="DejaVuSans-83"/>
       <path d="M 48.78125 52.59375 
L 48.78125 44.1875 
Q 44.96875 46.296875 41.140625 47.34375 
Q 37.3125 48.390625 33.40625 48.390625 
Q 24.65625 48.390625 19.8125 42.84375 
Q 14.984375 37.3125 14.984375 27.296875 
Q 14.984375 17.28125 19.8125 11.734375 
Q 24.65625 6.203125 33.40625 6.203125 
Q 37.3125 6.203125 41.140625 7.25 
Q 44.96875 8.296875 48.78125 10.40625 
L 48.78125 2.09375 
Q 45.015625 0.34375 40.984375 -0.53125 
Q 36.96875 -1.421875 32.421875 -1.421875 
Q 20.0625 -1.421875 12.78125 6.34375 
Q 5.515625 14.109375 5.515625 27.296875 
Q 5.515625 40.671875 12.859375 48.328125 
Q 20.21875 56 33.015625 56 
Q 37.15625 56 41.109375 55.140625 
Q 45.0625 54.296875 48.78125 52.59375 
z
" id="DejaVuSans-99"/>
       <path d="M 54.890625 33.015625 
L 54.890625 0 
L 45.90625 0 
L 45.90625 32.71875 
Q 45.90625 40.484375 42.875 44.328125 
Q 39.84375 48.1875 33.796875 48.1875 
Q 26.515625 48.1875 22.3125 43.546875 
Q 18.109375 38.921875 18.109375 30.90625 
L 18.109375 0 
L 9.078125 0 
L 9.078125 75.984375 
L 18.109375 75.984375 
L 18.109375 46.1875 
Q 21.34375 51.125 25.703125 53.5625 
Q 30.078125 56 35.796875 56 
Q 45.21875 56 50.046875 50.171875 
Q 54.890625 44.34375 54.890625 33.015625 
z
" id="DejaVuSans-104"/>
       <path d="M 9.421875 54.6875 
L 18.40625 54.6875 
L 18.40625 0 
L 9.421875 0 
z
M 9.421875 75.984375 
L 18.40625 75.984375 
L 18.40625 64.59375 
L 9.421875 64.59375 
z
" id="DejaVuSans-105"/>
       <path d="M 54.890625 33.015625 
L 54.890625 0 
L 45.90625 0 
L 45.90625 32.71875 
Q 45.90625 40.484375 42.875 44.328125 
Q 39.84375 48.1875 33.796875 48.1875 
Q 26.515625 48.1875 22.3125 43.546875 
Q 18.109375 38.921875 18.109375 30.90625 
L 18.109375 0 
L 9.078125 0 
L 9.078125 54.6875 
L 18.109375 54.6875 
L 18.109375 46.1875 
Q 21.34375 51.125 25.703125 53.5625 
Q 30.078125 56 35.796875 56 
Q 45.21875 56 50.046875 50.171875 
Q 54.890625 44.34375 54.890625 33.015625 
z
" id="DejaVuSans-110"/>
       <path d="M 45.40625 27.984375 
Q 45.40625 37.75 41.375 43.109375 
Q 37.359375 48.484375 30.078125 48.484375 
Q 22.859375 48.484375 18.828125 43.109375 
Q 14.796875 37.75 14.796875 27.984375 
Q 14.796875 18.265625 18.828125 12.890625 
Q 22.859375 7.515625 30.078125 7.515625 
Q 37.359375 7.515625 41.375 12.890625 
Q 45.40625 18.265625 45.40625 27.984375 
z
M 54.390625 6.78125 
Q 54.390625 -7.171875 48.1875 -13.984375 
Q 42 -20.796875 29.203125 -20.796875 
Q 24.46875 -20.796875 20.265625 -20.09375 
Q 16.0625 -19.390625 12.109375 -17.921875 
L 12.109375 -9.1875 
Q 16.0625 -11.328125 19.921875 -12.34375 
Q 23.78125 -13.375 27.78125 -13.375 
Q 36.625 -13.375 41.015625 -8.765625 
Q 45.40625 -4.15625 45.40625 5.171875 
L 45.40625 9.625 
Q 42.625 4.78125 38.28125 2.390625 
Q 33.9375 0 27.875 0 
Q 17.828125 0 11.671875 7.65625 
Q 5.515625 15.328125 5.515625 27.984375 
Q 5.515625 40.671875 11.671875 48.328125 
Q 17.828125 56 27.875 56 
Q 33.9375 56 38.28125 53.609375 
Q 42.625 51.21875 45.40625 46.390625 
L 45.40625 54.6875 
L 54.390625 54.6875 
z
" id="DejaVuSans-103"/>
       <path id="DejaVuSans-32"/>
       <path d="M 5.515625 54.6875 
L 48.1875 54.6875 
L 48.1875 46.484375 
L 14.40625 7.171875 
L 48.1875 7.171875 
L 48.1875 0 
L 4.296875 0 
L 4.296875 8.203125 
L 38.09375 47.515625 
L 5.515625 47.515625 
z
" id="DejaVuSans-122"/>
       <path d="M 56.203125 29.59375 
L 56.203125 25.203125 
L 14.890625 25.203125 
Q 15.484375 15.921875 20.484375 11.0625 
Q 25.484375 6.203125 34.421875 6.203125 
Q 39.59375 6.203125 44.453125 7.46875 
Q 49.3125 8.734375 54.109375 11.28125 
L 54.109375 2.78125 
Q 49.265625 0.734375 44.1875 -0.34375 
Q 39.109375 -1.421875 33.890625 -1.421875 
Q 20.796875 -1.421875 13.15625 6.1875 
Q 5.515625 13.8125 5.515625 26.8125 
Q 5.515625 40.234375 12.765625 48.109375 
Q 20.015625 56 32.328125 56 
Q 43.359375 56 49.78125 48.890625 
Q 56.203125 41.796875 56.203125 29.59375 
z
M 47.21875 32.234375 
Q 47.125 39.59375 43.09375 43.984375 
Q 39.0625 48.390625 32.421875 48.390625 
Q 24.90625 48.390625 20.390625 44.140625 
Q 15.875 39.890625 15.1875 32.171875 
z
" id="DejaVuSans-101"/>
       <path d="M 9.078125 75.984375 
L 18.109375 75.984375 
L 18.109375 31.109375 
L 44.921875 54.6875 
L 56.390625 54.6875 
L 27.390625 29.109375 
L 57.625 0 
L 45.90625 0 
L 18.109375 26.703125 
L 18.109375 0 
L 9.078125 0 
z
" id="DejaVuSans-107"/>
       <path d="M 44.390625 34.1875 
Q 47.5625 33.109375 50.5625 29.59375 
Q 53.5625 26.078125 56.59375 19.921875 
L 66.609375 0 
L 56 0 
L 46.6875 18.703125 
Q 43.0625 26.03125 39.671875 28.421875 
Q 36.28125 30.8125 30.421875 30.8125 
L 19.671875 30.8125 
L 19.671875 0 
L 9.8125 0 
L 9.8125 72.90625 
L 32.078125 72.90625 
Q 44.578125 72.90625 50.734375 67.671875 
Q 56.890625 62.453125 56.890625 51.90625 
Q 56.890625 45.015625 53.6875 40.46875 
Q 50.484375 35.9375 44.390625 34.1875 
z
M 19.671875 64.796875 
L 19.671875 38.921875 
L 32.078125 38.921875 
Q 39.203125 38.921875 42.84375 42.21875 
Q 46.484375 45.515625 46.484375 51.90625 
Q 46.484375 58.296875 42.84375 61.546875 
Q 39.203125 64.796875 32.078125 64.796875 
z
" id="DejaVuSans-82"/>
       <path d="M 9.8125 72.90625 
L 19.671875 72.90625 
L 19.671875 0 
L 9.8125 0 
z
" id="DejaVuSans-73"/>
       <path d="M 28.609375 0 
L 0.78125 72.90625 
L 11.078125 72.90625 
L 34.1875 11.53125 
L 57.328125 72.90625 
L 67.578125 72.90625 
L 39.796875 0 
z
" id="DejaVuSans-86"/>
       <path d="M 9.8125 72.90625 
L 24.515625 72.90625 
L 43.109375 23.296875 
L 61.8125 72.90625 
L 76.515625 72.90625 
L 76.515625 0 
L 66.890625 0 
L 66.890625 64.015625 
L 48.09375 14.015625 
L 38.1875 14.015625 
L 19.390625 64.015625 
L 19.390625 0 
L 9.8125 0 
z
" id="DejaVuSans-77"/>
      </defs>
      <use xlink:href="#DejaVuSans-83"/>
      <use x="63.476562" xlink:href="#DejaVuSans-99"/>
      <use x="118.457031" xlink:href="#DejaVuSans-104"/>
      <use x="181.835938" xlink:href="#DejaVuSans-97"/>
      <use x="243.115234" xlink:href="#DejaVuSans-116"/>
      <use x="282.324219" xlink:href="#DejaVuSans-116"/>
      <use x="321.533203" xlink:href="#DejaVuSans-105"/>
      <use x="349.316406" xlink:href="#DejaVuSans-110"/>
      <use x="412.695312" xlink:href="#DejaVuSans-103"/>
      <use x="476.171875" xlink:href="#DejaVuSans-32"/>
      <use x="507.958984" xlink:href="#DejaVuSans-122"/>
      <use x="560.449219" xlink:href="#DejaVuSans-105"/>
      <use x="588.232422" xlink:href="#DejaVuSans-101"/>
      <use x="649.755859" xlink:href="#DejaVuSans-107"/>
      <use x="704.041016" xlink:href="#DejaVuSans-101"/>
      <use x="765.564453" xlink:href="#DejaVuSans-110"/>
      <use x="828.943359" xlink:href="#DejaVuSans-32"/>
      <use x="860.730469" xlink:href="#DejaVuSans-82"/>
      <use x="930.212891" xlink:href="#DejaVuSans-73"/>
      <use x="959.705078" xlink:href="#DejaVuSans-86"/>
      <use x="1028.113281" xlink:href="#DejaVuSans-77"/>
     </g>
    </g>
    <g id="line2d_43">
     <path d="M 73.8 56.576563 
L 93.8 56.576563 
" style="fill:none;stroke:#0000ff;stroke-linecap:square;stroke-width:1.5;"/>
    </g>
    <g id="line2d_44"/>
    <g id="text_22">
     <!-- Schatting zieken @rolfje obv RNA in RWZI -->
     <g transform="translate(101.8 60.076563)scale(0.1 -0.1)">
      <defs>
       <path d="M 37.203125 26.21875 
Q 37.203125 19.234375 40.671875 15.25 
Q 44.140625 11.28125 50.203125 11.28125 
Q 56.203125 11.28125 59.640625 15.28125 
Q 63.09375 19.28125 63.09375 26.21875 
Q 63.09375 33.0625 59.578125 37.078125 
Q 56.0625 41.109375 50.09375 41.109375 
Q 44.1875 41.109375 40.6875 37.109375 
Q 37.203125 33.109375 37.203125 26.21875 
z
M 63.8125 11.625 
Q 60.890625 7.859375 57.109375 6.078125 
Q 53.328125 4.296875 48.296875 4.296875 
Q 39.890625 4.296875 34.640625 10.375 
Q 29.390625 16.453125 29.390625 26.21875 
Q 29.390625 35.984375 34.65625 42.078125 
Q 39.9375 48.1875 48.296875 48.1875 
Q 53.328125 48.1875 57.125 46.359375 
Q 60.9375 44.53125 63.8125 40.828125 
L 63.8125 47.21875 
L 70.796875 47.21875 
L 70.796875 11.28125 
Q 77.9375 12.359375 81.953125 17.796875 
Q 85.984375 23.25 85.984375 31.890625 
Q 85.984375 37.109375 84.4375 41.703125 
Q 82.90625 46.296875 79.78125 50.203125 
Q 74.703125 56.59375 67.40625 59.984375 
Q 60.109375 63.375 51.515625 63.375 
Q 45.515625 63.375 39.984375 61.78125 
Q 34.46875 60.203125 29.78125 57.078125 
Q 22.125 52.09375 17.796875 44.015625 
Q 13.484375 35.9375 13.484375 26.515625 
Q 13.484375 18.75 16.28125 11.953125 
Q 19.09375 5.171875 24.421875 0 
Q 29.546875 -5.078125 36.28125 -7.734375 
Q 43.015625 -10.40625 50.6875 -10.40625 
Q 56.984375 -10.40625 63.0625 -8.28125 
Q 69.140625 -6.15625 74.21875 -2.203125 
L 78.609375 -7.625 
Q 72.515625 -12.359375 65.3125 -14.875 
Q 58.109375 -17.390625 50.6875 -17.390625 
Q 41.65625 -17.390625 33.640625 -14.1875 
Q 25.640625 -10.984375 19.390625 -4.890625 
Q 13.140625 1.21875 9.859375 9.25 
Q 6.59375 17.28125 6.59375 26.515625 
Q 6.59375 35.40625 9.90625 43.453125 
Q 13.234375 51.515625 19.390625 57.625 
Q 25.6875 63.8125 33.9375 67.109375 
Q 42.1875 70.40625 51.421875 70.40625 
Q 61.765625 70.40625 70.625 66.15625 
Q 79.5 61.921875 85.5 54.109375 
Q 89.15625 49.3125 91.078125 43.703125 
Q 93.015625 38.09375 93.015625 32.078125 
Q 93.015625 19.234375 85.25 11.8125 
Q 77.484375 4.390625 63.8125 4.109375 
z
" id="DejaVuSans-64"/>
       <path d="M 41.109375 46.296875 
Q 39.59375 47.171875 37.8125 47.578125 
Q 36.03125 48 33.890625 48 
Q 26.265625 48 22.1875 43.046875 
Q 18.109375 38.09375 18.109375 28.8125 
L 18.109375 0 
L 9.078125 0 
L 9.078125 54.6875 
L 18.109375 54.6875 
L 18.109375 46.1875 
Q 20.953125 51.171875 25.484375 53.578125 
Q 30.03125 56 36.53125 56 
Q 37.453125 56 38.578125 55.875 
Q 39.703125 55.765625 41.0625 55.515625 
z
" id="DejaVuSans-114"/>
       <path d="M 30.609375 48.390625 
Q 23.390625 48.390625 19.1875 42.75 
Q 14.984375 37.109375 14.984375 27.296875 
Q 14.984375 17.484375 19.15625 11.84375 
Q 23.34375 6.203125 30.609375 6.203125 
Q 37.796875 6.203125 41.984375 11.859375 
Q 46.1875 17.53125 46.1875 27.296875 
Q 46.1875 37.015625 41.984375 42.703125 
Q 37.796875 48.390625 30.609375 48.390625 
z
M 30.609375 56 
Q 42.328125 56 49.015625 48.375 
Q 55.71875 40.765625 55.71875 27.296875 
Q 55.71875 13.875 49.015625 6.21875 
Q 42.328125 -1.421875 30.609375 -1.421875 
Q 18.84375 -1.421875 12.171875 6.21875 
Q 5.515625 13.875 5.515625 27.296875 
Q 5.515625 40.765625 12.171875 48.375 
Q 18.84375 56 30.609375 56 
z
" id="DejaVuSans-111"/>
       <path d="M 9.421875 75.984375 
L 18.40625 75.984375 
L 18.40625 0 
L 9.421875 0 
z
" id="DejaVuSans-108"/>
       <path d="M 37.109375 75.984375 
L 37.109375 68.5 
L 28.515625 68.5 
Q 23.6875 68.5 21.796875 66.546875 
Q 19.921875 64.59375 19.921875 59.515625 
L 19.921875 54.6875 
L 34.71875 54.6875 
L 34.71875 47.703125 
L 19.921875 47.703125 
L 19.921875 0 
L 10.890625 0 
L 10.890625 47.703125 
L 2.296875 47.703125 
L 2.296875 54.6875 
L 10.890625 54.6875 
L 10.890625 58.5 
Q 10.890625 67.625 15.140625 71.796875 
Q 19.390625 75.984375 28.609375 75.984375 
z
" id="DejaVuSans-102"/>
       <path d="M 9.421875 54.6875 
L 18.40625 54.6875 
L 18.40625 -0.984375 
Q 18.40625 -11.421875 14.421875 -16.109375 
Q 10.453125 -20.796875 1.609375 -20.796875 
L -1.8125 -20.796875 
L -1.8125 -13.1875 
L 0.59375 -13.1875 
Q 5.71875 -13.1875 7.5625 -10.8125 
Q 9.421875 -8.453125 9.421875 -0.984375 
z
M 9.421875 75.984375 
L 18.40625 75.984375 
L 18.40625 64.59375 
L 9.421875 64.59375 
z
" id="DejaVuSans-106"/>
       <path d="M 48.6875 27.296875 
Q 48.6875 37.203125 44.609375 42.84375 
Q 40.53125 48.484375 33.40625 48.484375 
Q 26.265625 48.484375 22.1875 42.84375 
Q 18.109375 37.203125 18.109375 27.296875 
Q 18.109375 17.390625 22.1875 11.75 
Q 26.265625 6.109375 33.40625 6.109375 
Q 40.53125 6.109375 44.609375 11.75 
Q 48.6875 17.390625 48.6875 27.296875 
z
M 18.109375 46.390625 
Q 20.953125 51.265625 25.265625 53.625 
Q 29.59375 56 35.59375 56 
Q 45.5625 56 51.78125 48.09375 
Q 58.015625 40.1875 58.015625 27.296875 
Q 58.015625 14.40625 51.78125 6.484375 
Q 45.5625 -1.421875 35.59375 -1.421875 
Q 29.59375 -1.421875 25.265625 0.953125 
Q 20.953125 3.328125 18.109375 8.203125 
L 18.109375 0 
L 9.078125 0 
L 9.078125 75.984375 
L 18.109375 75.984375 
z
" id="DejaVuSans-98"/>
       <path d="M 2.984375 54.6875 
L 12.5 54.6875 
L 29.59375 8.796875 
L 46.6875 54.6875 
L 56.203125 54.6875 
L 35.6875 0 
L 23.484375 0 
z
" id="DejaVuSans-118"/>
       <path d="M 9.8125 72.90625 
L 23.09375 72.90625 
L 55.421875 11.921875 
L 55.421875 72.90625 
L 64.984375 72.90625 
L 64.984375 0 
L 51.703125 0 
L 19.390625 60.984375 
L 19.390625 0 
L 9.8125 0 
z
" id="DejaVuSans-78"/>
       <path d="M 34.1875 63.1875 
L 20.796875 26.90625 
L 47.609375 26.90625 
z
M 28.609375 72.90625 
L 39.796875 72.90625 
L 67.578125 0 
L 57.328125 0 
L 50.6875 18.703125 
L 17.828125 18.703125 
L 11.1875 0 
L 0.78125 0 
z
" id="DejaVuSans-65"/>
       <path d="M 3.328125 72.90625 
L 13.28125 72.90625 
L 28.609375 11.28125 
L 43.890625 72.90625 
L 54.984375 72.90625 
L 70.3125 11.28125 
L 85.59375 72.90625 
L 95.609375 72.90625 
L 77.296875 0 
L 64.890625 0 
L 49.515625 63.28125 
L 33.984375 0 
L 21.578125 0 
z
" id="DejaVuSans-87"/>
       <path d="M 5.609375 72.90625 
L 62.890625 72.90625 
L 62.890625 65.375 
L 16.796875 8.296875 
L 64.015625 8.296875 
L 64.015625 0 
L 4.5 0 
L 4.5 7.515625 
L 50.59375 64.59375 
L 5.609375 64.59375 
z
" id="DejaVuSans-90"/>
      </defs>
      <use xlink:href="#DejaVuSans-83"/>
      <use x="63.476562" xlink:href="#DejaVuSans-99"/>
      <use x="118.457031" xlink:href="#DejaVuSans-104"/>
      <use x="181.835938" xlink:href="#DejaVuSans-97"/>
      <use x="243.115234" xlink:href="#DejaVuSans-116"/>
      <use x="282.324219" xlink:href="#DejaVuSans-116"/>
      <use x="321.533203" xlink:href="#DejaVuSans-105"/>
      <use x="349.316406" xlink:href="#DejaVuSans-110"/>
      <use x="412.695312" xlink:href="#DejaVuSans-103"/>
      <use x="476.171875" xlink:href="#DejaVuSans-32"/>
      <use x="507.958984" xlink:href="#DejaVuSans-122"/>
      <use x="560.449219" xlink:href="#DejaVuSans-105"/>
      <use x="588.232422" xlink:href="#DejaVuSans-101"/>
      <use x="649.755859" xlink:href="#DejaVuSans-107"/>
      <use x="704.041016" xlink:href="#DejaVuSans-101"/>
      <use x="765.564453" xlink:href="#DejaVuSans-110"/>
      <use x="828.943359" xlink:href="#DejaVuSans-32"/>
      <use x="860.730469" xlink:href="#DejaVuSans-64"/>
      <use x="960.730469" xlink:href="#DejaVuSans-114"/>
      <use x="999.59375" xlink:href="#DejaVuSans-111"/>
      <use x="1060.775391" xlink:href="#DejaVuSans-108"/>
      <use x="1088.558594" xlink:href="#DejaVuSans-102"/>
      <use x="1123.763672" xlink:href="#DejaVuSans-106"/>
      <use x="1151.546875" xlink:href="#DejaVuSans-101"/>
      <use x="1213.070312" xlink:href="#DejaVuSans-32"/>
      <use x="1244.857422" xlink:href="#DejaVuSans-111"/>
      <use x="1306.039062" xlink:href="#DejaVuSans-98"/>
      <use x="1369.515625" xlink:href="#DejaVuSans-118"/>
      <use x="1428.695312" xlink:href="#DejaVuSans-32"/>
      <use x="1460.482422" xlink:href="#DejaVuSans-82"/>
      <use x="1529.964844" xlink:href="#DejaVuSans-78"/>
      <use x="1604.769531" xlink:href="#DejaVuSans-65"/>
      <use x="1673.177734" xlink:href="#DejaVuSans-32"/>
      <use x="1704.964844" xlink:href="#DejaVuSans-105"/>
      <use x="1732.748047" xlink:href="#DejaVuSans-110"/>
      <use x="1796.126953" xlink:href="#DejaVuSans-32"/>
      <use x="1827.914062" xlink:href="#DejaVuSans-82"/>
      <use x="1893.396484" xlink:href="#DejaVuSans-87"/>
      <use x="1992.273438" xlink:href="#DejaVuSans-90"/>
      <use x="2060.779297" xlink:href="#DejaVuSans-73"/>
     </g>
    </g>
   </g>
  </g>
  <g id="axes_2">
   <g id="matplotlib.axis_3">
    <g id="ytick_10">
     <g id="line2d_45">
      <path clip-path="url(#p172b8e0319)" d="M 64.8 313.2 
L 655.2 313.2 
" style="fill:none;stroke:#808080;stroke-dasharray:6.4,1.6,1,1.6;stroke-dashoffset:0;stroke-opacity:0.3;"/>
     </g>
     <g id="line2d_46">
      <defs>
       <path d="M 0 0 
L 3.5 0 
" id="md77074a12c" style="stroke:#000000;stroke-width:0.8;"/>
      </defs>
      <g>
       <use style="stroke:#000000;stroke-width:0.8;" x="655.2" xlink:href="#md77074a12c" y="313.2"/>
      </g>
     </g>
     <g id="text_23">
      <!-- 200 -->
      <g transform="translate(662.2 316.999219)scale(0.1 -0.1)">
       <defs>
        <path d="M 10.59375 35.5 
L 73.1875 35.5 
L 73.1875 27.203125 
L 10.59375 27.203125 
z
" id="DejaVuSans-8722"/>
       </defs>
       <use xlink:href="#DejaVuSans-8722"/>
       <use x="83.789062" xlink:href="#DejaVuSans-50"/>
       <use x="147.412109" xlink:href="#DejaVuSans-48"/>
       <use x="211.035156" xlink:href="#DejaVuSans-48"/>
      </g>
     </g>
    </g>
    <g id="ytick_11">
     <g id="line2d_47">
      <path clip-path="url(#p172b8e0319)" d="M 64.8 277.65 
L 655.2 277.65 
" style="fill:none;stroke:#808080;stroke-dasharray:6.4,1.6,1,1.6;stroke-dashoffset:0;stroke-opacity:0.3;"/>
     </g>
     <g id="line2d_48">
      <g>
       <use style="stroke:#000000;stroke-width:0.8;" x="655.2" xlink:href="#md77074a12c" y="277.65"/>
      </g>
     </g>
     <g id="text_24">
      <!-- 150 -->
      <g transform="translate(662.2 281.449219)scale(0.1 -0.1)">
       <use xlink:href="#DejaVuSans-8722"/>
       <use x="83.789062" xlink:href="#DejaVuSans-49"/>
       <use x="147.412109" xlink:href="#DejaVuSans-53"/>
       <use x="211.035156" xlink:href="#DejaVuSans-48"/>
      </g>
     </g>
    </g>
    <g id="ytick_12">
     <g id="line2d_49">
      <path clip-path="url(#p172b8e0319)" d="M 64.8 242.1 
L 655.2 242.1 
" style="fill:none;stroke:#808080;stroke-dasharray:6.4,1.6,1,1.6;stroke-dashoffset:0;stroke-opacity:0.3;"/>
     </g>
     <g id="line2d_50">
      <g>
       <use style="stroke:#000000;stroke-width:0.8;" x="655.2" xlink:href="#md77074a12c" y="242.1"/>
      </g>
     </g>
     <g id="text_25">
      <!-- 100 -->
      <g transform="translate(662.2 245.899219)scale(0.1 -0.1)">
       <use xlink:href="#DejaVuSans-8722"/>
       <use x="83.789062" xlink:href="#DejaVuSans-49"/>
       <use x="147.412109" xlink:href="#DejaVuSans-48"/>
       <use x="211.035156" xlink:href="#DejaVuSans-48"/>
      </g>
     </g>
    </g>
    <g id="ytick_13">
     <g id="line2d_51">
      <path clip-path="url(#p172b8e0319)" d="M 64.8 206.55 
L 655.2 206.55 
" style="fill:none;stroke:#808080;stroke-dasharray:6.4,1.6,1,1.6;stroke-dashoffset:0;stroke-opacity:0.3;"/>
     </g>
     <g id="line2d_52">
      <g>
       <use style="stroke:#000000;stroke-width:0.8;" x="655.2" xlink:href="#md77074a12c" y="206.55"/>
      </g>
     </g>
     <g id="text_26">
      <!-- 50 -->
      <g transform="translate(662.2 210.349219)scale(0.1 -0.1)">
       <use xlink:href="#DejaVuSans-8722"/>
       <use x="83.789062" xlink:href="#DejaVuSans-53"/>
       <use x="147.412109" xlink:href="#DejaVuSans-48"/>
      </g>
     </g>
    </g>
    <g id="ytick_14">
     <g id="line2d_53">
      <path clip-path="url(#p172b8e0319)" d="M 64.8 171 
L 655.2 171 
" style="fill:none;stroke:#808080;stroke-dasharray:6.4,1.6,1,1.6;stroke-dashoffset:0;stroke-opacity:0.3;"/>
     </g>
     <g id="line2d_54">
      <g>
       <use style="stroke:#000000;stroke-width:0.8;" x="655.2" xlink:href="#md77074a12c" y="171"/>
      </g>
     </g>
     <g id="text_27">
      <!-- 0 -->
      <g transform="translate(662.2 174.799219)scale(0.1 -0.1)">
       <use xlink:href="#DejaVuSans-48"/>
      </g>
     </g>
    </g>
    <g id="ytick_15">
     <g id="line2d_55">
      <path clip-path="url(#p172b8e0319)" d="M 64.8 135.45 
L 655.2 135.45 
" style="fill:none;stroke:#808080;stroke-dasharray:6.4,1.6,1,1.6;stroke-dashoffset:0;stroke-opacity:0.3;"/>
     </g>
     <g id="line2d_56">
      <g>
       <use style="stroke:#000000;stroke-width:0.8;" x="655.2" xlink:href="#md77074a12c" y="135.45"/>
      </g>
     </g>
     <g id="text_28">
      <!-- 50 -->
      <g transform="translate(662.2 139.249219)scale(0.1 -0.1)">
       <use xlink:href="#DejaVuSans-53"/>
       <use x="63.623047" xlink:href="#DejaVuSans-48"/>
      </g>
     </g>
    </g>
    <g id="ytick_16">
     <g id="line2d_57">
      <path clip-path="url(#p172b8e0319)" d="M 64.8 99.9 
L 655.2 99.9 
" style="fill:none;stroke:#808080;stroke-dasharray:6.4,1.6,1,1.6;stroke-dashoffset:0;stroke-opacity:0.3;"/>
     </g>
     <g id="line2d_58">
      <g>
       <use style="stroke:#000000;stroke-width:0.8;" x="655.2" xlink:href="#md77074a12c" y="99.9"/>
      </g>
     </g>
     <g id="text_29">
      <!-- 100 -->
      <g transform="translate(662.2 103.699219)scale(0.1 -0.1)">
       <use xlink:href="#DejaVuSans-49"/>
       <use x="63.623047" xlink:href="#DejaVuSans-48"/>
       <use x="127.246094" xlink:href="#DejaVuSans-48"/>
      </g>
     </g>
    </g>
    <g id="ytick_17">
     <g id="line2d_59">
      <path clip-path="url(#p172b8e0319)" d="M 64.8 64.35 
L 655.2 64.35 
" style="fill:none;stroke:#808080;stroke-dasharray:6.4,1.6,1,1.6;stroke-dashoffset:0;stroke-opacity:0.3;"/>
     </g>
     <g id="line2d_60">
      <g>
       <use style="stroke:#000000;stroke-width:0.8;" x="655.2" xlink:href="#md77074a12c" y="64.35"/>
      </g>
     </g>
     <g id="text_30">
      <!-- 150 -->
      <g transform="translate(662.2 68.149219)scale(0.1 -0.1)">
       <use xlink:href="#DejaVuSans-49"/>
       <use x="63.623047" xlink:href="#DejaVuSans-53"/>
       <use x="127.246094" xlink:href="#DejaVuSans-48"/>
      </g>
     </g>
    </g>
    <g id="ytick_18">
     <g id="line2d_61">
      <path clip-path="url(#p172b8e0319)" d="M 64.8 28.8 
L 655.2 28.8 
" style="fill:none;stroke:#808080;stroke-dasharray:6.4,1.6,1,1.6;stroke-dashoffset:0;stroke-opacity:0.3;"/>
     </g>
     <g id="line2d_62">
      <g>
       <use style="stroke:#000000;stroke-width:0.8;" x="655.2" xlink:href="#md77074a12c" y="28.8"/>
      </g>
     </g>
     <g id="text_31">
      <!-- 200 -->
      <g transform="translate(662.2 32.599219)scale(0.1 -0.1)">
       <use xlink:href="#DejaVuSans-50"/>
       <use x="63.623047" xlink:href="#DejaVuSans-48"/>
       <use x="127.246094" xlink:href="#DejaVuSans-48"/>
      </g>
     </g>
    </g>
   </g>
   <g id="line2d_63">
    <path clip-path="url(#p172b8e0319)" d="M 289.578337 248.820595 
L 293.384913 236.162498 
L 295.288201 229.400376 
L 297.191489 223.552257 
L 299.094778 220.365297 
L 300.998066 221.247835 
L 302.901354 222.693494 
L 304.804642 226.268943 
L 306.70793 231.919162 
L 310.514507 241.869594 
L 312.417795 248.451194 
L 314.321083 256.051147 
L 318.12766 284.698951 
L 320.030948 300.876797 
L 321.934236 318.704579 
L 323.837524 340.78849 
L 325.442053 361 
M 362.598636 361 
L 363.806576 337.363569 
L 365.709865 308.467564 
L 367.613153 276.019448 
L 369.516441 251.19437 
L 371.419729 231.780921 
L 373.323017 219.144932 
L 375.226306 203.166667 
L 377.129594 195.027955 
L 379.032882 189.369946 
L 380.93617 185.284249 
L 382.839458 183.250085 
L 384.742747 179.696764 
L 386.646035 176.536887 
L 388.549323 172.797479 
L 390.452611 169.995332 
L 392.355899 168.012393 
L 394.259188 167.088205 
L 398.065764 166.660999 
L 399.969052 169.301147 
L 401.87234 172.229875 
L 403.775629 171.128962 
L 405.678917 169.589129 
L 407.582205 168.193118 
L 409.485493 167.263802 
L 411.388781 167.390599 
L 413.29207 168.810847 
L 415.195358 169.811572 
L 417.098646 170.483412 
L 422.808511 173.519916 
L 424.711799 173.336446 
L 426.615087 174.388192 
L 428.518375 176.376519 
L 430.421663 178.73269 
L 434.22824 187.33327 
L 436.131528 188.404045 
L 438.034816 187.450705 
L 439.938104 186.976313 
L 441.841393 186.685387 
L 443.744681 187.228185 
L 445.647969 187.533148 
L 447.551257 189.34848 
L 449.454545 193.271696 
L 451.357834 200.511984 
L 453.261122 200.477346 
L 455.16441 200.904585 
L 457.067698 199.620382 
L 458.970986 196.678902 
L 460.874275 195.111588 
L 462.777563 195.228192 
L 464.680851 195.818654 
L 466.584139 196.218579 
L 470.390716 194.511198 
L 472.294004 192.617328 
L 474.197292 192.000466 
L 476.10058 189.205722 
L 478.003868 189.912052 
L 479.907157 192.505902 
L 481.810445 196.038208 
L 483.713733 197.917969 
L 485.617021 199.258395 
L 487.520309 201.522002 
L 489.423598 202.177185 
L 491.326886 203.05514 
L 493.230174 204.930815 
L 495.133462 205.064223 
L 497.03675 204.790759 
L 500.843327 202.842429 
L 502.746615 199.775311 
L 504.649903 196.054404 
L 506.553191 187.109916 
L 512.263056 166.76566 
L 514.166344 160.919132 
L 516.069632 155.950518 
L 517.972921 151.970017 
L 519.876209 148.290203 
L 521.779497 145.403298 
L 523.682785 143.195246 
L 525.586074 141.758681 
L 529.39265 139.749916 
L 531.295938 139.98409 
L 533.199226 139.900776 
L 537.005803 141.007279 
L 538.909091 140.851413 
L 542.715667 141.192141 
L 548.425532 141.517395 
L 550.32882 141.006631 
L 554.135397 139.442987 
L 556.038685 138.174211 
L 557.941973 137.330306 
L 561.748549 135.433102 
L 567.458414 137.305942 
L 569.361702 137.733086 
L 571.26499 138.508907 
L 573.168279 139.450655 
L 575.071567 141.369408 
L 576.974855 143.504861 
L 578.878143 145.441891 
L 580.781431 147.802147 
L 582.68472 149.679788 
L 584.588008 152.032572 
L 586.491296 153.781146 
L 588.394584 153.172987 
L 590.297872 152.42175 
L 592.201161 151.981559 
L 594.104449 152.281683 
L 597.911025 151.359113 
L 599.814313 150.220396 
L 601.717602 149.340556 
L 603.62089 149.268506 
L 603.62089 149.268506 
" style="fill:none;stroke:#90ee90;stroke-linecap:square;stroke-width:1.5;"/>
   </g>
   <g id="patch_8">
    <path d="M 64.8 313.2 
L 64.8 28.8 
" style="fill:none;stroke:#000000;stroke-linecap:square;stroke-linejoin:miter;stroke-width:0.8;"/>
   </g>
   <g id="patch_9">
    <path d="M 655.2 313.2 
L 655.2 28.8 
" style="fill:none;stroke:#000000;stroke-linecap:square;stroke-linejoin:miter;stroke-width:0.8;"/>
   </g>
   <g id="patch_10">
    <path d="M 64.8 313.2 
L 655.2 313.2 
" style="fill:none;stroke:#000000;stroke-linecap:square;stroke-linejoin:miter;stroke-width:0.8;"/>
   </g>
   <g id="patch_11">
    <path d="M 64.8 28.8 
L 655.2 28.8 
" style="fill:none;stroke:#000000;stroke-linecap:square;stroke-linejoin:miter;stroke-width:0.8;"/>
   </g>
   <g id="text_32">
    <!-- Afwijking schatting o.b.v. RNA t.o.v. RIVM schatting, 2020-11-30 23:28 -->
    <g transform="translate(149.12625 22.8)scale(0.12 -0.12)">
     <defs>
      <path d="M 4.203125 54.6875 
L 13.1875 54.6875 
L 24.421875 12.015625 
L 35.59375 54.6875 
L 46.1875 54.6875 
L 57.421875 12.015625 
L 68.609375 54.6875 
L 77.59375 54.6875 
L 63.28125 0 
L 52.6875 0 
L 40.921875 44.828125 
L 29.109375 0 
L 18.5 0 
z
" id="DejaVuSans-119"/>
      <path d="M 44.28125 53.078125 
L 44.28125 44.578125 
Q 40.484375 46.53125 36.375 47.5 
Q 32.28125 48.484375 27.875 48.484375 
Q 21.1875 48.484375 17.84375 46.4375 
Q 14.5 44.390625 14.5 40.28125 
Q 14.5 37.15625 16.890625 35.375 
Q 19.28125 33.59375 26.515625 31.984375 
L 29.59375 31.296875 
Q 39.15625 29.25 43.1875 25.515625 
Q 47.21875 21.78125 47.21875 15.09375 
Q 47.21875 7.46875 41.1875 3.015625 
Q 35.15625 -1.421875 24.609375 -1.421875 
Q 20.21875 -1.421875 15.453125 -0.5625 
Q 10.6875 0.296875 5.421875 2 
L 5.421875 11.28125 
Q 10.40625 8.6875 15.234375 7.390625 
Q 20.0625 6.109375 24.8125 6.109375 
Q 31.15625 6.109375 34.5625 8.28125 
Q 37.984375 10.453125 37.984375 14.40625 
Q 37.984375 18.0625 35.515625 20.015625 
Q 33.0625 21.96875 24.703125 23.78125 
L 21.578125 24.515625 
Q 13.234375 26.265625 9.515625 29.90625 
Q 5.8125 33.546875 5.8125 39.890625 
Q 5.8125 47.609375 11.28125 51.796875 
Q 16.75 56 26.8125 56 
Q 31.78125 56 36.171875 55.265625 
Q 40.578125 54.546875 44.28125 53.078125 
z
" id="DejaVuSans-115"/>
      <path d="M 10.6875 12.40625 
L 21 12.40625 
L 21 0 
L 10.6875 0 
z
" id="DejaVuSans-46"/>
      <path d="M 11.71875 12.40625 
L 22.015625 12.40625 
L 22.015625 4 
L 14.015625 -11.625 
L 7.71875 -11.625 
L 11.71875 4 
z
" id="DejaVuSans-44"/>
      <path d="M 11.71875 12.40625 
L 22.015625 12.40625 
L 22.015625 0 
L 11.71875 0 
z
M 11.71875 51.703125 
L 22.015625 51.703125 
L 22.015625 39.3125 
L 11.71875 39.3125 
z
" id="DejaVuSans-58"/>
     </defs>
     <use xlink:href="#DejaVuSans-65"/>
     <use x="64.783203" xlink:href="#DejaVuSans-102"/>
     <use x="98.238281" xlink:href="#DejaVuSans-119"/>
     <use x="180.025391" xlink:href="#DejaVuSans-105"/>
     <use x="207.808594" xlink:href="#DejaVuSans-106"/>
     <use x="235.591797" xlink:href="#DejaVuSans-107"/>
     <use x="293.501953" xlink:href="#DejaVuSans-105"/>
     <use x="321.285156" xlink:href="#DejaVuSans-110"/>
     <use x="384.664062" xlink:href="#DejaVuSans-103"/>
     <use x="448.140625" xlink:href="#DejaVuSans-32"/>
     <use x="479.927734" xlink:href="#DejaVuSans-115"/>
     <use x="532.027344" xlink:href="#DejaVuSans-99"/>
     <use x="587.007812" xlink:href="#DejaVuSans-104"/>
     <use x="650.386719" xlink:href="#DejaVuSans-97"/>
     <use x="711.666016" xlink:href="#DejaVuSans-116"/>
     <use x="750.875" xlink:href="#DejaVuSans-116"/>
     <use x="790.083984" xlink:href="#DejaVuSans-105"/>
     <use x="817.867188" xlink:href="#DejaVuSans-110"/>
     <use x="881.246094" xlink:href="#DejaVuSans-103"/>
     <use x="944.722656" xlink:href="#DejaVuSans-32"/>
     <use x="976.509766" xlink:href="#DejaVuSans-111"/>
     <use x="1035.941406" xlink:href="#DejaVuSans-46"/>
     <use x="1067.728516" xlink:href="#DejaVuSans-98"/>
     <use x="1131.205078" xlink:href="#DejaVuSans-46"/>
     <use x="1162.992188" xlink:href="#DejaVuSans-118"/>
     <use x="1214.421875" xlink:href="#DejaVuSans-46"/>
     <use x="1246.208984" xlink:href="#DejaVuSans-32"/>
     <use x="1277.996094" xlink:href="#DejaVuSans-82"/>
     <use x="1347.478516" xlink:href="#DejaVuSans-78"/>
     <use x="1422.283203" xlink:href="#DejaVuSans-65"/>
     <use x="1490.691406" xlink:href="#DejaVuSans-32"/>
     <use x="1522.478516" xlink:href="#DejaVuSans-116"/>
     <use x="1561.6875" xlink:href="#DejaVuSans-46"/>
     <use x="1593.474609" xlink:href="#DejaVuSans-111"/>
     <use x="1652.90625" xlink:href="#DejaVuSans-46"/>
     <use x="1684.693359" xlink:href="#DejaVuSans-118"/>
     <use x="1736.123047" xlink:href="#DejaVuSans-46"/>
     <use x="1767.910156" xlink:href="#DejaVuSans-32"/>
     <use x="1799.697266" xlink:href="#DejaVuSans-82"/>
     <use x="1869.179688" xlink:href="#DejaVuSans-73"/>
     <use x="1898.671875" xlink:href="#DejaVuSans-86"/>
     <use x="1967.080078" xlink:href="#DejaVuSans-77"/>
     <use x="2053.359375" xlink:href="#DejaVuSans-32"/>
     <use x="2085.146484" xlink:href="#DejaVuSans-115"/>
     <use x="2137.246094" xlink:href="#DejaVuSans-99"/>
     <use x="2192.226562" xlink:href="#DejaVuSans-104"/>
     <use x="2255.605469" xlink:href="#DejaVuSans-97"/>
     <use x="2316.884766" xlink:href="#DejaVuSans-116"/>
     <use x="2356.09375" xlink:href="#DejaVuSans-116"/>
     <use x="2395.302734" xlink:href="#DejaVuSans-105"/>
     <use x="2423.085938" xlink:href="#DejaVuSans-110"/>
     <use x="2486.464844" xlink:href="#DejaVuSans-103"/>
     <use x="2549.941406" xlink:href="#DejaVuSans-44"/>
     <use x="2581.728516" xlink:href="#DejaVuSans-32"/>
     <use x="2613.515625" xlink:href="#DejaVuSans-50"/>
     <use x="2677.138672" xlink:href="#DejaVuSans-48"/>
     <use x="2740.761719" xlink:href="#DejaVuSans-50"/>
     <use x="2804.384766" xlink:href="#DejaVuSans-48"/>
     <use x="2868.007812" xlink:href="#DejaVuSans-45"/>
     <use x="2904.091797" xlink:href="#DejaVuSans-49"/>
     <use x="2967.714844" xlink:href="#DejaVuSans-49"/>
     <use x="3031.337891" xlink:href="#DejaVuSans-45"/>
     <use x="3067.421875" xlink:href="#DejaVuSans-51"/>
     <use x="3131.044922" xlink:href="#DejaVuSans-48"/>
     <use x="3194.667969" xlink:href="#DejaVuSans-32"/>
     <use x="3226.455078" xlink:href="#DejaVuSans-50"/>
     <use x="3290.078125" xlink:href="#DejaVuSans-51"/>
     <use x="3353.701172" xlink:href="#DejaVuSans-58"/>
     <use x="3387.392578" xlink:href="#DejaVuSans-50"/>
     <use x="3451.015625" xlink:href="#DejaVuSans-56"/>
    </g>
   </g>
   <g id="legend_2">
    <g id="patch_12">
     <path d="M 416.04375 51.478125 
L 648.2 51.478125 
Q 650.2 51.478125 650.2 49.478125 
L 650.2 35.8 
Q 650.2 33.8 648.2 33.8 
L 416.04375 33.8 
Q 414.04375 33.8 414.04375 35.8 
L 414.04375 49.478125 
Q 414.04375 51.478125 416.04375 51.478125 
z
" style="fill:#ffffff;opacity:0.8;stroke:#cccccc;stroke-linejoin:miter;"/>
    </g>
    <g id="line2d_64">
     <path d="M 418.04375 41.898438 
L 438.04375 41.898438 
" style="fill:none;stroke:#90ee90;stroke-linecap:square;stroke-width:1.5;"/>
    </g>
    <g id="line2d_65"/>
    <g id="text_33">
     <!-- Afwijking RNA t.o.v. RIVM schatting in % -->
     <g transform="translate(446.04375 45.398438)scale(0.1 -0.1)">
      <defs>
       <path d="M 72.703125 32.078125 
Q 68.453125 32.078125 66.03125 28.46875 
Q 63.625 24.859375 63.625 18.40625 
Q 63.625 12.0625 66.03125 8.421875 
Q 68.453125 4.78125 72.703125 4.78125 
Q 76.859375 4.78125 79.265625 8.421875 
Q 81.6875 12.0625 81.6875 18.40625 
Q 81.6875 24.8125 79.265625 28.4375 
Q 76.859375 32.078125 72.703125 32.078125 
z
M 72.703125 38.28125 
Q 80.421875 38.28125 84.953125 32.90625 
Q 89.5 27.546875 89.5 18.40625 
Q 89.5 9.28125 84.9375 3.921875 
Q 80.375 -1.421875 72.703125 -1.421875 
Q 64.890625 -1.421875 60.34375 3.921875 
Q 55.8125 9.28125 55.8125 18.40625 
Q 55.8125 27.59375 60.375 32.9375 
Q 64.9375 38.28125 72.703125 38.28125 
z
M 22.3125 68.015625 
Q 18.109375 68.015625 15.6875 64.375 
Q 13.28125 60.75 13.28125 54.390625 
Q 13.28125 47.953125 15.671875 44.328125 
Q 18.0625 40.71875 22.3125 40.71875 
Q 26.5625 40.71875 28.96875 44.328125 
Q 31.390625 47.953125 31.390625 54.390625 
Q 31.390625 60.6875 28.953125 64.34375 
Q 26.515625 68.015625 22.3125 68.015625 
z
M 66.40625 74.21875 
L 74.21875 74.21875 
L 28.609375 -1.421875 
L 20.796875 -1.421875 
z
M 22.3125 74.21875 
Q 30.03125 74.21875 34.609375 68.875 
Q 39.203125 63.53125 39.203125 54.390625 
Q 39.203125 45.171875 34.640625 39.84375 
Q 30.078125 34.515625 22.3125 34.515625 
Q 14.546875 34.515625 10.03125 39.859375 
Q 5.515625 45.21875 5.515625 54.390625 
Q 5.515625 63.484375 10.046875 68.84375 
Q 14.59375 74.21875 22.3125 74.21875 
z
" id="DejaVuSans-37"/>
      </defs>
      <use xlink:href="#DejaVuSans-65"/>
      <use x="64.783203" xlink:href="#DejaVuSans-102"/>
      <use x="98.238281" xlink:href="#DejaVuSans-119"/>
      <use x="180.025391" xlink:href="#DejaVuSans-105"/>
      <use x="207.808594" xlink:href="#DejaVuSans-106"/>
      <use x="235.591797" xlink:href="#DejaVuSans-107"/>
      <use x="293.501953" xlink:href="#DejaVuSans-105"/>
      <use x="321.285156" xlink:href="#DejaVuSans-110"/>
      <use x="384.664062" xlink:href="#DejaVuSans-103"/>
      <use x="448.140625" xlink:href="#DejaVuSans-32"/>
      <use x="479.927734" xlink:href="#DejaVuSans-82"/>
      <use x="549.410156" xlink:href="#DejaVuSans-78"/>
      <use x="624.214844" xlink:href="#DejaVuSans-65"/>
      <use x="692.623047" xlink:href="#DejaVuSans-32"/>
      <use x="724.410156" xlink:href="#DejaVuSans-116"/>
      <use x="763.619141" xlink:href="#DejaVuSans-46"/>
      <use x="795.40625" xlink:href="#DejaVuSans-111"/>
      <use x="854.837891" xlink:href="#DejaVuSans-46"/>
      <use x="886.625" xlink:href="#DejaVuSans-118"/>
      <use x="938.054688" xlink:href="#DejaVuSans-46"/>
      <use x="969.841797" xlink:href="#DejaVuSans-32"/>
      <use x="1001.628906" xlink:href="#DejaVuSans-82"/>
      <use x="1071.111328" xlink:href="#DejaVuSans-73"/>
      <use x="1100.603516" xlink:href="#DejaVuSans-86"/>
      <use x="1169.011719" xlink:href="#DejaVuSans-77"/>
      <use x="1255.291016" xlink:href="#DejaVuSans-32"/>
      <use x="1287.078125" xlink:href="#DejaVuSans-115"/>
      <use x="1339.177734" xlink:href="#DejaVuSans-99"/>
      <use x="1394.158203" xlink:href="#DejaVuSans-104"/>
      <use x="1457.537109" xlink:href="#DejaVuSans-97"/>
      <use x="1518.816406" xlink:href="#DejaVuSans-116"/>
      <use x="1558.025391" xlink:href="#DejaVuSans-116"/>
      <use x="1597.234375" xlink:href="#DejaVuSans-105"/>
      <use x="1625.017578" xlink:href="#DejaVuSans-110"/>
      <use x="1688.396484" xlink:href="#DejaVuSans-103"/>
      <use x="1751.873047" xlink:href="#DejaVuSans-32"/>
      <use x="1783.660156" xlink:href="#DejaVuSans-105"/>
      <use x="1811.443359" xlink:href="#DejaVuSans-110"/>
      <use x="1874.822266" xlink:href="#DejaVuSans-32"/>
      <use x="1906.609375" xlink:href="#DejaVuSans-37"/>
     </g>
    </g>
   </g>
  </g>
 </g>
 <defs>
  <clipPath id="p172b8e0319">
   <rect height="284.4" width="590.4" x="64.8" y="28.8"/>
  </clipPath>
 </defs>
</svg>
