<?xml version="1.0" encoding="utf-8" standalone="no"?>
<!DOCTYPE svg PUBLIC "-//W3C//DTD SVG 1.1//EN"
  "http://www.w3.org/Graphics/SVG/1.1/DTD/svg11.dtd">
<!-- Created with matplotlib (https://matplotlib.org/) -->
<svg height="360pt" version="1.1" viewBox="0 0 720 360" width="720pt" xmlns="http://www.w3.org/2000/svg" xmlns:xlink="http://www.w3.org/1999/xlink">
 <metadata>
  <rdf:RDF xmlns:cc="http://creativecommons.org/ns#" xmlns:dc="http://purl.org/dc/elements/1.1/" xmlns:rdf="http://www.w3.org/1999/02/22-rdf-syntax-ns#">
   <cc:Work>
    <dc:type rdf:resource="http://purl.org/dc/dcmitype/StillImage"/>
    <dc:date>2021-01-23T17:19:43.792455</dc:date>
    <dc:format>image/svg+xml</dc:format>
    <dc:creator>
     <cc:Agent>
      <dc:title>Matplotlib v3.3.2, https://matplotlib.org/</dc:title>
     </cc:Agent>
    </dc:creator>
   </cc:Work>
  </rdf:RDF>
 </metadata>
 <defs>
  <style type="text/css">*{stroke-linecap:butt;stroke-linejoin:round;}</style>
 </defs>
 <g id="figure_1">
  <g id="patch_1">
   <path d="M 0 360 
L 720 360 
L 720 0 
L 0 0 
z
" style="fill:#ffffff;"/>
  </g>
  <g id="axes_1">
   <g id="patch_2">
    <path d="M 90 320.4 
L 648 320.4 
L 648 43.2 
L 90 43.2 
z
" style="fill:#ffffff;"/>
   </g>
   <g id="matplotlib.axis_1">
    <g id="xtick_1">
     <g id="line2d_1">
      <path clip-path="url(#p0f223a4d05)" d="M 119.961274 320.4 
L 119.961274 43.2 
" style="fill:none;stroke:#808080;stroke-dasharray:6.4,1.6,1,1.6;stroke-dashoffset:0;stroke-opacity:0.3;"/>
     </g>
     <g id="line2d_2">
      <defs>
       <path d="M 0 0 
L 0 3.5 
" id="m26c43d3a5e" style="stroke:#000000;stroke-width:0.8;"/>
      </defs>
      <g>
       <use style="stroke:#000000;stroke-width:0.8;" x="119.961274" xlink:href="#m26c43d3a5e" y="320.4"/>
      </g>
     </g>
     <g id="text_1">
      <!-- 2020-03 -->
      <g transform="translate(99.069868 334.998438)scale(0.1 -0.1)">
       <defs>
        <path d="M 19.1875 8.296875 
L 53.609375 8.296875 
L 53.609375 0 
L 7.328125 0 
L 7.328125 8.296875 
Q 12.9375 14.109375 22.625 23.890625 
Q 32.328125 33.6875 34.8125 36.53125 
Q 39.546875 41.84375 41.421875 45.53125 
Q 43.3125 49.21875 43.3125 52.78125 
Q 43.3125 58.59375 39.234375 62.25 
Q 35.15625 65.921875 28.609375 65.921875 
Q 23.96875 65.921875 18.8125 64.3125 
Q 13.671875 62.703125 7.8125 59.421875 
L 7.8125 69.390625 
Q 13.765625 71.78125 18.9375 73 
Q 24.125 74.21875 28.421875 74.21875 
Q 39.75 74.21875 46.484375 68.546875 
Q 53.21875 62.890625 53.21875 53.421875 
Q 53.21875 48.921875 51.53125 44.890625 
Q 49.859375 40.875 45.40625 35.40625 
Q 44.1875 33.984375 37.640625 27.21875 
Q 31.109375 20.453125 19.1875 8.296875 
z
" id="DejaVuSans-50"/>
        <path d="M 31.78125 66.40625 
Q 24.171875 66.40625 20.328125 58.90625 
Q 16.5 51.421875 16.5 36.375 
Q 16.5 21.390625 20.328125 13.890625 
Q 24.171875 6.390625 31.78125 6.390625 
Q 39.453125 6.390625 43.28125 13.890625 
Q 47.125 21.390625 47.125 36.375 
Q 47.125 51.421875 43.28125 58.90625 
Q 39.453125 66.40625 31.78125 66.40625 
z
M 31.78125 74.21875 
Q 44.046875 74.21875 50.515625 64.515625 
Q 56.984375 54.828125 56.984375 36.375 
Q 56.984375 17.96875 50.515625 8.265625 
Q 44.046875 -1.421875 31.78125 -1.421875 
Q 19.53125 -1.421875 13.0625 8.265625 
Q 6.59375 17.96875 6.59375 36.375 
Q 6.59375 54.828125 13.0625 64.515625 
Q 19.53125 74.21875 31.78125 74.21875 
z
" id="DejaVuSans-48"/>
        <path d="M 4.890625 31.390625 
L 31.203125 31.390625 
L 31.203125 23.390625 
L 4.890625 23.390625 
z
" id="DejaVuSans-45"/>
        <path d="M 40.578125 39.3125 
Q 47.65625 37.796875 51.625 33 
Q 55.609375 28.21875 55.609375 21.1875 
Q 55.609375 10.40625 48.1875 4.484375 
Q 40.765625 -1.421875 27.09375 -1.421875 
Q 22.515625 -1.421875 17.65625 -0.515625 
Q 12.796875 0.390625 7.625 2.203125 
L 7.625 11.71875 
Q 11.71875 9.328125 16.59375 8.109375 
Q 21.484375 6.890625 26.8125 6.890625 
Q 36.078125 6.890625 40.9375 10.546875 
Q 45.796875 14.203125 45.796875 21.1875 
Q 45.796875 27.640625 41.28125 31.265625 
Q 36.765625 34.90625 28.71875 34.90625 
L 20.21875 34.90625 
L 20.21875 43.015625 
L 29.109375 43.015625 
Q 36.375 43.015625 40.234375 45.921875 
Q 44.09375 48.828125 44.09375 54.296875 
Q 44.09375 59.90625 40.109375 62.90625 
Q 36.140625 65.921875 28.71875 65.921875 
Q 24.65625 65.921875 20.015625 65.03125 
Q 15.375 64.15625 9.8125 62.3125 
L 9.8125 71.09375 
Q 15.4375 72.65625 20.34375 73.4375 
Q 25.25 74.21875 29.59375 74.21875 
Q 40.828125 74.21875 47.359375 69.109375 
Q 53.90625 64.015625 53.90625 55.328125 
Q 53.90625 49.265625 50.4375 45.09375 
Q 46.96875 40.921875 40.578125 39.3125 
z
" id="DejaVuSans-51"/>
       </defs>
       <use xlink:href="#DejaVuSans-50"/>
       <use x="63.623047" xlink:href="#DejaVuSans-48"/>
       <use x="127.246094" xlink:href="#DejaVuSans-50"/>
       <use x="190.869141" xlink:href="#DejaVuSans-48"/>
       <use x="254.492188" xlink:href="#DejaVuSans-45"/>
       <use x="290.576172" xlink:href="#DejaVuSans-48"/>
       <use x="354.199219" xlink:href="#DejaVuSans-51"/>
      </g>
     </g>
    </g>
    <g id="xtick_2">
     <g id="line2d_3">
      <path clip-path="url(#p0f223a4d05)" d="M 167.4702 320.4 
L 167.4702 43.2 
" style="fill:none;stroke:#808080;stroke-dasharray:6.4,1.6,1,1.6;stroke-dashoffset:0;stroke-opacity:0.3;"/>
     </g>
     <g id="line2d_4">
      <g>
       <use style="stroke:#000000;stroke-width:0.8;" x="167.4702" xlink:href="#m26c43d3a5e" y="320.4"/>
      </g>
     </g>
     <g id="text_2">
      <!-- 2020-04 -->
      <g transform="translate(146.578794 334.998438)scale(0.1 -0.1)">
       <defs>
        <path d="M 37.796875 64.3125 
L 12.890625 25.390625 
L 37.796875 25.390625 
z
M 35.203125 72.90625 
L 47.609375 72.90625 
L 47.609375 25.390625 
L 58.015625 25.390625 
L 58.015625 17.1875 
L 47.609375 17.1875 
L 47.609375 0 
L 37.796875 0 
L 37.796875 17.1875 
L 4.890625 17.1875 
L 4.890625 26.703125 
z
" id="DejaVuSans-52"/>
       </defs>
       <use xlink:href="#DejaVuSans-50"/>
       <use x="63.623047" xlink:href="#DejaVuSans-48"/>
       <use x="127.246094" xlink:href="#DejaVuSans-50"/>
       <use x="190.869141" xlink:href="#DejaVuSans-48"/>
       <use x="254.492188" xlink:href="#DejaVuSans-45"/>
       <use x="290.576172" xlink:href="#DejaVuSans-48"/>
       <use x="354.199219" xlink:href="#DejaVuSans-52"/>
      </g>
     </g>
    </g>
    <g id="xtick_3">
     <g id="line2d_5">
      <path clip-path="url(#p0f223a4d05)" d="M 213.446581 320.4 
L 213.446581 43.2 
" style="fill:none;stroke:#808080;stroke-dasharray:6.4,1.6,1,1.6;stroke-dashoffset:0;stroke-opacity:0.3;"/>
     </g>
     <g id="line2d_6">
      <g>
       <use style="stroke:#000000;stroke-width:0.8;" x="213.446581" xlink:href="#m26c43d3a5e" y="320.4"/>
      </g>
     </g>
     <g id="text_3">
      <!-- 2020-05 -->
      <g transform="translate(192.555174 334.998438)scale(0.1 -0.1)">
       <defs>
        <path d="M 10.796875 72.90625 
L 49.515625 72.90625 
L 49.515625 64.59375 
L 19.828125 64.59375 
L 19.828125 46.734375 
Q 21.96875 47.46875 24.109375 47.828125 
Q 26.265625 48.1875 28.421875 48.1875 
Q 40.625 48.1875 47.75 41.5 
Q 54.890625 34.8125 54.890625 23.390625 
Q 54.890625 11.625 47.5625 5.09375 
Q 40.234375 -1.421875 26.90625 -1.421875 
Q 22.3125 -1.421875 17.546875 -0.640625 
Q 12.796875 0.140625 7.71875 1.703125 
L 7.71875 11.625 
Q 12.109375 9.234375 16.796875 8.0625 
Q 21.484375 6.890625 26.703125 6.890625 
Q 35.15625 6.890625 40.078125 11.328125 
Q 45.015625 15.765625 45.015625 23.390625 
Q 45.015625 31 40.078125 35.4375 
Q 35.15625 39.890625 26.703125 39.890625 
Q 22.75 39.890625 18.8125 39.015625 
Q 14.890625 38.140625 10.796875 36.28125 
z
" id="DejaVuSans-53"/>
       </defs>
       <use xlink:href="#DejaVuSans-50"/>
       <use x="63.623047" xlink:href="#DejaVuSans-48"/>
       <use x="127.246094" xlink:href="#DejaVuSans-50"/>
       <use x="190.869141" xlink:href="#DejaVuSans-48"/>
       <use x="254.492188" xlink:href="#DejaVuSans-45"/>
       <use x="290.576172" xlink:href="#DejaVuSans-48"/>
       <use x="354.199219" xlink:href="#DejaVuSans-53"/>
      </g>
     </g>
    </g>
    <g id="xtick_4">
     <g id="line2d_7">
      <path clip-path="url(#p0f223a4d05)" d="M 260.955507 320.4 
L 260.955507 43.2 
" style="fill:none;stroke:#808080;stroke-dasharray:6.4,1.6,1,1.6;stroke-dashoffset:0;stroke-opacity:0.3;"/>
     </g>
     <g id="line2d_8">
      <g>
       <use style="stroke:#000000;stroke-width:0.8;" x="260.955507" xlink:href="#m26c43d3a5e" y="320.4"/>
      </g>
     </g>
     <g id="text_4">
      <!-- 2020-06 -->
      <g transform="translate(240.0641 334.998438)scale(0.1 -0.1)">
       <defs>
        <path d="M 33.015625 40.375 
Q 26.375 40.375 22.484375 35.828125 
Q 18.609375 31.296875 18.609375 23.390625 
Q 18.609375 15.53125 22.484375 10.953125 
Q 26.375 6.390625 33.015625 6.390625 
Q 39.65625 6.390625 43.53125 10.953125 
Q 47.40625 15.53125 47.40625 23.390625 
Q 47.40625 31.296875 43.53125 35.828125 
Q 39.65625 40.375 33.015625 40.375 
z
M 52.59375 71.296875 
L 52.59375 62.3125 
Q 48.875 64.0625 45.09375 64.984375 
Q 41.3125 65.921875 37.59375 65.921875 
Q 27.828125 65.921875 22.671875 59.328125 
Q 17.53125 52.734375 16.796875 39.40625 
Q 19.671875 43.65625 24.015625 45.921875 
Q 28.375 48.1875 33.59375 48.1875 
Q 44.578125 48.1875 50.953125 41.515625 
Q 57.328125 34.859375 57.328125 23.390625 
Q 57.328125 12.15625 50.6875 5.359375 
Q 44.046875 -1.421875 33.015625 -1.421875 
Q 20.359375 -1.421875 13.671875 8.265625 
Q 6.984375 17.96875 6.984375 36.375 
Q 6.984375 53.65625 15.1875 63.9375 
Q 23.390625 74.21875 37.203125 74.21875 
Q 40.921875 74.21875 44.703125 73.484375 
Q 48.484375 72.75 52.59375 71.296875 
z
" id="DejaVuSans-54"/>
       </defs>
       <use xlink:href="#DejaVuSans-50"/>
       <use x="63.623047" xlink:href="#DejaVuSans-48"/>
       <use x="127.246094" xlink:href="#DejaVuSans-50"/>
       <use x="190.869141" xlink:href="#DejaVuSans-48"/>
       <use x="254.492188" xlink:href="#DejaVuSans-45"/>
       <use x="290.576172" xlink:href="#DejaVuSans-48"/>
       <use x="354.199219" xlink:href="#DejaVuSans-54"/>
      </g>
     </g>
    </g>
    <g id="xtick_5">
     <g id="line2d_9">
      <path clip-path="url(#p0f223a4d05)" d="M 306.931887 320.4 
L 306.931887 43.2 
" style="fill:none;stroke:#808080;stroke-dasharray:6.4,1.6,1,1.6;stroke-dashoffset:0;stroke-opacity:0.3;"/>
     </g>
     <g id="line2d_10">
      <g>
       <use style="stroke:#000000;stroke-width:0.8;" x="306.931887" xlink:href="#m26c43d3a5e" y="320.4"/>
      </g>
     </g>
     <g id="text_5">
      <!-- 2020-07 -->
      <g transform="translate(286.040481 334.998438)scale(0.1 -0.1)">
       <defs>
        <path d="M 8.203125 72.90625 
L 55.078125 72.90625 
L 55.078125 68.703125 
L 28.609375 0 
L 18.3125 0 
L 43.21875 64.59375 
L 8.203125 64.59375 
z
" id="DejaVuSans-55"/>
       </defs>
       <use xlink:href="#DejaVuSans-50"/>
       <use x="63.623047" xlink:href="#DejaVuSans-48"/>
       <use x="127.246094" xlink:href="#DejaVuSans-50"/>
       <use x="190.869141" xlink:href="#DejaVuSans-48"/>
       <use x="254.492188" xlink:href="#DejaVuSans-45"/>
       <use x="290.576172" xlink:href="#DejaVuSans-48"/>
       <use x="354.199219" xlink:href="#DejaVuSans-55"/>
      </g>
     </g>
    </g>
    <g id="xtick_6">
     <g id="line2d_11">
      <path clip-path="url(#p0f223a4d05)" d="M 354.440813 320.4 
L 354.440813 43.2 
" style="fill:none;stroke:#808080;stroke-dasharray:6.4,1.6,1,1.6;stroke-dashoffset:0;stroke-opacity:0.3;"/>
     </g>
     <g id="line2d_12">
      <g>
       <use style="stroke:#000000;stroke-width:0.8;" x="354.440813" xlink:href="#m26c43d3a5e" y="320.4"/>
      </g>
     </g>
     <g id="text_6">
      <!-- 2020-08 -->
      <g transform="translate(333.549407 334.998438)scale(0.1 -0.1)">
       <defs>
        <path d="M 31.78125 34.625 
Q 24.75 34.625 20.71875 30.859375 
Q 16.703125 27.09375 16.703125 20.515625 
Q 16.703125 13.921875 20.71875 10.15625 
Q 24.75 6.390625 31.78125 6.390625 
Q 38.8125 6.390625 42.859375 10.171875 
Q 46.921875 13.96875 46.921875 20.515625 
Q 46.921875 27.09375 42.890625 30.859375 
Q 38.875 34.625 31.78125 34.625 
z
M 21.921875 38.8125 
Q 15.578125 40.375 12.03125 44.71875 
Q 8.5 49.078125 8.5 55.328125 
Q 8.5 64.0625 14.71875 69.140625 
Q 20.953125 74.21875 31.78125 74.21875 
Q 42.671875 74.21875 48.875 69.140625 
Q 55.078125 64.0625 55.078125 55.328125 
Q 55.078125 49.078125 51.53125 44.71875 
Q 48 40.375 41.703125 38.8125 
Q 48.828125 37.15625 52.796875 32.3125 
Q 56.78125 27.484375 56.78125 20.515625 
Q 56.78125 9.90625 50.3125 4.234375 
Q 43.84375 -1.421875 31.78125 -1.421875 
Q 19.734375 -1.421875 13.25 4.234375 
Q 6.78125 9.90625 6.78125 20.515625 
Q 6.78125 27.484375 10.78125 32.3125 
Q 14.796875 37.15625 21.921875 38.8125 
z
M 18.3125 54.390625 
Q 18.3125 48.734375 21.84375 45.5625 
Q 25.390625 42.390625 31.78125 42.390625 
Q 38.140625 42.390625 41.71875 45.5625 
Q 45.3125 48.734375 45.3125 54.390625 
Q 45.3125 60.0625 41.71875 63.234375 
Q 38.140625 66.40625 31.78125 66.40625 
Q 25.390625 66.40625 21.84375 63.234375 
Q 18.3125 60.0625 18.3125 54.390625 
z
" id="DejaVuSans-56"/>
       </defs>
       <use xlink:href="#DejaVuSans-50"/>
       <use x="63.623047" xlink:href="#DejaVuSans-48"/>
       <use x="127.246094" xlink:href="#DejaVuSans-50"/>
       <use x="190.869141" xlink:href="#DejaVuSans-48"/>
       <use x="254.492188" xlink:href="#DejaVuSans-45"/>
       <use x="290.576172" xlink:href="#DejaVuSans-48"/>
       <use x="354.199219" xlink:href="#DejaVuSans-56"/>
      </g>
     </g>
    </g>
    <g id="xtick_7">
     <g id="line2d_13">
      <path clip-path="url(#p0f223a4d05)" d="M 401.949739 320.4 
L 401.949739 43.2 
" style="fill:none;stroke:#808080;stroke-dasharray:6.4,1.6,1,1.6;stroke-dashoffset:0;stroke-opacity:0.3;"/>
     </g>
     <g id="line2d_14">
      <g>
       <use style="stroke:#000000;stroke-width:0.8;" x="401.949739" xlink:href="#m26c43d3a5e" y="320.4"/>
      </g>
     </g>
     <g id="text_7">
      <!-- 2020-09 -->
      <g transform="translate(381.058333 334.998438)scale(0.1 -0.1)">
       <defs>
        <path d="M 10.984375 1.515625 
L 10.984375 10.5 
Q 14.703125 8.734375 18.5 7.8125 
Q 22.3125 6.890625 25.984375 6.890625 
Q 35.75 6.890625 40.890625 13.453125 
Q 46.046875 20.015625 46.78125 33.40625 
Q 43.953125 29.203125 39.59375 26.953125 
Q 35.25 24.703125 29.984375 24.703125 
Q 19.046875 24.703125 12.671875 31.3125 
Q 6.296875 37.9375 6.296875 49.421875 
Q 6.296875 60.640625 12.9375 67.421875 
Q 19.578125 74.21875 30.609375 74.21875 
Q 43.265625 74.21875 49.921875 64.515625 
Q 56.59375 54.828125 56.59375 36.375 
Q 56.59375 19.140625 48.40625 8.859375 
Q 40.234375 -1.421875 26.421875 -1.421875 
Q 22.703125 -1.421875 18.890625 -0.6875 
Q 15.09375 0.046875 10.984375 1.515625 
z
M 30.609375 32.421875 
Q 37.25 32.421875 41.125 36.953125 
Q 45.015625 41.5 45.015625 49.421875 
Q 45.015625 57.28125 41.125 61.84375 
Q 37.25 66.40625 30.609375 66.40625 
Q 23.96875 66.40625 20.09375 61.84375 
Q 16.21875 57.28125 16.21875 49.421875 
Q 16.21875 41.5 20.09375 36.953125 
Q 23.96875 32.421875 30.609375 32.421875 
z
" id="DejaVuSans-57"/>
       </defs>
       <use xlink:href="#DejaVuSans-50"/>
       <use x="63.623047" xlink:href="#DejaVuSans-48"/>
       <use x="127.246094" xlink:href="#DejaVuSans-50"/>
       <use x="190.869141" xlink:href="#DejaVuSans-48"/>
       <use x="254.492188" xlink:href="#DejaVuSans-45"/>
       <use x="290.576172" xlink:href="#DejaVuSans-48"/>
       <use x="354.199219" xlink:href="#DejaVuSans-57"/>
      </g>
     </g>
    </g>
    <g id="xtick_8">
     <g id="line2d_15">
      <path clip-path="url(#p0f223a4d05)" d="M 447.926119 320.4 
L 447.926119 43.2 
" style="fill:none;stroke:#808080;stroke-dasharray:6.4,1.6,1,1.6;stroke-dashoffset:0;stroke-opacity:0.3;"/>
     </g>
     <g id="line2d_16">
      <g>
       <use style="stroke:#000000;stroke-width:0.8;" x="447.926119" xlink:href="#m26c43d3a5e" y="320.4"/>
      </g>
     </g>
     <g id="text_8">
      <!-- 2020-10 -->
      <g transform="translate(427.034713 334.998438)scale(0.1 -0.1)">
       <defs>
        <path d="M 12.40625 8.296875 
L 28.515625 8.296875 
L 28.515625 63.921875 
L 10.984375 60.40625 
L 10.984375 69.390625 
L 28.421875 72.90625 
L 38.28125 72.90625 
L 38.28125 8.296875 
L 54.390625 8.296875 
L 54.390625 0 
L 12.40625 0 
z
" id="DejaVuSans-49"/>
       </defs>
       <use xlink:href="#DejaVuSans-50"/>
       <use x="63.623047" xlink:href="#DejaVuSans-48"/>
       <use x="127.246094" xlink:href="#DejaVuSans-50"/>
       <use x="190.869141" xlink:href="#DejaVuSans-48"/>
       <use x="254.492188" xlink:href="#DejaVuSans-45"/>
       <use x="290.576172" xlink:href="#DejaVuSans-49"/>
       <use x="354.199219" xlink:href="#DejaVuSans-48"/>
      </g>
     </g>
    </g>
    <g id="xtick_9">
     <g id="line2d_17">
      <path clip-path="url(#p0f223a4d05)" d="M 495.435045 320.4 
L 495.435045 43.2 
" style="fill:none;stroke:#808080;stroke-dasharray:6.4,1.6,1,1.6;stroke-dashoffset:0;stroke-opacity:0.3;"/>
     </g>
     <g id="line2d_18">
      <g>
       <use style="stroke:#000000;stroke-width:0.8;" x="495.435045" xlink:href="#m26c43d3a5e" y="320.4"/>
      </g>
     </g>
     <g id="text_9">
      <!-- 2020-11 -->
      <g transform="translate(474.543639 334.998438)scale(0.1 -0.1)">
       <use xlink:href="#DejaVuSans-50"/>
       <use x="63.623047" xlink:href="#DejaVuSans-48"/>
       <use x="127.246094" xlink:href="#DejaVuSans-50"/>
       <use x="190.869141" xlink:href="#DejaVuSans-48"/>
       <use x="254.492188" xlink:href="#DejaVuSans-45"/>
       <use x="290.576172" xlink:href="#DejaVuSans-49"/>
       <use x="354.199219" xlink:href="#DejaVuSans-49"/>
      </g>
     </g>
    </g>
    <g id="xtick_10">
     <g id="line2d_19">
      <path clip-path="url(#p0f223a4d05)" d="M 541.411425 320.4 
L 541.411425 43.2 
" style="fill:none;stroke:#808080;stroke-dasharray:6.4,1.6,1,1.6;stroke-dashoffset:0;stroke-opacity:0.3;"/>
     </g>
     <g id="line2d_20">
      <g>
       <use style="stroke:#000000;stroke-width:0.8;" x="541.411425" xlink:href="#m26c43d3a5e" y="320.4"/>
      </g>
     </g>
     <g id="text_10">
      <!-- 2020-12 -->
      <g transform="translate(520.520019 334.998438)scale(0.1 -0.1)">
       <use xlink:href="#DejaVuSans-50"/>
       <use x="63.623047" xlink:href="#DejaVuSans-48"/>
       <use x="127.246094" xlink:href="#DejaVuSans-50"/>
       <use x="190.869141" xlink:href="#DejaVuSans-48"/>
       <use x="254.492188" xlink:href="#DejaVuSans-45"/>
       <use x="290.576172" xlink:href="#DejaVuSans-49"/>
       <use x="354.199219" xlink:href="#DejaVuSans-50"/>
      </g>
     </g>
    </g>
    <g id="xtick_11">
     <g id="line2d_21">
      <path clip-path="url(#p0f223a4d05)" d="M 588.920352 320.4 
L 588.920352 43.2 
" style="fill:none;stroke:#808080;stroke-dasharray:6.4,1.6,1,1.6;stroke-dashoffset:0;stroke-opacity:0.3;"/>
     </g>
     <g id="line2d_22">
      <g>
       <use style="stroke:#000000;stroke-width:0.8;" x="588.920352" xlink:href="#m26c43d3a5e" y="320.4"/>
      </g>
     </g>
     <g id="text_11">
      <!-- 2021-01 -->
      <g transform="translate(568.028945 334.998438)scale(0.1 -0.1)">
       <use xlink:href="#DejaVuSans-50"/>
       <use x="63.623047" xlink:href="#DejaVuSans-48"/>
       <use x="127.246094" xlink:href="#DejaVuSans-50"/>
       <use x="190.869141" xlink:href="#DejaVuSans-49"/>
       <use x="254.492188" xlink:href="#DejaVuSans-45"/>
       <use x="290.576172" xlink:href="#DejaVuSans-48"/>
       <use x="354.199219" xlink:href="#DejaVuSans-49"/>
      </g>
     </g>
    </g>
    <g id="xtick_12">
     <g id="line2d_23">
      <path clip-path="url(#p0f223a4d05)" d="M 636.429278 320.4 
L 636.429278 43.2 
" style="fill:none;stroke:#808080;stroke-dasharray:6.4,1.6,1,1.6;stroke-dashoffset:0;stroke-opacity:0.3;"/>
     </g>
     <g id="line2d_24">
      <g>
       <use style="stroke:#000000;stroke-width:0.8;" x="636.429278" xlink:href="#m26c43d3a5e" y="320.4"/>
      </g>
     </g>
     <g id="text_12">
      <!-- 2021-02 -->
      <g transform="translate(615.537871 334.998438)scale(0.1 -0.1)">
       <use xlink:href="#DejaVuSans-50"/>
       <use x="63.623047" xlink:href="#DejaVuSans-48"/>
       <use x="127.246094" xlink:href="#DejaVuSans-50"/>
       <use x="190.869141" xlink:href="#DejaVuSans-49"/>
       <use x="254.492188" xlink:href="#DejaVuSans-45"/>
       <use x="290.576172" xlink:href="#DejaVuSans-48"/>
       <use x="354.199219" xlink:href="#DejaVuSans-50"/>
      </g>
     </g>
    </g>
    <g id="text_13">
     <!-- Datum -->
     <g transform="translate(352.086719 348.676562)scale(0.1 -0.1)">
      <defs>
       <path d="M 19.671875 64.796875 
L 19.671875 8.109375 
L 31.59375 8.109375 
Q 46.6875 8.109375 53.6875 14.9375 
Q 60.6875 21.78125 60.6875 36.53125 
Q 60.6875 51.171875 53.6875 57.984375 
Q 46.6875 64.796875 31.59375 64.796875 
z
M 9.8125 72.90625 
L 30.078125 72.90625 
Q 51.265625 72.90625 61.171875 64.09375 
Q 71.09375 55.28125 71.09375 36.53125 
Q 71.09375 17.671875 61.125 8.828125 
Q 51.171875 0 30.078125 0 
L 9.8125 0 
z
" id="DejaVuSans-68"/>
       <path d="M 34.28125 27.484375 
Q 23.390625 27.484375 19.1875 25 
Q 14.984375 22.515625 14.984375 16.5 
Q 14.984375 11.71875 18.140625 8.90625 
Q 21.296875 6.109375 26.703125 6.109375 
Q 34.1875 6.109375 38.703125 11.40625 
Q 43.21875 16.703125 43.21875 25.484375 
L 43.21875 27.484375 
z
M 52.203125 31.203125 
L 52.203125 0 
L 43.21875 0 
L 43.21875 8.296875 
Q 40.140625 3.328125 35.546875 0.953125 
Q 30.953125 -1.421875 24.3125 -1.421875 
Q 15.921875 -1.421875 10.953125 3.296875 
Q 6 8.015625 6 15.921875 
Q 6 25.140625 12.171875 29.828125 
Q 18.359375 34.515625 30.609375 34.515625 
L 43.21875 34.515625 
L 43.21875 35.40625 
Q 43.21875 41.609375 39.140625 45 
Q 35.0625 48.390625 27.6875 48.390625 
Q 23 48.390625 18.546875 47.265625 
Q 14.109375 46.140625 10.015625 43.890625 
L 10.015625 52.203125 
Q 14.9375 54.109375 19.578125 55.046875 
Q 24.21875 56 28.609375 56 
Q 40.484375 56 46.34375 49.84375 
Q 52.203125 43.703125 52.203125 31.203125 
z
" id="DejaVuSans-97"/>
       <path d="M 18.3125 70.21875 
L 18.3125 54.6875 
L 36.8125 54.6875 
L 36.8125 47.703125 
L 18.3125 47.703125 
L 18.3125 18.015625 
Q 18.3125 11.328125 20.140625 9.421875 
Q 21.96875 7.515625 27.59375 7.515625 
L 36.8125 7.515625 
L 36.8125 0 
L 27.59375 0 
Q 17.1875 0 13.234375 3.875 
Q 9.28125 7.765625 9.28125 18.015625 
L 9.28125 47.703125 
L 2.6875 47.703125 
L 2.6875 54.6875 
L 9.28125 54.6875 
L 9.28125 70.21875 
z
" id="DejaVuSans-116"/>
       <path d="M 8.5 21.578125 
L 8.5 54.6875 
L 17.484375 54.6875 
L 17.484375 21.921875 
Q 17.484375 14.15625 20.5 10.265625 
Q 23.53125 6.390625 29.59375 6.390625 
Q 36.859375 6.390625 41.078125 11.03125 
Q 45.3125 15.671875 45.3125 23.6875 
L 45.3125 54.6875 
L 54.296875 54.6875 
L 54.296875 0 
L 45.3125 0 
L 45.3125 8.40625 
Q 42.046875 3.421875 37.71875 1 
Q 33.40625 -1.421875 27.6875 -1.421875 
Q 18.265625 -1.421875 13.375 4.4375 
Q 8.5 10.296875 8.5 21.578125 
z
M 31.109375 56 
z
" id="DejaVuSans-117"/>
       <path d="M 52 44.1875 
Q 55.375 50.25 60.0625 53.125 
Q 64.75 56 71.09375 56 
Q 79.640625 56 84.28125 50.015625 
Q 88.921875 44.046875 88.921875 33.015625 
L 88.921875 0 
L 79.890625 0 
L 79.890625 32.71875 
Q 79.890625 40.578125 77.09375 44.375 
Q 74.3125 48.1875 68.609375 48.1875 
Q 61.625 48.1875 57.5625 43.546875 
Q 53.515625 38.921875 53.515625 30.90625 
L 53.515625 0 
L 44.484375 0 
L 44.484375 32.71875 
Q 44.484375 40.625 41.703125 44.40625 
Q 38.921875 48.1875 33.109375 48.1875 
Q 26.21875 48.1875 22.15625 43.53125 
Q 18.109375 38.875 18.109375 30.90625 
L 18.109375 0 
L 9.078125 0 
L 9.078125 54.6875 
L 18.109375 54.6875 
L 18.109375 46.1875 
Q 21.1875 51.21875 25.484375 53.609375 
Q 29.78125 56 35.6875 56 
Q 41.65625 56 45.828125 52.96875 
Q 50 49.953125 52 44.1875 
z
" id="DejaVuSans-109"/>
      </defs>
      <use xlink:href="#DejaVuSans-68"/>
      <use x="77.001953" xlink:href="#DejaVuSans-97"/>
      <use x="138.28125" xlink:href="#DejaVuSans-116"/>
      <use x="177.490234" xlink:href="#DejaVuSans-117"/>
      <use x="240.869141" xlink:href="#DejaVuSans-109"/>
     </g>
    </g>
   </g>
   <g id="matplotlib.axis_2">
    <g id="ytick_1">
     <g id="line2d_25">
      <path clip-path="url(#p0f223a4d05)" d="M 90 309.150689 
L 648 309.150689 
" style="fill:none;stroke:#808080;stroke-dasharray:6.4,1.6,1,1.6;stroke-dashoffset:0;stroke-opacity:0.3;"/>
     </g>
     <g id="line2d_26">
      <defs>
       <path d="M 0 0 
L -3.5 0 
" id="m223741588a" style="stroke:#000000;stroke-width:0.8;"/>
      </defs>
      <g>
       <use style="stroke:#000000;stroke-width:0.8;" x="90" xlink:href="#m223741588a" y="309.150689"/>
      </g>
     </g>
     <g id="text_14">
      <!-- 0 -->
      <g transform="translate(76.6375 312.949908)scale(0.1 -0.1)">
       <use xlink:href="#DejaVuSans-48"/>
      </g>
     </g>
    </g>
    <g id="ytick_2">
     <g id="line2d_27">
      <path clip-path="url(#p0f223a4d05)" d="M 90 260.911792 
L 648 260.911792 
" style="fill:none;stroke:#808080;stroke-dasharray:6.4,1.6,1,1.6;stroke-dashoffset:0;stroke-opacity:0.3;"/>
     </g>
     <g id="line2d_28">
      <g>
       <use style="stroke:#000000;stroke-width:0.8;" x="90" xlink:href="#m223741588a" y="260.911792"/>
      </g>
     </g>
     <g id="text_15">
      <!-- 500 -->
      <g transform="translate(63.9125 264.71101)scale(0.1 -0.1)">
       <use xlink:href="#DejaVuSans-53"/>
       <use x="63.623047" xlink:href="#DejaVuSans-48"/>
       <use x="127.246094" xlink:href="#DejaVuSans-48"/>
      </g>
     </g>
    </g>
    <g id="ytick_3">
     <g id="line2d_29">
      <path clip-path="url(#p0f223a4d05)" d="M 90 212.672894 
L 648 212.672894 
" style="fill:none;stroke:#808080;stroke-dasharray:6.4,1.6,1,1.6;stroke-dashoffset:0;stroke-opacity:0.3;"/>
     </g>
     <g id="line2d_30">
      <g>
       <use style="stroke:#000000;stroke-width:0.8;" x="90" xlink:href="#m223741588a" y="212.672894"/>
      </g>
     </g>
     <g id="text_16">
      <!-- 1000 -->
      <g transform="translate(57.55 216.472113)scale(0.1 -0.1)">
       <use xlink:href="#DejaVuSans-49"/>
       <use x="63.623047" xlink:href="#DejaVuSans-48"/>
       <use x="127.246094" xlink:href="#DejaVuSans-48"/>
       <use x="190.869141" xlink:href="#DejaVuSans-48"/>
      </g>
     </g>
    </g>
    <g id="ytick_4">
     <g id="line2d_31">
      <path clip-path="url(#p0f223a4d05)" d="M 90 164.433997 
L 648 164.433997 
" style="fill:none;stroke:#808080;stroke-dasharray:6.4,1.6,1,1.6;stroke-dashoffset:0;stroke-opacity:0.3;"/>
     </g>
     <g id="line2d_32">
      <g>
       <use style="stroke:#000000;stroke-width:0.8;" x="90" xlink:href="#m223741588a" y="164.433997"/>
      </g>
     </g>
     <g id="text_17">
      <!-- 1500 -->
      <g transform="translate(57.55 168.233216)scale(0.1 -0.1)">
       <use xlink:href="#DejaVuSans-49"/>
       <use x="63.623047" xlink:href="#DejaVuSans-53"/>
       <use x="127.246094" xlink:href="#DejaVuSans-48"/>
       <use x="190.869141" xlink:href="#DejaVuSans-48"/>
      </g>
     </g>
    </g>
    <g id="ytick_5">
     <g id="line2d_33">
      <path clip-path="url(#p0f223a4d05)" d="M 90 116.1951 
L 648 116.1951 
" style="fill:none;stroke:#808080;stroke-dasharray:6.4,1.6,1,1.6;stroke-dashoffset:0;stroke-opacity:0.3;"/>
     </g>
     <g id="line2d_34">
      <g>
       <use style="stroke:#000000;stroke-width:0.8;" x="90" xlink:href="#m223741588a" y="116.1951"/>
      </g>
     </g>
     <g id="text_18">
      <!-- 2000 -->
      <g transform="translate(57.55 119.994318)scale(0.1 -0.1)">
       <use xlink:href="#DejaVuSans-50"/>
       <use x="63.623047" xlink:href="#DejaVuSans-48"/>
       <use x="127.246094" xlink:href="#DejaVuSans-48"/>
       <use x="190.869141" xlink:href="#DejaVuSans-48"/>
      </g>
     </g>
    </g>
    <g id="ytick_6">
     <g id="line2d_35">
      <path clip-path="url(#p0f223a4d05)" d="M 90 67.956202 
L 648 67.956202 
" style="fill:none;stroke:#808080;stroke-dasharray:6.4,1.6,1,1.6;stroke-dashoffset:0;stroke-opacity:0.3;"/>
     </g>
     <g id="line2d_36">
      <g>
       <use style="stroke:#000000;stroke-width:0.8;" x="90" xlink:href="#m223741588a" y="67.956202"/>
      </g>
     </g>
     <g id="text_19">
      <!-- 2500 -->
      <g transform="translate(57.55 71.755421)scale(0.1 -0.1)">
       <use xlink:href="#DejaVuSans-50"/>
       <use x="63.623047" xlink:href="#DejaVuSans-53"/>
       <use x="127.246094" xlink:href="#DejaVuSans-48"/>
       <use x="190.869141" xlink:href="#DejaVuSans-48"/>
      </g>
     </g>
    </g>
   </g>
   <g id="line2d_37">
    <path clip-path="url(#p0f223a4d05)" d="M 115.363636 303.169066 
L 116.896182 302.879632 
L 118.428728 302.879632 
L 119.961274 302.10781 
L 121.49382 301.046554 
L 123.026366 300.37121 
L 124.558912 299.213476 
L 126.091458 298.248698 
L 127.624004 296.801531 
L 129.15655 295.933231 
L 130.689096 294.196631 
L 133.754188 289.565697 
L 135.286734 285.996018 
L 136.81928 281.750995 
L 138.351826 275.286983 
L 139.884372 271.427871 
L 141.416918 266.700459 
L 142.949464 254.061868 
L 144.48201 245.764778 
L 146.014556 233.898009 
L 147.547102 214.505972 
L 149.079648 197.429403 
L 150.612194 189.421746 
L 152.14474 179.291577 
L 153.677286 148.515161 
L 155.209832 124.202757 
L 156.742378 103.556508 
L 158.274924 84.743338 
L 159.80747 59.369678 
L 161.340016 65.544257 
L 162.872562 69.982236 
L 164.405108 55.8 
L 165.937654 62.553446 
L 167.4702 71.815314 
L 169.002746 73.74487 
L 170.535293 73.455436 
L 172.067839 93.42634 
L 173.600385 98.153752 
L 175.132931 86.86585 
L 178.198023 113.204288 
L 179.730569 129.991424 
L 181.263115 138.48147 
L 182.795661 156.715773 
L 184.328207 162.215008 
L 185.860753 162.890352 
L 187.393299 161.443185 
L 188.925845 169.933231 
L 190.458391 180.738744 
L 191.990937 184.983767 
L 193.523483 198.973047 
L 195.056029 201.288515 
L 196.588575 197.332925 
L 198.121121 201.867381 
L 199.653667 209.77856 
L 201.186213 213.73415 
L 202.718759 218.943951 
L 204.251305 230.907198 
L 205.783851 233.608576 
L 207.316397 235.055743 
L 208.848943 233.41562 
L 210.381489 239.204288 
L 211.914035 241.519755 
L 213.446581 246.826034 
L 214.979127 254.930168 
L 216.511673 256.473813 
L 218.044219 251.842879 
L 219.576765 258.403369 
L 221.109311 256.956202 
L 222.641857 259.271669 
L 224.174403 259.464625 
L 225.706949 264.192037 
L 227.239495 265.639204 
L 228.772041 262.74487 
L 230.304587 264.867381 
L 231.837133 266.411026 
L 233.369679 269.498315 
L 234.902225 271.427871 
L 236.434771 275.962328 
L 237.967317 274.708116 
L 239.499863 270.752527 
L 241.032409 272.77856 
L 242.564955 273.936294 
L 244.097501 277.988361 
L 245.630047 275.286983 
L 247.162593 279.532006 
L 248.695139 280.303828 
L 250.227685 276.927106 
L 251.760231 277.698928 
L 253.292777 280.593262 
L 254.825323 282.619296 
L 256.357869 282.329862 
L 257.890415 284.355896 
L 259.422961 285.127718 
L 260.955507 284.645329 
L 262.488053 282.522818 
L 264.020599 283.391118 
L 265.553145 284.838285 
L 267.085691 286.574885 
L 268.618237 290.241041 
L 270.150783 290.433997 
L 271.683329 290.337519 
L 273.215875 292.363553 
L 274.748421 293.907198 
L 276.280967 293.328331 
L 277.813513 294.100153 
L 279.346059 296.029709 
L 280.878605 296.126187 
L 282.411151 295.836753 
L 283.943697 295.933231 
L 285.476243 296.705054 
L 287.008789 296.512098 
L 288.541335 296.801531 
L 290.073881 298.731087 
L 291.606427 298.634609 
L 293.138973 298.248698 
L 294.671519 298.248698 
L 296.204065 298.441654 
L 297.736611 297.669832 
L 299.269157 298.055743 
L 300.801703 300.081776 
L 302.334249 299.888821 
L 303.866795 298.827565 
L 305.399341 300.274732 
L 306.931887 300.660643 
L 308.464433 301.23951 
L 309.996979 301.143032 
L 311.529525 302.10781 
L 316.127163 301.046554 
L 319.192255 300.757121 
L 320.724801 299.985299 
L 322.257347 301.046554 
L 323.789893 300.950077 
L 325.322439 300.274732 
L 326.854985 300.081776 
L 328.387531 300.950077 
L 329.920077 301.335988 
L 331.452623 301.432466 
L 336.050261 300.178254 
L 337.582807 300.081776 
L 339.115353 301.23951 
L 340.647899 300.564165 
L 342.180445 300.950077 
L 343.712991 300.950077 
L 345.245537 300.757121 
L 346.778083 299.985299 
L 348.310629 299.599387 
L 349.843175 300.467688 
L 352.908267 299.792343 
L 354.440813 299.599387 
L 355.973359 298.827565 
L 357.505905 297.766309 
L 359.038451 298.345176 
L 360.570997 298.731087 
L 362.103543 298.731087 
L 365.168635 297.573354 
L 366.701181 296.512098 
L 368.233727 295.643798 
L 369.766273 293.81072 
L 371.298819 293.231853 
L 372.831365 293.231853 
L 375.896457 293.714242 
L 377.429003 292.94242 
L 378.961549 291.205819 
L 380.494095 292.074119 
L 382.026641 291.977642 
L 383.559187 290.916386 
L 385.091733 291.398775 
L 386.624279 293.424809 
L 388.156825 293.231853 
L 389.689371 292.749464 
L 391.221917 292.074119 
L 392.754463 293.135375 
L 394.287009 294.775498 
L 395.819555 294.486064 
L 397.352101 296.222665 
L 398.884647 296.126187 
L 400.417193 294.67902 
L 401.949739 294.775498 
L 403.482285 294.196631 
L 405.014831 294.871975 
L 406.547377 294.003675 
L 408.079923 294.100153 
L 409.612469 292.267075 
L 411.145015 290.241041 
L 412.677561 288.98683 
L 414.210107 287.057274 
L 415.742653 287.443185 
L 417.275199 285.513629 
L 418.807745 285.706585 
L 420.340291 284.452374 
L 421.872837 280.593262 
L 423.405383 279.724962 
L 424.937929 277.023583 
L 426.470475 275.190505 
L 428.003021 271.813783 
L 429.535567 269.787749 
L 431.068113 267.954671 
L 432.600659 263.130781 
L 434.133205 260.043492 
L 435.665751 256.473813 
L 437.198297 251.746401 
L 438.730843 249.045023 
L 440.263389 249.334456 
L 441.795935 245.861256 
L 443.328481 240.84441 
L 444.861027 237.178254 
L 446.393573 235.441654 
L 447.926119 232.643798 
L 449.458665 230.328331 
L 450.991211 228.59173 
L 452.523757 224.636141 
L 454.056303 214.795406 
L 455.588849 210.164472 
L 457.121395 208.234916 
L 458.653941 206.112404 
L 460.186487 198.780092 
L 461.719033 200.516692 
L 463.251579 195.113936 
L 464.784125 180.738744 
L 466.316671 170.994487 
L 467.849217 171.476876 
L 469.381763 168.67902 
L 470.914309 163.469219 
L 472.446855 164.530475 
L 473.979401 161.636141 
L 475.511947 146.682083 
L 477.044493 140.893415 
L 478.577039 137.902603 
L 480.109585 131.438591 
L 481.642131 123.62389 
L 483.174677 130.666769 
L 484.707223 123.720368 
L 486.239769 108.187443 
L 487.772315 107.319142 
L 489.304861 108.862787 
L 490.837407 111.757121 
L 492.369953 109.538132 
L 493.902499 116.581011 
L 495.435045 114.554977 
L 496.967591 93.908729 
L 498.500137 99.022052 
L 500.032683 104.907198 
L 503.097775 119.764778 
L 504.630321 133.850536 
L 506.162867 135.297703 
L 507.695413 121.694334 
L 509.227959 127.483002 
L 512.293051 136.358959 
L 513.825597 138.384992 
L 515.358143 151.023583 
L 516.890689 151.60245 
L 518.423235 137.420214 
L 519.955781 139.928637 
L 521.488327 145.524349 
L 523.020873 151.795406 
L 524.553419 160.188974 
L 526.085965 169.54732 
L 527.618511 166.363553 
L 529.151057 153.82144 
L 530.683603 158.16294 
L 532.216149 165.109342 
L 533.748695 164.337519 
L 535.281241 165.59173 
L 536.813787 174.950077 
L 538.346333 174.274732 
L 539.878879 165.881164 
L 541.411425 170.126187 
L 542.943971 173.309954 
L 544.476517 172.731087 
L 546.009063 169.836753 
L 547.541609 174.467688 
L 549.074155 170.608576 
L 550.606701 159.996018 
L 553.671793 162.98683 
L 555.204339 162.890352 
L 556.736885 155.654518 
L 558.269431 157.873507 
L 559.801977 152.856662 
L 561.334523 136.648392 
L 562.867069 137.420214 
L 564.399615 134.525881 
L 567.464707 125.264012 
L 568.997254 134.332925 
L 570.5298 133.175191 
L 572.062346 115.133844 
L 573.594892 113.10781 
L 576.659984 107.994487 
L 578.19253 117.545789 
L 579.725076 113.204288 
L 581.257622 104.424809 
L 582.790168 77.411026 
L 584.322714 78.279326 
L 585.85526 82.138438 
L 587.387806 89.567228 
L 588.920352 103.845942 
L 590.452898 98.443185 
L 591.985444 95.452374 
L 593.51799 83.77856 
L 595.050536 86.286983 
L 596.583082 91.496784 
L 599.648174 100.083308 
L 601.18072 115.423277 
L 602.713266 115.133844 
L 604.245812 101.916386 
L 608.84345 117.642266 
L 610.375996 118.992956 
L 611.908542 129.509035 
L 613.441088 133.561103 
L 614.973634 120.729556 
L 616.50618 120.633078 
L 618.038726 125.746401 
L 619.571272 126.22879 
L 621.103818 128.737213 
L 622.636364 141.279326 
L 622.636364 141.279326 
" style="fill:none;stroke:#ff0000;stroke-linecap:square;stroke-width:1.5;"/>
   </g>
   <g id="line2d_38">
    <path clip-path="url(#p0f223a4d05)" d="M 260.955507 256.859724 
L 262.488053 259.368147 
L 264.020599 261.297703 
L 265.553145 262.74487 
L 268.618237 265.156815 
L 270.150783 266.411026 
L 271.683329 270.559571 
L 273.215875 275.769372 
L 274.748421 277.023583 
L 276.280967 280.496784 
L 277.813513 282.233384 
L 279.346059 281.268606 
L 280.878605 282.42634 
L 282.411151 282.040429 
L 283.943697 282.136907 
L 285.476243 281.268606 
L 288.541335 286.478407 
L 290.073881 287.925574 
L 291.606427 287.829096 
L 293.138973 290.433997 
L 294.671519 288.793874 
L 296.204065 290.144564 
L 297.736611 291.977642 
L 299.269157 290.819908 
L 300.801703 291.784686 
L 302.334249 291.977642 
L 303.866795 294.003675 
L 305.399341 293.714242 
L 306.931887 294.67902 
L 308.464433 297.090965 
L 309.996979 299.213476 
L 311.529525 301.914855 
L 313.062071 300.757121 
L 314.594617 301.335988 
L 316.127163 301.528943 
L 319.192255 302.397243 
L 320.724801 302.493721 
L 322.257347 301.721899 
L 323.789893 301.143032 
L 325.322439 300.081776 
L 326.854985 300.081776 
L 328.387531 300.950077 
L 329.920077 301.432466 
L 331.452623 302.10781 
L 332.985169 301.625421 
L 334.517715 302.10781 
L 337.582807 300.467688 
L 339.115353 300.950077 
L 340.647899 300.37121 
L 342.180445 302.011332 
L 343.712991 300.37121 
L 345.245537 302.686677 
L 346.778083 302.397243 
L 348.310629 301.721899 
L 349.843175 303.072588 
L 351.375721 302.783155 
L 352.908267 302.10781 
L 354.440813 302.686677 
L 355.973359 302.397243 
L 357.505905 301.23951 
L 359.038451 301.143032 
L 360.570997 300.660643 
L 362.103543 301.528943 
L 363.636089 301.625421 
L 365.168635 301.528943 
L 366.701181 300.757121 
L 368.233727 299.599387 
L 369.766273 299.792343 
L 371.298819 297.862787 
L 372.831365 296.898009 
L 374.363911 297.573354 
L 375.896457 297.187443 
L 377.429003 297.380398 
L 380.494095 296.705054 
L 382.026641 297.090965 
L 383.559187 295.836753 
L 385.091733 296.319142 
L 388.156825 296.705054 
L 389.689371 297.476876 
L 392.754463 297.573354 
L 394.287009 298.827565 
L 395.819555 299.50291 
L 397.352101 299.888821 
L 398.884647 300.081776 
L 401.949739 300.178254 
L 403.482285 300.467688 
L 405.014831 299.985299 
L 406.547377 299.985299 
L 408.079923 299.599387 
L 409.612469 299.020521 
L 411.145015 298.634609 
L 417.275199 296.029709 
L 418.807745 295.836753 
L 420.340291 294.871975 
L 421.872837 293.135375 
L 423.405383 291.109342 
L 424.937929 290.72343 
L 426.470475 288.697397 
L 428.003021 286.960796 
L 429.535567 284.066462 
L 431.068113 282.522818 
L 432.600659 277.795406 
L 434.133205 277.409495 
L 435.665751 273.357427 
L 437.198297 271.04196 
L 438.730843 267.56876 
L 440.263389 267.375804 
L 441.795935 261.87657 
L 443.328481 259.175191 
L 444.861027 255.991424 
L 446.393573 255.991424 
L 447.926119 257.149158 
L 449.458665 253.868913 
L 450.991211 252.711179 
L 452.523757 246.729556 
L 455.588849 233.41562 
L 457.121395 230.907198 
L 458.653941 227.916386 
L 461.719033 217.014395 
L 463.251579 214.023583 
L 464.784125 208.234916 
L 466.316671 199.841348 
L 469.381763 192.123124 
L 470.914309 192.605513 
L 472.446855 191.833691 
L 475.511947 178.037366 
L 477.044493 170.222665 
L 478.577039 165.109342 
L 480.109585 160.574885 
L 481.642131 154.68974 
L 483.174677 153.435528 
L 484.707223 149.286983 
L 487.772315 132.692802 
L 489.304861 132.499847 
L 490.837407 132.499847 
L 492.369953 133.754058 
L 496.967591 120.247167 
L 498.500137 111.950077 
L 500.032683 120.054211 
L 501.565229 125.36049 
L 504.630321 137.227259 
L 506.162867 145.427871 
L 507.695413 143.498315 
L 509.227959 145.427871 
L 510.760505 147.936294 
L 512.293051 154.207351 
L 513.825597 157.487596 
L 515.358143 161.539663 
L 516.890689 163.565697 
L 518.423235 158.934763 
L 519.955781 157.680551 
L 521.488327 161.732619 
L 523.020873 166.845942 
L 526.085965 178.712711 
L 529.151057 170.994487 
L 530.683603 174.178254 
L 532.216149 182.764778 
L 533.748695 187.878101 
L 535.281241 188.456968 
L 536.813787 193.377335 
L 538.346333 193.956202 
L 539.878879 189.518224 
L 541.411425 192.894946 
L 542.943971 200.034303 
L 544.476517 199.455436 
L 546.009063 198.00827 
L 547.541609 200.130781 
L 549.074155 196.078714 
L 550.606701 194.342113 
L 552.139247 189.904135 
L 553.671793 192.31608 
L 555.204339 195.403369 
L 556.736885 192.509035 
L 558.269431 189.325268 
L 559.801977 186.62389 
L 561.334523 177.072588 
L 562.867069 171.187443 
L 564.399615 170.41562 
L 565.932161 167.617764 
L 567.464707 165.881164 
L 568.997254 163.951608 
L 570.5298 161.25023 
L 572.062346 157.101685 
L 573.594892 144.849005 
L 575.127438 146.489127 
L 576.659984 143.980704 
L 578.19253 144.752527 
L 579.725076 141.858193 
L 581.257622 135.780092 
L 582.790168 123.720368 
L 584.322714 108.766309 
L 585.85526 116.002144 
L 587.387806 106.161409 
L 588.920352 120.343645 
L 590.452898 115.712711 
L 591.985444 115.616233 
L 593.51799 103.652986 
L 595.050536 100.85513 
L 596.583082 103.556508 
L 598.115628 111.178254 
L 599.648174 122.369678 
L 601.18072 128.351302 
L 602.713266 130.666769 
L 604.245812 123.334456 
L 605.778358 121.501378 
L 607.310904 133.464625 
L 608.84345 134.139969 
L 610.375996 137.034303 
L 611.908542 145.717305 
L 613.441088 144.366616 
L 614.973634 140.893415 
L 616.50618 138.674426 
L 618.038726 144.270138 
L 619.571272 148.322205 
L 621.103818 146.682083 
L 622.636364 151.60245 
L 622.636364 151.60245 
" style="fill:none;stroke:#ffa500;stroke-linecap:square;stroke-width:1.5;"/>
   </g>
   <g id="line2d_39">
    <path clip-path="url(#p0f223a4d05)" d="M 260.955507 262.069525 
L 262.488053 263.227259 
L 264.020599 259.561103 
L 265.553145 254.447779 
L 267.085691 256.763247 
L 268.618237 256.18438 
L 270.150783 260.718836 
L 271.683329 257.728025 
L 273.215875 258.885758 
L 274.748421 257.535069 
L 276.280967 256.666769 
L 277.813513 255.412557 
L 279.346059 253.965391 
L 280.878605 259.368147 
L 282.411151 258.982236 
L 283.943697 254.158346 
L 285.476243 253.000613 
L 287.008789 254.351302 
L 288.541335 252.035835 
L 290.073881 251.071057 
L 291.606427 253.868913 
L 293.138973 259.754058 
L 294.671519 253.579479 
L 296.204065 254.640735 
L 297.736611 253.290046 
L 299.269157 252.807657 
L 300.801703 253.868913 
L 302.334249 256.956202 
L 303.866795 258.306891 
L 305.399341 255.219602 
L 308.464433 252.614701 
L 309.996979 252.518224 
L 311.529525 253.772435 
L 313.062071 256.763247 
L 314.594617 257.245636 
L 316.127163 257.342113 
L 317.659709 253.579479 
L 319.192255 252.614701 
L 320.724801 254.254824 
L 322.257347 254.930168 
L 323.789893 256.570291 
L 325.322439 258.885758 
L 326.854985 256.956202 
L 328.387531 253.868913 
L 329.920077 253.386524 
L 331.452623 253.386524 
L 332.985169 252.614701 
L 334.517715 254.351302 
L 336.050261 254.447779 
L 337.582807 253.290046 
L 339.115353 251.939357 
L 340.647899 252.904135 
L 342.180445 252.035835 
L 343.712991 251.649923 
L 345.245537 254.351302 
L 346.778083 259.368147 
L 348.310629 257.245636 
L 349.843175 256.280858 
L 351.375721 254.737213 
L 352.908267 253.868913 
L 354.440813 254.351302 
L 355.973359 255.894946 
L 357.505905 257.149158 
L 359.038451 254.737213 
L 360.570997 252.807657 
L 362.103543 251.456968 
L 363.636089 254.737213 
L 365.168635 253.579479 
L 366.701181 256.570291 
L 368.233727 254.061868 
L 369.766273 252.904135 
L 371.298819 250.009801 
L 372.831365 250.106279 
L 374.363911 253.386524 
L 375.896457 252.904135 
L 377.429003 253.386524 
L 378.961549 254.640735 
L 380.494095 250.878101 
L 382.026641 249.527412 
L 383.559187 251.842879 
L 385.091733 250.974579 
L 386.624279 252.132312 
L 388.156825 254.640735 
L 389.689371 255.894946 
L 391.221917 251.167534 
L 392.754463 249.141501 
L 394.287009 250.009801 
L 395.819555 250.588668 
L 397.352101 253.483002 
L 398.884647 255.31608 
L 400.417193 256.087902 
L 401.949739 252.325268 
L 403.482285 249.62389 
L 405.014831 252.035835 
L 406.547377 250.878101 
L 408.079923 251.553446 
L 409.612469 253.579479 
L 411.145015 255.894946 
L 412.677561 248.176723 
L 414.210107 249.720368 
L 415.742653 250.685145 
L 417.275199 250.395712 
L 418.807745 251.649923 
L 420.340291 253.965391 
L 421.872837 254.930168 
L 423.405383 249.237979 
L 424.937929 246.826034 
L 426.470475 247.790812 
L 428.003021 249.816845 
L 429.535567 252.421746 
L 431.068113 255.31608 
L 432.600659 257.535069 
L 434.133205 248.659112 
L 435.665751 247.887289 
L 437.198297 247.790812 
L 438.730843 252.421746 
L 440.263389 251.264012 
L 441.795935 255.219602 
L 443.328481 258.113936 
L 444.861027 252.518224 
L 447.926119 250.202757 
L 449.458665 251.842879 
L 450.991211 254.061868 
L 452.523757 257.438591 
L 454.056303 259.368147 
L 455.588849 253.579479 
L 457.121395 253.193568 
L 458.653941 254.833691 
L 460.186487 254.737213 
L 461.719033 258.982236 
L 463.251579 261.973047 
L 464.784125 261.490658 
L 466.316671 256.859724 
L 467.849217 258.306891 
L 469.381763 260.622358 
L 470.914309 258.596325 
L 473.979401 264.770904 
L 475.511947 266.21807 
L 477.044493 262.841348 
L 478.577039 265.156815 
L 480.109585 264.770904 
L 481.642131 263.227259 
L 483.174677 267.56876 
L 484.707223 268.726493 
L 486.239769 267.56876 
L 487.772315 265.156815 
L 489.304861 264.577948 
L 490.837407 263.806126 
L 492.369953 266.025115 
L 493.902499 265.542726 
L 495.435045 266.121593 
L 496.967591 269.112404 
L 498.500137 265.832159 
L 500.032683 263.323737 
L 503.097775 263.130781 
L 504.630321 264.192037 
L 506.162867 267.56876 
L 507.695413 266.314548 
L 509.227959 262.166003 
L 510.760505 262.841348 
L 512.293051 261.297703 
L 513.825597 262.358959 
L 515.358143 265.060337 
L 516.890689 266.989893 
L 518.423235 264.48147 
L 519.955781 263.516692 
L 521.488327 262.069525 
L 523.020873 260.815314 
L 524.553419 261.297703 
L 526.085965 263.323737 
L 527.618511 266.025115 
L 529.151057 265.639204 
L 530.683603 261.780092 
L 532.216149 259.464625 
L 533.748695 259.368147 
L 535.281241 259.65758 
L 536.813787 262.551914 
L 538.346333 265.735681 
L 539.878879 263.323737 
L 541.411425 260.332925 
L 544.476517 255.412557 
L 546.009063 256.087902 
L 547.541609 259.368147 
L 549.074155 260.718836 
L 550.606701 260.815314 
L 552.139247 255.798469 
L 553.671793 255.894946 
L 555.204339 257.728025 
L 556.736885 256.377335 
L 558.269431 259.947014 
L 559.801977 263.034303 
L 561.334523 258.692802 
L 562.867069 258.017458 
L 564.399615 256.666769 
L 565.932161 260.236447 
L 567.464707 261.201225 
L 568.997254 262.551914 
L 570.5298 267.56876 
L 572.062346 267.761715 
L 573.594892 263.902603 
L 575.127438 266.796937 
L 576.659984 267.086371 
L 578.19253 268.919449 
L 579.725076 273.260949 
L 581.257622 271.813783 
L 582.790168 273.453905 
L 584.322714 269.015926 
L 585.85526 268.43706 
L 587.387806 269.594793 
L 588.920352 271.620827 
L 590.452898 272.585605 
L 591.985444 274.418683 
L 593.51799 272.77856 
L 595.050536 270.945482 
L 596.583082 267.182848 
L 598.115628 268.630015 
L 599.648174 268.051149 
L 601.18072 268.630015 
L 602.713266 272.585605 
L 604.245812 272.199694 
L 605.778358 268.919449 
L 607.310904 269.015926 
L 608.84345 265.446248 
L 610.375996 265.542726 
L 611.908542 266.603982 
L 613.441088 271.234916 
L 614.973634 270.752527 
L 616.50618 266.314548 
L 618.038726 266.025115 
L 619.571272 264.770904 
L 621.103818 265.156815 
L 622.636364 264.867381 
L 622.636364 264.867381 
" style="fill:none;stroke:#0000ff;stroke-linecap:square;stroke-width:1.5;"/>
   </g>
   <g id="line2d_40">
    <path clip-path="url(#p0f223a4d05)" d="M 260.955507 294.003675 
L 262.488053 294.389587 
L 264.020599 297.959265 
L 265.553145 298.248698 
L 267.085691 299.792343 
L 271.683329 300.178254 
L 273.215875 300.37121 
L 274.748421 301.432466 
L 277.813513 302.10781 
L 279.346059 301.721899 
L 280.878605 301.528943 
L 282.411151 300.757121 
L 283.943697 301.625421 
L 287.008789 302.686677 
L 288.541335 303.651455 
L 290.073881 303.651455 
L 291.606427 303.84441 
L 293.138973 303.458499 
L 294.671519 304.519755 
L 297.736611 304.423277 
L 299.269157 305.677489 
L 300.801703 306.352833 
L 303.866795 306.0634 
L 305.399341 306.352833 
L 306.931887 306.449311 
L 308.464433 306.738744 
L 309.996979 307.221133 
L 311.529525 307.414089 
L 313.062071 307.414089 
L 314.594617 306.9317 
L 316.127163 306.835222 
L 317.659709 307.221133 
L 319.192255 307.124655 
L 320.724801 306.738744 
L 322.257347 306.642266 
L 323.789893 306.835222 
L 325.322439 306.835222 
L 326.854985 307.124655 
L 328.387531 307.221133 
L 329.920077 307.703522 
L 332.985169 307.607044 
L 334.517715 307.510567 
L 337.582807 307.703522 
L 339.115353 307.510567 
L 340.647899 307.703522 
L 343.712991 307.414089 
L 345.245537 307.607044 
L 346.778083 307.124655 
L 351.375721 307.8 
L 352.908267 307.317611 
L 354.440813 307.028178 
L 355.973359 307.124655 
L 357.505905 306.545789 
L 359.038451 306.642266 
L 360.570997 306.256355 
L 365.168635 306.449311 
L 366.701181 306.159877 
L 368.233727 306.352833 
L 369.766273 306.256355 
L 371.298819 305.773966 
L 372.831365 306.159877 
L 374.363911 305.484533 
L 375.896457 305.388055 
L 377.429003 305.677489 
L 380.494095 305.098622 
L 383.559187 305.388055 
L 385.091733 305.002144 
L 394.287009 305.677489 
L 395.819555 305.870444 
L 398.884647 305.966922 
L 400.417193 305.484533 
L 401.949739 305.966922 
L 403.482285 306.0634 
L 405.014831 306.449311 
L 406.547377 305.773966 
L 408.079923 305.773966 
L 412.677561 306.256355 
L 414.210107 306.159877 
L 415.742653 306.256355 
L 417.275199 305.677489 
L 418.807745 305.581011 
L 420.340291 305.677489 
L 421.872837 305.002144 
L 423.405383 304.037366 
L 424.937929 303.940888 
L 426.470475 304.423277 
L 432.600659 300.950077 
L 434.133205 300.37121 
L 435.665751 299.116998 
L 437.198297 298.924043 
L 438.730843 297.959265 
L 441.795935 296.898009 
L 443.328481 295.450842 
L 444.861027 295.450842 
L 446.393573 294.67902 
L 447.926119 294.486064 
L 449.458665 293.714242 
L 450.991211 294.100153 
L 452.523757 293.424809 
L 455.588849 290.819908 
L 457.121395 288.890352 
L 458.653941 287.153752 
L 460.186487 286.092496 
L 461.719033 286.478407 
L 463.251579 285.320674 
L 464.784125 284.838285 
L 467.849217 280.110873 
L 469.381763 278.953139 
L 470.914309 275.86585 
L 472.446855 275.190505 
L 473.979401 274.032772 
L 475.511947 272.585605 
L 477.044493 268.726493 
L 478.577039 265.735681 
L 480.109585 264.48147 
L 481.642131 263.61317 
L 483.174677 260.815314 
L 484.707223 261.87657 
L 486.239769 260.332925 
L 487.772315 258.113936 
L 489.304861 256.570291 
L 490.837407 255.798469 
L 492.369953 254.447779 
L 493.902499 252.807657 
L 495.435045 252.904135 
L 496.967591 252.518224 
L 498.500137 250.395712 
L 500.032683 250.106279 
L 503.097775 250.974579 
L 504.630321 251.071057 
L 506.162867 251.456968 
L 507.695413 251.264012 
L 509.227959 251.456968 
L 510.760505 250.685145 
L 512.293051 251.746401 
L 513.825597 250.395712 
L 515.358143 251.746401 
L 516.890689 252.711179 
L 518.423235 253.868913 
L 519.955781 253.579479 
L 521.488327 255.219602 
L 523.020873 255.605513 
L 524.553419 256.377335 
L 526.085965 256.087902 
L 527.618511 257.05268 
L 529.151057 257.438591 
L 530.683603 258.403369 
L 532.216149 258.113936 
L 535.281241 259.175191 
L 536.813787 259.850536 
L 538.346333 260.332925 
L 539.878879 262.74487 
L 542.943971 263.323737 
L 544.476517 264.963859 
L 546.009063 263.516692 
L 547.541609 263.61317 
L 549.074155 263.902603 
L 550.606701 263.806126 
L 552.139247 264.384992 
L 553.671793 263.516692 
L 555.204339 263.902603 
L 556.736885 263.61317 
L 558.269431 262.74487 
L 559.801977 261.201225 
L 561.334523 260.622358 
L 562.867069 258.596325 
L 564.399615 258.403369 
L 565.932161 257.438591 
L 567.464707 256.18438 
L 568.997254 255.123124 
L 570.5298 253.193568 
L 572.062346 252.614701 
L 573.594892 252.614701 
L 575.127438 250.49219 
L 576.659984 251.649923 
L 578.19253 251.264012 
L 581.257622 248.273201 
L 585.85526 240.458499 
L 587.387806 239.300766 
L 588.920352 241.326799 
L 590.452898 241.809188 
L 591.985444 241.230322 
L 593.51799 240.169066 
L 595.050536 238.625421 
L 596.583082 241.230322 
L 598.115628 240.458499 
L 599.648174 240.84441 
L 601.18072 241.616233 
L 602.713266 240.554977 
L 604.245812 241.423277 
L 605.778358 242.098622 
L 607.310904 241.616233 
L 608.84345 242.291577 
L 610.375996 242.581011 
L 611.908542 244.414089 
L 613.441088 243.9317 
L 614.973634 242.581011 
L 616.50618 243.256355 
L 618.038726 243.642266 
L 622.636364 244.221133 
L 622.636364 244.221133 
" style="fill:none;stroke:#00ffff;stroke-linecap:square;stroke-width:1.5;"/>
   </g>
   <g id="patch_3">
    <path d="M 90 320.4 
L 90 43.2 
" style="fill:none;stroke:#000000;stroke-linecap:square;stroke-linejoin:miter;stroke-width:0.8;"/>
   </g>
   <g id="patch_4">
    <path d="M 648 320.4 
L 648 43.2 
" style="fill:none;stroke:#000000;stroke-linecap:square;stroke-linejoin:miter;stroke-width:0.8;"/>
   </g>
   <g id="patch_5">
    <path d="M 90 320.4 
L 648 320.4 
" style="fill:none;stroke:#000000;stroke-linecap:square;stroke-linejoin:miter;stroke-width:0.8;"/>
   </g>
   <g id="patch_6">
    <path d="M 90 43.2 
L 648 43.2 
" style="fill:none;stroke:#000000;stroke-linecap:square;stroke-linejoin:miter;stroke-width:0.8;"/>
   </g>
   <g id="text_20">
    <!-- Testplot -->
    <g transform="translate(345.68625 37.2)scale(0.12 -0.12)">
     <defs>
      <path d="M -0.296875 72.90625 
L 61.375 72.90625 
L 61.375 64.59375 
L 35.5 64.59375 
L 35.5 0 
L 25.59375 0 
L 25.59375 64.59375 
L -0.296875 64.59375 
z
" id="DejaVuSans-84"/>
      <path d="M 56.203125 29.59375 
L 56.203125 25.203125 
L 14.890625 25.203125 
Q 15.484375 15.921875 20.484375 11.0625 
Q 25.484375 6.203125 34.421875 6.203125 
Q 39.59375 6.203125 44.453125 7.46875 
Q 49.3125 8.734375 54.109375 11.28125 
L 54.109375 2.78125 
Q 49.265625 0.734375 44.1875 -0.34375 
Q 39.109375 -1.421875 33.890625 -1.421875 
Q 20.796875 -1.421875 13.15625 6.1875 
Q 5.515625 13.8125 5.515625 26.8125 
Q 5.515625 40.234375 12.765625 48.109375 
Q 20.015625 56 32.328125 56 
Q 43.359375 56 49.78125 48.890625 
Q 56.203125 41.796875 56.203125 29.59375 
z
M 47.21875 32.234375 
Q 47.125 39.59375 43.09375 43.984375 
Q 39.0625 48.390625 32.421875 48.390625 
Q 24.90625 48.390625 20.390625 44.140625 
Q 15.875 39.890625 15.1875 32.171875 
z
" id="DejaVuSans-101"/>
      <path d="M 44.28125 53.078125 
L 44.28125 44.578125 
Q 40.484375 46.53125 36.375 47.5 
Q 32.28125 48.484375 27.875 48.484375 
Q 21.1875 48.484375 17.84375 46.4375 
Q 14.5 44.390625 14.5 40.28125 
Q 14.5 37.15625 16.890625 35.375 
Q 19.28125 33.59375 26.515625 31.984375 
L 29.59375 31.296875 
Q 39.15625 29.25 43.1875 25.515625 
Q 47.21875 21.78125 47.21875 15.09375 
Q 47.21875 7.46875 41.1875 3.015625 
Q 35.15625 -1.421875 24.609375 -1.421875 
Q 20.21875 -1.421875 15.453125 -0.5625 
Q 10.6875 0.296875 5.421875 2 
L 5.421875 11.28125 
Q 10.40625 8.6875 15.234375 7.390625 
Q 20.0625 6.109375 24.8125 6.109375 
Q 31.15625 6.109375 34.5625 8.28125 
Q 37.984375 10.453125 37.984375 14.40625 
Q 37.984375 18.0625 35.515625 20.015625 
Q 33.0625 21.96875 24.703125 23.78125 
L 21.578125 24.515625 
Q 13.234375 26.265625 9.515625 29.90625 
Q 5.8125 33.546875 5.8125 39.890625 
Q 5.8125 47.609375 11.28125 51.796875 
Q 16.75 56 26.8125 56 
Q 31.78125 56 36.171875 55.265625 
Q 40.578125 54.546875 44.28125 53.078125 
z
" id="DejaVuSans-115"/>
      <path d="M 18.109375 8.203125 
L 18.109375 -20.796875 
L 9.078125 -20.796875 
L 9.078125 54.6875 
L 18.109375 54.6875 
L 18.109375 46.390625 
Q 20.953125 51.265625 25.265625 53.625 
Q 29.59375 56 35.59375 56 
Q 45.5625 56 51.78125 48.09375 
Q 58.015625 40.1875 58.015625 27.296875 
Q 58.015625 14.40625 51.78125 6.484375 
Q 45.5625 -1.421875 35.59375 -1.421875 
Q 29.59375 -1.421875 25.265625 0.953125 
Q 20.953125 3.328125 18.109375 8.203125 
z
M 48.6875 27.296875 
Q 48.6875 37.203125 44.609375 42.84375 
Q 40.53125 48.484375 33.40625 48.484375 
Q 26.265625 48.484375 22.1875 42.84375 
Q 18.109375 37.203125 18.109375 27.296875 
Q 18.109375 17.390625 22.1875 11.75 
Q 26.265625 6.109375 33.40625 6.109375 
Q 40.53125 6.109375 44.609375 11.75 
Q 48.6875 17.390625 48.6875 27.296875 
z
" id="DejaVuSans-112"/>
      <path d="M 9.421875 75.984375 
L 18.40625 75.984375 
L 18.40625 0 
L 9.421875 0 
z
" id="DejaVuSans-108"/>
      <path d="M 30.609375 48.390625 
Q 23.390625 48.390625 19.1875 42.75 
Q 14.984375 37.109375 14.984375 27.296875 
Q 14.984375 17.484375 19.15625 11.84375 
Q 23.34375 6.203125 30.609375 6.203125 
Q 37.796875 6.203125 41.984375 11.859375 
Q 46.1875 17.53125 46.1875 27.296875 
Q 46.1875 37.015625 41.984375 42.703125 
Q 37.796875 48.390625 30.609375 48.390625 
z
M 30.609375 56 
Q 42.328125 56 49.015625 48.375 
Q 55.71875 40.765625 55.71875 27.296875 
Q 55.71875 13.875 49.015625 6.21875 
Q 42.328125 -1.421875 30.609375 -1.421875 
Q 18.84375 -1.421875 12.171875 6.21875 
Q 5.515625 13.875 5.515625 27.296875 
Q 5.515625 40.765625 12.171875 48.375 
Q 18.84375 56 30.609375 56 
z
" id="DejaVuSans-111"/>
     </defs>
     <use xlink:href="#DejaVuSans-84"/>
     <use x="44.083984" xlink:href="#DejaVuSans-101"/>
     <use x="105.607422" xlink:href="#DejaVuSans-115"/>
     <use x="157.707031" xlink:href="#DejaVuSans-116"/>
     <use x="196.916016" xlink:href="#DejaVuSans-112"/>
     <use x="260.392578" xlink:href="#DejaVuSans-108"/>
     <use x="288.175781" xlink:href="#DejaVuSans-111"/>
     <use x="349.357422" xlink:href="#DejaVuSans-116"/>
    </g>
   </g>
   <g id="legend_1">
    <g id="patch_7">
     <path d="M 97 109.9125 
L 348.946875 109.9125 
Q 350.946875 109.9125 350.946875 107.9125 
L 350.946875 50.2 
Q 350.946875 48.2 348.946875 48.2 
L 97 48.2 
Q 95 48.2 95 50.2 
L 95 107.9125 
Q 95 109.9125 97 109.9125 
z
" style="fill:#ffffff;opacity:0.8;stroke:#cccccc;stroke-linejoin:miter;"/>
    </g>
    <g id="line2d_41">
     <path d="M 99 56.298437 
L 119 56.298437 
" style="fill:none;stroke:#ff0000;stroke-linecap:square;stroke-width:1.5;"/>
    </g>
    <g id="line2d_42"/>
    <g id="text_21">
     <!-- covid opgenomen patinten NICE (nu 1740) -->
     <g transform="translate(127 59.798437)scale(0.1 -0.1)">
      <defs>
       <path d="M 48.78125 52.59375 
L 48.78125 44.1875 
Q 44.96875 46.296875 41.140625 47.34375 
Q 37.3125 48.390625 33.40625 48.390625 
Q 24.65625 48.390625 19.8125 42.84375 
Q 14.984375 37.3125 14.984375 27.296875 
Q 14.984375 17.28125 19.8125 11.734375 
Q 24.65625 6.203125 33.40625 6.203125 
Q 37.3125 6.203125 41.140625 7.25 
Q 44.96875 8.296875 48.78125 10.40625 
L 48.78125 2.09375 
Q 45.015625 0.34375 40.984375 -0.53125 
Q 36.96875 -1.421875 32.421875 -1.421875 
Q 20.0625 -1.421875 12.78125 6.34375 
Q 5.515625 14.109375 5.515625 27.296875 
Q 5.515625 40.671875 12.859375 48.328125 
Q 20.21875 56 33.015625 56 
Q 37.15625 56 41.109375 55.140625 
Q 45.0625 54.296875 48.78125 52.59375 
z
" id="DejaVuSans-99"/>
       <path d="M 2.984375 54.6875 
L 12.5 54.6875 
L 29.59375 8.796875 
L 46.6875 54.6875 
L 56.203125 54.6875 
L 35.6875 0 
L 23.484375 0 
z
" id="DejaVuSans-118"/>
       <path d="M 9.421875 54.6875 
L 18.40625 54.6875 
L 18.40625 0 
L 9.421875 0 
z
M 9.421875 75.984375 
L 18.40625 75.984375 
L 18.40625 64.59375 
L 9.421875 64.59375 
z
" id="DejaVuSans-105"/>
       <path d="M 45.40625 46.390625 
L 45.40625 75.984375 
L 54.390625 75.984375 
L 54.390625 0 
L 45.40625 0 
L 45.40625 8.203125 
Q 42.578125 3.328125 38.25 0.953125 
Q 33.9375 -1.421875 27.875 -1.421875 
Q 17.96875 -1.421875 11.734375 6.484375 
Q 5.515625 14.40625 5.515625 27.296875 
Q 5.515625 40.1875 11.734375 48.09375 
Q 17.96875 56 27.875 56 
Q 33.9375 56 38.25 53.625 
Q 42.578125 51.265625 45.40625 46.390625 
z
M 14.796875 27.296875 
Q 14.796875 17.390625 18.875 11.75 
Q 22.953125 6.109375 30.078125 6.109375 
Q 37.203125 6.109375 41.296875 11.75 
Q 45.40625 17.390625 45.40625 27.296875 
Q 45.40625 37.203125 41.296875 42.84375 
Q 37.203125 48.484375 30.078125 48.484375 
Q 22.953125 48.484375 18.875 42.84375 
Q 14.796875 37.203125 14.796875 27.296875 
z
" id="DejaVuSans-100"/>
       <path id="DejaVuSans-32"/>
       <path d="M 45.40625 27.984375 
Q 45.40625 37.75 41.375 43.109375 
Q 37.359375 48.484375 30.078125 48.484375 
Q 22.859375 48.484375 18.828125 43.109375 
Q 14.796875 37.75 14.796875 27.984375 
Q 14.796875 18.265625 18.828125 12.890625 
Q 22.859375 7.515625 30.078125 7.515625 
Q 37.359375 7.515625 41.375 12.890625 
Q 45.40625 18.265625 45.40625 27.984375 
z
M 54.390625 6.78125 
Q 54.390625 -7.171875 48.1875 -13.984375 
Q 42 -20.796875 29.203125 -20.796875 
Q 24.46875 -20.796875 20.265625 -20.09375 
Q 16.0625 -19.390625 12.109375 -17.921875 
L 12.109375 -9.1875 
Q 16.0625 -11.328125 19.921875 -12.34375 
Q 23.78125 -13.375 27.78125 -13.375 
Q 36.625 -13.375 41.015625 -8.765625 
Q 45.40625 -4.15625 45.40625 5.171875 
L 45.40625 9.625 
Q 42.625 4.78125 38.28125 2.390625 
Q 33.9375 0 27.875 0 
Q 17.828125 0 11.671875 7.65625 
Q 5.515625 15.328125 5.515625 27.984375 
Q 5.515625 40.671875 11.671875 48.328125 
Q 17.828125 56 27.875 56 
Q 33.9375 56 38.28125 53.609375 
Q 42.625 51.21875 45.40625 46.390625 
L 45.40625 54.6875 
L 54.390625 54.6875 
z
" id="DejaVuSans-103"/>
       <path d="M 54.890625 33.015625 
L 54.890625 0 
L 45.90625 0 
L 45.90625 32.71875 
Q 45.90625 40.484375 42.875 44.328125 
Q 39.84375 48.1875 33.796875 48.1875 
Q 26.515625 48.1875 22.3125 43.546875 
Q 18.109375 38.921875 18.109375 30.90625 
L 18.109375 0 
L 9.078125 0 
L 9.078125 54.6875 
L 18.109375 54.6875 
L 18.109375 46.1875 
Q 21.34375 51.125 25.703125 53.5625 
Q 30.078125 56 35.796875 56 
Q 45.21875 56 50.046875 50.171875 
Q 54.890625 44.34375 54.890625 33.015625 
z
" id="DejaVuSans-110"/>
       <path d="M 56.203125 29.59375 
L 56.203125 25.203125 
L 14.890625 25.203125 
Q 15.484375 15.921875 20.484375 11.0625 
Q 25.484375 6.203125 34.421875 6.203125 
Q 39.59375 6.203125 44.453125 7.46875 
Q 49.3125 8.734375 54.109375 11.28125 
L 54.109375 2.78125 
Q 49.265625 0.734375 44.1875 -0.34375 
Q 39.109375 -1.421875 33.890625 -1.421875 
Q 20.796875 -1.421875 13.15625 6.1875 
Q 5.515625 13.8125 5.515625 26.8125 
Q 5.515625 40.234375 12.765625 48.109375 
Q 20.015625 56 32.328125 56 
Q 43.359375 56 49.78125 48.890625 
Q 56.203125 41.796875 56.203125 29.59375 
z
M 47.21875 32.234375 
Q 47.125 39.59375 43.09375 43.984375 
Q 39.0625 48.390625 32.421875 48.390625 
Q 24.90625 48.390625 20.390625 44.140625 
Q 15.875 39.890625 15.1875 32.171875 
z
M 36.34375 75.78125 
L 46.25 75.78125 
L 46.25 65.921875 
L 36.34375 65.921875 
z
M 17.25 75.78125 
L 27.15625 75.78125 
L 27.15625 65.921875 
L 17.25 65.921875 
z
" id="DejaVuSans-235"/>
       <path d="M 9.8125 72.90625 
L 23.09375 72.90625 
L 55.421875 11.921875 
L 55.421875 72.90625 
L 64.984375 72.90625 
L 64.984375 0 
L 51.703125 0 
L 19.390625 60.984375 
L 19.390625 0 
L 9.8125 0 
z
" id="DejaVuSans-78"/>
       <path d="M 9.8125 72.90625 
L 19.671875 72.90625 
L 19.671875 0 
L 9.8125 0 
z
" id="DejaVuSans-73"/>
       <path d="M 64.40625 67.28125 
L 64.40625 56.890625 
Q 59.421875 61.53125 53.78125 63.8125 
Q 48.140625 66.109375 41.796875 66.109375 
Q 29.296875 66.109375 22.65625 58.46875 
Q 16.015625 50.828125 16.015625 36.375 
Q 16.015625 21.96875 22.65625 14.328125 
Q 29.296875 6.6875 41.796875 6.6875 
Q 48.140625 6.6875 53.78125 8.984375 
Q 59.421875 11.28125 64.40625 15.921875 
L 64.40625 5.609375 
Q 59.234375 2.09375 53.4375 0.328125 
Q 47.65625 -1.421875 41.21875 -1.421875 
Q 24.65625 -1.421875 15.125 8.703125 
Q 5.609375 18.84375 5.609375 36.375 
Q 5.609375 53.953125 15.125 64.078125 
Q 24.65625 74.21875 41.21875 74.21875 
Q 47.75 74.21875 53.53125 72.484375 
Q 59.328125 70.75 64.40625 67.28125 
z
" id="DejaVuSans-67"/>
       <path d="M 9.8125 72.90625 
L 55.90625 72.90625 
L 55.90625 64.59375 
L 19.671875 64.59375 
L 19.671875 43.015625 
L 54.390625 43.015625 
L 54.390625 34.71875 
L 19.671875 34.71875 
L 19.671875 8.296875 
L 56.78125 8.296875 
L 56.78125 0 
L 9.8125 0 
z
" id="DejaVuSans-69"/>
       <path d="M 31 75.875 
Q 24.46875 64.65625 21.28125 53.65625 
Q 18.109375 42.671875 18.109375 31.390625 
Q 18.109375 20.125 21.3125 9.0625 
Q 24.515625 -2 31 -13.1875 
L 23.1875 -13.1875 
Q 15.875 -1.703125 12.234375 9.375 
Q 8.59375 20.453125 8.59375 31.390625 
Q 8.59375 42.28125 12.203125 53.3125 
Q 15.828125 64.359375 23.1875 75.875 
z
" id="DejaVuSans-40"/>
       <path d="M 8.015625 75.875 
L 15.828125 75.875 
Q 23.140625 64.359375 26.78125 53.3125 
Q 30.421875 42.28125 30.421875 31.390625 
Q 30.421875 20.453125 26.78125 9.375 
Q 23.140625 -1.703125 15.828125 -13.1875 
L 8.015625 -13.1875 
Q 14.5 -2 17.703125 9.0625 
Q 20.90625 20.125 20.90625 31.390625 
Q 20.90625 42.671875 17.703125 53.65625 
Q 14.5 64.65625 8.015625 75.875 
z
" id="DejaVuSans-41"/>
      </defs>
      <use xlink:href="#DejaVuSans-99"/>
      <use x="54.980469" xlink:href="#DejaVuSans-111"/>
      <use x="116.162109" xlink:href="#DejaVuSans-118"/>
      <use x="175.341797" xlink:href="#DejaVuSans-105"/>
      <use x="203.125" xlink:href="#DejaVuSans-100"/>
      <use x="266.601562" xlink:href="#DejaVuSans-32"/>
      <use x="298.388672" xlink:href="#DejaVuSans-111"/>
      <use x="359.570312" xlink:href="#DejaVuSans-112"/>
      <use x="423.046875" xlink:href="#DejaVuSans-103"/>
      <use x="486.523438" xlink:href="#DejaVuSans-101"/>
      <use x="548.046875" xlink:href="#DejaVuSans-110"/>
      <use x="611.425781" xlink:href="#DejaVuSans-111"/>
      <use x="672.607422" xlink:href="#DejaVuSans-109"/>
      <use x="770.019531" xlink:href="#DejaVuSans-101"/>
      <use x="831.542969" xlink:href="#DejaVuSans-110"/>
      <use x="894.921875" xlink:href="#DejaVuSans-32"/>
      <use x="926.708984" xlink:href="#DejaVuSans-112"/>
      <use x="990.185547" xlink:href="#DejaVuSans-97"/>
      <use x="1051.464844" xlink:href="#DejaVuSans-116"/>
      <use x="1090.673828" xlink:href="#DejaVuSans-105"/>
      <use x="1118.457031" xlink:href="#DejaVuSans-235"/>
      <use x="1179.980469" xlink:href="#DejaVuSans-110"/>
      <use x="1243.359375" xlink:href="#DejaVuSans-116"/>
      <use x="1282.568359" xlink:href="#DejaVuSans-101"/>
      <use x="1344.091797" xlink:href="#DejaVuSans-110"/>
      <use x="1407.470703" xlink:href="#DejaVuSans-32"/>
      <use x="1439.257812" xlink:href="#DejaVuSans-78"/>
      <use x="1514.0625" xlink:href="#DejaVuSans-73"/>
      <use x="1543.554688" xlink:href="#DejaVuSans-67"/>
      <use x="1613.378906" xlink:href="#DejaVuSans-69"/>
      <use x="1676.5625" xlink:href="#DejaVuSans-32"/>
      <use x="1708.349609" xlink:href="#DejaVuSans-40"/>
      <use x="1747.363281" xlink:href="#DejaVuSans-110"/>
      <use x="1810.742188" xlink:href="#DejaVuSans-117"/>
      <use x="1874.121094" xlink:href="#DejaVuSans-32"/>
      <use x="1905.908203" xlink:href="#DejaVuSans-49"/>
      <use x="1969.53125" xlink:href="#DejaVuSans-55"/>
      <use x="2033.154297" xlink:href="#DejaVuSans-52"/>
      <use x="2096.777344" xlink:href="#DejaVuSans-48"/>
      <use x="2160.400391" xlink:href="#DejaVuSans-41"/>
     </g>
    </g>
    <g id="line2d_43">
     <path d="M 99 70.976562 
L 119 70.976562 
" style="fill:none;stroke:#ffa500;stroke-linecap:square;stroke-width:1.5;"/>
    </g>
    <g id="line2d_44"/>
    <g id="text_22">
     <!-- covid bezette bedden LCPS (nu 1633) -->
     <g transform="translate(127 74.476562)scale(0.1 -0.1)">
      <defs>
       <path d="M 48.6875 27.296875 
Q 48.6875 37.203125 44.609375 42.84375 
Q 40.53125 48.484375 33.40625 48.484375 
Q 26.265625 48.484375 22.1875 42.84375 
Q 18.109375 37.203125 18.109375 27.296875 
Q 18.109375 17.390625 22.1875 11.75 
Q 26.265625 6.109375 33.40625 6.109375 
Q 40.53125 6.109375 44.609375 11.75 
Q 48.6875 17.390625 48.6875 27.296875 
z
M 18.109375 46.390625 
Q 20.953125 51.265625 25.265625 53.625 
Q 29.59375 56 35.59375 56 
Q 45.5625 56 51.78125 48.09375 
Q 58.015625 40.1875 58.015625 27.296875 
Q 58.015625 14.40625 51.78125 6.484375 
Q 45.5625 -1.421875 35.59375 -1.421875 
Q 29.59375 -1.421875 25.265625 0.953125 
Q 20.953125 3.328125 18.109375 8.203125 
L 18.109375 0 
L 9.078125 0 
L 9.078125 75.984375 
L 18.109375 75.984375 
z
" id="DejaVuSans-98"/>
       <path d="M 5.515625 54.6875 
L 48.1875 54.6875 
L 48.1875 46.484375 
L 14.40625 7.171875 
L 48.1875 7.171875 
L 48.1875 0 
L 4.296875 0 
L 4.296875 8.203125 
L 38.09375 47.515625 
L 5.515625 47.515625 
z
" id="DejaVuSans-122"/>
       <path d="M 9.8125 72.90625 
L 19.671875 72.90625 
L 19.671875 8.296875 
L 55.171875 8.296875 
L 55.171875 0 
L 9.8125 0 
z
" id="DejaVuSans-76"/>
       <path d="M 19.671875 64.796875 
L 19.671875 37.40625 
L 32.078125 37.40625 
Q 38.96875 37.40625 42.71875 40.96875 
Q 46.484375 44.53125 46.484375 51.125 
Q 46.484375 57.671875 42.71875 61.234375 
Q 38.96875 64.796875 32.078125 64.796875 
z
M 9.8125 72.90625 
L 32.078125 72.90625 
Q 44.34375 72.90625 50.609375 67.359375 
Q 56.890625 61.8125 56.890625 51.125 
Q 56.890625 40.328125 50.609375 34.8125 
Q 44.34375 29.296875 32.078125 29.296875 
L 19.671875 29.296875 
L 19.671875 0 
L 9.8125 0 
z
" id="DejaVuSans-80"/>
       <path d="M 53.515625 70.515625 
L 53.515625 60.890625 
Q 47.90625 63.578125 42.921875 64.890625 
Q 37.9375 66.21875 33.296875 66.21875 
Q 25.25 66.21875 20.875 63.09375 
Q 16.5 59.96875 16.5 54.203125 
Q 16.5 49.359375 19.40625 46.890625 
Q 22.3125 44.4375 30.421875 42.921875 
L 36.375 41.703125 
Q 47.40625 39.59375 52.65625 34.296875 
Q 57.90625 29 57.90625 20.125 
Q 57.90625 9.515625 50.796875 4.046875 
Q 43.703125 -1.421875 29.984375 -1.421875 
Q 24.8125 -1.421875 18.96875 -0.25 
Q 13.140625 0.921875 6.890625 3.21875 
L 6.890625 13.375 
Q 12.890625 10.015625 18.65625 8.296875 
Q 24.421875 6.59375 29.984375 6.59375 
Q 38.421875 6.59375 43.015625 9.90625 
Q 47.609375 13.234375 47.609375 19.390625 
Q 47.609375 24.75 44.3125 27.78125 
Q 41.015625 30.8125 33.5 32.328125 
L 27.484375 33.5 
Q 16.453125 35.6875 11.515625 40.375 
Q 6.59375 45.0625 6.59375 53.421875 
Q 6.59375 63.09375 13.40625 68.65625 
Q 20.21875 74.21875 32.171875 74.21875 
Q 37.3125 74.21875 42.625 73.28125 
Q 47.953125 72.359375 53.515625 70.515625 
z
" id="DejaVuSans-83"/>
      </defs>
      <use xlink:href="#DejaVuSans-99"/>
      <use x="54.980469" xlink:href="#DejaVuSans-111"/>
      <use x="116.162109" xlink:href="#DejaVuSans-118"/>
      <use x="175.341797" xlink:href="#DejaVuSans-105"/>
      <use x="203.125" xlink:href="#DejaVuSans-100"/>
      <use x="266.601562" xlink:href="#DejaVuSans-32"/>
      <use x="298.388672" xlink:href="#DejaVuSans-98"/>
      <use x="361.865234" xlink:href="#DejaVuSans-101"/>
      <use x="423.388672" xlink:href="#DejaVuSans-122"/>
      <use x="475.878906" xlink:href="#DejaVuSans-101"/>
      <use x="537.402344" xlink:href="#DejaVuSans-116"/>
      <use x="576.611328" xlink:href="#DejaVuSans-116"/>
      <use x="615.820312" xlink:href="#DejaVuSans-101"/>
      <use x="677.34375" xlink:href="#DejaVuSans-32"/>
      <use x="709.130859" xlink:href="#DejaVuSans-98"/>
      <use x="772.607422" xlink:href="#DejaVuSans-101"/>
      <use x="834.130859" xlink:href="#DejaVuSans-100"/>
      <use x="897.607422" xlink:href="#DejaVuSans-100"/>
      <use x="961.083984" xlink:href="#DejaVuSans-101"/>
      <use x="1022.607422" xlink:href="#DejaVuSans-110"/>
      <use x="1085.986328" xlink:href="#DejaVuSans-32"/>
      <use x="1117.773438" xlink:href="#DejaVuSans-76"/>
      <use x="1173.486328" xlink:href="#DejaVuSans-67"/>
      <use x="1243.310547" xlink:href="#DejaVuSans-80"/>
      <use x="1303.613281" xlink:href="#DejaVuSans-83"/>
      <use x="1367.089844" xlink:href="#DejaVuSans-32"/>
      <use x="1398.876953" xlink:href="#DejaVuSans-40"/>
      <use x="1437.890625" xlink:href="#DejaVuSans-110"/>
      <use x="1501.269531" xlink:href="#DejaVuSans-117"/>
      <use x="1564.648438" xlink:href="#DejaVuSans-32"/>
      <use x="1596.435547" xlink:href="#DejaVuSans-49"/>
      <use x="1660.058594" xlink:href="#DejaVuSans-54"/>
      <use x="1723.681641" xlink:href="#DejaVuSans-51"/>
      <use x="1787.304688" xlink:href="#DejaVuSans-51"/>
      <use x="1850.927734" xlink:href="#DejaVuSans-41"/>
     </g>
    </g>
    <g id="line2d_45">
     <path d="M 99 85.654687 
L 119 85.654687 
" style="fill:none;stroke:#0000ff;stroke-linecap:square;stroke-width:1.5;"/>
    </g>
    <g id="line2d_46"/>
    <g id="text_23">
     <!-- non-covid bezette IC bedden LCPS (nu 459) -->
     <g transform="translate(127 89.154687)scale(0.1 -0.1)">
      <use xlink:href="#DejaVuSans-110"/>
      <use x="63.378906" xlink:href="#DejaVuSans-111"/>
      <use x="124.560547" xlink:href="#DejaVuSans-110"/>
      <use x="187.939453" xlink:href="#DejaVuSans-45"/>
      <use x="224.023438" xlink:href="#DejaVuSans-99"/>
      <use x="279.003906" xlink:href="#DejaVuSans-111"/>
      <use x="340.185547" xlink:href="#DejaVuSans-118"/>
      <use x="399.365234" xlink:href="#DejaVuSans-105"/>
      <use x="427.148438" xlink:href="#DejaVuSans-100"/>
      <use x="490.625" xlink:href="#DejaVuSans-32"/>
      <use x="522.412109" xlink:href="#DejaVuSans-98"/>
      <use x="585.888672" xlink:href="#DejaVuSans-101"/>
      <use x="647.412109" xlink:href="#DejaVuSans-122"/>
      <use x="699.902344" xlink:href="#DejaVuSans-101"/>
      <use x="761.425781" xlink:href="#DejaVuSans-116"/>
      <use x="800.634766" xlink:href="#DejaVuSans-116"/>
      <use x="839.84375" xlink:href="#DejaVuSans-101"/>
      <use x="901.367188" xlink:href="#DejaVuSans-32"/>
      <use x="933.154297" xlink:href="#DejaVuSans-73"/>
      <use x="962.646484" xlink:href="#DejaVuSans-67"/>
      <use x="1032.470703" xlink:href="#DejaVuSans-32"/>
      <use x="1064.257812" xlink:href="#DejaVuSans-98"/>
      <use x="1127.734375" xlink:href="#DejaVuSans-101"/>
      <use x="1189.257812" xlink:href="#DejaVuSans-100"/>
      <use x="1252.734375" xlink:href="#DejaVuSans-100"/>
      <use x="1316.210938" xlink:href="#DejaVuSans-101"/>
      <use x="1377.734375" xlink:href="#DejaVuSans-110"/>
      <use x="1441.113281" xlink:href="#DejaVuSans-32"/>
      <use x="1472.900391" xlink:href="#DejaVuSans-76"/>
      <use x="1528.613281" xlink:href="#DejaVuSans-67"/>
      <use x="1598.4375" xlink:href="#DejaVuSans-80"/>
      <use x="1658.740234" xlink:href="#DejaVuSans-83"/>
      <use x="1722.216797" xlink:href="#DejaVuSans-32"/>
      <use x="1754.003906" xlink:href="#DejaVuSans-40"/>
      <use x="1793.017578" xlink:href="#DejaVuSans-110"/>
      <use x="1856.396484" xlink:href="#DejaVuSans-117"/>
      <use x="1919.775391" xlink:href="#DejaVuSans-32"/>
      <use x="1951.5625" xlink:href="#DejaVuSans-52"/>
      <use x="2015.185547" xlink:href="#DejaVuSans-53"/>
      <use x="2078.808594" xlink:href="#DejaVuSans-57"/>
      <use x="2142.431641" xlink:href="#DejaVuSans-41"/>
     </g>
    </g>
    <g id="line2d_47">
     <path d="M 99 100.332812 
L 119 100.332812 
" style="fill:none;stroke:#00ffff;stroke-linecap:square;stroke-width:1.5;"/>
    </g>
    <g id="line2d_48"/>
    <g id="text_24">
     <!-- covid bezette IC bedden LCPS (nu 673) -->
     <g transform="translate(127 103.832812)scale(0.1 -0.1)">
      <use xlink:href="#DejaVuSans-99"/>
      <use x="54.980469" xlink:href="#DejaVuSans-111"/>
      <use x="116.162109" xlink:href="#DejaVuSans-118"/>
      <use x="175.341797" xlink:href="#DejaVuSans-105"/>
      <use x="203.125" xlink:href="#DejaVuSans-100"/>
      <use x="266.601562" xlink:href="#DejaVuSans-32"/>
      <use x="298.388672" xlink:href="#DejaVuSans-98"/>
      <use x="361.865234" xlink:href="#DejaVuSans-101"/>
      <use x="423.388672" xlink:href="#DejaVuSans-122"/>
      <use x="475.878906" xlink:href="#DejaVuSans-101"/>
      <use x="537.402344" xlink:href="#DejaVuSans-116"/>
      <use x="576.611328" xlink:href="#DejaVuSans-116"/>
      <use x="615.820312" xlink:href="#DejaVuSans-101"/>
      <use x="677.34375" xlink:href="#DejaVuSans-32"/>
      <use x="709.130859" xlink:href="#DejaVuSans-73"/>
      <use x="738.623047" xlink:href="#DejaVuSans-67"/>
      <use x="808.447266" xlink:href="#DejaVuSans-32"/>
      <use x="840.234375" xlink:href="#DejaVuSans-98"/>
      <use x="903.710938" xlink:href="#DejaVuSans-101"/>
      <use x="965.234375" xlink:href="#DejaVuSans-100"/>
      <use x="1028.710938" xlink:href="#DejaVuSans-100"/>
      <use x="1092.1875" xlink:href="#DejaVuSans-101"/>
      <use x="1153.710938" xlink:href="#DejaVuSans-110"/>
      <use x="1217.089844" xlink:href="#DejaVuSans-32"/>
      <use x="1248.876953" xlink:href="#DejaVuSans-76"/>
      <use x="1304.589844" xlink:href="#DejaVuSans-67"/>
      <use x="1374.414062" xlink:href="#DejaVuSans-80"/>
      <use x="1434.716797" xlink:href="#DejaVuSans-83"/>
      <use x="1498.193359" xlink:href="#DejaVuSans-32"/>
      <use x="1529.980469" xlink:href="#DejaVuSans-40"/>
      <use x="1568.994141" xlink:href="#DejaVuSans-110"/>
      <use x="1632.373047" xlink:href="#DejaVuSans-117"/>
      <use x="1695.751953" xlink:href="#DejaVuSans-32"/>
      <use x="1727.539062" xlink:href="#DejaVuSans-54"/>
      <use x="1791.162109" xlink:href="#DejaVuSans-55"/>
      <use x="1854.785156" xlink:href="#DejaVuSans-51"/>
      <use x="1918.408203" xlink:href="#DejaVuSans-41"/>
     </g>
    </g>
   </g>
  </g>
 </g>
 <defs>
  <clipPath id="p0f223a4d05">
   <rect height="277.2" width="558" x="90" y="43.2"/>
  </clipPath>
 </defs>
</svg>
