<?xml version="1.0" encoding="utf-8" standalone="no"?>
<!DOCTYPE svg PUBLIC "-//W3C//DTD SVG 1.1//EN"
  "http://www.w3.org/Graphics/SVG/1.1/DTD/svg11.dtd">
<!-- Created with matplotlib (https://matplotlib.org/) -->
<svg height="360pt" version="1.1" viewBox="0 0 720 360" width="720pt" xmlns="http://www.w3.org/2000/svg" xmlns:xlink="http://www.w3.org/1999/xlink">
 <metadata>
  <rdf:RDF xmlns:cc="http://creativecommons.org/ns#" xmlns:dc="http://purl.org/dc/elements/1.1/" xmlns:rdf="http://www.w3.org/1999/02/22-rdf-syntax-ns#">
   <cc:Work>
    <dc:type rdf:resource="http://purl.org/dc/dcmitype/StillImage"/>
    <dc:date>2021-09-06T15:44:29.223799</dc:date>
    <dc:format>image/svg+xml</dc:format>
    <dc:creator>
     <cc:Agent>
      <dc:title>Matplotlib v3.3.2, https://matplotlib.org/</dc:title>
     </cc:Agent>
    </dc:creator>
   </cc:Work>
  </rdf:RDF>
 </metadata>
 <defs>
  <style type="text/css">*{stroke-linecap:butt;stroke-linejoin:round;}</style>
 </defs>
 <g id="figure_1">
  <g id="patch_1">
   <path d="M 0 360 
L 720 360 
L 720 0 
L 0 0 
z
" style="fill:#ffffff;"/>
  </g>
  <g id="axes_1">
   <g id="patch_2">
    <path d="M 90 320.4 
L 648 320.4 
L 648 43.2 
L 90 43.2 
z
" style="fill:#ffffff;"/>
   </g>
   <g id="matplotlib.axis_1">
    <g id="xtick_1">
     <g id="line2d_1">
      <path clip-path="url(#pa736094022)" d="M 118.095805 320.4 
L 118.095805 43.2 
" style="fill:none;stroke:#808080;stroke-dasharray:6.4,1.6,1,1.6;stroke-dashoffset:0;stroke-opacity:0.3;"/>
     </g>
     <g id="line2d_2">
      <defs>
       <path d="M 0 0 
L 0 3.5 
" id="m968dbcee96" style="stroke:#000000;stroke-width:0.8;"/>
      </defs>
      <g>
       <use style="stroke:#000000;stroke-width:0.8;" x="118.095805" xlink:href="#m968dbcee96" y="320.4"/>
      </g>
     </g>
     <g id="text_1">
      <!-- 2020-03 -->
      <g transform="translate(97.204399 334.998438)scale(0.1 -0.1)">
       <defs>
        <path d="M 19.1875 8.296875 
L 53.609375 8.296875 
L 53.609375 0 
L 7.328125 0 
L 7.328125 8.296875 
Q 12.9375 14.109375 22.625 23.890625 
Q 32.328125 33.6875 34.8125 36.53125 
Q 39.546875 41.84375 41.421875 45.53125 
Q 43.3125 49.21875 43.3125 52.78125 
Q 43.3125 58.59375 39.234375 62.25 
Q 35.15625 65.921875 28.609375 65.921875 
Q 23.96875 65.921875 18.8125 64.3125 
Q 13.671875 62.703125 7.8125 59.421875 
L 7.8125 69.390625 
Q 13.765625 71.78125 18.9375 73 
Q 24.125 74.21875 28.421875 74.21875 
Q 39.75 74.21875 46.484375 68.546875 
Q 53.21875 62.890625 53.21875 53.421875 
Q 53.21875 48.921875 51.53125 44.890625 
Q 49.859375 40.875 45.40625 35.40625 
Q 44.1875 33.984375 37.640625 27.21875 
Q 31.109375 20.453125 19.1875 8.296875 
z
" id="DejaVuSans-50"/>
        <path d="M 31.78125 66.40625 
Q 24.171875 66.40625 20.328125 58.90625 
Q 16.5 51.421875 16.5 36.375 
Q 16.5 21.390625 20.328125 13.890625 
Q 24.171875 6.390625 31.78125 6.390625 
Q 39.453125 6.390625 43.28125 13.890625 
Q 47.125 21.390625 47.125 36.375 
Q 47.125 51.421875 43.28125 58.90625 
Q 39.453125 66.40625 31.78125 66.40625 
z
M 31.78125 74.21875 
Q 44.046875 74.21875 50.515625 64.515625 
Q 56.984375 54.828125 56.984375 36.375 
Q 56.984375 17.96875 50.515625 8.265625 
Q 44.046875 -1.421875 31.78125 -1.421875 
Q 19.53125 -1.421875 13.0625 8.265625 
Q 6.59375 17.96875 6.59375 36.375 
Q 6.59375 54.828125 13.0625 64.515625 
Q 19.53125 74.21875 31.78125 74.21875 
z
" id="DejaVuSans-48"/>
        <path d="M 4.890625 31.390625 
L 31.203125 31.390625 
L 31.203125 23.390625 
L 4.890625 23.390625 
z
" id="DejaVuSans-45"/>
        <path d="M 40.578125 39.3125 
Q 47.65625 37.796875 51.625 33 
Q 55.609375 28.21875 55.609375 21.1875 
Q 55.609375 10.40625 48.1875 4.484375 
Q 40.765625 -1.421875 27.09375 -1.421875 
Q 22.515625 -1.421875 17.65625 -0.515625 
Q 12.796875 0.390625 7.625 2.203125 
L 7.625 11.71875 
Q 11.71875 9.328125 16.59375 8.109375 
Q 21.484375 6.890625 26.8125 6.890625 
Q 36.078125 6.890625 40.9375 10.546875 
Q 45.796875 14.203125 45.796875 21.1875 
Q 45.796875 27.640625 41.28125 31.265625 
Q 36.765625 34.90625 28.71875 34.90625 
L 20.21875 34.90625 
L 20.21875 43.015625 
L 29.109375 43.015625 
Q 36.375 43.015625 40.234375 45.921875 
Q 44.09375 48.828125 44.09375 54.296875 
Q 44.09375 59.90625 40.109375 62.90625 
Q 36.140625 65.921875 28.71875 65.921875 
Q 24.65625 65.921875 20.015625 65.03125 
Q 15.375 64.15625 9.8125 62.3125 
L 9.8125 71.09375 
Q 15.4375 72.65625 20.34375 73.4375 
Q 25.25 74.21875 29.59375 74.21875 
Q 40.828125 74.21875 47.359375 69.109375 
Q 53.90625 64.015625 53.90625 55.328125 
Q 53.90625 49.265625 50.4375 45.09375 
Q 46.96875 40.921875 40.578125 39.3125 
z
" id="DejaVuSans-51"/>
       </defs>
       <use xlink:href="#DejaVuSans-50"/>
       <use x="63.623047" xlink:href="#DejaVuSans-48"/>
       <use x="127.246094" xlink:href="#DejaVuSans-50"/>
       <use x="190.869141" xlink:href="#DejaVuSans-48"/>
       <use x="254.492188" xlink:href="#DejaVuSans-45"/>
       <use x="290.576172" xlink:href="#DejaVuSans-48"/>
       <use x="354.199219" xlink:href="#DejaVuSans-51"/>
      </g>
     </g>
    </g>
    <g id="xtick_2">
     <g id="line2d_3">
      <path clip-path="url(#pa736094022)" d="M 173.64991 320.4 
L 173.64991 43.2 
" style="fill:none;stroke:#808080;stroke-dasharray:6.4,1.6,1,1.6;stroke-dashoffset:0;stroke-opacity:0.3;"/>
     </g>
     <g id="line2d_4">
      <g>
       <use style="stroke:#000000;stroke-width:0.8;" x="173.64991" xlink:href="#m968dbcee96" y="320.4"/>
      </g>
     </g>
     <g id="text_2">
      <!-- 2020-05 -->
      <g transform="translate(152.758504 334.998438)scale(0.1 -0.1)">
       <defs>
        <path d="M 10.796875 72.90625 
L 49.515625 72.90625 
L 49.515625 64.59375 
L 19.828125 64.59375 
L 19.828125 46.734375 
Q 21.96875 47.46875 24.109375 47.828125 
Q 26.265625 48.1875 28.421875 48.1875 
Q 40.625 48.1875 47.75 41.5 
Q 54.890625 34.8125 54.890625 23.390625 
Q 54.890625 11.625 47.5625 5.09375 
Q 40.234375 -1.421875 26.90625 -1.421875 
Q 22.3125 -1.421875 17.546875 -0.640625 
Q 12.796875 0.140625 7.71875 1.703125 
L 7.71875 11.625 
Q 12.109375 9.234375 16.796875 8.0625 
Q 21.484375 6.890625 26.703125 6.890625 
Q 35.15625 6.890625 40.078125 11.328125 
Q 45.015625 15.765625 45.015625 23.390625 
Q 45.015625 31 40.078125 35.4375 
Q 35.15625 39.890625 26.703125 39.890625 
Q 22.75 39.890625 18.8125 39.015625 
Q 14.890625 38.140625 10.796875 36.28125 
z
" id="DejaVuSans-53"/>
       </defs>
       <use xlink:href="#DejaVuSans-50"/>
       <use x="63.623047" xlink:href="#DejaVuSans-48"/>
       <use x="127.246094" xlink:href="#DejaVuSans-50"/>
       <use x="190.869141" xlink:href="#DejaVuSans-48"/>
       <use x="254.492188" xlink:href="#DejaVuSans-45"/>
       <use x="290.576172" xlink:href="#DejaVuSans-48"/>
       <use x="354.199219" xlink:href="#DejaVuSans-53"/>
      </g>
     </g>
    </g>
    <g id="xtick_3">
     <g id="line2d_5">
      <path clip-path="url(#pa736094022)" d="M 229.204015 320.4 
L 229.204015 43.2 
" style="fill:none;stroke:#808080;stroke-dasharray:6.4,1.6,1,1.6;stroke-dashoffset:0;stroke-opacity:0.3;"/>
     </g>
     <g id="line2d_6">
      <g>
       <use style="stroke:#000000;stroke-width:0.8;" x="229.204015" xlink:href="#m968dbcee96" y="320.4"/>
      </g>
     </g>
     <g id="text_3">
      <!-- 2020-07 -->
      <g transform="translate(208.312609 334.998438)scale(0.1 -0.1)">
       <defs>
        <path d="M 8.203125 72.90625 
L 55.078125 72.90625 
L 55.078125 68.703125 
L 28.609375 0 
L 18.3125 0 
L 43.21875 64.59375 
L 8.203125 64.59375 
z
" id="DejaVuSans-55"/>
       </defs>
       <use xlink:href="#DejaVuSans-50"/>
       <use x="63.623047" xlink:href="#DejaVuSans-48"/>
       <use x="127.246094" xlink:href="#DejaVuSans-50"/>
       <use x="190.869141" xlink:href="#DejaVuSans-48"/>
       <use x="254.492188" xlink:href="#DejaVuSans-45"/>
       <use x="290.576172" xlink:href="#DejaVuSans-48"/>
       <use x="354.199219" xlink:href="#DejaVuSans-55"/>
      </g>
     </g>
    </g>
    <g id="xtick_4">
     <g id="line2d_7">
      <path clip-path="url(#pa736094022)" d="M 285.668843 320.4 
L 285.668843 43.2 
" style="fill:none;stroke:#808080;stroke-dasharray:6.4,1.6,1,1.6;stroke-dashoffset:0;stroke-opacity:0.3;"/>
     </g>
     <g id="line2d_8">
      <g>
       <use style="stroke:#000000;stroke-width:0.8;" x="285.668843" xlink:href="#m968dbcee96" y="320.4"/>
      </g>
     </g>
     <g id="text_4">
      <!-- 2020-09 -->
      <g transform="translate(264.777437 334.998438)scale(0.1 -0.1)">
       <defs>
        <path d="M 10.984375 1.515625 
L 10.984375 10.5 
Q 14.703125 8.734375 18.5 7.8125 
Q 22.3125 6.890625 25.984375 6.890625 
Q 35.75 6.890625 40.890625 13.453125 
Q 46.046875 20.015625 46.78125 33.40625 
Q 43.953125 29.203125 39.59375 26.953125 
Q 35.25 24.703125 29.984375 24.703125 
Q 19.046875 24.703125 12.671875 31.3125 
Q 6.296875 37.9375 6.296875 49.421875 
Q 6.296875 60.640625 12.9375 67.421875 
Q 19.578125 74.21875 30.609375 74.21875 
Q 43.265625 74.21875 49.921875 64.515625 
Q 56.59375 54.828125 56.59375 36.375 
Q 56.59375 19.140625 48.40625 8.859375 
Q 40.234375 -1.421875 26.421875 -1.421875 
Q 22.703125 -1.421875 18.890625 -0.6875 
Q 15.09375 0.046875 10.984375 1.515625 
z
M 30.609375 32.421875 
Q 37.25 32.421875 41.125 36.953125 
Q 45.015625 41.5 45.015625 49.421875 
Q 45.015625 57.28125 41.125 61.84375 
Q 37.25 66.40625 30.609375 66.40625 
Q 23.96875 66.40625 20.09375 61.84375 
Q 16.21875 57.28125 16.21875 49.421875 
Q 16.21875 41.5 20.09375 36.953125 
Q 23.96875 32.421875 30.609375 32.421875 
z
" id="DejaVuSans-57"/>
       </defs>
       <use xlink:href="#DejaVuSans-50"/>
       <use x="63.623047" xlink:href="#DejaVuSans-48"/>
       <use x="127.246094" xlink:href="#DejaVuSans-50"/>
       <use x="190.869141" xlink:href="#DejaVuSans-48"/>
       <use x="254.492188" xlink:href="#DejaVuSans-45"/>
       <use x="290.576172" xlink:href="#DejaVuSans-48"/>
       <use x="354.199219" xlink:href="#DejaVuSans-57"/>
      </g>
     </g>
    </g>
    <g id="xtick_5">
     <g id="line2d_9">
      <path clip-path="url(#pa736094022)" d="M 341.222948 320.4 
L 341.222948 43.2 
" style="fill:none;stroke:#808080;stroke-dasharray:6.4,1.6,1,1.6;stroke-dashoffset:0;stroke-opacity:0.3;"/>
     </g>
     <g id="line2d_10">
      <g>
       <use style="stroke:#000000;stroke-width:0.8;" x="341.222948" xlink:href="#m968dbcee96" y="320.4"/>
      </g>
     </g>
     <g id="text_5">
      <!-- 2020-11 -->
      <g transform="translate(320.331541 334.998438)scale(0.1 -0.1)">
       <defs>
        <path d="M 12.40625 8.296875 
L 28.515625 8.296875 
L 28.515625 63.921875 
L 10.984375 60.40625 
L 10.984375 69.390625 
L 28.421875 72.90625 
L 38.28125 72.90625 
L 38.28125 8.296875 
L 54.390625 8.296875 
L 54.390625 0 
L 12.40625 0 
z
" id="DejaVuSans-49"/>
       </defs>
       <use xlink:href="#DejaVuSans-50"/>
       <use x="63.623047" xlink:href="#DejaVuSans-48"/>
       <use x="127.246094" xlink:href="#DejaVuSans-50"/>
       <use x="190.869141" xlink:href="#DejaVuSans-48"/>
       <use x="254.492188" xlink:href="#DejaVuSans-45"/>
       <use x="290.576172" xlink:href="#DejaVuSans-49"/>
       <use x="354.199219" xlink:href="#DejaVuSans-49"/>
      </g>
     </g>
    </g>
    <g id="xtick_6">
     <g id="line2d_11">
      <path clip-path="url(#pa736094022)" d="M 396.777052 320.4 
L 396.777052 43.2 
" style="fill:none;stroke:#808080;stroke-dasharray:6.4,1.6,1,1.6;stroke-dashoffset:0;stroke-opacity:0.3;"/>
     </g>
     <g id="line2d_12">
      <g>
       <use style="stroke:#000000;stroke-width:0.8;" x="396.777052" xlink:href="#m968dbcee96" y="320.4"/>
      </g>
     </g>
     <g id="text_6">
      <!-- 2021-01 -->
      <g transform="translate(375.885646 334.998438)scale(0.1 -0.1)">
       <use xlink:href="#DejaVuSans-50"/>
       <use x="63.623047" xlink:href="#DejaVuSans-48"/>
       <use x="127.246094" xlink:href="#DejaVuSans-50"/>
       <use x="190.869141" xlink:href="#DejaVuSans-49"/>
       <use x="254.492188" xlink:href="#DejaVuSans-45"/>
       <use x="290.576172" xlink:href="#DejaVuSans-48"/>
       <use x="354.199219" xlink:href="#DejaVuSans-49"/>
      </g>
     </g>
    </g>
    <g id="xtick_7">
     <g id="line2d_13">
      <path clip-path="url(#pa736094022)" d="M 450.509711 320.4 
L 450.509711 43.2 
" style="fill:none;stroke:#808080;stroke-dasharray:6.4,1.6,1,1.6;stroke-dashoffset:0;stroke-opacity:0.3;"/>
     </g>
     <g id="line2d_14">
      <g>
       <use style="stroke:#000000;stroke-width:0.8;" x="450.509711" xlink:href="#m968dbcee96" y="320.4"/>
      </g>
     </g>
     <g id="text_7">
      <!-- 2021-03 -->
      <g transform="translate(429.618305 334.998438)scale(0.1 -0.1)">
       <use xlink:href="#DejaVuSans-50"/>
       <use x="63.623047" xlink:href="#DejaVuSans-48"/>
       <use x="127.246094" xlink:href="#DejaVuSans-50"/>
       <use x="190.869141" xlink:href="#DejaVuSans-49"/>
       <use x="254.492188" xlink:href="#DejaVuSans-45"/>
       <use x="290.576172" xlink:href="#DejaVuSans-48"/>
       <use x="354.199219" xlink:href="#DejaVuSans-51"/>
      </g>
     </g>
    </g>
    <g id="xtick_8">
     <g id="line2d_15">
      <path clip-path="url(#pa736094022)" d="M 506.063816 320.4 
L 506.063816 43.2 
" style="fill:none;stroke:#808080;stroke-dasharray:6.4,1.6,1,1.6;stroke-dashoffset:0;stroke-opacity:0.3;"/>
     </g>
     <g id="line2d_16">
      <g>
       <use style="stroke:#000000;stroke-width:0.8;" x="506.063816" xlink:href="#m968dbcee96" y="320.4"/>
      </g>
     </g>
     <g id="text_8">
      <!-- 2021-05 -->
      <g transform="translate(485.17241 334.998438)scale(0.1 -0.1)">
       <use xlink:href="#DejaVuSans-50"/>
       <use x="63.623047" xlink:href="#DejaVuSans-48"/>
       <use x="127.246094" xlink:href="#DejaVuSans-50"/>
       <use x="190.869141" xlink:href="#DejaVuSans-49"/>
       <use x="254.492188" xlink:href="#DejaVuSans-45"/>
       <use x="290.576172" xlink:href="#DejaVuSans-48"/>
       <use x="354.199219" xlink:href="#DejaVuSans-53"/>
      </g>
     </g>
    </g>
    <g id="xtick_9">
     <g id="line2d_17">
      <path clip-path="url(#pa736094022)" d="M 561.617921 320.4 
L 561.617921 43.2 
" style="fill:none;stroke:#808080;stroke-dasharray:6.4,1.6,1,1.6;stroke-dashoffset:0;stroke-opacity:0.3;"/>
     </g>
     <g id="line2d_18">
      <g>
       <use style="stroke:#000000;stroke-width:0.8;" x="561.617921" xlink:href="#m968dbcee96" y="320.4"/>
      </g>
     </g>
     <g id="text_9">
      <!-- 2021-07 -->
      <g transform="translate(540.726514 334.998438)scale(0.1 -0.1)">
       <use xlink:href="#DejaVuSans-50"/>
       <use x="63.623047" xlink:href="#DejaVuSans-48"/>
       <use x="127.246094" xlink:href="#DejaVuSans-50"/>
       <use x="190.869141" xlink:href="#DejaVuSans-49"/>
       <use x="254.492188" xlink:href="#DejaVuSans-45"/>
       <use x="290.576172" xlink:href="#DejaVuSans-48"/>
       <use x="354.199219" xlink:href="#DejaVuSans-55"/>
      </g>
     </g>
    </g>
    <g id="xtick_10">
     <g id="line2d_19">
      <path clip-path="url(#pa736094022)" d="M 618.082748 320.4 
L 618.082748 43.2 
" style="fill:none;stroke:#808080;stroke-dasharray:6.4,1.6,1,1.6;stroke-dashoffset:0;stroke-opacity:0.3;"/>
     </g>
     <g id="line2d_20">
      <g>
       <use style="stroke:#000000;stroke-width:0.8;" x="618.082748" xlink:href="#m968dbcee96" y="320.4"/>
      </g>
     </g>
     <g id="text_10">
      <!-- 2021-09 -->
      <g transform="translate(597.191342 334.998438)scale(0.1 -0.1)">
       <use xlink:href="#DejaVuSans-50"/>
       <use x="63.623047" xlink:href="#DejaVuSans-48"/>
       <use x="127.246094" xlink:href="#DejaVuSans-50"/>
       <use x="190.869141" xlink:href="#DejaVuSans-49"/>
       <use x="254.492188" xlink:href="#DejaVuSans-45"/>
       <use x="290.576172" xlink:href="#DejaVuSans-48"/>
       <use x="354.199219" xlink:href="#DejaVuSans-57"/>
      </g>
     </g>
    </g>
    <g id="text_11">
     <!-- Datum -->
     <g transform="translate(352.086719 348.676562)scale(0.1 -0.1)">
      <defs>
       <path d="M 19.671875 64.796875 
L 19.671875 8.109375 
L 31.59375 8.109375 
Q 46.6875 8.109375 53.6875 14.9375 
Q 60.6875 21.78125 60.6875 36.53125 
Q 60.6875 51.171875 53.6875 57.984375 
Q 46.6875 64.796875 31.59375 64.796875 
z
M 9.8125 72.90625 
L 30.078125 72.90625 
Q 51.265625 72.90625 61.171875 64.09375 
Q 71.09375 55.28125 71.09375 36.53125 
Q 71.09375 17.671875 61.125 8.828125 
Q 51.171875 0 30.078125 0 
L 9.8125 0 
z
" id="DejaVuSans-68"/>
       <path d="M 34.28125 27.484375 
Q 23.390625 27.484375 19.1875 25 
Q 14.984375 22.515625 14.984375 16.5 
Q 14.984375 11.71875 18.140625 8.90625 
Q 21.296875 6.109375 26.703125 6.109375 
Q 34.1875 6.109375 38.703125 11.40625 
Q 43.21875 16.703125 43.21875 25.484375 
L 43.21875 27.484375 
z
M 52.203125 31.203125 
L 52.203125 0 
L 43.21875 0 
L 43.21875 8.296875 
Q 40.140625 3.328125 35.546875 0.953125 
Q 30.953125 -1.421875 24.3125 -1.421875 
Q 15.921875 -1.421875 10.953125 3.296875 
Q 6 8.015625 6 15.921875 
Q 6 25.140625 12.171875 29.828125 
Q 18.359375 34.515625 30.609375 34.515625 
L 43.21875 34.515625 
L 43.21875 35.40625 
Q 43.21875 41.609375 39.140625 45 
Q 35.0625 48.390625 27.6875 48.390625 
Q 23 48.390625 18.546875 47.265625 
Q 14.109375 46.140625 10.015625 43.890625 
L 10.015625 52.203125 
Q 14.9375 54.109375 19.578125 55.046875 
Q 24.21875 56 28.609375 56 
Q 40.484375 56 46.34375 49.84375 
Q 52.203125 43.703125 52.203125 31.203125 
z
" id="DejaVuSans-97"/>
       <path d="M 18.3125 70.21875 
L 18.3125 54.6875 
L 36.8125 54.6875 
L 36.8125 47.703125 
L 18.3125 47.703125 
L 18.3125 18.015625 
Q 18.3125 11.328125 20.140625 9.421875 
Q 21.96875 7.515625 27.59375 7.515625 
L 36.8125 7.515625 
L 36.8125 0 
L 27.59375 0 
Q 17.1875 0 13.234375 3.875 
Q 9.28125 7.765625 9.28125 18.015625 
L 9.28125 47.703125 
L 2.6875 47.703125 
L 2.6875 54.6875 
L 9.28125 54.6875 
L 9.28125 70.21875 
z
" id="DejaVuSans-116"/>
       <path d="M 8.5 21.578125 
L 8.5 54.6875 
L 17.484375 54.6875 
L 17.484375 21.921875 
Q 17.484375 14.15625 20.5 10.265625 
Q 23.53125 6.390625 29.59375 6.390625 
Q 36.859375 6.390625 41.078125 11.03125 
Q 45.3125 15.671875 45.3125 23.6875 
L 45.3125 54.6875 
L 54.296875 54.6875 
L 54.296875 0 
L 45.3125 0 
L 45.3125 8.40625 
Q 42.046875 3.421875 37.71875 1 
Q 33.40625 -1.421875 27.6875 -1.421875 
Q 18.265625 -1.421875 13.375 4.4375 
Q 8.5 10.296875 8.5 21.578125 
z
M 31.109375 56 
z
" id="DejaVuSans-117"/>
       <path d="M 52 44.1875 
Q 55.375 50.25 60.0625 53.125 
Q 64.75 56 71.09375 56 
Q 79.640625 56 84.28125 50.015625 
Q 88.921875 44.046875 88.921875 33.015625 
L 88.921875 0 
L 79.890625 0 
L 79.890625 32.71875 
Q 79.890625 40.578125 77.09375 44.375 
Q 74.3125 48.1875 68.609375 48.1875 
Q 61.625 48.1875 57.5625 43.546875 
Q 53.515625 38.921875 53.515625 30.90625 
L 53.515625 0 
L 44.484375 0 
L 44.484375 32.71875 
Q 44.484375 40.625 41.703125 44.40625 
Q 38.921875 48.1875 33.109375 48.1875 
Q 26.21875 48.1875 22.15625 43.53125 
Q 18.109375 38.875 18.109375 30.90625 
L 18.109375 0 
L 9.078125 0 
L 9.078125 54.6875 
L 18.109375 54.6875 
L 18.109375 46.1875 
Q 21.1875 51.21875 25.484375 53.609375 
Q 29.78125 56 35.6875 56 
Q 41.65625 56 45.828125 52.96875 
Q 50 49.953125 52 44.1875 
z
" id="DejaVuSans-109"/>
      </defs>
      <use xlink:href="#DejaVuSans-68"/>
      <use x="77.001953" xlink:href="#DejaVuSans-97"/>
      <use x="138.28125" xlink:href="#DejaVuSans-116"/>
      <use x="177.490234" xlink:href="#DejaVuSans-117"/>
      <use x="240.869141" xlink:href="#DejaVuSans-109"/>
     </g>
    </g>
   </g>
   <g id="matplotlib.axis_2">
    <g id="ytick_1">
     <g id="line2d_21">
      <path clip-path="url(#pa736094022)" d="M 90 307.876759 
L 648 307.876759 
" style="fill:none;stroke:#808080;stroke-dasharray:6.4,1.6,1,1.6;stroke-dashoffset:0;stroke-opacity:0.3;"/>
     </g>
     <g id="line2d_22">
      <defs>
       <path d="M 0 0 
L -3.5 0 
" id="m837b4c7b19" style="stroke:#000000;stroke-width:0.8;"/>
      </defs>
      <g>
       <use style="stroke:#000000;stroke-width:0.8;" x="90" xlink:href="#m837b4c7b19" y="307.876759"/>
      </g>
     </g>
     <g id="text_12">
      <!-- 0 -->
      <g transform="translate(76.6375 311.675978)scale(0.1 -0.1)">
       <use xlink:href="#DejaVuSans-48"/>
      </g>
     </g>
    </g>
    <g id="ytick_2">
     <g id="line2d_23">
      <path clip-path="url(#pa736094022)" d="M 90 269.497228 
L 648 269.497228 
" style="fill:none;stroke:#808080;stroke-dasharray:6.4,1.6,1,1.6;stroke-dashoffset:0;stroke-opacity:0.3;"/>
     </g>
     <g id="line2d_24">
      <g>
       <use style="stroke:#000000;stroke-width:0.8;" x="90" xlink:href="#m837b4c7b19" y="269.497228"/>
      </g>
     </g>
     <g id="text_13">
      <!-- 500 -->
      <g transform="translate(63.9125 273.296447)scale(0.1 -0.1)">
       <use xlink:href="#DejaVuSans-53"/>
       <use x="63.623047" xlink:href="#DejaVuSans-48"/>
       <use x="127.246094" xlink:href="#DejaVuSans-48"/>
      </g>
     </g>
    </g>
    <g id="ytick_3">
     <g id="line2d_25">
      <path clip-path="url(#pa736094022)" d="M 90 231.117697 
L 648 231.117697 
" style="fill:none;stroke:#808080;stroke-dasharray:6.4,1.6,1,1.6;stroke-dashoffset:0;stroke-opacity:0.3;"/>
     </g>
     <g id="line2d_26">
      <g>
       <use style="stroke:#000000;stroke-width:0.8;" x="90" xlink:href="#m837b4c7b19" y="231.117697"/>
      </g>
     </g>
     <g id="text_14">
      <!-- 1000 -->
      <g transform="translate(57.55 234.916916)scale(0.1 -0.1)">
       <use xlink:href="#DejaVuSans-49"/>
       <use x="63.623047" xlink:href="#DejaVuSans-48"/>
       <use x="127.246094" xlink:href="#DejaVuSans-48"/>
       <use x="190.869141" xlink:href="#DejaVuSans-48"/>
      </g>
     </g>
    </g>
    <g id="ytick_4">
     <g id="line2d_27">
      <path clip-path="url(#pa736094022)" d="M 90 192.738166 
L 648 192.738166 
" style="fill:none;stroke:#808080;stroke-dasharray:6.4,1.6,1,1.6;stroke-dashoffset:0;stroke-opacity:0.3;"/>
     </g>
     <g id="line2d_28">
      <g>
       <use style="stroke:#000000;stroke-width:0.8;" x="90" xlink:href="#m837b4c7b19" y="192.738166"/>
      </g>
     </g>
     <g id="text_15">
      <!-- 1500 -->
      <g transform="translate(57.55 196.537385)scale(0.1 -0.1)">
       <use xlink:href="#DejaVuSans-49"/>
       <use x="63.623047" xlink:href="#DejaVuSans-53"/>
       <use x="127.246094" xlink:href="#DejaVuSans-48"/>
       <use x="190.869141" xlink:href="#DejaVuSans-48"/>
      </g>
     </g>
    </g>
    <g id="ytick_5">
     <g id="line2d_29">
      <path clip-path="url(#pa736094022)" d="M 90 154.358635 
L 648 154.358635 
" style="fill:none;stroke:#808080;stroke-dasharray:6.4,1.6,1,1.6;stroke-dashoffset:0;stroke-opacity:0.3;"/>
     </g>
     <g id="line2d_30">
      <g>
       <use style="stroke:#000000;stroke-width:0.8;" x="90" xlink:href="#m837b4c7b19" y="154.358635"/>
      </g>
     </g>
     <g id="text_16">
      <!-- 2000 -->
      <g transform="translate(57.55 158.157854)scale(0.1 -0.1)">
       <use xlink:href="#DejaVuSans-50"/>
       <use x="63.623047" xlink:href="#DejaVuSans-48"/>
       <use x="127.246094" xlink:href="#DejaVuSans-48"/>
       <use x="190.869141" xlink:href="#DejaVuSans-48"/>
      </g>
     </g>
    </g>
    <g id="ytick_6">
     <g id="line2d_31">
      <path clip-path="url(#pa736094022)" d="M 90 115.979104 
L 648 115.979104 
" style="fill:none;stroke:#808080;stroke-dasharray:6.4,1.6,1,1.6;stroke-dashoffset:0;stroke-opacity:0.3;"/>
     </g>
     <g id="line2d_32">
      <g>
       <use style="stroke:#000000;stroke-width:0.8;" x="90" xlink:href="#m837b4c7b19" y="115.979104"/>
      </g>
     </g>
     <g id="text_17">
      <!-- 2500 -->
      <g transform="translate(57.55 119.778323)scale(0.1 -0.1)">
       <use xlink:href="#DejaVuSans-50"/>
       <use x="63.623047" xlink:href="#DejaVuSans-53"/>
       <use x="127.246094" xlink:href="#DejaVuSans-48"/>
       <use x="190.869141" xlink:href="#DejaVuSans-48"/>
      </g>
     </g>
    </g>
    <g id="ytick_7">
     <g id="line2d_33">
      <path clip-path="url(#pa736094022)" d="M 90 77.599574 
L 648 77.599574 
" style="fill:none;stroke:#808080;stroke-dasharray:6.4,1.6,1,1.6;stroke-dashoffset:0;stroke-opacity:0.3;"/>
     </g>
     <g id="line2d_34">
      <g>
       <use style="stroke:#000000;stroke-width:0.8;" x="90" xlink:href="#m837b4c7b19" y="77.599574"/>
      </g>
     </g>
     <g id="text_18">
      <!-- 3000 -->
      <g transform="translate(57.55 81.398792)scale(0.1 -0.1)">
       <use xlink:href="#DejaVuSans-51"/>
       <use x="63.623047" xlink:href="#DejaVuSans-48"/>
       <use x="127.246094" xlink:href="#DejaVuSans-48"/>
       <use x="190.869141" xlink:href="#DejaVuSans-48"/>
      </g>
     </g>
    </g>
   </g>
   <g id="line2d_35">
    <path clip-path="url(#pa736094022)" d="M 115.363636 303.194456 
L 116.274359 302.88742 
L 117.185082 302.88742 
L 118.095805 302.350107 
L 119.006528 301.505757 
L 119.917252 300.968443 
L 120.827975 300.047335 
L 121.738698 299.356503 
L 122.649421 297.97484 
L 123.560144 297.360768 
L 124.470867 295.979104 
L 126.292313 292.21791 
L 127.203036 289.454584 
L 128.113759 286.153945 
L 129.024482 280.857569 
L 129.935205 277.863966 
L 130.845928 274.179531 
L 131.756651 263.970576 
L 132.667374 257.522814 
L 133.578097 247.697655 
L 134.48882 231.655011 
L 135.399543 218.375693 
L 136.310266 212.234968 
L 137.220989 204.405544 
L 138.131712 179.30533 
L 139.042435 159.962047 
L 141.774604 108.14968 
L 142.685327 112.908742 
L 143.59605 116.516418 
L 144.506773 105.309595 
L 145.417496 110.913006 
L 146.328219 118.281876 
L 147.238942 120.047335 
L 148.149665 119.58678 
L 149.060388 135.782942 
L 149.971111 139.544136 
L 150.881835 130.333049 
L 152.703281 151.902345 
L 153.614004 165.41194 
L 154.524727 172.243497 
L 155.43545 186.597441 
L 156.346173 190.895949 
L 157.256896 191.510021 
L 158.167619 190.588913 
L 159.078342 197.266951 
L 159.989065 205.633689 
L 160.899788 208.78081 
L 161.810511 219.757356 
L 162.721234 221.676333 
L 163.631957 218.60597 
L 164.54268 222.213646 
L 165.453403 228.584648 
L 166.364126 231.808529 
L 167.274849 236.107036 
L 168.185572 245.932196 
L 169.096295 248.158209 
L 170.007018 249.232836 
L 170.917741 247.927932 
L 171.828464 252.610235 
L 172.739187 254.529211 
L 173.64991 258.520682 
L 174.560633 264.891684 
L 175.471356 266.119829 
L 176.382079 262.358635 
L 177.292802 267.501493 
L 178.203525 266.350107 
L 179.114248 268.345842 
L 180.024971 268.49936 
L 180.935694 272.183795 
L 181.846417 273.565458 
L 182.757141 271.262687 
L 183.667864 273.488699 
L 184.578587 275.330917 
L 185.48931 278.017484 
L 186.400033 279.629424 
L 187.310756 283.083582 
L 188.221479 282.008955 
L 189.132202 279.552665 
L 190.042925 281.318124 
L 190.953648 282.315991 
L 191.864371 285.002559 
L 192.775094 282.699787 
L 193.685817 285.539872 
L 194.59654 286.153945 
L 195.507263 283.467377 
L 196.417986 284.004691 
L 197.328709 286.307463 
L 198.239432 287.842644 
L 199.150155 287.612367 
L 200.060878 288.917271 
L 200.971601 289.301066 
L 201.882324 288.99403 
L 202.793047 287.30533 
L 203.70377 287.919403 
L 204.614493 289.070789 
L 205.525216 290.452452 
L 206.435939 293.06226 
L 208.257385 293.139019 
L 209.168108 294.6742 
L 210.078831 295.902345 
L 210.989554 295.51855 
L 211.900277 296.209382 
L 212.811 297.667804 
L 213.721724 297.744563 
L 214.632447 297.514286 
L 215.54317 297.514286 
L 216.453893 298.128358 
L 217.364616 298.051599 
L 218.275339 298.358635 
L 219.186062 299.817058 
L 220.096785 299.740299 
L 221.007508 299.510021 
L 221.918231 299.433262 
L 222.828954 299.510021 
L 223.739677 298.895949 
L 224.6504 299.202985 
L 225.561123 300.814925 
L 226.471846 300.661407 
L 227.382569 299.970576 
L 228.293292 301.121962 
L 229.204015 301.27548 
L 230.114738 301.812793 
L 231.025461 301.812793 
L 231.936184 302.503625 
L 234.668353 301.736034 
L 235.579076 301.889552 
L 236.489799 301.889552 
L 237.400522 301.121962 
L 238.311245 301.736034 
L 239.221968 301.736034 
L 240.132691 301.27548 
L 241.043414 301.198721 
L 241.954137 301.736034 
L 242.86486 302.04307 
L 243.775583 302.196588 
L 244.686307 301.659275 
L 246.507753 301.121962 
L 247.418476 301.121962 
L 248.329199 301.966311 
L 249.239922 301.505757 
L 250.150645 301.659275 
L 251.972091 301.27548 
L 252.882814 300.584648 
L 253.793537 300.354371 
L 254.70426 301.121962 
L 256.525706 300.507889 
L 257.436429 300.43113 
L 259.257875 298.895949 
L 260.168598 299.433262 
L 261.079321 299.817058 
L 261.990044 299.817058 
L 263.81149 298.895949 
L 264.722213 297.898081 
L 265.632936 297.207249 
L 266.543659 295.595309 
L 267.454382 295.288273 
L 268.365105 295.441791 
L 270.186551 296.055864 
L 271.097274 295.51855 
L 272.007997 294.213646 
L 272.91872 294.597441 
L 273.829443 294.367164 
L 274.740166 293.599574 
L 275.65089 294.060128 
L 276.561613 295.595309 
L 277.472336 295.51855 
L 278.383059 295.211514 
L 279.293782 294.750959 
L 280.204505 295.51855 
L 281.115228 296.669936 
L 282.025951 296.516418 
L 282.936674 297.821322 
L 283.847397 297.667804 
L 284.75812 296.823454 
L 285.668843 296.900213 
L 286.579566 296.439659 
L 287.490289 296.746695 
L 288.401012 296.132623 
L 289.311735 296.286141 
L 291.133181 293.215778 
L 292.043904 292.141151 
L 292.954627 290.682729 
L 293.86535 291.066525 
L 294.776073 289.684861 
L 295.686796 289.915139 
L 296.597519 288.917271 
L 297.508242 285.770149 
L 298.418965 285.079318 
L 299.329688 283.006823 
L 300.240411 281.62516 
L 301.151134 278.708316 
L 302.061857 277.403412 
L 302.97258 275.86823 
L 303.883303 271.876759 
L 304.794026 269.650746 
L 305.704749 266.580384 
L 306.615472 262.81919 
L 307.526196 260.593177 
L 308.436919 260.900213 
L 309.347642 258.367164 
L 310.258365 254.145416 
L 311.169088 251.38209 
L 312.079811 250.000426 
L 312.990534 247.697655 
L 314.81198 244.320256 
L 315.722703 241.096375 
L 316.633426 233.113433 
L 317.544149 229.736034 
L 318.454872 228.047335 
L 319.365595 225.898081 
L 320.276318 220.064392 
L 321.187041 221.446055 
L 322.097764 216.99403 
L 323.008487 205.710448 
L 323.91921 198.264819 
L 324.829933 198.648614 
L 325.740656 196.49936 
L 326.651379 192.354371 
L 327.562102 193.198721 
L 328.472825 190.665672 
L 329.383548 178.998294 
L 330.294271 174.392751 
L 331.204994 171.936461 
L 332.115717 166.409808 
L 333.02644 160.192324 
L 333.937163 165.565458 
L 334.847886 160.269083 
L 335.758609 147.910874 
L 336.669332 147.527079 
L 337.580055 148.831983 
L 338.490779 151.441791 
L 339.401502 149.829851 
L 340.312225 155.663539 
L 341.222948 154.128358 
L 342.133671 138.085714 
L 343.044394 142.153945 
L 343.955117 147.066525 
L 345.776563 158.426866 
L 346.687286 170.017484 
L 347.598009 171.552665 
L 348.508732 160.345842 
L 349.419455 165.104904 
L 351.240901 172.320256 
L 352.151624 173.855437 
L 353.062347 184.21791 
L 353.97307 184.678465 
L 354.883793 173.471642 
L 355.794516 175.620896 
L 357.615962 184.601706 
L 359.437408 199.032409 
L 360.348131 196.422601 
L 361.258854 186.367164 
L 362.169577 189.97484 
L 363.0803 195.347974 
L 363.991023 194.88742 
L 364.901746 195.73177 
L 365.812469 203.407676 
L 366.723192 202.947122 
L 367.633915 196.422601 
L 368.544638 199.876759 
L 369.455362 202.716844 
L 370.366085 202.102772 
L 371.276808 199.569723 
L 372.187531 203.407676 
L 373.098254 200.260554 
L 374.008977 191.817058 
L 374.9197 192.968443 
L 375.830423 194.350107 
L 376.741146 194.580384 
L 377.651869 188.976972 
L 378.562592 191.049467 
L 379.473315 186.904478 
L 380.384038 173.701919 
L 381.294761 174.085714 
L 382.205484 171.782942 
L 383.116207 168.328785 
L 384.02693 164.260554 
L 384.937653 171.629424 
L 385.848376 170.478038 
L 386.759099 155.356503 
L 387.669822 154.051599 
L 388.580545 152.055864 
L 389.491268 150.597441 
L 390.401991 158.426866 
L 391.312714 155.433262 
L 392.223437 148.524947 
L 393.13416 126.878891 
L 394.044883 128.337313 
L 394.955606 131.637953 
L 395.866329 137.778678 
L 396.777052 150.213646 
L 397.687775 146.375693 
L 398.598498 144.610235 
L 399.509221 135.16887 
L 400.419945 138.085714 
L 403.152114 151.365032 
L 404.062837 164.874627 
L 404.97356 164.183795 
L 405.884283 153.821322 
L 407.705729 163.339446 
L 408.616452 168.021748 
L 409.527175 169.55693 
L 410.437898 179.30533 
L 411.348621 182.913006 
L 412.259344 173.164606 
L 413.170067 174.085714 
L 414.08079 180.072921 
L 414.991513 180.072921 
L 415.902236 181.915139 
L 416.812959 187.595309 
L 417.723682 186.904478 
L 418.634405 179.765885 
L 419.545128 183.296802 
L 420.455851 188.286141 
L 421.366574 191.58678 
L 422.277297 190.358635 
L 423.18802 195.73177 
L 424.098743 192.968443 
L 425.009466 185.139019 
L 425.920189 187.672068 
L 426.830912 192.047335 
L 427.741635 194.426866 
L 428.652358 195.347974 
L 429.563081 204.866098 
L 430.473804 206.32452 
L 431.384528 198.264819 
L 432.295251 200.260554 
L 433.205974 200.414072 
L 434.116697 201.258422 
L 435.02742 203.023881 
L 435.938143 210.699787 
L 436.848866 210.239232 
L 437.759589 201.795736 
L 438.670312 203.10064 
L 439.581035 204.098507 
L 440.491758 203.561194 
L 441.402481 205.249893 
L 442.313204 212.542004 
L 443.223927 212.772281 
L 444.13465 204.175267 
L 445.956096 206.247761 
L 446.866819 209.241365 
L 447.777542 210.315991 
L 448.688265 214.53774 
L 449.598988 213.309595 
L 450.509711 203.791471 
L 451.420434 205.249893 
L 452.331157 208.934328 
L 453.24188 210.315991 
L 454.152603 211.467377 
L 455.063326 217.608102 
L 455.974049 216.072921 
L 456.884772 207.475906 
L 457.795495 207.475906 
L 458.706218 209.62516 
L 459.616941 210.699787 
L 460.527664 210.546269 
L 461.438387 213.539872 
L 462.34911 211.544136 
L 463.259834 202.486567 
L 464.170557 202.102772 
L 465.08128 202.870362 
L 465.992003 199.416205 
L 466.902726 198.95565 
L 467.813449 202.409808 
L 468.724172 198.495096 
L 469.634895 188.209382 
L 470.545618 190.588913 
L 471.456341 189.821322 
L 472.367064 190.128358 
L 473.277787 188.516418 
L 474.18851 194.196588 
L 475.099233 192.814925 
L 476.009956 178.53774 
L 476.920679 179.919403 
L 477.831402 182.989765 
L 478.742125 182.298934 
L 479.652848 187.365032 
L 480.563571 194.580384 
L 481.474294 193.505757 
L 482.385017 187.979104 
L 483.29574 179.996162 
L 484.206463 180.763753 
L 485.117186 183.296802 
L 486.027909 181.83838 
L 486.938632 188.900213 
L 487.849355 187.902345 
L 488.760078 182.222175 
L 489.670801 186.367164 
L 490.581524 188.516418 
L 491.492247 190.205117 
L 492.40297 187.365032 
L 493.313693 193.27548 
L 494.224417 190.81919 
L 495.13514 175.927932 
L 496.045863 175.160341 
L 496.956586 175.313859 
L 497.867309 175.313859 
L 498.778032 177.309595 
L 499.688755 186.443923 
L 500.599478 184.29467 
L 501.510201 171.552665 
L 502.420924 178.307463 
L 503.331647 168.482303 
L 504.24237 165.949254 
L 505.153093 167.330917 
L 506.063816 177.309595 
L 506.974539 180.840512 
L 507.885262 172.934328 
L 508.795985 177.309595 
L 509.706708 186.6742 
L 510.617431 185.139019 
L 511.528154 184.448188 
L 512.438877 193.659275 
L 513.3496 195.578252 
L 514.260323 188.132623 
L 515.171046 192.584648 
L 516.081769 198.418337 
L 516.992492 207.552665 
L 517.903215 202.333049 
L 518.813938 211.083582 
L 519.724661 212.849041 
L 520.635384 206.247761 
L 521.546107 209.778678 
L 522.45683 217.147548 
L 524.278276 223.595309 
L 525.189 231.962047 
L 526.099723 234.418337 
L 527.010446 234.802132 
L 527.921169 232.729638 
L 529.742615 243.552665 
L 530.653338 246.699787 
L 531.564061 253.377825 
L 532.474784 255.527079 
L 533.385507 253.224307 
L 534.29623 257.369296 
L 535.206953 260.823454 
L 536.117676 263.817058 
L 537.028399 263.356503 
L 537.939122 266.657143 
L 538.849845 267.194456 
L 539.760568 266.426866 
L 540.671291 268.883156 
L 541.582014 273.028145 
L 543.40346 277.480171 
L 544.314183 281.087846 
L 545.224906 281.087846 
L 546.135629 279.399147 
L 547.046352 282.699787 
L 547.957075 284.158209 
L 548.867798 284.388486 
L 549.778521 285.079318 
L 550.689244 287.38209 
L 551.599967 287.689126 
L 552.51069 287.689126 
L 553.421413 289.991898 
L 554.332136 290.682729 
L 555.242859 292.371429 
L 556.153583 293.215778 
L 557.064306 293.90661 
L 557.975029 293.676333 
L 558.885752 294.136887 
L 559.796475 294.290405 
L 560.707198 295.441791 
L 561.617921 295.365032 
L 562.528644 296.132623 
L 563.439367 296.669936 
L 564.35009 296.209382 
L 565.260813 295.979104 
L 566.171536 296.593177 
L 567.082259 296.669936 
L 567.992982 296.132623 
L 568.903705 295.825586 
L 569.814428 295.288273 
L 572.546597 293.292537 
L 574.368043 289.915139 
L 575.278766 287.919403 
L 576.189489 286.460981 
L 577.100212 283.620896 
L 578.010935 279.322388 
L 578.921658 276.635821 
L 579.832381 275.86823 
L 580.743104 275.254158 
L 581.653827 272.414072 
L 582.56455 271.8 
L 583.475273 270.878891 
L 584.385996 266.273348 
L 585.296719 264.814925 
L 586.207442 264.507889 
L 587.118165 263.970576 
L 588.028889 263.58678 
L 588.939612 264.968443 
L 589.850335 264.047335 
L 590.761058 262.051599 
L 591.671781 265.505757 
L 592.582504 267.424733 
L 593.493227 268.576119 
L 594.40395 269.34371 
L 595.314673 270.495096 
L 596.225396 271.339446 
L 597.136119 270.571855 
L 598.046842 270.495096 
L 598.957565 271.953518 
L 599.868288 271.032409 
L 600.779011 269.727505 
L 601.689734 270.034542 
L 602.600457 268.576119 
L 603.51118 266.196588 
L 604.421903 267.040938 
L 605.332626 268.269083 
L 607.154072 269.573987 
L 608.064795 272.260554 
L 608.975518 270.648614 
L 609.886241 268.192324 
L 611.707687 270.495096 
L 612.61841 270.648614 
L 613.529133 270.571855 
L 614.439856 271.8 
L 615.350579 270.95565 
L 616.261302 268.652878 
L 617.172025 270.111301 
L 618.082748 270.264819 
L 618.993472 270.264819 
L 619.904195 270.495096 
L 620.814918 272.030277 
L 621.725641 271.109168 
L 622.636364 272.490832 
L 622.636364 272.490832 
" style="fill:none;stroke:#ff0000;stroke-linecap:square;stroke-width:1.5;"/>
   </g>
   <g id="line2d_36">
    <path clip-path="url(#pa736094022)" d="M 115.363636 307.8 
L 116.274359 307.185928 
L 117.185082 307.109168 
L 118.095805 306.341578 
L 119.006528 305.266951 
L 119.917252 304.806397 
L 123.560144 300.738166 
L 124.470867 299.58678 
L 126.292313 294.520682 
L 127.203036 291.373561 
L 129.935205 275.330917 
L 130.845928 269.497228 
L 132.667374 248.388486 
L 133.578097 233.727505 
L 135.399543 194.119829 
L 137.220989 164.260554 
L 138.131712 135.629424 
L 139.953158 92.107036 
L 140.863881 81.284009 
L 141.774604 60.252026 
L 142.685327 55.8 
L 143.59605 55.8 
L 144.506773 59.791471 
L 147.238942 92.414072 
L 148.149665 113.599574 
L 149.060388 110.60597 
L 149.971111 133.633689 
L 150.881835 84.354371 
L 151.792558 99.629424 
L 152.703281 88.038806 
L 153.614004 98.094243 
L 154.524727 102.546269 
L 155.43545 101.778678 
L 156.346173 113.522814 
L 157.256896 122.503625 
L 158.167619 124.345842 
L 159.078342 127.109168 
L 159.989065 125.420469 
L 160.899788 132.405544 
L 161.810511 133.940725 
L 162.721234 142.921535 
L 163.631957 141.69339 
L 164.54268 142.307463 
L 165.453403 149.06226 
L 166.364126 165.41194 
L 167.274849 172.397015 
L 168.185572 173.855437 
L 169.096295 177.079318 
L 170.007018 183.066525 
L 170.917741 187.441791 
L 171.828464 186.981237 
L 172.739187 194.964179 
L 173.64991 195.194456 
L 174.560633 193.198721 
L 175.471356 201.949254 
L 176.382079 205.55693 
L 177.292802 205.55693 
L 178.203525 204.098507 
L 179.114248 209.164606 
L 180.024971 216.610235 
L 180.935694 220.985501 
L 181.846417 226.972708 
L 182.757141 222.060128 
L 183.667864 222.6742 
L 184.578587 228.738166 
L 185.48931 228.891684 
L 186.400033 232.576119 
L 187.310756 233.34371 
L 188.221479 237.335181 
L 189.132202 238.102772 
L 190.042925 236.260554 
L 191.864371 237.949254 
L 193.685817 245.62516 
L 194.59654 251.842644 
L 195.507263 249.846908 
L 196.417986 254.298934 
L 197.328709 252.379957 
L 198.239432 254.529211 
L 199.150155 260.439659 
L 200.060878 262.665672 
L 200.971601 266.119829 
L 201.882324 266.273348 
L 202.793047 268.269083 
L 203.70377 269.804264 
L 204.614493 270.95565 
L 207.346662 273.872495 
L 208.257385 277.173134 
L 209.168108 281.318124 
L 210.078831 282.315991 
L 210.989554 285.079318 
L 211.900277 286.460981 
L 212.811 285.69339 
L 213.721724 286.614499 
L 214.632447 286.307463 
L 215.54317 286.384222 
L 216.453893 285.69339 
L 218.275339 289.83838 
L 219.186062 290.989765 
L 220.096785 290.913006 
L 221.007508 292.985501 
L 221.918231 291.680597 
L 222.828954 292.755224 
L 223.739677 294.213646 
L 224.6504 293.292537 
L 225.561123 294.060128 
L 226.471846 294.213646 
L 227.382569 295.825586 
L 228.293292 295.595309 
L 229.204015 296.3629 
L 231.936184 302.119829 
L 232.846907 301.198721 
L 233.75763 301.659275 
L 234.668353 301.812793 
L 236.489799 302.503625 
L 237.400522 302.580384 
L 238.311245 301.966311 
L 239.221968 301.505757 
L 240.132691 300.661407 
L 241.043414 300.661407 
L 241.954137 301.352239 
L 242.86486 301.736034 
L 243.775583 302.273348 
L 244.686307 301.889552 
L 245.59703 302.273348 
L 247.418476 300.968443 
L 248.329199 301.352239 
L 249.239922 300.891684 
L 250.150645 302.196588 
L 251.061368 300.891684 
L 251.972091 302.733902 
L 252.882814 302.503625 
L 253.793537 301.966311 
L 254.70426 303.040938 
L 255.614983 302.810661 
L 256.525706 302.273348 
L 257.436429 302.733902 
L 258.347152 302.503625 
L 259.257875 301.582516 
L 260.168598 301.505757 
L 261.079321 301.121962 
L 261.990044 301.812793 
L 262.900767 301.889552 
L 263.81149 301.812793 
L 264.722213 301.198721 
L 265.632936 300.277612 
L 266.543659 300.43113 
L 267.454382 298.895949 
L 268.365105 298.128358 
L 269.275828 298.665672 
L 270.186551 298.358635 
L 271.097274 298.512154 
L 272.91872 297.97484 
L 273.829443 298.281876 
L 274.740166 297.284009 
L 275.65089 297.667804 
L 277.472336 297.97484 
L 278.383059 298.588913 
L 280.204505 298.665672 
L 281.115228 299.663539 
L 282.025951 300.200853 
L 282.936674 300.507889 
L 283.847397 300.661407 
L 285.668843 300.738166 
L 286.579566 300.968443 
L 287.490289 300.584648 
L 288.401012 300.584648 
L 289.311735 300.277612 
L 290.222458 299.817058 
L 291.133181 299.510021 
L 294.776073 297.437527 
L 295.686796 297.284009 
L 296.597519 296.516418 
L 297.508242 295.134755 
L 298.418965 293.522814 
L 299.329688 293.215778 
L 300.240411 291.603838 
L 301.151134 290.222175 
L 302.061857 287.919403 
L 302.97258 286.691258 
L 303.883303 282.930064 
L 304.794026 282.623028 
L 305.704749 279.399147 
L 306.615472 277.55693 
L 307.526196 274.793603 
L 308.436919 274.640085 
L 309.347642 270.264819 
L 310.258365 268.115565 
L 311.169088 265.582516 
L 312.079811 265.582516 
L 312.990534 266.503625 
L 313.901257 263.893817 
L 314.81198 262.972708 
L 316.633426 252.99403 
L 317.544149 247.620896 
L 318.454872 245.62516 
L 319.365595 243.245629 
L 321.187041 234.571855 
L 322.097764 232.192324 
L 323.008487 227.58678 
L 323.91921 220.908742 
L 325.740656 214.768017 
L 326.651379 215.151812 
L 327.562102 214.53774 
L 330.294271 197.34371 
L 333.02644 184.985501 
L 333.937163 183.987633 
L 334.847886 180.686994 
L 336.669332 167.484435 
L 337.580055 167.330917 
L 338.490779 167.330917 
L 339.401502 168.328785 
L 342.133671 157.582516 
L 343.044394 150.981237 
L 343.955117 157.428998 
L 344.86584 161.650746 
L 346.687286 171.092111 
L 347.598009 177.616631 
L 348.508732 176.08145 
L 349.419455 177.616631 
L 350.330178 179.612367 
L 351.240901 184.601706 
L 352.151624 187.211514 
L 353.062347 190.435394 
L 353.97307 192.047335 
L 354.883793 188.3629 
L 355.794516 187.365032 
L 356.705239 190.588913 
L 357.615962 194.657143 
L 359.437408 204.098507 
L 361.258854 197.957783 
L 362.169577 200.490832 
L 363.0803 207.322388 
L 363.991023 211.390618 
L 364.901746 211.851173 
L 365.812469 215.765885 
L 366.723192 216.226439 
L 367.633915 212.695522 
L 368.544638 215.38209 
L 369.455362 221.06226 
L 370.366085 220.601706 
L 371.276808 219.45032 
L 372.187531 221.139019 
L 373.098254 217.915139 
L 374.008977 216.533475 
L 374.9197 213.002559 
L 375.830423 214.921535 
L 376.741146 217.377825 
L 379.473315 210.392751 
L 380.384038 202.793603 
L 381.294761 198.111301 
L 382.205484 197.497228 
L 383.116207 195.271215 
L 384.937653 192.354371 
L 385.848376 190.205117 
L 386.759099 186.904478 
L 387.669822 177.156077 
L 388.580545 178.460981 
L 389.491268 176.465245 
L 390.401991 177.079318 
L 391.312714 174.776546 
L 392.223437 169.940725 
L 393.13416 160.345842 
L 394.044883 148.448188 
L 394.955606 154.205117 
L 395.866329 146.375693 
L 396.777052 157.659275 
L 397.687775 153.97484 
L 398.598498 153.898081 
L 399.509221 144.379957 
L 400.419945 142.153945 
L 401.330668 144.303198 
L 402.241391 150.367164 
L 403.152114 159.271215 
L 404.062837 164.030277 
L 404.97356 165.872495 
L 405.884283 160.038806 
L 406.795006 158.580384 
L 407.705729 168.098507 
L 408.616452 168.635821 
L 409.527175 170.938593 
L 410.437898 177.846908 
L 411.348621 176.772281 
L 412.259344 174.008955 
L 413.170067 172.243497 
L 414.08079 176.695522 
L 414.991513 179.919403 
L 415.902236 178.614499 
L 416.812959 182.529211 
L 417.723682 179.919403 
L 418.634405 175.851173 
L 419.545128 177.002559 
L 421.366574 185.446055 
L 422.277297 187.211514 
L 423.18802 185.06226 
L 424.098743 187.134755 
L 425.009466 182.682729 
L 425.920189 181.991898 
L 426.830912 184.985501 
L 427.741635 191.279744 
L 429.563081 197.650746 
L 430.473804 196.959915 
L 431.384528 193.352239 
L 432.295251 195.808529 
L 433.205974 196.038806 
L 435.02742 202.716844 
L 435.938143 206.171002 
L 436.848866 205.863966 
L 437.759589 201.488699 
L 438.670312 200.414072 
L 439.581035 200.490832 
L 440.491758 199.8 
L 441.402481 197.881023 
L 442.313204 205.326652 
L 443.223927 206.938593 
L 445.045373 202.026013 
L 445.956096 204.252026 
L 446.866819 203.407676 
L 447.777542 205.096375 
L 448.688265 208.78081 
L 449.598988 206.401279 
L 450.509711 202.333049 
L 451.420434 197.036674 
L 452.331157 200.64435 
L 454.152603 202.716844 
L 455.063326 206.478038 
L 455.974049 207.629424 
L 456.884772 204.482303 
L 457.795495 199.876759 
L 458.706218 204.021748 
L 459.616941 204.021748 
L 460.527664 205.480171 
L 461.438387 206.478038 
L 462.34911 202.870362 
L 463.259834 196.192324 
L 464.170557 196.49936 
L 465.08128 198.571855 
L 465.992003 197.650746 
L 466.902726 195.655011 
L 467.813449 196.959915 
L 468.724172 195.655011 
L 469.634895 188.516418 
L 470.545618 186.981237 
L 471.456341 187.979104 
L 472.367064 187.134755 
L 473.277787 185.369296 
L 475.099233 185.599574 
L 476.009956 179.919403 
L 476.920679 175.2371 
L 477.831402 180.99403 
L 479.652848 183.143284 
L 480.563571 183.987633 
L 481.474294 186.060128 
L 482.385017 182.913006 
L 483.29574 173.701919 
L 484.206463 171.092111 
L 485.117186 175.313859 
L 486.027909 176.542004 
L 486.938632 177.079318 
L 487.849355 175.160341 
L 488.760078 170.631557 
L 489.670801 172.78081 
L 490.581524 176.234968 
L 491.492247 178.307463 
L 492.40297 177.539872 
L 493.313693 183.066525 
L 494.224417 179.689126 
L 495.13514 175.006823 
L 496.045863 167.407676 
L 496.956586 170.32452 
L 497.867309 166.409808 
L 498.778032 171.552665 
L 499.688755 177.539872 
L 500.599478 178.077186 
L 501.510201 172.857569 
L 503.331647 169.940725 
L 504.24237 162.725373 
L 505.153093 162.111301 
L 506.063816 167.637953 
L 506.974539 170.017484 
L 507.885262 168.405544 
L 508.795985 170.094243 
L 509.706708 176.234968 
L 510.617431 174.008955 
L 511.528154 175.544136 
L 512.438877 177.386354 
L 513.3496 179.842644 
L 514.260323 175.083582 
L 515.171046 174.930064 
L 516.081769 184.524947 
L 516.992492 192.891684 
L 517.903215 191.049467 
L 518.813938 194.810661 
L 519.724661 195.347974 
L 520.635384 192.584648 
L 521.546107 192.507889 
L 522.45683 203.10064 
L 523.367553 209.778678 
L 524.278276 214.691258 
L 525.189 221.215778 
L 526.099723 223.134755 
L 527.010446 223.672068 
L 527.921169 223.288273 
L 528.831892 226.588913 
L 529.742615 233.34371 
L 530.653338 237.335181 
L 531.564061 242.401279 
L 532.474784 243.322388 
L 533.385507 242.631557 
L 534.29623 247.006823 
L 535.206953 248.849041 
L 536.117676 253.83838 
L 537.028399 255.066525 
L 537.939122 257.369296 
L 539.760568 257.983369 
L 540.671291 260.593177 
L 541.582014 267.194456 
L 542.492737 270.571855 
L 543.40346 273.488699 
L 544.314183 276.942857 
L 546.135629 275.791471 
L 547.046352 277.55693 
L 547.957075 279.782942 
L 548.867798 281.241365 
L 549.778521 283.697655 
L 552.51069 285.309595 
L 553.421413 286.614499 
L 555.242859 289.915139 
L 557.064306 292.678465 
L 557.975029 292.21791 
L 558.885752 293.369296 
L 559.796475 293.90661 
L 560.707198 294.981237 
L 561.617921 295.672068 
L 562.528644 297.13049 
L 563.439367 298.051599 
L 564.35009 298.205117 
L 565.260813 298.205117 
L 566.171536 299.510021 
L 567.082259 300.047335 
L 567.992982 299.740299 
L 568.903705 298.665672 
L 569.814428 298.435394 
L 570.725151 298.81919 
L 571.635874 297.97484 
L 572.546597 297.97484 
L 573.45732 297.284009 
L 574.368043 295.748827 
L 575.278766 293.292537 
L 576.189489 291.987633 
L 577.100212 289.83838 
L 578.921658 283.697655 
L 578.921658 283.697655 
" style="fill:none;stroke:#ffa500;stroke-linecap:square;stroke-width:1.5;"/>
   </g>
   <g id="line2d_37">
    <path clip-path="url(#pa736094022)" d="M 161.810511 280.550533 
L 162.721234 281.394883 
L 163.631957 281.471642 
L 164.54268 277.326652 
L 165.453403 277.55693 
L 166.364126 278.017484 
L 167.274849 278.094243 
L 168.185572 278.32452 
L 169.096295 277.55693 
L 170.007018 279.706183 
L 171.828464 274.793603 
L 172.739187 274.716844 
L 173.64991 275.177399 
L 174.560633 275.791471 
L 175.471356 278.554797 
L 176.382079 278.938593 
L 177.292802 277.633689 
L 178.203525 277.403412 
L 179.114248 274.102772 
L 180.024971 276.098507 
L 180.935694 273.335181 
L 182.757141 278.094243 
L 183.667864 272.414072 
L 184.578587 271.492964 
L 185.48931 269.727505 
L 186.400033 267.424733 
L 187.310756 267.808529 
L 188.221479 270.878891 
L 189.132202 271.262687 
L 190.042925 267.73177 
L 190.953648 267.424733 
L 191.864371 266.350107 
L 192.775094 270.95565 
L 193.685817 269.113433 
L 195.507263 270.034542 
L 196.417986 269.573987 
L 197.328709 267.808529 
L 198.239432 264.968443 
L 199.150155 265.736034 
L 200.060878 267.117697 
L 200.971601 269.420469 
L 202.793047 271.339446 
L 203.70377 268.422601 
L 204.614493 264.354371 
L 205.525216 266.196588 
L 206.435939 265.736034 
L 207.346662 269.34371 
L 208.257385 266.964179 
L 209.168108 267.885288 
L 210.078831 266.810661 
L 210.989554 266.119829 
L 212.811 263.970576 
L 213.721724 268.269083 
L 214.632447 267.962047 
L 215.54317 264.124094 
L 216.453893 263.202985 
L 217.364616 264.277612 
L 218.275339 262.435394 
L 219.186062 261.667804 
L 220.096785 263.893817 
L 221.007508 268.576119 
L 221.918231 263.663539 
L 222.828954 264.507889 
L 223.739677 263.433262 
L 224.6504 263.049467 
L 225.561123 263.893817 
L 226.471846 266.350107 
L 227.382569 267.424733 
L 228.293292 264.968443 
L 230.114738 262.895949 
L 231.025461 262.81919 
L 231.936184 263.817058 
L 232.846907 266.196588 
L 233.75763 266.580384 
L 234.668353 266.657143 
L 235.579076 263.663539 
L 236.489799 262.895949 
L 237.400522 264.200853 
L 238.311245 264.738166 
L 239.221968 266.04307 
L 240.132691 267.885288 
L 241.043414 266.350107 
L 241.954137 263.893817 
L 242.86486 263.510021 
L 243.775583 263.510021 
L 244.686307 262.895949 
L 245.59703 264.277612 
L 246.507753 264.354371 
L 248.329199 262.358635 
L 249.239922 263.126226 
L 250.150645 262.435394 
L 251.061368 262.128358 
L 251.972091 264.277612 
L 252.882814 268.269083 
L 253.793537 266.580384 
L 254.70426 265.812793 
L 255.614983 264.584648 
L 256.525706 263.893817 
L 257.436429 264.277612 
L 258.347152 265.505757 
L 259.257875 266.503625 
L 260.168598 264.584648 
L 261.079321 263.049467 
L 261.990044 261.97484 
L 262.900767 264.584648 
L 263.81149 263.663539 
L 264.722213 266.04307 
L 265.632936 264.047335 
L 266.543659 263.126226 
L 267.454382 260.823454 
L 268.365105 260.900213 
L 269.275828 263.510021 
L 270.186551 263.126226 
L 271.097274 263.510021 
L 272.007997 264.507889 
L 272.91872 261.514286 
L 273.829443 260.439659 
L 274.740166 262.281876 
L 275.65089 261.591045 
L 276.561613 262.512154 
L 277.472336 264.507889 
L 278.383059 265.505757 
L 279.293782 261.744563 
L 280.204505 260.132623 
L 281.115228 260.823454 
L 282.025951 261.284009 
L 282.936674 263.58678 
L 283.847397 265.045203 
L 284.75812 265.659275 
L 285.668843 262.665672 
L 286.579566 260.516418 
L 287.490289 262.435394 
L 288.401012 261.514286 
L 289.311735 262.051599 
L 290.222458 263.663539 
L 291.133181 265.505757 
L 292.043904 259.365032 
L 292.954627 260.593177 
L 293.86535 261.360768 
L 294.776073 261.13049 
L 295.686796 262.128358 
L 296.597519 263.970576 
L 297.508242 264.738166 
L 298.418965 260.209382 
L 299.329688 258.290405 
L 300.240411 259.057996 
L 301.151134 260.669936 
L 303.883303 266.810661 
L 304.794026 259.748827 
L 305.704749 259.134755 
L 306.615472 259.057996 
L 307.526196 262.742431 
L 308.436919 261.821322 
L 309.347642 264.968443 
L 310.258365 267.271215 
L 311.169088 262.81919 
L 312.990534 260.976972 
L 313.901257 262.281876 
L 314.81198 264.047335 
L 315.722703 266.733902 
L 316.633426 268.269083 
L 317.544149 263.663539 
L 318.454872 263.356503 
L 319.365595 264.661407 
L 320.276318 264.584648 
L 321.187041 267.962047 
L 322.097764 270.341578 
L 323.008487 269.957783 
L 323.91921 266.273348 
L 324.829933 267.424733 
L 325.740656 269.266951 
L 326.651379 267.655011 
L 328.472825 272.567591 
L 329.383548 273.718977 
L 330.294271 271.032409 
L 331.204994 272.874627 
L 332.115717 272.567591 
L 333.02644 271.339446 
L 333.937163 274.793603 
L 334.847886 275.714712 
L 335.758609 274.793603 
L 336.669332 272.874627 
L 337.580055 272.414072 
L 338.490779 271.8 
L 339.401502 273.565458 
L 340.312225 273.181663 
L 341.222948 273.642217 
L 342.133671 276.021748 
L 343.044394 273.41194 
L 343.955117 271.416205 
L 345.776563 271.262687 
L 346.687286 272.107036 
L 347.598009 274.793603 
L 348.508732 273.795736 
L 349.419455 270.495096 
L 350.330178 271.032409 
L 351.240901 269.804264 
L 352.151624 270.648614 
L 353.062347 272.797868 
L 353.97307 274.333049 
L 354.883793 272.337313 
L 355.794516 271.569723 
L 357.615962 269.420469 
L 358.526685 269.804264 
L 359.437408 271.416205 
L 360.348131 273.565458 
L 361.258854 273.258422 
L 362.169577 270.18806 
L 363.0803 268.345842 
L 363.991023 268.269083 
L 364.901746 268.49936 
L 366.723192 273.335181 
L 367.633915 271.416205 
L 368.544638 269.036674 
L 370.366085 265.121962 
L 371.276808 265.659275 
L 372.187531 268.269083 
L 373.098254 269.34371 
L 374.008977 269.420469 
L 374.9197 265.428998 
L 375.830423 265.505757 
L 376.741146 266.964179 
L 377.651869 265.889552 
L 378.562592 268.729638 
L 379.473315 271.185928 
L 380.384038 267.73177 
L 381.294761 267.194456 
L 382.205484 266.119829 
L 383.116207 268.959915 
L 384.02693 269.727505 
L 384.937653 270.802132 
L 385.848376 274.793603 
L 386.759099 274.947122 
L 387.669822 271.876759 
L 388.580545 274.179531 
L 389.491268 274.409808 
L 390.401991 275.86823 
L 391.312714 279.322388 
L 392.223437 278.171002 
L 393.13416 279.475906 
L 394.044883 275.944989 
L 394.955606 275.484435 
L 395.866329 276.405544 
L 396.777052 278.017484 
L 397.687775 278.785075 
L 398.598498 280.243497 
L 400.419945 277.480171 
L 401.330668 274.486567 
L 402.241391 275.637953 
L 403.152114 275.177399 
L 404.062837 275.637953 
L 404.97356 278.785075 
L 405.884283 278.478038 
L 406.795006 275.86823 
L 407.705729 275.944989 
L 408.616452 273.104904 
L 409.527175 273.181663 
L 410.437898 274.026013 
L 411.348621 277.710448 
L 412.259344 277.326652 
L 413.170067 273.795736 
L 414.08079 273.565458 
L 414.991513 272.567591 
L 415.902236 272.874627 
L 416.812959 272.64435 
L 417.723682 275.944989 
L 418.634405 275.944989 
L 419.545128 272.107036 
L 420.455851 270.111301 
L 421.366574 269.881023 
L 422.277297 272.721109 
L 423.18802 271.723241 
L 424.098743 273.028145 
L 425.009466 275.177399 
L 425.920189 271.723241 
L 427.741635 270.571855 
L 428.652358 270.264819 
L 429.563081 270.418337 
L 430.473804 272.414072 
L 431.384528 272.951386 
L 432.295251 272.951386 
L 433.205974 268.652878 
L 434.116697 268.192324 
L 435.02742 269.113433 
L 435.938143 267.808529 
L 436.848866 271.8 
L 438.670312 267.347974 
L 439.581035 268.269083 
L 440.491758 268.652878 
L 441.402481 268.345842 
L 442.313204 269.34371 
L 443.223927 272.490832 
L 444.13465 274.179531 
L 445.045373 271.032409 
L 445.956096 268.883156 
L 446.866819 269.573987 
L 447.777542 270.034542 
L 448.688265 271.8 
L 449.598988 277.096375 
L 450.509711 274.563326 
L 451.420434 272.567591 
L 452.331157 272.951386 
L 453.24188 270.648614 
L 454.152603 270.18806 
L 455.063326 271.032409 
L 455.974049 274.793603 
L 456.884772 272.797868 
L 457.795495 269.650746 
L 458.706218 270.95565 
L 459.616941 270.341578 
L 460.527664 269.420469 
L 461.438387 271.109168 
L 462.34911 275.023881 
L 463.259834 274.026013 
L 464.170557 271.569723 
L 465.08128 270.18806 
L 465.992003 271.262687 
L 466.902726 271.032409 
L 467.813449 272.874627 
L 468.724172 276.559062 
L 470.545618 271.416205 
L 471.456341 270.802132 
L 473.277787 272.567591 
L 474.18851 273.181663 
L 475.099233 277.019616 
L 476.009956 274.793603 
L 476.920679 273.104904 
L 477.831402 274.179531 
L 478.742125 274.640085 
L 480.563571 276.635821 
L 481.474294 279.706183 
L 482.385017 279.552665 
L 483.29574 278.171002 
L 484.206463 274.947122 
L 485.117186 274.486567 
L 486.027909 275.561194 
L 486.938632 276.866098 
L 487.849355 279.092111 
L 488.760078 278.171002 
L 489.670801 273.028145 
L 490.581524 274.870362 
L 491.492247 275.561194 
L 492.40297 275.177399 
L 493.313693 276.175267 
L 494.224417 278.938593 
L 495.13514 277.633689 
L 496.045863 275.254158 
L 496.956586 275.023881 
L 497.867309 275.714712 
L 498.778032 274.026013 
L 499.688755 276.175267 
L 500.599478 278.631557 
L 501.510201 276.866098 
L 502.420924 275.637953 
L 503.331647 276.71258 
L 504.24237 274.102772 
L 505.153093 275.407676 
L 506.063816 276.942857 
L 506.974539 279.782942 
L 507.885262 279.782942 
L 508.795985 276.559062 
L 509.706708 276.71258 
L 510.617431 276.482303 
L 511.528154 276.942857 
L 512.438877 276.71258 
L 514.260323 278.32452 
L 515.171046 273.795736 
L 516.081769 271.262687 
L 516.992492 275.484435 
L 517.903215 276.098507 
L 518.813938 273.949254 
L 519.724661 274.947122 
L 520.635384 275.10064 
L 521.546107 271.339446 
L 522.45683 271.109168 
L 523.367553 270.571855 
L 524.278276 271.416205 
L 526.099723 276.098507 
L 527.010446 275.944989 
L 527.921169 274.026013 
L 528.831892 268.959915 
L 529.742615 267.885288 
L 530.653338 266.196588 
L 531.564061 267.808529 
L 532.474784 271.109168 
L 534.29623 268.729638 
L 535.206953 268.115565 
L 536.117676 266.350107 
L 537.028399 265.352239 
L 537.939122 267.117697 
L 538.849845 269.266951 
L 539.760568 271.953518 
L 540.671291 268.269083 
L 541.582014 267.117697 
L 542.492737 265.352239 
L 543.40346 264.507889 
L 544.314183 266.350107 
L 545.224906 267.501493 
L 546.135629 267.655011 
L 547.046352 266.350107 
L 547.957075 261.667804 
L 548.867798 263.356503 
L 549.778521 264.507889 
L 552.51069 266.350107 
L 553.421413 263.893817 
L 554.332136 263.510021 
L 555.242859 264.047335 
L 556.153583 261.898081 
L 557.975029 265.659275 
L 558.885752 268.269083 
L 559.796475 263.58678 
L 560.707198 262.895949 
L 561.617921 263.817058 
L 562.528644 263.58678 
L 563.439367 264.584648 
L 564.35009 266.88742 
L 565.260813 263.740299 
L 566.171536 263.126226 
L 567.082259 261.284009 
L 567.992982 261.360768 
L 568.903705 262.051599 
L 569.814428 260.746695 
L 570.725151 264.814925 
L 571.635874 266.810661 
L 572.546597 263.049467 
L 573.45732 262.512154 
L 574.368043 260.823454 
L 575.278766 262.051599 
L 576.189489 263.970576 
L 577.100212 266.810661 
L 578.010935 267.424733 
L 578.921658 266.196588 
L 578.921658 266.196588 
" style="fill:none;stroke:#0000ff;stroke-linecap:square;stroke-width:1.5;"/>
   </g>
   <g id="line2d_38">
    <path clip-path="url(#pa736094022)" d="M 115.363636 307.339446 
L 119.917252 306.95565 
L 120.827975 306.725373 
L 121.738698 306.725373 
L 122.649421 306.418337 
L 123.560144 306.264819 
L 126.292313 304.883156 
L 127.203036 304.192324 
L 128.113759 302.657143 
L 129.024482 301.812793 
L 129.935205 300.507889 
L 130.845928 298.665672 
L 132.667374 294.136887 
L 133.578097 290.375693 
L 134.48882 285.846908 
L 136.310266 274.870362 
L 137.220989 271.032409 
L 138.131712 263.893817 
L 139.042435 257.753092 
L 139.953158 250.153945 
L 141.774604 236.721109 
L 142.685327 231.73177 
L 143.59605 228.200853 
L 144.506773 221.446055 
L 145.417496 216.456716 
L 146.328219 215.151812 
L 147.238942 212.004691 
L 148.149665 209.932196 
L 149.060388 203.484435 
L 150.881835 199.723241 
L 151.792558 198.571855 
L 152.703281 199.8 
L 153.614004 199.109168 
L 154.524727 201.642217 
L 155.43545 201.104904 
L 156.346173 203.637953 
L 157.256896 205.173134 
L 158.167619 207.859701 
L 159.989065 211.313859 
L 160.899788 213.079318 
L 161.810511 215.689126 
L 162.721234 217.608102 
L 163.631957 218.989765 
L 164.54268 224.439659 
L 165.453403 227.279744 
L 167.274849 233.957783 
L 168.185572 234.264819 
L 169.096295 236.183795 
L 170.007018 238.409808 
L 170.917741 241.787207 
L 171.828464 246.162473 
L 172.739187 247.774414 
L 173.64991 251.458849 
L 174.560633 253.531343 
L 175.471356 255.066525 
L 176.382079 255.45032 
L 177.292802 258.443923 
L 178.203525 259.672068 
L 179.114248 263.049467 
L 180.024971 264.584648 
L 180.935694 266.350107 
L 181.846417 268.959915 
L 182.757141 269.650746 
L 184.578587 274.716844 
L 185.48931 276.405544 
L 187.310756 281.318124 
L 188.221479 281.087846 
L 189.132202 283.083582 
L 190.042925 285.386354 
L 191.864371 288.303198 
L 192.775094 288.533475 
L 193.685817 290.452452 
L 194.59654 290.759488 
L 195.507263 290.759488 
L 196.417986 293.446055 
L 197.328709 293.369296 
L 198.239432 293.90661 
L 199.150155 294.060128 
L 200.971601 295.672068 
L 201.882324 295.748827 
L 202.793047 296.055864 
L 203.70377 298.972708 
L 204.614493 299.202985 
L 205.525216 300.43113 
L 207.346662 300.507889 
L 208.257385 300.814925 
L 209.168108 300.891684 
L 210.078831 301.736034 
L 211.900277 302.273348 
L 212.811 301.966311 
L 213.721724 301.812793 
L 214.632447 301.198721 
L 215.54317 301.889552 
L 217.364616 302.733902 
L 218.275339 303.501493 
L 219.186062 303.501493 
L 220.096785 303.655011 
L 221.007508 303.347974 
L 221.918231 304.192324 
L 223.739677 304.115565 
L 225.561123 305.650746 
L 227.382569 305.420469 
L 228.293292 305.650746 
L 229.204015 305.727505 
L 230.114738 305.957783 
L 231.025461 306.341578 
L 231.936184 306.495096 
L 232.846907 306.495096 
L 233.75763 306.111301 
L 234.668353 306.034542 
L 235.579076 306.341578 
L 236.489799 306.264819 
L 237.400522 305.957783 
L 238.311245 305.881023 
L 239.221968 306.034542 
L 240.132691 306.034542 
L 241.043414 306.264819 
L 241.954137 306.341578 
L 242.86486 306.725373 
L 244.686307 306.648614 
L 245.59703 306.571855 
L 247.418476 306.725373 
L 248.329199 306.571855 
L 249.239922 306.725373 
L 251.061368 306.495096 
L 251.972091 306.648614 
L 252.882814 306.264819 
L 255.614983 306.802132 
L 256.525706 306.418337 
L 257.436429 306.18806 
L 258.347152 306.264819 
L 259.257875 305.804264 
L 260.168598 305.881023 
L 261.079321 305.573987 
L 263.81149 305.727505 
L 264.722213 305.497228 
L 265.632936 305.650746 
L 266.543659 305.573987 
L 267.454382 305.190192 
L 268.365105 305.497228 
L 269.275828 304.959915 
L 270.186551 304.883156 
L 271.097274 305.113433 
L 272.91872 304.652878 
L 274.740166 304.883156 
L 275.65089 304.576119 
L 281.115228 305.113433 
L 282.025951 305.266951 
L 283.847397 305.34371 
L 284.75812 304.959915 
L 285.668843 305.34371 
L 286.579566 305.420469 
L 287.490289 305.727505 
L 288.401012 305.190192 
L 289.311735 305.190192 
L 292.043904 305.573987 
L 292.954627 305.497228 
L 293.86535 305.573987 
L 294.776073 305.113433 
L 295.686796 305.036674 
L 296.597519 305.113433 
L 297.508242 304.576119 
L 298.418965 303.808529 
L 299.329688 303.73177 
L 300.240411 304.115565 
L 303.883303 301.352239 
L 304.794026 300.891684 
L 305.704749 299.893817 
L 306.615472 299.740299 
L 307.526196 298.972708 
L 309.347642 298.128358 
L 310.258365 296.976972 
L 311.169088 296.976972 
L 312.079811 296.3629 
L 312.990534 296.209382 
L 313.901257 295.595309 
L 314.81198 295.902345 
L 315.722703 295.365032 
L 317.544149 293.292537 
L 319.365595 290.375693 
L 320.276318 289.531343 
L 321.187041 289.83838 
L 322.097764 288.917271 
L 323.008487 288.533475 
L 324.829933 284.772281 
L 325.740656 283.851173 
L 326.651379 281.394883 
L 327.562102 280.857569 
L 328.472825 279.936461 
L 329.383548 278.785075 
L 330.294271 275.714712 
L 331.204994 273.335181 
L 332.115717 272.337313 
L 333.02644 271.646482 
L 333.937163 269.420469 
L 334.847886 270.264819 
L 335.758609 269.036674 
L 336.669332 267.271215 
L 337.580055 266.04307 
L 338.490779 265.428998 
L 339.401502 264.354371 
L 340.312225 263.049467 
L 341.222948 263.126226 
L 342.133671 262.81919 
L 343.044394 261.13049 
L 343.955117 260.900213 
L 345.776563 261.591045 
L 346.687286 261.667804 
L 347.598009 261.97484 
L 348.508732 261.821322 
L 349.419455 261.97484 
L 350.330178 261.360768 
L 351.240901 262.205117 
L 352.151624 261.13049 
L 353.062347 262.205117 
L 353.97307 262.895949 
L 354.883793 263.893817 
L 355.794516 263.663539 
L 356.705239 264.968443 
L 357.615962 265.27548 
L 358.526685 265.889552 
L 359.437408 265.659275 
L 360.348131 266.426866 
L 361.258854 266.733902 
L 362.169577 267.501493 
L 363.0803 267.271215 
L 364.901746 268.115565 
L 365.812469 268.652878 
L 366.723192 269.036674 
L 367.633915 270.95565 
L 369.455362 271.416205 
L 370.366085 272.721109 
L 371.276808 271.569723 
L 372.187531 271.646482 
L 373.098254 271.876759 
L 374.008977 271.8 
L 374.9197 272.260554 
L 375.830423 271.569723 
L 376.741146 271.876759 
L 377.651869 271.646482 
L 378.562592 270.95565 
L 379.473315 269.727505 
L 380.384038 269.266951 
L 381.294761 267.655011 
L 382.205484 267.501493 
L 383.116207 266.733902 
L 384.937653 264.891684 
L 385.848376 263.356503 
L 386.759099 262.895949 
L 387.669822 262.895949 
L 388.580545 261.207249 
L 389.491268 262.128358 
L 390.401991 261.821322 
L 392.223437 259.441791 
L 394.955606 253.224307 
L 395.866329 252.303198 
L 396.777052 253.915139 
L 397.687775 254.298934 
L 398.598498 253.83838 
L 399.509221 252.99403 
L 400.419945 251.765885 
L 401.330668 253.83838 
L 402.241391 253.224307 
L 403.152114 253.531343 
L 404.062837 254.145416 
L 404.97356 253.301066 
L 405.884283 253.991898 
L 406.795006 254.529211 
L 407.705729 254.145416 
L 408.616452 254.682729 
L 409.527175 254.913006 
L 410.437898 256.371429 
L 411.348621 255.987633 
L 412.259344 254.913006 
L 413.170067 255.45032 
L 414.08079 255.757356 
L 416.812959 256.21791 
L 417.723682 255.680597 
L 418.634405 256.908742 
L 419.545128 256.141151 
L 420.455851 257.90661 
L 421.366574 258.367164 
L 422.277297 257.292537 
L 423.18802 258.750959 
L 424.098743 258.290405 
L 425.009466 258.827719 
L 425.920189 259.595309 
L 426.830912 260.823454 
L 427.741635 261.667804 
L 429.563081 265.889552 
L 430.473804 266.810661 
L 432.295251 265.659275 
L 433.205974 266.964179 
L 434.116697 266.657143 
L 435.02742 266.88742 
L 435.938143 266.580384 
L 436.848866 267.194456 
L 437.759589 266.733902 
L 438.670312 267.501493 
L 439.581035 267.962047 
L 440.491758 267.73177 
L 441.402481 268.729638 
L 443.223927 266.88742 
L 444.13465 264.814925 
L 445.045373 266.580384 
L 445.956096 266.964179 
L 446.866819 267.501493 
L 447.777542 267.578252 
L 448.688265 268.115565 
L 449.598988 267.501493 
L 450.509711 266.733902 
L 451.420434 266.426866 
L 452.331157 265.736034 
L 453.24188 266.503625 
L 455.974049 266.04307 
L 456.884772 265.045203 
L 457.795495 265.198721 
L 458.706218 264.891684 
L 459.616941 263.970576 
L 460.527664 263.663539 
L 461.438387 265.352239 
L 462.34911 265.352239 
L 463.259834 264.584648 
L 464.170557 262.895949 
L 465.08128 264.277612 
L 465.992003 264.584648 
L 466.902726 263.433262 
L 467.813449 261.667804 
L 468.724172 260.976972 
L 469.634895 258.904478 
L 470.545618 260.055864 
L 471.456341 259.902345 
L 472.367064 260.3629 
L 473.277787 259.902345 
L 474.18851 258.520682 
L 475.099233 257.599574 
L 476.009956 256.064392 
L 476.920679 255.527079 
L 477.831402 255.603838 
L 478.742125 255.066525 
L 479.652848 253.76162 
L 480.563571 251.535608 
L 481.474294 251.842644 
L 482.385017 250.614499 
L 483.29574 250.307463 
L 484.206463 248.311727 
L 485.117186 246.623028 
L 486.027909 247.697655 
L 486.938632 247.467377 
L 487.849355 247.390618 
L 488.760078 246.930064 
L 489.670801 246.930064 
L 490.581524 247.697655 
L 491.492247 247.313859 
L 492.40297 247.083582 
L 493.313693 246.315991 
L 495.13514 245.471642 
L 496.045863 244.704051 
L 496.956586 244.78081 
L 497.867309 243.475906 
L 498.778032 243.629424 
L 499.688755 245.241365 
L 500.599478 243.322388 
L 501.510201 245.471642 
L 502.420924 244.934328 
L 503.331647 245.394883 
L 504.24237 245.471642 
L 505.153093 245.932196 
L 506.063816 245.62516 
L 506.974539 246.162473 
L 507.885262 244.550533 
L 508.795985 245.087846 
L 509.706708 244.166738 
L 510.617431 245.932196 
L 511.528154 246.699787 
L 512.438877 248.158209 
L 514.260323 249.770149 
L 516.081769 251.228571 
L 517.903215 251.996162 
L 518.813938 253.377825 
L 519.724661 255.220043 
L 520.635384 255.603838 
L 521.546107 258.290405 
L 522.45683 258.981237 
L 523.367553 260.209382 
L 524.278276 261.207249 
L 525.189 261.667804 
L 526.099723 261.053731 
L 527.010446 261.97484 
L 530.653338 267.885288 
L 531.564061 269.573987 
L 532.474784 270.571855 
L 533.385507 271.262687 
L 535.206953 275.637953 
L 536.117676 277.633689 
L 537.028399 278.938593 
L 537.939122 280.934328 
L 538.849845 281.471642 
L 539.760568 281.548401 
L 540.671291 283.2371 
L 541.582014 284.542004 
L 542.492737 285.079318 
L 543.40346 286.307463 
L 544.314183 287.228571 
L 545.224906 287.535608 
L 546.135629 287.689126 
L 548.867798 290.529211 
L 549.778521 291.143284 
L 552.51069 292.755224 
L 553.421413 293.676333 
L 554.332136 294.827719 
L 556.153583 296.593177 
L 557.064306 297.053731 
L 558.885752 296.976972 
L 559.796475 298.128358 
L 560.707198 298.051599 
L 561.617921 298.742431 
L 562.528644 299.58678 
L 563.439367 300.047335 
L 564.35009 300.277612 
L 565.260813 299.433262 
L 566.171536 299.970576 
L 567.082259 299.893817 
L 567.992982 300.968443 
L 569.814428 301.582516 
L 570.725151 301.121962 
L 571.635874 301.428998 
L 572.546597 302.119829 
L 574.368043 302.350107 
L 576.189489 301.966311 
L 577.100212 302.04307 
L 578.010935 301.428998 
L 578.921658 300.200853 
L 578.921658 300.200853 
" style="fill:none;stroke:#00ffff;stroke-linecap:square;stroke-width:1.5;"/>
   </g>
   <g id="patch_3">
    <path d="M 90 320.4 
L 90 43.2 
" style="fill:none;stroke:#000000;stroke-linecap:square;stroke-linejoin:miter;stroke-width:0.8;"/>
   </g>
   <g id="patch_4">
    <path d="M 648 320.4 
L 648 43.2 
" style="fill:none;stroke:#000000;stroke-linecap:square;stroke-linejoin:miter;stroke-width:0.8;"/>
   </g>
   <g id="patch_5">
    <path d="M 90 320.4 
L 648 320.4 
" style="fill:none;stroke:#000000;stroke-linecap:square;stroke-linejoin:miter;stroke-width:0.8;"/>
   </g>
   <g id="patch_6">
    <path d="M 90 43.2 
L 648 43.2 
" style="fill:none;stroke:#000000;stroke-linecap:square;stroke-linejoin:miter;stroke-width:0.8;"/>
   </g>
   <g id="text_19">
    <!-- Testplot -->
    <g transform="translate(345.68625 37.2)scale(0.12 -0.12)">
     <defs>
      <path d="M -0.296875 72.90625 
L 61.375 72.90625 
L 61.375 64.59375 
L 35.5 64.59375 
L 35.5 0 
L 25.59375 0 
L 25.59375 64.59375 
L -0.296875 64.59375 
z
" id="DejaVuSans-84"/>
      <path d="M 56.203125 29.59375 
L 56.203125 25.203125 
L 14.890625 25.203125 
Q 15.484375 15.921875 20.484375 11.0625 
Q 25.484375 6.203125 34.421875 6.203125 
Q 39.59375 6.203125 44.453125 7.46875 
Q 49.3125 8.734375 54.109375 11.28125 
L 54.109375 2.78125 
Q 49.265625 0.734375 44.1875 -0.34375 
Q 39.109375 -1.421875 33.890625 -1.421875 
Q 20.796875 -1.421875 13.15625 6.1875 
Q 5.515625 13.8125 5.515625 26.8125 
Q 5.515625 40.234375 12.765625 48.109375 
Q 20.015625 56 32.328125 56 
Q 43.359375 56 49.78125 48.890625 
Q 56.203125 41.796875 56.203125 29.59375 
z
M 47.21875 32.234375 
Q 47.125 39.59375 43.09375 43.984375 
Q 39.0625 48.390625 32.421875 48.390625 
Q 24.90625 48.390625 20.390625 44.140625 
Q 15.875 39.890625 15.1875 32.171875 
z
" id="DejaVuSans-101"/>
      <path d="M 44.28125 53.078125 
L 44.28125 44.578125 
Q 40.484375 46.53125 36.375 47.5 
Q 32.28125 48.484375 27.875 48.484375 
Q 21.1875 48.484375 17.84375 46.4375 
Q 14.5 44.390625 14.5 40.28125 
Q 14.5 37.15625 16.890625 35.375 
Q 19.28125 33.59375 26.515625 31.984375 
L 29.59375 31.296875 
Q 39.15625 29.25 43.1875 25.515625 
Q 47.21875 21.78125 47.21875 15.09375 
Q 47.21875 7.46875 41.1875 3.015625 
Q 35.15625 -1.421875 24.609375 -1.421875 
Q 20.21875 -1.421875 15.453125 -0.5625 
Q 10.6875 0.296875 5.421875 2 
L 5.421875 11.28125 
Q 10.40625 8.6875 15.234375 7.390625 
Q 20.0625 6.109375 24.8125 6.109375 
Q 31.15625 6.109375 34.5625 8.28125 
Q 37.984375 10.453125 37.984375 14.40625 
Q 37.984375 18.0625 35.515625 20.015625 
Q 33.0625 21.96875 24.703125 23.78125 
L 21.578125 24.515625 
Q 13.234375 26.265625 9.515625 29.90625 
Q 5.8125 33.546875 5.8125 39.890625 
Q 5.8125 47.609375 11.28125 51.796875 
Q 16.75 56 26.8125 56 
Q 31.78125 56 36.171875 55.265625 
Q 40.578125 54.546875 44.28125 53.078125 
z
" id="DejaVuSans-115"/>
      <path d="M 18.109375 8.203125 
L 18.109375 -20.796875 
L 9.078125 -20.796875 
L 9.078125 54.6875 
L 18.109375 54.6875 
L 18.109375 46.390625 
Q 20.953125 51.265625 25.265625 53.625 
Q 29.59375 56 35.59375 56 
Q 45.5625 56 51.78125 48.09375 
Q 58.015625 40.1875 58.015625 27.296875 
Q 58.015625 14.40625 51.78125 6.484375 
Q 45.5625 -1.421875 35.59375 -1.421875 
Q 29.59375 -1.421875 25.265625 0.953125 
Q 20.953125 3.328125 18.109375 8.203125 
z
M 48.6875 27.296875 
Q 48.6875 37.203125 44.609375 42.84375 
Q 40.53125 48.484375 33.40625 48.484375 
Q 26.265625 48.484375 22.1875 42.84375 
Q 18.109375 37.203125 18.109375 27.296875 
Q 18.109375 17.390625 22.1875 11.75 
Q 26.265625 6.109375 33.40625 6.109375 
Q 40.53125 6.109375 44.609375 11.75 
Q 48.6875 17.390625 48.6875 27.296875 
z
" id="DejaVuSans-112"/>
      <path d="M 9.421875 75.984375 
L 18.40625 75.984375 
L 18.40625 0 
L 9.421875 0 
z
" id="DejaVuSans-108"/>
      <path d="M 30.609375 48.390625 
Q 23.390625 48.390625 19.1875 42.75 
Q 14.984375 37.109375 14.984375 27.296875 
Q 14.984375 17.484375 19.15625 11.84375 
Q 23.34375 6.203125 30.609375 6.203125 
Q 37.796875 6.203125 41.984375 11.859375 
Q 46.1875 17.53125 46.1875 27.296875 
Q 46.1875 37.015625 41.984375 42.703125 
Q 37.796875 48.390625 30.609375 48.390625 
z
M 30.609375 56 
Q 42.328125 56 49.015625 48.375 
Q 55.71875 40.765625 55.71875 27.296875 
Q 55.71875 13.875 49.015625 6.21875 
Q 42.328125 -1.421875 30.609375 -1.421875 
Q 18.84375 -1.421875 12.171875 6.21875 
Q 5.515625 13.875 5.515625 27.296875 
Q 5.515625 40.765625 12.171875 48.375 
Q 18.84375 56 30.609375 56 
z
" id="DejaVuSans-111"/>
     </defs>
     <use xlink:href="#DejaVuSans-84"/>
     <use x="44.083984" xlink:href="#DejaVuSans-101"/>
     <use x="105.607422" xlink:href="#DejaVuSans-115"/>
     <use x="157.707031" xlink:href="#DejaVuSans-116"/>
     <use x="196.916016" xlink:href="#DejaVuSans-112"/>
     <use x="260.392578" xlink:href="#DejaVuSans-108"/>
     <use x="288.175781" xlink:href="#DejaVuSans-111"/>
     <use x="349.357422" xlink:href="#DejaVuSans-116"/>
    </g>
   </g>
   <g id="legend_1">
    <g id="patch_7">
     <path d="M 97 109.9125 
L 347.15 109.9125 
Q 349.15 109.9125 349.15 107.9125 
L 349.15 50.2 
Q 349.15 48.2 347.15 48.2 
L 97 48.2 
Q 95 48.2 95 50.2 
L 95 107.9125 
Q 95 109.9125 97 109.9125 
z
" style="fill:#ffffff;opacity:0.8;stroke:#cccccc;stroke-linejoin:miter;"/>
    </g>
    <g id="line2d_39">
     <path d="M 99 56.298437 
L 119 56.298437 
" style="fill:none;stroke:#ff0000;stroke-linecap:square;stroke-width:1.5;"/>
    </g>
    <g id="line2d_40"/>
    <g id="text_20">
     <!-- covid opgenomen patinten NICE (nu 461) -->
     <g transform="translate(127 59.798437)scale(0.1 -0.1)">
      <defs>
       <path d="M 48.78125 52.59375 
L 48.78125 44.1875 
Q 44.96875 46.296875 41.140625 47.34375 
Q 37.3125 48.390625 33.40625 48.390625 
Q 24.65625 48.390625 19.8125 42.84375 
Q 14.984375 37.3125 14.984375 27.296875 
Q 14.984375 17.28125 19.8125 11.734375 
Q 24.65625 6.203125 33.40625 6.203125 
Q 37.3125 6.203125 41.140625 7.25 
Q 44.96875 8.296875 48.78125 10.40625 
L 48.78125 2.09375 
Q 45.015625 0.34375 40.984375 -0.53125 
Q 36.96875 -1.421875 32.421875 -1.421875 
Q 20.0625 -1.421875 12.78125 6.34375 
Q 5.515625 14.109375 5.515625 27.296875 
Q 5.515625 40.671875 12.859375 48.328125 
Q 20.21875 56 33.015625 56 
Q 37.15625 56 41.109375 55.140625 
Q 45.0625 54.296875 48.78125 52.59375 
z
" id="DejaVuSans-99"/>
       <path d="M 2.984375 54.6875 
L 12.5 54.6875 
L 29.59375 8.796875 
L 46.6875 54.6875 
L 56.203125 54.6875 
L 35.6875 0 
L 23.484375 0 
z
" id="DejaVuSans-118"/>
       <path d="M 9.421875 54.6875 
L 18.40625 54.6875 
L 18.40625 0 
L 9.421875 0 
z
M 9.421875 75.984375 
L 18.40625 75.984375 
L 18.40625 64.59375 
L 9.421875 64.59375 
z
" id="DejaVuSans-105"/>
       <path d="M 45.40625 46.390625 
L 45.40625 75.984375 
L 54.390625 75.984375 
L 54.390625 0 
L 45.40625 0 
L 45.40625 8.203125 
Q 42.578125 3.328125 38.25 0.953125 
Q 33.9375 -1.421875 27.875 -1.421875 
Q 17.96875 -1.421875 11.734375 6.484375 
Q 5.515625 14.40625 5.515625 27.296875 
Q 5.515625 40.1875 11.734375 48.09375 
Q 17.96875 56 27.875 56 
Q 33.9375 56 38.25 53.625 
Q 42.578125 51.265625 45.40625 46.390625 
z
M 14.796875 27.296875 
Q 14.796875 17.390625 18.875 11.75 
Q 22.953125 6.109375 30.078125 6.109375 
Q 37.203125 6.109375 41.296875 11.75 
Q 45.40625 17.390625 45.40625 27.296875 
Q 45.40625 37.203125 41.296875 42.84375 
Q 37.203125 48.484375 30.078125 48.484375 
Q 22.953125 48.484375 18.875 42.84375 
Q 14.796875 37.203125 14.796875 27.296875 
z
" id="DejaVuSans-100"/>
       <path id="DejaVuSans-32"/>
       <path d="M 45.40625 27.984375 
Q 45.40625 37.75 41.375 43.109375 
Q 37.359375 48.484375 30.078125 48.484375 
Q 22.859375 48.484375 18.828125 43.109375 
Q 14.796875 37.75 14.796875 27.984375 
Q 14.796875 18.265625 18.828125 12.890625 
Q 22.859375 7.515625 30.078125 7.515625 
Q 37.359375 7.515625 41.375 12.890625 
Q 45.40625 18.265625 45.40625 27.984375 
z
M 54.390625 6.78125 
Q 54.390625 -7.171875 48.1875 -13.984375 
Q 42 -20.796875 29.203125 -20.796875 
Q 24.46875 -20.796875 20.265625 -20.09375 
Q 16.0625 -19.390625 12.109375 -17.921875 
L 12.109375 -9.1875 
Q 16.0625 -11.328125 19.921875 -12.34375 
Q 23.78125 -13.375 27.78125 -13.375 
Q 36.625 -13.375 41.015625 -8.765625 
Q 45.40625 -4.15625 45.40625 5.171875 
L 45.40625 9.625 
Q 42.625 4.78125 38.28125 2.390625 
Q 33.9375 0 27.875 0 
Q 17.828125 0 11.671875 7.65625 
Q 5.515625 15.328125 5.515625 27.984375 
Q 5.515625 40.671875 11.671875 48.328125 
Q 17.828125 56 27.875 56 
Q 33.9375 56 38.28125 53.609375 
Q 42.625 51.21875 45.40625 46.390625 
L 45.40625 54.6875 
L 54.390625 54.6875 
z
" id="DejaVuSans-103"/>
       <path d="M 54.890625 33.015625 
L 54.890625 0 
L 45.90625 0 
L 45.90625 32.71875 
Q 45.90625 40.484375 42.875 44.328125 
Q 39.84375 48.1875 33.796875 48.1875 
Q 26.515625 48.1875 22.3125 43.546875 
Q 18.109375 38.921875 18.109375 30.90625 
L 18.109375 0 
L 9.078125 0 
L 9.078125 54.6875 
L 18.109375 54.6875 
L 18.109375 46.1875 
Q 21.34375 51.125 25.703125 53.5625 
Q 30.078125 56 35.796875 56 
Q 45.21875 56 50.046875 50.171875 
Q 54.890625 44.34375 54.890625 33.015625 
z
" id="DejaVuSans-110"/>
       <path d="M 56.203125 29.59375 
L 56.203125 25.203125 
L 14.890625 25.203125 
Q 15.484375 15.921875 20.484375 11.0625 
Q 25.484375 6.203125 34.421875 6.203125 
Q 39.59375 6.203125 44.453125 7.46875 
Q 49.3125 8.734375 54.109375 11.28125 
L 54.109375 2.78125 
Q 49.265625 0.734375 44.1875 -0.34375 
Q 39.109375 -1.421875 33.890625 -1.421875 
Q 20.796875 -1.421875 13.15625 6.1875 
Q 5.515625 13.8125 5.515625 26.8125 
Q 5.515625 40.234375 12.765625 48.109375 
Q 20.015625 56 32.328125 56 
Q 43.359375 56 49.78125 48.890625 
Q 56.203125 41.796875 56.203125 29.59375 
z
M 47.21875 32.234375 
Q 47.125 39.59375 43.09375 43.984375 
Q 39.0625 48.390625 32.421875 48.390625 
Q 24.90625 48.390625 20.390625 44.140625 
Q 15.875 39.890625 15.1875 32.171875 
z
M 36.34375 75.78125 
L 46.25 75.78125 
L 46.25 65.921875 
L 36.34375 65.921875 
z
M 17.25 75.78125 
L 27.15625 75.78125 
L 27.15625 65.921875 
L 17.25 65.921875 
z
" id="DejaVuSans-235"/>
       <path d="M 9.8125 72.90625 
L 23.09375 72.90625 
L 55.421875 11.921875 
L 55.421875 72.90625 
L 64.984375 72.90625 
L 64.984375 0 
L 51.703125 0 
L 19.390625 60.984375 
L 19.390625 0 
L 9.8125 0 
z
" id="DejaVuSans-78"/>
       <path d="M 9.8125 72.90625 
L 19.671875 72.90625 
L 19.671875 0 
L 9.8125 0 
z
" id="DejaVuSans-73"/>
       <path d="M 64.40625 67.28125 
L 64.40625 56.890625 
Q 59.421875 61.53125 53.78125 63.8125 
Q 48.140625 66.109375 41.796875 66.109375 
Q 29.296875 66.109375 22.65625 58.46875 
Q 16.015625 50.828125 16.015625 36.375 
Q 16.015625 21.96875 22.65625 14.328125 
Q 29.296875 6.6875 41.796875 6.6875 
Q 48.140625 6.6875 53.78125 8.984375 
Q 59.421875 11.28125 64.40625 15.921875 
L 64.40625 5.609375 
Q 59.234375 2.09375 53.4375 0.328125 
Q 47.65625 -1.421875 41.21875 -1.421875 
Q 24.65625 -1.421875 15.125 8.703125 
Q 5.609375 18.84375 5.609375 36.375 
Q 5.609375 53.953125 15.125 64.078125 
Q 24.65625 74.21875 41.21875 74.21875 
Q 47.75 74.21875 53.53125 72.484375 
Q 59.328125 70.75 64.40625 67.28125 
z
" id="DejaVuSans-67"/>
       <path d="M 9.8125 72.90625 
L 55.90625 72.90625 
L 55.90625 64.59375 
L 19.671875 64.59375 
L 19.671875 43.015625 
L 54.390625 43.015625 
L 54.390625 34.71875 
L 19.671875 34.71875 
L 19.671875 8.296875 
L 56.78125 8.296875 
L 56.78125 0 
L 9.8125 0 
z
" id="DejaVuSans-69"/>
       <path d="M 31 75.875 
Q 24.46875 64.65625 21.28125 53.65625 
Q 18.109375 42.671875 18.109375 31.390625 
Q 18.109375 20.125 21.3125 9.0625 
Q 24.515625 -2 31 -13.1875 
L 23.1875 -13.1875 
Q 15.875 -1.703125 12.234375 9.375 
Q 8.59375 20.453125 8.59375 31.390625 
Q 8.59375 42.28125 12.203125 53.3125 
Q 15.828125 64.359375 23.1875 75.875 
z
" id="DejaVuSans-40"/>
       <path d="M 37.796875 64.3125 
L 12.890625 25.390625 
L 37.796875 25.390625 
z
M 35.203125 72.90625 
L 47.609375 72.90625 
L 47.609375 25.390625 
L 58.015625 25.390625 
L 58.015625 17.1875 
L 47.609375 17.1875 
L 47.609375 0 
L 37.796875 0 
L 37.796875 17.1875 
L 4.890625 17.1875 
L 4.890625 26.703125 
z
" id="DejaVuSans-52"/>
       <path d="M 33.015625 40.375 
Q 26.375 40.375 22.484375 35.828125 
Q 18.609375 31.296875 18.609375 23.390625 
Q 18.609375 15.53125 22.484375 10.953125 
Q 26.375 6.390625 33.015625 6.390625 
Q 39.65625 6.390625 43.53125 10.953125 
Q 47.40625 15.53125 47.40625 23.390625 
Q 47.40625 31.296875 43.53125 35.828125 
Q 39.65625 40.375 33.015625 40.375 
z
M 52.59375 71.296875 
L 52.59375 62.3125 
Q 48.875 64.0625 45.09375 64.984375 
Q 41.3125 65.921875 37.59375 65.921875 
Q 27.828125 65.921875 22.671875 59.328125 
Q 17.53125 52.734375 16.796875 39.40625 
Q 19.671875 43.65625 24.015625 45.921875 
Q 28.375 48.1875 33.59375 48.1875 
Q 44.578125 48.1875 50.953125 41.515625 
Q 57.328125 34.859375 57.328125 23.390625 
Q 57.328125 12.15625 50.6875 5.359375 
Q 44.046875 -1.421875 33.015625 -1.421875 
Q 20.359375 -1.421875 13.671875 8.265625 
Q 6.984375 17.96875 6.984375 36.375 
Q 6.984375 53.65625 15.1875 63.9375 
Q 23.390625 74.21875 37.203125 74.21875 
Q 40.921875 74.21875 44.703125 73.484375 
Q 48.484375 72.75 52.59375 71.296875 
z
" id="DejaVuSans-54"/>
       <path d="M 8.015625 75.875 
L 15.828125 75.875 
Q 23.140625 64.359375 26.78125 53.3125 
Q 30.421875 42.28125 30.421875 31.390625 
Q 30.421875 20.453125 26.78125 9.375 
Q 23.140625 -1.703125 15.828125 -13.1875 
L 8.015625 -13.1875 
Q 14.5 -2 17.703125 9.0625 
Q 20.90625 20.125 20.90625 31.390625 
Q 20.90625 42.671875 17.703125 53.65625 
Q 14.5 64.65625 8.015625 75.875 
z
" id="DejaVuSans-41"/>
      </defs>
      <use xlink:href="#DejaVuSans-99"/>
      <use x="54.980469" xlink:href="#DejaVuSans-111"/>
      <use x="116.162109" xlink:href="#DejaVuSans-118"/>
      <use x="175.341797" xlink:href="#DejaVuSans-105"/>
      <use x="203.125" xlink:href="#DejaVuSans-100"/>
      <use x="266.601562" xlink:href="#DejaVuSans-32"/>
      <use x="298.388672" xlink:href="#DejaVuSans-111"/>
      <use x="359.570312" xlink:href="#DejaVuSans-112"/>
      <use x="423.046875" xlink:href="#DejaVuSans-103"/>
      <use x="486.523438" xlink:href="#DejaVuSans-101"/>
      <use x="548.046875" xlink:href="#DejaVuSans-110"/>
      <use x="611.425781" xlink:href="#DejaVuSans-111"/>
      <use x="672.607422" xlink:href="#DejaVuSans-109"/>
      <use x="770.019531" xlink:href="#DejaVuSans-101"/>
      <use x="831.542969" xlink:href="#DejaVuSans-110"/>
      <use x="894.921875" xlink:href="#DejaVuSans-32"/>
      <use x="926.708984" xlink:href="#DejaVuSans-112"/>
      <use x="990.185547" xlink:href="#DejaVuSans-97"/>
      <use x="1051.464844" xlink:href="#DejaVuSans-116"/>
      <use x="1090.673828" xlink:href="#DejaVuSans-105"/>
      <use x="1118.457031" xlink:href="#DejaVuSans-235"/>
      <use x="1179.980469" xlink:href="#DejaVuSans-110"/>
      <use x="1243.359375" xlink:href="#DejaVuSans-116"/>
      <use x="1282.568359" xlink:href="#DejaVuSans-101"/>
      <use x="1344.091797" xlink:href="#DejaVuSans-110"/>
      <use x="1407.470703" xlink:href="#DejaVuSans-32"/>
      <use x="1439.257812" xlink:href="#DejaVuSans-78"/>
      <use x="1514.0625" xlink:href="#DejaVuSans-73"/>
      <use x="1543.554688" xlink:href="#DejaVuSans-67"/>
      <use x="1613.378906" xlink:href="#DejaVuSans-69"/>
      <use x="1676.5625" xlink:href="#DejaVuSans-32"/>
      <use x="1708.349609" xlink:href="#DejaVuSans-40"/>
      <use x="1747.363281" xlink:href="#DejaVuSans-110"/>
      <use x="1810.742188" xlink:href="#DejaVuSans-117"/>
      <use x="1874.121094" xlink:href="#DejaVuSans-32"/>
      <use x="1905.908203" xlink:href="#DejaVuSans-52"/>
      <use x="1969.53125" xlink:href="#DejaVuSans-54"/>
      <use x="2033.154297" xlink:href="#DejaVuSans-49"/>
      <use x="2096.777344" xlink:href="#DejaVuSans-41"/>
     </g>
    </g>
    <g id="line2d_41">
     <path d="M 99 70.976562 
L 119 70.976562 
" style="fill:none;stroke:#ffa500;stroke-linecap:square;stroke-width:1.5;"/>
    </g>
    <g id="line2d_42"/>
    <g id="text_21">
     <!-- covid bezette bedden LCPS (nu 315) -->
     <g transform="translate(127 74.476562)scale(0.1 -0.1)">
      <defs>
       <path d="M 48.6875 27.296875 
Q 48.6875 37.203125 44.609375 42.84375 
Q 40.53125 48.484375 33.40625 48.484375 
Q 26.265625 48.484375 22.1875 42.84375 
Q 18.109375 37.203125 18.109375 27.296875 
Q 18.109375 17.390625 22.1875 11.75 
Q 26.265625 6.109375 33.40625 6.109375 
Q 40.53125 6.109375 44.609375 11.75 
Q 48.6875 17.390625 48.6875 27.296875 
z
M 18.109375 46.390625 
Q 20.953125 51.265625 25.265625 53.625 
Q 29.59375 56 35.59375 56 
Q 45.5625 56 51.78125 48.09375 
Q 58.015625 40.1875 58.015625 27.296875 
Q 58.015625 14.40625 51.78125 6.484375 
Q 45.5625 -1.421875 35.59375 -1.421875 
Q 29.59375 -1.421875 25.265625 0.953125 
Q 20.953125 3.328125 18.109375 8.203125 
L 18.109375 0 
L 9.078125 0 
L 9.078125 75.984375 
L 18.109375 75.984375 
z
" id="DejaVuSans-98"/>
       <path d="M 5.515625 54.6875 
L 48.1875 54.6875 
L 48.1875 46.484375 
L 14.40625 7.171875 
L 48.1875 7.171875 
L 48.1875 0 
L 4.296875 0 
L 4.296875 8.203125 
L 38.09375 47.515625 
L 5.515625 47.515625 
z
" id="DejaVuSans-122"/>
       <path d="M 9.8125 72.90625 
L 19.671875 72.90625 
L 19.671875 8.296875 
L 55.171875 8.296875 
L 55.171875 0 
L 9.8125 0 
z
" id="DejaVuSans-76"/>
       <path d="M 19.671875 64.796875 
L 19.671875 37.40625 
L 32.078125 37.40625 
Q 38.96875 37.40625 42.71875 40.96875 
Q 46.484375 44.53125 46.484375 51.125 
Q 46.484375 57.671875 42.71875 61.234375 
Q 38.96875 64.796875 32.078125 64.796875 
z
M 9.8125 72.90625 
L 32.078125 72.90625 
Q 44.34375 72.90625 50.609375 67.359375 
Q 56.890625 61.8125 56.890625 51.125 
Q 56.890625 40.328125 50.609375 34.8125 
Q 44.34375 29.296875 32.078125 29.296875 
L 19.671875 29.296875 
L 19.671875 0 
L 9.8125 0 
z
" id="DejaVuSans-80"/>
       <path d="M 53.515625 70.515625 
L 53.515625 60.890625 
Q 47.90625 63.578125 42.921875 64.890625 
Q 37.9375 66.21875 33.296875 66.21875 
Q 25.25 66.21875 20.875 63.09375 
Q 16.5 59.96875 16.5 54.203125 
Q 16.5 49.359375 19.40625 46.890625 
Q 22.3125 44.4375 30.421875 42.921875 
L 36.375 41.703125 
Q 47.40625 39.59375 52.65625 34.296875 
Q 57.90625 29 57.90625 20.125 
Q 57.90625 9.515625 50.796875 4.046875 
Q 43.703125 -1.421875 29.984375 -1.421875 
Q 24.8125 -1.421875 18.96875 -0.25 
Q 13.140625 0.921875 6.890625 3.21875 
L 6.890625 13.375 
Q 12.890625 10.015625 18.65625 8.296875 
Q 24.421875 6.59375 29.984375 6.59375 
Q 38.421875 6.59375 43.015625 9.90625 
Q 47.609375 13.234375 47.609375 19.390625 
Q 47.609375 24.75 44.3125 27.78125 
Q 41.015625 30.8125 33.5 32.328125 
L 27.484375 33.5 
Q 16.453125 35.6875 11.515625 40.375 
Q 6.59375 45.0625 6.59375 53.421875 
Q 6.59375 63.09375 13.40625 68.65625 
Q 20.21875 74.21875 32.171875 74.21875 
Q 37.3125 74.21875 42.625 73.28125 
Q 47.953125 72.359375 53.515625 70.515625 
z
" id="DejaVuSans-83"/>
      </defs>
      <use xlink:href="#DejaVuSans-99"/>
      <use x="54.980469" xlink:href="#DejaVuSans-111"/>
      <use x="116.162109" xlink:href="#DejaVuSans-118"/>
      <use x="175.341797" xlink:href="#DejaVuSans-105"/>
      <use x="203.125" xlink:href="#DejaVuSans-100"/>
      <use x="266.601562" xlink:href="#DejaVuSans-32"/>
      <use x="298.388672" xlink:href="#DejaVuSans-98"/>
      <use x="361.865234" xlink:href="#DejaVuSans-101"/>
      <use x="423.388672" xlink:href="#DejaVuSans-122"/>
      <use x="475.878906" xlink:href="#DejaVuSans-101"/>
      <use x="537.402344" xlink:href="#DejaVuSans-116"/>
      <use x="576.611328" xlink:href="#DejaVuSans-116"/>
      <use x="615.820312" xlink:href="#DejaVuSans-101"/>
      <use x="677.34375" xlink:href="#DejaVuSans-32"/>
      <use x="709.130859" xlink:href="#DejaVuSans-98"/>
      <use x="772.607422" xlink:href="#DejaVuSans-101"/>
      <use x="834.130859" xlink:href="#DejaVuSans-100"/>
      <use x="897.607422" xlink:href="#DejaVuSans-100"/>
      <use x="961.083984" xlink:href="#DejaVuSans-101"/>
      <use x="1022.607422" xlink:href="#DejaVuSans-110"/>
      <use x="1085.986328" xlink:href="#DejaVuSans-32"/>
      <use x="1117.773438" xlink:href="#DejaVuSans-76"/>
      <use x="1173.486328" xlink:href="#DejaVuSans-67"/>
      <use x="1243.310547" xlink:href="#DejaVuSans-80"/>
      <use x="1303.613281" xlink:href="#DejaVuSans-83"/>
      <use x="1367.089844" xlink:href="#DejaVuSans-32"/>
      <use x="1398.876953" xlink:href="#DejaVuSans-40"/>
      <use x="1437.890625" xlink:href="#DejaVuSans-110"/>
      <use x="1501.269531" xlink:href="#DejaVuSans-117"/>
      <use x="1564.648438" xlink:href="#DejaVuSans-32"/>
      <use x="1596.435547" xlink:href="#DejaVuSans-51"/>
      <use x="1660.058594" xlink:href="#DejaVuSans-49"/>
      <use x="1723.681641" xlink:href="#DejaVuSans-53"/>
      <use x="1787.304688" xlink:href="#DejaVuSans-41"/>
     </g>
    </g>
    <g id="line2d_43">
     <path d="M 99 85.654687 
L 119 85.654687 
" style="fill:none;stroke:#0000ff;stroke-linecap:square;stroke-width:1.5;"/>
    </g>
    <g id="line2d_44"/>
    <g id="text_22">
     <!-- non-covid bezette IC bedden LCPS (nu 543) -->
     <g transform="translate(127 89.154687)scale(0.1 -0.1)">
      <use xlink:href="#DejaVuSans-110"/>
      <use x="63.378906" xlink:href="#DejaVuSans-111"/>
      <use x="124.560547" xlink:href="#DejaVuSans-110"/>
      <use x="187.939453" xlink:href="#DejaVuSans-45"/>
      <use x="224.023438" xlink:href="#DejaVuSans-99"/>
      <use x="279.003906" xlink:href="#DejaVuSans-111"/>
      <use x="340.185547" xlink:href="#DejaVuSans-118"/>
      <use x="399.365234" xlink:href="#DejaVuSans-105"/>
      <use x="427.148438" xlink:href="#DejaVuSans-100"/>
      <use x="490.625" xlink:href="#DejaVuSans-32"/>
      <use x="522.412109" xlink:href="#DejaVuSans-98"/>
      <use x="585.888672" xlink:href="#DejaVuSans-101"/>
      <use x="647.412109" xlink:href="#DejaVuSans-122"/>
      <use x="699.902344" xlink:href="#DejaVuSans-101"/>
      <use x="761.425781" xlink:href="#DejaVuSans-116"/>
      <use x="800.634766" xlink:href="#DejaVuSans-116"/>
      <use x="839.84375" xlink:href="#DejaVuSans-101"/>
      <use x="901.367188" xlink:href="#DejaVuSans-32"/>
      <use x="933.154297" xlink:href="#DejaVuSans-73"/>
      <use x="962.646484" xlink:href="#DejaVuSans-67"/>
      <use x="1032.470703" xlink:href="#DejaVuSans-32"/>
      <use x="1064.257812" xlink:href="#DejaVuSans-98"/>
      <use x="1127.734375" xlink:href="#DejaVuSans-101"/>
      <use x="1189.257812" xlink:href="#DejaVuSans-100"/>
      <use x="1252.734375" xlink:href="#DejaVuSans-100"/>
      <use x="1316.210938" xlink:href="#DejaVuSans-101"/>
      <use x="1377.734375" xlink:href="#DejaVuSans-110"/>
      <use x="1441.113281" xlink:href="#DejaVuSans-32"/>
      <use x="1472.900391" xlink:href="#DejaVuSans-76"/>
      <use x="1528.613281" xlink:href="#DejaVuSans-67"/>
      <use x="1598.4375" xlink:href="#DejaVuSans-80"/>
      <use x="1658.740234" xlink:href="#DejaVuSans-83"/>
      <use x="1722.216797" xlink:href="#DejaVuSans-32"/>
      <use x="1754.003906" xlink:href="#DejaVuSans-40"/>
      <use x="1793.017578" xlink:href="#DejaVuSans-110"/>
      <use x="1856.396484" xlink:href="#DejaVuSans-117"/>
      <use x="1919.775391" xlink:href="#DejaVuSans-32"/>
      <use x="1951.5625" xlink:href="#DejaVuSans-53"/>
      <use x="2015.185547" xlink:href="#DejaVuSans-52"/>
      <use x="2078.808594" xlink:href="#DejaVuSans-51"/>
      <use x="2142.431641" xlink:href="#DejaVuSans-41"/>
     </g>
    </g>
    <g id="line2d_45">
     <path d="M 99 100.332812 
L 119 100.332812 
" style="fill:none;stroke:#00ffff;stroke-linecap:square;stroke-width:1.5;"/>
    </g>
    <g id="line2d_46"/>
    <g id="text_23">
     <!-- covid bezette IC bedden LCPS (nu 100) -->
     <g transform="translate(127 103.832812)scale(0.1 -0.1)">
      <use xlink:href="#DejaVuSans-99"/>
      <use x="54.980469" xlink:href="#DejaVuSans-111"/>
      <use x="116.162109" xlink:href="#DejaVuSans-118"/>
      <use x="175.341797" xlink:href="#DejaVuSans-105"/>
      <use x="203.125" xlink:href="#DejaVuSans-100"/>
      <use x="266.601562" xlink:href="#DejaVuSans-32"/>
      <use x="298.388672" xlink:href="#DejaVuSans-98"/>
      <use x="361.865234" xlink:href="#DejaVuSans-101"/>
      <use x="423.388672" xlink:href="#DejaVuSans-122"/>
      <use x="475.878906" xlink:href="#DejaVuSans-101"/>
      <use x="537.402344" xlink:href="#DejaVuSans-116"/>
      <use x="576.611328" xlink:href="#DejaVuSans-116"/>
      <use x="615.820312" xlink:href="#DejaVuSans-101"/>
      <use x="677.34375" xlink:href="#DejaVuSans-32"/>
      <use x="709.130859" xlink:href="#DejaVuSans-73"/>
      <use x="738.623047" xlink:href="#DejaVuSans-67"/>
      <use x="808.447266" xlink:href="#DejaVuSans-32"/>
      <use x="840.234375" xlink:href="#DejaVuSans-98"/>
      <use x="903.710938" xlink:href="#DejaVuSans-101"/>
      <use x="965.234375" xlink:href="#DejaVuSans-100"/>
      <use x="1028.710938" xlink:href="#DejaVuSans-100"/>
      <use x="1092.1875" xlink:href="#DejaVuSans-101"/>
      <use x="1153.710938" xlink:href="#DejaVuSans-110"/>
      <use x="1217.089844" xlink:href="#DejaVuSans-32"/>
      <use x="1248.876953" xlink:href="#DejaVuSans-76"/>
      <use x="1304.589844" xlink:href="#DejaVuSans-67"/>
      <use x="1374.414062" xlink:href="#DejaVuSans-80"/>
      <use x="1434.716797" xlink:href="#DejaVuSans-83"/>
      <use x="1498.193359" xlink:href="#DejaVuSans-32"/>
      <use x="1529.980469" xlink:href="#DejaVuSans-40"/>
      <use x="1568.994141" xlink:href="#DejaVuSans-110"/>
      <use x="1632.373047" xlink:href="#DejaVuSans-117"/>
      <use x="1695.751953" xlink:href="#DejaVuSans-32"/>
      <use x="1727.539062" xlink:href="#DejaVuSans-49"/>
      <use x="1791.162109" xlink:href="#DejaVuSans-48"/>
      <use x="1854.785156" xlink:href="#DejaVuSans-48"/>
      <use x="1918.408203" xlink:href="#DejaVuSans-41"/>
     </g>
    </g>
   </g>
  </g>
 </g>
 <defs>
  <clipPath id="pa736094022">
   <rect height="277.2" width="558" x="90" y="43.2"/>
  </clipPath>
 </defs>
</svg>
