<?xml version="1.0" encoding="utf-8" standalone="no"?>
<!DOCTYPE svg PUBLIC "-//W3C//DTD SVG 1.1//EN"
  "http://www.w3.org/Graphics/SVG/1.1/DTD/svg11.dtd">
<!-- Created with matplotlib (https://matplotlib.org/) -->
<svg height="360pt" version="1.1" viewBox="0 0 720 360" width="720pt" xmlns="http://www.w3.org/2000/svg" xmlns:xlink="http://www.w3.org/1999/xlink">
 <metadata>
  <rdf:RDF xmlns:cc="http://creativecommons.org/ns#" xmlns:dc="http://purl.org/dc/elements/1.1/" xmlns:rdf="http://www.w3.org/1999/02/22-rdf-syntax-ns#">
   <cc:Work>
    <dc:type rdf:resource="http://purl.org/dc/dcmitype/StillImage"/>
    <dc:date>2020-12-27T17:18:58.150042</dc:date>
    <dc:format>image/svg+xml</dc:format>
    <dc:creator>
     <cc:Agent>
      <dc:title>Matplotlib v3.3.2, https://matplotlib.org/</dc:title>
     </cc:Agent>
    </dc:creator>
   </cc:Work>
  </rdf:RDF>
 </metadata>
 <defs>
  <style type="text/css">*{stroke-linecap:butt;stroke-linejoin:round;}</style>
 </defs>
 <g id="figure_1">
  <g id="patch_1">
   <path d="M 0 360 
L 720 360 
L 720 0 
L 0 0 
z
" style="fill:#ffffff;"/>
  </g>
  <g id="axes_1">
   <g id="patch_2">
    <path d="M 90 320.4 
L 648 320.4 
L 648 43.2 
L 90 43.2 
z
" style="fill:#ffffff;"/>
   </g>
   <g id="matplotlib.axis_1">
    <g id="xtick_1">
     <g id="line2d_1">
      <path clip-path="url(#p6b71b8314d)" d="M 120.369617 320.4 
L 120.369617 43.2 
" style="fill:none;stroke:#808080;stroke-dasharray:6.4,1.6,1,1.6;stroke-dashoffset:0;stroke-opacity:0.3;"/>
     </g>
     <g id="line2d_2">
      <defs>
       <path d="M 0 0 
L 0 3.5 
" id="m16e682e7dd" style="stroke:#000000;stroke-width:0.8;"/>
      </defs>
      <g>
       <use style="stroke:#000000;stroke-width:0.8;" x="120.369617" xlink:href="#m16e682e7dd" y="320.4"/>
      </g>
     </g>
     <g id="text_1">
      <!-- 2020-03 -->
      <g transform="translate(99.478211 334.998438)scale(0.1 -0.1)">
       <defs>
        <path d="M 19.1875 8.296875 
L 53.609375 8.296875 
L 53.609375 0 
L 7.328125 0 
L 7.328125 8.296875 
Q 12.9375 14.109375 22.625 23.890625 
Q 32.328125 33.6875 34.8125 36.53125 
Q 39.546875 41.84375 41.421875 45.53125 
Q 43.3125 49.21875 43.3125 52.78125 
Q 43.3125 58.59375 39.234375 62.25 
Q 35.15625 65.921875 28.609375 65.921875 
Q 23.96875 65.921875 18.8125 64.3125 
Q 13.671875 62.703125 7.8125 59.421875 
L 7.8125 69.390625 
Q 13.765625 71.78125 18.9375 73 
Q 24.125 74.21875 28.421875 74.21875 
Q 39.75 74.21875 46.484375 68.546875 
Q 53.21875 62.890625 53.21875 53.421875 
Q 53.21875 48.921875 51.53125 44.890625 
Q 49.859375 40.875 45.40625 35.40625 
Q 44.1875 33.984375 37.640625 27.21875 
Q 31.109375 20.453125 19.1875 8.296875 
z
" id="DejaVuSans-50"/>
        <path d="M 31.78125 66.40625 
Q 24.171875 66.40625 20.328125 58.90625 
Q 16.5 51.421875 16.5 36.375 
Q 16.5 21.390625 20.328125 13.890625 
Q 24.171875 6.390625 31.78125 6.390625 
Q 39.453125 6.390625 43.28125 13.890625 
Q 47.125 21.390625 47.125 36.375 
Q 47.125 51.421875 43.28125 58.90625 
Q 39.453125 66.40625 31.78125 66.40625 
z
M 31.78125 74.21875 
Q 44.046875 74.21875 50.515625 64.515625 
Q 56.984375 54.828125 56.984375 36.375 
Q 56.984375 17.96875 50.515625 8.265625 
Q 44.046875 -1.421875 31.78125 -1.421875 
Q 19.53125 -1.421875 13.0625 8.265625 
Q 6.59375 17.96875 6.59375 36.375 
Q 6.59375 54.828125 13.0625 64.515625 
Q 19.53125 74.21875 31.78125 74.21875 
z
" id="DejaVuSans-48"/>
        <path d="M 4.890625 31.390625 
L 31.203125 31.390625 
L 31.203125 23.390625 
L 4.890625 23.390625 
z
" id="DejaVuSans-45"/>
        <path d="M 40.578125 39.3125 
Q 47.65625 37.796875 51.625 33 
Q 55.609375 28.21875 55.609375 21.1875 
Q 55.609375 10.40625 48.1875 4.484375 
Q 40.765625 -1.421875 27.09375 -1.421875 
Q 22.515625 -1.421875 17.65625 -0.515625 
Q 12.796875 0.390625 7.625 2.203125 
L 7.625 11.71875 
Q 11.71875 9.328125 16.59375 8.109375 
Q 21.484375 6.890625 26.8125 6.890625 
Q 36.078125 6.890625 40.9375 10.546875 
Q 45.796875 14.203125 45.796875 21.1875 
Q 45.796875 27.640625 41.28125 31.265625 
Q 36.765625 34.90625 28.71875 34.90625 
L 20.21875 34.90625 
L 20.21875 43.015625 
L 29.109375 43.015625 
Q 36.375 43.015625 40.234375 45.921875 
Q 44.09375 48.828125 44.09375 54.296875 
Q 44.09375 59.90625 40.109375 62.90625 
Q 36.140625 65.921875 28.71875 65.921875 
Q 24.65625 65.921875 20.015625 65.03125 
Q 15.375 64.15625 9.8125 62.3125 
L 9.8125 71.09375 
Q 15.4375 72.65625 20.34375 73.4375 
Q 25.25 74.21875 29.59375 74.21875 
Q 40.828125 74.21875 47.359375 69.109375 
Q 53.90625 64.015625 53.90625 55.328125 
Q 53.90625 49.265625 50.4375 45.09375 
Q 46.96875 40.921875 40.578125 39.3125 
z
" id="DejaVuSans-51"/>
       </defs>
       <use xlink:href="#DejaVuSans-50"/>
       <use x="63.623047" xlink:href="#DejaVuSans-48"/>
       <use x="127.246094" xlink:href="#DejaVuSans-50"/>
       <use x="190.869141" xlink:href="#DejaVuSans-48"/>
       <use x="254.492188" xlink:href="#DejaVuSans-45"/>
       <use x="290.576172" xlink:href="#DejaVuSans-48"/>
       <use x="354.199219" xlink:href="#DejaVuSans-51"/>
      </g>
     </g>
    </g>
    <g id="xtick_2">
     <g id="line2d_3">
      <path clip-path="url(#p6b71b8314d)" d="M 172.098086 320.4 
L 172.098086 43.2 
" style="fill:none;stroke:#808080;stroke-dasharray:6.4,1.6,1,1.6;stroke-dashoffset:0;stroke-opacity:0.3;"/>
     </g>
     <g id="line2d_4">
      <g>
       <use style="stroke:#000000;stroke-width:0.8;" x="172.098086" xlink:href="#m16e682e7dd" y="320.4"/>
      </g>
     </g>
     <g id="text_2">
      <!-- 2020-04 -->
      <g transform="translate(151.20668 334.998438)scale(0.1 -0.1)">
       <defs>
        <path d="M 37.796875 64.3125 
L 12.890625 25.390625 
L 37.796875 25.390625 
z
M 35.203125 72.90625 
L 47.609375 72.90625 
L 47.609375 25.390625 
L 58.015625 25.390625 
L 58.015625 17.1875 
L 47.609375 17.1875 
L 47.609375 0 
L 37.796875 0 
L 37.796875 17.1875 
L 4.890625 17.1875 
L 4.890625 26.703125 
z
" id="DejaVuSans-52"/>
       </defs>
       <use xlink:href="#DejaVuSans-50"/>
       <use x="63.623047" xlink:href="#DejaVuSans-48"/>
       <use x="127.246094" xlink:href="#DejaVuSans-50"/>
       <use x="190.869141" xlink:href="#DejaVuSans-48"/>
       <use x="254.492188" xlink:href="#DejaVuSans-45"/>
       <use x="290.576172" xlink:href="#DejaVuSans-48"/>
       <use x="354.199219" xlink:href="#DejaVuSans-52"/>
      </g>
     </g>
    </g>
    <g id="xtick_3">
     <g id="line2d_5">
      <path clip-path="url(#p6b71b8314d)" d="M 222.157895 320.4 
L 222.157895 43.2 
" style="fill:none;stroke:#808080;stroke-dasharray:6.4,1.6,1,1.6;stroke-dashoffset:0;stroke-opacity:0.3;"/>
     </g>
     <g id="line2d_6">
      <g>
       <use style="stroke:#000000;stroke-width:0.8;" x="222.157895" xlink:href="#m16e682e7dd" y="320.4"/>
      </g>
     </g>
     <g id="text_3">
      <!-- 2020-05 -->
      <g transform="translate(201.266488 334.998438)scale(0.1 -0.1)">
       <defs>
        <path d="M 10.796875 72.90625 
L 49.515625 72.90625 
L 49.515625 64.59375 
L 19.828125 64.59375 
L 19.828125 46.734375 
Q 21.96875 47.46875 24.109375 47.828125 
Q 26.265625 48.1875 28.421875 48.1875 
Q 40.625 48.1875 47.75 41.5 
Q 54.890625 34.8125 54.890625 23.390625 
Q 54.890625 11.625 47.5625 5.09375 
Q 40.234375 -1.421875 26.90625 -1.421875 
Q 22.3125 -1.421875 17.546875 -0.640625 
Q 12.796875 0.140625 7.71875 1.703125 
L 7.71875 11.625 
Q 12.109375 9.234375 16.796875 8.0625 
Q 21.484375 6.890625 26.703125 6.890625 
Q 35.15625 6.890625 40.078125 11.328125 
Q 45.015625 15.765625 45.015625 23.390625 
Q 45.015625 31 40.078125 35.4375 
Q 35.15625 39.890625 26.703125 39.890625 
Q 22.75 39.890625 18.8125 39.015625 
Q 14.890625 38.140625 10.796875 36.28125 
z
" id="DejaVuSans-53"/>
       </defs>
       <use xlink:href="#DejaVuSans-50"/>
       <use x="63.623047" xlink:href="#DejaVuSans-48"/>
       <use x="127.246094" xlink:href="#DejaVuSans-50"/>
       <use x="190.869141" xlink:href="#DejaVuSans-48"/>
       <use x="254.492188" xlink:href="#DejaVuSans-45"/>
       <use x="290.576172" xlink:href="#DejaVuSans-48"/>
       <use x="354.199219" xlink:href="#DejaVuSans-53"/>
      </g>
     </g>
    </g>
    <g id="xtick_4">
     <g id="line2d_7">
      <path clip-path="url(#p6b71b8314d)" d="M 273.886364 320.4 
L 273.886364 43.2 
" style="fill:none;stroke:#808080;stroke-dasharray:6.4,1.6,1,1.6;stroke-dashoffset:0;stroke-opacity:0.3;"/>
     </g>
     <g id="line2d_8">
      <g>
       <use style="stroke:#000000;stroke-width:0.8;" x="273.886364" xlink:href="#m16e682e7dd" y="320.4"/>
      </g>
     </g>
     <g id="text_4">
      <!-- 2020-06 -->
      <g transform="translate(252.994957 334.998438)scale(0.1 -0.1)">
       <defs>
        <path d="M 33.015625 40.375 
Q 26.375 40.375 22.484375 35.828125 
Q 18.609375 31.296875 18.609375 23.390625 
Q 18.609375 15.53125 22.484375 10.953125 
Q 26.375 6.390625 33.015625 6.390625 
Q 39.65625 6.390625 43.53125 10.953125 
Q 47.40625 15.53125 47.40625 23.390625 
Q 47.40625 31.296875 43.53125 35.828125 
Q 39.65625 40.375 33.015625 40.375 
z
M 52.59375 71.296875 
L 52.59375 62.3125 
Q 48.875 64.0625 45.09375 64.984375 
Q 41.3125 65.921875 37.59375 65.921875 
Q 27.828125 65.921875 22.671875 59.328125 
Q 17.53125 52.734375 16.796875 39.40625 
Q 19.671875 43.65625 24.015625 45.921875 
Q 28.375 48.1875 33.59375 48.1875 
Q 44.578125 48.1875 50.953125 41.515625 
Q 57.328125 34.859375 57.328125 23.390625 
Q 57.328125 12.15625 50.6875 5.359375 
Q 44.046875 -1.421875 33.015625 -1.421875 
Q 20.359375 -1.421875 13.671875 8.265625 
Q 6.984375 17.96875 6.984375 36.375 
Q 6.984375 53.65625 15.1875 63.9375 
Q 23.390625 74.21875 37.203125 74.21875 
Q 40.921875 74.21875 44.703125 73.484375 
Q 48.484375 72.75 52.59375 71.296875 
z
" id="DejaVuSans-54"/>
       </defs>
       <use xlink:href="#DejaVuSans-50"/>
       <use x="63.623047" xlink:href="#DejaVuSans-48"/>
       <use x="127.246094" xlink:href="#DejaVuSans-50"/>
       <use x="190.869141" xlink:href="#DejaVuSans-48"/>
       <use x="254.492188" xlink:href="#DejaVuSans-45"/>
       <use x="290.576172" xlink:href="#DejaVuSans-48"/>
       <use x="354.199219" xlink:href="#DejaVuSans-54"/>
      </g>
     </g>
    </g>
    <g id="xtick_5">
     <g id="line2d_9">
      <path clip-path="url(#p6b71b8314d)" d="M 323.946172 320.4 
L 323.946172 43.2 
" style="fill:none;stroke:#808080;stroke-dasharray:6.4,1.6,1,1.6;stroke-dashoffset:0;stroke-opacity:0.3;"/>
     </g>
     <g id="line2d_10">
      <g>
       <use style="stroke:#000000;stroke-width:0.8;" x="323.946172" xlink:href="#m16e682e7dd" y="320.4"/>
      </g>
     </g>
     <g id="text_5">
      <!-- 2020-07 -->
      <g transform="translate(303.054766 334.998438)scale(0.1 -0.1)">
       <defs>
        <path d="M 8.203125 72.90625 
L 55.078125 72.90625 
L 55.078125 68.703125 
L 28.609375 0 
L 18.3125 0 
L 43.21875 64.59375 
L 8.203125 64.59375 
z
" id="DejaVuSans-55"/>
       </defs>
       <use xlink:href="#DejaVuSans-50"/>
       <use x="63.623047" xlink:href="#DejaVuSans-48"/>
       <use x="127.246094" xlink:href="#DejaVuSans-50"/>
       <use x="190.869141" xlink:href="#DejaVuSans-48"/>
       <use x="254.492188" xlink:href="#DejaVuSans-45"/>
       <use x="290.576172" xlink:href="#DejaVuSans-48"/>
       <use x="354.199219" xlink:href="#DejaVuSans-55"/>
      </g>
     </g>
    </g>
    <g id="xtick_6">
     <g id="line2d_11">
      <path clip-path="url(#p6b71b8314d)" d="M 375.674641 320.4 
L 375.674641 43.2 
" style="fill:none;stroke:#808080;stroke-dasharray:6.4,1.6,1,1.6;stroke-dashoffset:0;stroke-opacity:0.3;"/>
     </g>
     <g id="line2d_12">
      <g>
       <use style="stroke:#000000;stroke-width:0.8;" x="375.674641" xlink:href="#m16e682e7dd" y="320.4"/>
      </g>
     </g>
     <g id="text_6">
      <!-- 2020-08 -->
      <g transform="translate(354.783235 334.998438)scale(0.1 -0.1)">
       <defs>
        <path d="M 31.78125 34.625 
Q 24.75 34.625 20.71875 30.859375 
Q 16.703125 27.09375 16.703125 20.515625 
Q 16.703125 13.921875 20.71875 10.15625 
Q 24.75 6.390625 31.78125 6.390625 
Q 38.8125 6.390625 42.859375 10.171875 
Q 46.921875 13.96875 46.921875 20.515625 
Q 46.921875 27.09375 42.890625 30.859375 
Q 38.875 34.625 31.78125 34.625 
z
M 21.921875 38.8125 
Q 15.578125 40.375 12.03125 44.71875 
Q 8.5 49.078125 8.5 55.328125 
Q 8.5 64.0625 14.71875 69.140625 
Q 20.953125 74.21875 31.78125 74.21875 
Q 42.671875 74.21875 48.875 69.140625 
Q 55.078125 64.0625 55.078125 55.328125 
Q 55.078125 49.078125 51.53125 44.71875 
Q 48 40.375 41.703125 38.8125 
Q 48.828125 37.15625 52.796875 32.3125 
Q 56.78125 27.484375 56.78125 20.515625 
Q 56.78125 9.90625 50.3125 4.234375 
Q 43.84375 -1.421875 31.78125 -1.421875 
Q 19.734375 -1.421875 13.25 4.234375 
Q 6.78125 9.90625 6.78125 20.515625 
Q 6.78125 27.484375 10.78125 32.3125 
Q 14.796875 37.15625 21.921875 38.8125 
z
M 18.3125 54.390625 
Q 18.3125 48.734375 21.84375 45.5625 
Q 25.390625 42.390625 31.78125 42.390625 
Q 38.140625 42.390625 41.71875 45.5625 
Q 45.3125 48.734375 45.3125 54.390625 
Q 45.3125 60.0625 41.71875 63.234375 
Q 38.140625 66.40625 31.78125 66.40625 
Q 25.390625 66.40625 21.84375 63.234375 
Q 18.3125 60.0625 18.3125 54.390625 
z
" id="DejaVuSans-56"/>
       </defs>
       <use xlink:href="#DejaVuSans-50"/>
       <use x="63.623047" xlink:href="#DejaVuSans-48"/>
       <use x="127.246094" xlink:href="#DejaVuSans-50"/>
       <use x="190.869141" xlink:href="#DejaVuSans-48"/>
       <use x="254.492188" xlink:href="#DejaVuSans-45"/>
       <use x="290.576172" xlink:href="#DejaVuSans-48"/>
       <use x="354.199219" xlink:href="#DejaVuSans-56"/>
      </g>
     </g>
    </g>
    <g id="xtick_7">
     <g id="line2d_13">
      <path clip-path="url(#p6b71b8314d)" d="M 427.40311 320.4 
L 427.40311 43.2 
" style="fill:none;stroke:#808080;stroke-dasharray:6.4,1.6,1,1.6;stroke-dashoffset:0;stroke-opacity:0.3;"/>
     </g>
     <g id="line2d_14">
      <g>
       <use style="stroke:#000000;stroke-width:0.8;" x="427.40311" xlink:href="#m16e682e7dd" y="320.4"/>
      </g>
     </g>
     <g id="text_7">
      <!-- 2020-09 -->
      <g transform="translate(406.511704 334.998438)scale(0.1 -0.1)">
       <defs>
        <path d="M 10.984375 1.515625 
L 10.984375 10.5 
Q 14.703125 8.734375 18.5 7.8125 
Q 22.3125 6.890625 25.984375 6.890625 
Q 35.75 6.890625 40.890625 13.453125 
Q 46.046875 20.015625 46.78125 33.40625 
Q 43.953125 29.203125 39.59375 26.953125 
Q 35.25 24.703125 29.984375 24.703125 
Q 19.046875 24.703125 12.671875 31.3125 
Q 6.296875 37.9375 6.296875 49.421875 
Q 6.296875 60.640625 12.9375 67.421875 
Q 19.578125 74.21875 30.609375 74.21875 
Q 43.265625 74.21875 49.921875 64.515625 
Q 56.59375 54.828125 56.59375 36.375 
Q 56.59375 19.140625 48.40625 8.859375 
Q 40.234375 -1.421875 26.421875 -1.421875 
Q 22.703125 -1.421875 18.890625 -0.6875 
Q 15.09375 0.046875 10.984375 1.515625 
z
M 30.609375 32.421875 
Q 37.25 32.421875 41.125 36.953125 
Q 45.015625 41.5 45.015625 49.421875 
Q 45.015625 57.28125 41.125 61.84375 
Q 37.25 66.40625 30.609375 66.40625 
Q 23.96875 66.40625 20.09375 61.84375 
Q 16.21875 57.28125 16.21875 49.421875 
Q 16.21875 41.5 20.09375 36.953125 
Q 23.96875 32.421875 30.609375 32.421875 
z
" id="DejaVuSans-57"/>
       </defs>
       <use xlink:href="#DejaVuSans-50"/>
       <use x="63.623047" xlink:href="#DejaVuSans-48"/>
       <use x="127.246094" xlink:href="#DejaVuSans-50"/>
       <use x="190.869141" xlink:href="#DejaVuSans-48"/>
       <use x="254.492188" xlink:href="#DejaVuSans-45"/>
       <use x="290.576172" xlink:href="#DejaVuSans-48"/>
       <use x="354.199219" xlink:href="#DejaVuSans-57"/>
      </g>
     </g>
    </g>
    <g id="xtick_8">
     <g id="line2d_15">
      <path clip-path="url(#p6b71b8314d)" d="M 477.462919 320.4 
L 477.462919 43.2 
" style="fill:none;stroke:#808080;stroke-dasharray:6.4,1.6,1,1.6;stroke-dashoffset:0;stroke-opacity:0.3;"/>
     </g>
     <g id="line2d_16">
      <g>
       <use style="stroke:#000000;stroke-width:0.8;" x="477.462919" xlink:href="#m16e682e7dd" y="320.4"/>
      </g>
     </g>
     <g id="text_8">
      <!-- 2020-10 -->
      <g transform="translate(456.571512 334.998438)scale(0.1 -0.1)">
       <defs>
        <path d="M 12.40625 8.296875 
L 28.515625 8.296875 
L 28.515625 63.921875 
L 10.984375 60.40625 
L 10.984375 69.390625 
L 28.421875 72.90625 
L 38.28125 72.90625 
L 38.28125 8.296875 
L 54.390625 8.296875 
L 54.390625 0 
L 12.40625 0 
z
" id="DejaVuSans-49"/>
       </defs>
       <use xlink:href="#DejaVuSans-50"/>
       <use x="63.623047" xlink:href="#DejaVuSans-48"/>
       <use x="127.246094" xlink:href="#DejaVuSans-50"/>
       <use x="190.869141" xlink:href="#DejaVuSans-48"/>
       <use x="254.492188" xlink:href="#DejaVuSans-45"/>
       <use x="290.576172" xlink:href="#DejaVuSans-49"/>
       <use x="354.199219" xlink:href="#DejaVuSans-48"/>
      </g>
     </g>
    </g>
    <g id="xtick_9">
     <g id="line2d_17">
      <path clip-path="url(#p6b71b8314d)" d="M 529.191388 320.4 
L 529.191388 43.2 
" style="fill:none;stroke:#808080;stroke-dasharray:6.4,1.6,1,1.6;stroke-dashoffset:0;stroke-opacity:0.3;"/>
     </g>
     <g id="line2d_18">
      <g>
       <use style="stroke:#000000;stroke-width:0.8;" x="529.191388" xlink:href="#m16e682e7dd" y="320.4"/>
      </g>
     </g>
     <g id="text_9">
      <!-- 2020-11 -->
      <g transform="translate(508.299981 334.998438)scale(0.1 -0.1)">
       <use xlink:href="#DejaVuSans-50"/>
       <use x="63.623047" xlink:href="#DejaVuSans-48"/>
       <use x="127.246094" xlink:href="#DejaVuSans-50"/>
       <use x="190.869141" xlink:href="#DejaVuSans-48"/>
       <use x="254.492188" xlink:href="#DejaVuSans-45"/>
       <use x="290.576172" xlink:href="#DejaVuSans-49"/>
       <use x="354.199219" xlink:href="#DejaVuSans-49"/>
      </g>
     </g>
    </g>
    <g id="xtick_10">
     <g id="line2d_19">
      <path clip-path="url(#p6b71b8314d)" d="M 579.251196 320.4 
L 579.251196 43.2 
" style="fill:none;stroke:#808080;stroke-dasharray:6.4,1.6,1,1.6;stroke-dashoffset:0;stroke-opacity:0.3;"/>
     </g>
     <g id="line2d_20">
      <g>
       <use style="stroke:#000000;stroke-width:0.8;" x="579.251196" xlink:href="#m16e682e7dd" y="320.4"/>
      </g>
     </g>
     <g id="text_10">
      <!-- 2020-12 -->
      <g transform="translate(558.35979 334.998438)scale(0.1 -0.1)">
       <use xlink:href="#DejaVuSans-50"/>
       <use x="63.623047" xlink:href="#DejaVuSans-48"/>
       <use x="127.246094" xlink:href="#DejaVuSans-50"/>
       <use x="190.869141" xlink:href="#DejaVuSans-48"/>
       <use x="254.492188" xlink:href="#DejaVuSans-45"/>
       <use x="290.576172" xlink:href="#DejaVuSans-49"/>
       <use x="354.199219" xlink:href="#DejaVuSans-50"/>
      </g>
     </g>
    </g>
    <g id="xtick_11">
     <g id="line2d_21">
      <path clip-path="url(#p6b71b8314d)" d="M 630.979665 320.4 
L 630.979665 43.2 
" style="fill:none;stroke:#808080;stroke-dasharray:6.4,1.6,1,1.6;stroke-dashoffset:0;stroke-opacity:0.3;"/>
     </g>
     <g id="line2d_22">
      <g>
       <use style="stroke:#000000;stroke-width:0.8;" x="630.979665" xlink:href="#m16e682e7dd" y="320.4"/>
      </g>
     </g>
     <g id="text_11">
      <!-- 2021-01 -->
      <g transform="translate(610.088259 334.998438)scale(0.1 -0.1)">
       <use xlink:href="#DejaVuSans-50"/>
       <use x="63.623047" xlink:href="#DejaVuSans-48"/>
       <use x="127.246094" xlink:href="#DejaVuSans-50"/>
       <use x="190.869141" xlink:href="#DejaVuSans-49"/>
       <use x="254.492188" xlink:href="#DejaVuSans-45"/>
       <use x="290.576172" xlink:href="#DejaVuSans-48"/>
       <use x="354.199219" xlink:href="#DejaVuSans-49"/>
      </g>
     </g>
    </g>
    <g id="text_12">
     <!-- Datum -->
     <g transform="translate(352.086719 348.676562)scale(0.1 -0.1)">
      <defs>
       <path d="M 19.671875 64.796875 
L 19.671875 8.109375 
L 31.59375 8.109375 
Q 46.6875 8.109375 53.6875 14.9375 
Q 60.6875 21.78125 60.6875 36.53125 
Q 60.6875 51.171875 53.6875 57.984375 
Q 46.6875 64.796875 31.59375 64.796875 
z
M 9.8125 72.90625 
L 30.078125 72.90625 
Q 51.265625 72.90625 61.171875 64.09375 
Q 71.09375 55.28125 71.09375 36.53125 
Q 71.09375 17.671875 61.125 8.828125 
Q 51.171875 0 30.078125 0 
L 9.8125 0 
z
" id="DejaVuSans-68"/>
       <path d="M 34.28125 27.484375 
Q 23.390625 27.484375 19.1875 25 
Q 14.984375 22.515625 14.984375 16.5 
Q 14.984375 11.71875 18.140625 8.90625 
Q 21.296875 6.109375 26.703125 6.109375 
Q 34.1875 6.109375 38.703125 11.40625 
Q 43.21875 16.703125 43.21875 25.484375 
L 43.21875 27.484375 
z
M 52.203125 31.203125 
L 52.203125 0 
L 43.21875 0 
L 43.21875 8.296875 
Q 40.140625 3.328125 35.546875 0.953125 
Q 30.953125 -1.421875 24.3125 -1.421875 
Q 15.921875 -1.421875 10.953125 3.296875 
Q 6 8.015625 6 15.921875 
Q 6 25.140625 12.171875 29.828125 
Q 18.359375 34.515625 30.609375 34.515625 
L 43.21875 34.515625 
L 43.21875 35.40625 
Q 43.21875 41.609375 39.140625 45 
Q 35.0625 48.390625 27.6875 48.390625 
Q 23 48.390625 18.546875 47.265625 
Q 14.109375 46.140625 10.015625 43.890625 
L 10.015625 52.203125 
Q 14.9375 54.109375 19.578125 55.046875 
Q 24.21875 56 28.609375 56 
Q 40.484375 56 46.34375 49.84375 
Q 52.203125 43.703125 52.203125 31.203125 
z
" id="DejaVuSans-97"/>
       <path d="M 18.3125 70.21875 
L 18.3125 54.6875 
L 36.8125 54.6875 
L 36.8125 47.703125 
L 18.3125 47.703125 
L 18.3125 18.015625 
Q 18.3125 11.328125 20.140625 9.421875 
Q 21.96875 7.515625 27.59375 7.515625 
L 36.8125 7.515625 
L 36.8125 0 
L 27.59375 0 
Q 17.1875 0 13.234375 3.875 
Q 9.28125 7.765625 9.28125 18.015625 
L 9.28125 47.703125 
L 2.6875 47.703125 
L 2.6875 54.6875 
L 9.28125 54.6875 
L 9.28125 70.21875 
z
" id="DejaVuSans-116"/>
       <path d="M 8.5 21.578125 
L 8.5 54.6875 
L 17.484375 54.6875 
L 17.484375 21.921875 
Q 17.484375 14.15625 20.5 10.265625 
Q 23.53125 6.390625 29.59375 6.390625 
Q 36.859375 6.390625 41.078125 11.03125 
Q 45.3125 15.671875 45.3125 23.6875 
L 45.3125 54.6875 
L 54.296875 54.6875 
L 54.296875 0 
L 45.3125 0 
L 45.3125 8.40625 
Q 42.046875 3.421875 37.71875 1 
Q 33.40625 -1.421875 27.6875 -1.421875 
Q 18.265625 -1.421875 13.375 4.4375 
Q 8.5 10.296875 8.5 21.578125 
z
M 31.109375 56 
z
" id="DejaVuSans-117"/>
       <path d="M 52 44.1875 
Q 55.375 50.25 60.0625 53.125 
Q 64.75 56 71.09375 56 
Q 79.640625 56 84.28125 50.015625 
Q 88.921875 44.046875 88.921875 33.015625 
L 88.921875 0 
L 79.890625 0 
L 79.890625 32.71875 
Q 79.890625 40.578125 77.09375 44.375 
Q 74.3125 48.1875 68.609375 48.1875 
Q 61.625 48.1875 57.5625 43.546875 
Q 53.515625 38.921875 53.515625 30.90625 
L 53.515625 0 
L 44.484375 0 
L 44.484375 32.71875 
Q 44.484375 40.625 41.703125 44.40625 
Q 38.921875 48.1875 33.109375 48.1875 
Q 26.21875 48.1875 22.15625 43.53125 
Q 18.109375 38.875 18.109375 30.90625 
L 18.109375 0 
L 9.078125 0 
L 9.078125 54.6875 
L 18.109375 54.6875 
L 18.109375 46.1875 
Q 21.1875 51.21875 25.484375 53.609375 
Q 29.78125 56 35.6875 56 
Q 41.65625 56 45.828125 52.96875 
Q 50 49.953125 52 44.1875 
z
" id="DejaVuSans-109"/>
      </defs>
      <use xlink:href="#DejaVuSans-68"/>
      <use x="77.001953" xlink:href="#DejaVuSans-97"/>
      <use x="138.28125" xlink:href="#DejaVuSans-116"/>
      <use x="177.490234" xlink:href="#DejaVuSans-117"/>
      <use x="240.869141" xlink:href="#DejaVuSans-109"/>
     </g>
    </g>
   </g>
   <g id="matplotlib.axis_2">
    <g id="ytick_1">
     <g id="line2d_23">
      <path clip-path="url(#p6b71b8314d)" d="M 90 309.152761 
L 648 309.152761 
" style="fill:none;stroke:#808080;stroke-dasharray:6.4,1.6,1,1.6;stroke-dashoffset:0;stroke-opacity:0.3;"/>
     </g>
     <g id="line2d_24">
      <defs>
       <path d="M 0 0 
L -3.5 0 
" id="md6b1996f50" style="stroke:#000000;stroke-width:0.8;"/>
      </defs>
      <g>
       <use style="stroke:#000000;stroke-width:0.8;" x="90" xlink:href="#md6b1996f50" y="309.152761"/>
      </g>
     </g>
     <g id="text_13">
      <!-- 0 -->
      <g transform="translate(76.6375 312.951979)scale(0.1 -0.1)">
       <use xlink:href="#DejaVuSans-48"/>
      </g>
     </g>
    </g>
    <g id="ytick_2">
     <g id="line2d_25">
      <path clip-path="url(#p6b71b8314d)" d="M 90 260.839877 
L 648 260.839877 
" style="fill:none;stroke:#808080;stroke-dasharray:6.4,1.6,1,1.6;stroke-dashoffset:0;stroke-opacity:0.3;"/>
     </g>
     <g id="line2d_26">
      <g>
       <use style="stroke:#000000;stroke-width:0.8;" x="90" xlink:href="#md6b1996f50" y="260.839877"/>
      </g>
     </g>
     <g id="text_14">
      <!-- 500 -->
      <g transform="translate(63.9125 264.639096)scale(0.1 -0.1)">
       <use xlink:href="#DejaVuSans-53"/>
       <use x="63.623047" xlink:href="#DejaVuSans-48"/>
       <use x="127.246094" xlink:href="#DejaVuSans-48"/>
      </g>
     </g>
    </g>
    <g id="ytick_3">
     <g id="line2d_27">
      <path clip-path="url(#p6b71b8314d)" d="M 90 212.526994 
L 648 212.526994 
" style="fill:none;stroke:#808080;stroke-dasharray:6.4,1.6,1,1.6;stroke-dashoffset:0;stroke-opacity:0.3;"/>
     </g>
     <g id="line2d_28">
      <g>
       <use style="stroke:#000000;stroke-width:0.8;" x="90" xlink:href="#md6b1996f50" y="212.526994"/>
      </g>
     </g>
     <g id="text_15">
      <!-- 1000 -->
      <g transform="translate(57.55 216.326213)scale(0.1 -0.1)">
       <use xlink:href="#DejaVuSans-49"/>
       <use x="63.623047" xlink:href="#DejaVuSans-48"/>
       <use x="127.246094" xlink:href="#DejaVuSans-48"/>
       <use x="190.869141" xlink:href="#DejaVuSans-48"/>
      </g>
     </g>
    </g>
    <g id="ytick_4">
     <g id="line2d_29">
      <path clip-path="url(#p6b71b8314d)" d="M 90 164.21411 
L 648 164.21411 
" style="fill:none;stroke:#808080;stroke-dasharray:6.4,1.6,1,1.6;stroke-dashoffset:0;stroke-opacity:0.3;"/>
     </g>
     <g id="line2d_30">
      <g>
       <use style="stroke:#000000;stroke-width:0.8;" x="90" xlink:href="#md6b1996f50" y="164.21411"/>
      </g>
     </g>
     <g id="text_16">
      <!-- 1500 -->
      <g transform="translate(57.55 168.013329)scale(0.1 -0.1)">
       <use xlink:href="#DejaVuSans-49"/>
       <use x="63.623047" xlink:href="#DejaVuSans-53"/>
       <use x="127.246094" xlink:href="#DejaVuSans-48"/>
       <use x="190.869141" xlink:href="#DejaVuSans-48"/>
      </g>
     </g>
    </g>
    <g id="ytick_5">
     <g id="line2d_31">
      <path clip-path="url(#p6b71b8314d)" d="M 90 115.901227 
L 648 115.901227 
" style="fill:none;stroke:#808080;stroke-dasharray:6.4,1.6,1,1.6;stroke-dashoffset:0;stroke-opacity:0.3;"/>
     </g>
     <g id="line2d_32">
      <g>
       <use style="stroke:#000000;stroke-width:0.8;" x="90" xlink:href="#md6b1996f50" y="115.901227"/>
      </g>
     </g>
     <g id="text_17">
      <!-- 2000 -->
      <g transform="translate(57.55 119.700446)scale(0.1 -0.1)">
       <use xlink:href="#DejaVuSans-50"/>
       <use x="63.623047" xlink:href="#DejaVuSans-48"/>
       <use x="127.246094" xlink:href="#DejaVuSans-48"/>
       <use x="190.869141" xlink:href="#DejaVuSans-48"/>
      </g>
     </g>
    </g>
    <g id="ytick_6">
     <g id="line2d_33">
      <path clip-path="url(#p6b71b8314d)" d="M 90 67.588344 
L 648 67.588344 
" style="fill:none;stroke:#808080;stroke-dasharray:6.4,1.6,1,1.6;stroke-dashoffset:0;stroke-opacity:0.3;"/>
     </g>
     <g id="line2d_34">
      <g>
       <use style="stroke:#000000;stroke-width:0.8;" x="90" xlink:href="#md6b1996f50" y="67.588344"/>
      </g>
     </g>
     <g id="text_18">
      <!-- 2500 -->
      <g transform="translate(57.55 71.387562)scale(0.1 -0.1)">
       <use xlink:href="#DejaVuSans-50"/>
       <use x="63.623047" xlink:href="#DejaVuSans-53"/>
       <use x="127.246094" xlink:href="#DejaVuSans-48"/>
       <use x="190.869141" xlink:href="#DejaVuSans-48"/>
      </g>
     </g>
    </g>
   </g>
   <g id="line2d_35">
    <path clip-path="url(#p6b71b8314d)" d="M 115.363636 303.838344 
L 117.032297 303.548466 
L 118.700957 303.548466 
L 120.369617 302.77546 
L 122.038278 301.712577 
L 123.706938 301.036196 
L 125.375598 299.876687 
L 127.044258 298.910429 
L 128.712919 297.461043 
L 130.381579 296.591411 
L 132.050239 294.755521 
L 135.38756 290.117485 
L 137.05622 286.542331 
L 138.72488 282.194172 
L 140.393541 275.720245 
L 142.062201 271.758589 
L 143.730861 267.120552 
L 145.399522 254.462577 
L 147.068182 246.152761 
L 148.736842 234.364417 
L 150.405502 214.846012 
L 152.074163 197.839877 
L 153.742823 189.819939 
L 155.411483 179.577607 
L 157.080144 148.753988 
L 158.748804 124.50092 
L 160.417464 103.72638 
L 162.086124 84.78773 
L 163.754785 59.278528 
L 165.423445 65.559202 
L 167.092105 70.003988 
L 168.760766 55.8 
L 170.429426 62.467178 
L 172.098086 71.453374 
L 173.766746 73.289264 
L 175.435407 72.999387 
L 177.104067 93.290798 
L 178.772727 98.315337 
L 180.441388 86.816871 
L 183.778708 113.09908 
L 185.447368 129.911963 
L 187.116029 138.608282 
L 188.784689 157.063804 
L 190.453349 162.571472 
L 192.12201 163.151227 
L 193.79067 161.411963 
L 195.45933 170.108282 
L 197.12799 181.026994 
L 198.796651 185.278528 
L 200.465311 199.289264 
L 202.133971 201.801534 
L 203.802632 197.839877 
L 205.471292 202.284663 
L 207.139952 210.207975 
L 208.808612 214.169632 
L 210.477273 219.290798 
L 212.145933 231.465644 
L 213.814593 234.07454 
L 215.483254 235.523926 
L 217.151914 233.784663 
L 218.820574 239.388957 
L 220.489234 241.418098 
L 222.157895 246.829141 
L 223.826555 255.138957 
L 225.495215 256.878221 
L 227.163876 252.33681 
L 228.832536 259.003988 
L 230.501196 257.36135 
L 232.169856 259.680368 
L 233.838517 259.776994 
L 235.507177 264.608282 
L 237.175837 265.961043 
L 238.844498 263.06227 
L 240.513158 265.381288 
L 242.181818 266.927301 
L 243.850478 270.115951 
L 245.519139 271.855215 
L 247.187799 276.493252 
L 248.856459 275.237117 
L 250.52512 271.372086 
L 252.19378 273.401227 
L 253.86244 274.560736 
L 255.5311 278.522393 
L 257.199761 275.816871 
L 258.868421 280.165031 
L 260.537081 280.938037 
L 262.205742 277.556135 
L 263.874402 278.329141 
L 265.543062 281.227914 
L 267.211722 283.257055 
L 268.880383 282.967178 
L 270.549043 284.996319 
L 272.217703 285.672699 
L 273.886364 285.189571 
L 275.555024 283.063804 
L 277.223684 283.933436 
L 278.892344 285.189571 
L 280.561005 287.02546 
L 282.229665 290.697239 
L 285.566986 290.793865 
L 287.235646 292.823006 
L 288.904306 294.465644 
L 290.572967 293.88589 
L 292.241627 294.658896 
L 293.910287 296.688037 
L 295.578947 296.784663 
L 297.247608 296.494785 
L 298.916268 296.494785 
L 300.584928 297.267791 
L 302.253589 297.07454 
L 303.922249 297.364417 
L 305.590909 299.200307 
L 307.259569 299.007055 
L 308.92823 298.620552 
L 310.59689 298.717178 
L 312.26555 299.007055 
L 313.934211 298.330675 
L 315.602871 298.717178 
L 317.271531 300.746319 
L 318.940191 300.553067 
L 320.608852 299.490184 
L 322.277512 300.939571 
L 323.946172 301.326074 
L 325.614833 301.905828 
L 327.283493 301.809202 
L 328.952153 302.77546 
L 333.958134 301.712577 
L 337.295455 301.422699 
L 338.964115 300.649693 
L 340.632775 301.712577 
L 342.301435 301.615951 
L 343.970096 300.939571 
L 345.638756 300.746319 
L 347.307416 301.615951 
L 348.976077 302.002454 
L 350.644737 302.09908 
L 355.650718 300.842945 
L 357.319378 300.746319 
L 358.988038 301.905828 
L 360.656699 301.229448 
L 362.325359 301.615951 
L 363.994019 301.615951 
L 365.662679 301.422699 
L 367.33134 300.649693 
L 369 300.26319 
L 370.66866 301.132822 
L 374.005981 300.456442 
L 375.674641 300.26319 
L 377.343301 299.490184 
L 379.011962 298.427301 
L 380.680622 299.007055 
L 382.349282 299.393558 
L 384.017943 299.393558 
L 387.355263 298.234049 
L 389.023923 297.171166 
L 390.692584 296.301534 
L 392.361244 294.465644 
L 394.029904 293.88589 
L 395.698565 293.88589 
L 399.035885 294.369018 
L 400.704545 293.596012 
L 402.373206 291.856748 
L 404.041866 292.72638 
L 405.710526 292.629755 
L 407.379187 291.566871 
L 409.047847 292.05 
L 410.716507 294.079141 
L 412.385167 293.88589 
L 414.053828 293.402761 
L 415.722488 292.72638 
L 417.391148 293.789264 
L 419.059809 295.431902 
L 420.728469 295.142025 
L 422.397129 296.881288 
L 424.065789 296.784663 
L 425.73445 295.431902 
L 427.40311 295.528528 
L 429.07177 294.948773 
L 430.740431 295.625153 
L 432.409091 294.755521 
L 434.077751 294.852147 
L 435.746411 293.016258 
L 437.415072 290.987117 
L 439.083732 289.730982 
L 440.752392 287.798466 
L 442.421053 288.184969 
L 444.089713 286.252454 
L 445.758373 286.445706 
L 447.427033 285.189571 
L 449.095694 281.32454 
L 450.764354 280.358282 
L 452.433014 277.652761 
L 454.101675 275.816871 
L 455.770335 272.434969 
L 457.438995 270.405828 
L 459.107656 268.569939 
L 460.776316 263.73865 
L 462.444976 260.646626 
L 464.113636 257.071472 
L 465.782297 252.33681 
L 467.450957 249.631288 
L 469.119617 249.921166 
L 470.788278 246.539264 
L 472.456938 241.514724 
L 474.125598 237.746319 
L 475.794258 235.910429 
L 477.462919 233.108282 
L 479.131579 230.789264 
L 480.800239 228.856748 
L 482.4689 225.088344 
L 484.13756 215.232515 
L 485.80622 210.691104 
L 487.47488 208.758589 
L 489.143541 206.536196 
L 490.812201 199.192638 
L 492.480861 201.028528 
L 494.149522 195.617485 
L 495.818182 181.220245 
L 497.486842 171.364417 
L 499.155502 171.75092 
L 500.824163 168.948773 
L 502.492823 163.827607 
L 504.161483 164.407362 
L 505.830144 161.411963 
L 507.498804 146.338344 
L 509.167464 140.444172 
L 510.836124 137.255521 
L 512.504785 130.298466 
L 514.173445 122.085276 
L 515.842105 129.138957 
L 517.510766 121.892025 
L 519.179426 106.23865 
L 520.848086 105.079141 
L 522.516746 106.142025 
L 524.185407 109.137423 
L 525.854067 106.625153 
L 527.522727 113.582209 
L 529.191388 111.359816 
L 530.860048 90.295399 
L 534.197368 100.441104 
L 537.534689 114.161963 
L 539.203349 127.882822 
L 540.87201 129.042331 
L 542.54067 115.031595 
L 544.20933 119.862883 
L 545.87799 124.017791 
L 547.546651 128.655828 
L 549.215311 130.395092 
L 550.883971 142.183436 
L 552.552632 142.08681 
L 554.221292 127.496319 
L 555.889952 129.138957 
L 557.558612 133.583742 
L 559.227273 138.994785 
L 560.895933 147.014724 
L 562.564593 155.904294 
L 564.233254 152.619018 
L 565.901914 140.057669 
L 567.570574 144.115951 
L 569.239234 150.3 
L 570.907895 149.043865 
L 572.576555 150.010123 
L 574.245215 159.092945 
L 575.913876 158.223313 
L 577.582536 150.010123 
L 579.251196 153.48865 
L 580.919856 156.194172 
L 582.588517 155.034663 
L 584.257177 151.459509 
L 585.925837 155.421166 
L 587.594498 151.459509 
L 589.263158 140.830675 
L 590.931818 141.893558 
L 594.269139 142.569939 
L 595.937799 134.936503 
L 597.606459 136.869018 
L 599.27512 132.617485 
L 600.94378 116.384356 
L 602.61244 117.157362 
L 604.2811 113.485583 
L 605.949761 108.461043 
L 607.618421 103.823006 
L 609.287081 112.422699 
L 610.955742 111.069939 
L 612.624402 93.967178 
L 615.961722 90.392025 
L 617.630383 88.073006 
L 619.299043 95.223313 
L 620.967703 92.807669 
L 622.636364 101.600613 
L 622.636364 101.600613 
" style="fill:none;stroke:#ff0000;stroke-linecap:square;stroke-width:1.5;"/>
   </g>
   <g id="line2d_36">
    <path clip-path="url(#p6b71b8314d)" d="M 273.886364 256.781595 
L 275.555024 259.293865 
L 277.223684 261.22638 
L 278.892344 262.675767 
L 282.229665 265.091411 
L 283.898325 266.347546 
L 285.566986 270.502454 
L 287.235646 275.720245 
L 288.904306 276.97638 
L 290.572967 280.454908 
L 292.241627 282.194172 
L 293.910287 281.227914 
L 295.578947 282.387423 
L 297.247608 282.00092 
L 298.916268 282.097546 
L 300.584928 281.227914 
L 303.922249 286.445706 
L 305.590909 287.895092 
L 307.259569 287.798466 
L 308.92823 290.407362 
L 310.59689 288.764724 
L 312.26555 290.117485 
L 313.934211 291.953374 
L 315.602871 290.793865 
L 317.271531 291.760123 
L 318.940191 291.953374 
L 320.608852 293.982515 
L 322.277512 293.692638 
L 323.946172 294.658896 
L 325.614833 297.07454 
L 327.283493 299.200307 
L 328.952153 301.905828 
L 330.620813 300.746319 
L 332.289474 301.326074 
L 333.958134 301.519325 
L 337.295455 302.388957 
L 338.964115 302.485583 
L 340.632775 301.712577 
L 342.301435 301.132822 
L 343.970096 300.069939 
L 345.638756 300.069939 
L 347.307416 300.939571 
L 348.976077 301.422699 
L 350.644737 302.09908 
L 352.313397 301.615951 
L 353.982057 302.09908 
L 357.319378 300.456442 
L 358.988038 300.939571 
L 360.656699 300.359816 
L 362.325359 302.002454 
L 363.994019 300.359816 
L 365.662679 302.678834 
L 367.33134 302.388957 
L 369 301.712577 
L 370.66866 303.065337 
L 372.337321 302.77546 
L 374.005981 302.09908 
L 375.674641 302.678834 
L 377.343301 302.388957 
L 379.011962 301.229448 
L 380.680622 301.132822 
L 382.349282 300.649693 
L 384.017943 301.519325 
L 385.686603 301.615951 
L 387.355263 301.519325 
L 389.023923 300.746319 
L 390.692584 299.58681 
L 392.361244 299.780061 
L 394.029904 297.847546 
L 395.698565 296.881288 
L 397.367225 297.557669 
L 399.035885 297.171166 
L 400.704545 297.364417 
L 404.041866 296.688037 
L 405.710526 297.07454 
L 407.379187 295.818405 
L 409.047847 296.301534 
L 412.385167 296.688037 
L 414.053828 297.461043 
L 417.391148 297.557669 
L 419.059809 298.813804 
L 420.728469 299.490184 
L 422.397129 299.876687 
L 424.065789 300.069939 
L 427.40311 300.166564 
L 429.07177 300.456442 
L 430.740431 299.973313 
L 432.409091 299.973313 
L 434.077751 299.58681 
L 435.746411 299.007055 
L 437.415072 298.620552 
L 444.089713 296.011656 
L 445.758373 295.818405 
L 447.427033 294.852147 
L 449.095694 293.112883 
L 450.764354 291.083742 
L 452.433014 290.697239 
L 454.101675 288.668098 
L 455.770335 286.928834 
L 457.438995 284.030061 
L 459.107656 282.484049 
L 460.776316 277.749387 
L 462.444976 277.362883 
L 464.113636 273.304601 
L 465.782297 270.985583 
L 467.450957 267.507055 
L 469.119617 267.313804 
L 470.788278 261.806135 
L 472.456938 259.100613 
L 474.125598 255.911963 
L 475.794258 255.911963 
L 477.462919 257.071472 
L 479.131579 253.786196 
L 480.800239 252.626687 
L 482.4689 246.63589 
L 485.80622 233.301534 
L 487.47488 230.789264 
L 489.143541 227.793865 
L 492.480861 216.875153 
L 494.149522 213.879755 
L 495.818182 208.082209 
L 497.486842 199.675767 
L 500.824163 191.945706 
L 502.492823 192.428834 
L 504.161483 191.655828 
L 507.498804 177.838344 
L 509.167464 170.011656 
L 510.836124 164.890491 
L 512.504785 160.34908 
L 514.173445 154.454908 
L 515.842105 153.198773 
L 517.510766 149.043865 
L 520.848086 132.424233 
L 522.516746 132.230982 
L 524.185407 132.230982 
L 525.854067 133.487117 
L 530.860048 119.959509 
L 532.528708 111.649693 
L 534.197368 119.766258 
L 535.866029 125.080675 
L 539.203349 136.965644 
L 540.87201 145.178834 
L 542.54067 143.246319 
L 544.20933 145.178834 
L 545.87799 147.691104 
L 547.546651 153.971779 
L 549.215311 157.257055 
L 550.883971 161.315337 
L 552.552632 163.344479 
L 554.221292 158.706442 
L 555.889952 157.450307 
L 557.558612 161.508589 
L 559.227273 166.629755 
L 562.564593 178.514724 
L 565.901914 170.784663 
L 567.570574 173.973313 
L 569.239234 182.573006 
L 570.907895 187.694172 
L 572.576555 188.273926 
L 574.245215 193.20184 
L 575.913876 193.781595 
L 577.582536 189.33681 
L 579.251196 192.718712 
L 580.919856 199.869018 
L 582.588517 199.289264 
L 584.257177 197.839877 
L 585.925837 199.965644 
L 587.594498 195.907362 
L 589.263158 194.168098 
L 590.931818 189.723313 
L 592.600478 192.138957 
L 594.269139 195.230982 
L 595.937799 192.332209 
L 597.606459 189.143558 
L 599.27512 186.438037 
L 600.94378 176.872086 
L 602.61244 170.977914 
L 604.2811 170.204908 
L 605.949761 167.402761 
L 607.618421 165.663497 
L 609.287081 163.730982 
L 610.955742 161.02546 
L 612.624402 156.870552 
L 614.293062 144.59908 
L 615.961722 146.241718 
L 617.630383 143.729448 
L 619.299043 144.502454 
L 620.967703 141.603681 
L 622.636364 135.516258 
L 622.636364 135.516258 
" style="fill:none;stroke:#ffa500;stroke-linecap:square;stroke-width:1.5;"/>
   </g>
   <g id="line2d_37">
    <path clip-path="url(#p6b71b8314d)" d="M 273.886364 261.999387 
L 275.555024 263.158896 
L 277.223684 259.487117 
L 278.892344 254.365951 
L 280.561005 256.684969 
L 282.229665 256.105215 
L 283.898325 260.646626 
L 285.566986 257.651227 
L 287.235646 258.810736 
L 288.904306 257.457975 
L 290.572967 256.588344 
L 292.241627 255.332209 
L 293.910287 253.882822 
L 295.578947 259.293865 
L 297.247608 258.907362 
L 298.916268 254.076074 
L 300.584928 252.916564 
L 302.253589 254.269325 
L 303.922249 251.950307 
L 305.590909 250.984049 
L 307.259569 253.786196 
L 308.92823 259.680368 
L 310.59689 253.496319 
L 312.26555 254.559202 
L 313.934211 253.206442 
L 315.602871 252.723313 
L 317.271531 253.786196 
L 318.940191 256.878221 
L 320.608852 258.230982 
L 322.277512 255.138957 
L 325.614833 252.530061 
L 327.283493 252.433436 
L 328.952153 253.689571 
L 330.620813 256.684969 
L 332.289474 257.168098 
L 333.958134 257.264724 
L 335.626794 253.496319 
L 337.295455 252.530061 
L 338.964115 254.172699 
L 340.632775 254.84908 
L 342.301435 256.491718 
L 343.970096 258.810736 
L 345.638756 256.878221 
L 347.307416 253.786196 
L 348.976077 253.303067 
L 350.644737 253.303067 
L 352.313397 252.530061 
L 353.982057 254.269325 
L 355.650718 254.365951 
L 357.319378 253.206442 
L 358.988038 251.853681 
L 360.656699 252.819939 
L 362.325359 251.950307 
L 363.994019 251.563804 
L 365.662679 254.269325 
L 367.33134 259.293865 
L 369 257.168098 
L 370.66866 256.20184 
L 372.337321 254.655828 
L 374.005981 253.786196 
L 375.674641 254.269325 
L 377.343301 255.815337 
L 379.011962 257.071472 
L 380.680622 254.655828 
L 382.349282 252.723313 
L 384.017943 251.370552 
L 385.686603 254.655828 
L 387.355263 253.496319 
L 389.023923 256.491718 
L 390.692584 253.979448 
L 392.361244 252.819939 
L 394.029904 249.921166 
L 395.698565 250.017791 
L 397.367225 253.303067 
L 399.035885 252.819939 
L 400.704545 253.303067 
L 402.373206 254.559202 
L 404.041866 250.790798 
L 405.710526 249.438037 
L 407.379187 251.757055 
L 409.047847 250.887423 
L 410.716507 252.046933 
L 412.385167 254.559202 
L 414.053828 255.815337 
L 415.722488 251.080675 
L 417.391148 249.051534 
L 419.059809 249.921166 
L 420.728469 250.50092 
L 422.397129 253.399693 
L 424.065789 255.235583 
L 425.73445 256.008589 
L 427.40311 252.240184 
L 429.07177 249.534663 
L 430.740431 251.950307 
L 432.409091 250.790798 
L 434.077751 251.467178 
L 435.746411 253.496319 
L 437.415072 255.815337 
L 439.083732 248.085276 
L 440.752392 249.631288 
L 442.421053 250.597546 
L 444.089713 250.307669 
L 445.758373 251.563804 
L 447.427033 253.882822 
L 449.095694 254.84908 
L 450.764354 249.14816 
L 452.433014 246.732515 
L 454.101675 247.698773 
L 455.770335 249.727914 
L 457.438995 252.33681 
L 459.107656 255.235583 
L 460.776316 257.457975 
L 462.444976 248.568405 
L 464.113636 247.795399 
L 465.782297 247.698773 
L 467.450957 252.33681 
L 469.119617 251.177301 
L 470.788278 255.138957 
L 472.456938 258.03773 
L 474.125598 252.433436 
L 477.462919 250.114417 
L 479.131579 251.757055 
L 480.800239 253.979448 
L 482.4689 257.36135 
L 484.13756 259.293865 
L 485.80622 253.496319 
L 487.47488 253.109816 
L 489.143541 254.752454 
L 490.812201 254.655828 
L 492.480861 258.907362 
L 494.149522 261.902761 
L 495.818182 261.419632 
L 497.486842 256.781595 
L 499.155502 258.230982 
L 500.824163 260.55 
L 502.492823 258.520859 
L 505.830144 264.704908 
L 507.498804 266.154294 
L 509.167464 262.772393 
L 510.836124 265.091411 
L 512.504785 264.704908 
L 514.173445 263.158896 
L 515.842105 267.507055 
L 517.510766 268.666564 
L 519.179426 267.507055 
L 520.848086 265.091411 
L 522.516746 264.511656 
L 524.185407 263.73865 
L 525.854067 265.961043 
L 527.522727 265.477914 
L 529.191388 266.057669 
L 530.860048 269.053067 
L 532.528708 265.767791 
L 534.197368 263.255521 
L 537.534689 263.06227 
L 539.203349 264.125153 
L 540.87201 267.507055 
L 542.54067 266.25092 
L 544.20933 262.096012 
L 545.87799 262.772393 
L 547.546651 261.22638 
L 549.215311 262.289264 
L 550.883971 264.994785 
L 552.552632 266.927301 
L 554.221292 264.415031 
L 555.889952 263.448773 
L 557.558612 261.999387 
L 559.227273 260.743252 
L 560.895933 261.22638 
L 562.564593 263.255521 
L 564.233254 265.961043 
L 565.901914 265.57454 
L 567.570574 261.709509 
L 569.239234 259.390491 
L 570.907895 259.293865 
L 572.576555 259.583742 
L 574.245215 262.482515 
L 575.913876 265.671166 
L 577.582536 263.255521 
L 579.251196 260.260123 
L 582.588517 255.332209 
L 584.257177 256.008589 
L 585.925837 259.293865 
L 587.594498 260.646626 
L 589.263158 260.743252 
L 590.931818 255.718712 
L 592.600478 255.815337 
L 594.269139 257.651227 
L 595.937799 256.298466 
L 597.606459 259.87362 
L 599.27512 262.965644 
L 600.94378 258.617485 
L 602.61244 257.941104 
L 604.2811 256.588344 
L 605.949761 260.163497 
L 607.618421 261.129755 
L 609.287081 262.482515 
L 610.955742 267.507055 
L 612.624402 267.700307 
L 614.293062 263.835276 
L 615.961722 266.734049 
L 617.630383 267.023926 
L 619.299043 268.859816 
L 620.967703 273.207975 
L 622.636364 271.758589 
L 622.636364 271.758589 
" style="fill:none;stroke:#0000ff;stroke-linecap:square;stroke-width:1.5;"/>
   </g>
   <g id="line2d_38">
    <path clip-path="url(#p6b71b8314d)" d="M 273.886364 293.982515 
L 275.555024 294.369018 
L 277.223684 297.944172 
L 278.892344 298.234049 
L 280.561005 299.780061 
L 285.566986 300.166564 
L 287.235646 300.359816 
L 288.904306 301.422699 
L 292.241627 302.09908 
L 293.910287 301.712577 
L 295.578947 301.519325 
L 297.247608 300.746319 
L 298.916268 301.615951 
L 302.253589 302.678834 
L 303.922249 303.645092 
L 305.590909 303.645092 
L 307.259569 303.838344 
L 308.92823 303.45184 
L 310.59689 304.514724 
L 313.934211 304.418098 
L 315.602871 305.674233 
L 317.271531 306.350613 
L 320.608852 306.060736 
L 322.277512 306.350613 
L 323.946172 306.447239 
L 325.614833 306.737117 
L 327.283493 307.220245 
L 328.952153 307.413497 
L 330.620813 307.413497 
L 332.289474 306.930368 
L 333.958134 306.833742 
L 335.626794 307.220245 
L 337.295455 307.12362 
L 338.964115 306.737117 
L 340.632775 306.640491 
L 342.301435 306.833742 
L 343.970096 306.833742 
L 345.638756 307.12362 
L 347.307416 307.220245 
L 348.976077 307.703374 
L 352.313397 307.606748 
L 353.982057 307.510123 
L 357.319378 307.703374 
L 358.988038 307.510123 
L 360.656699 307.703374 
L 363.994019 307.413497 
L 365.662679 307.606748 
L 367.33134 307.12362 
L 372.337321 307.8 
L 374.005981 307.316871 
L 375.674641 307.026994 
L 377.343301 307.12362 
L 379.011962 306.543865 
L 380.680622 306.640491 
L 382.349282 306.253988 
L 387.355263 306.447239 
L 389.023923 306.157362 
L 390.692584 306.350613 
L 392.361244 306.253988 
L 394.029904 305.770859 
L 395.698565 306.157362 
L 397.367225 305.480982 
L 399.035885 305.384356 
L 400.704545 305.674233 
L 404.041866 305.094479 
L 407.379187 305.384356 
L 409.047847 304.997853 
L 419.059809 305.674233 
L 420.728469 305.867485 
L 424.065789 305.96411 
L 425.73445 305.480982 
L 427.40311 305.96411 
L 429.07177 306.060736 
L 430.740431 306.447239 
L 432.409091 305.770859 
L 434.077751 305.770859 
L 439.083732 306.253988 
L 440.752392 306.157362 
L 442.421053 306.253988 
L 444.089713 305.674233 
L 445.758373 305.577607 
L 447.427033 305.674233 
L 449.095694 304.997853 
L 450.764354 304.031595 
L 452.433014 303.934969 
L 454.101675 304.418098 
L 460.776316 300.939571 
L 462.444976 300.359816 
L 464.113636 299.103681 
L 465.782297 298.910429 
L 467.450957 297.944172 
L 470.788278 296.881288 
L 472.456938 295.431902 
L 474.125598 295.431902 
L 475.794258 294.658896 
L 477.462919 294.465644 
L 479.131579 293.692638 
L 480.800239 294.079141 
L 482.4689 293.402761 
L 485.80622 290.793865 
L 487.47488 288.86135 
L 489.143541 287.122086 
L 490.812201 286.059202 
L 492.480861 286.445706 
L 494.149522 285.286196 
L 495.818182 284.803067 
L 499.155502 280.068405 
L 500.824163 278.908896 
L 502.492823 275.816871 
L 504.161483 275.140491 
L 505.830144 273.980982 
L 507.498804 272.531595 
L 509.167464 268.666564 
L 510.836124 265.671166 
L 512.504785 264.415031 
L 514.173445 263.545399 
L 515.842105 260.743252 
L 517.510766 261.806135 
L 519.179426 260.260123 
L 520.848086 258.03773 
L 522.516746 256.491718 
L 524.185407 255.718712 
L 525.854067 254.365951 
L 527.522727 252.723313 
L 529.191388 252.819939 
L 530.860048 252.433436 
L 532.528708 250.307669 
L 534.197368 250.017791 
L 537.534689 250.887423 
L 539.203349 250.984049 
L 540.87201 251.370552 
L 542.54067 251.177301 
L 544.20933 251.370552 
L 545.87799 250.597546 
L 547.546651 251.660429 
L 549.215311 250.307669 
L 550.883971 251.660429 
L 552.552632 252.626687 
L 554.221292 253.786196 
L 555.889952 253.496319 
L 557.558612 255.138957 
L 559.227273 255.52546 
L 560.895933 256.298466 
L 562.564593 256.008589 
L 564.233254 256.974847 
L 565.901914 257.36135 
L 567.570574 258.327607 
L 569.239234 258.03773 
L 572.576555 259.100613 
L 574.245215 259.776994 
L 575.913876 260.260123 
L 577.582536 262.675767 
L 580.919856 263.255521 
L 582.588517 264.89816 
L 584.257177 263.448773 
L 585.925837 263.545399 
L 587.594498 263.835276 
L 589.263158 263.73865 
L 590.931818 264.318405 
L 592.600478 263.448773 
L 594.269139 263.835276 
L 595.937799 263.545399 
L 597.606459 262.675767 
L 599.27512 261.129755 
L 600.94378 260.55 
L 602.61244 258.520859 
L 604.2811 258.327607 
L 605.949761 257.36135 
L 607.618421 256.105215 
L 609.287081 255.042331 
L 610.955742 253.109816 
L 612.624402 252.530061 
L 614.293062 252.530061 
L 615.961722 250.404294 
L 617.630383 251.563804 
L 619.299043 251.177301 
L 622.636364 248.181902 
L 622.636364 248.181902 
" style="fill:none;stroke:#00ffff;stroke-linecap:square;stroke-width:1.5;"/>
   </g>
   <g id="patch_3">
    <path d="M 90 320.4 
L 90 43.2 
" style="fill:none;stroke:#000000;stroke-linecap:square;stroke-linejoin:miter;stroke-width:0.8;"/>
   </g>
   <g id="patch_4">
    <path d="M 648 320.4 
L 648 43.2 
" style="fill:none;stroke:#000000;stroke-linecap:square;stroke-linejoin:miter;stroke-width:0.8;"/>
   </g>
   <g id="patch_5">
    <path d="M 90 320.4 
L 648 320.4 
" style="fill:none;stroke:#000000;stroke-linecap:square;stroke-linejoin:miter;stroke-width:0.8;"/>
   </g>
   <g id="patch_6">
    <path d="M 90 43.2 
L 648 43.2 
" style="fill:none;stroke:#000000;stroke-linecap:square;stroke-linejoin:miter;stroke-width:0.8;"/>
   </g>
   <g id="text_19">
    <!-- Testplot -->
    <g transform="translate(345.68625 37.2)scale(0.12 -0.12)">
     <defs>
      <path d="M -0.296875 72.90625 
L 61.375 72.90625 
L 61.375 64.59375 
L 35.5 64.59375 
L 35.5 0 
L 25.59375 0 
L 25.59375 64.59375 
L -0.296875 64.59375 
z
" id="DejaVuSans-84"/>
      <path d="M 56.203125 29.59375 
L 56.203125 25.203125 
L 14.890625 25.203125 
Q 15.484375 15.921875 20.484375 11.0625 
Q 25.484375 6.203125 34.421875 6.203125 
Q 39.59375 6.203125 44.453125 7.46875 
Q 49.3125 8.734375 54.109375 11.28125 
L 54.109375 2.78125 
Q 49.265625 0.734375 44.1875 -0.34375 
Q 39.109375 -1.421875 33.890625 -1.421875 
Q 20.796875 -1.421875 13.15625 6.1875 
Q 5.515625 13.8125 5.515625 26.8125 
Q 5.515625 40.234375 12.765625 48.109375 
Q 20.015625 56 32.328125 56 
Q 43.359375 56 49.78125 48.890625 
Q 56.203125 41.796875 56.203125 29.59375 
z
M 47.21875 32.234375 
Q 47.125 39.59375 43.09375 43.984375 
Q 39.0625 48.390625 32.421875 48.390625 
Q 24.90625 48.390625 20.390625 44.140625 
Q 15.875 39.890625 15.1875 32.171875 
z
" id="DejaVuSans-101"/>
      <path d="M 44.28125 53.078125 
L 44.28125 44.578125 
Q 40.484375 46.53125 36.375 47.5 
Q 32.28125 48.484375 27.875 48.484375 
Q 21.1875 48.484375 17.84375 46.4375 
Q 14.5 44.390625 14.5 40.28125 
Q 14.5 37.15625 16.890625 35.375 
Q 19.28125 33.59375 26.515625 31.984375 
L 29.59375 31.296875 
Q 39.15625 29.25 43.1875 25.515625 
Q 47.21875 21.78125 47.21875 15.09375 
Q 47.21875 7.46875 41.1875 3.015625 
Q 35.15625 -1.421875 24.609375 -1.421875 
Q 20.21875 -1.421875 15.453125 -0.5625 
Q 10.6875 0.296875 5.421875 2 
L 5.421875 11.28125 
Q 10.40625 8.6875 15.234375 7.390625 
Q 20.0625 6.109375 24.8125 6.109375 
Q 31.15625 6.109375 34.5625 8.28125 
Q 37.984375 10.453125 37.984375 14.40625 
Q 37.984375 18.0625 35.515625 20.015625 
Q 33.0625 21.96875 24.703125 23.78125 
L 21.578125 24.515625 
Q 13.234375 26.265625 9.515625 29.90625 
Q 5.8125 33.546875 5.8125 39.890625 
Q 5.8125 47.609375 11.28125 51.796875 
Q 16.75 56 26.8125 56 
Q 31.78125 56 36.171875 55.265625 
Q 40.578125 54.546875 44.28125 53.078125 
z
" id="DejaVuSans-115"/>
      <path d="M 18.109375 8.203125 
L 18.109375 -20.796875 
L 9.078125 -20.796875 
L 9.078125 54.6875 
L 18.109375 54.6875 
L 18.109375 46.390625 
Q 20.953125 51.265625 25.265625 53.625 
Q 29.59375 56 35.59375 56 
Q 45.5625 56 51.78125 48.09375 
Q 58.015625 40.1875 58.015625 27.296875 
Q 58.015625 14.40625 51.78125 6.484375 
Q 45.5625 -1.421875 35.59375 -1.421875 
Q 29.59375 -1.421875 25.265625 0.953125 
Q 20.953125 3.328125 18.109375 8.203125 
z
M 48.6875 27.296875 
Q 48.6875 37.203125 44.609375 42.84375 
Q 40.53125 48.484375 33.40625 48.484375 
Q 26.265625 48.484375 22.1875 42.84375 
Q 18.109375 37.203125 18.109375 27.296875 
Q 18.109375 17.390625 22.1875 11.75 
Q 26.265625 6.109375 33.40625 6.109375 
Q 40.53125 6.109375 44.609375 11.75 
Q 48.6875 17.390625 48.6875 27.296875 
z
" id="DejaVuSans-112"/>
      <path d="M 9.421875 75.984375 
L 18.40625 75.984375 
L 18.40625 0 
L 9.421875 0 
z
" id="DejaVuSans-108"/>
      <path d="M 30.609375 48.390625 
Q 23.390625 48.390625 19.1875 42.75 
Q 14.984375 37.109375 14.984375 27.296875 
Q 14.984375 17.484375 19.15625 11.84375 
Q 23.34375 6.203125 30.609375 6.203125 
Q 37.796875 6.203125 41.984375 11.859375 
Q 46.1875 17.53125 46.1875 27.296875 
Q 46.1875 37.015625 41.984375 42.703125 
Q 37.796875 48.390625 30.609375 48.390625 
z
M 30.609375 56 
Q 42.328125 56 49.015625 48.375 
Q 55.71875 40.765625 55.71875 27.296875 
Q 55.71875 13.875 49.015625 6.21875 
Q 42.328125 -1.421875 30.609375 -1.421875 
Q 18.84375 -1.421875 12.171875 6.21875 
Q 5.515625 13.875 5.515625 27.296875 
Q 5.515625 40.765625 12.171875 48.375 
Q 18.84375 56 30.609375 56 
z
" id="DejaVuSans-111"/>
     </defs>
     <use xlink:href="#DejaVuSans-84"/>
     <use x="44.083984" xlink:href="#DejaVuSans-101"/>
     <use x="105.607422" xlink:href="#DejaVuSans-115"/>
     <use x="157.707031" xlink:href="#DejaVuSans-116"/>
     <use x="196.916016" xlink:href="#DejaVuSans-112"/>
     <use x="260.392578" xlink:href="#DejaVuSans-108"/>
     <use x="288.175781" xlink:href="#DejaVuSans-111"/>
     <use x="349.357422" xlink:href="#DejaVuSans-116"/>
    </g>
   </g>
   <g id="legend_1">
    <g id="patch_7">
     <path d="M 97 109.9125 
L 348.946875 109.9125 
Q 350.946875 109.9125 350.946875 107.9125 
L 350.946875 50.2 
Q 350.946875 48.2 348.946875 48.2 
L 97 48.2 
Q 95 48.2 95 50.2 
L 95 107.9125 
Q 95 109.9125 97 109.9125 
z
" style="fill:#ffffff;opacity:0.8;stroke:#cccccc;stroke-linejoin:miter;"/>
    </g>
    <g id="line2d_39">
     <path d="M 99 56.298437 
L 119 56.298437 
" style="fill:none;stroke:#ff0000;stroke-linecap:square;stroke-width:1.5;"/>
    </g>
    <g id="line2d_40"/>
    <g id="text_20">
     <!-- covid opgenomen patinten NICE (nu 2148) -->
     <g transform="translate(127 59.798437)scale(0.1 -0.1)">
      <defs>
       <path d="M 48.78125 52.59375 
L 48.78125 44.1875 
Q 44.96875 46.296875 41.140625 47.34375 
Q 37.3125 48.390625 33.40625 48.390625 
Q 24.65625 48.390625 19.8125 42.84375 
Q 14.984375 37.3125 14.984375 27.296875 
Q 14.984375 17.28125 19.8125 11.734375 
Q 24.65625 6.203125 33.40625 6.203125 
Q 37.3125 6.203125 41.140625 7.25 
Q 44.96875 8.296875 48.78125 10.40625 
L 48.78125 2.09375 
Q 45.015625 0.34375 40.984375 -0.53125 
Q 36.96875 -1.421875 32.421875 -1.421875 
Q 20.0625 -1.421875 12.78125 6.34375 
Q 5.515625 14.109375 5.515625 27.296875 
Q 5.515625 40.671875 12.859375 48.328125 
Q 20.21875 56 33.015625 56 
Q 37.15625 56 41.109375 55.140625 
Q 45.0625 54.296875 48.78125 52.59375 
z
" id="DejaVuSans-99"/>
       <path d="M 2.984375 54.6875 
L 12.5 54.6875 
L 29.59375 8.796875 
L 46.6875 54.6875 
L 56.203125 54.6875 
L 35.6875 0 
L 23.484375 0 
z
" id="DejaVuSans-118"/>
       <path d="M 9.421875 54.6875 
L 18.40625 54.6875 
L 18.40625 0 
L 9.421875 0 
z
M 9.421875 75.984375 
L 18.40625 75.984375 
L 18.40625 64.59375 
L 9.421875 64.59375 
z
" id="DejaVuSans-105"/>
       <path d="M 45.40625 46.390625 
L 45.40625 75.984375 
L 54.390625 75.984375 
L 54.390625 0 
L 45.40625 0 
L 45.40625 8.203125 
Q 42.578125 3.328125 38.25 0.953125 
Q 33.9375 -1.421875 27.875 -1.421875 
Q 17.96875 -1.421875 11.734375 6.484375 
Q 5.515625 14.40625 5.515625 27.296875 
Q 5.515625 40.1875 11.734375 48.09375 
Q 17.96875 56 27.875 56 
Q 33.9375 56 38.25 53.625 
Q 42.578125 51.265625 45.40625 46.390625 
z
M 14.796875 27.296875 
Q 14.796875 17.390625 18.875 11.75 
Q 22.953125 6.109375 30.078125 6.109375 
Q 37.203125 6.109375 41.296875 11.75 
Q 45.40625 17.390625 45.40625 27.296875 
Q 45.40625 37.203125 41.296875 42.84375 
Q 37.203125 48.484375 30.078125 48.484375 
Q 22.953125 48.484375 18.875 42.84375 
Q 14.796875 37.203125 14.796875 27.296875 
z
" id="DejaVuSans-100"/>
       <path id="DejaVuSans-32"/>
       <path d="M 45.40625 27.984375 
Q 45.40625 37.75 41.375 43.109375 
Q 37.359375 48.484375 30.078125 48.484375 
Q 22.859375 48.484375 18.828125 43.109375 
Q 14.796875 37.75 14.796875 27.984375 
Q 14.796875 18.265625 18.828125 12.890625 
Q 22.859375 7.515625 30.078125 7.515625 
Q 37.359375 7.515625 41.375 12.890625 
Q 45.40625 18.265625 45.40625 27.984375 
z
M 54.390625 6.78125 
Q 54.390625 -7.171875 48.1875 -13.984375 
Q 42 -20.796875 29.203125 -20.796875 
Q 24.46875 -20.796875 20.265625 -20.09375 
Q 16.0625 -19.390625 12.109375 -17.921875 
L 12.109375 -9.1875 
Q 16.0625 -11.328125 19.921875 -12.34375 
Q 23.78125 -13.375 27.78125 -13.375 
Q 36.625 -13.375 41.015625 -8.765625 
Q 45.40625 -4.15625 45.40625 5.171875 
L 45.40625 9.625 
Q 42.625 4.78125 38.28125 2.390625 
Q 33.9375 0 27.875 0 
Q 17.828125 0 11.671875 7.65625 
Q 5.515625 15.328125 5.515625 27.984375 
Q 5.515625 40.671875 11.671875 48.328125 
Q 17.828125 56 27.875 56 
Q 33.9375 56 38.28125 53.609375 
Q 42.625 51.21875 45.40625 46.390625 
L 45.40625 54.6875 
L 54.390625 54.6875 
z
" id="DejaVuSans-103"/>
       <path d="M 54.890625 33.015625 
L 54.890625 0 
L 45.90625 0 
L 45.90625 32.71875 
Q 45.90625 40.484375 42.875 44.328125 
Q 39.84375 48.1875 33.796875 48.1875 
Q 26.515625 48.1875 22.3125 43.546875 
Q 18.109375 38.921875 18.109375 30.90625 
L 18.109375 0 
L 9.078125 0 
L 9.078125 54.6875 
L 18.109375 54.6875 
L 18.109375 46.1875 
Q 21.34375 51.125 25.703125 53.5625 
Q 30.078125 56 35.796875 56 
Q 45.21875 56 50.046875 50.171875 
Q 54.890625 44.34375 54.890625 33.015625 
z
" id="DejaVuSans-110"/>
       <path d="M 56.203125 29.59375 
L 56.203125 25.203125 
L 14.890625 25.203125 
Q 15.484375 15.921875 20.484375 11.0625 
Q 25.484375 6.203125 34.421875 6.203125 
Q 39.59375 6.203125 44.453125 7.46875 
Q 49.3125 8.734375 54.109375 11.28125 
L 54.109375 2.78125 
Q 49.265625 0.734375 44.1875 -0.34375 
Q 39.109375 -1.421875 33.890625 -1.421875 
Q 20.796875 -1.421875 13.15625 6.1875 
Q 5.515625 13.8125 5.515625 26.8125 
Q 5.515625 40.234375 12.765625 48.109375 
Q 20.015625 56 32.328125 56 
Q 43.359375 56 49.78125 48.890625 
Q 56.203125 41.796875 56.203125 29.59375 
z
M 47.21875 32.234375 
Q 47.125 39.59375 43.09375 43.984375 
Q 39.0625 48.390625 32.421875 48.390625 
Q 24.90625 48.390625 20.390625 44.140625 
Q 15.875 39.890625 15.1875 32.171875 
z
M 36.34375 75.78125 
L 46.25 75.78125 
L 46.25 65.921875 
L 36.34375 65.921875 
z
M 17.25 75.78125 
L 27.15625 75.78125 
L 27.15625 65.921875 
L 17.25 65.921875 
z
" id="DejaVuSans-235"/>
       <path d="M 9.8125 72.90625 
L 23.09375 72.90625 
L 55.421875 11.921875 
L 55.421875 72.90625 
L 64.984375 72.90625 
L 64.984375 0 
L 51.703125 0 
L 19.390625 60.984375 
L 19.390625 0 
L 9.8125 0 
z
" id="DejaVuSans-78"/>
       <path d="M 9.8125 72.90625 
L 19.671875 72.90625 
L 19.671875 0 
L 9.8125 0 
z
" id="DejaVuSans-73"/>
       <path d="M 64.40625 67.28125 
L 64.40625 56.890625 
Q 59.421875 61.53125 53.78125 63.8125 
Q 48.140625 66.109375 41.796875 66.109375 
Q 29.296875 66.109375 22.65625 58.46875 
Q 16.015625 50.828125 16.015625 36.375 
Q 16.015625 21.96875 22.65625 14.328125 
Q 29.296875 6.6875 41.796875 6.6875 
Q 48.140625 6.6875 53.78125 8.984375 
Q 59.421875 11.28125 64.40625 15.921875 
L 64.40625 5.609375 
Q 59.234375 2.09375 53.4375 0.328125 
Q 47.65625 -1.421875 41.21875 -1.421875 
Q 24.65625 -1.421875 15.125 8.703125 
Q 5.609375 18.84375 5.609375 36.375 
Q 5.609375 53.953125 15.125 64.078125 
Q 24.65625 74.21875 41.21875 74.21875 
Q 47.75 74.21875 53.53125 72.484375 
Q 59.328125 70.75 64.40625 67.28125 
z
" id="DejaVuSans-67"/>
       <path d="M 9.8125 72.90625 
L 55.90625 72.90625 
L 55.90625 64.59375 
L 19.671875 64.59375 
L 19.671875 43.015625 
L 54.390625 43.015625 
L 54.390625 34.71875 
L 19.671875 34.71875 
L 19.671875 8.296875 
L 56.78125 8.296875 
L 56.78125 0 
L 9.8125 0 
z
" id="DejaVuSans-69"/>
       <path d="M 31 75.875 
Q 24.46875 64.65625 21.28125 53.65625 
Q 18.109375 42.671875 18.109375 31.390625 
Q 18.109375 20.125 21.3125 9.0625 
Q 24.515625 -2 31 -13.1875 
L 23.1875 -13.1875 
Q 15.875 -1.703125 12.234375 9.375 
Q 8.59375 20.453125 8.59375 31.390625 
Q 8.59375 42.28125 12.203125 53.3125 
Q 15.828125 64.359375 23.1875 75.875 
z
" id="DejaVuSans-40"/>
       <path d="M 8.015625 75.875 
L 15.828125 75.875 
Q 23.140625 64.359375 26.78125 53.3125 
Q 30.421875 42.28125 30.421875 31.390625 
Q 30.421875 20.453125 26.78125 9.375 
Q 23.140625 -1.703125 15.828125 -13.1875 
L 8.015625 -13.1875 
Q 14.5 -2 17.703125 9.0625 
Q 20.90625 20.125 20.90625 31.390625 
Q 20.90625 42.671875 17.703125 53.65625 
Q 14.5 64.65625 8.015625 75.875 
z
" id="DejaVuSans-41"/>
      </defs>
      <use xlink:href="#DejaVuSans-99"/>
      <use x="54.980469" xlink:href="#DejaVuSans-111"/>
      <use x="116.162109" xlink:href="#DejaVuSans-118"/>
      <use x="175.341797" xlink:href="#DejaVuSans-105"/>
      <use x="203.125" xlink:href="#DejaVuSans-100"/>
      <use x="266.601562" xlink:href="#DejaVuSans-32"/>
      <use x="298.388672" xlink:href="#DejaVuSans-111"/>
      <use x="359.570312" xlink:href="#DejaVuSans-112"/>
      <use x="423.046875" xlink:href="#DejaVuSans-103"/>
      <use x="486.523438" xlink:href="#DejaVuSans-101"/>
      <use x="548.046875" xlink:href="#DejaVuSans-110"/>
      <use x="611.425781" xlink:href="#DejaVuSans-111"/>
      <use x="672.607422" xlink:href="#DejaVuSans-109"/>
      <use x="770.019531" xlink:href="#DejaVuSans-101"/>
      <use x="831.542969" xlink:href="#DejaVuSans-110"/>
      <use x="894.921875" xlink:href="#DejaVuSans-32"/>
      <use x="926.708984" xlink:href="#DejaVuSans-112"/>
      <use x="990.185547" xlink:href="#DejaVuSans-97"/>
      <use x="1051.464844" xlink:href="#DejaVuSans-116"/>
      <use x="1090.673828" xlink:href="#DejaVuSans-105"/>
      <use x="1118.457031" xlink:href="#DejaVuSans-235"/>
      <use x="1179.980469" xlink:href="#DejaVuSans-110"/>
      <use x="1243.359375" xlink:href="#DejaVuSans-116"/>
      <use x="1282.568359" xlink:href="#DejaVuSans-101"/>
      <use x="1344.091797" xlink:href="#DejaVuSans-110"/>
      <use x="1407.470703" xlink:href="#DejaVuSans-32"/>
      <use x="1439.257812" xlink:href="#DejaVuSans-78"/>
      <use x="1514.0625" xlink:href="#DejaVuSans-73"/>
      <use x="1543.554688" xlink:href="#DejaVuSans-67"/>
      <use x="1613.378906" xlink:href="#DejaVuSans-69"/>
      <use x="1676.5625" xlink:href="#DejaVuSans-32"/>
      <use x="1708.349609" xlink:href="#DejaVuSans-40"/>
      <use x="1747.363281" xlink:href="#DejaVuSans-110"/>
      <use x="1810.742188" xlink:href="#DejaVuSans-117"/>
      <use x="1874.121094" xlink:href="#DejaVuSans-32"/>
      <use x="1905.908203" xlink:href="#DejaVuSans-50"/>
      <use x="1969.53125" xlink:href="#DejaVuSans-49"/>
      <use x="2033.154297" xlink:href="#DejaVuSans-52"/>
      <use x="2096.777344" xlink:href="#DejaVuSans-56"/>
      <use x="2160.400391" xlink:href="#DejaVuSans-41"/>
     </g>
    </g>
    <g id="line2d_41">
     <path d="M 99 70.976562 
L 119 70.976562 
" style="fill:none;stroke:#ffa500;stroke-linecap:square;stroke-width:1.5;"/>
    </g>
    <g id="line2d_42"/>
    <g id="text_21">
     <!-- covid bezette bedden LCPS (nu 1797) -->
     <g transform="translate(127 74.476562)scale(0.1 -0.1)">
      <defs>
       <path d="M 48.6875 27.296875 
Q 48.6875 37.203125 44.609375 42.84375 
Q 40.53125 48.484375 33.40625 48.484375 
Q 26.265625 48.484375 22.1875 42.84375 
Q 18.109375 37.203125 18.109375 27.296875 
Q 18.109375 17.390625 22.1875 11.75 
Q 26.265625 6.109375 33.40625 6.109375 
Q 40.53125 6.109375 44.609375 11.75 
Q 48.6875 17.390625 48.6875 27.296875 
z
M 18.109375 46.390625 
Q 20.953125 51.265625 25.265625 53.625 
Q 29.59375 56 35.59375 56 
Q 45.5625 56 51.78125 48.09375 
Q 58.015625 40.1875 58.015625 27.296875 
Q 58.015625 14.40625 51.78125 6.484375 
Q 45.5625 -1.421875 35.59375 -1.421875 
Q 29.59375 -1.421875 25.265625 0.953125 
Q 20.953125 3.328125 18.109375 8.203125 
L 18.109375 0 
L 9.078125 0 
L 9.078125 75.984375 
L 18.109375 75.984375 
z
" id="DejaVuSans-98"/>
       <path d="M 5.515625 54.6875 
L 48.1875 54.6875 
L 48.1875 46.484375 
L 14.40625 7.171875 
L 48.1875 7.171875 
L 48.1875 0 
L 4.296875 0 
L 4.296875 8.203125 
L 38.09375 47.515625 
L 5.515625 47.515625 
z
" id="DejaVuSans-122"/>
       <path d="M 9.8125 72.90625 
L 19.671875 72.90625 
L 19.671875 8.296875 
L 55.171875 8.296875 
L 55.171875 0 
L 9.8125 0 
z
" id="DejaVuSans-76"/>
       <path d="M 19.671875 64.796875 
L 19.671875 37.40625 
L 32.078125 37.40625 
Q 38.96875 37.40625 42.71875 40.96875 
Q 46.484375 44.53125 46.484375 51.125 
Q 46.484375 57.671875 42.71875 61.234375 
Q 38.96875 64.796875 32.078125 64.796875 
z
M 9.8125 72.90625 
L 32.078125 72.90625 
Q 44.34375 72.90625 50.609375 67.359375 
Q 56.890625 61.8125 56.890625 51.125 
Q 56.890625 40.328125 50.609375 34.8125 
Q 44.34375 29.296875 32.078125 29.296875 
L 19.671875 29.296875 
L 19.671875 0 
L 9.8125 0 
z
" id="DejaVuSans-80"/>
       <path d="M 53.515625 70.515625 
L 53.515625 60.890625 
Q 47.90625 63.578125 42.921875 64.890625 
Q 37.9375 66.21875 33.296875 66.21875 
Q 25.25 66.21875 20.875 63.09375 
Q 16.5 59.96875 16.5 54.203125 
Q 16.5 49.359375 19.40625 46.890625 
Q 22.3125 44.4375 30.421875 42.921875 
L 36.375 41.703125 
Q 47.40625 39.59375 52.65625 34.296875 
Q 57.90625 29 57.90625 20.125 
Q 57.90625 9.515625 50.796875 4.046875 
Q 43.703125 -1.421875 29.984375 -1.421875 
Q 24.8125 -1.421875 18.96875 -0.25 
Q 13.140625 0.921875 6.890625 3.21875 
L 6.890625 13.375 
Q 12.890625 10.015625 18.65625 8.296875 
Q 24.421875 6.59375 29.984375 6.59375 
Q 38.421875 6.59375 43.015625 9.90625 
Q 47.609375 13.234375 47.609375 19.390625 
Q 47.609375 24.75 44.3125 27.78125 
Q 41.015625 30.8125 33.5 32.328125 
L 27.484375 33.5 
Q 16.453125 35.6875 11.515625 40.375 
Q 6.59375 45.0625 6.59375 53.421875 
Q 6.59375 63.09375 13.40625 68.65625 
Q 20.21875 74.21875 32.171875 74.21875 
Q 37.3125 74.21875 42.625 73.28125 
Q 47.953125 72.359375 53.515625 70.515625 
z
" id="DejaVuSans-83"/>
      </defs>
      <use xlink:href="#DejaVuSans-99"/>
      <use x="54.980469" xlink:href="#DejaVuSans-111"/>
      <use x="116.162109" xlink:href="#DejaVuSans-118"/>
      <use x="175.341797" xlink:href="#DejaVuSans-105"/>
      <use x="203.125" xlink:href="#DejaVuSans-100"/>
      <use x="266.601562" xlink:href="#DejaVuSans-32"/>
      <use x="298.388672" xlink:href="#DejaVuSans-98"/>
      <use x="361.865234" xlink:href="#DejaVuSans-101"/>
      <use x="423.388672" xlink:href="#DejaVuSans-122"/>
      <use x="475.878906" xlink:href="#DejaVuSans-101"/>
      <use x="537.402344" xlink:href="#DejaVuSans-116"/>
      <use x="576.611328" xlink:href="#DejaVuSans-116"/>
      <use x="615.820312" xlink:href="#DejaVuSans-101"/>
      <use x="677.34375" xlink:href="#DejaVuSans-32"/>
      <use x="709.130859" xlink:href="#DejaVuSans-98"/>
      <use x="772.607422" xlink:href="#DejaVuSans-101"/>
      <use x="834.130859" xlink:href="#DejaVuSans-100"/>
      <use x="897.607422" xlink:href="#DejaVuSans-100"/>
      <use x="961.083984" xlink:href="#DejaVuSans-101"/>
      <use x="1022.607422" xlink:href="#DejaVuSans-110"/>
      <use x="1085.986328" xlink:href="#DejaVuSans-32"/>
      <use x="1117.773438" xlink:href="#DejaVuSans-76"/>
      <use x="1173.486328" xlink:href="#DejaVuSans-67"/>
      <use x="1243.310547" xlink:href="#DejaVuSans-80"/>
      <use x="1303.613281" xlink:href="#DejaVuSans-83"/>
      <use x="1367.089844" xlink:href="#DejaVuSans-32"/>
      <use x="1398.876953" xlink:href="#DejaVuSans-40"/>
      <use x="1437.890625" xlink:href="#DejaVuSans-110"/>
      <use x="1501.269531" xlink:href="#DejaVuSans-117"/>
      <use x="1564.648438" xlink:href="#DejaVuSans-32"/>
      <use x="1596.435547" xlink:href="#DejaVuSans-49"/>
      <use x="1660.058594" xlink:href="#DejaVuSans-55"/>
      <use x="1723.681641" xlink:href="#DejaVuSans-57"/>
      <use x="1787.304688" xlink:href="#DejaVuSans-55"/>
      <use x="1850.927734" xlink:href="#DejaVuSans-41"/>
     </g>
    </g>
    <g id="line2d_43">
     <path d="M 99 85.654687 
L 119 85.654687 
" style="fill:none;stroke:#0000ff;stroke-linecap:square;stroke-width:1.5;"/>
    </g>
    <g id="line2d_44"/>
    <g id="text_22">
     <!-- non-covid bezette IC bedden LCPS (nu 387) -->
     <g transform="translate(127 89.154687)scale(0.1 -0.1)">
      <use xlink:href="#DejaVuSans-110"/>
      <use x="63.378906" xlink:href="#DejaVuSans-111"/>
      <use x="124.560547" xlink:href="#DejaVuSans-110"/>
      <use x="187.939453" xlink:href="#DejaVuSans-45"/>
      <use x="224.023438" xlink:href="#DejaVuSans-99"/>
      <use x="279.003906" xlink:href="#DejaVuSans-111"/>
      <use x="340.185547" xlink:href="#DejaVuSans-118"/>
      <use x="399.365234" xlink:href="#DejaVuSans-105"/>
      <use x="427.148438" xlink:href="#DejaVuSans-100"/>
      <use x="490.625" xlink:href="#DejaVuSans-32"/>
      <use x="522.412109" xlink:href="#DejaVuSans-98"/>
      <use x="585.888672" xlink:href="#DejaVuSans-101"/>
      <use x="647.412109" xlink:href="#DejaVuSans-122"/>
      <use x="699.902344" xlink:href="#DejaVuSans-101"/>
      <use x="761.425781" xlink:href="#DejaVuSans-116"/>
      <use x="800.634766" xlink:href="#DejaVuSans-116"/>
      <use x="839.84375" xlink:href="#DejaVuSans-101"/>
      <use x="901.367188" xlink:href="#DejaVuSans-32"/>
      <use x="933.154297" xlink:href="#DejaVuSans-73"/>
      <use x="962.646484" xlink:href="#DejaVuSans-67"/>
      <use x="1032.470703" xlink:href="#DejaVuSans-32"/>
      <use x="1064.257812" xlink:href="#DejaVuSans-98"/>
      <use x="1127.734375" xlink:href="#DejaVuSans-101"/>
      <use x="1189.257812" xlink:href="#DejaVuSans-100"/>
      <use x="1252.734375" xlink:href="#DejaVuSans-100"/>
      <use x="1316.210938" xlink:href="#DejaVuSans-101"/>
      <use x="1377.734375" xlink:href="#DejaVuSans-110"/>
      <use x="1441.113281" xlink:href="#DejaVuSans-32"/>
      <use x="1472.900391" xlink:href="#DejaVuSans-76"/>
      <use x="1528.613281" xlink:href="#DejaVuSans-67"/>
      <use x="1598.4375" xlink:href="#DejaVuSans-80"/>
      <use x="1658.740234" xlink:href="#DejaVuSans-83"/>
      <use x="1722.216797" xlink:href="#DejaVuSans-32"/>
      <use x="1754.003906" xlink:href="#DejaVuSans-40"/>
      <use x="1793.017578" xlink:href="#DejaVuSans-110"/>
      <use x="1856.396484" xlink:href="#DejaVuSans-117"/>
      <use x="1919.775391" xlink:href="#DejaVuSans-32"/>
      <use x="1951.5625" xlink:href="#DejaVuSans-51"/>
      <use x="2015.185547" xlink:href="#DejaVuSans-56"/>
      <use x="2078.808594" xlink:href="#DejaVuSans-55"/>
      <use x="2142.431641" xlink:href="#DejaVuSans-41"/>
     </g>
    </g>
    <g id="line2d_45">
     <path d="M 99 100.332812 
L 119 100.332812 
" style="fill:none;stroke:#00ffff;stroke-linecap:square;stroke-width:1.5;"/>
    </g>
    <g id="line2d_46"/>
    <g id="text_23">
     <!-- covid bezette IC bedden LCPS (nu 631) -->
     <g transform="translate(127 103.832812)scale(0.1 -0.1)">
      <use xlink:href="#DejaVuSans-99"/>
      <use x="54.980469" xlink:href="#DejaVuSans-111"/>
      <use x="116.162109" xlink:href="#DejaVuSans-118"/>
      <use x="175.341797" xlink:href="#DejaVuSans-105"/>
      <use x="203.125" xlink:href="#DejaVuSans-100"/>
      <use x="266.601562" xlink:href="#DejaVuSans-32"/>
      <use x="298.388672" xlink:href="#DejaVuSans-98"/>
      <use x="361.865234" xlink:href="#DejaVuSans-101"/>
      <use x="423.388672" xlink:href="#DejaVuSans-122"/>
      <use x="475.878906" xlink:href="#DejaVuSans-101"/>
      <use x="537.402344" xlink:href="#DejaVuSans-116"/>
      <use x="576.611328" xlink:href="#DejaVuSans-116"/>
      <use x="615.820312" xlink:href="#DejaVuSans-101"/>
      <use x="677.34375" xlink:href="#DejaVuSans-32"/>
      <use x="709.130859" xlink:href="#DejaVuSans-73"/>
      <use x="738.623047" xlink:href="#DejaVuSans-67"/>
      <use x="808.447266" xlink:href="#DejaVuSans-32"/>
      <use x="840.234375" xlink:href="#DejaVuSans-98"/>
      <use x="903.710938" xlink:href="#DejaVuSans-101"/>
      <use x="965.234375" xlink:href="#DejaVuSans-100"/>
      <use x="1028.710938" xlink:href="#DejaVuSans-100"/>
      <use x="1092.1875" xlink:href="#DejaVuSans-101"/>
      <use x="1153.710938" xlink:href="#DejaVuSans-110"/>
      <use x="1217.089844" xlink:href="#DejaVuSans-32"/>
      <use x="1248.876953" xlink:href="#DejaVuSans-76"/>
      <use x="1304.589844" xlink:href="#DejaVuSans-67"/>
      <use x="1374.414062" xlink:href="#DejaVuSans-80"/>
      <use x="1434.716797" xlink:href="#DejaVuSans-83"/>
      <use x="1498.193359" xlink:href="#DejaVuSans-32"/>
      <use x="1529.980469" xlink:href="#DejaVuSans-40"/>
      <use x="1568.994141" xlink:href="#DejaVuSans-110"/>
      <use x="1632.373047" xlink:href="#DejaVuSans-117"/>
      <use x="1695.751953" xlink:href="#DejaVuSans-32"/>
      <use x="1727.539062" xlink:href="#DejaVuSans-54"/>
      <use x="1791.162109" xlink:href="#DejaVuSans-51"/>
      <use x="1854.785156" xlink:href="#DejaVuSans-49"/>
      <use x="1918.408203" xlink:href="#DejaVuSans-41"/>
     </g>
    </g>
   </g>
  </g>
 </g>
 <defs>
  <clipPath id="p6b71b8314d">
   <rect height="277.2" width="558" x="90" y="43.2"/>
  </clipPath>
 </defs>
</svg>
