<?xml version="1.0" encoding="utf-8" standalone="no"?>
<!DOCTYPE svg PUBLIC "-//W3C//DTD SVG 1.1//EN"
  "http://www.w3.org/Graphics/SVG/1.1/DTD/svg11.dtd">
<!-- Created with matplotlib (https://matplotlib.org/) -->
<svg height="360pt" version="1.1" viewBox="0 0 720 360" width="720pt" xmlns="http://www.w3.org/2000/svg" xmlns:xlink="http://www.w3.org/1999/xlink">
 <metadata>
  <rdf:RDF xmlns:cc="http://creativecommons.org/ns#" xmlns:dc="http://purl.org/dc/elements/1.1/" xmlns:rdf="http://www.w3.org/1999/02/22-rdf-syntax-ns#">
   <cc:Work>
    <dc:type rdf:resource="http://purl.org/dc/dcmitype/StillImage"/>
    <dc:date>2021-02-07T23:19:53.335607</dc:date>
    <dc:format>image/svg+xml</dc:format>
    <dc:creator>
     <cc:Agent>
      <dc:title>Matplotlib v3.3.2, https://matplotlib.org/</dc:title>
     </cc:Agent>
    </dc:creator>
   </cc:Work>
  </rdf:RDF>
 </metadata>
 <defs>
  <style type="text/css">*{stroke-linecap:butt;stroke-linejoin:round;}</style>
 </defs>
 <g id="figure_1">
  <g id="patch_1">
   <path d="M 0 360 
L 720 360 
L 720 0 
L 0 0 
z
" style="fill:#ffffff;"/>
  </g>
  <g id="axes_1">
   <g id="patch_2">
    <path d="M 90 320.4 
L 648 320.4 
L 648 43.2 
L 90 43.2 
z
" style="fill:#ffffff;"/>
   </g>
   <g id="matplotlib.axis_1">
    <g id="xtick_1">
     <g id="line2d_1">
      <path clip-path="url(#pdf3679556d)" d="M 119.761955 320.4 
L 119.761955 43.2 
" style="fill:none;stroke:#808080;stroke-dasharray:6.4,1.6,1,1.6;stroke-dashoffset:0;stroke-opacity:0.3;"/>
     </g>
     <g id="line2d_2">
      <defs>
       <path d="M 0 0 
L 0 3.5 
" id="mb5c8008df8" style="stroke:#000000;stroke-width:0.8;"/>
      </defs>
      <g>
       <use style="stroke:#000000;stroke-width:0.8;" x="119.761955" xlink:href="#mb5c8008df8" y="320.4"/>
      </g>
     </g>
     <g id="text_1">
      <!-- 2020-03 -->
      <g transform="translate(98.870549 334.998438)scale(0.1 -0.1)">
       <defs>
        <path d="M 19.1875 8.296875 
L 53.609375 8.296875 
L 53.609375 0 
L 7.328125 0 
L 7.328125 8.296875 
Q 12.9375 14.109375 22.625 23.890625 
Q 32.328125 33.6875 34.8125 36.53125 
Q 39.546875 41.84375 41.421875 45.53125 
Q 43.3125 49.21875 43.3125 52.78125 
Q 43.3125 58.59375 39.234375 62.25 
Q 35.15625 65.921875 28.609375 65.921875 
Q 23.96875 65.921875 18.8125 64.3125 
Q 13.671875 62.703125 7.8125 59.421875 
L 7.8125 69.390625 
Q 13.765625 71.78125 18.9375 73 
Q 24.125 74.21875 28.421875 74.21875 
Q 39.75 74.21875 46.484375 68.546875 
Q 53.21875 62.890625 53.21875 53.421875 
Q 53.21875 48.921875 51.53125 44.890625 
Q 49.859375 40.875 45.40625 35.40625 
Q 44.1875 33.984375 37.640625 27.21875 
Q 31.109375 20.453125 19.1875 8.296875 
z
" id="DejaVuSans-50"/>
        <path d="M 31.78125 66.40625 
Q 24.171875 66.40625 20.328125 58.90625 
Q 16.5 51.421875 16.5 36.375 
Q 16.5 21.390625 20.328125 13.890625 
Q 24.171875 6.390625 31.78125 6.390625 
Q 39.453125 6.390625 43.28125 13.890625 
Q 47.125 21.390625 47.125 36.375 
Q 47.125 51.421875 43.28125 58.90625 
Q 39.453125 66.40625 31.78125 66.40625 
z
M 31.78125 74.21875 
Q 44.046875 74.21875 50.515625 64.515625 
Q 56.984375 54.828125 56.984375 36.375 
Q 56.984375 17.96875 50.515625 8.265625 
Q 44.046875 -1.421875 31.78125 -1.421875 
Q 19.53125 -1.421875 13.0625 8.265625 
Q 6.59375 17.96875 6.59375 36.375 
Q 6.59375 54.828125 13.0625 64.515625 
Q 19.53125 74.21875 31.78125 74.21875 
z
" id="DejaVuSans-48"/>
        <path d="M 4.890625 31.390625 
L 31.203125 31.390625 
L 31.203125 23.390625 
L 4.890625 23.390625 
z
" id="DejaVuSans-45"/>
        <path d="M 40.578125 39.3125 
Q 47.65625 37.796875 51.625 33 
Q 55.609375 28.21875 55.609375 21.1875 
Q 55.609375 10.40625 48.1875 4.484375 
Q 40.765625 -1.421875 27.09375 -1.421875 
Q 22.515625 -1.421875 17.65625 -0.515625 
Q 12.796875 0.390625 7.625 2.203125 
L 7.625 11.71875 
Q 11.71875 9.328125 16.59375 8.109375 
Q 21.484375 6.890625 26.8125 6.890625 
Q 36.078125 6.890625 40.9375 10.546875 
Q 45.796875 14.203125 45.796875 21.1875 
Q 45.796875 27.640625 41.28125 31.265625 
Q 36.765625 34.90625 28.71875 34.90625 
L 20.21875 34.90625 
L 20.21875 43.015625 
L 29.109375 43.015625 
Q 36.375 43.015625 40.234375 45.921875 
Q 44.09375 48.828125 44.09375 54.296875 
Q 44.09375 59.90625 40.109375 62.90625 
Q 36.140625 65.921875 28.71875 65.921875 
Q 24.65625 65.921875 20.015625 65.03125 
Q 15.375 64.15625 9.8125 62.3125 
L 9.8125 71.09375 
Q 15.4375 72.65625 20.34375 73.4375 
Q 25.25 74.21875 29.59375 74.21875 
Q 40.828125 74.21875 47.359375 69.109375 
Q 53.90625 64.015625 53.90625 55.328125 
Q 53.90625 49.265625 50.4375 45.09375 
Q 46.96875 40.921875 40.578125 39.3125 
z
" id="DejaVuSans-51"/>
       </defs>
       <use xlink:href="#DejaVuSans-50"/>
       <use x="63.623047" xlink:href="#DejaVuSans-48"/>
       <use x="127.246094" xlink:href="#DejaVuSans-50"/>
       <use x="190.869141" xlink:href="#DejaVuSans-48"/>
       <use x="254.492188" xlink:href="#DejaVuSans-45"/>
       <use x="290.576172" xlink:href="#DejaVuSans-48"/>
       <use x="354.199219" xlink:href="#DejaVuSans-51"/>
      </g>
     </g>
    </g>
    <g id="xtick_2">
     <g id="line2d_3">
      <path clip-path="url(#pdf3679556d)" d="M 209.19443 320.4 
L 209.19443 43.2 
" style="fill:none;stroke:#808080;stroke-dasharray:6.4,1.6,1,1.6;stroke-dashoffset:0;stroke-opacity:0.3;"/>
     </g>
     <g id="line2d_4">
      <g>
       <use style="stroke:#000000;stroke-width:0.8;" x="209.19443" xlink:href="#mb5c8008df8" y="320.4"/>
      </g>
     </g>
     <g id="text_2">
      <!-- 2020-05 -->
      <g transform="translate(188.303024 334.998438)scale(0.1 -0.1)">
       <defs>
        <path d="M 10.796875 72.90625 
L 49.515625 72.90625 
L 49.515625 64.59375 
L 19.828125 64.59375 
L 19.828125 46.734375 
Q 21.96875 47.46875 24.109375 47.828125 
Q 26.265625 48.1875 28.421875 48.1875 
Q 40.625 48.1875 47.75 41.5 
Q 54.890625 34.8125 54.890625 23.390625 
Q 54.890625 11.625 47.5625 5.09375 
Q 40.234375 -1.421875 26.90625 -1.421875 
Q 22.3125 -1.421875 17.546875 -0.640625 
Q 12.796875 0.140625 7.71875 1.703125 
L 7.71875 11.625 
Q 12.109375 9.234375 16.796875 8.0625 
Q 21.484375 6.890625 26.703125 6.890625 
Q 35.15625 6.890625 40.078125 11.328125 
Q 45.015625 15.765625 45.015625 23.390625 
Q 45.015625 31 40.078125 35.4375 
Q 35.15625 39.890625 26.703125 39.890625 
Q 22.75 39.890625 18.8125 39.015625 
Q 14.890625 38.140625 10.796875 36.28125 
z
" id="DejaVuSans-53"/>
       </defs>
       <use xlink:href="#DejaVuSans-50"/>
       <use x="63.623047" xlink:href="#DejaVuSans-48"/>
       <use x="127.246094" xlink:href="#DejaVuSans-50"/>
       <use x="190.869141" xlink:href="#DejaVuSans-48"/>
       <use x="254.492188" xlink:href="#DejaVuSans-45"/>
       <use x="290.576172" xlink:href="#DejaVuSans-48"/>
       <use x="354.199219" xlink:href="#DejaVuSans-53"/>
      </g>
     </g>
    </g>
    <g id="xtick_3">
     <g id="line2d_5">
      <path clip-path="url(#pdf3679556d)" d="M 298.626905 320.4 
L 298.626905 43.2 
" style="fill:none;stroke:#808080;stroke-dasharray:6.4,1.6,1,1.6;stroke-dashoffset:0;stroke-opacity:0.3;"/>
     </g>
     <g id="line2d_6">
      <g>
       <use style="stroke:#000000;stroke-width:0.8;" x="298.626905" xlink:href="#mb5c8008df8" y="320.4"/>
      </g>
     </g>
     <g id="text_3">
      <!-- 2020-07 -->
      <g transform="translate(277.735499 334.998438)scale(0.1 -0.1)">
       <defs>
        <path d="M 8.203125 72.90625 
L 55.078125 72.90625 
L 55.078125 68.703125 
L 28.609375 0 
L 18.3125 0 
L 43.21875 64.59375 
L 8.203125 64.59375 
z
" id="DejaVuSans-55"/>
       </defs>
       <use xlink:href="#DejaVuSans-50"/>
       <use x="63.623047" xlink:href="#DejaVuSans-48"/>
       <use x="127.246094" xlink:href="#DejaVuSans-50"/>
       <use x="190.869141" xlink:href="#DejaVuSans-48"/>
       <use x="254.492188" xlink:href="#DejaVuSans-45"/>
       <use x="290.576172" xlink:href="#DejaVuSans-48"/>
       <use x="354.199219" xlink:href="#DejaVuSans-55"/>
      </g>
     </g>
    </g>
    <g id="xtick_4">
     <g id="line2d_7">
      <path clip-path="url(#pdf3679556d)" d="M 389.525486 320.4 
L 389.525486 43.2 
" style="fill:none;stroke:#808080;stroke-dasharray:6.4,1.6,1,1.6;stroke-dashoffset:0;stroke-opacity:0.3;"/>
     </g>
     <g id="line2d_8">
      <g>
       <use style="stroke:#000000;stroke-width:0.8;" x="389.525486" xlink:href="#mb5c8008df8" y="320.4"/>
      </g>
     </g>
     <g id="text_4">
      <!-- 2020-09 -->
      <g transform="translate(368.63408 334.998438)scale(0.1 -0.1)">
       <defs>
        <path d="M 10.984375 1.515625 
L 10.984375 10.5 
Q 14.703125 8.734375 18.5 7.8125 
Q 22.3125 6.890625 25.984375 6.890625 
Q 35.75 6.890625 40.890625 13.453125 
Q 46.046875 20.015625 46.78125 33.40625 
Q 43.953125 29.203125 39.59375 26.953125 
Q 35.25 24.703125 29.984375 24.703125 
Q 19.046875 24.703125 12.671875 31.3125 
Q 6.296875 37.9375 6.296875 49.421875 
Q 6.296875 60.640625 12.9375 67.421875 
Q 19.578125 74.21875 30.609375 74.21875 
Q 43.265625 74.21875 49.921875 64.515625 
Q 56.59375 54.828125 56.59375 36.375 
Q 56.59375 19.140625 48.40625 8.859375 
Q 40.234375 -1.421875 26.421875 -1.421875 
Q 22.703125 -1.421875 18.890625 -0.6875 
Q 15.09375 0.046875 10.984375 1.515625 
z
M 30.609375 32.421875 
Q 37.25 32.421875 41.125 36.953125 
Q 45.015625 41.5 45.015625 49.421875 
Q 45.015625 57.28125 41.125 61.84375 
Q 37.25 66.40625 30.609375 66.40625 
Q 23.96875 66.40625 20.09375 61.84375 
Q 16.21875 57.28125 16.21875 49.421875 
Q 16.21875 41.5 20.09375 36.953125 
Q 23.96875 32.421875 30.609375 32.421875 
z
" id="DejaVuSans-57"/>
       </defs>
       <use xlink:href="#DejaVuSans-50"/>
       <use x="63.623047" xlink:href="#DejaVuSans-48"/>
       <use x="127.246094" xlink:href="#DejaVuSans-50"/>
       <use x="190.869141" xlink:href="#DejaVuSans-48"/>
       <use x="254.492188" xlink:href="#DejaVuSans-45"/>
       <use x="290.576172" xlink:href="#DejaVuSans-48"/>
       <use x="354.199219" xlink:href="#DejaVuSans-57"/>
      </g>
     </g>
    </g>
    <g id="xtick_5">
     <g id="line2d_9">
      <path clip-path="url(#pdf3679556d)" d="M 478.957961 320.4 
L 478.957961 43.2 
" style="fill:none;stroke:#808080;stroke-dasharray:6.4,1.6,1,1.6;stroke-dashoffset:0;stroke-opacity:0.3;"/>
     </g>
     <g id="line2d_10">
      <g>
       <use style="stroke:#000000;stroke-width:0.8;" x="478.957961" xlink:href="#mb5c8008df8" y="320.4"/>
      </g>
     </g>
     <g id="text_5">
      <!-- 2020-11 -->
      <g transform="translate(458.066555 334.998438)scale(0.1 -0.1)">
       <defs>
        <path d="M 12.40625 8.296875 
L 28.515625 8.296875 
L 28.515625 63.921875 
L 10.984375 60.40625 
L 10.984375 69.390625 
L 28.421875 72.90625 
L 38.28125 72.90625 
L 38.28125 8.296875 
L 54.390625 8.296875 
L 54.390625 0 
L 12.40625 0 
z
" id="DejaVuSans-49"/>
       </defs>
       <use xlink:href="#DejaVuSans-50"/>
       <use x="63.623047" xlink:href="#DejaVuSans-48"/>
       <use x="127.246094" xlink:href="#DejaVuSans-50"/>
       <use x="190.869141" xlink:href="#DejaVuSans-48"/>
       <use x="254.492188" xlink:href="#DejaVuSans-45"/>
       <use x="290.576172" xlink:href="#DejaVuSans-49"/>
       <use x="354.199219" xlink:href="#DejaVuSans-49"/>
      </g>
     </g>
    </g>
    <g id="xtick_6">
     <g id="line2d_11">
      <path clip-path="url(#pdf3679556d)" d="M 568.390436 320.4 
L 568.390436 43.2 
" style="fill:none;stroke:#808080;stroke-dasharray:6.4,1.6,1,1.6;stroke-dashoffset:0;stroke-opacity:0.3;"/>
     </g>
     <g id="line2d_12">
      <g>
       <use style="stroke:#000000;stroke-width:0.8;" x="568.390436" xlink:href="#mb5c8008df8" y="320.4"/>
      </g>
     </g>
     <g id="text_6">
      <!-- 2021-01 -->
      <g transform="translate(547.49903 334.998438)scale(0.1 -0.1)">
       <use xlink:href="#DejaVuSans-50"/>
       <use x="63.623047" xlink:href="#DejaVuSans-48"/>
       <use x="127.246094" xlink:href="#DejaVuSans-50"/>
       <use x="190.869141" xlink:href="#DejaVuSans-49"/>
       <use x="254.492188" xlink:href="#DejaVuSans-45"/>
       <use x="290.576172" xlink:href="#DejaVuSans-48"/>
       <use x="354.199219" xlink:href="#DejaVuSans-49"/>
      </g>
     </g>
    </g>
    <g id="text_7">
     <!-- Datum -->
     <g transform="translate(352.086719 348.676562)scale(0.1 -0.1)">
      <defs>
       <path d="M 19.671875 64.796875 
L 19.671875 8.109375 
L 31.59375 8.109375 
Q 46.6875 8.109375 53.6875 14.9375 
Q 60.6875 21.78125 60.6875 36.53125 
Q 60.6875 51.171875 53.6875 57.984375 
Q 46.6875 64.796875 31.59375 64.796875 
z
M 9.8125 72.90625 
L 30.078125 72.90625 
Q 51.265625 72.90625 61.171875 64.09375 
Q 71.09375 55.28125 71.09375 36.53125 
Q 71.09375 17.671875 61.125 8.828125 
Q 51.171875 0 30.078125 0 
L 9.8125 0 
z
" id="DejaVuSans-68"/>
       <path d="M 34.28125 27.484375 
Q 23.390625 27.484375 19.1875 25 
Q 14.984375 22.515625 14.984375 16.5 
Q 14.984375 11.71875 18.140625 8.90625 
Q 21.296875 6.109375 26.703125 6.109375 
Q 34.1875 6.109375 38.703125 11.40625 
Q 43.21875 16.703125 43.21875 25.484375 
L 43.21875 27.484375 
z
M 52.203125 31.203125 
L 52.203125 0 
L 43.21875 0 
L 43.21875 8.296875 
Q 40.140625 3.328125 35.546875 0.953125 
Q 30.953125 -1.421875 24.3125 -1.421875 
Q 15.921875 -1.421875 10.953125 3.296875 
Q 6 8.015625 6 15.921875 
Q 6 25.140625 12.171875 29.828125 
Q 18.359375 34.515625 30.609375 34.515625 
L 43.21875 34.515625 
L 43.21875 35.40625 
Q 43.21875 41.609375 39.140625 45 
Q 35.0625 48.390625 27.6875 48.390625 
Q 23 48.390625 18.546875 47.265625 
Q 14.109375 46.140625 10.015625 43.890625 
L 10.015625 52.203125 
Q 14.9375 54.109375 19.578125 55.046875 
Q 24.21875 56 28.609375 56 
Q 40.484375 56 46.34375 49.84375 
Q 52.203125 43.703125 52.203125 31.203125 
z
" id="DejaVuSans-97"/>
       <path d="M 18.3125 70.21875 
L 18.3125 54.6875 
L 36.8125 54.6875 
L 36.8125 47.703125 
L 18.3125 47.703125 
L 18.3125 18.015625 
Q 18.3125 11.328125 20.140625 9.421875 
Q 21.96875 7.515625 27.59375 7.515625 
L 36.8125 7.515625 
L 36.8125 0 
L 27.59375 0 
Q 17.1875 0 13.234375 3.875 
Q 9.28125 7.765625 9.28125 18.015625 
L 9.28125 47.703125 
L 2.6875 47.703125 
L 2.6875 54.6875 
L 9.28125 54.6875 
L 9.28125 70.21875 
z
" id="DejaVuSans-116"/>
       <path d="M 8.5 21.578125 
L 8.5 54.6875 
L 17.484375 54.6875 
L 17.484375 21.921875 
Q 17.484375 14.15625 20.5 10.265625 
Q 23.53125 6.390625 29.59375 6.390625 
Q 36.859375 6.390625 41.078125 11.03125 
Q 45.3125 15.671875 45.3125 23.6875 
L 45.3125 54.6875 
L 54.296875 54.6875 
L 54.296875 0 
L 45.3125 0 
L 45.3125 8.40625 
Q 42.046875 3.421875 37.71875 1 
Q 33.40625 -1.421875 27.6875 -1.421875 
Q 18.265625 -1.421875 13.375 4.4375 
Q 8.5 10.296875 8.5 21.578125 
z
M 31.109375 56 
z
" id="DejaVuSans-117"/>
       <path d="M 52 44.1875 
Q 55.375 50.25 60.0625 53.125 
Q 64.75 56 71.09375 56 
Q 79.640625 56 84.28125 50.015625 
Q 88.921875 44.046875 88.921875 33.015625 
L 88.921875 0 
L 79.890625 0 
L 79.890625 32.71875 
Q 79.890625 40.578125 77.09375 44.375 
Q 74.3125 48.1875 68.609375 48.1875 
Q 61.625 48.1875 57.5625 43.546875 
Q 53.515625 38.921875 53.515625 30.90625 
L 53.515625 0 
L 44.484375 0 
L 44.484375 32.71875 
Q 44.484375 40.625 41.703125 44.40625 
Q 38.921875 48.1875 33.109375 48.1875 
Q 26.21875 48.1875 22.15625 43.53125 
Q 18.109375 38.875 18.109375 30.90625 
L 18.109375 0 
L 9.078125 0 
L 9.078125 54.6875 
L 18.109375 54.6875 
L 18.109375 46.1875 
Q 21.1875 51.21875 25.484375 53.609375 
Q 29.78125 56 35.6875 56 
Q 41.65625 56 45.828125 52.96875 
Q 50 49.953125 52 44.1875 
z
" id="DejaVuSans-109"/>
      </defs>
      <use xlink:href="#DejaVuSans-68"/>
      <use x="77.001953" xlink:href="#DejaVuSans-97"/>
      <use x="138.28125" xlink:href="#DejaVuSans-116"/>
      <use x="177.490234" xlink:href="#DejaVuSans-117"/>
      <use x="240.869141" xlink:href="#DejaVuSans-109"/>
     </g>
    </g>
   </g>
   <g id="matplotlib.axis_2">
    <g id="ytick_1">
     <g id="line2d_13">
      <path clip-path="url(#pdf3679556d)" d="M 90 309.150689 
L 648 309.150689 
" style="fill:none;stroke:#808080;stroke-dasharray:6.4,1.6,1,1.6;stroke-dashoffset:0;stroke-opacity:0.3;"/>
     </g>
     <g id="line2d_14">
      <defs>
       <path d="M 0 0 
L -3.5 0 
" id="mce17c4ee1c" style="stroke:#000000;stroke-width:0.8;"/>
      </defs>
      <g>
       <use style="stroke:#000000;stroke-width:0.8;" x="90" xlink:href="#mce17c4ee1c" y="309.150689"/>
      </g>
     </g>
     <g id="text_8">
      <!-- 0 -->
      <g transform="translate(76.6375 312.949908)scale(0.1 -0.1)">
       <use xlink:href="#DejaVuSans-48"/>
      </g>
     </g>
    </g>
    <g id="ytick_2">
     <g id="line2d_15">
      <path clip-path="url(#pdf3679556d)" d="M 90 260.911792 
L 648 260.911792 
" style="fill:none;stroke:#808080;stroke-dasharray:6.4,1.6,1,1.6;stroke-dashoffset:0;stroke-opacity:0.3;"/>
     </g>
     <g id="line2d_16">
      <g>
       <use style="stroke:#000000;stroke-width:0.8;" x="90" xlink:href="#mce17c4ee1c" y="260.911792"/>
      </g>
     </g>
     <g id="text_9">
      <!-- 500 -->
      <g transform="translate(63.9125 264.71101)scale(0.1 -0.1)">
       <use xlink:href="#DejaVuSans-53"/>
       <use x="63.623047" xlink:href="#DejaVuSans-48"/>
       <use x="127.246094" xlink:href="#DejaVuSans-48"/>
      </g>
     </g>
    </g>
    <g id="ytick_3">
     <g id="line2d_17">
      <path clip-path="url(#pdf3679556d)" d="M 90 212.672894 
L 648 212.672894 
" style="fill:none;stroke:#808080;stroke-dasharray:6.4,1.6,1,1.6;stroke-dashoffset:0;stroke-opacity:0.3;"/>
     </g>
     <g id="line2d_18">
      <g>
       <use style="stroke:#000000;stroke-width:0.8;" x="90" xlink:href="#mce17c4ee1c" y="212.672894"/>
      </g>
     </g>
     <g id="text_10">
      <!-- 1000 -->
      <g transform="translate(57.55 216.472113)scale(0.1 -0.1)">
       <use xlink:href="#DejaVuSans-49"/>
       <use x="63.623047" xlink:href="#DejaVuSans-48"/>
       <use x="127.246094" xlink:href="#DejaVuSans-48"/>
       <use x="190.869141" xlink:href="#DejaVuSans-48"/>
      </g>
     </g>
    </g>
    <g id="ytick_4">
     <g id="line2d_19">
      <path clip-path="url(#pdf3679556d)" d="M 90 164.433997 
L 648 164.433997 
" style="fill:none;stroke:#808080;stroke-dasharray:6.4,1.6,1,1.6;stroke-dashoffset:0;stroke-opacity:0.3;"/>
     </g>
     <g id="line2d_20">
      <g>
       <use style="stroke:#000000;stroke-width:0.8;" x="90" xlink:href="#mce17c4ee1c" y="164.433997"/>
      </g>
     </g>
     <g id="text_11">
      <!-- 1500 -->
      <g transform="translate(57.55 168.233216)scale(0.1 -0.1)">
       <use xlink:href="#DejaVuSans-49"/>
       <use x="63.623047" xlink:href="#DejaVuSans-53"/>
       <use x="127.246094" xlink:href="#DejaVuSans-48"/>
       <use x="190.869141" xlink:href="#DejaVuSans-48"/>
      </g>
     </g>
    </g>
    <g id="ytick_5">
     <g id="line2d_21">
      <path clip-path="url(#pdf3679556d)" d="M 90 116.1951 
L 648 116.1951 
" style="fill:none;stroke:#808080;stroke-dasharray:6.4,1.6,1,1.6;stroke-dashoffset:0;stroke-opacity:0.3;"/>
     </g>
     <g id="line2d_22">
      <g>
       <use style="stroke:#000000;stroke-width:0.8;" x="90" xlink:href="#mce17c4ee1c" y="116.1951"/>
      </g>
     </g>
     <g id="text_12">
      <!-- 2000 -->
      <g transform="translate(57.55 119.994318)scale(0.1 -0.1)">
       <use xlink:href="#DejaVuSans-50"/>
       <use x="63.623047" xlink:href="#DejaVuSans-48"/>
       <use x="127.246094" xlink:href="#DejaVuSans-48"/>
       <use x="190.869141" xlink:href="#DejaVuSans-48"/>
      </g>
     </g>
    </g>
    <g id="ytick_6">
     <g id="line2d_23">
      <path clip-path="url(#pdf3679556d)" d="M 90 67.956202 
L 648 67.956202 
" style="fill:none;stroke:#808080;stroke-dasharray:6.4,1.6,1,1.6;stroke-dashoffset:0;stroke-opacity:0.3;"/>
     </g>
     <g id="line2d_24">
      <g>
       <use style="stroke:#000000;stroke-width:0.8;" x="90" xlink:href="#mce17c4ee1c" y="67.956202"/>
      </g>
     </g>
     <g id="text_13">
      <!-- 2500 -->
      <g transform="translate(57.55 71.755421)scale(0.1 -0.1)">
       <use xlink:href="#DejaVuSans-50"/>
       <use x="63.623047" xlink:href="#DejaVuSans-53"/>
       <use x="127.246094" xlink:href="#DejaVuSans-48"/>
       <use x="190.869141" xlink:href="#DejaVuSans-48"/>
      </g>
     </g>
    </g>
   </g>
   <g id="line2d_25">
    <path clip-path="url(#pdf3679556d)" d="M 115.363636 303.072588 
L 116.829743 302.783155 
L 118.295849 302.783155 
L 119.761955 302.011332 
L 121.228061 300.950077 
L 122.694167 300.274732 
L 124.160273 299.116998 
L 125.626379 298.152221 
L 127.092486 296.705054 
L 128.558592 295.836753 
L 130.024698 294.100153 
L 132.95691 289.469219 
L 134.423016 285.996018 
L 135.889122 281.750995 
L 137.355229 275.479939 
L 138.821335 271.524349 
L 140.287441 266.796937 
L 141.753547 254.061868 
L 143.219653 245.861256 
L 144.685759 233.898009 
L 146.151865 214.313017 
L 147.617972 197.718836 
L 149.084078 189.518224 
L 150.550184 179.291577 
L 152.01629 148.515161 
L 153.482396 124.106279 
L 154.948502 103.556508 
L 156.414609 84.743338 
L 157.880715 59.466156 
L 159.346821 65.544257 
L 160.812927 69.982236 
L 162.279033 55.8 
L 163.745139 62.553446 
L 165.211245 71.911792 
L 166.677352 73.937825 
L 168.143458 73.455436 
L 169.609564 93.42634 
L 171.07567 98.153752 
L 172.541776 86.962328 
L 175.473988 113.493721 
L 176.940095 130.280858 
L 178.406201 138.674426 
L 179.872307 156.812251 
L 181.338413 162.311485 
L 182.804519 162.793874 
L 184.270625 161.443185 
L 185.736731 169.933231 
L 187.202838 180.738744 
L 188.668944 184.887289 
L 190.13505 198.87657 
L 191.601156 201.192037 
L 193.067262 197.236447 
L 194.533368 201.770904 
L 195.999475 209.682083 
L 197.465581 213.637672 
L 198.931687 218.847473 
L 200.397793 230.907198 
L 201.863899 233.705054 
L 203.330005 235.055743 
L 204.796111 233.41562 
L 206.262218 239.300766 
L 207.728324 241.809188 
L 209.19443 246.922511 
L 210.660536 254.833691 
L 212.126642 256.377335 
L 213.592748 251.746401 
L 215.058854 258.403369 
L 216.524961 257.05268 
L 217.991067 259.368147 
L 219.457173 259.561103 
L 220.923279 264.288515 
L 222.389385 265.832159 
L 223.855491 262.841348 
L 225.321597 265.832159 
L 226.787704 268.147626 
L 228.25381 271.427871 
L 229.719916 273.357427 
L 231.186022 277.795406 
L 232.652128 276.444717 
L 234.118234 273.260949 
L 235.584341 275.479939 
L 237.050447 276.73415 
L 238.516553 280.207351 
L 239.982659 277.216539 
L 241.448765 280.882695 
L 242.914871 281.654518 
L 244.380977 278.277795 
L 245.847084 278.953139 
L 247.31319 281.943951 
L 248.779296 283.777029 
L 250.245402 283.487596 
L 251.711508 285.127718 
L 253.177614 285.610107 
L 254.64372 285.224196 
L 256.109827 283.101685 
L 257.575933 283.969985 
L 259.042039 285.320674 
L 260.508145 286.960796 
L 261.974251 290.337519 
L 264.906463 290.433997 
L 266.37257 292.363553 
L 267.838676 293.907198 
L 269.304782 293.424809 
L 270.770888 294.293109 
L 272.236994 296.126187 
L 273.7031 296.222665 
L 275.169207 295.933231 
L 276.635313 295.933231 
L 278.101419 296.705054 
L 279.567525 296.608576 
L 281.033631 296.994487 
L 282.499737 298.827565 
L 283.965843 298.731087 
L 285.43195 298.441654 
L 286.898056 298.345176 
L 288.364162 298.441654 
L 289.830268 297.669832 
L 291.296374 298.055743 
L 292.76248 300.081776 
L 294.228586 299.985299 
L 295.694693 299.116998 
L 297.160799 300.467688 
L 298.626905 300.660643 
L 300.093011 301.335988 
L 301.559117 301.335988 
L 303.025223 302.204288 
L 307.423542 301.143032 
L 308.889648 301.335988 
L 310.355754 301.335988 
L 311.82186 300.37121 
L 313.287966 301.143032 
L 314.754073 301.143032 
L 316.220179 300.564165 
L 317.686285 300.467688 
L 319.152391 301.143032 
L 320.618497 301.528943 
L 322.084603 301.721899 
L 323.550709 301.046554 
L 326.482922 300.37121 
L 327.949028 300.274732 
L 329.415134 301.335988 
L 330.88124 300.853599 
L 332.347346 301.046554 
L 335.279559 300.564165 
L 336.745665 299.792343 
L 338.211771 299.50291 
L 339.677877 300.37121 
L 342.610089 299.599387 
L 344.076195 299.406432 
L 345.542302 298.634609 
L 347.008408 297.669832 
L 348.474514 298.345176 
L 349.94062 298.731087 
L 351.406726 298.731087 
L 354.338939 297.669832 
L 355.805045 296.512098 
L 357.271151 295.54732 
L 358.737257 293.617764 
L 360.203363 293.038897 
L 363.135575 293.521286 
L 364.601682 293.907198 
L 366.067788 293.135375 
L 367.533894 291.59173 
L 369 292.267075 
L 370.466106 292.074119 
L 371.932212 290.819908 
L 373.398318 291.398775 
L 374.864425 293.328331 
L 376.330531 293.135375 
L 377.796637 292.749464 
L 379.262743 292.074119 
L 380.728849 293.038897 
L 382.194955 294.582542 
L 383.661061 294.389587 
L 385.127168 296.029709 
L 386.593274 295.933231 
L 388.05938 294.775498 
L 389.525486 294.871975 
L 390.991592 294.196631 
L 392.457698 294.871975 
L 393.923805 294.100153 
L 395.389911 294.100153 
L 396.856017 292.267075 
L 398.322123 290.241041 
L 399.788229 288.98683 
L 401.254335 287.057274 
L 402.720441 287.539663 
L 404.186548 285.706585 
L 405.652654 285.899541 
L 407.11876 284.645329 
L 408.584866 280.786217 
L 410.050972 279.82144 
L 411.517078 277.313017 
L 412.983184 275.576417 
L 414.449291 272.006738 
L 417.381503 268.244104 
L 418.847609 263.227259 
L 420.313715 260.429403 
L 421.779821 256.859724 
L 423.245927 252.035835 
L 424.712034 249.237979 
L 426.17814 249.527412 
L 427.644246 246.247167 
L 429.110352 241.133844 
L 430.576458 237.564165 
L 432.042564 235.924043 
L 433.508671 233.319142 
L 434.974777 231.100153 
L 436.440883 229.170597 
L 437.906989 225.11853 
L 439.373095 215.181317 
L 440.839201 210.743338 
L 442.305307 208.717305 
L 443.771414 206.498315 
L 445.23752 199.166003 
L 446.703626 201.095559 
L 448.169732 195.596325 
L 449.635838 181.414089 
L 451.101944 171.862787 
L 452.56805 172.248698 
L 454.034157 169.354364 
L 455.500263 163.951608 
L 456.966369 165.302297 
L 458.432475 162.311485 
L 459.898581 147.260949 
L 461.364687 141.472282 
L 462.830793 138.48147 
L 464.2969 132.113936 
L 465.763006 124.49219 
L 467.229112 131.342113 
L 468.695218 124.49219 
L 470.161324 109.248698 
L 471.62743 108.573354 
L 473.093537 109.827565 
L 474.559643 112.528943 
L 476.025749 110.309954 
L 477.491855 117.545789 
L 478.957961 115.616233 
L 480.424067 95.16294 
L 481.890173 100.372741 
L 483.35628 106.354364 
L 486.288492 120.922511 
L 487.754598 135.104747 
L 489.220704 136.74487 
L 490.68681 123.334456 
L 492.152916 129.123124 
L 493.619023 133.175191 
L 495.085129 137.709648 
L 496.551235 139.446248 
L 498.017341 152.084839 
L 499.483447 152.663706 
L 500.949553 138.384992 
L 502.415659 141.182848 
L 503.881766 146.585605 
L 505.347872 152.760184 
L 506.813978 161.057274 
L 508.280084 170.222665 
L 509.74619 166.94242 
L 511.212296 154.593262 
L 512.678403 159.127718 
L 514.144509 165.977642 
L 515.610615 165.109342 
L 517.076721 166.074119 
L 518.542827 175.432466 
L 520.008933 174.853599 
L 521.475039 166.556508 
L 522.941146 170.898009 
L 524.407252 174.081776 
L 525.873358 173.50291 
L 527.339464 170.41562 
L 528.80557 174.950077 
L 530.271676 171.090965 
L 531.737782 160.478407 
L 533.203889 162.311485 
L 534.669995 163.951608 
L 536.136101 164.048086 
L 537.602207 156.812251 
L 539.068313 159.224196 
L 540.534419 153.917917 
L 542.000525 137.323737 
L 543.466632 137.709648 
L 544.932738 135.00827 
L 547.86495 125.746401 
L 549.331056 134.718836 
L 550.797162 133.464625 
L 552.263269 115.423277 
L 553.729375 113.300766 
L 556.661587 107.801531 
L 558.127693 117.0634 
L 559.593799 112.625421 
L 561.059905 103.749464 
L 562.526012 76.446248 
L 563.992118 77.989893 
L 565.458224 82.620827 
L 566.92433 90.146095 
L 568.390436 105.389587 
L 569.856542 100.372741 
L 571.322648 97.285452 
L 572.788755 85.804594 
L 574.254861 88.505972 
L 578.653179 103.170597 
L 580.119285 118.510567 
L 581.585391 118.028178 
L 583.051498 104.81072 
L 584.517604 110.406432 
L 587.449816 120.343645 
L 588.915922 122.176723 
L 590.382028 133.271669 
L 591.848135 137.61317 
L 593.314241 125.746401 
L 594.780347 126.325268 
L 596.246453 132.982236 
L 597.712559 132.982236 
L 599.178665 133.175191 
L 600.644771 139.735681 
L 602.110878 138.867381 
L 603.576984 130.087902 
L 605.04309 134.043492 
L 606.509196 139.34977 
L 607.975302 141.182848 
L 609.441408 139.34977 
L 610.907514 146.296172 
L 612.373621 142.919449 
L 613.839727 132.78928 
L 615.305833 135.87657 
L 616.771939 141.56876 
L 618.238045 143.884227 
L 619.704151 144.17366 
L 621.170257 153.532006 
L 622.636364 160.188974 
L 622.636364 160.188974 
" style="fill:none;stroke:#ff0000;stroke-linecap:square;stroke-width:1.5;"/>
   </g>
   <g id="line2d_26">
    <path clip-path="url(#pdf3679556d)" d="M 254.64372 256.859724 
L 256.109827 259.368147 
L 257.575933 261.297703 
L 259.042039 262.74487 
L 261.974251 265.156815 
L 263.440357 266.411026 
L 264.906463 270.559571 
L 266.37257 275.769372 
L 267.838676 277.023583 
L 269.304782 280.496784 
L 270.770888 282.233384 
L 272.236994 281.268606 
L 273.7031 282.42634 
L 275.169207 282.040429 
L 276.635313 282.136907 
L 278.101419 281.268606 
L 281.033631 286.478407 
L 282.499737 287.925574 
L 283.965843 287.829096 
L 285.43195 290.433997 
L 286.898056 288.793874 
L 288.364162 290.144564 
L 289.830268 291.977642 
L 291.296374 290.819908 
L 292.76248 291.784686 
L 294.228586 291.977642 
L 295.694693 294.003675 
L 297.160799 293.714242 
L 298.626905 294.67902 
L 300.093011 297.090965 
L 301.559117 299.213476 
L 303.025223 301.914855 
L 304.491329 300.757121 
L 305.957436 301.335988 
L 307.423542 301.528943 
L 310.355754 302.397243 
L 311.82186 302.493721 
L 313.287966 301.721899 
L 314.754073 301.143032 
L 316.220179 300.081776 
L 317.686285 300.081776 
L 319.152391 300.950077 
L 320.618497 301.432466 
L 322.084603 302.10781 
L 323.550709 301.625421 
L 325.016816 302.10781 
L 327.949028 300.467688 
L 329.415134 300.950077 
L 330.88124 300.37121 
L 332.347346 302.011332 
L 333.813452 300.37121 
L 335.279559 302.686677 
L 336.745665 302.397243 
L 338.211771 301.721899 
L 339.677877 303.072588 
L 341.143983 302.783155 
L 342.610089 302.10781 
L 344.076195 302.686677 
L 345.542302 302.397243 
L 347.008408 301.23951 
L 348.474514 301.143032 
L 349.94062 300.660643 
L 351.406726 301.528943 
L 352.872832 301.625421 
L 354.338939 301.528943 
L 355.805045 300.757121 
L 357.271151 299.599387 
L 358.737257 299.792343 
L 360.203363 297.862787 
L 361.669469 296.898009 
L 363.135575 297.573354 
L 364.601682 297.187443 
L 366.067788 297.380398 
L 369 296.705054 
L 370.466106 297.090965 
L 371.932212 295.836753 
L 373.398318 296.319142 
L 376.330531 296.705054 
L 377.796637 297.476876 
L 380.728849 297.573354 
L 382.194955 298.827565 
L 383.661061 299.50291 
L 385.127168 299.888821 
L 386.593274 300.081776 
L 389.525486 300.178254 
L 390.991592 300.467688 
L 392.457698 299.985299 
L 393.923805 299.985299 
L 395.389911 299.599387 
L 396.856017 299.020521 
L 398.322123 298.634609 
L 404.186548 296.029709 
L 405.652654 295.836753 
L 407.11876 294.871975 
L 408.584866 293.135375 
L 410.050972 291.109342 
L 411.517078 290.72343 
L 412.983184 288.697397 
L 414.449291 286.960796 
L 415.915397 284.066462 
L 417.381503 282.522818 
L 418.847609 277.795406 
L 420.313715 277.409495 
L 421.779821 273.357427 
L 423.245927 271.04196 
L 424.712034 267.56876 
L 426.17814 267.375804 
L 427.644246 261.87657 
L 429.110352 259.175191 
L 430.576458 255.991424 
L 432.042564 255.991424 
L 433.508671 257.149158 
L 434.974777 253.868913 
L 436.440883 252.711179 
L 437.906989 246.729556 
L 440.839201 233.41562 
L 442.305307 230.907198 
L 443.771414 227.916386 
L 446.703626 217.014395 
L 448.169732 214.023583 
L 449.635838 208.234916 
L 451.101944 199.841348 
L 454.034157 192.123124 
L 455.500263 192.605513 
L 456.966369 191.833691 
L 459.898581 178.037366 
L 461.364687 170.222665 
L 462.830793 165.109342 
L 464.2969 160.574885 
L 465.763006 154.68974 
L 467.229112 153.435528 
L 468.695218 149.286983 
L 471.62743 132.692802 
L 473.093537 132.499847 
L 474.559643 132.499847 
L 476.025749 133.754058 
L 480.424067 120.247167 
L 481.890173 111.950077 
L 483.35628 120.054211 
L 484.822386 125.36049 
L 487.754598 137.227259 
L 489.220704 145.427871 
L 490.68681 143.498315 
L 492.152916 145.427871 
L 493.619023 147.936294 
L 495.085129 154.207351 
L 496.551235 157.487596 
L 498.017341 161.539663 
L 499.483447 163.565697 
L 500.949553 158.934763 
L 502.415659 157.680551 
L 503.881766 161.732619 
L 505.347872 166.845942 
L 508.280084 178.712711 
L 511.212296 170.994487 
L 512.678403 174.178254 
L 514.144509 182.764778 
L 515.610615 187.878101 
L 517.076721 188.456968 
L 518.542827 193.377335 
L 520.008933 193.956202 
L 521.475039 189.518224 
L 522.941146 192.894946 
L 524.407252 200.034303 
L 525.873358 199.455436 
L 527.339464 198.00827 
L 528.80557 200.130781 
L 530.271676 196.078714 
L 531.737782 194.342113 
L 533.203889 189.904135 
L 534.669995 192.31608 
L 536.136101 195.403369 
L 537.602207 192.509035 
L 539.068313 189.325268 
L 540.534419 186.62389 
L 542.000525 177.072588 
L 543.466632 171.187443 
L 544.932738 170.41562 
L 546.398844 167.617764 
L 547.86495 165.881164 
L 549.331056 163.951608 
L 550.797162 161.25023 
L 552.263269 157.101685 
L 553.729375 144.849005 
L 555.195481 146.489127 
L 556.661587 143.980704 
L 558.127693 144.752527 
L 559.593799 141.858193 
L 561.059905 135.780092 
L 562.526012 123.720368 
L 563.992118 108.766309 
L 565.458224 116.002144 
L 566.92433 106.161409 
L 568.390436 120.343645 
L 569.856542 115.712711 
L 571.322648 115.616233 
L 572.788755 103.652986 
L 574.254861 100.85513 
L 575.720967 103.556508 
L 577.187073 111.178254 
L 578.653179 122.369678 
L 580.119285 128.351302 
L 581.585391 130.666769 
L 583.051498 123.334456 
L 584.517604 121.501378 
L 585.98371 133.464625 
L 587.449816 134.139969 
L 588.915922 137.034303 
L 590.382028 145.717305 
L 591.848135 144.366616 
L 593.314241 140.893415 
L 594.780347 138.674426 
L 596.246453 144.270138 
L 597.712559 148.322205 
L 599.178665 146.682083 
L 600.644771 151.60245 
L 602.110878 148.322205 
L 603.576984 143.208882 
L 605.04309 144.656049 
L 607.975302 155.268606 
L 609.441408 157.487596 
L 610.907514 154.786217 
L 612.373621 157.391118 
L 613.839727 151.795406 
L 615.305833 150.927106 
L 616.771939 154.68974 
L 618.238045 162.600919 
L 621.170257 170.608576 
L 622.636364 169.740276 
L 622.636364 169.740276 
" style="fill:none;stroke:#ffa500;stroke-linecap:square;stroke-width:1.5;"/>
   </g>
   <g id="line2d_27">
    <path clip-path="url(#pdf3679556d)" d="M 254.64372 262.069525 
L 256.109827 263.227259 
L 257.575933 259.561103 
L 259.042039 254.447779 
L 260.508145 256.763247 
L 261.974251 256.18438 
L 263.440357 260.718836 
L 264.906463 257.728025 
L 266.37257 258.885758 
L 267.838676 257.535069 
L 269.304782 256.666769 
L 270.770888 255.412557 
L 272.236994 253.965391 
L 273.7031 259.368147 
L 275.169207 258.982236 
L 276.635313 254.158346 
L 278.101419 253.000613 
L 279.567525 254.351302 
L 281.033631 252.035835 
L 282.499737 251.071057 
L 283.965843 253.868913 
L 285.43195 259.754058 
L 286.898056 253.579479 
L 288.364162 254.640735 
L 289.830268 253.290046 
L 291.296374 252.807657 
L 292.76248 253.868913 
L 294.228586 256.956202 
L 295.694693 258.306891 
L 297.160799 255.219602 
L 300.093011 252.614701 
L 301.559117 252.518224 
L 303.025223 253.772435 
L 304.491329 256.763247 
L 305.957436 257.245636 
L 307.423542 257.342113 
L 308.889648 253.579479 
L 310.355754 252.614701 
L 311.82186 254.254824 
L 313.287966 254.930168 
L 314.754073 256.570291 
L 316.220179 258.885758 
L 317.686285 256.956202 
L 319.152391 253.868913 
L 320.618497 253.386524 
L 322.084603 253.386524 
L 323.550709 252.614701 
L 325.016816 254.351302 
L 326.482922 254.447779 
L 327.949028 253.290046 
L 329.415134 251.939357 
L 330.88124 252.904135 
L 332.347346 252.035835 
L 333.813452 251.649923 
L 335.279559 254.351302 
L 336.745665 259.368147 
L 338.211771 257.245636 
L 339.677877 256.280858 
L 341.143983 254.737213 
L 342.610089 253.868913 
L 344.076195 254.351302 
L 345.542302 255.894946 
L 347.008408 257.149158 
L 348.474514 254.737213 
L 349.94062 252.807657 
L 351.406726 251.456968 
L 352.872832 254.737213 
L 354.338939 253.579479 
L 355.805045 256.570291 
L 357.271151 254.061868 
L 358.737257 252.904135 
L 360.203363 250.009801 
L 361.669469 250.106279 
L 363.135575 253.386524 
L 364.601682 252.904135 
L 366.067788 253.386524 
L 367.533894 254.640735 
L 369 250.878101 
L 370.466106 249.527412 
L 371.932212 251.842879 
L 373.398318 250.974579 
L 374.864425 252.132312 
L 376.330531 254.640735 
L 377.796637 255.894946 
L 379.262743 251.167534 
L 380.728849 249.141501 
L 382.194955 250.009801 
L 383.661061 250.588668 
L 385.127168 253.483002 
L 386.593274 255.31608 
L 388.05938 256.087902 
L 389.525486 252.325268 
L 390.991592 249.62389 
L 392.457698 252.035835 
L 393.923805 250.878101 
L 395.389911 251.553446 
L 396.856017 253.579479 
L 398.322123 255.894946 
L 399.788229 248.176723 
L 401.254335 249.720368 
L 402.720441 250.685145 
L 404.186548 250.395712 
L 405.652654 251.649923 
L 407.11876 253.965391 
L 408.584866 254.930168 
L 410.050972 249.237979 
L 411.517078 246.826034 
L 412.983184 247.790812 
L 414.449291 249.816845 
L 415.915397 252.421746 
L 417.381503 255.31608 
L 418.847609 257.535069 
L 420.313715 248.659112 
L 421.779821 247.887289 
L 423.245927 247.790812 
L 424.712034 252.421746 
L 426.17814 251.264012 
L 427.644246 255.219602 
L 429.110352 258.113936 
L 430.576458 252.518224 
L 433.508671 250.202757 
L 434.974777 251.842879 
L 436.440883 254.061868 
L 437.906989 257.438591 
L 439.373095 259.368147 
L 440.839201 253.579479 
L 442.305307 253.193568 
L 443.771414 254.833691 
L 445.23752 254.737213 
L 446.703626 258.982236 
L 448.169732 261.973047 
L 449.635838 261.490658 
L 451.101944 256.859724 
L 452.56805 258.306891 
L 454.034157 260.622358 
L 455.500263 258.596325 
L 458.432475 264.770904 
L 459.898581 266.21807 
L 461.364687 262.841348 
L 462.830793 265.156815 
L 464.2969 264.770904 
L 465.763006 263.227259 
L 467.229112 267.56876 
L 468.695218 268.726493 
L 470.161324 267.56876 
L 471.62743 265.156815 
L 473.093537 264.577948 
L 474.559643 263.806126 
L 476.025749 266.025115 
L 477.491855 265.542726 
L 478.957961 266.121593 
L 480.424067 269.112404 
L 481.890173 265.832159 
L 483.35628 263.323737 
L 486.288492 263.130781 
L 487.754598 264.192037 
L 489.220704 267.56876 
L 490.68681 266.314548 
L 492.152916 262.166003 
L 493.619023 262.841348 
L 495.085129 261.297703 
L 496.551235 262.358959 
L 498.017341 265.060337 
L 499.483447 266.989893 
L 500.949553 264.48147 
L 502.415659 263.516692 
L 503.881766 262.069525 
L 505.347872 260.815314 
L 506.813978 261.297703 
L 508.280084 263.323737 
L 509.74619 266.025115 
L 511.212296 265.639204 
L 512.678403 261.780092 
L 514.144509 259.464625 
L 515.610615 259.368147 
L 517.076721 259.65758 
L 518.542827 262.551914 
L 520.008933 265.735681 
L 521.475039 263.323737 
L 522.941146 260.332925 
L 525.873358 255.412557 
L 527.339464 256.087902 
L 528.80557 259.368147 
L 530.271676 260.718836 
L 531.737782 260.815314 
L 533.203889 255.798469 
L 534.669995 255.894946 
L 536.136101 257.728025 
L 537.602207 256.377335 
L 539.068313 259.947014 
L 540.534419 263.034303 
L 542.000525 258.692802 
L 543.466632 258.017458 
L 544.932738 256.666769 
L 546.398844 260.236447 
L 547.86495 261.201225 
L 549.331056 262.551914 
L 550.797162 267.56876 
L 552.263269 267.761715 
L 553.729375 263.902603 
L 555.195481 266.796937 
L 556.661587 267.086371 
L 558.127693 268.919449 
L 559.593799 273.260949 
L 561.059905 271.813783 
L 562.526012 273.453905 
L 563.992118 269.015926 
L 565.458224 268.43706 
L 566.92433 269.594793 
L 568.390436 271.620827 
L 569.856542 272.585605 
L 571.322648 274.418683 
L 572.788755 272.77856 
L 574.254861 270.945482 
L 575.720967 267.182848 
L 577.187073 268.630015 
L 578.653179 268.051149 
L 580.119285 268.630015 
L 581.585391 272.585605 
L 583.051498 272.199694 
L 584.517604 268.919449 
L 585.98371 269.015926 
L 587.449816 265.446248 
L 588.915922 265.542726 
L 590.382028 266.603982 
L 591.848135 271.234916 
L 593.314241 270.752527 
L 594.780347 266.314548 
L 596.246453 266.025115 
L 597.712559 264.770904 
L 599.178665 265.156815 
L 600.644771 264.867381 
L 602.110878 269.015926 
L 603.576984 269.015926 
L 605.04309 264.192037 
L 606.509196 261.683614 
L 607.975302 261.394181 
L 609.441408 264.963859 
L 610.907514 263.709648 
L 612.373621 265.34977 
L 613.839727 268.051149 
L 615.305833 263.709648 
L 618.238045 262.262481 
L 619.704151 261.87657 
L 621.170257 262.069525 
L 622.636364 264.577948 
L 622.636364 264.577948 
" style="fill:none;stroke:#0000ff;stroke-linecap:square;stroke-width:1.5;"/>
   </g>
   <g id="line2d_28">
    <path clip-path="url(#pdf3679556d)" d="M 254.64372 294.003675 
L 256.109827 294.389587 
L 257.575933 297.959265 
L 259.042039 298.248698 
L 260.508145 299.792343 
L 264.906463 300.178254 
L 266.37257 300.37121 
L 267.838676 301.432466 
L 270.770888 302.10781 
L 272.236994 301.721899 
L 273.7031 301.528943 
L 275.169207 300.757121 
L 276.635313 301.625421 
L 279.567525 302.686677 
L 281.033631 303.651455 
L 282.499737 303.651455 
L 283.965843 303.84441 
L 285.43195 303.458499 
L 286.898056 304.519755 
L 289.830268 304.423277 
L 291.296374 305.677489 
L 292.76248 306.352833 
L 295.694693 306.0634 
L 297.160799 306.352833 
L 298.626905 306.449311 
L 300.093011 306.738744 
L 301.559117 307.221133 
L 303.025223 307.414089 
L 304.491329 307.414089 
L 305.957436 306.9317 
L 307.423542 306.835222 
L 308.889648 307.221133 
L 310.355754 307.124655 
L 311.82186 306.738744 
L 313.287966 306.642266 
L 314.754073 306.835222 
L 316.220179 306.835222 
L 317.686285 307.124655 
L 319.152391 307.221133 
L 320.618497 307.703522 
L 323.550709 307.607044 
L 325.016816 307.510567 
L 327.949028 307.703522 
L 329.415134 307.510567 
L 330.88124 307.703522 
L 333.813452 307.414089 
L 335.279559 307.607044 
L 336.745665 307.124655 
L 341.143983 307.8 
L 342.610089 307.317611 
L 344.076195 307.028178 
L 345.542302 307.124655 
L 347.008408 306.545789 
L 348.474514 306.642266 
L 349.94062 306.256355 
L 354.338939 306.449311 
L 355.805045 306.159877 
L 357.271151 306.352833 
L 358.737257 306.256355 
L 360.203363 305.773966 
L 361.669469 306.159877 
L 363.135575 305.484533 
L 364.601682 305.388055 
L 366.067788 305.677489 
L 369 305.098622 
L 371.932212 305.388055 
L 373.398318 305.002144 
L 382.194955 305.677489 
L 383.661061 305.870444 
L 386.593274 305.966922 
L 388.05938 305.484533 
L 389.525486 305.966922 
L 390.991592 306.0634 
L 392.457698 306.449311 
L 393.923805 305.773966 
L 395.389911 305.773966 
L 399.788229 306.256355 
L 401.254335 306.159877 
L 402.720441 306.256355 
L 404.186548 305.677489 
L 405.652654 305.581011 
L 407.11876 305.677489 
L 408.584866 305.002144 
L 410.050972 304.037366 
L 411.517078 303.940888 
L 412.983184 304.423277 
L 418.847609 300.950077 
L 420.313715 300.37121 
L 421.779821 299.116998 
L 423.245927 298.924043 
L 424.712034 297.959265 
L 427.644246 296.898009 
L 429.110352 295.450842 
L 430.576458 295.450842 
L 432.042564 294.67902 
L 433.508671 294.486064 
L 434.974777 293.714242 
L 436.440883 294.100153 
L 437.906989 293.424809 
L 440.839201 290.819908 
L 442.305307 288.890352 
L 443.771414 287.153752 
L 445.23752 286.092496 
L 446.703626 286.478407 
L 448.169732 285.320674 
L 449.635838 284.838285 
L 452.56805 280.110873 
L 454.034157 278.953139 
L 455.500263 275.86585 
L 456.966369 275.190505 
L 458.432475 274.032772 
L 459.898581 272.585605 
L 461.364687 268.726493 
L 462.830793 265.735681 
L 464.2969 264.48147 
L 465.763006 263.61317 
L 467.229112 260.815314 
L 468.695218 261.87657 
L 470.161324 260.332925 
L 471.62743 258.113936 
L 473.093537 256.570291 
L 474.559643 255.798469 
L 476.025749 254.447779 
L 477.491855 252.807657 
L 478.957961 252.904135 
L 480.424067 252.518224 
L 481.890173 250.395712 
L 483.35628 250.106279 
L 486.288492 250.974579 
L 487.754598 251.071057 
L 489.220704 251.456968 
L 490.68681 251.264012 
L 492.152916 251.456968 
L 493.619023 250.685145 
L 495.085129 251.746401 
L 496.551235 250.395712 
L 498.017341 251.746401 
L 499.483447 252.711179 
L 500.949553 253.868913 
L 502.415659 253.579479 
L 503.881766 255.219602 
L 505.347872 255.605513 
L 506.813978 256.377335 
L 508.280084 256.087902 
L 509.74619 257.05268 
L 511.212296 257.438591 
L 512.678403 258.403369 
L 514.144509 258.113936 
L 517.076721 259.175191 
L 518.542827 259.850536 
L 520.008933 260.332925 
L 521.475039 262.74487 
L 524.407252 263.323737 
L 525.873358 264.963859 
L 527.339464 263.516692 
L 528.80557 263.61317 
L 530.271676 263.902603 
L 531.737782 263.806126 
L 533.203889 264.384992 
L 534.669995 263.516692 
L 536.136101 263.902603 
L 537.602207 263.61317 
L 539.068313 262.74487 
L 540.534419 261.201225 
L 542.000525 260.622358 
L 543.466632 258.596325 
L 544.932738 258.403369 
L 546.398844 257.438591 
L 547.86495 256.18438 
L 549.331056 255.123124 
L 550.797162 253.193568 
L 552.263269 252.614701 
L 553.729375 252.614701 
L 555.195481 250.49219 
L 556.661587 251.649923 
L 558.127693 251.264012 
L 561.059905 248.273201 
L 565.458224 240.458499 
L 566.92433 239.300766 
L 568.390436 241.326799 
L 569.856542 241.809188 
L 571.322648 241.230322 
L 572.788755 240.169066 
L 574.254861 238.625421 
L 575.720967 241.230322 
L 577.187073 240.458499 
L 578.653179 240.84441 
L 580.119285 241.616233 
L 581.585391 240.554977 
L 583.051498 241.423277 
L 584.517604 242.098622 
L 585.98371 241.616233 
L 587.449816 242.291577 
L 588.915922 242.581011 
L 590.382028 244.414089 
L 591.848135 243.9317 
L 593.314241 242.581011 
L 594.780347 243.256355 
L 596.246453 243.642266 
L 600.644771 244.221133 
L 602.110878 243.545789 
L 603.576984 245.089433 
L 605.04309 244.124655 
L 606.509196 246.343645 
L 607.975302 246.922511 
L 609.441408 245.571822 
L 610.907514 247.4049 
L 612.373621 246.826034 
L 613.839727 247.501378 
L 615.305833 248.466156 
L 616.771939 250.009801 
L 618.238045 251.071057 
L 619.704151 253.868913 
L 621.170257 256.377335 
L 622.636364 257.535069 
L 622.636364 257.535069 
" style="fill:none;stroke:#00ffff;stroke-linecap:square;stroke-width:1.5;"/>
   </g>
   <g id="patch_3">
    <path d="M 90 320.4 
L 90 43.2 
" style="fill:none;stroke:#000000;stroke-linecap:square;stroke-linejoin:miter;stroke-width:0.8;"/>
   </g>
   <g id="patch_4">
    <path d="M 648 320.4 
L 648 43.2 
" style="fill:none;stroke:#000000;stroke-linecap:square;stroke-linejoin:miter;stroke-width:0.8;"/>
   </g>
   <g id="patch_5">
    <path d="M 90 320.4 
L 648 320.4 
" style="fill:none;stroke:#000000;stroke-linecap:square;stroke-linejoin:miter;stroke-width:0.8;"/>
   </g>
   <g id="patch_6">
    <path d="M 90 43.2 
L 648 43.2 
" style="fill:none;stroke:#000000;stroke-linecap:square;stroke-linejoin:miter;stroke-width:0.8;"/>
   </g>
   <g id="text_14">
    <!-- Testplot -->
    <g transform="translate(345.68625 37.2)scale(0.12 -0.12)">
     <defs>
      <path d="M -0.296875 72.90625 
L 61.375 72.90625 
L 61.375 64.59375 
L 35.5 64.59375 
L 35.5 0 
L 25.59375 0 
L 25.59375 64.59375 
L -0.296875 64.59375 
z
" id="DejaVuSans-84"/>
      <path d="M 56.203125 29.59375 
L 56.203125 25.203125 
L 14.890625 25.203125 
Q 15.484375 15.921875 20.484375 11.0625 
Q 25.484375 6.203125 34.421875 6.203125 
Q 39.59375 6.203125 44.453125 7.46875 
Q 49.3125 8.734375 54.109375 11.28125 
L 54.109375 2.78125 
Q 49.265625 0.734375 44.1875 -0.34375 
Q 39.109375 -1.421875 33.890625 -1.421875 
Q 20.796875 -1.421875 13.15625 6.1875 
Q 5.515625 13.8125 5.515625 26.8125 
Q 5.515625 40.234375 12.765625 48.109375 
Q 20.015625 56 32.328125 56 
Q 43.359375 56 49.78125 48.890625 
Q 56.203125 41.796875 56.203125 29.59375 
z
M 47.21875 32.234375 
Q 47.125 39.59375 43.09375 43.984375 
Q 39.0625 48.390625 32.421875 48.390625 
Q 24.90625 48.390625 20.390625 44.140625 
Q 15.875 39.890625 15.1875 32.171875 
z
" id="DejaVuSans-101"/>
      <path d="M 44.28125 53.078125 
L 44.28125 44.578125 
Q 40.484375 46.53125 36.375 47.5 
Q 32.28125 48.484375 27.875 48.484375 
Q 21.1875 48.484375 17.84375 46.4375 
Q 14.5 44.390625 14.5 40.28125 
Q 14.5 37.15625 16.890625 35.375 
Q 19.28125 33.59375 26.515625 31.984375 
L 29.59375 31.296875 
Q 39.15625 29.25 43.1875 25.515625 
Q 47.21875 21.78125 47.21875 15.09375 
Q 47.21875 7.46875 41.1875 3.015625 
Q 35.15625 -1.421875 24.609375 -1.421875 
Q 20.21875 -1.421875 15.453125 -0.5625 
Q 10.6875 0.296875 5.421875 2 
L 5.421875 11.28125 
Q 10.40625 8.6875 15.234375 7.390625 
Q 20.0625 6.109375 24.8125 6.109375 
Q 31.15625 6.109375 34.5625 8.28125 
Q 37.984375 10.453125 37.984375 14.40625 
Q 37.984375 18.0625 35.515625 20.015625 
Q 33.0625 21.96875 24.703125 23.78125 
L 21.578125 24.515625 
Q 13.234375 26.265625 9.515625 29.90625 
Q 5.8125 33.546875 5.8125 39.890625 
Q 5.8125 47.609375 11.28125 51.796875 
Q 16.75 56 26.8125 56 
Q 31.78125 56 36.171875 55.265625 
Q 40.578125 54.546875 44.28125 53.078125 
z
" id="DejaVuSans-115"/>
      <path d="M 18.109375 8.203125 
L 18.109375 -20.796875 
L 9.078125 -20.796875 
L 9.078125 54.6875 
L 18.109375 54.6875 
L 18.109375 46.390625 
Q 20.953125 51.265625 25.265625 53.625 
Q 29.59375 56 35.59375 56 
Q 45.5625 56 51.78125 48.09375 
Q 58.015625 40.1875 58.015625 27.296875 
Q 58.015625 14.40625 51.78125 6.484375 
Q 45.5625 -1.421875 35.59375 -1.421875 
Q 29.59375 -1.421875 25.265625 0.953125 
Q 20.953125 3.328125 18.109375 8.203125 
z
M 48.6875 27.296875 
Q 48.6875 37.203125 44.609375 42.84375 
Q 40.53125 48.484375 33.40625 48.484375 
Q 26.265625 48.484375 22.1875 42.84375 
Q 18.109375 37.203125 18.109375 27.296875 
Q 18.109375 17.390625 22.1875 11.75 
Q 26.265625 6.109375 33.40625 6.109375 
Q 40.53125 6.109375 44.609375 11.75 
Q 48.6875 17.390625 48.6875 27.296875 
z
" id="DejaVuSans-112"/>
      <path d="M 9.421875 75.984375 
L 18.40625 75.984375 
L 18.40625 0 
L 9.421875 0 
z
" id="DejaVuSans-108"/>
      <path d="M 30.609375 48.390625 
Q 23.390625 48.390625 19.1875 42.75 
Q 14.984375 37.109375 14.984375 27.296875 
Q 14.984375 17.484375 19.15625 11.84375 
Q 23.34375 6.203125 30.609375 6.203125 
Q 37.796875 6.203125 41.984375 11.859375 
Q 46.1875 17.53125 46.1875 27.296875 
Q 46.1875 37.015625 41.984375 42.703125 
Q 37.796875 48.390625 30.609375 48.390625 
z
M 30.609375 56 
Q 42.328125 56 49.015625 48.375 
Q 55.71875 40.765625 55.71875 27.296875 
Q 55.71875 13.875 49.015625 6.21875 
Q 42.328125 -1.421875 30.609375 -1.421875 
Q 18.84375 -1.421875 12.171875 6.21875 
Q 5.515625 13.875 5.515625 27.296875 
Q 5.515625 40.765625 12.171875 48.375 
Q 18.84375 56 30.609375 56 
z
" id="DejaVuSans-111"/>
     </defs>
     <use xlink:href="#DejaVuSans-84"/>
     <use x="44.083984" xlink:href="#DejaVuSans-101"/>
     <use x="105.607422" xlink:href="#DejaVuSans-115"/>
     <use x="157.707031" xlink:href="#DejaVuSans-116"/>
     <use x="196.916016" xlink:href="#DejaVuSans-112"/>
     <use x="260.392578" xlink:href="#DejaVuSans-108"/>
     <use x="288.175781" xlink:href="#DejaVuSans-111"/>
     <use x="349.357422" xlink:href="#DejaVuSans-116"/>
    </g>
   </g>
   <g id="legend_1">
    <g id="patch_7">
     <path d="M 97 109.9125 
L 348.946875 109.9125 
Q 350.946875 109.9125 350.946875 107.9125 
L 350.946875 50.2 
Q 350.946875 48.2 348.946875 48.2 
L 97 48.2 
Q 95 48.2 95 50.2 
L 95 107.9125 
Q 95 109.9125 97 109.9125 
z
" style="fill:#ffffff;opacity:0.8;stroke:#cccccc;stroke-linejoin:miter;"/>
    </g>
    <g id="line2d_29">
     <path d="M 99 56.298437 
L 119 56.298437 
" style="fill:none;stroke:#ff0000;stroke-linecap:square;stroke-width:1.5;"/>
    </g>
    <g id="line2d_30"/>
    <g id="text_15">
     <!-- covid opgenomen patinten NICE (nu 1544) -->
     <g transform="translate(127 59.798437)scale(0.1 -0.1)">
      <defs>
       <path d="M 48.78125 52.59375 
L 48.78125 44.1875 
Q 44.96875 46.296875 41.140625 47.34375 
Q 37.3125 48.390625 33.40625 48.390625 
Q 24.65625 48.390625 19.8125 42.84375 
Q 14.984375 37.3125 14.984375 27.296875 
Q 14.984375 17.28125 19.8125 11.734375 
Q 24.65625 6.203125 33.40625 6.203125 
Q 37.3125 6.203125 41.140625 7.25 
Q 44.96875 8.296875 48.78125 10.40625 
L 48.78125 2.09375 
Q 45.015625 0.34375 40.984375 -0.53125 
Q 36.96875 -1.421875 32.421875 -1.421875 
Q 20.0625 -1.421875 12.78125 6.34375 
Q 5.515625 14.109375 5.515625 27.296875 
Q 5.515625 40.671875 12.859375 48.328125 
Q 20.21875 56 33.015625 56 
Q 37.15625 56 41.109375 55.140625 
Q 45.0625 54.296875 48.78125 52.59375 
z
" id="DejaVuSans-99"/>
       <path d="M 2.984375 54.6875 
L 12.5 54.6875 
L 29.59375 8.796875 
L 46.6875 54.6875 
L 56.203125 54.6875 
L 35.6875 0 
L 23.484375 0 
z
" id="DejaVuSans-118"/>
       <path d="M 9.421875 54.6875 
L 18.40625 54.6875 
L 18.40625 0 
L 9.421875 0 
z
M 9.421875 75.984375 
L 18.40625 75.984375 
L 18.40625 64.59375 
L 9.421875 64.59375 
z
" id="DejaVuSans-105"/>
       <path d="M 45.40625 46.390625 
L 45.40625 75.984375 
L 54.390625 75.984375 
L 54.390625 0 
L 45.40625 0 
L 45.40625 8.203125 
Q 42.578125 3.328125 38.25 0.953125 
Q 33.9375 -1.421875 27.875 -1.421875 
Q 17.96875 -1.421875 11.734375 6.484375 
Q 5.515625 14.40625 5.515625 27.296875 
Q 5.515625 40.1875 11.734375 48.09375 
Q 17.96875 56 27.875 56 
Q 33.9375 56 38.25 53.625 
Q 42.578125 51.265625 45.40625 46.390625 
z
M 14.796875 27.296875 
Q 14.796875 17.390625 18.875 11.75 
Q 22.953125 6.109375 30.078125 6.109375 
Q 37.203125 6.109375 41.296875 11.75 
Q 45.40625 17.390625 45.40625 27.296875 
Q 45.40625 37.203125 41.296875 42.84375 
Q 37.203125 48.484375 30.078125 48.484375 
Q 22.953125 48.484375 18.875 42.84375 
Q 14.796875 37.203125 14.796875 27.296875 
z
" id="DejaVuSans-100"/>
       <path id="DejaVuSans-32"/>
       <path d="M 45.40625 27.984375 
Q 45.40625 37.75 41.375 43.109375 
Q 37.359375 48.484375 30.078125 48.484375 
Q 22.859375 48.484375 18.828125 43.109375 
Q 14.796875 37.75 14.796875 27.984375 
Q 14.796875 18.265625 18.828125 12.890625 
Q 22.859375 7.515625 30.078125 7.515625 
Q 37.359375 7.515625 41.375 12.890625 
Q 45.40625 18.265625 45.40625 27.984375 
z
M 54.390625 6.78125 
Q 54.390625 -7.171875 48.1875 -13.984375 
Q 42 -20.796875 29.203125 -20.796875 
Q 24.46875 -20.796875 20.265625 -20.09375 
Q 16.0625 -19.390625 12.109375 -17.921875 
L 12.109375 -9.1875 
Q 16.0625 -11.328125 19.921875 -12.34375 
Q 23.78125 -13.375 27.78125 -13.375 
Q 36.625 -13.375 41.015625 -8.765625 
Q 45.40625 -4.15625 45.40625 5.171875 
L 45.40625 9.625 
Q 42.625 4.78125 38.28125 2.390625 
Q 33.9375 0 27.875 0 
Q 17.828125 0 11.671875 7.65625 
Q 5.515625 15.328125 5.515625 27.984375 
Q 5.515625 40.671875 11.671875 48.328125 
Q 17.828125 56 27.875 56 
Q 33.9375 56 38.28125 53.609375 
Q 42.625 51.21875 45.40625 46.390625 
L 45.40625 54.6875 
L 54.390625 54.6875 
z
" id="DejaVuSans-103"/>
       <path d="M 54.890625 33.015625 
L 54.890625 0 
L 45.90625 0 
L 45.90625 32.71875 
Q 45.90625 40.484375 42.875 44.328125 
Q 39.84375 48.1875 33.796875 48.1875 
Q 26.515625 48.1875 22.3125 43.546875 
Q 18.109375 38.921875 18.109375 30.90625 
L 18.109375 0 
L 9.078125 0 
L 9.078125 54.6875 
L 18.109375 54.6875 
L 18.109375 46.1875 
Q 21.34375 51.125 25.703125 53.5625 
Q 30.078125 56 35.796875 56 
Q 45.21875 56 50.046875 50.171875 
Q 54.890625 44.34375 54.890625 33.015625 
z
" id="DejaVuSans-110"/>
       <path d="M 56.203125 29.59375 
L 56.203125 25.203125 
L 14.890625 25.203125 
Q 15.484375 15.921875 20.484375 11.0625 
Q 25.484375 6.203125 34.421875 6.203125 
Q 39.59375 6.203125 44.453125 7.46875 
Q 49.3125 8.734375 54.109375 11.28125 
L 54.109375 2.78125 
Q 49.265625 0.734375 44.1875 -0.34375 
Q 39.109375 -1.421875 33.890625 -1.421875 
Q 20.796875 -1.421875 13.15625 6.1875 
Q 5.515625 13.8125 5.515625 26.8125 
Q 5.515625 40.234375 12.765625 48.109375 
Q 20.015625 56 32.328125 56 
Q 43.359375 56 49.78125 48.890625 
Q 56.203125 41.796875 56.203125 29.59375 
z
M 47.21875 32.234375 
Q 47.125 39.59375 43.09375 43.984375 
Q 39.0625 48.390625 32.421875 48.390625 
Q 24.90625 48.390625 20.390625 44.140625 
Q 15.875 39.890625 15.1875 32.171875 
z
M 36.34375 75.78125 
L 46.25 75.78125 
L 46.25 65.921875 
L 36.34375 65.921875 
z
M 17.25 75.78125 
L 27.15625 75.78125 
L 27.15625 65.921875 
L 17.25 65.921875 
z
" id="DejaVuSans-235"/>
       <path d="M 9.8125 72.90625 
L 23.09375 72.90625 
L 55.421875 11.921875 
L 55.421875 72.90625 
L 64.984375 72.90625 
L 64.984375 0 
L 51.703125 0 
L 19.390625 60.984375 
L 19.390625 0 
L 9.8125 0 
z
" id="DejaVuSans-78"/>
       <path d="M 9.8125 72.90625 
L 19.671875 72.90625 
L 19.671875 0 
L 9.8125 0 
z
" id="DejaVuSans-73"/>
       <path d="M 64.40625 67.28125 
L 64.40625 56.890625 
Q 59.421875 61.53125 53.78125 63.8125 
Q 48.140625 66.109375 41.796875 66.109375 
Q 29.296875 66.109375 22.65625 58.46875 
Q 16.015625 50.828125 16.015625 36.375 
Q 16.015625 21.96875 22.65625 14.328125 
Q 29.296875 6.6875 41.796875 6.6875 
Q 48.140625 6.6875 53.78125 8.984375 
Q 59.421875 11.28125 64.40625 15.921875 
L 64.40625 5.609375 
Q 59.234375 2.09375 53.4375 0.328125 
Q 47.65625 -1.421875 41.21875 -1.421875 
Q 24.65625 -1.421875 15.125 8.703125 
Q 5.609375 18.84375 5.609375 36.375 
Q 5.609375 53.953125 15.125 64.078125 
Q 24.65625 74.21875 41.21875 74.21875 
Q 47.75 74.21875 53.53125 72.484375 
Q 59.328125 70.75 64.40625 67.28125 
z
" id="DejaVuSans-67"/>
       <path d="M 9.8125 72.90625 
L 55.90625 72.90625 
L 55.90625 64.59375 
L 19.671875 64.59375 
L 19.671875 43.015625 
L 54.390625 43.015625 
L 54.390625 34.71875 
L 19.671875 34.71875 
L 19.671875 8.296875 
L 56.78125 8.296875 
L 56.78125 0 
L 9.8125 0 
z
" id="DejaVuSans-69"/>
       <path d="M 31 75.875 
Q 24.46875 64.65625 21.28125 53.65625 
Q 18.109375 42.671875 18.109375 31.390625 
Q 18.109375 20.125 21.3125 9.0625 
Q 24.515625 -2 31 -13.1875 
L 23.1875 -13.1875 
Q 15.875 -1.703125 12.234375 9.375 
Q 8.59375 20.453125 8.59375 31.390625 
Q 8.59375 42.28125 12.203125 53.3125 
Q 15.828125 64.359375 23.1875 75.875 
z
" id="DejaVuSans-40"/>
       <path d="M 37.796875 64.3125 
L 12.890625 25.390625 
L 37.796875 25.390625 
z
M 35.203125 72.90625 
L 47.609375 72.90625 
L 47.609375 25.390625 
L 58.015625 25.390625 
L 58.015625 17.1875 
L 47.609375 17.1875 
L 47.609375 0 
L 37.796875 0 
L 37.796875 17.1875 
L 4.890625 17.1875 
L 4.890625 26.703125 
z
" id="DejaVuSans-52"/>
       <path d="M 8.015625 75.875 
L 15.828125 75.875 
Q 23.140625 64.359375 26.78125 53.3125 
Q 30.421875 42.28125 30.421875 31.390625 
Q 30.421875 20.453125 26.78125 9.375 
Q 23.140625 -1.703125 15.828125 -13.1875 
L 8.015625 -13.1875 
Q 14.5 -2 17.703125 9.0625 
Q 20.90625 20.125 20.90625 31.390625 
Q 20.90625 42.671875 17.703125 53.65625 
Q 14.5 64.65625 8.015625 75.875 
z
" id="DejaVuSans-41"/>
      </defs>
      <use xlink:href="#DejaVuSans-99"/>
      <use x="54.980469" xlink:href="#DejaVuSans-111"/>
      <use x="116.162109" xlink:href="#DejaVuSans-118"/>
      <use x="175.341797" xlink:href="#DejaVuSans-105"/>
      <use x="203.125" xlink:href="#DejaVuSans-100"/>
      <use x="266.601562" xlink:href="#DejaVuSans-32"/>
      <use x="298.388672" xlink:href="#DejaVuSans-111"/>
      <use x="359.570312" xlink:href="#DejaVuSans-112"/>
      <use x="423.046875" xlink:href="#DejaVuSans-103"/>
      <use x="486.523438" xlink:href="#DejaVuSans-101"/>
      <use x="548.046875" xlink:href="#DejaVuSans-110"/>
      <use x="611.425781" xlink:href="#DejaVuSans-111"/>
      <use x="672.607422" xlink:href="#DejaVuSans-109"/>
      <use x="770.019531" xlink:href="#DejaVuSans-101"/>
      <use x="831.542969" xlink:href="#DejaVuSans-110"/>
      <use x="894.921875" xlink:href="#DejaVuSans-32"/>
      <use x="926.708984" xlink:href="#DejaVuSans-112"/>
      <use x="990.185547" xlink:href="#DejaVuSans-97"/>
      <use x="1051.464844" xlink:href="#DejaVuSans-116"/>
      <use x="1090.673828" xlink:href="#DejaVuSans-105"/>
      <use x="1118.457031" xlink:href="#DejaVuSans-235"/>
      <use x="1179.980469" xlink:href="#DejaVuSans-110"/>
      <use x="1243.359375" xlink:href="#DejaVuSans-116"/>
      <use x="1282.568359" xlink:href="#DejaVuSans-101"/>
      <use x="1344.091797" xlink:href="#DejaVuSans-110"/>
      <use x="1407.470703" xlink:href="#DejaVuSans-32"/>
      <use x="1439.257812" xlink:href="#DejaVuSans-78"/>
      <use x="1514.0625" xlink:href="#DejaVuSans-73"/>
      <use x="1543.554688" xlink:href="#DejaVuSans-67"/>
      <use x="1613.378906" xlink:href="#DejaVuSans-69"/>
      <use x="1676.5625" xlink:href="#DejaVuSans-32"/>
      <use x="1708.349609" xlink:href="#DejaVuSans-40"/>
      <use x="1747.363281" xlink:href="#DejaVuSans-110"/>
      <use x="1810.742188" xlink:href="#DejaVuSans-117"/>
      <use x="1874.121094" xlink:href="#DejaVuSans-32"/>
      <use x="1905.908203" xlink:href="#DejaVuSans-49"/>
      <use x="1969.53125" xlink:href="#DejaVuSans-53"/>
      <use x="2033.154297" xlink:href="#DejaVuSans-52"/>
      <use x="2096.777344" xlink:href="#DejaVuSans-52"/>
      <use x="2160.400391" xlink:href="#DejaVuSans-41"/>
     </g>
    </g>
    <g id="line2d_31">
     <path d="M 99 70.976562 
L 119 70.976562 
" style="fill:none;stroke:#ffa500;stroke-linecap:square;stroke-width:1.5;"/>
    </g>
    <g id="line2d_32"/>
    <g id="text_16">
     <!-- covid bezette bedden LCPS (nu 1445) -->
     <g transform="translate(127 74.476562)scale(0.1 -0.1)">
      <defs>
       <path d="M 48.6875 27.296875 
Q 48.6875 37.203125 44.609375 42.84375 
Q 40.53125 48.484375 33.40625 48.484375 
Q 26.265625 48.484375 22.1875 42.84375 
Q 18.109375 37.203125 18.109375 27.296875 
Q 18.109375 17.390625 22.1875 11.75 
Q 26.265625 6.109375 33.40625 6.109375 
Q 40.53125 6.109375 44.609375 11.75 
Q 48.6875 17.390625 48.6875 27.296875 
z
M 18.109375 46.390625 
Q 20.953125 51.265625 25.265625 53.625 
Q 29.59375 56 35.59375 56 
Q 45.5625 56 51.78125 48.09375 
Q 58.015625 40.1875 58.015625 27.296875 
Q 58.015625 14.40625 51.78125 6.484375 
Q 45.5625 -1.421875 35.59375 -1.421875 
Q 29.59375 -1.421875 25.265625 0.953125 
Q 20.953125 3.328125 18.109375 8.203125 
L 18.109375 0 
L 9.078125 0 
L 9.078125 75.984375 
L 18.109375 75.984375 
z
" id="DejaVuSans-98"/>
       <path d="M 5.515625 54.6875 
L 48.1875 54.6875 
L 48.1875 46.484375 
L 14.40625 7.171875 
L 48.1875 7.171875 
L 48.1875 0 
L 4.296875 0 
L 4.296875 8.203125 
L 38.09375 47.515625 
L 5.515625 47.515625 
z
" id="DejaVuSans-122"/>
       <path d="M 9.8125 72.90625 
L 19.671875 72.90625 
L 19.671875 8.296875 
L 55.171875 8.296875 
L 55.171875 0 
L 9.8125 0 
z
" id="DejaVuSans-76"/>
       <path d="M 19.671875 64.796875 
L 19.671875 37.40625 
L 32.078125 37.40625 
Q 38.96875 37.40625 42.71875 40.96875 
Q 46.484375 44.53125 46.484375 51.125 
Q 46.484375 57.671875 42.71875 61.234375 
Q 38.96875 64.796875 32.078125 64.796875 
z
M 9.8125 72.90625 
L 32.078125 72.90625 
Q 44.34375 72.90625 50.609375 67.359375 
Q 56.890625 61.8125 56.890625 51.125 
Q 56.890625 40.328125 50.609375 34.8125 
Q 44.34375 29.296875 32.078125 29.296875 
L 19.671875 29.296875 
L 19.671875 0 
L 9.8125 0 
z
" id="DejaVuSans-80"/>
       <path d="M 53.515625 70.515625 
L 53.515625 60.890625 
Q 47.90625 63.578125 42.921875 64.890625 
Q 37.9375 66.21875 33.296875 66.21875 
Q 25.25 66.21875 20.875 63.09375 
Q 16.5 59.96875 16.5 54.203125 
Q 16.5 49.359375 19.40625 46.890625 
Q 22.3125 44.4375 30.421875 42.921875 
L 36.375 41.703125 
Q 47.40625 39.59375 52.65625 34.296875 
Q 57.90625 29 57.90625 20.125 
Q 57.90625 9.515625 50.796875 4.046875 
Q 43.703125 -1.421875 29.984375 -1.421875 
Q 24.8125 -1.421875 18.96875 -0.25 
Q 13.140625 0.921875 6.890625 3.21875 
L 6.890625 13.375 
Q 12.890625 10.015625 18.65625 8.296875 
Q 24.421875 6.59375 29.984375 6.59375 
Q 38.421875 6.59375 43.015625 9.90625 
Q 47.609375 13.234375 47.609375 19.390625 
Q 47.609375 24.75 44.3125 27.78125 
Q 41.015625 30.8125 33.5 32.328125 
L 27.484375 33.5 
Q 16.453125 35.6875 11.515625 40.375 
Q 6.59375 45.0625 6.59375 53.421875 
Q 6.59375 63.09375 13.40625 68.65625 
Q 20.21875 74.21875 32.171875 74.21875 
Q 37.3125 74.21875 42.625 73.28125 
Q 47.953125 72.359375 53.515625 70.515625 
z
" id="DejaVuSans-83"/>
      </defs>
      <use xlink:href="#DejaVuSans-99"/>
      <use x="54.980469" xlink:href="#DejaVuSans-111"/>
      <use x="116.162109" xlink:href="#DejaVuSans-118"/>
      <use x="175.341797" xlink:href="#DejaVuSans-105"/>
      <use x="203.125" xlink:href="#DejaVuSans-100"/>
      <use x="266.601562" xlink:href="#DejaVuSans-32"/>
      <use x="298.388672" xlink:href="#DejaVuSans-98"/>
      <use x="361.865234" xlink:href="#DejaVuSans-101"/>
      <use x="423.388672" xlink:href="#DejaVuSans-122"/>
      <use x="475.878906" xlink:href="#DejaVuSans-101"/>
      <use x="537.402344" xlink:href="#DejaVuSans-116"/>
      <use x="576.611328" xlink:href="#DejaVuSans-116"/>
      <use x="615.820312" xlink:href="#DejaVuSans-101"/>
      <use x="677.34375" xlink:href="#DejaVuSans-32"/>
      <use x="709.130859" xlink:href="#DejaVuSans-98"/>
      <use x="772.607422" xlink:href="#DejaVuSans-101"/>
      <use x="834.130859" xlink:href="#DejaVuSans-100"/>
      <use x="897.607422" xlink:href="#DejaVuSans-100"/>
      <use x="961.083984" xlink:href="#DejaVuSans-101"/>
      <use x="1022.607422" xlink:href="#DejaVuSans-110"/>
      <use x="1085.986328" xlink:href="#DejaVuSans-32"/>
      <use x="1117.773438" xlink:href="#DejaVuSans-76"/>
      <use x="1173.486328" xlink:href="#DejaVuSans-67"/>
      <use x="1243.310547" xlink:href="#DejaVuSans-80"/>
      <use x="1303.613281" xlink:href="#DejaVuSans-83"/>
      <use x="1367.089844" xlink:href="#DejaVuSans-32"/>
      <use x="1398.876953" xlink:href="#DejaVuSans-40"/>
      <use x="1437.890625" xlink:href="#DejaVuSans-110"/>
      <use x="1501.269531" xlink:href="#DejaVuSans-117"/>
      <use x="1564.648438" xlink:href="#DejaVuSans-32"/>
      <use x="1596.435547" xlink:href="#DejaVuSans-49"/>
      <use x="1660.058594" xlink:href="#DejaVuSans-52"/>
      <use x="1723.681641" xlink:href="#DejaVuSans-52"/>
      <use x="1787.304688" xlink:href="#DejaVuSans-53"/>
      <use x="1850.927734" xlink:href="#DejaVuSans-41"/>
     </g>
    </g>
    <g id="line2d_33">
     <path d="M 99 85.654687 
L 119 85.654687 
" style="fill:none;stroke:#0000ff;stroke-linecap:square;stroke-width:1.5;"/>
    </g>
    <g id="line2d_34"/>
    <g id="text_17">
     <!-- non-covid bezette IC bedden LCPS (nu 462) -->
     <g transform="translate(127 89.154687)scale(0.1 -0.1)">
      <defs>
       <path d="M 33.015625 40.375 
Q 26.375 40.375 22.484375 35.828125 
Q 18.609375 31.296875 18.609375 23.390625 
Q 18.609375 15.53125 22.484375 10.953125 
Q 26.375 6.390625 33.015625 6.390625 
Q 39.65625 6.390625 43.53125 10.953125 
Q 47.40625 15.53125 47.40625 23.390625 
Q 47.40625 31.296875 43.53125 35.828125 
Q 39.65625 40.375 33.015625 40.375 
z
M 52.59375 71.296875 
L 52.59375 62.3125 
Q 48.875 64.0625 45.09375 64.984375 
Q 41.3125 65.921875 37.59375 65.921875 
Q 27.828125 65.921875 22.671875 59.328125 
Q 17.53125 52.734375 16.796875 39.40625 
Q 19.671875 43.65625 24.015625 45.921875 
Q 28.375 48.1875 33.59375 48.1875 
Q 44.578125 48.1875 50.953125 41.515625 
Q 57.328125 34.859375 57.328125 23.390625 
Q 57.328125 12.15625 50.6875 5.359375 
Q 44.046875 -1.421875 33.015625 -1.421875 
Q 20.359375 -1.421875 13.671875 8.265625 
Q 6.984375 17.96875 6.984375 36.375 
Q 6.984375 53.65625 15.1875 63.9375 
Q 23.390625 74.21875 37.203125 74.21875 
Q 40.921875 74.21875 44.703125 73.484375 
Q 48.484375 72.75 52.59375 71.296875 
z
" id="DejaVuSans-54"/>
      </defs>
      <use xlink:href="#DejaVuSans-110"/>
      <use x="63.378906" xlink:href="#DejaVuSans-111"/>
      <use x="124.560547" xlink:href="#DejaVuSans-110"/>
      <use x="187.939453" xlink:href="#DejaVuSans-45"/>
      <use x="224.023438" xlink:href="#DejaVuSans-99"/>
      <use x="279.003906" xlink:href="#DejaVuSans-111"/>
      <use x="340.185547" xlink:href="#DejaVuSans-118"/>
      <use x="399.365234" xlink:href="#DejaVuSans-105"/>
      <use x="427.148438" xlink:href="#DejaVuSans-100"/>
      <use x="490.625" xlink:href="#DejaVuSans-32"/>
      <use x="522.412109" xlink:href="#DejaVuSans-98"/>
      <use x="585.888672" xlink:href="#DejaVuSans-101"/>
      <use x="647.412109" xlink:href="#DejaVuSans-122"/>
      <use x="699.902344" xlink:href="#DejaVuSans-101"/>
      <use x="761.425781" xlink:href="#DejaVuSans-116"/>
      <use x="800.634766" xlink:href="#DejaVuSans-116"/>
      <use x="839.84375" xlink:href="#DejaVuSans-101"/>
      <use x="901.367188" xlink:href="#DejaVuSans-32"/>
      <use x="933.154297" xlink:href="#DejaVuSans-73"/>
      <use x="962.646484" xlink:href="#DejaVuSans-67"/>
      <use x="1032.470703" xlink:href="#DejaVuSans-32"/>
      <use x="1064.257812" xlink:href="#DejaVuSans-98"/>
      <use x="1127.734375" xlink:href="#DejaVuSans-101"/>
      <use x="1189.257812" xlink:href="#DejaVuSans-100"/>
      <use x="1252.734375" xlink:href="#DejaVuSans-100"/>
      <use x="1316.210938" xlink:href="#DejaVuSans-101"/>
      <use x="1377.734375" xlink:href="#DejaVuSans-110"/>
      <use x="1441.113281" xlink:href="#DejaVuSans-32"/>
      <use x="1472.900391" xlink:href="#DejaVuSans-76"/>
      <use x="1528.613281" xlink:href="#DejaVuSans-67"/>
      <use x="1598.4375" xlink:href="#DejaVuSans-80"/>
      <use x="1658.740234" xlink:href="#DejaVuSans-83"/>
      <use x="1722.216797" xlink:href="#DejaVuSans-32"/>
      <use x="1754.003906" xlink:href="#DejaVuSans-40"/>
      <use x="1793.017578" xlink:href="#DejaVuSans-110"/>
      <use x="1856.396484" xlink:href="#DejaVuSans-117"/>
      <use x="1919.775391" xlink:href="#DejaVuSans-32"/>
      <use x="1951.5625" xlink:href="#DejaVuSans-52"/>
      <use x="2015.185547" xlink:href="#DejaVuSans-54"/>
      <use x="2078.808594" xlink:href="#DejaVuSans-50"/>
      <use x="2142.431641" xlink:href="#DejaVuSans-41"/>
     </g>
    </g>
    <g id="line2d_35">
     <path d="M 99 100.332812 
L 119 100.332812 
" style="fill:none;stroke:#00ffff;stroke-linecap:square;stroke-width:1.5;"/>
    </g>
    <g id="line2d_36"/>
    <g id="text_18">
     <!-- covid bezette IC bedden LCPS (nu 535) -->
     <g transform="translate(127 103.832812)scale(0.1 -0.1)">
      <use xlink:href="#DejaVuSans-99"/>
      <use x="54.980469" xlink:href="#DejaVuSans-111"/>
      <use x="116.162109" xlink:href="#DejaVuSans-118"/>
      <use x="175.341797" xlink:href="#DejaVuSans-105"/>
      <use x="203.125" xlink:href="#DejaVuSans-100"/>
      <use x="266.601562" xlink:href="#DejaVuSans-32"/>
      <use x="298.388672" xlink:href="#DejaVuSans-98"/>
      <use x="361.865234" xlink:href="#DejaVuSans-101"/>
      <use x="423.388672" xlink:href="#DejaVuSans-122"/>
      <use x="475.878906" xlink:href="#DejaVuSans-101"/>
      <use x="537.402344" xlink:href="#DejaVuSans-116"/>
      <use x="576.611328" xlink:href="#DejaVuSans-116"/>
      <use x="615.820312" xlink:href="#DejaVuSans-101"/>
      <use x="677.34375" xlink:href="#DejaVuSans-32"/>
      <use x="709.130859" xlink:href="#DejaVuSans-73"/>
      <use x="738.623047" xlink:href="#DejaVuSans-67"/>
      <use x="808.447266" xlink:href="#DejaVuSans-32"/>
      <use x="840.234375" xlink:href="#DejaVuSans-98"/>
      <use x="903.710938" xlink:href="#DejaVuSans-101"/>
      <use x="965.234375" xlink:href="#DejaVuSans-100"/>
      <use x="1028.710938" xlink:href="#DejaVuSans-100"/>
      <use x="1092.1875" xlink:href="#DejaVuSans-101"/>
      <use x="1153.710938" xlink:href="#DejaVuSans-110"/>
      <use x="1217.089844" xlink:href="#DejaVuSans-32"/>
      <use x="1248.876953" xlink:href="#DejaVuSans-76"/>
      <use x="1304.589844" xlink:href="#DejaVuSans-67"/>
      <use x="1374.414062" xlink:href="#DejaVuSans-80"/>
      <use x="1434.716797" xlink:href="#DejaVuSans-83"/>
      <use x="1498.193359" xlink:href="#DejaVuSans-32"/>
      <use x="1529.980469" xlink:href="#DejaVuSans-40"/>
      <use x="1568.994141" xlink:href="#DejaVuSans-110"/>
      <use x="1632.373047" xlink:href="#DejaVuSans-117"/>
      <use x="1695.751953" xlink:href="#DejaVuSans-32"/>
      <use x="1727.539062" xlink:href="#DejaVuSans-53"/>
      <use x="1791.162109" xlink:href="#DejaVuSans-51"/>
      <use x="1854.785156" xlink:href="#DejaVuSans-53"/>
      <use x="1918.408203" xlink:href="#DejaVuSans-41"/>
     </g>
    </g>
   </g>
  </g>
 </g>
 <defs>
  <clipPath id="pdf3679556d">
   <rect height="277.2" width="558" x="90" y="43.2"/>
  </clipPath>
 </defs>
</svg>
