<?xml version="1.0" encoding="utf-8" standalone="no"?>
<!DOCTYPE svg PUBLIC "-//W3C//DTD SVG 1.1//EN"
  "http://www.w3.org/Graphics/SVG/1.1/DTD/svg11.dtd">
<!-- Created with matplotlib (https://matplotlib.org/) -->
<svg height="360pt" version="1.1" viewBox="0 0 720 360" width="720pt" xmlns="http://www.w3.org/2000/svg" xmlns:xlink="http://www.w3.org/1999/xlink">
 <metadata>
  <rdf:RDF xmlns:cc="http://creativecommons.org/ns#" xmlns:dc="http://purl.org/dc/elements/1.1/" xmlns:rdf="http://www.w3.org/1999/02/22-rdf-syntax-ns#">
   <cc:Work>
    <dc:type rdf:resource="http://purl.org/dc/dcmitype/StillImage"/>
    <dc:date>2021-05-20T15:42:53.831218</dc:date>
    <dc:format>image/svg+xml</dc:format>
    <dc:creator>
     <cc:Agent>
      <dc:title>Matplotlib v3.3.2, https://matplotlib.org/</dc:title>
     </cc:Agent>
    </dc:creator>
   </cc:Work>
  </rdf:RDF>
 </metadata>
 <defs>
  <style type="text/css">*{stroke-linecap:butt;stroke-linejoin:round;}</style>
 </defs>
 <g id="figure_1">
  <g id="patch_1">
   <path d="M 0 360 
L 720 360 
L 720 0 
L 0 0 
z
" style="fill:#ffffff;"/>
  </g>
  <g id="axes_1">
   <g id="patch_2">
    <path d="M 90 320.4 
L 648 320.4 
L 648 43.2 
L 90 43.2 
z
" style="fill:#ffffff;"/>
   </g>
   <g id="matplotlib.axis_1">
    <g id="xtick_1">
     <g id="line2d_1">
      <path clip-path="url(#p54bf90e38a)" d="M 118.760552 320.4 
L 118.760552 43.2 
" style="fill:none;stroke:#808080;stroke-dasharray:6.4,1.6,1,1.6;stroke-dashoffset:0;stroke-opacity:0.3;"/>
     </g>
     <g id="line2d_2">
      <defs>
       <path d="M 0 0 
L 0 3.5 
" id="mdf41bc1752" style="stroke:#000000;stroke-width:0.8;"/>
      </defs>
      <g>
       <use style="stroke:#000000;stroke-width:0.8;" x="118.760552" xlink:href="#mdf41bc1752" y="320.4"/>
      </g>
     </g>
     <g id="text_1">
      <!-- 2020-03 -->
      <g transform="translate(97.869146 334.998438)scale(0.1 -0.1)">
       <defs>
        <path d="M 19.1875 8.296875 
L 53.609375 8.296875 
L 53.609375 0 
L 7.328125 0 
L 7.328125 8.296875 
Q 12.9375 14.109375 22.625 23.890625 
Q 32.328125 33.6875 34.8125 36.53125 
Q 39.546875 41.84375 41.421875 45.53125 
Q 43.3125 49.21875 43.3125 52.78125 
Q 43.3125 58.59375 39.234375 62.25 
Q 35.15625 65.921875 28.609375 65.921875 
Q 23.96875 65.921875 18.8125 64.3125 
Q 13.671875 62.703125 7.8125 59.421875 
L 7.8125 69.390625 
Q 13.765625 71.78125 18.9375 73 
Q 24.125 74.21875 28.421875 74.21875 
Q 39.75 74.21875 46.484375 68.546875 
Q 53.21875 62.890625 53.21875 53.421875 
Q 53.21875 48.921875 51.53125 44.890625 
Q 49.859375 40.875 45.40625 35.40625 
Q 44.1875 33.984375 37.640625 27.21875 
Q 31.109375 20.453125 19.1875 8.296875 
z
" id="DejaVuSans-50"/>
        <path d="M 31.78125 66.40625 
Q 24.171875 66.40625 20.328125 58.90625 
Q 16.5 51.421875 16.5 36.375 
Q 16.5 21.390625 20.328125 13.890625 
Q 24.171875 6.390625 31.78125 6.390625 
Q 39.453125 6.390625 43.28125 13.890625 
Q 47.125 21.390625 47.125 36.375 
Q 47.125 51.421875 43.28125 58.90625 
Q 39.453125 66.40625 31.78125 66.40625 
z
M 31.78125 74.21875 
Q 44.046875 74.21875 50.515625 64.515625 
Q 56.984375 54.828125 56.984375 36.375 
Q 56.984375 17.96875 50.515625 8.265625 
Q 44.046875 -1.421875 31.78125 -1.421875 
Q 19.53125 -1.421875 13.0625 8.265625 
Q 6.59375 17.96875 6.59375 36.375 
Q 6.59375 54.828125 13.0625 64.515625 
Q 19.53125 74.21875 31.78125 74.21875 
z
" id="DejaVuSans-48"/>
        <path d="M 4.890625 31.390625 
L 31.203125 31.390625 
L 31.203125 23.390625 
L 4.890625 23.390625 
z
" id="DejaVuSans-45"/>
        <path d="M 40.578125 39.3125 
Q 47.65625 37.796875 51.625 33 
Q 55.609375 28.21875 55.609375 21.1875 
Q 55.609375 10.40625 48.1875 4.484375 
Q 40.765625 -1.421875 27.09375 -1.421875 
Q 22.515625 -1.421875 17.65625 -0.515625 
Q 12.796875 0.390625 7.625 2.203125 
L 7.625 11.71875 
Q 11.71875 9.328125 16.59375 8.109375 
Q 21.484375 6.890625 26.8125 6.890625 
Q 36.078125 6.890625 40.9375 10.546875 
Q 45.796875 14.203125 45.796875 21.1875 
Q 45.796875 27.640625 41.28125 31.265625 
Q 36.765625 34.90625 28.71875 34.90625 
L 20.21875 34.90625 
L 20.21875 43.015625 
L 29.109375 43.015625 
Q 36.375 43.015625 40.234375 45.921875 
Q 44.09375 48.828125 44.09375 54.296875 
Q 44.09375 59.90625 40.109375 62.90625 
Q 36.140625 65.921875 28.71875 65.921875 
Q 24.65625 65.921875 20.015625 65.03125 
Q 15.375 64.15625 9.8125 62.3125 
L 9.8125 71.09375 
Q 15.4375 72.65625 20.34375 73.4375 
Q 25.25 74.21875 29.59375 74.21875 
Q 40.828125 74.21875 47.359375 69.109375 
Q 53.90625 64.015625 53.90625 55.328125 
Q 53.90625 49.265625 50.4375 45.09375 
Q 46.96875 40.921875 40.578125 39.3125 
z
" id="DejaVuSans-51"/>
       </defs>
       <use xlink:href="#DejaVuSans-50"/>
       <use x="63.623047" xlink:href="#DejaVuSans-48"/>
       <use x="127.246094" xlink:href="#DejaVuSans-50"/>
       <use x="190.869141" xlink:href="#DejaVuSans-48"/>
       <use x="254.492188" xlink:href="#DejaVuSans-45"/>
       <use x="290.576172" xlink:href="#DejaVuSans-48"/>
       <use x="354.199219" xlink:href="#DejaVuSans-51"/>
      </g>
     </g>
    </g>
    <g id="xtick_2">
     <g id="line2d_3">
      <path clip-path="url(#p54bf90e38a)" d="M 187.831169 320.4 
L 187.831169 43.2 
" style="fill:none;stroke:#808080;stroke-dasharray:6.4,1.6,1,1.6;stroke-dashoffset:0;stroke-opacity:0.3;"/>
     </g>
     <g id="line2d_4">
      <g>
       <use style="stroke:#000000;stroke-width:0.8;" x="187.831169" xlink:href="#mdf41bc1752" y="320.4"/>
      </g>
     </g>
     <g id="text_2">
      <!-- 2020-05 -->
      <g transform="translate(166.939763 334.998438)scale(0.1 -0.1)">
       <defs>
        <path d="M 10.796875 72.90625 
L 49.515625 72.90625 
L 49.515625 64.59375 
L 19.828125 64.59375 
L 19.828125 46.734375 
Q 21.96875 47.46875 24.109375 47.828125 
Q 26.265625 48.1875 28.421875 48.1875 
Q 40.625 48.1875 47.75 41.5 
Q 54.890625 34.8125 54.890625 23.390625 
Q 54.890625 11.625 47.5625 5.09375 
Q 40.234375 -1.421875 26.90625 -1.421875 
Q 22.3125 -1.421875 17.546875 -0.640625 
Q 12.796875 0.140625 7.71875 1.703125 
L 7.71875 11.625 
Q 12.109375 9.234375 16.796875 8.0625 
Q 21.484375 6.890625 26.703125 6.890625 
Q 35.15625 6.890625 40.078125 11.328125 
Q 45.015625 15.765625 45.015625 23.390625 
Q 45.015625 31 40.078125 35.4375 
Q 35.15625 39.890625 26.703125 39.890625 
Q 22.75 39.890625 18.8125 39.015625 
Q 14.890625 38.140625 10.796875 36.28125 
z
" id="DejaVuSans-53"/>
       </defs>
       <use xlink:href="#DejaVuSans-50"/>
       <use x="63.623047" xlink:href="#DejaVuSans-48"/>
       <use x="127.246094" xlink:href="#DejaVuSans-50"/>
       <use x="190.869141" xlink:href="#DejaVuSans-48"/>
       <use x="254.492188" xlink:href="#DejaVuSans-45"/>
       <use x="290.576172" xlink:href="#DejaVuSans-48"/>
       <use x="354.199219" xlink:href="#DejaVuSans-53"/>
      </g>
     </g>
    </g>
    <g id="xtick_3">
     <g id="line2d_5">
      <path clip-path="url(#p54bf90e38a)" d="M 256.901786 320.4 
L 256.901786 43.2 
" style="fill:none;stroke:#808080;stroke-dasharray:6.4,1.6,1,1.6;stroke-dashoffset:0;stroke-opacity:0.3;"/>
     </g>
     <g id="line2d_6">
      <g>
       <use style="stroke:#000000;stroke-width:0.8;" x="256.901786" xlink:href="#mdf41bc1752" y="320.4"/>
      </g>
     </g>
     <g id="text_3">
      <!-- 2020-07 -->
      <g transform="translate(236.010379 334.998438)scale(0.1 -0.1)">
       <defs>
        <path d="M 8.203125 72.90625 
L 55.078125 72.90625 
L 55.078125 68.703125 
L 28.609375 0 
L 18.3125 0 
L 43.21875 64.59375 
L 8.203125 64.59375 
z
" id="DejaVuSans-55"/>
       </defs>
       <use xlink:href="#DejaVuSans-50"/>
       <use x="63.623047" xlink:href="#DejaVuSans-48"/>
       <use x="127.246094" xlink:href="#DejaVuSans-50"/>
       <use x="190.869141" xlink:href="#DejaVuSans-48"/>
       <use x="254.492188" xlink:href="#DejaVuSans-45"/>
       <use x="290.576172" xlink:href="#DejaVuSans-48"/>
       <use x="354.199219" xlink:href="#DejaVuSans-55"/>
      </g>
     </g>
    </g>
    <g id="xtick_4">
     <g id="line2d_7">
      <path clip-path="url(#p54bf90e38a)" d="M 327.104708 320.4 
L 327.104708 43.2 
" style="fill:none;stroke:#808080;stroke-dasharray:6.4,1.6,1,1.6;stroke-dashoffset:0;stroke-opacity:0.3;"/>
     </g>
     <g id="line2d_8">
      <g>
       <use style="stroke:#000000;stroke-width:0.8;" x="327.104708" xlink:href="#mdf41bc1752" y="320.4"/>
      </g>
     </g>
     <g id="text_4">
      <!-- 2020-09 -->
      <g transform="translate(306.213302 334.998438)scale(0.1 -0.1)">
       <defs>
        <path d="M 10.984375 1.515625 
L 10.984375 10.5 
Q 14.703125 8.734375 18.5 7.8125 
Q 22.3125 6.890625 25.984375 6.890625 
Q 35.75 6.890625 40.890625 13.453125 
Q 46.046875 20.015625 46.78125 33.40625 
Q 43.953125 29.203125 39.59375 26.953125 
Q 35.25 24.703125 29.984375 24.703125 
Q 19.046875 24.703125 12.671875 31.3125 
Q 6.296875 37.9375 6.296875 49.421875 
Q 6.296875 60.640625 12.9375 67.421875 
Q 19.578125 74.21875 30.609375 74.21875 
Q 43.265625 74.21875 49.921875 64.515625 
Q 56.59375 54.828125 56.59375 36.375 
Q 56.59375 19.140625 48.40625 8.859375 
Q 40.234375 -1.421875 26.421875 -1.421875 
Q 22.703125 -1.421875 18.890625 -0.6875 
Q 15.09375 0.046875 10.984375 1.515625 
z
M 30.609375 32.421875 
Q 37.25 32.421875 41.125 36.953125 
Q 45.015625 41.5 45.015625 49.421875 
Q 45.015625 57.28125 41.125 61.84375 
Q 37.25 66.40625 30.609375 66.40625 
Q 23.96875 66.40625 20.09375 61.84375 
Q 16.21875 57.28125 16.21875 49.421875 
Q 16.21875 41.5 20.09375 36.953125 
Q 23.96875 32.421875 30.609375 32.421875 
z
" id="DejaVuSans-57"/>
       </defs>
       <use xlink:href="#DejaVuSans-50"/>
       <use x="63.623047" xlink:href="#DejaVuSans-48"/>
       <use x="127.246094" xlink:href="#DejaVuSans-50"/>
       <use x="190.869141" xlink:href="#DejaVuSans-48"/>
       <use x="254.492188" xlink:href="#DejaVuSans-45"/>
       <use x="290.576172" xlink:href="#DejaVuSans-48"/>
       <use x="354.199219" xlink:href="#DejaVuSans-57"/>
      </g>
     </g>
    </g>
    <g id="xtick_5">
     <g id="line2d_9">
      <path clip-path="url(#p54bf90e38a)" d="M 396.175325 320.4 
L 396.175325 43.2 
" style="fill:none;stroke:#808080;stroke-dasharray:6.4,1.6,1,1.6;stroke-dashoffset:0;stroke-opacity:0.3;"/>
     </g>
     <g id="line2d_10">
      <g>
       <use style="stroke:#000000;stroke-width:0.8;" x="396.175325" xlink:href="#mdf41bc1752" y="320.4"/>
      </g>
     </g>
     <g id="text_5">
      <!-- 2020-11 -->
      <g transform="translate(375.283918 334.998438)scale(0.1 -0.1)">
       <defs>
        <path d="M 12.40625 8.296875 
L 28.515625 8.296875 
L 28.515625 63.921875 
L 10.984375 60.40625 
L 10.984375 69.390625 
L 28.421875 72.90625 
L 38.28125 72.90625 
L 38.28125 8.296875 
L 54.390625 8.296875 
L 54.390625 0 
L 12.40625 0 
z
" id="DejaVuSans-49"/>
       </defs>
       <use xlink:href="#DejaVuSans-50"/>
       <use x="63.623047" xlink:href="#DejaVuSans-48"/>
       <use x="127.246094" xlink:href="#DejaVuSans-50"/>
       <use x="190.869141" xlink:href="#DejaVuSans-48"/>
       <use x="254.492188" xlink:href="#DejaVuSans-45"/>
       <use x="290.576172" xlink:href="#DejaVuSans-49"/>
       <use x="354.199219" xlink:href="#DejaVuSans-49"/>
      </g>
     </g>
    </g>
    <g id="xtick_6">
     <g id="line2d_11">
      <path clip-path="url(#p54bf90e38a)" d="M 465.245942 320.4 
L 465.245942 43.2 
" style="fill:none;stroke:#808080;stroke-dasharray:6.4,1.6,1,1.6;stroke-dashoffset:0;stroke-opacity:0.3;"/>
     </g>
     <g id="line2d_12">
      <g>
       <use style="stroke:#000000;stroke-width:0.8;" x="465.245942" xlink:href="#mdf41bc1752" y="320.4"/>
      </g>
     </g>
     <g id="text_6">
      <!-- 2021-01 -->
      <g transform="translate(444.354535 334.998438)scale(0.1 -0.1)">
       <use xlink:href="#DejaVuSans-50"/>
       <use x="63.623047" xlink:href="#DejaVuSans-48"/>
       <use x="127.246094" xlink:href="#DejaVuSans-50"/>
       <use x="190.869141" xlink:href="#DejaVuSans-49"/>
       <use x="254.492188" xlink:href="#DejaVuSans-45"/>
       <use x="290.576172" xlink:href="#DejaVuSans-48"/>
       <use x="354.199219" xlink:href="#DejaVuSans-49"/>
      </g>
     </g>
    </g>
    <g id="xtick_7">
     <g id="line2d_13">
      <path clip-path="url(#p54bf90e38a)" d="M 532.051948 320.4 
L 532.051948 43.2 
" style="fill:none;stroke:#808080;stroke-dasharray:6.4,1.6,1,1.6;stroke-dashoffset:0;stroke-opacity:0.3;"/>
     </g>
     <g id="line2d_14">
      <g>
       <use style="stroke:#000000;stroke-width:0.8;" x="532.051948" xlink:href="#mdf41bc1752" y="320.4"/>
      </g>
     </g>
     <g id="text_7">
      <!-- 2021-03 -->
      <g transform="translate(511.160542 334.998438)scale(0.1 -0.1)">
       <use xlink:href="#DejaVuSans-50"/>
       <use x="63.623047" xlink:href="#DejaVuSans-48"/>
       <use x="127.246094" xlink:href="#DejaVuSans-50"/>
       <use x="190.869141" xlink:href="#DejaVuSans-49"/>
       <use x="254.492188" xlink:href="#DejaVuSans-45"/>
       <use x="290.576172" xlink:href="#DejaVuSans-48"/>
       <use x="354.199219" xlink:href="#DejaVuSans-51"/>
      </g>
     </g>
    </g>
    <g id="xtick_8">
     <g id="line2d_15">
      <path clip-path="url(#p54bf90e38a)" d="M 601.122565 320.4 
L 601.122565 43.2 
" style="fill:none;stroke:#808080;stroke-dasharray:6.4,1.6,1,1.6;stroke-dashoffset:0;stroke-opacity:0.3;"/>
     </g>
     <g id="line2d_16">
      <g>
       <use style="stroke:#000000;stroke-width:0.8;" x="601.122565" xlink:href="#mdf41bc1752" y="320.4"/>
      </g>
     </g>
     <g id="text_8">
      <!-- 2021-05 -->
      <g transform="translate(580.231159 334.998438)scale(0.1 -0.1)">
       <use xlink:href="#DejaVuSans-50"/>
       <use x="63.623047" xlink:href="#DejaVuSans-48"/>
       <use x="127.246094" xlink:href="#DejaVuSans-50"/>
       <use x="190.869141" xlink:href="#DejaVuSans-49"/>
       <use x="254.492188" xlink:href="#DejaVuSans-45"/>
       <use x="290.576172" xlink:href="#DejaVuSans-48"/>
       <use x="354.199219" xlink:href="#DejaVuSans-53"/>
      </g>
     </g>
    </g>
    <g id="text_9">
     <!-- Datum -->
     <g transform="translate(352.086719 348.676562)scale(0.1 -0.1)">
      <defs>
       <path d="M 19.671875 64.796875 
L 19.671875 8.109375 
L 31.59375 8.109375 
Q 46.6875 8.109375 53.6875 14.9375 
Q 60.6875 21.78125 60.6875 36.53125 
Q 60.6875 51.171875 53.6875 57.984375 
Q 46.6875 64.796875 31.59375 64.796875 
z
M 9.8125 72.90625 
L 30.078125 72.90625 
Q 51.265625 72.90625 61.171875 64.09375 
Q 71.09375 55.28125 71.09375 36.53125 
Q 71.09375 17.671875 61.125 8.828125 
Q 51.171875 0 30.078125 0 
L 9.8125 0 
z
" id="DejaVuSans-68"/>
       <path d="M 34.28125 27.484375 
Q 23.390625 27.484375 19.1875 25 
Q 14.984375 22.515625 14.984375 16.5 
Q 14.984375 11.71875 18.140625 8.90625 
Q 21.296875 6.109375 26.703125 6.109375 
Q 34.1875 6.109375 38.703125 11.40625 
Q 43.21875 16.703125 43.21875 25.484375 
L 43.21875 27.484375 
z
M 52.203125 31.203125 
L 52.203125 0 
L 43.21875 0 
L 43.21875 8.296875 
Q 40.140625 3.328125 35.546875 0.953125 
Q 30.953125 -1.421875 24.3125 -1.421875 
Q 15.921875 -1.421875 10.953125 3.296875 
Q 6 8.015625 6 15.921875 
Q 6 25.140625 12.171875 29.828125 
Q 18.359375 34.515625 30.609375 34.515625 
L 43.21875 34.515625 
L 43.21875 35.40625 
Q 43.21875 41.609375 39.140625 45 
Q 35.0625 48.390625 27.6875 48.390625 
Q 23 48.390625 18.546875 47.265625 
Q 14.109375 46.140625 10.015625 43.890625 
L 10.015625 52.203125 
Q 14.9375 54.109375 19.578125 55.046875 
Q 24.21875 56 28.609375 56 
Q 40.484375 56 46.34375 49.84375 
Q 52.203125 43.703125 52.203125 31.203125 
z
" id="DejaVuSans-97"/>
       <path d="M 18.3125 70.21875 
L 18.3125 54.6875 
L 36.8125 54.6875 
L 36.8125 47.703125 
L 18.3125 47.703125 
L 18.3125 18.015625 
Q 18.3125 11.328125 20.140625 9.421875 
Q 21.96875 7.515625 27.59375 7.515625 
L 36.8125 7.515625 
L 36.8125 0 
L 27.59375 0 
Q 17.1875 0 13.234375 3.875 
Q 9.28125 7.765625 9.28125 18.015625 
L 9.28125 47.703125 
L 2.6875 47.703125 
L 2.6875 54.6875 
L 9.28125 54.6875 
L 9.28125 70.21875 
z
" id="DejaVuSans-116"/>
       <path d="M 8.5 21.578125 
L 8.5 54.6875 
L 17.484375 54.6875 
L 17.484375 21.921875 
Q 17.484375 14.15625 20.5 10.265625 
Q 23.53125 6.390625 29.59375 6.390625 
Q 36.859375 6.390625 41.078125 11.03125 
Q 45.3125 15.671875 45.3125 23.6875 
L 45.3125 54.6875 
L 54.296875 54.6875 
L 54.296875 0 
L 45.3125 0 
L 45.3125 8.40625 
Q 42.046875 3.421875 37.71875 1 
Q 33.40625 -1.421875 27.6875 -1.421875 
Q 18.265625 -1.421875 13.375 4.4375 
Q 8.5 10.296875 8.5 21.578125 
z
M 31.109375 56 
z
" id="DejaVuSans-117"/>
       <path d="M 52 44.1875 
Q 55.375 50.25 60.0625 53.125 
Q 64.75 56 71.09375 56 
Q 79.640625 56 84.28125 50.015625 
Q 88.921875 44.046875 88.921875 33.015625 
L 88.921875 0 
L 79.890625 0 
L 79.890625 32.71875 
Q 79.890625 40.578125 77.09375 44.375 
Q 74.3125 48.1875 68.609375 48.1875 
Q 61.625 48.1875 57.5625 43.546875 
Q 53.515625 38.921875 53.515625 30.90625 
L 53.515625 0 
L 44.484375 0 
L 44.484375 32.71875 
Q 44.484375 40.625 41.703125 44.40625 
Q 38.921875 48.1875 33.109375 48.1875 
Q 26.21875 48.1875 22.15625 43.53125 
Q 18.109375 38.875 18.109375 30.90625 
L 18.109375 0 
L 9.078125 0 
L 9.078125 54.6875 
L 18.109375 54.6875 
L 18.109375 46.1875 
Q 21.1875 51.21875 25.484375 53.609375 
Q 29.78125 56 35.6875 56 
Q 41.65625 56 45.828125 52.96875 
Q 50 49.953125 52 44.1875 
z
" id="DejaVuSans-109"/>
      </defs>
      <use xlink:href="#DejaVuSans-68"/>
      <use x="77.001953" xlink:href="#DejaVuSans-97"/>
      <use x="138.28125" xlink:href="#DejaVuSans-116"/>
      <use x="177.490234" xlink:href="#DejaVuSans-117"/>
      <use x="240.869141" xlink:href="#DejaVuSans-109"/>
     </g>
    </g>
   </g>
   <g id="matplotlib.axis_2">
    <g id="ytick_1">
     <g id="line2d_17">
      <path clip-path="url(#p54bf90e38a)" d="M 90 307.876759 
L 648 307.876759 
" style="fill:none;stroke:#808080;stroke-dasharray:6.4,1.6,1,1.6;stroke-dashoffset:0;stroke-opacity:0.3;"/>
     </g>
     <g id="line2d_18">
      <defs>
       <path d="M 0 0 
L -3.5 0 
" id="mf67296c932" style="stroke:#000000;stroke-width:0.8;"/>
      </defs>
      <g>
       <use style="stroke:#000000;stroke-width:0.8;" x="90" xlink:href="#mf67296c932" y="307.876759"/>
      </g>
     </g>
     <g id="text_10">
      <!-- 0 -->
      <g transform="translate(76.6375 311.675978)scale(0.1 -0.1)">
       <use xlink:href="#DejaVuSans-48"/>
      </g>
     </g>
    </g>
    <g id="ytick_2">
     <g id="line2d_19">
      <path clip-path="url(#p54bf90e38a)" d="M 90 269.497228 
L 648 269.497228 
" style="fill:none;stroke:#808080;stroke-dasharray:6.4,1.6,1,1.6;stroke-dashoffset:0;stroke-opacity:0.3;"/>
     </g>
     <g id="line2d_20">
      <g>
       <use style="stroke:#000000;stroke-width:0.8;" x="90" xlink:href="#mf67296c932" y="269.497228"/>
      </g>
     </g>
     <g id="text_11">
      <!-- 500 -->
      <g transform="translate(63.9125 273.296447)scale(0.1 -0.1)">
       <use xlink:href="#DejaVuSans-53"/>
       <use x="63.623047" xlink:href="#DejaVuSans-48"/>
       <use x="127.246094" xlink:href="#DejaVuSans-48"/>
      </g>
     </g>
    </g>
    <g id="ytick_3">
     <g id="line2d_21">
      <path clip-path="url(#p54bf90e38a)" d="M 90 231.117697 
L 648 231.117697 
" style="fill:none;stroke:#808080;stroke-dasharray:6.4,1.6,1,1.6;stroke-dashoffset:0;stroke-opacity:0.3;"/>
     </g>
     <g id="line2d_22">
      <g>
       <use style="stroke:#000000;stroke-width:0.8;" x="90" xlink:href="#mf67296c932" y="231.117697"/>
      </g>
     </g>
     <g id="text_12">
      <!-- 1000 -->
      <g transform="translate(57.55 234.916916)scale(0.1 -0.1)">
       <use xlink:href="#DejaVuSans-49"/>
       <use x="63.623047" xlink:href="#DejaVuSans-48"/>
       <use x="127.246094" xlink:href="#DejaVuSans-48"/>
       <use x="190.869141" xlink:href="#DejaVuSans-48"/>
      </g>
     </g>
    </g>
    <g id="ytick_4">
     <g id="line2d_23">
      <path clip-path="url(#p54bf90e38a)" d="M 90 192.738166 
L 648 192.738166 
" style="fill:none;stroke:#808080;stroke-dasharray:6.4,1.6,1,1.6;stroke-dashoffset:0;stroke-opacity:0.3;"/>
     </g>
     <g id="line2d_24">
      <g>
       <use style="stroke:#000000;stroke-width:0.8;" x="90" xlink:href="#mf67296c932" y="192.738166"/>
      </g>
     </g>
     <g id="text_13">
      <!-- 1500 -->
      <g transform="translate(57.55 196.537385)scale(0.1 -0.1)">
       <use xlink:href="#DejaVuSans-49"/>
       <use x="63.623047" xlink:href="#DejaVuSans-53"/>
       <use x="127.246094" xlink:href="#DejaVuSans-48"/>
       <use x="190.869141" xlink:href="#DejaVuSans-48"/>
      </g>
     </g>
    </g>
    <g id="ytick_5">
     <g id="line2d_25">
      <path clip-path="url(#p54bf90e38a)" d="M 90 154.358635 
L 648 154.358635 
" style="fill:none;stroke:#808080;stroke-dasharray:6.4,1.6,1,1.6;stroke-dashoffset:0;stroke-opacity:0.3;"/>
     </g>
     <g id="line2d_26">
      <g>
       <use style="stroke:#000000;stroke-width:0.8;" x="90" xlink:href="#mf67296c932" y="154.358635"/>
      </g>
     </g>
     <g id="text_14">
      <!-- 2000 -->
      <g transform="translate(57.55 158.157854)scale(0.1 -0.1)">
       <use xlink:href="#DejaVuSans-50"/>
       <use x="63.623047" xlink:href="#DejaVuSans-48"/>
       <use x="127.246094" xlink:href="#DejaVuSans-48"/>
       <use x="190.869141" xlink:href="#DejaVuSans-48"/>
      </g>
     </g>
    </g>
    <g id="ytick_6">
     <g id="line2d_27">
      <path clip-path="url(#p54bf90e38a)" d="M 90 115.979104 
L 648 115.979104 
" style="fill:none;stroke:#808080;stroke-dasharray:6.4,1.6,1,1.6;stroke-dashoffset:0;stroke-opacity:0.3;"/>
     </g>
     <g id="line2d_28">
      <g>
       <use style="stroke:#000000;stroke-width:0.8;" x="90" xlink:href="#mf67296c932" y="115.979104"/>
      </g>
     </g>
     <g id="text_15">
      <!-- 2500 -->
      <g transform="translate(57.55 119.778323)scale(0.1 -0.1)">
       <use xlink:href="#DejaVuSans-50"/>
       <use x="63.623047" xlink:href="#DejaVuSans-53"/>
       <use x="127.246094" xlink:href="#DejaVuSans-48"/>
       <use x="190.869141" xlink:href="#DejaVuSans-48"/>
      </g>
     </g>
    </g>
    <g id="ytick_7">
     <g id="line2d_29">
      <path clip-path="url(#p54bf90e38a)" d="M 90 77.599574 
L 648 77.599574 
" style="fill:none;stroke:#808080;stroke-dasharray:6.4,1.6,1,1.6;stroke-dashoffset:0;stroke-opacity:0.3;"/>
     </g>
     <g id="line2d_30">
      <g>
       <use style="stroke:#000000;stroke-width:0.8;" x="90" xlink:href="#mf67296c932" y="77.599574"/>
      </g>
     </g>
     <g id="text_16">
      <!-- 3000 -->
      <g transform="translate(57.55 81.398792)scale(0.1 -0.1)">
       <use xlink:href="#DejaVuSans-51"/>
       <use x="63.623047" xlink:href="#DejaVuSans-48"/>
       <use x="127.246094" xlink:href="#DejaVuSans-48"/>
       <use x="190.869141" xlink:href="#DejaVuSans-48"/>
      </g>
     </g>
    </g>
   </g>
   <g id="line2d_31">
    <path clip-path="url(#p54bf90e38a)" d="M 115.363636 303.194456 
L 116.495942 302.88742 
L 117.628247 302.88742 
L 118.760552 302.350107 
L 119.892857 301.505757 
L 121.025162 300.968443 
L 122.157468 300.047335 
L 123.289773 299.356503 
L 124.422078 297.97484 
L 125.554383 297.360768 
L 126.686688 295.979104 
L 128.951299 292.141151 
L 130.083604 289.454584 
L 131.215909 286.153945 
L 132.348214 280.934328 
L 133.480519 277.863966 
L 134.612825 274.179531 
L 135.74513 263.970576 
L 136.877435 257.522814 
L 138.00974 247.697655 
L 139.142045 231.655011 
L 140.274351 218.375693 
L 141.406656 212.234968 
L 142.538961 204.405544 
L 143.671266 179.30533 
L 144.803571 159.962047 
L 145.935877 143.228571 
L 147.068182 128.183795 
L 148.200487 108.14968 
L 149.332792 112.908742 
L 150.465097 116.516418 
L 151.597403 105.309595 
L 152.729708 110.913006 
L 153.862013 118.281876 
L 154.994318 120.047335 
L 156.126623 119.58678 
L 157.258929 135.782942 
L 158.391234 139.544136 
L 159.523539 130.333049 
L 161.788149 151.902345 
L 162.920455 165.41194 
L 164.05276 172.243497 
L 165.185065 186.597441 
L 166.31737 190.895949 
L 167.449675 191.510021 
L 168.581981 190.588913 
L 169.714286 197.34371 
L 170.846591 205.710448 
L 171.978896 208.934328 
L 173.111201 219.910874 
L 174.243506 221.829851 
L 175.375812 218.60597 
L 176.508117 222.290405 
L 177.640422 228.661407 
L 178.772727 231.808529 
L 179.905032 236.107036 
L 181.037338 245.701919 
L 182.169643 247.927932 
L 183.301948 249.002559 
L 184.434253 247.697655 
L 185.566558 252.303198 
L 186.698864 254.222175 
L 187.831169 258.290405 
L 188.963474 264.661407 
L 190.095779 265.966311 
L 191.228084 262.205117 
L 192.36039 267.501493 
L 193.492695 266.350107 
L 194.625 268.192324 
L 195.757305 268.49936 
L 196.88961 272.183795 
L 198.021916 273.488699 
L 199.154221 271.185928 
L 200.286526 273.488699 
L 201.418831 275.330917 
L 202.551136 278.017484 
L 203.683442 279.629424 
L 204.815747 283.083582 
L 205.948052 282.008955 
L 207.080357 279.552665 
L 208.212662 281.318124 
L 209.344968 282.315991 
L 210.477273 285.002559 
L 211.609578 282.699787 
L 212.741883 285.616631 
L 213.874188 286.230704 
L 215.006494 283.544136 
L 216.138799 284.08145 
L 217.271104 286.384222 
L 218.403409 287.842644 
L 219.535714 287.612367 
L 220.668019 288.917271 
L 221.800325 289.301066 
L 222.93263 288.99403 
L 224.064935 287.30533 
L 225.19724 287.919403 
L 226.329545 289.070789 
L 227.461851 290.452452 
L 228.594156 293.06226 
L 230.858766 293.139019 
L 231.991071 294.6742 
L 233.123377 295.902345 
L 234.255682 295.51855 
L 235.387987 296.209382 
L 236.520292 297.667804 
L 237.652597 297.744563 
L 238.784903 297.514286 
L 239.917208 297.514286 
L 241.049513 298.128358 
L 242.181818 298.051599 
L 243.314123 298.358635 
L 244.446429 299.817058 
L 245.578734 299.740299 
L 246.711039 299.510021 
L 247.843344 299.433262 
L 248.975649 299.510021 
L 250.107955 298.895949 
L 251.24026 299.202985 
L 252.372565 300.814925 
L 253.50487 300.661407 
L 254.637175 299.970576 
L 255.769481 301.121962 
L 256.901786 301.27548 
L 258.034091 301.812793 
L 259.166396 301.812793 
L 260.298701 302.503625 
L 263.695617 301.736034 
L 264.827922 301.889552 
L 265.960227 301.889552 
L 267.092532 301.121962 
L 268.224838 301.736034 
L 269.357143 301.736034 
L 270.489448 301.27548 
L 271.621753 301.198721 
L 272.754058 301.736034 
L 273.886364 302.04307 
L 275.018669 302.196588 
L 276.150974 301.659275 
L 278.415584 301.121962 
L 279.54789 301.045203 
L 280.680195 301.889552 
L 281.8125 301.505757 
L 282.944805 301.659275 
L 285.209416 301.27548 
L 286.341721 300.584648 
L 287.474026 300.354371 
L 288.606331 301.121962 
L 290.870942 300.507889 
L 292.003247 300.43113 
L 294.267857 298.972708 
L 295.400162 299.510021 
L 296.532468 299.817058 
L 297.664773 299.817058 
L 299.929383 298.895949 
L 301.061688 297.97484 
L 302.193994 297.284009 
L 303.326299 295.672068 
L 304.458604 295.288273 
L 306.723214 295.672068 
L 307.855519 295.979104 
L 308.987825 295.365032 
L 310.12013 294.060128 
L 311.252435 294.443923 
L 312.38474 294.290405 
L 313.517045 293.446055 
L 314.649351 293.90661 
L 315.781656 295.441791 
L 316.913961 295.365032 
L 318.046266 295.057996 
L 319.178571 294.520682 
L 320.310877 295.288273 
L 321.443182 296.516418 
L 322.575487 296.3629 
L 323.707792 297.667804 
L 324.840097 297.591045 
L 325.972403 296.669936 
L 327.104708 296.746695 
L 328.237013 296.286141 
L 329.369318 296.669936 
L 330.501623 296.055864 
L 331.633929 296.132623 
L 333.898539 293.06226 
L 335.030844 291.987633 
L 336.163149 290.529211 
L 337.295455 290.913006 
L 338.42776 289.454584 
L 339.560065 289.684861 
L 340.69237 288.686994 
L 341.824675 285.539872 
L 342.956981 284.849041 
L 344.089286 282.776546 
L 345.221591 281.394883 
L 346.353896 278.478038 
L 348.618506 275.561194 
L 349.750812 271.569723 
L 350.883117 269.34371 
L 352.015422 266.273348 
L 353.147727 262.512154 
L 354.280032 260.286141 
L 355.412338 260.593177 
L 356.544643 258.060128 
L 357.676948 253.915139 
L 358.809253 251.075053 
L 359.941558 249.616631 
L 361.073864 247.313859 
L 362.206169 245.471642 
L 363.338474 243.936461 
L 364.470779 240.635821 
L 365.603084 232.729638 
L 366.73539 229.352239 
L 367.867695 227.663539 
L 369 225.744563 
L 370.132305 220.064392 
L 371.26461 221.599574 
L 372.396916 217.301066 
L 373.529221 206.017484 
L 374.661526 198.341578 
L 375.793831 198.802132 
L 376.926136 196.576119 
L 378.058442 192.354371 
L 379.190747 193.198721 
L 380.323052 191.049467 
L 381.455357 179.228571 
L 382.587662 174.546269 
L 383.719968 172.243497 
L 384.852273 167.023881 
L 385.984578 160.49936 
L 387.116883 165.872495 
L 388.249188 160.576119 
L 389.381494 148.371429 
L 390.513799 147.987633 
L 391.646104 149.139019 
L 392.778409 151.441791 
L 393.910714 149.829851 
L 395.043019 155.663539 
L 396.175325 154.128358 
L 397.30763 137.932196 
L 398.439935 142.000426 
L 399.57224 146.836247 
L 401.836851 158.273348 
L 402.969156 169.710448 
L 404.101461 171.092111 
L 405.233766 160.422601 
L 406.366071 164.951386 
L 407.498377 168.098507 
L 408.630682 171.782942 
L 409.762987 173.164606 
L 410.895292 183.296802 
L 412.027597 183.603838 
L 413.159903 172.320256 
L 414.292208 174.392751 
L 415.424513 178.691258 
L 416.556818 183.680597 
L 417.689123 190.281876 
L 418.821429 197.573987 
L 419.953734 195.040938 
L 421.086039 185.139019 
L 422.218344 188.669936 
L 423.350649 194.04307 
L 424.482955 193.505757 
L 425.61526 194.273348 
L 426.747565 201.872495 
L 427.87987 201.41194 
L 429.012175 194.810661 
L 430.144481 198.18806 
L 431.276786 200.721109 
L 432.409091 200.337313 
L 433.541396 197.727505 
L 434.673701 201.488699 
L 435.806006 198.571855 
L 436.938312 190.051599 
L 439.202922 192.738166 
L 440.335227 192.891684 
L 441.467532 187.288273 
L 442.599838 189.207249 
L 443.732143 185.139019 
L 444.864448 172.166738 
L 445.996753 172.704051 
L 447.129058 170.247761 
L 448.261364 166.563326 
L 449.393669 162.341578 
L 450.525974 169.633689 
L 451.658279 168.328785 
L 452.790584 153.360768 
L 453.92289 151.902345 
L 455.055195 149.753092 
L 456.1875 148.141151 
L 457.319805 155.893817 
L 458.45211 152.823454 
L 459.584416 145.83838 
L 460.716721 124.115565 
L 461.849026 125.036674 
L 462.981331 128.183795 
L 464.113636 134.32452 
L 465.245942 146.759488 
L 466.378247 142.768017 
L 467.510552 141.079318 
L 468.642857 131.561194 
L 469.775162 134.247761 
L 473.172078 147.296802 
L 474.304383 160.49936 
L 475.436688 159.962047 
L 476.568994 149.522814 
L 477.701299 154.512154 
L 479.965909 163.646482 
L 481.098214 165.028145 
L 482.230519 174.699787 
L 483.362825 178.153945 
L 484.49513 168.328785 
L 485.627435 169.019616 
L 486.75974 174.930064 
L 487.892045 174.699787 
L 489.024351 176.158209 
L 490.156656 181.83838 
L 491.288961 181.070789 
L 492.421266 173.471642 
L 493.553571 176.849041 
L 494.685877 181.531343 
L 495.818182 184.29467 
L 496.950487 182.913006 
L 498.082792 188.3629 
L 499.215097 185.676333 
L 500.347403 177.616631 
L 501.479708 180.379957 
L 502.612013 184.985501 
L 503.744318 187.134755 
L 504.876623 187.979104 
L 506.008929 197.650746 
L 507.141234 199.109168 
L 508.273539 190.665672 
L 509.405844 192.661407 
L 510.538149 192.43113 
L 511.670455 193.198721 
L 512.80276 195.040938 
L 513.935065 202.793603 
L 515.06737 202.25629 
L 516.199675 193.736034 
L 517.331981 195.424733 
L 518.464286 196.576119 
L 519.596591 195.808529 
L 520.728896 197.497228 
L 521.861201 204.482303 
L 522.993506 204.559062 
L 524.125812 195.501493 
L 525.258117 196.652878 
L 526.390422 198.264819 
L 527.522727 200.797868 
L 528.655032 201.718977 
L 529.787338 205.863966 
L 530.919643 204.635821 
L 532.051948 195.040938 
L 533.184253 196.192324 
L 534.316558 199.569723 
L 536.581169 202.102772 
L 537.713474 208.704051 
L 538.845779 207.092111 
L 539.978084 197.957783 
L 541.11039 198.111301 
L 542.242695 200.414072 
L 543.375 201.41194 
L 544.507305 200.874627 
L 545.63961 203.86823 
L 546.771916 201.565458 
L 547.904221 191.970576 
L 549.036526 191.279744 
L 550.168831 192.584648 
L 551.301136 189.514286 
L 552.433442 189.284009 
L 553.565747 193.505757 
L 554.698052 189.667804 
L 555.830357 179.38209 
L 556.962662 181.83838 
L 558.094968 180.533475 
L 559.227273 180.763753 
L 560.359578 179.151812 
L 561.491883 184.755224 
L 562.624188 183.527079 
L 563.756494 169.403412 
L 564.888799 170.785075 
L 566.021104 173.471642 
L 567.153409 172.550533 
L 568.285714 177.923667 
L 569.418019 185.215778 
L 570.550325 183.757356 
L 571.68263 177.923667 
L 572.814935 169.633689 
L 573.94724 170.708316 
L 575.079545 173.394883 
L 576.211851 172.320256 
L 577.344156 179.458849 
L 578.476461 178.230704 
L 579.608766 172.78081 
L 580.741071 176.772281 
L 581.873377 179.075053 
L 583.005682 180.533475 
L 584.137987 177.309595 
L 585.270292 182.913006 
L 586.402597 180.379957 
L 587.534903 165.642217 
L 588.667208 165.181663 
L 589.799513 165.028145 
L 590.931818 165.565458 
L 592.064123 167.177399 
L 593.196429 176.695522 
L 594.328734 174.623028 
L 595.461039 162.495096 
L 596.593344 169.249893 
L 597.725649 158.964179 
L 598.857955 156.814925 
L 599.99026 157.428998 
L 601.122565 167.023881 
L 602.25487 170.247761 
L 603.387175 162.725373 
L 604.519481 166.486567 
L 605.651786 175.006823 
L 606.784091 173.241365 
L 607.916396 172.473774 
L 609.048701 181.224307 
L 610.181006 182.913006 
L 611.313312 175.006823 
L 612.445617 179.30533 
L 613.577922 184.448188 
L 614.710227 194.196588 
L 615.842532 189.053731 
L 616.974838 196.729638 
L 618.107143 198.18806 
L 619.239448 191.433262 
L 620.371753 195.117697 
L 621.504058 202.409808 
L 622.636364 213.002559 
L 622.636364 213.002559 
" style="fill:none;stroke:#ff0000;stroke-linecap:square;stroke-width:1.5;"/>
   </g>
   <g id="line2d_32">
    <path clip-path="url(#p54bf90e38a)" d="M 115.363636 307.8 
L 116.495942 307.185928 
L 117.628247 307.109168 
L 118.760552 306.341578 
L 119.892857 305.266951 
L 121.025162 304.806397 
L 123.289773 302.88742 
L 124.422078 301.966311 
L 126.686688 299.58678 
L 128.951299 294.520682 
L 130.083604 291.373561 
L 133.480519 275.330917 
L 134.612825 269.497228 
L 136.877435 248.388486 
L 138.00974 233.727505 
L 140.274351 194.119829 
L 142.538961 164.260554 
L 143.671266 135.629424 
L 144.803571 112.601706 
L 145.935877 92.107036 
L 147.068182 81.284009 
L 148.200487 60.252026 
L 149.332792 55.8 
L 150.465097 55.8 
L 151.597403 59.791471 
L 153.862013 81.821322 
L 154.994318 92.414072 
L 156.126623 113.599574 
L 157.258929 110.60597 
L 158.391234 133.633689 
L 159.523539 84.354371 
L 160.655844 99.629424 
L 161.788149 88.038806 
L 162.920455 98.094243 
L 164.05276 102.546269 
L 165.185065 101.778678 
L 166.31737 113.522814 
L 167.449675 122.503625 
L 168.581981 124.345842 
L 169.714286 127.109168 
L 170.846591 125.420469 
L 171.978896 132.405544 
L 173.111201 133.940725 
L 174.243506 142.921535 
L 175.375812 141.69339 
L 176.508117 142.307463 
L 177.640422 149.06226 
L 178.772727 165.41194 
L 179.905032 172.397015 
L 181.037338 173.855437 
L 182.169643 177.079318 
L 183.301948 183.066525 
L 184.434253 187.441791 
L 185.566558 186.981237 
L 186.698864 194.964179 
L 187.831169 195.194456 
L 188.963474 193.198721 
L 190.095779 201.949254 
L 191.228084 205.55693 
L 192.36039 205.55693 
L 193.492695 204.098507 
L 194.625 209.164606 
L 195.757305 216.610235 
L 196.88961 220.985501 
L 198.021916 226.972708 
L 199.154221 222.060128 
L 200.286526 222.6742 
L 201.418831 228.738166 
L 202.551136 228.891684 
L 203.683442 232.576119 
L 204.815747 233.34371 
L 205.948052 237.335181 
L 207.080357 238.102772 
L 208.212662 236.260554 
L 210.477273 237.949254 
L 212.741883 245.62516 
L 213.874188 251.842644 
L 215.006494 249.846908 
L 216.138799 254.298934 
L 217.271104 252.379957 
L 218.403409 254.529211 
L 219.535714 260.439659 
L 220.668019 262.665672 
L 221.800325 266.119829 
L 222.93263 266.273348 
L 224.064935 268.269083 
L 225.19724 269.804264 
L 226.329545 270.95565 
L 228.594156 272.874627 
L 229.726461 273.872495 
L 230.858766 277.173134 
L 231.991071 281.318124 
L 233.123377 282.315991 
L 234.255682 285.079318 
L 235.387987 286.460981 
L 236.520292 285.69339 
L 237.652597 286.614499 
L 238.784903 286.307463 
L 239.917208 286.384222 
L 241.049513 285.69339 
L 243.314123 289.83838 
L 244.446429 290.989765 
L 245.578734 290.913006 
L 246.711039 292.985501 
L 247.843344 291.680597 
L 248.975649 292.755224 
L 250.107955 294.213646 
L 251.24026 293.292537 
L 252.372565 294.060128 
L 253.50487 294.213646 
L 254.637175 295.825586 
L 255.769481 295.595309 
L 256.901786 296.3629 
L 258.034091 298.281876 
L 259.166396 299.970576 
L 260.298701 302.119829 
L 261.431006 301.198721 
L 262.563312 301.659275 
L 263.695617 301.812793 
L 265.960227 302.503625 
L 267.092532 302.580384 
L 268.224838 301.966311 
L 269.357143 301.505757 
L 270.489448 300.661407 
L 271.621753 300.661407 
L 272.754058 301.352239 
L 273.886364 301.736034 
L 275.018669 302.273348 
L 276.150974 301.889552 
L 277.283279 302.273348 
L 279.54789 300.968443 
L 280.680195 301.352239 
L 281.8125 300.891684 
L 282.944805 302.196588 
L 284.07711 300.891684 
L 285.209416 302.733902 
L 286.341721 302.503625 
L 287.474026 301.966311 
L 288.606331 303.040938 
L 289.738636 302.810661 
L 290.870942 302.273348 
L 292.003247 302.733902 
L 293.135552 302.503625 
L 294.267857 301.582516 
L 295.400162 301.505757 
L 296.532468 301.121962 
L 297.664773 301.812793 
L 298.797078 301.889552 
L 299.929383 301.812793 
L 301.061688 301.198721 
L 302.193994 300.277612 
L 303.326299 300.43113 
L 304.458604 298.895949 
L 305.590909 298.128358 
L 306.723214 298.665672 
L 307.855519 298.358635 
L 308.987825 298.512154 
L 311.252435 297.97484 
L 312.38474 298.281876 
L 313.517045 297.284009 
L 314.649351 297.667804 
L 316.913961 297.97484 
L 318.046266 298.588913 
L 320.310877 298.665672 
L 321.443182 299.663539 
L 322.575487 300.200853 
L 323.707792 300.507889 
L 324.840097 300.661407 
L 327.104708 300.738166 
L 328.237013 300.968443 
L 329.369318 300.584648 
L 330.501623 300.584648 
L 331.633929 300.277612 
L 332.766234 299.817058 
L 333.898539 299.510021 
L 338.42776 297.437527 
L 339.560065 297.284009 
L 340.69237 296.516418 
L 341.824675 295.134755 
L 342.956981 293.522814 
L 344.089286 293.215778 
L 345.221591 291.603838 
L 346.353896 290.222175 
L 347.486201 287.919403 
L 348.618506 286.691258 
L 349.750812 282.930064 
L 350.883117 282.623028 
L 352.015422 279.399147 
L 353.147727 277.55693 
L 354.280032 274.793603 
L 355.412338 274.640085 
L 356.544643 270.264819 
L 357.676948 268.115565 
L 358.809253 265.582516 
L 359.941558 265.582516 
L 361.073864 266.503625 
L 362.206169 263.893817 
L 363.338474 262.972708 
L 365.603084 252.99403 
L 366.73539 247.620896 
L 367.867695 245.62516 
L 369 243.245629 
L 371.26461 234.571855 
L 372.396916 232.192324 
L 373.529221 227.58678 
L 374.661526 220.908742 
L 376.926136 214.768017 
L 378.058442 215.151812 
L 379.190747 214.53774 
L 381.455357 203.561194 
L 382.587662 197.34371 
L 383.719968 193.27548 
L 384.852273 189.667804 
L 385.984578 184.985501 
L 387.116883 183.987633 
L 388.249188 180.686994 
L 390.513799 167.484435 
L 391.646104 167.330917 
L 392.778409 167.330917 
L 393.910714 168.328785 
L 397.30763 157.582516 
L 398.439935 150.981237 
L 399.57224 157.428998 
L 400.704545 161.650746 
L 402.969156 171.092111 
L 404.101461 177.616631 
L 405.233766 176.08145 
L 406.366071 177.616631 
L 407.498377 179.612367 
L 408.630682 184.601706 
L 409.762987 187.211514 
L 410.895292 190.435394 
L 412.027597 192.047335 
L 413.159903 188.3629 
L 414.292208 187.365032 
L 415.424513 190.588913 
L 416.556818 194.657143 
L 418.821429 204.098507 
L 421.086039 197.957783 
L 422.218344 200.490832 
L 423.350649 207.322388 
L 424.482955 211.390618 
L 425.61526 211.851173 
L 426.747565 215.765885 
L 427.87987 216.226439 
L 429.012175 212.695522 
L 430.144481 215.38209 
L 431.276786 221.06226 
L 432.409091 220.601706 
L 433.541396 219.45032 
L 434.673701 221.139019 
L 435.806006 217.915139 
L 436.938312 216.533475 
L 438.070617 213.002559 
L 439.202922 214.921535 
L 440.335227 217.377825 
L 443.732143 210.392751 
L 444.864448 202.793603 
L 445.996753 198.111301 
L 447.129058 197.497228 
L 448.261364 195.271215 
L 450.525974 192.354371 
L 451.658279 190.205117 
L 452.790584 186.904478 
L 453.92289 177.156077 
L 455.055195 178.460981 
L 456.1875 176.465245 
L 457.319805 177.079318 
L 458.45211 174.776546 
L 459.584416 169.940725 
L 460.716721 160.345842 
L 461.849026 148.448188 
L 462.981331 154.205117 
L 464.113636 146.375693 
L 465.245942 157.659275 
L 466.378247 153.97484 
L 467.510552 153.898081 
L 468.642857 144.379957 
L 469.775162 142.153945 
L 470.907468 144.303198 
L 472.039773 150.367164 
L 473.172078 159.271215 
L 474.304383 164.030277 
L 475.436688 165.872495 
L 476.568994 160.038806 
L 477.701299 158.580384 
L 478.833604 168.098507 
L 479.965909 168.635821 
L 481.098214 170.938593 
L 482.230519 177.846908 
L 483.362825 176.772281 
L 484.49513 174.008955 
L 485.627435 172.243497 
L 486.75974 176.695522 
L 487.892045 179.919403 
L 489.024351 178.614499 
L 490.156656 182.529211 
L 491.288961 179.919403 
L 492.421266 175.851173 
L 493.553571 177.002559 
L 495.818182 185.446055 
L 496.950487 187.211514 
L 498.082792 185.06226 
L 499.215097 187.134755 
L 500.347403 182.682729 
L 501.479708 181.991898 
L 502.612013 184.985501 
L 503.744318 191.279744 
L 506.008929 197.650746 
L 507.141234 196.959915 
L 508.273539 193.352239 
L 509.405844 195.808529 
L 510.538149 196.038806 
L 512.80276 202.716844 
L 513.935065 206.171002 
L 515.06737 205.863966 
L 516.199675 201.488699 
L 517.331981 200.414072 
L 518.464286 200.490832 
L 519.596591 199.8 
L 520.728896 197.881023 
L 521.861201 205.326652 
L 522.993506 206.938593 
L 525.258117 202.026013 
L 526.390422 204.252026 
L 527.522727 203.407676 
L 528.655032 205.096375 
L 529.787338 208.78081 
L 530.919643 206.401279 
L 532.051948 202.333049 
L 533.184253 197.036674 
L 534.316558 200.64435 
L 536.581169 202.716844 
L 537.713474 206.478038 
L 538.845779 207.629424 
L 539.978084 204.482303 
L 541.11039 199.876759 
L 542.242695 204.021748 
L 543.375 204.021748 
L 544.507305 205.480171 
L 545.63961 206.478038 
L 546.771916 202.870362 
L 547.904221 196.192324 
L 549.036526 196.49936 
L 550.168831 198.571855 
L 551.301136 197.650746 
L 552.433442 195.655011 
L 553.565747 196.959915 
L 554.698052 195.655011 
L 555.830357 188.516418 
L 556.962662 186.981237 
L 558.094968 187.979104 
L 559.227273 187.134755 
L 560.359578 185.369296 
L 562.624188 185.599574 
L 563.756494 179.919403 
L 564.888799 175.2371 
L 566.021104 180.99403 
L 568.285714 183.143284 
L 569.418019 183.987633 
L 570.550325 186.060128 
L 571.68263 182.913006 
L 572.814935 173.701919 
L 573.94724 171.092111 
L 575.079545 175.313859 
L 576.211851 176.542004 
L 577.344156 177.079318 
L 578.476461 175.160341 
L 579.608766 170.631557 
L 580.741071 172.78081 
L 581.873377 176.234968 
L 583.005682 178.307463 
L 584.137987 177.539872 
L 585.270292 183.066525 
L 586.402597 179.689126 
L 587.534903 175.006823 
L 588.667208 167.407676 
L 589.799513 170.32452 
L 590.931818 166.409808 
L 592.064123 171.552665 
L 593.196429 177.539872 
L 594.328734 178.077186 
L 595.461039 172.857569 
L 597.725649 169.940725 
L 598.857955 162.725373 
L 599.99026 162.111301 
L 601.122565 167.637953 
L 602.25487 170.017484 
L 603.387175 168.405544 
L 604.519481 170.094243 
L 605.651786 176.234968 
L 606.784091 174.008955 
L 607.916396 175.544136 
L 609.048701 177.386354 
L 610.181006 179.842644 
L 611.313312 175.083582 
L 612.445617 174.930064 
L 613.577922 184.524947 
L 614.710227 192.891684 
L 615.842532 191.049467 
L 616.974838 194.810661 
L 618.107143 195.347974 
L 619.239448 192.584648 
L 620.371753 192.507889 
L 621.504058 203.10064 
L 622.636364 209.778678 
L 622.636364 209.778678 
" style="fill:none;stroke:#ffa500;stroke-linecap:square;stroke-width:1.5;"/>
   </g>
   <g id="line2d_33">
    <path clip-path="url(#p54bf90e38a)" d="M 173.111201 280.550533 
L 174.243506 281.394883 
L 175.375812 281.471642 
L 176.508117 277.326652 
L 177.640422 277.55693 
L 178.772727 278.017484 
L 179.905032 278.094243 
L 181.037338 278.32452 
L 182.169643 277.55693 
L 183.301948 279.706183 
L 185.566558 274.793603 
L 186.698864 274.716844 
L 187.831169 275.177399 
L 188.963474 275.791471 
L 190.095779 278.554797 
L 191.228084 278.938593 
L 192.36039 277.633689 
L 193.492695 277.403412 
L 194.625 274.102772 
L 195.757305 276.098507 
L 196.88961 273.335181 
L 199.154221 278.094243 
L 200.286526 272.414072 
L 201.418831 271.492964 
L 202.551136 269.727505 
L 203.683442 267.424733 
L 204.815747 267.808529 
L 205.948052 270.878891 
L 207.080357 271.262687 
L 208.212662 267.73177 
L 209.344968 267.424733 
L 210.477273 266.350107 
L 211.609578 270.95565 
L 212.741883 269.113433 
L 215.006494 270.034542 
L 216.138799 269.573987 
L 217.271104 267.808529 
L 218.403409 264.968443 
L 219.535714 265.736034 
L 220.668019 267.117697 
L 221.800325 269.420469 
L 224.064935 271.339446 
L 225.19724 268.422601 
L 226.329545 264.354371 
L 227.461851 266.196588 
L 228.594156 265.736034 
L 229.726461 269.34371 
L 230.858766 266.964179 
L 231.991071 267.885288 
L 233.123377 266.810661 
L 234.255682 266.119829 
L 235.387987 265.121962 
L 236.520292 263.970576 
L 237.652597 268.269083 
L 238.784903 267.962047 
L 239.917208 264.124094 
L 241.049513 263.202985 
L 242.181818 264.277612 
L 243.314123 262.435394 
L 244.446429 261.667804 
L 245.578734 263.893817 
L 246.711039 268.576119 
L 247.843344 263.663539 
L 248.975649 264.507889 
L 250.107955 263.433262 
L 251.24026 263.049467 
L 252.372565 263.893817 
L 253.50487 266.350107 
L 254.637175 267.424733 
L 255.769481 264.968443 
L 258.034091 262.895949 
L 259.166396 262.81919 
L 260.298701 263.817058 
L 261.431006 266.196588 
L 262.563312 266.580384 
L 263.695617 266.657143 
L 264.827922 263.663539 
L 265.960227 262.895949 
L 267.092532 264.200853 
L 268.224838 264.738166 
L 269.357143 266.04307 
L 270.489448 267.885288 
L 271.621753 266.350107 
L 272.754058 263.893817 
L 273.886364 263.510021 
L 275.018669 263.510021 
L 276.150974 262.895949 
L 277.283279 264.277612 
L 278.415584 264.354371 
L 279.54789 263.433262 
L 280.680195 262.358635 
L 281.8125 263.126226 
L 282.944805 262.435394 
L 284.07711 262.128358 
L 285.209416 264.277612 
L 286.341721 268.269083 
L 287.474026 266.580384 
L 288.606331 265.812793 
L 289.738636 264.584648 
L 290.870942 263.893817 
L 292.003247 264.277612 
L 293.135552 265.505757 
L 294.267857 266.503625 
L 295.400162 264.584648 
L 296.532468 263.049467 
L 297.664773 261.97484 
L 298.797078 264.584648 
L 299.929383 263.663539 
L 301.061688 266.04307 
L 302.193994 264.047335 
L 303.326299 263.126226 
L 304.458604 260.823454 
L 305.590909 260.900213 
L 306.723214 263.510021 
L 307.855519 263.126226 
L 308.987825 263.510021 
L 310.12013 264.507889 
L 311.252435 261.514286 
L 312.38474 260.439659 
L 313.517045 262.281876 
L 314.649351 261.591045 
L 315.781656 262.512154 
L 316.913961 264.507889 
L 318.046266 265.505757 
L 319.178571 261.744563 
L 320.310877 260.132623 
L 321.443182 260.823454 
L 322.575487 261.284009 
L 323.707792 263.58678 
L 324.840097 265.045203 
L 325.972403 265.659275 
L 327.104708 262.665672 
L 328.237013 260.516418 
L 329.369318 262.435394 
L 330.501623 261.514286 
L 331.633929 262.051599 
L 332.766234 263.663539 
L 333.898539 265.505757 
L 335.030844 259.365032 
L 336.163149 260.593177 
L 337.295455 261.360768 
L 338.42776 261.13049 
L 339.560065 262.128358 
L 340.69237 263.970576 
L 341.824675 264.738166 
L 342.956981 260.209382 
L 344.089286 258.290405 
L 345.221591 259.057996 
L 346.353896 260.669936 
L 349.750812 266.810661 
L 350.883117 259.748827 
L 352.015422 259.134755 
L 353.147727 259.057996 
L 354.280032 262.742431 
L 355.412338 261.821322 
L 356.544643 264.968443 
L 357.676948 267.271215 
L 358.809253 262.81919 
L 361.073864 260.976972 
L 362.206169 262.281876 
L 363.338474 264.047335 
L 364.470779 266.733902 
L 365.603084 268.269083 
L 366.73539 263.663539 
L 367.867695 263.356503 
L 369 264.661407 
L 370.132305 264.584648 
L 371.26461 267.962047 
L 372.396916 270.341578 
L 373.529221 269.957783 
L 374.661526 266.273348 
L 375.793831 267.424733 
L 376.926136 269.266951 
L 378.058442 267.655011 
L 380.323052 272.567591 
L 381.455357 273.718977 
L 382.587662 271.032409 
L 383.719968 272.874627 
L 384.852273 272.567591 
L 385.984578 271.339446 
L 387.116883 274.793603 
L 388.249188 275.714712 
L 389.381494 274.793603 
L 390.513799 272.874627 
L 391.646104 272.414072 
L 392.778409 271.8 
L 393.910714 273.565458 
L 395.043019 273.181663 
L 396.175325 273.642217 
L 397.30763 276.021748 
L 398.439935 273.41194 
L 399.57224 271.416205 
L 401.836851 271.262687 
L 402.969156 272.107036 
L 404.101461 274.793603 
L 405.233766 273.795736 
L 406.366071 270.495096 
L 407.498377 271.032409 
L 408.630682 269.804264 
L 409.762987 270.648614 
L 410.895292 272.797868 
L 412.027597 274.333049 
L 413.159903 272.337313 
L 414.292208 271.569723 
L 416.556818 269.420469 
L 417.689123 269.804264 
L 418.821429 271.416205 
L 419.953734 273.565458 
L 421.086039 273.258422 
L 422.218344 270.18806 
L 423.350649 268.345842 
L 424.482955 268.269083 
L 425.61526 268.49936 
L 427.87987 273.335181 
L 429.012175 271.416205 
L 430.144481 269.036674 
L 432.409091 265.121962 
L 433.541396 265.659275 
L 434.673701 268.269083 
L 435.806006 269.34371 
L 436.938312 269.420469 
L 438.070617 265.428998 
L 439.202922 265.505757 
L 440.335227 266.964179 
L 441.467532 265.889552 
L 442.599838 268.729638 
L 443.732143 271.185928 
L 444.864448 267.73177 
L 445.996753 267.194456 
L 447.129058 266.119829 
L 448.261364 268.959915 
L 449.393669 269.727505 
L 450.525974 270.802132 
L 451.658279 274.793603 
L 452.790584 274.947122 
L 453.92289 271.876759 
L 455.055195 274.179531 
L 456.1875 274.409808 
L 457.319805 275.86823 
L 458.45211 279.322388 
L 459.584416 278.171002 
L 460.716721 279.475906 
L 461.849026 275.944989 
L 462.981331 275.484435 
L 464.113636 276.405544 
L 465.245942 278.017484 
L 466.378247 278.785075 
L 467.510552 280.243497 
L 469.775162 277.480171 
L 470.907468 274.486567 
L 472.039773 275.637953 
L 473.172078 275.177399 
L 474.304383 275.637953 
L 475.436688 278.785075 
L 476.568994 278.478038 
L 477.701299 275.86823 
L 478.833604 275.944989 
L 479.965909 273.104904 
L 481.098214 273.181663 
L 482.230519 274.026013 
L 483.362825 277.710448 
L 484.49513 277.326652 
L 485.627435 273.795736 
L 486.75974 273.565458 
L 487.892045 272.567591 
L 489.024351 272.874627 
L 490.156656 272.64435 
L 491.288961 275.944989 
L 492.421266 275.944989 
L 493.553571 272.107036 
L 494.685877 270.111301 
L 495.818182 269.881023 
L 496.950487 272.721109 
L 498.082792 271.723241 
L 499.215097 273.028145 
L 500.347403 275.177399 
L 501.479708 271.723241 
L 503.744318 270.571855 
L 504.876623 270.264819 
L 506.008929 270.418337 
L 507.141234 272.414072 
L 508.273539 272.951386 
L 509.405844 272.951386 
L 510.538149 268.652878 
L 511.670455 268.192324 
L 512.80276 269.113433 
L 513.935065 267.808529 
L 515.06737 271.8 
L 517.331981 267.347974 
L 518.464286 268.269083 
L 519.596591 268.652878 
L 520.728896 268.345842 
L 521.861201 269.34371 
L 522.993506 272.490832 
L 524.125812 274.179531 
L 525.258117 271.032409 
L 526.390422 268.883156 
L 527.522727 269.573987 
L 528.655032 270.034542 
L 529.787338 271.8 
L 530.919643 277.096375 
L 532.051948 274.563326 
L 533.184253 272.567591 
L 534.316558 272.951386 
L 535.448864 270.648614 
L 536.581169 270.18806 
L 537.713474 271.032409 
L 538.845779 274.793603 
L 539.978084 272.797868 
L 541.11039 269.650746 
L 542.242695 270.95565 
L 543.375 270.341578 
L 544.507305 269.420469 
L 545.63961 271.109168 
L 546.771916 275.023881 
L 547.904221 274.026013 
L 549.036526 271.569723 
L 550.168831 270.18806 
L 551.301136 271.262687 
L 552.433442 271.032409 
L 553.565747 272.874627 
L 554.698052 276.559062 
L 556.962662 271.416205 
L 558.094968 270.802132 
L 560.359578 272.567591 
L 561.491883 273.181663 
L 562.624188 277.019616 
L 563.756494 274.793603 
L 564.888799 273.104904 
L 566.021104 274.179531 
L 567.153409 274.640085 
L 568.285714 275.714712 
L 569.418019 276.635821 
L 570.550325 279.706183 
L 571.68263 279.552665 
L 572.814935 278.171002 
L 573.94724 274.947122 
L 575.079545 274.486567 
L 576.211851 275.561194 
L 577.344156 276.866098 
L 578.476461 279.092111 
L 579.608766 278.171002 
L 580.741071 273.028145 
L 581.873377 274.870362 
L 583.005682 275.561194 
L 584.137987 275.177399 
L 585.270292 276.175267 
L 586.402597 278.938593 
L 587.534903 277.633689 
L 588.667208 275.254158 
L 589.799513 275.023881 
L 590.931818 275.714712 
L 592.064123 274.026013 
L 593.196429 276.175267 
L 594.328734 278.631557 
L 595.461039 276.866098 
L 596.593344 275.637953 
L 597.725649 276.71258 
L 598.857955 274.102772 
L 599.99026 275.407676 
L 601.122565 276.942857 
L 602.25487 279.782942 
L 603.387175 279.782942 
L 604.519481 276.559062 
L 605.651786 276.71258 
L 606.784091 276.482303 
L 607.916396 276.942857 
L 609.048701 276.71258 
L 611.313312 278.32452 
L 612.445617 273.795736 
L 613.577922 271.262687 
L 614.710227 275.484435 
L 615.842532 276.098507 
L 616.974838 273.949254 
L 618.107143 274.947122 
L 619.239448 275.10064 
L 620.371753 271.339446 
L 621.504058 271.109168 
L 622.636364 270.571855 
L 622.636364 270.571855 
" style="fill:none;stroke:#0000ff;stroke-linecap:square;stroke-width:1.5;"/>
   </g>
   <g id="line2d_34">
    <path clip-path="url(#p54bf90e38a)" d="M 115.363636 307.339446 
L 121.025162 306.95565 
L 122.157468 306.725373 
L 123.289773 306.725373 
L 124.422078 306.418337 
L 125.554383 306.264819 
L 128.951299 304.883156 
L 130.083604 304.192324 
L 131.215909 302.657143 
L 132.348214 301.812793 
L 133.480519 300.507889 
L 134.612825 298.665672 
L 136.877435 294.136887 
L 138.00974 290.375693 
L 139.142045 285.846908 
L 141.406656 274.870362 
L 142.538961 271.032409 
L 143.671266 263.893817 
L 144.803571 257.753092 
L 145.935877 250.153945 
L 148.200487 236.721109 
L 149.332792 231.73177 
L 150.465097 228.200853 
L 151.597403 221.446055 
L 152.729708 216.456716 
L 153.862013 215.151812 
L 154.994318 212.004691 
L 156.126623 209.932196 
L 157.258929 203.484435 
L 159.523539 199.723241 
L 160.655844 198.571855 
L 161.788149 199.8 
L 162.920455 199.109168 
L 164.05276 201.642217 
L 165.185065 201.104904 
L 166.31737 203.637953 
L 167.449675 205.173134 
L 168.581981 207.859701 
L 169.714286 209.701919 
L 171.978896 213.079318 
L 173.111201 215.689126 
L 174.243506 217.608102 
L 175.375812 218.989765 
L 176.508117 224.439659 
L 177.640422 227.279744 
L 179.905032 233.957783 
L 181.037338 234.264819 
L 182.169643 236.183795 
L 183.301948 238.409808 
L 184.434253 241.787207 
L 185.566558 246.162473 
L 186.698864 247.774414 
L 187.831169 251.458849 
L 188.963474 253.531343 
L 190.095779 255.066525 
L 191.228084 255.45032 
L 192.36039 258.443923 
L 193.492695 259.672068 
L 194.625 263.049467 
L 195.757305 264.584648 
L 196.88961 266.350107 
L 198.021916 268.959915 
L 199.154221 269.650746 
L 200.286526 272.337313 
L 201.418831 274.716844 
L 202.551136 276.405544 
L 204.815747 281.318124 
L 205.948052 281.087846 
L 207.080357 283.083582 
L 208.212662 285.386354 
L 210.477273 288.303198 
L 211.609578 288.533475 
L 212.741883 290.452452 
L 213.874188 290.759488 
L 215.006494 290.759488 
L 216.138799 293.446055 
L 217.271104 293.369296 
L 218.403409 293.90661 
L 219.535714 294.060128 
L 221.800325 295.672068 
L 222.93263 295.748827 
L 224.064935 296.055864 
L 225.19724 298.972708 
L 226.329545 299.202985 
L 227.461851 300.43113 
L 229.726461 300.507889 
L 230.858766 300.814925 
L 231.991071 300.891684 
L 233.123377 301.736034 
L 235.387987 302.273348 
L 236.520292 301.966311 
L 237.652597 301.812793 
L 238.784903 301.198721 
L 239.917208 301.889552 
L 242.181818 302.733902 
L 243.314123 303.501493 
L 244.446429 303.501493 
L 245.578734 303.655011 
L 246.711039 303.347974 
L 247.843344 304.192324 
L 250.107955 304.115565 
L 252.372565 305.650746 
L 254.637175 305.420469 
L 255.769481 305.650746 
L 256.901786 305.727505 
L 258.034091 305.957783 
L 259.166396 306.341578 
L 260.298701 306.495096 
L 261.431006 306.495096 
L 262.563312 306.111301 
L 263.695617 306.034542 
L 264.827922 306.341578 
L 265.960227 306.264819 
L 267.092532 305.957783 
L 268.224838 305.881023 
L 269.357143 306.034542 
L 270.489448 306.034542 
L 271.621753 306.264819 
L 272.754058 306.341578 
L 273.886364 306.725373 
L 276.150974 306.648614 
L 277.283279 306.571855 
L 279.54789 306.725373 
L 280.680195 306.571855 
L 281.8125 306.725373 
L 284.07711 306.495096 
L 285.209416 306.648614 
L 286.341721 306.264819 
L 289.738636 306.802132 
L 290.870942 306.418337 
L 292.003247 306.18806 
L 293.135552 306.264819 
L 294.267857 305.804264 
L 295.400162 305.881023 
L 296.532468 305.573987 
L 299.929383 305.727505 
L 301.061688 305.497228 
L 302.193994 305.650746 
L 303.326299 305.573987 
L 304.458604 305.190192 
L 305.590909 305.497228 
L 306.723214 304.959915 
L 307.855519 304.883156 
L 308.987825 305.113433 
L 311.252435 304.652878 
L 313.517045 304.883156 
L 314.649351 304.576119 
L 321.443182 305.113433 
L 322.575487 305.266951 
L 324.840097 305.34371 
L 325.972403 304.959915 
L 327.104708 305.34371 
L 328.237013 305.420469 
L 329.369318 305.727505 
L 330.501623 305.190192 
L 331.633929 305.190192 
L 335.030844 305.573987 
L 336.163149 305.497228 
L 337.295455 305.573987 
L 338.42776 305.113433 
L 339.560065 305.036674 
L 340.69237 305.113433 
L 341.824675 304.576119 
L 342.956981 303.808529 
L 344.089286 303.73177 
L 345.221591 304.115565 
L 349.750812 301.352239 
L 350.883117 300.891684 
L 352.015422 299.893817 
L 353.147727 299.740299 
L 354.280032 298.972708 
L 356.544643 298.128358 
L 357.676948 296.976972 
L 358.809253 296.976972 
L 359.941558 296.3629 
L 361.073864 296.209382 
L 362.206169 295.595309 
L 363.338474 295.902345 
L 364.470779 295.365032 
L 366.73539 293.292537 
L 369 290.375693 
L 370.132305 289.531343 
L 371.26461 289.83838 
L 372.396916 288.917271 
L 373.529221 288.533475 
L 375.793831 284.772281 
L 376.926136 283.851173 
L 378.058442 281.394883 
L 379.190747 280.857569 
L 380.323052 279.936461 
L 381.455357 278.785075 
L 382.587662 275.714712 
L 383.719968 273.335181 
L 384.852273 272.337313 
L 385.984578 271.646482 
L 387.116883 269.420469 
L 388.249188 270.264819 
L 389.381494 269.036674 
L 390.513799 267.271215 
L 391.646104 266.04307 
L 392.778409 265.428998 
L 393.910714 264.354371 
L 395.043019 263.049467 
L 396.175325 263.126226 
L 397.30763 262.81919 
L 398.439935 261.13049 
L 399.57224 260.900213 
L 401.836851 261.591045 
L 402.969156 261.667804 
L 404.101461 261.97484 
L 405.233766 261.821322 
L 406.366071 261.97484 
L 407.498377 261.360768 
L 408.630682 262.205117 
L 409.762987 261.13049 
L 410.895292 262.205117 
L 412.027597 262.895949 
L 413.159903 263.893817 
L 414.292208 263.663539 
L 415.424513 264.968443 
L 416.556818 265.27548 
L 417.689123 265.889552 
L 418.821429 265.659275 
L 419.953734 266.426866 
L 421.086039 266.733902 
L 422.218344 267.501493 
L 423.350649 267.271215 
L 425.61526 268.115565 
L 426.747565 268.652878 
L 427.87987 269.036674 
L 429.012175 270.95565 
L 431.276786 271.416205 
L 432.409091 272.721109 
L 433.541396 271.569723 
L 434.673701 271.646482 
L 435.806006 271.876759 
L 436.938312 271.8 
L 438.070617 272.260554 
L 439.202922 271.569723 
L 440.335227 271.876759 
L 441.467532 271.646482 
L 442.599838 270.95565 
L 443.732143 269.727505 
L 444.864448 269.266951 
L 445.996753 267.655011 
L 447.129058 267.501493 
L 448.261364 266.733902 
L 449.393669 265.736034 
L 450.525974 264.891684 
L 451.658279 263.356503 
L 452.790584 262.895949 
L 453.92289 262.895949 
L 455.055195 261.207249 
L 456.1875 262.128358 
L 457.319805 261.821322 
L 459.584416 259.441791 
L 462.981331 253.224307 
L 464.113636 252.303198 
L 465.245942 253.915139 
L 466.378247 254.298934 
L 467.510552 253.83838 
L 468.642857 252.99403 
L 469.775162 251.765885 
L 470.907468 253.83838 
L 472.039773 253.224307 
L 473.172078 253.531343 
L 474.304383 254.145416 
L 475.436688 253.301066 
L 476.568994 253.991898 
L 477.701299 254.529211 
L 478.833604 254.145416 
L 479.965909 254.682729 
L 481.098214 254.913006 
L 482.230519 256.371429 
L 483.362825 255.987633 
L 484.49513 254.913006 
L 485.627435 255.45032 
L 486.75974 255.757356 
L 490.156656 256.21791 
L 491.288961 255.680597 
L 492.421266 256.908742 
L 493.553571 256.141151 
L 494.685877 257.90661 
L 495.818182 258.367164 
L 496.950487 257.292537 
L 498.082792 258.750959 
L 499.215097 258.290405 
L 500.347403 258.827719 
L 501.479708 259.595309 
L 502.612013 260.823454 
L 503.744318 261.667804 
L 506.008929 265.889552 
L 507.141234 266.810661 
L 509.405844 265.659275 
L 510.538149 266.964179 
L 511.670455 266.657143 
L 512.80276 266.88742 
L 513.935065 266.580384 
L 515.06737 267.194456 
L 516.199675 266.733902 
L 517.331981 267.501493 
L 518.464286 267.962047 
L 519.596591 267.73177 
L 520.728896 268.729638 
L 522.993506 266.88742 
L 524.125812 264.814925 
L 525.258117 266.580384 
L 526.390422 266.964179 
L 527.522727 267.501493 
L 528.655032 267.578252 
L 529.787338 268.115565 
L 530.919643 267.501493 
L 532.051948 266.733902 
L 533.184253 266.426866 
L 534.316558 265.736034 
L 535.448864 266.503625 
L 538.845779 266.04307 
L 539.978084 265.045203 
L 541.11039 265.198721 
L 542.242695 264.891684 
L 543.375 263.970576 
L 544.507305 263.663539 
L 545.63961 265.352239 
L 546.771916 265.352239 
L 547.904221 264.584648 
L 549.036526 262.895949 
L 550.168831 264.277612 
L 551.301136 264.584648 
L 552.433442 263.433262 
L 553.565747 261.667804 
L 554.698052 260.976972 
L 555.830357 258.904478 
L 556.962662 260.055864 
L 558.094968 259.902345 
L 559.227273 260.3629 
L 560.359578 259.902345 
L 561.491883 258.520682 
L 562.624188 257.599574 
L 563.756494 256.064392 
L 564.888799 255.527079 
L 566.021104 255.603838 
L 567.153409 255.066525 
L 568.285714 253.76162 
L 569.418019 251.535608 
L 570.550325 251.842644 
L 571.68263 250.614499 
L 572.814935 250.307463 
L 573.94724 248.311727 
L 575.079545 246.623028 
L 576.211851 247.697655 
L 577.344156 247.467377 
L 578.476461 247.390618 
L 579.608766 246.930064 
L 580.741071 246.930064 
L 581.873377 247.697655 
L 583.005682 247.313859 
L 584.137987 247.083582 
L 585.270292 246.315991 
L 587.534903 245.471642 
L 588.667208 244.704051 
L 589.799513 244.78081 
L 590.931818 243.475906 
L 592.064123 243.629424 
L 593.196429 245.241365 
L 594.328734 243.322388 
L 595.461039 245.471642 
L 596.593344 244.934328 
L 597.725649 245.394883 
L 598.857955 245.471642 
L 599.99026 245.932196 
L 601.122565 245.62516 
L 602.25487 246.162473 
L 603.387175 244.550533 
L 604.519481 245.087846 
L 605.651786 244.166738 
L 606.784091 245.932196 
L 607.916396 246.699787 
L 609.048701 248.158209 
L 611.313312 249.770149 
L 613.577922 251.228571 
L 615.842532 251.996162 
L 616.974838 253.377825 
L 618.107143 255.220043 
L 619.239448 255.603838 
L 620.371753 258.290405 
L 621.504058 258.981237 
L 622.636364 260.209382 
L 622.636364 260.209382 
" style="fill:none;stroke:#00ffff;stroke-linecap:square;stroke-width:1.5;"/>
   </g>
   <g id="patch_3">
    <path d="M 90 320.4 
L 90 43.2 
" style="fill:none;stroke:#000000;stroke-linecap:square;stroke-linejoin:miter;stroke-width:0.8;"/>
   </g>
   <g id="patch_4">
    <path d="M 648 320.4 
L 648 43.2 
" style="fill:none;stroke:#000000;stroke-linecap:square;stroke-linejoin:miter;stroke-width:0.8;"/>
   </g>
   <g id="patch_5">
    <path d="M 90 320.4 
L 648 320.4 
" style="fill:none;stroke:#000000;stroke-linecap:square;stroke-linejoin:miter;stroke-width:0.8;"/>
   </g>
   <g id="patch_6">
    <path d="M 90 43.2 
L 648 43.2 
" style="fill:none;stroke:#000000;stroke-linecap:square;stroke-linejoin:miter;stroke-width:0.8;"/>
   </g>
   <g id="text_17">
    <!-- Testplot -->
    <g transform="translate(345.68625 37.2)scale(0.12 -0.12)">
     <defs>
      <path d="M -0.296875 72.90625 
L 61.375 72.90625 
L 61.375 64.59375 
L 35.5 64.59375 
L 35.5 0 
L 25.59375 0 
L 25.59375 64.59375 
L -0.296875 64.59375 
z
" id="DejaVuSans-84"/>
      <path d="M 56.203125 29.59375 
L 56.203125 25.203125 
L 14.890625 25.203125 
Q 15.484375 15.921875 20.484375 11.0625 
Q 25.484375 6.203125 34.421875 6.203125 
Q 39.59375 6.203125 44.453125 7.46875 
Q 49.3125 8.734375 54.109375 11.28125 
L 54.109375 2.78125 
Q 49.265625 0.734375 44.1875 -0.34375 
Q 39.109375 -1.421875 33.890625 -1.421875 
Q 20.796875 -1.421875 13.15625 6.1875 
Q 5.515625 13.8125 5.515625 26.8125 
Q 5.515625 40.234375 12.765625 48.109375 
Q 20.015625 56 32.328125 56 
Q 43.359375 56 49.78125 48.890625 
Q 56.203125 41.796875 56.203125 29.59375 
z
M 47.21875 32.234375 
Q 47.125 39.59375 43.09375 43.984375 
Q 39.0625 48.390625 32.421875 48.390625 
Q 24.90625 48.390625 20.390625 44.140625 
Q 15.875 39.890625 15.1875 32.171875 
z
" id="DejaVuSans-101"/>
      <path d="M 44.28125 53.078125 
L 44.28125 44.578125 
Q 40.484375 46.53125 36.375 47.5 
Q 32.28125 48.484375 27.875 48.484375 
Q 21.1875 48.484375 17.84375 46.4375 
Q 14.5 44.390625 14.5 40.28125 
Q 14.5 37.15625 16.890625 35.375 
Q 19.28125 33.59375 26.515625 31.984375 
L 29.59375 31.296875 
Q 39.15625 29.25 43.1875 25.515625 
Q 47.21875 21.78125 47.21875 15.09375 
Q 47.21875 7.46875 41.1875 3.015625 
Q 35.15625 -1.421875 24.609375 -1.421875 
Q 20.21875 -1.421875 15.453125 -0.5625 
Q 10.6875 0.296875 5.421875 2 
L 5.421875 11.28125 
Q 10.40625 8.6875 15.234375 7.390625 
Q 20.0625 6.109375 24.8125 6.109375 
Q 31.15625 6.109375 34.5625 8.28125 
Q 37.984375 10.453125 37.984375 14.40625 
Q 37.984375 18.0625 35.515625 20.015625 
Q 33.0625 21.96875 24.703125 23.78125 
L 21.578125 24.515625 
Q 13.234375 26.265625 9.515625 29.90625 
Q 5.8125 33.546875 5.8125 39.890625 
Q 5.8125 47.609375 11.28125 51.796875 
Q 16.75 56 26.8125 56 
Q 31.78125 56 36.171875 55.265625 
Q 40.578125 54.546875 44.28125 53.078125 
z
" id="DejaVuSans-115"/>
      <path d="M 18.109375 8.203125 
L 18.109375 -20.796875 
L 9.078125 -20.796875 
L 9.078125 54.6875 
L 18.109375 54.6875 
L 18.109375 46.390625 
Q 20.953125 51.265625 25.265625 53.625 
Q 29.59375 56 35.59375 56 
Q 45.5625 56 51.78125 48.09375 
Q 58.015625 40.1875 58.015625 27.296875 
Q 58.015625 14.40625 51.78125 6.484375 
Q 45.5625 -1.421875 35.59375 -1.421875 
Q 29.59375 -1.421875 25.265625 0.953125 
Q 20.953125 3.328125 18.109375 8.203125 
z
M 48.6875 27.296875 
Q 48.6875 37.203125 44.609375 42.84375 
Q 40.53125 48.484375 33.40625 48.484375 
Q 26.265625 48.484375 22.1875 42.84375 
Q 18.109375 37.203125 18.109375 27.296875 
Q 18.109375 17.390625 22.1875 11.75 
Q 26.265625 6.109375 33.40625 6.109375 
Q 40.53125 6.109375 44.609375 11.75 
Q 48.6875 17.390625 48.6875 27.296875 
z
" id="DejaVuSans-112"/>
      <path d="M 9.421875 75.984375 
L 18.40625 75.984375 
L 18.40625 0 
L 9.421875 0 
z
" id="DejaVuSans-108"/>
      <path d="M 30.609375 48.390625 
Q 23.390625 48.390625 19.1875 42.75 
Q 14.984375 37.109375 14.984375 27.296875 
Q 14.984375 17.484375 19.15625 11.84375 
Q 23.34375 6.203125 30.609375 6.203125 
Q 37.796875 6.203125 41.984375 11.859375 
Q 46.1875 17.53125 46.1875 27.296875 
Q 46.1875 37.015625 41.984375 42.703125 
Q 37.796875 48.390625 30.609375 48.390625 
z
M 30.609375 56 
Q 42.328125 56 49.015625 48.375 
Q 55.71875 40.765625 55.71875 27.296875 
Q 55.71875 13.875 49.015625 6.21875 
Q 42.328125 -1.421875 30.609375 -1.421875 
Q 18.84375 -1.421875 12.171875 6.21875 
Q 5.515625 13.875 5.515625 27.296875 
Q 5.515625 40.765625 12.171875 48.375 
Q 18.84375 56 30.609375 56 
z
" id="DejaVuSans-111"/>
     </defs>
     <use xlink:href="#DejaVuSans-84"/>
     <use x="44.083984" xlink:href="#DejaVuSans-101"/>
     <use x="105.607422" xlink:href="#DejaVuSans-115"/>
     <use x="157.707031" xlink:href="#DejaVuSans-116"/>
     <use x="196.916016" xlink:href="#DejaVuSans-112"/>
     <use x="260.392578" xlink:href="#DejaVuSans-108"/>
     <use x="288.175781" xlink:href="#DejaVuSans-111"/>
     <use x="349.357422" xlink:href="#DejaVuSans-116"/>
    </g>
   </g>
   <g id="legend_1">
    <g id="patch_7">
     <path d="M 97 109.9125 
L 348.946875 109.9125 
Q 350.946875 109.9125 350.946875 107.9125 
L 350.946875 50.2 
Q 350.946875 48.2 348.946875 48.2 
L 97 48.2 
Q 95 48.2 95 50.2 
L 95 107.9125 
Q 95 109.9125 97 109.9125 
z
" style="fill:#ffffff;opacity:0.8;stroke:#cccccc;stroke-linejoin:miter;"/>
    </g>
    <g id="line2d_35">
     <path d="M 99 56.298437 
L 119 56.298437 
" style="fill:none;stroke:#ff0000;stroke-linecap:square;stroke-width:1.5;"/>
    </g>
    <g id="line2d_36"/>
    <g id="text_18">
     <!-- covid opgenomen patinten NICE (nu 1236) -->
     <g transform="translate(127 59.798437)scale(0.1 -0.1)">
      <defs>
       <path d="M 48.78125 52.59375 
L 48.78125 44.1875 
Q 44.96875 46.296875 41.140625 47.34375 
Q 37.3125 48.390625 33.40625 48.390625 
Q 24.65625 48.390625 19.8125 42.84375 
Q 14.984375 37.3125 14.984375 27.296875 
Q 14.984375 17.28125 19.8125 11.734375 
Q 24.65625 6.203125 33.40625 6.203125 
Q 37.3125 6.203125 41.140625 7.25 
Q 44.96875 8.296875 48.78125 10.40625 
L 48.78125 2.09375 
Q 45.015625 0.34375 40.984375 -0.53125 
Q 36.96875 -1.421875 32.421875 -1.421875 
Q 20.0625 -1.421875 12.78125 6.34375 
Q 5.515625 14.109375 5.515625 27.296875 
Q 5.515625 40.671875 12.859375 48.328125 
Q 20.21875 56 33.015625 56 
Q 37.15625 56 41.109375 55.140625 
Q 45.0625 54.296875 48.78125 52.59375 
z
" id="DejaVuSans-99"/>
       <path d="M 2.984375 54.6875 
L 12.5 54.6875 
L 29.59375 8.796875 
L 46.6875 54.6875 
L 56.203125 54.6875 
L 35.6875 0 
L 23.484375 0 
z
" id="DejaVuSans-118"/>
       <path d="M 9.421875 54.6875 
L 18.40625 54.6875 
L 18.40625 0 
L 9.421875 0 
z
M 9.421875 75.984375 
L 18.40625 75.984375 
L 18.40625 64.59375 
L 9.421875 64.59375 
z
" id="DejaVuSans-105"/>
       <path d="M 45.40625 46.390625 
L 45.40625 75.984375 
L 54.390625 75.984375 
L 54.390625 0 
L 45.40625 0 
L 45.40625 8.203125 
Q 42.578125 3.328125 38.25 0.953125 
Q 33.9375 -1.421875 27.875 -1.421875 
Q 17.96875 -1.421875 11.734375 6.484375 
Q 5.515625 14.40625 5.515625 27.296875 
Q 5.515625 40.1875 11.734375 48.09375 
Q 17.96875 56 27.875 56 
Q 33.9375 56 38.25 53.625 
Q 42.578125 51.265625 45.40625 46.390625 
z
M 14.796875 27.296875 
Q 14.796875 17.390625 18.875 11.75 
Q 22.953125 6.109375 30.078125 6.109375 
Q 37.203125 6.109375 41.296875 11.75 
Q 45.40625 17.390625 45.40625 27.296875 
Q 45.40625 37.203125 41.296875 42.84375 
Q 37.203125 48.484375 30.078125 48.484375 
Q 22.953125 48.484375 18.875 42.84375 
Q 14.796875 37.203125 14.796875 27.296875 
z
" id="DejaVuSans-100"/>
       <path id="DejaVuSans-32"/>
       <path d="M 45.40625 27.984375 
Q 45.40625 37.75 41.375 43.109375 
Q 37.359375 48.484375 30.078125 48.484375 
Q 22.859375 48.484375 18.828125 43.109375 
Q 14.796875 37.75 14.796875 27.984375 
Q 14.796875 18.265625 18.828125 12.890625 
Q 22.859375 7.515625 30.078125 7.515625 
Q 37.359375 7.515625 41.375 12.890625 
Q 45.40625 18.265625 45.40625 27.984375 
z
M 54.390625 6.78125 
Q 54.390625 -7.171875 48.1875 -13.984375 
Q 42 -20.796875 29.203125 -20.796875 
Q 24.46875 -20.796875 20.265625 -20.09375 
Q 16.0625 -19.390625 12.109375 -17.921875 
L 12.109375 -9.1875 
Q 16.0625 -11.328125 19.921875 -12.34375 
Q 23.78125 -13.375 27.78125 -13.375 
Q 36.625 -13.375 41.015625 -8.765625 
Q 45.40625 -4.15625 45.40625 5.171875 
L 45.40625 9.625 
Q 42.625 4.78125 38.28125 2.390625 
Q 33.9375 0 27.875 0 
Q 17.828125 0 11.671875 7.65625 
Q 5.515625 15.328125 5.515625 27.984375 
Q 5.515625 40.671875 11.671875 48.328125 
Q 17.828125 56 27.875 56 
Q 33.9375 56 38.28125 53.609375 
Q 42.625 51.21875 45.40625 46.390625 
L 45.40625 54.6875 
L 54.390625 54.6875 
z
" id="DejaVuSans-103"/>
       <path d="M 54.890625 33.015625 
L 54.890625 0 
L 45.90625 0 
L 45.90625 32.71875 
Q 45.90625 40.484375 42.875 44.328125 
Q 39.84375 48.1875 33.796875 48.1875 
Q 26.515625 48.1875 22.3125 43.546875 
Q 18.109375 38.921875 18.109375 30.90625 
L 18.109375 0 
L 9.078125 0 
L 9.078125 54.6875 
L 18.109375 54.6875 
L 18.109375 46.1875 
Q 21.34375 51.125 25.703125 53.5625 
Q 30.078125 56 35.796875 56 
Q 45.21875 56 50.046875 50.171875 
Q 54.890625 44.34375 54.890625 33.015625 
z
" id="DejaVuSans-110"/>
       <path d="M 56.203125 29.59375 
L 56.203125 25.203125 
L 14.890625 25.203125 
Q 15.484375 15.921875 20.484375 11.0625 
Q 25.484375 6.203125 34.421875 6.203125 
Q 39.59375 6.203125 44.453125 7.46875 
Q 49.3125 8.734375 54.109375 11.28125 
L 54.109375 2.78125 
Q 49.265625 0.734375 44.1875 -0.34375 
Q 39.109375 -1.421875 33.890625 -1.421875 
Q 20.796875 -1.421875 13.15625 6.1875 
Q 5.515625 13.8125 5.515625 26.8125 
Q 5.515625 40.234375 12.765625 48.109375 
Q 20.015625 56 32.328125 56 
Q 43.359375 56 49.78125 48.890625 
Q 56.203125 41.796875 56.203125 29.59375 
z
M 47.21875 32.234375 
Q 47.125 39.59375 43.09375 43.984375 
Q 39.0625 48.390625 32.421875 48.390625 
Q 24.90625 48.390625 20.390625 44.140625 
Q 15.875 39.890625 15.1875 32.171875 
z
M 36.34375 75.78125 
L 46.25 75.78125 
L 46.25 65.921875 
L 36.34375 65.921875 
z
M 17.25 75.78125 
L 27.15625 75.78125 
L 27.15625 65.921875 
L 17.25 65.921875 
z
" id="DejaVuSans-235"/>
       <path d="M 9.8125 72.90625 
L 23.09375 72.90625 
L 55.421875 11.921875 
L 55.421875 72.90625 
L 64.984375 72.90625 
L 64.984375 0 
L 51.703125 0 
L 19.390625 60.984375 
L 19.390625 0 
L 9.8125 0 
z
" id="DejaVuSans-78"/>
       <path d="M 9.8125 72.90625 
L 19.671875 72.90625 
L 19.671875 0 
L 9.8125 0 
z
" id="DejaVuSans-73"/>
       <path d="M 64.40625 67.28125 
L 64.40625 56.890625 
Q 59.421875 61.53125 53.78125 63.8125 
Q 48.140625 66.109375 41.796875 66.109375 
Q 29.296875 66.109375 22.65625 58.46875 
Q 16.015625 50.828125 16.015625 36.375 
Q 16.015625 21.96875 22.65625 14.328125 
Q 29.296875 6.6875 41.796875 6.6875 
Q 48.140625 6.6875 53.78125 8.984375 
Q 59.421875 11.28125 64.40625 15.921875 
L 64.40625 5.609375 
Q 59.234375 2.09375 53.4375 0.328125 
Q 47.65625 -1.421875 41.21875 -1.421875 
Q 24.65625 -1.421875 15.125 8.703125 
Q 5.609375 18.84375 5.609375 36.375 
Q 5.609375 53.953125 15.125 64.078125 
Q 24.65625 74.21875 41.21875 74.21875 
Q 47.75 74.21875 53.53125 72.484375 
Q 59.328125 70.75 64.40625 67.28125 
z
" id="DejaVuSans-67"/>
       <path d="M 9.8125 72.90625 
L 55.90625 72.90625 
L 55.90625 64.59375 
L 19.671875 64.59375 
L 19.671875 43.015625 
L 54.390625 43.015625 
L 54.390625 34.71875 
L 19.671875 34.71875 
L 19.671875 8.296875 
L 56.78125 8.296875 
L 56.78125 0 
L 9.8125 0 
z
" id="DejaVuSans-69"/>
       <path d="M 31 75.875 
Q 24.46875 64.65625 21.28125 53.65625 
Q 18.109375 42.671875 18.109375 31.390625 
Q 18.109375 20.125 21.3125 9.0625 
Q 24.515625 -2 31 -13.1875 
L 23.1875 -13.1875 
Q 15.875 -1.703125 12.234375 9.375 
Q 8.59375 20.453125 8.59375 31.390625 
Q 8.59375 42.28125 12.203125 53.3125 
Q 15.828125 64.359375 23.1875 75.875 
z
" id="DejaVuSans-40"/>
       <path d="M 33.015625 40.375 
Q 26.375 40.375 22.484375 35.828125 
Q 18.609375 31.296875 18.609375 23.390625 
Q 18.609375 15.53125 22.484375 10.953125 
Q 26.375 6.390625 33.015625 6.390625 
Q 39.65625 6.390625 43.53125 10.953125 
Q 47.40625 15.53125 47.40625 23.390625 
Q 47.40625 31.296875 43.53125 35.828125 
Q 39.65625 40.375 33.015625 40.375 
z
M 52.59375 71.296875 
L 52.59375 62.3125 
Q 48.875 64.0625 45.09375 64.984375 
Q 41.3125 65.921875 37.59375 65.921875 
Q 27.828125 65.921875 22.671875 59.328125 
Q 17.53125 52.734375 16.796875 39.40625 
Q 19.671875 43.65625 24.015625 45.921875 
Q 28.375 48.1875 33.59375 48.1875 
Q 44.578125 48.1875 50.953125 41.515625 
Q 57.328125 34.859375 57.328125 23.390625 
Q 57.328125 12.15625 50.6875 5.359375 
Q 44.046875 -1.421875 33.015625 -1.421875 
Q 20.359375 -1.421875 13.671875 8.265625 
Q 6.984375 17.96875 6.984375 36.375 
Q 6.984375 53.65625 15.1875 63.9375 
Q 23.390625 74.21875 37.203125 74.21875 
Q 40.921875 74.21875 44.703125 73.484375 
Q 48.484375 72.75 52.59375 71.296875 
z
" id="DejaVuSans-54"/>
       <path d="M 8.015625 75.875 
L 15.828125 75.875 
Q 23.140625 64.359375 26.78125 53.3125 
Q 30.421875 42.28125 30.421875 31.390625 
Q 30.421875 20.453125 26.78125 9.375 
Q 23.140625 -1.703125 15.828125 -13.1875 
L 8.015625 -13.1875 
Q 14.5 -2 17.703125 9.0625 
Q 20.90625 20.125 20.90625 31.390625 
Q 20.90625 42.671875 17.703125 53.65625 
Q 14.5 64.65625 8.015625 75.875 
z
" id="DejaVuSans-41"/>
      </defs>
      <use xlink:href="#DejaVuSans-99"/>
      <use x="54.980469" xlink:href="#DejaVuSans-111"/>
      <use x="116.162109" xlink:href="#DejaVuSans-118"/>
      <use x="175.341797" xlink:href="#DejaVuSans-105"/>
      <use x="203.125" xlink:href="#DejaVuSans-100"/>
      <use x="266.601562" xlink:href="#DejaVuSans-32"/>
      <use x="298.388672" xlink:href="#DejaVuSans-111"/>
      <use x="359.570312" xlink:href="#DejaVuSans-112"/>
      <use x="423.046875" xlink:href="#DejaVuSans-103"/>
      <use x="486.523438" xlink:href="#DejaVuSans-101"/>
      <use x="548.046875" xlink:href="#DejaVuSans-110"/>
      <use x="611.425781" xlink:href="#DejaVuSans-111"/>
      <use x="672.607422" xlink:href="#DejaVuSans-109"/>
      <use x="770.019531" xlink:href="#DejaVuSans-101"/>
      <use x="831.542969" xlink:href="#DejaVuSans-110"/>
      <use x="894.921875" xlink:href="#DejaVuSans-32"/>
      <use x="926.708984" xlink:href="#DejaVuSans-112"/>
      <use x="990.185547" xlink:href="#DejaVuSans-97"/>
      <use x="1051.464844" xlink:href="#DejaVuSans-116"/>
      <use x="1090.673828" xlink:href="#DejaVuSans-105"/>
      <use x="1118.457031" xlink:href="#DejaVuSans-235"/>
      <use x="1179.980469" xlink:href="#DejaVuSans-110"/>
      <use x="1243.359375" xlink:href="#DejaVuSans-116"/>
      <use x="1282.568359" xlink:href="#DejaVuSans-101"/>
      <use x="1344.091797" xlink:href="#DejaVuSans-110"/>
      <use x="1407.470703" xlink:href="#DejaVuSans-32"/>
      <use x="1439.257812" xlink:href="#DejaVuSans-78"/>
      <use x="1514.0625" xlink:href="#DejaVuSans-73"/>
      <use x="1543.554688" xlink:href="#DejaVuSans-67"/>
      <use x="1613.378906" xlink:href="#DejaVuSans-69"/>
      <use x="1676.5625" xlink:href="#DejaVuSans-32"/>
      <use x="1708.349609" xlink:href="#DejaVuSans-40"/>
      <use x="1747.363281" xlink:href="#DejaVuSans-110"/>
      <use x="1810.742188" xlink:href="#DejaVuSans-117"/>
      <use x="1874.121094" xlink:href="#DejaVuSans-32"/>
      <use x="1905.908203" xlink:href="#DejaVuSans-49"/>
      <use x="1969.53125" xlink:href="#DejaVuSans-50"/>
      <use x="2033.154297" xlink:href="#DejaVuSans-51"/>
      <use x="2096.777344" xlink:href="#DejaVuSans-54"/>
      <use x="2160.400391" xlink:href="#DejaVuSans-41"/>
     </g>
    </g>
    <g id="line2d_37">
     <path d="M 99 70.976562 
L 119 70.976562 
" style="fill:none;stroke:#ffa500;stroke-linecap:square;stroke-width:1.5;"/>
    </g>
    <g id="line2d_38"/>
    <g id="text_19">
     <!-- covid bezette bedden LCPS (nu 1278) -->
     <g transform="translate(127 74.476562)scale(0.1 -0.1)">
      <defs>
       <path d="M 48.6875 27.296875 
Q 48.6875 37.203125 44.609375 42.84375 
Q 40.53125 48.484375 33.40625 48.484375 
Q 26.265625 48.484375 22.1875 42.84375 
Q 18.109375 37.203125 18.109375 27.296875 
Q 18.109375 17.390625 22.1875 11.75 
Q 26.265625 6.109375 33.40625 6.109375 
Q 40.53125 6.109375 44.609375 11.75 
Q 48.6875 17.390625 48.6875 27.296875 
z
M 18.109375 46.390625 
Q 20.953125 51.265625 25.265625 53.625 
Q 29.59375 56 35.59375 56 
Q 45.5625 56 51.78125 48.09375 
Q 58.015625 40.1875 58.015625 27.296875 
Q 58.015625 14.40625 51.78125 6.484375 
Q 45.5625 -1.421875 35.59375 -1.421875 
Q 29.59375 -1.421875 25.265625 0.953125 
Q 20.953125 3.328125 18.109375 8.203125 
L 18.109375 0 
L 9.078125 0 
L 9.078125 75.984375 
L 18.109375 75.984375 
z
" id="DejaVuSans-98"/>
       <path d="M 5.515625 54.6875 
L 48.1875 54.6875 
L 48.1875 46.484375 
L 14.40625 7.171875 
L 48.1875 7.171875 
L 48.1875 0 
L 4.296875 0 
L 4.296875 8.203125 
L 38.09375 47.515625 
L 5.515625 47.515625 
z
" id="DejaVuSans-122"/>
       <path d="M 9.8125 72.90625 
L 19.671875 72.90625 
L 19.671875 8.296875 
L 55.171875 8.296875 
L 55.171875 0 
L 9.8125 0 
z
" id="DejaVuSans-76"/>
       <path d="M 19.671875 64.796875 
L 19.671875 37.40625 
L 32.078125 37.40625 
Q 38.96875 37.40625 42.71875 40.96875 
Q 46.484375 44.53125 46.484375 51.125 
Q 46.484375 57.671875 42.71875 61.234375 
Q 38.96875 64.796875 32.078125 64.796875 
z
M 9.8125 72.90625 
L 32.078125 72.90625 
Q 44.34375 72.90625 50.609375 67.359375 
Q 56.890625 61.8125 56.890625 51.125 
Q 56.890625 40.328125 50.609375 34.8125 
Q 44.34375 29.296875 32.078125 29.296875 
L 19.671875 29.296875 
L 19.671875 0 
L 9.8125 0 
z
" id="DejaVuSans-80"/>
       <path d="M 53.515625 70.515625 
L 53.515625 60.890625 
Q 47.90625 63.578125 42.921875 64.890625 
Q 37.9375 66.21875 33.296875 66.21875 
Q 25.25 66.21875 20.875 63.09375 
Q 16.5 59.96875 16.5 54.203125 
Q 16.5 49.359375 19.40625 46.890625 
Q 22.3125 44.4375 30.421875 42.921875 
L 36.375 41.703125 
Q 47.40625 39.59375 52.65625 34.296875 
Q 57.90625 29 57.90625 20.125 
Q 57.90625 9.515625 50.796875 4.046875 
Q 43.703125 -1.421875 29.984375 -1.421875 
Q 24.8125 -1.421875 18.96875 -0.25 
Q 13.140625 0.921875 6.890625 3.21875 
L 6.890625 13.375 
Q 12.890625 10.015625 18.65625 8.296875 
Q 24.421875 6.59375 29.984375 6.59375 
Q 38.421875 6.59375 43.015625 9.90625 
Q 47.609375 13.234375 47.609375 19.390625 
Q 47.609375 24.75 44.3125 27.78125 
Q 41.015625 30.8125 33.5 32.328125 
L 27.484375 33.5 
Q 16.453125 35.6875 11.515625 40.375 
Q 6.59375 45.0625 6.59375 53.421875 
Q 6.59375 63.09375 13.40625 68.65625 
Q 20.21875 74.21875 32.171875 74.21875 
Q 37.3125 74.21875 42.625 73.28125 
Q 47.953125 72.359375 53.515625 70.515625 
z
" id="DejaVuSans-83"/>
       <path d="M 31.78125 34.625 
Q 24.75 34.625 20.71875 30.859375 
Q 16.703125 27.09375 16.703125 20.515625 
Q 16.703125 13.921875 20.71875 10.15625 
Q 24.75 6.390625 31.78125 6.390625 
Q 38.8125 6.390625 42.859375 10.171875 
Q 46.921875 13.96875 46.921875 20.515625 
Q 46.921875 27.09375 42.890625 30.859375 
Q 38.875 34.625 31.78125 34.625 
z
M 21.921875 38.8125 
Q 15.578125 40.375 12.03125 44.71875 
Q 8.5 49.078125 8.5 55.328125 
Q 8.5 64.0625 14.71875 69.140625 
Q 20.953125 74.21875 31.78125 74.21875 
Q 42.671875 74.21875 48.875 69.140625 
Q 55.078125 64.0625 55.078125 55.328125 
Q 55.078125 49.078125 51.53125 44.71875 
Q 48 40.375 41.703125 38.8125 
Q 48.828125 37.15625 52.796875 32.3125 
Q 56.78125 27.484375 56.78125 20.515625 
Q 56.78125 9.90625 50.3125 4.234375 
Q 43.84375 -1.421875 31.78125 -1.421875 
Q 19.734375 -1.421875 13.25 4.234375 
Q 6.78125 9.90625 6.78125 20.515625 
Q 6.78125 27.484375 10.78125 32.3125 
Q 14.796875 37.15625 21.921875 38.8125 
z
M 18.3125 54.390625 
Q 18.3125 48.734375 21.84375 45.5625 
Q 25.390625 42.390625 31.78125 42.390625 
Q 38.140625 42.390625 41.71875 45.5625 
Q 45.3125 48.734375 45.3125 54.390625 
Q 45.3125 60.0625 41.71875 63.234375 
Q 38.140625 66.40625 31.78125 66.40625 
Q 25.390625 66.40625 21.84375 63.234375 
Q 18.3125 60.0625 18.3125 54.390625 
z
" id="DejaVuSans-56"/>
      </defs>
      <use xlink:href="#DejaVuSans-99"/>
      <use x="54.980469" xlink:href="#DejaVuSans-111"/>
      <use x="116.162109" xlink:href="#DejaVuSans-118"/>
      <use x="175.341797" xlink:href="#DejaVuSans-105"/>
      <use x="203.125" xlink:href="#DejaVuSans-100"/>
      <use x="266.601562" xlink:href="#DejaVuSans-32"/>
      <use x="298.388672" xlink:href="#DejaVuSans-98"/>
      <use x="361.865234" xlink:href="#DejaVuSans-101"/>
      <use x="423.388672" xlink:href="#DejaVuSans-122"/>
      <use x="475.878906" xlink:href="#DejaVuSans-101"/>
      <use x="537.402344" xlink:href="#DejaVuSans-116"/>
      <use x="576.611328" xlink:href="#DejaVuSans-116"/>
      <use x="615.820312" xlink:href="#DejaVuSans-101"/>
      <use x="677.34375" xlink:href="#DejaVuSans-32"/>
      <use x="709.130859" xlink:href="#DejaVuSans-98"/>
      <use x="772.607422" xlink:href="#DejaVuSans-101"/>
      <use x="834.130859" xlink:href="#DejaVuSans-100"/>
      <use x="897.607422" xlink:href="#DejaVuSans-100"/>
      <use x="961.083984" xlink:href="#DejaVuSans-101"/>
      <use x="1022.607422" xlink:href="#DejaVuSans-110"/>
      <use x="1085.986328" xlink:href="#DejaVuSans-32"/>
      <use x="1117.773438" xlink:href="#DejaVuSans-76"/>
      <use x="1173.486328" xlink:href="#DejaVuSans-67"/>
      <use x="1243.310547" xlink:href="#DejaVuSans-80"/>
      <use x="1303.613281" xlink:href="#DejaVuSans-83"/>
      <use x="1367.089844" xlink:href="#DejaVuSans-32"/>
      <use x="1398.876953" xlink:href="#DejaVuSans-40"/>
      <use x="1437.890625" xlink:href="#DejaVuSans-110"/>
      <use x="1501.269531" xlink:href="#DejaVuSans-117"/>
      <use x="1564.648438" xlink:href="#DejaVuSans-32"/>
      <use x="1596.435547" xlink:href="#DejaVuSans-49"/>
      <use x="1660.058594" xlink:href="#DejaVuSans-50"/>
      <use x="1723.681641" xlink:href="#DejaVuSans-55"/>
      <use x="1787.304688" xlink:href="#DejaVuSans-56"/>
      <use x="1850.927734" xlink:href="#DejaVuSans-41"/>
     </g>
    </g>
    <g id="line2d_39">
     <path d="M 99 85.654687 
L 119 85.654687 
" style="fill:none;stroke:#0000ff;stroke-linecap:square;stroke-width:1.5;"/>
    </g>
    <g id="line2d_40"/>
    <g id="text_20">
     <!-- non-covid bezette IC bedden LCPS (nu 486) -->
     <g transform="translate(127 89.154687)scale(0.1 -0.1)">
      <defs>
       <path d="M 37.796875 64.3125 
L 12.890625 25.390625 
L 37.796875 25.390625 
z
M 35.203125 72.90625 
L 47.609375 72.90625 
L 47.609375 25.390625 
L 58.015625 25.390625 
L 58.015625 17.1875 
L 47.609375 17.1875 
L 47.609375 0 
L 37.796875 0 
L 37.796875 17.1875 
L 4.890625 17.1875 
L 4.890625 26.703125 
z
" id="DejaVuSans-52"/>
      </defs>
      <use xlink:href="#DejaVuSans-110"/>
      <use x="63.378906" xlink:href="#DejaVuSans-111"/>
      <use x="124.560547" xlink:href="#DejaVuSans-110"/>
      <use x="187.939453" xlink:href="#DejaVuSans-45"/>
      <use x="224.023438" xlink:href="#DejaVuSans-99"/>
      <use x="279.003906" xlink:href="#DejaVuSans-111"/>
      <use x="340.185547" xlink:href="#DejaVuSans-118"/>
      <use x="399.365234" xlink:href="#DejaVuSans-105"/>
      <use x="427.148438" xlink:href="#DejaVuSans-100"/>
      <use x="490.625" xlink:href="#DejaVuSans-32"/>
      <use x="522.412109" xlink:href="#DejaVuSans-98"/>
      <use x="585.888672" xlink:href="#DejaVuSans-101"/>
      <use x="647.412109" xlink:href="#DejaVuSans-122"/>
      <use x="699.902344" xlink:href="#DejaVuSans-101"/>
      <use x="761.425781" xlink:href="#DejaVuSans-116"/>
      <use x="800.634766" xlink:href="#DejaVuSans-116"/>
      <use x="839.84375" xlink:href="#DejaVuSans-101"/>
      <use x="901.367188" xlink:href="#DejaVuSans-32"/>
      <use x="933.154297" xlink:href="#DejaVuSans-73"/>
      <use x="962.646484" xlink:href="#DejaVuSans-67"/>
      <use x="1032.470703" xlink:href="#DejaVuSans-32"/>
      <use x="1064.257812" xlink:href="#DejaVuSans-98"/>
      <use x="1127.734375" xlink:href="#DejaVuSans-101"/>
      <use x="1189.257812" xlink:href="#DejaVuSans-100"/>
      <use x="1252.734375" xlink:href="#DejaVuSans-100"/>
      <use x="1316.210938" xlink:href="#DejaVuSans-101"/>
      <use x="1377.734375" xlink:href="#DejaVuSans-110"/>
      <use x="1441.113281" xlink:href="#DejaVuSans-32"/>
      <use x="1472.900391" xlink:href="#DejaVuSans-76"/>
      <use x="1528.613281" xlink:href="#DejaVuSans-67"/>
      <use x="1598.4375" xlink:href="#DejaVuSans-80"/>
      <use x="1658.740234" xlink:href="#DejaVuSans-83"/>
      <use x="1722.216797" xlink:href="#DejaVuSans-32"/>
      <use x="1754.003906" xlink:href="#DejaVuSans-40"/>
      <use x="1793.017578" xlink:href="#DejaVuSans-110"/>
      <use x="1856.396484" xlink:href="#DejaVuSans-117"/>
      <use x="1919.775391" xlink:href="#DejaVuSans-32"/>
      <use x="1951.5625" xlink:href="#DejaVuSans-52"/>
      <use x="2015.185547" xlink:href="#DejaVuSans-56"/>
      <use x="2078.808594" xlink:href="#DejaVuSans-54"/>
      <use x="2142.431641" xlink:href="#DejaVuSans-41"/>
     </g>
    </g>
    <g id="line2d_41">
     <path d="M 99 100.332812 
L 119 100.332812 
" style="fill:none;stroke:#00ffff;stroke-linecap:square;stroke-width:1.5;"/>
    </g>
    <g id="line2d_42"/>
    <g id="text_21">
     <!-- covid bezette IC bedden LCPS (nu 621) -->
     <g transform="translate(127 103.832812)scale(0.1 -0.1)">
      <use xlink:href="#DejaVuSans-99"/>
      <use x="54.980469" xlink:href="#DejaVuSans-111"/>
      <use x="116.162109" xlink:href="#DejaVuSans-118"/>
      <use x="175.341797" xlink:href="#DejaVuSans-105"/>
      <use x="203.125" xlink:href="#DejaVuSans-100"/>
      <use x="266.601562" xlink:href="#DejaVuSans-32"/>
      <use x="298.388672" xlink:href="#DejaVuSans-98"/>
      <use x="361.865234" xlink:href="#DejaVuSans-101"/>
      <use x="423.388672" xlink:href="#DejaVuSans-122"/>
      <use x="475.878906" xlink:href="#DejaVuSans-101"/>
      <use x="537.402344" xlink:href="#DejaVuSans-116"/>
      <use x="576.611328" xlink:href="#DejaVuSans-116"/>
      <use x="615.820312" xlink:href="#DejaVuSans-101"/>
      <use x="677.34375" xlink:href="#DejaVuSans-32"/>
      <use x="709.130859" xlink:href="#DejaVuSans-73"/>
      <use x="738.623047" xlink:href="#DejaVuSans-67"/>
      <use x="808.447266" xlink:href="#DejaVuSans-32"/>
      <use x="840.234375" xlink:href="#DejaVuSans-98"/>
      <use x="903.710938" xlink:href="#DejaVuSans-101"/>
      <use x="965.234375" xlink:href="#DejaVuSans-100"/>
      <use x="1028.710938" xlink:href="#DejaVuSans-100"/>
      <use x="1092.1875" xlink:href="#DejaVuSans-101"/>
      <use x="1153.710938" xlink:href="#DejaVuSans-110"/>
      <use x="1217.089844" xlink:href="#DejaVuSans-32"/>
      <use x="1248.876953" xlink:href="#DejaVuSans-76"/>
      <use x="1304.589844" xlink:href="#DejaVuSans-67"/>
      <use x="1374.414062" xlink:href="#DejaVuSans-80"/>
      <use x="1434.716797" xlink:href="#DejaVuSans-83"/>
      <use x="1498.193359" xlink:href="#DejaVuSans-32"/>
      <use x="1529.980469" xlink:href="#DejaVuSans-40"/>
      <use x="1568.994141" xlink:href="#DejaVuSans-110"/>
      <use x="1632.373047" xlink:href="#DejaVuSans-117"/>
      <use x="1695.751953" xlink:href="#DejaVuSans-32"/>
      <use x="1727.539062" xlink:href="#DejaVuSans-54"/>
      <use x="1791.162109" xlink:href="#DejaVuSans-50"/>
      <use x="1854.785156" xlink:href="#DejaVuSans-49"/>
      <use x="1918.408203" xlink:href="#DejaVuSans-41"/>
     </g>
    </g>
   </g>
  </g>
 </g>
 <defs>
  <clipPath id="p54bf90e38a">
   <rect height="277.2" width="558" x="90" y="43.2"/>
  </clipPath>
 </defs>
</svg>
