<?xml version="1.0" encoding="utf-8" standalone="no"?>
<!DOCTYPE svg PUBLIC "-//W3C//DTD SVG 1.1//EN"
  "http://www.w3.org/Graphics/SVG/1.1/DTD/svg11.dtd">
<!-- Created with matplotlib (https://matplotlib.org/) -->
<svg height="360pt" version="1.1" viewBox="0 0 720 360" width="720pt" xmlns="http://www.w3.org/2000/svg" xmlns:xlink="http://www.w3.org/1999/xlink">
 <metadata>
  <rdf:RDF xmlns:cc="http://creativecommons.org/ns#" xmlns:dc="http://purl.org/dc/elements/1.1/" xmlns:rdf="http://www.w3.org/1999/02/22-rdf-syntax-ns#">
   <cc:Work>
    <dc:type rdf:resource="http://purl.org/dc/dcmitype/StillImage"/>
    <dc:date>2021-11-27T15:41:23.477087</dc:date>
    <dc:format>image/svg+xml</dc:format>
    <dc:creator>
     <cc:Agent>
      <dc:title>Matplotlib v3.3.2, https://matplotlib.org/</dc:title>
     </cc:Agent>
    </dc:creator>
   </cc:Work>
  </rdf:RDF>
 </metadata>
 <defs>
  <style type="text/css">*{stroke-linecap:butt;stroke-linejoin:round;}</style>
 </defs>
 <g id="figure_1">
  <g id="patch_1">
   <path d="M 0 360 
L 720 360 
L 720 0 
L 0 0 
z
" style="fill:#ffffff;"/>
  </g>
  <g id="axes_1">
   <g id="patch_2">
    <path d="M 90 320.4 
L 648 320.4 
L 648 43.2 
L 90 43.2 
z
" style="fill:#ffffff;"/>
   </g>
   <g id="matplotlib.axis_1">
    <g id="xtick_1">
     <g id="line2d_1">
      <path clip-path="url(#pc4966f0bcd)" d="M 142.354673 320.4 
L 142.354673 43.2 
" style="fill:none;stroke:#808080;stroke-dasharray:6.4,1.6,1,1.6;stroke-dashoffset:0;stroke-opacity:0.3;"/>
     </g>
     <g id="line2d_2">
      <defs>
       <path d="M 0 0 
L 0 3.5 
" id="mb13062da37" style="stroke:#000000;stroke-width:0.8;"/>
      </defs>
      <g>
       <use style="stroke:#000000;stroke-width:0.8;" x="142.354673" xlink:href="#mb13062da37" y="320.4"/>
      </g>
     </g>
     <g id="text_1">
      <!-- 2020-04 -->
      <g transform="translate(121.463267 334.998438)scale(0.1 -0.1)">
       <defs>
        <path d="M 19.1875 8.296875 
L 53.609375 8.296875 
L 53.609375 0 
L 7.328125 0 
L 7.328125 8.296875 
Q 12.9375 14.109375 22.625 23.890625 
Q 32.328125 33.6875 34.8125 36.53125 
Q 39.546875 41.84375 41.421875 45.53125 
Q 43.3125 49.21875 43.3125 52.78125 
Q 43.3125 58.59375 39.234375 62.25 
Q 35.15625 65.921875 28.609375 65.921875 
Q 23.96875 65.921875 18.8125 64.3125 
Q 13.671875 62.703125 7.8125 59.421875 
L 7.8125 69.390625 
Q 13.765625 71.78125 18.9375 73 
Q 24.125 74.21875 28.421875 74.21875 
Q 39.75 74.21875 46.484375 68.546875 
Q 53.21875 62.890625 53.21875 53.421875 
Q 53.21875 48.921875 51.53125 44.890625 
Q 49.859375 40.875 45.40625 35.40625 
Q 44.1875 33.984375 37.640625 27.21875 
Q 31.109375 20.453125 19.1875 8.296875 
z
" id="DejaVuSans-50"/>
        <path d="M 31.78125 66.40625 
Q 24.171875 66.40625 20.328125 58.90625 
Q 16.5 51.421875 16.5 36.375 
Q 16.5 21.390625 20.328125 13.890625 
Q 24.171875 6.390625 31.78125 6.390625 
Q 39.453125 6.390625 43.28125 13.890625 
Q 47.125 21.390625 47.125 36.375 
Q 47.125 51.421875 43.28125 58.90625 
Q 39.453125 66.40625 31.78125 66.40625 
z
M 31.78125 74.21875 
Q 44.046875 74.21875 50.515625 64.515625 
Q 56.984375 54.828125 56.984375 36.375 
Q 56.984375 17.96875 50.515625 8.265625 
Q 44.046875 -1.421875 31.78125 -1.421875 
Q 19.53125 -1.421875 13.0625 8.265625 
Q 6.59375 17.96875 6.59375 36.375 
Q 6.59375 54.828125 13.0625 64.515625 
Q 19.53125 74.21875 31.78125 74.21875 
z
" id="DejaVuSans-48"/>
        <path d="M 4.890625 31.390625 
L 31.203125 31.390625 
L 31.203125 23.390625 
L 4.890625 23.390625 
z
" id="DejaVuSans-45"/>
        <path d="M 37.796875 64.3125 
L 12.890625 25.390625 
L 37.796875 25.390625 
z
M 35.203125 72.90625 
L 47.609375 72.90625 
L 47.609375 25.390625 
L 58.015625 25.390625 
L 58.015625 17.1875 
L 47.609375 17.1875 
L 47.609375 0 
L 37.796875 0 
L 37.796875 17.1875 
L 4.890625 17.1875 
L 4.890625 26.703125 
z
" id="DejaVuSans-52"/>
       </defs>
       <use xlink:href="#DejaVuSans-50"/>
       <use x="63.623047" xlink:href="#DejaVuSans-48"/>
       <use x="127.246094" xlink:href="#DejaVuSans-50"/>
       <use x="190.869141" xlink:href="#DejaVuSans-48"/>
       <use x="254.492188" xlink:href="#DejaVuSans-45"/>
       <use x="290.576172" xlink:href="#DejaVuSans-48"/>
       <use x="354.199219" xlink:href="#DejaVuSans-52"/>
      </g>
     </g>
    </g>
    <g id="xtick_2">
     <g id="line2d_3">
      <path clip-path="url(#pc4966f0bcd)" d="M 214.595391 320.4 
L 214.595391 43.2 
" style="fill:none;stroke:#808080;stroke-dasharray:6.4,1.6,1,1.6;stroke-dashoffset:0;stroke-opacity:0.3;"/>
     </g>
     <g id="line2d_4">
      <g>
       <use style="stroke:#000000;stroke-width:0.8;" x="214.595391" xlink:href="#mb13062da37" y="320.4"/>
      </g>
     </g>
     <g id="text_2">
      <!-- 2020-07 -->
      <g transform="translate(193.703984 334.998438)scale(0.1 -0.1)">
       <defs>
        <path d="M 8.203125 72.90625 
L 55.078125 72.90625 
L 55.078125 68.703125 
L 28.609375 0 
L 18.3125 0 
L 43.21875 64.59375 
L 8.203125 64.59375 
z
" id="DejaVuSans-55"/>
       </defs>
       <use xlink:href="#DejaVuSans-50"/>
       <use x="63.623047" xlink:href="#DejaVuSans-48"/>
       <use x="127.246094" xlink:href="#DejaVuSans-50"/>
       <use x="190.869141" xlink:href="#DejaVuSans-48"/>
       <use x="254.492188" xlink:href="#DejaVuSans-45"/>
       <use x="290.576172" xlink:href="#DejaVuSans-48"/>
       <use x="354.199219" xlink:href="#DejaVuSans-55"/>
      </g>
     </g>
    </g>
    <g id="xtick_3">
     <g id="line2d_5">
      <path clip-path="url(#pc4966f0bcd)" d="M 287.629962 320.4 
L 287.629962 43.2 
" style="fill:none;stroke:#808080;stroke-dasharray:6.4,1.6,1,1.6;stroke-dashoffset:0;stroke-opacity:0.3;"/>
     </g>
     <g id="line2d_6">
      <g>
       <use style="stroke:#000000;stroke-width:0.8;" x="287.629962" xlink:href="#mb13062da37" y="320.4"/>
      </g>
     </g>
     <g id="text_3">
      <!-- 2020-10 -->
      <g transform="translate(266.738555 334.998438)scale(0.1 -0.1)">
       <defs>
        <path d="M 12.40625 8.296875 
L 28.515625 8.296875 
L 28.515625 63.921875 
L 10.984375 60.40625 
L 10.984375 69.390625 
L 28.421875 72.90625 
L 38.28125 72.90625 
L 38.28125 8.296875 
L 54.390625 8.296875 
L 54.390625 0 
L 12.40625 0 
z
" id="DejaVuSans-49"/>
       </defs>
       <use xlink:href="#DejaVuSans-50"/>
       <use x="63.623047" xlink:href="#DejaVuSans-48"/>
       <use x="127.246094" xlink:href="#DejaVuSans-50"/>
       <use x="190.869141" xlink:href="#DejaVuSans-48"/>
       <use x="254.492188" xlink:href="#DejaVuSans-45"/>
       <use x="290.576172" xlink:href="#DejaVuSans-49"/>
       <use x="354.199219" xlink:href="#DejaVuSans-48"/>
      </g>
     </g>
    </g>
    <g id="xtick_4">
     <g id="line2d_7">
      <path clip-path="url(#pc4966f0bcd)" d="M 360.664533 320.4 
L 360.664533 43.2 
" style="fill:none;stroke:#808080;stroke-dasharray:6.4,1.6,1,1.6;stroke-dashoffset:0;stroke-opacity:0.3;"/>
     </g>
     <g id="line2d_8">
      <g>
       <use style="stroke:#000000;stroke-width:0.8;" x="360.664533" xlink:href="#mb13062da37" y="320.4"/>
      </g>
     </g>
     <g id="text_4">
      <!-- 2021-01 -->
      <g transform="translate(339.773126 334.998438)scale(0.1 -0.1)">
       <use xlink:href="#DejaVuSans-50"/>
       <use x="63.623047" xlink:href="#DejaVuSans-48"/>
       <use x="127.246094" xlink:href="#DejaVuSans-50"/>
       <use x="190.869141" xlink:href="#DejaVuSans-49"/>
       <use x="254.492188" xlink:href="#DejaVuSans-45"/>
       <use x="290.576172" xlink:href="#DejaVuSans-48"/>
       <use x="354.199219" xlink:href="#DejaVuSans-49"/>
      </g>
     </g>
    </g>
    <g id="xtick_5">
     <g id="line2d_9">
      <path clip-path="url(#pc4966f0bcd)" d="M 432.111396 320.4 
L 432.111396 43.2 
" style="fill:none;stroke:#808080;stroke-dasharray:6.4,1.6,1,1.6;stroke-dashoffset:0;stroke-opacity:0.3;"/>
     </g>
     <g id="line2d_10">
      <g>
       <use style="stroke:#000000;stroke-width:0.8;" x="432.111396" xlink:href="#mb13062da37" y="320.4"/>
      </g>
     </g>
     <g id="text_5">
      <!-- 2021-04 -->
      <g transform="translate(411.219989 334.998438)scale(0.1 -0.1)">
       <use xlink:href="#DejaVuSans-50"/>
       <use x="63.623047" xlink:href="#DejaVuSans-48"/>
       <use x="127.246094" xlink:href="#DejaVuSans-50"/>
       <use x="190.869141" xlink:href="#DejaVuSans-49"/>
       <use x="254.492188" xlink:href="#DejaVuSans-45"/>
       <use x="290.576172" xlink:href="#DejaVuSans-48"/>
       <use x="354.199219" xlink:href="#DejaVuSans-52"/>
      </g>
     </g>
    </g>
    <g id="xtick_6">
     <g id="line2d_11">
      <path clip-path="url(#pc4966f0bcd)" d="M 504.352113 320.4 
L 504.352113 43.2 
" style="fill:none;stroke:#808080;stroke-dasharray:6.4,1.6,1,1.6;stroke-dashoffset:0;stroke-opacity:0.3;"/>
     </g>
     <g id="line2d_12">
      <g>
       <use style="stroke:#000000;stroke-width:0.8;" x="504.352113" xlink:href="#mb13062da37" y="320.4"/>
      </g>
     </g>
     <g id="text_6">
      <!-- 2021-07 -->
      <g transform="translate(483.460706 334.998438)scale(0.1 -0.1)">
       <use xlink:href="#DejaVuSans-50"/>
       <use x="63.623047" xlink:href="#DejaVuSans-48"/>
       <use x="127.246094" xlink:href="#DejaVuSans-50"/>
       <use x="190.869141" xlink:href="#DejaVuSans-49"/>
       <use x="254.492188" xlink:href="#DejaVuSans-45"/>
       <use x="290.576172" xlink:href="#DejaVuSans-48"/>
       <use x="354.199219" xlink:href="#DejaVuSans-55"/>
      </g>
     </g>
    </g>
    <g id="xtick_7">
     <g id="line2d_13">
      <path clip-path="url(#pc4966f0bcd)" d="M 577.386684 320.4 
L 577.386684 43.2 
" style="fill:none;stroke:#808080;stroke-dasharray:6.4,1.6,1,1.6;stroke-dashoffset:0;stroke-opacity:0.3;"/>
     </g>
     <g id="line2d_14">
      <g>
       <use style="stroke:#000000;stroke-width:0.8;" x="577.386684" xlink:href="#mb13062da37" y="320.4"/>
      </g>
     </g>
     <g id="text_7">
      <!-- 2021-10 -->
      <g transform="translate(556.495277 334.998438)scale(0.1 -0.1)">
       <use xlink:href="#DejaVuSans-50"/>
       <use x="63.623047" xlink:href="#DejaVuSans-48"/>
       <use x="127.246094" xlink:href="#DejaVuSans-50"/>
       <use x="190.869141" xlink:href="#DejaVuSans-49"/>
       <use x="254.492188" xlink:href="#DejaVuSans-45"/>
       <use x="290.576172" xlink:href="#DejaVuSans-49"/>
       <use x="354.199219" xlink:href="#DejaVuSans-48"/>
      </g>
     </g>
    </g>
    <g id="text_8">
     <!-- Datum -->
     <g transform="translate(352.086719 348.676562)scale(0.1 -0.1)">
      <defs>
       <path d="M 19.671875 64.796875 
L 19.671875 8.109375 
L 31.59375 8.109375 
Q 46.6875 8.109375 53.6875 14.9375 
Q 60.6875 21.78125 60.6875 36.53125 
Q 60.6875 51.171875 53.6875 57.984375 
Q 46.6875 64.796875 31.59375 64.796875 
z
M 9.8125 72.90625 
L 30.078125 72.90625 
Q 51.265625 72.90625 61.171875 64.09375 
Q 71.09375 55.28125 71.09375 36.53125 
Q 71.09375 17.671875 61.125 8.828125 
Q 51.171875 0 30.078125 0 
L 9.8125 0 
z
" id="DejaVuSans-68"/>
       <path d="M 34.28125 27.484375 
Q 23.390625 27.484375 19.1875 25 
Q 14.984375 22.515625 14.984375 16.5 
Q 14.984375 11.71875 18.140625 8.90625 
Q 21.296875 6.109375 26.703125 6.109375 
Q 34.1875 6.109375 38.703125 11.40625 
Q 43.21875 16.703125 43.21875 25.484375 
L 43.21875 27.484375 
z
M 52.203125 31.203125 
L 52.203125 0 
L 43.21875 0 
L 43.21875 8.296875 
Q 40.140625 3.328125 35.546875 0.953125 
Q 30.953125 -1.421875 24.3125 -1.421875 
Q 15.921875 -1.421875 10.953125 3.296875 
Q 6 8.015625 6 15.921875 
Q 6 25.140625 12.171875 29.828125 
Q 18.359375 34.515625 30.609375 34.515625 
L 43.21875 34.515625 
L 43.21875 35.40625 
Q 43.21875 41.609375 39.140625 45 
Q 35.0625 48.390625 27.6875 48.390625 
Q 23 48.390625 18.546875 47.265625 
Q 14.109375 46.140625 10.015625 43.890625 
L 10.015625 52.203125 
Q 14.9375 54.109375 19.578125 55.046875 
Q 24.21875 56 28.609375 56 
Q 40.484375 56 46.34375 49.84375 
Q 52.203125 43.703125 52.203125 31.203125 
z
" id="DejaVuSans-97"/>
       <path d="M 18.3125 70.21875 
L 18.3125 54.6875 
L 36.8125 54.6875 
L 36.8125 47.703125 
L 18.3125 47.703125 
L 18.3125 18.015625 
Q 18.3125 11.328125 20.140625 9.421875 
Q 21.96875 7.515625 27.59375 7.515625 
L 36.8125 7.515625 
L 36.8125 0 
L 27.59375 0 
Q 17.1875 0 13.234375 3.875 
Q 9.28125 7.765625 9.28125 18.015625 
L 9.28125 47.703125 
L 2.6875 47.703125 
L 2.6875 54.6875 
L 9.28125 54.6875 
L 9.28125 70.21875 
z
" id="DejaVuSans-116"/>
       <path d="M 8.5 21.578125 
L 8.5 54.6875 
L 17.484375 54.6875 
L 17.484375 21.921875 
Q 17.484375 14.15625 20.5 10.265625 
Q 23.53125 6.390625 29.59375 6.390625 
Q 36.859375 6.390625 41.078125 11.03125 
Q 45.3125 15.671875 45.3125 23.6875 
L 45.3125 54.6875 
L 54.296875 54.6875 
L 54.296875 0 
L 45.3125 0 
L 45.3125 8.40625 
Q 42.046875 3.421875 37.71875 1 
Q 33.40625 -1.421875 27.6875 -1.421875 
Q 18.265625 -1.421875 13.375 4.4375 
Q 8.5 10.296875 8.5 21.578125 
z
M 31.109375 56 
z
" id="DejaVuSans-117"/>
       <path d="M 52 44.1875 
Q 55.375 50.25 60.0625 53.125 
Q 64.75 56 71.09375 56 
Q 79.640625 56 84.28125 50.015625 
Q 88.921875 44.046875 88.921875 33.015625 
L 88.921875 0 
L 79.890625 0 
L 79.890625 32.71875 
Q 79.890625 40.578125 77.09375 44.375 
Q 74.3125 48.1875 68.609375 48.1875 
Q 61.625 48.1875 57.5625 43.546875 
Q 53.515625 38.921875 53.515625 30.90625 
L 53.515625 0 
L 44.484375 0 
L 44.484375 32.71875 
Q 44.484375 40.625 41.703125 44.40625 
Q 38.921875 48.1875 33.109375 48.1875 
Q 26.21875 48.1875 22.15625 43.53125 
Q 18.109375 38.875 18.109375 30.90625 
L 18.109375 0 
L 9.078125 0 
L 9.078125 54.6875 
L 18.109375 54.6875 
L 18.109375 46.1875 
Q 21.1875 51.21875 25.484375 53.609375 
Q 29.78125 56 35.6875 56 
Q 41.65625 56 45.828125 52.96875 
Q 50 49.953125 52 44.1875 
z
" id="DejaVuSans-109"/>
      </defs>
      <use xlink:href="#DejaVuSans-68"/>
      <use x="77.001953" xlink:href="#DejaVuSans-97"/>
      <use x="138.28125" xlink:href="#DejaVuSans-116"/>
      <use x="177.490234" xlink:href="#DejaVuSans-117"/>
      <use x="240.869141" xlink:href="#DejaVuSans-109"/>
     </g>
    </g>
   </g>
   <g id="matplotlib.axis_2">
    <g id="ytick_1">
     <g id="line2d_15">
      <path clip-path="url(#pc4966f0bcd)" d="M 90 307.876759 
L 648 307.876759 
" style="fill:none;stroke:#808080;stroke-dasharray:6.4,1.6,1,1.6;stroke-dashoffset:0;stroke-opacity:0.3;"/>
     </g>
     <g id="line2d_16">
      <defs>
       <path d="M 0 0 
L -3.5 0 
" id="m710bd0fcc8" style="stroke:#000000;stroke-width:0.8;"/>
      </defs>
      <g>
       <use style="stroke:#000000;stroke-width:0.8;" x="90" xlink:href="#m710bd0fcc8" y="307.876759"/>
      </g>
     </g>
     <g id="text_9">
      <!-- 0 -->
      <g transform="translate(76.6375 311.675978)scale(0.1 -0.1)">
       <use xlink:href="#DejaVuSans-48"/>
      </g>
     </g>
    </g>
    <g id="ytick_2">
     <g id="line2d_17">
      <path clip-path="url(#pc4966f0bcd)" d="M 90 269.497228 
L 648 269.497228 
" style="fill:none;stroke:#808080;stroke-dasharray:6.4,1.6,1,1.6;stroke-dashoffset:0;stroke-opacity:0.3;"/>
     </g>
     <g id="line2d_18">
      <g>
       <use style="stroke:#000000;stroke-width:0.8;" x="90" xlink:href="#m710bd0fcc8" y="269.497228"/>
      </g>
     </g>
     <g id="text_10">
      <!-- 500 -->
      <g transform="translate(63.9125 273.296447)scale(0.1 -0.1)">
       <defs>
        <path d="M 10.796875 72.90625 
L 49.515625 72.90625 
L 49.515625 64.59375 
L 19.828125 64.59375 
L 19.828125 46.734375 
Q 21.96875 47.46875 24.109375 47.828125 
Q 26.265625 48.1875 28.421875 48.1875 
Q 40.625 48.1875 47.75 41.5 
Q 54.890625 34.8125 54.890625 23.390625 
Q 54.890625 11.625 47.5625 5.09375 
Q 40.234375 -1.421875 26.90625 -1.421875 
Q 22.3125 -1.421875 17.546875 -0.640625 
Q 12.796875 0.140625 7.71875 1.703125 
L 7.71875 11.625 
Q 12.109375 9.234375 16.796875 8.0625 
Q 21.484375 6.890625 26.703125 6.890625 
Q 35.15625 6.890625 40.078125 11.328125 
Q 45.015625 15.765625 45.015625 23.390625 
Q 45.015625 31 40.078125 35.4375 
Q 35.15625 39.890625 26.703125 39.890625 
Q 22.75 39.890625 18.8125 39.015625 
Q 14.890625 38.140625 10.796875 36.28125 
z
" id="DejaVuSans-53"/>
       </defs>
       <use xlink:href="#DejaVuSans-53"/>
       <use x="63.623047" xlink:href="#DejaVuSans-48"/>
       <use x="127.246094" xlink:href="#DejaVuSans-48"/>
      </g>
     </g>
    </g>
    <g id="ytick_3">
     <g id="line2d_19">
      <path clip-path="url(#pc4966f0bcd)" d="M 90 231.117697 
L 648 231.117697 
" style="fill:none;stroke:#808080;stroke-dasharray:6.4,1.6,1,1.6;stroke-dashoffset:0;stroke-opacity:0.3;"/>
     </g>
     <g id="line2d_20">
      <g>
       <use style="stroke:#000000;stroke-width:0.8;" x="90" xlink:href="#m710bd0fcc8" y="231.117697"/>
      </g>
     </g>
     <g id="text_11">
      <!-- 1000 -->
      <g transform="translate(57.55 234.916916)scale(0.1 -0.1)">
       <use xlink:href="#DejaVuSans-49"/>
       <use x="63.623047" xlink:href="#DejaVuSans-48"/>
       <use x="127.246094" xlink:href="#DejaVuSans-48"/>
       <use x="190.869141" xlink:href="#DejaVuSans-48"/>
      </g>
     </g>
    </g>
    <g id="ytick_4">
     <g id="line2d_21">
      <path clip-path="url(#pc4966f0bcd)" d="M 90 192.738166 
L 648 192.738166 
" style="fill:none;stroke:#808080;stroke-dasharray:6.4,1.6,1,1.6;stroke-dashoffset:0;stroke-opacity:0.3;"/>
     </g>
     <g id="line2d_22">
      <g>
       <use style="stroke:#000000;stroke-width:0.8;" x="90" xlink:href="#m710bd0fcc8" y="192.738166"/>
      </g>
     </g>
     <g id="text_12">
      <!-- 1500 -->
      <g transform="translate(57.55 196.537385)scale(0.1 -0.1)">
       <use xlink:href="#DejaVuSans-49"/>
       <use x="63.623047" xlink:href="#DejaVuSans-53"/>
       <use x="127.246094" xlink:href="#DejaVuSans-48"/>
       <use x="190.869141" xlink:href="#DejaVuSans-48"/>
      </g>
     </g>
    </g>
    <g id="ytick_5">
     <g id="line2d_23">
      <path clip-path="url(#pc4966f0bcd)" d="M 90 154.358635 
L 648 154.358635 
" style="fill:none;stroke:#808080;stroke-dasharray:6.4,1.6,1,1.6;stroke-dashoffset:0;stroke-opacity:0.3;"/>
     </g>
     <g id="line2d_24">
      <g>
       <use style="stroke:#000000;stroke-width:0.8;" x="90" xlink:href="#m710bd0fcc8" y="154.358635"/>
      </g>
     </g>
     <g id="text_13">
      <!-- 2000 -->
      <g transform="translate(57.55 158.157854)scale(0.1 -0.1)">
       <use xlink:href="#DejaVuSans-50"/>
       <use x="63.623047" xlink:href="#DejaVuSans-48"/>
       <use x="127.246094" xlink:href="#DejaVuSans-48"/>
       <use x="190.869141" xlink:href="#DejaVuSans-48"/>
      </g>
     </g>
    </g>
    <g id="ytick_6">
     <g id="line2d_25">
      <path clip-path="url(#pc4966f0bcd)" d="M 90 115.979104 
L 648 115.979104 
" style="fill:none;stroke:#808080;stroke-dasharray:6.4,1.6,1,1.6;stroke-dashoffset:0;stroke-opacity:0.3;"/>
     </g>
     <g id="line2d_26">
      <g>
       <use style="stroke:#000000;stroke-width:0.8;" x="90" xlink:href="#m710bd0fcc8" y="115.979104"/>
      </g>
     </g>
     <g id="text_14">
      <!-- 2500 -->
      <g transform="translate(57.55 119.778323)scale(0.1 -0.1)">
       <use xlink:href="#DejaVuSans-50"/>
       <use x="63.623047" xlink:href="#DejaVuSans-53"/>
       <use x="127.246094" xlink:href="#DejaVuSans-48"/>
       <use x="190.869141" xlink:href="#DejaVuSans-48"/>
      </g>
     </g>
    </g>
    <g id="ytick_7">
     <g id="line2d_27">
      <path clip-path="url(#pc4966f0bcd)" d="M 90 77.599574 
L 648 77.599574 
" style="fill:none;stroke:#808080;stroke-dasharray:6.4,1.6,1,1.6;stroke-dashoffset:0;stroke-opacity:0.3;"/>
     </g>
     <g id="line2d_28">
      <g>
       <use style="stroke:#000000;stroke-width:0.8;" x="90" xlink:href="#m710bd0fcc8" y="77.599574"/>
      </g>
     </g>
     <g id="text_15">
      <!-- 3000 -->
      <g transform="translate(57.55 81.398792)scale(0.1 -0.1)">
       <defs>
        <path d="M 40.578125 39.3125 
Q 47.65625 37.796875 51.625 33 
Q 55.609375 28.21875 55.609375 21.1875 
Q 55.609375 10.40625 48.1875 4.484375 
Q 40.765625 -1.421875 27.09375 -1.421875 
Q 22.515625 -1.421875 17.65625 -0.515625 
Q 12.796875 0.390625 7.625 2.203125 
L 7.625 11.71875 
Q 11.71875 9.328125 16.59375 8.109375 
Q 21.484375 6.890625 26.8125 6.890625 
Q 36.078125 6.890625 40.9375 10.546875 
Q 45.796875 14.203125 45.796875 21.1875 
Q 45.796875 27.640625 41.28125 31.265625 
Q 36.765625 34.90625 28.71875 34.90625 
L 20.21875 34.90625 
L 20.21875 43.015625 
L 29.109375 43.015625 
Q 36.375 43.015625 40.234375 45.921875 
Q 44.09375 48.828125 44.09375 54.296875 
Q 44.09375 59.90625 40.109375 62.90625 
Q 36.140625 65.921875 28.71875 65.921875 
Q 24.65625 65.921875 20.015625 65.03125 
Q 15.375 64.15625 9.8125 62.3125 
L 9.8125 71.09375 
Q 15.4375 72.65625 20.34375 73.4375 
Q 25.25 74.21875 29.59375 74.21875 
Q 40.828125 74.21875 47.359375 69.109375 
Q 53.90625 64.015625 53.90625 55.328125 
Q 53.90625 49.265625 50.4375 45.09375 
Q 46.96875 40.921875 40.578125 39.3125 
z
" id="DejaVuSans-51"/>
       </defs>
       <use xlink:href="#DejaVuSans-51"/>
       <use x="63.623047" xlink:href="#DejaVuSans-48"/>
       <use x="127.246094" xlink:href="#DejaVuSans-48"/>
       <use x="190.869141" xlink:href="#DejaVuSans-48"/>
      </g>
     </g>
    </g>
   </g>
   <g id="line2d_29">
    <path clip-path="url(#pc4966f0bcd)" d="M 115.363636 303.194456 
L 116.15749 302.88742 
L 116.951344 302.88742 
L 117.745198 302.350107 
L 118.539052 301.505757 
L 119.332907 300.968443 
L 120.126761 300.047335 
L 120.920615 299.356503 
L 121.714469 297.97484 
L 122.508323 297.360768 
L 123.302177 295.979104 
L 124.889885 292.29467 
L 125.683739 289.531343 
L 126.477593 286.230704 
L 127.271447 280.934328 
L 128.065301 277.940725 
L 128.859155 274.25629 
L 129.653009 264.047335 
L 130.446863 257.599574 
L 131.240717 247.774414 
L 132.034571 231.73177 
L 132.828425 218.452452 
L 133.622279 212.311727 
L 134.416133 204.482303 
L 135.209987 179.38209 
L 136.797695 143.228571 
L 137.591549 128.183795 
L 138.385403 108.14968 
L 139.179257 112.908742 
L 139.973111 116.516418 
L 140.766965 105.309595 
L 141.560819 110.989765 
L 142.354673 118.358635 
L 143.148528 120.124094 
L 143.942382 119.663539 
L 144.736236 135.859701 
L 145.53009 139.620896 
L 146.323944 130.409808 
L 147.911652 151.902345 
L 148.705506 165.41194 
L 149.49936 172.243497 
L 150.293214 186.597441 
L 151.087068 190.895949 
L 151.880922 191.510021 
L 152.674776 190.588913 
L 153.46863 197.266951 
L 154.262484 205.633689 
L 155.056338 208.78081 
L 155.850192 219.757356 
L 156.644046 221.676333 
L 157.4379 218.60597 
L 158.231754 222.213646 
L 159.025608 228.584648 
L 159.819462 231.808529 
L 160.613316 236.183795 
L 161.40717 246.008955 
L 162.201024 248.234968 
L 162.994878 249.386354 
L 163.788732 248.08145 
L 164.582586 252.610235 
L 165.37644 254.529211 
L 166.170294 258.6742 
L 166.964149 265.045203 
L 167.758003 266.273348 
L 168.551857 262.512154 
L 169.345711 267.655011 
L 170.139565 266.503625 
L 170.933419 268.49936 
L 171.727273 268.576119 
L 172.521127 272.260554 
L 173.314981 273.642217 
L 174.108835 271.416205 
L 176.490397 278.247761 
L 177.284251 279.859701 
L 178.078105 283.2371 
L 178.871959 282.162473 
L 179.665813 279.706183 
L 180.459667 281.548401 
L 181.253521 282.546269 
L 182.047375 285.156077 
L 182.841229 282.853305 
L 183.635083 285.616631 
L 184.428937 286.230704 
L 185.222791 283.544136 
L 186.016645 284.004691 
L 186.810499 286.307463 
L 187.604353 287.919403 
L 188.398207 287.689126 
L 189.192061 288.99403 
L 189.985915 289.377825 
L 190.77977 289.070789 
L 191.573624 287.38209 
L 192.367478 287.996162 
L 193.955186 290.452452 
L 194.74904 293.06226 
L 196.336748 293.06226 
L 197.130602 294.597441 
L 197.924456 295.825586 
L 198.71831 295.51855 
L 199.512164 296.209382 
L 200.306018 297.667804 
L 201.099872 297.744563 
L 201.893726 297.514286 
L 202.68758 297.514286 
L 203.481434 298.128358 
L 204.275288 298.051599 
L 205.069142 298.358635 
L 205.862996 299.817058 
L 206.65685 299.740299 
L 207.450704 299.510021 
L 208.244558 299.433262 
L 209.038412 299.510021 
L 209.832266 298.895949 
L 210.62612 299.126226 
L 211.419974 300.738166 
L 212.213828 300.584648 
L 213.007682 299.893817 
L 213.801536 300.968443 
L 214.595391 301.121962 
L 215.389245 301.659275 
L 216.183099 301.659275 
L 216.976953 302.426866 
L 219.358515 301.736034 
L 220.152369 301.889552 
L 220.946223 301.889552 
L 221.740077 301.121962 
L 222.533931 301.736034 
L 223.327785 301.736034 
L 224.121639 301.198721 
L 224.915493 301.121962 
L 225.709347 301.659275 
L 226.503201 301.966311 
L 227.297055 302.119829 
L 228.090909 301.582516 
L 229.678617 301.121962 
L 230.472471 301.121962 
L 231.266325 301.966311 
L 232.060179 301.505757 
L 232.854033 301.659275 
L 234.441741 301.27548 
L 235.235595 300.661407 
L 236.029449 300.43113 
L 236.823303 301.121962 
L 238.411012 300.507889 
L 239.204866 300.43113 
L 240.792574 298.895949 
L 241.586428 299.433262 
L 242.380282 299.817058 
L 243.174136 299.893817 
L 244.761844 298.81919 
L 245.555698 297.821322 
L 246.349552 297.053731 
L 247.143406 295.51855 
L 247.93726 295.288273 
L 248.731114 295.441791 
L 250.318822 296.055864 
L 251.112676 295.441791 
L 251.90653 294.136887 
L 252.700384 294.520682 
L 253.494238 294.290405 
L 254.288092 293.599574 
L 255.081946 294.060128 
L 255.8758 295.595309 
L 256.669654 295.51855 
L 257.463508 295.211514 
L 258.257362 294.750959 
L 259.051216 295.51855 
L 259.84507 296.669936 
L 260.638924 296.516418 
L 261.432778 297.821322 
L 262.226633 297.667804 
L 263.020487 296.823454 
L 263.814341 296.900213 
L 264.608195 296.439659 
L 265.402049 296.823454 
L 266.195903 296.286141 
L 266.989757 296.286141 
L 267.783611 294.904478 
L 268.577465 293.292537 
L 269.371319 292.21791 
L 270.165173 290.682729 
L 270.959027 291.143284 
L 271.752881 289.684861 
L 272.546735 289.915139 
L 273.340589 288.917271 
L 274.134443 285.770149 
L 274.928297 285.079318 
L 275.722151 283.006823 
L 276.516005 281.62516 
L 277.309859 278.708316 
L 278.897567 275.791471 
L 279.691421 271.8 
L 280.485275 269.573987 
L 282.072983 262.512154 
L 282.866837 260.3629 
L 283.660691 260.746695 
L 284.454545 258.213646 
L 285.248399 253.915139 
L 286.042254 251.151812 
L 286.836108 249.770149 
L 287.629962 247.544136 
L 289.21767 244.243497 
L 290.011524 241.096375 
L 290.805378 233.113433 
L 291.599232 229.736034 
L 292.393086 227.970576 
L 293.18694 225.821322 
L 293.980794 219.987633 
L 294.774648 221.369296 
L 295.568502 216.917271 
L 296.362356 205.633689 
L 297.15621 198.18806 
L 297.950064 198.648614 
L 298.743918 196.49936 
L 299.537772 192.43113 
L 300.331626 193.198721 
L 301.12548 190.665672 
L 301.919334 178.998294 
L 302.713188 174.392751 
L 303.507042 171.859701 
L 305.09475 160.038806 
L 305.888604 165.41194 
L 306.682458 160.038806 
L 307.476312 147.680597 
L 308.270166 147.296802 
L 309.06402 148.601706 
L 309.857875 151.211514 
L 310.651729 149.676333 
L 311.445583 155.510021 
L 312.239437 153.97484 
L 313.033291 137.932196 
L 313.827145 142.000426 
L 315.414853 152.516418 
L 316.208707 158.273348 
L 317.002561 169.863966 
L 317.796415 171.399147 
L 318.590269 160.192324 
L 319.384123 165.104904 
L 320.971831 172.320256 
L 321.765685 173.855437 
L 322.559539 184.141151 
L 323.353393 184.601706 
L 324.147247 173.318124 
L 324.941101 175.544136 
L 326.528809 184.601706 
L 328.116517 199.032409 
L 328.910371 196.345842 
L 329.704225 186.367164 
L 330.498079 189.97484 
L 331.291933 195.347974 
L 332.085787 194.88742 
L 332.879641 195.73177 
L 333.673496 203.407676 
L 334.46735 203.023881 
L 335.261204 196.49936 
L 336.055058 199.953518 
L 336.848912 202.793603 
L 337.642766 202.102772 
L 338.43662 199.569723 
L 339.230474 203.407676 
L 340.024328 200.260554 
L 340.818182 191.817058 
L 341.612036 192.968443 
L 342.40589 194.350107 
L 343.199744 194.580384 
L 343.993598 188.976972 
L 344.787452 191.049467 
L 345.581306 186.981237 
L 346.37516 173.778678 
L 347.169014 174.162473 
L 347.962868 171.859701 
L 348.756722 168.482303 
L 349.550576 164.337313 
L 350.34443 171.706183 
L 351.138284 170.554797 
L 351.932138 155.433262 
L 352.725992 154.051599 
L 353.519846 152.055864 
L 354.3137 150.597441 
L 355.107554 158.426866 
L 355.901408 155.433262 
L 356.695262 148.524947 
L 357.489117 126.878891 
L 358.282971 128.337313 
L 359.076825 131.637953 
L 359.870679 137.778678 
L 360.664533 150.213646 
L 361.458387 146.375693 
L 362.252241 144.533475 
L 363.046095 135.092111 
L 363.839949 137.855437 
L 366.221511 151.211514 
L 367.015365 164.721109 
L 367.809219 164.030277 
L 368.603073 153.667804 
L 370.190781 163.185928 
L 370.984635 167.86823 
L 371.778489 169.403412 
L 372.572343 179.151812 
L 373.366197 182.759488 
L 374.160051 173.011087 
L 374.953905 173.932196 
L 375.747759 179.919403 
L 376.541613 179.919403 
L 377.335467 181.76162 
L 378.129321 187.441791 
L 378.923175 186.827719 
L 379.717029 179.612367 
L 380.510883 183.066525 
L 381.304738 187.979104 
L 382.098592 191.202985 
L 382.892446 190.281876 
L 383.6863 195.655011 
L 384.480154 192.891684 
L 385.274008 184.985501 
L 386.067862 187.51855 
L 386.861716 191.893817 
L 387.65557 194.273348 
L 388.449424 195.194456 
L 389.243278 204.71258 
L 390.037132 206.094243 
L 390.830986 198.034542 
L 391.62484 200.107036 
L 392.418694 200.260554 
L 393.212548 201.104904 
L 394.006402 202.793603 
L 394.800256 210.46951 
L 395.59411 210.008955 
L 396.387964 201.565458 
L 397.181818 202.870362 
L 397.975672 203.944989 
L 398.769526 203.484435 
L 399.56338 205.173134 
L 400.357234 212.465245 
L 401.151088 212.695522 
L 401.944942 204.021748 
L 403.53265 206.171002 
L 404.326504 209.164606 
L 405.120359 210.239232 
L 405.914213 214.460981 
L 406.708067 213.232836 
L 407.501921 203.714712 
L 408.295775 205.173134 
L 409.089629 208.934328 
L 409.883483 210.315991 
L 410.677337 211.467377 
L 411.471191 217.608102 
L 412.265045 216.072921 
L 413.058899 207.475906 
L 413.852753 207.399147 
L 414.646607 209.548401 
L 415.440461 210.546269 
L 416.234315 210.315991 
L 417.028169 213.232836 
L 417.822023 211.2371 
L 418.615877 202.102772 
L 419.409731 201.565458 
L 420.203585 202.333049 
L 420.997439 199.109168 
L 421.791293 198.725373 
L 422.585147 202.333049 
L 423.379001 198.341578 
L 424.172855 188.055864 
L 424.966709 190.588913 
L 425.760563 189.97484 
L 426.554417 190.281876 
L 427.348271 188.593177 
L 428.142125 194.273348 
L 428.93598 192.891684 
L 429.729834 178.614499 
L 430.523688 180.072921 
L 431.317542 183.143284 
L 432.111396 182.298934 
L 432.90525 187.51855 
L 433.699104 194.810661 
L 434.492958 193.736034 
L 435.286812 188.209382 
L 436.080666 180.226439 
L 436.87452 180.99403 
L 437.668374 183.527079 
L 438.462228 182.068657 
L 439.256082 189.13049 
L 440.049936 188.132623 
L 440.84379 182.452452 
L 441.637644 186.597441 
L 442.431498 188.823454 
L 443.225352 190.588913 
L 444.019206 187.748827 
L 444.81306 193.659275 
L 445.606914 191.126226 
L 446.400768 176.311727 
L 447.194622 175.544136 
L 447.988476 175.697655 
L 448.78233 175.620896 
L 449.576184 177.616631 
L 450.370038 186.750959 
L 451.163892 184.601706 
L 451.957746 171.859701 
L 452.751601 178.614499 
L 453.545455 168.789339 
L 454.339309 166.25629 
L 455.133163 167.637953 
L 455.927017 177.616631 
L 456.720871 181.147548 
L 457.514725 173.164606 
L 458.308579 177.539872 
L 459.102433 186.827719 
L 459.896287 185.292537 
L 460.690141 184.678465 
L 461.483995 193.966311 
L 462.277849 195.962047 
L 463.071703 188.593177 
L 463.865557 193.198721 
L 464.659411 199.109168 
L 465.453265 208.089979 
L 466.247119 202.947122 
L 467.040973 211.620896 
L 467.834827 213.386354 
L 468.628681 206.785075 
L 469.422535 210.315991 
L 470.216389 217.684861 
L 471.804097 224.055864 
L 472.597951 232.422601 
L 473.391805 234.878891 
L 474.185659 235.262687 
L 474.979513 233.190192 
L 476.567222 243.859701 
L 477.361076 246.853305 
L 478.15493 253.531343 
L 478.948784 255.757356 
L 479.742638 253.454584 
L 480.536492 257.446055 
L 482.1242 263.663539 
L 482.918054 263.356503 
L 483.711908 266.426866 
L 484.505762 266.88742 
L 485.299616 266.196588 
L 486.09347 268.652878 
L 486.887324 272.951386 
L 488.475032 277.326652 
L 489.268886 281.087846 
L 490.06274 281.011087 
L 490.856594 279.092111 
L 491.650448 282.46951 
L 492.444302 284.004691 
L 493.238156 284.311727 
L 494.03201 284.772281 
L 494.825864 286.921535 
L 495.619718 287.151812 
L 496.413572 287.151812 
L 497.207426 289.377825 
L 498.00128 290.068657 
L 498.795134 291.680597 
L 500.382843 293.676333 
L 501.176697 293.522814 
L 501.970551 294.060128 
L 502.764405 294.136887 
L 503.558259 295.211514 
L 504.352113 295.134755 
L 505.145967 295.902345 
L 505.939821 296.3629 
L 507.527529 295.825586 
L 508.321383 296.516418 
L 509.115237 296.593177 
L 509.909091 296.132623 
L 510.702945 295.979104 
L 511.496799 295.51855 
L 513.084507 293.676333 
L 513.878361 293.06226 
L 516.259923 287.765885 
L 517.053777 286.384222 
L 517.847631 283.467377 
L 518.641485 279.399147 
L 519.435339 276.71258 
L 521.023047 275.023881 
L 521.816901 272.107036 
L 522.610755 271.416205 
L 523.404609 270.495096 
L 524.198464 266.119829 
L 524.992318 264.661407 
L 525.786172 264.43113 
L 526.580026 263.893817 
L 527.37388 263.510021 
L 528.167734 265.121962 
L 528.961588 264.047335 
L 529.755442 262.051599 
L 530.549296 265.582516 
L 531.34315 267.578252 
L 532.137004 268.806397 
L 532.930858 269.420469 
L 533.724712 270.725373 
L 534.518566 271.646482 
L 535.31242 270.802132 
L 536.106274 270.725373 
L 536.900128 272.260554 
L 537.693982 271.339446 
L 538.487836 270.034542 
L 539.28169 270.341578 
L 540.075544 269.036674 
L 540.869398 266.580384 
L 541.663252 267.424733 
L 542.457106 268.729638 
L 543.25096 269.036674 
L 544.044814 269.573987 
L 544.838668 272.183795 
L 545.632522 270.571855 
L 546.426376 268.345842 
L 547.22023 269.573987 
L 548.014085 270.571855 
L 548.807939 270.725373 
L 549.601793 270.648614 
L 550.395647 272.030277 
L 551.189501 271.262687 
L 551.983355 268.806397 
L 552.777209 270.571855 
L 553.571063 271.339446 
L 554.364917 271.416205 
L 555.158771 270.802132 
L 555.952625 272.414072 
L 556.746479 272.337313 
L 557.540333 270.95565 
L 558.334187 270.341578 
L 559.128041 269.957783 
L 559.921895 271.339446 
L 560.715749 272.107036 
L 561.509603 272.64435 
L 562.303457 271.876759 
L 563.097311 270.495096 
L 563.891165 271.8 
L 564.685019 273.795736 
L 566.272727 275.10064 
L 567.066581 276.71258 
L 567.860435 277.096375 
L 568.654289 276.175267 
L 570.241997 279.552665 
L 571.035851 280.166738 
L 571.829706 281.087846 
L 572.62356 282.699787 
L 573.417414 282.239232 
L 574.211268 279.936461 
L 575.798976 280.627292 
L 576.59283 279.629424 
L 577.386684 279.092111 
L 578.180538 280.550533 
L 578.974392 279.706183 
L 579.768246 276.482303 
L 581.355954 274.793603 
L 582.149808 275.330917 
L 582.943662 274.563326 
L 583.737516 274.793603 
L 584.53137 273.41194 
L 585.325224 270.18806 
L 586.119078 268.115565 
L 588.50064 264.124094 
L 589.294494 264.584648 
L 590.088348 262.281876 
L 590.882202 257.522814 
L 591.676056 255.757356 
L 592.46991 252.99403 
L 593.263764 250.691258 
L 594.057618 249.616631 
L 594.851472 249.079318 
L 595.645327 247.006823 
L 596.439181 240.789339 
L 597.233035 238.793603 
L 599.614597 223.211514 
L 600.408451 221.90661 
L 601.202305 217.608102 
L 601.996159 207.245629 
L 602.790013 203.484435 
L 603.583867 203.86823 
L 604.377721 202.640085 
L 605.171575 198.111301 
L 605.965429 200.337313 
L 606.759283 194.733902 
L 607.553137 182.222175 
L 608.346991 181.377825 
L 609.140845 180.840512 
L 609.934699 177.079318 
L 610.728553 174.546269 
L 611.522407 175.774414 
L 612.316261 169.480171 
L 613.110115 156.200853 
L 613.903969 153.360768 
L 614.697823 154.205117 
L 615.491677 154.205117 
L 616.285531 147.220043 
L 617.079385 151.979104 
L 617.873239 146.60597 
L 618.667093 132.559062 
L 619.460948 130.640085 
L 620.254802 133.787207 
L 621.048656 135.16887 
L 621.84251 140.388486 
L 622.636364 154.665672 
L 622.636364 154.665672 
" style="fill:none;stroke:#ff0000;stroke-linecap:square;stroke-width:1.5;"/>
   </g>
   <g id="line2d_30">
    <path clip-path="url(#pc4966f0bcd)" d="M 115.363636 307.8 
L 116.15749 307.185928 
L 116.951344 307.109168 
L 117.745198 306.341578 
L 118.539052 305.266951 
L 119.332907 304.806397 
L 122.508323 300.738166 
L 123.302177 299.58678 
L 124.889885 294.520682 
L 125.683739 291.373561 
L 128.065301 275.330917 
L 128.859155 269.497228 
L 130.446863 248.388486 
L 131.240717 233.727505 
L 132.828425 194.119829 
L 134.416133 164.260554 
L 135.209987 135.629424 
L 136.797695 92.107036 
L 137.591549 81.284009 
L 138.385403 60.252026 
L 139.179257 55.8 
L 139.973111 55.8 
L 140.766965 59.791471 
L 143.148528 92.414072 
L 143.942382 113.599574 
L 144.736236 110.60597 
L 145.53009 133.633689 
L 146.323944 84.354371 
L 147.117798 99.629424 
L 147.911652 88.038806 
L 148.705506 98.094243 
L 149.49936 102.546269 
L 150.293214 101.778678 
L 151.087068 113.522814 
L 151.880922 122.503625 
L 152.674776 124.345842 
L 153.46863 127.109168 
L 154.262484 125.420469 
L 155.056338 132.405544 
L 155.850192 133.940725 
L 156.644046 142.921535 
L 157.4379 141.69339 
L 158.231754 142.307463 
L 159.025608 149.06226 
L 159.819462 165.41194 
L 160.613316 172.397015 
L 161.40717 173.855437 
L 162.201024 177.079318 
L 162.994878 183.066525 
L 163.788732 187.441791 
L 164.582586 186.981237 
L 165.37644 194.964179 
L 166.170294 195.194456 
L 166.964149 193.198721 
L 167.758003 201.949254 
L 168.551857 205.55693 
L 169.345711 205.55693 
L 170.139565 204.098507 
L 170.933419 209.164606 
L 171.727273 216.610235 
L 172.521127 220.985501 
L 173.314981 226.972708 
L 174.108835 222.060128 
L 174.902689 222.6742 
L 175.696543 228.738166 
L 176.490397 228.891684 
L 177.284251 232.576119 
L 178.078105 233.34371 
L 178.871959 237.335181 
L 179.665813 238.102772 
L 180.459667 236.260554 
L 182.047375 237.949254 
L 183.635083 245.62516 
L 184.428937 251.842644 
L 185.222791 249.846908 
L 186.016645 254.298934 
L 186.810499 252.379957 
L 187.604353 254.529211 
L 188.398207 260.439659 
L 189.192061 262.665672 
L 189.985915 266.119829 
L 190.77977 266.273348 
L 191.573624 268.269083 
L 192.367478 269.804264 
L 193.161332 270.95565 
L 195.542894 273.872495 
L 196.336748 277.173134 
L 197.130602 281.318124 
L 197.924456 282.315991 
L 198.71831 285.079318 
L 199.512164 286.460981 
L 200.306018 285.69339 
L 201.099872 286.614499 
L 201.893726 286.307463 
L 202.68758 286.384222 
L 203.481434 285.69339 
L 205.069142 289.83838 
L 205.862996 290.989765 
L 206.65685 290.913006 
L 207.450704 292.985501 
L 208.244558 291.680597 
L 209.038412 292.755224 
L 209.832266 294.213646 
L 210.62612 293.292537 
L 211.419974 294.060128 
L 212.213828 294.213646 
L 213.007682 295.825586 
L 213.801536 295.595309 
L 214.595391 296.3629 
L 216.976953 302.119829 
L 217.770807 301.198721 
L 218.564661 301.659275 
L 219.358515 301.812793 
L 220.946223 302.503625 
L 221.740077 302.580384 
L 222.533931 301.966311 
L 223.327785 301.505757 
L 224.121639 300.661407 
L 224.915493 300.661407 
L 225.709347 301.352239 
L 226.503201 301.736034 
L 227.297055 302.273348 
L 228.090909 301.889552 
L 228.884763 302.273348 
L 230.472471 300.968443 
L 231.266325 301.352239 
L 232.060179 300.891684 
L 232.854033 302.196588 
L 233.647887 300.891684 
L 234.441741 302.733902 
L 235.235595 302.503625 
L 236.029449 301.966311 
L 236.823303 303.040938 
L 237.617157 302.810661 
L 238.411012 302.273348 
L 239.204866 302.733902 
L 239.99872 302.503625 
L 240.792574 301.582516 
L 241.586428 301.505757 
L 242.380282 301.121962 
L 243.174136 301.812793 
L 243.96799 301.889552 
L 244.761844 301.812793 
L 245.555698 301.198721 
L 246.349552 300.277612 
L 247.143406 300.43113 
L 247.93726 298.895949 
L 248.731114 298.128358 
L 249.524968 298.665672 
L 250.318822 298.358635 
L 251.112676 298.512154 
L 252.700384 297.97484 
L 253.494238 298.281876 
L 254.288092 297.284009 
L 255.081946 297.667804 
L 256.669654 297.97484 
L 257.463508 298.588913 
L 259.051216 298.665672 
L 259.84507 299.663539 
L 260.638924 300.200853 
L 261.432778 300.507889 
L 262.226633 300.661407 
L 263.814341 300.738166 
L 264.608195 300.968443 
L 265.402049 300.584648 
L 266.195903 300.584648 
L 266.989757 300.277612 
L 267.783611 299.817058 
L 268.577465 299.510021 
L 271.752881 297.437527 
L 272.546735 297.284009 
L 273.340589 296.516418 
L 274.134443 295.134755 
L 274.928297 293.522814 
L 275.722151 293.215778 
L 277.309859 290.222175 
L 278.103713 287.919403 
L 278.897567 286.691258 
L 279.691421 282.930064 
L 280.485275 282.623028 
L 281.279129 279.399147 
L 282.072983 277.55693 
L 282.866837 274.793603 
L 283.660691 274.640085 
L 284.454545 270.264819 
L 285.248399 268.115565 
L 286.042254 265.582516 
L 286.836108 265.582516 
L 287.629962 266.503625 
L 288.423816 263.893817 
L 289.21767 262.972708 
L 290.805378 252.99403 
L 291.599232 247.620896 
L 292.393086 245.62516 
L 293.18694 243.245629 
L 294.774648 234.571855 
L 295.568502 232.192324 
L 296.362356 227.58678 
L 297.15621 220.908742 
L 298.743918 214.768017 
L 299.537772 215.151812 
L 300.331626 214.53774 
L 302.713188 197.34371 
L 305.09475 184.985501 
L 305.888604 183.987633 
L 306.682458 180.686994 
L 308.270166 167.484435 
L 309.06402 167.330917 
L 309.857875 167.330917 
L 310.651729 168.328785 
L 313.033291 157.582516 
L 313.827145 150.981237 
L 314.620999 157.428998 
L 315.414853 161.650746 
L 317.002561 171.092111 
L 317.796415 177.616631 
L 318.590269 176.08145 
L 319.384123 177.616631 
L 320.177977 179.612367 
L 320.971831 184.601706 
L 321.765685 187.211514 
L 322.559539 190.435394 
L 323.353393 192.047335 
L 324.147247 188.3629 
L 324.941101 187.365032 
L 325.734955 190.588913 
L 326.528809 194.657143 
L 328.116517 204.098507 
L 329.704225 197.957783 
L 330.498079 200.490832 
L 331.291933 207.322388 
L 332.085787 211.390618 
L 332.879641 211.851173 
L 333.673496 215.765885 
L 334.46735 216.226439 
L 335.261204 212.695522 
L 336.055058 215.38209 
L 336.848912 221.06226 
L 337.642766 220.601706 
L 338.43662 219.45032 
L 339.230474 221.139019 
L 340.024328 217.915139 
L 340.818182 216.533475 
L 341.612036 213.002559 
L 342.40589 214.921535 
L 343.199744 217.377825 
L 345.581306 210.392751 
L 346.37516 202.793603 
L 347.169014 198.111301 
L 347.962868 197.497228 
L 348.756722 195.271215 
L 350.34443 192.354371 
L 351.138284 190.205117 
L 351.932138 186.904478 
L 352.725992 177.156077 
L 353.519846 178.460981 
L 354.3137 176.465245 
L 355.107554 177.079318 
L 355.901408 174.776546 
L 356.695262 169.940725 
L 357.489117 160.345842 
L 358.282971 148.448188 
L 359.076825 154.205117 
L 359.870679 146.375693 
L 360.664533 157.659275 
L 361.458387 153.97484 
L 362.252241 153.898081 
L 363.046095 144.379957 
L 363.839949 142.153945 
L 364.633803 144.303198 
L 365.427657 150.367164 
L 366.221511 159.271215 
L 367.015365 164.030277 
L 367.809219 165.872495 
L 368.603073 160.038806 
L 369.396927 158.580384 
L 370.190781 168.098507 
L 370.984635 168.635821 
L 371.778489 170.938593 
L 372.572343 177.846908 
L 373.366197 176.772281 
L 374.160051 174.008955 
L 374.953905 172.243497 
L 375.747759 176.695522 
L 376.541613 179.919403 
L 377.335467 178.614499 
L 378.129321 182.529211 
L 378.923175 179.919403 
L 379.717029 175.851173 
L 380.510883 177.002559 
L 382.098592 185.446055 
L 382.892446 187.211514 
L 383.6863 185.06226 
L 384.480154 187.134755 
L 385.274008 182.682729 
L 386.067862 181.991898 
L 386.861716 184.985501 
L 387.65557 191.279744 
L 389.243278 197.650746 
L 390.037132 196.959915 
L 390.830986 193.352239 
L 391.62484 195.808529 
L 392.418694 196.038806 
L 394.800256 206.171002 
L 395.59411 205.863966 
L 396.387964 201.488699 
L 397.181818 200.414072 
L 397.975672 200.490832 
L 398.769526 199.8 
L 399.56338 197.881023 
L 400.357234 205.326652 
L 401.151088 206.938593 
L 402.738796 202.026013 
L 403.53265 204.252026 
L 404.326504 203.407676 
L 405.120359 205.096375 
L 405.914213 208.78081 
L 406.708067 206.401279 
L 407.501921 202.333049 
L 408.295775 197.036674 
L 409.089629 200.64435 
L 410.677337 202.716844 
L 411.471191 206.478038 
L 412.265045 207.629424 
L 413.058899 204.482303 
L 413.852753 199.876759 
L 414.646607 204.021748 
L 415.440461 204.021748 
L 416.234315 205.480171 
L 417.028169 206.478038 
L 417.822023 202.870362 
L 418.615877 196.192324 
L 419.409731 196.49936 
L 420.203585 198.571855 
L 420.997439 197.650746 
L 421.791293 195.655011 
L 422.585147 196.959915 
L 423.379001 195.655011 
L 424.172855 188.516418 
L 424.966709 186.981237 
L 425.760563 187.979104 
L 426.554417 187.134755 
L 427.348271 185.369296 
L 428.93598 185.599574 
L 429.729834 179.919403 
L 430.523688 175.2371 
L 431.317542 180.99403 
L 432.90525 183.143284 
L 433.699104 183.987633 
L 434.492958 186.060128 
L 435.286812 182.913006 
L 436.080666 173.701919 
L 436.87452 171.092111 
L 437.668374 175.313859 
L 438.462228 176.542004 
L 439.256082 177.079318 
L 440.049936 175.160341 
L 440.84379 170.631557 
L 441.637644 172.78081 
L 442.431498 176.234968 
L 443.225352 178.307463 
L 444.019206 177.539872 
L 444.81306 183.066525 
L 445.606914 179.689126 
L 446.400768 175.006823 
L 447.194622 167.407676 
L 447.988476 170.32452 
L 448.78233 166.409808 
L 449.576184 171.552665 
L 450.370038 177.539872 
L 451.163892 178.077186 
L 451.957746 172.857569 
L 453.545455 169.940725 
L 454.339309 162.725373 
L 455.133163 162.111301 
L 455.927017 167.637953 
L 456.720871 170.017484 
L 457.514725 168.405544 
L 458.308579 170.094243 
L 459.102433 176.234968 
L 459.896287 174.008955 
L 460.690141 175.544136 
L 461.483995 177.386354 
L 462.277849 179.842644 
L 463.071703 175.083582 
L 463.865557 174.930064 
L 465.453265 192.891684 
L 466.247119 191.049467 
L 467.040973 194.810661 
L 467.834827 195.347974 
L 468.628681 192.584648 
L 469.422535 192.507889 
L 470.216389 203.10064 
L 471.010243 209.778678 
L 471.804097 214.691258 
L 472.597951 221.215778 
L 473.391805 223.134755 
L 474.185659 223.672068 
L 474.979513 223.288273 
L 475.773367 226.588913 
L 476.567222 233.34371 
L 477.361076 237.335181 
L 478.15493 242.401279 
L 478.948784 243.322388 
L 479.742638 242.631557 
L 480.536492 247.006823 
L 481.330346 248.849041 
L 482.1242 253.83838 
L 482.918054 255.066525 
L 483.711908 257.369296 
L 485.299616 257.983369 
L 486.09347 260.593177 
L 486.887324 267.194456 
L 489.268886 276.942857 
L 490.856594 275.791471 
L 491.650448 277.55693 
L 492.444302 279.782942 
L 493.238156 281.241365 
L 494.03201 283.697655 
L 496.413572 285.309595 
L 497.207426 286.614499 
L 498.795134 289.915139 
L 500.382843 292.678465 
L 501.176697 292.21791 
L 501.970551 293.369296 
L 502.764405 293.90661 
L 503.558259 294.981237 
L 504.352113 295.672068 
L 505.145967 297.13049 
L 505.939821 298.051599 
L 506.733675 298.205117 
L 507.527529 298.205117 
L 508.321383 299.510021 
L 509.115237 300.047335 
L 509.909091 299.740299 
L 510.702945 298.665672 
L 511.496799 298.435394 
L 512.290653 298.81919 
L 513.084507 297.97484 
L 513.878361 297.97484 
L 514.672215 297.284009 
L 515.466069 295.748827 
L 516.259923 293.292537 
L 517.053777 291.987633 
L 517.847631 289.83838 
L 519.435339 283.697655 
L 519.435339 283.697655 
" style="fill:none;stroke:#ffa500;stroke-linecap:square;stroke-width:1.5;"/>
   </g>
   <g id="line2d_31">
    <path clip-path="url(#pc4966f0bcd)" d="M 155.850192 280.550533 
L 156.644046 281.394883 
L 157.4379 281.471642 
L 158.231754 277.326652 
L 159.025608 277.55693 
L 159.819462 278.017484 
L 160.613316 278.094243 
L 161.40717 278.32452 
L 162.201024 277.55693 
L 162.994878 279.706183 
L 164.582586 274.793603 
L 165.37644 274.716844 
L 166.170294 275.177399 
L 166.964149 275.791471 
L 167.758003 278.554797 
L 168.551857 278.938593 
L 169.345711 277.633689 
L 170.139565 277.403412 
L 170.933419 274.102772 
L 171.727273 276.098507 
L 172.521127 273.335181 
L 174.108835 278.094243 
L 174.902689 272.414072 
L 175.696543 271.492964 
L 176.490397 269.727505 
L 177.284251 267.424733 
L 178.078105 267.808529 
L 178.871959 270.878891 
L 179.665813 271.262687 
L 180.459667 267.73177 
L 181.253521 267.424733 
L 182.047375 266.350107 
L 182.841229 270.95565 
L 183.635083 269.113433 
L 185.222791 270.034542 
L 186.016645 269.573987 
L 186.810499 267.808529 
L 187.604353 264.968443 
L 188.398207 265.736034 
L 189.192061 267.117697 
L 189.985915 269.420469 
L 191.573624 271.339446 
L 192.367478 268.422601 
L 193.161332 264.354371 
L 193.955186 266.196588 
L 194.74904 265.736034 
L 195.542894 269.34371 
L 196.336748 266.964179 
L 197.130602 267.885288 
L 197.924456 266.810661 
L 198.71831 266.119829 
L 200.306018 263.970576 
L 201.099872 268.269083 
L 201.893726 267.962047 
L 202.68758 264.124094 
L 203.481434 263.202985 
L 204.275288 264.277612 
L 205.069142 262.435394 
L 205.862996 261.667804 
L 206.65685 263.893817 
L 207.450704 268.576119 
L 208.244558 263.663539 
L 209.038412 264.507889 
L 209.832266 263.433262 
L 210.62612 263.049467 
L 211.419974 263.893817 
L 212.213828 266.350107 
L 213.007682 267.424733 
L 213.801536 264.968443 
L 215.389245 262.895949 
L 216.183099 262.81919 
L 216.976953 263.817058 
L 217.770807 266.196588 
L 218.564661 266.580384 
L 219.358515 266.657143 
L 220.152369 263.663539 
L 220.946223 262.895949 
L 221.740077 264.200853 
L 222.533931 264.738166 
L 223.327785 266.04307 
L 224.121639 267.885288 
L 224.915493 266.350107 
L 225.709347 263.893817 
L 226.503201 263.510021 
L 227.297055 263.510021 
L 228.090909 262.895949 
L 228.884763 264.277612 
L 229.678617 264.354371 
L 231.266325 262.358635 
L 232.060179 263.126226 
L 232.854033 262.435394 
L 233.647887 262.128358 
L 234.441741 264.277612 
L 235.235595 268.269083 
L 236.029449 266.580384 
L 236.823303 265.812793 
L 237.617157 264.584648 
L 238.411012 263.893817 
L 239.204866 264.277612 
L 239.99872 265.505757 
L 240.792574 266.503625 
L 241.586428 264.584648 
L 242.380282 263.049467 
L 243.174136 261.97484 
L 243.96799 264.584648 
L 244.761844 263.663539 
L 245.555698 266.04307 
L 246.349552 264.047335 
L 247.143406 263.126226 
L 247.93726 260.823454 
L 248.731114 260.900213 
L 249.524968 263.510021 
L 250.318822 263.126226 
L 251.112676 263.510021 
L 251.90653 264.507889 
L 252.700384 261.514286 
L 253.494238 260.439659 
L 254.288092 262.281876 
L 255.081946 261.591045 
L 255.8758 262.512154 
L 256.669654 264.507889 
L 257.463508 265.505757 
L 258.257362 261.744563 
L 259.051216 260.132623 
L 259.84507 260.823454 
L 260.638924 261.284009 
L 261.432778 263.58678 
L 262.226633 265.045203 
L 263.020487 265.659275 
L 263.814341 262.665672 
L 264.608195 260.516418 
L 265.402049 262.435394 
L 266.195903 261.514286 
L 266.989757 262.051599 
L 268.577465 265.505757 
L 269.371319 259.365032 
L 270.165173 260.593177 
L 270.959027 261.360768 
L 271.752881 261.13049 
L 272.546735 262.128358 
L 273.340589 263.970576 
L 274.134443 264.738166 
L 274.928297 260.209382 
L 275.722151 258.290405 
L 276.516005 259.057996 
L 277.309859 260.669936 
L 279.691421 266.810661 
L 280.485275 259.748827 
L 281.279129 259.134755 
L 282.072983 259.057996 
L 282.866837 262.742431 
L 283.660691 261.821322 
L 284.454545 264.968443 
L 285.248399 267.271215 
L 286.042254 262.81919 
L 287.629962 260.976972 
L 288.423816 262.281876 
L 289.21767 264.047335 
L 290.011524 266.733902 
L 290.805378 268.269083 
L 291.599232 263.663539 
L 292.393086 263.356503 
L 293.18694 264.661407 
L 293.980794 264.584648 
L 294.774648 267.962047 
L 295.568502 270.341578 
L 296.362356 269.957783 
L 297.15621 266.273348 
L 297.950064 267.424733 
L 298.743918 269.266951 
L 299.537772 267.655011 
L 301.12548 272.567591 
L 301.919334 273.718977 
L 302.713188 271.032409 
L 303.507042 272.874627 
L 304.300896 272.567591 
L 305.09475 271.339446 
L 305.888604 274.793603 
L 306.682458 275.714712 
L 307.476312 274.793603 
L 308.270166 272.874627 
L 309.06402 272.414072 
L 309.857875 271.8 
L 310.651729 273.565458 
L 311.445583 273.181663 
L 312.239437 273.642217 
L 313.033291 276.021748 
L 313.827145 273.41194 
L 314.620999 271.416205 
L 316.208707 271.262687 
L 317.002561 272.107036 
L 317.796415 274.793603 
L 318.590269 273.795736 
L 319.384123 270.495096 
L 320.177977 271.032409 
L 320.971831 269.804264 
L 321.765685 270.648614 
L 322.559539 272.797868 
L 323.353393 274.333049 
L 324.147247 272.337313 
L 324.941101 271.569723 
L 326.528809 269.420469 
L 327.322663 269.804264 
L 328.116517 271.416205 
L 328.910371 273.565458 
L 329.704225 273.258422 
L 330.498079 270.18806 
L 331.291933 268.345842 
L 332.085787 268.269083 
L 332.879641 268.49936 
L 334.46735 273.335181 
L 335.261204 271.416205 
L 336.055058 269.036674 
L 337.642766 265.121962 
L 338.43662 265.659275 
L 339.230474 268.269083 
L 340.024328 269.34371 
L 340.818182 269.420469 
L 341.612036 265.428998 
L 342.40589 265.505757 
L 343.199744 266.964179 
L 343.993598 265.889552 
L 345.581306 271.185928 
L 346.37516 267.73177 
L 347.169014 267.194456 
L 347.962868 266.119829 
L 348.756722 268.959915 
L 349.550576 269.727505 
L 350.34443 270.802132 
L 351.138284 274.793603 
L 351.932138 274.947122 
L 352.725992 271.876759 
L 353.519846 274.179531 
L 354.3137 274.409808 
L 355.107554 275.86823 
L 355.901408 279.322388 
L 356.695262 278.171002 
L 357.489117 279.475906 
L 358.282971 275.944989 
L 359.076825 275.484435 
L 359.870679 276.405544 
L 360.664533 278.017484 
L 361.458387 278.785075 
L 362.252241 280.243497 
L 363.839949 277.480171 
L 364.633803 274.486567 
L 365.427657 275.637953 
L 366.221511 275.177399 
L 367.015365 275.637953 
L 367.809219 278.785075 
L 368.603073 278.478038 
L 369.396927 275.86823 
L 370.190781 275.944989 
L 370.984635 273.104904 
L 371.778489 273.181663 
L 372.572343 274.026013 
L 373.366197 277.710448 
L 374.160051 277.326652 
L 374.953905 273.795736 
L 375.747759 273.565458 
L 376.541613 272.567591 
L 377.335467 272.874627 
L 378.129321 272.64435 
L 378.923175 275.944989 
L 379.717029 275.944989 
L 380.510883 272.107036 
L 381.304738 270.111301 
L 382.098592 269.881023 
L 382.892446 272.721109 
L 383.6863 271.723241 
L 384.480154 273.028145 
L 385.274008 275.177399 
L 386.067862 271.723241 
L 387.65557 270.571855 
L 388.449424 270.264819 
L 389.243278 270.418337 
L 390.037132 272.414072 
L 390.830986 272.951386 
L 391.62484 272.951386 
L 392.418694 268.652878 
L 393.212548 268.192324 
L 394.006402 269.113433 
L 394.800256 267.808529 
L 395.59411 271.8 
L 397.181818 267.347974 
L 397.975672 268.269083 
L 398.769526 268.652878 
L 399.56338 268.345842 
L 400.357234 269.34371 
L 401.151088 272.490832 
L 401.944942 274.179531 
L 402.738796 271.032409 
L 403.53265 268.883156 
L 404.326504 269.573987 
L 405.120359 270.034542 
L 405.914213 271.8 
L 406.708067 277.096375 
L 407.501921 274.563326 
L 408.295775 272.567591 
L 409.089629 272.951386 
L 409.883483 270.648614 
L 410.677337 270.18806 
L 411.471191 271.032409 
L 412.265045 274.793603 
L 413.058899 272.797868 
L 413.852753 269.650746 
L 414.646607 270.95565 
L 415.440461 270.341578 
L 416.234315 269.420469 
L 417.028169 271.109168 
L 417.822023 275.023881 
L 418.615877 274.026013 
L 419.409731 271.569723 
L 420.203585 270.18806 
L 420.997439 271.262687 
L 421.791293 271.032409 
L 422.585147 272.874627 
L 423.379001 276.559062 
L 424.966709 271.416205 
L 425.760563 270.802132 
L 427.348271 272.567591 
L 428.142125 273.181663 
L 428.93598 277.019616 
L 429.729834 274.793603 
L 430.523688 273.104904 
L 431.317542 274.179531 
L 432.111396 274.640085 
L 433.699104 276.635821 
L 434.492958 279.706183 
L 435.286812 279.552665 
L 436.080666 278.171002 
L 436.87452 274.947122 
L 437.668374 274.486567 
L 438.462228 275.561194 
L 439.256082 276.866098 
L 440.049936 279.092111 
L 440.84379 278.171002 
L 441.637644 273.028145 
L 442.431498 274.870362 
L 443.225352 275.561194 
L 444.019206 275.177399 
L 444.81306 276.175267 
L 445.606914 278.938593 
L 446.400768 277.633689 
L 447.194622 275.254158 
L 447.988476 275.023881 
L 448.78233 275.714712 
L 449.576184 274.026013 
L 451.163892 278.631557 
L 451.957746 276.866098 
L 452.751601 275.637953 
L 453.545455 276.71258 
L 454.339309 274.102772 
L 455.133163 275.407676 
L 455.927017 276.942857 
L 456.720871 279.782942 
L 457.514725 279.782942 
L 458.308579 276.559062 
L 459.102433 276.71258 
L 459.896287 276.482303 
L 460.690141 276.942857 
L 461.483995 276.71258 
L 463.071703 278.32452 
L 463.865557 273.795736 
L 464.659411 271.262687 
L 465.453265 275.484435 
L 466.247119 276.098507 
L 467.040973 273.949254 
L 467.834827 274.947122 
L 468.628681 275.10064 
L 469.422535 271.339446 
L 470.216389 271.109168 
L 471.010243 270.571855 
L 471.804097 271.416205 
L 473.391805 276.098507 
L 474.185659 275.944989 
L 474.979513 274.026013 
L 475.773367 268.959915 
L 476.567222 267.885288 
L 477.361076 266.196588 
L 478.15493 267.808529 
L 478.948784 271.109168 
L 480.536492 268.729638 
L 481.330346 268.115565 
L 482.1242 266.350107 
L 482.918054 265.352239 
L 483.711908 267.117697 
L 484.505762 269.266951 
L 485.299616 271.953518 
L 486.09347 268.269083 
L 486.887324 267.117697 
L 487.681178 265.352239 
L 488.475032 264.507889 
L 489.268886 266.350107 
L 490.06274 267.501493 
L 490.856594 267.655011 
L 491.650448 266.350107 
L 492.444302 261.667804 
L 493.238156 263.356503 
L 494.03201 264.507889 
L 496.413572 266.350107 
L 497.207426 263.893817 
L 498.00128 263.510021 
L 498.795134 264.047335 
L 499.588988 261.898081 
L 501.176697 265.659275 
L 501.970551 268.269083 
L 502.764405 263.58678 
L 503.558259 262.895949 
L 504.352113 263.817058 
L 505.145967 263.58678 
L 505.939821 264.584648 
L 506.733675 266.88742 
L 507.527529 263.740299 
L 508.321383 263.126226 
L 509.115237 261.284009 
L 509.909091 261.360768 
L 510.702945 262.051599 
L 511.496799 260.746695 
L 512.290653 264.814925 
L 513.084507 266.810661 
L 513.878361 263.049467 
L 514.672215 262.512154 
L 515.466069 260.823454 
L 516.259923 262.051599 
L 517.053777 263.970576 
L 517.847631 266.810661 
L 518.641485 267.424733 
L 519.435339 266.196588 
L 519.435339 266.196588 
" style="fill:none;stroke:#0000ff;stroke-linecap:square;stroke-width:1.5;"/>
   </g>
   <g id="line2d_32">
    <path clip-path="url(#pc4966f0bcd)" d="M 115.363636 307.339446 
L 119.332907 306.95565 
L 120.126761 306.725373 
L 120.920615 306.725373 
L 121.714469 306.418337 
L 122.508323 306.264819 
L 124.889885 304.883156 
L 125.683739 304.192324 
L 126.477593 302.657143 
L 127.271447 301.812793 
L 128.065301 300.507889 
L 128.859155 298.665672 
L 130.446863 294.136887 
L 131.240717 290.375693 
L 132.034571 285.846908 
L 133.622279 274.870362 
L 134.416133 271.032409 
L 136.797695 250.153945 
L 138.385403 236.721109 
L 139.179257 231.73177 
L 139.973111 228.200853 
L 140.766965 221.446055 
L 141.560819 216.456716 
L 142.354673 215.151812 
L 143.148528 212.004691 
L 143.942382 209.932196 
L 144.736236 203.484435 
L 146.323944 199.723241 
L 147.117798 198.571855 
L 147.911652 199.8 
L 148.705506 199.109168 
L 149.49936 201.642217 
L 150.293214 201.104904 
L 151.087068 203.637953 
L 151.880922 205.173134 
L 152.674776 207.859701 
L 154.262484 211.313859 
L 155.056338 213.079318 
L 155.850192 215.689126 
L 156.644046 217.608102 
L 157.4379 218.989765 
L 158.231754 224.439659 
L 159.819462 230.503625 
L 160.613316 233.957783 
L 161.40717 234.264819 
L 162.201024 236.183795 
L 162.994878 238.409808 
L 163.788732 241.787207 
L 164.582586 246.162473 
L 165.37644 247.774414 
L 166.170294 251.458849 
L 166.964149 253.531343 
L 167.758003 255.066525 
L 168.551857 255.45032 
L 169.345711 258.443923 
L 170.139565 259.672068 
L 170.933419 263.049467 
L 172.521127 266.350107 
L 173.314981 268.959915 
L 174.108835 269.650746 
L 175.696543 274.716844 
L 176.490397 276.405544 
L 178.078105 281.318124 
L 178.871959 281.087846 
L 179.665813 283.083582 
L 180.459667 285.386354 
L 182.047375 288.303198 
L 182.841229 288.533475 
L 183.635083 290.452452 
L 184.428937 290.759488 
L 185.222791 290.759488 
L 186.016645 293.446055 
L 186.810499 293.369296 
L 187.604353 293.90661 
L 188.398207 294.060128 
L 189.985915 295.672068 
L 190.77977 295.748827 
L 191.573624 296.055864 
L 192.367478 298.972708 
L 193.161332 299.202985 
L 193.955186 300.43113 
L 195.542894 300.507889 
L 196.336748 300.814925 
L 197.130602 300.891684 
L 197.924456 301.736034 
L 199.512164 302.273348 
L 200.306018 301.966311 
L 201.099872 301.812793 
L 201.893726 301.198721 
L 202.68758 301.889552 
L 204.275288 302.733902 
L 205.069142 303.501493 
L 205.862996 303.501493 
L 206.65685 303.655011 
L 207.450704 303.347974 
L 208.244558 304.192324 
L 209.832266 304.115565 
L 211.419974 305.650746 
L 213.007682 305.420469 
L 213.801536 305.650746 
L 214.595391 305.727505 
L 215.389245 305.957783 
L 216.183099 306.341578 
L 216.976953 306.495096 
L 217.770807 306.495096 
L 218.564661 306.111301 
L 219.358515 306.034542 
L 220.152369 306.341578 
L 220.946223 306.264819 
L 221.740077 305.957783 
L 222.533931 305.881023 
L 223.327785 306.034542 
L 224.121639 306.034542 
L 224.915493 306.264819 
L 225.709347 306.341578 
L 226.503201 306.725373 
L 228.090909 306.648614 
L 228.884763 306.571855 
L 230.472471 306.725373 
L 231.266325 306.571855 
L 232.060179 306.725373 
L 233.647887 306.495096 
L 234.441741 306.648614 
L 235.235595 306.264819 
L 237.617157 306.802132 
L 238.411012 306.418337 
L 239.204866 306.18806 
L 239.99872 306.264819 
L 240.792574 305.804264 
L 241.586428 305.881023 
L 242.380282 305.573987 
L 244.761844 305.727505 
L 245.555698 305.497228 
L 246.349552 305.650746 
L 247.143406 305.573987 
L 247.93726 305.190192 
L 248.731114 305.497228 
L 249.524968 304.959915 
L 250.318822 304.883156 
L 251.112676 305.113433 
L 252.700384 304.652878 
L 254.288092 304.883156 
L 255.081946 304.576119 
L 259.84507 305.113433 
L 260.638924 305.266951 
L 262.226633 305.34371 
L 263.020487 304.959915 
L 263.814341 305.34371 
L 264.608195 305.420469 
L 265.402049 305.727505 
L 266.195903 305.190192 
L 266.989757 305.190192 
L 269.371319 305.573987 
L 270.165173 305.497228 
L 270.959027 305.573987 
L 271.752881 305.113433 
L 272.546735 305.036674 
L 273.340589 305.113433 
L 274.134443 304.576119 
L 274.928297 303.808529 
L 275.722151 303.73177 
L 276.516005 304.115565 
L 279.691421 301.352239 
L 280.485275 300.891684 
L 281.279129 299.893817 
L 282.072983 299.740299 
L 282.866837 298.972708 
L 284.454545 298.128358 
L 285.248399 296.976972 
L 286.042254 296.976972 
L 286.836108 296.3629 
L 287.629962 296.209382 
L 288.423816 295.595309 
L 289.21767 295.902345 
L 290.011524 295.365032 
L 291.599232 293.292537 
L 293.18694 290.375693 
L 293.980794 289.531343 
L 294.774648 289.83838 
L 295.568502 288.917271 
L 296.362356 288.533475 
L 297.950064 284.772281 
L 298.743918 283.851173 
L 299.537772 281.394883 
L 300.331626 280.857569 
L 301.12548 279.936461 
L 301.919334 278.785075 
L 302.713188 275.714712 
L 303.507042 273.335181 
L 304.300896 272.337313 
L 305.09475 271.646482 
L 305.888604 269.420469 
L 306.682458 270.264819 
L 307.476312 269.036674 
L 308.270166 267.271215 
L 309.06402 266.04307 
L 309.857875 265.428998 
L 310.651729 264.354371 
L 311.445583 263.049467 
L 312.239437 263.126226 
L 313.033291 262.81919 
L 313.827145 261.13049 
L 314.620999 260.900213 
L 316.208707 261.591045 
L 317.002561 261.667804 
L 317.796415 261.97484 
L 318.590269 261.821322 
L 319.384123 261.97484 
L 320.177977 261.360768 
L 320.971831 262.205117 
L 321.765685 261.13049 
L 322.559539 262.205117 
L 323.353393 262.895949 
L 324.147247 263.893817 
L 324.941101 263.663539 
L 325.734955 264.968443 
L 326.528809 265.27548 
L 327.322663 265.889552 
L 328.116517 265.659275 
L 328.910371 266.426866 
L 329.704225 266.733902 
L 330.498079 267.501493 
L 331.291933 267.271215 
L 332.879641 268.115565 
L 333.673496 268.652878 
L 334.46735 269.036674 
L 335.261204 270.95565 
L 336.848912 271.416205 
L 337.642766 272.721109 
L 338.43662 271.569723 
L 339.230474 271.646482 
L 340.024328 271.876759 
L 340.818182 271.8 
L 341.612036 272.260554 
L 342.40589 271.569723 
L 343.199744 271.876759 
L 343.993598 271.646482 
L 344.787452 270.95565 
L 345.581306 269.727505 
L 346.37516 269.266951 
L 347.169014 267.655011 
L 347.962868 267.501493 
L 348.756722 266.733902 
L 350.34443 264.891684 
L 351.138284 263.356503 
L 351.932138 262.895949 
L 352.725992 262.895949 
L 353.519846 261.207249 
L 354.3137 262.128358 
L 355.107554 261.821322 
L 356.695262 259.441791 
L 359.076825 253.224307 
L 359.870679 252.303198 
L 360.664533 253.915139 
L 361.458387 254.298934 
L 362.252241 253.83838 
L 363.046095 252.99403 
L 363.839949 251.765885 
L 364.633803 253.83838 
L 365.427657 253.224307 
L 366.221511 253.531343 
L 367.015365 254.145416 
L 367.809219 253.301066 
L 368.603073 253.991898 
L 369.396927 254.529211 
L 370.190781 254.145416 
L 370.984635 254.682729 
L 371.778489 254.913006 
L 372.572343 256.371429 
L 373.366197 255.987633 
L 374.160051 254.913006 
L 374.953905 255.45032 
L 375.747759 255.757356 
L 378.129321 256.21791 
L 378.923175 255.680597 
L 379.717029 256.908742 
L 380.510883 256.141151 
L 381.304738 257.90661 
L 382.098592 258.367164 
L 382.892446 257.292537 
L 383.6863 258.750959 
L 384.480154 258.290405 
L 385.274008 258.827719 
L 386.067862 259.595309 
L 386.861716 260.823454 
L 387.65557 261.667804 
L 389.243278 265.889552 
L 390.037132 266.810661 
L 391.62484 265.659275 
L 392.418694 266.964179 
L 393.212548 266.657143 
L 394.006402 266.88742 
L 394.800256 266.580384 
L 395.59411 267.194456 
L 396.387964 266.733902 
L 397.181818 267.501493 
L 397.975672 267.962047 
L 398.769526 267.73177 
L 399.56338 268.729638 
L 401.151088 266.88742 
L 401.944942 264.814925 
L 402.738796 266.580384 
L 403.53265 266.964179 
L 404.326504 267.501493 
L 405.120359 267.578252 
L 405.914213 268.115565 
L 406.708067 267.501493 
L 407.501921 266.733902 
L 408.295775 266.426866 
L 409.089629 265.736034 
L 409.883483 266.503625 
L 412.265045 266.04307 
L 413.058899 265.045203 
L 413.852753 265.198721 
L 414.646607 264.891684 
L 415.440461 263.970576 
L 416.234315 263.663539 
L 417.028169 265.352239 
L 417.822023 265.352239 
L 418.615877 264.584648 
L 419.409731 262.895949 
L 420.203585 264.277612 
L 420.997439 264.584648 
L 421.791293 263.433262 
L 422.585147 261.667804 
L 423.379001 260.976972 
L 424.172855 258.904478 
L 424.966709 260.055864 
L 425.760563 259.902345 
L 426.554417 260.3629 
L 427.348271 259.902345 
L 428.142125 258.520682 
L 428.93598 257.599574 
L 429.729834 256.064392 
L 430.523688 255.527079 
L 431.317542 255.603838 
L 432.111396 255.066525 
L 432.90525 253.76162 
L 433.699104 251.535608 
L 434.492958 251.842644 
L 435.286812 250.614499 
L 436.080666 250.307463 
L 436.87452 248.311727 
L 437.668374 246.623028 
L 438.462228 247.697655 
L 439.256082 247.467377 
L 440.049936 247.390618 
L 440.84379 246.930064 
L 441.637644 246.930064 
L 442.431498 247.697655 
L 443.225352 247.313859 
L 444.019206 247.083582 
L 444.81306 246.315991 
L 446.400768 245.471642 
L 447.194622 244.704051 
L 447.988476 244.78081 
L 448.78233 243.475906 
L 449.576184 243.629424 
L 450.370038 245.241365 
L 451.163892 243.322388 
L 451.957746 245.471642 
L 452.751601 244.934328 
L 453.545455 245.394883 
L 454.339309 245.471642 
L 455.133163 245.932196 
L 455.927017 245.62516 
L 456.720871 246.162473 
L 457.514725 244.550533 
L 458.308579 245.087846 
L 459.102433 244.166738 
L 459.896287 245.932196 
L 460.690141 246.699787 
L 461.483995 248.158209 
L 463.071703 249.770149 
L 464.659411 251.228571 
L 466.247119 251.996162 
L 467.040973 253.377825 
L 467.834827 255.220043 
L 468.628681 255.603838 
L 469.422535 258.290405 
L 470.216389 258.981237 
L 471.010243 260.209382 
L 471.804097 261.207249 
L 472.597951 261.667804 
L 473.391805 261.053731 
L 474.185659 261.97484 
L 477.361076 267.885288 
L 478.15493 269.573987 
L 478.948784 270.571855 
L 479.742638 271.262687 
L 481.330346 275.637953 
L 482.1242 277.633689 
L 482.918054 278.938593 
L 483.711908 280.934328 
L 484.505762 281.471642 
L 485.299616 281.548401 
L 486.09347 283.2371 
L 486.887324 284.542004 
L 487.681178 285.079318 
L 488.475032 286.307463 
L 489.268886 287.228571 
L 490.06274 287.535608 
L 490.856594 287.689126 
L 493.238156 290.529211 
L 494.03201 291.143284 
L 496.413572 292.755224 
L 497.207426 293.676333 
L 498.00128 294.827719 
L 499.588988 296.593177 
L 500.382843 297.053731 
L 501.970551 296.976972 
L 502.764405 298.128358 
L 503.558259 298.051599 
L 504.352113 298.742431 
L 505.145967 299.58678 
L 505.939821 300.047335 
L 506.733675 300.277612 
L 507.527529 299.433262 
L 508.321383 299.970576 
L 509.115237 299.893817 
L 509.909091 300.968443 
L 511.496799 301.582516 
L 512.290653 301.121962 
L 513.084507 301.428998 
L 513.878361 302.119829 
L 515.466069 302.350107 
L 517.053777 301.966311 
L 517.847631 302.04307 
L 518.641485 301.428998 
L 519.435339 300.200853 
L 519.435339 300.200853 
" style="fill:none;stroke:#00ffff;stroke-linecap:square;stroke-width:1.5;"/>
   </g>
   <g id="patch_3">
    <path d="M 90 320.4 
L 90 43.2 
" style="fill:none;stroke:#000000;stroke-linecap:square;stroke-linejoin:miter;stroke-width:0.8;"/>
   </g>
   <g id="patch_4">
    <path d="M 648 320.4 
L 648 43.2 
" style="fill:none;stroke:#000000;stroke-linecap:square;stroke-linejoin:miter;stroke-width:0.8;"/>
   </g>
   <g id="patch_5">
    <path d="M 90 320.4 
L 648 320.4 
" style="fill:none;stroke:#000000;stroke-linecap:square;stroke-linejoin:miter;stroke-width:0.8;"/>
   </g>
   <g id="patch_6">
    <path d="M 90 43.2 
L 648 43.2 
" style="fill:none;stroke:#000000;stroke-linecap:square;stroke-linejoin:miter;stroke-width:0.8;"/>
   </g>
   <g id="text_16">
    <!-- Testplot -->
    <g transform="translate(345.68625 37.2)scale(0.12 -0.12)">
     <defs>
      <path d="M -0.296875 72.90625 
L 61.375 72.90625 
L 61.375 64.59375 
L 35.5 64.59375 
L 35.5 0 
L 25.59375 0 
L 25.59375 64.59375 
L -0.296875 64.59375 
z
" id="DejaVuSans-84"/>
      <path d="M 56.203125 29.59375 
L 56.203125 25.203125 
L 14.890625 25.203125 
Q 15.484375 15.921875 20.484375 11.0625 
Q 25.484375 6.203125 34.421875 6.203125 
Q 39.59375 6.203125 44.453125 7.46875 
Q 49.3125 8.734375 54.109375 11.28125 
L 54.109375 2.78125 
Q 49.265625 0.734375 44.1875 -0.34375 
Q 39.109375 -1.421875 33.890625 -1.421875 
Q 20.796875 -1.421875 13.15625 6.1875 
Q 5.515625 13.8125 5.515625 26.8125 
Q 5.515625 40.234375 12.765625 48.109375 
Q 20.015625 56 32.328125 56 
Q 43.359375 56 49.78125 48.890625 
Q 56.203125 41.796875 56.203125 29.59375 
z
M 47.21875 32.234375 
Q 47.125 39.59375 43.09375 43.984375 
Q 39.0625 48.390625 32.421875 48.390625 
Q 24.90625 48.390625 20.390625 44.140625 
Q 15.875 39.890625 15.1875 32.171875 
z
" id="DejaVuSans-101"/>
      <path d="M 44.28125 53.078125 
L 44.28125 44.578125 
Q 40.484375 46.53125 36.375 47.5 
Q 32.28125 48.484375 27.875 48.484375 
Q 21.1875 48.484375 17.84375 46.4375 
Q 14.5 44.390625 14.5 40.28125 
Q 14.5 37.15625 16.890625 35.375 
Q 19.28125 33.59375 26.515625 31.984375 
L 29.59375 31.296875 
Q 39.15625 29.25 43.1875 25.515625 
Q 47.21875 21.78125 47.21875 15.09375 
Q 47.21875 7.46875 41.1875 3.015625 
Q 35.15625 -1.421875 24.609375 -1.421875 
Q 20.21875 -1.421875 15.453125 -0.5625 
Q 10.6875 0.296875 5.421875 2 
L 5.421875 11.28125 
Q 10.40625 8.6875 15.234375 7.390625 
Q 20.0625 6.109375 24.8125 6.109375 
Q 31.15625 6.109375 34.5625 8.28125 
Q 37.984375 10.453125 37.984375 14.40625 
Q 37.984375 18.0625 35.515625 20.015625 
Q 33.0625 21.96875 24.703125 23.78125 
L 21.578125 24.515625 
Q 13.234375 26.265625 9.515625 29.90625 
Q 5.8125 33.546875 5.8125 39.890625 
Q 5.8125 47.609375 11.28125 51.796875 
Q 16.75 56 26.8125 56 
Q 31.78125 56 36.171875 55.265625 
Q 40.578125 54.546875 44.28125 53.078125 
z
" id="DejaVuSans-115"/>
      <path d="M 18.109375 8.203125 
L 18.109375 -20.796875 
L 9.078125 -20.796875 
L 9.078125 54.6875 
L 18.109375 54.6875 
L 18.109375 46.390625 
Q 20.953125 51.265625 25.265625 53.625 
Q 29.59375 56 35.59375 56 
Q 45.5625 56 51.78125 48.09375 
Q 58.015625 40.1875 58.015625 27.296875 
Q 58.015625 14.40625 51.78125 6.484375 
Q 45.5625 -1.421875 35.59375 -1.421875 
Q 29.59375 -1.421875 25.265625 0.953125 
Q 20.953125 3.328125 18.109375 8.203125 
z
M 48.6875 27.296875 
Q 48.6875 37.203125 44.609375 42.84375 
Q 40.53125 48.484375 33.40625 48.484375 
Q 26.265625 48.484375 22.1875 42.84375 
Q 18.109375 37.203125 18.109375 27.296875 
Q 18.109375 17.390625 22.1875 11.75 
Q 26.265625 6.109375 33.40625 6.109375 
Q 40.53125 6.109375 44.609375 11.75 
Q 48.6875 17.390625 48.6875 27.296875 
z
" id="DejaVuSans-112"/>
      <path d="M 9.421875 75.984375 
L 18.40625 75.984375 
L 18.40625 0 
L 9.421875 0 
z
" id="DejaVuSans-108"/>
      <path d="M 30.609375 48.390625 
Q 23.390625 48.390625 19.1875 42.75 
Q 14.984375 37.109375 14.984375 27.296875 
Q 14.984375 17.484375 19.15625 11.84375 
Q 23.34375 6.203125 30.609375 6.203125 
Q 37.796875 6.203125 41.984375 11.859375 
Q 46.1875 17.53125 46.1875 27.296875 
Q 46.1875 37.015625 41.984375 42.703125 
Q 37.796875 48.390625 30.609375 48.390625 
z
M 30.609375 56 
Q 42.328125 56 49.015625 48.375 
Q 55.71875 40.765625 55.71875 27.296875 
Q 55.71875 13.875 49.015625 6.21875 
Q 42.328125 -1.421875 30.609375 -1.421875 
Q 18.84375 -1.421875 12.171875 6.21875 
Q 5.515625 13.875 5.515625 27.296875 
Q 5.515625 40.765625 12.171875 48.375 
Q 18.84375 56 30.609375 56 
z
" id="DejaVuSans-111"/>
     </defs>
     <use xlink:href="#DejaVuSans-84"/>
     <use x="44.083984" xlink:href="#DejaVuSans-101"/>
     <use x="105.607422" xlink:href="#DejaVuSans-115"/>
     <use x="157.707031" xlink:href="#DejaVuSans-116"/>
     <use x="196.916016" xlink:href="#DejaVuSans-112"/>
     <use x="260.392578" xlink:href="#DejaVuSans-108"/>
     <use x="288.175781" xlink:href="#DejaVuSans-111"/>
     <use x="349.357422" xlink:href="#DejaVuSans-116"/>
    </g>
   </g>
   <g id="legend_1">
    <g id="patch_7">
     <path d="M 97 109.9125 
L 348.946875 109.9125 
Q 350.946875 109.9125 350.946875 107.9125 
L 350.946875 50.2 
Q 350.946875 48.2 348.946875 48.2 
L 97 48.2 
Q 95 48.2 95 50.2 
L 95 107.9125 
Q 95 109.9125 97 109.9125 
z
" style="fill:#ffffff;opacity:0.8;stroke:#cccccc;stroke-linejoin:miter;"/>
    </g>
    <g id="line2d_33">
     <path d="M 99 56.298437 
L 119 56.298437 
" style="fill:none;stroke:#ff0000;stroke-linecap:square;stroke-width:1.5;"/>
    </g>
    <g id="line2d_34"/>
    <g id="text_17">
     <!-- covid opgenomen patinten NICE (nu 1996) -->
     <g transform="translate(127 59.798437)scale(0.1 -0.1)">
      <defs>
       <path d="M 48.78125 52.59375 
L 48.78125 44.1875 
Q 44.96875 46.296875 41.140625 47.34375 
Q 37.3125 48.390625 33.40625 48.390625 
Q 24.65625 48.390625 19.8125 42.84375 
Q 14.984375 37.3125 14.984375 27.296875 
Q 14.984375 17.28125 19.8125 11.734375 
Q 24.65625 6.203125 33.40625 6.203125 
Q 37.3125 6.203125 41.140625 7.25 
Q 44.96875 8.296875 48.78125 10.40625 
L 48.78125 2.09375 
Q 45.015625 0.34375 40.984375 -0.53125 
Q 36.96875 -1.421875 32.421875 -1.421875 
Q 20.0625 -1.421875 12.78125 6.34375 
Q 5.515625 14.109375 5.515625 27.296875 
Q 5.515625 40.671875 12.859375 48.328125 
Q 20.21875 56 33.015625 56 
Q 37.15625 56 41.109375 55.140625 
Q 45.0625 54.296875 48.78125 52.59375 
z
" id="DejaVuSans-99"/>
       <path d="M 2.984375 54.6875 
L 12.5 54.6875 
L 29.59375 8.796875 
L 46.6875 54.6875 
L 56.203125 54.6875 
L 35.6875 0 
L 23.484375 0 
z
" id="DejaVuSans-118"/>
       <path d="M 9.421875 54.6875 
L 18.40625 54.6875 
L 18.40625 0 
L 9.421875 0 
z
M 9.421875 75.984375 
L 18.40625 75.984375 
L 18.40625 64.59375 
L 9.421875 64.59375 
z
" id="DejaVuSans-105"/>
       <path d="M 45.40625 46.390625 
L 45.40625 75.984375 
L 54.390625 75.984375 
L 54.390625 0 
L 45.40625 0 
L 45.40625 8.203125 
Q 42.578125 3.328125 38.25 0.953125 
Q 33.9375 -1.421875 27.875 -1.421875 
Q 17.96875 -1.421875 11.734375 6.484375 
Q 5.515625 14.40625 5.515625 27.296875 
Q 5.515625 40.1875 11.734375 48.09375 
Q 17.96875 56 27.875 56 
Q 33.9375 56 38.25 53.625 
Q 42.578125 51.265625 45.40625 46.390625 
z
M 14.796875 27.296875 
Q 14.796875 17.390625 18.875 11.75 
Q 22.953125 6.109375 30.078125 6.109375 
Q 37.203125 6.109375 41.296875 11.75 
Q 45.40625 17.390625 45.40625 27.296875 
Q 45.40625 37.203125 41.296875 42.84375 
Q 37.203125 48.484375 30.078125 48.484375 
Q 22.953125 48.484375 18.875 42.84375 
Q 14.796875 37.203125 14.796875 27.296875 
z
" id="DejaVuSans-100"/>
       <path id="DejaVuSans-32"/>
       <path d="M 45.40625 27.984375 
Q 45.40625 37.75 41.375 43.109375 
Q 37.359375 48.484375 30.078125 48.484375 
Q 22.859375 48.484375 18.828125 43.109375 
Q 14.796875 37.75 14.796875 27.984375 
Q 14.796875 18.265625 18.828125 12.890625 
Q 22.859375 7.515625 30.078125 7.515625 
Q 37.359375 7.515625 41.375 12.890625 
Q 45.40625 18.265625 45.40625 27.984375 
z
M 54.390625 6.78125 
Q 54.390625 -7.171875 48.1875 -13.984375 
Q 42 -20.796875 29.203125 -20.796875 
Q 24.46875 -20.796875 20.265625 -20.09375 
Q 16.0625 -19.390625 12.109375 -17.921875 
L 12.109375 -9.1875 
Q 16.0625 -11.328125 19.921875 -12.34375 
Q 23.78125 -13.375 27.78125 -13.375 
Q 36.625 -13.375 41.015625 -8.765625 
Q 45.40625 -4.15625 45.40625 5.171875 
L 45.40625 9.625 
Q 42.625 4.78125 38.28125 2.390625 
Q 33.9375 0 27.875 0 
Q 17.828125 0 11.671875 7.65625 
Q 5.515625 15.328125 5.515625 27.984375 
Q 5.515625 40.671875 11.671875 48.328125 
Q 17.828125 56 27.875 56 
Q 33.9375 56 38.28125 53.609375 
Q 42.625 51.21875 45.40625 46.390625 
L 45.40625 54.6875 
L 54.390625 54.6875 
z
" id="DejaVuSans-103"/>
       <path d="M 54.890625 33.015625 
L 54.890625 0 
L 45.90625 0 
L 45.90625 32.71875 
Q 45.90625 40.484375 42.875 44.328125 
Q 39.84375 48.1875 33.796875 48.1875 
Q 26.515625 48.1875 22.3125 43.546875 
Q 18.109375 38.921875 18.109375 30.90625 
L 18.109375 0 
L 9.078125 0 
L 9.078125 54.6875 
L 18.109375 54.6875 
L 18.109375 46.1875 
Q 21.34375 51.125 25.703125 53.5625 
Q 30.078125 56 35.796875 56 
Q 45.21875 56 50.046875 50.171875 
Q 54.890625 44.34375 54.890625 33.015625 
z
" id="DejaVuSans-110"/>
       <path d="M 56.203125 29.59375 
L 56.203125 25.203125 
L 14.890625 25.203125 
Q 15.484375 15.921875 20.484375 11.0625 
Q 25.484375 6.203125 34.421875 6.203125 
Q 39.59375 6.203125 44.453125 7.46875 
Q 49.3125 8.734375 54.109375 11.28125 
L 54.109375 2.78125 
Q 49.265625 0.734375 44.1875 -0.34375 
Q 39.109375 -1.421875 33.890625 -1.421875 
Q 20.796875 -1.421875 13.15625 6.1875 
Q 5.515625 13.8125 5.515625 26.8125 
Q 5.515625 40.234375 12.765625 48.109375 
Q 20.015625 56 32.328125 56 
Q 43.359375 56 49.78125 48.890625 
Q 56.203125 41.796875 56.203125 29.59375 
z
M 47.21875 32.234375 
Q 47.125 39.59375 43.09375 43.984375 
Q 39.0625 48.390625 32.421875 48.390625 
Q 24.90625 48.390625 20.390625 44.140625 
Q 15.875 39.890625 15.1875 32.171875 
z
M 36.34375 75.78125 
L 46.25 75.78125 
L 46.25 65.921875 
L 36.34375 65.921875 
z
M 17.25 75.78125 
L 27.15625 75.78125 
L 27.15625 65.921875 
L 17.25 65.921875 
z
" id="DejaVuSans-235"/>
       <path d="M 9.8125 72.90625 
L 23.09375 72.90625 
L 55.421875 11.921875 
L 55.421875 72.90625 
L 64.984375 72.90625 
L 64.984375 0 
L 51.703125 0 
L 19.390625 60.984375 
L 19.390625 0 
L 9.8125 0 
z
" id="DejaVuSans-78"/>
       <path d="M 9.8125 72.90625 
L 19.671875 72.90625 
L 19.671875 0 
L 9.8125 0 
z
" id="DejaVuSans-73"/>
       <path d="M 64.40625 67.28125 
L 64.40625 56.890625 
Q 59.421875 61.53125 53.78125 63.8125 
Q 48.140625 66.109375 41.796875 66.109375 
Q 29.296875 66.109375 22.65625 58.46875 
Q 16.015625 50.828125 16.015625 36.375 
Q 16.015625 21.96875 22.65625 14.328125 
Q 29.296875 6.6875 41.796875 6.6875 
Q 48.140625 6.6875 53.78125 8.984375 
Q 59.421875 11.28125 64.40625 15.921875 
L 64.40625 5.609375 
Q 59.234375 2.09375 53.4375 0.328125 
Q 47.65625 -1.421875 41.21875 -1.421875 
Q 24.65625 -1.421875 15.125 8.703125 
Q 5.609375 18.84375 5.609375 36.375 
Q 5.609375 53.953125 15.125 64.078125 
Q 24.65625 74.21875 41.21875 74.21875 
Q 47.75 74.21875 53.53125 72.484375 
Q 59.328125 70.75 64.40625 67.28125 
z
" id="DejaVuSans-67"/>
       <path d="M 9.8125 72.90625 
L 55.90625 72.90625 
L 55.90625 64.59375 
L 19.671875 64.59375 
L 19.671875 43.015625 
L 54.390625 43.015625 
L 54.390625 34.71875 
L 19.671875 34.71875 
L 19.671875 8.296875 
L 56.78125 8.296875 
L 56.78125 0 
L 9.8125 0 
z
" id="DejaVuSans-69"/>
       <path d="M 31 75.875 
Q 24.46875 64.65625 21.28125 53.65625 
Q 18.109375 42.671875 18.109375 31.390625 
Q 18.109375 20.125 21.3125 9.0625 
Q 24.515625 -2 31 -13.1875 
L 23.1875 -13.1875 
Q 15.875 -1.703125 12.234375 9.375 
Q 8.59375 20.453125 8.59375 31.390625 
Q 8.59375 42.28125 12.203125 53.3125 
Q 15.828125 64.359375 23.1875 75.875 
z
" id="DejaVuSans-40"/>
       <path d="M 10.984375 1.515625 
L 10.984375 10.5 
Q 14.703125 8.734375 18.5 7.8125 
Q 22.3125 6.890625 25.984375 6.890625 
Q 35.75 6.890625 40.890625 13.453125 
Q 46.046875 20.015625 46.78125 33.40625 
Q 43.953125 29.203125 39.59375 26.953125 
Q 35.25 24.703125 29.984375 24.703125 
Q 19.046875 24.703125 12.671875 31.3125 
Q 6.296875 37.9375 6.296875 49.421875 
Q 6.296875 60.640625 12.9375 67.421875 
Q 19.578125 74.21875 30.609375 74.21875 
Q 43.265625 74.21875 49.921875 64.515625 
Q 56.59375 54.828125 56.59375 36.375 
Q 56.59375 19.140625 48.40625 8.859375 
Q 40.234375 -1.421875 26.421875 -1.421875 
Q 22.703125 -1.421875 18.890625 -0.6875 
Q 15.09375 0.046875 10.984375 1.515625 
z
M 30.609375 32.421875 
Q 37.25 32.421875 41.125 36.953125 
Q 45.015625 41.5 45.015625 49.421875 
Q 45.015625 57.28125 41.125 61.84375 
Q 37.25 66.40625 30.609375 66.40625 
Q 23.96875 66.40625 20.09375 61.84375 
Q 16.21875 57.28125 16.21875 49.421875 
Q 16.21875 41.5 20.09375 36.953125 
Q 23.96875 32.421875 30.609375 32.421875 
z
" id="DejaVuSans-57"/>
       <path d="M 33.015625 40.375 
Q 26.375 40.375 22.484375 35.828125 
Q 18.609375 31.296875 18.609375 23.390625 
Q 18.609375 15.53125 22.484375 10.953125 
Q 26.375 6.390625 33.015625 6.390625 
Q 39.65625 6.390625 43.53125 10.953125 
Q 47.40625 15.53125 47.40625 23.390625 
Q 47.40625 31.296875 43.53125 35.828125 
Q 39.65625 40.375 33.015625 40.375 
z
M 52.59375 71.296875 
L 52.59375 62.3125 
Q 48.875 64.0625 45.09375 64.984375 
Q 41.3125 65.921875 37.59375 65.921875 
Q 27.828125 65.921875 22.671875 59.328125 
Q 17.53125 52.734375 16.796875 39.40625 
Q 19.671875 43.65625 24.015625 45.921875 
Q 28.375 48.1875 33.59375 48.1875 
Q 44.578125 48.1875 50.953125 41.515625 
Q 57.328125 34.859375 57.328125 23.390625 
Q 57.328125 12.15625 50.6875 5.359375 
Q 44.046875 -1.421875 33.015625 -1.421875 
Q 20.359375 -1.421875 13.671875 8.265625 
Q 6.984375 17.96875 6.984375 36.375 
Q 6.984375 53.65625 15.1875 63.9375 
Q 23.390625 74.21875 37.203125 74.21875 
Q 40.921875 74.21875 44.703125 73.484375 
Q 48.484375 72.75 52.59375 71.296875 
z
" id="DejaVuSans-54"/>
       <path d="M 8.015625 75.875 
L 15.828125 75.875 
Q 23.140625 64.359375 26.78125 53.3125 
Q 30.421875 42.28125 30.421875 31.390625 
Q 30.421875 20.453125 26.78125 9.375 
Q 23.140625 -1.703125 15.828125 -13.1875 
L 8.015625 -13.1875 
Q 14.5 -2 17.703125 9.0625 
Q 20.90625 20.125 20.90625 31.390625 
Q 20.90625 42.671875 17.703125 53.65625 
Q 14.5 64.65625 8.015625 75.875 
z
" id="DejaVuSans-41"/>
      </defs>
      <use xlink:href="#DejaVuSans-99"/>
      <use x="54.980469" xlink:href="#DejaVuSans-111"/>
      <use x="116.162109" xlink:href="#DejaVuSans-118"/>
      <use x="175.341797" xlink:href="#DejaVuSans-105"/>
      <use x="203.125" xlink:href="#DejaVuSans-100"/>
      <use x="266.601562" xlink:href="#DejaVuSans-32"/>
      <use x="298.388672" xlink:href="#DejaVuSans-111"/>
      <use x="359.570312" xlink:href="#DejaVuSans-112"/>
      <use x="423.046875" xlink:href="#DejaVuSans-103"/>
      <use x="486.523438" xlink:href="#DejaVuSans-101"/>
      <use x="548.046875" xlink:href="#DejaVuSans-110"/>
      <use x="611.425781" xlink:href="#DejaVuSans-111"/>
      <use x="672.607422" xlink:href="#DejaVuSans-109"/>
      <use x="770.019531" xlink:href="#DejaVuSans-101"/>
      <use x="831.542969" xlink:href="#DejaVuSans-110"/>
      <use x="894.921875" xlink:href="#DejaVuSans-32"/>
      <use x="926.708984" xlink:href="#DejaVuSans-112"/>
      <use x="990.185547" xlink:href="#DejaVuSans-97"/>
      <use x="1051.464844" xlink:href="#DejaVuSans-116"/>
      <use x="1090.673828" xlink:href="#DejaVuSans-105"/>
      <use x="1118.457031" xlink:href="#DejaVuSans-235"/>
      <use x="1179.980469" xlink:href="#DejaVuSans-110"/>
      <use x="1243.359375" xlink:href="#DejaVuSans-116"/>
      <use x="1282.568359" xlink:href="#DejaVuSans-101"/>
      <use x="1344.091797" xlink:href="#DejaVuSans-110"/>
      <use x="1407.470703" xlink:href="#DejaVuSans-32"/>
      <use x="1439.257812" xlink:href="#DejaVuSans-78"/>
      <use x="1514.0625" xlink:href="#DejaVuSans-73"/>
      <use x="1543.554688" xlink:href="#DejaVuSans-67"/>
      <use x="1613.378906" xlink:href="#DejaVuSans-69"/>
      <use x="1676.5625" xlink:href="#DejaVuSans-32"/>
      <use x="1708.349609" xlink:href="#DejaVuSans-40"/>
      <use x="1747.363281" xlink:href="#DejaVuSans-110"/>
      <use x="1810.742188" xlink:href="#DejaVuSans-117"/>
      <use x="1874.121094" xlink:href="#DejaVuSans-32"/>
      <use x="1905.908203" xlink:href="#DejaVuSans-49"/>
      <use x="1969.53125" xlink:href="#DejaVuSans-57"/>
      <use x="2033.154297" xlink:href="#DejaVuSans-57"/>
      <use x="2096.777344" xlink:href="#DejaVuSans-54"/>
      <use x="2160.400391" xlink:href="#DejaVuSans-41"/>
     </g>
    </g>
    <g id="line2d_35">
     <path d="M 99 70.976562 
L 119 70.976562 
" style="fill:none;stroke:#ffa500;stroke-linecap:square;stroke-width:1.5;"/>
    </g>
    <g id="line2d_36"/>
    <g id="text_18">
     <!-- covid bezette bedden LCPS (nu 315) -->
     <g transform="translate(127 74.476562)scale(0.1 -0.1)">
      <defs>
       <path d="M 48.6875 27.296875 
Q 48.6875 37.203125 44.609375 42.84375 
Q 40.53125 48.484375 33.40625 48.484375 
Q 26.265625 48.484375 22.1875 42.84375 
Q 18.109375 37.203125 18.109375 27.296875 
Q 18.109375 17.390625 22.1875 11.75 
Q 26.265625 6.109375 33.40625 6.109375 
Q 40.53125 6.109375 44.609375 11.75 
Q 48.6875 17.390625 48.6875 27.296875 
z
M 18.109375 46.390625 
Q 20.953125 51.265625 25.265625 53.625 
Q 29.59375 56 35.59375 56 
Q 45.5625 56 51.78125 48.09375 
Q 58.015625 40.1875 58.015625 27.296875 
Q 58.015625 14.40625 51.78125 6.484375 
Q 45.5625 -1.421875 35.59375 -1.421875 
Q 29.59375 -1.421875 25.265625 0.953125 
Q 20.953125 3.328125 18.109375 8.203125 
L 18.109375 0 
L 9.078125 0 
L 9.078125 75.984375 
L 18.109375 75.984375 
z
" id="DejaVuSans-98"/>
       <path d="M 5.515625 54.6875 
L 48.1875 54.6875 
L 48.1875 46.484375 
L 14.40625 7.171875 
L 48.1875 7.171875 
L 48.1875 0 
L 4.296875 0 
L 4.296875 8.203125 
L 38.09375 47.515625 
L 5.515625 47.515625 
z
" id="DejaVuSans-122"/>
       <path d="M 9.8125 72.90625 
L 19.671875 72.90625 
L 19.671875 8.296875 
L 55.171875 8.296875 
L 55.171875 0 
L 9.8125 0 
z
" id="DejaVuSans-76"/>
       <path d="M 19.671875 64.796875 
L 19.671875 37.40625 
L 32.078125 37.40625 
Q 38.96875 37.40625 42.71875 40.96875 
Q 46.484375 44.53125 46.484375 51.125 
Q 46.484375 57.671875 42.71875 61.234375 
Q 38.96875 64.796875 32.078125 64.796875 
z
M 9.8125 72.90625 
L 32.078125 72.90625 
Q 44.34375 72.90625 50.609375 67.359375 
Q 56.890625 61.8125 56.890625 51.125 
Q 56.890625 40.328125 50.609375 34.8125 
Q 44.34375 29.296875 32.078125 29.296875 
L 19.671875 29.296875 
L 19.671875 0 
L 9.8125 0 
z
" id="DejaVuSans-80"/>
       <path d="M 53.515625 70.515625 
L 53.515625 60.890625 
Q 47.90625 63.578125 42.921875 64.890625 
Q 37.9375 66.21875 33.296875 66.21875 
Q 25.25 66.21875 20.875 63.09375 
Q 16.5 59.96875 16.5 54.203125 
Q 16.5 49.359375 19.40625 46.890625 
Q 22.3125 44.4375 30.421875 42.921875 
L 36.375 41.703125 
Q 47.40625 39.59375 52.65625 34.296875 
Q 57.90625 29 57.90625 20.125 
Q 57.90625 9.515625 50.796875 4.046875 
Q 43.703125 -1.421875 29.984375 -1.421875 
Q 24.8125 -1.421875 18.96875 -0.25 
Q 13.140625 0.921875 6.890625 3.21875 
L 6.890625 13.375 
Q 12.890625 10.015625 18.65625 8.296875 
Q 24.421875 6.59375 29.984375 6.59375 
Q 38.421875 6.59375 43.015625 9.90625 
Q 47.609375 13.234375 47.609375 19.390625 
Q 47.609375 24.75 44.3125 27.78125 
Q 41.015625 30.8125 33.5 32.328125 
L 27.484375 33.5 
Q 16.453125 35.6875 11.515625 40.375 
Q 6.59375 45.0625 6.59375 53.421875 
Q 6.59375 63.09375 13.40625 68.65625 
Q 20.21875 74.21875 32.171875 74.21875 
Q 37.3125 74.21875 42.625 73.28125 
Q 47.953125 72.359375 53.515625 70.515625 
z
" id="DejaVuSans-83"/>
      </defs>
      <use xlink:href="#DejaVuSans-99"/>
      <use x="54.980469" xlink:href="#DejaVuSans-111"/>
      <use x="116.162109" xlink:href="#DejaVuSans-118"/>
      <use x="175.341797" xlink:href="#DejaVuSans-105"/>
      <use x="203.125" xlink:href="#DejaVuSans-100"/>
      <use x="266.601562" xlink:href="#DejaVuSans-32"/>
      <use x="298.388672" xlink:href="#DejaVuSans-98"/>
      <use x="361.865234" xlink:href="#DejaVuSans-101"/>
      <use x="423.388672" xlink:href="#DejaVuSans-122"/>
      <use x="475.878906" xlink:href="#DejaVuSans-101"/>
      <use x="537.402344" xlink:href="#DejaVuSans-116"/>
      <use x="576.611328" xlink:href="#DejaVuSans-116"/>
      <use x="615.820312" xlink:href="#DejaVuSans-101"/>
      <use x="677.34375" xlink:href="#DejaVuSans-32"/>
      <use x="709.130859" xlink:href="#DejaVuSans-98"/>
      <use x="772.607422" xlink:href="#DejaVuSans-101"/>
      <use x="834.130859" xlink:href="#DejaVuSans-100"/>
      <use x="897.607422" xlink:href="#DejaVuSans-100"/>
      <use x="961.083984" xlink:href="#DejaVuSans-101"/>
      <use x="1022.607422" xlink:href="#DejaVuSans-110"/>
      <use x="1085.986328" xlink:href="#DejaVuSans-32"/>
      <use x="1117.773438" xlink:href="#DejaVuSans-76"/>
      <use x="1173.486328" xlink:href="#DejaVuSans-67"/>
      <use x="1243.310547" xlink:href="#DejaVuSans-80"/>
      <use x="1303.613281" xlink:href="#DejaVuSans-83"/>
      <use x="1367.089844" xlink:href="#DejaVuSans-32"/>
      <use x="1398.876953" xlink:href="#DejaVuSans-40"/>
      <use x="1437.890625" xlink:href="#DejaVuSans-110"/>
      <use x="1501.269531" xlink:href="#DejaVuSans-117"/>
      <use x="1564.648438" xlink:href="#DejaVuSans-32"/>
      <use x="1596.435547" xlink:href="#DejaVuSans-51"/>
      <use x="1660.058594" xlink:href="#DejaVuSans-49"/>
      <use x="1723.681641" xlink:href="#DejaVuSans-53"/>
      <use x="1787.304688" xlink:href="#DejaVuSans-41"/>
     </g>
    </g>
    <g id="line2d_37">
     <path d="M 99 85.654687 
L 119 85.654687 
" style="fill:none;stroke:#0000ff;stroke-linecap:square;stroke-width:1.5;"/>
    </g>
    <g id="line2d_38"/>
    <g id="text_19">
     <!-- non-covid bezette IC bedden LCPS (nu 543) -->
     <g transform="translate(127 89.154687)scale(0.1 -0.1)">
      <use xlink:href="#DejaVuSans-110"/>
      <use x="63.378906" xlink:href="#DejaVuSans-111"/>
      <use x="124.560547" xlink:href="#DejaVuSans-110"/>
      <use x="187.939453" xlink:href="#DejaVuSans-45"/>
      <use x="224.023438" xlink:href="#DejaVuSans-99"/>
      <use x="279.003906" xlink:href="#DejaVuSans-111"/>
      <use x="340.185547" xlink:href="#DejaVuSans-118"/>
      <use x="399.365234" xlink:href="#DejaVuSans-105"/>
      <use x="427.148438" xlink:href="#DejaVuSans-100"/>
      <use x="490.625" xlink:href="#DejaVuSans-32"/>
      <use x="522.412109" xlink:href="#DejaVuSans-98"/>
      <use x="585.888672" xlink:href="#DejaVuSans-101"/>
      <use x="647.412109" xlink:href="#DejaVuSans-122"/>
      <use x="699.902344" xlink:href="#DejaVuSans-101"/>
      <use x="761.425781" xlink:href="#DejaVuSans-116"/>
      <use x="800.634766" xlink:href="#DejaVuSans-116"/>
      <use x="839.84375" xlink:href="#DejaVuSans-101"/>
      <use x="901.367188" xlink:href="#DejaVuSans-32"/>
      <use x="933.154297" xlink:href="#DejaVuSans-73"/>
      <use x="962.646484" xlink:href="#DejaVuSans-67"/>
      <use x="1032.470703" xlink:href="#DejaVuSans-32"/>
      <use x="1064.257812" xlink:href="#DejaVuSans-98"/>
      <use x="1127.734375" xlink:href="#DejaVuSans-101"/>
      <use x="1189.257812" xlink:href="#DejaVuSans-100"/>
      <use x="1252.734375" xlink:href="#DejaVuSans-100"/>
      <use x="1316.210938" xlink:href="#DejaVuSans-101"/>
      <use x="1377.734375" xlink:href="#DejaVuSans-110"/>
      <use x="1441.113281" xlink:href="#DejaVuSans-32"/>
      <use x="1472.900391" xlink:href="#DejaVuSans-76"/>
      <use x="1528.613281" xlink:href="#DejaVuSans-67"/>
      <use x="1598.4375" xlink:href="#DejaVuSans-80"/>
      <use x="1658.740234" xlink:href="#DejaVuSans-83"/>
      <use x="1722.216797" xlink:href="#DejaVuSans-32"/>
      <use x="1754.003906" xlink:href="#DejaVuSans-40"/>
      <use x="1793.017578" xlink:href="#DejaVuSans-110"/>
      <use x="1856.396484" xlink:href="#DejaVuSans-117"/>
      <use x="1919.775391" xlink:href="#DejaVuSans-32"/>
      <use x="1951.5625" xlink:href="#DejaVuSans-53"/>
      <use x="2015.185547" xlink:href="#DejaVuSans-52"/>
      <use x="2078.808594" xlink:href="#DejaVuSans-51"/>
      <use x="2142.431641" xlink:href="#DejaVuSans-41"/>
     </g>
    </g>
    <g id="line2d_39">
     <path d="M 99 100.332812 
L 119 100.332812 
" style="fill:none;stroke:#00ffff;stroke-linecap:square;stroke-width:1.5;"/>
    </g>
    <g id="line2d_40"/>
    <g id="text_20">
     <!-- covid bezette IC bedden LCPS (nu 100) -->
     <g transform="translate(127 103.832812)scale(0.1 -0.1)">
      <use xlink:href="#DejaVuSans-99"/>
      <use x="54.980469" xlink:href="#DejaVuSans-111"/>
      <use x="116.162109" xlink:href="#DejaVuSans-118"/>
      <use x="175.341797" xlink:href="#DejaVuSans-105"/>
      <use x="203.125" xlink:href="#DejaVuSans-100"/>
      <use x="266.601562" xlink:href="#DejaVuSans-32"/>
      <use x="298.388672" xlink:href="#DejaVuSans-98"/>
      <use x="361.865234" xlink:href="#DejaVuSans-101"/>
      <use x="423.388672" xlink:href="#DejaVuSans-122"/>
      <use x="475.878906" xlink:href="#DejaVuSans-101"/>
      <use x="537.402344" xlink:href="#DejaVuSans-116"/>
      <use x="576.611328" xlink:href="#DejaVuSans-116"/>
      <use x="615.820312" xlink:href="#DejaVuSans-101"/>
      <use x="677.34375" xlink:href="#DejaVuSans-32"/>
      <use x="709.130859" xlink:href="#DejaVuSans-73"/>
      <use x="738.623047" xlink:href="#DejaVuSans-67"/>
      <use x="808.447266" xlink:href="#DejaVuSans-32"/>
      <use x="840.234375" xlink:href="#DejaVuSans-98"/>
      <use x="903.710938" xlink:href="#DejaVuSans-101"/>
      <use x="965.234375" xlink:href="#DejaVuSans-100"/>
      <use x="1028.710938" xlink:href="#DejaVuSans-100"/>
      <use x="1092.1875" xlink:href="#DejaVuSans-101"/>
      <use x="1153.710938" xlink:href="#DejaVuSans-110"/>
      <use x="1217.089844" xlink:href="#DejaVuSans-32"/>
      <use x="1248.876953" xlink:href="#DejaVuSans-76"/>
      <use x="1304.589844" xlink:href="#DejaVuSans-67"/>
      <use x="1374.414062" xlink:href="#DejaVuSans-80"/>
      <use x="1434.716797" xlink:href="#DejaVuSans-83"/>
      <use x="1498.193359" xlink:href="#DejaVuSans-32"/>
      <use x="1529.980469" xlink:href="#DejaVuSans-40"/>
      <use x="1568.994141" xlink:href="#DejaVuSans-110"/>
      <use x="1632.373047" xlink:href="#DejaVuSans-117"/>
      <use x="1695.751953" xlink:href="#DejaVuSans-32"/>
      <use x="1727.539062" xlink:href="#DejaVuSans-49"/>
      <use x="1791.162109" xlink:href="#DejaVuSans-48"/>
      <use x="1854.785156" xlink:href="#DejaVuSans-48"/>
      <use x="1918.408203" xlink:href="#DejaVuSans-41"/>
     </g>
    </g>
   </g>
  </g>
 </g>
 <defs>
  <clipPath id="pc4966f0bcd">
   <rect height="277.2" width="558" x="90" y="43.2"/>
  </clipPath>
 </defs>
</svg>
