<?xml version="1.0" encoding="utf-8" standalone="no"?>
<!DOCTYPE svg PUBLIC "-//W3C//DTD SVG 1.1//EN"
  "http://www.w3.org/Graphics/SVG/1.1/DTD/svg11.dtd">
<!-- Created with matplotlib (https://matplotlib.org/) -->
<svg height="360pt" version="1.1" viewBox="0 0 720 360" width="720pt" xmlns="http://www.w3.org/2000/svg" xmlns:xlink="http://www.w3.org/1999/xlink">
 <metadata>
  <rdf:RDF xmlns:cc="http://creativecommons.org/ns#" xmlns:dc="http://purl.org/dc/elements/1.1/" xmlns:rdf="http://www.w3.org/1999/02/22-rdf-syntax-ns#">
   <cc:Work>
    <dc:type rdf:resource="http://purl.org/dc/dcmitype/StillImage"/>
    <dc:date>2022-03-08T23:55:33.727329</dc:date>
    <dc:format>image/svg+xml</dc:format>
    <dc:creator>
     <cc:Agent>
      <dc:title>Matplotlib v3.3.2, https://matplotlib.org/</dc:title>
     </cc:Agent>
    </dc:creator>
   </cc:Work>
  </rdf:RDF>
 </metadata>
 <defs>
  <style type="text/css">*{stroke-linecap:butt;stroke-linejoin:round;}</style>
 </defs>
 <g id="figure_1">
  <g id="patch_1">
   <path d="M 0 360 
L 720 360 
L 720 0 
L 0 0 
z
" style="fill:#ffffff;"/>
  </g>
  <g id="axes_1">
   <g id="patch_2">
    <path d="M 90 320.4 
L 648 320.4 
L 648 43.2 
L 90 43.2 
z
" style="fill:#ffffff;"/>
   </g>
   <g id="matplotlib.axis_1">
    <g id="xtick_1">
     <g id="line2d_1">
      <path clip-path="url(#pc58b8bd266)" d="M 138.670762 320.4 
L 138.670762 43.2 
" style="fill:none;stroke:#808080;stroke-dasharray:6.4,1.6,1,1.6;stroke-dashoffset:0;stroke-opacity:0.3;"/>
     </g>
     <g id="line2d_2">
      <defs>
       <path d="M 0 0 
L 0 3.5 
" id="m64baf441fa" style="stroke:#000000;stroke-width:0.8;"/>
      </defs>
      <g>
       <use style="stroke:#000000;stroke-width:0.8;" x="138.670762" xlink:href="#m64baf441fa" y="320.4"/>
      </g>
     </g>
     <g id="text_1">
      <!-- 2020-04 -->
      <g transform="translate(117.779355 334.998438)scale(0.1 -0.1)">
       <defs>
        <path d="M 19.1875 8.296875 
L 53.609375 8.296875 
L 53.609375 0 
L 7.328125 0 
L 7.328125 8.296875 
Q 12.9375 14.109375 22.625 23.890625 
Q 32.328125 33.6875 34.8125 36.53125 
Q 39.546875 41.84375 41.421875 45.53125 
Q 43.3125 49.21875 43.3125 52.78125 
Q 43.3125 58.59375 39.234375 62.25 
Q 35.15625 65.921875 28.609375 65.921875 
Q 23.96875 65.921875 18.8125 64.3125 
Q 13.671875 62.703125 7.8125 59.421875 
L 7.8125 69.390625 
Q 13.765625 71.78125 18.9375 73 
Q 24.125 74.21875 28.421875 74.21875 
Q 39.75 74.21875 46.484375 68.546875 
Q 53.21875 62.890625 53.21875 53.421875 
Q 53.21875 48.921875 51.53125 44.890625 
Q 49.859375 40.875 45.40625 35.40625 
Q 44.1875 33.984375 37.640625 27.21875 
Q 31.109375 20.453125 19.1875 8.296875 
z
" id="DejaVuSans-50"/>
        <path d="M 31.78125 66.40625 
Q 24.171875 66.40625 20.328125 58.90625 
Q 16.5 51.421875 16.5 36.375 
Q 16.5 21.390625 20.328125 13.890625 
Q 24.171875 6.390625 31.78125 6.390625 
Q 39.453125 6.390625 43.28125 13.890625 
Q 47.125 21.390625 47.125 36.375 
Q 47.125 51.421875 43.28125 58.90625 
Q 39.453125 66.40625 31.78125 66.40625 
z
M 31.78125 74.21875 
Q 44.046875 74.21875 50.515625 64.515625 
Q 56.984375 54.828125 56.984375 36.375 
Q 56.984375 17.96875 50.515625 8.265625 
Q 44.046875 -1.421875 31.78125 -1.421875 
Q 19.53125 -1.421875 13.0625 8.265625 
Q 6.59375 17.96875 6.59375 36.375 
Q 6.59375 54.828125 13.0625 64.515625 
Q 19.53125 74.21875 31.78125 74.21875 
z
" id="DejaVuSans-48"/>
        <path d="M 4.890625 31.390625 
L 31.203125 31.390625 
L 31.203125 23.390625 
L 4.890625 23.390625 
z
" id="DejaVuSans-45"/>
        <path d="M 37.796875 64.3125 
L 12.890625 25.390625 
L 37.796875 25.390625 
z
M 35.203125 72.90625 
L 47.609375 72.90625 
L 47.609375 25.390625 
L 58.015625 25.390625 
L 58.015625 17.1875 
L 47.609375 17.1875 
L 47.609375 0 
L 37.796875 0 
L 37.796875 17.1875 
L 4.890625 17.1875 
L 4.890625 26.703125 
z
" id="DejaVuSans-52"/>
       </defs>
       <use xlink:href="#DejaVuSans-50"/>
       <use x="63.623047" xlink:href="#DejaVuSans-48"/>
       <use x="127.246094" xlink:href="#DejaVuSans-50"/>
       <use x="190.869141" xlink:href="#DejaVuSans-48"/>
       <use x="254.492188" xlink:href="#DejaVuSans-45"/>
       <use x="290.576172" xlink:href="#DejaVuSans-48"/>
       <use x="354.199219" xlink:href="#DejaVuSans-52"/>
      </g>
     </g>
    </g>
    <g id="xtick_2">
     <g id="line2d_3">
      <path clip-path="url(#pc58b8bd266)" d="M 201.051597 320.4 
L 201.051597 43.2 
" style="fill:none;stroke:#808080;stroke-dasharray:6.4,1.6,1,1.6;stroke-dashoffset:0;stroke-opacity:0.3;"/>
     </g>
     <g id="line2d_4">
      <g>
       <use style="stroke:#000000;stroke-width:0.8;" x="201.051597" xlink:href="#m64baf441fa" y="320.4"/>
      </g>
     </g>
     <g id="text_2">
      <!-- 2020-07 -->
      <g transform="translate(180.160191 334.998438)scale(0.1 -0.1)">
       <defs>
        <path d="M 8.203125 72.90625 
L 55.078125 72.90625 
L 55.078125 68.703125 
L 28.609375 0 
L 18.3125 0 
L 43.21875 64.59375 
L 8.203125 64.59375 
z
" id="DejaVuSans-55"/>
       </defs>
       <use xlink:href="#DejaVuSans-50"/>
       <use x="63.623047" xlink:href="#DejaVuSans-48"/>
       <use x="127.246094" xlink:href="#DejaVuSans-50"/>
       <use x="190.869141" xlink:href="#DejaVuSans-48"/>
       <use x="254.492188" xlink:href="#DejaVuSans-45"/>
       <use x="290.576172" xlink:href="#DejaVuSans-48"/>
       <use x="354.199219" xlink:href="#DejaVuSans-55"/>
      </g>
     </g>
    </g>
    <g id="xtick_3">
     <g id="line2d_5">
      <path clip-path="url(#pc58b8bd266)" d="M 264.117936 320.4 
L 264.117936 43.2 
" style="fill:none;stroke:#808080;stroke-dasharray:6.4,1.6,1,1.6;stroke-dashoffset:0;stroke-opacity:0.3;"/>
     </g>
     <g id="line2d_6">
      <g>
       <use style="stroke:#000000;stroke-width:0.8;" x="264.117936" xlink:href="#m64baf441fa" y="320.4"/>
      </g>
     </g>
     <g id="text_3">
      <!-- 2020-10 -->
      <g transform="translate(243.22653 334.998438)scale(0.1 -0.1)">
       <defs>
        <path d="M 12.40625 8.296875 
L 28.515625 8.296875 
L 28.515625 63.921875 
L 10.984375 60.40625 
L 10.984375 69.390625 
L 28.421875 72.90625 
L 38.28125 72.90625 
L 38.28125 8.296875 
L 54.390625 8.296875 
L 54.390625 0 
L 12.40625 0 
z
" id="DejaVuSans-49"/>
       </defs>
       <use xlink:href="#DejaVuSans-50"/>
       <use x="63.623047" xlink:href="#DejaVuSans-48"/>
       <use x="127.246094" xlink:href="#DejaVuSans-50"/>
       <use x="190.869141" xlink:href="#DejaVuSans-48"/>
       <use x="254.492188" xlink:href="#DejaVuSans-45"/>
       <use x="290.576172" xlink:href="#DejaVuSans-49"/>
       <use x="354.199219" xlink:href="#DejaVuSans-48"/>
      </g>
     </g>
    </g>
    <g id="xtick_4">
     <g id="line2d_7">
      <path clip-path="url(#pc58b8bd266)" d="M 327.184275 320.4 
L 327.184275 43.2 
" style="fill:none;stroke:#808080;stroke-dasharray:6.4,1.6,1,1.6;stroke-dashoffset:0;stroke-opacity:0.3;"/>
     </g>
     <g id="line2d_8">
      <g>
       <use style="stroke:#000000;stroke-width:0.8;" x="327.184275" xlink:href="#m64baf441fa" y="320.4"/>
      </g>
     </g>
     <g id="text_4">
      <!-- 2021-01 -->
      <g transform="translate(306.292869 334.998438)scale(0.1 -0.1)">
       <use xlink:href="#DejaVuSans-50"/>
       <use x="63.623047" xlink:href="#DejaVuSans-48"/>
       <use x="127.246094" xlink:href="#DejaVuSans-50"/>
       <use x="190.869141" xlink:href="#DejaVuSans-49"/>
       <use x="254.492188" xlink:href="#DejaVuSans-45"/>
       <use x="290.576172" xlink:href="#DejaVuSans-48"/>
       <use x="354.199219" xlink:href="#DejaVuSans-49"/>
      </g>
     </g>
    </g>
    <g id="xtick_5">
     <g id="line2d_9">
      <path clip-path="url(#pc58b8bd266)" d="M 388.879607 320.4 
L 388.879607 43.2 
" style="fill:none;stroke:#808080;stroke-dasharray:6.4,1.6,1,1.6;stroke-dashoffset:0;stroke-opacity:0.3;"/>
     </g>
     <g id="line2d_10">
      <g>
       <use style="stroke:#000000;stroke-width:0.8;" x="388.879607" xlink:href="#m64baf441fa" y="320.4"/>
      </g>
     </g>
     <g id="text_5">
      <!-- 2021-04 -->
      <g transform="translate(367.988201 334.998438)scale(0.1 -0.1)">
       <use xlink:href="#DejaVuSans-50"/>
       <use x="63.623047" xlink:href="#DejaVuSans-48"/>
       <use x="127.246094" xlink:href="#DejaVuSans-50"/>
       <use x="190.869141" xlink:href="#DejaVuSans-49"/>
       <use x="254.492188" xlink:href="#DejaVuSans-45"/>
       <use x="290.576172" xlink:href="#DejaVuSans-48"/>
       <use x="354.199219" xlink:href="#DejaVuSans-52"/>
      </g>
     </g>
    </g>
    <g id="xtick_6">
     <g id="line2d_11">
      <path clip-path="url(#pc58b8bd266)" d="M 451.260442 320.4 
L 451.260442 43.2 
" style="fill:none;stroke:#808080;stroke-dasharray:6.4,1.6,1,1.6;stroke-dashoffset:0;stroke-opacity:0.3;"/>
     </g>
     <g id="line2d_12">
      <g>
       <use style="stroke:#000000;stroke-width:0.8;" x="451.260442" xlink:href="#m64baf441fa" y="320.4"/>
      </g>
     </g>
     <g id="text_6">
      <!-- 2021-07 -->
      <g transform="translate(430.369036 334.998438)scale(0.1 -0.1)">
       <use xlink:href="#DejaVuSans-50"/>
       <use x="63.623047" xlink:href="#DejaVuSans-48"/>
       <use x="127.246094" xlink:href="#DejaVuSans-50"/>
       <use x="190.869141" xlink:href="#DejaVuSans-49"/>
       <use x="254.492188" xlink:href="#DejaVuSans-45"/>
       <use x="290.576172" xlink:href="#DejaVuSans-48"/>
       <use x="354.199219" xlink:href="#DejaVuSans-55"/>
      </g>
     </g>
    </g>
    <g id="xtick_7">
     <g id="line2d_13">
      <path clip-path="url(#pc58b8bd266)" d="M 514.326781 320.4 
L 514.326781 43.2 
" style="fill:none;stroke:#808080;stroke-dasharray:6.4,1.6,1,1.6;stroke-dashoffset:0;stroke-opacity:0.3;"/>
     </g>
     <g id="line2d_14">
      <g>
       <use style="stroke:#000000;stroke-width:0.8;" x="514.326781" xlink:href="#m64baf441fa" y="320.4"/>
      </g>
     </g>
     <g id="text_7">
      <!-- 2021-10 -->
      <g transform="translate(493.435375 334.998438)scale(0.1 -0.1)">
       <use xlink:href="#DejaVuSans-50"/>
       <use x="63.623047" xlink:href="#DejaVuSans-48"/>
       <use x="127.246094" xlink:href="#DejaVuSans-50"/>
       <use x="190.869141" xlink:href="#DejaVuSans-49"/>
       <use x="254.492188" xlink:href="#DejaVuSans-45"/>
       <use x="290.576172" xlink:href="#DejaVuSans-49"/>
       <use x="354.199219" xlink:href="#DejaVuSans-48"/>
      </g>
     </g>
    </g>
    <g id="xtick_8">
     <g id="line2d_15">
      <path clip-path="url(#pc58b8bd266)" d="M 577.39312 320.4 
L 577.39312 43.2 
" style="fill:none;stroke:#808080;stroke-dasharray:6.4,1.6,1,1.6;stroke-dashoffset:0;stroke-opacity:0.3;"/>
     </g>
     <g id="line2d_16">
      <g>
       <use style="stroke:#000000;stroke-width:0.8;" x="577.39312" xlink:href="#m64baf441fa" y="320.4"/>
      </g>
     </g>
     <g id="text_8">
      <!-- 2022-01 -->
      <g transform="translate(556.501714 334.998438)scale(0.1 -0.1)">
       <use xlink:href="#DejaVuSans-50"/>
       <use x="63.623047" xlink:href="#DejaVuSans-48"/>
       <use x="127.246094" xlink:href="#DejaVuSans-50"/>
       <use x="190.869141" xlink:href="#DejaVuSans-50"/>
       <use x="254.492188" xlink:href="#DejaVuSans-45"/>
       <use x="290.576172" xlink:href="#DejaVuSans-48"/>
       <use x="354.199219" xlink:href="#DejaVuSans-49"/>
      </g>
     </g>
    </g>
    <g id="xtick_9">
     <g id="line2d_17">
      <path clip-path="url(#pc58b8bd266)" d="M 639.088452 320.4 
L 639.088452 43.2 
" style="fill:none;stroke:#808080;stroke-dasharray:6.4,1.6,1,1.6;stroke-dashoffset:0;stroke-opacity:0.3;"/>
     </g>
     <g id="line2d_18">
      <g>
       <use style="stroke:#000000;stroke-width:0.8;" x="639.088452" xlink:href="#m64baf441fa" y="320.4"/>
      </g>
     </g>
     <g id="text_9">
      <!-- 2022-04 -->
      <g transform="translate(618.197046 334.998438)scale(0.1 -0.1)">
       <use xlink:href="#DejaVuSans-50"/>
       <use x="63.623047" xlink:href="#DejaVuSans-48"/>
       <use x="127.246094" xlink:href="#DejaVuSans-50"/>
       <use x="190.869141" xlink:href="#DejaVuSans-50"/>
       <use x="254.492188" xlink:href="#DejaVuSans-45"/>
       <use x="290.576172" xlink:href="#DejaVuSans-48"/>
       <use x="354.199219" xlink:href="#DejaVuSans-52"/>
      </g>
     </g>
    </g>
    <g id="text_10">
     <!-- Datum -->
     <g transform="translate(352.086719 348.676562)scale(0.1 -0.1)">
      <defs>
       <path d="M 19.671875 64.796875 
L 19.671875 8.109375 
L 31.59375 8.109375 
Q 46.6875 8.109375 53.6875 14.9375 
Q 60.6875 21.78125 60.6875 36.53125 
Q 60.6875 51.171875 53.6875 57.984375 
Q 46.6875 64.796875 31.59375 64.796875 
z
M 9.8125 72.90625 
L 30.078125 72.90625 
Q 51.265625 72.90625 61.171875 64.09375 
Q 71.09375 55.28125 71.09375 36.53125 
Q 71.09375 17.671875 61.125 8.828125 
Q 51.171875 0 30.078125 0 
L 9.8125 0 
z
" id="DejaVuSans-68"/>
       <path d="M 34.28125 27.484375 
Q 23.390625 27.484375 19.1875 25 
Q 14.984375 22.515625 14.984375 16.5 
Q 14.984375 11.71875 18.140625 8.90625 
Q 21.296875 6.109375 26.703125 6.109375 
Q 34.1875 6.109375 38.703125 11.40625 
Q 43.21875 16.703125 43.21875 25.484375 
L 43.21875 27.484375 
z
M 52.203125 31.203125 
L 52.203125 0 
L 43.21875 0 
L 43.21875 8.296875 
Q 40.140625 3.328125 35.546875 0.953125 
Q 30.953125 -1.421875 24.3125 -1.421875 
Q 15.921875 -1.421875 10.953125 3.296875 
Q 6 8.015625 6 15.921875 
Q 6 25.140625 12.171875 29.828125 
Q 18.359375 34.515625 30.609375 34.515625 
L 43.21875 34.515625 
L 43.21875 35.40625 
Q 43.21875 41.609375 39.140625 45 
Q 35.0625 48.390625 27.6875 48.390625 
Q 23 48.390625 18.546875 47.265625 
Q 14.109375 46.140625 10.015625 43.890625 
L 10.015625 52.203125 
Q 14.9375 54.109375 19.578125 55.046875 
Q 24.21875 56 28.609375 56 
Q 40.484375 56 46.34375 49.84375 
Q 52.203125 43.703125 52.203125 31.203125 
z
" id="DejaVuSans-97"/>
       <path d="M 18.3125 70.21875 
L 18.3125 54.6875 
L 36.8125 54.6875 
L 36.8125 47.703125 
L 18.3125 47.703125 
L 18.3125 18.015625 
Q 18.3125 11.328125 20.140625 9.421875 
Q 21.96875 7.515625 27.59375 7.515625 
L 36.8125 7.515625 
L 36.8125 0 
L 27.59375 0 
Q 17.1875 0 13.234375 3.875 
Q 9.28125 7.765625 9.28125 18.015625 
L 9.28125 47.703125 
L 2.6875 47.703125 
L 2.6875 54.6875 
L 9.28125 54.6875 
L 9.28125 70.21875 
z
" id="DejaVuSans-116"/>
       <path d="M 8.5 21.578125 
L 8.5 54.6875 
L 17.484375 54.6875 
L 17.484375 21.921875 
Q 17.484375 14.15625 20.5 10.265625 
Q 23.53125 6.390625 29.59375 6.390625 
Q 36.859375 6.390625 41.078125 11.03125 
Q 45.3125 15.671875 45.3125 23.6875 
L 45.3125 54.6875 
L 54.296875 54.6875 
L 54.296875 0 
L 45.3125 0 
L 45.3125 8.40625 
Q 42.046875 3.421875 37.71875 1 
Q 33.40625 -1.421875 27.6875 -1.421875 
Q 18.265625 -1.421875 13.375 4.4375 
Q 8.5 10.296875 8.5 21.578125 
z
M 31.109375 56 
z
" id="DejaVuSans-117"/>
       <path d="M 52 44.1875 
Q 55.375 50.25 60.0625 53.125 
Q 64.75 56 71.09375 56 
Q 79.640625 56 84.28125 50.015625 
Q 88.921875 44.046875 88.921875 33.015625 
L 88.921875 0 
L 79.890625 0 
L 79.890625 32.71875 
Q 79.890625 40.578125 77.09375 44.375 
Q 74.3125 48.1875 68.609375 48.1875 
Q 61.625 48.1875 57.5625 43.546875 
Q 53.515625 38.921875 53.515625 30.90625 
L 53.515625 0 
L 44.484375 0 
L 44.484375 32.71875 
Q 44.484375 40.625 41.703125 44.40625 
Q 38.921875 48.1875 33.109375 48.1875 
Q 26.21875 48.1875 22.15625 43.53125 
Q 18.109375 38.875 18.109375 30.90625 
L 18.109375 0 
L 9.078125 0 
L 9.078125 54.6875 
L 18.109375 54.6875 
L 18.109375 46.1875 
Q 21.1875 51.21875 25.484375 53.609375 
Q 29.78125 56 35.6875 56 
Q 41.65625 56 45.828125 52.96875 
Q 50 49.953125 52 44.1875 
z
" id="DejaVuSans-109"/>
      </defs>
      <use xlink:href="#DejaVuSans-68"/>
      <use x="77.001953" xlink:href="#DejaVuSans-97"/>
      <use x="138.28125" xlink:href="#DejaVuSans-116"/>
      <use x="177.490234" xlink:href="#DejaVuSans-117"/>
      <use x="240.869141" xlink:href="#DejaVuSans-109"/>
     </g>
    </g>
   </g>
   <g id="matplotlib.axis_2">
    <g id="ytick_1">
     <g id="line2d_19">
      <path clip-path="url(#pc58b8bd266)" d="M 90 307.876759 
L 648 307.876759 
" style="fill:none;stroke:#808080;stroke-dasharray:6.4,1.6,1,1.6;stroke-dashoffset:0;stroke-opacity:0.3;"/>
     </g>
     <g id="line2d_20">
      <defs>
       <path d="M 0 0 
L -3.5 0 
" id="maa0a5c36e1" style="stroke:#000000;stroke-width:0.8;"/>
      </defs>
      <g>
       <use style="stroke:#000000;stroke-width:0.8;" x="90" xlink:href="#maa0a5c36e1" y="307.876759"/>
      </g>
     </g>
     <g id="text_11">
      <!-- 0 -->
      <g transform="translate(76.6375 311.675978)scale(0.1 -0.1)">
       <use xlink:href="#DejaVuSans-48"/>
      </g>
     </g>
    </g>
    <g id="ytick_2">
     <g id="line2d_21">
      <path clip-path="url(#pc58b8bd266)" d="M 90 269.497228 
L 648 269.497228 
" style="fill:none;stroke:#808080;stroke-dasharray:6.4,1.6,1,1.6;stroke-dashoffset:0;stroke-opacity:0.3;"/>
     </g>
     <g id="line2d_22">
      <g>
       <use style="stroke:#000000;stroke-width:0.8;" x="90" xlink:href="#maa0a5c36e1" y="269.497228"/>
      </g>
     </g>
     <g id="text_12">
      <!-- 500 -->
      <g transform="translate(63.9125 273.296447)scale(0.1 -0.1)">
       <defs>
        <path d="M 10.796875 72.90625 
L 49.515625 72.90625 
L 49.515625 64.59375 
L 19.828125 64.59375 
L 19.828125 46.734375 
Q 21.96875 47.46875 24.109375 47.828125 
Q 26.265625 48.1875 28.421875 48.1875 
Q 40.625 48.1875 47.75 41.5 
Q 54.890625 34.8125 54.890625 23.390625 
Q 54.890625 11.625 47.5625 5.09375 
Q 40.234375 -1.421875 26.90625 -1.421875 
Q 22.3125 -1.421875 17.546875 -0.640625 
Q 12.796875 0.140625 7.71875 1.703125 
L 7.71875 11.625 
Q 12.109375 9.234375 16.796875 8.0625 
Q 21.484375 6.890625 26.703125 6.890625 
Q 35.15625 6.890625 40.078125 11.328125 
Q 45.015625 15.765625 45.015625 23.390625 
Q 45.015625 31 40.078125 35.4375 
Q 35.15625 39.890625 26.703125 39.890625 
Q 22.75 39.890625 18.8125 39.015625 
Q 14.890625 38.140625 10.796875 36.28125 
z
" id="DejaVuSans-53"/>
       </defs>
       <use xlink:href="#DejaVuSans-53"/>
       <use x="63.623047" xlink:href="#DejaVuSans-48"/>
       <use x="127.246094" xlink:href="#DejaVuSans-48"/>
      </g>
     </g>
    </g>
    <g id="ytick_3">
     <g id="line2d_23">
      <path clip-path="url(#pc58b8bd266)" d="M 90 231.117697 
L 648 231.117697 
" style="fill:none;stroke:#808080;stroke-dasharray:6.4,1.6,1,1.6;stroke-dashoffset:0;stroke-opacity:0.3;"/>
     </g>
     <g id="line2d_24">
      <g>
       <use style="stroke:#000000;stroke-width:0.8;" x="90" xlink:href="#maa0a5c36e1" y="231.117697"/>
      </g>
     </g>
     <g id="text_13">
      <!-- 1000 -->
      <g transform="translate(57.55 234.916916)scale(0.1 -0.1)">
       <use xlink:href="#DejaVuSans-49"/>
       <use x="63.623047" xlink:href="#DejaVuSans-48"/>
       <use x="127.246094" xlink:href="#DejaVuSans-48"/>
       <use x="190.869141" xlink:href="#DejaVuSans-48"/>
      </g>
     </g>
    </g>
    <g id="ytick_4">
     <g id="line2d_25">
      <path clip-path="url(#pc58b8bd266)" d="M 90 192.738166 
L 648 192.738166 
" style="fill:none;stroke:#808080;stroke-dasharray:6.4,1.6,1,1.6;stroke-dashoffset:0;stroke-opacity:0.3;"/>
     </g>
     <g id="line2d_26">
      <g>
       <use style="stroke:#000000;stroke-width:0.8;" x="90" xlink:href="#maa0a5c36e1" y="192.738166"/>
      </g>
     </g>
     <g id="text_14">
      <!-- 1500 -->
      <g transform="translate(57.55 196.537385)scale(0.1 -0.1)">
       <use xlink:href="#DejaVuSans-49"/>
       <use x="63.623047" xlink:href="#DejaVuSans-53"/>
       <use x="127.246094" xlink:href="#DejaVuSans-48"/>
       <use x="190.869141" xlink:href="#DejaVuSans-48"/>
      </g>
     </g>
    </g>
    <g id="ytick_5">
     <g id="line2d_27">
      <path clip-path="url(#pc58b8bd266)" d="M 90 154.358635 
L 648 154.358635 
" style="fill:none;stroke:#808080;stroke-dasharray:6.4,1.6,1,1.6;stroke-dashoffset:0;stroke-opacity:0.3;"/>
     </g>
     <g id="line2d_28">
      <g>
       <use style="stroke:#000000;stroke-width:0.8;" x="90" xlink:href="#maa0a5c36e1" y="154.358635"/>
      </g>
     </g>
     <g id="text_15">
      <!-- 2000 -->
      <g transform="translate(57.55 158.157854)scale(0.1 -0.1)">
       <use xlink:href="#DejaVuSans-50"/>
       <use x="63.623047" xlink:href="#DejaVuSans-48"/>
       <use x="127.246094" xlink:href="#DejaVuSans-48"/>
       <use x="190.869141" xlink:href="#DejaVuSans-48"/>
      </g>
     </g>
    </g>
    <g id="ytick_6">
     <g id="line2d_29">
      <path clip-path="url(#pc58b8bd266)" d="M 90 115.979104 
L 648 115.979104 
" style="fill:none;stroke:#808080;stroke-dasharray:6.4,1.6,1,1.6;stroke-dashoffset:0;stroke-opacity:0.3;"/>
     </g>
     <g id="line2d_30">
      <g>
       <use style="stroke:#000000;stroke-width:0.8;" x="90" xlink:href="#maa0a5c36e1" y="115.979104"/>
      </g>
     </g>
     <g id="text_16">
      <!-- 2500 -->
      <g transform="translate(57.55 119.778323)scale(0.1 -0.1)">
       <use xlink:href="#DejaVuSans-50"/>
       <use x="63.623047" xlink:href="#DejaVuSans-53"/>
       <use x="127.246094" xlink:href="#DejaVuSans-48"/>
       <use x="190.869141" xlink:href="#DejaVuSans-48"/>
      </g>
     </g>
    </g>
    <g id="ytick_7">
     <g id="line2d_31">
      <path clip-path="url(#pc58b8bd266)" d="M 90 77.599574 
L 648 77.599574 
" style="fill:none;stroke:#808080;stroke-dasharray:6.4,1.6,1,1.6;stroke-dashoffset:0;stroke-opacity:0.3;"/>
     </g>
     <g id="line2d_32">
      <g>
       <use style="stroke:#000000;stroke-width:0.8;" x="90" xlink:href="#maa0a5c36e1" y="77.599574"/>
      </g>
     </g>
     <g id="text_17">
      <!-- 3000 -->
      <g transform="translate(57.55 81.398792)scale(0.1 -0.1)">
       <defs>
        <path d="M 40.578125 39.3125 
Q 47.65625 37.796875 51.625 33 
Q 55.609375 28.21875 55.609375 21.1875 
Q 55.609375 10.40625 48.1875 4.484375 
Q 40.765625 -1.421875 27.09375 -1.421875 
Q 22.515625 -1.421875 17.65625 -0.515625 
Q 12.796875 0.390625 7.625 2.203125 
L 7.625 11.71875 
Q 11.71875 9.328125 16.59375 8.109375 
Q 21.484375 6.890625 26.8125 6.890625 
Q 36.078125 6.890625 40.9375 10.546875 
Q 45.796875 14.203125 45.796875 21.1875 
Q 45.796875 27.640625 41.28125 31.265625 
Q 36.765625 34.90625 28.71875 34.90625 
L 20.21875 34.90625 
L 20.21875 43.015625 
L 29.109375 43.015625 
Q 36.375 43.015625 40.234375 45.921875 
Q 44.09375 48.828125 44.09375 54.296875 
Q 44.09375 59.90625 40.109375 62.90625 
Q 36.140625 65.921875 28.71875 65.921875 
Q 24.65625 65.921875 20.015625 65.03125 
Q 15.375 64.15625 9.8125 62.3125 
L 9.8125 71.09375 
Q 15.4375 72.65625 20.34375 73.4375 
Q 25.25 74.21875 29.59375 74.21875 
Q 40.828125 74.21875 47.359375 69.109375 
Q 53.90625 64.015625 53.90625 55.328125 
Q 53.90625 49.265625 50.4375 45.09375 
Q 46.96875 40.921875 40.578125 39.3125 
z
" id="DejaVuSans-51"/>
       </defs>
       <use xlink:href="#DejaVuSans-51"/>
       <use x="63.623047" xlink:href="#DejaVuSans-48"/>
       <use x="127.246094" xlink:href="#DejaVuSans-48"/>
       <use x="190.869141" xlink:href="#DejaVuSans-48"/>
      </g>
     </g>
    </g>
   </g>
   <g id="line2d_33">
    <path clip-path="url(#pc58b8bd266)" d="M 115.363636 303.194456 
L 116.04914 302.88742 
L 116.734644 302.88742 
L 117.420147 302.350107 
L 118.105651 301.505757 
L 118.791155 300.968443 
L 119.476658 300.047335 
L 120.162162 299.356503 
L 120.847666 297.97484 
L 121.53317 297.360768 
L 122.218673 295.902345 
L 123.589681 292.21791 
L 124.275184 289.454584 
L 124.960688 286.153945 
L 125.646192 280.857569 
L 126.331695 277.863966 
L 127.017199 274.179531 
L 127.702703 263.970576 
L 128.388206 257.522814 
L 129.07371 247.697655 
L 129.759214 231.655011 
L 130.444717 218.375693 
L 131.130221 212.311727 
L 131.815725 204.482303 
L 132.501229 179.38209 
L 133.872236 143.228571 
L 134.55774 128.107036 
L 135.243243 108.072921 
L 135.928747 112.831983 
L 136.614251 116.439659 
L 137.299754 105.232836 
L 137.985258 110.836247 
L 138.670762 118.205117 
L 139.356265 119.970576 
L 140.041769 119.510021 
L 140.727273 135.706183 
L 141.412776 139.467377 
L 142.09828 130.25629 
L 143.469287 151.748827 
L 144.154791 165.258422 
L 144.840295 172.089979 
L 145.525799 186.443923 
L 146.211302 190.742431 
L 146.896806 191.356503 
L 147.58231 190.435394 
L 148.267813 197.113433 
L 148.953317 205.55693 
L 149.638821 208.78081 
L 150.324324 219.603838 
L 151.009828 221.522814 
L 151.695332 218.60597 
L 152.380835 222.213646 
L 153.066339 228.354371 
L 153.751843 231.578252 
L 154.437346 235.953518 
L 155.12285 245.855437 
L 155.808354 248.08145 
L 156.493857 249.232836 
L 157.179361 247.927932 
L 157.864865 252.456716 
L 158.550369 254.375693 
L 159.235872 258.520682 
L 159.921376 264.891684 
L 160.60688 266.119829 
L 161.292383 262.358635 
L 161.977887 267.501493 
L 162.663391 266.426866 
L 163.348894 268.422601 
L 164.034398 268.49936 
L 164.719902 272.183795 
L 165.405405 273.565458 
L 166.090909 271.339446 
L 168.14742 278.094243 
L 168.832924 279.706183 
L 169.518428 283.006823 
L 170.203931 281.932196 
L 170.889435 279.475906 
L 171.574939 281.318124 
L 172.260442 282.392751 
L 172.945946 285.002559 
L 173.63145 282.699787 
L 174.316953 285.463113 
L 175.002457 286.077186 
L 175.687961 283.390618 
L 176.373464 283.851173 
L 177.058968 286.153945 
L 177.744472 287.765885 
L 178.429975 287.612367 
L 179.115479 288.917271 
L 179.800983 289.301066 
L 180.486486 288.99403 
L 181.17199 287.30533 
L 181.857494 287.919403 
L 183.228501 290.375693 
L 183.914005 292.985501 
L 185.285012 292.985501 
L 185.970516 294.520682 
L 186.65602 295.748827 
L 187.341523 295.441791 
L 188.027027 296.132623 
L 188.712531 297.591045 
L 189.398034 297.667804 
L 190.083538 297.437527 
L 190.769042 297.437527 
L 191.454545 298.051599 
L 192.140049 297.97484 
L 192.825553 298.281876 
L 193.511057 299.740299 
L 194.19656 299.663539 
L 194.882064 299.433262 
L 195.567568 299.356503 
L 196.253071 299.433262 
L 196.938575 298.895949 
L 197.624079 299.202985 
L 198.309582 300.814925 
L 198.995086 300.507889 
L 199.68059 299.817058 
L 200.366093 300.891684 
L 201.051597 301.045203 
L 201.737101 301.582516 
L 202.422604 301.582516 
L 203.108108 302.350107 
L 205.164619 301.659275 
L 205.850123 301.812793 
L 206.535627 301.812793 
L 207.22113 301.045203 
L 207.906634 301.659275 
L 208.592138 301.659275 
L 209.277641 301.121962 
L 209.963145 301.045203 
L 210.648649 301.582516 
L 211.334152 301.889552 
L 212.019656 302.04307 
L 212.70516 301.505757 
L 214.076167 301.045203 
L 214.761671 301.045203 
L 215.447174 301.889552 
L 216.132678 301.352239 
L 216.818182 301.582516 
L 218.189189 301.198721 
L 218.874693 300.584648 
L 219.560197 300.354371 
L 220.2457 301.045203 
L 221.616708 300.43113 
L 222.302211 300.354371 
L 223.673219 298.81919 
L 224.358722 299.356503 
L 225.044226 299.740299 
L 225.72973 299.817058 
L 227.100737 298.742431 
L 227.786241 297.744563 
L 228.471744 296.976972 
L 229.157248 295.441791 
L 229.842752 295.211514 
L 230.528256 295.365032 
L 231.899263 295.979104 
L 232.584767 295.365032 
L 233.27027 294.060128 
L 233.955774 294.443923 
L 234.641278 294.213646 
L 235.326781 293.522814 
L 236.012285 293.983369 
L 236.697789 295.51855 
L 237.383292 295.441791 
L 238.068796 295.134755 
L 238.7543 294.6742 
L 239.439803 295.441791 
L 240.125307 296.593177 
L 240.810811 296.439659 
L 241.496314 297.744563 
L 242.181818 297.591045 
L 242.867322 296.746695 
L 243.552826 296.823454 
L 244.238329 296.3629 
L 244.923833 296.746695 
L 245.609337 296.209382 
L 246.29484 296.209382 
L 249.036855 290.60597 
L 249.722359 291.066525 
L 250.407862 289.531343 
L 251.093366 289.76162 
L 251.77887 288.763753 
L 252.464373 285.616631 
L 253.149877 285.002559 
L 253.835381 282.930064 
L 254.520885 281.548401 
L 255.206388 278.631557 
L 256.577396 275.714712 
L 257.262899 271.723241 
L 257.948403 269.497228 
L 259.31941 262.435394 
L 260.004914 260.286141 
L 260.690418 260.669936 
L 261.375921 258.136887 
L 262.061425 253.915139 
L 262.746929 251.075053 
L 263.432432 249.69339 
L 264.117936 247.467377 
L 265.488943 244.166738 
L 266.174447 241.096375 
L 266.859951 233.113433 
L 267.545455 229.659275 
L 268.230958 227.893817 
L 268.916462 225.667804 
L 269.601966 219.910874 
L 270.287469 221.292537 
L 270.972973 216.840512 
L 271.658477 205.55693 
L 272.34398 198.111301 
L 273.029484 198.571855 
L 273.714988 196.422601 
L 274.400491 192.661407 
L 275.085995 193.352239 
L 275.771499 190.742431 
L 276.457002 179.075053 
L 277.142506 174.546269 
L 277.82801 172.01322 
L 279.199017 160.269083 
L 279.884521 165.642217 
L 280.570025 160.192324 
L 281.255528 147.834115 
L 281.941032 147.220043 
L 282.626536 148.908742 
L 283.312039 151.134755 
L 283.997543 149.599574 
L 284.683047 155.663539 
L 285.36855 153.97484 
L 286.054054 137.932196 
L 286.739558 142.000426 
L 288.110565 152.593177 
L 288.796069 158.350107 
L 289.481572 169.863966 
L 290.167076 171.399147 
L 290.85258 160.269083 
L 291.538084 165.104904 
L 292.909091 172.473774 
L 293.594595 173.932196 
L 294.280098 184.29467 
L 294.965602 184.678465 
L 295.651106 173.394883 
L 296.336609 175.620896 
L 297.707617 184.678465 
L 299.078624 199.032409 
L 299.764128 196.422601 
L 300.449631 186.443923 
L 301.135135 190.051599 
L 301.820639 195.424733 
L 302.506143 194.964179 
L 303.191646 195.808529 
L 303.87715 203.484435 
L 304.562654 203.10064 
L 305.248157 196.576119 
L 305.933661 200.107036 
L 306.619165 202.947122 
L 307.304668 202.333049 
L 307.990172 199.723241 
L 308.675676 203.407676 
L 309.361179 200.260554 
L 310.046683 191.817058 
L 311.41769 194.273348 
L 312.103194 194.503625 
L 312.788698 188.900213 
L 313.474201 190.972708 
L 314.159705 186.904478 
L 314.845209 173.701919 
L 315.530713 174.085714 
L 316.216216 171.859701 
L 316.90172 168.482303 
L 317.587224 164.337313 
L 318.272727 171.706183 
L 318.958231 170.631557 
L 319.643735 155.510021 
L 320.329238 154.128358 
L 321.014742 152.132623 
L 321.700246 150.6742 
L 322.385749 158.503625 
L 323.071253 155.433262 
L 323.756757 148.524947 
L 324.44226 126.802132 
L 325.127764 128.414072 
L 325.813268 131.561194 
L 326.498771 137.62516 
L 327.184275 150.136887 
L 327.869779 146.298934 
L 328.555283 144.456716 
L 329.240786 134.861834 
L 329.92629 137.471642 
L 331.982801 150.981237 
L 332.668305 164.414072 
L 333.353808 163.646482 
L 334.039312 153.437527 
L 335.410319 162.802132 
L 336.095823 167.561194 
L 336.781327 169.019616 
L 337.46683 178.844776 
L 338.152334 182.375693 
L 338.837838 172.550533 
L 339.523342 173.548401 
L 340.208845 179.30533 
L 340.894349 179.228571 
L 341.579853 180.840512 
L 342.265356 186.750959 
L 342.95086 186.060128 
L 343.636364 178.691258 
L 344.321867 182.222175 
L 345.007371 186.981237 
L 345.692875 190.205117 
L 346.378378 189.360768 
L 347.063882 194.810661 
L 347.749386 192.124094 
L 348.434889 183.987633 
L 349.120393 186.520682 
L 349.805897 190.895949 
L 350.4914 193.428998 
L 351.176904 194.119829 
L 351.862408 203.714712 
L 352.547912 205.096375 
L 353.233415 197.036674 
L 353.918919 198.95565 
L 354.604423 198.878891 
L 355.289926 199.876759 
L 355.97543 201.642217 
L 356.660934 209.164606 
L 357.346437 208.627292 
L 358.031941 199.876759 
L 359.402948 202.333049 
L 360.088452 201.718977 
L 360.773956 203.330917 
L 361.459459 210.699787 
L 362.144963 210.776546 
L 362.830467 202.25629 
L 363.515971 203.023881 
L 364.201474 204.328785 
L 364.886978 207.322388 
L 365.572482 208.320256 
L 366.257985 212.695522 
L 366.943489 211.544136 
L 367.628993 202.026013 
L 368.314496 203.484435 
L 369 207.16887 
L 370.371007 209.778678 
L 371.056511 216.072921 
L 371.742015 214.460981 
L 372.427518 205.787207 
L 373.113022 205.787207 
L 373.798526 207.936461 
L 374.484029 208.78081 
L 375.169533 208.397015 
L 375.855037 211.2371 
L 376.540541 209.241365 
L 377.226044 199.953518 
L 377.911548 199.646482 
L 378.597052 200.721109 
L 379.282555 197.497228 
L 379.968059 196.729638 
L 380.653563 200.030277 
L 381.339066 196.422601 
L 382.02457 186.060128 
L 382.710074 188.669936 
L 383.395577 188.132623 
L 384.081081 188.593177 
L 384.766585 186.904478 
L 385.452088 192.661407 
L 386.137592 191.126226 
L 386.823096 176.695522 
L 387.5086 178.460981 
L 388.194103 181.531343 
L 388.879607 180.379957 
L 389.565111 185.676333 
L 390.250614 193.045203 
L 390.936118 192.047335 
L 391.621622 186.6742 
L 392.307125 178.460981 
L 392.992629 178.921535 
L 393.678133 181.76162 
L 394.363636 180.14968 
L 395.04914 187.134755 
L 395.734644 186.136887 
L 396.420147 180.533475 
L 397.105651 184.678465 
L 397.791155 186.827719 
L 398.476658 188.439659 
L 399.162162 185.676333 
L 399.847666 191.893817 
L 400.53317 189.591045 
L 401.218673 174.315991 
L 401.904177 173.855437 
L 403.275184 173.932196 
L 403.960688 176.004691 
L 404.646192 185.215778 
L 405.331695 183.143284 
L 406.017199 169.863966 
L 406.702703 176.849041 
L 407.388206 167.484435 
L 408.07371 164.874627 
L 408.759214 166.486567 
L 409.444717 176.004691 
L 410.130221 179.842644 
L 410.815725 171.859701 
L 411.501229 176.158209 
L 412.186732 185.446055 
L 412.872236 183.987633 
L 413.55774 183.220043 
L 414.243243 192.43113 
L 414.928747 194.733902 
L 415.614251 187.441791 
L 416.299754 191.970576 
L 416.985258 197.804264 
L 417.670762 206.478038 
L 418.356265 201.335181 
L 419.041769 210.239232 
L 419.727273 212.158209 
L 420.412776 205.480171 
L 421.09828 209.087846 
L 421.783784 216.14968 
L 423.154791 222.367164 
L 423.840295 230.964179 
L 424.525799 233.497228 
L 425.211302 233.957783 
L 425.896806 231.885288 
L 427.267813 242.631557 
L 427.953317 245.62516 
L 428.638821 252.379957 
L 429.324324 254.452452 
L 430.009828 252.14968 
L 431.380835 259.441791 
L 432.066339 262.358635 
L 432.751843 261.97484 
L 433.437346 265.121962 
L 434.12285 265.582516 
L 434.808354 264.814925 
L 435.493857 267.347974 
L 436.179361 271.569723 
L 437.550369 275.944989 
L 438.235872 279.706183 
L 438.921376 279.706183 
L 439.60688 277.863966 
L 440.292383 281.241365 
L 440.977887 282.776546 
L 441.663391 283.083582 
L 442.348894 283.544136 
L 443.034398 285.69339 
L 443.719902 285.923667 
L 444.405405 285.923667 
L 445.090909 287.996162 
L 445.776413 288.686994 
L 446.461916 290.298934 
L 447.832924 292.29467 
L 448.518428 292.21791 
L 449.203931 292.755224 
L 449.889435 292.831983 
L 450.574939 293.90661 
L 451.260442 293.753092 
L 451.945946 294.443923 
L 452.63145 294.904478 
L 454.002457 294.367164 
L 454.687961 295.057996 
L 455.373464 295.134755 
L 456.058968 294.597441 
L 456.744472 294.443923 
L 457.429975 293.983369 
L 458.800983 292.064392 
L 459.486486 291.45032 
L 461.542998 286.153945 
L 462.228501 284.9258 
L 462.914005 281.778678 
L 463.599509 277.633689 
L 464.285012 274.870362 
L 464.970516 274.102772 
L 465.65602 273.104904 
L 466.341523 270.18806 
L 467.712531 268.652878 
L 468.398034 264.200853 
L 469.083538 262.742431 
L 469.769042 262.665672 
L 470.454545 262.051599 
L 471.140049 261.744563 
L 471.825553 263.433262 
L 472.511057 262.358635 
L 473.19656 260.439659 
L 473.882064 263.817058 
L 474.567568 266.04307 
L 475.253071 267.194456 
L 475.938575 267.808529 
L 476.624079 269.036674 
L 477.309582 269.957783 
L 477.995086 269.113433 
L 478.68059 268.959915 
L 479.366093 270.341578 
L 480.051597 269.497228 
L 480.737101 268.115565 
L 481.422604 268.652878 
L 482.108108 267.271215 
L 482.793612 264.738166 
L 483.479115 265.889552 
L 484.164619 267.271215 
L 484.850123 267.501493 
L 485.535627 268.345842 
L 486.22113 270.95565 
L 486.906634 269.266951 
L 487.592138 266.88742 
L 488.963145 269.266951 
L 489.648649 269.34371 
L 490.334152 269.266951 
L 491.019656 270.878891 
L 491.70516 270.18806 
L 492.390663 267.578252 
L 493.076167 269.420469 
L 493.761671 270.034542 
L 494.447174 270.111301 
L 495.132678 269.190192 
L 495.818182 270.725373 
L 496.503686 270.878891 
L 497.189189 269.420469 
L 497.874693 268.729638 
L 498.560197 268.422601 
L 499.2457 269.881023 
L 500.616708 271.032409 
L 501.302211 270.264819 
L 501.987715 268.729638 
L 502.673219 269.804264 
L 503.358722 271.8 
L 504.044226 272.414072 
L 504.72973 273.181663 
L 505.415233 274.947122 
L 506.100737 275.407676 
L 506.786241 274.25629 
L 508.157248 277.787207 
L 508.842752 278.247761 
L 509.528256 279.16887 
L 510.213759 280.857569 
L 510.899263 280.320256 
L 511.584767 278.017484 
L 512.27027 278.171002 
L 512.955774 278.785075 
L 513.641278 277.863966 
L 514.326781 277.173134 
L 515.012285 278.861834 
L 515.697789 278.017484 
L 516.383292 274.793603 
L 517.068796 274.102772 
L 517.7543 273.181663 
L 518.439803 273.795736 
L 519.125307 273.028145 
L 519.810811 273.258422 
L 520.496314 271.876759 
L 521.181818 268.806397 
L 521.867322 266.580384 
L 523.923833 262.435394 
L 524.609337 262.81919 
L 525.29484 260.593177 
L 525.980344 255.987633 
L 526.665848 254.145416 
L 528.036855 249.079318 
L 528.722359 247.927932 
L 529.407862 247.544136 
L 530.093366 245.394883 
L 530.77887 239.254158 
L 531.464373 237.488699 
L 533.520885 221.676333 
L 534.206388 220.448188 
L 534.891892 216.14968 
L 535.577396 205.480171 
L 536.262899 201.642217 
L 536.948403 202.486567 
L 537.633907 200.874627 
L 538.31941 196.269083 
L 539.004914 199.339446 
L 539.690418 193.659275 
L 540.375921 180.840512 
L 541.746929 179.151812 
L 543.117936 172.243497 
L 543.80344 172.78081 
L 544.488943 166.409808 
L 545.174447 152.746695 
L 545.859951 149.90661 
L 546.545455 150.290405 
L 547.230958 149.90661 
L 547.916462 142.691258 
L 548.601966 147.834115 
L 549.287469 142.230704 
L 549.972973 127.109168 
L 550.658477 124.49936 
L 551.34398 125.804264 
L 552.029484 123.347974 
L 552.714988 119.740299 
L 553.400491 130.716844 
L 554.085995 126.418337 
L 554.771499 111.45032 
L 555.457002 112.29467 
L 556.82801 119.58678 
L 557.513514 122.657143 
L 558.199017 133.019616 
L 558.884521 132.942857 
L 559.570025 121.812793 
L 560.255528 122.503625 
L 560.941032 122.426866 
L 561.626536 125.573987 
L 562.312039 126.18806 
L 562.997543 137.087846 
L 563.683047 136.857569 
L 564.36855 131.254158 
L 565.054054 137.164606 
L 566.425061 151.979104 
L 567.110565 158.119829 
L 567.796069 170.247761 
L 568.481572 171.16887 
L 569.167076 161.804264 
L 569.85258 166.563326 
L 570.538084 173.241365 
L 571.223587 178.768017 
L 571.909091 181.991898 
L 572.594595 194.964179 
L 573.280098 195.73177 
L 573.965602 186.750959 
L 574.651106 186.520682 
L 576.022113 195.194456 
L 576.707617 201.181663 
L 577.39312 210.315991 
L 578.078624 208.320256 
L 578.764128 200.490832 
L 579.449631 201.872495 
L 580.135135 205.940725 
L 580.820639 208.243497 
L 581.506143 206.171002 
L 582.191646 214.230704 
L 582.87715 212.465245 
L 583.562654 205.173134 
L 584.933661 215.075053 
L 585.619165 217.684861 
L 586.304668 218.682729 
L 586.990172 223.211514 
L 587.675676 223.211514 
L 588.361179 216.072921 
L 589.046683 219.066525 
L 589.732187 217.147548 
L 590.41769 215.996162 
L 591.103194 214.460981 
L 591.788698 217.454584 
L 592.474201 213.232836 
L 593.159705 205.403412 
L 593.845209 205.326652 
L 594.530713 203.254158 
L 595.90172 200.797868 
L 596.587224 202.870362 
L 597.272727 199.185928 
L 597.958231 187.672068 
L 598.643735 182.682729 
L 599.329238 181.147548 
L 600.014742 182.298934 
L 600.700246 179.919403 
L 601.385749 189.667804 
L 602.071253 185.139019 
L 602.756757 175.006823 
L 603.44226 174.239232 
L 604.127764 174.853305 
L 604.813268 176.08145 
L 605.498771 175.006823 
L 606.184275 181.83838 
L 606.869779 182.529211 
L 607.555283 169.249893 
L 608.240786 166.793603 
L 609.611794 171.552665 
L 610.297297 170.247761 
L 610.982801 177.232836 
L 611.668305 177.463113 
L 612.353808 169.940725 
L 613.039312 170.478038 
L 614.410319 181.224307 
L 615.095823 183.373561 
L 615.781327 193.428998 
L 616.46683 195.117697 
L 617.152334 185.446055 
L 617.837838 185.215778 
L 618.523342 184.371429 
L 619.208845 185.446055 
L 619.894349 186.290405 
L 620.579853 193.659275 
L 621.265356 189.821322 
L 621.95086 181.147548 
L 622.636364 190.972708 
L 622.636364 190.972708 
" style="fill:none;stroke:#ff0000;stroke-linecap:square;stroke-width:1.5;"/>
   </g>
   <g id="line2d_34">
    <path clip-path="url(#pc58b8bd266)" d="M 115.363636 307.8 
L 116.04914 307.185928 
L 116.734644 307.109168 
L 117.420147 306.341578 
L 118.105651 305.266951 
L 118.791155 304.806397 
L 121.53317 300.738166 
L 122.218673 299.58678 
L 123.589681 294.520682 
L 124.275184 291.373561 
L 126.331695 275.330917 
L 127.017199 269.497228 
L 128.388206 248.388486 
L 129.07371 233.727505 
L 130.444717 194.119829 
L 131.815725 164.260554 
L 132.501229 135.629424 
L 133.872236 92.107036 
L 134.55774 81.284009 
L 135.243243 60.252026 
L 135.928747 55.8 
L 136.614251 55.8 
L 137.299754 59.791471 
L 139.356265 92.414072 
L 140.041769 113.599574 
L 140.727273 110.60597 
L 141.412776 133.633689 
L 142.09828 84.354371 
L 142.783784 99.629424 
L 143.469287 88.038806 
L 144.154791 98.094243 
L 144.840295 102.546269 
L 145.525799 101.778678 
L 146.211302 113.522814 
L 146.896806 122.503625 
L 147.58231 124.345842 
L 148.267813 127.109168 
L 148.953317 125.420469 
L 149.638821 132.405544 
L 150.324324 133.940725 
L 151.009828 142.921535 
L 151.695332 141.69339 
L 152.380835 142.307463 
L 153.066339 149.06226 
L 153.751843 165.41194 
L 154.437346 172.397015 
L 155.12285 173.855437 
L 155.808354 177.079318 
L 156.493857 183.066525 
L 157.179361 187.441791 
L 157.864865 186.981237 
L 158.550369 194.964179 
L 159.235872 195.194456 
L 159.921376 193.198721 
L 160.60688 201.949254 
L 161.292383 205.55693 
L 161.977887 205.55693 
L 162.663391 204.098507 
L 163.348894 209.164606 
L 164.034398 216.610235 
L 164.719902 220.985501 
L 165.405405 226.972708 
L 166.090909 222.060128 
L 166.776413 222.6742 
L 167.461916 228.738166 
L 168.14742 228.891684 
L 168.832924 232.576119 
L 169.518428 233.34371 
L 170.203931 237.335181 
L 170.889435 238.102772 
L 171.574939 236.260554 
L 172.945946 237.949254 
L 174.316953 245.62516 
L 175.002457 251.842644 
L 175.687961 249.846908 
L 176.373464 254.298934 
L 177.058968 252.379957 
L 177.744472 254.529211 
L 178.429975 260.439659 
L 179.115479 262.665672 
L 179.800983 266.119829 
L 180.486486 266.273348 
L 181.17199 268.269083 
L 181.857494 269.804264 
L 182.542998 270.95565 
L 184.599509 273.872495 
L 185.285012 277.173134 
L 185.970516 281.318124 
L 186.65602 282.315991 
L 187.341523 285.079318 
L 188.027027 286.460981 
L 188.712531 285.69339 
L 189.398034 286.614499 
L 190.083538 286.307463 
L 190.769042 286.384222 
L 191.454545 285.69339 
L 192.825553 289.83838 
L 193.511057 290.989765 
L 194.19656 290.913006 
L 194.882064 292.985501 
L 195.567568 291.680597 
L 196.253071 292.755224 
L 196.938575 294.213646 
L 197.624079 293.292537 
L 198.309582 294.060128 
L 198.995086 294.213646 
L 199.68059 295.825586 
L 200.366093 295.595309 
L 201.051597 296.3629 
L 203.108108 302.119829 
L 203.793612 301.198721 
L 204.479115 301.659275 
L 205.164619 301.812793 
L 206.535627 302.503625 
L 207.22113 302.580384 
L 207.906634 301.966311 
L 208.592138 301.505757 
L 209.277641 300.661407 
L 209.963145 300.661407 
L 210.648649 301.352239 
L 211.334152 301.736034 
L 212.019656 302.273348 
L 212.70516 301.889552 
L 213.390663 302.273348 
L 214.761671 300.968443 
L 215.447174 301.352239 
L 216.132678 300.891684 
L 216.818182 302.196588 
L 217.503686 300.891684 
L 218.189189 302.733902 
L 218.874693 302.503625 
L 219.560197 301.966311 
L 220.2457 303.040938 
L 220.931204 302.810661 
L 221.616708 302.273348 
L 222.302211 302.733902 
L 222.987715 302.503625 
L 223.673219 301.582516 
L 224.358722 301.505757 
L 225.044226 301.121962 
L 225.72973 301.812793 
L 226.415233 301.889552 
L 227.100737 301.812793 
L 227.786241 301.198721 
L 228.471744 300.277612 
L 229.157248 300.43113 
L 229.842752 298.895949 
L 230.528256 298.128358 
L 231.213759 298.665672 
L 231.899263 298.358635 
L 232.584767 298.512154 
L 233.955774 297.97484 
L 234.641278 298.281876 
L 235.326781 297.284009 
L 236.012285 297.667804 
L 237.383292 297.97484 
L 238.068796 298.588913 
L 239.439803 298.665672 
L 240.125307 299.663539 
L 240.810811 300.200853 
L 241.496314 300.507889 
L 242.181818 300.661407 
L 243.552826 300.738166 
L 244.238329 300.968443 
L 244.923833 300.584648 
L 245.609337 300.584648 
L 246.29484 300.277612 
L 246.980344 299.817058 
L 247.665848 299.510021 
L 250.407862 297.437527 
L 251.093366 297.284009 
L 251.77887 296.516418 
L 253.149877 293.522814 
L 253.835381 293.215778 
L 255.206388 290.222175 
L 255.891892 287.919403 
L 256.577396 286.691258 
L 257.262899 282.930064 
L 257.948403 282.623028 
L 258.633907 279.399147 
L 259.31941 277.55693 
L 260.004914 274.793603 
L 260.690418 274.640085 
L 261.375921 270.264819 
L 262.061425 268.115565 
L 262.746929 265.582516 
L 263.432432 265.582516 
L 264.117936 266.503625 
L 264.80344 263.893817 
L 265.488943 262.972708 
L 266.859951 252.99403 
L 267.545455 247.620896 
L 268.230958 245.62516 
L 268.916462 243.245629 
L 270.287469 234.571855 
L 270.972973 232.192324 
L 271.658477 227.58678 
L 272.34398 220.908742 
L 273.714988 214.768017 
L 274.400491 215.151812 
L 275.085995 214.53774 
L 277.82801 193.27548 
L 278.513514 189.667804 
L 279.199017 184.985501 
L 279.884521 183.987633 
L 280.570025 180.686994 
L 281.941032 167.484435 
L 282.626536 167.330917 
L 283.312039 167.330917 
L 283.997543 168.328785 
L 286.054054 157.582516 
L 286.739558 150.981237 
L 287.425061 157.428998 
L 288.796069 166.486567 
L 289.481572 171.092111 
L 290.167076 177.616631 
L 290.85258 176.08145 
L 291.538084 177.616631 
L 292.223587 179.612367 
L 292.909091 184.601706 
L 293.594595 187.211514 
L 294.280098 190.435394 
L 294.965602 192.047335 
L 295.651106 188.3629 
L 296.336609 187.365032 
L 297.022113 190.588913 
L 298.39312 199.339446 
L 299.078624 204.098507 
L 300.449631 197.957783 
L 301.135135 200.490832 
L 301.820639 207.322388 
L 302.506143 211.390618 
L 303.191646 211.851173 
L 303.87715 215.765885 
L 304.562654 216.226439 
L 305.248157 212.695522 
L 305.933661 215.38209 
L 306.619165 221.06226 
L 307.304668 220.601706 
L 307.990172 219.45032 
L 308.675676 221.139019 
L 309.361179 217.915139 
L 310.046683 216.533475 
L 310.732187 213.002559 
L 311.41769 214.921535 
L 312.103194 217.377825 
L 314.159705 210.392751 
L 314.845209 202.793603 
L 315.530713 198.111301 
L 316.216216 197.497228 
L 316.90172 195.271215 
L 318.272727 192.354371 
L 318.958231 190.205117 
L 319.643735 186.904478 
L 320.329238 177.156077 
L 321.014742 178.460981 
L 321.700246 176.465245 
L 322.385749 177.079318 
L 323.071253 174.776546 
L 323.756757 169.940725 
L 324.44226 160.345842 
L 325.127764 148.448188 
L 325.813268 154.205117 
L 326.498771 146.375693 
L 327.184275 157.659275 
L 327.869779 153.97484 
L 328.555283 153.898081 
L 329.240786 144.379957 
L 329.92629 142.153945 
L 330.611794 144.303198 
L 331.297297 150.367164 
L 331.982801 159.271215 
L 332.668305 164.030277 
L 333.353808 165.872495 
L 334.039312 160.038806 
L 334.724816 158.580384 
L 335.410319 168.098507 
L 336.095823 168.635821 
L 336.781327 170.938593 
L 337.46683 177.846908 
L 338.152334 176.772281 
L 338.837838 174.008955 
L 339.523342 172.243497 
L 340.208845 176.695522 
L 340.894349 179.919403 
L 341.579853 178.614499 
L 342.265356 182.529211 
L 342.95086 179.919403 
L 343.636364 175.851173 
L 344.321867 177.002559 
L 345.692875 185.446055 
L 346.378378 187.211514 
L 347.063882 185.06226 
L 347.749386 187.134755 
L 348.434889 182.682729 
L 349.120393 181.991898 
L 349.805897 184.985501 
L 350.4914 191.279744 
L 351.862408 197.650746 
L 352.547912 196.959915 
L 353.233415 193.352239 
L 353.918919 195.808529 
L 354.604423 196.038806 
L 356.660934 206.171002 
L 357.346437 205.863966 
L 358.031941 201.488699 
L 358.717445 200.414072 
L 359.402948 200.490832 
L 360.088452 199.8 
L 360.773956 197.881023 
L 361.459459 205.326652 
L 362.144963 206.938593 
L 363.515971 202.026013 
L 364.201474 204.252026 
L 364.886978 203.407676 
L 365.572482 205.096375 
L 366.257985 208.78081 
L 366.943489 206.401279 
L 367.628993 202.333049 
L 368.314496 197.036674 
L 369 200.64435 
L 370.371007 202.716844 
L 371.056511 206.478038 
L 371.742015 207.629424 
L 372.427518 204.482303 
L 373.113022 199.876759 
L 373.798526 204.021748 
L 374.484029 204.021748 
L 375.169533 205.480171 
L 375.855037 206.478038 
L 376.540541 202.870362 
L 377.226044 196.192324 
L 377.911548 196.49936 
L 378.597052 198.571855 
L 379.282555 197.650746 
L 379.968059 195.655011 
L 380.653563 196.959915 
L 381.339066 195.655011 
L 382.02457 188.516418 
L 382.710074 186.981237 
L 383.395577 187.979104 
L 384.081081 187.134755 
L 384.766585 185.369296 
L 386.137592 185.599574 
L 386.823096 179.919403 
L 387.5086 175.2371 
L 388.194103 180.99403 
L 389.565111 183.143284 
L 390.250614 183.987633 
L 390.936118 186.060128 
L 391.621622 182.913006 
L 392.307125 173.701919 
L 392.992629 171.092111 
L 393.678133 175.313859 
L 394.363636 176.542004 
L 395.04914 177.079318 
L 395.734644 175.160341 
L 396.420147 170.631557 
L 397.105651 172.78081 
L 397.791155 176.234968 
L 398.476658 178.307463 
L 399.162162 177.539872 
L 399.847666 183.066525 
L 400.53317 179.689126 
L 401.218673 175.006823 
L 401.904177 167.407676 
L 402.589681 170.32452 
L 403.275184 166.409808 
L 403.960688 171.552665 
L 404.646192 177.539872 
L 405.331695 178.077186 
L 406.017199 172.857569 
L 407.388206 169.940725 
L 408.07371 162.725373 
L 408.759214 162.111301 
L 409.444717 167.637953 
L 410.130221 170.017484 
L 410.815725 168.405544 
L 411.501229 170.094243 
L 412.186732 176.234968 
L 412.872236 174.008955 
L 413.55774 175.544136 
L 414.243243 177.386354 
L 414.928747 179.842644 
L 415.614251 175.083582 
L 416.299754 174.930064 
L 417.670762 192.891684 
L 418.356265 191.049467 
L 419.041769 194.810661 
L 419.727273 195.347974 
L 420.412776 192.584648 
L 421.09828 192.507889 
L 421.783784 203.10064 
L 422.469287 209.778678 
L 423.154791 214.691258 
L 423.840295 221.215778 
L 424.525799 223.134755 
L 425.211302 223.672068 
L 425.896806 223.288273 
L 426.58231 226.588913 
L 427.267813 233.34371 
L 427.953317 237.335181 
L 428.638821 242.401279 
L 429.324324 243.322388 
L 430.009828 242.631557 
L 430.695332 247.006823 
L 431.380835 248.849041 
L 432.066339 253.83838 
L 432.751843 255.066525 
L 433.437346 257.369296 
L 434.808354 257.983369 
L 435.493857 260.593177 
L 436.179361 267.194456 
L 438.235872 276.942857 
L 439.60688 275.791471 
L 440.292383 277.55693 
L 440.977887 279.782942 
L 441.663391 281.241365 
L 442.348894 283.697655 
L 444.405405 285.309595 
L 445.090909 286.614499 
L 446.461916 289.915139 
L 447.832924 292.678465 
L 448.518428 292.21791 
L 449.203931 293.369296 
L 449.889435 293.90661 
L 450.574939 294.981237 
L 451.260442 295.672068 
L 451.945946 297.13049 
L 452.63145 298.051599 
L 453.316953 298.205117 
L 454.002457 298.205117 
L 454.687961 299.510021 
L 455.373464 300.047335 
L 456.058968 299.740299 
L 456.744472 298.665672 
L 457.429975 298.435394 
L 458.115479 298.81919 
L 458.800983 297.97484 
L 459.486486 297.97484 
L 460.17199 297.284009 
L 460.857494 295.748827 
L 461.542998 293.292537 
L 462.228501 291.987633 
L 462.914005 289.83838 
L 464.285012 283.697655 
L 464.285012 283.697655 
" style="fill:none;stroke:#ffa500;stroke-linecap:square;stroke-width:1.5;"/>
   </g>
   <g id="line2d_35">
    <path clip-path="url(#pc58b8bd266)" d="M 150.324324 280.550533 
L 151.009828 281.394883 
L 151.695332 281.471642 
L 152.380835 277.326652 
L 153.066339 277.55693 
L 153.751843 278.017484 
L 154.437346 278.094243 
L 155.12285 278.32452 
L 155.808354 277.55693 
L 156.493857 279.706183 
L 157.864865 274.793603 
L 158.550369 274.716844 
L 159.235872 275.177399 
L 159.921376 275.791471 
L 160.60688 278.554797 
L 161.292383 278.938593 
L 161.977887 277.633689 
L 162.663391 277.403412 
L 163.348894 274.102772 
L 164.034398 276.098507 
L 164.719902 273.335181 
L 166.090909 278.094243 
L 166.776413 272.414072 
L 167.461916 271.492964 
L 168.14742 269.727505 
L 168.832924 267.424733 
L 169.518428 267.808529 
L 170.203931 270.878891 
L 170.889435 271.262687 
L 171.574939 267.73177 
L 172.260442 267.424733 
L 172.945946 266.350107 
L 173.63145 270.95565 
L 174.316953 269.113433 
L 175.687961 270.034542 
L 176.373464 269.573987 
L 177.058968 267.808529 
L 177.744472 264.968443 
L 178.429975 265.736034 
L 179.115479 267.117697 
L 179.800983 269.420469 
L 181.17199 271.339446 
L 181.857494 268.422601 
L 182.542998 264.354371 
L 183.228501 266.196588 
L 183.914005 265.736034 
L 184.599509 269.34371 
L 185.285012 266.964179 
L 185.970516 267.885288 
L 186.65602 266.810661 
L 187.341523 266.119829 
L 188.712531 263.970576 
L 189.398034 268.269083 
L 190.083538 267.962047 
L 190.769042 264.124094 
L 191.454545 263.202985 
L 192.140049 264.277612 
L 192.825553 262.435394 
L 193.511057 261.667804 
L 194.19656 263.893817 
L 194.882064 268.576119 
L 195.567568 263.663539 
L 196.253071 264.507889 
L 196.938575 263.433262 
L 197.624079 263.049467 
L 198.309582 263.893817 
L 198.995086 266.350107 
L 199.68059 267.424733 
L 200.366093 264.968443 
L 201.737101 262.895949 
L 202.422604 262.81919 
L 203.108108 263.817058 
L 203.793612 266.196588 
L 204.479115 266.580384 
L 205.164619 266.657143 
L 205.850123 263.663539 
L 206.535627 262.895949 
L 207.22113 264.200853 
L 207.906634 264.738166 
L 208.592138 266.04307 
L 209.277641 267.885288 
L 209.963145 266.350107 
L 210.648649 263.893817 
L 211.334152 263.510021 
L 212.019656 263.510021 
L 212.70516 262.895949 
L 213.390663 264.277612 
L 214.076167 264.354371 
L 215.447174 262.358635 
L 216.132678 263.126226 
L 216.818182 262.435394 
L 217.503686 262.128358 
L 218.189189 264.277612 
L 218.874693 268.269083 
L 219.560197 266.580384 
L 220.2457 265.812793 
L 220.931204 264.584648 
L 221.616708 263.893817 
L 222.302211 264.277612 
L 222.987715 265.505757 
L 223.673219 266.503625 
L 224.358722 264.584648 
L 225.044226 263.049467 
L 225.72973 261.97484 
L 226.415233 264.584648 
L 227.100737 263.663539 
L 227.786241 266.04307 
L 228.471744 264.047335 
L 229.157248 263.126226 
L 229.842752 260.823454 
L 230.528256 260.900213 
L 231.213759 263.510021 
L 231.899263 263.126226 
L 232.584767 263.510021 
L 233.27027 264.507889 
L 233.955774 261.514286 
L 234.641278 260.439659 
L 235.326781 262.281876 
L 236.012285 261.591045 
L 236.697789 262.512154 
L 237.383292 264.507889 
L 238.068796 265.505757 
L 238.7543 261.744563 
L 239.439803 260.132623 
L 240.125307 260.823454 
L 240.810811 261.284009 
L 241.496314 263.58678 
L 242.181818 265.045203 
L 242.867322 265.659275 
L 243.552826 262.665672 
L 244.238329 260.516418 
L 244.923833 262.435394 
L 245.609337 261.514286 
L 246.29484 262.051599 
L 247.665848 265.505757 
L 248.351351 259.365032 
L 249.036855 260.593177 
L 249.722359 261.360768 
L 250.407862 261.13049 
L 251.093366 262.128358 
L 251.77887 263.970576 
L 252.464373 264.738166 
L 253.149877 260.209382 
L 253.835381 258.290405 
L 254.520885 259.057996 
L 255.206388 260.669936 
L 257.262899 266.810661 
L 257.948403 259.748827 
L 258.633907 259.134755 
L 259.31941 259.057996 
L 260.004914 262.742431 
L 260.690418 261.821322 
L 261.375921 264.968443 
L 262.061425 267.271215 
L 262.746929 262.81919 
L 264.117936 260.976972 
L 264.80344 262.281876 
L 265.488943 264.047335 
L 266.174447 266.733902 
L 266.859951 268.269083 
L 267.545455 263.663539 
L 268.230958 263.356503 
L 268.916462 264.661407 
L 269.601966 264.584648 
L 270.287469 267.962047 
L 270.972973 270.341578 
L 271.658477 269.957783 
L 272.34398 266.273348 
L 273.029484 267.424733 
L 273.714988 269.266951 
L 274.400491 267.655011 
L 275.771499 272.567591 
L 276.457002 273.718977 
L 277.142506 271.032409 
L 277.82801 272.874627 
L 278.513514 272.567591 
L 279.199017 271.339446 
L 279.884521 274.793603 
L 280.570025 275.714712 
L 281.255528 274.793603 
L 281.941032 272.874627 
L 282.626536 272.414072 
L 283.312039 271.8 
L 283.997543 273.565458 
L 284.683047 273.181663 
L 285.36855 273.642217 
L 286.054054 276.021748 
L 286.739558 273.41194 
L 287.425061 271.416205 
L 288.796069 271.262687 
L 289.481572 272.107036 
L 290.167076 274.793603 
L 290.85258 273.795736 
L 291.538084 270.495096 
L 292.223587 271.032409 
L 292.909091 269.804264 
L 293.594595 270.648614 
L 294.280098 272.797868 
L 294.965602 274.333049 
L 295.651106 272.337313 
L 296.336609 271.569723 
L 297.707617 269.420469 
L 298.39312 269.804264 
L 299.078624 271.416205 
L 299.764128 273.565458 
L 300.449631 273.258422 
L 301.135135 270.18806 
L 301.820639 268.345842 
L 302.506143 268.269083 
L 303.191646 268.49936 
L 304.562654 273.335181 
L 305.248157 271.416205 
L 305.933661 269.036674 
L 307.304668 265.121962 
L 307.990172 265.659275 
L 308.675676 268.269083 
L 309.361179 269.34371 
L 310.046683 269.420469 
L 310.732187 265.428998 
L 311.41769 265.505757 
L 312.103194 266.964179 
L 312.788698 265.889552 
L 314.159705 271.185928 
L 314.845209 267.73177 
L 315.530713 267.194456 
L 316.216216 266.119829 
L 316.90172 268.959915 
L 317.587224 269.727505 
L 318.272727 270.802132 
L 318.958231 274.793603 
L 319.643735 274.947122 
L 320.329238 271.876759 
L 321.014742 274.179531 
L 321.700246 274.409808 
L 322.385749 275.86823 
L 323.071253 279.322388 
L 323.756757 278.171002 
L 324.44226 279.475906 
L 325.127764 275.944989 
L 325.813268 275.484435 
L 326.498771 276.405544 
L 327.184275 278.017484 
L 327.869779 278.785075 
L 328.555283 280.243497 
L 329.92629 277.480171 
L 330.611794 274.486567 
L 331.297297 275.637953 
L 331.982801 275.177399 
L 332.668305 275.637953 
L 333.353808 278.785075 
L 334.039312 278.478038 
L 334.724816 275.86823 
L 335.410319 275.944989 
L 336.095823 273.104904 
L 336.781327 273.181663 
L 337.46683 274.026013 
L 338.152334 277.710448 
L 338.837838 277.326652 
L 339.523342 273.795736 
L 340.208845 273.565458 
L 340.894349 272.567591 
L 341.579853 272.874627 
L 342.265356 272.64435 
L 342.95086 275.944989 
L 343.636364 275.944989 
L 344.321867 272.107036 
L 345.007371 270.111301 
L 345.692875 269.881023 
L 346.378378 272.721109 
L 347.063882 271.723241 
L 347.749386 273.028145 
L 348.434889 275.177399 
L 349.120393 271.723241 
L 350.4914 270.571855 
L 351.176904 270.264819 
L 351.862408 270.418337 
L 352.547912 272.414072 
L 353.233415 272.951386 
L 353.918919 272.951386 
L 354.604423 268.652878 
L 355.289926 268.192324 
L 355.97543 269.113433 
L 356.660934 267.808529 
L 357.346437 271.8 
L 358.717445 267.347974 
L 359.402948 268.269083 
L 360.088452 268.652878 
L 360.773956 268.345842 
L 361.459459 269.34371 
L 362.144963 272.490832 
L 362.830467 274.179531 
L 363.515971 271.032409 
L 364.201474 268.883156 
L 364.886978 269.573987 
L 365.572482 270.034542 
L 366.257985 271.8 
L 366.943489 277.096375 
L 367.628993 274.563326 
L 368.314496 272.567591 
L 369 272.951386 
L 369.685504 270.648614 
L 370.371007 270.18806 
L 371.056511 271.032409 
L 371.742015 274.793603 
L 372.427518 272.797868 
L 373.113022 269.650746 
L 373.798526 270.95565 
L 374.484029 270.341578 
L 375.169533 269.420469 
L 375.855037 271.109168 
L 376.540541 275.023881 
L 377.226044 274.026013 
L 377.911548 271.569723 
L 378.597052 270.18806 
L 379.282555 271.262687 
L 379.968059 271.032409 
L 380.653563 272.874627 
L 381.339066 276.559062 
L 382.710074 271.416205 
L 383.395577 270.802132 
L 384.766585 272.567591 
L 385.452088 273.181663 
L 386.137592 277.019616 
L 386.823096 274.793603 
L 387.5086 273.104904 
L 388.194103 274.179531 
L 388.879607 274.640085 
L 390.250614 276.635821 
L 390.936118 279.706183 
L 391.621622 279.552665 
L 392.307125 278.171002 
L 392.992629 274.947122 
L 393.678133 274.486567 
L 394.363636 275.561194 
L 395.04914 276.866098 
L 395.734644 279.092111 
L 396.420147 278.171002 
L 397.105651 273.028145 
L 397.791155 274.870362 
L 398.476658 275.561194 
L 399.162162 275.177399 
L 399.847666 276.175267 
L 400.53317 278.938593 
L 401.218673 277.633689 
L 401.904177 275.254158 
L 402.589681 275.023881 
L 403.275184 275.714712 
L 403.960688 274.026013 
L 405.331695 278.631557 
L 406.017199 276.866098 
L 406.702703 275.637953 
L 407.388206 276.71258 
L 408.07371 274.102772 
L 409.444717 276.942857 
L 410.130221 279.782942 
L 410.815725 279.782942 
L 411.501229 276.559062 
L 412.186732 276.71258 
L 412.872236 276.482303 
L 413.55774 276.942857 
L 414.243243 276.71258 
L 415.614251 278.32452 
L 416.299754 273.795736 
L 416.985258 271.262687 
L 417.670762 275.484435 
L 418.356265 276.098507 
L 419.041769 273.949254 
L 419.727273 274.947122 
L 420.412776 275.10064 
L 421.09828 271.339446 
L 421.783784 271.109168 
L 422.469287 270.571855 
L 423.154791 271.416205 
L 424.525799 276.098507 
L 425.211302 275.944989 
L 425.896806 274.026013 
L 426.58231 268.959915 
L 427.267813 267.885288 
L 427.953317 266.196588 
L 428.638821 267.808529 
L 429.324324 271.109168 
L 430.695332 268.729638 
L 431.380835 268.115565 
L 432.066339 266.350107 
L 432.751843 265.352239 
L 433.437346 267.117697 
L 434.12285 269.266951 
L 434.808354 271.953518 
L 435.493857 268.269083 
L 436.179361 267.117697 
L 436.864865 265.352239 
L 437.550369 264.507889 
L 438.235872 266.350107 
L 438.921376 267.501493 
L 439.60688 267.655011 
L 440.292383 266.350107 
L 440.977887 261.667804 
L 441.663391 263.356503 
L 442.348894 264.507889 
L 444.405405 266.350107 
L 445.090909 263.893817 
L 445.776413 263.510021 
L 446.461916 264.047335 
L 447.14742 261.898081 
L 448.518428 265.659275 
L 449.203931 268.269083 
L 449.889435 263.58678 
L 450.574939 262.895949 
L 451.260442 263.817058 
L 451.945946 263.58678 
L 452.63145 264.584648 
L 453.316953 266.88742 
L 454.002457 263.740299 
L 454.687961 263.126226 
L 455.373464 261.284009 
L 456.058968 261.360768 
L 456.744472 262.051599 
L 457.429975 260.746695 
L 458.115479 264.814925 
L 458.800983 266.810661 
L 459.486486 263.049467 
L 460.17199 262.512154 
L 460.857494 260.823454 
L 461.542998 262.051599 
L 462.228501 263.970576 
L 462.914005 266.810661 
L 463.599509 267.424733 
L 464.285012 266.196588 
L 464.285012 266.196588 
" style="fill:none;stroke:#0000ff;stroke-linecap:square;stroke-width:1.5;"/>
   </g>
   <g id="line2d_36">
    <path clip-path="url(#pc58b8bd266)" d="M 115.363636 307.339446 
L 118.791155 306.95565 
L 119.476658 306.725373 
L 120.162162 306.725373 
L 120.847666 306.418337 
L 121.53317 306.264819 
L 123.589681 304.883156 
L 124.275184 304.192324 
L 124.960688 302.657143 
L 125.646192 301.812793 
L 126.331695 300.507889 
L 127.017199 298.665672 
L 128.388206 294.136887 
L 129.07371 290.375693 
L 129.759214 285.846908 
L 131.130221 274.870362 
L 131.815725 271.032409 
L 134.55774 243.552665 
L 135.243243 236.721109 
L 135.928747 231.73177 
L 136.614251 228.200853 
L 137.299754 221.446055 
L 137.985258 216.456716 
L 138.670762 215.151812 
L 139.356265 212.004691 
L 140.041769 209.932196 
L 140.727273 203.484435 
L 142.09828 199.723241 
L 142.783784 198.571855 
L 143.469287 199.8 
L 144.154791 199.109168 
L 144.840295 201.642217 
L 145.525799 201.104904 
L 146.211302 203.637953 
L 146.896806 205.173134 
L 147.58231 207.859701 
L 149.638821 213.079318 
L 150.324324 215.689126 
L 151.009828 217.608102 
L 151.695332 218.989765 
L 152.380835 224.439659 
L 153.751843 230.503625 
L 154.437346 233.957783 
L 155.12285 234.264819 
L 156.493857 238.409808 
L 157.179361 241.787207 
L 157.864865 246.162473 
L 158.550369 247.774414 
L 159.235872 251.458849 
L 159.921376 253.531343 
L 160.60688 255.066525 
L 161.292383 255.45032 
L 161.977887 258.443923 
L 162.663391 259.672068 
L 163.348894 263.049467 
L 164.719902 266.350107 
L 165.405405 268.959915 
L 166.090909 269.650746 
L 167.461916 274.716844 
L 168.14742 276.405544 
L 169.518428 281.318124 
L 170.203931 281.087846 
L 172.260442 286.768017 
L 172.945946 288.303198 
L 173.63145 288.533475 
L 174.316953 290.452452 
L 175.002457 290.759488 
L 175.687961 290.759488 
L 176.373464 293.446055 
L 177.058968 293.369296 
L 177.744472 293.90661 
L 178.429975 294.060128 
L 179.800983 295.672068 
L 180.486486 295.748827 
L 181.17199 296.055864 
L 181.857494 298.972708 
L 182.542998 299.202985 
L 183.228501 300.43113 
L 184.599509 300.507889 
L 185.285012 300.814925 
L 185.970516 300.891684 
L 186.65602 301.736034 
L 188.027027 302.273348 
L 188.712531 301.966311 
L 189.398034 301.812793 
L 190.083538 301.198721 
L 190.769042 301.889552 
L 192.140049 302.733902 
L 192.825553 303.501493 
L 193.511057 303.501493 
L 194.19656 303.655011 
L 194.882064 303.347974 
L 195.567568 304.192324 
L 196.938575 304.115565 
L 198.309582 305.650746 
L 199.68059 305.420469 
L 200.366093 305.650746 
L 201.051597 305.727505 
L 201.737101 305.957783 
L 202.422604 306.341578 
L 203.108108 306.495096 
L 203.793612 306.495096 
L 204.479115 306.111301 
L 205.164619 306.034542 
L 205.850123 306.341578 
L 206.535627 306.264819 
L 207.22113 305.957783 
L 207.906634 305.881023 
L 208.592138 306.034542 
L 209.277641 306.034542 
L 209.963145 306.264819 
L 210.648649 306.341578 
L 211.334152 306.725373 
L 212.70516 306.648614 
L 213.390663 306.571855 
L 214.761671 306.725373 
L 215.447174 306.571855 
L 216.132678 306.725373 
L 217.503686 306.495096 
L 218.189189 306.648614 
L 218.874693 306.264819 
L 220.931204 306.802132 
L 221.616708 306.418337 
L 222.302211 306.18806 
L 222.987715 306.264819 
L 223.673219 305.804264 
L 224.358722 305.881023 
L 225.044226 305.573987 
L 227.100737 305.727505 
L 227.786241 305.497228 
L 228.471744 305.650746 
L 229.157248 305.573987 
L 229.842752 305.190192 
L 230.528256 305.497228 
L 231.213759 304.959915 
L 231.899263 304.883156 
L 232.584767 305.113433 
L 233.955774 304.652878 
L 235.326781 304.883156 
L 236.012285 304.576119 
L 240.125307 305.113433 
L 240.810811 305.266951 
L 242.181818 305.34371 
L 242.867322 304.959915 
L 243.552826 305.34371 
L 244.238329 305.420469 
L 244.923833 305.727505 
L 245.609337 305.190192 
L 246.29484 305.190192 
L 248.351351 305.573987 
L 249.036855 305.497228 
L 249.722359 305.573987 
L 250.407862 305.113433 
L 251.093366 305.036674 
L 251.77887 305.113433 
L 252.464373 304.576119 
L 253.149877 303.808529 
L 253.835381 303.73177 
L 254.520885 304.115565 
L 257.262899 301.352239 
L 257.948403 300.891684 
L 258.633907 299.893817 
L 259.31941 299.740299 
L 260.004914 298.972708 
L 261.375921 298.128358 
L 262.061425 296.976972 
L 262.746929 296.976972 
L 263.432432 296.3629 
L 264.117936 296.209382 
L 264.80344 295.595309 
L 265.488943 295.902345 
L 266.174447 295.365032 
L 267.545455 293.292537 
L 268.916462 290.375693 
L 269.601966 289.531343 
L 270.287469 289.83838 
L 270.972973 288.917271 
L 271.658477 288.533475 
L 273.029484 284.772281 
L 273.714988 283.851173 
L 274.400491 281.394883 
L 275.085995 280.857569 
L 275.771499 279.936461 
L 276.457002 278.785075 
L 277.142506 275.714712 
L 277.82801 273.335181 
L 278.513514 272.337313 
L 279.199017 271.646482 
L 279.884521 269.420469 
L 280.570025 270.264819 
L 281.255528 269.036674 
L 281.941032 267.271215 
L 282.626536 266.04307 
L 283.312039 265.428998 
L 283.997543 264.354371 
L 284.683047 263.049467 
L 285.36855 263.126226 
L 286.054054 262.81919 
L 286.739558 261.13049 
L 287.425061 260.900213 
L 288.796069 261.591045 
L 289.481572 261.667804 
L 290.167076 261.97484 
L 290.85258 261.821322 
L 291.538084 261.97484 
L 292.223587 261.360768 
L 292.909091 262.205117 
L 293.594595 261.13049 
L 294.280098 262.205117 
L 294.965602 262.895949 
L 295.651106 263.893817 
L 296.336609 263.663539 
L 297.022113 264.968443 
L 297.707617 265.27548 
L 298.39312 265.889552 
L 299.078624 265.659275 
L 299.764128 266.426866 
L 300.449631 266.733902 
L 301.135135 267.501493 
L 301.820639 267.271215 
L 303.191646 268.115565 
L 303.87715 268.652878 
L 304.562654 269.036674 
L 305.248157 270.95565 
L 306.619165 271.416205 
L 307.304668 272.721109 
L 307.990172 271.569723 
L 308.675676 271.646482 
L 309.361179 271.876759 
L 310.046683 271.8 
L 310.732187 272.260554 
L 311.41769 271.569723 
L 312.103194 271.876759 
L 312.788698 271.646482 
L 313.474201 270.95565 
L 314.159705 269.727505 
L 314.845209 269.266951 
L 315.530713 267.655011 
L 316.216216 267.501493 
L 316.90172 266.733902 
L 318.272727 264.891684 
L 318.958231 263.356503 
L 319.643735 262.895949 
L 320.329238 262.895949 
L 321.014742 261.207249 
L 321.700246 262.128358 
L 322.385749 261.821322 
L 323.756757 259.441791 
L 325.813268 253.224307 
L 326.498771 252.303198 
L 327.184275 253.915139 
L 327.869779 254.298934 
L 328.555283 253.83838 
L 329.240786 252.99403 
L 329.92629 251.765885 
L 330.611794 253.83838 
L 331.297297 253.224307 
L 331.982801 253.531343 
L 332.668305 254.145416 
L 333.353808 253.301066 
L 334.724816 254.529211 
L 335.410319 254.145416 
L 336.095823 254.682729 
L 336.781327 254.913006 
L 337.46683 256.371429 
L 338.152334 255.987633 
L 338.837838 254.913006 
L 339.523342 255.45032 
L 340.208845 255.757356 
L 342.265356 256.21791 
L 342.95086 255.680597 
L 343.636364 256.908742 
L 344.321867 256.141151 
L 345.007371 257.90661 
L 345.692875 258.367164 
L 346.378378 257.292537 
L 347.063882 258.750959 
L 347.749386 258.290405 
L 348.434889 258.827719 
L 349.120393 259.595309 
L 349.805897 260.823454 
L 350.4914 261.667804 
L 351.862408 265.889552 
L 352.547912 266.810661 
L 353.918919 265.659275 
L 354.604423 266.964179 
L 355.289926 266.657143 
L 355.97543 266.88742 
L 356.660934 266.580384 
L 357.346437 267.194456 
L 358.031941 266.733902 
L 358.717445 267.501493 
L 359.402948 267.962047 
L 360.088452 267.73177 
L 360.773956 268.729638 
L 362.144963 266.88742 
L 362.830467 264.814925 
L 363.515971 266.580384 
L 364.201474 266.964179 
L 364.886978 267.501493 
L 365.572482 267.578252 
L 366.257985 268.115565 
L 366.943489 267.501493 
L 367.628993 266.733902 
L 368.314496 266.426866 
L 369 265.736034 
L 369.685504 266.503625 
L 371.742015 266.04307 
L 372.427518 265.045203 
L 373.113022 265.198721 
L 373.798526 264.891684 
L 374.484029 263.970576 
L 375.169533 263.663539 
L 375.855037 265.352239 
L 376.540541 265.352239 
L 377.226044 264.584648 
L 377.911548 262.895949 
L 378.597052 264.277612 
L 379.282555 264.584648 
L 379.968059 263.433262 
L 380.653563 261.667804 
L 381.339066 260.976972 
L 382.02457 258.904478 
L 382.710074 260.055864 
L 383.395577 259.902345 
L 384.081081 260.3629 
L 384.766585 259.902345 
L 385.452088 258.520682 
L 386.137592 257.599574 
L 386.823096 256.064392 
L 387.5086 255.527079 
L 388.194103 255.603838 
L 388.879607 255.066525 
L 389.565111 253.76162 
L 390.250614 251.535608 
L 390.936118 251.842644 
L 391.621622 250.614499 
L 392.307125 250.307463 
L 393.678133 246.623028 
L 394.363636 247.697655 
L 395.04914 247.467377 
L 395.734644 247.390618 
L 396.420147 246.930064 
L 397.105651 246.930064 
L 397.791155 247.697655 
L 398.476658 247.313859 
L 399.162162 247.083582 
L 399.847666 246.315991 
L 401.218673 245.471642 
L 401.904177 244.704051 
L 402.589681 244.78081 
L 403.275184 243.475906 
L 403.960688 243.629424 
L 404.646192 245.241365 
L 405.331695 243.322388 
L 406.017199 245.471642 
L 406.702703 244.934328 
L 407.388206 245.394883 
L 408.07371 245.471642 
L 408.759214 245.932196 
L 409.444717 245.62516 
L 410.130221 246.162473 
L 410.815725 244.550533 
L 411.501229 245.087846 
L 412.186732 244.166738 
L 412.872236 245.932196 
L 413.55774 246.699787 
L 414.243243 248.158209 
L 415.614251 249.770149 
L 416.985258 251.228571 
L 418.356265 251.996162 
L 419.041769 253.377825 
L 419.727273 255.220043 
L 420.412776 255.603838 
L 421.09828 258.290405 
L 421.783784 258.981237 
L 422.469287 260.209382 
L 423.154791 261.207249 
L 423.840295 261.667804 
L 424.525799 261.053731 
L 425.211302 261.97484 
L 427.953317 267.885288 
L 428.638821 269.573987 
L 429.324324 270.571855 
L 430.009828 271.262687 
L 431.380835 275.637953 
L 432.066339 277.633689 
L 432.751843 278.938593 
L 433.437346 280.934328 
L 434.12285 281.471642 
L 434.808354 281.548401 
L 435.493857 283.2371 
L 436.179361 284.542004 
L 436.864865 285.079318 
L 437.550369 286.307463 
L 438.235872 287.228571 
L 438.921376 287.535608 
L 439.60688 287.689126 
L 441.663391 290.529211 
L 442.348894 291.143284 
L 444.405405 292.755224 
L 445.090909 293.676333 
L 445.776413 294.827719 
L 447.14742 296.593177 
L 447.832924 297.053731 
L 449.203931 296.976972 
L 449.889435 298.128358 
L 450.574939 298.051599 
L 452.63145 300.047335 
L 453.316953 300.277612 
L 454.002457 299.433262 
L 454.687961 299.970576 
L 455.373464 299.893817 
L 456.058968 300.968443 
L 457.429975 301.582516 
L 458.115479 301.121962 
L 458.800983 301.428998 
L 459.486486 302.119829 
L 460.857494 302.350107 
L 462.228501 301.966311 
L 462.914005 302.04307 
L 463.599509 301.428998 
L 464.285012 300.200853 
L 464.285012 300.200853 
" style="fill:none;stroke:#00ffff;stroke-linecap:square;stroke-width:1.5;"/>
   </g>
   <g id="patch_3">
    <path d="M 90 320.4 
L 90 43.2 
" style="fill:none;stroke:#000000;stroke-linecap:square;stroke-linejoin:miter;stroke-width:0.8;"/>
   </g>
   <g id="patch_4">
    <path d="M 648 320.4 
L 648 43.2 
" style="fill:none;stroke:#000000;stroke-linecap:square;stroke-linejoin:miter;stroke-width:0.8;"/>
   </g>
   <g id="patch_5">
    <path d="M 90 320.4 
L 648 320.4 
" style="fill:none;stroke:#000000;stroke-linecap:square;stroke-linejoin:miter;stroke-width:0.8;"/>
   </g>
   <g id="patch_6">
    <path d="M 90 43.2 
L 648 43.2 
" style="fill:none;stroke:#000000;stroke-linecap:square;stroke-linejoin:miter;stroke-width:0.8;"/>
   </g>
   <g id="text_18">
    <!-- Testplot -->
    <g transform="translate(345.68625 37.2)scale(0.12 -0.12)">
     <defs>
      <path d="M -0.296875 72.90625 
L 61.375 72.90625 
L 61.375 64.59375 
L 35.5 64.59375 
L 35.5 0 
L 25.59375 0 
L 25.59375 64.59375 
L -0.296875 64.59375 
z
" id="DejaVuSans-84"/>
      <path d="M 56.203125 29.59375 
L 56.203125 25.203125 
L 14.890625 25.203125 
Q 15.484375 15.921875 20.484375 11.0625 
Q 25.484375 6.203125 34.421875 6.203125 
Q 39.59375 6.203125 44.453125 7.46875 
Q 49.3125 8.734375 54.109375 11.28125 
L 54.109375 2.78125 
Q 49.265625 0.734375 44.1875 -0.34375 
Q 39.109375 -1.421875 33.890625 -1.421875 
Q 20.796875 -1.421875 13.15625 6.1875 
Q 5.515625 13.8125 5.515625 26.8125 
Q 5.515625 40.234375 12.765625 48.109375 
Q 20.015625 56 32.328125 56 
Q 43.359375 56 49.78125 48.890625 
Q 56.203125 41.796875 56.203125 29.59375 
z
M 47.21875 32.234375 
Q 47.125 39.59375 43.09375 43.984375 
Q 39.0625 48.390625 32.421875 48.390625 
Q 24.90625 48.390625 20.390625 44.140625 
Q 15.875 39.890625 15.1875 32.171875 
z
" id="DejaVuSans-101"/>
      <path d="M 44.28125 53.078125 
L 44.28125 44.578125 
Q 40.484375 46.53125 36.375 47.5 
Q 32.28125 48.484375 27.875 48.484375 
Q 21.1875 48.484375 17.84375 46.4375 
Q 14.5 44.390625 14.5 40.28125 
Q 14.5 37.15625 16.890625 35.375 
Q 19.28125 33.59375 26.515625 31.984375 
L 29.59375 31.296875 
Q 39.15625 29.25 43.1875 25.515625 
Q 47.21875 21.78125 47.21875 15.09375 
Q 47.21875 7.46875 41.1875 3.015625 
Q 35.15625 -1.421875 24.609375 -1.421875 
Q 20.21875 -1.421875 15.453125 -0.5625 
Q 10.6875 0.296875 5.421875 2 
L 5.421875 11.28125 
Q 10.40625 8.6875 15.234375 7.390625 
Q 20.0625 6.109375 24.8125 6.109375 
Q 31.15625 6.109375 34.5625 8.28125 
Q 37.984375 10.453125 37.984375 14.40625 
Q 37.984375 18.0625 35.515625 20.015625 
Q 33.0625 21.96875 24.703125 23.78125 
L 21.578125 24.515625 
Q 13.234375 26.265625 9.515625 29.90625 
Q 5.8125 33.546875 5.8125 39.890625 
Q 5.8125 47.609375 11.28125 51.796875 
Q 16.75 56 26.8125 56 
Q 31.78125 56 36.171875 55.265625 
Q 40.578125 54.546875 44.28125 53.078125 
z
" id="DejaVuSans-115"/>
      <path d="M 18.109375 8.203125 
L 18.109375 -20.796875 
L 9.078125 -20.796875 
L 9.078125 54.6875 
L 18.109375 54.6875 
L 18.109375 46.390625 
Q 20.953125 51.265625 25.265625 53.625 
Q 29.59375 56 35.59375 56 
Q 45.5625 56 51.78125 48.09375 
Q 58.015625 40.1875 58.015625 27.296875 
Q 58.015625 14.40625 51.78125 6.484375 
Q 45.5625 -1.421875 35.59375 -1.421875 
Q 29.59375 -1.421875 25.265625 0.953125 
Q 20.953125 3.328125 18.109375 8.203125 
z
M 48.6875 27.296875 
Q 48.6875 37.203125 44.609375 42.84375 
Q 40.53125 48.484375 33.40625 48.484375 
Q 26.265625 48.484375 22.1875 42.84375 
Q 18.109375 37.203125 18.109375 27.296875 
Q 18.109375 17.390625 22.1875 11.75 
Q 26.265625 6.109375 33.40625 6.109375 
Q 40.53125 6.109375 44.609375 11.75 
Q 48.6875 17.390625 48.6875 27.296875 
z
" id="DejaVuSans-112"/>
      <path d="M 9.421875 75.984375 
L 18.40625 75.984375 
L 18.40625 0 
L 9.421875 0 
z
" id="DejaVuSans-108"/>
      <path d="M 30.609375 48.390625 
Q 23.390625 48.390625 19.1875 42.75 
Q 14.984375 37.109375 14.984375 27.296875 
Q 14.984375 17.484375 19.15625 11.84375 
Q 23.34375 6.203125 30.609375 6.203125 
Q 37.796875 6.203125 41.984375 11.859375 
Q 46.1875 17.53125 46.1875 27.296875 
Q 46.1875 37.015625 41.984375 42.703125 
Q 37.796875 48.390625 30.609375 48.390625 
z
M 30.609375 56 
Q 42.328125 56 49.015625 48.375 
Q 55.71875 40.765625 55.71875 27.296875 
Q 55.71875 13.875 49.015625 6.21875 
Q 42.328125 -1.421875 30.609375 -1.421875 
Q 18.84375 -1.421875 12.171875 6.21875 
Q 5.515625 13.875 5.515625 27.296875 
Q 5.515625 40.765625 12.171875 48.375 
Q 18.84375 56 30.609375 56 
z
" id="DejaVuSans-111"/>
     </defs>
     <use xlink:href="#DejaVuSans-84"/>
     <use x="44.083984" xlink:href="#DejaVuSans-101"/>
     <use x="105.607422" xlink:href="#DejaVuSans-115"/>
     <use x="157.707031" xlink:href="#DejaVuSans-116"/>
     <use x="196.916016" xlink:href="#DejaVuSans-112"/>
     <use x="260.392578" xlink:href="#DejaVuSans-108"/>
     <use x="288.175781" xlink:href="#DejaVuSans-111"/>
     <use x="349.357422" xlink:href="#DejaVuSans-116"/>
    </g>
   </g>
   <g id="legend_1">
    <g id="patch_7">
     <path d="M 97 109.9125 
L 348.946875 109.9125 
Q 350.946875 109.9125 350.946875 107.9125 
L 350.946875 50.2 
Q 350.946875 48.2 348.946875 48.2 
L 97 48.2 
Q 95 48.2 95 50.2 
L 95 107.9125 
Q 95 109.9125 97 109.9125 
z
" style="fill:#ffffff;opacity:0.8;stroke:#cccccc;stroke-linejoin:miter;"/>
    </g>
    <g id="line2d_37">
     <path d="M 99 56.298437 
L 119 56.298437 
" style="fill:none;stroke:#ff0000;stroke-linecap:square;stroke-width:1.5;"/>
    </g>
    <g id="line2d_38"/>
    <g id="text_19">
     <!-- covid opgenomen patinten NICE (nu 1523) -->
     <g transform="translate(127 59.798437)scale(0.1 -0.1)">
      <defs>
       <path d="M 48.78125 52.59375 
L 48.78125 44.1875 
Q 44.96875 46.296875 41.140625 47.34375 
Q 37.3125 48.390625 33.40625 48.390625 
Q 24.65625 48.390625 19.8125 42.84375 
Q 14.984375 37.3125 14.984375 27.296875 
Q 14.984375 17.28125 19.8125 11.734375 
Q 24.65625 6.203125 33.40625 6.203125 
Q 37.3125 6.203125 41.140625 7.25 
Q 44.96875 8.296875 48.78125 10.40625 
L 48.78125 2.09375 
Q 45.015625 0.34375 40.984375 -0.53125 
Q 36.96875 -1.421875 32.421875 -1.421875 
Q 20.0625 -1.421875 12.78125 6.34375 
Q 5.515625 14.109375 5.515625 27.296875 
Q 5.515625 40.671875 12.859375 48.328125 
Q 20.21875 56 33.015625 56 
Q 37.15625 56 41.109375 55.140625 
Q 45.0625 54.296875 48.78125 52.59375 
z
" id="DejaVuSans-99"/>
       <path d="M 2.984375 54.6875 
L 12.5 54.6875 
L 29.59375 8.796875 
L 46.6875 54.6875 
L 56.203125 54.6875 
L 35.6875 0 
L 23.484375 0 
z
" id="DejaVuSans-118"/>
       <path d="M 9.421875 54.6875 
L 18.40625 54.6875 
L 18.40625 0 
L 9.421875 0 
z
M 9.421875 75.984375 
L 18.40625 75.984375 
L 18.40625 64.59375 
L 9.421875 64.59375 
z
" id="DejaVuSans-105"/>
       <path d="M 45.40625 46.390625 
L 45.40625 75.984375 
L 54.390625 75.984375 
L 54.390625 0 
L 45.40625 0 
L 45.40625 8.203125 
Q 42.578125 3.328125 38.25 0.953125 
Q 33.9375 -1.421875 27.875 -1.421875 
Q 17.96875 -1.421875 11.734375 6.484375 
Q 5.515625 14.40625 5.515625 27.296875 
Q 5.515625 40.1875 11.734375 48.09375 
Q 17.96875 56 27.875 56 
Q 33.9375 56 38.25 53.625 
Q 42.578125 51.265625 45.40625 46.390625 
z
M 14.796875 27.296875 
Q 14.796875 17.390625 18.875 11.75 
Q 22.953125 6.109375 30.078125 6.109375 
Q 37.203125 6.109375 41.296875 11.75 
Q 45.40625 17.390625 45.40625 27.296875 
Q 45.40625 37.203125 41.296875 42.84375 
Q 37.203125 48.484375 30.078125 48.484375 
Q 22.953125 48.484375 18.875 42.84375 
Q 14.796875 37.203125 14.796875 27.296875 
z
" id="DejaVuSans-100"/>
       <path id="DejaVuSans-32"/>
       <path d="M 45.40625 27.984375 
Q 45.40625 37.75 41.375 43.109375 
Q 37.359375 48.484375 30.078125 48.484375 
Q 22.859375 48.484375 18.828125 43.109375 
Q 14.796875 37.75 14.796875 27.984375 
Q 14.796875 18.265625 18.828125 12.890625 
Q 22.859375 7.515625 30.078125 7.515625 
Q 37.359375 7.515625 41.375 12.890625 
Q 45.40625 18.265625 45.40625 27.984375 
z
M 54.390625 6.78125 
Q 54.390625 -7.171875 48.1875 -13.984375 
Q 42 -20.796875 29.203125 -20.796875 
Q 24.46875 -20.796875 20.265625 -20.09375 
Q 16.0625 -19.390625 12.109375 -17.921875 
L 12.109375 -9.1875 
Q 16.0625 -11.328125 19.921875 -12.34375 
Q 23.78125 -13.375 27.78125 -13.375 
Q 36.625 -13.375 41.015625 -8.765625 
Q 45.40625 -4.15625 45.40625 5.171875 
L 45.40625 9.625 
Q 42.625 4.78125 38.28125 2.390625 
Q 33.9375 0 27.875 0 
Q 17.828125 0 11.671875 7.65625 
Q 5.515625 15.328125 5.515625 27.984375 
Q 5.515625 40.671875 11.671875 48.328125 
Q 17.828125 56 27.875 56 
Q 33.9375 56 38.28125 53.609375 
Q 42.625 51.21875 45.40625 46.390625 
L 45.40625 54.6875 
L 54.390625 54.6875 
z
" id="DejaVuSans-103"/>
       <path d="M 54.890625 33.015625 
L 54.890625 0 
L 45.90625 0 
L 45.90625 32.71875 
Q 45.90625 40.484375 42.875 44.328125 
Q 39.84375 48.1875 33.796875 48.1875 
Q 26.515625 48.1875 22.3125 43.546875 
Q 18.109375 38.921875 18.109375 30.90625 
L 18.109375 0 
L 9.078125 0 
L 9.078125 54.6875 
L 18.109375 54.6875 
L 18.109375 46.1875 
Q 21.34375 51.125 25.703125 53.5625 
Q 30.078125 56 35.796875 56 
Q 45.21875 56 50.046875 50.171875 
Q 54.890625 44.34375 54.890625 33.015625 
z
" id="DejaVuSans-110"/>
       <path d="M 56.203125 29.59375 
L 56.203125 25.203125 
L 14.890625 25.203125 
Q 15.484375 15.921875 20.484375 11.0625 
Q 25.484375 6.203125 34.421875 6.203125 
Q 39.59375 6.203125 44.453125 7.46875 
Q 49.3125 8.734375 54.109375 11.28125 
L 54.109375 2.78125 
Q 49.265625 0.734375 44.1875 -0.34375 
Q 39.109375 -1.421875 33.890625 -1.421875 
Q 20.796875 -1.421875 13.15625 6.1875 
Q 5.515625 13.8125 5.515625 26.8125 
Q 5.515625 40.234375 12.765625 48.109375 
Q 20.015625 56 32.328125 56 
Q 43.359375 56 49.78125 48.890625 
Q 56.203125 41.796875 56.203125 29.59375 
z
M 47.21875 32.234375 
Q 47.125 39.59375 43.09375 43.984375 
Q 39.0625 48.390625 32.421875 48.390625 
Q 24.90625 48.390625 20.390625 44.140625 
Q 15.875 39.890625 15.1875 32.171875 
z
M 36.34375 75.78125 
L 46.25 75.78125 
L 46.25 65.921875 
L 36.34375 65.921875 
z
M 17.25 75.78125 
L 27.15625 75.78125 
L 27.15625 65.921875 
L 17.25 65.921875 
z
" id="DejaVuSans-235"/>
       <path d="M 9.8125 72.90625 
L 23.09375 72.90625 
L 55.421875 11.921875 
L 55.421875 72.90625 
L 64.984375 72.90625 
L 64.984375 0 
L 51.703125 0 
L 19.390625 60.984375 
L 19.390625 0 
L 9.8125 0 
z
" id="DejaVuSans-78"/>
       <path d="M 9.8125 72.90625 
L 19.671875 72.90625 
L 19.671875 0 
L 9.8125 0 
z
" id="DejaVuSans-73"/>
       <path d="M 64.40625 67.28125 
L 64.40625 56.890625 
Q 59.421875 61.53125 53.78125 63.8125 
Q 48.140625 66.109375 41.796875 66.109375 
Q 29.296875 66.109375 22.65625 58.46875 
Q 16.015625 50.828125 16.015625 36.375 
Q 16.015625 21.96875 22.65625 14.328125 
Q 29.296875 6.6875 41.796875 6.6875 
Q 48.140625 6.6875 53.78125 8.984375 
Q 59.421875 11.28125 64.40625 15.921875 
L 64.40625 5.609375 
Q 59.234375 2.09375 53.4375 0.328125 
Q 47.65625 -1.421875 41.21875 -1.421875 
Q 24.65625 -1.421875 15.125 8.703125 
Q 5.609375 18.84375 5.609375 36.375 
Q 5.609375 53.953125 15.125 64.078125 
Q 24.65625 74.21875 41.21875 74.21875 
Q 47.75 74.21875 53.53125 72.484375 
Q 59.328125 70.75 64.40625 67.28125 
z
" id="DejaVuSans-67"/>
       <path d="M 9.8125 72.90625 
L 55.90625 72.90625 
L 55.90625 64.59375 
L 19.671875 64.59375 
L 19.671875 43.015625 
L 54.390625 43.015625 
L 54.390625 34.71875 
L 19.671875 34.71875 
L 19.671875 8.296875 
L 56.78125 8.296875 
L 56.78125 0 
L 9.8125 0 
z
" id="DejaVuSans-69"/>
       <path d="M 31 75.875 
Q 24.46875 64.65625 21.28125 53.65625 
Q 18.109375 42.671875 18.109375 31.390625 
Q 18.109375 20.125 21.3125 9.0625 
Q 24.515625 -2 31 -13.1875 
L 23.1875 -13.1875 
Q 15.875 -1.703125 12.234375 9.375 
Q 8.59375 20.453125 8.59375 31.390625 
Q 8.59375 42.28125 12.203125 53.3125 
Q 15.828125 64.359375 23.1875 75.875 
z
" id="DejaVuSans-40"/>
       <path d="M 8.015625 75.875 
L 15.828125 75.875 
Q 23.140625 64.359375 26.78125 53.3125 
Q 30.421875 42.28125 30.421875 31.390625 
Q 30.421875 20.453125 26.78125 9.375 
Q 23.140625 -1.703125 15.828125 -13.1875 
L 8.015625 -13.1875 
Q 14.5 -2 17.703125 9.0625 
Q 20.90625 20.125 20.90625 31.390625 
Q 20.90625 42.671875 17.703125 53.65625 
Q 14.5 64.65625 8.015625 75.875 
z
" id="DejaVuSans-41"/>
      </defs>
      <use xlink:href="#DejaVuSans-99"/>
      <use x="54.980469" xlink:href="#DejaVuSans-111"/>
      <use x="116.162109" xlink:href="#DejaVuSans-118"/>
      <use x="175.341797" xlink:href="#DejaVuSans-105"/>
      <use x="203.125" xlink:href="#DejaVuSans-100"/>
      <use x="266.601562" xlink:href="#DejaVuSans-32"/>
      <use x="298.388672" xlink:href="#DejaVuSans-111"/>
      <use x="359.570312" xlink:href="#DejaVuSans-112"/>
      <use x="423.046875" xlink:href="#DejaVuSans-103"/>
      <use x="486.523438" xlink:href="#DejaVuSans-101"/>
      <use x="548.046875" xlink:href="#DejaVuSans-110"/>
      <use x="611.425781" xlink:href="#DejaVuSans-111"/>
      <use x="672.607422" xlink:href="#DejaVuSans-109"/>
      <use x="770.019531" xlink:href="#DejaVuSans-101"/>
      <use x="831.542969" xlink:href="#DejaVuSans-110"/>
      <use x="894.921875" xlink:href="#DejaVuSans-32"/>
      <use x="926.708984" xlink:href="#DejaVuSans-112"/>
      <use x="990.185547" xlink:href="#DejaVuSans-97"/>
      <use x="1051.464844" xlink:href="#DejaVuSans-116"/>
      <use x="1090.673828" xlink:href="#DejaVuSans-105"/>
      <use x="1118.457031" xlink:href="#DejaVuSans-235"/>
      <use x="1179.980469" xlink:href="#DejaVuSans-110"/>
      <use x="1243.359375" xlink:href="#DejaVuSans-116"/>
      <use x="1282.568359" xlink:href="#DejaVuSans-101"/>
      <use x="1344.091797" xlink:href="#DejaVuSans-110"/>
      <use x="1407.470703" xlink:href="#DejaVuSans-32"/>
      <use x="1439.257812" xlink:href="#DejaVuSans-78"/>
      <use x="1514.0625" xlink:href="#DejaVuSans-73"/>
      <use x="1543.554688" xlink:href="#DejaVuSans-67"/>
      <use x="1613.378906" xlink:href="#DejaVuSans-69"/>
      <use x="1676.5625" xlink:href="#DejaVuSans-32"/>
      <use x="1708.349609" xlink:href="#DejaVuSans-40"/>
      <use x="1747.363281" xlink:href="#DejaVuSans-110"/>
      <use x="1810.742188" xlink:href="#DejaVuSans-117"/>
      <use x="1874.121094" xlink:href="#DejaVuSans-32"/>
      <use x="1905.908203" xlink:href="#DejaVuSans-49"/>
      <use x="1969.53125" xlink:href="#DejaVuSans-53"/>
      <use x="2033.154297" xlink:href="#DejaVuSans-50"/>
      <use x="2096.777344" xlink:href="#DejaVuSans-51"/>
      <use x="2160.400391" xlink:href="#DejaVuSans-41"/>
     </g>
    </g>
    <g id="line2d_39">
     <path d="M 99 70.976562 
L 119 70.976562 
" style="fill:none;stroke:#ffa500;stroke-linecap:square;stroke-width:1.5;"/>
    </g>
    <g id="line2d_40"/>
    <g id="text_20">
     <!-- covid bezette bedden LCPS (nu 315) -->
     <g transform="translate(127 74.476562)scale(0.1 -0.1)">
      <defs>
       <path d="M 48.6875 27.296875 
Q 48.6875 37.203125 44.609375 42.84375 
Q 40.53125 48.484375 33.40625 48.484375 
Q 26.265625 48.484375 22.1875 42.84375 
Q 18.109375 37.203125 18.109375 27.296875 
Q 18.109375 17.390625 22.1875 11.75 
Q 26.265625 6.109375 33.40625 6.109375 
Q 40.53125 6.109375 44.609375 11.75 
Q 48.6875 17.390625 48.6875 27.296875 
z
M 18.109375 46.390625 
Q 20.953125 51.265625 25.265625 53.625 
Q 29.59375 56 35.59375 56 
Q 45.5625 56 51.78125 48.09375 
Q 58.015625 40.1875 58.015625 27.296875 
Q 58.015625 14.40625 51.78125 6.484375 
Q 45.5625 -1.421875 35.59375 -1.421875 
Q 29.59375 -1.421875 25.265625 0.953125 
Q 20.953125 3.328125 18.109375 8.203125 
L 18.109375 0 
L 9.078125 0 
L 9.078125 75.984375 
L 18.109375 75.984375 
z
" id="DejaVuSans-98"/>
       <path d="M 5.515625 54.6875 
L 48.1875 54.6875 
L 48.1875 46.484375 
L 14.40625 7.171875 
L 48.1875 7.171875 
L 48.1875 0 
L 4.296875 0 
L 4.296875 8.203125 
L 38.09375 47.515625 
L 5.515625 47.515625 
z
" id="DejaVuSans-122"/>
       <path d="M 9.8125 72.90625 
L 19.671875 72.90625 
L 19.671875 8.296875 
L 55.171875 8.296875 
L 55.171875 0 
L 9.8125 0 
z
" id="DejaVuSans-76"/>
       <path d="M 19.671875 64.796875 
L 19.671875 37.40625 
L 32.078125 37.40625 
Q 38.96875 37.40625 42.71875 40.96875 
Q 46.484375 44.53125 46.484375 51.125 
Q 46.484375 57.671875 42.71875 61.234375 
Q 38.96875 64.796875 32.078125 64.796875 
z
M 9.8125 72.90625 
L 32.078125 72.90625 
Q 44.34375 72.90625 50.609375 67.359375 
Q 56.890625 61.8125 56.890625 51.125 
Q 56.890625 40.328125 50.609375 34.8125 
Q 44.34375 29.296875 32.078125 29.296875 
L 19.671875 29.296875 
L 19.671875 0 
L 9.8125 0 
z
" id="DejaVuSans-80"/>
       <path d="M 53.515625 70.515625 
L 53.515625 60.890625 
Q 47.90625 63.578125 42.921875 64.890625 
Q 37.9375 66.21875 33.296875 66.21875 
Q 25.25 66.21875 20.875 63.09375 
Q 16.5 59.96875 16.5 54.203125 
Q 16.5 49.359375 19.40625 46.890625 
Q 22.3125 44.4375 30.421875 42.921875 
L 36.375 41.703125 
Q 47.40625 39.59375 52.65625 34.296875 
Q 57.90625 29 57.90625 20.125 
Q 57.90625 9.515625 50.796875 4.046875 
Q 43.703125 -1.421875 29.984375 -1.421875 
Q 24.8125 -1.421875 18.96875 -0.25 
Q 13.140625 0.921875 6.890625 3.21875 
L 6.890625 13.375 
Q 12.890625 10.015625 18.65625 8.296875 
Q 24.421875 6.59375 29.984375 6.59375 
Q 38.421875 6.59375 43.015625 9.90625 
Q 47.609375 13.234375 47.609375 19.390625 
Q 47.609375 24.75 44.3125 27.78125 
Q 41.015625 30.8125 33.5 32.328125 
L 27.484375 33.5 
Q 16.453125 35.6875 11.515625 40.375 
Q 6.59375 45.0625 6.59375 53.421875 
Q 6.59375 63.09375 13.40625 68.65625 
Q 20.21875 74.21875 32.171875 74.21875 
Q 37.3125 74.21875 42.625 73.28125 
Q 47.953125 72.359375 53.515625 70.515625 
z
" id="DejaVuSans-83"/>
      </defs>
      <use xlink:href="#DejaVuSans-99"/>
      <use x="54.980469" xlink:href="#DejaVuSans-111"/>
      <use x="116.162109" xlink:href="#DejaVuSans-118"/>
      <use x="175.341797" xlink:href="#DejaVuSans-105"/>
      <use x="203.125" xlink:href="#DejaVuSans-100"/>
      <use x="266.601562" xlink:href="#DejaVuSans-32"/>
      <use x="298.388672" xlink:href="#DejaVuSans-98"/>
      <use x="361.865234" xlink:href="#DejaVuSans-101"/>
      <use x="423.388672" xlink:href="#DejaVuSans-122"/>
      <use x="475.878906" xlink:href="#DejaVuSans-101"/>
      <use x="537.402344" xlink:href="#DejaVuSans-116"/>
      <use x="576.611328" xlink:href="#DejaVuSans-116"/>
      <use x="615.820312" xlink:href="#DejaVuSans-101"/>
      <use x="677.34375" xlink:href="#DejaVuSans-32"/>
      <use x="709.130859" xlink:href="#DejaVuSans-98"/>
      <use x="772.607422" xlink:href="#DejaVuSans-101"/>
      <use x="834.130859" xlink:href="#DejaVuSans-100"/>
      <use x="897.607422" xlink:href="#DejaVuSans-100"/>
      <use x="961.083984" xlink:href="#DejaVuSans-101"/>
      <use x="1022.607422" xlink:href="#DejaVuSans-110"/>
      <use x="1085.986328" xlink:href="#DejaVuSans-32"/>
      <use x="1117.773438" xlink:href="#DejaVuSans-76"/>
      <use x="1173.486328" xlink:href="#DejaVuSans-67"/>
      <use x="1243.310547" xlink:href="#DejaVuSans-80"/>
      <use x="1303.613281" xlink:href="#DejaVuSans-83"/>
      <use x="1367.089844" xlink:href="#DejaVuSans-32"/>
      <use x="1398.876953" xlink:href="#DejaVuSans-40"/>
      <use x="1437.890625" xlink:href="#DejaVuSans-110"/>
      <use x="1501.269531" xlink:href="#DejaVuSans-117"/>
      <use x="1564.648438" xlink:href="#DejaVuSans-32"/>
      <use x="1596.435547" xlink:href="#DejaVuSans-51"/>
      <use x="1660.058594" xlink:href="#DejaVuSans-49"/>
      <use x="1723.681641" xlink:href="#DejaVuSans-53"/>
      <use x="1787.304688" xlink:href="#DejaVuSans-41"/>
     </g>
    </g>
    <g id="line2d_41">
     <path d="M 99 85.654687 
L 119 85.654687 
" style="fill:none;stroke:#0000ff;stroke-linecap:square;stroke-width:1.5;"/>
    </g>
    <g id="line2d_42"/>
    <g id="text_21">
     <!-- non-covid bezette IC bedden LCPS (nu 543) -->
     <g transform="translate(127 89.154687)scale(0.1 -0.1)">
      <use xlink:href="#DejaVuSans-110"/>
      <use x="63.378906" xlink:href="#DejaVuSans-111"/>
      <use x="124.560547" xlink:href="#DejaVuSans-110"/>
      <use x="187.939453" xlink:href="#DejaVuSans-45"/>
      <use x="224.023438" xlink:href="#DejaVuSans-99"/>
      <use x="279.003906" xlink:href="#DejaVuSans-111"/>
      <use x="340.185547" xlink:href="#DejaVuSans-118"/>
      <use x="399.365234" xlink:href="#DejaVuSans-105"/>
      <use x="427.148438" xlink:href="#DejaVuSans-100"/>
      <use x="490.625" xlink:href="#DejaVuSans-32"/>
      <use x="522.412109" xlink:href="#DejaVuSans-98"/>
      <use x="585.888672" xlink:href="#DejaVuSans-101"/>
      <use x="647.412109" xlink:href="#DejaVuSans-122"/>
      <use x="699.902344" xlink:href="#DejaVuSans-101"/>
      <use x="761.425781" xlink:href="#DejaVuSans-116"/>
      <use x="800.634766" xlink:href="#DejaVuSans-116"/>
      <use x="839.84375" xlink:href="#DejaVuSans-101"/>
      <use x="901.367188" xlink:href="#DejaVuSans-32"/>
      <use x="933.154297" xlink:href="#DejaVuSans-73"/>
      <use x="962.646484" xlink:href="#DejaVuSans-67"/>
      <use x="1032.470703" xlink:href="#DejaVuSans-32"/>
      <use x="1064.257812" xlink:href="#DejaVuSans-98"/>
      <use x="1127.734375" xlink:href="#DejaVuSans-101"/>
      <use x="1189.257812" xlink:href="#DejaVuSans-100"/>
      <use x="1252.734375" xlink:href="#DejaVuSans-100"/>
      <use x="1316.210938" xlink:href="#DejaVuSans-101"/>
      <use x="1377.734375" xlink:href="#DejaVuSans-110"/>
      <use x="1441.113281" xlink:href="#DejaVuSans-32"/>
      <use x="1472.900391" xlink:href="#DejaVuSans-76"/>
      <use x="1528.613281" xlink:href="#DejaVuSans-67"/>
      <use x="1598.4375" xlink:href="#DejaVuSans-80"/>
      <use x="1658.740234" xlink:href="#DejaVuSans-83"/>
      <use x="1722.216797" xlink:href="#DejaVuSans-32"/>
      <use x="1754.003906" xlink:href="#DejaVuSans-40"/>
      <use x="1793.017578" xlink:href="#DejaVuSans-110"/>
      <use x="1856.396484" xlink:href="#DejaVuSans-117"/>
      <use x="1919.775391" xlink:href="#DejaVuSans-32"/>
      <use x="1951.5625" xlink:href="#DejaVuSans-53"/>
      <use x="2015.185547" xlink:href="#DejaVuSans-52"/>
      <use x="2078.808594" xlink:href="#DejaVuSans-51"/>
      <use x="2142.431641" xlink:href="#DejaVuSans-41"/>
     </g>
    </g>
    <g id="line2d_43">
     <path d="M 99 100.332812 
L 119 100.332812 
" style="fill:none;stroke:#00ffff;stroke-linecap:square;stroke-width:1.5;"/>
    </g>
    <g id="line2d_44"/>
    <g id="text_22">
     <!-- covid bezette IC bedden LCPS (nu 100) -->
     <g transform="translate(127 103.832812)scale(0.1 -0.1)">
      <use xlink:href="#DejaVuSans-99"/>
      <use x="54.980469" xlink:href="#DejaVuSans-111"/>
      <use x="116.162109" xlink:href="#DejaVuSans-118"/>
      <use x="175.341797" xlink:href="#DejaVuSans-105"/>
      <use x="203.125" xlink:href="#DejaVuSans-100"/>
      <use x="266.601562" xlink:href="#DejaVuSans-32"/>
      <use x="298.388672" xlink:href="#DejaVuSans-98"/>
      <use x="361.865234" xlink:href="#DejaVuSans-101"/>
      <use x="423.388672" xlink:href="#DejaVuSans-122"/>
      <use x="475.878906" xlink:href="#DejaVuSans-101"/>
      <use x="537.402344" xlink:href="#DejaVuSans-116"/>
      <use x="576.611328" xlink:href="#DejaVuSans-116"/>
      <use x="615.820312" xlink:href="#DejaVuSans-101"/>
      <use x="677.34375" xlink:href="#DejaVuSans-32"/>
      <use x="709.130859" xlink:href="#DejaVuSans-73"/>
      <use x="738.623047" xlink:href="#DejaVuSans-67"/>
      <use x="808.447266" xlink:href="#DejaVuSans-32"/>
      <use x="840.234375" xlink:href="#DejaVuSans-98"/>
      <use x="903.710938" xlink:href="#DejaVuSans-101"/>
      <use x="965.234375" xlink:href="#DejaVuSans-100"/>
      <use x="1028.710938" xlink:href="#DejaVuSans-100"/>
      <use x="1092.1875" xlink:href="#DejaVuSans-101"/>
      <use x="1153.710938" xlink:href="#DejaVuSans-110"/>
      <use x="1217.089844" xlink:href="#DejaVuSans-32"/>
      <use x="1248.876953" xlink:href="#DejaVuSans-76"/>
      <use x="1304.589844" xlink:href="#DejaVuSans-67"/>
      <use x="1374.414062" xlink:href="#DejaVuSans-80"/>
      <use x="1434.716797" xlink:href="#DejaVuSans-83"/>
      <use x="1498.193359" xlink:href="#DejaVuSans-32"/>
      <use x="1529.980469" xlink:href="#DejaVuSans-40"/>
      <use x="1568.994141" xlink:href="#DejaVuSans-110"/>
      <use x="1632.373047" xlink:href="#DejaVuSans-117"/>
      <use x="1695.751953" xlink:href="#DejaVuSans-32"/>
      <use x="1727.539062" xlink:href="#DejaVuSans-49"/>
      <use x="1791.162109" xlink:href="#DejaVuSans-48"/>
      <use x="1854.785156" xlink:href="#DejaVuSans-48"/>
      <use x="1918.408203" xlink:href="#DejaVuSans-41"/>
     </g>
    </g>
   </g>
  </g>
 </g>
 <defs>
  <clipPath id="pc58b8bd266">
   <rect height="277.2" width="558" x="90" y="43.2"/>
  </clipPath>
 </defs>
</svg>
