<?xml version="1.0" encoding="utf-8" standalone="no"?>
<!DOCTYPE svg PUBLIC "-//W3C//DTD SVG 1.1//EN"
  "http://www.w3.org/Graphics/SVG/1.1/DTD/svg11.dtd">
<!-- Created with matplotlib (https://matplotlib.org/) -->
<svg height="360pt" version="1.1" viewBox="0 0 720 360" width="720pt" xmlns="http://www.w3.org/2000/svg" xmlns:xlink="http://www.w3.org/1999/xlink">
 <metadata>
  <rdf:RDF xmlns:cc="http://creativecommons.org/ns#" xmlns:dc="http://purl.org/dc/elements/1.1/" xmlns:rdf="http://www.w3.org/1999/02/22-rdf-syntax-ns#">
   <cc:Work>
    <dc:type rdf:resource="http://purl.org/dc/dcmitype/StillImage"/>
    <dc:date>2022-05-19T15:57:44.066859</dc:date>
    <dc:format>image/svg+xml</dc:format>
    <dc:creator>
     <cc:Agent>
      <dc:title>Matplotlib v3.3.2, https://matplotlib.org/</dc:title>
     </cc:Agent>
    </dc:creator>
   </cc:Work>
  </rdf:RDF>
 </metadata>
 <defs>
  <style type="text/css">*{stroke-linecap:butt;stroke-linejoin:round;}</style>
 </defs>
 <g id="figure_1">
  <g id="patch_1">
   <path d="M 0 360 
L 720 360 
L 720 0 
L 0 0 
z
" style="fill:#ffffff;"/>
  </g>
  <g id="axes_1">
   <g id="patch_2">
    <path d="M 90 320.4 
L 648 320.4 
L 648 43.2 
L 90 43.2 
z
" style="fill:#ffffff;"/>
   </g>
   <g id="matplotlib.axis_1">
    <g id="xtick_1">
     <g id="line2d_1">
      <path clip-path="url(#p7999de4686)" d="M 136.60412 320.4 
L 136.60412 43.2 
" style="fill:none;stroke:#808080;stroke-dasharray:6.4,1.6,1,1.6;stroke-dashoffset:0;stroke-opacity:0.3;"/>
     </g>
     <g id="line2d_2">
      <defs>
       <path d="M 0 0 
L 0 3.5 
" id="m117546b5bd" style="stroke:#000000;stroke-width:0.8;"/>
      </defs>
      <g>
       <use style="stroke:#000000;stroke-width:0.8;" x="136.60412" xlink:href="#m117546b5bd" y="320.4"/>
      </g>
     </g>
     <g id="text_1">
      <!-- 2020-04 -->
      <g transform="translate(115.712714 334.998438)scale(0.1 -0.1)">
       <defs>
        <path d="M 19.1875 8.296875 
L 53.609375 8.296875 
L 53.609375 0 
L 7.328125 0 
L 7.328125 8.296875 
Q 12.9375 14.109375 22.625 23.890625 
Q 32.328125 33.6875 34.8125 36.53125 
Q 39.546875 41.84375 41.421875 45.53125 
Q 43.3125 49.21875 43.3125 52.78125 
Q 43.3125 58.59375 39.234375 62.25 
Q 35.15625 65.921875 28.609375 65.921875 
Q 23.96875 65.921875 18.8125 64.3125 
Q 13.671875 62.703125 7.8125 59.421875 
L 7.8125 69.390625 
Q 13.765625 71.78125 18.9375 73 
Q 24.125 74.21875 28.421875 74.21875 
Q 39.75 74.21875 46.484375 68.546875 
Q 53.21875 62.890625 53.21875 53.421875 
Q 53.21875 48.921875 51.53125 44.890625 
Q 49.859375 40.875 45.40625 35.40625 
Q 44.1875 33.984375 37.640625 27.21875 
Q 31.109375 20.453125 19.1875 8.296875 
z
" id="DejaVuSans-50"/>
        <path d="M 31.78125 66.40625 
Q 24.171875 66.40625 20.328125 58.90625 
Q 16.5 51.421875 16.5 36.375 
Q 16.5 21.390625 20.328125 13.890625 
Q 24.171875 6.390625 31.78125 6.390625 
Q 39.453125 6.390625 43.28125 13.890625 
Q 47.125 21.390625 47.125 36.375 
Q 47.125 51.421875 43.28125 58.90625 
Q 39.453125 66.40625 31.78125 66.40625 
z
M 31.78125 74.21875 
Q 44.046875 74.21875 50.515625 64.515625 
Q 56.984375 54.828125 56.984375 36.375 
Q 56.984375 17.96875 50.515625 8.265625 
Q 44.046875 -1.421875 31.78125 -1.421875 
Q 19.53125 -1.421875 13.0625 8.265625 
Q 6.59375 17.96875 6.59375 36.375 
Q 6.59375 54.828125 13.0625 64.515625 
Q 19.53125 74.21875 31.78125 74.21875 
z
" id="DejaVuSans-48"/>
        <path d="M 4.890625 31.390625 
L 31.203125 31.390625 
L 31.203125 23.390625 
L 4.890625 23.390625 
z
" id="DejaVuSans-45"/>
        <path d="M 37.796875 64.3125 
L 12.890625 25.390625 
L 37.796875 25.390625 
z
M 35.203125 72.90625 
L 47.609375 72.90625 
L 47.609375 25.390625 
L 58.015625 25.390625 
L 58.015625 17.1875 
L 47.609375 17.1875 
L 47.609375 0 
L 37.796875 0 
L 37.796875 17.1875 
L 4.890625 17.1875 
L 4.890625 26.703125 
z
" id="DejaVuSans-52"/>
       </defs>
       <use xlink:href="#DejaVuSans-50"/>
       <use x="63.623047" xlink:href="#DejaVuSans-48"/>
       <use x="127.246094" xlink:href="#DejaVuSans-50"/>
       <use x="190.869141" xlink:href="#DejaVuSans-48"/>
       <use x="254.492188" xlink:href="#DejaVuSans-45"/>
       <use x="290.576172" xlink:href="#DejaVuSans-48"/>
       <use x="354.199219" xlink:href="#DejaVuSans-52"/>
      </g>
     </g>
    </g>
    <g id="xtick_2">
     <g id="line2d_3">
      <path clip-path="url(#p7999de4686)" d="M 193.45365 320.4 
L 193.45365 43.2 
" style="fill:none;stroke:#808080;stroke-dasharray:6.4,1.6,1,1.6;stroke-dashoffset:0;stroke-opacity:0.3;"/>
     </g>
     <g id="line2d_4">
      <g>
       <use style="stroke:#000000;stroke-width:0.8;" x="193.45365" xlink:href="#m117546b5bd" y="320.4"/>
      </g>
     </g>
     <g id="text_2">
      <!-- 2020-07 -->
      <g transform="translate(172.562244 334.998438)scale(0.1 -0.1)">
       <defs>
        <path d="M 8.203125 72.90625 
L 55.078125 72.90625 
L 55.078125 68.703125 
L 28.609375 0 
L 18.3125 0 
L 43.21875 64.59375 
L 8.203125 64.59375 
z
" id="DejaVuSans-55"/>
       </defs>
       <use xlink:href="#DejaVuSans-50"/>
       <use x="63.623047" xlink:href="#DejaVuSans-48"/>
       <use x="127.246094" xlink:href="#DejaVuSans-50"/>
       <use x="190.869141" xlink:href="#DejaVuSans-48"/>
       <use x="254.492188" xlink:href="#DejaVuSans-45"/>
       <use x="290.576172" xlink:href="#DejaVuSans-48"/>
       <use x="354.199219" xlink:href="#DejaVuSans-55"/>
      </g>
     </g>
    </g>
    <g id="xtick_3">
     <g id="line2d_5">
      <path clip-path="url(#p7999de4686)" d="M 250.9279 320.4 
L 250.9279 43.2 
" style="fill:none;stroke:#808080;stroke-dasharray:6.4,1.6,1,1.6;stroke-dashoffset:0;stroke-opacity:0.3;"/>
     </g>
     <g id="line2d_6">
      <g>
       <use style="stroke:#000000;stroke-width:0.8;" x="250.9279" xlink:href="#m117546b5bd" y="320.4"/>
      </g>
     </g>
     <g id="text_3">
      <!-- 2020-10 -->
      <g transform="translate(230.036493 334.998438)scale(0.1 -0.1)">
       <defs>
        <path d="M 12.40625 8.296875 
L 28.515625 8.296875 
L 28.515625 63.921875 
L 10.984375 60.40625 
L 10.984375 69.390625 
L 28.421875 72.90625 
L 38.28125 72.90625 
L 38.28125 8.296875 
L 54.390625 8.296875 
L 54.390625 0 
L 12.40625 0 
z
" id="DejaVuSans-49"/>
       </defs>
       <use xlink:href="#DejaVuSans-50"/>
       <use x="63.623047" xlink:href="#DejaVuSans-48"/>
       <use x="127.246094" xlink:href="#DejaVuSans-50"/>
       <use x="190.869141" xlink:href="#DejaVuSans-48"/>
       <use x="254.492188" xlink:href="#DejaVuSans-45"/>
       <use x="290.576172" xlink:href="#DejaVuSans-49"/>
       <use x="354.199219" xlink:href="#DejaVuSans-48"/>
      </g>
     </g>
    </g>
    <g id="xtick_4">
     <g id="line2d_7">
      <path clip-path="url(#p7999de4686)" d="M 308.40215 320.4 
L 308.40215 43.2 
" style="fill:none;stroke:#808080;stroke-dasharray:6.4,1.6,1,1.6;stroke-dashoffset:0;stroke-opacity:0.3;"/>
     </g>
     <g id="line2d_8">
      <g>
       <use style="stroke:#000000;stroke-width:0.8;" x="308.40215" xlink:href="#m117546b5bd" y="320.4"/>
      </g>
     </g>
     <g id="text_4">
      <!-- 2021-01 -->
      <g transform="translate(287.510743 334.998438)scale(0.1 -0.1)">
       <use xlink:href="#DejaVuSans-50"/>
       <use x="63.623047" xlink:href="#DejaVuSans-48"/>
       <use x="127.246094" xlink:href="#DejaVuSans-50"/>
       <use x="190.869141" xlink:href="#DejaVuSans-49"/>
       <use x="254.492188" xlink:href="#DejaVuSans-45"/>
       <use x="290.576172" xlink:href="#DejaVuSans-48"/>
       <use x="354.199219" xlink:href="#DejaVuSans-49"/>
      </g>
     </g>
    </g>
    <g id="xtick_5">
     <g id="line2d_9">
      <path clip-path="url(#p7999de4686)" d="M 364.626959 320.4 
L 364.626959 43.2 
" style="fill:none;stroke:#808080;stroke-dasharray:6.4,1.6,1,1.6;stroke-dashoffset:0;stroke-opacity:0.3;"/>
     </g>
     <g id="line2d_10">
      <g>
       <use style="stroke:#000000;stroke-width:0.8;" x="364.626959" xlink:href="#m117546b5bd" y="320.4"/>
      </g>
     </g>
     <g id="text_5">
      <!-- 2021-04 -->
      <g transform="translate(343.735553 334.998438)scale(0.1 -0.1)">
       <use xlink:href="#DejaVuSans-50"/>
       <use x="63.623047" xlink:href="#DejaVuSans-48"/>
       <use x="127.246094" xlink:href="#DejaVuSans-50"/>
       <use x="190.869141" xlink:href="#DejaVuSans-49"/>
       <use x="254.492188" xlink:href="#DejaVuSans-45"/>
       <use x="290.576172" xlink:href="#DejaVuSans-48"/>
       <use x="354.199219" xlink:href="#DejaVuSans-52"/>
      </g>
     </g>
    </g>
    <g id="xtick_6">
     <g id="line2d_11">
      <path clip-path="url(#p7999de4686)" d="M 421.476489 320.4 
L 421.476489 43.2 
" style="fill:none;stroke:#808080;stroke-dasharray:6.4,1.6,1,1.6;stroke-dashoffset:0;stroke-opacity:0.3;"/>
     </g>
     <g id="line2d_12">
      <g>
       <use style="stroke:#000000;stroke-width:0.8;" x="421.476489" xlink:href="#m117546b5bd" y="320.4"/>
      </g>
     </g>
     <g id="text_6">
      <!-- 2021-07 -->
      <g transform="translate(400.585083 334.998438)scale(0.1 -0.1)">
       <use xlink:href="#DejaVuSans-50"/>
       <use x="63.623047" xlink:href="#DejaVuSans-48"/>
       <use x="127.246094" xlink:href="#DejaVuSans-50"/>
       <use x="190.869141" xlink:href="#DejaVuSans-49"/>
       <use x="254.492188" xlink:href="#DejaVuSans-45"/>
       <use x="290.576172" xlink:href="#DejaVuSans-48"/>
       <use x="354.199219" xlink:href="#DejaVuSans-55"/>
      </g>
     </g>
    </g>
    <g id="xtick_7">
     <g id="line2d_13">
      <path clip-path="url(#p7999de4686)" d="M 478.950739 320.4 
L 478.950739 43.2 
" style="fill:none;stroke:#808080;stroke-dasharray:6.4,1.6,1,1.6;stroke-dashoffset:0;stroke-opacity:0.3;"/>
     </g>
     <g id="line2d_14">
      <g>
       <use style="stroke:#000000;stroke-width:0.8;" x="478.950739" xlink:href="#m117546b5bd" y="320.4"/>
      </g>
     </g>
     <g id="text_7">
      <!-- 2021-10 -->
      <g transform="translate(458.059333 334.998438)scale(0.1 -0.1)">
       <use xlink:href="#DejaVuSans-50"/>
       <use x="63.623047" xlink:href="#DejaVuSans-48"/>
       <use x="127.246094" xlink:href="#DejaVuSans-50"/>
       <use x="190.869141" xlink:href="#DejaVuSans-49"/>
       <use x="254.492188" xlink:href="#DejaVuSans-45"/>
       <use x="290.576172" xlink:href="#DejaVuSans-49"/>
       <use x="354.199219" xlink:href="#DejaVuSans-48"/>
      </g>
     </g>
    </g>
    <g id="xtick_8">
     <g id="line2d_15">
      <path clip-path="url(#p7999de4686)" d="M 536.424989 320.4 
L 536.424989 43.2 
" style="fill:none;stroke:#808080;stroke-dasharray:6.4,1.6,1,1.6;stroke-dashoffset:0;stroke-opacity:0.3;"/>
     </g>
     <g id="line2d_16">
      <g>
       <use style="stroke:#000000;stroke-width:0.8;" x="536.424989" xlink:href="#m117546b5bd" y="320.4"/>
      </g>
     </g>
     <g id="text_8">
      <!-- 2022-01 -->
      <g transform="translate(515.533583 334.998438)scale(0.1 -0.1)">
       <use xlink:href="#DejaVuSans-50"/>
       <use x="63.623047" xlink:href="#DejaVuSans-48"/>
       <use x="127.246094" xlink:href="#DejaVuSans-50"/>
       <use x="190.869141" xlink:href="#DejaVuSans-50"/>
       <use x="254.492188" xlink:href="#DejaVuSans-45"/>
       <use x="290.576172" xlink:href="#DejaVuSans-48"/>
       <use x="354.199219" xlink:href="#DejaVuSans-49"/>
      </g>
     </g>
    </g>
    <g id="xtick_9">
     <g id="line2d_17">
      <path clip-path="url(#p7999de4686)" d="M 592.649798 320.4 
L 592.649798 43.2 
" style="fill:none;stroke:#808080;stroke-dasharray:6.4,1.6,1,1.6;stroke-dashoffset:0;stroke-opacity:0.3;"/>
     </g>
     <g id="line2d_18">
      <g>
       <use style="stroke:#000000;stroke-width:0.8;" x="592.649798" xlink:href="#m117546b5bd" y="320.4"/>
      </g>
     </g>
     <g id="text_9">
      <!-- 2022-04 -->
      <g transform="translate(571.758392 334.998438)scale(0.1 -0.1)">
       <use xlink:href="#DejaVuSans-50"/>
       <use x="63.623047" xlink:href="#DejaVuSans-48"/>
       <use x="127.246094" xlink:href="#DejaVuSans-50"/>
       <use x="190.869141" xlink:href="#DejaVuSans-50"/>
       <use x="254.492188" xlink:href="#DejaVuSans-45"/>
       <use x="290.576172" xlink:href="#DejaVuSans-48"/>
       <use x="354.199219" xlink:href="#DejaVuSans-52"/>
      </g>
     </g>
    </g>
    <g id="text_10">
     <!-- Datum -->
     <g transform="translate(352.086719 348.676562)scale(0.1 -0.1)">
      <defs>
       <path d="M 19.671875 64.796875 
L 19.671875 8.109375 
L 31.59375 8.109375 
Q 46.6875 8.109375 53.6875 14.9375 
Q 60.6875 21.78125 60.6875 36.53125 
Q 60.6875 51.171875 53.6875 57.984375 
Q 46.6875 64.796875 31.59375 64.796875 
z
M 9.8125 72.90625 
L 30.078125 72.90625 
Q 51.265625 72.90625 61.171875 64.09375 
Q 71.09375 55.28125 71.09375 36.53125 
Q 71.09375 17.671875 61.125 8.828125 
Q 51.171875 0 30.078125 0 
L 9.8125 0 
z
" id="DejaVuSans-68"/>
       <path d="M 34.28125 27.484375 
Q 23.390625 27.484375 19.1875 25 
Q 14.984375 22.515625 14.984375 16.5 
Q 14.984375 11.71875 18.140625 8.90625 
Q 21.296875 6.109375 26.703125 6.109375 
Q 34.1875 6.109375 38.703125 11.40625 
Q 43.21875 16.703125 43.21875 25.484375 
L 43.21875 27.484375 
z
M 52.203125 31.203125 
L 52.203125 0 
L 43.21875 0 
L 43.21875 8.296875 
Q 40.140625 3.328125 35.546875 0.953125 
Q 30.953125 -1.421875 24.3125 -1.421875 
Q 15.921875 -1.421875 10.953125 3.296875 
Q 6 8.015625 6 15.921875 
Q 6 25.140625 12.171875 29.828125 
Q 18.359375 34.515625 30.609375 34.515625 
L 43.21875 34.515625 
L 43.21875 35.40625 
Q 43.21875 41.609375 39.140625 45 
Q 35.0625 48.390625 27.6875 48.390625 
Q 23 48.390625 18.546875 47.265625 
Q 14.109375 46.140625 10.015625 43.890625 
L 10.015625 52.203125 
Q 14.9375 54.109375 19.578125 55.046875 
Q 24.21875 56 28.609375 56 
Q 40.484375 56 46.34375 49.84375 
Q 52.203125 43.703125 52.203125 31.203125 
z
" id="DejaVuSans-97"/>
       <path d="M 18.3125 70.21875 
L 18.3125 54.6875 
L 36.8125 54.6875 
L 36.8125 47.703125 
L 18.3125 47.703125 
L 18.3125 18.015625 
Q 18.3125 11.328125 20.140625 9.421875 
Q 21.96875 7.515625 27.59375 7.515625 
L 36.8125 7.515625 
L 36.8125 0 
L 27.59375 0 
Q 17.1875 0 13.234375 3.875 
Q 9.28125 7.765625 9.28125 18.015625 
L 9.28125 47.703125 
L 2.6875 47.703125 
L 2.6875 54.6875 
L 9.28125 54.6875 
L 9.28125 70.21875 
z
" id="DejaVuSans-116"/>
       <path d="M 8.5 21.578125 
L 8.5 54.6875 
L 17.484375 54.6875 
L 17.484375 21.921875 
Q 17.484375 14.15625 20.5 10.265625 
Q 23.53125 6.390625 29.59375 6.390625 
Q 36.859375 6.390625 41.078125 11.03125 
Q 45.3125 15.671875 45.3125 23.6875 
L 45.3125 54.6875 
L 54.296875 54.6875 
L 54.296875 0 
L 45.3125 0 
L 45.3125 8.40625 
Q 42.046875 3.421875 37.71875 1 
Q 33.40625 -1.421875 27.6875 -1.421875 
Q 18.265625 -1.421875 13.375 4.4375 
Q 8.5 10.296875 8.5 21.578125 
z
M 31.109375 56 
z
" id="DejaVuSans-117"/>
       <path d="M 52 44.1875 
Q 55.375 50.25 60.0625 53.125 
Q 64.75 56 71.09375 56 
Q 79.640625 56 84.28125 50.015625 
Q 88.921875 44.046875 88.921875 33.015625 
L 88.921875 0 
L 79.890625 0 
L 79.890625 32.71875 
Q 79.890625 40.578125 77.09375 44.375 
Q 74.3125 48.1875 68.609375 48.1875 
Q 61.625 48.1875 57.5625 43.546875 
Q 53.515625 38.921875 53.515625 30.90625 
L 53.515625 0 
L 44.484375 0 
L 44.484375 32.71875 
Q 44.484375 40.625 41.703125 44.40625 
Q 38.921875 48.1875 33.109375 48.1875 
Q 26.21875 48.1875 22.15625 43.53125 
Q 18.109375 38.875 18.109375 30.90625 
L 18.109375 0 
L 9.078125 0 
L 9.078125 54.6875 
L 18.109375 54.6875 
L 18.109375 46.1875 
Q 21.1875 51.21875 25.484375 53.609375 
Q 29.78125 56 35.6875 56 
Q 41.65625 56 45.828125 52.96875 
Q 50 49.953125 52 44.1875 
z
" id="DejaVuSans-109"/>
      </defs>
      <use xlink:href="#DejaVuSans-68"/>
      <use x="77.001953" xlink:href="#DejaVuSans-97"/>
      <use x="138.28125" xlink:href="#DejaVuSans-116"/>
      <use x="177.490234" xlink:href="#DejaVuSans-117"/>
      <use x="240.869141" xlink:href="#DejaVuSans-109"/>
     </g>
    </g>
   </g>
   <g id="matplotlib.axis_2">
    <g id="ytick_1">
     <g id="line2d_19">
      <path clip-path="url(#p7999de4686)" d="M 90 307.876759 
L 648 307.876759 
" style="fill:none;stroke:#808080;stroke-dasharray:6.4,1.6,1,1.6;stroke-dashoffset:0;stroke-opacity:0.3;"/>
     </g>
     <g id="line2d_20">
      <defs>
       <path d="M 0 0 
L -3.5 0 
" id="mc3de4eebb0" style="stroke:#000000;stroke-width:0.8;"/>
      </defs>
      <g>
       <use style="stroke:#000000;stroke-width:0.8;" x="90" xlink:href="#mc3de4eebb0" y="307.876759"/>
      </g>
     </g>
     <g id="text_11">
      <!-- 0 -->
      <g transform="translate(76.6375 311.675978)scale(0.1 -0.1)">
       <use xlink:href="#DejaVuSans-48"/>
      </g>
     </g>
    </g>
    <g id="ytick_2">
     <g id="line2d_21">
      <path clip-path="url(#p7999de4686)" d="M 90 269.497228 
L 648 269.497228 
" style="fill:none;stroke:#808080;stroke-dasharray:6.4,1.6,1,1.6;stroke-dashoffset:0;stroke-opacity:0.3;"/>
     </g>
     <g id="line2d_22">
      <g>
       <use style="stroke:#000000;stroke-width:0.8;" x="90" xlink:href="#mc3de4eebb0" y="269.497228"/>
      </g>
     </g>
     <g id="text_12">
      <!-- 500 -->
      <g transform="translate(63.9125 273.296447)scale(0.1 -0.1)">
       <defs>
        <path d="M 10.796875 72.90625 
L 49.515625 72.90625 
L 49.515625 64.59375 
L 19.828125 64.59375 
L 19.828125 46.734375 
Q 21.96875 47.46875 24.109375 47.828125 
Q 26.265625 48.1875 28.421875 48.1875 
Q 40.625 48.1875 47.75 41.5 
Q 54.890625 34.8125 54.890625 23.390625 
Q 54.890625 11.625 47.5625 5.09375 
Q 40.234375 -1.421875 26.90625 -1.421875 
Q 22.3125 -1.421875 17.546875 -0.640625 
Q 12.796875 0.140625 7.71875 1.703125 
L 7.71875 11.625 
Q 12.109375 9.234375 16.796875 8.0625 
Q 21.484375 6.890625 26.703125 6.890625 
Q 35.15625 6.890625 40.078125 11.328125 
Q 45.015625 15.765625 45.015625 23.390625 
Q 45.015625 31 40.078125 35.4375 
Q 35.15625 39.890625 26.703125 39.890625 
Q 22.75 39.890625 18.8125 39.015625 
Q 14.890625 38.140625 10.796875 36.28125 
z
" id="DejaVuSans-53"/>
       </defs>
       <use xlink:href="#DejaVuSans-53"/>
       <use x="63.623047" xlink:href="#DejaVuSans-48"/>
       <use x="127.246094" xlink:href="#DejaVuSans-48"/>
      </g>
     </g>
    </g>
    <g id="ytick_3">
     <g id="line2d_23">
      <path clip-path="url(#p7999de4686)" d="M 90 231.117697 
L 648 231.117697 
" style="fill:none;stroke:#808080;stroke-dasharray:6.4,1.6,1,1.6;stroke-dashoffset:0;stroke-opacity:0.3;"/>
     </g>
     <g id="line2d_24">
      <g>
       <use style="stroke:#000000;stroke-width:0.8;" x="90" xlink:href="#mc3de4eebb0" y="231.117697"/>
      </g>
     </g>
     <g id="text_13">
      <!-- 1000 -->
      <g transform="translate(57.55 234.916916)scale(0.1 -0.1)">
       <use xlink:href="#DejaVuSans-49"/>
       <use x="63.623047" xlink:href="#DejaVuSans-48"/>
       <use x="127.246094" xlink:href="#DejaVuSans-48"/>
       <use x="190.869141" xlink:href="#DejaVuSans-48"/>
      </g>
     </g>
    </g>
    <g id="ytick_4">
     <g id="line2d_25">
      <path clip-path="url(#p7999de4686)" d="M 90 192.738166 
L 648 192.738166 
" style="fill:none;stroke:#808080;stroke-dasharray:6.4,1.6,1,1.6;stroke-dashoffset:0;stroke-opacity:0.3;"/>
     </g>
     <g id="line2d_26">
      <g>
       <use style="stroke:#000000;stroke-width:0.8;" x="90" xlink:href="#mc3de4eebb0" y="192.738166"/>
      </g>
     </g>
     <g id="text_14">
      <!-- 1500 -->
      <g transform="translate(57.55 196.537385)scale(0.1 -0.1)">
       <use xlink:href="#DejaVuSans-49"/>
       <use x="63.623047" xlink:href="#DejaVuSans-53"/>
       <use x="127.246094" xlink:href="#DejaVuSans-48"/>
       <use x="190.869141" xlink:href="#DejaVuSans-48"/>
      </g>
     </g>
    </g>
    <g id="ytick_5">
     <g id="line2d_27">
      <path clip-path="url(#p7999de4686)" d="M 90 154.358635 
L 648 154.358635 
" style="fill:none;stroke:#808080;stroke-dasharray:6.4,1.6,1,1.6;stroke-dashoffset:0;stroke-opacity:0.3;"/>
     </g>
     <g id="line2d_28">
      <g>
       <use style="stroke:#000000;stroke-width:0.8;" x="90" xlink:href="#mc3de4eebb0" y="154.358635"/>
      </g>
     </g>
     <g id="text_15">
      <!-- 2000 -->
      <g transform="translate(57.55 158.157854)scale(0.1 -0.1)">
       <use xlink:href="#DejaVuSans-50"/>
       <use x="63.623047" xlink:href="#DejaVuSans-48"/>
       <use x="127.246094" xlink:href="#DejaVuSans-48"/>
       <use x="190.869141" xlink:href="#DejaVuSans-48"/>
      </g>
     </g>
    </g>
    <g id="ytick_6">
     <g id="line2d_29">
      <path clip-path="url(#p7999de4686)" d="M 90 115.979104 
L 648 115.979104 
" style="fill:none;stroke:#808080;stroke-dasharray:6.4,1.6,1,1.6;stroke-dashoffset:0;stroke-opacity:0.3;"/>
     </g>
     <g id="line2d_30">
      <g>
       <use style="stroke:#000000;stroke-width:0.8;" x="90" xlink:href="#mc3de4eebb0" y="115.979104"/>
      </g>
     </g>
     <g id="text_16">
      <!-- 2500 -->
      <g transform="translate(57.55 119.778323)scale(0.1 -0.1)">
       <use xlink:href="#DejaVuSans-50"/>
       <use x="63.623047" xlink:href="#DejaVuSans-53"/>
       <use x="127.246094" xlink:href="#DejaVuSans-48"/>
       <use x="190.869141" xlink:href="#DejaVuSans-48"/>
      </g>
     </g>
    </g>
    <g id="ytick_7">
     <g id="line2d_31">
      <path clip-path="url(#p7999de4686)" d="M 90 77.599574 
L 648 77.599574 
" style="fill:none;stroke:#808080;stroke-dasharray:6.4,1.6,1,1.6;stroke-dashoffset:0;stroke-opacity:0.3;"/>
     </g>
     <g id="line2d_32">
      <g>
       <use style="stroke:#000000;stroke-width:0.8;" x="90" xlink:href="#mc3de4eebb0" y="77.599574"/>
      </g>
     </g>
     <g id="text_17">
      <!-- 3000 -->
      <g transform="translate(57.55 81.398792)scale(0.1 -0.1)">
       <defs>
        <path d="M 40.578125 39.3125 
Q 47.65625 37.796875 51.625 33 
Q 55.609375 28.21875 55.609375 21.1875 
Q 55.609375 10.40625 48.1875 4.484375 
Q 40.765625 -1.421875 27.09375 -1.421875 
Q 22.515625 -1.421875 17.65625 -0.515625 
Q 12.796875 0.390625 7.625 2.203125 
L 7.625 11.71875 
Q 11.71875 9.328125 16.59375 8.109375 
Q 21.484375 6.890625 26.8125 6.890625 
Q 36.078125 6.890625 40.9375 10.546875 
Q 45.796875 14.203125 45.796875 21.1875 
Q 45.796875 27.640625 41.28125 31.265625 
Q 36.765625 34.90625 28.71875 34.90625 
L 20.21875 34.90625 
L 20.21875 43.015625 
L 29.109375 43.015625 
Q 36.375 43.015625 40.234375 45.921875 
Q 44.09375 48.828125 44.09375 54.296875 
Q 44.09375 59.90625 40.109375 62.90625 
Q 36.140625 65.921875 28.71875 65.921875 
Q 24.65625 65.921875 20.015625 65.03125 
Q 15.375 64.15625 9.8125 62.3125 
L 9.8125 71.09375 
Q 15.4375 72.65625 20.34375 73.4375 
Q 25.25 74.21875 29.59375 74.21875 
Q 40.828125 74.21875 47.359375 69.109375 
Q 53.90625 64.015625 53.90625 55.328125 
Q 53.90625 49.265625 50.4375 45.09375 
Q 46.96875 40.921875 40.578125 39.3125 
z
" id="DejaVuSans-51"/>
       </defs>
       <use xlink:href="#DejaVuSans-51"/>
       <use x="63.623047" xlink:href="#DejaVuSans-48"/>
       <use x="127.246094" xlink:href="#DejaVuSans-48"/>
       <use x="190.869141" xlink:href="#DejaVuSans-48"/>
      </g>
     </g>
    </g>
   </g>
   <g id="line2d_33">
    <path clip-path="url(#p7999de4686)" d="M 115.363636 303.194456 
L 115.988356 302.88742 
L 116.613077 302.88742 
L 117.237797 302.350107 
L 117.862517 301.505757 
L 118.487237 300.968443 
L 119.111957 300.047335 
L 119.736677 299.356503 
L 120.361397 297.97484 
L 120.986117 297.360768 
L 121.610837 295.902345 
L 122.860278 292.21791 
L 123.484998 289.454584 
L 124.109718 286.153945 
L 124.734438 280.857569 
L 125.359158 277.863966 
L 125.983878 274.179531 
L 126.608598 263.970576 
L 127.233318 257.522814 
L 127.858039 247.697655 
L 129.107479 218.452452 
L 129.732199 212.311727 
L 130.356919 204.482303 
L 130.981639 179.38209 
L 132.231079 143.228571 
L 132.855799 128.107036 
L 133.480519 108.072921 
L 134.10524 112.831983 
L 134.72996 116.439659 
L 135.35468 105.232836 
L 135.9794 110.836247 
L 136.60412 118.205117 
L 137.22884 119.970576 
L 137.85356 119.510021 
L 138.47828 135.706183 
L 139.103 139.467377 
L 139.727721 130.25629 
L 140.977161 151.748827 
L 141.601881 165.258422 
L 142.226601 172.089979 
L 142.851321 186.443923 
L 143.476041 190.742431 
L 144.100761 191.356503 
L 144.725481 190.435394 
L 145.350202 197.113433 
L 145.974922 205.55693 
L 146.599642 208.78081 
L 147.224362 219.603838 
L 147.849082 221.522814 
L 148.473802 218.60597 
L 149.098522 222.213646 
L 149.723242 228.354371 
L 150.347962 231.578252 
L 150.972682 235.953518 
L 151.597403 245.855437 
L 152.222123 248.08145 
L 152.846843 249.232836 
L 153.471563 247.927932 
L 154.096283 252.456716 
L 154.721003 254.375693 
L 155.345723 258.520682 
L 155.970443 264.891684 
L 156.595163 266.119829 
L 157.219884 262.358635 
L 157.844604 267.501493 
L 158.469324 266.426866 
L 159.094044 268.422601 
L 159.718764 268.49936 
L 160.343484 272.183795 
L 160.968204 273.565458 
L 161.592924 271.339446 
L 163.467085 278.094243 
L 164.091805 279.706183 
L 164.716525 283.006823 
L 165.341245 281.932196 
L 165.965965 279.475906 
L 166.590685 281.318124 
L 167.215405 282.392751 
L 167.840125 285.002559 
L 168.464845 282.699787 
L 169.089566 285.463113 
L 169.714286 286.077186 
L 170.339006 283.390618 
L 170.963726 283.851173 
L 171.588446 286.153945 
L 172.213166 287.765885 
L 172.837886 287.612367 
L 173.462606 288.917271 
L 174.087326 289.301066 
L 174.712047 288.99403 
L 175.336767 287.30533 
L 175.961487 287.919403 
L 177.210927 290.375693 
L 177.835647 292.985501 
L 179.085087 292.985501 
L 179.709807 294.520682 
L 180.334528 295.748827 
L 180.959248 295.441791 
L 181.583968 296.132623 
L 182.208688 297.591045 
L 182.833408 297.667804 
L 183.458128 297.437527 
L 184.082848 297.437527 
L 184.707568 298.051599 
L 185.332288 297.97484 
L 185.957009 298.281876 
L 186.581729 299.740299 
L 187.206449 299.663539 
L 187.831169 299.433262 
L 188.455889 299.356503 
L 189.080609 299.433262 
L 189.705329 298.895949 
L 190.330049 299.202985 
L 190.954769 300.814925 
L 191.579489 300.507889 
L 192.20421 299.817058 
L 192.82893 300.891684 
L 193.45365 301.045203 
L 194.07837 301.582516 
L 194.70309 301.582516 
L 195.32781 302.350107 
L 197.20197 301.659275 
L 197.826691 301.812793 
L 198.451411 301.812793 
L 199.076131 301.045203 
L 199.700851 301.659275 
L 200.325571 301.659275 
L 200.950291 301.121962 
L 201.575011 301.045203 
L 202.199731 301.582516 
L 202.824451 301.889552 
L 203.449172 302.04307 
L 204.073892 301.505757 
L 205.323332 301.045203 
L 205.948052 301.045203 
L 206.572772 301.889552 
L 207.197492 301.352239 
L 207.822212 301.582516 
L 209.071652 301.198721 
L 209.696373 300.584648 
L 210.321093 300.354371 
L 210.945813 301.045203 
L 212.195253 300.43113 
L 212.819973 300.354371 
L 214.069413 298.81919 
L 214.694133 299.356503 
L 215.318854 299.740299 
L 215.943574 299.817058 
L 217.193014 298.742431 
L 217.817734 297.744563 
L 218.442454 296.976972 
L 219.067174 295.441791 
L 219.691894 295.211514 
L 220.316614 295.288273 
L 221.566055 295.979104 
L 222.190775 295.365032 
L 222.815495 294.060128 
L 223.440215 294.443923 
L 224.064935 294.213646 
L 224.689655 293.522814 
L 225.314375 293.983369 
L 225.939095 295.51855 
L 226.563815 295.441791 
L 227.188536 295.134755 
L 227.813256 294.6742 
L 228.437976 295.441791 
L 229.062696 296.593177 
L 229.687416 296.439659 
L 230.312136 297.744563 
L 230.936856 297.591045 
L 231.561576 296.746695 
L 232.186296 296.823454 
L 232.811017 296.3629 
L 233.435737 296.746695 
L 234.060457 296.209382 
L 234.685177 296.209382 
L 237.184057 290.60597 
L 237.808777 291.066525 
L 238.433498 289.531343 
L 239.058218 289.76162 
L 239.682938 288.763753 
L 240.307658 285.616631 
L 240.932378 285.002559 
L 241.557098 282.930064 
L 242.181818 281.471642 
L 242.806538 278.554797 
L 244.055979 275.637953 
L 244.680699 271.646482 
L 245.305419 269.420469 
L 246.554859 262.358635 
L 247.179579 260.209382 
L 247.804299 260.593177 
L 248.429019 258.060128 
L 249.053739 253.83838 
L 249.678459 250.998294 
L 250.30318 249.616631 
L 250.9279 247.390618 
L 252.17734 244.089979 
L 252.80206 241.019616 
L 253.42678 233.036674 
L 254.0515 229.582516 
L 254.67622 227.817058 
L 255.30094 225.591045 
L 255.925661 219.834115 
L 256.550381 221.215778 
L 257.175101 216.763753 
L 257.799821 205.480171 
L 258.424541 198.034542 
L 259.049261 198.495096 
L 259.673981 196.345842 
L 260.298701 192.584648 
L 260.923421 193.27548 
L 261.548142 190.665672 
L 262.172862 178.998294 
L 262.797582 174.46951 
L 263.422302 171.936461 
L 264.671742 160.192324 
L 265.296462 165.565458 
L 265.921182 160.115565 
L 266.545902 147.757356 
L 267.170622 147.143284 
L 267.795343 148.831983 
L 268.420063 151.057996 
L 269.044783 149.522814 
L 269.669503 155.58678 
L 270.294223 153.898081 
L 270.918943 137.855437 
L 271.543663 141.923667 
L 273.417824 158.273348 
L 274.042544 169.787207 
L 274.667264 171.322388 
L 275.291984 160.192324 
L 275.916704 165.028145 
L 277.166144 172.397015 
L 277.790864 173.855437 
L 278.415584 184.21791 
L 279.040305 184.601706 
L 279.665025 173.318124 
L 280.289745 175.544136 
L 281.539185 184.678465 
L 282.788625 199.032409 
L 283.413345 196.422601 
L 284.038065 186.443923 
L 284.662785 190.051599 
L 285.287506 195.424733 
L 285.912226 194.964179 
L 286.536946 195.655011 
L 287.161666 203.330917 
L 287.786386 202.947122 
L 288.411106 196.422601 
L 289.035826 199.953518 
L 289.660546 202.793603 
L 290.285266 202.179531 
L 290.909987 199.646482 
L 291.534707 203.330917 
L 292.159427 200.183795 
L 292.784147 191.740299 
L 294.033587 194.196588 
L 294.658307 194.426866 
L 295.283027 188.900213 
L 295.907747 190.972708 
L 296.532468 186.904478 
L 297.157188 173.701919 
L 297.781908 174.085714 
L 298.406628 172.01322 
L 299.031348 168.635821 
L 299.656068 164.490832 
L 300.280788 171.859701 
L 300.905508 170.785075 
L 301.530228 155.663539 
L 302.154948 154.281876 
L 302.779669 152.286141 
L 303.404389 150.827719 
L 304.029109 158.580384 
L 304.653829 155.510021 
L 305.278549 148.601706 
L 305.903269 126.95565 
L 306.527989 128.567591 
L 307.152709 131.714712 
L 307.777429 137.778678 
L 308.40215 150.290405 
L 309.02687 146.452452 
L 309.65159 144.610235 
L 310.27631 135.015352 
L 310.90103 137.62516 
L 312.77519 151.134755 
L 313.39991 164.567591 
L 314.024631 163.8 
L 314.649351 153.591045 
L 316.523511 167.714712 
L 317.148231 169.096375 
L 317.772951 178.921535 
L 318.397671 182.375693 
L 319.022391 172.704051 
L 319.647112 173.701919 
L 320.271832 179.458849 
L 320.896552 179.38209 
L 321.521272 180.99403 
L 322.145992 186.904478 
L 322.770712 186.136887 
L 323.395432 178.844776 
L 324.020152 182.375693 
L 324.644872 187.134755 
L 325.269592 190.358635 
L 325.894313 189.514286 
L 326.519033 194.88742 
L 327.143753 192.200853 
L 327.768473 184.064392 
L 328.393193 186.597441 
L 329.017913 190.972708 
L 329.642633 193.505757 
L 330.267353 194.196588 
L 330.892073 203.791471 
L 331.516794 205.096375 
L 332.141514 197.036674 
L 332.766234 199.032409 
L 333.390954 198.95565 
L 334.015674 199.953518 
L 334.640394 201.718977 
L 335.265114 209.241365 
L 335.889834 208.704051 
L 336.514554 199.953518 
L 337.763995 202.409808 
L 338.388715 201.795736 
L 339.013435 203.407676 
L 339.638155 210.776546 
L 340.262875 210.853305 
L 340.887595 202.333049 
L 341.512315 203.177399 
L 342.137035 204.482303 
L 342.761755 207.475906 
L 343.386476 208.397015 
L 344.011196 212.772281 
L 344.635916 211.544136 
L 345.260636 202.026013 
L 345.885356 203.484435 
L 346.510076 207.16887 
L 347.134796 208.627292 
L 347.759516 209.778678 
L 348.384236 216.14968 
L 349.008957 214.53774 
L 349.633677 205.863966 
L 350.258397 205.787207 
L 350.883117 208.01322 
L 351.507837 208.78081 
L 352.132557 208.397015 
L 352.757277 211.2371 
L 353.381997 209.241365 
L 354.006717 200.030277 
L 354.631438 199.723241 
L 355.256158 200.721109 
L 355.880878 197.497228 
L 356.505598 196.652878 
L 357.130318 199.953518 
L 357.755038 196.345842 
L 358.379758 185.983369 
L 359.004478 188.593177 
L 359.629198 188.055864 
L 360.253918 188.439659 
L 360.878639 186.750959 
L 361.503359 192.43113 
L 362.128079 190.895949 
L 362.752799 176.465245 
L 363.377519 178.230704 
L 364.002239 181.301066 
L 364.626959 180.14968 
L 365.251679 185.446055 
L 365.876399 192.814925 
L 366.50112 191.817058 
L 367.12584 186.443923 
L 367.75056 178.230704 
L 368.37528 178.691258 
L 369 181.454584 
L 369.62472 179.842644 
L 370.24944 186.750959 
L 370.87416 185.753092 
L 371.49888 180.14968 
L 372.123601 184.29467 
L 372.748321 186.443923 
L 373.373041 188.055864 
L 373.997761 185.292537 
L 374.622481 191.433262 
L 375.247201 189.207249 
L 375.871921 173.932196 
L 376.496641 173.471642 
L 377.121361 173.394883 
L 377.746082 173.471642 
L 378.370802 175.620896 
L 378.995522 184.831983 
L 379.620242 182.759488 
L 380.244962 169.480171 
L 380.869682 176.465245 
L 381.494402 167.10064 
L 382.119122 164.490832 
L 382.743842 166.102772 
L 383.368562 175.620896 
L 383.993283 179.458849 
L 384.618003 171.475906 
L 385.242723 175.774414 
L 385.867443 185.06226 
L 386.492163 183.603838 
L 387.116883 182.836247 
L 387.741603 192.124094 
L 388.366323 194.273348 
L 388.991043 187.057996 
L 389.615764 191.663539 
L 390.240484 197.497228 
L 390.865204 206.171002 
L 391.489924 201.028145 
L 392.114644 209.932196 
L 392.739364 211.851173 
L 393.364084 205.173134 
L 393.988804 208.78081 
L 394.613524 215.842644 
L 395.862965 222.060128 
L 396.487685 230.657143 
L 397.112405 233.190192 
L 397.737125 233.650746 
L 398.361845 231.578252 
L 399.611285 242.247761 
L 400.236005 245.241365 
L 400.860725 252.072921 
L 401.485446 254.145416 
L 402.110166 251.842644 
L 403.359606 259.134755 
L 403.984326 262.051599 
L 404.609046 261.667804 
L 405.233766 264.814925 
L 405.858486 265.27548 
L 406.483206 264.507889 
L 407.107927 267.040938 
L 407.732647 271.262687 
L 408.982087 275.637953 
L 409.606807 279.399147 
L 410.231527 279.399147 
L 410.856247 277.55693 
L 411.480967 280.857569 
L 412.105687 282.46951 
L 412.730408 282.776546 
L 413.355128 283.2371 
L 413.979848 285.386354 
L 414.604568 285.616631 
L 415.229288 285.616631 
L 415.854008 287.689126 
L 416.478728 288.379957 
L 417.103448 289.991898 
L 418.352888 291.987633 
L 418.977609 291.910874 
L 419.602329 292.448188 
L 420.227049 292.524947 
L 420.851769 293.599574 
L 421.476489 293.446055 
L 422.101209 294.136887 
L 422.725929 294.597441 
L 423.975369 294.060128 
L 424.60009 294.750959 
L 425.22481 294.827719 
L 425.84953 294.290405 
L 426.47425 294.136887 
L 427.09897 293.676333 
L 428.34841 291.757356 
L 428.97313 291.143284 
L 430.847291 285.846908 
L 431.472011 284.618763 
L 432.096731 281.471642 
L 432.721451 277.326652 
L 433.346171 274.563326 
L 433.970891 273.795736 
L 434.595611 272.797868 
L 435.220331 269.881023 
L 436.469772 268.345842 
L 437.094492 263.893817 
L 437.719212 262.435394 
L 438.343932 262.435394 
L 438.968652 261.821322 
L 439.593372 261.514286 
L 440.218092 263.202985 
L 440.842812 262.128358 
L 441.467532 260.209382 
L 442.092253 263.58678 
L 442.716973 265.812793 
L 443.341693 266.964179 
L 443.966413 267.578252 
L 444.591133 268.806397 
L 445.215853 269.727505 
L 445.840573 268.883156 
L 446.465293 268.729638 
L 447.090013 270.111301 
L 447.714734 269.266951 
L 448.339454 267.885288 
L 448.964174 268.49936 
L 449.588894 267.117697 
L 450.213614 264.584648 
L 451.463054 267.117697 
L 452.087774 267.347974 
L 452.712494 268.192324 
L 453.337215 270.802132 
L 453.961935 269.113433 
L 454.586655 266.733902 
L 455.836095 269.190192 
L 456.460815 269.266951 
L 457.085535 269.190192 
L 457.710255 270.802132 
L 458.334975 270.111301 
L 458.959695 267.501493 
L 459.584416 269.34371 
L 460.209136 269.957783 
L 460.833856 270.034542 
L 461.458576 269.113433 
L 462.083296 270.648614 
L 462.708016 270.802132 
L 463.332736 269.34371 
L 463.957456 268.652878 
L 464.582176 268.345842 
L 465.206897 269.804264 
L 466.456337 270.95565 
L 467.081057 270.18806 
L 467.705777 268.652878 
L 468.330497 269.727505 
L 468.955217 271.723241 
L 470.204657 273.104904 
L 470.829378 274.870362 
L 471.454098 275.330917 
L 472.078818 274.102772 
L 473.328258 277.633689 
L 473.952978 278.094243 
L 474.577698 279.015352 
L 475.202418 280.704051 
L 475.827138 280.166738 
L 476.451858 277.863966 
L 477.076579 278.017484 
L 477.701299 278.631557 
L 478.950739 277.019616 
L 479.575459 278.708316 
L 480.200179 277.863966 
L 480.824899 274.640085 
L 481.449619 273.949254 
L 482.074339 273.028145 
L 482.69906 273.642217 
L 483.32378 272.874627 
L 483.9485 273.104904 
L 484.57322 271.569723 
L 485.19794 268.345842 
L 485.82266 266.04307 
L 486.44738 264.507889 
L 487.0721 263.433262 
L 487.69682 261.821322 
L 488.321541 262.128358 
L 488.946261 259.825586 
L 489.570981 255.220043 
L 490.195701 253.454584 
L 491.445141 248.542004 
L 492.069861 247.390618 
L 492.694581 247.006823 
L 493.319301 244.78081 
L 493.944021 238.563326 
L 494.568742 236.797868 
L 496.442902 221.369296 
L 497.067622 219.987633 
L 497.692342 215.765885 
L 498.317062 205.096375 
L 498.941782 201.335181 
L 499.566502 202.179531 
L 500.191223 200.64435 
L 500.815943 196.192324 
L 501.440663 199.492964 
L 502.065383 193.889552 
L 502.690103 180.99403 
L 503.939543 179.38209 
L 505.188983 172.550533 
L 505.813704 173.164606 
L 506.438424 166.640085 
L 507.063144 152.900213 
L 507.687864 149.983369 
L 508.312584 150.367164 
L 508.937304 149.90661 
L 509.562024 142.614499 
L 510.186744 147.757356 
L 510.811464 142.307463 
L 511.436185 127.109168 
L 512.060905 124.576119 
L 512.685625 125.881023 
L 513.310345 123.347974 
L 513.935065 119.663539 
L 514.559785 130.640085 
L 515.184505 126.418337 
L 515.809225 111.45032 
L 516.433945 112.371429 
L 517.683386 119.817058 
L 518.308106 122.964179 
L 518.932826 133.326652 
L 519.557546 133.326652 
L 520.182266 122.273348 
L 520.806986 122.810661 
L 521.431706 122.657143 
L 522.056426 125.881023 
L 522.681146 126.495096 
L 523.305867 137.62516 
L 523.930587 137.471642 
L 524.555307 131.791471 
L 525.180027 137.548401 
L 526.429467 152.439659 
L 527.054187 158.426866 
L 527.678907 170.631557 
L 528.303627 171.399147 
L 528.928348 162.034542 
L 529.553068 166.793603 
L 530.802508 179.151812 
L 531.427228 182.375693 
L 532.051948 195.271215 
L 532.676668 196.038806 
L 533.301388 186.827719 
L 533.926108 186.597441 
L 535.175549 195.347974 
L 535.800269 201.181663 
L 536.424989 210.239232 
L 537.049709 208.397015 
L 537.674429 200.337313 
L 538.299149 201.642217 
L 538.923869 205.480171 
L 539.548589 207.859701 
L 540.173309 205.710448 
L 540.79803 213.846908 
L 541.42275 212.08145 
L 542.04747 204.789339 
L 543.29691 214.614499 
L 543.92163 217.070789 
L 544.54635 217.991898 
L 545.17107 222.597441 
L 545.79579 222.520682 
L 546.420511 215.38209 
L 547.045231 218.529211 
L 547.669951 216.763753 
L 548.294671 215.842644 
L 548.919391 214.077186 
L 549.544111 216.917271 
L 550.168831 213.002559 
L 550.793551 205.249893 
L 551.418271 205.326652 
L 552.042991 203.330917 
L 553.292432 200.414072 
L 553.917152 202.793603 
L 554.541872 199.109168 
L 555.166592 187.595309 
L 555.791312 182.452452 
L 556.416032 180.840512 
L 557.040752 182.068657 
L 557.665472 179.535608 
L 558.290193 189.207249 
L 558.914913 184.678465 
L 559.539633 174.162473 
L 560.164353 173.318124 
L 560.789073 173.932196 
L 561.413793 175.160341 
L 562.038513 174.008955 
L 562.663233 180.763753 
L 563.287953 181.224307 
L 563.912674 167.714712 
L 564.537394 165.104904 
L 565.786834 169.326652 
L 566.411554 168.021748 
L 567.036274 174.623028 
L 567.660994 174.699787 
L 568.285714 166.563326 
L 568.910434 166.793603 
L 570.159875 176.004691 
L 570.784595 177.002559 
L 571.409315 186.136887 
L 572.034035 187.288273 
L 572.658755 176.388486 
L 573.283475 174.162473 
L 573.908195 170.32452 
L 574.532915 169.326652 
L 575.157635 168.559062 
L 575.782356 174.853305 
L 576.407076 167.86823 
L 577.031796 152.439659 
L 577.656516 148.21791 
L 578.281236 148.678465 
L 578.905956 144.456716 
L 579.530676 143.38209 
L 580.155396 150.290405 
L 580.780116 142.000426 
L 581.404837 127.953518 
L 582.029557 126.341578 
L 582.654277 123.271215 
L 583.278997 125.190192 
L 583.903717 129.104904 
L 584.528437 139.774414 
L 585.153157 136.857569 
L 585.777877 119.893817 
L 586.402597 121.966311 
L 587.027318 124.959915 
L 587.652038 129.795736 
L 588.276758 129.718977 
L 588.901478 142.998294 
L 589.526198 142.307463 
L 590.150918 127.953518 
L 591.400358 132.328785 
L 592.025078 141.69339 
L 592.649798 145.83838 
L 593.274519 157.27548 
L 593.899239 156.814925 
L 594.523959 146.836247 
L 595.148679 150.827719 
L 595.773399 156.661407 
L 597.022839 164.260554 
L 597.647559 174.546269 
L 598.272279 174.162473 
L 598.897 170.938593 
L 600.14644 182.068657 
L 600.77116 185.139019 
L 602.0206 198.878891 
L 602.64532 200.260554 
L 603.27004 198.878891 
L 603.89476 195.347974 
L 604.519481 198.111301 
L 605.768921 207.245629 
L 606.393641 213.386354 
L 607.018361 212.234968 
L 607.643081 208.857569 
L 608.267801 211.313859 
L 608.892521 218.298934 
L 609.517241 217.454584 
L 610.141961 221.369296 
L 610.766682 227.510021 
L 611.391402 226.358635 
L 612.016122 223.057996 
L 612.640842 224.286141 
L 613.265562 227.126226 
L 613.890282 231.040938 
L 614.515002 231.424733 
L 615.139722 235.492964 
L 615.764442 234.418337 
L 616.389163 232.422601 
L 617.013883 232.652878 
L 617.638603 236.183795 
L 618.263323 237.41194 
L 618.888043 239.637953 
L 619.512763 242.785075 
L 620.137483 242.478038 
L 620.762203 239.484435 
L 621.386923 240.482303 
L 622.636364 244.627292 
L 622.636364 244.627292 
" style="fill:none;stroke:#ff0000;stroke-linecap:square;stroke-width:1.5;"/>
   </g>
   <g id="line2d_34">
    <path clip-path="url(#p7999de4686)" d="M 115.363636 307.8 
L 115.988356 307.185928 
L 116.613077 307.109168 
L 117.237797 306.341578 
L 117.862517 305.266951 
L 118.487237 304.806397 
L 120.986117 300.738166 
L 121.610837 299.58678 
L 122.860278 294.520682 
L 123.484998 291.373561 
L 125.359158 275.330917 
L 125.983878 269.497228 
L 127.233318 248.388486 
L 127.858039 233.727505 
L 129.107479 194.119829 
L 130.356919 164.260554 
L 130.981639 135.629424 
L 132.231079 92.107036 
L 132.855799 81.284009 
L 133.480519 60.252026 
L 134.10524 55.8 
L 134.72996 55.8 
L 135.35468 59.791471 
L 137.22884 92.414072 
L 137.85356 113.599574 
L 138.47828 110.60597 
L 139.103 133.633689 
L 139.727721 84.354371 
L 140.352441 99.629424 
L 140.977161 88.038806 
L 141.601881 98.094243 
L 142.226601 102.546269 
L 142.851321 101.778678 
L 143.476041 113.522814 
L 144.100761 122.503625 
L 144.725481 124.345842 
L 145.350202 127.109168 
L 145.974922 125.420469 
L 146.599642 132.405544 
L 147.224362 133.940725 
L 147.849082 142.921535 
L 148.473802 141.69339 
L 149.098522 142.307463 
L 149.723242 149.06226 
L 150.347962 165.41194 
L 150.972682 172.397015 
L 151.597403 173.855437 
L 152.222123 177.079318 
L 152.846843 183.066525 
L 153.471563 187.441791 
L 154.096283 186.981237 
L 154.721003 194.964179 
L 155.345723 195.194456 
L 155.970443 193.198721 
L 156.595163 201.949254 
L 157.219884 205.55693 
L 157.844604 205.55693 
L 158.469324 204.098507 
L 159.094044 209.164606 
L 159.718764 216.610235 
L 160.343484 220.985501 
L 160.968204 226.972708 
L 161.592924 222.060128 
L 162.217644 222.6742 
L 162.842365 228.738166 
L 163.467085 228.891684 
L 164.091805 232.576119 
L 164.716525 233.34371 
L 165.341245 237.335181 
L 165.965965 238.102772 
L 166.590685 236.260554 
L 167.840125 237.949254 
L 169.089566 245.62516 
L 169.714286 251.842644 
L 170.339006 249.846908 
L 170.963726 254.298934 
L 171.588446 252.379957 
L 172.213166 254.529211 
L 172.837886 260.439659 
L 173.462606 262.665672 
L 174.087326 266.119829 
L 174.712047 266.273348 
L 175.336767 268.269083 
L 175.961487 269.804264 
L 177.210927 271.876759 
L 178.460367 273.872495 
L 179.085087 277.173134 
L 179.709807 281.318124 
L 180.334528 282.315991 
L 180.959248 285.079318 
L 181.583968 286.460981 
L 182.208688 285.69339 
L 182.833408 286.614499 
L 183.458128 286.307463 
L 184.082848 286.384222 
L 184.707568 285.69339 
L 185.957009 289.83838 
L 186.581729 290.989765 
L 187.206449 290.913006 
L 187.831169 292.985501 
L 188.455889 291.680597 
L 189.080609 292.755224 
L 189.705329 294.213646 
L 190.330049 293.292537 
L 190.954769 294.060128 
L 191.579489 294.213646 
L 192.20421 295.825586 
L 192.82893 295.595309 
L 193.45365 296.3629 
L 195.32781 302.119829 
L 195.95253 301.198721 
L 196.57725 301.659275 
L 197.20197 301.812793 
L 198.451411 302.503625 
L 199.076131 302.580384 
L 200.950291 300.661407 
L 201.575011 300.661407 
L 202.199731 301.352239 
L 202.824451 301.736034 
L 203.449172 302.273348 
L 204.073892 301.889552 
L 204.698612 302.273348 
L 205.948052 300.968443 
L 206.572772 301.352239 
L 207.197492 300.891684 
L 207.822212 302.196588 
L 208.446932 300.891684 
L 209.071652 302.733902 
L 209.696373 302.503625 
L 210.321093 301.966311 
L 210.945813 303.040938 
L 211.570533 302.810661 
L 212.195253 302.273348 
L 212.819973 302.733902 
L 213.444693 302.503625 
L 214.069413 301.582516 
L 214.694133 301.505757 
L 215.318854 301.121962 
L 215.943574 301.812793 
L 216.568294 301.889552 
L 217.193014 301.812793 
L 217.817734 301.198721 
L 218.442454 300.277612 
L 219.067174 300.43113 
L 219.691894 298.895949 
L 220.316614 298.128358 
L 220.941335 298.665672 
L 221.566055 298.358635 
L 222.190775 298.512154 
L 223.440215 297.97484 
L 224.064935 298.281876 
L 224.689655 297.284009 
L 225.314375 297.667804 
L 226.563815 297.97484 
L 227.188536 298.588913 
L 228.437976 298.665672 
L 229.062696 299.663539 
L 229.687416 300.200853 
L 230.312136 300.507889 
L 230.936856 300.661407 
L 232.186296 300.738166 
L 232.811017 300.968443 
L 233.435737 300.584648 
L 234.060457 300.584648 
L 234.685177 300.277612 
L 235.309897 299.817058 
L 235.934617 299.510021 
L 238.433498 297.437527 
L 239.058218 297.284009 
L 239.682938 296.516418 
L 240.932378 293.522814 
L 241.557098 293.215778 
L 242.806538 290.222175 
L 243.431258 287.919403 
L 244.055979 286.691258 
L 244.680699 282.930064 
L 245.305419 282.623028 
L 245.930139 279.399147 
L 246.554859 277.55693 
L 247.179579 274.793603 
L 247.804299 274.640085 
L 248.429019 270.264819 
L 249.678459 265.582516 
L 250.30318 265.582516 
L 250.9279 266.503625 
L 251.55262 263.893817 
L 252.17734 262.972708 
L 253.42678 252.99403 
L 254.0515 247.620896 
L 254.67622 245.62516 
L 255.30094 243.245629 
L 256.550381 234.571855 
L 257.175101 232.192324 
L 257.799821 227.58678 
L 258.424541 220.908742 
L 259.673981 214.768017 
L 260.298701 215.151812 
L 260.923421 214.53774 
L 263.422302 193.27548 
L 264.047022 189.667804 
L 264.671742 184.985501 
L 265.296462 183.987633 
L 265.921182 180.686994 
L 267.170622 167.484435 
L 267.795343 167.330917 
L 268.420063 167.330917 
L 269.044783 168.328785 
L 270.918943 157.582516 
L 271.543663 150.981237 
L 272.168383 157.428998 
L 273.417824 166.486567 
L 274.042544 171.092111 
L 274.667264 177.616631 
L 275.291984 176.08145 
L 275.916704 177.616631 
L 276.541424 179.612367 
L 277.166144 184.601706 
L 277.790864 187.211514 
L 278.415584 190.435394 
L 279.040305 192.047335 
L 279.665025 188.3629 
L 280.289745 187.365032 
L 280.914465 190.588913 
L 282.163905 199.339446 
L 282.788625 204.098507 
L 284.038065 197.957783 
L 284.662785 200.490832 
L 285.287506 207.322388 
L 285.912226 211.390618 
L 286.536946 211.851173 
L 287.161666 215.765885 
L 287.786386 216.226439 
L 288.411106 212.695522 
L 289.035826 215.38209 
L 289.660546 221.06226 
L 290.285266 220.601706 
L 290.909987 219.45032 
L 291.534707 221.139019 
L 292.159427 217.915139 
L 292.784147 216.533475 
L 293.408867 213.002559 
L 294.033587 214.921535 
L 294.658307 217.377825 
L 296.532468 210.392751 
L 297.157188 202.793603 
L 297.781908 198.111301 
L 298.406628 197.497228 
L 299.031348 195.271215 
L 300.280788 192.354371 
L 300.905508 190.205117 
L 301.530228 186.904478 
L 302.154948 177.156077 
L 302.779669 178.460981 
L 303.404389 176.465245 
L 304.029109 177.079318 
L 304.653829 174.776546 
L 305.278549 169.940725 
L 305.903269 160.345842 
L 306.527989 148.448188 
L 307.152709 154.205117 
L 307.777429 146.375693 
L 308.40215 157.659275 
L 309.02687 153.97484 
L 309.65159 153.898081 
L 310.27631 144.379957 
L 310.90103 142.153945 
L 311.52575 144.303198 
L 312.15047 150.367164 
L 312.77519 159.271215 
L 313.39991 164.030277 
L 314.024631 165.872495 
L 314.649351 160.038806 
L 315.274071 158.580384 
L 315.898791 168.098507 
L 316.523511 168.635821 
L 317.148231 170.938593 
L 317.772951 177.846908 
L 318.397671 176.772281 
L 319.022391 174.008955 
L 319.647112 172.243497 
L 320.271832 176.695522 
L 320.896552 179.919403 
L 321.521272 178.614499 
L 322.145992 182.529211 
L 322.770712 179.919403 
L 323.395432 175.851173 
L 324.020152 177.002559 
L 325.269592 185.446055 
L 325.894313 187.211514 
L 326.519033 185.06226 
L 327.143753 187.134755 
L 327.768473 182.682729 
L 328.393193 181.991898 
L 329.017913 184.985501 
L 329.642633 191.279744 
L 330.892073 197.650746 
L 331.516794 196.959915 
L 332.141514 193.352239 
L 332.766234 195.808529 
L 333.390954 196.038806 
L 335.265114 206.171002 
L 335.889834 205.863966 
L 336.514554 201.488699 
L 337.139275 200.414072 
L 337.763995 200.490832 
L 338.388715 199.8 
L 339.013435 197.881023 
L 339.638155 205.326652 
L 340.262875 206.938593 
L 341.512315 202.026013 
L 342.137035 204.252026 
L 342.761755 203.407676 
L 343.386476 205.096375 
L 344.011196 208.78081 
L 344.635916 206.401279 
L 345.260636 202.333049 
L 345.885356 197.036674 
L 346.510076 200.64435 
L 347.759516 202.716844 
L 348.384236 206.478038 
L 349.008957 207.629424 
L 349.633677 204.482303 
L 350.258397 199.876759 
L 350.883117 204.021748 
L 351.507837 204.021748 
L 352.132557 205.480171 
L 352.757277 206.478038 
L 353.381997 202.870362 
L 354.006717 196.192324 
L 354.631438 196.49936 
L 355.256158 198.571855 
L 355.880878 197.650746 
L 356.505598 195.655011 
L 357.130318 196.959915 
L 357.755038 195.655011 
L 358.379758 188.516418 
L 359.004478 186.981237 
L 359.629198 187.979104 
L 360.253918 187.134755 
L 360.878639 185.369296 
L 362.128079 185.599574 
L 363.377519 175.2371 
L 364.002239 180.99403 
L 365.251679 183.143284 
L 365.876399 183.987633 
L 366.50112 186.060128 
L 367.12584 182.913006 
L 367.75056 173.701919 
L 368.37528 171.092111 
L 369 175.313859 
L 369.62472 176.542004 
L 370.24944 177.079318 
L 370.87416 175.160341 
L 371.49888 170.631557 
L 372.123601 172.78081 
L 372.748321 176.234968 
L 373.373041 178.307463 
L 373.997761 177.539872 
L 374.622481 183.066525 
L 375.247201 179.689126 
L 375.871921 175.006823 
L 376.496641 167.407676 
L 377.121361 170.32452 
L 377.746082 166.409808 
L 378.995522 177.539872 
L 379.620242 178.077186 
L 380.244962 172.857569 
L 381.494402 169.940725 
L 382.119122 162.725373 
L 382.743842 162.111301 
L 383.368562 167.637953 
L 383.993283 170.017484 
L 384.618003 168.405544 
L 385.242723 170.094243 
L 385.867443 176.234968 
L 386.492163 174.008955 
L 387.116883 175.544136 
L 387.741603 177.386354 
L 388.366323 179.842644 
L 388.991043 175.083582 
L 389.615764 174.930064 
L 390.865204 192.891684 
L 391.489924 191.049467 
L 392.114644 194.810661 
L 392.739364 195.347974 
L 393.364084 192.584648 
L 393.988804 192.507889 
L 394.613524 203.10064 
L 395.238245 209.778678 
L 395.862965 214.691258 
L 396.487685 221.215778 
L 397.112405 223.134755 
L 397.737125 223.672068 
L 398.361845 223.288273 
L 398.986565 226.588913 
L 399.611285 233.34371 
L 400.236005 237.335181 
L 400.860725 242.401279 
L 401.485446 243.322388 
L 402.110166 242.631557 
L 402.734886 247.006823 
L 403.359606 248.849041 
L 403.984326 253.83838 
L 404.609046 255.066525 
L 405.233766 257.369296 
L 406.483206 257.983369 
L 407.107927 260.593177 
L 407.732647 267.194456 
L 409.606807 276.942857 
L 410.856247 275.791471 
L 411.480967 277.55693 
L 412.105687 279.782942 
L 412.730408 281.241365 
L 413.355128 283.697655 
L 415.229288 285.309595 
L 415.854008 286.614499 
L 417.103448 289.915139 
L 418.352888 292.678465 
L 418.977609 292.21791 
L 419.602329 293.369296 
L 420.227049 293.90661 
L 420.851769 294.981237 
L 421.476489 295.672068 
L 422.101209 297.13049 
L 422.725929 298.051599 
L 423.350649 298.205117 
L 423.975369 298.205117 
L 424.60009 299.510021 
L 425.22481 300.047335 
L 425.84953 299.740299 
L 426.47425 298.665672 
L 427.09897 298.435394 
L 427.72369 298.81919 
L 428.34841 297.97484 
L 428.97313 297.97484 
L 429.59785 297.284009 
L 430.222571 295.748827 
L 430.847291 293.292537 
L 431.472011 291.987633 
L 432.096731 289.83838 
L 433.346171 283.697655 
L 433.346171 283.697655 
" style="fill:none;stroke:#ffa500;stroke-linecap:square;stroke-width:1.5;"/>
   </g>
   <g id="line2d_35">
    <path clip-path="url(#p7999de4686)" d="M 147.224362 280.550533 
L 147.849082 281.394883 
L 148.473802 281.471642 
L 149.098522 277.326652 
L 149.723242 277.55693 
L 150.347962 278.017484 
L 150.972682 278.094243 
L 151.597403 278.32452 
L 152.222123 277.55693 
L 152.846843 279.706183 
L 154.096283 274.793603 
L 154.721003 274.716844 
L 155.345723 275.177399 
L 155.970443 275.791471 
L 156.595163 278.554797 
L 157.219884 278.938593 
L 157.844604 277.633689 
L 158.469324 277.403412 
L 159.094044 274.102772 
L 159.718764 276.098507 
L 160.343484 273.335181 
L 161.592924 278.094243 
L 162.217644 272.414072 
L 162.842365 271.492964 
L 163.467085 269.727505 
L 164.091805 267.424733 
L 164.716525 267.808529 
L 165.341245 270.878891 
L 165.965965 271.262687 
L 166.590685 267.73177 
L 167.215405 267.424733 
L 167.840125 266.350107 
L 168.464845 270.95565 
L 169.089566 269.113433 
L 170.339006 270.034542 
L 170.963726 269.573987 
L 171.588446 267.808529 
L 172.213166 264.968443 
L 172.837886 265.736034 
L 173.462606 267.117697 
L 174.087326 269.420469 
L 175.336767 271.339446 
L 175.961487 268.422601 
L 176.586207 264.354371 
L 177.210927 266.196588 
L 177.835647 265.736034 
L 178.460367 269.34371 
L 179.085087 266.964179 
L 179.709807 267.885288 
L 180.334528 266.810661 
L 180.959248 266.119829 
L 182.208688 263.970576 
L 182.833408 268.269083 
L 183.458128 267.962047 
L 184.082848 264.124094 
L 184.707568 263.202985 
L 185.332288 264.277612 
L 185.957009 262.435394 
L 186.581729 261.667804 
L 187.206449 263.893817 
L 187.831169 268.576119 
L 188.455889 263.663539 
L 189.080609 264.507889 
L 189.705329 263.433262 
L 190.330049 263.049467 
L 190.954769 263.893817 
L 191.579489 266.350107 
L 192.20421 267.424733 
L 192.82893 264.968443 
L 194.07837 262.895949 
L 194.70309 262.81919 
L 195.32781 263.817058 
L 195.95253 266.196588 
L 196.57725 266.580384 
L 197.20197 266.657143 
L 197.826691 263.663539 
L 198.451411 262.895949 
L 199.076131 264.200853 
L 199.700851 264.738166 
L 200.325571 266.04307 
L 200.950291 267.885288 
L 201.575011 266.350107 
L 202.199731 263.893817 
L 202.824451 263.510021 
L 203.449172 263.510021 
L 204.073892 262.895949 
L 204.698612 264.277612 
L 205.323332 264.354371 
L 206.572772 262.358635 
L 207.197492 263.126226 
L 207.822212 262.435394 
L 208.446932 262.128358 
L 209.071652 264.277612 
L 209.696373 268.269083 
L 210.321093 266.580384 
L 210.945813 265.812793 
L 211.570533 264.584648 
L 212.195253 263.893817 
L 212.819973 264.277612 
L 214.069413 266.503625 
L 214.694133 264.584648 
L 215.318854 263.049467 
L 215.943574 261.97484 
L 216.568294 264.584648 
L 217.193014 263.663539 
L 217.817734 266.04307 
L 218.442454 264.047335 
L 219.067174 263.126226 
L 219.691894 260.823454 
L 220.316614 260.900213 
L 220.941335 263.510021 
L 221.566055 263.126226 
L 222.190775 263.510021 
L 222.815495 264.507889 
L 223.440215 261.514286 
L 224.064935 260.439659 
L 224.689655 262.281876 
L 225.314375 261.591045 
L 225.939095 262.512154 
L 226.563815 264.507889 
L 227.188536 265.505757 
L 227.813256 261.744563 
L 228.437976 260.132623 
L 229.062696 260.823454 
L 229.687416 261.284009 
L 230.312136 263.58678 
L 230.936856 265.045203 
L 231.561576 265.659275 
L 232.186296 262.665672 
L 232.811017 260.516418 
L 233.435737 262.435394 
L 234.060457 261.514286 
L 234.685177 262.051599 
L 235.934617 265.505757 
L 236.559337 259.365032 
L 237.184057 260.593177 
L 237.808777 261.360768 
L 238.433498 261.13049 
L 239.058218 262.128358 
L 239.682938 263.970576 
L 240.307658 264.738166 
L 240.932378 260.209382 
L 241.557098 258.290405 
L 242.181818 259.057996 
L 242.806538 260.669936 
L 244.680699 266.810661 
L 245.305419 259.748827 
L 245.930139 259.134755 
L 246.554859 259.057996 
L 247.179579 262.742431 
L 247.804299 261.821322 
L 248.429019 264.968443 
L 249.053739 267.271215 
L 249.678459 262.81919 
L 250.9279 260.976972 
L 251.55262 262.281876 
L 252.17734 264.047335 
L 252.80206 266.733902 
L 253.42678 268.269083 
L 254.0515 263.663539 
L 254.67622 263.356503 
L 255.30094 264.661407 
L 255.925661 264.584648 
L 256.550381 267.962047 
L 257.175101 270.341578 
L 257.799821 269.957783 
L 258.424541 266.273348 
L 259.049261 267.424733 
L 259.673981 269.266951 
L 260.298701 267.655011 
L 261.548142 272.567591 
L 262.172862 273.718977 
L 262.797582 271.032409 
L 263.422302 272.874627 
L 264.047022 272.567591 
L 264.671742 271.339446 
L 265.296462 274.793603 
L 265.921182 275.714712 
L 266.545902 274.793603 
L 267.170622 272.874627 
L 267.795343 272.414072 
L 268.420063 271.8 
L 269.044783 273.565458 
L 269.669503 273.181663 
L 270.294223 273.642217 
L 270.918943 276.021748 
L 271.543663 273.41194 
L 272.168383 271.416205 
L 273.417824 271.262687 
L 274.042544 272.107036 
L 274.667264 274.793603 
L 275.291984 273.795736 
L 275.916704 270.495096 
L 276.541424 271.032409 
L 277.166144 269.804264 
L 277.790864 270.648614 
L 278.415584 272.797868 
L 279.040305 274.333049 
L 279.665025 272.337313 
L 280.289745 271.569723 
L 281.539185 269.420469 
L 282.163905 269.804264 
L 282.788625 271.416205 
L 283.413345 273.565458 
L 284.038065 273.258422 
L 284.662785 270.18806 
L 285.287506 268.345842 
L 285.912226 268.269083 
L 286.536946 268.49936 
L 287.786386 273.335181 
L 288.411106 271.416205 
L 289.035826 269.036674 
L 290.285266 265.121962 
L 290.909987 265.659275 
L 291.534707 268.269083 
L 292.159427 269.34371 
L 292.784147 269.420469 
L 293.408867 265.428998 
L 294.033587 265.505757 
L 294.658307 266.964179 
L 295.283027 265.889552 
L 296.532468 271.185928 
L 297.157188 267.73177 
L 297.781908 267.194456 
L 298.406628 266.119829 
L 299.031348 268.959915 
L 299.656068 269.727505 
L 300.280788 270.802132 
L 300.905508 274.793603 
L 301.530228 274.947122 
L 302.154948 271.876759 
L 302.779669 274.179531 
L 303.404389 274.409808 
L 304.029109 275.86823 
L 304.653829 279.322388 
L 305.278549 278.171002 
L 305.903269 279.475906 
L 306.527989 275.944989 
L 307.152709 275.484435 
L 307.777429 276.405544 
L 308.40215 278.017484 
L 309.02687 278.785075 
L 309.65159 280.243497 
L 310.90103 277.480171 
L 311.52575 274.486567 
L 312.15047 275.637953 
L 312.77519 275.177399 
L 313.39991 275.637953 
L 314.024631 278.785075 
L 314.649351 278.478038 
L 315.274071 275.86823 
L 315.898791 275.944989 
L 316.523511 273.104904 
L 317.148231 273.181663 
L 317.772951 274.026013 
L 318.397671 277.710448 
L 319.022391 277.326652 
L 319.647112 273.795736 
L 320.271832 273.565458 
L 320.896552 272.567591 
L 321.521272 272.874627 
L 322.145992 272.64435 
L 322.770712 275.944989 
L 323.395432 275.944989 
L 324.020152 272.107036 
L 324.644872 270.111301 
L 325.269592 269.881023 
L 325.894313 272.721109 
L 326.519033 271.723241 
L 327.143753 273.028145 
L 327.768473 275.177399 
L 328.393193 271.723241 
L 329.642633 270.571855 
L 330.267353 270.264819 
L 330.892073 270.418337 
L 331.516794 272.414072 
L 332.141514 272.951386 
L 332.766234 272.951386 
L 333.390954 268.652878 
L 334.015674 268.192324 
L 334.640394 269.113433 
L 335.265114 267.808529 
L 335.889834 271.8 
L 337.139275 267.347974 
L 337.763995 268.269083 
L 338.388715 268.652878 
L 339.013435 268.345842 
L 339.638155 269.34371 
L 340.262875 272.490832 
L 340.887595 274.179531 
L 341.512315 271.032409 
L 342.137035 268.883156 
L 342.761755 269.573987 
L 343.386476 270.034542 
L 344.011196 271.8 
L 344.635916 277.096375 
L 345.260636 274.563326 
L 345.885356 272.567591 
L 346.510076 272.951386 
L 347.134796 270.648614 
L 347.759516 270.18806 
L 348.384236 271.032409 
L 349.008957 274.793603 
L 349.633677 272.797868 
L 350.258397 269.650746 
L 350.883117 270.95565 
L 351.507837 270.341578 
L 352.132557 269.420469 
L 352.757277 271.109168 
L 353.381997 275.023881 
L 354.006717 274.026013 
L 354.631438 271.569723 
L 355.256158 270.18806 
L 355.880878 271.262687 
L 356.505598 271.032409 
L 357.130318 272.874627 
L 357.755038 276.559062 
L 359.004478 271.416205 
L 359.629198 270.802132 
L 360.878639 272.567591 
L 361.503359 273.181663 
L 362.128079 277.019616 
L 362.752799 274.793603 
L 363.377519 273.104904 
L 364.002239 274.179531 
L 364.626959 274.640085 
L 365.876399 276.635821 
L 366.50112 279.706183 
L 367.12584 279.552665 
L 367.75056 278.171002 
L 368.37528 274.947122 
L 369 274.486567 
L 369.62472 275.561194 
L 370.24944 276.866098 
L 370.87416 279.092111 
L 371.49888 278.171002 
L 372.123601 273.028145 
L 372.748321 274.870362 
L 373.373041 275.561194 
L 373.997761 275.177399 
L 374.622481 276.175267 
L 375.247201 278.938593 
L 375.871921 277.633689 
L 376.496641 275.254158 
L 377.121361 275.023881 
L 377.746082 275.714712 
L 378.370802 274.026013 
L 379.620242 278.631557 
L 380.244962 276.866098 
L 380.869682 275.637953 
L 381.494402 276.71258 
L 382.119122 274.102772 
L 383.368562 276.942857 
L 383.993283 279.782942 
L 384.618003 279.782942 
L 385.242723 276.559062 
L 385.867443 276.71258 
L 386.492163 276.482303 
L 387.116883 276.942857 
L 387.741603 276.71258 
L 388.991043 278.32452 
L 389.615764 273.795736 
L 390.240484 271.262687 
L 390.865204 275.484435 
L 391.489924 276.098507 
L 392.114644 273.949254 
L 392.739364 274.947122 
L 393.364084 275.10064 
L 393.988804 271.339446 
L 394.613524 271.109168 
L 395.238245 270.571855 
L 395.862965 271.416205 
L 397.112405 276.098507 
L 397.737125 275.944989 
L 398.361845 274.026013 
L 398.986565 268.959915 
L 399.611285 267.885288 
L 400.236005 266.196588 
L 400.860725 267.808529 
L 401.485446 271.109168 
L 402.734886 268.729638 
L 403.359606 268.115565 
L 403.984326 266.350107 
L 404.609046 265.352239 
L 405.233766 267.117697 
L 405.858486 269.266951 
L 406.483206 271.953518 
L 407.107927 268.269083 
L 407.732647 267.117697 
L 408.357367 265.352239 
L 408.982087 264.507889 
L 409.606807 266.350107 
L 410.231527 267.501493 
L 410.856247 267.655011 
L 411.480967 266.350107 
L 412.105687 261.667804 
L 412.730408 263.356503 
L 413.355128 264.507889 
L 415.229288 266.350107 
L 415.854008 263.893817 
L 416.478728 263.510021 
L 417.103448 264.047335 
L 417.728168 261.898081 
L 418.977609 265.659275 
L 419.602329 268.269083 
L 420.227049 263.58678 
L 420.851769 262.895949 
L 421.476489 263.817058 
L 422.101209 263.58678 
L 422.725929 264.584648 
L 423.350649 266.88742 
L 423.975369 263.740299 
L 424.60009 263.126226 
L 425.22481 261.284009 
L 425.84953 261.360768 
L 426.47425 262.051599 
L 427.09897 260.746695 
L 427.72369 264.814925 
L 428.34841 266.810661 
L 428.97313 263.049467 
L 429.59785 262.512154 
L 430.222571 260.823454 
L 430.847291 262.051599 
L 431.472011 263.970576 
L 432.096731 266.810661 
L 432.721451 267.424733 
L 433.346171 266.196588 
L 433.346171 266.196588 
" style="fill:none;stroke:#0000ff;stroke-linecap:square;stroke-width:1.5;"/>
   </g>
   <g id="line2d_36">
    <path clip-path="url(#p7999de4686)" d="M 115.363636 307.339446 
L 118.487237 306.95565 
L 119.111957 306.725373 
L 119.736677 306.725373 
L 120.361397 306.418337 
L 120.986117 306.264819 
L 122.860278 304.883156 
L 123.484998 304.192324 
L 124.109718 302.657143 
L 124.734438 301.812793 
L 125.359158 300.507889 
L 125.983878 298.665672 
L 127.233318 294.136887 
L 127.858039 290.375693 
L 128.482759 285.846908 
L 129.732199 274.870362 
L 130.356919 271.032409 
L 132.855799 243.552665 
L 133.480519 236.721109 
L 134.10524 231.73177 
L 134.72996 228.200853 
L 135.35468 221.446055 
L 135.9794 216.456716 
L 136.60412 215.151812 
L 137.22884 212.004691 
L 137.85356 209.932196 
L 138.47828 203.484435 
L 139.727721 199.723241 
L 140.352441 198.571855 
L 140.977161 199.8 
L 141.601881 199.109168 
L 142.226601 201.642217 
L 142.851321 201.104904 
L 143.476041 203.637953 
L 144.100761 205.173134 
L 144.725481 207.859701 
L 146.599642 213.079318 
L 147.224362 215.689126 
L 147.849082 217.608102 
L 148.473802 218.989765 
L 149.098522 224.439659 
L 150.347962 230.503625 
L 150.972682 233.957783 
L 151.597403 234.264819 
L 152.846843 238.409808 
L 153.471563 241.787207 
L 154.096283 246.162473 
L 154.721003 247.774414 
L 155.345723 251.458849 
L 155.970443 253.531343 
L 156.595163 255.066525 
L 157.219884 255.45032 
L 157.844604 258.443923 
L 158.469324 259.672068 
L 159.094044 263.049467 
L 160.343484 266.350107 
L 160.968204 268.959915 
L 161.592924 269.650746 
L 162.842365 274.716844 
L 163.467085 276.405544 
L 164.716525 281.318124 
L 165.341245 281.087846 
L 167.215405 286.768017 
L 167.840125 288.303198 
L 168.464845 288.533475 
L 169.089566 290.452452 
L 169.714286 290.759488 
L 170.339006 290.759488 
L 170.963726 293.446055 
L 171.588446 293.369296 
L 172.213166 293.90661 
L 172.837886 294.060128 
L 174.087326 295.672068 
L 174.712047 295.748827 
L 175.336767 296.055864 
L 175.961487 298.972708 
L 176.586207 299.202985 
L 177.210927 300.43113 
L 178.460367 300.507889 
L 179.085087 300.814925 
L 179.709807 300.891684 
L 180.334528 301.736034 
L 181.583968 302.273348 
L 182.208688 301.966311 
L 182.833408 301.812793 
L 183.458128 301.198721 
L 184.082848 301.889552 
L 185.332288 302.733902 
L 185.957009 303.501493 
L 186.581729 303.501493 
L 187.206449 303.655011 
L 187.831169 303.347974 
L 188.455889 304.192324 
L 189.705329 304.115565 
L 190.954769 305.650746 
L 192.20421 305.420469 
L 192.82893 305.650746 
L 193.45365 305.727505 
L 194.07837 305.957783 
L 194.70309 306.341578 
L 195.32781 306.495096 
L 195.95253 306.495096 
L 196.57725 306.111301 
L 197.20197 306.034542 
L 197.826691 306.341578 
L 198.451411 306.264819 
L 199.076131 305.957783 
L 199.700851 305.881023 
L 200.325571 306.034542 
L 200.950291 306.034542 
L 201.575011 306.264819 
L 202.199731 306.341578 
L 202.824451 306.725373 
L 204.073892 306.648614 
L 204.698612 306.571855 
L 205.948052 306.725373 
L 206.572772 306.571855 
L 207.197492 306.725373 
L 208.446932 306.495096 
L 209.071652 306.648614 
L 209.696373 306.264819 
L 211.570533 306.802132 
L 212.195253 306.418337 
L 212.819973 306.18806 
L 213.444693 306.264819 
L 214.069413 305.804264 
L 214.694133 305.881023 
L 215.318854 305.573987 
L 217.193014 305.727505 
L 217.817734 305.497228 
L 218.442454 305.650746 
L 219.067174 305.573987 
L 219.691894 305.190192 
L 220.316614 305.497228 
L 220.941335 304.959915 
L 221.566055 304.883156 
L 222.190775 305.113433 
L 223.440215 304.652878 
L 224.689655 304.883156 
L 225.314375 304.576119 
L 229.062696 305.113433 
L 229.687416 305.266951 
L 230.936856 305.34371 
L 231.561576 304.959915 
L 232.186296 305.34371 
L 232.811017 305.420469 
L 233.435737 305.727505 
L 234.060457 305.190192 
L 234.685177 305.190192 
L 236.559337 305.573987 
L 237.184057 305.497228 
L 237.808777 305.573987 
L 238.433498 305.113433 
L 239.058218 305.036674 
L 239.682938 305.113433 
L 240.307658 304.576119 
L 240.932378 303.808529 
L 241.557098 303.73177 
L 242.181818 304.115565 
L 244.680699 301.352239 
L 245.305419 300.891684 
L 245.930139 299.893817 
L 246.554859 299.740299 
L 247.179579 298.972708 
L 248.429019 298.128358 
L 249.053739 296.976972 
L 249.678459 296.976972 
L 250.30318 296.3629 
L 250.9279 296.209382 
L 251.55262 295.595309 
L 252.17734 295.902345 
L 252.80206 295.365032 
L 254.0515 293.292537 
L 255.30094 290.375693 
L 255.925661 289.531343 
L 256.550381 289.83838 
L 257.175101 288.917271 
L 257.799821 288.533475 
L 259.049261 284.772281 
L 259.673981 283.851173 
L 260.298701 281.394883 
L 260.923421 280.857569 
L 261.548142 279.936461 
L 262.172862 278.785075 
L 262.797582 275.714712 
L 263.422302 273.335181 
L 264.047022 272.337313 
L 264.671742 271.646482 
L 265.296462 269.420469 
L 265.921182 270.264819 
L 266.545902 269.036674 
L 267.170622 267.271215 
L 267.795343 266.04307 
L 268.420063 265.428998 
L 269.044783 264.354371 
L 269.669503 263.049467 
L 270.294223 263.126226 
L 270.918943 262.81919 
L 271.543663 261.13049 
L 272.168383 260.900213 
L 273.417824 261.591045 
L 274.042544 261.667804 
L 274.667264 261.97484 
L 275.291984 261.821322 
L 275.916704 261.97484 
L 276.541424 261.360768 
L 277.166144 262.205117 
L 277.790864 261.13049 
L 278.415584 262.205117 
L 279.040305 262.895949 
L 279.665025 263.893817 
L 280.289745 263.663539 
L 280.914465 264.968443 
L 281.539185 265.27548 
L 282.163905 265.889552 
L 282.788625 265.659275 
L 283.413345 266.426866 
L 284.038065 266.733902 
L 284.662785 267.501493 
L 285.287506 267.271215 
L 286.536946 268.115565 
L 287.161666 268.652878 
L 287.786386 269.036674 
L 288.411106 270.95565 
L 289.660546 271.416205 
L 290.285266 272.721109 
L 290.909987 271.569723 
L 291.534707 271.646482 
L 292.159427 271.876759 
L 292.784147 271.8 
L 293.408867 272.260554 
L 294.033587 271.569723 
L 294.658307 271.876759 
L 295.283027 271.646482 
L 295.907747 270.95565 
L 296.532468 269.727505 
L 297.157188 269.266951 
L 297.781908 267.655011 
L 298.406628 267.501493 
L 299.031348 266.733902 
L 300.280788 264.891684 
L 300.905508 263.356503 
L 301.530228 262.895949 
L 302.154948 262.895949 
L 302.779669 261.207249 
L 303.404389 262.128358 
L 304.029109 261.821322 
L 305.278549 259.441791 
L 307.152709 253.224307 
L 307.777429 252.303198 
L 308.40215 253.915139 
L 309.02687 254.298934 
L 309.65159 253.83838 
L 310.27631 252.99403 
L 310.90103 251.765885 
L 311.52575 253.83838 
L 312.15047 253.224307 
L 312.77519 253.531343 
L 313.39991 254.145416 
L 314.024631 253.301066 
L 315.274071 254.529211 
L 315.898791 254.145416 
L 316.523511 254.682729 
L 317.148231 254.913006 
L 317.772951 256.371429 
L 318.397671 255.987633 
L 319.022391 254.913006 
L 319.647112 255.45032 
L 320.271832 255.757356 
L 322.145992 256.21791 
L 322.770712 255.680597 
L 323.395432 256.908742 
L 324.020152 256.141151 
L 324.644872 257.90661 
L 325.269592 258.367164 
L 325.894313 257.292537 
L 326.519033 258.750959 
L 327.143753 258.290405 
L 327.768473 258.827719 
L 328.393193 259.595309 
L 329.017913 260.823454 
L 329.642633 261.667804 
L 330.892073 265.889552 
L 331.516794 266.810661 
L 332.766234 265.659275 
L 333.390954 266.964179 
L 334.015674 266.657143 
L 334.640394 266.88742 
L 335.265114 266.580384 
L 335.889834 267.194456 
L 336.514554 266.733902 
L 337.139275 267.501493 
L 337.763995 267.962047 
L 338.388715 267.73177 
L 339.013435 268.729638 
L 340.262875 266.88742 
L 340.887595 264.814925 
L 341.512315 266.580384 
L 342.137035 266.964179 
L 342.761755 267.501493 
L 343.386476 267.578252 
L 344.011196 268.115565 
L 346.510076 265.736034 
L 347.134796 266.503625 
L 349.008957 266.04307 
L 349.633677 265.045203 
L 350.258397 265.198721 
L 350.883117 264.891684 
L 351.507837 263.970576 
L 352.132557 263.663539 
L 352.757277 265.352239 
L 353.381997 265.352239 
L 354.006717 264.584648 
L 354.631438 262.895949 
L 355.256158 264.277612 
L 355.880878 264.584648 
L 356.505598 263.433262 
L 357.130318 261.667804 
L 357.755038 260.976972 
L 358.379758 258.904478 
L 359.004478 260.055864 
L 359.629198 259.902345 
L 360.253918 260.3629 
L 360.878639 259.902345 
L 361.503359 258.520682 
L 362.128079 257.599574 
L 362.752799 256.064392 
L 363.377519 255.527079 
L 364.002239 255.603838 
L 364.626959 255.066525 
L 365.251679 253.76162 
L 365.876399 251.535608 
L 366.50112 251.842644 
L 367.12584 250.614499 
L 367.75056 250.307463 
L 369 246.623028 
L 369.62472 247.697655 
L 370.24944 247.467377 
L 370.87416 247.390618 
L 371.49888 246.930064 
L 372.123601 246.930064 
L 372.748321 247.697655 
L 373.373041 247.313859 
L 373.997761 247.083582 
L 374.622481 246.315991 
L 375.871921 245.471642 
L 376.496641 244.704051 
L 377.121361 244.78081 
L 377.746082 243.475906 
L 378.370802 243.629424 
L 378.995522 245.241365 
L 379.620242 243.322388 
L 380.244962 245.471642 
L 380.869682 244.934328 
L 381.494402 245.394883 
L 382.119122 245.471642 
L 382.743842 245.932196 
L 383.368562 245.62516 
L 383.993283 246.162473 
L 384.618003 244.550533 
L 385.242723 245.087846 
L 385.867443 244.166738 
L 386.492163 245.932196 
L 387.116883 246.699787 
L 387.741603 248.158209 
L 388.991043 249.770149 
L 390.240484 251.228571 
L 391.489924 251.996162 
L 392.114644 253.377825 
L 392.739364 255.220043 
L 393.364084 255.603838 
L 393.988804 258.290405 
L 394.613524 258.981237 
L 395.862965 261.207249 
L 396.487685 261.667804 
L 397.112405 261.053731 
L 397.737125 261.97484 
L 400.236005 267.885288 
L 400.860725 269.573987 
L 401.485446 270.571855 
L 402.110166 271.262687 
L 403.359606 275.637953 
L 403.984326 277.633689 
L 404.609046 278.938593 
L 405.233766 280.934328 
L 405.858486 281.471642 
L 406.483206 281.548401 
L 407.107927 283.2371 
L 407.732647 284.542004 
L 408.357367 285.079318 
L 408.982087 286.307463 
L 409.606807 287.228571 
L 410.231527 287.535608 
L 410.856247 287.689126 
L 412.730408 290.529211 
L 413.355128 291.143284 
L 415.229288 292.755224 
L 415.854008 293.676333 
L 417.103448 295.748827 
L 417.728168 296.593177 
L 418.352888 297.053731 
L 419.602329 296.976972 
L 420.227049 298.128358 
L 420.851769 298.051599 
L 422.725929 300.047335 
L 423.350649 300.277612 
L 423.975369 299.433262 
L 424.60009 299.970576 
L 425.22481 299.893817 
L 425.84953 300.968443 
L 427.09897 301.582516 
L 427.72369 301.121962 
L 428.34841 301.428998 
L 428.97313 302.119829 
L 430.222571 302.350107 
L 431.472011 301.966311 
L 432.096731 302.04307 
L 432.721451 301.428998 
L 433.346171 300.200853 
L 433.346171 300.200853 
" style="fill:none;stroke:#00ffff;stroke-linecap:square;stroke-width:1.5;"/>
   </g>
   <g id="patch_3">
    <path d="M 90 320.4 
L 90 43.2 
" style="fill:none;stroke:#000000;stroke-linecap:square;stroke-linejoin:miter;stroke-width:0.8;"/>
   </g>
   <g id="patch_4">
    <path d="M 648 320.4 
L 648 43.2 
" style="fill:none;stroke:#000000;stroke-linecap:square;stroke-linejoin:miter;stroke-width:0.8;"/>
   </g>
   <g id="patch_5">
    <path d="M 90 320.4 
L 648 320.4 
" style="fill:none;stroke:#000000;stroke-linecap:square;stroke-linejoin:miter;stroke-width:0.8;"/>
   </g>
   <g id="patch_6">
    <path d="M 90 43.2 
L 648 43.2 
" style="fill:none;stroke:#000000;stroke-linecap:square;stroke-linejoin:miter;stroke-width:0.8;"/>
   </g>
   <g id="text_18">
    <!-- Testplot -->
    <g transform="translate(345.68625 37.2)scale(0.12 -0.12)">
     <defs>
      <path d="M -0.296875 72.90625 
L 61.375 72.90625 
L 61.375 64.59375 
L 35.5 64.59375 
L 35.5 0 
L 25.59375 0 
L 25.59375 64.59375 
L -0.296875 64.59375 
z
" id="DejaVuSans-84"/>
      <path d="M 56.203125 29.59375 
L 56.203125 25.203125 
L 14.890625 25.203125 
Q 15.484375 15.921875 20.484375 11.0625 
Q 25.484375 6.203125 34.421875 6.203125 
Q 39.59375 6.203125 44.453125 7.46875 
Q 49.3125 8.734375 54.109375 11.28125 
L 54.109375 2.78125 
Q 49.265625 0.734375 44.1875 -0.34375 
Q 39.109375 -1.421875 33.890625 -1.421875 
Q 20.796875 -1.421875 13.15625 6.1875 
Q 5.515625 13.8125 5.515625 26.8125 
Q 5.515625 40.234375 12.765625 48.109375 
Q 20.015625 56 32.328125 56 
Q 43.359375 56 49.78125 48.890625 
Q 56.203125 41.796875 56.203125 29.59375 
z
M 47.21875 32.234375 
Q 47.125 39.59375 43.09375 43.984375 
Q 39.0625 48.390625 32.421875 48.390625 
Q 24.90625 48.390625 20.390625 44.140625 
Q 15.875 39.890625 15.1875 32.171875 
z
" id="DejaVuSans-101"/>
      <path d="M 44.28125 53.078125 
L 44.28125 44.578125 
Q 40.484375 46.53125 36.375 47.5 
Q 32.28125 48.484375 27.875 48.484375 
Q 21.1875 48.484375 17.84375 46.4375 
Q 14.5 44.390625 14.5 40.28125 
Q 14.5 37.15625 16.890625 35.375 
Q 19.28125 33.59375 26.515625 31.984375 
L 29.59375 31.296875 
Q 39.15625 29.25 43.1875 25.515625 
Q 47.21875 21.78125 47.21875 15.09375 
Q 47.21875 7.46875 41.1875 3.015625 
Q 35.15625 -1.421875 24.609375 -1.421875 
Q 20.21875 -1.421875 15.453125 -0.5625 
Q 10.6875 0.296875 5.421875 2 
L 5.421875 11.28125 
Q 10.40625 8.6875 15.234375 7.390625 
Q 20.0625 6.109375 24.8125 6.109375 
Q 31.15625 6.109375 34.5625 8.28125 
Q 37.984375 10.453125 37.984375 14.40625 
Q 37.984375 18.0625 35.515625 20.015625 
Q 33.0625 21.96875 24.703125 23.78125 
L 21.578125 24.515625 
Q 13.234375 26.265625 9.515625 29.90625 
Q 5.8125 33.546875 5.8125 39.890625 
Q 5.8125 47.609375 11.28125 51.796875 
Q 16.75 56 26.8125 56 
Q 31.78125 56 36.171875 55.265625 
Q 40.578125 54.546875 44.28125 53.078125 
z
" id="DejaVuSans-115"/>
      <path d="M 18.109375 8.203125 
L 18.109375 -20.796875 
L 9.078125 -20.796875 
L 9.078125 54.6875 
L 18.109375 54.6875 
L 18.109375 46.390625 
Q 20.953125 51.265625 25.265625 53.625 
Q 29.59375 56 35.59375 56 
Q 45.5625 56 51.78125 48.09375 
Q 58.015625 40.1875 58.015625 27.296875 
Q 58.015625 14.40625 51.78125 6.484375 
Q 45.5625 -1.421875 35.59375 -1.421875 
Q 29.59375 -1.421875 25.265625 0.953125 
Q 20.953125 3.328125 18.109375 8.203125 
z
M 48.6875 27.296875 
Q 48.6875 37.203125 44.609375 42.84375 
Q 40.53125 48.484375 33.40625 48.484375 
Q 26.265625 48.484375 22.1875 42.84375 
Q 18.109375 37.203125 18.109375 27.296875 
Q 18.109375 17.390625 22.1875 11.75 
Q 26.265625 6.109375 33.40625 6.109375 
Q 40.53125 6.109375 44.609375 11.75 
Q 48.6875 17.390625 48.6875 27.296875 
z
" id="DejaVuSans-112"/>
      <path d="M 9.421875 75.984375 
L 18.40625 75.984375 
L 18.40625 0 
L 9.421875 0 
z
" id="DejaVuSans-108"/>
      <path d="M 30.609375 48.390625 
Q 23.390625 48.390625 19.1875 42.75 
Q 14.984375 37.109375 14.984375 27.296875 
Q 14.984375 17.484375 19.15625 11.84375 
Q 23.34375 6.203125 30.609375 6.203125 
Q 37.796875 6.203125 41.984375 11.859375 
Q 46.1875 17.53125 46.1875 27.296875 
Q 46.1875 37.015625 41.984375 42.703125 
Q 37.796875 48.390625 30.609375 48.390625 
z
M 30.609375 56 
Q 42.328125 56 49.015625 48.375 
Q 55.71875 40.765625 55.71875 27.296875 
Q 55.71875 13.875 49.015625 6.21875 
Q 42.328125 -1.421875 30.609375 -1.421875 
Q 18.84375 -1.421875 12.171875 6.21875 
Q 5.515625 13.875 5.515625 27.296875 
Q 5.515625 40.765625 12.171875 48.375 
Q 18.84375 56 30.609375 56 
z
" id="DejaVuSans-111"/>
     </defs>
     <use xlink:href="#DejaVuSans-84"/>
     <use x="44.083984" xlink:href="#DejaVuSans-101"/>
     <use x="105.607422" xlink:href="#DejaVuSans-115"/>
     <use x="157.707031" xlink:href="#DejaVuSans-116"/>
     <use x="196.916016" xlink:href="#DejaVuSans-112"/>
     <use x="260.392578" xlink:href="#DejaVuSans-108"/>
     <use x="288.175781" xlink:href="#DejaVuSans-111"/>
     <use x="349.357422" xlink:href="#DejaVuSans-116"/>
    </g>
   </g>
   <g id="legend_1">
    <g id="patch_7">
     <path d="M 97 109.9125 
L 347.15 109.9125 
Q 349.15 109.9125 349.15 107.9125 
L 349.15 50.2 
Q 349.15 48.2 347.15 48.2 
L 97 48.2 
Q 95 48.2 95 50.2 
L 95 107.9125 
Q 95 109.9125 97 109.9125 
z
" style="fill:#ffffff;opacity:0.8;stroke:#cccccc;stroke-linejoin:miter;"/>
    </g>
    <g id="line2d_37">
     <path d="M 99 56.298437 
L 119 56.298437 
" style="fill:none;stroke:#ff0000;stroke-linecap:square;stroke-width:1.5;"/>
    </g>
    <g id="line2d_38"/>
    <g id="text_19">
     <!-- covid opgenomen patinten NICE (nu 824) -->
     <g transform="translate(127 59.798437)scale(0.1 -0.1)">
      <defs>
       <path d="M 48.78125 52.59375 
L 48.78125 44.1875 
Q 44.96875 46.296875 41.140625 47.34375 
Q 37.3125 48.390625 33.40625 48.390625 
Q 24.65625 48.390625 19.8125 42.84375 
Q 14.984375 37.3125 14.984375 27.296875 
Q 14.984375 17.28125 19.8125 11.734375 
Q 24.65625 6.203125 33.40625 6.203125 
Q 37.3125 6.203125 41.140625 7.25 
Q 44.96875 8.296875 48.78125 10.40625 
L 48.78125 2.09375 
Q 45.015625 0.34375 40.984375 -0.53125 
Q 36.96875 -1.421875 32.421875 -1.421875 
Q 20.0625 -1.421875 12.78125 6.34375 
Q 5.515625 14.109375 5.515625 27.296875 
Q 5.515625 40.671875 12.859375 48.328125 
Q 20.21875 56 33.015625 56 
Q 37.15625 56 41.109375 55.140625 
Q 45.0625 54.296875 48.78125 52.59375 
z
" id="DejaVuSans-99"/>
       <path d="M 2.984375 54.6875 
L 12.5 54.6875 
L 29.59375 8.796875 
L 46.6875 54.6875 
L 56.203125 54.6875 
L 35.6875 0 
L 23.484375 0 
z
" id="DejaVuSans-118"/>
       <path d="M 9.421875 54.6875 
L 18.40625 54.6875 
L 18.40625 0 
L 9.421875 0 
z
M 9.421875 75.984375 
L 18.40625 75.984375 
L 18.40625 64.59375 
L 9.421875 64.59375 
z
" id="DejaVuSans-105"/>
       <path d="M 45.40625 46.390625 
L 45.40625 75.984375 
L 54.390625 75.984375 
L 54.390625 0 
L 45.40625 0 
L 45.40625 8.203125 
Q 42.578125 3.328125 38.25 0.953125 
Q 33.9375 -1.421875 27.875 -1.421875 
Q 17.96875 -1.421875 11.734375 6.484375 
Q 5.515625 14.40625 5.515625 27.296875 
Q 5.515625 40.1875 11.734375 48.09375 
Q 17.96875 56 27.875 56 
Q 33.9375 56 38.25 53.625 
Q 42.578125 51.265625 45.40625 46.390625 
z
M 14.796875 27.296875 
Q 14.796875 17.390625 18.875 11.75 
Q 22.953125 6.109375 30.078125 6.109375 
Q 37.203125 6.109375 41.296875 11.75 
Q 45.40625 17.390625 45.40625 27.296875 
Q 45.40625 37.203125 41.296875 42.84375 
Q 37.203125 48.484375 30.078125 48.484375 
Q 22.953125 48.484375 18.875 42.84375 
Q 14.796875 37.203125 14.796875 27.296875 
z
" id="DejaVuSans-100"/>
       <path id="DejaVuSans-32"/>
       <path d="M 45.40625 27.984375 
Q 45.40625 37.75 41.375 43.109375 
Q 37.359375 48.484375 30.078125 48.484375 
Q 22.859375 48.484375 18.828125 43.109375 
Q 14.796875 37.75 14.796875 27.984375 
Q 14.796875 18.265625 18.828125 12.890625 
Q 22.859375 7.515625 30.078125 7.515625 
Q 37.359375 7.515625 41.375 12.890625 
Q 45.40625 18.265625 45.40625 27.984375 
z
M 54.390625 6.78125 
Q 54.390625 -7.171875 48.1875 -13.984375 
Q 42 -20.796875 29.203125 -20.796875 
Q 24.46875 -20.796875 20.265625 -20.09375 
Q 16.0625 -19.390625 12.109375 -17.921875 
L 12.109375 -9.1875 
Q 16.0625 -11.328125 19.921875 -12.34375 
Q 23.78125 -13.375 27.78125 -13.375 
Q 36.625 -13.375 41.015625 -8.765625 
Q 45.40625 -4.15625 45.40625 5.171875 
L 45.40625 9.625 
Q 42.625 4.78125 38.28125 2.390625 
Q 33.9375 0 27.875 0 
Q 17.828125 0 11.671875 7.65625 
Q 5.515625 15.328125 5.515625 27.984375 
Q 5.515625 40.671875 11.671875 48.328125 
Q 17.828125 56 27.875 56 
Q 33.9375 56 38.28125 53.609375 
Q 42.625 51.21875 45.40625 46.390625 
L 45.40625 54.6875 
L 54.390625 54.6875 
z
" id="DejaVuSans-103"/>
       <path d="M 54.890625 33.015625 
L 54.890625 0 
L 45.90625 0 
L 45.90625 32.71875 
Q 45.90625 40.484375 42.875 44.328125 
Q 39.84375 48.1875 33.796875 48.1875 
Q 26.515625 48.1875 22.3125 43.546875 
Q 18.109375 38.921875 18.109375 30.90625 
L 18.109375 0 
L 9.078125 0 
L 9.078125 54.6875 
L 18.109375 54.6875 
L 18.109375 46.1875 
Q 21.34375 51.125 25.703125 53.5625 
Q 30.078125 56 35.796875 56 
Q 45.21875 56 50.046875 50.171875 
Q 54.890625 44.34375 54.890625 33.015625 
z
" id="DejaVuSans-110"/>
       <path d="M 56.203125 29.59375 
L 56.203125 25.203125 
L 14.890625 25.203125 
Q 15.484375 15.921875 20.484375 11.0625 
Q 25.484375 6.203125 34.421875 6.203125 
Q 39.59375 6.203125 44.453125 7.46875 
Q 49.3125 8.734375 54.109375 11.28125 
L 54.109375 2.78125 
Q 49.265625 0.734375 44.1875 -0.34375 
Q 39.109375 -1.421875 33.890625 -1.421875 
Q 20.796875 -1.421875 13.15625 6.1875 
Q 5.515625 13.8125 5.515625 26.8125 
Q 5.515625 40.234375 12.765625 48.109375 
Q 20.015625 56 32.328125 56 
Q 43.359375 56 49.78125 48.890625 
Q 56.203125 41.796875 56.203125 29.59375 
z
M 47.21875 32.234375 
Q 47.125 39.59375 43.09375 43.984375 
Q 39.0625 48.390625 32.421875 48.390625 
Q 24.90625 48.390625 20.390625 44.140625 
Q 15.875 39.890625 15.1875 32.171875 
z
M 36.34375 75.78125 
L 46.25 75.78125 
L 46.25 65.921875 
L 36.34375 65.921875 
z
M 17.25 75.78125 
L 27.15625 75.78125 
L 27.15625 65.921875 
L 17.25 65.921875 
z
" id="DejaVuSans-235"/>
       <path d="M 9.8125 72.90625 
L 23.09375 72.90625 
L 55.421875 11.921875 
L 55.421875 72.90625 
L 64.984375 72.90625 
L 64.984375 0 
L 51.703125 0 
L 19.390625 60.984375 
L 19.390625 0 
L 9.8125 0 
z
" id="DejaVuSans-78"/>
       <path d="M 9.8125 72.90625 
L 19.671875 72.90625 
L 19.671875 0 
L 9.8125 0 
z
" id="DejaVuSans-73"/>
       <path d="M 64.40625 67.28125 
L 64.40625 56.890625 
Q 59.421875 61.53125 53.78125 63.8125 
Q 48.140625 66.109375 41.796875 66.109375 
Q 29.296875 66.109375 22.65625 58.46875 
Q 16.015625 50.828125 16.015625 36.375 
Q 16.015625 21.96875 22.65625 14.328125 
Q 29.296875 6.6875 41.796875 6.6875 
Q 48.140625 6.6875 53.78125 8.984375 
Q 59.421875 11.28125 64.40625 15.921875 
L 64.40625 5.609375 
Q 59.234375 2.09375 53.4375 0.328125 
Q 47.65625 -1.421875 41.21875 -1.421875 
Q 24.65625 -1.421875 15.125 8.703125 
Q 5.609375 18.84375 5.609375 36.375 
Q 5.609375 53.953125 15.125 64.078125 
Q 24.65625 74.21875 41.21875 74.21875 
Q 47.75 74.21875 53.53125 72.484375 
Q 59.328125 70.75 64.40625 67.28125 
z
" id="DejaVuSans-67"/>
       <path d="M 9.8125 72.90625 
L 55.90625 72.90625 
L 55.90625 64.59375 
L 19.671875 64.59375 
L 19.671875 43.015625 
L 54.390625 43.015625 
L 54.390625 34.71875 
L 19.671875 34.71875 
L 19.671875 8.296875 
L 56.78125 8.296875 
L 56.78125 0 
L 9.8125 0 
z
" id="DejaVuSans-69"/>
       <path d="M 31 75.875 
Q 24.46875 64.65625 21.28125 53.65625 
Q 18.109375 42.671875 18.109375 31.390625 
Q 18.109375 20.125 21.3125 9.0625 
Q 24.515625 -2 31 -13.1875 
L 23.1875 -13.1875 
Q 15.875 -1.703125 12.234375 9.375 
Q 8.59375 20.453125 8.59375 31.390625 
Q 8.59375 42.28125 12.203125 53.3125 
Q 15.828125 64.359375 23.1875 75.875 
z
" id="DejaVuSans-40"/>
       <path d="M 31.78125 34.625 
Q 24.75 34.625 20.71875 30.859375 
Q 16.703125 27.09375 16.703125 20.515625 
Q 16.703125 13.921875 20.71875 10.15625 
Q 24.75 6.390625 31.78125 6.390625 
Q 38.8125 6.390625 42.859375 10.171875 
Q 46.921875 13.96875 46.921875 20.515625 
Q 46.921875 27.09375 42.890625 30.859375 
Q 38.875 34.625 31.78125 34.625 
z
M 21.921875 38.8125 
Q 15.578125 40.375 12.03125 44.71875 
Q 8.5 49.078125 8.5 55.328125 
Q 8.5 64.0625 14.71875 69.140625 
Q 20.953125 74.21875 31.78125 74.21875 
Q 42.671875 74.21875 48.875 69.140625 
Q 55.078125 64.0625 55.078125 55.328125 
Q 55.078125 49.078125 51.53125 44.71875 
Q 48 40.375 41.703125 38.8125 
Q 48.828125 37.15625 52.796875 32.3125 
Q 56.78125 27.484375 56.78125 20.515625 
Q 56.78125 9.90625 50.3125 4.234375 
Q 43.84375 -1.421875 31.78125 -1.421875 
Q 19.734375 -1.421875 13.25 4.234375 
Q 6.78125 9.90625 6.78125 20.515625 
Q 6.78125 27.484375 10.78125 32.3125 
Q 14.796875 37.15625 21.921875 38.8125 
z
M 18.3125 54.390625 
Q 18.3125 48.734375 21.84375 45.5625 
Q 25.390625 42.390625 31.78125 42.390625 
Q 38.140625 42.390625 41.71875 45.5625 
Q 45.3125 48.734375 45.3125 54.390625 
Q 45.3125 60.0625 41.71875 63.234375 
Q 38.140625 66.40625 31.78125 66.40625 
Q 25.390625 66.40625 21.84375 63.234375 
Q 18.3125 60.0625 18.3125 54.390625 
z
" id="DejaVuSans-56"/>
       <path d="M 8.015625 75.875 
L 15.828125 75.875 
Q 23.140625 64.359375 26.78125 53.3125 
Q 30.421875 42.28125 30.421875 31.390625 
Q 30.421875 20.453125 26.78125 9.375 
Q 23.140625 -1.703125 15.828125 -13.1875 
L 8.015625 -13.1875 
Q 14.5 -2 17.703125 9.0625 
Q 20.90625 20.125 20.90625 31.390625 
Q 20.90625 42.671875 17.703125 53.65625 
Q 14.5 64.65625 8.015625 75.875 
z
" id="DejaVuSans-41"/>
      </defs>
      <use xlink:href="#DejaVuSans-99"/>
      <use x="54.980469" xlink:href="#DejaVuSans-111"/>
      <use x="116.162109" xlink:href="#DejaVuSans-118"/>
      <use x="175.341797" xlink:href="#DejaVuSans-105"/>
      <use x="203.125" xlink:href="#DejaVuSans-100"/>
      <use x="266.601562" xlink:href="#DejaVuSans-32"/>
      <use x="298.388672" xlink:href="#DejaVuSans-111"/>
      <use x="359.570312" xlink:href="#DejaVuSans-112"/>
      <use x="423.046875" xlink:href="#DejaVuSans-103"/>
      <use x="486.523438" xlink:href="#DejaVuSans-101"/>
      <use x="548.046875" xlink:href="#DejaVuSans-110"/>
      <use x="611.425781" xlink:href="#DejaVuSans-111"/>
      <use x="672.607422" xlink:href="#DejaVuSans-109"/>
      <use x="770.019531" xlink:href="#DejaVuSans-101"/>
      <use x="831.542969" xlink:href="#DejaVuSans-110"/>
      <use x="894.921875" xlink:href="#DejaVuSans-32"/>
      <use x="926.708984" xlink:href="#DejaVuSans-112"/>
      <use x="990.185547" xlink:href="#DejaVuSans-97"/>
      <use x="1051.464844" xlink:href="#DejaVuSans-116"/>
      <use x="1090.673828" xlink:href="#DejaVuSans-105"/>
      <use x="1118.457031" xlink:href="#DejaVuSans-235"/>
      <use x="1179.980469" xlink:href="#DejaVuSans-110"/>
      <use x="1243.359375" xlink:href="#DejaVuSans-116"/>
      <use x="1282.568359" xlink:href="#DejaVuSans-101"/>
      <use x="1344.091797" xlink:href="#DejaVuSans-110"/>
      <use x="1407.470703" xlink:href="#DejaVuSans-32"/>
      <use x="1439.257812" xlink:href="#DejaVuSans-78"/>
      <use x="1514.0625" xlink:href="#DejaVuSans-73"/>
      <use x="1543.554688" xlink:href="#DejaVuSans-67"/>
      <use x="1613.378906" xlink:href="#DejaVuSans-69"/>
      <use x="1676.5625" xlink:href="#DejaVuSans-32"/>
      <use x="1708.349609" xlink:href="#DejaVuSans-40"/>
      <use x="1747.363281" xlink:href="#DejaVuSans-110"/>
      <use x="1810.742188" xlink:href="#DejaVuSans-117"/>
      <use x="1874.121094" xlink:href="#DejaVuSans-32"/>
      <use x="1905.908203" xlink:href="#DejaVuSans-56"/>
      <use x="1969.53125" xlink:href="#DejaVuSans-50"/>
      <use x="2033.154297" xlink:href="#DejaVuSans-52"/>
      <use x="2096.777344" xlink:href="#DejaVuSans-41"/>
     </g>
    </g>
    <g id="line2d_39">
     <path d="M 99 70.976562 
L 119 70.976562 
" style="fill:none;stroke:#ffa500;stroke-linecap:square;stroke-width:1.5;"/>
    </g>
    <g id="line2d_40"/>
    <g id="text_20">
     <!-- covid bezette bedden LCPS (nu 315) -->
     <g transform="translate(127 74.476562)scale(0.1 -0.1)">
      <defs>
       <path d="M 48.6875 27.296875 
Q 48.6875 37.203125 44.609375 42.84375 
Q 40.53125 48.484375 33.40625 48.484375 
Q 26.265625 48.484375 22.1875 42.84375 
Q 18.109375 37.203125 18.109375 27.296875 
Q 18.109375 17.390625 22.1875 11.75 
Q 26.265625 6.109375 33.40625 6.109375 
Q 40.53125 6.109375 44.609375 11.75 
Q 48.6875 17.390625 48.6875 27.296875 
z
M 18.109375 46.390625 
Q 20.953125 51.265625 25.265625 53.625 
Q 29.59375 56 35.59375 56 
Q 45.5625 56 51.78125 48.09375 
Q 58.015625 40.1875 58.015625 27.296875 
Q 58.015625 14.40625 51.78125 6.484375 
Q 45.5625 -1.421875 35.59375 -1.421875 
Q 29.59375 -1.421875 25.265625 0.953125 
Q 20.953125 3.328125 18.109375 8.203125 
L 18.109375 0 
L 9.078125 0 
L 9.078125 75.984375 
L 18.109375 75.984375 
z
" id="DejaVuSans-98"/>
       <path d="M 5.515625 54.6875 
L 48.1875 54.6875 
L 48.1875 46.484375 
L 14.40625 7.171875 
L 48.1875 7.171875 
L 48.1875 0 
L 4.296875 0 
L 4.296875 8.203125 
L 38.09375 47.515625 
L 5.515625 47.515625 
z
" id="DejaVuSans-122"/>
       <path d="M 9.8125 72.90625 
L 19.671875 72.90625 
L 19.671875 8.296875 
L 55.171875 8.296875 
L 55.171875 0 
L 9.8125 0 
z
" id="DejaVuSans-76"/>
       <path d="M 19.671875 64.796875 
L 19.671875 37.40625 
L 32.078125 37.40625 
Q 38.96875 37.40625 42.71875 40.96875 
Q 46.484375 44.53125 46.484375 51.125 
Q 46.484375 57.671875 42.71875 61.234375 
Q 38.96875 64.796875 32.078125 64.796875 
z
M 9.8125 72.90625 
L 32.078125 72.90625 
Q 44.34375 72.90625 50.609375 67.359375 
Q 56.890625 61.8125 56.890625 51.125 
Q 56.890625 40.328125 50.609375 34.8125 
Q 44.34375 29.296875 32.078125 29.296875 
L 19.671875 29.296875 
L 19.671875 0 
L 9.8125 0 
z
" id="DejaVuSans-80"/>
       <path d="M 53.515625 70.515625 
L 53.515625 60.890625 
Q 47.90625 63.578125 42.921875 64.890625 
Q 37.9375 66.21875 33.296875 66.21875 
Q 25.25 66.21875 20.875 63.09375 
Q 16.5 59.96875 16.5 54.203125 
Q 16.5 49.359375 19.40625 46.890625 
Q 22.3125 44.4375 30.421875 42.921875 
L 36.375 41.703125 
Q 47.40625 39.59375 52.65625 34.296875 
Q 57.90625 29 57.90625 20.125 
Q 57.90625 9.515625 50.796875 4.046875 
Q 43.703125 -1.421875 29.984375 -1.421875 
Q 24.8125 -1.421875 18.96875 -0.25 
Q 13.140625 0.921875 6.890625 3.21875 
L 6.890625 13.375 
Q 12.890625 10.015625 18.65625 8.296875 
Q 24.421875 6.59375 29.984375 6.59375 
Q 38.421875 6.59375 43.015625 9.90625 
Q 47.609375 13.234375 47.609375 19.390625 
Q 47.609375 24.75 44.3125 27.78125 
Q 41.015625 30.8125 33.5 32.328125 
L 27.484375 33.5 
Q 16.453125 35.6875 11.515625 40.375 
Q 6.59375 45.0625 6.59375 53.421875 
Q 6.59375 63.09375 13.40625 68.65625 
Q 20.21875 74.21875 32.171875 74.21875 
Q 37.3125 74.21875 42.625 73.28125 
Q 47.953125 72.359375 53.515625 70.515625 
z
" id="DejaVuSans-83"/>
      </defs>
      <use xlink:href="#DejaVuSans-99"/>
      <use x="54.980469" xlink:href="#DejaVuSans-111"/>
      <use x="116.162109" xlink:href="#DejaVuSans-118"/>
      <use x="175.341797" xlink:href="#DejaVuSans-105"/>
      <use x="203.125" xlink:href="#DejaVuSans-100"/>
      <use x="266.601562" xlink:href="#DejaVuSans-32"/>
      <use x="298.388672" xlink:href="#DejaVuSans-98"/>
      <use x="361.865234" xlink:href="#DejaVuSans-101"/>
      <use x="423.388672" xlink:href="#DejaVuSans-122"/>
      <use x="475.878906" xlink:href="#DejaVuSans-101"/>
      <use x="537.402344" xlink:href="#DejaVuSans-116"/>
      <use x="576.611328" xlink:href="#DejaVuSans-116"/>
      <use x="615.820312" xlink:href="#DejaVuSans-101"/>
      <use x="677.34375" xlink:href="#DejaVuSans-32"/>
      <use x="709.130859" xlink:href="#DejaVuSans-98"/>
      <use x="772.607422" xlink:href="#DejaVuSans-101"/>
      <use x="834.130859" xlink:href="#DejaVuSans-100"/>
      <use x="897.607422" xlink:href="#DejaVuSans-100"/>
      <use x="961.083984" xlink:href="#DejaVuSans-101"/>
      <use x="1022.607422" xlink:href="#DejaVuSans-110"/>
      <use x="1085.986328" xlink:href="#DejaVuSans-32"/>
      <use x="1117.773438" xlink:href="#DejaVuSans-76"/>
      <use x="1173.486328" xlink:href="#DejaVuSans-67"/>
      <use x="1243.310547" xlink:href="#DejaVuSans-80"/>
      <use x="1303.613281" xlink:href="#DejaVuSans-83"/>
      <use x="1367.089844" xlink:href="#DejaVuSans-32"/>
      <use x="1398.876953" xlink:href="#DejaVuSans-40"/>
      <use x="1437.890625" xlink:href="#DejaVuSans-110"/>
      <use x="1501.269531" xlink:href="#DejaVuSans-117"/>
      <use x="1564.648438" xlink:href="#DejaVuSans-32"/>
      <use x="1596.435547" xlink:href="#DejaVuSans-51"/>
      <use x="1660.058594" xlink:href="#DejaVuSans-49"/>
      <use x="1723.681641" xlink:href="#DejaVuSans-53"/>
      <use x="1787.304688" xlink:href="#DejaVuSans-41"/>
     </g>
    </g>
    <g id="line2d_41">
     <path d="M 99 85.654687 
L 119 85.654687 
" style="fill:none;stroke:#0000ff;stroke-linecap:square;stroke-width:1.5;"/>
    </g>
    <g id="line2d_42"/>
    <g id="text_21">
     <!-- non-covid bezette IC bedden LCPS (nu 543) -->
     <g transform="translate(127 89.154687)scale(0.1 -0.1)">
      <use xlink:href="#DejaVuSans-110"/>
      <use x="63.378906" xlink:href="#DejaVuSans-111"/>
      <use x="124.560547" xlink:href="#DejaVuSans-110"/>
      <use x="187.939453" xlink:href="#DejaVuSans-45"/>
      <use x="224.023438" xlink:href="#DejaVuSans-99"/>
      <use x="279.003906" xlink:href="#DejaVuSans-111"/>
      <use x="340.185547" xlink:href="#DejaVuSans-118"/>
      <use x="399.365234" xlink:href="#DejaVuSans-105"/>
      <use x="427.148438" xlink:href="#DejaVuSans-100"/>
      <use x="490.625" xlink:href="#DejaVuSans-32"/>
      <use x="522.412109" xlink:href="#DejaVuSans-98"/>
      <use x="585.888672" xlink:href="#DejaVuSans-101"/>
      <use x="647.412109" xlink:href="#DejaVuSans-122"/>
      <use x="699.902344" xlink:href="#DejaVuSans-101"/>
      <use x="761.425781" xlink:href="#DejaVuSans-116"/>
      <use x="800.634766" xlink:href="#DejaVuSans-116"/>
      <use x="839.84375" xlink:href="#DejaVuSans-101"/>
      <use x="901.367188" xlink:href="#DejaVuSans-32"/>
      <use x="933.154297" xlink:href="#DejaVuSans-73"/>
      <use x="962.646484" xlink:href="#DejaVuSans-67"/>
      <use x="1032.470703" xlink:href="#DejaVuSans-32"/>
      <use x="1064.257812" xlink:href="#DejaVuSans-98"/>
      <use x="1127.734375" xlink:href="#DejaVuSans-101"/>
      <use x="1189.257812" xlink:href="#DejaVuSans-100"/>
      <use x="1252.734375" xlink:href="#DejaVuSans-100"/>
      <use x="1316.210938" xlink:href="#DejaVuSans-101"/>
      <use x="1377.734375" xlink:href="#DejaVuSans-110"/>
      <use x="1441.113281" xlink:href="#DejaVuSans-32"/>
      <use x="1472.900391" xlink:href="#DejaVuSans-76"/>
      <use x="1528.613281" xlink:href="#DejaVuSans-67"/>
      <use x="1598.4375" xlink:href="#DejaVuSans-80"/>
      <use x="1658.740234" xlink:href="#DejaVuSans-83"/>
      <use x="1722.216797" xlink:href="#DejaVuSans-32"/>
      <use x="1754.003906" xlink:href="#DejaVuSans-40"/>
      <use x="1793.017578" xlink:href="#DejaVuSans-110"/>
      <use x="1856.396484" xlink:href="#DejaVuSans-117"/>
      <use x="1919.775391" xlink:href="#DejaVuSans-32"/>
      <use x="1951.5625" xlink:href="#DejaVuSans-53"/>
      <use x="2015.185547" xlink:href="#DejaVuSans-52"/>
      <use x="2078.808594" xlink:href="#DejaVuSans-51"/>
      <use x="2142.431641" xlink:href="#DejaVuSans-41"/>
     </g>
    </g>
    <g id="line2d_43">
     <path d="M 99 100.332812 
L 119 100.332812 
" style="fill:none;stroke:#00ffff;stroke-linecap:square;stroke-width:1.5;"/>
    </g>
    <g id="line2d_44"/>
    <g id="text_22">
     <!-- covid bezette IC bedden LCPS (nu 100) -->
     <g transform="translate(127 103.832812)scale(0.1 -0.1)">
      <use xlink:href="#DejaVuSans-99"/>
      <use x="54.980469" xlink:href="#DejaVuSans-111"/>
      <use x="116.162109" xlink:href="#DejaVuSans-118"/>
      <use x="175.341797" xlink:href="#DejaVuSans-105"/>
      <use x="203.125" xlink:href="#DejaVuSans-100"/>
      <use x="266.601562" xlink:href="#DejaVuSans-32"/>
      <use x="298.388672" xlink:href="#DejaVuSans-98"/>
      <use x="361.865234" xlink:href="#DejaVuSans-101"/>
      <use x="423.388672" xlink:href="#DejaVuSans-122"/>
      <use x="475.878906" xlink:href="#DejaVuSans-101"/>
      <use x="537.402344" xlink:href="#DejaVuSans-116"/>
      <use x="576.611328" xlink:href="#DejaVuSans-116"/>
      <use x="615.820312" xlink:href="#DejaVuSans-101"/>
      <use x="677.34375" xlink:href="#DejaVuSans-32"/>
      <use x="709.130859" xlink:href="#DejaVuSans-73"/>
      <use x="738.623047" xlink:href="#DejaVuSans-67"/>
      <use x="808.447266" xlink:href="#DejaVuSans-32"/>
      <use x="840.234375" xlink:href="#DejaVuSans-98"/>
      <use x="903.710938" xlink:href="#DejaVuSans-101"/>
      <use x="965.234375" xlink:href="#DejaVuSans-100"/>
      <use x="1028.710938" xlink:href="#DejaVuSans-100"/>
      <use x="1092.1875" xlink:href="#DejaVuSans-101"/>
      <use x="1153.710938" xlink:href="#DejaVuSans-110"/>
      <use x="1217.089844" xlink:href="#DejaVuSans-32"/>
      <use x="1248.876953" xlink:href="#DejaVuSans-76"/>
      <use x="1304.589844" xlink:href="#DejaVuSans-67"/>
      <use x="1374.414062" xlink:href="#DejaVuSans-80"/>
      <use x="1434.716797" xlink:href="#DejaVuSans-83"/>
      <use x="1498.193359" xlink:href="#DejaVuSans-32"/>
      <use x="1529.980469" xlink:href="#DejaVuSans-40"/>
      <use x="1568.994141" xlink:href="#DejaVuSans-110"/>
      <use x="1632.373047" xlink:href="#DejaVuSans-117"/>
      <use x="1695.751953" xlink:href="#DejaVuSans-32"/>
      <use x="1727.539062" xlink:href="#DejaVuSans-49"/>
      <use x="1791.162109" xlink:href="#DejaVuSans-48"/>
      <use x="1854.785156" xlink:href="#DejaVuSans-48"/>
      <use x="1918.408203" xlink:href="#DejaVuSans-41"/>
     </g>
    </g>
   </g>
  </g>
 </g>
 <defs>
  <clipPath id="p7999de4686">
   <rect height="277.2" width="558" x="90" y="43.2"/>
  </clipPath>
 </defs>
</svg>
