<?xml version="1.0" encoding="utf-8" standalone="no"?>
<!DOCTYPE svg PUBLIC "-//W3C//DTD SVG 1.1//EN"
  "http://www.w3.org/Graphics/SVG/1.1/DTD/svg11.dtd">
<!-- Created with matplotlib (https://matplotlib.org/) -->
<svg height="360pt" version="1.1" viewBox="0 0 720 360" width="720pt" xmlns="http://www.w3.org/2000/svg" xmlns:xlink="http://www.w3.org/1999/xlink">
 <metadata>
  <rdf:RDF xmlns:cc="http://creativecommons.org/ns#" xmlns:dc="http://purl.org/dc/elements/1.1/" xmlns:rdf="http://www.w3.org/1999/02/22-rdf-syntax-ns#">
   <cc:Work>
    <dc:type rdf:resource="http://purl.org/dc/dcmitype/StillImage"/>
    <dc:date>2021-02-10T17:19:50.511408</dc:date>
    <dc:format>image/svg+xml</dc:format>
    <dc:creator>
     <cc:Agent>
      <dc:title>Matplotlib v3.3.2, https://matplotlib.org/</dc:title>
     </cc:Agent>
    </dc:creator>
   </cc:Work>
  </rdf:RDF>
 </metadata>
 <defs>
  <style type="text/css">*{stroke-linecap:butt;stroke-linejoin:round;}</style>
 </defs>
 <g id="figure_1">
  <g id="patch_1">
   <path d="M 0 360 
L 720 360 
L 720 0 
L 0 0 
z
" style="fill:#ffffff;"/>
  </g>
  <g id="axes_1">
   <g id="patch_2">
    <path d="M 90 320.4 
L 648 320.4 
L 648 43.2 
L 90 43.2 
z
" style="fill:#ffffff;"/>
   </g>
   <g id="matplotlib.axis_1">
    <g id="xtick_1">
     <g id="line2d_1">
      <path clip-path="url(#pe17138bf24)" d="M 119.724147 320.4 
L 119.724147 43.2 
" style="fill:none;stroke:#808080;stroke-dasharray:6.4,1.6,1,1.6;stroke-dashoffset:0;stroke-opacity:0.3;"/>
     </g>
     <g id="line2d_2">
      <defs>
       <path d="M 0 0 
L 0 3.5 
" id="md48fbc83c4" style="stroke:#000000;stroke-width:0.8;"/>
      </defs>
      <g>
       <use style="stroke:#000000;stroke-width:0.8;" x="119.724147" xlink:href="#md48fbc83c4" y="320.4"/>
      </g>
     </g>
     <g id="text_1">
      <!-- 2020-03 -->
      <g transform="translate(98.832741 334.998438)scale(0.1 -0.1)">
       <defs>
        <path d="M 19.1875 8.296875 
L 53.609375 8.296875 
L 53.609375 0 
L 7.328125 0 
L 7.328125 8.296875 
Q 12.9375 14.109375 22.625 23.890625 
Q 32.328125 33.6875 34.8125 36.53125 
Q 39.546875 41.84375 41.421875 45.53125 
Q 43.3125 49.21875 43.3125 52.78125 
Q 43.3125 58.59375 39.234375 62.25 
Q 35.15625 65.921875 28.609375 65.921875 
Q 23.96875 65.921875 18.8125 64.3125 
Q 13.671875 62.703125 7.8125 59.421875 
L 7.8125 69.390625 
Q 13.765625 71.78125 18.9375 73 
Q 24.125 74.21875 28.421875 74.21875 
Q 39.75 74.21875 46.484375 68.546875 
Q 53.21875 62.890625 53.21875 53.421875 
Q 53.21875 48.921875 51.53125 44.890625 
Q 49.859375 40.875 45.40625 35.40625 
Q 44.1875 33.984375 37.640625 27.21875 
Q 31.109375 20.453125 19.1875 8.296875 
z
" id="DejaVuSans-50"/>
        <path d="M 31.78125 66.40625 
Q 24.171875 66.40625 20.328125 58.90625 
Q 16.5 51.421875 16.5 36.375 
Q 16.5 21.390625 20.328125 13.890625 
Q 24.171875 6.390625 31.78125 6.390625 
Q 39.453125 6.390625 43.28125 13.890625 
Q 47.125 21.390625 47.125 36.375 
Q 47.125 51.421875 43.28125 58.90625 
Q 39.453125 66.40625 31.78125 66.40625 
z
M 31.78125 74.21875 
Q 44.046875 74.21875 50.515625 64.515625 
Q 56.984375 54.828125 56.984375 36.375 
Q 56.984375 17.96875 50.515625 8.265625 
Q 44.046875 -1.421875 31.78125 -1.421875 
Q 19.53125 -1.421875 13.0625 8.265625 
Q 6.59375 17.96875 6.59375 36.375 
Q 6.59375 54.828125 13.0625 64.515625 
Q 19.53125 74.21875 31.78125 74.21875 
z
" id="DejaVuSans-48"/>
        <path d="M 4.890625 31.390625 
L 31.203125 31.390625 
L 31.203125 23.390625 
L 4.890625 23.390625 
z
" id="DejaVuSans-45"/>
        <path d="M 40.578125 39.3125 
Q 47.65625 37.796875 51.625 33 
Q 55.609375 28.21875 55.609375 21.1875 
Q 55.609375 10.40625 48.1875 4.484375 
Q 40.765625 -1.421875 27.09375 -1.421875 
Q 22.515625 -1.421875 17.65625 -0.515625 
Q 12.796875 0.390625 7.625 2.203125 
L 7.625 11.71875 
Q 11.71875 9.328125 16.59375 8.109375 
Q 21.484375 6.890625 26.8125 6.890625 
Q 36.078125 6.890625 40.9375 10.546875 
Q 45.796875 14.203125 45.796875 21.1875 
Q 45.796875 27.640625 41.28125 31.265625 
Q 36.765625 34.90625 28.71875 34.90625 
L 20.21875 34.90625 
L 20.21875 43.015625 
L 29.109375 43.015625 
Q 36.375 43.015625 40.234375 45.921875 
Q 44.09375 48.828125 44.09375 54.296875 
Q 44.09375 59.90625 40.109375 62.90625 
Q 36.140625 65.921875 28.71875 65.921875 
Q 24.65625 65.921875 20.015625 65.03125 
Q 15.375 64.15625 9.8125 62.3125 
L 9.8125 71.09375 
Q 15.4375 72.65625 20.34375 73.4375 
Q 25.25 74.21875 29.59375 74.21875 
Q 40.828125 74.21875 47.359375 69.109375 
Q 53.90625 64.015625 53.90625 55.328125 
Q 53.90625 49.265625 50.4375 45.09375 
Q 46.96875 40.921875 40.578125 39.3125 
z
" id="DejaVuSans-51"/>
       </defs>
       <use xlink:href="#DejaVuSans-50"/>
       <use x="63.623047" xlink:href="#DejaVuSans-48"/>
       <use x="127.246094" xlink:href="#DejaVuSans-50"/>
       <use x="190.869141" xlink:href="#DejaVuSans-48"/>
       <use x="254.492188" xlink:href="#DejaVuSans-45"/>
       <use x="290.576172" xlink:href="#DejaVuSans-48"/>
       <use x="354.199219" xlink:href="#DejaVuSans-51"/>
      </g>
     </g>
    </g>
    <g id="xtick_2">
     <g id="line2d_3">
      <path clip-path="url(#pe17138bf24)" d="M 208.387861 320.4 
L 208.387861 43.2 
" style="fill:none;stroke:#808080;stroke-dasharray:6.4,1.6,1,1.6;stroke-dashoffset:0;stroke-opacity:0.3;"/>
     </g>
     <g id="line2d_4">
      <g>
       <use style="stroke:#000000;stroke-width:0.8;" x="208.387861" xlink:href="#md48fbc83c4" y="320.4"/>
      </g>
     </g>
     <g id="text_2">
      <!-- 2020-05 -->
      <g transform="translate(187.496455 334.998438)scale(0.1 -0.1)">
       <defs>
        <path d="M 10.796875 72.90625 
L 49.515625 72.90625 
L 49.515625 64.59375 
L 19.828125 64.59375 
L 19.828125 46.734375 
Q 21.96875 47.46875 24.109375 47.828125 
Q 26.265625 48.1875 28.421875 48.1875 
Q 40.625 48.1875 47.75 41.5 
Q 54.890625 34.8125 54.890625 23.390625 
Q 54.890625 11.625 47.5625 5.09375 
Q 40.234375 -1.421875 26.90625 -1.421875 
Q 22.3125 -1.421875 17.546875 -0.640625 
Q 12.796875 0.140625 7.71875 1.703125 
L 7.71875 11.625 
Q 12.109375 9.234375 16.796875 8.0625 
Q 21.484375 6.890625 26.703125 6.890625 
Q 35.15625 6.890625 40.078125 11.328125 
Q 45.015625 15.765625 45.015625 23.390625 
Q 45.015625 31 40.078125 35.4375 
Q 35.15625 39.890625 26.703125 39.890625 
Q 22.75 39.890625 18.8125 39.015625 
Q 14.890625 38.140625 10.796875 36.28125 
z
" id="DejaVuSans-53"/>
       </defs>
       <use xlink:href="#DejaVuSans-50"/>
       <use x="63.623047" xlink:href="#DejaVuSans-48"/>
       <use x="127.246094" xlink:href="#DejaVuSans-50"/>
       <use x="190.869141" xlink:href="#DejaVuSans-48"/>
       <use x="254.492188" xlink:href="#DejaVuSans-45"/>
       <use x="290.576172" xlink:href="#DejaVuSans-48"/>
       <use x="354.199219" xlink:href="#DejaVuSans-53"/>
      </g>
     </g>
    </g>
    <g id="xtick_3">
     <g id="line2d_5">
      <path clip-path="url(#pe17138bf24)" d="M 297.051576 320.4 
L 297.051576 43.2 
" style="fill:none;stroke:#808080;stroke-dasharray:6.4,1.6,1,1.6;stroke-dashoffset:0;stroke-opacity:0.3;"/>
     </g>
     <g id="line2d_6">
      <g>
       <use style="stroke:#000000;stroke-width:0.8;" x="297.051576" xlink:href="#md48fbc83c4" y="320.4"/>
      </g>
     </g>
     <g id="text_3">
      <!-- 2020-07 -->
      <g transform="translate(276.16017 334.998438)scale(0.1 -0.1)">
       <defs>
        <path d="M 8.203125 72.90625 
L 55.078125 72.90625 
L 55.078125 68.703125 
L 28.609375 0 
L 18.3125 0 
L 43.21875 64.59375 
L 8.203125 64.59375 
z
" id="DejaVuSans-55"/>
       </defs>
       <use xlink:href="#DejaVuSans-50"/>
       <use x="63.623047" xlink:href="#DejaVuSans-48"/>
       <use x="127.246094" xlink:href="#DejaVuSans-50"/>
       <use x="190.869141" xlink:href="#DejaVuSans-48"/>
       <use x="254.492188" xlink:href="#DejaVuSans-45"/>
       <use x="290.576172" xlink:href="#DejaVuSans-48"/>
       <use x="354.199219" xlink:href="#DejaVuSans-55"/>
      </g>
     </g>
    </g>
    <g id="xtick_4">
     <g id="line2d_7">
      <path clip-path="url(#pe17138bf24)" d="M 387.168794 320.4 
L 387.168794 43.2 
" style="fill:none;stroke:#808080;stroke-dasharray:6.4,1.6,1,1.6;stroke-dashoffset:0;stroke-opacity:0.3;"/>
     </g>
     <g id="line2d_8">
      <g>
       <use style="stroke:#000000;stroke-width:0.8;" x="387.168794" xlink:href="#md48fbc83c4" y="320.4"/>
      </g>
     </g>
     <g id="text_4">
      <!-- 2020-09 -->
      <g transform="translate(366.277388 334.998438)scale(0.1 -0.1)">
       <defs>
        <path d="M 10.984375 1.515625 
L 10.984375 10.5 
Q 14.703125 8.734375 18.5 7.8125 
Q 22.3125 6.890625 25.984375 6.890625 
Q 35.75 6.890625 40.890625 13.453125 
Q 46.046875 20.015625 46.78125 33.40625 
Q 43.953125 29.203125 39.59375 26.953125 
Q 35.25 24.703125 29.984375 24.703125 
Q 19.046875 24.703125 12.671875 31.3125 
Q 6.296875 37.9375 6.296875 49.421875 
Q 6.296875 60.640625 12.9375 67.421875 
Q 19.578125 74.21875 30.609375 74.21875 
Q 43.265625 74.21875 49.921875 64.515625 
Q 56.59375 54.828125 56.59375 36.375 
Q 56.59375 19.140625 48.40625 8.859375 
Q 40.234375 -1.421875 26.421875 -1.421875 
Q 22.703125 -1.421875 18.890625 -0.6875 
Q 15.09375 0.046875 10.984375 1.515625 
z
M 30.609375 32.421875 
Q 37.25 32.421875 41.125 36.953125 
Q 45.015625 41.5 45.015625 49.421875 
Q 45.015625 57.28125 41.125 61.84375 
Q 37.25 66.40625 30.609375 66.40625 
Q 23.96875 66.40625 20.09375 61.84375 
Q 16.21875 57.28125 16.21875 49.421875 
Q 16.21875 41.5 20.09375 36.953125 
Q 23.96875 32.421875 30.609375 32.421875 
z
" id="DejaVuSans-57"/>
       </defs>
       <use xlink:href="#DejaVuSans-50"/>
       <use x="63.623047" xlink:href="#DejaVuSans-48"/>
       <use x="127.246094" xlink:href="#DejaVuSans-50"/>
       <use x="190.869141" xlink:href="#DejaVuSans-48"/>
       <use x="254.492188" xlink:href="#DejaVuSans-45"/>
       <use x="290.576172" xlink:href="#DejaVuSans-48"/>
       <use x="354.199219" xlink:href="#DejaVuSans-57"/>
      </g>
     </g>
    </g>
    <g id="xtick_5">
     <g id="line2d_9">
      <path clip-path="url(#pe17138bf24)" d="M 475.832508 320.4 
L 475.832508 43.2 
" style="fill:none;stroke:#808080;stroke-dasharray:6.4,1.6,1,1.6;stroke-dashoffset:0;stroke-opacity:0.3;"/>
     </g>
     <g id="line2d_10">
      <g>
       <use style="stroke:#000000;stroke-width:0.8;" x="475.832508" xlink:href="#md48fbc83c4" y="320.4"/>
      </g>
     </g>
     <g id="text_5">
      <!-- 2020-11 -->
      <g transform="translate(454.941102 334.998438)scale(0.1 -0.1)">
       <defs>
        <path d="M 12.40625 8.296875 
L 28.515625 8.296875 
L 28.515625 63.921875 
L 10.984375 60.40625 
L 10.984375 69.390625 
L 28.421875 72.90625 
L 38.28125 72.90625 
L 38.28125 8.296875 
L 54.390625 8.296875 
L 54.390625 0 
L 12.40625 0 
z
" id="DejaVuSans-49"/>
       </defs>
       <use xlink:href="#DejaVuSans-50"/>
       <use x="63.623047" xlink:href="#DejaVuSans-48"/>
       <use x="127.246094" xlink:href="#DejaVuSans-50"/>
       <use x="190.869141" xlink:href="#DejaVuSans-48"/>
       <use x="254.492188" xlink:href="#DejaVuSans-45"/>
       <use x="290.576172" xlink:href="#DejaVuSans-49"/>
       <use x="354.199219" xlink:href="#DejaVuSans-49"/>
      </g>
     </g>
    </g>
    <g id="xtick_6">
     <g id="line2d_11">
      <path clip-path="url(#pe17138bf24)" d="M 564.496223 320.4 
L 564.496223 43.2 
" style="fill:none;stroke:#808080;stroke-dasharray:6.4,1.6,1,1.6;stroke-dashoffset:0;stroke-opacity:0.3;"/>
     </g>
     <g id="line2d_12">
      <g>
       <use style="stroke:#000000;stroke-width:0.8;" x="564.496223" xlink:href="#md48fbc83c4" y="320.4"/>
      </g>
     </g>
     <g id="text_6">
      <!-- 2021-01 -->
      <g transform="translate(543.604817 334.998438)scale(0.1 -0.1)">
       <use xlink:href="#DejaVuSans-50"/>
       <use x="63.623047" xlink:href="#DejaVuSans-48"/>
       <use x="127.246094" xlink:href="#DejaVuSans-50"/>
       <use x="190.869141" xlink:href="#DejaVuSans-49"/>
       <use x="254.492188" xlink:href="#DejaVuSans-45"/>
       <use x="290.576172" xlink:href="#DejaVuSans-48"/>
       <use x="354.199219" xlink:href="#DejaVuSans-49"/>
      </g>
     </g>
    </g>
    <g id="text_7">
     <!-- Datum -->
     <g transform="translate(352.086719 348.676562)scale(0.1 -0.1)">
      <defs>
       <path d="M 19.671875 64.796875 
L 19.671875 8.109375 
L 31.59375 8.109375 
Q 46.6875 8.109375 53.6875 14.9375 
Q 60.6875 21.78125 60.6875 36.53125 
Q 60.6875 51.171875 53.6875 57.984375 
Q 46.6875 64.796875 31.59375 64.796875 
z
M 9.8125 72.90625 
L 30.078125 72.90625 
Q 51.265625 72.90625 61.171875 64.09375 
Q 71.09375 55.28125 71.09375 36.53125 
Q 71.09375 17.671875 61.125 8.828125 
Q 51.171875 0 30.078125 0 
L 9.8125 0 
z
" id="DejaVuSans-68"/>
       <path d="M 34.28125 27.484375 
Q 23.390625 27.484375 19.1875 25 
Q 14.984375 22.515625 14.984375 16.5 
Q 14.984375 11.71875 18.140625 8.90625 
Q 21.296875 6.109375 26.703125 6.109375 
Q 34.1875 6.109375 38.703125 11.40625 
Q 43.21875 16.703125 43.21875 25.484375 
L 43.21875 27.484375 
z
M 52.203125 31.203125 
L 52.203125 0 
L 43.21875 0 
L 43.21875 8.296875 
Q 40.140625 3.328125 35.546875 0.953125 
Q 30.953125 -1.421875 24.3125 -1.421875 
Q 15.921875 -1.421875 10.953125 3.296875 
Q 6 8.015625 6 15.921875 
Q 6 25.140625 12.171875 29.828125 
Q 18.359375 34.515625 30.609375 34.515625 
L 43.21875 34.515625 
L 43.21875 35.40625 
Q 43.21875 41.609375 39.140625 45 
Q 35.0625 48.390625 27.6875 48.390625 
Q 23 48.390625 18.546875 47.265625 
Q 14.109375 46.140625 10.015625 43.890625 
L 10.015625 52.203125 
Q 14.9375 54.109375 19.578125 55.046875 
Q 24.21875 56 28.609375 56 
Q 40.484375 56 46.34375 49.84375 
Q 52.203125 43.703125 52.203125 31.203125 
z
" id="DejaVuSans-97"/>
       <path d="M 18.3125 70.21875 
L 18.3125 54.6875 
L 36.8125 54.6875 
L 36.8125 47.703125 
L 18.3125 47.703125 
L 18.3125 18.015625 
Q 18.3125 11.328125 20.140625 9.421875 
Q 21.96875 7.515625 27.59375 7.515625 
L 36.8125 7.515625 
L 36.8125 0 
L 27.59375 0 
Q 17.1875 0 13.234375 3.875 
Q 9.28125 7.765625 9.28125 18.015625 
L 9.28125 47.703125 
L 2.6875 47.703125 
L 2.6875 54.6875 
L 9.28125 54.6875 
L 9.28125 70.21875 
z
" id="DejaVuSans-116"/>
       <path d="M 8.5 21.578125 
L 8.5 54.6875 
L 17.484375 54.6875 
L 17.484375 21.921875 
Q 17.484375 14.15625 20.5 10.265625 
Q 23.53125 6.390625 29.59375 6.390625 
Q 36.859375 6.390625 41.078125 11.03125 
Q 45.3125 15.671875 45.3125 23.6875 
L 45.3125 54.6875 
L 54.296875 54.6875 
L 54.296875 0 
L 45.3125 0 
L 45.3125 8.40625 
Q 42.046875 3.421875 37.71875 1 
Q 33.40625 -1.421875 27.6875 -1.421875 
Q 18.265625 -1.421875 13.375 4.4375 
Q 8.5 10.296875 8.5 21.578125 
z
M 31.109375 56 
z
" id="DejaVuSans-117"/>
       <path d="M 52 44.1875 
Q 55.375 50.25 60.0625 53.125 
Q 64.75 56 71.09375 56 
Q 79.640625 56 84.28125 50.015625 
Q 88.921875 44.046875 88.921875 33.015625 
L 88.921875 0 
L 79.890625 0 
L 79.890625 32.71875 
Q 79.890625 40.578125 77.09375 44.375 
Q 74.3125 48.1875 68.609375 48.1875 
Q 61.625 48.1875 57.5625 43.546875 
Q 53.515625 38.921875 53.515625 30.90625 
L 53.515625 0 
L 44.484375 0 
L 44.484375 32.71875 
Q 44.484375 40.625 41.703125 44.40625 
Q 38.921875 48.1875 33.109375 48.1875 
Q 26.21875 48.1875 22.15625 43.53125 
Q 18.109375 38.875 18.109375 30.90625 
L 18.109375 0 
L 9.078125 0 
L 9.078125 54.6875 
L 18.109375 54.6875 
L 18.109375 46.1875 
Q 21.1875 51.21875 25.484375 53.609375 
Q 29.78125 56 35.6875 56 
Q 41.65625 56 45.828125 52.96875 
Q 50 49.953125 52 44.1875 
z
" id="DejaVuSans-109"/>
      </defs>
      <use xlink:href="#DejaVuSans-68"/>
      <use x="77.001953" xlink:href="#DejaVuSans-97"/>
      <use x="138.28125" xlink:href="#DejaVuSans-116"/>
      <use x="177.490234" xlink:href="#DejaVuSans-117"/>
      <use x="240.869141" xlink:href="#DejaVuSans-109"/>
     </g>
    </g>
   </g>
   <g id="matplotlib.axis_2">
    <g id="ytick_1">
     <g id="line2d_13">
      <path clip-path="url(#pe17138bf24)" d="M 90 309.146565 
L 648 309.146565 
" style="fill:none;stroke:#808080;stroke-dasharray:6.4,1.6,1,1.6;stroke-dashoffset:0;stroke-opacity:0.3;"/>
     </g>
     <g id="line2d_14">
      <defs>
       <path d="M 0 0 
L -3.5 0 
" id="m21aecf9c2f" style="stroke:#000000;stroke-width:0.8;"/>
      </defs>
      <g>
       <use style="stroke:#000000;stroke-width:0.8;" x="90" xlink:href="#m21aecf9c2f" y="309.146565"/>
      </g>
     </g>
     <g id="text_8">
      <!-- 0 -->
      <g transform="translate(76.6375 312.945784)scale(0.1 -0.1)">
       <use xlink:href="#DejaVuSans-48"/>
      </g>
     </g>
    </g>
    <g id="ytick_2">
     <g id="line2d_15">
      <path clip-path="url(#pe17138bf24)" d="M 90 261.054962 
L 648 261.054962 
" style="fill:none;stroke:#808080;stroke-dasharray:6.4,1.6,1,1.6;stroke-dashoffset:0;stroke-opacity:0.3;"/>
     </g>
     <g id="line2d_16">
      <g>
       <use style="stroke:#000000;stroke-width:0.8;" x="90" xlink:href="#m21aecf9c2f" y="261.054962"/>
      </g>
     </g>
     <g id="text_9">
      <!-- 500 -->
      <g transform="translate(63.9125 264.854181)scale(0.1 -0.1)">
       <use xlink:href="#DejaVuSans-53"/>
       <use x="63.623047" xlink:href="#DejaVuSans-48"/>
       <use x="127.246094" xlink:href="#DejaVuSans-48"/>
      </g>
     </g>
    </g>
    <g id="ytick_3">
     <g id="line2d_17">
      <path clip-path="url(#pe17138bf24)" d="M 90 212.963359 
L 648 212.963359 
" style="fill:none;stroke:#808080;stroke-dasharray:6.4,1.6,1,1.6;stroke-dashoffset:0;stroke-opacity:0.3;"/>
     </g>
     <g id="line2d_18">
      <g>
       <use style="stroke:#000000;stroke-width:0.8;" x="90" xlink:href="#m21aecf9c2f" y="212.963359"/>
      </g>
     </g>
     <g id="text_10">
      <!-- 1000 -->
      <g transform="translate(57.55 216.762578)scale(0.1 -0.1)">
       <use xlink:href="#DejaVuSans-49"/>
       <use x="63.623047" xlink:href="#DejaVuSans-48"/>
       <use x="127.246094" xlink:href="#DejaVuSans-48"/>
       <use x="190.869141" xlink:href="#DejaVuSans-48"/>
      </g>
     </g>
    </g>
    <g id="ytick_4">
     <g id="line2d_19">
      <path clip-path="url(#pe17138bf24)" d="M 90 164.871756 
L 648 164.871756 
" style="fill:none;stroke:#808080;stroke-dasharray:6.4,1.6,1,1.6;stroke-dashoffset:0;stroke-opacity:0.3;"/>
     </g>
     <g id="line2d_20">
      <g>
       <use style="stroke:#000000;stroke-width:0.8;" x="90" xlink:href="#m21aecf9c2f" y="164.871756"/>
      </g>
     </g>
     <g id="text_11">
      <!-- 1500 -->
      <g transform="translate(57.55 168.670974)scale(0.1 -0.1)">
       <use xlink:href="#DejaVuSans-49"/>
       <use x="63.623047" xlink:href="#DejaVuSans-53"/>
       <use x="127.246094" xlink:href="#DejaVuSans-48"/>
       <use x="190.869141" xlink:href="#DejaVuSans-48"/>
      </g>
     </g>
    </g>
    <g id="ytick_5">
     <g id="line2d_21">
      <path clip-path="url(#pe17138bf24)" d="M 90 116.780153 
L 648 116.780153 
" style="fill:none;stroke:#808080;stroke-dasharray:6.4,1.6,1,1.6;stroke-dashoffset:0;stroke-opacity:0.3;"/>
     </g>
     <g id="line2d_22">
      <g>
       <use style="stroke:#000000;stroke-width:0.8;" x="90" xlink:href="#m21aecf9c2f" y="116.780153"/>
      </g>
     </g>
     <g id="text_12">
      <!-- 2000 -->
      <g transform="translate(57.55 120.579371)scale(0.1 -0.1)">
       <use xlink:href="#DejaVuSans-50"/>
       <use x="63.623047" xlink:href="#DejaVuSans-48"/>
       <use x="127.246094" xlink:href="#DejaVuSans-48"/>
       <use x="190.869141" xlink:href="#DejaVuSans-48"/>
      </g>
     </g>
    </g>
    <g id="ytick_6">
     <g id="line2d_23">
      <path clip-path="url(#pe17138bf24)" d="M 90 68.68855 
L 648 68.68855 
" style="fill:none;stroke:#808080;stroke-dasharray:6.4,1.6,1,1.6;stroke-dashoffset:0;stroke-opacity:0.3;"/>
     </g>
     <g id="line2d_24">
      <g>
       <use style="stroke:#000000;stroke-width:0.8;" x="90" xlink:href="#m21aecf9c2f" y="68.68855"/>
      </g>
     </g>
     <g id="text_13">
      <!-- 2500 -->
      <g transform="translate(57.55 72.487768)scale(0.1 -0.1)">
       <use xlink:href="#DejaVuSans-50"/>
       <use x="63.623047" xlink:href="#DejaVuSans-53"/>
       <use x="127.246094" xlink:href="#DejaVuSans-48"/>
       <use x="190.869141" xlink:href="#DejaVuSans-48"/>
      </g>
     </g>
    </g>
   </g>
   <g id="line2d_25">
    <path clip-path="url(#pe17138bf24)" d="M 115.363636 303.087023 
L 116.81714 302.798473 
L 118.270643 302.798473 
L 119.724147 302.029008 
L 121.17765 300.970992 
L 122.631154 300.29771 
L 124.084657 299.143511 
L 125.538161 298.181679 
L 126.991664 296.642748 
L 128.445168 295.873282 
L 129.898672 294.141985 
L 132.805679 289.429008 
L 134.259182 286.062595 
L 135.712686 281.830534 
L 137.166189 275.482443 
L 138.619693 271.635115 
L 140.073196 266.922137 
L 141.5267 254.129771 
L 142.980203 245.954198 
L 144.433707 233.931298 
L 145.88721 214.406107 
L 147.340714 197.958779 
L 148.794217 189.687023 
L 150.247721 179.587786 
L 151.701224 148.712977 
L 153.154728 124.18626 
L 156.061735 85.039695 
L 157.515238 59.935878 
L 158.968742 65.70687 
L 160.422245 70.227481 
L 161.875749 55.8 
L 163.329252 62.436641 
L 164.782756 71.862595 
L 166.236259 73.978626 
L 167.689763 73.78626 
L 169.143266 93.792366 
L 170.59677 98.40916 
L 172.050274 87.348092 
L 174.957281 113.99084 
L 176.410784 130.822901 
L 177.864288 139.287023 
L 179.317791 157.369466 
L 180.771295 162.755725 
L 182.224798 163.236641 
L 183.678302 161.890076 
L 185.131805 170.354198 
L 186.585309 181.126718 
L 188.038812 185.262595 
L 189.492316 199.20916 
L 190.945819 201.517557 
L 192.399323 197.381679 
L 193.852826 201.998473 
L 195.30633 209.885496 
L 196.759833 213.925191 
L 198.213337 219.119084 
L 199.66684 231.141985 
L 201.120344 233.931298 
L 202.573847 235.277863 
L 204.027351 233.642748 
L 205.480854 239.509924 
L 206.934358 242.010687 
L 208.387861 247.108397 
L 209.841365 254.99542 
L 211.294868 256.534351 
L 212.748372 251.917557 
L 214.201875 258.554198 
L 215.655379 257.207634 
L 217.108883 259.516031 
L 218.562386 259.708397 
L 220.01589 264.421374 
L 221.469393 265.960305 
L 222.922897 262.978626 
L 224.3764 265.960305 
L 225.829904 268.268702 
L 227.283407 271.538931 
L 228.736911 273.462595 
L 230.190414 277.887023 
L 231.643918 276.540458 
L 233.097421 273.366412 
L 234.550925 275.578626 
L 236.004428 276.829008 
L 237.457932 280.291603 
L 238.911435 277.309924 
L 240.364939 280.964885 
L 241.818442 281.734351 
L 243.271946 278.367939 
L 244.725449 279.041221 
L 246.178953 282.022901 
L 247.632456 283.850382 
L 249.08596 283.561832 
L 250.539463 285.196947 
L 251.992967 285.677863 
L 253.44647 285.29313 
L 254.899974 283.177099 
L 256.353477 284.042748 
L 257.806981 285.389313 
L 259.260485 287.024427 
L 260.713988 290.39084 
L 263.620995 290.487023 
L 265.074499 292.410687 
L 266.528002 293.949618 
L 267.981506 293.468702 
L 269.435009 294.334351 
L 270.888513 296.161832 
L 272.342016 296.258015 
L 273.79552 295.969466 
L 275.249023 295.969466 
L 276.702527 296.738931 
L 278.15603 296.642748 
L 279.609534 297.027481 
L 281.063037 298.854962 
L 282.516541 298.758779 
L 283.970044 298.470229 
L 285.423548 298.374046 
L 286.877051 298.470229 
L 288.330555 297.700763 
L 289.784058 298.085496 
L 291.237562 300.105344 
L 292.691065 300.00916 
L 294.144569 299.143511 
L 295.598072 300.490076 
L 297.051576 300.682443 
L 298.505079 301.355725 
L 299.958583 301.355725 
L 301.412086 302.221374 
L 305.772597 301.163359 
L 307.226101 301.355725 
L 308.679604 301.355725 
L 310.133108 300.393893 
L 311.586611 301.163359 
L 313.040115 301.163359 
L 314.493618 300.58626 
L 315.947122 300.490076 
L 317.400625 301.163359 
L 318.854129 301.548092 
L 320.307632 301.740458 
L 321.761136 301.067176 
L 324.668143 300.393893 
L 326.121646 300.29771 
L 327.57515 301.355725 
L 329.028653 300.874809 
L 330.482157 301.067176 
L 333.389164 300.58626 
L 334.842667 299.816794 
L 336.296171 299.528244 
L 337.749674 300.393893 
L 340.656681 299.624427 
L 342.110185 299.432061 
L 343.563688 298.662595 
L 345.017192 297.700763 
L 346.470695 298.374046 
L 347.924199 298.758779 
L 349.377703 298.758779 
L 352.28471 297.700763 
L 353.738213 296.546565 
L 355.191717 295.584733 
L 356.64522 293.661069 
L 358.098724 293.083969 
L 361.005731 293.564885 
L 362.459234 293.949618 
L 363.912738 293.180153 
L 365.366241 291.641221 
L 366.819745 292.314504 
L 368.273248 292.122137 
L 369.726752 290.871756 
L 371.180255 291.448855 
L 372.633759 293.372519 
L 374.087262 293.180153 
L 375.540766 292.79542 
L 376.994269 292.122137 
L 378.447773 293.083969 
L 379.901276 294.622901 
L 381.35478 294.430534 
L 382.808283 296.065649 
L 384.261787 295.969466 
L 385.71529 294.815267 
L 387.168794 294.91145 
L 388.622297 294.238168 
L 390.075801 294.91145 
L 391.529305 294.141985 
L 392.982808 294.141985 
L 394.436312 292.314504 
L 395.889815 290.294656 
L 397.343319 289.044275 
L 398.796822 287.120611 
L 400.250326 287.601527 
L 401.703829 285.774046 
L 403.157333 285.966412 
L 404.610836 284.716031 
L 406.06434 280.868702 
L 407.517843 279.90687 
L 408.971347 277.406107 
L 410.42485 275.674809 
L 411.878354 272.116031 
L 414.785361 268.364885 
L 416.238864 263.363359 
L 417.692368 260.574046 
L 419.145871 257.015267 
L 420.599375 252.109924 
L 422.052878 249.320611 
L 423.506382 249.705344 
L 424.959885 246.435115 
L 426.413389 241.337405 
L 427.866892 237.778626 
L 429.320396 236.143511 
L 430.773899 233.354198 
L 432.227403 231.141985 
L 433.680906 229.218321 
L 435.13441 225.178626 
L 436.587914 215.271756 
L 438.041417 210.847328 
L 439.494921 208.827481 
L 440.948424 206.519084 
L 442.401928 199.305344 
L 443.855431 201.229008 
L 445.308935 195.746565 
L 446.762438 181.607634 
L 448.215942 172.085496 
L 449.669445 172.470229 
L 451.122949 169.584733 
L 452.576452 164.198473 
L 454.029956 165.545038 
L 455.483459 162.563359 
L 456.936963 147.558779 
L 458.390466 141.787786 
L 459.84397 138.709924 
L 461.297473 132.361832 
L 462.750977 124.570992 
L 464.20448 131.4 
L 465.657984 124.570992 
L 467.111487 109.374046 
L 468.564991 108.796947 
L 470.018494 110.143511 
L 471.471998 112.836641 
L 472.925501 110.624427 
L 474.379005 117.838168 
L 475.832508 115.914504 
L 477.286012 95.523664 
L 478.739515 100.717557 
L 480.193019 106.680916 
L 483.100026 121.300763 
L 484.55353 135.439695 
L 486.007033 137.074809 
L 487.460537 123.705344 
L 488.91404 129.380153 
L 490.367544 133.419847 
L 491.821047 138.036641 
L 493.274551 139.767939 
L 494.728054 152.367939 
L 496.181558 152.945038 
L 497.635061 138.709924 
L 499.088565 141.403053 
L 500.542068 146.789313 
L 501.995572 152.945038 
L 503.449075 161.216794 
L 504.902579 170.354198 
L 506.356082 167.180153 
L 507.809586 154.868702 
L 509.263089 159.389313 
L 510.716593 166.218321 
L 512.170096 165.352672 
L 513.6236 166.314504 
L 515.077103 175.644275 
L 516.530607 175.067176 
L 517.98411 166.79542 
L 519.437614 171.219847 
L 520.891117 174.29771 
L 522.344621 173.720611 
L 523.798125 170.642748 
L 525.251628 175.163359 
L 526.705132 171.316031 
L 528.158635 160.735878 
L 529.612139 162.563359 
L 531.065642 164.198473 
L 532.519146 164.294656 
L 533.972649 157.080916 
L 535.426153 159.485496 
L 536.879656 154.19542 
L 538.33316 137.651908 
L 539.786663 138.036641 
L 541.240167 135.343511 
L 544.147174 126.01374 
L 545.600677 135.054962 
L 547.054181 133.708397 
L 548.507684 115.529771 
L 549.961188 113.509924 
L 552.868195 108.027481 
L 554.321698 117.261069 
L 555.775202 112.836641 
L 557.228705 103.987786 
L 558.682209 76.767939 
L 560.135712 78.30687 
L 561.589216 82.923664 
L 563.042719 90.425954 
L 564.496223 105.622901 
L 565.949726 100.525191 
L 567.40323 97.447328 
L 568.856734 86.001527 
L 570.310237 88.694656 
L 574.670748 103.122137 
L 576.124251 118.607634 
L 577.577755 118.030534 
L 579.031258 104.853435 
L 580.484762 110.335878 
L 583.391769 120.242748 
L 584.845272 121.877863 
L 586.298776 132.938931 
L 587.752279 137.170992 
L 589.205783 125.340458 
L 590.659286 125.917557 
L 592.11279 132.265649 
L 593.566293 132.169466 
L 595.019797 132.361832 
L 596.4733 138.90229 
L 597.926804 137.940458 
L 599.380307 128.99542 
L 600.833811 133.227481 
L 602.287314 138.421374 
L 603.740818 140.537405 
L 605.194321 138.517557 
L 606.647825 145.346565 
L 608.101328 141.787786 
L 609.554832 131.11145 
L 611.008336 134.189313 
L 612.461839 140.345038 
L 613.915343 142.749618 
L 615.368846 142.845802 
L 616.82235 153.810687 
L 618.275853 154.772519 
L 619.729357 142.364885 
L 621.18286 142.941985 
L 622.636364 155.638168 
L 622.636364 155.638168 
" style="fill:none;stroke:#ff0000;stroke-linecap:square;stroke-width:1.5;"/>
   </g>
   <g id="line2d_26">
    <path clip-path="url(#pe17138bf24)" d="M 253.44647 257.015267 
L 254.899974 259.516031 
L 256.353477 261.439695 
L 257.806981 262.882443 
L 260.713988 265.287023 
L 262.167492 266.537405 
L 263.620995 270.673282 
L 265.074499 275.867176 
L 266.528002 277.117557 
L 267.981506 280.580153 
L 269.435009 282.31145 
L 270.888513 281.349618 
L 272.342016 282.503817 
L 273.79552 282.119084 
L 275.249023 282.215267 
L 276.702527 281.349618 
L 279.609534 286.543511 
L 281.063037 287.98626 
L 282.516541 287.890076 
L 283.970044 290.487023 
L 285.423548 288.851908 
L 286.877051 290.198473 
L 288.330555 292.025954 
L 289.784058 290.871756 
L 291.237562 291.833588 
L 292.691065 292.025954 
L 294.144569 294.045802 
L 295.598072 293.757252 
L 297.051576 294.719084 
L 298.505079 297.123664 
L 299.958583 299.239695 
L 301.412086 301.932824 
L 302.86559 300.778626 
L 304.319094 301.355725 
L 305.772597 301.548092 
L 308.679604 302.41374 
L 310.133108 302.509924 
L 311.586611 301.740458 
L 313.040115 301.163359 
L 314.493618 300.105344 
L 315.947122 300.105344 
L 317.400625 300.970992 
L 318.854129 301.451908 
L 320.307632 302.125191 
L 321.761136 301.644275 
L 323.214639 302.125191 
L 326.121646 300.490076 
L 327.57515 300.970992 
L 329.028653 300.393893 
L 330.482157 302.029008 
L 331.93566 300.393893 
L 333.389164 302.70229 
L 334.842667 302.41374 
L 336.296171 301.740458 
L 337.749674 303.087023 
L 339.203178 302.798473 
L 340.656681 302.125191 
L 342.110185 302.70229 
L 343.563688 302.41374 
L 345.017192 301.259542 
L 346.470695 301.163359 
L 347.924199 300.682443 
L 349.377703 301.548092 
L 350.831206 301.644275 
L 352.28471 301.548092 
L 353.738213 300.778626 
L 355.191717 299.624427 
L 356.64522 299.816794 
L 358.098724 297.89313 
L 359.552227 296.931298 
L 361.005731 297.60458 
L 362.459234 297.219847 
L 363.912738 297.412214 
L 366.819745 296.738931 
L 368.273248 297.123664 
L 369.726752 295.873282 
L 371.180255 296.354198 
L 374.087262 296.738931 
L 375.540766 297.508397 
L 378.447773 297.60458 
L 379.901276 298.854962 
L 381.35478 299.528244 
L 382.808283 299.912977 
L 384.261787 300.105344 
L 387.168794 300.201527 
L 388.622297 300.490076 
L 390.075801 300.00916 
L 391.529305 300.00916 
L 392.982808 299.624427 
L 394.436312 299.047328 
L 395.889815 298.662595 
L 401.703829 296.065649 
L 403.157333 295.873282 
L 404.610836 294.91145 
L 406.06434 293.180153 
L 407.517843 291.160305 
L 408.971347 290.775573 
L 410.42485 288.755725 
L 411.878354 287.024427 
L 413.331857 284.138931 
L 414.785361 282.6 
L 416.238864 277.887023 
L 417.692368 277.50229 
L 419.145871 273.462595 
L 420.599375 271.154198 
L 422.052878 267.691603 
L 423.506382 267.499237 
L 424.959885 262.016794 
L 426.413389 259.323664 
L 427.866892 256.149618 
L 429.320396 256.149618 
L 430.773899 257.303817 
L 432.227403 254.033588 
L 433.680906 252.879389 
L 435.13441 246.916031 
L 438.041417 233.642748 
L 439.494921 231.141985 
L 440.948424 228.160305 
L 443.855431 217.291603 
L 445.308935 214.309924 
L 446.762438 208.538931 
L 448.215942 200.170992 
L 451.122949 192.476336 
L 452.576452 192.957252 
L 454.029956 192.187786 
L 456.936963 178.433588 
L 458.390466 170.642748 
L 459.84397 165.545038 
L 461.297473 161.024427 
L 462.750977 155.157252 
L 464.20448 153.90687 
L 465.657984 149.770992 
L 468.564991 133.227481 
L 470.018494 133.035115 
L 471.471998 133.035115 
L 472.925501 134.285496 
L 477.286012 120.819847 
L 478.739515 112.548092 
L 480.193019 120.627481 
L 481.646523 125.917557 
L 484.55353 137.748092 
L 486.007033 145.923664 
L 487.460537 144 
L 488.91404 145.923664 
L 490.367544 148.424427 
L 491.821047 154.676336 
L 493.274551 157.946565 
L 494.728054 161.98626 
L 496.181558 164.006107 
L 497.635061 159.389313 
L 499.088565 158.138931 
L 500.542068 162.178626 
L 501.995572 167.276336 
L 504.902579 179.10687 
L 507.809586 171.412214 
L 509.263089 174.58626 
L 510.716593 183.146565 
L 512.170096 188.244275 
L 513.6236 188.821374 
L 515.077103 193.726718 
L 516.530607 194.303817 
L 517.98411 189.879389 
L 519.437614 193.245802 
L 520.891117 200.363359 
L 522.344621 199.78626 
L 523.798125 198.343511 
L 525.251628 200.459542 
L 526.705132 196.419847 
L 528.158635 194.68855 
L 529.612139 190.264122 
L 531.065642 192.668702 
L 532.519146 195.746565 
L 533.972649 192.861069 
L 535.426153 189.687023 
L 536.879656 186.993893 
L 538.33316 177.471756 
L 539.786663 171.60458 
L 541.240167 170.835115 
L 542.69367 168.045802 
L 544.147174 166.314504 
L 545.600677 164.39084 
L 547.054181 161.69771 
L 548.507684 157.561832 
L 549.961188 145.346565 
L 551.414691 146.981679 
L 552.868195 144.480916 
L 554.321698 145.250382 
L 555.775202 142.364885 
L 557.228705 136.305344 
L 558.682209 124.282443 
L 560.135712 109.374046 
L 561.589216 116.587786 
L 563.042719 106.777099 
L 564.496223 120.916031 
L 565.949726 116.299237 
L 567.40323 116.203053 
L 568.856734 104.276336 
L 570.310237 101.487023 
L 571.763741 104.180153 
L 573.217244 111.778626 
L 574.670748 122.935878 
L 576.124251 128.899237 
L 577.577755 131.207634 
L 579.031258 123.89771 
L 580.484762 122.070229 
L 581.938265 133.996947 
L 583.391769 134.670229 
L 584.845272 137.555725 
L 586.298776 146.212214 
L 587.752279 144.865649 
L 589.205783 141.403053 
L 590.659286 139.19084 
L 592.11279 144.769466 
L 593.566293 148.80916 
L 595.019797 147.174046 
L 596.4733 152.079389 
L 597.926804 148.80916 
L 599.380307 143.71145 
L 600.833811 145.154198 
L 603.740818 155.734351 
L 605.194321 157.946565 
L 606.647825 155.253435 
L 608.101328 157.850382 
L 609.554832 152.271756 
L 611.008336 151.406107 
L 612.461839 155.157252 
L 613.915343 163.044275 
L 616.82235 171.027481 
L 618.275853 170.161832 
L 619.729357 165.641221 
L 621.18286 168.719084 
L 622.636364 169.007634 
L 622.636364 169.007634 
" style="fill:none;stroke:#ffa500;stroke-linecap:square;stroke-width:1.5;"/>
   </g>
   <g id="line2d_27">
    <path clip-path="url(#pe17138bf24)" d="M 253.44647 262.20916 
L 254.899974 263.363359 
L 256.353477 259.708397 
L 257.806981 254.610687 
L 259.260485 256.919084 
L 260.713988 256.341985 
L 262.167492 260.862595 
L 263.620995 257.880916 
L 265.074499 259.035115 
L 266.528002 257.68855 
L 267.981506 256.822901 
L 269.435009 255.572519 
L 270.888513 254.129771 
L 272.342016 259.516031 
L 273.79552 259.131298 
L 275.249023 254.322137 
L 276.702527 253.167939 
L 278.15603 254.514504 
L 279.609534 252.206107 
L 281.063037 251.244275 
L 282.516541 254.033588 
L 283.970044 259.900763 
L 285.423548 253.745038 
L 286.877051 254.803053 
L 288.330555 253.456489 
L 289.784058 252.975573 
L 291.237562 254.033588 
L 292.691065 257.11145 
L 294.144569 258.458015 
L 295.598072 255.380153 
L 298.505079 252.783206 
L 299.958583 252.687023 
L 301.412086 253.937405 
L 302.86559 256.919084 
L 304.319094 257.4 
L 305.772597 257.496183 
L 307.226101 253.745038 
L 308.679604 252.783206 
L 310.133108 254.418321 
L 311.586611 255.091603 
L 313.040115 256.726718 
L 314.493618 259.035115 
L 315.947122 257.11145 
L 317.400625 254.033588 
L 318.854129 253.552672 
L 320.307632 253.552672 
L 321.761136 252.783206 
L 323.214639 254.514504 
L 324.668143 254.610687 
L 326.121646 253.456489 
L 327.57515 252.109924 
L 329.028653 253.071756 
L 330.482157 252.206107 
L 331.93566 251.821374 
L 333.389164 254.514504 
L 334.842667 259.516031 
L 336.296171 257.4 
L 337.749674 256.438168 
L 339.203178 254.899237 
L 340.656681 254.033588 
L 342.110185 254.514504 
L 343.563688 256.053435 
L 345.017192 257.303817 
L 346.470695 254.899237 
L 347.924199 252.975573 
L 349.377703 251.629008 
L 350.831206 254.899237 
L 352.28471 253.745038 
L 353.738213 256.726718 
L 355.191717 254.225954 
L 356.64522 253.071756 
L 358.098724 250.18626 
L 359.552227 250.282443 
L 361.005731 253.552672 
L 362.459234 253.071756 
L 363.912738 253.552672 
L 365.366241 254.803053 
L 366.819745 251.051908 
L 368.273248 249.705344 
L 369.726752 252.01374 
L 371.180255 251.148092 
L 372.633759 252.30229 
L 374.087262 254.803053 
L 375.540766 256.053435 
L 376.994269 251.340458 
L 378.447773 249.320611 
L 379.901276 250.18626 
L 381.35478 250.763359 
L 382.808283 253.648855 
L 384.261787 255.476336 
L 385.71529 256.245802 
L 387.168794 252.494656 
L 388.622297 249.801527 
L 390.075801 252.206107 
L 391.529305 251.051908 
L 392.982808 251.725191 
L 394.436312 253.745038 
L 395.889815 256.053435 
L 397.343319 248.358779 
L 398.796822 249.89771 
L 400.250326 250.859542 
L 401.703829 250.570992 
L 403.157333 251.821374 
L 404.610836 254.129771 
L 406.06434 255.091603 
L 407.517843 249.416794 
L 408.971347 247.012214 
L 410.42485 247.974046 
L 411.878354 249.993893 
L 413.331857 252.59084 
L 414.785361 255.476336 
L 416.238864 257.68855 
L 417.692368 248.839695 
L 419.145871 248.070229 
L 420.599375 247.974046 
L 422.052878 252.59084 
L 423.506382 251.436641 
L 424.959885 255.380153 
L 426.413389 258.265649 
L 427.866892 252.687023 
L 430.773899 250.378626 
L 432.227403 252.01374 
L 433.680906 254.225954 
L 435.13441 257.592366 
L 436.587914 259.516031 
L 438.041417 253.745038 
L 439.494921 253.360305 
L 440.948424 254.99542 
L 442.401928 254.899237 
L 443.855431 259.131298 
L 445.308935 262.112977 
L 446.762438 261.632061 
L 448.215942 257.015267 
L 449.669445 258.458015 
L 451.122949 260.766412 
L 452.576452 258.746565 
L 455.483459 264.90229 
L 456.936963 266.345038 
L 458.390466 262.978626 
L 459.84397 265.287023 
L 461.297473 264.90229 
L 462.750977 263.363359 
L 464.20448 267.691603 
L 465.657984 268.845802 
L 467.111487 267.691603 
L 468.564991 265.287023 
L 470.018494 264.709924 
L 471.471998 263.940458 
L 472.925501 266.152672 
L 474.379005 265.671756 
L 475.832508 266.248855 
L 477.286012 269.230534 
L 478.739515 265.960305 
L 480.193019 263.459542 
L 483.100026 263.267176 
L 484.55353 264.325191 
L 486.007033 267.691603 
L 487.460537 266.441221 
L 488.91404 262.305344 
L 490.367544 262.978626 
L 491.821047 261.439695 
L 493.274551 262.49771 
L 494.728054 265.19084 
L 496.181558 267.114504 
L 497.635061 264.61374 
L 499.088565 263.651908 
L 500.542068 262.20916 
L 501.995572 260.958779 
L 503.449075 261.439695 
L 504.902579 263.459542 
L 506.356082 266.152672 
L 507.809586 265.767939 
L 509.263089 261.920611 
L 510.716593 259.612214 
L 512.170096 259.516031 
L 513.6236 259.80458 
L 515.077103 262.690076 
L 516.530607 265.864122 
L 517.98411 263.459542 
L 519.437614 260.477863 
L 522.344621 255.572519 
L 523.798125 256.245802 
L 525.251628 259.516031 
L 526.705132 260.862595 
L 528.158635 260.958779 
L 529.612139 255.957252 
L 531.065642 256.053435 
L 532.519146 257.880916 
L 533.972649 256.534351 
L 535.426153 260.09313 
L 536.879656 263.170992 
L 538.33316 258.842748 
L 539.786663 258.169466 
L 541.240167 256.822901 
L 542.69367 260.381679 
L 544.147174 261.343511 
L 545.600677 262.690076 
L 547.054181 267.691603 
L 548.507684 267.883969 
L 549.961188 264.036641 
L 551.414691 266.922137 
L 552.868195 267.210687 
L 554.321698 269.038168 
L 555.775202 273.366412 
L 557.228705 271.923664 
L 558.682209 273.558779 
L 560.135712 269.134351 
L 561.589216 268.557252 
L 563.042719 269.71145 
L 564.496223 271.731298 
L 565.949726 272.69313 
L 567.40323 274.520611 
L 568.856734 272.885496 
L 570.310237 271.058015 
L 571.763741 267.30687 
L 573.217244 268.749618 
L 574.670748 268.172519 
L 576.124251 268.749618 
L 577.577755 272.69313 
L 579.031258 272.308397 
L 580.484762 269.038168 
L 581.938265 269.134351 
L 583.391769 265.575573 
L 584.845272 265.671756 
L 586.298776 266.729771 
L 587.752279 271.346565 
L 589.205783 270.865649 
L 590.659286 266.441221 
L 592.11279 266.152672 
L 593.566293 264.90229 
L 595.019797 265.287023 
L 596.4733 264.998473 
L 597.926804 269.134351 
L 599.380307 269.134351 
L 600.833811 264.325191 
L 602.287314 261.824427 
L 603.740818 261.535878 
L 605.194321 265.094656 
L 606.647825 263.844275 
L 608.101328 265.479389 
L 609.554832 268.172519 
L 611.008336 263.844275 
L 613.915343 262.401527 
L 615.368846 262.016794 
L 616.82235 262.20916 
L 618.275853 264.709924 
L 619.729357 265.383206 
L 621.18286 265.383206 
L 622.636364 259.996947 
L 622.636364 259.996947 
" style="fill:none;stroke:#0000ff;stroke-linecap:square;stroke-width:1.5;"/>
   </g>
   <g id="line2d_28">
    <path clip-path="url(#pe17138bf24)" d="M 253.44647 294.045802 
L 254.899974 294.430534 
L 256.353477 297.989313 
L 257.806981 298.277863 
L 259.260485 299.816794 
L 263.620995 300.201527 
L 265.074499 300.393893 
L 266.528002 301.451908 
L 269.435009 302.125191 
L 270.888513 301.740458 
L 272.342016 301.548092 
L 273.79552 300.778626 
L 275.249023 301.644275 
L 278.15603 302.70229 
L 279.609534 303.664122 
L 281.063037 303.664122 
L 282.516541 303.856489 
L 283.970044 303.471756 
L 285.423548 304.529771 
L 288.330555 304.433588 
L 289.784058 305.683969 
L 291.237562 306.357252 
L 294.144569 306.068702 
L 295.598072 306.357252 
L 297.051576 306.453435 
L 298.505079 306.741985 
L 299.958583 307.222901 
L 301.412086 307.415267 
L 302.86559 307.415267 
L 304.319094 306.934351 
L 305.772597 306.838168 
L 307.226101 307.222901 
L 308.679604 307.126718 
L 310.133108 306.741985 
L 311.586611 306.645802 
L 313.040115 306.838168 
L 314.493618 306.838168 
L 315.947122 307.126718 
L 317.400625 307.222901 
L 318.854129 307.703817 
L 321.761136 307.607634 
L 323.214639 307.51145 
L 326.121646 307.703817 
L 327.57515 307.51145 
L 329.028653 307.703817 
L 331.93566 307.415267 
L 333.389164 307.607634 
L 334.842667 307.126718 
L 339.203178 307.8 
L 340.656681 307.319084 
L 342.110185 307.030534 
L 343.563688 307.126718 
L 345.017192 306.549618 
L 346.470695 306.645802 
L 347.924199 306.261069 
L 352.28471 306.453435 
L 353.738213 306.164885 
L 355.191717 306.357252 
L 356.64522 306.261069 
L 358.098724 305.780153 
L 359.552227 306.164885 
L 361.005731 305.491603 
L 362.459234 305.39542 
L 363.912738 305.683969 
L 366.819745 305.10687 
L 369.726752 305.39542 
L 371.180255 305.010687 
L 379.901276 305.683969 
L 381.35478 305.876336 
L 384.261787 305.972519 
L 385.71529 305.491603 
L 387.168794 305.972519 
L 388.622297 306.068702 
L 390.075801 306.453435 
L 391.529305 305.780153 
L 392.982808 305.780153 
L 397.343319 306.261069 
L 398.796822 306.164885 
L 400.250326 306.261069 
L 401.703829 305.683969 
L 403.157333 305.587786 
L 404.610836 305.683969 
L 406.06434 305.010687 
L 407.517843 304.048855 
L 408.971347 303.952672 
L 410.42485 304.433588 
L 416.238864 300.970992 
L 417.692368 300.393893 
L 419.145871 299.143511 
L 420.599375 298.951145 
L 422.052878 297.989313 
L 424.959885 296.931298 
L 426.413389 295.48855 
L 427.866892 295.48855 
L 429.320396 294.719084 
L 430.773899 294.526718 
L 432.227403 293.757252 
L 433.680906 294.141985 
L 435.13441 293.468702 
L 438.041417 290.871756 
L 439.494921 288.948092 
L 440.948424 287.216794 
L 442.401928 286.158779 
L 443.855431 286.543511 
L 445.308935 285.389313 
L 446.762438 284.908397 
L 449.669445 280.19542 
L 451.122949 279.041221 
L 452.576452 275.963359 
L 454.029956 275.290076 
L 455.483459 274.135878 
L 456.936963 272.69313 
L 458.390466 268.845802 
L 459.84397 265.864122 
L 461.297473 264.61374 
L 462.750977 263.748092 
L 464.20448 260.958779 
L 465.657984 262.016794 
L 467.111487 260.477863 
L 468.564991 258.265649 
L 470.018494 256.726718 
L 471.471998 255.957252 
L 472.925501 254.610687 
L 474.379005 252.975573 
L 475.832508 253.071756 
L 477.286012 252.687023 
L 478.739515 250.570992 
L 480.193019 250.282443 
L 483.100026 251.148092 
L 484.55353 251.244275 
L 486.007033 251.629008 
L 487.460537 251.436641 
L 488.91404 251.629008 
L 490.367544 250.859542 
L 491.821047 251.917557 
L 493.274551 250.570992 
L 494.728054 251.917557 
L 496.181558 252.879389 
L 497.635061 254.033588 
L 499.088565 253.745038 
L 500.542068 255.380153 
L 501.995572 255.764885 
L 503.449075 256.534351 
L 504.902579 256.245802 
L 506.356082 257.207634 
L 507.809586 257.592366 
L 509.263089 258.554198 
L 510.716593 258.265649 
L 513.6236 259.323664 
L 515.077103 259.996947 
L 516.530607 260.477863 
L 517.98411 262.882443 
L 520.891117 263.459542 
L 522.344621 265.094656 
L 523.798125 263.651908 
L 525.251628 263.748092 
L 526.705132 264.036641 
L 528.158635 263.940458 
L 529.612139 264.517557 
L 531.065642 263.651908 
L 532.519146 264.036641 
L 533.972649 263.748092 
L 535.426153 262.882443 
L 536.879656 261.343511 
L 538.33316 260.766412 
L 539.786663 258.746565 
L 541.240167 258.554198 
L 542.69367 257.592366 
L 544.147174 256.341985 
L 545.600677 255.283969 
L 547.054181 253.360305 
L 548.507684 252.783206 
L 549.961188 252.783206 
L 551.414691 250.667176 
L 552.868195 251.821374 
L 554.321698 251.436641 
L 557.228705 248.454962 
L 561.589216 240.664122 
L 563.042719 239.509924 
L 564.496223 241.529771 
L 565.949726 242.010687 
L 567.40323 241.433588 
L 568.856734 240.375573 
L 570.310237 238.836641 
L 571.763741 241.433588 
L 573.217244 240.664122 
L 574.670748 241.048855 
L 576.124251 241.818321 
L 577.577755 240.760305 
L 579.031258 241.625954 
L 580.484762 242.299237 
L 581.938265 241.818321 
L 583.391769 242.491603 
L 584.845272 242.780153 
L 586.298776 244.607634 
L 587.752279 244.126718 
L 589.205783 242.780153 
L 590.659286 243.453435 
L 592.11279 243.838168 
L 596.4733 244.415267 
L 597.926804 243.741985 
L 599.380307 245.280916 
L 600.833811 244.319084 
L 602.287314 246.531298 
L 603.740818 247.108397 
L 605.194321 245.761832 
L 606.647825 247.589313 
L 608.101328 247.012214 
L 609.554832 247.685496 
L 611.008336 248.647328 
L 612.461839 250.18626 
L 613.915343 251.244275 
L 615.368846 254.033588 
L 616.82235 256.534351 
L 618.275853 257.68855 
L 621.18286 256.245802 
L 622.636364 257.880916 
L 622.636364 257.880916 
" style="fill:none;stroke:#00ffff;stroke-linecap:square;stroke-width:1.5;"/>
   </g>
   <g id="patch_3">
    <path d="M 90 320.4 
L 90 43.2 
" style="fill:none;stroke:#000000;stroke-linecap:square;stroke-linejoin:miter;stroke-width:0.8;"/>
   </g>
   <g id="patch_4">
    <path d="M 648 320.4 
L 648 43.2 
" style="fill:none;stroke:#000000;stroke-linecap:square;stroke-linejoin:miter;stroke-width:0.8;"/>
   </g>
   <g id="patch_5">
    <path d="M 90 320.4 
L 648 320.4 
" style="fill:none;stroke:#000000;stroke-linecap:square;stroke-linejoin:miter;stroke-width:0.8;"/>
   </g>
   <g id="patch_6">
    <path d="M 90 43.2 
L 648 43.2 
" style="fill:none;stroke:#000000;stroke-linecap:square;stroke-linejoin:miter;stroke-width:0.8;"/>
   </g>
   <g id="text_14">
    <!-- Testplot -->
    <g transform="translate(345.68625 37.2)scale(0.12 -0.12)">
     <defs>
      <path d="M -0.296875 72.90625 
L 61.375 72.90625 
L 61.375 64.59375 
L 35.5 64.59375 
L 35.5 0 
L 25.59375 0 
L 25.59375 64.59375 
L -0.296875 64.59375 
z
" id="DejaVuSans-84"/>
      <path d="M 56.203125 29.59375 
L 56.203125 25.203125 
L 14.890625 25.203125 
Q 15.484375 15.921875 20.484375 11.0625 
Q 25.484375 6.203125 34.421875 6.203125 
Q 39.59375 6.203125 44.453125 7.46875 
Q 49.3125 8.734375 54.109375 11.28125 
L 54.109375 2.78125 
Q 49.265625 0.734375 44.1875 -0.34375 
Q 39.109375 -1.421875 33.890625 -1.421875 
Q 20.796875 -1.421875 13.15625 6.1875 
Q 5.515625 13.8125 5.515625 26.8125 
Q 5.515625 40.234375 12.765625 48.109375 
Q 20.015625 56 32.328125 56 
Q 43.359375 56 49.78125 48.890625 
Q 56.203125 41.796875 56.203125 29.59375 
z
M 47.21875 32.234375 
Q 47.125 39.59375 43.09375 43.984375 
Q 39.0625 48.390625 32.421875 48.390625 
Q 24.90625 48.390625 20.390625 44.140625 
Q 15.875 39.890625 15.1875 32.171875 
z
" id="DejaVuSans-101"/>
      <path d="M 44.28125 53.078125 
L 44.28125 44.578125 
Q 40.484375 46.53125 36.375 47.5 
Q 32.28125 48.484375 27.875 48.484375 
Q 21.1875 48.484375 17.84375 46.4375 
Q 14.5 44.390625 14.5 40.28125 
Q 14.5 37.15625 16.890625 35.375 
Q 19.28125 33.59375 26.515625 31.984375 
L 29.59375 31.296875 
Q 39.15625 29.25 43.1875 25.515625 
Q 47.21875 21.78125 47.21875 15.09375 
Q 47.21875 7.46875 41.1875 3.015625 
Q 35.15625 -1.421875 24.609375 -1.421875 
Q 20.21875 -1.421875 15.453125 -0.5625 
Q 10.6875 0.296875 5.421875 2 
L 5.421875 11.28125 
Q 10.40625 8.6875 15.234375 7.390625 
Q 20.0625 6.109375 24.8125 6.109375 
Q 31.15625 6.109375 34.5625 8.28125 
Q 37.984375 10.453125 37.984375 14.40625 
Q 37.984375 18.0625 35.515625 20.015625 
Q 33.0625 21.96875 24.703125 23.78125 
L 21.578125 24.515625 
Q 13.234375 26.265625 9.515625 29.90625 
Q 5.8125 33.546875 5.8125 39.890625 
Q 5.8125 47.609375 11.28125 51.796875 
Q 16.75 56 26.8125 56 
Q 31.78125 56 36.171875 55.265625 
Q 40.578125 54.546875 44.28125 53.078125 
z
" id="DejaVuSans-115"/>
      <path d="M 18.109375 8.203125 
L 18.109375 -20.796875 
L 9.078125 -20.796875 
L 9.078125 54.6875 
L 18.109375 54.6875 
L 18.109375 46.390625 
Q 20.953125 51.265625 25.265625 53.625 
Q 29.59375 56 35.59375 56 
Q 45.5625 56 51.78125 48.09375 
Q 58.015625 40.1875 58.015625 27.296875 
Q 58.015625 14.40625 51.78125 6.484375 
Q 45.5625 -1.421875 35.59375 -1.421875 
Q 29.59375 -1.421875 25.265625 0.953125 
Q 20.953125 3.328125 18.109375 8.203125 
z
M 48.6875 27.296875 
Q 48.6875 37.203125 44.609375 42.84375 
Q 40.53125 48.484375 33.40625 48.484375 
Q 26.265625 48.484375 22.1875 42.84375 
Q 18.109375 37.203125 18.109375 27.296875 
Q 18.109375 17.390625 22.1875 11.75 
Q 26.265625 6.109375 33.40625 6.109375 
Q 40.53125 6.109375 44.609375 11.75 
Q 48.6875 17.390625 48.6875 27.296875 
z
" id="DejaVuSans-112"/>
      <path d="M 9.421875 75.984375 
L 18.40625 75.984375 
L 18.40625 0 
L 9.421875 0 
z
" id="DejaVuSans-108"/>
      <path d="M 30.609375 48.390625 
Q 23.390625 48.390625 19.1875 42.75 
Q 14.984375 37.109375 14.984375 27.296875 
Q 14.984375 17.484375 19.15625 11.84375 
Q 23.34375 6.203125 30.609375 6.203125 
Q 37.796875 6.203125 41.984375 11.859375 
Q 46.1875 17.53125 46.1875 27.296875 
Q 46.1875 37.015625 41.984375 42.703125 
Q 37.796875 48.390625 30.609375 48.390625 
z
M 30.609375 56 
Q 42.328125 56 49.015625 48.375 
Q 55.71875 40.765625 55.71875 27.296875 
Q 55.71875 13.875 49.015625 6.21875 
Q 42.328125 -1.421875 30.609375 -1.421875 
Q 18.84375 -1.421875 12.171875 6.21875 
Q 5.515625 13.875 5.515625 27.296875 
Q 5.515625 40.765625 12.171875 48.375 
Q 18.84375 56 30.609375 56 
z
" id="DejaVuSans-111"/>
     </defs>
     <use xlink:href="#DejaVuSans-84"/>
     <use x="44.083984" xlink:href="#DejaVuSans-101"/>
     <use x="105.607422" xlink:href="#DejaVuSans-115"/>
     <use x="157.707031" xlink:href="#DejaVuSans-116"/>
     <use x="196.916016" xlink:href="#DejaVuSans-112"/>
     <use x="260.392578" xlink:href="#DejaVuSans-108"/>
     <use x="288.175781" xlink:href="#DejaVuSans-111"/>
     <use x="349.357422" xlink:href="#DejaVuSans-116"/>
    </g>
   </g>
   <g id="legend_1">
    <g id="patch_7">
     <path d="M 97 109.9125 
L 348.946875 109.9125 
Q 350.946875 109.9125 350.946875 107.9125 
L 350.946875 50.2 
Q 350.946875 48.2 348.946875 48.2 
L 97 48.2 
Q 95 48.2 95 50.2 
L 95 107.9125 
Q 95 109.9125 97 109.9125 
z
" style="fill:#ffffff;opacity:0.8;stroke:#cccccc;stroke-linejoin:miter;"/>
    </g>
    <g id="line2d_29">
     <path d="M 99 56.298437 
L 119 56.298437 
" style="fill:none;stroke:#ff0000;stroke-linecap:square;stroke-width:1.5;"/>
    </g>
    <g id="line2d_30"/>
    <g id="text_15">
     <!-- covid opgenomen patinten NICE (nu 1596) -->
     <g transform="translate(127 59.798437)scale(0.1 -0.1)">
      <defs>
       <path d="M 48.78125 52.59375 
L 48.78125 44.1875 
Q 44.96875 46.296875 41.140625 47.34375 
Q 37.3125 48.390625 33.40625 48.390625 
Q 24.65625 48.390625 19.8125 42.84375 
Q 14.984375 37.3125 14.984375 27.296875 
Q 14.984375 17.28125 19.8125 11.734375 
Q 24.65625 6.203125 33.40625 6.203125 
Q 37.3125 6.203125 41.140625 7.25 
Q 44.96875 8.296875 48.78125 10.40625 
L 48.78125 2.09375 
Q 45.015625 0.34375 40.984375 -0.53125 
Q 36.96875 -1.421875 32.421875 -1.421875 
Q 20.0625 -1.421875 12.78125 6.34375 
Q 5.515625 14.109375 5.515625 27.296875 
Q 5.515625 40.671875 12.859375 48.328125 
Q 20.21875 56 33.015625 56 
Q 37.15625 56 41.109375 55.140625 
Q 45.0625 54.296875 48.78125 52.59375 
z
" id="DejaVuSans-99"/>
       <path d="M 2.984375 54.6875 
L 12.5 54.6875 
L 29.59375 8.796875 
L 46.6875 54.6875 
L 56.203125 54.6875 
L 35.6875 0 
L 23.484375 0 
z
" id="DejaVuSans-118"/>
       <path d="M 9.421875 54.6875 
L 18.40625 54.6875 
L 18.40625 0 
L 9.421875 0 
z
M 9.421875 75.984375 
L 18.40625 75.984375 
L 18.40625 64.59375 
L 9.421875 64.59375 
z
" id="DejaVuSans-105"/>
       <path d="M 45.40625 46.390625 
L 45.40625 75.984375 
L 54.390625 75.984375 
L 54.390625 0 
L 45.40625 0 
L 45.40625 8.203125 
Q 42.578125 3.328125 38.25 0.953125 
Q 33.9375 -1.421875 27.875 -1.421875 
Q 17.96875 -1.421875 11.734375 6.484375 
Q 5.515625 14.40625 5.515625 27.296875 
Q 5.515625 40.1875 11.734375 48.09375 
Q 17.96875 56 27.875 56 
Q 33.9375 56 38.25 53.625 
Q 42.578125 51.265625 45.40625 46.390625 
z
M 14.796875 27.296875 
Q 14.796875 17.390625 18.875 11.75 
Q 22.953125 6.109375 30.078125 6.109375 
Q 37.203125 6.109375 41.296875 11.75 
Q 45.40625 17.390625 45.40625 27.296875 
Q 45.40625 37.203125 41.296875 42.84375 
Q 37.203125 48.484375 30.078125 48.484375 
Q 22.953125 48.484375 18.875 42.84375 
Q 14.796875 37.203125 14.796875 27.296875 
z
" id="DejaVuSans-100"/>
       <path id="DejaVuSans-32"/>
       <path d="M 45.40625 27.984375 
Q 45.40625 37.75 41.375 43.109375 
Q 37.359375 48.484375 30.078125 48.484375 
Q 22.859375 48.484375 18.828125 43.109375 
Q 14.796875 37.75 14.796875 27.984375 
Q 14.796875 18.265625 18.828125 12.890625 
Q 22.859375 7.515625 30.078125 7.515625 
Q 37.359375 7.515625 41.375 12.890625 
Q 45.40625 18.265625 45.40625 27.984375 
z
M 54.390625 6.78125 
Q 54.390625 -7.171875 48.1875 -13.984375 
Q 42 -20.796875 29.203125 -20.796875 
Q 24.46875 -20.796875 20.265625 -20.09375 
Q 16.0625 -19.390625 12.109375 -17.921875 
L 12.109375 -9.1875 
Q 16.0625 -11.328125 19.921875 -12.34375 
Q 23.78125 -13.375 27.78125 -13.375 
Q 36.625 -13.375 41.015625 -8.765625 
Q 45.40625 -4.15625 45.40625 5.171875 
L 45.40625 9.625 
Q 42.625 4.78125 38.28125 2.390625 
Q 33.9375 0 27.875 0 
Q 17.828125 0 11.671875 7.65625 
Q 5.515625 15.328125 5.515625 27.984375 
Q 5.515625 40.671875 11.671875 48.328125 
Q 17.828125 56 27.875 56 
Q 33.9375 56 38.28125 53.609375 
Q 42.625 51.21875 45.40625 46.390625 
L 45.40625 54.6875 
L 54.390625 54.6875 
z
" id="DejaVuSans-103"/>
       <path d="M 54.890625 33.015625 
L 54.890625 0 
L 45.90625 0 
L 45.90625 32.71875 
Q 45.90625 40.484375 42.875 44.328125 
Q 39.84375 48.1875 33.796875 48.1875 
Q 26.515625 48.1875 22.3125 43.546875 
Q 18.109375 38.921875 18.109375 30.90625 
L 18.109375 0 
L 9.078125 0 
L 9.078125 54.6875 
L 18.109375 54.6875 
L 18.109375 46.1875 
Q 21.34375 51.125 25.703125 53.5625 
Q 30.078125 56 35.796875 56 
Q 45.21875 56 50.046875 50.171875 
Q 54.890625 44.34375 54.890625 33.015625 
z
" id="DejaVuSans-110"/>
       <path d="M 56.203125 29.59375 
L 56.203125 25.203125 
L 14.890625 25.203125 
Q 15.484375 15.921875 20.484375 11.0625 
Q 25.484375 6.203125 34.421875 6.203125 
Q 39.59375 6.203125 44.453125 7.46875 
Q 49.3125 8.734375 54.109375 11.28125 
L 54.109375 2.78125 
Q 49.265625 0.734375 44.1875 -0.34375 
Q 39.109375 -1.421875 33.890625 -1.421875 
Q 20.796875 -1.421875 13.15625 6.1875 
Q 5.515625 13.8125 5.515625 26.8125 
Q 5.515625 40.234375 12.765625 48.109375 
Q 20.015625 56 32.328125 56 
Q 43.359375 56 49.78125 48.890625 
Q 56.203125 41.796875 56.203125 29.59375 
z
M 47.21875 32.234375 
Q 47.125 39.59375 43.09375 43.984375 
Q 39.0625 48.390625 32.421875 48.390625 
Q 24.90625 48.390625 20.390625 44.140625 
Q 15.875 39.890625 15.1875 32.171875 
z
M 36.34375 75.78125 
L 46.25 75.78125 
L 46.25 65.921875 
L 36.34375 65.921875 
z
M 17.25 75.78125 
L 27.15625 75.78125 
L 27.15625 65.921875 
L 17.25 65.921875 
z
" id="DejaVuSans-235"/>
       <path d="M 9.8125 72.90625 
L 23.09375 72.90625 
L 55.421875 11.921875 
L 55.421875 72.90625 
L 64.984375 72.90625 
L 64.984375 0 
L 51.703125 0 
L 19.390625 60.984375 
L 19.390625 0 
L 9.8125 0 
z
" id="DejaVuSans-78"/>
       <path d="M 9.8125 72.90625 
L 19.671875 72.90625 
L 19.671875 0 
L 9.8125 0 
z
" id="DejaVuSans-73"/>
       <path d="M 64.40625 67.28125 
L 64.40625 56.890625 
Q 59.421875 61.53125 53.78125 63.8125 
Q 48.140625 66.109375 41.796875 66.109375 
Q 29.296875 66.109375 22.65625 58.46875 
Q 16.015625 50.828125 16.015625 36.375 
Q 16.015625 21.96875 22.65625 14.328125 
Q 29.296875 6.6875 41.796875 6.6875 
Q 48.140625 6.6875 53.78125 8.984375 
Q 59.421875 11.28125 64.40625 15.921875 
L 64.40625 5.609375 
Q 59.234375 2.09375 53.4375 0.328125 
Q 47.65625 -1.421875 41.21875 -1.421875 
Q 24.65625 -1.421875 15.125 8.703125 
Q 5.609375 18.84375 5.609375 36.375 
Q 5.609375 53.953125 15.125 64.078125 
Q 24.65625 74.21875 41.21875 74.21875 
Q 47.75 74.21875 53.53125 72.484375 
Q 59.328125 70.75 64.40625 67.28125 
z
" id="DejaVuSans-67"/>
       <path d="M 9.8125 72.90625 
L 55.90625 72.90625 
L 55.90625 64.59375 
L 19.671875 64.59375 
L 19.671875 43.015625 
L 54.390625 43.015625 
L 54.390625 34.71875 
L 19.671875 34.71875 
L 19.671875 8.296875 
L 56.78125 8.296875 
L 56.78125 0 
L 9.8125 0 
z
" id="DejaVuSans-69"/>
       <path d="M 31 75.875 
Q 24.46875 64.65625 21.28125 53.65625 
Q 18.109375 42.671875 18.109375 31.390625 
Q 18.109375 20.125 21.3125 9.0625 
Q 24.515625 -2 31 -13.1875 
L 23.1875 -13.1875 
Q 15.875 -1.703125 12.234375 9.375 
Q 8.59375 20.453125 8.59375 31.390625 
Q 8.59375 42.28125 12.203125 53.3125 
Q 15.828125 64.359375 23.1875 75.875 
z
" id="DejaVuSans-40"/>
       <path d="M 33.015625 40.375 
Q 26.375 40.375 22.484375 35.828125 
Q 18.609375 31.296875 18.609375 23.390625 
Q 18.609375 15.53125 22.484375 10.953125 
Q 26.375 6.390625 33.015625 6.390625 
Q 39.65625 6.390625 43.53125 10.953125 
Q 47.40625 15.53125 47.40625 23.390625 
Q 47.40625 31.296875 43.53125 35.828125 
Q 39.65625 40.375 33.015625 40.375 
z
M 52.59375 71.296875 
L 52.59375 62.3125 
Q 48.875 64.0625 45.09375 64.984375 
Q 41.3125 65.921875 37.59375 65.921875 
Q 27.828125 65.921875 22.671875 59.328125 
Q 17.53125 52.734375 16.796875 39.40625 
Q 19.671875 43.65625 24.015625 45.921875 
Q 28.375 48.1875 33.59375 48.1875 
Q 44.578125 48.1875 50.953125 41.515625 
Q 57.328125 34.859375 57.328125 23.390625 
Q 57.328125 12.15625 50.6875 5.359375 
Q 44.046875 -1.421875 33.015625 -1.421875 
Q 20.359375 -1.421875 13.671875 8.265625 
Q 6.984375 17.96875 6.984375 36.375 
Q 6.984375 53.65625 15.1875 63.9375 
Q 23.390625 74.21875 37.203125 74.21875 
Q 40.921875 74.21875 44.703125 73.484375 
Q 48.484375 72.75 52.59375 71.296875 
z
" id="DejaVuSans-54"/>
       <path d="M 8.015625 75.875 
L 15.828125 75.875 
Q 23.140625 64.359375 26.78125 53.3125 
Q 30.421875 42.28125 30.421875 31.390625 
Q 30.421875 20.453125 26.78125 9.375 
Q 23.140625 -1.703125 15.828125 -13.1875 
L 8.015625 -13.1875 
Q 14.5 -2 17.703125 9.0625 
Q 20.90625 20.125 20.90625 31.390625 
Q 20.90625 42.671875 17.703125 53.65625 
Q 14.5 64.65625 8.015625 75.875 
z
" id="DejaVuSans-41"/>
      </defs>
      <use xlink:href="#DejaVuSans-99"/>
      <use x="54.980469" xlink:href="#DejaVuSans-111"/>
      <use x="116.162109" xlink:href="#DejaVuSans-118"/>
      <use x="175.341797" xlink:href="#DejaVuSans-105"/>
      <use x="203.125" xlink:href="#DejaVuSans-100"/>
      <use x="266.601562" xlink:href="#DejaVuSans-32"/>
      <use x="298.388672" xlink:href="#DejaVuSans-111"/>
      <use x="359.570312" xlink:href="#DejaVuSans-112"/>
      <use x="423.046875" xlink:href="#DejaVuSans-103"/>
      <use x="486.523438" xlink:href="#DejaVuSans-101"/>
      <use x="548.046875" xlink:href="#DejaVuSans-110"/>
      <use x="611.425781" xlink:href="#DejaVuSans-111"/>
      <use x="672.607422" xlink:href="#DejaVuSans-109"/>
      <use x="770.019531" xlink:href="#DejaVuSans-101"/>
      <use x="831.542969" xlink:href="#DejaVuSans-110"/>
      <use x="894.921875" xlink:href="#DejaVuSans-32"/>
      <use x="926.708984" xlink:href="#DejaVuSans-112"/>
      <use x="990.185547" xlink:href="#DejaVuSans-97"/>
      <use x="1051.464844" xlink:href="#DejaVuSans-116"/>
      <use x="1090.673828" xlink:href="#DejaVuSans-105"/>
      <use x="1118.457031" xlink:href="#DejaVuSans-235"/>
      <use x="1179.980469" xlink:href="#DejaVuSans-110"/>
      <use x="1243.359375" xlink:href="#DejaVuSans-116"/>
      <use x="1282.568359" xlink:href="#DejaVuSans-101"/>
      <use x="1344.091797" xlink:href="#DejaVuSans-110"/>
      <use x="1407.470703" xlink:href="#DejaVuSans-32"/>
      <use x="1439.257812" xlink:href="#DejaVuSans-78"/>
      <use x="1514.0625" xlink:href="#DejaVuSans-73"/>
      <use x="1543.554688" xlink:href="#DejaVuSans-67"/>
      <use x="1613.378906" xlink:href="#DejaVuSans-69"/>
      <use x="1676.5625" xlink:href="#DejaVuSans-32"/>
      <use x="1708.349609" xlink:href="#DejaVuSans-40"/>
      <use x="1747.363281" xlink:href="#DejaVuSans-110"/>
      <use x="1810.742188" xlink:href="#DejaVuSans-117"/>
      <use x="1874.121094" xlink:href="#DejaVuSans-32"/>
      <use x="1905.908203" xlink:href="#DejaVuSans-49"/>
      <use x="1969.53125" xlink:href="#DejaVuSans-53"/>
      <use x="2033.154297" xlink:href="#DejaVuSans-57"/>
      <use x="2096.777344" xlink:href="#DejaVuSans-54"/>
      <use x="2160.400391" xlink:href="#DejaVuSans-41"/>
     </g>
    </g>
    <g id="line2d_31">
     <path d="M 99 70.976562 
L 119 70.976562 
" style="fill:none;stroke:#ffa500;stroke-linecap:square;stroke-width:1.5;"/>
    </g>
    <g id="line2d_32"/>
    <g id="text_16">
     <!-- covid bezette bedden LCPS (nu 1457) -->
     <g transform="translate(127 74.476562)scale(0.1 -0.1)">
      <defs>
       <path d="M 48.6875 27.296875 
Q 48.6875 37.203125 44.609375 42.84375 
Q 40.53125 48.484375 33.40625 48.484375 
Q 26.265625 48.484375 22.1875 42.84375 
Q 18.109375 37.203125 18.109375 27.296875 
Q 18.109375 17.390625 22.1875 11.75 
Q 26.265625 6.109375 33.40625 6.109375 
Q 40.53125 6.109375 44.609375 11.75 
Q 48.6875 17.390625 48.6875 27.296875 
z
M 18.109375 46.390625 
Q 20.953125 51.265625 25.265625 53.625 
Q 29.59375 56 35.59375 56 
Q 45.5625 56 51.78125 48.09375 
Q 58.015625 40.1875 58.015625 27.296875 
Q 58.015625 14.40625 51.78125 6.484375 
Q 45.5625 -1.421875 35.59375 -1.421875 
Q 29.59375 -1.421875 25.265625 0.953125 
Q 20.953125 3.328125 18.109375 8.203125 
L 18.109375 0 
L 9.078125 0 
L 9.078125 75.984375 
L 18.109375 75.984375 
z
" id="DejaVuSans-98"/>
       <path d="M 5.515625 54.6875 
L 48.1875 54.6875 
L 48.1875 46.484375 
L 14.40625 7.171875 
L 48.1875 7.171875 
L 48.1875 0 
L 4.296875 0 
L 4.296875 8.203125 
L 38.09375 47.515625 
L 5.515625 47.515625 
z
" id="DejaVuSans-122"/>
       <path d="M 9.8125 72.90625 
L 19.671875 72.90625 
L 19.671875 8.296875 
L 55.171875 8.296875 
L 55.171875 0 
L 9.8125 0 
z
" id="DejaVuSans-76"/>
       <path d="M 19.671875 64.796875 
L 19.671875 37.40625 
L 32.078125 37.40625 
Q 38.96875 37.40625 42.71875 40.96875 
Q 46.484375 44.53125 46.484375 51.125 
Q 46.484375 57.671875 42.71875 61.234375 
Q 38.96875 64.796875 32.078125 64.796875 
z
M 9.8125 72.90625 
L 32.078125 72.90625 
Q 44.34375 72.90625 50.609375 67.359375 
Q 56.890625 61.8125 56.890625 51.125 
Q 56.890625 40.328125 50.609375 34.8125 
Q 44.34375 29.296875 32.078125 29.296875 
L 19.671875 29.296875 
L 19.671875 0 
L 9.8125 0 
z
" id="DejaVuSans-80"/>
       <path d="M 53.515625 70.515625 
L 53.515625 60.890625 
Q 47.90625 63.578125 42.921875 64.890625 
Q 37.9375 66.21875 33.296875 66.21875 
Q 25.25 66.21875 20.875 63.09375 
Q 16.5 59.96875 16.5 54.203125 
Q 16.5 49.359375 19.40625 46.890625 
Q 22.3125 44.4375 30.421875 42.921875 
L 36.375 41.703125 
Q 47.40625 39.59375 52.65625 34.296875 
Q 57.90625 29 57.90625 20.125 
Q 57.90625 9.515625 50.796875 4.046875 
Q 43.703125 -1.421875 29.984375 -1.421875 
Q 24.8125 -1.421875 18.96875 -0.25 
Q 13.140625 0.921875 6.890625 3.21875 
L 6.890625 13.375 
Q 12.890625 10.015625 18.65625 8.296875 
Q 24.421875 6.59375 29.984375 6.59375 
Q 38.421875 6.59375 43.015625 9.90625 
Q 47.609375 13.234375 47.609375 19.390625 
Q 47.609375 24.75 44.3125 27.78125 
Q 41.015625 30.8125 33.5 32.328125 
L 27.484375 33.5 
Q 16.453125 35.6875 11.515625 40.375 
Q 6.59375 45.0625 6.59375 53.421875 
Q 6.59375 63.09375 13.40625 68.65625 
Q 20.21875 74.21875 32.171875 74.21875 
Q 37.3125 74.21875 42.625 73.28125 
Q 47.953125 72.359375 53.515625 70.515625 
z
" id="DejaVuSans-83"/>
       <path d="M 37.796875 64.3125 
L 12.890625 25.390625 
L 37.796875 25.390625 
z
M 35.203125 72.90625 
L 47.609375 72.90625 
L 47.609375 25.390625 
L 58.015625 25.390625 
L 58.015625 17.1875 
L 47.609375 17.1875 
L 47.609375 0 
L 37.796875 0 
L 37.796875 17.1875 
L 4.890625 17.1875 
L 4.890625 26.703125 
z
" id="DejaVuSans-52"/>
      </defs>
      <use xlink:href="#DejaVuSans-99"/>
      <use x="54.980469" xlink:href="#DejaVuSans-111"/>
      <use x="116.162109" xlink:href="#DejaVuSans-118"/>
      <use x="175.341797" xlink:href="#DejaVuSans-105"/>
      <use x="203.125" xlink:href="#DejaVuSans-100"/>
      <use x="266.601562" xlink:href="#DejaVuSans-32"/>
      <use x="298.388672" xlink:href="#DejaVuSans-98"/>
      <use x="361.865234" xlink:href="#DejaVuSans-101"/>
      <use x="423.388672" xlink:href="#DejaVuSans-122"/>
      <use x="475.878906" xlink:href="#DejaVuSans-101"/>
      <use x="537.402344" xlink:href="#DejaVuSans-116"/>
      <use x="576.611328" xlink:href="#DejaVuSans-116"/>
      <use x="615.820312" xlink:href="#DejaVuSans-101"/>
      <use x="677.34375" xlink:href="#DejaVuSans-32"/>
      <use x="709.130859" xlink:href="#DejaVuSans-98"/>
      <use x="772.607422" xlink:href="#DejaVuSans-101"/>
      <use x="834.130859" xlink:href="#DejaVuSans-100"/>
      <use x="897.607422" xlink:href="#DejaVuSans-100"/>
      <use x="961.083984" xlink:href="#DejaVuSans-101"/>
      <use x="1022.607422" xlink:href="#DejaVuSans-110"/>
      <use x="1085.986328" xlink:href="#DejaVuSans-32"/>
      <use x="1117.773438" xlink:href="#DejaVuSans-76"/>
      <use x="1173.486328" xlink:href="#DejaVuSans-67"/>
      <use x="1243.310547" xlink:href="#DejaVuSans-80"/>
      <use x="1303.613281" xlink:href="#DejaVuSans-83"/>
      <use x="1367.089844" xlink:href="#DejaVuSans-32"/>
      <use x="1398.876953" xlink:href="#DejaVuSans-40"/>
      <use x="1437.890625" xlink:href="#DejaVuSans-110"/>
      <use x="1501.269531" xlink:href="#DejaVuSans-117"/>
      <use x="1564.648438" xlink:href="#DejaVuSans-32"/>
      <use x="1596.435547" xlink:href="#DejaVuSans-49"/>
      <use x="1660.058594" xlink:href="#DejaVuSans-52"/>
      <use x="1723.681641" xlink:href="#DejaVuSans-53"/>
      <use x="1787.304688" xlink:href="#DejaVuSans-55"/>
      <use x="1850.927734" xlink:href="#DejaVuSans-41"/>
     </g>
    </g>
    <g id="line2d_33">
     <path d="M 99 85.654687 
L 119 85.654687 
" style="fill:none;stroke:#0000ff;stroke-linecap:square;stroke-width:1.5;"/>
    </g>
    <g id="line2d_34"/>
    <g id="text_17">
     <!-- non-covid bezette IC bedden LCPS (nu 511) -->
     <g transform="translate(127 89.154687)scale(0.1 -0.1)">
      <use xlink:href="#DejaVuSans-110"/>
      <use x="63.378906" xlink:href="#DejaVuSans-111"/>
      <use x="124.560547" xlink:href="#DejaVuSans-110"/>
      <use x="187.939453" xlink:href="#DejaVuSans-45"/>
      <use x="224.023438" xlink:href="#DejaVuSans-99"/>
      <use x="279.003906" xlink:href="#DejaVuSans-111"/>
      <use x="340.185547" xlink:href="#DejaVuSans-118"/>
      <use x="399.365234" xlink:href="#DejaVuSans-105"/>
      <use x="427.148438" xlink:href="#DejaVuSans-100"/>
      <use x="490.625" xlink:href="#DejaVuSans-32"/>
      <use x="522.412109" xlink:href="#DejaVuSans-98"/>
      <use x="585.888672" xlink:href="#DejaVuSans-101"/>
      <use x="647.412109" xlink:href="#DejaVuSans-122"/>
      <use x="699.902344" xlink:href="#DejaVuSans-101"/>
      <use x="761.425781" xlink:href="#DejaVuSans-116"/>
      <use x="800.634766" xlink:href="#DejaVuSans-116"/>
      <use x="839.84375" xlink:href="#DejaVuSans-101"/>
      <use x="901.367188" xlink:href="#DejaVuSans-32"/>
      <use x="933.154297" xlink:href="#DejaVuSans-73"/>
      <use x="962.646484" xlink:href="#DejaVuSans-67"/>
      <use x="1032.470703" xlink:href="#DejaVuSans-32"/>
      <use x="1064.257812" xlink:href="#DejaVuSans-98"/>
      <use x="1127.734375" xlink:href="#DejaVuSans-101"/>
      <use x="1189.257812" xlink:href="#DejaVuSans-100"/>
      <use x="1252.734375" xlink:href="#DejaVuSans-100"/>
      <use x="1316.210938" xlink:href="#DejaVuSans-101"/>
      <use x="1377.734375" xlink:href="#DejaVuSans-110"/>
      <use x="1441.113281" xlink:href="#DejaVuSans-32"/>
      <use x="1472.900391" xlink:href="#DejaVuSans-76"/>
      <use x="1528.613281" xlink:href="#DejaVuSans-67"/>
      <use x="1598.4375" xlink:href="#DejaVuSans-80"/>
      <use x="1658.740234" xlink:href="#DejaVuSans-83"/>
      <use x="1722.216797" xlink:href="#DejaVuSans-32"/>
      <use x="1754.003906" xlink:href="#DejaVuSans-40"/>
      <use x="1793.017578" xlink:href="#DejaVuSans-110"/>
      <use x="1856.396484" xlink:href="#DejaVuSans-117"/>
      <use x="1919.775391" xlink:href="#DejaVuSans-32"/>
      <use x="1951.5625" xlink:href="#DejaVuSans-53"/>
      <use x="2015.185547" xlink:href="#DejaVuSans-49"/>
      <use x="2078.808594" xlink:href="#DejaVuSans-49"/>
      <use x="2142.431641" xlink:href="#DejaVuSans-41"/>
     </g>
    </g>
    <g id="line2d_35">
     <path d="M 99 100.332812 
L 119 100.332812 
" style="fill:none;stroke:#00ffff;stroke-linecap:square;stroke-width:1.5;"/>
    </g>
    <g id="line2d_36"/>
    <g id="text_18">
     <!-- covid bezette IC bedden LCPS (nu 533) -->
     <g transform="translate(127 103.832812)scale(0.1 -0.1)">
      <use xlink:href="#DejaVuSans-99"/>
      <use x="54.980469" xlink:href="#DejaVuSans-111"/>
      <use x="116.162109" xlink:href="#DejaVuSans-118"/>
      <use x="175.341797" xlink:href="#DejaVuSans-105"/>
      <use x="203.125" xlink:href="#DejaVuSans-100"/>
      <use x="266.601562" xlink:href="#DejaVuSans-32"/>
      <use x="298.388672" xlink:href="#DejaVuSans-98"/>
      <use x="361.865234" xlink:href="#DejaVuSans-101"/>
      <use x="423.388672" xlink:href="#DejaVuSans-122"/>
      <use x="475.878906" xlink:href="#DejaVuSans-101"/>
      <use x="537.402344" xlink:href="#DejaVuSans-116"/>
      <use x="576.611328" xlink:href="#DejaVuSans-116"/>
      <use x="615.820312" xlink:href="#DejaVuSans-101"/>
      <use x="677.34375" xlink:href="#DejaVuSans-32"/>
      <use x="709.130859" xlink:href="#DejaVuSans-73"/>
      <use x="738.623047" xlink:href="#DejaVuSans-67"/>
      <use x="808.447266" xlink:href="#DejaVuSans-32"/>
      <use x="840.234375" xlink:href="#DejaVuSans-98"/>
      <use x="903.710938" xlink:href="#DejaVuSans-101"/>
      <use x="965.234375" xlink:href="#DejaVuSans-100"/>
      <use x="1028.710938" xlink:href="#DejaVuSans-100"/>
      <use x="1092.1875" xlink:href="#DejaVuSans-101"/>
      <use x="1153.710938" xlink:href="#DejaVuSans-110"/>
      <use x="1217.089844" xlink:href="#DejaVuSans-32"/>
      <use x="1248.876953" xlink:href="#DejaVuSans-76"/>
      <use x="1304.589844" xlink:href="#DejaVuSans-67"/>
      <use x="1374.414062" xlink:href="#DejaVuSans-80"/>
      <use x="1434.716797" xlink:href="#DejaVuSans-83"/>
      <use x="1498.193359" xlink:href="#DejaVuSans-32"/>
      <use x="1529.980469" xlink:href="#DejaVuSans-40"/>
      <use x="1568.994141" xlink:href="#DejaVuSans-110"/>
      <use x="1632.373047" xlink:href="#DejaVuSans-117"/>
      <use x="1695.751953" xlink:href="#DejaVuSans-32"/>
      <use x="1727.539062" xlink:href="#DejaVuSans-53"/>
      <use x="1791.162109" xlink:href="#DejaVuSans-51"/>
      <use x="1854.785156" xlink:href="#DejaVuSans-51"/>
      <use x="1918.408203" xlink:href="#DejaVuSans-41"/>
     </g>
    </g>
   </g>
  </g>
 </g>
 <defs>
  <clipPath id="pe17138bf24">
   <rect height="277.2" width="558" x="90" y="43.2"/>
  </clipPath>
 </defs>
</svg>
