<?xml version="1.0" encoding="utf-8" standalone="no"?>
<!DOCTYPE svg PUBLIC "-//W3C//DTD SVG 1.1//EN"
  "http://www.w3.org/Graphics/SVG/1.1/DTD/svg11.dtd">
<!-- Created with matplotlib (https://matplotlib.org/) -->
<svg height="360pt" version="1.1" viewBox="0 0 720 360" width="720pt" xmlns="http://www.w3.org/2000/svg" xmlns:xlink="http://www.w3.org/1999/xlink">
 <metadata>
  <rdf:RDF xmlns:cc="http://creativecommons.org/ns#" xmlns:dc="http://purl.org/dc/elements/1.1/" xmlns:rdf="http://www.w3.org/1999/02/22-rdf-syntax-ns#">
   <cc:Work>
    <dc:type rdf:resource="http://purl.org/dc/dcmitype/StillImage"/>
    <dc:date>2021-04-08T11:29:19.868016</dc:date>
    <dc:format>image/svg+xml</dc:format>
    <dc:creator>
     <cc:Agent>
      <dc:title>Matplotlib v3.3.2, https://matplotlib.org/</dc:title>
     </cc:Agent>
    </dc:creator>
   </cc:Work>
  </rdf:RDF>
 </metadata>
 <defs>
  <style type="text/css">*{stroke-linecap:butt;stroke-linejoin:round;}</style>
 </defs>
 <g id="figure_1">
  <g id="patch_1">
   <path d="M 0 360 
L 720 360 
L 720 0 
L 0 0 
z
" style="fill:#ffffff;"/>
  </g>
  <g id="axes_1">
   <g id="patch_2">
    <path d="M 90 320.4 
L 648 320.4 
L 648 43.2 
L 90 43.2 
z
" style="fill:#ffffff;"/>
   </g>
   <g id="matplotlib.axis_1">
    <g id="xtick_1">
     <g id="line2d_1">
      <path clip-path="url(#p85f09c4899)" d="M 119.111957 320.4 
L 119.111957 43.2 
" style="fill:none;stroke:#808080;stroke-dasharray:6.4,1.6,1,1.6;stroke-dashoffset:0;stroke-opacity:0.3;"/>
     </g>
     <g id="line2d_2">
      <defs>
       <path d="M 0 0 
L 0 3.5 
" id="m4874e7c40c" style="stroke:#000000;stroke-width:0.8;"/>
      </defs>
      <g>
       <use style="stroke:#000000;stroke-width:0.8;" x="119.111957" xlink:href="#m4874e7c40c" y="320.4"/>
      </g>
     </g>
     <g id="text_1">
      <!-- 2020-03 -->
      <g transform="translate(98.220551 334.998438)scale(0.1 -0.1)">
       <defs>
        <path d="M 19.1875 8.296875 
L 53.609375 8.296875 
L 53.609375 0 
L 7.328125 0 
L 7.328125 8.296875 
Q 12.9375 14.109375 22.625 23.890625 
Q 32.328125 33.6875 34.8125 36.53125 
Q 39.546875 41.84375 41.421875 45.53125 
Q 43.3125 49.21875 43.3125 52.78125 
Q 43.3125 58.59375 39.234375 62.25 
Q 35.15625 65.921875 28.609375 65.921875 
Q 23.96875 65.921875 18.8125 64.3125 
Q 13.671875 62.703125 7.8125 59.421875 
L 7.8125 69.390625 
Q 13.765625 71.78125 18.9375 73 
Q 24.125 74.21875 28.421875 74.21875 
Q 39.75 74.21875 46.484375 68.546875 
Q 53.21875 62.890625 53.21875 53.421875 
Q 53.21875 48.921875 51.53125 44.890625 
Q 49.859375 40.875 45.40625 35.40625 
Q 44.1875 33.984375 37.640625 27.21875 
Q 31.109375 20.453125 19.1875 8.296875 
z
" id="DejaVuSans-50"/>
        <path d="M 31.78125 66.40625 
Q 24.171875 66.40625 20.328125 58.90625 
Q 16.5 51.421875 16.5 36.375 
Q 16.5 21.390625 20.328125 13.890625 
Q 24.171875 6.390625 31.78125 6.390625 
Q 39.453125 6.390625 43.28125 13.890625 
Q 47.125 21.390625 47.125 36.375 
Q 47.125 51.421875 43.28125 58.90625 
Q 39.453125 66.40625 31.78125 66.40625 
z
M 31.78125 74.21875 
Q 44.046875 74.21875 50.515625 64.515625 
Q 56.984375 54.828125 56.984375 36.375 
Q 56.984375 17.96875 50.515625 8.265625 
Q 44.046875 -1.421875 31.78125 -1.421875 
Q 19.53125 -1.421875 13.0625 8.265625 
Q 6.59375 17.96875 6.59375 36.375 
Q 6.59375 54.828125 13.0625 64.515625 
Q 19.53125 74.21875 31.78125 74.21875 
z
" id="DejaVuSans-48"/>
        <path d="M 4.890625 31.390625 
L 31.203125 31.390625 
L 31.203125 23.390625 
L 4.890625 23.390625 
z
" id="DejaVuSans-45"/>
        <path d="M 40.578125 39.3125 
Q 47.65625 37.796875 51.625 33 
Q 55.609375 28.21875 55.609375 21.1875 
Q 55.609375 10.40625 48.1875 4.484375 
Q 40.765625 -1.421875 27.09375 -1.421875 
Q 22.515625 -1.421875 17.65625 -0.515625 
Q 12.796875 0.390625 7.625 2.203125 
L 7.625 11.71875 
Q 11.71875 9.328125 16.59375 8.109375 
Q 21.484375 6.890625 26.8125 6.890625 
Q 36.078125 6.890625 40.9375 10.546875 
Q 45.796875 14.203125 45.796875 21.1875 
Q 45.796875 27.640625 41.28125 31.265625 
Q 36.765625 34.90625 28.71875 34.90625 
L 20.21875 34.90625 
L 20.21875 43.015625 
L 29.109375 43.015625 
Q 36.375 43.015625 40.234375 45.921875 
Q 44.09375 48.828125 44.09375 54.296875 
Q 44.09375 59.90625 40.109375 62.90625 
Q 36.140625 65.921875 28.71875 65.921875 
Q 24.65625 65.921875 20.015625 65.03125 
Q 15.375 64.15625 9.8125 62.3125 
L 9.8125 71.09375 
Q 15.4375 72.65625 20.34375 73.4375 
Q 25.25 74.21875 29.59375 74.21875 
Q 40.828125 74.21875 47.359375 69.109375 
Q 53.90625 64.015625 53.90625 55.328125 
Q 53.90625 49.265625 50.4375 45.09375 
Q 46.96875 40.921875 40.578125 39.3125 
z
" id="DejaVuSans-51"/>
       </defs>
       <use xlink:href="#DejaVuSans-50"/>
       <use x="63.623047" xlink:href="#DejaVuSans-48"/>
       <use x="127.246094" xlink:href="#DejaVuSans-50"/>
       <use x="190.869141" xlink:href="#DejaVuSans-48"/>
       <use x="254.492188" xlink:href="#DejaVuSans-45"/>
       <use x="290.576172" xlink:href="#DejaVuSans-48"/>
       <use x="354.199219" xlink:href="#DejaVuSans-51"/>
      </g>
     </g>
    </g>
    <g id="xtick_2">
     <g id="line2d_3">
      <path clip-path="url(#p85f09c4899)" d="M 195.32781 320.4 
L 195.32781 43.2 
" style="fill:none;stroke:#808080;stroke-dasharray:6.4,1.6,1,1.6;stroke-dashoffset:0;stroke-opacity:0.3;"/>
     </g>
     <g id="line2d_4">
      <g>
       <use style="stroke:#000000;stroke-width:0.8;" x="195.32781" xlink:href="#m4874e7c40c" y="320.4"/>
      </g>
     </g>
     <g id="text_2">
      <!-- 2020-05 -->
      <g transform="translate(174.436404 334.998438)scale(0.1 -0.1)">
       <defs>
        <path d="M 10.796875 72.90625 
L 49.515625 72.90625 
L 49.515625 64.59375 
L 19.828125 64.59375 
L 19.828125 46.734375 
Q 21.96875 47.46875 24.109375 47.828125 
Q 26.265625 48.1875 28.421875 48.1875 
Q 40.625 48.1875 47.75 41.5 
Q 54.890625 34.8125 54.890625 23.390625 
Q 54.890625 11.625 47.5625 5.09375 
Q 40.234375 -1.421875 26.90625 -1.421875 
Q 22.3125 -1.421875 17.546875 -0.640625 
Q 12.796875 0.140625 7.71875 1.703125 
L 7.71875 11.625 
Q 12.109375 9.234375 16.796875 8.0625 
Q 21.484375 6.890625 26.703125 6.890625 
Q 35.15625 6.890625 40.078125 11.328125 
Q 45.015625 15.765625 45.015625 23.390625 
Q 45.015625 31 40.078125 35.4375 
Q 35.15625 39.890625 26.703125 39.890625 
Q 22.75 39.890625 18.8125 39.015625 
Q 14.890625 38.140625 10.796875 36.28125 
z
" id="DejaVuSans-53"/>
       </defs>
       <use xlink:href="#DejaVuSans-50"/>
       <use x="63.623047" xlink:href="#DejaVuSans-48"/>
       <use x="127.246094" xlink:href="#DejaVuSans-50"/>
       <use x="190.869141" xlink:href="#DejaVuSans-48"/>
       <use x="254.492188" xlink:href="#DejaVuSans-45"/>
       <use x="290.576172" xlink:href="#DejaVuSans-48"/>
       <use x="354.199219" xlink:href="#DejaVuSans-53"/>
      </g>
     </g>
    </g>
    <g id="xtick_3">
     <g id="line2d_5">
      <path clip-path="url(#p85f09c4899)" d="M 271.543663 320.4 
L 271.543663 43.2 
" style="fill:none;stroke:#808080;stroke-dasharray:6.4,1.6,1,1.6;stroke-dashoffset:0;stroke-opacity:0.3;"/>
     </g>
     <g id="line2d_6">
      <g>
       <use style="stroke:#000000;stroke-width:0.8;" x="271.543663" xlink:href="#m4874e7c40c" y="320.4"/>
      </g>
     </g>
     <g id="text_3">
      <!-- 2020-07 -->
      <g transform="translate(250.652257 334.998438)scale(0.1 -0.1)">
       <defs>
        <path d="M 8.203125 72.90625 
L 55.078125 72.90625 
L 55.078125 68.703125 
L 28.609375 0 
L 18.3125 0 
L 43.21875 64.59375 
L 8.203125 64.59375 
z
" id="DejaVuSans-55"/>
       </defs>
       <use xlink:href="#DejaVuSans-50"/>
       <use x="63.623047" xlink:href="#DejaVuSans-48"/>
       <use x="127.246094" xlink:href="#DejaVuSans-50"/>
       <use x="190.869141" xlink:href="#DejaVuSans-48"/>
       <use x="254.492188" xlink:href="#DejaVuSans-45"/>
       <use x="290.576172" xlink:href="#DejaVuSans-48"/>
       <use x="354.199219" xlink:href="#DejaVuSans-55"/>
      </g>
     </g>
    </g>
    <g id="xtick_4">
     <g id="line2d_7">
      <path clip-path="url(#p85f09c4899)" d="M 349.008957 320.4 
L 349.008957 43.2 
" style="fill:none;stroke:#808080;stroke-dasharray:6.4,1.6,1,1.6;stroke-dashoffset:0;stroke-opacity:0.3;"/>
     </g>
     <g id="line2d_8">
      <g>
       <use style="stroke:#000000;stroke-width:0.8;" x="349.008957" xlink:href="#m4874e7c40c" y="320.4"/>
      </g>
     </g>
     <g id="text_4">
      <!-- 2020-09 -->
      <g transform="translate(328.11755 334.998438)scale(0.1 -0.1)">
       <defs>
        <path d="M 10.984375 1.515625 
L 10.984375 10.5 
Q 14.703125 8.734375 18.5 7.8125 
Q 22.3125 6.890625 25.984375 6.890625 
Q 35.75 6.890625 40.890625 13.453125 
Q 46.046875 20.015625 46.78125 33.40625 
Q 43.953125 29.203125 39.59375 26.953125 
Q 35.25 24.703125 29.984375 24.703125 
Q 19.046875 24.703125 12.671875 31.3125 
Q 6.296875 37.9375 6.296875 49.421875 
Q 6.296875 60.640625 12.9375 67.421875 
Q 19.578125 74.21875 30.609375 74.21875 
Q 43.265625 74.21875 49.921875 64.515625 
Q 56.59375 54.828125 56.59375 36.375 
Q 56.59375 19.140625 48.40625 8.859375 
Q 40.234375 -1.421875 26.421875 -1.421875 
Q 22.703125 -1.421875 18.890625 -0.6875 
Q 15.09375 0.046875 10.984375 1.515625 
z
M 30.609375 32.421875 
Q 37.25 32.421875 41.125 36.953125 
Q 45.015625 41.5 45.015625 49.421875 
Q 45.015625 57.28125 41.125 61.84375 
Q 37.25 66.40625 30.609375 66.40625 
Q 23.96875 66.40625 20.09375 61.84375 
Q 16.21875 57.28125 16.21875 49.421875 
Q 16.21875 41.5 20.09375 36.953125 
Q 23.96875 32.421875 30.609375 32.421875 
z
" id="DejaVuSans-57"/>
       </defs>
       <use xlink:href="#DejaVuSans-50"/>
       <use x="63.623047" xlink:href="#DejaVuSans-48"/>
       <use x="127.246094" xlink:href="#DejaVuSans-50"/>
       <use x="190.869141" xlink:href="#DejaVuSans-48"/>
       <use x="254.492188" xlink:href="#DejaVuSans-45"/>
       <use x="290.576172" xlink:href="#DejaVuSans-48"/>
       <use x="354.199219" xlink:href="#DejaVuSans-57"/>
      </g>
     </g>
    </g>
    <g id="xtick_5">
     <g id="line2d_9">
      <path clip-path="url(#p85f09c4899)" d="M 425.22481 320.4 
L 425.22481 43.2 
" style="fill:none;stroke:#808080;stroke-dasharray:6.4,1.6,1,1.6;stroke-dashoffset:0;stroke-opacity:0.3;"/>
     </g>
     <g id="line2d_10">
      <g>
       <use style="stroke:#000000;stroke-width:0.8;" x="425.22481" xlink:href="#m4874e7c40c" y="320.4"/>
      </g>
     </g>
     <g id="text_5">
      <!-- 2020-11 -->
      <g transform="translate(404.333403 334.998438)scale(0.1 -0.1)">
       <defs>
        <path d="M 12.40625 8.296875 
L 28.515625 8.296875 
L 28.515625 63.921875 
L 10.984375 60.40625 
L 10.984375 69.390625 
L 28.421875 72.90625 
L 38.28125 72.90625 
L 38.28125 8.296875 
L 54.390625 8.296875 
L 54.390625 0 
L 12.40625 0 
z
" id="DejaVuSans-49"/>
       </defs>
       <use xlink:href="#DejaVuSans-50"/>
       <use x="63.623047" xlink:href="#DejaVuSans-48"/>
       <use x="127.246094" xlink:href="#DejaVuSans-50"/>
       <use x="190.869141" xlink:href="#DejaVuSans-48"/>
       <use x="254.492188" xlink:href="#DejaVuSans-45"/>
       <use x="290.576172" xlink:href="#DejaVuSans-49"/>
       <use x="354.199219" xlink:href="#DejaVuSans-49"/>
      </g>
     </g>
    </g>
    <g id="xtick_6">
     <g id="line2d_11">
      <path clip-path="url(#p85f09c4899)" d="M 501.440663 320.4 
L 501.440663 43.2 
" style="fill:none;stroke:#808080;stroke-dasharray:6.4,1.6,1,1.6;stroke-dashoffset:0;stroke-opacity:0.3;"/>
     </g>
     <g id="line2d_12">
      <g>
       <use style="stroke:#000000;stroke-width:0.8;" x="501.440663" xlink:href="#m4874e7c40c" y="320.4"/>
      </g>
     </g>
     <g id="text_6">
      <!-- 2021-01 -->
      <g transform="translate(480.549257 334.998438)scale(0.1 -0.1)">
       <use xlink:href="#DejaVuSans-50"/>
       <use x="63.623047" xlink:href="#DejaVuSans-48"/>
       <use x="127.246094" xlink:href="#DejaVuSans-50"/>
       <use x="190.869141" xlink:href="#DejaVuSans-49"/>
       <use x="254.492188" xlink:href="#DejaVuSans-45"/>
       <use x="290.576172" xlink:href="#DejaVuSans-48"/>
       <use x="354.199219" xlink:href="#DejaVuSans-49"/>
      </g>
     </g>
    </g>
    <g id="xtick_7">
     <g id="line2d_13">
      <path clip-path="url(#p85f09c4899)" d="M 575.157635 320.4 
L 575.157635 43.2 
" style="fill:none;stroke:#808080;stroke-dasharray:6.4,1.6,1,1.6;stroke-dashoffset:0;stroke-opacity:0.3;"/>
     </g>
     <g id="line2d_14">
      <g>
       <use style="stroke:#000000;stroke-width:0.8;" x="575.157635" xlink:href="#m4874e7c40c" y="320.4"/>
      </g>
     </g>
     <g id="text_7">
      <!-- 2021-03 -->
      <g transform="translate(554.266229 334.998438)scale(0.1 -0.1)">
       <use xlink:href="#DejaVuSans-50"/>
       <use x="63.623047" xlink:href="#DejaVuSans-48"/>
       <use x="127.246094" xlink:href="#DejaVuSans-50"/>
       <use x="190.869141" xlink:href="#DejaVuSans-49"/>
       <use x="254.492188" xlink:href="#DejaVuSans-45"/>
       <use x="290.576172" xlink:href="#DejaVuSans-48"/>
       <use x="354.199219" xlink:href="#DejaVuSans-51"/>
      </g>
     </g>
    </g>
    <g id="text_8">
     <!-- Datum -->
     <g transform="translate(352.086719 348.676562)scale(0.1 -0.1)">
      <defs>
       <path d="M 19.671875 64.796875 
L 19.671875 8.109375 
L 31.59375 8.109375 
Q 46.6875 8.109375 53.6875 14.9375 
Q 60.6875 21.78125 60.6875 36.53125 
Q 60.6875 51.171875 53.6875 57.984375 
Q 46.6875 64.796875 31.59375 64.796875 
z
M 9.8125 72.90625 
L 30.078125 72.90625 
Q 51.265625 72.90625 61.171875 64.09375 
Q 71.09375 55.28125 71.09375 36.53125 
Q 71.09375 17.671875 61.125 8.828125 
Q 51.171875 0 30.078125 0 
L 9.8125 0 
z
" id="DejaVuSans-68"/>
       <path d="M 34.28125 27.484375 
Q 23.390625 27.484375 19.1875 25 
Q 14.984375 22.515625 14.984375 16.5 
Q 14.984375 11.71875 18.140625 8.90625 
Q 21.296875 6.109375 26.703125 6.109375 
Q 34.1875 6.109375 38.703125 11.40625 
Q 43.21875 16.703125 43.21875 25.484375 
L 43.21875 27.484375 
z
M 52.203125 31.203125 
L 52.203125 0 
L 43.21875 0 
L 43.21875 8.296875 
Q 40.140625 3.328125 35.546875 0.953125 
Q 30.953125 -1.421875 24.3125 -1.421875 
Q 15.921875 -1.421875 10.953125 3.296875 
Q 6 8.015625 6 15.921875 
Q 6 25.140625 12.171875 29.828125 
Q 18.359375 34.515625 30.609375 34.515625 
L 43.21875 34.515625 
L 43.21875 35.40625 
Q 43.21875 41.609375 39.140625 45 
Q 35.0625 48.390625 27.6875 48.390625 
Q 23 48.390625 18.546875 47.265625 
Q 14.109375 46.140625 10.015625 43.890625 
L 10.015625 52.203125 
Q 14.9375 54.109375 19.578125 55.046875 
Q 24.21875 56 28.609375 56 
Q 40.484375 56 46.34375 49.84375 
Q 52.203125 43.703125 52.203125 31.203125 
z
" id="DejaVuSans-97"/>
       <path d="M 18.3125 70.21875 
L 18.3125 54.6875 
L 36.8125 54.6875 
L 36.8125 47.703125 
L 18.3125 47.703125 
L 18.3125 18.015625 
Q 18.3125 11.328125 20.140625 9.421875 
Q 21.96875 7.515625 27.59375 7.515625 
L 36.8125 7.515625 
L 36.8125 0 
L 27.59375 0 
Q 17.1875 0 13.234375 3.875 
Q 9.28125 7.765625 9.28125 18.015625 
L 9.28125 47.703125 
L 2.6875 47.703125 
L 2.6875 54.6875 
L 9.28125 54.6875 
L 9.28125 70.21875 
z
" id="DejaVuSans-116"/>
       <path d="M 8.5 21.578125 
L 8.5 54.6875 
L 17.484375 54.6875 
L 17.484375 21.921875 
Q 17.484375 14.15625 20.5 10.265625 
Q 23.53125 6.390625 29.59375 6.390625 
Q 36.859375 6.390625 41.078125 11.03125 
Q 45.3125 15.671875 45.3125 23.6875 
L 45.3125 54.6875 
L 54.296875 54.6875 
L 54.296875 0 
L 45.3125 0 
L 45.3125 8.40625 
Q 42.046875 3.421875 37.71875 1 
Q 33.40625 -1.421875 27.6875 -1.421875 
Q 18.265625 -1.421875 13.375 4.4375 
Q 8.5 10.296875 8.5 21.578125 
z
M 31.109375 56 
z
" id="DejaVuSans-117"/>
       <path d="M 52 44.1875 
Q 55.375 50.25 60.0625 53.125 
Q 64.75 56 71.09375 56 
Q 79.640625 56 84.28125 50.015625 
Q 88.921875 44.046875 88.921875 33.015625 
L 88.921875 0 
L 79.890625 0 
L 79.890625 32.71875 
Q 79.890625 40.578125 77.09375 44.375 
Q 74.3125 48.1875 68.609375 48.1875 
Q 61.625 48.1875 57.5625 43.546875 
Q 53.515625 38.921875 53.515625 30.90625 
L 53.515625 0 
L 44.484375 0 
L 44.484375 32.71875 
Q 44.484375 40.625 41.703125 44.40625 
Q 38.921875 48.1875 33.109375 48.1875 
Q 26.21875 48.1875 22.15625 43.53125 
Q 18.109375 38.875 18.109375 30.90625 
L 18.109375 0 
L 9.078125 0 
L 9.078125 54.6875 
L 18.109375 54.6875 
L 18.109375 46.1875 
Q 21.1875 51.21875 25.484375 53.609375 
Q 29.78125 56 35.6875 56 
Q 41.65625 56 45.828125 52.96875 
Q 50 49.953125 52 44.1875 
z
" id="DejaVuSans-109"/>
      </defs>
      <use xlink:href="#DejaVuSans-68"/>
      <use x="77.001953" xlink:href="#DejaVuSans-97"/>
      <use x="138.28125" xlink:href="#DejaVuSans-116"/>
      <use x="177.490234" xlink:href="#DejaVuSans-117"/>
      <use x="240.869141" xlink:href="#DejaVuSans-109"/>
     </g>
    </g>
   </g>
   <g id="matplotlib.axis_2">
    <g id="ytick_1">
     <g id="line2d_15">
      <path clip-path="url(#p85f09c4899)" d="M 90 307.876759 
L 648 307.876759 
" style="fill:none;stroke:#808080;stroke-dasharray:6.4,1.6,1,1.6;stroke-dashoffset:0;stroke-opacity:0.3;"/>
     </g>
     <g id="line2d_16">
      <defs>
       <path d="M 0 0 
L -3.5 0 
" id="m03bf4076ed" style="stroke:#000000;stroke-width:0.8;"/>
      </defs>
      <g>
       <use style="stroke:#000000;stroke-width:0.8;" x="90" xlink:href="#m03bf4076ed" y="307.876759"/>
      </g>
     </g>
     <g id="text_9">
      <!-- 0 -->
      <g transform="translate(76.6375 311.675978)scale(0.1 -0.1)">
       <use xlink:href="#DejaVuSans-48"/>
      </g>
     </g>
    </g>
    <g id="ytick_2">
     <g id="line2d_17">
      <path clip-path="url(#p85f09c4899)" d="M 90 269.497228 
L 648 269.497228 
" style="fill:none;stroke:#808080;stroke-dasharray:6.4,1.6,1,1.6;stroke-dashoffset:0;stroke-opacity:0.3;"/>
     </g>
     <g id="line2d_18">
      <g>
       <use style="stroke:#000000;stroke-width:0.8;" x="90" xlink:href="#m03bf4076ed" y="269.497228"/>
      </g>
     </g>
     <g id="text_10">
      <!-- 500 -->
      <g transform="translate(63.9125 273.296447)scale(0.1 -0.1)">
       <use xlink:href="#DejaVuSans-53"/>
       <use x="63.623047" xlink:href="#DejaVuSans-48"/>
       <use x="127.246094" xlink:href="#DejaVuSans-48"/>
      </g>
     </g>
    </g>
    <g id="ytick_3">
     <g id="line2d_19">
      <path clip-path="url(#p85f09c4899)" d="M 90 231.117697 
L 648 231.117697 
" style="fill:none;stroke:#808080;stroke-dasharray:6.4,1.6,1,1.6;stroke-dashoffset:0;stroke-opacity:0.3;"/>
     </g>
     <g id="line2d_20">
      <g>
       <use style="stroke:#000000;stroke-width:0.8;" x="90" xlink:href="#m03bf4076ed" y="231.117697"/>
      </g>
     </g>
     <g id="text_11">
      <!-- 1000 -->
      <g transform="translate(57.55 234.916916)scale(0.1 -0.1)">
       <use xlink:href="#DejaVuSans-49"/>
       <use x="63.623047" xlink:href="#DejaVuSans-48"/>
       <use x="127.246094" xlink:href="#DejaVuSans-48"/>
       <use x="190.869141" xlink:href="#DejaVuSans-48"/>
      </g>
     </g>
    </g>
    <g id="ytick_4">
     <g id="line2d_21">
      <path clip-path="url(#p85f09c4899)" d="M 90 192.738166 
L 648 192.738166 
" style="fill:none;stroke:#808080;stroke-dasharray:6.4,1.6,1,1.6;stroke-dashoffset:0;stroke-opacity:0.3;"/>
     </g>
     <g id="line2d_22">
      <g>
       <use style="stroke:#000000;stroke-width:0.8;" x="90" xlink:href="#m03bf4076ed" y="192.738166"/>
      </g>
     </g>
     <g id="text_12">
      <!-- 1500 -->
      <g transform="translate(57.55 196.537385)scale(0.1 -0.1)">
       <use xlink:href="#DejaVuSans-49"/>
       <use x="63.623047" xlink:href="#DejaVuSans-53"/>
       <use x="127.246094" xlink:href="#DejaVuSans-48"/>
       <use x="190.869141" xlink:href="#DejaVuSans-48"/>
      </g>
     </g>
    </g>
    <g id="ytick_5">
     <g id="line2d_23">
      <path clip-path="url(#p85f09c4899)" d="M 90 154.358635 
L 648 154.358635 
" style="fill:none;stroke:#808080;stroke-dasharray:6.4,1.6,1,1.6;stroke-dashoffset:0;stroke-opacity:0.3;"/>
     </g>
     <g id="line2d_24">
      <g>
       <use style="stroke:#000000;stroke-width:0.8;" x="90" xlink:href="#m03bf4076ed" y="154.358635"/>
      </g>
     </g>
     <g id="text_13">
      <!-- 2000 -->
      <g transform="translate(57.55 158.157854)scale(0.1 -0.1)">
       <use xlink:href="#DejaVuSans-50"/>
       <use x="63.623047" xlink:href="#DejaVuSans-48"/>
       <use x="127.246094" xlink:href="#DejaVuSans-48"/>
       <use x="190.869141" xlink:href="#DejaVuSans-48"/>
      </g>
     </g>
    </g>
    <g id="ytick_6">
     <g id="line2d_25">
      <path clip-path="url(#p85f09c4899)" d="M 90 115.979104 
L 648 115.979104 
" style="fill:none;stroke:#808080;stroke-dasharray:6.4,1.6,1,1.6;stroke-dashoffset:0;stroke-opacity:0.3;"/>
     </g>
     <g id="line2d_26">
      <g>
       <use style="stroke:#000000;stroke-width:0.8;" x="90" xlink:href="#m03bf4076ed" y="115.979104"/>
      </g>
     </g>
     <g id="text_14">
      <!-- 2500 -->
      <g transform="translate(57.55 119.778323)scale(0.1 -0.1)">
       <use xlink:href="#DejaVuSans-50"/>
       <use x="63.623047" xlink:href="#DejaVuSans-53"/>
       <use x="127.246094" xlink:href="#DejaVuSans-48"/>
       <use x="190.869141" xlink:href="#DejaVuSans-48"/>
      </g>
     </g>
    </g>
    <g id="ytick_7">
     <g id="line2d_27">
      <path clip-path="url(#p85f09c4899)" d="M 90 77.599574 
L 648 77.599574 
" style="fill:none;stroke:#808080;stroke-dasharray:6.4,1.6,1,1.6;stroke-dashoffset:0;stroke-opacity:0.3;"/>
     </g>
     <g id="line2d_28">
      <g>
       <use style="stroke:#000000;stroke-width:0.8;" x="90" xlink:href="#m03bf4076ed" y="77.599574"/>
      </g>
     </g>
     <g id="text_15">
      <!-- 3000 -->
      <g transform="translate(57.55 81.398792)scale(0.1 -0.1)">
       <use xlink:href="#DejaVuSans-51"/>
       <use x="63.623047" xlink:href="#DejaVuSans-48"/>
       <use x="127.246094" xlink:href="#DejaVuSans-48"/>
       <use x="190.869141" xlink:href="#DejaVuSans-48"/>
      </g>
     </g>
    </g>
   </g>
   <g id="line2d_29">
    <path clip-path="url(#p85f09c4899)" d="M 115.363636 303.117697 
L 116.613077 302.810661 
L 117.862517 302.810661 
L 119.111957 302.273348 
L 120.361397 301.428998 
L 121.610837 300.891684 
L 122.860278 299.970576 
L 124.109718 299.279744 
L 125.359158 297.898081 
L 126.608598 297.284009 
L 127.858039 295.902345 
L 130.356919 292.064392 
L 131.606359 289.377825 
L 132.855799 286.077186 
L 134.10524 280.857569 
L 135.35468 277.787207 
L 136.60412 274.102772 
L 137.85356 263.893817 
L 139.103 257.446055 
L 140.352441 247.620896 
L 141.601881 231.578252 
L 142.851321 218.298934 
L 144.100761 212.158209 
L 145.350202 204.252026 
L 146.599642 179.228571 
L 147.849082 159.885288 
L 149.098522 143.151812 
L 150.347962 128.107036 
L 151.597403 108.072921 
L 152.846843 112.831983 
L 154.096283 116.516418 
L 155.345723 105.309595 
L 156.595163 110.913006 
L 157.844604 118.358635 
L 159.094044 120.124094 
L 160.343484 119.740299 
L 161.592924 135.859701 
L 162.842365 139.544136 
L 164.091805 130.333049 
L 166.590685 151.902345 
L 167.840125 165.335181 
L 169.089566 172.166738 
L 170.339006 186.520682 
L 171.588446 190.81919 
L 172.837886 191.433262 
L 174.087326 190.512154 
L 175.336767 197.266951 
L 176.586207 205.633689 
L 177.835647 208.934328 
L 179.085087 219.910874 
L 180.334528 221.829851 
L 181.583968 218.60597 
L 182.833408 222.290405 
L 184.082848 228.661407 
L 185.332288 231.885288 
L 186.581729 236.107036 
L 187.831169 245.701919 
L 189.080609 247.927932 
L 190.330049 249.002559 
L 191.579489 247.697655 
L 192.82893 252.303198 
L 194.07837 254.222175 
L 195.32781 258.290405 
L 196.57725 264.661407 
L 197.826691 265.966311 
L 199.076131 262.205117 
L 200.325571 267.501493 
L 201.575011 266.350107 
L 202.824451 268.192324 
L 204.073892 268.49936 
L 205.323332 272.183795 
L 206.572772 273.488699 
L 207.822212 271.109168 
L 209.071652 273.41194 
L 210.321093 275.254158 
L 211.570533 277.940725 
L 212.819973 279.475906 
L 214.069413 282.930064 
L 215.318854 281.855437 
L 216.568294 279.399147 
L 217.817734 281.164606 
L 219.067174 282.162473 
L 220.316614 284.9258 
L 221.566055 282.546269 
L 222.815495 285.463113 
L 224.064935 286.077186 
L 225.314375 283.390618 
L 226.563815 283.927932 
L 227.813256 286.307463 
L 229.062696 287.765885 
L 230.312136 287.535608 
L 231.561576 288.840512 
L 232.811017 289.224307 
L 234.060457 288.917271 
L 235.309897 287.228571 
L 236.559337 287.842644 
L 237.808777 288.99403 
L 239.058218 290.375693 
L 240.307658 292.985501 
L 242.806538 293.06226 
L 244.055979 294.597441 
L 245.305419 295.825586 
L 246.554859 295.441791 
L 247.804299 296.132623 
L 249.053739 297.591045 
L 250.30318 297.667804 
L 251.55262 297.437527 
L 252.80206 297.437527 
L 254.0515 298.051599 
L 255.30094 297.97484 
L 256.550381 298.281876 
L 257.799821 299.740299 
L 259.049261 299.663539 
L 260.298701 299.433262 
L 261.548142 299.356503 
L 262.797582 299.433262 
L 264.047022 298.81919 
L 265.296462 299.126226 
L 266.545902 300.738166 
L 267.795343 300.584648 
L 269.044783 299.893817 
L 270.294223 301.045203 
L 271.543663 301.198721 
L 272.793103 301.736034 
L 274.042544 301.736034 
L 275.291984 302.426866 
L 279.040305 301.582516 
L 280.289745 301.736034 
L 281.539185 301.736034 
L 282.788625 300.968443 
L 284.038065 301.582516 
L 285.287506 301.582516 
L 286.536946 301.121962 
L 287.786386 301.045203 
L 289.035826 301.582516 
L 290.285266 301.889552 
L 291.534707 302.04307 
L 292.784147 301.505757 
L 295.283027 300.968443 
L 296.532468 300.891684 
L 297.781908 301.736034 
L 299.031348 301.352239 
L 300.280788 301.505757 
L 302.779669 301.121962 
L 304.029109 300.43113 
L 305.278549 300.200853 
L 306.527989 300.968443 
L 309.02687 300.354371 
L 310.27631 300.200853 
L 311.52575 299.58678 
L 312.77519 298.81919 
L 314.024631 299.356503 
L 315.274071 299.663539 
L 316.523511 299.663539 
L 319.022391 298.742431 
L 320.271832 297.821322 
L 321.521272 297.13049 
L 322.770712 295.51855 
L 324.020152 295.134755 
L 326.519033 295.51855 
L 327.768473 295.825586 
L 329.017913 295.211514 
L 330.267353 293.90661 
L 331.516794 294.290405 
L 332.766234 294.136887 
L 334.015674 293.292537 
L 335.265114 293.753092 
L 336.514554 295.288273 
L 337.763995 295.211514 
L 339.013435 294.904478 
L 340.262875 294.367164 
L 341.512315 295.134755 
L 342.761755 296.3629 
L 344.011196 296.209382 
L 345.260636 297.514286 
L 346.510076 297.437527 
L 347.759516 296.516418 
L 349.008957 296.593177 
L 350.258397 296.055864 
L 351.507837 296.516418 
L 352.757277 295.902345 
L 354.006717 295.979104 
L 356.505598 292.908742 
L 357.755038 291.834115 
L 359.004478 290.375693 
L 360.253918 290.759488 
L 361.503359 289.301066 
L 362.752799 289.454584 
L 364.002239 288.456716 
L 365.251679 285.386354 
L 366.50112 284.695522 
L 367.75056 282.623028 
L 369 281.241365 
L 370.24944 278.32452 
L 372.748321 275.407676 
L 373.997761 271.416205 
L 375.247201 269.190192 
L 376.496641 266.119829 
L 377.746082 262.358635 
L 378.995522 260.132623 
L 380.244962 260.439659 
L 381.494402 257.829851 
L 382.743842 253.76162 
L 383.993283 250.921535 
L 385.242723 249.539872 
L 386.492163 247.160341 
L 387.741603 245.318124 
L 388.991043 243.782942 
L 390.240484 240.482303 
L 391.489924 232.576119 
L 392.739364 229.198721 
L 393.988804 227.510021 
L 395.238245 225.591045 
L 396.487685 219.910874 
L 397.737125 221.446055 
L 398.986565 217.147548 
L 400.236005 205.863966 
L 401.485446 198.18806 
L 402.734886 198.571855 
L 403.984326 196.345842 
L 405.233766 192.047335 
L 406.483206 192.968443 
L 407.732647 190.81919 
L 408.982087 178.998294 
L 410.231527 174.315991 
L 411.480967 171.859701 
L 412.730408 166.793603 
L 413.979848 160.269083 
L 415.229288 165.718977 
L 416.478728 160.345842 
L 417.728168 148.141151 
L 418.977609 147.757356 
L 420.227049 148.908742 
L 421.476489 151.134755 
L 422.725929 149.522814 
L 423.975369 155.356503 
L 425.22481 153.898081 
L 426.47425 137.701919 
L 427.72369 141.770149 
L 428.97313 146.60597 
L 431.472011 158.04307 
L 432.721451 169.480171 
L 433.970891 170.861834 
L 435.220331 160.192324 
L 436.469772 164.721109 
L 437.719212 167.86823 
L 438.968652 171.552665 
L 440.218092 172.934328 
L 441.467532 183.066525 
L 442.716973 183.45032 
L 443.966413 172.166738 
L 445.215853 174.239232 
L 446.465293 178.53774 
L 447.714734 183.603838 
L 448.964174 190.128358 
L 450.213614 197.497228 
L 451.463054 194.964179 
L 452.712494 185.06226 
L 453.961935 188.593177 
L 455.211375 193.966311 
L 456.460815 193.428998 
L 457.710255 194.196588 
L 458.959695 201.718977 
L 460.209136 201.258422 
L 461.458576 194.657143 
L 462.708016 198.034542 
L 463.957456 200.567591 
L 465.206897 200.260554 
L 466.456337 197.727505 
L 467.705777 201.488699 
L 468.955217 198.571855 
L 470.204657 189.97484 
L 472.703538 192.738166 
L 473.952978 192.814925 
L 475.202418 187.365032 
L 476.451858 189.360768 
L 477.701299 185.292537 
L 478.950739 172.166738 
L 480.200179 172.627292 
L 481.449619 170.171002 
L 482.69906 166.409808 
L 483.9485 162.18806 
L 485.19794 169.480171 
L 486.44738 168.175267 
L 487.69682 153.284009 
L 488.946261 151.672068 
L 490.195701 149.446055 
L 491.445141 147.680597 
L 492.694581 155.433262 
L 493.944021 152.3629 
L 495.193462 145.377825 
L 496.442902 123.655011 
L 497.692342 124.422601 
L 498.941782 127.646482 
L 500.191223 133.787207 
L 501.440663 146.145416 
L 502.690103 142.077186 
L 503.939543 140.311727 
L 505.188983 130.716844 
L 506.438424 133.326652 
L 508.937304 141.386354 
L 510.186744 145.991898 
L 511.436185 159.040938 
L 512.685625 158.426866 
L 513.935065 147.834115 
L 516.433945 157.121962 
L 517.683386 161.727505 
L 518.932826 163.339446 
L 520.182266 172.934328 
L 521.431706 176.465245 
L 522.681146 166.563326 
L 523.930587 167.330917 
L 525.180027 173.164606 
L 526.429467 172.857569 
L 527.678907 174.239232 
L 528.928348 179.842644 
L 530.177788 179.075053 
L 531.427228 171.475906 
L 532.676668 174.930064 
L 533.926108 179.458849 
L 535.175549 182.145416 
L 536.424989 180.840512 
L 537.674429 186.367164 
L 538.923869 183.603838 
L 540.173309 175.620896 
L 541.42275 178.384222 
L 542.67219 182.682729 
L 543.92163 184.831983 
L 545.17107 185.369296 
L 546.420511 195.040938 
L 547.669951 196.345842 
L 548.919391 187.748827 
L 550.168831 189.821322 
L 551.418271 189.591045 
L 552.667712 190.588913 
L 553.917152 192.354371 
L 555.166592 199.953518 
L 556.416032 199.262687 
L 557.665472 190.665672 
L 558.914913 192.200853 
L 560.164353 193.428998 
L 561.413793 192.277612 
L 562.663233 193.812793 
L 563.912674 200.721109 
L 565.162114 200.951386 
L 566.411554 191.510021 
L 567.660994 192.43113 
L 568.910434 193.889552 
L 570.159875 196.422601 
L 571.409315 197.266951 
L 572.658755 201.565458 
L 573.908195 200.337313 
L 575.157635 190.742431 
L 576.407076 191.740299 
L 577.656516 195.040938 
L 580.155396 197.34371 
L 581.404837 204.098507 
L 582.654277 202.333049 
L 583.903717 193.27548 
L 585.153157 193.352239 
L 586.402597 195.424733 
L 587.652038 196.49936 
L 588.901478 195.808529 
L 590.150918 198.341578 
L 591.400358 195.962047 
L 592.649798 186.290405 
L 593.899239 185.676333 
L 595.148679 187.134755 
L 596.398119 183.834115 
L 597.647559 183.45032 
L 598.897 187.211514 
L 600.14644 183.45032 
L 601.39588 172.704051 
L 602.64532 174.853305 
L 603.89476 173.548401 
L 605.144201 173.241365 
L 606.393641 171.706183 
L 607.643081 177.079318 
L 608.892521 175.697655 
L 610.141961 161.420469 
L 611.391402 162.111301 
L 612.640842 165.181663 
L 613.890282 164.490832 
L 615.139722 169.249893 
L 616.389163 176.311727 
L 617.638603 174.699787 
L 618.888043 168.789339 
L 620.137483 161.573987 
L 621.386923 168.021748 
L 622.636364 180.14968 
L 622.636364 180.14968 
" style="fill:none;stroke:#ff0000;stroke-linecap:square;stroke-width:1.5;"/>
   </g>
   <g id="line2d_30">
    <path clip-path="url(#p85f09c4899)" d="M 115.363636 307.8 
L 116.613077 307.185928 
L 117.862517 307.109168 
L 119.111957 306.341578 
L 120.361397 305.266951 
L 121.610837 304.806397 
L 124.109718 302.88742 
L 125.359158 301.966311 
L 127.858039 299.58678 
L 130.356919 294.520682 
L 131.606359 291.373561 
L 135.35468 275.330917 
L 136.60412 269.497228 
L 139.103 248.388486 
L 140.352441 233.727505 
L 142.851321 194.119829 
L 145.350202 164.260554 
L 146.599642 135.629424 
L 147.849082 112.601706 
L 149.098522 92.107036 
L 150.347962 81.284009 
L 151.597403 60.252026 
L 152.846843 55.8 
L 154.096283 55.8 
L 155.345723 59.791471 
L 156.595163 70.307463 
L 159.094044 92.414072 
L 160.343484 113.599574 
L 161.592924 110.60597 
L 164.091805 84.354371 
L 165.341245 99.629424 
L 166.590685 88.038806 
L 167.840125 98.094243 
L 169.089566 102.546269 
L 170.339006 101.778678 
L 171.588446 113.522814 
L 172.837886 122.503625 
L 174.087326 124.345842 
L 175.336767 127.109168 
L 176.586207 125.420469 
L 177.835647 132.405544 
L 179.085087 133.940725 
L 180.334528 142.921535 
L 181.583968 141.69339 
L 182.833408 142.307463 
L 184.082848 149.06226 
L 185.332288 165.41194 
L 186.581729 172.397015 
L 187.831169 173.855437 
L 189.080609 177.079318 
L 190.330049 183.066525 
L 191.579489 187.441791 
L 192.82893 186.981237 
L 194.07837 194.964179 
L 195.32781 195.194456 
L 196.57725 193.198721 
L 197.826691 201.949254 
L 199.076131 205.55693 
L 200.325571 205.55693 
L 201.575011 204.098507 
L 202.824451 209.164606 
L 204.073892 216.610235 
L 205.323332 220.985501 
L 206.572772 226.972708 
L 207.822212 222.060128 
L 209.071652 222.6742 
L 210.321093 228.738166 
L 211.570533 228.891684 
L 212.819973 232.576119 
L 214.069413 233.34371 
L 215.318854 237.335181 
L 216.568294 238.102772 
L 217.817734 236.260554 
L 220.316614 237.949254 
L 222.815495 245.62516 
L 224.064935 251.842644 
L 225.314375 249.846908 
L 226.563815 254.298934 
L 227.813256 252.379957 
L 229.062696 254.529211 
L 230.312136 260.439659 
L 231.561576 262.665672 
L 232.811017 266.119829 
L 234.060457 266.273348 
L 235.309897 268.269083 
L 236.559337 269.804264 
L 237.808777 270.95565 
L 240.307658 272.874627 
L 241.557098 273.872495 
L 242.806538 277.173134 
L 244.055979 281.318124 
L 245.305419 282.315991 
L 246.554859 285.079318 
L 247.804299 286.460981 
L 249.053739 285.69339 
L 250.30318 286.614499 
L 251.55262 286.307463 
L 252.80206 286.384222 
L 254.0515 285.69339 
L 256.550381 289.83838 
L 257.799821 290.989765 
L 259.049261 290.913006 
L 260.298701 292.985501 
L 261.548142 291.680597 
L 262.797582 292.755224 
L 264.047022 294.213646 
L 265.296462 293.292537 
L 266.545902 294.060128 
L 267.795343 294.213646 
L 269.044783 295.825586 
L 270.294223 295.595309 
L 271.543663 296.3629 
L 272.793103 298.281876 
L 274.042544 299.970576 
L 275.291984 302.119829 
L 276.541424 301.198721 
L 277.790864 301.659275 
L 279.040305 301.812793 
L 281.539185 302.503625 
L 282.788625 302.580384 
L 284.038065 301.966311 
L 285.287506 301.505757 
L 286.536946 300.661407 
L 287.786386 300.661407 
L 289.035826 301.352239 
L 290.285266 301.736034 
L 291.534707 302.273348 
L 292.784147 301.889552 
L 294.033587 302.273348 
L 296.532468 300.968443 
L 297.781908 301.352239 
L 299.031348 300.891684 
L 300.280788 302.196588 
L 301.530228 300.891684 
L 302.779669 302.733902 
L 304.029109 302.503625 
L 305.278549 301.966311 
L 306.527989 303.040938 
L 307.777429 302.810661 
L 309.02687 302.273348 
L 310.27631 302.733902 
L 311.52575 302.503625 
L 312.77519 301.582516 
L 314.024631 301.505757 
L 315.274071 301.121962 
L 316.523511 301.812793 
L 317.772951 301.889552 
L 319.022391 301.812793 
L 320.271832 301.198721 
L 321.521272 300.277612 
L 322.770712 300.43113 
L 324.020152 298.895949 
L 325.269592 298.128358 
L 326.519033 298.665672 
L 327.768473 298.358635 
L 329.017913 298.512154 
L 331.516794 297.97484 
L 332.766234 298.281876 
L 334.015674 297.284009 
L 335.265114 297.667804 
L 337.763995 297.97484 
L 339.013435 298.588913 
L 341.512315 298.665672 
L 342.761755 299.663539 
L 344.011196 300.200853 
L 345.260636 300.507889 
L 346.510076 300.661407 
L 349.008957 300.738166 
L 350.258397 300.968443 
L 351.507837 300.584648 
L 352.757277 300.584648 
L 354.006717 300.277612 
L 355.256158 299.817058 
L 356.505598 299.510021 
L 361.503359 297.437527 
L 362.752799 297.284009 
L 364.002239 296.516418 
L 365.251679 295.134755 
L 366.50112 293.522814 
L 367.75056 293.215778 
L 369 291.603838 
L 370.24944 290.222175 
L 371.49888 287.919403 
L 372.748321 286.691258 
L 373.997761 282.930064 
L 375.247201 282.623028 
L 376.496641 279.399147 
L 377.746082 277.55693 
L 378.995522 274.793603 
L 380.244962 274.640085 
L 381.494402 270.264819 
L 382.743842 268.115565 
L 383.993283 265.582516 
L 385.242723 265.582516 
L 386.492163 266.503625 
L 387.741603 263.893817 
L 388.991043 262.972708 
L 390.240484 258.213646 
L 392.739364 247.620896 
L 393.988804 245.62516 
L 395.238245 243.245629 
L 397.737125 234.571855 
L 398.986565 232.192324 
L 400.236005 227.58678 
L 401.485446 220.908742 
L 403.984326 214.768017 
L 405.233766 215.151812 
L 406.483206 214.53774 
L 408.982087 203.561194 
L 410.231527 197.34371 
L 411.480967 193.27548 
L 412.730408 189.667804 
L 413.979848 184.985501 
L 415.229288 183.987633 
L 416.478728 180.686994 
L 418.977609 167.484435 
L 420.227049 167.330917 
L 421.476489 167.330917 
L 422.725929 168.328785 
L 426.47425 157.582516 
L 427.72369 150.981237 
L 428.97313 157.428998 
L 430.222571 161.650746 
L 432.721451 171.092111 
L 433.970891 177.616631 
L 435.220331 176.08145 
L 436.469772 177.616631 
L 437.719212 179.612367 
L 438.968652 184.601706 
L 440.218092 187.211514 
L 441.467532 190.435394 
L 442.716973 192.047335 
L 443.966413 188.3629 
L 445.215853 187.365032 
L 446.465293 190.588913 
L 447.714734 194.657143 
L 450.213614 204.098507 
L 452.712494 197.957783 
L 453.961935 200.490832 
L 455.211375 207.322388 
L 456.460815 211.390618 
L 457.710255 211.851173 
L 458.959695 215.765885 
L 460.209136 216.226439 
L 461.458576 212.695522 
L 462.708016 215.38209 
L 463.957456 221.06226 
L 465.206897 220.601706 
L 466.456337 219.45032 
L 467.705777 221.139019 
L 468.955217 217.915139 
L 470.204657 216.533475 
L 471.454098 213.002559 
L 472.703538 214.921535 
L 473.952978 217.377825 
L 477.701299 210.392751 
L 478.950739 202.793603 
L 480.200179 198.111301 
L 481.449619 197.497228 
L 482.69906 195.271215 
L 485.19794 192.354371 
L 486.44738 190.205117 
L 487.69682 186.904478 
L 488.946261 177.156077 
L 490.195701 178.460981 
L 491.445141 176.465245 
L 492.694581 177.079318 
L 493.944021 174.776546 
L 495.193462 169.940725 
L 496.442902 160.345842 
L 497.692342 148.448188 
L 498.941782 154.205117 
L 500.191223 146.375693 
L 501.440663 157.659275 
L 502.690103 153.97484 
L 503.939543 153.898081 
L 505.188983 144.379957 
L 506.438424 142.153945 
L 507.687864 144.303198 
L 508.937304 150.367164 
L 510.186744 159.271215 
L 511.436185 164.030277 
L 512.685625 165.872495 
L 513.935065 160.038806 
L 515.184505 158.580384 
L 516.433945 168.098507 
L 517.683386 168.635821 
L 518.932826 170.938593 
L 520.182266 177.846908 
L 521.431706 176.772281 
L 522.681146 174.008955 
L 523.930587 172.243497 
L 525.180027 176.695522 
L 526.429467 179.919403 
L 527.678907 178.614499 
L 528.928348 182.529211 
L 530.177788 179.919403 
L 531.427228 175.851173 
L 532.676668 177.002559 
L 535.175549 185.446055 
L 536.424989 187.211514 
L 537.674429 185.06226 
L 538.923869 187.134755 
L 540.173309 182.682729 
L 541.42275 181.991898 
L 542.67219 184.985501 
L 543.92163 191.279744 
L 546.420511 197.650746 
L 547.669951 196.959915 
L 548.919391 193.352239 
L 550.168831 195.808529 
L 551.418271 196.038806 
L 553.917152 202.716844 
L 555.166592 206.171002 
L 556.416032 205.863966 
L 557.665472 201.488699 
L 558.914913 200.414072 
L 560.164353 200.490832 
L 561.413793 199.8 
L 562.663233 197.881023 
L 563.912674 205.326652 
L 565.162114 206.938593 
L 567.660994 202.026013 
L 568.910434 204.252026 
L 570.159875 203.407676 
L 571.409315 205.096375 
L 572.658755 208.78081 
L 573.908195 206.401279 
L 575.157635 202.333049 
L 576.407076 197.036674 
L 577.656516 200.64435 
L 580.155396 202.716844 
L 581.404837 206.478038 
L 582.654277 207.629424 
L 583.903717 204.482303 
L 585.153157 199.876759 
L 586.402597 204.021748 
L 587.652038 204.021748 
L 588.901478 205.480171 
L 590.150918 206.478038 
L 591.400358 202.870362 
L 592.649798 196.192324 
L 593.899239 196.49936 
L 595.148679 198.571855 
L 596.398119 197.650746 
L 597.647559 195.655011 
L 598.897 196.959915 
L 600.14644 195.655011 
L 601.39588 188.516418 
L 602.64532 186.981237 
L 603.89476 187.979104 
L 605.144201 187.134755 
L 606.393641 185.369296 
L 608.892521 185.599574 
L 610.141961 179.919403 
L 611.391402 175.2371 
L 612.640842 180.99403 
L 615.139722 183.143284 
L 616.389163 183.987633 
L 617.638603 186.060128 
L 618.888043 182.913006 
L 620.137483 173.701919 
L 621.386923 171.092111 
L 621.386923 171.092111 
" style="fill:none;stroke:#ffa500;stroke-linecap:square;stroke-width:1.5;"/>
   </g>
   <g id="line2d_31">
    <path clip-path="url(#p85f09c4899)" d="M 179.085087 280.550533 
L 180.334528 281.394883 
L 181.583968 281.471642 
L 182.833408 277.326652 
L 184.082848 277.55693 
L 185.332288 278.017484 
L 186.581729 278.094243 
L 187.831169 278.32452 
L 189.080609 277.55693 
L 190.330049 279.706183 
L 192.82893 274.793603 
L 194.07837 274.716844 
L 195.32781 275.177399 
L 196.57725 275.791471 
L 197.826691 278.554797 
L 199.076131 278.938593 
L 200.325571 277.633689 
L 201.575011 277.403412 
L 202.824451 274.102772 
L 204.073892 276.098507 
L 205.323332 273.335181 
L 207.822212 278.094243 
L 209.071652 272.414072 
L 210.321093 271.492964 
L 211.570533 269.727505 
L 212.819973 267.424733 
L 214.069413 267.808529 
L 215.318854 270.878891 
L 216.568294 271.262687 
L 217.817734 267.73177 
L 219.067174 267.424733 
L 220.316614 266.350107 
L 221.566055 270.95565 
L 222.815495 269.113433 
L 225.314375 270.034542 
L 226.563815 269.573987 
L 227.813256 267.808529 
L 229.062696 264.968443 
L 230.312136 265.736034 
L 231.561576 267.117697 
L 232.811017 269.420469 
L 235.309897 271.339446 
L 236.559337 268.422601 
L 237.808777 264.354371 
L 239.058218 266.196588 
L 240.307658 265.736034 
L 241.557098 269.34371 
L 242.806538 266.964179 
L 244.055979 267.885288 
L 245.305419 266.810661 
L 246.554859 266.119829 
L 247.804299 265.121962 
L 249.053739 263.970576 
L 250.30318 268.269083 
L 251.55262 267.962047 
L 252.80206 264.124094 
L 254.0515 263.202985 
L 255.30094 264.277612 
L 256.550381 262.435394 
L 257.799821 261.667804 
L 259.049261 263.893817 
L 260.298701 268.576119 
L 261.548142 263.663539 
L 262.797582 264.507889 
L 264.047022 263.433262 
L 265.296462 263.049467 
L 266.545902 263.893817 
L 267.795343 266.350107 
L 269.044783 267.424733 
L 270.294223 264.968443 
L 272.793103 262.895949 
L 274.042544 262.81919 
L 275.291984 263.817058 
L 276.541424 266.196588 
L 277.790864 266.580384 
L 279.040305 266.657143 
L 280.289745 263.663539 
L 281.539185 262.895949 
L 282.788625 264.200853 
L 284.038065 264.738166 
L 285.287506 266.04307 
L 286.536946 267.885288 
L 287.786386 266.350107 
L 289.035826 263.893817 
L 290.285266 263.510021 
L 291.534707 263.510021 
L 292.784147 262.895949 
L 294.033587 264.277612 
L 295.283027 264.354371 
L 296.532468 263.433262 
L 297.781908 262.358635 
L 299.031348 263.126226 
L 300.280788 262.435394 
L 301.530228 262.128358 
L 302.779669 264.277612 
L 304.029109 268.269083 
L 305.278549 266.580384 
L 306.527989 265.812793 
L 307.777429 264.584648 
L 309.02687 263.893817 
L 310.27631 264.277612 
L 311.52575 265.505757 
L 312.77519 266.503625 
L 314.024631 264.584648 
L 315.274071 263.049467 
L 316.523511 261.97484 
L 317.772951 264.584648 
L 319.022391 263.663539 
L 320.271832 266.04307 
L 321.521272 264.047335 
L 322.770712 263.126226 
L 324.020152 260.823454 
L 325.269592 260.900213 
L 326.519033 263.510021 
L 327.768473 263.126226 
L 329.017913 263.510021 
L 330.267353 264.507889 
L 331.516794 261.514286 
L 332.766234 260.439659 
L 334.015674 262.281876 
L 335.265114 261.591045 
L 336.514554 262.512154 
L 337.763995 264.507889 
L 339.013435 265.505757 
L 340.262875 261.744563 
L 341.512315 260.132623 
L 342.761755 260.823454 
L 344.011196 261.284009 
L 345.260636 263.58678 
L 346.510076 265.045203 
L 347.759516 265.659275 
L 349.008957 262.665672 
L 350.258397 260.516418 
L 351.507837 262.435394 
L 352.757277 261.514286 
L 354.006717 262.051599 
L 355.256158 263.663539 
L 356.505598 265.505757 
L 357.755038 259.365032 
L 359.004478 260.593177 
L 360.253918 261.360768 
L 361.503359 261.13049 
L 362.752799 262.128358 
L 364.002239 263.970576 
L 365.251679 264.738166 
L 366.50112 260.209382 
L 367.75056 258.290405 
L 369 259.057996 
L 370.24944 260.669936 
L 371.49888 262.742431 
L 372.748321 265.045203 
L 373.997761 266.810661 
L 375.247201 259.748827 
L 376.496641 259.134755 
L 377.746082 259.057996 
L 378.995522 262.742431 
L 380.244962 261.821322 
L 381.494402 264.968443 
L 382.743842 267.271215 
L 383.993283 262.81919 
L 386.492163 260.976972 
L 387.741603 262.281876 
L 388.991043 264.047335 
L 390.240484 266.733902 
L 391.489924 268.269083 
L 392.739364 263.663539 
L 393.988804 263.356503 
L 395.238245 264.661407 
L 396.487685 264.584648 
L 397.737125 267.962047 
L 398.986565 270.341578 
L 400.236005 269.957783 
L 401.485446 266.273348 
L 402.734886 267.424733 
L 403.984326 269.266951 
L 405.233766 267.655011 
L 407.732647 272.567591 
L 408.982087 273.718977 
L 410.231527 271.032409 
L 411.480967 272.874627 
L 412.730408 272.567591 
L 413.979848 271.339446 
L 415.229288 274.793603 
L 416.478728 275.714712 
L 417.728168 274.793603 
L 418.977609 272.874627 
L 420.227049 272.414072 
L 421.476489 271.8 
L 422.725929 273.565458 
L 423.975369 273.181663 
L 425.22481 273.642217 
L 426.47425 276.021748 
L 427.72369 273.41194 
L 428.97313 271.416205 
L 431.472011 271.262687 
L 432.721451 272.107036 
L 433.970891 274.793603 
L 435.220331 273.795736 
L 436.469772 270.495096 
L 437.719212 271.032409 
L 438.968652 269.804264 
L 440.218092 270.648614 
L 441.467532 272.797868 
L 442.716973 274.333049 
L 443.966413 272.337313 
L 445.215853 271.569723 
L 446.465293 270.418337 
L 447.714734 269.420469 
L 448.964174 269.804264 
L 450.213614 271.416205 
L 451.463054 273.565458 
L 452.712494 273.258422 
L 453.961935 270.18806 
L 455.211375 268.345842 
L 456.460815 268.269083 
L 457.710255 268.49936 
L 460.209136 273.335181 
L 461.458576 271.416205 
L 462.708016 269.036674 
L 465.206897 265.121962 
L 466.456337 265.659275 
L 467.705777 268.269083 
L 468.955217 269.34371 
L 470.204657 269.420469 
L 471.454098 265.428998 
L 472.703538 265.505757 
L 473.952978 266.964179 
L 475.202418 265.889552 
L 476.451858 268.729638 
L 477.701299 271.185928 
L 478.950739 267.73177 
L 480.200179 267.194456 
L 481.449619 266.119829 
L 482.69906 268.959915 
L 483.9485 269.727505 
L 485.19794 270.802132 
L 486.44738 274.793603 
L 487.69682 274.947122 
L 488.946261 271.876759 
L 490.195701 274.179531 
L 491.445141 274.409808 
L 492.694581 275.86823 
L 493.944021 279.322388 
L 495.193462 278.171002 
L 496.442902 279.475906 
L 497.692342 275.944989 
L 498.941782 275.484435 
L 500.191223 276.405544 
L 501.440663 278.017484 
L 502.690103 278.785075 
L 503.939543 280.243497 
L 506.438424 277.480171 
L 507.687864 274.486567 
L 508.937304 275.637953 
L 510.186744 275.177399 
L 511.436185 275.637953 
L 512.685625 278.785075 
L 513.935065 278.478038 
L 515.184505 275.86823 
L 516.433945 275.944989 
L 517.683386 273.104904 
L 518.932826 273.181663 
L 520.182266 274.026013 
L 521.431706 277.710448 
L 522.681146 277.326652 
L 523.930587 273.795736 
L 525.180027 273.565458 
L 526.429467 272.567591 
L 527.678907 272.874627 
L 528.928348 272.64435 
L 530.177788 275.944989 
L 531.427228 275.944989 
L 532.676668 272.107036 
L 533.926108 270.111301 
L 535.175549 269.881023 
L 536.424989 272.721109 
L 537.674429 271.723241 
L 538.923869 273.028145 
L 540.173309 275.177399 
L 541.42275 271.723241 
L 543.92163 270.571855 
L 545.17107 270.264819 
L 546.420511 270.418337 
L 547.669951 272.414072 
L 548.919391 272.951386 
L 550.168831 272.951386 
L 551.418271 268.652878 
L 552.667712 268.192324 
L 553.917152 269.113433 
L 555.166592 267.808529 
L 556.416032 271.8 
L 558.914913 267.347974 
L 560.164353 268.269083 
L 561.413793 268.652878 
L 562.663233 268.345842 
L 563.912674 269.34371 
L 565.162114 272.490832 
L 566.411554 274.179531 
L 567.660994 271.032409 
L 568.910434 268.883156 
L 570.159875 269.573987 
L 571.409315 270.034542 
L 572.658755 271.8 
L 573.908195 277.096375 
L 575.157635 274.563326 
L 576.407076 272.567591 
L 577.656516 272.951386 
L 578.905956 270.648614 
L 580.155396 270.18806 
L 581.404837 271.032409 
L 582.654277 274.793603 
L 583.903717 272.797868 
L 585.153157 269.650746 
L 586.402597 270.95565 
L 587.652038 270.341578 
L 588.901478 269.420469 
L 590.150918 271.109168 
L 591.400358 275.023881 
L 592.649798 274.026013 
L 593.899239 271.569723 
L 595.148679 270.18806 
L 596.398119 271.262687 
L 597.647559 271.032409 
L 598.897 272.874627 
L 600.14644 276.559062 
L 602.64532 271.416205 
L 603.89476 270.802132 
L 606.393641 272.567591 
L 607.643081 273.181663 
L 608.892521 277.019616 
L 610.141961 274.793603 
L 611.391402 273.104904 
L 612.640842 274.179531 
L 613.890282 274.640085 
L 615.139722 275.714712 
L 616.389163 276.635821 
L 617.638603 279.706183 
L 618.888043 279.552665 
L 620.137483 278.171002 
L 621.386923 274.947122 
L 621.386923 274.947122 
" style="fill:none;stroke:#0000ff;stroke-linecap:square;stroke-width:1.5;"/>
   </g>
   <g id="line2d_32">
    <path clip-path="url(#p85f09c4899)" d="M 115.363636 307.339446 
L 121.610837 306.95565 
L 122.860278 306.725373 
L 124.109718 306.725373 
L 125.359158 306.418337 
L 126.608598 306.264819 
L 130.356919 304.883156 
L 131.606359 304.192324 
L 132.855799 302.657143 
L 134.10524 301.812793 
L 135.35468 300.507889 
L 136.60412 298.665672 
L 139.103 294.136887 
L 140.352441 290.375693 
L 141.601881 285.846908 
L 142.851321 280.089979 
L 144.100761 274.870362 
L 145.350202 271.032409 
L 146.599642 263.893817 
L 147.849082 257.753092 
L 149.098522 250.153945 
L 151.597403 236.721109 
L 152.846843 231.73177 
L 154.096283 228.200853 
L 155.345723 221.446055 
L 156.595163 216.456716 
L 157.844604 215.151812 
L 159.094044 212.004691 
L 160.343484 209.932196 
L 161.592924 203.484435 
L 164.091805 199.723241 
L 165.341245 198.571855 
L 166.590685 199.8 
L 167.840125 199.109168 
L 169.089566 201.642217 
L 170.339006 201.104904 
L 171.588446 203.637953 
L 172.837886 205.173134 
L 174.087326 207.859701 
L 175.336767 209.701919 
L 177.835647 213.079318 
L 179.085087 215.689126 
L 180.334528 217.608102 
L 181.583968 218.989765 
L 182.833408 224.439659 
L 184.082848 227.279744 
L 186.581729 233.957783 
L 187.831169 234.264819 
L 189.080609 236.183795 
L 190.330049 238.409808 
L 191.579489 241.787207 
L 192.82893 246.162473 
L 194.07837 247.774414 
L 195.32781 251.458849 
L 196.57725 253.531343 
L 197.826691 255.066525 
L 199.076131 255.45032 
L 200.325571 258.443923 
L 201.575011 259.672068 
L 202.824451 263.049467 
L 204.073892 264.584648 
L 205.323332 266.350107 
L 206.572772 268.959915 
L 207.822212 269.650746 
L 209.071652 272.337313 
L 210.321093 274.716844 
L 211.570533 276.405544 
L 214.069413 281.318124 
L 215.318854 281.087846 
L 216.568294 283.083582 
L 217.817734 285.386354 
L 220.316614 288.303198 
L 221.566055 288.533475 
L 222.815495 290.452452 
L 224.064935 290.759488 
L 225.314375 290.759488 
L 226.563815 293.446055 
L 227.813256 293.369296 
L 229.062696 293.90661 
L 230.312136 294.060128 
L 232.811017 295.672068 
L 234.060457 295.748827 
L 235.309897 296.055864 
L 236.559337 298.972708 
L 237.808777 299.202985 
L 239.058218 300.43113 
L 241.557098 300.507889 
L 242.806538 300.814925 
L 244.055979 300.891684 
L 245.305419 301.736034 
L 247.804299 302.273348 
L 249.053739 301.966311 
L 250.30318 301.812793 
L 251.55262 301.198721 
L 252.80206 301.889552 
L 255.30094 302.733902 
L 256.550381 303.501493 
L 257.799821 303.501493 
L 259.049261 303.655011 
L 260.298701 303.347974 
L 261.548142 304.192324 
L 264.047022 304.115565 
L 266.545902 305.650746 
L 269.044783 305.420469 
L 270.294223 305.650746 
L 271.543663 305.727505 
L 272.793103 305.957783 
L 274.042544 306.341578 
L 275.291984 306.495096 
L 276.541424 306.495096 
L 277.790864 306.111301 
L 279.040305 306.034542 
L 280.289745 306.341578 
L 281.539185 306.264819 
L 282.788625 305.957783 
L 284.038065 305.881023 
L 285.287506 306.034542 
L 286.536946 306.034542 
L 287.786386 306.264819 
L 289.035826 306.341578 
L 290.285266 306.725373 
L 292.784147 306.648614 
L 294.033587 306.571855 
L 296.532468 306.725373 
L 297.781908 306.571855 
L 299.031348 306.725373 
L 301.530228 306.495096 
L 302.779669 306.648614 
L 304.029109 306.264819 
L 307.777429 306.802132 
L 309.02687 306.418337 
L 310.27631 306.18806 
L 311.52575 306.264819 
L 312.77519 305.804264 
L 314.024631 305.881023 
L 315.274071 305.573987 
L 319.022391 305.727505 
L 320.271832 305.497228 
L 321.521272 305.650746 
L 322.770712 305.573987 
L 324.020152 305.190192 
L 325.269592 305.497228 
L 326.519033 304.959915 
L 327.768473 304.883156 
L 329.017913 305.113433 
L 331.516794 304.652878 
L 334.015674 304.883156 
L 335.265114 304.576119 
L 342.761755 305.113433 
L 344.011196 305.266951 
L 346.510076 305.34371 
L 347.759516 304.959915 
L 349.008957 305.34371 
L 350.258397 305.420469 
L 351.507837 305.727505 
L 352.757277 305.190192 
L 354.006717 305.190192 
L 357.755038 305.573987 
L 359.004478 305.497228 
L 360.253918 305.573987 
L 361.503359 305.113433 
L 362.752799 305.036674 
L 364.002239 305.113433 
L 365.251679 304.576119 
L 366.50112 303.808529 
L 367.75056 303.73177 
L 369 304.115565 
L 373.997761 301.352239 
L 375.247201 300.891684 
L 376.496641 299.893817 
L 377.746082 299.740299 
L 378.995522 298.972708 
L 381.494402 298.128358 
L 382.743842 296.976972 
L 383.993283 296.976972 
L 385.242723 296.3629 
L 386.492163 296.209382 
L 387.741603 295.595309 
L 388.991043 295.902345 
L 390.240484 295.365032 
L 392.739364 293.292537 
L 395.238245 290.375693 
L 396.487685 289.531343 
L 397.737125 289.83838 
L 398.986565 288.917271 
L 400.236005 288.533475 
L 402.734886 284.772281 
L 403.984326 283.851173 
L 405.233766 281.394883 
L 406.483206 280.857569 
L 407.732647 279.936461 
L 408.982087 278.785075 
L 410.231527 275.714712 
L 411.480967 273.335181 
L 412.730408 272.337313 
L 413.979848 271.646482 
L 415.229288 269.420469 
L 416.478728 270.264819 
L 417.728168 269.036674 
L 418.977609 267.271215 
L 420.227049 266.04307 
L 421.476489 265.428998 
L 422.725929 264.354371 
L 423.975369 263.049467 
L 425.22481 263.126226 
L 426.47425 262.81919 
L 427.72369 261.13049 
L 428.97313 260.900213 
L 431.472011 261.591045 
L 432.721451 261.667804 
L 433.970891 261.97484 
L 435.220331 261.821322 
L 436.469772 261.97484 
L 437.719212 261.360768 
L 438.968652 262.205117 
L 440.218092 261.13049 
L 441.467532 262.205117 
L 442.716973 262.895949 
L 443.966413 263.893817 
L 445.215853 263.663539 
L 446.465293 264.968443 
L 447.714734 265.27548 
L 448.964174 265.889552 
L 450.213614 265.659275 
L 451.463054 266.426866 
L 452.712494 266.733902 
L 453.961935 267.501493 
L 455.211375 267.271215 
L 457.710255 268.115565 
L 458.959695 268.652878 
L 460.209136 269.036674 
L 461.458576 270.95565 
L 463.957456 271.416205 
L 465.206897 272.721109 
L 466.456337 271.569723 
L 467.705777 271.646482 
L 468.955217 271.876759 
L 470.204657 271.8 
L 471.454098 272.260554 
L 472.703538 271.569723 
L 473.952978 271.876759 
L 475.202418 271.646482 
L 476.451858 270.95565 
L 477.701299 269.727505 
L 478.950739 269.266951 
L 480.200179 267.655011 
L 481.449619 267.501493 
L 482.69906 266.733902 
L 483.9485 265.736034 
L 485.19794 264.891684 
L 486.44738 263.356503 
L 487.69682 262.895949 
L 488.946261 262.895949 
L 490.195701 261.207249 
L 491.445141 262.128358 
L 492.694581 261.821322 
L 495.193462 259.441791 
L 498.941782 253.224307 
L 500.191223 252.303198 
L 501.440663 253.915139 
L 502.690103 254.298934 
L 503.939543 253.83838 
L 505.188983 252.99403 
L 506.438424 251.765885 
L 507.687864 253.83838 
L 508.937304 253.224307 
L 510.186744 253.531343 
L 511.436185 254.145416 
L 512.685625 253.301066 
L 513.935065 253.991898 
L 515.184505 254.529211 
L 516.433945 254.145416 
L 517.683386 254.682729 
L 518.932826 254.913006 
L 520.182266 256.371429 
L 521.431706 255.987633 
L 522.681146 254.913006 
L 523.930587 255.45032 
L 525.180027 255.757356 
L 528.928348 256.21791 
L 530.177788 255.680597 
L 531.427228 256.908742 
L 532.676668 256.141151 
L 533.926108 257.90661 
L 535.175549 258.367164 
L 536.424989 257.292537 
L 537.674429 258.750959 
L 538.923869 258.290405 
L 540.173309 258.827719 
L 541.42275 259.595309 
L 542.67219 260.823454 
L 543.92163 261.667804 
L 545.17107 263.893817 
L 546.420511 265.889552 
L 547.669951 266.810661 
L 550.168831 265.659275 
L 551.418271 266.964179 
L 552.667712 266.657143 
L 553.917152 266.88742 
L 555.166592 266.580384 
L 556.416032 267.194456 
L 557.665472 266.733902 
L 558.914913 267.501493 
L 560.164353 267.962047 
L 561.413793 267.73177 
L 562.663233 268.729638 
L 565.162114 266.88742 
L 566.411554 264.814925 
L 567.660994 266.580384 
L 568.910434 266.964179 
L 570.159875 267.501493 
L 571.409315 267.578252 
L 572.658755 268.115565 
L 573.908195 267.501493 
L 575.157635 266.733902 
L 576.407076 266.426866 
L 577.656516 265.736034 
L 578.905956 266.503625 
L 582.654277 266.04307 
L 583.903717 265.045203 
L 585.153157 265.198721 
L 586.402597 264.891684 
L 587.652038 263.970576 
L 588.901478 263.663539 
L 590.150918 265.352239 
L 591.400358 265.352239 
L 592.649798 264.584648 
L 593.899239 262.895949 
L 595.148679 264.277612 
L 596.398119 264.584648 
L 597.647559 263.433262 
L 598.897 261.667804 
L 600.14644 260.976972 
L 601.39588 258.904478 
L 602.64532 260.055864 
L 603.89476 259.902345 
L 605.144201 260.3629 
L 606.393641 259.902345 
L 607.643081 258.520682 
L 608.892521 257.599574 
L 610.141961 256.064392 
L 611.391402 255.527079 
L 612.640842 255.603838 
L 613.890282 255.066525 
L 615.139722 253.76162 
L 616.389163 251.535608 
L 617.638603 251.842644 
L 618.888043 250.614499 
L 620.137483 250.307463 
L 621.386923 248.311727 
L 621.386923 248.311727 
" style="fill:none;stroke:#00ffff;stroke-linecap:square;stroke-width:1.5;"/>
   </g>
   <g id="patch_3">
    <path d="M 90 320.4 
L 90 43.2 
" style="fill:none;stroke:#000000;stroke-linecap:square;stroke-linejoin:miter;stroke-width:0.8;"/>
   </g>
   <g id="patch_4">
    <path d="M 648 320.4 
L 648 43.2 
" style="fill:none;stroke:#000000;stroke-linecap:square;stroke-linejoin:miter;stroke-width:0.8;"/>
   </g>
   <g id="patch_5">
    <path d="M 90 320.4 
L 648 320.4 
" style="fill:none;stroke:#000000;stroke-linecap:square;stroke-linejoin:miter;stroke-width:0.8;"/>
   </g>
   <g id="patch_6">
    <path d="M 90 43.2 
L 648 43.2 
" style="fill:none;stroke:#000000;stroke-linecap:square;stroke-linejoin:miter;stroke-width:0.8;"/>
   </g>
   <g id="text_16">
    <!-- Testplot -->
    <g transform="translate(345.68625 37.2)scale(0.12 -0.12)">
     <defs>
      <path d="M -0.296875 72.90625 
L 61.375 72.90625 
L 61.375 64.59375 
L 35.5 64.59375 
L 35.5 0 
L 25.59375 0 
L 25.59375 64.59375 
L -0.296875 64.59375 
z
" id="DejaVuSans-84"/>
      <path d="M 56.203125 29.59375 
L 56.203125 25.203125 
L 14.890625 25.203125 
Q 15.484375 15.921875 20.484375 11.0625 
Q 25.484375 6.203125 34.421875 6.203125 
Q 39.59375 6.203125 44.453125 7.46875 
Q 49.3125 8.734375 54.109375 11.28125 
L 54.109375 2.78125 
Q 49.265625 0.734375 44.1875 -0.34375 
Q 39.109375 -1.421875 33.890625 -1.421875 
Q 20.796875 -1.421875 13.15625 6.1875 
Q 5.515625 13.8125 5.515625 26.8125 
Q 5.515625 40.234375 12.765625 48.109375 
Q 20.015625 56 32.328125 56 
Q 43.359375 56 49.78125 48.890625 
Q 56.203125 41.796875 56.203125 29.59375 
z
M 47.21875 32.234375 
Q 47.125 39.59375 43.09375 43.984375 
Q 39.0625 48.390625 32.421875 48.390625 
Q 24.90625 48.390625 20.390625 44.140625 
Q 15.875 39.890625 15.1875 32.171875 
z
" id="DejaVuSans-101"/>
      <path d="M 44.28125 53.078125 
L 44.28125 44.578125 
Q 40.484375 46.53125 36.375 47.5 
Q 32.28125 48.484375 27.875 48.484375 
Q 21.1875 48.484375 17.84375 46.4375 
Q 14.5 44.390625 14.5 40.28125 
Q 14.5 37.15625 16.890625 35.375 
Q 19.28125 33.59375 26.515625 31.984375 
L 29.59375 31.296875 
Q 39.15625 29.25 43.1875 25.515625 
Q 47.21875 21.78125 47.21875 15.09375 
Q 47.21875 7.46875 41.1875 3.015625 
Q 35.15625 -1.421875 24.609375 -1.421875 
Q 20.21875 -1.421875 15.453125 -0.5625 
Q 10.6875 0.296875 5.421875 2 
L 5.421875 11.28125 
Q 10.40625 8.6875 15.234375 7.390625 
Q 20.0625 6.109375 24.8125 6.109375 
Q 31.15625 6.109375 34.5625 8.28125 
Q 37.984375 10.453125 37.984375 14.40625 
Q 37.984375 18.0625 35.515625 20.015625 
Q 33.0625 21.96875 24.703125 23.78125 
L 21.578125 24.515625 
Q 13.234375 26.265625 9.515625 29.90625 
Q 5.8125 33.546875 5.8125 39.890625 
Q 5.8125 47.609375 11.28125 51.796875 
Q 16.75 56 26.8125 56 
Q 31.78125 56 36.171875 55.265625 
Q 40.578125 54.546875 44.28125 53.078125 
z
" id="DejaVuSans-115"/>
      <path d="M 18.109375 8.203125 
L 18.109375 -20.796875 
L 9.078125 -20.796875 
L 9.078125 54.6875 
L 18.109375 54.6875 
L 18.109375 46.390625 
Q 20.953125 51.265625 25.265625 53.625 
Q 29.59375 56 35.59375 56 
Q 45.5625 56 51.78125 48.09375 
Q 58.015625 40.1875 58.015625 27.296875 
Q 58.015625 14.40625 51.78125 6.484375 
Q 45.5625 -1.421875 35.59375 -1.421875 
Q 29.59375 -1.421875 25.265625 0.953125 
Q 20.953125 3.328125 18.109375 8.203125 
z
M 48.6875 27.296875 
Q 48.6875 37.203125 44.609375 42.84375 
Q 40.53125 48.484375 33.40625 48.484375 
Q 26.265625 48.484375 22.1875 42.84375 
Q 18.109375 37.203125 18.109375 27.296875 
Q 18.109375 17.390625 22.1875 11.75 
Q 26.265625 6.109375 33.40625 6.109375 
Q 40.53125 6.109375 44.609375 11.75 
Q 48.6875 17.390625 48.6875 27.296875 
z
" id="DejaVuSans-112"/>
      <path d="M 9.421875 75.984375 
L 18.40625 75.984375 
L 18.40625 0 
L 9.421875 0 
z
" id="DejaVuSans-108"/>
      <path d="M 30.609375 48.390625 
Q 23.390625 48.390625 19.1875 42.75 
Q 14.984375 37.109375 14.984375 27.296875 
Q 14.984375 17.484375 19.15625 11.84375 
Q 23.34375 6.203125 30.609375 6.203125 
Q 37.796875 6.203125 41.984375 11.859375 
Q 46.1875 17.53125 46.1875 27.296875 
Q 46.1875 37.015625 41.984375 42.703125 
Q 37.796875 48.390625 30.609375 48.390625 
z
M 30.609375 56 
Q 42.328125 56 49.015625 48.375 
Q 55.71875 40.765625 55.71875 27.296875 
Q 55.71875 13.875 49.015625 6.21875 
Q 42.328125 -1.421875 30.609375 -1.421875 
Q 18.84375 -1.421875 12.171875 6.21875 
Q 5.515625 13.875 5.515625 27.296875 
Q 5.515625 40.765625 12.171875 48.375 
Q 18.84375 56 30.609375 56 
z
" id="DejaVuSans-111"/>
     </defs>
     <use xlink:href="#DejaVuSans-84"/>
     <use x="44.083984" xlink:href="#DejaVuSans-101"/>
     <use x="105.607422" xlink:href="#DejaVuSans-115"/>
     <use x="157.707031" xlink:href="#DejaVuSans-116"/>
     <use x="196.916016" xlink:href="#DejaVuSans-112"/>
     <use x="260.392578" xlink:href="#DejaVuSans-108"/>
     <use x="288.175781" xlink:href="#DejaVuSans-111"/>
     <use x="349.357422" xlink:href="#DejaVuSans-116"/>
    </g>
   </g>
   <g id="legend_1">
    <g id="patch_7">
     <path d="M 97 109.9125 
L 348.946875 109.9125 
Q 350.946875 109.9125 350.946875 107.9125 
L 350.946875 50.2 
Q 350.946875 48.2 348.946875 48.2 
L 97 48.2 
Q 95 48.2 95 50.2 
L 95 107.9125 
Q 95 109.9125 97 109.9125 
z
" style="fill:#ffffff;opacity:0.8;stroke:#cccccc;stroke-linejoin:miter;"/>
    </g>
    <g id="line2d_33">
     <path d="M 99 56.298437 
L 119 56.298437 
" style="fill:none;stroke:#ff0000;stroke-linecap:square;stroke-width:1.5;"/>
    </g>
    <g id="line2d_34"/>
    <g id="text_17">
     <!-- covid opgenomen patinten NICE (nu 1664) -->
     <g transform="translate(127 59.798437)scale(0.1 -0.1)">
      <defs>
       <path d="M 48.78125 52.59375 
L 48.78125 44.1875 
Q 44.96875 46.296875 41.140625 47.34375 
Q 37.3125 48.390625 33.40625 48.390625 
Q 24.65625 48.390625 19.8125 42.84375 
Q 14.984375 37.3125 14.984375 27.296875 
Q 14.984375 17.28125 19.8125 11.734375 
Q 24.65625 6.203125 33.40625 6.203125 
Q 37.3125 6.203125 41.140625 7.25 
Q 44.96875 8.296875 48.78125 10.40625 
L 48.78125 2.09375 
Q 45.015625 0.34375 40.984375 -0.53125 
Q 36.96875 -1.421875 32.421875 -1.421875 
Q 20.0625 -1.421875 12.78125 6.34375 
Q 5.515625 14.109375 5.515625 27.296875 
Q 5.515625 40.671875 12.859375 48.328125 
Q 20.21875 56 33.015625 56 
Q 37.15625 56 41.109375 55.140625 
Q 45.0625 54.296875 48.78125 52.59375 
z
" id="DejaVuSans-99"/>
       <path d="M 2.984375 54.6875 
L 12.5 54.6875 
L 29.59375 8.796875 
L 46.6875 54.6875 
L 56.203125 54.6875 
L 35.6875 0 
L 23.484375 0 
z
" id="DejaVuSans-118"/>
       <path d="M 9.421875 54.6875 
L 18.40625 54.6875 
L 18.40625 0 
L 9.421875 0 
z
M 9.421875 75.984375 
L 18.40625 75.984375 
L 18.40625 64.59375 
L 9.421875 64.59375 
z
" id="DejaVuSans-105"/>
       <path d="M 45.40625 46.390625 
L 45.40625 75.984375 
L 54.390625 75.984375 
L 54.390625 0 
L 45.40625 0 
L 45.40625 8.203125 
Q 42.578125 3.328125 38.25 0.953125 
Q 33.9375 -1.421875 27.875 -1.421875 
Q 17.96875 -1.421875 11.734375 6.484375 
Q 5.515625 14.40625 5.515625 27.296875 
Q 5.515625 40.1875 11.734375 48.09375 
Q 17.96875 56 27.875 56 
Q 33.9375 56 38.25 53.625 
Q 42.578125 51.265625 45.40625 46.390625 
z
M 14.796875 27.296875 
Q 14.796875 17.390625 18.875 11.75 
Q 22.953125 6.109375 30.078125 6.109375 
Q 37.203125 6.109375 41.296875 11.75 
Q 45.40625 17.390625 45.40625 27.296875 
Q 45.40625 37.203125 41.296875 42.84375 
Q 37.203125 48.484375 30.078125 48.484375 
Q 22.953125 48.484375 18.875 42.84375 
Q 14.796875 37.203125 14.796875 27.296875 
z
" id="DejaVuSans-100"/>
       <path id="DejaVuSans-32"/>
       <path d="M 45.40625 27.984375 
Q 45.40625 37.75 41.375 43.109375 
Q 37.359375 48.484375 30.078125 48.484375 
Q 22.859375 48.484375 18.828125 43.109375 
Q 14.796875 37.75 14.796875 27.984375 
Q 14.796875 18.265625 18.828125 12.890625 
Q 22.859375 7.515625 30.078125 7.515625 
Q 37.359375 7.515625 41.375 12.890625 
Q 45.40625 18.265625 45.40625 27.984375 
z
M 54.390625 6.78125 
Q 54.390625 -7.171875 48.1875 -13.984375 
Q 42 -20.796875 29.203125 -20.796875 
Q 24.46875 -20.796875 20.265625 -20.09375 
Q 16.0625 -19.390625 12.109375 -17.921875 
L 12.109375 -9.1875 
Q 16.0625 -11.328125 19.921875 -12.34375 
Q 23.78125 -13.375 27.78125 -13.375 
Q 36.625 -13.375 41.015625 -8.765625 
Q 45.40625 -4.15625 45.40625 5.171875 
L 45.40625 9.625 
Q 42.625 4.78125 38.28125 2.390625 
Q 33.9375 0 27.875 0 
Q 17.828125 0 11.671875 7.65625 
Q 5.515625 15.328125 5.515625 27.984375 
Q 5.515625 40.671875 11.671875 48.328125 
Q 17.828125 56 27.875 56 
Q 33.9375 56 38.28125 53.609375 
Q 42.625 51.21875 45.40625 46.390625 
L 45.40625 54.6875 
L 54.390625 54.6875 
z
" id="DejaVuSans-103"/>
       <path d="M 54.890625 33.015625 
L 54.890625 0 
L 45.90625 0 
L 45.90625 32.71875 
Q 45.90625 40.484375 42.875 44.328125 
Q 39.84375 48.1875 33.796875 48.1875 
Q 26.515625 48.1875 22.3125 43.546875 
Q 18.109375 38.921875 18.109375 30.90625 
L 18.109375 0 
L 9.078125 0 
L 9.078125 54.6875 
L 18.109375 54.6875 
L 18.109375 46.1875 
Q 21.34375 51.125 25.703125 53.5625 
Q 30.078125 56 35.796875 56 
Q 45.21875 56 50.046875 50.171875 
Q 54.890625 44.34375 54.890625 33.015625 
z
" id="DejaVuSans-110"/>
       <path d="M 56.203125 29.59375 
L 56.203125 25.203125 
L 14.890625 25.203125 
Q 15.484375 15.921875 20.484375 11.0625 
Q 25.484375 6.203125 34.421875 6.203125 
Q 39.59375 6.203125 44.453125 7.46875 
Q 49.3125 8.734375 54.109375 11.28125 
L 54.109375 2.78125 
Q 49.265625 0.734375 44.1875 -0.34375 
Q 39.109375 -1.421875 33.890625 -1.421875 
Q 20.796875 -1.421875 13.15625 6.1875 
Q 5.515625 13.8125 5.515625 26.8125 
Q 5.515625 40.234375 12.765625 48.109375 
Q 20.015625 56 32.328125 56 
Q 43.359375 56 49.78125 48.890625 
Q 56.203125 41.796875 56.203125 29.59375 
z
M 47.21875 32.234375 
Q 47.125 39.59375 43.09375 43.984375 
Q 39.0625 48.390625 32.421875 48.390625 
Q 24.90625 48.390625 20.390625 44.140625 
Q 15.875 39.890625 15.1875 32.171875 
z
M 36.34375 75.78125 
L 46.25 75.78125 
L 46.25 65.921875 
L 36.34375 65.921875 
z
M 17.25 75.78125 
L 27.15625 75.78125 
L 27.15625 65.921875 
L 17.25 65.921875 
z
" id="DejaVuSans-235"/>
       <path d="M 9.8125 72.90625 
L 23.09375 72.90625 
L 55.421875 11.921875 
L 55.421875 72.90625 
L 64.984375 72.90625 
L 64.984375 0 
L 51.703125 0 
L 19.390625 60.984375 
L 19.390625 0 
L 9.8125 0 
z
" id="DejaVuSans-78"/>
       <path d="M 9.8125 72.90625 
L 19.671875 72.90625 
L 19.671875 0 
L 9.8125 0 
z
" id="DejaVuSans-73"/>
       <path d="M 64.40625 67.28125 
L 64.40625 56.890625 
Q 59.421875 61.53125 53.78125 63.8125 
Q 48.140625 66.109375 41.796875 66.109375 
Q 29.296875 66.109375 22.65625 58.46875 
Q 16.015625 50.828125 16.015625 36.375 
Q 16.015625 21.96875 22.65625 14.328125 
Q 29.296875 6.6875 41.796875 6.6875 
Q 48.140625 6.6875 53.78125 8.984375 
Q 59.421875 11.28125 64.40625 15.921875 
L 64.40625 5.609375 
Q 59.234375 2.09375 53.4375 0.328125 
Q 47.65625 -1.421875 41.21875 -1.421875 
Q 24.65625 -1.421875 15.125 8.703125 
Q 5.609375 18.84375 5.609375 36.375 
Q 5.609375 53.953125 15.125 64.078125 
Q 24.65625 74.21875 41.21875 74.21875 
Q 47.75 74.21875 53.53125 72.484375 
Q 59.328125 70.75 64.40625 67.28125 
z
" id="DejaVuSans-67"/>
       <path d="M 9.8125 72.90625 
L 55.90625 72.90625 
L 55.90625 64.59375 
L 19.671875 64.59375 
L 19.671875 43.015625 
L 54.390625 43.015625 
L 54.390625 34.71875 
L 19.671875 34.71875 
L 19.671875 8.296875 
L 56.78125 8.296875 
L 56.78125 0 
L 9.8125 0 
z
" id="DejaVuSans-69"/>
       <path d="M 31 75.875 
Q 24.46875 64.65625 21.28125 53.65625 
Q 18.109375 42.671875 18.109375 31.390625 
Q 18.109375 20.125 21.3125 9.0625 
Q 24.515625 -2 31 -13.1875 
L 23.1875 -13.1875 
Q 15.875 -1.703125 12.234375 9.375 
Q 8.59375 20.453125 8.59375 31.390625 
Q 8.59375 42.28125 12.203125 53.3125 
Q 15.828125 64.359375 23.1875 75.875 
z
" id="DejaVuSans-40"/>
       <path d="M 33.015625 40.375 
Q 26.375 40.375 22.484375 35.828125 
Q 18.609375 31.296875 18.609375 23.390625 
Q 18.609375 15.53125 22.484375 10.953125 
Q 26.375 6.390625 33.015625 6.390625 
Q 39.65625 6.390625 43.53125 10.953125 
Q 47.40625 15.53125 47.40625 23.390625 
Q 47.40625 31.296875 43.53125 35.828125 
Q 39.65625 40.375 33.015625 40.375 
z
M 52.59375 71.296875 
L 52.59375 62.3125 
Q 48.875 64.0625 45.09375 64.984375 
Q 41.3125 65.921875 37.59375 65.921875 
Q 27.828125 65.921875 22.671875 59.328125 
Q 17.53125 52.734375 16.796875 39.40625 
Q 19.671875 43.65625 24.015625 45.921875 
Q 28.375 48.1875 33.59375 48.1875 
Q 44.578125 48.1875 50.953125 41.515625 
Q 57.328125 34.859375 57.328125 23.390625 
Q 57.328125 12.15625 50.6875 5.359375 
Q 44.046875 -1.421875 33.015625 -1.421875 
Q 20.359375 -1.421875 13.671875 8.265625 
Q 6.984375 17.96875 6.984375 36.375 
Q 6.984375 53.65625 15.1875 63.9375 
Q 23.390625 74.21875 37.203125 74.21875 
Q 40.921875 74.21875 44.703125 73.484375 
Q 48.484375 72.75 52.59375 71.296875 
z
" id="DejaVuSans-54"/>
       <path d="M 37.796875 64.3125 
L 12.890625 25.390625 
L 37.796875 25.390625 
z
M 35.203125 72.90625 
L 47.609375 72.90625 
L 47.609375 25.390625 
L 58.015625 25.390625 
L 58.015625 17.1875 
L 47.609375 17.1875 
L 47.609375 0 
L 37.796875 0 
L 37.796875 17.1875 
L 4.890625 17.1875 
L 4.890625 26.703125 
z
" id="DejaVuSans-52"/>
       <path d="M 8.015625 75.875 
L 15.828125 75.875 
Q 23.140625 64.359375 26.78125 53.3125 
Q 30.421875 42.28125 30.421875 31.390625 
Q 30.421875 20.453125 26.78125 9.375 
Q 23.140625 -1.703125 15.828125 -13.1875 
L 8.015625 -13.1875 
Q 14.5 -2 17.703125 9.0625 
Q 20.90625 20.125 20.90625 31.390625 
Q 20.90625 42.671875 17.703125 53.65625 
Q 14.5 64.65625 8.015625 75.875 
z
" id="DejaVuSans-41"/>
      </defs>
      <use xlink:href="#DejaVuSans-99"/>
      <use x="54.980469" xlink:href="#DejaVuSans-111"/>
      <use x="116.162109" xlink:href="#DejaVuSans-118"/>
      <use x="175.341797" xlink:href="#DejaVuSans-105"/>
      <use x="203.125" xlink:href="#DejaVuSans-100"/>
      <use x="266.601562" xlink:href="#DejaVuSans-32"/>
      <use x="298.388672" xlink:href="#DejaVuSans-111"/>
      <use x="359.570312" xlink:href="#DejaVuSans-112"/>
      <use x="423.046875" xlink:href="#DejaVuSans-103"/>
      <use x="486.523438" xlink:href="#DejaVuSans-101"/>
      <use x="548.046875" xlink:href="#DejaVuSans-110"/>
      <use x="611.425781" xlink:href="#DejaVuSans-111"/>
      <use x="672.607422" xlink:href="#DejaVuSans-109"/>
      <use x="770.019531" xlink:href="#DejaVuSans-101"/>
      <use x="831.542969" xlink:href="#DejaVuSans-110"/>
      <use x="894.921875" xlink:href="#DejaVuSans-32"/>
      <use x="926.708984" xlink:href="#DejaVuSans-112"/>
      <use x="990.185547" xlink:href="#DejaVuSans-97"/>
      <use x="1051.464844" xlink:href="#DejaVuSans-116"/>
      <use x="1090.673828" xlink:href="#DejaVuSans-105"/>
      <use x="1118.457031" xlink:href="#DejaVuSans-235"/>
      <use x="1179.980469" xlink:href="#DejaVuSans-110"/>
      <use x="1243.359375" xlink:href="#DejaVuSans-116"/>
      <use x="1282.568359" xlink:href="#DejaVuSans-101"/>
      <use x="1344.091797" xlink:href="#DejaVuSans-110"/>
      <use x="1407.470703" xlink:href="#DejaVuSans-32"/>
      <use x="1439.257812" xlink:href="#DejaVuSans-78"/>
      <use x="1514.0625" xlink:href="#DejaVuSans-73"/>
      <use x="1543.554688" xlink:href="#DejaVuSans-67"/>
      <use x="1613.378906" xlink:href="#DejaVuSans-69"/>
      <use x="1676.5625" xlink:href="#DejaVuSans-32"/>
      <use x="1708.349609" xlink:href="#DejaVuSans-40"/>
      <use x="1747.363281" xlink:href="#DejaVuSans-110"/>
      <use x="1810.742188" xlink:href="#DejaVuSans-117"/>
      <use x="1874.121094" xlink:href="#DejaVuSans-32"/>
      <use x="1905.908203" xlink:href="#DejaVuSans-49"/>
      <use x="1969.53125" xlink:href="#DejaVuSans-54"/>
      <use x="2033.154297" xlink:href="#DejaVuSans-54"/>
      <use x="2096.777344" xlink:href="#DejaVuSans-52"/>
      <use x="2160.400391" xlink:href="#DejaVuSans-41"/>
     </g>
    </g>
    <g id="line2d_35">
     <path d="M 99 70.976562 
L 119 70.976562 
" style="fill:none;stroke:#ffa500;stroke-linecap:square;stroke-width:1.5;"/>
    </g>
    <g id="line2d_36"/>
    <g id="text_18">
     <!-- covid bezette bedden LCPS (nu 1782) -->
     <g transform="translate(127 74.476562)scale(0.1 -0.1)">
      <defs>
       <path d="M 48.6875 27.296875 
Q 48.6875 37.203125 44.609375 42.84375 
Q 40.53125 48.484375 33.40625 48.484375 
Q 26.265625 48.484375 22.1875 42.84375 
Q 18.109375 37.203125 18.109375 27.296875 
Q 18.109375 17.390625 22.1875 11.75 
Q 26.265625 6.109375 33.40625 6.109375 
Q 40.53125 6.109375 44.609375 11.75 
Q 48.6875 17.390625 48.6875 27.296875 
z
M 18.109375 46.390625 
Q 20.953125 51.265625 25.265625 53.625 
Q 29.59375 56 35.59375 56 
Q 45.5625 56 51.78125 48.09375 
Q 58.015625 40.1875 58.015625 27.296875 
Q 58.015625 14.40625 51.78125 6.484375 
Q 45.5625 -1.421875 35.59375 -1.421875 
Q 29.59375 -1.421875 25.265625 0.953125 
Q 20.953125 3.328125 18.109375 8.203125 
L 18.109375 0 
L 9.078125 0 
L 9.078125 75.984375 
L 18.109375 75.984375 
z
" id="DejaVuSans-98"/>
       <path d="M 5.515625 54.6875 
L 48.1875 54.6875 
L 48.1875 46.484375 
L 14.40625 7.171875 
L 48.1875 7.171875 
L 48.1875 0 
L 4.296875 0 
L 4.296875 8.203125 
L 38.09375 47.515625 
L 5.515625 47.515625 
z
" id="DejaVuSans-122"/>
       <path d="M 9.8125 72.90625 
L 19.671875 72.90625 
L 19.671875 8.296875 
L 55.171875 8.296875 
L 55.171875 0 
L 9.8125 0 
z
" id="DejaVuSans-76"/>
       <path d="M 19.671875 64.796875 
L 19.671875 37.40625 
L 32.078125 37.40625 
Q 38.96875 37.40625 42.71875 40.96875 
Q 46.484375 44.53125 46.484375 51.125 
Q 46.484375 57.671875 42.71875 61.234375 
Q 38.96875 64.796875 32.078125 64.796875 
z
M 9.8125 72.90625 
L 32.078125 72.90625 
Q 44.34375 72.90625 50.609375 67.359375 
Q 56.890625 61.8125 56.890625 51.125 
Q 56.890625 40.328125 50.609375 34.8125 
Q 44.34375 29.296875 32.078125 29.296875 
L 19.671875 29.296875 
L 19.671875 0 
L 9.8125 0 
z
" id="DejaVuSans-80"/>
       <path d="M 53.515625 70.515625 
L 53.515625 60.890625 
Q 47.90625 63.578125 42.921875 64.890625 
Q 37.9375 66.21875 33.296875 66.21875 
Q 25.25 66.21875 20.875 63.09375 
Q 16.5 59.96875 16.5 54.203125 
Q 16.5 49.359375 19.40625 46.890625 
Q 22.3125 44.4375 30.421875 42.921875 
L 36.375 41.703125 
Q 47.40625 39.59375 52.65625 34.296875 
Q 57.90625 29 57.90625 20.125 
Q 57.90625 9.515625 50.796875 4.046875 
Q 43.703125 -1.421875 29.984375 -1.421875 
Q 24.8125 -1.421875 18.96875 -0.25 
Q 13.140625 0.921875 6.890625 3.21875 
L 6.890625 13.375 
Q 12.890625 10.015625 18.65625 8.296875 
Q 24.421875 6.59375 29.984375 6.59375 
Q 38.421875 6.59375 43.015625 9.90625 
Q 47.609375 13.234375 47.609375 19.390625 
Q 47.609375 24.75 44.3125 27.78125 
Q 41.015625 30.8125 33.5 32.328125 
L 27.484375 33.5 
Q 16.453125 35.6875 11.515625 40.375 
Q 6.59375 45.0625 6.59375 53.421875 
Q 6.59375 63.09375 13.40625 68.65625 
Q 20.21875 74.21875 32.171875 74.21875 
Q 37.3125 74.21875 42.625 73.28125 
Q 47.953125 72.359375 53.515625 70.515625 
z
" id="DejaVuSans-83"/>
       <path d="M 31.78125 34.625 
Q 24.75 34.625 20.71875 30.859375 
Q 16.703125 27.09375 16.703125 20.515625 
Q 16.703125 13.921875 20.71875 10.15625 
Q 24.75 6.390625 31.78125 6.390625 
Q 38.8125 6.390625 42.859375 10.171875 
Q 46.921875 13.96875 46.921875 20.515625 
Q 46.921875 27.09375 42.890625 30.859375 
Q 38.875 34.625 31.78125 34.625 
z
M 21.921875 38.8125 
Q 15.578125 40.375 12.03125 44.71875 
Q 8.5 49.078125 8.5 55.328125 
Q 8.5 64.0625 14.71875 69.140625 
Q 20.953125 74.21875 31.78125 74.21875 
Q 42.671875 74.21875 48.875 69.140625 
Q 55.078125 64.0625 55.078125 55.328125 
Q 55.078125 49.078125 51.53125 44.71875 
Q 48 40.375 41.703125 38.8125 
Q 48.828125 37.15625 52.796875 32.3125 
Q 56.78125 27.484375 56.78125 20.515625 
Q 56.78125 9.90625 50.3125 4.234375 
Q 43.84375 -1.421875 31.78125 -1.421875 
Q 19.734375 -1.421875 13.25 4.234375 
Q 6.78125 9.90625 6.78125 20.515625 
Q 6.78125 27.484375 10.78125 32.3125 
Q 14.796875 37.15625 21.921875 38.8125 
z
M 18.3125 54.390625 
Q 18.3125 48.734375 21.84375 45.5625 
Q 25.390625 42.390625 31.78125 42.390625 
Q 38.140625 42.390625 41.71875 45.5625 
Q 45.3125 48.734375 45.3125 54.390625 
Q 45.3125 60.0625 41.71875 63.234375 
Q 38.140625 66.40625 31.78125 66.40625 
Q 25.390625 66.40625 21.84375 63.234375 
Q 18.3125 60.0625 18.3125 54.390625 
z
" id="DejaVuSans-56"/>
      </defs>
      <use xlink:href="#DejaVuSans-99"/>
      <use x="54.980469" xlink:href="#DejaVuSans-111"/>
      <use x="116.162109" xlink:href="#DejaVuSans-118"/>
      <use x="175.341797" xlink:href="#DejaVuSans-105"/>
      <use x="203.125" xlink:href="#DejaVuSans-100"/>
      <use x="266.601562" xlink:href="#DejaVuSans-32"/>
      <use x="298.388672" xlink:href="#DejaVuSans-98"/>
      <use x="361.865234" xlink:href="#DejaVuSans-101"/>
      <use x="423.388672" xlink:href="#DejaVuSans-122"/>
      <use x="475.878906" xlink:href="#DejaVuSans-101"/>
      <use x="537.402344" xlink:href="#DejaVuSans-116"/>
      <use x="576.611328" xlink:href="#DejaVuSans-116"/>
      <use x="615.820312" xlink:href="#DejaVuSans-101"/>
      <use x="677.34375" xlink:href="#DejaVuSans-32"/>
      <use x="709.130859" xlink:href="#DejaVuSans-98"/>
      <use x="772.607422" xlink:href="#DejaVuSans-101"/>
      <use x="834.130859" xlink:href="#DejaVuSans-100"/>
      <use x="897.607422" xlink:href="#DejaVuSans-100"/>
      <use x="961.083984" xlink:href="#DejaVuSans-101"/>
      <use x="1022.607422" xlink:href="#DejaVuSans-110"/>
      <use x="1085.986328" xlink:href="#DejaVuSans-32"/>
      <use x="1117.773438" xlink:href="#DejaVuSans-76"/>
      <use x="1173.486328" xlink:href="#DejaVuSans-67"/>
      <use x="1243.310547" xlink:href="#DejaVuSans-80"/>
      <use x="1303.613281" xlink:href="#DejaVuSans-83"/>
      <use x="1367.089844" xlink:href="#DejaVuSans-32"/>
      <use x="1398.876953" xlink:href="#DejaVuSans-40"/>
      <use x="1437.890625" xlink:href="#DejaVuSans-110"/>
      <use x="1501.269531" xlink:href="#DejaVuSans-117"/>
      <use x="1564.648438" xlink:href="#DejaVuSans-32"/>
      <use x="1596.435547" xlink:href="#DejaVuSans-49"/>
      <use x="1660.058594" xlink:href="#DejaVuSans-55"/>
      <use x="1723.681641" xlink:href="#DejaVuSans-56"/>
      <use x="1787.304688" xlink:href="#DejaVuSans-50"/>
      <use x="1850.927734" xlink:href="#DejaVuSans-41"/>
     </g>
    </g>
    <g id="line2d_37">
     <path d="M 99 85.654687 
L 119 85.654687 
" style="fill:none;stroke:#0000ff;stroke-linecap:square;stroke-width:1.5;"/>
    </g>
    <g id="line2d_38"/>
    <g id="text_19">
     <!-- non-covid bezette IC bedden LCPS (nu 429) -->
     <g transform="translate(127 89.154687)scale(0.1 -0.1)">
      <use xlink:href="#DejaVuSans-110"/>
      <use x="63.378906" xlink:href="#DejaVuSans-111"/>
      <use x="124.560547" xlink:href="#DejaVuSans-110"/>
      <use x="187.939453" xlink:href="#DejaVuSans-45"/>
      <use x="224.023438" xlink:href="#DejaVuSans-99"/>
      <use x="279.003906" xlink:href="#DejaVuSans-111"/>
      <use x="340.185547" xlink:href="#DejaVuSans-118"/>
      <use x="399.365234" xlink:href="#DejaVuSans-105"/>
      <use x="427.148438" xlink:href="#DejaVuSans-100"/>
      <use x="490.625" xlink:href="#DejaVuSans-32"/>
      <use x="522.412109" xlink:href="#DejaVuSans-98"/>
      <use x="585.888672" xlink:href="#DejaVuSans-101"/>
      <use x="647.412109" xlink:href="#DejaVuSans-122"/>
      <use x="699.902344" xlink:href="#DejaVuSans-101"/>
      <use x="761.425781" xlink:href="#DejaVuSans-116"/>
      <use x="800.634766" xlink:href="#DejaVuSans-116"/>
      <use x="839.84375" xlink:href="#DejaVuSans-101"/>
      <use x="901.367188" xlink:href="#DejaVuSans-32"/>
      <use x="933.154297" xlink:href="#DejaVuSans-73"/>
      <use x="962.646484" xlink:href="#DejaVuSans-67"/>
      <use x="1032.470703" xlink:href="#DejaVuSans-32"/>
      <use x="1064.257812" xlink:href="#DejaVuSans-98"/>
      <use x="1127.734375" xlink:href="#DejaVuSans-101"/>
      <use x="1189.257812" xlink:href="#DejaVuSans-100"/>
      <use x="1252.734375" xlink:href="#DejaVuSans-100"/>
      <use x="1316.210938" xlink:href="#DejaVuSans-101"/>
      <use x="1377.734375" xlink:href="#DejaVuSans-110"/>
      <use x="1441.113281" xlink:href="#DejaVuSans-32"/>
      <use x="1472.900391" xlink:href="#DejaVuSans-76"/>
      <use x="1528.613281" xlink:href="#DejaVuSans-67"/>
      <use x="1598.4375" xlink:href="#DejaVuSans-80"/>
      <use x="1658.740234" xlink:href="#DejaVuSans-83"/>
      <use x="1722.216797" xlink:href="#DejaVuSans-32"/>
      <use x="1754.003906" xlink:href="#DejaVuSans-40"/>
      <use x="1793.017578" xlink:href="#DejaVuSans-110"/>
      <use x="1856.396484" xlink:href="#DejaVuSans-117"/>
      <use x="1919.775391" xlink:href="#DejaVuSans-32"/>
      <use x="1951.5625" xlink:href="#DejaVuSans-52"/>
      <use x="2015.185547" xlink:href="#DejaVuSans-50"/>
      <use x="2078.808594" xlink:href="#DejaVuSans-57"/>
      <use x="2142.431641" xlink:href="#DejaVuSans-41"/>
     </g>
    </g>
    <g id="line2d_39">
     <path d="M 99 100.332812 
L 119 100.332812 
" style="fill:none;stroke:#00ffff;stroke-linecap:square;stroke-width:1.5;"/>
    </g>
    <g id="line2d_40"/>
    <g id="text_20">
     <!-- covid bezette IC bedden LCPS (nu 776) -->
     <g transform="translate(127 103.832812)scale(0.1 -0.1)">
      <use xlink:href="#DejaVuSans-99"/>
      <use x="54.980469" xlink:href="#DejaVuSans-111"/>
      <use x="116.162109" xlink:href="#DejaVuSans-118"/>
      <use x="175.341797" xlink:href="#DejaVuSans-105"/>
      <use x="203.125" xlink:href="#DejaVuSans-100"/>
      <use x="266.601562" xlink:href="#DejaVuSans-32"/>
      <use x="298.388672" xlink:href="#DejaVuSans-98"/>
      <use x="361.865234" xlink:href="#DejaVuSans-101"/>
      <use x="423.388672" xlink:href="#DejaVuSans-122"/>
      <use x="475.878906" xlink:href="#DejaVuSans-101"/>
      <use x="537.402344" xlink:href="#DejaVuSans-116"/>
      <use x="576.611328" xlink:href="#DejaVuSans-116"/>
      <use x="615.820312" xlink:href="#DejaVuSans-101"/>
      <use x="677.34375" xlink:href="#DejaVuSans-32"/>
      <use x="709.130859" xlink:href="#DejaVuSans-73"/>
      <use x="738.623047" xlink:href="#DejaVuSans-67"/>
      <use x="808.447266" xlink:href="#DejaVuSans-32"/>
      <use x="840.234375" xlink:href="#DejaVuSans-98"/>
      <use x="903.710938" xlink:href="#DejaVuSans-101"/>
      <use x="965.234375" xlink:href="#DejaVuSans-100"/>
      <use x="1028.710938" xlink:href="#DejaVuSans-100"/>
      <use x="1092.1875" xlink:href="#DejaVuSans-101"/>
      <use x="1153.710938" xlink:href="#DejaVuSans-110"/>
      <use x="1217.089844" xlink:href="#DejaVuSans-32"/>
      <use x="1248.876953" xlink:href="#DejaVuSans-76"/>
      <use x="1304.589844" xlink:href="#DejaVuSans-67"/>
      <use x="1374.414062" xlink:href="#DejaVuSans-80"/>
      <use x="1434.716797" xlink:href="#DejaVuSans-83"/>
      <use x="1498.193359" xlink:href="#DejaVuSans-32"/>
      <use x="1529.980469" xlink:href="#DejaVuSans-40"/>
      <use x="1568.994141" xlink:href="#DejaVuSans-110"/>
      <use x="1632.373047" xlink:href="#DejaVuSans-117"/>
      <use x="1695.751953" xlink:href="#DejaVuSans-32"/>
      <use x="1727.539062" xlink:href="#DejaVuSans-55"/>
      <use x="1791.162109" xlink:href="#DejaVuSans-55"/>
      <use x="1854.785156" xlink:href="#DejaVuSans-54"/>
      <use x="1918.408203" xlink:href="#DejaVuSans-41"/>
     </g>
    </g>
   </g>
  </g>
 </g>
 <defs>
  <clipPath id="p85f09c4899">
   <rect height="277.2" width="558" x="90" y="43.2"/>
  </clipPath>
 </defs>
</svg>
