<?xml version="1.0" encoding="utf-8" standalone="no"?>
<!DOCTYPE svg PUBLIC "-//W3C//DTD SVG 1.1//EN"
  "http://www.w3.org/Graphics/SVG/1.1/DTD/svg11.dtd">
<!-- Created with matplotlib (https://matplotlib.org/) -->
<svg height="360pt" version="1.1" viewBox="0 0 720 360" width="720pt" xmlns="http://www.w3.org/2000/svg" xmlns:xlink="http://www.w3.org/1999/xlink">
 <metadata>
  <rdf:RDF xmlns:cc="http://creativecommons.org/ns#" xmlns:dc="http://purl.org/dc/elements/1.1/" xmlns:rdf="http://www.w3.org/1999/02/22-rdf-syntax-ns#">
   <cc:Work>
    <dc:type rdf:resource="http://purl.org/dc/dcmitype/StillImage"/>
    <dc:date>2021-08-25T17:40:58.674947</dc:date>
    <dc:format>image/svg+xml</dc:format>
    <dc:creator>
     <cc:Agent>
      <dc:title>Matplotlib v3.3.2, https://matplotlib.org/</dc:title>
     </cc:Agent>
    </dc:creator>
   </cc:Work>
  </rdf:RDF>
 </metadata>
 <defs>
  <style type="text/css">*{stroke-linecap:butt;stroke-linejoin:round;}</style>
 </defs>
 <g id="figure_1">
  <g id="patch_1">
   <path d="M 0 360 
L 720 360 
L 720 0 
L 0 0 
z
" style="fill:#ffffff;"/>
  </g>
  <g id="axes_1">
   <g id="patch_2">
    <path d="M 90 320.4 
L 648 320.4 
L 648 43.2 
L 90 43.2 
z
" style="fill:#ffffff;"/>
   </g>
   <g id="matplotlib.axis_1">
    <g id="xtick_1">
     <g id="line2d_1">
      <path clip-path="url(#pdb762066b8)" d="M 118.155963 320.4 
L 118.155963 43.2 
" style="fill:none;stroke:#808080;stroke-dasharray:6.4,1.6,1,1.6;stroke-dashoffset:0;stroke-opacity:0.3;"/>
     </g>
     <g id="line2d_2">
      <defs>
       <path d="M 0 0 
L 0 3.5 
" id="m689c3fbbab" style="stroke:#000000;stroke-width:0.8;"/>
      </defs>
      <g>
       <use style="stroke:#000000;stroke-width:0.8;" x="118.155963" xlink:href="#m689c3fbbab" y="320.4"/>
      </g>
     </g>
     <g id="text_1">
      <!-- 2020-03 -->
      <g transform="translate(97.264557 334.998438)scale(0.1 -0.1)">
       <defs>
        <path d="M 19.1875 8.296875 
L 53.609375 8.296875 
L 53.609375 0 
L 7.328125 0 
L 7.328125 8.296875 
Q 12.9375 14.109375 22.625 23.890625 
Q 32.328125 33.6875 34.8125 36.53125 
Q 39.546875 41.84375 41.421875 45.53125 
Q 43.3125 49.21875 43.3125 52.78125 
Q 43.3125 58.59375 39.234375 62.25 
Q 35.15625 65.921875 28.609375 65.921875 
Q 23.96875 65.921875 18.8125 64.3125 
Q 13.671875 62.703125 7.8125 59.421875 
L 7.8125 69.390625 
Q 13.765625 71.78125 18.9375 73 
Q 24.125 74.21875 28.421875 74.21875 
Q 39.75 74.21875 46.484375 68.546875 
Q 53.21875 62.890625 53.21875 53.421875 
Q 53.21875 48.921875 51.53125 44.890625 
Q 49.859375 40.875 45.40625 35.40625 
Q 44.1875 33.984375 37.640625 27.21875 
Q 31.109375 20.453125 19.1875 8.296875 
z
" id="DejaVuSans-50"/>
        <path d="M 31.78125 66.40625 
Q 24.171875 66.40625 20.328125 58.90625 
Q 16.5 51.421875 16.5 36.375 
Q 16.5 21.390625 20.328125 13.890625 
Q 24.171875 6.390625 31.78125 6.390625 
Q 39.453125 6.390625 43.28125 13.890625 
Q 47.125 21.390625 47.125 36.375 
Q 47.125 51.421875 43.28125 58.90625 
Q 39.453125 66.40625 31.78125 66.40625 
z
M 31.78125 74.21875 
Q 44.046875 74.21875 50.515625 64.515625 
Q 56.984375 54.828125 56.984375 36.375 
Q 56.984375 17.96875 50.515625 8.265625 
Q 44.046875 -1.421875 31.78125 -1.421875 
Q 19.53125 -1.421875 13.0625 8.265625 
Q 6.59375 17.96875 6.59375 36.375 
Q 6.59375 54.828125 13.0625 64.515625 
Q 19.53125 74.21875 31.78125 74.21875 
z
" id="DejaVuSans-48"/>
        <path d="M 4.890625 31.390625 
L 31.203125 31.390625 
L 31.203125 23.390625 
L 4.890625 23.390625 
z
" id="DejaVuSans-45"/>
        <path d="M 40.578125 39.3125 
Q 47.65625 37.796875 51.625 33 
Q 55.609375 28.21875 55.609375 21.1875 
Q 55.609375 10.40625 48.1875 4.484375 
Q 40.765625 -1.421875 27.09375 -1.421875 
Q 22.515625 -1.421875 17.65625 -0.515625 
Q 12.796875 0.390625 7.625 2.203125 
L 7.625 11.71875 
Q 11.71875 9.328125 16.59375 8.109375 
Q 21.484375 6.890625 26.8125 6.890625 
Q 36.078125 6.890625 40.9375 10.546875 
Q 45.796875 14.203125 45.796875 21.1875 
Q 45.796875 27.640625 41.28125 31.265625 
Q 36.765625 34.90625 28.71875 34.90625 
L 20.21875 34.90625 
L 20.21875 43.015625 
L 29.109375 43.015625 
Q 36.375 43.015625 40.234375 45.921875 
Q 44.09375 48.828125 44.09375 54.296875 
Q 44.09375 59.90625 40.109375 62.90625 
Q 36.140625 65.921875 28.71875 65.921875 
Q 24.65625 65.921875 20.015625 65.03125 
Q 15.375 64.15625 9.8125 62.3125 
L 9.8125 71.09375 
Q 15.4375 72.65625 20.34375 73.4375 
Q 25.25 74.21875 29.59375 74.21875 
Q 40.828125 74.21875 47.359375 69.109375 
Q 53.90625 64.015625 53.90625 55.328125 
Q 53.90625 49.265625 50.4375 45.09375 
Q 46.96875 40.921875 40.578125 39.3125 
z
" id="DejaVuSans-51"/>
       </defs>
       <use xlink:href="#DejaVuSans-50"/>
       <use x="63.623047" xlink:href="#DejaVuSans-48"/>
       <use x="127.246094" xlink:href="#DejaVuSans-50"/>
       <use x="190.869141" xlink:href="#DejaVuSans-48"/>
       <use x="254.492188" xlink:href="#DejaVuSans-45"/>
       <use x="290.576172" xlink:href="#DejaVuSans-48"/>
       <use x="354.199219" xlink:href="#DejaVuSans-51"/>
      </g>
     </g>
    </g>
    <g id="xtick_2">
     <g id="line2d_3">
      <path clip-path="url(#pdb762066b8)" d="M 174.933278 320.4 
L 174.933278 43.2 
" style="fill:none;stroke:#808080;stroke-dasharray:6.4,1.6,1,1.6;stroke-dashoffset:0;stroke-opacity:0.3;"/>
     </g>
     <g id="line2d_4">
      <g>
       <use style="stroke:#000000;stroke-width:0.8;" x="174.933278" xlink:href="#m689c3fbbab" y="320.4"/>
      </g>
     </g>
     <g id="text_2">
      <!-- 2020-05 -->
      <g transform="translate(154.041871 334.998438)scale(0.1 -0.1)">
       <defs>
        <path d="M 10.796875 72.90625 
L 49.515625 72.90625 
L 49.515625 64.59375 
L 19.828125 64.59375 
L 19.828125 46.734375 
Q 21.96875 47.46875 24.109375 47.828125 
Q 26.265625 48.1875 28.421875 48.1875 
Q 40.625 48.1875 47.75 41.5 
Q 54.890625 34.8125 54.890625 23.390625 
Q 54.890625 11.625 47.5625 5.09375 
Q 40.234375 -1.421875 26.90625 -1.421875 
Q 22.3125 -1.421875 17.546875 -0.640625 
Q 12.796875 0.140625 7.71875 1.703125 
L 7.71875 11.625 
Q 12.109375 9.234375 16.796875 8.0625 
Q 21.484375 6.890625 26.703125 6.890625 
Q 35.15625 6.890625 40.078125 11.328125 
Q 45.015625 15.765625 45.015625 23.390625 
Q 45.015625 31 40.078125 35.4375 
Q 35.15625 39.890625 26.703125 39.890625 
Q 22.75 39.890625 18.8125 39.015625 
Q 14.890625 38.140625 10.796875 36.28125 
z
" id="DejaVuSans-53"/>
       </defs>
       <use xlink:href="#DejaVuSans-50"/>
       <use x="63.623047" xlink:href="#DejaVuSans-48"/>
       <use x="127.246094" xlink:href="#DejaVuSans-50"/>
       <use x="190.869141" xlink:href="#DejaVuSans-48"/>
       <use x="254.492188" xlink:href="#DejaVuSans-45"/>
       <use x="290.576172" xlink:href="#DejaVuSans-48"/>
       <use x="354.199219" xlink:href="#DejaVuSans-53"/>
      </g>
     </g>
    </g>
    <g id="xtick_3">
     <g id="line2d_5">
      <path clip-path="url(#pdb762066b8)" d="M 231.710592 320.4 
L 231.710592 43.2 
" style="fill:none;stroke:#808080;stroke-dasharray:6.4,1.6,1,1.6;stroke-dashoffset:0;stroke-opacity:0.3;"/>
     </g>
     <g id="line2d_6">
      <g>
       <use style="stroke:#000000;stroke-width:0.8;" x="231.710592" xlink:href="#m689c3fbbab" y="320.4"/>
      </g>
     </g>
     <g id="text_3">
      <!-- 2020-07 -->
      <g transform="translate(210.819186 334.998438)scale(0.1 -0.1)">
       <defs>
        <path d="M 8.203125 72.90625 
L 55.078125 72.90625 
L 55.078125 68.703125 
L 28.609375 0 
L 18.3125 0 
L 43.21875 64.59375 
L 8.203125 64.59375 
z
" id="DejaVuSans-55"/>
       </defs>
       <use xlink:href="#DejaVuSans-50"/>
       <use x="63.623047" xlink:href="#DejaVuSans-48"/>
       <use x="127.246094" xlink:href="#DejaVuSans-50"/>
       <use x="190.869141" xlink:href="#DejaVuSans-48"/>
       <use x="254.492188" xlink:href="#DejaVuSans-45"/>
       <use x="290.576172" xlink:href="#DejaVuSans-48"/>
       <use x="354.199219" xlink:href="#DejaVuSans-55"/>
      </g>
     </g>
    </g>
    <g id="xtick_4">
     <g id="line2d_7">
      <path clip-path="url(#pdb762066b8)" d="M 289.418682 320.4 
L 289.418682 43.2 
" style="fill:none;stroke:#808080;stroke-dasharray:6.4,1.6,1,1.6;stroke-dashoffset:0;stroke-opacity:0.3;"/>
     </g>
     <g id="line2d_8">
      <g>
       <use style="stroke:#000000;stroke-width:0.8;" x="289.418682" xlink:href="#m689c3fbbab" y="320.4"/>
      </g>
     </g>
     <g id="text_4">
      <!-- 2020-09 -->
      <g transform="translate(268.527276 334.998438)scale(0.1 -0.1)">
       <defs>
        <path d="M 10.984375 1.515625 
L 10.984375 10.5 
Q 14.703125 8.734375 18.5 7.8125 
Q 22.3125 6.890625 25.984375 6.890625 
Q 35.75 6.890625 40.890625 13.453125 
Q 46.046875 20.015625 46.78125 33.40625 
Q 43.953125 29.203125 39.59375 26.953125 
Q 35.25 24.703125 29.984375 24.703125 
Q 19.046875 24.703125 12.671875 31.3125 
Q 6.296875 37.9375 6.296875 49.421875 
Q 6.296875 60.640625 12.9375 67.421875 
Q 19.578125 74.21875 30.609375 74.21875 
Q 43.265625 74.21875 49.921875 64.515625 
Q 56.59375 54.828125 56.59375 36.375 
Q 56.59375 19.140625 48.40625 8.859375 
Q 40.234375 -1.421875 26.421875 -1.421875 
Q 22.703125 -1.421875 18.890625 -0.6875 
Q 15.09375 0.046875 10.984375 1.515625 
z
M 30.609375 32.421875 
Q 37.25 32.421875 41.125 36.953125 
Q 45.015625 41.5 45.015625 49.421875 
Q 45.015625 57.28125 41.125 61.84375 
Q 37.25 66.40625 30.609375 66.40625 
Q 23.96875 66.40625 20.09375 61.84375 
Q 16.21875 57.28125 16.21875 49.421875 
Q 16.21875 41.5 20.09375 36.953125 
Q 23.96875 32.421875 30.609375 32.421875 
z
" id="DejaVuSans-57"/>
       </defs>
       <use xlink:href="#DejaVuSans-50"/>
       <use x="63.623047" xlink:href="#DejaVuSans-48"/>
       <use x="127.246094" xlink:href="#DejaVuSans-50"/>
       <use x="190.869141" xlink:href="#DejaVuSans-48"/>
       <use x="254.492188" xlink:href="#DejaVuSans-45"/>
       <use x="290.576172" xlink:href="#DejaVuSans-48"/>
       <use x="354.199219" xlink:href="#DejaVuSans-57"/>
      </g>
     </g>
    </g>
    <g id="xtick_5">
     <g id="line2d_9">
      <path clip-path="url(#pdb762066b8)" d="M 346.195997 320.4 
L 346.195997 43.2 
" style="fill:none;stroke:#808080;stroke-dasharray:6.4,1.6,1,1.6;stroke-dashoffset:0;stroke-opacity:0.3;"/>
     </g>
     <g id="line2d_10">
      <g>
       <use style="stroke:#000000;stroke-width:0.8;" x="346.195997" xlink:href="#m689c3fbbab" y="320.4"/>
      </g>
     </g>
     <g id="text_5">
      <!-- 2020-11 -->
      <g transform="translate(325.30459 334.998438)scale(0.1 -0.1)">
       <defs>
        <path d="M 12.40625 8.296875 
L 28.515625 8.296875 
L 28.515625 63.921875 
L 10.984375 60.40625 
L 10.984375 69.390625 
L 28.421875 72.90625 
L 38.28125 72.90625 
L 38.28125 8.296875 
L 54.390625 8.296875 
L 54.390625 0 
L 12.40625 0 
z
" id="DejaVuSans-49"/>
       </defs>
       <use xlink:href="#DejaVuSans-50"/>
       <use x="63.623047" xlink:href="#DejaVuSans-48"/>
       <use x="127.246094" xlink:href="#DejaVuSans-50"/>
       <use x="190.869141" xlink:href="#DejaVuSans-48"/>
       <use x="254.492188" xlink:href="#DejaVuSans-45"/>
       <use x="290.576172" xlink:href="#DejaVuSans-49"/>
       <use x="354.199219" xlink:href="#DejaVuSans-49"/>
      </g>
     </g>
    </g>
    <g id="xtick_6">
     <g id="line2d_11">
      <path clip-path="url(#pdb762066b8)" d="M 402.973311 320.4 
L 402.973311 43.2 
" style="fill:none;stroke:#808080;stroke-dasharray:6.4,1.6,1,1.6;stroke-dashoffset:0;stroke-opacity:0.3;"/>
     </g>
     <g id="line2d_12">
      <g>
       <use style="stroke:#000000;stroke-width:0.8;" x="402.973311" xlink:href="#m689c3fbbab" y="320.4"/>
      </g>
     </g>
     <g id="text_6">
      <!-- 2021-01 -->
      <g transform="translate(382.081905 334.998438)scale(0.1 -0.1)">
       <use xlink:href="#DejaVuSans-50"/>
       <use x="63.623047" xlink:href="#DejaVuSans-48"/>
       <use x="127.246094" xlink:href="#DejaVuSans-50"/>
       <use x="190.869141" xlink:href="#DejaVuSans-49"/>
       <use x="254.492188" xlink:href="#DejaVuSans-45"/>
       <use x="290.576172" xlink:href="#DejaVuSans-48"/>
       <use x="354.199219" xlink:href="#DejaVuSans-49"/>
      </g>
     </g>
    </g>
    <g id="xtick_7">
     <g id="line2d_13">
      <path clip-path="url(#pdb762066b8)" d="M 457.889074 320.4 
L 457.889074 43.2 
" style="fill:none;stroke:#808080;stroke-dasharray:6.4,1.6,1,1.6;stroke-dashoffset:0;stroke-opacity:0.3;"/>
     </g>
     <g id="line2d_14">
      <g>
       <use style="stroke:#000000;stroke-width:0.8;" x="457.889074" xlink:href="#m689c3fbbab" y="320.4"/>
      </g>
     </g>
     <g id="text_7">
      <!-- 2021-03 -->
      <g transform="translate(436.997668 334.998438)scale(0.1 -0.1)">
       <use xlink:href="#DejaVuSans-50"/>
       <use x="63.623047" xlink:href="#DejaVuSans-48"/>
       <use x="127.246094" xlink:href="#DejaVuSans-50"/>
       <use x="190.869141" xlink:href="#DejaVuSans-49"/>
       <use x="254.492188" xlink:href="#DejaVuSans-45"/>
       <use x="290.576172" xlink:href="#DejaVuSans-48"/>
       <use x="354.199219" xlink:href="#DejaVuSans-51"/>
      </g>
     </g>
    </g>
    <g id="xtick_8">
     <g id="line2d_15">
      <path clip-path="url(#pdb762066b8)" d="M 514.666389 320.4 
L 514.666389 43.2 
" style="fill:none;stroke:#808080;stroke-dasharray:6.4,1.6,1,1.6;stroke-dashoffset:0;stroke-opacity:0.3;"/>
     </g>
     <g id="line2d_16">
      <g>
       <use style="stroke:#000000;stroke-width:0.8;" x="514.666389" xlink:href="#m689c3fbbab" y="320.4"/>
      </g>
     </g>
     <g id="text_8">
      <!-- 2021-05 -->
      <g transform="translate(493.774982 334.998438)scale(0.1 -0.1)">
       <use xlink:href="#DejaVuSans-50"/>
       <use x="63.623047" xlink:href="#DejaVuSans-48"/>
       <use x="127.246094" xlink:href="#DejaVuSans-50"/>
       <use x="190.869141" xlink:href="#DejaVuSans-49"/>
       <use x="254.492188" xlink:href="#DejaVuSans-45"/>
       <use x="290.576172" xlink:href="#DejaVuSans-48"/>
       <use x="354.199219" xlink:href="#DejaVuSans-53"/>
      </g>
     </g>
    </g>
    <g id="xtick_9">
     <g id="line2d_17">
      <path clip-path="url(#pdb762066b8)" d="M 571.443703 320.4 
L 571.443703 43.2 
" style="fill:none;stroke:#808080;stroke-dasharray:6.4,1.6,1,1.6;stroke-dashoffset:0;stroke-opacity:0.3;"/>
     </g>
     <g id="line2d_18">
      <g>
       <use style="stroke:#000000;stroke-width:0.8;" x="571.443703" xlink:href="#m689c3fbbab" y="320.4"/>
      </g>
     </g>
     <g id="text_9">
      <!-- 2021-07 -->
      <g transform="translate(550.552297 334.998438)scale(0.1 -0.1)">
       <use xlink:href="#DejaVuSans-50"/>
       <use x="63.623047" xlink:href="#DejaVuSans-48"/>
       <use x="127.246094" xlink:href="#DejaVuSans-50"/>
       <use x="190.869141" xlink:href="#DejaVuSans-49"/>
       <use x="254.492188" xlink:href="#DejaVuSans-45"/>
       <use x="290.576172" xlink:href="#DejaVuSans-48"/>
       <use x="354.199219" xlink:href="#DejaVuSans-55"/>
      </g>
     </g>
    </g>
    <g id="xtick_10">
     <g id="line2d_19">
      <path clip-path="url(#pdb762066b8)" d="M 629.151793 320.4 
L 629.151793 43.2 
" style="fill:none;stroke:#808080;stroke-dasharray:6.4,1.6,1,1.6;stroke-dashoffset:0;stroke-opacity:0.3;"/>
     </g>
     <g id="line2d_20">
      <g>
       <use style="stroke:#000000;stroke-width:0.8;" x="629.151793" xlink:href="#m689c3fbbab" y="320.4"/>
      </g>
     </g>
     <g id="text_10">
      <!-- 2021-09 -->
      <g transform="translate(608.260387 334.998438)scale(0.1 -0.1)">
       <use xlink:href="#DejaVuSans-50"/>
       <use x="63.623047" xlink:href="#DejaVuSans-48"/>
       <use x="127.246094" xlink:href="#DejaVuSans-50"/>
       <use x="190.869141" xlink:href="#DejaVuSans-49"/>
       <use x="254.492188" xlink:href="#DejaVuSans-45"/>
       <use x="290.576172" xlink:href="#DejaVuSans-48"/>
       <use x="354.199219" xlink:href="#DejaVuSans-57"/>
      </g>
     </g>
    </g>
    <g id="text_11">
     <!-- Datum -->
     <g transform="translate(352.086719 348.676562)scale(0.1 -0.1)">
      <defs>
       <path d="M 19.671875 64.796875 
L 19.671875 8.109375 
L 31.59375 8.109375 
Q 46.6875 8.109375 53.6875 14.9375 
Q 60.6875 21.78125 60.6875 36.53125 
Q 60.6875 51.171875 53.6875 57.984375 
Q 46.6875 64.796875 31.59375 64.796875 
z
M 9.8125 72.90625 
L 30.078125 72.90625 
Q 51.265625 72.90625 61.171875 64.09375 
Q 71.09375 55.28125 71.09375 36.53125 
Q 71.09375 17.671875 61.125 8.828125 
Q 51.171875 0 30.078125 0 
L 9.8125 0 
z
" id="DejaVuSans-68"/>
       <path d="M 34.28125 27.484375 
Q 23.390625 27.484375 19.1875 25 
Q 14.984375 22.515625 14.984375 16.5 
Q 14.984375 11.71875 18.140625 8.90625 
Q 21.296875 6.109375 26.703125 6.109375 
Q 34.1875 6.109375 38.703125 11.40625 
Q 43.21875 16.703125 43.21875 25.484375 
L 43.21875 27.484375 
z
M 52.203125 31.203125 
L 52.203125 0 
L 43.21875 0 
L 43.21875 8.296875 
Q 40.140625 3.328125 35.546875 0.953125 
Q 30.953125 -1.421875 24.3125 -1.421875 
Q 15.921875 -1.421875 10.953125 3.296875 
Q 6 8.015625 6 15.921875 
Q 6 25.140625 12.171875 29.828125 
Q 18.359375 34.515625 30.609375 34.515625 
L 43.21875 34.515625 
L 43.21875 35.40625 
Q 43.21875 41.609375 39.140625 45 
Q 35.0625 48.390625 27.6875 48.390625 
Q 23 48.390625 18.546875 47.265625 
Q 14.109375 46.140625 10.015625 43.890625 
L 10.015625 52.203125 
Q 14.9375 54.109375 19.578125 55.046875 
Q 24.21875 56 28.609375 56 
Q 40.484375 56 46.34375 49.84375 
Q 52.203125 43.703125 52.203125 31.203125 
z
" id="DejaVuSans-97"/>
       <path d="M 18.3125 70.21875 
L 18.3125 54.6875 
L 36.8125 54.6875 
L 36.8125 47.703125 
L 18.3125 47.703125 
L 18.3125 18.015625 
Q 18.3125 11.328125 20.140625 9.421875 
Q 21.96875 7.515625 27.59375 7.515625 
L 36.8125 7.515625 
L 36.8125 0 
L 27.59375 0 
Q 17.1875 0 13.234375 3.875 
Q 9.28125 7.765625 9.28125 18.015625 
L 9.28125 47.703125 
L 2.6875 47.703125 
L 2.6875 54.6875 
L 9.28125 54.6875 
L 9.28125 70.21875 
z
" id="DejaVuSans-116"/>
       <path d="M 8.5 21.578125 
L 8.5 54.6875 
L 17.484375 54.6875 
L 17.484375 21.921875 
Q 17.484375 14.15625 20.5 10.265625 
Q 23.53125 6.390625 29.59375 6.390625 
Q 36.859375 6.390625 41.078125 11.03125 
Q 45.3125 15.671875 45.3125 23.6875 
L 45.3125 54.6875 
L 54.296875 54.6875 
L 54.296875 0 
L 45.3125 0 
L 45.3125 8.40625 
Q 42.046875 3.421875 37.71875 1 
Q 33.40625 -1.421875 27.6875 -1.421875 
Q 18.265625 -1.421875 13.375 4.4375 
Q 8.5 10.296875 8.5 21.578125 
z
M 31.109375 56 
z
" id="DejaVuSans-117"/>
       <path d="M 52 44.1875 
Q 55.375 50.25 60.0625 53.125 
Q 64.75 56 71.09375 56 
Q 79.640625 56 84.28125 50.015625 
Q 88.921875 44.046875 88.921875 33.015625 
L 88.921875 0 
L 79.890625 0 
L 79.890625 32.71875 
Q 79.890625 40.578125 77.09375 44.375 
Q 74.3125 48.1875 68.609375 48.1875 
Q 61.625 48.1875 57.5625 43.546875 
Q 53.515625 38.921875 53.515625 30.90625 
L 53.515625 0 
L 44.484375 0 
L 44.484375 32.71875 
Q 44.484375 40.625 41.703125 44.40625 
Q 38.921875 48.1875 33.109375 48.1875 
Q 26.21875 48.1875 22.15625 43.53125 
Q 18.109375 38.875 18.109375 30.90625 
L 18.109375 0 
L 9.078125 0 
L 9.078125 54.6875 
L 18.109375 54.6875 
L 18.109375 46.1875 
Q 21.1875 51.21875 25.484375 53.609375 
Q 29.78125 56 35.6875 56 
Q 41.65625 56 45.828125 52.96875 
Q 50 49.953125 52 44.1875 
z
" id="DejaVuSans-109"/>
      </defs>
      <use xlink:href="#DejaVuSans-68"/>
      <use x="77.001953" xlink:href="#DejaVuSans-97"/>
      <use x="138.28125" xlink:href="#DejaVuSans-116"/>
      <use x="177.490234" xlink:href="#DejaVuSans-117"/>
      <use x="240.869141" xlink:href="#DejaVuSans-109"/>
     </g>
    </g>
   </g>
   <g id="matplotlib.axis_2">
    <g id="ytick_1">
     <g id="line2d_21">
      <path clip-path="url(#pdb762066b8)" d="M 90 307.876759 
L 648 307.876759 
" style="fill:none;stroke:#808080;stroke-dasharray:6.4,1.6,1,1.6;stroke-dashoffset:0;stroke-opacity:0.3;"/>
     </g>
     <g id="line2d_22">
      <defs>
       <path d="M 0 0 
L -3.5 0 
" id="m25c5b61d23" style="stroke:#000000;stroke-width:0.8;"/>
      </defs>
      <g>
       <use style="stroke:#000000;stroke-width:0.8;" x="90" xlink:href="#m25c5b61d23" y="307.876759"/>
      </g>
     </g>
     <g id="text_12">
      <!-- 0 -->
      <g transform="translate(76.6375 311.675978)scale(0.1 -0.1)">
       <use xlink:href="#DejaVuSans-48"/>
      </g>
     </g>
    </g>
    <g id="ytick_2">
     <g id="line2d_23">
      <path clip-path="url(#pdb762066b8)" d="M 90 269.497228 
L 648 269.497228 
" style="fill:none;stroke:#808080;stroke-dasharray:6.4,1.6,1,1.6;stroke-dashoffset:0;stroke-opacity:0.3;"/>
     </g>
     <g id="line2d_24">
      <g>
       <use style="stroke:#000000;stroke-width:0.8;" x="90" xlink:href="#m25c5b61d23" y="269.497228"/>
      </g>
     </g>
     <g id="text_13">
      <!-- 500 -->
      <g transform="translate(63.9125 273.296447)scale(0.1 -0.1)">
       <use xlink:href="#DejaVuSans-53"/>
       <use x="63.623047" xlink:href="#DejaVuSans-48"/>
       <use x="127.246094" xlink:href="#DejaVuSans-48"/>
      </g>
     </g>
    </g>
    <g id="ytick_3">
     <g id="line2d_25">
      <path clip-path="url(#pdb762066b8)" d="M 90 231.117697 
L 648 231.117697 
" style="fill:none;stroke:#808080;stroke-dasharray:6.4,1.6,1,1.6;stroke-dashoffset:0;stroke-opacity:0.3;"/>
     </g>
     <g id="line2d_26">
      <g>
       <use style="stroke:#000000;stroke-width:0.8;" x="90" xlink:href="#m25c5b61d23" y="231.117697"/>
      </g>
     </g>
     <g id="text_14">
      <!-- 1000 -->
      <g transform="translate(57.55 234.916916)scale(0.1 -0.1)">
       <use xlink:href="#DejaVuSans-49"/>
       <use x="63.623047" xlink:href="#DejaVuSans-48"/>
       <use x="127.246094" xlink:href="#DejaVuSans-48"/>
       <use x="190.869141" xlink:href="#DejaVuSans-48"/>
      </g>
     </g>
    </g>
    <g id="ytick_4">
     <g id="line2d_27">
      <path clip-path="url(#pdb762066b8)" d="M 90 192.738166 
L 648 192.738166 
" style="fill:none;stroke:#808080;stroke-dasharray:6.4,1.6,1,1.6;stroke-dashoffset:0;stroke-opacity:0.3;"/>
     </g>
     <g id="line2d_28">
      <g>
       <use style="stroke:#000000;stroke-width:0.8;" x="90" xlink:href="#m25c5b61d23" y="192.738166"/>
      </g>
     </g>
     <g id="text_15">
      <!-- 1500 -->
      <g transform="translate(57.55 196.537385)scale(0.1 -0.1)">
       <use xlink:href="#DejaVuSans-49"/>
       <use x="63.623047" xlink:href="#DejaVuSans-53"/>
       <use x="127.246094" xlink:href="#DejaVuSans-48"/>
       <use x="190.869141" xlink:href="#DejaVuSans-48"/>
      </g>
     </g>
    </g>
    <g id="ytick_5">
     <g id="line2d_29">
      <path clip-path="url(#pdb762066b8)" d="M 90 154.358635 
L 648 154.358635 
" style="fill:none;stroke:#808080;stroke-dasharray:6.4,1.6,1,1.6;stroke-dashoffset:0;stroke-opacity:0.3;"/>
     </g>
     <g id="line2d_30">
      <g>
       <use style="stroke:#000000;stroke-width:0.8;" x="90" xlink:href="#m25c5b61d23" y="154.358635"/>
      </g>
     </g>
     <g id="text_16">
      <!-- 2000 -->
      <g transform="translate(57.55 158.157854)scale(0.1 -0.1)">
       <use xlink:href="#DejaVuSans-50"/>
       <use x="63.623047" xlink:href="#DejaVuSans-48"/>
       <use x="127.246094" xlink:href="#DejaVuSans-48"/>
       <use x="190.869141" xlink:href="#DejaVuSans-48"/>
      </g>
     </g>
    </g>
    <g id="ytick_6">
     <g id="line2d_31">
      <path clip-path="url(#pdb762066b8)" d="M 90 115.979104 
L 648 115.979104 
" style="fill:none;stroke:#808080;stroke-dasharray:6.4,1.6,1,1.6;stroke-dashoffset:0;stroke-opacity:0.3;"/>
     </g>
     <g id="line2d_32">
      <g>
       <use style="stroke:#000000;stroke-width:0.8;" x="90" xlink:href="#m25c5b61d23" y="115.979104"/>
      </g>
     </g>
     <g id="text_17">
      <!-- 2500 -->
      <g transform="translate(57.55 119.778323)scale(0.1 -0.1)">
       <use xlink:href="#DejaVuSans-50"/>
       <use x="63.623047" xlink:href="#DejaVuSans-53"/>
       <use x="127.246094" xlink:href="#DejaVuSans-48"/>
       <use x="190.869141" xlink:href="#DejaVuSans-48"/>
      </g>
     </g>
    </g>
    <g id="ytick_7">
     <g id="line2d_33">
      <path clip-path="url(#pdb762066b8)" d="M 90 77.599574 
L 648 77.599574 
" style="fill:none;stroke:#808080;stroke-dasharray:6.4,1.6,1,1.6;stroke-dashoffset:0;stroke-opacity:0.3;"/>
     </g>
     <g id="line2d_34">
      <g>
       <use style="stroke:#000000;stroke-width:0.8;" x="90" xlink:href="#m25c5b61d23" y="77.599574"/>
      </g>
     </g>
     <g id="text_18">
      <!-- 3000 -->
      <g transform="translate(57.55 81.398792)scale(0.1 -0.1)">
       <use xlink:href="#DejaVuSans-51"/>
       <use x="63.623047" xlink:href="#DejaVuSans-48"/>
       <use x="127.246094" xlink:href="#DejaVuSans-48"/>
       <use x="190.869141" xlink:href="#DejaVuSans-48"/>
      </g>
     </g>
    </g>
   </g>
   <g id="line2d_35">
    <path clip-path="url(#pdb762066b8)" d="M 115.363636 303.194456 
L 116.294412 302.88742 
L 117.225188 302.88742 
L 118.155963 302.350107 
L 119.086739 301.505757 
L 120.017515 300.968443 
L 120.94829 300.047335 
L 121.879066 299.356503 
L 122.809842 297.97484 
L 123.740617 297.360768 
L 124.671393 295.979104 
L 126.532944 292.21791 
L 127.46372 289.454584 
L 128.394495 286.153945 
L 129.325271 280.857569 
L 130.256047 277.863966 
L 131.186822 274.179531 
L 132.117598 263.970576 
L 133.048374 257.522814 
L 133.979149 247.697655 
L 134.909925 231.655011 
L 135.840701 218.375693 
L 136.771476 212.234968 
L 137.702252 204.405544 
L 138.633028 179.30533 
L 139.563803 159.962047 
L 142.35613 108.14968 
L 143.286906 112.908742 
L 144.217681 116.516418 
L 145.148457 105.309595 
L 146.079233 110.913006 
L 147.010008 118.281876 
L 147.940784 120.047335 
L 148.87156 119.58678 
L 149.802335 135.782942 
L 150.733111 139.544136 
L 151.663887 130.333049 
L 153.525438 151.902345 
L 154.456214 165.41194 
L 155.386989 172.243497 
L 156.317765 186.597441 
L 157.24854 190.895949 
L 158.179316 191.510021 
L 159.110092 190.588913 
L 160.040867 197.266951 
L 160.971643 205.633689 
L 161.902419 208.78081 
L 162.833194 219.757356 
L 163.76397 221.676333 
L 164.694746 218.60597 
L 165.625521 222.213646 
L 166.556297 228.584648 
L 167.487073 231.808529 
L 168.417848 236.107036 
L 169.348624 245.932196 
L 170.279399 248.158209 
L 171.210175 249.232836 
L 172.140951 247.927932 
L 173.071726 252.610235 
L 174.002502 254.529211 
L 174.933278 258.520682 
L 175.864053 264.891684 
L 176.794829 266.119829 
L 177.725605 262.358635 
L 178.65638 267.501493 
L 179.587156 266.350107 
L 180.517932 268.345842 
L 181.448707 268.49936 
L 182.379483 272.183795 
L 183.310259 273.565458 
L 184.241034 271.262687 
L 185.17181 273.488699 
L 186.102585 275.330917 
L 187.033361 278.017484 
L 187.964137 279.629424 
L 188.894912 283.083582 
L 189.825688 282.008955 
L 190.756464 279.552665 
L 191.687239 281.318124 
L 192.618015 282.315991 
L 193.548791 285.002559 
L 194.479566 282.699787 
L 195.410342 285.539872 
L 196.341118 286.153945 
L 197.271893 283.467377 
L 198.202669 284.004691 
L 199.133445 286.307463 
L 200.06422 287.842644 
L 200.994996 287.612367 
L 201.925771 288.917271 
L 202.856547 289.301066 
L 203.787323 288.99403 
L 204.718098 287.30533 
L 205.648874 287.919403 
L 206.57965 289.070789 
L 207.510425 290.452452 
L 208.441201 293.06226 
L 210.302752 293.139019 
L 211.233528 294.6742 
L 212.164304 295.902345 
L 213.095079 295.51855 
L 214.025855 296.209382 
L 214.956631 297.667804 
L 215.887406 297.744563 
L 216.818182 297.514286 
L 217.748957 297.514286 
L 218.679733 298.128358 
L 219.610509 298.051599 
L 220.541284 298.358635 
L 221.47206 299.817058 
L 222.402836 299.740299 
L 223.333611 299.510021 
L 224.264387 299.433262 
L 225.195163 299.510021 
L 226.125938 298.895949 
L 227.056714 299.202985 
L 227.98749 300.814925 
L 228.918265 300.661407 
L 229.849041 299.970576 
L 230.779817 301.121962 
L 231.710592 301.27548 
L 232.641368 301.812793 
L 233.572143 301.812793 
L 234.502919 302.503625 
L 237.295246 301.736034 
L 238.226022 301.889552 
L 239.156797 301.889552 
L 240.087573 301.121962 
L 241.018349 301.736034 
L 241.949124 301.736034 
L 242.8799 301.27548 
L 243.810676 301.198721 
L 244.741451 301.736034 
L 245.672227 302.04307 
L 246.603003 302.196588 
L 247.533778 301.659275 
L 249.395329 301.121962 
L 250.326105 301.121962 
L 251.256881 301.966311 
L 252.187656 301.505757 
L 253.118432 301.659275 
L 254.979983 301.27548 
L 255.910759 300.584648 
L 256.841535 300.354371 
L 257.77231 301.121962 
L 259.633862 300.507889 
L 260.564637 300.43113 
L 262.426188 298.972708 
L 263.356964 299.510021 
L 264.28774 299.817058 
L 265.218515 299.817058 
L 267.080067 298.895949 
L 268.010842 297.97484 
L 268.941618 297.284009 
L 269.872394 295.672068 
L 270.803169 295.288273 
L 272.664721 295.672068 
L 273.595496 295.979104 
L 274.526272 295.365032 
L 275.457048 294.060128 
L 276.387823 294.443923 
L 277.318599 294.213646 
L 278.249374 293.446055 
L 279.18015 293.983369 
L 280.110926 295.51855 
L 281.041701 295.441791 
L 281.972477 295.134755 
L 282.903253 294.6742 
L 283.834028 295.441791 
L 284.764804 296.669936 
L 285.69558 296.516418 
L 286.626355 297.821322 
L 287.557131 297.744563 
L 288.487907 296.823454 
L 289.418682 296.900213 
L 290.349458 296.439659 
L 291.280234 296.746695 
L 292.211009 296.132623 
L 293.141785 296.286141 
L 295.003336 293.215778 
L 295.934112 292.141151 
L 296.864887 290.682729 
L 297.795663 291.066525 
L 298.726439 289.684861 
L 299.657214 289.915139 
L 300.58799 288.917271 
L 301.518766 285.770149 
L 302.449541 285.079318 
L 303.380317 283.006823 
L 304.311093 281.62516 
L 305.241868 278.708316 
L 306.172644 277.403412 
L 307.10342 275.86823 
L 308.034195 271.876759 
L 308.964971 269.650746 
L 309.895746 266.580384 
L 310.826522 262.81919 
L 311.757298 260.593177 
L 312.688073 260.900213 
L 313.618849 258.367164 
L 314.549625 254.222175 
L 315.4804 251.458849 
L 316.411176 250.000426 
L 317.341952 247.697655 
L 318.272727 245.855437 
L 319.203503 244.320256 
L 320.134279 241.096375 
L 321.065054 233.190192 
L 321.99583 229.812793 
L 322.926606 228.124094 
L 323.857381 226.205117 
L 324.788157 220.601706 
L 325.718932 222.213646 
L 326.649708 217.915139 
L 327.580484 206.708316 
L 328.511259 199.032409 
L 329.442035 199.492964 
L 330.372811 197.266951 
L 331.303586 193.121962 
L 332.234362 193.966311 
L 333.165138 191.817058 
L 334.095913 180.072921 
L 335.026689 175.390618 
L 335.957465 173.087846 
L 336.88824 167.86823 
L 337.819016 161.34371 
L 338.749791 166.793603 
L 339.680567 161.497228 
L 340.611343 149.292537 
L 341.542118 148.908742 
L 342.472894 150.213646 
L 343.40367 152.593177 
L 344.334445 150.981237 
L 345.265221 156.814925 
L 346.195997 155.202985 
L 347.126772 139.006823 
L 348.057548 143.151812 
L 348.988324 148.064392 
L 350.849875 159.578252 
L 351.780651 171.015352 
L 352.711426 172.473774 
L 353.642202 161.727505 
L 354.572977 166.25629 
L 355.503753 169.55693 
L 356.434529 173.318124 
L 357.365304 174.699787 
L 358.29608 184.908742 
L 359.226856 185.215778 
L 360.157631 174.085714 
L 361.088407 176.158209 
L 362.019183 180.456716 
L 362.949958 185.446055 
L 364.81151 199.569723 
L 365.742285 197.036674 
L 366.673061 187.134755 
L 367.603837 190.742431 
L 368.534612 196.192324 
L 369.465388 195.655011 
L 370.396163 196.422601 
L 371.326939 204.021748 
L 372.257715 203.561194 
L 373.18849 196.959915 
L 374.119266 200.337313 
L 375.050042 202.947122 
L 375.980817 202.486567 
L 376.911593 200.107036 
L 377.842369 203.944989 
L 378.773144 200.874627 
L 379.70392 192.354371 
L 381.565471 195.040938 
L 382.496247 195.117697 
L 383.427023 189.514286 
L 384.357798 191.433262 
L 385.288574 187.365032 
L 386.219349 174.315991 
L 387.150125 174.699787 
L 388.080901 172.320256 
L 389.011676 168.866098 
L 389.942452 164.64435 
L 390.873228 171.859701 
L 391.804003 170.554797 
L 392.734779 155.433262 
L 393.665555 153.97484 
L 394.59633 151.979104 
L 395.527106 150.597441 
L 396.457882 158.426866 
L 397.388657 155.433262 
L 398.319433 148.524947 
L 399.250209 126.878891 
L 400.180984 128.337313 
L 401.11176 131.637953 
L 402.042535 137.778678 
L 402.973311 150.213646 
L 403.904087 146.375693 
L 404.834862 144.610235 
L 405.765638 135.16887 
L 406.696414 138.085714 
L 409.488741 151.365032 
L 410.419516 164.874627 
L 411.350292 164.183795 
L 412.281068 153.821322 
L 414.142619 163.339446 
L 415.073394 168.021748 
L 416.00417 169.55693 
L 416.934946 179.30533 
L 417.865721 182.913006 
L 418.796497 173.164606 
L 419.727273 174.085714 
L 420.658048 180.072921 
L 421.588824 180.072921 
L 422.5196 181.915139 
L 423.450375 187.595309 
L 424.381151 186.904478 
L 425.311927 179.765885 
L 426.242702 183.296802 
L 427.173478 188.286141 
L 428.104254 191.58678 
L 429.035029 190.358635 
L 429.965805 195.73177 
L 430.89658 192.968443 
L 431.827356 185.139019 
L 432.758132 187.672068 
L 433.688907 192.047335 
L 434.619683 194.426866 
L 435.550459 195.347974 
L 436.481234 204.866098 
L 437.41201 206.32452 
L 438.342786 198.264819 
L 439.273561 200.260554 
L 440.204337 200.414072 
L 441.135113 201.258422 
L 442.065888 203.023881 
L 442.996664 210.699787 
L 443.92744 210.239232 
L 444.858215 201.795736 
L 445.788991 203.10064 
L 446.719766 204.098507 
L 447.650542 203.561194 
L 448.581318 205.249893 
L 449.512093 212.542004 
L 450.442869 212.772281 
L 451.373645 204.175267 
L 453.235196 206.247761 
L 454.165972 209.164606 
L 455.096747 210.315991 
L 456.027523 214.53774 
L 456.958299 213.309595 
L 457.889074 203.791471 
L 458.81985 205.249893 
L 459.750626 208.934328 
L 460.681401 210.315991 
L 461.612177 211.467377 
L 462.542952 217.608102 
L 463.473728 216.072921 
L 464.404504 207.475906 
L 465.335279 207.475906 
L 466.266055 209.62516 
L 467.196831 210.699787 
L 468.127606 210.546269 
L 469.058382 213.539872 
L 469.989158 211.544136 
L 470.919933 202.486567 
L 471.850709 202.102772 
L 472.781485 202.870362 
L 473.71226 199.416205 
L 474.643036 198.95565 
L 475.573812 202.409808 
L 476.504587 198.495096 
L 477.435363 188.209382 
L 478.366138 190.588913 
L 479.296914 189.821322 
L 480.22769 190.128358 
L 481.158465 188.516418 
L 482.089241 194.196588 
L 483.020017 192.814925 
L 483.950792 178.53774 
L 484.881568 179.919403 
L 485.812344 182.989765 
L 486.743119 182.298934 
L 487.673895 187.365032 
L 488.604671 194.580384 
L 489.535446 193.505757 
L 490.466222 187.979104 
L 491.396997 179.996162 
L 492.327773 180.763753 
L 493.258549 183.296802 
L 494.189324 181.83838 
L 495.1201 188.900213 
L 496.050876 187.902345 
L 496.981651 182.222175 
L 497.912427 186.367164 
L 498.843203 188.516418 
L 499.773978 190.205117 
L 500.704754 187.365032 
L 501.63553 193.27548 
L 502.566305 190.81919 
L 503.497081 175.927932 
L 504.427857 175.2371 
L 505.358632 175.390618 
L 506.289408 175.390618 
L 507.220183 177.386354 
L 508.150959 186.597441 
L 509.081735 184.448188 
L 510.01251 171.552665 
L 510.943286 178.384222 
L 511.874062 168.559062 
L 512.804837 166.026013 
L 513.735613 167.407676 
L 514.666389 177.386354 
L 515.597164 180.917271 
L 516.52794 173.011087 
L 517.458716 177.309595 
L 518.389491 186.6742 
L 519.320267 185.139019 
L 520.251043 184.448188 
L 521.181818 193.659275 
L 522.112594 195.578252 
L 523.043369 188.132623 
L 523.974145 192.584648 
L 524.904921 198.418337 
L 525.835696 207.552665 
L 526.766472 202.333049 
L 527.697248 211.083582 
L 528.628023 212.849041 
L 529.558799 206.247761 
L 530.489575 209.855437 
L 531.42035 217.454584 
L 533.281902 223.902345 
L 534.212677 232.269083 
L 535.143453 234.802132 
L 536.074229 235.032409 
L 537.005004 232.959915 
L 538.866555 243.782942 
L 539.797331 246.853305 
L 540.728107 253.608102 
L 541.658882 255.757356 
L 542.589658 253.454584 
L 544.451209 260.746695 
L 545.381985 263.740299 
L 546.312761 263.279744 
L 547.243536 266.657143 
L 548.174312 267.117697 
L 549.105088 266.350107 
L 550.035863 268.806397 
L 550.966639 272.951386 
L 552.82819 277.403412 
L 553.758966 281.011087 
L 554.689741 281.087846 
L 555.620517 279.399147 
L 556.551293 282.699787 
L 557.482068 284.08145 
L 558.412844 284.311727 
L 559.34362 285.002559 
L 560.274395 287.30533 
L 561.205171 287.689126 
L 562.135947 287.535608 
L 563.066722 289.83838 
L 563.997498 290.60597 
L 564.928274 292.29467 
L 565.859049 293.139019 
L 566.789825 293.829851 
L 567.720601 293.599574 
L 568.651376 294.060128 
L 569.582152 294.213646 
L 570.512927 295.365032 
L 571.443703 295.288273 
L 572.374479 295.979104 
L 573.305254 296.516418 
L 574.23603 296.055864 
L 575.166806 295.825586 
L 576.097581 296.439659 
L 577.028357 296.516418 
L 577.959133 295.979104 
L 578.889908 295.672068 
L 579.820684 295.134755 
L 582.613011 293.139019 
L 583.543786 291.603838 
L 586.336113 286.384222 
L 587.266889 283.544136 
L 588.197665 279.092111 
L 589.12844 276.405544 
L 590.059216 275.561194 
L 590.989992 274.947122 
L 591.920767 272.107036 
L 592.851543 271.492964 
L 593.782319 270.571855 
L 594.713094 265.966311 
L 595.64387 264.507889 
L 597.505421 263.433262 
L 598.436197 263.126226 
L 599.366972 264.661407 
L 600.297748 263.817058 
L 601.228524 261.821322 
L 602.159299 265.198721 
L 603.090075 267.117697 
L 604.020851 268.345842 
L 604.951626 269.113433 
L 605.882402 270.264819 
L 606.813178 271.032409 
L 607.743953 270.418337 
L 608.674729 270.418337 
L 609.605505 271.723241 
L 611.467056 269.266951 
L 612.397832 269.573987 
L 613.328607 268.115565 
L 614.259383 265.659275 
L 616.120934 267.885288 
L 617.982485 269.036674 
L 618.913261 271.723241 
L 619.844037 270.341578 
L 620.774812 268.345842 
L 621.705588 269.190192 
L 622.636364 272.567591 
L 622.636364 272.567591 
" style="fill:none;stroke:#ff0000;stroke-linecap:square;stroke-width:1.5;"/>
   </g>
   <g id="line2d_36">
    <path clip-path="url(#pdb762066b8)" d="M 115.363636 307.8 
L 116.294412 307.185928 
L 117.225188 307.109168 
L 118.155963 306.341578 
L 119.086739 305.266951 
L 120.017515 304.806397 
L 123.740617 300.738166 
L 124.671393 299.58678 
L 126.532944 294.520682 
L 127.46372 291.373561 
L 130.256047 275.330917 
L 131.186822 269.497228 
L 133.048374 248.388486 
L 133.979149 233.727505 
L 135.840701 194.119829 
L 137.702252 164.260554 
L 138.633028 135.629424 
L 140.494579 92.107036 
L 141.425354 81.284009 
L 142.35613 60.252026 
L 143.286906 55.8 
L 144.217681 55.8 
L 145.148457 59.791471 
L 147.940784 92.414072 
L 148.87156 113.599574 
L 149.802335 110.60597 
L 150.733111 133.633689 
L 151.663887 84.354371 
L 152.594662 99.629424 
L 153.525438 88.038806 
L 154.456214 98.094243 
L 155.386989 102.546269 
L 156.317765 101.778678 
L 157.24854 113.522814 
L 158.179316 122.503625 
L 159.110092 124.345842 
L 160.040867 127.109168 
L 160.971643 125.420469 
L 161.902419 132.405544 
L 162.833194 133.940725 
L 163.76397 142.921535 
L 164.694746 141.69339 
L 165.625521 142.307463 
L 166.556297 149.06226 
L 167.487073 165.41194 
L 168.417848 172.397015 
L 169.348624 173.855437 
L 170.279399 177.079318 
L 171.210175 183.066525 
L 172.140951 187.441791 
L 173.071726 186.981237 
L 174.002502 194.964179 
L 174.933278 195.194456 
L 175.864053 193.198721 
L 176.794829 201.949254 
L 177.725605 205.55693 
L 178.65638 205.55693 
L 179.587156 204.098507 
L 180.517932 209.164606 
L 181.448707 216.610235 
L 182.379483 220.985501 
L 183.310259 226.972708 
L 184.241034 222.060128 
L 185.17181 222.6742 
L 186.102585 228.738166 
L 187.033361 228.891684 
L 187.964137 232.576119 
L 188.894912 233.34371 
L 189.825688 237.335181 
L 190.756464 238.102772 
L 191.687239 236.260554 
L 193.548791 237.949254 
L 195.410342 245.62516 
L 196.341118 251.842644 
L 197.271893 249.846908 
L 198.202669 254.298934 
L 199.133445 252.379957 
L 200.06422 254.529211 
L 200.994996 260.439659 
L 201.925771 262.665672 
L 202.856547 266.119829 
L 203.787323 266.273348 
L 204.718098 268.269083 
L 205.648874 269.804264 
L 206.57965 270.95565 
L 209.371977 273.872495 
L 210.302752 277.173134 
L 211.233528 281.318124 
L 212.164304 282.315991 
L 213.095079 285.079318 
L 214.025855 286.460981 
L 214.956631 285.69339 
L 215.887406 286.614499 
L 216.818182 286.307463 
L 217.748957 286.384222 
L 218.679733 285.69339 
L 220.541284 289.83838 
L 221.47206 290.989765 
L 222.402836 290.913006 
L 223.333611 292.985501 
L 224.264387 291.680597 
L 225.195163 292.755224 
L 226.125938 294.213646 
L 227.056714 293.292537 
L 227.98749 294.060128 
L 228.918265 294.213646 
L 229.849041 295.825586 
L 230.779817 295.595309 
L 231.710592 296.3629 
L 234.502919 302.119829 
L 235.433695 301.198721 
L 236.36447 301.659275 
L 237.295246 301.812793 
L 239.156797 302.503625 
L 240.087573 302.580384 
L 241.018349 301.966311 
L 241.949124 301.505757 
L 242.8799 300.661407 
L 243.810676 300.661407 
L 244.741451 301.352239 
L 245.672227 301.736034 
L 246.603003 302.273348 
L 247.533778 301.889552 
L 248.464554 302.273348 
L 250.326105 300.968443 
L 251.256881 301.352239 
L 252.187656 300.891684 
L 253.118432 302.196588 
L 254.049208 300.891684 
L 254.979983 302.733902 
L 255.910759 302.503625 
L 256.841535 301.966311 
L 257.77231 303.040938 
L 258.703086 302.810661 
L 259.633862 302.273348 
L 260.564637 302.733902 
L 261.495413 302.503625 
L 262.426188 301.582516 
L 263.356964 301.505757 
L 264.28774 301.121962 
L 265.218515 301.812793 
L 266.149291 301.889552 
L 267.080067 301.812793 
L 268.010842 301.198721 
L 268.941618 300.277612 
L 269.872394 300.43113 
L 270.803169 298.895949 
L 271.733945 298.128358 
L 272.664721 298.665672 
L 273.595496 298.358635 
L 274.526272 298.512154 
L 276.387823 297.97484 
L 277.318599 298.281876 
L 278.249374 297.284009 
L 279.18015 297.667804 
L 281.041701 297.97484 
L 281.972477 298.588913 
L 283.834028 298.665672 
L 284.764804 299.663539 
L 285.69558 300.200853 
L 286.626355 300.507889 
L 287.557131 300.661407 
L 289.418682 300.738166 
L 290.349458 300.968443 
L 291.280234 300.584648 
L 292.211009 300.584648 
L 293.141785 300.277612 
L 294.07256 299.817058 
L 295.003336 299.510021 
L 298.726439 297.437527 
L 299.657214 297.284009 
L 300.58799 296.516418 
L 301.518766 295.134755 
L 302.449541 293.522814 
L 303.380317 293.215778 
L 304.311093 291.603838 
L 305.241868 290.222175 
L 306.172644 287.919403 
L 307.10342 286.691258 
L 308.034195 282.930064 
L 308.964971 282.623028 
L 309.895746 279.399147 
L 310.826522 277.55693 
L 311.757298 274.793603 
L 312.688073 274.640085 
L 313.618849 270.264819 
L 314.549625 268.115565 
L 315.4804 265.582516 
L 316.411176 265.582516 
L 317.341952 266.503625 
L 318.272727 263.893817 
L 319.203503 262.972708 
L 321.065054 252.99403 
L 321.99583 247.620896 
L 322.926606 245.62516 
L 323.857381 243.245629 
L 325.718932 234.571855 
L 326.649708 232.192324 
L 327.580484 227.58678 
L 328.511259 220.908742 
L 330.372811 214.768017 
L 331.303586 215.151812 
L 332.234362 214.53774 
L 335.026689 197.34371 
L 337.819016 184.985501 
L 338.749791 183.987633 
L 339.680567 180.686994 
L 341.542118 167.484435 
L 342.472894 167.330917 
L 343.40367 167.330917 
L 344.334445 168.328785 
L 347.126772 157.582516 
L 348.057548 150.981237 
L 348.988324 157.428998 
L 349.919099 161.650746 
L 351.780651 171.092111 
L 352.711426 177.616631 
L 353.642202 176.08145 
L 354.572977 177.616631 
L 355.503753 179.612367 
L 356.434529 184.601706 
L 357.365304 187.211514 
L 358.29608 190.435394 
L 359.226856 192.047335 
L 360.157631 188.3629 
L 361.088407 187.365032 
L 362.019183 190.588913 
L 362.949958 194.657143 
L 364.81151 204.098507 
L 366.673061 197.957783 
L 367.603837 200.490832 
L 368.534612 207.322388 
L 369.465388 211.390618 
L 370.396163 211.851173 
L 371.326939 215.765885 
L 372.257715 216.226439 
L 373.18849 212.695522 
L 374.119266 215.38209 
L 375.050042 221.06226 
L 375.980817 220.601706 
L 376.911593 219.45032 
L 377.842369 221.139019 
L 378.773144 217.915139 
L 379.70392 216.533475 
L 380.634696 213.002559 
L 381.565471 214.921535 
L 382.496247 217.377825 
L 385.288574 210.392751 
L 386.219349 202.793603 
L 387.150125 198.111301 
L 388.080901 197.497228 
L 389.011676 195.271215 
L 390.873228 192.354371 
L 391.804003 190.205117 
L 392.734779 186.904478 
L 393.665555 177.156077 
L 394.59633 178.460981 
L 395.527106 176.465245 
L 396.457882 177.079318 
L 397.388657 174.776546 
L 398.319433 169.940725 
L 399.250209 160.345842 
L 400.180984 148.448188 
L 401.11176 154.205117 
L 402.042535 146.375693 
L 402.973311 157.659275 
L 403.904087 153.97484 
L 404.834862 153.898081 
L 405.765638 144.379957 
L 406.696414 142.153945 
L 407.627189 144.303198 
L 408.557965 150.367164 
L 409.488741 159.271215 
L 410.419516 164.030277 
L 411.350292 165.872495 
L 412.281068 160.038806 
L 413.211843 158.580384 
L 414.142619 168.098507 
L 415.073394 168.635821 
L 416.00417 170.938593 
L 416.934946 177.846908 
L 417.865721 176.772281 
L 418.796497 174.008955 
L 419.727273 172.243497 
L 420.658048 176.695522 
L 421.588824 179.919403 
L 422.5196 178.614499 
L 423.450375 182.529211 
L 424.381151 179.919403 
L 425.311927 175.851173 
L 426.242702 177.002559 
L 428.104254 185.446055 
L 429.035029 187.211514 
L 429.965805 185.06226 
L 430.89658 187.134755 
L 431.827356 182.682729 
L 432.758132 181.991898 
L 433.688907 184.985501 
L 434.619683 191.279744 
L 436.481234 197.650746 
L 437.41201 196.959915 
L 438.342786 193.352239 
L 439.273561 195.808529 
L 440.204337 196.038806 
L 442.065888 202.716844 
L 442.996664 206.171002 
L 443.92744 205.863966 
L 444.858215 201.488699 
L 445.788991 200.414072 
L 446.719766 200.490832 
L 447.650542 199.8 
L 448.581318 197.881023 
L 449.512093 205.326652 
L 450.442869 206.938593 
L 452.30442 202.026013 
L 453.235196 204.252026 
L 454.165972 203.407676 
L 455.096747 205.096375 
L 456.027523 208.78081 
L 456.958299 206.401279 
L 457.889074 202.333049 
L 458.81985 197.036674 
L 459.750626 200.64435 
L 461.612177 202.716844 
L 462.542952 206.478038 
L 463.473728 207.629424 
L 464.404504 204.482303 
L 465.335279 199.876759 
L 466.266055 204.021748 
L 467.196831 204.021748 
L 468.127606 205.480171 
L 469.058382 206.478038 
L 469.989158 202.870362 
L 470.919933 196.192324 
L 471.850709 196.49936 
L 472.781485 198.571855 
L 473.71226 197.650746 
L 474.643036 195.655011 
L 475.573812 196.959915 
L 476.504587 195.655011 
L 477.435363 188.516418 
L 478.366138 186.981237 
L 479.296914 187.979104 
L 480.22769 187.134755 
L 481.158465 185.369296 
L 483.020017 185.599574 
L 483.950792 179.919403 
L 484.881568 175.2371 
L 485.812344 180.99403 
L 487.673895 183.143284 
L 488.604671 183.987633 
L 489.535446 186.060128 
L 490.466222 182.913006 
L 491.396997 173.701919 
L 492.327773 171.092111 
L 493.258549 175.313859 
L 494.189324 176.542004 
L 495.1201 177.079318 
L 496.050876 175.160341 
L 496.981651 170.631557 
L 497.912427 172.78081 
L 498.843203 176.234968 
L 499.773978 178.307463 
L 500.704754 177.539872 
L 501.63553 183.066525 
L 502.566305 179.689126 
L 503.497081 175.006823 
L 504.427857 167.407676 
L 505.358632 170.32452 
L 506.289408 166.409808 
L 507.220183 171.552665 
L 508.150959 177.539872 
L 509.081735 178.077186 
L 510.01251 172.857569 
L 511.874062 169.940725 
L 512.804837 162.725373 
L 513.735613 162.111301 
L 514.666389 167.637953 
L 515.597164 170.017484 
L 516.52794 168.405544 
L 517.458716 170.094243 
L 518.389491 176.234968 
L 519.320267 174.008955 
L 520.251043 175.544136 
L 521.181818 177.386354 
L 522.112594 179.842644 
L 523.043369 175.083582 
L 523.974145 174.930064 
L 524.904921 184.524947 
L 525.835696 192.891684 
L 526.766472 191.049467 
L 527.697248 194.810661 
L 528.628023 195.347974 
L 529.558799 192.584648 
L 530.489575 192.507889 
L 531.42035 203.10064 
L 532.351126 209.778678 
L 533.281902 214.691258 
L 534.212677 221.215778 
L 535.143453 223.134755 
L 536.074229 223.672068 
L 537.005004 223.288273 
L 537.93578 226.588913 
L 538.866555 233.34371 
L 539.797331 237.335181 
L 540.728107 242.401279 
L 541.658882 243.322388 
L 542.589658 242.631557 
L 543.520434 247.006823 
L 544.451209 248.849041 
L 545.381985 253.83838 
L 546.312761 255.066525 
L 547.243536 257.369296 
L 549.105088 257.983369 
L 550.035863 260.593177 
L 550.966639 267.194456 
L 551.897415 270.571855 
L 552.82819 273.488699 
L 553.758966 276.942857 
L 555.620517 275.791471 
L 556.551293 277.55693 
L 557.482068 279.782942 
L 558.412844 281.241365 
L 559.34362 283.697655 
L 562.135947 285.309595 
L 563.066722 286.614499 
L 564.928274 289.915139 
L 566.789825 292.678465 
L 567.720601 292.21791 
L 568.651376 293.369296 
L 569.582152 293.90661 
L 570.512927 294.981237 
L 571.443703 295.672068 
L 572.374479 297.13049 
L 573.305254 298.051599 
L 574.23603 298.205117 
L 575.166806 298.205117 
L 576.097581 299.510021 
L 577.028357 300.047335 
L 577.959133 299.740299 
L 578.889908 298.665672 
L 579.820684 298.435394 
L 580.75146 298.81919 
L 581.682235 297.97484 
L 582.613011 297.97484 
L 583.543786 297.284009 
L 584.474562 295.748827 
L 585.405338 293.292537 
L 586.336113 291.987633 
L 587.266889 289.83838 
L 589.12844 283.697655 
L 589.12844 283.697655 
" style="fill:none;stroke:#ffa500;stroke-linecap:square;stroke-width:1.5;"/>
   </g>
   <g id="line2d_37">
    <path clip-path="url(#pdb762066b8)" d="M 162.833194 280.550533 
L 163.76397 281.394883 
L 164.694746 281.471642 
L 165.625521 277.326652 
L 166.556297 277.55693 
L 167.487073 278.017484 
L 168.417848 278.094243 
L 169.348624 278.32452 
L 170.279399 277.55693 
L 171.210175 279.706183 
L 173.071726 274.793603 
L 174.002502 274.716844 
L 174.933278 275.177399 
L 175.864053 275.791471 
L 176.794829 278.554797 
L 177.725605 278.938593 
L 178.65638 277.633689 
L 179.587156 277.403412 
L 180.517932 274.102772 
L 181.448707 276.098507 
L 182.379483 273.335181 
L 184.241034 278.094243 
L 185.17181 272.414072 
L 186.102585 271.492964 
L 187.033361 269.727505 
L 187.964137 267.424733 
L 188.894912 267.808529 
L 189.825688 270.878891 
L 190.756464 271.262687 
L 191.687239 267.73177 
L 192.618015 267.424733 
L 193.548791 266.350107 
L 194.479566 270.95565 
L 195.410342 269.113433 
L 197.271893 270.034542 
L 198.202669 269.573987 
L 199.133445 267.808529 
L 200.06422 264.968443 
L 200.994996 265.736034 
L 201.925771 267.117697 
L 202.856547 269.420469 
L 204.718098 271.339446 
L 205.648874 268.422601 
L 206.57965 264.354371 
L 207.510425 266.196588 
L 208.441201 265.736034 
L 209.371977 269.34371 
L 210.302752 266.964179 
L 211.233528 267.885288 
L 212.164304 266.810661 
L 213.095079 266.119829 
L 214.956631 263.970576 
L 215.887406 268.269083 
L 216.818182 267.962047 
L 217.748957 264.124094 
L 218.679733 263.202985 
L 219.610509 264.277612 
L 220.541284 262.435394 
L 221.47206 261.667804 
L 222.402836 263.893817 
L 223.333611 268.576119 
L 224.264387 263.663539 
L 225.195163 264.507889 
L 226.125938 263.433262 
L 227.056714 263.049467 
L 227.98749 263.893817 
L 228.918265 266.350107 
L 229.849041 267.424733 
L 230.779817 264.968443 
L 232.641368 262.895949 
L 233.572143 262.81919 
L 234.502919 263.817058 
L 235.433695 266.196588 
L 236.36447 266.580384 
L 237.295246 266.657143 
L 238.226022 263.663539 
L 239.156797 262.895949 
L 240.087573 264.200853 
L 241.018349 264.738166 
L 241.949124 266.04307 
L 242.8799 267.885288 
L 243.810676 266.350107 
L 244.741451 263.893817 
L 245.672227 263.510021 
L 246.603003 263.510021 
L 247.533778 262.895949 
L 248.464554 264.277612 
L 249.395329 264.354371 
L 251.256881 262.358635 
L 252.187656 263.126226 
L 253.118432 262.435394 
L 254.049208 262.128358 
L 254.979983 264.277612 
L 255.910759 268.269083 
L 256.841535 266.580384 
L 257.77231 265.812793 
L 258.703086 264.584648 
L 259.633862 263.893817 
L 260.564637 264.277612 
L 261.495413 265.505757 
L 262.426188 266.503625 
L 263.356964 264.584648 
L 264.28774 263.049467 
L 265.218515 261.97484 
L 266.149291 264.584648 
L 267.080067 263.663539 
L 268.010842 266.04307 
L 268.941618 264.047335 
L 269.872394 263.126226 
L 270.803169 260.823454 
L 271.733945 260.900213 
L 272.664721 263.510021 
L 273.595496 263.126226 
L 274.526272 263.510021 
L 275.457048 264.507889 
L 276.387823 261.514286 
L 277.318599 260.439659 
L 278.249374 262.281876 
L 279.18015 261.591045 
L 280.110926 262.512154 
L 281.041701 264.507889 
L 281.972477 265.505757 
L 282.903253 261.744563 
L 283.834028 260.132623 
L 284.764804 260.823454 
L 285.69558 261.284009 
L 286.626355 263.58678 
L 287.557131 265.045203 
L 288.487907 265.659275 
L 289.418682 262.665672 
L 290.349458 260.516418 
L 291.280234 262.435394 
L 292.211009 261.514286 
L 293.141785 262.051599 
L 294.07256 263.663539 
L 295.003336 265.505757 
L 295.934112 259.365032 
L 296.864887 260.593177 
L 297.795663 261.360768 
L 298.726439 261.13049 
L 299.657214 262.128358 
L 300.58799 263.970576 
L 301.518766 264.738166 
L 302.449541 260.209382 
L 303.380317 258.290405 
L 304.311093 259.057996 
L 305.241868 260.669936 
L 308.034195 266.810661 
L 308.964971 259.748827 
L 309.895746 259.134755 
L 310.826522 259.057996 
L 311.757298 262.742431 
L 312.688073 261.821322 
L 313.618849 264.968443 
L 314.549625 267.271215 
L 315.4804 262.81919 
L 317.341952 260.976972 
L 318.272727 262.281876 
L 319.203503 264.047335 
L 320.134279 266.733902 
L 321.065054 268.269083 
L 321.99583 263.663539 
L 322.926606 263.356503 
L 323.857381 264.661407 
L 324.788157 264.584648 
L 325.718932 267.962047 
L 326.649708 270.341578 
L 327.580484 269.957783 
L 328.511259 266.273348 
L 329.442035 267.424733 
L 330.372811 269.266951 
L 331.303586 267.655011 
L 333.165138 272.567591 
L 334.095913 273.718977 
L 335.026689 271.032409 
L 335.957465 272.874627 
L 336.88824 272.567591 
L 337.819016 271.339446 
L 338.749791 274.793603 
L 339.680567 275.714712 
L 340.611343 274.793603 
L 341.542118 272.874627 
L 342.472894 272.414072 
L 343.40367 271.8 
L 344.334445 273.565458 
L 345.265221 273.181663 
L 346.195997 273.642217 
L 347.126772 276.021748 
L 348.057548 273.41194 
L 348.988324 271.416205 
L 350.849875 271.262687 
L 351.780651 272.107036 
L 352.711426 274.793603 
L 353.642202 273.795736 
L 354.572977 270.495096 
L 355.503753 271.032409 
L 356.434529 269.804264 
L 357.365304 270.648614 
L 358.29608 272.797868 
L 359.226856 274.333049 
L 360.157631 272.337313 
L 361.088407 271.569723 
L 362.949958 269.420469 
L 363.880734 269.804264 
L 364.81151 271.416205 
L 365.742285 273.565458 
L 366.673061 273.258422 
L 367.603837 270.18806 
L 368.534612 268.345842 
L 369.465388 268.269083 
L 370.396163 268.49936 
L 372.257715 273.335181 
L 373.18849 271.416205 
L 374.119266 269.036674 
L 375.980817 265.121962 
L 376.911593 265.659275 
L 377.842369 268.269083 
L 378.773144 269.34371 
L 379.70392 269.420469 
L 380.634696 265.428998 
L 381.565471 265.505757 
L 382.496247 266.964179 
L 383.427023 265.889552 
L 384.357798 268.729638 
L 385.288574 271.185928 
L 386.219349 267.73177 
L 387.150125 267.194456 
L 388.080901 266.119829 
L 389.011676 268.959915 
L 389.942452 269.727505 
L 390.873228 270.802132 
L 391.804003 274.793603 
L 392.734779 274.947122 
L 393.665555 271.876759 
L 394.59633 274.179531 
L 395.527106 274.409808 
L 396.457882 275.86823 
L 397.388657 279.322388 
L 398.319433 278.171002 
L 399.250209 279.475906 
L 400.180984 275.944989 
L 401.11176 275.484435 
L 402.042535 276.405544 
L 402.973311 278.017484 
L 403.904087 278.785075 
L 404.834862 280.243497 
L 406.696414 277.480171 
L 407.627189 274.486567 
L 408.557965 275.637953 
L 409.488741 275.177399 
L 410.419516 275.637953 
L 411.350292 278.785075 
L 412.281068 278.478038 
L 413.211843 275.86823 
L 414.142619 275.944989 
L 415.073394 273.104904 
L 416.00417 273.181663 
L 416.934946 274.026013 
L 417.865721 277.710448 
L 418.796497 277.326652 
L 419.727273 273.795736 
L 420.658048 273.565458 
L 421.588824 272.567591 
L 422.5196 272.874627 
L 423.450375 272.64435 
L 424.381151 275.944989 
L 425.311927 275.944989 
L 426.242702 272.107036 
L 427.173478 270.111301 
L 428.104254 269.881023 
L 429.035029 272.721109 
L 429.965805 271.723241 
L 430.89658 273.028145 
L 431.827356 275.177399 
L 432.758132 271.723241 
L 434.619683 270.571855 
L 435.550459 270.264819 
L 436.481234 270.418337 
L 437.41201 272.414072 
L 438.342786 272.951386 
L 439.273561 272.951386 
L 440.204337 268.652878 
L 441.135113 268.192324 
L 442.065888 269.113433 
L 442.996664 267.808529 
L 443.92744 271.8 
L 445.788991 267.347974 
L 446.719766 268.269083 
L 447.650542 268.652878 
L 448.581318 268.345842 
L 449.512093 269.34371 
L 450.442869 272.490832 
L 451.373645 274.179531 
L 452.30442 271.032409 
L 453.235196 268.883156 
L 454.165972 269.573987 
L 455.096747 270.034542 
L 456.027523 271.8 
L 456.958299 277.096375 
L 457.889074 274.563326 
L 458.81985 272.567591 
L 459.750626 272.951386 
L 460.681401 270.648614 
L 461.612177 270.18806 
L 462.542952 271.032409 
L 463.473728 274.793603 
L 464.404504 272.797868 
L 465.335279 269.650746 
L 466.266055 270.95565 
L 467.196831 270.341578 
L 468.127606 269.420469 
L 469.058382 271.109168 
L 469.989158 275.023881 
L 470.919933 274.026013 
L 471.850709 271.569723 
L 472.781485 270.18806 
L 473.71226 271.262687 
L 474.643036 271.032409 
L 475.573812 272.874627 
L 476.504587 276.559062 
L 478.366138 271.416205 
L 479.296914 270.802132 
L 481.158465 272.567591 
L 482.089241 273.181663 
L 483.020017 277.019616 
L 483.950792 274.793603 
L 484.881568 273.104904 
L 485.812344 274.179531 
L 486.743119 274.640085 
L 488.604671 276.635821 
L 489.535446 279.706183 
L 490.466222 279.552665 
L 491.396997 278.171002 
L 492.327773 274.947122 
L 493.258549 274.486567 
L 494.189324 275.561194 
L 495.1201 276.866098 
L 496.050876 279.092111 
L 496.981651 278.171002 
L 497.912427 273.028145 
L 498.843203 274.870362 
L 499.773978 275.561194 
L 500.704754 275.177399 
L 501.63553 276.175267 
L 502.566305 278.938593 
L 503.497081 277.633689 
L 504.427857 275.254158 
L 505.358632 275.023881 
L 506.289408 275.714712 
L 507.220183 274.026013 
L 508.150959 276.175267 
L 509.081735 278.631557 
L 510.01251 276.866098 
L 510.943286 275.637953 
L 511.874062 276.71258 
L 512.804837 274.102772 
L 513.735613 275.407676 
L 514.666389 276.942857 
L 515.597164 279.782942 
L 516.52794 279.782942 
L 517.458716 276.559062 
L 518.389491 276.71258 
L 519.320267 276.482303 
L 520.251043 276.942857 
L 521.181818 276.71258 
L 523.043369 278.32452 
L 523.974145 273.795736 
L 524.904921 271.262687 
L 525.835696 275.484435 
L 526.766472 276.098507 
L 527.697248 273.949254 
L 528.628023 274.947122 
L 529.558799 275.10064 
L 530.489575 271.339446 
L 531.42035 271.109168 
L 532.351126 270.571855 
L 533.281902 271.416205 
L 535.143453 276.098507 
L 536.074229 275.944989 
L 537.005004 274.026013 
L 537.93578 268.959915 
L 538.866555 267.885288 
L 539.797331 266.196588 
L 540.728107 267.808529 
L 541.658882 271.109168 
L 543.520434 268.729638 
L 544.451209 268.115565 
L 545.381985 266.350107 
L 546.312761 265.352239 
L 547.243536 267.117697 
L 548.174312 269.266951 
L 549.105088 271.953518 
L 550.035863 268.269083 
L 550.966639 267.117697 
L 551.897415 265.352239 
L 552.82819 264.507889 
L 553.758966 266.350107 
L 554.689741 267.501493 
L 555.620517 267.655011 
L 556.551293 266.350107 
L 557.482068 261.667804 
L 558.412844 263.356503 
L 559.34362 264.507889 
L 562.135947 266.350107 
L 563.066722 263.893817 
L 563.997498 263.510021 
L 564.928274 264.047335 
L 565.859049 261.898081 
L 567.720601 265.659275 
L 568.651376 268.269083 
L 569.582152 263.58678 
L 570.512927 262.895949 
L 571.443703 263.817058 
L 572.374479 263.58678 
L 573.305254 264.584648 
L 574.23603 266.88742 
L 575.166806 263.740299 
L 576.097581 263.126226 
L 577.028357 261.284009 
L 577.959133 261.360768 
L 578.889908 262.051599 
L 579.820684 260.746695 
L 580.75146 264.814925 
L 581.682235 266.810661 
L 582.613011 263.049467 
L 583.543786 262.512154 
L 584.474562 260.823454 
L 585.405338 262.051599 
L 586.336113 263.970576 
L 587.266889 266.810661 
L 588.197665 267.424733 
L 589.12844 266.196588 
L 589.12844 266.196588 
" style="fill:none;stroke:#0000ff;stroke-linecap:square;stroke-width:1.5;"/>
   </g>
   <g id="line2d_38">
    <path clip-path="url(#pdb762066b8)" d="M 115.363636 307.339446 
L 120.017515 306.95565 
L 120.94829 306.725373 
L 121.879066 306.725373 
L 122.809842 306.418337 
L 123.740617 306.264819 
L 126.532944 304.883156 
L 127.46372 304.192324 
L 128.394495 302.657143 
L 129.325271 301.812793 
L 130.256047 300.507889 
L 131.186822 298.665672 
L 133.048374 294.136887 
L 133.979149 290.375693 
L 134.909925 285.846908 
L 136.771476 274.870362 
L 137.702252 271.032409 
L 138.633028 263.893817 
L 139.563803 257.753092 
L 140.494579 250.153945 
L 142.35613 236.721109 
L 143.286906 231.73177 
L 144.217681 228.200853 
L 145.148457 221.446055 
L 146.079233 216.456716 
L 147.010008 215.151812 
L 147.940784 212.004691 
L 148.87156 209.932196 
L 149.802335 203.484435 
L 151.663887 199.723241 
L 152.594662 198.571855 
L 153.525438 199.8 
L 154.456214 199.109168 
L 155.386989 201.642217 
L 156.317765 201.104904 
L 157.24854 203.637953 
L 158.179316 205.173134 
L 159.110092 207.859701 
L 160.971643 211.313859 
L 161.902419 213.079318 
L 162.833194 215.689126 
L 163.76397 217.608102 
L 164.694746 218.989765 
L 165.625521 224.439659 
L 166.556297 227.279744 
L 168.417848 233.957783 
L 169.348624 234.264819 
L 170.279399 236.183795 
L 171.210175 238.409808 
L 172.140951 241.787207 
L 173.071726 246.162473 
L 174.002502 247.774414 
L 174.933278 251.458849 
L 175.864053 253.531343 
L 176.794829 255.066525 
L 177.725605 255.45032 
L 178.65638 258.443923 
L 179.587156 259.672068 
L 180.517932 263.049467 
L 181.448707 264.584648 
L 182.379483 266.350107 
L 183.310259 268.959915 
L 184.241034 269.650746 
L 186.102585 274.716844 
L 187.033361 276.405544 
L 188.894912 281.318124 
L 189.825688 281.087846 
L 190.756464 283.083582 
L 191.687239 285.386354 
L 193.548791 288.303198 
L 194.479566 288.533475 
L 195.410342 290.452452 
L 196.341118 290.759488 
L 197.271893 290.759488 
L 198.202669 293.446055 
L 199.133445 293.369296 
L 200.06422 293.90661 
L 200.994996 294.060128 
L 202.856547 295.672068 
L 203.787323 295.748827 
L 204.718098 296.055864 
L 205.648874 298.972708 
L 206.57965 299.202985 
L 207.510425 300.43113 
L 209.371977 300.507889 
L 210.302752 300.814925 
L 211.233528 300.891684 
L 212.164304 301.736034 
L 214.025855 302.273348 
L 214.956631 301.966311 
L 215.887406 301.812793 
L 216.818182 301.198721 
L 217.748957 301.889552 
L 219.610509 302.733902 
L 220.541284 303.501493 
L 221.47206 303.501493 
L 222.402836 303.655011 
L 223.333611 303.347974 
L 224.264387 304.192324 
L 226.125938 304.115565 
L 227.98749 305.650746 
L 229.849041 305.420469 
L 230.779817 305.650746 
L 231.710592 305.727505 
L 232.641368 305.957783 
L 233.572143 306.341578 
L 234.502919 306.495096 
L 235.433695 306.495096 
L 236.36447 306.111301 
L 237.295246 306.034542 
L 238.226022 306.341578 
L 239.156797 306.264819 
L 240.087573 305.957783 
L 241.018349 305.881023 
L 241.949124 306.034542 
L 242.8799 306.034542 
L 243.810676 306.264819 
L 244.741451 306.341578 
L 245.672227 306.725373 
L 247.533778 306.648614 
L 248.464554 306.571855 
L 250.326105 306.725373 
L 251.256881 306.571855 
L 252.187656 306.725373 
L 254.049208 306.495096 
L 254.979983 306.648614 
L 255.910759 306.264819 
L 258.703086 306.802132 
L 259.633862 306.418337 
L 260.564637 306.18806 
L 261.495413 306.264819 
L 262.426188 305.804264 
L 263.356964 305.881023 
L 264.28774 305.573987 
L 267.080067 305.727505 
L 268.010842 305.497228 
L 268.941618 305.650746 
L 269.872394 305.573987 
L 270.803169 305.190192 
L 271.733945 305.497228 
L 272.664721 304.959915 
L 273.595496 304.883156 
L 274.526272 305.113433 
L 276.387823 304.652878 
L 278.249374 304.883156 
L 279.18015 304.576119 
L 284.764804 305.113433 
L 285.69558 305.266951 
L 287.557131 305.34371 
L 288.487907 304.959915 
L 289.418682 305.34371 
L 290.349458 305.420469 
L 291.280234 305.727505 
L 292.211009 305.190192 
L 293.141785 305.190192 
L 295.934112 305.573987 
L 296.864887 305.497228 
L 297.795663 305.573987 
L 298.726439 305.113433 
L 299.657214 305.036674 
L 300.58799 305.113433 
L 301.518766 304.576119 
L 302.449541 303.808529 
L 303.380317 303.73177 
L 304.311093 304.115565 
L 308.034195 301.352239 
L 308.964971 300.891684 
L 309.895746 299.893817 
L 310.826522 299.740299 
L 311.757298 298.972708 
L 313.618849 298.128358 
L 314.549625 296.976972 
L 315.4804 296.976972 
L 316.411176 296.3629 
L 317.341952 296.209382 
L 318.272727 295.595309 
L 319.203503 295.902345 
L 320.134279 295.365032 
L 321.99583 293.292537 
L 323.857381 290.375693 
L 324.788157 289.531343 
L 325.718932 289.83838 
L 326.649708 288.917271 
L 327.580484 288.533475 
L 329.442035 284.772281 
L 330.372811 283.851173 
L 331.303586 281.394883 
L 332.234362 280.857569 
L 333.165138 279.936461 
L 334.095913 278.785075 
L 335.026689 275.714712 
L 335.957465 273.335181 
L 336.88824 272.337313 
L 337.819016 271.646482 
L 338.749791 269.420469 
L 339.680567 270.264819 
L 340.611343 269.036674 
L 341.542118 267.271215 
L 342.472894 266.04307 
L 343.40367 265.428998 
L 344.334445 264.354371 
L 345.265221 263.049467 
L 346.195997 263.126226 
L 347.126772 262.81919 
L 348.057548 261.13049 
L 348.988324 260.900213 
L 350.849875 261.591045 
L 351.780651 261.667804 
L 352.711426 261.97484 
L 353.642202 261.821322 
L 354.572977 261.97484 
L 355.503753 261.360768 
L 356.434529 262.205117 
L 357.365304 261.13049 
L 358.29608 262.205117 
L 359.226856 262.895949 
L 360.157631 263.893817 
L 361.088407 263.663539 
L 362.019183 264.968443 
L 362.949958 265.27548 
L 363.880734 265.889552 
L 364.81151 265.659275 
L 365.742285 266.426866 
L 366.673061 266.733902 
L 367.603837 267.501493 
L 368.534612 267.271215 
L 370.396163 268.115565 
L 371.326939 268.652878 
L 372.257715 269.036674 
L 373.18849 270.95565 
L 375.050042 271.416205 
L 375.980817 272.721109 
L 376.911593 271.569723 
L 377.842369 271.646482 
L 378.773144 271.876759 
L 379.70392 271.8 
L 380.634696 272.260554 
L 381.565471 271.569723 
L 382.496247 271.876759 
L 383.427023 271.646482 
L 384.357798 270.95565 
L 385.288574 269.727505 
L 386.219349 269.266951 
L 387.150125 267.655011 
L 388.080901 267.501493 
L 389.011676 266.733902 
L 390.873228 264.891684 
L 391.804003 263.356503 
L 392.734779 262.895949 
L 393.665555 262.895949 
L 394.59633 261.207249 
L 395.527106 262.128358 
L 396.457882 261.821322 
L 398.319433 259.441791 
L 401.11176 253.224307 
L 402.042535 252.303198 
L 402.973311 253.915139 
L 403.904087 254.298934 
L 404.834862 253.83838 
L 405.765638 252.99403 
L 406.696414 251.765885 
L 407.627189 253.83838 
L 408.557965 253.224307 
L 409.488741 253.531343 
L 410.419516 254.145416 
L 411.350292 253.301066 
L 412.281068 253.991898 
L 413.211843 254.529211 
L 414.142619 254.145416 
L 415.073394 254.682729 
L 416.00417 254.913006 
L 416.934946 256.371429 
L 417.865721 255.987633 
L 418.796497 254.913006 
L 419.727273 255.45032 
L 420.658048 255.757356 
L 423.450375 256.21791 
L 424.381151 255.680597 
L 425.311927 256.908742 
L 426.242702 256.141151 
L 427.173478 257.90661 
L 428.104254 258.367164 
L 429.035029 257.292537 
L 429.965805 258.750959 
L 430.89658 258.290405 
L 431.827356 258.827719 
L 432.758132 259.595309 
L 433.688907 260.823454 
L 434.619683 261.667804 
L 436.481234 265.889552 
L 437.41201 266.810661 
L 439.273561 265.659275 
L 440.204337 266.964179 
L 441.135113 266.657143 
L 442.065888 266.88742 
L 442.996664 266.580384 
L 443.92744 267.194456 
L 444.858215 266.733902 
L 445.788991 267.501493 
L 446.719766 267.962047 
L 447.650542 267.73177 
L 448.581318 268.729638 
L 450.442869 266.88742 
L 451.373645 264.814925 
L 452.30442 266.580384 
L 453.235196 266.964179 
L 454.165972 267.501493 
L 455.096747 267.578252 
L 456.027523 268.115565 
L 456.958299 267.501493 
L 457.889074 266.733902 
L 458.81985 266.426866 
L 459.750626 265.736034 
L 460.681401 266.503625 
L 463.473728 266.04307 
L 464.404504 265.045203 
L 465.335279 265.198721 
L 466.266055 264.891684 
L 467.196831 263.970576 
L 468.127606 263.663539 
L 469.058382 265.352239 
L 469.989158 265.352239 
L 470.919933 264.584648 
L 471.850709 262.895949 
L 472.781485 264.277612 
L 473.71226 264.584648 
L 474.643036 263.433262 
L 475.573812 261.667804 
L 476.504587 260.976972 
L 477.435363 258.904478 
L 478.366138 260.055864 
L 479.296914 259.902345 
L 480.22769 260.3629 
L 481.158465 259.902345 
L 482.089241 258.520682 
L 483.020017 257.599574 
L 483.950792 256.064392 
L 484.881568 255.527079 
L 485.812344 255.603838 
L 486.743119 255.066525 
L 487.673895 253.76162 
L 488.604671 251.535608 
L 489.535446 251.842644 
L 490.466222 250.614499 
L 491.396997 250.307463 
L 492.327773 248.311727 
L 493.258549 246.623028 
L 494.189324 247.697655 
L 495.1201 247.467377 
L 496.050876 247.390618 
L 496.981651 246.930064 
L 497.912427 246.930064 
L 498.843203 247.697655 
L 499.773978 247.313859 
L 500.704754 247.083582 
L 501.63553 246.315991 
L 503.497081 245.471642 
L 504.427857 244.704051 
L 505.358632 244.78081 
L 506.289408 243.475906 
L 507.220183 243.629424 
L 508.150959 245.241365 
L 509.081735 243.322388 
L 510.01251 245.471642 
L 510.943286 244.934328 
L 511.874062 245.394883 
L 512.804837 245.471642 
L 513.735613 245.932196 
L 514.666389 245.62516 
L 515.597164 246.162473 
L 516.52794 244.550533 
L 517.458716 245.087846 
L 518.389491 244.166738 
L 519.320267 245.932196 
L 520.251043 246.699787 
L 521.181818 248.158209 
L 523.043369 249.770149 
L 524.904921 251.228571 
L 526.766472 251.996162 
L 527.697248 253.377825 
L 528.628023 255.220043 
L 529.558799 255.603838 
L 530.489575 258.290405 
L 531.42035 258.981237 
L 532.351126 260.209382 
L 533.281902 261.207249 
L 534.212677 261.667804 
L 535.143453 261.053731 
L 536.074229 261.97484 
L 539.797331 267.885288 
L 540.728107 269.573987 
L 541.658882 270.571855 
L 542.589658 271.262687 
L 544.451209 275.637953 
L 545.381985 277.633689 
L 546.312761 278.938593 
L 547.243536 280.934328 
L 548.174312 281.471642 
L 549.105088 281.548401 
L 550.035863 283.2371 
L 550.966639 284.542004 
L 551.897415 285.079318 
L 552.82819 286.307463 
L 553.758966 287.228571 
L 554.689741 287.535608 
L 555.620517 287.689126 
L 558.412844 290.529211 
L 559.34362 291.143284 
L 562.135947 292.755224 
L 563.066722 293.676333 
L 563.997498 294.827719 
L 565.859049 296.593177 
L 566.789825 297.053731 
L 568.651376 296.976972 
L 569.582152 298.128358 
L 570.512927 298.051599 
L 571.443703 298.742431 
L 572.374479 299.58678 
L 573.305254 300.047335 
L 574.23603 300.277612 
L 575.166806 299.433262 
L 576.097581 299.970576 
L 577.028357 299.893817 
L 577.959133 300.968443 
L 579.820684 301.582516 
L 580.75146 301.121962 
L 581.682235 301.428998 
L 582.613011 302.119829 
L 584.474562 302.350107 
L 586.336113 301.966311 
L 587.266889 302.04307 
L 588.197665 301.428998 
L 589.12844 300.200853 
L 589.12844 300.200853 
" style="fill:none;stroke:#00ffff;stroke-linecap:square;stroke-width:1.5;"/>
   </g>
   <g id="patch_3">
    <path d="M 90 320.4 
L 90 43.2 
" style="fill:none;stroke:#000000;stroke-linecap:square;stroke-linejoin:miter;stroke-width:0.8;"/>
   </g>
   <g id="patch_4">
    <path d="M 648 320.4 
L 648 43.2 
" style="fill:none;stroke:#000000;stroke-linecap:square;stroke-linejoin:miter;stroke-width:0.8;"/>
   </g>
   <g id="patch_5">
    <path d="M 90 320.4 
L 648 320.4 
" style="fill:none;stroke:#000000;stroke-linecap:square;stroke-linejoin:miter;stroke-width:0.8;"/>
   </g>
   <g id="patch_6">
    <path d="M 90 43.2 
L 648 43.2 
" style="fill:none;stroke:#000000;stroke-linecap:square;stroke-linejoin:miter;stroke-width:0.8;"/>
   </g>
   <g id="text_19">
    <!-- Testplot -->
    <g transform="translate(345.68625 37.2)scale(0.12 -0.12)">
     <defs>
      <path d="M -0.296875 72.90625 
L 61.375 72.90625 
L 61.375 64.59375 
L 35.5 64.59375 
L 35.5 0 
L 25.59375 0 
L 25.59375 64.59375 
L -0.296875 64.59375 
z
" id="DejaVuSans-84"/>
      <path d="M 56.203125 29.59375 
L 56.203125 25.203125 
L 14.890625 25.203125 
Q 15.484375 15.921875 20.484375 11.0625 
Q 25.484375 6.203125 34.421875 6.203125 
Q 39.59375 6.203125 44.453125 7.46875 
Q 49.3125 8.734375 54.109375 11.28125 
L 54.109375 2.78125 
Q 49.265625 0.734375 44.1875 -0.34375 
Q 39.109375 -1.421875 33.890625 -1.421875 
Q 20.796875 -1.421875 13.15625 6.1875 
Q 5.515625 13.8125 5.515625 26.8125 
Q 5.515625 40.234375 12.765625 48.109375 
Q 20.015625 56 32.328125 56 
Q 43.359375 56 49.78125 48.890625 
Q 56.203125 41.796875 56.203125 29.59375 
z
M 47.21875 32.234375 
Q 47.125 39.59375 43.09375 43.984375 
Q 39.0625 48.390625 32.421875 48.390625 
Q 24.90625 48.390625 20.390625 44.140625 
Q 15.875 39.890625 15.1875 32.171875 
z
" id="DejaVuSans-101"/>
      <path d="M 44.28125 53.078125 
L 44.28125 44.578125 
Q 40.484375 46.53125 36.375 47.5 
Q 32.28125 48.484375 27.875 48.484375 
Q 21.1875 48.484375 17.84375 46.4375 
Q 14.5 44.390625 14.5 40.28125 
Q 14.5 37.15625 16.890625 35.375 
Q 19.28125 33.59375 26.515625 31.984375 
L 29.59375 31.296875 
Q 39.15625 29.25 43.1875 25.515625 
Q 47.21875 21.78125 47.21875 15.09375 
Q 47.21875 7.46875 41.1875 3.015625 
Q 35.15625 -1.421875 24.609375 -1.421875 
Q 20.21875 -1.421875 15.453125 -0.5625 
Q 10.6875 0.296875 5.421875 2 
L 5.421875 11.28125 
Q 10.40625 8.6875 15.234375 7.390625 
Q 20.0625 6.109375 24.8125 6.109375 
Q 31.15625 6.109375 34.5625 8.28125 
Q 37.984375 10.453125 37.984375 14.40625 
Q 37.984375 18.0625 35.515625 20.015625 
Q 33.0625 21.96875 24.703125 23.78125 
L 21.578125 24.515625 
Q 13.234375 26.265625 9.515625 29.90625 
Q 5.8125 33.546875 5.8125 39.890625 
Q 5.8125 47.609375 11.28125 51.796875 
Q 16.75 56 26.8125 56 
Q 31.78125 56 36.171875 55.265625 
Q 40.578125 54.546875 44.28125 53.078125 
z
" id="DejaVuSans-115"/>
      <path d="M 18.109375 8.203125 
L 18.109375 -20.796875 
L 9.078125 -20.796875 
L 9.078125 54.6875 
L 18.109375 54.6875 
L 18.109375 46.390625 
Q 20.953125 51.265625 25.265625 53.625 
Q 29.59375 56 35.59375 56 
Q 45.5625 56 51.78125 48.09375 
Q 58.015625 40.1875 58.015625 27.296875 
Q 58.015625 14.40625 51.78125 6.484375 
Q 45.5625 -1.421875 35.59375 -1.421875 
Q 29.59375 -1.421875 25.265625 0.953125 
Q 20.953125 3.328125 18.109375 8.203125 
z
M 48.6875 27.296875 
Q 48.6875 37.203125 44.609375 42.84375 
Q 40.53125 48.484375 33.40625 48.484375 
Q 26.265625 48.484375 22.1875 42.84375 
Q 18.109375 37.203125 18.109375 27.296875 
Q 18.109375 17.390625 22.1875 11.75 
Q 26.265625 6.109375 33.40625 6.109375 
Q 40.53125 6.109375 44.609375 11.75 
Q 48.6875 17.390625 48.6875 27.296875 
z
" id="DejaVuSans-112"/>
      <path d="M 9.421875 75.984375 
L 18.40625 75.984375 
L 18.40625 0 
L 9.421875 0 
z
" id="DejaVuSans-108"/>
      <path d="M 30.609375 48.390625 
Q 23.390625 48.390625 19.1875 42.75 
Q 14.984375 37.109375 14.984375 27.296875 
Q 14.984375 17.484375 19.15625 11.84375 
Q 23.34375 6.203125 30.609375 6.203125 
Q 37.796875 6.203125 41.984375 11.859375 
Q 46.1875 17.53125 46.1875 27.296875 
Q 46.1875 37.015625 41.984375 42.703125 
Q 37.796875 48.390625 30.609375 48.390625 
z
M 30.609375 56 
Q 42.328125 56 49.015625 48.375 
Q 55.71875 40.765625 55.71875 27.296875 
Q 55.71875 13.875 49.015625 6.21875 
Q 42.328125 -1.421875 30.609375 -1.421875 
Q 18.84375 -1.421875 12.171875 6.21875 
Q 5.515625 13.875 5.515625 27.296875 
Q 5.515625 40.765625 12.171875 48.375 
Q 18.84375 56 30.609375 56 
z
" id="DejaVuSans-111"/>
     </defs>
     <use xlink:href="#DejaVuSans-84"/>
     <use x="44.083984" xlink:href="#DejaVuSans-101"/>
     <use x="105.607422" xlink:href="#DejaVuSans-115"/>
     <use x="157.707031" xlink:href="#DejaVuSans-116"/>
     <use x="196.916016" xlink:href="#DejaVuSans-112"/>
     <use x="260.392578" xlink:href="#DejaVuSans-108"/>
     <use x="288.175781" xlink:href="#DejaVuSans-111"/>
     <use x="349.357422" xlink:href="#DejaVuSans-116"/>
    </g>
   </g>
   <g id="legend_1">
    <g id="patch_7">
     <path d="M 97 109.9125 
L 347.15 109.9125 
Q 349.15 109.9125 349.15 107.9125 
L 349.15 50.2 
Q 349.15 48.2 347.15 48.2 
L 97 48.2 
Q 95 48.2 95 50.2 
L 95 107.9125 
Q 95 109.9125 97 109.9125 
z
" style="fill:#ffffff;opacity:0.8;stroke:#cccccc;stroke-linejoin:miter;"/>
    </g>
    <g id="line2d_39">
     <path d="M 99 56.298437 
L 119 56.298437 
" style="fill:none;stroke:#ff0000;stroke-linecap:square;stroke-width:1.5;"/>
    </g>
    <g id="line2d_40"/>
    <g id="text_20">
     <!-- covid opgenomen patinten NICE (nu 460) -->
     <g transform="translate(127 59.798437)scale(0.1 -0.1)">
      <defs>
       <path d="M 48.78125 52.59375 
L 48.78125 44.1875 
Q 44.96875 46.296875 41.140625 47.34375 
Q 37.3125 48.390625 33.40625 48.390625 
Q 24.65625 48.390625 19.8125 42.84375 
Q 14.984375 37.3125 14.984375 27.296875 
Q 14.984375 17.28125 19.8125 11.734375 
Q 24.65625 6.203125 33.40625 6.203125 
Q 37.3125 6.203125 41.140625 7.25 
Q 44.96875 8.296875 48.78125 10.40625 
L 48.78125 2.09375 
Q 45.015625 0.34375 40.984375 -0.53125 
Q 36.96875 -1.421875 32.421875 -1.421875 
Q 20.0625 -1.421875 12.78125 6.34375 
Q 5.515625 14.109375 5.515625 27.296875 
Q 5.515625 40.671875 12.859375 48.328125 
Q 20.21875 56 33.015625 56 
Q 37.15625 56 41.109375 55.140625 
Q 45.0625 54.296875 48.78125 52.59375 
z
" id="DejaVuSans-99"/>
       <path d="M 2.984375 54.6875 
L 12.5 54.6875 
L 29.59375 8.796875 
L 46.6875 54.6875 
L 56.203125 54.6875 
L 35.6875 0 
L 23.484375 0 
z
" id="DejaVuSans-118"/>
       <path d="M 9.421875 54.6875 
L 18.40625 54.6875 
L 18.40625 0 
L 9.421875 0 
z
M 9.421875 75.984375 
L 18.40625 75.984375 
L 18.40625 64.59375 
L 9.421875 64.59375 
z
" id="DejaVuSans-105"/>
       <path d="M 45.40625 46.390625 
L 45.40625 75.984375 
L 54.390625 75.984375 
L 54.390625 0 
L 45.40625 0 
L 45.40625 8.203125 
Q 42.578125 3.328125 38.25 0.953125 
Q 33.9375 -1.421875 27.875 -1.421875 
Q 17.96875 -1.421875 11.734375 6.484375 
Q 5.515625 14.40625 5.515625 27.296875 
Q 5.515625 40.1875 11.734375 48.09375 
Q 17.96875 56 27.875 56 
Q 33.9375 56 38.25 53.625 
Q 42.578125 51.265625 45.40625 46.390625 
z
M 14.796875 27.296875 
Q 14.796875 17.390625 18.875 11.75 
Q 22.953125 6.109375 30.078125 6.109375 
Q 37.203125 6.109375 41.296875 11.75 
Q 45.40625 17.390625 45.40625 27.296875 
Q 45.40625 37.203125 41.296875 42.84375 
Q 37.203125 48.484375 30.078125 48.484375 
Q 22.953125 48.484375 18.875 42.84375 
Q 14.796875 37.203125 14.796875 27.296875 
z
" id="DejaVuSans-100"/>
       <path id="DejaVuSans-32"/>
       <path d="M 45.40625 27.984375 
Q 45.40625 37.75 41.375 43.109375 
Q 37.359375 48.484375 30.078125 48.484375 
Q 22.859375 48.484375 18.828125 43.109375 
Q 14.796875 37.75 14.796875 27.984375 
Q 14.796875 18.265625 18.828125 12.890625 
Q 22.859375 7.515625 30.078125 7.515625 
Q 37.359375 7.515625 41.375 12.890625 
Q 45.40625 18.265625 45.40625 27.984375 
z
M 54.390625 6.78125 
Q 54.390625 -7.171875 48.1875 -13.984375 
Q 42 -20.796875 29.203125 -20.796875 
Q 24.46875 -20.796875 20.265625 -20.09375 
Q 16.0625 -19.390625 12.109375 -17.921875 
L 12.109375 -9.1875 
Q 16.0625 -11.328125 19.921875 -12.34375 
Q 23.78125 -13.375 27.78125 -13.375 
Q 36.625 -13.375 41.015625 -8.765625 
Q 45.40625 -4.15625 45.40625 5.171875 
L 45.40625 9.625 
Q 42.625 4.78125 38.28125 2.390625 
Q 33.9375 0 27.875 0 
Q 17.828125 0 11.671875 7.65625 
Q 5.515625 15.328125 5.515625 27.984375 
Q 5.515625 40.671875 11.671875 48.328125 
Q 17.828125 56 27.875 56 
Q 33.9375 56 38.28125 53.609375 
Q 42.625 51.21875 45.40625 46.390625 
L 45.40625 54.6875 
L 54.390625 54.6875 
z
" id="DejaVuSans-103"/>
       <path d="M 54.890625 33.015625 
L 54.890625 0 
L 45.90625 0 
L 45.90625 32.71875 
Q 45.90625 40.484375 42.875 44.328125 
Q 39.84375 48.1875 33.796875 48.1875 
Q 26.515625 48.1875 22.3125 43.546875 
Q 18.109375 38.921875 18.109375 30.90625 
L 18.109375 0 
L 9.078125 0 
L 9.078125 54.6875 
L 18.109375 54.6875 
L 18.109375 46.1875 
Q 21.34375 51.125 25.703125 53.5625 
Q 30.078125 56 35.796875 56 
Q 45.21875 56 50.046875 50.171875 
Q 54.890625 44.34375 54.890625 33.015625 
z
" id="DejaVuSans-110"/>
       <path d="M 56.203125 29.59375 
L 56.203125 25.203125 
L 14.890625 25.203125 
Q 15.484375 15.921875 20.484375 11.0625 
Q 25.484375 6.203125 34.421875 6.203125 
Q 39.59375 6.203125 44.453125 7.46875 
Q 49.3125 8.734375 54.109375 11.28125 
L 54.109375 2.78125 
Q 49.265625 0.734375 44.1875 -0.34375 
Q 39.109375 -1.421875 33.890625 -1.421875 
Q 20.796875 -1.421875 13.15625 6.1875 
Q 5.515625 13.8125 5.515625 26.8125 
Q 5.515625 40.234375 12.765625 48.109375 
Q 20.015625 56 32.328125 56 
Q 43.359375 56 49.78125 48.890625 
Q 56.203125 41.796875 56.203125 29.59375 
z
M 47.21875 32.234375 
Q 47.125 39.59375 43.09375 43.984375 
Q 39.0625 48.390625 32.421875 48.390625 
Q 24.90625 48.390625 20.390625 44.140625 
Q 15.875 39.890625 15.1875 32.171875 
z
M 36.34375 75.78125 
L 46.25 75.78125 
L 46.25 65.921875 
L 36.34375 65.921875 
z
M 17.25 75.78125 
L 27.15625 75.78125 
L 27.15625 65.921875 
L 17.25 65.921875 
z
" id="DejaVuSans-235"/>
       <path d="M 9.8125 72.90625 
L 23.09375 72.90625 
L 55.421875 11.921875 
L 55.421875 72.90625 
L 64.984375 72.90625 
L 64.984375 0 
L 51.703125 0 
L 19.390625 60.984375 
L 19.390625 0 
L 9.8125 0 
z
" id="DejaVuSans-78"/>
       <path d="M 9.8125 72.90625 
L 19.671875 72.90625 
L 19.671875 0 
L 9.8125 0 
z
" id="DejaVuSans-73"/>
       <path d="M 64.40625 67.28125 
L 64.40625 56.890625 
Q 59.421875 61.53125 53.78125 63.8125 
Q 48.140625 66.109375 41.796875 66.109375 
Q 29.296875 66.109375 22.65625 58.46875 
Q 16.015625 50.828125 16.015625 36.375 
Q 16.015625 21.96875 22.65625 14.328125 
Q 29.296875 6.6875 41.796875 6.6875 
Q 48.140625 6.6875 53.78125 8.984375 
Q 59.421875 11.28125 64.40625 15.921875 
L 64.40625 5.609375 
Q 59.234375 2.09375 53.4375 0.328125 
Q 47.65625 -1.421875 41.21875 -1.421875 
Q 24.65625 -1.421875 15.125 8.703125 
Q 5.609375 18.84375 5.609375 36.375 
Q 5.609375 53.953125 15.125 64.078125 
Q 24.65625 74.21875 41.21875 74.21875 
Q 47.75 74.21875 53.53125 72.484375 
Q 59.328125 70.75 64.40625 67.28125 
z
" id="DejaVuSans-67"/>
       <path d="M 9.8125 72.90625 
L 55.90625 72.90625 
L 55.90625 64.59375 
L 19.671875 64.59375 
L 19.671875 43.015625 
L 54.390625 43.015625 
L 54.390625 34.71875 
L 19.671875 34.71875 
L 19.671875 8.296875 
L 56.78125 8.296875 
L 56.78125 0 
L 9.8125 0 
z
" id="DejaVuSans-69"/>
       <path d="M 31 75.875 
Q 24.46875 64.65625 21.28125 53.65625 
Q 18.109375 42.671875 18.109375 31.390625 
Q 18.109375 20.125 21.3125 9.0625 
Q 24.515625 -2 31 -13.1875 
L 23.1875 -13.1875 
Q 15.875 -1.703125 12.234375 9.375 
Q 8.59375 20.453125 8.59375 31.390625 
Q 8.59375 42.28125 12.203125 53.3125 
Q 15.828125 64.359375 23.1875 75.875 
z
" id="DejaVuSans-40"/>
       <path d="M 37.796875 64.3125 
L 12.890625 25.390625 
L 37.796875 25.390625 
z
M 35.203125 72.90625 
L 47.609375 72.90625 
L 47.609375 25.390625 
L 58.015625 25.390625 
L 58.015625 17.1875 
L 47.609375 17.1875 
L 47.609375 0 
L 37.796875 0 
L 37.796875 17.1875 
L 4.890625 17.1875 
L 4.890625 26.703125 
z
" id="DejaVuSans-52"/>
       <path d="M 33.015625 40.375 
Q 26.375 40.375 22.484375 35.828125 
Q 18.609375 31.296875 18.609375 23.390625 
Q 18.609375 15.53125 22.484375 10.953125 
Q 26.375 6.390625 33.015625 6.390625 
Q 39.65625 6.390625 43.53125 10.953125 
Q 47.40625 15.53125 47.40625 23.390625 
Q 47.40625 31.296875 43.53125 35.828125 
Q 39.65625 40.375 33.015625 40.375 
z
M 52.59375 71.296875 
L 52.59375 62.3125 
Q 48.875 64.0625 45.09375 64.984375 
Q 41.3125 65.921875 37.59375 65.921875 
Q 27.828125 65.921875 22.671875 59.328125 
Q 17.53125 52.734375 16.796875 39.40625 
Q 19.671875 43.65625 24.015625 45.921875 
Q 28.375 48.1875 33.59375 48.1875 
Q 44.578125 48.1875 50.953125 41.515625 
Q 57.328125 34.859375 57.328125 23.390625 
Q 57.328125 12.15625 50.6875 5.359375 
Q 44.046875 -1.421875 33.015625 -1.421875 
Q 20.359375 -1.421875 13.671875 8.265625 
Q 6.984375 17.96875 6.984375 36.375 
Q 6.984375 53.65625 15.1875 63.9375 
Q 23.390625 74.21875 37.203125 74.21875 
Q 40.921875 74.21875 44.703125 73.484375 
Q 48.484375 72.75 52.59375 71.296875 
z
" id="DejaVuSans-54"/>
       <path d="M 8.015625 75.875 
L 15.828125 75.875 
Q 23.140625 64.359375 26.78125 53.3125 
Q 30.421875 42.28125 30.421875 31.390625 
Q 30.421875 20.453125 26.78125 9.375 
Q 23.140625 -1.703125 15.828125 -13.1875 
L 8.015625 -13.1875 
Q 14.5 -2 17.703125 9.0625 
Q 20.90625 20.125 20.90625 31.390625 
Q 20.90625 42.671875 17.703125 53.65625 
Q 14.5 64.65625 8.015625 75.875 
z
" id="DejaVuSans-41"/>
      </defs>
      <use xlink:href="#DejaVuSans-99"/>
      <use x="54.980469" xlink:href="#DejaVuSans-111"/>
      <use x="116.162109" xlink:href="#DejaVuSans-118"/>
      <use x="175.341797" xlink:href="#DejaVuSans-105"/>
      <use x="203.125" xlink:href="#DejaVuSans-100"/>
      <use x="266.601562" xlink:href="#DejaVuSans-32"/>
      <use x="298.388672" xlink:href="#DejaVuSans-111"/>
      <use x="359.570312" xlink:href="#DejaVuSans-112"/>
      <use x="423.046875" xlink:href="#DejaVuSans-103"/>
      <use x="486.523438" xlink:href="#DejaVuSans-101"/>
      <use x="548.046875" xlink:href="#DejaVuSans-110"/>
      <use x="611.425781" xlink:href="#DejaVuSans-111"/>
      <use x="672.607422" xlink:href="#DejaVuSans-109"/>
      <use x="770.019531" xlink:href="#DejaVuSans-101"/>
      <use x="831.542969" xlink:href="#DejaVuSans-110"/>
      <use x="894.921875" xlink:href="#DejaVuSans-32"/>
      <use x="926.708984" xlink:href="#DejaVuSans-112"/>
      <use x="990.185547" xlink:href="#DejaVuSans-97"/>
      <use x="1051.464844" xlink:href="#DejaVuSans-116"/>
      <use x="1090.673828" xlink:href="#DejaVuSans-105"/>
      <use x="1118.457031" xlink:href="#DejaVuSans-235"/>
      <use x="1179.980469" xlink:href="#DejaVuSans-110"/>
      <use x="1243.359375" xlink:href="#DejaVuSans-116"/>
      <use x="1282.568359" xlink:href="#DejaVuSans-101"/>
      <use x="1344.091797" xlink:href="#DejaVuSans-110"/>
      <use x="1407.470703" xlink:href="#DejaVuSans-32"/>
      <use x="1439.257812" xlink:href="#DejaVuSans-78"/>
      <use x="1514.0625" xlink:href="#DejaVuSans-73"/>
      <use x="1543.554688" xlink:href="#DejaVuSans-67"/>
      <use x="1613.378906" xlink:href="#DejaVuSans-69"/>
      <use x="1676.5625" xlink:href="#DejaVuSans-32"/>
      <use x="1708.349609" xlink:href="#DejaVuSans-40"/>
      <use x="1747.363281" xlink:href="#DejaVuSans-110"/>
      <use x="1810.742188" xlink:href="#DejaVuSans-117"/>
      <use x="1874.121094" xlink:href="#DejaVuSans-32"/>
      <use x="1905.908203" xlink:href="#DejaVuSans-52"/>
      <use x="1969.53125" xlink:href="#DejaVuSans-54"/>
      <use x="2033.154297" xlink:href="#DejaVuSans-48"/>
      <use x="2096.777344" xlink:href="#DejaVuSans-41"/>
     </g>
    </g>
    <g id="line2d_41">
     <path d="M 99 70.976562 
L 119 70.976562 
" style="fill:none;stroke:#ffa500;stroke-linecap:square;stroke-width:1.5;"/>
    </g>
    <g id="line2d_42"/>
    <g id="text_21">
     <!-- covid bezette bedden LCPS (nu 315) -->
     <g transform="translate(127 74.476562)scale(0.1 -0.1)">
      <defs>
       <path d="M 48.6875 27.296875 
Q 48.6875 37.203125 44.609375 42.84375 
Q 40.53125 48.484375 33.40625 48.484375 
Q 26.265625 48.484375 22.1875 42.84375 
Q 18.109375 37.203125 18.109375 27.296875 
Q 18.109375 17.390625 22.1875 11.75 
Q 26.265625 6.109375 33.40625 6.109375 
Q 40.53125 6.109375 44.609375 11.75 
Q 48.6875 17.390625 48.6875 27.296875 
z
M 18.109375 46.390625 
Q 20.953125 51.265625 25.265625 53.625 
Q 29.59375 56 35.59375 56 
Q 45.5625 56 51.78125 48.09375 
Q 58.015625 40.1875 58.015625 27.296875 
Q 58.015625 14.40625 51.78125 6.484375 
Q 45.5625 -1.421875 35.59375 -1.421875 
Q 29.59375 -1.421875 25.265625 0.953125 
Q 20.953125 3.328125 18.109375 8.203125 
L 18.109375 0 
L 9.078125 0 
L 9.078125 75.984375 
L 18.109375 75.984375 
z
" id="DejaVuSans-98"/>
       <path d="M 5.515625 54.6875 
L 48.1875 54.6875 
L 48.1875 46.484375 
L 14.40625 7.171875 
L 48.1875 7.171875 
L 48.1875 0 
L 4.296875 0 
L 4.296875 8.203125 
L 38.09375 47.515625 
L 5.515625 47.515625 
z
" id="DejaVuSans-122"/>
       <path d="M 9.8125 72.90625 
L 19.671875 72.90625 
L 19.671875 8.296875 
L 55.171875 8.296875 
L 55.171875 0 
L 9.8125 0 
z
" id="DejaVuSans-76"/>
       <path d="M 19.671875 64.796875 
L 19.671875 37.40625 
L 32.078125 37.40625 
Q 38.96875 37.40625 42.71875 40.96875 
Q 46.484375 44.53125 46.484375 51.125 
Q 46.484375 57.671875 42.71875 61.234375 
Q 38.96875 64.796875 32.078125 64.796875 
z
M 9.8125 72.90625 
L 32.078125 72.90625 
Q 44.34375 72.90625 50.609375 67.359375 
Q 56.890625 61.8125 56.890625 51.125 
Q 56.890625 40.328125 50.609375 34.8125 
Q 44.34375 29.296875 32.078125 29.296875 
L 19.671875 29.296875 
L 19.671875 0 
L 9.8125 0 
z
" id="DejaVuSans-80"/>
       <path d="M 53.515625 70.515625 
L 53.515625 60.890625 
Q 47.90625 63.578125 42.921875 64.890625 
Q 37.9375 66.21875 33.296875 66.21875 
Q 25.25 66.21875 20.875 63.09375 
Q 16.5 59.96875 16.5 54.203125 
Q 16.5 49.359375 19.40625 46.890625 
Q 22.3125 44.4375 30.421875 42.921875 
L 36.375 41.703125 
Q 47.40625 39.59375 52.65625 34.296875 
Q 57.90625 29 57.90625 20.125 
Q 57.90625 9.515625 50.796875 4.046875 
Q 43.703125 -1.421875 29.984375 -1.421875 
Q 24.8125 -1.421875 18.96875 -0.25 
Q 13.140625 0.921875 6.890625 3.21875 
L 6.890625 13.375 
Q 12.890625 10.015625 18.65625 8.296875 
Q 24.421875 6.59375 29.984375 6.59375 
Q 38.421875 6.59375 43.015625 9.90625 
Q 47.609375 13.234375 47.609375 19.390625 
Q 47.609375 24.75 44.3125 27.78125 
Q 41.015625 30.8125 33.5 32.328125 
L 27.484375 33.5 
Q 16.453125 35.6875 11.515625 40.375 
Q 6.59375 45.0625 6.59375 53.421875 
Q 6.59375 63.09375 13.40625 68.65625 
Q 20.21875 74.21875 32.171875 74.21875 
Q 37.3125 74.21875 42.625 73.28125 
Q 47.953125 72.359375 53.515625 70.515625 
z
" id="DejaVuSans-83"/>
      </defs>
      <use xlink:href="#DejaVuSans-99"/>
      <use x="54.980469" xlink:href="#DejaVuSans-111"/>
      <use x="116.162109" xlink:href="#DejaVuSans-118"/>
      <use x="175.341797" xlink:href="#DejaVuSans-105"/>
      <use x="203.125" xlink:href="#DejaVuSans-100"/>
      <use x="266.601562" xlink:href="#DejaVuSans-32"/>
      <use x="298.388672" xlink:href="#DejaVuSans-98"/>
      <use x="361.865234" xlink:href="#DejaVuSans-101"/>
      <use x="423.388672" xlink:href="#DejaVuSans-122"/>
      <use x="475.878906" xlink:href="#DejaVuSans-101"/>
      <use x="537.402344" xlink:href="#DejaVuSans-116"/>
      <use x="576.611328" xlink:href="#DejaVuSans-116"/>
      <use x="615.820312" xlink:href="#DejaVuSans-101"/>
      <use x="677.34375" xlink:href="#DejaVuSans-32"/>
      <use x="709.130859" xlink:href="#DejaVuSans-98"/>
      <use x="772.607422" xlink:href="#DejaVuSans-101"/>
      <use x="834.130859" xlink:href="#DejaVuSans-100"/>
      <use x="897.607422" xlink:href="#DejaVuSans-100"/>
      <use x="961.083984" xlink:href="#DejaVuSans-101"/>
      <use x="1022.607422" xlink:href="#DejaVuSans-110"/>
      <use x="1085.986328" xlink:href="#DejaVuSans-32"/>
      <use x="1117.773438" xlink:href="#DejaVuSans-76"/>
      <use x="1173.486328" xlink:href="#DejaVuSans-67"/>
      <use x="1243.310547" xlink:href="#DejaVuSans-80"/>
      <use x="1303.613281" xlink:href="#DejaVuSans-83"/>
      <use x="1367.089844" xlink:href="#DejaVuSans-32"/>
      <use x="1398.876953" xlink:href="#DejaVuSans-40"/>
      <use x="1437.890625" xlink:href="#DejaVuSans-110"/>
      <use x="1501.269531" xlink:href="#DejaVuSans-117"/>
      <use x="1564.648438" xlink:href="#DejaVuSans-32"/>
      <use x="1596.435547" xlink:href="#DejaVuSans-51"/>
      <use x="1660.058594" xlink:href="#DejaVuSans-49"/>
      <use x="1723.681641" xlink:href="#DejaVuSans-53"/>
      <use x="1787.304688" xlink:href="#DejaVuSans-41"/>
     </g>
    </g>
    <g id="line2d_43">
     <path d="M 99 85.654687 
L 119 85.654687 
" style="fill:none;stroke:#0000ff;stroke-linecap:square;stroke-width:1.5;"/>
    </g>
    <g id="line2d_44"/>
    <g id="text_22">
     <!-- non-covid bezette IC bedden LCPS (nu 543) -->
     <g transform="translate(127 89.154687)scale(0.1 -0.1)">
      <use xlink:href="#DejaVuSans-110"/>
      <use x="63.378906" xlink:href="#DejaVuSans-111"/>
      <use x="124.560547" xlink:href="#DejaVuSans-110"/>
      <use x="187.939453" xlink:href="#DejaVuSans-45"/>
      <use x="224.023438" xlink:href="#DejaVuSans-99"/>
      <use x="279.003906" xlink:href="#DejaVuSans-111"/>
      <use x="340.185547" xlink:href="#DejaVuSans-118"/>
      <use x="399.365234" xlink:href="#DejaVuSans-105"/>
      <use x="427.148438" xlink:href="#DejaVuSans-100"/>
      <use x="490.625" xlink:href="#DejaVuSans-32"/>
      <use x="522.412109" xlink:href="#DejaVuSans-98"/>
      <use x="585.888672" xlink:href="#DejaVuSans-101"/>
      <use x="647.412109" xlink:href="#DejaVuSans-122"/>
      <use x="699.902344" xlink:href="#DejaVuSans-101"/>
      <use x="761.425781" xlink:href="#DejaVuSans-116"/>
      <use x="800.634766" xlink:href="#DejaVuSans-116"/>
      <use x="839.84375" xlink:href="#DejaVuSans-101"/>
      <use x="901.367188" xlink:href="#DejaVuSans-32"/>
      <use x="933.154297" xlink:href="#DejaVuSans-73"/>
      <use x="962.646484" xlink:href="#DejaVuSans-67"/>
      <use x="1032.470703" xlink:href="#DejaVuSans-32"/>
      <use x="1064.257812" xlink:href="#DejaVuSans-98"/>
      <use x="1127.734375" xlink:href="#DejaVuSans-101"/>
      <use x="1189.257812" xlink:href="#DejaVuSans-100"/>
      <use x="1252.734375" xlink:href="#DejaVuSans-100"/>
      <use x="1316.210938" xlink:href="#DejaVuSans-101"/>
      <use x="1377.734375" xlink:href="#DejaVuSans-110"/>
      <use x="1441.113281" xlink:href="#DejaVuSans-32"/>
      <use x="1472.900391" xlink:href="#DejaVuSans-76"/>
      <use x="1528.613281" xlink:href="#DejaVuSans-67"/>
      <use x="1598.4375" xlink:href="#DejaVuSans-80"/>
      <use x="1658.740234" xlink:href="#DejaVuSans-83"/>
      <use x="1722.216797" xlink:href="#DejaVuSans-32"/>
      <use x="1754.003906" xlink:href="#DejaVuSans-40"/>
      <use x="1793.017578" xlink:href="#DejaVuSans-110"/>
      <use x="1856.396484" xlink:href="#DejaVuSans-117"/>
      <use x="1919.775391" xlink:href="#DejaVuSans-32"/>
      <use x="1951.5625" xlink:href="#DejaVuSans-53"/>
      <use x="2015.185547" xlink:href="#DejaVuSans-52"/>
      <use x="2078.808594" xlink:href="#DejaVuSans-51"/>
      <use x="2142.431641" xlink:href="#DejaVuSans-41"/>
     </g>
    </g>
    <g id="line2d_45">
     <path d="M 99 100.332812 
L 119 100.332812 
" style="fill:none;stroke:#00ffff;stroke-linecap:square;stroke-width:1.5;"/>
    </g>
    <g id="line2d_46"/>
    <g id="text_23">
     <!-- covid bezette IC bedden LCPS (nu 100) -->
     <g transform="translate(127 103.832812)scale(0.1 -0.1)">
      <use xlink:href="#DejaVuSans-99"/>
      <use x="54.980469" xlink:href="#DejaVuSans-111"/>
      <use x="116.162109" xlink:href="#DejaVuSans-118"/>
      <use x="175.341797" xlink:href="#DejaVuSans-105"/>
      <use x="203.125" xlink:href="#DejaVuSans-100"/>
      <use x="266.601562" xlink:href="#DejaVuSans-32"/>
      <use x="298.388672" xlink:href="#DejaVuSans-98"/>
      <use x="361.865234" xlink:href="#DejaVuSans-101"/>
      <use x="423.388672" xlink:href="#DejaVuSans-122"/>
      <use x="475.878906" xlink:href="#DejaVuSans-101"/>
      <use x="537.402344" xlink:href="#DejaVuSans-116"/>
      <use x="576.611328" xlink:href="#DejaVuSans-116"/>
      <use x="615.820312" xlink:href="#DejaVuSans-101"/>
      <use x="677.34375" xlink:href="#DejaVuSans-32"/>
      <use x="709.130859" xlink:href="#DejaVuSans-73"/>
      <use x="738.623047" xlink:href="#DejaVuSans-67"/>
      <use x="808.447266" xlink:href="#DejaVuSans-32"/>
      <use x="840.234375" xlink:href="#DejaVuSans-98"/>
      <use x="903.710938" xlink:href="#DejaVuSans-101"/>
      <use x="965.234375" xlink:href="#DejaVuSans-100"/>
      <use x="1028.710938" xlink:href="#DejaVuSans-100"/>
      <use x="1092.1875" xlink:href="#DejaVuSans-101"/>
      <use x="1153.710938" xlink:href="#DejaVuSans-110"/>
      <use x="1217.089844" xlink:href="#DejaVuSans-32"/>
      <use x="1248.876953" xlink:href="#DejaVuSans-76"/>
      <use x="1304.589844" xlink:href="#DejaVuSans-67"/>
      <use x="1374.414062" xlink:href="#DejaVuSans-80"/>
      <use x="1434.716797" xlink:href="#DejaVuSans-83"/>
      <use x="1498.193359" xlink:href="#DejaVuSans-32"/>
      <use x="1529.980469" xlink:href="#DejaVuSans-40"/>
      <use x="1568.994141" xlink:href="#DejaVuSans-110"/>
      <use x="1632.373047" xlink:href="#DejaVuSans-117"/>
      <use x="1695.751953" xlink:href="#DejaVuSans-32"/>
      <use x="1727.539062" xlink:href="#DejaVuSans-49"/>
      <use x="1791.162109" xlink:href="#DejaVuSans-48"/>
      <use x="1854.785156" xlink:href="#DejaVuSans-48"/>
      <use x="1918.408203" xlink:href="#DejaVuSans-41"/>
     </g>
    </g>
   </g>
  </g>
 </g>
 <defs>
  <clipPath id="pdb762066b8">
   <rect height="277.2" width="558" x="90" y="43.2"/>
  </clipPath>
 </defs>
</svg>
