<?xml version="1.0" encoding="utf-8" standalone="no"?>
<!DOCTYPE svg PUBLIC "-//W3C//DTD SVG 1.1//EN"
  "http://www.w3.org/Graphics/SVG/1.1/DTD/svg11.dtd">
<!-- Created with matplotlib (https://matplotlib.org/) -->
<svg height="360pt" version="1.1" viewBox="0 0 720 360" width="720pt" xmlns="http://www.w3.org/2000/svg" xmlns:xlink="http://www.w3.org/1999/xlink">
 <metadata>
  <rdf:RDF xmlns:cc="http://creativecommons.org/ns#" xmlns:dc="http://purl.org/dc/elements/1.1/" xmlns:rdf="http://www.w3.org/1999/02/22-rdf-syntax-ns#">
   <cc:Work>
    <dc:type rdf:resource="http://purl.org/dc/dcmitype/StillImage"/>
    <dc:date>2022-01-10T11:37:25.789079</dc:date>
    <dc:format>image/svg+xml</dc:format>
    <dc:creator>
     <cc:Agent>
      <dc:title>Matplotlib v3.3.2, https://matplotlib.org/</dc:title>
     </cc:Agent>
    </dc:creator>
   </cc:Work>
  </rdf:RDF>
 </metadata>
 <defs>
  <style type="text/css">*{stroke-linecap:butt;stroke-linejoin:round;}</style>
 </defs>
 <g id="figure_1">
  <g id="patch_1">
   <path d="M 0 360 
L 720 360 
L 720 0 
L 0 0 
z
" style="fill:#ffffff;"/>
  </g>
  <g id="axes_1">
   <g id="patch_2">
    <path d="M 90 320.4 
L 648 320.4 
L 648 43.2 
L 90 43.2 
z
" style="fill:#ffffff;"/>
   </g>
   <g id="matplotlib.axis_1">
    <g id="xtick_1">
     <g id="line2d_1">
      <path clip-path="url(#p12b96f6b4f)" d="M 140.615866 320.4 
L 140.615866 43.2 
" style="fill:none;stroke:#808080;stroke-dasharray:6.4,1.6,1,1.6;stroke-dashoffset:0;stroke-opacity:0.3;"/>
     </g>
     <g id="line2d_2">
      <defs>
       <path d="M 0 0 
L 0 3.5 
" id="m81edbe084a" style="stroke:#000000;stroke-width:0.8;"/>
      </defs>
      <g>
       <use style="stroke:#000000;stroke-width:0.8;" x="140.615866" xlink:href="#m81edbe084a" y="320.4"/>
      </g>
     </g>
     <g id="text_1">
      <!-- 2020-04 -->
      <g transform="translate(119.72446 334.998438)scale(0.1 -0.1)">
       <defs>
        <path d="M 19.1875 8.296875 
L 53.609375 8.296875 
L 53.609375 0 
L 7.328125 0 
L 7.328125 8.296875 
Q 12.9375 14.109375 22.625 23.890625 
Q 32.328125 33.6875 34.8125 36.53125 
Q 39.546875 41.84375 41.421875 45.53125 
Q 43.3125 49.21875 43.3125 52.78125 
Q 43.3125 58.59375 39.234375 62.25 
Q 35.15625 65.921875 28.609375 65.921875 
Q 23.96875 65.921875 18.8125 64.3125 
Q 13.671875 62.703125 7.8125 59.421875 
L 7.8125 69.390625 
Q 13.765625 71.78125 18.9375 73 
Q 24.125 74.21875 28.421875 74.21875 
Q 39.75 74.21875 46.484375 68.546875 
Q 53.21875 62.890625 53.21875 53.421875 
Q 53.21875 48.921875 51.53125 44.890625 
Q 49.859375 40.875 45.40625 35.40625 
Q 44.1875 33.984375 37.640625 27.21875 
Q 31.109375 20.453125 19.1875 8.296875 
z
" id="DejaVuSans-50"/>
        <path d="M 31.78125 66.40625 
Q 24.171875 66.40625 20.328125 58.90625 
Q 16.5 51.421875 16.5 36.375 
Q 16.5 21.390625 20.328125 13.890625 
Q 24.171875 6.390625 31.78125 6.390625 
Q 39.453125 6.390625 43.28125 13.890625 
Q 47.125 21.390625 47.125 36.375 
Q 47.125 51.421875 43.28125 58.90625 
Q 39.453125 66.40625 31.78125 66.40625 
z
M 31.78125 74.21875 
Q 44.046875 74.21875 50.515625 64.515625 
Q 56.984375 54.828125 56.984375 36.375 
Q 56.984375 17.96875 50.515625 8.265625 
Q 44.046875 -1.421875 31.78125 -1.421875 
Q 19.53125 -1.421875 13.0625 8.265625 
Q 6.59375 17.96875 6.59375 36.375 
Q 6.59375 54.828125 13.0625 64.515625 
Q 19.53125 74.21875 31.78125 74.21875 
z
" id="DejaVuSans-48"/>
        <path d="M 4.890625 31.390625 
L 31.203125 31.390625 
L 31.203125 23.390625 
L 4.890625 23.390625 
z
" id="DejaVuSans-45"/>
        <path d="M 37.796875 64.3125 
L 12.890625 25.390625 
L 37.796875 25.390625 
z
M 35.203125 72.90625 
L 47.609375 72.90625 
L 47.609375 25.390625 
L 58.015625 25.390625 
L 58.015625 17.1875 
L 47.609375 17.1875 
L 47.609375 0 
L 37.796875 0 
L 37.796875 17.1875 
L 4.890625 17.1875 
L 4.890625 26.703125 
z
" id="DejaVuSans-52"/>
       </defs>
       <use xlink:href="#DejaVuSans-50"/>
       <use x="63.623047" xlink:href="#DejaVuSans-48"/>
       <use x="127.246094" xlink:href="#DejaVuSans-50"/>
       <use x="190.869141" xlink:href="#DejaVuSans-48"/>
       <use x="254.492188" xlink:href="#DejaVuSans-45"/>
       <use x="290.576172" xlink:href="#DejaVuSans-48"/>
       <use x="354.199219" xlink:href="#DejaVuSans-52"/>
      </g>
     </g>
    </g>
    <g id="xtick_2">
     <g id="line2d_3">
      <path clip-path="url(#p12b96f6b4f)" d="M 208.202715 320.4 
L 208.202715 43.2 
" style="fill:none;stroke:#808080;stroke-dasharray:6.4,1.6,1,1.6;stroke-dashoffset:0;stroke-opacity:0.3;"/>
     </g>
     <g id="line2d_4">
      <g>
       <use style="stroke:#000000;stroke-width:0.8;" x="208.202715" xlink:href="#m81edbe084a" y="320.4"/>
      </g>
     </g>
     <g id="text_2">
      <!-- 2020-07 -->
      <g transform="translate(187.311309 334.998438)scale(0.1 -0.1)">
       <defs>
        <path d="M 8.203125 72.90625 
L 55.078125 72.90625 
L 55.078125 68.703125 
L 28.609375 0 
L 18.3125 0 
L 43.21875 64.59375 
L 8.203125 64.59375 
z
" id="DejaVuSans-55"/>
       </defs>
       <use xlink:href="#DejaVuSans-50"/>
       <use x="63.623047" xlink:href="#DejaVuSans-48"/>
       <use x="127.246094" xlink:href="#DejaVuSans-50"/>
       <use x="190.869141" xlink:href="#DejaVuSans-48"/>
       <use x="254.492188" xlink:href="#DejaVuSans-45"/>
       <use x="290.576172" xlink:href="#DejaVuSans-48"/>
       <use x="354.199219" xlink:href="#DejaVuSans-55"/>
      </g>
     </g>
    </g>
    <g id="xtick_3">
     <g id="line2d_5">
      <path clip-path="url(#p12b96f6b4f)" d="M 276.532277 320.4 
L 276.532277 43.2 
" style="fill:none;stroke:#808080;stroke-dasharray:6.4,1.6,1,1.6;stroke-dashoffset:0;stroke-opacity:0.3;"/>
     </g>
     <g id="line2d_6">
      <g>
       <use style="stroke:#000000;stroke-width:0.8;" x="276.532277" xlink:href="#m81edbe084a" y="320.4"/>
      </g>
     </g>
     <g id="text_3">
      <!-- 2020-10 -->
      <g transform="translate(255.640871 334.998438)scale(0.1 -0.1)">
       <defs>
        <path d="M 12.40625 8.296875 
L 28.515625 8.296875 
L 28.515625 63.921875 
L 10.984375 60.40625 
L 10.984375 69.390625 
L 28.421875 72.90625 
L 38.28125 72.90625 
L 38.28125 8.296875 
L 54.390625 8.296875 
L 54.390625 0 
L 12.40625 0 
z
" id="DejaVuSans-49"/>
       </defs>
       <use xlink:href="#DejaVuSans-50"/>
       <use x="63.623047" xlink:href="#DejaVuSans-48"/>
       <use x="127.246094" xlink:href="#DejaVuSans-50"/>
       <use x="190.869141" xlink:href="#DejaVuSans-48"/>
       <use x="254.492188" xlink:href="#DejaVuSans-45"/>
       <use x="290.576172" xlink:href="#DejaVuSans-49"/>
       <use x="354.199219" xlink:href="#DejaVuSans-48"/>
      </g>
     </g>
    </g>
    <g id="xtick_4">
     <g id="line2d_7">
      <path clip-path="url(#p12b96f6b4f)" d="M 344.861839 320.4 
L 344.861839 43.2 
" style="fill:none;stroke:#808080;stroke-dasharray:6.4,1.6,1,1.6;stroke-dashoffset:0;stroke-opacity:0.3;"/>
     </g>
     <g id="line2d_8">
      <g>
       <use style="stroke:#000000;stroke-width:0.8;" x="344.861839" xlink:href="#m81edbe084a" y="320.4"/>
      </g>
     </g>
     <g id="text_4">
      <!-- 2021-01 -->
      <g transform="translate(323.970433 334.998438)scale(0.1 -0.1)">
       <use xlink:href="#DejaVuSans-50"/>
       <use x="63.623047" xlink:href="#DejaVuSans-48"/>
       <use x="127.246094" xlink:href="#DejaVuSans-50"/>
       <use x="190.869141" xlink:href="#DejaVuSans-49"/>
       <use x="254.492188" xlink:href="#DejaVuSans-45"/>
       <use x="290.576172" xlink:href="#DejaVuSans-48"/>
       <use x="354.199219" xlink:href="#DejaVuSans-49"/>
      </g>
     </g>
    </g>
    <g id="xtick_5">
     <g id="line2d_9">
      <path clip-path="url(#p12b96f6b4f)" d="M 411.705976 320.4 
L 411.705976 43.2 
" style="fill:none;stroke:#808080;stroke-dasharray:6.4,1.6,1,1.6;stroke-dashoffset:0;stroke-opacity:0.3;"/>
     </g>
     <g id="line2d_10">
      <g>
       <use style="stroke:#000000;stroke-width:0.8;" x="411.705976" xlink:href="#m81edbe084a" y="320.4"/>
      </g>
     </g>
     <g id="text_5">
      <!-- 2021-04 -->
      <g transform="translate(390.81457 334.998438)scale(0.1 -0.1)">
       <use xlink:href="#DejaVuSans-50"/>
       <use x="63.623047" xlink:href="#DejaVuSans-48"/>
       <use x="127.246094" xlink:href="#DejaVuSans-50"/>
       <use x="190.869141" xlink:href="#DejaVuSans-49"/>
       <use x="254.492188" xlink:href="#DejaVuSans-45"/>
       <use x="290.576172" xlink:href="#DejaVuSans-48"/>
       <use x="354.199219" xlink:href="#DejaVuSans-52"/>
      </g>
     </g>
    </g>
    <g id="xtick_6">
     <g id="line2d_11">
      <path clip-path="url(#p12b96f6b4f)" d="M 479.292826 320.4 
L 479.292826 43.2 
" style="fill:none;stroke:#808080;stroke-dasharray:6.4,1.6,1,1.6;stroke-dashoffset:0;stroke-opacity:0.3;"/>
     </g>
     <g id="line2d_12">
      <g>
       <use style="stroke:#000000;stroke-width:0.8;" x="479.292826" xlink:href="#m81edbe084a" y="320.4"/>
      </g>
     </g>
     <g id="text_6">
      <!-- 2021-07 -->
      <g transform="translate(458.40142 334.998438)scale(0.1 -0.1)">
       <use xlink:href="#DejaVuSans-50"/>
       <use x="63.623047" xlink:href="#DejaVuSans-48"/>
       <use x="127.246094" xlink:href="#DejaVuSans-50"/>
       <use x="190.869141" xlink:href="#DejaVuSans-49"/>
       <use x="254.492188" xlink:href="#DejaVuSans-45"/>
       <use x="290.576172" xlink:href="#DejaVuSans-48"/>
       <use x="354.199219" xlink:href="#DejaVuSans-55"/>
      </g>
     </g>
    </g>
    <g id="xtick_7">
     <g id="line2d_13">
      <path clip-path="url(#p12b96f6b4f)" d="M 547.622388 320.4 
L 547.622388 43.2 
" style="fill:none;stroke:#808080;stroke-dasharray:6.4,1.6,1,1.6;stroke-dashoffset:0;stroke-opacity:0.3;"/>
     </g>
     <g id="line2d_14">
      <g>
       <use style="stroke:#000000;stroke-width:0.8;" x="547.622388" xlink:href="#m81edbe084a" y="320.4"/>
      </g>
     </g>
     <g id="text_7">
      <!-- 2021-10 -->
      <g transform="translate(526.730982 334.998438)scale(0.1 -0.1)">
       <use xlink:href="#DejaVuSans-50"/>
       <use x="63.623047" xlink:href="#DejaVuSans-48"/>
       <use x="127.246094" xlink:href="#DejaVuSans-50"/>
       <use x="190.869141" xlink:href="#DejaVuSans-49"/>
       <use x="254.492188" xlink:href="#DejaVuSans-45"/>
       <use x="290.576172" xlink:href="#DejaVuSans-49"/>
       <use x="354.199219" xlink:href="#DejaVuSans-48"/>
      </g>
     </g>
    </g>
    <g id="xtick_8">
     <g id="line2d_15">
      <path clip-path="url(#p12b96f6b4f)" d="M 615.95195 320.4 
L 615.95195 43.2 
" style="fill:none;stroke:#808080;stroke-dasharray:6.4,1.6,1,1.6;stroke-dashoffset:0;stroke-opacity:0.3;"/>
     </g>
     <g id="line2d_16">
      <g>
       <use style="stroke:#000000;stroke-width:0.8;" x="615.95195" xlink:href="#m81edbe084a" y="320.4"/>
      </g>
     </g>
     <g id="text_8">
      <!-- 2022-01 -->
      <g transform="translate(595.060544 334.998438)scale(0.1 -0.1)">
       <use xlink:href="#DejaVuSans-50"/>
       <use x="63.623047" xlink:href="#DejaVuSans-48"/>
       <use x="127.246094" xlink:href="#DejaVuSans-50"/>
       <use x="190.869141" xlink:href="#DejaVuSans-50"/>
       <use x="254.492188" xlink:href="#DejaVuSans-45"/>
       <use x="290.576172" xlink:href="#DejaVuSans-48"/>
       <use x="354.199219" xlink:href="#DejaVuSans-49"/>
      </g>
     </g>
    </g>
    <g id="text_9">
     <!-- Datum -->
     <g transform="translate(352.086719 348.676562)scale(0.1 -0.1)">
      <defs>
       <path d="M 19.671875 64.796875 
L 19.671875 8.109375 
L 31.59375 8.109375 
Q 46.6875 8.109375 53.6875 14.9375 
Q 60.6875 21.78125 60.6875 36.53125 
Q 60.6875 51.171875 53.6875 57.984375 
Q 46.6875 64.796875 31.59375 64.796875 
z
M 9.8125 72.90625 
L 30.078125 72.90625 
Q 51.265625 72.90625 61.171875 64.09375 
Q 71.09375 55.28125 71.09375 36.53125 
Q 71.09375 17.671875 61.125 8.828125 
Q 51.171875 0 30.078125 0 
L 9.8125 0 
z
" id="DejaVuSans-68"/>
       <path d="M 34.28125 27.484375 
Q 23.390625 27.484375 19.1875 25 
Q 14.984375 22.515625 14.984375 16.5 
Q 14.984375 11.71875 18.140625 8.90625 
Q 21.296875 6.109375 26.703125 6.109375 
Q 34.1875 6.109375 38.703125 11.40625 
Q 43.21875 16.703125 43.21875 25.484375 
L 43.21875 27.484375 
z
M 52.203125 31.203125 
L 52.203125 0 
L 43.21875 0 
L 43.21875 8.296875 
Q 40.140625 3.328125 35.546875 0.953125 
Q 30.953125 -1.421875 24.3125 -1.421875 
Q 15.921875 -1.421875 10.953125 3.296875 
Q 6 8.015625 6 15.921875 
Q 6 25.140625 12.171875 29.828125 
Q 18.359375 34.515625 30.609375 34.515625 
L 43.21875 34.515625 
L 43.21875 35.40625 
Q 43.21875 41.609375 39.140625 45 
Q 35.0625 48.390625 27.6875 48.390625 
Q 23 48.390625 18.546875 47.265625 
Q 14.109375 46.140625 10.015625 43.890625 
L 10.015625 52.203125 
Q 14.9375 54.109375 19.578125 55.046875 
Q 24.21875 56 28.609375 56 
Q 40.484375 56 46.34375 49.84375 
Q 52.203125 43.703125 52.203125 31.203125 
z
" id="DejaVuSans-97"/>
       <path d="M 18.3125 70.21875 
L 18.3125 54.6875 
L 36.8125 54.6875 
L 36.8125 47.703125 
L 18.3125 47.703125 
L 18.3125 18.015625 
Q 18.3125 11.328125 20.140625 9.421875 
Q 21.96875 7.515625 27.59375 7.515625 
L 36.8125 7.515625 
L 36.8125 0 
L 27.59375 0 
Q 17.1875 0 13.234375 3.875 
Q 9.28125 7.765625 9.28125 18.015625 
L 9.28125 47.703125 
L 2.6875 47.703125 
L 2.6875 54.6875 
L 9.28125 54.6875 
L 9.28125 70.21875 
z
" id="DejaVuSans-116"/>
       <path d="M 8.5 21.578125 
L 8.5 54.6875 
L 17.484375 54.6875 
L 17.484375 21.921875 
Q 17.484375 14.15625 20.5 10.265625 
Q 23.53125 6.390625 29.59375 6.390625 
Q 36.859375 6.390625 41.078125 11.03125 
Q 45.3125 15.671875 45.3125 23.6875 
L 45.3125 54.6875 
L 54.296875 54.6875 
L 54.296875 0 
L 45.3125 0 
L 45.3125 8.40625 
Q 42.046875 3.421875 37.71875 1 
Q 33.40625 -1.421875 27.6875 -1.421875 
Q 18.265625 -1.421875 13.375 4.4375 
Q 8.5 10.296875 8.5 21.578125 
z
M 31.109375 56 
z
" id="DejaVuSans-117"/>
       <path d="M 52 44.1875 
Q 55.375 50.25 60.0625 53.125 
Q 64.75 56 71.09375 56 
Q 79.640625 56 84.28125 50.015625 
Q 88.921875 44.046875 88.921875 33.015625 
L 88.921875 0 
L 79.890625 0 
L 79.890625 32.71875 
Q 79.890625 40.578125 77.09375 44.375 
Q 74.3125 48.1875 68.609375 48.1875 
Q 61.625 48.1875 57.5625 43.546875 
Q 53.515625 38.921875 53.515625 30.90625 
L 53.515625 0 
L 44.484375 0 
L 44.484375 32.71875 
Q 44.484375 40.625 41.703125 44.40625 
Q 38.921875 48.1875 33.109375 48.1875 
Q 26.21875 48.1875 22.15625 43.53125 
Q 18.109375 38.875 18.109375 30.90625 
L 18.109375 0 
L 9.078125 0 
L 9.078125 54.6875 
L 18.109375 54.6875 
L 18.109375 46.1875 
Q 21.1875 51.21875 25.484375 53.609375 
Q 29.78125 56 35.6875 56 
Q 41.65625 56 45.828125 52.96875 
Q 50 49.953125 52 44.1875 
z
" id="DejaVuSans-109"/>
      </defs>
      <use xlink:href="#DejaVuSans-68"/>
      <use x="77.001953" xlink:href="#DejaVuSans-97"/>
      <use x="138.28125" xlink:href="#DejaVuSans-116"/>
      <use x="177.490234" xlink:href="#DejaVuSans-117"/>
      <use x="240.869141" xlink:href="#DejaVuSans-109"/>
     </g>
    </g>
   </g>
   <g id="matplotlib.axis_2">
    <g id="ytick_1">
     <g id="line2d_17">
      <path clip-path="url(#p12b96f6b4f)" d="M 90 307.876759 
L 648 307.876759 
" style="fill:none;stroke:#808080;stroke-dasharray:6.4,1.6,1,1.6;stroke-dashoffset:0;stroke-opacity:0.3;"/>
     </g>
     <g id="line2d_18">
      <defs>
       <path d="M 0 0 
L -3.5 0 
" id="mdfc5f3189d" style="stroke:#000000;stroke-width:0.8;"/>
      </defs>
      <g>
       <use style="stroke:#000000;stroke-width:0.8;" x="90" xlink:href="#mdfc5f3189d" y="307.876759"/>
      </g>
     </g>
     <g id="text_10">
      <!-- 0 -->
      <g transform="translate(76.6375 311.675978)scale(0.1 -0.1)">
       <use xlink:href="#DejaVuSans-48"/>
      </g>
     </g>
    </g>
    <g id="ytick_2">
     <g id="line2d_19">
      <path clip-path="url(#p12b96f6b4f)" d="M 90 269.497228 
L 648 269.497228 
" style="fill:none;stroke:#808080;stroke-dasharray:6.4,1.6,1,1.6;stroke-dashoffset:0;stroke-opacity:0.3;"/>
     </g>
     <g id="line2d_20">
      <g>
       <use style="stroke:#000000;stroke-width:0.8;" x="90" xlink:href="#mdfc5f3189d" y="269.497228"/>
      </g>
     </g>
     <g id="text_11">
      <!-- 500 -->
      <g transform="translate(63.9125 273.296447)scale(0.1 -0.1)">
       <defs>
        <path d="M 10.796875 72.90625 
L 49.515625 72.90625 
L 49.515625 64.59375 
L 19.828125 64.59375 
L 19.828125 46.734375 
Q 21.96875 47.46875 24.109375 47.828125 
Q 26.265625 48.1875 28.421875 48.1875 
Q 40.625 48.1875 47.75 41.5 
Q 54.890625 34.8125 54.890625 23.390625 
Q 54.890625 11.625 47.5625 5.09375 
Q 40.234375 -1.421875 26.90625 -1.421875 
Q 22.3125 -1.421875 17.546875 -0.640625 
Q 12.796875 0.140625 7.71875 1.703125 
L 7.71875 11.625 
Q 12.109375 9.234375 16.796875 8.0625 
Q 21.484375 6.890625 26.703125 6.890625 
Q 35.15625 6.890625 40.078125 11.328125 
Q 45.015625 15.765625 45.015625 23.390625 
Q 45.015625 31 40.078125 35.4375 
Q 35.15625 39.890625 26.703125 39.890625 
Q 22.75 39.890625 18.8125 39.015625 
Q 14.890625 38.140625 10.796875 36.28125 
z
" id="DejaVuSans-53"/>
       </defs>
       <use xlink:href="#DejaVuSans-53"/>
       <use x="63.623047" xlink:href="#DejaVuSans-48"/>
       <use x="127.246094" xlink:href="#DejaVuSans-48"/>
      </g>
     </g>
    </g>
    <g id="ytick_3">
     <g id="line2d_21">
      <path clip-path="url(#p12b96f6b4f)" d="M 90 231.117697 
L 648 231.117697 
" style="fill:none;stroke:#808080;stroke-dasharray:6.4,1.6,1,1.6;stroke-dashoffset:0;stroke-opacity:0.3;"/>
     </g>
     <g id="line2d_22">
      <g>
       <use style="stroke:#000000;stroke-width:0.8;" x="90" xlink:href="#mdfc5f3189d" y="231.117697"/>
      </g>
     </g>
     <g id="text_12">
      <!-- 1000 -->
      <g transform="translate(57.55 234.916916)scale(0.1 -0.1)">
       <use xlink:href="#DejaVuSans-49"/>
       <use x="63.623047" xlink:href="#DejaVuSans-48"/>
       <use x="127.246094" xlink:href="#DejaVuSans-48"/>
       <use x="190.869141" xlink:href="#DejaVuSans-48"/>
      </g>
     </g>
    </g>
    <g id="ytick_4">
     <g id="line2d_23">
      <path clip-path="url(#p12b96f6b4f)" d="M 90 192.738166 
L 648 192.738166 
" style="fill:none;stroke:#808080;stroke-dasharray:6.4,1.6,1,1.6;stroke-dashoffset:0;stroke-opacity:0.3;"/>
     </g>
     <g id="line2d_24">
      <g>
       <use style="stroke:#000000;stroke-width:0.8;" x="90" xlink:href="#mdfc5f3189d" y="192.738166"/>
      </g>
     </g>
     <g id="text_13">
      <!-- 1500 -->
      <g transform="translate(57.55 196.537385)scale(0.1 -0.1)">
       <use xlink:href="#DejaVuSans-49"/>
       <use x="63.623047" xlink:href="#DejaVuSans-53"/>
       <use x="127.246094" xlink:href="#DejaVuSans-48"/>
       <use x="190.869141" xlink:href="#DejaVuSans-48"/>
      </g>
     </g>
    </g>
    <g id="ytick_5">
     <g id="line2d_25">
      <path clip-path="url(#p12b96f6b4f)" d="M 90 154.358635 
L 648 154.358635 
" style="fill:none;stroke:#808080;stroke-dasharray:6.4,1.6,1,1.6;stroke-dashoffset:0;stroke-opacity:0.3;"/>
     </g>
     <g id="line2d_26">
      <g>
       <use style="stroke:#000000;stroke-width:0.8;" x="90" xlink:href="#mdfc5f3189d" y="154.358635"/>
      </g>
     </g>
     <g id="text_14">
      <!-- 2000 -->
      <g transform="translate(57.55 158.157854)scale(0.1 -0.1)">
       <use xlink:href="#DejaVuSans-50"/>
       <use x="63.623047" xlink:href="#DejaVuSans-48"/>
       <use x="127.246094" xlink:href="#DejaVuSans-48"/>
       <use x="190.869141" xlink:href="#DejaVuSans-48"/>
      </g>
     </g>
    </g>
    <g id="ytick_6">
     <g id="line2d_27">
      <path clip-path="url(#p12b96f6b4f)" d="M 90 115.979104 
L 648 115.979104 
" style="fill:none;stroke:#808080;stroke-dasharray:6.4,1.6,1,1.6;stroke-dashoffset:0;stroke-opacity:0.3;"/>
     </g>
     <g id="line2d_28">
      <g>
       <use style="stroke:#000000;stroke-width:0.8;" x="90" xlink:href="#mdfc5f3189d" y="115.979104"/>
      </g>
     </g>
     <g id="text_15">
      <!-- 2500 -->
      <g transform="translate(57.55 119.778323)scale(0.1 -0.1)">
       <use xlink:href="#DejaVuSans-50"/>
       <use x="63.623047" xlink:href="#DejaVuSans-53"/>
       <use x="127.246094" xlink:href="#DejaVuSans-48"/>
       <use x="190.869141" xlink:href="#DejaVuSans-48"/>
      </g>
     </g>
    </g>
    <g id="ytick_7">
     <g id="line2d_29">
      <path clip-path="url(#p12b96f6b4f)" d="M 90 77.599574 
L 648 77.599574 
" style="fill:none;stroke:#808080;stroke-dasharray:6.4,1.6,1,1.6;stroke-dashoffset:0;stroke-opacity:0.3;"/>
     </g>
     <g id="line2d_30">
      <g>
       <use style="stroke:#000000;stroke-width:0.8;" x="90" xlink:href="#mdfc5f3189d" y="77.599574"/>
      </g>
     </g>
     <g id="text_16">
      <!-- 3000 -->
      <g transform="translate(57.55 81.398792)scale(0.1 -0.1)">
       <defs>
        <path d="M 40.578125 39.3125 
Q 47.65625 37.796875 51.625 33 
Q 55.609375 28.21875 55.609375 21.1875 
Q 55.609375 10.40625 48.1875 4.484375 
Q 40.765625 -1.421875 27.09375 -1.421875 
Q 22.515625 -1.421875 17.65625 -0.515625 
Q 12.796875 0.390625 7.625 2.203125 
L 7.625 11.71875 
Q 11.71875 9.328125 16.59375 8.109375 
Q 21.484375 6.890625 26.8125 6.890625 
Q 36.078125 6.890625 40.9375 10.546875 
Q 45.796875 14.203125 45.796875 21.1875 
Q 45.796875 27.640625 41.28125 31.265625 
Q 36.765625 34.90625 28.71875 34.90625 
L 20.21875 34.90625 
L 20.21875 43.015625 
L 29.109375 43.015625 
Q 36.375 43.015625 40.234375 45.921875 
Q 44.09375 48.828125 44.09375 54.296875 
Q 44.09375 59.90625 40.109375 62.90625 
Q 36.140625 65.921875 28.71875 65.921875 
Q 24.65625 65.921875 20.015625 65.03125 
Q 15.375 64.15625 9.8125 62.3125 
L 9.8125 71.09375 
Q 15.4375 72.65625 20.34375 73.4375 
Q 25.25 74.21875 29.59375 74.21875 
Q 40.828125 74.21875 47.359375 69.109375 
Q 53.90625 64.015625 53.90625 55.328125 
Q 53.90625 49.265625 50.4375 45.09375 
Q 46.96875 40.921875 40.578125 39.3125 
z
" id="DejaVuSans-51"/>
       </defs>
       <use xlink:href="#DejaVuSans-51"/>
       <use x="63.623047" xlink:href="#DejaVuSans-48"/>
       <use x="127.246094" xlink:href="#DejaVuSans-48"/>
       <use x="190.869141" xlink:href="#DejaVuSans-48"/>
      </g>
     </g>
    </g>
   </g>
   <g id="line2d_31">
    <path clip-path="url(#p12b96f6b4f)" d="M 115.363636 303.194456 
L 116.106349 302.88742 
L 116.849062 302.88742 
L 117.591774 302.350107 
L 118.334487 301.505757 
L 119.0772 300.968443 
L 119.819912 300.047335 
L 120.562625 299.356503 
L 121.305337 297.97484 
L 122.04805 297.360768 
L 122.790763 295.979104 
L 124.276188 292.29467 
L 125.018901 289.531343 
L 125.761613 286.230704 
L 126.504326 280.934328 
L 127.247038 277.940725 
L 127.989751 274.25629 
L 128.732464 264.047335 
L 129.475176 257.599574 
L 130.217889 247.774414 
L 130.960602 231.73177 
L 131.703314 218.452452 
L 132.446027 212.311727 
L 133.18874 204.482303 
L 133.931452 179.38209 
L 135.416877 143.228571 
L 136.15959 128.183795 
L 136.902303 108.14968 
L 137.645015 112.908742 
L 138.387728 116.516418 
L 139.130441 105.309595 
L 139.873153 110.913006 
L 140.615866 118.281876 
L 141.358578 120.047335 
L 142.101291 119.58678 
L 142.844004 135.782942 
L 143.586716 139.544136 
L 144.329429 130.333049 
L 145.814854 151.825586 
L 146.557567 165.335181 
L 147.30028 172.166738 
L 148.042992 186.520682 
L 148.785705 190.81919 
L 149.528417 191.433262 
L 150.27113 190.512154 
L 151.013843 197.190192 
L 151.756555 205.633689 
L 152.499268 208.857569 
L 153.241981 219.757356 
L 153.984693 221.676333 
L 154.727406 218.759488 
L 155.470118 222.367164 
L 156.212831 228.507889 
L 156.955544 231.73177 
L 157.698256 236.107036 
L 158.440969 246.008955 
L 159.183682 248.158209 
L 159.926394 249.309595 
L 160.669107 248.004691 
L 161.41182 252.533475 
L 162.154532 254.452452 
L 162.897245 258.597441 
L 163.639957 264.968443 
L 164.38267 266.196588 
L 165.125383 262.435394 
L 165.868095 267.578252 
L 166.610808 266.503625 
L 167.353521 268.49936 
L 168.096233 268.576119 
L 168.838946 272.260554 
L 169.581658 273.642217 
L 170.324371 271.416205 
L 172.552509 278.247761 
L 173.295222 279.859701 
L 174.037934 283.160341 
L 174.780647 282.085714 
L 175.52336 279.629424 
L 176.266072 281.471642 
L 177.008785 282.46951 
L 177.751497 285.079318 
L 178.49421 282.776546 
L 179.236923 285.539872 
L 179.979635 286.153945 
L 180.722348 283.467377 
L 181.465061 283.927932 
L 182.207773 286.230704 
L 182.950486 287.842644 
L 183.693198 287.689126 
L 184.435911 288.99403 
L 185.178624 289.377825 
L 185.921336 289.070789 
L 186.664049 287.38209 
L 187.406762 287.996162 
L 188.892187 290.452452 
L 189.6349 293.06226 
L 191.120325 293.06226 
L 191.863037 294.597441 
L 192.60575 295.825586 
L 193.348463 295.51855 
L 194.091175 296.209382 
L 194.833888 297.667804 
L 195.576601 297.744563 
L 196.319313 297.514286 
L 197.062026 297.514286 
L 197.804738 298.128358 
L 198.547451 298.051599 
L 199.290164 298.358635 
L 200.032876 299.817058 
L 200.775589 299.740299 
L 201.518302 299.510021 
L 202.261014 299.433262 
L 203.003727 299.510021 
L 203.74644 298.972708 
L 204.489152 299.279744 
L 205.231865 300.891684 
L 205.974577 300.584648 
L 206.71729 299.893817 
L 207.460003 300.968443 
L 208.202715 301.121962 
L 208.945428 301.659275 
L 209.688141 301.659275 
L 210.430853 302.426866 
L 212.658991 301.736034 
L 213.401704 301.889552 
L 214.144416 301.889552 
L 214.887129 301.121962 
L 215.629842 301.736034 
L 216.372554 301.736034 
L 217.115267 301.198721 
L 217.85798 301.121962 
L 218.600692 301.659275 
L 219.343405 301.966311 
L 220.086117 302.119829 
L 220.82883 301.582516 
L 222.314255 301.121962 
L 223.056968 301.121962 
L 223.799681 301.966311 
L 224.542393 301.505757 
L 225.285106 301.659275 
L 226.770531 301.27548 
L 227.513244 300.661407 
L 228.255956 300.43113 
L 228.998669 301.121962 
L 230.484094 300.507889 
L 231.226807 300.43113 
L 232.712232 298.895949 
L 233.454945 299.433262 
L 234.197657 299.817058 
L 234.94037 299.893817 
L 236.425795 298.81919 
L 237.168508 297.821322 
L 237.911221 297.053731 
L 238.653933 295.51855 
L 239.396646 295.288273 
L 240.139358 295.441791 
L 241.624784 296.055864 
L 242.367496 295.441791 
L 243.110209 294.136887 
L 243.852922 294.520682 
L 244.595634 294.290405 
L 245.338347 293.599574 
L 246.081059 294.060128 
L 246.823772 295.595309 
L 247.566485 295.51855 
L 248.309197 295.211514 
L 249.05191 294.750959 
L 249.794623 295.51855 
L 250.537335 296.669936 
L 251.280048 296.516418 
L 252.022761 297.821322 
L 252.765473 297.667804 
L 253.508186 296.823454 
L 254.250898 296.900213 
L 254.993611 296.439659 
L 255.736324 296.823454 
L 256.479036 296.286141 
L 257.221749 296.286141 
L 260.192599 290.682729 
L 260.935312 291.143284 
L 261.678025 289.684861 
L 262.420737 289.915139 
L 263.16345 288.917271 
L 263.906163 285.770149 
L 264.648875 285.079318 
L 265.391588 283.006823 
L 266.134301 281.62516 
L 266.877013 278.708316 
L 268.362438 275.791471 
L 269.105151 271.8 
L 269.847864 269.573987 
L 271.333289 262.512154 
L 272.076002 260.3629 
L 272.818714 260.746695 
L 273.561427 258.213646 
L 274.304139 253.991898 
L 275.046852 251.151812 
L 275.789565 249.770149 
L 276.532277 247.544136 
L 278.017703 244.243497 
L 278.760415 241.173134 
L 279.503128 233.190192 
L 280.245841 229.736034 
L 280.988553 227.970576 
L 281.731266 225.744563 
L 282.473978 219.987633 
L 283.216691 221.369296 
L 283.959404 216.917271 
L 284.702116 205.633689 
L 285.444829 198.18806 
L 286.187542 198.648614 
L 286.930254 196.49936 
L 287.672967 192.738166 
L 288.415679 193.428998 
L 289.158392 190.81919 
L 289.901105 179.151812 
L 290.643817 174.623028 
L 291.38653 172.089979 
L 292.871955 160.345842 
L 293.614668 165.718977 
L 294.357381 160.269083 
L 295.100093 147.910874 
L 295.842806 147.296802 
L 296.585518 148.985501 
L 297.328231 151.211514 
L 298.070944 149.676333 
L 298.813656 155.740299 
L 299.556369 153.97484 
L 300.299082 137.932196 
L 301.041794 142.000426 
L 302.527219 152.593177 
L 303.269932 158.350107 
L 304.012645 169.863966 
L 304.755357 171.399147 
L 305.49807 160.269083 
L 306.240783 165.104904 
L 307.726208 172.397015 
L 308.468921 173.855437 
L 309.211633 184.21791 
L 309.954346 184.601706 
L 310.697058 173.318124 
L 311.439771 175.544136 
L 312.925196 184.601706 
L 314.410622 198.95565 
L 315.153334 196.345842 
L 315.896047 186.367164 
L 316.638759 189.97484 
L 317.381472 195.347974 
L 318.124185 194.88742 
L 318.866897 195.73177 
L 319.60961 203.407676 
L 320.352323 203.023881 
L 321.095035 196.49936 
L 321.837748 200.030277 
L 322.580461 202.870362 
L 323.323173 202.25629 
L 324.065886 199.646482 
L 324.808598 203.407676 
L 325.551311 200.260554 
L 326.294024 191.817058 
L 327.036736 192.968443 
L 327.779449 194.350107 
L 328.522162 194.580384 
L 329.264874 188.976972 
L 330.007587 191.049467 
L 330.750299 186.981237 
L 331.493012 173.778678 
L 332.235725 174.162473 
L 332.978437 171.859701 
L 333.72115 168.405544 
L 334.463863 164.260554 
L 335.206575 171.629424 
L 335.949288 170.554797 
L 336.692001 155.433262 
L 337.434713 154.051599 
L 338.177426 152.055864 
L 338.920138 150.597441 
L 339.662851 158.426866 
L 340.405564 155.356503 
L 341.148276 148.448188 
L 341.890989 126.725373 
L 342.633702 128.337313 
L 343.376414 131.484435 
L 344.119127 137.548401 
L 344.861839 150.060128 
L 345.604552 146.222175 
L 346.347265 144.379957 
L 347.089977 134.861834 
L 347.83269 137.548401 
L 350.060828 150.904478 
L 350.803541 164.414072 
L 351.546253 163.723241 
L 352.288966 153.437527 
L 353.774391 162.802132 
L 354.517104 167.561194 
L 355.259816 169.173134 
L 356.002529 178.998294 
L 356.745242 182.452452 
L 357.487954 172.627292 
L 358.230667 173.62516 
L 358.973379 179.535608 
L 359.716092 179.535608 
L 360.458805 181.454584 
L 361.201517 187.211514 
L 361.94423 186.520682 
L 362.686943 179.151812 
L 363.429655 182.682729 
L 364.172368 187.672068 
L 364.915081 190.972708 
L 365.657793 189.97484 
L 366.400506 195.347974 
L 367.143218 192.584648 
L 367.885931 184.448188 
L 368.628644 186.981237 
L 369.371356 191.356503 
L 370.114069 193.889552 
L 370.856782 194.580384 
L 371.599494 204.098507 
L 372.342207 205.480171 
L 373.084919 197.420469 
L 373.827632 199.416205 
L 374.570345 199.416205 
L 375.313057 200.414072 
L 376.05577 202.179531 
L 376.798483 209.701919 
L 377.541195 209.087846 
L 378.283908 200.64435 
L 379.769333 203.023881 
L 380.512046 202.486567 
L 381.254758 204.175267 
L 381.997471 211.620896 
L 382.740184 211.620896 
L 383.482896 203.10064 
L 384.225609 204.021748 
L 384.968322 205.249893 
L 385.711034 208.243497 
L 386.453747 209.318124 
L 387.196459 213.69339 
L 387.939172 212.542004 
L 388.681885 203.023881 
L 389.424597 204.635821 
L 390.16731 208.320256 
L 391.652735 210.853305 
L 392.395448 217.147548 
L 393.138161 215.458849 
L 393.880873 206.861834 
L 394.623586 206.938593 
L 395.366298 209.087846 
L 396.109011 210.008955 
L 396.851724 209.701919 
L 397.594436 212.695522 
L 398.337149 210.623028 
L 399.079862 201.41194 
L 399.822574 200.874627 
L 400.565287 201.795736 
L 401.307999 198.571855 
L 402.050712 198.034542 
L 402.793425 201.41194 
L 403.536137 197.573987 
L 404.27885 187.211514 
L 405.021563 189.898081 
L 405.764275 189.284009 
L 406.506988 189.591045 
L 407.249701 187.979104 
L 407.992413 193.659275 
L 408.735126 192.124094 
L 409.477838 177.770149 
L 410.220551 179.38209 
L 410.963264 182.60597 
L 411.705976 181.608102 
L 412.448689 186.827719 
L 413.191402 194.273348 
L 413.934114 193.352239 
L 414.676827 187.902345 
L 415.419539 179.612367 
L 416.162252 180.226439 
L 416.904965 182.913006 
L 417.647677 181.224307 
L 418.39039 188.209382 
L 419.133103 187.288273 
L 419.875815 181.684861 
L 420.618528 185.90661 
L 422.103953 189.591045 
L 422.846666 186.827719 
L 423.589378 192.891684 
L 424.332091 190.588913 
L 425.074804 175.544136 
L 425.817516 175.083582 
L 427.302942 174.853305 
L 428.045654 177.002559 
L 428.788367 186.213646 
L 429.531079 184.141151 
L 430.273792 170.938593 
L 431.016505 177.846908 
L 431.759217 168.482303 
L 432.50193 165.795736 
L 433.244643 167.407676 
L 433.987355 177.079318 
L 434.730068 180.840512 
L 435.472781 172.857569 
L 436.215493 177.079318 
L 436.958206 186.367164 
L 437.700918 184.908742 
L 438.443631 184.141151 
L 439.186344 193.505757 
L 439.929056 195.655011 
L 440.671769 188.3629 
L 441.414482 192.968443 
L 442.157194 198.878891 
L 442.899907 207.552665 
L 443.642619 202.333049 
L 444.385332 211.2371 
L 445.128045 213.079318 
L 445.870757 206.401279 
L 446.61347 210.085714 
L 447.356183 217.147548 
L 448.841608 223.441791 
L 449.584321 231.885288 
L 450.327033 234.418337 
L 451.069746 234.878891 
L 451.812458 232.806397 
L 453.297884 243.552665 
L 454.040596 246.546269 
L 454.783309 253.301066 
L 455.526022 255.373561 
L 456.268734 253.070789 
L 457.754159 260.3629 
L 458.496872 263.279744 
L 459.239585 262.972708 
L 459.982297 266.04307 
L 460.72501 266.503625 
L 461.467723 265.736034 
L 462.210435 268.269083 
L 462.953148 272.490832 
L 464.438573 276.866098 
L 465.181286 280.627292 
L 465.923998 280.550533 
L 466.666711 278.708316 
L 467.409424 282.085714 
L 468.152136 283.620896 
L 468.894849 283.927932 
L 469.637562 284.388486 
L 470.380274 286.53774 
L 471.122987 286.768017 
L 471.865699 286.768017 
L 472.608412 288.917271 
L 473.351125 289.608102 
L 474.093837 291.220043 
L 475.579263 293.215778 
L 476.321975 293.139019 
L 477.064688 293.676333 
L 477.807401 293.753092 
L 478.550113 294.827719 
L 479.292826 294.750959 
L 480.035538 295.441791 
L 480.778251 295.902345 
L 482.263676 295.365032 
L 483.006389 296.055864 
L 483.749102 296.132623 
L 484.491814 295.595309 
L 485.234527 295.441791 
L 485.977239 294.981237 
L 487.462665 293.06226 
L 488.205377 292.448188 
L 488.94809 290.60597 
L 489.690803 289.070789 
L 490.433515 287.228571 
L 491.176228 285.923667 
L 491.918941 282.776546 
L 492.661653 278.631557 
L 493.404366 275.86823 
L 494.889791 274.179531 
L 495.632504 271.339446 
L 496.375216 270.648614 
L 497.117929 269.727505 
L 497.860642 265.198721 
L 498.603354 263.817058 
L 499.346067 263.663539 
L 500.088779 263.049467 
L 500.831492 262.742431 
L 501.574205 264.43113 
L 502.316917 263.356503 
L 503.05963 261.437527 
L 503.802343 264.814925 
L 504.545055 266.964179 
L 505.287768 268.115565 
L 506.030481 268.729638 
L 506.773193 269.957783 
L 507.515906 270.878891 
L 508.258618 270.034542 
L 509.001331 269.881023 
L 509.744044 271.339446 
L 510.486756 270.495096 
L 511.229469 269.190192 
L 511.972182 269.650746 
L 512.714894 268.192324 
L 513.457607 265.659275 
L 514.200319 266.733902 
L 514.943032 268.115565 
L 515.685745 268.576119 
L 516.428457 269.266951 
L 517.17117 271.876759 
L 517.913883 270.18806 
L 518.656595 267.885288 
L 519.399308 269.190192 
L 520.14202 270.18806 
L 520.884733 270.264819 
L 521.627446 270.18806 
L 522.370158 271.8 
L 523.112871 271.109168 
L 523.855584 268.576119 
L 524.598296 270.418337 
L 525.341009 271.032409 
L 526.083722 271.109168 
L 526.826434 270.341578 
L 527.569147 271.953518 
L 528.311859 272.030277 
L 529.054572 270.571855 
L 529.797285 269.957783 
L 530.539997 269.650746 
L 531.28271 271.109168 
L 532.025423 271.876759 
L 532.768135 272.414072 
L 533.510848 271.723241 
L 534.25356 270.264819 
L 534.996273 271.492964 
L 535.738986 273.488699 
L 537.224411 274.793603 
L 537.967124 276.405544 
L 538.709836 276.71258 
L 539.452549 275.86823 
L 540.937974 279.322388 
L 542.423399 280.627292 
L 543.166112 282.239232 
L 543.908825 281.778678 
L 544.651537 279.552665 
L 546.136963 280.166738 
L 546.879675 279.16887 
L 547.622388 278.631557 
L 548.3651 280.089979 
L 549.107813 279.245629 
L 549.850526 276.098507 
L 551.335951 274.333049 
L 552.078664 274.870362 
L 552.821376 274.102772 
L 553.564089 274.333049 
L 554.306802 272.951386 
L 555.049514 269.804264 
L 555.792227 267.655011 
L 558.020365 263.433262 
L 558.763077 263.893817 
L 559.50579 261.591045 
L 560.248503 256.908742 
L 560.991215 255.143284 
L 562.47664 250.153945 
L 563.219353 249.002559 
L 563.962066 248.542004 
L 564.704778 246.46951 
L 565.447491 240.252026 
L 566.190204 238.409808 
L 567.675629 228.661407 
L 568.418342 222.6742 
L 569.161054 221.292537 
L 569.903767 216.917271 
L 570.646479 206.32452 
L 571.389192 202.640085 
L 572.131905 203.023881 
L 572.874617 201.642217 
L 573.61733 197.036674 
L 574.360043 199.492964 
L 575.102755 193.736034 
L 575.845468 181.070789 
L 577.330893 179.458849 
L 578.073606 175.620896 
L 578.816318 172.627292 
L 579.559031 173.394883 
L 580.301744 166.793603 
L 581.044456 152.976972 
L 581.787169 149.753092 
L 582.529882 150.213646 
L 583.272594 149.983369 
L 584.015307 142.53774 
L 584.758019 147.373561 
L 585.500732 141.616631 
L 586.243445 126.802132 
L 586.986157 124.038806 
L 587.72887 125.573987 
L 588.471583 122.810661 
L 589.214295 119.356503 
L 589.957008 130.179531 
L 590.69972 125.804264 
L 591.442433 111.143284 
L 592.185146 111.987633 
L 594.413284 121.966311 
L 595.155996 132.328785 
L 595.898709 132.405544 
L 596.641422 121.352239 
L 598.126847 122.733902 
L 598.869559 125.727505 
L 599.612272 126.725373 
L 600.354985 137.318124 
L 601.097697 137.164606 
L 601.84041 131.254158 
L 602.583123 137.087846 
L 603.325835 144.840512 
L 604.81126 157.659275 
L 605.553973 169.863966 
L 606.296686 170.938593 
L 607.039398 161.573987 
L 607.782111 166.026013 
L 608.524824 173.011087 
L 609.267536 178.614499 
L 610.010249 181.83838 
L 610.752962 195.040938 
L 611.495674 195.962047 
L 612.238387 187.748827 
L 612.981099 187.748827 
L 614.466525 196.49936 
L 615.209237 202.333049 
L 615.95195 211.467377 
L 616.694663 209.548401 
L 617.437375 202.25629 
L 618.180088 203.714712 
L 618.9228 208.473774 
L 619.665513 211.160341 
L 620.408226 211.006823 
L 621.150938 218.222175 
L 621.893651 218.759488 
L 622.636364 221.139019 
L 622.636364 221.139019 
" style="fill:none;stroke:#ff0000;stroke-linecap:square;stroke-width:1.5;"/>
   </g>
   <g id="line2d_32">
    <path clip-path="url(#p12b96f6b4f)" d="M 115.363636 307.8 
L 116.106349 307.185928 
L 116.849062 307.109168 
L 117.591774 306.341578 
L 118.334487 305.266951 
L 119.0772 304.806397 
L 122.04805 300.738166 
L 122.790763 299.58678 
L 124.276188 294.520682 
L 125.018901 291.373561 
L 127.247038 275.330917 
L 127.989751 269.497228 
L 129.475176 248.388486 
L 130.217889 233.727505 
L 131.703314 194.119829 
L 133.18874 164.260554 
L 133.931452 135.629424 
L 135.416877 92.107036 
L 136.15959 81.284009 
L 136.902303 60.252026 
L 137.645015 55.8 
L 138.387728 55.8 
L 139.130441 59.791471 
L 141.358578 92.414072 
L 142.101291 113.599574 
L 142.844004 110.60597 
L 143.586716 133.633689 
L 144.329429 84.354371 
L 145.072142 99.629424 
L 145.814854 88.038806 
L 146.557567 98.094243 
L 147.30028 102.546269 
L 148.042992 101.778678 
L 148.785705 113.522814 
L 149.528417 122.503625 
L 150.27113 124.345842 
L 151.013843 127.109168 
L 151.756555 125.420469 
L 152.499268 132.405544 
L 153.241981 133.940725 
L 153.984693 142.921535 
L 154.727406 141.69339 
L 155.470118 142.307463 
L 156.212831 149.06226 
L 156.955544 165.41194 
L 157.698256 172.397015 
L 158.440969 173.855437 
L 159.183682 177.079318 
L 159.926394 183.066525 
L 160.669107 187.441791 
L 161.41182 186.981237 
L 162.154532 194.964179 
L 162.897245 195.194456 
L 163.639957 193.198721 
L 164.38267 201.949254 
L 165.125383 205.55693 
L 165.868095 205.55693 
L 166.610808 204.098507 
L 167.353521 209.164606 
L 168.096233 216.610235 
L 168.838946 220.985501 
L 169.581658 226.972708 
L 170.324371 222.060128 
L 171.067084 222.6742 
L 171.809796 228.738166 
L 172.552509 228.891684 
L 173.295222 232.576119 
L 174.037934 233.34371 
L 174.780647 237.335181 
L 175.52336 238.102772 
L 176.266072 236.260554 
L 177.751497 237.949254 
L 179.236923 245.62516 
L 179.979635 251.842644 
L 180.722348 249.846908 
L 181.465061 254.298934 
L 182.207773 252.379957 
L 182.950486 254.529211 
L 183.693198 260.439659 
L 184.435911 262.665672 
L 185.178624 266.119829 
L 185.921336 266.273348 
L 186.664049 268.269083 
L 187.406762 269.804264 
L 188.149474 270.95565 
L 190.377612 273.872495 
L 191.120325 277.173134 
L 191.863037 281.318124 
L 192.60575 282.315991 
L 193.348463 285.079318 
L 194.091175 286.460981 
L 194.833888 285.69339 
L 195.576601 286.614499 
L 196.319313 286.307463 
L 197.062026 286.384222 
L 197.804738 285.69339 
L 199.290164 289.83838 
L 200.032876 290.989765 
L 200.775589 290.913006 
L 201.518302 292.985501 
L 202.261014 291.680597 
L 203.003727 292.755224 
L 203.74644 294.213646 
L 204.489152 293.292537 
L 205.231865 294.060128 
L 205.974577 294.213646 
L 206.71729 295.825586 
L 207.460003 295.595309 
L 208.202715 296.3629 
L 210.430853 302.119829 
L 211.173566 301.198721 
L 211.916278 301.659275 
L 212.658991 301.812793 
L 214.144416 302.503625 
L 214.887129 302.580384 
L 215.629842 301.966311 
L 216.372554 301.505757 
L 217.115267 300.661407 
L 217.85798 300.661407 
L 218.600692 301.352239 
L 219.343405 301.736034 
L 220.086117 302.273348 
L 220.82883 301.889552 
L 221.571543 302.273348 
L 223.056968 300.968443 
L 223.799681 301.352239 
L 224.542393 300.891684 
L 225.285106 302.196588 
L 226.027818 300.891684 
L 226.770531 302.733902 
L 227.513244 302.503625 
L 228.255956 301.966311 
L 228.998669 303.040938 
L 229.741382 302.810661 
L 230.484094 302.273348 
L 231.226807 302.733902 
L 231.969519 302.503625 
L 232.712232 301.582516 
L 233.454945 301.505757 
L 234.197657 301.121962 
L 234.94037 301.812793 
L 235.683083 301.889552 
L 236.425795 301.812793 
L 237.168508 301.198721 
L 237.911221 300.277612 
L 238.653933 300.43113 
L 239.396646 298.895949 
L 240.139358 298.128358 
L 240.882071 298.665672 
L 241.624784 298.358635 
L 242.367496 298.512154 
L 243.852922 297.97484 
L 244.595634 298.281876 
L 245.338347 297.284009 
L 246.081059 297.667804 
L 247.566485 297.97484 
L 248.309197 298.588913 
L 249.794623 298.665672 
L 250.537335 299.663539 
L 251.280048 300.200853 
L 252.022761 300.507889 
L 252.765473 300.661407 
L 254.250898 300.738166 
L 254.993611 300.968443 
L 255.736324 300.584648 
L 256.479036 300.584648 
L 257.221749 300.277612 
L 257.964462 299.817058 
L 258.707174 299.510021 
L 261.678025 297.437527 
L 262.420737 297.284009 
L 263.16345 296.516418 
L 264.648875 293.522814 
L 265.391588 293.215778 
L 266.877013 290.222175 
L 267.619726 287.919403 
L 268.362438 286.691258 
L 269.105151 282.930064 
L 269.847864 282.623028 
L 270.590576 279.399147 
L 271.333289 277.55693 
L 272.076002 274.793603 
L 272.818714 274.640085 
L 273.561427 270.264819 
L 274.304139 268.115565 
L 275.046852 265.582516 
L 275.789565 265.582516 
L 276.532277 266.503625 
L 277.27499 263.893817 
L 278.017703 262.972708 
L 279.503128 252.99403 
L 280.245841 247.620896 
L 280.988553 245.62516 
L 281.731266 243.245629 
L 283.216691 234.571855 
L 283.959404 232.192324 
L 284.702116 227.58678 
L 285.444829 220.908742 
L 286.930254 214.768017 
L 287.672967 215.151812 
L 288.415679 214.53774 
L 290.643817 197.34371 
L 292.871955 184.985501 
L 293.614668 183.987633 
L 294.357381 180.686994 
L 295.842806 167.484435 
L 296.585518 167.330917 
L 297.328231 167.330917 
L 298.070944 168.328785 
L 300.299082 157.582516 
L 301.041794 150.981237 
L 301.784507 157.428998 
L 303.269932 166.486567 
L 304.012645 171.092111 
L 304.755357 177.616631 
L 305.49807 176.08145 
L 306.240783 177.616631 
L 306.983495 179.612367 
L 307.726208 184.601706 
L 308.468921 187.211514 
L 309.211633 190.435394 
L 309.954346 192.047335 
L 310.697058 188.3629 
L 311.439771 187.365032 
L 312.182484 190.588913 
L 313.667909 199.339446 
L 314.410622 204.098507 
L 315.896047 197.957783 
L 316.638759 200.490832 
L 317.381472 207.322388 
L 318.124185 211.390618 
L 318.866897 211.851173 
L 319.60961 215.765885 
L 320.352323 216.226439 
L 321.095035 212.695522 
L 321.837748 215.38209 
L 322.580461 221.06226 
L 323.323173 220.601706 
L 324.065886 219.45032 
L 324.808598 221.139019 
L 325.551311 217.915139 
L 326.294024 216.533475 
L 327.036736 213.002559 
L 327.779449 214.921535 
L 328.522162 217.377825 
L 330.750299 210.392751 
L 331.493012 202.793603 
L 332.235725 198.111301 
L 332.978437 197.497228 
L 333.72115 195.271215 
L 335.206575 192.354371 
L 335.949288 190.205117 
L 336.692001 186.904478 
L 337.434713 177.156077 
L 338.177426 178.460981 
L 338.920138 176.465245 
L 339.662851 177.079318 
L 340.405564 174.776546 
L 341.148276 169.940725 
L 341.890989 160.345842 
L 342.633702 148.448188 
L 343.376414 154.205117 
L 344.119127 146.375693 
L 344.861839 157.659275 
L 345.604552 153.97484 
L 346.347265 153.898081 
L 347.089977 144.379957 
L 347.83269 142.153945 
L 348.575403 144.303198 
L 349.318115 150.367164 
L 350.060828 159.271215 
L 350.803541 164.030277 
L 351.546253 165.872495 
L 352.288966 160.038806 
L 353.031678 158.580384 
L 353.774391 168.098507 
L 354.517104 168.635821 
L 355.259816 170.938593 
L 356.002529 177.846908 
L 356.745242 176.772281 
L 357.487954 174.008955 
L 358.230667 172.243497 
L 358.973379 176.695522 
L 359.716092 179.919403 
L 360.458805 178.614499 
L 361.201517 182.529211 
L 361.94423 179.919403 
L 362.686943 175.851173 
L 363.429655 177.002559 
L 364.915081 185.446055 
L 365.657793 187.211514 
L 366.400506 185.06226 
L 367.143218 187.134755 
L 367.885931 182.682729 
L 368.628644 181.991898 
L 369.371356 184.985501 
L 370.114069 191.279744 
L 371.599494 197.650746 
L 372.342207 196.959915 
L 373.084919 193.352239 
L 373.827632 195.808529 
L 374.570345 196.038806 
L 376.798483 206.171002 
L 377.541195 205.863966 
L 378.283908 201.488699 
L 379.026621 200.414072 
L 379.769333 200.490832 
L 380.512046 199.8 
L 381.254758 197.881023 
L 381.997471 205.326652 
L 382.740184 206.938593 
L 384.225609 202.026013 
L 384.968322 204.252026 
L 385.711034 203.407676 
L 386.453747 205.096375 
L 387.196459 208.78081 
L 387.939172 206.401279 
L 388.681885 202.333049 
L 389.424597 197.036674 
L 390.16731 200.64435 
L 391.652735 202.716844 
L 392.395448 206.478038 
L 393.138161 207.629424 
L 393.880873 204.482303 
L 394.623586 199.876759 
L 395.366298 204.021748 
L 396.109011 204.021748 
L 396.851724 205.480171 
L 397.594436 206.478038 
L 398.337149 202.870362 
L 399.079862 196.192324 
L 399.822574 196.49936 
L 400.565287 198.571855 
L 401.307999 197.650746 
L 402.050712 195.655011 
L 402.793425 196.959915 
L 403.536137 195.655011 
L 404.27885 188.516418 
L 405.021563 186.981237 
L 405.764275 187.979104 
L 406.506988 187.134755 
L 407.249701 185.369296 
L 408.735126 185.599574 
L 409.477838 179.919403 
L 410.220551 175.2371 
L 410.963264 180.99403 
L 412.448689 183.143284 
L 413.191402 183.987633 
L 413.934114 186.060128 
L 414.676827 182.913006 
L 415.419539 173.701919 
L 416.162252 171.092111 
L 416.904965 175.313859 
L 417.647677 176.542004 
L 418.39039 177.079318 
L 419.133103 175.160341 
L 419.875815 170.631557 
L 420.618528 172.78081 
L 421.361241 176.234968 
L 422.103953 178.307463 
L 422.846666 177.539872 
L 423.589378 183.066525 
L 424.332091 179.689126 
L 425.074804 175.006823 
L 425.817516 167.407676 
L 426.560229 170.32452 
L 427.302942 166.409808 
L 428.045654 171.552665 
L 428.788367 177.539872 
L 429.531079 178.077186 
L 430.273792 172.857569 
L 431.759217 169.940725 
L 432.50193 162.725373 
L 433.244643 162.111301 
L 433.987355 167.637953 
L 434.730068 170.017484 
L 435.472781 168.405544 
L 436.215493 170.094243 
L 436.958206 176.234968 
L 437.700918 174.008955 
L 438.443631 175.544136 
L 439.186344 177.386354 
L 439.929056 179.842644 
L 440.671769 175.083582 
L 441.414482 174.930064 
L 442.899907 192.891684 
L 443.642619 191.049467 
L 444.385332 194.810661 
L 445.128045 195.347974 
L 445.870757 192.584648 
L 446.61347 192.507889 
L 447.356183 203.10064 
L 448.098895 209.778678 
L 448.841608 214.691258 
L 449.584321 221.215778 
L 450.327033 223.134755 
L 451.069746 223.672068 
L 451.812458 223.288273 
L 452.555171 226.588913 
L 453.297884 233.34371 
L 454.040596 237.335181 
L 454.783309 242.401279 
L 455.526022 243.322388 
L 456.268734 242.631557 
L 457.011447 247.006823 
L 457.754159 248.849041 
L 458.496872 253.83838 
L 459.239585 255.066525 
L 459.982297 257.369296 
L 461.467723 257.983369 
L 462.210435 260.593177 
L 462.953148 267.194456 
L 465.181286 276.942857 
L 466.666711 275.791471 
L 467.409424 277.55693 
L 468.152136 279.782942 
L 468.894849 281.241365 
L 469.637562 283.697655 
L 471.865699 285.309595 
L 472.608412 286.614499 
L 474.093837 289.915139 
L 475.579263 292.678465 
L 476.321975 292.21791 
L 477.064688 293.369296 
L 477.807401 293.90661 
L 478.550113 294.981237 
L 479.292826 295.672068 
L 480.035538 297.13049 
L 480.778251 298.051599 
L 481.520964 298.205117 
L 482.263676 298.205117 
L 483.006389 299.510021 
L 483.749102 300.047335 
L 484.491814 299.740299 
L 485.234527 298.665672 
L 485.977239 298.435394 
L 486.719952 298.81919 
L 487.462665 297.97484 
L 488.205377 297.97484 
L 488.94809 297.284009 
L 489.690803 295.748827 
L 490.433515 293.292537 
L 491.176228 291.987633 
L 491.918941 289.83838 
L 493.404366 283.697655 
L 493.404366 283.697655 
" style="fill:none;stroke:#ffa500;stroke-linecap:square;stroke-width:1.5;"/>
   </g>
   <g id="line2d_33">
    <path clip-path="url(#p12b96f6b4f)" d="M 153.241981 280.550533 
L 153.984693 281.394883 
L 154.727406 281.471642 
L 155.470118 277.326652 
L 156.212831 277.55693 
L 156.955544 278.017484 
L 157.698256 278.094243 
L 158.440969 278.32452 
L 159.183682 277.55693 
L 159.926394 279.706183 
L 161.41182 274.793603 
L 162.154532 274.716844 
L 162.897245 275.177399 
L 163.639957 275.791471 
L 164.38267 278.554797 
L 165.125383 278.938593 
L 165.868095 277.633689 
L 166.610808 277.403412 
L 167.353521 274.102772 
L 168.096233 276.098507 
L 168.838946 273.335181 
L 170.324371 278.094243 
L 171.067084 272.414072 
L 171.809796 271.492964 
L 172.552509 269.727505 
L 173.295222 267.424733 
L 174.037934 267.808529 
L 174.780647 270.878891 
L 175.52336 271.262687 
L 176.266072 267.73177 
L 177.008785 267.424733 
L 177.751497 266.350107 
L 178.49421 270.95565 
L 179.236923 269.113433 
L 180.722348 270.034542 
L 181.465061 269.573987 
L 182.207773 267.808529 
L 182.950486 264.968443 
L 183.693198 265.736034 
L 184.435911 267.117697 
L 185.178624 269.420469 
L 186.664049 271.339446 
L 187.406762 268.422601 
L 188.149474 264.354371 
L 188.892187 266.196588 
L 189.6349 265.736034 
L 190.377612 269.34371 
L 191.120325 266.964179 
L 191.863037 267.885288 
L 192.60575 266.810661 
L 193.348463 266.119829 
L 194.833888 263.970576 
L 195.576601 268.269083 
L 196.319313 267.962047 
L 197.062026 264.124094 
L 197.804738 263.202985 
L 198.547451 264.277612 
L 199.290164 262.435394 
L 200.032876 261.667804 
L 200.775589 263.893817 
L 201.518302 268.576119 
L 202.261014 263.663539 
L 203.003727 264.507889 
L 203.74644 263.433262 
L 204.489152 263.049467 
L 205.231865 263.893817 
L 205.974577 266.350107 
L 206.71729 267.424733 
L 207.460003 264.968443 
L 208.945428 262.895949 
L 209.688141 262.81919 
L 210.430853 263.817058 
L 211.173566 266.196588 
L 211.916278 266.580384 
L 212.658991 266.657143 
L 213.401704 263.663539 
L 214.144416 262.895949 
L 214.887129 264.200853 
L 215.629842 264.738166 
L 216.372554 266.04307 
L 217.115267 267.885288 
L 217.85798 266.350107 
L 218.600692 263.893817 
L 219.343405 263.510021 
L 220.086117 263.510021 
L 220.82883 262.895949 
L 221.571543 264.277612 
L 222.314255 264.354371 
L 223.799681 262.358635 
L 224.542393 263.126226 
L 225.285106 262.435394 
L 226.027818 262.128358 
L 226.770531 264.277612 
L 227.513244 268.269083 
L 228.255956 266.580384 
L 228.998669 265.812793 
L 229.741382 264.584648 
L 230.484094 263.893817 
L 231.226807 264.277612 
L 231.969519 265.505757 
L 232.712232 266.503625 
L 233.454945 264.584648 
L 234.197657 263.049467 
L 234.94037 261.97484 
L 235.683083 264.584648 
L 236.425795 263.663539 
L 237.168508 266.04307 
L 237.911221 264.047335 
L 238.653933 263.126226 
L 239.396646 260.823454 
L 240.139358 260.900213 
L 240.882071 263.510021 
L 241.624784 263.126226 
L 242.367496 263.510021 
L 243.110209 264.507889 
L 243.852922 261.514286 
L 244.595634 260.439659 
L 245.338347 262.281876 
L 246.081059 261.591045 
L 246.823772 262.512154 
L 247.566485 264.507889 
L 248.309197 265.505757 
L 249.05191 261.744563 
L 249.794623 260.132623 
L 250.537335 260.823454 
L 251.280048 261.284009 
L 252.022761 263.58678 
L 252.765473 265.045203 
L 253.508186 265.659275 
L 254.250898 262.665672 
L 254.993611 260.516418 
L 255.736324 262.435394 
L 256.479036 261.514286 
L 257.221749 262.051599 
L 258.707174 265.505757 
L 259.449887 259.365032 
L 260.192599 260.593177 
L 260.935312 261.360768 
L 261.678025 261.13049 
L 262.420737 262.128358 
L 263.16345 263.970576 
L 263.906163 264.738166 
L 264.648875 260.209382 
L 265.391588 258.290405 
L 266.134301 259.057996 
L 266.877013 260.669936 
L 269.105151 266.810661 
L 269.847864 259.748827 
L 270.590576 259.134755 
L 271.333289 259.057996 
L 272.076002 262.742431 
L 272.818714 261.821322 
L 273.561427 264.968443 
L 274.304139 267.271215 
L 275.046852 262.81919 
L 276.532277 260.976972 
L 277.27499 262.281876 
L 278.017703 264.047335 
L 278.760415 266.733902 
L 279.503128 268.269083 
L 280.245841 263.663539 
L 280.988553 263.356503 
L 281.731266 264.661407 
L 282.473978 264.584648 
L 283.216691 267.962047 
L 283.959404 270.341578 
L 284.702116 269.957783 
L 285.444829 266.273348 
L 286.187542 267.424733 
L 286.930254 269.266951 
L 287.672967 267.655011 
L 289.158392 272.567591 
L 289.901105 273.718977 
L 290.643817 271.032409 
L 291.38653 272.874627 
L 292.129243 272.567591 
L 292.871955 271.339446 
L 293.614668 274.793603 
L 294.357381 275.714712 
L 295.100093 274.793603 
L 295.842806 272.874627 
L 296.585518 272.414072 
L 297.328231 271.8 
L 298.070944 273.565458 
L 298.813656 273.181663 
L 299.556369 273.642217 
L 300.299082 276.021748 
L 301.041794 273.41194 
L 301.784507 271.416205 
L 303.269932 271.262687 
L 304.012645 272.107036 
L 304.755357 274.793603 
L 305.49807 273.795736 
L 306.240783 270.495096 
L 306.983495 271.032409 
L 307.726208 269.804264 
L 308.468921 270.648614 
L 309.211633 272.797868 
L 309.954346 274.333049 
L 310.697058 272.337313 
L 311.439771 271.569723 
L 312.925196 269.420469 
L 313.667909 269.804264 
L 314.410622 271.416205 
L 315.153334 273.565458 
L 315.896047 273.258422 
L 316.638759 270.18806 
L 317.381472 268.345842 
L 318.124185 268.269083 
L 318.866897 268.49936 
L 320.352323 273.335181 
L 321.095035 271.416205 
L 321.837748 269.036674 
L 323.323173 265.121962 
L 324.065886 265.659275 
L 324.808598 268.269083 
L 325.551311 269.34371 
L 326.294024 269.420469 
L 327.036736 265.428998 
L 327.779449 265.505757 
L 328.522162 266.964179 
L 329.264874 265.889552 
L 330.750299 271.185928 
L 331.493012 267.73177 
L 332.235725 267.194456 
L 332.978437 266.119829 
L 333.72115 268.959915 
L 334.463863 269.727505 
L 335.206575 270.802132 
L 335.949288 274.793603 
L 336.692001 274.947122 
L 337.434713 271.876759 
L 338.177426 274.179531 
L 338.920138 274.409808 
L 339.662851 275.86823 
L 340.405564 279.322388 
L 341.148276 278.171002 
L 341.890989 279.475906 
L 342.633702 275.944989 
L 343.376414 275.484435 
L 344.119127 276.405544 
L 344.861839 278.017484 
L 345.604552 278.785075 
L 346.347265 280.243497 
L 347.83269 277.480171 
L 348.575403 274.486567 
L 349.318115 275.637953 
L 350.060828 275.177399 
L 350.803541 275.637953 
L 351.546253 278.785075 
L 352.288966 278.478038 
L 353.031678 275.86823 
L 353.774391 275.944989 
L 354.517104 273.104904 
L 355.259816 273.181663 
L 356.002529 274.026013 
L 356.745242 277.710448 
L 357.487954 277.326652 
L 358.230667 273.795736 
L 358.973379 273.565458 
L 359.716092 272.567591 
L 360.458805 272.874627 
L 361.201517 272.64435 
L 361.94423 275.944989 
L 362.686943 275.944989 
L 363.429655 272.107036 
L 364.172368 270.111301 
L 364.915081 269.881023 
L 365.657793 272.721109 
L 366.400506 271.723241 
L 367.143218 273.028145 
L 367.885931 275.177399 
L 368.628644 271.723241 
L 370.114069 270.571855 
L 370.856782 270.264819 
L 371.599494 270.418337 
L 372.342207 272.414072 
L 373.084919 272.951386 
L 373.827632 272.951386 
L 374.570345 268.652878 
L 375.313057 268.192324 
L 376.05577 269.113433 
L 376.798483 267.808529 
L 377.541195 271.8 
L 379.026621 267.347974 
L 379.769333 268.269083 
L 380.512046 268.652878 
L 381.254758 268.345842 
L 381.997471 269.34371 
L 382.740184 272.490832 
L 383.482896 274.179531 
L 384.225609 271.032409 
L 384.968322 268.883156 
L 385.711034 269.573987 
L 386.453747 270.034542 
L 387.196459 271.8 
L 387.939172 277.096375 
L 388.681885 274.563326 
L 389.424597 272.567591 
L 390.16731 272.951386 
L 390.910023 270.648614 
L 391.652735 270.18806 
L 392.395448 271.032409 
L 393.138161 274.793603 
L 393.880873 272.797868 
L 394.623586 269.650746 
L 395.366298 270.95565 
L 396.109011 270.341578 
L 396.851724 269.420469 
L 397.594436 271.109168 
L 398.337149 275.023881 
L 399.079862 274.026013 
L 399.822574 271.569723 
L 400.565287 270.18806 
L 401.307999 271.262687 
L 402.050712 271.032409 
L 402.793425 272.874627 
L 403.536137 276.559062 
L 405.021563 271.416205 
L 405.764275 270.802132 
L 407.249701 272.567591 
L 407.992413 273.181663 
L 408.735126 277.019616 
L 409.477838 274.793603 
L 410.220551 273.104904 
L 410.963264 274.179531 
L 411.705976 274.640085 
L 413.191402 276.635821 
L 413.934114 279.706183 
L 414.676827 279.552665 
L 415.419539 278.171002 
L 416.162252 274.947122 
L 416.904965 274.486567 
L 417.647677 275.561194 
L 418.39039 276.866098 
L 419.133103 279.092111 
L 419.875815 278.171002 
L 420.618528 273.028145 
L 421.361241 274.870362 
L 422.103953 275.561194 
L 422.846666 275.177399 
L 423.589378 276.175267 
L 424.332091 278.938593 
L 425.074804 277.633689 
L 425.817516 275.254158 
L 426.560229 275.023881 
L 427.302942 275.714712 
L 428.045654 274.026013 
L 429.531079 278.631557 
L 430.273792 276.866098 
L 431.016505 275.637953 
L 431.759217 276.71258 
L 432.50193 274.102772 
L 433.244643 275.407676 
L 433.987355 276.942857 
L 434.730068 279.782942 
L 435.472781 279.782942 
L 436.215493 276.559062 
L 436.958206 276.71258 
L 437.700918 276.482303 
L 438.443631 276.942857 
L 439.186344 276.71258 
L 440.671769 278.32452 
L 441.414482 273.795736 
L 442.157194 271.262687 
L 442.899907 275.484435 
L 443.642619 276.098507 
L 444.385332 273.949254 
L 445.128045 274.947122 
L 445.870757 275.10064 
L 446.61347 271.339446 
L 447.356183 271.109168 
L 448.098895 270.571855 
L 448.841608 271.416205 
L 450.327033 276.098507 
L 451.069746 275.944989 
L 451.812458 274.026013 
L 452.555171 268.959915 
L 453.297884 267.885288 
L 454.040596 266.196588 
L 454.783309 267.808529 
L 455.526022 271.109168 
L 457.011447 268.729638 
L 457.754159 268.115565 
L 458.496872 266.350107 
L 459.239585 265.352239 
L 459.982297 267.117697 
L 460.72501 269.266951 
L 461.467723 271.953518 
L 462.210435 268.269083 
L 462.953148 267.117697 
L 463.695861 265.352239 
L 464.438573 264.507889 
L 465.181286 266.350107 
L 465.923998 267.501493 
L 466.666711 267.655011 
L 467.409424 266.350107 
L 468.152136 261.667804 
L 468.894849 263.356503 
L 469.637562 264.507889 
L 471.865699 266.350107 
L 472.608412 263.893817 
L 473.351125 263.510021 
L 474.093837 264.047335 
L 474.83655 261.898081 
L 476.321975 265.659275 
L 477.064688 268.269083 
L 477.807401 263.58678 
L 478.550113 262.895949 
L 479.292826 263.817058 
L 480.035538 263.58678 
L 480.778251 264.584648 
L 481.520964 266.88742 
L 482.263676 263.740299 
L 483.006389 263.126226 
L 483.749102 261.284009 
L 484.491814 261.360768 
L 485.234527 262.051599 
L 485.977239 260.746695 
L 486.719952 264.814925 
L 487.462665 266.810661 
L 488.205377 263.049467 
L 488.94809 262.512154 
L 489.690803 260.823454 
L 490.433515 262.051599 
L 491.176228 263.970576 
L 491.918941 266.810661 
L 492.661653 267.424733 
L 493.404366 266.196588 
L 493.404366 266.196588 
" style="fill:none;stroke:#0000ff;stroke-linecap:square;stroke-width:1.5;"/>
   </g>
   <g id="line2d_34">
    <path clip-path="url(#p12b96f6b4f)" d="M 115.363636 307.339446 
L 119.0772 306.95565 
L 119.819912 306.725373 
L 120.562625 306.725373 
L 121.305337 306.418337 
L 122.04805 306.264819 
L 124.276188 304.883156 
L 125.018901 304.192324 
L 125.761613 302.657143 
L 126.504326 301.812793 
L 127.247038 300.507889 
L 127.989751 298.665672 
L 129.475176 294.136887 
L 130.217889 290.375693 
L 130.960602 285.846908 
L 132.446027 274.870362 
L 133.18874 271.032409 
L 135.416877 250.153945 
L 136.902303 236.721109 
L 137.645015 231.73177 
L 138.387728 228.200853 
L 139.130441 221.446055 
L 139.873153 216.456716 
L 140.615866 215.151812 
L 141.358578 212.004691 
L 142.101291 209.932196 
L 142.844004 203.484435 
L 144.329429 199.723241 
L 145.072142 198.571855 
L 145.814854 199.8 
L 146.557567 199.109168 
L 147.30028 201.642217 
L 148.042992 201.104904 
L 148.785705 203.637953 
L 149.528417 205.173134 
L 150.27113 207.859701 
L 151.756555 211.313859 
L 152.499268 213.079318 
L 153.241981 215.689126 
L 153.984693 217.608102 
L 154.727406 218.989765 
L 155.470118 224.439659 
L 156.955544 230.503625 
L 157.698256 233.957783 
L 158.440969 234.264819 
L 159.926394 238.409808 
L 160.669107 241.787207 
L 161.41182 246.162473 
L 162.154532 247.774414 
L 162.897245 251.458849 
L 163.639957 253.531343 
L 164.38267 255.066525 
L 165.125383 255.45032 
L 165.868095 258.443923 
L 166.610808 259.672068 
L 167.353521 263.049467 
L 168.838946 266.350107 
L 169.581658 268.959915 
L 170.324371 269.650746 
L 171.809796 274.716844 
L 172.552509 276.405544 
L 174.037934 281.318124 
L 174.780647 281.087846 
L 177.008785 286.768017 
L 177.751497 288.303198 
L 178.49421 288.533475 
L 179.236923 290.452452 
L 179.979635 290.759488 
L 180.722348 290.759488 
L 181.465061 293.446055 
L 182.207773 293.369296 
L 182.950486 293.90661 
L 183.693198 294.060128 
L 185.178624 295.672068 
L 185.921336 295.748827 
L 186.664049 296.055864 
L 187.406762 298.972708 
L 188.149474 299.202985 
L 188.892187 300.43113 
L 190.377612 300.507889 
L 191.120325 300.814925 
L 191.863037 300.891684 
L 192.60575 301.736034 
L 194.091175 302.273348 
L 194.833888 301.966311 
L 195.576601 301.812793 
L 196.319313 301.198721 
L 197.062026 301.889552 
L 198.547451 302.733902 
L 199.290164 303.501493 
L 200.032876 303.501493 
L 200.775589 303.655011 
L 201.518302 303.347974 
L 202.261014 304.192324 
L 203.74644 304.115565 
L 205.231865 305.650746 
L 206.71729 305.420469 
L 207.460003 305.650746 
L 208.202715 305.727505 
L 208.945428 305.957783 
L 209.688141 306.341578 
L 210.430853 306.495096 
L 211.173566 306.495096 
L 211.916278 306.111301 
L 212.658991 306.034542 
L 213.401704 306.341578 
L 214.144416 306.264819 
L 214.887129 305.957783 
L 215.629842 305.881023 
L 216.372554 306.034542 
L 217.115267 306.034542 
L 217.85798 306.264819 
L 218.600692 306.341578 
L 219.343405 306.725373 
L 220.82883 306.648614 
L 221.571543 306.571855 
L 223.056968 306.725373 
L 223.799681 306.571855 
L 224.542393 306.725373 
L 226.027818 306.495096 
L 226.770531 306.648614 
L 227.513244 306.264819 
L 229.741382 306.802132 
L 230.484094 306.418337 
L 231.226807 306.18806 
L 231.969519 306.264819 
L 232.712232 305.804264 
L 233.454945 305.881023 
L 234.197657 305.573987 
L 236.425795 305.727505 
L 237.168508 305.497228 
L 237.911221 305.650746 
L 238.653933 305.573987 
L 239.396646 305.190192 
L 240.139358 305.497228 
L 240.882071 304.959915 
L 241.624784 304.883156 
L 242.367496 305.113433 
L 243.852922 304.652878 
L 245.338347 304.883156 
L 246.081059 304.576119 
L 250.537335 305.113433 
L 251.280048 305.266951 
L 252.765473 305.34371 
L 253.508186 304.959915 
L 254.250898 305.34371 
L 254.993611 305.420469 
L 255.736324 305.727505 
L 256.479036 305.190192 
L 257.221749 305.190192 
L 259.449887 305.573987 
L 260.192599 305.497228 
L 260.935312 305.573987 
L 261.678025 305.113433 
L 262.420737 305.036674 
L 263.16345 305.113433 
L 263.906163 304.576119 
L 264.648875 303.808529 
L 265.391588 303.73177 
L 266.134301 304.115565 
L 269.105151 301.352239 
L 269.847864 300.891684 
L 270.590576 299.893817 
L 271.333289 299.740299 
L 272.076002 298.972708 
L 273.561427 298.128358 
L 274.304139 296.976972 
L 275.046852 296.976972 
L 275.789565 296.3629 
L 276.532277 296.209382 
L 277.27499 295.595309 
L 278.017703 295.902345 
L 278.760415 295.365032 
L 280.245841 293.292537 
L 281.731266 290.375693 
L 282.473978 289.531343 
L 283.216691 289.83838 
L 283.959404 288.917271 
L 284.702116 288.533475 
L 286.187542 284.772281 
L 286.930254 283.851173 
L 287.672967 281.394883 
L 288.415679 280.857569 
L 289.158392 279.936461 
L 289.901105 278.785075 
L 290.643817 275.714712 
L 291.38653 273.335181 
L 292.129243 272.337313 
L 292.871955 271.646482 
L 293.614668 269.420469 
L 294.357381 270.264819 
L 295.100093 269.036674 
L 295.842806 267.271215 
L 296.585518 266.04307 
L 297.328231 265.428998 
L 298.070944 264.354371 
L 298.813656 263.049467 
L 299.556369 263.126226 
L 300.299082 262.81919 
L 301.041794 261.13049 
L 301.784507 260.900213 
L 303.269932 261.591045 
L 304.012645 261.667804 
L 304.755357 261.97484 
L 305.49807 261.821322 
L 306.240783 261.97484 
L 306.983495 261.360768 
L 307.726208 262.205117 
L 308.468921 261.13049 
L 309.211633 262.205117 
L 309.954346 262.895949 
L 310.697058 263.893817 
L 311.439771 263.663539 
L 312.182484 264.968443 
L 312.925196 265.27548 
L 313.667909 265.889552 
L 314.410622 265.659275 
L 315.153334 266.426866 
L 315.896047 266.733902 
L 316.638759 267.501493 
L 317.381472 267.271215 
L 318.866897 268.115565 
L 319.60961 268.652878 
L 320.352323 269.036674 
L 321.095035 270.95565 
L 322.580461 271.416205 
L 323.323173 272.721109 
L 324.065886 271.569723 
L 324.808598 271.646482 
L 325.551311 271.876759 
L 326.294024 271.8 
L 327.036736 272.260554 
L 327.779449 271.569723 
L 328.522162 271.876759 
L 329.264874 271.646482 
L 330.007587 270.95565 
L 330.750299 269.727505 
L 331.493012 269.266951 
L 332.235725 267.655011 
L 332.978437 267.501493 
L 333.72115 266.733902 
L 335.206575 264.891684 
L 335.949288 263.356503 
L 336.692001 262.895949 
L 337.434713 262.895949 
L 338.177426 261.207249 
L 338.920138 262.128358 
L 339.662851 261.821322 
L 341.148276 259.441791 
L 343.376414 253.224307 
L 344.119127 252.303198 
L 344.861839 253.915139 
L 345.604552 254.298934 
L 346.347265 253.83838 
L 347.089977 252.99403 
L 347.83269 251.765885 
L 348.575403 253.83838 
L 349.318115 253.224307 
L 350.060828 253.531343 
L 350.803541 254.145416 
L 351.546253 253.301066 
L 352.288966 253.991898 
L 353.031678 254.529211 
L 353.774391 254.145416 
L 354.517104 254.682729 
L 355.259816 254.913006 
L 356.002529 256.371429 
L 356.745242 255.987633 
L 357.487954 254.913006 
L 358.230667 255.45032 
L 358.973379 255.757356 
L 361.201517 256.21791 
L 361.94423 255.680597 
L 362.686943 256.908742 
L 363.429655 256.141151 
L 364.172368 257.90661 
L 364.915081 258.367164 
L 365.657793 257.292537 
L 366.400506 258.750959 
L 367.143218 258.290405 
L 367.885931 258.827719 
L 368.628644 259.595309 
L 369.371356 260.823454 
L 370.114069 261.667804 
L 371.599494 265.889552 
L 372.342207 266.810661 
L 373.827632 265.659275 
L 374.570345 266.964179 
L 375.313057 266.657143 
L 376.05577 266.88742 
L 376.798483 266.580384 
L 377.541195 267.194456 
L 378.283908 266.733902 
L 379.026621 267.501493 
L 379.769333 267.962047 
L 380.512046 267.73177 
L 381.254758 268.729638 
L 382.740184 266.88742 
L 383.482896 264.814925 
L 384.225609 266.580384 
L 384.968322 266.964179 
L 385.711034 267.501493 
L 386.453747 267.578252 
L 387.196459 268.115565 
L 387.939172 267.501493 
L 388.681885 266.733902 
L 389.424597 266.426866 
L 390.16731 265.736034 
L 390.910023 266.503625 
L 393.138161 266.04307 
L 393.880873 265.045203 
L 394.623586 265.198721 
L 395.366298 264.891684 
L 396.109011 263.970576 
L 396.851724 263.663539 
L 397.594436 265.352239 
L 398.337149 265.352239 
L 399.079862 264.584648 
L 399.822574 262.895949 
L 400.565287 264.277612 
L 401.307999 264.584648 
L 402.050712 263.433262 
L 402.793425 261.667804 
L 403.536137 260.976972 
L 404.27885 258.904478 
L 405.021563 260.055864 
L 405.764275 259.902345 
L 406.506988 260.3629 
L 407.249701 259.902345 
L 407.992413 258.520682 
L 408.735126 257.599574 
L 409.477838 256.064392 
L 410.220551 255.527079 
L 410.963264 255.603838 
L 411.705976 255.066525 
L 412.448689 253.76162 
L 413.191402 251.535608 
L 413.934114 251.842644 
L 414.676827 250.614499 
L 415.419539 250.307463 
L 416.904965 246.623028 
L 417.647677 247.697655 
L 418.39039 247.467377 
L 419.133103 247.390618 
L 419.875815 246.930064 
L 420.618528 246.930064 
L 421.361241 247.697655 
L 422.103953 247.313859 
L 422.846666 247.083582 
L 423.589378 246.315991 
L 425.074804 245.471642 
L 425.817516 244.704051 
L 426.560229 244.78081 
L 427.302942 243.475906 
L 428.045654 243.629424 
L 428.788367 245.241365 
L 429.531079 243.322388 
L 430.273792 245.471642 
L 431.016505 244.934328 
L 431.759217 245.394883 
L 432.50193 245.471642 
L 433.244643 245.932196 
L 433.987355 245.62516 
L 434.730068 246.162473 
L 435.472781 244.550533 
L 436.215493 245.087846 
L 436.958206 244.166738 
L 437.700918 245.932196 
L 438.443631 246.699787 
L 439.186344 248.158209 
L 440.671769 249.770149 
L 442.157194 251.228571 
L 443.642619 251.996162 
L 444.385332 253.377825 
L 445.128045 255.220043 
L 445.870757 255.603838 
L 446.61347 258.290405 
L 447.356183 258.981237 
L 448.098895 260.209382 
L 448.841608 261.207249 
L 449.584321 261.667804 
L 450.327033 261.053731 
L 451.069746 261.97484 
L 454.040596 267.885288 
L 454.783309 269.573987 
L 455.526022 270.571855 
L 456.268734 271.262687 
L 457.754159 275.637953 
L 458.496872 277.633689 
L 459.239585 278.938593 
L 459.982297 280.934328 
L 460.72501 281.471642 
L 461.467723 281.548401 
L 462.210435 283.2371 
L 462.953148 284.542004 
L 463.695861 285.079318 
L 464.438573 286.307463 
L 465.181286 287.228571 
L 465.923998 287.535608 
L 466.666711 287.689126 
L 468.894849 290.529211 
L 469.637562 291.143284 
L 471.865699 292.755224 
L 472.608412 293.676333 
L 473.351125 294.827719 
L 474.83655 296.593177 
L 475.579263 297.053731 
L 477.064688 296.976972 
L 477.807401 298.128358 
L 478.550113 298.051599 
L 479.292826 298.742431 
L 480.035538 299.58678 
L 480.778251 300.047335 
L 481.520964 300.277612 
L 482.263676 299.433262 
L 483.006389 299.970576 
L 483.749102 299.893817 
L 484.491814 300.968443 
L 485.977239 301.582516 
L 486.719952 301.121962 
L 487.462665 301.428998 
L 488.205377 302.119829 
L 489.690803 302.350107 
L 491.176228 301.966311 
L 491.918941 302.04307 
L 492.661653 301.428998 
L 493.404366 300.200853 
L 493.404366 300.200853 
" style="fill:none;stroke:#00ffff;stroke-linecap:square;stroke-width:1.5;"/>
   </g>
   <g id="patch_3">
    <path d="M 90 320.4 
L 90 43.2 
" style="fill:none;stroke:#000000;stroke-linecap:square;stroke-linejoin:miter;stroke-width:0.8;"/>
   </g>
   <g id="patch_4">
    <path d="M 648 320.4 
L 648 43.2 
" style="fill:none;stroke:#000000;stroke-linecap:square;stroke-linejoin:miter;stroke-width:0.8;"/>
   </g>
   <g id="patch_5">
    <path d="M 90 320.4 
L 648 320.4 
" style="fill:none;stroke:#000000;stroke-linecap:square;stroke-linejoin:miter;stroke-width:0.8;"/>
   </g>
   <g id="patch_6">
    <path d="M 90 43.2 
L 648 43.2 
" style="fill:none;stroke:#000000;stroke-linecap:square;stroke-linejoin:miter;stroke-width:0.8;"/>
   </g>
   <g id="text_17">
    <!-- Testplot -->
    <g transform="translate(345.68625 37.2)scale(0.12 -0.12)">
     <defs>
      <path d="M -0.296875 72.90625 
L 61.375 72.90625 
L 61.375 64.59375 
L 35.5 64.59375 
L 35.5 0 
L 25.59375 0 
L 25.59375 64.59375 
L -0.296875 64.59375 
z
" id="DejaVuSans-84"/>
      <path d="M 56.203125 29.59375 
L 56.203125 25.203125 
L 14.890625 25.203125 
Q 15.484375 15.921875 20.484375 11.0625 
Q 25.484375 6.203125 34.421875 6.203125 
Q 39.59375 6.203125 44.453125 7.46875 
Q 49.3125 8.734375 54.109375 11.28125 
L 54.109375 2.78125 
Q 49.265625 0.734375 44.1875 -0.34375 
Q 39.109375 -1.421875 33.890625 -1.421875 
Q 20.796875 -1.421875 13.15625 6.1875 
Q 5.515625 13.8125 5.515625 26.8125 
Q 5.515625 40.234375 12.765625 48.109375 
Q 20.015625 56 32.328125 56 
Q 43.359375 56 49.78125 48.890625 
Q 56.203125 41.796875 56.203125 29.59375 
z
M 47.21875 32.234375 
Q 47.125 39.59375 43.09375 43.984375 
Q 39.0625 48.390625 32.421875 48.390625 
Q 24.90625 48.390625 20.390625 44.140625 
Q 15.875 39.890625 15.1875 32.171875 
z
" id="DejaVuSans-101"/>
      <path d="M 44.28125 53.078125 
L 44.28125 44.578125 
Q 40.484375 46.53125 36.375 47.5 
Q 32.28125 48.484375 27.875 48.484375 
Q 21.1875 48.484375 17.84375 46.4375 
Q 14.5 44.390625 14.5 40.28125 
Q 14.5 37.15625 16.890625 35.375 
Q 19.28125 33.59375 26.515625 31.984375 
L 29.59375 31.296875 
Q 39.15625 29.25 43.1875 25.515625 
Q 47.21875 21.78125 47.21875 15.09375 
Q 47.21875 7.46875 41.1875 3.015625 
Q 35.15625 -1.421875 24.609375 -1.421875 
Q 20.21875 -1.421875 15.453125 -0.5625 
Q 10.6875 0.296875 5.421875 2 
L 5.421875 11.28125 
Q 10.40625 8.6875 15.234375 7.390625 
Q 20.0625 6.109375 24.8125 6.109375 
Q 31.15625 6.109375 34.5625 8.28125 
Q 37.984375 10.453125 37.984375 14.40625 
Q 37.984375 18.0625 35.515625 20.015625 
Q 33.0625 21.96875 24.703125 23.78125 
L 21.578125 24.515625 
Q 13.234375 26.265625 9.515625 29.90625 
Q 5.8125 33.546875 5.8125 39.890625 
Q 5.8125 47.609375 11.28125 51.796875 
Q 16.75 56 26.8125 56 
Q 31.78125 56 36.171875 55.265625 
Q 40.578125 54.546875 44.28125 53.078125 
z
" id="DejaVuSans-115"/>
      <path d="M 18.109375 8.203125 
L 18.109375 -20.796875 
L 9.078125 -20.796875 
L 9.078125 54.6875 
L 18.109375 54.6875 
L 18.109375 46.390625 
Q 20.953125 51.265625 25.265625 53.625 
Q 29.59375 56 35.59375 56 
Q 45.5625 56 51.78125 48.09375 
Q 58.015625 40.1875 58.015625 27.296875 
Q 58.015625 14.40625 51.78125 6.484375 
Q 45.5625 -1.421875 35.59375 -1.421875 
Q 29.59375 -1.421875 25.265625 0.953125 
Q 20.953125 3.328125 18.109375 8.203125 
z
M 48.6875 27.296875 
Q 48.6875 37.203125 44.609375 42.84375 
Q 40.53125 48.484375 33.40625 48.484375 
Q 26.265625 48.484375 22.1875 42.84375 
Q 18.109375 37.203125 18.109375 27.296875 
Q 18.109375 17.390625 22.1875 11.75 
Q 26.265625 6.109375 33.40625 6.109375 
Q 40.53125 6.109375 44.609375 11.75 
Q 48.6875 17.390625 48.6875 27.296875 
z
" id="DejaVuSans-112"/>
      <path d="M 9.421875 75.984375 
L 18.40625 75.984375 
L 18.40625 0 
L 9.421875 0 
z
" id="DejaVuSans-108"/>
      <path d="M 30.609375 48.390625 
Q 23.390625 48.390625 19.1875 42.75 
Q 14.984375 37.109375 14.984375 27.296875 
Q 14.984375 17.484375 19.15625 11.84375 
Q 23.34375 6.203125 30.609375 6.203125 
Q 37.796875 6.203125 41.984375 11.859375 
Q 46.1875 17.53125 46.1875 27.296875 
Q 46.1875 37.015625 41.984375 42.703125 
Q 37.796875 48.390625 30.609375 48.390625 
z
M 30.609375 56 
Q 42.328125 56 49.015625 48.375 
Q 55.71875 40.765625 55.71875 27.296875 
Q 55.71875 13.875 49.015625 6.21875 
Q 42.328125 -1.421875 30.609375 -1.421875 
Q 18.84375 -1.421875 12.171875 6.21875 
Q 5.515625 13.875 5.515625 27.296875 
Q 5.515625 40.765625 12.171875 48.375 
Q 18.84375 56 30.609375 56 
z
" id="DejaVuSans-111"/>
     </defs>
     <use xlink:href="#DejaVuSans-84"/>
     <use x="44.083984" xlink:href="#DejaVuSans-101"/>
     <use x="105.607422" xlink:href="#DejaVuSans-115"/>
     <use x="157.707031" xlink:href="#DejaVuSans-116"/>
     <use x="196.916016" xlink:href="#DejaVuSans-112"/>
     <use x="260.392578" xlink:href="#DejaVuSans-108"/>
     <use x="288.175781" xlink:href="#DejaVuSans-111"/>
     <use x="349.357422" xlink:href="#DejaVuSans-116"/>
    </g>
   </g>
   <g id="legend_1">
    <g id="patch_7">
     <path d="M 97 109.9125 
L 348.946875 109.9125 
Q 350.946875 109.9125 350.946875 107.9125 
L 350.946875 50.2 
Q 350.946875 48.2 348.946875 48.2 
L 97 48.2 
Q 95 48.2 95 50.2 
L 95 107.9125 
Q 95 109.9125 97 109.9125 
z
" style="fill:#ffffff;opacity:0.8;stroke:#cccccc;stroke-linejoin:miter;"/>
    </g>
    <g id="line2d_35">
     <path d="M 99 56.298437 
L 119 56.298437 
" style="fill:none;stroke:#ff0000;stroke-linecap:square;stroke-width:1.5;"/>
    </g>
    <g id="line2d_36"/>
    <g id="text_18">
     <!-- covid opgenomen patinten NICE (nu 1130) -->
     <g transform="translate(127 59.798437)scale(0.1 -0.1)">
      <defs>
       <path d="M 48.78125 52.59375 
L 48.78125 44.1875 
Q 44.96875 46.296875 41.140625 47.34375 
Q 37.3125 48.390625 33.40625 48.390625 
Q 24.65625 48.390625 19.8125 42.84375 
Q 14.984375 37.3125 14.984375 27.296875 
Q 14.984375 17.28125 19.8125 11.734375 
Q 24.65625 6.203125 33.40625 6.203125 
Q 37.3125 6.203125 41.140625 7.25 
Q 44.96875 8.296875 48.78125 10.40625 
L 48.78125 2.09375 
Q 45.015625 0.34375 40.984375 -0.53125 
Q 36.96875 -1.421875 32.421875 -1.421875 
Q 20.0625 -1.421875 12.78125 6.34375 
Q 5.515625 14.109375 5.515625 27.296875 
Q 5.515625 40.671875 12.859375 48.328125 
Q 20.21875 56 33.015625 56 
Q 37.15625 56 41.109375 55.140625 
Q 45.0625 54.296875 48.78125 52.59375 
z
" id="DejaVuSans-99"/>
       <path d="M 2.984375 54.6875 
L 12.5 54.6875 
L 29.59375 8.796875 
L 46.6875 54.6875 
L 56.203125 54.6875 
L 35.6875 0 
L 23.484375 0 
z
" id="DejaVuSans-118"/>
       <path d="M 9.421875 54.6875 
L 18.40625 54.6875 
L 18.40625 0 
L 9.421875 0 
z
M 9.421875 75.984375 
L 18.40625 75.984375 
L 18.40625 64.59375 
L 9.421875 64.59375 
z
" id="DejaVuSans-105"/>
       <path d="M 45.40625 46.390625 
L 45.40625 75.984375 
L 54.390625 75.984375 
L 54.390625 0 
L 45.40625 0 
L 45.40625 8.203125 
Q 42.578125 3.328125 38.25 0.953125 
Q 33.9375 -1.421875 27.875 -1.421875 
Q 17.96875 -1.421875 11.734375 6.484375 
Q 5.515625 14.40625 5.515625 27.296875 
Q 5.515625 40.1875 11.734375 48.09375 
Q 17.96875 56 27.875 56 
Q 33.9375 56 38.25 53.625 
Q 42.578125 51.265625 45.40625 46.390625 
z
M 14.796875 27.296875 
Q 14.796875 17.390625 18.875 11.75 
Q 22.953125 6.109375 30.078125 6.109375 
Q 37.203125 6.109375 41.296875 11.75 
Q 45.40625 17.390625 45.40625 27.296875 
Q 45.40625 37.203125 41.296875 42.84375 
Q 37.203125 48.484375 30.078125 48.484375 
Q 22.953125 48.484375 18.875 42.84375 
Q 14.796875 37.203125 14.796875 27.296875 
z
" id="DejaVuSans-100"/>
       <path id="DejaVuSans-32"/>
       <path d="M 45.40625 27.984375 
Q 45.40625 37.75 41.375 43.109375 
Q 37.359375 48.484375 30.078125 48.484375 
Q 22.859375 48.484375 18.828125 43.109375 
Q 14.796875 37.75 14.796875 27.984375 
Q 14.796875 18.265625 18.828125 12.890625 
Q 22.859375 7.515625 30.078125 7.515625 
Q 37.359375 7.515625 41.375 12.890625 
Q 45.40625 18.265625 45.40625 27.984375 
z
M 54.390625 6.78125 
Q 54.390625 -7.171875 48.1875 -13.984375 
Q 42 -20.796875 29.203125 -20.796875 
Q 24.46875 -20.796875 20.265625 -20.09375 
Q 16.0625 -19.390625 12.109375 -17.921875 
L 12.109375 -9.1875 
Q 16.0625 -11.328125 19.921875 -12.34375 
Q 23.78125 -13.375 27.78125 -13.375 
Q 36.625 -13.375 41.015625 -8.765625 
Q 45.40625 -4.15625 45.40625 5.171875 
L 45.40625 9.625 
Q 42.625 4.78125 38.28125 2.390625 
Q 33.9375 0 27.875 0 
Q 17.828125 0 11.671875 7.65625 
Q 5.515625 15.328125 5.515625 27.984375 
Q 5.515625 40.671875 11.671875 48.328125 
Q 17.828125 56 27.875 56 
Q 33.9375 56 38.28125 53.609375 
Q 42.625 51.21875 45.40625 46.390625 
L 45.40625 54.6875 
L 54.390625 54.6875 
z
" id="DejaVuSans-103"/>
       <path d="M 54.890625 33.015625 
L 54.890625 0 
L 45.90625 0 
L 45.90625 32.71875 
Q 45.90625 40.484375 42.875 44.328125 
Q 39.84375 48.1875 33.796875 48.1875 
Q 26.515625 48.1875 22.3125 43.546875 
Q 18.109375 38.921875 18.109375 30.90625 
L 18.109375 0 
L 9.078125 0 
L 9.078125 54.6875 
L 18.109375 54.6875 
L 18.109375 46.1875 
Q 21.34375 51.125 25.703125 53.5625 
Q 30.078125 56 35.796875 56 
Q 45.21875 56 50.046875 50.171875 
Q 54.890625 44.34375 54.890625 33.015625 
z
" id="DejaVuSans-110"/>
       <path d="M 56.203125 29.59375 
L 56.203125 25.203125 
L 14.890625 25.203125 
Q 15.484375 15.921875 20.484375 11.0625 
Q 25.484375 6.203125 34.421875 6.203125 
Q 39.59375 6.203125 44.453125 7.46875 
Q 49.3125 8.734375 54.109375 11.28125 
L 54.109375 2.78125 
Q 49.265625 0.734375 44.1875 -0.34375 
Q 39.109375 -1.421875 33.890625 -1.421875 
Q 20.796875 -1.421875 13.15625 6.1875 
Q 5.515625 13.8125 5.515625 26.8125 
Q 5.515625 40.234375 12.765625 48.109375 
Q 20.015625 56 32.328125 56 
Q 43.359375 56 49.78125 48.890625 
Q 56.203125 41.796875 56.203125 29.59375 
z
M 47.21875 32.234375 
Q 47.125 39.59375 43.09375 43.984375 
Q 39.0625 48.390625 32.421875 48.390625 
Q 24.90625 48.390625 20.390625 44.140625 
Q 15.875 39.890625 15.1875 32.171875 
z
M 36.34375 75.78125 
L 46.25 75.78125 
L 46.25 65.921875 
L 36.34375 65.921875 
z
M 17.25 75.78125 
L 27.15625 75.78125 
L 27.15625 65.921875 
L 17.25 65.921875 
z
" id="DejaVuSans-235"/>
       <path d="M 9.8125 72.90625 
L 23.09375 72.90625 
L 55.421875 11.921875 
L 55.421875 72.90625 
L 64.984375 72.90625 
L 64.984375 0 
L 51.703125 0 
L 19.390625 60.984375 
L 19.390625 0 
L 9.8125 0 
z
" id="DejaVuSans-78"/>
       <path d="M 9.8125 72.90625 
L 19.671875 72.90625 
L 19.671875 0 
L 9.8125 0 
z
" id="DejaVuSans-73"/>
       <path d="M 64.40625 67.28125 
L 64.40625 56.890625 
Q 59.421875 61.53125 53.78125 63.8125 
Q 48.140625 66.109375 41.796875 66.109375 
Q 29.296875 66.109375 22.65625 58.46875 
Q 16.015625 50.828125 16.015625 36.375 
Q 16.015625 21.96875 22.65625 14.328125 
Q 29.296875 6.6875 41.796875 6.6875 
Q 48.140625 6.6875 53.78125 8.984375 
Q 59.421875 11.28125 64.40625 15.921875 
L 64.40625 5.609375 
Q 59.234375 2.09375 53.4375 0.328125 
Q 47.65625 -1.421875 41.21875 -1.421875 
Q 24.65625 -1.421875 15.125 8.703125 
Q 5.609375 18.84375 5.609375 36.375 
Q 5.609375 53.953125 15.125 64.078125 
Q 24.65625 74.21875 41.21875 74.21875 
Q 47.75 74.21875 53.53125 72.484375 
Q 59.328125 70.75 64.40625 67.28125 
z
" id="DejaVuSans-67"/>
       <path d="M 9.8125 72.90625 
L 55.90625 72.90625 
L 55.90625 64.59375 
L 19.671875 64.59375 
L 19.671875 43.015625 
L 54.390625 43.015625 
L 54.390625 34.71875 
L 19.671875 34.71875 
L 19.671875 8.296875 
L 56.78125 8.296875 
L 56.78125 0 
L 9.8125 0 
z
" id="DejaVuSans-69"/>
       <path d="M 31 75.875 
Q 24.46875 64.65625 21.28125 53.65625 
Q 18.109375 42.671875 18.109375 31.390625 
Q 18.109375 20.125 21.3125 9.0625 
Q 24.515625 -2 31 -13.1875 
L 23.1875 -13.1875 
Q 15.875 -1.703125 12.234375 9.375 
Q 8.59375 20.453125 8.59375 31.390625 
Q 8.59375 42.28125 12.203125 53.3125 
Q 15.828125 64.359375 23.1875 75.875 
z
" id="DejaVuSans-40"/>
       <path d="M 8.015625 75.875 
L 15.828125 75.875 
Q 23.140625 64.359375 26.78125 53.3125 
Q 30.421875 42.28125 30.421875 31.390625 
Q 30.421875 20.453125 26.78125 9.375 
Q 23.140625 -1.703125 15.828125 -13.1875 
L 8.015625 -13.1875 
Q 14.5 -2 17.703125 9.0625 
Q 20.90625 20.125 20.90625 31.390625 
Q 20.90625 42.671875 17.703125 53.65625 
Q 14.5 64.65625 8.015625 75.875 
z
" id="DejaVuSans-41"/>
      </defs>
      <use xlink:href="#DejaVuSans-99"/>
      <use x="54.980469" xlink:href="#DejaVuSans-111"/>
      <use x="116.162109" xlink:href="#DejaVuSans-118"/>
      <use x="175.341797" xlink:href="#DejaVuSans-105"/>
      <use x="203.125" xlink:href="#DejaVuSans-100"/>
      <use x="266.601562" xlink:href="#DejaVuSans-32"/>
      <use x="298.388672" xlink:href="#DejaVuSans-111"/>
      <use x="359.570312" xlink:href="#DejaVuSans-112"/>
      <use x="423.046875" xlink:href="#DejaVuSans-103"/>
      <use x="486.523438" xlink:href="#DejaVuSans-101"/>
      <use x="548.046875" xlink:href="#DejaVuSans-110"/>
      <use x="611.425781" xlink:href="#DejaVuSans-111"/>
      <use x="672.607422" xlink:href="#DejaVuSans-109"/>
      <use x="770.019531" xlink:href="#DejaVuSans-101"/>
      <use x="831.542969" xlink:href="#DejaVuSans-110"/>
      <use x="894.921875" xlink:href="#DejaVuSans-32"/>
      <use x="926.708984" xlink:href="#DejaVuSans-112"/>
      <use x="990.185547" xlink:href="#DejaVuSans-97"/>
      <use x="1051.464844" xlink:href="#DejaVuSans-116"/>
      <use x="1090.673828" xlink:href="#DejaVuSans-105"/>
      <use x="1118.457031" xlink:href="#DejaVuSans-235"/>
      <use x="1179.980469" xlink:href="#DejaVuSans-110"/>
      <use x="1243.359375" xlink:href="#DejaVuSans-116"/>
      <use x="1282.568359" xlink:href="#DejaVuSans-101"/>
      <use x="1344.091797" xlink:href="#DejaVuSans-110"/>
      <use x="1407.470703" xlink:href="#DejaVuSans-32"/>
      <use x="1439.257812" xlink:href="#DejaVuSans-78"/>
      <use x="1514.0625" xlink:href="#DejaVuSans-73"/>
      <use x="1543.554688" xlink:href="#DejaVuSans-67"/>
      <use x="1613.378906" xlink:href="#DejaVuSans-69"/>
      <use x="1676.5625" xlink:href="#DejaVuSans-32"/>
      <use x="1708.349609" xlink:href="#DejaVuSans-40"/>
      <use x="1747.363281" xlink:href="#DejaVuSans-110"/>
      <use x="1810.742188" xlink:href="#DejaVuSans-117"/>
      <use x="1874.121094" xlink:href="#DejaVuSans-32"/>
      <use x="1905.908203" xlink:href="#DejaVuSans-49"/>
      <use x="1969.53125" xlink:href="#DejaVuSans-49"/>
      <use x="2033.154297" xlink:href="#DejaVuSans-51"/>
      <use x="2096.777344" xlink:href="#DejaVuSans-48"/>
      <use x="2160.400391" xlink:href="#DejaVuSans-41"/>
     </g>
    </g>
    <g id="line2d_37">
     <path d="M 99 70.976562 
L 119 70.976562 
" style="fill:none;stroke:#ffa500;stroke-linecap:square;stroke-width:1.5;"/>
    </g>
    <g id="line2d_38"/>
    <g id="text_19">
     <!-- covid bezette bedden LCPS (nu 315) -->
     <g transform="translate(127 74.476562)scale(0.1 -0.1)">
      <defs>
       <path d="M 48.6875 27.296875 
Q 48.6875 37.203125 44.609375 42.84375 
Q 40.53125 48.484375 33.40625 48.484375 
Q 26.265625 48.484375 22.1875 42.84375 
Q 18.109375 37.203125 18.109375 27.296875 
Q 18.109375 17.390625 22.1875 11.75 
Q 26.265625 6.109375 33.40625 6.109375 
Q 40.53125 6.109375 44.609375 11.75 
Q 48.6875 17.390625 48.6875 27.296875 
z
M 18.109375 46.390625 
Q 20.953125 51.265625 25.265625 53.625 
Q 29.59375 56 35.59375 56 
Q 45.5625 56 51.78125 48.09375 
Q 58.015625 40.1875 58.015625 27.296875 
Q 58.015625 14.40625 51.78125 6.484375 
Q 45.5625 -1.421875 35.59375 -1.421875 
Q 29.59375 -1.421875 25.265625 0.953125 
Q 20.953125 3.328125 18.109375 8.203125 
L 18.109375 0 
L 9.078125 0 
L 9.078125 75.984375 
L 18.109375 75.984375 
z
" id="DejaVuSans-98"/>
       <path d="M 5.515625 54.6875 
L 48.1875 54.6875 
L 48.1875 46.484375 
L 14.40625 7.171875 
L 48.1875 7.171875 
L 48.1875 0 
L 4.296875 0 
L 4.296875 8.203125 
L 38.09375 47.515625 
L 5.515625 47.515625 
z
" id="DejaVuSans-122"/>
       <path d="M 9.8125 72.90625 
L 19.671875 72.90625 
L 19.671875 8.296875 
L 55.171875 8.296875 
L 55.171875 0 
L 9.8125 0 
z
" id="DejaVuSans-76"/>
       <path d="M 19.671875 64.796875 
L 19.671875 37.40625 
L 32.078125 37.40625 
Q 38.96875 37.40625 42.71875 40.96875 
Q 46.484375 44.53125 46.484375 51.125 
Q 46.484375 57.671875 42.71875 61.234375 
Q 38.96875 64.796875 32.078125 64.796875 
z
M 9.8125 72.90625 
L 32.078125 72.90625 
Q 44.34375 72.90625 50.609375 67.359375 
Q 56.890625 61.8125 56.890625 51.125 
Q 56.890625 40.328125 50.609375 34.8125 
Q 44.34375 29.296875 32.078125 29.296875 
L 19.671875 29.296875 
L 19.671875 0 
L 9.8125 0 
z
" id="DejaVuSans-80"/>
       <path d="M 53.515625 70.515625 
L 53.515625 60.890625 
Q 47.90625 63.578125 42.921875 64.890625 
Q 37.9375 66.21875 33.296875 66.21875 
Q 25.25 66.21875 20.875 63.09375 
Q 16.5 59.96875 16.5 54.203125 
Q 16.5 49.359375 19.40625 46.890625 
Q 22.3125 44.4375 30.421875 42.921875 
L 36.375 41.703125 
Q 47.40625 39.59375 52.65625 34.296875 
Q 57.90625 29 57.90625 20.125 
Q 57.90625 9.515625 50.796875 4.046875 
Q 43.703125 -1.421875 29.984375 -1.421875 
Q 24.8125 -1.421875 18.96875 -0.25 
Q 13.140625 0.921875 6.890625 3.21875 
L 6.890625 13.375 
Q 12.890625 10.015625 18.65625 8.296875 
Q 24.421875 6.59375 29.984375 6.59375 
Q 38.421875 6.59375 43.015625 9.90625 
Q 47.609375 13.234375 47.609375 19.390625 
Q 47.609375 24.75 44.3125 27.78125 
Q 41.015625 30.8125 33.5 32.328125 
L 27.484375 33.5 
Q 16.453125 35.6875 11.515625 40.375 
Q 6.59375 45.0625 6.59375 53.421875 
Q 6.59375 63.09375 13.40625 68.65625 
Q 20.21875 74.21875 32.171875 74.21875 
Q 37.3125 74.21875 42.625 73.28125 
Q 47.953125 72.359375 53.515625 70.515625 
z
" id="DejaVuSans-83"/>
      </defs>
      <use xlink:href="#DejaVuSans-99"/>
      <use x="54.980469" xlink:href="#DejaVuSans-111"/>
      <use x="116.162109" xlink:href="#DejaVuSans-118"/>
      <use x="175.341797" xlink:href="#DejaVuSans-105"/>
      <use x="203.125" xlink:href="#DejaVuSans-100"/>
      <use x="266.601562" xlink:href="#DejaVuSans-32"/>
      <use x="298.388672" xlink:href="#DejaVuSans-98"/>
      <use x="361.865234" xlink:href="#DejaVuSans-101"/>
      <use x="423.388672" xlink:href="#DejaVuSans-122"/>
      <use x="475.878906" xlink:href="#DejaVuSans-101"/>
      <use x="537.402344" xlink:href="#DejaVuSans-116"/>
      <use x="576.611328" xlink:href="#DejaVuSans-116"/>
      <use x="615.820312" xlink:href="#DejaVuSans-101"/>
      <use x="677.34375" xlink:href="#DejaVuSans-32"/>
      <use x="709.130859" xlink:href="#DejaVuSans-98"/>
      <use x="772.607422" xlink:href="#DejaVuSans-101"/>
      <use x="834.130859" xlink:href="#DejaVuSans-100"/>
      <use x="897.607422" xlink:href="#DejaVuSans-100"/>
      <use x="961.083984" xlink:href="#DejaVuSans-101"/>
      <use x="1022.607422" xlink:href="#DejaVuSans-110"/>
      <use x="1085.986328" xlink:href="#DejaVuSans-32"/>
      <use x="1117.773438" xlink:href="#DejaVuSans-76"/>
      <use x="1173.486328" xlink:href="#DejaVuSans-67"/>
      <use x="1243.310547" xlink:href="#DejaVuSans-80"/>
      <use x="1303.613281" xlink:href="#DejaVuSans-83"/>
      <use x="1367.089844" xlink:href="#DejaVuSans-32"/>
      <use x="1398.876953" xlink:href="#DejaVuSans-40"/>
      <use x="1437.890625" xlink:href="#DejaVuSans-110"/>
      <use x="1501.269531" xlink:href="#DejaVuSans-117"/>
      <use x="1564.648438" xlink:href="#DejaVuSans-32"/>
      <use x="1596.435547" xlink:href="#DejaVuSans-51"/>
      <use x="1660.058594" xlink:href="#DejaVuSans-49"/>
      <use x="1723.681641" xlink:href="#DejaVuSans-53"/>
      <use x="1787.304688" xlink:href="#DejaVuSans-41"/>
     </g>
    </g>
    <g id="line2d_39">
     <path d="M 99 85.654687 
L 119 85.654687 
" style="fill:none;stroke:#0000ff;stroke-linecap:square;stroke-width:1.5;"/>
    </g>
    <g id="line2d_40"/>
    <g id="text_20">
     <!-- non-covid bezette IC bedden LCPS (nu 543) -->
     <g transform="translate(127 89.154687)scale(0.1 -0.1)">
      <use xlink:href="#DejaVuSans-110"/>
      <use x="63.378906" xlink:href="#DejaVuSans-111"/>
      <use x="124.560547" xlink:href="#DejaVuSans-110"/>
      <use x="187.939453" xlink:href="#DejaVuSans-45"/>
      <use x="224.023438" xlink:href="#DejaVuSans-99"/>
      <use x="279.003906" xlink:href="#DejaVuSans-111"/>
      <use x="340.185547" xlink:href="#DejaVuSans-118"/>
      <use x="399.365234" xlink:href="#DejaVuSans-105"/>
      <use x="427.148438" xlink:href="#DejaVuSans-100"/>
      <use x="490.625" xlink:href="#DejaVuSans-32"/>
      <use x="522.412109" xlink:href="#DejaVuSans-98"/>
      <use x="585.888672" xlink:href="#DejaVuSans-101"/>
      <use x="647.412109" xlink:href="#DejaVuSans-122"/>
      <use x="699.902344" xlink:href="#DejaVuSans-101"/>
      <use x="761.425781" xlink:href="#DejaVuSans-116"/>
      <use x="800.634766" xlink:href="#DejaVuSans-116"/>
      <use x="839.84375" xlink:href="#DejaVuSans-101"/>
      <use x="901.367188" xlink:href="#DejaVuSans-32"/>
      <use x="933.154297" xlink:href="#DejaVuSans-73"/>
      <use x="962.646484" xlink:href="#DejaVuSans-67"/>
      <use x="1032.470703" xlink:href="#DejaVuSans-32"/>
      <use x="1064.257812" xlink:href="#DejaVuSans-98"/>
      <use x="1127.734375" xlink:href="#DejaVuSans-101"/>
      <use x="1189.257812" xlink:href="#DejaVuSans-100"/>
      <use x="1252.734375" xlink:href="#DejaVuSans-100"/>
      <use x="1316.210938" xlink:href="#DejaVuSans-101"/>
      <use x="1377.734375" xlink:href="#DejaVuSans-110"/>
      <use x="1441.113281" xlink:href="#DejaVuSans-32"/>
      <use x="1472.900391" xlink:href="#DejaVuSans-76"/>
      <use x="1528.613281" xlink:href="#DejaVuSans-67"/>
      <use x="1598.4375" xlink:href="#DejaVuSans-80"/>
      <use x="1658.740234" xlink:href="#DejaVuSans-83"/>
      <use x="1722.216797" xlink:href="#DejaVuSans-32"/>
      <use x="1754.003906" xlink:href="#DejaVuSans-40"/>
      <use x="1793.017578" xlink:href="#DejaVuSans-110"/>
      <use x="1856.396484" xlink:href="#DejaVuSans-117"/>
      <use x="1919.775391" xlink:href="#DejaVuSans-32"/>
      <use x="1951.5625" xlink:href="#DejaVuSans-53"/>
      <use x="2015.185547" xlink:href="#DejaVuSans-52"/>
      <use x="2078.808594" xlink:href="#DejaVuSans-51"/>
      <use x="2142.431641" xlink:href="#DejaVuSans-41"/>
     </g>
    </g>
    <g id="line2d_41">
     <path d="M 99 100.332812 
L 119 100.332812 
" style="fill:none;stroke:#00ffff;stroke-linecap:square;stroke-width:1.5;"/>
    </g>
    <g id="line2d_42"/>
    <g id="text_21">
     <!-- covid bezette IC bedden LCPS (nu 100) -->
     <g transform="translate(127 103.832812)scale(0.1 -0.1)">
      <use xlink:href="#DejaVuSans-99"/>
      <use x="54.980469" xlink:href="#DejaVuSans-111"/>
      <use x="116.162109" xlink:href="#DejaVuSans-118"/>
      <use x="175.341797" xlink:href="#DejaVuSans-105"/>
      <use x="203.125" xlink:href="#DejaVuSans-100"/>
      <use x="266.601562" xlink:href="#DejaVuSans-32"/>
      <use x="298.388672" xlink:href="#DejaVuSans-98"/>
      <use x="361.865234" xlink:href="#DejaVuSans-101"/>
      <use x="423.388672" xlink:href="#DejaVuSans-122"/>
      <use x="475.878906" xlink:href="#DejaVuSans-101"/>
      <use x="537.402344" xlink:href="#DejaVuSans-116"/>
      <use x="576.611328" xlink:href="#DejaVuSans-116"/>
      <use x="615.820312" xlink:href="#DejaVuSans-101"/>
      <use x="677.34375" xlink:href="#DejaVuSans-32"/>
      <use x="709.130859" xlink:href="#DejaVuSans-73"/>
      <use x="738.623047" xlink:href="#DejaVuSans-67"/>
      <use x="808.447266" xlink:href="#DejaVuSans-32"/>
      <use x="840.234375" xlink:href="#DejaVuSans-98"/>
      <use x="903.710938" xlink:href="#DejaVuSans-101"/>
      <use x="965.234375" xlink:href="#DejaVuSans-100"/>
      <use x="1028.710938" xlink:href="#DejaVuSans-100"/>
      <use x="1092.1875" xlink:href="#DejaVuSans-101"/>
      <use x="1153.710938" xlink:href="#DejaVuSans-110"/>
      <use x="1217.089844" xlink:href="#DejaVuSans-32"/>
      <use x="1248.876953" xlink:href="#DejaVuSans-76"/>
      <use x="1304.589844" xlink:href="#DejaVuSans-67"/>
      <use x="1374.414062" xlink:href="#DejaVuSans-80"/>
      <use x="1434.716797" xlink:href="#DejaVuSans-83"/>
      <use x="1498.193359" xlink:href="#DejaVuSans-32"/>
      <use x="1529.980469" xlink:href="#DejaVuSans-40"/>
      <use x="1568.994141" xlink:href="#DejaVuSans-110"/>
      <use x="1632.373047" xlink:href="#DejaVuSans-117"/>
      <use x="1695.751953" xlink:href="#DejaVuSans-32"/>
      <use x="1727.539062" xlink:href="#DejaVuSans-49"/>
      <use x="1791.162109" xlink:href="#DejaVuSans-48"/>
      <use x="1854.785156" xlink:href="#DejaVuSans-48"/>
      <use x="1918.408203" xlink:href="#DejaVuSans-41"/>
     </g>
    </g>
   </g>
  </g>
 </g>
 <defs>
  <clipPath id="p12b96f6b4f">
   <rect height="277.2" width="558" x="90" y="43.2"/>
  </clipPath>
 </defs>
</svg>
